<?xml version="1.0" encoding="utf-8" standalone="no"?>
<!DOCTYPE svg PUBLIC "-//W3C//DTD SVG 1.1//EN"
  "http://www.w3.org/Graphics/SVG/1.1/DTD/svg11.dtd">
<svg xmlns:xlink="http://www.w3.org/1999/xlink" width="1080pt" height="504pt" viewBox="0 0 1080 504" xmlns="http://www.w3.org/2000/svg" version="1.1">
 <metadata>
  <rdf:RDF xmlns:dc="http://purl.org/dc/elements/1.1/" xmlns:cc="http://creativecommons.org/ns#" xmlns:rdf="http://www.w3.org/1999/02/22-rdf-syntax-ns#">
   <cc:Work>
    <dc:type rdf:resource="http://purl.org/dc/dcmitype/StillImage"/>
    <dc:date>2024-05-09T11:04:49.506282</dc:date>
    <dc:format>image/svg+xml</dc:format>
    <dc:creator>
     <cc:Agent>
      <dc:title>Matplotlib v3.7.1, https://matplotlib.org/</dc:title>
     </cc:Agent>
    </dc:creator>
   </cc:Work>
  </rdf:RDF>
 </metadata>
 <defs>
  <style type="text/css">*{stroke-linejoin: round; stroke-linecap: butt}</style>
 </defs>
 <g id="figure_1">
  <g id="patch_1">
   <path d="M 0 504 
L 1080 504 
L 1080 0 
L 0 0 
z
" style="fill: #ffffff"/>
  </g>
  <g id="axes_1">
   <g id="patch_2">
    <path d="M 135 448.56 
L 972 448.56 
L 972 60.48 
L 135 60.48 
z
" style="fill: #ffffff"/>
   </g>
   <g id="matplotlib.axis_1">
    <g id="xtick_1">
     <g id="line2d_1">
      <defs>
       <path id="m0aac53a75b" d="M 0 0 
L 0 3.5 
" style="stroke: #000000; stroke-width: 0.8"/>
      </defs>
      <g>
       <use xlink:href="#m0aac53a75b" x="173.045455" y="448.56" style="stroke: #000000; stroke-width: 0.8"/>
      </g>
     </g>
     <g id="text_1">
      <!-- 0 -->
      <g transform="translate(169.864205 463.158437) scale(0.1 -0.1)">
       <defs>
        <path id="DejaVuSans-30" d="M 2034 4250 
Q 1547 4250 1301 3770 
Q 1056 3291 1056 2328 
Q 1056 1369 1301 889 
Q 1547 409 2034 409 
Q 2525 409 2770 889 
Q 3016 1369 3016 2328 
Q 3016 3291 2770 3770 
Q 2525 4250 2034 4250 
z
M 2034 4750 
Q 2819 4750 3233 4129 
Q 3647 3509 3647 2328 
Q 3647 1150 3233 529 
Q 2819 -91 2034 -91 
Q 1250 -91 836 529 
Q 422 1150 422 2328 
Q 422 3509 836 4129 
Q 1250 4750 2034 4750 
z
" transform="scale(0.015625)"/>
       </defs>
       <use xlink:href="#DejaVuSans-30"/>
      </g>
     </g>
    </g>
    <g id="xtick_2">
     <g id="line2d_2">
      <g>
       <use xlink:href="#m0aac53a75b" x="333.33808" y="448.56" style="stroke: #000000; stroke-width: 0.8"/>
      </g>
     </g>
     <g id="text_2">
      <!-- 1000 -->
      <g transform="translate(320.61308 463.158437) scale(0.1 -0.1)">
       <defs>
        <path id="DejaVuSans-31" d="M 794 531 
L 1825 531 
L 1825 4091 
L 703 3866 
L 703 4441 
L 1819 4666 
L 2450 4666 
L 2450 531 
L 3481 531 
L 3481 0 
L 794 0 
L 794 531 
z
" transform="scale(0.015625)"/>
       </defs>
       <use xlink:href="#DejaVuSans-31"/>
       <use xlink:href="#DejaVuSans-30" x="63.623047"/>
       <use xlink:href="#DejaVuSans-30" x="127.246094"/>
       <use xlink:href="#DejaVuSans-30" x="190.869141"/>
      </g>
     </g>
    </g>
    <g id="xtick_3">
     <g id="line2d_3">
      <g>
       <use xlink:href="#m0aac53a75b" x="493.630705" y="448.56" style="stroke: #000000; stroke-width: 0.8"/>
      </g>
     </g>
     <g id="text_3">
      <!-- 2000 -->
      <g transform="translate(480.905705 463.158437) scale(0.1 -0.1)">
       <defs>
        <path id="DejaVuSans-32" d="M 1228 531 
L 3431 531 
L 3431 0 
L 469 0 
L 469 531 
Q 828 903 1448 1529 
Q 2069 2156 2228 2338 
Q 2531 2678 2651 2914 
Q 2772 3150 2772 3378 
Q 2772 3750 2511 3984 
Q 2250 4219 1831 4219 
Q 1534 4219 1204 4116 
Q 875 4013 500 3803 
L 500 4441 
Q 881 4594 1212 4672 
Q 1544 4750 1819 4750 
Q 2544 4750 2975 4387 
Q 3406 4025 3406 3419 
Q 3406 3131 3298 2873 
Q 3191 2616 2906 2266 
Q 2828 2175 2409 1742 
Q 1991 1309 1228 531 
z
" transform="scale(0.015625)"/>
       </defs>
       <use xlink:href="#DejaVuSans-32"/>
       <use xlink:href="#DejaVuSans-30" x="63.623047"/>
       <use xlink:href="#DejaVuSans-30" x="127.246094"/>
       <use xlink:href="#DejaVuSans-30" x="190.869141"/>
      </g>
     </g>
    </g>
    <g id="xtick_4">
     <g id="line2d_4">
      <g>
       <use xlink:href="#m0aac53a75b" x="653.92333" y="448.56" style="stroke: #000000; stroke-width: 0.8"/>
      </g>
     </g>
     <g id="text_4">
      <!-- 3000 -->
      <g transform="translate(641.19833 463.158437) scale(0.1 -0.1)">
       <defs>
        <path id="DejaVuSans-33" d="M 2597 2516 
Q 3050 2419 3304 2112 
Q 3559 1806 3559 1356 
Q 3559 666 3084 287 
Q 2609 -91 1734 -91 
Q 1441 -91 1130 -33 
Q 819 25 488 141 
L 488 750 
Q 750 597 1062 519 
Q 1375 441 1716 441 
Q 2309 441 2620 675 
Q 2931 909 2931 1356 
Q 2931 1769 2642 2001 
Q 2353 2234 1838 2234 
L 1294 2234 
L 1294 2753 
L 1863 2753 
Q 2328 2753 2575 2939 
Q 2822 3125 2822 3475 
Q 2822 3834 2567 4026 
Q 2313 4219 1838 4219 
Q 1578 4219 1281 4162 
Q 984 4106 628 3988 
L 628 4550 
Q 988 4650 1302 4700 
Q 1616 4750 1894 4750 
Q 2613 4750 3031 4423 
Q 3450 4097 3450 3541 
Q 3450 3153 3228 2886 
Q 3006 2619 2597 2516 
z
" transform="scale(0.015625)"/>
       </defs>
       <use xlink:href="#DejaVuSans-33"/>
       <use xlink:href="#DejaVuSans-30" x="63.623047"/>
       <use xlink:href="#DejaVuSans-30" x="127.246094"/>
       <use xlink:href="#DejaVuSans-30" x="190.869141"/>
      </g>
     </g>
    </g>
    <g id="xtick_5">
     <g id="line2d_5">
      <g>
       <use xlink:href="#m0aac53a75b" x="814.215955" y="448.56" style="stroke: #000000; stroke-width: 0.8"/>
      </g>
     </g>
     <g id="text_5">
      <!-- 4000 -->
      <g transform="translate(801.490955 463.158437) scale(0.1 -0.1)">
       <defs>
        <path id="DejaVuSans-34" d="M 2419 4116 
L 825 1625 
L 2419 1625 
L 2419 4116 
z
M 2253 4666 
L 3047 4666 
L 3047 1625 
L 3713 1625 
L 3713 1100 
L 3047 1100 
L 3047 0 
L 2419 0 
L 2419 1100 
L 313 1100 
L 313 1709 
L 2253 4666 
z
" transform="scale(0.015625)"/>
       </defs>
       <use xlink:href="#DejaVuSans-34"/>
       <use xlink:href="#DejaVuSans-30" x="63.623047"/>
       <use xlink:href="#DejaVuSans-30" x="127.246094"/>
       <use xlink:href="#DejaVuSans-30" x="190.869141"/>
      </g>
     </g>
    </g>
    <g id="text_6">
     <!-- t -->
     <g transform="translate(551.539844 476.836563) scale(0.1 -0.1)">
      <defs>
       <path id="DejaVuSans-74" d="M 1172 4494 
L 1172 3500 
L 2356 3500 
L 2356 3053 
L 1172 3053 
L 1172 1153 
Q 1172 725 1289 603 
Q 1406 481 1766 481 
L 2356 481 
L 2356 0 
L 1766 0 
Q 1100 0 847 248 
Q 594 497 594 1153 
L 594 3053 
L 172 3053 
L 172 3500 
L 594 3500 
L 594 4494 
L 1172 4494 
z
" transform="scale(0.015625)"/>
      </defs>
      <use xlink:href="#DejaVuSans-74"/>
     </g>
    </g>
   </g>
   <g id="matplotlib.axis_2">
    <g id="ytick_1">
     <g id="line2d_6">
      <defs>
       <path id="mb74b742d99" d="M 0 0 
L -3.5 0 
" style="stroke: #000000; stroke-width: 0.8"/>
      </defs>
      <g>
       <use xlink:href="#mb74b742d99" x="135" y="420.765672" style="stroke: #000000; stroke-width: 0.8"/>
      </g>
     </g>
     <g id="text_7">
      <!-- −0.2 -->
      <g transform="translate(103.717187 424.564891) scale(0.1 -0.1)">
       <defs>
        <path id="DejaVuSans-2212" d="M 678 2272 
L 4684 2272 
L 4684 1741 
L 678 1741 
L 678 2272 
z
" transform="scale(0.015625)"/>
        <path id="DejaVuSans-2e" d="M 684 794 
L 1344 794 
L 1344 0 
L 684 0 
L 684 794 
z
" transform="scale(0.015625)"/>
       </defs>
       <use xlink:href="#DejaVuSans-2212"/>
       <use xlink:href="#DejaVuSans-30" x="83.789062"/>
       <use xlink:href="#DejaVuSans-2e" x="147.412109"/>
       <use xlink:href="#DejaVuSans-32" x="179.199219"/>
      </g>
     </g>
    </g>
    <g id="ytick_2">
     <g id="line2d_7">
      <g>
       <use xlink:href="#mb74b742d99" x="135" y="367.284184" style="stroke: #000000; stroke-width: 0.8"/>
      </g>
     </g>
     <g id="text_8">
      <!-- 0.0 -->
      <g transform="translate(112.096875 371.083402) scale(0.1 -0.1)">
       <use xlink:href="#DejaVuSans-30"/>
       <use xlink:href="#DejaVuSans-2e" x="63.623047"/>
       <use xlink:href="#DejaVuSans-30" x="95.410156"/>
      </g>
     </g>
    </g>
    <g id="ytick_3">
     <g id="line2d_8">
      <g>
       <use xlink:href="#mb74b742d99" x="135" y="313.802695" style="stroke: #000000; stroke-width: 0.8"/>
      </g>
     </g>
     <g id="text_9">
      <!-- 0.2 -->
      <g transform="translate(112.096875 317.601914) scale(0.1 -0.1)">
       <use xlink:href="#DejaVuSans-30"/>
       <use xlink:href="#DejaVuSans-2e" x="63.623047"/>
       <use xlink:href="#DejaVuSans-32" x="95.410156"/>
      </g>
     </g>
    </g>
    <g id="ytick_4">
     <g id="line2d_9">
      <g>
       <use xlink:href="#mb74b742d99" x="135" y="260.321207" style="stroke: #000000; stroke-width: 0.8"/>
      </g>
     </g>
     <g id="text_10">
      <!-- 0.4 -->
      <g transform="translate(112.096875 264.120425) scale(0.1 -0.1)">
       <use xlink:href="#DejaVuSans-30"/>
       <use xlink:href="#DejaVuSans-2e" x="63.623047"/>
       <use xlink:href="#DejaVuSans-34" x="95.410156"/>
      </g>
     </g>
    </g>
    <g id="ytick_5">
     <g id="line2d_10">
      <g>
       <use xlink:href="#mb74b742d99" x="135" y="206.839718" style="stroke: #000000; stroke-width: 0.8"/>
      </g>
     </g>
     <g id="text_11">
      <!-- 0.6 -->
      <g transform="translate(112.096875 210.638937) scale(0.1 -0.1)">
       <defs>
        <path id="DejaVuSans-36" d="M 2113 2584 
Q 1688 2584 1439 2293 
Q 1191 2003 1191 1497 
Q 1191 994 1439 701 
Q 1688 409 2113 409 
Q 2538 409 2786 701 
Q 3034 994 3034 1497 
Q 3034 2003 2786 2293 
Q 2538 2584 2113 2584 
z
M 3366 4563 
L 3366 3988 
Q 3128 4100 2886 4159 
Q 2644 4219 2406 4219 
Q 1781 4219 1451 3797 
Q 1122 3375 1075 2522 
Q 1259 2794 1537 2939 
Q 1816 3084 2150 3084 
Q 2853 3084 3261 2657 
Q 3669 2231 3669 1497 
Q 3669 778 3244 343 
Q 2819 -91 2113 -91 
Q 1303 -91 875 529 
Q 447 1150 447 2328 
Q 447 3434 972 4092 
Q 1497 4750 2381 4750 
Q 2619 4750 2861 4703 
Q 3103 4656 3366 4563 
z
" transform="scale(0.015625)"/>
       </defs>
       <use xlink:href="#DejaVuSans-30"/>
       <use xlink:href="#DejaVuSans-2e" x="63.623047"/>
       <use xlink:href="#DejaVuSans-36" x="95.410156"/>
      </g>
     </g>
    </g>
    <g id="ytick_6">
     <g id="line2d_11">
      <g>
       <use xlink:href="#mb74b742d99" x="135" y="153.35823" style="stroke: #000000; stroke-width: 0.8"/>
      </g>
     </g>
     <g id="text_12">
      <!-- 0.8 -->
      <g transform="translate(112.096875 157.157448) scale(0.1 -0.1)">
       <defs>
        <path id="DejaVuSans-38" d="M 2034 2216 
Q 1584 2216 1326 1975 
Q 1069 1734 1069 1313 
Q 1069 891 1326 650 
Q 1584 409 2034 409 
Q 2484 409 2743 651 
Q 3003 894 3003 1313 
Q 3003 1734 2745 1975 
Q 2488 2216 2034 2216 
z
M 1403 2484 
Q 997 2584 770 2862 
Q 544 3141 544 3541 
Q 544 4100 942 4425 
Q 1341 4750 2034 4750 
Q 2731 4750 3128 4425 
Q 3525 4100 3525 3541 
Q 3525 3141 3298 2862 
Q 3072 2584 2669 2484 
Q 3125 2378 3379 2068 
Q 3634 1759 3634 1313 
Q 3634 634 3220 271 
Q 2806 -91 2034 -91 
Q 1263 -91 848 271 
Q 434 634 434 1313 
Q 434 1759 690 2068 
Q 947 2378 1403 2484 
z
M 1172 3481 
Q 1172 3119 1398 2916 
Q 1625 2713 2034 2713 
Q 2441 2713 2670 2916 
Q 2900 3119 2900 3481 
Q 2900 3844 2670 4047 
Q 2441 4250 2034 4250 
Q 1625 4250 1398 4047 
Q 1172 3844 1172 3481 
z
" transform="scale(0.015625)"/>
       </defs>
       <use xlink:href="#DejaVuSans-30"/>
       <use xlink:href="#DejaVuSans-2e" x="63.623047"/>
       <use xlink:href="#DejaVuSans-38" x="95.410156"/>
      </g>
     </g>
    </g>
    <g id="ytick_7">
     <g id="line2d_12">
      <g>
       <use xlink:href="#mb74b742d99" x="135" y="99.876741" style="stroke: #000000; stroke-width: 0.8"/>
      </g>
     </g>
     <g id="text_13">
      <!-- 1.0 -->
      <g transform="translate(112.096875 103.67596) scale(0.1 -0.1)">
       <use xlink:href="#DejaVuSans-31"/>
       <use xlink:href="#DejaVuSans-2e" x="63.623047"/>
       <use xlink:href="#DejaVuSans-30" x="95.410156"/>
      </g>
     </g>
    </g>
   </g>
   <g id="line2d_13">
    <path d="M 173.045455 205.024914 
L 173.36604 89.362149 
L 173.526332 78.363974 
L 173.686625 78.903743 
L 174.648381 106.992229 
L 175.129259 112.682015 
L 175.610137 116.081029 
L 175.930722 116.788207 
L 176.091014 116.514021 
L 176.4116 114.539327 
L 176.732185 110.604582 
L 177.213063 101.253268 
L 177.693941 88.393647 
L 178.014526 317.859479 
L 178.335111 373.368163 
L 178.495404 379.651642 
L 178.655696 381.051312 
L 178.815989 380.572758 
L 179.45716 376.314836 
L 179.938037 371.186452 
L 180.418915 365.465491 
L 180.739501 364.003424 
L 180.899793 364.548094 
L 181.220378 368.634815 
L 181.540964 376.582898 
L 182.342427 405.956214 
L 182.983597 425.699146 
L 183.304183 430.319295 
L 183.464475 430.92 
L 183.624768 430.306157 
L 183.945353 425.375185 
L 184.265938 415.652944 
L 184.746816 393.172913 
L 185.548279 341.364721 
L 187.151206 234.637723 
L 187.792376 205.84738 
L 188.273254 191.823595 
L 188.754132 184.288416 
L 189.074717 182.635127 
L 189.23501 182.737512 
L 189.395302 183.415453 
L 189.715888 186.353722 
L 190.196765 194.143345 
L 190.837936 209.204341 
L 192.120277 246.823378 
L 193.562911 287.394029 
L 194.524666 308.84766 
L 195.486422 325.129286 
L 196.287885 335.161081 
L 197.089348 342.584779 
L 197.890811 348.005044 
L 198.692275 351.962234 
L 199.493738 354.891973 
L 200.455493 357.501634 
L 201.417249 359.473232 
L 202.539298 361.264409 
L 203.821639 362.866075 
L 205.10398 364.11678 
L 206.386321 365.079173 
L 207.828954 365.870615 
L 209.271588 366.411337 
L 211.034807 366.820605 
L 213.278903 367.087008 
L 213.599489 124.243239 
L 213.920074 78.224495 
L 214.080367 78.775883 
L 215.042122 106.916582 
L 215.523 112.623721 
L 216.003878 116.035985 
L 216.324463 116.750215 
L 216.484756 116.479111 
L 216.805341 114.509819 
L 217.125926 110.579598 
L 217.606804 101.233729 
L 218.087682 88.378276 
L 218.408267 317.845802 
L 218.728853 373.355966 
L 218.889145 379.64011 
L 219.049438 381.0404 
L 219.209731 380.562424 
L 219.850901 376.306475 
L 220.331779 371.179295 
L 220.812657 365.459359 
L 221.133242 363.997891 
L 221.293535 364.542838 
L 221.61412 368.63007 
L 221.934705 376.578611 
L 222.736168 405.952887 
L 223.377339 425.696436 
L 223.697924 430.316855 
L 223.858217 430.917687 
L 224.018509 430.303967 
L 224.339095 425.373224 
L 224.65968 415.651196 
L 225.140558 393.171454 
L 225.942021 341.363667 
L 227.544947 234.637233 
L 228.186118 205.847036 
L 228.666995 191.823336 
L 229.147873 184.288226 
L 229.468459 182.634973 
L 229.628751 182.737375 
L 229.789044 183.415331 
L 230.109629 186.353625 
L 230.590507 194.14328 
L 231.231677 209.204304 
L 232.514018 246.823372 
L 233.956652 287.394032 
L 234.918408 308.847664 
L 235.880164 325.129289 
L 236.681627 335.161082 
L 237.48309 342.58478 
L 238.284553 348.005044 
L 239.086016 351.962233 
L 239.887479 354.891972 
L 240.849235 357.501633 
L 241.810991 359.473231 
L 242.933039 361.264409 
L 244.21538 362.866074 
L 245.497721 364.11678 
L 246.780062 365.079172 
L 248.222696 365.870615 
L 249.665329 366.411337 
L 251.428548 366.820605 
L 253.672645 367.087008 
L 253.99323 367.110193 
L 254.313815 124.262789 
L 254.634401 78.240965 
L 254.794693 78.790988 
L 255.756449 106.925506 
L 256.237327 112.630577 
L 256.718205 116.04126 
L 257.03879 116.754648 
L 257.199083 116.483176 
L 257.519668 114.51324 
L 257.840253 110.582481 
L 258.321131 101.235969 
L 258.802009 88.380027 
L 259.122594 317.847362 
L 259.443179 373.357361 
L 259.603472 379.641432 
L 259.763765 381.041655 
L 259.924057 380.563616 
L 260.565228 376.307456 
L 261.046106 371.18015 
L 261.526984 365.460105 
L 261.847569 363.998573 
L 262.007861 364.543489 
L 262.328447 368.630665 
L 262.649032 376.579156 
L 263.450495 405.953319 
L 264.091666 425.696793 
L 264.412251 430.317179 
L 264.572543 430.917995 
L 264.732836 430.304259 
L 265.053421 425.373486 
L 265.374007 415.65143 
L 265.854884 393.17165 
L 266.656348 341.363809 
L 268.259274 234.6373 
L 268.900444 205.847083 
L 269.381322 191.823372 
L 269.8622 184.288252 
L 270.182785 182.634995 
L 270.343078 182.737394 
L 270.503371 183.415348 
L 270.823956 186.353639 
L 271.304834 194.143289 
L 271.946004 209.20431 
L 273.228345 246.823373 
L 274.670979 287.394031 
L 275.632735 308.847663 
L 276.59449 325.129288 
L 277.395953 335.161082 
L 278.197417 342.58478 
L 278.99888 348.005043 
L 279.800343 351.962233 
L 280.601806 354.891972 
L 281.563562 357.501633 
L 282.525317 359.473231 
L 283.647366 361.264409 
L 284.929707 362.866074 
L 286.212048 364.11678 
L 287.494389 365.079172 
L 288.937022 365.870615 
L 290.379656 366.411337 
L 292.142875 366.820605 
L 293.585509 367.015337 
L 293.906094 124.182695 
L 294.226679 78.173396 
L 294.386972 78.72898 
L 295.348727 106.888745 
L 295.829605 112.602299 
L 296.310483 116.019488 
L 296.631068 116.736347 
L 296.791361 116.466394 
L 297.111946 114.49912 
L 297.432532 110.570587 
L 297.913409 101.226743 
L 298.394287 88.372827 
L 298.714873 317.840953 
L 299.035458 373.351632 
L 299.19575 379.636005 
L 299.356043 381.036506 
L 299.516336 380.558725 
L 300.157506 376.303428 
L 300.638384 371.17664 
L 301.119262 365.457039 
L 301.439847 363.995767 
L 301.60014 364.540806 
L 301.920725 368.62821 
L 302.24131 376.576909 
L 303.042773 405.951528 
L 303.683944 425.695311 
L 304.004529 430.315837 
L 304.164822 430.91672 
L 304.325114 430.303048 
L 304.6457 425.372398 
L 304.966285 415.650457 
L 305.447163 393.170834 
L 306.248626 341.363217 
L 307.851552 234.63702 
L 308.492723 205.846885 
L 308.973601 191.823221 
L 309.454478 184.28814 
L 309.775064 182.634903 
L 309.935356 182.737312 
L 310.095649 183.415274 
L 310.416234 186.35358 
L 310.897112 194.143248 
L 311.538283 209.204286 
L 312.820624 246.823368 
L 314.263257 287.394033 
L 315.225013 308.847666 
L 316.186769 325.129291 
L 316.988232 335.161084 
L 317.789695 342.584781 
L 318.591158 348.005045 
L 319.392621 351.962234 
L 320.194084 354.891972 
L 321.15584 357.501633 
L 322.117596 359.473231 
L 323.239644 361.264409 
L 324.521985 362.866074 
L 325.804326 364.11678 
L 327.086667 365.079172 
L 328.529301 365.870615 
L 329.971934 366.411337 
L 331.735153 366.820605 
L 333.818957 367.074325 
L 334.139543 124.232538 
L 334.460128 78.215473 
L 334.620421 78.767607 
L 335.582176 106.911684 
L 336.063054 112.619956 
L 336.543932 116.033088 
L 336.864517 116.74778 
L 337.02481 116.476878 
L 337.345395 114.50794 
L 337.66598 110.578015 
L 338.146858 101.232501 
L 338.627736 88.377317 
L 338.948321 317.844948 
L 339.268907 373.355202 
L 339.429199 379.639386 
L 339.589492 381.039714 
L 339.749785 380.561772 
L 340.390955 376.305937 
L 340.871833 371.178827 
L 341.352711 365.45895 
L 341.673296 363.997517 
L 341.833589 364.54248 
L 342.154174 368.629742 
L 342.474759 376.578312 
L 343.276222 405.952648 
L 343.917393 425.696239 
L 344.237978 430.316677 
L 344.398271 430.917518 
L 344.558563 430.303806 
L 344.879149 425.37308 
L 345.199734 415.651067 
L 345.680612 393.171345 
L 346.482075 341.363589 
L 348.085001 234.637196 
L 348.726172 205.84701 
L 349.207049 191.823316 
L 349.687927 184.288211 
L 350.008513 182.634961 
L 350.168805 182.737364 
L 350.329098 183.415321 
L 350.649683 186.353618 
L 351.130561 194.143275 
L 351.771731 209.204301 
L 353.054072 246.823371 
L 354.496706 287.394032 
L 355.458462 308.847665 
L 356.420218 325.129289 
L 357.221681 335.161082 
L 358.023144 342.58478 
L 358.824607 348.005044 
L 359.62607 351.962233 
L 360.427533 354.891972 
L 361.389289 357.501633 
L 362.351045 359.473231 
L 363.473093 361.264409 
L 364.755434 362.866074 
L 366.037775 364.11678 
L 367.320116 365.079172 
L 368.76275 365.870615 
L 370.205383 366.411337 
L 371.968602 366.820605 
L 373.090651 366.980233 
L 373.411236 124.152982 
L 373.731821 78.148268 
L 373.892114 78.705892 
L 374.853869 106.874968 
L 375.334747 112.591674 
L 375.815625 116.011292 
L 376.13621 116.729453 
L 376.296503 116.46007 
L 376.617088 114.493798 
L 376.937674 110.566106 
L 377.418551 101.223273 
L 377.899429 88.370126 
L 378.220015 317.838551 
L 378.5406 373.349488 
L 378.700892 379.633974 
L 378.861185 381.034581 
L 379.021478 380.556897 
L 379.662648 376.301924 
L 380.143526 371.17533 
L 380.624404 365.455892 
L 380.944989 363.994717 
L 381.105282 364.539801 
L 381.425867 368.627289 
L 381.746452 376.576065 
L 382.547915 405.950853 
L 383.189086 425.694751 
L 383.509671 430.315329 
L 383.669964 430.916237 
L 383.830256 430.302589 
L 384.150842 425.371986 
L 384.471427 415.650088 
L 384.952305 393.170524 
L 385.753768 341.362992 
L 387.356694 234.636913 
L 387.997865 205.846809 
L 388.478743 191.823163 
L 388.95962 184.288096 
L 389.280206 182.634867 
L 389.440498 182.73728 
L 389.600791 183.415245 
L 389.921376 186.353557 
L 390.402254 194.143232 
L 391.043425 209.204276 
L 392.325766 246.823365 
L 393.768399 287.394034 
L 394.730155 308.847667 
L 395.691911 325.129292 
L 396.493374 335.161085 
L 397.294837 342.584782 
L 398.0963 348.005045 
L 398.897763 351.962234 
L 399.699226 354.891973 
L 400.660982 357.501634 
L 401.622738 359.473231 
L 402.744786 361.264409 
L 404.027127 362.866075 
L 405.309468 364.11678 
L 406.591809 365.079172 
L 408.034443 365.870615 
L 409.477076 366.411337 
L 411.240295 366.820605 
L 413.484392 367.087008 
L 413.644685 367.09895 
L 413.96527 124.253311 
L 414.285855 78.232982 
L 414.446148 78.783668 
L 415.407904 106.921183 
L 415.888781 112.627257 
L 416.369659 116.038706 
L 416.690245 116.752501 
L 416.850537 116.481207 
L 417.171122 114.511583 
L 417.491708 110.581085 
L 417.972586 101.234884 
L 418.453463 88.379179 
L 418.774049 317.846606 
L 419.094634 373.356685 
L 419.254927 379.640791 
L 419.415219 381.041047 
L 419.575512 380.563038 
L 420.216682 376.30698 
L 420.69756 371.179735 
L 421.178438 365.459744 
L 421.499023 363.998242 
L 421.659316 364.543174 
L 421.979901 368.630377 
L 422.300486 376.578892 
L 423.10195 405.95311 
L 423.74312 425.69662 
L 424.063705 430.317022 
L 424.223998 430.917846 
L 424.384291 430.304118 
L 424.704876 425.37336 
L 425.025461 415.651317 
L 425.506339 393.171555 
L 426.307802 341.363741 
L 427.910728 234.637268 
L 428.551899 205.847061 
L 429.032777 191.823355 
L 429.513655 184.288239 
L 429.83424 182.634984 
L 429.994532 182.737385 
L 430.154825 183.41534 
L 430.47541 186.353632 
L 430.956288 194.143285 
L 431.597459 209.204307 
L 432.8798 246.823372 
L 434.322433 287.394031 
L 435.284189 308.847664 
L 436.245945 325.129289 
L 437.047408 335.161082 
L 437.848871 342.58478 
L 438.650334 348.005043 
L 439.451797 351.962233 
L 440.25326 354.891972 
L 441.215016 357.501633 
L 442.176772 359.473231 
L 443.29882 361.264409 
L 444.581161 362.866074 
L 445.863502 364.11678 
L 447.145843 365.079172 
L 448.588477 365.870615 
L 450.031111 366.411337 
L 451.794329 366.820605 
L 453.557548 367.046573 
L 453.878134 124.209102 
L 454.198719 78.1957 
L 454.359011 78.74946 
L 455.320767 106.900924 
L 455.801645 112.611679 
L 456.282523 116.026716 
L 456.603108 116.742424 
L 456.763401 116.471967 
L 457.083986 114.503808 
L 457.404571 110.574535 
L 457.885449 101.229802 
L 458.366327 88.375211 
L 458.686912 317.843074 
L 459.007498 373.353527 
L 459.16779 379.637799 
L 459.328083 381.038208 
L 459.488375 380.560342 
L 460.129546 376.304759 
L 460.610424 371.1778 
L 461.091302 365.458053 
L 461.411887 363.996696 
L 461.57218 364.541695 
L 461.892765 368.629024 
L 462.21335 376.577654 
L 463.014813 405.952124 
L 463.655984 425.695805 
L 463.976569 430.316284 
L 464.136862 430.917144 
L 464.297154 430.303451 
L 464.617739 425.372761 
L 464.938325 415.650782 
L 465.419203 393.171106 
L 466.220666 341.363415 
L 467.823592 234.637114 
L 468.464762 205.846952 
L 468.94564 191.823272 
L 469.426518 184.288178 
L 469.747103 182.634934 
L 469.907396 182.73734 
L 470.067689 183.415299 
L 470.388274 186.3536 
L 470.869152 194.143262 
L 471.510322 209.204294 
L 472.792663 246.82337 
L 474.235297 287.394033 
L 475.197053 308.847665 
L 476.158808 325.12929 
L 476.960272 335.161083 
L 477.761735 342.584781 
L 478.563198 348.005044 
L 479.364661 351.962233 
L 480.166124 354.891972 
L 481.12788 357.501633 
L 482.089636 359.473231 
L 483.211684 361.264409 
L 484.494025 362.866074 
L 485.776366 364.11678 
L 487.058707 365.079172 
L 488.501341 365.870615 
L 489.943974 366.411337 
L 491.707193 366.820605 
L 493.630705 367.060861 
L 493.95129 124.221171 
L 494.271875 78.205886 
L 494.432168 78.758809 
L 495.393923 106.906471 
L 495.874801 112.615947 
L 496.355679 116.030002 
L 496.676264 116.745187 
L 496.836557 116.4745 
L 497.157142 114.50594 
L 497.477728 110.57633 
L 497.958605 101.231194 
L 498.439483 88.376297 
L 498.760069 317.84404 
L 499.080654 373.35439 
L 499.240946 379.638617 
L 499.401239 381.038984 
L 499.561532 380.561079 
L 500.202702 376.305366 
L 500.68358 371.178329 
L 501.164458 365.458516 
L 501.485043 363.997119 
L 501.645336 364.542099 
L 501.965921 368.629394 
L 502.286506 376.577994 
L 503.087969 405.952394 
L 503.72914 425.696029 
L 504.049725 430.316487 
L 504.210018 430.917337 
L 504.37031 430.303635 
L 504.690896 425.372926 
L 505.011481 415.650929 
L 505.492359 393.17123 
L 506.293822 341.363505 
L 507.896748 234.637156 
L 508.537919 205.846982 
L 509.018797 191.823295 
L 509.499674 184.288195 
L 509.82026 182.634948 
L 509.980552 182.737353 
L 510.140845 183.415311 
L 510.46143 186.353609 
L 510.942308 194.143269 
L 511.583479 209.204298 
L 512.86582 246.82337 
L 514.308453 287.394032 
L 515.270209 308.847665 
L 516.231965 325.12929 
L 517.033428 335.161083 
L 517.834891 342.58478 
L 518.636354 348.005044 
L 519.437817 351.962233 
L 520.23928 354.891972 
L 521.201036 357.501633 
L 522.162792 359.473231 
L 523.28484 361.264409 
L 524.567181 362.866074 
L 525.849522 364.11678 
L 527.131863 365.079172 
L 528.574497 365.870615 
L 530.01713 366.411337 
L 531.780349 366.820605 
L 533.864153 367.074325 
L 534.184739 124.232538 
L 534.505324 78.215473 
L 534.665617 78.767607 
L 535.627372 106.911684 
L 536.10825 112.619956 
L 536.589128 116.033088 
L 536.909713 116.74778 
L 537.070006 116.476878 
L 537.390591 114.50794 
L 537.711176 110.578015 
L 538.192054 101.232501 
L 538.672932 88.377317 
L 538.993517 317.844948 
L 539.314103 373.355202 
L 539.474395 379.639386 
L 539.634688 381.039714 
L 539.794981 380.561772 
L 540.436151 376.305937 
L 540.917029 371.178827 
L 541.397907 365.45895 
L 541.718492 363.997517 
L 541.878785 364.54248 
L 542.19937 368.629742 
L 542.519955 376.578312 
L 543.321418 405.952648 
L 543.962589 425.696239 
L 544.283174 430.316677 
L 544.443467 430.917518 
L 544.603759 430.303806 
L 544.924345 425.37308 
L 545.24493 415.651067 
L 545.725808 393.171345 
L 546.527271 341.363589 
L 548.130197 234.637196 
L 548.771368 205.84701 
L 549.252245 191.823316 
L 549.733123 184.288211 
L 550.053709 182.634961 
L 550.214001 182.737364 
L 550.374294 183.415321 
L 550.694879 186.353618 
L 551.175757 194.143275 
L 551.816927 209.204301 
L 553.099268 246.823371 
L 554.541902 287.394032 
L 555.503658 308.847665 
L 556.465414 325.129289 
L 557.266877 335.161082 
L 558.06834 342.58478 
L 558.869803 348.005044 
L 559.671266 351.962233 
L 560.472729 354.891972 
L 561.434485 357.501633 
L 562.396241 359.473231 
L 563.518289 361.264409 
L 564.80063 362.866074 
L 566.082971 364.11678 
L 567.365312 365.079172 
L 568.807946 365.870615 
L 570.250579 366.411337 
L 572.013798 366.820605 
L 574.257895 367.087008 
L 574.57848 124.243239 
L 574.899065 78.224495 
L 575.059358 78.775883 
L 576.021114 106.916582 
L 576.501992 112.623721 
L 576.98287 116.035985 
L 577.303455 116.750215 
L 577.463747 116.479111 
L 577.784333 114.509819 
L 578.104918 110.579598 
L 578.585796 101.233729 
L 579.066674 88.378276 
L 579.387259 317.845802 
L 579.707844 373.355966 
L 579.868137 379.64011 
L 580.028429 381.0404 
L 580.188722 380.562424 
L 580.829893 376.306475 
L 581.31077 371.179295 
L 581.791648 365.459359 
L 582.112234 363.997891 
L 582.272526 364.542838 
L 582.593111 368.63007 
L 582.913697 376.578611 
L 583.71516 405.952887 
L 584.35633 425.696436 
L 584.676916 430.316855 
L 584.837208 430.917687 
L 584.997501 430.303967 
L 585.318086 425.373224 
L 585.638671 415.651196 
L 586.119549 393.171454 
L 586.921012 341.363667 
L 588.523939 234.637233 
L 589.165109 205.847036 
L 589.645987 191.823336 
L 590.126865 184.288226 
L 590.44745 182.634973 
L 590.607743 182.737375 
L 590.768035 183.415331 
L 591.088621 186.353625 
L 591.569498 194.14328 
L 592.210669 209.204304 
L 593.49301 246.823372 
L 594.935644 287.394032 
L 595.897399 308.847664 
L 596.859155 325.129289 
L 597.660618 335.161082 
L 598.462081 342.58478 
L 599.263544 348.005044 
L 600.065008 351.962233 
L 600.866471 354.891972 
L 601.828226 357.501633 
L 602.789982 359.473231 
L 603.912031 361.264409 
L 605.194372 362.866074 
L 606.476713 364.11678 
L 607.759054 365.079172 
L 609.201687 365.870615 
L 610.644321 366.411337 
L 612.40754 366.820605 
L 613.209003 366.940843 
L 613.529588 124.1196 
L 613.850173 78.12 
L 614.010466 78.679902 
L 614.972222 106.859399 
L 615.4531 112.579646 
L 615.933977 116.002001 
L 616.254563 116.721632 
L 616.414855 116.452895 
L 616.735441 114.487758 
L 617.056026 110.56102 
L 617.536904 101.219335 
L 618.017782 88.367063 
L 618.338367 317.835829 
L 618.658952 373.34706 
L 618.819245 379.631676 
L 618.979537 381.032402 
L 619.13983 380.554829 
L 619.781 376.300224 
L 620.261878 371.173848 
L 620.742756 365.454595 
L 621.063341 363.993529 
L 621.223634 364.538663 
L 621.544219 368.626246 
L 621.864805 376.57511 
L 622.666268 405.950088 
L 623.307438 425.694116 
L 623.628023 430.314753 
L 623.788316 430.915689 
L 623.948609 430.302069 
L 624.269194 425.371517 
L 624.589779 415.649668 
L 625.070657 393.170171 
L 625.87212 341.362735 
L 627.475046 234.63679 
L 628.116217 205.846721 
L 628.597095 191.823096 
L 629.077973 184.288045 
L 629.398558 182.634826 
L 629.558851 182.737242 
L 629.719143 183.415211 
L 630.039728 186.353529 
L 630.520606 194.143212 
L 631.161777 209.204264 
L 632.444118 246.823362 
L 633.886751 287.394034 
L 634.848507 308.847669 
L 635.810263 325.129293 
L 636.611726 335.161086 
L 637.413189 342.584783 
L 638.214652 348.005046 
L 639.016115 351.962234 
L 639.817579 354.891973 
L 640.779334 357.501634 
L 641.74109 359.473231 
L 642.863138 361.264409 
L 644.145479 362.866075 
L 645.42782 364.11678 
L 646.710161 365.079173 
L 648.152795 365.870615 
L 649.595429 366.411337 
L 651.358648 366.820605 
L 653.602744 367.087008 
L 653.92333 367.110193 
L 654.243915 124.262789 
L 654.5645 78.240965 
L 654.724793 78.790988 
L 655.686548 106.925506 
L 656.167426 112.630577 
L 656.648304 116.04126 
L 656.968889 116.754648 
L 657.129182 116.483176 
L 657.449767 114.51324 
L 657.770353 110.582481 
L 658.25123 101.235969 
L 658.732108 88.380027 
L 659.052694 317.847362 
L 659.373279 373.357361 
L 659.533571 379.641432 
L 659.693864 381.041655 
L 659.854157 380.563616 
L 660.495327 376.307456 
L 660.976205 371.18015 
L 661.457083 365.460105 
L 661.777668 363.998573 
L 661.937961 364.543489 
L 662.258546 368.630665 
L 662.579131 376.579156 
L 663.380594 405.953319 
L 664.021765 425.696793 
L 664.34235 430.317179 
L 664.502643 430.917995 
L 664.662935 430.304259 
L 664.983521 425.373486 
L 665.304106 415.65143 
L 665.784984 393.17165 
L 666.586447 341.363809 
L 668.189373 234.6373 
L 668.830544 205.847083 
L 669.311422 191.823372 
L 669.792299 184.288252 
L 670.112885 182.634995 
L 670.273177 182.737394 
L 670.43347 183.415348 
L 670.754055 186.353639 
L 671.234933 194.143289 
L 671.876104 209.20431 
L 673.158445 246.823373 
L 674.601078 287.394031 
L 675.562834 308.847663 
L 676.52459 325.129288 
L 677.326053 335.161082 
L 678.127516 342.58478 
L 678.928979 348.005043 
L 679.730442 351.962233 
L 680.531905 354.891972 
L 681.493661 357.501633 
L 682.455417 359.473231 
L 683.577465 361.264409 
L 684.859806 362.866074 
L 686.142147 364.11678 
L 687.424488 365.079172 
L 688.867122 365.870615 
L 690.309755 366.411337 
L 692.072974 366.820605 
L 694.156778 367.074325 
L 694.477364 124.232538 
L 694.797949 78.215473 
L 694.958242 78.767607 
L 695.919997 106.911684 
L 696.400875 112.619956 
L 696.881753 116.033088 
L 697.202338 116.74778 
L 697.362631 116.476878 
L 697.683216 114.50794 
L 698.003801 110.578015 
L 698.484679 101.232501 
L 698.965557 88.377317 
L 699.286142 317.844948 
L 699.606728 373.355202 
L 699.76702 379.639386 
L 699.927313 381.039714 
L 700.087606 380.561772 
L 700.728776 376.305937 
L 701.209654 371.178827 
L 701.690532 365.45895 
L 702.011117 363.997517 
L 702.17141 364.54248 
L 702.491995 368.629742 
L 702.81258 376.578312 
L 703.614043 405.952648 
L 704.255214 425.696239 
L 704.575799 430.316677 
L 704.736092 430.917518 
L 704.896384 430.303806 
L 705.21697 425.37308 
L 705.537555 415.651067 
L 706.018433 393.171345 
L 706.819896 341.363589 
L 708.422822 234.637196 
L 709.063993 205.84701 
L 709.54487 191.823316 
L 710.025748 184.288211 
L 710.346334 182.634961 
L 710.506626 182.737364 
L 710.666919 183.415321 
L 710.987504 186.353618 
L 711.468382 194.143275 
L 712.109552 209.204301 
L 713.391893 246.823371 
L 714.834527 287.394032 
L 715.796283 308.847665 
L 716.758039 325.129289 
L 717.559502 335.161082 
L 718.360965 342.58478 
L 719.162428 348.005044 
L 719.963891 351.962233 
L 720.765354 354.891972 
L 721.72711 357.501633 
L 722.688866 359.473231 
L 723.810914 361.264409 
L 725.093255 362.866074 
L 726.375596 364.11678 
L 727.657937 365.079172 
L 729.100571 365.870615 
L 730.543204 366.411337 
L 732.306423 366.820605 
L 734.069642 367.046573 
L 734.390227 124.209102 
L 734.710813 78.1957 
L 734.871105 78.74946 
L 735.832861 106.900924 
L 736.313739 112.611679 
L 736.794617 116.026716 
L 737.115202 116.742424 
L 737.275495 116.471967 
L 737.59608 114.503808 
L 737.916665 110.574535 
L 738.397543 101.229802 
L 738.878421 88.375211 
L 739.199006 317.843074 
L 739.519591 373.353527 
L 739.679884 379.637799 
L 739.840177 381.038208 
L 740.000469 380.560342 
L 740.64164 376.304759 
L 741.122518 371.1778 
L 741.603395 365.458053 
L 741.923981 363.996696 
L 742.084273 364.541695 
L 742.404859 368.629024 
L 742.725444 376.577654 
L 743.526907 405.952124 
L 744.168077 425.695805 
L 744.488663 430.316284 
L 744.648955 430.917144 
L 744.809248 430.303451 
L 745.129833 425.372761 
L 745.450418 415.650782 
L 745.931296 393.171106 
L 746.732759 341.363415 
L 748.335686 234.637114 
L 748.976856 205.846952 
L 749.457734 191.823272 
L 749.938612 184.288178 
L 750.259197 182.634934 
L 750.41949 182.73734 
L 750.579782 183.415299 
L 750.900368 186.3536 
L 751.381246 194.143262 
L 752.022416 209.204294 
L 753.304757 246.82337 
L 754.747391 287.394033 
L 755.709146 308.847665 
L 756.670902 325.12929 
L 757.472365 335.161083 
L 758.273828 342.584781 
L 759.075292 348.005044 
L 759.876755 351.962233 
L 760.678218 354.891972 
L 761.639974 357.501633 
L 762.601729 359.473231 
L 763.723778 361.264409 
L 765.006119 362.866074 
L 766.28846 364.11678 
L 767.570801 365.079172 
L 769.013434 365.870615 
L 770.456068 366.411337 
L 772.219287 366.820605 
L 773.822213 367.031414 
L 774.142798 124.19629 
L 774.463384 78.184882 
L 774.623676 78.739528 
L 775.585432 106.895023 
L 776.06631 112.607135 
L 776.547188 116.023215 
L 776.867773 116.739482 
L 777.028066 116.469268 
L 777.348651 114.501538 
L 777.669236 110.572623 
L 778.150114 101.22832 
L 778.630992 88.374056 
L 778.951577 317.842046 
L 779.272162 373.352609 
L 779.432455 379.636929 
L 779.592748 381.037383 
L 779.75304 380.559558 
L 780.394211 376.304114 
L 780.875089 371.177238 
L 781.355966 365.457561 
L 781.676552 363.996246 
L 781.836844 364.541264 
L 782.15743 368.628629 
L 782.478015 376.577293 
L 783.279478 405.951836 
L 783.920648 425.695566 
L 784.241234 430.316067 
L 784.401526 430.916939 
L 784.561819 430.303256 
L 784.882404 425.372586 
L 785.202989 415.650625 
L 785.683867 393.170975 
L 786.48533 341.363319 
L 788.088257 234.637069 
L 788.729427 205.84692 
L 789.210305 191.823247 
L 789.691183 184.288159 
L 790.011768 182.634919 
L 790.172061 182.737327 
L 790.332353 183.415287 
L 790.652939 186.353591 
L 791.133817 194.143256 
L 791.774987 209.20429 
L 793.057328 246.823369 
L 794.499962 287.394033 
L 795.461717 308.847666 
L 796.423473 325.129291 
L 797.224936 335.161084 
L 798.026399 342.584781 
L 798.827863 348.005044 
L 799.629326 351.962233 
L 800.430789 354.891972 
L 801.392545 357.501633 
L 802.3543 359.473231 
L 803.476349 361.264409 
L 804.75869 362.866074 
L 806.041031 364.11678 
L 807.323372 365.079172 
L 808.766005 365.870615 
L 810.208639 366.411337 
L 811.971858 366.820605 
L 813.414491 367.015337 
L 813.735077 124.182695 
L 814.055662 78.173396 
L 814.215955 78.72898 
L 815.17771 106.888745 
L 815.658588 112.602299 
L 816.139466 116.019488 
L 816.460051 116.736347 
L 816.620344 116.466394 
L 816.940929 114.49912 
L 817.261514 110.570587 
L 817.742392 101.226743 
L 818.22327 88.372827 
L 818.543855 317.840953 
L 818.864441 373.351632 
L 819.024733 379.636005 
L 819.185026 381.036506 
L 819.345319 380.558725 
L 819.986489 376.303428 
L 820.467367 371.17664 
L 820.948245 365.457039 
L 821.26883 363.995767 
L 821.429123 364.540806 
L 821.749708 368.62821 
L 822.070293 376.576909 
L 822.871756 405.951528 
L 823.512927 425.695311 
L 823.833512 430.315837 
L 823.993805 430.91672 
L 824.154097 430.303048 
L 824.474683 425.372398 
L 824.795268 415.650457 
L 825.276146 393.170834 
L 826.077609 341.363217 
L 827.680535 234.63702 
L 828.321706 205.846885 
L 828.802583 191.823221 
L 829.283461 184.28814 
L 829.604047 182.634903 
L 829.764339 182.737312 
L 829.924632 183.415274 
L 830.245217 186.35358 
L 830.726095 194.143248 
L 831.367265 209.204286 
L 832.649606 246.823368 
L 834.09224 287.394033 
L 835.053996 308.847666 
L 836.015752 325.129291 
L 836.817215 335.161084 
L 837.618678 342.584781 
L 838.420141 348.005045 
L 839.221604 351.962234 
L 840.023067 354.891972 
L 840.984823 357.501633 
L 841.946579 359.473231 
L 843.068627 361.264409 
L 844.350968 362.866074 
L 845.633309 364.11678 
L 846.91565 365.079172 
L 848.358284 365.870615 
L 849.800917 366.411337 
L 851.564136 366.820605 
L 853.808233 367.087008 
L 854.609696 367.140091 
L 854.930281 124.287972 
L 855.250867 78.262161 
L 855.411159 78.810418 
L 856.372915 106.936961 
L 856.853793 112.639373 
L 857.334671 116.048026 
L 857.655256 116.760335 
L 857.815549 116.488392 
L 858.136134 114.517633 
L 858.456719 110.586186 
L 858.937597 101.23885 
L 859.418475 88.382284 
L 859.73906 317.849374 
L 860.059645 373.359162 
L 860.219938 379.643138 
L 860.380231 381.043274 
L 860.540523 380.565155 
L 861.181694 376.308722 
L 861.662572 371.181251 
L 862.143449 365.461065 
L 862.464035 363.999449 
L 862.624327 364.544326 
L 862.944913 368.631429 
L 863.265498 376.579853 
L 864.066961 405.953872 
L 864.708131 425.697249 
L 865.028717 430.31759 
L 865.189009 430.918386 
L 865.349302 430.30463 
L 865.669887 425.373819 
L 865.990472 415.651728 
L 866.47135 393.171899 
L 867.272813 341.363989 
L 868.87574 234.637384 
L 869.51691 205.847143 
L 869.997788 191.823416 
L 870.478666 184.288285 
L 870.799251 182.635022 
L 870.959544 182.737418 
L 871.119836 183.415369 
L 871.440422 186.353656 
L 871.9213 194.143301 
L 872.56247 209.204316 
L 873.844811 246.823374 
L 875.287445 287.39403 
L 876.2492 308.847662 
L 877.210956 325.129287 
L 878.012419 335.161081 
L 878.813882 342.584779 
L 879.615346 348.005043 
L 880.416809 351.962233 
L 881.218272 354.891972 
L 882.180028 357.501633 
L 883.141783 359.473231 
L 884.263832 361.264409 
L 885.546173 362.866074 
L 886.828514 364.11678 
L 888.110855 365.079172 
L 889.553488 365.870615 
L 890.996122 366.411337 
L 892.759341 366.820605 
L 894.362267 367.031414 
L 894.682852 124.19629 
L 895.003438 78.184882 
L 895.16373 78.739528 
L 896.125486 106.895023 
L 896.606364 112.607135 
L 897.087242 116.023215 
L 897.407827 116.739482 
L 897.56812 116.469268 
L 897.888705 114.501538 
L 898.20929 110.572623 
L 898.690168 101.22832 
L 899.171046 88.374056 
L 899.491631 317.842046 
L 899.812216 373.352609 
L 899.972509 379.636929 
L 900.132802 381.037383 
L 900.293094 380.559558 
L 900.934265 376.304114 
L 901.415143 371.177238 
L 901.89602 365.457561 
L 902.216606 363.996246 
L 902.376898 364.541264 
L 902.697484 368.628629 
L 903.018069 376.577293 
L 903.819532 405.951836 
L 904.460702 425.695566 
L 904.781288 430.316067 
L 904.94158 430.916939 
L 905.101873 430.303256 
L 905.422458 425.372586 
L 905.743043 415.650625 
L 906.223921 393.170975 
L 907.025384 341.363319 
L 908.628311 234.637069 
L 909.269481 205.84692 
L 909.750359 191.823247 
L 910.231237 184.288159 
L 910.551822 182.634919 
L 910.712115 182.737327 
L 910.872407 183.415287 
L 911.192993 186.353591 
L 911.673871 194.143256 
L 912.315041 209.20429 
L 913.597382 246.823369 
L 915.040016 287.394033 
L 916.001771 308.847666 
L 916.963527 325.129291 
L 917.76499 335.161084 
L 918.566453 342.584781 
L 919.367917 348.005044 
L 920.16938 351.962233 
L 920.970843 354.891972 
L 921.932599 357.501633 
L 922.894354 359.473231 
L 924.016403 361.264409 
L 925.298744 362.866074 
L 926.581085 364.11678 
L 927.863426 365.079172 
L 929.306059 365.870615 
L 930.748693 366.411337 
L 932.511912 366.820605 
L 933.794253 366.998294 
L 933.954545 204.762601 
L 933.954545 204.762601 
" clip-path="url(#pd4e4133d02)" style="fill: none; stroke: #1f77b4; stroke-width: 1.5; stroke-linecap: square"/>
   </g>
   <g id="line2d_14">
    <path d="M 173.045455 99.876741 
L 177.693941 99.876741 
L 177.854233 367.284184 
L 213.278903 367.284184 
L 213.439196 99.876741 
L 218.087682 99.876741 
L 218.247975 367.284184 
L 253.99323 367.284184 
L 254.153523 99.876741 
L 258.802009 99.876741 
L 258.962302 367.284184 
L 293.585509 367.284184 
L 293.745801 99.876741 
L 298.394287 99.876741 
L 298.55458 367.284184 
L 333.818957 367.284184 
L 333.97925 99.876741 
L 338.627736 99.876741 
L 338.788029 367.284184 
L 373.090651 367.284184 
L 373.250943 99.876741 
L 377.899429 99.876741 
L 378.059722 367.284184 
L 413.644685 367.284184 
L 413.804977 99.876741 
L 418.453463 99.876741 
L 418.613756 367.284184 
L 453.557548 367.284184 
L 453.717841 99.876741 
L 458.366327 99.876741 
L 458.52662 367.284184 
L 493.630705 367.284184 
L 493.790997 99.876741 
L 498.439483 99.876741 
L 498.599776 367.284184 
L 533.864153 367.284184 
L 534.024446 99.876741 
L 538.672932 99.876741 
L 538.833225 367.284184 
L 574.257895 367.284184 
L 574.418188 99.876741 
L 579.066674 99.876741 
L 579.226966 367.284184 
L 613.209003 367.284184 
L 613.369295 99.876741 
L 618.017782 99.876741 
L 618.178074 367.284184 
L 653.92333 367.284184 
L 654.083622 99.876741 
L 658.732108 99.876741 
L 658.892401 367.284184 
L 694.156778 367.284184 
L 694.317071 99.876741 
L 698.965557 99.876741 
L 699.12585 367.284184 
L 734.069642 367.284184 
L 734.229935 99.876741 
L 738.878421 99.876741 
L 739.038713 367.284184 
L 773.822213 367.284184 
L 773.982506 99.876741 
L 778.630992 99.876741 
L 778.791284 367.284184 
L 813.414491 367.284184 
L 813.574784 99.876741 
L 818.22327 99.876741 
L 818.383563 367.284184 
L 854.609696 367.284184 
L 854.769989 99.876741 
L 859.418475 99.876741 
L 859.578767 367.284184 
L 894.362267 367.284184 
L 894.52256 99.876741 
L 899.171046 99.876741 
L 899.331338 367.284184 
L 933.794253 367.284184 
L 933.954545 99.876741 
L 933.954545 99.876741 
" clip-path="url(#pd4e4133d02)" style="fill: none; stroke: #ff7f0e; stroke-width: 1.5; stroke-linecap: square"/>
   </g>
   <g id="line2d_15">
    <path d="M 929.466352 367.284184 
" clip-path="url(#pd4e4133d02)" style="fill: none; stroke: #000000; stroke-width: 1.5; stroke-linecap: square"/>
    <defs>
     <path id="m86947c60cf" d="M 0 1 
C 0.265203 1 0.51958 0.894634 0.707107 0.707107 
C 0.894634 0.51958 1 0.265203 1 0 
C 1 -0.265203 0.894634 -0.51958 0.707107 -0.707107 
C 0.51958 -0.894634 0.265203 -1 0 -1 
C -0.265203 -1 -0.51958 -0.894634 -0.707107 -0.707107 
C -0.894634 -0.51958 -1 -0.265203 -1 0 
C -1 0.265203 -0.894634 0.51958 -0.707107 0.707107 
C -0.51958 0.894634 -0.265203 1 0 1 
z
" style="stroke: #000000"/>
    </defs>
    <g clip-path="url(#pd4e4133d02)">
     <use xlink:href="#m86947c60cf" x="173.045455" y="99.876741" style="stroke: #000000"/>
     <use xlink:href="#m86947c60cf" x="178.174819" y="367.284184" style="stroke: #000000"/>
     <use xlink:href="#m86947c60cf" x="183.14389" y="367.284184" style="stroke: #000000"/>
     <use xlink:href="#m86947c60cf" x="188.112961" y="99.876741" style="stroke: #000000"/>
     <use xlink:href="#m86947c60cf" x="193.082033" y="367.284184" style="stroke: #000000"/>
     <use xlink:href="#m86947c60cf" x="198.211397" y="367.284184" style="stroke: #000000"/>
     <use xlink:href="#m86947c60cf" x="203.180468" y="99.876741" style="stroke: #000000"/>
     <use xlink:href="#m86947c60cf" x="208.149539" y="367.284184" style="stroke: #000000"/>
     <use xlink:href="#m86947c60cf" x="213.118611" y="99.876741" style="stroke: #000000"/>
     <use xlink:href="#m86947c60cf" x="218.247975" y="367.284184" style="stroke: #000000"/>
     <use xlink:href="#m86947c60cf" x="223.217046" y="367.284184" style="stroke: #000000"/>
     <use xlink:href="#m86947c60cf" x="228.186118" y="99.876741" style="stroke: #000000"/>
     <use xlink:href="#m86947c60cf" x="233.155189" y="367.284184" style="stroke: #000000"/>
     <use xlink:href="#m86947c60cf" x="238.284553" y="367.284184" style="stroke: #000000"/>
     <use xlink:href="#m86947c60cf" x="243.253624" y="99.876741" style="stroke: #000000"/>
     <use xlink:href="#m86947c60cf" x="248.222696" y="367.284184" style="stroke: #000000"/>
     <use xlink:href="#m86947c60cf" x="253.191767" y="99.876741" style="stroke: #000000"/>
     <use xlink:href="#m86947c60cf" x="258.321131" y="367.284184" style="stroke: #000000"/>
     <use xlink:href="#m86947c60cf" x="263.290202" y="367.284184" style="stroke: #000000"/>
     <use xlink:href="#m86947c60cf" x="268.259274" y="99.876741" style="stroke: #000000"/>
     <use xlink:href="#m86947c60cf" x="273.228345" y="367.284184" style="stroke: #000000"/>
     <use xlink:href="#m86947c60cf" x="278.357709" y="367.284184" style="stroke: #000000"/>
     <use xlink:href="#m86947c60cf" x="283.326781" y="99.876741" style="stroke: #000000"/>
     <use xlink:href="#m86947c60cf" x="288.295852" y="367.284184" style="stroke: #000000"/>
     <use xlink:href="#m86947c60cf" x="293.264923" y="99.876741" style="stroke: #000000"/>
     <use xlink:href="#m86947c60cf" x="298.394287" y="367.284184" style="stroke: #000000"/>
     <use xlink:href="#m86947c60cf" x="303.363359" y="367.284184" style="stroke: #000000"/>
     <use xlink:href="#m86947c60cf" x="308.33243" y="99.876741" style="stroke: #000000"/>
     <use xlink:href="#m86947c60cf" x="313.301501" y="367.284184" style="stroke: #000000"/>
     <use xlink:href="#m86947c60cf" x="318.430865" y="367.284184" style="stroke: #000000"/>
     <use xlink:href="#m86947c60cf" x="323.399937" y="99.876741" style="stroke: #000000"/>
     <use xlink:href="#m86947c60cf" x="328.369008" y="367.284184" style="stroke: #000000"/>
     <use xlink:href="#m86947c60cf" x="333.33808" y="99.876741" style="stroke: #000000"/>
     <use xlink:href="#m86947c60cf" x="338.467444" y="367.284184" style="stroke: #000000"/>
     <use xlink:href="#m86947c60cf" x="343.436515" y="367.284184" style="stroke: #000000"/>
     <use xlink:href="#m86947c60cf" x="348.405586" y="99.876741" style="stroke: #000000"/>
     <use xlink:href="#m86947c60cf" x="353.374658" y="367.284184" style="stroke: #000000"/>
     <use xlink:href="#m86947c60cf" x="358.504022" y="367.284184" style="stroke: #000000"/>
     <use xlink:href="#m86947c60cf" x="363.473093" y="99.876741" style="stroke: #000000"/>
     <use xlink:href="#m86947c60cf" x="368.442164" y="367.284184" style="stroke: #000000"/>
     <use xlink:href="#m86947c60cf" x="373.411236" y="99.876741" style="stroke: #000000"/>
     <use xlink:href="#m86947c60cf" x="378.5406" y="367.284184" style="stroke: #000000"/>
     <use xlink:href="#m86947c60cf" x="383.509671" y="367.284184" style="stroke: #000000"/>
     <use xlink:href="#m86947c60cf" x="388.478743" y="99.876741" style="stroke: #000000"/>
     <use xlink:href="#m86947c60cf" x="393.447814" y="367.284184" style="stroke: #000000"/>
     <use xlink:href="#m86947c60cf" x="398.577178" y="367.284184" style="stroke: #000000"/>
     <use xlink:href="#m86947c60cf" x="403.546249" y="99.876741" style="stroke: #000000"/>
     <use xlink:href="#m86947c60cf" x="408.515321" y="367.284184" style="stroke: #000000"/>
     <use xlink:href="#m86947c60cf" x="413.484392" y="99.876741" style="stroke: #000000"/>
     <use xlink:href="#m86947c60cf" x="418.613756" y="367.284184" style="stroke: #000000"/>
     <use xlink:href="#m86947c60cf" x="423.582827" y="367.284184" style="stroke: #000000"/>
     <use xlink:href="#m86947c60cf" x="428.551899" y="99.876741" style="stroke: #000000"/>
     <use xlink:href="#m86947c60cf" x="433.52097" y="367.284184" style="stroke: #000000"/>
     <use xlink:href="#m86947c60cf" x="438.650334" y="367.284184" style="stroke: #000000"/>
     <use xlink:href="#m86947c60cf" x="443.619406" y="99.876741" style="stroke: #000000"/>
     <use xlink:href="#m86947c60cf" x="448.588477" y="367.284184" style="stroke: #000000"/>
     <use xlink:href="#m86947c60cf" x="453.557548" y="99.876741" style="stroke: #000000"/>
     <use xlink:href="#m86947c60cf" x="458.686912" y="367.284184" style="stroke: #000000"/>
     <use xlink:href="#m86947c60cf" x="463.655984" y="367.284184" style="stroke: #000000"/>
     <use xlink:href="#m86947c60cf" x="468.625055" y="99.876741" style="stroke: #000000"/>
     <use xlink:href="#m86947c60cf" x="473.594126" y="367.284184" style="stroke: #000000"/>
     <use xlink:href="#m86947c60cf" x="478.72349" y="367.284184" style="stroke: #000000"/>
     <use xlink:href="#m86947c60cf" x="483.692562" y="99.876741" style="stroke: #000000"/>
     <use xlink:href="#m86947c60cf" x="488.661633" y="367.284184" style="stroke: #000000"/>
     <use xlink:href="#m86947c60cf" x="493.630705" y="99.876741" style="stroke: #000000"/>
     <use xlink:href="#m86947c60cf" x="498.760069" y="367.284184" style="stroke: #000000"/>
     <use xlink:href="#m86947c60cf" x="503.72914" y="367.284184" style="stroke: #000000"/>
     <use xlink:href="#m86947c60cf" x="508.698211" y="99.876741" style="stroke: #000000"/>
     <use xlink:href="#m86947c60cf" x="513.667283" y="367.284184" style="stroke: #000000"/>
     <use xlink:href="#m86947c60cf" x="518.796647" y="367.284184" style="stroke: #000000"/>
     <use xlink:href="#m86947c60cf" x="523.765718" y="99.876741" style="stroke: #000000"/>
     <use xlink:href="#m86947c60cf" x="528.734789" y="367.284184" style="stroke: #000000"/>
     <use xlink:href="#m86947c60cf" x="533.703861" y="99.876741" style="stroke: #000000"/>
     <use xlink:href="#m86947c60cf" x="538.833225" y="367.284184" style="stroke: #000000"/>
     <use xlink:href="#m86947c60cf" x="543.802296" y="367.284184" style="stroke: #000000"/>
     <use xlink:href="#m86947c60cf" x="548.771368" y="99.876741" style="stroke: #000000"/>
     <use xlink:href="#m86947c60cf" x="553.740439" y="367.284184" style="stroke: #000000"/>
     <use xlink:href="#m86947c60cf" x="558.869803" y="367.284184" style="stroke: #000000"/>
     <use xlink:href="#m86947c60cf" x="563.838874" y="99.876741" style="stroke: #000000"/>
     <use xlink:href="#m86947c60cf" x="568.807946" y="367.284184" style="stroke: #000000"/>
     <use xlink:href="#m86947c60cf" x="573.777017" y="99.876741" style="stroke: #000000"/>
     <use xlink:href="#m86947c60cf" x="578.906381" y="367.284184" style="stroke: #000000"/>
     <use xlink:href="#m86947c60cf" x="583.875452" y="367.284184" style="stroke: #000000"/>
     <use xlink:href="#m86947c60cf" x="588.844524" y="99.876741" style="stroke: #000000"/>
     <use xlink:href="#m86947c60cf" x="593.813595" y="367.284184" style="stroke: #000000"/>
     <use xlink:href="#m86947c60cf" x="598.942959" y="367.284184" style="stroke: #000000"/>
     <use xlink:href="#m86947c60cf" x="603.912031" y="99.876741" style="stroke: #000000"/>
     <use xlink:href="#m86947c60cf" x="608.881102" y="367.284184" style="stroke: #000000"/>
     <use xlink:href="#m86947c60cf" x="613.850173" y="99.876741" style="stroke: #000000"/>
     <use xlink:href="#m86947c60cf" x="618.979537" y="367.284184" style="stroke: #000000"/>
     <use xlink:href="#m86947c60cf" x="623.948609" y="367.284184" style="stroke: #000000"/>
     <use xlink:href="#m86947c60cf" x="628.91768" y="99.876741" style="stroke: #000000"/>
     <use xlink:href="#m86947c60cf" x="633.886751" y="367.284184" style="stroke: #000000"/>
     <use xlink:href="#m86947c60cf" x="639.016115" y="367.284184" style="stroke: #000000"/>
     <use xlink:href="#m86947c60cf" x="643.985187" y="99.876741" style="stroke: #000000"/>
     <use xlink:href="#m86947c60cf" x="648.954258" y="367.284184" style="stroke: #000000"/>
     <use xlink:href="#m86947c60cf" x="653.92333" y="99.876741" style="stroke: #000000"/>
     <use xlink:href="#m86947c60cf" x="659.052694" y="367.284184" style="stroke: #000000"/>
     <use xlink:href="#m86947c60cf" x="664.021765" y="367.284184" style="stroke: #000000"/>
     <use xlink:href="#m86947c60cf" x="668.990836" y="99.876741" style="stroke: #000000"/>
     <use xlink:href="#m86947c60cf" x="673.959908" y="367.284184" style="stroke: #000000"/>
     <use xlink:href="#m86947c60cf" x="679.089272" y="367.284184" style="stroke: #000000"/>
     <use xlink:href="#m86947c60cf" x="684.058343" y="99.876741" style="stroke: #000000"/>
     <use xlink:href="#m86947c60cf" x="689.027414" y="367.284184" style="stroke: #000000"/>
     <use xlink:href="#m86947c60cf" x="693.996486" y="99.876741" style="stroke: #000000"/>
     <use xlink:href="#m86947c60cf" x="699.12585" y="367.284184" style="stroke: #000000"/>
     <use xlink:href="#m86947c60cf" x="704.094921" y="367.284184" style="stroke: #000000"/>
     <use xlink:href="#m86947c60cf" x="709.063993" y="99.876741" style="stroke: #000000"/>
     <use xlink:href="#m86947c60cf" x="714.033064" y="367.284184" style="stroke: #000000"/>
     <use xlink:href="#m86947c60cf" x="719.162428" y="367.284184" style="stroke: #000000"/>
     <use xlink:href="#m86947c60cf" x="724.131499" y="99.876741" style="stroke: #000000"/>
     <use xlink:href="#m86947c60cf" x="729.100571" y="367.284184" style="stroke: #000000"/>
     <use xlink:href="#m86947c60cf" x="734.069642" y="99.876741" style="stroke: #000000"/>
     <use xlink:href="#m86947c60cf" x="739.199006" y="367.284184" style="stroke: #000000"/>
     <use xlink:href="#m86947c60cf" x="744.168077" y="367.284184" style="stroke: #000000"/>
     <use xlink:href="#m86947c60cf" x="749.137149" y="99.876741" style="stroke: #000000"/>
     <use xlink:href="#m86947c60cf" x="754.10622" y="367.284184" style="stroke: #000000"/>
     <use xlink:href="#m86947c60cf" x="759.235584" y="367.284184" style="stroke: #000000"/>
     <use xlink:href="#m86947c60cf" x="764.204656" y="99.876741" style="stroke: #000000"/>
     <use xlink:href="#m86947c60cf" x="769.173727" y="367.284184" style="stroke: #000000"/>
     <use xlink:href="#m86947c60cf" x="774.142798" y="99.876741" style="stroke: #000000"/>
     <use xlink:href="#m86947c60cf" x="779.272162" y="367.284184" style="stroke: #000000"/>
     <use xlink:href="#m86947c60cf" x="784.241234" y="367.284184" style="stroke: #000000"/>
     <use xlink:href="#m86947c60cf" x="789.210305" y="99.876741" style="stroke: #000000"/>
     <use xlink:href="#m86947c60cf" x="794.179376" y="367.284184" style="stroke: #000000"/>
     <use xlink:href="#m86947c60cf" x="799.30874" y="367.284184" style="stroke: #000000"/>
     <use xlink:href="#m86947c60cf" x="804.277812" y="99.876741" style="stroke: #000000"/>
     <use xlink:href="#m86947c60cf" x="809.246883" y="367.284184" style="stroke: #000000"/>
     <use xlink:href="#m86947c60cf" x="814.215955" y="99.876741" style="stroke: #000000"/>
     <use xlink:href="#m86947c60cf" x="819.345319" y="367.284184" style="stroke: #000000"/>
     <use xlink:href="#m86947c60cf" x="824.31439" y="367.284184" style="stroke: #000000"/>
     <use xlink:href="#m86947c60cf" x="829.283461" y="99.876741" style="stroke: #000000"/>
     <use xlink:href="#m86947c60cf" x="834.252533" y="367.284184" style="stroke: #000000"/>
     <use xlink:href="#m86947c60cf" x="839.381897" y="367.284184" style="stroke: #000000"/>
     <use xlink:href="#m86947c60cf" x="844.350968" y="99.876741" style="stroke: #000000"/>
     <use xlink:href="#m86947c60cf" x="849.320039" y="367.284184" style="stroke: #000000"/>
     <use xlink:href="#m86947c60cf" x="854.289111" y="99.876741" style="stroke: #000000"/>
     <use xlink:href="#m86947c60cf" x="859.418475" y="367.284184" style="stroke: #000000"/>
     <use xlink:href="#m86947c60cf" x="864.387546" y="367.284184" style="stroke: #000000"/>
     <use xlink:href="#m86947c60cf" x="869.356618" y="99.876741" style="stroke: #000000"/>
     <use xlink:href="#m86947c60cf" x="874.325689" y="367.284184" style="stroke: #000000"/>
     <use xlink:href="#m86947c60cf" x="879.455053" y="367.284184" style="stroke: #000000"/>
     <use xlink:href="#m86947c60cf" x="884.424124" y="99.876741" style="stroke: #000000"/>
     <use xlink:href="#m86947c60cf" x="889.393196" y="367.284184" style="stroke: #000000"/>
     <use xlink:href="#m86947c60cf" x="894.362267" y="99.876741" style="stroke: #000000"/>
     <use xlink:href="#m86947c60cf" x="899.491631" y="367.284184" style="stroke: #000000"/>
     <use xlink:href="#m86947c60cf" x="904.460702" y="367.284184" style="stroke: #000000"/>
     <use xlink:href="#m86947c60cf" x="909.429774" y="99.876741" style="stroke: #000000"/>
     <use xlink:href="#m86947c60cf" x="914.398845" y="367.284184" style="stroke: #000000"/>
     <use xlink:href="#m86947c60cf" x="919.528209" y="367.284184" style="stroke: #000000"/>
     <use xlink:href="#m86947c60cf" x="924.497281" y="99.876741" style="stroke: #000000"/>
     <use xlink:href="#m86947c60cf" x="929.466352" y="367.284184" style="stroke: #000000"/>
    </g>
   </g>
   <g id="patch_3">
    <path d="M 135 448.56 
L 135 60.48 
" style="fill: none; stroke: #000000; stroke-width: 0.8; stroke-linejoin: miter; stroke-linecap: square"/>
   </g>
   <g id="patch_4">
    <path d="M 972 448.56 
L 972 60.48 
" style="fill: none; stroke: #000000; stroke-width: 0.8; stroke-linejoin: miter; stroke-linecap: square"/>
   </g>
   <g id="patch_5">
    <path d="M 135 448.56 
L 972 448.56 
" style="fill: none; stroke: #000000; stroke-width: 0.8; stroke-linejoin: miter; stroke-linecap: square"/>
   </g>
   <g id="patch_6">
    <path d="M 135 60.48 
L 972 60.48 
" style="fill: none; stroke: #000000; stroke-width: 0.8; stroke-linejoin: miter; stroke-linecap: square"/>
   </g>
   <g id="legend_1">
    <g id="patch_7">
     <path d="M 142 443.56 
L 211.084375 443.56 
Q 213.084375 443.56 213.084375 441.56 
L 213.084375 397.969375 
Q 213.084375 395.969375 211.084375 395.969375 
L 142 395.969375 
Q 140 395.969375 140 397.969375 
L 140 441.56 
Q 140 443.56 142 443.56 
z
" style="fill: #ffffff; opacity: 0.8; stroke: #cccccc; stroke-linejoin: miter"/>
    </g>
    <g id="line2d_16">
     <path d="M 144 404.067813 
L 154 404.067813 
L 164 404.067813 
" style="fill: none; stroke: #1f77b4; stroke-width: 1.5; stroke-linecap: square"/>
    </g>
    <g id="text_14">
     <!-- nw_0 -->
     <g transform="translate(172 407.567813) scale(0.1 -0.1)">
      <defs>
       <path id="DejaVuSans-6e" d="M 3513 2113 
L 3513 0 
L 2938 0 
L 2938 2094 
Q 2938 2591 2744 2837 
Q 2550 3084 2163 3084 
Q 1697 3084 1428 2787 
Q 1159 2491 1159 1978 
L 1159 0 
L 581 0 
L 581 3500 
L 1159 3500 
L 1159 2956 
Q 1366 3272 1645 3428 
Q 1925 3584 2291 3584 
Q 2894 3584 3203 3211 
Q 3513 2838 3513 2113 
z
" transform="scale(0.015625)"/>
       <path id="DejaVuSans-77" d="M 269 3500 
L 844 3500 
L 1563 769 
L 2278 3500 
L 2956 3500 
L 3675 769 
L 4391 3500 
L 4966 3500 
L 4050 0 
L 3372 0 
L 2619 2869 
L 1863 0 
L 1184 0 
L 269 3500 
z
" transform="scale(0.015625)"/>
       <path id="DejaVuSans-5f" d="M 3263 -1063 
L 3263 -1509 
L -63 -1509 
L -63 -1063 
L 3263 -1063 
z
" transform="scale(0.015625)"/>
      </defs>
      <use xlink:href="#DejaVuSans-6e"/>
      <use xlink:href="#DejaVuSans-77" x="63.378906"/>
      <use xlink:href="#DejaVuSans-5f" x="145.166016"/>
      <use xlink:href="#DejaVuSans-30" x="195.166016"/>
     </g>
    </g>
    <g id="line2d_17">
     <path d="M 144 419.024063 
L 154 419.024063 
L 164 419.024063 
" style="fill: none; stroke: #ff7f0e; stroke-width: 1.5; stroke-linecap: square"/>
    </g>
    <g id="text_15">
     <!-- input_0 -->
     <g transform="translate(172 422.524063) scale(0.1 -0.1)">
      <defs>
       <path id="DejaVuSans-69" d="M 603 3500 
L 1178 3500 
L 1178 0 
L 603 0 
L 603 3500 
z
M 603 4863 
L 1178 4863 
L 1178 4134 
L 603 4134 
L 603 4863 
z
" transform="scale(0.015625)"/>
       <path id="DejaVuSans-70" d="M 1159 525 
L 1159 -1331 
L 581 -1331 
L 581 3500 
L 1159 3500 
L 1159 2969 
Q 1341 3281 1617 3432 
Q 1894 3584 2278 3584 
Q 2916 3584 3314 3078 
Q 3713 2572 3713 1747 
Q 3713 922 3314 415 
Q 2916 -91 2278 -91 
Q 1894 -91 1617 61 
Q 1341 213 1159 525 
z
M 3116 1747 
Q 3116 2381 2855 2742 
Q 2594 3103 2138 3103 
Q 1681 3103 1420 2742 
Q 1159 2381 1159 1747 
Q 1159 1113 1420 752 
Q 1681 391 2138 391 
Q 2594 391 2855 752 
Q 3116 1113 3116 1747 
z
" transform="scale(0.015625)"/>
       <path id="DejaVuSans-75" d="M 544 1381 
L 544 3500 
L 1119 3500 
L 1119 1403 
Q 1119 906 1312 657 
Q 1506 409 1894 409 
Q 2359 409 2629 706 
Q 2900 1003 2900 1516 
L 2900 3500 
L 3475 3500 
L 3475 0 
L 2900 0 
L 2900 538 
Q 2691 219 2414 64 
Q 2138 -91 1772 -91 
Q 1169 -91 856 284 
Q 544 659 544 1381 
z
M 1991 3584 
L 1991 3584 
z
" transform="scale(0.015625)"/>
      </defs>
      <use xlink:href="#DejaVuSans-69"/>
      <use xlink:href="#DejaVuSans-6e" x="27.783203"/>
      <use xlink:href="#DejaVuSans-70" x="91.162109"/>
      <use xlink:href="#DejaVuSans-75" x="154.638672"/>
      <use xlink:href="#DejaVuSans-74" x="218.017578"/>
      <use xlink:href="#DejaVuSans-5f" x="257.226562"/>
      <use xlink:href="#DejaVuSans-30" x="307.226562"/>
     </g>
    </g>
    <g id="line2d_18">
     <path d="M 144 433.980312 
L 154 433.980312 
L 164 433.980312 
" style="fill: none; stroke: #000000; stroke-width: 1.5; stroke-linecap: square"/>
     <g>
      <use xlink:href="#m86947c60cf" x="154" y="433.980312" style="stroke: #000000"/>
     </g>
    </g>
    <g id="text_16">
     <!-- target -->
     <g transform="translate(172 437.480312) scale(0.1 -0.1)">
      <defs>
       <path id="DejaVuSans-61" d="M 2194 1759 
Q 1497 1759 1228 1600 
Q 959 1441 959 1056 
Q 959 750 1161 570 
Q 1363 391 1709 391 
Q 2188 391 2477 730 
Q 2766 1069 2766 1631 
L 2766 1759 
L 2194 1759 
z
M 3341 1997 
L 3341 0 
L 2766 0 
L 2766 531 
Q 2569 213 2275 61 
Q 1981 -91 1556 -91 
Q 1019 -91 701 211 
Q 384 513 384 1019 
Q 384 1609 779 1909 
Q 1175 2209 1959 2209 
L 2766 2209 
L 2766 2266 
Q 2766 2663 2505 2880 
Q 2244 3097 1772 3097 
Q 1472 3097 1187 3025 
Q 903 2953 641 2809 
L 641 3341 
Q 956 3463 1253 3523 
Q 1550 3584 1831 3584 
Q 2591 3584 2966 3190 
Q 3341 2797 3341 1997 
z
" transform="scale(0.015625)"/>
       <path id="DejaVuSans-72" d="M 2631 2963 
Q 2534 3019 2420 3045 
Q 2306 3072 2169 3072 
Q 1681 3072 1420 2755 
Q 1159 2438 1159 1844 
L 1159 0 
L 581 0 
L 581 3500 
L 1159 3500 
L 1159 2956 
Q 1341 3275 1631 3429 
Q 1922 3584 2338 3584 
Q 2397 3584 2469 3576 
Q 2541 3569 2628 3553 
L 2631 2963 
z
" transform="scale(0.015625)"/>
       <path id="DejaVuSans-67" d="M 2906 1791 
Q 2906 2416 2648 2759 
Q 2391 3103 1925 3103 
Q 1463 3103 1205 2759 
Q 947 2416 947 1791 
Q 947 1169 1205 825 
Q 1463 481 1925 481 
Q 2391 481 2648 825 
Q 2906 1169 2906 1791 
z
M 3481 434 
Q 3481 -459 3084 -895 
Q 2688 -1331 1869 -1331 
Q 1566 -1331 1297 -1286 
Q 1028 -1241 775 -1147 
L 775 -588 
Q 1028 -725 1275 -790 
Q 1522 -856 1778 -856 
Q 2344 -856 2625 -561 
Q 2906 -266 2906 331 
L 2906 616 
Q 2728 306 2450 153 
Q 2172 0 1784 0 
Q 1141 0 747 490 
Q 353 981 353 1791 
Q 353 2603 747 3093 
Q 1141 3584 1784 3584 
Q 2172 3584 2450 3431 
Q 2728 3278 2906 2969 
L 2906 3500 
L 3481 3500 
L 3481 434 
z
" transform="scale(0.015625)"/>
       <path id="DejaVuSans-65" d="M 3597 1894 
L 3597 1613 
L 953 1613 
Q 991 1019 1311 708 
Q 1631 397 2203 397 
Q 2534 397 2845 478 
Q 3156 559 3463 722 
L 3463 178 
Q 3153 47 2828 -22 
Q 2503 -91 2169 -91 
Q 1331 -91 842 396 
Q 353 884 353 1716 
Q 353 2575 817 3079 
Q 1281 3584 2069 3584 
Q 2775 3584 3186 3129 
Q 3597 2675 3597 1894 
z
M 3022 2063 
Q 3016 2534 2758 2815 
Q 2500 3097 2075 3097 
Q 1594 3097 1305 2825 
Q 1016 2553 972 2059 
L 3022 2063 
z
" transform="scale(0.015625)"/>
      </defs>
      <use xlink:href="#DejaVuSans-74"/>
      <use xlink:href="#DejaVuSans-61" x="39.208984"/>
      <use xlink:href="#DejaVuSans-72" x="100.488281"/>
      <use xlink:href="#DejaVuSans-67" x="139.851562"/>
      <use xlink:href="#DejaVuSans-65" x="203.328125"/>
      <use xlink:href="#DejaVuSans-74" x="264.851562"/>
     </g>
    </g>
   </g>
  </g>
 </g>
 <defs>
  <clipPath id="pd4e4133d02">
   <rect x="135" y="60.48" width="837" height="388.08"/>
  </clipPath>
 </defs>
</svg>
