<?xml version="1.0" encoding="utf-8" standalone="no"?>
<!DOCTYPE svg PUBLIC "-//W3C//DTD SVG 1.1//EN"
  "http://www.w3.org/Graphics/SVG/1.1/DTD/svg11.dtd">
<svg xmlns:xlink="http://www.w3.org/1999/xlink" width="1080pt" height="504pt" viewBox="0 0 1080 504" xmlns="http://www.w3.org/2000/svg" version="1.1">
 <metadata>
  <rdf:RDF xmlns:dc="http://purl.org/dc/elements/1.1/" xmlns:cc="http://creativecommons.org/ns#" xmlns:rdf="http://www.w3.org/1999/02/22-rdf-syntax-ns#">
   <cc:Work>
    <dc:type rdf:resource="http://purl.org/dc/dcmitype/StillImage"/>
    <dc:date>2024-05-09T11:09:11.162927</dc:date>
    <dc:format>image/svg+xml</dc:format>
    <dc:creator>
     <cc:Agent>
      <dc:title>Matplotlib v3.7.1, https://matplotlib.org/</dc:title>
     </cc:Agent>
    </dc:creator>
   </cc:Work>
  </rdf:RDF>
 </metadata>
 <defs>
  <style type="text/css">*{stroke-linejoin: round; stroke-linecap: butt}</style>
 </defs>
 <g id="figure_1">
  <g id="patch_1">
   <path d="M 0 504 
L 1080 504 
L 1080 0 
L 0 0 
z
" style="fill: #ffffff"/>
  </g>
  <g id="axes_1">
   <g id="patch_2">
    <path d="M 135 448.56 
L 972 448.56 
L 972 60.48 
L 135 60.48 
z
" style="fill: #ffffff"/>
   </g>
   <g id="matplotlib.axis_1">
    <g id="xtick_1">
     <g id="line2d_1">
      <defs>
       <path id="m0aa85cd2b9" d="M 0 0 
L 0 3.5 
" style="stroke: #000000; stroke-width: 0.8"/>
      </defs>
      <g>
       <use xlink:href="#m0aa85cd2b9" x="173.045455" y="448.56" style="stroke: #000000; stroke-width: 0.8"/>
      </g>
     </g>
     <g id="text_1">
      <!-- 0 -->
      <g transform="translate(169.864205 463.158437) scale(0.1 -0.1)">
       <defs>
        <path id="DejaVuSans-30" d="M 2034 4250 
Q 1547 4250 1301 3770 
Q 1056 3291 1056 2328 
Q 1056 1369 1301 889 
Q 1547 409 2034 409 
Q 2525 409 2770 889 
Q 3016 1369 3016 2328 
Q 3016 3291 2770 3770 
Q 2525 4250 2034 4250 
z
M 2034 4750 
Q 2819 4750 3233 4129 
Q 3647 3509 3647 2328 
Q 3647 1150 3233 529 
Q 2819 -91 2034 -91 
Q 1250 -91 836 529 
Q 422 1150 422 2328 
Q 422 3509 836 4129 
Q 1250 4750 2034 4750 
z
" transform="scale(0.015625)"/>
       </defs>
       <use xlink:href="#DejaVuSans-30"/>
      </g>
     </g>
    </g>
    <g id="xtick_2">
     <g id="line2d_2">
      <g>
       <use xlink:href="#m0aa85cd2b9" x="333.33808" y="448.56" style="stroke: #000000; stroke-width: 0.8"/>
      </g>
     </g>
     <g id="text_2">
      <!-- 1000 -->
      <g transform="translate(320.61308 463.158437) scale(0.1 -0.1)">
       <defs>
        <path id="DejaVuSans-31" d="M 794 531 
L 1825 531 
L 1825 4091 
L 703 3866 
L 703 4441 
L 1819 4666 
L 2450 4666 
L 2450 531 
L 3481 531 
L 3481 0 
L 794 0 
L 794 531 
z
" transform="scale(0.015625)"/>
       </defs>
       <use xlink:href="#DejaVuSans-31"/>
       <use xlink:href="#DejaVuSans-30" x="63.623047"/>
       <use xlink:href="#DejaVuSans-30" x="127.246094"/>
       <use xlink:href="#DejaVuSans-30" x="190.869141"/>
      </g>
     </g>
    </g>
    <g id="xtick_3">
     <g id="line2d_3">
      <g>
       <use xlink:href="#m0aa85cd2b9" x="493.630705" y="448.56" style="stroke: #000000; stroke-width: 0.8"/>
      </g>
     </g>
     <g id="text_3">
      <!-- 2000 -->
      <g transform="translate(480.905705 463.158437) scale(0.1 -0.1)">
       <defs>
        <path id="DejaVuSans-32" d="M 1228 531 
L 3431 531 
L 3431 0 
L 469 0 
L 469 531 
Q 828 903 1448 1529 
Q 2069 2156 2228 2338 
Q 2531 2678 2651 2914 
Q 2772 3150 2772 3378 
Q 2772 3750 2511 3984 
Q 2250 4219 1831 4219 
Q 1534 4219 1204 4116 
Q 875 4013 500 3803 
L 500 4441 
Q 881 4594 1212 4672 
Q 1544 4750 1819 4750 
Q 2544 4750 2975 4387 
Q 3406 4025 3406 3419 
Q 3406 3131 3298 2873 
Q 3191 2616 2906 2266 
Q 2828 2175 2409 1742 
Q 1991 1309 1228 531 
z
" transform="scale(0.015625)"/>
       </defs>
       <use xlink:href="#DejaVuSans-32"/>
       <use xlink:href="#DejaVuSans-30" x="63.623047"/>
       <use xlink:href="#DejaVuSans-30" x="127.246094"/>
       <use xlink:href="#DejaVuSans-30" x="190.869141"/>
      </g>
     </g>
    </g>
    <g id="xtick_4">
     <g id="line2d_4">
      <g>
       <use xlink:href="#m0aa85cd2b9" x="653.92333" y="448.56" style="stroke: #000000; stroke-width: 0.8"/>
      </g>
     </g>
     <g id="text_4">
      <!-- 3000 -->
      <g transform="translate(641.19833 463.158437) scale(0.1 -0.1)">
       <defs>
        <path id="DejaVuSans-33" d="M 2597 2516 
Q 3050 2419 3304 2112 
Q 3559 1806 3559 1356 
Q 3559 666 3084 287 
Q 2609 -91 1734 -91 
Q 1441 -91 1130 -33 
Q 819 25 488 141 
L 488 750 
Q 750 597 1062 519 
Q 1375 441 1716 441 
Q 2309 441 2620 675 
Q 2931 909 2931 1356 
Q 2931 1769 2642 2001 
Q 2353 2234 1838 2234 
L 1294 2234 
L 1294 2753 
L 1863 2753 
Q 2328 2753 2575 2939 
Q 2822 3125 2822 3475 
Q 2822 3834 2567 4026 
Q 2313 4219 1838 4219 
Q 1578 4219 1281 4162 
Q 984 4106 628 3988 
L 628 4550 
Q 988 4650 1302 4700 
Q 1616 4750 1894 4750 
Q 2613 4750 3031 4423 
Q 3450 4097 3450 3541 
Q 3450 3153 3228 2886 
Q 3006 2619 2597 2516 
z
" transform="scale(0.015625)"/>
       </defs>
       <use xlink:href="#DejaVuSans-33"/>
       <use xlink:href="#DejaVuSans-30" x="63.623047"/>
       <use xlink:href="#DejaVuSans-30" x="127.246094"/>
       <use xlink:href="#DejaVuSans-30" x="190.869141"/>
      </g>
     </g>
    </g>
    <g id="xtick_5">
     <g id="line2d_5">
      <g>
       <use xlink:href="#m0aa85cd2b9" x="814.215955" y="448.56" style="stroke: #000000; stroke-width: 0.8"/>
      </g>
     </g>
     <g id="text_5">
      <!-- 4000 -->
      <g transform="translate(801.490955 463.158437) scale(0.1 -0.1)">
       <defs>
        <path id="DejaVuSans-34" d="M 2419 4116 
L 825 1625 
L 2419 1625 
L 2419 4116 
z
M 2253 4666 
L 3047 4666 
L 3047 1625 
L 3713 1625 
L 3713 1100 
L 3047 1100 
L 3047 0 
L 2419 0 
L 2419 1100 
L 313 1100 
L 313 1709 
L 2253 4666 
z
" transform="scale(0.015625)"/>
       </defs>
       <use xlink:href="#DejaVuSans-34"/>
       <use xlink:href="#DejaVuSans-30" x="63.623047"/>
       <use xlink:href="#DejaVuSans-30" x="127.246094"/>
       <use xlink:href="#DejaVuSans-30" x="190.869141"/>
      </g>
     </g>
    </g>
    <g id="text_6">
     <!-- t -->
     <g transform="translate(551.539844 476.836563) scale(0.1 -0.1)">
      <defs>
       <path id="DejaVuSans-74" d="M 1172 4494 
L 1172 3500 
L 2356 3500 
L 2356 3053 
L 1172 3053 
L 1172 1153 
Q 1172 725 1289 603 
Q 1406 481 1766 481 
L 2356 481 
L 2356 0 
L 1766 0 
Q 1100 0 847 248 
Q 594 497 594 1153 
L 594 3053 
L 172 3053 
L 172 3500 
L 594 3500 
L 594 4494 
L 1172 4494 
z
" transform="scale(0.015625)"/>
      </defs>
      <use xlink:href="#DejaVuSans-74"/>
     </g>
    </g>
   </g>
   <g id="matplotlib.axis_2">
    <g id="ytick_1">
     <g id="line2d_6">
      <defs>
       <path id="m1e67b99e9a" d="M 0 0 
L -3.5 0 
" style="stroke: #000000; stroke-width: 0.8"/>
      </defs>
      <g>
       <use xlink:href="#m1e67b99e9a" x="135" y="430.92" style="stroke: #000000; stroke-width: 0.8"/>
      </g>
     </g>
     <g id="text_7">
      <!-- 0.0 -->
      <g transform="translate(112.096875 434.719219) scale(0.1 -0.1)">
       <defs>
        <path id="DejaVuSans-2e" d="M 684 794 
L 1344 794 
L 1344 0 
L 684 0 
L 684 794 
z
" transform="scale(0.015625)"/>
       </defs>
       <use xlink:href="#DejaVuSans-30"/>
       <use xlink:href="#DejaVuSans-2e" x="63.623047"/>
       <use xlink:href="#DejaVuSans-30" x="95.410156"/>
      </g>
     </g>
    </g>
    <g id="ytick_2">
     <g id="line2d_7">
      <g>
       <use xlink:href="#m1e67b99e9a" x="135" y="360.36" style="stroke: #000000; stroke-width: 0.8"/>
      </g>
     </g>
     <g id="text_8">
      <!-- 0.2 -->
      <g transform="translate(112.096875 364.159219) scale(0.1 -0.1)">
       <use xlink:href="#DejaVuSans-30"/>
       <use xlink:href="#DejaVuSans-2e" x="63.623047"/>
       <use xlink:href="#DejaVuSans-32" x="95.410156"/>
      </g>
     </g>
    </g>
    <g id="ytick_3">
     <g id="line2d_8">
      <g>
       <use xlink:href="#m1e67b99e9a" x="135" y="289.8" style="stroke: #000000; stroke-width: 0.8"/>
      </g>
     </g>
     <g id="text_9">
      <!-- 0.4 -->
      <g transform="translate(112.096875 293.599219) scale(0.1 -0.1)">
       <use xlink:href="#DejaVuSans-30"/>
       <use xlink:href="#DejaVuSans-2e" x="63.623047"/>
       <use xlink:href="#DejaVuSans-34" x="95.410156"/>
      </g>
     </g>
    </g>
    <g id="ytick_4">
     <g id="line2d_9">
      <g>
       <use xlink:href="#m1e67b99e9a" x="135" y="219.24" style="stroke: #000000; stroke-width: 0.8"/>
      </g>
     </g>
     <g id="text_10">
      <!-- 0.6 -->
      <g transform="translate(112.096875 223.039219) scale(0.1 -0.1)">
       <defs>
        <path id="DejaVuSans-36" d="M 2113 2584 
Q 1688 2584 1439 2293 
Q 1191 2003 1191 1497 
Q 1191 994 1439 701 
Q 1688 409 2113 409 
Q 2538 409 2786 701 
Q 3034 994 3034 1497 
Q 3034 2003 2786 2293 
Q 2538 2584 2113 2584 
z
M 3366 4563 
L 3366 3988 
Q 3128 4100 2886 4159 
Q 2644 4219 2406 4219 
Q 1781 4219 1451 3797 
Q 1122 3375 1075 2522 
Q 1259 2794 1537 2939 
Q 1816 3084 2150 3084 
Q 2853 3084 3261 2657 
Q 3669 2231 3669 1497 
Q 3669 778 3244 343 
Q 2819 -91 2113 -91 
Q 1303 -91 875 529 
Q 447 1150 447 2328 
Q 447 3434 972 4092 
Q 1497 4750 2381 4750 
Q 2619 4750 2861 4703 
Q 3103 4656 3366 4563 
z
" transform="scale(0.015625)"/>
       </defs>
       <use xlink:href="#DejaVuSans-30"/>
       <use xlink:href="#DejaVuSans-2e" x="63.623047"/>
       <use xlink:href="#DejaVuSans-36" x="95.410156"/>
      </g>
     </g>
    </g>
    <g id="ytick_5">
     <g id="line2d_10">
      <g>
       <use xlink:href="#m1e67b99e9a" x="135" y="148.68" style="stroke: #000000; stroke-width: 0.8"/>
      </g>
     </g>
     <g id="text_11">
      <!-- 0.8 -->
      <g transform="translate(112.096875 152.479219) scale(0.1 -0.1)">
       <defs>
        <path id="DejaVuSans-38" d="M 2034 2216 
Q 1584 2216 1326 1975 
Q 1069 1734 1069 1313 
Q 1069 891 1326 650 
Q 1584 409 2034 409 
Q 2484 409 2743 651 
Q 3003 894 3003 1313 
Q 3003 1734 2745 1975 
Q 2488 2216 2034 2216 
z
M 1403 2484 
Q 997 2584 770 2862 
Q 544 3141 544 3541 
Q 544 4100 942 4425 
Q 1341 4750 2034 4750 
Q 2731 4750 3128 4425 
Q 3525 4100 3525 3541 
Q 3525 3141 3298 2862 
Q 3072 2584 2669 2484 
Q 3125 2378 3379 2068 
Q 3634 1759 3634 1313 
Q 3634 634 3220 271 
Q 2806 -91 2034 -91 
Q 1263 -91 848 271 
Q 434 634 434 1313 
Q 434 1759 690 2068 
Q 947 2378 1403 2484 
z
M 1172 3481 
Q 1172 3119 1398 2916 
Q 1625 2713 2034 2713 
Q 2441 2713 2670 2916 
Q 2900 3119 2900 3481 
Q 2900 3844 2670 4047 
Q 2441 4250 2034 4250 
Q 1625 4250 1398 4047 
Q 1172 3844 1172 3481 
z
" transform="scale(0.015625)"/>
       </defs>
       <use xlink:href="#DejaVuSans-30"/>
       <use xlink:href="#DejaVuSans-2e" x="63.623047"/>
       <use xlink:href="#DejaVuSans-38" x="95.410156"/>
      </g>
     </g>
    </g>
    <g id="ytick_6">
     <g id="line2d_11">
      <g>
       <use xlink:href="#m1e67b99e9a" x="135" y="78.12" style="stroke: #000000; stroke-width: 0.8"/>
      </g>
     </g>
     <g id="text_12">
      <!-- 1.0 -->
      <g transform="translate(112.096875 81.919219) scale(0.1 -0.1)">
       <use xlink:href="#DejaVuSans-31"/>
       <use xlink:href="#DejaVuSans-2e" x="63.623047"/>
       <use xlink:href="#DejaVuSans-30" x="95.410156"/>
      </g>
     </g>
    </g>
   </g>
   <g id="line2d_12">
    <path d="M 173.045455 422.696013 
L 173.846918 388.197115 
L 174.648381 363.550236 
L 175.289551 349.937255 
L 175.930722 341.021927 
L 176.4116 337.053486 
L 176.732185 335.571745 
L 177.05277 334.945734 
L 177.213063 334.934505 
L 177.373355 335.114673 
L 177.693941 336.021022 
L 178.655696 365.248926 
L 179.45716 383.802098 
L 180.258623 397.868078 
L 181.060086 408.097038 
L 181.701256 413.905829 
L 182.342427 417.89017 
L 182.823305 419.824543 
L 183.304183 420.957657 
L 183.624768 421.309857 
L 183.945353 421.366965 
L 184.265938 421.15116 
L 184.746816 420.36142 
L 185.227694 419.070986 
L 185.868865 416.676435 
L 186.670328 412.782392 
L 187.792376 406.046116 
L 189.395302 394.739023 
L 195.807007 347.494678 
L 197.570226 336.93843 
L 199.01286 329.52134 
L 200.455493 323.253631 
L 201.737834 318.65168 
L 202.859883 315.360202 
L 203.981931 312.733798 
L 204.943687 310.991787 
L 205.905443 309.699165 
L 206.706906 308.949768 
L 207.508369 308.484306 
L 208.309832 308.289105 
L 209.111295 308.350174 
L 209.912758 308.653347 
L 210.714221 309.1844 
L 211.675977 310.102499 
L 212.798026 311.530202 
L 213.278903 312.250796 
L 214.080367 279.446703 
L 214.721537 260.611055 
L 215.362708 247.505686 
L 215.843585 241.007931 
L 216.324463 237.059681 
L 216.645049 235.718176 
L 216.965634 235.32681 
L 217.125926 235.46651 
L 217.446512 236.376764 
L 217.767097 238.077414 
L 218.087682 240.510417 
L 219.049438 272.376161 
L 220.011194 296.775254 
L 220.812657 312.307185 
L 221.61412 324.149353 
L 222.415583 332.855981 
L 223.056754 337.893636 
L 223.697924 341.460175 
L 224.339095 343.755646 
L 224.819972 344.751984 
L 225.30085 345.203831 
L 225.621436 345.234148 
L 225.942021 345.068355 
L 226.422899 344.488015 
L 227.064069 343.175205 
L 227.865532 340.82311 
L 228.827288 337.207173 
L 230.269922 330.728855 
L 236.040456 303.534825 
L 237.48309 298.189342 
L 238.765431 294.216506 
L 239.887479 291.376451 
L 241.009528 289.140862 
L 241.971283 287.703634 
L 242.772746 286.837911 
L 243.57421 286.266655 
L 244.375673 285.981184 
L 245.177136 285.971427 
L 245.978599 286.226212 
L 246.780062 286.733509 
L 247.741818 287.657713 
L 248.703574 288.904554 
L 249.825622 290.735931 
L 251.107963 293.280074 
L 252.550597 296.651393 
L 253.99323 300.48782 
L 254.794693 268.966715 
L 255.435864 251.150505 
L 256.077034 239.056133 
L 256.557912 233.309959 
L 257.03879 230.106785 
L 257.359375 229.258063 
L 257.519668 229.192997 
L 257.679961 229.356127 
L 258.000546 230.334315 
L 258.321131 232.129472 
L 258.802009 236.224091 
L 259.763765 268.876631 
L 260.72552 294.010999 
L 261.687276 312.871333 
L 262.488739 324.574573 
L 263.290202 333.209593 
L 264.091666 339.252507 
L 264.732836 342.503408 
L 265.374007 344.554189 
L 265.854884 345.40814 
L 266.17547 345.688555 
L 266.496055 345.759142 
L 266.81664 345.637037 
L 267.297518 345.127781 
L 267.778396 344.272192 
L 268.419566 342.67295 
L 269.22103 340.075956 
L 270.343078 335.624293 
L 272.106297 327.534376 
L 275.793027 310.351955 
L 277.395953 303.931419 
L 278.838587 299.020427 
L 280.120928 295.424437 
L 281.242976 292.898067 
L 282.204732 291.197643 
L 283.166488 289.922672 
L 283.967951 289.178973 
L 284.769414 288.717464 
L 285.570877 288.52937 
L 286.37234 288.604661 
L 287.173804 288.932322 
L 287.975267 289.500579 
L 288.937022 290.482677 
L 290.059071 292.014457 
L 291.181119 293.927911 
L 292.46346 296.536049 
L 293.585509 299.146977 
L 294.386972 268.127435 
L 295.028142 250.714563 
L 295.669313 239.024535 
L 296.150191 233.581804 
L 296.631068 230.681864 
L 296.951654 230.035019 
L 297.111946 230.070772 
L 297.272239 230.334626 
L 297.592824 231.51393 
L 298.073702 234.794882 
L 298.394287 237.90402 
L 299.356043 270.180107 
L 300.317799 294.966293 
L 301.279555 313.504915 
L 302.081018 324.959111 
L 302.882481 333.361488 
L 303.523651 338.207489 
L 304.164822 341.622099 
L 304.805992 343.800181 
L 305.28687 344.728323 
L 305.767748 345.126981 
L 306.088333 345.129355 
L 306.408919 344.941099 
L 306.889796 344.3364 
L 307.530967 343.006458 
L 308.33243 340.653578 
L 309.294186 337.060471 
L 310.736819 330.650245 
L 316.347061 304.477155 
L 317.789695 299.113435 
L 319.072036 295.102976 
L 320.194084 292.215797 
L 321.316133 289.921709 
L 322.277888 288.426569 
L 323.239644 287.359268 
L 324.041107 286.788568 
L 324.84257 286.498664 
L 325.644034 286.479728 
L 326.445497 286.720851 
L 327.24696 287.21029 
L 328.208716 288.107941 
L 329.170471 289.323136 
L 330.29252 291.111861 
L 331.574861 293.600718 
L 333.017494 296.902943 
L 333.818957 298.940719 
L 334.620421 268.274001 
L 335.261591 251.139577 
L 335.902762 239.724359 
L 336.383639 234.485181 
L 336.864517 231.786465 
L 337.185103 231.27241 
L 337.345395 231.374136 
L 337.66598 232.252788 
L 337.986566 233.977892 
L 338.467444 238.018817 
L 338.627736 239.724378 
L 339.589492 272.012865 
L 340.551248 296.807526 
L 341.513003 315.350364 
L 342.314467 326.804662 
L 343.11593 335.203961 
L 343.7571 340.045188 
L 344.398271 343.452969 
L 345.039441 345.622179 
L 345.520319 346.54234 
L 346.001197 346.931895 
L 346.321782 346.927585 
L 346.642367 346.732158 
L 347.123245 346.115804 
L 347.764416 344.768677 
L 348.565879 342.391754 
L 349.527635 338.766198 
L 350.970268 332.300416 
L 356.740803 305.201135 
L 358.183436 299.849065 
L 359.465777 295.85417 
L 360.587826 292.981888 
L 361.709874 290.702122 
L 362.67163 289.217833 
L 363.633386 288.15943 
L 364.434849 287.594331 
L 365.236312 287.308174 
L 366.037775 287.290997 
L 366.839238 287.531804 
L 367.640701 288.018801 
L 368.602457 288.910695 
L 369.564213 290.117074 
L 370.686261 291.891743 
L 371.968602 294.359784 
L 373.090651 296.863754 
L 373.892114 266.363814 
L 374.533284 249.364277 
L 375.174455 238.0851 
L 375.655333 232.948613 
L 375.975918 230.952019 
L 376.296503 230.008036 
L 376.456796 229.90801 
L 376.617088 230.044293 
L 376.937674 230.992156 
L 377.258259 232.786576 
L 377.739137 236.931613 
L 377.899429 238.6719 
L 378.861185 270.771418 
L 379.822941 295.395437 
L 380.624404 311.105622 
L 381.425867 323.116102 
L 382.22733 331.979979 
L 383.028793 338.184369 
L 383.669964 341.522549 
L 384.311134 343.628272 
L 384.792012 344.504681 
L 385.112597 344.792029 
L 385.433183 344.863636 
L 385.753768 344.737056 
L 386.234646 344.211652 
L 386.715524 343.329706 
L 387.356694 341.681446 
L 388.158157 339.004388 
L 389.280206 334.413261 
L 391.043425 326.061393 
L 394.890448 307.564818 
L 396.493374 300.985898 
L 397.936007 295.962519 
L 399.218348 292.288247 
L 400.340397 289.708557 
L 401.302153 287.972779 
L 402.263908 286.671277 
L 403.065371 285.911733 
L 403.866835 285.439685 
L 404.668298 285.246007 
L 405.469761 285.320335 
L 406.271224 285.651332 
L 407.072687 286.226914 
L 408.034443 287.222655 
L 409.156491 288.776425 
L 410.27854 290.717714 
L 411.560881 293.363941 
L 413.163807 297.234263 
L 413.644685 298.503213 
L 414.446148 268.118763 
L 415.087318 251.209599 
L 415.728489 240.018778 
L 416.209367 234.947109 
L 416.529952 232.99299 
L 416.850537 232.090865 
L 417.01083 232.011529 
L 417.171122 232.16834 
L 417.491708 233.15676 
L 417.812293 234.991055 
L 418.293171 239.194584 
L 418.453463 240.954007 
L 419.415219 273.214392 
L 420.376975 297.979918 
L 421.338731 316.492292 
L 422.140194 327.920039 
L 422.941657 336.291649 
L 423.582827 341.109878 
L 424.223998 344.493897 
L 424.865168 346.638585 
L 425.346046 347.539862 
L 425.666632 347.841775 
L 425.987217 347.926374 
L 426.307802 347.811246 
L 426.78868 347.300203 
L 427.269558 346.429337 
L 427.910728 344.790936 
L 428.712191 342.11867 
L 429.83424 337.521092 
L 431.597459 329.131059 
L 435.444482 310.454342 
L 437.047408 303.770044 
L 438.490042 298.640471 
L 439.772383 294.864531 
L 440.894431 292.191382 
L 442.016479 290.111958 
L 442.978235 288.797046 
L 443.779698 288.023755 
L 444.581161 287.535528 
L 445.382624 287.323205 
L 446.184088 287.37643 
L 446.985551 287.683907 
L 447.787014 288.233621 
L 448.74877 289.195352 
L 449.710525 290.465517 
L 450.832574 292.306895 
L 452.114915 294.841109 
L 453.557548 298.176238 
L 454.359011 267.813917 
L 455.000182 250.924184 
L 455.641352 239.754285 
L 456.12223 234.699253 
L 456.442816 232.756659 
L 456.763401 231.866397 
L 456.923693 231.793116 
L 457.083986 231.956061 
L 457.404571 232.956987 
L 457.725157 234.804093 
L 458.206034 239.027388 
L 458.366327 240.793539 
L 459.328083 272.910174 
L 460.289839 297.54454 
L 461.091302 313.258305 
L 461.892765 325.267928 
L 462.694228 334.126666 
L 463.495691 340.321813 
L 464.136862 343.649773 
L 464.778032 345.742874 
L 465.25891 346.608304 
L 465.579495 346.887639 
L 465.90008 346.950694 
L 466.220666 346.815036 
L 466.701544 346.27506 
L 467.182421 345.377438 
L 467.823592 343.706646 
L 468.625055 340.998956 
L 469.747103 336.360739 
L 471.510322 327.926276 
L 475.357345 309.222761 
L 476.960272 302.550697 
L 478.402905 297.441696 
L 479.685246 293.690635 
L 480.807295 291.043694 
L 481.76905 289.250506 
L 482.730806 287.892018 
L 483.532269 287.085444 
L 484.333732 286.566886 
L 485.135195 286.327309 
L 485.936659 286.356434 
L 486.738122 286.642997 
L 487.539585 287.174985 
L 488.501341 288.119607 
L 489.463096 289.377107 
L 490.585145 291.209139 
L 491.867486 293.739484 
L 493.310119 297.078366 
L 493.630705 297.883924 
L 494.432168 267.57439 
L 495.073338 250.726304 
L 495.714509 239.597483 
L 496.195387 234.572856 
L 496.515972 232.650329 
L 496.836557 231.779963 
L 496.99685 231.716564 
L 497.157142 231.889347 
L 497.477728 232.90981 
L 497.798313 234.776265 
L 498.279191 239.028217 
L 498.439483 240.803821 
L 499.401239 272.970934 
L 500.362995 297.652682 
L 501.164458 313.403573 
L 501.965921 325.448192 
L 502.767384 334.339819 
L 503.568847 340.565778 
L 504.210018 343.916914 
L 504.851188 346.031905 
L 505.332066 346.912922 
L 505.652651 347.202259 
L 505.973237 347.275007 
L 506.293822 347.148737 
L 506.7747 346.622279 
L 507.255578 345.737508 
L 507.896748 344.082834 
L 508.698211 341.393699 
L 509.82026 336.778593 
L 511.583479 328.374067 
L 515.430502 309.711793 
L 517.033428 303.048467 
L 518.476061 297.943692 
L 519.758402 294.193784 
L 520.880451 291.546038 
L 521.842207 289.750931 
L 522.803962 288.389488 
L 523.605425 287.579722 
L 524.406889 287.057364 
L 525.208352 286.813424 
L 526.009815 286.837669 
L 526.811278 287.11888 
L 527.612741 287.645085 
L 528.574497 288.582256 
L 529.536253 289.83181 
L 530.658301 291.654029 
L 531.940642 294.172559 
L 533.383276 297.497536 
L 533.864153 298.709185 
L 534.665617 268.399002 
L 535.306787 251.550047 
L 535.947958 240.420066 
L 536.428835 235.394387 
L 536.749421 233.471074 
L 537.070006 232.599855 
L 537.230299 232.536005 
L 537.390591 232.70832 
L 537.711176 233.7278 
L 538.031762 235.593206 
L 538.51264 239.843464 
L 538.672932 241.618472 
L 539.634688 273.78656 
L 540.596444 298.467477 
L 541.397907 314.216347 
L 542.19937 326.257784 
L 543.000833 335.14512 
L 543.802296 341.365728 
L 544.443467 344.711858 
L 545.084637 346.821228 
L 545.565515 347.697644 
L 545.8861 347.983736 
L 546.206686 348.053102 
L 546.527271 347.923318 
L 547.008149 347.391346 
L 547.489027 346.500781 
L 548.130197 344.837969 
L 548.93166 342.13804 
L 550.053709 337.506762 
L 551.816927 329.074667 
L 555.66395 310.345546 
L 557.266877 303.652641 
L 558.70951 298.520799 
L 559.991851 294.746665 
L 561.1139 292.077708 
L 562.235948 290.004638 
L 563.197704 288.696707 
L 563.999167 287.930203 
L 564.80063 287.449558 
L 565.602093 287.245535 
L 566.403556 287.307704 
L 567.205019 287.624697 
L 568.006483 288.184435 
L 568.968238 289.158773 
L 569.929994 290.442076 
L 571.052042 292.299325 
L 572.334383 294.852214 
L 573.777017 298.208801 
L 574.257895 299.429381 
L 575.059358 269.109787 
L 575.700529 252.252923 
L 576.341699 241.114734 
L 576.822577 236.082718 
L 577.143162 234.155102 
L 577.463747 233.279519 
L 577.62404 233.213465 
L 577.784333 233.383563 
L 578.104918 234.398566 
L 578.425503 236.259443 
L 578.906381 240.502814 
L 579.066674 242.275502 
L 580.028429 274.442971 
L 580.990185 299.121806 
L 581.791648 314.867879 
L 582.593111 326.905607 
L 583.394575 335.788367 
L 584.196038 342.003582 
L 584.837208 345.344842 
L 585.478379 347.448876 
L 585.959257 348.321 
L 586.279842 348.604097 
L 586.600427 348.670366 
L 586.921012 348.537385 
L 587.40189 348.000437 
L 587.882768 347.104691 
L 588.523939 345.434666 
L 589.325402 342.725264 
L 590.44745 338.079957 
L 592.210669 329.624265 
L 596.057692 310.838997 
L 597.660618 304.121555 
L 599.103252 298.967374 
L 600.385593 295.173319 
L 601.507641 292.486969 
L 602.62969 290.396609 
L 603.591445 289.073985 
L 604.392908 288.295351 
L 605.194372 287.8027 
L 605.995835 287.586813 
L 606.797298 287.637273 
L 607.598761 287.942728 
L 608.400224 288.491111 
L 609.36198 289.45208 
L 610.323736 290.722313 
L 611.445784 292.564713 
L 612.728125 295.101182 
L 613.209003 296.160445 
L 614.010466 265.873668 
L 614.651636 249.045355 
L 615.292807 237.937784 
L 615.773685 232.930098 
L 616.09427 231.019351 
L 616.414855 230.161159 
L 616.575148 230.103995 
L 616.735441 230.283112 
L 617.056026 231.31654 
L 617.376611 233.196355 
L 617.857489 237.469085 
L 618.017782 239.251811 
L 618.979537 271.256844 
L 619.941293 295.79533 
L 620.742756 311.440568 
L 621.544219 323.391461 
L 622.345682 332.200769 
L 623.147146 338.355292 
L 623.788316 341.656766 
L 624.429487 343.728462 
L 624.910364 344.581029 
L 625.23095 344.853253 
L 625.551535 344.910332 
L 625.87212 344.769807 
L 626.352998 344.224546 
L 626.833876 343.323973 
L 627.475046 341.652713 
L 628.27651 338.949711 
L 629.398558 334.327158 
L 631.161777 325.93639 
L 635.0088 307.392254 
L 636.611726 300.805939 
L 638.05436 295.781041 
L 639.336701 292.109019 
L 640.458749 289.533771 
L 641.420505 287.803453 
L 642.382261 286.508792 
L 643.183724 285.75591 
L 643.985187 285.29132 
L 644.78665 285.105831 
L 645.588113 285.189012 
L 646.389576 285.529465 
L 647.191039 286.115048 
L 648.152795 287.123426 
L 649.274843 288.692702 
L 650.396892 290.650187 
L 651.679233 293.315601 
L 653.282159 297.210663 
L 653.92333 298.922786 
L 654.724793 268.661944 
L 655.365963 251.850938 
L 656.007134 240.757538 
L 656.488012 235.758388 
L 656.808597 233.852326 
L 657.129182 232.998008 
L 657.289475 232.942477 
L 657.449767 233.123024 
L 657.770353 234.158702 
L 658.090938 236.039954 
L 658.571816 240.31332 
L 658.732108 242.095854 
L 659.693864 274.364208 
L 660.65562 299.136847 
L 661.617376 317.655249 
L 662.418839 329.087067 
L 663.220302 337.461803 
L 663.861472 342.281813 
L 664.502643 345.666956 
L 665.143813 347.812094 
L 665.624691 348.713262 
L 665.945276 349.01489 
L 666.265862 349.099033 
L 666.586447 348.983279 
L 667.067325 348.47098 
L 667.548203 347.598478 
L 668.189373 345.957315 
L 668.990836 343.280678 
L 670.112885 338.675325 
L 671.876104 330.269399 
L 675.883419 310.832339 
L 677.486345 304.219461 
L 678.928979 299.166547 
L 680.21132 295.463452 
L 681.333368 292.854993 
L 682.295124 291.091249 
L 683.25688 289.758374 
L 684.058343 288.969947 
L 684.859806 288.466475 
L 685.661269 288.238834 
L 686.462732 288.276703 
L 687.264196 288.568819 
L 688.065659 289.103199 
L 689.027414 290.046605 
L 689.98917 291.298568 
L 691.111219 293.118927 
L 692.39356 295.629471 
L 693.836193 298.938516 
L 694.156778 299.736437 
L 694.958242 269.412062 
L 695.599412 252.551558 
L 696.240583 241.409933 
L 696.72146 236.375495 
L 697.042046 234.446341 
L 697.362631 233.569287 
L 697.522924 233.502523 
L 697.683216 233.671928 
L 698.003801 234.685596 
L 698.324387 236.54521 
L 698.805265 240.78682 
L 698.965557 242.558957 
L 699.927313 274.674765 
L 700.889069 299.30567 
L 701.690532 315.014536 
L 702.491995 327.017443 
L 703.293458 335.867681 
L 704.094921 342.052587 
L 704.736092 345.371134 
L 705.377262 347.453773 
L 705.85814 348.310689 
L 706.178725 348.584037 
L 706.499311 348.640863 
L 706.819896 348.498739 
L 707.300774 347.94863 
L 707.781652 347.040369 
L 708.422822 345.354634 
L 709.224285 342.627113 
L 710.346334 337.95913 
L 712.109552 329.473707 
L 715.956575 310.64533 
L 717.559502 303.917407 
L 719.002135 298.756967 
L 720.284476 294.959599 
L 721.406525 292.271913 
L 722.528573 290.181534 
L 723.490329 288.859841 
L 724.291792 288.082594 
L 725.093255 287.59184 
L 725.894718 287.378316 
L 726.696181 287.431569 
L 727.497644 287.740207 
L 728.299108 288.292127 
L 729.260863 289.257762 
L 730.222619 290.533065 
L 731.344667 292.381819 
L 732.627008 294.926034 
L 734.069642 298.274081 
L 734.871105 267.976649 
L 735.512276 251.137975 
L 736.153446 240.018417 
L 736.634324 235.000678 
L 736.954909 233.082726 
L 737.275495 232.216929 
L 737.435787 232.155812 
L 737.59608 232.330878 
L 737.916665 233.355905 
L 738.23725 235.226927 
L 738.718128 239.485737 
L 738.878421 241.263629 
L 739.840177 273.378364 
L 740.801932 298.012166 
L 741.603395 313.7263 
L 742.404859 325.736915 
L 743.206322 334.597152 
L 744.007785 340.794198 
L 744.648955 344.123902 
L 745.290126 346.218898 
L 745.771004 347.085826 
L 746.091589 347.366187 
L 746.412174 347.430284 
L 746.732759 347.295682 
L 747.213637 346.757305 
L 747.694515 345.861289 
L 748.335686 344.192631 
L 749.137149 341.487563 
L 750.259197 336.852855 
L 752.022416 328.423324 
L 755.869439 309.727013 
L 757.472365 303.056238 
L 758.914999 297.947478 
L 760.19734 294.195897 
L 761.319388 291.547943 
L 762.281144 289.753479 
L 763.2429 288.393351 
L 764.044363 287.585138 
L 764.845826 287.064703 
L 765.647289 286.823016 
L 766.448752 286.849807 
L 767.250215 287.133821 
L 768.051679 287.663053 
L 769.013434 288.604107 
L 769.97519 289.857768 
L 771.097238 291.685001 
L 772.379579 294.209468 
L 773.822213 297.54128 
L 774.623676 267.263936 
L 775.264847 250.441551 
L 775.906017 239.338447 
L 776.386895 234.333141 
L 776.70748 232.423518 
L 777.028066 231.566077 
L 777.188358 231.509149 
L 777.348651 231.688408 
L 777.669236 232.721841 
L 777.989821 234.601289 
L 778.470699 238.872774 
L 778.630992 240.654899 
L 779.592748 272.776017 
L 780.554503 297.417465 
L 781.355966 313.138846 
L 782.15743 325.157432 
L 782.958893 334.026298 
L 783.760356 340.232571 
L 784.401526 343.570046 
L 785.042697 345.673129 
L 785.523575 346.546313 
L 785.84416 346.830929 
L 786.164745 346.899344 
L 786.48533 346.769121 
L 786.966208 346.237418 
L 787.447086 345.348197 
L 788.088257 343.688764 
L 788.88972 340.995466 
L 790.011768 336.377605 
L 791.774987 327.97518 
L 795.62201 309.339112 
L 797.224936 302.693304 
L 798.66757 297.606715 
L 799.949911 293.874509 
L 801.071959 291.243193 
L 802.033715 289.462726 
L 802.995471 288.116324 
L 803.796934 287.31933 
L 804.598397 286.809902 
L 805.39986 286.579003 
L 806.201323 286.616353 
L 807.002786 286.91069 
L 807.80425 287.450004 
L 808.766005 288.40283 
L 809.727761 289.667899 
L 810.849809 291.507976 
L 812.13215 294.046497 
L 813.414491 296.997987 
L 814.215955 266.738003 
L 814.857125 249.929774 
L 815.498296 238.841038 
L 815.979173 233.846634 
L 816.299759 231.944333 
L 816.620344 231.094254 
L 816.780637 231.041021 
L 816.940929 231.223986 
L 817.261514 232.264855 
L 817.5821 234.151772 
L 818.062978 238.434515 
L 818.22327 240.220408 
L 819.185026 272.332655 
L 820.146782 296.967282 
L 820.948245 312.684446 
L 821.749708 324.700066 
L 822.551171 333.567145 
L 823.352634 339.772739 
L 823.993805 343.110421 
L 824.634975 345.214342 
L 825.115853 346.088548 
L 825.436438 346.374024 
L 825.757024 346.44344 
L 826.077609 346.314351 
L 826.558487 345.784596 
L 827.039365 344.897604 
L 827.680535 343.24156 
L 828.481998 340.553128 
L 829.604047 335.943156 
L 831.367265 327.55535 
L 835.214288 308.958372 
L 836.817215 302.330901 
L 838.259848 297.261483 
L 839.542189 293.54491 
L 840.664238 290.927462 
L 841.625993 289.158959 
L 842.587749 287.824551 
L 843.389212 287.037543 
L 844.190675 286.538071 
L 844.992139 286.317078 
L 845.793602 286.364264 
L 846.595065 286.668351 
L 847.396528 287.217312 
L 848.358284 288.181558 
L 849.320039 289.457855 
L 850.442088 291.310757 
L 851.724429 293.863543 
L 853.167062 297.225864 
L 854.609696 301.035488 
L 855.411159 270.732267 
L 856.05233 253.886555 
L 856.6935 242.757812 
L 857.174378 237.731776 
L 857.494963 235.807623 
L 857.815549 234.93509 
L 857.975841 234.870407 
L 858.136134 235.041773 
L 858.456719 236.059007 
L 858.777304 237.92171 
L 859.258182 242.167071 
L 859.418475 243.940224 
L 860.380231 276.201999 
L 861.341986 300.963256 
L 862.143449 316.769261 
L 862.944913 328.859259 
L 863.746376 337.786918 
L 864.547839 344.039958 
L 865.189009 347.40659 
L 865.83018 349.531823 
L 866.311058 350.417204 
L 866.631643 350.707919 
L 866.952228 350.780852 
L 867.272813 350.653602 
L 867.753691 350.123546 
L 868.234569 349.232706 
L 868.87574 347.566249 
L 869.677203 344.856753 
L 870.799251 340.203359 
L 872.56247 331.718028 
L 876.569786 312.08952 
L 878.172712 305.398266 
L 879.615346 300.274923 
L 880.897687 296.50972 
L 882.019735 293.84755 
L 883.141783 291.779012 
L 884.103539 290.472498 
L 884.905002 289.705128 
L 885.706465 289.22159 
L 886.507928 289.012539 
L 887.309392 289.067487 
L 888.110855 289.375045 
L 888.912318 289.92314 
L 889.874074 290.880647 
L 890.835829 292.144097 
L 891.957878 293.974552 
L 893.240219 296.492355 
L 894.362267 299.02803 
L 895.16373 268.692255 
L 895.804901 251.823458 
L 896.446071 240.674323 
L 896.926949 235.634787 
L 897.247534 233.702496 
L 897.56812 232.822517 
L 897.728412 232.754372 
L 897.888705 232.922449 
L 898.20929 233.933625 
L 898.529875 235.790965 
L 899.010753 240.029576 
L 899.171046 241.800823 
L 900.132802 273.840173 
L 901.094557 298.403019 
L 901.89602 314.061353 
L 902.697484 326.01914 
L 903.498947 334.829466 
L 904.30041 340.979458 
L 904.94158 344.27353 
L 905.582751 346.334645 
L 906.063629 347.177289 
L 906.384214 347.441988 
L 906.704799 347.490839 
L 907.025384 347.341402 
L 907.506262 346.781533 
L 907.98714 345.864923 
L 908.628311 344.170171 
L 909.429774 341.434621 
L 910.551822 336.761078 
L 912.315041 328.279057 
L 916.162064 309.500492 
L 917.76499 302.806822 
L 919.207624 297.682398 
L 920.489965 293.920454 
L 921.612013 291.265936 
L 922.573769 289.467553 
L 923.535525 288.104959 
L 924.336988 287.29572 
L 925.138451 286.775127 
L 925.939914 286.534092 
L 926.741377 286.562283 
L 927.54284 286.848393 
L 928.344304 287.38036 
L 929.306059 288.325468 
L 930.267815 289.583944 
L 931.389863 291.417648 
L 932.672204 293.950487 
L 933.794253 296.508574 
L 933.954545 289.562688 
L 933.954545 289.562688 
" clip-path="url(#p186ded6a4a)" style="fill: none; stroke: #1f77b4; stroke-width: 1.5; stroke-linecap: square"/>
   </g>
   <g id="line2d_13">
    <path d="M 173.045455 78.12 
L 177.693941 78.12 
L 177.854233 430.92 
L 213.278903 430.92 
L 213.439196 78.12 
L 218.087682 78.12 
L 218.247975 430.92 
L 253.99323 430.92 
L 254.153523 78.12 
L 258.802009 78.12 
L 258.962302 430.92 
L 293.585509 430.92 
L 293.745801 78.12 
L 298.394287 78.12 
L 298.55458 430.92 
L 333.818957 430.92 
L 333.97925 78.12 
L 338.627736 78.12 
L 338.788029 430.92 
L 373.090651 430.92 
L 373.250943 78.12 
L 377.899429 78.12 
L 378.059722 430.92 
L 413.644685 430.92 
L 413.804977 78.12 
L 418.453463 78.12 
L 418.613756 430.92 
L 453.557548 430.92 
L 453.717841 78.12 
L 458.366327 78.12 
L 458.52662 430.92 
L 493.630705 430.92 
L 493.790997 78.12 
L 498.439483 78.12 
L 498.599776 430.92 
L 533.864153 430.92 
L 534.024446 78.12 
L 538.672932 78.12 
L 538.833225 430.92 
L 574.257895 430.92 
L 574.418188 78.12 
L 579.066674 78.12 
L 579.226966 430.92 
L 613.209003 430.92 
L 613.369295 78.12 
L 618.017782 78.12 
L 618.178074 430.92 
L 653.92333 430.92 
L 654.083622 78.12 
L 658.732108 78.12 
L 658.892401 430.92 
L 694.156778 430.92 
L 694.317071 78.12 
L 698.965557 78.12 
L 699.12585 430.92 
L 734.069642 430.92 
L 734.229935 78.12 
L 738.878421 78.12 
L 739.038713 430.92 
L 773.822213 430.92 
L 773.982506 78.12 
L 778.630992 78.12 
L 778.791284 430.92 
L 813.414491 430.92 
L 813.574784 78.12 
L 818.22327 78.12 
L 818.383563 430.92 
L 854.609696 430.92 
L 854.769989 78.12 
L 859.418475 78.12 
L 859.578767 430.92 
L 894.362267 430.92 
L 894.52256 78.12 
L 899.171046 78.12 
L 899.331338 430.92 
L 933.794253 430.92 
L 933.954545 78.12 
L 933.954545 78.12 
" clip-path="url(#p186ded6a4a)" style="fill: none; stroke: #ff7f0e; stroke-width: 1.5; stroke-linecap: square"/>
   </g>
   <g id="line2d_14">
    <path d="M 929.466352 430.92 
" clip-path="url(#p186ded6a4a)" style="fill: none; stroke: #000000; stroke-width: 1.5; stroke-linecap: square"/>
    <defs>
     <path id="m0f0686e553" d="M 0 1 
C 0.265203 1 0.51958 0.894634 0.707107 0.707107 
C 0.894634 0.51958 1 0.265203 1 0 
C 1 -0.265203 0.894634 -0.51958 0.707107 -0.707107 
C 0.51958 -0.894634 0.265203 -1 0 -1 
C -0.265203 -1 -0.51958 -0.894634 -0.707107 -0.707107 
C -0.894634 -0.51958 -1 -0.265203 -1 0 
C -1 0.265203 -0.894634 0.51958 -0.707107 0.707107 
C -0.51958 0.894634 -0.265203 1 0 1 
z
" style="stroke: #000000"/>
    </defs>
    <g clip-path="url(#p186ded6a4a)">
     <use xlink:href="#m0f0686e553" x="173.045455" y="78.12" style="stroke: #000000"/>
     <use xlink:href="#m0f0686e553" x="178.174819" y="430.92" style="stroke: #000000"/>
     <use xlink:href="#m0f0686e553" x="183.14389" y="430.92" style="stroke: #000000"/>
     <use xlink:href="#m0f0686e553" x="188.112961" y="78.12" style="stroke: #000000"/>
     <use xlink:href="#m0f0686e553" x="193.082033" y="430.92" style="stroke: #000000"/>
     <use xlink:href="#m0f0686e553" x="198.211397" y="430.92" style="stroke: #000000"/>
     <use xlink:href="#m0f0686e553" x="203.180468" y="78.12" style="stroke: #000000"/>
     <use xlink:href="#m0f0686e553" x="208.149539" y="430.92" style="stroke: #000000"/>
     <use xlink:href="#m0f0686e553" x="213.118611" y="78.12" style="stroke: #000000"/>
     <use xlink:href="#m0f0686e553" x="218.247975" y="430.92" style="stroke: #000000"/>
     <use xlink:href="#m0f0686e553" x="223.217046" y="430.92" style="stroke: #000000"/>
     <use xlink:href="#m0f0686e553" x="228.186118" y="78.12" style="stroke: #000000"/>
     <use xlink:href="#m0f0686e553" x="233.155189" y="430.92" style="stroke: #000000"/>
     <use xlink:href="#m0f0686e553" x="238.284553" y="430.92" style="stroke: #000000"/>
     <use xlink:href="#m0f0686e553" x="243.253624" y="78.12" style="stroke: #000000"/>
     <use xlink:href="#m0f0686e553" x="248.222696" y="430.92" style="stroke: #000000"/>
     <use xlink:href="#m0f0686e553" x="253.191767" y="78.12" style="stroke: #000000"/>
     <use xlink:href="#m0f0686e553" x="258.321131" y="430.92" style="stroke: #000000"/>
     <use xlink:href="#m0f0686e553" x="263.290202" y="430.92" style="stroke: #000000"/>
     <use xlink:href="#m0f0686e553" x="268.259274" y="78.12" style="stroke: #000000"/>
     <use xlink:href="#m0f0686e553" x="273.228345" y="430.92" style="stroke: #000000"/>
     <use xlink:href="#m0f0686e553" x="278.357709" y="430.92" style="stroke: #000000"/>
     <use xlink:href="#m0f0686e553" x="283.326781" y="78.12" style="stroke: #000000"/>
     <use xlink:href="#m0f0686e553" x="288.295852" y="430.92" style="stroke: #000000"/>
     <use xlink:href="#m0f0686e553" x="293.264923" y="78.12" style="stroke: #000000"/>
     <use xlink:href="#m0f0686e553" x="298.394287" y="430.92" style="stroke: #000000"/>
     <use xlink:href="#m0f0686e553" x="303.363359" y="430.92" style="stroke: #000000"/>
     <use xlink:href="#m0f0686e553" x="308.33243" y="78.12" style="stroke: #000000"/>
     <use xlink:href="#m0f0686e553" x="313.301501" y="430.92" style="stroke: #000000"/>
     <use xlink:href="#m0f0686e553" x="318.430865" y="430.92" style="stroke: #000000"/>
     <use xlink:href="#m0f0686e553" x="323.399937" y="78.12" style="stroke: #000000"/>
     <use xlink:href="#m0f0686e553" x="328.369008" y="430.92" style="stroke: #000000"/>
     <use xlink:href="#m0f0686e553" x="333.33808" y="78.12" style="stroke: #000000"/>
     <use xlink:href="#m0f0686e553" x="338.467444" y="430.92" style="stroke: #000000"/>
     <use xlink:href="#m0f0686e553" x="343.436515" y="430.92" style="stroke: #000000"/>
     <use xlink:href="#m0f0686e553" x="348.405586" y="78.12" style="stroke: #000000"/>
     <use xlink:href="#m0f0686e553" x="353.374658" y="430.92" style="stroke: #000000"/>
     <use xlink:href="#m0f0686e553" x="358.504022" y="430.92" style="stroke: #000000"/>
     <use xlink:href="#m0f0686e553" x="363.473093" y="78.12" style="stroke: #000000"/>
     <use xlink:href="#m0f0686e553" x="368.442164" y="430.92" style="stroke: #000000"/>
     <use xlink:href="#m0f0686e553" x="373.411236" y="78.12" style="stroke: #000000"/>
     <use xlink:href="#m0f0686e553" x="378.5406" y="430.92" style="stroke: #000000"/>
     <use xlink:href="#m0f0686e553" x="383.509671" y="430.92" style="stroke: #000000"/>
     <use xlink:href="#m0f0686e553" x="388.478743" y="78.12" style="stroke: #000000"/>
     <use xlink:href="#m0f0686e553" x="393.447814" y="430.92" style="stroke: #000000"/>
     <use xlink:href="#m0f0686e553" x="398.577178" y="430.92" style="stroke: #000000"/>
     <use xlink:href="#m0f0686e553" x="403.546249" y="78.12" style="stroke: #000000"/>
     <use xlink:href="#m0f0686e553" x="408.515321" y="430.92" style="stroke: #000000"/>
     <use xlink:href="#m0f0686e553" x="413.484392" y="78.12" style="stroke: #000000"/>
     <use xlink:href="#m0f0686e553" x="418.613756" y="430.92" style="stroke: #000000"/>
     <use xlink:href="#m0f0686e553" x="423.582827" y="430.92" style="stroke: #000000"/>
     <use xlink:href="#m0f0686e553" x="428.551899" y="78.12" style="stroke: #000000"/>
     <use xlink:href="#m0f0686e553" x="433.52097" y="430.92" style="stroke: #000000"/>
     <use xlink:href="#m0f0686e553" x="438.650334" y="430.92" style="stroke: #000000"/>
     <use xlink:href="#m0f0686e553" x="443.619406" y="78.12" style="stroke: #000000"/>
     <use xlink:href="#m0f0686e553" x="448.588477" y="430.92" style="stroke: #000000"/>
     <use xlink:href="#m0f0686e553" x="453.557548" y="78.12" style="stroke: #000000"/>
     <use xlink:href="#m0f0686e553" x="458.686912" y="430.92" style="stroke: #000000"/>
     <use xlink:href="#m0f0686e553" x="463.655984" y="430.92" style="stroke: #000000"/>
     <use xlink:href="#m0f0686e553" x="468.625055" y="78.12" style="stroke: #000000"/>
     <use xlink:href="#m0f0686e553" x="473.594126" y="430.92" style="stroke: #000000"/>
     <use xlink:href="#m0f0686e553" x="478.72349" y="430.92" style="stroke: #000000"/>
     <use xlink:href="#m0f0686e553" x="483.692562" y="78.12" style="stroke: #000000"/>
     <use xlink:href="#m0f0686e553" x="488.661633" y="430.92" style="stroke: #000000"/>
     <use xlink:href="#m0f0686e553" x="493.630705" y="78.12" style="stroke: #000000"/>
     <use xlink:href="#m0f0686e553" x="498.760069" y="430.92" style="stroke: #000000"/>
     <use xlink:href="#m0f0686e553" x="503.72914" y="430.92" style="stroke: #000000"/>
     <use xlink:href="#m0f0686e553" x="508.698211" y="78.12" style="stroke: #000000"/>
     <use xlink:href="#m0f0686e553" x="513.667283" y="430.92" style="stroke: #000000"/>
     <use xlink:href="#m0f0686e553" x="518.796647" y="430.92" style="stroke: #000000"/>
     <use xlink:href="#m0f0686e553" x="523.765718" y="78.12" style="stroke: #000000"/>
     <use xlink:href="#m0f0686e553" x="528.734789" y="430.92" style="stroke: #000000"/>
     <use xlink:href="#m0f0686e553" x="533.703861" y="78.12" style="stroke: #000000"/>
     <use xlink:href="#m0f0686e553" x="538.833225" y="430.92" style="stroke: #000000"/>
     <use xlink:href="#m0f0686e553" x="543.802296" y="430.92" style="stroke: #000000"/>
     <use xlink:href="#m0f0686e553" x="548.771368" y="78.12" style="stroke: #000000"/>
     <use xlink:href="#m0f0686e553" x="553.740439" y="430.92" style="stroke: #000000"/>
     <use xlink:href="#m0f0686e553" x="558.869803" y="430.92" style="stroke: #000000"/>
     <use xlink:href="#m0f0686e553" x="563.838874" y="78.12" style="stroke: #000000"/>
     <use xlink:href="#m0f0686e553" x="568.807946" y="430.92" style="stroke: #000000"/>
     <use xlink:href="#m0f0686e553" x="573.777017" y="78.12" style="stroke: #000000"/>
     <use xlink:href="#m0f0686e553" x="578.906381" y="430.92" style="stroke: #000000"/>
     <use xlink:href="#m0f0686e553" x="583.875452" y="430.92" style="stroke: #000000"/>
     <use xlink:href="#m0f0686e553" x="588.844524" y="78.12" style="stroke: #000000"/>
     <use xlink:href="#m0f0686e553" x="593.813595" y="430.92" style="stroke: #000000"/>
     <use xlink:href="#m0f0686e553" x="598.942959" y="430.92" style="stroke: #000000"/>
     <use xlink:href="#m0f0686e553" x="603.912031" y="78.12" style="stroke: #000000"/>
     <use xlink:href="#m0f0686e553" x="608.881102" y="430.92" style="stroke: #000000"/>
     <use xlink:href="#m0f0686e553" x="613.850173" y="78.12" style="stroke: #000000"/>
     <use xlink:href="#m0f0686e553" x="618.979537" y="430.92" style="stroke: #000000"/>
     <use xlink:href="#m0f0686e553" x="623.948609" y="430.92" style="stroke: #000000"/>
     <use xlink:href="#m0f0686e553" x="628.91768" y="78.12" style="stroke: #000000"/>
     <use xlink:href="#m0f0686e553" x="633.886751" y="430.92" style="stroke: #000000"/>
     <use xlink:href="#m0f0686e553" x="639.016115" y="430.92" style="stroke: #000000"/>
     <use xlink:href="#m0f0686e553" x="643.985187" y="78.12" style="stroke: #000000"/>
     <use xlink:href="#m0f0686e553" x="648.954258" y="430.92" style="stroke: #000000"/>
     <use xlink:href="#m0f0686e553" x="653.92333" y="78.12" style="stroke: #000000"/>
     <use xlink:href="#m0f0686e553" x="659.052694" y="430.92" style="stroke: #000000"/>
     <use xlink:href="#m0f0686e553" x="664.021765" y="430.92" style="stroke: #000000"/>
     <use xlink:href="#m0f0686e553" x="668.990836" y="78.12" style="stroke: #000000"/>
     <use xlink:href="#m0f0686e553" x="673.959908" y="430.92" style="stroke: #000000"/>
     <use xlink:href="#m0f0686e553" x="679.089272" y="430.92" style="stroke: #000000"/>
     <use xlink:href="#m0f0686e553" x="684.058343" y="78.12" style="stroke: #000000"/>
     <use xlink:href="#m0f0686e553" x="689.027414" y="430.92" style="stroke: #000000"/>
     <use xlink:href="#m0f0686e553" x="693.996486" y="78.12" style="stroke: #000000"/>
     <use xlink:href="#m0f0686e553" x="699.12585" y="430.92" style="stroke: #000000"/>
     <use xlink:href="#m0f0686e553" x="704.094921" y="430.92" style="stroke: #000000"/>
     <use xlink:href="#m0f0686e553" x="709.063993" y="78.12" style="stroke: #000000"/>
     <use xlink:href="#m0f0686e553" x="714.033064" y="430.92" style="stroke: #000000"/>
     <use xlink:href="#m0f0686e553" x="719.162428" y="430.92" style="stroke: #000000"/>
     <use xlink:href="#m0f0686e553" x="724.131499" y="78.12" style="stroke: #000000"/>
     <use xlink:href="#m0f0686e553" x="729.100571" y="430.92" style="stroke: #000000"/>
     <use xlink:href="#m0f0686e553" x="734.069642" y="78.12" style="stroke: #000000"/>
     <use xlink:href="#m0f0686e553" x="739.199006" y="430.92" style="stroke: #000000"/>
     <use xlink:href="#m0f0686e553" x="744.168077" y="430.92" style="stroke: #000000"/>
     <use xlink:href="#m0f0686e553" x="749.137149" y="78.12" style="stroke: #000000"/>
     <use xlink:href="#m0f0686e553" x="754.10622" y="430.92" style="stroke: #000000"/>
     <use xlink:href="#m0f0686e553" x="759.235584" y="430.92" style="stroke: #000000"/>
     <use xlink:href="#m0f0686e553" x="764.204656" y="78.12" style="stroke: #000000"/>
     <use xlink:href="#m0f0686e553" x="769.173727" y="430.92" style="stroke: #000000"/>
     <use xlink:href="#m0f0686e553" x="774.142798" y="78.12" style="stroke: #000000"/>
     <use xlink:href="#m0f0686e553" x="779.272162" y="430.92" style="stroke: #000000"/>
     <use xlink:href="#m0f0686e553" x="784.241234" y="430.92" style="stroke: #000000"/>
     <use xlink:href="#m0f0686e553" x="789.210305" y="78.12" style="stroke: #000000"/>
     <use xlink:href="#m0f0686e553" x="794.179376" y="430.92" style="stroke: #000000"/>
     <use xlink:href="#m0f0686e553" x="799.30874" y="430.92" style="stroke: #000000"/>
     <use xlink:href="#m0f0686e553" x="804.277812" y="78.12" style="stroke: #000000"/>
     <use xlink:href="#m0f0686e553" x="809.246883" y="430.92" style="stroke: #000000"/>
     <use xlink:href="#m0f0686e553" x="814.215955" y="78.12" style="stroke: #000000"/>
     <use xlink:href="#m0f0686e553" x="819.345319" y="430.92" style="stroke: #000000"/>
     <use xlink:href="#m0f0686e553" x="824.31439" y="430.92" style="stroke: #000000"/>
     <use xlink:href="#m0f0686e553" x="829.283461" y="78.12" style="stroke: #000000"/>
     <use xlink:href="#m0f0686e553" x="834.252533" y="430.92" style="stroke: #000000"/>
     <use xlink:href="#m0f0686e553" x="839.381897" y="430.92" style="stroke: #000000"/>
     <use xlink:href="#m0f0686e553" x="844.350968" y="78.12" style="stroke: #000000"/>
     <use xlink:href="#m0f0686e553" x="849.320039" y="430.92" style="stroke: #000000"/>
     <use xlink:href="#m0f0686e553" x="854.289111" y="78.12" style="stroke: #000000"/>
     <use xlink:href="#m0f0686e553" x="859.418475" y="430.92" style="stroke: #000000"/>
     <use xlink:href="#m0f0686e553" x="864.387546" y="430.92" style="stroke: #000000"/>
     <use xlink:href="#m0f0686e553" x="869.356618" y="78.12" style="stroke: #000000"/>
     <use xlink:href="#m0f0686e553" x="874.325689" y="430.92" style="stroke: #000000"/>
     <use xlink:href="#m0f0686e553" x="879.455053" y="430.92" style="stroke: #000000"/>
     <use xlink:href="#m0f0686e553" x="884.424124" y="78.12" style="stroke: #000000"/>
     <use xlink:href="#m0f0686e553" x="889.393196" y="430.92" style="stroke: #000000"/>
     <use xlink:href="#m0f0686e553" x="894.362267" y="78.12" style="stroke: #000000"/>
     <use xlink:href="#m0f0686e553" x="899.491631" y="430.92" style="stroke: #000000"/>
     <use xlink:href="#m0f0686e553" x="904.460702" y="430.92" style="stroke: #000000"/>
     <use xlink:href="#m0f0686e553" x="909.429774" y="78.12" style="stroke: #000000"/>
     <use xlink:href="#m0f0686e553" x="914.398845" y="430.92" style="stroke: #000000"/>
     <use xlink:href="#m0f0686e553" x="919.528209" y="430.92" style="stroke: #000000"/>
     <use xlink:href="#m0f0686e553" x="924.497281" y="78.12" style="stroke: #000000"/>
     <use xlink:href="#m0f0686e553" x="929.466352" y="430.92" style="stroke: #000000"/>
    </g>
   </g>
   <g id="patch_3">
    <path d="M 135 448.56 
L 135 60.48 
" style="fill: none; stroke: #000000; stroke-width: 0.8; stroke-linejoin: miter; stroke-linecap: square"/>
   </g>
   <g id="patch_4">
    <path d="M 972 448.56 
L 972 60.48 
" style="fill: none; stroke: #000000; stroke-width: 0.8; stroke-linejoin: miter; stroke-linecap: square"/>
   </g>
   <g id="patch_5">
    <path d="M 135 448.56 
L 972 448.56 
" style="fill: none; stroke: #000000; stroke-width: 0.8; stroke-linejoin: miter; stroke-linecap: square"/>
   </g>
   <g id="patch_6">
    <path d="M 135 60.48 
L 972 60.48 
" style="fill: none; stroke: #000000; stroke-width: 0.8; stroke-linejoin: miter; stroke-linecap: square"/>
   </g>
   <g id="legend_1">
    <g id="patch_7">
     <path d="M 142 278.315313 
L 211.084375 278.315313 
Q 213.084375 278.315313 213.084375 276.315313 
L 213.084375 232.724688 
Q 213.084375 230.724688 211.084375 230.724688 
L 142 230.724688 
Q 140 230.724688 140 232.724688 
L 140 276.315313 
Q 140 278.315313 142 278.315313 
z
" style="fill: #ffffff; opacity: 0.8; stroke: #cccccc; stroke-linejoin: miter"/>
    </g>
    <g id="line2d_15">
     <path d="M 144 238.823125 
L 154 238.823125 
L 164 238.823125 
" style="fill: none; stroke: #1f77b4; stroke-width: 1.5; stroke-linecap: square"/>
    </g>
    <g id="text_13">
     <!-- nw_0 -->
     <g transform="translate(172 242.323125) scale(0.1 -0.1)">
      <defs>
       <path id="DejaVuSans-6e" d="M 3513 2113 
L 3513 0 
L 2938 0 
L 2938 2094 
Q 2938 2591 2744 2837 
Q 2550 3084 2163 3084 
Q 1697 3084 1428 2787 
Q 1159 2491 1159 1978 
L 1159 0 
L 581 0 
L 581 3500 
L 1159 3500 
L 1159 2956 
Q 1366 3272 1645 3428 
Q 1925 3584 2291 3584 
Q 2894 3584 3203 3211 
Q 3513 2838 3513 2113 
z
" transform="scale(0.015625)"/>
       <path id="DejaVuSans-77" d="M 269 3500 
L 844 3500 
L 1563 769 
L 2278 3500 
L 2956 3500 
L 3675 769 
L 4391 3500 
L 4966 3500 
L 4050 0 
L 3372 0 
L 2619 2869 
L 1863 0 
L 1184 0 
L 269 3500 
z
" transform="scale(0.015625)"/>
       <path id="DejaVuSans-5f" d="M 3263 -1063 
L 3263 -1509 
L -63 -1509 
L -63 -1063 
L 3263 -1063 
z
" transform="scale(0.015625)"/>
      </defs>
      <use xlink:href="#DejaVuSans-6e"/>
      <use xlink:href="#DejaVuSans-77" x="63.378906"/>
      <use xlink:href="#DejaVuSans-5f" x="145.166016"/>
      <use xlink:href="#DejaVuSans-30" x="195.166016"/>
     </g>
    </g>
    <g id="line2d_16">
     <path d="M 144 253.779375 
L 154 253.779375 
L 164 253.779375 
" style="fill: none; stroke: #ff7f0e; stroke-width: 1.5; stroke-linecap: square"/>
    </g>
    <g id="text_14">
     <!-- input_0 -->
     <g transform="translate(172 257.279375) scale(0.1 -0.1)">
      <defs>
       <path id="DejaVuSans-69" d="M 603 3500 
L 1178 3500 
L 1178 0 
L 603 0 
L 603 3500 
z
M 603 4863 
L 1178 4863 
L 1178 4134 
L 603 4134 
L 603 4863 
z
" transform="scale(0.015625)"/>
       <path id="DejaVuSans-70" d="M 1159 525 
L 1159 -1331 
L 581 -1331 
L 581 3500 
L 1159 3500 
L 1159 2969 
Q 1341 3281 1617 3432 
Q 1894 3584 2278 3584 
Q 2916 3584 3314 3078 
Q 3713 2572 3713 1747 
Q 3713 922 3314 415 
Q 2916 -91 2278 -91 
Q 1894 -91 1617 61 
Q 1341 213 1159 525 
z
M 3116 1747 
Q 3116 2381 2855 2742 
Q 2594 3103 2138 3103 
Q 1681 3103 1420 2742 
Q 1159 2381 1159 1747 
Q 1159 1113 1420 752 
Q 1681 391 2138 391 
Q 2594 391 2855 752 
Q 3116 1113 3116 1747 
z
" transform="scale(0.015625)"/>
       <path id="DejaVuSans-75" d="M 544 1381 
L 544 3500 
L 1119 3500 
L 1119 1403 
Q 1119 906 1312 657 
Q 1506 409 1894 409 
Q 2359 409 2629 706 
Q 2900 1003 2900 1516 
L 2900 3500 
L 3475 3500 
L 3475 0 
L 2900 0 
L 2900 538 
Q 2691 219 2414 64 
Q 2138 -91 1772 -91 
Q 1169 -91 856 284 
Q 544 659 544 1381 
z
M 1991 3584 
L 1991 3584 
z
" transform="scale(0.015625)"/>
      </defs>
      <use xlink:href="#DejaVuSans-69"/>
      <use xlink:href="#DejaVuSans-6e" x="27.783203"/>
      <use xlink:href="#DejaVuSans-70" x="91.162109"/>
      <use xlink:href="#DejaVuSans-75" x="154.638672"/>
      <use xlink:href="#DejaVuSans-74" x="218.017578"/>
      <use xlink:href="#DejaVuSans-5f" x="257.226562"/>
      <use xlink:href="#DejaVuSans-30" x="307.226562"/>
     </g>
    </g>
    <g id="line2d_17">
     <path d="M 144 268.735625 
L 154 268.735625 
L 164 268.735625 
" style="fill: none; stroke: #000000; stroke-width: 1.5; stroke-linecap: square"/>
     <g>
      <use xlink:href="#m0f0686e553" x="154" y="268.735625" style="stroke: #000000"/>
     </g>
    </g>
    <g id="text_15">
     <!-- target -->
     <g transform="translate(172 272.235625) scale(0.1 -0.1)">
      <defs>
       <path id="DejaVuSans-61" d="M 2194 1759 
Q 1497 1759 1228 1600 
Q 959 1441 959 1056 
Q 959 750 1161 570 
Q 1363 391 1709 391 
Q 2188 391 2477 730 
Q 2766 1069 2766 1631 
L 2766 1759 
L 2194 1759 
z
M 3341 1997 
L 3341 0 
L 2766 0 
L 2766 531 
Q 2569 213 2275 61 
Q 1981 -91 1556 -91 
Q 1019 -91 701 211 
Q 384 513 384 1019 
Q 384 1609 779 1909 
Q 1175 2209 1959 2209 
L 2766 2209 
L 2766 2266 
Q 2766 2663 2505 2880 
Q 2244 3097 1772 3097 
Q 1472 3097 1187 3025 
Q 903 2953 641 2809 
L 641 3341 
Q 956 3463 1253 3523 
Q 1550 3584 1831 3584 
Q 2591 3584 2966 3190 
Q 3341 2797 3341 1997 
z
" transform="scale(0.015625)"/>
       <path id="DejaVuSans-72" d="M 2631 2963 
Q 2534 3019 2420 3045 
Q 2306 3072 2169 3072 
Q 1681 3072 1420 2755 
Q 1159 2438 1159 1844 
L 1159 0 
L 581 0 
L 581 3500 
L 1159 3500 
L 1159 2956 
Q 1341 3275 1631 3429 
Q 1922 3584 2338 3584 
Q 2397 3584 2469 3576 
Q 2541 3569 2628 3553 
L 2631 2963 
z
" transform="scale(0.015625)"/>
       <path id="DejaVuSans-67" d="M 2906 1791 
Q 2906 2416 2648 2759 
Q 2391 3103 1925 3103 
Q 1463 3103 1205 2759 
Q 947 2416 947 1791 
Q 947 1169 1205 825 
Q 1463 481 1925 481 
Q 2391 481 2648 825 
Q 2906 1169 2906 1791 
z
M 3481 434 
Q 3481 -459 3084 -895 
Q 2688 -1331 1869 -1331 
Q 1566 -1331 1297 -1286 
Q 1028 -1241 775 -1147 
L 775 -588 
Q 1028 -725 1275 -790 
Q 1522 -856 1778 -856 
Q 2344 -856 2625 -561 
Q 2906 -266 2906 331 
L 2906 616 
Q 2728 306 2450 153 
Q 2172 0 1784 0 
Q 1141 0 747 490 
Q 353 981 353 1791 
Q 353 2603 747 3093 
Q 1141 3584 1784 3584 
Q 2172 3584 2450 3431 
Q 2728 3278 2906 2969 
L 2906 3500 
L 3481 3500 
L 3481 434 
z
" transform="scale(0.015625)"/>
       <path id="DejaVuSans-65" d="M 3597 1894 
L 3597 1613 
L 953 1613 
Q 991 1019 1311 708 
Q 1631 397 2203 397 
Q 2534 397 2845 478 
Q 3156 559 3463 722 
L 3463 178 
Q 3153 47 2828 -22 
Q 2503 -91 2169 -91 
Q 1331 -91 842 396 
Q 353 884 353 1716 
Q 353 2575 817 3079 
Q 1281 3584 2069 3584 
Q 2775 3584 3186 3129 
Q 3597 2675 3597 1894 
z
M 3022 2063 
Q 3016 2534 2758 2815 
Q 2500 3097 2075 3097 
Q 1594 3097 1305 2825 
Q 1016 2553 972 2059 
L 3022 2063 
z
" transform="scale(0.015625)"/>
      </defs>
      <use xlink:href="#DejaVuSans-74"/>
      <use xlink:href="#DejaVuSans-61" x="39.208984"/>
      <use xlink:href="#DejaVuSans-72" x="100.488281"/>
      <use xlink:href="#DejaVuSans-67" x="139.851562"/>
      <use xlink:href="#DejaVuSans-65" x="203.328125"/>
      <use xlink:href="#DejaVuSans-74" x="264.851562"/>
     </g>
    </g>
   </g>
  </g>
 </g>
 <defs>
  <clipPath id="p186ded6a4a">
   <rect x="135" y="60.48" width="837" height="388.08"/>
  </clipPath>
 </defs>
</svg>
