<?xml version="1.0" encoding="utf-8" standalone="no"?>
<!DOCTYPE svg PUBLIC "-//W3C//DTD SVG 1.1//EN"
  "http://www.w3.org/Graphics/SVG/1.1/DTD/svg11.dtd">
<svg xmlns:xlink="http://www.w3.org/1999/xlink" width="1080pt" height="504pt" viewBox="0 0 1080 504" xmlns="http://www.w3.org/2000/svg" version="1.1">
 <metadata>
  <rdf:RDF xmlns:dc="http://purl.org/dc/elements/1.1/" xmlns:cc="http://creativecommons.org/ns#" xmlns:rdf="http://www.w3.org/1999/02/22-rdf-syntax-ns#">
   <cc:Work>
    <dc:type rdf:resource="http://purl.org/dc/dcmitype/StillImage"/>
    <dc:date>2024-05-09T11:09:00.384712</dc:date>
    <dc:format>image/svg+xml</dc:format>
    <dc:creator>
     <cc:Agent>
      <dc:title>Matplotlib v3.7.1, https://matplotlib.org/</dc:title>
     </cc:Agent>
    </dc:creator>
   </cc:Work>
  </rdf:RDF>
 </metadata>
 <defs>
  <style type="text/css">*{stroke-linejoin: round; stroke-linecap: butt}</style>
 </defs>
 <g id="figure_1">
  <g id="patch_1">
   <path d="M 0 504 
L 1080 504 
L 1080 0 
L 0 0 
z
" style="fill: #ffffff"/>
  </g>
  <g id="axes_1">
   <g id="patch_2">
    <path d="M 135 448.56 
L 972 448.56 
L 972 60.48 
L 135 60.48 
z
" style="fill: #ffffff"/>
   </g>
   <g id="matplotlib.axis_1">
    <g id="xtick_1">
     <g id="line2d_1">
      <defs>
       <path id="m46c9a13300" d="M 0 0 
L 0 3.5 
" style="stroke: #000000; stroke-width: 0.8"/>
      </defs>
      <g>
       <use xlink:href="#m46c9a13300" x="173.045455" y="448.56" style="stroke: #000000; stroke-width: 0.8"/>
      </g>
     </g>
     <g id="text_1">
      <!-- 0 -->
      <g transform="translate(169.864205 463.158437) scale(0.1 -0.1)">
       <defs>
        <path id="DejaVuSans-30" d="M 2034 4250 
Q 1547 4250 1301 3770 
Q 1056 3291 1056 2328 
Q 1056 1369 1301 889 
Q 1547 409 2034 409 
Q 2525 409 2770 889 
Q 3016 1369 3016 2328 
Q 3016 3291 2770 3770 
Q 2525 4250 2034 4250 
z
M 2034 4750 
Q 2819 4750 3233 4129 
Q 3647 3509 3647 2328 
Q 3647 1150 3233 529 
Q 2819 -91 2034 -91 
Q 1250 -91 836 529 
Q 422 1150 422 2328 
Q 422 3509 836 4129 
Q 1250 4750 2034 4750 
z
" transform="scale(0.015625)"/>
       </defs>
       <use xlink:href="#DejaVuSans-30"/>
      </g>
     </g>
    </g>
    <g id="xtick_2">
     <g id="line2d_2">
      <g>
       <use xlink:href="#m46c9a13300" x="333.33808" y="448.56" style="stroke: #000000; stroke-width: 0.8"/>
      </g>
     </g>
     <g id="text_2">
      <!-- 1000 -->
      <g transform="translate(320.61308 463.158437) scale(0.1 -0.1)">
       <defs>
        <path id="DejaVuSans-31" d="M 794 531 
L 1825 531 
L 1825 4091 
L 703 3866 
L 703 4441 
L 1819 4666 
L 2450 4666 
L 2450 531 
L 3481 531 
L 3481 0 
L 794 0 
L 794 531 
z
" transform="scale(0.015625)"/>
       </defs>
       <use xlink:href="#DejaVuSans-31"/>
       <use xlink:href="#DejaVuSans-30" x="63.623047"/>
       <use xlink:href="#DejaVuSans-30" x="127.246094"/>
       <use xlink:href="#DejaVuSans-30" x="190.869141"/>
      </g>
     </g>
    </g>
    <g id="xtick_3">
     <g id="line2d_3">
      <g>
       <use xlink:href="#m46c9a13300" x="493.630705" y="448.56" style="stroke: #000000; stroke-width: 0.8"/>
      </g>
     </g>
     <g id="text_3">
      <!-- 2000 -->
      <g transform="translate(480.905705 463.158437) scale(0.1 -0.1)">
       <defs>
        <path id="DejaVuSans-32" d="M 1228 531 
L 3431 531 
L 3431 0 
L 469 0 
L 469 531 
Q 828 903 1448 1529 
Q 2069 2156 2228 2338 
Q 2531 2678 2651 2914 
Q 2772 3150 2772 3378 
Q 2772 3750 2511 3984 
Q 2250 4219 1831 4219 
Q 1534 4219 1204 4116 
Q 875 4013 500 3803 
L 500 4441 
Q 881 4594 1212 4672 
Q 1544 4750 1819 4750 
Q 2544 4750 2975 4387 
Q 3406 4025 3406 3419 
Q 3406 3131 3298 2873 
Q 3191 2616 2906 2266 
Q 2828 2175 2409 1742 
Q 1991 1309 1228 531 
z
" transform="scale(0.015625)"/>
       </defs>
       <use xlink:href="#DejaVuSans-32"/>
       <use xlink:href="#DejaVuSans-30" x="63.623047"/>
       <use xlink:href="#DejaVuSans-30" x="127.246094"/>
       <use xlink:href="#DejaVuSans-30" x="190.869141"/>
      </g>
     </g>
    </g>
    <g id="xtick_4">
     <g id="line2d_4">
      <g>
       <use xlink:href="#m46c9a13300" x="653.92333" y="448.56" style="stroke: #000000; stroke-width: 0.8"/>
      </g>
     </g>
     <g id="text_4">
      <!-- 3000 -->
      <g transform="translate(641.19833 463.158437) scale(0.1 -0.1)">
       <defs>
        <path id="DejaVuSans-33" d="M 2597 2516 
Q 3050 2419 3304 2112 
Q 3559 1806 3559 1356 
Q 3559 666 3084 287 
Q 2609 -91 1734 -91 
Q 1441 -91 1130 -33 
Q 819 25 488 141 
L 488 750 
Q 750 597 1062 519 
Q 1375 441 1716 441 
Q 2309 441 2620 675 
Q 2931 909 2931 1356 
Q 2931 1769 2642 2001 
Q 2353 2234 1838 2234 
L 1294 2234 
L 1294 2753 
L 1863 2753 
Q 2328 2753 2575 2939 
Q 2822 3125 2822 3475 
Q 2822 3834 2567 4026 
Q 2313 4219 1838 4219 
Q 1578 4219 1281 4162 
Q 984 4106 628 3988 
L 628 4550 
Q 988 4650 1302 4700 
Q 1616 4750 1894 4750 
Q 2613 4750 3031 4423 
Q 3450 4097 3450 3541 
Q 3450 3153 3228 2886 
Q 3006 2619 2597 2516 
z
" transform="scale(0.015625)"/>
       </defs>
       <use xlink:href="#DejaVuSans-33"/>
       <use xlink:href="#DejaVuSans-30" x="63.623047"/>
       <use xlink:href="#DejaVuSans-30" x="127.246094"/>
       <use xlink:href="#DejaVuSans-30" x="190.869141"/>
      </g>
     </g>
    </g>
    <g id="xtick_5">
     <g id="line2d_5">
      <g>
       <use xlink:href="#m46c9a13300" x="814.215955" y="448.56" style="stroke: #000000; stroke-width: 0.8"/>
      </g>
     </g>
     <g id="text_5">
      <!-- 4000 -->
      <g transform="translate(801.490955 463.158437) scale(0.1 -0.1)">
       <defs>
        <path id="DejaVuSans-34" d="M 2419 4116 
L 825 1625 
L 2419 1625 
L 2419 4116 
z
M 2253 4666 
L 3047 4666 
L 3047 1625 
L 3713 1625 
L 3713 1100 
L 3047 1100 
L 3047 0 
L 2419 0 
L 2419 1100 
L 313 1100 
L 313 1709 
L 2253 4666 
z
" transform="scale(0.015625)"/>
       </defs>
       <use xlink:href="#DejaVuSans-34"/>
       <use xlink:href="#DejaVuSans-30" x="63.623047"/>
       <use xlink:href="#DejaVuSans-30" x="127.246094"/>
       <use xlink:href="#DejaVuSans-30" x="190.869141"/>
      </g>
     </g>
    </g>
    <g id="text_6">
     <!-- t -->
     <g transform="translate(551.539844 476.836563) scale(0.1 -0.1)">
      <defs>
       <path id="DejaVuSans-74" d="M 1172 4494 
L 1172 3500 
L 2356 3500 
L 2356 3053 
L 1172 3053 
L 1172 1153 
Q 1172 725 1289 603 
Q 1406 481 1766 481 
L 2356 481 
L 2356 0 
L 1766 0 
Q 1100 0 847 248 
Q 594 497 594 1153 
L 594 3053 
L 172 3053 
L 172 3500 
L 594 3500 
L 594 4494 
L 1172 4494 
z
" transform="scale(0.015625)"/>
      </defs>
      <use xlink:href="#DejaVuSans-74"/>
     </g>
    </g>
   </g>
   <g id="matplotlib.axis_2">
    <g id="ytick_1">
     <g id="line2d_6">
      <defs>
       <path id="m0ccc072dd0" d="M 0 0 
L -3.5 0 
" style="stroke: #000000; stroke-width: 0.8"/>
      </defs>
      <g>
       <use xlink:href="#m0ccc072dd0" x="135" y="430.92" style="stroke: #000000; stroke-width: 0.8"/>
      </g>
     </g>
     <g id="text_7">
      <!-- 0.0 -->
      <g transform="translate(112.096875 434.719219) scale(0.1 -0.1)">
       <defs>
        <path id="DejaVuSans-2e" d="M 684 794 
L 1344 794 
L 1344 0 
L 684 0 
L 684 794 
z
" transform="scale(0.015625)"/>
       </defs>
       <use xlink:href="#DejaVuSans-30"/>
       <use xlink:href="#DejaVuSans-2e" x="63.623047"/>
       <use xlink:href="#DejaVuSans-30" x="95.410156"/>
      </g>
     </g>
    </g>
    <g id="ytick_2">
     <g id="line2d_7">
      <g>
       <use xlink:href="#m0ccc072dd0" x="135" y="360.36" style="stroke: #000000; stroke-width: 0.8"/>
      </g>
     </g>
     <g id="text_8">
      <!-- 0.2 -->
      <g transform="translate(112.096875 364.159219) scale(0.1 -0.1)">
       <use xlink:href="#DejaVuSans-30"/>
       <use xlink:href="#DejaVuSans-2e" x="63.623047"/>
       <use xlink:href="#DejaVuSans-32" x="95.410156"/>
      </g>
     </g>
    </g>
    <g id="ytick_3">
     <g id="line2d_8">
      <g>
       <use xlink:href="#m0ccc072dd0" x="135" y="289.8" style="stroke: #000000; stroke-width: 0.8"/>
      </g>
     </g>
     <g id="text_9">
      <!-- 0.4 -->
      <g transform="translate(112.096875 293.599219) scale(0.1 -0.1)">
       <use xlink:href="#DejaVuSans-30"/>
       <use xlink:href="#DejaVuSans-2e" x="63.623047"/>
       <use xlink:href="#DejaVuSans-34" x="95.410156"/>
      </g>
     </g>
    </g>
    <g id="ytick_4">
     <g id="line2d_9">
      <g>
       <use xlink:href="#m0ccc072dd0" x="135" y="219.24" style="stroke: #000000; stroke-width: 0.8"/>
      </g>
     </g>
     <g id="text_10">
      <!-- 0.6 -->
      <g transform="translate(112.096875 223.039219) scale(0.1 -0.1)">
       <defs>
        <path id="DejaVuSans-36" d="M 2113 2584 
Q 1688 2584 1439 2293 
Q 1191 2003 1191 1497 
Q 1191 994 1439 701 
Q 1688 409 2113 409 
Q 2538 409 2786 701 
Q 3034 994 3034 1497 
Q 3034 2003 2786 2293 
Q 2538 2584 2113 2584 
z
M 3366 4563 
L 3366 3988 
Q 3128 4100 2886 4159 
Q 2644 4219 2406 4219 
Q 1781 4219 1451 3797 
Q 1122 3375 1075 2522 
Q 1259 2794 1537 2939 
Q 1816 3084 2150 3084 
Q 2853 3084 3261 2657 
Q 3669 2231 3669 1497 
Q 3669 778 3244 343 
Q 2819 -91 2113 -91 
Q 1303 -91 875 529 
Q 447 1150 447 2328 
Q 447 3434 972 4092 
Q 1497 4750 2381 4750 
Q 2619 4750 2861 4703 
Q 3103 4656 3366 4563 
z
" transform="scale(0.015625)"/>
       </defs>
       <use xlink:href="#DejaVuSans-30"/>
       <use xlink:href="#DejaVuSans-2e" x="63.623047"/>
       <use xlink:href="#DejaVuSans-36" x="95.410156"/>
      </g>
     </g>
    </g>
    <g id="ytick_5">
     <g id="line2d_10">
      <g>
       <use xlink:href="#m0ccc072dd0" x="135" y="148.68" style="stroke: #000000; stroke-width: 0.8"/>
      </g>
     </g>
     <g id="text_11">
      <!-- 0.8 -->
      <g transform="translate(112.096875 152.479219) scale(0.1 -0.1)">
       <defs>
        <path id="DejaVuSans-38" d="M 2034 2216 
Q 1584 2216 1326 1975 
Q 1069 1734 1069 1313 
Q 1069 891 1326 650 
Q 1584 409 2034 409 
Q 2484 409 2743 651 
Q 3003 894 3003 1313 
Q 3003 1734 2745 1975 
Q 2488 2216 2034 2216 
z
M 1403 2484 
Q 997 2584 770 2862 
Q 544 3141 544 3541 
Q 544 4100 942 4425 
Q 1341 4750 2034 4750 
Q 2731 4750 3128 4425 
Q 3525 4100 3525 3541 
Q 3525 3141 3298 2862 
Q 3072 2584 2669 2484 
Q 3125 2378 3379 2068 
Q 3634 1759 3634 1313 
Q 3634 634 3220 271 
Q 2806 -91 2034 -91 
Q 1263 -91 848 271 
Q 434 634 434 1313 
Q 434 1759 690 2068 
Q 947 2378 1403 2484 
z
M 1172 3481 
Q 1172 3119 1398 2916 
Q 1625 2713 2034 2713 
Q 2441 2713 2670 2916 
Q 2900 3119 2900 3481 
Q 2900 3844 2670 4047 
Q 2441 4250 2034 4250 
Q 1625 4250 1398 4047 
Q 1172 3844 1172 3481 
z
" transform="scale(0.015625)"/>
       </defs>
       <use xlink:href="#DejaVuSans-30"/>
       <use xlink:href="#DejaVuSans-2e" x="63.623047"/>
       <use xlink:href="#DejaVuSans-38" x="95.410156"/>
      </g>
     </g>
    </g>
    <g id="ytick_6">
     <g id="line2d_11">
      <g>
       <use xlink:href="#m0ccc072dd0" x="135" y="78.12" style="stroke: #000000; stroke-width: 0.8"/>
      </g>
     </g>
     <g id="text_12">
      <!-- 1.0 -->
      <g transform="translate(112.096875 81.919219) scale(0.1 -0.1)">
       <use xlink:href="#DejaVuSans-31"/>
       <use xlink:href="#DejaVuSans-2e" x="63.623047"/>
       <use xlink:href="#DejaVuSans-30" x="95.410156"/>
      </g>
     </g>
    </g>
   </g>
   <g id="line2d_12">
    <path d="M 173.045455 421.916796 
L 173.846918 384.551697 
L 174.488088 363.009825 
L 175.129259 348.000155 
L 175.610137 340.57758 
L 176.091014 336.116756 
L 176.4116 334.653611 
L 176.571892 334.346542 
L 176.732185 334.31024 
L 176.892478 334.535805 
L 177.213063 335.738007 
L 177.533648 337.886181 
L 177.693941 339.294977 
L 178.655696 365.438652 
L 179.617452 385.098185 
L 180.418915 397.284862 
L 181.220378 406.225537 
L 181.861549 411.358807 
L 182.502719 414.932353 
L 182.983597 416.707279 
L 183.464475 417.790798 
L 183.78506 418.163851 
L 184.105646 418.280345 
L 184.426231 418.158785 
L 184.746816 417.816748 
L 185.227694 416.926565 
L 185.868865 415.116677 
L 186.670328 412.011318 
L 187.632083 407.305464 
L 188.914424 399.840489 
L 190.998229 386.110702 
L 195.165837 358.413671 
L 197.089348 347.220959 
L 198.692275 339.071621 
L 200.134908 332.743128 
L 201.577542 327.397588 
L 202.859883 323.469787 
L 203.981931 320.655732 
L 205.10398 318.404165 
L 206.065735 316.904707 
L 207.027491 315.78524 
L 207.989247 315.027824 
L 208.79071 314.659555 
L 209.592173 314.518212 
L 210.393636 314.592241 
L 211.195099 314.869986 
L 212.156855 315.455749 
L 213.118611 316.297998 
L 213.278903 316.461915 
L 214.080367 282.474798 
L 214.721537 263.620169 
L 215.362708 251.282383 
L 215.843585 245.852796 
L 216.164171 243.890143 
L 216.484756 243.157618 
L 216.645049 243.228255 
L 216.805341 243.577606 
L 217.125926 245.076144 
L 217.606804 249.193072 
L 218.087682 255.355487 
L 219.049438 281.972852 
L 220.011194 302.406942 
L 220.812657 315.440047 
L 221.61412 325.387305 
L 222.415583 332.69961 
L 223.056754 336.921854 
L 223.697924 339.896165 
L 224.339095 341.787324 
L 224.819972 342.584887 
L 225.30085 342.914349 
L 225.621436 342.900218 
L 226.102313 342.564997 
L 226.583191 341.893769 
L 227.224362 340.549264 
L 228.025825 338.273343 
L 229.147873 334.252773 
L 230.7508 327.459395 
L 235.719871 305.591225 
L 237.322797 299.751246 
L 238.765431 295.32277 
L 240.047772 292.101653 
L 241.16982 289.852644 
L 242.131576 288.349269 
L 243.093332 287.232826 
L 243.894795 286.591906 
L 244.696258 286.207073 
L 245.497721 286.070403 
L 246.299184 286.172975 
L 247.100647 286.50507 
L 247.90211 287.056362 
L 248.863866 287.992048 
L 249.985915 289.437331 
L 251.268256 291.517334 
L 252.710889 294.347667 
L 253.99323 297.248453 
L 254.794693 265.822009 
L 255.435864 248.864426 
L 255.916742 240.382381 
L 256.39762 235.178342 
L 256.718205 233.383682 
L 257.03879 232.832122 
L 257.199083 232.997816 
L 257.519668 234.164811 
L 257.840253 236.385448 
L 258.321131 241.54077 
L 258.802009 248.69045 
L 259.763765 275.972275 
L 260.72552 297.058918 
L 261.687276 312.949105 
L 262.488739 322.849596 
L 263.290202 330.182874 
L 264.091666 335.336404 
L 264.732836 338.121002 
L 265.374007 339.886258 
L 265.854884 340.626478 
L 266.335762 340.926959 
L 266.656348 340.907849 
L 267.137225 340.584692 
L 267.618103 339.946749 
L 268.259274 338.675638 
L 269.060737 336.531094 
L 270.182785 332.75306 
L 271.785712 326.388837 
L 276.59449 306.643716 
L 278.197417 301.192025 
L 279.64005 297.072277 
L 280.922391 294.092572 
L 282.04444 292.029506 
L 283.006195 290.667125 
L 283.967951 289.675193 
L 284.769414 289.125852 
L 285.570877 288.821921 
L 286.37234 288.755876 
L 287.173804 288.91922 
L 287.975267 289.302673 
L 288.937022 290.039417 
L 289.898778 291.060973 
L 291.020827 292.588059 
L 292.303168 294.73877 
L 293.585509 297.279077 
L 294.386972 266.226546 
L 295.028142 249.527199 
L 295.50902 241.217249 
L 295.989898 236.16837 
L 296.310483 234.468414 
L 296.470776 234.087121 
L 296.631068 234.005024 
L 296.791361 234.212472 
L 297.111946 235.458543 
L 297.432532 237.752649 
L 297.913409 243.008425 
L 298.394287 250.247862 
L 299.356043 277.284456 
L 300.317799 298.151755 
L 301.279555 313.845496 
L 302.081018 323.59785 
L 302.882481 330.795674 
L 303.683944 335.825199 
L 304.325114 338.518089 
L 304.966285 340.197736 
L 305.447163 340.87747 
L 305.928041 341.120448 
L 306.248626 341.064575 
L 306.729504 340.688511 
L 307.210382 340.00021 
L 307.851552 338.665678 
L 308.653015 336.447405 
L 309.775064 332.575539 
L 311.37799 326.093952 
L 316.186769 306.088464 
L 317.789695 300.573877 
L 319.232329 296.405722 
L 320.51467 293.388852 
L 321.636718 291.297409 
L 322.598474 289.913556 
L 323.560229 288.902614 
L 324.361693 288.339206 
L 325.163156 288.02273 
L 325.964619 287.94559 
L 326.766082 288.09921 
L 327.567545 288.474242 
L 328.529301 289.202504 
L 329.491057 290.21724 
L 330.613105 291.738321 
L 331.895446 293.884539 
L 333.33808 296.765243 
L 333.818957 297.824734 
L 334.620421 266.801047 
L 335.261591 250.121086 
L 335.742469 241.823689 
L 336.223347 236.785775 
L 336.543932 235.092299 
L 336.704225 234.714007 
L 336.864517 234.634759 
L 337.02481 234.844905 
L 337.345395 236.095938 
L 337.66598 238.394451 
L 338.146858 243.655859 
L 338.627736 250.89984 
L 339.589492 278.049235 
L 340.551248 299.015753 
L 341.513003 314.795986 
L 342.314467 324.61128 
L 343.11593 331.864215 
L 343.917393 336.941454 
L 344.558563 339.667466 
L 345.199734 341.375971 
L 345.680612 342.074668 
L 346.16149 342.334403 
L 346.482075 342.288516 
L 346.962953 341.925712 
L 347.443831 341.248675 
L 348.085001 339.926188 
L 348.886464 337.718436 
L 350.008513 333.853424 
L 351.611439 327.367249 
L 356.420218 307.267665 
L 358.023144 301.701575 
L 359.465777 297.480879 
L 360.748118 294.413299 
L 361.870167 292.274965 
L 362.831923 290.849387 
L 363.793678 289.795574 
L 364.595141 289.195729 
L 365.396605 288.842307 
L 366.198068 288.727826 
L 366.999531 288.843822 
L 367.800994 289.18105 
L 368.76275 289.863845 
L 369.724505 290.833145 
L 370.846554 292.301446 
L 372.128895 294.387894 
L 373.090651 296.212895 
L 373.892114 265.161806 
L 374.533284 248.458923 
L 375.014162 240.144072 
L 375.49504 235.088701 
L 375.815625 233.383674 
L 375.975918 232.999654 
L 376.13621 232.914716 
L 376.296503 233.119217 
L 376.617088 234.359119 
L 376.937674 236.646749 
L 377.418551 241.892393 
L 377.899429 249.121399 
L 378.861185 276.106092 
L 379.822941 296.926751 
L 380.784697 312.57859 
L 381.58616 322.299296 
L 382.387623 329.468169 
L 383.189086 334.471206 
L 383.830256 337.144533 
L 384.471427 338.805954 
L 384.952305 339.472841 
L 385.433183 339.703635 
L 385.753768 339.639991 
L 386.234646 339.252776 
L 386.715524 338.553904 
L 387.356694 337.20613 
L 388.158157 334.972592 
L 389.280206 331.081574 
L 390.883132 324.576692 
L 395.531618 305.123812 
L 397.134544 299.514696 
L 398.577178 295.253427 
L 399.859519 292.151479 
L 400.981567 289.985976 
L 401.943323 288.540037 
L 402.905079 287.469035 
L 403.706542 286.857529 
L 404.508005 286.495011 
L 405.309468 286.374093 
L 406.110931 286.486367 
L 406.912394 286.822612 
L 407.87415 287.507841 
L 408.835906 288.483473 
L 409.957954 289.963974 
L 411.240295 292.07048 
L 412.682929 294.914905 
L 413.644685 297.060309 
L 414.446148 266.000568 
L 415.087318 249.297172 
L 415.568196 240.98503 
L 416.049074 235.934578 
L 416.369659 234.233873 
L 416.529952 233.852286 
L 416.690245 233.769946 
L 416.850537 233.977197 
L 417.171122 235.223003 
L 417.491708 237.517001 
L 417.972586 242.772863 
L 418.453463 250.012631 
L 419.415219 277.251996 
L 420.376975 298.297303 
L 421.338731 314.146264 
L 422.140194 324.011876 
L 422.941657 331.309381 
L 423.74312 336.425934 
L 424.384291 339.179922 
L 425.025461 340.913551 
L 425.506339 341.629344 
L 425.987217 341.90477 
L 426.307802 341.868601 
L 426.78868 341.519318 
L 427.269558 340.854599 
L 427.910728 339.546785 
L 428.712191 337.354781 
L 429.83424 333.507489 
L 431.437166 327.039169 
L 436.245945 306.956794 
L 437.848871 301.389009 
L 439.291505 297.165173 
L 440.573846 294.094061 
L 441.695894 291.952383 
L 442.65765 290.523937 
L 443.619406 289.467386 
L 444.420869 288.865442 
L 445.222332 288.51015 
L 446.023795 288.39408 
L 446.825258 288.508817 
L 447.626721 288.845157 
L 448.588477 289.527427 
L 449.550233 290.496848 
L 450.672281 291.966168 
L 451.954622 294.055012 
L 453.397256 296.873842 
L 453.557548 297.215095 
L 454.359011 266.076602 
L 455.000182 249.312924 
L 455.48106 240.95719 
L 455.961938 235.864556 
L 456.282523 234.136523 
L 456.442816 233.741511 
L 456.603108 233.645906 
L 456.763401 233.840053 
L 457.083986 235.060137 
L 457.404571 237.329059 
L 457.885449 242.548529 
L 458.366327 249.753374 
L 459.328083 276.876473 
L 460.289839 297.8171 
L 461.251594 313.572285 
L 462.053057 323.367616 
L 462.854521 330.601604 
L 463.655984 335.66106 
L 464.297154 338.373769 
L 464.938325 340.069851 
L 465.419203 340.759838 
L 465.90008 341.011403 
L 466.220666 340.960376 
L 466.701544 340.590332 
L 467.182421 339.906632 
L 467.823592 338.576173 
L 468.625055 336.359953 
L 469.747103 332.48593 
L 471.35003 325.992721 
L 476.158808 305.913056 
L 477.761735 300.366778 
L 479.204368 296.169193 
L 480.486709 293.126163 
L 481.608758 291.012253 
L 482.570513 289.609699 
L 483.532269 288.580747 
L 484.333732 288.002963 
L 485.135195 287.672769 
L 485.936659 287.582633 
L 486.738122 287.72404 
L 487.539585 288.087694 
L 488.501341 288.803466 
L 489.463096 289.807042 
L 490.585145 291.316856 
L 491.867486 293.452587 
L 493.310119 296.324616 
L 493.630705 297.024271 
L 494.432168 265.912747 
L 495.073338 249.170609 
L 495.554216 240.830939 
L 496.035094 235.754241 
L 496.355679 234.03674 
L 496.515972 233.646963 
L 496.676264 233.556569 
L 496.836557 233.755902 
L 497.157142 234.986278 
L 497.477728 237.265379 
L 497.958605 242.499877 
L 498.439483 249.719435 
L 499.401239 276.898391 
L 500.362995 297.890976 
L 501.324751 313.694443 
L 502.126214 323.527352 
L 502.927677 330.796628 
L 503.72914 335.889193 
L 504.37031 338.626891 
L 505.011481 340.346688 
L 505.492359 341.053655 
L 505.973237 341.321532 
L 506.293822 341.281019 
L 506.7747 340.926218 
L 507.255578 340.257145 
L 507.896748 338.945265 
L 508.698211 336.750841 
L 509.82026 332.904809 
L 511.423186 326.446862 
L 516.231965 306.444641 
L 517.834891 300.916297 
L 519.277525 296.732055 
L 520.559866 293.698878 
L 521.681914 291.592179 
L 522.64367 290.19484 
L 523.605425 289.170279 
L 524.406889 288.595566 
L 525.208352 288.267943 
L 526.009815 288.179907 
L 526.811278 288.322975 
L 527.612741 288.687874 
L 528.574497 289.404632 
L 529.536253 290.408678 
L 530.658301 291.918444 
L 531.940642 294.053402 
L 533.383276 296.923746 
L 533.864153 297.980354 
L 534.665617 266.847263 
L 535.306787 250.089094 
L 535.787665 241.738015 
L 536.268543 236.650369 
L 536.589128 234.925796 
L 536.749421 234.532545 
L 536.909713 234.438717 
L 537.070006 234.634653 
L 537.390591 235.858338 
L 537.711176 238.130874 
L 538.192054 243.355735 
L 538.672932 250.565868 
L 539.634688 277.770312 
L 540.596444 298.784076 
L 541.558199 314.6048 
L 542.359663 324.44935 
L 543.161126 331.727983 
L 543.962589 336.827799 
L 544.603759 339.569895 
L 545.24493 341.292931 
L 545.725808 342.001613 
L 546.206686 342.270626 
L 546.527271 342.230562 
L 547.008149 341.875999 
L 547.489027 341.20666 
L 548.130197 339.893688 
L 548.93166 337.696798 
L 550.053709 333.845453 
L 551.656635 327.376636 
L 556.465414 307.324828 
L 558.06834 301.776074 
L 559.510973 297.572402 
L 560.793314 294.521321 
L 561.915363 292.398594 
L 562.877119 290.98732 
L 563.838874 289.948698 
L 564.640337 289.362205 
L 565.441801 289.022771 
L 566.243264 288.922918 
L 567.044727 289.05418 
L 567.84619 289.407307 
L 568.807946 290.110005 
L 569.769701 291.100091 
L 570.89175 292.593726 
L 572.174091 294.710499 
L 573.616724 297.560753 
L 574.257895 298.971124 
L 575.059358 267.800976 
L 575.700529 251.015189 
L 576.181406 242.644458 
L 576.662284 237.537989 
L 576.98287 235.801294 
L 577.143162 235.402103 
L 577.303455 235.302411 
L 577.463747 235.492559 
L 577.784333 236.704883 
L 578.104918 238.966331 
L 578.585796 244.175033 
L 579.066674 251.36953 
L 580.028429 278.590901 
L 580.990185 299.617784 
L 581.951941 315.448197 
L 582.753404 325.29845 
L 583.554867 332.580829 
L 584.35633 337.682604 
L 584.997501 340.425088 
L 585.638671 342.147546 
L 586.119549 342.855202 
L 586.600427 343.122715 
L 586.921012 343.081402 
L 587.40189 342.724606 
L 587.882768 342.052631 
L 588.523939 340.735554 
L 589.325402 338.532662 
L 590.44745 334.671459 
L 592.050376 328.186055 
L 596.859155 308.072165 
L 598.462081 302.500127 
L 599.904715 298.27489 
L 601.187056 295.204327 
L 602.309104 293.064411 
L 603.27086 291.638359 
L 604.232616 290.584957 
L 605.034079 289.986174 
L 605.835542 289.634495 
L 606.637005 289.522458 
L 607.438468 289.641615 
L 608.239931 289.982729 
L 609.201687 290.67115 
L 610.163443 291.647131 
L 611.285491 293.124551 
L 612.567832 295.223139 
L 613.209003 296.423167 
L 614.010466 265.319855 
L 614.651636 248.579479 
L 615.132514 240.238818 
L 615.613392 235.15948 
L 615.933977 233.439444 
L 616.09427 233.048196 
L 616.254563 232.95621 
L 616.414855 233.15384 
L 616.735441 234.380509 
L 617.056026 236.655562 
L 617.536904 241.883502 
L 618.017782 249.096109 
L 618.979537 276.073606 
L 619.941293 296.889154 
L 620.903049 312.538021 
L 621.704512 322.257909 
L 622.505975 329.42748 
L 623.307438 334.43273 
L 623.948609 337.108913 
L 624.589779 338.77415 
L 625.070657 339.44452 
L 625.551535 339.679326 
L 625.87212 339.618649 
L 626.352998 339.236316 
L 626.833876 338.542839 
L 627.475046 337.203045 
L 628.27651 334.980721 
L 629.398558 331.107648 
L 631.001484 324.632741 
L 635.64997 305.292474 
L 637.252897 299.729786 
L 638.69553 295.513071 
L 639.977871 292.452673 
L 641.09992 290.324856 
L 642.061675 288.912095 
L 643.023431 287.87499 
L 643.824894 287.292216 
L 644.626357 286.95882 
L 645.42782 286.867365 
L 646.229284 287.009398 
L 647.030747 287.375652 
L 647.992502 288.097155 
L 648.954258 289.109279 
L 650.076307 290.632533 
L 651.358648 292.787997 
L 652.801281 295.687435 
L 653.92333 298.250791 
L 654.724793 267.185865 
L 655.365963 250.479762 
L 655.846841 242.166258 
L 656.327719 237.114898 
L 656.648304 235.413792 
L 656.808597 235.032055 
L 656.968889 234.949592 
L 657.129182 235.156747 
L 657.449767 236.402425 
L 657.770353 238.696357 
L 658.25123 243.952186 
L 658.732108 251.191933 
L 659.693864 278.499571 
L 660.65562 299.6067 
L 661.617376 315.511539 
L 662.418839 325.41952 
L 663.220302 332.755855 
L 664.021765 337.907941 
L 664.662935 340.688134 
L 665.304106 342.446114 
L 665.784984 343.179018 
L 666.265862 343.470613 
L 666.586447 343.444721 
L 667.067325 343.110127 
L 667.548203 342.459261 
L 668.189373 341.168682 
L 668.990836 338.996349 
L 670.112885 335.173373 
L 671.715811 328.733961 
L 676.684882 308.112705 
L 678.287809 302.640973 
L 679.730442 298.511277 
L 681.012783 295.526193 
L 682.134832 293.459618 
L 683.096587 292.094409 
L 684.058343 291.099385 
L 684.859806 290.547045 
L 685.661269 290.239591 
L 686.462732 290.169413 
L 687.264196 290.32795 
L 688.065659 290.705888 
L 689.027414 291.435063 
L 689.98917 292.448017 
L 691.111219 293.963815 
L 692.39356 296.10009 
L 693.836193 298.96514 
L 694.156778 299.662208 
L 694.958242 268.469312 
L 695.599412 251.665024 
L 696.08029 243.280306 
L 696.561168 238.159799 
L 696.881753 236.413737 
L 697.202338 235.905493 
L 697.362631 236.090965 
L 697.683216 237.293957 
L 698.003801 239.546105 
L 698.484679 244.74094 
L 698.965557 251.921695 
L 699.927313 279.101133 
L 700.889069 300.089107 
L 701.850824 315.883435 
L 702.652288 325.705645 
L 703.453751 332.961718 
L 704.255214 338.038833 
L 704.896384 340.762714 
L 705.537555 342.467523 
L 706.018433 343.162546 
L 706.499311 343.417923 
L 706.819896 343.368788 
L 707.300774 343.000652 
L 707.781652 342.317792 
L 708.422822 340.98689 
L 709.224285 338.767772 
L 710.346334 334.885715 
L 711.94926 328.374003 
L 716.758039 308.201994 
L 718.360965 302.616346 
L 719.803598 298.380895 
L 721.085939 295.302704 
L 722.207988 293.157131 
L 723.169744 291.72692 
L 724.131499 290.669947 
L 724.932962 290.068604 
L 725.734426 289.714716 
L 726.535889 289.600797 
L 727.337352 289.718376 
L 728.138815 290.058195 
L 729.100571 290.745405 
L 730.062326 291.720518 
L 731.184375 293.197313 
L 732.466716 295.295642 
L 733.909349 298.126123 
L 734.069642 298.468724 
L 734.871105 267.308267 
L 735.512276 250.528119 
L 735.993154 242.160598 
L 736.474031 237.056608 
L 736.794617 235.321223 
L 736.954909 234.922596 
L 737.115202 234.823413 
L 737.275495 235.01402 
L 737.59608 236.227127 
L 737.916665 238.489202 
L 738.397543 243.698621 
L 738.878421 250.893645 
L 739.840177 278.032973 
L 740.801932 298.988529 
L 741.763688 314.757417 
L 742.565151 324.56328 
L 743.366614 331.807036 
L 744.168077 336.875535 
L 744.809248 339.594981 
L 745.450418 341.297378 
L 745.931296 341.991834 
L 746.412174 342.247647 
L 746.732759 342.199333 
L 747.213637 341.833185 
L 747.694515 341.153178 
L 748.335686 339.82734 
L 749.137149 337.616426 
L 750.259197 333.749003 
L 751.862123 327.26367 
L 756.670902 307.198242 
L 758.273828 301.654041 
L 759.716462 297.457342 
L 760.998803 294.414372 
L 762.120851 292.29999 
L 763.082607 290.896659 
L 764.044363 289.866603 
L 764.845826 289.287659 
L 765.647289 288.956094 
L 766.448752 288.864382 
L 767.250215 289.004016 
L 768.051679 289.365703 
L 769.013434 290.078868 
L 769.97519 291.079577 
L 771.097238 292.585726 
L 772.379579 294.716863 
L 773.822213 297.583225 
L 774.623676 266.477086 
L 775.264847 249.737274 
L 775.745725 241.398341 
L 776.226602 236.321621 
L 776.547188 234.603727 
L 776.70748 234.213649 
L 776.867773 234.122888 
L 777.028066 234.321793 
L 777.348651 235.551136 
L 777.669236 237.828987 
L 778.150114 243.061255 
L 778.630992 250.278217 
L 779.592748 277.40517 
L 780.554503 298.35209 
L 781.516259 314.115657 
L 782.317722 323.919342 
L 783.119185 331.162757 
L 783.920648 336.232564 
L 784.561819 338.954131 
L 785.202989 340.659515 
L 785.683867 341.356736 
L 786.164745 341.61573 
L 786.48533 341.569753 
L 786.966208 341.207417 
L 787.447086 340.531565 
L 788.088257 339.21176 
L 788.88972 337.009105 
L 790.011768 333.154408 
L 791.614694 326.689184 
L 796.423473 306.69258 
L 798.026399 301.172762 
L 799.469033 296.998187 
L 800.751374 293.974882 
L 801.873422 291.877622 
L 802.835178 290.48886 
L 803.796934 289.473239 
L 804.598397 288.906203 
L 805.39986 288.586419 
L 806.201323 288.506351 
L 807.002786 288.657479 
L 807.80425 289.0305 
L 808.766005 289.757043 
L 809.727761 290.770874 
L 810.849809 292.291995 
L 812.13215 294.439778 
L 813.414491 296.981136 
L 814.215955 265.914043 
L 814.857125 249.202752 
L 815.338003 240.883776 
L 815.818881 235.825889 
L 816.139466 234.119967 
L 816.299759 233.73571 
L 816.460051 233.650665 
L 816.620344 233.855183 
L 816.940929 235.095455 
L 817.261514 237.383858 
L 817.742392 242.631295 
L 818.22327 249.862699 
L 819.185026 276.969613 
L 820.146782 297.900279 
L 821.108537 313.650985 
L 821.910001 323.446287 
L 822.711464 330.683241 
L 823.512927 335.748336 
L 824.154097 338.467285 
L 824.795268 340.170993 
L 825.276146 340.867533 
L 825.757024 341.126306 
L 826.077609 341.080426 
L 826.558487 340.718581 
L 827.039365 340.043613 
L 827.680535 338.725559 
L 828.481998 336.525939 
L 829.604047 332.676902 
L 831.206973 326.222205 
L 836.015752 306.269319 
L 837.618678 300.766696 
L 839.061311 296.608253 
L 840.343652 293.599652 
L 841.465701 291.515445 
L 842.427457 290.137955 
L 843.389212 289.133644 
L 844.190675 288.576037 
L 844.992139 288.265666 
L 845.793602 288.194978 
L 846.595065 288.355437 
L 847.396528 288.737729 
L 848.358284 289.475297 
L 849.320039 290.500025 
L 850.442088 292.033676 
L 851.724429 294.195504 
L 853.167062 297.095395 
L 854.609696 300.429854 
L 855.411159 269.271466 
L 856.05233 252.49577 
L 856.533208 244.132784 
L 857.014085 239.03406 
L 857.334671 237.302468 
L 857.494963 236.905795 
L 857.655256 236.808594 
L 857.815549 237.001203 
L 858.136134 238.218338 
L 858.456719 240.484424 
L 858.937597 245.699699 
L 859.418475 252.900226 
L 860.380231 280.253964 
L 861.341986 301.396278 
L 862.303742 317.326505 
L 863.105205 327.2489 
L 863.906668 334.594097 
L 864.708131 339.749996 
L 865.349302 342.529918 
L 865.990472 344.284916 
L 866.47135 345.01393 
L 866.952228 345.30031 
L 867.272813 345.270244 
L 867.753691 344.928401 
L 868.234569 344.269166 
L 868.87574 342.965801 
L 869.677203 340.775094 
L 870.799251 336.922431 
L 872.402177 330.433852 
L 877.371249 309.626345 
L 878.974175 304.088137 
L 880.416809 299.897378 
L 881.69915 296.857512 
L 882.821198 294.742894 
L 883.782954 293.336586 
L 884.74471 292.300652 
L 885.546173 291.714439 
L 886.347636 291.373367 
L 887.149099 291.269871 
L 887.950562 291.395433 
L 888.752025 291.740778 
L 889.713781 292.431393 
L 890.675537 293.40644 
L 891.797585 294.878897 
L 893.079926 296.966883 
L 894.362267 299.444401 
L 895.16373 268.212864 
L 895.804901 251.378359 
L 896.285779 242.971487 
L 896.766656 237.829334 
L 897.087242 236.069153 
L 897.407827 235.547056 
L 897.56812 235.725708 
L 897.888705 236.915278 
L 898.20929 239.154309 
L 898.690168 244.330067 
L 899.171046 251.4925 
L 900.132802 278.576899 
L 901.094557 299.480267 
L 902.056313 315.199679 
L 902.857776 324.966355 
L 903.659239 332.172754 
L 904.460702 337.205693 
L 905.101873 339.89796 
L 905.743043 341.574288 
L 906.223921 342.249907 
L 906.704799 342.487487 
L 907.025384 342.427348 
L 907.506262 342.043952 
L 907.98714 341.347274 
L 908.628311 340.00009 
L 909.429774 337.763879 
L 910.551822 333.86354 
L 912.154748 327.336 
L 916.963527 307.174262 
L 918.566453 301.606767 
L 920.009087 297.392347 
L 921.291428 294.335987 
L 922.413476 292.211567 
L 923.375232 290.800791 
L 924.336988 289.764287 
L 925.138451 289.180684 
L 925.939914 288.845069 
L 926.741377 288.749883 
L 927.54284 288.886581 
L 928.344304 289.24584 
L 929.306059 289.956715 
L 930.267815 290.955765 
L 931.389863 292.46071 
L 932.672204 294.591341 
L 933.794253 296.781123 
L 933.954545 289.586136 
L 933.954545 289.586136 
" clip-path="url(#p05544e795e)" style="fill: none; stroke: #1f77b4; stroke-width: 1.5; stroke-linecap: square"/>
   </g>
   <g id="line2d_13">
    <path d="M 173.045455 78.12 
L 177.693941 78.12 
L 177.854233 430.92 
L 213.278903 430.92 
L 213.439196 78.12 
L 218.087682 78.12 
L 218.247975 430.92 
L 253.99323 430.92 
L 254.153523 78.12 
L 258.802009 78.12 
L 258.962302 430.92 
L 293.585509 430.92 
L 293.745801 78.12 
L 298.394287 78.12 
L 298.55458 430.92 
L 333.818957 430.92 
L 333.97925 78.12 
L 338.627736 78.12 
L 338.788029 430.92 
L 373.090651 430.92 
L 373.250943 78.12 
L 377.899429 78.12 
L 378.059722 430.92 
L 413.644685 430.92 
L 413.804977 78.12 
L 418.453463 78.12 
L 418.613756 430.92 
L 453.557548 430.92 
L 453.717841 78.12 
L 458.366327 78.12 
L 458.52662 430.92 
L 493.630705 430.92 
L 493.790997 78.12 
L 498.439483 78.12 
L 498.599776 430.92 
L 533.864153 430.92 
L 534.024446 78.12 
L 538.672932 78.12 
L 538.833225 430.92 
L 574.257895 430.92 
L 574.418188 78.12 
L 579.066674 78.12 
L 579.226966 430.92 
L 613.209003 430.92 
L 613.369295 78.12 
L 618.017782 78.12 
L 618.178074 430.92 
L 653.92333 430.92 
L 654.083622 78.12 
L 658.732108 78.12 
L 658.892401 430.92 
L 694.156778 430.92 
L 694.317071 78.12 
L 698.965557 78.12 
L 699.12585 430.92 
L 734.069642 430.92 
L 734.229935 78.12 
L 738.878421 78.12 
L 739.038713 430.92 
L 773.822213 430.92 
L 773.982506 78.12 
L 778.630992 78.12 
L 778.791284 430.92 
L 813.414491 430.92 
L 813.574784 78.12 
L 818.22327 78.12 
L 818.383563 430.92 
L 854.609696 430.92 
L 854.769989 78.12 
L 859.418475 78.12 
L 859.578767 430.92 
L 894.362267 430.92 
L 894.52256 78.12 
L 899.171046 78.12 
L 899.331338 430.92 
L 933.794253 430.92 
L 933.954545 78.12 
L 933.954545 78.12 
" clip-path="url(#p05544e795e)" style="fill: none; stroke: #ff7f0e; stroke-width: 1.5; stroke-linecap: square"/>
   </g>
   <g id="line2d_14">
    <path d="M 929.466352 430.92 
" clip-path="url(#p05544e795e)" style="fill: none; stroke: #000000; stroke-width: 1.5; stroke-linecap: square"/>
    <defs>
     <path id="m27136a9589" d="M 0 1 
C 0.265203 1 0.51958 0.894634 0.707107 0.707107 
C 0.894634 0.51958 1 0.265203 1 0 
C 1 -0.265203 0.894634 -0.51958 0.707107 -0.707107 
C 0.51958 -0.894634 0.265203 -1 0 -1 
C -0.265203 -1 -0.51958 -0.894634 -0.707107 -0.707107 
C -0.894634 -0.51958 -1 -0.265203 -1 0 
C -1 0.265203 -0.894634 0.51958 -0.707107 0.707107 
C -0.51958 0.894634 -0.265203 1 0 1 
z
" style="stroke: #000000"/>
    </defs>
    <g clip-path="url(#p05544e795e)">
     <use xlink:href="#m27136a9589" x="173.045455" y="78.12" style="stroke: #000000"/>
     <use xlink:href="#m27136a9589" x="178.174819" y="430.92" style="stroke: #000000"/>
     <use xlink:href="#m27136a9589" x="183.14389" y="430.92" style="stroke: #000000"/>
     <use xlink:href="#m27136a9589" x="188.112961" y="78.12" style="stroke: #000000"/>
     <use xlink:href="#m27136a9589" x="193.082033" y="430.92" style="stroke: #000000"/>
     <use xlink:href="#m27136a9589" x="198.211397" y="430.92" style="stroke: #000000"/>
     <use xlink:href="#m27136a9589" x="203.180468" y="78.12" style="stroke: #000000"/>
     <use xlink:href="#m27136a9589" x="208.149539" y="430.92" style="stroke: #000000"/>
     <use xlink:href="#m27136a9589" x="213.118611" y="78.12" style="stroke: #000000"/>
     <use xlink:href="#m27136a9589" x="218.247975" y="430.92" style="stroke: #000000"/>
     <use xlink:href="#m27136a9589" x="223.217046" y="430.92" style="stroke: #000000"/>
     <use xlink:href="#m27136a9589" x="228.186118" y="78.12" style="stroke: #000000"/>
     <use xlink:href="#m27136a9589" x="233.155189" y="430.92" style="stroke: #000000"/>
     <use xlink:href="#m27136a9589" x="238.284553" y="430.92" style="stroke: #000000"/>
     <use xlink:href="#m27136a9589" x="243.253624" y="78.12" style="stroke: #000000"/>
     <use xlink:href="#m27136a9589" x="248.222696" y="430.92" style="stroke: #000000"/>
     <use xlink:href="#m27136a9589" x="253.191767" y="78.12" style="stroke: #000000"/>
     <use xlink:href="#m27136a9589" x="258.321131" y="430.92" style="stroke: #000000"/>
     <use xlink:href="#m27136a9589" x="263.290202" y="430.92" style="stroke: #000000"/>
     <use xlink:href="#m27136a9589" x="268.259274" y="78.12" style="stroke: #000000"/>
     <use xlink:href="#m27136a9589" x="273.228345" y="430.92" style="stroke: #000000"/>
     <use xlink:href="#m27136a9589" x="278.357709" y="430.92" style="stroke: #000000"/>
     <use xlink:href="#m27136a9589" x="283.326781" y="78.12" style="stroke: #000000"/>
     <use xlink:href="#m27136a9589" x="288.295852" y="430.92" style="stroke: #000000"/>
     <use xlink:href="#m27136a9589" x="293.264923" y="78.12" style="stroke: #000000"/>
     <use xlink:href="#m27136a9589" x="298.394287" y="430.92" style="stroke: #000000"/>
     <use xlink:href="#m27136a9589" x="303.363359" y="430.92" style="stroke: #000000"/>
     <use xlink:href="#m27136a9589" x="308.33243" y="78.12" style="stroke: #000000"/>
     <use xlink:href="#m27136a9589" x="313.301501" y="430.92" style="stroke: #000000"/>
     <use xlink:href="#m27136a9589" x="318.430865" y="430.92" style="stroke: #000000"/>
     <use xlink:href="#m27136a9589" x="323.399937" y="78.12" style="stroke: #000000"/>
     <use xlink:href="#m27136a9589" x="328.369008" y="430.92" style="stroke: #000000"/>
     <use xlink:href="#m27136a9589" x="333.33808" y="78.12" style="stroke: #000000"/>
     <use xlink:href="#m27136a9589" x="338.467444" y="430.92" style="stroke: #000000"/>
     <use xlink:href="#m27136a9589" x="343.436515" y="430.92" style="stroke: #000000"/>
     <use xlink:href="#m27136a9589" x="348.405586" y="78.12" style="stroke: #000000"/>
     <use xlink:href="#m27136a9589" x="353.374658" y="430.92" style="stroke: #000000"/>
     <use xlink:href="#m27136a9589" x="358.504022" y="430.92" style="stroke: #000000"/>
     <use xlink:href="#m27136a9589" x="363.473093" y="78.12" style="stroke: #000000"/>
     <use xlink:href="#m27136a9589" x="368.442164" y="430.92" style="stroke: #000000"/>
     <use xlink:href="#m27136a9589" x="373.411236" y="78.12" style="stroke: #000000"/>
     <use xlink:href="#m27136a9589" x="378.5406" y="430.92" style="stroke: #000000"/>
     <use xlink:href="#m27136a9589" x="383.509671" y="430.92" style="stroke: #000000"/>
     <use xlink:href="#m27136a9589" x="388.478743" y="78.12" style="stroke: #000000"/>
     <use xlink:href="#m27136a9589" x="393.447814" y="430.92" style="stroke: #000000"/>
     <use xlink:href="#m27136a9589" x="398.577178" y="430.92" style="stroke: #000000"/>
     <use xlink:href="#m27136a9589" x="403.546249" y="78.12" style="stroke: #000000"/>
     <use xlink:href="#m27136a9589" x="408.515321" y="430.92" style="stroke: #000000"/>
     <use xlink:href="#m27136a9589" x="413.484392" y="78.12" style="stroke: #000000"/>
     <use xlink:href="#m27136a9589" x="418.613756" y="430.92" style="stroke: #000000"/>
     <use xlink:href="#m27136a9589" x="423.582827" y="430.92" style="stroke: #000000"/>
     <use xlink:href="#m27136a9589" x="428.551899" y="78.12" style="stroke: #000000"/>
     <use xlink:href="#m27136a9589" x="433.52097" y="430.92" style="stroke: #000000"/>
     <use xlink:href="#m27136a9589" x="438.650334" y="430.92" style="stroke: #000000"/>
     <use xlink:href="#m27136a9589" x="443.619406" y="78.12" style="stroke: #000000"/>
     <use xlink:href="#m27136a9589" x="448.588477" y="430.92" style="stroke: #000000"/>
     <use xlink:href="#m27136a9589" x="453.557548" y="78.12" style="stroke: #000000"/>
     <use xlink:href="#m27136a9589" x="458.686912" y="430.92" style="stroke: #000000"/>
     <use xlink:href="#m27136a9589" x="463.655984" y="430.92" style="stroke: #000000"/>
     <use xlink:href="#m27136a9589" x="468.625055" y="78.12" style="stroke: #000000"/>
     <use xlink:href="#m27136a9589" x="473.594126" y="430.92" style="stroke: #000000"/>
     <use xlink:href="#m27136a9589" x="478.72349" y="430.92" style="stroke: #000000"/>
     <use xlink:href="#m27136a9589" x="483.692562" y="78.12" style="stroke: #000000"/>
     <use xlink:href="#m27136a9589" x="488.661633" y="430.92" style="stroke: #000000"/>
     <use xlink:href="#m27136a9589" x="493.630705" y="78.12" style="stroke: #000000"/>
     <use xlink:href="#m27136a9589" x="498.760069" y="430.92" style="stroke: #000000"/>
     <use xlink:href="#m27136a9589" x="503.72914" y="430.92" style="stroke: #000000"/>
     <use xlink:href="#m27136a9589" x="508.698211" y="78.12" style="stroke: #000000"/>
     <use xlink:href="#m27136a9589" x="513.667283" y="430.92" style="stroke: #000000"/>
     <use xlink:href="#m27136a9589" x="518.796647" y="430.92" style="stroke: #000000"/>
     <use xlink:href="#m27136a9589" x="523.765718" y="78.12" style="stroke: #000000"/>
     <use xlink:href="#m27136a9589" x="528.734789" y="430.92" style="stroke: #000000"/>
     <use xlink:href="#m27136a9589" x="533.703861" y="78.12" style="stroke: #000000"/>
     <use xlink:href="#m27136a9589" x="538.833225" y="430.92" style="stroke: #000000"/>
     <use xlink:href="#m27136a9589" x="543.802296" y="430.92" style="stroke: #000000"/>
     <use xlink:href="#m27136a9589" x="548.771368" y="78.12" style="stroke: #000000"/>
     <use xlink:href="#m27136a9589" x="553.740439" y="430.92" style="stroke: #000000"/>
     <use xlink:href="#m27136a9589" x="558.869803" y="430.92" style="stroke: #000000"/>
     <use xlink:href="#m27136a9589" x="563.838874" y="78.12" style="stroke: #000000"/>
     <use xlink:href="#m27136a9589" x="568.807946" y="430.92" style="stroke: #000000"/>
     <use xlink:href="#m27136a9589" x="573.777017" y="78.12" style="stroke: #000000"/>
     <use xlink:href="#m27136a9589" x="578.906381" y="430.92" style="stroke: #000000"/>
     <use xlink:href="#m27136a9589" x="583.875452" y="430.92" style="stroke: #000000"/>
     <use xlink:href="#m27136a9589" x="588.844524" y="78.12" style="stroke: #000000"/>
     <use xlink:href="#m27136a9589" x="593.813595" y="430.92" style="stroke: #000000"/>
     <use xlink:href="#m27136a9589" x="598.942959" y="430.92" style="stroke: #000000"/>
     <use xlink:href="#m27136a9589" x="603.912031" y="78.12" style="stroke: #000000"/>
     <use xlink:href="#m27136a9589" x="608.881102" y="430.92" style="stroke: #000000"/>
     <use xlink:href="#m27136a9589" x="613.850173" y="78.12" style="stroke: #000000"/>
     <use xlink:href="#m27136a9589" x="618.979537" y="430.92" style="stroke: #000000"/>
     <use xlink:href="#m27136a9589" x="623.948609" y="430.92" style="stroke: #000000"/>
     <use xlink:href="#m27136a9589" x="628.91768" y="78.12" style="stroke: #000000"/>
     <use xlink:href="#m27136a9589" x="633.886751" y="430.92" style="stroke: #000000"/>
     <use xlink:href="#m27136a9589" x="639.016115" y="430.92" style="stroke: #000000"/>
     <use xlink:href="#m27136a9589" x="643.985187" y="78.12" style="stroke: #000000"/>
     <use xlink:href="#m27136a9589" x="648.954258" y="430.92" style="stroke: #000000"/>
     <use xlink:href="#m27136a9589" x="653.92333" y="78.12" style="stroke: #000000"/>
     <use xlink:href="#m27136a9589" x="659.052694" y="430.92" style="stroke: #000000"/>
     <use xlink:href="#m27136a9589" x="664.021765" y="430.92" style="stroke: #000000"/>
     <use xlink:href="#m27136a9589" x="668.990836" y="78.12" style="stroke: #000000"/>
     <use xlink:href="#m27136a9589" x="673.959908" y="430.92" style="stroke: #000000"/>
     <use xlink:href="#m27136a9589" x="679.089272" y="430.92" style="stroke: #000000"/>
     <use xlink:href="#m27136a9589" x="684.058343" y="78.12" style="stroke: #000000"/>
     <use xlink:href="#m27136a9589" x="689.027414" y="430.92" style="stroke: #000000"/>
     <use xlink:href="#m27136a9589" x="693.996486" y="78.12" style="stroke: #000000"/>
     <use xlink:href="#m27136a9589" x="699.12585" y="430.92" style="stroke: #000000"/>
     <use xlink:href="#m27136a9589" x="704.094921" y="430.92" style="stroke: #000000"/>
     <use xlink:href="#m27136a9589" x="709.063993" y="78.12" style="stroke: #000000"/>
     <use xlink:href="#m27136a9589" x="714.033064" y="430.92" style="stroke: #000000"/>
     <use xlink:href="#m27136a9589" x="719.162428" y="430.92" style="stroke: #000000"/>
     <use xlink:href="#m27136a9589" x="724.131499" y="78.12" style="stroke: #000000"/>
     <use xlink:href="#m27136a9589" x="729.100571" y="430.92" style="stroke: #000000"/>
     <use xlink:href="#m27136a9589" x="734.069642" y="78.12" style="stroke: #000000"/>
     <use xlink:href="#m27136a9589" x="739.199006" y="430.92" style="stroke: #000000"/>
     <use xlink:href="#m27136a9589" x="744.168077" y="430.92" style="stroke: #000000"/>
     <use xlink:href="#m27136a9589" x="749.137149" y="78.12" style="stroke: #000000"/>
     <use xlink:href="#m27136a9589" x="754.10622" y="430.92" style="stroke: #000000"/>
     <use xlink:href="#m27136a9589" x="759.235584" y="430.92" style="stroke: #000000"/>
     <use xlink:href="#m27136a9589" x="764.204656" y="78.12" style="stroke: #000000"/>
     <use xlink:href="#m27136a9589" x="769.173727" y="430.92" style="stroke: #000000"/>
     <use xlink:href="#m27136a9589" x="774.142798" y="78.12" style="stroke: #000000"/>
     <use xlink:href="#m27136a9589" x="779.272162" y="430.92" style="stroke: #000000"/>
     <use xlink:href="#m27136a9589" x="784.241234" y="430.92" style="stroke: #000000"/>
     <use xlink:href="#m27136a9589" x="789.210305" y="78.12" style="stroke: #000000"/>
     <use xlink:href="#m27136a9589" x="794.179376" y="430.92" style="stroke: #000000"/>
     <use xlink:href="#m27136a9589" x="799.30874" y="430.92" style="stroke: #000000"/>
     <use xlink:href="#m27136a9589" x="804.277812" y="78.12" style="stroke: #000000"/>
     <use xlink:href="#m27136a9589" x="809.246883" y="430.92" style="stroke: #000000"/>
     <use xlink:href="#m27136a9589" x="814.215955" y="78.12" style="stroke: #000000"/>
     <use xlink:href="#m27136a9589" x="819.345319" y="430.92" style="stroke: #000000"/>
     <use xlink:href="#m27136a9589" x="824.31439" y="430.92" style="stroke: #000000"/>
     <use xlink:href="#m27136a9589" x="829.283461" y="78.12" style="stroke: #000000"/>
     <use xlink:href="#m27136a9589" x="834.252533" y="430.92" style="stroke: #000000"/>
     <use xlink:href="#m27136a9589" x="839.381897" y="430.92" style="stroke: #000000"/>
     <use xlink:href="#m27136a9589" x="844.350968" y="78.12" style="stroke: #000000"/>
     <use xlink:href="#m27136a9589" x="849.320039" y="430.92" style="stroke: #000000"/>
     <use xlink:href="#m27136a9589" x="854.289111" y="78.12" style="stroke: #000000"/>
     <use xlink:href="#m27136a9589" x="859.418475" y="430.92" style="stroke: #000000"/>
     <use xlink:href="#m27136a9589" x="864.387546" y="430.92" style="stroke: #000000"/>
     <use xlink:href="#m27136a9589" x="869.356618" y="78.12" style="stroke: #000000"/>
     <use xlink:href="#m27136a9589" x="874.325689" y="430.92" style="stroke: #000000"/>
     <use xlink:href="#m27136a9589" x="879.455053" y="430.92" style="stroke: #000000"/>
     <use xlink:href="#m27136a9589" x="884.424124" y="78.12" style="stroke: #000000"/>
     <use xlink:href="#m27136a9589" x="889.393196" y="430.92" style="stroke: #000000"/>
     <use xlink:href="#m27136a9589" x="894.362267" y="78.12" style="stroke: #000000"/>
     <use xlink:href="#m27136a9589" x="899.491631" y="430.92" style="stroke: #000000"/>
     <use xlink:href="#m27136a9589" x="904.460702" y="430.92" style="stroke: #000000"/>
     <use xlink:href="#m27136a9589" x="909.429774" y="78.12" style="stroke: #000000"/>
     <use xlink:href="#m27136a9589" x="914.398845" y="430.92" style="stroke: #000000"/>
     <use xlink:href="#m27136a9589" x="919.528209" y="430.92" style="stroke: #000000"/>
     <use xlink:href="#m27136a9589" x="924.497281" y="78.12" style="stroke: #000000"/>
     <use xlink:href="#m27136a9589" x="929.466352" y="430.92" style="stroke: #000000"/>
    </g>
   </g>
   <g id="patch_3">
    <path d="M 135 448.56 
L 135 60.48 
" style="fill: none; stroke: #000000; stroke-width: 0.8; stroke-linejoin: miter; stroke-linecap: square"/>
   </g>
   <g id="patch_4">
    <path d="M 972 448.56 
L 972 60.48 
" style="fill: none; stroke: #000000; stroke-width: 0.8; stroke-linejoin: miter; stroke-linecap: square"/>
   </g>
   <g id="patch_5">
    <path d="M 135 448.56 
L 972 448.56 
" style="fill: none; stroke: #000000; stroke-width: 0.8; stroke-linejoin: miter; stroke-linecap: square"/>
   </g>
   <g id="patch_6">
    <path d="M 135 60.48 
L 972 60.48 
" style="fill: none; stroke: #000000; stroke-width: 0.8; stroke-linejoin: miter; stroke-linecap: square"/>
   </g>
   <g id="legend_1">
    <g id="patch_7">
     <path d="M 142 278.315313 
L 211.084375 278.315313 
Q 213.084375 278.315313 213.084375 276.315313 
L 213.084375 232.724688 
Q 213.084375 230.724688 211.084375 230.724688 
L 142 230.724688 
Q 140 230.724688 140 232.724688 
L 140 276.315313 
Q 140 278.315313 142 278.315313 
z
" style="fill: #ffffff; opacity: 0.8; stroke: #cccccc; stroke-linejoin: miter"/>
    </g>
    <g id="line2d_15">
     <path d="M 144 238.823125 
L 154 238.823125 
L 164 238.823125 
" style="fill: none; stroke: #1f77b4; stroke-width: 1.5; stroke-linecap: square"/>
    </g>
    <g id="text_13">
     <!-- nw_0 -->
     <g transform="translate(172 242.323125) scale(0.1 -0.1)">
      <defs>
       <path id="DejaVuSans-6e" d="M 3513 2113 
L 3513 0 
L 2938 0 
L 2938 2094 
Q 2938 2591 2744 2837 
Q 2550 3084 2163 3084 
Q 1697 3084 1428 2787 
Q 1159 2491 1159 1978 
L 1159 0 
L 581 0 
L 581 3500 
L 1159 3500 
L 1159 2956 
Q 1366 3272 1645 3428 
Q 1925 3584 2291 3584 
Q 2894 3584 3203 3211 
Q 3513 2838 3513 2113 
z
" transform="scale(0.015625)"/>
       <path id="DejaVuSans-77" d="M 269 3500 
L 844 3500 
L 1563 769 
L 2278 3500 
L 2956 3500 
L 3675 769 
L 4391 3500 
L 4966 3500 
L 4050 0 
L 3372 0 
L 2619 2869 
L 1863 0 
L 1184 0 
L 269 3500 
z
" transform="scale(0.015625)"/>
       <path id="DejaVuSans-5f" d="M 3263 -1063 
L 3263 -1509 
L -63 -1509 
L -63 -1063 
L 3263 -1063 
z
" transform="scale(0.015625)"/>
      </defs>
      <use xlink:href="#DejaVuSans-6e"/>
      <use xlink:href="#DejaVuSans-77" x="63.378906"/>
      <use xlink:href="#DejaVuSans-5f" x="145.166016"/>
      <use xlink:href="#DejaVuSans-30" x="195.166016"/>
     </g>
    </g>
    <g id="line2d_16">
     <path d="M 144 253.779375 
L 154 253.779375 
L 164 253.779375 
" style="fill: none; stroke: #ff7f0e; stroke-width: 1.5; stroke-linecap: square"/>
    </g>
    <g id="text_14">
     <!-- input_0 -->
     <g transform="translate(172 257.279375) scale(0.1 -0.1)">
      <defs>
       <path id="DejaVuSans-69" d="M 603 3500 
L 1178 3500 
L 1178 0 
L 603 0 
L 603 3500 
z
M 603 4863 
L 1178 4863 
L 1178 4134 
L 603 4134 
L 603 4863 
z
" transform="scale(0.015625)"/>
       <path id="DejaVuSans-70" d="M 1159 525 
L 1159 -1331 
L 581 -1331 
L 581 3500 
L 1159 3500 
L 1159 2969 
Q 1341 3281 1617 3432 
Q 1894 3584 2278 3584 
Q 2916 3584 3314 3078 
Q 3713 2572 3713 1747 
Q 3713 922 3314 415 
Q 2916 -91 2278 -91 
Q 1894 -91 1617 61 
Q 1341 213 1159 525 
z
M 3116 1747 
Q 3116 2381 2855 2742 
Q 2594 3103 2138 3103 
Q 1681 3103 1420 2742 
Q 1159 2381 1159 1747 
Q 1159 1113 1420 752 
Q 1681 391 2138 391 
Q 2594 391 2855 752 
Q 3116 1113 3116 1747 
z
" transform="scale(0.015625)"/>
       <path id="DejaVuSans-75" d="M 544 1381 
L 544 3500 
L 1119 3500 
L 1119 1403 
Q 1119 906 1312 657 
Q 1506 409 1894 409 
Q 2359 409 2629 706 
Q 2900 1003 2900 1516 
L 2900 3500 
L 3475 3500 
L 3475 0 
L 2900 0 
L 2900 538 
Q 2691 219 2414 64 
Q 2138 -91 1772 -91 
Q 1169 -91 856 284 
Q 544 659 544 1381 
z
M 1991 3584 
L 1991 3584 
z
" transform="scale(0.015625)"/>
      </defs>
      <use xlink:href="#DejaVuSans-69"/>
      <use xlink:href="#DejaVuSans-6e" x="27.783203"/>
      <use xlink:href="#DejaVuSans-70" x="91.162109"/>
      <use xlink:href="#DejaVuSans-75" x="154.638672"/>
      <use xlink:href="#DejaVuSans-74" x="218.017578"/>
      <use xlink:href="#DejaVuSans-5f" x="257.226562"/>
      <use xlink:href="#DejaVuSans-30" x="307.226562"/>
     </g>
    </g>
    <g id="line2d_17">
     <path d="M 144 268.735625 
L 154 268.735625 
L 164 268.735625 
" style="fill: none; stroke: #000000; stroke-width: 1.5; stroke-linecap: square"/>
     <g>
      <use xlink:href="#m27136a9589" x="154" y="268.735625" style="stroke: #000000"/>
     </g>
    </g>
    <g id="text_15">
     <!-- target -->
     <g transform="translate(172 272.235625) scale(0.1 -0.1)">
      <defs>
       <path id="DejaVuSans-61" d="M 2194 1759 
Q 1497 1759 1228 1600 
Q 959 1441 959 1056 
Q 959 750 1161 570 
Q 1363 391 1709 391 
Q 2188 391 2477 730 
Q 2766 1069 2766 1631 
L 2766 1759 
L 2194 1759 
z
M 3341 1997 
L 3341 0 
L 2766 0 
L 2766 531 
Q 2569 213 2275 61 
Q 1981 -91 1556 -91 
Q 1019 -91 701 211 
Q 384 513 384 1019 
Q 384 1609 779 1909 
Q 1175 2209 1959 2209 
L 2766 2209 
L 2766 2266 
Q 2766 2663 2505 2880 
Q 2244 3097 1772 3097 
Q 1472 3097 1187 3025 
Q 903 2953 641 2809 
L 641 3341 
Q 956 3463 1253 3523 
Q 1550 3584 1831 3584 
Q 2591 3584 2966 3190 
Q 3341 2797 3341 1997 
z
" transform="scale(0.015625)"/>
       <path id="DejaVuSans-72" d="M 2631 2963 
Q 2534 3019 2420 3045 
Q 2306 3072 2169 3072 
Q 1681 3072 1420 2755 
Q 1159 2438 1159 1844 
L 1159 0 
L 581 0 
L 581 3500 
L 1159 3500 
L 1159 2956 
Q 1341 3275 1631 3429 
Q 1922 3584 2338 3584 
Q 2397 3584 2469 3576 
Q 2541 3569 2628 3553 
L 2631 2963 
z
" transform="scale(0.015625)"/>
       <path id="DejaVuSans-67" d="M 2906 1791 
Q 2906 2416 2648 2759 
Q 2391 3103 1925 3103 
Q 1463 3103 1205 2759 
Q 947 2416 947 1791 
Q 947 1169 1205 825 
Q 1463 481 1925 481 
Q 2391 481 2648 825 
Q 2906 1169 2906 1791 
z
M 3481 434 
Q 3481 -459 3084 -895 
Q 2688 -1331 1869 -1331 
Q 1566 -1331 1297 -1286 
Q 1028 -1241 775 -1147 
L 775 -588 
Q 1028 -725 1275 -790 
Q 1522 -856 1778 -856 
Q 2344 -856 2625 -561 
Q 2906 -266 2906 331 
L 2906 616 
Q 2728 306 2450 153 
Q 2172 0 1784 0 
Q 1141 0 747 490 
Q 353 981 353 1791 
Q 353 2603 747 3093 
Q 1141 3584 1784 3584 
Q 2172 3584 2450 3431 
Q 2728 3278 2906 2969 
L 2906 3500 
L 3481 3500 
L 3481 434 
z
" transform="scale(0.015625)"/>
       <path id="DejaVuSans-65" d="M 3597 1894 
L 3597 1613 
L 953 1613 
Q 991 1019 1311 708 
Q 1631 397 2203 397 
Q 2534 397 2845 478 
Q 3156 559 3463 722 
L 3463 178 
Q 3153 47 2828 -22 
Q 2503 -91 2169 -91 
Q 1331 -91 842 396 
Q 353 884 353 1716 
Q 353 2575 817 3079 
Q 1281 3584 2069 3584 
Q 2775 3584 3186 3129 
Q 3597 2675 3597 1894 
z
M 3022 2063 
Q 3016 2534 2758 2815 
Q 2500 3097 2075 3097 
Q 1594 3097 1305 2825 
Q 1016 2553 972 2059 
L 3022 2063 
z
" transform="scale(0.015625)"/>
      </defs>
      <use xlink:href="#DejaVuSans-74"/>
      <use xlink:href="#DejaVuSans-61" x="39.208984"/>
      <use xlink:href="#DejaVuSans-72" x="100.488281"/>
      <use xlink:href="#DejaVuSans-67" x="139.851562"/>
      <use xlink:href="#DejaVuSans-65" x="203.328125"/>
      <use xlink:href="#DejaVuSans-74" x="264.851562"/>
     </g>
    </g>
   </g>
  </g>
 </g>
 <defs>
  <clipPath id="p05544e795e">
   <rect x="135" y="60.48" width="837" height="388.08"/>
  </clipPath>
 </defs>
</svg>
