<?xml version="1.0" encoding="utf-8" standalone="no"?>
<!DOCTYPE svg PUBLIC "-//W3C//DTD SVG 1.1//EN"
  "http://www.w3.org/Graphics/SVG/1.1/DTD/svg11.dtd">
<svg xmlns:xlink="http://www.w3.org/1999/xlink" width="1080pt" height="504pt" viewBox="0 0 1080 504" xmlns="http://www.w3.org/2000/svg" version="1.1">
 <metadata>
  <rdf:RDF xmlns:dc="http://purl.org/dc/elements/1.1/" xmlns:cc="http://creativecommons.org/ns#" xmlns:rdf="http://www.w3.org/1999/02/22-rdf-syntax-ns#">
   <cc:Work>
    <dc:type rdf:resource="http://purl.org/dc/dcmitype/StillImage"/>
    <dc:date>2024-05-09T11:02:34.210990</dc:date>
    <dc:format>image/svg+xml</dc:format>
    <dc:creator>
     <cc:Agent>
      <dc:title>Matplotlib v3.7.1, https://matplotlib.org/</dc:title>
     </cc:Agent>
    </dc:creator>
   </cc:Work>
  </rdf:RDF>
 </metadata>
 <defs>
  <style type="text/css">*{stroke-linejoin: round; stroke-linecap: butt}</style>
 </defs>
 <g id="figure_1">
  <g id="patch_1">
   <path d="M 0 504 
L 1080 504 
L 1080 0 
L 0 0 
z
" style="fill: #ffffff"/>
  </g>
  <g id="axes_1">
   <g id="patch_2">
    <path d="M 135 448.56 
L 972 448.56 
L 972 60.48 
L 135 60.48 
z
" style="fill: #ffffff"/>
   </g>
   <g id="matplotlib.axis_1">
    <g id="xtick_1">
     <g id="line2d_1">
      <defs>
       <path id="m19546366fe" d="M 0 0 
L 0 3.5 
" style="stroke: #000000; stroke-width: 0.8"/>
      </defs>
      <g>
       <use xlink:href="#m19546366fe" x="173.045455" y="448.56" style="stroke: #000000; stroke-width: 0.8"/>
      </g>
     </g>
     <g id="text_1">
      <!-- 0 -->
      <g transform="translate(169.864205 463.158437) scale(0.1 -0.1)">
       <defs>
        <path id="DejaVuSans-30" d="M 2034 4250 
Q 1547 4250 1301 3770 
Q 1056 3291 1056 2328 
Q 1056 1369 1301 889 
Q 1547 409 2034 409 
Q 2525 409 2770 889 
Q 3016 1369 3016 2328 
Q 3016 3291 2770 3770 
Q 2525 4250 2034 4250 
z
M 2034 4750 
Q 2819 4750 3233 4129 
Q 3647 3509 3647 2328 
Q 3647 1150 3233 529 
Q 2819 -91 2034 -91 
Q 1250 -91 836 529 
Q 422 1150 422 2328 
Q 422 3509 836 4129 
Q 1250 4750 2034 4750 
z
" transform="scale(0.015625)"/>
       </defs>
       <use xlink:href="#DejaVuSans-30"/>
      </g>
     </g>
    </g>
    <g id="xtick_2">
     <g id="line2d_2">
      <g>
       <use xlink:href="#m19546366fe" x="333.33808" y="448.56" style="stroke: #000000; stroke-width: 0.8"/>
      </g>
     </g>
     <g id="text_2">
      <!-- 1000 -->
      <g transform="translate(320.61308 463.158437) scale(0.1 -0.1)">
       <defs>
        <path id="DejaVuSans-31" d="M 794 531 
L 1825 531 
L 1825 4091 
L 703 3866 
L 703 4441 
L 1819 4666 
L 2450 4666 
L 2450 531 
L 3481 531 
L 3481 0 
L 794 0 
L 794 531 
z
" transform="scale(0.015625)"/>
       </defs>
       <use xlink:href="#DejaVuSans-31"/>
       <use xlink:href="#DejaVuSans-30" x="63.623047"/>
       <use xlink:href="#DejaVuSans-30" x="127.246094"/>
       <use xlink:href="#DejaVuSans-30" x="190.869141"/>
      </g>
     </g>
    </g>
    <g id="xtick_3">
     <g id="line2d_3">
      <g>
       <use xlink:href="#m19546366fe" x="493.630705" y="448.56" style="stroke: #000000; stroke-width: 0.8"/>
      </g>
     </g>
     <g id="text_3">
      <!-- 2000 -->
      <g transform="translate(480.905705 463.158437) scale(0.1 -0.1)">
       <defs>
        <path id="DejaVuSans-32" d="M 1228 531 
L 3431 531 
L 3431 0 
L 469 0 
L 469 531 
Q 828 903 1448 1529 
Q 2069 2156 2228 2338 
Q 2531 2678 2651 2914 
Q 2772 3150 2772 3378 
Q 2772 3750 2511 3984 
Q 2250 4219 1831 4219 
Q 1534 4219 1204 4116 
Q 875 4013 500 3803 
L 500 4441 
Q 881 4594 1212 4672 
Q 1544 4750 1819 4750 
Q 2544 4750 2975 4387 
Q 3406 4025 3406 3419 
Q 3406 3131 3298 2873 
Q 3191 2616 2906 2266 
Q 2828 2175 2409 1742 
Q 1991 1309 1228 531 
z
" transform="scale(0.015625)"/>
       </defs>
       <use xlink:href="#DejaVuSans-32"/>
       <use xlink:href="#DejaVuSans-30" x="63.623047"/>
       <use xlink:href="#DejaVuSans-30" x="127.246094"/>
       <use xlink:href="#DejaVuSans-30" x="190.869141"/>
      </g>
     </g>
    </g>
    <g id="xtick_4">
     <g id="line2d_4">
      <g>
       <use xlink:href="#m19546366fe" x="653.92333" y="448.56" style="stroke: #000000; stroke-width: 0.8"/>
      </g>
     </g>
     <g id="text_4">
      <!-- 3000 -->
      <g transform="translate(641.19833 463.158437) scale(0.1 -0.1)">
       <defs>
        <path id="DejaVuSans-33" d="M 2597 2516 
Q 3050 2419 3304 2112 
Q 3559 1806 3559 1356 
Q 3559 666 3084 287 
Q 2609 -91 1734 -91 
Q 1441 -91 1130 -33 
Q 819 25 488 141 
L 488 750 
Q 750 597 1062 519 
Q 1375 441 1716 441 
Q 2309 441 2620 675 
Q 2931 909 2931 1356 
Q 2931 1769 2642 2001 
Q 2353 2234 1838 2234 
L 1294 2234 
L 1294 2753 
L 1863 2753 
Q 2328 2753 2575 2939 
Q 2822 3125 2822 3475 
Q 2822 3834 2567 4026 
Q 2313 4219 1838 4219 
Q 1578 4219 1281 4162 
Q 984 4106 628 3988 
L 628 4550 
Q 988 4650 1302 4700 
Q 1616 4750 1894 4750 
Q 2613 4750 3031 4423 
Q 3450 4097 3450 3541 
Q 3450 3153 3228 2886 
Q 3006 2619 2597 2516 
z
" transform="scale(0.015625)"/>
       </defs>
       <use xlink:href="#DejaVuSans-33"/>
       <use xlink:href="#DejaVuSans-30" x="63.623047"/>
       <use xlink:href="#DejaVuSans-30" x="127.246094"/>
       <use xlink:href="#DejaVuSans-30" x="190.869141"/>
      </g>
     </g>
    </g>
    <g id="xtick_5">
     <g id="line2d_5">
      <g>
       <use xlink:href="#m19546366fe" x="814.215955" y="448.56" style="stroke: #000000; stroke-width: 0.8"/>
      </g>
     </g>
     <g id="text_5">
      <!-- 4000 -->
      <g transform="translate(801.490955 463.158437) scale(0.1 -0.1)">
       <defs>
        <path id="DejaVuSans-34" d="M 2419 4116 
L 825 1625 
L 2419 1625 
L 2419 4116 
z
M 2253 4666 
L 3047 4666 
L 3047 1625 
L 3713 1625 
L 3713 1100 
L 3047 1100 
L 3047 0 
L 2419 0 
L 2419 1100 
L 313 1100 
L 313 1709 
L 2253 4666 
z
" transform="scale(0.015625)"/>
       </defs>
       <use xlink:href="#DejaVuSans-34"/>
       <use xlink:href="#DejaVuSans-30" x="63.623047"/>
       <use xlink:href="#DejaVuSans-30" x="127.246094"/>
       <use xlink:href="#DejaVuSans-30" x="190.869141"/>
      </g>
     </g>
    </g>
    <g id="text_6">
     <!-- t -->
     <g transform="translate(551.539844 476.836563) scale(0.1 -0.1)">
      <defs>
       <path id="DejaVuSans-74" d="M 1172 4494 
L 1172 3500 
L 2356 3500 
L 2356 3053 
L 1172 3053 
L 1172 1153 
Q 1172 725 1289 603 
Q 1406 481 1766 481 
L 2356 481 
L 2356 0 
L 1766 0 
Q 1100 0 847 248 
Q 594 497 594 1153 
L 594 3053 
L 172 3053 
L 172 3500 
L 594 3500 
L 594 4494 
L 1172 4494 
z
" transform="scale(0.015625)"/>
      </defs>
      <use xlink:href="#DejaVuSans-74"/>
     </g>
    </g>
   </g>
   <g id="matplotlib.axis_2">
    <g id="ytick_1">
     <g id="line2d_6">
      <defs>
       <path id="m9c6b6ae686" d="M 0 0 
L -3.5 0 
" style="stroke: #000000; stroke-width: 0.8"/>
      </defs>
      <g>
       <use xlink:href="#m9c6b6ae686" x="135" y="425.202613" style="stroke: #000000; stroke-width: 0.8"/>
      </g>
     </g>
     <g id="text_7">
      <!-- −1.0 -->
      <g transform="translate(103.717187 429.001832) scale(0.1 -0.1)">
       <defs>
        <path id="DejaVuSans-2212" d="M 678 2272 
L 4684 2272 
L 4684 1741 
L 678 1741 
L 678 2272 
z
" transform="scale(0.015625)"/>
        <path id="DejaVuSans-2e" d="M 684 794 
L 1344 794 
L 1344 0 
L 684 0 
L 684 794 
z
" transform="scale(0.015625)"/>
       </defs>
       <use xlink:href="#DejaVuSans-2212"/>
       <use xlink:href="#DejaVuSans-31" x="83.789062"/>
       <use xlink:href="#DejaVuSans-2e" x="147.412109"/>
       <use xlink:href="#DejaVuSans-30" x="179.199219"/>
      </g>
     </g>
    </g>
    <g id="ytick_2">
     <g id="line2d_7">
      <g>
       <use xlink:href="#m9c6b6ae686" x="135" y="376.504185" style="stroke: #000000; stroke-width: 0.8"/>
      </g>
     </g>
     <g id="text_8">
      <!-- −0.5 -->
      <g transform="translate(103.717187 380.303404) scale(0.1 -0.1)">
       <defs>
        <path id="DejaVuSans-35" d="M 691 4666 
L 3169 4666 
L 3169 4134 
L 1269 4134 
L 1269 2991 
Q 1406 3038 1543 3061 
Q 1681 3084 1819 3084 
Q 2600 3084 3056 2656 
Q 3513 2228 3513 1497 
Q 3513 744 3044 326 
Q 2575 -91 1722 -91 
Q 1428 -91 1123 -41 
Q 819 9 494 109 
L 494 744 
Q 775 591 1075 516 
Q 1375 441 1709 441 
Q 2250 441 2565 725 
Q 2881 1009 2881 1497 
Q 2881 1984 2565 2268 
Q 2250 2553 1709 2553 
Q 1456 2553 1204 2497 
Q 953 2441 691 2322 
L 691 4666 
z
" transform="scale(0.015625)"/>
       </defs>
       <use xlink:href="#DejaVuSans-2212"/>
       <use xlink:href="#DejaVuSans-30" x="83.789062"/>
       <use xlink:href="#DejaVuSans-2e" x="147.412109"/>
       <use xlink:href="#DejaVuSans-35" x="179.199219"/>
      </g>
     </g>
    </g>
    <g id="ytick_3">
     <g id="line2d_8">
      <g>
       <use xlink:href="#m9c6b6ae686" x="135" y="327.805756" style="stroke: #000000; stroke-width: 0.8"/>
      </g>
     </g>
     <g id="text_9">
      <!-- 0.0 -->
      <g transform="translate(112.096875 331.604975) scale(0.1 -0.1)">
       <use xlink:href="#DejaVuSans-30"/>
       <use xlink:href="#DejaVuSans-2e" x="63.623047"/>
       <use xlink:href="#DejaVuSans-30" x="95.410156"/>
      </g>
     </g>
    </g>
    <g id="ytick_4">
     <g id="line2d_9">
      <g>
       <use xlink:href="#m9c6b6ae686" x="135" y="279.107328" style="stroke: #000000; stroke-width: 0.8"/>
      </g>
     </g>
     <g id="text_10">
      <!-- 0.5 -->
      <g transform="translate(112.096875 282.906547) scale(0.1 -0.1)">
       <use xlink:href="#DejaVuSans-30"/>
       <use xlink:href="#DejaVuSans-2e" x="63.623047"/>
       <use xlink:href="#DejaVuSans-35" x="95.410156"/>
      </g>
     </g>
    </g>
    <g id="ytick_5">
     <g id="line2d_10">
      <g>
       <use xlink:href="#m9c6b6ae686" x="135" y="230.4089" style="stroke: #000000; stroke-width: 0.8"/>
      </g>
     </g>
     <g id="text_11">
      <!-- 1.0 -->
      <g transform="translate(112.096875 234.208118) scale(0.1 -0.1)">
       <use xlink:href="#DejaVuSans-31"/>
       <use xlink:href="#DejaVuSans-2e" x="63.623047"/>
       <use xlink:href="#DejaVuSans-30" x="95.410156"/>
      </g>
     </g>
    </g>
    <g id="ytick_6">
     <g id="line2d_11">
      <g>
       <use xlink:href="#m9c6b6ae686" x="135" y="181.710471" style="stroke: #000000; stroke-width: 0.8"/>
      </g>
     </g>
     <g id="text_12">
      <!-- 1.5 -->
      <g transform="translate(112.096875 185.50969) scale(0.1 -0.1)">
       <use xlink:href="#DejaVuSans-31"/>
       <use xlink:href="#DejaVuSans-2e" x="63.623047"/>
       <use xlink:href="#DejaVuSans-35" x="95.410156"/>
      </g>
     </g>
    </g>
    <g id="ytick_7">
     <g id="line2d_12">
      <g>
       <use xlink:href="#m9c6b6ae686" x="135" y="133.012043" style="stroke: #000000; stroke-width: 0.8"/>
      </g>
     </g>
     <g id="text_13">
      <!-- 2.0 -->
      <g transform="translate(112.096875 136.811261) scale(0.1 -0.1)">
       <use xlink:href="#DejaVuSans-32"/>
       <use xlink:href="#DejaVuSans-2e" x="63.623047"/>
       <use xlink:href="#DejaVuSans-30" x="95.410156"/>
      </g>
     </g>
    </g>
    <g id="ytick_8">
     <g id="line2d_13">
      <g>
       <use xlink:href="#m9c6b6ae686" x="135" y="84.313614" style="stroke: #000000; stroke-width: 0.8"/>
      </g>
     </g>
     <g id="text_14">
      <!-- 2.5 -->
      <g transform="translate(112.096875 88.112833) scale(0.1 -0.1)">
       <use xlink:href="#DejaVuSans-32"/>
       <use xlink:href="#DejaVuSans-2e" x="63.623047"/>
       <use xlink:href="#DejaVuSans-35" x="95.410156"/>
      </g>
     </g>
    </g>
   </g>
   <g id="line2d_14">
    <path d="M 173.045455 239.103003 
L 173.205747 223.361116 
L 173.526332 275.214499 
L 173.846918 325.440638 
L 174.00721 334.237622 
L 174.167503 331.487451 
L 174.488088 298.574962 
L 175.770429 101.581962 
L 176.091014 82.115542 
L 176.251307 78.317419 
L 176.4116 78.12 
L 176.571892 81.143318 
L 176.892478 95.058298 
L 177.533648 140.684359 
L 177.693941 153.017914 
L 178.014526 332.343166 
L 178.335111 393.989422 
L 178.655696 410.850323 
L 178.815989 413.14602 
L 178.976282 413.650603 
L 179.136574 412.95462 
L 179.45716 408.450345 
L 179.777745 399.798957 
L 181.380671 346.650343 
L 181.701256 344.715733 
L 181.861549 345.023533 
L 182.182134 347.576951 
L 183.464475 362.175799 
L 183.624768 362.454267 
L 183.78506 362.135832 
L 184.105646 359.640794 
L 184.426231 354.742657 
L 184.907109 343.618916 
L 186.029157 309.407909 
L 187.151206 278.283207 
L 188.112961 257.56638 
L 188.914424 244.813239 
L 189.395302 240.102514 
L 189.715888 238.539042 
L 189.87618 238.270065 
L 190.036473 238.349017 
L 190.196765 238.773499 
L 190.517351 240.621595 
L 190.998229 245.618491 
L 191.639399 255.280039 
L 193.723203 289.391032 
L 194.684959 300.849805 
L 195.646715 309.806193 
L 196.60847 316.703681 
L 197.409934 320.963069 
L 198.051104 323.270852 
L 198.531982 324.165491 
L 198.852567 324.251514 
L 199.173152 323.845884 
L 199.493738 322.876262 
L 199.974616 320.226057 
L 200.455493 316.015613 
L 201.096664 307.958298 
L 201.898127 294.604475 
L 203.821639 260.480673 
L 204.302516 255.002952 
L 204.783394 251.898884 
L 205.10398 251.32285 
L 205.264272 251.504139 
L 205.584857 252.809938 
L 205.905443 255.34024 
L 206.386321 261.222537 
L 207.187784 275.124931 
L 208.630417 301.304722 
L 209.111295 306.800494 
L 209.43188 308.961787 
L 209.752466 309.822116 
L 209.912758 309.761829 
L 210.073051 309.382949 
L 210.393636 307.722902 
L 210.874514 303.290568 
L 211.675977 292.737443 
L 212.637733 280.554088 
L 213.118611 276.921797 
L 213.278903 276.266874 
L 213.599489 153.409338 
L 213.759781 158.656493 
L 214.561244 251.02893 
L 214.721537 256.410286 
L 214.88183 257.888845 
L 215.042122 256.74797 
L 215.843585 245.598059 
L 216.003878 245.98384 
L 216.164171 247.603534 
L 216.484756 254.069146 
L 217.92739 291.304877 
L 218.087682 291.834749 
L 218.408267 413.715185 
L 218.56856 419.276438 
L 218.889145 390.847083 
L 219.370023 345.259506 
L 219.690608 333.747947 
L 219.850901 332.48392 
L 220.011194 333.010339 
L 220.812657 339.903371 
L 220.972949 339.96286 
L 221.133242 339.463368 
L 221.453827 337.194521 
L 222.415583 328.596072 
L 222.736168 327.220729 
L 223.056754 326.851716 
L 223.217046 326.974108 
L 223.697924 327.977201 
L 224.018509 328.591605 
L 224.178802 328.710805 
L 224.339095 328.639346 
L 224.499387 328.337997 
L 224.819972 326.935445 
L 225.140558 324.380396 
L 225.621436 318.46992 
L 226.262606 307.587514 
L 227.865532 274.702404 
L 228.987581 253.971336 
L 229.628751 246.261856 
L 229.949336 244.163453 
L 230.269922 243.394721 
L 230.430214 243.523261 
L 230.7508 244.797073 
L 231.071385 247.367044 
L 231.552263 253.371977 
L 232.353726 267.518205 
L 234.277237 304.12232 
L 235.0787 314.530574 
L 235.719871 320.039235 
L 236.200749 322.70474 
L 236.681627 324.365393 
L 237.162505 325.286288 
L 237.643382 325.704028 
L 238.12426 325.767206 
L 238.444846 325.627892 
L 238.765431 325.313776 
L 239.086016 324.770943 
L 239.566894 323.364729 
L 240.047772 320.993879 
L 240.52865 317.393175 
L 241.16982 310.394922 
L 241.971283 298.20955 
L 244.535965 254.358043 
L 245.016843 250.329545 
L 245.337428 249.052288 
L 245.497721 248.863959 
L 245.658014 248.981628 
L 245.978599 250.134052 
L 246.299184 252.475941 
L 246.780062 258.019446 
L 247.421233 268.373952 
L 249.344744 301.828321 
L 249.825622 306.55345 
L 250.146207 308.363193 
L 250.466792 309.082222 
L 250.627085 309.048048 
L 250.787378 308.767372 
L 251.107963 307.535789 
L 251.588841 304.3521 
L 253.191767 291.685214 
L 253.512352 290.567071 
L 253.672645 290.346472 
L 253.832938 290.37397 
L 253.99323 290.662831 
L 254.313815 155.973193 
L 254.474108 155.818029 
L 255.275571 231.4415 
L 255.435864 235.917909 
L 255.596156 237.182896 
L 255.756449 236.403814 
L 256.237327 231.419713 
L 256.39762 231.017319 
L 256.557912 231.79792 
L 256.878497 237.117912 
L 257.359375 252.807518 
L 258.481424 294.791931 
L 258.802009 300.762366 
L 259.122594 408.749362 
L 259.282887 407.442732 
L 259.763765 345.526418 
L 260.08435 314.165921 
L 260.404935 303.15195 
L 260.565228 303.434 
L 260.885813 310.161652 
L 261.526984 326.641976 
L 261.847569 330.76342 
L 262.007861 331.643889 
L 262.168154 331.873545 
L 262.328447 331.586762 
L 262.649032 330.018761 
L 263.450495 325.445554 
L 263.77108 324.645703 
L 263.931373 324.51302 
L 264.251958 324.642189 
L 264.893129 325.194572 
L 265.053421 325.105077 
L 265.374007 324.36009 
L 265.694592 322.691381 
L 266.17547 318.316139 
L 266.81664 309.467037 
L 267.938689 289.581331 
L 269.541615 261.029428 
L 270.182785 252.697266 
L 270.663663 248.876345 
L 270.984248 247.736121 
L 271.144541 247.616388 
L 271.304834 247.801601 
L 271.625419 249.080438 
L 271.946004 251.526666 
L 272.426882 257.161919 
L 273.068053 267.510723 
L 275.312149 307.316177 
L 275.95332 314.724702 
L 276.59449 319.629738 
L 277.075368 321.879168 
L 277.556246 323.191957 
L 278.037124 323.855435 
L 278.518002 324.107769 
L 278.99888 324.077561 
L 279.479758 323.750161 
L 279.800343 323.295013 
L 280.281221 322.07491 
L 280.762099 319.949204 
L 281.242976 316.640872 
L 281.884147 310.079045 
L 282.525317 301.049768 
L 283.647366 281.180134 
L 284.769414 261.851119 
L 285.410585 254.127334 
L 285.891463 250.907275 
L 286.212048 250.18025 
L 286.37234 250.262519 
L 286.532633 250.644065 
L 286.853218 252.292817 
L 287.334096 256.852168 
L 287.975267 266.150185 
L 290.219363 303.59556 
L 290.700241 307.661118 
L 291.020827 309.077692 
L 291.341412 309.474755 
L 291.501704 309.314109 
L 291.82229 308.351288 
L 292.303168 305.622478 
L 293.585509 296.05635 
L 293.906094 177.095401 
L 294.066386 179.821877 
L 294.707557 242.402736 
L 295.028142 250.903688 
L 295.188435 250.055755 
L 295.989898 238.311051 
L 296.150191 238.966062 
L 296.470776 244.779582 
L 296.951654 262.402207 
L 298.073702 308.715308 
L 298.394287 314.822388 
L 298.714873 422.197904 
L 298.875165 418.945244 
L 299.836921 301.87691 
L 299.997214 297.127298 
L 300.157506 296.386563 
L 300.317799 298.507919 
L 300.798677 312.280103 
L 301.279555 324.673742 
L 301.60014 329.197961 
L 301.920725 330.965631 
L 302.081018 331.080121 
L 302.24131 330.840994 
L 302.722188 329.068744 
L 303.203066 327.307951 
L 303.523651 326.628197 
L 303.844237 326.318015 
L 304.325114 326.044209 
L 304.6457 325.550464 
L 304.966285 324.487052 
L 305.28687 322.674141 
L 305.767748 318.426047 
L 306.408919 310.260718 
L 307.370674 294.728732 
L 309.614771 256.959265 
L 310.095649 251.940742 
L 310.416234 249.899837 
L 310.736819 249.029329 
L 310.897112 249.049743 
L 311.057405 249.375786 
L 311.37799 250.929465 
L 311.858868 255.370546 
L 312.500038 264.52753 
L 313.782379 288.094729 
L 314.744135 304.238193 
L 315.545598 314.000675 
L 316.186769 319.091594 
L 316.667647 321.531672 
L 317.148524 323.07252 
L 317.629402 323.992062 
L 318.11028 324.51471 
L 318.591158 324.751434 
L 318.911743 324.739531 
L 319.232329 324.542222 
L 319.552914 324.090045 
L 319.873499 323.297713 
L 320.354377 321.271611 
L 320.835255 317.99211 
L 321.316133 313.269101 
L 321.957303 304.68249 
L 322.919059 287.946697 
L 324.361693 262.08415 
L 325.002863 254.166998 
L 325.483741 250.839012 
L 325.804326 250.057172 
L 325.964619 250.116692 
L 326.124911 250.478282 
L 326.445497 252.094375 
L 326.926375 256.618132 
L 327.567545 265.880112 
L 329.811642 303.162368 
L 330.29252 307.204952 
L 330.613105 308.618268 
L 330.93369 309.024734 
L 331.093983 308.874191 
L 331.414568 307.943301 
L 331.895446 305.292928 
L 333.498372 294.567222 
L 333.818957 293.760276 
L 334.139543 164.844399 
L 334.299835 165.243611 
L 335.101298 235.434648 
L 335.261591 238.787562 
L 335.421884 239.14977 
L 335.742469 235.519564 
L 336.063054 232.080783 
L 336.223347 231.841638 
L 336.383639 232.927645 
L 336.704225 239.169344 
L 337.185103 256.625112 
L 338.307151 301.96885 
L 338.627736 308.368062 
L 338.948321 413.671406 
L 339.108614 410.286642 
L 340.07037 298.741798 
L 340.230662 295.008491 
L 340.390955 295.154613 
L 340.71154 302.515102 
L 341.513003 325.63831 
L 341.833589 329.874948 
L 342.154174 331.219034 
L 342.314467 331.111188 
L 342.635052 329.987722 
L 343.436515 326.444107 
L 343.7571 325.799054 
L 344.077685 325.61959 
L 344.558563 325.631796 
L 344.879149 325.327434 
L 345.199734 324.411013 
L 345.520319 322.678904 
L 346.001197 318.407198 
L 346.642367 309.978161 
L 347.764416 291.035168 
L 349.687927 258.334179 
L 350.329098 251.443078 
L 350.649683 249.505285 
L 350.970268 248.717448 
L 351.130561 248.771015 
L 351.290854 249.124899 
L 351.611439 250.719758 
L 352.092317 255.194718 
L 352.733487 264.373 
L 354.015828 288.016006 
L 354.977584 304.243675 
L 355.779047 314.032762 
L 356.420218 319.088034 
L 356.901095 321.463772 
L 357.381973 322.910968 
L 357.862851 323.714538 
L 358.343729 324.109175 
L 358.824607 324.218302 
L 359.145192 324.128073 
L 359.465777 323.862196 
L 359.786363 323.354514 
L 360.106948 322.522441 
L 360.587826 320.470322 
L 361.068704 317.20743 
L 361.709874 310.662613 
L 362.351045 301.606674 
L 363.473093 281.621513 
L 364.595141 262.149881 
L 365.236312 254.351444 
L 365.71719 251.080565 
L 366.037775 250.321456 
L 366.198068 250.387976 
L 366.35836 250.753839 
L 366.678946 252.371029 
L 367.159823 256.88123 
L 367.800994 266.108363 
L 370.045091 303.355843 
L 370.525969 307.43303 
L 370.846554 308.875688 
L 371.167139 309.314348 
L 371.327432 309.1803 
L 371.648017 308.281774 
L 372.128895 305.674162 
L 373.090651 298.576226 
L 373.411236 183.617807 
L 373.571528 187.081435 
L 374.212699 248.307428 
L 374.372992 253.923972 
L 374.533284 255.341525 
L 374.693577 253.808198 
L 375.49504 239.927356 
L 375.655333 240.440178 
L 375.815625 242.566201 
L 376.13621 251.216139 
L 376.777381 279.452026 
L 377.418551 307.244857 
L 377.739137 316.111602 
L 377.899429 318.684275 
L 378.220015 426.245019 
L 378.380307 422.593094 
L 379.342063 301.149437 
L 379.502356 295.906026 
L 379.662648 294.804 
L 379.822941 296.692728 
L 380.303819 310.413994 
L 380.784697 323.371471 
L 381.105282 328.393373 
L 381.425867 330.638383 
L 381.58616 330.962507 
L 381.746452 330.906234 
L 382.067038 330.081336 
L 382.868501 327.411382 
L 383.349379 326.656076 
L 383.990549 325.898276 
L 384.311134 325.030638 
L 384.63172 323.535019 
L 385.112597 319.888543 
L 385.753768 312.53956 
L 386.715524 297.950766 
L 389.440498 254.127294 
L 389.921376 250.531774 
L 390.241961 249.568072 
L 390.402254 249.540491 
L 390.562547 249.818205 
L 390.883132 251.275776 
L 391.36401 255.578876 
L 392.00518 264.572979 
L 393.127229 284.939552 
L 394.249277 303.974352 
L 395.05074 313.726991 
L 395.691911 318.846894 
L 396.172789 321.329352 
L 396.653666 322.928557 
L 397.134544 323.919461 
L 397.615422 324.522043 
L 398.0963 324.841633 
L 398.416885 324.883518 
L 398.737471 324.736673 
L 399.058056 324.329935 
L 399.378641 323.576555 
L 399.859519 321.594304 
L 400.340397 318.339266 
L 400.821275 313.621014 
L 401.462445 305.012943 
L 402.424201 288.201791 
L 403.866835 262.196796 
L 404.508005 254.227171 
L 404.988883 250.868301 
L 405.309468 250.070052 
L 405.469761 250.122547 
L 405.630053 250.477839 
L 405.950639 252.083278 
L 406.431517 256.594827 
L 407.072687 265.844235 
L 409.316784 303.072417 
L 409.797662 307.103915 
L 410.118247 308.512161 
L 410.438832 308.916227 
L 410.599125 308.765677 
L 410.91971 307.837472 
L 411.400588 305.198468 
L 413.003514 294.570576 
L 413.324099 293.790596 
L 413.484392 293.719745 
L 413.644685 293.882494 
L 413.96527 159.834523 
L 414.125563 159.050997 
L 414.927026 229.561899 
L 415.087318 233.381634 
L 415.247611 234.193817 
L 415.407904 233.155615 
L 415.888781 228.339374 
L 416.049074 228.223944 
L 416.209367 229.366829 
L 416.529952 235.557674 
L 417.01083 252.697033 
L 418.132878 297.768042 
L 418.453463 304.504785 
L 418.774049 409.352329 
L 418.934341 406.141844 
L 419.896097 297.779514 
L 420.05639 294.50476 
L 420.216682 295.030857 
L 420.537268 302.908153 
L 421.338731 326.178736 
L 421.659316 330.212865 
L 421.819609 331.069678 
L 421.979901 331.31601 
L 422.140194 331.090903 
L 422.460779 329.76392 
L 423.262242 325.988459 
L 423.582827 325.357777 
L 423.903413 325.232665 
L 424.544583 325.302687 
L 424.865168 324.785841 
L 425.185754 323.513851 
L 425.506339 321.337909 
L 425.987217 316.364123 
L 426.628387 307.158996 
L 427.910728 284.652893 
L 429.353362 260.16173 
L 429.994532 252.551314 
L 430.47541 249.337318 
L 430.795996 248.600524 
L 430.956288 248.675461 
L 431.116581 249.04799 
L 431.437166 250.672486 
L 431.918044 255.175928 
L 432.559214 264.37314 
L 433.841555 288.035079 
L 434.803311 304.26739 
L 435.604774 314.038578 
L 436.245945 319.058031 
L 436.726823 321.393696 
L 437.207701 322.79103 
L 437.688578 323.537948 
L 438.169456 323.873481 
L 438.650334 323.926336 
L 439.131212 323.680938 
L 439.451797 323.279039 
L 439.772383 322.602883 
L 440.25326 320.884325 
L 440.734138 318.061957 
L 441.215016 313.906947 
L 441.856187 306.141907 
L 442.65765 293.288406 
L 444.741454 257.90505 
L 445.222332 253.11334 
L 445.542917 251.218888 
L 445.863502 250.469131 
L 446.023795 250.538312 
L 446.184088 250.905601 
L 446.504673 252.522338 
L 446.985551 257.025376 
L 447.626721 266.236465 
L 449.870818 303.468928 
L 450.351696 307.558284 
L 450.672281 309.010513 
L 450.992866 309.458873 
L 451.153159 309.329425 
L 451.473744 308.439015 
L 451.954622 305.839243 
L 453.557548 295.102301 
L 453.878134 170.864497 
L 454.038426 172.22663 
L 454.839889 241.059361 
L 455.000182 243.781098 
L 455.160475 243.548908 
L 455.961938 234.482931 
L 456.12223 235.486943 
L 456.442816 241.784858 
L 456.923693 259.693792 
L 458.045742 306.072577 
L 458.366327 312.414557 
L 458.686912 418.193357 
L 458.847205 414.56251 
L 459.808961 299.163861 
L 459.969253 294.916718 
L 460.129546 294.653321 
L 460.450131 301.506378 
L 461.251594 324.733674 
L 461.57218 329.291365 
L 461.892765 330.977079 
L 462.053057 331.027243 
L 462.373643 330.167212 
L 463.335398 326.488039 
L 463.655984 326.036493 
L 464.617739 325.3938 
L 464.938325 324.410678 
L 465.25891 322.653267 
L 465.739788 318.427694 
L 466.380958 310.18691 
L 467.503007 291.640532 
L 469.426518 258.92076 
L 470.067689 251.884028 
L 470.388274 249.873328 
L 470.708859 249.017327 
L 470.869152 249.039222 
L 471.029444 249.363227 
L 471.35003 250.90387 
L 471.830908 255.310755 
L 472.472078 264.418403 
L 473.594126 284.965796 
L 474.716175 304.150928 
L 475.517638 313.940967 
L 476.158808 319.025537 
L 476.639686 321.44069 
L 477.120564 322.940892 
L 477.601442 323.808043 
L 478.08232 324.272203 
L 478.563198 324.45093 
L 478.883783 324.403974 
L 479.204368 324.17669 
L 479.524954 323.701243 
L 479.845539 322.893655 
L 480.326417 320.861596 
L 480.807295 317.597444 
L 481.288172 312.910197 
L 481.929343 304.39785 
L 482.891099 287.807432 
L 484.333732 262.153127 
L 484.974903 254.297339 
L 485.455781 250.997611 
L 485.776366 250.225928 
L 485.936659 250.288014 
L 486.096951 250.65058 
L 486.417536 252.26421 
L 486.898414 256.774997 
L 487.539585 266.00873 
L 489.783682 303.244733 
L 490.264559 307.3085 
L 490.585145 308.742041 
L 490.90573 309.172504 
L 491.066023 309.034988 
L 491.386608 308.131334 
L 491.867486 305.521937 
L 493.470412 294.877741 
L 493.630705 294.374162 
L 493.95129 167.762433 
L 494.111582 168.616932 
L 494.913046 238.051013 
L 495.073338 241.092121 
L 495.233631 241.166675 
L 495.554216 237.080551 
L 495.874801 233.37494 
L 496.035094 233.072551 
L 496.195387 234.137515 
L 496.515972 240.442521 
L 496.99685 258.161781 
L 498.118898 304.052147 
L 498.439483 310.428508 
L 498.760069 415.819722 
L 498.920361 412.243392 
L 499.882117 298.623055 
L 500.04241 294.649283 
L 500.202702 294.614405 
L 500.523287 301.782339 
L 501.324751 325.115175 
L 501.645336 329.557652 
L 501.965921 331.104397 
L 502.126214 331.086752 
L 502.446799 330.109317 
L 503.248262 326.702782 
L 503.568847 326.036192 
L 503.889433 325.809867 
L 504.37031 325.735004 
L 504.690896 325.379502 
L 505.011481 324.42829 
L 505.332066 322.683054 
L 505.812944 318.434871 
L 506.454115 310.10147 
L 507.576163 291.360328 
L 509.499674 258.656899 
L 510.140845 251.689185 
L 510.46143 249.710889 
L 510.782015 248.883568 
L 510.942308 248.918165 
L 511.102601 249.253743 
L 511.423186 250.814274 
L 511.904064 255.244031 
L 512.545234 264.373949 
L 513.667283 284.954809 
L 514.789331 304.169176 
L 515.590794 313.965832 
L 516.231965 319.041071 
L 516.712843 321.43969 
L 517.19372 322.915754 
L 517.674598 323.752747 
L 518.155476 324.183208 
L 518.636354 324.327825 
L 518.956939 324.259586 
L 519.277525 324.013337 
L 519.59811 323.522132 
L 519.918695 322.702729 
L 520.399573 320.66147 
L 520.880451 317.399057 
L 521.361329 312.724222 
L 522.002499 304.242604 
L 522.964255 287.717289 
L 524.406889 262.160182 
L 525.048059 254.334047 
L 525.528937 251.04883 
L 525.849522 250.283152 
L 526.009815 250.347209 
L 526.170107 250.711108 
L 526.490693 252.325684 
L 526.971571 256.834471 
L 527.612741 266.062019 
L 529.856838 303.297568 
L 530.337716 307.369487 
L 530.658301 308.809266 
L 530.978886 309.246046 
L 531.139179 309.111556 
L 531.459764 308.21336 
L 531.940642 305.609765 
L 533.543568 294.951701 
L 533.864153 294.134176 
L 534.184739 165.044496 
L 534.345031 165.332264 
L 535.146494 235.041966 
L 535.306787 238.347382 
L 535.46708 238.68079 
L 535.787665 235.043202 
L 536.10825 231.650751 
L 536.268543 231.449676 
L 536.428835 232.58107 
L 536.749421 238.928646 
L 537.230299 256.560372 
L 538.352347 302.281276 
L 538.672932 308.767426 
L 538.993517 413.910722 
L 539.15381 410.409275 
L 540.115566 298.310173 
L 540.275858 294.552669 
L 540.436151 294.693933 
L 540.756736 302.090675 
L 541.558199 325.424394 
L 541.878785 329.741886 
L 542.19937 331.149122 
L 542.359663 331.065204 
L 542.680248 329.974504 
L 543.481711 326.443564 
L 543.802296 325.78745 
L 544.122881 325.594299 
L 544.764052 325.491528 
L 545.084637 324.909439 
L 545.405222 323.604431 
L 545.8861 320.012392 
L 546.366978 314.51028 
L 547.168441 302.295629 
L 550.053709 254.551623 
L 550.534586 250.44176 
L 550.855172 249.058395 
L 551.015464 248.805561 
L 551.175757 248.851861 
L 551.33605 249.198052 
L 551.656635 250.776661 
L 552.137513 255.226693 
L 552.778683 264.374813 
L 554.061024 287.98139 
L 555.02278 304.201805 
L 555.824243 313.991569 
L 556.465414 319.049201 
L 556.946291 321.427401 
L 557.427169 322.877723 
L 557.908047 323.685201 
L 558.388925 324.084571 
L 558.869803 324.199162 
L 559.190388 324.11288 
L 559.510973 323.851094 
L 559.831559 323.347553 
L 560.152144 322.519577 
L 560.633022 320.473329 
L 561.1139 317.215762 
L 561.75507 310.676904 
L 562.396241 301.625464 
L 563.518289 281.644793 
L 564.640337 262.174092 
L 565.281508 254.374835 
L 565.762386 251.102679 
L 566.082971 250.342375 
L 566.243264 250.408187 
L 566.403556 250.773266 
L 566.724142 252.388656 
L 567.205019 256.89559 
L 567.84619 266.117465 
L 570.090287 303.349895 
L 570.571165 307.427775 
L 570.89175 308.872109 
L 571.212335 309.313431 
L 571.372628 309.181071 
L 571.693213 308.286584 
L 572.174091 305.686434 
L 573.777017 295.011728 
L 574.097602 294.185403 
L 574.257895 294.087274 
L 574.57848 162.486904 
L 574.738773 162.199171 
L 575.540236 232.117427 
L 575.700529 235.666012 
L 575.860821 236.235197 
L 576.181406 232.996579 
L 576.501992 229.867573 
L 576.662284 229.744526 
L 576.822577 230.920887 
L 577.143162 237.275466 
L 577.62404 254.789352 
L 578.746088 300.380893 
L 579.066674 307.009542 
L 579.387259 411.960391 
L 579.547552 408.556284 
L 580.509307 298.016396 
L 580.6696 294.471725 
L 580.829893 294.784972 
L 581.150478 302.402014 
L 581.951941 325.725103 
L 582.272526 329.917704 
L 582.593111 331.187261 
L 582.753404 331.038343 
L 583.073989 329.837059 
L 583.875452 326.185222 
L 584.196038 325.538763 
L 584.516623 325.376702 
L 585.157793 325.359293 
L 585.478379 324.813011 
L 585.798964 323.530376 
L 586.119549 321.365216 
L 586.600427 316.445195 
L 587.241598 307.356744 
L 588.523939 285.039884 
L 589.966572 260.482131 
L 590.607743 252.788282 
L 591.088621 249.512717 
L 591.409206 248.738991 
L 591.569498 248.797068 
L 591.729791 249.153879 
L 592.050376 250.7504 
L 592.531254 255.220043 
L 593.172425 264.384729 
L 594.454766 288.009297 
L 595.416521 304.232498 
L 596.217985 314.011545 
L 596.859155 319.049477 
L 597.340033 321.406386 
L 597.820911 322.830694 
L 598.301789 323.608941 
L 598.782667 323.977976 
L 599.263544 324.063675 
L 599.58413 323.960263 
L 599.904715 323.683944 
L 600.2253 323.169134 
L 600.545885 322.333686 
L 601.026763 320.284101 
L 601.507641 317.032965 
L 602.148812 310.516829 
L 602.789982 301.500857 
L 603.912031 281.596365 
L 605.034079 262.193617 
L 605.675249 254.420875 
L 606.156127 251.161387 
L 606.476713 250.406173 
L 606.637005 250.473597 
L 606.797298 250.839718 
L 607.117883 252.455659 
L 607.598761 256.960401 
L 608.239931 266.176286 
L 610.484028 303.40471 
L 610.964906 307.488034 
L 611.285491 308.936463 
L 611.606077 309.381776 
L 611.766369 309.251237 
L 612.086954 308.359784 
L 612.567832 305.761955 
L 613.209003 301.044758 
L 613.369295 216.208158 
L 613.529588 190.377142 
L 613.689881 194.804676 
L 614.331051 255.425868 
L 614.491344 260.381217 
L 614.651636 261.091094 
L 614.811929 258.849063 
L 615.4531 243.721125 
L 615.613392 242.281726 
L 615.773685 242.509768 
L 615.933977 244.440513 
L 616.254563 252.948008 
L 616.895733 281.641495 
L 617.536904 310.282723 
L 617.857489 319.500176 
L 618.017782 322.198061 
L 618.338367 430.92 
L 618.498659 427.33411 
L 618.979537 353.265512 
L 619.300123 313.716468 
L 619.620708 296.812964 
L 619.781 295.208625 
L 619.941293 296.686604 
L 620.261878 304.756401 
L 620.903049 322.660229 
L 621.223634 327.88175 
L 621.544219 330.392324 
L 621.704512 330.850711 
L 621.864805 330.920053 
L 622.025097 330.704828 
L 622.505975 329.237942 
L 623.147146 327.425602 
L 624.269194 325.441067 
L 624.589779 324.178477 
L 625.070657 321.034912 
L 625.551535 316.320556 
L 626.352998 305.700049 
L 627.635339 284.701759 
L 629.238265 258.39331 
L 629.719143 253.188396 
L 630.200021 250.341563 
L 630.360314 249.980848 
L 630.520606 249.925268 
L 630.680899 250.17593 
L 631.001484 251.582524 
L 631.322069 254.139618 
L 631.802947 259.875606 
L 632.60441 273.044125 
L 634.367629 303.856399 
L 635.169092 313.559862 
L 635.810263 318.68088 
L 636.451433 321.820865 
L 636.932311 323.241417 
L 637.573482 324.376419 
L 638.05436 324.866651 
L 638.535238 325.063143 
L 638.855823 324.965183 
L 639.176408 324.602088 
L 639.496993 323.88548 
L 639.817579 322.721246 
L 640.298456 319.94361 
L 640.779334 315.730544 
L 641.420505 307.744295 
L 642.221968 294.446364 
L 644.305772 257.808999 
L 644.78665 252.832524 
L 645.107235 250.847935 
L 645.42782 250.0342 
L 645.588113 250.080724 
L 645.748406 250.431175 
L 646.068991 252.030073 
L 646.549869 256.538417 
L 647.191039 265.79134 
L 649.435136 303.002979 
L 649.916014 307.014798 
L 650.236599 308.407668 
L 650.557184 308.795515 
L 650.717477 308.636837 
L 651.038062 307.692965 
L 651.51894 305.033781 
L 653.121866 294.397561 
L 653.442452 293.629335 
L 653.602744 293.565965 
L 653.763037 293.73719 
L 653.92333 294.155213 
L 654.243915 157.5543 
L 654.404207 156.20878 
L 655.205671 226.947757 
L 655.365963 230.979609 
L 655.526256 231.984296 
L 655.686548 231.106678 
L 656.167426 226.534278 
L 656.327719 226.422336 
L 656.488012 227.536093 
L 656.808597 233.594744 
L 657.289475 250.451918 
L 658.411523 295.30185 
L 658.732108 302.224431 
L 659.052694 407.035108 
L 659.212986 404.01081 
L 660.174742 297.558834 
L 660.335035 294.514645 
L 660.495327 295.221568 
L 660.815912 303.317327 
L 661.457083 323.25276 
L 661.777668 328.897871 
L 662.098253 331.201431 
L 662.258546 331.374449 
L 662.418839 331.081124 
L 662.739424 329.641085 
L 663.380594 326.300421 
L 663.70118 325.362936 
L 664.021765 325.03332 
L 664.34235 325.100079 
L 664.662935 325.220639 
L 664.823228 325.182529 
L 664.983521 325.019335 
L 665.304106 324.171623 
L 665.624691 322.461279 
L 666.105569 318.128238 
L 666.74674 309.483423 
L 667.868788 290.149959 
L 669.632007 259.910894 
L 670.273177 252.381817 
L 670.754055 249.224529 
L 671.07464 248.520465 
L 671.234933 248.609978 
L 671.395226 248.995854 
L 671.715811 250.643433 
L 672.196689 255.17322 
L 672.837859 264.393218 
L 674.1202 288.073966 
L 675.081956 304.302318 
L 675.883419 314.056429 
L 676.52459 319.052214 
L 677.005468 321.364513 
L 677.486345 322.734474 
L 677.967223 323.451389 
L 678.448101 323.756284 
L 678.928979 323.780338 
L 679.409857 323.510641 
L 679.730442 323.096287 
L 680.051027 322.411398 
L 680.531905 320.687662 
L 681.012783 317.870197 
L 681.493661 313.729882 
L 682.134832 305.997385 
L 682.936295 293.198072 
L 685.020099 257.945699 
L 685.500977 253.170604 
L 685.821562 251.283629 
L 686.142147 250.538641 
L 686.30244 250.609273 
L 686.462732 250.977452 
L 686.783318 252.594492 
L 687.264196 257.095188 
L 687.905366 266.30064 
L 690.149463 303.531907 
L 690.630341 307.625929 
L 690.950926 309.08116 
L 691.271511 309.531919 
L 691.431804 309.403311 
L 691.752389 308.513613 
L 692.233267 305.911886 
L 693.836193 295.137378 
L 694.156778 294.275318 
L 694.477364 165.182009 
L 694.637656 165.453758 
L 695.439119 235.049171 
L 695.599412 238.338165 
L 695.759705 238.659894 
L 696.08029 235.014994 
L 696.400875 231.637272 
L 696.561168 231.45126 
L 696.72146 232.602175 
L 697.042046 238.999328 
L 697.522924 256.719112 
L 698.644972 302.593884 
L 698.965557 309.088747 
L 699.286142 414.321235 
L 699.446435 410.835161 
L 700.408191 298.580548 
L 700.568483 294.781978 
L 700.728776 294.883126 
L 701.049361 302.206605 
L 701.850824 325.417404 
L 702.17141 329.709067 
L 702.491995 331.100267 
L 702.652288 331.011117 
L 702.972873 329.913934 
L 703.774336 326.379562 
L 704.094921 325.724506 
L 704.415506 325.533304 
L 705.056677 325.437598 
L 705.377262 324.861041 
L 705.697847 323.56306 
L 706.178725 319.98414 
L 706.659603 314.497192 
L 707.461066 302.307043 
L 710.346334 254.57259 
L 710.827211 250.460765 
L 711.147797 249.077316 
L 711.308089 248.824819 
L 711.468382 248.871692 
L 711.628675 249.218671 
L 711.94926 250.799383 
L 712.430138 255.253329 
L 713.071308 264.40637 
L 714.353649 288.014527 
L 715.315405 304.22787 
L 716.116868 314.009534 
L 716.758039 319.061345 
L 717.238916 321.436274 
L 717.719794 322.884516 
L 718.200672 323.691119 
L 718.68155 324.090656 
L 719.162428 324.20615 
L 719.483013 324.120688 
L 719.803598 323.859755 
L 720.124184 323.356984 
L 720.444769 322.52959 
L 720.925647 320.483686 
L 721.406525 317.225683 
L 721.887403 312.563807 
L 722.528573 304.110502 
L 723.490329 287.641781 
L 724.932962 262.166987 
L 725.574133 254.366147 
L 726.055011 251.093692 
L 726.375596 250.333601 
L 726.535889 250.399633 
L 726.696181 250.765003 
L 727.016767 252.381158 
L 727.497644 256.889581 
L 728.138815 266.113696 
L 730.382912 303.348129 
L 730.86379 307.424398 
L 731.184375 308.867329 
L 731.50496 309.307065 
L 731.665253 309.17387 
L 731.985838 308.277683 
L 732.466716 305.675084 
L 734.069642 294.99619 
L 734.390227 170.770891 
L 734.55052 172.145102 
L 735.351983 241.054083 
L 735.512276 243.787829 
L 735.672568 243.565189 
L 736.474031 234.503053 
L 736.634324 235.499218 
L 736.954909 241.77474 
L 737.435787 259.639535 
L 738.557836 305.927441 
L 738.878421 312.259268 
L 739.199006 417.982947 
L 739.359299 414.341491 
L 740.321054 299.024459 
L 740.481347 294.799678 
L 740.64164 294.558023 
L 740.962225 301.450352 
L 741.763688 324.74105 
L 742.084273 329.311138 
L 742.404859 331.004082 
L 742.565151 331.056455 
L 742.725444 330.748344 
L 743.206322 328.783213 
L 743.6872 326.92177 
L 744.007785 326.241791 
L 744.32837 325.977757 
L 744.809248 325.826652 
L 745.129833 325.423636 
L 745.450418 324.438057 
L 745.771004 322.677239 
L 746.251882 318.444893 
L 746.893052 310.193169 
L 748.0151 291.630256 
L 749.938612 258.907695 
L 750.579782 251.872534 
L 750.900368 249.862083 
L 751.220953 249.005876 
L 751.381246 249.027503 
L 751.541538 249.35114 
L 751.862123 250.890809 
L 752.343001 255.295899 
L 752.984172 264.401386 
L 754.10622 284.948452 
L 755.228269 304.138303 
L 756.029732 313.932914 
L 756.670902 319.020635 
L 757.15178 321.437477 
L 757.632658 322.938658 
L 758.113536 323.806081 
L 758.594414 324.269903 
L 759.075292 324.447858 
L 759.395877 324.400254 
L 759.716462 324.172296 
L 760.037047 323.696217 
L 760.357633 322.888097 
L 760.83851 320.855529 
L 761.319388 317.591308 
L 761.800266 312.904468 
L 762.441437 304.393337 
L 763.403192 287.80568 
L 764.845826 262.155421 
L 765.486997 254.300668 
L 765.967874 251.001274 
L 766.28846 250.229602 
L 766.448752 250.291634 
L 766.609045 250.654108 
L 766.92963 252.267457 
L 767.410508 256.777628 
L 768.051679 266.01037 
L 770.295775 303.24562 
L 770.776653 307.310256 
L 771.097238 308.74455 
L 771.417824 309.175863 
L 771.578116 309.038796 
L 771.898702 308.136057 
L 772.379579 305.527986 
L 773.822213 295.568645 
L 774.142798 173.751198 
L 774.303091 175.677393 
L 775.104554 244.211907 
L 775.264847 246.647336 
L 775.425139 246.127623 
L 776.226602 235.985859 
L 776.386895 236.875617 
L 776.70748 243.040814 
L 777.188358 260.932946 
L 778.310407 307.467831 
L 778.630992 313.757406 
L 778.951577 419.821041 
L 779.11187 416.143227 
L 780.073625 299.371517 
L 780.233918 294.924584 
L 780.394211 294.49969 
L 780.554503 296.934026 
L 781.836844 329.115585 
L 782.15743 330.951529 
L 782.317722 331.072495 
L 782.478015 330.827268 
L 782.958893 328.99943 
L 783.439771 327.185837 
L 783.760356 326.49334 
L 784.080941 326.191647 
L 784.561819 325.961448 
L 784.882404 325.506537 
L 785.202989 324.480152 
L 785.523575 322.695482 
L 786.004453 318.464165 
L 786.645623 310.273278 
L 787.767671 291.86329 
L 789.691183 259.12749 
L 790.332353 252.031695 
L 790.652939 249.992014 
L 790.973524 249.109371 
L 791.133817 249.119064 
L 791.294109 249.43167 
L 791.614694 250.951932 
L 792.095572 255.333739 
L 792.736743 264.415569 
L 793.858791 284.929251 
L 794.98084 304.096004 
L 795.782303 313.890401 
L 796.423473 318.992077 
L 796.904351 321.427939 
L 797.385229 322.954586 
L 797.866107 323.852263 
L 798.346985 324.348795 
L 798.827863 324.559117 
L 799.148448 324.53144 
L 799.469033 324.321111 
L 799.789618 323.859618 
L 800.110204 323.062433 
L 800.591081 321.038517 
L 801.071959 317.773115 
L 801.552837 313.07557 
L 802.194008 304.537532 
L 803.155763 287.892415 
L 804.598397 262.155132 
L 805.239568 254.273114 
L 805.720445 250.959932 
L 806.041031 250.182266 
L 806.201323 250.242208 
L 806.361616 250.603158 
L 806.682201 252.214993 
L 807.163079 256.726009 
L 807.80425 265.963277 
L 810.048346 303.199021 
L 810.529224 307.256846 
L 810.849809 308.685851 
L 811.170395 309.111742 
L 811.330687 308.97205 
L 811.651273 308.064508 
L 812.13215 305.45113 
L 813.414491 296.33482 
L 813.735077 176.880868 
L 813.895369 179.345741 
L 814.53654 241.156656 
L 814.857125 249.549857 
L 815.017418 248.713709 
L 815.818881 237.405267 
L 815.979173 238.176823 
L 816.299759 244.216774 
L 816.780637 262.13742 
L 817.902685 309.01143 
L 818.22327 315.296444 
L 818.543855 421.774819 
L 818.704148 418.084335 
L 819.665904 299.83344 
L 819.826196 295.146739 
L 819.986489 294.520774 
L 820.146782 296.795909 
L 820.62766 311.143503 
L 821.108537 324.092136 
L 821.429123 328.90433 
L 821.749708 330.879106 
L 821.910001 331.067832 
L 822.070293 330.885203 
L 822.390878 329.85378 
L 823.192342 327.023631 
L 823.512927 326.517573 
L 824.31439 325.869445 
L 824.634975 325.109221 
L 824.95556 323.685922 
L 825.436438 320.061067 
L 826.077609 312.580601 
L 827.039365 297.618434 
L 829.604047 255.335225 
L 830.084924 251.036244 
L 830.40551 249.537924 
L 830.565802 249.232744 
L 830.726095 249.230498 
L 830.886388 249.532031 
L 831.206973 251.032694 
L 831.687851 255.390619 
L 832.329021 264.447157 
L 833.45107 284.92138 
L 834.573118 304.055901 
L 835.374581 313.843862 
L 836.015752 318.955837 
L 836.496629 321.409035 
L 836.977507 322.96043 
L 837.458385 323.888559 
L 837.939263 324.418788 
L 838.420141 324.663074 
L 838.740726 324.656631 
L 839.061311 324.465354 
L 839.381897 324.019932 
L 839.702482 323.235172 
L 840.18336 321.222037 
L 840.664238 317.957341 
L 841.145116 313.25064 
L 841.786286 304.687145 
L 842.748042 287.985431 
L 844.190675 262.16026 
L 844.831846 254.250236 
L 845.312724 250.922735 
L 845.633309 250.138773 
L 845.793602 250.196494 
L 845.953894 250.555803 
L 846.27448 252.165945 
L 846.755357 256.677658 
L 847.396528 265.919447 
L 849.640625 303.154769 
L 850.121503 307.204855 
L 850.442088 308.627773 
L 850.762673 309.047316 
L 850.922966 308.904495 
L 851.243551 307.991084 
L 851.724429 305.370714 
L 853.327355 294.74404 
L 853.64794 293.950697 
L 853.808233 293.871566 
L 853.968526 294.025048 
L 854.289111 295.076461 
L 854.609696 297.170472 
L 854.930281 152.541694 
L 855.090574 149.253805 
L 856.05233 223.373346 
L 856.212622 224.666943 
L 856.372915 224.01249 
L 856.853793 219.600773 
L 857.014085 219.381291 
L 857.174378 220.326082 
L 857.494963 225.930831 
L 857.975841 242.094644 
L 859.258182 291.792398 
L 859.418475 295.250254 
L 859.73906 400.190896 
L 859.899353 397.712537 
L 860.861108 296.276809 
L 861.021401 293.846568 
L 861.181694 295.048353 
L 861.502279 303.789591 
L 862.143449 323.932977 
L 862.464035 329.356733 
L 862.78462 331.359441 
L 862.944913 331.377592 
L 863.265498 330.18162 
L 864.227254 325.065547 
L 864.547839 324.454409 
L 864.868424 324.40984 
L 865.509595 324.688558 
L 865.669887 324.550822 
L 865.990472 323.73229 
L 866.311058 322.016516 
L 866.791936 317.610653 
L 867.433106 308.790297 
L 868.555154 289.230621 
L 870.158081 261.696633 
L 870.799251 253.640859 
L 871.280129 249.867146 
L 871.600714 248.674923 
L 871.761007 248.505828 
L 871.9213 248.627719 
L 872.241885 249.744605 
L 872.56247 251.994718 
L 873.043348 257.308578 
L 873.684518 267.259859 
L 876.088908 308.692802 
L 876.730078 315.481855 
L 877.371249 319.809416 
L 877.852127 321.701732 
L 878.333005 322.744088 
L 878.813882 323.221964 
L 879.29476 323.351226 
L 879.775638 323.223539 
L 880.256516 322.78304 
L 880.577101 322.22644 
L 881.057979 320.799681 
L 881.538857 318.400632 
L 882.019735 314.770813 
L 882.660905 307.771239 
L 883.462369 295.752186 
L 885.866758 256.319683 
L 886.347636 252.330635 
L 886.668221 251.020347 
L 886.828514 250.798184 
L 886.988806 250.870888 
L 887.149099 251.239453 
L 887.469684 252.852843 
L 887.950562 257.339699 
L 888.591733 266.519154 
L 890.835829 303.718376 
L 891.316707 307.823092 
L 891.637292 309.286173 
L 891.957878 309.743932 
L 892.11817 309.618118 
L 892.438756 308.731873 
L 892.919633 306.128127 
L 894.362267 295.9864 
L 894.682852 174.089852 
L 894.843145 175.961231 
L 895.644608 244.20242 
L 895.804901 246.595278 
L 895.965193 246.042468 
L 896.766656 235.895379 
L 896.926949 236.814747 
L 897.247534 243.062699 
L 897.728412 261.115878 
L 898.850461 307.983641 
L 899.171046 314.312801 
L 899.491631 420.567638 
L 899.651924 416.92302 
L 900.613679 299.838796 
L 900.773972 295.311785 
L 900.934265 294.809966 
L 901.094557 297.172652 
L 901.735728 316.511228 
L 902.216606 327.107599 
L 902.537191 330.249203 
L 902.697484 330.851254 
L 902.857776 330.965658 
L 903.018069 330.715975 
L 903.498947 328.882199 
L 903.979825 327.066897 
L 904.30041 326.37374 
L 904.620995 326.071915 
L 905.101873 325.844244 
L 905.422458 325.394204 
L 905.743043 324.376116 
L 906.063629 322.603493 
L 906.544507 318.39678 
L 907.185677 310.246354 
L 908.147433 294.698248 
L 910.39153 257.072441 
L 910.872407 252.075523 
L 911.192993 250.034779 
L 911.513578 249.152545 
L 911.673871 249.162984 
L 911.834163 249.476661 
L 912.154748 250.999862 
L 912.635626 255.387185 
L 913.276797 264.475601 
L 914.398845 284.98918 
L 915.520894 304.138816 
L 916.322357 313.917005 
L 916.963527 319.007579 
L 917.444405 321.437545 
L 917.925283 322.960851 
L 918.406161 323.85775 
L 918.887039 324.355722 
L 919.367917 324.569075 
L 919.688502 324.543916 
L 920.009087 324.336209 
L 920.329672 323.877205 
L 920.650258 323.082159 
L 921.131135 321.060417 
L 921.612013 317.795609 
L 922.092891 313.096939 
L 922.734062 304.55494 
L 923.695817 287.90037 
L 925.138451 262.148804 
L 925.779622 254.262992 
L 926.260499 250.948471 
L 926.581085 250.170638 
L 926.741377 250.230702 
L 926.90167 250.5919 
L 927.222255 252.204573 
L 927.703133 256.717505 
L 928.344304 265.9579 
L 930.5884 303.195455 
L 931.069278 307.250271 
L 931.389863 308.676724 
L 931.710449 309.099768 
L 931.870741 308.958588 
L 932.191327 308.048038 
L 932.672204 305.430372 
L 933.794253 297.276375 
L 933.954545 208.540175 
L 933.954545 208.540175 
" clip-path="url(#pfd0c8bbbd9)" style="fill: none; stroke: #1f77b4; stroke-width: 1.5; stroke-linecap: square"/>
   </g>
   <g id="line2d_15">
    <path d="M 173.045455 230.4089 
L 177.693941 230.4089 
L 177.854233 327.805756 
L 213.278903 327.805756 
L 213.439196 230.4089 
L 218.087682 230.4089 
L 218.247975 327.805756 
L 253.99323 327.805756 
L 254.153523 230.4089 
L 258.802009 230.4089 
L 258.962302 327.805756 
L 293.585509 327.805756 
L 293.745801 230.4089 
L 298.394287 230.4089 
L 298.55458 327.805756 
L 333.818957 327.805756 
L 333.97925 230.4089 
L 338.627736 230.4089 
L 338.788029 327.805756 
L 373.090651 327.805756 
L 373.250943 230.4089 
L 377.899429 230.4089 
L 378.059722 327.805756 
L 413.644685 327.805756 
L 413.804977 230.4089 
L 418.453463 230.4089 
L 418.613756 327.805756 
L 453.557548 327.805756 
L 453.717841 230.4089 
L 458.366327 230.4089 
L 458.52662 327.805756 
L 493.630705 327.805756 
L 493.790997 230.4089 
L 498.439483 230.4089 
L 498.599776 327.805756 
L 533.864153 327.805756 
L 534.024446 230.4089 
L 538.672932 230.4089 
L 538.833225 327.805756 
L 574.257895 327.805756 
L 574.418188 230.4089 
L 579.066674 230.4089 
L 579.226966 327.805756 
L 613.209003 327.805756 
L 613.369295 230.4089 
L 618.017782 230.4089 
L 618.178074 327.805756 
L 653.92333 327.805756 
L 654.083622 230.4089 
L 658.732108 230.4089 
L 658.892401 327.805756 
L 694.156778 327.805756 
L 694.317071 230.4089 
L 698.965557 230.4089 
L 699.12585 327.805756 
L 734.069642 327.805756 
L 734.229935 230.4089 
L 738.878421 230.4089 
L 739.038713 327.805756 
L 773.822213 327.805756 
L 773.982506 230.4089 
L 778.630992 230.4089 
L 778.791284 327.805756 
L 813.414491 327.805756 
L 813.574784 230.4089 
L 818.22327 230.4089 
L 818.383563 327.805756 
L 854.609696 327.805756 
L 854.769989 230.4089 
L 859.418475 230.4089 
L 859.578767 327.805756 
L 894.362267 327.805756 
L 894.52256 230.4089 
L 899.171046 230.4089 
L 899.331338 327.805756 
L 933.794253 327.805756 
L 933.954545 230.4089 
L 933.954545 230.4089 
" clip-path="url(#pfd0c8bbbd9)" style="fill: none; stroke: #ff7f0e; stroke-width: 1.5; stroke-linecap: square"/>
   </g>
   <g id="line2d_16">
    <path d="M 929.466352 327.805756 
" clip-path="url(#pfd0c8bbbd9)" style="fill: none; stroke: #000000; stroke-width: 1.5; stroke-linecap: square"/>
    <defs>
     <path id="md007afedc7" d="M 0 1 
C 0.265203 1 0.51958 0.894634 0.707107 0.707107 
C 0.894634 0.51958 1 0.265203 1 0 
C 1 -0.265203 0.894634 -0.51958 0.707107 -0.707107 
C 0.51958 -0.894634 0.265203 -1 0 -1 
C -0.265203 -1 -0.51958 -0.894634 -0.707107 -0.707107 
C -0.894634 -0.51958 -1 -0.265203 -1 0 
C -1 0.265203 -0.894634 0.51958 -0.707107 0.707107 
C -0.51958 0.894634 -0.265203 1 0 1 
z
" style="stroke: #000000"/>
    </defs>
    <g clip-path="url(#pfd0c8bbbd9)">
     <use xlink:href="#md007afedc7" x="173.045455" y="230.4089" style="stroke: #000000"/>
     <use xlink:href="#md007afedc7" x="178.174819" y="327.805756" style="stroke: #000000"/>
     <use xlink:href="#md007afedc7" x="183.14389" y="327.805756" style="stroke: #000000"/>
     <use xlink:href="#md007afedc7" x="188.112961" y="230.4089" style="stroke: #000000"/>
     <use xlink:href="#md007afedc7" x="193.082033" y="327.805756" style="stroke: #000000"/>
     <use xlink:href="#md007afedc7" x="198.211397" y="327.805756" style="stroke: #000000"/>
     <use xlink:href="#md007afedc7" x="203.180468" y="230.4089" style="stroke: #000000"/>
     <use xlink:href="#md007afedc7" x="208.149539" y="327.805756" style="stroke: #000000"/>
     <use xlink:href="#md007afedc7" x="213.118611" y="230.4089" style="stroke: #000000"/>
     <use xlink:href="#md007afedc7" x="218.247975" y="327.805756" style="stroke: #000000"/>
     <use xlink:href="#md007afedc7" x="223.217046" y="327.805756" style="stroke: #000000"/>
     <use xlink:href="#md007afedc7" x="228.186118" y="230.4089" style="stroke: #000000"/>
     <use xlink:href="#md007afedc7" x="233.155189" y="327.805756" style="stroke: #000000"/>
     <use xlink:href="#md007afedc7" x="238.284553" y="327.805756" style="stroke: #000000"/>
     <use xlink:href="#md007afedc7" x="243.253624" y="230.4089" style="stroke: #000000"/>
     <use xlink:href="#md007afedc7" x="248.222696" y="327.805756" style="stroke: #000000"/>
     <use xlink:href="#md007afedc7" x="253.191767" y="230.4089" style="stroke: #000000"/>
     <use xlink:href="#md007afedc7" x="258.321131" y="327.805756" style="stroke: #000000"/>
     <use xlink:href="#md007afedc7" x="263.290202" y="327.805756" style="stroke: #000000"/>
     <use xlink:href="#md007afedc7" x="268.259274" y="230.4089" style="stroke: #000000"/>
     <use xlink:href="#md007afedc7" x="273.228345" y="327.805756" style="stroke: #000000"/>
     <use xlink:href="#md007afedc7" x="278.357709" y="327.805756" style="stroke: #000000"/>
     <use xlink:href="#md007afedc7" x="283.326781" y="230.4089" style="stroke: #000000"/>
     <use xlink:href="#md007afedc7" x="288.295852" y="327.805756" style="stroke: #000000"/>
     <use xlink:href="#md007afedc7" x="293.264923" y="230.4089" style="stroke: #000000"/>
     <use xlink:href="#md007afedc7" x="298.394287" y="327.805756" style="stroke: #000000"/>
     <use xlink:href="#md007afedc7" x="303.363359" y="327.805756" style="stroke: #000000"/>
     <use xlink:href="#md007afedc7" x="308.33243" y="230.4089" style="stroke: #000000"/>
     <use xlink:href="#md007afedc7" x="313.301501" y="327.805756" style="stroke: #000000"/>
     <use xlink:href="#md007afedc7" x="318.430865" y="327.805756" style="stroke: #000000"/>
     <use xlink:href="#md007afedc7" x="323.399937" y="230.4089" style="stroke: #000000"/>
     <use xlink:href="#md007afedc7" x="328.369008" y="327.805756" style="stroke: #000000"/>
     <use xlink:href="#md007afedc7" x="333.33808" y="230.4089" style="stroke: #000000"/>
     <use xlink:href="#md007afedc7" x="338.467444" y="327.805756" style="stroke: #000000"/>
     <use xlink:href="#md007afedc7" x="343.436515" y="327.805756" style="stroke: #000000"/>
     <use xlink:href="#md007afedc7" x="348.405586" y="230.4089" style="stroke: #000000"/>
     <use xlink:href="#md007afedc7" x="353.374658" y="327.805756" style="stroke: #000000"/>
     <use xlink:href="#md007afedc7" x="358.504022" y="327.805756" style="stroke: #000000"/>
     <use xlink:href="#md007afedc7" x="363.473093" y="230.4089" style="stroke: #000000"/>
     <use xlink:href="#md007afedc7" x="368.442164" y="327.805756" style="stroke: #000000"/>
     <use xlink:href="#md007afedc7" x="373.411236" y="230.4089" style="stroke: #000000"/>
     <use xlink:href="#md007afedc7" x="378.5406" y="327.805756" style="stroke: #000000"/>
     <use xlink:href="#md007afedc7" x="383.509671" y="327.805756" style="stroke: #000000"/>
     <use xlink:href="#md007afedc7" x="388.478743" y="230.4089" style="stroke: #000000"/>
     <use xlink:href="#md007afedc7" x="393.447814" y="327.805756" style="stroke: #000000"/>
     <use xlink:href="#md007afedc7" x="398.577178" y="327.805756" style="stroke: #000000"/>
     <use xlink:href="#md007afedc7" x="403.546249" y="230.4089" style="stroke: #000000"/>
     <use xlink:href="#md007afedc7" x="408.515321" y="327.805756" style="stroke: #000000"/>
     <use xlink:href="#md007afedc7" x="413.484392" y="230.4089" style="stroke: #000000"/>
     <use xlink:href="#md007afedc7" x="418.613756" y="327.805756" style="stroke: #000000"/>
     <use xlink:href="#md007afedc7" x="423.582827" y="327.805756" style="stroke: #000000"/>
     <use xlink:href="#md007afedc7" x="428.551899" y="230.4089" style="stroke: #000000"/>
     <use xlink:href="#md007afedc7" x="433.52097" y="327.805756" style="stroke: #000000"/>
     <use xlink:href="#md007afedc7" x="438.650334" y="327.805756" style="stroke: #000000"/>
     <use xlink:href="#md007afedc7" x="443.619406" y="230.4089" style="stroke: #000000"/>
     <use xlink:href="#md007afedc7" x="448.588477" y="327.805756" style="stroke: #000000"/>
     <use xlink:href="#md007afedc7" x="453.557548" y="230.4089" style="stroke: #000000"/>
     <use xlink:href="#md007afedc7" x="458.686912" y="327.805756" style="stroke: #000000"/>
     <use xlink:href="#md007afedc7" x="463.655984" y="327.805756" style="stroke: #000000"/>
     <use xlink:href="#md007afedc7" x="468.625055" y="230.4089" style="stroke: #000000"/>
     <use xlink:href="#md007afedc7" x="473.594126" y="327.805756" style="stroke: #000000"/>
     <use xlink:href="#md007afedc7" x="478.72349" y="327.805756" style="stroke: #000000"/>
     <use xlink:href="#md007afedc7" x="483.692562" y="230.4089" style="stroke: #000000"/>
     <use xlink:href="#md007afedc7" x="488.661633" y="327.805756" style="stroke: #000000"/>
     <use xlink:href="#md007afedc7" x="493.630705" y="230.4089" style="stroke: #000000"/>
     <use xlink:href="#md007afedc7" x="498.760069" y="327.805756" style="stroke: #000000"/>
     <use xlink:href="#md007afedc7" x="503.72914" y="327.805756" style="stroke: #000000"/>
     <use xlink:href="#md007afedc7" x="508.698211" y="230.4089" style="stroke: #000000"/>
     <use xlink:href="#md007afedc7" x="513.667283" y="327.805756" style="stroke: #000000"/>
     <use xlink:href="#md007afedc7" x="518.796647" y="327.805756" style="stroke: #000000"/>
     <use xlink:href="#md007afedc7" x="523.765718" y="230.4089" style="stroke: #000000"/>
     <use xlink:href="#md007afedc7" x="528.734789" y="327.805756" style="stroke: #000000"/>
     <use xlink:href="#md007afedc7" x="533.703861" y="230.4089" style="stroke: #000000"/>
     <use xlink:href="#md007afedc7" x="538.833225" y="327.805756" style="stroke: #000000"/>
     <use xlink:href="#md007afedc7" x="543.802296" y="327.805756" style="stroke: #000000"/>
     <use xlink:href="#md007afedc7" x="548.771368" y="230.4089" style="stroke: #000000"/>
     <use xlink:href="#md007afedc7" x="553.740439" y="327.805756" style="stroke: #000000"/>
     <use xlink:href="#md007afedc7" x="558.869803" y="327.805756" style="stroke: #000000"/>
     <use xlink:href="#md007afedc7" x="563.838874" y="230.4089" style="stroke: #000000"/>
     <use xlink:href="#md007afedc7" x="568.807946" y="327.805756" style="stroke: #000000"/>
     <use xlink:href="#md007afedc7" x="573.777017" y="230.4089" style="stroke: #000000"/>
     <use xlink:href="#md007afedc7" x="578.906381" y="327.805756" style="stroke: #000000"/>
     <use xlink:href="#md007afedc7" x="583.875452" y="327.805756" style="stroke: #000000"/>
     <use xlink:href="#md007afedc7" x="588.844524" y="230.4089" style="stroke: #000000"/>
     <use xlink:href="#md007afedc7" x="593.813595" y="327.805756" style="stroke: #000000"/>
     <use xlink:href="#md007afedc7" x="598.942959" y="327.805756" style="stroke: #000000"/>
     <use xlink:href="#md007afedc7" x="603.912031" y="230.4089" style="stroke: #000000"/>
     <use xlink:href="#md007afedc7" x="608.881102" y="327.805756" style="stroke: #000000"/>
     <use xlink:href="#md007afedc7" x="613.850173" y="230.4089" style="stroke: #000000"/>
     <use xlink:href="#md007afedc7" x="618.979537" y="327.805756" style="stroke: #000000"/>
     <use xlink:href="#md007afedc7" x="623.948609" y="327.805756" style="stroke: #000000"/>
     <use xlink:href="#md007afedc7" x="628.91768" y="230.4089" style="stroke: #000000"/>
     <use xlink:href="#md007afedc7" x="633.886751" y="327.805756" style="stroke: #000000"/>
     <use xlink:href="#md007afedc7" x="639.016115" y="327.805756" style="stroke: #000000"/>
     <use xlink:href="#md007afedc7" x="643.985187" y="230.4089" style="stroke: #000000"/>
     <use xlink:href="#md007afedc7" x="648.954258" y="327.805756" style="stroke: #000000"/>
     <use xlink:href="#md007afedc7" x="653.92333" y="230.4089" style="stroke: #000000"/>
     <use xlink:href="#md007afedc7" x="659.052694" y="327.805756" style="stroke: #000000"/>
     <use xlink:href="#md007afedc7" x="664.021765" y="327.805756" style="stroke: #000000"/>
     <use xlink:href="#md007afedc7" x="668.990836" y="230.4089" style="stroke: #000000"/>
     <use xlink:href="#md007afedc7" x="673.959908" y="327.805756" style="stroke: #000000"/>
     <use xlink:href="#md007afedc7" x="679.089272" y="327.805756" style="stroke: #000000"/>
     <use xlink:href="#md007afedc7" x="684.058343" y="230.4089" style="stroke: #000000"/>
     <use xlink:href="#md007afedc7" x="689.027414" y="327.805756" style="stroke: #000000"/>
     <use xlink:href="#md007afedc7" x="693.996486" y="230.4089" style="stroke: #000000"/>
     <use xlink:href="#md007afedc7" x="699.12585" y="327.805756" style="stroke: #000000"/>
     <use xlink:href="#md007afedc7" x="704.094921" y="327.805756" style="stroke: #000000"/>
     <use xlink:href="#md007afedc7" x="709.063993" y="230.4089" style="stroke: #000000"/>
     <use xlink:href="#md007afedc7" x="714.033064" y="327.805756" style="stroke: #000000"/>
     <use xlink:href="#md007afedc7" x="719.162428" y="327.805756" style="stroke: #000000"/>
     <use xlink:href="#md007afedc7" x="724.131499" y="230.4089" style="stroke: #000000"/>
     <use xlink:href="#md007afedc7" x="729.100571" y="327.805756" style="stroke: #000000"/>
     <use xlink:href="#md007afedc7" x="734.069642" y="230.4089" style="stroke: #000000"/>
     <use xlink:href="#md007afedc7" x="739.199006" y="327.805756" style="stroke: #000000"/>
     <use xlink:href="#md007afedc7" x="744.168077" y="327.805756" style="stroke: #000000"/>
     <use xlink:href="#md007afedc7" x="749.137149" y="230.4089" style="stroke: #000000"/>
     <use xlink:href="#md007afedc7" x="754.10622" y="327.805756" style="stroke: #000000"/>
     <use xlink:href="#md007afedc7" x="759.235584" y="327.805756" style="stroke: #000000"/>
     <use xlink:href="#md007afedc7" x="764.204656" y="230.4089" style="stroke: #000000"/>
     <use xlink:href="#md007afedc7" x="769.173727" y="327.805756" style="stroke: #000000"/>
     <use xlink:href="#md007afedc7" x="774.142798" y="230.4089" style="stroke: #000000"/>
     <use xlink:href="#md007afedc7" x="779.272162" y="327.805756" style="stroke: #000000"/>
     <use xlink:href="#md007afedc7" x="784.241234" y="327.805756" style="stroke: #000000"/>
     <use xlink:href="#md007afedc7" x="789.210305" y="230.4089" style="stroke: #000000"/>
     <use xlink:href="#md007afedc7" x="794.179376" y="327.805756" style="stroke: #000000"/>
     <use xlink:href="#md007afedc7" x="799.30874" y="327.805756" style="stroke: #000000"/>
     <use xlink:href="#md007afedc7" x="804.277812" y="230.4089" style="stroke: #000000"/>
     <use xlink:href="#md007afedc7" x="809.246883" y="327.805756" style="stroke: #000000"/>
     <use xlink:href="#md007afedc7" x="814.215955" y="230.4089" style="stroke: #000000"/>
     <use xlink:href="#md007afedc7" x="819.345319" y="327.805756" style="stroke: #000000"/>
     <use xlink:href="#md007afedc7" x="824.31439" y="327.805756" style="stroke: #000000"/>
     <use xlink:href="#md007afedc7" x="829.283461" y="230.4089" style="stroke: #000000"/>
     <use xlink:href="#md007afedc7" x="834.252533" y="327.805756" style="stroke: #000000"/>
     <use xlink:href="#md007afedc7" x="839.381897" y="327.805756" style="stroke: #000000"/>
     <use xlink:href="#md007afedc7" x="844.350968" y="230.4089" style="stroke: #000000"/>
     <use xlink:href="#md007afedc7" x="849.320039" y="327.805756" style="stroke: #000000"/>
     <use xlink:href="#md007afedc7" x="854.289111" y="230.4089" style="stroke: #000000"/>
     <use xlink:href="#md007afedc7" x="859.418475" y="327.805756" style="stroke: #000000"/>
     <use xlink:href="#md007afedc7" x="864.387546" y="327.805756" style="stroke: #000000"/>
     <use xlink:href="#md007afedc7" x="869.356618" y="230.4089" style="stroke: #000000"/>
     <use xlink:href="#md007afedc7" x="874.325689" y="327.805756" style="stroke: #000000"/>
     <use xlink:href="#md007afedc7" x="879.455053" y="327.805756" style="stroke: #000000"/>
     <use xlink:href="#md007afedc7" x="884.424124" y="230.4089" style="stroke: #000000"/>
     <use xlink:href="#md007afedc7" x="889.393196" y="327.805756" style="stroke: #000000"/>
     <use xlink:href="#md007afedc7" x="894.362267" y="230.4089" style="stroke: #000000"/>
     <use xlink:href="#md007afedc7" x="899.491631" y="327.805756" style="stroke: #000000"/>
     <use xlink:href="#md007afedc7" x="904.460702" y="327.805756" style="stroke: #000000"/>
     <use xlink:href="#md007afedc7" x="909.429774" y="230.4089" style="stroke: #000000"/>
     <use xlink:href="#md007afedc7" x="914.398845" y="327.805756" style="stroke: #000000"/>
     <use xlink:href="#md007afedc7" x="919.528209" y="327.805756" style="stroke: #000000"/>
     <use xlink:href="#md007afedc7" x="924.497281" y="230.4089" style="stroke: #000000"/>
     <use xlink:href="#md007afedc7" x="929.466352" y="327.805756" style="stroke: #000000"/>
    </g>
   </g>
   <g id="patch_3">
    <path d="M 135 448.56 
L 135 60.48 
" style="fill: none; stroke: #000000; stroke-width: 0.8; stroke-linejoin: miter; stroke-linecap: square"/>
   </g>
   <g id="patch_4">
    <path d="M 972 448.56 
L 972 60.48 
" style="fill: none; stroke: #000000; stroke-width: 0.8; stroke-linejoin: miter; stroke-linecap: square"/>
   </g>
   <g id="patch_5">
    <path d="M 135 448.56 
L 972 448.56 
" style="fill: none; stroke: #000000; stroke-width: 0.8; stroke-linejoin: miter; stroke-linecap: square"/>
   </g>
   <g id="patch_6">
    <path d="M 135 60.48 
L 972 60.48 
" style="fill: none; stroke: #000000; stroke-width: 0.8; stroke-linejoin: miter; stroke-linecap: square"/>
   </g>
   <g id="legend_1">
    <g id="patch_7">
     <path d="M 895.915625 113.070625 
L 965 113.070625 
Q 967 113.070625 967 111.070625 
L 967 67.48 
Q 967 65.48 965 65.48 
L 895.915625 65.48 
Q 893.915625 65.48 893.915625 67.48 
L 893.915625 111.070625 
Q 893.915625 113.070625 895.915625 113.070625 
z
" style="fill: #ffffff; opacity: 0.8; stroke: #cccccc; stroke-linejoin: miter"/>
    </g>
    <g id="line2d_17">
     <path d="M 897.915625 73.578438 
L 907.915625 73.578438 
L 917.915625 73.578438 
" style="fill: none; stroke: #1f77b4; stroke-width: 1.5; stroke-linecap: square"/>
    </g>
    <g id="text_15">
     <!-- nw_0 -->
     <g transform="translate(925.915625 77.078438) scale(0.1 -0.1)">
      <defs>
       <path id="DejaVuSans-6e" d="M 3513 2113 
L 3513 0 
L 2938 0 
L 2938 2094 
Q 2938 2591 2744 2837 
Q 2550 3084 2163 3084 
Q 1697 3084 1428 2787 
Q 1159 2491 1159 1978 
L 1159 0 
L 581 0 
L 581 3500 
L 1159 3500 
L 1159 2956 
Q 1366 3272 1645 3428 
Q 1925 3584 2291 3584 
Q 2894 3584 3203 3211 
Q 3513 2838 3513 2113 
z
" transform="scale(0.015625)"/>
       <path id="DejaVuSans-77" d="M 269 3500 
L 844 3500 
L 1563 769 
L 2278 3500 
L 2956 3500 
L 3675 769 
L 4391 3500 
L 4966 3500 
L 4050 0 
L 3372 0 
L 2619 2869 
L 1863 0 
L 1184 0 
L 269 3500 
z
" transform="scale(0.015625)"/>
       <path id="DejaVuSans-5f" d="M 3263 -1063 
L 3263 -1509 
L -63 -1509 
L -63 -1063 
L 3263 -1063 
z
" transform="scale(0.015625)"/>
      </defs>
      <use xlink:href="#DejaVuSans-6e"/>
      <use xlink:href="#DejaVuSans-77" x="63.378906"/>
      <use xlink:href="#DejaVuSans-5f" x="145.166016"/>
      <use xlink:href="#DejaVuSans-30" x="195.166016"/>
     </g>
    </g>
    <g id="line2d_18">
     <path d="M 897.915625 88.534688 
L 907.915625 88.534688 
L 917.915625 88.534688 
" style="fill: none; stroke: #ff7f0e; stroke-width: 1.5; stroke-linecap: square"/>
    </g>
    <g id="text_16">
     <!-- input_0 -->
     <g transform="translate(925.915625 92.034688) scale(0.1 -0.1)">
      <defs>
       <path id="DejaVuSans-69" d="M 603 3500 
L 1178 3500 
L 1178 0 
L 603 0 
L 603 3500 
z
M 603 4863 
L 1178 4863 
L 1178 4134 
L 603 4134 
L 603 4863 
z
" transform="scale(0.015625)"/>
       <path id="DejaVuSans-70" d="M 1159 525 
L 1159 -1331 
L 581 -1331 
L 581 3500 
L 1159 3500 
L 1159 2969 
Q 1341 3281 1617 3432 
Q 1894 3584 2278 3584 
Q 2916 3584 3314 3078 
Q 3713 2572 3713 1747 
Q 3713 922 3314 415 
Q 2916 -91 2278 -91 
Q 1894 -91 1617 61 
Q 1341 213 1159 525 
z
M 3116 1747 
Q 3116 2381 2855 2742 
Q 2594 3103 2138 3103 
Q 1681 3103 1420 2742 
Q 1159 2381 1159 1747 
Q 1159 1113 1420 752 
Q 1681 391 2138 391 
Q 2594 391 2855 752 
Q 3116 1113 3116 1747 
z
" transform="scale(0.015625)"/>
       <path id="DejaVuSans-75" d="M 544 1381 
L 544 3500 
L 1119 3500 
L 1119 1403 
Q 1119 906 1312 657 
Q 1506 409 1894 409 
Q 2359 409 2629 706 
Q 2900 1003 2900 1516 
L 2900 3500 
L 3475 3500 
L 3475 0 
L 2900 0 
L 2900 538 
Q 2691 219 2414 64 
Q 2138 -91 1772 -91 
Q 1169 -91 856 284 
Q 544 659 544 1381 
z
M 1991 3584 
L 1991 3584 
z
" transform="scale(0.015625)"/>
      </defs>
      <use xlink:href="#DejaVuSans-69"/>
      <use xlink:href="#DejaVuSans-6e" x="27.783203"/>
      <use xlink:href="#DejaVuSans-70" x="91.162109"/>
      <use xlink:href="#DejaVuSans-75" x="154.638672"/>
      <use xlink:href="#DejaVuSans-74" x="218.017578"/>
      <use xlink:href="#DejaVuSans-5f" x="257.226562"/>
      <use xlink:href="#DejaVuSans-30" x="307.226562"/>
     </g>
    </g>
    <g id="line2d_19">
     <path d="M 897.915625 103.490938 
L 907.915625 103.490938 
L 917.915625 103.490938 
" style="fill: none; stroke: #000000; stroke-width: 1.5; stroke-linecap: square"/>
     <g>
      <use xlink:href="#md007afedc7" x="907.915625" y="103.490938" style="stroke: #000000"/>
     </g>
    </g>
    <g id="text_17">
     <!-- target -->
     <g transform="translate(925.915625 106.990938) scale(0.1 -0.1)">
      <defs>
       <path id="DejaVuSans-61" d="M 2194 1759 
Q 1497 1759 1228 1600 
Q 959 1441 959 1056 
Q 959 750 1161 570 
Q 1363 391 1709 391 
Q 2188 391 2477 730 
Q 2766 1069 2766 1631 
L 2766 1759 
L 2194 1759 
z
M 3341 1997 
L 3341 0 
L 2766 0 
L 2766 531 
Q 2569 213 2275 61 
Q 1981 -91 1556 -91 
Q 1019 -91 701 211 
Q 384 513 384 1019 
Q 384 1609 779 1909 
Q 1175 2209 1959 2209 
L 2766 2209 
L 2766 2266 
Q 2766 2663 2505 2880 
Q 2244 3097 1772 3097 
Q 1472 3097 1187 3025 
Q 903 2953 641 2809 
L 641 3341 
Q 956 3463 1253 3523 
Q 1550 3584 1831 3584 
Q 2591 3584 2966 3190 
Q 3341 2797 3341 1997 
z
" transform="scale(0.015625)"/>
       <path id="DejaVuSans-72" d="M 2631 2963 
Q 2534 3019 2420 3045 
Q 2306 3072 2169 3072 
Q 1681 3072 1420 2755 
Q 1159 2438 1159 1844 
L 1159 0 
L 581 0 
L 581 3500 
L 1159 3500 
L 1159 2956 
Q 1341 3275 1631 3429 
Q 1922 3584 2338 3584 
Q 2397 3584 2469 3576 
Q 2541 3569 2628 3553 
L 2631 2963 
z
" transform="scale(0.015625)"/>
       <path id="DejaVuSans-67" d="M 2906 1791 
Q 2906 2416 2648 2759 
Q 2391 3103 1925 3103 
Q 1463 3103 1205 2759 
Q 947 2416 947 1791 
Q 947 1169 1205 825 
Q 1463 481 1925 481 
Q 2391 481 2648 825 
Q 2906 1169 2906 1791 
z
M 3481 434 
Q 3481 -459 3084 -895 
Q 2688 -1331 1869 -1331 
Q 1566 -1331 1297 -1286 
Q 1028 -1241 775 -1147 
L 775 -588 
Q 1028 -725 1275 -790 
Q 1522 -856 1778 -856 
Q 2344 -856 2625 -561 
Q 2906 -266 2906 331 
L 2906 616 
Q 2728 306 2450 153 
Q 2172 0 1784 0 
Q 1141 0 747 490 
Q 353 981 353 1791 
Q 353 2603 747 3093 
Q 1141 3584 1784 3584 
Q 2172 3584 2450 3431 
Q 2728 3278 2906 2969 
L 2906 3500 
L 3481 3500 
L 3481 434 
z
" transform="scale(0.015625)"/>
       <path id="DejaVuSans-65" d="M 3597 1894 
L 3597 1613 
L 953 1613 
Q 991 1019 1311 708 
Q 1631 397 2203 397 
Q 2534 397 2845 478 
Q 3156 559 3463 722 
L 3463 178 
Q 3153 47 2828 -22 
Q 2503 -91 2169 -91 
Q 1331 -91 842 396 
Q 353 884 353 1716 
Q 353 2575 817 3079 
Q 1281 3584 2069 3584 
Q 2775 3584 3186 3129 
Q 3597 2675 3597 1894 
z
M 3022 2063 
Q 3016 2534 2758 2815 
Q 2500 3097 2075 3097 
Q 1594 3097 1305 2825 
Q 1016 2553 972 2059 
L 3022 2063 
z
" transform="scale(0.015625)"/>
      </defs>
      <use xlink:href="#DejaVuSans-74"/>
      <use xlink:href="#DejaVuSans-61" x="39.208984"/>
      <use xlink:href="#DejaVuSans-72" x="100.488281"/>
      <use xlink:href="#DejaVuSans-67" x="139.851562"/>
      <use xlink:href="#DejaVuSans-65" x="203.328125"/>
      <use xlink:href="#DejaVuSans-74" x="264.851562"/>
     </g>
    </g>
   </g>
  </g>
 </g>
 <defs>
  <clipPath id="pfd0c8bbbd9">
   <rect x="135" y="60.48" width="837" height="388.08"/>
  </clipPath>
 </defs>
</svg>
