<?xml version="1.0" encoding="utf-8" standalone="no"?>
<!DOCTYPE svg PUBLIC "-//W3C//DTD SVG 1.1//EN"
  "http://www.w3.org/Graphics/SVG/1.1/DTD/svg11.dtd">
<svg xmlns:xlink="http://www.w3.org/1999/xlink" width="1080pt" height="504pt" viewBox="0 0 1080 504" xmlns="http://www.w3.org/2000/svg" version="1.1">
 <metadata>
  <rdf:RDF xmlns:dc="http://purl.org/dc/elements/1.1/" xmlns:cc="http://creativecommons.org/ns#" xmlns:rdf="http://www.w3.org/1999/02/22-rdf-syntax-ns#">
   <cc:Work>
    <dc:type rdf:resource="http://purl.org/dc/dcmitype/StillImage"/>
    <dc:date>2024-05-09T11:02:58.173382</dc:date>
    <dc:format>image/svg+xml</dc:format>
    <dc:creator>
     <cc:Agent>
      <dc:title>Matplotlib v3.7.1, https://matplotlib.org/</dc:title>
     </cc:Agent>
    </dc:creator>
   </cc:Work>
  </rdf:RDF>
 </metadata>
 <defs>
  <style type="text/css">*{stroke-linejoin: round; stroke-linecap: butt}</style>
 </defs>
 <g id="figure_1">
  <g id="patch_1">
   <path d="M 0 504 
L 1080 504 
L 1080 0 
L 0 0 
z
" style="fill: #ffffff"/>
  </g>
  <g id="axes_1">
   <g id="patch_2">
    <path d="M 135 448.56 
L 972 448.56 
L 972 60.48 
L 135 60.48 
z
" style="fill: #ffffff"/>
   </g>
   <g id="matplotlib.axis_1">
    <g id="xtick_1">
     <g id="line2d_1">
      <defs>
       <path id="ma06903905f" d="M 0 0 
L 0 3.5 
" style="stroke: #000000; stroke-width: 0.8"/>
      </defs>
      <g>
       <use xlink:href="#ma06903905f" x="173.045455" y="448.56" style="stroke: #000000; stroke-width: 0.8"/>
      </g>
     </g>
     <g id="text_1">
      <!-- 0 -->
      <g transform="translate(169.864205 463.158437) scale(0.1 -0.1)">
       <defs>
        <path id="DejaVuSans-30" d="M 2034 4250 
Q 1547 4250 1301 3770 
Q 1056 3291 1056 2328 
Q 1056 1369 1301 889 
Q 1547 409 2034 409 
Q 2525 409 2770 889 
Q 3016 1369 3016 2328 
Q 3016 3291 2770 3770 
Q 2525 4250 2034 4250 
z
M 2034 4750 
Q 2819 4750 3233 4129 
Q 3647 3509 3647 2328 
Q 3647 1150 3233 529 
Q 2819 -91 2034 -91 
Q 1250 -91 836 529 
Q 422 1150 422 2328 
Q 422 3509 836 4129 
Q 1250 4750 2034 4750 
z
" transform="scale(0.015625)"/>
       </defs>
       <use xlink:href="#DejaVuSans-30"/>
      </g>
     </g>
    </g>
    <g id="xtick_2">
     <g id="line2d_2">
      <g>
       <use xlink:href="#ma06903905f" x="333.33808" y="448.56" style="stroke: #000000; stroke-width: 0.8"/>
      </g>
     </g>
     <g id="text_2">
      <!-- 1000 -->
      <g transform="translate(320.61308 463.158437) scale(0.1 -0.1)">
       <defs>
        <path id="DejaVuSans-31" d="M 794 531 
L 1825 531 
L 1825 4091 
L 703 3866 
L 703 4441 
L 1819 4666 
L 2450 4666 
L 2450 531 
L 3481 531 
L 3481 0 
L 794 0 
L 794 531 
z
" transform="scale(0.015625)"/>
       </defs>
       <use xlink:href="#DejaVuSans-31"/>
       <use xlink:href="#DejaVuSans-30" x="63.623047"/>
       <use xlink:href="#DejaVuSans-30" x="127.246094"/>
       <use xlink:href="#DejaVuSans-30" x="190.869141"/>
      </g>
     </g>
    </g>
    <g id="xtick_3">
     <g id="line2d_3">
      <g>
       <use xlink:href="#ma06903905f" x="493.630705" y="448.56" style="stroke: #000000; stroke-width: 0.8"/>
      </g>
     </g>
     <g id="text_3">
      <!-- 2000 -->
      <g transform="translate(480.905705 463.158437) scale(0.1 -0.1)">
       <defs>
        <path id="DejaVuSans-32" d="M 1228 531 
L 3431 531 
L 3431 0 
L 469 0 
L 469 531 
Q 828 903 1448 1529 
Q 2069 2156 2228 2338 
Q 2531 2678 2651 2914 
Q 2772 3150 2772 3378 
Q 2772 3750 2511 3984 
Q 2250 4219 1831 4219 
Q 1534 4219 1204 4116 
Q 875 4013 500 3803 
L 500 4441 
Q 881 4594 1212 4672 
Q 1544 4750 1819 4750 
Q 2544 4750 2975 4387 
Q 3406 4025 3406 3419 
Q 3406 3131 3298 2873 
Q 3191 2616 2906 2266 
Q 2828 2175 2409 1742 
Q 1991 1309 1228 531 
z
" transform="scale(0.015625)"/>
       </defs>
       <use xlink:href="#DejaVuSans-32"/>
       <use xlink:href="#DejaVuSans-30" x="63.623047"/>
       <use xlink:href="#DejaVuSans-30" x="127.246094"/>
       <use xlink:href="#DejaVuSans-30" x="190.869141"/>
      </g>
     </g>
    </g>
    <g id="xtick_4">
     <g id="line2d_4">
      <g>
       <use xlink:href="#ma06903905f" x="653.92333" y="448.56" style="stroke: #000000; stroke-width: 0.8"/>
      </g>
     </g>
     <g id="text_4">
      <!-- 3000 -->
      <g transform="translate(641.19833 463.158437) scale(0.1 -0.1)">
       <defs>
        <path id="DejaVuSans-33" d="M 2597 2516 
Q 3050 2419 3304 2112 
Q 3559 1806 3559 1356 
Q 3559 666 3084 287 
Q 2609 -91 1734 -91 
Q 1441 -91 1130 -33 
Q 819 25 488 141 
L 488 750 
Q 750 597 1062 519 
Q 1375 441 1716 441 
Q 2309 441 2620 675 
Q 2931 909 2931 1356 
Q 2931 1769 2642 2001 
Q 2353 2234 1838 2234 
L 1294 2234 
L 1294 2753 
L 1863 2753 
Q 2328 2753 2575 2939 
Q 2822 3125 2822 3475 
Q 2822 3834 2567 4026 
Q 2313 4219 1838 4219 
Q 1578 4219 1281 4162 
Q 984 4106 628 3988 
L 628 4550 
Q 988 4650 1302 4700 
Q 1616 4750 1894 4750 
Q 2613 4750 3031 4423 
Q 3450 4097 3450 3541 
Q 3450 3153 3228 2886 
Q 3006 2619 2597 2516 
z
" transform="scale(0.015625)"/>
       </defs>
       <use xlink:href="#DejaVuSans-33"/>
       <use xlink:href="#DejaVuSans-30" x="63.623047"/>
       <use xlink:href="#DejaVuSans-30" x="127.246094"/>
       <use xlink:href="#DejaVuSans-30" x="190.869141"/>
      </g>
     </g>
    </g>
    <g id="xtick_5">
     <g id="line2d_5">
      <g>
       <use xlink:href="#ma06903905f" x="814.215955" y="448.56" style="stroke: #000000; stroke-width: 0.8"/>
      </g>
     </g>
     <g id="text_5">
      <!-- 4000 -->
      <g transform="translate(801.490955 463.158437) scale(0.1 -0.1)">
       <defs>
        <path id="DejaVuSans-34" d="M 2419 4116 
L 825 1625 
L 2419 1625 
L 2419 4116 
z
M 2253 4666 
L 3047 4666 
L 3047 1625 
L 3713 1625 
L 3713 1100 
L 3047 1100 
L 3047 0 
L 2419 0 
L 2419 1100 
L 313 1100 
L 313 1709 
L 2253 4666 
z
" transform="scale(0.015625)"/>
       </defs>
       <use xlink:href="#DejaVuSans-34"/>
       <use xlink:href="#DejaVuSans-30" x="63.623047"/>
       <use xlink:href="#DejaVuSans-30" x="127.246094"/>
       <use xlink:href="#DejaVuSans-30" x="190.869141"/>
      </g>
     </g>
    </g>
    <g id="text_6">
     <!-- t -->
     <g transform="translate(551.539844 476.836563) scale(0.1 -0.1)">
      <defs>
       <path id="DejaVuSans-74" d="M 1172 4494 
L 1172 3500 
L 2356 3500 
L 2356 3053 
L 1172 3053 
L 1172 1153 
Q 1172 725 1289 603 
Q 1406 481 1766 481 
L 2356 481 
L 2356 0 
L 1766 0 
Q 1100 0 847 248 
Q 594 497 594 1153 
L 594 3053 
L 172 3053 
L 172 3500 
L 594 3500 
L 594 4494 
L 1172 4494 
z
" transform="scale(0.015625)"/>
      </defs>
      <use xlink:href="#DejaVuSans-74"/>
     </g>
    </g>
   </g>
   <g id="matplotlib.axis_2">
    <g id="ytick_1">
     <g id="line2d_6">
      <defs>
       <path id="m896e78d4fc" d="M 0 0 
L -3.5 0 
" style="stroke: #000000; stroke-width: 0.8"/>
      </defs>
      <g>
       <use xlink:href="#m896e78d4fc" x="135" y="421.184016" style="stroke: #000000; stroke-width: 0.8"/>
      </g>
     </g>
     <g id="text_7">
      <!-- 0 -->
      <g transform="translate(121.6375 424.983235) scale(0.1 -0.1)">
       <use xlink:href="#DejaVuSans-30"/>
      </g>
     </g>
    </g>
    <g id="ytick_2">
     <g id="line2d_7">
      <g>
       <use xlink:href="#m896e78d4fc" x="135" y="351.803808" style="stroke: #000000; stroke-width: 0.8"/>
      </g>
     </g>
     <g id="text_8">
      <!-- 20 -->
      <g transform="translate(115.275 355.603027) scale(0.1 -0.1)">
       <use xlink:href="#DejaVuSans-32"/>
       <use xlink:href="#DejaVuSans-30" x="63.623047"/>
      </g>
     </g>
    </g>
    <g id="ytick_3">
     <g id="line2d_8">
      <g>
       <use xlink:href="#m896e78d4fc" x="135" y="282.4236" style="stroke: #000000; stroke-width: 0.8"/>
      </g>
     </g>
     <g id="text_9">
      <!-- 40 -->
      <g transform="translate(115.275 286.222819) scale(0.1 -0.1)">
       <use xlink:href="#DejaVuSans-34"/>
       <use xlink:href="#DejaVuSans-30" x="63.623047"/>
      </g>
     </g>
    </g>
    <g id="ytick_4">
     <g id="line2d_9">
      <g>
       <use xlink:href="#m896e78d4fc" x="135" y="213.043392" style="stroke: #000000; stroke-width: 0.8"/>
      </g>
     </g>
     <g id="text_10">
      <!-- 60 -->
      <g transform="translate(115.275 216.842611) scale(0.1 -0.1)">
       <defs>
        <path id="DejaVuSans-36" d="M 2113 2584 
Q 1688 2584 1439 2293 
Q 1191 2003 1191 1497 
Q 1191 994 1439 701 
Q 1688 409 2113 409 
Q 2538 409 2786 701 
Q 3034 994 3034 1497 
Q 3034 2003 2786 2293 
Q 2538 2584 2113 2584 
z
M 3366 4563 
L 3366 3988 
Q 3128 4100 2886 4159 
Q 2644 4219 2406 4219 
Q 1781 4219 1451 3797 
Q 1122 3375 1075 2522 
Q 1259 2794 1537 2939 
Q 1816 3084 2150 3084 
Q 2853 3084 3261 2657 
Q 3669 2231 3669 1497 
Q 3669 778 3244 343 
Q 2819 -91 2113 -91 
Q 1303 -91 875 529 
Q 447 1150 447 2328 
Q 447 3434 972 4092 
Q 1497 4750 2381 4750 
Q 2619 4750 2861 4703 
Q 3103 4656 3366 4563 
z
" transform="scale(0.015625)"/>
       </defs>
       <use xlink:href="#DejaVuSans-36"/>
       <use xlink:href="#DejaVuSans-30" x="63.623047"/>
      </g>
     </g>
    </g>
    <g id="ytick_5">
     <g id="line2d_10">
      <g>
       <use xlink:href="#m896e78d4fc" x="135" y="143.663184" style="stroke: #000000; stroke-width: 0.8"/>
      </g>
     </g>
     <g id="text_11">
      <!-- 80 -->
      <g transform="translate(115.275 147.462403) scale(0.1 -0.1)">
       <defs>
        <path id="DejaVuSans-38" d="M 2034 2216 
Q 1584 2216 1326 1975 
Q 1069 1734 1069 1313 
Q 1069 891 1326 650 
Q 1584 409 2034 409 
Q 2484 409 2743 651 
Q 3003 894 3003 1313 
Q 3003 1734 2745 1975 
Q 2488 2216 2034 2216 
z
M 1403 2484 
Q 997 2584 770 2862 
Q 544 3141 544 3541 
Q 544 4100 942 4425 
Q 1341 4750 2034 4750 
Q 2731 4750 3128 4425 
Q 3525 4100 3525 3541 
Q 3525 3141 3298 2862 
Q 3072 2584 2669 2484 
Q 3125 2378 3379 2068 
Q 3634 1759 3634 1313 
Q 3634 634 3220 271 
Q 2806 -91 2034 -91 
Q 1263 -91 848 271 
Q 434 634 434 1313 
Q 434 1759 690 2068 
Q 947 2378 1403 2484 
z
M 1172 3481 
Q 1172 3119 1398 2916 
Q 1625 2713 2034 2713 
Q 2441 2713 2670 2916 
Q 2900 3119 2900 3481 
Q 2900 3844 2670 4047 
Q 2441 4250 2034 4250 
Q 1625 4250 1398 4047 
Q 1172 3844 1172 3481 
z
" transform="scale(0.015625)"/>
       </defs>
       <use xlink:href="#DejaVuSans-38"/>
       <use xlink:href="#DejaVuSans-30" x="63.623047"/>
      </g>
     </g>
    </g>
    <g id="ytick_6">
     <g id="line2d_11">
      <g>
       <use xlink:href="#m896e78d4fc" x="135" y="74.282976" style="stroke: #000000; stroke-width: 0.8"/>
      </g>
     </g>
     <g id="text_12">
      <!-- 100 -->
      <g transform="translate(108.9125 78.082194) scale(0.1 -0.1)">
       <use xlink:href="#DejaVuSans-31"/>
       <use xlink:href="#DejaVuSans-30" x="63.623047"/>
       <use xlink:href="#DejaVuSans-30" x="127.246094"/>
      </g>
     </g>
    </g>
   </g>
   <g id="line2d_12">
    <path d="M 173.045455 418.155711 
L 173.205747 417.99573 
L 173.686625 421.834305 
L 173.846918 422.14636 
L 174.00721 422.207948 
L 174.167503 422.13 
L 174.488088 421.552598 
L 174.968966 419.755485 
L 175.610137 416.906109 
L 175.930722 414.556931 
L 176.4116 408.807025 
L 176.732185 405.007886 
L 176.892478 404.101061 
L 177.05277 404.503975 
L 177.213063 406.781845 
L 177.533648 419.371742 
L 177.693941 430.884527 
L 177.854233 156.098095 
L 178.014526 78.12 
L 178.174819 95.970759 
L 178.976282 358.754141 
L 179.296867 396.751682 
L 179.617452 411.352022 
L 179.938037 416.76107 
L 180.418915 420.122043 
L 180.899793 421.631308 
L 181.220378 421.973475 
L 181.540964 421.991415 
L 182.182134 421.67457 
L 183.464475 421.026552 
L 184.105646 420.961551 
L 185.387987 420.988885 
L 186.18945 420.734516 
L 187.311498 420.131334 
L 189.555595 418.763231 
L 190.196765 418.734271 
L 190.998229 418.971328 
L 193.723203 420.26935 
L 195.165837 421.162123 
L 196.448178 421.879701 
L 197.249641 422.03688 
L 197.890811 421.939154 
L 198.692275 421.567844 
L 201.737834 419.764089 
L 202.69959 419.626422 
L 203.821639 419.73968 
L 205.905443 420.269635 
L 208.149539 420.755489 
L 210.553929 421.032692 
L 213.278903 421.153502 
L 213.439196 418.161585 
L 213.599489 418.029222 
L 214.080367 421.905494 
L 214.240659 422.219633 
L 214.400952 422.280437 
L 214.561244 422.199962 
L 214.88183 421.615386 
L 215.362708 419.808131 
L 216.003878 416.95029 
L 216.324463 414.598488 
L 216.805341 408.845658 
L 217.125926 405.044916 
L 217.286219 404.137339 
L 217.446512 404.539516 
L 217.606804 406.816655 
L 217.92739 419.405066 
L 218.087682 430.917083 
L 218.247975 156.127391 
L 218.408267 78.146212 
L 218.56856 95.994192 
L 219.370023 358.76804 
L 219.690608 396.763098 
L 220.011194 411.361366 
L 220.331779 416.768649 
L 220.812657 420.127457 
L 221.293535 421.63508 
L 221.61412 421.976407 
L 221.934705 421.993679 
L 222.575876 421.675887 
L 223.858217 421.026907 
L 224.499387 420.961688 
L 225.942021 420.955266 
L 226.903777 420.586592 
L 228.025825 419.91483 
L 229.628751 418.866208 
L 230.269922 418.719787 
L 230.911092 418.800417 
L 231.872848 419.191242 
L 235.0787 420.84341 
L 236.841919 421.8797 
L 237.643382 422.036877 
L 238.284553 421.93915 
L 239.086016 421.56784 
L 242.131576 419.764087 
L 243.093332 419.626421 
L 244.21538 419.739679 
L 246.299184 420.269634 
L 248.543281 420.755489 
L 250.94767 421.032692 
L 253.99323 421.16008 
L 254.153523 418.164895 
L 254.313815 418.029956 
L 254.794693 421.902554 
L 254.954986 422.216472 
L 255.115279 422.277348 
L 255.275571 422.197129 
L 255.596156 421.613303 
L 256.077034 419.807098 
L 256.718205 416.949936 
L 257.03879 414.598189 
L 257.519668 408.845214 
L 257.840253 405.044283 
L 258.000546 404.136596 
L 258.160838 404.53866 
L 258.321131 406.815683 
L 258.641716 419.403871 
L 258.802009 430.915783 
L 258.962302 156.126307 
L 259.122594 78.145317 
L 259.282887 95.993445 
L 260.08435 358.767528 
L 260.404935 396.762573 
L 260.72552 411.360824 
L 261.046106 416.7681 
L 261.526984 420.126923 
L 262.007861 421.634587 
L 262.328447 421.975951 
L 262.649032 421.993264 
L 263.290202 421.675564 
L 264.572543 421.026759 
L 265.213714 420.961606 
L 266.656348 420.955257 
L 267.618103 420.586592 
L 268.740152 419.914824 
L 270.343078 418.866191 
L 270.984248 418.71977 
L 271.625419 418.8004 
L 272.587175 419.191228 
L 275.793027 420.843407 
L 277.556246 421.879699 
L 278.357709 422.036876 
L 278.99888 421.93915 
L 279.800343 421.56784 
L 282.845903 419.764087 
L 283.807658 419.626421 
L 284.929707 419.739679 
L 287.013511 420.269634 
L 289.257608 420.755489 
L 291.661997 421.032692 
L 293.585509 421.13165 
L 293.745801 418.148847 
L 293.906094 418.023749 
L 294.386972 421.91058 
L 294.547264 422.2254 
L 294.707557 422.286048 
L 294.86785 422.204881 
L 295.188435 421.618224 
L 295.669313 419.808048 
L 296.310483 416.948474 
L 296.631068 414.596684 
L 297.111946 408.844599 
L 297.432532 405.044647 
L 297.592824 404.13751 
L 297.753117 404.540143 
L 297.913409 406.817741 
L 298.233995 419.407047 
L 298.394287 430.919482 
L 298.55458 156.129254 
L 298.714873 78.147618 
L 298.875165 95.995264 
L 299.676628 358.768926 
L 299.997214 396.764199 
L 300.317799 411.362665 
L 300.638384 416.770089 
L 301.119262 420.128986 
L 301.60014 421.636574 
L 301.920725 421.977828 
L 302.24131 421.994997 
L 302.882481 421.676943 
L 304.164822 421.027404 
L 304.805992 420.96197 
L 306.248626 420.955297 
L 307.210382 420.58659 
L 308.33243 419.914846 
L 309.935356 418.866256 
L 310.576527 418.71984 
L 311.217697 418.800468 
L 312.179453 419.191284 
L 315.385306 420.84342 
L 317.148524 421.879704 
L 317.949988 422.036879 
L 318.591158 421.939151 
L 319.392621 421.567841 
L 322.438181 419.764087 
L 323.399937 419.62642 
L 324.521985 419.739679 
L 326.605789 420.269634 
L 328.849886 420.755489 
L 331.254275 421.032692 
L 333.818957 421.14979 
L 333.97925 418.159588 
L 334.139543 418.028584 
L 334.620421 421.906808 
L 334.780713 422.221067 
L 334.941006 422.281837 
L 335.101298 422.201229 
L 335.421884 421.616261 
L 335.902762 419.808455 
L 336.543932 416.950268 
L 336.864517 414.598448 
L 337.345395 408.84572 
L 337.66598 405.045097 
L 337.826273 404.137587 
L 337.986566 404.539834 
L 338.146858 406.817044 
L 338.467444 419.405593 
L 338.627736 430.917673 
L 338.788029 156.127874 
L 338.948321 78.1466 
L 339.108614 95.994508 
L 339.910077 358.768268 
L 340.230662 396.763347 
L 340.551248 411.361635 
L 340.871833 416.768931 
L 341.352711 420.12774 
L 341.833589 421.635348 
L 342.154174 421.976658 
L 342.474759 421.993909 
L 343.11593 421.676068 
L 344.398271 421.02699 
L 345.039441 420.961735 
L 346.482075 420.955271 
L 347.443831 420.586592 
L 348.565879 419.914833 
L 350.168805 418.866217 
L 350.809976 418.719797 
L 351.451146 418.800426 
L 352.412902 419.19125 
L 355.618754 420.843412 
L 357.381973 421.879701 
L 358.183436 422.036877 
L 358.824607 421.93915 
L 359.62607 421.56784 
L 362.67163 419.764087 
L 363.633386 419.626421 
L 364.755434 419.739679 
L 366.839238 420.269634 
L 369.083335 420.755489 
L 371.487724 421.032692 
L 373.090651 421.120297 
L 373.250943 418.141503 
L 373.411236 418.019641 
L 373.892114 421.911264 
L 374.052406 422.226416 
L 374.212699 422.287016 
L 374.372992 422.205557 
L 374.693577 421.61799 
L 375.174455 419.806536 
L 375.815625 416.946289 
L 376.13621 414.59459 
L 376.617088 408.843004 
L 376.937674 405.043531 
L 377.097966 404.136656 
L 377.258259 404.539557 
L 377.418551 406.817426 
L 377.739137 419.407257 
L 377.899429 430.919941 
L 378.059722 156.129509 
L 378.220015 78.147706 
L 378.380307 95.995244 
L 379.18177 358.769053 
L 379.502356 396.764505 
L 379.822941 411.363133 
L 380.143526 416.770678 
L 380.624404 420.129677 
L 381.105282 421.637289 
L 381.425867 421.978524 
L 381.746452 421.995654 
L 382.387623 421.677482 
L 383.669964 421.027664 
L 384.311134 420.962119 
L 385.753768 420.955314 
L 386.715524 420.586589 
L 387.837572 419.914852 
L 389.440498 418.866279 
L 390.081669 418.719864 
L 390.722839 418.800493 
L 391.684595 419.191305 
L 394.890448 420.843425 
L 396.653666 421.879706 
L 397.45513 422.03688 
L 398.0963 421.939152 
L 398.897763 421.567841 
L 401.943323 419.764087 
L 402.905079 419.62642 
L 404.027127 419.739679 
L 406.110931 420.269634 
L 408.355028 420.755489 
L 410.759417 421.032692 
L 413.644685 421.156926 
L 413.804977 418.163348 
L 413.96527 418.029673 
L 414.446148 421.904071 
L 414.60644 422.218095 
L 414.766733 422.278935 
L 414.927026 422.19859 
L 415.247611 421.614395 
L 415.728489 419.807674 
L 416.369659 416.950174 
L 416.690245 414.598397 
L 417.171122 408.845486 
L 417.491708 405.044641 
L 417.652 404.137005 
L 417.812293 404.539122 
L 417.972586 406.816199 
L 418.293171 419.40449 
L 418.453463 430.916451 
L 418.613756 156.126867 
L 418.774049 78.145783 
L 418.934341 95.993836 
L 419.735804 358.767792 
L 420.05639 396.76284 
L 420.376975 411.361095 
L 420.69756 416.768372 
L 421.178438 420.127184 
L 421.659316 421.634826 
L 421.979901 421.976172 
L 422.300486 421.993464 
L 422.941657 421.675719 
L 424.223998 421.02683 
L 424.865168 420.961645 
L 426.307802 420.955261 
L 427.269558 420.586592 
L 428.391606 419.914827 
L 429.994532 418.866199 
L 430.635703 418.719778 
L 431.276873 418.800409 
L 432.238629 419.191235 
L 435.444482 420.843409 
L 437.207701 421.8797 
L 438.009164 422.036877 
L 438.650334 421.93915 
L 439.451797 421.56784 
L 442.497357 419.764087 
L 443.459113 419.626421 
L 444.581161 419.739679 
L 446.664965 420.269634 
L 448.909062 420.755489 
L 451.313452 421.032692 
L 453.557548 421.141421 
L 453.717841 418.154812 
L 453.878134 418.026666 
L 454.359011 421.909032 
L 454.519304 422.223555 
L 454.679597 422.284261 
L 454.839889 422.203378 
L 455.160475 421.617589 
L 455.641352 419.80863 
L 456.282523 416.949747 
L 456.603108 414.59792 
L 457.083986 408.845462 
L 457.404571 405.045131 
L 457.564864 404.137785 
L 457.725157 404.540203 
L 457.885449 406.817584 
L 458.206034 419.406466 
L 458.366327 430.918703 
L 458.52662 156.128688 
L 458.686912 78.147229 
L 458.847205 95.995 
L 459.648668 358.768655 
L 459.969253 396.763806 
L 460.289839 411.362162 
L 460.610424 416.769505 
L 461.091302 420.12834 
L 461.57218 421.635929 
L 461.892765 421.977208 
L 462.21335 421.994417 
L 462.854521 421.676474 
L 464.136862 421.02718 
L 464.778032 420.961843 
L 466.220666 420.955283 
L 467.182421 420.586592 
L 468.30447 419.91484 
L 469.907396 418.866236 
L 470.548567 418.719817 
L 471.189737 418.800446 
L 472.151493 419.191266 
L 475.357345 420.843416 
L 477.120564 421.879702 
L 477.922027 422.036878 
L 478.563198 421.939151 
L 479.364661 421.567841 
L 482.410221 419.764087 
L 483.371977 419.62642 
L 484.494025 419.739679 
L 486.577829 420.269634 
L 488.821926 420.755489 
L 491.226315 421.032692 
L 493.630705 421.14577 
L 493.790997 418.157338 
L 493.95129 418.027738 
L 494.432168 421.907994 
L 494.59246 422.222381 
L 494.752753 422.283118 
L 494.913046 422.202374 
L 495.233631 421.617001 
L 495.714509 419.808627 
L 496.355679 416.950092 
L 496.676264 414.598264 
L 497.157142 408.845659 
L 497.477728 405.045172 
L 497.63802 404.137739 
L 497.798313 404.540066 
L 497.958605 406.817357 
L 498.279191 419.406062 
L 498.439483 430.918216 
L 498.599776 156.128308 
L 498.760069 78.146941 
L 498.920361 95.99478 
L 499.721824 358.768474 
L 500.04241 396.763583 
L 500.362995 411.361901 
L 500.68358 416.769216 
L 501.164458 420.128034 
L 501.645336 421.63563 
L 501.965921 421.976925 
L 502.286506 421.994155 
L 502.927677 421.676264 
L 504.210018 421.027082 
L 504.851188 420.961787 
L 506.293822 420.955277 
L 507.255578 420.586592 
L 508.377626 419.914836 
L 509.980552 418.866226 
L 510.621723 418.719807 
L 511.262893 418.800436 
L 512.224649 419.191258 
L 515.430502 420.843414 
L 517.19372 421.879701 
L 517.995184 422.036878 
L 518.636354 421.93915 
L 519.437817 421.56784 
L 522.483377 419.764087 
L 523.445133 419.62642 
L 524.567181 419.739679 
L 526.650985 420.269634 
L 528.895082 420.755489 
L 531.299471 421.032692 
L 533.864153 421.14979 
L 534.024446 418.159588 
L 534.184739 418.028584 
L 534.665617 421.906808 
L 534.825909 422.221067 
L 534.986202 422.281837 
L 535.146494 422.201229 
L 535.46708 421.616261 
L 535.947958 419.808455 
L 536.589128 416.950268 
L 536.909713 414.598448 
L 537.390591 408.84572 
L 537.711176 405.045097 
L 537.871469 404.137587 
L 538.031762 404.539834 
L 538.192054 406.817044 
L 538.51264 419.405593 
L 538.672932 430.917673 
L 538.833225 156.127874 
L 538.993517 78.1466 
L 539.15381 95.994508 
L 539.955273 358.768268 
L 540.275858 396.763347 
L 540.596444 411.361635 
L 540.917029 416.768931 
L 541.397907 420.12774 
L 541.878785 421.635348 
L 542.19937 421.976658 
L 542.519955 421.993909 
L 543.161126 421.676068 
L 544.443467 421.02699 
L 545.084637 420.961735 
L 546.527271 420.955271 
L 547.489027 420.586592 
L 548.611075 419.914833 
L 550.214001 418.866217 
L 550.855172 418.719797 
L 551.496342 418.800426 
L 552.458098 419.19125 
L 555.66395 420.843412 
L 557.427169 421.879701 
L 558.228632 422.036877 
L 558.869803 421.93915 
L 559.671266 421.56784 
L 562.716826 419.764087 
L 563.678582 419.626421 
L 564.80063 419.739679 
L 566.884434 420.269634 
L 569.128531 420.755489 
L 571.53292 421.032692 
L 574.257895 421.153502 
L 574.418188 418.161585 
L 574.57848 418.029222 
L 575.059358 421.905495 
L 575.219651 422.219633 
L 575.379943 422.280437 
L 575.540236 422.199962 
L 575.860821 421.615387 
L 576.341699 419.808132 
L 576.98287 416.95029 
L 577.303455 414.598488 
L 577.784333 408.845658 
L 578.104918 405.044916 
L 578.265211 404.137339 
L 578.425503 404.539516 
L 578.585796 406.816655 
L 578.906381 419.405066 
L 579.066674 430.917083 
L 579.226966 156.127391 
L 579.387259 78.146212 
L 579.547552 95.994192 
L 580.349015 358.76804 
L 580.6696 396.763098 
L 580.990185 411.361366 
L 581.31077 416.768649 
L 581.791648 420.127457 
L 582.272526 421.63508 
L 582.593111 421.976407 
L 582.913697 421.993679 
L 583.554867 421.675887 
L 584.837208 421.026907 
L 585.478379 420.961688 
L 586.921012 420.955266 
L 587.882768 420.586592 
L 589.004816 419.91483 
L 590.607743 418.866208 
L 591.248913 418.719787 
L 591.890084 418.800417 
L 592.851839 419.191242 
L 596.057692 420.84341 
L 597.820911 421.8797 
L 598.622374 422.036877 
L 599.263544 421.93915 
L 600.065008 421.56784 
L 603.110567 419.764087 
L 604.072323 419.626421 
L 605.194372 419.739679 
L 607.278176 420.269634 
L 609.522272 420.755489 
L 611.926662 421.032692 
L 613.209003 421.10717 
L 613.369295 418.132574 
L 613.529588 418.014129 
L 614.010466 421.910872 
L 614.170759 422.226393 
L 614.331051 422.286956 
L 614.491344 422.205197 
L 614.811929 421.616679 
L 615.292807 419.803893 
L 615.933977 416.943006 
L 616.254563 414.591467 
L 616.735441 408.840528 
L 617.056026 405.04165 
L 617.216318 404.135099 
L 617.376611 404.538331 
L 617.536904 406.816532 
L 617.857489 419.40701 
L 618.017782 430.92 
L 618.178074 156.129376 
L 618.338367 78.147423 
L 618.498659 95.994876 
L 619.300123 358.769 
L 619.620708 396.764701 
L 619.941293 411.363548 
L 620.261878 416.771263 
L 620.742756 420.130416 
L 621.223634 421.638078 
L 621.544219 421.979303 
L 621.864805 421.996397 
L 622.505975 421.678099 
L 623.788316 421.027966 
L 624.429487 420.962293 
L 625.87212 420.955334 
L 626.833876 420.586586 
L 627.955924 419.914858 
L 629.558851 418.866303 
L 630.200021 418.719892 
L 630.841192 418.800519 
L 631.802947 419.191327 
L 635.0088 420.84343 
L 636.772019 421.879708 
L 637.573482 422.036882 
L 638.214652 421.939153 
L 639.016115 421.567842 
L 642.061675 419.764087 
L 643.023431 419.62642 
L 644.145479 419.739679 
L 646.229284 420.269634 
L 648.47338 420.755489 
L 650.87777 421.032692 
L 653.92333 421.16008 
L 654.083622 418.164895 
L 654.243915 418.029956 
L 654.724793 421.902554 
L 654.885085 422.216472 
L 655.045378 422.277348 
L 655.205671 422.197129 
L 655.526256 421.613303 
L 656.007134 419.807098 
L 656.648304 416.949936 
L 656.968889 414.598189 
L 657.449767 408.845214 
L 657.770353 405.044283 
L 657.930645 404.136596 
L 658.090938 404.53866 
L 658.25123 406.815683 
L 658.571816 419.403871 
L 658.732108 430.915783 
L 658.892401 156.126307 
L 659.052694 78.145317 
L 659.212986 95.993445 
L 660.014449 358.767528 
L 660.335035 396.762573 
L 660.65562 411.360824 
L 660.976205 416.7681 
L 661.457083 420.126923 
L 661.937961 421.634587 
L 662.258546 421.975951 
L 662.579131 421.993264 
L 663.220302 421.675564 
L 664.502643 421.026759 
L 665.143813 420.961606 
L 666.586447 420.955257 
L 667.548203 420.586592 
L 668.670251 419.914824 
L 670.273177 418.866191 
L 670.914348 418.71977 
L 671.555518 418.8004 
L 672.517274 419.191228 
L 675.723127 420.843407 
L 677.486345 421.879699 
L 678.287809 422.036876 
L 678.928979 421.93915 
L 679.730442 421.56784 
L 682.776002 419.764087 
L 683.737758 419.626421 
L 684.859806 419.739679 
L 686.94361 420.269634 
L 689.187707 420.755489 
L 691.592096 421.032692 
L 694.156778 421.14979 
L 694.317071 418.159588 
L 694.477364 418.028584 
L 694.958242 421.906808 
L 695.118534 422.221067 
L 695.278827 422.281837 
L 695.439119 422.201229 
L 695.759705 421.616261 
L 696.240583 419.808455 
L 696.881753 416.950268 
L 697.202338 414.598448 
L 697.683216 408.84572 
L 698.003801 405.045097 
L 698.164094 404.137587 
L 698.324387 404.539834 
L 698.484679 406.817044 
L 698.805265 419.405593 
L 698.965557 430.917673 
L 699.12585 156.127874 
L 699.286142 78.1466 
L 699.446435 95.994508 
L 700.247898 358.768268 
L 700.568483 396.763347 
L 700.889069 411.361635 
L 701.209654 416.768931 
L 701.690532 420.12774 
L 702.17141 421.635348 
L 702.491995 421.976658 
L 702.81258 421.993909 
L 703.453751 421.676068 
L 704.736092 421.02699 
L 705.377262 420.961735 
L 706.819896 420.955271 
L 707.781652 420.586592 
L 708.9037 419.914833 
L 710.506626 418.866217 
L 711.147797 418.719797 
L 711.788967 418.800426 
L 712.750723 419.19125 
L 715.956575 420.843412 
L 717.719794 421.879701 
L 718.521257 422.036877 
L 719.162428 421.93915 
L 719.963891 421.56784 
L 723.009451 419.764087 
L 723.971207 419.626421 
L 725.093255 419.739679 
L 727.177059 420.269634 
L 729.421156 420.755489 
L 731.825545 421.032692 
L 734.069642 421.141421 
L 734.229935 418.154812 
L 734.390227 418.026666 
L 734.871105 421.909032 
L 735.031398 422.223555 
L 735.19169 422.284261 
L 735.351983 422.203378 
L 735.672568 421.617589 
L 736.153446 419.80863 
L 736.794617 416.949747 
L 737.115202 414.59792 
L 737.59608 408.845462 
L 737.916665 405.045131 
L 738.076958 404.137785 
L 738.23725 404.540203 
L 738.397543 406.817584 
L 738.718128 419.406466 
L 738.878421 430.918703 
L 739.038713 156.128688 
L 739.199006 78.147229 
L 739.359299 95.995 
L 740.160762 358.768655 
L 740.481347 396.763806 
L 740.801932 411.362162 
L 741.122518 416.769505 
L 741.603395 420.12834 
L 742.084273 421.635929 
L 742.404859 421.977208 
L 742.725444 421.994417 
L 743.366614 421.676474 
L 744.648955 421.02718 
L 745.290126 420.961843 
L 746.732759 420.955283 
L 747.694515 420.586592 
L 748.816564 419.91484 
L 750.41949 418.866236 
L 751.06066 418.719817 
L 751.701831 418.800446 
L 752.663587 419.191266 
L 755.869439 420.843416 
L 757.632658 421.879702 
L 758.434121 422.036878 
L 759.075292 421.939151 
L 759.876755 421.567841 
L 762.922315 419.764087 
L 763.88407 419.62642 
L 765.006119 419.739679 
L 767.089923 420.269634 
L 769.33402 420.755489 
L 771.738409 421.032692 
L 773.822213 421.136722 
L 773.982506 418.15199 
L 774.142798 418.025344 
L 774.623676 421.909902 
L 774.783969 422.224569 
L 774.944261 422.285245 
L 775.104554 422.204221 
L 775.425139 421.618004 
L 775.906017 419.808444 
L 776.547188 416.949214 
L 776.867773 414.5974 
L 777.348651 408.845114 
L 777.669236 405.044961 
L 777.829529 404.137713 
L 777.989821 404.540232 
L 778.150114 406.817716 
L 778.470699 419.406798 
L 778.630992 430.919128 
L 778.791284 156.129006 
L 778.951577 78.147457 
L 779.11187 95.995164 
L 779.913333 358.768807 
L 780.233918 396.764012 
L 780.554503 411.362417 
L 780.875089 416.769796 
L 781.355966 420.128657 
L 781.836844 421.636243 
L 782.15743 421.977509 
L 782.478015 421.994698 
L 783.119185 421.6767 
L 784.401526 421.027288 
L 785.042697 420.961904 
L 786.48533 420.95529 
L 787.447086 420.586591 
L 788.569135 419.914843 
L 790.172061 418.866246 
L 790.813231 418.719828 
L 791.454402 418.800457 
L 792.416158 419.191275 
L 795.62201 420.843418 
L 797.385229 421.879703 
L 798.186692 422.036879 
L 798.827863 421.939151 
L 799.629326 421.567841 
L 802.674886 419.764087 
L 803.636641 419.62642 
L 804.75869 419.739679 
L 806.842494 420.269634 
L 809.086591 420.755489 
L 811.49098 421.032692 
L 813.414491 421.13165 
L 813.574784 418.148847 
L 813.735077 418.023749 
L 814.215955 421.91058 
L 814.376247 422.2254 
L 814.53654 422.286048 
L 814.696832 422.204881 
L 815.017418 421.618224 
L 815.498296 419.808048 
L 816.139466 416.948474 
L 816.460051 414.596684 
L 816.940929 408.844599 
L 817.261514 405.044647 
L 817.421807 404.13751 
L 817.5821 404.540143 
L 817.742392 406.817741 
L 818.062978 419.407047 
L 818.22327 430.919482 
L 818.383563 156.129254 
L 818.543855 78.147618 
L 818.704148 95.995264 
L 819.505611 358.768926 
L 819.826196 396.764199 
L 820.146782 411.362665 
L 820.467367 416.770089 
L 820.948245 420.128986 
L 821.429123 421.636574 
L 821.749708 421.977828 
L 822.070293 421.994997 
L 822.711464 421.676943 
L 823.993805 421.027404 
L 824.634975 420.96197 
L 826.077609 420.955297 
L 827.039365 420.58659 
L 828.161413 419.914846 
L 829.764339 418.866256 
L 830.40551 418.71984 
L 831.04668 418.800468 
L 832.008436 419.191284 
L 835.214288 420.84342 
L 836.977507 421.879704 
L 837.77897 422.036879 
L 838.420141 421.939151 
L 839.221604 421.567841 
L 842.267164 419.764087 
L 843.22892 419.62642 
L 844.350968 419.739679 
L 846.434772 420.269634 
L 848.678869 420.755489 
L 851.083258 421.032692 
L 854.449403 421.165652 
L 854.609696 421.168102 
L 854.769989 418.168418 
L 854.930281 418.02996 
L 855.411159 421.897592 
L 855.571452 422.211226 
L 855.731744 422.272214 
L 855.892037 422.192353 
L 856.212622 421.609557 
L 856.6935 419.804792 
L 857.334671 416.948606 
L 857.655256 414.596984 
L 858.136134 408.843907 
L 858.456719 405.042792 
L 858.617012 404.134996 
L 858.777304 404.536944 
L 858.937597 406.813851 
L 859.258182 419.401811 
L 859.418475 430.91362 
L 859.578767 156.124459 
L 859.73906 78.14375 
L 859.899353 95.992106 
L 860.700816 358.766656 
L 861.021401 396.761737 
L 861.341986 411.36001 
L 861.662572 416.767315 
L 862.143449 420.126201 
L 862.624327 421.633944 
L 862.944913 421.975367 
L 863.265498 421.992741 
L 863.906668 421.675166 
L 865.189009 421.026583 
L 865.83018 420.961509 
L 867.272813 420.955247 
L 868.234569 420.586591 
L 869.356618 419.914814 
L 870.959544 418.866169 
L 871.600714 418.719746 
L 872.241885 418.800378 
L 873.203641 419.19121 
L 876.409493 420.843403 
L 878.172712 421.879698 
L 878.974175 422.036876 
L 879.615346 421.939149 
L 880.416809 421.56784 
L 883.462369 419.764087 
L 884.424124 419.626421 
L 885.546173 419.739679 
L 887.629977 420.269634 
L 889.874074 420.755489 
L 892.278463 421.032692 
L 894.362267 421.136722 
L 894.52256 418.15199 
L 894.682852 418.025344 
L 895.16373 421.909902 
L 895.324023 422.224569 
L 895.484315 422.285245 
L 895.644608 422.204221 
L 895.965193 421.618004 
L 896.446071 419.808444 
L 897.087242 416.949214 
L 897.407827 414.5974 
L 897.888705 408.845114 
L 898.20929 405.044961 
L 898.369583 404.137713 
L 898.529875 404.540232 
L 898.690168 406.817716 
L 899.010753 419.406798 
L 899.171046 430.919128 
L 899.331338 156.129006 
L 899.491631 78.147457 
L 899.651924 95.995164 
L 900.453387 358.768807 
L 900.773972 396.764012 
L 901.094557 411.362417 
L 901.415143 416.769796 
L 901.89602 420.128657 
L 902.376898 421.636243 
L 902.697484 421.977509 
L 903.018069 421.994698 
L 903.659239 421.6767 
L 904.94158 421.027288 
L 905.582751 420.961904 
L 907.025384 420.95529 
L 907.98714 420.586591 
L 909.109189 419.914843 
L 910.712115 418.866246 
L 911.353285 418.719828 
L 911.994456 418.800457 
L 912.956212 419.191275 
L 916.162064 420.843418 
L 917.925283 421.879703 
L 918.726746 422.036879 
L 919.367917 421.939151 
L 920.16938 421.567841 
L 923.21494 419.764087 
L 924.176695 419.62642 
L 925.298744 419.739679 
L 927.382548 420.269634 
L 929.626645 420.755489 
L 932.031034 421.032692 
L 933.794253 421.126183 
L 933.954545 418.14536 
L 933.954545 418.14536 
" clip-path="url(#pce414a547b)" style="fill: none; stroke: #1f77b4; stroke-width: 1.5; stroke-linecap: square"/>
   </g>
   <g id="line2d_13">
    <path d="M 173.045455 417.715006 
L 177.693941 417.715006 
L 177.854233 421.184016 
L 213.278903 421.184016 
L 213.439196 417.715006 
L 218.087682 417.715006 
L 218.247975 421.184016 
L 253.99323 421.184016 
L 254.153523 417.715006 
L 258.802009 417.715006 
L 258.962302 421.184016 
L 293.585509 421.184016 
L 293.745801 417.715006 
L 298.394287 417.715006 
L 298.55458 421.184016 
L 333.818957 421.184016 
L 333.97925 417.715006 
L 338.627736 417.715006 
L 338.788029 421.184016 
L 373.090651 421.184016 
L 373.250943 417.715006 
L 377.899429 417.715006 
L 378.059722 421.184016 
L 413.644685 421.184016 
L 413.804977 417.715006 
L 418.453463 417.715006 
L 418.613756 421.184016 
L 453.557548 421.184016 
L 453.717841 417.715006 
L 458.366327 417.715006 
L 458.52662 421.184016 
L 493.630705 421.184016 
L 493.790997 417.715006 
L 498.439483 417.715006 
L 498.599776 421.184016 
L 533.864153 421.184016 
L 534.024446 417.715006 
L 538.672932 417.715006 
L 538.833225 421.184016 
L 574.257895 421.184016 
L 574.418188 417.715006 
L 579.066674 417.715006 
L 579.226966 421.184016 
L 613.209003 421.184016 
L 613.369295 417.715006 
L 618.017782 417.715006 
L 618.178074 421.184016 
L 653.92333 421.184016 
L 654.083622 417.715006 
L 658.732108 417.715006 
L 658.892401 421.184016 
L 694.156778 421.184016 
L 694.317071 417.715006 
L 698.965557 417.715006 
L 699.12585 421.184016 
L 734.069642 421.184016 
L 734.229935 417.715006 
L 738.878421 417.715006 
L 739.038713 421.184016 
L 773.822213 421.184016 
L 773.982506 417.715006 
L 778.630992 417.715006 
L 778.791284 421.184016 
L 813.414491 421.184016 
L 813.574784 417.715006 
L 818.22327 417.715006 
L 818.383563 421.184016 
L 854.609696 421.184016 
L 854.769989 417.715006 
L 859.418475 417.715006 
L 859.578767 421.184016 
L 894.362267 421.184016 
L 894.52256 417.715006 
L 899.171046 417.715006 
L 899.331338 421.184016 
L 933.794253 421.184016 
L 933.954545 417.715006 
L 933.954545 417.715006 
" clip-path="url(#pce414a547b)" style="fill: none; stroke: #ff7f0e; stroke-width: 1.5; stroke-linecap: square"/>
   </g>
   <g id="line2d_14">
    <path d="M 929.466352 421.184016 
" clip-path="url(#pce414a547b)" style="fill: none; stroke: #000000; stroke-width: 1.5; stroke-linecap: square"/>
    <defs>
     <path id="m240fca98db" d="M 0 1 
C 0.265203 1 0.51958 0.894634 0.707107 0.707107 
C 0.894634 0.51958 1 0.265203 1 0 
C 1 -0.265203 0.894634 -0.51958 0.707107 -0.707107 
C 0.51958 -0.894634 0.265203 -1 0 -1 
C -0.265203 -1 -0.51958 -0.894634 -0.707107 -0.707107 
C -0.894634 -0.51958 -1 -0.265203 -1 0 
C -1 0.265203 -0.894634 0.51958 -0.707107 0.707107 
C -0.51958 0.894634 -0.265203 1 0 1 
z
" style="stroke: #000000"/>
    </defs>
    <g clip-path="url(#pce414a547b)">
     <use xlink:href="#m240fca98db" x="173.045455" y="417.715006" style="stroke: #000000"/>
     <use xlink:href="#m240fca98db" x="178.174819" y="421.184016" style="stroke: #000000"/>
     <use xlink:href="#m240fca98db" x="183.14389" y="421.184016" style="stroke: #000000"/>
     <use xlink:href="#m240fca98db" x="188.112961" y="417.715006" style="stroke: #000000"/>
     <use xlink:href="#m240fca98db" x="193.082033" y="421.184016" style="stroke: #000000"/>
     <use xlink:href="#m240fca98db" x="198.211397" y="421.184016" style="stroke: #000000"/>
     <use xlink:href="#m240fca98db" x="203.180468" y="417.715006" style="stroke: #000000"/>
     <use xlink:href="#m240fca98db" x="208.149539" y="421.184016" style="stroke: #000000"/>
     <use xlink:href="#m240fca98db" x="213.118611" y="417.715006" style="stroke: #000000"/>
     <use xlink:href="#m240fca98db" x="218.247975" y="421.184016" style="stroke: #000000"/>
     <use xlink:href="#m240fca98db" x="223.217046" y="421.184016" style="stroke: #000000"/>
     <use xlink:href="#m240fca98db" x="228.186118" y="417.715006" style="stroke: #000000"/>
     <use xlink:href="#m240fca98db" x="233.155189" y="421.184016" style="stroke: #000000"/>
     <use xlink:href="#m240fca98db" x="238.284553" y="421.184016" style="stroke: #000000"/>
     <use xlink:href="#m240fca98db" x="243.253624" y="417.715006" style="stroke: #000000"/>
     <use xlink:href="#m240fca98db" x="248.222696" y="421.184016" style="stroke: #000000"/>
     <use xlink:href="#m240fca98db" x="253.191767" y="417.715006" style="stroke: #000000"/>
     <use xlink:href="#m240fca98db" x="258.321131" y="421.184016" style="stroke: #000000"/>
     <use xlink:href="#m240fca98db" x="263.290202" y="421.184016" style="stroke: #000000"/>
     <use xlink:href="#m240fca98db" x="268.259274" y="417.715006" style="stroke: #000000"/>
     <use xlink:href="#m240fca98db" x="273.228345" y="421.184016" style="stroke: #000000"/>
     <use xlink:href="#m240fca98db" x="278.357709" y="421.184016" style="stroke: #000000"/>
     <use xlink:href="#m240fca98db" x="283.326781" y="417.715006" style="stroke: #000000"/>
     <use xlink:href="#m240fca98db" x="288.295852" y="421.184016" style="stroke: #000000"/>
     <use xlink:href="#m240fca98db" x="293.264923" y="417.715006" style="stroke: #000000"/>
     <use xlink:href="#m240fca98db" x="298.394287" y="421.184016" style="stroke: #000000"/>
     <use xlink:href="#m240fca98db" x="303.363359" y="421.184016" style="stroke: #000000"/>
     <use xlink:href="#m240fca98db" x="308.33243" y="417.715006" style="stroke: #000000"/>
     <use xlink:href="#m240fca98db" x="313.301501" y="421.184016" style="stroke: #000000"/>
     <use xlink:href="#m240fca98db" x="318.430865" y="421.184016" style="stroke: #000000"/>
     <use xlink:href="#m240fca98db" x="323.399937" y="417.715006" style="stroke: #000000"/>
     <use xlink:href="#m240fca98db" x="328.369008" y="421.184016" style="stroke: #000000"/>
     <use xlink:href="#m240fca98db" x="333.33808" y="417.715006" style="stroke: #000000"/>
     <use xlink:href="#m240fca98db" x="338.467444" y="421.184016" style="stroke: #000000"/>
     <use xlink:href="#m240fca98db" x="343.436515" y="421.184016" style="stroke: #000000"/>
     <use xlink:href="#m240fca98db" x="348.405586" y="417.715006" style="stroke: #000000"/>
     <use xlink:href="#m240fca98db" x="353.374658" y="421.184016" style="stroke: #000000"/>
     <use xlink:href="#m240fca98db" x="358.504022" y="421.184016" style="stroke: #000000"/>
     <use xlink:href="#m240fca98db" x="363.473093" y="417.715006" style="stroke: #000000"/>
     <use xlink:href="#m240fca98db" x="368.442164" y="421.184016" style="stroke: #000000"/>
     <use xlink:href="#m240fca98db" x="373.411236" y="417.715006" style="stroke: #000000"/>
     <use xlink:href="#m240fca98db" x="378.5406" y="421.184016" style="stroke: #000000"/>
     <use xlink:href="#m240fca98db" x="383.509671" y="421.184016" style="stroke: #000000"/>
     <use xlink:href="#m240fca98db" x="388.478743" y="417.715006" style="stroke: #000000"/>
     <use xlink:href="#m240fca98db" x="393.447814" y="421.184016" style="stroke: #000000"/>
     <use xlink:href="#m240fca98db" x="398.577178" y="421.184016" style="stroke: #000000"/>
     <use xlink:href="#m240fca98db" x="403.546249" y="417.715006" style="stroke: #000000"/>
     <use xlink:href="#m240fca98db" x="408.515321" y="421.184016" style="stroke: #000000"/>
     <use xlink:href="#m240fca98db" x="413.484392" y="417.715006" style="stroke: #000000"/>
     <use xlink:href="#m240fca98db" x="418.613756" y="421.184016" style="stroke: #000000"/>
     <use xlink:href="#m240fca98db" x="423.582827" y="421.184016" style="stroke: #000000"/>
     <use xlink:href="#m240fca98db" x="428.551899" y="417.715006" style="stroke: #000000"/>
     <use xlink:href="#m240fca98db" x="433.52097" y="421.184016" style="stroke: #000000"/>
     <use xlink:href="#m240fca98db" x="438.650334" y="421.184016" style="stroke: #000000"/>
     <use xlink:href="#m240fca98db" x="443.619406" y="417.715006" style="stroke: #000000"/>
     <use xlink:href="#m240fca98db" x="448.588477" y="421.184016" style="stroke: #000000"/>
     <use xlink:href="#m240fca98db" x="453.557548" y="417.715006" style="stroke: #000000"/>
     <use xlink:href="#m240fca98db" x="458.686912" y="421.184016" style="stroke: #000000"/>
     <use xlink:href="#m240fca98db" x="463.655984" y="421.184016" style="stroke: #000000"/>
     <use xlink:href="#m240fca98db" x="468.625055" y="417.715006" style="stroke: #000000"/>
     <use xlink:href="#m240fca98db" x="473.594126" y="421.184016" style="stroke: #000000"/>
     <use xlink:href="#m240fca98db" x="478.72349" y="421.184016" style="stroke: #000000"/>
     <use xlink:href="#m240fca98db" x="483.692562" y="417.715006" style="stroke: #000000"/>
     <use xlink:href="#m240fca98db" x="488.661633" y="421.184016" style="stroke: #000000"/>
     <use xlink:href="#m240fca98db" x="493.630705" y="417.715006" style="stroke: #000000"/>
     <use xlink:href="#m240fca98db" x="498.760069" y="421.184016" style="stroke: #000000"/>
     <use xlink:href="#m240fca98db" x="503.72914" y="421.184016" style="stroke: #000000"/>
     <use xlink:href="#m240fca98db" x="508.698211" y="417.715006" style="stroke: #000000"/>
     <use xlink:href="#m240fca98db" x="513.667283" y="421.184016" style="stroke: #000000"/>
     <use xlink:href="#m240fca98db" x="518.796647" y="421.184016" style="stroke: #000000"/>
     <use xlink:href="#m240fca98db" x="523.765718" y="417.715006" style="stroke: #000000"/>
     <use xlink:href="#m240fca98db" x="528.734789" y="421.184016" style="stroke: #000000"/>
     <use xlink:href="#m240fca98db" x="533.703861" y="417.715006" style="stroke: #000000"/>
     <use xlink:href="#m240fca98db" x="538.833225" y="421.184016" style="stroke: #000000"/>
     <use xlink:href="#m240fca98db" x="543.802296" y="421.184016" style="stroke: #000000"/>
     <use xlink:href="#m240fca98db" x="548.771368" y="417.715006" style="stroke: #000000"/>
     <use xlink:href="#m240fca98db" x="553.740439" y="421.184016" style="stroke: #000000"/>
     <use xlink:href="#m240fca98db" x="558.869803" y="421.184016" style="stroke: #000000"/>
     <use xlink:href="#m240fca98db" x="563.838874" y="417.715006" style="stroke: #000000"/>
     <use xlink:href="#m240fca98db" x="568.807946" y="421.184016" style="stroke: #000000"/>
     <use xlink:href="#m240fca98db" x="573.777017" y="417.715006" style="stroke: #000000"/>
     <use xlink:href="#m240fca98db" x="578.906381" y="421.184016" style="stroke: #000000"/>
     <use xlink:href="#m240fca98db" x="583.875452" y="421.184016" style="stroke: #000000"/>
     <use xlink:href="#m240fca98db" x="588.844524" y="417.715006" style="stroke: #000000"/>
     <use xlink:href="#m240fca98db" x="593.813595" y="421.184016" style="stroke: #000000"/>
     <use xlink:href="#m240fca98db" x="598.942959" y="421.184016" style="stroke: #000000"/>
     <use xlink:href="#m240fca98db" x="603.912031" y="417.715006" style="stroke: #000000"/>
     <use xlink:href="#m240fca98db" x="608.881102" y="421.184016" style="stroke: #000000"/>
     <use xlink:href="#m240fca98db" x="613.850173" y="417.715006" style="stroke: #000000"/>
     <use xlink:href="#m240fca98db" x="618.979537" y="421.184016" style="stroke: #000000"/>
     <use xlink:href="#m240fca98db" x="623.948609" y="421.184016" style="stroke: #000000"/>
     <use xlink:href="#m240fca98db" x="628.91768" y="417.715006" style="stroke: #000000"/>
     <use xlink:href="#m240fca98db" x="633.886751" y="421.184016" style="stroke: #000000"/>
     <use xlink:href="#m240fca98db" x="639.016115" y="421.184016" style="stroke: #000000"/>
     <use xlink:href="#m240fca98db" x="643.985187" y="417.715006" style="stroke: #000000"/>
     <use xlink:href="#m240fca98db" x="648.954258" y="421.184016" style="stroke: #000000"/>
     <use xlink:href="#m240fca98db" x="653.92333" y="417.715006" style="stroke: #000000"/>
     <use xlink:href="#m240fca98db" x="659.052694" y="421.184016" style="stroke: #000000"/>
     <use xlink:href="#m240fca98db" x="664.021765" y="421.184016" style="stroke: #000000"/>
     <use xlink:href="#m240fca98db" x="668.990836" y="417.715006" style="stroke: #000000"/>
     <use xlink:href="#m240fca98db" x="673.959908" y="421.184016" style="stroke: #000000"/>
     <use xlink:href="#m240fca98db" x="679.089272" y="421.184016" style="stroke: #000000"/>
     <use xlink:href="#m240fca98db" x="684.058343" y="417.715006" style="stroke: #000000"/>
     <use xlink:href="#m240fca98db" x="689.027414" y="421.184016" style="stroke: #000000"/>
     <use xlink:href="#m240fca98db" x="693.996486" y="417.715006" style="stroke: #000000"/>
     <use xlink:href="#m240fca98db" x="699.12585" y="421.184016" style="stroke: #000000"/>
     <use xlink:href="#m240fca98db" x="704.094921" y="421.184016" style="stroke: #000000"/>
     <use xlink:href="#m240fca98db" x="709.063993" y="417.715006" style="stroke: #000000"/>
     <use xlink:href="#m240fca98db" x="714.033064" y="421.184016" style="stroke: #000000"/>
     <use xlink:href="#m240fca98db" x="719.162428" y="421.184016" style="stroke: #000000"/>
     <use xlink:href="#m240fca98db" x="724.131499" y="417.715006" style="stroke: #000000"/>
     <use xlink:href="#m240fca98db" x="729.100571" y="421.184016" style="stroke: #000000"/>
     <use xlink:href="#m240fca98db" x="734.069642" y="417.715006" style="stroke: #000000"/>
     <use xlink:href="#m240fca98db" x="739.199006" y="421.184016" style="stroke: #000000"/>
     <use xlink:href="#m240fca98db" x="744.168077" y="421.184016" style="stroke: #000000"/>
     <use xlink:href="#m240fca98db" x="749.137149" y="417.715006" style="stroke: #000000"/>
     <use xlink:href="#m240fca98db" x="754.10622" y="421.184016" style="stroke: #000000"/>
     <use xlink:href="#m240fca98db" x="759.235584" y="421.184016" style="stroke: #000000"/>
     <use xlink:href="#m240fca98db" x="764.204656" y="417.715006" style="stroke: #000000"/>
     <use xlink:href="#m240fca98db" x="769.173727" y="421.184016" style="stroke: #000000"/>
     <use xlink:href="#m240fca98db" x="774.142798" y="417.715006" style="stroke: #000000"/>
     <use xlink:href="#m240fca98db" x="779.272162" y="421.184016" style="stroke: #000000"/>
     <use xlink:href="#m240fca98db" x="784.241234" y="421.184016" style="stroke: #000000"/>
     <use xlink:href="#m240fca98db" x="789.210305" y="417.715006" style="stroke: #000000"/>
     <use xlink:href="#m240fca98db" x="794.179376" y="421.184016" style="stroke: #000000"/>
     <use xlink:href="#m240fca98db" x="799.30874" y="421.184016" style="stroke: #000000"/>
     <use xlink:href="#m240fca98db" x="804.277812" y="417.715006" style="stroke: #000000"/>
     <use xlink:href="#m240fca98db" x="809.246883" y="421.184016" style="stroke: #000000"/>
     <use xlink:href="#m240fca98db" x="814.215955" y="417.715006" style="stroke: #000000"/>
     <use xlink:href="#m240fca98db" x="819.345319" y="421.184016" style="stroke: #000000"/>
     <use xlink:href="#m240fca98db" x="824.31439" y="421.184016" style="stroke: #000000"/>
     <use xlink:href="#m240fca98db" x="829.283461" y="417.715006" style="stroke: #000000"/>
     <use xlink:href="#m240fca98db" x="834.252533" y="421.184016" style="stroke: #000000"/>
     <use xlink:href="#m240fca98db" x="839.381897" y="421.184016" style="stroke: #000000"/>
     <use xlink:href="#m240fca98db" x="844.350968" y="417.715006" style="stroke: #000000"/>
     <use xlink:href="#m240fca98db" x="849.320039" y="421.184016" style="stroke: #000000"/>
     <use xlink:href="#m240fca98db" x="854.289111" y="417.715006" style="stroke: #000000"/>
     <use xlink:href="#m240fca98db" x="859.418475" y="421.184016" style="stroke: #000000"/>
     <use xlink:href="#m240fca98db" x="864.387546" y="421.184016" style="stroke: #000000"/>
     <use xlink:href="#m240fca98db" x="869.356618" y="417.715006" style="stroke: #000000"/>
     <use xlink:href="#m240fca98db" x="874.325689" y="421.184016" style="stroke: #000000"/>
     <use xlink:href="#m240fca98db" x="879.455053" y="421.184016" style="stroke: #000000"/>
     <use xlink:href="#m240fca98db" x="884.424124" y="417.715006" style="stroke: #000000"/>
     <use xlink:href="#m240fca98db" x="889.393196" y="421.184016" style="stroke: #000000"/>
     <use xlink:href="#m240fca98db" x="894.362267" y="417.715006" style="stroke: #000000"/>
     <use xlink:href="#m240fca98db" x="899.491631" y="421.184016" style="stroke: #000000"/>
     <use xlink:href="#m240fca98db" x="904.460702" y="421.184016" style="stroke: #000000"/>
     <use xlink:href="#m240fca98db" x="909.429774" y="417.715006" style="stroke: #000000"/>
     <use xlink:href="#m240fca98db" x="914.398845" y="421.184016" style="stroke: #000000"/>
     <use xlink:href="#m240fca98db" x="919.528209" y="421.184016" style="stroke: #000000"/>
     <use xlink:href="#m240fca98db" x="924.497281" y="417.715006" style="stroke: #000000"/>
     <use xlink:href="#m240fca98db" x="929.466352" y="421.184016" style="stroke: #000000"/>
    </g>
   </g>
   <g id="patch_3">
    <path d="M 135 448.56 
L 135 60.48 
" style="fill: none; stroke: #000000; stroke-width: 0.8; stroke-linejoin: miter; stroke-linecap: square"/>
   </g>
   <g id="patch_4">
    <path d="M 972 448.56 
L 972 60.48 
" style="fill: none; stroke: #000000; stroke-width: 0.8; stroke-linejoin: miter; stroke-linecap: square"/>
   </g>
   <g id="patch_5">
    <path d="M 135 448.56 
L 972 448.56 
" style="fill: none; stroke: #000000; stroke-width: 0.8; stroke-linejoin: miter; stroke-linecap: square"/>
   </g>
   <g id="patch_6">
    <path d="M 135 60.48 
L 972 60.48 
" style="fill: none; stroke: #000000; stroke-width: 0.8; stroke-linejoin: miter; stroke-linecap: square"/>
   </g>
   <g id="legend_1">
    <g id="patch_7">
     <path d="M 895.915625 278.315313 
L 965 278.315313 
Q 967 278.315313 967 276.315313 
L 967 232.724688 
Q 967 230.724688 965 230.724688 
L 895.915625 230.724688 
Q 893.915625 230.724688 893.915625 232.724688 
L 893.915625 276.315313 
Q 893.915625 278.315313 895.915625 278.315313 
z
" style="fill: #ffffff; opacity: 0.8; stroke: #cccccc; stroke-linejoin: miter"/>
    </g>
    <g id="line2d_15">
     <path d="M 897.915625 238.823125 
L 907.915625 238.823125 
L 917.915625 238.823125 
" style="fill: none; stroke: #1f77b4; stroke-width: 1.5; stroke-linecap: square"/>
    </g>
    <g id="text_13">
     <!-- nw_0 -->
     <g transform="translate(925.915625 242.323125) scale(0.1 -0.1)">
      <defs>
       <path id="DejaVuSans-6e" d="M 3513 2113 
L 3513 0 
L 2938 0 
L 2938 2094 
Q 2938 2591 2744 2837 
Q 2550 3084 2163 3084 
Q 1697 3084 1428 2787 
Q 1159 2491 1159 1978 
L 1159 0 
L 581 0 
L 581 3500 
L 1159 3500 
L 1159 2956 
Q 1366 3272 1645 3428 
Q 1925 3584 2291 3584 
Q 2894 3584 3203 3211 
Q 3513 2838 3513 2113 
z
" transform="scale(0.015625)"/>
       <path id="DejaVuSans-77" d="M 269 3500 
L 844 3500 
L 1563 769 
L 2278 3500 
L 2956 3500 
L 3675 769 
L 4391 3500 
L 4966 3500 
L 4050 0 
L 3372 0 
L 2619 2869 
L 1863 0 
L 1184 0 
L 269 3500 
z
" transform="scale(0.015625)"/>
       <path id="DejaVuSans-5f" d="M 3263 -1063 
L 3263 -1509 
L -63 -1509 
L -63 -1063 
L 3263 -1063 
z
" transform="scale(0.015625)"/>
      </defs>
      <use xlink:href="#DejaVuSans-6e"/>
      <use xlink:href="#DejaVuSans-77" x="63.378906"/>
      <use xlink:href="#DejaVuSans-5f" x="145.166016"/>
      <use xlink:href="#DejaVuSans-30" x="195.166016"/>
     </g>
    </g>
    <g id="line2d_16">
     <path d="M 897.915625 253.779375 
L 907.915625 253.779375 
L 917.915625 253.779375 
" style="fill: none; stroke: #ff7f0e; stroke-width: 1.5; stroke-linecap: square"/>
    </g>
    <g id="text_14">
     <!-- input_0 -->
     <g transform="translate(925.915625 257.279375) scale(0.1 -0.1)">
      <defs>
       <path id="DejaVuSans-69" d="M 603 3500 
L 1178 3500 
L 1178 0 
L 603 0 
L 603 3500 
z
M 603 4863 
L 1178 4863 
L 1178 4134 
L 603 4134 
L 603 4863 
z
" transform="scale(0.015625)"/>
       <path id="DejaVuSans-70" d="M 1159 525 
L 1159 -1331 
L 581 -1331 
L 581 3500 
L 1159 3500 
L 1159 2969 
Q 1341 3281 1617 3432 
Q 1894 3584 2278 3584 
Q 2916 3584 3314 3078 
Q 3713 2572 3713 1747 
Q 3713 922 3314 415 
Q 2916 -91 2278 -91 
Q 1894 -91 1617 61 
Q 1341 213 1159 525 
z
M 3116 1747 
Q 3116 2381 2855 2742 
Q 2594 3103 2138 3103 
Q 1681 3103 1420 2742 
Q 1159 2381 1159 1747 
Q 1159 1113 1420 752 
Q 1681 391 2138 391 
Q 2594 391 2855 752 
Q 3116 1113 3116 1747 
z
" transform="scale(0.015625)"/>
       <path id="DejaVuSans-75" d="M 544 1381 
L 544 3500 
L 1119 3500 
L 1119 1403 
Q 1119 906 1312 657 
Q 1506 409 1894 409 
Q 2359 409 2629 706 
Q 2900 1003 2900 1516 
L 2900 3500 
L 3475 3500 
L 3475 0 
L 2900 0 
L 2900 538 
Q 2691 219 2414 64 
Q 2138 -91 1772 -91 
Q 1169 -91 856 284 
Q 544 659 544 1381 
z
M 1991 3584 
L 1991 3584 
z
" transform="scale(0.015625)"/>
      </defs>
      <use xlink:href="#DejaVuSans-69"/>
      <use xlink:href="#DejaVuSans-6e" x="27.783203"/>
      <use xlink:href="#DejaVuSans-70" x="91.162109"/>
      <use xlink:href="#DejaVuSans-75" x="154.638672"/>
      <use xlink:href="#DejaVuSans-74" x="218.017578"/>
      <use xlink:href="#DejaVuSans-5f" x="257.226562"/>
      <use xlink:href="#DejaVuSans-30" x="307.226562"/>
     </g>
    </g>
    <g id="line2d_17">
     <path d="M 897.915625 268.735625 
L 907.915625 268.735625 
L 917.915625 268.735625 
" style="fill: none; stroke: #000000; stroke-width: 1.5; stroke-linecap: square"/>
     <g>
      <use xlink:href="#m240fca98db" x="907.915625" y="268.735625" style="stroke: #000000"/>
     </g>
    </g>
    <g id="text_15">
     <!-- target -->
     <g transform="translate(925.915625 272.235625) scale(0.1 -0.1)">
      <defs>
       <path id="DejaVuSans-61" d="M 2194 1759 
Q 1497 1759 1228 1600 
Q 959 1441 959 1056 
Q 959 750 1161 570 
Q 1363 391 1709 391 
Q 2188 391 2477 730 
Q 2766 1069 2766 1631 
L 2766 1759 
L 2194 1759 
z
M 3341 1997 
L 3341 0 
L 2766 0 
L 2766 531 
Q 2569 213 2275 61 
Q 1981 -91 1556 -91 
Q 1019 -91 701 211 
Q 384 513 384 1019 
Q 384 1609 779 1909 
Q 1175 2209 1959 2209 
L 2766 2209 
L 2766 2266 
Q 2766 2663 2505 2880 
Q 2244 3097 1772 3097 
Q 1472 3097 1187 3025 
Q 903 2953 641 2809 
L 641 3341 
Q 956 3463 1253 3523 
Q 1550 3584 1831 3584 
Q 2591 3584 2966 3190 
Q 3341 2797 3341 1997 
z
" transform="scale(0.015625)"/>
       <path id="DejaVuSans-72" d="M 2631 2963 
Q 2534 3019 2420 3045 
Q 2306 3072 2169 3072 
Q 1681 3072 1420 2755 
Q 1159 2438 1159 1844 
L 1159 0 
L 581 0 
L 581 3500 
L 1159 3500 
L 1159 2956 
Q 1341 3275 1631 3429 
Q 1922 3584 2338 3584 
Q 2397 3584 2469 3576 
Q 2541 3569 2628 3553 
L 2631 2963 
z
" transform="scale(0.015625)"/>
       <path id="DejaVuSans-67" d="M 2906 1791 
Q 2906 2416 2648 2759 
Q 2391 3103 1925 3103 
Q 1463 3103 1205 2759 
Q 947 2416 947 1791 
Q 947 1169 1205 825 
Q 1463 481 1925 481 
Q 2391 481 2648 825 
Q 2906 1169 2906 1791 
z
M 3481 434 
Q 3481 -459 3084 -895 
Q 2688 -1331 1869 -1331 
Q 1566 -1331 1297 -1286 
Q 1028 -1241 775 -1147 
L 775 -588 
Q 1028 -725 1275 -790 
Q 1522 -856 1778 -856 
Q 2344 -856 2625 -561 
Q 2906 -266 2906 331 
L 2906 616 
Q 2728 306 2450 153 
Q 2172 0 1784 0 
Q 1141 0 747 490 
Q 353 981 353 1791 
Q 353 2603 747 3093 
Q 1141 3584 1784 3584 
Q 2172 3584 2450 3431 
Q 2728 3278 2906 2969 
L 2906 3500 
L 3481 3500 
L 3481 434 
z
" transform="scale(0.015625)"/>
       <path id="DejaVuSans-65" d="M 3597 1894 
L 3597 1613 
L 953 1613 
Q 991 1019 1311 708 
Q 1631 397 2203 397 
Q 2534 397 2845 478 
Q 3156 559 3463 722 
L 3463 178 
Q 3153 47 2828 -22 
Q 2503 -91 2169 -91 
Q 1331 -91 842 396 
Q 353 884 353 1716 
Q 353 2575 817 3079 
Q 1281 3584 2069 3584 
Q 2775 3584 3186 3129 
Q 3597 2675 3597 1894 
z
M 3022 2063 
Q 3016 2534 2758 2815 
Q 2500 3097 2075 3097 
Q 1594 3097 1305 2825 
Q 1016 2553 972 2059 
L 3022 2063 
z
" transform="scale(0.015625)"/>
      </defs>
      <use xlink:href="#DejaVuSans-74"/>
      <use xlink:href="#DejaVuSans-61" x="39.208984"/>
      <use xlink:href="#DejaVuSans-72" x="100.488281"/>
      <use xlink:href="#DejaVuSans-67" x="139.851562"/>
      <use xlink:href="#DejaVuSans-65" x="203.328125"/>
      <use xlink:href="#DejaVuSans-74" x="264.851562"/>
     </g>
    </g>
   </g>
  </g>
 </g>
 <defs>
  <clipPath id="pce414a547b">
   <rect x="135" y="60.48" width="837" height="388.08"/>
  </clipPath>
 </defs>
</svg>
