<?xml version="1.0" encoding="utf-8" standalone="no"?>
<!DOCTYPE svg PUBLIC "-//W3C//DTD SVG 1.1//EN"
  "http://www.w3.org/Graphics/SVG/1.1/DTD/svg11.dtd">
<svg xmlns:xlink="http://www.w3.org/1999/xlink" width="1080pt" height="504pt" viewBox="0 0 1080 504" xmlns="http://www.w3.org/2000/svg" version="1.1">
 <metadata>
  <rdf:RDF xmlns:dc="http://purl.org/dc/elements/1.1/" xmlns:cc="http://creativecommons.org/ns#" xmlns:rdf="http://www.w3.org/1999/02/22-rdf-syntax-ns#">
   <cc:Work>
    <dc:type rdf:resource="http://purl.org/dc/dcmitype/StillImage"/>
    <dc:date>2024-05-09T11:04:18.565821</dc:date>
    <dc:format>image/svg+xml</dc:format>
    <dc:creator>
     <cc:Agent>
      <dc:title>Matplotlib v3.7.1, https://matplotlib.org/</dc:title>
     </cc:Agent>
    </dc:creator>
   </cc:Work>
  </rdf:RDF>
 </metadata>
 <defs>
  <style type="text/css">*{stroke-linejoin: round; stroke-linecap: butt}</style>
 </defs>
 <g id="figure_1">
  <g id="patch_1">
   <path d="M 0 504 
L 1080 504 
L 1080 0 
L 0 0 
z
" style="fill: #ffffff"/>
  </g>
  <g id="axes_1">
   <g id="patch_2">
    <path d="M 135 448.56 
L 972 448.56 
L 972 60.48 
L 135 60.48 
z
" style="fill: #ffffff"/>
   </g>
   <g id="matplotlib.axis_1">
    <g id="xtick_1">
     <g id="line2d_1">
      <defs>
       <path id="m33467129e9" d="M 0 0 
L 0 3.5 
" style="stroke: #000000; stroke-width: 0.8"/>
      </defs>
      <g>
       <use xlink:href="#m33467129e9" x="173.045455" y="448.56" style="stroke: #000000; stroke-width: 0.8"/>
      </g>
     </g>
     <g id="text_1">
      <!-- 0 -->
      <g transform="translate(169.864205 463.158437) scale(0.1 -0.1)">
       <defs>
        <path id="DejaVuSans-30" d="M 2034 4250 
Q 1547 4250 1301 3770 
Q 1056 3291 1056 2328 
Q 1056 1369 1301 889 
Q 1547 409 2034 409 
Q 2525 409 2770 889 
Q 3016 1369 3016 2328 
Q 3016 3291 2770 3770 
Q 2525 4250 2034 4250 
z
M 2034 4750 
Q 2819 4750 3233 4129 
Q 3647 3509 3647 2328 
Q 3647 1150 3233 529 
Q 2819 -91 2034 -91 
Q 1250 -91 836 529 
Q 422 1150 422 2328 
Q 422 3509 836 4129 
Q 1250 4750 2034 4750 
z
" transform="scale(0.015625)"/>
       </defs>
       <use xlink:href="#DejaVuSans-30"/>
      </g>
     </g>
    </g>
    <g id="xtick_2">
     <g id="line2d_2">
      <g>
       <use xlink:href="#m33467129e9" x="333.33808" y="448.56" style="stroke: #000000; stroke-width: 0.8"/>
      </g>
     </g>
     <g id="text_2">
      <!-- 1000 -->
      <g transform="translate(320.61308 463.158437) scale(0.1 -0.1)">
       <defs>
        <path id="DejaVuSans-31" d="M 794 531 
L 1825 531 
L 1825 4091 
L 703 3866 
L 703 4441 
L 1819 4666 
L 2450 4666 
L 2450 531 
L 3481 531 
L 3481 0 
L 794 0 
L 794 531 
z
" transform="scale(0.015625)"/>
       </defs>
       <use xlink:href="#DejaVuSans-31"/>
       <use xlink:href="#DejaVuSans-30" x="63.623047"/>
       <use xlink:href="#DejaVuSans-30" x="127.246094"/>
       <use xlink:href="#DejaVuSans-30" x="190.869141"/>
      </g>
     </g>
    </g>
    <g id="xtick_3">
     <g id="line2d_3">
      <g>
       <use xlink:href="#m33467129e9" x="493.630705" y="448.56" style="stroke: #000000; stroke-width: 0.8"/>
      </g>
     </g>
     <g id="text_3">
      <!-- 2000 -->
      <g transform="translate(480.905705 463.158437) scale(0.1 -0.1)">
       <defs>
        <path id="DejaVuSans-32" d="M 1228 531 
L 3431 531 
L 3431 0 
L 469 0 
L 469 531 
Q 828 903 1448 1529 
Q 2069 2156 2228 2338 
Q 2531 2678 2651 2914 
Q 2772 3150 2772 3378 
Q 2772 3750 2511 3984 
Q 2250 4219 1831 4219 
Q 1534 4219 1204 4116 
Q 875 4013 500 3803 
L 500 4441 
Q 881 4594 1212 4672 
Q 1544 4750 1819 4750 
Q 2544 4750 2975 4387 
Q 3406 4025 3406 3419 
Q 3406 3131 3298 2873 
Q 3191 2616 2906 2266 
Q 2828 2175 2409 1742 
Q 1991 1309 1228 531 
z
" transform="scale(0.015625)"/>
       </defs>
       <use xlink:href="#DejaVuSans-32"/>
       <use xlink:href="#DejaVuSans-30" x="63.623047"/>
       <use xlink:href="#DejaVuSans-30" x="127.246094"/>
       <use xlink:href="#DejaVuSans-30" x="190.869141"/>
      </g>
     </g>
    </g>
    <g id="xtick_4">
     <g id="line2d_4">
      <g>
       <use xlink:href="#m33467129e9" x="653.92333" y="448.56" style="stroke: #000000; stroke-width: 0.8"/>
      </g>
     </g>
     <g id="text_4">
      <!-- 3000 -->
      <g transform="translate(641.19833 463.158437) scale(0.1 -0.1)">
       <defs>
        <path id="DejaVuSans-33" d="M 2597 2516 
Q 3050 2419 3304 2112 
Q 3559 1806 3559 1356 
Q 3559 666 3084 287 
Q 2609 -91 1734 -91 
Q 1441 -91 1130 -33 
Q 819 25 488 141 
L 488 750 
Q 750 597 1062 519 
Q 1375 441 1716 441 
Q 2309 441 2620 675 
Q 2931 909 2931 1356 
Q 2931 1769 2642 2001 
Q 2353 2234 1838 2234 
L 1294 2234 
L 1294 2753 
L 1863 2753 
Q 2328 2753 2575 2939 
Q 2822 3125 2822 3475 
Q 2822 3834 2567 4026 
Q 2313 4219 1838 4219 
Q 1578 4219 1281 4162 
Q 984 4106 628 3988 
L 628 4550 
Q 988 4650 1302 4700 
Q 1616 4750 1894 4750 
Q 2613 4750 3031 4423 
Q 3450 4097 3450 3541 
Q 3450 3153 3228 2886 
Q 3006 2619 2597 2516 
z
" transform="scale(0.015625)"/>
       </defs>
       <use xlink:href="#DejaVuSans-33"/>
       <use xlink:href="#DejaVuSans-30" x="63.623047"/>
       <use xlink:href="#DejaVuSans-30" x="127.246094"/>
       <use xlink:href="#DejaVuSans-30" x="190.869141"/>
      </g>
     </g>
    </g>
    <g id="xtick_5">
     <g id="line2d_5">
      <g>
       <use xlink:href="#m33467129e9" x="814.215955" y="448.56" style="stroke: #000000; stroke-width: 0.8"/>
      </g>
     </g>
     <g id="text_5">
      <!-- 4000 -->
      <g transform="translate(801.490955 463.158437) scale(0.1 -0.1)">
       <defs>
        <path id="DejaVuSans-34" d="M 2419 4116 
L 825 1625 
L 2419 1625 
L 2419 4116 
z
M 2253 4666 
L 3047 4666 
L 3047 1625 
L 3713 1625 
L 3713 1100 
L 3047 1100 
L 3047 0 
L 2419 0 
L 2419 1100 
L 313 1100 
L 313 1709 
L 2253 4666 
z
" transform="scale(0.015625)"/>
       </defs>
       <use xlink:href="#DejaVuSans-34"/>
       <use xlink:href="#DejaVuSans-30" x="63.623047"/>
       <use xlink:href="#DejaVuSans-30" x="127.246094"/>
       <use xlink:href="#DejaVuSans-30" x="190.869141"/>
      </g>
     </g>
    </g>
    <g id="text_6">
     <!-- t -->
     <g transform="translate(551.539844 476.836563) scale(0.1 -0.1)">
      <defs>
       <path id="DejaVuSans-74" d="M 1172 4494 
L 1172 3500 
L 2356 3500 
L 2356 3053 
L 1172 3053 
L 1172 1153 
Q 1172 725 1289 603 
Q 1406 481 1766 481 
L 2356 481 
L 2356 0 
L 1766 0 
Q 1100 0 847 248 
Q 594 497 594 1153 
L 594 3053 
L 172 3053 
L 172 3500 
L 594 3500 
L 594 4494 
L 1172 4494 
z
" transform="scale(0.015625)"/>
      </defs>
      <use xlink:href="#DejaVuSans-74"/>
     </g>
    </g>
   </g>
   <g id="matplotlib.axis_2">
    <g id="ytick_1">
     <g id="line2d_6">
      <defs>
       <path id="m6cdb3a00f6" d="M 0 0 
L -3.5 0 
" style="stroke: #000000; stroke-width: 0.8"/>
      </defs>
      <g>
       <use xlink:href="#m6cdb3a00f6" x="135" y="430.365558" style="stroke: #000000; stroke-width: 0.8"/>
      </g>
     </g>
     <g id="text_7">
      <!-- −0.2 -->
      <g transform="translate(103.717187 434.164776) scale(0.1 -0.1)">
       <defs>
        <path id="DejaVuSans-2212" d="M 678 2272 
L 4684 2272 
L 4684 1741 
L 678 1741 
L 678 2272 
z
" transform="scale(0.015625)"/>
        <path id="DejaVuSans-2e" d="M 684 794 
L 1344 794 
L 1344 0 
L 684 0 
L 684 794 
z
" transform="scale(0.015625)"/>
       </defs>
       <use xlink:href="#DejaVuSans-2212"/>
       <use xlink:href="#DejaVuSans-30" x="83.789062"/>
       <use xlink:href="#DejaVuSans-2e" x="147.412109"/>
       <use xlink:href="#DejaVuSans-32" x="179.199219"/>
      </g>
     </g>
    </g>
    <g id="ytick_2">
     <g id="line2d_7">
      <g>
       <use xlink:href="#m6cdb3a00f6" x="135" y="374.779955" style="stroke: #000000; stroke-width: 0.8"/>
      </g>
     </g>
     <g id="text_8">
      <!-- 0.0 -->
      <g transform="translate(112.096875 378.579174) scale(0.1 -0.1)">
       <use xlink:href="#DejaVuSans-30"/>
       <use xlink:href="#DejaVuSans-2e" x="63.623047"/>
       <use xlink:href="#DejaVuSans-30" x="95.410156"/>
      </g>
     </g>
    </g>
    <g id="ytick_3">
     <g id="line2d_8">
      <g>
       <use xlink:href="#m6cdb3a00f6" x="135" y="319.194353" style="stroke: #000000; stroke-width: 0.8"/>
      </g>
     </g>
     <g id="text_9">
      <!-- 0.2 -->
      <g transform="translate(112.096875 322.993572) scale(0.1 -0.1)">
       <use xlink:href="#DejaVuSans-30"/>
       <use xlink:href="#DejaVuSans-2e" x="63.623047"/>
       <use xlink:href="#DejaVuSans-32" x="95.410156"/>
      </g>
     </g>
    </g>
    <g id="ytick_4">
     <g id="line2d_9">
      <g>
       <use xlink:href="#m6cdb3a00f6" x="135" y="263.60875" style="stroke: #000000; stroke-width: 0.8"/>
      </g>
     </g>
     <g id="text_10">
      <!-- 0.4 -->
      <g transform="translate(112.096875 267.407969) scale(0.1 -0.1)">
       <use xlink:href="#DejaVuSans-30"/>
       <use xlink:href="#DejaVuSans-2e" x="63.623047"/>
       <use xlink:href="#DejaVuSans-34" x="95.410156"/>
      </g>
     </g>
    </g>
    <g id="ytick_5">
     <g id="line2d_10">
      <g>
       <use xlink:href="#m6cdb3a00f6" x="135" y="208.023148" style="stroke: #000000; stroke-width: 0.8"/>
      </g>
     </g>
     <g id="text_11">
      <!-- 0.6 -->
      <g transform="translate(112.096875 211.822367) scale(0.1 -0.1)">
       <defs>
        <path id="DejaVuSans-36" d="M 2113 2584 
Q 1688 2584 1439 2293 
Q 1191 2003 1191 1497 
Q 1191 994 1439 701 
Q 1688 409 2113 409 
Q 2538 409 2786 701 
Q 3034 994 3034 1497 
Q 3034 2003 2786 2293 
Q 2538 2584 2113 2584 
z
M 3366 4563 
L 3366 3988 
Q 3128 4100 2886 4159 
Q 2644 4219 2406 4219 
Q 1781 4219 1451 3797 
Q 1122 3375 1075 2522 
Q 1259 2794 1537 2939 
Q 1816 3084 2150 3084 
Q 2853 3084 3261 2657 
Q 3669 2231 3669 1497 
Q 3669 778 3244 343 
Q 2819 -91 2113 -91 
Q 1303 -91 875 529 
Q 447 1150 447 2328 
Q 447 3434 972 4092 
Q 1497 4750 2381 4750 
Q 2619 4750 2861 4703 
Q 3103 4656 3366 4563 
z
" transform="scale(0.015625)"/>
       </defs>
       <use xlink:href="#DejaVuSans-30"/>
       <use xlink:href="#DejaVuSans-2e" x="63.623047"/>
       <use xlink:href="#DejaVuSans-36" x="95.410156"/>
      </g>
     </g>
    </g>
    <g id="ytick_6">
     <g id="line2d_11">
      <g>
       <use xlink:href="#m6cdb3a00f6" x="135" y="152.437546" style="stroke: #000000; stroke-width: 0.8"/>
      </g>
     </g>
     <g id="text_12">
      <!-- 0.8 -->
      <g transform="translate(112.096875 156.236764) scale(0.1 -0.1)">
       <defs>
        <path id="DejaVuSans-38" d="M 2034 2216 
Q 1584 2216 1326 1975 
Q 1069 1734 1069 1313 
Q 1069 891 1326 650 
Q 1584 409 2034 409 
Q 2484 409 2743 651 
Q 3003 894 3003 1313 
Q 3003 1734 2745 1975 
Q 2488 2216 2034 2216 
z
M 1403 2484 
Q 997 2584 770 2862 
Q 544 3141 544 3541 
Q 544 4100 942 4425 
Q 1341 4750 2034 4750 
Q 2731 4750 3128 4425 
Q 3525 4100 3525 3541 
Q 3525 3141 3298 2862 
Q 3072 2584 2669 2484 
Q 3125 2378 3379 2068 
Q 3634 1759 3634 1313 
Q 3634 634 3220 271 
Q 2806 -91 2034 -91 
Q 1263 -91 848 271 
Q 434 634 434 1313 
Q 434 1759 690 2068 
Q 947 2378 1403 2484 
z
M 1172 3481 
Q 1172 3119 1398 2916 
Q 1625 2713 2034 2713 
Q 2441 2713 2670 2916 
Q 2900 3119 2900 3481 
Q 2900 3844 2670 4047 
Q 2441 4250 2034 4250 
Q 1625 4250 1398 4047 
Q 1172 3844 1172 3481 
z
" transform="scale(0.015625)"/>
       </defs>
       <use xlink:href="#DejaVuSans-30"/>
       <use xlink:href="#DejaVuSans-2e" x="63.623047"/>
       <use xlink:href="#DejaVuSans-38" x="95.410156"/>
      </g>
     </g>
    </g>
    <g id="ytick_7">
     <g id="line2d_12">
      <g>
       <use xlink:href="#m6cdb3a00f6" x="135" y="96.851943" style="stroke: #000000; stroke-width: 0.8"/>
      </g>
     </g>
     <g id="text_13">
      <!-- 1.0 -->
      <g transform="translate(112.096875 100.651162) scale(0.1 -0.1)">
       <use xlink:href="#DejaVuSans-31"/>
       <use xlink:href="#DejaVuSans-2e" x="63.623047"/>
       <use xlink:href="#DejaVuSans-30" x="95.410156"/>
      </g>
     </g>
    </g>
   </g>
   <g id="line2d_13">
    <path d="M 173.045455 259.836313 
L 173.36604 131.553873 
L 173.686625 88.600126 
L 173.846918 85.413504 
L 174.00721 89.280244 
L 174.488088 118.517813 
L 174.968966 145.113962 
L 175.289551 153.558636 
L 175.449844 154.709868 
L 175.610137 153.969634 
L 175.930722 147.66254 
L 176.4116 130.004969 
L 177.533648 84.720918 
L 177.693941 80.466365 
L 178.014526 226.91717 
L 178.335111 304.67886 
L 178.655696 339.701028 
L 178.976282 351.278668 
L 179.136574 352.602249 
L 179.296867 352.578604 
L 179.617452 351.716709 
L 179.777745 351.93679 
L 179.938037 352.999453 
L 180.258623 358.081166 
L 180.739501 372.46605 
L 182.182134 424.192991 
L 182.502719 429.471798 
L 182.663012 430.690789 
L 182.823305 430.92 
L 182.983597 430.149442 
L 183.304183 425.647605 
L 183.624768 417.397348 
L 184.105646 398.886168 
L 184.907109 356.382301 
L 186.990913 238.975539 
L 187.632083 214.77558 
L 188.273254 199.113528 
L 188.754132 192.975261 
L 189.074717 191.397896 
L 189.23501 191.313839 
L 189.395302 191.672961 
L 189.715888 193.632406 
L 190.196765 199.316893 
L 190.837936 210.963196 
L 191.799692 233.892795 
L 194.204081 293.589809 
L 195.165837 311.587189 
L 195.9673 323.03516 
L 196.768763 331.453816 
L 197.409934 336.301258 
L 198.051104 339.776739 
L 198.692275 342.177969 
L 199.333445 343.790576 
L 199.974616 344.870985 
L 200.776079 345.799644 
L 202.859883 347.951396 
L 203.821639 349.35642 
L 204.943687 351.439756 
L 206.386321 354.663952 
L 210.714221 364.751341 
L 212.156855 367.415136 
L 213.278903 369.133698 
L 213.599489 176.434048 
L 213.920074 97.634202 
L 214.080367 83.972628 
L 214.240659 80.969212 
L 214.400952 85.013082 
L 214.88183 114.747242 
L 215.362708 141.790664 
L 215.683293 150.507853 
L 215.843585 151.788035 
L 216.003878 151.172058 
L 216.324463 145.099926 
L 216.805341 127.762905 
L 217.92739 83.095601 
L 218.087682 78.915889 
L 218.408267 225.52618 
L 218.728853 303.431685 
L 219.049438 338.585053 
L 219.370023 350.283134 
L 219.530316 351.663274 
L 219.690608 351.693888 
L 220.011194 350.933922 
L 220.171486 351.201801 
L 220.331779 352.310224 
L 220.652364 357.47754 
L 221.133242 371.976734 
L 222.575876 423.95719 
L 222.896461 429.27671 
L 223.056754 430.514236 
L 223.217046 430.760837 
L 223.377339 430.006571 
L 223.697924 425.534227 
L 224.018509 417.309654 
L 224.499387 398.830651 
L 225.30085 356.366226 
L 227.384654 239.006286 
L 228.025825 214.810812 
L 228.666995 199.150571 
L 229.147873 193.012381 
L 229.468459 191.434608 
L 229.628751 191.350234 
L 229.789044 191.708973 
L 230.109629 193.667485 
L 230.590507 199.350236 
L 231.231677 210.993806 
L 232.193433 233.918876 
L 234.597823 293.605035 
L 235.559578 311.59881 
L 236.361041 323.044174 
L 237.162505 331.460583 
L 237.803675 336.306475 
L 238.444846 339.780614 
L 239.086016 342.180695 
L 239.727187 343.792333 
L 240.368357 344.871933 
L 241.16982 345.799784 
L 243.253624 347.950279 
L 244.21538 349.35503 
L 245.337428 351.438217 
L 246.780062 354.662407 
L 251.107963 364.750296 
L 252.550597 367.414286 
L 253.832938 369.353422 
L 253.99323 369.567719 
L 254.313815 176.840292 
L 254.634401 98.014336 
L 254.794693 84.34023 
L 254.954986 81.324601 
L 255.115279 85.356563 
L 255.596156 115.056755 
L 256.077034 142.068745 
L 256.39762 150.766347 
L 256.557912 152.037137 
L 256.718205 151.412032 
L 257.03879 145.322423 
L 257.519668 127.961077 
L 258.641716 83.24526 
L 258.802009 79.059494 
L 259.122594 225.658047 
L 259.443179 303.552737 
L 259.763765 338.696032 
L 260.08435 350.384679 
L 260.244643 351.760325 
L 260.404935 351.786586 
L 260.72552 351.018327 
L 260.885813 351.282262 
L 261.046106 352.386873 
L 261.366691 357.546955 
L 261.847569 372.036248 
L 263.290202 423.99329 
L 263.610788 429.30875 
L 263.77108 430.544384 
L 263.931373 430.789181 
L 264.091666 430.033197 
L 264.412251 425.557657 
L 264.732836 417.330193 
L 265.213714 398.847372 
L 266.015177 356.37779 
L 268.098981 239.009663 
L 268.740152 214.812739 
L 269.381322 199.151398 
L 269.8622 193.012573 
L 270.182785 191.434451 
L 270.343078 191.349924 
L 270.503371 191.708523 
L 270.823956 193.666789 
L 271.304834 199.34925 
L 271.946004 210.992555 
L 272.90776 233.917431 
L 275.312149 293.603716 
L 276.273905 311.597654 
L 277.075368 323.04317 
L 277.876831 331.459732 
L 278.518002 336.305743 
L 279.159172 339.779994 
L 279.800343 342.180179 
L 280.441513 343.791911 
L 281.082684 344.871596 
L 281.884147 345.799538 
L 283.967951 347.950202 
L 284.929707 349.355003 
L 286.051755 351.43823 
L 287.494389 354.66245 
L 291.82229 364.750352 
L 293.264923 367.414335 
L 293.585509 367.937079 
L 293.906094 175.311167 
L 294.226679 96.580796 
L 294.386972 82.952641 
L 294.547264 79.981846 
L 294.707557 84.057573 
L 295.188435 113.882937 
L 295.669313 141.011222 
L 295.989898 149.78154 
L 296.150191 151.087267 
L 296.310483 150.49616 
L 296.631068 144.471775 
L 297.111946 127.201485 
L 298.233995 82.668296 
L 298.394287 78.505425 
L 298.714873 225.147971 
L 299.035458 303.083312 
L 299.356043 338.264575 
L 299.676628 349.988871 
L 299.836921 351.381534 
L 299.997214 351.424297 
L 300.317799 350.687531 
L 300.478091 350.96647 
L 300.638384 352.085599 
L 300.958969 357.273279 
L 301.439847 371.800455 
L 302.882481 423.847728 
L 303.203066 429.178956 
L 303.363359 430.421955 
L 303.523651 430.673784 
L 303.683944 429.924512 
L 304.004529 425.461479 
L 304.325114 417.245371 
L 304.805992 398.777611 
L 305.607455 356.328527 
L 307.69126 238.993576 
L 308.33243 214.802685 
L 308.973601 199.145991 
L 309.454478 193.009896 
L 309.775064 191.433288 
L 309.935356 191.349434 
L 310.095649 191.708655 
L 310.416234 193.668021 
L 310.897112 199.35181 
L 311.538283 210.996379 
L 312.500038 233.922306 
L 314.904428 293.608581 
L 315.866183 311.601993 
L 316.667647 323.046987 
L 317.46911 331.463003 
L 318.11028 336.308582 
L 318.751451 339.78242 
L 319.392621 342.182217 
L 320.033792 343.793593 
L 320.674962 344.872957 
L 321.476425 345.800548 
L 323.560229 347.950552 
L 324.521985 349.355155 
L 325.644034 351.43822 
L 327.086667 354.662314 
L 331.414568 364.750151 
L 332.857202 367.414157 
L 333.818957 368.906242 
L 334.139543 176.220945 
L 334.460128 97.434601 
L 334.620421 83.779512 
L 334.780713 80.78242 
L 334.941006 84.832458 
L 335.421884 114.584236 
L 335.902762 141.643993 
L 336.223347 150.371379 
L 336.383639 151.656455 
L 336.543932 151.045237 
L 336.864517 144.982228 
L 337.345395 127.657923 
L 338.467444 83.016055 
L 338.627736 78.839526 
L 338.948321 225.455947 
L 339.268907 303.36711 
L 339.589492 338.525757 
L 339.910077 350.228789 
L 340.07037 351.611291 
L 340.230662 351.644194 
L 340.551248 350.888594 
L 340.71154 351.158551 
L 340.871833 352.268985 
L 341.192418 357.440119 
L 341.673296 371.944549 
L 343.11593 423.937443 
L 343.436515 429.25913 
L 343.596808 430.497667 
L 343.7571 430.745233 
L 343.917393 429.991889 
L 344.237978 425.521258 
L 344.558563 417.29824 
L 345.039441 398.821296 
L 345.840904 356.359664 
L 347.924708 239.004216 
L 348.565879 214.809552 
L 349.207049 199.149931 
L 349.687927 193.012104 
L 350.008513 191.434531 
L 350.168805 191.350245 
L 350.329098 191.709067 
L 350.649683 193.667722 
L 351.130561 199.350647 
L 351.771731 210.994378 
L 352.733487 233.919579 
L 355.137877 293.605714 
L 356.099632 311.599411 
L 356.901095 323.044701 
L 357.702559 331.461032 
L 358.343729 336.306864 
L 358.9849 339.780945 
L 359.62607 342.180973 
L 360.267241 343.792561 
L 360.908411 344.872117 
L 361.709874 345.799919 
L 363.793678 347.950324 
L 364.755434 349.355048 
L 365.877482 351.438214 
L 367.320116 354.662386 
L 371.648017 364.750268 
L 373.090651 367.414261 
L 373.411236 174.819271 
L 373.731821 96.118107 
L 373.892114 82.504035 
L 374.052406 79.547011 
L 374.212699 83.636213 
L 374.693577 113.500301 
L 375.174455 140.664837 
L 375.49504 149.457963 
L 375.655333 150.774688 
L 375.815625 150.194311 
L 376.13621 144.190581 
L 376.617088 126.949291 
L 377.739137 82.47486 
L 377.899429 78.319413 
L 378.220015 224.976022 
L 378.5406 302.924422 
L 378.861185 338.117942 
L 379.18177 349.853798 
L 379.342063 351.251998 
L 379.502356 351.300141 
L 379.822941 350.573673 
L 379.983233 350.857534 
L 380.143526 351.981434 
L 380.464111 357.178211 
L 380.944989 371.717933 
L 382.387623 423.795442 
L 382.708208 429.132021 
L 382.868501 430.377527 
L 383.028793 430.631757 
L 383.189086 429.884782 
L 383.509671 425.426045 
L 383.830256 417.213859 
L 384.311134 398.751335 
L 385.112597 356.309458 
L 387.196402 238.986506 
L 387.837572 214.797879 
L 388.478743 199.142964 
L 388.95962 193.007936 
L 389.280206 191.431929 
L 389.440498 191.348345 
L 389.600791 191.707818 
L 389.921376 193.667636 
L 390.402254 199.351985 
L 391.043425 210.997111 
L 392.00518 233.923556 
L 394.40957 293.610087 
L 395.371325 311.603381 
L 396.172789 323.048235 
L 396.974252 331.464093 
L 397.615422 336.309542 
L 398.256593 339.783251 
L 398.897763 342.182926 
L 399.538934 343.794187 
L 400.180104 344.873446 
L 400.981567 345.80092 
L 403.065371 347.950699 
L 404.027127 349.355232 
L 405.149176 351.438239 
L 406.591809 354.662286 
L 410.91971 364.75009 
L 412.362344 367.414102 
L 413.644685 369.353261 
L 413.96527 176.639641 
L 414.285855 97.826657 
L 414.446148 84.158775 
L 414.60644 81.149209 
L 414.766733 85.187081 
L 415.247611 114.904121 
L 415.728489 141.931686 
L 416.049074 150.638987 
L 416.209367 151.914426 
L 416.369659 151.293837 
L 416.690245 145.212873 
L 417.171122 127.86355 
L 418.293171 83.171684 
L 418.453463 78.988905 
L 418.774049 225.593252 
L 419.094634 303.493279 
L 419.415219 338.641543 
L 419.735804 350.334841 
L 419.896097 351.712702 
L 420.05639 351.741108 
L 420.376975 350.976935 
L 420.537268 351.242812 
L 420.69756 352.349301 
L 421.018145 357.512944 
L 421.499023 372.007109 
L 422.941657 423.97566 
L 423.262242 429.293113 
L 423.422535 430.529676 
L 423.582827 430.775357 
L 423.74312 430.020217 
L 424.063705 425.546244 
L 424.384291 417.320197 
L 424.865168 398.839246 
L 425.666632 356.372187 
L 427.750436 239.008054 
L 428.391606 214.811835 
L 429.032777 199.151027 
L 429.513655 193.01251 
L 429.83424 191.434556 
L 429.994532 191.350103 
L 430.154825 191.708769 
L 430.47541 193.667153 
L 430.956288 199.349753 
L 431.597459 210.993184 
L 432.559214 233.918151 
L 434.963604 293.604366 
L 435.92536 311.598223 
L 436.726823 323.043663 
L 437.528286 331.460149 
L 438.169456 336.306101 
L 438.810627 339.780297 
L 439.451797 342.180431 
L 440.092968 343.792116 
L 440.734138 344.87176 
L 441.535601 345.799657 
L 443.619406 347.950238 
L 444.581161 349.355015 
L 445.70321 351.438223 
L 447.145843 354.662428 
L 451.473744 364.750324 
L 452.916378 367.414311 
L 453.557548 368.434354 
L 453.878134 175.778311 
L 454.198719 97.019521 
L 454.359011 83.377681 
L 454.519304 80.393519 
L 454.679597 84.456181 
L 455.160475 114.244081 
L 455.641352 141.33742 
L 455.961938 150.085815 
L 456.12223 151.380988 
L 456.282523 150.779598 
L 456.603108 144.735448 
L 457.083986 127.437484 
L 458.206034 82.848489 
L 458.366327 78.678592 
L 458.686912 225.307743 
L 459.007498 303.230674 
L 459.328083 338.400316 
L 459.648668 350.113674 
L 459.808961 351.501107 
L 459.969253 351.538793 
L 460.289839 350.792321 
L 460.450131 351.066629 
L 460.610424 352.181272 
L 460.931009 357.360411 
L 461.411887 371.875833 
L 462.854521 423.894933 
L 463.175106 429.221204 
L 463.335398 430.461883 
L 463.495691 430.711494 
L 463.655984 429.960102 
L 463.976569 425.493112 
L 464.297154 417.2734 
L 464.778032 398.800842 
L 465.579495 356.345187 
L 467.663299 238.999435 
L 468.30447 214.806539 
L 468.94564 199.148283 
L 469.426518 193.01126 
L 469.747103 191.434131 
L 469.907396 191.350045 
L 470.067689 191.70905 
L 470.388274 193.66803 
L 470.869152 199.351348 
L 471.510322 210.995456 
L 472.472078 233.920972 
L 474.876467 293.607121 
L 475.838223 311.600669 
L 476.639686 323.045809 
L 477.441149 331.461983 
L 478.08232 336.30769 
L 478.72349 339.781652 
L 479.364661 342.181567 
L 480.005831 343.793052 
L 480.647002 344.872515 
L 481.448465 345.800216 
L 483.532269 347.950428 
L 484.494025 349.355094 
L 485.616073 351.438212 
L 487.058707 354.662348 
L 491.386608 364.75021 
L 492.829241 367.41421 
L 493.630705 368.673417 
L 493.95129 176.002636 
L 494.271875 97.22996 
L 494.432168 83.581441 
L 494.59246 80.590757 
L 494.752753 84.647052 
L 495.233631 114.416723 
L 495.714509 141.4931 
L 496.035094 150.230876 
L 496.195387 151.520944 
L 496.355679 150.914583 
L 496.676264 144.860892 
L 497.157142 127.549592 
L 498.279191 82.9338 
L 498.439483 78.760539 
L 498.760069 225.383242 
L 499.080654 303.300209 
L 499.401239 338.464277 
L 499.721824 350.172397 
L 499.882117 351.557327 
L 500.04241 351.592586 
L 500.362995 350.841479 
L 500.523287 351.113577 
L 500.68358 352.226082 
L 501.004165 357.401154 
L 501.485043 371.910986 
L 502.927677 423.916745 
L 503.248262 429.240679 
L 503.408555 430.480266 
L 503.568847 430.728833 
L 503.72914 429.976445 
L 504.049725 425.507597 
L 504.37031 417.286196 
L 504.851188 398.811396 
L 505.652651 356.352682 
L 507.736456 239.00195 
L 508.377626 214.808143 
L 509.018797 199.149181 
L 509.499674 193.011741 
L 509.82026 191.434381 
L 509.980552 191.350191 
L 510.140845 191.709101 
L 510.46143 193.667912 
L 510.942308 199.351024 
L 511.583479 210.994933 
L 512.545234 233.920281 
L 514.949624 293.606411 
L 515.911379 311.600032 
L 516.712843 323.045246 
L 517.514306 331.461499 
L 518.155476 336.307269 
L 518.796647 339.781291 
L 519.437817 342.181263 
L 520.078988 343.792801 
L 520.720158 344.872311 
L 521.521621 345.800063 
L 523.605425 347.950374 
L 524.567181 349.355069 
L 525.68923 351.438212 
L 527.131863 354.662367 
L 531.459764 364.750239 
L 532.902398 367.414236 
L 533.864153 368.906313 
L 534.184739 176.221011 
L 534.505324 97.434662 
L 534.665617 83.779571 
L 534.825909 80.782475 
L 534.986202 84.832511 
L 535.46708 114.584283 
L 535.947958 141.644035 
L 536.268543 150.371417 
L 536.428835 151.656492 
L 536.589128 151.045273 
L 536.909713 144.982261 
L 537.390591 127.657953 
L 538.51264 83.016078 
L 538.672932 78.839548 
L 538.993517 225.455968 
L 539.314103 303.367131 
L 539.634688 338.525777 
L 539.955273 350.228808 
L 540.115566 351.611309 
L 540.275858 351.644212 
L 540.596444 350.888611 
L 540.756736 351.158568 
L 540.917029 352.269001 
L 541.237614 357.440135 
L 541.718492 371.944563 
L 543.161126 423.937455 
L 543.481711 429.259141 
L 543.642004 430.497678 
L 543.802296 430.745243 
L 543.962589 429.991899 
L 544.283174 425.521268 
L 544.603759 417.298249 
L 545.084637 398.821304 
L 545.8861 356.359671 
L 547.969904 239.00422 
L 548.611075 214.809556 
L 549.252245 199.149934 
L 549.733123 193.012107 
L 550.053709 191.434533 
L 550.214001 191.350247 
L 550.374294 191.709069 
L 550.694879 193.667724 
L 551.175757 199.350648 
L 551.816927 210.99438 
L 552.778683 233.91958 
L 555.183073 293.605715 
L 556.144828 311.599412 
L 556.946291 323.044701 
L 557.747755 331.461032 
L 558.388925 336.306864 
L 559.030096 339.780945 
L 559.671266 342.180973 
L 560.312437 343.792561 
L 560.953607 344.872117 
L 561.75507 345.799919 
L 563.838874 347.950324 
L 564.80063 349.355048 
L 565.922678 351.438214 
L 567.365312 354.662386 
L 571.693213 364.750268 
L 573.135847 367.414261 
L 574.257895 369.132965 
L 574.57848 176.433376 
L 574.899065 97.633585 
L 575.059358 83.972036 
L 575.219651 80.968644 
L 575.379943 85.012537 
L 575.860821 114.746759 
L 576.341699 141.790234 
L 576.662284 150.507456 
L 576.822577 151.787653 
L 576.98287 151.17169 
L 577.303455 145.099585 
L 577.784333 127.7626 
L 578.906381 83.095364 
L 579.066674 78.915661 
L 579.387259 225.525963 
L 579.707844 303.431478 
L 580.028429 338.584856 
L 580.349015 350.282947 
L 580.509307 351.663092 
L 580.6696 351.693711 
L 580.990185 350.933755 
L 581.150478 351.201638 
L 581.31077 352.310066 
L 581.631356 357.47739 
L 582.112234 371.976597 
L 583.554867 423.957087 
L 583.875452 429.276613 
L 584.035745 430.514143 
L 584.196038 430.760746 
L 584.35633 430.006484 
L 584.676916 425.534145 
L 584.997501 417.309578 
L 585.478379 398.830583 
L 586.279842 356.36617 
L 588.363646 239.006253 
L 589.004816 214.810785 
L 589.645987 199.150548 
L 590.126865 193.012362 
L 590.44745 191.43459 
L 590.607743 191.350217 
L 590.768035 191.708958 
L 591.088621 193.667471 
L 591.569498 199.350224 
L 592.210669 210.993796 
L 593.172425 233.91887 
L 595.576814 293.605033 
L 596.53857 311.598809 
L 597.340033 323.044173 
L 598.141496 331.460582 
L 598.782667 336.306475 
L 599.423837 339.780614 
L 600.065008 342.180696 
L 600.706178 343.792333 
L 601.347349 344.871934 
L 602.148812 345.799784 
L 604.232616 347.950279 
L 605.194372 349.35503 
L 606.31642 351.438217 
L 607.759054 354.662407 
L 612.086954 364.750296 
L 613.209003 366.866064 
L 613.529588 174.302671 
L 613.850173 95.631398 
L 614.010466 82.031759 
L 614.170759 79.088863 
L 614.331051 83.191906 
L 614.811929 113.095867 
L 615.292807 140.297867 
L 615.613392 149.11464 
L 615.773685 150.442789 
L 615.933977 149.873569 
L 616.254563 143.891355 
L 616.735441 126.680358 
L 617.857489 82.26762 
L 618.017782 78.12 
L 618.338367 224.791334 
L 618.658952 302.753442 
L 618.979537 337.959859 
L 619.300123 349.707906 
L 619.460415 351.111955 
L 619.620708 351.165786 
L 619.941293 350.450222 
L 620.101586 350.739302 
L 620.261878 351.868267 
L 620.582464 357.074711 
L 621.063341 371.627799 
L 622.505975 423.737696 
L 622.82656 429.080038 
L 622.986853 430.328251 
L 623.147146 430.585073 
L 623.307438 429.840582 
L 623.628023 425.386498 
L 623.948609 417.178569 
L 624.429487 398.721746 
L 625.23095 356.287756 
L 627.314754 238.97809 
L 627.955924 214.792008 
L 628.597095 199.139108 
L 629.077973 193.005298 
L 629.398558 191.429982 
L 629.558851 191.346711 
L 629.719143 191.706475 
L 630.039728 193.666818 
L 630.520606 199.351823 
L 631.161777 210.997614 
L 632.123533 233.924696 
L 634.527922 293.611633 
L 635.489678 311.604831 
L 636.291141 323.049553 
L 637.092604 331.465254 
L 637.733774 336.310571 
L 638.374945 339.784148 
L 639.016115 342.183695 
L 639.657286 343.794836 
L 640.298456 344.873984 
L 641.09992 345.801334 
L 643.183724 347.95087 
L 644.145479 349.355328 
L 645.267528 351.438269 
L 646.710161 354.662263 
L 651.038062 364.750028 
L 652.480696 367.414045 
L 653.763037 369.353211 
L 653.92333 369.567513 
L 654.243915 176.840103 
L 654.5645 98.014162 
L 654.724793 84.340063 
L 654.885085 81.324441 
L 655.045378 85.356409 
L 655.526256 115.056619 
L 656.007134 142.068624 
L 656.327719 150.766235 
L 656.488012 152.03703 
L 656.648304 151.411929 
L 656.968889 145.322328 
L 657.449767 127.960992 
L 658.571816 83.245195 
L 658.732108 79.059432 
L 659.052694 225.657986 
L 659.373279 303.552679 
L 659.693864 338.695976 
L 660.014449 350.384625 
L 660.174742 351.760272 
L 660.335035 351.786534 
L 660.65562 351.018278 
L 660.815912 351.282214 
L 660.976205 352.386826 
L 661.29679 357.54691 
L 661.777668 372.036207 
L 663.220302 423.993257 
L 663.540887 429.308719 
L 663.70118 430.544354 
L 663.861472 430.789151 
L 664.021765 430.033168 
L 664.34235 425.55763 
L 664.662935 417.330168 
L 665.143813 398.847349 
L 665.945276 356.377771 
L 668.029081 239.009651 
L 668.670251 214.81273 
L 669.311422 199.15139 
L 669.792299 193.012566 
L 670.112885 191.434445 
L 670.273177 191.349918 
L 670.43347 191.708517 
L 670.754055 193.666783 
L 671.234933 199.349245 
L 671.876104 210.992552 
L 672.837859 233.917429 
L 675.242249 293.603715 
L 676.204004 311.597654 
L 677.005468 323.04317 
L 677.806931 331.459732 
L 678.448101 336.305742 
L 679.089272 339.779994 
L 679.730442 342.180179 
L 680.371613 343.791911 
L 681.012783 344.871596 
L 681.814246 345.799538 
L 683.89805 347.950202 
L 684.859806 349.355003 
L 685.981855 351.438231 
L 687.424488 354.662451 
L 691.752389 364.750352 
L 693.195023 367.414335 
L 694.156778 368.906402 
L 694.477364 176.221092 
L 694.797949 97.434737 
L 694.958242 83.779642 
L 695.118534 80.782544 
L 695.278827 84.832577 
L 695.759705 114.584342 
L 696.240583 141.644087 
L 696.561168 150.371466 
L 696.72146 151.656538 
L 696.881753 151.045317 
L 697.202338 144.982303 
L 697.683216 127.65799 
L 698.805265 83.016106 
L 698.965557 78.839575 
L 699.286142 225.455995 
L 699.606728 303.367156 
L 699.927313 338.525801 
L 700.247898 350.228831 
L 700.408191 351.611332 
L 700.568483 351.644235 
L 700.889069 350.888633 
L 701.049361 351.158589 
L 701.209654 352.269022 
L 701.530239 357.440155 
L 702.011117 371.944582 
L 703.453751 423.937469 
L 703.774336 429.259155 
L 703.934629 430.497691 
L 704.094921 430.745256 
L 704.255214 429.991911 
L 704.575799 425.521279 
L 704.896384 417.29826 
L 705.377262 398.821313 
L 706.178725 356.359679 
L 708.262529 239.004225 
L 708.9037 214.80956 
L 709.54487 199.149937 
L 710.025748 193.01211 
L 710.346334 191.434536 
L 710.506626 191.35025 
L 710.666919 191.709071 
L 710.987504 193.667727 
L 711.468382 199.35065 
L 712.109552 210.994381 
L 713.071308 233.919581 
L 715.475698 293.605715 
L 716.437453 311.599412 
L 717.238916 323.044701 
L 718.04038 331.461032 
L 718.68155 336.306864 
L 719.322721 339.780945 
L 719.963891 342.180973 
L 720.605062 343.792561 
L 721.246232 344.872117 
L 722.047695 345.799919 
L 724.131499 347.950324 
L 725.093255 349.355048 
L 726.215303 351.438213 
L 727.657937 354.662386 
L 731.985838 364.750268 
L 733.428472 367.414261 
L 734.069642 368.434307 
L 734.390227 175.778269 
L 734.710813 97.019482 
L 734.871105 83.377644 
L 735.031398 80.393483 
L 735.19169 84.456147 
L 735.672568 114.244051 
L 736.153446 141.337393 
L 736.474031 150.08579 
L 736.634324 151.380964 
L 736.794617 150.779575 
L 737.115202 144.735427 
L 737.59608 127.437465 
L 738.718128 82.848474 
L 738.878421 78.678578 
L 739.199006 225.30773 
L 739.519591 303.230661 
L 739.840177 338.400303 
L 740.160762 350.113662 
L 740.321054 351.501095 
L 740.481347 351.538781 
L 740.801932 350.79231 
L 740.962225 351.066618 
L 741.122518 352.181261 
L 741.443103 357.360401 
L 741.923981 371.875823 
L 743.366614 423.894925 
L 743.6872 429.221197 
L 743.847492 430.461876 
L 744.007785 430.711487 
L 744.168077 429.960096 
L 744.488663 425.493105 
L 744.809248 417.273394 
L 745.290126 398.800837 
L 746.091589 356.345183 
L 748.175393 238.999432 
L 748.816564 214.806537 
L 749.457734 199.148281 
L 749.938612 193.011258 
L 750.259197 191.43413 
L 750.41949 191.350043 
L 750.579782 191.709048 
L 750.900368 193.668029 
L 751.381246 199.351347 
L 752.022416 210.995455 
L 752.984172 233.920972 
L 755.388561 293.607121 
L 756.350317 311.600669 
L 757.15178 323.045809 
L 757.953243 331.461983 
L 758.594414 336.30769 
L 759.235584 339.781652 
L 759.876755 342.181567 
L 760.517925 343.793052 
L 761.159096 344.872515 
L 761.960559 345.800216 
L 764.044363 347.950428 
L 765.006119 349.355094 
L 766.128167 351.438212 
L 767.570801 354.662348 
L 771.898702 364.75021 
L 773.341335 367.41421 
L 773.822213 368.188782 
L 774.142798 175.54771 
L 774.463384 96.803035 
L 774.623676 83.167989 
L 774.783969 80.190461 
L 774.944261 84.259607 
L 775.425139 114.066086 
L 775.906017 141.17674 
L 776.226602 149.935989 
L 776.386895 151.236385 
L 776.547188 150.640082 
L 776.867773 144.605707 
L 777.348651 127.32142 
L 778.470699 82.759971 
L 778.630992 78.593539 
L 778.951577 225.229305 
L 779.272162 303.158361 
L 779.592748 338.333736 
L 779.913333 350.052487 
L 780.073625 351.442498 
L 780.233918 351.482686 
L 780.554503 350.740995 
L 780.714796 351.017583 
L 780.875089 352.134435 
L 781.195674 357.317778 
L 781.676552 371.838981 
L 783.119185 423.871921 
L 783.439771 429.200624 
L 783.600063 430.44244 
L 783.760356 430.693138 
L 783.920648 429.942786 
L 784.241234 425.477734 
L 784.561819 417.259787 
L 785.042697 398.789576 
L 785.84416 356.337132 
L 787.927964 238.996641 
L 788.569135 214.804718 
L 789.210305 199.147218 
L 789.691183 193.010643 
L 790.011768 191.433765 
L 790.172061 191.349791 
L 790.332353 191.7089 
L 790.652939 193.668065 
L 791.133817 199.351609 
L 791.774987 210.995936 
L 792.736743 233.921647 
L 795.141132 293.607844 
L 796.102888 311.601322 
L 796.904351 323.046389 
L 797.705814 331.462484 
L 798.346985 336.308127 
L 798.988155 339.782028 
L 799.629326 342.181885 
L 800.270496 343.793316 
L 800.911667 344.872731 
L 801.71313 345.800377 
L 803.796934 347.950488 
L 804.75869 349.355123 
L 805.880738 351.438215 
L 807.323372 354.662331 
L 811.651273 364.750181 
L 813.093906 367.414183 
L 813.414491 367.936933 
L 813.735077 175.311033 
L 814.055662 96.580672 
L 814.215955 82.952522 
L 814.376247 79.981731 
L 814.53654 84.057463 
L 815.017418 113.88284 
L 815.498296 141.011136 
L 815.818881 149.78146 
L 815.979173 151.08719 
L 816.139466 150.496086 
L 816.460051 144.471706 
L 816.940929 127.201424 
L 818.062978 82.668249 
L 818.22327 78.50538 
L 818.543855 225.147927 
L 818.864441 303.08327 
L 819.185026 338.264534 
L 819.505611 349.988831 
L 819.665904 351.381496 
L 819.826196 351.424259 
L 820.146782 350.687494 
L 820.307074 350.966434 
L 820.467367 352.085565 
L 820.787952 357.273246 
L 821.26883 371.800424 
L 822.711464 423.847703 
L 823.032049 429.178933 
L 823.192342 430.421932 
L 823.352634 430.673762 
L 823.512927 429.92449 
L 823.833512 425.461459 
L 824.154097 417.245352 
L 824.634975 398.777594 
L 825.436438 356.328512 
L 827.520242 238.993567 
L 828.161413 214.802678 
L 828.802583 199.145985 
L 829.283461 193.009891 
L 829.604047 191.433283 
L 829.764339 191.349429 
L 829.924632 191.70865 
L 830.245217 193.668017 
L 830.726095 199.351807 
L 831.367265 210.996376 
L 832.329021 233.922304 
L 834.733411 293.60858 
L 835.695166 311.601992 
L 836.496629 323.046987 
L 837.298093 331.463003 
L 837.939263 336.308582 
L 838.580434 339.782419 
L 839.221604 342.182217 
L 839.862775 343.793593 
L 840.503945 344.872957 
L 841.305408 345.800548 
L 843.389212 347.950552 
L 844.350968 349.355155 
L 845.473016 351.43822 
L 846.91565 354.662314 
L 851.243551 364.750151 
L 852.686185 367.414157 
L 853.968526 369.353309 
L 854.609696 370.174333 
L 854.930281 177.407083 
L 855.250867 98.543759 
L 855.411159 84.851747 
L 855.571452 81.818688 
L 855.731744 85.833677 
L 856.212622 115.485569 
L 856.6935 142.453034 
L 857.014085 151.122979 
L 857.174378 152.380532 
L 857.334671 151.742578 
L 857.655256 145.628409 
L 858.136134 128.232978 
L 859.258182 83.449534 
L 859.418475 79.255362 
L 859.73906 225.837492 
L 860.059645 303.717089 
L 860.380231 338.846359 
L 860.700816 350.521903 
L 860.861108 351.891316 
L 861.021401 351.911547 
L 861.341986 351.131819 
L 861.502279 351.390307 
L 861.662572 352.489659 
L 861.983157 357.639778 
L 862.464035 372.115469 
L 863.906668 424.040548 
L 864.227254 429.350506 
L 864.387546 430.583581 
L 864.547839 430.825941 
L 864.708131 430.067639 
L 865.028717 425.587799 
L 865.349302 417.356456 
L 865.83018 398.868535 
L 866.631643 356.392114 
L 868.715447 239.013327 
L 869.356618 214.814567 
L 869.997788 199.151852 
L 870.478666 193.012247 
L 870.799251 191.433705 
L 870.959544 191.348995 
L 871.119836 191.707427 
L 871.440422 193.665404 
L 871.9213 199.347534 
L 872.56247 210.990556 
L 873.524226 233.915259 
L 875.928615 293.601857 
L 876.890371 311.596051 
L 877.691834 323.041792 
L 878.493297 331.458576 
L 879.134468 336.304755 
L 879.775638 339.779165 
L 880.416809 342.179494 
L 881.057979 343.791357 
L 881.69915 344.871157 
L 882.500613 345.799224 
L 884.584417 347.950116 
L 885.546173 349.354982 
L 886.668221 351.438262 
L 888.110855 354.66252 
L 892.438756 364.750432 
L 893.881389 367.414404 
L 894.362267 368.188966 
L 894.682852 175.547879 
L 895.003438 96.80319 
L 895.16373 83.168139 
L 895.324023 80.190604 
L 895.484315 84.259744 
L 895.965193 114.066208 
L 896.446071 141.176848 
L 896.766656 149.936089 
L 896.926949 151.236481 
L 897.087242 150.640175 
L 897.407827 144.605793 
L 897.888705 127.321496 
L 899.010753 82.76003 
L 899.171046 78.593596 
L 899.491631 225.22936 
L 899.812216 303.158414 
L 900.132802 338.333787 
L 900.453387 350.052536 
L 900.613679 351.442546 
L 900.773972 351.482733 
L 901.094557 350.74104 
L 901.25485 351.017627 
L 901.415143 352.134478 
L 901.735728 357.317819 
L 902.216606 371.839019 
L 903.659239 423.871951 
L 903.979825 429.200652 
L 904.140117 430.442468 
L 904.30041 430.693165 
L 904.460702 429.942812 
L 904.781288 425.477759 
L 905.101873 417.25981 
L 905.582751 398.789597 
L 906.384214 356.33715 
L 908.468018 238.996652 
L 909.109189 214.804727 
L 909.750359 199.147226 
L 910.231237 193.01065 
L 910.551822 191.433771 
L 910.712115 191.349796 
L 910.872407 191.708905 
L 911.192993 193.66807 
L 911.673871 199.351613 
L 912.315041 210.99594 
L 913.276797 233.921649 
L 915.681186 293.607845 
L 916.642942 311.601323 
L 917.444405 323.046389 
L 918.245868 331.462484 
L 918.887039 336.308128 
L 919.528209 339.782028 
L 920.16938 342.181885 
L 920.81055 343.793316 
L 921.451721 344.872731 
L 922.253184 345.800377 
L 924.336988 347.950488 
L 925.298744 349.355123 
L 926.420792 351.438215 
L 927.863426 354.66233 
L 932.191327 364.750181 
L 933.63396 367.414183 
L 933.794253 367.678744 
L 933.954545 252.999671 
L 933.954545 252.999671 
" clip-path="url(#p0715c54508)" style="fill: none; stroke: #1f77b4; stroke-width: 1.5; stroke-linecap: square"/>
   </g>
   <g id="line2d_14">
    <path d="M 173.045455 96.851943 
L 177.693941 96.851943 
L 177.854233 374.779955 
L 213.278903 374.779955 
L 213.439196 96.851943 
L 218.087682 96.851943 
L 218.247975 374.779955 
L 253.99323 374.779955 
L 254.153523 96.851943 
L 258.802009 96.851943 
L 258.962302 374.779955 
L 293.585509 374.779955 
L 293.745801 96.851943 
L 298.394287 96.851943 
L 298.55458 374.779955 
L 333.818957 374.779955 
L 333.97925 96.851943 
L 338.627736 96.851943 
L 338.788029 374.779955 
L 373.090651 374.779955 
L 373.250943 96.851943 
L 377.899429 96.851943 
L 378.059722 374.779955 
L 413.644685 374.779955 
L 413.804977 96.851943 
L 418.453463 96.851943 
L 418.613756 374.779955 
L 453.557548 374.779955 
L 453.717841 96.851943 
L 458.366327 96.851943 
L 458.52662 374.779955 
L 493.630705 374.779955 
L 493.790997 96.851943 
L 498.439483 96.851943 
L 498.599776 374.779955 
L 533.864153 374.779955 
L 534.024446 96.851943 
L 538.672932 96.851943 
L 538.833225 374.779955 
L 574.257895 374.779955 
L 574.418188 96.851943 
L 579.066674 96.851943 
L 579.226966 374.779955 
L 613.209003 374.779955 
L 613.369295 96.851943 
L 618.017782 96.851943 
L 618.178074 374.779955 
L 653.92333 374.779955 
L 654.083622 96.851943 
L 658.732108 96.851943 
L 658.892401 374.779955 
L 694.156778 374.779955 
L 694.317071 96.851943 
L 698.965557 96.851943 
L 699.12585 374.779955 
L 734.069642 374.779955 
L 734.229935 96.851943 
L 738.878421 96.851943 
L 739.038713 374.779955 
L 773.822213 374.779955 
L 773.982506 96.851943 
L 778.630992 96.851943 
L 778.791284 374.779955 
L 813.414491 374.779955 
L 813.574784 96.851943 
L 818.22327 96.851943 
L 818.383563 374.779955 
L 854.609696 374.779955 
L 854.769989 96.851943 
L 859.418475 96.851943 
L 859.578767 374.779955 
L 894.362267 374.779955 
L 894.52256 96.851943 
L 899.171046 96.851943 
L 899.331338 374.779955 
L 933.794253 374.779955 
L 933.954545 96.851943 
L 933.954545 96.851943 
" clip-path="url(#p0715c54508)" style="fill: none; stroke: #ff7f0e; stroke-width: 1.5; stroke-linecap: square"/>
   </g>
   <g id="line2d_15">
    <path d="M 929.466352 374.779955 
" clip-path="url(#p0715c54508)" style="fill: none; stroke: #000000; stroke-width: 1.5; stroke-linecap: square"/>
    <defs>
     <path id="m69ab29ebb6" d="M 0 1 
C 0.265203 1 0.51958 0.894634 0.707107 0.707107 
C 0.894634 0.51958 1 0.265203 1 0 
C 1 -0.265203 0.894634 -0.51958 0.707107 -0.707107 
C 0.51958 -0.894634 0.265203 -1 0 -1 
C -0.265203 -1 -0.51958 -0.894634 -0.707107 -0.707107 
C -0.894634 -0.51958 -1 -0.265203 -1 0 
C -1 0.265203 -0.894634 0.51958 -0.707107 0.707107 
C -0.51958 0.894634 -0.265203 1 0 1 
z
" style="stroke: #000000"/>
    </defs>
    <g clip-path="url(#p0715c54508)">
     <use xlink:href="#m69ab29ebb6" x="173.045455" y="96.851943" style="stroke: #000000"/>
     <use xlink:href="#m69ab29ebb6" x="178.174819" y="374.779955" style="stroke: #000000"/>
     <use xlink:href="#m69ab29ebb6" x="183.14389" y="374.779955" style="stroke: #000000"/>
     <use xlink:href="#m69ab29ebb6" x="188.112961" y="96.851943" style="stroke: #000000"/>
     <use xlink:href="#m69ab29ebb6" x="193.082033" y="374.779955" style="stroke: #000000"/>
     <use xlink:href="#m69ab29ebb6" x="198.211397" y="374.779955" style="stroke: #000000"/>
     <use xlink:href="#m69ab29ebb6" x="203.180468" y="96.851943" style="stroke: #000000"/>
     <use xlink:href="#m69ab29ebb6" x="208.149539" y="374.779955" style="stroke: #000000"/>
     <use xlink:href="#m69ab29ebb6" x="213.118611" y="96.851943" style="stroke: #000000"/>
     <use xlink:href="#m69ab29ebb6" x="218.247975" y="374.779955" style="stroke: #000000"/>
     <use xlink:href="#m69ab29ebb6" x="223.217046" y="374.779955" style="stroke: #000000"/>
     <use xlink:href="#m69ab29ebb6" x="228.186118" y="96.851943" style="stroke: #000000"/>
     <use xlink:href="#m69ab29ebb6" x="233.155189" y="374.779955" style="stroke: #000000"/>
     <use xlink:href="#m69ab29ebb6" x="238.284553" y="374.779955" style="stroke: #000000"/>
     <use xlink:href="#m69ab29ebb6" x="243.253624" y="96.851943" style="stroke: #000000"/>
     <use xlink:href="#m69ab29ebb6" x="248.222696" y="374.779955" style="stroke: #000000"/>
     <use xlink:href="#m69ab29ebb6" x="253.191767" y="96.851943" style="stroke: #000000"/>
     <use xlink:href="#m69ab29ebb6" x="258.321131" y="374.779955" style="stroke: #000000"/>
     <use xlink:href="#m69ab29ebb6" x="263.290202" y="374.779955" style="stroke: #000000"/>
     <use xlink:href="#m69ab29ebb6" x="268.259274" y="96.851943" style="stroke: #000000"/>
     <use xlink:href="#m69ab29ebb6" x="273.228345" y="374.779955" style="stroke: #000000"/>
     <use xlink:href="#m69ab29ebb6" x="278.357709" y="374.779955" style="stroke: #000000"/>
     <use xlink:href="#m69ab29ebb6" x="283.326781" y="96.851943" style="stroke: #000000"/>
     <use xlink:href="#m69ab29ebb6" x="288.295852" y="374.779955" style="stroke: #000000"/>
     <use xlink:href="#m69ab29ebb6" x="293.264923" y="96.851943" style="stroke: #000000"/>
     <use xlink:href="#m69ab29ebb6" x="298.394287" y="374.779955" style="stroke: #000000"/>
     <use xlink:href="#m69ab29ebb6" x="303.363359" y="374.779955" style="stroke: #000000"/>
     <use xlink:href="#m69ab29ebb6" x="308.33243" y="96.851943" style="stroke: #000000"/>
     <use xlink:href="#m69ab29ebb6" x="313.301501" y="374.779955" style="stroke: #000000"/>
     <use xlink:href="#m69ab29ebb6" x="318.430865" y="374.779955" style="stroke: #000000"/>
     <use xlink:href="#m69ab29ebb6" x="323.399937" y="96.851943" style="stroke: #000000"/>
     <use xlink:href="#m69ab29ebb6" x="328.369008" y="374.779955" style="stroke: #000000"/>
     <use xlink:href="#m69ab29ebb6" x="333.33808" y="96.851943" style="stroke: #000000"/>
     <use xlink:href="#m69ab29ebb6" x="338.467444" y="374.779955" style="stroke: #000000"/>
     <use xlink:href="#m69ab29ebb6" x="343.436515" y="374.779955" style="stroke: #000000"/>
     <use xlink:href="#m69ab29ebb6" x="348.405586" y="96.851943" style="stroke: #000000"/>
     <use xlink:href="#m69ab29ebb6" x="353.374658" y="374.779955" style="stroke: #000000"/>
     <use xlink:href="#m69ab29ebb6" x="358.504022" y="374.779955" style="stroke: #000000"/>
     <use xlink:href="#m69ab29ebb6" x="363.473093" y="96.851943" style="stroke: #000000"/>
     <use xlink:href="#m69ab29ebb6" x="368.442164" y="374.779955" style="stroke: #000000"/>
     <use xlink:href="#m69ab29ebb6" x="373.411236" y="96.851943" style="stroke: #000000"/>
     <use xlink:href="#m69ab29ebb6" x="378.5406" y="374.779955" style="stroke: #000000"/>
     <use xlink:href="#m69ab29ebb6" x="383.509671" y="374.779955" style="stroke: #000000"/>
     <use xlink:href="#m69ab29ebb6" x="388.478743" y="96.851943" style="stroke: #000000"/>
     <use xlink:href="#m69ab29ebb6" x="393.447814" y="374.779955" style="stroke: #000000"/>
     <use xlink:href="#m69ab29ebb6" x="398.577178" y="374.779955" style="stroke: #000000"/>
     <use xlink:href="#m69ab29ebb6" x="403.546249" y="96.851943" style="stroke: #000000"/>
     <use xlink:href="#m69ab29ebb6" x="408.515321" y="374.779955" style="stroke: #000000"/>
     <use xlink:href="#m69ab29ebb6" x="413.484392" y="96.851943" style="stroke: #000000"/>
     <use xlink:href="#m69ab29ebb6" x="418.613756" y="374.779955" style="stroke: #000000"/>
     <use xlink:href="#m69ab29ebb6" x="423.582827" y="374.779955" style="stroke: #000000"/>
     <use xlink:href="#m69ab29ebb6" x="428.551899" y="96.851943" style="stroke: #000000"/>
     <use xlink:href="#m69ab29ebb6" x="433.52097" y="374.779955" style="stroke: #000000"/>
     <use xlink:href="#m69ab29ebb6" x="438.650334" y="374.779955" style="stroke: #000000"/>
     <use xlink:href="#m69ab29ebb6" x="443.619406" y="96.851943" style="stroke: #000000"/>
     <use xlink:href="#m69ab29ebb6" x="448.588477" y="374.779955" style="stroke: #000000"/>
     <use xlink:href="#m69ab29ebb6" x="453.557548" y="96.851943" style="stroke: #000000"/>
     <use xlink:href="#m69ab29ebb6" x="458.686912" y="374.779955" style="stroke: #000000"/>
     <use xlink:href="#m69ab29ebb6" x="463.655984" y="374.779955" style="stroke: #000000"/>
     <use xlink:href="#m69ab29ebb6" x="468.625055" y="96.851943" style="stroke: #000000"/>
     <use xlink:href="#m69ab29ebb6" x="473.594126" y="374.779955" style="stroke: #000000"/>
     <use xlink:href="#m69ab29ebb6" x="478.72349" y="374.779955" style="stroke: #000000"/>
     <use xlink:href="#m69ab29ebb6" x="483.692562" y="96.851943" style="stroke: #000000"/>
     <use xlink:href="#m69ab29ebb6" x="488.661633" y="374.779955" style="stroke: #000000"/>
     <use xlink:href="#m69ab29ebb6" x="493.630705" y="96.851943" style="stroke: #000000"/>
     <use xlink:href="#m69ab29ebb6" x="498.760069" y="374.779955" style="stroke: #000000"/>
     <use xlink:href="#m69ab29ebb6" x="503.72914" y="374.779955" style="stroke: #000000"/>
     <use xlink:href="#m69ab29ebb6" x="508.698211" y="96.851943" style="stroke: #000000"/>
     <use xlink:href="#m69ab29ebb6" x="513.667283" y="374.779955" style="stroke: #000000"/>
     <use xlink:href="#m69ab29ebb6" x="518.796647" y="374.779955" style="stroke: #000000"/>
     <use xlink:href="#m69ab29ebb6" x="523.765718" y="96.851943" style="stroke: #000000"/>
     <use xlink:href="#m69ab29ebb6" x="528.734789" y="374.779955" style="stroke: #000000"/>
     <use xlink:href="#m69ab29ebb6" x="533.703861" y="96.851943" style="stroke: #000000"/>
     <use xlink:href="#m69ab29ebb6" x="538.833225" y="374.779955" style="stroke: #000000"/>
     <use xlink:href="#m69ab29ebb6" x="543.802296" y="374.779955" style="stroke: #000000"/>
     <use xlink:href="#m69ab29ebb6" x="548.771368" y="96.851943" style="stroke: #000000"/>
     <use xlink:href="#m69ab29ebb6" x="553.740439" y="374.779955" style="stroke: #000000"/>
     <use xlink:href="#m69ab29ebb6" x="558.869803" y="374.779955" style="stroke: #000000"/>
     <use xlink:href="#m69ab29ebb6" x="563.838874" y="96.851943" style="stroke: #000000"/>
     <use xlink:href="#m69ab29ebb6" x="568.807946" y="374.779955" style="stroke: #000000"/>
     <use xlink:href="#m69ab29ebb6" x="573.777017" y="96.851943" style="stroke: #000000"/>
     <use xlink:href="#m69ab29ebb6" x="578.906381" y="374.779955" style="stroke: #000000"/>
     <use xlink:href="#m69ab29ebb6" x="583.875452" y="374.779955" style="stroke: #000000"/>
     <use xlink:href="#m69ab29ebb6" x="588.844524" y="96.851943" style="stroke: #000000"/>
     <use xlink:href="#m69ab29ebb6" x="593.813595" y="374.779955" style="stroke: #000000"/>
     <use xlink:href="#m69ab29ebb6" x="598.942959" y="374.779955" style="stroke: #000000"/>
     <use xlink:href="#m69ab29ebb6" x="603.912031" y="96.851943" style="stroke: #000000"/>
     <use xlink:href="#m69ab29ebb6" x="608.881102" y="374.779955" style="stroke: #000000"/>
     <use xlink:href="#m69ab29ebb6" x="613.850173" y="96.851943" style="stroke: #000000"/>
     <use xlink:href="#m69ab29ebb6" x="618.979537" y="374.779955" style="stroke: #000000"/>
     <use xlink:href="#m69ab29ebb6" x="623.948609" y="374.779955" style="stroke: #000000"/>
     <use xlink:href="#m69ab29ebb6" x="628.91768" y="96.851943" style="stroke: #000000"/>
     <use xlink:href="#m69ab29ebb6" x="633.886751" y="374.779955" style="stroke: #000000"/>
     <use xlink:href="#m69ab29ebb6" x="639.016115" y="374.779955" style="stroke: #000000"/>
     <use xlink:href="#m69ab29ebb6" x="643.985187" y="96.851943" style="stroke: #000000"/>
     <use xlink:href="#m69ab29ebb6" x="648.954258" y="374.779955" style="stroke: #000000"/>
     <use xlink:href="#m69ab29ebb6" x="653.92333" y="96.851943" style="stroke: #000000"/>
     <use xlink:href="#m69ab29ebb6" x="659.052694" y="374.779955" style="stroke: #000000"/>
     <use xlink:href="#m69ab29ebb6" x="664.021765" y="374.779955" style="stroke: #000000"/>
     <use xlink:href="#m69ab29ebb6" x="668.990836" y="96.851943" style="stroke: #000000"/>
     <use xlink:href="#m69ab29ebb6" x="673.959908" y="374.779955" style="stroke: #000000"/>
     <use xlink:href="#m69ab29ebb6" x="679.089272" y="374.779955" style="stroke: #000000"/>
     <use xlink:href="#m69ab29ebb6" x="684.058343" y="96.851943" style="stroke: #000000"/>
     <use xlink:href="#m69ab29ebb6" x="689.027414" y="374.779955" style="stroke: #000000"/>
     <use xlink:href="#m69ab29ebb6" x="693.996486" y="96.851943" style="stroke: #000000"/>
     <use xlink:href="#m69ab29ebb6" x="699.12585" y="374.779955" style="stroke: #000000"/>
     <use xlink:href="#m69ab29ebb6" x="704.094921" y="374.779955" style="stroke: #000000"/>
     <use xlink:href="#m69ab29ebb6" x="709.063993" y="96.851943" style="stroke: #000000"/>
     <use xlink:href="#m69ab29ebb6" x="714.033064" y="374.779955" style="stroke: #000000"/>
     <use xlink:href="#m69ab29ebb6" x="719.162428" y="374.779955" style="stroke: #000000"/>
     <use xlink:href="#m69ab29ebb6" x="724.131499" y="96.851943" style="stroke: #000000"/>
     <use xlink:href="#m69ab29ebb6" x="729.100571" y="374.779955" style="stroke: #000000"/>
     <use xlink:href="#m69ab29ebb6" x="734.069642" y="96.851943" style="stroke: #000000"/>
     <use xlink:href="#m69ab29ebb6" x="739.199006" y="374.779955" style="stroke: #000000"/>
     <use xlink:href="#m69ab29ebb6" x="744.168077" y="374.779955" style="stroke: #000000"/>
     <use xlink:href="#m69ab29ebb6" x="749.137149" y="96.851943" style="stroke: #000000"/>
     <use xlink:href="#m69ab29ebb6" x="754.10622" y="374.779955" style="stroke: #000000"/>
     <use xlink:href="#m69ab29ebb6" x="759.235584" y="374.779955" style="stroke: #000000"/>
     <use xlink:href="#m69ab29ebb6" x="764.204656" y="96.851943" style="stroke: #000000"/>
     <use xlink:href="#m69ab29ebb6" x="769.173727" y="374.779955" style="stroke: #000000"/>
     <use xlink:href="#m69ab29ebb6" x="774.142798" y="96.851943" style="stroke: #000000"/>
     <use xlink:href="#m69ab29ebb6" x="779.272162" y="374.779955" style="stroke: #000000"/>
     <use xlink:href="#m69ab29ebb6" x="784.241234" y="374.779955" style="stroke: #000000"/>
     <use xlink:href="#m69ab29ebb6" x="789.210305" y="96.851943" style="stroke: #000000"/>
     <use xlink:href="#m69ab29ebb6" x="794.179376" y="374.779955" style="stroke: #000000"/>
     <use xlink:href="#m69ab29ebb6" x="799.30874" y="374.779955" style="stroke: #000000"/>
     <use xlink:href="#m69ab29ebb6" x="804.277812" y="96.851943" style="stroke: #000000"/>
     <use xlink:href="#m69ab29ebb6" x="809.246883" y="374.779955" style="stroke: #000000"/>
     <use xlink:href="#m69ab29ebb6" x="814.215955" y="96.851943" style="stroke: #000000"/>
     <use xlink:href="#m69ab29ebb6" x="819.345319" y="374.779955" style="stroke: #000000"/>
     <use xlink:href="#m69ab29ebb6" x="824.31439" y="374.779955" style="stroke: #000000"/>
     <use xlink:href="#m69ab29ebb6" x="829.283461" y="96.851943" style="stroke: #000000"/>
     <use xlink:href="#m69ab29ebb6" x="834.252533" y="374.779955" style="stroke: #000000"/>
     <use xlink:href="#m69ab29ebb6" x="839.381897" y="374.779955" style="stroke: #000000"/>
     <use xlink:href="#m69ab29ebb6" x="844.350968" y="96.851943" style="stroke: #000000"/>
     <use xlink:href="#m69ab29ebb6" x="849.320039" y="374.779955" style="stroke: #000000"/>
     <use xlink:href="#m69ab29ebb6" x="854.289111" y="96.851943" style="stroke: #000000"/>
     <use xlink:href="#m69ab29ebb6" x="859.418475" y="374.779955" style="stroke: #000000"/>
     <use xlink:href="#m69ab29ebb6" x="864.387546" y="374.779955" style="stroke: #000000"/>
     <use xlink:href="#m69ab29ebb6" x="869.356618" y="96.851943" style="stroke: #000000"/>
     <use xlink:href="#m69ab29ebb6" x="874.325689" y="374.779955" style="stroke: #000000"/>
     <use xlink:href="#m69ab29ebb6" x="879.455053" y="374.779955" style="stroke: #000000"/>
     <use xlink:href="#m69ab29ebb6" x="884.424124" y="96.851943" style="stroke: #000000"/>
     <use xlink:href="#m69ab29ebb6" x="889.393196" y="374.779955" style="stroke: #000000"/>
     <use xlink:href="#m69ab29ebb6" x="894.362267" y="96.851943" style="stroke: #000000"/>
     <use xlink:href="#m69ab29ebb6" x="899.491631" y="374.779955" style="stroke: #000000"/>
     <use xlink:href="#m69ab29ebb6" x="904.460702" y="374.779955" style="stroke: #000000"/>
     <use xlink:href="#m69ab29ebb6" x="909.429774" y="96.851943" style="stroke: #000000"/>
     <use xlink:href="#m69ab29ebb6" x="914.398845" y="374.779955" style="stroke: #000000"/>
     <use xlink:href="#m69ab29ebb6" x="919.528209" y="374.779955" style="stroke: #000000"/>
     <use xlink:href="#m69ab29ebb6" x="924.497281" y="96.851943" style="stroke: #000000"/>
     <use xlink:href="#m69ab29ebb6" x="929.466352" y="374.779955" style="stroke: #000000"/>
    </g>
   </g>
   <g id="patch_3">
    <path d="M 135 448.56 
L 135 60.48 
" style="fill: none; stroke: #000000; stroke-width: 0.8; stroke-linejoin: miter; stroke-linecap: square"/>
   </g>
   <g id="patch_4">
    <path d="M 972 448.56 
L 972 60.48 
" style="fill: none; stroke: #000000; stroke-width: 0.8; stroke-linejoin: miter; stroke-linecap: square"/>
   </g>
   <g id="patch_5">
    <path d="M 135 448.56 
L 972 448.56 
" style="fill: none; stroke: #000000; stroke-width: 0.8; stroke-linejoin: miter; stroke-linecap: square"/>
   </g>
   <g id="patch_6">
    <path d="M 135 60.48 
L 972 60.48 
" style="fill: none; stroke: #000000; stroke-width: 0.8; stroke-linejoin: miter; stroke-linecap: square"/>
   </g>
   <g id="legend_1">
    <g id="patch_7">
     <path d="M 142 443.56 
L 211.084375 443.56 
Q 213.084375 443.56 213.084375 441.56 
L 213.084375 397.969375 
Q 213.084375 395.969375 211.084375 395.969375 
L 142 395.969375 
Q 140 395.969375 140 397.969375 
L 140 441.56 
Q 140 443.56 142 443.56 
z
" style="fill: #ffffff; opacity: 0.8; stroke: #cccccc; stroke-linejoin: miter"/>
    </g>
    <g id="line2d_16">
     <path d="M 144 404.067813 
L 154 404.067813 
L 164 404.067813 
" style="fill: none; stroke: #1f77b4; stroke-width: 1.5; stroke-linecap: square"/>
    </g>
    <g id="text_14">
     <!-- nw_0 -->
     <g transform="translate(172 407.567813) scale(0.1 -0.1)">
      <defs>
       <path id="DejaVuSans-6e" d="M 3513 2113 
L 3513 0 
L 2938 0 
L 2938 2094 
Q 2938 2591 2744 2837 
Q 2550 3084 2163 3084 
Q 1697 3084 1428 2787 
Q 1159 2491 1159 1978 
L 1159 0 
L 581 0 
L 581 3500 
L 1159 3500 
L 1159 2956 
Q 1366 3272 1645 3428 
Q 1925 3584 2291 3584 
Q 2894 3584 3203 3211 
Q 3513 2838 3513 2113 
z
" transform="scale(0.015625)"/>
       <path id="DejaVuSans-77" d="M 269 3500 
L 844 3500 
L 1563 769 
L 2278 3500 
L 2956 3500 
L 3675 769 
L 4391 3500 
L 4966 3500 
L 4050 0 
L 3372 0 
L 2619 2869 
L 1863 0 
L 1184 0 
L 269 3500 
z
" transform="scale(0.015625)"/>
       <path id="DejaVuSans-5f" d="M 3263 -1063 
L 3263 -1509 
L -63 -1509 
L -63 -1063 
L 3263 -1063 
z
" transform="scale(0.015625)"/>
      </defs>
      <use xlink:href="#DejaVuSans-6e"/>
      <use xlink:href="#DejaVuSans-77" x="63.378906"/>
      <use xlink:href="#DejaVuSans-5f" x="145.166016"/>
      <use xlink:href="#DejaVuSans-30" x="195.166016"/>
     </g>
    </g>
    <g id="line2d_17">
     <path d="M 144 419.024063 
L 154 419.024063 
L 164 419.024063 
" style="fill: none; stroke: #ff7f0e; stroke-width: 1.5; stroke-linecap: square"/>
    </g>
    <g id="text_15">
     <!-- input_0 -->
     <g transform="translate(172 422.524063) scale(0.1 -0.1)">
      <defs>
       <path id="DejaVuSans-69" d="M 603 3500 
L 1178 3500 
L 1178 0 
L 603 0 
L 603 3500 
z
M 603 4863 
L 1178 4863 
L 1178 4134 
L 603 4134 
L 603 4863 
z
" transform="scale(0.015625)"/>
       <path id="DejaVuSans-70" d="M 1159 525 
L 1159 -1331 
L 581 -1331 
L 581 3500 
L 1159 3500 
L 1159 2969 
Q 1341 3281 1617 3432 
Q 1894 3584 2278 3584 
Q 2916 3584 3314 3078 
Q 3713 2572 3713 1747 
Q 3713 922 3314 415 
Q 2916 -91 2278 -91 
Q 1894 -91 1617 61 
Q 1341 213 1159 525 
z
M 3116 1747 
Q 3116 2381 2855 2742 
Q 2594 3103 2138 3103 
Q 1681 3103 1420 2742 
Q 1159 2381 1159 1747 
Q 1159 1113 1420 752 
Q 1681 391 2138 391 
Q 2594 391 2855 752 
Q 3116 1113 3116 1747 
z
" transform="scale(0.015625)"/>
       <path id="DejaVuSans-75" d="M 544 1381 
L 544 3500 
L 1119 3500 
L 1119 1403 
Q 1119 906 1312 657 
Q 1506 409 1894 409 
Q 2359 409 2629 706 
Q 2900 1003 2900 1516 
L 2900 3500 
L 3475 3500 
L 3475 0 
L 2900 0 
L 2900 538 
Q 2691 219 2414 64 
Q 2138 -91 1772 -91 
Q 1169 -91 856 284 
Q 544 659 544 1381 
z
M 1991 3584 
L 1991 3584 
z
" transform="scale(0.015625)"/>
      </defs>
      <use xlink:href="#DejaVuSans-69"/>
      <use xlink:href="#DejaVuSans-6e" x="27.783203"/>
      <use xlink:href="#DejaVuSans-70" x="91.162109"/>
      <use xlink:href="#DejaVuSans-75" x="154.638672"/>
      <use xlink:href="#DejaVuSans-74" x="218.017578"/>
      <use xlink:href="#DejaVuSans-5f" x="257.226562"/>
      <use xlink:href="#DejaVuSans-30" x="307.226562"/>
     </g>
    </g>
    <g id="line2d_18">
     <path d="M 144 433.980312 
L 154 433.980312 
L 164 433.980312 
" style="fill: none; stroke: #000000; stroke-width: 1.5; stroke-linecap: square"/>
     <g>
      <use xlink:href="#m69ab29ebb6" x="154" y="433.980312" style="stroke: #000000"/>
     </g>
    </g>
    <g id="text_16">
     <!-- target -->
     <g transform="translate(172 437.480312) scale(0.1 -0.1)">
      <defs>
       <path id="DejaVuSans-61" d="M 2194 1759 
Q 1497 1759 1228 1600 
Q 959 1441 959 1056 
Q 959 750 1161 570 
Q 1363 391 1709 391 
Q 2188 391 2477 730 
Q 2766 1069 2766 1631 
L 2766 1759 
L 2194 1759 
z
M 3341 1997 
L 3341 0 
L 2766 0 
L 2766 531 
Q 2569 213 2275 61 
Q 1981 -91 1556 -91 
Q 1019 -91 701 211 
Q 384 513 384 1019 
Q 384 1609 779 1909 
Q 1175 2209 1959 2209 
L 2766 2209 
L 2766 2266 
Q 2766 2663 2505 2880 
Q 2244 3097 1772 3097 
Q 1472 3097 1187 3025 
Q 903 2953 641 2809 
L 641 3341 
Q 956 3463 1253 3523 
Q 1550 3584 1831 3584 
Q 2591 3584 2966 3190 
Q 3341 2797 3341 1997 
z
" transform="scale(0.015625)"/>
       <path id="DejaVuSans-72" d="M 2631 2963 
Q 2534 3019 2420 3045 
Q 2306 3072 2169 3072 
Q 1681 3072 1420 2755 
Q 1159 2438 1159 1844 
L 1159 0 
L 581 0 
L 581 3500 
L 1159 3500 
L 1159 2956 
Q 1341 3275 1631 3429 
Q 1922 3584 2338 3584 
Q 2397 3584 2469 3576 
Q 2541 3569 2628 3553 
L 2631 2963 
z
" transform="scale(0.015625)"/>
       <path id="DejaVuSans-67" d="M 2906 1791 
Q 2906 2416 2648 2759 
Q 2391 3103 1925 3103 
Q 1463 3103 1205 2759 
Q 947 2416 947 1791 
Q 947 1169 1205 825 
Q 1463 481 1925 481 
Q 2391 481 2648 825 
Q 2906 1169 2906 1791 
z
M 3481 434 
Q 3481 -459 3084 -895 
Q 2688 -1331 1869 -1331 
Q 1566 -1331 1297 -1286 
Q 1028 -1241 775 -1147 
L 775 -588 
Q 1028 -725 1275 -790 
Q 1522 -856 1778 -856 
Q 2344 -856 2625 -561 
Q 2906 -266 2906 331 
L 2906 616 
Q 2728 306 2450 153 
Q 2172 0 1784 0 
Q 1141 0 747 490 
Q 353 981 353 1791 
Q 353 2603 747 3093 
Q 1141 3584 1784 3584 
Q 2172 3584 2450 3431 
Q 2728 3278 2906 2969 
L 2906 3500 
L 3481 3500 
L 3481 434 
z
" transform="scale(0.015625)"/>
       <path id="DejaVuSans-65" d="M 3597 1894 
L 3597 1613 
L 953 1613 
Q 991 1019 1311 708 
Q 1631 397 2203 397 
Q 2534 397 2845 478 
Q 3156 559 3463 722 
L 3463 178 
Q 3153 47 2828 -22 
Q 2503 -91 2169 -91 
Q 1331 -91 842 396 
Q 353 884 353 1716 
Q 353 2575 817 3079 
Q 1281 3584 2069 3584 
Q 2775 3584 3186 3129 
Q 3597 2675 3597 1894 
z
M 3022 2063 
Q 3016 2534 2758 2815 
Q 2500 3097 2075 3097 
Q 1594 3097 1305 2825 
Q 1016 2553 972 2059 
L 3022 2063 
z
" transform="scale(0.015625)"/>
      </defs>
      <use xlink:href="#DejaVuSans-74"/>
      <use xlink:href="#DejaVuSans-61" x="39.208984"/>
      <use xlink:href="#DejaVuSans-72" x="100.488281"/>
      <use xlink:href="#DejaVuSans-67" x="139.851562"/>
      <use xlink:href="#DejaVuSans-65" x="203.328125"/>
      <use xlink:href="#DejaVuSans-74" x="264.851562"/>
     </g>
    </g>
   </g>
  </g>
 </g>
 <defs>
  <clipPath id="p0715c54508">
   <rect x="135" y="60.48" width="837" height="388.08"/>
  </clipPath>
 </defs>
</svg>
