<?xml version="1.0" encoding="utf-8" standalone="no"?>
<!DOCTYPE svg PUBLIC "-//W3C//DTD SVG 1.1//EN"
  "http://www.w3.org/Graphics/SVG/1.1/DTD/svg11.dtd">
<svg xmlns:xlink="http://www.w3.org/1999/xlink" width="1080pt" height="504pt" viewBox="0 0 1080 504" xmlns="http://www.w3.org/2000/svg" version="1.1">
 <metadata>
  <rdf:RDF xmlns:dc="http://purl.org/dc/elements/1.1/" xmlns:cc="http://creativecommons.org/ns#" xmlns:rdf="http://www.w3.org/1999/02/22-rdf-syntax-ns#">
   <cc:Work>
    <dc:type rdf:resource="http://purl.org/dc/dcmitype/StillImage"/>
    <dc:date>2024-05-09T11:06:50.302243</dc:date>
    <dc:format>image/svg+xml</dc:format>
    <dc:creator>
     <cc:Agent>
      <dc:title>Matplotlib v3.7.1, https://matplotlib.org/</dc:title>
     </cc:Agent>
    </dc:creator>
   </cc:Work>
  </rdf:RDF>
 </metadata>
 <defs>
  <style type="text/css">*{stroke-linejoin: round; stroke-linecap: butt}</style>
 </defs>
 <g id="figure_1">
  <g id="patch_1">
   <path d="M 0 504 
L 1080 504 
L 1080 0 
L 0 0 
z
" style="fill: #ffffff"/>
  </g>
  <g id="axes_1">
   <g id="patch_2">
    <path d="M 135 448.56 
L 972 448.56 
L 972 60.48 
L 135 60.48 
z
" style="fill: #ffffff"/>
   </g>
   <g id="matplotlib.axis_1">
    <g id="xtick_1">
     <g id="line2d_1">
      <defs>
       <path id="m25e05ab2cc" d="M 0 0 
L 0 3.5 
" style="stroke: #000000; stroke-width: 0.8"/>
      </defs>
      <g>
       <use xlink:href="#m25e05ab2cc" x="173.045455" y="448.56" style="stroke: #000000; stroke-width: 0.8"/>
      </g>
     </g>
     <g id="text_1">
      <!-- 0 -->
      <g transform="translate(169.864205 463.158437) scale(0.1 -0.1)">
       <defs>
        <path id="DejaVuSans-30" d="M 2034 4250 
Q 1547 4250 1301 3770 
Q 1056 3291 1056 2328 
Q 1056 1369 1301 889 
Q 1547 409 2034 409 
Q 2525 409 2770 889 
Q 3016 1369 3016 2328 
Q 3016 3291 2770 3770 
Q 2525 4250 2034 4250 
z
M 2034 4750 
Q 2819 4750 3233 4129 
Q 3647 3509 3647 2328 
Q 3647 1150 3233 529 
Q 2819 -91 2034 -91 
Q 1250 -91 836 529 
Q 422 1150 422 2328 
Q 422 3509 836 4129 
Q 1250 4750 2034 4750 
z
" transform="scale(0.015625)"/>
       </defs>
       <use xlink:href="#DejaVuSans-30"/>
      </g>
     </g>
    </g>
    <g id="xtick_2">
     <g id="line2d_2">
      <g>
       <use xlink:href="#m25e05ab2cc" x="333.33808" y="448.56" style="stroke: #000000; stroke-width: 0.8"/>
      </g>
     </g>
     <g id="text_2">
      <!-- 1000 -->
      <g transform="translate(320.61308 463.158437) scale(0.1 -0.1)">
       <defs>
        <path id="DejaVuSans-31" d="M 794 531 
L 1825 531 
L 1825 4091 
L 703 3866 
L 703 4441 
L 1819 4666 
L 2450 4666 
L 2450 531 
L 3481 531 
L 3481 0 
L 794 0 
L 794 531 
z
" transform="scale(0.015625)"/>
       </defs>
       <use xlink:href="#DejaVuSans-31"/>
       <use xlink:href="#DejaVuSans-30" x="63.623047"/>
       <use xlink:href="#DejaVuSans-30" x="127.246094"/>
       <use xlink:href="#DejaVuSans-30" x="190.869141"/>
      </g>
     </g>
    </g>
    <g id="xtick_3">
     <g id="line2d_3">
      <g>
       <use xlink:href="#m25e05ab2cc" x="493.630705" y="448.56" style="stroke: #000000; stroke-width: 0.8"/>
      </g>
     </g>
     <g id="text_3">
      <!-- 2000 -->
      <g transform="translate(480.905705 463.158437) scale(0.1 -0.1)">
       <defs>
        <path id="DejaVuSans-32" d="M 1228 531 
L 3431 531 
L 3431 0 
L 469 0 
L 469 531 
Q 828 903 1448 1529 
Q 2069 2156 2228 2338 
Q 2531 2678 2651 2914 
Q 2772 3150 2772 3378 
Q 2772 3750 2511 3984 
Q 2250 4219 1831 4219 
Q 1534 4219 1204 4116 
Q 875 4013 500 3803 
L 500 4441 
Q 881 4594 1212 4672 
Q 1544 4750 1819 4750 
Q 2544 4750 2975 4387 
Q 3406 4025 3406 3419 
Q 3406 3131 3298 2873 
Q 3191 2616 2906 2266 
Q 2828 2175 2409 1742 
Q 1991 1309 1228 531 
z
" transform="scale(0.015625)"/>
       </defs>
       <use xlink:href="#DejaVuSans-32"/>
       <use xlink:href="#DejaVuSans-30" x="63.623047"/>
       <use xlink:href="#DejaVuSans-30" x="127.246094"/>
       <use xlink:href="#DejaVuSans-30" x="190.869141"/>
      </g>
     </g>
    </g>
    <g id="xtick_4">
     <g id="line2d_4">
      <g>
       <use xlink:href="#m25e05ab2cc" x="653.92333" y="448.56" style="stroke: #000000; stroke-width: 0.8"/>
      </g>
     </g>
     <g id="text_4">
      <!-- 3000 -->
      <g transform="translate(641.19833 463.158437) scale(0.1 -0.1)">
       <defs>
        <path id="DejaVuSans-33" d="M 2597 2516 
Q 3050 2419 3304 2112 
Q 3559 1806 3559 1356 
Q 3559 666 3084 287 
Q 2609 -91 1734 -91 
Q 1441 -91 1130 -33 
Q 819 25 488 141 
L 488 750 
Q 750 597 1062 519 
Q 1375 441 1716 441 
Q 2309 441 2620 675 
Q 2931 909 2931 1356 
Q 2931 1769 2642 2001 
Q 2353 2234 1838 2234 
L 1294 2234 
L 1294 2753 
L 1863 2753 
Q 2328 2753 2575 2939 
Q 2822 3125 2822 3475 
Q 2822 3834 2567 4026 
Q 2313 4219 1838 4219 
Q 1578 4219 1281 4162 
Q 984 4106 628 3988 
L 628 4550 
Q 988 4650 1302 4700 
Q 1616 4750 1894 4750 
Q 2613 4750 3031 4423 
Q 3450 4097 3450 3541 
Q 3450 3153 3228 2886 
Q 3006 2619 2597 2516 
z
" transform="scale(0.015625)"/>
       </defs>
       <use xlink:href="#DejaVuSans-33"/>
       <use xlink:href="#DejaVuSans-30" x="63.623047"/>
       <use xlink:href="#DejaVuSans-30" x="127.246094"/>
       <use xlink:href="#DejaVuSans-30" x="190.869141"/>
      </g>
     </g>
    </g>
    <g id="xtick_5">
     <g id="line2d_5">
      <g>
       <use xlink:href="#m25e05ab2cc" x="814.215955" y="448.56" style="stroke: #000000; stroke-width: 0.8"/>
      </g>
     </g>
     <g id="text_5">
      <!-- 4000 -->
      <g transform="translate(801.490955 463.158437) scale(0.1 -0.1)">
       <defs>
        <path id="DejaVuSans-34" d="M 2419 4116 
L 825 1625 
L 2419 1625 
L 2419 4116 
z
M 2253 4666 
L 3047 4666 
L 3047 1625 
L 3713 1625 
L 3713 1100 
L 3047 1100 
L 3047 0 
L 2419 0 
L 2419 1100 
L 313 1100 
L 313 1709 
L 2253 4666 
z
" transform="scale(0.015625)"/>
       </defs>
       <use xlink:href="#DejaVuSans-34"/>
       <use xlink:href="#DejaVuSans-30" x="63.623047"/>
       <use xlink:href="#DejaVuSans-30" x="127.246094"/>
       <use xlink:href="#DejaVuSans-30" x="190.869141"/>
      </g>
     </g>
    </g>
    <g id="text_6">
     <!-- t -->
     <g transform="translate(551.539844 476.836563) scale(0.1 -0.1)">
      <defs>
       <path id="DejaVuSans-74" d="M 1172 4494 
L 1172 3500 
L 2356 3500 
L 2356 3053 
L 1172 3053 
L 1172 1153 
Q 1172 725 1289 603 
Q 1406 481 1766 481 
L 2356 481 
L 2356 0 
L 1766 0 
Q 1100 0 847 248 
Q 594 497 594 1153 
L 594 3053 
L 172 3053 
L 172 3500 
L 594 3500 
L 594 4494 
L 1172 4494 
z
" transform="scale(0.015625)"/>
      </defs>
      <use xlink:href="#DejaVuSans-74"/>
     </g>
    </g>
   </g>
   <g id="matplotlib.axis_2">
    <g id="ytick_1">
     <g id="line2d_6">
      <defs>
       <path id="m31af48a28e" d="M 0 0 
L -3.5 0 
" style="stroke: #000000; stroke-width: 0.8"/>
      </defs>
      <g>
       <use xlink:href="#m31af48a28e" x="135" y="442.042042" style="stroke: #000000; stroke-width: 0.8"/>
      </g>
     </g>
     <g id="text_7">
      <!-- −0.4 -->
      <g transform="translate(103.717187 445.841261) scale(0.1 -0.1)">
       <defs>
        <path id="DejaVuSans-2212" d="M 678 2272 
L 4684 2272 
L 4684 1741 
L 678 1741 
L 678 2272 
z
" transform="scale(0.015625)"/>
        <path id="DejaVuSans-2e" d="M 684 794 
L 1344 794 
L 1344 0 
L 684 0 
L 684 794 
z
" transform="scale(0.015625)"/>
       </defs>
       <use xlink:href="#DejaVuSans-2212"/>
       <use xlink:href="#DejaVuSans-30" x="83.789062"/>
       <use xlink:href="#DejaVuSans-2e" x="147.412109"/>
       <use xlink:href="#DejaVuSans-34" x="179.199219"/>
      </g>
     </g>
    </g>
    <g id="ytick_2">
     <g id="line2d_7">
      <g>
       <use xlink:href="#m31af48a28e" x="135" y="396.218892" style="stroke: #000000; stroke-width: 0.8"/>
      </g>
     </g>
     <g id="text_8">
      <!-- −0.2 -->
      <g transform="translate(103.717187 400.018111) scale(0.1 -0.1)">
       <use xlink:href="#DejaVuSans-2212"/>
       <use xlink:href="#DejaVuSans-30" x="83.789062"/>
       <use xlink:href="#DejaVuSans-2e" x="147.412109"/>
       <use xlink:href="#DejaVuSans-32" x="179.199219"/>
      </g>
     </g>
    </g>
    <g id="ytick_3">
     <g id="line2d_8">
      <g>
       <use xlink:href="#m31af48a28e" x="135" y="350.395742" style="stroke: #000000; stroke-width: 0.8"/>
      </g>
     </g>
     <g id="text_9">
      <!-- 0.0 -->
      <g transform="translate(112.096875 354.19496) scale(0.1 -0.1)">
       <use xlink:href="#DejaVuSans-30"/>
       <use xlink:href="#DejaVuSans-2e" x="63.623047"/>
       <use xlink:href="#DejaVuSans-30" x="95.410156"/>
      </g>
     </g>
    </g>
    <g id="ytick_4">
     <g id="line2d_9">
      <g>
       <use xlink:href="#m31af48a28e" x="135" y="304.572591" style="stroke: #000000; stroke-width: 0.8"/>
      </g>
     </g>
     <g id="text_10">
      <!-- 0.2 -->
      <g transform="translate(112.096875 308.37181) scale(0.1 -0.1)">
       <use xlink:href="#DejaVuSans-30"/>
       <use xlink:href="#DejaVuSans-2e" x="63.623047"/>
       <use xlink:href="#DejaVuSans-32" x="95.410156"/>
      </g>
     </g>
    </g>
    <g id="ytick_5">
     <g id="line2d_10">
      <g>
       <use xlink:href="#m31af48a28e" x="135" y="258.749441" style="stroke: #000000; stroke-width: 0.8"/>
      </g>
     </g>
     <g id="text_11">
      <!-- 0.4 -->
      <g transform="translate(112.096875 262.54866) scale(0.1 -0.1)">
       <use xlink:href="#DejaVuSans-30"/>
       <use xlink:href="#DejaVuSans-2e" x="63.623047"/>
       <use xlink:href="#DejaVuSans-34" x="95.410156"/>
      </g>
     </g>
    </g>
    <g id="ytick_6">
     <g id="line2d_11">
      <g>
       <use xlink:href="#m31af48a28e" x="135" y="212.926291" style="stroke: #000000; stroke-width: 0.8"/>
      </g>
     </g>
     <g id="text_12">
      <!-- 0.6 -->
      <g transform="translate(112.096875 216.72551) scale(0.1 -0.1)">
       <defs>
        <path id="DejaVuSans-36" d="M 2113 2584 
Q 1688 2584 1439 2293 
Q 1191 2003 1191 1497 
Q 1191 994 1439 701 
Q 1688 409 2113 409 
Q 2538 409 2786 701 
Q 3034 994 3034 1497 
Q 3034 2003 2786 2293 
Q 2538 2584 2113 2584 
z
M 3366 4563 
L 3366 3988 
Q 3128 4100 2886 4159 
Q 2644 4219 2406 4219 
Q 1781 4219 1451 3797 
Q 1122 3375 1075 2522 
Q 1259 2794 1537 2939 
Q 1816 3084 2150 3084 
Q 2853 3084 3261 2657 
Q 3669 2231 3669 1497 
Q 3669 778 3244 343 
Q 2819 -91 2113 -91 
Q 1303 -91 875 529 
Q 447 1150 447 2328 
Q 447 3434 972 4092 
Q 1497 4750 2381 4750 
Q 2619 4750 2861 4703 
Q 3103 4656 3366 4563 
z
" transform="scale(0.015625)"/>
       </defs>
       <use xlink:href="#DejaVuSans-30"/>
       <use xlink:href="#DejaVuSans-2e" x="63.623047"/>
       <use xlink:href="#DejaVuSans-36" x="95.410156"/>
      </g>
     </g>
    </g>
    <g id="ytick_7">
     <g id="line2d_12">
      <g>
       <use xlink:href="#m31af48a28e" x="135" y="167.103141" style="stroke: #000000; stroke-width: 0.8"/>
      </g>
     </g>
     <g id="text_13">
      <!-- 0.8 -->
      <g transform="translate(112.096875 170.90236) scale(0.1 -0.1)">
       <defs>
        <path id="DejaVuSans-38" d="M 2034 2216 
Q 1584 2216 1326 1975 
Q 1069 1734 1069 1313 
Q 1069 891 1326 650 
Q 1584 409 2034 409 
Q 2484 409 2743 651 
Q 3003 894 3003 1313 
Q 3003 1734 2745 1975 
Q 2488 2216 2034 2216 
z
M 1403 2484 
Q 997 2584 770 2862 
Q 544 3141 544 3541 
Q 544 4100 942 4425 
Q 1341 4750 2034 4750 
Q 2731 4750 3128 4425 
Q 3525 4100 3525 3541 
Q 3525 3141 3298 2862 
Q 3072 2584 2669 2484 
Q 3125 2378 3379 2068 
Q 3634 1759 3634 1313 
Q 3634 634 3220 271 
Q 2806 -91 2034 -91 
Q 1263 -91 848 271 
Q 434 634 434 1313 
Q 434 1759 690 2068 
Q 947 2378 1403 2484 
z
M 1172 3481 
Q 1172 3119 1398 2916 
Q 1625 2713 2034 2713 
Q 2441 2713 2670 2916 
Q 2900 3119 2900 3481 
Q 2900 3844 2670 4047 
Q 2441 4250 2034 4250 
Q 1625 4250 1398 4047 
Q 1172 3844 1172 3481 
z
" transform="scale(0.015625)"/>
       </defs>
       <use xlink:href="#DejaVuSans-30"/>
       <use xlink:href="#DejaVuSans-2e" x="63.623047"/>
       <use xlink:href="#DejaVuSans-38" x="95.410156"/>
      </g>
     </g>
    </g>
    <g id="ytick_8">
     <g id="line2d_13">
      <g>
       <use xlink:href="#m31af48a28e" x="135" y="121.279991" style="stroke: #000000; stroke-width: 0.8"/>
      </g>
     </g>
     <g id="text_14">
      <!-- 1.0 -->
      <g transform="translate(112.096875 125.079209) scale(0.1 -0.1)">
       <use xlink:href="#DejaVuSans-31"/>
       <use xlink:href="#DejaVuSans-2e" x="63.623047"/>
       <use xlink:href="#DejaVuSans-30" x="95.410156"/>
      </g>
     </g>
    </g>
    <g id="ytick_9">
     <g id="line2d_14">
      <g>
       <use xlink:href="#m31af48a28e" x="135" y="75.45684" style="stroke: #000000; stroke-width: 0.8"/>
      </g>
     </g>
     <g id="text_15">
      <!-- 1.2 -->
      <g transform="translate(112.096875 79.256059) scale(0.1 -0.1)">
       <use xlink:href="#DejaVuSans-31"/>
       <use xlink:href="#DejaVuSans-2e" x="63.623047"/>
       <use xlink:href="#DejaVuSans-32" x="95.410156"/>
      </g>
     </g>
    </g>
   </g>
   <g id="line2d_15">
    <path d="M 173.045455 175.908062 
L 173.36604 87.749793 
L 173.526332 81.501627 
L 173.686625 81.240184 
L 173.846918 84.882462 
L 174.167503 102.992899 
L 174.968966 158.558986 
L 175.129259 162.131726 
L 175.289551 162.538929 
L 175.449844 160.227429 
L 175.770429 149.784371 
L 177.373355 84.36079 
L 177.693941 78.12 
L 178.014526 405.593214 
L 178.174819 430.912326 
L 178.335111 430.754546 
L 178.815989 416.066413 
L 179.136574 409.071288 
L 179.777745 383.279202 
L 180.258623 369.007713 
L 181.380671 349.173011 
L 181.861549 342.241288 
L 182.182134 340.505967 
L 182.342427 340.668217 
L 182.663012 342.775009 
L 183.78506 353.892387 
L 183.945353 354.089875 
L 184.105646 353.687032 
L 184.426231 351.049354 
L 184.907109 342.994738 
L 185.708572 323.207928 
L 186.670328 300.558122 
L 187.151206 292.887344 
L 187.632083 288.304363 
L 187.952669 286.916979 
L 188.112961 286.685504 
L 188.273254 286.738914 
L 188.593839 287.620731 
L 188.914424 289.394191 
L 189.395302 293.345976 
L 190.357058 303.892411 
L 191.959984 321.69198 
L 192.92174 329.770192 
L 193.723203 334.764355 
L 194.524666 338.462094 
L 195.326129 341.205352 
L 196.287885 343.645244 
L 197.249641 345.476542 
L 198.371689 347.099859 
L 199.493738 348.314642 
L 200.615786 349.201541 
L 201.737834 349.819677 
L 203.020175 350.269557 
L 204.462809 350.543716 
L 206.386321 350.678729 
L 209.592173 350.649155 
L 213.278903 350.532009 
L 213.599489 109.813893 
L 213.759781 87.860551 
L 213.920074 81.603792 
L 214.080367 81.333984 
L 214.240659 84.968222 
L 214.561244 103.063769 
L 215.362708 158.600346 
L 215.523 162.16853 
L 215.683293 162.571608 
L 215.843585 160.256396 
L 216.164171 149.807061 
L 217.767097 84.367746 
L 218.087682 78.125587 
L 218.408267 405.598137 
L 218.56856 430.917013 
L 218.728853 430.759039 
L 219.209731 416.070454 
L 219.530316 409.075053 
L 220.171486 383.282384 
L 220.652364 369.010453 
L 221.774413 349.1749 
L 222.25529 342.242916 
L 222.575876 340.507451 
L 222.736168 340.669636 
L 223.056754 342.776311 
L 224.178802 353.893368 
L 224.339095 354.090817 
L 224.499387 353.687936 
L 224.819972 351.050186 
L 225.30085 342.995468 
L 226.102313 323.208506 
L 227.064069 300.558546 
L 227.544947 292.887702 
L 228.025825 288.304662 
L 228.34641 286.917243 
L 228.506703 286.685751 
L 228.666995 286.739145 
L 228.987581 287.620933 
L 229.308166 289.394365 
L 229.789044 293.346113 
L 230.7508 303.89249 
L 232.353726 321.691997 
L 233.315482 329.770188 
L 234.116945 334.764339 
L 234.918408 338.462071 
L 235.719871 341.205325 
L 236.681627 343.645215 
L 237.643382 345.476514 
L 238.765431 347.099833 
L 239.887479 348.31462 
L 241.009528 349.201522 
L 242.131576 349.819662 
L 243.413917 350.269546 
L 244.856551 350.543708 
L 246.780062 350.678724 
L 249.985915 350.649153 
L 253.99323 350.522895 
L 254.313815 109.805985 
L 254.474108 87.853272 
L 254.634401 81.597126 
L 254.794693 81.327903 
L 254.954986 84.962687 
L 255.275571 103.059199 
L 256.077034 158.597542 
L 256.237327 162.16599 
L 256.39762 162.569307 
L 256.557912 160.254311 
L 256.878497 149.805347 
L 258.481424 84.367059 
L 258.802009 78.125011 
L 259.122594 405.597598 
L 259.282887 430.916487 
L 259.443179 430.758523 
L 259.924057 416.069967 
L 260.244643 409.07459 
L 260.885813 383.28198 
L 261.366691 369.010099 
L 262.488739 349.174644 
L 262.969617 342.242691 
L 263.290202 340.507244 
L 263.450495 340.669437 
L 263.77108 342.776128 
L 264.893129 353.893228 
L 265.053421 354.090682 
L 265.213714 353.687806 
L 265.534299 351.050066 
L 266.015177 342.995362 
L 266.81664 323.20842 
L 267.778396 300.558481 
L 268.259274 292.887646 
L 268.740152 288.304613 
L 269.060737 286.917199 
L 269.22103 286.68571 
L 269.381322 286.739106 
L 269.701907 287.620898 
L 270.022493 289.394334 
L 270.503371 293.346088 
L 271.465126 303.892473 
L 273.068053 321.69199 
L 274.029808 329.770184 
L 274.831271 334.764338 
L 275.632735 338.462071 
L 276.434198 341.205326 
L 277.395953 343.645217 
L 278.357709 345.476517 
L 279.479758 347.099836 
L 280.601806 348.314622 
L 281.723854 349.201524 
L 282.845903 349.819663 
L 284.128244 350.269547 
L 285.570877 350.543709 
L 287.494389 350.678725 
L 290.700241 350.649154 
L 293.585509 350.556191 
L 293.906094 109.834826 
L 294.066386 87.87979 
L 294.226679 81.621376 
L 294.386972 81.350001 
L 294.547264 84.982785 
L 294.86785 103.075794 
L 295.669313 158.60781 
L 295.829605 162.175318 
L 295.989898 162.577783 
L 296.150191 160.262017 
L 296.470776 149.811729 
L 298.073702 84.369703 
L 298.394287 78.127239 
L 298.714873 405.599695 
L 298.875165 430.91854 
L 299.035458 430.760539 
L 299.516336 416.071878 
L 299.836921 409.07641 
L 300.478091 383.283569 
L 300.958969 369.011499 
L 302.081018 349.17566 
L 302.561896 342.243582 
L 302.882481 340.508064 
L 303.042773 340.670225 
L 303.363359 342.776856 
L 304.485407 353.893786 
L 304.6457 354.091219 
L 304.805992 353.688324 
L 305.126578 351.050544 
L 305.607455 342.995786 
L 306.408919 323.208763 
L 307.370674 300.558742 
L 307.851552 292.887871 
L 308.33243 288.304807 
L 308.653015 286.917374 
L 308.813308 286.685875 
L 308.973601 286.739263 
L 309.294186 287.621038 
L 309.614771 289.394459 
L 310.095649 293.346191 
L 311.057405 303.892543 
L 312.660331 321.69202 
L 313.622087 329.7702 
L 314.42355 334.764344 
L 315.225013 338.462071 
L 316.026476 341.205322 
L 316.988232 343.64521 
L 317.949988 345.476508 
L 319.072036 347.099827 
L 320.194084 348.314613 
L 321.316133 349.201516 
L 322.438181 349.819656 
L 323.720522 350.269541 
L 325.163156 350.543704 
L 327.086667 350.678722 
L 330.29252 350.649152 
L 333.818957 350.536692 
L 334.139543 109.817952 
L 334.299835 87.864286 
L 334.460128 81.607209 
L 334.620421 81.337099 
L 334.780713 84.971056 
L 335.101298 103.06611 
L 335.902762 158.601789 
L 336.063054 162.169839 
L 336.223347 162.572795 
L 336.383639 160.257474 
L 336.704225 149.807951 
L 338.307151 84.368109 
L 338.627736 78.125892 
L 338.948321 405.598424 
L 339.108614 430.917294 
L 339.268907 430.759314 
L 339.749785 416.070715 
L 340.07037 409.075301 
L 340.71154 383.2826 
L 341.192418 369.010644 
L 342.314467 349.175038 
L 342.795344 342.243037 
L 343.11593 340.507562 
L 343.276222 340.669743 
L 343.596808 342.77641 
L 344.718856 353.893444 
L 344.879149 354.09089 
L 345.039441 353.688006 
L 345.360026 351.050251 
L 345.840904 342.995526 
L 346.642367 323.208552 
L 347.604123 300.558581 
L 348.085001 292.887732 
L 348.565879 288.304688 
L 348.886464 286.917266 
L 349.046757 286.685773 
L 349.207049 286.739166 
L 349.527635 287.620951 
L 349.84822 289.394382 
L 350.329098 293.346127 
L 351.290854 303.8925 
L 352.89378 321.692001 
L 353.855536 329.77019 
L 354.656999 334.76434 
L 355.458462 338.462071 
L 356.259925 341.205324 
L 357.221681 343.645214 
L 358.183436 345.476513 
L 359.305485 347.099832 
L 360.427533 348.314619 
L 361.549582 349.201521 
L 362.67163 349.819661 
L 363.953971 350.269545 
L 365.396605 350.543707 
L 367.320116 350.678724 
L 370.525969 350.649153 
L 373.090651 350.56634 
L 373.411236 109.843589 
L 373.571528 87.887828 
L 373.731821 81.628708 
L 373.892114 81.356668 
L 374.052406 84.988841 
L 374.372992 103.080793 
L 375.174455 158.610955 
L 375.334747 162.17819 
L 375.49504 162.580408 
L 375.655333 160.264419 
L 375.975918 149.813745 
L 377.578844 84.370588 
L 377.899429 78.12799 
L 378.220015 405.600409 
L 378.380307 430.919242 
L 378.5406 430.761231 
L 379.021478 416.072538 
L 379.342063 409.07704 
L 379.983233 383.284122 
L 380.464111 369.011987 
L 381.58616 349.176016 
L 382.067038 342.243895 
L 382.387623 340.508353 
L 382.547915 340.670502 
L 382.868501 342.777112 
L 383.990549 353.893983 
L 384.150842 354.091409 
L 384.311134 353.688506 
L 384.63172 351.050713 
L 385.112597 342.995935 
L 385.914061 323.208884 
L 386.875816 300.558834 
L 387.356694 292.887952 
L 387.837572 288.304876 
L 388.158157 286.917436 
L 388.31845 286.685934 
L 388.478743 286.739319 
L 388.799328 287.621088 
L 389.119913 289.394504 
L 389.600791 293.346229 
L 390.562547 303.892568 
L 392.165473 321.692031 
L 393.127229 329.770206 
L 393.928692 334.764347 
L 394.730155 338.462072 
L 395.531618 341.205321 
L 396.493374 343.645208 
L 397.45513 345.476505 
L 398.577178 347.099824 
L 399.699226 348.31461 
L 400.821275 349.201513 
L 401.943323 349.819654 
L 403.225664 350.26954 
L 404.668298 350.543703 
L 406.591809 350.678721 
L 409.797662 350.649152 
L 413.644685 350.527409 
L 413.96527 109.809902 
L 414.125563 87.856879 
L 414.285855 81.60043 
L 414.446148 81.330917 
L 414.60644 84.965431 
L 414.927026 103.061465 
L 415.728489 158.59893 
L 415.888781 162.167247 
L 416.049074 162.570445 
L 416.209367 160.255341 
L 416.529952 149.806193 
L 418.132878 84.367396 
L 418.453463 78.125293 
L 418.774049 405.597862 
L 418.934341 430.916744 
L 419.094634 430.758775 
L 419.575512 416.070205 
L 419.896097 409.074816 
L 420.537268 383.282177 
L 421.018145 369.010272 
L 422.140194 349.174769 
L 422.621072 342.2428 
L 422.941657 340.507345 
L 423.10195 340.669534 
L 423.422535 342.776217 
L 424.544583 353.893296 
L 424.704876 354.090748 
L 424.865168 353.68787 
L 425.185754 351.050124 
L 425.666632 342.995414 
L 426.468095 323.208462 
L 427.42985 300.558512 
L 427.910728 292.887673 
L 428.391606 288.304637 
L 428.712191 286.917221 
L 428.872484 286.68573 
L 429.032777 286.739125 
L 429.353362 287.620915 
L 429.673947 289.394349 
L 430.154825 293.3461 
L 431.116581 303.892481 
L 432.719507 321.691993 
L 433.681263 329.770186 
L 434.482726 334.764338 
L 435.284189 338.462071 
L 436.085652 341.205326 
L 437.047408 343.645216 
L 438.009164 345.476515 
L 439.131212 347.099835 
L 440.25326 348.314621 
L 441.375309 349.201523 
L 442.497357 349.819662 
L 443.779698 350.269546 
L 445.222332 350.543708 
L 447.145843 350.678724 
L 450.351696 350.649153 
L 453.557548 350.546296 
L 453.878134 109.826269 
L 454.038426 87.871932 
L 454.198719 81.614199 
L 454.359011 81.343468 
L 454.519304 84.976848 
L 454.839889 103.070892 
L 455.641352 158.604752 
L 455.801645 162.172531 
L 455.961938 162.575243 
L 456.12223 160.2597 
L 456.442816 149.809797 
L 458.045742 84.368877 
L 458.366327 78.12654 
L 458.686912 405.599034 
L 458.847205 430.917891 
L 459.007498 430.759901 
L 459.488375 416.071271 
L 459.808961 409.075831 
L 460.450131 383.283063 
L 460.931009 369.011052 
L 462.053057 349.175335 
L 462.533935 342.243296 
L 462.854521 340.507801 
L 463.014813 340.669973 
L 463.335398 342.776622 
L 464.457447 353.893607 
L 464.617739 354.091047 
L 464.778032 353.688157 
L 465.098617 351.05039 
L 465.579495 342.995649 
L 466.380958 323.208653 
L 467.342714 300.558657 
L 467.823592 292.887798 
L 468.30447 288.304744 
L 468.625055 286.917317 
L 468.785348 286.685821 
L 468.94564 286.739212 
L 469.266226 287.620992 
L 469.586811 289.394419 
L 470.067689 293.346158 
L 471.029444 303.89252 
L 472.632371 321.69201 
L 473.594126 329.770194 
L 474.39559 334.764342 
L 475.197053 338.462071 
L 475.998516 341.205323 
L 476.960272 343.645212 
L 477.922027 345.47651 
L 479.044076 347.09983 
L 480.166124 348.314616 
L 481.288172 349.201519 
L 482.410221 349.819659 
L 483.692562 350.269543 
L 485.135195 350.543706 
L 487.058707 350.678723 
L 490.264559 350.649153 
L 493.630705 350.541456 
L 493.95129 109.822079 
L 494.111582 87.868081 
L 494.271875 81.610679 
L 494.432168 81.340261 
L 494.59246 84.973932 
L 494.913046 103.068485 
L 495.714509 158.603258 
L 495.874801 162.171173 
L 496.035094 162.574007 
L 496.195387 160.258575 
L 496.515972 149.808863 
L 498.118898 84.368486 
L 498.439483 78.12621 
L 498.760069 405.598723 
L 498.920361 430.917586 
L 499.080654 430.759602 
L 499.561532 416.070987 
L 499.882117 409.07556 
L 500.523287 383.282826 
L 501.004165 369.010843 
L 502.126214 349.175183 
L 502.607092 342.243163 
L 502.927677 340.507679 
L 503.087969 340.669855 
L 503.408555 342.776513 
L 504.530603 353.893524 
L 504.690896 354.090966 
L 504.851188 353.68808 
L 505.171774 351.050319 
L 505.652651 342.995586 
L 506.454115 323.208601 
L 507.41587 300.558618 
L 507.896748 292.887765 
L 508.377626 288.304715 
L 508.698211 286.917291 
L 508.858504 286.685797 
L 509.018797 286.739188 
L 509.339382 287.620971 
L 509.659967 289.3944 
L 510.140845 293.346142 
L 511.102601 303.892509 
L 512.705527 321.692005 
L 513.667283 329.770192 
L 514.468746 334.764341 
L 515.270209 338.462071 
L 516.071672 341.205324 
L 517.033428 343.645213 
L 517.995184 345.476512 
L 519.117232 347.099831 
L 520.23928 348.314617 
L 521.361329 349.20152 
L 522.483377 349.81966 
L 523.765718 350.269544 
L 525.208352 350.543706 
L 527.131863 350.678723 
L 530.337716 350.649153 
L 533.864153 350.536692 
L 534.184739 109.817952 
L 534.345031 87.864286 
L 534.505324 81.607209 
L 534.665617 81.337099 
L 534.825909 84.971056 
L 535.146494 103.06611 
L 535.947958 158.601789 
L 536.10825 162.169839 
L 536.268543 162.572795 
L 536.428835 160.257474 
L 536.749421 149.807951 
L 538.352347 84.368109 
L 538.672932 78.125892 
L 538.993517 405.598424 
L 539.15381 430.917294 
L 539.314103 430.759314 
L 539.794981 416.070715 
L 540.115566 409.075301 
L 540.756736 383.2826 
L 541.237614 369.010644 
L 542.359663 349.175038 
L 542.84054 342.243037 
L 543.161126 340.507562 
L 543.321418 340.669743 
L 543.642004 342.77641 
L 544.764052 353.893444 
L 544.924345 354.09089 
L 545.084637 353.688006 
L 545.405222 351.050251 
L 545.8861 342.995526 
L 546.687563 323.208552 
L 547.649319 300.558581 
L 548.130197 292.887732 
L 548.611075 288.304688 
L 548.93166 286.917266 
L 549.091953 286.685773 
L 549.252245 286.739166 
L 549.572831 287.620951 
L 549.893416 289.394382 
L 550.374294 293.346127 
L 551.33605 303.8925 
L 552.938976 321.692001 
L 553.900732 329.77019 
L 554.702195 334.76434 
L 555.503658 338.462071 
L 556.305121 341.205324 
L 557.266877 343.645214 
L 558.228632 345.476513 
L 559.350681 347.099832 
L 560.472729 348.314619 
L 561.594778 349.201521 
L 562.716826 349.819661 
L 563.999167 350.269545 
L 565.441801 350.543707 
L 567.365312 350.678724 
L 570.571165 350.649153 
L 574.257895 350.532009 
L 574.57848 109.813892 
L 574.738773 87.860551 
L 574.899065 81.603791 
L 575.059358 81.333983 
L 575.219651 84.968221 
L 575.540236 103.063769 
L 576.341699 158.600346 
L 576.501992 162.16853 
L 576.662284 162.571608 
L 576.822577 160.256396 
L 577.143162 149.807061 
L 578.746088 84.367746 
L 579.066674 78.125587 
L 579.387259 405.598137 
L 579.547552 430.917013 
L 579.707844 430.759039 
L 580.188722 416.070454 
L 580.509307 409.075053 
L 581.150478 383.282384 
L 581.631356 369.010453 
L 582.753404 349.1749 
L 583.234282 342.242916 
L 583.554867 340.507451 
L 583.71516 340.669636 
L 584.035745 342.776311 
L 585.157793 353.893368 
L 585.318086 354.090817 
L 585.478379 353.687936 
L 585.798964 351.050186 
L 586.279842 342.995468 
L 587.081305 323.208506 
L 588.043061 300.558546 
L 588.523939 292.887702 
L 589.004816 288.304662 
L 589.325402 286.917243 
L 589.485694 286.685751 
L 589.645987 286.739145 
L 589.966572 287.620933 
L 590.287157 289.394365 
L 590.768035 293.346113 
L 591.729791 303.89249 
L 593.332717 321.691997 
L 594.294473 329.770188 
L 595.095936 334.764339 
L 595.897399 338.462071 
L 596.698862 341.205325 
L 597.660618 343.645215 
L 598.622374 345.476514 
L 599.744422 347.099833 
L 600.866471 348.31462 
L 601.988519 349.201522 
L 603.110567 349.819662 
L 604.392908 350.269546 
L 605.835542 350.543708 
L 607.759054 350.678724 
L 610.964906 350.649153 
L 613.209003 350.576698 
L 613.529588 109.852517 
L 613.689881 87.896007 
L 613.850173 81.636159 
L 614.010466 81.363436 
L 614.170759 84.994982 
L 614.491344 103.085862 
L 615.292807 158.614172 
L 615.4531 162.181137 
L 615.613392 162.583111 
L 615.773685 160.266899 
L 616.09427 149.815842 
L 617.697196 84.371534 
L 618.017782 78.128797 
L 618.338367 405.601179 
L 618.498659 430.92 
L 618.658952 430.76198 
L 619.13983 416.073254 
L 619.460415 409.077725 
L 620.101586 383.284723 
L 620.582464 369.012519 
L 621.704512 349.176405 
L 622.18539 342.244237 
L 622.505975 340.508668 
L 622.666268 340.670806 
L 622.986853 342.777393 
L 624.108901 353.894199 
L 624.269194 354.091617 
L 624.429487 353.688706 
L 624.750072 351.050898 
L 625.23095 342.9961 
L 626.032413 323.209018 
L 626.994169 300.558936 
L 627.475046 292.88804 
L 627.955924 288.304953 
L 628.27651 286.917505 
L 628.436802 286.686 
L 628.597095 286.739381 
L 628.91768 287.621144 
L 629.238265 289.394553 
L 629.719143 293.34627 
L 630.680899 303.892596 
L 632.283825 321.692044 
L 633.245581 329.770213 
L 634.047044 334.76435 
L 634.848507 338.462073 
L 635.64997 341.20532 
L 636.611726 343.645206 
L 637.573482 345.476502 
L 638.69553 347.09982 
L 639.817579 348.314607 
L 640.939627 349.201511 
L 642.061675 349.819652 
L 643.344016 350.269537 
L 644.78665 350.543701 
L 646.710161 350.67872 
L 649.916014 350.649152 
L 653.92333 350.522895 
L 654.243915 109.805985 
L 654.404207 87.853271 
L 654.5645 81.597126 
L 654.724793 81.327903 
L 654.885085 84.962687 
L 655.205671 103.059199 
L 656.007134 158.597542 
L 656.167426 162.16599 
L 656.327719 162.569307 
L 656.488012 160.254311 
L 656.808597 149.805347 
L 658.411523 84.36706 
L 658.732108 78.125011 
L 659.052694 405.597598 
L 659.212986 430.916487 
L 659.373279 430.758523 
L 659.854157 416.069967 
L 660.174742 409.07459 
L 660.815912 383.28198 
L 661.29679 369.010099 
L 662.418839 349.174644 
L 662.899717 342.242691 
L 663.220302 340.507244 
L 663.380594 340.669437 
L 663.70118 342.776128 
L 664.823228 353.893228 
L 664.983521 354.090682 
L 665.143813 353.687806 
L 665.464399 351.050066 
L 665.945276 342.995362 
L 666.74674 323.20842 
L 667.708495 300.558481 
L 668.189373 292.887646 
L 668.670251 288.304613 
L 668.990836 286.917199 
L 669.151129 286.68571 
L 669.311422 286.739106 
L 669.632007 287.620898 
L 669.952592 289.394334 
L 670.43347 293.346088 
L 671.395226 303.892473 
L 672.998152 321.69199 
L 673.959908 329.770184 
L 674.761371 334.764338 
L 675.562834 338.462071 
L 676.364297 341.205326 
L 677.326053 343.645217 
L 678.287809 345.476517 
L 679.409857 347.099836 
L 680.531905 348.314622 
L 681.653954 349.201524 
L 682.776002 349.819663 
L 684.058343 350.269547 
L 685.500977 350.543709 
L 687.424488 350.678725 
L 690.630341 350.649154 
L 694.156778 350.536692 
L 694.477364 109.817952 
L 694.637656 87.864286 
L 694.797949 81.607209 
L 694.958242 81.337099 
L 695.118534 84.971056 
L 695.439119 103.06611 
L 696.240583 158.601789 
L 696.400875 162.169839 
L 696.561168 162.572795 
L 696.72146 160.257474 
L 697.042046 149.807951 
L 698.644972 84.368109 
L 698.965557 78.125892 
L 699.286142 405.598424 
L 699.446435 430.917294 
L 699.606728 430.759314 
L 700.087606 416.070715 
L 700.408191 409.075301 
L 701.049361 383.2826 
L 701.530239 369.010644 
L 702.652288 349.175038 
L 703.133165 342.243037 
L 703.453751 340.507562 
L 703.614043 340.669743 
L 703.934629 342.77641 
L 705.056677 353.893444 
L 705.21697 354.09089 
L 705.377262 353.688006 
L 705.697847 351.050251 
L 706.178725 342.995526 
L 706.980188 323.208552 
L 707.941944 300.558581 
L 708.422822 292.887732 
L 708.9037 288.304688 
L 709.224285 286.917266 
L 709.384578 286.685773 
L 709.54487 286.739166 
L 709.865456 287.620951 
L 710.186041 289.394382 
L 710.666919 293.346127 
L 711.628675 303.8925 
L 713.231601 321.692001 
L 714.193357 329.77019 
L 714.99482 334.76434 
L 715.796283 338.462071 
L 716.597746 341.205324 
L 717.559502 343.645214 
L 718.521257 345.476513 
L 719.643306 347.099832 
L 720.765354 348.314619 
L 721.887403 349.201521 
L 723.009451 349.819661 
L 724.291792 350.269545 
L 725.734426 350.543707 
L 727.657937 350.678724 
L 730.86379 350.649153 
L 734.069642 350.546296 
L 734.390227 109.826269 
L 734.55052 87.871932 
L 734.710813 81.614199 
L 734.871105 81.343468 
L 735.031398 84.976848 
L 735.351983 103.070892 
L 736.153446 158.604752 
L 736.313739 162.172531 
L 736.474031 162.575243 
L 736.634324 160.2597 
L 736.954909 149.809797 
L 738.557836 84.368877 
L 738.878421 78.12654 
L 739.199006 405.599034 
L 739.359299 430.917891 
L 739.519591 430.759901 
L 740.000469 416.071271 
L 740.321054 409.075831 
L 740.962225 383.283063 
L 741.443103 369.011052 
L 742.565151 349.175335 
L 743.046029 342.243297 
L 743.366614 340.507801 
L 743.526907 340.669973 
L 743.847492 342.776622 
L 744.969541 353.893607 
L 745.129833 354.091047 
L 745.290126 353.688157 
L 745.610711 351.05039 
L 746.091589 342.995649 
L 746.893052 323.208653 
L 747.854808 300.558657 
L 748.335686 292.887798 
L 748.816564 288.304744 
L 749.137149 286.917317 
L 749.297441 286.685821 
L 749.457734 286.739212 
L 749.778319 287.620992 
L 750.098905 289.394419 
L 750.579782 293.346158 
L 751.541538 303.89252 
L 753.144464 321.69201 
L 754.10622 329.770194 
L 754.907683 334.764342 
L 755.709146 338.462071 
L 756.51061 341.205323 
L 757.472365 343.645212 
L 758.434121 345.47651 
L 759.556169 347.09983 
L 760.678218 348.314616 
L 761.800266 349.201519 
L 762.922315 349.819659 
L 764.204656 350.269543 
L 765.647289 350.543706 
L 767.570801 350.678723 
L 770.776653 350.649153 
L 773.822213 350.551209 
L 774.142798 109.830519 
L 774.303091 87.875836 
L 774.463384 81.617766 
L 774.623676 81.346715 
L 774.783969 84.9798 
L 775.104554 103.073329 
L 775.906017 158.60627 
L 776.06631 162.173913 
L 776.226602 162.576502 
L 776.386895 160.260847 
L 776.70748 149.810752 
L 778.310407 84.369283 
L 778.630992 78.126883 
L 778.951577 405.599358 
L 779.11187 430.918209 
L 779.272162 430.760214 
L 779.75304 416.071568 
L 780.073625 409.076115 
L 780.714796 383.283311 
L 781.195674 369.01127 
L 782.317722 349.175494 
L 782.7986 342.243436 
L 783.119185 340.50793 
L 783.279478 340.670096 
L 783.600063 342.776736 
L 784.722112 353.893695 
L 784.882404 354.091131 
L 785.042697 353.688239 
L 785.363282 351.050465 
L 785.84416 342.995716 
L 786.645623 323.208706 
L 787.607379 300.558698 
L 788.088257 292.887834 
L 788.569135 288.304775 
L 788.88972 286.917345 
L 789.050012 286.685848 
L 789.210305 286.739236 
L 789.53089 287.621015 
L 789.851476 289.394438 
L 790.332353 293.346174 
L 791.294109 303.892531 
L 792.897035 321.692015 
L 793.858791 329.770197 
L 794.660254 334.764343 
L 795.461717 338.462071 
L 796.263181 341.205323 
L 797.224936 343.645211 
L 798.186692 345.476509 
L 799.30874 347.099828 
L 800.430789 348.314615 
L 801.552837 349.201517 
L 802.674886 349.819658 
L 803.957227 350.269542 
L 805.39986 350.543705 
L 807.323372 350.678722 
L 810.529224 350.649153 
L 813.414491 350.55619 
L 813.735077 109.834826 
L 813.895369 87.87979 
L 814.055662 81.621376 
L 814.215955 81.350001 
L 814.376247 84.982785 
L 814.696832 103.075794 
L 815.498296 158.60781 
L 815.658588 162.175318 
L 815.818881 162.577783 
L 815.979173 160.262017 
L 816.299759 149.811729 
L 817.902685 84.369703 
L 818.22327 78.127239 
L 818.543855 405.599695 
L 818.704148 430.91854 
L 818.864441 430.760539 
L 819.345319 416.071878 
L 819.665904 409.07641 
L 820.307074 383.283569 
L 820.787952 369.011499 
L 821.910001 349.17566 
L 822.390878 342.243582 
L 822.711464 340.508064 
L 822.871756 340.670225 
L 823.192342 342.776856 
L 824.31439 353.893786 
L 824.474683 354.091219 
L 824.634975 353.688324 
L 824.95556 351.050544 
L 825.436438 342.995786 
L 826.237901 323.208763 
L 827.199657 300.558742 
L 827.680535 292.887871 
L 828.161413 288.304807 
L 828.481998 286.917374 
L 828.642291 286.685875 
L 828.802583 286.739263 
L 829.123169 287.621038 
L 829.443754 289.394459 
L 829.924632 293.346191 
L 830.886388 303.892543 
L 832.489314 321.69202 
L 833.45107 329.7702 
L 834.252533 334.764344 
L 835.053996 338.462071 
L 835.855459 341.205322 
L 836.817215 343.64521 
L 837.77897 345.476508 
L 838.901019 347.099827 
L 840.023067 348.314613 
L 841.145116 349.201516 
L 842.267164 349.819656 
L 843.549505 350.269541 
L 844.992139 350.543704 
L 846.91565 350.678722 
L 850.121503 350.649152 
L 854.609696 350.509891 
L 854.930281 109.794686 
L 855.090574 87.842859 
L 855.250867 81.587582 
L 855.411159 81.319189 
L 855.571452 84.95475 
L 855.892037 103.052645 
L 856.6935 158.593549 
L 856.853793 162.162382 
L 857.014085 162.566048 
L 857.174378 160.251367 
L 857.494963 149.802941 
L 859.09789 84.366124 
L 859.418475 78.124229 
L 859.73906 405.596871 
L 859.899353 430.915778 
L 860.059645 430.75783 
L 860.540523 416.069316 
L 860.861108 409.073972 
L 861.502279 383.281443 
L 861.983157 369.009627 
L 863.105205 349.174304 
L 863.586083 342.242393 
L 863.906668 340.506971 
L 864.066961 340.669175 
L 864.387546 342.775885 
L 865.509595 353.893042 
L 865.669887 354.090503 
L 865.83018 353.687635 
L 866.150765 351.049907 
L 866.631643 342.995221 
L 867.433106 323.208307 
L 868.394862 300.558395 
L 868.87574 292.887572 
L 869.356618 288.30455 
L 869.677203 286.917142 
L 869.837495 286.685656 
L 869.997788 286.739055 
L 870.318373 287.620852 
L 870.638959 289.394294 
L 871.119836 293.346054 
L 872.081592 303.892451 
L 873.684518 321.69198 
L 874.646274 329.77018 
L 875.447737 334.764336 
L 876.2492 338.462072 
L 877.050664 341.205328 
L 878.012419 343.64522 
L 878.974175 345.47652 
L 880.096223 347.099839 
L 881.218272 348.314625 
L 882.34032 349.201527 
L 883.462369 349.819666 
L 884.74471 350.269549 
L 886.187343 350.54371 
L 888.110855 350.678725 
L 891.316707 350.649154 
L 894.362267 350.551209 
L 894.682852 109.83052 
L 894.843145 87.875836 
L 895.003438 81.617766 
L 895.16373 81.346716 
L 895.324023 84.9798 
L 895.644608 103.073329 
L 896.446071 158.60627 
L 896.606364 162.173913 
L 896.766656 162.576502 
L 896.926949 160.260847 
L 897.247534 149.810752 
L 898.850461 84.369283 
L 899.171046 78.126883 
L 899.491631 405.599358 
L 899.651924 430.918209 
L 899.812216 430.760214 
L 900.293094 416.071568 
L 900.613679 409.076115 
L 901.25485 383.283311 
L 901.735728 369.01127 
L 902.857776 349.175494 
L 903.338654 342.243436 
L 903.659239 340.50793 
L 903.819532 340.670096 
L 904.140117 342.776736 
L 905.262166 353.893695 
L 905.422458 354.091131 
L 905.582751 353.688239 
L 905.903336 351.050465 
L 906.384214 342.995716 
L 907.185677 323.208706 
L 908.147433 300.558698 
L 908.628311 292.887834 
L 909.109189 288.304775 
L 909.429774 286.917345 
L 909.590066 286.685848 
L 909.750359 286.739236 
L 910.070944 287.621015 
L 910.39153 289.394438 
L 910.872407 293.346174 
L 911.834163 303.892531 
L 913.437089 321.692015 
L 914.398845 329.770197 
L 915.200308 334.764343 
L 916.001771 338.462071 
L 916.803235 341.205323 
L 917.76499 343.645211 
L 918.726746 345.476509 
L 919.848794 347.099828 
L 920.970843 348.314615 
L 922.092891 349.201517 
L 923.21494 349.819658 
L 924.497281 350.269542 
L 925.939914 350.543705 
L 927.863426 350.678722 
L 931.069278 350.649153 
L 933.794253 350.561236 
L 933.954545 176.063379 
L 933.954545 176.063379 
" clip-path="url(#p25b0377a37)" style="fill: none; stroke: #1f77b4; stroke-width: 1.5; stroke-linecap: square"/>
   </g>
   <g id="line2d_16">
    <path d="M 173.045455 121.279991 
L 177.693941 121.279991 
L 177.854233 350.395742 
L 213.278903 350.395742 
L 213.439196 121.279991 
L 218.087682 121.279991 
L 218.247975 350.395742 
L 253.99323 350.395742 
L 254.153523 121.279991 
L 258.802009 121.279991 
L 258.962302 350.395742 
L 293.585509 350.395742 
L 293.745801 121.279991 
L 298.394287 121.279991 
L 298.55458 350.395742 
L 333.818957 350.395742 
L 333.97925 121.279991 
L 338.627736 121.279991 
L 338.788029 350.395742 
L 373.090651 350.395742 
L 373.250943 121.279991 
L 377.899429 121.279991 
L 378.059722 350.395742 
L 413.644685 350.395742 
L 413.804977 121.279991 
L 418.453463 121.279991 
L 418.613756 350.395742 
L 453.557548 350.395742 
L 453.717841 121.279991 
L 458.366327 121.279991 
L 458.52662 350.395742 
L 493.630705 350.395742 
L 493.790997 121.279991 
L 498.439483 121.279991 
L 498.599776 350.395742 
L 533.864153 350.395742 
L 534.024446 121.279991 
L 538.672932 121.279991 
L 538.833225 350.395742 
L 574.257895 350.395742 
L 574.418188 121.279991 
L 579.066674 121.279991 
L 579.226966 350.395742 
L 613.209003 350.395742 
L 613.369295 121.279991 
L 618.017782 121.279991 
L 618.178074 350.395742 
L 653.92333 350.395742 
L 654.083622 121.279991 
L 658.732108 121.279991 
L 658.892401 350.395742 
L 694.156778 350.395742 
L 694.317071 121.279991 
L 698.965557 121.279991 
L 699.12585 350.395742 
L 734.069642 350.395742 
L 734.229935 121.279991 
L 738.878421 121.279991 
L 739.038713 350.395742 
L 773.822213 350.395742 
L 773.982506 121.279991 
L 778.630992 121.279991 
L 778.791284 350.395742 
L 813.414491 350.395742 
L 813.574784 121.279991 
L 818.22327 121.279991 
L 818.383563 350.395742 
L 854.609696 350.395742 
L 854.769989 121.279991 
L 859.418475 121.279991 
L 859.578767 350.395742 
L 894.362267 350.395742 
L 894.52256 121.279991 
L 899.171046 121.279991 
L 899.331338 350.395742 
L 933.794253 350.395742 
L 933.954545 121.279991 
L 933.954545 121.279991 
" clip-path="url(#p25b0377a37)" style="fill: none; stroke: #ff7f0e; stroke-width: 1.5; stroke-linecap: square"/>
   </g>
   <g id="line2d_17">
    <path d="M 929.466352 350.395742 
" clip-path="url(#p25b0377a37)" style="fill: none; stroke: #000000; stroke-width: 1.5; stroke-linecap: square"/>
    <defs>
     <path id="mfd7877c1cb" d="M 0 1 
C 0.265203 1 0.51958 0.894634 0.707107 0.707107 
C 0.894634 0.51958 1 0.265203 1 0 
C 1 -0.265203 0.894634 -0.51958 0.707107 -0.707107 
C 0.51958 -0.894634 0.265203 -1 0 -1 
C -0.265203 -1 -0.51958 -0.894634 -0.707107 -0.707107 
C -0.894634 -0.51958 -1 -0.265203 -1 0 
C -1 0.265203 -0.894634 0.51958 -0.707107 0.707107 
C -0.51958 0.894634 -0.265203 1 0 1 
z
" style="stroke: #000000"/>
    </defs>
    <g clip-path="url(#p25b0377a37)">
     <use xlink:href="#mfd7877c1cb" x="173.045455" y="121.279991" style="stroke: #000000"/>
     <use xlink:href="#mfd7877c1cb" x="178.174819" y="350.395742" style="stroke: #000000"/>
     <use xlink:href="#mfd7877c1cb" x="183.14389" y="350.395742" style="stroke: #000000"/>
     <use xlink:href="#mfd7877c1cb" x="188.112961" y="121.279991" style="stroke: #000000"/>
     <use xlink:href="#mfd7877c1cb" x="193.082033" y="350.395742" style="stroke: #000000"/>
     <use xlink:href="#mfd7877c1cb" x="198.211397" y="350.395742" style="stroke: #000000"/>
     <use xlink:href="#mfd7877c1cb" x="203.180468" y="121.279991" style="stroke: #000000"/>
     <use xlink:href="#mfd7877c1cb" x="208.149539" y="350.395742" style="stroke: #000000"/>
     <use xlink:href="#mfd7877c1cb" x="213.118611" y="121.279991" style="stroke: #000000"/>
     <use xlink:href="#mfd7877c1cb" x="218.247975" y="350.395742" style="stroke: #000000"/>
     <use xlink:href="#mfd7877c1cb" x="223.217046" y="350.395742" style="stroke: #000000"/>
     <use xlink:href="#mfd7877c1cb" x="228.186118" y="121.279991" style="stroke: #000000"/>
     <use xlink:href="#mfd7877c1cb" x="233.155189" y="350.395742" style="stroke: #000000"/>
     <use xlink:href="#mfd7877c1cb" x="238.284553" y="350.395742" style="stroke: #000000"/>
     <use xlink:href="#mfd7877c1cb" x="243.253624" y="121.279991" style="stroke: #000000"/>
     <use xlink:href="#mfd7877c1cb" x="248.222696" y="350.395742" style="stroke: #000000"/>
     <use xlink:href="#mfd7877c1cb" x="253.191767" y="121.279991" style="stroke: #000000"/>
     <use xlink:href="#mfd7877c1cb" x="258.321131" y="350.395742" style="stroke: #000000"/>
     <use xlink:href="#mfd7877c1cb" x="263.290202" y="350.395742" style="stroke: #000000"/>
     <use xlink:href="#mfd7877c1cb" x="268.259274" y="121.279991" style="stroke: #000000"/>
     <use xlink:href="#mfd7877c1cb" x="273.228345" y="350.395742" style="stroke: #000000"/>
     <use xlink:href="#mfd7877c1cb" x="278.357709" y="350.395742" style="stroke: #000000"/>
     <use xlink:href="#mfd7877c1cb" x="283.326781" y="121.279991" style="stroke: #000000"/>
     <use xlink:href="#mfd7877c1cb" x="288.295852" y="350.395742" style="stroke: #000000"/>
     <use xlink:href="#mfd7877c1cb" x="293.264923" y="121.279991" style="stroke: #000000"/>
     <use xlink:href="#mfd7877c1cb" x="298.394287" y="350.395742" style="stroke: #000000"/>
     <use xlink:href="#mfd7877c1cb" x="303.363359" y="350.395742" style="stroke: #000000"/>
     <use xlink:href="#mfd7877c1cb" x="308.33243" y="121.279991" style="stroke: #000000"/>
     <use xlink:href="#mfd7877c1cb" x="313.301501" y="350.395742" style="stroke: #000000"/>
     <use xlink:href="#mfd7877c1cb" x="318.430865" y="350.395742" style="stroke: #000000"/>
     <use xlink:href="#mfd7877c1cb" x="323.399937" y="121.279991" style="stroke: #000000"/>
     <use xlink:href="#mfd7877c1cb" x="328.369008" y="350.395742" style="stroke: #000000"/>
     <use xlink:href="#mfd7877c1cb" x="333.33808" y="121.279991" style="stroke: #000000"/>
     <use xlink:href="#mfd7877c1cb" x="338.467444" y="350.395742" style="stroke: #000000"/>
     <use xlink:href="#mfd7877c1cb" x="343.436515" y="350.395742" style="stroke: #000000"/>
     <use xlink:href="#mfd7877c1cb" x="348.405586" y="121.279991" style="stroke: #000000"/>
     <use xlink:href="#mfd7877c1cb" x="353.374658" y="350.395742" style="stroke: #000000"/>
     <use xlink:href="#mfd7877c1cb" x="358.504022" y="350.395742" style="stroke: #000000"/>
     <use xlink:href="#mfd7877c1cb" x="363.473093" y="121.279991" style="stroke: #000000"/>
     <use xlink:href="#mfd7877c1cb" x="368.442164" y="350.395742" style="stroke: #000000"/>
     <use xlink:href="#mfd7877c1cb" x="373.411236" y="121.279991" style="stroke: #000000"/>
     <use xlink:href="#mfd7877c1cb" x="378.5406" y="350.395742" style="stroke: #000000"/>
     <use xlink:href="#mfd7877c1cb" x="383.509671" y="350.395742" style="stroke: #000000"/>
     <use xlink:href="#mfd7877c1cb" x="388.478743" y="121.279991" style="stroke: #000000"/>
     <use xlink:href="#mfd7877c1cb" x="393.447814" y="350.395742" style="stroke: #000000"/>
     <use xlink:href="#mfd7877c1cb" x="398.577178" y="350.395742" style="stroke: #000000"/>
     <use xlink:href="#mfd7877c1cb" x="403.546249" y="121.279991" style="stroke: #000000"/>
     <use xlink:href="#mfd7877c1cb" x="408.515321" y="350.395742" style="stroke: #000000"/>
     <use xlink:href="#mfd7877c1cb" x="413.484392" y="121.279991" style="stroke: #000000"/>
     <use xlink:href="#mfd7877c1cb" x="418.613756" y="350.395742" style="stroke: #000000"/>
     <use xlink:href="#mfd7877c1cb" x="423.582827" y="350.395742" style="stroke: #000000"/>
     <use xlink:href="#mfd7877c1cb" x="428.551899" y="121.279991" style="stroke: #000000"/>
     <use xlink:href="#mfd7877c1cb" x="433.52097" y="350.395742" style="stroke: #000000"/>
     <use xlink:href="#mfd7877c1cb" x="438.650334" y="350.395742" style="stroke: #000000"/>
     <use xlink:href="#mfd7877c1cb" x="443.619406" y="121.279991" style="stroke: #000000"/>
     <use xlink:href="#mfd7877c1cb" x="448.588477" y="350.395742" style="stroke: #000000"/>
     <use xlink:href="#mfd7877c1cb" x="453.557548" y="121.279991" style="stroke: #000000"/>
     <use xlink:href="#mfd7877c1cb" x="458.686912" y="350.395742" style="stroke: #000000"/>
     <use xlink:href="#mfd7877c1cb" x="463.655984" y="350.395742" style="stroke: #000000"/>
     <use xlink:href="#mfd7877c1cb" x="468.625055" y="121.279991" style="stroke: #000000"/>
     <use xlink:href="#mfd7877c1cb" x="473.594126" y="350.395742" style="stroke: #000000"/>
     <use xlink:href="#mfd7877c1cb" x="478.72349" y="350.395742" style="stroke: #000000"/>
     <use xlink:href="#mfd7877c1cb" x="483.692562" y="121.279991" style="stroke: #000000"/>
     <use xlink:href="#mfd7877c1cb" x="488.661633" y="350.395742" style="stroke: #000000"/>
     <use xlink:href="#mfd7877c1cb" x="493.630705" y="121.279991" style="stroke: #000000"/>
     <use xlink:href="#mfd7877c1cb" x="498.760069" y="350.395742" style="stroke: #000000"/>
     <use xlink:href="#mfd7877c1cb" x="503.72914" y="350.395742" style="stroke: #000000"/>
     <use xlink:href="#mfd7877c1cb" x="508.698211" y="121.279991" style="stroke: #000000"/>
     <use xlink:href="#mfd7877c1cb" x="513.667283" y="350.395742" style="stroke: #000000"/>
     <use xlink:href="#mfd7877c1cb" x="518.796647" y="350.395742" style="stroke: #000000"/>
     <use xlink:href="#mfd7877c1cb" x="523.765718" y="121.279991" style="stroke: #000000"/>
     <use xlink:href="#mfd7877c1cb" x="528.734789" y="350.395742" style="stroke: #000000"/>
     <use xlink:href="#mfd7877c1cb" x="533.703861" y="121.279991" style="stroke: #000000"/>
     <use xlink:href="#mfd7877c1cb" x="538.833225" y="350.395742" style="stroke: #000000"/>
     <use xlink:href="#mfd7877c1cb" x="543.802296" y="350.395742" style="stroke: #000000"/>
     <use xlink:href="#mfd7877c1cb" x="548.771368" y="121.279991" style="stroke: #000000"/>
     <use xlink:href="#mfd7877c1cb" x="553.740439" y="350.395742" style="stroke: #000000"/>
     <use xlink:href="#mfd7877c1cb" x="558.869803" y="350.395742" style="stroke: #000000"/>
     <use xlink:href="#mfd7877c1cb" x="563.838874" y="121.279991" style="stroke: #000000"/>
     <use xlink:href="#mfd7877c1cb" x="568.807946" y="350.395742" style="stroke: #000000"/>
     <use xlink:href="#mfd7877c1cb" x="573.777017" y="121.279991" style="stroke: #000000"/>
     <use xlink:href="#mfd7877c1cb" x="578.906381" y="350.395742" style="stroke: #000000"/>
     <use xlink:href="#mfd7877c1cb" x="583.875452" y="350.395742" style="stroke: #000000"/>
     <use xlink:href="#mfd7877c1cb" x="588.844524" y="121.279991" style="stroke: #000000"/>
     <use xlink:href="#mfd7877c1cb" x="593.813595" y="350.395742" style="stroke: #000000"/>
     <use xlink:href="#mfd7877c1cb" x="598.942959" y="350.395742" style="stroke: #000000"/>
     <use xlink:href="#mfd7877c1cb" x="603.912031" y="121.279991" style="stroke: #000000"/>
     <use xlink:href="#mfd7877c1cb" x="608.881102" y="350.395742" style="stroke: #000000"/>
     <use xlink:href="#mfd7877c1cb" x="613.850173" y="121.279991" style="stroke: #000000"/>
     <use xlink:href="#mfd7877c1cb" x="618.979537" y="350.395742" style="stroke: #000000"/>
     <use xlink:href="#mfd7877c1cb" x="623.948609" y="350.395742" style="stroke: #000000"/>
     <use xlink:href="#mfd7877c1cb" x="628.91768" y="121.279991" style="stroke: #000000"/>
     <use xlink:href="#mfd7877c1cb" x="633.886751" y="350.395742" style="stroke: #000000"/>
     <use xlink:href="#mfd7877c1cb" x="639.016115" y="350.395742" style="stroke: #000000"/>
     <use xlink:href="#mfd7877c1cb" x="643.985187" y="121.279991" style="stroke: #000000"/>
     <use xlink:href="#mfd7877c1cb" x="648.954258" y="350.395742" style="stroke: #000000"/>
     <use xlink:href="#mfd7877c1cb" x="653.92333" y="121.279991" style="stroke: #000000"/>
     <use xlink:href="#mfd7877c1cb" x="659.052694" y="350.395742" style="stroke: #000000"/>
     <use xlink:href="#mfd7877c1cb" x="664.021765" y="350.395742" style="stroke: #000000"/>
     <use xlink:href="#mfd7877c1cb" x="668.990836" y="121.279991" style="stroke: #000000"/>
     <use xlink:href="#mfd7877c1cb" x="673.959908" y="350.395742" style="stroke: #000000"/>
     <use xlink:href="#mfd7877c1cb" x="679.089272" y="350.395742" style="stroke: #000000"/>
     <use xlink:href="#mfd7877c1cb" x="684.058343" y="121.279991" style="stroke: #000000"/>
     <use xlink:href="#mfd7877c1cb" x="689.027414" y="350.395742" style="stroke: #000000"/>
     <use xlink:href="#mfd7877c1cb" x="693.996486" y="121.279991" style="stroke: #000000"/>
     <use xlink:href="#mfd7877c1cb" x="699.12585" y="350.395742" style="stroke: #000000"/>
     <use xlink:href="#mfd7877c1cb" x="704.094921" y="350.395742" style="stroke: #000000"/>
     <use xlink:href="#mfd7877c1cb" x="709.063993" y="121.279991" style="stroke: #000000"/>
     <use xlink:href="#mfd7877c1cb" x="714.033064" y="350.395742" style="stroke: #000000"/>
     <use xlink:href="#mfd7877c1cb" x="719.162428" y="350.395742" style="stroke: #000000"/>
     <use xlink:href="#mfd7877c1cb" x="724.131499" y="121.279991" style="stroke: #000000"/>
     <use xlink:href="#mfd7877c1cb" x="729.100571" y="350.395742" style="stroke: #000000"/>
     <use xlink:href="#mfd7877c1cb" x="734.069642" y="121.279991" style="stroke: #000000"/>
     <use xlink:href="#mfd7877c1cb" x="739.199006" y="350.395742" style="stroke: #000000"/>
     <use xlink:href="#mfd7877c1cb" x="744.168077" y="350.395742" style="stroke: #000000"/>
     <use xlink:href="#mfd7877c1cb" x="749.137149" y="121.279991" style="stroke: #000000"/>
     <use xlink:href="#mfd7877c1cb" x="754.10622" y="350.395742" style="stroke: #000000"/>
     <use xlink:href="#mfd7877c1cb" x="759.235584" y="350.395742" style="stroke: #000000"/>
     <use xlink:href="#mfd7877c1cb" x="764.204656" y="121.279991" style="stroke: #000000"/>
     <use xlink:href="#mfd7877c1cb" x="769.173727" y="350.395742" style="stroke: #000000"/>
     <use xlink:href="#mfd7877c1cb" x="774.142798" y="121.279991" style="stroke: #000000"/>
     <use xlink:href="#mfd7877c1cb" x="779.272162" y="350.395742" style="stroke: #000000"/>
     <use xlink:href="#mfd7877c1cb" x="784.241234" y="350.395742" style="stroke: #000000"/>
     <use xlink:href="#mfd7877c1cb" x="789.210305" y="121.279991" style="stroke: #000000"/>
     <use xlink:href="#mfd7877c1cb" x="794.179376" y="350.395742" style="stroke: #000000"/>
     <use xlink:href="#mfd7877c1cb" x="799.30874" y="350.395742" style="stroke: #000000"/>
     <use xlink:href="#mfd7877c1cb" x="804.277812" y="121.279991" style="stroke: #000000"/>
     <use xlink:href="#mfd7877c1cb" x="809.246883" y="350.395742" style="stroke: #000000"/>
     <use xlink:href="#mfd7877c1cb" x="814.215955" y="121.279991" style="stroke: #000000"/>
     <use xlink:href="#mfd7877c1cb" x="819.345319" y="350.395742" style="stroke: #000000"/>
     <use xlink:href="#mfd7877c1cb" x="824.31439" y="350.395742" style="stroke: #000000"/>
     <use xlink:href="#mfd7877c1cb" x="829.283461" y="121.279991" style="stroke: #000000"/>
     <use xlink:href="#mfd7877c1cb" x="834.252533" y="350.395742" style="stroke: #000000"/>
     <use xlink:href="#mfd7877c1cb" x="839.381897" y="350.395742" style="stroke: #000000"/>
     <use xlink:href="#mfd7877c1cb" x="844.350968" y="121.279991" style="stroke: #000000"/>
     <use xlink:href="#mfd7877c1cb" x="849.320039" y="350.395742" style="stroke: #000000"/>
     <use xlink:href="#mfd7877c1cb" x="854.289111" y="121.279991" style="stroke: #000000"/>
     <use xlink:href="#mfd7877c1cb" x="859.418475" y="350.395742" style="stroke: #000000"/>
     <use xlink:href="#mfd7877c1cb" x="864.387546" y="350.395742" style="stroke: #000000"/>
     <use xlink:href="#mfd7877c1cb" x="869.356618" y="121.279991" style="stroke: #000000"/>
     <use xlink:href="#mfd7877c1cb" x="874.325689" y="350.395742" style="stroke: #000000"/>
     <use xlink:href="#mfd7877c1cb" x="879.455053" y="350.395742" style="stroke: #000000"/>
     <use xlink:href="#mfd7877c1cb" x="884.424124" y="121.279991" style="stroke: #000000"/>
     <use xlink:href="#mfd7877c1cb" x="889.393196" y="350.395742" style="stroke: #000000"/>
     <use xlink:href="#mfd7877c1cb" x="894.362267" y="121.279991" style="stroke: #000000"/>
     <use xlink:href="#mfd7877c1cb" x="899.491631" y="350.395742" style="stroke: #000000"/>
     <use xlink:href="#mfd7877c1cb" x="904.460702" y="350.395742" style="stroke: #000000"/>
     <use xlink:href="#mfd7877c1cb" x="909.429774" y="121.279991" style="stroke: #000000"/>
     <use xlink:href="#mfd7877c1cb" x="914.398845" y="350.395742" style="stroke: #000000"/>
     <use xlink:href="#mfd7877c1cb" x="919.528209" y="350.395742" style="stroke: #000000"/>
     <use xlink:href="#mfd7877c1cb" x="924.497281" y="121.279991" style="stroke: #000000"/>
     <use xlink:href="#mfd7877c1cb" x="929.466352" y="350.395742" style="stroke: #000000"/>
    </g>
   </g>
   <g id="patch_3">
    <path d="M 135 448.56 
L 135 60.48 
" style="fill: none; stroke: #000000; stroke-width: 0.8; stroke-linejoin: miter; stroke-linecap: square"/>
   </g>
   <g id="patch_4">
    <path d="M 972 448.56 
L 972 60.48 
" style="fill: none; stroke: #000000; stroke-width: 0.8; stroke-linejoin: miter; stroke-linecap: square"/>
   </g>
   <g id="patch_5">
    <path d="M 135 448.56 
L 972 448.56 
" style="fill: none; stroke: #000000; stroke-width: 0.8; stroke-linejoin: miter; stroke-linecap: square"/>
   </g>
   <g id="patch_6">
    <path d="M 135 60.48 
L 972 60.48 
" style="fill: none; stroke: #000000; stroke-width: 0.8; stroke-linejoin: miter; stroke-linecap: square"/>
   </g>
   <g id="legend_1">
    <g id="patch_7">
     <path d="M 895.915625 278.315313 
L 965 278.315313 
Q 967 278.315313 967 276.315313 
L 967 232.724688 
Q 967 230.724688 965 230.724688 
L 895.915625 230.724688 
Q 893.915625 230.724688 893.915625 232.724688 
L 893.915625 276.315313 
Q 893.915625 278.315313 895.915625 278.315313 
z
" style="fill: #ffffff; opacity: 0.8; stroke: #cccccc; stroke-linejoin: miter"/>
    </g>
    <g id="line2d_18">
     <path d="M 897.915625 238.823125 
L 907.915625 238.823125 
L 917.915625 238.823125 
" style="fill: none; stroke: #1f77b4; stroke-width: 1.5; stroke-linecap: square"/>
    </g>
    <g id="text_16">
     <!-- nw_0 -->
     <g transform="translate(925.915625 242.323125) scale(0.1 -0.1)">
      <defs>
       <path id="DejaVuSans-6e" d="M 3513 2113 
L 3513 0 
L 2938 0 
L 2938 2094 
Q 2938 2591 2744 2837 
Q 2550 3084 2163 3084 
Q 1697 3084 1428 2787 
Q 1159 2491 1159 1978 
L 1159 0 
L 581 0 
L 581 3500 
L 1159 3500 
L 1159 2956 
Q 1366 3272 1645 3428 
Q 1925 3584 2291 3584 
Q 2894 3584 3203 3211 
Q 3513 2838 3513 2113 
z
" transform="scale(0.015625)"/>
       <path id="DejaVuSans-77" d="M 269 3500 
L 844 3500 
L 1563 769 
L 2278 3500 
L 2956 3500 
L 3675 769 
L 4391 3500 
L 4966 3500 
L 4050 0 
L 3372 0 
L 2619 2869 
L 1863 0 
L 1184 0 
L 269 3500 
z
" transform="scale(0.015625)"/>
       <path id="DejaVuSans-5f" d="M 3263 -1063 
L 3263 -1509 
L -63 -1509 
L -63 -1063 
L 3263 -1063 
z
" transform="scale(0.015625)"/>
      </defs>
      <use xlink:href="#DejaVuSans-6e"/>
      <use xlink:href="#DejaVuSans-77" x="63.378906"/>
      <use xlink:href="#DejaVuSans-5f" x="145.166016"/>
      <use xlink:href="#DejaVuSans-30" x="195.166016"/>
     </g>
    </g>
    <g id="line2d_19">
     <path d="M 897.915625 253.779375 
L 907.915625 253.779375 
L 917.915625 253.779375 
" style="fill: none; stroke: #ff7f0e; stroke-width: 1.5; stroke-linecap: square"/>
    </g>
    <g id="text_17">
     <!-- input_0 -->
     <g transform="translate(925.915625 257.279375) scale(0.1 -0.1)">
      <defs>
       <path id="DejaVuSans-69" d="M 603 3500 
L 1178 3500 
L 1178 0 
L 603 0 
L 603 3500 
z
M 603 4863 
L 1178 4863 
L 1178 4134 
L 603 4134 
L 603 4863 
z
" transform="scale(0.015625)"/>
       <path id="DejaVuSans-70" d="M 1159 525 
L 1159 -1331 
L 581 -1331 
L 581 3500 
L 1159 3500 
L 1159 2969 
Q 1341 3281 1617 3432 
Q 1894 3584 2278 3584 
Q 2916 3584 3314 3078 
Q 3713 2572 3713 1747 
Q 3713 922 3314 415 
Q 2916 -91 2278 -91 
Q 1894 -91 1617 61 
Q 1341 213 1159 525 
z
M 3116 1747 
Q 3116 2381 2855 2742 
Q 2594 3103 2138 3103 
Q 1681 3103 1420 2742 
Q 1159 2381 1159 1747 
Q 1159 1113 1420 752 
Q 1681 391 2138 391 
Q 2594 391 2855 752 
Q 3116 1113 3116 1747 
z
" transform="scale(0.015625)"/>
       <path id="DejaVuSans-75" d="M 544 1381 
L 544 3500 
L 1119 3500 
L 1119 1403 
Q 1119 906 1312 657 
Q 1506 409 1894 409 
Q 2359 409 2629 706 
Q 2900 1003 2900 1516 
L 2900 3500 
L 3475 3500 
L 3475 0 
L 2900 0 
L 2900 538 
Q 2691 219 2414 64 
Q 2138 -91 1772 -91 
Q 1169 -91 856 284 
Q 544 659 544 1381 
z
M 1991 3584 
L 1991 3584 
z
" transform="scale(0.015625)"/>
      </defs>
      <use xlink:href="#DejaVuSans-69"/>
      <use xlink:href="#DejaVuSans-6e" x="27.783203"/>
      <use xlink:href="#DejaVuSans-70" x="91.162109"/>
      <use xlink:href="#DejaVuSans-75" x="154.638672"/>
      <use xlink:href="#DejaVuSans-74" x="218.017578"/>
      <use xlink:href="#DejaVuSans-5f" x="257.226562"/>
      <use xlink:href="#DejaVuSans-30" x="307.226562"/>
     </g>
    </g>
    <g id="line2d_20">
     <path d="M 897.915625 268.735625 
L 907.915625 268.735625 
L 917.915625 268.735625 
" style="fill: none; stroke: #000000; stroke-width: 1.5; stroke-linecap: square"/>
     <g>
      <use xlink:href="#mfd7877c1cb" x="907.915625" y="268.735625" style="stroke: #000000"/>
     </g>
    </g>
    <g id="text_18">
     <!-- target -->
     <g transform="translate(925.915625 272.235625) scale(0.1 -0.1)">
      <defs>
       <path id="DejaVuSans-61" d="M 2194 1759 
Q 1497 1759 1228 1600 
Q 959 1441 959 1056 
Q 959 750 1161 570 
Q 1363 391 1709 391 
Q 2188 391 2477 730 
Q 2766 1069 2766 1631 
L 2766 1759 
L 2194 1759 
z
M 3341 1997 
L 3341 0 
L 2766 0 
L 2766 531 
Q 2569 213 2275 61 
Q 1981 -91 1556 -91 
Q 1019 -91 701 211 
Q 384 513 384 1019 
Q 384 1609 779 1909 
Q 1175 2209 1959 2209 
L 2766 2209 
L 2766 2266 
Q 2766 2663 2505 2880 
Q 2244 3097 1772 3097 
Q 1472 3097 1187 3025 
Q 903 2953 641 2809 
L 641 3341 
Q 956 3463 1253 3523 
Q 1550 3584 1831 3584 
Q 2591 3584 2966 3190 
Q 3341 2797 3341 1997 
z
" transform="scale(0.015625)"/>
       <path id="DejaVuSans-72" d="M 2631 2963 
Q 2534 3019 2420 3045 
Q 2306 3072 2169 3072 
Q 1681 3072 1420 2755 
Q 1159 2438 1159 1844 
L 1159 0 
L 581 0 
L 581 3500 
L 1159 3500 
L 1159 2956 
Q 1341 3275 1631 3429 
Q 1922 3584 2338 3584 
Q 2397 3584 2469 3576 
Q 2541 3569 2628 3553 
L 2631 2963 
z
" transform="scale(0.015625)"/>
       <path id="DejaVuSans-67" d="M 2906 1791 
Q 2906 2416 2648 2759 
Q 2391 3103 1925 3103 
Q 1463 3103 1205 2759 
Q 947 2416 947 1791 
Q 947 1169 1205 825 
Q 1463 481 1925 481 
Q 2391 481 2648 825 
Q 2906 1169 2906 1791 
z
M 3481 434 
Q 3481 -459 3084 -895 
Q 2688 -1331 1869 -1331 
Q 1566 -1331 1297 -1286 
Q 1028 -1241 775 -1147 
L 775 -588 
Q 1028 -725 1275 -790 
Q 1522 -856 1778 -856 
Q 2344 -856 2625 -561 
Q 2906 -266 2906 331 
L 2906 616 
Q 2728 306 2450 153 
Q 2172 0 1784 0 
Q 1141 0 747 490 
Q 353 981 353 1791 
Q 353 2603 747 3093 
Q 1141 3584 1784 3584 
Q 2172 3584 2450 3431 
Q 2728 3278 2906 2969 
L 2906 3500 
L 3481 3500 
L 3481 434 
z
" transform="scale(0.015625)"/>
       <path id="DejaVuSans-65" d="M 3597 1894 
L 3597 1613 
L 953 1613 
Q 991 1019 1311 708 
Q 1631 397 2203 397 
Q 2534 397 2845 478 
Q 3156 559 3463 722 
L 3463 178 
Q 3153 47 2828 -22 
Q 2503 -91 2169 -91 
Q 1331 -91 842 396 
Q 353 884 353 1716 
Q 353 2575 817 3079 
Q 1281 3584 2069 3584 
Q 2775 3584 3186 3129 
Q 3597 2675 3597 1894 
z
M 3022 2063 
Q 3016 2534 2758 2815 
Q 2500 3097 2075 3097 
Q 1594 3097 1305 2825 
Q 1016 2553 972 2059 
L 3022 2063 
z
" transform="scale(0.015625)"/>
      </defs>
      <use xlink:href="#DejaVuSans-74"/>
      <use xlink:href="#DejaVuSans-61" x="39.208984"/>
      <use xlink:href="#DejaVuSans-72" x="100.488281"/>
      <use xlink:href="#DejaVuSans-67" x="139.851562"/>
      <use xlink:href="#DejaVuSans-65" x="203.328125"/>
      <use xlink:href="#DejaVuSans-74" x="264.851562"/>
     </g>
    </g>
   </g>
  </g>
 </g>
 <defs>
  <clipPath id="p25b0377a37">
   <rect x="135" y="60.48" width="837" height="388.08"/>
  </clipPath>
 </defs>
</svg>
