<?xml version="1.0" encoding="utf-8" standalone="no"?>
<!DOCTYPE svg PUBLIC "-//W3C//DTD SVG 1.1//EN"
  "http://www.w3.org/Graphics/SVG/1.1/DTD/svg11.dtd">
<svg xmlns:xlink="http://www.w3.org/1999/xlink" width="1080pt" height="504pt" viewBox="0 0 1080 504" xmlns="http://www.w3.org/2000/svg" version="1.1">
 <metadata>
  <rdf:RDF xmlns:dc="http://purl.org/dc/elements/1.1/" xmlns:cc="http://creativecommons.org/ns#" xmlns:rdf="http://www.w3.org/1999/02/22-rdf-syntax-ns#">
   <cc:Work>
    <dc:type rdf:resource="http://purl.org/dc/dcmitype/StillImage"/>
    <dc:date>2024-05-09T11:01:14.196502</dc:date>
    <dc:format>image/svg+xml</dc:format>
    <dc:creator>
     <cc:Agent>
      <dc:title>Matplotlib v3.7.1, https://matplotlib.org/</dc:title>
     </cc:Agent>
    </dc:creator>
   </cc:Work>
  </rdf:RDF>
 </metadata>
 <defs>
  <style type="text/css">*{stroke-linejoin: round; stroke-linecap: butt}</style>
 </defs>
 <g id="figure_1">
  <g id="patch_1">
   <path d="M 0 504 
L 1080 504 
L 1080 0 
L 0 0 
z
" style="fill: #ffffff"/>
  </g>
  <g id="axes_1">
   <g id="patch_2">
    <path d="M 135 448.56 
L 972 448.56 
L 972 60.48 
L 135 60.48 
z
" style="fill: #ffffff"/>
   </g>
   <g id="matplotlib.axis_1">
    <g id="xtick_1">
     <g id="line2d_1">
      <defs>
       <path id="m576887d773" d="M 0 0 
L 0 3.5 
" style="stroke: #000000; stroke-width: 0.8"/>
      </defs>
      <g>
       <use xlink:href="#m576887d773" x="173.045455" y="448.56" style="stroke: #000000; stroke-width: 0.8"/>
      </g>
     </g>
     <g id="text_1">
      <!-- 0 -->
      <g transform="translate(169.864205 463.158437) scale(0.1 -0.1)">
       <defs>
        <path id="DejaVuSans-30" d="M 2034 4250 
Q 1547 4250 1301 3770 
Q 1056 3291 1056 2328 
Q 1056 1369 1301 889 
Q 1547 409 2034 409 
Q 2525 409 2770 889 
Q 3016 1369 3016 2328 
Q 3016 3291 2770 3770 
Q 2525 4250 2034 4250 
z
M 2034 4750 
Q 2819 4750 3233 4129 
Q 3647 3509 3647 2328 
Q 3647 1150 3233 529 
Q 2819 -91 2034 -91 
Q 1250 -91 836 529 
Q 422 1150 422 2328 
Q 422 3509 836 4129 
Q 1250 4750 2034 4750 
z
" transform="scale(0.015625)"/>
       </defs>
       <use xlink:href="#DejaVuSans-30"/>
      </g>
     </g>
    </g>
    <g id="xtick_2">
     <g id="line2d_2">
      <g>
       <use xlink:href="#m576887d773" x="333.33808" y="448.56" style="stroke: #000000; stroke-width: 0.8"/>
      </g>
     </g>
     <g id="text_2">
      <!-- 1000 -->
      <g transform="translate(320.61308 463.158437) scale(0.1 -0.1)">
       <defs>
        <path id="DejaVuSans-31" d="M 794 531 
L 1825 531 
L 1825 4091 
L 703 3866 
L 703 4441 
L 1819 4666 
L 2450 4666 
L 2450 531 
L 3481 531 
L 3481 0 
L 794 0 
L 794 531 
z
" transform="scale(0.015625)"/>
       </defs>
       <use xlink:href="#DejaVuSans-31"/>
       <use xlink:href="#DejaVuSans-30" x="63.623047"/>
       <use xlink:href="#DejaVuSans-30" x="127.246094"/>
       <use xlink:href="#DejaVuSans-30" x="190.869141"/>
      </g>
     </g>
    </g>
    <g id="xtick_3">
     <g id="line2d_3">
      <g>
       <use xlink:href="#m576887d773" x="493.630705" y="448.56" style="stroke: #000000; stroke-width: 0.8"/>
      </g>
     </g>
     <g id="text_3">
      <!-- 2000 -->
      <g transform="translate(480.905705 463.158437) scale(0.1 -0.1)">
       <defs>
        <path id="DejaVuSans-32" d="M 1228 531 
L 3431 531 
L 3431 0 
L 469 0 
L 469 531 
Q 828 903 1448 1529 
Q 2069 2156 2228 2338 
Q 2531 2678 2651 2914 
Q 2772 3150 2772 3378 
Q 2772 3750 2511 3984 
Q 2250 4219 1831 4219 
Q 1534 4219 1204 4116 
Q 875 4013 500 3803 
L 500 4441 
Q 881 4594 1212 4672 
Q 1544 4750 1819 4750 
Q 2544 4750 2975 4387 
Q 3406 4025 3406 3419 
Q 3406 3131 3298 2873 
Q 3191 2616 2906 2266 
Q 2828 2175 2409 1742 
Q 1991 1309 1228 531 
z
" transform="scale(0.015625)"/>
       </defs>
       <use xlink:href="#DejaVuSans-32"/>
       <use xlink:href="#DejaVuSans-30" x="63.623047"/>
       <use xlink:href="#DejaVuSans-30" x="127.246094"/>
       <use xlink:href="#DejaVuSans-30" x="190.869141"/>
      </g>
     </g>
    </g>
    <g id="xtick_4">
     <g id="line2d_4">
      <g>
       <use xlink:href="#m576887d773" x="653.92333" y="448.56" style="stroke: #000000; stroke-width: 0.8"/>
      </g>
     </g>
     <g id="text_4">
      <!-- 3000 -->
      <g transform="translate(641.19833 463.158437) scale(0.1 -0.1)">
       <defs>
        <path id="DejaVuSans-33" d="M 2597 2516 
Q 3050 2419 3304 2112 
Q 3559 1806 3559 1356 
Q 3559 666 3084 287 
Q 2609 -91 1734 -91 
Q 1441 -91 1130 -33 
Q 819 25 488 141 
L 488 750 
Q 750 597 1062 519 
Q 1375 441 1716 441 
Q 2309 441 2620 675 
Q 2931 909 2931 1356 
Q 2931 1769 2642 2001 
Q 2353 2234 1838 2234 
L 1294 2234 
L 1294 2753 
L 1863 2753 
Q 2328 2753 2575 2939 
Q 2822 3125 2822 3475 
Q 2822 3834 2567 4026 
Q 2313 4219 1838 4219 
Q 1578 4219 1281 4162 
Q 984 4106 628 3988 
L 628 4550 
Q 988 4650 1302 4700 
Q 1616 4750 1894 4750 
Q 2613 4750 3031 4423 
Q 3450 4097 3450 3541 
Q 3450 3153 3228 2886 
Q 3006 2619 2597 2516 
z
" transform="scale(0.015625)"/>
       </defs>
       <use xlink:href="#DejaVuSans-33"/>
       <use xlink:href="#DejaVuSans-30" x="63.623047"/>
       <use xlink:href="#DejaVuSans-30" x="127.246094"/>
       <use xlink:href="#DejaVuSans-30" x="190.869141"/>
      </g>
     </g>
    </g>
    <g id="xtick_5">
     <g id="line2d_5">
      <g>
       <use xlink:href="#m576887d773" x="814.215955" y="448.56" style="stroke: #000000; stroke-width: 0.8"/>
      </g>
     </g>
     <g id="text_5">
      <!-- 4000 -->
      <g transform="translate(801.490955 463.158437) scale(0.1 -0.1)">
       <defs>
        <path id="DejaVuSans-34" d="M 2419 4116 
L 825 1625 
L 2419 1625 
L 2419 4116 
z
M 2253 4666 
L 3047 4666 
L 3047 1625 
L 3713 1625 
L 3713 1100 
L 3047 1100 
L 3047 0 
L 2419 0 
L 2419 1100 
L 313 1100 
L 313 1709 
L 2253 4666 
z
" transform="scale(0.015625)"/>
       </defs>
       <use xlink:href="#DejaVuSans-34"/>
       <use xlink:href="#DejaVuSans-30" x="63.623047"/>
       <use xlink:href="#DejaVuSans-30" x="127.246094"/>
       <use xlink:href="#DejaVuSans-30" x="190.869141"/>
      </g>
     </g>
    </g>
    <g id="text_6">
     <!-- t -->
     <g transform="translate(551.539844 476.836563) scale(0.1 -0.1)">
      <defs>
       <path id="DejaVuSans-74" d="M 1172 4494 
L 1172 3500 
L 2356 3500 
L 2356 3053 
L 1172 3053 
L 1172 1153 
Q 1172 725 1289 603 
Q 1406 481 1766 481 
L 2356 481 
L 2356 0 
L 1766 0 
Q 1100 0 847 248 
Q 594 497 594 1153 
L 594 3053 
L 172 3053 
L 172 3500 
L 594 3500 
L 594 4494 
L 1172 4494 
z
" transform="scale(0.015625)"/>
      </defs>
      <use xlink:href="#DejaVuSans-74"/>
     </g>
    </g>
   </g>
   <g id="matplotlib.axis_2">
    <g id="ytick_1">
     <g id="line2d_6">
      <defs>
       <path id="ma3de22fee0" d="M 0 0 
L -3.5 0 
" style="stroke: #000000; stroke-width: 0.8"/>
      </defs>
      <g>
       <use xlink:href="#ma3de22fee0" x="135" y="420.154036" style="stroke: #000000; stroke-width: 0.8"/>
      </g>
     </g>
     <g id="text_7">
      <!-- −1 -->
      <g transform="translate(113.257812 423.953255) scale(0.1 -0.1)">
       <defs>
        <path id="DejaVuSans-2212" d="M 678 2272 
L 4684 2272 
L 4684 1741 
L 678 1741 
L 678 2272 
z
" transform="scale(0.015625)"/>
       </defs>
       <use xlink:href="#DejaVuSans-2212"/>
       <use xlink:href="#DejaVuSans-31" x="83.789062"/>
      </g>
     </g>
    </g>
    <g id="ytick_2">
     <g id="line2d_7">
      <g>
       <use xlink:href="#ma3de22fee0" x="135" y="343.967207" style="stroke: #000000; stroke-width: 0.8"/>
      </g>
     </g>
     <g id="text_8">
      <!-- 0 -->
      <g transform="translate(121.6375 347.766426) scale(0.1 -0.1)">
       <use xlink:href="#DejaVuSans-30"/>
      </g>
     </g>
    </g>
    <g id="ytick_3">
     <g id="line2d_8">
      <g>
       <use xlink:href="#ma3de22fee0" x="135" y="267.780378" style="stroke: #000000; stroke-width: 0.8"/>
      </g>
     </g>
     <g id="text_9">
      <!-- 1 -->
      <g transform="translate(121.6375 271.579596) scale(0.1 -0.1)">
       <use xlink:href="#DejaVuSans-31"/>
      </g>
     </g>
    </g>
    <g id="ytick_4">
     <g id="line2d_9">
      <g>
       <use xlink:href="#ma3de22fee0" x="135" y="191.593548" style="stroke: #000000; stroke-width: 0.8"/>
      </g>
     </g>
     <g id="text_10">
      <!-- 2 -->
      <g transform="translate(121.6375 195.392767) scale(0.1 -0.1)">
       <use xlink:href="#DejaVuSans-32"/>
      </g>
     </g>
    </g>
    <g id="ytick_5">
     <g id="line2d_10">
      <g>
       <use xlink:href="#ma3de22fee0" x="135" y="115.406719" style="stroke: #000000; stroke-width: 0.8"/>
      </g>
     </g>
     <g id="text_11">
      <!-- 3 -->
      <g transform="translate(121.6375 119.205938) scale(0.1 -0.1)">
       <use xlink:href="#DejaVuSans-33"/>
      </g>
     </g>
    </g>
   </g>
   <g id="line2d_11">
    <path d="M 173.045455 296.898599 
L 173.686625 135.394482 
L 174.00721 95.538326 
L 174.327796 79.788525 
L 174.488088 78.12 
L 174.648381 79.300778 
L 174.968966 87.66426 
L 175.449844 110.347486 
L 176.091014 153.543971 
L 176.892478 208.952405 
L 177.213063 221.849453 
L 177.373355 224.474567 
L 177.533648 223.939309 
L 177.693941 219.808613 
L 177.854233 224.594358 
L 178.335111 167.973316 
L 178.495404 167.939963 
L 178.655696 178.727919 
L 179.136574 246.12001 
L 179.938037 359.396565 
L 180.418915 402.18722 
L 180.899793 425.556159 
L 181.220378 430.92 
L 181.380671 430.743436 
L 181.540964 428.805785 
L 181.861549 420.230741 
L 182.342427 398.300599 
L 184.586524 278.199793 
L 185.227694 259.720548 
L 185.708572 250.853016 
L 186.18945 245.43679 
L 186.510035 243.389754 
L 186.83062 242.378272 
L 186.990913 242.210894 
L 187.151206 242.245344 
L 187.471791 242.856095 
L 187.792376 244.093894 
L 188.273254 246.905801 
L 189.074717 253.43069 
L 190.357058 266.416242 
L 192.440862 289.96654 
L 196.127593 333.339299 
L 196.768763 337.630048 
L 197.249641 339.420979 
L 197.570226 339.865974 
L 197.730519 339.85644 
L 198.051104 339.370728 
L 198.371689 338.271037 
L 198.852567 335.526551 
L 199.493738 330.065876 
L 200.455493 319.139557 
L 202.379005 296.201953 
L 203.020175 290.740768 
L 203.501053 287.887822 
L 203.981931 286.224228 
L 204.302516 285.80025 
L 204.462809 285.794157 
L 204.783394 286.187182 
L 205.10398 287.103905 
L 205.584857 289.396206 
L 206.226028 293.950001 
L 207.027491 301.468885 
L 210.393636 335.625021 
L 211.195099 340.507494 
L 211.83627 342.972476 
L 212.317148 343.97637 
L 212.637733 344.257885 
L 212.958318 344.244983 
L 213.278903 343.955169 
L 213.920074 262.098465 
L 214.240659 244.829226 
L 214.400952 242.966097 
L 214.561244 244.532021 
L 214.88183 253.977762 
L 215.843585 286.762943 
L 216.324463 294.718059 
L 216.484756 295.794831 
L 216.645049 295.952372 
L 216.805341 295.056992 
L 217.125926 289.406406 
L 217.446512 277.193014 
L 217.767097 256.530141 
L 218.087682 225.512126 
L 218.247975 271.038963 
L 218.408267 277.279079 
L 218.728853 268.568775 
L 218.889145 270.181192 
L 219.209731 286.80169 
L 219.850901 324.927587 
L 220.171486 333.621536 
L 220.492072 336.941991 
L 220.812657 337.972524 
L 221.133242 338.779949 
L 221.61412 341.021506 
L 222.415583 345.304672 
L 222.736168 346.166876 
L 223.056754 346.366173 
L 223.377339 345.977064 
L 223.697924 345.11719 
L 224.178802 343.152865 
L 224.819972 339.431862 
L 225.461143 334.259502 
L 226.262606 325.470756 
L 228.987581 291.822544 
L 229.468459 288.762749 
L 229.949336 287.141617 
L 230.269922 286.867995 
L 230.430214 286.968899 
L 230.7508 287.631982 
L 231.071385 288.885598 
L 231.552263 291.797318 
L 232.193433 297.396885 
L 232.994896 306.655484 
L 234.277237 324.697181 
L 235.719871 344.747917 
L 236.521334 353.07693 
L 237.002212 356.429554 
L 237.48309 358.300425 
L 237.803675 358.659615 
L 237.963968 358.564721 
L 238.284553 357.82289 
L 238.605138 356.353382 
L 239.086016 352.843776 
L 239.727187 345.984893 
L 240.52865 334.728718 
L 243.253624 293.79081 
L 243.894795 287.712403 
L 244.375673 284.687129 
L 244.856551 283.053873 
L 245.177136 282.740849 
L 245.337428 282.812534 
L 245.658014 283.397742 
L 245.978599 284.545318 
L 246.459477 287.231568 
L 247.100647 292.347523 
L 248.062403 302.338586 
L 250.627085 330.779468 
L 251.428548 337.232617 
L 252.069719 340.996106 
L 252.710889 343.440924 
L 253.191767 344.419306 
L 253.512352 344.682493 
L 253.832938 344.652081 
L 253.99323 344.532547 
L 254.634401 251.399664 
L 254.954986 231.443345 
L 255.115279 228.81806 
L 255.275571 229.917458 
L 255.596156 239.065488 
L 256.557912 273.071968 
L 257.03879 281.898825 
L 257.359375 283.721879 
L 257.519668 283.120471 
L 257.679961 281.295788 
L 258.000546 273.155616 
L 258.321131 257.473897 
L 258.641716 232.287812 
L 258.802009 215.531207 
L 258.962302 258.137096 
L 259.122594 262.60349 
L 259.443179 252.955737 
L 259.603472 255.052809 
L 259.924057 273.847178 
L 260.565228 318.325684 
L 260.885813 330.071927 
L 261.206398 335.910259 
L 261.687276 339.787601 
L 262.809325 345.872085 
L 263.12991 346.741667 
L 263.290202 346.908274 
L 263.450495 346.896445 
L 263.77108 346.388703 
L 264.251958 344.708913 
L 265.053421 340.569258 
L 265.854884 335.137881 
L 266.496055 329.340112 
L 267.297518 319.952856 
L 269.541615 291.731455 
L 270.182785 287.071108 
L 270.663663 285.219071 
L 270.984248 284.79282 
L 271.144541 284.820143 
L 271.465126 285.344991 
L 271.785712 286.476255 
L 272.266589 289.242678 
L 272.90776 294.733357 
L 273.709223 304.003419 
L 274.831271 319.95527 
L 276.59449 345.067443 
L 277.395953 353.184013 
L 277.876831 356.300293 
L 278.197417 357.527204 
L 278.518002 358.030889 
L 278.678294 358.005083 
L 278.838587 357.79286 
L 279.159172 356.81171 
L 279.64005 353.986164 
L 280.120928 349.653147 
L 280.762099 341.891266 
L 281.884147 324.790773 
L 283.487073 300.12415 
L 284.288536 290.901334 
L 284.929707 285.954053 
L 285.410585 283.831979 
L 285.73117 283.191825 
L 285.891463 283.101893 
L 286.051755 283.16269 
L 286.37234 283.724297 
L 286.692926 284.846059 
L 287.173804 287.490027 
L 287.814974 292.544347 
L 288.77673 302.436067 
L 291.501704 332.045096 
L 292.303168 338.068405 
L 292.944338 341.468701 
L 293.425216 343.157859 
L 293.585509 343.558402 
L 294.066386 262.130184 
L 294.386972 232.002149 
L 294.547264 225.73969 
L 294.707557 224.535239 
L 294.86785 227.284078 
L 295.188435 239.95954 
L 295.989898 276.051171 
L 296.470776 287.850561 
L 296.791361 290.586995 
L 296.951654 290.276302 
L 297.111946 288.711205 
L 297.432532 281.213215 
L 297.753117 266.626949 
L 298.073702 243.22328 
L 298.394287 209.220371 
L 298.55458 250.651509 
L 298.714873 254.611151 
L 299.035458 245.31101 
L 299.19575 247.990058 
L 299.516336 268.232877 
L 300.157506 314.875978 
L 300.478091 326.818203 
L 300.798677 332.24488 
L 301.119262 334.246345 
L 301.760432 335.810353 
L 302.722188 338.121634 
L 303.042773 338.465399 
L 303.363359 338.56172 
L 303.844237 338.441603 
L 304.485407 338.075847 
L 304.805992 337.735774 
L 305.126578 337.147272 
L 305.447163 336.172777 
L 305.928041 333.721517 
L 306.408919 329.869916 
L 307.050089 322.612089 
L 308.33243 304.136372 
L 309.294186 291.694734 
L 309.935356 286.005265 
L 310.416234 283.501898 
L 310.736819 282.723887 
L 310.897112 282.603773 
L 311.057405 282.661491 
L 311.37799 283.301615 
L 311.698575 284.620378 
L 312.179453 287.797788 
L 312.820624 294.047433 
L 313.622087 304.487807 
L 315.06472 327.279342 
L 316.347061 346.249004 
L 316.988232 353.254189 
L 317.46911 356.877565 
L 317.949988 358.886293 
L 318.270573 359.270465 
L 318.430865 359.170262 
L 318.751451 358.386835 
L 319.072036 356.841246 
L 319.552914 353.171922 
L 320.194084 346.061215 
L 321.15584 331.976487 
L 323.399937 297.415453 
L 324.2014 289.129529 
L 324.682278 285.875098 
L 325.163156 284.008353 
L 325.483741 283.53995 
L 325.644034 283.534566 
L 325.964619 283.967679 
L 326.285204 284.966839 
L 326.766082 287.439593 
L 327.407252 292.292362 
L 328.369008 301.945005 
L 331.093983 331.293501 
L 331.895446 337.341271 
L 332.536616 340.78584 
L 333.017494 342.51993 
L 333.498372 343.536971 
L 333.818957 343.832907 
L 334.460128 248.619612 
L 334.780713 229.157122 
L 334.941006 226.981092 
L 335.101298 228.606595 
L 335.421884 238.890859 
L 336.383639 275.250257 
L 336.864517 284.156359 
L 337.02481 285.393106 
L 337.185103 285.640867 
L 337.345395 284.772331 
L 337.66598 279.009028 
L 337.986566 266.491838 
L 338.307151 245.355627 
L 338.627736 213.699574 
L 338.788029 255.903284 
L 338.948321 260.198744 
L 339.268907 250.683507 
L 339.429199 252.991201 
L 339.749785 272.314354 
L 340.390955 317.6386 
L 340.71154 329.516757 
L 341.032126 335.278749 
L 341.352711 337.907113 
L 342.314467 342.495631 
L 342.795344 344.172566 
L 343.11593 344.625761 
L 343.276222 344.632456 
L 343.596808 344.25671 
L 344.077685 342.981245 
L 344.879149 339.855696 
L 345.520319 336.511871 
L 346.16149 331.795583 
L 346.80266 325.268695 
L 347.764416 312.681449 
L 349.207049 293.85808 
L 349.84822 288.100285 
L 350.329098 285.392718 
L 350.649683 284.412349 
L 350.970268 284.098536 
L 351.130561 284.188962 
L 351.451146 284.853177 
L 351.771731 286.140527 
L 352.252609 289.169605 
L 352.89378 295.052651 
L 353.695243 304.840443 
L 354.977584 323.89611 
L 356.420218 344.748892 
L 357.221681 353.172268 
L 357.702559 356.450198 
L 358.023144 357.77304 
L 358.343729 358.362318 
L 358.504022 358.375284 
L 358.664314 358.199102 
L 358.9849 357.281784 
L 359.305485 355.626308 
L 359.786363 351.83608 
L 360.427533 344.641298 
L 361.389289 330.573963 
L 363.473093 298.484059 
L 364.274556 289.782587 
L 364.915727 285.341718 
L 365.396605 283.619934 
L 365.71719 283.245315 
L 365.877482 283.28567 
L 366.198068 283.807522 
L 366.518653 284.891268 
L 366.999531 287.481981 
L 367.640701 292.473295 
L 368.602457 302.28957 
L 371.327432 331.812017 
L 372.128895 337.84114 
L 372.770065 341.253879 
L 373.090651 342.470135 
L 373.571528 258.88934 
L 373.892114 228.733942 
L 374.052406 222.733312 
L 374.212699 221.914484 
L 374.372992 225.132017 
L 374.853869 247.276995 
L 375.49504 277.030832 
L 375.975918 289.239964 
L 376.296503 291.875383 
L 376.456796 291.415998 
L 376.617088 289.645411 
L 376.937674 281.594186 
L 377.258259 266.311434 
L 377.578844 242.119453 
L 377.899429 207.280493 
L 378.059722 248.199785 
L 378.220015 251.901071 
L 378.5406 242.61889 
L 378.700892 245.479 
L 379.021478 266.241384 
L 379.662648 313.87234 
L 379.983233 326.069219 
L 380.303819 331.555346 
L 380.624404 333.450888 
L 381.105282 334.286431 
L 381.746452 335.452176 
L 382.387623 336.472616 
L 382.868501 336.823636 
L 384.311134 337.395821 
L 384.63172 337.184849 
L 384.952305 336.562519 
L 385.27289 335.385734 
L 385.753768 332.370809 
L 386.234646 327.78164 
L 387.036109 317.25086 
L 388.95962 290.195811 
L 389.600791 284.681273 
L 390.081669 282.392126 
L 390.402254 281.788896 
L 390.562547 281.764424 
L 390.722839 281.922733 
L 391.043425 282.777282 
L 391.36401 284.325426 
L 391.844888 287.867279 
L 392.486058 294.618954 
L 393.287521 305.653684 
L 396.333081 351.593307 
L 396.974252 356.962285 
L 397.45513 359.105723 
L 397.775715 359.567632 
L 397.936007 359.502532 
L 398.256593 358.781677 
L 398.577178 357.288487 
L 399.058056 353.679068 
L 399.699226 346.615257 
L 400.660982 332.539062 
L 402.905079 297.804768 
L 403.706542 289.424512 
L 404.18742 286.111535 
L 404.668298 284.186616 
L 404.988883 283.680266 
L 405.149176 283.656282 
L 405.309468 283.781695 
L 405.630053 284.466578 
L 406.110931 286.510634 
L 406.591809 289.638123 
L 407.393272 296.750499 
L 408.675613 310.900314 
L 410.27854 328.174652 
L 411.240295 336.068643 
L 411.881466 339.841366 
L 412.522636 342.329645 
L 413.003514 343.360253 
L 413.324099 343.666423 
L 413.644685 343.684769 
L 414.285855 250.466407 
L 414.60644 230.494995 
L 414.766733 227.876135 
L 414.927026 228.990737 
L 415.247611 238.192573 
L 416.209367 272.505419 
L 416.690245 281.546903 
L 417.01083 283.527799 
L 417.171122 283.007942 
L 417.331415 281.265639 
L 417.652 273.289722 
L 417.972586 257.766462 
L 418.293171 232.726976 
L 418.453463 216.037436 
L 418.613756 258.542009 
L 418.774049 262.946878 
L 419.094634 253.267981 
L 419.254927 255.384141 
L 419.575512 274.263721 
L 420.216682 319.006954 
L 420.537268 330.88961 
L 420.857853 336.844979 
L 421.338731 340.838991 
L 422.460779 346.879535 
L 422.781364 347.670523 
L 422.941657 347.7907 
L 423.10195 347.728815 
L 423.422535 347.1133 
L 423.903413 345.263536 
L 424.704876 340.855748 
L 425.506339 335.211637 
L 426.307802 327.576206 
L 427.269558 315.530782 
L 428.872484 294.74446 
L 429.513655 288.953252 
L 429.994532 286.161229 
L 430.315118 285.098387 
L 430.635703 284.682316 
L 430.795996 284.714442 
L 431.116581 285.248175 
L 431.437166 286.387232 
L 431.918044 289.163109 
L 432.559214 294.662228 
L 433.360678 303.937013 
L 434.482726 319.88826 
L 436.245945 344.995203 
L 437.047408 353.111305 
L 437.528286 356.228331 
L 437.848871 357.456196 
L 438.169456 357.961203 
L 438.329749 357.936192 
L 438.490042 357.724852 
L 438.810627 356.745724 
L 439.291505 353.923812 
L 439.772383 349.595078 
L 440.413553 341.839755 
L 441.535601 324.752381 
L 443.138528 300.105735 
L 443.939991 290.892369 
L 444.581161 285.951978 
L 445.062039 283.834553 
L 445.382624 283.197214 
L 445.542917 283.108596 
L 445.70321 283.170645 
L 446.023795 283.734556 
L 446.34438 284.858351 
L 446.825258 287.504842 
L 447.466429 292.56153 
L 448.428184 302.45472 
L 450.992866 330.636549 
L 451.794329 337.02547 
L 452.4355 340.747474 
L 453.07667 343.160825 
L 453.557548 344.122593 
L 454.038426 264.839341 
L 454.359011 234.667266 
L 454.519304 228.103289 
L 454.679597 226.474662 
L 454.839889 228.71937 
L 455.160475 240.294491 
L 455.961938 274.290174 
L 456.442816 285.774874 
L 456.763401 288.712911 
L 456.923693 288.610393 
L 457.083986 287.315326 
L 457.404571 280.511361 
L 457.725157 266.772113 
L 458.045742 244.310162 
L 458.366327 211.293232 
L 458.52662 253.189833 
L 458.686912 257.374128 
L 459.007498 248.022384 
L 459.16779 250.518849 
L 459.488375 270.266331 
L 460.129546 316.056455 
L 460.450131 327.837148 
L 460.770716 333.300637 
L 461.091302 335.497288 
L 462.21335 339.355852 
L 462.694228 340.562533 
L 463.014813 340.87178 
L 463.335398 340.809741 
L 463.816276 340.25245 
L 464.457447 339.059494 
L 464.938325 337.783999 
L 465.419203 335.840616 
L 465.90008 332.867066 
L 466.541251 326.962882 
L 467.342714 316.8285 
L 469.105933 293.000051 
L 469.747103 287.208383 
L 470.227981 284.548765 
L 470.548567 283.634229 
L 470.869152 283.412489 
L 471.029444 283.558533 
L 471.35003 284.352502 
L 471.670615 285.793148 
L 472.151493 289.0919 
L 472.792663 295.391994 
L 473.594126 305.738682 
L 475.03676 328.067846 
L 476.319101 346.515136 
L 476.960272 353.277221 
L 477.441149 356.73832 
L 477.922027 358.606202 
L 478.242613 358.909535 
L 478.402905 358.772979 
L 478.72349 357.925072 
L 479.044076 356.325954 
L 479.524954 352.596418 
L 480.166124 345.440783 
L 481.12788 331.354698 
L 483.371977 296.995067 
L 484.17344 288.814583 
L 484.654318 285.625102 
L 485.135195 283.822585 
L 485.455781 283.395921 
L 485.616073 283.410948 
L 485.936659 283.883771 
L 486.257244 284.920928 
L 486.738122 287.446946 
L 487.379292 292.362793 
L 488.341048 302.091086 
L 491.066023 331.526936 
L 491.867486 337.569074 
L 492.508656 341.001312 
L 492.989534 342.722384 
L 493.470412 343.723762 
L 493.630705 343.903112 
L 494.271875 247.64492 
L 494.59246 228.473865 
L 494.752753 226.544866 
L 494.913046 228.453769 
L 495.233631 239.336102 
L 496.195387 276.824754 
L 496.676264 285.659028 
L 496.836557 286.780259 
L 496.99685 286.872791 
L 497.157142 285.813761 
L 497.477728 279.582508 
L 497.798313 266.512798 
L 498.118898 244.774866 
L 498.439483 212.498966 
L 498.599776 254.536259 
L 498.760069 258.767354 
L 499.080654 249.327401 
L 499.240946 251.731358 
L 499.561532 271.279681 
L 500.202702 316.892844 
L 500.523287 328.759296 
L 500.843873 334.409993 
L 501.164458 336.857504 
L 502.126214 340.867873 
L 502.607092 342.425176 
L 502.927677 342.89707 
L 503.087969 342.943028 
L 503.408555 342.701377 
L 503.889433 341.7429 
L 504.530603 339.871813 
L 505.171774 337.346465 
L 505.652651 334.642857 
L 506.293822 329.417405 
L 506.934992 322.206571 
L 509.659967 288.23237 
L 510.140845 285.312429 
L 510.46143 284.200844 
L 510.782015 283.768235 
L 510.942308 283.804775 
L 511.262893 284.373518 
L 511.583479 285.582954 
L 512.064356 288.529593 
L 512.705527 294.366273 
L 513.50699 304.187481 
L 514.789331 323.446809 
L 516.231965 344.617816 
L 517.033428 353.207664 
L 517.514306 356.572728 
L 517.995184 358.358444 
L 518.315769 358.615367 
L 518.476061 358.458196 
L 518.796647 357.574281 
L 519.117232 355.946078 
L 519.59811 352.185551 
L 520.23928 345.010711 
L 521.201036 330.93677 
L 523.28484 298.732085 
L 524.086303 289.968564 
L 524.727474 285.476766 
L 525.208352 283.717502 
L 525.528937 283.318676 
L 525.68923 283.347237 
L 526.009815 283.846232 
L 526.3304 284.90822 
L 526.811278 287.468652 
L 527.452448 292.424509 
L 528.414204 302.199152 
L 531.139179 331.678802 
L 531.940642 337.713298 
L 532.581812 341.134637 
L 533.06269 342.845334 
L 533.543568 343.834874 
L 533.864153 344.110632 
L 534.505324 248.900588 
L 534.825909 229.552116 
L 534.986202 227.440261 
L 535.146494 229.129853 
L 535.46708 239.530772 
L 536.428835 276.019026 
L 536.909713 284.832505 
L 537.070006 286.017188 
L 537.230299 286.203874 
L 537.390591 285.266392 
L 537.711176 279.346497 
L 538.031762 266.656148 
L 538.352347 245.339976 
L 538.672932 213.506098 
L 538.833225 255.750301 
L 538.993517 260.077532 
L 539.314103 250.599755 
L 539.474395 252.913022 
L 539.794981 272.221089 
L 540.436151 317.421653 
L 540.756736 329.206038 
L 541.077322 334.867575 
L 541.397907 337.400593 
L 542.519955 342.483283 
L 543.000833 343.823127 
L 543.321418 344.031032 
L 543.642004 343.723416 
L 544.122881 342.574801 
L 544.764052 340.337201 
L 545.405222 337.40858 
L 546.046393 333.23607 
L 546.687563 327.264611 
L 547.489027 317.364613 
L 549.412538 292.345378 
L 550.053709 287.112733 
L 550.534586 284.852695 
L 550.855172 284.17995 
L 551.015464 284.094043 
L 551.175757 284.17328 
L 551.496342 284.817692 
L 551.816927 286.08889 
L 552.297805 289.100808 
L 552.938976 294.973815 
L 553.740439 304.767078 
L 555.02278 323.859803 
L 556.465414 344.768803 
L 557.266877 353.220113 
L 557.747755 356.51199 
L 558.06834 357.842728 
L 558.388925 358.438711 
L 558.549218 358.454572 
L 558.70951 358.280978 
L 559.030096 357.367917 
L 559.350681 355.715493 
L 559.831559 351.927665 
L 560.472729 344.732325 
L 561.434485 330.657343 
L 563.518289 298.533385 
L 564.319752 289.816361 
L 564.960923 285.363303 
L 565.441801 283.632835 
L 565.762386 283.252735 
L 565.922678 283.290457 
L 566.243264 283.807285 
L 566.563849 284.886349 
L 567.044727 287.47074 
L 567.685897 292.455018 
L 568.647653 302.263849 
L 571.372628 331.783629 
L 572.174091 337.815867 
L 572.815261 341.231863 
L 573.296139 342.936846 
L 573.777017 343.919464 
L 574.097602 344.190054 
L 574.257895 344.215447 
L 574.899065 249.977563 
L 575.219651 230.430572 
L 575.379943 228.129981 
L 575.540236 229.597055 
L 575.860821 239.516735 
L 576.822577 275.038652 
L 577.303455 283.859837 
L 577.463747 285.118589 
L 577.62404 285.41047 
L 577.784333 284.60592 
L 577.944625 282.54067 
L 578.265211 273.829246 
L 578.585796 257.491757 
L 578.906381 231.604401 
L 579.066674 214.490802 
L 579.226966 256.913056 
L 579.387259 261.3178 
L 579.707844 251.78884 
L 579.868137 254.013844 
L 580.188722 273.09906 
L 580.829893 317.948096 
L 581.150478 329.683401 
L 581.471063 335.385239 
L 581.791648 338.027342 
L 582.913697 343.60229 
L 583.394575 345.022198 
L 583.71516 345.209694 
L 584.035745 344.823603 
L 584.516623 343.464758 
L 585.157793 340.835184 
L 585.798964 337.482379 
L 586.440134 332.94396 
L 587.081305 326.723903 
L 588.043061 314.511068 
L 589.645987 293.720408 
L 590.287157 288.130942 
L 590.768035 285.547569 
L 591.088621 284.644049 
L 591.409206 284.3999 
L 591.569498 284.521952 
L 591.890084 285.242224 
L 592.210669 286.575316 
L 592.691547 289.652626 
L 593.332717 295.562025 
L 594.13418 305.327454 
L 595.416521 324.254301 
L 596.859155 344.903321 
L 597.660618 353.217731 
L 598.141496 356.437531 
L 598.462081 357.725531 
L 598.782667 358.283418 
L 598.942959 358.282039 
L 599.103252 358.092431 
L 599.423837 357.151048 
L 599.744422 355.475229 
L 600.2253 351.661335 
L 600.866471 344.447109 
L 601.828226 330.373376 
L 603.912031 298.334284 
L 604.713494 289.664961 
L 605.354664 285.251424 
L 605.835542 283.550224 
L 606.156127 283.18911 
L 606.31642 283.236108 
L 606.637005 283.770962 
L 606.95759 284.86725 
L 607.438468 287.475739 
L 608.079639 292.488474 
L 609.041395 302.331257 
L 611.766369 331.88923 
L 612.567832 337.91851 
L 613.209003 341.328633 
L 613.689881 255.357236 
L 614.010466 225.188574 
L 614.170759 219.489567 
L 614.331051 219.110549 
L 614.491344 222.860331 
L 614.972222 246.771231 
L 615.613392 278.288861 
L 616.09427 290.944608 
L 616.414855 293.451318 
L 616.575148 292.815795 
L 616.735441 290.804495 
L 617.056026 282.110513 
L 617.376611 266.023438 
L 617.857489 224.467045 
L 618.017782 205.12843 
L 618.178074 245.47429 
L 618.338367 248.880912 
L 618.658952 239.597521 
L 618.819245 242.646446 
L 619.13983 263.960128 
L 619.781 312.639796 
L 620.101586 325.099943 
L 620.422171 330.637242 
L 620.742756 332.405858 
L 621.063341 332.777377 
L 621.544219 333.090467 
L 623.307438 335.207666 
L 624.108901 336.549388 
L 624.589779 337.189515 
L 624.910364 337.214944 
L 625.23095 336.712616 
L 625.551535 335.540099 
L 626.032413 332.349015 
L 626.513291 327.439301 
L 627.314754 316.294863 
L 629.077973 290.400535 
L 629.719143 284.349455 
L 630.200021 281.699308 
L 630.520606 280.886829 
L 630.680899 280.768832 
L 630.841192 280.841556 
L 631.161777 281.549882 
L 631.482362 282.986153 
L 631.96324 286.424994 
L 632.60441 293.154292 
L 633.405874 304.319055 
L 635.169092 333.616033 
L 636.130848 347.703388 
L 636.772019 354.605271 
L 637.252897 358.022755 
L 637.573482 359.361172 
L 637.894067 359.910432 
L 638.05436 359.88475 
L 638.214652 359.65883 
L 638.535238 358.613124 
L 639.016115 355.615226 
L 639.496993 351.048272 
L 640.298456 340.617303 
L 641.74109 317.307394 
L 642.863138 300.318987 
L 643.664602 291.180431 
L 644.305772 286.376516 
L 644.78665 284.385471 
L 645.107235 283.836024 
L 645.267528 283.790929 
L 645.42782 283.895578 
L 645.748406 284.540127 
L 646.068991 285.73573 
L 646.549869 288.467173 
L 647.191039 293.583475 
L 648.152795 303.433103 
L 650.557184 329.415928 
L 651.358648 335.828005 
L 651.999818 339.610782 
L 652.640989 342.115454 
L 653.121866 343.161759 
L 653.442452 343.479717 
L 653.763037 343.510726 
L 653.92333 343.424141 
L 654.5645 251.186696 
L 654.885085 230.925973 
L 655.045378 228.068732 
L 655.205671 228.912464 
L 655.526256 237.549396 
L 656.488012 270.851718 
L 656.968889 280.019459 
L 657.289475 282.303879 
L 657.449767 281.989847 
L 657.61006 280.483244 
L 657.930645 273.04932 
L 658.25123 258.131478 
L 658.571816 233.727083 
L 658.732108 217.356915 
L 658.892401 259.971486 
L 659.052694 264.400677 
L 659.373279 254.604991 
L 659.533571 256.619076 
L 659.854157 275.282982 
L 660.495327 319.802967 
L 660.815912 331.736389 
L 661.136498 337.838037 
L 661.617376 342.15471 
L 662.579131 348.09325 
L 662.899717 349.273925 
L 663.220302 349.665868 
L 663.380594 349.555856 
L 663.70118 348.787309 
L 664.182058 346.591554 
L 664.983521 341.438715 
L 665.784984 335.068226 
L 666.586447 326.917356 
L 667.708495 312.439517 
L 668.990836 295.930673 
L 669.632007 289.882015 
L 670.112885 286.840842 
L 670.593763 285.210303 
L 670.914348 284.918587 
L 671.07464 285.007907 
L 671.395226 285.644547 
L 671.715811 286.869754 
L 672.196689 289.741217 
L 672.837859 295.304278 
L 673.639322 304.565397 
L 674.921663 322.753136 
L 676.52459 345.100285 
L 677.326053 353.05467 
L 677.806931 356.0874 
L 678.127516 357.2657 
L 678.448101 357.726901 
L 678.608394 357.682221 
L 678.928979 357.038783 
L 679.249564 355.664436 
L 679.730442 352.290446 
L 680.371613 345.59734 
L 681.173076 334.522342 
L 683.89805 293.98704 
L 684.539221 287.958593 
L 685.020099 284.960214 
L 685.500977 283.344973 
L 685.821562 283.039125 
L 685.981855 283.112974 
L 686.30244 283.699722 
L 686.623025 284.845206 
L 687.103903 287.521796 
L 687.745073 292.61356 
L 688.706829 302.547571 
L 691.271511 330.769562 
L 692.072974 337.153588 
L 692.714145 340.867247 
L 693.355315 343.269153 
L 693.836193 344.220771 
L 694.156778 344.468945 
L 694.797949 249.319658 
L 695.118534 230.128354 
L 695.278827 228.101109 
L 695.439119 229.87365 
L 695.759705 240.42255 
L 696.72146 277.064137 
L 697.202338 285.75461 
L 697.362631 286.871547 
L 697.522924 286.979124 
L 697.683216 285.952623 
L 698.003801 279.831184 
L 698.324387 266.918633 
L 698.644972 245.372101 
L 698.965557 213.31121 
L 699.12585 255.620011 
L 699.286142 259.995222 
L 699.606728 250.567798 
L 699.76702 252.885036 
L 700.087606 272.162216 
L 700.728776 317.173873 
L 701.049361 328.824426 
L 701.369947 334.346483 
L 701.690532 336.749937 
L 702.81258 341.608691 
L 703.293458 342.98797 
L 703.614043 343.261278 
L 703.934629 343.043324 
L 704.255214 342.453353 
L 704.896384 340.61767 
L 705.537555 338.128496 
L 706.178725 334.524395 
L 706.819896 329.161719 
L 707.621359 319.814668 
L 709.865456 290.97649 
L 710.506626 286.281344 
L 710.987504 284.468215 
L 711.308089 284.099384 
L 711.468382 284.164907 
L 711.788967 284.785073 
L 712.109552 286.036517 
L 712.59043 289.027483 
L 713.231601 294.888265 
L 714.033064 304.68818 
L 715.315405 323.825686 
L 716.758039 344.802029 
L 717.559502 353.286434 
L 718.04038 356.594671 
L 718.360965 357.934587 
L 718.68155 358.538283 
L 718.841843 358.55744 
L 719.002135 358.386768 
L 719.322721 357.478429 
L 719.643306 355.829256 
L 720.124184 352.043658 
L 720.765354 344.846736 
L 721.72711 330.761164 
L 723.810914 298.593441 
L 724.612377 289.856819 
L 725.253548 285.388495 
L 725.734426 283.647198 
L 726.055011 283.260287 
L 726.215303 283.294746 
L 726.535889 283.805357 
L 726.856474 284.878649 
L 727.337352 287.455281 
L 727.978522 292.430998 
L 728.940278 302.230942 
L 731.665253 331.748687 
L 732.466716 337.785137 
L 733.107886 341.205418 
L 733.588764 342.913964 
L 734.069642 343.900325 
L 734.55052 264.57308 
L 734.871105 234.305416 
L 735.031398 227.688686 
L 735.19169 226.007667 
L 735.351983 228.202342 
L 735.672568 239.690771 
L 736.474031 273.596136 
L 736.954909 285.130612 
L 737.275495 288.142047 
L 737.435787 288.086382 
L 737.59608 286.843848 
L 737.916665 280.158381 
L 738.23725 266.549331 
L 738.557836 244.221976 
L 738.878421 211.33728 
L 739.038713 253.187962 
L 739.199006 257.340393 
L 739.519591 247.96112 
L 739.679884 250.459524 
L 740.000469 270.237321 
L 740.64164 316.166342 
L 740.962225 328.037443 
L 741.28281 333.591926 
L 741.603395 335.87084 
L 742.565151 339.317183 
L 743.046029 340.750405 
L 743.366614 341.235154 
L 743.6872 341.301194 
L 744.007785 341.032957 
L 744.488663 340.252893 
L 745.129833 338.806276 
L 745.610711 337.255754 
L 746.091589 334.925967 
L 746.572467 331.490512 
L 747.213637 324.986727 
L 748.175393 312.088089 
L 749.457734 294.68517 
L 750.098905 288.35134 
L 750.579782 285.219193 
L 750.900368 283.976519 
L 751.220953 283.425235 
L 751.381246 283.407945 
L 751.541538 283.560783 
L 751.862123 284.366546 
L 752.182709 285.816503 
L 752.663587 289.124549 
L 753.304757 295.428812 
L 754.10622 305.769632 
L 755.548854 328.069332 
L 756.831195 346.4856 
L 757.472365 353.234435 
L 757.953243 356.687336 
L 758.434121 358.548736 
L 758.754706 358.848749 
L 758.914999 358.710836 
L 759.235584 357.860818 
L 759.556169 356.260379 
L 760.037047 352.530275 
L 760.678218 345.376304 
L 761.639974 331.297048 
L 763.723778 298.979841 
L 764.525241 290.154914 
L 765.166411 285.612602 
L 765.647289 283.816107 
L 765.967874 283.393212 
L 766.128167 283.410038 
L 766.448752 283.886276 
L 766.769338 284.926587 
L 767.250215 287.45681 
L 767.891386 292.377232 
L 768.853142 302.110121 
L 771.578116 331.545971 
L 772.379579 337.585478 
L 773.02075 341.01514 
L 773.501628 342.734111 
L 773.822213 343.478473 
L 774.303091 263.18984 
L 774.623676 232.917525 
L 774.783969 226.421744 
L 774.944261 224.916648 
L 775.104554 227.323817 
L 775.425139 239.283021 
L 776.226602 274.115842 
L 776.70748 285.820502 
L 777.028066 288.774855 
L 777.188358 288.645955 
L 777.348651 287.304341 
L 777.669236 280.356005 
L 777.989821 266.418969 
L 778.310407 243.721981 
L 778.630992 210.446192 
L 778.791284 252.079625 
L 778.951577 256.126701 
L 779.272162 246.771261 
L 779.432455 249.356128 
L 779.75304 269.372271 
L 780.394211 315.736657 
L 780.714796 327.71151 
L 781.035381 333.279959 
L 781.355966 335.498041 
L 782.15743 338.060329 
L 782.7986 339.887494 
L 783.119185 340.344938 
L 783.439771 340.434793 
L 783.760356 340.239262 
L 784.401526 339.40093 
L 785.042697 338.166282 
L 785.523575 336.657764 
L 786.004453 334.213174 
L 786.48533 330.533696 
L 787.126501 323.626195 
L 788.248549 307.958613 
L 789.370598 293.07653 
L 790.011768 287.108712 
L 790.492646 284.323266 
L 790.813231 283.332499 
L 791.133817 283.04286 
L 791.294109 283.158531 
L 791.614694 283.899568 
L 791.93528 285.298273 
L 792.416158 288.555372 
L 793.057328 294.83872 
L 793.858791 305.219712 
L 795.301425 327.716517 
L 796.583766 346.355998 
L 797.224936 353.209082 
L 797.705814 356.731783 
L 798.186692 358.653976 
L 798.507277 358.989017 
L 798.66757 358.866903 
L 798.988155 358.045009 
L 799.30874 356.468064 
L 799.789618 352.764705 
L 800.430789 345.631414 
L 801.392545 331.555132 
L 803.636641 297.142773 
L 804.438104 288.930015 
L 804.918982 285.720075 
L 805.39986 283.896952 
L 805.720445 283.456701 
L 805.880738 283.465025 
L 806.201323 283.924693 
L 806.521909 284.949109 
L 807.002786 287.456978 
L 807.643957 292.350787 
L 808.605713 302.051452 
L 811.330687 331.44825 
L 812.13215 337.489358 
L 812.773321 340.923635 
L 813.254199 342.647692 
L 813.414491 343.06139 
L 813.895369 261.749462 
L 814.215955 231.484158 
L 814.376247 225.12438 
L 814.53654 223.814052 
L 814.696832 226.454811 
L 815.017418 238.928458 
L 815.818881 274.763575 
L 816.299759 286.641954 
L 816.620344 289.524028 
L 816.780637 289.309759 
L 816.940929 287.854351 
L 817.261514 280.607434 
L 817.5821 266.300763 
L 817.902685 243.189337 
L 818.22327 209.476947 
L 818.383563 250.882653 
L 818.543855 254.81931 
L 818.864441 245.48824 
L 819.024733 248.162816 
L 819.345319 268.425157 
L 819.986489 315.230355 
L 820.307074 327.302895 
L 820.62766 332.874206 
L 820.948245 335.017468 
L 821.589415 336.796363 
L 822.390878 338.880359 
L 822.711464 339.316575 
L 823.032049 339.441853 
L 823.352634 339.335349 
L 823.993805 338.801233 
L 824.474683 338.222758 
L 824.95556 337.235148 
L 825.436438 335.412178 
L 825.917316 332.374965 
L 826.558487 326.183013 
L 827.35995 315.608336 
L 828.962876 293.290834 
L 829.604047 287.085031 
L 830.084924 284.129815 
L 830.40551 283.036354 
L 830.726095 282.655362 
L 830.886388 282.730204 
L 831.206973 283.400131 
L 831.527558 284.742506 
L 832.008436 287.943537 
L 832.649606 294.203625 
L 833.45107 304.628102 
L 834.893703 327.339468 
L 836.176044 346.221816 
L 836.817215 353.188176 
L 837.298093 356.786632 
L 837.77897 358.774715 
L 838.099556 359.147662 
L 838.259848 359.042624 
L 838.580434 358.251085 
L 838.901019 356.699436 
L 839.381897 353.024735 
L 840.023067 345.913295 
L 840.984823 331.83919 
L 843.22892 297.336765 
L 844.030383 289.076083 
L 844.511261 285.836529 
L 844.992139 283.984061 
L 845.312724 283.524709 
L 845.473016 283.523683 
L 845.793602 283.965143 
L 846.114187 284.972112 
L 846.595065 287.455481 
L 847.236235 292.320192 
L 848.197991 301.985777 
L 850.922966 331.340994 
L 851.724429 337.384251 
L 852.365599 340.823876 
L 852.846477 342.553704 
L 853.327355 343.566163 
L 853.64794 343.85893 
L 853.968526 343.863029 
L 854.289111 343.596792 
L 854.609696 343.081233 
L 855.250867 253.471608 
L 855.571452 232.680005 
L 855.731744 229.323441 
L 855.892037 229.581876 
L 856.212622 236.964894 
L 857.334671 271.577734 
L 857.815549 279.051331 
L 857.975841 280.092174 
L 858.136134 280.191333 
L 858.296426 279.163725 
L 858.617012 272.844977 
L 858.937597 259.187457 
L 859.258182 236.118245 
L 859.418475 220.424523 
L 859.578767 263.408436 
L 859.73906 267.960361 
L 860.059645 257.916054 
L 860.219938 259.663254 
L 860.540523 277.711799 
L 861.181694 321.378468 
L 861.502279 333.259664 
L 861.822864 339.553761 
L 862.303742 344.465737 
L 863.265498 351.630764 
L 863.586083 352.983266 
L 863.746376 353.304011 
L 863.906668 353.373482 
L 864.066961 353.19659 
L 864.387546 352.170042 
L 864.868424 349.324361 
L 865.669887 342.678572 
L 866.791936 331.286222 
L 867.913984 317.167839 
L 869.51691 296.449747 
L 870.158081 290.478614 
L 870.638959 287.463436 
L 871.119836 285.823787 
L 871.440422 285.503675 
L 871.600714 285.571491 
L 871.9213 286.149577 
L 872.241885 287.29452 
L 872.722763 290.003599 
L 873.363933 295.27521 
L 874.165396 304.081974 
L 875.287445 319.22971 
L 877.210956 345.41924 
L 877.852127 351.747816 
L 878.333005 355.051572 
L 878.813882 356.899548 
L 879.134468 357.257885 
L 879.29476 357.166792 
L 879.615346 356.440748 
L 879.935931 354.997477 
L 880.416809 351.545365 
L 881.057979 344.792907 
L 881.859442 333.707892 
L 884.584417 293.486372 
L 885.225587 287.568382 
L 885.706465 284.653845 
L 886.187343 283.12107 
L 886.507928 282.868586 
L 886.668221 282.968467 
L 886.988806 283.605731 
L 887.309392 284.799384 
L 887.790269 287.543189 
L 888.43144 292.713982 
L 889.393196 302.74154 
L 891.957878 331.064536 
L 892.759341 337.441543 
L 893.400511 341.139485 
L 894.041682 343.518436 
L 894.362267 344.218035 
L 894.843145 263.869755 
L 895.16373 233.842268 
L 895.324023 227.502224 
L 895.484315 226.160595 
L 895.644608 228.7305 
L 895.965193 240.985459 
L 896.766656 276.169644 
L 897.247534 287.738505 
L 897.56812 290.465518 
L 897.728412 290.188283 
L 897.888705 288.678889 
L 898.20929 281.348704 
L 898.529875 266.988628 
L 898.850461 243.851296 
L 899.171046 210.139661 
L 899.331338 251.852936 
L 899.491631 255.960668 
L 899.812216 246.668739 
L 899.972509 249.255998 
L 900.293094 269.217938 
L 900.934265 315.262068 
L 901.25485 327.004379 
L 901.575435 332.325791 
L 901.89602 334.309924 
L 903.178361 337.907611 
L 903.659239 338.838229 
L 903.979825 339.065799 
L 904.30041 339.048335 
L 904.781288 338.768528 
L 905.422458 338.102179 
L 905.903336 337.127414 
L 906.384214 335.299908 
L 906.865092 332.25399 
L 907.506262 326.061653 
L 908.307725 315.523189 
L 909.910652 293.395637 
L 910.551822 287.284378 
L 911.0327 284.396452 
L 911.353285 283.343822 
L 911.673871 282.999286 
L 911.834163 283.090468 
L 912.154748 283.78892 
L 912.475334 285.15392 
L 912.956212 288.377316 
L 913.597382 294.645673 
L 914.398845 305.048839 
L 915.841479 327.657437 
L 917.12382 346.417421 
L 917.76499 353.323439 
L 918.245868 356.879749 
L 918.726746 358.829417 
L 919.047331 359.179152 
L 919.207624 359.063278 
L 919.528209 358.251656 
L 919.848794 356.68208 
L 920.329672 352.984533 
L 920.970843 345.849948 
L 921.932599 331.755342 
L 924.176695 297.253799 
L 924.978158 289.003705 
L 925.459036 285.771925 
L 925.939914 283.927952 
L 926.260499 283.474544 
L 926.420792 283.476551 
L 926.741377 283.924156 
L 927.061963 284.937335 
L 927.54284 287.430028 
L 928.184011 292.306949 
L 929.145767 301.989743 
L 931.870741 331.380099 
L 932.672204 337.428662 
L 933.313375 340.870742 
L 933.794253 342.601384 
L 933.954545 311.454719 
L 933.954545 311.454719 
" clip-path="url(#pc47dbf712e)" style="fill: none; stroke: #1f77b4; stroke-width: 1.5; stroke-linecap: square"/>
   </g>
   <g id="line2d_12">
    <path d="M 173.045455 267.780378 
L 177.693941 267.780378 
L 177.854233 343.967207 
L 213.278903 343.967207 
L 213.439196 267.780378 
L 218.087682 267.780378 
L 218.247975 343.967207 
L 253.99323 343.967207 
L 254.153523 267.780378 
L 258.802009 267.780378 
L 258.962302 343.967207 
L 293.585509 343.967207 
L 293.745801 267.780378 
L 298.394287 267.780378 
L 298.55458 343.967207 
L 333.818957 343.967207 
L 333.97925 267.780378 
L 338.627736 267.780378 
L 338.788029 343.967207 
L 373.090651 343.967207 
L 373.250943 267.780378 
L 377.899429 267.780378 
L 378.059722 343.967207 
L 413.644685 343.967207 
L 413.804977 267.780378 
L 418.453463 267.780378 
L 418.613756 343.967207 
L 453.557548 343.967207 
L 453.717841 267.780378 
L 458.366327 267.780378 
L 458.52662 343.967207 
L 493.630705 343.967207 
L 493.790997 267.780378 
L 498.439483 267.780378 
L 498.599776 343.967207 
L 533.864153 343.967207 
L 534.024446 267.780378 
L 538.672932 267.780378 
L 538.833225 343.967207 
L 574.257895 343.967207 
L 574.418188 267.780378 
L 579.066674 267.780378 
L 579.226966 343.967207 
L 613.209003 343.967207 
L 613.369295 267.780378 
L 618.017782 267.780378 
L 618.178074 343.967207 
L 653.92333 343.967207 
L 654.083622 267.780378 
L 658.732108 267.780378 
L 658.892401 343.967207 
L 694.156778 343.967207 
L 694.317071 267.780378 
L 698.965557 267.780378 
L 699.12585 343.967207 
L 734.069642 343.967207 
L 734.229935 267.780378 
L 738.878421 267.780378 
L 739.038713 343.967207 
L 773.822213 343.967207 
L 773.982506 267.780378 
L 778.630992 267.780378 
L 778.791284 343.967207 
L 813.414491 343.967207 
L 813.574784 267.780378 
L 818.22327 267.780378 
L 818.383563 343.967207 
L 854.609696 343.967207 
L 854.769989 267.780378 
L 859.418475 267.780378 
L 859.578767 343.967207 
L 894.362267 343.967207 
L 894.52256 267.780378 
L 899.171046 267.780378 
L 899.331338 343.967207 
L 933.794253 343.967207 
L 933.954545 267.780378 
L 933.954545 267.780378 
" clip-path="url(#pc47dbf712e)" style="fill: none; stroke: #ff7f0e; stroke-width: 1.5; stroke-linecap: square"/>
   </g>
   <g id="line2d_13">
    <path d="M 929.466352 343.967207 
" clip-path="url(#pc47dbf712e)" style="fill: none; stroke: #000000; stroke-width: 1.5; stroke-linecap: square"/>
    <defs>
     <path id="ma2a6b39c76" d="M 0 1 
C 0.265203 1 0.51958 0.894634 0.707107 0.707107 
C 0.894634 0.51958 1 0.265203 1 0 
C 1 -0.265203 0.894634 -0.51958 0.707107 -0.707107 
C 0.51958 -0.894634 0.265203 -1 0 -1 
C -0.265203 -1 -0.51958 -0.894634 -0.707107 -0.707107 
C -0.894634 -0.51958 -1 -0.265203 -1 0 
C -1 0.265203 -0.894634 0.51958 -0.707107 0.707107 
C -0.51958 0.894634 -0.265203 1 0 1 
z
" style="stroke: #000000"/>
    </defs>
    <g clip-path="url(#pc47dbf712e)">
     <use xlink:href="#ma2a6b39c76" x="173.045455" y="267.780378" style="stroke: #000000"/>
     <use xlink:href="#ma2a6b39c76" x="178.174819" y="343.967207" style="stroke: #000000"/>
     <use xlink:href="#ma2a6b39c76" x="183.14389" y="343.967207" style="stroke: #000000"/>
     <use xlink:href="#ma2a6b39c76" x="188.112961" y="267.780378" style="stroke: #000000"/>
     <use xlink:href="#ma2a6b39c76" x="193.082033" y="343.967207" style="stroke: #000000"/>
     <use xlink:href="#ma2a6b39c76" x="198.211397" y="343.967207" style="stroke: #000000"/>
     <use xlink:href="#ma2a6b39c76" x="203.180468" y="267.780378" style="stroke: #000000"/>
     <use xlink:href="#ma2a6b39c76" x="208.149539" y="343.967207" style="stroke: #000000"/>
     <use xlink:href="#ma2a6b39c76" x="213.118611" y="267.780378" style="stroke: #000000"/>
     <use xlink:href="#ma2a6b39c76" x="218.247975" y="343.967207" style="stroke: #000000"/>
     <use xlink:href="#ma2a6b39c76" x="223.217046" y="343.967207" style="stroke: #000000"/>
     <use xlink:href="#ma2a6b39c76" x="228.186118" y="267.780378" style="stroke: #000000"/>
     <use xlink:href="#ma2a6b39c76" x="233.155189" y="343.967207" style="stroke: #000000"/>
     <use xlink:href="#ma2a6b39c76" x="238.284553" y="343.967207" style="stroke: #000000"/>
     <use xlink:href="#ma2a6b39c76" x="243.253624" y="267.780378" style="stroke: #000000"/>
     <use xlink:href="#ma2a6b39c76" x="248.222696" y="343.967207" style="stroke: #000000"/>
     <use xlink:href="#ma2a6b39c76" x="253.191767" y="267.780378" style="stroke: #000000"/>
     <use xlink:href="#ma2a6b39c76" x="258.321131" y="343.967207" style="stroke: #000000"/>
     <use xlink:href="#ma2a6b39c76" x="263.290202" y="343.967207" style="stroke: #000000"/>
     <use xlink:href="#ma2a6b39c76" x="268.259274" y="267.780378" style="stroke: #000000"/>
     <use xlink:href="#ma2a6b39c76" x="273.228345" y="343.967207" style="stroke: #000000"/>
     <use xlink:href="#ma2a6b39c76" x="278.357709" y="343.967207" style="stroke: #000000"/>
     <use xlink:href="#ma2a6b39c76" x="283.326781" y="267.780378" style="stroke: #000000"/>
     <use xlink:href="#ma2a6b39c76" x="288.295852" y="343.967207" style="stroke: #000000"/>
     <use xlink:href="#ma2a6b39c76" x="293.264923" y="267.780378" style="stroke: #000000"/>
     <use xlink:href="#ma2a6b39c76" x="298.394287" y="343.967207" style="stroke: #000000"/>
     <use xlink:href="#ma2a6b39c76" x="303.363359" y="343.967207" style="stroke: #000000"/>
     <use xlink:href="#ma2a6b39c76" x="308.33243" y="267.780378" style="stroke: #000000"/>
     <use xlink:href="#ma2a6b39c76" x="313.301501" y="343.967207" style="stroke: #000000"/>
     <use xlink:href="#ma2a6b39c76" x="318.430865" y="343.967207" style="stroke: #000000"/>
     <use xlink:href="#ma2a6b39c76" x="323.399937" y="267.780378" style="stroke: #000000"/>
     <use xlink:href="#ma2a6b39c76" x="328.369008" y="343.967207" style="stroke: #000000"/>
     <use xlink:href="#ma2a6b39c76" x="333.33808" y="267.780378" style="stroke: #000000"/>
     <use xlink:href="#ma2a6b39c76" x="338.467444" y="343.967207" style="stroke: #000000"/>
     <use xlink:href="#ma2a6b39c76" x="343.436515" y="343.967207" style="stroke: #000000"/>
     <use xlink:href="#ma2a6b39c76" x="348.405586" y="267.780378" style="stroke: #000000"/>
     <use xlink:href="#ma2a6b39c76" x="353.374658" y="343.967207" style="stroke: #000000"/>
     <use xlink:href="#ma2a6b39c76" x="358.504022" y="343.967207" style="stroke: #000000"/>
     <use xlink:href="#ma2a6b39c76" x="363.473093" y="267.780378" style="stroke: #000000"/>
     <use xlink:href="#ma2a6b39c76" x="368.442164" y="343.967207" style="stroke: #000000"/>
     <use xlink:href="#ma2a6b39c76" x="373.411236" y="267.780378" style="stroke: #000000"/>
     <use xlink:href="#ma2a6b39c76" x="378.5406" y="343.967207" style="stroke: #000000"/>
     <use xlink:href="#ma2a6b39c76" x="383.509671" y="343.967207" style="stroke: #000000"/>
     <use xlink:href="#ma2a6b39c76" x="388.478743" y="267.780378" style="stroke: #000000"/>
     <use xlink:href="#ma2a6b39c76" x="393.447814" y="343.967207" style="stroke: #000000"/>
     <use xlink:href="#ma2a6b39c76" x="398.577178" y="343.967207" style="stroke: #000000"/>
     <use xlink:href="#ma2a6b39c76" x="403.546249" y="267.780378" style="stroke: #000000"/>
     <use xlink:href="#ma2a6b39c76" x="408.515321" y="343.967207" style="stroke: #000000"/>
     <use xlink:href="#ma2a6b39c76" x="413.484392" y="267.780378" style="stroke: #000000"/>
     <use xlink:href="#ma2a6b39c76" x="418.613756" y="343.967207" style="stroke: #000000"/>
     <use xlink:href="#ma2a6b39c76" x="423.582827" y="343.967207" style="stroke: #000000"/>
     <use xlink:href="#ma2a6b39c76" x="428.551899" y="267.780378" style="stroke: #000000"/>
     <use xlink:href="#ma2a6b39c76" x="433.52097" y="343.967207" style="stroke: #000000"/>
     <use xlink:href="#ma2a6b39c76" x="438.650334" y="343.967207" style="stroke: #000000"/>
     <use xlink:href="#ma2a6b39c76" x="443.619406" y="267.780378" style="stroke: #000000"/>
     <use xlink:href="#ma2a6b39c76" x="448.588477" y="343.967207" style="stroke: #000000"/>
     <use xlink:href="#ma2a6b39c76" x="453.557548" y="267.780378" style="stroke: #000000"/>
     <use xlink:href="#ma2a6b39c76" x="458.686912" y="343.967207" style="stroke: #000000"/>
     <use xlink:href="#ma2a6b39c76" x="463.655984" y="343.967207" style="stroke: #000000"/>
     <use xlink:href="#ma2a6b39c76" x="468.625055" y="267.780378" style="stroke: #000000"/>
     <use xlink:href="#ma2a6b39c76" x="473.594126" y="343.967207" style="stroke: #000000"/>
     <use xlink:href="#ma2a6b39c76" x="478.72349" y="343.967207" style="stroke: #000000"/>
     <use xlink:href="#ma2a6b39c76" x="483.692562" y="267.780378" style="stroke: #000000"/>
     <use xlink:href="#ma2a6b39c76" x="488.661633" y="343.967207" style="stroke: #000000"/>
     <use xlink:href="#ma2a6b39c76" x="493.630705" y="267.780378" style="stroke: #000000"/>
     <use xlink:href="#ma2a6b39c76" x="498.760069" y="343.967207" style="stroke: #000000"/>
     <use xlink:href="#ma2a6b39c76" x="503.72914" y="343.967207" style="stroke: #000000"/>
     <use xlink:href="#ma2a6b39c76" x="508.698211" y="267.780378" style="stroke: #000000"/>
     <use xlink:href="#ma2a6b39c76" x="513.667283" y="343.967207" style="stroke: #000000"/>
     <use xlink:href="#ma2a6b39c76" x="518.796647" y="343.967207" style="stroke: #000000"/>
     <use xlink:href="#ma2a6b39c76" x="523.765718" y="267.780378" style="stroke: #000000"/>
     <use xlink:href="#ma2a6b39c76" x="528.734789" y="343.967207" style="stroke: #000000"/>
     <use xlink:href="#ma2a6b39c76" x="533.703861" y="267.780378" style="stroke: #000000"/>
     <use xlink:href="#ma2a6b39c76" x="538.833225" y="343.967207" style="stroke: #000000"/>
     <use xlink:href="#ma2a6b39c76" x="543.802296" y="343.967207" style="stroke: #000000"/>
     <use xlink:href="#ma2a6b39c76" x="548.771368" y="267.780378" style="stroke: #000000"/>
     <use xlink:href="#ma2a6b39c76" x="553.740439" y="343.967207" style="stroke: #000000"/>
     <use xlink:href="#ma2a6b39c76" x="558.869803" y="343.967207" style="stroke: #000000"/>
     <use xlink:href="#ma2a6b39c76" x="563.838874" y="267.780378" style="stroke: #000000"/>
     <use xlink:href="#ma2a6b39c76" x="568.807946" y="343.967207" style="stroke: #000000"/>
     <use xlink:href="#ma2a6b39c76" x="573.777017" y="267.780378" style="stroke: #000000"/>
     <use xlink:href="#ma2a6b39c76" x="578.906381" y="343.967207" style="stroke: #000000"/>
     <use xlink:href="#ma2a6b39c76" x="583.875452" y="343.967207" style="stroke: #000000"/>
     <use xlink:href="#ma2a6b39c76" x="588.844524" y="267.780378" style="stroke: #000000"/>
     <use xlink:href="#ma2a6b39c76" x="593.813595" y="343.967207" style="stroke: #000000"/>
     <use xlink:href="#ma2a6b39c76" x="598.942959" y="343.967207" style="stroke: #000000"/>
     <use xlink:href="#ma2a6b39c76" x="603.912031" y="267.780378" style="stroke: #000000"/>
     <use xlink:href="#ma2a6b39c76" x="608.881102" y="343.967207" style="stroke: #000000"/>
     <use xlink:href="#ma2a6b39c76" x="613.850173" y="267.780378" style="stroke: #000000"/>
     <use xlink:href="#ma2a6b39c76" x="618.979537" y="343.967207" style="stroke: #000000"/>
     <use xlink:href="#ma2a6b39c76" x="623.948609" y="343.967207" style="stroke: #000000"/>
     <use xlink:href="#ma2a6b39c76" x="628.91768" y="267.780378" style="stroke: #000000"/>
     <use xlink:href="#ma2a6b39c76" x="633.886751" y="343.967207" style="stroke: #000000"/>
     <use xlink:href="#ma2a6b39c76" x="639.016115" y="343.967207" style="stroke: #000000"/>
     <use xlink:href="#ma2a6b39c76" x="643.985187" y="267.780378" style="stroke: #000000"/>
     <use xlink:href="#ma2a6b39c76" x="648.954258" y="343.967207" style="stroke: #000000"/>
     <use xlink:href="#ma2a6b39c76" x="653.92333" y="267.780378" style="stroke: #000000"/>
     <use xlink:href="#ma2a6b39c76" x="659.052694" y="343.967207" style="stroke: #000000"/>
     <use xlink:href="#ma2a6b39c76" x="664.021765" y="343.967207" style="stroke: #000000"/>
     <use xlink:href="#ma2a6b39c76" x="668.990836" y="267.780378" style="stroke: #000000"/>
     <use xlink:href="#ma2a6b39c76" x="673.959908" y="343.967207" style="stroke: #000000"/>
     <use xlink:href="#ma2a6b39c76" x="679.089272" y="343.967207" style="stroke: #000000"/>
     <use xlink:href="#ma2a6b39c76" x="684.058343" y="267.780378" style="stroke: #000000"/>
     <use xlink:href="#ma2a6b39c76" x="689.027414" y="343.967207" style="stroke: #000000"/>
     <use xlink:href="#ma2a6b39c76" x="693.996486" y="267.780378" style="stroke: #000000"/>
     <use xlink:href="#ma2a6b39c76" x="699.12585" y="343.967207" style="stroke: #000000"/>
     <use xlink:href="#ma2a6b39c76" x="704.094921" y="343.967207" style="stroke: #000000"/>
     <use xlink:href="#ma2a6b39c76" x="709.063993" y="267.780378" style="stroke: #000000"/>
     <use xlink:href="#ma2a6b39c76" x="714.033064" y="343.967207" style="stroke: #000000"/>
     <use xlink:href="#ma2a6b39c76" x="719.162428" y="343.967207" style="stroke: #000000"/>
     <use xlink:href="#ma2a6b39c76" x="724.131499" y="267.780378" style="stroke: #000000"/>
     <use xlink:href="#ma2a6b39c76" x="729.100571" y="343.967207" style="stroke: #000000"/>
     <use xlink:href="#ma2a6b39c76" x="734.069642" y="267.780378" style="stroke: #000000"/>
     <use xlink:href="#ma2a6b39c76" x="739.199006" y="343.967207" style="stroke: #000000"/>
     <use xlink:href="#ma2a6b39c76" x="744.168077" y="343.967207" style="stroke: #000000"/>
     <use xlink:href="#ma2a6b39c76" x="749.137149" y="267.780378" style="stroke: #000000"/>
     <use xlink:href="#ma2a6b39c76" x="754.10622" y="343.967207" style="stroke: #000000"/>
     <use xlink:href="#ma2a6b39c76" x="759.235584" y="343.967207" style="stroke: #000000"/>
     <use xlink:href="#ma2a6b39c76" x="764.204656" y="267.780378" style="stroke: #000000"/>
     <use xlink:href="#ma2a6b39c76" x="769.173727" y="343.967207" style="stroke: #000000"/>
     <use xlink:href="#ma2a6b39c76" x="774.142798" y="267.780378" style="stroke: #000000"/>
     <use xlink:href="#ma2a6b39c76" x="779.272162" y="343.967207" style="stroke: #000000"/>
     <use xlink:href="#ma2a6b39c76" x="784.241234" y="343.967207" style="stroke: #000000"/>
     <use xlink:href="#ma2a6b39c76" x="789.210305" y="267.780378" style="stroke: #000000"/>
     <use xlink:href="#ma2a6b39c76" x="794.179376" y="343.967207" style="stroke: #000000"/>
     <use xlink:href="#ma2a6b39c76" x="799.30874" y="343.967207" style="stroke: #000000"/>
     <use xlink:href="#ma2a6b39c76" x="804.277812" y="267.780378" style="stroke: #000000"/>
     <use xlink:href="#ma2a6b39c76" x="809.246883" y="343.967207" style="stroke: #000000"/>
     <use xlink:href="#ma2a6b39c76" x="814.215955" y="267.780378" style="stroke: #000000"/>
     <use xlink:href="#ma2a6b39c76" x="819.345319" y="343.967207" style="stroke: #000000"/>
     <use xlink:href="#ma2a6b39c76" x="824.31439" y="343.967207" style="stroke: #000000"/>
     <use xlink:href="#ma2a6b39c76" x="829.283461" y="267.780378" style="stroke: #000000"/>
     <use xlink:href="#ma2a6b39c76" x="834.252533" y="343.967207" style="stroke: #000000"/>
     <use xlink:href="#ma2a6b39c76" x="839.381897" y="343.967207" style="stroke: #000000"/>
     <use xlink:href="#ma2a6b39c76" x="844.350968" y="267.780378" style="stroke: #000000"/>
     <use xlink:href="#ma2a6b39c76" x="849.320039" y="343.967207" style="stroke: #000000"/>
     <use xlink:href="#ma2a6b39c76" x="854.289111" y="267.780378" style="stroke: #000000"/>
     <use xlink:href="#ma2a6b39c76" x="859.418475" y="343.967207" style="stroke: #000000"/>
     <use xlink:href="#ma2a6b39c76" x="864.387546" y="343.967207" style="stroke: #000000"/>
     <use xlink:href="#ma2a6b39c76" x="869.356618" y="267.780378" style="stroke: #000000"/>
     <use xlink:href="#ma2a6b39c76" x="874.325689" y="343.967207" style="stroke: #000000"/>
     <use xlink:href="#ma2a6b39c76" x="879.455053" y="343.967207" style="stroke: #000000"/>
     <use xlink:href="#ma2a6b39c76" x="884.424124" y="267.780378" style="stroke: #000000"/>
     <use xlink:href="#ma2a6b39c76" x="889.393196" y="343.967207" style="stroke: #000000"/>
     <use xlink:href="#ma2a6b39c76" x="894.362267" y="267.780378" style="stroke: #000000"/>
     <use xlink:href="#ma2a6b39c76" x="899.491631" y="343.967207" style="stroke: #000000"/>
     <use xlink:href="#ma2a6b39c76" x="904.460702" y="343.967207" style="stroke: #000000"/>
     <use xlink:href="#ma2a6b39c76" x="909.429774" y="267.780378" style="stroke: #000000"/>
     <use xlink:href="#ma2a6b39c76" x="914.398845" y="343.967207" style="stroke: #000000"/>
     <use xlink:href="#ma2a6b39c76" x="919.528209" y="343.967207" style="stroke: #000000"/>
     <use xlink:href="#ma2a6b39c76" x="924.497281" y="267.780378" style="stroke: #000000"/>
     <use xlink:href="#ma2a6b39c76" x="929.466352" y="343.967207" style="stroke: #000000"/>
    </g>
   </g>
   <g id="patch_3">
    <path d="M 135 448.56 
L 135 60.48 
" style="fill: none; stroke: #000000; stroke-width: 0.8; stroke-linejoin: miter; stroke-linecap: square"/>
   </g>
   <g id="patch_4">
    <path d="M 972 448.56 
L 972 60.48 
" style="fill: none; stroke: #000000; stroke-width: 0.8; stroke-linejoin: miter; stroke-linecap: square"/>
   </g>
   <g id="patch_5">
    <path d="M 135 448.56 
L 972 448.56 
" style="fill: none; stroke: #000000; stroke-width: 0.8; stroke-linejoin: miter; stroke-linecap: square"/>
   </g>
   <g id="patch_6">
    <path d="M 135 60.48 
L 972 60.48 
" style="fill: none; stroke: #000000; stroke-width: 0.8; stroke-linejoin: miter; stroke-linecap: square"/>
   </g>
   <g id="legend_1">
    <g id="patch_7">
     <path d="M 895.915625 113.070625 
L 965 113.070625 
Q 967 113.070625 967 111.070625 
L 967 67.48 
Q 967 65.48 965 65.48 
L 895.915625 65.48 
Q 893.915625 65.48 893.915625 67.48 
L 893.915625 111.070625 
Q 893.915625 113.070625 895.915625 113.070625 
z
" style="fill: #ffffff; opacity: 0.8; stroke: #cccccc; stroke-linejoin: miter"/>
    </g>
    <g id="line2d_14">
     <path d="M 897.915625 73.578438 
L 907.915625 73.578438 
L 917.915625 73.578438 
" style="fill: none; stroke: #1f77b4; stroke-width: 1.5; stroke-linecap: square"/>
    </g>
    <g id="text_12">
     <!-- nw_0 -->
     <g transform="translate(925.915625 77.078438) scale(0.1 -0.1)">
      <defs>
       <path id="DejaVuSans-6e" d="M 3513 2113 
L 3513 0 
L 2938 0 
L 2938 2094 
Q 2938 2591 2744 2837 
Q 2550 3084 2163 3084 
Q 1697 3084 1428 2787 
Q 1159 2491 1159 1978 
L 1159 0 
L 581 0 
L 581 3500 
L 1159 3500 
L 1159 2956 
Q 1366 3272 1645 3428 
Q 1925 3584 2291 3584 
Q 2894 3584 3203 3211 
Q 3513 2838 3513 2113 
z
" transform="scale(0.015625)"/>
       <path id="DejaVuSans-77" d="M 269 3500 
L 844 3500 
L 1563 769 
L 2278 3500 
L 2956 3500 
L 3675 769 
L 4391 3500 
L 4966 3500 
L 4050 0 
L 3372 0 
L 2619 2869 
L 1863 0 
L 1184 0 
L 269 3500 
z
" transform="scale(0.015625)"/>
       <path id="DejaVuSans-5f" d="M 3263 -1063 
L 3263 -1509 
L -63 -1509 
L -63 -1063 
L 3263 -1063 
z
" transform="scale(0.015625)"/>
      </defs>
      <use xlink:href="#DejaVuSans-6e"/>
      <use xlink:href="#DejaVuSans-77" x="63.378906"/>
      <use xlink:href="#DejaVuSans-5f" x="145.166016"/>
      <use xlink:href="#DejaVuSans-30" x="195.166016"/>
     </g>
    </g>
    <g id="line2d_15">
     <path d="M 897.915625 88.534688 
L 907.915625 88.534688 
L 917.915625 88.534688 
" style="fill: none; stroke: #ff7f0e; stroke-width: 1.5; stroke-linecap: square"/>
    </g>
    <g id="text_13">
     <!-- input_0 -->
     <g transform="translate(925.915625 92.034688) scale(0.1 -0.1)">
      <defs>
       <path id="DejaVuSans-69" d="M 603 3500 
L 1178 3500 
L 1178 0 
L 603 0 
L 603 3500 
z
M 603 4863 
L 1178 4863 
L 1178 4134 
L 603 4134 
L 603 4863 
z
" transform="scale(0.015625)"/>
       <path id="DejaVuSans-70" d="M 1159 525 
L 1159 -1331 
L 581 -1331 
L 581 3500 
L 1159 3500 
L 1159 2969 
Q 1341 3281 1617 3432 
Q 1894 3584 2278 3584 
Q 2916 3584 3314 3078 
Q 3713 2572 3713 1747 
Q 3713 922 3314 415 
Q 2916 -91 2278 -91 
Q 1894 -91 1617 61 
Q 1341 213 1159 525 
z
M 3116 1747 
Q 3116 2381 2855 2742 
Q 2594 3103 2138 3103 
Q 1681 3103 1420 2742 
Q 1159 2381 1159 1747 
Q 1159 1113 1420 752 
Q 1681 391 2138 391 
Q 2594 391 2855 752 
Q 3116 1113 3116 1747 
z
" transform="scale(0.015625)"/>
       <path id="DejaVuSans-75" d="M 544 1381 
L 544 3500 
L 1119 3500 
L 1119 1403 
Q 1119 906 1312 657 
Q 1506 409 1894 409 
Q 2359 409 2629 706 
Q 2900 1003 2900 1516 
L 2900 3500 
L 3475 3500 
L 3475 0 
L 2900 0 
L 2900 538 
Q 2691 219 2414 64 
Q 2138 -91 1772 -91 
Q 1169 -91 856 284 
Q 544 659 544 1381 
z
M 1991 3584 
L 1991 3584 
z
" transform="scale(0.015625)"/>
      </defs>
      <use xlink:href="#DejaVuSans-69"/>
      <use xlink:href="#DejaVuSans-6e" x="27.783203"/>
      <use xlink:href="#DejaVuSans-70" x="91.162109"/>
      <use xlink:href="#DejaVuSans-75" x="154.638672"/>
      <use xlink:href="#DejaVuSans-74" x="218.017578"/>
      <use xlink:href="#DejaVuSans-5f" x="257.226562"/>
      <use xlink:href="#DejaVuSans-30" x="307.226562"/>
     </g>
    </g>
    <g id="line2d_16">
     <path d="M 897.915625 103.490938 
L 907.915625 103.490938 
L 917.915625 103.490938 
" style="fill: none; stroke: #000000; stroke-width: 1.5; stroke-linecap: square"/>
     <g>
      <use xlink:href="#ma2a6b39c76" x="907.915625" y="103.490938" style="stroke: #000000"/>
     </g>
    </g>
    <g id="text_14">
     <!-- target -->
     <g transform="translate(925.915625 106.990938) scale(0.1 -0.1)">
      <defs>
       <path id="DejaVuSans-61" d="M 2194 1759 
Q 1497 1759 1228 1600 
Q 959 1441 959 1056 
Q 959 750 1161 570 
Q 1363 391 1709 391 
Q 2188 391 2477 730 
Q 2766 1069 2766 1631 
L 2766 1759 
L 2194 1759 
z
M 3341 1997 
L 3341 0 
L 2766 0 
L 2766 531 
Q 2569 213 2275 61 
Q 1981 -91 1556 -91 
Q 1019 -91 701 211 
Q 384 513 384 1019 
Q 384 1609 779 1909 
Q 1175 2209 1959 2209 
L 2766 2209 
L 2766 2266 
Q 2766 2663 2505 2880 
Q 2244 3097 1772 3097 
Q 1472 3097 1187 3025 
Q 903 2953 641 2809 
L 641 3341 
Q 956 3463 1253 3523 
Q 1550 3584 1831 3584 
Q 2591 3584 2966 3190 
Q 3341 2797 3341 1997 
z
" transform="scale(0.015625)"/>
       <path id="DejaVuSans-72" d="M 2631 2963 
Q 2534 3019 2420 3045 
Q 2306 3072 2169 3072 
Q 1681 3072 1420 2755 
Q 1159 2438 1159 1844 
L 1159 0 
L 581 0 
L 581 3500 
L 1159 3500 
L 1159 2956 
Q 1341 3275 1631 3429 
Q 1922 3584 2338 3584 
Q 2397 3584 2469 3576 
Q 2541 3569 2628 3553 
L 2631 2963 
z
" transform="scale(0.015625)"/>
       <path id="DejaVuSans-67" d="M 2906 1791 
Q 2906 2416 2648 2759 
Q 2391 3103 1925 3103 
Q 1463 3103 1205 2759 
Q 947 2416 947 1791 
Q 947 1169 1205 825 
Q 1463 481 1925 481 
Q 2391 481 2648 825 
Q 2906 1169 2906 1791 
z
M 3481 434 
Q 3481 -459 3084 -895 
Q 2688 -1331 1869 -1331 
Q 1566 -1331 1297 -1286 
Q 1028 -1241 775 -1147 
L 775 -588 
Q 1028 -725 1275 -790 
Q 1522 -856 1778 -856 
Q 2344 -856 2625 -561 
Q 2906 -266 2906 331 
L 2906 616 
Q 2728 306 2450 153 
Q 2172 0 1784 0 
Q 1141 0 747 490 
Q 353 981 353 1791 
Q 353 2603 747 3093 
Q 1141 3584 1784 3584 
Q 2172 3584 2450 3431 
Q 2728 3278 2906 2969 
L 2906 3500 
L 3481 3500 
L 3481 434 
z
" transform="scale(0.015625)"/>
       <path id="DejaVuSans-65" d="M 3597 1894 
L 3597 1613 
L 953 1613 
Q 991 1019 1311 708 
Q 1631 397 2203 397 
Q 2534 397 2845 478 
Q 3156 559 3463 722 
L 3463 178 
Q 3153 47 2828 -22 
Q 2503 -91 2169 -91 
Q 1331 -91 842 396 
Q 353 884 353 1716 
Q 353 2575 817 3079 
Q 1281 3584 2069 3584 
Q 2775 3584 3186 3129 
Q 3597 2675 3597 1894 
z
M 3022 2063 
Q 3016 2534 2758 2815 
Q 2500 3097 2075 3097 
Q 1594 3097 1305 2825 
Q 1016 2553 972 2059 
L 3022 2063 
z
" transform="scale(0.015625)"/>
      </defs>
      <use xlink:href="#DejaVuSans-74"/>
      <use xlink:href="#DejaVuSans-61" x="39.208984"/>
      <use xlink:href="#DejaVuSans-72" x="100.488281"/>
      <use xlink:href="#DejaVuSans-67" x="139.851562"/>
      <use xlink:href="#DejaVuSans-65" x="203.328125"/>
      <use xlink:href="#DejaVuSans-74" x="264.851562"/>
     </g>
    </g>
   </g>
  </g>
 </g>
 <defs>
  <clipPath id="pc47dbf712e">
   <rect x="135" y="60.48" width="837" height="388.08"/>
  </clipPath>
 </defs>
</svg>
