<?xml version="1.0" encoding="utf-8" standalone="no"?>
<!DOCTYPE svg PUBLIC "-//W3C//DTD SVG 1.1//EN"
  "http://www.w3.org/Graphics/SVG/1.1/DTD/svg11.dtd">
<svg xmlns:xlink="http://www.w3.org/1999/xlink" width="1080pt" height="504pt" viewBox="0 0 1080 504" xmlns="http://www.w3.org/2000/svg" version="1.1">
 <metadata>
  <rdf:RDF xmlns:dc="http://purl.org/dc/elements/1.1/" xmlns:cc="http://creativecommons.org/ns#" xmlns:rdf="http://www.w3.org/1999/02/22-rdf-syntax-ns#">
   <cc:Work>
    <dc:type rdf:resource="http://purl.org/dc/dcmitype/StillImage"/>
    <dc:date>2024-05-09T11:12:48.727242</dc:date>
    <dc:format>image/svg+xml</dc:format>
    <dc:creator>
     <cc:Agent>
      <dc:title>Matplotlib v3.7.1, https://matplotlib.org/</dc:title>
     </cc:Agent>
    </dc:creator>
   </cc:Work>
  </rdf:RDF>
 </metadata>
 <defs>
  <style type="text/css">*{stroke-linejoin: round; stroke-linecap: butt}</style>
 </defs>
 <g id="figure_1">
  <g id="patch_1">
   <path d="M 0 504 
L 1080 504 
L 1080 0 
L 0 0 
z
" style="fill: #ffffff"/>
  </g>
  <g id="axes_1">
   <g id="patch_2">
    <path d="M 135 448.56 
L 972 448.56 
L 972 60.48 
L 135 60.48 
z
" style="fill: #ffffff"/>
   </g>
   <g id="matplotlib.axis_1">
    <g id="xtick_1">
     <g id="line2d_1">
      <defs>
       <path id="m1c9a825827" d="M 0 0 
L 0 3.5 
" style="stroke: #000000; stroke-width: 0.8"/>
      </defs>
      <g>
       <use xlink:href="#m1c9a825827" x="173.045455" y="448.56" style="stroke: #000000; stroke-width: 0.8"/>
      </g>
     </g>
     <g id="text_1">
      <!-- 0 -->
      <g transform="translate(169.864205 463.158437) scale(0.1 -0.1)">
       <defs>
        <path id="DejaVuSans-30" d="M 2034 4250 
Q 1547 4250 1301 3770 
Q 1056 3291 1056 2328 
Q 1056 1369 1301 889 
Q 1547 409 2034 409 
Q 2525 409 2770 889 
Q 3016 1369 3016 2328 
Q 3016 3291 2770 3770 
Q 2525 4250 2034 4250 
z
M 2034 4750 
Q 2819 4750 3233 4129 
Q 3647 3509 3647 2328 
Q 3647 1150 3233 529 
Q 2819 -91 2034 -91 
Q 1250 -91 836 529 
Q 422 1150 422 2328 
Q 422 3509 836 4129 
Q 1250 4750 2034 4750 
z
" transform="scale(0.015625)"/>
       </defs>
       <use xlink:href="#DejaVuSans-30"/>
      </g>
     </g>
    </g>
    <g id="xtick_2">
     <g id="line2d_2">
      <g>
       <use xlink:href="#m1c9a825827" x="333.33808" y="448.56" style="stroke: #000000; stroke-width: 0.8"/>
      </g>
     </g>
     <g id="text_2">
      <!-- 1000 -->
      <g transform="translate(320.61308 463.158437) scale(0.1 -0.1)">
       <defs>
        <path id="DejaVuSans-31" d="M 794 531 
L 1825 531 
L 1825 4091 
L 703 3866 
L 703 4441 
L 1819 4666 
L 2450 4666 
L 2450 531 
L 3481 531 
L 3481 0 
L 794 0 
L 794 531 
z
" transform="scale(0.015625)"/>
       </defs>
       <use xlink:href="#DejaVuSans-31"/>
       <use xlink:href="#DejaVuSans-30" x="63.623047"/>
       <use xlink:href="#DejaVuSans-30" x="127.246094"/>
       <use xlink:href="#DejaVuSans-30" x="190.869141"/>
      </g>
     </g>
    </g>
    <g id="xtick_3">
     <g id="line2d_3">
      <g>
       <use xlink:href="#m1c9a825827" x="493.630705" y="448.56" style="stroke: #000000; stroke-width: 0.8"/>
      </g>
     </g>
     <g id="text_3">
      <!-- 2000 -->
      <g transform="translate(480.905705 463.158437) scale(0.1 -0.1)">
       <defs>
        <path id="DejaVuSans-32" d="M 1228 531 
L 3431 531 
L 3431 0 
L 469 0 
L 469 531 
Q 828 903 1448 1529 
Q 2069 2156 2228 2338 
Q 2531 2678 2651 2914 
Q 2772 3150 2772 3378 
Q 2772 3750 2511 3984 
Q 2250 4219 1831 4219 
Q 1534 4219 1204 4116 
Q 875 4013 500 3803 
L 500 4441 
Q 881 4594 1212 4672 
Q 1544 4750 1819 4750 
Q 2544 4750 2975 4387 
Q 3406 4025 3406 3419 
Q 3406 3131 3298 2873 
Q 3191 2616 2906 2266 
Q 2828 2175 2409 1742 
Q 1991 1309 1228 531 
z
" transform="scale(0.015625)"/>
       </defs>
       <use xlink:href="#DejaVuSans-32"/>
       <use xlink:href="#DejaVuSans-30" x="63.623047"/>
       <use xlink:href="#DejaVuSans-30" x="127.246094"/>
       <use xlink:href="#DejaVuSans-30" x="190.869141"/>
      </g>
     </g>
    </g>
    <g id="xtick_4">
     <g id="line2d_4">
      <g>
       <use xlink:href="#m1c9a825827" x="653.92333" y="448.56" style="stroke: #000000; stroke-width: 0.8"/>
      </g>
     </g>
     <g id="text_4">
      <!-- 3000 -->
      <g transform="translate(641.19833 463.158437) scale(0.1 -0.1)">
       <defs>
        <path id="DejaVuSans-33" d="M 2597 2516 
Q 3050 2419 3304 2112 
Q 3559 1806 3559 1356 
Q 3559 666 3084 287 
Q 2609 -91 1734 -91 
Q 1441 -91 1130 -33 
Q 819 25 488 141 
L 488 750 
Q 750 597 1062 519 
Q 1375 441 1716 441 
Q 2309 441 2620 675 
Q 2931 909 2931 1356 
Q 2931 1769 2642 2001 
Q 2353 2234 1838 2234 
L 1294 2234 
L 1294 2753 
L 1863 2753 
Q 2328 2753 2575 2939 
Q 2822 3125 2822 3475 
Q 2822 3834 2567 4026 
Q 2313 4219 1838 4219 
Q 1578 4219 1281 4162 
Q 984 4106 628 3988 
L 628 4550 
Q 988 4650 1302 4700 
Q 1616 4750 1894 4750 
Q 2613 4750 3031 4423 
Q 3450 4097 3450 3541 
Q 3450 3153 3228 2886 
Q 3006 2619 2597 2516 
z
" transform="scale(0.015625)"/>
       </defs>
       <use xlink:href="#DejaVuSans-33"/>
       <use xlink:href="#DejaVuSans-30" x="63.623047"/>
       <use xlink:href="#DejaVuSans-30" x="127.246094"/>
       <use xlink:href="#DejaVuSans-30" x="190.869141"/>
      </g>
     </g>
    </g>
    <g id="xtick_5">
     <g id="line2d_5">
      <g>
       <use xlink:href="#m1c9a825827" x="814.215955" y="448.56" style="stroke: #000000; stroke-width: 0.8"/>
      </g>
     </g>
     <g id="text_5">
      <!-- 4000 -->
      <g transform="translate(801.490955 463.158437) scale(0.1 -0.1)">
       <defs>
        <path id="DejaVuSans-34" d="M 2419 4116 
L 825 1625 
L 2419 1625 
L 2419 4116 
z
M 2253 4666 
L 3047 4666 
L 3047 1625 
L 3713 1625 
L 3713 1100 
L 3047 1100 
L 3047 0 
L 2419 0 
L 2419 1100 
L 313 1100 
L 313 1709 
L 2253 4666 
z
" transform="scale(0.015625)"/>
       </defs>
       <use xlink:href="#DejaVuSans-34"/>
       <use xlink:href="#DejaVuSans-30" x="63.623047"/>
       <use xlink:href="#DejaVuSans-30" x="127.246094"/>
       <use xlink:href="#DejaVuSans-30" x="190.869141"/>
      </g>
     </g>
    </g>
    <g id="text_6">
     <!-- t -->
     <g transform="translate(551.539844 476.836563) scale(0.1 -0.1)">
      <defs>
       <path id="DejaVuSans-74" d="M 1172 4494 
L 1172 3500 
L 2356 3500 
L 2356 3053 
L 1172 3053 
L 1172 1153 
Q 1172 725 1289 603 
Q 1406 481 1766 481 
L 2356 481 
L 2356 0 
L 1766 0 
Q 1100 0 847 248 
Q 594 497 594 1153 
L 594 3053 
L 172 3053 
L 172 3500 
L 594 3500 
L 594 4494 
L 1172 4494 
z
" transform="scale(0.015625)"/>
      </defs>
      <use xlink:href="#DejaVuSans-74"/>
     </g>
    </g>
   </g>
   <g id="matplotlib.axis_2">
    <g id="ytick_1">
     <g id="line2d_6">
      <defs>
       <path id="m104f632c05" d="M 0 0 
L -3.5 0 
" style="stroke: #000000; stroke-width: 0.8"/>
      </defs>
      <g>
       <use xlink:href="#m104f632c05" x="135" y="446.25258" style="stroke: #000000; stroke-width: 0.8"/>
      </g>
     </g>
     <g id="text_7">
      <!-- −0.2 -->
      <g transform="translate(103.717187 450.051799) scale(0.1 -0.1)">
       <defs>
        <path id="DejaVuSans-2212" d="M 678 2272 
L 4684 2272 
L 4684 1741 
L 678 1741 
L 678 2272 
z
" transform="scale(0.015625)"/>
        <path id="DejaVuSans-2e" d="M 684 794 
L 1344 794 
L 1344 0 
L 684 0 
L 684 794 
z
" transform="scale(0.015625)"/>
       </defs>
       <use xlink:href="#DejaVuSans-2212"/>
       <use xlink:href="#DejaVuSans-30" x="83.789062"/>
       <use xlink:href="#DejaVuSans-2e" x="147.412109"/>
       <use xlink:href="#DejaVuSans-32" x="179.199219"/>
      </g>
     </g>
    </g>
    <g id="ytick_2">
     <g id="line2d_7">
      <g>
       <use xlink:href="#m104f632c05" x="135" y="399.352081" style="stroke: #000000; stroke-width: 0.8"/>
      </g>
     </g>
     <g id="text_8">
      <!-- 0.0 -->
      <g transform="translate(112.096875 403.1513) scale(0.1 -0.1)">
       <use xlink:href="#DejaVuSans-30"/>
       <use xlink:href="#DejaVuSans-2e" x="63.623047"/>
       <use xlink:href="#DejaVuSans-30" x="95.410156"/>
      </g>
     </g>
    </g>
    <g id="ytick_3">
     <g id="line2d_8">
      <g>
       <use xlink:href="#m104f632c05" x="135" y="352.451583" style="stroke: #000000; stroke-width: 0.8"/>
      </g>
     </g>
     <g id="text_9">
      <!-- 0.2 -->
      <g transform="translate(112.096875 356.250802) scale(0.1 -0.1)">
       <use xlink:href="#DejaVuSans-30"/>
       <use xlink:href="#DejaVuSans-2e" x="63.623047"/>
       <use xlink:href="#DejaVuSans-32" x="95.410156"/>
      </g>
     </g>
    </g>
    <g id="ytick_4">
     <g id="line2d_9">
      <g>
       <use xlink:href="#m104f632c05" x="135" y="305.551084" style="stroke: #000000; stroke-width: 0.8"/>
      </g>
     </g>
     <g id="text_10">
      <!-- 0.4 -->
      <g transform="translate(112.096875 309.350303) scale(0.1 -0.1)">
       <use xlink:href="#DejaVuSans-30"/>
       <use xlink:href="#DejaVuSans-2e" x="63.623047"/>
       <use xlink:href="#DejaVuSans-34" x="95.410156"/>
      </g>
     </g>
    </g>
    <g id="ytick_5">
     <g id="line2d_10">
      <g>
       <use xlink:href="#m104f632c05" x="135" y="258.650586" style="stroke: #000000; stroke-width: 0.8"/>
      </g>
     </g>
     <g id="text_11">
      <!-- 0.6 -->
      <g transform="translate(112.096875 262.449804) scale(0.1 -0.1)">
       <defs>
        <path id="DejaVuSans-36" d="M 2113 2584 
Q 1688 2584 1439 2293 
Q 1191 2003 1191 1497 
Q 1191 994 1439 701 
Q 1688 409 2113 409 
Q 2538 409 2786 701 
Q 3034 994 3034 1497 
Q 3034 2003 2786 2293 
Q 2538 2584 2113 2584 
z
M 3366 4563 
L 3366 3988 
Q 3128 4100 2886 4159 
Q 2644 4219 2406 4219 
Q 1781 4219 1451 3797 
Q 1122 3375 1075 2522 
Q 1259 2794 1537 2939 
Q 1816 3084 2150 3084 
Q 2853 3084 3261 2657 
Q 3669 2231 3669 1497 
Q 3669 778 3244 343 
Q 2819 -91 2113 -91 
Q 1303 -91 875 529 
Q 447 1150 447 2328 
Q 447 3434 972 4092 
Q 1497 4750 2381 4750 
Q 2619 4750 2861 4703 
Q 3103 4656 3366 4563 
z
" transform="scale(0.015625)"/>
       </defs>
       <use xlink:href="#DejaVuSans-30"/>
       <use xlink:href="#DejaVuSans-2e" x="63.623047"/>
       <use xlink:href="#DejaVuSans-36" x="95.410156"/>
      </g>
     </g>
    </g>
    <g id="ytick_6">
     <g id="line2d_11">
      <g>
       <use xlink:href="#m104f632c05" x="135" y="211.750087" style="stroke: #000000; stroke-width: 0.8"/>
      </g>
     </g>
     <g id="text_12">
      <!-- 0.8 -->
      <g transform="translate(112.096875 215.549306) scale(0.1 -0.1)">
       <defs>
        <path id="DejaVuSans-38" d="M 2034 2216 
Q 1584 2216 1326 1975 
Q 1069 1734 1069 1313 
Q 1069 891 1326 650 
Q 1584 409 2034 409 
Q 2484 409 2743 651 
Q 3003 894 3003 1313 
Q 3003 1734 2745 1975 
Q 2488 2216 2034 2216 
z
M 1403 2484 
Q 997 2584 770 2862 
Q 544 3141 544 3541 
Q 544 4100 942 4425 
Q 1341 4750 2034 4750 
Q 2731 4750 3128 4425 
Q 3525 4100 3525 3541 
Q 3525 3141 3298 2862 
Q 3072 2584 2669 2484 
Q 3125 2378 3379 2068 
Q 3634 1759 3634 1313 
Q 3634 634 3220 271 
Q 2806 -91 2034 -91 
Q 1263 -91 848 271 
Q 434 634 434 1313 
Q 434 1759 690 2068 
Q 947 2378 1403 2484 
z
M 1172 3481 
Q 1172 3119 1398 2916 
Q 1625 2713 2034 2713 
Q 2441 2713 2670 2916 
Q 2900 3119 2900 3481 
Q 2900 3844 2670 4047 
Q 2441 4250 2034 4250 
Q 1625 4250 1398 4047 
Q 1172 3844 1172 3481 
z
" transform="scale(0.015625)"/>
       </defs>
       <use xlink:href="#DejaVuSans-30"/>
       <use xlink:href="#DejaVuSans-2e" x="63.623047"/>
       <use xlink:href="#DejaVuSans-38" x="95.410156"/>
      </g>
     </g>
    </g>
    <g id="ytick_7">
     <g id="line2d_12">
      <g>
       <use xlink:href="#m104f632c05" x="135" y="164.849588" style="stroke: #000000; stroke-width: 0.8"/>
      </g>
     </g>
     <g id="text_13">
      <!-- 1.0 -->
      <g transform="translate(112.096875 168.648807) scale(0.1 -0.1)">
       <use xlink:href="#DejaVuSans-31"/>
       <use xlink:href="#DejaVuSans-2e" x="63.623047"/>
       <use xlink:href="#DejaVuSans-30" x="95.410156"/>
      </g>
     </g>
    </g>
    <g id="ytick_8">
     <g id="line2d_13">
      <g>
       <use xlink:href="#m104f632c05" x="135" y="117.94909" style="stroke: #000000; stroke-width: 0.8"/>
      </g>
     </g>
     <g id="text_14">
      <!-- 1.2 -->
      <g transform="translate(112.096875 121.748309) scale(0.1 -0.1)">
       <use xlink:href="#DejaVuSans-31"/>
       <use xlink:href="#DejaVuSans-2e" x="63.623047"/>
       <use xlink:href="#DejaVuSans-32" x="95.410156"/>
      </g>
     </g>
    </g>
    <g id="ytick_9">
     <g id="line2d_14">
      <g>
       <use xlink:href="#m104f632c05" x="135" y="71.048591" style="stroke: #000000; stroke-width: 0.8"/>
      </g>
     </g>
     <g id="text_15">
      <!-- 1.4 -->
      <g transform="translate(112.096875 74.84781) scale(0.1 -0.1)">
       <use xlink:href="#DejaVuSans-31"/>
       <use xlink:href="#DejaVuSans-2e" x="63.623047"/>
       <use xlink:href="#DejaVuSans-34" x="95.410156"/>
      </g>
     </g>
    </g>
   </g>
   <g id="line2d_15">
    <path d="M 173.045455 298.52973 
L 173.36604 168.740202 
L 173.686625 104.947073 
L 174.00721 80.958487 
L 174.167503 78.12 
L 174.327796 79.170771 
L 174.648381 88.283411 
L 175.930722 136.946027 
L 176.571892 151.056681 
L 177.213063 160.177163 
L 177.693941 165.791714 
L 178.174819 272.83533 
L 178.655696 324.87949 
L 178.976282 341.43766 
L 179.296867 349.340843 
L 179.617452 352.222968 
L 179.777745 352.649498 
L 180.09833 352.747887 
L 180.258623 352.789757 
L 180.418915 353.00477 
L 180.739501 354.273843 
L 181.060086 356.898697 
L 181.540964 363.199896 
L 182.983597 384.683965 
L 183.304183 386.537026 
L 183.464475 386.743164 
L 183.624768 386.426761 
L 183.945353 384.145504 
L 184.265938 379.605704 
L 184.746816 368.640591 
L 185.387987 347.117703 
L 186.349742 304.674388 
L 187.952669 231.656586 
L 188.593839 210.32649 
L 189.074717 199.513463 
L 189.395302 195.139097 
L 189.715888 193.169355 
L 189.87618 193.104151 
L 190.036473 193.653937 
L 190.357058 196.581156 
L 190.677643 201.878998 
L 191.158521 213.97292 
L 191.799692 236.761568 
L 192.761447 280.724053 
L 194.684959 371.793552 
L 195.486422 399.073778 
L 196.127593 413.272475 
L 196.60847 419.02899 
L 196.929056 420.505038 
L 197.089348 420.545236 
L 197.249641 420.129868 
L 197.570226 417.973004 
L 197.890811 414.133291 
L 198.371689 405.497156 
L 199.01286 389.429472 
L 199.974616 358.519084 
L 202.379005 276.769757 
L 203.180468 256.914631 
L 203.821639 245.637869 
L 204.302516 240.116274 
L 204.783394 237.161178 
L 205.10398 236.596909 
L 205.264272 236.72546 
L 205.584857 237.776715 
L 205.905443 239.841335 
L 206.386321 244.694705 
L 207.027491 254.034482 
L 207.828954 269.316122 
L 209.271588 302.397236 
L 211.195099 345.70701 
L 212.317148 365.655216 
L 213.118611 376.576943 
L 213.278903 378.418236 
L 213.599489 240.358257 
L 213.920074 174.002668 
L 214.240659 150.781786 
L 214.400952 148.986445 
L 214.561244 151.276587 
L 214.88183 162.917697 
L 215.843585 204.501178 
L 216.324463 216.611584 
L 216.805341 222.89895 
L 217.125926 224.918747 
L 217.446512 225.943599 
L 218.087682 227.047122 
L 218.56856 317.168853 
L 219.049438 358.882314 
L 219.370023 370.861006 
L 219.690608 375.439765 
L 219.850901 376.033051 
L 220.011194 375.962326 
L 220.652364 374.092303 
L 220.812657 374.104388 
L 220.972949 374.520153 
L 221.293535 376.716739 
L 221.774413 383.324055 
L 222.575876 399.567279 
L 223.217046 411.458866 
L 223.697924 416.471719 
L 223.858217 417.087814 
L 224.018509 417.110158 
L 224.178802 416.511944 
L 224.499387 413.388919 
L 224.819972 407.66917 
L 225.30085 394.401086 
L 225.942021 369.085948 
L 226.903777 320.30726 
L 228.506703 238.43689 
L 229.147873 215.020368 
L 229.628751 203.291918 
L 229.949336 198.602934 
L 230.269922 196.534067 
L 230.430214 196.492464 
L 230.590507 197.109909 
L 230.911092 200.288991 
L 231.231677 205.966417 
L 231.712555 218.793844 
L 232.353726 242.689352 
L 233.315482 288.111265 
L 235.0787 373.258945 
L 235.880164 401.684219 
L 236.521334 416.744171 
L 237.002212 423.081127 
L 237.322797 424.905448 
L 237.48309 425.107283 
L 237.643382 424.844996 
L 237.963968 422.968384 
L 238.284553 419.37461 
L 238.765431 411.045665 
L 239.406601 395.284138 
L 240.368357 364.663773 
L 242.772746 283.358038 
L 243.57421 263.7212 
L 244.21538 252.670344 
L 244.696258 247.347627 
L 245.016843 245.238811 
L 245.337428 244.27093 
L 245.497721 244.206906 
L 245.658014 244.416722 
L 245.978599 245.634375 
L 246.299184 247.869017 
L 246.780062 252.980023 
L 247.421233 262.658038 
L 248.222696 278.33351 
L 249.665329 311.974018 
L 251.428548 352.373286 
L 252.550597 373.070978 
L 253.512352 386.450527 
L 253.99323 391.580573 
L 254.313815 251.190096 
L 254.634401 182.219321 
L 254.954986 156.246646 
L 255.115279 153.075731 
L 255.275571 154.017273 
L 255.596156 163.113274 
L 256.718205 203.328694 
L 257.199083 212.118783 
L 257.679961 216.481103 
L 258.160838 218.418799 
L 258.802009 220.099348 
L 259.282887 310.87362 
L 259.763765 353.486414 
L 260.08435 366.126069 
L 260.404935 371.39521 
L 260.72552 372.626891 
L 260.885813 372.537429 
L 261.206398 372.141774 
L 261.366691 372.179818 
L 261.526984 372.537221 
L 261.847569 374.481441 
L 262.168154 378.215714 
L 262.649032 386.746489 
L 264.091666 415.293918 
L 264.412251 418.154428 
L 264.572543 418.735331 
L 264.732836 418.701133 
L 264.893129 418.026234 
L 265.213714 414.695014 
L 265.534299 408.704589 
L 266.015177 394.944427 
L 266.656348 368.892032 
L 267.618103 319.070805 
L 269.22103 236.376298 
L 269.8622 213.092414 
L 270.343078 201.642586 
L 270.663663 197.218173 
L 270.984248 195.470444 
L 271.144541 195.608477 
L 271.304834 196.416984 
L 271.625419 200.008287 
L 272.106297 210.088996 
L 272.747467 231.244341 
L 273.54893 266.954916 
L 276.113612 390.759879 
L 276.754783 411.223666 
L 277.235661 421.787374 
L 277.716539 427.977518 
L 278.037124 429.654345 
L 278.197417 429.769257 
L 278.357709 429.412081 
L 278.678294 427.324371 
L 278.99888 423.495479 
L 279.479758 414.780617 
L 280.120928 398.470552 
L 281.082684 367.035444 
L 283.487073 284.32417 
L 284.288536 264.512019 
L 284.929707 253.424156 
L 285.410585 248.126295 
L 285.73117 246.055543 
L 286.051755 245.140432 
L 286.212048 245.107607 
L 286.37234 245.351449 
L 286.692926 246.644483 
L 287.013511 248.962358 
L 287.494389 254.208011 
L 288.135559 264.07269 
L 289.097315 283.504212 
L 291.020827 329.376691 
L 292.46346 360.887334 
L 293.425216 377.621504 
L 293.585509 380.01166 
L 293.906094 242.019028 
L 294.226679 175.412182 
L 294.547264 151.717061 
L 294.707557 149.634126 
L 294.86785 151.620296 
L 295.188435 162.650696 
L 296.150191 202.947474 
L 296.631068 214.879622 
L 297.111946 221.262943 
L 297.592824 224.167837 
L 298.073702 225.540983 
L 298.394287 226.352603 
L 298.875165 316.733678 
L 299.356043 358.876263 
L 299.676628 371.175196 
L 299.997214 376.082391 
L 300.157506 376.839922 
L 300.317799 376.932108 
L 300.958969 375.68069 
L 301.119262 375.834109 
L 301.279555 376.383828 
L 301.60014 378.822176 
L 302.081018 385.71286 
L 303.844237 417.670475 
L 304.164822 419.273025 
L 304.325114 419.182956 
L 304.485407 418.461159 
L 304.805992 415.061424 
L 305.126578 409.032923 
L 305.607455 395.262758 
L 306.248626 369.25863 
L 307.210382 319.561373 
L 308.813308 236.952257 
L 309.454478 213.60605 
L 309.935356 202.06764 
L 310.255942 197.565041 
L 310.576527 195.725002 
L 310.736819 195.812014 
L 310.897112 196.566531 
L 311.217697 200.04186 
L 311.698575 209.932457 
L 312.339746 230.815943 
L 313.141209 266.183763 
L 315.705891 389.227402 
L 316.347061 409.633314 
L 316.827939 420.191415 
L 317.308817 426.406214 
L 317.629402 428.114796 
L 317.789695 428.249769 
L 317.949988 427.915239 
L 318.270573 425.879915 
L 318.591158 422.111712 
L 319.072036 413.500274 
L 319.713206 397.343429 
L 320.674962 366.147507 
L 323.079352 283.897568 
L 323.880815 264.161066 
L 324.521985 253.103505 
L 325.002863 247.812281 
L 325.323448 245.73913 
L 325.644034 244.816784 
L 325.804326 244.77871 
L 325.964619 245.016318 
L 326.285204 246.294237 
L 326.605789 248.594 
L 327.086667 253.808251 
L 327.727838 263.626398 
L 328.529301 279.466234 
L 329.971934 313.327608 
L 331.735153 353.818727 
L 332.857202 374.479416 
L 333.658665 385.860403 
L 333.818957 387.784968 
L 334.139543 248.288823 
L 334.460128 180.19364 
L 334.780713 155.058005 
L 334.941006 152.284565 
L 335.101298 153.60623 
L 335.421884 163.401877 
L 336.543932 205.308744 
L 337.02481 214.465638 
L 337.505688 219.021264 
L 337.986566 221.019404 
L 338.627736 222.638787 
L 339.108614 313.226333 
L 339.589492 355.628732 
L 339.910077 368.120397 
L 340.230662 373.235364 
L 340.390955 374.102215 
L 340.551248 374.30701 
L 340.871833 373.827024 
L 341.032126 373.574418 
L 341.192418 373.529301 
L 341.352711 373.80386 
L 341.673296 375.584975 
L 341.993881 379.16218 
L 342.474759 387.474639 
L 343.917393 415.546377 
L 344.237978 418.342691 
L 344.398271 418.897102 
L 344.558563 418.840019 
L 344.718856 418.145715 
L 345.039441 414.785509 
L 345.360026 408.777975 
L 345.840904 395.010737 
L 346.482075 368.973931 
L 347.443831 319.200265 
L 349.046757 236.554458 
L 349.687927 213.25893 
L 350.168805 201.786158 
L 350.48939 197.339794 
L 350.809976 195.565094 
L 350.970268 195.687879 
L 351.130561 196.480044 
L 351.451146 200.035656 
L 351.932024 210.056483 
L 352.573195 231.123856 
L 353.374658 266.720063 
L 355.93934 390.249776 
L 356.58051 410.686321 
L 357.061388 421.24224 
L 357.542266 427.434964 
L 357.862851 429.118868 
L 358.023144 429.238806 
L 358.183436 428.887589 
L 358.504022 426.814386 
L 358.824607 423.003097 
L 359.305485 414.319433 
L 359.946655 398.05737 
L 360.908411 366.700123 
L 363.3128 284.148861 
L 364.114264 264.365747 
L 364.755434 253.291079 
L 365.236312 247.997634 
L 365.556897 245.927454 
L 365.877482 245.011204 
L 366.037775 244.977224 
L 366.198068 245.219553 
L 366.518653 246.508586 
L 366.839238 248.82133 
L 367.320116 254.057623 
L 367.961287 263.907793 
L 368.923042 283.316311 
L 370.846554 329.152933 
L 372.289187 360.654081 
L 373.090651 374.882897 
L 373.411236 237.794553 
L 373.731821 172.081939 
L 374.052406 149.254237 
L 374.212699 147.588225 
L 374.372992 149.976478 
L 374.693577 161.756747 
L 375.655333 203.758813 
L 376.13621 216.221948 
L 376.617088 222.950954 
L 377.097966 226.054096 
L 377.578844 227.516083 
L 377.899429 228.34244 
L 378.380307 318.623997 
L 378.861185 360.645052 
L 379.18177 372.854108 
L 379.502356 377.663357 
L 379.662648 378.368769 
L 379.822941 378.406846 
L 380.464111 376.923919 
L 380.624404 377.017379 
L 380.784697 377.50708 
L 381.105282 379.826772 
L 381.58616 386.548254 
L 383.349379 418.070837 
L 383.669964 419.632555 
L 383.830256 419.526364 
L 383.990549 418.791155 
L 384.311134 415.372133 
L 384.63172 409.333232 
L 385.112597 395.560607 
L 385.753768 369.568527 
L 386.715524 319.894703 
L 388.31845 237.25476 
L 388.95962 213.856143 
L 389.440498 202.262718 
L 389.761084 197.716607 
L 390.081669 195.828234 
L 390.241961 195.889486 
L 390.402254 196.617307 
L 390.722839 200.036864 
L 391.203717 209.839533 
L 391.844888 230.602823 
L 392.646351 265.826472 
L 395.371325 394.317294 
L 396.012496 412.975621 
L 396.493374 422.112664 
L 396.813959 425.781982 
L 397.134544 427.509358 
L 397.294837 427.655313 
L 397.45513 427.332727 
L 397.775715 425.323874 
L 398.0963 421.585076 
L 398.577178 413.021868 
L 399.218348 396.933721 
L 400.180104 365.840674 
L 402.584494 283.775581 
L 403.385957 264.065818 
L 404.027127 253.017033 
L 404.508005 247.725854 
L 404.82859 245.650019 
L 405.149176 244.723104 
L 405.309468 244.682118 
L 405.469761 244.916441 
L 405.790346 246.186807 
L 406.110931 248.47793 
L 406.591809 253.677772 
L 407.23298 263.47534 
L 408.034443 279.289842 
L 409.477076 313.114999 
L 411.240295 353.588615 
L 412.362344 374.253895 
L 413.163807 385.644077 
L 413.644685 391.078363 
L 413.96527 250.825532 
L 414.285855 181.994504 
L 414.60644 156.157164 
L 414.766733 153.050778 
L 414.927026 154.054161 
L 415.247611 163.264443 
L 416.369659 203.763781 
L 416.850537 212.61995 
L 417.331415 217.019943 
L 417.812293 218.972195 
L 418.453463 220.645235 
L 418.934341 311.393079 
L 419.415219 353.972827 
L 419.735804 366.587769 
L 420.05639 371.830137 
L 420.216682 372.762204 
L 420.376975 373.033083 
L 420.537268 372.928591 
L 420.857853 372.501795 
L 421.018145 372.523847 
L 421.178438 372.865064 
L 421.499023 374.776598 
L 421.819609 378.478203 
L 422.300486 386.96103 
L 423.74312 415.382741 
L 424.063705 418.220423 
L 424.223998 418.790709 
L 424.384291 418.746437 
L 424.544583 418.06201 
L 424.865168 414.713388 
L 425.185754 408.707757 
L 425.666632 394.928817 
L 426.307802 368.858536 
L 427.269558 319.024174 
L 428.872484 236.336481 
L 429.513655 213.062382 
L 429.994532 201.621465 
L 430.315118 197.203446 
L 430.635703 195.462282 
L 430.795996 195.603609 
L 430.956288 196.415393 
L 431.276873 200.013117 
L 431.757751 210.102849 
L 432.398922 231.268395 
L 433.200385 266.987643 
L 435.765067 390.785101 
L 436.406237 411.240362 
L 436.887115 421.796799 
L 437.367993 427.979302 
L 437.688578 429.650993 
L 437.848871 429.763358 
L 438.009164 429.403665 
L 438.329749 427.311048 
L 438.650334 423.477481 
L 439.131212 414.756182 
L 439.772383 398.438872 
L 440.734138 366.996259 
L 443.138528 284.283472 
L 443.939991 264.474774 
L 444.581161 253.390358 
L 445.062039 248.095261 
L 445.382624 246.026365 
L 445.70321 245.113078 
L 445.863502 245.081144 
L 446.023795 245.325859 
L 446.34438 246.620568 
L 446.664965 248.940008 
L 447.145843 254.18776 
L 447.787014 264.054707 
L 448.74877 283.488405 
L 450.672281 329.361217 
L 452.114915 360.869847 
L 453.07667 377.602349 
L 453.557548 384.418692 
L 453.878134 245.590233 
L 454.198719 178.161043 
L 454.519304 153.672512 
L 454.679597 151.209741 
L 454.839889 152.830542 
L 455.160475 163.182208 
L 456.12223 201.953867 
L 456.603108 213.422382 
L 457.083986 219.513343 
L 457.564864 222.261696 
L 458.206034 223.962528 
L 458.366327 224.393106 
L 458.847205 314.886262 
L 459.328083 357.163688 
L 459.648668 369.561104 
L 459.969253 374.574042 
L 460.129546 375.387178 
L 460.289839 375.536656 
L 460.610424 374.942116 
L 460.931009 374.526477 
L 461.091302 374.741612 
L 461.251594 375.352884 
L 461.57218 377.912382 
L 462.053057 384.974921 
L 463.816276 417.371501 
L 464.136862 419.014946 
L 464.297154 418.940948 
L 464.457447 418.232449 
L 464.778032 414.851558 
L 465.098617 408.832685 
L 465.579495 395.063069 
L 466.220666 369.042636 
L 467.182421 319.31124 
L 468.785348 236.703411 
L 469.426518 213.394506 
L 469.907396 201.899018 
L 470.227981 197.431664 
L 470.548567 195.631629 
L 470.708859 195.740244 
L 470.869152 196.517318 
L 471.189737 200.040254 
L 471.670615 210.006978 
L 472.311785 230.99624 
L 473.113249 266.493201 
L 475.677931 389.80087 
L 476.319101 410.220501 
L 476.799979 420.774801 
L 477.280857 426.974763 
L 477.601442 428.667976 
L 477.761735 428.793791 
L 477.922027 428.449206 
L 478.242613 426.391339 
L 478.563198 422.597807 
L 479.044076 413.94438 
L 479.685246 397.727055 
L 480.647002 366.439491 
L 483.051391 284.021564 
L 483.852854 264.259853 
L 484.494025 253.193462 
L 484.974903 247.901531 
L 485.295488 245.830379 
L 485.616073 244.911757 
L 485.776366 244.87612 
L 485.936659 245.116509 
L 486.257244 246.400901 
L 486.577829 248.70815 
L 487.058707 253.935005 
L 487.699877 263.771314 
L 488.501341 279.633694 
L 489.943974 313.527637 
L 491.707193 354.034908 
L 492.829241 374.691767 
L 493.630705 386.064648 
L 493.95129 246.925566 
L 494.271875 179.183105 
L 494.59246 154.387875 
L 494.752753 151.777191 
L 494.913046 153.255185 
L 495.233631 163.340364 
L 496.355679 205.960883 
L 496.836557 215.27917 
L 497.317435 219.925486 
L 497.798313 221.959946 
L 498.439483 223.569477 
L 498.920361 314.097444 
L 499.401239 356.427419 
L 499.721824 368.866389 
L 500.04241 373.925395 
L 500.202702 374.763111 
L 500.362995 374.93809 
L 500.68358 374.396861 
L 501.004165 374.036686 
L 501.164458 374.279973 
L 501.485043 375.9993 
L 501.805628 379.51682 
L 502.286506 387.746231 
L 503.72914 415.639633 
L 504.049725 418.413077 
L 504.210018 418.958332 
L 504.37031 418.89356 
L 504.530603 418.192979 
L 504.851188 414.824189 
L 505.171774 408.812839 
L 505.652651 395.047209 
L 506.293822 369.021993 
L 507.255578 319.27299 
L 508.858504 236.645897 
L 509.499674 213.341313 
L 509.980552 201.854672 
L 510.301138 197.395842 
L 510.621723 195.606305 
L 510.782015 195.720858 
L 510.942308 196.504295 
L 511.262893 200.041117 
L 511.743771 210.03108 
L 512.384942 231.054281 
L 513.186405 266.594869 
L 515.751087 390.002503 
L 516.392257 410.430316 
L 516.873135 420.98584 
L 517.354013 427.183068 
L 517.674598 428.872446 
L 517.834891 428.995792 
L 517.995184 428.648396 
L 518.315769 426.583968 
L 518.636354 422.782769 
L 519.117232 414.116186 
L 519.758402 397.879246 
L 520.720158 366.560895 
L 523.124548 284.083385 
L 523.926011 264.311955 
L 524.567181 253.241728 
L 525.048059 247.949019 
L 525.368644 245.878238 
L 525.68923 244.960616 
L 525.849522 244.925691 
L 526.009815 245.16692 
L 526.3304 246.453337 
L 526.650985 248.762998 
L 527.131863 253.994017 
L 527.773034 263.836469 
L 528.574497 279.706646 
L 530.01713 313.61218 
L 531.780349 354.125614 
L 532.902398 374.781419 
L 533.703861 386.151593 
L 533.864153 388.073412 
L 534.184739 248.496831 
L 534.505324 180.331312 
L 534.825909 155.133608 
L 534.986202 152.332049 
L 535.146494 153.627539 
L 535.46708 163.37676 
L 536.589128 205.183115 
L 537.070006 214.322527 
L 537.550884 218.871338 
L 538.031762 220.869834 
L 538.672932 222.496028 
L 539.15381 313.110233 
L 539.634688 355.532463 
L 539.955273 368.034735 
L 540.275858 373.158977 
L 540.436151 374.030097 
L 540.596444 374.238952 
L 540.917029 373.766501 
L 541.077322 373.517364 
L 541.237614 373.475507 
L 541.397907 373.753104 
L 541.718492 375.539572 
L 542.039077 379.121094 
L 542.519955 387.437974 
L 543.962589 415.509341 
L 544.283174 418.30343 
L 544.443467 418.856539 
L 544.603759 418.798056 
L 544.764052 418.102273 
L 545.084637 414.738956 
L 545.405222 408.728252 
L 545.8861 394.956506 
L 546.527271 368.914937 
L 547.489027 319.138655 
L 549.091953 236.503917 
L 549.733123 213.218007 
L 550.214001 201.753995 
L 550.534586 197.314056 
L 550.855172 195.54614 
L 551.015464 195.672422 
L 551.175757 196.468136 
L 551.496342 200.03095 
L 551.97722 210.062644 
L 552.618391 231.144079 
L 553.419854 266.756087 
L 555.984536 390.311644 
L 556.625706 410.747816 
L 557.106584 421.301848 
L 557.587462 427.491494 
L 557.908047 429.172784 
L 558.06834 429.29127 
L 558.228632 428.938515 
L 558.549218 426.862015 
L 558.869803 423.047189 
L 559.350681 414.357919 
L 559.991851 398.088163 
L 560.953607 366.71986 
L 563.357996 284.150026 
L 564.15946 264.364501 
L 564.80063 253.289183 
L 565.281508 247.995892 
L 565.602093 245.926077 
L 565.922678 245.010371 
L 566.082971 244.976721 
L 566.243264 245.219415 
L 566.563849 246.509266 
L 566.884434 248.822924 
L 567.365312 254.060709 
L 568.006483 263.912963 
L 568.968238 283.324454 
L 570.89175 329.165009 
L 572.334383 360.666723 
L 573.296139 377.402811 
L 574.097602 388.181623 
L 574.257895 389.986108 
L 574.57848 249.967578 
L 574.899065 181.378425 
L 575.219651 155.780557 
L 575.379943 152.790101 
L 575.540236 153.905495 
L 575.860821 163.324571 
L 576.98287 204.341914 
L 577.463747 213.313339 
L 577.944625 217.774739 
L 578.425503 219.746287 
L 579.066674 221.399313 
L 579.547552 312.11012 
L 580.028429 354.632427 
L 580.349015 367.202148 
L 580.6696 372.395079 
L 580.829893 373.301093 
L 580.990185 373.545168 
L 581.31077 373.143761 
L 581.471063 372.93018 
L 581.631356 372.923685 
L 581.791648 373.236273 
L 582.112234 375.090891 
L 582.432819 378.736988 
L 582.913697 387.141482 
L 584.35633 415.387715 
L 584.676916 418.201366 
L 584.837208 418.761768 
L 584.997501 418.709005 
L 585.157793 418.017449 
L 585.478379 414.658473 
L 585.798964 408.647314 
L 586.279842 394.867911 
L 586.921012 368.808216 
L 587.882768 319.002708 
L 589.485694 236.358836 
L 590.126865 213.091461 
L 590.607743 201.650091 
L 590.928328 197.229097 
L 591.248913 195.482885 
L 591.409206 195.620947 
L 591.569498 196.428997 
L 591.890084 200.017933 
L 592.370962 210.091589 
L 593.012132 231.231615 
L 593.813595 266.915536 
L 596.378277 390.620553 
L 597.019448 411.065373 
L 597.500326 421.61809 
L 597.981203 427.800292 
L 598.301789 429.473567 
L 598.462081 429.587222 
L 598.622374 429.229134 
L 598.942959 427.140601 
L 599.263544 423.31217 
L 599.744422 414.600219 
L 600.385593 398.297604 
L 601.347349 366.8792 
L 603.751738 284.216416 
L 604.553201 264.416573 
L 605.194372 253.335996 
L 605.675249 248.04201 
L 605.995835 245.973092 
L 606.31642 245.059237 
L 606.476713 245.026832 
L 606.637005 245.270962 
L 606.95759 246.564194 
L 607.278176 248.881802 
L 607.759054 254.126293 
L 608.400224 263.988289 
L 609.36198 283.414282 
L 611.285491 329.275397 
L 612.728125 360.781144 
L 613.209003 369.648438 
L 613.529588 233.367589 
L 613.850173 168.47391 
L 614.170759 146.45563 
L 614.331051 145.183189 
L 614.491344 147.953636 
L 614.811929 160.453701 
L 615.773685 204.137992 
L 616.254563 217.149995 
L 616.735441 224.25493 
L 617.216318 227.593566 
L 617.697196 229.184276 
L 618.017782 230.05185 
L 618.498659 320.303656 
L 618.979537 362.259997 
L 619.300123 374.411394 
L 619.620708 379.151345 
L 619.781 379.817788 
L 619.941293 379.814172 
L 620.582464 378.142258 
L 620.742756 378.184592 
L 620.903049 378.622373 
L 621.223634 380.837379 
L 621.704512 387.405058 
L 622.666268 406.628263 
L 623.307438 416.936389 
L 623.628023 419.539627 
L 623.788316 420.01466 
L 623.948609 419.889251 
L 624.108901 419.137267 
L 624.429487 415.691599 
L 624.750072 409.634358 
L 625.23095 395.846951 
L 625.87212 369.851194 
L 626.833876 320.18233 
L 628.436802 237.502431 
L 629.077973 214.055956 
L 629.558851 202.413686 
L 629.879436 197.829325 
L 630.200021 195.898676 
L 630.360314 195.937459 
L 630.520606 196.642031 
L 630.841192 200.013102 
L 631.322069 209.739514 
L 631.802947 224.502019 
L 632.60441 257.867609 
L 635.64997 399.06203 
L 636.291141 415.925745 
L 636.772019 423.630749 
L 637.092604 426.341467 
L 637.252897 426.97285 
L 637.413189 427.128592 
L 637.573482 426.816622 
L 637.894067 424.831227 
L 638.214652 421.118403 
L 638.69553 412.597669 
L 639.336701 396.569834 
L 640.298456 365.566779 
L 642.702846 283.662071 
L 643.504309 263.97501 
L 644.145479 252.933322 
L 644.626357 247.641749 
L 644.946943 245.563284 
L 645.267528 244.632096 
L 645.42782 244.588431 
L 645.588113 244.819752 
L 645.908698 246.083262 
L 646.229284 248.366596 
L 646.710161 253.55352 
L 647.351332 263.332745 
L 648.152795 279.124786 
L 649.595429 312.918081 
L 651.358648 353.376666 
L 652.480696 374.046292 
L 653.282159 385.444769 
L 653.92333 392.471494 
L 654.243915 251.871278 
L 654.5645 182.702839 
L 654.885085 156.544527 
L 655.045378 153.286209 
L 655.205671 154.144619 
L 655.526256 163.08915 
L 656.648304 202.959272 
L 657.129182 211.687025 
L 657.61006 216.02597 
L 658.090938 217.967816 
L 658.732108 219.679357 
L 659.212986 310.510251 
L 659.693864 353.181442 
L 660.014449 365.859604 
L 660.335035 371.166889 
L 660.65562 372.436262 
L 660.815912 372.365373 
L 661.136498 372.005973 
L 661.29679 372.061529 
L 661.457083 372.43591 
L 661.777668 374.412116 
L 662.098253 378.175166 
L 662.579131 386.741791 
L 664.021765 415.333903 
L 664.34235 418.191323 
L 664.502643 418.769091 
L 664.662935 418.730777 
L 664.823228 418.050853 
L 665.143813 414.707172 
L 665.464399 408.701654 
L 665.945276 394.915585 
L 666.586447 368.826698 
L 667.548203 318.958505 
L 669.151129 236.241558 
L 669.792299 212.974017 
L 670.273177 201.545696 
L 670.593763 197.139563 
L 670.914348 195.412857 
L 671.07464 195.562299 
L 671.234933 196.382741 
L 671.555518 199.999241 
L 672.036396 210.120117 
L 672.677567 231.330683 
L 673.47903 267.107186 
L 676.043712 391.033302 
L 676.684882 411.498666 
L 677.16576 422.056357 
L 677.646638 428.23505 
L 677.967223 429.901639 
L 678.127516 430.010753 
L 678.287809 429.647377 
L 678.608394 427.546207 
L 678.928979 423.7027 
L 679.409857 414.96442 
L 680.051027 398.621911 
L 681.012783 367.139932 
L 683.417173 284.351399 
L 684.218636 264.530388 
L 684.859806 253.441108 
L 685.340684 248.145012 
L 685.661269 246.076573 
L 685.981855 245.164536 
L 686.142147 245.133495 
L 686.30244 245.379263 
L 686.623025 246.676512 
L 686.94361 248.998981 
L 687.424488 254.251964 
L 688.065659 264.126635 
L 689.027414 283.572023 
L 690.950926 329.46187 
L 692.39356 360.974201 
L 693.355315 377.704855 
L 694.156778 388.472981 
L 694.477364 248.785191 
L 694.797949 180.522383 
L 695.118534 155.238789 
L 695.278827 152.398314 
L 695.439119 153.657574 
L 695.759705 163.342543 
L 696.881753 205.009925 
L 697.362631 214.125262 
L 697.843509 218.664777 
L 698.324387 220.663899 
L 698.965557 222.29968 
L 699.446435 312.950687 
L 699.927313 355.40034 
L 700.247898 367.917306 
L 700.568483 373.054417 
L 700.728776 373.931464 
L 700.889069 374.145961 
L 701.209654 373.68398 
L 701.369947 373.439667 
L 701.530239 373.402341 
L 701.690532 373.68416 
L 702.011117 375.478064 
L 702.331702 379.065575 
L 702.81258 387.388569 
L 704.255214 415.459177 
L 704.575799 418.250089 
L 704.736092 418.801344 
L 704.896384 418.740866 
L 705.056677 418.042977 
L 705.377262 414.675233 
L 705.697847 408.660012 
L 706.178725 394.881831 
L 706.819896 368.833415 
L 707.781652 319.053191 
L 709.384578 236.433546 
L 710.025748 213.160986 
L 710.506626 201.709176 
L 710.827211 197.278202 
L 711.147797 195.519764 
L 711.308089 195.650933 
L 711.468382 196.45161 
L 711.788967 200.024501 
L 712.269845 210.071413 
L 712.911016 231.172558 
L 713.712479 266.806733 
L 716.277161 390.398613 
L 716.918331 410.834276 
L 717.399209 421.385672 
L 717.880087 427.571009 
L 718.200672 429.248636 
L 718.360965 429.365087 
L 718.521257 429.010178 
L 718.841843 426.929055 
L 719.162428 423.109271 
L 719.643306 414.412141 
L 720.284476 398.131598 
L 721.246232 366.747799 
L 723.650621 284.151967 
L 724.452085 264.363088 
L 725.093255 253.286879 
L 725.574133 247.993824 
L 725.894718 245.924533 
L 726.215303 245.009601 
L 726.375596 244.97642 
L 726.535889 245.219631 
L 726.856474 246.51064 
L 727.177059 248.825591 
L 727.657937 254.065482 
L 728.299108 263.920674 
L 729.260863 283.336352 
L 731.184375 329.182428 
L 732.627008 360.684924 
L 733.588764 377.420085 
L 734.069642 384.239463 
L 734.390227 245.457787 
L 734.710813 178.070765 
L 735.031398 153.620441 
L 735.19169 151.175269 
L 735.351983 152.812607 
L 735.672568 163.193941 
L 736.634324 202.02532 
L 737.115202 213.508232 
L 737.59608 219.605708 
L 738.076958 222.355016 
L 738.718128 224.051968 
L 738.878421 224.481041 
L 739.359299 314.958474 
L 739.840177 357.223448 
L 740.160762 369.613896 
L 740.481347 374.620553 
L 740.64164 375.430741 
L 740.801932 375.577382 
L 741.122518 374.97749 
L 741.443103 374.556967 
L 741.603395 374.769858 
L 741.763688 375.379034 
L 742.084273 377.934826 
L 742.565151 384.993142 
L 744.32837 417.388181 
L 744.648955 419.033275 
L 744.809248 418.960249 
L 744.969541 418.252802 
L 745.290126 414.874195 
L 745.610711 408.857749 
L 746.091589 395.091779 
L 746.732759 369.075627 
L 747.694515 319.347927 
L 749.297441 236.735703 
L 749.938612 213.421199 
L 750.41949 201.920286 
L 750.740075 197.448828 
L 751.06066 195.644376 
L 751.220953 195.750685 
L 751.381246 196.525401 
L 751.701831 200.043501 
L 752.182709 210.002818 
L 752.823879 230.982321 
L 753.625342 266.468093 
L 756.190024 389.756483 
L 756.831195 410.176086 
L 757.312073 420.731521 
L 757.792951 426.933484 
L 758.113536 428.628443 
L 758.273828 428.755238 
L 758.434121 428.411697 
L 758.754706 426.356084 
L 759.075292 422.564988 
L 759.556169 413.915448 
L 760.19734 397.703497 
L 761.159096 366.423707 
L 763.563485 284.018908 
L 764.364948 264.25888 
L 765.006119 253.192916 
L 765.486997 247.900842 
L 765.807582 245.829405 
L 766.128167 244.910369 
L 766.28846 244.874483 
L 766.448752 245.114598 
L 766.769338 246.398379 
L 767.089923 248.704946 
L 767.570801 253.930692 
L 768.211971 263.765454 
L 769.013434 279.625974 
L 770.456068 313.517339 
L 772.219287 354.023453 
L 773.341335 374.680695 
L 773.822213 381.857165 
L 774.142798 243.557289 
L 774.463384 176.636083 
L 774.783969 152.62965 
L 774.944261 150.395425 
L 775.104554 152.234808 
L 775.425139 162.989248 
L 776.386895 202.645652 
L 776.867773 214.372603 
L 777.348651 220.619347 
L 777.829529 223.443864 
L 778.310407 224.779658 
L 778.630992 225.584384 
L 779.11187 315.979657 
L 779.592748 358.157557 
L 779.913333 370.488218 
L 780.233918 375.432842 
L 780.394211 376.211052 
L 780.554503 376.325107 
L 780.875089 375.658607 
L 781.195674 375.170545 
L 781.355966 375.34977 
L 781.516259 375.925608 
L 781.836844 378.41647 
L 782.317722 385.384313 
L 784.080941 417.561508 
L 784.401526 419.18868 
L 784.561819 419.109022 
L 784.722112 418.396399 
L 785.042697 415.011449 
L 785.363282 408.99332 
L 785.84416 395.231557 
L 786.48533 369.228461 
L 787.447086 319.521328 
L 789.050012 236.901261 
L 789.691183 213.56086 
L 790.172061 202.03174 
L 790.492646 197.537664 
L 790.813231 195.707898 
L 790.973524 195.800659 
L 791.133817 196.5613 
L 791.454402 200.049902 
L 791.93528 209.962517 
L 792.57645 230.877874 
L 793.377913 266.286301 
L 795.942595 389.420976 
L 796.583766 409.833717 
L 797.064644 420.392347 
L 797.545522 426.603991 
L 797.866107 428.308606 
L 798.026399 428.441086 
L 798.186692 428.10375 
L 798.507277 426.061949 
L 798.827863 422.286262 
L 799.30874 413.662101 
L 799.949911 397.486456 
L 800.911667 366.261297 
L 803.316056 283.955628 
L 804.117519 264.21028 
L 804.75869 253.149369 
L 805.239568 247.857607 
L 805.560153 245.784929 
L 805.880738 244.863643 
L 806.041031 244.826296 
L 806.201323 245.06475 
L 806.521909 246.344676 
L 806.842494 248.646801 
L 807.323372 253.86509 
L 807.964542 263.689136 
L 808.766005 279.53639 
L 810.208639 313.408648 
L 811.971858 353.905343 
L 813.093906 374.564862 
L 813.414491 379.467917 
L 813.735077 241.619971 
L 814.055662 175.141228 
L 814.376247 151.560505 
L 814.53654 149.529816 
L 814.696832 151.564858 
L 815.017418 162.682503 
L 815.979173 203.154045 
L 816.460051 215.128714 
L 816.940929 221.531996 
L 817.421807 224.441013 
L 817.902685 225.808333 
L 818.22327 226.612775 
L 818.704148 316.944989 
L 819.185026 359.050838 
L 819.505611 371.33002 
L 819.826196 376.219887 
L 819.986489 376.969425 
L 820.146782 377.053995 
L 820.787952 375.775722 
L 820.948245 375.9234 
L 821.108537 376.46782 
L 821.429123 378.896988 
L 821.910001 385.777721 
L 823.673219 417.736367 
L 823.993805 419.343913 
L 824.154097 419.256666 
L 824.31439 418.537853 
L 824.634975 415.144409 
L 824.95556 409.12236 
L 825.436438 395.36147 
L 826.077609 369.367416 
L 827.039365 319.676681 
L 828.642291 237.04856 
L 829.283461 213.684544 
L 829.764339 202.12968 
L 830.084924 197.614926 
L 830.40551 195.76199 
L 830.565802 195.842335 
L 830.726095 196.590071 
L 831.04668 200.051603 
L 831.527558 209.921297 
L 832.168729 230.777596 
L 832.970192 266.114677 
L 835.695166 394.841203 
L 836.336337 413.506248 
L 836.817215 422.636158 
L 837.1378 426.295437 
L 837.458385 428.008968 
L 837.618678 428.146701 
L 837.77897 427.815102 
L 838.099556 425.78608 
L 838.420141 422.024658 
L 838.901019 413.424004 
L 839.542189 397.282007 
L 840.503945 366.107506 
L 842.908334 283.893769 
L 843.709798 264.161997 
L 844.350968 253.105724 
L 844.831846 247.814202 
L 845.152431 245.740337 
L 845.473016 244.816925 
L 845.633309 244.778203 
L 845.793602 245.015094 
L 846.114187 246.291403 
L 846.434772 248.589363 
L 846.91565 253.800668 
L 847.556821 263.614689 
L 848.358284 279.449541 
L 849.800917 313.303957 
L 851.564136 353.791884 
L 852.686185 374.453553 
L 853.487648 385.836341 
L 854.289111 394.316616 
L 854.609696 396.934557 
L 854.930281 255.047296 
L 855.250867 184.668585 
L 855.571452 157.38638 
L 855.731744 153.603986 
L 855.892037 153.966817 
L 856.212622 162.014597 
L 857.334671 199.851324 
L 857.815549 208.205487 
L 858.296426 212.399017 
L 858.777304 214.36155 
L 859.418475 216.264761 
L 859.899353 307.476375 
L 860.380231 350.520011 
L 860.700816 363.439852 
L 861.021401 368.986234 
L 861.341986 370.493115 
L 861.502279 370.5401 
L 861.822864 370.413101 
L 861.983157 370.582315 
L 862.143449 371.068015 
L 862.464035 373.257863 
L 862.78462 377.219474 
L 863.265498 386.048919 
L 864.708131 415.127406 
L 865.028717 418.030165 
L 865.189009 418.622797 
L 865.349302 418.594467 
L 865.509595 417.919928 
L 865.83018 414.574481 
L 866.150765 408.552808 
L 866.631643 394.72214 
L 867.272813 368.552151 
L 868.234569 318.56287 
L 869.677203 242.812456 
L 870.318373 217.562972 
L 870.799251 204.361302 
L 871.280129 196.851577 
L 871.600714 195.189848 
L 871.761007 195.374819 
L 871.9213 196.232614 
L 872.241885 199.928626 
L 872.722763 210.178099 
L 873.363933 231.569544 
L 874.165396 267.569789 
L 876.730078 391.970638 
L 877.371249 412.466638 
L 877.852127 423.023116 
L 878.333005 429.181506 
L 878.65359 430.82501 
L 878.813882 430.92 
L 878.974175 430.540916 
L 879.29476 428.404017 
L 879.615346 424.519792 
L 880.096223 415.713149 
L 880.737394 399.270899 
L 881.69915 367.635723 
L 884.103539 284.559372 
L 884.905002 264.692973 
L 885.546173 253.586388 
L 886.027051 248.287322 
L 886.347636 246.221113 
L 886.668221 245.314268 
L 886.828514 245.286816 
L 886.988806 245.536771 
L 887.309392 246.843988 
L 887.629977 249.178216 
L 888.110855 254.451326 
L 888.752025 264.355459 
L 889.713781 283.845048 
L 891.637292 329.798406 
L 893.079926 361.323877 
L 894.041682 378.047113 
L 894.362267 382.703076 
L 894.682852 244.172861 
L 895.003438 177.05008 
L 895.324023 152.865472 
L 895.484315 150.550405 
L 895.644608 152.314442 
L 895.965193 162.934986 
L 896.926949 202.325211 
L 897.407827 213.987741 
L 897.888705 220.204257 
L 898.369583 223.022475 
L 898.850461 224.366999 
L 899.171046 225.182535 
L 899.651924 315.653988 
L 900.132802 357.888447 
L 900.453387 370.249281 
L 900.773972 375.220242 
L 900.934265 376.010558 
L 901.094557 376.136118 
L 901.415143 375.49094 
L 901.735728 375.021887 
L 901.89602 375.209674 
L 902.056313 375.793393 
L 902.376898 378.297834 
L 902.857776 385.280229 
L 904.620995 417.45465 
L 904.94158 419.074274 
L 905.101873 418.990386 
L 905.262166 418.273308 
L 905.582751 414.879019 
L 905.903336 408.851389 
L 906.384214 395.076124 
L 907.025384 369.058695 
L 907.98714 319.343316 
L 909.590066 236.754622 
L 910.231237 213.441955 
L 910.712115 201.938176 
L 911.0327 197.462712 
L 911.353285 195.65262 
L 911.513578 195.755525 
L 911.673871 196.526466 
L 911.994456 200.035983 
L 912.475334 209.980175 
L 913.116504 230.936424 
L 913.917967 266.390833 
L 916.482649 389.600787 
L 917.12382 410.012443 
L 917.604698 420.565577 
L 918.085576 426.768257 
L 918.406161 428.465255 
L 918.566453 428.593504 
L 918.726746 428.251688 
L 919.047331 426.200279 
L 919.367917 422.414286 
L 919.848794 413.773789 
L 920.489965 397.575724 
L 921.451721 366.31835 
L 923.85611 283.958586 
L 924.657573 264.206236 
L 925.298744 253.143451 
L 925.779622 247.852161 
L 926.100207 245.780562 
L 926.420792 244.860876 
L 926.581085 244.8245 
L 926.741377 245.064024 
L 927.061963 246.346353 
L 927.382548 248.65116 
L 927.863426 253.873825 
L 928.504596 263.703983 
L 929.306059 279.558595 
L 930.748693 313.441057 
L 932.511912 353.942307 
L 933.63396 374.600276 
L 933.794253 377.10959 
L 933.954545 297.263486 
L 933.954545 297.263486 
" clip-path="url(#p073564ffd8)" style="fill: none; stroke: #1f77b4; stroke-width: 1.5; stroke-linecap: square"/>
   </g>
   <g id="line2d_16">
    <path d="M 173.045455 164.849588 
L 177.693941 164.849588 
L 177.854233 399.352081 
L 213.278903 399.352081 
L 213.439196 164.849588 
L 218.087682 164.849588 
L 218.247975 399.352081 
L 253.99323 399.352081 
L 254.153523 164.849588 
L 258.802009 164.849588 
L 258.962302 399.352081 
L 293.585509 399.352081 
L 293.745801 164.849588 
L 298.394287 164.849588 
L 298.55458 399.352081 
L 333.818957 399.352081 
L 333.97925 164.849588 
L 338.627736 164.849588 
L 338.788029 399.352081 
L 373.090651 399.352081 
L 373.250943 164.849588 
L 377.899429 164.849588 
L 378.059722 399.352081 
L 413.644685 399.352081 
L 413.804977 164.849588 
L 418.453463 164.849588 
L 418.613756 399.352081 
L 453.557548 399.352081 
L 453.717841 164.849588 
L 458.366327 164.849588 
L 458.52662 399.352081 
L 493.630705 399.352081 
L 493.790997 164.849588 
L 498.439483 164.849588 
L 498.599776 399.352081 
L 533.864153 399.352081 
L 534.024446 164.849588 
L 538.672932 164.849588 
L 538.833225 399.352081 
L 574.257895 399.352081 
L 574.418188 164.849588 
L 579.066674 164.849588 
L 579.226966 399.352081 
L 613.209003 399.352081 
L 613.369295 164.849588 
L 618.017782 164.849588 
L 618.178074 399.352081 
L 653.92333 399.352081 
L 654.083622 164.849588 
L 658.732108 164.849588 
L 658.892401 399.352081 
L 694.156778 399.352081 
L 694.317071 164.849588 
L 698.965557 164.849588 
L 699.12585 399.352081 
L 734.069642 399.352081 
L 734.229935 164.849588 
L 738.878421 164.849588 
L 739.038713 399.352081 
L 773.822213 399.352081 
L 773.982506 164.849588 
L 778.630992 164.849588 
L 778.791284 399.352081 
L 813.414491 399.352081 
L 813.574784 164.849588 
L 818.22327 164.849588 
L 818.383563 399.352081 
L 854.609696 399.352081 
L 854.769989 164.849588 
L 859.418475 164.849588 
L 859.578767 399.352081 
L 894.362267 399.352081 
L 894.52256 164.849588 
L 899.171046 164.849588 
L 899.331338 399.352081 
L 933.794253 399.352081 
L 933.954545 164.849588 
L 933.954545 164.849588 
" clip-path="url(#p073564ffd8)" style="fill: none; stroke: #ff7f0e; stroke-width: 1.5; stroke-linecap: square"/>
   </g>
   <g id="line2d_17">
    <path d="M 929.466352 399.352081 
" clip-path="url(#p073564ffd8)" style="fill: none; stroke: #000000; stroke-width: 1.5; stroke-linecap: square"/>
    <defs>
     <path id="m2e9834da37" d="M 0 1 
C 0.265203 1 0.51958 0.894634 0.707107 0.707107 
C 0.894634 0.51958 1 0.265203 1 0 
C 1 -0.265203 0.894634 -0.51958 0.707107 -0.707107 
C 0.51958 -0.894634 0.265203 -1 0 -1 
C -0.265203 -1 -0.51958 -0.894634 -0.707107 -0.707107 
C -0.894634 -0.51958 -1 -0.265203 -1 0 
C -1 0.265203 -0.894634 0.51958 -0.707107 0.707107 
C -0.51958 0.894634 -0.265203 1 0 1 
z
" style="stroke: #000000"/>
    </defs>
    <g clip-path="url(#p073564ffd8)">
     <use xlink:href="#m2e9834da37" x="173.045455" y="164.849588" style="stroke: #000000"/>
     <use xlink:href="#m2e9834da37" x="178.174819" y="399.352081" style="stroke: #000000"/>
     <use xlink:href="#m2e9834da37" x="183.14389" y="399.352081" style="stroke: #000000"/>
     <use xlink:href="#m2e9834da37" x="188.112961" y="164.849588" style="stroke: #000000"/>
     <use xlink:href="#m2e9834da37" x="193.082033" y="399.352081" style="stroke: #000000"/>
     <use xlink:href="#m2e9834da37" x="198.211397" y="399.352081" style="stroke: #000000"/>
     <use xlink:href="#m2e9834da37" x="203.180468" y="164.849588" style="stroke: #000000"/>
     <use xlink:href="#m2e9834da37" x="208.149539" y="399.352081" style="stroke: #000000"/>
     <use xlink:href="#m2e9834da37" x="213.118611" y="164.849588" style="stroke: #000000"/>
     <use xlink:href="#m2e9834da37" x="218.247975" y="399.352081" style="stroke: #000000"/>
     <use xlink:href="#m2e9834da37" x="223.217046" y="399.352081" style="stroke: #000000"/>
     <use xlink:href="#m2e9834da37" x="228.186118" y="164.849588" style="stroke: #000000"/>
     <use xlink:href="#m2e9834da37" x="233.155189" y="399.352081" style="stroke: #000000"/>
     <use xlink:href="#m2e9834da37" x="238.284553" y="399.352081" style="stroke: #000000"/>
     <use xlink:href="#m2e9834da37" x="243.253624" y="164.849588" style="stroke: #000000"/>
     <use xlink:href="#m2e9834da37" x="248.222696" y="399.352081" style="stroke: #000000"/>
     <use xlink:href="#m2e9834da37" x="253.191767" y="164.849588" style="stroke: #000000"/>
     <use xlink:href="#m2e9834da37" x="258.321131" y="399.352081" style="stroke: #000000"/>
     <use xlink:href="#m2e9834da37" x="263.290202" y="399.352081" style="stroke: #000000"/>
     <use xlink:href="#m2e9834da37" x="268.259274" y="164.849588" style="stroke: #000000"/>
     <use xlink:href="#m2e9834da37" x="273.228345" y="399.352081" style="stroke: #000000"/>
     <use xlink:href="#m2e9834da37" x="278.357709" y="399.352081" style="stroke: #000000"/>
     <use xlink:href="#m2e9834da37" x="283.326781" y="164.849588" style="stroke: #000000"/>
     <use xlink:href="#m2e9834da37" x="288.295852" y="399.352081" style="stroke: #000000"/>
     <use xlink:href="#m2e9834da37" x="293.264923" y="164.849588" style="stroke: #000000"/>
     <use xlink:href="#m2e9834da37" x="298.394287" y="399.352081" style="stroke: #000000"/>
     <use xlink:href="#m2e9834da37" x="303.363359" y="399.352081" style="stroke: #000000"/>
     <use xlink:href="#m2e9834da37" x="308.33243" y="164.849588" style="stroke: #000000"/>
     <use xlink:href="#m2e9834da37" x="313.301501" y="399.352081" style="stroke: #000000"/>
     <use xlink:href="#m2e9834da37" x="318.430865" y="399.352081" style="stroke: #000000"/>
     <use xlink:href="#m2e9834da37" x="323.399937" y="164.849588" style="stroke: #000000"/>
     <use xlink:href="#m2e9834da37" x="328.369008" y="399.352081" style="stroke: #000000"/>
     <use xlink:href="#m2e9834da37" x="333.33808" y="164.849588" style="stroke: #000000"/>
     <use xlink:href="#m2e9834da37" x="338.467444" y="399.352081" style="stroke: #000000"/>
     <use xlink:href="#m2e9834da37" x="343.436515" y="399.352081" style="stroke: #000000"/>
     <use xlink:href="#m2e9834da37" x="348.405586" y="164.849588" style="stroke: #000000"/>
     <use xlink:href="#m2e9834da37" x="353.374658" y="399.352081" style="stroke: #000000"/>
     <use xlink:href="#m2e9834da37" x="358.504022" y="399.352081" style="stroke: #000000"/>
     <use xlink:href="#m2e9834da37" x="363.473093" y="164.849588" style="stroke: #000000"/>
     <use xlink:href="#m2e9834da37" x="368.442164" y="399.352081" style="stroke: #000000"/>
     <use xlink:href="#m2e9834da37" x="373.411236" y="164.849588" style="stroke: #000000"/>
     <use xlink:href="#m2e9834da37" x="378.5406" y="399.352081" style="stroke: #000000"/>
     <use xlink:href="#m2e9834da37" x="383.509671" y="399.352081" style="stroke: #000000"/>
     <use xlink:href="#m2e9834da37" x="388.478743" y="164.849588" style="stroke: #000000"/>
     <use xlink:href="#m2e9834da37" x="393.447814" y="399.352081" style="stroke: #000000"/>
     <use xlink:href="#m2e9834da37" x="398.577178" y="399.352081" style="stroke: #000000"/>
     <use xlink:href="#m2e9834da37" x="403.546249" y="164.849588" style="stroke: #000000"/>
     <use xlink:href="#m2e9834da37" x="408.515321" y="399.352081" style="stroke: #000000"/>
     <use xlink:href="#m2e9834da37" x="413.484392" y="164.849588" style="stroke: #000000"/>
     <use xlink:href="#m2e9834da37" x="418.613756" y="399.352081" style="stroke: #000000"/>
     <use xlink:href="#m2e9834da37" x="423.582827" y="399.352081" style="stroke: #000000"/>
     <use xlink:href="#m2e9834da37" x="428.551899" y="164.849588" style="stroke: #000000"/>
     <use xlink:href="#m2e9834da37" x="433.52097" y="399.352081" style="stroke: #000000"/>
     <use xlink:href="#m2e9834da37" x="438.650334" y="399.352081" style="stroke: #000000"/>
     <use xlink:href="#m2e9834da37" x="443.619406" y="164.849588" style="stroke: #000000"/>
     <use xlink:href="#m2e9834da37" x="448.588477" y="399.352081" style="stroke: #000000"/>
     <use xlink:href="#m2e9834da37" x="453.557548" y="164.849588" style="stroke: #000000"/>
     <use xlink:href="#m2e9834da37" x="458.686912" y="399.352081" style="stroke: #000000"/>
     <use xlink:href="#m2e9834da37" x="463.655984" y="399.352081" style="stroke: #000000"/>
     <use xlink:href="#m2e9834da37" x="468.625055" y="164.849588" style="stroke: #000000"/>
     <use xlink:href="#m2e9834da37" x="473.594126" y="399.352081" style="stroke: #000000"/>
     <use xlink:href="#m2e9834da37" x="478.72349" y="399.352081" style="stroke: #000000"/>
     <use xlink:href="#m2e9834da37" x="483.692562" y="164.849588" style="stroke: #000000"/>
     <use xlink:href="#m2e9834da37" x="488.661633" y="399.352081" style="stroke: #000000"/>
     <use xlink:href="#m2e9834da37" x="493.630705" y="164.849588" style="stroke: #000000"/>
     <use xlink:href="#m2e9834da37" x="498.760069" y="399.352081" style="stroke: #000000"/>
     <use xlink:href="#m2e9834da37" x="503.72914" y="399.352081" style="stroke: #000000"/>
     <use xlink:href="#m2e9834da37" x="508.698211" y="164.849588" style="stroke: #000000"/>
     <use xlink:href="#m2e9834da37" x="513.667283" y="399.352081" style="stroke: #000000"/>
     <use xlink:href="#m2e9834da37" x="518.796647" y="399.352081" style="stroke: #000000"/>
     <use xlink:href="#m2e9834da37" x="523.765718" y="164.849588" style="stroke: #000000"/>
     <use xlink:href="#m2e9834da37" x="528.734789" y="399.352081" style="stroke: #000000"/>
     <use xlink:href="#m2e9834da37" x="533.703861" y="164.849588" style="stroke: #000000"/>
     <use xlink:href="#m2e9834da37" x="538.833225" y="399.352081" style="stroke: #000000"/>
     <use xlink:href="#m2e9834da37" x="543.802296" y="399.352081" style="stroke: #000000"/>
     <use xlink:href="#m2e9834da37" x="548.771368" y="164.849588" style="stroke: #000000"/>
     <use xlink:href="#m2e9834da37" x="553.740439" y="399.352081" style="stroke: #000000"/>
     <use xlink:href="#m2e9834da37" x="558.869803" y="399.352081" style="stroke: #000000"/>
     <use xlink:href="#m2e9834da37" x="563.838874" y="164.849588" style="stroke: #000000"/>
     <use xlink:href="#m2e9834da37" x="568.807946" y="399.352081" style="stroke: #000000"/>
     <use xlink:href="#m2e9834da37" x="573.777017" y="164.849588" style="stroke: #000000"/>
     <use xlink:href="#m2e9834da37" x="578.906381" y="399.352081" style="stroke: #000000"/>
     <use xlink:href="#m2e9834da37" x="583.875452" y="399.352081" style="stroke: #000000"/>
     <use xlink:href="#m2e9834da37" x="588.844524" y="164.849588" style="stroke: #000000"/>
     <use xlink:href="#m2e9834da37" x="593.813595" y="399.352081" style="stroke: #000000"/>
     <use xlink:href="#m2e9834da37" x="598.942959" y="399.352081" style="stroke: #000000"/>
     <use xlink:href="#m2e9834da37" x="603.912031" y="164.849588" style="stroke: #000000"/>
     <use xlink:href="#m2e9834da37" x="608.881102" y="399.352081" style="stroke: #000000"/>
     <use xlink:href="#m2e9834da37" x="613.850173" y="164.849588" style="stroke: #000000"/>
     <use xlink:href="#m2e9834da37" x="618.979537" y="399.352081" style="stroke: #000000"/>
     <use xlink:href="#m2e9834da37" x="623.948609" y="399.352081" style="stroke: #000000"/>
     <use xlink:href="#m2e9834da37" x="628.91768" y="164.849588" style="stroke: #000000"/>
     <use xlink:href="#m2e9834da37" x="633.886751" y="399.352081" style="stroke: #000000"/>
     <use xlink:href="#m2e9834da37" x="639.016115" y="399.352081" style="stroke: #000000"/>
     <use xlink:href="#m2e9834da37" x="643.985187" y="164.849588" style="stroke: #000000"/>
     <use xlink:href="#m2e9834da37" x="648.954258" y="399.352081" style="stroke: #000000"/>
     <use xlink:href="#m2e9834da37" x="653.92333" y="164.849588" style="stroke: #000000"/>
     <use xlink:href="#m2e9834da37" x="659.052694" y="399.352081" style="stroke: #000000"/>
     <use xlink:href="#m2e9834da37" x="664.021765" y="399.352081" style="stroke: #000000"/>
     <use xlink:href="#m2e9834da37" x="668.990836" y="164.849588" style="stroke: #000000"/>
     <use xlink:href="#m2e9834da37" x="673.959908" y="399.352081" style="stroke: #000000"/>
     <use xlink:href="#m2e9834da37" x="679.089272" y="399.352081" style="stroke: #000000"/>
     <use xlink:href="#m2e9834da37" x="684.058343" y="164.849588" style="stroke: #000000"/>
     <use xlink:href="#m2e9834da37" x="689.027414" y="399.352081" style="stroke: #000000"/>
     <use xlink:href="#m2e9834da37" x="693.996486" y="164.849588" style="stroke: #000000"/>
     <use xlink:href="#m2e9834da37" x="699.12585" y="399.352081" style="stroke: #000000"/>
     <use xlink:href="#m2e9834da37" x="704.094921" y="399.352081" style="stroke: #000000"/>
     <use xlink:href="#m2e9834da37" x="709.063993" y="164.849588" style="stroke: #000000"/>
     <use xlink:href="#m2e9834da37" x="714.033064" y="399.352081" style="stroke: #000000"/>
     <use xlink:href="#m2e9834da37" x="719.162428" y="399.352081" style="stroke: #000000"/>
     <use xlink:href="#m2e9834da37" x="724.131499" y="164.849588" style="stroke: #000000"/>
     <use xlink:href="#m2e9834da37" x="729.100571" y="399.352081" style="stroke: #000000"/>
     <use xlink:href="#m2e9834da37" x="734.069642" y="164.849588" style="stroke: #000000"/>
     <use xlink:href="#m2e9834da37" x="739.199006" y="399.352081" style="stroke: #000000"/>
     <use xlink:href="#m2e9834da37" x="744.168077" y="399.352081" style="stroke: #000000"/>
     <use xlink:href="#m2e9834da37" x="749.137149" y="164.849588" style="stroke: #000000"/>
     <use xlink:href="#m2e9834da37" x="754.10622" y="399.352081" style="stroke: #000000"/>
     <use xlink:href="#m2e9834da37" x="759.235584" y="399.352081" style="stroke: #000000"/>
     <use xlink:href="#m2e9834da37" x="764.204656" y="164.849588" style="stroke: #000000"/>
     <use xlink:href="#m2e9834da37" x="769.173727" y="399.352081" style="stroke: #000000"/>
     <use xlink:href="#m2e9834da37" x="774.142798" y="164.849588" style="stroke: #000000"/>
     <use xlink:href="#m2e9834da37" x="779.272162" y="399.352081" style="stroke: #000000"/>
     <use xlink:href="#m2e9834da37" x="784.241234" y="399.352081" style="stroke: #000000"/>
     <use xlink:href="#m2e9834da37" x="789.210305" y="164.849588" style="stroke: #000000"/>
     <use xlink:href="#m2e9834da37" x="794.179376" y="399.352081" style="stroke: #000000"/>
     <use xlink:href="#m2e9834da37" x="799.30874" y="399.352081" style="stroke: #000000"/>
     <use xlink:href="#m2e9834da37" x="804.277812" y="164.849588" style="stroke: #000000"/>
     <use xlink:href="#m2e9834da37" x="809.246883" y="399.352081" style="stroke: #000000"/>
     <use xlink:href="#m2e9834da37" x="814.215955" y="164.849588" style="stroke: #000000"/>
     <use xlink:href="#m2e9834da37" x="819.345319" y="399.352081" style="stroke: #000000"/>
     <use xlink:href="#m2e9834da37" x="824.31439" y="399.352081" style="stroke: #000000"/>
     <use xlink:href="#m2e9834da37" x="829.283461" y="164.849588" style="stroke: #000000"/>
     <use xlink:href="#m2e9834da37" x="834.252533" y="399.352081" style="stroke: #000000"/>
     <use xlink:href="#m2e9834da37" x="839.381897" y="399.352081" style="stroke: #000000"/>
     <use xlink:href="#m2e9834da37" x="844.350968" y="164.849588" style="stroke: #000000"/>
     <use xlink:href="#m2e9834da37" x="849.320039" y="399.352081" style="stroke: #000000"/>
     <use xlink:href="#m2e9834da37" x="854.289111" y="164.849588" style="stroke: #000000"/>
     <use xlink:href="#m2e9834da37" x="859.418475" y="399.352081" style="stroke: #000000"/>
     <use xlink:href="#m2e9834da37" x="864.387546" y="399.352081" style="stroke: #000000"/>
     <use xlink:href="#m2e9834da37" x="869.356618" y="164.849588" style="stroke: #000000"/>
     <use xlink:href="#m2e9834da37" x="874.325689" y="399.352081" style="stroke: #000000"/>
     <use xlink:href="#m2e9834da37" x="879.455053" y="399.352081" style="stroke: #000000"/>
     <use xlink:href="#m2e9834da37" x="884.424124" y="164.849588" style="stroke: #000000"/>
     <use xlink:href="#m2e9834da37" x="889.393196" y="399.352081" style="stroke: #000000"/>
     <use xlink:href="#m2e9834da37" x="894.362267" y="164.849588" style="stroke: #000000"/>
     <use xlink:href="#m2e9834da37" x="899.491631" y="399.352081" style="stroke: #000000"/>
     <use xlink:href="#m2e9834da37" x="904.460702" y="399.352081" style="stroke: #000000"/>
     <use xlink:href="#m2e9834da37" x="909.429774" y="164.849588" style="stroke: #000000"/>
     <use xlink:href="#m2e9834da37" x="914.398845" y="399.352081" style="stroke: #000000"/>
     <use xlink:href="#m2e9834da37" x="919.528209" y="399.352081" style="stroke: #000000"/>
     <use xlink:href="#m2e9834da37" x="924.497281" y="164.849588" style="stroke: #000000"/>
     <use xlink:href="#m2e9834da37" x="929.466352" y="399.352081" style="stroke: #000000"/>
    </g>
   </g>
   <g id="patch_3">
    <path d="M 135 448.56 
L 135 60.48 
" style="fill: none; stroke: #000000; stroke-width: 0.8; stroke-linejoin: miter; stroke-linecap: square"/>
   </g>
   <g id="patch_4">
    <path d="M 972 448.56 
L 972 60.48 
" style="fill: none; stroke: #000000; stroke-width: 0.8; stroke-linejoin: miter; stroke-linecap: square"/>
   </g>
   <g id="patch_5">
    <path d="M 135 448.56 
L 972 448.56 
" style="fill: none; stroke: #000000; stroke-width: 0.8; stroke-linejoin: miter; stroke-linecap: square"/>
   </g>
   <g id="patch_6">
    <path d="M 135 60.48 
L 972 60.48 
" style="fill: none; stroke: #000000; stroke-width: 0.8; stroke-linejoin: miter; stroke-linecap: square"/>
   </g>
   <g id="legend_1">
    <g id="patch_7">
     <path d="M 895.915625 113.070625 
L 965 113.070625 
Q 967 113.070625 967 111.070625 
L 967 67.48 
Q 967 65.48 965 65.48 
L 895.915625 65.48 
Q 893.915625 65.48 893.915625 67.48 
L 893.915625 111.070625 
Q 893.915625 113.070625 895.915625 113.070625 
z
" style="fill: #ffffff; opacity: 0.8; stroke: #cccccc; stroke-linejoin: miter"/>
    </g>
    <g id="line2d_18">
     <path d="M 897.915625 73.578438 
L 907.915625 73.578438 
L 917.915625 73.578438 
" style="fill: none; stroke: #1f77b4; stroke-width: 1.5; stroke-linecap: square"/>
    </g>
    <g id="text_16">
     <!-- nw_0 -->
     <g transform="translate(925.915625 77.078438) scale(0.1 -0.1)">
      <defs>
       <path id="DejaVuSans-6e" d="M 3513 2113 
L 3513 0 
L 2938 0 
L 2938 2094 
Q 2938 2591 2744 2837 
Q 2550 3084 2163 3084 
Q 1697 3084 1428 2787 
Q 1159 2491 1159 1978 
L 1159 0 
L 581 0 
L 581 3500 
L 1159 3500 
L 1159 2956 
Q 1366 3272 1645 3428 
Q 1925 3584 2291 3584 
Q 2894 3584 3203 3211 
Q 3513 2838 3513 2113 
z
" transform="scale(0.015625)"/>
       <path id="DejaVuSans-77" d="M 269 3500 
L 844 3500 
L 1563 769 
L 2278 3500 
L 2956 3500 
L 3675 769 
L 4391 3500 
L 4966 3500 
L 4050 0 
L 3372 0 
L 2619 2869 
L 1863 0 
L 1184 0 
L 269 3500 
z
" transform="scale(0.015625)"/>
       <path id="DejaVuSans-5f" d="M 3263 -1063 
L 3263 -1509 
L -63 -1509 
L -63 -1063 
L 3263 -1063 
z
" transform="scale(0.015625)"/>
      </defs>
      <use xlink:href="#DejaVuSans-6e"/>
      <use xlink:href="#DejaVuSans-77" x="63.378906"/>
      <use xlink:href="#DejaVuSans-5f" x="145.166016"/>
      <use xlink:href="#DejaVuSans-30" x="195.166016"/>
     </g>
    </g>
    <g id="line2d_19">
     <path d="M 897.915625 88.534688 
L 907.915625 88.534688 
L 917.915625 88.534688 
" style="fill: none; stroke: #ff7f0e; stroke-width: 1.5; stroke-linecap: square"/>
    </g>
    <g id="text_17">
     <!-- input_0 -->
     <g transform="translate(925.915625 92.034688) scale(0.1 -0.1)">
      <defs>
       <path id="DejaVuSans-69" d="M 603 3500 
L 1178 3500 
L 1178 0 
L 603 0 
L 603 3500 
z
M 603 4863 
L 1178 4863 
L 1178 4134 
L 603 4134 
L 603 4863 
z
" transform="scale(0.015625)"/>
       <path id="DejaVuSans-70" d="M 1159 525 
L 1159 -1331 
L 581 -1331 
L 581 3500 
L 1159 3500 
L 1159 2969 
Q 1341 3281 1617 3432 
Q 1894 3584 2278 3584 
Q 2916 3584 3314 3078 
Q 3713 2572 3713 1747 
Q 3713 922 3314 415 
Q 2916 -91 2278 -91 
Q 1894 -91 1617 61 
Q 1341 213 1159 525 
z
M 3116 1747 
Q 3116 2381 2855 2742 
Q 2594 3103 2138 3103 
Q 1681 3103 1420 2742 
Q 1159 2381 1159 1747 
Q 1159 1113 1420 752 
Q 1681 391 2138 391 
Q 2594 391 2855 752 
Q 3116 1113 3116 1747 
z
" transform="scale(0.015625)"/>
       <path id="DejaVuSans-75" d="M 544 1381 
L 544 3500 
L 1119 3500 
L 1119 1403 
Q 1119 906 1312 657 
Q 1506 409 1894 409 
Q 2359 409 2629 706 
Q 2900 1003 2900 1516 
L 2900 3500 
L 3475 3500 
L 3475 0 
L 2900 0 
L 2900 538 
Q 2691 219 2414 64 
Q 2138 -91 1772 -91 
Q 1169 -91 856 284 
Q 544 659 544 1381 
z
M 1991 3584 
L 1991 3584 
z
" transform="scale(0.015625)"/>
      </defs>
      <use xlink:href="#DejaVuSans-69"/>
      <use xlink:href="#DejaVuSans-6e" x="27.783203"/>
      <use xlink:href="#DejaVuSans-70" x="91.162109"/>
      <use xlink:href="#DejaVuSans-75" x="154.638672"/>
      <use xlink:href="#DejaVuSans-74" x="218.017578"/>
      <use xlink:href="#DejaVuSans-5f" x="257.226562"/>
      <use xlink:href="#DejaVuSans-30" x="307.226562"/>
     </g>
    </g>
    <g id="line2d_20">
     <path d="M 897.915625 103.490938 
L 907.915625 103.490938 
L 917.915625 103.490938 
" style="fill: none; stroke: #000000; stroke-width: 1.5; stroke-linecap: square"/>
     <g>
      <use xlink:href="#m2e9834da37" x="907.915625" y="103.490938" style="stroke: #000000"/>
     </g>
    </g>
    <g id="text_18">
     <!-- target -->
     <g transform="translate(925.915625 106.990938) scale(0.1 -0.1)">
      <defs>
       <path id="DejaVuSans-61" d="M 2194 1759 
Q 1497 1759 1228 1600 
Q 959 1441 959 1056 
Q 959 750 1161 570 
Q 1363 391 1709 391 
Q 2188 391 2477 730 
Q 2766 1069 2766 1631 
L 2766 1759 
L 2194 1759 
z
M 3341 1997 
L 3341 0 
L 2766 0 
L 2766 531 
Q 2569 213 2275 61 
Q 1981 -91 1556 -91 
Q 1019 -91 701 211 
Q 384 513 384 1019 
Q 384 1609 779 1909 
Q 1175 2209 1959 2209 
L 2766 2209 
L 2766 2266 
Q 2766 2663 2505 2880 
Q 2244 3097 1772 3097 
Q 1472 3097 1187 3025 
Q 903 2953 641 2809 
L 641 3341 
Q 956 3463 1253 3523 
Q 1550 3584 1831 3584 
Q 2591 3584 2966 3190 
Q 3341 2797 3341 1997 
z
" transform="scale(0.015625)"/>
       <path id="DejaVuSans-72" d="M 2631 2963 
Q 2534 3019 2420 3045 
Q 2306 3072 2169 3072 
Q 1681 3072 1420 2755 
Q 1159 2438 1159 1844 
L 1159 0 
L 581 0 
L 581 3500 
L 1159 3500 
L 1159 2956 
Q 1341 3275 1631 3429 
Q 1922 3584 2338 3584 
Q 2397 3584 2469 3576 
Q 2541 3569 2628 3553 
L 2631 2963 
z
" transform="scale(0.015625)"/>
       <path id="DejaVuSans-67" d="M 2906 1791 
Q 2906 2416 2648 2759 
Q 2391 3103 1925 3103 
Q 1463 3103 1205 2759 
Q 947 2416 947 1791 
Q 947 1169 1205 825 
Q 1463 481 1925 481 
Q 2391 481 2648 825 
Q 2906 1169 2906 1791 
z
M 3481 434 
Q 3481 -459 3084 -895 
Q 2688 -1331 1869 -1331 
Q 1566 -1331 1297 -1286 
Q 1028 -1241 775 -1147 
L 775 -588 
Q 1028 -725 1275 -790 
Q 1522 -856 1778 -856 
Q 2344 -856 2625 -561 
Q 2906 -266 2906 331 
L 2906 616 
Q 2728 306 2450 153 
Q 2172 0 1784 0 
Q 1141 0 747 490 
Q 353 981 353 1791 
Q 353 2603 747 3093 
Q 1141 3584 1784 3584 
Q 2172 3584 2450 3431 
Q 2728 3278 2906 2969 
L 2906 3500 
L 3481 3500 
L 3481 434 
z
" transform="scale(0.015625)"/>
       <path id="DejaVuSans-65" d="M 3597 1894 
L 3597 1613 
L 953 1613 
Q 991 1019 1311 708 
Q 1631 397 2203 397 
Q 2534 397 2845 478 
Q 3156 559 3463 722 
L 3463 178 
Q 3153 47 2828 -22 
Q 2503 -91 2169 -91 
Q 1331 -91 842 396 
Q 353 884 353 1716 
Q 353 2575 817 3079 
Q 1281 3584 2069 3584 
Q 2775 3584 3186 3129 
Q 3597 2675 3597 1894 
z
M 3022 2063 
Q 3016 2534 2758 2815 
Q 2500 3097 2075 3097 
Q 1594 3097 1305 2825 
Q 1016 2553 972 2059 
L 3022 2063 
z
" transform="scale(0.015625)"/>
      </defs>
      <use xlink:href="#DejaVuSans-74"/>
      <use xlink:href="#DejaVuSans-61" x="39.208984"/>
      <use xlink:href="#DejaVuSans-72" x="100.488281"/>
      <use xlink:href="#DejaVuSans-67" x="139.851562"/>
      <use xlink:href="#DejaVuSans-65" x="203.328125"/>
      <use xlink:href="#DejaVuSans-74" x="264.851562"/>
     </g>
    </g>
   </g>
  </g>
 </g>
 <defs>
  <clipPath id="p073564ffd8">
   <rect x="135" y="60.48" width="837" height="388.08"/>
  </clipPath>
 </defs>
</svg>
