<?xml version="1.0" encoding="utf-8" standalone="no"?>
<!DOCTYPE svg PUBLIC "-//W3C//DTD SVG 1.1//EN"
  "http://www.w3.org/Graphics/SVG/1.1/DTD/svg11.dtd">
<svg xmlns:xlink="http://www.w3.org/1999/xlink" width="1080pt" height="504pt" viewBox="0 0 1080 504" xmlns="http://www.w3.org/2000/svg" version="1.1">
 <metadata>
  <rdf:RDF xmlns:dc="http://purl.org/dc/elements/1.1/" xmlns:cc="http://creativecommons.org/ns#" xmlns:rdf="http://www.w3.org/1999/02/22-rdf-syntax-ns#">
   <cc:Work>
    <dc:type rdf:resource="http://purl.org/dc/dcmitype/StillImage"/>
    <dc:date>2024-05-09T11:02:04.546725</dc:date>
    <dc:format>image/svg+xml</dc:format>
    <dc:creator>
     <cc:Agent>
      <dc:title>Matplotlib v3.7.1, https://matplotlib.org/</dc:title>
     </cc:Agent>
    </dc:creator>
   </cc:Work>
  </rdf:RDF>
 </metadata>
 <defs>
  <style type="text/css">*{stroke-linejoin: round; stroke-linecap: butt}</style>
 </defs>
 <g id="figure_1">
  <g id="patch_1">
   <path d="M 0 504 
L 1080 504 
L 1080 0 
L 0 0 
z
" style="fill: #ffffff"/>
  </g>
  <g id="axes_1">
   <g id="patch_2">
    <path d="M 135 448.56 
L 972 448.56 
L 972 60.48 
L 135 60.48 
z
" style="fill: #ffffff"/>
   </g>
   <g id="matplotlib.axis_1">
    <g id="xtick_1">
     <g id="line2d_1">
      <defs>
       <path id="m403ff9af92" d="M 0 0 
L 0 3.5 
" style="stroke: #000000; stroke-width: 0.8"/>
      </defs>
      <g>
       <use xlink:href="#m403ff9af92" x="173.045455" y="448.56" style="stroke: #000000; stroke-width: 0.8"/>
      </g>
     </g>
     <g id="text_1">
      <!-- 0 -->
      <g transform="translate(169.864205 463.158437) scale(0.1 -0.1)">
       <defs>
        <path id="DejaVuSans-30" d="M 2034 4250 
Q 1547 4250 1301 3770 
Q 1056 3291 1056 2328 
Q 1056 1369 1301 889 
Q 1547 409 2034 409 
Q 2525 409 2770 889 
Q 3016 1369 3016 2328 
Q 3016 3291 2770 3770 
Q 2525 4250 2034 4250 
z
M 2034 4750 
Q 2819 4750 3233 4129 
Q 3647 3509 3647 2328 
Q 3647 1150 3233 529 
Q 2819 -91 2034 -91 
Q 1250 -91 836 529 
Q 422 1150 422 2328 
Q 422 3509 836 4129 
Q 1250 4750 2034 4750 
z
" transform="scale(0.015625)"/>
       </defs>
       <use xlink:href="#DejaVuSans-30"/>
      </g>
     </g>
    </g>
    <g id="xtick_2">
     <g id="line2d_2">
      <g>
       <use xlink:href="#m403ff9af92" x="333.33808" y="448.56" style="stroke: #000000; stroke-width: 0.8"/>
      </g>
     </g>
     <g id="text_2">
      <!-- 1000 -->
      <g transform="translate(320.61308 463.158437) scale(0.1 -0.1)">
       <defs>
        <path id="DejaVuSans-31" d="M 794 531 
L 1825 531 
L 1825 4091 
L 703 3866 
L 703 4441 
L 1819 4666 
L 2450 4666 
L 2450 531 
L 3481 531 
L 3481 0 
L 794 0 
L 794 531 
z
" transform="scale(0.015625)"/>
       </defs>
       <use xlink:href="#DejaVuSans-31"/>
       <use xlink:href="#DejaVuSans-30" x="63.623047"/>
       <use xlink:href="#DejaVuSans-30" x="127.246094"/>
       <use xlink:href="#DejaVuSans-30" x="190.869141"/>
      </g>
     </g>
    </g>
    <g id="xtick_3">
     <g id="line2d_3">
      <g>
       <use xlink:href="#m403ff9af92" x="493.630705" y="448.56" style="stroke: #000000; stroke-width: 0.8"/>
      </g>
     </g>
     <g id="text_3">
      <!-- 2000 -->
      <g transform="translate(480.905705 463.158437) scale(0.1 -0.1)">
       <defs>
        <path id="DejaVuSans-32" d="M 1228 531 
L 3431 531 
L 3431 0 
L 469 0 
L 469 531 
Q 828 903 1448 1529 
Q 2069 2156 2228 2338 
Q 2531 2678 2651 2914 
Q 2772 3150 2772 3378 
Q 2772 3750 2511 3984 
Q 2250 4219 1831 4219 
Q 1534 4219 1204 4116 
Q 875 4013 500 3803 
L 500 4441 
Q 881 4594 1212 4672 
Q 1544 4750 1819 4750 
Q 2544 4750 2975 4387 
Q 3406 4025 3406 3419 
Q 3406 3131 3298 2873 
Q 3191 2616 2906 2266 
Q 2828 2175 2409 1742 
Q 1991 1309 1228 531 
z
" transform="scale(0.015625)"/>
       </defs>
       <use xlink:href="#DejaVuSans-32"/>
       <use xlink:href="#DejaVuSans-30" x="63.623047"/>
       <use xlink:href="#DejaVuSans-30" x="127.246094"/>
       <use xlink:href="#DejaVuSans-30" x="190.869141"/>
      </g>
     </g>
    </g>
    <g id="xtick_4">
     <g id="line2d_4">
      <g>
       <use xlink:href="#m403ff9af92" x="653.92333" y="448.56" style="stroke: #000000; stroke-width: 0.8"/>
      </g>
     </g>
     <g id="text_4">
      <!-- 3000 -->
      <g transform="translate(641.19833 463.158437) scale(0.1 -0.1)">
       <defs>
        <path id="DejaVuSans-33" d="M 2597 2516 
Q 3050 2419 3304 2112 
Q 3559 1806 3559 1356 
Q 3559 666 3084 287 
Q 2609 -91 1734 -91 
Q 1441 -91 1130 -33 
Q 819 25 488 141 
L 488 750 
Q 750 597 1062 519 
Q 1375 441 1716 441 
Q 2309 441 2620 675 
Q 2931 909 2931 1356 
Q 2931 1769 2642 2001 
Q 2353 2234 1838 2234 
L 1294 2234 
L 1294 2753 
L 1863 2753 
Q 2328 2753 2575 2939 
Q 2822 3125 2822 3475 
Q 2822 3834 2567 4026 
Q 2313 4219 1838 4219 
Q 1578 4219 1281 4162 
Q 984 4106 628 3988 
L 628 4550 
Q 988 4650 1302 4700 
Q 1616 4750 1894 4750 
Q 2613 4750 3031 4423 
Q 3450 4097 3450 3541 
Q 3450 3153 3228 2886 
Q 3006 2619 2597 2516 
z
" transform="scale(0.015625)"/>
       </defs>
       <use xlink:href="#DejaVuSans-33"/>
       <use xlink:href="#DejaVuSans-30" x="63.623047"/>
       <use xlink:href="#DejaVuSans-30" x="127.246094"/>
       <use xlink:href="#DejaVuSans-30" x="190.869141"/>
      </g>
     </g>
    </g>
    <g id="xtick_5">
     <g id="line2d_5">
      <g>
       <use xlink:href="#m403ff9af92" x="814.215955" y="448.56" style="stroke: #000000; stroke-width: 0.8"/>
      </g>
     </g>
     <g id="text_5">
      <!-- 4000 -->
      <g transform="translate(801.490955 463.158437) scale(0.1 -0.1)">
       <defs>
        <path id="DejaVuSans-34" d="M 2419 4116 
L 825 1625 
L 2419 1625 
L 2419 4116 
z
M 2253 4666 
L 3047 4666 
L 3047 1625 
L 3713 1625 
L 3713 1100 
L 3047 1100 
L 3047 0 
L 2419 0 
L 2419 1100 
L 313 1100 
L 313 1709 
L 2253 4666 
z
" transform="scale(0.015625)"/>
       </defs>
       <use xlink:href="#DejaVuSans-34"/>
       <use xlink:href="#DejaVuSans-30" x="63.623047"/>
       <use xlink:href="#DejaVuSans-30" x="127.246094"/>
       <use xlink:href="#DejaVuSans-30" x="190.869141"/>
      </g>
     </g>
    </g>
    <g id="text_6">
     <!-- t -->
     <g transform="translate(551.539844 476.836563) scale(0.1 -0.1)">
      <defs>
       <path id="DejaVuSans-74" d="M 1172 4494 
L 1172 3500 
L 2356 3500 
L 2356 3053 
L 1172 3053 
L 1172 1153 
Q 1172 725 1289 603 
Q 1406 481 1766 481 
L 2356 481 
L 2356 0 
L 1766 0 
Q 1100 0 847 248 
Q 594 497 594 1153 
L 594 3053 
L 172 3053 
L 172 3500 
L 594 3500 
L 594 4494 
L 1172 4494 
z
" transform="scale(0.015625)"/>
      </defs>
      <use xlink:href="#DejaVuSans-74"/>
     </g>
    </g>
   </g>
   <g id="matplotlib.axis_2">
    <g id="ytick_1">
     <g id="line2d_6">
      <defs>
       <path id="m5fde83bc75" d="M 0 0 
L -3.5 0 
" style="stroke: #000000; stroke-width: 0.8"/>
      </defs>
      <g>
       <use xlink:href="#m5fde83bc75" x="135" y="443.833457" style="stroke: #000000; stroke-width: 0.8"/>
      </g>
     </g>
     <g id="text_7">
      <!-- −0.2 -->
      <g transform="translate(103.717187 447.632675) scale(0.1 -0.1)">
       <defs>
        <path id="DejaVuSans-2212" d="M 678 2272 
L 4684 2272 
L 4684 1741 
L 678 1741 
L 678 2272 
z
" transform="scale(0.015625)"/>
        <path id="DejaVuSans-2e" d="M 684 794 
L 1344 794 
L 1344 0 
L 684 0 
L 684 794 
z
" transform="scale(0.015625)"/>
       </defs>
       <use xlink:href="#DejaVuSans-2212"/>
       <use xlink:href="#DejaVuSans-30" x="83.789062"/>
       <use xlink:href="#DejaVuSans-2e" x="147.412109"/>
       <use xlink:href="#DejaVuSans-32" x="179.199219"/>
      </g>
     </g>
    </g>
    <g id="ytick_2">
     <g id="line2d_7">
      <g>
       <use xlink:href="#m5fde83bc75" x="135" y="397.856732" style="stroke: #000000; stroke-width: 0.8"/>
      </g>
     </g>
     <g id="text_8">
      <!-- 0.0 -->
      <g transform="translate(112.096875 401.655951) scale(0.1 -0.1)">
       <use xlink:href="#DejaVuSans-30"/>
       <use xlink:href="#DejaVuSans-2e" x="63.623047"/>
       <use xlink:href="#DejaVuSans-30" x="95.410156"/>
      </g>
     </g>
    </g>
    <g id="ytick_3">
     <g id="line2d_8">
      <g>
       <use xlink:href="#m5fde83bc75" x="135" y="351.880008" style="stroke: #000000; stroke-width: 0.8"/>
      </g>
     </g>
     <g id="text_9">
      <!-- 0.2 -->
      <g transform="translate(112.096875 355.679227) scale(0.1 -0.1)">
       <use xlink:href="#DejaVuSans-30"/>
       <use xlink:href="#DejaVuSans-2e" x="63.623047"/>
       <use xlink:href="#DejaVuSans-32" x="95.410156"/>
      </g>
     </g>
    </g>
    <g id="ytick_4">
     <g id="line2d_9">
      <g>
       <use xlink:href="#m5fde83bc75" x="135" y="305.903283" style="stroke: #000000; stroke-width: 0.8"/>
      </g>
     </g>
     <g id="text_10">
      <!-- 0.4 -->
      <g transform="translate(112.096875 309.702502) scale(0.1 -0.1)">
       <use xlink:href="#DejaVuSans-30"/>
       <use xlink:href="#DejaVuSans-2e" x="63.623047"/>
       <use xlink:href="#DejaVuSans-34" x="95.410156"/>
      </g>
     </g>
    </g>
    <g id="ytick_5">
     <g id="line2d_10">
      <g>
       <use xlink:href="#m5fde83bc75" x="135" y="259.926559" style="stroke: #000000; stroke-width: 0.8"/>
      </g>
     </g>
     <g id="text_11">
      <!-- 0.6 -->
      <g transform="translate(112.096875 263.725778) scale(0.1 -0.1)">
       <defs>
        <path id="DejaVuSans-36" d="M 2113 2584 
Q 1688 2584 1439 2293 
Q 1191 2003 1191 1497 
Q 1191 994 1439 701 
Q 1688 409 2113 409 
Q 2538 409 2786 701 
Q 3034 994 3034 1497 
Q 3034 2003 2786 2293 
Q 2538 2584 2113 2584 
z
M 3366 4563 
L 3366 3988 
Q 3128 4100 2886 4159 
Q 2644 4219 2406 4219 
Q 1781 4219 1451 3797 
Q 1122 3375 1075 2522 
Q 1259 2794 1537 2939 
Q 1816 3084 2150 3084 
Q 2853 3084 3261 2657 
Q 3669 2231 3669 1497 
Q 3669 778 3244 343 
Q 2819 -91 2113 -91 
Q 1303 -91 875 529 
Q 447 1150 447 2328 
Q 447 3434 972 4092 
Q 1497 4750 2381 4750 
Q 2619 4750 2861 4703 
Q 3103 4656 3366 4563 
z
" transform="scale(0.015625)"/>
       </defs>
       <use xlink:href="#DejaVuSans-30"/>
       <use xlink:href="#DejaVuSans-2e" x="63.623047"/>
       <use xlink:href="#DejaVuSans-36" x="95.410156"/>
      </g>
     </g>
    </g>
    <g id="ytick_6">
     <g id="line2d_11">
      <g>
       <use xlink:href="#m5fde83bc75" x="135" y="213.949835" style="stroke: #000000; stroke-width: 0.8"/>
      </g>
     </g>
     <g id="text_12">
      <!-- 0.8 -->
      <g transform="translate(112.096875 217.749053) scale(0.1 -0.1)">
       <defs>
        <path id="DejaVuSans-38" d="M 2034 2216 
Q 1584 2216 1326 1975 
Q 1069 1734 1069 1313 
Q 1069 891 1326 650 
Q 1584 409 2034 409 
Q 2484 409 2743 651 
Q 3003 894 3003 1313 
Q 3003 1734 2745 1975 
Q 2488 2216 2034 2216 
z
M 1403 2484 
Q 997 2584 770 2862 
Q 544 3141 544 3541 
Q 544 4100 942 4425 
Q 1341 4750 2034 4750 
Q 2731 4750 3128 4425 
Q 3525 4100 3525 3541 
Q 3525 3141 3298 2862 
Q 3072 2584 2669 2484 
Q 3125 2378 3379 2068 
Q 3634 1759 3634 1313 
Q 3634 634 3220 271 
Q 2806 -91 2034 -91 
Q 1263 -91 848 271 
Q 434 634 434 1313 
Q 434 1759 690 2068 
Q 947 2378 1403 2484 
z
M 1172 3481 
Q 1172 3119 1398 2916 
Q 1625 2713 2034 2713 
Q 2441 2713 2670 2916 
Q 2900 3119 2900 3481 
Q 2900 3844 2670 4047 
Q 2441 4250 2034 4250 
Q 1625 4250 1398 4047 
Q 1172 3844 1172 3481 
z
" transform="scale(0.015625)"/>
       </defs>
       <use xlink:href="#DejaVuSans-30"/>
       <use xlink:href="#DejaVuSans-2e" x="63.623047"/>
       <use xlink:href="#DejaVuSans-38" x="95.410156"/>
      </g>
     </g>
    </g>
    <g id="ytick_7">
     <g id="line2d_12">
      <g>
       <use xlink:href="#m5fde83bc75" x="135" y="167.97311" style="stroke: #000000; stroke-width: 0.8"/>
      </g>
     </g>
     <g id="text_13">
      <!-- 1.0 -->
      <g transform="translate(112.096875 171.772329) scale(0.1 -0.1)">
       <use xlink:href="#DejaVuSans-31"/>
       <use xlink:href="#DejaVuSans-2e" x="63.623047"/>
       <use xlink:href="#DejaVuSans-30" x="95.410156"/>
      </g>
     </g>
    </g>
    <g id="ytick_8">
     <g id="line2d_13">
      <g>
       <use xlink:href="#m5fde83bc75" x="135" y="121.996386" style="stroke: #000000; stroke-width: 0.8"/>
      </g>
     </g>
     <g id="text_14">
      <!-- 1.2 -->
      <g transform="translate(112.096875 125.795604) scale(0.1 -0.1)">
       <use xlink:href="#DejaVuSans-31"/>
       <use xlink:href="#DejaVuSans-2e" x="63.623047"/>
       <use xlink:href="#DejaVuSans-32" x="95.410156"/>
      </g>
     </g>
    </g>
    <g id="ytick_9">
     <g id="line2d_14">
      <g>
       <use xlink:href="#m5fde83bc75" x="135" y="76.019661" style="stroke: #000000; stroke-width: 0.8"/>
      </g>
     </g>
     <g id="text_15">
      <!-- 1.4 -->
      <g transform="translate(112.096875 79.81888) scale(0.1 -0.1)">
       <use xlink:href="#DejaVuSans-31"/>
       <use xlink:href="#DejaVuSans-2e" x="63.623047"/>
       <use xlink:href="#DejaVuSans-34" x="95.410156"/>
      </g>
     </g>
    </g>
   </g>
   <g id="line2d_15">
    <path d="M 173.045455 368.031389 
L 173.686625 272.751254 
L 174.327796 208.957336 
L 174.968966 168.596961 
L 175.449844 149.632156 
L 175.930722 137.689082 
L 176.4116 130.744679 
L 176.892478 127.089293 
L 177.373355 125.294189 
L 177.693941 124.539467 
L 178.335111 241.52473 
L 178.976282 318.439142 
L 179.45716 355.469261 
L 179.938037 378.505654 
L 180.418915 390.385242 
L 180.739501 393.32051 
L 180.899793 393.534574 
L 181.060086 393.010387 
L 181.380671 390.015793 
L 181.861549 381.568484 
L 182.502719 365.117046 
L 183.78506 324.027358 
L 185.387987 274.369471 
L 186.349742 250.885441 
L 187.151206 235.988744 
L 187.952669 225.396721 
L 188.593839 219.84412 
L 189.074717 217.232599 
L 189.555595 215.818286 
L 189.87618 215.475026 
L 190.196765 215.563433 
L 190.517351 216.041409 
L 190.998229 217.396125 
L 191.639399 220.172476 
L 192.440862 224.745817 
L 195.9673 246.46437 
L 196.768763 249.541597 
L 197.409934 251.158966 
L 197.890811 251.846605 
L 198.211397 252.049176 
L 198.531982 252.046282 
L 198.852567 251.839055 
L 199.333445 251.151237 
L 199.814323 250.024662 
L 200.455493 247.877475 
L 201.256957 244.251981 
L 202.218712 238.736897 
L 203.501053 229.958124 
L 207.348076 202.402053 
L 208.309832 197.22312 
L 209.111295 193.935792 
L 209.752466 192.097374 
L 210.233344 191.229131 
L 210.714221 190.829482 
L 211.034807 190.835692 
L 211.355392 191.067774 
L 211.83627 191.852336 
L 212.317148 193.176124 
L 212.958318 195.804931 
L 213.278903 197.497165 
L 213.759781 147.127994 
L 214.240659 114.721747 
L 214.721537 96.453202 
L 215.042122 90.471331 
L 215.362708 88.423267 
L 215.523 88.62727 
L 215.843585 91.041383 
L 216.324463 98.469416 
L 217.125926 116.415713 
L 218.087682 138.853854 
L 218.728853 239.320657 
L 219.370023 303.474368 
L 219.850901 333.055025 
L 220.331779 350.221052 
L 220.652364 356.090615 
L 220.972949 358.311062 
L 221.133242 358.247315 
L 221.293535 357.496213 
L 221.61412 354.194177 
L 222.094998 345.628981 
L 222.736168 329.601083 
L 226.102313 236.501515 
L 226.903777 222.710003 
L 227.544947 214.99475 
L 228.025825 211.097205 
L 228.506703 208.732535 
L 228.827288 207.955334 
L 229.147873 207.774659 
L 229.468459 208.1501 
L 229.789044 209.038825 
L 230.269922 211.236457 
L 230.911092 215.53883 
L 231.712555 222.601396 
L 232.994896 236.154163 
L 235.238993 259.880275 
L 236.200749 267.968743 
L 237.002212 273.178176 
L 237.643382 276.210709 
L 238.284553 278.176037 
L 238.765431 278.936369 
L 239.086016 279.103806 
L 239.406601 279.002645 
L 239.727187 278.637192 
L 240.208064 277.606481 
L 240.688942 276.019618 
L 241.330113 273.093752 
L 242.131576 268.262853 
L 243.093332 261.019303 
L 244.375673 249.57663 
L 248.703574 209.218424 
L 249.665329 202.594099 
L 250.466792 198.340019 
L 251.107963 195.895225 
L 251.588841 194.674304 
L 252.069719 194.012495 
L 252.390304 193.895441 
L 252.710889 194.046268 
L 253.031474 194.471603 
L 253.512352 195.637258 
L 253.99323 197.45151 
L 254.634401 138.485062 
L 255.115279 112.269132 
L 255.596156 97.762697 
L 255.916742 93.174674 
L 256.237327 91.781543 
L 256.39762 92.074245 
L 256.718205 94.260537 
L 257.199083 100.536181 
L 258.000546 115.213303 
L 258.802009 130.385948 
L 259.443179 225.796149 
L 260.08435 285.431711 
L 260.565228 311.94734 
L 261.046106 326.306104 
L 261.366691 330.439826 
L 261.526984 331.13748 
L 261.687276 331.028286 
L 261.847569 330.186349 
L 262.168154 326.580412 
L 262.649032 317.302383 
L 263.290202 299.966774 
L 264.893129 247.619055 
L 266.17547 209.94445 
L 266.976933 191.755775 
L 267.778396 178.485255 
L 268.419566 171.471738 
L 268.900444 168.238832 
L 269.22103 166.999242 
L 269.541615 166.452795 
L 269.701907 166.427644 
L 269.8622 166.561129 
L 270.182785 167.282724 
L 270.663663 169.418375 
L 271.144541 172.679592 
L 271.785712 178.503025 
L 272.747467 189.633451 
L 274.350394 211.618806 
L 276.434198 239.943408 
L 277.716539 254.340375 
L 278.678294 262.873895 
L 279.479758 268.349349 
L 280.281221 272.317032 
L 280.922391 274.436849 
L 281.403269 275.443713 
L 281.884147 275.982712 
L 282.204732 276.099054 
L 282.525317 276.034286 
L 283.006195 275.624797 
L 283.487073 274.880646 
L 284.128244 273.451305 
L 285.089999 270.61818 
L 288.295852 260.421027 
L 288.937022 259.196428 
L 289.4179 258.632608 
L 289.898778 258.423304 
L 290.219363 258.501954 
L 290.539949 258.769247 
L 291.020827 259.548805 
L 291.501704 260.814707 
L 292.142875 263.316122 
L 292.784045 266.811107 
L 293.585509 272.667842 
L 294.226679 203.810299 
L 294.707557 170.328046 
L 295.188435 149.061721 
L 295.669313 137.452999 
L 295.989898 133.987847 
L 296.150191 133.320889 
L 296.310483 133.277353 
L 296.470776 133.796648 
L 296.791361 136.298934 
L 297.272239 142.954762 
L 298.073702 158.964942 
L 298.394287 166.285146 
L 299.035458 276.053605 
L 299.676628 347.757693 
L 300.157506 381.97 
L 300.638384 402.969568 
L 301.119262 413.472999 
L 301.439847 415.805103 
L 301.60014 415.80112 
L 301.760432 415.110166 
L 302.081018 411.923509 
L 302.561896 403.499008 
L 303.203066 387.551778 
L 304.6457 343.623233 
L 305.928041 306.782895 
L 306.889796 284.800311 
L 307.69126 271.089652 
L 308.33243 263.204101 
L 308.973601 257.934395 
L 309.454478 255.572004 
L 309.775064 254.691862 
L 310.095649 254.323959 
L 310.255942 254.319751 
L 310.576527 254.645303 
L 310.897112 255.381392 
L 311.37799 257.162975 
L 312.01916 260.581709 
L 312.980916 267.280566 
L 316.507354 293.910686 
L 317.308817 298.110666 
L 318.11028 301.144776 
L 318.751451 302.681091 
L 319.232329 303.308666 
L 319.552914 303.481061 
L 319.873499 303.461573 
L 320.194084 303.256037 
L 320.674962 302.614928 
L 321.15584 301.601014 
L 321.797011 299.73034 
L 322.598474 296.695624 
L 323.880815 290.746392 
L 326.445497 278.454321 
L 327.407252 275.050766 
L 328.048423 273.488338 
L 328.529301 272.770609 
L 328.849886 272.534213 
L 329.170471 272.506783 
L 329.491057 272.700826 
L 329.811642 273.128293 
L 330.29252 274.231869 
L 330.773398 275.921909 
L 331.414568 279.143574 
L 332.055739 283.533987 
L 332.857202 290.752817 
L 333.658665 299.977413 
L 333.818957 302.069107 
L 334.460128 229.121066 
L 335.101298 181.738901 
L 335.582176 159.380776 
L 336.063054 145.974642 
L 336.383639 141.125261 
L 336.704225 139.008524 
L 336.864517 138.846894 
L 337.02481 139.220763 
L 337.345395 141.404639 
L 337.826273 147.698877 
L 338.467444 160.365345 
L 338.627736 164.113559 
L 339.268907 278.302547 
L 339.910077 353.876307 
L 340.390955 390.675253 
L 340.871833 414.021628 
L 341.352711 426.65596 
L 341.673296 430.299162 
L 341.833589 430.92 
L 341.993881 430.834251 
L 342.154174 430.107494 
L 342.474759 426.974911 
L 342.955637 418.903135 
L 343.596808 403.825966 
L 345.199734 358.321937 
L 346.482075 325.428987 
L 347.443831 306.600127 
L 348.245294 295.37508 
L 348.886464 289.293305 
L 349.367342 286.322628 
L 349.84822 284.607357 
L 350.168805 284.104127 
L 350.48939 284.069346 
L 350.809976 284.463498 
L 351.130561 285.245943 
L 351.611439 287.057412 
L 352.252609 290.446897 
L 353.214365 296.968986 
L 356.420218 320.18622 
L 357.381973 325.021417 
L 358.023144 327.327522 
L 358.664314 328.845827 
L 359.145192 329.459431 
L 359.465777 329.620669 
L 359.786363 329.587652 
L 360.106948 329.365528 
L 360.587826 328.692482 
L 361.068704 327.636617 
L 361.709874 325.692036 
L 362.511337 322.532847 
L 363.633386 317.13644 
L 366.678946 301.803905 
L 367.480409 298.879621 
L 368.121579 297.209241 
L 368.602457 296.424296 
L 369.083335 296.092527 
L 369.40392 296.14501 
L 369.724505 296.430941 
L 370.205383 297.323172 
L 370.686261 298.804238 
L 371.327432 301.753236 
L 371.968602 305.880487 
L 372.770065 312.787801 
L 373.090651 316.114568 
L 373.731821 243.3794 
L 374.372992 194.432782 
L 375.014162 164.023578 
L 375.49504 150.792066 
L 375.975918 144.112372 
L 376.296503 142.68465 
L 376.456796 142.758451 
L 376.617088 143.309819 
L 376.937674 145.716255 
L 377.418551 152.155905 
L 377.899429 161.405819 
L 378.5406 270.4777 
L 379.18177 341.530764 
L 379.662648 375.283039 
L 380.143526 395.844346 
L 380.464111 403.580485 
L 380.784697 407.372541 
L 380.944989 407.98974 
L 381.105282 407.852631 
L 381.265574 407.029866 
L 381.58616 403.582963 
L 382.067038 394.774363 
L 382.708208 378.320585 
L 384.150842 333.231582 
L 385.593475 291.071128 
L 386.555231 269.122818 
L 387.356694 255.424738 
L 387.997865 247.481008 
L 388.639035 242.062327 
L 389.119913 239.517486 
L 389.600791 238.143297 
L 389.921376 237.813 
L 390.241961 237.903978 
L 390.562547 238.374667 
L 391.043425 239.701112 
L 391.684595 242.410171 
L 392.646351 247.841712 
L 395.691911 266.292458 
L 396.493374 269.617768 
L 397.134544 271.500115 
L 397.615422 272.422312 
L 398.0963 272.913181 
L 398.416885 273.000196 
L 398.737471 272.897108 
L 399.218348 272.394313 
L 399.699226 271.490622 
L 400.340397 269.706701 
L 401.14186 266.657212 
L 402.103616 262.044591 
L 403.706542 253.048023 
L 405.630053 242.553862 
L 406.591809 238.466707 
L 407.23298 236.463383 
L 407.87415 235.175993 
L 408.355028 234.747287 
L 408.675613 234.741676 
L 408.996199 234.974612 
L 409.316784 235.457775 
L 409.797662 236.67575 
L 410.27854 238.516232 
L 410.91971 241.992433 
L 411.560881 246.696097 
L 412.362344 254.383697 
L 413.163807 264.15586 
L 413.644685 271.044111 
L 414.285855 203.717023 
L 414.927026 157.901907 
L 415.568196 128.928441 
L 416.049074 115.970069 
L 416.529952 109.089275 
L 416.850537 107.35028 
L 417.01083 107.233265 
L 417.171122 107.577889 
L 417.491708 109.544494 
L 417.972586 115.334209 
L 418.453463 124.05781 
L 419.094634 229.254872 
L 419.735804 297.561977 
L 420.216682 329.893605 
L 420.69756 349.510362 
L 421.018145 356.852347 
L 421.338731 360.419944 
L 421.499023 360.983836 
L 421.659316 360.830306 
L 421.819609 360.02628 
L 422.140194 356.715708 
L 422.621072 348.33524 
L 423.422535 328.423153 
L 426.307802 249.312779 
L 427.109265 233.924091 
L 427.910728 222.765206 
L 428.551899 216.842441 
L 429.032777 214.048353 
L 429.513655 212.554735 
L 429.83424 212.222292 
L 429.994532 212.240604 
L 430.315118 212.620988 
L 430.635703 213.425019 
L 431.116581 215.332651 
L 431.757751 218.961864 
L 432.719507 226.054345 
L 436.406237 255.496487 
L 437.207701 259.860587 
L 438.009164 263.004411 
L 438.650334 264.595199 
L 439.131212 265.247573 
L 439.451797 265.430164 
L 439.772383 265.416662 
L 440.092968 265.213661 
L 440.573846 264.571596 
L 441.054724 263.55341 
L 441.695894 261.676622 
L 442.497357 258.642803 
L 443.779698 252.744593 
L 446.023795 242.176182 
L 446.985551 238.738074 
L 447.626721 237.139676 
L 448.107599 236.392937 
L 448.428184 236.137803 
L 448.74877 236.09308 
L 449.069355 236.272095 
L 449.38994 236.687599 
L 449.870818 237.78069 
L 450.351696 239.471468 
L 450.992866 242.715779 
L 451.634037 247.158528 
L 452.4355 254.491966 
L 453.236963 263.893601 
L 453.557548 268.250155 
L 454.198719 202.053537 
L 454.839889 156.819182 
L 455.48106 128.006106 
L 455.961938 114.970373 
L 456.442816 107.903338 
L 456.763401 106.006236 
L 456.923693 105.805868 
L 457.083986 106.066851 
L 457.404571 107.872937 
L 457.725157 111.24359 
L 458.206034 118.905794 
L 458.366327 122.092405 
L 459.007498 227.336707 
L 459.648668 296.084553 
L 460.129546 328.936826 
L 460.610424 349.192549 
L 461.091302 359.473361 
L 461.411887 361.904222 
L 461.57218 362.015004 
L 461.732472 361.47876 
L 462.053057 358.711055 
L 462.533935 351.152703 
L 463.175106 336.712639 
L 464.778032 292.677234 
L 466.060373 260.931354 
L 466.861836 245.572121 
L 467.663299 234.277542 
L 468.30447 228.180815 
L 468.785348 225.239278 
L 469.266226 223.595765 
L 469.586811 223.166473 
L 469.747103 223.13814 
L 470.067689 223.430025 
L 470.388274 224.153379 
L 470.869152 225.957851 
L 471.510322 229.48879 
L 472.311785 235.248482 
L 473.754419 247.569443 
L 475.517638 262.339603 
L 476.639686 269.881085 
L 477.441149 273.953853 
L 478.08232 276.332022 
L 478.72349 277.904709 
L 479.204368 278.560083 
L 479.524954 278.754154 
L 479.845539 278.760558 
L 480.166124 278.586517 
L 480.647002 278.006021 
L 481.12788 277.072435 
L 481.76905 275.346041 
L 482.730806 271.940235 
L 484.333732 265.089129 
L 485.936659 258.53293 
L 486.738122 256.012563 
L 487.379292 254.58844 
L 487.86017 253.945372 
L 488.180755 253.746095 
L 488.501341 253.74642 
L 488.821926 253.959524 
L 489.142511 254.398027 
L 489.623389 255.504591 
L 490.104267 257.183363 
L 490.745437 260.371717 
L 491.386608 264.712689 
L 492.188071 271.854618 
L 492.989534 280.994016 
L 493.630705 289.793161 
L 494.271875 224.534929 
L 494.913046 179.721051 
L 495.554216 150.765596 
L 496.035094 137.246058 
L 496.515972 129.377985 
L 496.836557 126.7771 
L 497.157142 126.004602 
L 497.317435 126.238508 
L 497.63802 127.833724 
L 497.958605 130.803463 
L 498.439483 137.556031 
L 499.080654 242.448215 
L 499.721824 311.196899 
L 500.202702 344.212948 
L 500.68358 364.727507 
L 501.164458 375.328258 
L 501.485043 377.991959 
L 501.645336 378.222184 
L 501.805628 377.806264 
L 502.126214 375.278747 
L 502.607092 368.06914 
L 503.248262 354.048014 
L 504.690896 315.03893 
L 505.973237 282.479767 
L 506.934992 263.305171 
L 507.736456 251.561271 
L 508.377626 244.973828 
L 509.018797 240.746525 
L 509.499674 238.996951 
L 509.82026 238.445733 
L 510.140845 238.344173 
L 510.46143 238.653883 
L 510.782015 239.335358 
L 511.262893 240.966861 
L 511.904064 244.069095 
L 512.86582 250.076954 
L 515.911379 270.35076 
L 516.712843 274.153046 
L 517.354013 276.411067 
L 517.995184 277.912691 
L 518.476061 278.528212 
L 518.796647 278.695339 
L 519.117232 278.670586 
L 519.437817 278.458042 
L 519.918695 277.799663 
L 520.399573 276.756091 
L 521.040743 274.819471 
L 521.842207 271.648925 
L 522.964255 266.181813 
L 526.3304 248.87942 
L 527.131863 246.027524 
L 527.773034 244.455844 
L 528.253912 243.768019 
L 528.574497 243.569175 
L 528.895082 243.593399 
L 529.215667 243.853186 
L 529.536253 244.36045 
L 530.01713 245.609944 
L 530.498008 247.477122 
L 531.139179 250.982876 
L 531.780349 255.711051 
L 532.581812 263.425332 
L 533.383276 273.223539 
L 533.864153 280.128776 
L 534.505324 216.027304 
L 535.146494 172.086887 
L 535.787665 143.518561 
L 536.268543 129.884424 
L 536.749421 121.51059 
L 537.070006 118.343207 
L 537.390591 116.816244 
L 537.550884 116.601981 
L 537.711176 116.723148 
L 538.031762 117.89189 
L 538.352347 120.181409 
L 538.672932 123.478244 
L 539.314103 228.205482 
L 539.955273 297.156188 
L 540.436151 330.502096 
L 540.917029 351.458549 
L 541.397907 362.582263 
L 541.718492 365.626506 
L 541.878785 366.053977 
L 542.039077 365.838914 
L 542.359663 363.721104 
L 542.84054 357.136507 
L 543.481711 343.945599 
L 544.764052 310.908359 
L 546.206686 275.382815 
L 547.168441 256.963931 
L 547.969904 245.718797 
L 548.611075 239.448927 
L 549.252245 235.472204 
L 549.733123 233.87027 
L 550.053709 233.399869 
L 550.374294 233.366073 
L 550.694879 233.731409 
L 551.015464 234.457298 
L 551.496342 236.136444 
L 552.137513 239.27167 
L 553.099268 245.278469 
L 556.144828 265.387801 
L 556.946291 269.159701 
L 557.747755 271.857854 
L 558.388925 273.180875 
L 558.869803 273.675808 
L 559.190388 273.771151 
L 559.510973 273.682785 
L 559.991851 273.217337 
L 560.472729 272.373424 
L 561.1139 270.711228 
L 561.915363 267.893159 
L 563.037411 262.92971 
L 566.403556 247.156645 
L 567.205019 244.672898 
L 567.84619 243.399419 
L 568.327068 242.938452 
L 568.647653 242.892812 
L 568.968238 243.072109 
L 569.288824 243.489113 
L 569.769701 244.586847 
L 570.250579 246.285409 
L 570.89175 249.545772 
L 571.53292 254.012408 
L 572.334383 261.389623 
L 573.135847 270.854784 
L 574.097602 285.074785 
L 574.257895 287.754231 
L 574.899065 225.925639 
L 575.540236 183.948261 
L 576.181406 156.742703 
L 576.662284 143.608282 
L 577.143162 135.21553 
L 577.62404 130.513245 
L 577.944625 129.015054 
L 578.265211 128.595853 
L 578.425503 128.740492 
L 578.746088 129.655236 
L 579.066674 131.314599 
L 579.707844 236.138908 
L 580.349015 305.508177 
L 580.829893 339.323053 
L 581.31077 360.844964 
L 581.791648 372.603128 
L 582.112234 376.097038 
L 582.272526 376.755062 
L 582.432819 376.773451 
L 582.593111 376.212421 
L 582.913697 373.575899 
L 583.394575 366.590511 
L 584.035745 353.430491 
L 587.40189 277.090364 
L 588.203353 265.785074 
L 588.844524 259.403819 
L 589.485694 255.292125 
L 589.966572 253.58736 
L 590.287157 253.051889 
L 590.607743 252.957919 
L 590.928328 253.269447 
L 591.248913 253.949099 
L 591.729791 255.575127 
L 592.370962 258.673205 
L 593.332717 264.701466 
L 596.53857 286.324868 
L 597.340033 290.170003 
L 598.141496 292.94061 
L 598.782667 294.32467 
L 599.263544 294.868775 
L 599.58413 294.999029 
L 599.904715 294.94757 
L 600.2253 294.719739 
L 600.706178 294.062379 
L 601.347349 292.642059 
L 602.148812 290.111593 
L 603.110567 286.228681 
L 606.95759 269.544676 
L 607.598761 267.892968 
L 608.079639 267.085994 
L 608.560517 266.705589 
L 608.881102 266.712967 
L 609.201687 266.945223 
L 609.522272 267.415567 
L 610.00315 268.595036 
L 610.484028 270.378845 
L 611.125199 273.761251 
L 611.766369 278.363324 
L 612.567832 285.935236 
L 613.209003 293.517751 
L 613.850173 233.607043 
L 614.491344 193.599367 
L 615.132514 168.028481 
L 615.613392 155.723456 
L 616.09427 147.717491 
L 616.575148 142.892382 
L 617.056026 140.381297 
L 617.376611 139.664084 
L 617.697196 139.537479 
L 618.017782 139.888923 
L 618.658952 242.729156 
L 619.300123 310.359156 
L 619.781 342.982095 
L 620.261878 363.378671 
L 620.742756 374.056774 
L 621.063341 376.847283 
L 621.223634 377.157013 
L 621.383927 376.828779 
L 621.704512 374.494283 
L 622.18539 367.595569 
L 622.82656 353.976265 
L 624.108901 319.935884 
L 625.551535 282.932743 
L 626.513291 263.318464 
L 627.314754 250.970389 
L 627.955924 243.76472 
L 628.597095 238.819069 
L 629.077973 236.476984 
L 629.558851 235.19216 
L 629.879436 234.865806 
L 630.200021 234.921241 
L 630.520606 235.321083 
L 631.001484 236.483908 
L 631.642655 238.887982 
L 632.60441 243.734029 
L 635.64997 260.156176 
L 636.451433 263.071219 
L 637.092604 264.695829 
L 637.573482 265.47143 
L 638.05436 265.858914 
L 638.374945 265.902158 
L 638.69553 265.776078 
L 639.176408 265.278748 
L 639.657286 264.429511 
L 640.298456 262.7958 
L 641.09992 260.060137 
L 642.221968 255.276179 
L 645.42782 240.802343 
L 646.229284 238.334595 
L 646.870454 237.040304 
L 647.351332 236.545632 
L 647.671917 236.469671 
L 647.992502 236.61295 
L 648.313088 236.988803 
L 648.793966 238.016579 
L 649.274843 239.637413 
L 649.916014 242.7866 
L 650.557184 247.139766 
L 651.358648 254.383435 
L 652.160111 263.739218 
L 653.121866 277.884035 
L 653.92333 292.180184 
L 654.5645 234.313648 
L 655.205671 195.373079 
L 655.846841 169.687496 
L 656.488012 152.867087 
L 657.129182 141.617421 
L 657.930645 131.852509 
L 658.732108 124.158857 
L 659.373279 227.215914 
L 660.014449 295.526115 
L 660.495327 328.904088 
L 660.976205 350.225655 
L 661.457083 361.967312 
L 661.777668 365.530028 
L 661.937961 366.241991 
L 662.098253 366.32558 
L 662.258546 365.839784 
L 662.579131 363.379296 
L 663.060009 356.706624 
L 663.70118 344.01811 
L 665.464399 301.846855 
L 666.586447 278.19617 
L 667.38791 265.057748 
L 668.189373 255.483708 
L 668.830544 250.37207 
L 669.311422 247.936693 
L 669.792299 246.602279 
L 670.112885 246.272168 
L 670.43347 246.349546 
L 670.754055 246.798117 
L 671.234933 248.085026 
L 671.876104 250.74757 
L 672.677567 255.174243 
L 674.601078 267.694663 
L 675.883419 275.145503 
L 676.684882 278.724256 
L 677.326053 280.819738 
L 677.967223 282.164513 
L 678.448101 282.661358 
L 678.768686 282.747102 
L 679.089272 282.63812 
L 679.57015 282.117082 
L 680.051027 281.182974 
L 680.692198 279.338175 
L 681.493661 276.178251 
L 682.455417 271.382327 
L 684.058343 261.969987 
L 685.981855 250.868191 
L 686.94361 246.481946 
L 687.745073 243.866438 
L 688.225951 242.863436 
L 688.706829 242.348101 
L 689.027414 242.299657 
L 689.348 242.503497 
L 689.668585 242.9729 
L 690.149463 244.202585 
L 690.630341 246.098682 
L 691.271511 249.727541 
L 691.912682 254.686823 
L 692.714145 262.861382 
L 693.515608 273.334326 
L 694.156778 283.426341 
L 694.797949 224.407625 
L 695.439119 184.624602 
L 696.08029 158.058383 
L 696.72146 140.056493 
L 697.522924 124.385673 
L 698.805265 105.003642 
L 698.965557 102.634063 
L 699.606728 206.432633 
L 700.247898 275.517372 
L 700.889069 317.986798 
L 701.369947 336.426924 
L 701.850824 346.012058 
L 702.17141 348.482337 
L 702.331702 348.739989 
L 702.491995 348.425764 
L 702.81258 346.300919 
L 703.293458 340.113341 
L 703.934629 328.039844 
L 705.537555 291.050328 
L 706.659603 267.625231 
L 707.461066 254.490712 
L 708.262529 244.916189 
L 708.9037 239.855111 
L 709.384578 237.507249 
L 709.865456 236.31316 
L 710.186041 236.109302 
L 710.506626 236.340816 
L 710.827211 236.972442 
L 711.308089 238.589553 
L 711.94926 241.797275 
L 712.750723 247.071054 
L 714.193357 258.4059 
L 715.956575 271.962997 
L 716.918331 277.933683 
L 717.719794 281.75829 
L 718.360965 283.969402 
L 719.002135 285.392846 
L 719.483013 285.942299 
L 719.803598 286.066461 
L 720.124184 286.002233 
L 720.444769 285.755783 
L 720.925647 285.061186 
L 721.566817 283.577422 
L 722.36828 280.952178 
L 723.330036 276.943217 
L 727.177059 259.826062 
L 727.81823 258.142064 
L 728.299108 257.323849 
L 728.779985 256.945167 
L 729.100571 256.961782 
L 729.421156 257.210412 
L 729.741741 257.70487 
L 730.222619 258.936429 
L 730.703497 260.793475 
L 731.344667 264.310703 
L 731.985838 269.095893 
L 732.787301 276.9751 
L 733.588764 287.079279 
L 734.069642 294.252805 
L 734.710813 237.577953 
L 735.351983 200.235458 
L 735.993154 175.894329 
L 736.634324 159.665826 
L 737.435787 145.320657 
L 738.878421 122.89481 
L 739.519591 227.024268 
L 740.160762 296.356417 
L 740.801932 338.971534 
L 741.28281 357.449096 
L 741.763688 367.009563 
L 742.084273 369.429709 
L 742.244566 369.652519 
L 742.404859 369.297121 
L 742.725444 367.071604 
L 743.206322 360.690028 
L 743.847492 348.286639 
L 745.290126 314.021329 
L 746.572467 285.916036 
L 747.534223 269.826651 
L 748.335686 260.38906 
L 748.976856 255.456575 
L 749.457734 253.206355 
L 749.778319 252.351251 
L 750.098905 251.977979 
L 750.41949 252.053985 
L 750.740075 252.544575 
L 751.220953 253.978233 
L 751.862123 256.995349 
L 752.663587 262.11898 
L 753.945928 272.108752 
L 756.029732 288.455477 
L 756.991487 294.530507 
L 757.792951 298.458482 
L 758.434121 300.764297 
L 759.075292 302.293266 
L 759.556169 302.928681 
L 759.876755 303.113178 
L 760.19734 303.111519 
L 760.517925 302.929677 
L 760.998803 302.335319 
L 761.479681 301.381795 
L 762.120851 299.613076 
L 762.922315 296.740596 
L 764.204656 291.133544 
L 766.448752 281.071399 
L 767.410508 277.827661 
L 768.051679 276.352047 
L 768.532556 275.695897 
L 768.853142 275.50148 
L 769.173727 275.51855 
L 769.494312 275.761244 
L 769.814897 276.243232 
L 770.295775 277.443563 
L 770.776653 279.254076 
L 771.417824 282.685095 
L 772.058994 287.356301 
L 772.860457 295.054245 
L 773.66192 304.93511 
L 773.822213 307.182709 
L 774.463384 251.305903 
L 775.104554 215.227791 
L 775.745725 192.298099 
L 776.386895 177.37626 
L 777.188358 164.227094 
L 778.630992 141.99601 
L 779.272162 247.986635 
L 779.913333 318.770365 
L 780.554503 362.45249 
L 781.035381 381.496277 
L 781.516259 391.438356 
L 781.836844 394.017887 
L 781.997137 394.293628 
L 782.15743 393.974106 
L 782.478015 391.771552 
L 782.958893 385.311367 
L 783.600063 372.616957 
L 784.882404 341.124718 
L 786.325038 307.429912 
L 787.286794 290.041307 
L 788.088257 279.503446 
L 788.729427 273.707169 
L 789.210305 270.829454 
L 789.691183 269.125785 
L 790.011768 268.594532 
L 790.332353 268.509342 
L 790.652939 268.835699 
L 790.973524 269.537649 
L 791.454402 271.213996 
L 792.095572 274.416674 
L 793.057328 280.69629 
L 796.744058 306.810913 
L 797.545522 310.639356 
L 798.186692 312.900313 
L 798.827863 314.406161 
L 799.30874 315.033299 
L 799.629326 315.214559 
L 799.949911 315.210226 
L 800.270496 315.0252 
L 800.751374 314.422794 
L 801.232252 313.454174 
L 801.873422 311.648472 
L 802.674886 308.691821 
L 803.796934 303.613341 
L 806.842494 289.143935 
L 807.643957 286.414679 
L 808.285127 284.888777 
L 808.766005 284.20684 
L 809.086591 283.999476 
L 809.407176 284.00609 
L 809.727761 284.240038 
L 810.048346 284.714213 
L 810.529224 285.902876 
L 811.010102 287.699481 
L 811.651273 291.10409 
L 812.292443 295.734559 
L 813.093906 303.352997 
L 813.414491 306.994298 
L 814.055662 248.920304 
L 814.696832 211.675993 
L 815.338003 188.256984 
L 815.979173 173.229427 
L 816.780637 160.126948 
L 818.062978 140.346783 
L 818.22327 137.451972 
L 818.864441 246.997409 
L 819.505611 320.503391 
L 820.146782 366.15344 
L 820.62766 386.225419 
L 821.108537 396.84839 
L 821.429123 399.704842 
L 821.589415 400.069462 
L 821.749708 399.807303 
L 822.070293 397.62947 
L 822.551171 390.998013 
L 823.192342 377.731388 
L 824.31439 348.526506 
L 826.077609 303.448441 
L 827.039365 284.289634 
L 827.840828 272.244428 
L 828.481998 265.21873 
L 829.123169 260.400269 
L 829.604047 258.123934 
L 830.084924 256.884792 
L 830.40551 256.58042 
L 830.726095 256.653002 
L 831.04668 257.066816 
L 831.527558 258.24816 
L 832.168729 260.680198 
L 832.970192 264.702279 
L 836.656922 284.639873 
L 837.458385 287.236222 
L 838.099556 288.566531 
L 838.580434 289.105518 
L 838.901019 289.243625 
L 839.221604 289.205549 
L 839.542189 288.993627 
L 840.023067 288.358283 
L 840.503945 287.358474 
L 841.145116 285.500783 
L 841.946579 282.43907 
L 843.068627 277.08703 
L 847.236235 255.83588 
L 848.037698 253.360346 
L 848.678869 252.144934 
L 849.159747 251.751478 
L 849.480332 251.760261 
L 849.800917 252.000381 
L 850.121503 252.483718 
L 850.60238 253.689547 
L 851.083258 255.504466 
L 851.724429 258.929652 
L 852.365599 263.569471 
L 853.167062 271.172977 
L 853.968526 280.876535 
L 854.609696 290.20707 
L 855.250867 226.198156 
L 855.892037 184.299146 
L 856.533208 157.11477 
L 857.174378 138.874705 
L 858.136134 119.042986 
L 859.258182 96.217422 
L 859.418475 92.48111 
L 860.059645 209.5266 
L 860.700816 289.373427 
L 861.341986 340.327877 
L 861.822864 363.768136 
L 862.303742 377.288331 
L 862.624327 381.836479 
L 862.944913 383.453484 
L 863.105205 383.316681 
L 863.265498 382.625105 
L 863.586083 379.785284 
L 864.066961 372.586921 
L 864.708131 359.196349 
L 866.150765 322.660823 
L 867.433106 292.09821 
L 868.394862 273.81999 
L 869.196325 262.358836 
L 869.837495 255.707485 
L 870.478666 251.189165 
L 870.959544 249.095268 
L 871.440422 248.00732 
L 871.761007 247.7889 
L 872.081592 247.937368 
L 872.402177 248.418569 
L 872.883055 249.688478 
L 873.524226 252.223311 
L 874.485982 257.284107 
L 877.852127 276.567136 
L 878.65359 279.729352 
L 879.29476 281.58455 
L 879.935931 282.798542 
L 880.416809 283.280757 
L 880.897687 283.399875 
L 881.218272 283.282806 
L 881.69915 282.824719 
L 882.180028 282.047149 
L 882.821198 280.560518 
L 883.622661 278.089424 
L 884.74471 273.810161 
L 887.629977 262.250456 
L 888.43144 259.95041 
L 889.07261 258.69319 
L 889.553488 258.16416 
L 889.874074 258.033999 
L 890.194659 258.097137 
L 890.515244 258.366243 
L 890.996122 259.182793 
L 891.477 260.529792 
L 892.11817 263.214886 
L 892.759341 266.99019 
L 893.560804 273.353035 
L 894.362267 281.657079 
L 895.003438 212.359801 
L 895.644608 167.293001 
L 896.285779 138.599396 
L 896.926949 120.106352 
L 897.728412 104.258355 
L 899.171046 78.12 
L 899.812216 200.990881 
L 900.453387 285.363238 
L 901.094557 339.697763 
L 901.575435 365.009742 
L 902.056313 379.89848 
L 902.376898 385.107151 
L 902.697484 387.201788 
L 902.857776 387.240019 
L 903.018069 386.683447 
L 903.338654 384.000803 
L 903.819532 376.782416 
L 904.460702 362.957593 
L 905.743043 328.648244 
L 907.34597 287.134982 
L 908.307725 267.418264 
L 909.109189 254.873592 
L 909.910652 245.946061 
L 910.551822 241.286869 
L 911.0327 239.128873 
L 911.513578 238.014515 
L 911.834163 237.800968 
L 912.154748 237.973646 
L 912.475334 238.499709 
L 912.956212 239.878768 
L 913.597382 242.645223 
L 914.398845 247.233212 
L 915.681186 256.096807 
L 918.245868 274.002228 
L 919.367917 280.266313 
L 920.329672 284.502296 
L 921.131135 287.206694 
L 921.932599 289.202929 
L 922.734062 290.577348 
L 923.535525 291.453354 
L 924.336988 291.984341 
L 926.581085 293.198243 
L 927.222255 293.915421 
L 927.863426 294.992834 
L 928.504596 296.536665 
L 929.145767 298.650667 
L 929.94723 302.247109 
L 930.748693 307.07574 
L 931.550156 313.307805 
L 932.511912 322.856162 
L 933.473668 334.882656 
L 933.794253 339.477133 
L 933.954545 319.216948 
L 933.954545 319.216948 
" clip-path="url(#p34dffa24a2)" style="fill: none; stroke: #1f77b4; stroke-width: 1.5; stroke-linecap: square"/>
   </g>
   <g id="line2d_16">
    <path d="M 173.045455 167.97311 
L 177.693941 167.97311 
L 177.854233 397.856732 
L 213.278903 397.856732 
L 213.439196 167.97311 
L 218.087682 167.97311 
L 218.247975 397.856732 
L 253.99323 397.856732 
L 254.153523 167.97311 
L 258.802009 167.97311 
L 258.962302 397.856732 
L 293.585509 397.856732 
L 293.745801 167.97311 
L 298.394287 167.97311 
L 298.55458 397.856732 
L 333.818957 397.856732 
L 333.97925 167.97311 
L 338.627736 167.97311 
L 338.788029 397.856732 
L 373.090651 397.856732 
L 373.250943 167.97311 
L 377.899429 167.97311 
L 378.059722 397.856732 
L 413.644685 397.856732 
L 413.804977 167.97311 
L 418.453463 167.97311 
L 418.613756 397.856732 
L 453.557548 397.856732 
L 453.717841 167.97311 
L 458.366327 167.97311 
L 458.52662 397.856732 
L 493.630705 397.856732 
L 493.790997 167.97311 
L 498.439483 167.97311 
L 498.599776 397.856732 
L 533.864153 397.856732 
L 534.024446 167.97311 
L 538.672932 167.97311 
L 538.833225 397.856732 
L 574.257895 397.856732 
L 574.418188 167.97311 
L 579.066674 167.97311 
L 579.226966 397.856732 
L 613.209003 397.856732 
L 613.369295 167.97311 
L 618.017782 167.97311 
L 618.178074 397.856732 
L 653.92333 397.856732 
L 654.083622 167.97311 
L 658.732108 167.97311 
L 658.892401 397.856732 
L 694.156778 397.856732 
L 694.317071 167.97311 
L 698.965557 167.97311 
L 699.12585 397.856732 
L 734.069642 397.856732 
L 734.229935 167.97311 
L 738.878421 167.97311 
L 739.038713 397.856732 
L 773.822213 397.856732 
L 773.982506 167.97311 
L 778.630992 167.97311 
L 778.791284 397.856732 
L 813.414491 397.856732 
L 813.574784 167.97311 
L 818.22327 167.97311 
L 818.383563 397.856732 
L 854.609696 397.856732 
L 854.769989 167.97311 
L 859.418475 167.97311 
L 859.578767 397.856732 
L 894.362267 397.856732 
L 894.52256 167.97311 
L 899.171046 167.97311 
L 899.331338 397.856732 
L 933.794253 397.856732 
L 933.954545 167.97311 
L 933.954545 167.97311 
" clip-path="url(#p34dffa24a2)" style="fill: none; stroke: #ff7f0e; stroke-width: 1.5; stroke-linecap: square"/>
   </g>
   <g id="line2d_17">
    <path d="M 929.466352 397.856732 
" clip-path="url(#p34dffa24a2)" style="fill: none; stroke: #000000; stroke-width: 1.5; stroke-linecap: square"/>
    <defs>
     <path id="m296a253203" d="M 0 1 
C 0.265203 1 0.51958 0.894634 0.707107 0.707107 
C 0.894634 0.51958 1 0.265203 1 0 
C 1 -0.265203 0.894634 -0.51958 0.707107 -0.707107 
C 0.51958 -0.894634 0.265203 -1 0 -1 
C -0.265203 -1 -0.51958 -0.894634 -0.707107 -0.707107 
C -0.894634 -0.51958 -1 -0.265203 -1 0 
C -1 0.265203 -0.894634 0.51958 -0.707107 0.707107 
C -0.51958 0.894634 -0.265203 1 0 1 
z
" style="stroke: #000000"/>
    </defs>
    <g clip-path="url(#p34dffa24a2)">
     <use xlink:href="#m296a253203" x="173.045455" y="167.97311" style="stroke: #000000"/>
     <use xlink:href="#m296a253203" x="178.174819" y="397.856732" style="stroke: #000000"/>
     <use xlink:href="#m296a253203" x="183.14389" y="397.856732" style="stroke: #000000"/>
     <use xlink:href="#m296a253203" x="188.112961" y="167.97311" style="stroke: #000000"/>
     <use xlink:href="#m296a253203" x="193.082033" y="397.856732" style="stroke: #000000"/>
     <use xlink:href="#m296a253203" x="198.211397" y="397.856732" style="stroke: #000000"/>
     <use xlink:href="#m296a253203" x="203.180468" y="167.97311" style="stroke: #000000"/>
     <use xlink:href="#m296a253203" x="208.149539" y="397.856732" style="stroke: #000000"/>
     <use xlink:href="#m296a253203" x="213.118611" y="167.97311" style="stroke: #000000"/>
     <use xlink:href="#m296a253203" x="218.247975" y="397.856732" style="stroke: #000000"/>
     <use xlink:href="#m296a253203" x="223.217046" y="397.856732" style="stroke: #000000"/>
     <use xlink:href="#m296a253203" x="228.186118" y="167.97311" style="stroke: #000000"/>
     <use xlink:href="#m296a253203" x="233.155189" y="397.856732" style="stroke: #000000"/>
     <use xlink:href="#m296a253203" x="238.284553" y="397.856732" style="stroke: #000000"/>
     <use xlink:href="#m296a253203" x="243.253624" y="167.97311" style="stroke: #000000"/>
     <use xlink:href="#m296a253203" x="248.222696" y="397.856732" style="stroke: #000000"/>
     <use xlink:href="#m296a253203" x="253.191767" y="167.97311" style="stroke: #000000"/>
     <use xlink:href="#m296a253203" x="258.321131" y="397.856732" style="stroke: #000000"/>
     <use xlink:href="#m296a253203" x="263.290202" y="397.856732" style="stroke: #000000"/>
     <use xlink:href="#m296a253203" x="268.259274" y="167.97311" style="stroke: #000000"/>
     <use xlink:href="#m296a253203" x="273.228345" y="397.856732" style="stroke: #000000"/>
     <use xlink:href="#m296a253203" x="278.357709" y="397.856732" style="stroke: #000000"/>
     <use xlink:href="#m296a253203" x="283.326781" y="167.97311" style="stroke: #000000"/>
     <use xlink:href="#m296a253203" x="288.295852" y="397.856732" style="stroke: #000000"/>
     <use xlink:href="#m296a253203" x="293.264923" y="167.97311" style="stroke: #000000"/>
     <use xlink:href="#m296a253203" x="298.394287" y="397.856732" style="stroke: #000000"/>
     <use xlink:href="#m296a253203" x="303.363359" y="397.856732" style="stroke: #000000"/>
     <use xlink:href="#m296a253203" x="308.33243" y="167.97311" style="stroke: #000000"/>
     <use xlink:href="#m296a253203" x="313.301501" y="397.856732" style="stroke: #000000"/>
     <use xlink:href="#m296a253203" x="318.430865" y="397.856732" style="stroke: #000000"/>
     <use xlink:href="#m296a253203" x="323.399937" y="167.97311" style="stroke: #000000"/>
     <use xlink:href="#m296a253203" x="328.369008" y="397.856732" style="stroke: #000000"/>
     <use xlink:href="#m296a253203" x="333.33808" y="167.97311" style="stroke: #000000"/>
     <use xlink:href="#m296a253203" x="338.467444" y="397.856732" style="stroke: #000000"/>
     <use xlink:href="#m296a253203" x="343.436515" y="397.856732" style="stroke: #000000"/>
     <use xlink:href="#m296a253203" x="348.405586" y="167.97311" style="stroke: #000000"/>
     <use xlink:href="#m296a253203" x="353.374658" y="397.856732" style="stroke: #000000"/>
     <use xlink:href="#m296a253203" x="358.504022" y="397.856732" style="stroke: #000000"/>
     <use xlink:href="#m296a253203" x="363.473093" y="167.97311" style="stroke: #000000"/>
     <use xlink:href="#m296a253203" x="368.442164" y="397.856732" style="stroke: #000000"/>
     <use xlink:href="#m296a253203" x="373.411236" y="167.97311" style="stroke: #000000"/>
     <use xlink:href="#m296a253203" x="378.5406" y="397.856732" style="stroke: #000000"/>
     <use xlink:href="#m296a253203" x="383.509671" y="397.856732" style="stroke: #000000"/>
     <use xlink:href="#m296a253203" x="388.478743" y="167.97311" style="stroke: #000000"/>
     <use xlink:href="#m296a253203" x="393.447814" y="397.856732" style="stroke: #000000"/>
     <use xlink:href="#m296a253203" x="398.577178" y="397.856732" style="stroke: #000000"/>
     <use xlink:href="#m296a253203" x="403.546249" y="167.97311" style="stroke: #000000"/>
     <use xlink:href="#m296a253203" x="408.515321" y="397.856732" style="stroke: #000000"/>
     <use xlink:href="#m296a253203" x="413.484392" y="167.97311" style="stroke: #000000"/>
     <use xlink:href="#m296a253203" x="418.613756" y="397.856732" style="stroke: #000000"/>
     <use xlink:href="#m296a253203" x="423.582827" y="397.856732" style="stroke: #000000"/>
     <use xlink:href="#m296a253203" x="428.551899" y="167.97311" style="stroke: #000000"/>
     <use xlink:href="#m296a253203" x="433.52097" y="397.856732" style="stroke: #000000"/>
     <use xlink:href="#m296a253203" x="438.650334" y="397.856732" style="stroke: #000000"/>
     <use xlink:href="#m296a253203" x="443.619406" y="167.97311" style="stroke: #000000"/>
     <use xlink:href="#m296a253203" x="448.588477" y="397.856732" style="stroke: #000000"/>
     <use xlink:href="#m296a253203" x="453.557548" y="167.97311" style="stroke: #000000"/>
     <use xlink:href="#m296a253203" x="458.686912" y="397.856732" style="stroke: #000000"/>
     <use xlink:href="#m296a253203" x="463.655984" y="397.856732" style="stroke: #000000"/>
     <use xlink:href="#m296a253203" x="468.625055" y="167.97311" style="stroke: #000000"/>
     <use xlink:href="#m296a253203" x="473.594126" y="397.856732" style="stroke: #000000"/>
     <use xlink:href="#m296a253203" x="478.72349" y="397.856732" style="stroke: #000000"/>
     <use xlink:href="#m296a253203" x="483.692562" y="167.97311" style="stroke: #000000"/>
     <use xlink:href="#m296a253203" x="488.661633" y="397.856732" style="stroke: #000000"/>
     <use xlink:href="#m296a253203" x="493.630705" y="167.97311" style="stroke: #000000"/>
     <use xlink:href="#m296a253203" x="498.760069" y="397.856732" style="stroke: #000000"/>
     <use xlink:href="#m296a253203" x="503.72914" y="397.856732" style="stroke: #000000"/>
     <use xlink:href="#m296a253203" x="508.698211" y="167.97311" style="stroke: #000000"/>
     <use xlink:href="#m296a253203" x="513.667283" y="397.856732" style="stroke: #000000"/>
     <use xlink:href="#m296a253203" x="518.796647" y="397.856732" style="stroke: #000000"/>
     <use xlink:href="#m296a253203" x="523.765718" y="167.97311" style="stroke: #000000"/>
     <use xlink:href="#m296a253203" x="528.734789" y="397.856732" style="stroke: #000000"/>
     <use xlink:href="#m296a253203" x="533.703861" y="167.97311" style="stroke: #000000"/>
     <use xlink:href="#m296a253203" x="538.833225" y="397.856732" style="stroke: #000000"/>
     <use xlink:href="#m296a253203" x="543.802296" y="397.856732" style="stroke: #000000"/>
     <use xlink:href="#m296a253203" x="548.771368" y="167.97311" style="stroke: #000000"/>
     <use xlink:href="#m296a253203" x="553.740439" y="397.856732" style="stroke: #000000"/>
     <use xlink:href="#m296a253203" x="558.869803" y="397.856732" style="stroke: #000000"/>
     <use xlink:href="#m296a253203" x="563.838874" y="167.97311" style="stroke: #000000"/>
     <use xlink:href="#m296a253203" x="568.807946" y="397.856732" style="stroke: #000000"/>
     <use xlink:href="#m296a253203" x="573.777017" y="167.97311" style="stroke: #000000"/>
     <use xlink:href="#m296a253203" x="578.906381" y="397.856732" style="stroke: #000000"/>
     <use xlink:href="#m296a253203" x="583.875452" y="397.856732" style="stroke: #000000"/>
     <use xlink:href="#m296a253203" x="588.844524" y="167.97311" style="stroke: #000000"/>
     <use xlink:href="#m296a253203" x="593.813595" y="397.856732" style="stroke: #000000"/>
     <use xlink:href="#m296a253203" x="598.942959" y="397.856732" style="stroke: #000000"/>
     <use xlink:href="#m296a253203" x="603.912031" y="167.97311" style="stroke: #000000"/>
     <use xlink:href="#m296a253203" x="608.881102" y="397.856732" style="stroke: #000000"/>
     <use xlink:href="#m296a253203" x="613.850173" y="167.97311" style="stroke: #000000"/>
     <use xlink:href="#m296a253203" x="618.979537" y="397.856732" style="stroke: #000000"/>
     <use xlink:href="#m296a253203" x="623.948609" y="397.856732" style="stroke: #000000"/>
     <use xlink:href="#m296a253203" x="628.91768" y="167.97311" style="stroke: #000000"/>
     <use xlink:href="#m296a253203" x="633.886751" y="397.856732" style="stroke: #000000"/>
     <use xlink:href="#m296a253203" x="639.016115" y="397.856732" style="stroke: #000000"/>
     <use xlink:href="#m296a253203" x="643.985187" y="167.97311" style="stroke: #000000"/>
     <use xlink:href="#m296a253203" x="648.954258" y="397.856732" style="stroke: #000000"/>
     <use xlink:href="#m296a253203" x="653.92333" y="167.97311" style="stroke: #000000"/>
     <use xlink:href="#m296a253203" x="659.052694" y="397.856732" style="stroke: #000000"/>
     <use xlink:href="#m296a253203" x="664.021765" y="397.856732" style="stroke: #000000"/>
     <use xlink:href="#m296a253203" x="668.990836" y="167.97311" style="stroke: #000000"/>
     <use xlink:href="#m296a253203" x="673.959908" y="397.856732" style="stroke: #000000"/>
     <use xlink:href="#m296a253203" x="679.089272" y="397.856732" style="stroke: #000000"/>
     <use xlink:href="#m296a253203" x="684.058343" y="167.97311" style="stroke: #000000"/>
     <use xlink:href="#m296a253203" x="689.027414" y="397.856732" style="stroke: #000000"/>
     <use xlink:href="#m296a253203" x="693.996486" y="167.97311" style="stroke: #000000"/>
     <use xlink:href="#m296a253203" x="699.12585" y="397.856732" style="stroke: #000000"/>
     <use xlink:href="#m296a253203" x="704.094921" y="397.856732" style="stroke: #000000"/>
     <use xlink:href="#m296a253203" x="709.063993" y="167.97311" style="stroke: #000000"/>
     <use xlink:href="#m296a253203" x="714.033064" y="397.856732" style="stroke: #000000"/>
     <use xlink:href="#m296a253203" x="719.162428" y="397.856732" style="stroke: #000000"/>
     <use xlink:href="#m296a253203" x="724.131499" y="167.97311" style="stroke: #000000"/>
     <use xlink:href="#m296a253203" x="729.100571" y="397.856732" style="stroke: #000000"/>
     <use xlink:href="#m296a253203" x="734.069642" y="167.97311" style="stroke: #000000"/>
     <use xlink:href="#m296a253203" x="739.199006" y="397.856732" style="stroke: #000000"/>
     <use xlink:href="#m296a253203" x="744.168077" y="397.856732" style="stroke: #000000"/>
     <use xlink:href="#m296a253203" x="749.137149" y="167.97311" style="stroke: #000000"/>
     <use xlink:href="#m296a253203" x="754.10622" y="397.856732" style="stroke: #000000"/>
     <use xlink:href="#m296a253203" x="759.235584" y="397.856732" style="stroke: #000000"/>
     <use xlink:href="#m296a253203" x="764.204656" y="167.97311" style="stroke: #000000"/>
     <use xlink:href="#m296a253203" x="769.173727" y="397.856732" style="stroke: #000000"/>
     <use xlink:href="#m296a253203" x="774.142798" y="167.97311" style="stroke: #000000"/>
     <use xlink:href="#m296a253203" x="779.272162" y="397.856732" style="stroke: #000000"/>
     <use xlink:href="#m296a253203" x="784.241234" y="397.856732" style="stroke: #000000"/>
     <use xlink:href="#m296a253203" x="789.210305" y="167.97311" style="stroke: #000000"/>
     <use xlink:href="#m296a253203" x="794.179376" y="397.856732" style="stroke: #000000"/>
     <use xlink:href="#m296a253203" x="799.30874" y="397.856732" style="stroke: #000000"/>
     <use xlink:href="#m296a253203" x="804.277812" y="167.97311" style="stroke: #000000"/>
     <use xlink:href="#m296a253203" x="809.246883" y="397.856732" style="stroke: #000000"/>
     <use xlink:href="#m296a253203" x="814.215955" y="167.97311" style="stroke: #000000"/>
     <use xlink:href="#m296a253203" x="819.345319" y="397.856732" style="stroke: #000000"/>
     <use xlink:href="#m296a253203" x="824.31439" y="397.856732" style="stroke: #000000"/>
     <use xlink:href="#m296a253203" x="829.283461" y="167.97311" style="stroke: #000000"/>
     <use xlink:href="#m296a253203" x="834.252533" y="397.856732" style="stroke: #000000"/>
     <use xlink:href="#m296a253203" x="839.381897" y="397.856732" style="stroke: #000000"/>
     <use xlink:href="#m296a253203" x="844.350968" y="167.97311" style="stroke: #000000"/>
     <use xlink:href="#m296a253203" x="849.320039" y="397.856732" style="stroke: #000000"/>
     <use xlink:href="#m296a253203" x="854.289111" y="167.97311" style="stroke: #000000"/>
     <use xlink:href="#m296a253203" x="859.418475" y="397.856732" style="stroke: #000000"/>
     <use xlink:href="#m296a253203" x="864.387546" y="397.856732" style="stroke: #000000"/>
     <use xlink:href="#m296a253203" x="869.356618" y="167.97311" style="stroke: #000000"/>
     <use xlink:href="#m296a253203" x="874.325689" y="397.856732" style="stroke: #000000"/>
     <use xlink:href="#m296a253203" x="879.455053" y="397.856732" style="stroke: #000000"/>
     <use xlink:href="#m296a253203" x="884.424124" y="167.97311" style="stroke: #000000"/>
     <use xlink:href="#m296a253203" x="889.393196" y="397.856732" style="stroke: #000000"/>
     <use xlink:href="#m296a253203" x="894.362267" y="167.97311" style="stroke: #000000"/>
     <use xlink:href="#m296a253203" x="899.491631" y="397.856732" style="stroke: #000000"/>
     <use xlink:href="#m296a253203" x="904.460702" y="397.856732" style="stroke: #000000"/>
     <use xlink:href="#m296a253203" x="909.429774" y="167.97311" style="stroke: #000000"/>
     <use xlink:href="#m296a253203" x="914.398845" y="397.856732" style="stroke: #000000"/>
     <use xlink:href="#m296a253203" x="919.528209" y="397.856732" style="stroke: #000000"/>
     <use xlink:href="#m296a253203" x="924.497281" y="167.97311" style="stroke: #000000"/>
     <use xlink:href="#m296a253203" x="929.466352" y="397.856732" style="stroke: #000000"/>
    </g>
   </g>
   <g id="patch_3">
    <path d="M 135 448.56 
L 135 60.48 
" style="fill: none; stroke: #000000; stroke-width: 0.8; stroke-linejoin: miter; stroke-linecap: square"/>
   </g>
   <g id="patch_4">
    <path d="M 972 448.56 
L 972 60.48 
" style="fill: none; stroke: #000000; stroke-width: 0.8; stroke-linejoin: miter; stroke-linecap: square"/>
   </g>
   <g id="patch_5">
    <path d="M 135 448.56 
L 972 448.56 
" style="fill: none; stroke: #000000; stroke-width: 0.8; stroke-linejoin: miter; stroke-linecap: square"/>
   </g>
   <g id="patch_6">
    <path d="M 135 60.48 
L 972 60.48 
" style="fill: none; stroke: #000000; stroke-width: 0.8; stroke-linejoin: miter; stroke-linecap: square"/>
   </g>
   <g id="legend_1">
    <g id="patch_7">
     <path d="M 142 113.070625 
L 211.084375 113.070625 
Q 213.084375 113.070625 213.084375 111.070625 
L 213.084375 67.48 
Q 213.084375 65.48 211.084375 65.48 
L 142 65.48 
Q 140 65.48 140 67.48 
L 140 111.070625 
Q 140 113.070625 142 113.070625 
z
" style="fill: #ffffff; opacity: 0.8; stroke: #cccccc; stroke-linejoin: miter"/>
    </g>
    <g id="line2d_18">
     <path d="M 144 73.578438 
L 154 73.578438 
L 164 73.578438 
" style="fill: none; stroke: #1f77b4; stroke-width: 1.5; stroke-linecap: square"/>
    </g>
    <g id="text_16">
     <!-- nw_0 -->
     <g transform="translate(172 77.078438) scale(0.1 -0.1)">
      <defs>
       <path id="DejaVuSans-6e" d="M 3513 2113 
L 3513 0 
L 2938 0 
L 2938 2094 
Q 2938 2591 2744 2837 
Q 2550 3084 2163 3084 
Q 1697 3084 1428 2787 
Q 1159 2491 1159 1978 
L 1159 0 
L 581 0 
L 581 3500 
L 1159 3500 
L 1159 2956 
Q 1366 3272 1645 3428 
Q 1925 3584 2291 3584 
Q 2894 3584 3203 3211 
Q 3513 2838 3513 2113 
z
" transform="scale(0.015625)"/>
       <path id="DejaVuSans-77" d="M 269 3500 
L 844 3500 
L 1563 769 
L 2278 3500 
L 2956 3500 
L 3675 769 
L 4391 3500 
L 4966 3500 
L 4050 0 
L 3372 0 
L 2619 2869 
L 1863 0 
L 1184 0 
L 269 3500 
z
" transform="scale(0.015625)"/>
       <path id="DejaVuSans-5f" d="M 3263 -1063 
L 3263 -1509 
L -63 -1509 
L -63 -1063 
L 3263 -1063 
z
" transform="scale(0.015625)"/>
      </defs>
      <use xlink:href="#DejaVuSans-6e"/>
      <use xlink:href="#DejaVuSans-77" x="63.378906"/>
      <use xlink:href="#DejaVuSans-5f" x="145.166016"/>
      <use xlink:href="#DejaVuSans-30" x="195.166016"/>
     </g>
    </g>
    <g id="line2d_19">
     <path d="M 144 88.534688 
L 154 88.534688 
L 164 88.534688 
" style="fill: none; stroke: #ff7f0e; stroke-width: 1.5; stroke-linecap: square"/>
    </g>
    <g id="text_17">
     <!-- input_0 -->
     <g transform="translate(172 92.034688) scale(0.1 -0.1)">
      <defs>
       <path id="DejaVuSans-69" d="M 603 3500 
L 1178 3500 
L 1178 0 
L 603 0 
L 603 3500 
z
M 603 4863 
L 1178 4863 
L 1178 4134 
L 603 4134 
L 603 4863 
z
" transform="scale(0.015625)"/>
       <path id="DejaVuSans-70" d="M 1159 525 
L 1159 -1331 
L 581 -1331 
L 581 3500 
L 1159 3500 
L 1159 2969 
Q 1341 3281 1617 3432 
Q 1894 3584 2278 3584 
Q 2916 3584 3314 3078 
Q 3713 2572 3713 1747 
Q 3713 922 3314 415 
Q 2916 -91 2278 -91 
Q 1894 -91 1617 61 
Q 1341 213 1159 525 
z
M 3116 1747 
Q 3116 2381 2855 2742 
Q 2594 3103 2138 3103 
Q 1681 3103 1420 2742 
Q 1159 2381 1159 1747 
Q 1159 1113 1420 752 
Q 1681 391 2138 391 
Q 2594 391 2855 752 
Q 3116 1113 3116 1747 
z
" transform="scale(0.015625)"/>
       <path id="DejaVuSans-75" d="M 544 1381 
L 544 3500 
L 1119 3500 
L 1119 1403 
Q 1119 906 1312 657 
Q 1506 409 1894 409 
Q 2359 409 2629 706 
Q 2900 1003 2900 1516 
L 2900 3500 
L 3475 3500 
L 3475 0 
L 2900 0 
L 2900 538 
Q 2691 219 2414 64 
Q 2138 -91 1772 -91 
Q 1169 -91 856 284 
Q 544 659 544 1381 
z
M 1991 3584 
L 1991 3584 
z
" transform="scale(0.015625)"/>
      </defs>
      <use xlink:href="#DejaVuSans-69"/>
      <use xlink:href="#DejaVuSans-6e" x="27.783203"/>
      <use xlink:href="#DejaVuSans-70" x="91.162109"/>
      <use xlink:href="#DejaVuSans-75" x="154.638672"/>
      <use xlink:href="#DejaVuSans-74" x="218.017578"/>
      <use xlink:href="#DejaVuSans-5f" x="257.226562"/>
      <use xlink:href="#DejaVuSans-30" x="307.226562"/>
     </g>
    </g>
    <g id="line2d_20">
     <path d="M 144 103.490938 
L 154 103.490938 
L 164 103.490938 
" style="fill: none; stroke: #000000; stroke-width: 1.5; stroke-linecap: square"/>
     <g>
      <use xlink:href="#m296a253203" x="154" y="103.490938" style="stroke: #000000"/>
     </g>
    </g>
    <g id="text_18">
     <!-- target -->
     <g transform="translate(172 106.990938) scale(0.1 -0.1)">
      <defs>
       <path id="DejaVuSans-61" d="M 2194 1759 
Q 1497 1759 1228 1600 
Q 959 1441 959 1056 
Q 959 750 1161 570 
Q 1363 391 1709 391 
Q 2188 391 2477 730 
Q 2766 1069 2766 1631 
L 2766 1759 
L 2194 1759 
z
M 3341 1997 
L 3341 0 
L 2766 0 
L 2766 531 
Q 2569 213 2275 61 
Q 1981 -91 1556 -91 
Q 1019 -91 701 211 
Q 384 513 384 1019 
Q 384 1609 779 1909 
Q 1175 2209 1959 2209 
L 2766 2209 
L 2766 2266 
Q 2766 2663 2505 2880 
Q 2244 3097 1772 3097 
Q 1472 3097 1187 3025 
Q 903 2953 641 2809 
L 641 3341 
Q 956 3463 1253 3523 
Q 1550 3584 1831 3584 
Q 2591 3584 2966 3190 
Q 3341 2797 3341 1997 
z
" transform="scale(0.015625)"/>
       <path id="DejaVuSans-72" d="M 2631 2963 
Q 2534 3019 2420 3045 
Q 2306 3072 2169 3072 
Q 1681 3072 1420 2755 
Q 1159 2438 1159 1844 
L 1159 0 
L 581 0 
L 581 3500 
L 1159 3500 
L 1159 2956 
Q 1341 3275 1631 3429 
Q 1922 3584 2338 3584 
Q 2397 3584 2469 3576 
Q 2541 3569 2628 3553 
L 2631 2963 
z
" transform="scale(0.015625)"/>
       <path id="DejaVuSans-67" d="M 2906 1791 
Q 2906 2416 2648 2759 
Q 2391 3103 1925 3103 
Q 1463 3103 1205 2759 
Q 947 2416 947 1791 
Q 947 1169 1205 825 
Q 1463 481 1925 481 
Q 2391 481 2648 825 
Q 2906 1169 2906 1791 
z
M 3481 434 
Q 3481 -459 3084 -895 
Q 2688 -1331 1869 -1331 
Q 1566 -1331 1297 -1286 
Q 1028 -1241 775 -1147 
L 775 -588 
Q 1028 -725 1275 -790 
Q 1522 -856 1778 -856 
Q 2344 -856 2625 -561 
Q 2906 -266 2906 331 
L 2906 616 
Q 2728 306 2450 153 
Q 2172 0 1784 0 
Q 1141 0 747 490 
Q 353 981 353 1791 
Q 353 2603 747 3093 
Q 1141 3584 1784 3584 
Q 2172 3584 2450 3431 
Q 2728 3278 2906 2969 
L 2906 3500 
L 3481 3500 
L 3481 434 
z
" transform="scale(0.015625)"/>
       <path id="DejaVuSans-65" d="M 3597 1894 
L 3597 1613 
L 953 1613 
Q 991 1019 1311 708 
Q 1631 397 2203 397 
Q 2534 397 2845 478 
Q 3156 559 3463 722 
L 3463 178 
Q 3153 47 2828 -22 
Q 2503 -91 2169 -91 
Q 1331 -91 842 396 
Q 353 884 353 1716 
Q 353 2575 817 3079 
Q 1281 3584 2069 3584 
Q 2775 3584 3186 3129 
Q 3597 2675 3597 1894 
z
M 3022 2063 
Q 3016 2534 2758 2815 
Q 2500 3097 2075 3097 
Q 1594 3097 1305 2825 
Q 1016 2553 972 2059 
L 3022 2063 
z
" transform="scale(0.015625)"/>
      </defs>
      <use xlink:href="#DejaVuSans-74"/>
      <use xlink:href="#DejaVuSans-61" x="39.208984"/>
      <use xlink:href="#DejaVuSans-72" x="100.488281"/>
      <use xlink:href="#DejaVuSans-67" x="139.851562"/>
      <use xlink:href="#DejaVuSans-65" x="203.328125"/>
      <use xlink:href="#DejaVuSans-74" x="264.851562"/>
     </g>
    </g>
   </g>
  </g>
 </g>
 <defs>
  <clipPath id="p34dffa24a2">
   <rect x="135" y="60.48" width="837" height="388.08"/>
  </clipPath>
 </defs>
</svg>
