<?xml version="1.0" encoding="utf-8" standalone="no"?>
<!DOCTYPE svg PUBLIC "-//W3C//DTD SVG 1.1//EN"
  "http://www.w3.org/Graphics/SVG/1.1/DTD/svg11.dtd">
<svg xmlns:xlink="http://www.w3.org/1999/xlink" width="1080pt" height="504pt" viewBox="0 0 1080 504" xmlns="http://www.w3.org/2000/svg" version="1.1">
 <metadata>
  <rdf:RDF xmlns:dc="http://purl.org/dc/elements/1.1/" xmlns:cc="http://creativecommons.org/ns#" xmlns:rdf="http://www.w3.org/1999/02/22-rdf-syntax-ns#">
   <cc:Work>
    <dc:type rdf:resource="http://purl.org/dc/dcmitype/StillImage"/>
    <dc:date>2024-05-09T11:39:04.540655</dc:date>
    <dc:format>image/svg+xml</dc:format>
    <dc:creator>
     <cc:Agent>
      <dc:title>Matplotlib v3.7.1, https://matplotlib.org/</dc:title>
     </cc:Agent>
    </dc:creator>
   </cc:Work>
  </rdf:RDF>
 </metadata>
 <defs>
  <style type="text/css">*{stroke-linejoin: round; stroke-linecap: butt}</style>
 </defs>
 <g id="figure_1">
  <g id="patch_1">
   <path d="M 0 504 
L 1080 504 
L 1080 0 
L 0 0 
z
" style="fill: #ffffff"/>
  </g>
  <g id="axes_1">
   <g id="patch_2">
    <path d="M 135 448.56 
L 972 448.56 
L 972 60.48 
L 135 60.48 
z
" style="fill: #ffffff"/>
   </g>
   <g id="matplotlib.axis_1">
    <g id="xtick_1">
     <g id="line2d_1">
      <defs>
       <path id="m9b201ae5af" d="M 0 0 
L 0 3.5 
" style="stroke: #000000; stroke-width: 0.8"/>
      </defs>
      <g>
       <use xlink:href="#m9b201ae5af" x="173.045455" y="448.56" style="stroke: #000000; stroke-width: 0.8"/>
      </g>
     </g>
     <g id="text_1">
      <!-- 0 -->
      <g transform="translate(169.864205 463.158437) scale(0.1 -0.1)">
       <defs>
        <path id="DejaVuSans-30" d="M 2034 4250 
Q 1547 4250 1301 3770 
Q 1056 3291 1056 2328 
Q 1056 1369 1301 889 
Q 1547 409 2034 409 
Q 2525 409 2770 889 
Q 3016 1369 3016 2328 
Q 3016 3291 2770 3770 
Q 2525 4250 2034 4250 
z
M 2034 4750 
Q 2819 4750 3233 4129 
Q 3647 3509 3647 2328 
Q 3647 1150 3233 529 
Q 2819 -91 2034 -91 
Q 1250 -91 836 529 
Q 422 1150 422 2328 
Q 422 3509 836 4129 
Q 1250 4750 2034 4750 
z
" transform="scale(0.015625)"/>
       </defs>
       <use xlink:href="#DejaVuSans-30"/>
      </g>
     </g>
    </g>
    <g id="xtick_2">
     <g id="line2d_2">
      <g>
       <use xlink:href="#m9b201ae5af" x="333.33808" y="448.56" style="stroke: #000000; stroke-width: 0.8"/>
      </g>
     </g>
     <g id="text_2">
      <!-- 1000 -->
      <g transform="translate(320.61308 463.158437) scale(0.1 -0.1)">
       <defs>
        <path id="DejaVuSans-31" d="M 794 531 
L 1825 531 
L 1825 4091 
L 703 3866 
L 703 4441 
L 1819 4666 
L 2450 4666 
L 2450 531 
L 3481 531 
L 3481 0 
L 794 0 
L 794 531 
z
" transform="scale(0.015625)"/>
       </defs>
       <use xlink:href="#DejaVuSans-31"/>
       <use xlink:href="#DejaVuSans-30" x="63.623047"/>
       <use xlink:href="#DejaVuSans-30" x="127.246094"/>
       <use xlink:href="#DejaVuSans-30" x="190.869141"/>
      </g>
     </g>
    </g>
    <g id="xtick_3">
     <g id="line2d_3">
      <g>
       <use xlink:href="#m9b201ae5af" x="493.630705" y="448.56" style="stroke: #000000; stroke-width: 0.8"/>
      </g>
     </g>
     <g id="text_3">
      <!-- 2000 -->
      <g transform="translate(480.905705 463.158437) scale(0.1 -0.1)">
       <defs>
        <path id="DejaVuSans-32" d="M 1228 531 
L 3431 531 
L 3431 0 
L 469 0 
L 469 531 
Q 828 903 1448 1529 
Q 2069 2156 2228 2338 
Q 2531 2678 2651 2914 
Q 2772 3150 2772 3378 
Q 2772 3750 2511 3984 
Q 2250 4219 1831 4219 
Q 1534 4219 1204 4116 
Q 875 4013 500 3803 
L 500 4441 
Q 881 4594 1212 4672 
Q 1544 4750 1819 4750 
Q 2544 4750 2975 4387 
Q 3406 4025 3406 3419 
Q 3406 3131 3298 2873 
Q 3191 2616 2906 2266 
Q 2828 2175 2409 1742 
Q 1991 1309 1228 531 
z
" transform="scale(0.015625)"/>
       </defs>
       <use xlink:href="#DejaVuSans-32"/>
       <use xlink:href="#DejaVuSans-30" x="63.623047"/>
       <use xlink:href="#DejaVuSans-30" x="127.246094"/>
       <use xlink:href="#DejaVuSans-30" x="190.869141"/>
      </g>
     </g>
    </g>
    <g id="xtick_4">
     <g id="line2d_4">
      <g>
       <use xlink:href="#m9b201ae5af" x="653.92333" y="448.56" style="stroke: #000000; stroke-width: 0.8"/>
      </g>
     </g>
     <g id="text_4">
      <!-- 3000 -->
      <g transform="translate(641.19833 463.158437) scale(0.1 -0.1)">
       <defs>
        <path id="DejaVuSans-33" d="M 2597 2516 
Q 3050 2419 3304 2112 
Q 3559 1806 3559 1356 
Q 3559 666 3084 287 
Q 2609 -91 1734 -91 
Q 1441 -91 1130 -33 
Q 819 25 488 141 
L 488 750 
Q 750 597 1062 519 
Q 1375 441 1716 441 
Q 2309 441 2620 675 
Q 2931 909 2931 1356 
Q 2931 1769 2642 2001 
Q 2353 2234 1838 2234 
L 1294 2234 
L 1294 2753 
L 1863 2753 
Q 2328 2753 2575 2939 
Q 2822 3125 2822 3475 
Q 2822 3834 2567 4026 
Q 2313 4219 1838 4219 
Q 1578 4219 1281 4162 
Q 984 4106 628 3988 
L 628 4550 
Q 988 4650 1302 4700 
Q 1616 4750 1894 4750 
Q 2613 4750 3031 4423 
Q 3450 4097 3450 3541 
Q 3450 3153 3228 2886 
Q 3006 2619 2597 2516 
z
" transform="scale(0.015625)"/>
       </defs>
       <use xlink:href="#DejaVuSans-33"/>
       <use xlink:href="#DejaVuSans-30" x="63.623047"/>
       <use xlink:href="#DejaVuSans-30" x="127.246094"/>
       <use xlink:href="#DejaVuSans-30" x="190.869141"/>
      </g>
     </g>
    </g>
    <g id="xtick_5">
     <g id="line2d_5">
      <g>
       <use xlink:href="#m9b201ae5af" x="814.215955" y="448.56" style="stroke: #000000; stroke-width: 0.8"/>
      </g>
     </g>
     <g id="text_5">
      <!-- 4000 -->
      <g transform="translate(801.490955 463.158437) scale(0.1 -0.1)">
       <defs>
        <path id="DejaVuSans-34" d="M 2419 4116 
L 825 1625 
L 2419 1625 
L 2419 4116 
z
M 2253 4666 
L 3047 4666 
L 3047 1625 
L 3713 1625 
L 3713 1100 
L 3047 1100 
L 3047 0 
L 2419 0 
L 2419 1100 
L 313 1100 
L 313 1709 
L 2253 4666 
z
" transform="scale(0.015625)"/>
       </defs>
       <use xlink:href="#DejaVuSans-34"/>
       <use xlink:href="#DejaVuSans-30" x="63.623047"/>
       <use xlink:href="#DejaVuSans-30" x="127.246094"/>
       <use xlink:href="#DejaVuSans-30" x="190.869141"/>
      </g>
     </g>
    </g>
    <g id="text_6">
     <!-- t -->
     <g transform="translate(551.539844 476.836563) scale(0.1 -0.1)">
      <defs>
       <path id="DejaVuSans-74" d="M 1172 4494 
L 1172 3500 
L 2356 3500 
L 2356 3053 
L 1172 3053 
L 1172 1153 
Q 1172 725 1289 603 
Q 1406 481 1766 481 
L 2356 481 
L 2356 0 
L 1766 0 
Q 1100 0 847 248 
Q 594 497 594 1153 
L 594 3053 
L 172 3053 
L 172 3500 
L 594 3500 
L 594 4494 
L 1172 4494 
z
" transform="scale(0.015625)"/>
      </defs>
      <use xlink:href="#DejaVuSans-74"/>
     </g>
    </g>
   </g>
   <g id="matplotlib.axis_2">
    <g id="ytick_1">
     <g id="line2d_6">
      <defs>
       <path id="me02308b473" d="M 0 0 
L -3.5 0 
" style="stroke: #000000; stroke-width: 0.8"/>
      </defs>
      <g>
       <use xlink:href="#me02308b473" x="135" y="432.165851" style="stroke: #000000; stroke-width: 0.8"/>
      </g>
     </g>
     <g id="text_7">
      <!-- −0.2 -->
      <g transform="translate(103.717187 435.965069) scale(0.1 -0.1)">
       <defs>
        <path id="DejaVuSans-2212" d="M 678 2272 
L 4684 2272 
L 4684 1741 
L 678 1741 
L 678 2272 
z
" transform="scale(0.015625)"/>
        <path id="DejaVuSans-2e" d="M 684 794 
L 1344 794 
L 1344 0 
L 684 0 
L 684 794 
z
" transform="scale(0.015625)"/>
       </defs>
       <use xlink:href="#DejaVuSans-2212"/>
       <use xlink:href="#DejaVuSans-30" x="83.789062"/>
       <use xlink:href="#DejaVuSans-2e" x="147.412109"/>
       <use xlink:href="#DejaVuSans-32" x="179.199219"/>
      </g>
     </g>
    </g>
    <g id="ytick_2">
     <g id="line2d_7">
      <g>
       <use xlink:href="#me02308b473" x="135" y="374.634679" style="stroke: #000000; stroke-width: 0.8"/>
      </g>
     </g>
     <g id="text_8">
      <!-- 0.0 -->
      <g transform="translate(112.096875 378.433898) scale(0.1 -0.1)">
       <use xlink:href="#DejaVuSans-30"/>
       <use xlink:href="#DejaVuSans-2e" x="63.623047"/>
       <use xlink:href="#DejaVuSans-30" x="95.410156"/>
      </g>
     </g>
    </g>
    <g id="ytick_3">
     <g id="line2d_8">
      <g>
       <use xlink:href="#me02308b473" x="135" y="317.103507" style="stroke: #000000; stroke-width: 0.8"/>
      </g>
     </g>
     <g id="text_9">
      <!-- 0.2 -->
      <g transform="translate(112.096875 320.902726) scale(0.1 -0.1)">
       <use xlink:href="#DejaVuSans-30"/>
       <use xlink:href="#DejaVuSans-2e" x="63.623047"/>
       <use xlink:href="#DejaVuSans-32" x="95.410156"/>
      </g>
     </g>
    </g>
    <g id="ytick_4">
     <g id="line2d_9">
      <g>
       <use xlink:href="#me02308b473" x="135" y="259.572336" style="stroke: #000000; stroke-width: 0.8"/>
      </g>
     </g>
     <g id="text_10">
      <!-- 0.4 -->
      <g transform="translate(112.096875 263.371555) scale(0.1 -0.1)">
       <use xlink:href="#DejaVuSans-30"/>
       <use xlink:href="#DejaVuSans-2e" x="63.623047"/>
       <use xlink:href="#DejaVuSans-34" x="95.410156"/>
      </g>
     </g>
    </g>
    <g id="ytick_5">
     <g id="line2d_10">
      <g>
       <use xlink:href="#me02308b473" x="135" y="202.041164" style="stroke: #000000; stroke-width: 0.8"/>
      </g>
     </g>
     <g id="text_11">
      <!-- 0.6 -->
      <g transform="translate(112.096875 205.840383) scale(0.1 -0.1)">
       <defs>
        <path id="DejaVuSans-36" d="M 2113 2584 
Q 1688 2584 1439 2293 
Q 1191 2003 1191 1497 
Q 1191 994 1439 701 
Q 1688 409 2113 409 
Q 2538 409 2786 701 
Q 3034 994 3034 1497 
Q 3034 2003 2786 2293 
Q 2538 2584 2113 2584 
z
M 3366 4563 
L 3366 3988 
Q 3128 4100 2886 4159 
Q 2644 4219 2406 4219 
Q 1781 4219 1451 3797 
Q 1122 3375 1075 2522 
Q 1259 2794 1537 2939 
Q 1816 3084 2150 3084 
Q 2853 3084 3261 2657 
Q 3669 2231 3669 1497 
Q 3669 778 3244 343 
Q 2819 -91 2113 -91 
Q 1303 -91 875 529 
Q 447 1150 447 2328 
Q 447 3434 972 4092 
Q 1497 4750 2381 4750 
Q 2619 4750 2861 4703 
Q 3103 4656 3366 4563 
z
" transform="scale(0.015625)"/>
       </defs>
       <use xlink:href="#DejaVuSans-30"/>
       <use xlink:href="#DejaVuSans-2e" x="63.623047"/>
       <use xlink:href="#DejaVuSans-36" x="95.410156"/>
      </g>
     </g>
    </g>
    <g id="ytick_6">
     <g id="line2d_11">
      <g>
       <use xlink:href="#me02308b473" x="135" y="144.509993" style="stroke: #000000; stroke-width: 0.8"/>
      </g>
     </g>
     <g id="text_12">
      <!-- 0.8 -->
      <g transform="translate(112.096875 148.309211) scale(0.1 -0.1)">
       <defs>
        <path id="DejaVuSans-38" d="M 2034 2216 
Q 1584 2216 1326 1975 
Q 1069 1734 1069 1313 
Q 1069 891 1326 650 
Q 1584 409 2034 409 
Q 2484 409 2743 651 
Q 3003 894 3003 1313 
Q 3003 1734 2745 1975 
Q 2488 2216 2034 2216 
z
M 1403 2484 
Q 997 2584 770 2862 
Q 544 3141 544 3541 
Q 544 4100 942 4425 
Q 1341 4750 2034 4750 
Q 2731 4750 3128 4425 
Q 3525 4100 3525 3541 
Q 3525 3141 3298 2862 
Q 3072 2584 2669 2484 
Q 3125 2378 3379 2068 
Q 3634 1759 3634 1313 
Q 3634 634 3220 271 
Q 2806 -91 2034 -91 
Q 1263 -91 848 271 
Q 434 634 434 1313 
Q 434 1759 690 2068 
Q 947 2378 1403 2484 
z
M 1172 3481 
Q 1172 3119 1398 2916 
Q 1625 2713 2034 2713 
Q 2441 2713 2670 2916 
Q 2900 3119 2900 3481 
Q 2900 3844 2670 4047 
Q 2441 4250 2034 4250 
Q 1625 4250 1398 4047 
Q 1172 3844 1172 3481 
z
" transform="scale(0.015625)"/>
       </defs>
       <use xlink:href="#DejaVuSans-30"/>
       <use xlink:href="#DejaVuSans-2e" x="63.623047"/>
       <use xlink:href="#DejaVuSans-38" x="95.410156"/>
      </g>
     </g>
    </g>
    <g id="ytick_7">
     <g id="line2d_12">
      <g>
       <use xlink:href="#me02308b473" x="135" y="86.978821" style="stroke: #000000; stroke-width: 0.8"/>
      </g>
     </g>
     <g id="text_13">
      <!-- 1.0 -->
      <g transform="translate(112.096875 90.77804) scale(0.1 -0.1)">
       <use xlink:href="#DejaVuSans-31"/>
       <use xlink:href="#DejaVuSans-2e" x="63.623047"/>
       <use xlink:href="#DejaVuSans-30" x="95.410156"/>
      </g>
     </g>
    </g>
   </g>
   <g id="line2d_13">
    <path d="M 173.045455 209.498344 
L 173.36604 90.641358 
L 173.526332 78.304507 
L 173.686625 78.12 
L 174.00721 91.066684 
L 174.488088 111.773523 
L 174.808673 119.273702 
L 175.129259 121.736635 
L 175.289551 121.661471 
L 175.770429 119.989034 
L 175.930722 119.983849 
L 176.091014 120.696108 
L 176.4116 125.006958 
L 176.732185 133.862111 
L 177.213063 155.788248 
L 177.693941 186.056882 
L 178.014526 388.763324 
L 178.335111 430.210097 
L 178.495404 430.356295 
L 178.815989 418.49281 
L 179.617452 383.003042 
L 179.938037 375.62086 
L 180.09833 374.150143 
L 180.258623 374.185001 
L 180.418915 375.643628 
L 180.739501 382.180462 
L 181.380671 403.230149 
L 182.021842 422.622379 
L 182.342427 428.460382 
L 182.663012 430.92 
L 182.823305 430.825596 
L 182.983597 429.850873 
L 183.304183 425.337297 
L 183.78506 412.641235 
L 184.426231 386.498696 
L 185.387987 334.747245 
L 186.83062 256.542226 
L 187.471791 231.286945 
L 187.952669 218.242395 
L 188.433547 210.541727 
L 188.754132 208.28853 
L 188.914424 207.975783 
L 189.074717 208.174818 
L 189.395302 209.999503 
L 189.715888 213.52568 
L 190.196765 221.439304 
L 190.998229 239.451443 
L 194.043788 313.930035 
L 195.005544 330.873002 
L 195.9673 344.027483 
L 196.929056 353.939306 
L 197.730519 360.165578 
L 198.531982 364.894287 
L 199.333445 368.411863 
L 200.134908 370.964033 
L 200.936371 372.759824 
L 201.737834 373.97532 
L 202.539298 374.756496 
L 203.340761 375.221707 
L 204.302516 375.492901 
L 205.424565 375.561977 
L 207.187784 375.412134 
L 212.958318 374.782279 
L 213.278903 374.764001 
L 213.599489 127.299595 
L 213.920074 78.399257 
L 214.080367 78.206008 
L 214.400952 91.136641 
L 214.88183 111.823975 
L 215.202415 119.314163 
L 215.523 121.769144 
L 215.683293 121.690647 
L 216.164171 120.010242 
L 216.324463 120.002947 
L 216.484756 120.713315 
L 216.805341 125.020936 
L 217.125926 133.873456 
L 217.606804 155.796488 
L 218.087682 186.062769 
L 218.408267 388.767146 
L 218.728853 430.212569 
L 218.889145 430.358213 
L 219.209731 418.493755 
L 220.011194 383.002146 
L 220.331779 375.619443 
L 220.492072 374.148507 
L 220.652364 374.183172 
L 220.812657 375.641631 
L 221.133242 382.178195 
L 221.774413 403.22758 
L 222.415583 422.619771 
L 222.736168 428.457831 
L 223.056754 430.917546 
L 223.217046 430.823202 
L 223.377339 429.848546 
L 223.697924 425.335119 
L 224.178802 412.639304 
L 224.819972 386.497104 
L 225.781728 334.746118 
L 227.224362 256.54161 
L 227.865532 231.286485 
L 228.34641 218.242029 
L 228.827288 210.541439 
L 229.147873 208.288286 
L 229.308166 207.97556 
L 229.468459 208.174613 
L 229.789044 209.999332 
L 230.109629 213.525539 
L 230.590507 221.439202 
L 231.39197 239.451389 
L 234.43753 313.930059 
L 235.399286 330.87303 
L 236.361041 344.027512 
L 237.322797 353.939333 
L 238.12426 360.165601 
L 238.925723 364.894307 
L 239.727187 368.41188 
L 240.52865 370.964046 
L 241.330113 372.759835 
L 242.131576 373.975328 
L 242.933039 374.756502 
L 243.734502 375.221712 
L 244.696258 375.492904 
L 245.818306 375.561979 
L 247.581525 375.412134 
L 253.35206 374.782279 
L 253.99323 374.747404 
L 254.313815 127.285116 
L 254.634401 78.386858 
L 254.794693 78.194595 
L 255.115279 91.127043 
L 255.596156 111.81665 
L 255.916742 119.308052 
L 256.237327 121.764035 
L 256.39762 121.685969 
L 256.878497 120.006624 
L 257.03879 119.999619 
L 257.199083 120.710251 
L 257.519668 125.018331 
L 257.840253 133.871236 
L 258.321131 155.794736 
L 258.802009 186.061385 
L 259.122594 388.76601 
L 259.443179 430.211602 
L 259.603472 430.357317 
L 259.924057 418.492987 
L 260.72552 383.001642 
L 261.046106 375.619025 
L 261.206398 374.148129 
L 261.366691 374.182831 
L 261.526984 375.641323 
L 261.847569 382.177949 
L 262.488739 403.227433 
L 263.12991 422.619694 
L 263.450495 428.45778 
L 263.77108 430.917515 
L 263.931373 430.823179 
L 264.091666 429.84853 
L 264.412251 425.335114 
L 264.893129 412.63931 
L 265.534299 386.497118 
L 266.496055 334.746134 
L 267.938689 256.541623 
L 268.579859 231.286498 
L 269.060737 218.242041 
L 269.541615 210.541451 
L 269.8622 208.288297 
L 270.022493 207.975571 
L 270.182785 208.174624 
L 270.503371 209.999343 
L 270.823956 213.525549 
L 271.304834 221.439211 
L 272.106297 239.451397 
L 275.151857 313.930062 
L 276.113612 330.873032 
L 277.075368 344.027513 
L 278.037124 353.939333 
L 278.838587 360.165601 
L 279.64005 364.894307 
L 280.441513 368.41188 
L 281.242976 370.964046 
L 282.04444 372.759835 
L 282.845903 373.975328 
L 283.647366 374.756502 
L 284.448829 375.221712 
L 285.410585 375.492904 
L 286.532633 375.561979 
L 288.295852 375.412134 
L 293.585509 374.813049 
L 293.906094 127.342387 
L 294.226679 78.436034 
L 294.386972 78.239952 
L 294.707557 91.16536 
L 295.188435 111.846108 
L 295.50902 119.332743 
L 295.829605 121.784776 
L 295.989898 121.705005 
L 296.470776 120.021441 
L 296.631068 120.013278 
L 296.791361 120.722855 
L 297.111946 125.029093 
L 297.432532 133.880451 
L 297.913409 155.80206 
L 298.394287 186.067213 
L 298.714873 388.770868 
L 299.035458 430.215795 
L 299.19575 430.361229 
L 299.516336 418.496391 
L 300.317799 383.003983 
L 300.638384 375.621015 
L 300.798677 374.149958 
L 300.958969 374.184508 
L 301.119262 375.642858 
L 301.439847 382.179225 
L 302.081018 403.228283 
L 302.722188 422.62023 
L 303.042773 428.458197 
L 303.363359 430.917835 
L 303.523651 430.823458 
L 303.683944 429.848772 
L 304.004529 425.335294 
L 304.485407 412.639422 
L 305.126578 386.497172 
L 306.088333 334.746144 
L 307.530967 256.541606 
L 308.172137 231.286473 
L 308.653015 218.242013 
L 309.133893 210.541419 
L 309.454478 208.288265 
L 309.614771 207.975537 
L 309.775064 208.17459 
L 310.095649 209.999308 
L 310.416234 213.525515 
L 310.897112 221.439177 
L 311.698575 239.451366 
L 314.744135 313.930048 
L 315.705891 330.873022 
L 316.667647 344.027506 
L 317.629402 353.939329 
L 318.430865 360.165599 
L 319.232329 364.894306 
L 320.033792 368.411879 
L 320.835255 370.964046 
L 321.636718 372.759835 
L 322.438181 373.975329 
L 323.239644 374.756503 
L 324.041107 375.221713 
L 325.002863 375.492905 
L 326.124911 375.561979 
L 327.88813 375.412134 
L 333.658665 374.782279 
L 333.818957 374.772924 
L 334.139543 127.307379 
L 334.460128 78.405933 
L 334.620421 78.212161 
L 334.941006 91.141828 
L 335.421884 111.82795 
L 335.742469 119.317487 
L 336.063054 121.771931 
L 336.223347 121.693203 
L 336.704225 120.012225 
L 336.864517 120.004773 
L 337.02481 120.714999 
L 337.345395 125.02237 
L 337.66598 133.874682 
L 338.146858 155.79746 
L 338.627736 186.063539 
L 338.948321 388.767784 
L 339.268907 430.213117 
L 339.429199 430.358723 
L 339.749785 418.494196 
L 340.551248 383.002442 
L 340.871833 375.619693 
L 341.032126 374.148736 
L 341.192418 374.183381 
L 341.352711 375.64182 
L 341.673296 382.17835 
L 342.314467 403.227679 
L 342.955637 422.619829 
L 343.276222 428.457875 
L 343.596808 430.917578 
L 343.7571 430.823229 
L 343.917393 429.848568 
L 344.237978 425.335134 
L 344.718856 412.639311 
L 345.360026 386.497105 
L 346.321782 334.746115 
L 347.764416 256.541605 
L 348.405586 231.28648 
L 348.886464 218.242024 
L 349.367342 210.541434 
L 349.687927 208.288281 
L 349.84822 207.975555 
L 350.008513 208.174608 
L 350.329098 209.999327 
L 350.649683 213.525534 
L 351.130561 221.439197 
L 351.932024 239.451385 
L 354.977584 313.930058 
L 355.93934 330.873029 
L 356.901095 344.027511 
L 357.862851 353.939332 
L 358.664314 360.165601 
L 359.465777 364.894307 
L 360.267241 368.41188 
L 361.068704 370.964046 
L 361.870167 372.759835 
L 362.67163 373.975328 
L 363.473093 374.756502 
L 364.274556 375.221712 
L 365.236312 375.492904 
L 366.35836 375.561979 
L 368.121579 375.412134 
L 373.090651 374.835919 
L 373.411236 127.362344 
L 373.731821 78.453244 
L 373.892114 78.255876 
L 374.212699 91.178912 
L 374.693577 111.856648 
L 375.014162 119.341644 
L 375.334747 121.792308 
L 375.49504 121.711943 
L 375.975918 120.026895 
L 376.13621 120.018322 
L 376.296503 120.727525 
L 376.617088 125.033107 
L 376.937674 133.88391 
L 377.418551 155.804837 
L 377.899429 186.069448 
L 378.220015 388.772769 
L 378.5406 430.217466 
L 378.700892 430.362802 
L 379.021478 418.497786 
L 379.822941 383.004998 
L 380.143526 375.621902 
L 380.303819 374.150785 
L 380.464111 374.185279 
L 380.624404 375.643576 
L 380.944989 382.179843 
L 381.58616 403.228733 
L 382.22733 422.620551 
L 382.547915 428.458466 
L 382.868501 430.918058 
L 383.028793 430.823662 
L 383.189086 429.848958 
L 383.509671 425.335449 
L 383.990549 412.639539 
L 384.63172 386.497253 
L 385.593475 334.746189 
L 387.036109 256.541621 
L 387.677279 231.286479 
L 388.158157 218.242014 
L 388.639035 210.541416 
L 388.95962 208.28826 
L 389.119913 207.975532 
L 389.280206 208.174583 
L 389.600791 209.9993 
L 389.921376 213.525505 
L 390.402254 221.439167 
L 391.203717 239.451355 
L 394.249277 313.930041 
L 395.211033 330.873017 
L 396.172789 344.027503 
L 397.134544 353.939327 
L 397.936007 360.165597 
L 398.737471 364.894304 
L 399.538934 368.411879 
L 400.340397 370.964046 
L 401.14186 372.759835 
L 401.943323 373.975329 
L 402.744786 374.756503 
L 403.546249 375.221713 
L 404.508005 375.492905 
L 405.630053 375.56198 
L 407.393272 375.412134 
L 413.163807 374.782279 
L 413.644685 374.755498 
L 413.96527 127.292177 
L 414.285855 78.392901 
L 414.446148 78.200156 
L 414.766733 91.131715 
L 415.247611 111.820211 
L 415.568196 119.31102 
L 415.888781 121.766514 
L 416.049074 121.688238 
L 416.529952 120.008377 
L 416.690245 120.00123 
L 416.850537 120.711734 
L 417.171122 125.01959 
L 417.491708 133.872308 
L 417.972586 155.795581 
L 418.453463 186.062051 
L 418.774049 388.766556 
L 419.094634 430.212065 
L 419.254927 430.357746 
L 419.575512 418.493353 
L 420.376975 383.001879 
L 420.69756 375.619221 
L 420.857853 374.148306 
L 421.018145 374.18299 
L 421.178438 375.641466 
L 421.499023 382.178062 
L 422.140194 403.227498 
L 422.781364 422.619726 
L 423.10195 428.4578 
L 423.422535 430.917525 
L 423.582827 430.823186 
L 423.74312 429.848534 
L 424.063705 425.335113 
L 424.544583 412.639304 
L 425.185754 386.497109 
L 426.147509 334.746124 
L 427.590143 256.541616 
L 428.231314 231.286491 
L 428.712191 218.242035 
L 429.193069 210.541445 
L 429.513655 208.288292 
L 429.673947 207.975565 
L 429.83424 208.174618 
L 430.154825 209.999337 
L 430.47541 213.525544 
L 430.956288 221.439207 
L 431.757751 239.451393 
L 434.803311 313.930061 
L 435.765067 330.873031 
L 436.726823 344.027512 
L 437.688578 353.939333 
L 438.490042 360.165601 
L 439.291505 364.894307 
L 440.092968 368.41188 
L 440.894431 370.964046 
L 441.695894 372.759835 
L 442.497357 373.975328 
L 443.29882 374.756502 
L 444.100283 375.221712 
L 445.062039 375.492904 
L 446.184088 375.561979 
L 447.947306 375.412134 
L 453.557548 374.792078 
L 453.878134 127.32409 
L 454.198719 78.420286 
L 454.359011 78.225402 
L 454.679597 91.15302 
L 455.160475 111.836562 
L 455.48106 119.324709 
L 455.801645 121.778001 
L 455.961938 121.698775 
L 456.442816 120.016565 
L 456.603108 120.008776 
L 456.763401 120.718693 
L 457.083986 125.025526 
L 457.404571 133.877386 
L 457.885449 155.79961 
L 458.366327 186.065252 
L 458.686912 388.769214 
L 459.007498 430.214353 
L 459.16779 430.359877 
L 459.488375 418.495201 
L 460.289839 383.003137 
L 460.610424 375.620285 
L 460.770716 374.149281 
L 460.931009 374.183881 
L 461.091302 375.642279 
L 461.411887 382.178733 
L 462.053057 403.227936 
L 462.694228 422.619994 
L 463.014813 428.458004 
L 463.335398 430.917678 
L 463.495691 430.823317 
L 463.655984 429.848645 
L 463.976569 425.335192 
L 464.457447 412.639348 
L 465.098617 386.497125 
L 466.060373 334.74612 
L 467.503007 256.541601 
L 468.144177 231.286474 
L 468.625055 218.242016 
L 469.105933 210.541425 
L 469.426518 208.288272 
L 469.586811 207.975545 
L 469.747103 208.174598 
L 470.067689 209.999317 
L 470.388274 213.525524 
L 470.869152 221.439188 
L 471.670615 239.451376 
L 474.716175 313.930053 
L 475.677931 330.873026 
L 476.639686 344.027509 
L 477.601442 353.939331 
L 478.402905 360.1656 
L 479.204368 364.894306 
L 480.005831 368.41188 
L 480.807295 370.964046 
L 481.608758 372.759835 
L 482.410221 373.975329 
L 483.211684 374.756503 
L 484.013147 375.221712 
L 484.974903 375.492904 
L 486.096951 375.561979 
L 487.86017 375.412134 
L 493.630705 374.782279 
L 493.95129 127.315541 
L 494.271875 78.412939 
L 494.432168 78.218622 
L 494.752753 91.147285 
L 495.233631 111.832143 
L 495.554216 119.321 
L 495.874801 121.774881 
L 496.035094 121.69591 
L 496.515972 120.014331 
L 496.676264 120.006714 
L 496.836557 120.71679 
L 497.157142 125.023899 
L 497.477728 133.875991 
L 497.958605 155.7985 
L 498.439483 186.064366 
L 498.760069 388.768473 
L 499.080654 430.21371 
L 499.240946 430.359276 
L 499.561532 418.494677 
L 500.362995 383.002772 
L 500.68358 375.619972 
L 500.843873 374.148993 
L 501.004165 374.183616 
L 501.164458 375.642036 
L 501.485043 382.178529 
L 502.126214 403.227797 
L 502.767384 422.619903 
L 503.087969 428.457932 
L 503.408555 430.917621 
L 503.568847 430.823267 
L 503.72914 429.848601 
L 504.049725 425.335158 
L 504.530603 412.639325 
L 505.171774 386.497112 
L 506.133529 334.746115 
L 507.576163 256.541602 
L 508.217333 231.286476 
L 508.698211 218.24202 
L 509.179089 210.541429 
L 509.499674 208.288276 
L 509.659967 207.97555 
L 509.82026 208.174603 
L 510.140845 209.999322 
L 510.46143 213.525529 
L 510.942308 221.439192 
L 511.743771 239.451381 
L 514.789331 313.930056 
L 515.751087 330.873028 
L 516.712843 344.02751 
L 517.674598 353.939332 
L 518.476061 360.1656 
L 519.277525 364.894307 
L 520.078988 368.41188 
L 520.880451 370.964046 
L 521.681914 372.759835 
L 522.483377 373.975328 
L 523.28484 374.756502 
L 524.086303 375.221712 
L 525.048059 375.492904 
L 526.170107 375.561979 
L 527.933326 375.412134 
L 533.703861 374.782279 
L 533.864153 374.772924 
L 534.184739 127.307379 
L 534.505324 78.405933 
L 534.665617 78.212161 
L 534.986202 91.141828 
L 535.46708 111.82795 
L 535.787665 119.317487 
L 536.10825 121.771931 
L 536.268543 121.693203 
L 536.749421 120.012225 
L 536.909713 120.004773 
L 537.070006 120.714999 
L 537.390591 125.02237 
L 537.711176 133.874682 
L 538.192054 155.79746 
L 538.672932 186.063539 
L 538.993517 388.767784 
L 539.314103 430.213117 
L 539.474395 430.358723 
L 539.794981 418.494196 
L 540.596444 383.002442 
L 540.917029 375.619693 
L 541.077322 374.148736 
L 541.237614 374.183381 
L 541.397907 375.64182 
L 541.718492 382.17835 
L 542.359663 403.227679 
L 543.000833 422.619829 
L 543.321418 428.457875 
L 543.642004 430.917578 
L 543.802296 430.823229 
L 543.962589 429.848568 
L 544.283174 425.335134 
L 544.764052 412.639311 
L 545.405222 386.497105 
L 546.366978 334.746115 
L 547.809612 256.541605 
L 548.450782 231.28648 
L 548.93166 218.242024 
L 549.412538 210.541434 
L 549.733123 208.288281 
L 549.893416 207.975555 
L 550.053709 208.174608 
L 550.374294 209.999327 
L 550.694879 213.525534 
L 551.175757 221.439197 
L 551.97722 239.451385 
L 555.02278 313.930058 
L 555.984536 330.873029 
L 556.946291 344.027511 
L 557.908047 353.939332 
L 558.70951 360.165601 
L 559.510973 364.894307 
L 560.312437 368.41188 
L 561.1139 370.964046 
L 561.915363 372.759835 
L 562.716826 373.975328 
L 563.518289 374.756502 
L 564.319752 375.221712 
L 565.281508 375.492904 
L 566.403556 375.561979 
L 568.166775 375.412134 
L 573.93731 374.782279 
L 574.257895 374.764001 
L 574.57848 127.299594 
L 574.899065 78.399256 
L 575.059358 78.206008 
L 575.379943 91.136641 
L 575.860821 111.823975 
L 576.181406 119.314163 
L 576.501992 121.769144 
L 576.662284 121.690647 
L 577.143162 120.010242 
L 577.303455 120.002947 
L 577.463747 120.713315 
L 577.784333 125.020936 
L 578.104918 133.873456 
L 578.585796 155.796488 
L 579.066674 186.062769 
L 579.387259 388.767146 
L 579.707844 430.212569 
L 579.868137 430.358213 
L 580.188722 418.493755 
L 580.990185 383.002146 
L 581.31077 375.619443 
L 581.471063 374.148507 
L 581.631356 374.183172 
L 581.791648 375.641631 
L 582.112234 382.178195 
L 582.753404 403.22758 
L 583.394575 422.619771 
L 583.71516 428.457831 
L 584.035745 430.917546 
L 584.196038 430.823202 
L 584.35633 429.848546 
L 584.676916 425.335119 
L 585.157793 412.639304 
L 585.798964 386.497104 
L 586.76072 334.746118 
L 588.203353 256.54161 
L 588.844524 231.286485 
L 589.325402 218.242029 
L 589.80628 210.541439 
L 590.126865 208.288286 
L 590.287157 207.97556 
L 590.44745 208.174613 
L 590.768035 209.999332 
L 591.088621 213.525539 
L 591.569498 221.439202 
L 592.370962 239.451389 
L 595.416521 313.930059 
L 596.378277 330.87303 
L 597.340033 344.027512 
L 598.301789 353.939333 
L 599.103252 360.165601 
L 599.904715 364.894307 
L 600.706178 368.41188 
L 601.507641 370.964046 
L 602.309104 372.759835 
L 603.110567 373.975328 
L 603.912031 374.756502 
L 604.713494 375.221712 
L 605.675249 375.492904 
L 606.797298 375.561979 
L 608.560517 375.412134 
L 613.209003 374.860759 
L 613.529588 127.384021 
L 613.850173 78.471979 
L 614.010466 78.273237 
L 614.331051 91.193738 
L 614.811929 111.868243 
L 615.132514 119.35147 
L 615.4531 121.80065 
L 615.613392 121.719637 
L 616.09427 120.032972 
L 616.254563 120.023951 
L 616.414855 120.732744 
L 616.735441 125.037604 
L 617.056026 133.887797 
L 617.536904 155.807972 
L 618.017782 186.071982 
L 618.338367 388.774944 
L 618.658952 430.219392 
L 618.819245 430.364622 
L 619.13983 418.499412 
L 619.941293 383.006206 
L 620.261878 375.622967 
L 620.422171 374.151784 
L 620.582464 374.186214 
L 620.742756 375.644451 
L 621.063341 382.180605 
L 621.704512 403.229303 
L 622.345682 422.620968 
L 622.666268 428.458821 
L 622.986853 430.91836 
L 623.147146 430.82394 
L 623.307438 429.849214 
L 623.628023 425.335665 
L 624.108901 412.639707 
L 624.750072 386.497373 
L 625.711828 334.74626 
L 627.154461 256.541648 
L 627.795632 231.286494 
L 628.27651 218.242021 
L 628.757387 210.541417 
L 629.077973 208.288258 
L 629.238265 207.975528 
L 629.398558 208.174578 
L 629.719143 209.999293 
L 630.039728 213.525497 
L 630.520606 221.439156 
L 631.322069 239.451343 
L 634.367629 313.930032 
L 635.329385 330.873011 
L 636.291141 344.027498 
L 637.252897 353.939323 
L 638.05436 360.165595 
L 638.855823 364.894303 
L 639.657286 368.411878 
L 640.458749 370.964045 
L 641.260212 372.759835 
L 642.061675 373.975328 
L 642.863138 374.756503 
L 643.664602 375.221713 
L 644.626357 375.492905 
L 645.748406 375.56198 
L 647.511625 375.412134 
L 653.282159 374.782279 
L 653.92333 374.747404 
L 654.243915 127.285116 
L 654.5645 78.386858 
L 654.724793 78.194595 
L 655.045378 91.127043 
L 655.526256 111.81665 
L 655.846841 119.308052 
L 656.167426 121.764035 
L 656.327719 121.685969 
L 656.808597 120.006624 
L 656.968889 119.999619 
L 657.129182 120.710251 
L 657.449767 125.018331 
L 657.770353 133.871236 
L 658.25123 155.794736 
L 658.732108 186.061385 
L 659.052694 388.76601 
L 659.373279 430.211602 
L 659.533571 430.357317 
L 659.854157 418.492987 
L 660.65562 383.001642 
L 660.976205 375.619025 
L 661.136498 374.148129 
L 661.29679 374.182831 
L 661.457083 375.641323 
L 661.777668 382.177949 
L 662.418839 403.227433 
L 663.060009 422.619694 
L 663.380594 428.45778 
L 663.70118 430.917515 
L 663.861472 430.823179 
L 664.021765 429.84853 
L 664.34235 425.335114 
L 664.823228 412.63931 
L 665.464399 386.497118 
L 666.426154 334.746134 
L 667.868788 256.541623 
L 668.509958 231.286498 
L 668.990836 218.242041 
L 669.471714 210.541451 
L 669.792299 208.288297 
L 669.952592 207.975571 
L 670.112885 208.174624 
L 670.43347 209.999343 
L 670.754055 213.525549 
L 671.234933 221.439211 
L 672.036396 239.451397 
L 675.081956 313.930062 
L 676.043712 330.873032 
L 677.005468 344.027513 
L 677.967223 353.939333 
L 678.768686 360.165601 
L 679.57015 364.894307 
L 680.371613 368.41188 
L 681.173076 370.964046 
L 681.974539 372.759835 
L 682.776002 373.975328 
L 683.577465 374.756502 
L 684.378928 375.221712 
L 685.340684 375.492904 
L 686.462732 375.561979 
L 688.225951 375.412134 
L 693.996486 374.782279 
L 694.156778 374.772924 
L 694.477364 127.307379 
L 694.797949 78.405933 
L 694.958242 78.212161 
L 695.278827 91.141828 
L 695.759705 111.82795 
L 696.08029 119.317487 
L 696.400875 121.771931 
L 696.561168 121.693203 
L 697.042046 120.012225 
L 697.202338 120.004773 
L 697.362631 120.714999 
L 697.683216 125.02237 
L 698.003801 133.874682 
L 698.484679 155.79746 
L 698.965557 186.063539 
L 699.286142 388.767784 
L 699.606728 430.213117 
L 699.76702 430.358723 
L 700.087606 418.494196 
L 700.889069 383.002442 
L 701.209654 375.619693 
L 701.369947 374.148736 
L 701.530239 374.183381 
L 701.690532 375.64182 
L 702.011117 382.17835 
L 702.652288 403.227679 
L 703.293458 422.619829 
L 703.614043 428.457875 
L 703.934629 430.917578 
L 704.094921 430.823229 
L 704.255214 429.848568 
L 704.575799 425.335134 
L 705.056677 412.639311 
L 705.697847 386.497105 
L 706.659603 334.746115 
L 708.102237 256.541605 
L 708.743407 231.28648 
L 709.224285 218.242024 
L 709.705163 210.541434 
L 710.025748 208.288281 
L 710.186041 207.975555 
L 710.346334 208.174608 
L 710.666919 209.999327 
L 710.987504 213.525534 
L 711.468382 221.439197 
L 712.269845 239.451385 
L 715.315405 313.930058 
L 716.277161 330.873029 
L 717.238916 344.027511 
L 718.200672 353.939332 
L 719.002135 360.165601 
L 719.803598 364.894307 
L 720.605062 368.41188 
L 721.406525 370.964046 
L 722.207988 372.759835 
L 723.009451 373.975328 
L 723.810914 374.756502 
L 724.612377 375.221712 
L 725.574133 375.492904 
L 726.696181 375.561979 
L 728.4594 375.412134 
L 734.069642 374.792078 
L 734.390227 127.32409 
L 734.710813 78.420286 
L 734.871105 78.225402 
L 735.19169 91.15302 
L 735.672568 111.836562 
L 735.993154 119.324709 
L 736.313739 121.778001 
L 736.474031 121.698775 
L 736.954909 120.016565 
L 737.115202 120.008776 
L 737.275495 120.718693 
L 737.59608 125.025526 
L 737.916665 133.877386 
L 738.397543 155.79961 
L 738.878421 186.065252 
L 739.199006 388.769214 
L 739.519591 430.214353 
L 739.679884 430.359877 
L 740.000469 418.495201 
L 740.801932 383.003137 
L 741.122518 375.620285 
L 741.28281 374.149281 
L 741.443103 374.183881 
L 741.603395 375.642279 
L 741.923981 382.178733 
L 742.565151 403.227936 
L 743.206322 422.619994 
L 743.526907 428.458004 
L 743.847492 430.917678 
L 744.007785 430.823317 
L 744.168077 429.848645 
L 744.488663 425.335192 
L 744.969541 412.639348 
L 745.610711 386.497125 
L 746.572467 334.74612 
L 748.0151 256.541601 
L 748.656271 231.286474 
L 749.137149 218.242016 
L 749.618027 210.541425 
L 749.938612 208.288272 
L 750.098905 207.975545 
L 750.259197 208.174598 
L 750.579782 209.999317 
L 750.900368 213.525524 
L 751.381246 221.439188 
L 752.182709 239.451376 
L 755.228269 313.930053 
L 756.190024 330.873026 
L 757.15178 344.027509 
L 758.113536 353.939331 
L 758.914999 360.1656 
L 759.716462 364.894306 
L 760.517925 368.41188 
L 761.319388 370.964046 
L 762.120851 372.759835 
L 762.922315 373.975329 
L 763.723778 374.756503 
L 764.525241 375.221712 
L 765.486997 375.492904 
L 766.609045 375.561979 
L 768.372264 375.412134 
L 773.822213 374.802331 
L 774.142798 127.333036 
L 774.463384 78.427981 
L 774.623676 78.232509 
L 774.944261 91.159043 
L 775.425139 111.841214 
L 775.745725 119.328621 
L 776.06631 121.781297 
L 776.226602 121.701805 
L 776.70748 120.018933 
L 776.867773 120.010962 
L 777.028066 120.720713 
L 777.348651 125.027256 
L 777.669236 133.878871 
L 778.150114 155.800796 
L 778.630992 186.0662 
L 778.951577 388.770011 
L 779.272162 430.215046 
L 779.432455 430.360527 
L 779.75304 418.495772 
L 780.554503 383.00354 
L 780.875089 375.620631 
L 781.035381 374.149602 
L 781.195674 374.184178 
L 781.355966 375.642553 
L 781.676552 382.178964 
L 782.317722 403.228098 
L 782.958893 422.620102 
L 783.279478 428.458092 
L 783.600063 430.917749 
L 783.760356 430.82338 
L 783.920648 429.848701 
L 784.241234 425.335237 
L 784.722112 412.63938 
L 785.363282 386.497145 
L 786.325038 334.74613 
L 787.767671 256.541602 
L 788.408842 231.286472 
L 788.88972 218.242014 
L 789.370598 210.541422 
L 789.691183 208.288268 
L 789.851476 207.975541 
L 790.011768 208.174594 
L 790.332353 209.999313 
L 790.652939 213.525519 
L 791.133817 221.439183 
L 791.93528 239.451371 
L 794.98084 313.930051 
L 795.942595 330.873024 
L 796.904351 344.027508 
L 797.866107 353.93933 
L 798.66757 360.165599 
L 799.469033 364.894306 
L 800.270496 368.41188 
L 801.071959 370.964046 
L 801.873422 372.759835 
L 802.674886 373.975329 
L 803.476349 374.756503 
L 804.277812 375.221712 
L 805.239568 375.492905 
L 806.361616 375.561979 
L 808.124835 375.412134 
L 813.414491 374.813049 
L 813.735077 127.342387 
L 814.055662 78.436034 
L 814.215955 78.239952 
L 814.53654 91.16536 
L 815.017418 111.846108 
L 815.338003 119.332743 
L 815.658588 121.784776 
L 815.818881 121.705005 
L 816.299759 120.021441 
L 816.460051 120.013278 
L 816.620344 120.722855 
L 816.940929 125.029093 
L 817.261514 133.880451 
L 817.742392 155.80206 
L 818.22327 186.067213 
L 818.543855 388.770868 
L 818.864441 430.215795 
L 819.024733 430.361229 
L 819.345319 418.496391 
L 820.146782 383.003983 
L 820.467367 375.621015 
L 820.62766 374.149958 
L 820.787952 374.184508 
L 820.948245 375.642858 
L 821.26883 382.179225 
L 821.910001 403.228283 
L 822.551171 422.62023 
L 822.871756 428.458197 
L 823.192342 430.917835 
L 823.352634 430.823458 
L 823.512927 429.848772 
L 823.833512 425.335294 
L 824.31439 412.639422 
L 824.95556 386.497172 
L 825.917316 334.746144 
L 827.35995 256.541606 
L 828.00112 231.286473 
L 828.481998 218.242013 
L 828.962876 210.541419 
L 829.283461 208.288265 
L 829.443754 207.975537 
L 829.604047 208.17459 
L 829.924632 209.999308 
L 830.245217 213.525515 
L 830.726095 221.439177 
L 831.527558 239.451366 
L 834.573118 313.930048 
L 835.534874 330.873022 
L 836.496629 344.027506 
L 837.458385 353.939329 
L 838.259848 360.165599 
L 839.061311 364.894306 
L 839.862775 368.411879 
L 840.664238 370.964046 
L 841.465701 372.759835 
L 842.267164 373.975329 
L 843.068627 374.756503 
L 843.87009 375.221713 
L 844.831846 375.492905 
L 845.953894 375.561979 
L 847.717113 375.412134 
L 853.487648 374.782279 
L 854.609696 374.725449 
L 854.930281 127.265965 
L 855.250867 78.370498 
L 855.411159 78.179563 
L 855.731744 91.114454 
L 856.212622 111.807108 
L 856.533208 119.30013 
L 856.853793 121.75744 
L 857.014085 121.679943 
L 857.494963 120.001996 
L 857.655256 119.995371 
L 857.815549 120.706347 
L 858.136134 125.015027 
L 858.456719 133.868432 
L 858.937597 155.792539 
L 859.418475 186.059664 
L 859.73906 388.764621 
L 860.059645 430.210436 
L 860.219938 430.356245 
L 860.540523 418.492084 
L 861.341986 383.001084 
L 861.662572 375.618578 
L 861.822864 374.147731 
L 861.983157 374.182479 
L 862.143449 375.641015 
L 862.464035 382.177718 
L 863.105205 403.227322 
L 863.746376 422.619664 
L 864.066961 428.457778 
L 864.387546 430.917534 
L 864.547839 430.823206 
L 864.708131 429.848564 
L 865.028717 425.335158 
L 865.509595 412.639361 
L 866.150765 386.497169 
L 867.112521 334.746177 
L 868.555154 256.541653 
L 869.196325 231.286523 
L 869.677203 218.242064 
L 870.158081 210.54147 
L 870.478666 208.288316 
L 870.638959 207.975589 
L 870.799251 208.174641 
L 871.119836 209.999358 
L 871.440422 213.525563 
L 871.9213 221.439224 
L 872.722763 239.451407 
L 875.768323 313.930065 
L 876.730078 330.873034 
L 877.691834 344.027513 
L 878.65359 353.939333 
L 879.455053 360.1656 
L 880.256516 364.894306 
L 881.057979 368.411879 
L 881.859442 370.964045 
L 882.660905 372.759834 
L 883.462369 373.975328 
L 884.263832 374.756502 
L 885.065295 375.221712 
L 886.027051 375.492904 
L 887.149099 375.561979 
L 888.912318 375.412134 
L 894.362267 374.802331 
L 894.682852 127.333036 
L 895.003438 78.427981 
L 895.16373 78.232509 
L 895.484315 91.159043 
L 895.965193 111.841214 
L 896.285779 119.328621 
L 896.606364 121.781297 
L 896.766656 121.701805 
L 897.247534 120.018933 
L 897.407827 120.010962 
L 897.56812 120.720713 
L 897.888705 125.027256 
L 898.20929 133.878871 
L 898.690168 155.800796 
L 899.171046 186.0662 
L 899.491631 388.770011 
L 899.812216 430.215046 
L 899.972509 430.360527 
L 900.293094 418.495772 
L 901.094557 383.00354 
L 901.415143 375.620631 
L 901.575435 374.149602 
L 901.735728 374.184178 
L 901.89602 375.642553 
L 902.216606 382.178964 
L 902.857776 403.228098 
L 903.498947 422.620102 
L 903.819532 428.458092 
L 904.140117 430.917749 
L 904.30041 430.82338 
L 904.460702 429.848701 
L 904.781288 425.335237 
L 905.262166 412.63938 
L 905.903336 386.497145 
L 906.865092 334.74613 
L 908.307725 256.541602 
L 908.948896 231.286472 
L 909.429774 218.242014 
L 909.910652 210.541422 
L 910.231237 208.288268 
L 910.39153 207.975541 
L 910.551822 208.174594 
L 910.872407 209.999313 
L 911.192993 213.525519 
L 911.673871 221.439183 
L 912.475334 239.451371 
L 915.520894 313.930051 
L 916.482649 330.873024 
L 917.444405 344.027508 
L 918.406161 353.93933 
L 919.207624 360.165599 
L 920.009087 364.894306 
L 920.81055 368.41188 
L 921.612013 370.964046 
L 922.413476 372.759835 
L 923.21494 373.975329 
L 924.016403 374.756503 
L 924.817866 375.221712 
L 925.779622 375.492905 
L 926.90167 375.561979 
L 928.664889 375.412134 
L 933.794253 374.824241 
L 933.954545 209.676121 
L 933.954545 209.676121 
" clip-path="url(#pf063866de9)" style="fill: none; stroke: #1f77b4; stroke-width: 1.5; stroke-linecap: square"/>
   </g>
   <g id="line2d_14">
    <path d="M 173.045455 86.978821 
L 177.693941 86.978821 
L 177.854233 374.634679 
L 213.278903 374.634679 
L 213.439196 86.978821 
L 218.087682 86.978821 
L 218.247975 374.634679 
L 253.99323 374.634679 
L 254.153523 86.978821 
L 258.802009 86.978821 
L 258.962302 374.634679 
L 293.585509 374.634679 
L 293.745801 86.978821 
L 298.394287 86.978821 
L 298.55458 374.634679 
L 333.818957 374.634679 
L 333.97925 86.978821 
L 338.627736 86.978821 
L 338.788029 374.634679 
L 373.090651 374.634679 
L 373.250943 86.978821 
L 377.899429 86.978821 
L 378.059722 374.634679 
L 413.644685 374.634679 
L 413.804977 86.978821 
L 418.453463 86.978821 
L 418.613756 374.634679 
L 453.557548 374.634679 
L 453.717841 86.978821 
L 458.366327 86.978821 
L 458.52662 374.634679 
L 493.630705 374.634679 
L 493.790997 86.978821 
L 498.439483 86.978821 
L 498.599776 374.634679 
L 533.864153 374.634679 
L 534.024446 86.978821 
L 538.672932 86.978821 
L 538.833225 374.634679 
L 574.257895 374.634679 
L 574.418188 86.978821 
L 579.066674 86.978821 
L 579.226966 374.634679 
L 613.209003 374.634679 
L 613.369295 86.978821 
L 618.017782 86.978821 
L 618.178074 374.634679 
L 653.92333 374.634679 
L 654.083622 86.978821 
L 658.732108 86.978821 
L 658.892401 374.634679 
L 694.156778 374.634679 
L 694.317071 86.978821 
L 698.965557 86.978821 
L 699.12585 374.634679 
L 734.069642 374.634679 
L 734.229935 86.978821 
L 738.878421 86.978821 
L 739.038713 374.634679 
L 773.822213 374.634679 
L 773.982506 86.978821 
L 778.630992 86.978821 
L 778.791284 374.634679 
L 813.414491 374.634679 
L 813.574784 86.978821 
L 818.22327 86.978821 
L 818.383563 374.634679 
L 854.609696 374.634679 
L 854.769989 86.978821 
L 859.418475 86.978821 
L 859.578767 374.634679 
L 894.362267 374.634679 
L 894.52256 86.978821 
L 899.171046 86.978821 
L 899.331338 374.634679 
L 933.794253 374.634679 
L 933.954545 86.978821 
L 933.954545 86.978821 
" clip-path="url(#pf063866de9)" style="fill: none; stroke: #ff7f0e; stroke-width: 1.5; stroke-linecap: square"/>
   </g>
   <g id="line2d_15">
    <path d="M 929.466352 374.634679 
" clip-path="url(#pf063866de9)" style="fill: none; stroke: #000000; stroke-width: 1.5; stroke-linecap: square"/>
    <defs>
     <path id="mbafdc2728c" d="M 0 1 
C 0.265203 1 0.51958 0.894634 0.707107 0.707107 
C 0.894634 0.51958 1 0.265203 1 0 
C 1 -0.265203 0.894634 -0.51958 0.707107 -0.707107 
C 0.51958 -0.894634 0.265203 -1 0 -1 
C -0.265203 -1 -0.51958 -0.894634 -0.707107 -0.707107 
C -0.894634 -0.51958 -1 -0.265203 -1 0 
C -1 0.265203 -0.894634 0.51958 -0.707107 0.707107 
C -0.51958 0.894634 -0.265203 1 0 1 
z
" style="stroke: #000000"/>
    </defs>
    <g clip-path="url(#pf063866de9)">
     <use xlink:href="#mbafdc2728c" x="173.045455" y="86.978821" style="stroke: #000000"/>
     <use xlink:href="#mbafdc2728c" x="178.174819" y="374.634679" style="stroke: #000000"/>
     <use xlink:href="#mbafdc2728c" x="183.14389" y="374.634679" style="stroke: #000000"/>
     <use xlink:href="#mbafdc2728c" x="188.112961" y="86.978821" style="stroke: #000000"/>
     <use xlink:href="#mbafdc2728c" x="193.082033" y="374.634679" style="stroke: #000000"/>
     <use xlink:href="#mbafdc2728c" x="198.211397" y="374.634679" style="stroke: #000000"/>
     <use xlink:href="#mbafdc2728c" x="203.180468" y="86.978821" style="stroke: #000000"/>
     <use xlink:href="#mbafdc2728c" x="208.149539" y="374.634679" style="stroke: #000000"/>
     <use xlink:href="#mbafdc2728c" x="213.118611" y="86.978821" style="stroke: #000000"/>
     <use xlink:href="#mbafdc2728c" x="218.247975" y="374.634679" style="stroke: #000000"/>
     <use xlink:href="#mbafdc2728c" x="223.217046" y="374.634679" style="stroke: #000000"/>
     <use xlink:href="#mbafdc2728c" x="228.186118" y="86.978821" style="stroke: #000000"/>
     <use xlink:href="#mbafdc2728c" x="233.155189" y="374.634679" style="stroke: #000000"/>
     <use xlink:href="#mbafdc2728c" x="238.284553" y="374.634679" style="stroke: #000000"/>
     <use xlink:href="#mbafdc2728c" x="243.253624" y="86.978821" style="stroke: #000000"/>
     <use xlink:href="#mbafdc2728c" x="248.222696" y="374.634679" style="stroke: #000000"/>
     <use xlink:href="#mbafdc2728c" x="253.191767" y="86.978821" style="stroke: #000000"/>
     <use xlink:href="#mbafdc2728c" x="258.321131" y="374.634679" style="stroke: #000000"/>
     <use xlink:href="#mbafdc2728c" x="263.290202" y="374.634679" style="stroke: #000000"/>
     <use xlink:href="#mbafdc2728c" x="268.259274" y="86.978821" style="stroke: #000000"/>
     <use xlink:href="#mbafdc2728c" x="273.228345" y="374.634679" style="stroke: #000000"/>
     <use xlink:href="#mbafdc2728c" x="278.357709" y="374.634679" style="stroke: #000000"/>
     <use xlink:href="#mbafdc2728c" x="283.326781" y="86.978821" style="stroke: #000000"/>
     <use xlink:href="#mbafdc2728c" x="288.295852" y="374.634679" style="stroke: #000000"/>
     <use xlink:href="#mbafdc2728c" x="293.264923" y="86.978821" style="stroke: #000000"/>
     <use xlink:href="#mbafdc2728c" x="298.394287" y="374.634679" style="stroke: #000000"/>
     <use xlink:href="#mbafdc2728c" x="303.363359" y="374.634679" style="stroke: #000000"/>
     <use xlink:href="#mbafdc2728c" x="308.33243" y="86.978821" style="stroke: #000000"/>
     <use xlink:href="#mbafdc2728c" x="313.301501" y="374.634679" style="stroke: #000000"/>
     <use xlink:href="#mbafdc2728c" x="318.430865" y="374.634679" style="stroke: #000000"/>
     <use xlink:href="#mbafdc2728c" x="323.399937" y="86.978821" style="stroke: #000000"/>
     <use xlink:href="#mbafdc2728c" x="328.369008" y="374.634679" style="stroke: #000000"/>
     <use xlink:href="#mbafdc2728c" x="333.33808" y="86.978821" style="stroke: #000000"/>
     <use xlink:href="#mbafdc2728c" x="338.467444" y="374.634679" style="stroke: #000000"/>
     <use xlink:href="#mbafdc2728c" x="343.436515" y="374.634679" style="stroke: #000000"/>
     <use xlink:href="#mbafdc2728c" x="348.405586" y="86.978821" style="stroke: #000000"/>
     <use xlink:href="#mbafdc2728c" x="353.374658" y="374.634679" style="stroke: #000000"/>
     <use xlink:href="#mbafdc2728c" x="358.504022" y="374.634679" style="stroke: #000000"/>
     <use xlink:href="#mbafdc2728c" x="363.473093" y="86.978821" style="stroke: #000000"/>
     <use xlink:href="#mbafdc2728c" x="368.442164" y="374.634679" style="stroke: #000000"/>
     <use xlink:href="#mbafdc2728c" x="373.411236" y="86.978821" style="stroke: #000000"/>
     <use xlink:href="#mbafdc2728c" x="378.5406" y="374.634679" style="stroke: #000000"/>
     <use xlink:href="#mbafdc2728c" x="383.509671" y="374.634679" style="stroke: #000000"/>
     <use xlink:href="#mbafdc2728c" x="388.478743" y="86.978821" style="stroke: #000000"/>
     <use xlink:href="#mbafdc2728c" x="393.447814" y="374.634679" style="stroke: #000000"/>
     <use xlink:href="#mbafdc2728c" x="398.577178" y="374.634679" style="stroke: #000000"/>
     <use xlink:href="#mbafdc2728c" x="403.546249" y="86.978821" style="stroke: #000000"/>
     <use xlink:href="#mbafdc2728c" x="408.515321" y="374.634679" style="stroke: #000000"/>
     <use xlink:href="#mbafdc2728c" x="413.484392" y="86.978821" style="stroke: #000000"/>
     <use xlink:href="#mbafdc2728c" x="418.613756" y="374.634679" style="stroke: #000000"/>
     <use xlink:href="#mbafdc2728c" x="423.582827" y="374.634679" style="stroke: #000000"/>
     <use xlink:href="#mbafdc2728c" x="428.551899" y="86.978821" style="stroke: #000000"/>
     <use xlink:href="#mbafdc2728c" x="433.52097" y="374.634679" style="stroke: #000000"/>
     <use xlink:href="#mbafdc2728c" x="438.650334" y="374.634679" style="stroke: #000000"/>
     <use xlink:href="#mbafdc2728c" x="443.619406" y="86.978821" style="stroke: #000000"/>
     <use xlink:href="#mbafdc2728c" x="448.588477" y="374.634679" style="stroke: #000000"/>
     <use xlink:href="#mbafdc2728c" x="453.557548" y="86.978821" style="stroke: #000000"/>
     <use xlink:href="#mbafdc2728c" x="458.686912" y="374.634679" style="stroke: #000000"/>
     <use xlink:href="#mbafdc2728c" x="463.655984" y="374.634679" style="stroke: #000000"/>
     <use xlink:href="#mbafdc2728c" x="468.625055" y="86.978821" style="stroke: #000000"/>
     <use xlink:href="#mbafdc2728c" x="473.594126" y="374.634679" style="stroke: #000000"/>
     <use xlink:href="#mbafdc2728c" x="478.72349" y="374.634679" style="stroke: #000000"/>
     <use xlink:href="#mbafdc2728c" x="483.692562" y="86.978821" style="stroke: #000000"/>
     <use xlink:href="#mbafdc2728c" x="488.661633" y="374.634679" style="stroke: #000000"/>
     <use xlink:href="#mbafdc2728c" x="493.630705" y="86.978821" style="stroke: #000000"/>
     <use xlink:href="#mbafdc2728c" x="498.760069" y="374.634679" style="stroke: #000000"/>
     <use xlink:href="#mbafdc2728c" x="503.72914" y="374.634679" style="stroke: #000000"/>
     <use xlink:href="#mbafdc2728c" x="508.698211" y="86.978821" style="stroke: #000000"/>
     <use xlink:href="#mbafdc2728c" x="513.667283" y="374.634679" style="stroke: #000000"/>
     <use xlink:href="#mbafdc2728c" x="518.796647" y="374.634679" style="stroke: #000000"/>
     <use xlink:href="#mbafdc2728c" x="523.765718" y="86.978821" style="stroke: #000000"/>
     <use xlink:href="#mbafdc2728c" x="528.734789" y="374.634679" style="stroke: #000000"/>
     <use xlink:href="#mbafdc2728c" x="533.703861" y="86.978821" style="stroke: #000000"/>
     <use xlink:href="#mbafdc2728c" x="538.833225" y="374.634679" style="stroke: #000000"/>
     <use xlink:href="#mbafdc2728c" x="543.802296" y="374.634679" style="stroke: #000000"/>
     <use xlink:href="#mbafdc2728c" x="548.771368" y="86.978821" style="stroke: #000000"/>
     <use xlink:href="#mbafdc2728c" x="553.740439" y="374.634679" style="stroke: #000000"/>
     <use xlink:href="#mbafdc2728c" x="558.869803" y="374.634679" style="stroke: #000000"/>
     <use xlink:href="#mbafdc2728c" x="563.838874" y="86.978821" style="stroke: #000000"/>
     <use xlink:href="#mbafdc2728c" x="568.807946" y="374.634679" style="stroke: #000000"/>
     <use xlink:href="#mbafdc2728c" x="573.777017" y="86.978821" style="stroke: #000000"/>
     <use xlink:href="#mbafdc2728c" x="578.906381" y="374.634679" style="stroke: #000000"/>
     <use xlink:href="#mbafdc2728c" x="583.875452" y="374.634679" style="stroke: #000000"/>
     <use xlink:href="#mbafdc2728c" x="588.844524" y="86.978821" style="stroke: #000000"/>
     <use xlink:href="#mbafdc2728c" x="593.813595" y="374.634679" style="stroke: #000000"/>
     <use xlink:href="#mbafdc2728c" x="598.942959" y="374.634679" style="stroke: #000000"/>
     <use xlink:href="#mbafdc2728c" x="603.912031" y="86.978821" style="stroke: #000000"/>
     <use xlink:href="#mbafdc2728c" x="608.881102" y="374.634679" style="stroke: #000000"/>
     <use xlink:href="#mbafdc2728c" x="613.850173" y="86.978821" style="stroke: #000000"/>
     <use xlink:href="#mbafdc2728c" x="618.979537" y="374.634679" style="stroke: #000000"/>
     <use xlink:href="#mbafdc2728c" x="623.948609" y="374.634679" style="stroke: #000000"/>
     <use xlink:href="#mbafdc2728c" x="628.91768" y="86.978821" style="stroke: #000000"/>
     <use xlink:href="#mbafdc2728c" x="633.886751" y="374.634679" style="stroke: #000000"/>
     <use xlink:href="#mbafdc2728c" x="639.016115" y="374.634679" style="stroke: #000000"/>
     <use xlink:href="#mbafdc2728c" x="643.985187" y="86.978821" style="stroke: #000000"/>
     <use xlink:href="#mbafdc2728c" x="648.954258" y="374.634679" style="stroke: #000000"/>
     <use xlink:href="#mbafdc2728c" x="653.92333" y="86.978821" style="stroke: #000000"/>
     <use xlink:href="#mbafdc2728c" x="659.052694" y="374.634679" style="stroke: #000000"/>
     <use xlink:href="#mbafdc2728c" x="664.021765" y="374.634679" style="stroke: #000000"/>
     <use xlink:href="#mbafdc2728c" x="668.990836" y="86.978821" style="stroke: #000000"/>
     <use xlink:href="#mbafdc2728c" x="673.959908" y="374.634679" style="stroke: #000000"/>
     <use xlink:href="#mbafdc2728c" x="679.089272" y="374.634679" style="stroke: #000000"/>
     <use xlink:href="#mbafdc2728c" x="684.058343" y="86.978821" style="stroke: #000000"/>
     <use xlink:href="#mbafdc2728c" x="689.027414" y="374.634679" style="stroke: #000000"/>
     <use xlink:href="#mbafdc2728c" x="693.996486" y="86.978821" style="stroke: #000000"/>
     <use xlink:href="#mbafdc2728c" x="699.12585" y="374.634679" style="stroke: #000000"/>
     <use xlink:href="#mbafdc2728c" x="704.094921" y="374.634679" style="stroke: #000000"/>
     <use xlink:href="#mbafdc2728c" x="709.063993" y="86.978821" style="stroke: #000000"/>
     <use xlink:href="#mbafdc2728c" x="714.033064" y="374.634679" style="stroke: #000000"/>
     <use xlink:href="#mbafdc2728c" x="719.162428" y="374.634679" style="stroke: #000000"/>
     <use xlink:href="#mbafdc2728c" x="724.131499" y="86.978821" style="stroke: #000000"/>
     <use xlink:href="#mbafdc2728c" x="729.100571" y="374.634679" style="stroke: #000000"/>
     <use xlink:href="#mbafdc2728c" x="734.069642" y="86.978821" style="stroke: #000000"/>
     <use xlink:href="#mbafdc2728c" x="739.199006" y="374.634679" style="stroke: #000000"/>
     <use xlink:href="#mbafdc2728c" x="744.168077" y="374.634679" style="stroke: #000000"/>
     <use xlink:href="#mbafdc2728c" x="749.137149" y="86.978821" style="stroke: #000000"/>
     <use xlink:href="#mbafdc2728c" x="754.10622" y="374.634679" style="stroke: #000000"/>
     <use xlink:href="#mbafdc2728c" x="759.235584" y="374.634679" style="stroke: #000000"/>
     <use xlink:href="#mbafdc2728c" x="764.204656" y="86.978821" style="stroke: #000000"/>
     <use xlink:href="#mbafdc2728c" x="769.173727" y="374.634679" style="stroke: #000000"/>
     <use xlink:href="#mbafdc2728c" x="774.142798" y="86.978821" style="stroke: #000000"/>
     <use xlink:href="#mbafdc2728c" x="779.272162" y="374.634679" style="stroke: #000000"/>
     <use xlink:href="#mbafdc2728c" x="784.241234" y="374.634679" style="stroke: #000000"/>
     <use xlink:href="#mbafdc2728c" x="789.210305" y="86.978821" style="stroke: #000000"/>
     <use xlink:href="#mbafdc2728c" x="794.179376" y="374.634679" style="stroke: #000000"/>
     <use xlink:href="#mbafdc2728c" x="799.30874" y="374.634679" style="stroke: #000000"/>
     <use xlink:href="#mbafdc2728c" x="804.277812" y="86.978821" style="stroke: #000000"/>
     <use xlink:href="#mbafdc2728c" x="809.246883" y="374.634679" style="stroke: #000000"/>
     <use xlink:href="#mbafdc2728c" x="814.215955" y="86.978821" style="stroke: #000000"/>
     <use xlink:href="#mbafdc2728c" x="819.345319" y="374.634679" style="stroke: #000000"/>
     <use xlink:href="#mbafdc2728c" x="824.31439" y="374.634679" style="stroke: #000000"/>
     <use xlink:href="#mbafdc2728c" x="829.283461" y="86.978821" style="stroke: #000000"/>
     <use xlink:href="#mbafdc2728c" x="834.252533" y="374.634679" style="stroke: #000000"/>
     <use xlink:href="#mbafdc2728c" x="839.381897" y="374.634679" style="stroke: #000000"/>
     <use xlink:href="#mbafdc2728c" x="844.350968" y="86.978821" style="stroke: #000000"/>
     <use xlink:href="#mbafdc2728c" x="849.320039" y="374.634679" style="stroke: #000000"/>
     <use xlink:href="#mbafdc2728c" x="854.289111" y="86.978821" style="stroke: #000000"/>
     <use xlink:href="#mbafdc2728c" x="859.418475" y="374.634679" style="stroke: #000000"/>
     <use xlink:href="#mbafdc2728c" x="864.387546" y="374.634679" style="stroke: #000000"/>
     <use xlink:href="#mbafdc2728c" x="869.356618" y="86.978821" style="stroke: #000000"/>
     <use xlink:href="#mbafdc2728c" x="874.325689" y="374.634679" style="stroke: #000000"/>
     <use xlink:href="#mbafdc2728c" x="879.455053" y="374.634679" style="stroke: #000000"/>
     <use xlink:href="#mbafdc2728c" x="884.424124" y="86.978821" style="stroke: #000000"/>
     <use xlink:href="#mbafdc2728c" x="889.393196" y="374.634679" style="stroke: #000000"/>
     <use xlink:href="#mbafdc2728c" x="894.362267" y="86.978821" style="stroke: #000000"/>
     <use xlink:href="#mbafdc2728c" x="899.491631" y="374.634679" style="stroke: #000000"/>
     <use xlink:href="#mbafdc2728c" x="904.460702" y="374.634679" style="stroke: #000000"/>
     <use xlink:href="#mbafdc2728c" x="909.429774" y="86.978821" style="stroke: #000000"/>
     <use xlink:href="#mbafdc2728c" x="914.398845" y="374.634679" style="stroke: #000000"/>
     <use xlink:href="#mbafdc2728c" x="919.528209" y="374.634679" style="stroke: #000000"/>
     <use xlink:href="#mbafdc2728c" x="924.497281" y="86.978821" style="stroke: #000000"/>
     <use xlink:href="#mbafdc2728c" x="929.466352" y="374.634679" style="stroke: #000000"/>
    </g>
   </g>
   <g id="patch_3">
    <path d="M 135 448.56 
L 135 60.48 
" style="fill: none; stroke: #000000; stroke-width: 0.8; stroke-linejoin: miter; stroke-linecap: square"/>
   </g>
   <g id="patch_4">
    <path d="M 972 448.56 
L 972 60.48 
" style="fill: none; stroke: #000000; stroke-width: 0.8; stroke-linejoin: miter; stroke-linecap: square"/>
   </g>
   <g id="patch_5">
    <path d="M 135 448.56 
L 972 448.56 
" style="fill: none; stroke: #000000; stroke-width: 0.8; stroke-linejoin: miter; stroke-linecap: square"/>
   </g>
   <g id="patch_6">
    <path d="M 135 60.48 
L 972 60.48 
" style="fill: none; stroke: #000000; stroke-width: 0.8; stroke-linejoin: miter; stroke-linecap: square"/>
   </g>
   <g id="legend_1">
    <g id="patch_7">
     <path d="M 895.915625 278.315313 
L 965 278.315313 
Q 967 278.315313 967 276.315313 
L 967 232.724688 
Q 967 230.724688 965 230.724688 
L 895.915625 230.724688 
Q 893.915625 230.724688 893.915625 232.724688 
L 893.915625 276.315313 
Q 893.915625 278.315313 895.915625 278.315313 
z
" style="fill: #ffffff; opacity: 0.8; stroke: #cccccc; stroke-linejoin: miter"/>
    </g>
    <g id="line2d_16">
     <path d="M 897.915625 238.823125 
L 907.915625 238.823125 
L 917.915625 238.823125 
" style="fill: none; stroke: #1f77b4; stroke-width: 1.5; stroke-linecap: square"/>
    </g>
    <g id="text_14">
     <!-- nw_0 -->
     <g transform="translate(925.915625 242.323125) scale(0.1 -0.1)">
      <defs>
       <path id="DejaVuSans-6e" d="M 3513 2113 
L 3513 0 
L 2938 0 
L 2938 2094 
Q 2938 2591 2744 2837 
Q 2550 3084 2163 3084 
Q 1697 3084 1428 2787 
Q 1159 2491 1159 1978 
L 1159 0 
L 581 0 
L 581 3500 
L 1159 3500 
L 1159 2956 
Q 1366 3272 1645 3428 
Q 1925 3584 2291 3584 
Q 2894 3584 3203 3211 
Q 3513 2838 3513 2113 
z
" transform="scale(0.015625)"/>
       <path id="DejaVuSans-77" d="M 269 3500 
L 844 3500 
L 1563 769 
L 2278 3500 
L 2956 3500 
L 3675 769 
L 4391 3500 
L 4966 3500 
L 4050 0 
L 3372 0 
L 2619 2869 
L 1863 0 
L 1184 0 
L 269 3500 
z
" transform="scale(0.015625)"/>
       <path id="DejaVuSans-5f" d="M 3263 -1063 
L 3263 -1509 
L -63 -1509 
L -63 -1063 
L 3263 -1063 
z
" transform="scale(0.015625)"/>
      </defs>
      <use xlink:href="#DejaVuSans-6e"/>
      <use xlink:href="#DejaVuSans-77" x="63.378906"/>
      <use xlink:href="#DejaVuSans-5f" x="145.166016"/>
      <use xlink:href="#DejaVuSans-30" x="195.166016"/>
     </g>
    </g>
    <g id="line2d_17">
     <path d="M 897.915625 253.779375 
L 907.915625 253.779375 
L 917.915625 253.779375 
" style="fill: none; stroke: #ff7f0e; stroke-width: 1.5; stroke-linecap: square"/>
    </g>
    <g id="text_15">
     <!-- input_0 -->
     <g transform="translate(925.915625 257.279375) scale(0.1 -0.1)">
      <defs>
       <path id="DejaVuSans-69" d="M 603 3500 
L 1178 3500 
L 1178 0 
L 603 0 
L 603 3500 
z
M 603 4863 
L 1178 4863 
L 1178 4134 
L 603 4134 
L 603 4863 
z
" transform="scale(0.015625)"/>
       <path id="DejaVuSans-70" d="M 1159 525 
L 1159 -1331 
L 581 -1331 
L 581 3500 
L 1159 3500 
L 1159 2969 
Q 1341 3281 1617 3432 
Q 1894 3584 2278 3584 
Q 2916 3584 3314 3078 
Q 3713 2572 3713 1747 
Q 3713 922 3314 415 
Q 2916 -91 2278 -91 
Q 1894 -91 1617 61 
Q 1341 213 1159 525 
z
M 3116 1747 
Q 3116 2381 2855 2742 
Q 2594 3103 2138 3103 
Q 1681 3103 1420 2742 
Q 1159 2381 1159 1747 
Q 1159 1113 1420 752 
Q 1681 391 2138 391 
Q 2594 391 2855 752 
Q 3116 1113 3116 1747 
z
" transform="scale(0.015625)"/>
       <path id="DejaVuSans-75" d="M 544 1381 
L 544 3500 
L 1119 3500 
L 1119 1403 
Q 1119 906 1312 657 
Q 1506 409 1894 409 
Q 2359 409 2629 706 
Q 2900 1003 2900 1516 
L 2900 3500 
L 3475 3500 
L 3475 0 
L 2900 0 
L 2900 538 
Q 2691 219 2414 64 
Q 2138 -91 1772 -91 
Q 1169 -91 856 284 
Q 544 659 544 1381 
z
M 1991 3584 
L 1991 3584 
z
" transform="scale(0.015625)"/>
      </defs>
      <use xlink:href="#DejaVuSans-69"/>
      <use xlink:href="#DejaVuSans-6e" x="27.783203"/>
      <use xlink:href="#DejaVuSans-70" x="91.162109"/>
      <use xlink:href="#DejaVuSans-75" x="154.638672"/>
      <use xlink:href="#DejaVuSans-74" x="218.017578"/>
      <use xlink:href="#DejaVuSans-5f" x="257.226562"/>
      <use xlink:href="#DejaVuSans-30" x="307.226562"/>
     </g>
    </g>
    <g id="line2d_18">
     <path d="M 897.915625 268.735625 
L 907.915625 268.735625 
L 917.915625 268.735625 
" style="fill: none; stroke: #000000; stroke-width: 1.5; stroke-linecap: square"/>
     <g>
      <use xlink:href="#mbafdc2728c" x="907.915625" y="268.735625" style="stroke: #000000"/>
     </g>
    </g>
    <g id="text_16">
     <!-- target -->
     <g transform="translate(925.915625 272.235625) scale(0.1 -0.1)">
      <defs>
       <path id="DejaVuSans-61" d="M 2194 1759 
Q 1497 1759 1228 1600 
Q 959 1441 959 1056 
Q 959 750 1161 570 
Q 1363 391 1709 391 
Q 2188 391 2477 730 
Q 2766 1069 2766 1631 
L 2766 1759 
L 2194 1759 
z
M 3341 1997 
L 3341 0 
L 2766 0 
L 2766 531 
Q 2569 213 2275 61 
Q 1981 -91 1556 -91 
Q 1019 -91 701 211 
Q 384 513 384 1019 
Q 384 1609 779 1909 
Q 1175 2209 1959 2209 
L 2766 2209 
L 2766 2266 
Q 2766 2663 2505 2880 
Q 2244 3097 1772 3097 
Q 1472 3097 1187 3025 
Q 903 2953 641 2809 
L 641 3341 
Q 956 3463 1253 3523 
Q 1550 3584 1831 3584 
Q 2591 3584 2966 3190 
Q 3341 2797 3341 1997 
z
" transform="scale(0.015625)"/>
       <path id="DejaVuSans-72" d="M 2631 2963 
Q 2534 3019 2420 3045 
Q 2306 3072 2169 3072 
Q 1681 3072 1420 2755 
Q 1159 2438 1159 1844 
L 1159 0 
L 581 0 
L 581 3500 
L 1159 3500 
L 1159 2956 
Q 1341 3275 1631 3429 
Q 1922 3584 2338 3584 
Q 2397 3584 2469 3576 
Q 2541 3569 2628 3553 
L 2631 2963 
z
" transform="scale(0.015625)"/>
       <path id="DejaVuSans-67" d="M 2906 1791 
Q 2906 2416 2648 2759 
Q 2391 3103 1925 3103 
Q 1463 3103 1205 2759 
Q 947 2416 947 1791 
Q 947 1169 1205 825 
Q 1463 481 1925 481 
Q 2391 481 2648 825 
Q 2906 1169 2906 1791 
z
M 3481 434 
Q 3481 -459 3084 -895 
Q 2688 -1331 1869 -1331 
Q 1566 -1331 1297 -1286 
Q 1028 -1241 775 -1147 
L 775 -588 
Q 1028 -725 1275 -790 
Q 1522 -856 1778 -856 
Q 2344 -856 2625 -561 
Q 2906 -266 2906 331 
L 2906 616 
Q 2728 306 2450 153 
Q 2172 0 1784 0 
Q 1141 0 747 490 
Q 353 981 353 1791 
Q 353 2603 747 3093 
Q 1141 3584 1784 3584 
Q 2172 3584 2450 3431 
Q 2728 3278 2906 2969 
L 2906 3500 
L 3481 3500 
L 3481 434 
z
" transform="scale(0.015625)"/>
       <path id="DejaVuSans-65" d="M 3597 1894 
L 3597 1613 
L 953 1613 
Q 991 1019 1311 708 
Q 1631 397 2203 397 
Q 2534 397 2845 478 
Q 3156 559 3463 722 
L 3463 178 
Q 3153 47 2828 -22 
Q 2503 -91 2169 -91 
Q 1331 -91 842 396 
Q 353 884 353 1716 
Q 353 2575 817 3079 
Q 1281 3584 2069 3584 
Q 2775 3584 3186 3129 
Q 3597 2675 3597 1894 
z
M 3022 2063 
Q 3016 2534 2758 2815 
Q 2500 3097 2075 3097 
Q 1594 3097 1305 2825 
Q 1016 2553 972 2059 
L 3022 2063 
z
" transform="scale(0.015625)"/>
      </defs>
      <use xlink:href="#DejaVuSans-74"/>
      <use xlink:href="#DejaVuSans-61" x="39.208984"/>
      <use xlink:href="#DejaVuSans-72" x="100.488281"/>
      <use xlink:href="#DejaVuSans-67" x="139.851562"/>
      <use xlink:href="#DejaVuSans-65" x="203.328125"/>
      <use xlink:href="#DejaVuSans-74" x="264.851562"/>
     </g>
    </g>
   </g>
  </g>
 </g>
 <defs>
  <clipPath id="pf063866de9">
   <rect x="135" y="60.48" width="837" height="388.08"/>
  </clipPath>
 </defs>
</svg>
