<?xml version="1.0" encoding="utf-8" standalone="no"?>
<!DOCTYPE svg PUBLIC "-//W3C//DTD SVG 1.1//EN"
  "http://www.w3.org/Graphics/SVG/1.1/DTD/svg11.dtd">
<svg xmlns:xlink="http://www.w3.org/1999/xlink" width="1080pt" height="504pt" viewBox="0 0 1080 504" xmlns="http://www.w3.org/2000/svg" version="1.1">
 <metadata>
  <rdf:RDF xmlns:dc="http://purl.org/dc/elements/1.1/" xmlns:cc="http://creativecommons.org/ns#" xmlns:rdf="http://www.w3.org/1999/02/22-rdf-syntax-ns#">
   <cc:Work>
    <dc:type rdf:resource="http://purl.org/dc/dcmitype/StillImage"/>
    <dc:date>2024-05-09T11:39:12.464910</dc:date>
    <dc:format>image/svg+xml</dc:format>
    <dc:creator>
     <cc:Agent>
      <dc:title>Matplotlib v3.7.1, https://matplotlib.org/</dc:title>
     </cc:Agent>
    </dc:creator>
   </cc:Work>
  </rdf:RDF>
 </metadata>
 <defs>
  <style type="text/css">*{stroke-linejoin: round; stroke-linecap: butt}</style>
 </defs>
 <g id="figure_1">
  <g id="patch_1">
   <path d="M 0 504 
L 1080 504 
L 1080 0 
L 0 0 
z
" style="fill: #ffffff"/>
  </g>
  <g id="axes_1">
   <g id="patch_2">
    <path d="M 135 448.56 
L 972 448.56 
L 972 60.48 
L 135 60.48 
z
" style="fill: #ffffff"/>
   </g>
   <g id="matplotlib.axis_1">
    <g id="xtick_1">
     <g id="line2d_1">
      <defs>
       <path id="mb5ee87e23f" d="M 0 0 
L 0 3.5 
" style="stroke: #000000; stroke-width: 0.8"/>
      </defs>
      <g>
       <use xlink:href="#mb5ee87e23f" x="173.045455" y="448.56" style="stroke: #000000; stroke-width: 0.8"/>
      </g>
     </g>
     <g id="text_1">
      <!-- 0 -->
      <g transform="translate(169.864205 463.158437) scale(0.1 -0.1)">
       <defs>
        <path id="DejaVuSans-30" d="M 2034 4250 
Q 1547 4250 1301 3770 
Q 1056 3291 1056 2328 
Q 1056 1369 1301 889 
Q 1547 409 2034 409 
Q 2525 409 2770 889 
Q 3016 1369 3016 2328 
Q 3016 3291 2770 3770 
Q 2525 4250 2034 4250 
z
M 2034 4750 
Q 2819 4750 3233 4129 
Q 3647 3509 3647 2328 
Q 3647 1150 3233 529 
Q 2819 -91 2034 -91 
Q 1250 -91 836 529 
Q 422 1150 422 2328 
Q 422 3509 836 4129 
Q 1250 4750 2034 4750 
z
" transform="scale(0.015625)"/>
       </defs>
       <use xlink:href="#DejaVuSans-30"/>
      </g>
     </g>
    </g>
    <g id="xtick_2">
     <g id="line2d_2">
      <g>
       <use xlink:href="#mb5ee87e23f" x="333.33808" y="448.56" style="stroke: #000000; stroke-width: 0.8"/>
      </g>
     </g>
     <g id="text_2">
      <!-- 1000 -->
      <g transform="translate(320.61308 463.158437) scale(0.1 -0.1)">
       <defs>
        <path id="DejaVuSans-31" d="M 794 531 
L 1825 531 
L 1825 4091 
L 703 3866 
L 703 4441 
L 1819 4666 
L 2450 4666 
L 2450 531 
L 3481 531 
L 3481 0 
L 794 0 
L 794 531 
z
" transform="scale(0.015625)"/>
       </defs>
       <use xlink:href="#DejaVuSans-31"/>
       <use xlink:href="#DejaVuSans-30" x="63.623047"/>
       <use xlink:href="#DejaVuSans-30" x="127.246094"/>
       <use xlink:href="#DejaVuSans-30" x="190.869141"/>
      </g>
     </g>
    </g>
    <g id="xtick_3">
     <g id="line2d_3">
      <g>
       <use xlink:href="#mb5ee87e23f" x="493.630705" y="448.56" style="stroke: #000000; stroke-width: 0.8"/>
      </g>
     </g>
     <g id="text_3">
      <!-- 2000 -->
      <g transform="translate(480.905705 463.158437) scale(0.1 -0.1)">
       <defs>
        <path id="DejaVuSans-32" d="M 1228 531 
L 3431 531 
L 3431 0 
L 469 0 
L 469 531 
Q 828 903 1448 1529 
Q 2069 2156 2228 2338 
Q 2531 2678 2651 2914 
Q 2772 3150 2772 3378 
Q 2772 3750 2511 3984 
Q 2250 4219 1831 4219 
Q 1534 4219 1204 4116 
Q 875 4013 500 3803 
L 500 4441 
Q 881 4594 1212 4672 
Q 1544 4750 1819 4750 
Q 2544 4750 2975 4387 
Q 3406 4025 3406 3419 
Q 3406 3131 3298 2873 
Q 3191 2616 2906 2266 
Q 2828 2175 2409 1742 
Q 1991 1309 1228 531 
z
" transform="scale(0.015625)"/>
       </defs>
       <use xlink:href="#DejaVuSans-32"/>
       <use xlink:href="#DejaVuSans-30" x="63.623047"/>
       <use xlink:href="#DejaVuSans-30" x="127.246094"/>
       <use xlink:href="#DejaVuSans-30" x="190.869141"/>
      </g>
     </g>
    </g>
    <g id="xtick_4">
     <g id="line2d_4">
      <g>
       <use xlink:href="#mb5ee87e23f" x="653.92333" y="448.56" style="stroke: #000000; stroke-width: 0.8"/>
      </g>
     </g>
     <g id="text_4">
      <!-- 3000 -->
      <g transform="translate(641.19833 463.158437) scale(0.1 -0.1)">
       <defs>
        <path id="DejaVuSans-33" d="M 2597 2516 
Q 3050 2419 3304 2112 
Q 3559 1806 3559 1356 
Q 3559 666 3084 287 
Q 2609 -91 1734 -91 
Q 1441 -91 1130 -33 
Q 819 25 488 141 
L 488 750 
Q 750 597 1062 519 
Q 1375 441 1716 441 
Q 2309 441 2620 675 
Q 2931 909 2931 1356 
Q 2931 1769 2642 2001 
Q 2353 2234 1838 2234 
L 1294 2234 
L 1294 2753 
L 1863 2753 
Q 2328 2753 2575 2939 
Q 2822 3125 2822 3475 
Q 2822 3834 2567 4026 
Q 2313 4219 1838 4219 
Q 1578 4219 1281 4162 
Q 984 4106 628 3988 
L 628 4550 
Q 988 4650 1302 4700 
Q 1616 4750 1894 4750 
Q 2613 4750 3031 4423 
Q 3450 4097 3450 3541 
Q 3450 3153 3228 2886 
Q 3006 2619 2597 2516 
z
" transform="scale(0.015625)"/>
       </defs>
       <use xlink:href="#DejaVuSans-33"/>
       <use xlink:href="#DejaVuSans-30" x="63.623047"/>
       <use xlink:href="#DejaVuSans-30" x="127.246094"/>
       <use xlink:href="#DejaVuSans-30" x="190.869141"/>
      </g>
     </g>
    </g>
    <g id="xtick_5">
     <g id="line2d_5">
      <g>
       <use xlink:href="#mb5ee87e23f" x="814.215955" y="448.56" style="stroke: #000000; stroke-width: 0.8"/>
      </g>
     </g>
     <g id="text_5">
      <!-- 4000 -->
      <g transform="translate(801.490955 463.158437) scale(0.1 -0.1)">
       <defs>
        <path id="DejaVuSans-34" d="M 2419 4116 
L 825 1625 
L 2419 1625 
L 2419 4116 
z
M 2253 4666 
L 3047 4666 
L 3047 1625 
L 3713 1625 
L 3713 1100 
L 3047 1100 
L 3047 0 
L 2419 0 
L 2419 1100 
L 313 1100 
L 313 1709 
L 2253 4666 
z
" transform="scale(0.015625)"/>
       </defs>
       <use xlink:href="#DejaVuSans-34"/>
       <use xlink:href="#DejaVuSans-30" x="63.623047"/>
       <use xlink:href="#DejaVuSans-30" x="127.246094"/>
       <use xlink:href="#DejaVuSans-30" x="190.869141"/>
      </g>
     </g>
    </g>
    <g id="text_6">
     <!-- t -->
     <g transform="translate(551.539844 476.836563) scale(0.1 -0.1)">
      <defs>
       <path id="DejaVuSans-74" d="M 1172 4494 
L 1172 3500 
L 2356 3500 
L 2356 3053 
L 1172 3053 
L 1172 1153 
Q 1172 725 1289 603 
Q 1406 481 1766 481 
L 2356 481 
L 2356 0 
L 1766 0 
Q 1100 0 847 248 
Q 594 497 594 1153 
L 594 3053 
L 172 3053 
L 172 3500 
L 594 3500 
L 594 4494 
L 1172 4494 
z
" transform="scale(0.015625)"/>
      </defs>
      <use xlink:href="#DejaVuSans-74"/>
     </g>
    </g>
   </g>
   <g id="matplotlib.axis_2">
    <g id="ytick_1">
     <g id="line2d_6">
      <defs>
       <path id="m998bee16b6" d="M 0 0 
L -3.5 0 
" style="stroke: #000000; stroke-width: 0.8"/>
      </defs>
      <g>
       <use xlink:href="#m998bee16b6" x="135" y="412.197197" style="stroke: #000000; stroke-width: 0.8"/>
      </g>
     </g>
     <g id="text_7">
      <!-- −0.2 -->
      <g transform="translate(103.717187 415.996416) scale(0.1 -0.1)">
       <defs>
        <path id="DejaVuSans-2212" d="M 678 2272 
L 4684 2272 
L 4684 1741 
L 678 1741 
L 678 2272 
z
" transform="scale(0.015625)"/>
        <path id="DejaVuSans-2e" d="M 684 794 
L 1344 794 
L 1344 0 
L 684 0 
L 684 794 
z
" transform="scale(0.015625)"/>
       </defs>
       <use xlink:href="#DejaVuSans-2212"/>
       <use xlink:href="#DejaVuSans-30" x="83.789062"/>
       <use xlink:href="#DejaVuSans-2e" x="147.412109"/>
       <use xlink:href="#DejaVuSans-32" x="179.199219"/>
      </g>
     </g>
    </g>
    <g id="ytick_2">
     <g id="line2d_7">
      <g>
       <use xlink:href="#m998bee16b6" x="135" y="359.459745" style="stroke: #000000; stroke-width: 0.8"/>
      </g>
     </g>
     <g id="text_8">
      <!-- 0.0 -->
      <g transform="translate(112.096875 363.258964) scale(0.1 -0.1)">
       <use xlink:href="#DejaVuSans-30"/>
       <use xlink:href="#DejaVuSans-2e" x="63.623047"/>
       <use xlink:href="#DejaVuSans-30" x="95.410156"/>
      </g>
     </g>
    </g>
    <g id="ytick_3">
     <g id="line2d_8">
      <g>
       <use xlink:href="#m998bee16b6" x="135" y="306.722293" style="stroke: #000000; stroke-width: 0.8"/>
      </g>
     </g>
     <g id="text_9">
      <!-- 0.2 -->
      <g transform="translate(112.096875 310.521512) scale(0.1 -0.1)">
       <use xlink:href="#DejaVuSans-30"/>
       <use xlink:href="#DejaVuSans-2e" x="63.623047"/>
       <use xlink:href="#DejaVuSans-32" x="95.410156"/>
      </g>
     </g>
    </g>
    <g id="ytick_4">
     <g id="line2d_9">
      <g>
       <use xlink:href="#m998bee16b6" x="135" y="253.984841" style="stroke: #000000; stroke-width: 0.8"/>
      </g>
     </g>
     <g id="text_10">
      <!-- 0.4 -->
      <g transform="translate(112.096875 257.78406) scale(0.1 -0.1)">
       <use xlink:href="#DejaVuSans-30"/>
       <use xlink:href="#DejaVuSans-2e" x="63.623047"/>
       <use xlink:href="#DejaVuSans-34" x="95.410156"/>
      </g>
     </g>
    </g>
    <g id="ytick_5">
     <g id="line2d_10">
      <g>
       <use xlink:href="#m998bee16b6" x="135" y="201.247389" style="stroke: #000000; stroke-width: 0.8"/>
      </g>
     </g>
     <g id="text_11">
      <!-- 0.6 -->
      <g transform="translate(112.096875 205.046608) scale(0.1 -0.1)">
       <defs>
        <path id="DejaVuSans-36" d="M 2113 2584 
Q 1688 2584 1439 2293 
Q 1191 2003 1191 1497 
Q 1191 994 1439 701 
Q 1688 409 2113 409 
Q 2538 409 2786 701 
Q 3034 994 3034 1497 
Q 3034 2003 2786 2293 
Q 2538 2584 2113 2584 
z
M 3366 4563 
L 3366 3988 
Q 3128 4100 2886 4159 
Q 2644 4219 2406 4219 
Q 1781 4219 1451 3797 
Q 1122 3375 1075 2522 
Q 1259 2794 1537 2939 
Q 1816 3084 2150 3084 
Q 2853 3084 3261 2657 
Q 3669 2231 3669 1497 
Q 3669 778 3244 343 
Q 2819 -91 2113 -91 
Q 1303 -91 875 529 
Q 447 1150 447 2328 
Q 447 3434 972 4092 
Q 1497 4750 2381 4750 
Q 2619 4750 2861 4703 
Q 3103 4656 3366 4563 
z
" transform="scale(0.015625)"/>
       </defs>
       <use xlink:href="#DejaVuSans-30"/>
       <use xlink:href="#DejaVuSans-2e" x="63.623047"/>
       <use xlink:href="#DejaVuSans-36" x="95.410156"/>
      </g>
     </g>
    </g>
    <g id="ytick_6">
     <g id="line2d_11">
      <g>
       <use xlink:href="#m998bee16b6" x="135" y="148.509937" style="stroke: #000000; stroke-width: 0.8"/>
      </g>
     </g>
     <g id="text_12">
      <!-- 0.8 -->
      <g transform="translate(112.096875 152.309156) scale(0.1 -0.1)">
       <defs>
        <path id="DejaVuSans-38" d="M 2034 2216 
Q 1584 2216 1326 1975 
Q 1069 1734 1069 1313 
Q 1069 891 1326 650 
Q 1584 409 2034 409 
Q 2484 409 2743 651 
Q 3003 894 3003 1313 
Q 3003 1734 2745 1975 
Q 2488 2216 2034 2216 
z
M 1403 2484 
Q 997 2584 770 2862 
Q 544 3141 544 3541 
Q 544 4100 942 4425 
Q 1341 4750 2034 4750 
Q 2731 4750 3128 4425 
Q 3525 4100 3525 3541 
Q 3525 3141 3298 2862 
Q 3072 2584 2669 2484 
Q 3125 2378 3379 2068 
Q 3634 1759 3634 1313 
Q 3634 634 3220 271 
Q 2806 -91 2034 -91 
Q 1263 -91 848 271 
Q 434 634 434 1313 
Q 434 1759 690 2068 
Q 947 2378 1403 2484 
z
M 1172 3481 
Q 1172 3119 1398 2916 
Q 1625 2713 2034 2713 
Q 2441 2713 2670 2916 
Q 2900 3119 2900 3481 
Q 2900 3844 2670 4047 
Q 2441 4250 2034 4250 
Q 1625 4250 1398 4047 
Q 1172 3844 1172 3481 
z
" transform="scale(0.015625)"/>
       </defs>
       <use xlink:href="#DejaVuSans-30"/>
       <use xlink:href="#DejaVuSans-2e" x="63.623047"/>
       <use xlink:href="#DejaVuSans-38" x="95.410156"/>
      </g>
     </g>
    </g>
    <g id="ytick_7">
     <g id="line2d_12">
      <g>
       <use xlink:href="#m998bee16b6" x="135" y="95.772485" style="stroke: #000000; stroke-width: 0.8"/>
      </g>
     </g>
     <g id="text_13">
      <!-- 1.0 -->
      <g transform="translate(112.096875 99.571704) scale(0.1 -0.1)">
       <use xlink:href="#DejaVuSans-31"/>
       <use xlink:href="#DejaVuSans-2e" x="63.623047"/>
       <use xlink:href="#DejaVuSans-30" x="95.410156"/>
      </g>
     </g>
    </g>
   </g>
   <g id="line2d_13">
    <path d="M 173.045455 174.489253 
L 173.36604 83.360628 
L 173.526332 78.120009 
L 173.686625 79.280727 
L 174.00721 89.435979 
L 174.808673 122.733976 
L 175.129259 127.931837 
L 175.289551 128.2874 
L 175.449844 127.433452 
L 175.770429 123.315033 
L 176.4116 113.869565 
L 176.732185 112.181683 
L 176.892478 112.547445 
L 177.05277 113.778722 
L 177.373355 118.812457 
L 177.693941 126.981141 
L 178.014526 364.562108 
L 178.335111 427.201474 
L 178.495404 430.92 
L 178.655696 424.916856 
L 179.777745 349.729773 
L 179.938037 347.516563 
L 180.09833 347.285762 
L 180.258623 348.507888 
L 180.739501 356.233166 
L 181.220378 363.666838 
L 181.540964 366.636541 
L 181.861549 367.857279 
L 182.021842 367.885442 
L 182.182134 367.584492 
L 182.502719 366.18906 
L 182.983597 362.795546 
L 185.067401 346.503054 
L 185.708572 343.259022 
L 186.18945 341.647463 
L 186.670328 340.804912 
L 186.990913 340.674802 
L 187.311498 340.87411 
L 187.632083 341.374571 
L 188.112961 342.601635 
L 188.914424 345.502886 
L 190.837936 352.919909 
L 191.639399 355.143971 
L 192.440862 356.732141 
L 193.242325 357.792811 
L 194.043788 358.466531 
L 195.005544 358.939161 
L 196.127593 359.220616 
L 197.890811 359.39103 
L 201.577542 359.453238 
L 213.278903 359.45974 
L 213.599489 105.715417 
L 213.759781 83.360624 
L 213.920074 78.120006 
L 214.080367 79.280724 
L 214.400952 89.435977 
L 215.202415 122.733975 
L 215.523 127.931836 
L 215.683293 128.2874 
L 215.843585 127.433451 
L 216.164171 123.315032 
L 216.805341 113.869565 
L 217.125926 112.181683 
L 217.286219 112.547445 
L 217.446512 113.778722 
L 217.767097 118.812457 
L 218.087682 126.981141 
L 218.408267 364.562108 
L 218.728853 427.201474 
L 218.889145 430.92 
L 219.049438 424.916855 
L 220.171486 349.729773 
L 220.331779 347.516563 
L 220.492072 347.285762 
L 220.652364 348.507888 
L 221.133242 356.233166 
L 221.61412 363.666838 
L 221.934705 366.636541 
L 222.25529 367.857279 
L 222.415583 367.885442 
L 222.575876 367.584492 
L 222.896461 366.18906 
L 223.377339 362.795546 
L 225.461143 346.503054 
L 226.102313 343.259022 
L 226.583191 341.647463 
L 227.064069 340.804912 
L 227.384654 340.674802 
L 227.70524 340.87411 
L 228.025825 341.374571 
L 228.506703 342.601635 
L 229.308166 345.502886 
L 231.231677 352.919909 
L 232.033141 355.143971 
L 232.834604 356.732141 
L 233.636067 357.792811 
L 234.43753 358.466531 
L 235.399286 358.939161 
L 236.521334 359.220616 
L 238.284553 359.39103 
L 241.971283 359.453238 
L 253.99323 359.459741 
L 254.313815 105.715418 
L 254.474108 83.360625 
L 254.634401 78.120006 
L 254.794693 79.280725 
L 255.115279 89.435978 
L 255.916742 122.733976 
L 256.237327 127.931837 
L 256.39762 128.2874 
L 256.557912 127.433451 
L 256.878497 123.315032 
L 257.519668 113.869565 
L 257.840253 112.181683 
L 258.000546 112.547445 
L 258.160838 113.778722 
L 258.481424 118.812457 
L 258.802009 126.981141 
L 259.122594 364.562108 
L 259.443179 427.201474 
L 259.603472 430.92 
L 259.763765 424.916855 
L 260.885813 349.729773 
L 261.046106 347.516563 
L 261.206398 347.285762 
L 261.366691 348.507888 
L 261.847569 356.233166 
L 262.328447 363.666838 
L 262.649032 366.636541 
L 262.969617 367.857279 
L 263.12991 367.885442 
L 263.290202 367.584492 
L 263.610788 366.18906 
L 264.091666 362.795546 
L 266.17547 346.503054 
L 266.81664 343.259022 
L 267.297518 341.647463 
L 267.778396 340.804912 
L 268.098981 340.674802 
L 268.419566 340.87411 
L 268.740152 341.374571 
L 269.22103 342.601635 
L 270.022493 345.502886 
L 271.946004 352.919909 
L 272.747467 355.143971 
L 273.54893 356.732141 
L 274.350394 357.792811 
L 275.151857 358.466531 
L 276.113612 358.939161 
L 277.235661 359.220616 
L 278.99888 359.39103 
L 282.68561 359.453238 
L 293.585509 359.459736 
L 293.906094 105.715414 
L 294.066386 83.360622 
L 294.226679 78.120003 
L 294.386972 79.280722 
L 294.707557 89.435976 
L 295.50902 122.733975 
L 295.829605 127.931836 
L 295.989898 128.287399 
L 296.150191 127.433451 
L 296.470776 123.315032 
L 297.111946 113.869565 
L 297.432532 112.181683 
L 297.592824 112.547445 
L 297.753117 113.778722 
L 298.073702 118.812457 
L 298.394287 126.981141 
L 298.714873 364.562108 
L 299.035458 427.201474 
L 299.19575 430.92 
L 299.356043 424.916855 
L 300.478091 349.729773 
L 300.638384 347.516563 
L 300.798677 347.285762 
L 300.958969 348.507888 
L 301.439847 356.233166 
L 301.920725 363.666838 
L 302.24131 366.636541 
L 302.561896 367.857279 
L 302.722188 367.885442 
L 302.882481 367.584492 
L 303.203066 366.18906 
L 303.683944 362.795546 
L 305.767748 346.503054 
L 306.408919 343.259022 
L 306.889796 341.647463 
L 307.370674 340.804912 
L 307.69126 340.674802 
L 308.011845 340.87411 
L 308.33243 341.374571 
L 308.813308 342.601635 
L 309.614771 345.502886 
L 311.538283 352.919909 
L 312.339746 355.143971 
L 313.141209 356.732141 
L 313.942672 357.792811 
L 314.744135 358.466531 
L 315.705891 358.939161 
L 316.827939 359.220616 
L 318.591158 359.39103 
L 322.277888 359.453238 
L 333.818957 359.45974 
L 334.139543 105.715416 
L 334.299835 83.360624 
L 334.460128 78.120005 
L 334.620421 79.280724 
L 334.941006 89.435977 
L 335.742469 122.733975 
L 336.063054 127.931836 
L 336.223347 128.2874 
L 336.383639 127.433451 
L 336.704225 123.315032 
L 337.345395 113.869565 
L 337.66598 112.181683 
L 337.826273 112.547445 
L 337.986566 113.778722 
L 338.307151 118.812457 
L 338.627736 126.981141 
L 338.948321 364.562108 
L 339.268907 427.201474 
L 339.429199 430.92 
L 339.589492 424.916855 
L 340.71154 349.729773 
L 340.871833 347.516563 
L 341.032126 347.285762 
L 341.192418 348.507888 
L 341.673296 356.233166 
L 342.154174 363.666838 
L 342.474759 366.636541 
L 342.795344 367.857279 
L 342.955637 367.885442 
L 343.11593 367.584492 
L 343.436515 366.18906 
L 343.917393 362.795546 
L 346.001197 346.503054 
L 346.642367 343.259022 
L 347.123245 341.647463 
L 347.604123 340.804912 
L 347.924708 340.674802 
L 348.245294 340.87411 
L 348.565879 341.374571 
L 349.046757 342.601635 
L 349.84822 345.502886 
L 351.771731 352.919909 
L 352.573195 355.143971 
L 353.374658 356.732141 
L 354.176121 357.792811 
L 354.977584 358.466531 
L 355.93934 358.939161 
L 357.061388 359.220616 
L 358.824607 359.39103 
L 362.511337 359.453238 
L 373.090651 359.459734 
L 373.411236 105.715412 
L 373.571528 83.36062 
L 373.731821 78.120002 
L 373.892114 79.280721 
L 374.212699 89.435975 
L 375.014162 122.733974 
L 375.334747 127.931835 
L 375.49504 128.287399 
L 375.655333 127.433451 
L 375.975918 123.315032 
L 376.617088 113.869565 
L 376.937674 112.181683 
L 377.097966 112.547445 
L 377.258259 113.778722 
L 377.578844 118.812457 
L 377.899429 126.981141 
L 378.220015 364.562108 
L 378.5406 427.201474 
L 378.700892 430.92 
L 378.861185 424.916855 
L 379.983233 349.729773 
L 380.143526 347.516563 
L 380.303819 347.285762 
L 380.464111 348.507888 
L 380.944989 356.233166 
L 381.425867 363.666838 
L 381.746452 366.636541 
L 382.067038 367.857279 
L 382.22733 367.885442 
L 382.387623 367.584492 
L 382.708208 366.18906 
L 383.189086 362.795546 
L 385.27289 346.503054 
L 385.914061 343.259022 
L 386.394938 341.647463 
L 386.875816 340.804912 
L 387.196402 340.674802 
L 387.516987 340.87411 
L 387.837572 341.374571 
L 388.31845 342.601635 
L 389.119913 345.502886 
L 391.043425 352.919909 
L 391.844888 355.143971 
L 392.646351 356.732141 
L 393.447814 357.792811 
L 394.249277 358.466531 
L 395.211033 358.939161 
L 396.333081 359.220616 
L 398.0963 359.39103 
L 401.78303 359.453238 
L 413.644685 359.459741 
L 413.96527 105.715417 
L 414.125563 83.360625 
L 414.285855 78.120006 
L 414.446148 79.280725 
L 414.766733 89.435977 
L 415.568196 122.733975 
L 415.888781 127.931837 
L 416.049074 128.2874 
L 416.209367 127.433451 
L 416.529952 123.315032 
L 417.171122 113.869565 
L 417.491708 112.181683 
L 417.652 112.547445 
L 417.812293 113.778722 
L 418.132878 118.812457 
L 418.453463 126.981141 
L 418.774049 364.562108 
L 419.094634 427.201474 
L 419.254927 430.92 
L 419.415219 424.916855 
L 420.537268 349.729773 
L 420.69756 347.516563 
L 420.857853 347.285762 
L 421.018145 348.507888 
L 421.499023 356.233166 
L 421.979901 363.666838 
L 422.300486 366.636541 
L 422.621072 367.857279 
L 422.781364 367.885442 
L 422.941657 367.584492 
L 423.262242 366.18906 
L 423.74312 362.795546 
L 425.826924 346.503054 
L 426.468095 343.259022 
L 426.948973 341.647463 
L 427.42985 340.804912 
L 427.750436 340.674802 
L 428.071021 340.87411 
L 428.391606 341.374571 
L 428.872484 342.601635 
L 429.673947 345.502886 
L 431.597459 352.919909 
L 432.398922 355.143971 
L 433.200385 356.732141 
L 434.001848 357.792811 
L 434.803311 358.466531 
L 435.765067 358.939161 
L 436.887115 359.220616 
L 438.650334 359.39103 
L 442.337065 359.453238 
L 453.557548 359.459738 
L 453.878134 105.715415 
L 454.038426 83.360623 
L 454.198719 78.120005 
L 454.359011 79.280723 
L 454.679597 89.435976 
L 455.48106 122.733975 
L 455.801645 127.931836 
L 455.961938 128.287399 
L 456.12223 127.433451 
L 456.442816 123.315032 
L 457.083986 113.869565 
L 457.404571 112.181683 
L 457.564864 112.547445 
L 457.725157 113.778722 
L 458.045742 118.812457 
L 458.366327 126.981141 
L 458.686912 364.562108 
L 459.007498 427.201474 
L 459.16779 430.92 
L 459.328083 424.916855 
L 460.450131 349.729773 
L 460.610424 347.516563 
L 460.770716 347.285762 
L 460.931009 348.507888 
L 461.411887 356.233166 
L 461.892765 363.666838 
L 462.21335 366.636541 
L 462.533935 367.857279 
L 462.694228 367.885442 
L 462.854521 367.584492 
L 463.175106 366.18906 
L 463.655984 362.795546 
L 465.739788 346.503054 
L 466.380958 343.259022 
L 466.861836 341.647463 
L 467.342714 340.804912 
L 467.663299 340.674802 
L 467.983885 340.87411 
L 468.30447 341.374571 
L 468.785348 342.601635 
L 469.586811 345.502886 
L 471.510322 352.919909 
L 472.311785 355.143971 
L 473.113249 356.732141 
L 473.914712 357.792811 
L 474.716175 358.466531 
L 475.677931 358.939161 
L 476.799979 359.220616 
L 478.563198 359.39103 
L 482.249928 359.453238 
L 493.630705 359.459739 
L 493.95129 105.715416 
L 494.111582 83.360624 
L 494.271875 78.120005 
L 494.432168 79.280724 
L 494.752753 89.435977 
L 495.554216 122.733975 
L 495.874801 127.931836 
L 496.035094 128.287399 
L 496.195387 127.433451 
L 496.515972 123.315032 
L 497.157142 113.869565 
L 497.477728 112.181683 
L 497.63802 112.547445 
L 497.798313 113.778722 
L 498.118898 118.812457 
L 498.439483 126.981141 
L 498.760069 364.562108 
L 499.080654 427.201474 
L 499.240946 430.92 
L 499.401239 424.916855 
L 500.523287 349.729773 
L 500.68358 347.516563 
L 500.843873 347.285762 
L 501.004165 348.507888 
L 501.485043 356.233166 
L 501.965921 363.666838 
L 502.286506 366.636541 
L 502.607092 367.857279 
L 502.767384 367.885442 
L 502.927677 367.584492 
L 503.248262 366.18906 
L 503.72914 362.795546 
L 505.812944 346.503054 
L 506.454115 343.259022 
L 506.934992 341.647463 
L 507.41587 340.804912 
L 507.736456 340.674802 
L 508.057041 340.87411 
L 508.377626 341.374571 
L 508.858504 342.601635 
L 509.659967 345.502886 
L 511.583479 352.919909 
L 512.384942 355.143971 
L 513.186405 356.732141 
L 513.987868 357.792811 
L 514.789331 358.466531 
L 515.751087 358.939161 
L 516.873135 359.220616 
L 518.636354 359.39103 
L 522.323084 359.453238 
L 533.864153 359.45974 
L 534.184739 105.715416 
L 534.345031 83.360624 
L 534.505324 78.120005 
L 534.665617 79.280724 
L 534.986202 89.435977 
L 535.787665 122.733975 
L 536.10825 127.931836 
L 536.268543 128.2874 
L 536.428835 127.433451 
L 536.749421 123.315032 
L 537.390591 113.869565 
L 537.711176 112.181683 
L 537.871469 112.547445 
L 538.031762 113.778722 
L 538.352347 118.812457 
L 538.672932 126.981141 
L 538.993517 364.562108 
L 539.314103 427.201474 
L 539.474395 430.92 
L 539.634688 424.916855 
L 540.756736 349.729773 
L 540.917029 347.516563 
L 541.077322 347.285762 
L 541.237614 348.507888 
L 541.718492 356.233166 
L 542.19937 363.666838 
L 542.519955 366.636541 
L 542.84054 367.857279 
L 543.000833 367.885442 
L 543.161126 367.584492 
L 543.481711 366.18906 
L 543.962589 362.795546 
L 546.046393 346.503054 
L 546.687563 343.259022 
L 547.168441 341.647463 
L 547.649319 340.804912 
L 547.969904 340.674802 
L 548.29049 340.87411 
L 548.611075 341.374571 
L 549.091953 342.601635 
L 549.893416 345.502886 
L 551.816927 352.919909 
L 552.618391 355.143971 
L 553.419854 356.732141 
L 554.221317 357.792811 
L 555.02278 358.466531 
L 555.984536 358.939161 
L 557.106584 359.220616 
L 558.869803 359.39103 
L 562.556533 359.453238 
L 574.257895 359.45974 
L 574.57848 105.715417 
L 574.738773 83.360624 
L 574.899065 78.120006 
L 575.059358 79.280724 
L 575.379943 89.435977 
L 576.181406 122.733975 
L 576.501992 127.931836 
L 576.662284 128.2874 
L 576.822577 127.433451 
L 577.143162 123.315032 
L 577.784333 113.869565 
L 578.104918 112.181683 
L 578.265211 112.547445 
L 578.425503 113.778722 
L 578.746088 118.812457 
L 579.066674 126.981141 
L 579.387259 364.562108 
L 579.707844 427.201474 
L 579.868137 430.92 
L 580.028429 424.916855 
L 581.150478 349.729773 
L 581.31077 347.516563 
L 581.471063 347.285762 
L 581.631356 348.507888 
L 582.112234 356.233166 
L 582.593111 363.666838 
L 582.913697 366.636541 
L 583.234282 367.857279 
L 583.394575 367.885442 
L 583.554867 367.584492 
L 583.875452 366.18906 
L 584.35633 362.795546 
L 586.440134 346.503054 
L 587.081305 343.259022 
L 587.562183 341.647463 
L 588.043061 340.804912 
L 588.363646 340.674802 
L 588.684231 340.87411 
L 589.004816 341.374571 
L 589.485694 342.601635 
L 590.287157 345.502886 
L 592.210669 352.919909 
L 593.012132 355.143971 
L 593.813595 356.732141 
L 594.615058 357.792811 
L 595.416521 358.466531 
L 596.378277 358.939161 
L 597.500326 359.220616 
L 599.263544 359.39103 
L 602.950275 359.453238 
L 613.209003 359.45973 
L 613.529588 105.715409 
L 613.689881 83.360618 
L 613.850173 78.12 
L 614.010466 79.280719 
L 614.331051 89.435973 
L 615.132514 122.733973 
L 615.4531 127.931835 
L 615.613392 128.287398 
L 615.773685 127.43345 
L 616.09427 123.315031 
L 616.735441 113.869564 
L 617.056026 112.181683 
L 617.216318 112.547445 
L 617.376611 113.778722 
L 617.697196 118.812457 
L 618.017782 126.981141 
L 618.338367 364.562108 
L 618.658952 427.201474 
L 618.819245 430.92 
L 618.979537 424.916855 
L 620.101586 349.729773 
L 620.261878 347.516563 
L 620.422171 347.285762 
L 620.582464 348.507888 
L 621.063341 356.233166 
L 621.544219 363.666838 
L 621.864805 366.636541 
L 622.18539 367.857279 
L 622.345682 367.885442 
L 622.505975 367.584492 
L 622.82656 366.18906 
L 623.307438 362.795546 
L 625.391242 346.503054 
L 626.032413 343.259022 
L 626.513291 341.647463 
L 626.994169 340.804912 
L 627.314754 340.674802 
L 627.635339 340.87411 
L 627.955924 341.374571 
L 628.436802 342.601635 
L 629.238265 345.502886 
L 631.161777 352.919909 
L 631.96324 355.143971 
L 632.764703 356.732141 
L 633.566166 357.792811 
L 634.367629 358.466531 
L 635.329385 358.939161 
L 636.451433 359.220616 
L 638.214652 359.39103 
L 641.901383 359.453238 
L 653.92333 359.459741 
L 654.243915 105.715418 
L 654.404207 83.360625 
L 654.5645 78.120006 
L 654.724793 79.280725 
L 655.045378 89.435978 
L 655.846841 122.733976 
L 656.167426 127.931837 
L 656.327719 128.2874 
L 656.488012 127.433451 
L 656.808597 123.315032 
L 657.449767 113.869565 
L 657.770353 112.181683 
L 657.930645 112.547445 
L 658.090938 113.778722 
L 658.411523 118.812457 
L 658.732108 126.981141 
L 659.052694 364.562108 
L 659.373279 427.201474 
L 659.533571 430.92 
L 659.693864 424.916855 
L 660.815912 349.729773 
L 660.976205 347.516563 
L 661.136498 347.285762 
L 661.29679 348.507888 
L 661.777668 356.233166 
L 662.258546 363.666838 
L 662.579131 366.636541 
L 662.899717 367.857279 
L 663.060009 367.885442 
L 663.220302 367.584492 
L 663.540887 366.18906 
L 664.021765 362.795546 
L 666.105569 346.503054 
L 666.74674 343.259022 
L 667.227617 341.647463 
L 667.708495 340.804912 
L 668.029081 340.674802 
L 668.349666 340.87411 
L 668.670251 341.374571 
L 669.151129 342.601635 
L 669.952592 345.502886 
L 671.876104 352.919909 
L 672.677567 355.143971 
L 673.47903 356.732141 
L 674.280493 357.792811 
L 675.081956 358.466531 
L 676.043712 358.939161 
L 677.16576 359.220616 
L 678.928979 359.39103 
L 682.615709 359.453238 
L 694.156778 359.45974 
L 694.477364 105.715416 
L 694.637656 83.360624 
L 694.797949 78.120005 
L 694.958242 79.280724 
L 695.278827 89.435977 
L 696.08029 122.733975 
L 696.400875 127.931836 
L 696.561168 128.2874 
L 696.72146 127.433451 
L 697.042046 123.315032 
L 697.683216 113.869565 
L 698.003801 112.181683 
L 698.164094 112.547445 
L 698.324387 113.778722 
L 698.644972 118.812457 
L 698.965557 126.981141 
L 699.286142 364.562108 
L 699.606728 427.201474 
L 699.76702 430.92 
L 699.927313 424.916855 
L 701.049361 349.729773 
L 701.209654 347.516563 
L 701.369947 347.285762 
L 701.530239 348.507888 
L 702.011117 356.233166 
L 702.491995 363.666838 
L 702.81258 366.636541 
L 703.133165 367.857279 
L 703.293458 367.885442 
L 703.453751 367.584492 
L 703.774336 366.18906 
L 704.255214 362.795546 
L 706.339018 346.503054 
L 706.980188 343.259022 
L 707.461066 341.647463 
L 707.941944 340.804912 
L 708.262529 340.674802 
L 708.583115 340.87411 
L 708.9037 341.374571 
L 709.384578 342.601635 
L 710.186041 345.502886 
L 712.109552 352.919909 
L 712.911016 355.143971 
L 713.712479 356.732141 
L 714.513942 357.792811 
L 715.315405 358.466531 
L 716.277161 358.939161 
L 717.399209 359.220616 
L 719.162428 359.39103 
L 722.849158 359.453238 
L 734.069642 359.459738 
L 734.390227 105.715415 
L 734.55052 83.360623 
L 734.710813 78.120005 
L 734.871105 79.280723 
L 735.19169 89.435976 
L 735.993154 122.733975 
L 736.313739 127.931836 
L 736.474031 128.287399 
L 736.634324 127.433451 
L 736.954909 123.315032 
L 737.59608 113.869565 
L 737.916665 112.181683 
L 738.076958 112.547445 
L 738.23725 113.778722 
L 738.557836 118.812457 
L 738.878421 126.981141 
L 739.199006 364.562108 
L 739.519591 427.201474 
L 739.679884 430.92 
L 739.840177 424.916855 
L 740.962225 349.729773 
L 741.122518 347.516563 
L 741.28281 347.285762 
L 741.443103 348.507888 
L 741.923981 356.233166 
L 742.404859 363.666838 
L 742.725444 366.636541 
L 743.046029 367.857279 
L 743.206322 367.885442 
L 743.366614 367.584492 
L 743.6872 366.18906 
L 744.168077 362.795546 
L 746.251882 346.503054 
L 746.893052 343.259022 
L 747.37393 341.647463 
L 747.854808 340.804912 
L 748.175393 340.674802 
L 748.495978 340.87411 
L 748.816564 341.374571 
L 749.297441 342.601635 
L 750.098905 345.502886 
L 752.022416 352.919909 
L 752.823879 355.143971 
L 753.625342 356.732141 
L 754.426805 357.792811 
L 755.228269 358.466531 
L 756.190024 358.939161 
L 757.312073 359.220616 
L 759.075292 359.39103 
L 762.762022 359.453238 
L 773.822213 359.459737 
L 774.142798 105.715414 
L 774.303091 83.360622 
L 774.463384 78.120004 
L 774.623676 79.280723 
L 774.944261 89.435976 
L 775.745725 122.733975 
L 776.06631 127.931836 
L 776.226602 128.287399 
L 776.386895 127.433451 
L 776.70748 123.315032 
L 777.348651 113.869565 
L 777.669236 112.181683 
L 777.829529 112.547445 
L 777.989821 113.778722 
L 778.310407 118.812457 
L 778.630992 126.981141 
L 778.951577 364.562108 
L 779.272162 427.201474 
L 779.432455 430.92 
L 779.592748 424.916855 
L 780.714796 349.729773 
L 780.875089 347.516563 
L 781.035381 347.285762 
L 781.195674 348.507888 
L 781.676552 356.233166 
L 782.15743 363.666838 
L 782.478015 366.636541 
L 782.7986 367.857279 
L 782.958893 367.885442 
L 783.119185 367.584492 
L 783.439771 366.18906 
L 783.920648 362.795546 
L 786.004453 346.503054 
L 786.645623 343.259022 
L 787.126501 341.647463 
L 787.607379 340.804912 
L 787.927964 340.674802 
L 788.248549 340.87411 
L 788.569135 341.374571 
L 789.050012 342.601635 
L 789.851476 345.502886 
L 791.774987 352.919909 
L 792.57645 355.143971 
L 793.377913 356.732141 
L 794.179376 357.792811 
L 794.98084 358.466531 
L 795.942595 358.939161 
L 797.064644 359.220616 
L 798.827863 359.39103 
L 802.514593 359.453238 
L 813.414491 359.459736 
L 813.735077 105.715414 
L 813.895369 83.360622 
L 814.055662 78.120003 
L 814.215955 79.280722 
L 814.53654 89.435976 
L 815.338003 122.733975 
L 815.658588 127.931836 
L 815.818881 128.287399 
L 815.979173 127.433451 
L 816.299759 123.315032 
L 816.940929 113.869565 
L 817.261514 112.181683 
L 817.421807 112.547445 
L 817.5821 113.778722 
L 817.902685 118.812457 
L 818.22327 126.981141 
L 818.543855 364.562108 
L 818.864441 427.201474 
L 819.024733 430.92 
L 819.185026 424.916855 
L 820.307074 349.729773 
L 820.467367 347.516563 
L 820.62766 347.285762 
L 820.787952 348.507888 
L 821.26883 356.233166 
L 821.749708 363.666838 
L 822.070293 366.636541 
L 822.390878 367.857279 
L 822.551171 367.885442 
L 822.711464 367.584492 
L 823.032049 366.18906 
L 823.512927 362.795546 
L 825.596731 346.503054 
L 826.237901 343.259022 
L 826.718779 341.647463 
L 827.199657 340.804912 
L 827.520242 340.674802 
L 827.840828 340.87411 
L 828.161413 341.374571 
L 828.642291 342.601635 
L 829.443754 345.502886 
L 831.367265 352.919909 
L 832.168729 355.143971 
L 832.970192 356.732141 
L 833.771655 357.792811 
L 834.573118 358.466531 
L 835.534874 358.939161 
L 836.656922 359.220616 
L 838.420141 359.39103 
L 842.106871 359.453238 
L 854.609696 359.459743 
L 854.930281 105.715419 
L 855.090574 83.360626 
L 855.250867 78.120007 
L 855.411159 79.280726 
L 855.731744 89.435978 
L 856.533208 122.733976 
L 856.853793 127.931837 
L 857.014085 128.2874 
L 857.174378 127.433452 
L 857.494963 123.315033 
L 858.136134 113.869565 
L 858.456719 112.181683 
L 858.617012 112.547445 
L 858.777304 113.778722 
L 859.09789 118.812457 
L 859.418475 126.981141 
L 859.73906 364.562108 
L 860.059645 427.201474 
L 860.219938 430.92 
L 860.380231 424.916855 
L 861.502279 349.729773 
L 861.662572 347.516563 
L 861.822864 347.285762 
L 861.983157 348.507888 
L 862.464035 356.233166 
L 862.944913 363.666838 
L 863.265498 366.636541 
L 863.586083 367.857279 
L 863.746376 367.885442 
L 863.906668 367.584492 
L 864.227254 366.18906 
L 864.708131 362.795546 
L 866.791936 346.503054 
L 867.433106 343.259022 
L 867.913984 341.647463 
L 868.394862 340.804912 
L 868.715447 340.674802 
L 869.036032 340.87411 
L 869.356618 341.374571 
L 869.837495 342.601635 
L 870.638959 345.502886 
L 872.56247 352.919909 
L 873.363933 355.143971 
L 874.165396 356.732141 
L 874.966859 357.792811 
L 875.768323 358.466531 
L 876.730078 358.939161 
L 877.852127 359.220616 
L 879.615346 359.39103 
L 883.302076 359.453238 
L 894.362267 359.459737 
L 894.682852 105.715414 
L 894.843145 83.360622 
L 895.003438 78.120004 
L 895.16373 79.280723 
L 895.484315 89.435976 
L 896.285779 122.733975 
L 896.606364 127.931836 
L 896.766656 128.287399 
L 896.926949 127.433451 
L 897.247534 123.315032 
L 897.888705 113.869565 
L 898.20929 112.181683 
L 898.369583 112.547445 
L 898.529875 113.778722 
L 898.850461 118.812457 
L 899.171046 126.981141 
L 899.491631 364.562108 
L 899.812216 427.201474 
L 899.972509 430.92 
L 900.132802 424.916855 
L 901.25485 349.729773 
L 901.415143 347.516563 
L 901.575435 347.285762 
L 901.735728 348.507888 
L 902.216606 356.233166 
L 902.697484 363.666838 
L 903.018069 366.636541 
L 903.338654 367.857279 
L 903.498947 367.885442 
L 903.659239 367.584492 
L 903.979825 366.18906 
L 904.460702 362.795546 
L 906.544507 346.503054 
L 907.185677 343.259022 
L 907.666555 341.647463 
L 908.147433 340.804912 
L 908.468018 340.674802 
L 908.788603 340.87411 
L 909.109189 341.374571 
L 909.590066 342.601635 
L 910.39153 345.502886 
L 912.315041 352.919909 
L 913.116504 355.143971 
L 913.917967 356.732141 
L 914.71943 357.792811 
L 915.520894 358.466531 
L 916.482649 358.939161 
L 917.604698 359.220616 
L 919.367917 359.39103 
L 923.054647 359.453238 
L 933.794253 359.459735 
L 933.954545 174.489244 
L 933.954545 174.489244 
" clip-path="url(#p99545cd048)" style="fill: none; stroke: #1f77b4; stroke-width: 1.5; stroke-linecap: square"/>
   </g>
   <g id="line2d_14">
    <path d="M 173.045455 95.772485 
L 177.693941 95.772485 
L 177.854233 359.459745 
L 213.278903 359.459745 
L 213.439196 95.772485 
L 218.087682 95.772485 
L 218.247975 359.459745 
L 253.99323 359.459745 
L 254.153523 95.772485 
L 258.802009 95.772485 
L 258.962302 359.459745 
L 293.585509 359.459745 
L 293.745801 95.772485 
L 298.394287 95.772485 
L 298.55458 359.459745 
L 333.818957 359.459745 
L 333.97925 95.772485 
L 338.627736 95.772485 
L 338.788029 359.459745 
L 373.090651 359.459745 
L 373.250943 95.772485 
L 377.899429 95.772485 
L 378.059722 359.459745 
L 413.644685 359.459745 
L 413.804977 95.772485 
L 418.453463 95.772485 
L 418.613756 359.459745 
L 453.557548 359.459745 
L 453.717841 95.772485 
L 458.366327 95.772485 
L 458.52662 359.459745 
L 493.630705 359.459745 
L 493.790997 95.772485 
L 498.439483 95.772485 
L 498.599776 359.459745 
L 533.864153 359.459745 
L 534.024446 95.772485 
L 538.672932 95.772485 
L 538.833225 359.459745 
L 574.257895 359.459745 
L 574.418188 95.772485 
L 579.066674 95.772485 
L 579.226966 359.459745 
L 613.209003 359.459745 
L 613.369295 95.772485 
L 618.017782 95.772485 
L 618.178074 359.459745 
L 653.92333 359.459745 
L 654.083622 95.772485 
L 658.732108 95.772485 
L 658.892401 359.459745 
L 694.156778 359.459745 
L 694.317071 95.772485 
L 698.965557 95.772485 
L 699.12585 359.459745 
L 734.069642 359.459745 
L 734.229935 95.772485 
L 738.878421 95.772485 
L 739.038713 359.459745 
L 773.822213 359.459745 
L 773.982506 95.772485 
L 778.630992 95.772485 
L 778.791284 359.459745 
L 813.414491 359.459745 
L 813.574784 95.772485 
L 818.22327 95.772485 
L 818.383563 359.459745 
L 854.609696 359.459745 
L 854.769989 95.772485 
L 859.418475 95.772485 
L 859.578767 359.459745 
L 894.362267 359.459745 
L 894.52256 95.772485 
L 899.171046 95.772485 
L 899.331338 359.459745 
L 933.794253 359.459745 
L 933.954545 95.772485 
L 933.954545 95.772485 
" clip-path="url(#p99545cd048)" style="fill: none; stroke: #ff7f0e; stroke-width: 1.5; stroke-linecap: square"/>
   </g>
   <g id="line2d_15">
    <path d="M 929.466352 359.459745 
" clip-path="url(#p99545cd048)" style="fill: none; stroke: #000000; stroke-width: 1.5; stroke-linecap: square"/>
    <defs>
     <path id="m5685979c13" d="M 0 1 
C 0.265203 1 0.51958 0.894634 0.707107 0.707107 
C 0.894634 0.51958 1 0.265203 1 0 
C 1 -0.265203 0.894634 -0.51958 0.707107 -0.707107 
C 0.51958 -0.894634 0.265203 -1 0 -1 
C -0.265203 -1 -0.51958 -0.894634 -0.707107 -0.707107 
C -0.894634 -0.51958 -1 -0.265203 -1 0 
C -1 0.265203 -0.894634 0.51958 -0.707107 0.707107 
C -0.51958 0.894634 -0.265203 1 0 1 
z
" style="stroke: #000000"/>
    </defs>
    <g clip-path="url(#p99545cd048)">
     <use xlink:href="#m5685979c13" x="173.045455" y="95.772485" style="stroke: #000000"/>
     <use xlink:href="#m5685979c13" x="178.174819" y="359.459745" style="stroke: #000000"/>
     <use xlink:href="#m5685979c13" x="183.14389" y="359.459745" style="stroke: #000000"/>
     <use xlink:href="#m5685979c13" x="188.112961" y="95.772485" style="stroke: #000000"/>
     <use xlink:href="#m5685979c13" x="193.082033" y="359.459745" style="stroke: #000000"/>
     <use xlink:href="#m5685979c13" x="198.211397" y="359.459745" style="stroke: #000000"/>
     <use xlink:href="#m5685979c13" x="203.180468" y="95.772485" style="stroke: #000000"/>
     <use xlink:href="#m5685979c13" x="208.149539" y="359.459745" style="stroke: #000000"/>
     <use xlink:href="#m5685979c13" x="213.118611" y="95.772485" style="stroke: #000000"/>
     <use xlink:href="#m5685979c13" x="218.247975" y="359.459745" style="stroke: #000000"/>
     <use xlink:href="#m5685979c13" x="223.217046" y="359.459745" style="stroke: #000000"/>
     <use xlink:href="#m5685979c13" x="228.186118" y="95.772485" style="stroke: #000000"/>
     <use xlink:href="#m5685979c13" x="233.155189" y="359.459745" style="stroke: #000000"/>
     <use xlink:href="#m5685979c13" x="238.284553" y="359.459745" style="stroke: #000000"/>
     <use xlink:href="#m5685979c13" x="243.253624" y="95.772485" style="stroke: #000000"/>
     <use xlink:href="#m5685979c13" x="248.222696" y="359.459745" style="stroke: #000000"/>
     <use xlink:href="#m5685979c13" x="253.191767" y="95.772485" style="stroke: #000000"/>
     <use xlink:href="#m5685979c13" x="258.321131" y="359.459745" style="stroke: #000000"/>
     <use xlink:href="#m5685979c13" x="263.290202" y="359.459745" style="stroke: #000000"/>
     <use xlink:href="#m5685979c13" x="268.259274" y="95.772485" style="stroke: #000000"/>
     <use xlink:href="#m5685979c13" x="273.228345" y="359.459745" style="stroke: #000000"/>
     <use xlink:href="#m5685979c13" x="278.357709" y="359.459745" style="stroke: #000000"/>
     <use xlink:href="#m5685979c13" x="283.326781" y="95.772485" style="stroke: #000000"/>
     <use xlink:href="#m5685979c13" x="288.295852" y="359.459745" style="stroke: #000000"/>
     <use xlink:href="#m5685979c13" x="293.264923" y="95.772485" style="stroke: #000000"/>
     <use xlink:href="#m5685979c13" x="298.394287" y="359.459745" style="stroke: #000000"/>
     <use xlink:href="#m5685979c13" x="303.363359" y="359.459745" style="stroke: #000000"/>
     <use xlink:href="#m5685979c13" x="308.33243" y="95.772485" style="stroke: #000000"/>
     <use xlink:href="#m5685979c13" x="313.301501" y="359.459745" style="stroke: #000000"/>
     <use xlink:href="#m5685979c13" x="318.430865" y="359.459745" style="stroke: #000000"/>
     <use xlink:href="#m5685979c13" x="323.399937" y="95.772485" style="stroke: #000000"/>
     <use xlink:href="#m5685979c13" x="328.369008" y="359.459745" style="stroke: #000000"/>
     <use xlink:href="#m5685979c13" x="333.33808" y="95.772485" style="stroke: #000000"/>
     <use xlink:href="#m5685979c13" x="338.467444" y="359.459745" style="stroke: #000000"/>
     <use xlink:href="#m5685979c13" x="343.436515" y="359.459745" style="stroke: #000000"/>
     <use xlink:href="#m5685979c13" x="348.405586" y="95.772485" style="stroke: #000000"/>
     <use xlink:href="#m5685979c13" x="353.374658" y="359.459745" style="stroke: #000000"/>
     <use xlink:href="#m5685979c13" x="358.504022" y="359.459745" style="stroke: #000000"/>
     <use xlink:href="#m5685979c13" x="363.473093" y="95.772485" style="stroke: #000000"/>
     <use xlink:href="#m5685979c13" x="368.442164" y="359.459745" style="stroke: #000000"/>
     <use xlink:href="#m5685979c13" x="373.411236" y="95.772485" style="stroke: #000000"/>
     <use xlink:href="#m5685979c13" x="378.5406" y="359.459745" style="stroke: #000000"/>
     <use xlink:href="#m5685979c13" x="383.509671" y="359.459745" style="stroke: #000000"/>
     <use xlink:href="#m5685979c13" x="388.478743" y="95.772485" style="stroke: #000000"/>
     <use xlink:href="#m5685979c13" x="393.447814" y="359.459745" style="stroke: #000000"/>
     <use xlink:href="#m5685979c13" x="398.577178" y="359.459745" style="stroke: #000000"/>
     <use xlink:href="#m5685979c13" x="403.546249" y="95.772485" style="stroke: #000000"/>
     <use xlink:href="#m5685979c13" x="408.515321" y="359.459745" style="stroke: #000000"/>
     <use xlink:href="#m5685979c13" x="413.484392" y="95.772485" style="stroke: #000000"/>
     <use xlink:href="#m5685979c13" x="418.613756" y="359.459745" style="stroke: #000000"/>
     <use xlink:href="#m5685979c13" x="423.582827" y="359.459745" style="stroke: #000000"/>
     <use xlink:href="#m5685979c13" x="428.551899" y="95.772485" style="stroke: #000000"/>
     <use xlink:href="#m5685979c13" x="433.52097" y="359.459745" style="stroke: #000000"/>
     <use xlink:href="#m5685979c13" x="438.650334" y="359.459745" style="stroke: #000000"/>
     <use xlink:href="#m5685979c13" x="443.619406" y="95.772485" style="stroke: #000000"/>
     <use xlink:href="#m5685979c13" x="448.588477" y="359.459745" style="stroke: #000000"/>
     <use xlink:href="#m5685979c13" x="453.557548" y="95.772485" style="stroke: #000000"/>
     <use xlink:href="#m5685979c13" x="458.686912" y="359.459745" style="stroke: #000000"/>
     <use xlink:href="#m5685979c13" x="463.655984" y="359.459745" style="stroke: #000000"/>
     <use xlink:href="#m5685979c13" x="468.625055" y="95.772485" style="stroke: #000000"/>
     <use xlink:href="#m5685979c13" x="473.594126" y="359.459745" style="stroke: #000000"/>
     <use xlink:href="#m5685979c13" x="478.72349" y="359.459745" style="stroke: #000000"/>
     <use xlink:href="#m5685979c13" x="483.692562" y="95.772485" style="stroke: #000000"/>
     <use xlink:href="#m5685979c13" x="488.661633" y="359.459745" style="stroke: #000000"/>
     <use xlink:href="#m5685979c13" x="493.630705" y="95.772485" style="stroke: #000000"/>
     <use xlink:href="#m5685979c13" x="498.760069" y="359.459745" style="stroke: #000000"/>
     <use xlink:href="#m5685979c13" x="503.72914" y="359.459745" style="stroke: #000000"/>
     <use xlink:href="#m5685979c13" x="508.698211" y="95.772485" style="stroke: #000000"/>
     <use xlink:href="#m5685979c13" x="513.667283" y="359.459745" style="stroke: #000000"/>
     <use xlink:href="#m5685979c13" x="518.796647" y="359.459745" style="stroke: #000000"/>
     <use xlink:href="#m5685979c13" x="523.765718" y="95.772485" style="stroke: #000000"/>
     <use xlink:href="#m5685979c13" x="528.734789" y="359.459745" style="stroke: #000000"/>
     <use xlink:href="#m5685979c13" x="533.703861" y="95.772485" style="stroke: #000000"/>
     <use xlink:href="#m5685979c13" x="538.833225" y="359.459745" style="stroke: #000000"/>
     <use xlink:href="#m5685979c13" x="543.802296" y="359.459745" style="stroke: #000000"/>
     <use xlink:href="#m5685979c13" x="548.771368" y="95.772485" style="stroke: #000000"/>
     <use xlink:href="#m5685979c13" x="553.740439" y="359.459745" style="stroke: #000000"/>
     <use xlink:href="#m5685979c13" x="558.869803" y="359.459745" style="stroke: #000000"/>
     <use xlink:href="#m5685979c13" x="563.838874" y="95.772485" style="stroke: #000000"/>
     <use xlink:href="#m5685979c13" x="568.807946" y="359.459745" style="stroke: #000000"/>
     <use xlink:href="#m5685979c13" x="573.777017" y="95.772485" style="stroke: #000000"/>
     <use xlink:href="#m5685979c13" x="578.906381" y="359.459745" style="stroke: #000000"/>
     <use xlink:href="#m5685979c13" x="583.875452" y="359.459745" style="stroke: #000000"/>
     <use xlink:href="#m5685979c13" x="588.844524" y="95.772485" style="stroke: #000000"/>
     <use xlink:href="#m5685979c13" x="593.813595" y="359.459745" style="stroke: #000000"/>
     <use xlink:href="#m5685979c13" x="598.942959" y="359.459745" style="stroke: #000000"/>
     <use xlink:href="#m5685979c13" x="603.912031" y="95.772485" style="stroke: #000000"/>
     <use xlink:href="#m5685979c13" x="608.881102" y="359.459745" style="stroke: #000000"/>
     <use xlink:href="#m5685979c13" x="613.850173" y="95.772485" style="stroke: #000000"/>
     <use xlink:href="#m5685979c13" x="618.979537" y="359.459745" style="stroke: #000000"/>
     <use xlink:href="#m5685979c13" x="623.948609" y="359.459745" style="stroke: #000000"/>
     <use xlink:href="#m5685979c13" x="628.91768" y="95.772485" style="stroke: #000000"/>
     <use xlink:href="#m5685979c13" x="633.886751" y="359.459745" style="stroke: #000000"/>
     <use xlink:href="#m5685979c13" x="639.016115" y="359.459745" style="stroke: #000000"/>
     <use xlink:href="#m5685979c13" x="643.985187" y="95.772485" style="stroke: #000000"/>
     <use xlink:href="#m5685979c13" x="648.954258" y="359.459745" style="stroke: #000000"/>
     <use xlink:href="#m5685979c13" x="653.92333" y="95.772485" style="stroke: #000000"/>
     <use xlink:href="#m5685979c13" x="659.052694" y="359.459745" style="stroke: #000000"/>
     <use xlink:href="#m5685979c13" x="664.021765" y="359.459745" style="stroke: #000000"/>
     <use xlink:href="#m5685979c13" x="668.990836" y="95.772485" style="stroke: #000000"/>
     <use xlink:href="#m5685979c13" x="673.959908" y="359.459745" style="stroke: #000000"/>
     <use xlink:href="#m5685979c13" x="679.089272" y="359.459745" style="stroke: #000000"/>
     <use xlink:href="#m5685979c13" x="684.058343" y="95.772485" style="stroke: #000000"/>
     <use xlink:href="#m5685979c13" x="689.027414" y="359.459745" style="stroke: #000000"/>
     <use xlink:href="#m5685979c13" x="693.996486" y="95.772485" style="stroke: #000000"/>
     <use xlink:href="#m5685979c13" x="699.12585" y="359.459745" style="stroke: #000000"/>
     <use xlink:href="#m5685979c13" x="704.094921" y="359.459745" style="stroke: #000000"/>
     <use xlink:href="#m5685979c13" x="709.063993" y="95.772485" style="stroke: #000000"/>
     <use xlink:href="#m5685979c13" x="714.033064" y="359.459745" style="stroke: #000000"/>
     <use xlink:href="#m5685979c13" x="719.162428" y="359.459745" style="stroke: #000000"/>
     <use xlink:href="#m5685979c13" x="724.131499" y="95.772485" style="stroke: #000000"/>
     <use xlink:href="#m5685979c13" x="729.100571" y="359.459745" style="stroke: #000000"/>
     <use xlink:href="#m5685979c13" x="734.069642" y="95.772485" style="stroke: #000000"/>
     <use xlink:href="#m5685979c13" x="739.199006" y="359.459745" style="stroke: #000000"/>
     <use xlink:href="#m5685979c13" x="744.168077" y="359.459745" style="stroke: #000000"/>
     <use xlink:href="#m5685979c13" x="749.137149" y="95.772485" style="stroke: #000000"/>
     <use xlink:href="#m5685979c13" x="754.10622" y="359.459745" style="stroke: #000000"/>
     <use xlink:href="#m5685979c13" x="759.235584" y="359.459745" style="stroke: #000000"/>
     <use xlink:href="#m5685979c13" x="764.204656" y="95.772485" style="stroke: #000000"/>
     <use xlink:href="#m5685979c13" x="769.173727" y="359.459745" style="stroke: #000000"/>
     <use xlink:href="#m5685979c13" x="774.142798" y="95.772485" style="stroke: #000000"/>
     <use xlink:href="#m5685979c13" x="779.272162" y="359.459745" style="stroke: #000000"/>
     <use xlink:href="#m5685979c13" x="784.241234" y="359.459745" style="stroke: #000000"/>
     <use xlink:href="#m5685979c13" x="789.210305" y="95.772485" style="stroke: #000000"/>
     <use xlink:href="#m5685979c13" x="794.179376" y="359.459745" style="stroke: #000000"/>
     <use xlink:href="#m5685979c13" x="799.30874" y="359.459745" style="stroke: #000000"/>
     <use xlink:href="#m5685979c13" x="804.277812" y="95.772485" style="stroke: #000000"/>
     <use xlink:href="#m5685979c13" x="809.246883" y="359.459745" style="stroke: #000000"/>
     <use xlink:href="#m5685979c13" x="814.215955" y="95.772485" style="stroke: #000000"/>
     <use xlink:href="#m5685979c13" x="819.345319" y="359.459745" style="stroke: #000000"/>
     <use xlink:href="#m5685979c13" x="824.31439" y="359.459745" style="stroke: #000000"/>
     <use xlink:href="#m5685979c13" x="829.283461" y="95.772485" style="stroke: #000000"/>
     <use xlink:href="#m5685979c13" x="834.252533" y="359.459745" style="stroke: #000000"/>
     <use xlink:href="#m5685979c13" x="839.381897" y="359.459745" style="stroke: #000000"/>
     <use xlink:href="#m5685979c13" x="844.350968" y="95.772485" style="stroke: #000000"/>
     <use xlink:href="#m5685979c13" x="849.320039" y="359.459745" style="stroke: #000000"/>
     <use xlink:href="#m5685979c13" x="854.289111" y="95.772485" style="stroke: #000000"/>
     <use xlink:href="#m5685979c13" x="859.418475" y="359.459745" style="stroke: #000000"/>
     <use xlink:href="#m5685979c13" x="864.387546" y="359.459745" style="stroke: #000000"/>
     <use xlink:href="#m5685979c13" x="869.356618" y="95.772485" style="stroke: #000000"/>
     <use xlink:href="#m5685979c13" x="874.325689" y="359.459745" style="stroke: #000000"/>
     <use xlink:href="#m5685979c13" x="879.455053" y="359.459745" style="stroke: #000000"/>
     <use xlink:href="#m5685979c13" x="884.424124" y="95.772485" style="stroke: #000000"/>
     <use xlink:href="#m5685979c13" x="889.393196" y="359.459745" style="stroke: #000000"/>
     <use xlink:href="#m5685979c13" x="894.362267" y="95.772485" style="stroke: #000000"/>
     <use xlink:href="#m5685979c13" x="899.491631" y="359.459745" style="stroke: #000000"/>
     <use xlink:href="#m5685979c13" x="904.460702" y="359.459745" style="stroke: #000000"/>
     <use xlink:href="#m5685979c13" x="909.429774" y="95.772485" style="stroke: #000000"/>
     <use xlink:href="#m5685979c13" x="914.398845" y="359.459745" style="stroke: #000000"/>
     <use xlink:href="#m5685979c13" x="919.528209" y="359.459745" style="stroke: #000000"/>
     <use xlink:href="#m5685979c13" x="924.497281" y="95.772485" style="stroke: #000000"/>
     <use xlink:href="#m5685979c13" x="929.466352" y="359.459745" style="stroke: #000000"/>
    </g>
   </g>
   <g id="patch_3">
    <path d="M 135 448.56 
L 135 60.48 
" style="fill: none; stroke: #000000; stroke-width: 0.8; stroke-linejoin: miter; stroke-linecap: square"/>
   </g>
   <g id="patch_4">
    <path d="M 972 448.56 
L 972 60.48 
" style="fill: none; stroke: #000000; stroke-width: 0.8; stroke-linejoin: miter; stroke-linecap: square"/>
   </g>
   <g id="patch_5">
    <path d="M 135 448.56 
L 972 448.56 
" style="fill: none; stroke: #000000; stroke-width: 0.8; stroke-linejoin: miter; stroke-linecap: square"/>
   </g>
   <g id="patch_6">
    <path d="M 135 60.48 
L 972 60.48 
" style="fill: none; stroke: #000000; stroke-width: 0.8; stroke-linejoin: miter; stroke-linecap: square"/>
   </g>
   <g id="legend_1">
    <g id="patch_7">
     <path d="M 895.915625 278.315313 
L 965 278.315313 
Q 967 278.315313 967 276.315313 
L 967 232.724688 
Q 967 230.724688 965 230.724688 
L 895.915625 230.724688 
Q 893.915625 230.724688 893.915625 232.724688 
L 893.915625 276.315313 
Q 893.915625 278.315313 895.915625 278.315313 
z
" style="fill: #ffffff; opacity: 0.8; stroke: #cccccc; stroke-linejoin: miter"/>
    </g>
    <g id="line2d_16">
     <path d="M 897.915625 238.823125 
L 907.915625 238.823125 
L 917.915625 238.823125 
" style="fill: none; stroke: #1f77b4; stroke-width: 1.5; stroke-linecap: square"/>
    </g>
    <g id="text_14">
     <!-- nw_0 -->
     <g transform="translate(925.915625 242.323125) scale(0.1 -0.1)">
      <defs>
       <path id="DejaVuSans-6e" d="M 3513 2113 
L 3513 0 
L 2938 0 
L 2938 2094 
Q 2938 2591 2744 2837 
Q 2550 3084 2163 3084 
Q 1697 3084 1428 2787 
Q 1159 2491 1159 1978 
L 1159 0 
L 581 0 
L 581 3500 
L 1159 3500 
L 1159 2956 
Q 1366 3272 1645 3428 
Q 1925 3584 2291 3584 
Q 2894 3584 3203 3211 
Q 3513 2838 3513 2113 
z
" transform="scale(0.015625)"/>
       <path id="DejaVuSans-77" d="M 269 3500 
L 844 3500 
L 1563 769 
L 2278 3500 
L 2956 3500 
L 3675 769 
L 4391 3500 
L 4966 3500 
L 4050 0 
L 3372 0 
L 2619 2869 
L 1863 0 
L 1184 0 
L 269 3500 
z
" transform="scale(0.015625)"/>
       <path id="DejaVuSans-5f" d="M 3263 -1063 
L 3263 -1509 
L -63 -1509 
L -63 -1063 
L 3263 -1063 
z
" transform="scale(0.015625)"/>
      </defs>
      <use xlink:href="#DejaVuSans-6e"/>
      <use xlink:href="#DejaVuSans-77" x="63.378906"/>
      <use xlink:href="#DejaVuSans-5f" x="145.166016"/>
      <use xlink:href="#DejaVuSans-30" x="195.166016"/>
     </g>
    </g>
    <g id="line2d_17">
     <path d="M 897.915625 253.779375 
L 907.915625 253.779375 
L 917.915625 253.779375 
" style="fill: none; stroke: #ff7f0e; stroke-width: 1.5; stroke-linecap: square"/>
    </g>
    <g id="text_15">
     <!-- input_0 -->
     <g transform="translate(925.915625 257.279375) scale(0.1 -0.1)">
      <defs>
       <path id="DejaVuSans-69" d="M 603 3500 
L 1178 3500 
L 1178 0 
L 603 0 
L 603 3500 
z
M 603 4863 
L 1178 4863 
L 1178 4134 
L 603 4134 
L 603 4863 
z
" transform="scale(0.015625)"/>
       <path id="DejaVuSans-70" d="M 1159 525 
L 1159 -1331 
L 581 -1331 
L 581 3500 
L 1159 3500 
L 1159 2969 
Q 1341 3281 1617 3432 
Q 1894 3584 2278 3584 
Q 2916 3584 3314 3078 
Q 3713 2572 3713 1747 
Q 3713 922 3314 415 
Q 2916 -91 2278 -91 
Q 1894 -91 1617 61 
Q 1341 213 1159 525 
z
M 3116 1747 
Q 3116 2381 2855 2742 
Q 2594 3103 2138 3103 
Q 1681 3103 1420 2742 
Q 1159 2381 1159 1747 
Q 1159 1113 1420 752 
Q 1681 391 2138 391 
Q 2594 391 2855 752 
Q 3116 1113 3116 1747 
z
" transform="scale(0.015625)"/>
       <path id="DejaVuSans-75" d="M 544 1381 
L 544 3500 
L 1119 3500 
L 1119 1403 
Q 1119 906 1312 657 
Q 1506 409 1894 409 
Q 2359 409 2629 706 
Q 2900 1003 2900 1516 
L 2900 3500 
L 3475 3500 
L 3475 0 
L 2900 0 
L 2900 538 
Q 2691 219 2414 64 
Q 2138 -91 1772 -91 
Q 1169 -91 856 284 
Q 544 659 544 1381 
z
M 1991 3584 
L 1991 3584 
z
" transform="scale(0.015625)"/>
      </defs>
      <use xlink:href="#DejaVuSans-69"/>
      <use xlink:href="#DejaVuSans-6e" x="27.783203"/>
      <use xlink:href="#DejaVuSans-70" x="91.162109"/>
      <use xlink:href="#DejaVuSans-75" x="154.638672"/>
      <use xlink:href="#DejaVuSans-74" x="218.017578"/>
      <use xlink:href="#DejaVuSans-5f" x="257.226562"/>
      <use xlink:href="#DejaVuSans-30" x="307.226562"/>
     </g>
    </g>
    <g id="line2d_18">
     <path d="M 897.915625 268.735625 
L 907.915625 268.735625 
L 917.915625 268.735625 
" style="fill: none; stroke: #000000; stroke-width: 1.5; stroke-linecap: square"/>
     <g>
      <use xlink:href="#m5685979c13" x="907.915625" y="268.735625" style="stroke: #000000"/>
     </g>
    </g>
    <g id="text_16">
     <!-- target -->
     <g transform="translate(925.915625 272.235625) scale(0.1 -0.1)">
      <defs>
       <path id="DejaVuSans-61" d="M 2194 1759 
Q 1497 1759 1228 1600 
Q 959 1441 959 1056 
Q 959 750 1161 570 
Q 1363 391 1709 391 
Q 2188 391 2477 730 
Q 2766 1069 2766 1631 
L 2766 1759 
L 2194 1759 
z
M 3341 1997 
L 3341 0 
L 2766 0 
L 2766 531 
Q 2569 213 2275 61 
Q 1981 -91 1556 -91 
Q 1019 -91 701 211 
Q 384 513 384 1019 
Q 384 1609 779 1909 
Q 1175 2209 1959 2209 
L 2766 2209 
L 2766 2266 
Q 2766 2663 2505 2880 
Q 2244 3097 1772 3097 
Q 1472 3097 1187 3025 
Q 903 2953 641 2809 
L 641 3341 
Q 956 3463 1253 3523 
Q 1550 3584 1831 3584 
Q 2591 3584 2966 3190 
Q 3341 2797 3341 1997 
z
" transform="scale(0.015625)"/>
       <path id="DejaVuSans-72" d="M 2631 2963 
Q 2534 3019 2420 3045 
Q 2306 3072 2169 3072 
Q 1681 3072 1420 2755 
Q 1159 2438 1159 1844 
L 1159 0 
L 581 0 
L 581 3500 
L 1159 3500 
L 1159 2956 
Q 1341 3275 1631 3429 
Q 1922 3584 2338 3584 
Q 2397 3584 2469 3576 
Q 2541 3569 2628 3553 
L 2631 2963 
z
" transform="scale(0.015625)"/>
       <path id="DejaVuSans-67" d="M 2906 1791 
Q 2906 2416 2648 2759 
Q 2391 3103 1925 3103 
Q 1463 3103 1205 2759 
Q 947 2416 947 1791 
Q 947 1169 1205 825 
Q 1463 481 1925 481 
Q 2391 481 2648 825 
Q 2906 1169 2906 1791 
z
M 3481 434 
Q 3481 -459 3084 -895 
Q 2688 -1331 1869 -1331 
Q 1566 -1331 1297 -1286 
Q 1028 -1241 775 -1147 
L 775 -588 
Q 1028 -725 1275 -790 
Q 1522 -856 1778 -856 
Q 2344 -856 2625 -561 
Q 2906 -266 2906 331 
L 2906 616 
Q 2728 306 2450 153 
Q 2172 0 1784 0 
Q 1141 0 747 490 
Q 353 981 353 1791 
Q 353 2603 747 3093 
Q 1141 3584 1784 3584 
Q 2172 3584 2450 3431 
Q 2728 3278 2906 2969 
L 2906 3500 
L 3481 3500 
L 3481 434 
z
" transform="scale(0.015625)"/>
       <path id="DejaVuSans-65" d="M 3597 1894 
L 3597 1613 
L 953 1613 
Q 991 1019 1311 708 
Q 1631 397 2203 397 
Q 2534 397 2845 478 
Q 3156 559 3463 722 
L 3463 178 
Q 3153 47 2828 -22 
Q 2503 -91 2169 -91 
Q 1331 -91 842 396 
Q 353 884 353 1716 
Q 353 2575 817 3079 
Q 1281 3584 2069 3584 
Q 2775 3584 3186 3129 
Q 3597 2675 3597 1894 
z
M 3022 2063 
Q 3016 2534 2758 2815 
Q 2500 3097 2075 3097 
Q 1594 3097 1305 2825 
Q 1016 2553 972 2059 
L 3022 2063 
z
" transform="scale(0.015625)"/>
      </defs>
      <use xlink:href="#DejaVuSans-74"/>
      <use xlink:href="#DejaVuSans-61" x="39.208984"/>
      <use xlink:href="#DejaVuSans-72" x="100.488281"/>
      <use xlink:href="#DejaVuSans-67" x="139.851562"/>
      <use xlink:href="#DejaVuSans-65" x="203.328125"/>
      <use xlink:href="#DejaVuSans-74" x="264.851562"/>
     </g>
    </g>
   </g>
  </g>
 </g>
 <defs>
  <clipPath id="p99545cd048">
   <rect x="135" y="60.48" width="837" height="388.08"/>
  </clipPath>
 </defs>
</svg>
