<?xml version="1.0" encoding="utf-8" standalone="no"?>
<!DOCTYPE svg PUBLIC "-//W3C//DTD SVG 1.1//EN"
  "http://www.w3.org/Graphics/SVG/1.1/DTD/svg11.dtd">
<svg xmlns:xlink="http://www.w3.org/1999/xlink" width="1080pt" height="504pt" viewBox="0 0 1080 504" xmlns="http://www.w3.org/2000/svg" version="1.1">
 <metadata>
  <rdf:RDF xmlns:dc="http://purl.org/dc/elements/1.1/" xmlns:cc="http://creativecommons.org/ns#" xmlns:rdf="http://www.w3.org/1999/02/22-rdf-syntax-ns#">
   <cc:Work>
    <dc:type rdf:resource="http://purl.org/dc/dcmitype/StillImage"/>
    <dc:date>2024-05-09T11:38:59.785342</dc:date>
    <dc:format>image/svg+xml</dc:format>
    <dc:creator>
     <cc:Agent>
      <dc:title>Matplotlib v3.7.1, https://matplotlib.org/</dc:title>
     </cc:Agent>
    </dc:creator>
   </cc:Work>
  </rdf:RDF>
 </metadata>
 <defs>
  <style type="text/css">*{stroke-linejoin: round; stroke-linecap: butt}</style>
 </defs>
 <g id="figure_1">
  <g id="patch_1">
   <path d="M 0 504 
L 1080 504 
L 1080 0 
L 0 0 
z
" style="fill: #ffffff"/>
  </g>
  <g id="axes_1">
   <g id="patch_2">
    <path d="M 135 448.56 
L 972 448.56 
L 972 60.48 
L 135 60.48 
z
" style="fill: #ffffff"/>
   </g>
   <g id="matplotlib.axis_1">
    <g id="xtick_1">
     <g id="line2d_1">
      <defs>
       <path id="m956cc53de3" d="M 0 0 
L 0 3.5 
" style="stroke: #000000; stroke-width: 0.8"/>
      </defs>
      <g>
       <use xlink:href="#m956cc53de3" x="173.045455" y="448.56" style="stroke: #000000; stroke-width: 0.8"/>
      </g>
     </g>
     <g id="text_1">
      <!-- 0 -->
      <g transform="translate(169.864205 463.158437) scale(0.1 -0.1)">
       <defs>
        <path id="DejaVuSans-30" d="M 2034 4250 
Q 1547 4250 1301 3770 
Q 1056 3291 1056 2328 
Q 1056 1369 1301 889 
Q 1547 409 2034 409 
Q 2525 409 2770 889 
Q 3016 1369 3016 2328 
Q 3016 3291 2770 3770 
Q 2525 4250 2034 4250 
z
M 2034 4750 
Q 2819 4750 3233 4129 
Q 3647 3509 3647 2328 
Q 3647 1150 3233 529 
Q 2819 -91 2034 -91 
Q 1250 -91 836 529 
Q 422 1150 422 2328 
Q 422 3509 836 4129 
Q 1250 4750 2034 4750 
z
" transform="scale(0.015625)"/>
       </defs>
       <use xlink:href="#DejaVuSans-30"/>
      </g>
     </g>
    </g>
    <g id="xtick_2">
     <g id="line2d_2">
      <g>
       <use xlink:href="#m956cc53de3" x="333.33808" y="448.56" style="stroke: #000000; stroke-width: 0.8"/>
      </g>
     </g>
     <g id="text_2">
      <!-- 1000 -->
      <g transform="translate(320.61308 463.158437) scale(0.1 -0.1)">
       <defs>
        <path id="DejaVuSans-31" d="M 794 531 
L 1825 531 
L 1825 4091 
L 703 3866 
L 703 4441 
L 1819 4666 
L 2450 4666 
L 2450 531 
L 3481 531 
L 3481 0 
L 794 0 
L 794 531 
z
" transform="scale(0.015625)"/>
       </defs>
       <use xlink:href="#DejaVuSans-31"/>
       <use xlink:href="#DejaVuSans-30" x="63.623047"/>
       <use xlink:href="#DejaVuSans-30" x="127.246094"/>
       <use xlink:href="#DejaVuSans-30" x="190.869141"/>
      </g>
     </g>
    </g>
    <g id="xtick_3">
     <g id="line2d_3">
      <g>
       <use xlink:href="#m956cc53de3" x="493.630705" y="448.56" style="stroke: #000000; stroke-width: 0.8"/>
      </g>
     </g>
     <g id="text_3">
      <!-- 2000 -->
      <g transform="translate(480.905705 463.158437) scale(0.1 -0.1)">
       <defs>
        <path id="DejaVuSans-32" d="M 1228 531 
L 3431 531 
L 3431 0 
L 469 0 
L 469 531 
Q 828 903 1448 1529 
Q 2069 2156 2228 2338 
Q 2531 2678 2651 2914 
Q 2772 3150 2772 3378 
Q 2772 3750 2511 3984 
Q 2250 4219 1831 4219 
Q 1534 4219 1204 4116 
Q 875 4013 500 3803 
L 500 4441 
Q 881 4594 1212 4672 
Q 1544 4750 1819 4750 
Q 2544 4750 2975 4387 
Q 3406 4025 3406 3419 
Q 3406 3131 3298 2873 
Q 3191 2616 2906 2266 
Q 2828 2175 2409 1742 
Q 1991 1309 1228 531 
z
" transform="scale(0.015625)"/>
       </defs>
       <use xlink:href="#DejaVuSans-32"/>
       <use xlink:href="#DejaVuSans-30" x="63.623047"/>
       <use xlink:href="#DejaVuSans-30" x="127.246094"/>
       <use xlink:href="#DejaVuSans-30" x="190.869141"/>
      </g>
     </g>
    </g>
    <g id="xtick_4">
     <g id="line2d_4">
      <g>
       <use xlink:href="#m956cc53de3" x="653.92333" y="448.56" style="stroke: #000000; stroke-width: 0.8"/>
      </g>
     </g>
     <g id="text_4">
      <!-- 3000 -->
      <g transform="translate(641.19833 463.158437) scale(0.1 -0.1)">
       <defs>
        <path id="DejaVuSans-33" d="M 2597 2516 
Q 3050 2419 3304 2112 
Q 3559 1806 3559 1356 
Q 3559 666 3084 287 
Q 2609 -91 1734 -91 
Q 1441 -91 1130 -33 
Q 819 25 488 141 
L 488 750 
Q 750 597 1062 519 
Q 1375 441 1716 441 
Q 2309 441 2620 675 
Q 2931 909 2931 1356 
Q 2931 1769 2642 2001 
Q 2353 2234 1838 2234 
L 1294 2234 
L 1294 2753 
L 1863 2753 
Q 2328 2753 2575 2939 
Q 2822 3125 2822 3475 
Q 2822 3834 2567 4026 
Q 2313 4219 1838 4219 
Q 1578 4219 1281 4162 
Q 984 4106 628 3988 
L 628 4550 
Q 988 4650 1302 4700 
Q 1616 4750 1894 4750 
Q 2613 4750 3031 4423 
Q 3450 4097 3450 3541 
Q 3450 3153 3228 2886 
Q 3006 2619 2597 2516 
z
" transform="scale(0.015625)"/>
       </defs>
       <use xlink:href="#DejaVuSans-33"/>
       <use xlink:href="#DejaVuSans-30" x="63.623047"/>
       <use xlink:href="#DejaVuSans-30" x="127.246094"/>
       <use xlink:href="#DejaVuSans-30" x="190.869141"/>
      </g>
     </g>
    </g>
    <g id="xtick_5">
     <g id="line2d_5">
      <g>
       <use xlink:href="#m956cc53de3" x="814.215955" y="448.56" style="stroke: #000000; stroke-width: 0.8"/>
      </g>
     </g>
     <g id="text_5">
      <!-- 4000 -->
      <g transform="translate(801.490955 463.158437) scale(0.1 -0.1)">
       <defs>
        <path id="DejaVuSans-34" d="M 2419 4116 
L 825 1625 
L 2419 1625 
L 2419 4116 
z
M 2253 4666 
L 3047 4666 
L 3047 1625 
L 3713 1625 
L 3713 1100 
L 3047 1100 
L 3047 0 
L 2419 0 
L 2419 1100 
L 313 1100 
L 313 1709 
L 2253 4666 
z
" transform="scale(0.015625)"/>
       </defs>
       <use xlink:href="#DejaVuSans-34"/>
       <use xlink:href="#DejaVuSans-30" x="63.623047"/>
       <use xlink:href="#DejaVuSans-30" x="127.246094"/>
       <use xlink:href="#DejaVuSans-30" x="190.869141"/>
      </g>
     </g>
    </g>
    <g id="text_6">
     <!-- t -->
     <g transform="translate(551.539844 476.836563) scale(0.1 -0.1)">
      <defs>
       <path id="DejaVuSans-74" d="M 1172 4494 
L 1172 3500 
L 2356 3500 
L 2356 3053 
L 1172 3053 
L 1172 1153 
Q 1172 725 1289 603 
Q 1406 481 1766 481 
L 2356 481 
L 2356 0 
L 1766 0 
Q 1100 0 847 248 
Q 594 497 594 1153 
L 594 3053 
L 172 3053 
L 172 3500 
L 594 3500 
L 594 4494 
L 1172 4494 
z
" transform="scale(0.015625)"/>
      </defs>
      <use xlink:href="#DejaVuSans-74"/>
     </g>
    </g>
   </g>
   <g id="matplotlib.axis_2">
    <g id="ytick_1">
     <g id="line2d_6">
      <defs>
       <path id="m48531d7231" d="M 0 0 
L -3.5 0 
" style="stroke: #000000; stroke-width: 0.8"/>
      </defs>
      <g>
       <use xlink:href="#m48531d7231" x="135" y="402.215952" style="stroke: #000000; stroke-width: 0.8"/>
      </g>
     </g>
     <g id="text_7">
      <!-- 0.0 -->
      <g transform="translate(112.096875 406.015171) scale(0.1 -0.1)">
       <defs>
        <path id="DejaVuSans-2e" d="M 684 794 
L 1344 794 
L 1344 0 
L 684 0 
L 684 794 
z
" transform="scale(0.015625)"/>
       </defs>
       <use xlink:href="#DejaVuSans-30"/>
       <use xlink:href="#DejaVuSans-2e" x="63.623047"/>
       <use xlink:href="#DejaVuSans-30" x="95.410156"/>
      </g>
     </g>
    </g>
    <g id="ytick_2">
     <g id="line2d_7">
      <g>
       <use xlink:href="#m48531d7231" x="135" y="343.866672" style="stroke: #000000; stroke-width: 0.8"/>
      </g>
     </g>
     <g id="text_8">
      <!-- 0.2 -->
      <g transform="translate(112.096875 347.665891) scale(0.1 -0.1)">
       <use xlink:href="#DejaVuSans-30"/>
       <use xlink:href="#DejaVuSans-2e" x="63.623047"/>
       <use xlink:href="#DejaVuSans-32" x="95.410156"/>
      </g>
     </g>
    </g>
    <g id="ytick_3">
     <g id="line2d_8">
      <g>
       <use xlink:href="#m48531d7231" x="135" y="285.517392" style="stroke: #000000; stroke-width: 0.8"/>
      </g>
     </g>
     <g id="text_9">
      <!-- 0.4 -->
      <g transform="translate(112.096875 289.316611) scale(0.1 -0.1)">
       <use xlink:href="#DejaVuSans-30"/>
       <use xlink:href="#DejaVuSans-2e" x="63.623047"/>
       <use xlink:href="#DejaVuSans-34" x="95.410156"/>
      </g>
     </g>
    </g>
    <g id="ytick_4">
     <g id="line2d_9">
      <g>
       <use xlink:href="#m48531d7231" x="135" y="227.168112" style="stroke: #000000; stroke-width: 0.8"/>
      </g>
     </g>
     <g id="text_10">
      <!-- 0.6 -->
      <g transform="translate(112.096875 230.96733) scale(0.1 -0.1)">
       <defs>
        <path id="DejaVuSans-36" d="M 2113 2584 
Q 1688 2584 1439 2293 
Q 1191 2003 1191 1497 
Q 1191 994 1439 701 
Q 1688 409 2113 409 
Q 2538 409 2786 701 
Q 3034 994 3034 1497 
Q 3034 2003 2786 2293 
Q 2538 2584 2113 2584 
z
M 3366 4563 
L 3366 3988 
Q 3128 4100 2886 4159 
Q 2644 4219 2406 4219 
Q 1781 4219 1451 3797 
Q 1122 3375 1075 2522 
Q 1259 2794 1537 2939 
Q 1816 3084 2150 3084 
Q 2853 3084 3261 2657 
Q 3669 2231 3669 1497 
Q 3669 778 3244 343 
Q 2819 -91 2113 -91 
Q 1303 -91 875 529 
Q 447 1150 447 2328 
Q 447 3434 972 4092 
Q 1497 4750 2381 4750 
Q 2619 4750 2861 4703 
Q 3103 4656 3366 4563 
z
" transform="scale(0.015625)"/>
       </defs>
       <use xlink:href="#DejaVuSans-30"/>
       <use xlink:href="#DejaVuSans-2e" x="63.623047"/>
       <use xlink:href="#DejaVuSans-36" x="95.410156"/>
      </g>
     </g>
    </g>
    <g id="ytick_5">
     <g id="line2d_10">
      <g>
       <use xlink:href="#m48531d7231" x="135" y="168.818831" style="stroke: #000000; stroke-width: 0.8"/>
      </g>
     </g>
     <g id="text_11">
      <!-- 0.8 -->
      <g transform="translate(112.096875 172.61805) scale(0.1 -0.1)">
       <defs>
        <path id="DejaVuSans-38" d="M 2034 2216 
Q 1584 2216 1326 1975 
Q 1069 1734 1069 1313 
Q 1069 891 1326 650 
Q 1584 409 2034 409 
Q 2484 409 2743 651 
Q 3003 894 3003 1313 
Q 3003 1734 2745 1975 
Q 2488 2216 2034 2216 
z
M 1403 2484 
Q 997 2584 770 2862 
Q 544 3141 544 3541 
Q 544 4100 942 4425 
Q 1341 4750 2034 4750 
Q 2731 4750 3128 4425 
Q 3525 4100 3525 3541 
Q 3525 3141 3298 2862 
Q 3072 2584 2669 2484 
Q 3125 2378 3379 2068 
Q 3634 1759 3634 1313 
Q 3634 634 3220 271 
Q 2806 -91 2034 -91 
Q 1263 -91 848 271 
Q 434 634 434 1313 
Q 434 1759 690 2068 
Q 947 2378 1403 2484 
z
M 1172 3481 
Q 1172 3119 1398 2916 
Q 1625 2713 2034 2713 
Q 2441 2713 2670 2916 
Q 2900 3119 2900 3481 
Q 2900 3844 2670 4047 
Q 2441 4250 2034 4250 
Q 1625 4250 1398 4047 
Q 1172 3844 1172 3481 
z
" transform="scale(0.015625)"/>
       </defs>
       <use xlink:href="#DejaVuSans-30"/>
       <use xlink:href="#DejaVuSans-2e" x="63.623047"/>
       <use xlink:href="#DejaVuSans-38" x="95.410156"/>
      </g>
     </g>
    </g>
    <g id="ytick_6">
     <g id="line2d_11">
      <g>
       <use xlink:href="#m48531d7231" x="135" y="110.469551" style="stroke: #000000; stroke-width: 0.8"/>
      </g>
     </g>
     <g id="text_12">
      <!-- 1.0 -->
      <g transform="translate(112.096875 114.26877) scale(0.1 -0.1)">
       <use xlink:href="#DejaVuSans-31"/>
       <use xlink:href="#DejaVuSans-2e" x="63.623047"/>
       <use xlink:href="#DejaVuSans-30" x="95.410156"/>
      </g>
     </g>
    </g>
   </g>
   <g id="line2d_12">
    <path d="M 173.045455 225.523175 
L 173.36604 92.327212 
L 173.526332 78.550305 
L 173.686625 79.816366 
L 174.648381 130.008967 
L 174.808673 131.685699 
L 174.968966 131.312887 
L 175.289551 126.213765 
L 176.571892 97.276475 
L 176.892478 94.307118 
L 177.05277 93.761086 
L 177.213063 93.886819 
L 177.373355 94.726611 
L 177.693941 98.748472 
L 178.014526 330.849769 
L 178.174819 365.108827 
L 178.335111 375.32989 
L 178.495404 374.074745 
L 178.976282 359.245731 
L 179.136574 357.639869 
L 179.296867 358.203317 
L 179.617452 363.93062 
L 180.579208 385.613327 
L 181.220378 392.956792 
L 181.861549 400.611722 
L 182.502719 412.099009 
L 183.304183 426.888549 
L 183.624768 430.233816 
L 183.78506 430.92 
L 183.945353 430.828845 
L 184.105646 429.887977 
L 184.426231 425.248809 
L 184.746816 416.760342 
L 185.227694 396.972097 
L 185.868865 359.629686 
L 187.952669 224.29161 
L 188.433547 205.646982 
L 188.914424 195.067248 
L 189.23501 192.597923 
L 189.395302 192.698711 
L 189.555595 193.653017 
L 189.87618 197.970334 
L 190.357058 209.754934 
L 190.998229 232.997015 
L 192.601155 305.037842 
L 193.562911 342.501061 
L 194.364374 365.467766 
L 195.005544 378.110061 
L 195.646715 386.227404 
L 196.127593 389.883412 
L 196.60847 391.93493 
L 196.929056 392.624342 
L 197.249641 392.91103 
L 197.570226 392.903455 
L 198.051104 392.546692 
L 199.493738 391.097787 
L 199.974616 390.931824 
L 200.455493 391.0095 
L 200.936371 391.323063 
L 201.577542 392.05229 
L 202.539298 393.588909 
L 204.943687 397.666234 
L 206.065735 399.043259 
L 207.027491 399.896411 
L 208.149539 400.58232 
L 209.43188 401.08196 
L 211.034807 401.457481 
L 213.278903 401.758834 
L 213.599489 133.748433 
L 213.920074 78.235197 
L 214.080367 79.526006 
L 215.042122 129.816684 
L 215.202415 131.504583 
L 215.362708 131.142053 
L 215.683293 126.061287 
L 216.965634 97.176134 
L 217.286219 94.215673 
L 217.446512 93.673588 
L 217.606804 93.80296 
L 217.767097 94.646104 
L 218.087682 98.673877 
L 218.408267 330.770164 
L 218.56856 365.026505 
L 218.728853 375.244993 
L 218.889145 373.987562 
L 219.370023 359.154144 
L 219.530316 357.5477 
L 219.690608 358.110987 
L 220.011194 363.839083 
L 220.972949 385.530068 
L 221.61412 392.881089 
L 222.25529 400.543628 
L 222.896461 412.038181 
L 223.697924 426.836457 
L 224.018509 430.185198 
L 224.178802 430.873124 
L 224.339095 430.783715 
L 224.499387 429.844599 
L 224.819972 425.208942 
L 225.140558 416.723985 
L 225.621436 396.940941 
L 226.262606 359.605168 
L 228.34641 224.283398 
L 228.827288 205.641053 
L 229.308166 195.06306 
L 229.628751 192.594622 
L 229.789044 192.69578 
L 229.949336 193.650409 
L 230.269922 197.968246 
L 230.7508 209.753358 
L 231.39197 232.99574 
L 232.994896 305.036409 
L 233.956652 342.499449 
L 234.758115 365.466111 
L 235.399286 378.108452 
L 236.040456 386.225902 
L 236.521334 389.88202 
L 237.002212 391.933663 
L 237.322797 392.623163 
L 237.643382 392.90994 
L 237.963968 392.902454 
L 238.444846 392.54582 
L 239.887479 391.097238 
L 240.368357 390.931358 
L 240.849235 391.009104 
L 241.330113 391.322727 
L 241.971283 392.052016 
L 242.933039 393.588704 
L 245.337428 397.666119 
L 246.459477 399.04317 
L 247.421233 399.896339 
L 248.543281 400.582263 
L 249.825622 401.081919 
L 251.428548 401.457454 
L 253.832938 401.77468 
L 253.99323 401.78999 
L 254.313815 133.773794 
L 254.634401 78.256247 
L 254.794693 79.545338 
L 255.756449 129.829444 
L 255.916742 131.516626 
L 256.077034 131.153442 
L 256.39762 126.071523 
L 257.679961 97.183198 
L 258.000546 94.22221 
L 258.160838 93.679892 
L 258.321131 93.809049 
L 258.481424 94.651995 
L 258.802009 98.679419 
L 259.122594 330.77618 
L 259.282887 365.032769 
L 259.443179 375.251491 
L 259.603472 373.994267 
L 260.08435 359.161261 
L 260.244643 357.554879 
L 260.404935 358.118193 
L 260.72552 363.846247 
L 261.687276 385.536603 
L 262.328447 392.887022 
L 262.969617 400.548949 
L 263.610788 412.042914 
L 264.412251 426.840489 
L 264.732836 430.188953 
L 264.893129 430.876741 
L 265.053421 430.787194 
L 265.213714 429.84794 
L 265.534299 425.212007 
L 265.854884 416.726776 
L 266.335762 396.943328 
L 266.976933 359.607042 
L 269.060737 224.284025 
L 269.541615 205.641506 
L 270.022493 195.063381 
L 270.343078 192.594877 
L 270.503371 192.696006 
L 270.663663 193.650612 
L 270.984248 197.968409 
L 271.465126 209.753483 
L 272.106297 232.995842 
L 273.709223 305.036523 
L 274.670979 342.499575 
L 275.472442 365.466239 
L 276.113612 378.108576 
L 276.754783 386.226018 
L 277.235661 389.882127 
L 277.716539 391.93376 
L 278.037124 392.623254 
L 278.357709 392.910024 
L 278.678294 392.902531 
L 279.159172 392.545886 
L 280.601806 391.09728 
L 281.082684 390.931394 
L 281.563562 391.009134 
L 282.04444 391.322752 
L 282.68561 392.052037 
L 283.647366 393.588719 
L 286.051755 397.666128 
L 287.173804 399.043177 
L 288.135559 399.896344 
L 289.257608 400.582268 
L 290.539949 401.081922 
L 292.142875 401.457456 
L 293.585509 401.670175 
L 293.906094 133.676596 
L 294.226679 78.175832 
L 294.386972 79.471601 
L 295.348727 129.78118 
L 295.50902 131.471134 
L 295.669313 131.110472 
L 295.989898 126.032991 
L 297.272239 97.156719 
L 297.592824 94.197693 
L 297.753117 93.656235 
L 297.913409 93.786181 
L 298.073702 94.629848 
L 298.394287 98.658537 
L 298.714873 330.753381 
L 298.875165 365.008966 
L 299.035458 375.226741 
L 299.19575 373.968671 
L 299.676628 359.133951 
L 299.836921 357.527293 
L 299.997214 358.09047 
L 300.317799 363.818626 
L 301.279555 385.511298 
L 301.920725 392.864005 
L 302.561896 400.528287 
L 303.203066 412.024523 
L 304.004529 426.824825 
L 304.325114 430.174366 
L 304.485407 430.862692 
L 304.6457 430.773683 
L 304.805992 429.834967 
L 305.126578 425.200109 
L 305.447163 416.715946 
L 305.928041 396.934073 
L 306.569211 359.599782 
L 308.653015 224.281606 
L 309.133893 205.639757 
L 309.614771 195.062142 
L 309.935356 192.593897 
L 310.095649 192.695134 
L 310.255942 193.649833 
L 310.576527 197.967782 
L 311.057405 209.753003 
L 311.698575 232.995448 
L 313.301501 305.036082 
L 314.263257 342.499085 
L 315.06472 365.465739 
L 315.705891 378.108093 
L 316.347061 386.225569 
L 316.827939 389.881711 
L 317.308817 391.933383 
L 317.629402 392.622903 
L 317.949988 392.9097 
L 318.270573 392.902233 
L 318.751451 392.545627 
L 320.194084 391.097118 
L 320.674962 390.931255 
L 321.15584 391.009017 
L 321.636718 391.322652 
L 322.277888 392.051955 
L 323.239644 393.588658 
L 325.644034 397.666094 
L 326.766082 399.04315 
L 327.727838 399.896323 
L 328.849886 400.582251 
L 330.132227 401.08191 
L 331.735153 401.457448 
L 333.818957 401.742375 
L 334.139543 133.73506 
L 334.460128 78.224116 
L 334.620421 79.515838 
L 335.582176 129.810002 
L 335.742469 131.498282 
L 335.902762 131.136097 
L 336.223347 126.055941 
L 337.505688 97.17245 
L 337.826273 94.212263 
L 337.986566 93.670298 
L 338.146858 93.799781 
L 338.307151 94.643026 
L 338.627736 98.670977 
L 338.948321 330.767006 
L 339.108614 365.023211 
L 339.268907 375.241573 
L 339.429199 373.984027 
L 339.910077 359.150382 
L 340.07037 357.543902 
L 340.230662 358.107172 
L 340.551248 363.835286 
L 341.513003 385.526597 
L 342.154174 392.877934 
L 342.795344 400.540798 
L 343.436515 412.035662 
L 344.237978 426.834312 
L 344.558563 430.1832 
L 344.718856 430.8712 
L 344.879149 430.781865 
L 345.039441 429.842822 
L 345.360026 425.207312 
L 345.680612 416.722501 
L 346.16149 396.939673 
L 346.80266 359.604173 
L 348.886464 224.283066 
L 349.367342 205.640812 
L 349.84822 195.062889 
L 350.168805 192.594487 
L 350.329098 192.695659 
L 350.48939 193.650302 
L 350.809976 197.96816 
L 351.290854 209.753292 
L 351.932024 232.995686 
L 353.53495 305.036349 
L 354.496706 342.499382 
L 355.298169 365.466042 
L 355.93934 378.108386 
L 356.58051 386.225841 
L 357.061388 389.881963 
L 357.542266 391.933611 
L 357.862851 392.623115 
L 358.183436 392.909896 
L 358.504022 392.902413 
L 358.9849 392.545784 
L 360.427533 391.097216 
L 360.908411 390.931339 
L 361.389289 391.009088 
L 361.870167 391.322713 
L 362.511337 392.052005 
L 363.473093 393.588695 
L 365.877482 397.666115 
L 366.999531 399.043166 
L 367.961287 399.896336 
L 369.083335 400.582261 
L 370.365676 401.081917 
L 371.968602 401.457453 
L 373.090651 401.629659 
L 373.411236 133.643928 
L 373.731821 78.148965 
L 373.892114 79.447036 
L 374.853869 129.765358 
L 375.014162 131.456258 
L 375.174455 131.096456 
L 375.49504 126.02048 
L 376.777381 97.148218 
L 377.097966 94.189821 
L 377.258259 93.648635 
L 377.418551 93.778828 
L 377.578844 94.622719 
L 377.899429 98.651794 
L 378.220015 330.745946 
L 378.380307 365.001168 
L 378.5406 375.218599 
L 378.700892 373.960219 
L 379.18177 359.124854 
L 379.342063 357.518082 
L 379.502356 358.081194 
L 379.822941 363.809349 
L 380.784697 385.502732 
L 381.425867 392.856188 
L 382.067038 400.521254 
L 382.708208 412.018255 
L 383.509671 426.819484 
L 383.830256 430.169393 
L 383.990549 430.857903 
L 384.150842 430.769078 
L 384.311134 429.830546 
L 384.63172 425.196056 
L 384.952305 416.712259 
L 385.433183 396.930924 
L 386.074353 359.597315 
L 388.158157 224.280789 
L 388.639035 205.639169 
L 389.119913 195.061726 
L 389.440498 192.593568 
L 389.600791 192.694842 
L 389.761084 193.649573 
L 390.081669 197.967572 
L 390.562547 209.752842 
L 391.203717 232.995316 
L 392.806643 305.035932 
L 393.768399 342.498918 
L 394.569862 365.465569 
L 395.211033 378.107928 
L 395.852203 386.225415 
L 396.333081 389.881569 
L 396.813959 391.933254 
L 397.134544 392.622783 
L 397.45513 392.909589 
L 397.775715 392.902132 
L 398.256593 392.545539 
L 399.699226 391.097062 
L 400.180104 390.931208 
L 400.660982 391.008977 
L 401.14186 391.322618 
L 401.78303 392.051928 
L 402.744786 393.588637 
L 405.149176 397.666082 
L 406.271224 399.043141 
L 407.23298 399.896315 
L 408.355028 400.582245 
L 409.637369 401.081905 
L 411.240295 401.457445 
L 413.644685 401.774675 
L 413.96527 133.76132 
L 414.285855 78.245887 
L 414.446148 79.535821 
L 415.407904 129.823153 
L 415.568196 131.510688 
L 415.728489 131.147825 
L 416.049074 126.066474 
L 417.331415 97.179712 
L 417.652 94.218985 
L 417.812293 93.676782 
L 417.972586 93.806046 
L 418.132878 94.64909 
L 418.453463 98.676688 
L 418.774049 330.773218 
L 418.934341 365.029686 
L 419.094634 375.248295 
L 419.254927 373.990971 
L 419.735804 359.157766 
L 419.896097 357.551354 
L 420.05639 358.114655 
L 420.376975 363.842732 
L 421.338731 385.533399 
L 421.979901 392.884114 
L 422.621072 400.546341 
L 423.262242 412.040594 
L 424.063705 426.838513 
L 424.384291 430.187112 
L 424.544583 430.874968 
L 424.704876 430.785489 
L 424.865168 429.846302 
L 425.185754 425.210504 
L 425.506339 416.725407 
L 425.987217 396.942157 
L 426.628387 359.606123 
L 428.712191 224.283718 
L 429.193069 205.641283 
L 429.673947 195.063223 
L 429.994532 192.594752 
L 430.154825 192.695895 
L 430.315118 193.650512 
L 430.635703 197.968329 
L 431.116581 209.753421 
L 431.757751 232.995792 
L 433.360678 305.036467 
L 434.322433 342.499514 
L 435.123896 365.466176 
L 435.765067 378.108515 
L 436.406237 386.225961 
L 436.887115 389.882074 
L 437.367993 391.933713 
L 437.688578 392.62321 
L 438.009164 392.909983 
L 438.329749 392.902493 
L 438.810627 392.545854 
L 440.25326 391.09726 
L 440.734138 390.931376 
L 441.215016 391.009119 
L 441.695894 391.32274 
L 442.337065 392.052026 
L 443.29882 393.588712 
L 445.70321 397.666124 
L 446.825258 399.043173 
L 447.787014 399.896342 
L 448.909062 400.582266 
L 450.191403 401.08192 
L 451.794329 401.457455 
L 453.557548 401.707637 
L 453.878134 133.70689 
L 454.198719 78.200819 
L 454.359011 79.49448 
L 455.320767 129.796035 
L 455.48106 131.485118 
L 455.641352 131.123665 
L 455.961938 126.044795 
L 457.244279 97.164791 
L 457.564864 94.20517 
L 457.725157 93.663453 
L 457.885449 93.793162 
L 458.045742 94.636614 
L 458.366327 98.664929 
L 458.686912 330.760397 
L 458.847205 365.016309 
L 459.007498 375.234393 
L 459.16779 373.976601 
L 459.648668 359.142452 
L 459.808961 357.535891 
L 459.969253 358.09912 
L 460.289839 363.827261 
L 461.251594 385.519241 
L 461.892765 392.871242 
L 462.533935 400.53479 
L 463.175106 412.030315 
L 463.976569 426.829758 
L 464.297154 430.17896 
L 464.457447 430.867116 
L 464.617739 430.777937 
L 464.778032 429.839051 
L 465.098617 425.203854 
L 465.419203 416.719354 
L 465.90008 396.936983 
L 466.541251 359.602063 
L 468.625055 224.282363 
L 469.105933 205.640304 
L 469.586811 195.062529 
L 469.907396 192.594202 
L 470.067689 192.695406 
L 470.227981 193.650076 
L 470.548567 197.967977 
L 471.029444 209.753153 
L 471.670615 232.995571 
L 473.273541 305.036221 
L 474.235297 342.49924 
L 475.03676 365.465897 
L 475.677931 378.108245 
L 476.319101 386.22571 
L 476.799979 389.881842 
L 477.280857 391.933501 
L 477.601442 392.623013 
L 477.922027 392.909802 
L 478.242613 392.902327 
L 478.72349 392.545709 
L 480.166124 391.097169 
L 480.647002 390.931299 
L 481.12788 391.009054 
L 481.608758 391.322684 
L 482.249928 392.051981 
L 483.211684 393.588677 
L 485.616073 397.666105 
L 486.738122 399.043158 
L 487.699877 399.896329 
L 488.821926 400.582256 
L 490.104267 401.081914 
L 491.707193 401.45745 
L 493.630705 401.725327 
L 493.95129 133.721226 
L 494.271875 78.212668 
L 494.432168 79.505339 
L 495.393923 129.803124 
L 495.554216 131.491798 
L 495.714509 131.129972 
L 496.035094 126.050447 
L 497.317435 97.168671 
L 497.63802 94.208763 
L 497.798313 93.666921 
L 497.958605 93.796516 
L 498.118898 94.639864 
L 498.439483 98.667995 
L 498.760069 330.763752 
L 498.920361 365.019814 
L 499.080654 375.238041 
L 499.240946 373.980376 
L 499.721824 359.146487 
L 499.882117 357.539968 
L 500.04241 358.103219 
L 500.362995 363.831348 
L 501.324751 385.52299 
L 501.965921 392.874654 
L 502.607092 400.537854 
L 503.248262 412.033042 
L 504.049725 426.832081 
L 504.37031 430.181122 
L 504.530603 430.869199 
L 504.690896 430.77994 
L 504.851188 429.840974 
L 505.171774 425.205617 
L 505.492359 416.720959 
L 505.973237 396.938355 
L 506.614407 359.603139 
L 508.698211 224.282721 
L 509.179089 205.640563 
L 509.659967 195.062713 
L 509.980552 192.594347 
L 510.140845 192.695535 
L 510.301138 193.650191 
L 510.621723 197.96807 
L 511.102601 209.753224 
L 511.743771 232.99563 
L 513.346697 305.036287 
L 514.308453 342.499312 
L 515.109916 365.465971 
L 515.751087 378.108317 
L 516.392257 386.225777 
L 516.873135 389.881904 
L 517.354013 391.933557 
L 517.674598 392.623065 
L 517.995184 392.90985 
L 518.315769 392.902371 
L 518.796647 392.545747 
L 520.23928 391.097193 
L 520.720158 390.931319 
L 521.201036 391.009071 
L 521.681914 391.322699 
L 522.323084 392.051993 
L 523.28484 393.588686 
L 525.68923 397.66611 
L 526.811278 399.043162 
L 527.773034 399.896333 
L 528.895082 400.582259 
L 530.177423 401.081915 
L 531.780349 401.457451 
L 533.864153 401.742378 
L 534.184739 133.735062 
L 534.505324 78.224117 
L 534.665617 79.51584 
L 535.627372 129.810003 
L 535.787665 131.498282 
L 535.947958 131.136098 
L 536.268543 126.055941 
L 537.550884 97.172451 
L 537.871469 94.212263 
L 538.031762 93.670299 
L 538.192054 93.799781 
L 538.352347 94.643026 
L 538.672932 98.670977 
L 538.993517 330.767006 
L 539.15381 365.023212 
L 539.314103 375.241573 
L 539.474395 373.984028 
L 539.955273 359.150382 
L 540.115566 357.543902 
L 540.275858 358.107172 
L 540.596444 363.835286 
L 541.558199 385.526597 
L 542.19937 392.877934 
L 542.84054 400.540798 
L 543.481711 412.035662 
L 544.283174 426.834312 
L 544.603759 430.1832 
L 544.764052 430.8712 
L 544.924345 430.781865 
L 545.084637 429.842822 
L 545.405222 425.207312 
L 545.725808 416.722501 
L 546.206686 396.939673 
L 546.847856 359.604173 
L 548.93166 224.283066 
L 549.412538 205.640812 
L 549.893416 195.062889 
L 550.214001 192.594487 
L 550.374294 192.69566 
L 550.534586 193.650302 
L 550.855172 197.96816 
L 551.33605 209.753292 
L 551.97722 232.995686 
L 553.580146 305.036349 
L 554.541902 342.499382 
L 555.343365 365.466042 
L 555.984536 378.108386 
L 556.625706 386.225841 
L 557.106584 389.881963 
L 557.587462 391.933611 
L 557.908047 392.623115 
L 558.228632 392.909896 
L 558.549218 392.902413 
L 559.030096 392.545784 
L 560.472729 391.097216 
L 560.953607 390.931339 
L 561.434485 391.009088 
L 561.915363 391.322713 
L 562.556533 392.052005 
L 563.518289 393.588695 
L 565.922678 397.666115 
L 567.044727 399.043166 
L 568.006483 399.896336 
L 569.128531 400.582261 
L 570.410872 401.081917 
L 572.013798 401.457453 
L 574.257895 401.758818 
L 574.57848 133.74842 
L 574.899065 78.235186 
L 575.059358 79.525996 
L 576.021114 129.816677 
L 576.181406 131.504577 
L 576.341699 131.142047 
L 576.662284 126.061283 
L 577.944625 97.176131 
L 578.265211 94.21567 
L 578.425503 93.673586 
L 578.585796 93.802958 
L 578.746088 94.646101 
L 579.066674 98.673874 
L 579.387259 330.770161 
L 579.547552 365.026502 
L 579.707844 375.244991 
L 579.868137 373.987559 
L 580.349015 359.154141 
L 580.509307 357.547697 
L 580.6696 358.110984 
L 580.990185 363.83908 
L 581.951941 385.530065 
L 582.593111 392.881086 
L 583.234282 400.543626 
L 583.875452 412.038179 
L 584.676916 426.836456 
L 584.997501 430.185196 
L 585.157793 430.873122 
L 585.318086 430.783713 
L 585.478379 429.844597 
L 585.798964 425.20894 
L 586.119549 416.723983 
L 586.600427 396.94094 
L 587.241598 359.605167 
L 589.325402 224.283398 
L 589.80628 205.641052 
L 590.287157 195.063059 
L 590.607743 192.594622 
L 590.768035 192.695779 
L 590.928328 193.650409 
L 591.248913 197.968246 
L 591.729791 209.753358 
L 592.370962 232.99574 
L 593.973888 305.036409 
L 594.935644 342.499449 
L 595.737107 365.46611 
L 596.378277 378.108452 
L 597.019448 386.225902 
L 597.500326 389.88202 
L 597.981203 391.933663 
L 598.301789 392.623163 
L 598.622374 392.90994 
L 598.942959 392.902454 
L 599.423837 392.54582 
L 600.866471 391.097238 
L 601.347349 390.931358 
L 601.828226 391.009104 
L 602.309104 391.322726 
L 602.950275 392.052016 
L 603.912031 393.588704 
L 606.31642 397.666119 
L 607.438468 399.04317 
L 608.400224 399.896339 
L 609.522272 400.582263 
L 610.804613 401.081919 
L 612.40754 401.457454 
L 613.209003 401.585701 
L 613.529588 133.608598 
L 613.850173 78.12 
L 614.010466 79.420594 
L 614.972222 129.748479 
L 615.132514 131.44041 
L 615.292807 131.081545 
L 615.613392 126.007207 
L 616.895733 97.139269 
L 617.216318 94.181539 
L 617.376611 93.64064 
L 617.536904 93.771092 
L 617.697196 94.615217 
L 618.017782 98.644691 
L 618.338367 330.738081 
L 618.498659 364.992902 
L 618.658952 375.209951 
L 618.819245 373.951227 
L 619.300123 359.115135 
L 619.460415 357.508231 
L 619.620708 358.071263 
L 619.941293 363.799401 
L 620.903049 385.493511 
L 621.544219 392.847757 
L 622.18539 400.513659 
L 622.82656 412.01148 
L 623.628023 426.813708 
L 623.948609 430.164014 
L 624.108901 430.852723 
L 624.269194 430.764097 
L 624.429487 429.825764 
L 624.750072 425.191672 
L 625.070657 416.708271 
L 625.551535 396.927519 
L 626.192705 359.594649 
L 628.27651 224.27991 
L 628.757387 205.638536 
L 629.238265 195.06128 
L 629.558851 192.593216 
L 629.719143 192.694529 
L 629.879436 193.649294 
L 630.200021 197.967348 
L 630.680899 209.752671 
L 631.322069 232.995174 
L 632.924996 305.03577 
L 633.886751 342.498737 
L 634.688215 365.465384 
L 635.329385 378.107749 
L 635.970556 386.225249 
L 636.451433 389.881416 
L 636.932311 391.933115 
L 637.252897 392.622654 
L 637.573482 392.90947 
L 637.894067 392.902023 
L 638.374945 392.545444 
L 639.817579 391.097003 
L 640.298456 390.931158 
L 640.779334 391.008934 
L 641.260212 391.322582 
L 641.901383 392.051898 
L 642.863138 393.588615 
L 645.267528 397.66607 
L 646.389576 399.043131 
L 647.351332 399.896307 
L 648.47338 400.582239 
L 649.755721 401.081901 
L 651.358648 401.457442 
L 653.763037 401.774673 
L 653.92333 401.789984 
L 654.243915 133.773789 
L 654.5645 78.256242 
L 654.724793 79.545334 
L 655.686548 129.829442 
L 655.846841 131.516624 
L 656.007134 131.153439 
L 656.327719 126.071522 
L 657.61006 97.183196 
L 657.930645 94.222209 
L 658.090938 93.679891 
L 658.25123 93.809048 
L 658.411523 94.651994 
L 658.732108 98.679418 
L 659.052694 330.776179 
L 659.212986 365.032768 
L 659.373279 375.25149 
L 659.533571 373.994266 
L 660.014449 359.16126 
L 660.174742 357.554878 
L 660.335035 358.118191 
L 660.65562 363.846246 
L 661.617376 385.536602 
L 662.258546 392.887021 
L 662.899717 400.548948 
L 663.540887 412.042914 
L 664.34235 426.840489 
L 664.662935 430.188952 
L 664.823228 430.87674 
L 664.983521 430.787193 
L 665.143813 429.847939 
L 665.464399 425.212006 
L 665.784984 416.726775 
L 666.265862 396.943327 
L 666.907032 359.607042 
L 668.990836 224.284025 
L 669.471714 205.641506 
L 669.952592 195.063381 
L 670.273177 192.594877 
L 670.43347 192.696006 
L 670.593763 193.650612 
L 670.914348 197.968409 
L 671.395226 209.753483 
L 672.036396 232.995842 
L 673.639322 305.036523 
L 674.601078 342.499575 
L 675.402541 365.466239 
L 676.043712 378.108576 
L 676.684882 386.226018 
L 677.16576 389.882127 
L 677.646638 391.93376 
L 677.967223 392.623254 
L 678.287809 392.910024 
L 678.608394 392.902531 
L 679.089272 392.545886 
L 680.531905 391.09728 
L 681.012783 390.931394 
L 681.493661 391.009134 
L 681.974539 391.322752 
L 682.615709 392.052037 
L 683.577465 393.588719 
L 685.981855 397.666128 
L 687.103903 399.043177 
L 688.065659 399.896344 
L 689.187707 400.582268 
L 690.470048 401.081922 
L 692.072974 401.457456 
L 694.156778 401.74238 
L 694.477364 133.735064 
L 694.797949 78.224119 
L 694.958242 79.515841 
L 695.919997 129.810004 
L 696.08029 131.498283 
L 696.240583 131.136099 
L 696.561168 126.055942 
L 697.843509 97.172451 
L 698.164094 94.212264 
L 698.324387 93.670299 
L 698.484679 93.799781 
L 698.644972 94.643026 
L 698.965557 98.670977 
L 699.286142 330.767007 
L 699.446435 365.023212 
L 699.606728 375.241573 
L 699.76702 373.984028 
L 700.247898 359.150383 
L 700.408191 357.543903 
L 700.568483 358.107173 
L 700.889069 363.835287 
L 701.850824 385.526597 
L 702.491995 392.877935 
L 703.133165 400.540798 
L 703.774336 412.035663 
L 704.575799 426.834313 
L 704.896384 430.183201 
L 705.056677 430.8712 
L 705.21697 430.781865 
L 705.377262 429.842822 
L 705.697847 425.207312 
L 706.018433 416.722501 
L 706.499311 396.939673 
L 707.140481 359.604173 
L 709.224285 224.283066 
L 709.705163 205.640812 
L 710.186041 195.062889 
L 710.506626 192.594487 
L 710.666919 192.69566 
L 710.827211 193.650302 
L 711.147797 197.96816 
L 711.628675 209.753292 
L 712.269845 232.995686 
L 713.872771 305.036349 
L 714.834527 342.499382 
L 715.63599 365.466042 
L 716.277161 378.108386 
L 716.918331 386.225841 
L 717.399209 389.881963 
L 717.880087 391.933611 
L 718.200672 392.623115 
L 718.521257 392.909896 
L 718.841843 392.902413 
L 719.322721 392.545784 
L 720.765354 391.097216 
L 721.246232 390.931339 
L 721.72711 391.009088 
L 722.207988 391.322713 
L 722.849158 392.052005 
L 723.810914 393.588695 
L 726.215303 397.666115 
L 727.337352 399.043166 
L 728.299108 399.896336 
L 729.421156 400.582261 
L 730.703497 401.081917 
L 732.306423 401.457453 
L 734.069642 401.707636 
L 734.390227 133.706889 
L 734.710813 78.200818 
L 734.871105 79.494479 
L 735.832861 129.796034 
L 735.993154 131.485118 
L 736.153446 131.123664 
L 736.474031 126.044794 
L 737.756372 97.164791 
L 738.076958 94.205169 
L 738.23725 93.663453 
L 738.397543 93.793162 
L 738.557836 94.636614 
L 738.878421 98.664929 
L 739.199006 330.760397 
L 739.359299 365.016309 
L 739.519591 375.234393 
L 739.679884 373.9766 
L 740.160762 359.142452 
L 740.321054 357.53589 
L 740.481347 358.09912 
L 740.801932 363.827261 
L 741.763688 385.519241 
L 742.404859 392.871242 
L 743.046029 400.53479 
L 743.6872 412.030315 
L 744.488663 426.829758 
L 744.809248 430.17896 
L 744.969541 430.867116 
L 745.129833 430.777937 
L 745.290126 429.839051 
L 745.610711 425.203854 
L 745.931296 416.719354 
L 746.412174 396.936983 
L 747.053345 359.602063 
L 749.137149 224.282363 
L 749.618027 205.640304 
L 750.098905 195.062529 
L 750.41949 192.594202 
L 750.579782 192.695406 
L 750.740075 193.650076 
L 751.06066 197.967977 
L 751.541538 209.753153 
L 752.182709 232.995571 
L 753.785635 305.036221 
L 754.747391 342.49924 
L 755.548854 365.465897 
L 756.190024 378.108245 
L 756.831195 386.22571 
L 757.312073 389.881842 
L 757.792951 391.933501 
L 758.113536 392.623013 
L 758.434121 392.909802 
L 758.754706 392.902327 
L 759.235584 392.545709 
L 760.678218 391.097169 
L 761.159096 390.931299 
L 761.639974 391.009054 
L 762.120851 391.322684 
L 762.762022 392.051981 
L 763.723778 393.588677 
L 766.128167 397.666105 
L 767.250215 399.043158 
L 768.211971 399.896329 
L 769.33402 400.582256 
L 770.616361 401.081914 
L 772.219287 401.45745 
L 773.822213 401.689262 
L 774.142798 133.69202 
L 774.463384 78.188545 
L 774.623676 79.483238 
L 775.585432 129.788722 
L 775.745725 131.478231 
L 775.906017 131.117166 
L 776.226602 126.038977 
L 777.508943 97.160807 
L 777.829529 94.201479 
L 777.989821 93.65989 
L 778.150114 93.789717 
L 778.310407 94.633276 
L 778.630992 98.661776 
L 778.951577 330.756941 
L 779.11187 365.012693 
L 779.272162 375.230627 
L 779.432455 373.972699 
L 779.913333 359.138274 
L 780.073625 357.531666 
L 780.233918 358.094871 
L 780.554503 363.823021 
L 781.516259 385.515344 
L 782.15743 392.867693 
L 782.7986 400.531602 
L 783.439771 412.027476 
L 784.241234 426.82734 
L 784.561819 430.176708 
L 784.722112 430.864948 
L 784.882404 430.775852 
L 785.042697 429.83705 
L 785.363282 425.202018 
L 785.683867 416.717684 
L 786.164745 396.935557 
L 786.805916 359.600944 
L 788.88972 224.281991 
L 789.370598 205.640036 
L 789.851476 195.062339 
L 790.172061 192.594052 
L 790.332353 192.695272 
L 790.492646 193.649957 
L 790.813231 197.967881 
L 791.294109 209.753079 
L 791.93528 232.995511 
L 793.538206 305.036153 
L 794.499962 342.499164 
L 795.301425 365.46582 
L 795.942595 378.10817 
L 796.583766 386.225641 
L 797.064644 389.881778 
L 797.545522 391.933443 
L 797.866107 392.622959 
L 798.186692 392.909752 
L 798.507277 392.902281 
L 798.988155 392.545669 
L 800.430789 391.097144 
L 800.911667 390.931278 
L 801.392545 391.009036 
L 801.873422 391.322668 
L 802.514593 392.051968 
L 803.476349 393.588668 
L 805.880738 397.6661 
L 807.002786 399.043154 
L 807.964542 399.896326 
L 809.086591 400.582254 
L 810.368932 401.081912 
L 811.971858 401.457449 
L 813.414491 401.67017 
L 813.735077 133.676592 
L 814.055662 78.175829 
L 814.215955 79.471598 
L 815.17771 129.781178 
L 815.338003 131.471132 
L 815.498296 131.110471 
L 815.818881 126.03299 
L 817.101222 97.156718 
L 817.421807 94.197692 
L 817.5821 93.656234 
L 817.742392 93.78618 
L 817.902685 94.629848 
L 818.22327 98.658537 
L 818.543855 330.753381 
L 818.704148 365.008965 
L 818.864441 375.22674 
L 819.024733 373.96867 
L 819.505611 359.13395 
L 819.665904 357.527292 
L 819.826196 358.090469 
L 820.146782 363.818625 
L 821.108537 385.511297 
L 821.749708 392.864004 
L 822.390878 400.528286 
L 823.032049 412.024522 
L 823.833512 426.824824 
L 824.154097 430.174365 
L 824.31439 430.862692 
L 824.474683 430.773683 
L 824.634975 429.834967 
L 824.95556 425.200109 
L 825.276146 416.715946 
L 825.757024 396.934072 
L 826.398194 359.599781 
L 828.481998 224.281606 
L 828.962876 205.639757 
L 829.443754 195.062142 
L 829.764339 192.593896 
L 829.924632 192.695134 
L 830.084924 193.649833 
L 830.40551 197.967782 
L 830.886388 209.753003 
L 831.527558 232.995448 
L 833.130484 305.036082 
L 834.09224 342.499085 
L 834.893703 365.465739 
L 835.534874 378.108093 
L 836.176044 386.225569 
L 836.656922 389.881711 
L 837.1378 391.933383 
L 837.458385 392.622903 
L 837.77897 392.9097 
L 838.099556 392.902233 
L 838.580434 392.545627 
L 840.023067 391.097118 
L 840.503945 390.931255 
L 840.984823 391.009017 
L 841.465701 391.322652 
L 842.106871 392.051955 
L 843.068627 393.588658 
L 845.473016 397.666094 
L 846.595065 399.04315 
L 847.556821 399.896323 
L 848.678869 400.582251 
L 849.96121 401.08191 
L 851.564136 401.457448 
L 853.968526 401.774677 
L 854.609696 401.832864 
L 854.930281 133.808794 
L 855.250867 78.285376 
L 855.411159 79.572124 
L 856.372915 129.84724 
L 856.533208 131.533436 
L 856.6935 131.169351 
L 857.014085 126.085843 
L 858.296426 97.193085 
L 858.617012 94.231347 
L 858.777304 93.688696 
L 858.937597 93.817545 
L 859.09789 94.660206 
L 859.418475 98.687123 
L 859.73906 330.784497 
L 859.899353 365.041408 
L 860.059645 375.260433 
L 860.219938 374.003478 
L 860.700816 359.170993 
L 860.861108 357.564684 
L 861.021401 358.128024 
L 861.341986 363.856004 
L 862.303742 385.545471 
L 862.944913 392.895064 
L 863.586083 400.556156 
L 864.227254 412.049326 
L 865.028717 426.845953 
L 865.349302 430.194044 
L 865.509595 430.881645 
L 865.669887 430.791912 
L 865.83018 429.852471 
L 866.150765 425.216166 
L 866.47135 416.730564 
L 866.952228 396.946569 
L 867.593399 359.60959 
L 869.677203 224.28488 
L 870.158081 205.642125 
L 870.638959 195.06382 
L 870.959544 192.595224 
L 871.119836 192.696316 
L 871.280129 193.650888 
L 871.600714 197.968631 
L 872.081592 209.753652 
L 872.722763 232.99598 
L 874.325689 305.036676 
L 875.287445 342.499746 
L 876.088908 365.466413 
L 876.730078 378.108745 
L 877.371249 386.226175 
L 877.852127 389.882272 
L 878.333005 391.933892 
L 878.65359 392.623377 
L 878.974175 392.910137 
L 879.29476 392.902635 
L 879.775638 392.545977 
L 881.218272 391.097338 
L 881.69915 390.931442 
L 882.180028 391.009176 
L 882.660905 391.322788 
L 883.302076 392.052065 
L 884.263832 393.588741 
L 886.668221 397.66614 
L 887.790269 399.043186 
L 888.752025 399.896352 
L 889.874074 400.582274 
L 891.156415 401.081926 
L 892.759341 401.457459 
L 894.362267 401.689268 
L 894.682852 133.692025 
L 895.003438 78.188549 
L 895.16373 79.483241 
L 896.125486 129.788724 
L 896.285779 131.478233 
L 896.446071 131.117168 
L 896.766656 126.038979 
L 898.048997 97.160808 
L 898.369583 94.20148 
L 898.529875 93.659891 
L 898.690168 93.789717 
L 898.850461 94.633277 
L 899.171046 98.661777 
L 899.491631 330.756941 
L 899.651924 365.012694 
L 899.812216 375.230628 
L 899.972509 373.9727 
L 900.453387 359.138275 
L 900.613679 357.531667 
L 900.773972 358.094872 
L 901.094557 363.823022 
L 902.056313 385.515345 
L 902.697484 392.867694 
L 903.338654 400.531603 
L 903.979825 412.027476 
L 904.781288 426.827341 
L 905.101873 430.176709 
L 905.262166 430.864948 
L 905.422458 430.775853 
L 905.582751 429.83705 
L 905.903336 425.202019 
L 906.223921 416.717684 
L 906.704799 396.935557 
L 907.34597 359.600945 
L 909.429774 224.281992 
L 909.910652 205.640036 
L 910.39153 195.062339 
L 910.712115 192.594052 
L 910.872407 192.695272 
L 911.0327 193.649957 
L 911.353285 197.967881 
L 911.834163 209.753079 
L 912.475334 232.995511 
L 914.07826 305.036153 
L 915.040016 342.499164 
L 915.841479 365.46582 
L 916.482649 378.10817 
L 917.12382 386.225641 
L 917.604698 389.881778 
L 918.085576 391.933443 
L 918.406161 392.622959 
L 918.726746 392.909752 
L 919.047331 392.902281 
L 919.528209 392.545669 
L 920.970843 391.097144 
L 921.451721 390.931278 
L 921.932599 391.009036 
L 922.413476 391.322668 
L 923.054647 392.051968 
L 924.016403 393.588668 
L 926.420792 397.6661 
L 927.54284 399.043154 
L 928.504596 399.896326 
L 929.626645 400.582254 
L 930.908986 401.081912 
L 932.511912 401.457449 
L 933.794253 401.650318 
L 933.954545 225.011812 
L 933.954545 225.011812 
" clip-path="url(#peede2b8ff6)" style="fill: none; stroke: #1f77b4; stroke-width: 1.5; stroke-linecap: square"/>
   </g>
   <g id="line2d_13">
    <path d="M 173.045455 110.469551 
L 177.693941 110.469551 
L 177.854233 402.215952 
L 213.278903 402.215952 
L 213.439196 110.469551 
L 218.087682 110.469551 
L 218.247975 402.215952 
L 253.99323 402.215952 
L 254.153523 110.469551 
L 258.802009 110.469551 
L 258.962302 402.215952 
L 293.585509 402.215952 
L 293.745801 110.469551 
L 298.394287 110.469551 
L 298.55458 402.215952 
L 333.818957 402.215952 
L 333.97925 110.469551 
L 338.627736 110.469551 
L 338.788029 402.215952 
L 373.090651 402.215952 
L 373.250943 110.469551 
L 377.899429 110.469551 
L 378.059722 402.215952 
L 413.644685 402.215952 
L 413.804977 110.469551 
L 418.453463 110.469551 
L 418.613756 402.215952 
L 453.557548 402.215952 
L 453.717841 110.469551 
L 458.366327 110.469551 
L 458.52662 402.215952 
L 493.630705 402.215952 
L 493.790997 110.469551 
L 498.439483 110.469551 
L 498.599776 402.215952 
L 533.864153 402.215952 
L 534.024446 110.469551 
L 538.672932 110.469551 
L 538.833225 402.215952 
L 574.257895 402.215952 
L 574.418188 110.469551 
L 579.066674 110.469551 
L 579.226966 402.215952 
L 613.209003 402.215952 
L 613.369295 110.469551 
L 618.017782 110.469551 
L 618.178074 402.215952 
L 653.92333 402.215952 
L 654.083622 110.469551 
L 658.732108 110.469551 
L 658.892401 402.215952 
L 694.156778 402.215952 
L 694.317071 110.469551 
L 698.965557 110.469551 
L 699.12585 402.215952 
L 734.069642 402.215952 
L 734.229935 110.469551 
L 738.878421 110.469551 
L 739.038713 402.215952 
L 773.822213 402.215952 
L 773.982506 110.469551 
L 778.630992 110.469551 
L 778.791284 402.215952 
L 813.414491 402.215952 
L 813.574784 110.469551 
L 818.22327 110.469551 
L 818.383563 402.215952 
L 854.609696 402.215952 
L 854.769989 110.469551 
L 859.418475 110.469551 
L 859.578767 402.215952 
L 894.362267 402.215952 
L 894.52256 110.469551 
L 899.171046 110.469551 
L 899.331338 402.215952 
L 933.794253 402.215952 
L 933.954545 110.469551 
L 933.954545 110.469551 
" clip-path="url(#peede2b8ff6)" style="fill: none; stroke: #ff7f0e; stroke-width: 1.5; stroke-linecap: square"/>
   </g>
   <g id="line2d_14">
    <path d="M 929.466352 402.215952 
" clip-path="url(#peede2b8ff6)" style="fill: none; stroke: #000000; stroke-width: 1.5; stroke-linecap: square"/>
    <defs>
     <path id="m6bb0bd38b7" d="M 0 1 
C 0.265203 1 0.51958 0.894634 0.707107 0.707107 
C 0.894634 0.51958 1 0.265203 1 0 
C 1 -0.265203 0.894634 -0.51958 0.707107 -0.707107 
C 0.51958 -0.894634 0.265203 -1 0 -1 
C -0.265203 -1 -0.51958 -0.894634 -0.707107 -0.707107 
C -0.894634 -0.51958 -1 -0.265203 -1 0 
C -1 0.265203 -0.894634 0.51958 -0.707107 0.707107 
C -0.51958 0.894634 -0.265203 1 0 1 
z
" style="stroke: #000000"/>
    </defs>
    <g clip-path="url(#peede2b8ff6)">
     <use xlink:href="#m6bb0bd38b7" x="173.045455" y="110.469551" style="stroke: #000000"/>
     <use xlink:href="#m6bb0bd38b7" x="178.174819" y="402.215952" style="stroke: #000000"/>
     <use xlink:href="#m6bb0bd38b7" x="183.14389" y="402.215952" style="stroke: #000000"/>
     <use xlink:href="#m6bb0bd38b7" x="188.112961" y="110.469551" style="stroke: #000000"/>
     <use xlink:href="#m6bb0bd38b7" x="193.082033" y="402.215952" style="stroke: #000000"/>
     <use xlink:href="#m6bb0bd38b7" x="198.211397" y="402.215952" style="stroke: #000000"/>
     <use xlink:href="#m6bb0bd38b7" x="203.180468" y="110.469551" style="stroke: #000000"/>
     <use xlink:href="#m6bb0bd38b7" x="208.149539" y="402.215952" style="stroke: #000000"/>
     <use xlink:href="#m6bb0bd38b7" x="213.118611" y="110.469551" style="stroke: #000000"/>
     <use xlink:href="#m6bb0bd38b7" x="218.247975" y="402.215952" style="stroke: #000000"/>
     <use xlink:href="#m6bb0bd38b7" x="223.217046" y="402.215952" style="stroke: #000000"/>
     <use xlink:href="#m6bb0bd38b7" x="228.186118" y="110.469551" style="stroke: #000000"/>
     <use xlink:href="#m6bb0bd38b7" x="233.155189" y="402.215952" style="stroke: #000000"/>
     <use xlink:href="#m6bb0bd38b7" x="238.284553" y="402.215952" style="stroke: #000000"/>
     <use xlink:href="#m6bb0bd38b7" x="243.253624" y="110.469551" style="stroke: #000000"/>
     <use xlink:href="#m6bb0bd38b7" x="248.222696" y="402.215952" style="stroke: #000000"/>
     <use xlink:href="#m6bb0bd38b7" x="253.191767" y="110.469551" style="stroke: #000000"/>
     <use xlink:href="#m6bb0bd38b7" x="258.321131" y="402.215952" style="stroke: #000000"/>
     <use xlink:href="#m6bb0bd38b7" x="263.290202" y="402.215952" style="stroke: #000000"/>
     <use xlink:href="#m6bb0bd38b7" x="268.259274" y="110.469551" style="stroke: #000000"/>
     <use xlink:href="#m6bb0bd38b7" x="273.228345" y="402.215952" style="stroke: #000000"/>
     <use xlink:href="#m6bb0bd38b7" x="278.357709" y="402.215952" style="stroke: #000000"/>
     <use xlink:href="#m6bb0bd38b7" x="283.326781" y="110.469551" style="stroke: #000000"/>
     <use xlink:href="#m6bb0bd38b7" x="288.295852" y="402.215952" style="stroke: #000000"/>
     <use xlink:href="#m6bb0bd38b7" x="293.264923" y="110.469551" style="stroke: #000000"/>
     <use xlink:href="#m6bb0bd38b7" x="298.394287" y="402.215952" style="stroke: #000000"/>
     <use xlink:href="#m6bb0bd38b7" x="303.363359" y="402.215952" style="stroke: #000000"/>
     <use xlink:href="#m6bb0bd38b7" x="308.33243" y="110.469551" style="stroke: #000000"/>
     <use xlink:href="#m6bb0bd38b7" x="313.301501" y="402.215952" style="stroke: #000000"/>
     <use xlink:href="#m6bb0bd38b7" x="318.430865" y="402.215952" style="stroke: #000000"/>
     <use xlink:href="#m6bb0bd38b7" x="323.399937" y="110.469551" style="stroke: #000000"/>
     <use xlink:href="#m6bb0bd38b7" x="328.369008" y="402.215952" style="stroke: #000000"/>
     <use xlink:href="#m6bb0bd38b7" x="333.33808" y="110.469551" style="stroke: #000000"/>
     <use xlink:href="#m6bb0bd38b7" x="338.467444" y="402.215952" style="stroke: #000000"/>
     <use xlink:href="#m6bb0bd38b7" x="343.436515" y="402.215952" style="stroke: #000000"/>
     <use xlink:href="#m6bb0bd38b7" x="348.405586" y="110.469551" style="stroke: #000000"/>
     <use xlink:href="#m6bb0bd38b7" x="353.374658" y="402.215952" style="stroke: #000000"/>
     <use xlink:href="#m6bb0bd38b7" x="358.504022" y="402.215952" style="stroke: #000000"/>
     <use xlink:href="#m6bb0bd38b7" x="363.473093" y="110.469551" style="stroke: #000000"/>
     <use xlink:href="#m6bb0bd38b7" x="368.442164" y="402.215952" style="stroke: #000000"/>
     <use xlink:href="#m6bb0bd38b7" x="373.411236" y="110.469551" style="stroke: #000000"/>
     <use xlink:href="#m6bb0bd38b7" x="378.5406" y="402.215952" style="stroke: #000000"/>
     <use xlink:href="#m6bb0bd38b7" x="383.509671" y="402.215952" style="stroke: #000000"/>
     <use xlink:href="#m6bb0bd38b7" x="388.478743" y="110.469551" style="stroke: #000000"/>
     <use xlink:href="#m6bb0bd38b7" x="393.447814" y="402.215952" style="stroke: #000000"/>
     <use xlink:href="#m6bb0bd38b7" x="398.577178" y="402.215952" style="stroke: #000000"/>
     <use xlink:href="#m6bb0bd38b7" x="403.546249" y="110.469551" style="stroke: #000000"/>
     <use xlink:href="#m6bb0bd38b7" x="408.515321" y="402.215952" style="stroke: #000000"/>
     <use xlink:href="#m6bb0bd38b7" x="413.484392" y="110.469551" style="stroke: #000000"/>
     <use xlink:href="#m6bb0bd38b7" x="418.613756" y="402.215952" style="stroke: #000000"/>
     <use xlink:href="#m6bb0bd38b7" x="423.582827" y="402.215952" style="stroke: #000000"/>
     <use xlink:href="#m6bb0bd38b7" x="428.551899" y="110.469551" style="stroke: #000000"/>
     <use xlink:href="#m6bb0bd38b7" x="433.52097" y="402.215952" style="stroke: #000000"/>
     <use xlink:href="#m6bb0bd38b7" x="438.650334" y="402.215952" style="stroke: #000000"/>
     <use xlink:href="#m6bb0bd38b7" x="443.619406" y="110.469551" style="stroke: #000000"/>
     <use xlink:href="#m6bb0bd38b7" x="448.588477" y="402.215952" style="stroke: #000000"/>
     <use xlink:href="#m6bb0bd38b7" x="453.557548" y="110.469551" style="stroke: #000000"/>
     <use xlink:href="#m6bb0bd38b7" x="458.686912" y="402.215952" style="stroke: #000000"/>
     <use xlink:href="#m6bb0bd38b7" x="463.655984" y="402.215952" style="stroke: #000000"/>
     <use xlink:href="#m6bb0bd38b7" x="468.625055" y="110.469551" style="stroke: #000000"/>
     <use xlink:href="#m6bb0bd38b7" x="473.594126" y="402.215952" style="stroke: #000000"/>
     <use xlink:href="#m6bb0bd38b7" x="478.72349" y="402.215952" style="stroke: #000000"/>
     <use xlink:href="#m6bb0bd38b7" x="483.692562" y="110.469551" style="stroke: #000000"/>
     <use xlink:href="#m6bb0bd38b7" x="488.661633" y="402.215952" style="stroke: #000000"/>
     <use xlink:href="#m6bb0bd38b7" x="493.630705" y="110.469551" style="stroke: #000000"/>
     <use xlink:href="#m6bb0bd38b7" x="498.760069" y="402.215952" style="stroke: #000000"/>
     <use xlink:href="#m6bb0bd38b7" x="503.72914" y="402.215952" style="stroke: #000000"/>
     <use xlink:href="#m6bb0bd38b7" x="508.698211" y="110.469551" style="stroke: #000000"/>
     <use xlink:href="#m6bb0bd38b7" x="513.667283" y="402.215952" style="stroke: #000000"/>
     <use xlink:href="#m6bb0bd38b7" x="518.796647" y="402.215952" style="stroke: #000000"/>
     <use xlink:href="#m6bb0bd38b7" x="523.765718" y="110.469551" style="stroke: #000000"/>
     <use xlink:href="#m6bb0bd38b7" x="528.734789" y="402.215952" style="stroke: #000000"/>
     <use xlink:href="#m6bb0bd38b7" x="533.703861" y="110.469551" style="stroke: #000000"/>
     <use xlink:href="#m6bb0bd38b7" x="538.833225" y="402.215952" style="stroke: #000000"/>
     <use xlink:href="#m6bb0bd38b7" x="543.802296" y="402.215952" style="stroke: #000000"/>
     <use xlink:href="#m6bb0bd38b7" x="548.771368" y="110.469551" style="stroke: #000000"/>
     <use xlink:href="#m6bb0bd38b7" x="553.740439" y="402.215952" style="stroke: #000000"/>
     <use xlink:href="#m6bb0bd38b7" x="558.869803" y="402.215952" style="stroke: #000000"/>
     <use xlink:href="#m6bb0bd38b7" x="563.838874" y="110.469551" style="stroke: #000000"/>
     <use xlink:href="#m6bb0bd38b7" x="568.807946" y="402.215952" style="stroke: #000000"/>
     <use xlink:href="#m6bb0bd38b7" x="573.777017" y="110.469551" style="stroke: #000000"/>
     <use xlink:href="#m6bb0bd38b7" x="578.906381" y="402.215952" style="stroke: #000000"/>
     <use xlink:href="#m6bb0bd38b7" x="583.875452" y="402.215952" style="stroke: #000000"/>
     <use xlink:href="#m6bb0bd38b7" x="588.844524" y="110.469551" style="stroke: #000000"/>
     <use xlink:href="#m6bb0bd38b7" x="593.813595" y="402.215952" style="stroke: #000000"/>
     <use xlink:href="#m6bb0bd38b7" x="598.942959" y="402.215952" style="stroke: #000000"/>
     <use xlink:href="#m6bb0bd38b7" x="603.912031" y="110.469551" style="stroke: #000000"/>
     <use xlink:href="#m6bb0bd38b7" x="608.881102" y="402.215952" style="stroke: #000000"/>
     <use xlink:href="#m6bb0bd38b7" x="613.850173" y="110.469551" style="stroke: #000000"/>
     <use xlink:href="#m6bb0bd38b7" x="618.979537" y="402.215952" style="stroke: #000000"/>
     <use xlink:href="#m6bb0bd38b7" x="623.948609" y="402.215952" style="stroke: #000000"/>
     <use xlink:href="#m6bb0bd38b7" x="628.91768" y="110.469551" style="stroke: #000000"/>
     <use xlink:href="#m6bb0bd38b7" x="633.886751" y="402.215952" style="stroke: #000000"/>
     <use xlink:href="#m6bb0bd38b7" x="639.016115" y="402.215952" style="stroke: #000000"/>
     <use xlink:href="#m6bb0bd38b7" x="643.985187" y="110.469551" style="stroke: #000000"/>
     <use xlink:href="#m6bb0bd38b7" x="648.954258" y="402.215952" style="stroke: #000000"/>
     <use xlink:href="#m6bb0bd38b7" x="653.92333" y="110.469551" style="stroke: #000000"/>
     <use xlink:href="#m6bb0bd38b7" x="659.052694" y="402.215952" style="stroke: #000000"/>
     <use xlink:href="#m6bb0bd38b7" x="664.021765" y="402.215952" style="stroke: #000000"/>
     <use xlink:href="#m6bb0bd38b7" x="668.990836" y="110.469551" style="stroke: #000000"/>
     <use xlink:href="#m6bb0bd38b7" x="673.959908" y="402.215952" style="stroke: #000000"/>
     <use xlink:href="#m6bb0bd38b7" x="679.089272" y="402.215952" style="stroke: #000000"/>
     <use xlink:href="#m6bb0bd38b7" x="684.058343" y="110.469551" style="stroke: #000000"/>
     <use xlink:href="#m6bb0bd38b7" x="689.027414" y="402.215952" style="stroke: #000000"/>
     <use xlink:href="#m6bb0bd38b7" x="693.996486" y="110.469551" style="stroke: #000000"/>
     <use xlink:href="#m6bb0bd38b7" x="699.12585" y="402.215952" style="stroke: #000000"/>
     <use xlink:href="#m6bb0bd38b7" x="704.094921" y="402.215952" style="stroke: #000000"/>
     <use xlink:href="#m6bb0bd38b7" x="709.063993" y="110.469551" style="stroke: #000000"/>
     <use xlink:href="#m6bb0bd38b7" x="714.033064" y="402.215952" style="stroke: #000000"/>
     <use xlink:href="#m6bb0bd38b7" x="719.162428" y="402.215952" style="stroke: #000000"/>
     <use xlink:href="#m6bb0bd38b7" x="724.131499" y="110.469551" style="stroke: #000000"/>
     <use xlink:href="#m6bb0bd38b7" x="729.100571" y="402.215952" style="stroke: #000000"/>
     <use xlink:href="#m6bb0bd38b7" x="734.069642" y="110.469551" style="stroke: #000000"/>
     <use xlink:href="#m6bb0bd38b7" x="739.199006" y="402.215952" style="stroke: #000000"/>
     <use xlink:href="#m6bb0bd38b7" x="744.168077" y="402.215952" style="stroke: #000000"/>
     <use xlink:href="#m6bb0bd38b7" x="749.137149" y="110.469551" style="stroke: #000000"/>
     <use xlink:href="#m6bb0bd38b7" x="754.10622" y="402.215952" style="stroke: #000000"/>
     <use xlink:href="#m6bb0bd38b7" x="759.235584" y="402.215952" style="stroke: #000000"/>
     <use xlink:href="#m6bb0bd38b7" x="764.204656" y="110.469551" style="stroke: #000000"/>
     <use xlink:href="#m6bb0bd38b7" x="769.173727" y="402.215952" style="stroke: #000000"/>
     <use xlink:href="#m6bb0bd38b7" x="774.142798" y="110.469551" style="stroke: #000000"/>
     <use xlink:href="#m6bb0bd38b7" x="779.272162" y="402.215952" style="stroke: #000000"/>
     <use xlink:href="#m6bb0bd38b7" x="784.241234" y="402.215952" style="stroke: #000000"/>
     <use xlink:href="#m6bb0bd38b7" x="789.210305" y="110.469551" style="stroke: #000000"/>
     <use xlink:href="#m6bb0bd38b7" x="794.179376" y="402.215952" style="stroke: #000000"/>
     <use xlink:href="#m6bb0bd38b7" x="799.30874" y="402.215952" style="stroke: #000000"/>
     <use xlink:href="#m6bb0bd38b7" x="804.277812" y="110.469551" style="stroke: #000000"/>
     <use xlink:href="#m6bb0bd38b7" x="809.246883" y="402.215952" style="stroke: #000000"/>
     <use xlink:href="#m6bb0bd38b7" x="814.215955" y="110.469551" style="stroke: #000000"/>
     <use xlink:href="#m6bb0bd38b7" x="819.345319" y="402.215952" style="stroke: #000000"/>
     <use xlink:href="#m6bb0bd38b7" x="824.31439" y="402.215952" style="stroke: #000000"/>
     <use xlink:href="#m6bb0bd38b7" x="829.283461" y="110.469551" style="stroke: #000000"/>
     <use xlink:href="#m6bb0bd38b7" x="834.252533" y="402.215952" style="stroke: #000000"/>
     <use xlink:href="#m6bb0bd38b7" x="839.381897" y="402.215952" style="stroke: #000000"/>
     <use xlink:href="#m6bb0bd38b7" x="844.350968" y="110.469551" style="stroke: #000000"/>
     <use xlink:href="#m6bb0bd38b7" x="849.320039" y="402.215952" style="stroke: #000000"/>
     <use xlink:href="#m6bb0bd38b7" x="854.289111" y="110.469551" style="stroke: #000000"/>
     <use xlink:href="#m6bb0bd38b7" x="859.418475" y="402.215952" style="stroke: #000000"/>
     <use xlink:href="#m6bb0bd38b7" x="864.387546" y="402.215952" style="stroke: #000000"/>
     <use xlink:href="#m6bb0bd38b7" x="869.356618" y="110.469551" style="stroke: #000000"/>
     <use xlink:href="#m6bb0bd38b7" x="874.325689" y="402.215952" style="stroke: #000000"/>
     <use xlink:href="#m6bb0bd38b7" x="879.455053" y="402.215952" style="stroke: #000000"/>
     <use xlink:href="#m6bb0bd38b7" x="884.424124" y="110.469551" style="stroke: #000000"/>
     <use xlink:href="#m6bb0bd38b7" x="889.393196" y="402.215952" style="stroke: #000000"/>
     <use xlink:href="#m6bb0bd38b7" x="894.362267" y="110.469551" style="stroke: #000000"/>
     <use xlink:href="#m6bb0bd38b7" x="899.491631" y="402.215952" style="stroke: #000000"/>
     <use xlink:href="#m6bb0bd38b7" x="904.460702" y="402.215952" style="stroke: #000000"/>
     <use xlink:href="#m6bb0bd38b7" x="909.429774" y="110.469551" style="stroke: #000000"/>
     <use xlink:href="#m6bb0bd38b7" x="914.398845" y="402.215952" style="stroke: #000000"/>
     <use xlink:href="#m6bb0bd38b7" x="919.528209" y="402.215952" style="stroke: #000000"/>
     <use xlink:href="#m6bb0bd38b7" x="924.497281" y="110.469551" style="stroke: #000000"/>
     <use xlink:href="#m6bb0bd38b7" x="929.466352" y="402.215952" style="stroke: #000000"/>
    </g>
   </g>
   <g id="patch_3">
    <path d="M 135 448.56 
L 135 60.48 
" style="fill: none; stroke: #000000; stroke-width: 0.8; stroke-linejoin: miter; stroke-linecap: square"/>
   </g>
   <g id="patch_4">
    <path d="M 972 448.56 
L 972 60.48 
" style="fill: none; stroke: #000000; stroke-width: 0.8; stroke-linejoin: miter; stroke-linecap: square"/>
   </g>
   <g id="patch_5">
    <path d="M 135 448.56 
L 972 448.56 
" style="fill: none; stroke: #000000; stroke-width: 0.8; stroke-linejoin: miter; stroke-linecap: square"/>
   </g>
   <g id="patch_6">
    <path d="M 135 60.48 
L 972 60.48 
" style="fill: none; stroke: #000000; stroke-width: 0.8; stroke-linejoin: miter; stroke-linecap: square"/>
   </g>
   <g id="legend_1">
    <g id="patch_7">
     <path d="M 895.915625 278.315313 
L 965 278.315313 
Q 967 278.315313 967 276.315313 
L 967 232.724688 
Q 967 230.724688 965 230.724688 
L 895.915625 230.724688 
Q 893.915625 230.724688 893.915625 232.724688 
L 893.915625 276.315313 
Q 893.915625 278.315313 895.915625 278.315313 
z
" style="fill: #ffffff; opacity: 0.8; stroke: #cccccc; stroke-linejoin: miter"/>
    </g>
    <g id="line2d_15">
     <path d="M 897.915625 238.823125 
L 907.915625 238.823125 
L 917.915625 238.823125 
" style="fill: none; stroke: #1f77b4; stroke-width: 1.5; stroke-linecap: square"/>
    </g>
    <g id="text_13">
     <!-- nw_0 -->
     <g transform="translate(925.915625 242.323125) scale(0.1 -0.1)">
      <defs>
       <path id="DejaVuSans-6e" d="M 3513 2113 
L 3513 0 
L 2938 0 
L 2938 2094 
Q 2938 2591 2744 2837 
Q 2550 3084 2163 3084 
Q 1697 3084 1428 2787 
Q 1159 2491 1159 1978 
L 1159 0 
L 581 0 
L 581 3500 
L 1159 3500 
L 1159 2956 
Q 1366 3272 1645 3428 
Q 1925 3584 2291 3584 
Q 2894 3584 3203 3211 
Q 3513 2838 3513 2113 
z
" transform="scale(0.015625)"/>
       <path id="DejaVuSans-77" d="M 269 3500 
L 844 3500 
L 1563 769 
L 2278 3500 
L 2956 3500 
L 3675 769 
L 4391 3500 
L 4966 3500 
L 4050 0 
L 3372 0 
L 2619 2869 
L 1863 0 
L 1184 0 
L 269 3500 
z
" transform="scale(0.015625)"/>
       <path id="DejaVuSans-5f" d="M 3263 -1063 
L 3263 -1509 
L -63 -1509 
L -63 -1063 
L 3263 -1063 
z
" transform="scale(0.015625)"/>
      </defs>
      <use xlink:href="#DejaVuSans-6e"/>
      <use xlink:href="#DejaVuSans-77" x="63.378906"/>
      <use xlink:href="#DejaVuSans-5f" x="145.166016"/>
      <use xlink:href="#DejaVuSans-30" x="195.166016"/>
     </g>
    </g>
    <g id="line2d_16">
     <path d="M 897.915625 253.779375 
L 907.915625 253.779375 
L 917.915625 253.779375 
" style="fill: none; stroke: #ff7f0e; stroke-width: 1.5; stroke-linecap: square"/>
    </g>
    <g id="text_14">
     <!-- input_0 -->
     <g transform="translate(925.915625 257.279375) scale(0.1 -0.1)">
      <defs>
       <path id="DejaVuSans-69" d="M 603 3500 
L 1178 3500 
L 1178 0 
L 603 0 
L 603 3500 
z
M 603 4863 
L 1178 4863 
L 1178 4134 
L 603 4134 
L 603 4863 
z
" transform="scale(0.015625)"/>
       <path id="DejaVuSans-70" d="M 1159 525 
L 1159 -1331 
L 581 -1331 
L 581 3500 
L 1159 3500 
L 1159 2969 
Q 1341 3281 1617 3432 
Q 1894 3584 2278 3584 
Q 2916 3584 3314 3078 
Q 3713 2572 3713 1747 
Q 3713 922 3314 415 
Q 2916 -91 2278 -91 
Q 1894 -91 1617 61 
Q 1341 213 1159 525 
z
M 3116 1747 
Q 3116 2381 2855 2742 
Q 2594 3103 2138 3103 
Q 1681 3103 1420 2742 
Q 1159 2381 1159 1747 
Q 1159 1113 1420 752 
Q 1681 391 2138 391 
Q 2594 391 2855 752 
Q 3116 1113 3116 1747 
z
" transform="scale(0.015625)"/>
       <path id="DejaVuSans-75" d="M 544 1381 
L 544 3500 
L 1119 3500 
L 1119 1403 
Q 1119 906 1312 657 
Q 1506 409 1894 409 
Q 2359 409 2629 706 
Q 2900 1003 2900 1516 
L 2900 3500 
L 3475 3500 
L 3475 0 
L 2900 0 
L 2900 538 
Q 2691 219 2414 64 
Q 2138 -91 1772 -91 
Q 1169 -91 856 284 
Q 544 659 544 1381 
z
M 1991 3584 
L 1991 3584 
z
" transform="scale(0.015625)"/>
      </defs>
      <use xlink:href="#DejaVuSans-69"/>
      <use xlink:href="#DejaVuSans-6e" x="27.783203"/>
      <use xlink:href="#DejaVuSans-70" x="91.162109"/>
      <use xlink:href="#DejaVuSans-75" x="154.638672"/>
      <use xlink:href="#DejaVuSans-74" x="218.017578"/>
      <use xlink:href="#DejaVuSans-5f" x="257.226562"/>
      <use xlink:href="#DejaVuSans-30" x="307.226562"/>
     </g>
    </g>
    <g id="line2d_17">
     <path d="M 897.915625 268.735625 
L 907.915625 268.735625 
L 917.915625 268.735625 
" style="fill: none; stroke: #000000; stroke-width: 1.5; stroke-linecap: square"/>
     <g>
      <use xlink:href="#m6bb0bd38b7" x="907.915625" y="268.735625" style="stroke: #000000"/>
     </g>
    </g>
    <g id="text_15">
     <!-- target -->
     <g transform="translate(925.915625 272.235625) scale(0.1 -0.1)">
      <defs>
       <path id="DejaVuSans-61" d="M 2194 1759 
Q 1497 1759 1228 1600 
Q 959 1441 959 1056 
Q 959 750 1161 570 
Q 1363 391 1709 391 
Q 2188 391 2477 730 
Q 2766 1069 2766 1631 
L 2766 1759 
L 2194 1759 
z
M 3341 1997 
L 3341 0 
L 2766 0 
L 2766 531 
Q 2569 213 2275 61 
Q 1981 -91 1556 -91 
Q 1019 -91 701 211 
Q 384 513 384 1019 
Q 384 1609 779 1909 
Q 1175 2209 1959 2209 
L 2766 2209 
L 2766 2266 
Q 2766 2663 2505 2880 
Q 2244 3097 1772 3097 
Q 1472 3097 1187 3025 
Q 903 2953 641 2809 
L 641 3341 
Q 956 3463 1253 3523 
Q 1550 3584 1831 3584 
Q 2591 3584 2966 3190 
Q 3341 2797 3341 1997 
z
" transform="scale(0.015625)"/>
       <path id="DejaVuSans-72" d="M 2631 2963 
Q 2534 3019 2420 3045 
Q 2306 3072 2169 3072 
Q 1681 3072 1420 2755 
Q 1159 2438 1159 1844 
L 1159 0 
L 581 0 
L 581 3500 
L 1159 3500 
L 1159 2956 
Q 1341 3275 1631 3429 
Q 1922 3584 2338 3584 
Q 2397 3584 2469 3576 
Q 2541 3569 2628 3553 
L 2631 2963 
z
" transform="scale(0.015625)"/>
       <path id="DejaVuSans-67" d="M 2906 1791 
Q 2906 2416 2648 2759 
Q 2391 3103 1925 3103 
Q 1463 3103 1205 2759 
Q 947 2416 947 1791 
Q 947 1169 1205 825 
Q 1463 481 1925 481 
Q 2391 481 2648 825 
Q 2906 1169 2906 1791 
z
M 3481 434 
Q 3481 -459 3084 -895 
Q 2688 -1331 1869 -1331 
Q 1566 -1331 1297 -1286 
Q 1028 -1241 775 -1147 
L 775 -588 
Q 1028 -725 1275 -790 
Q 1522 -856 1778 -856 
Q 2344 -856 2625 -561 
Q 2906 -266 2906 331 
L 2906 616 
Q 2728 306 2450 153 
Q 2172 0 1784 0 
Q 1141 0 747 490 
Q 353 981 353 1791 
Q 353 2603 747 3093 
Q 1141 3584 1784 3584 
Q 2172 3584 2450 3431 
Q 2728 3278 2906 2969 
L 2906 3500 
L 3481 3500 
L 3481 434 
z
" transform="scale(0.015625)"/>
       <path id="DejaVuSans-65" d="M 3597 1894 
L 3597 1613 
L 953 1613 
Q 991 1019 1311 708 
Q 1631 397 2203 397 
Q 2534 397 2845 478 
Q 3156 559 3463 722 
L 3463 178 
Q 3153 47 2828 -22 
Q 2503 -91 2169 -91 
Q 1331 -91 842 396 
Q 353 884 353 1716 
Q 353 2575 817 3079 
Q 1281 3584 2069 3584 
Q 2775 3584 3186 3129 
Q 3597 2675 3597 1894 
z
M 3022 2063 
Q 3016 2534 2758 2815 
Q 2500 3097 2075 3097 
Q 1594 3097 1305 2825 
Q 1016 2553 972 2059 
L 3022 2063 
z
" transform="scale(0.015625)"/>
      </defs>
      <use xlink:href="#DejaVuSans-74"/>
      <use xlink:href="#DejaVuSans-61" x="39.208984"/>
      <use xlink:href="#DejaVuSans-72" x="100.488281"/>
      <use xlink:href="#DejaVuSans-67" x="139.851562"/>
      <use xlink:href="#DejaVuSans-65" x="203.328125"/>
      <use xlink:href="#DejaVuSans-74" x="264.851562"/>
     </g>
    </g>
   </g>
  </g>
 </g>
 <defs>
  <clipPath id="peede2b8ff6">
   <rect x="135" y="60.48" width="837" height="388.08"/>
  </clipPath>
 </defs>
</svg>
