<?xml version="1.0" encoding="utf-8" standalone="no"?>
<!DOCTYPE svg PUBLIC "-//W3C//DTD SVG 1.1//EN"
  "http://www.w3.org/Graphics/SVG/1.1/DTD/svg11.dtd">
<svg xmlns:xlink="http://www.w3.org/1999/xlink" width="1080pt" height="504pt" viewBox="0 0 1080 504" xmlns="http://www.w3.org/2000/svg" version="1.1">
 <metadata>
  <rdf:RDF xmlns:dc="http://purl.org/dc/elements/1.1/" xmlns:cc="http://creativecommons.org/ns#" xmlns:rdf="http://www.w3.org/1999/02/22-rdf-syntax-ns#">
   <cc:Work>
    <dc:type rdf:resource="http://purl.org/dc/dcmitype/StillImage"/>
    <dc:date>2024-05-09T11:06:46.707771</dc:date>
    <dc:format>image/svg+xml</dc:format>
    <dc:creator>
     <cc:Agent>
      <dc:title>Matplotlib v3.7.1, https://matplotlib.org/</dc:title>
     </cc:Agent>
    </dc:creator>
   </cc:Work>
  </rdf:RDF>
 </metadata>
 <defs>
  <style type="text/css">*{stroke-linejoin: round; stroke-linecap: butt}</style>
 </defs>
 <g id="figure_1">
  <g id="patch_1">
   <path d="M 0 504 
L 1080 504 
L 1080 0 
L 0 0 
z
" style="fill: #ffffff"/>
  </g>
  <g id="axes_1">
   <g id="patch_2">
    <path d="M 135 448.56 
L 972 448.56 
L 972 60.48 
L 135 60.48 
z
" style="fill: #ffffff"/>
   </g>
   <g id="matplotlib.axis_1">
    <g id="xtick_1">
     <g id="line2d_1">
      <defs>
       <path id="m82361c8afd" d="M 0 0 
L 0 3.5 
" style="stroke: #000000; stroke-width: 0.8"/>
      </defs>
      <g>
       <use xlink:href="#m82361c8afd" x="173.045455" y="448.56" style="stroke: #000000; stroke-width: 0.8"/>
      </g>
     </g>
     <g id="text_1">
      <!-- 0 -->
      <g transform="translate(169.864205 463.158437) scale(0.1 -0.1)">
       <defs>
        <path id="DejaVuSans-30" d="M 2034 4250 
Q 1547 4250 1301 3770 
Q 1056 3291 1056 2328 
Q 1056 1369 1301 889 
Q 1547 409 2034 409 
Q 2525 409 2770 889 
Q 3016 1369 3016 2328 
Q 3016 3291 2770 3770 
Q 2525 4250 2034 4250 
z
M 2034 4750 
Q 2819 4750 3233 4129 
Q 3647 3509 3647 2328 
Q 3647 1150 3233 529 
Q 2819 -91 2034 -91 
Q 1250 -91 836 529 
Q 422 1150 422 2328 
Q 422 3509 836 4129 
Q 1250 4750 2034 4750 
z
" transform="scale(0.015625)"/>
       </defs>
       <use xlink:href="#DejaVuSans-30"/>
      </g>
     </g>
    </g>
    <g id="xtick_2">
     <g id="line2d_2">
      <g>
       <use xlink:href="#m82361c8afd" x="333.33808" y="448.56" style="stroke: #000000; stroke-width: 0.8"/>
      </g>
     </g>
     <g id="text_2">
      <!-- 1000 -->
      <g transform="translate(320.61308 463.158437) scale(0.1 -0.1)">
       <defs>
        <path id="DejaVuSans-31" d="M 794 531 
L 1825 531 
L 1825 4091 
L 703 3866 
L 703 4441 
L 1819 4666 
L 2450 4666 
L 2450 531 
L 3481 531 
L 3481 0 
L 794 0 
L 794 531 
z
" transform="scale(0.015625)"/>
       </defs>
       <use xlink:href="#DejaVuSans-31"/>
       <use xlink:href="#DejaVuSans-30" x="63.623047"/>
       <use xlink:href="#DejaVuSans-30" x="127.246094"/>
       <use xlink:href="#DejaVuSans-30" x="190.869141"/>
      </g>
     </g>
    </g>
    <g id="xtick_3">
     <g id="line2d_3">
      <g>
       <use xlink:href="#m82361c8afd" x="493.630705" y="448.56" style="stroke: #000000; stroke-width: 0.8"/>
      </g>
     </g>
     <g id="text_3">
      <!-- 2000 -->
      <g transform="translate(480.905705 463.158437) scale(0.1 -0.1)">
       <defs>
        <path id="DejaVuSans-32" d="M 1228 531 
L 3431 531 
L 3431 0 
L 469 0 
L 469 531 
Q 828 903 1448 1529 
Q 2069 2156 2228 2338 
Q 2531 2678 2651 2914 
Q 2772 3150 2772 3378 
Q 2772 3750 2511 3984 
Q 2250 4219 1831 4219 
Q 1534 4219 1204 4116 
Q 875 4013 500 3803 
L 500 4441 
Q 881 4594 1212 4672 
Q 1544 4750 1819 4750 
Q 2544 4750 2975 4387 
Q 3406 4025 3406 3419 
Q 3406 3131 3298 2873 
Q 3191 2616 2906 2266 
Q 2828 2175 2409 1742 
Q 1991 1309 1228 531 
z
" transform="scale(0.015625)"/>
       </defs>
       <use xlink:href="#DejaVuSans-32"/>
       <use xlink:href="#DejaVuSans-30" x="63.623047"/>
       <use xlink:href="#DejaVuSans-30" x="127.246094"/>
       <use xlink:href="#DejaVuSans-30" x="190.869141"/>
      </g>
     </g>
    </g>
    <g id="xtick_4">
     <g id="line2d_4">
      <g>
       <use xlink:href="#m82361c8afd" x="653.92333" y="448.56" style="stroke: #000000; stroke-width: 0.8"/>
      </g>
     </g>
     <g id="text_4">
      <!-- 3000 -->
      <g transform="translate(641.19833 463.158437) scale(0.1 -0.1)">
       <defs>
        <path id="DejaVuSans-33" d="M 2597 2516 
Q 3050 2419 3304 2112 
Q 3559 1806 3559 1356 
Q 3559 666 3084 287 
Q 2609 -91 1734 -91 
Q 1441 -91 1130 -33 
Q 819 25 488 141 
L 488 750 
Q 750 597 1062 519 
Q 1375 441 1716 441 
Q 2309 441 2620 675 
Q 2931 909 2931 1356 
Q 2931 1769 2642 2001 
Q 2353 2234 1838 2234 
L 1294 2234 
L 1294 2753 
L 1863 2753 
Q 2328 2753 2575 2939 
Q 2822 3125 2822 3475 
Q 2822 3834 2567 4026 
Q 2313 4219 1838 4219 
Q 1578 4219 1281 4162 
Q 984 4106 628 3988 
L 628 4550 
Q 988 4650 1302 4700 
Q 1616 4750 1894 4750 
Q 2613 4750 3031 4423 
Q 3450 4097 3450 3541 
Q 3450 3153 3228 2886 
Q 3006 2619 2597 2516 
z
" transform="scale(0.015625)"/>
       </defs>
       <use xlink:href="#DejaVuSans-33"/>
       <use xlink:href="#DejaVuSans-30" x="63.623047"/>
       <use xlink:href="#DejaVuSans-30" x="127.246094"/>
       <use xlink:href="#DejaVuSans-30" x="190.869141"/>
      </g>
     </g>
    </g>
    <g id="xtick_5">
     <g id="line2d_5">
      <g>
       <use xlink:href="#m82361c8afd" x="814.215955" y="448.56" style="stroke: #000000; stroke-width: 0.8"/>
      </g>
     </g>
     <g id="text_5">
      <!-- 4000 -->
      <g transform="translate(801.490955 463.158437) scale(0.1 -0.1)">
       <defs>
        <path id="DejaVuSans-34" d="M 2419 4116 
L 825 1625 
L 2419 1625 
L 2419 4116 
z
M 2253 4666 
L 3047 4666 
L 3047 1625 
L 3713 1625 
L 3713 1100 
L 3047 1100 
L 3047 0 
L 2419 0 
L 2419 1100 
L 313 1100 
L 313 1709 
L 2253 4666 
z
" transform="scale(0.015625)"/>
       </defs>
       <use xlink:href="#DejaVuSans-34"/>
       <use xlink:href="#DejaVuSans-30" x="63.623047"/>
       <use xlink:href="#DejaVuSans-30" x="127.246094"/>
       <use xlink:href="#DejaVuSans-30" x="190.869141"/>
      </g>
     </g>
    </g>
    <g id="text_6">
     <!-- t -->
     <g transform="translate(551.539844 476.836563) scale(0.1 -0.1)">
      <defs>
       <path id="DejaVuSans-74" d="M 1172 4494 
L 1172 3500 
L 2356 3500 
L 2356 3053 
L 1172 3053 
L 1172 1153 
Q 1172 725 1289 603 
Q 1406 481 1766 481 
L 2356 481 
L 2356 0 
L 1766 0 
Q 1100 0 847 248 
Q 594 497 594 1153 
L 594 3053 
L 172 3053 
L 172 3500 
L 594 3500 
L 594 4494 
L 1172 4494 
z
" transform="scale(0.015625)"/>
      </defs>
      <use xlink:href="#DejaVuSans-74"/>
     </g>
    </g>
   </g>
   <g id="matplotlib.axis_2">
    <g id="ytick_1">
     <g id="line2d_6">
      <defs>
       <path id="m90297cedfa" d="M 0 0 
L -3.5 0 
" style="stroke: #000000; stroke-width: 0.8"/>
      </defs>
      <g>
       <use xlink:href="#m90297cedfa" x="135" y="439.9011" style="stroke: #000000; stroke-width: 0.8"/>
      </g>
     </g>
     <g id="text_7">
      <!-- −0.2 -->
      <g transform="translate(103.717187 443.700319) scale(0.1 -0.1)">
       <defs>
        <path id="DejaVuSans-2212" d="M 678 2272 
L 4684 2272 
L 4684 1741 
L 678 1741 
L 678 2272 
z
" transform="scale(0.015625)"/>
        <path id="DejaVuSans-2e" d="M 684 794 
L 1344 794 
L 1344 0 
L 684 0 
L 684 794 
z
" transform="scale(0.015625)"/>
       </defs>
       <use xlink:href="#DejaVuSans-2212"/>
       <use xlink:href="#DejaVuSans-30" x="83.789062"/>
       <use xlink:href="#DejaVuSans-2e" x="147.412109"/>
       <use xlink:href="#DejaVuSans-32" x="179.199219"/>
      </g>
     </g>
    </g>
    <g id="ytick_2">
     <g id="line2d_7">
      <g>
       <use xlink:href="#m90297cedfa" x="135" y="381.793115" style="stroke: #000000; stroke-width: 0.8"/>
      </g>
     </g>
     <g id="text_8">
      <!-- 0.0 -->
      <g transform="translate(112.096875 385.592334) scale(0.1 -0.1)">
       <use xlink:href="#DejaVuSans-30"/>
       <use xlink:href="#DejaVuSans-2e" x="63.623047"/>
       <use xlink:href="#DejaVuSans-30" x="95.410156"/>
      </g>
     </g>
    </g>
    <g id="ytick_3">
     <g id="line2d_8">
      <g>
       <use xlink:href="#m90297cedfa" x="135" y="323.68513" style="stroke: #000000; stroke-width: 0.8"/>
      </g>
     </g>
     <g id="text_9">
      <!-- 0.2 -->
      <g transform="translate(112.096875 327.484348) scale(0.1 -0.1)">
       <use xlink:href="#DejaVuSans-30"/>
       <use xlink:href="#DejaVuSans-2e" x="63.623047"/>
       <use xlink:href="#DejaVuSans-32" x="95.410156"/>
      </g>
     </g>
    </g>
    <g id="ytick_4">
     <g id="line2d_9">
      <g>
       <use xlink:href="#m90297cedfa" x="135" y="265.577144" style="stroke: #000000; stroke-width: 0.8"/>
      </g>
     </g>
     <g id="text_10">
      <!-- 0.4 -->
      <g transform="translate(112.096875 269.376363) scale(0.1 -0.1)">
       <use xlink:href="#DejaVuSans-30"/>
       <use xlink:href="#DejaVuSans-2e" x="63.623047"/>
       <use xlink:href="#DejaVuSans-34" x="95.410156"/>
      </g>
     </g>
    </g>
    <g id="ytick_5">
     <g id="line2d_10">
      <g>
       <use xlink:href="#m90297cedfa" x="135" y="207.469159" style="stroke: #000000; stroke-width: 0.8"/>
      </g>
     </g>
     <g id="text_11">
      <!-- 0.6 -->
      <g transform="translate(112.096875 211.268378) scale(0.1 -0.1)">
       <defs>
        <path id="DejaVuSans-36" d="M 2113 2584 
Q 1688 2584 1439 2293 
Q 1191 2003 1191 1497 
Q 1191 994 1439 701 
Q 1688 409 2113 409 
Q 2538 409 2786 701 
Q 3034 994 3034 1497 
Q 3034 2003 2786 2293 
Q 2538 2584 2113 2584 
z
M 3366 4563 
L 3366 3988 
Q 3128 4100 2886 4159 
Q 2644 4219 2406 4219 
Q 1781 4219 1451 3797 
Q 1122 3375 1075 2522 
Q 1259 2794 1537 2939 
Q 1816 3084 2150 3084 
Q 2853 3084 3261 2657 
Q 3669 2231 3669 1497 
Q 3669 778 3244 343 
Q 2819 -91 2113 -91 
Q 1303 -91 875 529 
Q 447 1150 447 2328 
Q 447 3434 972 4092 
Q 1497 4750 2381 4750 
Q 2619 4750 2861 4703 
Q 3103 4656 3366 4563 
z
" transform="scale(0.015625)"/>
       </defs>
       <use xlink:href="#DejaVuSans-30"/>
       <use xlink:href="#DejaVuSans-2e" x="63.623047"/>
       <use xlink:href="#DejaVuSans-36" x="95.410156"/>
      </g>
     </g>
    </g>
    <g id="ytick_6">
     <g id="line2d_11">
      <g>
       <use xlink:href="#m90297cedfa" x="135" y="149.361174" style="stroke: #000000; stroke-width: 0.8"/>
      </g>
     </g>
     <g id="text_12">
      <!-- 0.8 -->
      <g transform="translate(112.096875 153.160393) scale(0.1 -0.1)">
       <defs>
        <path id="DejaVuSans-38" d="M 2034 2216 
Q 1584 2216 1326 1975 
Q 1069 1734 1069 1313 
Q 1069 891 1326 650 
Q 1584 409 2034 409 
Q 2484 409 2743 651 
Q 3003 894 3003 1313 
Q 3003 1734 2745 1975 
Q 2488 2216 2034 2216 
z
M 1403 2484 
Q 997 2584 770 2862 
Q 544 3141 544 3541 
Q 544 4100 942 4425 
Q 1341 4750 2034 4750 
Q 2731 4750 3128 4425 
Q 3525 4100 3525 3541 
Q 3525 3141 3298 2862 
Q 3072 2584 2669 2484 
Q 3125 2378 3379 2068 
Q 3634 1759 3634 1313 
Q 3634 634 3220 271 
Q 2806 -91 2034 -91 
Q 1263 -91 848 271 
Q 434 634 434 1313 
Q 434 1759 690 2068 
Q 947 2378 1403 2484 
z
M 1172 3481 
Q 1172 3119 1398 2916 
Q 1625 2713 2034 2713 
Q 2441 2713 2670 2916 
Q 2900 3119 2900 3481 
Q 2900 3844 2670 4047 
Q 2441 4250 2034 4250 
Q 1625 4250 1398 4047 
Q 1172 3844 1172 3481 
z
" transform="scale(0.015625)"/>
       </defs>
       <use xlink:href="#DejaVuSans-30"/>
       <use xlink:href="#DejaVuSans-2e" x="63.623047"/>
       <use xlink:href="#DejaVuSans-38" x="95.410156"/>
      </g>
     </g>
    </g>
    <g id="ytick_7">
     <g id="line2d_12">
      <g>
       <use xlink:href="#m90297cedfa" x="135" y="91.253189" style="stroke: #000000; stroke-width: 0.8"/>
      </g>
     </g>
     <g id="text_13">
      <!-- 1.0 -->
      <g transform="translate(112.096875 95.052407) scale(0.1 -0.1)">
       <use xlink:href="#DejaVuSans-31"/>
       <use xlink:href="#DejaVuSans-2e" x="63.623047"/>
       <use xlink:href="#DejaVuSans-30" x="95.410156"/>
      </g>
     </g>
    </g>
   </g>
   <g id="line2d_13">
    <path d="M 173.045455 165.914872 
L 173.205747 87.005375 
L 173.36604 78.127001 
L 173.686625 134.648766 
L 174.00721 189.99225 
L 174.327796 211.619389 
L 174.488088 211.370057 
L 174.808673 197.483047 
L 175.610137 148.810339 
L 175.930722 138.480871 
L 176.251307 135.06244 
L 176.4116 135.63591 
L 176.732185 140.483443 
L 177.213063 154.581437 
L 177.693941 174.056289 
L 178.014526 306.758424 
L 178.174819 309.804898 
L 178.495404 293.991063 
L 178.655696 291.777864 
L 178.815989 296.473319 
L 179.136574 320.769231 
L 179.617452 360.006838 
L 179.938037 371.804886 
L 180.09833 372.930594 
L 180.258623 371.629271 
L 180.739501 361.003485 
L 181.060086 355.454713 
L 181.220378 354.672129 
L 181.380671 355.554342 
L 181.701256 362.448803 
L 182.182134 383.016655 
L 182.983597 421.243897 
L 183.304183 429.391492 
L 183.464475 430.919978 
L 183.624768 430.603612 
L 183.78506 428.414342 
L 184.105646 418.604943 
L 184.586524 392.278911 
L 185.548279 318.301451 
L 186.349742 261.499558 
L 186.990913 231.063093 
L 187.471791 218.659032 
L 187.792376 215.132188 
L 187.952669 214.671954 
L 188.112961 215.01272 
L 188.433547 217.871581 
L 188.914424 226.712132 
L 189.555595 244.511402 
L 192.601155 340.107927 
L 193.402618 355.808864 
L 194.043788 364.84913 
L 194.684959 371.214208 
L 195.326129 375.429454 
L 195.9673 378.025297 
L 196.448178 379.200171 
L 196.929056 379.90714 
L 197.409934 380.289332 
L 198.051104 380.487093 
L 199.01286 380.487688 
L 200.615786 380.475374 
L 202.05842 380.715227 
L 206.386321 381.614892 
L 208.79071 381.762304 
L 213.278903 381.785219 
L 213.599489 86.998227 
L 213.759781 78.120061 
L 214.080367 134.642067 
L 214.400952 189.98572 
L 214.721537 211.613072 
L 214.88183 211.363881 
L 215.202415 197.477227 
L 216.003878 148.805722 
L 216.324463 138.47678 
L 216.645049 135.05886 
L 216.805341 135.632574 
L 217.125926 140.480567 
L 217.606804 154.579171 
L 218.087682 174.054532 
L 218.408267 306.756914 
L 218.56856 309.803505 
L 218.889145 293.989886 
L 219.049438 291.776785 
L 219.209731 296.472333 
L 219.530316 320.768413 
L 220.011194 360.006233 
L 220.331779 371.8044 
L 220.492072 372.93016 
L 220.652364 371.628887 
L 221.133242 361.003225 
L 221.453827 355.45452 
L 221.61412 354.671964 
L 221.774413 355.554204 
L 222.094998 362.448709 
L 222.575876 383.016612 
L 223.377339 421.243903 
L 223.697924 429.391509 
L 223.858217 430.919999 
L 224.018509 430.603636 
L 224.178802 428.414368 
L 224.499387 418.604971 
L 224.980265 392.278938 
L 225.942021 318.301469 
L 226.743484 261.499566 
L 227.384654 231.063094 
L 227.865532 218.65903 
L 228.186118 215.132184 
L 228.34641 214.671949 
L 228.506703 215.012715 
L 228.827288 217.871574 
L 229.308166 226.712124 
L 229.949336 244.511394 
L 232.994896 340.107925 
L 233.796359 355.808863 
L 234.43753 364.84913 
L 235.0787 371.214208 
L 235.719871 375.429455 
L 236.361041 378.025297 
L 236.841919 379.200171 
L 237.322797 379.90714 
L 237.803675 380.289332 
L 238.444846 380.487094 
L 239.406601 380.487688 
L 241.009528 380.475374 
L 242.452161 380.715226 
L 246.780062 381.614892 
L 249.184451 381.762304 
L 253.99323 381.785346 
L 254.313815 86.998348 
L 254.474108 78.120205 
L 254.794693 134.642287 
L 255.115279 189.986026 
L 255.435864 211.613454 
L 255.596156 211.364293 
L 255.916742 197.477682 
L 256.718205 148.806193 
L 257.03879 138.477231 
L 257.359375 135.059283 
L 257.519668 135.632981 
L 257.840253 140.480939 
L 258.321131 154.579488 
L 258.802009 174.054796 
L 259.122594 306.757149 
L 259.282887 309.803727 
L 259.603472 293.99008 
L 259.763765 291.776967 
L 259.924057 296.472501 
L 260.244643 320.768558 
L 260.72552 360.006346 
L 261.046106 371.804494 
L 261.206398 372.930247 
L 261.366691 371.628965 
L 261.847569 361.003282 
L 262.168154 355.454564 
L 262.328447 354.672003 
L 262.488739 355.554237 
L 262.809325 362.448734 
L 263.290202 383.016625 
L 264.091666 421.243904 
L 264.412251 429.391508 
L 264.572543 430.919996 
L 264.732836 430.603632 
L 264.893129 428.414363 
L 265.213714 418.604965 
L 265.694592 392.278932 
L 266.656348 318.301463 
L 267.457811 261.499562 
L 268.098981 231.063091 
L 268.579859 218.659028 
L 268.900444 215.132183 
L 269.060737 214.671948 
L 269.22103 215.012714 
L 269.541615 217.871573 
L 270.022493 226.712125 
L 270.663663 244.511395 
L 273.709223 340.107925 
L 274.510686 355.808863 
L 275.151857 364.84913 
L 275.793027 371.214208 
L 276.434198 375.429455 
L 277.075368 378.025297 
L 277.556246 379.200171 
L 278.037124 379.90714 
L 278.518002 380.289332 
L 279.159172 380.487094 
L 280.120928 380.487688 
L 281.723854 380.475374 
L 283.166488 380.715226 
L 287.494389 381.614892 
L 289.898778 381.762304 
L 293.585509 381.785171 
L 293.906094 86.998279 
L 294.066386 78.120067 
L 294.386972 134.641867 
L 294.707557 189.985252 
L 295.028142 211.612349 
L 295.188435 211.363048 
L 295.50902 197.47622 
L 296.310483 148.804542 
L 296.631068 138.47561 
L 296.951654 135.057732 
L 297.111946 135.631475 
L 297.432532 140.479537 
L 297.913409 154.578262 
L 298.394287 174.053753 
L 298.714873 306.756204 
L 298.875165 309.802832 
L 299.19575 293.989287 
L 299.356043 291.776221 
L 299.516336 296.471804 
L 299.836921 320.76795 
L 300.317799 360.005862 
L 300.638384 371.804085 
L 300.798677 372.929871 
L 300.958969 371.628622 
L 301.439847 361.003028 
L 301.760432 355.45436 
L 301.920725 354.671822 
L 302.081018 355.554078 
L 302.401603 362.448613 
L 302.882481 383.016552 
L 303.683944 421.243886 
L 304.004529 429.391504 
L 304.164822 430.919998 
L 304.325114 430.60364 
L 304.485407 428.414375 
L 304.805992 418.604983 
L 305.28687 392.278955 
L 306.248626 318.301487 
L 307.050089 261.49958 
L 307.69126 231.063104 
L 308.172137 218.659037 
L 308.492723 215.13219 
L 308.653015 214.671954 
L 308.813308 215.012718 
L 309.133893 217.871576 
L 309.614771 226.712125 
L 310.255942 244.511394 
L 313.301501 340.107923 
L 314.102965 355.808862 
L 314.744135 364.849129 
L 315.385306 371.214208 
L 316.026476 375.429454 
L 316.667647 378.025297 
L 317.148524 379.200171 
L 317.629402 379.90714 
L 318.11028 380.289333 
L 318.751451 380.487094 
L 319.713206 380.487688 
L 321.316133 380.475374 
L 322.758766 380.715227 
L 327.086667 381.614892 
L 329.491057 381.762304 
L 333.818957 381.785181 
L 334.139543 86.998198 
L 334.299835 78.12002 
L 334.620421 134.641986 
L 334.941006 189.98559 
L 335.261591 211.612898 
L 335.421884 211.363689 
L 335.742469 197.477008 
L 336.543932 148.805484 
L 336.864517 138.476549 
L 337.185103 135.058641 
L 337.345395 135.632362 
L 337.66598 140.480372 
L 338.146858 154.579002 
L 338.627736 174.05439 
L 338.948321 306.756786 
L 339.108614 309.803384 
L 339.429199 293.989779 
L 339.589492 291.776685 
L 339.749785 296.472239 
L 340.07037 320.768332 
L 340.551248 360.006169 
L 340.871833 371.804346 
L 341.032126 372.930111 
L 341.192418 371.628842 
L 341.673296 361.003193 
L 341.993881 355.454494 
L 342.154174 354.671941 
L 342.314467 355.554184 
L 342.635052 362.448694 
L 343.11593 383.016603 
L 343.917393 421.243901 
L 344.237978 429.391509 
L 344.398271 430.919999 
L 344.558563 430.603637 
L 344.718856 428.41437 
L 345.039441 418.604974 
L 345.520319 392.278941 
L 346.482075 318.301472 
L 347.283538 261.499568 
L 347.924708 231.063096 
L 348.405586 218.659031 
L 348.726172 215.132185 
L 348.886464 214.67195 
L 349.046757 215.012715 
L 349.367342 217.871574 
L 349.84822 226.712124 
L 350.48939 244.511394 
L 353.53495 340.107924 
L 354.336413 355.808863 
L 354.977584 364.849129 
L 355.618754 371.214208 
L 356.259925 375.429455 
L 356.901095 378.025297 
L 357.381973 379.200171 
L 357.862851 379.90714 
L 358.343729 380.289332 
L 358.9849 380.487094 
L 359.946655 380.487688 
L 361.549582 380.475374 
L 362.992215 380.715226 
L 367.320116 381.614892 
L 369.724505 381.762304 
L 373.090651 381.785208 
L 373.411236 86.998419 
L 373.571528 78.120204 
L 373.892114 134.641933 
L 374.212699 189.985203 
L 374.533284 211.612179 
L 374.693577 211.362821 
L 375.014162 197.475899 
L 375.815625 148.804094 
L 376.13621 138.475149 
L 376.456796 135.057271 
L 376.617088 135.631019 
L 376.937674 140.479098 
L 377.418551 154.577861 
L 377.899429 174.053397 
L 378.220015 306.755873 
L 378.380307 309.802516 
L 378.700892 293.989 
L 378.861185 291.775951 
L 379.021478 296.471548 
L 379.342063 320.767724 
L 379.822941 360.005677 
L 380.143526 371.803924 
L 380.303819 372.929723 
L 380.464111 371.628485 
L 380.944989 361.002922 
L 381.265574 355.454273 
L 381.425867 354.671744 
L 381.58616 355.554008 
L 381.906745 362.448558 
L 382.387623 383.016516 
L 383.189086 421.243872 
L 383.509671 429.391497 
L 383.669964 430.919994 
L 383.830256 430.603638 
L 383.990549 428.414375 
L 384.311134 418.604987 
L 384.792012 392.278962 
L 385.753768 318.301496 
L 386.555231 261.499587 
L 387.196402 231.06311 
L 387.677279 218.659042 
L 387.997865 215.132193 
L 388.158157 214.671957 
L 388.31845 215.012721 
L 388.639035 217.871578 
L 389.119913 226.712126 
L 389.761084 244.511394 
L 392.806643 340.107922 
L 393.608107 355.808861 
L 394.249277 364.849128 
L 394.890448 371.214208 
L 395.531618 375.429454 
L 396.172789 378.025297 
L 396.653666 379.200171 
L 397.134544 379.907141 
L 397.615422 380.289333 
L 398.256593 380.487094 
L 399.218348 380.487688 
L 400.821275 380.475374 
L 402.263908 380.715227 
L 406.591809 381.614892 
L 408.996199 381.762304 
L 413.644685 381.785273 
L 413.96527 86.998278 
L 414.125563 78.120123 
L 414.446148 134.642168 
L 414.766733 189.985866 
L 415.087318 211.613258 
L 415.247611 211.364083 
L 415.568196 197.477452 
L 416.369659 148.805959 
L 416.690245 138.477007 
L 417.01083 135.059074 
L 417.171122 135.63278 
L 417.491708 140.480757 
L 417.972586 154.579333 
L 418.453463 174.054668 
L 418.774049 306.757035 
L 418.934341 309.803619 
L 419.254927 293.989986 
L 419.415219 291.776879 
L 419.575512 296.47242 
L 419.896097 320.768488 
L 420.376975 360.006292 
L 420.69756 371.804449 
L 420.857853 372.930205 
L 421.018145 371.628927 
L 421.499023 361.003255 
L 421.819609 355.454543 
L 421.979901 354.671984 
L 422.140194 355.554222 
L 422.460779 362.448722 
L 422.941657 383.016619 
L 423.74312 421.243904 
L 424.063705 429.391508 
L 424.223998 430.919997 
L 424.384291 430.603634 
L 424.544583 428.414366 
L 424.865168 418.604968 
L 425.346046 392.278935 
L 426.307802 318.301466 
L 427.109265 261.499564 
L 427.750436 231.063093 
L 428.231314 218.659029 
L 428.551899 215.132183 
L 428.712191 214.671948 
L 428.872484 215.012714 
L 429.193069 217.871574 
L 429.673947 226.712124 
L 430.315118 244.511395 
L 433.360678 340.107925 
L 434.162141 355.808863 
L 434.803311 364.84913 
L 435.444482 371.214208 
L 436.085652 375.429455 
L 436.726823 378.025297 
L 437.207701 379.200171 
L 437.688578 379.90714 
L 438.169456 380.289332 
L 438.810627 380.487094 
L 439.772383 380.487688 
L 441.375309 380.475374 
L 442.817942 380.715226 
L 447.145843 381.614892 
L 449.550233 381.762304 
L 453.557548 381.785152 
L 453.878134 86.9982 
L 454.038426 78.120002 
L 454.359011 134.641884 
L 454.679597 189.985383 
L 455.000182 211.612592 
L 455.160475 211.36334 
L 455.48106 197.476593 
L 456.282523 148.805009 
L 456.603108 138.47608 
L 456.923693 135.058191 
L 457.083986 135.631925 
L 457.404571 140.479964 
L 457.885449 154.578644 
L 458.366327 174.054085 
L 458.686912 306.756509 
L 458.847205 309.803122 
L 459.16779 293.989546 
L 459.328083 291.776466 
L 459.488375 296.472034 
L 459.808961 320.768153 
L 460.289839 360.006026 
L 460.610424 371.804225 
L 460.770716 372.93 
L 460.931009 371.628741 
L 461.411887 361.003117 
L 461.732472 355.454433 
L 461.892765 354.671887 
L 462.053057 355.554136 
L 462.373643 362.448658 
L 462.854521 383.016581 
L 463.655984 421.243895 
L 463.976569 429.391508 
L 464.136862 430.92 
L 464.297154 430.603639 
L 464.457447 428.414373 
L 464.778032 418.604979 
L 465.25891 392.278948 
L 466.220666 318.301479 
L 467.022129 261.499574 
L 467.663299 231.0631 
L 468.144177 218.659034 
L 468.464762 215.132187 
L 468.625055 214.671951 
L 468.785348 215.012716 
L 469.105933 217.871575 
L 469.586811 226.712125 
L 470.227981 244.511394 
L 473.273541 340.107924 
L 474.075004 355.808862 
L 474.716175 364.849129 
L 475.357345 371.214208 
L 475.998516 375.429455 
L 476.639686 378.025297 
L 477.120564 379.200171 
L 477.601442 379.90714 
L 478.08232 380.289333 
L 478.72349 380.487094 
L 479.685246 380.487688 
L 481.288172 380.475374 
L 482.730806 380.715227 
L 487.058707 381.614892 
L 489.463096 381.762304 
L 493.630705 381.785159 
L 493.95129 86.998189 
L 494.111582 78.12 
L 494.432168 134.641924 
L 494.752753 189.985477 
L 495.073338 211.612738 
L 495.233631 211.363508 
L 495.554216 197.476796 
L 496.355679 148.805246 
L 496.676264 138.476315 
L 496.99685 135.058417 
L 497.157142 135.632146 
L 497.477728 140.480171 
L 497.958605 154.578826 
L 498.439483 174.054241 
L 498.760069 306.756651 
L 498.920361 309.803257 
L 499.240946 293.989666 
L 499.401239 291.776579 
L 499.561532 296.47214 
L 499.882117 320.768245 
L 500.362995 360.0061 
L 500.68358 371.804288 
L 500.843873 372.930058 
L 501.004165 371.628793 
L 501.485043 361.003157 
L 501.805628 355.454465 
L 501.965921 354.671916 
L 502.126214 355.554161 
L 502.446799 362.448677 
L 502.927677 383.016593 
L 503.72914 421.243899 
L 504.049725 429.391509 
L 504.210018 430.92 
L 504.37031 430.603639 
L 504.530603 428.414372 
L 504.851188 418.604976 
L 505.332066 392.278945 
L 506.293822 318.301475 
L 507.095285 261.499571 
L 507.736456 231.063098 
L 508.217333 218.659032 
L 508.537919 215.132186 
L 508.698211 214.67195 
L 508.858504 215.012716 
L 509.179089 217.871574 
L 509.659967 226.712124 
L 510.301138 244.511394 
L 513.346697 340.107924 
L 514.148161 355.808862 
L 514.789331 364.849129 
L 515.430502 371.214208 
L 516.071672 375.429455 
L 516.712843 378.025297 
L 517.19372 379.200171 
L 517.674598 379.90714 
L 518.155476 380.289333 
L 518.796647 380.487094 
L 519.758402 380.487688 
L 521.361329 380.475374 
L 522.803962 380.715226 
L 527.131863 381.614892 
L 529.536253 381.762304 
L 533.864153 381.785181 
L 534.184739 86.998198 
L 534.345031 78.12002 
L 534.665617 134.641986 
L 534.986202 189.98559 
L 535.306787 211.612898 
L 535.46708 211.363689 
L 535.787665 197.477008 
L 536.589128 148.805484 
L 536.909713 138.476549 
L 537.230299 135.058641 
L 537.390591 135.632362 
L 537.711176 140.480372 
L 538.192054 154.579002 
L 538.672932 174.05439 
L 538.993517 306.756786 
L 539.15381 309.803384 
L 539.474395 293.989779 
L 539.634688 291.776685 
L 539.794981 296.472239 
L 540.115566 320.768332 
L 540.596444 360.006169 
L 540.917029 371.804346 
L 541.077322 372.930111 
L 541.237614 371.628842 
L 541.718492 361.003193 
L 542.039077 355.454494 
L 542.19937 354.671941 
L 542.359663 355.554184 
L 542.680248 362.448694 
L 543.161126 383.016603 
L 543.962589 421.243901 
L 544.283174 429.391509 
L 544.443467 430.919999 
L 544.603759 430.603637 
L 544.764052 428.41437 
L 545.084637 418.604974 
L 545.565515 392.278941 
L 546.527271 318.301472 
L 547.328734 261.499568 
L 547.969904 231.063096 
L 548.450782 218.659031 
L 548.771368 215.132185 
L 548.93166 214.67195 
L 549.091953 215.012715 
L 549.412538 217.871574 
L 549.893416 226.712124 
L 550.534586 244.511394 
L 553.580146 340.107924 
L 554.381609 355.808863 
L 555.02278 364.849129 
L 555.66395 371.214208 
L 556.305121 375.429455 
L 556.946291 378.025297 
L 557.427169 379.200171 
L 557.908047 379.90714 
L 558.388925 380.289332 
L 559.030096 380.487094 
L 559.991851 380.487688 
L 561.594778 380.475374 
L 563.037411 380.715226 
L 567.365312 381.614892 
L 569.769701 381.762304 
L 574.257895 381.785219 
L 574.57848 86.998227 
L 574.738773 78.120061 
L 575.059358 134.642067 
L 575.379943 189.98572 
L 575.700529 211.613072 
L 575.860821 211.363881 
L 576.181406 197.477227 
L 576.98287 148.805722 
L 577.303455 138.47678 
L 577.62404 135.05886 
L 577.784333 135.632574 
L 578.104918 140.480567 
L 578.585796 154.579171 
L 579.066674 174.054532 
L 579.387259 306.756914 
L 579.547552 309.803505 
L 579.868137 293.989886 
L 580.028429 291.776785 
L 580.188722 296.472333 
L 580.509307 320.768413 
L 580.990185 360.006233 
L 581.31077 371.8044 
L 581.471063 372.93016 
L 581.631356 371.628887 
L 582.112234 361.003225 
L 582.432819 355.45452 
L 582.593111 354.671964 
L 582.753404 355.554204 
L 583.073989 362.448709 
L 583.554867 383.016612 
L 584.35633 421.243903 
L 584.676916 429.391509 
L 584.837208 430.919999 
L 584.997501 430.603636 
L 585.157793 428.414368 
L 585.478379 418.604971 
L 585.959257 392.278938 
L 586.921012 318.301469 
L 587.722475 261.499566 
L 588.363646 231.063094 
L 588.844524 218.65903 
L 589.165109 215.132184 
L 589.325402 214.671949 
L 589.485694 215.012715 
L 589.80628 217.871574 
L 590.287157 226.712124 
L 590.928328 244.511394 
L 593.973888 340.107925 
L 594.775351 355.808863 
L 595.416521 364.84913 
L 596.057692 371.214208 
L 596.698862 375.429455 
L 597.340033 378.025297 
L 597.820911 379.200171 
L 598.301789 379.90714 
L 598.782667 380.289332 
L 599.423837 380.487094 
L 600.385593 380.487688 
L 601.988519 380.475374 
L 603.431153 380.715226 
L 607.759054 381.614892 
L 610.163443 381.762304 
L 613.209003 381.78522 
L 613.529588 86.998593 
L 613.689881 78.120395 
L 614.010466 134.642073 
L 614.331051 189.985233 
L 614.651636 211.612084 
L 614.811929 211.362667 
L 615.132514 197.47564 
L 615.933977 148.803677 
L 616.254563 138.474705 
L 616.575148 135.056817 
L 616.735441 135.630565 
L 617.056026 140.478653 
L 617.536904 154.577444 
L 618.017782 174.05302 
L 618.338367 306.755517 
L 618.498659 309.802174 
L 618.819245 293.988689 
L 618.979537 291.775655 
L 619.13983 296.471267 
L 619.460415 320.767473 
L 619.941293 360.005469 
L 620.261878 371.803743 
L 620.422171 372.929554 
L 620.582464 371.628329 
L 621.063341 361.002799 
L 621.383927 355.454171 
L 621.544219 354.671651 
L 621.704512 355.553924 
L 622.025097 362.448491 
L 622.505975 383.01647 
L 623.307438 421.243853 
L 623.628023 429.391485 
L 623.788316 430.919986 
L 623.948609 430.603632 
L 624.108901 428.414373 
L 624.429487 418.604989 
L 624.910364 392.278968 
L 625.87212 318.301505 
L 626.673583 261.499596 
L 627.314754 231.063117 
L 627.795632 218.659047 
L 628.116217 215.132197 
L 628.27651 214.671961 
L 628.436802 215.012725 
L 628.757387 217.871581 
L 629.238265 226.712128 
L 629.879436 244.511394 
L 632.924996 340.107921 
L 633.726459 355.808861 
L 634.367629 364.849128 
L 635.0088 371.214207 
L 635.64997 375.429454 
L 636.291141 378.025297 
L 636.772019 379.200171 
L 637.252897 379.907141 
L 637.733774 380.289333 
L 638.374945 380.487094 
L 639.336701 380.487688 
L 640.939627 380.475374 
L 642.382261 380.715227 
L 646.710161 381.614892 
L 649.114551 381.762304 
L 653.92333 381.785346 
L 654.243915 86.998348 
L 654.404207 78.120205 
L 654.724793 134.642287 
L 655.045378 189.986026 
L 655.365963 211.613454 
L 655.526256 211.364293 
L 655.846841 197.477682 
L 656.648304 148.806193 
L 656.968889 138.477231 
L 657.289475 135.059283 
L 657.449767 135.632981 
L 657.770353 140.480939 
L 658.25123 154.579488 
L 658.732108 174.054796 
L 659.052694 306.757149 
L 659.212986 309.803727 
L 659.533571 293.99008 
L 659.693864 291.776967 
L 659.854157 296.472501 
L 660.174742 320.768558 
L 660.65562 360.006346 
L 660.976205 371.804494 
L 661.136498 372.930247 
L 661.29679 371.628965 
L 661.777668 361.003282 
L 662.098253 355.454564 
L 662.258546 354.672003 
L 662.418839 355.554237 
L 662.739424 362.448734 
L 663.220302 383.016625 
L 664.021765 421.243904 
L 664.34235 429.391508 
L 664.502643 430.919996 
L 664.662935 430.603632 
L 664.823228 428.414363 
L 665.143813 418.604965 
L 665.624691 392.278932 
L 666.586447 318.301463 
L 667.38791 261.499562 
L 668.029081 231.063091 
L 668.509958 218.659028 
L 668.830544 215.132183 
L 668.990836 214.671948 
L 669.151129 215.012714 
L 669.471714 217.871573 
L 669.952592 226.712125 
L 670.593763 244.511395 
L 673.639322 340.107925 
L 674.440786 355.808863 
L 675.081956 364.84913 
L 675.723127 371.214208 
L 676.364297 375.429455 
L 677.005468 378.025297 
L 677.486345 379.200171 
L 677.967223 379.90714 
L 678.448101 380.289332 
L 679.089272 380.487094 
L 680.051027 380.487688 
L 681.653954 380.475374 
L 683.096587 380.715226 
L 687.424488 381.614892 
L 689.828878 381.762304 
L 694.156778 381.785181 
L 694.477364 86.998198 
L 694.637656 78.12002 
L 694.958242 134.641986 
L 695.278827 189.98559 
L 695.599412 211.612898 
L 695.759705 211.363689 
L 696.08029 197.477008 
L 696.881753 148.805484 
L 697.202338 138.476549 
L 697.522924 135.058641 
L 697.683216 135.632362 
L 698.003801 140.480372 
L 698.484679 154.579002 
L 698.965557 174.05439 
L 699.286142 306.756786 
L 699.446435 309.803384 
L 699.76702 293.989779 
L 699.927313 291.776685 
L 700.087606 296.472239 
L 700.408191 320.768332 
L 700.889069 360.006169 
L 701.209654 371.804346 
L 701.369947 372.930111 
L 701.530239 371.628842 
L 702.011117 361.003193 
L 702.331702 355.454494 
L 702.491995 354.671941 
L 702.652288 355.554184 
L 702.972873 362.448694 
L 703.453751 383.016603 
L 704.255214 421.243901 
L 704.575799 429.391509 
L 704.736092 430.919999 
L 704.896384 430.603637 
L 705.056677 428.41437 
L 705.377262 418.604974 
L 705.85814 392.278941 
L 706.819896 318.301472 
L 707.621359 261.499568 
L 708.262529 231.063096 
L 708.743407 218.659031 
L 709.063993 215.132185 
L 709.224285 214.67195 
L 709.384578 215.012715 
L 709.705163 217.871574 
L 710.186041 226.712124 
L 710.827211 244.511394 
L 713.872771 340.107924 
L 714.674234 355.808863 
L 715.315405 364.849129 
L 715.956575 371.214208 
L 716.597746 375.429455 
L 717.238916 378.025297 
L 717.719794 379.200171 
L 718.200672 379.90714 
L 718.68155 380.289332 
L 719.322721 380.487094 
L 720.284476 380.487688 
L 721.887403 380.475374 
L 723.330036 380.715226 
L 727.657937 381.614892 
L 730.062326 381.762304 
L 734.069642 381.785152 
L 734.390227 86.9982 
L 734.55052 78.120002 
L 734.871105 134.641884 
L 735.19169 189.985383 
L 735.512276 211.612592 
L 735.672568 211.36334 
L 735.993154 197.476593 
L 736.794617 148.805009 
L 737.115202 138.47608 
L 737.435787 135.058191 
L 737.59608 135.631925 
L 737.916665 140.479964 
L 738.397543 154.578644 
L 738.878421 174.054085 
L 739.199006 306.756509 
L 739.359299 309.803122 
L 739.679884 293.989546 
L 739.840177 291.776466 
L 740.000469 296.472034 
L 740.321054 320.768153 
L 740.801932 360.006026 
L 741.122518 371.804225 
L 741.28281 372.93 
L 741.443103 371.628741 
L 741.923981 361.003117 
L 742.244566 355.454433 
L 742.404859 354.671887 
L 742.565151 355.554136 
L 742.885736 362.448658 
L 743.366614 383.016581 
L 744.168077 421.243895 
L 744.488663 429.391508 
L 744.648955 430.92 
L 744.809248 430.603639 
L 744.969541 428.414373 
L 745.290126 418.604979 
L 745.771004 392.278948 
L 746.732759 318.301479 
L 747.534223 261.499574 
L 748.175393 231.0631 
L 748.656271 218.659034 
L 748.976856 215.132187 
L 749.137149 214.671951 
L 749.297441 215.012716 
L 749.618027 217.871575 
L 750.098905 226.712125 
L 750.740075 244.511394 
L 753.785635 340.107924 
L 754.587098 355.808862 
L 755.228269 364.849129 
L 755.869439 371.214208 
L 756.51061 375.429455 
L 757.15178 378.025297 
L 757.632658 379.200171 
L 758.113536 379.90714 
L 758.594414 380.289333 
L 759.235584 380.487094 
L 760.19734 380.487688 
L 761.800266 380.475374 
L 763.2429 380.715227 
L 767.570801 381.614892 
L 769.97519 381.762304 
L 773.822213 381.785157 
L 774.142798 86.998231 
L 774.303091 78.120024 
L 774.623676 134.641865 
L 774.944261 189.985308 
L 775.264847 211.612462 
L 775.425139 211.363186 
L 775.745725 197.476401 
L 776.547188 148.804774 
L 776.867773 138.475845 
L 777.188358 135.057962 
L 777.348651 135.631701 
L 777.669236 140.479753 
L 778.150114 154.578456 
L 778.630992 174.053922 
L 778.951577 306.75636 
L 779.11187 309.802981 
L 779.432455 293.98942 
L 779.592748 291.776347 
L 779.75304 296.471922 
L 780.073625 320.768055 
L 780.554503 360.005947 
L 780.875089 371.804157 
L 781.035381 372.929938 
L 781.195674 371.628684 
L 781.676552 361.003074 
L 781.997137 355.454399 
L 782.15743 354.671856 
L 782.317722 355.554109 
L 782.638307 362.448637 
L 783.119185 383.016568 
L 783.920648 421.243891 
L 784.241234 429.391506 
L 784.401526 430.919999 
L 784.561819 430.60364 
L 784.722112 428.414374 
L 785.042697 418.604981 
L 785.523575 392.278952 
L 786.48533 318.301483 
L 787.286794 261.499577 
L 787.927964 231.063102 
L 788.408842 218.659035 
L 788.729427 215.132188 
L 788.88972 214.671952 
L 789.050012 215.012717 
L 789.370598 217.871575 
L 789.851476 226.712125 
L 790.492646 244.511394 
L 793.538206 340.107923 
L 794.339669 355.808862 
L 794.98084 364.849129 
L 795.62201 371.214208 
L 796.263181 375.429455 
L 796.904351 378.025297 
L 797.385229 379.200171 
L 797.866107 379.90714 
L 798.346985 380.289333 
L 798.988155 380.487094 
L 799.949911 380.487688 
L 801.552837 380.475374 
L 802.995471 380.715227 
L 807.323372 381.614892 
L 809.727761 381.762304 
L 813.414491 381.785171 
L 813.735077 86.998279 
L 813.895369 78.120067 
L 814.215955 134.641867 
L 814.53654 189.985252 
L 814.857125 211.612349 
L 815.017418 211.363048 
L 815.338003 197.47622 
L 816.139466 148.804542 
L 816.460051 138.47561 
L 816.780637 135.057732 
L 816.940929 135.631475 
L 817.261514 140.479537 
L 817.742392 154.578262 
L 818.22327 174.053753 
L 818.543855 306.756204 
L 818.704148 309.802832 
L 819.024733 293.989287 
L 819.185026 291.776221 
L 819.345319 296.471804 
L 819.665904 320.76795 
L 820.146782 360.005862 
L 820.467367 371.804085 
L 820.62766 372.929871 
L 820.787952 371.628622 
L 821.26883 361.003028 
L 821.589415 355.45436 
L 821.749708 354.671822 
L 821.910001 355.554078 
L 822.230586 362.448613 
L 822.711464 383.016552 
L 823.512927 421.243886 
L 823.833512 429.391504 
L 823.993805 430.919998 
L 824.154097 430.60364 
L 824.31439 428.414375 
L 824.634975 418.604983 
L 825.115853 392.278955 
L 826.077609 318.301487 
L 826.879072 261.49958 
L 827.520242 231.063104 
L 828.00112 218.659037 
L 828.321706 215.13219 
L 828.481998 214.671954 
L 828.642291 215.012718 
L 828.962876 217.871576 
L 829.443754 226.712125 
L 830.084924 244.511394 
L 833.130484 340.107923 
L 833.931947 355.808862 
L 834.573118 364.849129 
L 835.214288 371.214208 
L 835.855459 375.429454 
L 836.496629 378.025297 
L 836.977507 379.200171 
L 837.458385 379.90714 
L 837.939263 380.289333 
L 838.580434 380.487094 
L 839.542189 380.487688 
L 841.145116 380.475374 
L 842.587749 380.715227 
L 846.91565 381.614892 
L 849.320039 381.762304 
L 854.609696 381.785672 
L 854.930281 86.998675 
L 855.090574 78.120563 
L 855.411159 134.642738 
L 855.731744 189.986578 
L 856.05233 211.614089 
L 856.212622 211.364959 
L 856.533208 197.478386 
L 857.334671 148.806872 
L 857.655256 138.477869 
L 857.975841 135.05987 
L 858.136134 135.633541 
L 858.456719 140.481444 
L 858.937597 154.579909 
L 859.418475 174.055139 
L 859.73906 306.757452 
L 859.899353 309.80401 
L 860.219938 293.990326 
L 860.380231 291.777195 
L 860.540523 296.472713 
L 860.861108 320.768738 
L 861.341986 360.006484 
L 861.662572 371.804608 
L 861.822864 372.930349 
L 861.983157 371.629057 
L 862.464035 361.003347 
L 862.78462 355.454614 
L 862.944913 354.672046 
L 863.105205 355.554274 
L 863.42579 362.44876 
L 863.906668 383.016639 
L 864.708131 421.243904 
L 865.028717 429.391504 
L 865.189009 430.919991 
L 865.349302 430.603626 
L 865.509595 428.414356 
L 865.83018 418.604957 
L 866.311058 392.278923 
L 867.272813 318.301456 
L 868.074277 261.499557 
L 868.715447 231.063089 
L 869.196325 218.659027 
L 869.51691 215.132182 
L 869.677203 214.671947 
L 869.837495 215.012714 
L 870.158081 217.871574 
L 870.638959 226.712125 
L 871.280129 244.511396 
L 874.325689 340.107926 
L 875.127152 355.808864 
L 875.768323 364.84913 
L 876.409493 371.214208 
L 877.050664 375.429455 
L 877.691834 378.025297 
L 878.172712 379.200171 
L 878.65359 379.90714 
L 879.134468 380.289332 
L 879.775638 380.487093 
L 880.737394 380.487688 
L 882.34032 380.475374 
L 883.782954 380.715226 
L 888.110855 381.614892 
L 890.515244 381.762304 
L 894.362267 381.785157 
L 894.682852 86.998231 
L 894.843145 78.120024 
L 895.16373 134.641865 
L 895.484315 189.985308 
L 895.804901 211.612462 
L 895.965193 211.363186 
L 896.285779 197.476401 
L 897.087242 148.804774 
L 897.407827 138.475845 
L 897.728412 135.057962 
L 897.888705 135.631701 
L 898.20929 140.479753 
L 898.690168 154.578456 
L 899.171046 174.053922 
L 899.491631 306.75636 
L 899.651924 309.802981 
L 899.972509 293.98942 
L 900.132802 291.776347 
L 900.293094 296.471922 
L 900.613679 320.768055 
L 901.094557 360.005947 
L 901.415143 371.804157 
L 901.575435 372.929938 
L 901.735728 371.628684 
L 902.216606 361.003074 
L 902.537191 355.454399 
L 902.697484 354.671856 
L 902.857776 355.554109 
L 903.178361 362.448637 
L 903.659239 383.016568 
L 904.460702 421.243891 
L 904.781288 429.391506 
L 904.94158 430.919999 
L 905.101873 430.60364 
L 905.262166 428.414374 
L 905.582751 418.604981 
L 906.063629 392.278952 
L 907.025384 318.301483 
L 907.826848 261.499577 
L 908.468018 231.063102 
L 908.948896 218.659035 
L 909.269481 215.132188 
L 909.429774 214.671952 
L 909.590066 215.012717 
L 909.910652 217.871575 
L 910.39153 226.712125 
L 911.0327 244.511394 
L 914.07826 340.107923 
L 914.879723 355.808862 
L 915.520894 364.849129 
L 916.162064 371.214208 
L 916.803235 375.429455 
L 917.444405 378.025297 
L 917.925283 379.200171 
L 918.406161 379.90714 
L 918.887039 380.289333 
L 919.528209 380.487094 
L 920.489965 380.487688 
L 922.092891 380.475374 
L 923.535525 380.715227 
L 927.863426 381.614892 
L 930.267815 381.762304 
L 933.794253 381.785189 
L 933.954545 165.907507 
L 933.954545 165.907507 
" clip-path="url(#p7266a9aed4)" style="fill: none; stroke: #1f77b4; stroke-width: 1.5; stroke-linecap: square"/>
   </g>
   <g id="line2d_14">
    <path d="M 173.045455 91.253189 
L 177.693941 91.253189 
L 177.854233 381.793115 
L 213.278903 381.793115 
L 213.439196 91.253189 
L 218.087682 91.253189 
L 218.247975 381.793115 
L 253.99323 381.793115 
L 254.153523 91.253189 
L 258.802009 91.253189 
L 258.962302 381.793115 
L 293.585509 381.793115 
L 293.745801 91.253189 
L 298.394287 91.253189 
L 298.55458 381.793115 
L 333.818957 381.793115 
L 333.97925 91.253189 
L 338.627736 91.253189 
L 338.788029 381.793115 
L 373.090651 381.793115 
L 373.250943 91.253189 
L 377.899429 91.253189 
L 378.059722 381.793115 
L 413.644685 381.793115 
L 413.804977 91.253189 
L 418.453463 91.253189 
L 418.613756 381.793115 
L 453.557548 381.793115 
L 453.717841 91.253189 
L 458.366327 91.253189 
L 458.52662 381.793115 
L 493.630705 381.793115 
L 493.790997 91.253189 
L 498.439483 91.253189 
L 498.599776 381.793115 
L 533.864153 381.793115 
L 534.024446 91.253189 
L 538.672932 91.253189 
L 538.833225 381.793115 
L 574.257895 381.793115 
L 574.418188 91.253189 
L 579.066674 91.253189 
L 579.226966 381.793115 
L 613.209003 381.793115 
L 613.369295 91.253189 
L 618.017782 91.253189 
L 618.178074 381.793115 
L 653.92333 381.793115 
L 654.083622 91.253189 
L 658.732108 91.253189 
L 658.892401 381.793115 
L 694.156778 381.793115 
L 694.317071 91.253189 
L 698.965557 91.253189 
L 699.12585 381.793115 
L 734.069642 381.793115 
L 734.229935 91.253189 
L 738.878421 91.253189 
L 739.038713 381.793115 
L 773.822213 381.793115 
L 773.982506 91.253189 
L 778.630992 91.253189 
L 778.791284 381.793115 
L 813.414491 381.793115 
L 813.574784 91.253189 
L 818.22327 91.253189 
L 818.383563 381.793115 
L 854.609696 381.793115 
L 854.769989 91.253189 
L 859.418475 91.253189 
L 859.578767 381.793115 
L 894.362267 381.793115 
L 894.52256 91.253189 
L 899.171046 91.253189 
L 899.331338 381.793115 
L 933.794253 381.793115 
L 933.954545 91.253189 
L 933.954545 91.253189 
" clip-path="url(#p7266a9aed4)" style="fill: none; stroke: #ff7f0e; stroke-width: 1.5; stroke-linecap: square"/>
   </g>
   <g id="line2d_15">
    <path d="M 929.466352 381.793115 
" clip-path="url(#p7266a9aed4)" style="fill: none; stroke: #000000; stroke-width: 1.5; stroke-linecap: square"/>
    <defs>
     <path id="m047a1d009e" d="M 0 1 
C 0.265203 1 0.51958 0.894634 0.707107 0.707107 
C 0.894634 0.51958 1 0.265203 1 0 
C 1 -0.265203 0.894634 -0.51958 0.707107 -0.707107 
C 0.51958 -0.894634 0.265203 -1 0 -1 
C -0.265203 -1 -0.51958 -0.894634 -0.707107 -0.707107 
C -0.894634 -0.51958 -1 -0.265203 -1 0 
C -1 0.265203 -0.894634 0.51958 -0.707107 0.707107 
C -0.51958 0.894634 -0.265203 1 0 1 
z
" style="stroke: #000000"/>
    </defs>
    <g clip-path="url(#p7266a9aed4)">
     <use xlink:href="#m047a1d009e" x="173.045455" y="91.253189" style="stroke: #000000"/>
     <use xlink:href="#m047a1d009e" x="178.174819" y="381.793115" style="stroke: #000000"/>
     <use xlink:href="#m047a1d009e" x="183.14389" y="381.793115" style="stroke: #000000"/>
     <use xlink:href="#m047a1d009e" x="188.112961" y="91.253189" style="stroke: #000000"/>
     <use xlink:href="#m047a1d009e" x="193.082033" y="381.793115" style="stroke: #000000"/>
     <use xlink:href="#m047a1d009e" x="198.211397" y="381.793115" style="stroke: #000000"/>
     <use xlink:href="#m047a1d009e" x="203.180468" y="91.253189" style="stroke: #000000"/>
     <use xlink:href="#m047a1d009e" x="208.149539" y="381.793115" style="stroke: #000000"/>
     <use xlink:href="#m047a1d009e" x="213.118611" y="91.253189" style="stroke: #000000"/>
     <use xlink:href="#m047a1d009e" x="218.247975" y="381.793115" style="stroke: #000000"/>
     <use xlink:href="#m047a1d009e" x="223.217046" y="381.793115" style="stroke: #000000"/>
     <use xlink:href="#m047a1d009e" x="228.186118" y="91.253189" style="stroke: #000000"/>
     <use xlink:href="#m047a1d009e" x="233.155189" y="381.793115" style="stroke: #000000"/>
     <use xlink:href="#m047a1d009e" x="238.284553" y="381.793115" style="stroke: #000000"/>
     <use xlink:href="#m047a1d009e" x="243.253624" y="91.253189" style="stroke: #000000"/>
     <use xlink:href="#m047a1d009e" x="248.222696" y="381.793115" style="stroke: #000000"/>
     <use xlink:href="#m047a1d009e" x="253.191767" y="91.253189" style="stroke: #000000"/>
     <use xlink:href="#m047a1d009e" x="258.321131" y="381.793115" style="stroke: #000000"/>
     <use xlink:href="#m047a1d009e" x="263.290202" y="381.793115" style="stroke: #000000"/>
     <use xlink:href="#m047a1d009e" x="268.259274" y="91.253189" style="stroke: #000000"/>
     <use xlink:href="#m047a1d009e" x="273.228345" y="381.793115" style="stroke: #000000"/>
     <use xlink:href="#m047a1d009e" x="278.357709" y="381.793115" style="stroke: #000000"/>
     <use xlink:href="#m047a1d009e" x="283.326781" y="91.253189" style="stroke: #000000"/>
     <use xlink:href="#m047a1d009e" x="288.295852" y="381.793115" style="stroke: #000000"/>
     <use xlink:href="#m047a1d009e" x="293.264923" y="91.253189" style="stroke: #000000"/>
     <use xlink:href="#m047a1d009e" x="298.394287" y="381.793115" style="stroke: #000000"/>
     <use xlink:href="#m047a1d009e" x="303.363359" y="381.793115" style="stroke: #000000"/>
     <use xlink:href="#m047a1d009e" x="308.33243" y="91.253189" style="stroke: #000000"/>
     <use xlink:href="#m047a1d009e" x="313.301501" y="381.793115" style="stroke: #000000"/>
     <use xlink:href="#m047a1d009e" x="318.430865" y="381.793115" style="stroke: #000000"/>
     <use xlink:href="#m047a1d009e" x="323.399937" y="91.253189" style="stroke: #000000"/>
     <use xlink:href="#m047a1d009e" x="328.369008" y="381.793115" style="stroke: #000000"/>
     <use xlink:href="#m047a1d009e" x="333.33808" y="91.253189" style="stroke: #000000"/>
     <use xlink:href="#m047a1d009e" x="338.467444" y="381.793115" style="stroke: #000000"/>
     <use xlink:href="#m047a1d009e" x="343.436515" y="381.793115" style="stroke: #000000"/>
     <use xlink:href="#m047a1d009e" x="348.405586" y="91.253189" style="stroke: #000000"/>
     <use xlink:href="#m047a1d009e" x="353.374658" y="381.793115" style="stroke: #000000"/>
     <use xlink:href="#m047a1d009e" x="358.504022" y="381.793115" style="stroke: #000000"/>
     <use xlink:href="#m047a1d009e" x="363.473093" y="91.253189" style="stroke: #000000"/>
     <use xlink:href="#m047a1d009e" x="368.442164" y="381.793115" style="stroke: #000000"/>
     <use xlink:href="#m047a1d009e" x="373.411236" y="91.253189" style="stroke: #000000"/>
     <use xlink:href="#m047a1d009e" x="378.5406" y="381.793115" style="stroke: #000000"/>
     <use xlink:href="#m047a1d009e" x="383.509671" y="381.793115" style="stroke: #000000"/>
     <use xlink:href="#m047a1d009e" x="388.478743" y="91.253189" style="stroke: #000000"/>
     <use xlink:href="#m047a1d009e" x="393.447814" y="381.793115" style="stroke: #000000"/>
     <use xlink:href="#m047a1d009e" x="398.577178" y="381.793115" style="stroke: #000000"/>
     <use xlink:href="#m047a1d009e" x="403.546249" y="91.253189" style="stroke: #000000"/>
     <use xlink:href="#m047a1d009e" x="408.515321" y="381.793115" style="stroke: #000000"/>
     <use xlink:href="#m047a1d009e" x="413.484392" y="91.253189" style="stroke: #000000"/>
     <use xlink:href="#m047a1d009e" x="418.613756" y="381.793115" style="stroke: #000000"/>
     <use xlink:href="#m047a1d009e" x="423.582827" y="381.793115" style="stroke: #000000"/>
     <use xlink:href="#m047a1d009e" x="428.551899" y="91.253189" style="stroke: #000000"/>
     <use xlink:href="#m047a1d009e" x="433.52097" y="381.793115" style="stroke: #000000"/>
     <use xlink:href="#m047a1d009e" x="438.650334" y="381.793115" style="stroke: #000000"/>
     <use xlink:href="#m047a1d009e" x="443.619406" y="91.253189" style="stroke: #000000"/>
     <use xlink:href="#m047a1d009e" x="448.588477" y="381.793115" style="stroke: #000000"/>
     <use xlink:href="#m047a1d009e" x="453.557548" y="91.253189" style="stroke: #000000"/>
     <use xlink:href="#m047a1d009e" x="458.686912" y="381.793115" style="stroke: #000000"/>
     <use xlink:href="#m047a1d009e" x="463.655984" y="381.793115" style="stroke: #000000"/>
     <use xlink:href="#m047a1d009e" x="468.625055" y="91.253189" style="stroke: #000000"/>
     <use xlink:href="#m047a1d009e" x="473.594126" y="381.793115" style="stroke: #000000"/>
     <use xlink:href="#m047a1d009e" x="478.72349" y="381.793115" style="stroke: #000000"/>
     <use xlink:href="#m047a1d009e" x="483.692562" y="91.253189" style="stroke: #000000"/>
     <use xlink:href="#m047a1d009e" x="488.661633" y="381.793115" style="stroke: #000000"/>
     <use xlink:href="#m047a1d009e" x="493.630705" y="91.253189" style="stroke: #000000"/>
     <use xlink:href="#m047a1d009e" x="498.760069" y="381.793115" style="stroke: #000000"/>
     <use xlink:href="#m047a1d009e" x="503.72914" y="381.793115" style="stroke: #000000"/>
     <use xlink:href="#m047a1d009e" x="508.698211" y="91.253189" style="stroke: #000000"/>
     <use xlink:href="#m047a1d009e" x="513.667283" y="381.793115" style="stroke: #000000"/>
     <use xlink:href="#m047a1d009e" x="518.796647" y="381.793115" style="stroke: #000000"/>
     <use xlink:href="#m047a1d009e" x="523.765718" y="91.253189" style="stroke: #000000"/>
     <use xlink:href="#m047a1d009e" x="528.734789" y="381.793115" style="stroke: #000000"/>
     <use xlink:href="#m047a1d009e" x="533.703861" y="91.253189" style="stroke: #000000"/>
     <use xlink:href="#m047a1d009e" x="538.833225" y="381.793115" style="stroke: #000000"/>
     <use xlink:href="#m047a1d009e" x="543.802296" y="381.793115" style="stroke: #000000"/>
     <use xlink:href="#m047a1d009e" x="548.771368" y="91.253189" style="stroke: #000000"/>
     <use xlink:href="#m047a1d009e" x="553.740439" y="381.793115" style="stroke: #000000"/>
     <use xlink:href="#m047a1d009e" x="558.869803" y="381.793115" style="stroke: #000000"/>
     <use xlink:href="#m047a1d009e" x="563.838874" y="91.253189" style="stroke: #000000"/>
     <use xlink:href="#m047a1d009e" x="568.807946" y="381.793115" style="stroke: #000000"/>
     <use xlink:href="#m047a1d009e" x="573.777017" y="91.253189" style="stroke: #000000"/>
     <use xlink:href="#m047a1d009e" x="578.906381" y="381.793115" style="stroke: #000000"/>
     <use xlink:href="#m047a1d009e" x="583.875452" y="381.793115" style="stroke: #000000"/>
     <use xlink:href="#m047a1d009e" x="588.844524" y="91.253189" style="stroke: #000000"/>
     <use xlink:href="#m047a1d009e" x="593.813595" y="381.793115" style="stroke: #000000"/>
     <use xlink:href="#m047a1d009e" x="598.942959" y="381.793115" style="stroke: #000000"/>
     <use xlink:href="#m047a1d009e" x="603.912031" y="91.253189" style="stroke: #000000"/>
     <use xlink:href="#m047a1d009e" x="608.881102" y="381.793115" style="stroke: #000000"/>
     <use xlink:href="#m047a1d009e" x="613.850173" y="91.253189" style="stroke: #000000"/>
     <use xlink:href="#m047a1d009e" x="618.979537" y="381.793115" style="stroke: #000000"/>
     <use xlink:href="#m047a1d009e" x="623.948609" y="381.793115" style="stroke: #000000"/>
     <use xlink:href="#m047a1d009e" x="628.91768" y="91.253189" style="stroke: #000000"/>
     <use xlink:href="#m047a1d009e" x="633.886751" y="381.793115" style="stroke: #000000"/>
     <use xlink:href="#m047a1d009e" x="639.016115" y="381.793115" style="stroke: #000000"/>
     <use xlink:href="#m047a1d009e" x="643.985187" y="91.253189" style="stroke: #000000"/>
     <use xlink:href="#m047a1d009e" x="648.954258" y="381.793115" style="stroke: #000000"/>
     <use xlink:href="#m047a1d009e" x="653.92333" y="91.253189" style="stroke: #000000"/>
     <use xlink:href="#m047a1d009e" x="659.052694" y="381.793115" style="stroke: #000000"/>
     <use xlink:href="#m047a1d009e" x="664.021765" y="381.793115" style="stroke: #000000"/>
     <use xlink:href="#m047a1d009e" x="668.990836" y="91.253189" style="stroke: #000000"/>
     <use xlink:href="#m047a1d009e" x="673.959908" y="381.793115" style="stroke: #000000"/>
     <use xlink:href="#m047a1d009e" x="679.089272" y="381.793115" style="stroke: #000000"/>
     <use xlink:href="#m047a1d009e" x="684.058343" y="91.253189" style="stroke: #000000"/>
     <use xlink:href="#m047a1d009e" x="689.027414" y="381.793115" style="stroke: #000000"/>
     <use xlink:href="#m047a1d009e" x="693.996486" y="91.253189" style="stroke: #000000"/>
     <use xlink:href="#m047a1d009e" x="699.12585" y="381.793115" style="stroke: #000000"/>
     <use xlink:href="#m047a1d009e" x="704.094921" y="381.793115" style="stroke: #000000"/>
     <use xlink:href="#m047a1d009e" x="709.063993" y="91.253189" style="stroke: #000000"/>
     <use xlink:href="#m047a1d009e" x="714.033064" y="381.793115" style="stroke: #000000"/>
     <use xlink:href="#m047a1d009e" x="719.162428" y="381.793115" style="stroke: #000000"/>
     <use xlink:href="#m047a1d009e" x="724.131499" y="91.253189" style="stroke: #000000"/>
     <use xlink:href="#m047a1d009e" x="729.100571" y="381.793115" style="stroke: #000000"/>
     <use xlink:href="#m047a1d009e" x="734.069642" y="91.253189" style="stroke: #000000"/>
     <use xlink:href="#m047a1d009e" x="739.199006" y="381.793115" style="stroke: #000000"/>
     <use xlink:href="#m047a1d009e" x="744.168077" y="381.793115" style="stroke: #000000"/>
     <use xlink:href="#m047a1d009e" x="749.137149" y="91.253189" style="stroke: #000000"/>
     <use xlink:href="#m047a1d009e" x="754.10622" y="381.793115" style="stroke: #000000"/>
     <use xlink:href="#m047a1d009e" x="759.235584" y="381.793115" style="stroke: #000000"/>
     <use xlink:href="#m047a1d009e" x="764.204656" y="91.253189" style="stroke: #000000"/>
     <use xlink:href="#m047a1d009e" x="769.173727" y="381.793115" style="stroke: #000000"/>
     <use xlink:href="#m047a1d009e" x="774.142798" y="91.253189" style="stroke: #000000"/>
     <use xlink:href="#m047a1d009e" x="779.272162" y="381.793115" style="stroke: #000000"/>
     <use xlink:href="#m047a1d009e" x="784.241234" y="381.793115" style="stroke: #000000"/>
     <use xlink:href="#m047a1d009e" x="789.210305" y="91.253189" style="stroke: #000000"/>
     <use xlink:href="#m047a1d009e" x="794.179376" y="381.793115" style="stroke: #000000"/>
     <use xlink:href="#m047a1d009e" x="799.30874" y="381.793115" style="stroke: #000000"/>
     <use xlink:href="#m047a1d009e" x="804.277812" y="91.253189" style="stroke: #000000"/>
     <use xlink:href="#m047a1d009e" x="809.246883" y="381.793115" style="stroke: #000000"/>
     <use xlink:href="#m047a1d009e" x="814.215955" y="91.253189" style="stroke: #000000"/>
     <use xlink:href="#m047a1d009e" x="819.345319" y="381.793115" style="stroke: #000000"/>
     <use xlink:href="#m047a1d009e" x="824.31439" y="381.793115" style="stroke: #000000"/>
     <use xlink:href="#m047a1d009e" x="829.283461" y="91.253189" style="stroke: #000000"/>
     <use xlink:href="#m047a1d009e" x="834.252533" y="381.793115" style="stroke: #000000"/>
     <use xlink:href="#m047a1d009e" x="839.381897" y="381.793115" style="stroke: #000000"/>
     <use xlink:href="#m047a1d009e" x="844.350968" y="91.253189" style="stroke: #000000"/>
     <use xlink:href="#m047a1d009e" x="849.320039" y="381.793115" style="stroke: #000000"/>
     <use xlink:href="#m047a1d009e" x="854.289111" y="91.253189" style="stroke: #000000"/>
     <use xlink:href="#m047a1d009e" x="859.418475" y="381.793115" style="stroke: #000000"/>
     <use xlink:href="#m047a1d009e" x="864.387546" y="381.793115" style="stroke: #000000"/>
     <use xlink:href="#m047a1d009e" x="869.356618" y="91.253189" style="stroke: #000000"/>
     <use xlink:href="#m047a1d009e" x="874.325689" y="381.793115" style="stroke: #000000"/>
     <use xlink:href="#m047a1d009e" x="879.455053" y="381.793115" style="stroke: #000000"/>
     <use xlink:href="#m047a1d009e" x="884.424124" y="91.253189" style="stroke: #000000"/>
     <use xlink:href="#m047a1d009e" x="889.393196" y="381.793115" style="stroke: #000000"/>
     <use xlink:href="#m047a1d009e" x="894.362267" y="91.253189" style="stroke: #000000"/>
     <use xlink:href="#m047a1d009e" x="899.491631" y="381.793115" style="stroke: #000000"/>
     <use xlink:href="#m047a1d009e" x="904.460702" y="381.793115" style="stroke: #000000"/>
     <use xlink:href="#m047a1d009e" x="909.429774" y="91.253189" style="stroke: #000000"/>
     <use xlink:href="#m047a1d009e" x="914.398845" y="381.793115" style="stroke: #000000"/>
     <use xlink:href="#m047a1d009e" x="919.528209" y="381.793115" style="stroke: #000000"/>
     <use xlink:href="#m047a1d009e" x="924.497281" y="91.253189" style="stroke: #000000"/>
     <use xlink:href="#m047a1d009e" x="929.466352" y="381.793115" style="stroke: #000000"/>
    </g>
   </g>
   <g id="patch_3">
    <path d="M 135 448.56 
L 135 60.48 
" style="fill: none; stroke: #000000; stroke-width: 0.8; stroke-linejoin: miter; stroke-linecap: square"/>
   </g>
   <g id="patch_4">
    <path d="M 972 448.56 
L 972 60.48 
" style="fill: none; stroke: #000000; stroke-width: 0.8; stroke-linejoin: miter; stroke-linecap: square"/>
   </g>
   <g id="patch_5">
    <path d="M 135 448.56 
L 972 448.56 
" style="fill: none; stroke: #000000; stroke-width: 0.8; stroke-linejoin: miter; stroke-linecap: square"/>
   </g>
   <g id="patch_6">
    <path d="M 135 60.48 
L 972 60.48 
" style="fill: none; stroke: #000000; stroke-width: 0.8; stroke-linejoin: miter; stroke-linecap: square"/>
   </g>
   <g id="legend_1">
    <g id="patch_7">
     <path d="M 142 443.56 
L 211.084375 443.56 
Q 213.084375 443.56 213.084375 441.56 
L 213.084375 397.969375 
Q 213.084375 395.969375 211.084375 395.969375 
L 142 395.969375 
Q 140 395.969375 140 397.969375 
L 140 441.56 
Q 140 443.56 142 443.56 
z
" style="fill: #ffffff; opacity: 0.8; stroke: #cccccc; stroke-linejoin: miter"/>
    </g>
    <g id="line2d_16">
     <path d="M 144 404.067813 
L 154 404.067813 
L 164 404.067813 
" style="fill: none; stroke: #1f77b4; stroke-width: 1.5; stroke-linecap: square"/>
    </g>
    <g id="text_14">
     <!-- nw_0 -->
     <g transform="translate(172 407.567813) scale(0.1 -0.1)">
      <defs>
       <path id="DejaVuSans-6e" d="M 3513 2113 
L 3513 0 
L 2938 0 
L 2938 2094 
Q 2938 2591 2744 2837 
Q 2550 3084 2163 3084 
Q 1697 3084 1428 2787 
Q 1159 2491 1159 1978 
L 1159 0 
L 581 0 
L 581 3500 
L 1159 3500 
L 1159 2956 
Q 1366 3272 1645 3428 
Q 1925 3584 2291 3584 
Q 2894 3584 3203 3211 
Q 3513 2838 3513 2113 
z
" transform="scale(0.015625)"/>
       <path id="DejaVuSans-77" d="M 269 3500 
L 844 3500 
L 1563 769 
L 2278 3500 
L 2956 3500 
L 3675 769 
L 4391 3500 
L 4966 3500 
L 4050 0 
L 3372 0 
L 2619 2869 
L 1863 0 
L 1184 0 
L 269 3500 
z
" transform="scale(0.015625)"/>
       <path id="DejaVuSans-5f" d="M 3263 -1063 
L 3263 -1509 
L -63 -1509 
L -63 -1063 
L 3263 -1063 
z
" transform="scale(0.015625)"/>
      </defs>
      <use xlink:href="#DejaVuSans-6e"/>
      <use xlink:href="#DejaVuSans-77" x="63.378906"/>
      <use xlink:href="#DejaVuSans-5f" x="145.166016"/>
      <use xlink:href="#DejaVuSans-30" x="195.166016"/>
     </g>
    </g>
    <g id="line2d_17">
     <path d="M 144 419.024063 
L 154 419.024063 
L 164 419.024063 
" style="fill: none; stroke: #ff7f0e; stroke-width: 1.5; stroke-linecap: square"/>
    </g>
    <g id="text_15">
     <!-- input_0 -->
     <g transform="translate(172 422.524063) scale(0.1 -0.1)">
      <defs>
       <path id="DejaVuSans-69" d="M 603 3500 
L 1178 3500 
L 1178 0 
L 603 0 
L 603 3500 
z
M 603 4863 
L 1178 4863 
L 1178 4134 
L 603 4134 
L 603 4863 
z
" transform="scale(0.015625)"/>
       <path id="DejaVuSans-70" d="M 1159 525 
L 1159 -1331 
L 581 -1331 
L 581 3500 
L 1159 3500 
L 1159 2969 
Q 1341 3281 1617 3432 
Q 1894 3584 2278 3584 
Q 2916 3584 3314 3078 
Q 3713 2572 3713 1747 
Q 3713 922 3314 415 
Q 2916 -91 2278 -91 
Q 1894 -91 1617 61 
Q 1341 213 1159 525 
z
M 3116 1747 
Q 3116 2381 2855 2742 
Q 2594 3103 2138 3103 
Q 1681 3103 1420 2742 
Q 1159 2381 1159 1747 
Q 1159 1113 1420 752 
Q 1681 391 2138 391 
Q 2594 391 2855 752 
Q 3116 1113 3116 1747 
z
" transform="scale(0.015625)"/>
       <path id="DejaVuSans-75" d="M 544 1381 
L 544 3500 
L 1119 3500 
L 1119 1403 
Q 1119 906 1312 657 
Q 1506 409 1894 409 
Q 2359 409 2629 706 
Q 2900 1003 2900 1516 
L 2900 3500 
L 3475 3500 
L 3475 0 
L 2900 0 
L 2900 538 
Q 2691 219 2414 64 
Q 2138 -91 1772 -91 
Q 1169 -91 856 284 
Q 544 659 544 1381 
z
M 1991 3584 
L 1991 3584 
z
" transform="scale(0.015625)"/>
      </defs>
      <use xlink:href="#DejaVuSans-69"/>
      <use xlink:href="#DejaVuSans-6e" x="27.783203"/>
      <use xlink:href="#DejaVuSans-70" x="91.162109"/>
      <use xlink:href="#DejaVuSans-75" x="154.638672"/>
      <use xlink:href="#DejaVuSans-74" x="218.017578"/>
      <use xlink:href="#DejaVuSans-5f" x="257.226562"/>
      <use xlink:href="#DejaVuSans-30" x="307.226562"/>
     </g>
    </g>
    <g id="line2d_18">
     <path d="M 144 433.980312 
L 154 433.980312 
L 164 433.980312 
" style="fill: none; stroke: #000000; stroke-width: 1.5; stroke-linecap: square"/>
     <g>
      <use xlink:href="#m047a1d009e" x="154" y="433.980312" style="stroke: #000000"/>
     </g>
    </g>
    <g id="text_16">
     <!-- target -->
     <g transform="translate(172 437.480312) scale(0.1 -0.1)">
      <defs>
       <path id="DejaVuSans-61" d="M 2194 1759 
Q 1497 1759 1228 1600 
Q 959 1441 959 1056 
Q 959 750 1161 570 
Q 1363 391 1709 391 
Q 2188 391 2477 730 
Q 2766 1069 2766 1631 
L 2766 1759 
L 2194 1759 
z
M 3341 1997 
L 3341 0 
L 2766 0 
L 2766 531 
Q 2569 213 2275 61 
Q 1981 -91 1556 -91 
Q 1019 -91 701 211 
Q 384 513 384 1019 
Q 384 1609 779 1909 
Q 1175 2209 1959 2209 
L 2766 2209 
L 2766 2266 
Q 2766 2663 2505 2880 
Q 2244 3097 1772 3097 
Q 1472 3097 1187 3025 
Q 903 2953 641 2809 
L 641 3341 
Q 956 3463 1253 3523 
Q 1550 3584 1831 3584 
Q 2591 3584 2966 3190 
Q 3341 2797 3341 1997 
z
" transform="scale(0.015625)"/>
       <path id="DejaVuSans-72" d="M 2631 2963 
Q 2534 3019 2420 3045 
Q 2306 3072 2169 3072 
Q 1681 3072 1420 2755 
Q 1159 2438 1159 1844 
L 1159 0 
L 581 0 
L 581 3500 
L 1159 3500 
L 1159 2956 
Q 1341 3275 1631 3429 
Q 1922 3584 2338 3584 
Q 2397 3584 2469 3576 
Q 2541 3569 2628 3553 
L 2631 2963 
z
" transform="scale(0.015625)"/>
       <path id="DejaVuSans-67" d="M 2906 1791 
Q 2906 2416 2648 2759 
Q 2391 3103 1925 3103 
Q 1463 3103 1205 2759 
Q 947 2416 947 1791 
Q 947 1169 1205 825 
Q 1463 481 1925 481 
Q 2391 481 2648 825 
Q 2906 1169 2906 1791 
z
M 3481 434 
Q 3481 -459 3084 -895 
Q 2688 -1331 1869 -1331 
Q 1566 -1331 1297 -1286 
Q 1028 -1241 775 -1147 
L 775 -588 
Q 1028 -725 1275 -790 
Q 1522 -856 1778 -856 
Q 2344 -856 2625 -561 
Q 2906 -266 2906 331 
L 2906 616 
Q 2728 306 2450 153 
Q 2172 0 1784 0 
Q 1141 0 747 490 
Q 353 981 353 1791 
Q 353 2603 747 3093 
Q 1141 3584 1784 3584 
Q 2172 3584 2450 3431 
Q 2728 3278 2906 2969 
L 2906 3500 
L 3481 3500 
L 3481 434 
z
" transform="scale(0.015625)"/>
       <path id="DejaVuSans-65" d="M 3597 1894 
L 3597 1613 
L 953 1613 
Q 991 1019 1311 708 
Q 1631 397 2203 397 
Q 2534 397 2845 478 
Q 3156 559 3463 722 
L 3463 178 
Q 3153 47 2828 -22 
Q 2503 -91 2169 -91 
Q 1331 -91 842 396 
Q 353 884 353 1716 
Q 353 2575 817 3079 
Q 1281 3584 2069 3584 
Q 2775 3584 3186 3129 
Q 3597 2675 3597 1894 
z
M 3022 2063 
Q 3016 2534 2758 2815 
Q 2500 3097 2075 3097 
Q 1594 3097 1305 2825 
Q 1016 2553 972 2059 
L 3022 2063 
z
" transform="scale(0.015625)"/>
      </defs>
      <use xlink:href="#DejaVuSans-74"/>
      <use xlink:href="#DejaVuSans-61" x="39.208984"/>
      <use xlink:href="#DejaVuSans-72" x="100.488281"/>
      <use xlink:href="#DejaVuSans-67" x="139.851562"/>
      <use xlink:href="#DejaVuSans-65" x="203.328125"/>
      <use xlink:href="#DejaVuSans-74" x="264.851562"/>
     </g>
    </g>
   </g>
  </g>
 </g>
 <defs>
  <clipPath id="p7266a9aed4">
   <rect x="135" y="60.48" width="837" height="388.08"/>
  </clipPath>
 </defs>
</svg>
