<?xml version="1.0" encoding="utf-8" standalone="no"?>
<!DOCTYPE svg PUBLIC "-//W3C//DTD SVG 1.1//EN"
  "http://www.w3.org/Graphics/SVG/1.1/DTD/svg11.dtd">
<svg xmlns:xlink="http://www.w3.org/1999/xlink" width="1080pt" height="504pt" viewBox="0 0 1080 504" xmlns="http://www.w3.org/2000/svg" version="1.1">
 <metadata>
  <rdf:RDF xmlns:dc="http://purl.org/dc/elements/1.1/" xmlns:cc="http://creativecommons.org/ns#" xmlns:rdf="http://www.w3.org/1999/02/22-rdf-syntax-ns#">
   <cc:Work>
    <dc:type rdf:resource="http://purl.org/dc/dcmitype/StillImage"/>
    <dc:date>2024-05-09T10:59:01.694034</dc:date>
    <dc:format>image/svg+xml</dc:format>
    <dc:creator>
     <cc:Agent>
      <dc:title>Matplotlib v3.7.1, https://matplotlib.org/</dc:title>
     </cc:Agent>
    </dc:creator>
   </cc:Work>
  </rdf:RDF>
 </metadata>
 <defs>
  <style type="text/css">*{stroke-linejoin: round; stroke-linecap: butt}</style>
 </defs>
 <g id="figure_1">
  <g id="patch_1">
   <path d="M 0 504 
L 1080 504 
L 1080 0 
L 0 0 
z
" style="fill: #ffffff"/>
  </g>
  <g id="axes_1">
   <g id="patch_2">
    <path d="M 135 448.56 
L 972 448.56 
L 972 60.48 
L 135 60.48 
z
" style="fill: #ffffff"/>
   </g>
   <g id="matplotlib.axis_1">
    <g id="xtick_1">
     <g id="line2d_1">
      <defs>
       <path id="mc21230ac81" d="M 0 0 
L 0 3.5 
" style="stroke: #000000; stroke-width: 0.8"/>
      </defs>
      <g>
       <use xlink:href="#mc21230ac81" x="173.045455" y="448.56" style="stroke: #000000; stroke-width: 0.8"/>
      </g>
     </g>
     <g id="text_1">
      <!-- 0 -->
      <g transform="translate(169.864205 463.158437) scale(0.1 -0.1)">
       <defs>
        <path id="DejaVuSans-30" d="M 2034 4250 
Q 1547 4250 1301 3770 
Q 1056 3291 1056 2328 
Q 1056 1369 1301 889 
Q 1547 409 2034 409 
Q 2525 409 2770 889 
Q 3016 1369 3016 2328 
Q 3016 3291 2770 3770 
Q 2525 4250 2034 4250 
z
M 2034 4750 
Q 2819 4750 3233 4129 
Q 3647 3509 3647 2328 
Q 3647 1150 3233 529 
Q 2819 -91 2034 -91 
Q 1250 -91 836 529 
Q 422 1150 422 2328 
Q 422 3509 836 4129 
Q 1250 4750 2034 4750 
z
" transform="scale(0.015625)"/>
       </defs>
       <use xlink:href="#DejaVuSans-30"/>
      </g>
     </g>
    </g>
    <g id="xtick_2">
     <g id="line2d_2">
      <g>
       <use xlink:href="#mc21230ac81" x="333.33808" y="448.56" style="stroke: #000000; stroke-width: 0.8"/>
      </g>
     </g>
     <g id="text_2">
      <!-- 1000 -->
      <g transform="translate(320.61308 463.158437) scale(0.1 -0.1)">
       <defs>
        <path id="DejaVuSans-31" d="M 794 531 
L 1825 531 
L 1825 4091 
L 703 3866 
L 703 4441 
L 1819 4666 
L 2450 4666 
L 2450 531 
L 3481 531 
L 3481 0 
L 794 0 
L 794 531 
z
" transform="scale(0.015625)"/>
       </defs>
       <use xlink:href="#DejaVuSans-31"/>
       <use xlink:href="#DejaVuSans-30" x="63.623047"/>
       <use xlink:href="#DejaVuSans-30" x="127.246094"/>
       <use xlink:href="#DejaVuSans-30" x="190.869141"/>
      </g>
     </g>
    </g>
    <g id="xtick_3">
     <g id="line2d_3">
      <g>
       <use xlink:href="#mc21230ac81" x="493.630705" y="448.56" style="stroke: #000000; stroke-width: 0.8"/>
      </g>
     </g>
     <g id="text_3">
      <!-- 2000 -->
      <g transform="translate(480.905705 463.158437) scale(0.1 -0.1)">
       <defs>
        <path id="DejaVuSans-32" d="M 1228 531 
L 3431 531 
L 3431 0 
L 469 0 
L 469 531 
Q 828 903 1448 1529 
Q 2069 2156 2228 2338 
Q 2531 2678 2651 2914 
Q 2772 3150 2772 3378 
Q 2772 3750 2511 3984 
Q 2250 4219 1831 4219 
Q 1534 4219 1204 4116 
Q 875 4013 500 3803 
L 500 4441 
Q 881 4594 1212 4672 
Q 1544 4750 1819 4750 
Q 2544 4750 2975 4387 
Q 3406 4025 3406 3419 
Q 3406 3131 3298 2873 
Q 3191 2616 2906 2266 
Q 2828 2175 2409 1742 
Q 1991 1309 1228 531 
z
" transform="scale(0.015625)"/>
       </defs>
       <use xlink:href="#DejaVuSans-32"/>
       <use xlink:href="#DejaVuSans-30" x="63.623047"/>
       <use xlink:href="#DejaVuSans-30" x="127.246094"/>
       <use xlink:href="#DejaVuSans-30" x="190.869141"/>
      </g>
     </g>
    </g>
    <g id="xtick_4">
     <g id="line2d_4">
      <g>
       <use xlink:href="#mc21230ac81" x="653.92333" y="448.56" style="stroke: #000000; stroke-width: 0.8"/>
      </g>
     </g>
     <g id="text_4">
      <!-- 3000 -->
      <g transform="translate(641.19833 463.158437) scale(0.1 -0.1)">
       <defs>
        <path id="DejaVuSans-33" d="M 2597 2516 
Q 3050 2419 3304 2112 
Q 3559 1806 3559 1356 
Q 3559 666 3084 287 
Q 2609 -91 1734 -91 
Q 1441 -91 1130 -33 
Q 819 25 488 141 
L 488 750 
Q 750 597 1062 519 
Q 1375 441 1716 441 
Q 2309 441 2620 675 
Q 2931 909 2931 1356 
Q 2931 1769 2642 2001 
Q 2353 2234 1838 2234 
L 1294 2234 
L 1294 2753 
L 1863 2753 
Q 2328 2753 2575 2939 
Q 2822 3125 2822 3475 
Q 2822 3834 2567 4026 
Q 2313 4219 1838 4219 
Q 1578 4219 1281 4162 
Q 984 4106 628 3988 
L 628 4550 
Q 988 4650 1302 4700 
Q 1616 4750 1894 4750 
Q 2613 4750 3031 4423 
Q 3450 4097 3450 3541 
Q 3450 3153 3228 2886 
Q 3006 2619 2597 2516 
z
" transform="scale(0.015625)"/>
       </defs>
       <use xlink:href="#DejaVuSans-33"/>
       <use xlink:href="#DejaVuSans-30" x="63.623047"/>
       <use xlink:href="#DejaVuSans-30" x="127.246094"/>
       <use xlink:href="#DejaVuSans-30" x="190.869141"/>
      </g>
     </g>
    </g>
    <g id="xtick_5">
     <g id="line2d_5">
      <g>
       <use xlink:href="#mc21230ac81" x="814.215955" y="448.56" style="stroke: #000000; stroke-width: 0.8"/>
      </g>
     </g>
     <g id="text_5">
      <!-- 4000 -->
      <g transform="translate(801.490955 463.158437) scale(0.1 -0.1)">
       <defs>
        <path id="DejaVuSans-34" d="M 2419 4116 
L 825 1625 
L 2419 1625 
L 2419 4116 
z
M 2253 4666 
L 3047 4666 
L 3047 1625 
L 3713 1625 
L 3713 1100 
L 3047 1100 
L 3047 0 
L 2419 0 
L 2419 1100 
L 313 1100 
L 313 1709 
L 2253 4666 
z
" transform="scale(0.015625)"/>
       </defs>
       <use xlink:href="#DejaVuSans-34"/>
       <use xlink:href="#DejaVuSans-30" x="63.623047"/>
       <use xlink:href="#DejaVuSans-30" x="127.246094"/>
       <use xlink:href="#DejaVuSans-30" x="190.869141"/>
      </g>
     </g>
    </g>
    <g id="text_6">
     <!-- t -->
     <g transform="translate(551.539844 476.836563) scale(0.1 -0.1)">
      <defs>
       <path id="DejaVuSans-74" d="M 1172 4494 
L 1172 3500 
L 2356 3500 
L 2356 3053 
L 1172 3053 
L 1172 1153 
Q 1172 725 1289 603 
Q 1406 481 1766 481 
L 2356 481 
L 2356 0 
L 1766 0 
Q 1100 0 847 248 
Q 594 497 594 1153 
L 594 3053 
L 172 3053 
L 172 3500 
L 594 3500 
L 594 4494 
L 1172 4494 
z
" transform="scale(0.015625)"/>
      </defs>
      <use xlink:href="#DejaVuSans-74"/>
     </g>
    </g>
   </g>
   <g id="matplotlib.axis_2">
    <g id="ytick_1">
     <g id="line2d_6">
      <defs>
       <path id="m41f7e362cc" d="M 0 0 
L -3.5 0 
" style="stroke: #000000; stroke-width: 0.8"/>
      </defs>
      <g>
       <use xlink:href="#m41f7e362cc" x="135" y="374.951217" style="stroke: #000000; stroke-width: 0.8"/>
      </g>
     </g>
     <g id="text_7">
      <!-- 0 -->
      <g transform="translate(121.6375 378.750436) scale(0.1 -0.1)">
       <use xlink:href="#DejaVuSans-30"/>
      </g>
     </g>
    </g>
    <g id="ytick_2">
     <g id="line2d_7">
      <g>
       <use xlink:href="#m41f7e362cc" x="135" y="289.409621" style="stroke: #000000; stroke-width: 0.8"/>
      </g>
     </g>
     <g id="text_8">
      <!-- 1 -->
      <g transform="translate(121.6375 293.20884) scale(0.1 -0.1)">
       <use xlink:href="#DejaVuSans-31"/>
      </g>
     </g>
    </g>
    <g id="ytick_3">
     <g id="line2d_8">
      <g>
       <use xlink:href="#m41f7e362cc" x="135" y="203.868025" style="stroke: #000000; stroke-width: 0.8"/>
      </g>
     </g>
     <g id="text_9">
      <!-- 2 -->
      <g transform="translate(121.6375 207.667244) scale(0.1 -0.1)">
       <use xlink:href="#DejaVuSans-32"/>
      </g>
     </g>
    </g>
    <g id="ytick_4">
     <g id="line2d_9">
      <g>
       <use xlink:href="#m41f7e362cc" x="135" y="118.326429" style="stroke: #000000; stroke-width: 0.8"/>
      </g>
     </g>
     <g id="text_10">
      <!-- 3 -->
      <g transform="translate(121.6375 122.125647) scale(0.1 -0.1)">
       <use xlink:href="#DejaVuSans-33"/>
      </g>
     </g>
    </g>
   </g>
   <g id="line2d_10">
    <path d="M 173.045455 314.380442 
L 173.205747 296.067511 
L 173.36604 301.765297 
L 174.167503 382.494008 
L 174.327796 385.914799 
L 174.488088 384.453485 
L 174.808673 371.417677 
L 175.770429 321.612139 
L 176.4116 295.630322 
L 176.732185 271.866373 
L 177.05277 231.798766 
L 177.533648 127.892134 
L 177.693941 79.276324 
L 178.014526 343.298002 
L 178.335111 423.175513 
L 178.495404 430.92 
L 178.655696 428.288831 
L 179.777745 375.983126 
L 180.09833 373.571809 
L 180.258623 373.784788 
L 181.060086 377.406497 
L 181.220378 377.504681 
L 181.380671 377.282027 
L 181.701256 376.053384 
L 182.502719 371.942729 
L 182.823305 371.335074 
L 182.983597 371.405285 
L 183.304183 372.281278 
L 183.78506 374.982786 
L 184.586524 379.750365 
L 184.907109 380.441428 
L 185.067401 380.342965 
L 185.227694 379.908426 
L 185.548279 377.961694 
L 185.868865 374.547892 
L 186.349742 366.874495 
L 187.151206 349.262181 
L 188.433547 320.141243 
L 189.074717 310.331115 
L 189.555595 306.248989 
L 189.87618 305.181503 
L 190.036473 305.135389 
L 190.196765 305.403134 
L 190.517351 306.830356 
L 190.998229 310.95698 
L 191.639399 319.3275 
L 192.92174 340.601506 
L 194.043788 357.740031 
L 194.845252 366.623364 
L 195.486422 371.253447 
L 195.9673 373.301793 
L 196.287885 374.040421 
L 196.60847 374.324765 
L 196.929056 374.202712 
L 197.249641 373.726328 
L 197.730519 372.466363 
L 198.371689 370.053458 
L 201.256957 357.926364 
L 201.898127 356.286627 
L 202.539298 355.227324 
L 203.020175 354.806443 
L 203.501053 354.685091 
L 203.981931 354.835808 
L 204.462809 355.225875 
L 205.10398 356.056543 
L 205.905443 357.472771 
L 207.187784 360.242923 
L 209.912758 366.224674 
L 211.195099 368.510335 
L 212.47744 370.337583 
L 213.278903 371.255603 
L 213.439196 310.869084 
L 213.599489 292.732211 
L 213.759781 298.598131 
L 214.561244 380.057883 
L 214.721537 383.604798 
L 214.88183 382.263521 
L 215.202415 369.45054 
L 216.164171 320.192661 
L 216.805341 294.49239 
L 217.125926 270.848611 
L 217.446512 230.889133 
L 217.767097 168.393714 
L 218.087682 78.55126 
L 218.408267 342.644592 
L 218.728853 422.587259 
L 218.889145 430.362088 
L 219.049438 427.759859 
L 220.171486 375.622007 
L 220.492072 373.248871 
L 220.652364 373.47952 
L 221.453827 377.176892 
L 221.61412 377.287922 
L 221.774413 377.07743 
L 222.094998 375.871189 
L 222.896461 371.8067 
L 223.217046 371.214139 
L 223.377339 371.29127 
L 223.697924 372.179962 
L 224.178802 374.897955 
L 224.980265 379.687328 
L 225.30085 380.385465 
L 225.461143 380.290238 
L 225.621436 379.858749 
L 225.942021 377.917602 
L 226.262606 374.508762 
L 226.743484 366.841785 
L 227.544947 349.237928 
L 228.827288 320.126229 
L 229.468459 310.319306 
L 229.949336 306.239127 
L 230.269922 305.172758 
L 230.430214 305.127154 
L 230.590507 305.395379 
L 230.911092 306.823478 
L 231.39197 310.951235 
L 232.033141 319.322981 
L 233.315482 340.598704 
L 234.43753 357.738181 
L 235.238993 366.621985 
L 235.880164 371.252355 
L 236.361041 373.300876 
L 236.681627 374.039603 
L 237.002212 374.324037 
L 237.322797 374.202062 
L 237.643382 373.725748 
L 238.12426 372.465873 
L 238.765431 370.053067 
L 241.650698 357.926219 
L 242.291869 356.28651 
L 242.933039 355.227229 
L 243.413917 354.806363 
L 243.894795 354.685023 
L 244.375673 354.835749 
L 244.856551 355.225825 
L 245.497721 356.056502 
L 246.299184 357.47274 
L 247.581525 360.242903 
L 250.3065 366.224665 
L 251.588841 368.51033 
L 252.871182 370.337579 
L 253.99323 371.578273 
L 254.153523 311.17761 
L 254.313815 293.027097 
L 254.474108 298.879872 
L 255.275571 380.28098 
L 255.435864 383.817507 
L 255.596156 382.466262 
L 255.916742 369.634556 
L 256.878497 320.329285 
L 257.519668 294.603776 
L 257.840253 270.949016 
L 258.160838 230.97954 
L 258.481424 168.475031 
L 258.802009 78.624322 
L 259.122594 342.710917 
L 259.443179 422.647384 
L 259.603472 430.4193 
L 259.763765 427.814279 
L 260.885813 375.659921 
L 261.206398 373.282953 
L 261.366691 373.511818 
L 262.168154 377.20147 
L 262.328447 377.311174 
L 262.488739 377.099425 
L 262.809325 375.890855 
L 263.610788 371.821519 
L 263.931373 371.227358 
L 264.091666 371.303753 
L 264.412251 372.191088 
L 264.893129 374.907311 
L 265.694592 379.694324 
L 266.015177 380.39169 
L 266.17547 380.296109 
L 266.335762 379.864286 
L 266.656348 377.922526 
L 266.976933 374.513139 
L 267.457811 366.845454 
L 268.259274 349.240658 
L 269.541615 320.127927 
L 270.182785 310.320645 
L 270.663663 306.240246 
L 270.984248 305.173751 
L 271.144541 305.12809 
L 271.304834 305.396261 
L 271.625419 306.824261 
L 272.106297 310.951889 
L 272.747467 319.323496 
L 274.029808 340.599024 
L 275.151857 357.738392 
L 275.95332 366.622143 
L 276.59449 371.25248 
L 277.075368 373.30098 
L 277.395953 374.039697 
L 277.716539 374.32412 
L 278.037124 374.202136 
L 278.357709 373.725814 
L 278.838587 372.465929 
L 279.479758 370.053111 
L 282.365025 357.926235 
L 283.006195 356.286523 
L 283.647366 355.22724 
L 284.128244 354.806372 
L 284.609122 354.68503 
L 285.089999 354.835756 
L 285.570877 355.22583 
L 286.212048 356.056507 
L 287.013511 357.472744 
L 288.295852 360.242905 
L 291.020827 366.224666 
L 292.303168 368.51033 
L 293.585509 370.33758 
L 293.745801 309.989815 
L 293.906094 291.890399 
L 294.066386 297.792499 
L 294.86785 379.414753 
L 295.028142 382.990653 
L 295.188435 381.677251 
L 295.50902 368.916805 
L 296.470776 319.792979 
L 297.111946 294.164824 
L 297.432532 270.552602 
L 297.753117 230.621959 
L 298.073702 168.152848 
L 298.394287 78.334361 
L 298.714873 342.447207 
L 299.035458 422.407907 
L 299.19575 430.191231 
L 299.356043 427.597165 
L 300.478091 375.507864 
L 300.798677 373.146081 
L 300.958969 373.382027 
L 301.760432 377.102405 
L 301.920725 377.217396 
L 302.081018 377.010673 
L 302.401603 375.811416 
L 303.203066 371.761513 
L 303.523651 371.173783 
L 303.683944 371.253142 
L 304.004529 372.14594 
L 304.485407 374.869305 
L 305.28687 379.665859 
L 305.607455 380.366348 
L 305.767748 380.272201 
L 305.928041 379.841733 
L 306.248626 377.902459 
L 306.569211 374.49529 
L 307.050089 366.830487 
L 307.851552 349.22951 
L 309.133893 320.120985 
L 309.775064 310.315171 
L 310.255942 306.235667 
L 310.576527 305.169686 
L 310.736819 305.12426 
L 310.897112 305.392652 
L 311.217697 306.821058 
L 311.698575 310.949211 
L 312.339746 319.321385 
L 313.622087 340.597712 
L 314.744135 357.737525 
L 315.545598 366.621496 
L 316.186769 371.251969 
L 316.667647 373.300551 
L 316.988232 374.039314 
L 317.308817 374.323779 
L 317.629402 374.201832 
L 317.949988 373.725544 
L 318.430865 372.465701 
L 319.072036 370.05293 
L 321.957303 357.926169 
L 322.598474 356.28647 
L 323.239644 355.227197 
L 323.720522 354.806336 
L 324.2014 354.685 
L 324.682278 354.83573 
L 325.163156 355.225808 
L 325.804326 356.056489 
L 326.605789 357.47273 
L 327.88813 360.242896 
L 330.613105 366.224663 
L 331.895446 368.510328 
L 333.177787 370.337578 
L 333.818957 371.084977 
L 333.97925 310.705825 
L 334.139543 292.576063 
L 334.299835 298.448841 
L 335.101298 379.939278 
L 335.261591 383.491644 
L 335.421884 382.155602 
L 335.742469 369.352469 
L 336.704225 320.119595 
L 337.345395 294.432694 
L 337.66598 270.794746 
L 337.986566 230.840585 
L 338.307151 168.350007 
L 338.627736 78.511954 
L 338.948321 342.608876 
L 339.268907 422.554851 
L 339.429199 430.331236 
L 339.589492 427.730501 
L 340.71154 375.601495 
L 341.032126 373.230419 
L 341.192418 373.462029 
L 341.993881 377.16356 
L 342.154174 377.275305 
L 342.314467 377.065493 
L 342.635052 375.86051 
L 343.436515 371.798642 
L 343.7571 371.206947 
L 343.917393 371.284478 
L 344.237978 372.173905 
L 344.718856 374.892859 
L 345.520319 379.683514 
L 345.840904 380.382071 
L 346.001197 380.287036 
L 346.16149 379.855729 
L 346.482075 377.914915 
L 346.80266 374.506372 
L 347.283538 366.839782 
L 348.085001 349.236437 
L 349.367342 320.125301 
L 350.008513 310.318575 
L 350.48939 306.238515 
L 350.809976 305.172215 
L 350.970268 305.126642 
L 351.130561 305.394897 
L 351.451146 306.82305 
L 351.932024 310.950877 
L 352.573195 319.322699 
L 353.855536 340.598528 
L 354.977584 357.738065 
L 355.779047 366.621899 
L 356.420218 371.252287 
L 356.901095 373.300818 
L 357.221681 374.039552 
L 357.542266 374.323991 
L 357.862851 374.202021 
L 358.183436 373.725712 
L 358.664314 372.465843 
L 359.305485 370.053043 
L 362.190752 357.92621 
L 362.831923 356.286503 
L 363.473093 355.227224 
L 363.953971 354.806358 
L 364.434849 354.685019 
L 364.915727 354.835746 
L 365.396605 355.225822 
L 366.037775 356.0565 
L 366.839238 357.472738 
L 368.121579 360.242902 
L 370.846554 366.224665 
L 372.128895 368.510329 
L 373.090651 369.923335 
L 373.250943 309.592369 
L 373.411236 291.50923 
L 373.571528 297.427091 
L 374.372992 379.120624 
L 374.533284 382.70933 
L 374.693577 381.408272 
L 375.014162 368.67117 
L 375.975918 319.607422 
L 376.617088 294.011928 
L 376.937674 270.414083 
L 377.258259 230.496626 
L 377.578844 168.039588 
L 377.899429 78.232137 
L 378.220015 342.353944 
L 378.5406 422.32296 
L 378.700892 430.110213 
L 378.861185 427.519931 
L 379.983233 375.453288 
L 380.303819 373.096843 
L 380.464111 373.335285 
L 381.265574 377.066545 
L 381.425867 377.183418 
L 381.58616 376.978485 
L 381.906745 375.782554 
L 382.708208 371.739622 
L 383.028793 371.15421 
L 383.189086 371.234638 
L 383.509671 372.129411 
L 383.990549 374.855365 
L 384.792012 379.655389 
L 385.112597 380.357019 
L 385.27289 380.263395 
L 385.433183 379.833422 
L 385.753768 377.895059 
L 386.074353 374.488702 
L 386.555231 366.824957 
L 387.356694 349.225385 
L 388.639035 320.118412 
L 389.280206 310.31314 
L 389.761084 306.233968 
L 390.081669 305.168177 
L 390.241961 305.122837 
L 390.402254 305.391312 
L 390.722839 306.819867 
L 391.203717 310.948215 
L 391.844888 319.3206 
L 393.127229 340.597223 
L 394.249277 357.737202 
L 395.05074 366.621255 
L 395.691911 371.251778 
L 396.172789 373.300391 
L 396.493374 374.039172 
L 396.813959 374.323652 
L 397.134544 374.201719 
L 397.45513 373.725443 
L 397.936007 372.465616 
L 398.577178 370.052862 
L 401.462445 357.926144 
L 402.103616 356.28645 
L 402.744786 355.227182 
L 403.225664 354.806322 
L 403.706542 354.684988 
L 404.18742 354.83572 
L 404.668298 355.2258 
L 405.309468 356.056482 
L 406.110931 357.472725 
L 407.393272 360.242893 
L 410.118247 366.224662 
L 411.400588 368.510327 
L 412.682929 370.337578 
L 413.644685 371.419985 
L 413.804977 311.026296 
L 413.96527 292.882506 
L 414.125563 298.741758 
L 414.927026 380.171736 
L 415.087318 383.713372 
L 415.247611 382.367028 
L 415.568196 369.544525 
L 416.529952 320.262519 
L 417.171122 294.549382 
L 417.491708 270.900001 
L 417.812293 230.935421 
L 418.132878 168.43536 
L 418.453463 78.588689 
L 418.774049 342.67858 
L 419.094634 422.618079 
L 419.254927 430.391419 
L 419.415219 427.787763 
L 420.537268 375.641465 
L 420.857853 373.266366 
L 421.018145 373.496102 
L 421.819609 377.189516 
L 421.979901 377.299866 
L 422.140194 377.08873 
L 422.460779 375.881294 
L 423.262242 371.814318 
L 423.582827 371.220935 
L 423.74312 371.297688 
L 424.063705 372.185684 
L 424.544583 374.902767 
L 425.346046 379.690927 
L 425.666632 380.388668 
L 425.826924 380.293259 
L 425.987217 379.861598 
L 426.307802 377.920136 
L 426.628387 374.511015 
L 427.109265 366.843673 
L 427.910728 349.239333 
L 429.193069 320.127103 
L 429.83424 310.319995 
L 430.315118 306.239703 
L 430.635703 305.173269 
L 430.795996 305.127636 
L 430.956288 305.395833 
L 431.276873 306.823881 
L 431.757751 310.951572 
L 432.398922 319.323246 
L 433.681263 340.598868 
L 434.803311 357.73829 
L 435.604774 366.622066 
L 436.245945 371.25242 
L 436.726823 373.300929 
L 437.047408 374.039651 
L 437.367993 374.324079 
L 437.688578 374.2021 
L 438.009164 373.725782 
L 438.490042 372.465902 
L 439.131212 370.05309 
L 442.016479 357.926227 
L 442.65765 356.286516 
L 443.29882 355.227235 
L 443.779698 354.806367 
L 444.260576 354.685027 
L 444.741454 354.835753 
L 445.222332 355.225828 
L 445.863502 356.056505 
L 446.664965 357.472742 
L 447.947306 360.242904 
L 450.672281 366.224666 
L 451.954622 368.51033 
L 453.236963 370.33758 
L 453.557548 370.724504 
L 453.717841 310.360666 
L 453.878134 292.245701 
L 454.038426 298.132766 
L 454.839889 379.687301 
L 455.000182 383.251086 
L 455.160475 381.926023 
L 455.48106 369.143569 
L 456.442816 319.96339 
L 457.083986 294.304789 
L 457.404571 270.679213 
L 457.725157 230.73635 
L 458.045742 168.256073 
L 458.366327 78.4274 
L 458.686912 342.531962 
L 459.007498 422.484993 
L 459.16779 430.2647 
L 459.328083 427.667156 
L 460.450131 375.557108 
L 460.770716 373.19046 
L 460.931009 373.424134 
L 461.732472 377.134629 
L 461.892765 377.247915 
L 462.053057 377.03957 
L 462.373643 375.837305 
L 463.175106 371.78111 
L 463.495691 371.191293 
L 463.655984 371.269689 
L 463.976569 372.160711 
L 464.457447 374.881752 
L 465.25891 379.675194 
L 465.579495 380.374663 
L 465.739788 380.280048 
L 465.90008 379.849136 
L 466.220666 377.909049 
L 466.541251 374.501154 
L 467.022129 366.835407 
L 467.823592 349.233177 
L 469.105933 320.123271 
L 469.747103 310.316974 
L 470.227981 306.237176 
L 470.548567 305.171026 
L 470.708859 305.125522 
L 470.869152 305.393842 
L 471.189737 306.822114 
L 471.670615 310.950094 
L 472.311785 319.322082 
L 473.594126 340.598145 
L 474.716175 357.737811 
L 475.517638 366.62171 
L 476.158808 371.252138 
L 476.639686 373.300693 
L 476.960272 374.039441 
L 477.280857 374.323892 
L 477.601442 374.201933 
L 477.922027 373.725633 
L 478.402905 372.465776 
L 479.044076 370.05299 
L 481.929343 357.926191 
L 482.570513 356.286487 
L 483.211684 355.227211 
L 483.692562 354.806347 
L 484.17344 354.68501 
L 484.654318 354.835738 
L 485.135195 355.225816 
L 485.776366 356.056495 
L 486.577829 357.472735 
L 487.86017 360.242899 
L 490.585145 366.224664 
L 491.867486 368.510329 
L 493.149827 370.337579 
L 493.630705 370.907987 
L 493.790997 310.536396 
L 493.95129 292.413937 
L 494.111582 298.293765 
L 494.913046 379.815796 
L 495.073338 383.373785 
L 495.233631 382.043147 
L 495.554216 369.250188 
L 496.515972 320.04321 
L 497.157142 294.370196 
L 497.477728 270.738313 
L 497.798313 230.789689 
L 498.118898 168.304156 
L 498.439483 78.470695 
L 498.760069 342.571359 
L 499.080654 422.520787 
L 499.240946 430.298797 
L 499.401239 427.699623 
L 500.523287 375.579881 
L 500.843873 373.210966 
L 501.004165 373.443583 
L 501.805628 377.149486 
L 501.965921 377.261982 
L 502.126214 377.052884 
L 502.446799 375.849226 
L 503.248262 371.790121 
L 503.568847 371.19934 
L 503.72914 371.277291 
L 504.049725 372.167495 
L 504.530603 374.887464 
L 505.332066 379.679474 
L 505.652651 380.378474 
L 505.812944 380.283643 
L 505.973237 379.852528 
L 506.293822 377.912068 
L 506.614407 374.50384 
L 507.095285 366.837659 
L 507.896748 349.234855 
L 509.179089 320.124316 
L 509.82026 310.317798 
L 510.301138 306.237866 
L 510.621723 305.171638 
L 510.782015 305.126099 
L 510.942308 305.394385 
L 511.262893 306.822596 
L 511.743771 310.950497 
L 512.384942 319.3224 
L 513.667283 340.598342 
L 514.789331 357.737942 
L 515.590794 366.621807 
L 516.231965 371.252215 
L 516.712843 373.300757 
L 517.033428 374.039498 
L 517.354013 374.323943 
L 517.674598 374.201978 
L 517.995184 373.725674 
L 518.476061 372.465811 
L 519.117232 370.053017 
L 522.002499 357.926201 
L 522.64367 356.286495 
L 523.28484 355.227218 
L 523.765718 354.806353 
L 524.246596 354.685014 
L 524.727474 354.835742 
L 525.208352 355.225819 
L 525.849522 356.056497 
L 526.650985 357.472737 
L 527.933326 360.2429 
L 530.658301 366.224665 
L 531.940642 368.510329 
L 533.222983 370.337579 
L 533.864153 371.084977 
L 534.024446 310.705825 
L 534.184739 292.576063 
L 534.345031 298.448842 
L 535.146494 379.939279 
L 535.306787 383.491645 
L 535.46708 382.155603 
L 535.787665 369.352469 
L 536.749421 320.119595 
L 537.390591 294.432694 
L 537.711176 270.794746 
L 538.031762 230.840585 
L 538.352347 168.350007 
L 538.672932 78.511954 
L 538.993517 342.608876 
L 539.314103 422.554851 
L 539.474395 430.331236 
L 539.634688 427.730501 
L 540.756736 375.601495 
L 541.077322 373.230419 
L 541.237614 373.462029 
L 542.039077 377.163561 
L 542.19937 377.275305 
L 542.359663 377.065493 
L 542.680248 375.86051 
L 543.481711 371.798642 
L 543.802296 371.206947 
L 543.962589 371.284478 
L 544.283174 372.173905 
L 544.764052 374.892859 
L 545.565515 379.683514 
L 545.8861 380.382071 
L 546.046393 380.287036 
L 546.206686 379.855729 
L 546.527271 377.914915 
L 546.847856 374.506372 
L 547.328734 366.839782 
L 548.130197 349.236437 
L 549.412538 320.125301 
L 550.053709 310.318575 
L 550.534586 306.238515 
L 550.855172 305.172215 
L 551.015464 305.126642 
L 551.175757 305.394897 
L 551.496342 306.82305 
L 551.97722 310.950877 
L 552.618391 319.322699 
L 553.900732 340.598528 
L 555.02278 357.738065 
L 555.824243 366.621899 
L 556.465414 371.252287 
L 556.946291 373.300818 
L 557.266877 374.039552 
L 557.587462 374.323991 
L 557.908047 374.202021 
L 558.228632 373.725712 
L 558.70951 372.465843 
L 559.350681 370.053043 
L 562.235948 357.92621 
L 562.877119 356.286503 
L 563.518289 355.227224 
L 563.999167 354.806358 
L 564.480045 354.685019 
L 564.960923 354.835746 
L 565.441801 355.225822 
L 566.082971 356.0565 
L 566.884434 357.472738 
L 568.166775 360.242902 
L 570.89175 366.224665 
L 572.174091 368.510329 
L 573.456432 370.337579 
L 574.257895 371.2556 
L 574.418188 310.869081 
L 574.57848 292.732208 
L 574.738773 298.598128 
L 575.540236 380.057881 
L 575.700529 383.604796 
L 575.860821 382.26352 
L 576.181406 369.450539 
L 577.143162 320.19266 
L 577.784333 294.492389 
L 578.104918 270.84861 
L 578.425503 230.889132 
L 578.746088 168.393713 
L 579.066674 78.551259 
L 579.387259 342.644591 
L 579.707844 422.587258 
L 579.868137 430.362087 
L 580.028429 427.759859 
L 581.150478 375.622006 
L 581.471063 373.24887 
L 581.631356 373.47952 
L 582.432819 377.176892 
L 582.593111 377.287921 
L 582.753404 377.07743 
L 583.073989 375.871189 
L 583.875452 371.8067 
L 584.196038 371.214138 
L 584.35633 371.29127 
L 584.676916 372.179962 
L 585.157793 374.897955 
L 585.959257 379.687328 
L 586.279842 380.385465 
L 586.440134 380.290238 
L 586.600427 379.858749 
L 586.921012 377.917602 
L 587.241598 374.508761 
L 587.722475 366.841785 
L 588.523939 349.237928 
L 589.80628 320.126229 
L 590.44745 310.319306 
L 590.928328 306.239127 
L 591.248913 305.172758 
L 591.409206 305.127154 
L 591.569498 305.395379 
L 591.890084 306.823478 
L 592.370962 310.951235 
L 593.012132 319.322981 
L 594.294473 340.598704 
L 595.416521 357.738181 
L 596.217985 366.621985 
L 596.859155 371.252355 
L 597.340033 373.300876 
L 597.660618 374.039603 
L 597.981203 374.324037 
L 598.301789 374.202062 
L 598.622374 373.725748 
L 599.103252 372.465873 
L 599.744422 370.053067 
L 602.62969 357.926219 
L 603.27086 356.28651 
L 603.912031 355.227229 
L 604.392908 354.806363 
L 604.873786 354.685023 
L 605.354664 354.835749 
L 605.835542 355.225825 
L 606.476713 356.056502 
L 607.278176 357.47274 
L 608.560517 360.242903 
L 611.285491 366.224665 
L 612.567832 368.51033 
L 613.209003 369.481043 
L 613.369295 309.167563 
L 613.529588 291.101389 
L 613.689881 297.035701 
L 614.491344 378.803963 
L 614.651636 382.406156 
L 614.811929 381.118116 
L 615.132514 368.405686 
L 616.09427 319.405775 
L 616.735441 293.845216 
L 617.056026 270.262807 
L 617.376611 230.359539 
L 617.697196 167.915522 
L 618.017782 78.12 
L 618.338367 342.25147 
L 618.658952 422.229481 
L 618.819245 430.020993 
L 618.979537 427.434816 
L 620.101586 375.39287 
L 620.422171 373.042272 
L 620.582464 373.283451 
L 621.383927 377.026673 
L 621.544219 377.14562 
L 621.704512 376.942663 
L 622.025097 375.750403 
L 622.82656 371.715185 
L 623.147146 371.132344 
L 623.307438 371.213959 
L 623.628023 372.110926 
L 624.108901 374.83976 
L 624.910364 379.643653 
L 625.23095 380.346555 
L 625.391242 380.253517 
L 625.551535 379.824097 
L 625.87212 377.886751 
L 626.192705 374.481304 
L 626.673583 366.818743 
L 627.475046 349.220746 
L 628.757387 320.115515 
L 629.398558 310.310853 
L 629.879436 306.232053 
L 630.200021 305.166476 
L 630.360314 305.121235 
L 630.520606 305.389802 
L 630.841192 306.818526 
L 631.322069 310.947092 
L 631.96324 319.319715 
L 633.245581 340.596672 
L 634.367629 357.736837 
L 635.169092 366.620983 
L 635.810263 371.251562 
L 636.291141 373.30021 
L 636.611726 374.03901 
L 636.932311 374.323508 
L 637.252897 374.201591 
L 637.573482 373.725329 
L 638.05436 372.46552 
L 638.69553 370.052786 
L 641.580797 357.926117 
L 642.221968 356.286428 
L 642.863138 355.227164 
L 643.344016 354.806307 
L 643.824894 354.684976 
L 644.305772 354.835709 
L 644.78665 355.225791 
L 645.42782 356.056475 
L 646.229284 357.47272 
L 647.511625 360.242889 
L 650.236599 366.22466 
L 651.51894 368.510326 
L 652.801281 370.337577 
L 653.92333 371.578272 
L 654.083622 311.177608 
L 654.243915 293.027096 
L 654.404207 298.87987 
L 655.205671 380.280979 
L 655.365963 383.817506 
L 655.526256 382.466261 
L 655.846841 369.634555 
L 656.808597 320.329285 
L 657.449767 294.603776 
L 657.770353 270.949015 
L 658.090938 230.97954 
L 658.411523 168.475031 
L 658.732108 78.624322 
L 659.052694 342.710917 
L 659.373279 422.647384 
L 659.533571 430.4193 
L 659.693864 427.814279 
L 660.815912 375.659921 
L 661.136498 373.282953 
L 661.29679 373.511818 
L 662.098253 377.201469 
L 662.258546 377.311174 
L 662.418839 377.099424 
L 662.739424 375.890855 
L 663.540887 371.821519 
L 663.861472 371.227358 
L 664.021765 371.303753 
L 664.34235 372.191088 
L 664.823228 374.907311 
L 665.624691 379.694324 
L 665.945276 380.39169 
L 666.105569 380.296109 
L 666.265862 379.864286 
L 666.586447 377.922526 
L 666.907032 374.513139 
L 667.38791 366.845454 
L 668.189373 349.240658 
L 669.471714 320.127927 
L 670.112885 310.320645 
L 670.593763 306.240246 
L 670.914348 305.173751 
L 671.07464 305.12809 
L 671.234933 305.396261 
L 671.555518 306.824261 
L 672.036396 310.951889 
L 672.677567 319.323496 
L 673.959908 340.599024 
L 675.081956 357.738392 
L 675.883419 366.622143 
L 676.52459 371.25248 
L 677.005468 373.30098 
L 677.326053 374.039697 
L 677.646638 374.32412 
L 677.967223 374.202136 
L 678.287809 373.725814 
L 678.768686 372.465929 
L 679.409857 370.053111 
L 682.295124 357.926235 
L 682.936295 356.286523 
L 683.577465 355.22724 
L 684.058343 354.806372 
L 684.539221 354.68503 
L 685.020099 354.835756 
L 685.500977 355.22583 
L 686.142147 356.056507 
L 686.94361 357.472744 
L 688.225951 360.242905 
L 690.950926 366.224666 
L 692.233267 368.51033 
L 693.515608 370.33758 
L 694.156778 371.084978 
L 694.317071 310.705826 
L 694.477364 292.576064 
L 694.637656 298.448842 
L 695.439119 379.939279 
L 695.599412 383.491645 
L 695.759705 382.155603 
L 696.08029 369.352469 
L 697.042046 320.119595 
L 697.683216 294.432694 
L 698.003801 270.794746 
L 698.324387 230.840586 
L 698.644972 168.350007 
L 698.965557 78.511954 
L 699.286142 342.608876 
L 699.606728 422.554851 
L 699.76702 430.331236 
L 699.927313 427.730501 
L 701.049361 375.601495 
L 701.369947 373.230419 
L 701.530239 373.462029 
L 702.331702 377.163561 
L 702.491995 377.275305 
L 702.652288 377.065493 
L 702.972873 375.86051 
L 703.774336 371.798642 
L 704.094921 371.206947 
L 704.255214 371.284478 
L 704.575799 372.173905 
L 705.056677 374.892859 
L 705.85814 379.683514 
L 706.178725 380.382071 
L 706.339018 380.287036 
L 706.499311 379.855729 
L 706.819896 377.914915 
L 707.140481 374.506372 
L 707.621359 366.839782 
L 708.422822 349.236437 
L 709.705163 320.125301 
L 710.346334 310.318575 
L 710.827211 306.238515 
L 711.147797 305.172215 
L 711.308089 305.126642 
L 711.468382 305.394897 
L 711.788967 306.82305 
L 712.269845 310.950877 
L 712.911016 319.322699 
L 714.193357 340.598528 
L 715.315405 357.738065 
L 716.116868 366.621899 
L 716.758039 371.252287 
L 717.238916 373.300818 
L 717.559502 374.039552 
L 717.880087 374.323991 
L 718.200672 374.202021 
L 718.521257 373.725712 
L 719.002135 372.465843 
L 719.643306 370.053043 
L 722.528573 357.92621 
L 723.169744 356.286503 
L 723.810914 355.227224 
L 724.291792 354.806358 
L 724.77267 354.685019 
L 725.253548 354.835746 
L 725.734426 355.225822 
L 726.375596 356.0565 
L 727.177059 357.472738 
L 728.4594 360.242902 
L 731.184375 366.224665 
L 732.466716 368.510329 
L 733.749057 370.337579 
L 734.069642 370.724503 
L 734.229935 310.360666 
L 734.390227 292.2457 
L 734.55052 298.132766 
L 735.351983 379.687301 
L 735.512276 383.251086 
L 735.672568 381.926023 
L 735.993154 369.143569 
L 736.954909 319.96339 
L 737.59608 294.304789 
L 737.916665 270.679213 
L 738.23725 230.73635 
L 738.557836 168.256073 
L 738.878421 78.4274 
L 739.199006 342.531962 
L 739.519591 422.484993 
L 739.679884 430.2647 
L 739.840177 427.667156 
L 740.962225 375.557108 
L 741.28281 373.19046 
L 741.443103 373.424134 
L 742.244566 377.134629 
L 742.404859 377.247915 
L 742.565151 377.03957 
L 742.885736 375.837305 
L 743.6872 371.78111 
L 744.007785 371.191293 
L 744.168077 371.269689 
L 744.488663 372.160711 
L 744.969541 374.881752 
L 745.771004 379.675194 
L 746.091589 380.374663 
L 746.251882 380.280048 
L 746.412174 379.849136 
L 746.732759 377.909049 
L 747.053345 374.501154 
L 747.534223 366.835407 
L 748.335686 349.233177 
L 749.618027 320.123271 
L 750.259197 310.316974 
L 750.740075 306.237176 
L 751.06066 305.171026 
L 751.220953 305.125522 
L 751.381246 305.393842 
L 751.701831 306.822114 
L 752.182709 310.950094 
L 752.823879 319.322082 
L 754.10622 340.598145 
L 755.228269 357.737811 
L 756.029732 366.62171 
L 756.670902 371.252138 
L 757.15178 373.300693 
L 757.472365 374.039441 
L 757.792951 374.323892 
L 758.113536 374.201933 
L 758.434121 373.725633 
L 758.914999 372.465776 
L 759.556169 370.05299 
L 762.441437 357.926191 
L 763.082607 356.286487 
L 763.723778 355.227211 
L 764.204656 354.806347 
L 764.685533 354.68501 
L 765.166411 354.835738 
L 765.647289 355.225816 
L 766.28846 356.056495 
L 767.089923 357.472735 
L 768.372264 360.242899 
L 771.097238 366.224664 
L 772.379579 368.510329 
L 773.66192 370.337579 
L 773.822213 370.534405 
L 773.982506 310.17851 
L 774.142798 292.071227 
L 774.303091 297.965717 
L 775.104554 379.553662 
L 775.264847 383.123418 
L 775.425139 381.804099 
L 775.745725 369.032483 
L 776.70748 319.880019 
L 777.348651 294.236368 
L 777.669236 270.617343 
L 777.989821 230.680472 
L 778.310407 168.205668 
L 778.630992 78.381984 
L 778.951577 342.490605 
L 779.272162 422.447392 
L 779.432455 430.22887 
L 779.592748 427.633028 
L 780.714796 375.533122 
L 781.035381 373.168849 
L 781.195674 373.403633 
L 781.997137 377.118949 
L 782.15743 377.233067 
L 782.317722 377.025512 
L 782.638307 375.824713 
L 783.439771 371.771583 
L 783.760356 371.182782 
L 783.920648 371.261647 
L 784.241234 372.153534 
L 784.722112 374.875705 
L 785.523575 379.67066 
L 785.84416 380.370625 
L 786.004453 380.276238 
L 786.164745 379.845542 
L 786.48533 377.90585 
L 786.805916 374.498308 
L 787.286794 366.833019 
L 788.088257 349.231398 
L 789.370598 320.122162 
L 790.011768 310.316099 
L 790.492646 306.236444 
L 790.813231 305.170376 
L 790.973524 305.12491 
L 791.133817 305.393265 
L 791.454402 306.821601 
L 791.93528 310.949665 
L 792.57645 319.321744 
L 793.858791 340.597935 
L 794.98084 357.737672 
L 795.782303 366.621606 
L 796.423473 371.252056 
L 796.904351 373.300624 
L 797.224936 374.039379 
L 797.545522 374.323837 
L 797.866107 374.201884 
L 798.186692 373.72559 
L 798.66757 372.46574 
L 799.30874 370.052961 
L 802.194008 357.92618 
L 802.835178 356.286479 
L 803.476349 355.227205 
L 803.957227 354.806342 
L 804.438104 354.685005 
L 804.918982 354.835734 
L 805.39986 355.225812 
L 806.041031 356.056492 
L 806.842494 357.472732 
L 808.124835 360.242898 
L 810.849809 366.224663 
L 812.13215 368.510328 
L 813.414491 370.337579 
L 813.574784 309.989813 
L 813.735077 291.890398 
L 813.895369 297.792498 
L 814.696832 379.414752 
L 814.857125 382.990652 
L 815.017418 381.67725 
L 815.338003 368.916804 
L 816.299759 319.792979 
L 816.940929 294.164823 
L 817.261514 270.552601 
L 817.5821 230.621959 
L 817.902685 168.152848 
L 818.22327 78.33436 
L 818.543855 342.447207 
L 818.864441 422.407907 
L 819.024733 430.191231 
L 819.185026 427.597165 
L 820.307074 375.507864 
L 820.62766 373.146081 
L 820.787952 373.382027 
L 821.589415 377.102405 
L 821.749708 377.217396 
L 821.910001 377.010673 
L 822.230586 375.811416 
L 823.032049 371.761513 
L 823.352634 371.173783 
L 823.512927 371.253142 
L 823.833512 372.14594 
L 824.31439 374.869305 
L 825.115853 379.665859 
L 825.436438 380.366348 
L 825.596731 380.272201 
L 825.757024 379.841733 
L 826.077609 377.902459 
L 826.398194 374.49529 
L 826.879072 366.830487 
L 827.680535 349.22951 
L 828.962876 320.120985 
L 829.604047 310.315171 
L 830.084924 306.235667 
L 830.40551 305.169686 
L 830.565802 305.12426 
L 830.726095 305.392652 
L 831.04668 306.821058 
L 831.527558 310.949211 
L 832.168729 319.321385 
L 833.45107 340.597712 
L 834.573118 357.737525 
L 835.374581 366.621496 
L 836.015752 371.251969 
L 836.496629 373.300551 
L 836.817215 374.039314 
L 837.1378 374.323779 
L 837.458385 374.201832 
L 837.77897 373.725544 
L 838.259848 372.465701 
L 838.901019 370.05293 
L 841.786286 357.926169 
L 842.427457 356.28647 
L 843.068627 355.227197 
L 843.549505 354.806336 
L 844.030383 354.685 
L 844.511261 354.83573 
L 844.992139 355.225808 
L 845.633309 356.056489 
L 846.434772 357.47273 
L 847.717113 360.242896 
L 850.442088 366.224663 
L 851.724429 368.510328 
L 853.00677 370.337578 
L 854.128818 371.578273 
L 854.609696 372.017956 
L 854.769989 311.597552 
L 854.930281 293.428032 
L 855.090574 299.262517 
L 855.892037 380.582381 
L 856.05233 384.104583 
L 856.212622 382.739611 
L 856.533208 369.882171 
L 857.494963 320.512118 
L 858.136134 294.752333 
L 858.456719 271.082714 
L 858.777304 231.099741 
L 859.09789 168.582986 
L 859.418475 78.721181 
L 859.73906 342.798708 
L 860.059645 422.72685 
L 860.219938 430.494863 
L 860.380231 427.886103 
L 861.502279 375.709742 
L 861.822864 373.327687 
L 861.983157 373.554188 
L 862.78462 377.23363 
L 862.944913 377.341587 
L 863.105205 377.128178 
L 863.42579 375.916542 
L 864.227254 371.840837 
L 864.547839 371.244577 
L 864.708131 371.320007 
L 865.028717 372.205567 
L 865.509595 374.919475 
L 866.311058 379.703407 
L 866.631643 380.399768 
L 866.791936 380.303726 
L 866.952228 379.871469 
L 867.272813 377.928911 
L 867.593399 374.518814 
L 868.074277 366.850207 
L 868.87574 349.244192 
L 870.158081 320.130124 
L 870.799251 310.322375 
L 871.280129 306.241693 
L 871.600714 305.175035 
L 871.761007 305.129299 
L 871.9213 305.3974 
L 872.241885 306.825271 
L 872.722763 310.952734 
L 873.363933 319.324162 
L 874.646274 340.599437 
L 875.768323 357.738665 
L 876.569786 366.622346 
L 877.210956 371.252641 
L 877.691834 373.301115 
L 878.012419 374.039817 
L 878.333005 374.324227 
L 878.65359 374.202231 
L 878.974175 373.725899 
L 879.455053 372.466 
L 880.096223 370.053168 
L 882.981491 357.926256 
L 883.622661 356.286539 
L 884.263832 355.227253 
L 884.74471 354.806383 
L 885.225587 354.68504 
L 885.706465 354.835764 
L 886.187343 355.225837 
L 886.828514 356.056512 
L 887.629977 357.472748 
L 888.912318 360.242908 
L 891.637292 366.224667 
L 892.919633 368.510331 
L 894.201974 370.33758 
L 894.362267 370.534406 
L 894.52256 310.178511 
L 894.682852 292.071228 
L 894.843145 297.965719 
L 895.644608 379.553663 
L 895.804901 383.123419 
L 895.965193 381.8041 
L 896.285779 369.032484 
L 897.247534 319.880019 
L 897.888705 294.236368 
L 898.20929 270.617343 
L 898.529875 230.680472 
L 898.850461 168.205668 
L 899.171046 78.381984 
L 899.491631 342.490606 
L 899.812216 422.447392 
L 899.972509 430.22887 
L 900.132802 427.633028 
L 901.25485 375.533122 
L 901.575435 373.16885 
L 901.735728 373.403633 
L 902.537191 377.118949 
L 902.697484 377.233067 
L 902.857776 377.025512 
L 903.178361 375.824713 
L 903.979825 371.771583 
L 904.30041 371.182783 
L 904.460702 371.261647 
L 904.781288 372.153534 
L 905.262166 374.875705 
L 906.063629 379.67066 
L 906.384214 380.370625 
L 906.544507 380.276238 
L 906.704799 379.845542 
L 907.025384 377.90585 
L 907.34597 374.498308 
L 907.826848 366.833019 
L 908.628311 349.231398 
L 909.910652 320.122162 
L 910.551822 310.316099 
L 911.0327 306.236444 
L 911.353285 305.170376 
L 911.513578 305.12491 
L 911.673871 305.393265 
L 911.994456 306.821601 
L 912.475334 310.949665 
L 913.116504 319.321744 
L 914.398845 340.597935 
L 915.520894 357.737672 
L 916.322357 366.621606 
L 916.963527 371.252056 
L 917.444405 373.300624 
L 917.76499 374.039379 
L 918.085576 374.323837 
L 918.406161 374.201884 
L 918.726746 373.72559 
L 919.207624 372.46574 
L 919.848794 370.052961 
L 922.734062 357.92618 
L 923.375232 356.286479 
L 924.016403 355.227205 
L 924.497281 354.806342 
L 924.978158 354.685005 
L 925.459036 354.835734 
L 925.939914 355.225812 
L 926.581085 356.056492 
L 927.382548 357.472732 
L 928.664889 360.242898 
L 931.389863 366.224663 
L 932.672204 368.510328 
L 933.794253 370.13392 
L 933.954545 309.794467 
L 933.954545 309.794467 
" clip-path="url(#p7494aa5110)" style="fill: none; stroke: #1f77b4; stroke-width: 1.5; stroke-linecap: square"/>
   </g>
   <g id="line2d_11">
    <path d="M 173.045455 289.409621 
L 177.693941 289.409621 
L 177.854233 374.951217 
L 213.278903 374.951217 
L 213.439196 289.409621 
L 218.087682 289.409621 
L 218.247975 374.951217 
L 253.99323 374.951217 
L 254.153523 289.409621 
L 258.802009 289.409621 
L 258.962302 374.951217 
L 293.585509 374.951217 
L 293.745801 289.409621 
L 298.394287 289.409621 
L 298.55458 374.951217 
L 333.818957 374.951217 
L 333.97925 289.409621 
L 338.627736 289.409621 
L 338.788029 374.951217 
L 373.090651 374.951217 
L 373.250943 289.409621 
L 377.899429 289.409621 
L 378.059722 374.951217 
L 413.644685 374.951217 
L 413.804977 289.409621 
L 418.453463 289.409621 
L 418.613756 374.951217 
L 453.557548 374.951217 
L 453.717841 289.409621 
L 458.366327 289.409621 
L 458.52662 374.951217 
L 493.630705 374.951217 
L 493.790997 289.409621 
L 498.439483 289.409621 
L 498.599776 374.951217 
L 533.864153 374.951217 
L 534.024446 289.409621 
L 538.672932 289.409621 
L 538.833225 374.951217 
L 574.257895 374.951217 
L 574.418188 289.409621 
L 579.066674 289.409621 
L 579.226966 374.951217 
L 613.209003 374.951217 
L 613.369295 289.409621 
L 618.017782 289.409621 
L 618.178074 374.951217 
L 653.92333 374.951217 
L 654.083622 289.409621 
L 658.732108 289.409621 
L 658.892401 374.951217 
L 694.156778 374.951217 
L 694.317071 289.409621 
L 698.965557 289.409621 
L 699.12585 374.951217 
L 734.069642 374.951217 
L 734.229935 289.409621 
L 738.878421 289.409621 
L 739.038713 374.951217 
L 773.822213 374.951217 
L 773.982506 289.409621 
L 778.630992 289.409621 
L 778.791284 374.951217 
L 813.414491 374.951217 
L 813.574784 289.409621 
L 818.22327 289.409621 
L 818.383563 374.951217 
L 854.609696 374.951217 
L 854.769989 289.409621 
L 859.418475 289.409621 
L 859.578767 374.951217 
L 894.362267 374.951217 
L 894.52256 289.409621 
L 899.171046 289.409621 
L 899.331338 374.951217 
L 933.794253 374.951217 
L 933.954545 289.409621 
L 933.954545 289.409621 
" clip-path="url(#p7494aa5110)" style="fill: none; stroke: #ff7f0e; stroke-width: 1.5; stroke-linecap: square"/>
   </g>
   <g id="line2d_12">
    <path d="M 929.466352 374.951217 
" clip-path="url(#p7494aa5110)" style="fill: none; stroke: #000000; stroke-width: 1.5; stroke-linecap: square"/>
    <defs>
     <path id="m5c701ce783" d="M 0 1 
C 0.265203 1 0.51958 0.894634 0.707107 0.707107 
C 0.894634 0.51958 1 0.265203 1 0 
C 1 -0.265203 0.894634 -0.51958 0.707107 -0.707107 
C 0.51958 -0.894634 0.265203 -1 0 -1 
C -0.265203 -1 -0.51958 -0.894634 -0.707107 -0.707107 
C -0.894634 -0.51958 -1 -0.265203 -1 0 
C -1 0.265203 -0.894634 0.51958 -0.707107 0.707107 
C -0.51958 0.894634 -0.265203 1 0 1 
z
" style="stroke: #000000"/>
    </defs>
    <g clip-path="url(#p7494aa5110)">
     <use xlink:href="#m5c701ce783" x="173.045455" y="289.409621" style="stroke: #000000"/>
     <use xlink:href="#m5c701ce783" x="178.174819" y="374.951217" style="stroke: #000000"/>
     <use xlink:href="#m5c701ce783" x="183.14389" y="374.951217" style="stroke: #000000"/>
     <use xlink:href="#m5c701ce783" x="188.112961" y="289.409621" style="stroke: #000000"/>
     <use xlink:href="#m5c701ce783" x="193.082033" y="374.951217" style="stroke: #000000"/>
     <use xlink:href="#m5c701ce783" x="198.211397" y="374.951217" style="stroke: #000000"/>
     <use xlink:href="#m5c701ce783" x="203.180468" y="289.409621" style="stroke: #000000"/>
     <use xlink:href="#m5c701ce783" x="208.149539" y="374.951217" style="stroke: #000000"/>
     <use xlink:href="#m5c701ce783" x="213.118611" y="289.409621" style="stroke: #000000"/>
     <use xlink:href="#m5c701ce783" x="218.247975" y="374.951217" style="stroke: #000000"/>
     <use xlink:href="#m5c701ce783" x="223.217046" y="374.951217" style="stroke: #000000"/>
     <use xlink:href="#m5c701ce783" x="228.186118" y="289.409621" style="stroke: #000000"/>
     <use xlink:href="#m5c701ce783" x="233.155189" y="374.951217" style="stroke: #000000"/>
     <use xlink:href="#m5c701ce783" x="238.284553" y="374.951217" style="stroke: #000000"/>
     <use xlink:href="#m5c701ce783" x="243.253624" y="289.409621" style="stroke: #000000"/>
     <use xlink:href="#m5c701ce783" x="248.222696" y="374.951217" style="stroke: #000000"/>
     <use xlink:href="#m5c701ce783" x="253.191767" y="289.409621" style="stroke: #000000"/>
     <use xlink:href="#m5c701ce783" x="258.321131" y="374.951217" style="stroke: #000000"/>
     <use xlink:href="#m5c701ce783" x="263.290202" y="374.951217" style="stroke: #000000"/>
     <use xlink:href="#m5c701ce783" x="268.259274" y="289.409621" style="stroke: #000000"/>
     <use xlink:href="#m5c701ce783" x="273.228345" y="374.951217" style="stroke: #000000"/>
     <use xlink:href="#m5c701ce783" x="278.357709" y="374.951217" style="stroke: #000000"/>
     <use xlink:href="#m5c701ce783" x="283.326781" y="289.409621" style="stroke: #000000"/>
     <use xlink:href="#m5c701ce783" x="288.295852" y="374.951217" style="stroke: #000000"/>
     <use xlink:href="#m5c701ce783" x="293.264923" y="289.409621" style="stroke: #000000"/>
     <use xlink:href="#m5c701ce783" x="298.394287" y="374.951217" style="stroke: #000000"/>
     <use xlink:href="#m5c701ce783" x="303.363359" y="374.951217" style="stroke: #000000"/>
     <use xlink:href="#m5c701ce783" x="308.33243" y="289.409621" style="stroke: #000000"/>
     <use xlink:href="#m5c701ce783" x="313.301501" y="374.951217" style="stroke: #000000"/>
     <use xlink:href="#m5c701ce783" x="318.430865" y="374.951217" style="stroke: #000000"/>
     <use xlink:href="#m5c701ce783" x="323.399937" y="289.409621" style="stroke: #000000"/>
     <use xlink:href="#m5c701ce783" x="328.369008" y="374.951217" style="stroke: #000000"/>
     <use xlink:href="#m5c701ce783" x="333.33808" y="289.409621" style="stroke: #000000"/>
     <use xlink:href="#m5c701ce783" x="338.467444" y="374.951217" style="stroke: #000000"/>
     <use xlink:href="#m5c701ce783" x="343.436515" y="374.951217" style="stroke: #000000"/>
     <use xlink:href="#m5c701ce783" x="348.405586" y="289.409621" style="stroke: #000000"/>
     <use xlink:href="#m5c701ce783" x="353.374658" y="374.951217" style="stroke: #000000"/>
     <use xlink:href="#m5c701ce783" x="358.504022" y="374.951217" style="stroke: #000000"/>
     <use xlink:href="#m5c701ce783" x="363.473093" y="289.409621" style="stroke: #000000"/>
     <use xlink:href="#m5c701ce783" x="368.442164" y="374.951217" style="stroke: #000000"/>
     <use xlink:href="#m5c701ce783" x="373.411236" y="289.409621" style="stroke: #000000"/>
     <use xlink:href="#m5c701ce783" x="378.5406" y="374.951217" style="stroke: #000000"/>
     <use xlink:href="#m5c701ce783" x="383.509671" y="374.951217" style="stroke: #000000"/>
     <use xlink:href="#m5c701ce783" x="388.478743" y="289.409621" style="stroke: #000000"/>
     <use xlink:href="#m5c701ce783" x="393.447814" y="374.951217" style="stroke: #000000"/>
     <use xlink:href="#m5c701ce783" x="398.577178" y="374.951217" style="stroke: #000000"/>
     <use xlink:href="#m5c701ce783" x="403.546249" y="289.409621" style="stroke: #000000"/>
     <use xlink:href="#m5c701ce783" x="408.515321" y="374.951217" style="stroke: #000000"/>
     <use xlink:href="#m5c701ce783" x="413.484392" y="289.409621" style="stroke: #000000"/>
     <use xlink:href="#m5c701ce783" x="418.613756" y="374.951217" style="stroke: #000000"/>
     <use xlink:href="#m5c701ce783" x="423.582827" y="374.951217" style="stroke: #000000"/>
     <use xlink:href="#m5c701ce783" x="428.551899" y="289.409621" style="stroke: #000000"/>
     <use xlink:href="#m5c701ce783" x="433.52097" y="374.951217" style="stroke: #000000"/>
     <use xlink:href="#m5c701ce783" x="438.650334" y="374.951217" style="stroke: #000000"/>
     <use xlink:href="#m5c701ce783" x="443.619406" y="289.409621" style="stroke: #000000"/>
     <use xlink:href="#m5c701ce783" x="448.588477" y="374.951217" style="stroke: #000000"/>
     <use xlink:href="#m5c701ce783" x="453.557548" y="289.409621" style="stroke: #000000"/>
     <use xlink:href="#m5c701ce783" x="458.686912" y="374.951217" style="stroke: #000000"/>
     <use xlink:href="#m5c701ce783" x="463.655984" y="374.951217" style="stroke: #000000"/>
     <use xlink:href="#m5c701ce783" x="468.625055" y="289.409621" style="stroke: #000000"/>
     <use xlink:href="#m5c701ce783" x="473.594126" y="374.951217" style="stroke: #000000"/>
     <use xlink:href="#m5c701ce783" x="478.72349" y="374.951217" style="stroke: #000000"/>
     <use xlink:href="#m5c701ce783" x="483.692562" y="289.409621" style="stroke: #000000"/>
     <use xlink:href="#m5c701ce783" x="488.661633" y="374.951217" style="stroke: #000000"/>
     <use xlink:href="#m5c701ce783" x="493.630705" y="289.409621" style="stroke: #000000"/>
     <use xlink:href="#m5c701ce783" x="498.760069" y="374.951217" style="stroke: #000000"/>
     <use xlink:href="#m5c701ce783" x="503.72914" y="374.951217" style="stroke: #000000"/>
     <use xlink:href="#m5c701ce783" x="508.698211" y="289.409621" style="stroke: #000000"/>
     <use xlink:href="#m5c701ce783" x="513.667283" y="374.951217" style="stroke: #000000"/>
     <use xlink:href="#m5c701ce783" x="518.796647" y="374.951217" style="stroke: #000000"/>
     <use xlink:href="#m5c701ce783" x="523.765718" y="289.409621" style="stroke: #000000"/>
     <use xlink:href="#m5c701ce783" x="528.734789" y="374.951217" style="stroke: #000000"/>
     <use xlink:href="#m5c701ce783" x="533.703861" y="289.409621" style="stroke: #000000"/>
     <use xlink:href="#m5c701ce783" x="538.833225" y="374.951217" style="stroke: #000000"/>
     <use xlink:href="#m5c701ce783" x="543.802296" y="374.951217" style="stroke: #000000"/>
     <use xlink:href="#m5c701ce783" x="548.771368" y="289.409621" style="stroke: #000000"/>
     <use xlink:href="#m5c701ce783" x="553.740439" y="374.951217" style="stroke: #000000"/>
     <use xlink:href="#m5c701ce783" x="558.869803" y="374.951217" style="stroke: #000000"/>
     <use xlink:href="#m5c701ce783" x="563.838874" y="289.409621" style="stroke: #000000"/>
     <use xlink:href="#m5c701ce783" x="568.807946" y="374.951217" style="stroke: #000000"/>
     <use xlink:href="#m5c701ce783" x="573.777017" y="289.409621" style="stroke: #000000"/>
     <use xlink:href="#m5c701ce783" x="578.906381" y="374.951217" style="stroke: #000000"/>
     <use xlink:href="#m5c701ce783" x="583.875452" y="374.951217" style="stroke: #000000"/>
     <use xlink:href="#m5c701ce783" x="588.844524" y="289.409621" style="stroke: #000000"/>
     <use xlink:href="#m5c701ce783" x="593.813595" y="374.951217" style="stroke: #000000"/>
     <use xlink:href="#m5c701ce783" x="598.942959" y="374.951217" style="stroke: #000000"/>
     <use xlink:href="#m5c701ce783" x="603.912031" y="289.409621" style="stroke: #000000"/>
     <use xlink:href="#m5c701ce783" x="608.881102" y="374.951217" style="stroke: #000000"/>
     <use xlink:href="#m5c701ce783" x="613.850173" y="289.409621" style="stroke: #000000"/>
     <use xlink:href="#m5c701ce783" x="618.979537" y="374.951217" style="stroke: #000000"/>
     <use xlink:href="#m5c701ce783" x="623.948609" y="374.951217" style="stroke: #000000"/>
     <use xlink:href="#m5c701ce783" x="628.91768" y="289.409621" style="stroke: #000000"/>
     <use xlink:href="#m5c701ce783" x="633.886751" y="374.951217" style="stroke: #000000"/>
     <use xlink:href="#m5c701ce783" x="639.016115" y="374.951217" style="stroke: #000000"/>
     <use xlink:href="#m5c701ce783" x="643.985187" y="289.409621" style="stroke: #000000"/>
     <use xlink:href="#m5c701ce783" x="648.954258" y="374.951217" style="stroke: #000000"/>
     <use xlink:href="#m5c701ce783" x="653.92333" y="289.409621" style="stroke: #000000"/>
     <use xlink:href="#m5c701ce783" x="659.052694" y="374.951217" style="stroke: #000000"/>
     <use xlink:href="#m5c701ce783" x="664.021765" y="374.951217" style="stroke: #000000"/>
     <use xlink:href="#m5c701ce783" x="668.990836" y="289.409621" style="stroke: #000000"/>
     <use xlink:href="#m5c701ce783" x="673.959908" y="374.951217" style="stroke: #000000"/>
     <use xlink:href="#m5c701ce783" x="679.089272" y="374.951217" style="stroke: #000000"/>
     <use xlink:href="#m5c701ce783" x="684.058343" y="289.409621" style="stroke: #000000"/>
     <use xlink:href="#m5c701ce783" x="689.027414" y="374.951217" style="stroke: #000000"/>
     <use xlink:href="#m5c701ce783" x="693.996486" y="289.409621" style="stroke: #000000"/>
     <use xlink:href="#m5c701ce783" x="699.12585" y="374.951217" style="stroke: #000000"/>
     <use xlink:href="#m5c701ce783" x="704.094921" y="374.951217" style="stroke: #000000"/>
     <use xlink:href="#m5c701ce783" x="709.063993" y="289.409621" style="stroke: #000000"/>
     <use xlink:href="#m5c701ce783" x="714.033064" y="374.951217" style="stroke: #000000"/>
     <use xlink:href="#m5c701ce783" x="719.162428" y="374.951217" style="stroke: #000000"/>
     <use xlink:href="#m5c701ce783" x="724.131499" y="289.409621" style="stroke: #000000"/>
     <use xlink:href="#m5c701ce783" x="729.100571" y="374.951217" style="stroke: #000000"/>
     <use xlink:href="#m5c701ce783" x="734.069642" y="289.409621" style="stroke: #000000"/>
     <use xlink:href="#m5c701ce783" x="739.199006" y="374.951217" style="stroke: #000000"/>
     <use xlink:href="#m5c701ce783" x="744.168077" y="374.951217" style="stroke: #000000"/>
     <use xlink:href="#m5c701ce783" x="749.137149" y="289.409621" style="stroke: #000000"/>
     <use xlink:href="#m5c701ce783" x="754.10622" y="374.951217" style="stroke: #000000"/>
     <use xlink:href="#m5c701ce783" x="759.235584" y="374.951217" style="stroke: #000000"/>
     <use xlink:href="#m5c701ce783" x="764.204656" y="289.409621" style="stroke: #000000"/>
     <use xlink:href="#m5c701ce783" x="769.173727" y="374.951217" style="stroke: #000000"/>
     <use xlink:href="#m5c701ce783" x="774.142798" y="289.409621" style="stroke: #000000"/>
     <use xlink:href="#m5c701ce783" x="779.272162" y="374.951217" style="stroke: #000000"/>
     <use xlink:href="#m5c701ce783" x="784.241234" y="374.951217" style="stroke: #000000"/>
     <use xlink:href="#m5c701ce783" x="789.210305" y="289.409621" style="stroke: #000000"/>
     <use xlink:href="#m5c701ce783" x="794.179376" y="374.951217" style="stroke: #000000"/>
     <use xlink:href="#m5c701ce783" x="799.30874" y="374.951217" style="stroke: #000000"/>
     <use xlink:href="#m5c701ce783" x="804.277812" y="289.409621" style="stroke: #000000"/>
     <use xlink:href="#m5c701ce783" x="809.246883" y="374.951217" style="stroke: #000000"/>
     <use xlink:href="#m5c701ce783" x="814.215955" y="289.409621" style="stroke: #000000"/>
     <use xlink:href="#m5c701ce783" x="819.345319" y="374.951217" style="stroke: #000000"/>
     <use xlink:href="#m5c701ce783" x="824.31439" y="374.951217" style="stroke: #000000"/>
     <use xlink:href="#m5c701ce783" x="829.283461" y="289.409621" style="stroke: #000000"/>
     <use xlink:href="#m5c701ce783" x="834.252533" y="374.951217" style="stroke: #000000"/>
     <use xlink:href="#m5c701ce783" x="839.381897" y="374.951217" style="stroke: #000000"/>
     <use xlink:href="#m5c701ce783" x="844.350968" y="289.409621" style="stroke: #000000"/>
     <use xlink:href="#m5c701ce783" x="849.320039" y="374.951217" style="stroke: #000000"/>
     <use xlink:href="#m5c701ce783" x="854.289111" y="289.409621" style="stroke: #000000"/>
     <use xlink:href="#m5c701ce783" x="859.418475" y="374.951217" style="stroke: #000000"/>
     <use xlink:href="#m5c701ce783" x="864.387546" y="374.951217" style="stroke: #000000"/>
     <use xlink:href="#m5c701ce783" x="869.356618" y="289.409621" style="stroke: #000000"/>
     <use xlink:href="#m5c701ce783" x="874.325689" y="374.951217" style="stroke: #000000"/>
     <use xlink:href="#m5c701ce783" x="879.455053" y="374.951217" style="stroke: #000000"/>
     <use xlink:href="#m5c701ce783" x="884.424124" y="289.409621" style="stroke: #000000"/>
     <use xlink:href="#m5c701ce783" x="889.393196" y="374.951217" style="stroke: #000000"/>
     <use xlink:href="#m5c701ce783" x="894.362267" y="289.409621" style="stroke: #000000"/>
     <use xlink:href="#m5c701ce783" x="899.491631" y="374.951217" style="stroke: #000000"/>
     <use xlink:href="#m5c701ce783" x="904.460702" y="374.951217" style="stroke: #000000"/>
     <use xlink:href="#m5c701ce783" x="909.429774" y="289.409621" style="stroke: #000000"/>
     <use xlink:href="#m5c701ce783" x="914.398845" y="374.951217" style="stroke: #000000"/>
     <use xlink:href="#m5c701ce783" x="919.528209" y="374.951217" style="stroke: #000000"/>
     <use xlink:href="#m5c701ce783" x="924.497281" y="289.409621" style="stroke: #000000"/>
     <use xlink:href="#m5c701ce783" x="929.466352" y="374.951217" style="stroke: #000000"/>
    </g>
   </g>
   <g id="patch_3">
    <path d="M 135 448.56 
L 135 60.48 
" style="fill: none; stroke: #000000; stroke-width: 0.8; stroke-linejoin: miter; stroke-linecap: square"/>
   </g>
   <g id="patch_4">
    <path d="M 972 448.56 
L 972 60.48 
" style="fill: none; stroke: #000000; stroke-width: 0.8; stroke-linejoin: miter; stroke-linecap: square"/>
   </g>
   <g id="patch_5">
    <path d="M 135 448.56 
L 972 448.56 
" style="fill: none; stroke: #000000; stroke-width: 0.8; stroke-linejoin: miter; stroke-linecap: square"/>
   </g>
   <g id="patch_6">
    <path d="M 135 60.48 
L 972 60.48 
" style="fill: none; stroke: #000000; stroke-width: 0.8; stroke-linejoin: miter; stroke-linecap: square"/>
   </g>
   <g id="legend_1">
    <g id="patch_7">
     <path d="M 895.915625 113.070625 
L 965 113.070625 
Q 967 113.070625 967 111.070625 
L 967 67.48 
Q 967 65.48 965 65.48 
L 895.915625 65.48 
Q 893.915625 65.48 893.915625 67.48 
L 893.915625 111.070625 
Q 893.915625 113.070625 895.915625 113.070625 
z
" style="fill: #ffffff; opacity: 0.8; stroke: #cccccc; stroke-linejoin: miter"/>
    </g>
    <g id="line2d_13">
     <path d="M 897.915625 73.578438 
L 907.915625 73.578438 
L 917.915625 73.578438 
" style="fill: none; stroke: #1f77b4; stroke-width: 1.5; stroke-linecap: square"/>
    </g>
    <g id="text_11">
     <!-- nw_0 -->
     <g transform="translate(925.915625 77.078438) scale(0.1 -0.1)">
      <defs>
       <path id="DejaVuSans-6e" d="M 3513 2113 
L 3513 0 
L 2938 0 
L 2938 2094 
Q 2938 2591 2744 2837 
Q 2550 3084 2163 3084 
Q 1697 3084 1428 2787 
Q 1159 2491 1159 1978 
L 1159 0 
L 581 0 
L 581 3500 
L 1159 3500 
L 1159 2956 
Q 1366 3272 1645 3428 
Q 1925 3584 2291 3584 
Q 2894 3584 3203 3211 
Q 3513 2838 3513 2113 
z
" transform="scale(0.015625)"/>
       <path id="DejaVuSans-77" d="M 269 3500 
L 844 3500 
L 1563 769 
L 2278 3500 
L 2956 3500 
L 3675 769 
L 4391 3500 
L 4966 3500 
L 4050 0 
L 3372 0 
L 2619 2869 
L 1863 0 
L 1184 0 
L 269 3500 
z
" transform="scale(0.015625)"/>
       <path id="DejaVuSans-5f" d="M 3263 -1063 
L 3263 -1509 
L -63 -1509 
L -63 -1063 
L 3263 -1063 
z
" transform="scale(0.015625)"/>
      </defs>
      <use xlink:href="#DejaVuSans-6e"/>
      <use xlink:href="#DejaVuSans-77" x="63.378906"/>
      <use xlink:href="#DejaVuSans-5f" x="145.166016"/>
      <use xlink:href="#DejaVuSans-30" x="195.166016"/>
     </g>
    </g>
    <g id="line2d_14">
     <path d="M 897.915625 88.534688 
L 907.915625 88.534688 
L 917.915625 88.534688 
" style="fill: none; stroke: #ff7f0e; stroke-width: 1.5; stroke-linecap: square"/>
    </g>
    <g id="text_12">
     <!-- input_0 -->
     <g transform="translate(925.915625 92.034688) scale(0.1 -0.1)">
      <defs>
       <path id="DejaVuSans-69" d="M 603 3500 
L 1178 3500 
L 1178 0 
L 603 0 
L 603 3500 
z
M 603 4863 
L 1178 4863 
L 1178 4134 
L 603 4134 
L 603 4863 
z
" transform="scale(0.015625)"/>
       <path id="DejaVuSans-70" d="M 1159 525 
L 1159 -1331 
L 581 -1331 
L 581 3500 
L 1159 3500 
L 1159 2969 
Q 1341 3281 1617 3432 
Q 1894 3584 2278 3584 
Q 2916 3584 3314 3078 
Q 3713 2572 3713 1747 
Q 3713 922 3314 415 
Q 2916 -91 2278 -91 
Q 1894 -91 1617 61 
Q 1341 213 1159 525 
z
M 3116 1747 
Q 3116 2381 2855 2742 
Q 2594 3103 2138 3103 
Q 1681 3103 1420 2742 
Q 1159 2381 1159 1747 
Q 1159 1113 1420 752 
Q 1681 391 2138 391 
Q 2594 391 2855 752 
Q 3116 1113 3116 1747 
z
" transform="scale(0.015625)"/>
       <path id="DejaVuSans-75" d="M 544 1381 
L 544 3500 
L 1119 3500 
L 1119 1403 
Q 1119 906 1312 657 
Q 1506 409 1894 409 
Q 2359 409 2629 706 
Q 2900 1003 2900 1516 
L 2900 3500 
L 3475 3500 
L 3475 0 
L 2900 0 
L 2900 538 
Q 2691 219 2414 64 
Q 2138 -91 1772 -91 
Q 1169 -91 856 284 
Q 544 659 544 1381 
z
M 1991 3584 
L 1991 3584 
z
" transform="scale(0.015625)"/>
      </defs>
      <use xlink:href="#DejaVuSans-69"/>
      <use xlink:href="#DejaVuSans-6e" x="27.783203"/>
      <use xlink:href="#DejaVuSans-70" x="91.162109"/>
      <use xlink:href="#DejaVuSans-75" x="154.638672"/>
      <use xlink:href="#DejaVuSans-74" x="218.017578"/>
      <use xlink:href="#DejaVuSans-5f" x="257.226562"/>
      <use xlink:href="#DejaVuSans-30" x="307.226562"/>
     </g>
    </g>
    <g id="line2d_15">
     <path d="M 897.915625 103.490938 
L 907.915625 103.490938 
L 917.915625 103.490938 
" style="fill: none; stroke: #000000; stroke-width: 1.5; stroke-linecap: square"/>
     <g>
      <use xlink:href="#m5c701ce783" x="907.915625" y="103.490938" style="stroke: #000000"/>
     </g>
    </g>
    <g id="text_13">
     <!-- target -->
     <g transform="translate(925.915625 106.990938) scale(0.1 -0.1)">
      <defs>
       <path id="DejaVuSans-61" d="M 2194 1759 
Q 1497 1759 1228 1600 
Q 959 1441 959 1056 
Q 959 750 1161 570 
Q 1363 391 1709 391 
Q 2188 391 2477 730 
Q 2766 1069 2766 1631 
L 2766 1759 
L 2194 1759 
z
M 3341 1997 
L 3341 0 
L 2766 0 
L 2766 531 
Q 2569 213 2275 61 
Q 1981 -91 1556 -91 
Q 1019 -91 701 211 
Q 384 513 384 1019 
Q 384 1609 779 1909 
Q 1175 2209 1959 2209 
L 2766 2209 
L 2766 2266 
Q 2766 2663 2505 2880 
Q 2244 3097 1772 3097 
Q 1472 3097 1187 3025 
Q 903 2953 641 2809 
L 641 3341 
Q 956 3463 1253 3523 
Q 1550 3584 1831 3584 
Q 2591 3584 2966 3190 
Q 3341 2797 3341 1997 
z
" transform="scale(0.015625)"/>
       <path id="DejaVuSans-72" d="M 2631 2963 
Q 2534 3019 2420 3045 
Q 2306 3072 2169 3072 
Q 1681 3072 1420 2755 
Q 1159 2438 1159 1844 
L 1159 0 
L 581 0 
L 581 3500 
L 1159 3500 
L 1159 2956 
Q 1341 3275 1631 3429 
Q 1922 3584 2338 3584 
Q 2397 3584 2469 3576 
Q 2541 3569 2628 3553 
L 2631 2963 
z
" transform="scale(0.015625)"/>
       <path id="DejaVuSans-67" d="M 2906 1791 
Q 2906 2416 2648 2759 
Q 2391 3103 1925 3103 
Q 1463 3103 1205 2759 
Q 947 2416 947 1791 
Q 947 1169 1205 825 
Q 1463 481 1925 481 
Q 2391 481 2648 825 
Q 2906 1169 2906 1791 
z
M 3481 434 
Q 3481 -459 3084 -895 
Q 2688 -1331 1869 -1331 
Q 1566 -1331 1297 -1286 
Q 1028 -1241 775 -1147 
L 775 -588 
Q 1028 -725 1275 -790 
Q 1522 -856 1778 -856 
Q 2344 -856 2625 -561 
Q 2906 -266 2906 331 
L 2906 616 
Q 2728 306 2450 153 
Q 2172 0 1784 0 
Q 1141 0 747 490 
Q 353 981 353 1791 
Q 353 2603 747 3093 
Q 1141 3584 1784 3584 
Q 2172 3584 2450 3431 
Q 2728 3278 2906 2969 
L 2906 3500 
L 3481 3500 
L 3481 434 
z
" transform="scale(0.015625)"/>
       <path id="DejaVuSans-65" d="M 3597 1894 
L 3597 1613 
L 953 1613 
Q 991 1019 1311 708 
Q 1631 397 2203 397 
Q 2534 397 2845 478 
Q 3156 559 3463 722 
L 3463 178 
Q 3153 47 2828 -22 
Q 2503 -91 2169 -91 
Q 1331 -91 842 396 
Q 353 884 353 1716 
Q 353 2575 817 3079 
Q 1281 3584 2069 3584 
Q 2775 3584 3186 3129 
Q 3597 2675 3597 1894 
z
M 3022 2063 
Q 3016 2534 2758 2815 
Q 2500 3097 2075 3097 
Q 1594 3097 1305 2825 
Q 1016 2553 972 2059 
L 3022 2063 
z
" transform="scale(0.015625)"/>
      </defs>
      <use xlink:href="#DejaVuSans-74"/>
      <use xlink:href="#DejaVuSans-61" x="39.208984"/>
      <use xlink:href="#DejaVuSans-72" x="100.488281"/>
      <use xlink:href="#DejaVuSans-67" x="139.851562"/>
      <use xlink:href="#DejaVuSans-65" x="203.328125"/>
      <use xlink:href="#DejaVuSans-74" x="264.851562"/>
     </g>
    </g>
   </g>
  </g>
 </g>
 <defs>
  <clipPath id="p7494aa5110">
   <rect x="135" y="60.48" width="837" height="388.08"/>
  </clipPath>
 </defs>
</svg>
