<?xml version="1.0" encoding="utf-8" standalone="no"?>
<!DOCTYPE svg PUBLIC "-//W3C//DTD SVG 1.1//EN"
  "http://www.w3.org/Graphics/SVG/1.1/DTD/svg11.dtd">
<svg xmlns:xlink="http://www.w3.org/1999/xlink" width="1080pt" height="504pt" viewBox="0 0 1080 504" xmlns="http://www.w3.org/2000/svg" version="1.1">
 <metadata>
  <rdf:RDF xmlns:dc="http://purl.org/dc/elements/1.1/" xmlns:cc="http://creativecommons.org/ns#" xmlns:rdf="http://www.w3.org/1999/02/22-rdf-syntax-ns#">
   <cc:Work>
    <dc:type rdf:resource="http://purl.org/dc/dcmitype/StillImage"/>
    <dc:date>2024-05-09T11:11:48.557553</dc:date>
    <dc:format>image/svg+xml</dc:format>
    <dc:creator>
     <cc:Agent>
      <dc:title>Matplotlib v3.7.1, https://matplotlib.org/</dc:title>
     </cc:Agent>
    </dc:creator>
   </cc:Work>
  </rdf:RDF>
 </metadata>
 <defs>
  <style type="text/css">*{stroke-linejoin: round; stroke-linecap: butt}</style>
 </defs>
 <g id="figure_1">
  <g id="patch_1">
   <path d="M 0 504 
L 1080 504 
L 1080 0 
L 0 0 
z
" style="fill: #ffffff"/>
  </g>
  <g id="axes_1">
   <g id="patch_2">
    <path d="M 135 448.56 
L 972 448.56 
L 972 60.48 
L 135 60.48 
z
" style="fill: #ffffff"/>
   </g>
   <g id="matplotlib.axis_1">
    <g id="xtick_1">
     <g id="line2d_1">
      <defs>
       <path id="m80ad1fad3e" d="M 0 0 
L 0 3.5 
" style="stroke: #000000; stroke-width: 0.8"/>
      </defs>
      <g>
       <use xlink:href="#m80ad1fad3e" x="173.045455" y="448.56" style="stroke: #000000; stroke-width: 0.8"/>
      </g>
     </g>
     <g id="text_1">
      <!-- 0 -->
      <g transform="translate(169.864205 463.158437) scale(0.1 -0.1)">
       <defs>
        <path id="DejaVuSans-30" d="M 2034 4250 
Q 1547 4250 1301 3770 
Q 1056 3291 1056 2328 
Q 1056 1369 1301 889 
Q 1547 409 2034 409 
Q 2525 409 2770 889 
Q 3016 1369 3016 2328 
Q 3016 3291 2770 3770 
Q 2525 4250 2034 4250 
z
M 2034 4750 
Q 2819 4750 3233 4129 
Q 3647 3509 3647 2328 
Q 3647 1150 3233 529 
Q 2819 -91 2034 -91 
Q 1250 -91 836 529 
Q 422 1150 422 2328 
Q 422 3509 836 4129 
Q 1250 4750 2034 4750 
z
" transform="scale(0.015625)"/>
       </defs>
       <use xlink:href="#DejaVuSans-30"/>
      </g>
     </g>
    </g>
    <g id="xtick_2">
     <g id="line2d_2">
      <g>
       <use xlink:href="#m80ad1fad3e" x="333.33808" y="448.56" style="stroke: #000000; stroke-width: 0.8"/>
      </g>
     </g>
     <g id="text_2">
      <!-- 1000 -->
      <g transform="translate(320.61308 463.158437) scale(0.1 -0.1)">
       <defs>
        <path id="DejaVuSans-31" d="M 794 531 
L 1825 531 
L 1825 4091 
L 703 3866 
L 703 4441 
L 1819 4666 
L 2450 4666 
L 2450 531 
L 3481 531 
L 3481 0 
L 794 0 
L 794 531 
z
" transform="scale(0.015625)"/>
       </defs>
       <use xlink:href="#DejaVuSans-31"/>
       <use xlink:href="#DejaVuSans-30" x="63.623047"/>
       <use xlink:href="#DejaVuSans-30" x="127.246094"/>
       <use xlink:href="#DejaVuSans-30" x="190.869141"/>
      </g>
     </g>
    </g>
    <g id="xtick_3">
     <g id="line2d_3">
      <g>
       <use xlink:href="#m80ad1fad3e" x="493.630705" y="448.56" style="stroke: #000000; stroke-width: 0.8"/>
      </g>
     </g>
     <g id="text_3">
      <!-- 2000 -->
      <g transform="translate(480.905705 463.158437) scale(0.1 -0.1)">
       <defs>
        <path id="DejaVuSans-32" d="M 1228 531 
L 3431 531 
L 3431 0 
L 469 0 
L 469 531 
Q 828 903 1448 1529 
Q 2069 2156 2228 2338 
Q 2531 2678 2651 2914 
Q 2772 3150 2772 3378 
Q 2772 3750 2511 3984 
Q 2250 4219 1831 4219 
Q 1534 4219 1204 4116 
Q 875 4013 500 3803 
L 500 4441 
Q 881 4594 1212 4672 
Q 1544 4750 1819 4750 
Q 2544 4750 2975 4387 
Q 3406 4025 3406 3419 
Q 3406 3131 3298 2873 
Q 3191 2616 2906 2266 
Q 2828 2175 2409 1742 
Q 1991 1309 1228 531 
z
" transform="scale(0.015625)"/>
       </defs>
       <use xlink:href="#DejaVuSans-32"/>
       <use xlink:href="#DejaVuSans-30" x="63.623047"/>
       <use xlink:href="#DejaVuSans-30" x="127.246094"/>
       <use xlink:href="#DejaVuSans-30" x="190.869141"/>
      </g>
     </g>
    </g>
    <g id="xtick_4">
     <g id="line2d_4">
      <g>
       <use xlink:href="#m80ad1fad3e" x="653.92333" y="448.56" style="stroke: #000000; stroke-width: 0.8"/>
      </g>
     </g>
     <g id="text_4">
      <!-- 3000 -->
      <g transform="translate(641.19833 463.158437) scale(0.1 -0.1)">
       <defs>
        <path id="DejaVuSans-33" d="M 2597 2516 
Q 3050 2419 3304 2112 
Q 3559 1806 3559 1356 
Q 3559 666 3084 287 
Q 2609 -91 1734 -91 
Q 1441 -91 1130 -33 
Q 819 25 488 141 
L 488 750 
Q 750 597 1062 519 
Q 1375 441 1716 441 
Q 2309 441 2620 675 
Q 2931 909 2931 1356 
Q 2931 1769 2642 2001 
Q 2353 2234 1838 2234 
L 1294 2234 
L 1294 2753 
L 1863 2753 
Q 2328 2753 2575 2939 
Q 2822 3125 2822 3475 
Q 2822 3834 2567 4026 
Q 2313 4219 1838 4219 
Q 1578 4219 1281 4162 
Q 984 4106 628 3988 
L 628 4550 
Q 988 4650 1302 4700 
Q 1616 4750 1894 4750 
Q 2613 4750 3031 4423 
Q 3450 4097 3450 3541 
Q 3450 3153 3228 2886 
Q 3006 2619 2597 2516 
z
" transform="scale(0.015625)"/>
       </defs>
       <use xlink:href="#DejaVuSans-33"/>
       <use xlink:href="#DejaVuSans-30" x="63.623047"/>
       <use xlink:href="#DejaVuSans-30" x="127.246094"/>
       <use xlink:href="#DejaVuSans-30" x="190.869141"/>
      </g>
     </g>
    </g>
    <g id="xtick_5">
     <g id="line2d_5">
      <g>
       <use xlink:href="#m80ad1fad3e" x="814.215955" y="448.56" style="stroke: #000000; stroke-width: 0.8"/>
      </g>
     </g>
     <g id="text_5">
      <!-- 4000 -->
      <g transform="translate(801.490955 463.158437) scale(0.1 -0.1)">
       <defs>
        <path id="DejaVuSans-34" d="M 2419 4116 
L 825 1625 
L 2419 1625 
L 2419 4116 
z
M 2253 4666 
L 3047 4666 
L 3047 1625 
L 3713 1625 
L 3713 1100 
L 3047 1100 
L 3047 0 
L 2419 0 
L 2419 1100 
L 313 1100 
L 313 1709 
L 2253 4666 
z
" transform="scale(0.015625)"/>
       </defs>
       <use xlink:href="#DejaVuSans-34"/>
       <use xlink:href="#DejaVuSans-30" x="63.623047"/>
       <use xlink:href="#DejaVuSans-30" x="127.246094"/>
       <use xlink:href="#DejaVuSans-30" x="190.869141"/>
      </g>
     </g>
    </g>
    <g id="text_6">
     <!-- t -->
     <g transform="translate(551.539844 476.836563) scale(0.1 -0.1)">
      <defs>
       <path id="DejaVuSans-74" d="M 1172 4494 
L 1172 3500 
L 2356 3500 
L 2356 3053 
L 1172 3053 
L 1172 1153 
Q 1172 725 1289 603 
Q 1406 481 1766 481 
L 2356 481 
L 2356 0 
L 1766 0 
Q 1100 0 847 248 
Q 594 497 594 1153 
L 594 3053 
L 172 3053 
L 172 3500 
L 594 3500 
L 594 4494 
L 1172 4494 
z
" transform="scale(0.015625)"/>
      </defs>
      <use xlink:href="#DejaVuSans-74"/>
     </g>
    </g>
   </g>
   <g id="matplotlib.axis_2">
    <g id="ytick_1">
     <g id="line2d_6">
      <defs>
       <path id="m88371d7f06" d="M 0 0 
L -3.5 0 
" style="stroke: #000000; stroke-width: 0.8"/>
      </defs>
      <g>
       <use xlink:href="#m88371d7f06" x="135" y="430.723703" style="stroke: #000000; stroke-width: 0.8"/>
      </g>
     </g>
     <g id="text_7">
      <!-- −0.5 -->
      <g transform="translate(103.717187 434.522922) scale(0.1 -0.1)">
       <defs>
        <path id="DejaVuSans-2212" d="M 678 2272 
L 4684 2272 
L 4684 1741 
L 678 1741 
L 678 2272 
z
" transform="scale(0.015625)"/>
        <path id="DejaVuSans-2e" d="M 684 794 
L 1344 794 
L 1344 0 
L 684 0 
L 684 794 
z
" transform="scale(0.015625)"/>
        <path id="DejaVuSans-35" d="M 691 4666 
L 3169 4666 
L 3169 4134 
L 1269 4134 
L 1269 2991 
Q 1406 3038 1543 3061 
Q 1681 3084 1819 3084 
Q 2600 3084 3056 2656 
Q 3513 2228 3513 1497 
Q 3513 744 3044 326 
Q 2575 -91 1722 -91 
Q 1428 -91 1123 -41 
Q 819 9 494 109 
L 494 744 
Q 775 591 1075 516 
Q 1375 441 1709 441 
Q 2250 441 2565 725 
Q 2881 1009 2881 1497 
Q 2881 1984 2565 2268 
Q 2250 2553 1709 2553 
Q 1456 2553 1204 2497 
Q 953 2441 691 2322 
L 691 4666 
z
" transform="scale(0.015625)"/>
       </defs>
       <use xlink:href="#DejaVuSans-2212"/>
       <use xlink:href="#DejaVuSans-30" x="83.789062"/>
       <use xlink:href="#DejaVuSans-2e" x="147.412109"/>
       <use xlink:href="#DejaVuSans-35" x="179.199219"/>
      </g>
     </g>
    </g>
    <g id="ytick_2">
     <g id="line2d_7">
      <g>
       <use xlink:href="#m88371d7f06" x="135" y="349.582247" style="stroke: #000000; stroke-width: 0.8"/>
      </g>
     </g>
     <g id="text_8">
      <!-- 0.0 -->
      <g transform="translate(112.096875 353.381466) scale(0.1 -0.1)">
       <use xlink:href="#DejaVuSans-30"/>
       <use xlink:href="#DejaVuSans-2e" x="63.623047"/>
       <use xlink:href="#DejaVuSans-30" x="95.410156"/>
      </g>
     </g>
    </g>
    <g id="ytick_3">
     <g id="line2d_8">
      <g>
       <use xlink:href="#m88371d7f06" x="135" y="268.44079" style="stroke: #000000; stroke-width: 0.8"/>
      </g>
     </g>
     <g id="text_9">
      <!-- 0.5 -->
      <g transform="translate(112.096875 272.240009) scale(0.1 -0.1)">
       <use xlink:href="#DejaVuSans-30"/>
       <use xlink:href="#DejaVuSans-2e" x="63.623047"/>
       <use xlink:href="#DejaVuSans-35" x="95.410156"/>
      </g>
     </g>
    </g>
    <g id="ytick_4">
     <g id="line2d_9">
      <g>
       <use xlink:href="#m88371d7f06" x="135" y="187.299334" style="stroke: #000000; stroke-width: 0.8"/>
      </g>
     </g>
     <g id="text_10">
      <!-- 1.0 -->
      <g transform="translate(112.096875 191.098553) scale(0.1 -0.1)">
       <use xlink:href="#DejaVuSans-31"/>
       <use xlink:href="#DejaVuSans-2e" x="63.623047"/>
       <use xlink:href="#DejaVuSans-30" x="95.410156"/>
      </g>
     </g>
    </g>
    <g id="ytick_5">
     <g id="line2d_10">
      <g>
       <use xlink:href="#m88371d7f06" x="135" y="106.157877" style="stroke: #000000; stroke-width: 0.8"/>
      </g>
     </g>
     <g id="text_11">
      <!-- 1.5 -->
      <g transform="translate(112.096875 109.957096) scale(0.1 -0.1)">
       <use xlink:href="#DejaVuSans-31"/>
       <use xlink:href="#DejaVuSans-2e" x="63.623047"/>
       <use xlink:href="#DejaVuSans-35" x="95.410156"/>
      </g>
     </g>
    </g>
   </g>
   <g id="line2d_11">
    <path d="M 173.045455 224.302614 
L 173.205747 243.263986 
L 173.526332 331.27938 
L 173.686625 350.165232 
L 173.846918 351.971712 
L 174.167503 326.796907 
L 174.808673 263.206002 
L 175.289551 238.278196 
L 176.091014 206.455317 
L 176.571892 174.798406 
L 177.693941 80.633869 
L 178.014526 406.480965 
L 178.174819 430.92 
L 178.335111 419.160091 
L 178.976282 330.175921 
L 179.296867 316.285552 
L 179.45716 314.327816 
L 179.617452 313.874877 
L 179.777745 314.137393 
L 180.09833 315.648572 
L 180.418915 318.585881 
L 180.899793 326.397867 
L 181.701256 340.055341 
L 182.021842 342.040463 
L 182.182134 342.018736 
L 182.342427 341.351581 
L 182.663012 338.322522 
L 183.14389 330.712369 
L 185.708572 283.595136 
L 186.349742 276.170262 
L 186.83062 272.386779 
L 187.311498 270.241126 
L 187.632083 269.707387 
L 187.792376 269.694626 
L 188.112961 270.135964 
L 188.433547 271.129139 
L 188.914424 273.437897 
L 189.715888 278.606643 
L 191.639399 291.3876 
L 192.92174 298.122763 
L 194.524666 305.206482 
L 196.127593 311.363954 
L 197.730519 316.651471 
L 199.333445 321.184136 
L 200.936371 325.107368 
L 202.69959 328.820628 
L 204.462809 331.980816 
L 206.226028 334.665335 
L 207.989247 336.943666 
L 209.752466 338.875646 
L 211.675977 340.649016 
L 213.278903 341.90077 
L 213.439196 215.597516 
L 213.599489 233.432372 
L 213.920074 319.849696 
L 214.080367 338.429592 
L 214.240659 340.210209 
L 214.561244 315.527501 
L 215.202415 253.795685 
L 215.683293 230.223111 
L 216.324463 207.803481 
L 216.805341 180.987964 
L 217.606804 117.159332 
L 218.087682 78.43769 
L 218.408267 405.266114 
L 218.56856 430.181284 
L 218.728853 418.84483 
L 219.370023 331.000116 
L 219.690608 317.435014 
L 219.850901 315.594775 
L 220.011194 315.231575 
L 220.171486 315.557372 
L 220.492072 317.122139 
L 220.812657 320.030439 
L 221.293535 327.691789 
L 221.934705 339.095514 
L 222.25529 342.233132 
L 222.415583 342.814425 
L 222.575876 342.721387 
L 222.736168 341.986078 
L 223.056754 338.831656 
L 223.537631 331.06367 
L 226.102313 283.60748 
L 226.743484 276.166823 
L 227.224362 272.376437 
L 227.70524 270.22607 
L 228.025825 269.689962 
L 228.186118 269.676203 
L 228.506703 270.115886 
L 228.827288 271.107853 
L 229.308166 273.415641 
L 230.109629 278.584897 
L 232.033141 291.373089 
L 233.315482 298.112526 
L 234.918408 305.198887 
L 236.521334 311.357547 
L 238.12426 316.645898 
L 239.727187 321.179257 
L 241.330113 325.103099 
L 243.093332 328.81697 
L 244.856551 331.977704 
L 246.619769 334.662695 
L 248.382988 336.941427 
L 250.146207 338.873748 
L 252.069719 340.647432 
L 253.99323 342.127953 
L 254.153523 215.855115 
L 254.313815 233.723887 
L 254.634401 320.188918 
L 254.794693 338.777706 
L 254.954986 340.558808 
L 255.275571 315.86087 
L 255.916742 254.073234 
L 256.39762 230.460647 
L 257.03879 207.999143 
L 257.519668 181.152889 
L 258.321131 117.262672 
L 258.802009 78.502224 
L 259.122594 405.301684 
L 259.282887 430.202812 
L 259.443179 418.853875 
L 260.08435 330.975608 
L 260.404935 317.400956 
L 260.565228 315.557274 
L 260.72552 315.191451 
L 260.885813 315.515405 
L 261.206398 317.078631 
L 261.526984 319.987819 
L 262.007861 327.653642 
L 262.649032 339.066025 
L 262.969617 342.20815 
L 263.12991 342.791622 
L 263.290202 342.700685 
L 263.450495 341.967383 
L 263.77108 338.816653 
L 264.251958 331.053315 
L 266.81664 283.607114 
L 267.457811 276.166924 
L 267.938689 272.376742 
L 268.419566 270.226514 
L 268.740152 269.690476 
L 268.900444 269.676746 
L 269.22103 270.116478 
L 269.541615 271.108481 
L 270.022493 273.416297 
L 270.823956 278.585537 
L 272.747467 291.373516 
L 274.029808 298.112828 
L 275.632735 305.19911 
L 277.235661 311.357735 
L 278.838587 316.646062 
L 280.441513 321.179401 
L 282.04444 325.103224 
L 283.807658 328.817078 
L 285.570877 331.977796 
L 287.334096 334.662772 
L 289.097315 336.941493 
L 290.860534 338.873804 
L 292.784045 340.647479 
L 293.585509 341.297025 
L 293.745801 214.912884 
L 293.906094 232.657414 
L 294.226679 318.947801 
L 294.386972 337.504106 
L 294.547264 339.283516 
L 294.86785 314.64148 
L 295.50902 253.058256 
L 295.989898 229.592002 
L 296.631068 207.283567 
L 297.111946 180.549724 
L 297.913409 116.884795 
L 298.394287 78.266294 
L 298.714873 405.171683 
L 298.875165 430.12416 
L 299.035458 418.820873 
L 299.676628 331.065291 
L 299.997214 317.525552 
L 300.157506 315.694452 
L 300.317799 315.338216 
L 300.478091 315.668906 
L 300.798677 317.237753 
L 301.119262 320.143686 
L 301.60014 327.793142 
L 302.24131 339.173857 
L 302.561896 342.299501 
L 302.722188 342.875005 
L 302.882481 342.776386 
L 303.042773 342.035744 
L 303.363359 338.871514 
L 303.844237 331.091183 
L 306.408919 283.608453 
L 307.050089 276.166556 
L 307.530967 272.375627 
L 308.011845 270.224891 
L 308.33243 269.688597 
L 308.492723 269.67476 
L 308.813308 270.114314 
L 309.133893 271.106187 
L 309.614771 273.413899 
L 310.416234 278.583195 
L 312.339746 291.371954 
L 313.622087 298.111726 
L 315.225013 305.198293 
L 316.827939 311.357046 
L 318.430865 316.645462 
L 320.033792 321.178876 
L 321.636718 325.102765 
L 323.399937 328.816685 
L 325.163156 331.977461 
L 326.926375 334.662488 
L 328.689593 336.941252 
L 330.452812 338.8736 
L 332.376324 340.647308 
L 333.818957 341.782418 
L 333.97925 215.463314 
L 334.139543 233.280485 
L 334.460128 319.672944 
L 334.620421 338.24821 
L 334.780713 340.028582 
L 335.101298 315.353825 
L 335.742469 253.651108 
L 336.223347 230.099378 
L 336.864517 207.701556 
L 337.345395 180.90205 
L 338.146858 117.105504 
L 338.627736 78.404079 
L 338.948321 405.247592 
L 339.108614 430.170076 
L 339.268907 418.840125 
L 339.910077 331.012887 
L 340.230662 317.452759 
L 340.390955 315.614312 
L 340.551248 315.252478 
L 340.71154 315.579236 
L 341.032126 317.144804 
L 341.352711 320.052641 
L 341.833589 327.71166 
L 342.474759 339.110874 
L 342.795344 342.246145 
L 342.955637 342.826303 
L 343.11593 342.73217 
L 343.276222 341.995816 
L 343.596808 338.839471 
L 344.077685 331.069065 
L 346.642367 283.607671 
L 347.283538 276.166771 
L 347.764416 272.376278 
L 348.245294 270.225839 
L 348.565879 269.689695 
L 348.726172 269.67592 
L 349.046757 270.115578 
L 349.367342 271.107527 
L 349.84822 273.415299 
L 350.649683 278.584563 
L 352.573195 291.372866 
L 353.855536 298.112369 
L 355.458462 305.19877 
L 357.061388 311.357448 
L 358.664314 316.645813 
L 360.267241 321.179183 
L 361.870167 325.103033 
L 363.633386 328.816914 
L 365.396605 331.977657 
L 367.159823 334.662654 
L 368.923042 336.941393 
L 370.686261 338.873719 
L 372.609773 340.647408 
L 373.090651 341.042993 
L 373.250943 214.624792 
L 373.411236 232.331232 
L 373.731821 318.56814 
L 373.892114 337.114536 
L 374.052406 338.893473 
L 374.372992 314.268636 
L 375.014162 252.748042 
L 375.49504 229.326517 
L 376.13621 207.064831 
L 376.617088 180.365349 
L 377.418551 116.76932 
L 377.899429 78.194222 
L 378.220015 405.131991 
L 378.380307 430.100162 
L 378.5406 418.810828 
L 379.18177 331.092734 
L 379.502356 317.56366 
L 379.662648 315.736401 
L 379.822941 315.383092 
L 379.983233 315.715838 
L 380.303819 317.286395 
L 380.624404 320.191328 
L 381.105282 327.835777 
L 381.746452 339.206812 
L 382.067038 342.327418 
L 382.22733 342.900487 
L 382.387623 342.79952 
L 382.547915 342.056635 
L 382.868501 338.88828 
L 383.349379 331.102756 
L 385.914061 283.608862 
L 386.555231 276.166443 
L 387.036109 272.375286 
L 387.516987 270.224395 
L 387.837572 269.688023 
L 387.997865 269.674153 
L 388.31845 270.113652 
L 388.639035 271.105486 
L 389.119913 273.413166 
L 389.921376 278.58248 
L 391.844888 291.371476 
L 393.127229 298.111389 
L 394.730155 305.198043 
L 396.333081 311.356835 
L 397.936007 316.645279 
L 399.538934 321.178716 
L 401.14186 325.102625 
L 402.905079 328.816564 
L 404.668298 331.977359 
L 406.431517 334.662402 
L 408.194735 336.941179 
L 409.957954 338.873538 
L 411.881466 340.647256 
L 413.644685 342.014392 
L 413.804977 215.726352 
L 413.96527 233.578175 
L 414.285855 320.019364 
L 414.446148 338.603706 
L 414.60644 340.384563 
L 414.927026 315.694233 
L 415.568196 253.934493 
L 416.049074 230.341907 
L 416.690245 207.901337 
L 417.171122 181.070448 
L 417.972586 117.211014 
L 418.453463 78.469963 
L 418.774049 405.283901 
L 418.934341 430.192049 
L 419.094634 418.849352 
L 419.735804 330.987857 
L 420.05639 317.41798 
L 420.216682 315.576019 
L 420.376975 315.211507 
L 420.537268 315.536383 
L 420.857853 317.100379 
L 421.178438 320.009124 
L 421.659316 327.672711 
L 422.300486 339.080766 
L 422.621072 342.220638 
L 422.781364 342.803021 
L 422.941657 342.711033 
L 423.10195 341.976729 
L 423.422535 338.824153 
L 423.903413 331.058492 
L 426.468095 283.607297 
L 427.109265 276.166873 
L 427.590143 272.376589 
L 428.071021 270.226292 
L 428.391606 269.690219 
L 428.551899 269.676474 
L 428.872484 270.116182 
L 429.193069 271.108167 
L 429.673947 273.415969 
L 430.47541 278.585217 
L 432.398922 291.373303 
L 433.681263 298.112677 
L 435.284189 305.198998 
L 436.887115 311.357641 
L 438.490042 316.64598 
L 440.092968 321.179329 
L 441.695894 325.103162 
L 443.459113 328.817024 
L 445.222332 331.97775 
L 446.985551 334.662734 
L 448.74877 336.94146 
L 450.511988 338.873776 
L 452.4355 340.647455 
L 453.557548 341.543432 
L 453.717841 215.192313 
L 453.878134 232.973742 
L 454.198719 319.315964 
L 454.359011 337.88189 
L 454.519304 339.661779 
L 454.839889 315.003109 
L 455.48106 253.359196 
L 455.961938 229.849552 
L 456.603108 207.49575 
L 457.083986 180.728575 
L 457.885449 116.996826 
L 458.366327 78.336228 
L 458.686912 405.210206 
L 458.847205 430.147458 
L 459.007498 418.830637 
L 459.648668 331.038683 
L 459.969253 317.488595 
L 460.129546 315.653767 
L 460.289839 315.29469 
L 460.450131 315.623385 
L 460.770716 317.190569 
L 461.091302 320.097469 
L 461.57218 327.751781 
L 462.21335 339.141887 
L 462.533935 342.272417 
L 462.694228 342.850284 
L 462.854521 342.753942 
L 463.014813 342.015476 
L 463.335398 338.855249 
L 463.816276 331.079956 
L 466.380958 283.608056 
L 467.022129 276.166665 
L 467.503007 272.375957 
L 467.983885 270.225372 
L 468.30447 269.689154 
L 468.464762 269.675348 
L 468.785348 270.114955 
L 469.105933 271.106867 
L 469.586811 273.41461 
L 470.388274 278.58389 
L 472.311785 291.372417 
L 473.594126 298.112052 
L 475.197053 305.198535 
L 476.799979 311.35725 
L 478.402905 316.64564 
L 480.005831 321.179032 
L 481.608758 325.102901 
L 483.371977 328.816801 
L 485.135195 331.97756 
L 486.898414 334.662573 
L 488.661633 336.941324 
L 490.424852 338.873661 
L 492.348364 340.647359 
L 493.630705 341.663804 
L 493.790997 215.328812 
L 493.95129 233.12825 
L 494.271875 319.495779 
L 494.432168 338.066408 
L 494.59246 339.846539 
L 494.913046 315.17976 
L 495.554216 253.506221 
L 496.035094 229.97538 
L 496.676264 207.599408 
L 497.157142 180.81595 
L 497.958605 117.051562 
L 498.439483 78.3704 
L 498.760069 405.229034 
L 498.920361 430.158848 
L 499.080654 418.835413 
L 499.721824 331.025688 
L 500.04241 317.470544 
L 500.202702 315.633894 
L 500.362995 315.273429 
L 500.523287 315.601148 
L 500.843873 317.167518 
L 501.164458 320.074891 
L 501.645336 327.731574 
L 502.286506 339.126267 
L 502.607092 342.259185 
L 502.767384 342.838205 
L 502.927677 342.742976 
L 503.087969 342.005574 
L 503.408555 338.847302 
L 503.889433 331.07447 
L 506.454115 283.607862 
L 507.095285 276.166718 
L 507.576163 272.376119 
L 508.057041 270.225607 
L 508.377626 269.689427 
L 508.537919 269.675636 
L 508.858504 270.115269 
L 509.179089 271.107199 
L 509.659967 273.414957 
L 510.46143 278.584229 
L 512.384942 291.372643 
L 513.667283 298.112212 
L 515.270209 305.198653 
L 516.873135 311.35735 
L 518.476061 316.645727 
L 520.078988 321.179108 
L 521.681914 325.102968 
L 523.445133 328.816858 
L 525.208352 331.977609 
L 526.971571 334.662614 
L 528.734789 336.941359 
L 530.498008 338.87369 
L 532.42152 340.647383 
L 533.864153 341.782483 
L 534.024446 215.463388 
L 534.184739 233.280569 
L 534.505324 319.673042 
L 534.665617 338.248311 
L 534.825909 340.028683 
L 535.146494 315.353921 
L 535.787665 253.651188 
L 536.268543 230.099446 
L 536.909713 207.701612 
L 537.390591 180.902098 
L 538.192054 117.105533 
L 538.672932 78.404098 
L 538.993517 405.247602 
L 539.15381 430.170082 
L 539.314103 418.840127 
L 539.955273 331.01288 
L 540.275858 317.452749 
L 540.436151 315.614301 
L 540.596444 315.252467 
L 540.756736 315.579224 
L 541.077322 317.144791 
L 541.397907 320.052629 
L 541.878785 327.711649 
L 542.519955 339.110866 
L 542.84054 342.246138 
L 543.000833 342.826296 
L 543.161126 342.732164 
L 543.321418 341.99581 
L 543.642004 338.839466 
L 544.122881 331.069062 
L 546.687563 283.607671 
L 547.328734 276.166771 
L 547.809612 272.376278 
L 548.29049 270.225839 
L 548.611075 269.689695 
L 548.771368 269.67592 
L 549.091953 270.115578 
L 549.412538 271.107527 
L 549.893416 273.4153 
L 550.694879 278.584563 
L 552.618391 291.372866 
L 553.900732 298.112369 
L 555.503658 305.19877 
L 557.106584 311.357448 
L 558.70951 316.645813 
L 560.312437 321.179183 
L 561.915363 325.103033 
L 563.678582 328.816914 
L 565.441801 331.977657 
L 567.205019 334.662654 
L 568.968238 336.941393 
L 570.731457 338.873719 
L 572.654969 340.647408 
L 574.257895 341.899387 
L 574.418188 215.595948 
L 574.57848 233.430597 
L 574.899065 319.847631 
L 575.059358 338.427472 
L 575.219651 340.208087 
L 575.540236 315.525472 
L 576.181406 253.793996 
L 576.662284 230.221665 
L 577.303455 207.80229 
L 577.784333 180.98696 
L 578.585796 117.158703 
L 579.066674 78.437297 
L 579.387259 405.265897 
L 579.547552 430.181153 
L 579.707844 418.844775 
L 580.349015 331.000265 
L 580.6696 317.435221 
L 580.829893 315.595003 
L 580.990185 315.231819 
L 581.150478 315.557628 
L 581.471063 317.122404 
L 581.791648 320.030699 
L 582.272526 327.692021 
L 582.913697 339.095693 
L 583.234282 342.233284 
L 583.394575 342.814564 
L 583.554867 342.721513 
L 583.71516 341.986192 
L 584.035745 338.831747 
L 584.516623 331.063733 
L 587.081305 283.607482 
L 587.722475 276.166822 
L 588.203353 272.376435 
L 588.684231 270.226068 
L 589.004816 269.689959 
L 589.165109 269.676199 
L 589.485694 270.115882 
L 589.80628 271.10785 
L 590.287157 273.415637 
L 591.088621 278.584893 
L 593.012132 291.373086 
L 594.294473 298.112524 
L 595.897399 305.198885 
L 597.500326 311.357545 
L 599.103252 316.645897 
L 600.706178 321.179257 
L 602.309104 325.103098 
L 604.072323 328.81697 
L 605.835542 331.977704 
L 607.598761 334.662694 
L 609.36198 336.941427 
L 611.125199 338.873748 
L 613.04871 340.647432 
L 613.209003 340.781284 
L 613.369295 214.327978 
L 613.529588 231.995124 
L 613.850173 318.176894 
L 614.010466 336.713091 
L 614.170759 338.491561 
L 614.491344 313.884496 
L 615.132514 252.428493 
L 615.613392 229.053045 
L 616.254563 206.839498 
L 616.735441 180.175413 
L 617.536904 116.650378 
L 618.017782 78.12 
L 618.338367 405.091126 
L 618.498659 430.075463 
L 618.658952 418.8005 
L 619.300123 331.12102 
L 619.620708 317.602927 
L 619.781 315.779625 
L 619.941293 315.429328 
L 620.101586 315.764189 
L 620.422171 317.336506 
L 620.742756 320.240407 
L 621.223634 327.879695 
L 621.864805 339.240756 
L 622.18539 342.356173 
L 622.345682 342.926734 
L 622.505975 342.823349 
L 622.666268 342.078154 
L 622.986853 338.90555 
L 623.467731 331.114678 
L 626.032413 283.609284 
L 626.673583 276.166327 
L 627.154461 272.374936 
L 627.635339 270.223884 
L 627.955924 269.687432 
L 628.116217 269.673527 
L 628.436802 270.112971 
L 628.757387 271.104764 
L 629.238265 273.412412 
L 630.039728 278.581743 
L 631.96324 291.370985 
L 633.245581 298.111042 
L 634.848507 305.197786 
L 636.451433 311.356618 
L 638.05436 316.645091 
L 639.657286 321.178551 
L 641.260212 325.10248 
L 643.023431 328.81644 
L 644.78665 331.977253 
L 646.549869 334.662312 
L 648.313088 336.941103 
L 650.076307 338.873473 
L 651.999818 340.647203 
L 653.92333 342.127761 
L 654.083622 215.854898 
L 654.243915 233.723641 
L 654.5645 320.188633 
L 654.724793 338.777413 
L 654.885085 340.558514 
L 655.205671 315.860589 
L 655.846841 254.073 
L 656.327719 230.460446 
L 656.968889 207.998978 
L 657.449767 181.15275 
L 658.25123 117.262585 
L 658.732108 78.50217 
L 659.052694 405.301654 
L 659.212986 430.202794 
L 659.373279 418.853867 
L 660.014449 330.975629 
L 660.335035 317.400985 
L 660.495327 315.557306 
L 660.65562 315.191485 
L 660.815912 315.51544 
L 661.136498 317.078668 
L 661.457083 319.987855 
L 661.937961 327.653674 
L 662.579131 339.06605 
L 662.899717 342.208171 
L 663.060009 342.791641 
L 663.220302 342.700702 
L 663.380594 341.967399 
L 663.70118 338.816666 
L 664.182058 331.053324 
L 666.74674 283.607115 
L 667.38791 276.166924 
L 667.868788 272.376741 
L 668.349666 270.226514 
L 668.670251 269.690476 
L 668.830544 269.676745 
L 669.151129 270.116477 
L 669.471714 271.10848 
L 669.952592 273.416296 
L 670.754055 278.585537 
L 672.677567 291.373516 
L 673.959908 298.112827 
L 675.562834 305.19911 
L 677.16576 311.357735 
L 678.768686 316.646062 
L 680.371613 321.179401 
L 681.974539 325.103224 
L 683.737758 328.817078 
L 685.500977 331.977796 
L 687.264196 334.662772 
L 689.027414 336.941493 
L 690.790633 338.873804 
L 692.714145 340.647479 
L 694.156778 341.782566 
L 694.317071 215.463482 
L 694.477364 233.280676 
L 694.797949 319.673166 
L 694.958242 338.248438 
L 695.118534 340.028811 
L 695.439119 315.354043 
L 696.08029 253.65129 
L 696.561168 230.099533 
L 697.202338 207.701684 
L 697.683216 180.902158 
L 698.484679 117.105571 
L 698.965557 78.404121 
L 699.286142 405.247615 
L 699.446435 430.17009 
L 699.606728 418.840131 
L 700.247898 331.012871 
L 700.568483 317.452736 
L 700.728776 315.614287 
L 700.889069 315.252452 
L 701.049361 315.579209 
L 701.369947 317.144775 
L 701.690532 320.052613 
L 702.17141 327.711635 
L 702.81258 339.110855 
L 703.133165 342.246128 
L 703.293458 342.826288 
L 703.453751 342.732156 
L 703.614043 341.995804 
L 703.934629 338.839461 
L 704.415506 331.069058 
L 706.980188 283.607671 
L 707.621359 276.166771 
L 708.102237 272.376278 
L 708.583115 270.22584 
L 708.9037 269.689695 
L 709.063993 269.67592 
L 709.384578 270.115578 
L 709.705163 271.107527 
L 710.186041 273.4153 
L 710.987504 278.584564 
L 712.911016 291.372867 
L 714.193357 298.11237 
L 715.796283 305.19877 
L 717.399209 311.357449 
L 719.002135 316.645813 
L 720.605062 321.179183 
L 722.207988 325.103033 
L 723.971207 328.816914 
L 725.734426 331.977657 
L 727.497644 334.662654 
L 729.260863 336.941393 
L 731.024082 338.873719 
L 732.947594 340.647408 
L 734.069642 341.543389 
L 734.229935 215.192265 
L 734.390227 232.973688 
L 734.710813 319.3159 
L 734.871105 337.881824 
L 735.031398 339.661714 
L 735.351983 315.003046 
L 735.993154 253.359143 
L 736.474031 229.849507 
L 737.115202 207.495713 
L 737.59608 180.728544 
L 738.397543 116.996806 
L 738.878421 78.336216 
L 739.199006 405.2102 
L 739.359299 430.147454 
L 739.519591 418.830635 
L 740.160762 331.038687 
L 740.481347 317.488602 
L 740.64164 315.653774 
L 740.801932 315.294698 
L 740.962225 315.623393 
L 741.28281 317.190577 
L 741.603395 320.097477 
L 742.084273 327.751788 
L 742.725444 339.141893 
L 743.046029 342.272422 
L 743.206322 342.850288 
L 743.366614 342.753946 
L 743.526907 342.01548 
L 743.847492 338.855252 
L 744.32837 331.079957 
L 746.893052 283.608056 
L 747.534223 276.166665 
L 748.0151 272.375957 
L 748.495978 270.225372 
L 748.816564 269.689154 
L 748.976856 269.675348 
L 749.297441 270.114955 
L 749.618027 271.106867 
L 750.098905 273.41461 
L 750.900368 278.58389 
L 752.823879 291.372417 
L 754.10622 298.112052 
L 755.709146 305.198535 
L 757.312073 311.35725 
L 758.914999 316.64564 
L 760.517925 321.179032 
L 762.120851 325.102901 
L 763.88407 328.816801 
L 765.647289 331.97756 
L 767.410508 334.662573 
L 769.173727 336.941324 
L 770.936946 338.873661 
L 772.860457 340.647359 
L 773.822213 341.421058 
L 773.982506 215.053541 
L 774.142798 232.81665 
L 774.463384 319.133134 
L 774.623676 337.69428 
L 774.783969 339.473929 
L 775.104554 314.823514 
L 775.745725 253.209734 
L 776.226602 229.721639 
L 776.867773 207.390371 
L 777.348651 180.63975 
L 778.150114 116.941185 
L 778.630992 78.301493 
L 778.951577 405.191071 
L 779.11187 430.135885 
L 779.272162 418.825785 
L 779.913333 331.051896 
L 780.233918 317.506948 
L 780.394211 315.673972 
L 780.554503 315.316306 
L 780.714796 315.645992 
L 781.035381 317.214002 
L 781.355966 320.120423 
L 781.836844 327.772323 
L 782.478015 339.157765 
L 782.7986 342.285869 
L 782.958893 342.862562 
L 783.119185 342.765089 
L 783.279478 342.025542 
L 783.600063 338.863327 
L 784.080941 331.085532 
L 786.645623 283.608253 
L 787.286794 276.16661 
L 787.767671 272.375793 
L 788.248549 270.225133 
L 788.569135 269.688878 
L 788.729427 269.675056 
L 789.050012 270.114637 
L 789.370598 271.106529 
L 789.851476 273.414257 
L 790.652939 278.583545 
L 792.57645 291.372187 
L 793.858791 298.11189 
L 795.461717 305.198415 
L 797.064644 311.357149 
L 798.66757 316.645552 
L 800.270496 321.178954 
L 801.873422 325.102834 
L 803.636641 328.816743 
L 805.39986 331.977511 
L 807.163079 334.662531 
L 808.926298 336.941288 
L 810.689517 338.873631 
L 812.613028 340.647334 
L 813.414491 341.296891 
L 813.574784 214.912731 
L 813.735077 232.657242 
L 814.055662 318.9476 
L 814.215955 337.5039 
L 814.376247 339.28331 
L 814.696832 314.641283 
L 815.338003 253.058092 
L 815.818881 229.591862 
L 816.460051 207.283451 
L 816.940929 180.549627 
L 817.742392 116.884734 
L 818.22327 78.266256 
L 818.543855 405.171662 
L 818.704148 430.124147 
L 818.864441 418.820868 
L 819.505611 331.065305 
L 819.826196 317.525572 
L 819.986489 315.694474 
L 820.146782 315.33824 
L 820.307074 315.668931 
L 820.62766 317.237778 
L 820.948245 320.143711 
L 821.429123 327.793165 
L 822.070293 339.173875 
L 822.390878 342.299516 
L 822.551171 342.875019 
L 822.711464 342.776398 
L 822.871756 342.035755 
L 823.192342 338.871523 
L 823.673219 331.091189 
L 826.237901 283.608453 
L 826.879072 276.166555 
L 827.35995 272.375627 
L 827.840828 270.224891 
L 828.161413 269.688597 
L 828.321706 269.674759 
L 828.642291 270.114313 
L 828.962876 271.106186 
L 829.443754 273.413899 
L 830.245217 278.583195 
L 832.168729 291.371954 
L 833.45107 298.111726 
L 835.053996 305.198293 
L 836.656922 311.357046 
L 838.259848 316.645462 
L 839.862775 321.178876 
L 841.465701 325.102765 
L 843.22892 328.816684 
L 844.992139 331.977461 
L 846.755357 334.662488 
L 848.518576 336.941252 
L 850.281795 338.8736 
L 852.205307 340.647308 
L 854.128818 342.127849 
L 854.609696 342.458009 
L 854.769989 216.229341 
L 854.930281 234.147317 
L 855.250867 320.681603 
L 855.411159 339.283324 
L 855.571452 341.065159 
L 855.892037 316.345167 
L 856.533208 254.476527 
L 857.014085 230.805801 
L 857.655256 208.283431 
L 858.136134 181.392516 
L 858.937597 117.412844 
L 859.418475 78.596021 
L 859.73906 405.353396 
L 859.899353 430.234122 
L 860.059645 418.867045 
L 860.700816 330.94002 
L 861.021401 317.351486 
L 861.181694 315.5028 
L 861.341986 315.133162 
L 861.502279 315.454434 
L 861.822864 317.015418 
L 862.143449 319.925892 
L 862.624327 327.598211 
L 863.265498 339.023174 
L 863.586083 342.171848 
L 863.746376 342.758486 
L 863.906668 342.670601 
L 864.066961 341.940217 
L 864.387546 338.794852 
L 864.868424 331.038268 
L 867.433106 283.606583 
L 868.074277 276.16707 
L 868.555154 272.377184 
L 869.036032 270.227159 
L 869.356618 269.691223 
L 869.51691 269.677535 
L 869.837495 270.117338 
L 870.158081 271.109392 
L 870.638959 273.417249 
L 871.440422 278.586468 
L 873.363933 291.374137 
L 874.646274 298.113266 
L 876.2492 305.199435 
L 877.852127 311.358009 
L 879.455053 316.6463 
L 881.057979 321.17961 
L 882.660905 325.103407 
L 884.424124 328.817234 
L 886.187343 331.977929 
L 887.950562 334.662885 
L 889.713781 336.941589 
L 891.477 338.873885 
L 893.400511 340.647546 
L 894.362267 341.421229 
L 894.52256 215.053735 
L 894.682852 232.81687 
L 895.003438 319.13339 
L 895.16373 337.694543 
L 895.324023 339.474192 
L 895.644608 314.823766 
L 896.285779 253.209943 
L 896.766656 229.721819 
L 897.407827 207.390518 
L 897.888705 180.639875 
L 898.690168 116.941263 
L 899.171046 78.301542 
L 899.491631 405.191098 
L 899.651924 430.135901 
L 899.812216 418.825792 
L 900.453387 331.051877 
L 900.773972 317.506923 
L 900.934265 315.673944 
L 901.094557 315.316276 
L 901.25485 315.645961 
L 901.575435 317.213969 
L 901.89602 320.12039 
L 902.376898 327.772294 
L 903.018069 339.157743 
L 903.338654 342.28585 
L 903.498947 342.862545 
L 903.659239 342.765073 
L 903.819532 342.025528 
L 904.140117 338.863316 
L 904.620995 331.085524 
L 907.185677 283.608253 
L 907.826848 276.166611 
L 908.307725 272.375794 
L 908.788603 270.225134 
L 909.109189 269.688878 
L 909.269481 269.675056 
L 909.590066 270.114637 
L 909.910652 271.10653 
L 910.39153 273.414257 
L 911.192993 278.583545 
L 913.116504 291.372187 
L 914.398845 298.11189 
L 916.001771 305.198415 
L 917.604698 311.357149 
L 919.207624 316.645552 
L 920.81055 321.178954 
L 922.413476 325.102834 
L 924.176695 328.816743 
L 925.939914 331.977511 
L 927.703133 334.662531 
L 929.466352 336.941288 
L 931.229571 338.873631 
L 933.153082 340.647334 
L 933.794253 341.170863 
L 933.954545 214.769808 
L 933.954545 214.769808 
" clip-path="url(#p2b51dee7b9)" style="fill: none; stroke: #1f77b4; stroke-width: 1.5; stroke-linecap: square"/>
   </g>
   <g id="line2d_12">
    <path d="M 173.045455 187.299334 
L 177.693941 187.299334 
L 177.854233 349.582247 
L 213.278903 349.582247 
L 213.439196 187.299334 
L 218.087682 187.299334 
L 218.247975 349.582247 
L 253.99323 349.582247 
L 254.153523 187.299334 
L 258.802009 187.299334 
L 258.962302 349.582247 
L 293.585509 349.582247 
L 293.745801 187.299334 
L 298.394287 187.299334 
L 298.55458 349.582247 
L 333.818957 349.582247 
L 333.97925 187.299334 
L 338.627736 187.299334 
L 338.788029 349.582247 
L 373.090651 349.582247 
L 373.250943 187.299334 
L 377.899429 187.299334 
L 378.059722 349.582247 
L 413.644685 349.582247 
L 413.804977 187.299334 
L 418.453463 187.299334 
L 418.613756 349.582247 
L 453.557548 349.582247 
L 453.717841 187.299334 
L 458.366327 187.299334 
L 458.52662 349.582247 
L 493.630705 349.582247 
L 493.790997 187.299334 
L 498.439483 187.299334 
L 498.599776 349.582247 
L 533.864153 349.582247 
L 534.024446 187.299334 
L 538.672932 187.299334 
L 538.833225 349.582247 
L 574.257895 349.582247 
L 574.418188 187.299334 
L 579.066674 187.299334 
L 579.226966 349.582247 
L 613.209003 349.582247 
L 613.369295 187.299334 
L 618.017782 187.299334 
L 618.178074 349.582247 
L 653.92333 349.582247 
L 654.083622 187.299334 
L 658.732108 187.299334 
L 658.892401 349.582247 
L 694.156778 349.582247 
L 694.317071 187.299334 
L 698.965557 187.299334 
L 699.12585 349.582247 
L 734.069642 349.582247 
L 734.229935 187.299334 
L 738.878421 187.299334 
L 739.038713 349.582247 
L 773.822213 349.582247 
L 773.982506 187.299334 
L 778.630992 187.299334 
L 778.791284 349.582247 
L 813.414491 349.582247 
L 813.574784 187.299334 
L 818.22327 187.299334 
L 818.383563 349.582247 
L 854.609696 349.582247 
L 854.769989 187.299334 
L 859.418475 187.299334 
L 859.578767 349.582247 
L 894.362267 349.582247 
L 894.52256 187.299334 
L 899.171046 187.299334 
L 899.331338 349.582247 
L 933.794253 349.582247 
L 933.954545 187.299334 
L 933.954545 187.299334 
" clip-path="url(#p2b51dee7b9)" style="fill: none; stroke: #ff7f0e; stroke-width: 1.5; stroke-linecap: square"/>
   </g>
   <g id="line2d_13">
    <path d="M 929.466352 349.582247 
" clip-path="url(#p2b51dee7b9)" style="fill: none; stroke: #000000; stroke-width: 1.5; stroke-linecap: square"/>
    <defs>
     <path id="m98885fdced" d="M 0 1 
C 0.265203 1 0.51958 0.894634 0.707107 0.707107 
C 0.894634 0.51958 1 0.265203 1 0 
C 1 -0.265203 0.894634 -0.51958 0.707107 -0.707107 
C 0.51958 -0.894634 0.265203 -1 0 -1 
C -0.265203 -1 -0.51958 -0.894634 -0.707107 -0.707107 
C -0.894634 -0.51958 -1 -0.265203 -1 0 
C -1 0.265203 -0.894634 0.51958 -0.707107 0.707107 
C -0.51958 0.894634 -0.265203 1 0 1 
z
" style="stroke: #000000"/>
    </defs>
    <g clip-path="url(#p2b51dee7b9)">
     <use xlink:href="#m98885fdced" x="173.045455" y="187.299334" style="stroke: #000000"/>
     <use xlink:href="#m98885fdced" x="178.174819" y="349.582247" style="stroke: #000000"/>
     <use xlink:href="#m98885fdced" x="183.14389" y="349.582247" style="stroke: #000000"/>
     <use xlink:href="#m98885fdced" x="188.112961" y="187.299334" style="stroke: #000000"/>
     <use xlink:href="#m98885fdced" x="193.082033" y="349.582247" style="stroke: #000000"/>
     <use xlink:href="#m98885fdced" x="198.211397" y="349.582247" style="stroke: #000000"/>
     <use xlink:href="#m98885fdced" x="203.180468" y="187.299334" style="stroke: #000000"/>
     <use xlink:href="#m98885fdced" x="208.149539" y="349.582247" style="stroke: #000000"/>
     <use xlink:href="#m98885fdced" x="213.118611" y="187.299334" style="stroke: #000000"/>
     <use xlink:href="#m98885fdced" x="218.247975" y="349.582247" style="stroke: #000000"/>
     <use xlink:href="#m98885fdced" x="223.217046" y="349.582247" style="stroke: #000000"/>
     <use xlink:href="#m98885fdced" x="228.186118" y="187.299334" style="stroke: #000000"/>
     <use xlink:href="#m98885fdced" x="233.155189" y="349.582247" style="stroke: #000000"/>
     <use xlink:href="#m98885fdced" x="238.284553" y="349.582247" style="stroke: #000000"/>
     <use xlink:href="#m98885fdced" x="243.253624" y="187.299334" style="stroke: #000000"/>
     <use xlink:href="#m98885fdced" x="248.222696" y="349.582247" style="stroke: #000000"/>
     <use xlink:href="#m98885fdced" x="253.191767" y="187.299334" style="stroke: #000000"/>
     <use xlink:href="#m98885fdced" x="258.321131" y="349.582247" style="stroke: #000000"/>
     <use xlink:href="#m98885fdced" x="263.290202" y="349.582247" style="stroke: #000000"/>
     <use xlink:href="#m98885fdced" x="268.259274" y="187.299334" style="stroke: #000000"/>
     <use xlink:href="#m98885fdced" x="273.228345" y="349.582247" style="stroke: #000000"/>
     <use xlink:href="#m98885fdced" x="278.357709" y="349.582247" style="stroke: #000000"/>
     <use xlink:href="#m98885fdced" x="283.326781" y="187.299334" style="stroke: #000000"/>
     <use xlink:href="#m98885fdced" x="288.295852" y="349.582247" style="stroke: #000000"/>
     <use xlink:href="#m98885fdced" x="293.264923" y="187.299334" style="stroke: #000000"/>
     <use xlink:href="#m98885fdced" x="298.394287" y="349.582247" style="stroke: #000000"/>
     <use xlink:href="#m98885fdced" x="303.363359" y="349.582247" style="stroke: #000000"/>
     <use xlink:href="#m98885fdced" x="308.33243" y="187.299334" style="stroke: #000000"/>
     <use xlink:href="#m98885fdced" x="313.301501" y="349.582247" style="stroke: #000000"/>
     <use xlink:href="#m98885fdced" x="318.430865" y="349.582247" style="stroke: #000000"/>
     <use xlink:href="#m98885fdced" x="323.399937" y="187.299334" style="stroke: #000000"/>
     <use xlink:href="#m98885fdced" x="328.369008" y="349.582247" style="stroke: #000000"/>
     <use xlink:href="#m98885fdced" x="333.33808" y="187.299334" style="stroke: #000000"/>
     <use xlink:href="#m98885fdced" x="338.467444" y="349.582247" style="stroke: #000000"/>
     <use xlink:href="#m98885fdced" x="343.436515" y="349.582247" style="stroke: #000000"/>
     <use xlink:href="#m98885fdced" x="348.405586" y="187.299334" style="stroke: #000000"/>
     <use xlink:href="#m98885fdced" x="353.374658" y="349.582247" style="stroke: #000000"/>
     <use xlink:href="#m98885fdced" x="358.504022" y="349.582247" style="stroke: #000000"/>
     <use xlink:href="#m98885fdced" x="363.473093" y="187.299334" style="stroke: #000000"/>
     <use xlink:href="#m98885fdced" x="368.442164" y="349.582247" style="stroke: #000000"/>
     <use xlink:href="#m98885fdced" x="373.411236" y="187.299334" style="stroke: #000000"/>
     <use xlink:href="#m98885fdced" x="378.5406" y="349.582247" style="stroke: #000000"/>
     <use xlink:href="#m98885fdced" x="383.509671" y="349.582247" style="stroke: #000000"/>
     <use xlink:href="#m98885fdced" x="388.478743" y="187.299334" style="stroke: #000000"/>
     <use xlink:href="#m98885fdced" x="393.447814" y="349.582247" style="stroke: #000000"/>
     <use xlink:href="#m98885fdced" x="398.577178" y="349.582247" style="stroke: #000000"/>
     <use xlink:href="#m98885fdced" x="403.546249" y="187.299334" style="stroke: #000000"/>
     <use xlink:href="#m98885fdced" x="408.515321" y="349.582247" style="stroke: #000000"/>
     <use xlink:href="#m98885fdced" x="413.484392" y="187.299334" style="stroke: #000000"/>
     <use xlink:href="#m98885fdced" x="418.613756" y="349.582247" style="stroke: #000000"/>
     <use xlink:href="#m98885fdced" x="423.582827" y="349.582247" style="stroke: #000000"/>
     <use xlink:href="#m98885fdced" x="428.551899" y="187.299334" style="stroke: #000000"/>
     <use xlink:href="#m98885fdced" x="433.52097" y="349.582247" style="stroke: #000000"/>
     <use xlink:href="#m98885fdced" x="438.650334" y="349.582247" style="stroke: #000000"/>
     <use xlink:href="#m98885fdced" x="443.619406" y="187.299334" style="stroke: #000000"/>
     <use xlink:href="#m98885fdced" x="448.588477" y="349.582247" style="stroke: #000000"/>
     <use xlink:href="#m98885fdced" x="453.557548" y="187.299334" style="stroke: #000000"/>
     <use xlink:href="#m98885fdced" x="458.686912" y="349.582247" style="stroke: #000000"/>
     <use xlink:href="#m98885fdced" x="463.655984" y="349.582247" style="stroke: #000000"/>
     <use xlink:href="#m98885fdced" x="468.625055" y="187.299334" style="stroke: #000000"/>
     <use xlink:href="#m98885fdced" x="473.594126" y="349.582247" style="stroke: #000000"/>
     <use xlink:href="#m98885fdced" x="478.72349" y="349.582247" style="stroke: #000000"/>
     <use xlink:href="#m98885fdced" x="483.692562" y="187.299334" style="stroke: #000000"/>
     <use xlink:href="#m98885fdced" x="488.661633" y="349.582247" style="stroke: #000000"/>
     <use xlink:href="#m98885fdced" x="493.630705" y="187.299334" style="stroke: #000000"/>
     <use xlink:href="#m98885fdced" x="498.760069" y="349.582247" style="stroke: #000000"/>
     <use xlink:href="#m98885fdced" x="503.72914" y="349.582247" style="stroke: #000000"/>
     <use xlink:href="#m98885fdced" x="508.698211" y="187.299334" style="stroke: #000000"/>
     <use xlink:href="#m98885fdced" x="513.667283" y="349.582247" style="stroke: #000000"/>
     <use xlink:href="#m98885fdced" x="518.796647" y="349.582247" style="stroke: #000000"/>
     <use xlink:href="#m98885fdced" x="523.765718" y="187.299334" style="stroke: #000000"/>
     <use xlink:href="#m98885fdced" x="528.734789" y="349.582247" style="stroke: #000000"/>
     <use xlink:href="#m98885fdced" x="533.703861" y="187.299334" style="stroke: #000000"/>
     <use xlink:href="#m98885fdced" x="538.833225" y="349.582247" style="stroke: #000000"/>
     <use xlink:href="#m98885fdced" x="543.802296" y="349.582247" style="stroke: #000000"/>
     <use xlink:href="#m98885fdced" x="548.771368" y="187.299334" style="stroke: #000000"/>
     <use xlink:href="#m98885fdced" x="553.740439" y="349.582247" style="stroke: #000000"/>
     <use xlink:href="#m98885fdced" x="558.869803" y="349.582247" style="stroke: #000000"/>
     <use xlink:href="#m98885fdced" x="563.838874" y="187.299334" style="stroke: #000000"/>
     <use xlink:href="#m98885fdced" x="568.807946" y="349.582247" style="stroke: #000000"/>
     <use xlink:href="#m98885fdced" x="573.777017" y="187.299334" style="stroke: #000000"/>
     <use xlink:href="#m98885fdced" x="578.906381" y="349.582247" style="stroke: #000000"/>
     <use xlink:href="#m98885fdced" x="583.875452" y="349.582247" style="stroke: #000000"/>
     <use xlink:href="#m98885fdced" x="588.844524" y="187.299334" style="stroke: #000000"/>
     <use xlink:href="#m98885fdced" x="593.813595" y="349.582247" style="stroke: #000000"/>
     <use xlink:href="#m98885fdced" x="598.942959" y="349.582247" style="stroke: #000000"/>
     <use xlink:href="#m98885fdced" x="603.912031" y="187.299334" style="stroke: #000000"/>
     <use xlink:href="#m98885fdced" x="608.881102" y="349.582247" style="stroke: #000000"/>
     <use xlink:href="#m98885fdced" x="613.850173" y="187.299334" style="stroke: #000000"/>
     <use xlink:href="#m98885fdced" x="618.979537" y="349.582247" style="stroke: #000000"/>
     <use xlink:href="#m98885fdced" x="623.948609" y="349.582247" style="stroke: #000000"/>
     <use xlink:href="#m98885fdced" x="628.91768" y="187.299334" style="stroke: #000000"/>
     <use xlink:href="#m98885fdced" x="633.886751" y="349.582247" style="stroke: #000000"/>
     <use xlink:href="#m98885fdced" x="639.016115" y="349.582247" style="stroke: #000000"/>
     <use xlink:href="#m98885fdced" x="643.985187" y="187.299334" style="stroke: #000000"/>
     <use xlink:href="#m98885fdced" x="648.954258" y="349.582247" style="stroke: #000000"/>
     <use xlink:href="#m98885fdced" x="653.92333" y="187.299334" style="stroke: #000000"/>
     <use xlink:href="#m98885fdced" x="659.052694" y="349.582247" style="stroke: #000000"/>
     <use xlink:href="#m98885fdced" x="664.021765" y="349.582247" style="stroke: #000000"/>
     <use xlink:href="#m98885fdced" x="668.990836" y="187.299334" style="stroke: #000000"/>
     <use xlink:href="#m98885fdced" x="673.959908" y="349.582247" style="stroke: #000000"/>
     <use xlink:href="#m98885fdced" x="679.089272" y="349.582247" style="stroke: #000000"/>
     <use xlink:href="#m98885fdced" x="684.058343" y="187.299334" style="stroke: #000000"/>
     <use xlink:href="#m98885fdced" x="689.027414" y="349.582247" style="stroke: #000000"/>
     <use xlink:href="#m98885fdced" x="693.996486" y="187.299334" style="stroke: #000000"/>
     <use xlink:href="#m98885fdced" x="699.12585" y="349.582247" style="stroke: #000000"/>
     <use xlink:href="#m98885fdced" x="704.094921" y="349.582247" style="stroke: #000000"/>
     <use xlink:href="#m98885fdced" x="709.063993" y="187.299334" style="stroke: #000000"/>
     <use xlink:href="#m98885fdced" x="714.033064" y="349.582247" style="stroke: #000000"/>
     <use xlink:href="#m98885fdced" x="719.162428" y="349.582247" style="stroke: #000000"/>
     <use xlink:href="#m98885fdced" x="724.131499" y="187.299334" style="stroke: #000000"/>
     <use xlink:href="#m98885fdced" x="729.100571" y="349.582247" style="stroke: #000000"/>
     <use xlink:href="#m98885fdced" x="734.069642" y="187.299334" style="stroke: #000000"/>
     <use xlink:href="#m98885fdced" x="739.199006" y="349.582247" style="stroke: #000000"/>
     <use xlink:href="#m98885fdced" x="744.168077" y="349.582247" style="stroke: #000000"/>
     <use xlink:href="#m98885fdced" x="749.137149" y="187.299334" style="stroke: #000000"/>
     <use xlink:href="#m98885fdced" x="754.10622" y="349.582247" style="stroke: #000000"/>
     <use xlink:href="#m98885fdced" x="759.235584" y="349.582247" style="stroke: #000000"/>
     <use xlink:href="#m98885fdced" x="764.204656" y="187.299334" style="stroke: #000000"/>
     <use xlink:href="#m98885fdced" x="769.173727" y="349.582247" style="stroke: #000000"/>
     <use xlink:href="#m98885fdced" x="774.142798" y="187.299334" style="stroke: #000000"/>
     <use xlink:href="#m98885fdced" x="779.272162" y="349.582247" style="stroke: #000000"/>
     <use xlink:href="#m98885fdced" x="784.241234" y="349.582247" style="stroke: #000000"/>
     <use xlink:href="#m98885fdced" x="789.210305" y="187.299334" style="stroke: #000000"/>
     <use xlink:href="#m98885fdced" x="794.179376" y="349.582247" style="stroke: #000000"/>
     <use xlink:href="#m98885fdced" x="799.30874" y="349.582247" style="stroke: #000000"/>
     <use xlink:href="#m98885fdced" x="804.277812" y="187.299334" style="stroke: #000000"/>
     <use xlink:href="#m98885fdced" x="809.246883" y="349.582247" style="stroke: #000000"/>
     <use xlink:href="#m98885fdced" x="814.215955" y="187.299334" style="stroke: #000000"/>
     <use xlink:href="#m98885fdced" x="819.345319" y="349.582247" style="stroke: #000000"/>
     <use xlink:href="#m98885fdced" x="824.31439" y="349.582247" style="stroke: #000000"/>
     <use xlink:href="#m98885fdced" x="829.283461" y="187.299334" style="stroke: #000000"/>
     <use xlink:href="#m98885fdced" x="834.252533" y="349.582247" style="stroke: #000000"/>
     <use xlink:href="#m98885fdced" x="839.381897" y="349.582247" style="stroke: #000000"/>
     <use xlink:href="#m98885fdced" x="844.350968" y="187.299334" style="stroke: #000000"/>
     <use xlink:href="#m98885fdced" x="849.320039" y="349.582247" style="stroke: #000000"/>
     <use xlink:href="#m98885fdced" x="854.289111" y="187.299334" style="stroke: #000000"/>
     <use xlink:href="#m98885fdced" x="859.418475" y="349.582247" style="stroke: #000000"/>
     <use xlink:href="#m98885fdced" x="864.387546" y="349.582247" style="stroke: #000000"/>
     <use xlink:href="#m98885fdced" x="869.356618" y="187.299334" style="stroke: #000000"/>
     <use xlink:href="#m98885fdced" x="874.325689" y="349.582247" style="stroke: #000000"/>
     <use xlink:href="#m98885fdced" x="879.455053" y="349.582247" style="stroke: #000000"/>
     <use xlink:href="#m98885fdced" x="884.424124" y="187.299334" style="stroke: #000000"/>
     <use xlink:href="#m98885fdced" x="889.393196" y="349.582247" style="stroke: #000000"/>
     <use xlink:href="#m98885fdced" x="894.362267" y="187.299334" style="stroke: #000000"/>
     <use xlink:href="#m98885fdced" x="899.491631" y="349.582247" style="stroke: #000000"/>
     <use xlink:href="#m98885fdced" x="904.460702" y="349.582247" style="stroke: #000000"/>
     <use xlink:href="#m98885fdced" x="909.429774" y="187.299334" style="stroke: #000000"/>
     <use xlink:href="#m98885fdced" x="914.398845" y="349.582247" style="stroke: #000000"/>
     <use xlink:href="#m98885fdced" x="919.528209" y="349.582247" style="stroke: #000000"/>
     <use xlink:href="#m98885fdced" x="924.497281" y="187.299334" style="stroke: #000000"/>
     <use xlink:href="#m98885fdced" x="929.466352" y="349.582247" style="stroke: #000000"/>
    </g>
   </g>
   <g id="patch_3">
    <path d="M 135 448.56 
L 135 60.48 
" style="fill: none; stroke: #000000; stroke-width: 0.8; stroke-linejoin: miter; stroke-linecap: square"/>
   </g>
   <g id="patch_4">
    <path d="M 972 448.56 
L 972 60.48 
" style="fill: none; stroke: #000000; stroke-width: 0.8; stroke-linejoin: miter; stroke-linecap: square"/>
   </g>
   <g id="patch_5">
    <path d="M 135 448.56 
L 972 448.56 
" style="fill: none; stroke: #000000; stroke-width: 0.8; stroke-linejoin: miter; stroke-linecap: square"/>
   </g>
   <g id="patch_6">
    <path d="M 135 60.48 
L 972 60.48 
" style="fill: none; stroke: #000000; stroke-width: 0.8; stroke-linejoin: miter; stroke-linecap: square"/>
   </g>
   <g id="legend_1">
    <g id="patch_7">
     <path d="M 895.915625 113.070625 
L 965 113.070625 
Q 967 113.070625 967 111.070625 
L 967 67.48 
Q 967 65.48 965 65.48 
L 895.915625 65.48 
Q 893.915625 65.48 893.915625 67.48 
L 893.915625 111.070625 
Q 893.915625 113.070625 895.915625 113.070625 
z
" style="fill: #ffffff; opacity: 0.8; stroke: #cccccc; stroke-linejoin: miter"/>
    </g>
    <g id="line2d_14">
     <path d="M 897.915625 73.578438 
L 907.915625 73.578438 
L 917.915625 73.578438 
" style="fill: none; stroke: #1f77b4; stroke-width: 1.5; stroke-linecap: square"/>
    </g>
    <g id="text_12">
     <!-- nw_0 -->
     <g transform="translate(925.915625 77.078438) scale(0.1 -0.1)">
      <defs>
       <path id="DejaVuSans-6e" d="M 3513 2113 
L 3513 0 
L 2938 0 
L 2938 2094 
Q 2938 2591 2744 2837 
Q 2550 3084 2163 3084 
Q 1697 3084 1428 2787 
Q 1159 2491 1159 1978 
L 1159 0 
L 581 0 
L 581 3500 
L 1159 3500 
L 1159 2956 
Q 1366 3272 1645 3428 
Q 1925 3584 2291 3584 
Q 2894 3584 3203 3211 
Q 3513 2838 3513 2113 
z
" transform="scale(0.015625)"/>
       <path id="DejaVuSans-77" d="M 269 3500 
L 844 3500 
L 1563 769 
L 2278 3500 
L 2956 3500 
L 3675 769 
L 4391 3500 
L 4966 3500 
L 4050 0 
L 3372 0 
L 2619 2869 
L 1863 0 
L 1184 0 
L 269 3500 
z
" transform="scale(0.015625)"/>
       <path id="DejaVuSans-5f" d="M 3263 -1063 
L 3263 -1509 
L -63 -1509 
L -63 -1063 
L 3263 -1063 
z
" transform="scale(0.015625)"/>
      </defs>
      <use xlink:href="#DejaVuSans-6e"/>
      <use xlink:href="#DejaVuSans-77" x="63.378906"/>
      <use xlink:href="#DejaVuSans-5f" x="145.166016"/>
      <use xlink:href="#DejaVuSans-30" x="195.166016"/>
     </g>
    </g>
    <g id="line2d_15">
     <path d="M 897.915625 88.534688 
L 907.915625 88.534688 
L 917.915625 88.534688 
" style="fill: none; stroke: #ff7f0e; stroke-width: 1.5; stroke-linecap: square"/>
    </g>
    <g id="text_13">
     <!-- input_0 -->
     <g transform="translate(925.915625 92.034688) scale(0.1 -0.1)">
      <defs>
       <path id="DejaVuSans-69" d="M 603 3500 
L 1178 3500 
L 1178 0 
L 603 0 
L 603 3500 
z
M 603 4863 
L 1178 4863 
L 1178 4134 
L 603 4134 
L 603 4863 
z
" transform="scale(0.015625)"/>
       <path id="DejaVuSans-70" d="M 1159 525 
L 1159 -1331 
L 581 -1331 
L 581 3500 
L 1159 3500 
L 1159 2969 
Q 1341 3281 1617 3432 
Q 1894 3584 2278 3584 
Q 2916 3584 3314 3078 
Q 3713 2572 3713 1747 
Q 3713 922 3314 415 
Q 2916 -91 2278 -91 
Q 1894 -91 1617 61 
Q 1341 213 1159 525 
z
M 3116 1747 
Q 3116 2381 2855 2742 
Q 2594 3103 2138 3103 
Q 1681 3103 1420 2742 
Q 1159 2381 1159 1747 
Q 1159 1113 1420 752 
Q 1681 391 2138 391 
Q 2594 391 2855 752 
Q 3116 1113 3116 1747 
z
" transform="scale(0.015625)"/>
       <path id="DejaVuSans-75" d="M 544 1381 
L 544 3500 
L 1119 3500 
L 1119 1403 
Q 1119 906 1312 657 
Q 1506 409 1894 409 
Q 2359 409 2629 706 
Q 2900 1003 2900 1516 
L 2900 3500 
L 3475 3500 
L 3475 0 
L 2900 0 
L 2900 538 
Q 2691 219 2414 64 
Q 2138 -91 1772 -91 
Q 1169 -91 856 284 
Q 544 659 544 1381 
z
M 1991 3584 
L 1991 3584 
z
" transform="scale(0.015625)"/>
      </defs>
      <use xlink:href="#DejaVuSans-69"/>
      <use xlink:href="#DejaVuSans-6e" x="27.783203"/>
      <use xlink:href="#DejaVuSans-70" x="91.162109"/>
      <use xlink:href="#DejaVuSans-75" x="154.638672"/>
      <use xlink:href="#DejaVuSans-74" x="218.017578"/>
      <use xlink:href="#DejaVuSans-5f" x="257.226562"/>
      <use xlink:href="#DejaVuSans-30" x="307.226562"/>
     </g>
    </g>
    <g id="line2d_16">
     <path d="M 897.915625 103.490938 
L 907.915625 103.490938 
L 917.915625 103.490938 
" style="fill: none; stroke: #000000; stroke-width: 1.5; stroke-linecap: square"/>
     <g>
      <use xlink:href="#m98885fdced" x="907.915625" y="103.490938" style="stroke: #000000"/>
     </g>
    </g>
    <g id="text_14">
     <!-- target -->
     <g transform="translate(925.915625 106.990938) scale(0.1 -0.1)">
      <defs>
       <path id="DejaVuSans-61" d="M 2194 1759 
Q 1497 1759 1228 1600 
Q 959 1441 959 1056 
Q 959 750 1161 570 
Q 1363 391 1709 391 
Q 2188 391 2477 730 
Q 2766 1069 2766 1631 
L 2766 1759 
L 2194 1759 
z
M 3341 1997 
L 3341 0 
L 2766 0 
L 2766 531 
Q 2569 213 2275 61 
Q 1981 -91 1556 -91 
Q 1019 -91 701 211 
Q 384 513 384 1019 
Q 384 1609 779 1909 
Q 1175 2209 1959 2209 
L 2766 2209 
L 2766 2266 
Q 2766 2663 2505 2880 
Q 2244 3097 1772 3097 
Q 1472 3097 1187 3025 
Q 903 2953 641 2809 
L 641 3341 
Q 956 3463 1253 3523 
Q 1550 3584 1831 3584 
Q 2591 3584 2966 3190 
Q 3341 2797 3341 1997 
z
" transform="scale(0.015625)"/>
       <path id="DejaVuSans-72" d="M 2631 2963 
Q 2534 3019 2420 3045 
Q 2306 3072 2169 3072 
Q 1681 3072 1420 2755 
Q 1159 2438 1159 1844 
L 1159 0 
L 581 0 
L 581 3500 
L 1159 3500 
L 1159 2956 
Q 1341 3275 1631 3429 
Q 1922 3584 2338 3584 
Q 2397 3584 2469 3576 
Q 2541 3569 2628 3553 
L 2631 2963 
z
" transform="scale(0.015625)"/>
       <path id="DejaVuSans-67" d="M 2906 1791 
Q 2906 2416 2648 2759 
Q 2391 3103 1925 3103 
Q 1463 3103 1205 2759 
Q 947 2416 947 1791 
Q 947 1169 1205 825 
Q 1463 481 1925 481 
Q 2391 481 2648 825 
Q 2906 1169 2906 1791 
z
M 3481 434 
Q 3481 -459 3084 -895 
Q 2688 -1331 1869 -1331 
Q 1566 -1331 1297 -1286 
Q 1028 -1241 775 -1147 
L 775 -588 
Q 1028 -725 1275 -790 
Q 1522 -856 1778 -856 
Q 2344 -856 2625 -561 
Q 2906 -266 2906 331 
L 2906 616 
Q 2728 306 2450 153 
Q 2172 0 1784 0 
Q 1141 0 747 490 
Q 353 981 353 1791 
Q 353 2603 747 3093 
Q 1141 3584 1784 3584 
Q 2172 3584 2450 3431 
Q 2728 3278 2906 2969 
L 2906 3500 
L 3481 3500 
L 3481 434 
z
" transform="scale(0.015625)"/>
       <path id="DejaVuSans-65" d="M 3597 1894 
L 3597 1613 
L 953 1613 
Q 991 1019 1311 708 
Q 1631 397 2203 397 
Q 2534 397 2845 478 
Q 3156 559 3463 722 
L 3463 178 
Q 3153 47 2828 -22 
Q 2503 -91 2169 -91 
Q 1331 -91 842 396 
Q 353 884 353 1716 
Q 353 2575 817 3079 
Q 1281 3584 2069 3584 
Q 2775 3584 3186 3129 
Q 3597 2675 3597 1894 
z
M 3022 2063 
Q 3016 2534 2758 2815 
Q 2500 3097 2075 3097 
Q 1594 3097 1305 2825 
Q 1016 2553 972 2059 
L 3022 2063 
z
" transform="scale(0.015625)"/>
      </defs>
      <use xlink:href="#DejaVuSans-74"/>
      <use xlink:href="#DejaVuSans-61" x="39.208984"/>
      <use xlink:href="#DejaVuSans-72" x="100.488281"/>
      <use xlink:href="#DejaVuSans-67" x="139.851562"/>
      <use xlink:href="#DejaVuSans-65" x="203.328125"/>
      <use xlink:href="#DejaVuSans-74" x="264.851562"/>
     </g>
    </g>
   </g>
  </g>
 </g>
 <defs>
  <clipPath id="p2b51dee7b9">
   <rect x="135" y="60.48" width="837" height="388.08"/>
  </clipPath>
 </defs>
</svg>
