<?xml version="1.0" encoding="utf-8" standalone="no"?>
<!DOCTYPE svg PUBLIC "-//W3C//DTD SVG 1.1//EN"
  "http://www.w3.org/Graphics/SVG/1.1/DTD/svg11.dtd">
<svg xmlns:xlink="http://www.w3.org/1999/xlink" width="1080pt" height="504pt" viewBox="0 0 1080 504" xmlns="http://www.w3.org/2000/svg" version="1.1">
 <metadata>
  <rdf:RDF xmlns:dc="http://purl.org/dc/elements/1.1/" xmlns:cc="http://creativecommons.org/ns#" xmlns:rdf="http://www.w3.org/1999/02/22-rdf-syntax-ns#">
   <cc:Work>
    <dc:type rdf:resource="http://purl.org/dc/dcmitype/StillImage"/>
    <dc:date>2024-05-09T11:04:54.816452</dc:date>
    <dc:format>image/svg+xml</dc:format>
    <dc:creator>
     <cc:Agent>
      <dc:title>Matplotlib v3.7.1, https://matplotlib.org/</dc:title>
     </cc:Agent>
    </dc:creator>
   </cc:Work>
  </rdf:RDF>
 </metadata>
 <defs>
  <style type="text/css">*{stroke-linejoin: round; stroke-linecap: butt}</style>
 </defs>
 <g id="figure_1">
  <g id="patch_1">
   <path d="M 0 504 
L 1080 504 
L 1080 0 
L 0 0 
z
" style="fill: #ffffff"/>
  </g>
  <g id="axes_1">
   <g id="patch_2">
    <path d="M 135 448.56 
L 972 448.56 
L 972 60.48 
L 135 60.48 
z
" style="fill: #ffffff"/>
   </g>
   <g id="matplotlib.axis_1">
    <g id="xtick_1">
     <g id="line2d_1">
      <defs>
       <path id="m9de8ca8f38" d="M 0 0 
L 0 3.5 
" style="stroke: #000000; stroke-width: 0.8"/>
      </defs>
      <g>
       <use xlink:href="#m9de8ca8f38" x="173.045455" y="448.56" style="stroke: #000000; stroke-width: 0.8"/>
      </g>
     </g>
     <g id="text_1">
      <!-- 0 -->
      <g transform="translate(169.864205 463.158437) scale(0.1 -0.1)">
       <defs>
        <path id="DejaVuSans-30" d="M 2034 4250 
Q 1547 4250 1301 3770 
Q 1056 3291 1056 2328 
Q 1056 1369 1301 889 
Q 1547 409 2034 409 
Q 2525 409 2770 889 
Q 3016 1369 3016 2328 
Q 3016 3291 2770 3770 
Q 2525 4250 2034 4250 
z
M 2034 4750 
Q 2819 4750 3233 4129 
Q 3647 3509 3647 2328 
Q 3647 1150 3233 529 
Q 2819 -91 2034 -91 
Q 1250 -91 836 529 
Q 422 1150 422 2328 
Q 422 3509 836 4129 
Q 1250 4750 2034 4750 
z
" transform="scale(0.015625)"/>
       </defs>
       <use xlink:href="#DejaVuSans-30"/>
      </g>
     </g>
    </g>
    <g id="xtick_2">
     <g id="line2d_2">
      <g>
       <use xlink:href="#m9de8ca8f38" x="333.33808" y="448.56" style="stroke: #000000; stroke-width: 0.8"/>
      </g>
     </g>
     <g id="text_2">
      <!-- 1000 -->
      <g transform="translate(320.61308 463.158437) scale(0.1 -0.1)">
       <defs>
        <path id="DejaVuSans-31" d="M 794 531 
L 1825 531 
L 1825 4091 
L 703 3866 
L 703 4441 
L 1819 4666 
L 2450 4666 
L 2450 531 
L 3481 531 
L 3481 0 
L 794 0 
L 794 531 
z
" transform="scale(0.015625)"/>
       </defs>
       <use xlink:href="#DejaVuSans-31"/>
       <use xlink:href="#DejaVuSans-30" x="63.623047"/>
       <use xlink:href="#DejaVuSans-30" x="127.246094"/>
       <use xlink:href="#DejaVuSans-30" x="190.869141"/>
      </g>
     </g>
    </g>
    <g id="xtick_3">
     <g id="line2d_3">
      <g>
       <use xlink:href="#m9de8ca8f38" x="493.630705" y="448.56" style="stroke: #000000; stroke-width: 0.8"/>
      </g>
     </g>
     <g id="text_3">
      <!-- 2000 -->
      <g transform="translate(480.905705 463.158437) scale(0.1 -0.1)">
       <defs>
        <path id="DejaVuSans-32" d="M 1228 531 
L 3431 531 
L 3431 0 
L 469 0 
L 469 531 
Q 828 903 1448 1529 
Q 2069 2156 2228 2338 
Q 2531 2678 2651 2914 
Q 2772 3150 2772 3378 
Q 2772 3750 2511 3984 
Q 2250 4219 1831 4219 
Q 1534 4219 1204 4116 
Q 875 4013 500 3803 
L 500 4441 
Q 881 4594 1212 4672 
Q 1544 4750 1819 4750 
Q 2544 4750 2975 4387 
Q 3406 4025 3406 3419 
Q 3406 3131 3298 2873 
Q 3191 2616 2906 2266 
Q 2828 2175 2409 1742 
Q 1991 1309 1228 531 
z
" transform="scale(0.015625)"/>
       </defs>
       <use xlink:href="#DejaVuSans-32"/>
       <use xlink:href="#DejaVuSans-30" x="63.623047"/>
       <use xlink:href="#DejaVuSans-30" x="127.246094"/>
       <use xlink:href="#DejaVuSans-30" x="190.869141"/>
      </g>
     </g>
    </g>
    <g id="xtick_4">
     <g id="line2d_4">
      <g>
       <use xlink:href="#m9de8ca8f38" x="653.92333" y="448.56" style="stroke: #000000; stroke-width: 0.8"/>
      </g>
     </g>
     <g id="text_4">
      <!-- 3000 -->
      <g transform="translate(641.19833 463.158437) scale(0.1 -0.1)">
       <defs>
        <path id="DejaVuSans-33" d="M 2597 2516 
Q 3050 2419 3304 2112 
Q 3559 1806 3559 1356 
Q 3559 666 3084 287 
Q 2609 -91 1734 -91 
Q 1441 -91 1130 -33 
Q 819 25 488 141 
L 488 750 
Q 750 597 1062 519 
Q 1375 441 1716 441 
Q 2309 441 2620 675 
Q 2931 909 2931 1356 
Q 2931 1769 2642 2001 
Q 2353 2234 1838 2234 
L 1294 2234 
L 1294 2753 
L 1863 2753 
Q 2328 2753 2575 2939 
Q 2822 3125 2822 3475 
Q 2822 3834 2567 4026 
Q 2313 4219 1838 4219 
Q 1578 4219 1281 4162 
Q 984 4106 628 3988 
L 628 4550 
Q 988 4650 1302 4700 
Q 1616 4750 1894 4750 
Q 2613 4750 3031 4423 
Q 3450 4097 3450 3541 
Q 3450 3153 3228 2886 
Q 3006 2619 2597 2516 
z
" transform="scale(0.015625)"/>
       </defs>
       <use xlink:href="#DejaVuSans-33"/>
       <use xlink:href="#DejaVuSans-30" x="63.623047"/>
       <use xlink:href="#DejaVuSans-30" x="127.246094"/>
       <use xlink:href="#DejaVuSans-30" x="190.869141"/>
      </g>
     </g>
    </g>
    <g id="xtick_5">
     <g id="line2d_5">
      <g>
       <use xlink:href="#m9de8ca8f38" x="814.215955" y="448.56" style="stroke: #000000; stroke-width: 0.8"/>
      </g>
     </g>
     <g id="text_5">
      <!-- 4000 -->
      <g transform="translate(801.490955 463.158437) scale(0.1 -0.1)">
       <defs>
        <path id="DejaVuSans-34" d="M 2419 4116 
L 825 1625 
L 2419 1625 
L 2419 4116 
z
M 2253 4666 
L 3047 4666 
L 3047 1625 
L 3713 1625 
L 3713 1100 
L 3047 1100 
L 3047 0 
L 2419 0 
L 2419 1100 
L 313 1100 
L 313 1709 
L 2253 4666 
z
" transform="scale(0.015625)"/>
       </defs>
       <use xlink:href="#DejaVuSans-34"/>
       <use xlink:href="#DejaVuSans-30" x="63.623047"/>
       <use xlink:href="#DejaVuSans-30" x="127.246094"/>
       <use xlink:href="#DejaVuSans-30" x="190.869141"/>
      </g>
     </g>
    </g>
    <g id="text_6">
     <!-- t -->
     <g transform="translate(551.539844 476.836563) scale(0.1 -0.1)">
      <defs>
       <path id="DejaVuSans-74" d="M 1172 4494 
L 1172 3500 
L 2356 3500 
L 2356 3053 
L 1172 3053 
L 1172 1153 
Q 1172 725 1289 603 
Q 1406 481 1766 481 
L 2356 481 
L 2356 0 
L 1766 0 
Q 1100 0 847 248 
Q 594 497 594 1153 
L 594 3053 
L 172 3053 
L 172 3500 
L 594 3500 
L 594 4494 
L 1172 4494 
z
" transform="scale(0.015625)"/>
      </defs>
      <use xlink:href="#DejaVuSans-74"/>
     </g>
    </g>
   </g>
   <g id="matplotlib.axis_2">
    <g id="ytick_1">
     <g id="line2d_6">
      <defs>
       <path id="me02925139d" d="M 0 0 
L -3.5 0 
" style="stroke: #000000; stroke-width: 0.8"/>
      </defs>
      <g>
       <use xlink:href="#me02925139d" x="135" y="428.188039" style="stroke: #000000; stroke-width: 0.8"/>
      </g>
     </g>
     <g id="text_7">
      <!-- −0.2 -->
      <g transform="translate(103.717187 431.987258) scale(0.1 -0.1)">
       <defs>
        <path id="DejaVuSans-2212" d="M 678 2272 
L 4684 2272 
L 4684 1741 
L 678 1741 
L 678 2272 
z
" transform="scale(0.015625)"/>
        <path id="DejaVuSans-2e" d="M 684 794 
L 1344 794 
L 1344 0 
L 684 0 
L 684 794 
z
" transform="scale(0.015625)"/>
       </defs>
       <use xlink:href="#DejaVuSans-2212"/>
       <use xlink:href="#DejaVuSans-30" x="83.789062"/>
       <use xlink:href="#DejaVuSans-2e" x="147.412109"/>
       <use xlink:href="#DejaVuSans-32" x="179.199219"/>
      </g>
     </g>
    </g>
    <g id="ytick_2">
     <g id="line2d_7">
      <g>
       <use xlink:href="#me02925139d" x="135" y="373.440035" style="stroke: #000000; stroke-width: 0.8"/>
      </g>
     </g>
     <g id="text_8">
      <!-- 0.0 -->
      <g transform="translate(112.096875 377.239253) scale(0.1 -0.1)">
       <use xlink:href="#DejaVuSans-30"/>
       <use xlink:href="#DejaVuSans-2e" x="63.623047"/>
       <use xlink:href="#DejaVuSans-30" x="95.410156"/>
      </g>
     </g>
    </g>
    <g id="ytick_3">
     <g id="line2d_8">
      <g>
       <use xlink:href="#me02925139d" x="135" y="318.69203" style="stroke: #000000; stroke-width: 0.8"/>
      </g>
     </g>
     <g id="text_9">
      <!-- 0.2 -->
      <g transform="translate(112.096875 322.491249) scale(0.1 -0.1)">
       <use xlink:href="#DejaVuSans-30"/>
       <use xlink:href="#DejaVuSans-2e" x="63.623047"/>
       <use xlink:href="#DejaVuSans-32" x="95.410156"/>
      </g>
     </g>
    </g>
    <g id="ytick_4">
     <g id="line2d_9">
      <g>
       <use xlink:href="#me02925139d" x="135" y="263.944026" style="stroke: #000000; stroke-width: 0.8"/>
      </g>
     </g>
     <g id="text_10">
      <!-- 0.4 -->
      <g transform="translate(112.096875 267.743245) scale(0.1 -0.1)">
       <use xlink:href="#DejaVuSans-30"/>
       <use xlink:href="#DejaVuSans-2e" x="63.623047"/>
       <use xlink:href="#DejaVuSans-34" x="95.410156"/>
      </g>
     </g>
    </g>
    <g id="ytick_5">
     <g id="line2d_10">
      <g>
       <use xlink:href="#me02925139d" x="135" y="209.196022" style="stroke: #000000; stroke-width: 0.8"/>
      </g>
     </g>
     <g id="text_11">
      <!-- 0.6 -->
      <g transform="translate(112.096875 212.995241) scale(0.1 -0.1)">
       <defs>
        <path id="DejaVuSans-36" d="M 2113 2584 
Q 1688 2584 1439 2293 
Q 1191 2003 1191 1497 
Q 1191 994 1439 701 
Q 1688 409 2113 409 
Q 2538 409 2786 701 
Q 3034 994 3034 1497 
Q 3034 2003 2786 2293 
Q 2538 2584 2113 2584 
z
M 3366 4563 
L 3366 3988 
Q 3128 4100 2886 4159 
Q 2644 4219 2406 4219 
Q 1781 4219 1451 3797 
Q 1122 3375 1075 2522 
Q 1259 2794 1537 2939 
Q 1816 3084 2150 3084 
Q 2853 3084 3261 2657 
Q 3669 2231 3669 1497 
Q 3669 778 3244 343 
Q 2819 -91 2113 -91 
Q 1303 -91 875 529 
Q 447 1150 447 2328 
Q 447 3434 972 4092 
Q 1497 4750 2381 4750 
Q 2619 4750 2861 4703 
Q 3103 4656 3366 4563 
z
" transform="scale(0.015625)"/>
       </defs>
       <use xlink:href="#DejaVuSans-30"/>
       <use xlink:href="#DejaVuSans-2e" x="63.623047"/>
       <use xlink:href="#DejaVuSans-36" x="95.410156"/>
      </g>
     </g>
    </g>
    <g id="ytick_6">
     <g id="line2d_11">
      <g>
       <use xlink:href="#me02925139d" x="135" y="154.448018" style="stroke: #000000; stroke-width: 0.8"/>
      </g>
     </g>
     <g id="text_12">
      <!-- 0.8 -->
      <g transform="translate(112.096875 158.247236) scale(0.1 -0.1)">
       <defs>
        <path id="DejaVuSans-38" d="M 2034 2216 
Q 1584 2216 1326 1975 
Q 1069 1734 1069 1313 
Q 1069 891 1326 650 
Q 1584 409 2034 409 
Q 2484 409 2743 651 
Q 3003 894 3003 1313 
Q 3003 1734 2745 1975 
Q 2488 2216 2034 2216 
z
M 1403 2484 
Q 997 2584 770 2862 
Q 544 3141 544 3541 
Q 544 4100 942 4425 
Q 1341 4750 2034 4750 
Q 2731 4750 3128 4425 
Q 3525 4100 3525 3541 
Q 3525 3141 3298 2862 
Q 3072 2584 2669 2484 
Q 3125 2378 3379 2068 
Q 3634 1759 3634 1313 
Q 3634 634 3220 271 
Q 2806 -91 2034 -91 
Q 1263 -91 848 271 
Q 434 634 434 1313 
Q 434 1759 690 2068 
Q 947 2378 1403 2484 
z
M 1172 3481 
Q 1172 3119 1398 2916 
Q 1625 2713 2034 2713 
Q 2441 2713 2670 2916 
Q 2900 3119 2900 3481 
Q 2900 3844 2670 4047 
Q 2441 4250 2034 4250 
Q 1625 4250 1398 4047 
Q 1172 3844 1172 3481 
z
" transform="scale(0.015625)"/>
       </defs>
       <use xlink:href="#DejaVuSans-30"/>
       <use xlink:href="#DejaVuSans-2e" x="63.623047"/>
       <use xlink:href="#DejaVuSans-38" x="95.410156"/>
      </g>
     </g>
    </g>
    <g id="ytick_7">
     <g id="line2d_12">
      <g>
       <use xlink:href="#me02925139d" x="135" y="99.700013" style="stroke: #000000; stroke-width: 0.8"/>
      </g>
     </g>
     <g id="text_13">
      <!-- 1.0 -->
      <g transform="translate(112.096875 103.499232) scale(0.1 -0.1)">
       <use xlink:href="#DejaVuSans-31"/>
       <use xlink:href="#DejaVuSans-2e" x="63.623047"/>
       <use xlink:href="#DejaVuSans-30" x="95.410156"/>
      </g>
     </g>
    </g>
   </g>
   <g id="line2d_13">
    <path d="M 173.045455 197.266976 
L 173.36604 81.525661 
L 173.526332 78.928158 
L 173.846918 104.113794 
L 174.167503 128.77923 
L 174.488088 139.77982 
L 174.648381 140.849046 
L 174.808673 139.970897 
L 175.770429 128.78226 
L 175.930722 129.279004 
L 176.251307 133.327864 
L 176.571892 141.126412 
L 177.213063 164.776028 
L 177.693941 185.816903 
L 178.014526 379.191143 
L 178.174819 410.121678 
L 178.335111 419.175231 
L 178.495404 416.156035 
L 179.45716 370.073285 
L 179.777745 367.086366 
L 179.938037 367.240567 
L 180.258623 369.550134 
L 180.739501 376.255721 
L 181.220378 386.209035 
L 182.182134 412.747456 
L 182.823305 427.206075 
L 183.14389 430.557747 
L 183.304183 430.92 
L 183.464475 430.319952 
L 183.78506 426.091949 
L 184.105646 417.7917 
L 184.586524 398.25854 
L 185.227694 361.98704 
L 187.311498 234.942308 
L 187.952669 211.22405 
L 188.433547 200.434527 
L 188.754132 196.462905 
L 189.074717 194.873398 
L 189.23501 194.902574 
L 189.395302 195.439282 
L 189.715888 197.900821 
L 190.196765 204.54056 
L 190.837936 217.442601 
L 192.120277 249.84191 
L 193.723203 289.033575 
L 194.845252 310.686424 
L 195.807007 324.938636 
L 196.768763 335.719774 
L 197.730519 343.753602 
L 198.692275 349.75537 
L 199.65403 354.318376 
L 200.615786 357.881409 
L 201.737834 361.165166 
L 202.859883 363.779921 
L 203.981931 365.890804 
L 205.264272 367.809281 
L 206.546613 369.29288 
L 207.828954 370.419432 
L 209.111295 371.258872 
L 210.553929 371.938164 
L 212.156855 372.452232 
L 213.278903 372.703983 
L 213.599489 112.084352 
L 213.759781 80.938599 
L 213.920074 78.375073 
L 214.240659 103.612488 
L 214.561244 128.315729 
L 214.88183 139.346946 
L 215.042122 140.430223 
L 215.202415 139.565777 
L 216.164171 128.460231 
L 216.324463 128.971167 
L 216.645049 133.048256 
L 216.965634 140.87434 
L 217.606804 164.574977 
L 218.087682 185.649341 
L 218.408267 379.038564 
L 218.56856 409.976843 
L 218.728853 419.038188 
L 218.889145 416.026734 
L 219.850901 369.98549 
L 220.171486 367.009627 
L 220.331779 367.168787 
L 220.652364 369.487183 
L 221.133242 376.203543 
L 221.61412 386.165168 
L 222.575876 412.715048 
L 223.217046 427.178891 
L 223.537631 430.532725 
L 223.697924 430.895972 
L 223.858217 430.29687 
L 224.178802 426.070628 
L 224.499387 417.771993 
L 224.980265 398.241028 
L 225.621436 361.972112 
L 227.70524 234.93371 
L 228.34641 211.21687 
L 228.827288 200.428267 
L 229.147873 196.457197 
L 229.468459 194.868195 
L 229.628751 194.897607 
L 229.789044 195.43454 
L 230.109629 197.8965 
L 230.590507 204.5368 
L 231.231677 217.439474 
L 232.514018 249.839735 
L 234.116945 289.032174 
L 235.238993 310.685389 
L 236.200749 324.937838 
L 237.162505 335.71916 
L 238.12426 343.753131 
L 239.086016 349.755009 
L 240.047772 354.3181 
L 241.009528 357.881198 
L 242.131576 361.165011 
L 243.253624 363.779807 
L 244.375673 365.890719 
L 245.658014 367.80922 
L 246.940355 369.292836 
L 248.222696 370.4194 
L 249.505037 371.25885 
L 250.94767 371.938148 
L 252.550597 372.452222 
L 253.99323 372.763312 
L 254.313815 112.135044 
L 254.474108 80.985996 
L 254.634401 78.419741 
L 254.954986 103.652984 
L 255.275571 128.353162 
L 255.596156 139.381887 
L 255.756449 140.464017 
L 255.916742 139.598453 
L 256.878497 128.486146 
L 257.03879 128.995932 
L 257.359375 133.070735 
L 257.679961 140.894593 
L 258.321131 164.591112 
L 258.802009 185.662779 
L 259.122594 379.050791 
L 259.282887 409.988447 
L 259.443179 419.049164 
L 259.603472 416.037087 
L 260.565228 369.992511 
L 260.885813 367.015762 
L 261.046106 367.174524 
L 261.366691 369.492214 
L 261.847569 376.207712 
L 262.328447 386.168673 
L 263.290202 412.717638 
L 263.931373 427.181064 
L 264.251958 430.534725 
L 264.412251 430.897893 
L 264.572543 430.298715 
L 264.893129 426.072333 
L 265.213714 417.773569 
L 265.694592 398.242428 
L 266.335762 361.973305 
L 268.419566 234.934396 
L 269.060737 211.217442 
L 269.541615 200.428766 
L 269.8622 196.457652 
L 270.182785 194.86861 
L 270.343078 194.898002 
L 270.503371 195.434918 
L 270.823956 197.896844 
L 271.304834 204.537099 
L 271.946004 217.439723 
L 273.228345 249.839907 
L 274.831271 289.032285 
L 275.95332 310.685472 
L 276.915076 324.937902 
L 277.876831 335.719209 
L 278.838587 343.753169 
L 279.800343 349.755038 
L 280.762099 354.318122 
L 281.723854 357.881214 
L 282.845903 361.165023 
L 283.967951 363.779816 
L 285.089999 365.890726 
L 286.37234 367.809225 
L 287.654681 369.29284 
L 288.937022 370.419403 
L 290.219363 371.258851 
L 291.661997 371.938149 
L 293.264923 372.452223 
L 293.585509 372.531837 
L 293.906094 111.937199 
L 294.066386 80.800986 
L 294.226679 78.245362 
L 294.547264 103.494872 
L 294.86785 128.207006 
L 295.188435 139.245473 
L 295.348727 140.332084 
L 295.50902 139.470892 
L 296.470776 128.385019 
L 296.631068 128.899301 
L 296.951654 132.983034 
L 297.272239 140.815585 
L 297.913409 164.528181 
L 298.394287 185.61038 
L 298.714873 379.003116 
L 298.875165 409.943208 
L 299.035458 419.006374 
L 299.19575 415.996728 
L 300.157506 369.965152 
L 300.478091 366.991858 
L 300.638384 367.15217 
L 300.958969 369.472615 
L 301.439847 376.191473 
L 301.920725 386.155022 
L 302.882481 412.707549 
L 303.523651 427.172598 
L 303.844237 430.526931 
L 304.004529 430.890408 
L 304.164822 430.291524 
L 304.485407 426.065688 
L 304.805992 417.767427 
L 305.28687 398.23697 
L 305.928041 361.968653 
L 308.011845 234.931721 
L 308.653015 211.215209 
L 309.133893 200.426821 
L 309.454478 196.455879 
L 309.775064 194.866994 
L 309.935356 194.89646 
L 310.095649 195.433446 
L 310.416234 197.895503 
L 310.897112 204.535933 
L 311.538283 217.438754 
L 312.820624 249.839234 
L 314.42355 289.031852 
L 315.545598 310.685152 
L 316.507354 324.937655 
L 317.46911 335.719019 
L 318.430865 343.753023 
L 319.392621 349.754926 
L 320.354377 354.318036 
L 321.316133 357.881149 
L 322.438181 361.164975 
L 323.560229 363.779781 
L 324.682278 365.8907 
L 325.964619 367.809206 
L 327.24696 369.292826 
L 328.529301 370.419393 
L 329.811642 371.258844 
L 331.254275 371.938144 
L 332.857202 372.452219 
L 333.818957 372.672376 
L 334.139543 112.057342 
L 334.299835 80.913343 
L 334.460128 78.351269 
L 334.780713 103.590906 
L 335.101298 128.29578 
L 335.421884 139.328327 
L 335.582176 140.412215 
L 335.742469 139.548365 
L 336.704225 128.446425 
L 336.864517 128.957975 
L 337.185103 133.036282 
L 337.505688 140.863552 
L 338.146858 164.566383 
L 338.627736 185.642186 
L 338.948321 379.032053 
L 339.108614 409.970664 
L 339.268907 419.032344 
L 339.429199 416.021221 
L 340.390955 369.981752 
L 340.71154 367.006361 
L 340.871833 367.165733 
L 341.192418 369.484505 
L 341.673296 376.201325 
L 342.154174 386.163303 
L 343.11593 412.71367 
L 343.7571 427.177735 
L 344.077685 430.53166 
L 344.237978 430.89495 
L 344.398271 430.295887 
L 344.718856 426.06972 
L 345.039441 417.771154 
L 345.520319 398.240282 
L 346.16149 361.971476 
L 348.245294 234.933345 
L 348.886464 211.216565 
L 349.367342 200.428002 
L 349.687927 196.456955 
L 350.008513 194.867975 
L 350.168805 194.897396 
L 350.329098 195.434339 
L 350.649683 197.896317 
L 351.130561 204.536641 
L 351.771731 217.439342 
L 353.054072 249.839642 
L 354.656999 289.032115 
L 355.779047 310.685346 
L 356.740803 324.937805 
L 357.702559 335.719134 
L 358.664314 343.753111 
L 359.62607 349.754994 
L 360.587826 354.318088 
L 361.549582 357.881189 
L 362.67163 361.165004 
L 363.793678 363.779802 
L 364.915727 365.890716 
L 366.198068 367.809218 
L 367.480409 369.292834 
L 368.76275 370.419399 
L 370.045091 371.258849 
L 371.487724 371.938147 
L 373.090651 372.452221 
L 373.411236 111.869106 
L 373.571528 80.737293 
L 373.731821 78.185316 
L 374.212699 117.303895 
L 374.533284 135.373516 
L 374.693577 139.198483 
L 374.853869 140.28664 
L 375.014162 139.426957 
L 375.975918 128.350208 
L 376.13621 128.866042 
L 376.456796 132.952853 
L 376.777381 140.788401 
L 377.418551 164.506536 
L 377.899429 185.592362 
L 378.220015 378.986727 
L 378.380307 409.927658 
L 378.5406 418.991668 
L 378.700892 415.982859 
L 379.662648 369.955756 
L 379.983233 366.983652 
L 380.143526 367.144496 
L 380.464111 369.465888 
L 380.944989 376.1859 
L 381.425867 386.150337 
L 382.387623 412.704087 
L 383.028793 427.169691 
L 383.349379 430.524254 
L 383.509671 430.887837 
L 383.669964 430.289054 
L 383.990549 426.063406 
L 384.311134 417.765317 
L 384.792012 398.235095 
L 385.433183 361.967054 
L 387.516987 234.930801 
L 388.158157 211.214442 
L 388.639035 200.426152 
L 388.95962 196.455269 
L 389.280206 194.866438 
L 389.440498 194.89593 
L 389.600791 195.43294 
L 389.921376 197.895042 
L 390.402254 204.535533 
L 391.043425 217.438421 
L 392.325766 249.839002 
L 393.928692 289.031703 
L 395.05074 310.685042 
L 396.012496 324.937571 
L 396.974252 335.718954 
L 397.936007 343.752973 
L 398.897763 349.754888 
L 399.859519 354.318007 
L 400.821275 357.881127 
L 401.943323 361.164959 
L 403.065371 363.779769 
L 404.18742 365.890691 
L 405.469761 367.8092 
L 406.752102 369.292821 
L 408.034443 370.41939 
L 409.316784 371.258842 
L 410.759417 371.938143 
L 412.362344 372.452218 
L 413.644685 372.734266 
L 413.96527 112.110228 
L 414.125563 80.962793 
L 414.285855 78.397875 
L 414.60644 103.63316 
L 414.927026 128.334838 
L 415.247611 139.364782 
L 415.407904 140.447473 
L 415.568196 139.582457 
L 416.529952 128.473458 
L 416.690245 128.983808 
L 417.01083 133.05973 
L 417.331415 140.884677 
L 417.972586 164.583212 
L 418.453463 185.656199 
L 418.774049 379.044804 
L 418.934341 409.982765 
L 419.094634 419.043789 
L 419.254927 416.032018 
L 420.216682 369.989073 
L 420.537268 367.012757 
L 420.69756 367.171715 
L 421.018145 369.48975 
L 421.499023 376.20567 
L 421.979901 386.166956 
L 422.941657 412.71637 
L 423.582827 427.18 
L 423.903413 430.533746 
L 424.063705 430.896953 
L 424.223998 430.297812 
L 424.544583 426.071498 
L 424.865168 417.772797 
L 425.346046 398.241742 
L 425.987217 361.972721 
L 428.071021 234.93406 
L 428.712191 211.217162 
L 429.193069 200.428522 
L 429.513655 196.457429 
L 429.83424 194.868407 
L 429.994532 194.897809 
L 430.154825 195.434733 
L 430.47541 197.896676 
L 430.956288 204.536953 
L 431.597459 217.439601 
L 432.8798 249.839823 
L 434.482726 289.032231 
L 435.604774 310.685431 
L 436.56653 324.937871 
L 437.528286 335.719185 
L 438.490042 343.75315 
L 439.451797 349.755024 
L 440.413553 354.318111 
L 441.375309 357.881206 
L 442.497357 361.165017 
L 443.619406 363.779812 
L 444.741454 365.890723 
L 446.023795 367.809223 
L 447.306136 369.292838 
L 448.588477 370.419401 
L 449.870818 371.258851 
L 451.313452 371.938149 
L 452.916378 372.452222 
L 453.557548 372.605056 
L 453.878134 111.9998 
L 454.038426 80.859534 
L 454.198719 78.300552 
L 454.519304 103.54492 
L 454.839889 128.253271 
L 455.160475 139.288652 
L 455.320767 140.373843 
L 455.48106 139.511266 
L 456.442816 128.417015 
L 456.603108 128.929873 
L 456.923693 133.010778 
L 457.244279 140.840576 
L 457.885449 164.548083 
L 458.366327 185.626949 
L 458.686912 379.018189 
L 458.847205 409.95751 
L 459.007498 419.019901 
L 459.16779 416.009486 
L 460.129546 369.973797 
L 460.450131 366.999411 
L 460.610424 367.159233 
L 460.931009 369.478807 
L 461.411887 376.196603 
L 461.892765 386.159334 
L 462.854521 412.710736 
L 463.495691 427.175273 
L 463.816276 430.529394 
L 463.976569 430.892773 
L 464.136862 430.293796 
L 464.457447 426.067788 
L 464.778032 417.769368 
L 465.25891 398.238695 
L 465.90008 361.970123 
L 467.983885 234.932567 
L 468.625055 211.215915 
L 469.105933 200.427436 
L 469.426518 196.456439 
L 469.747103 194.867505 
L 469.907396 194.896948 
L 470.067689 195.433911 
L 470.388274 197.895927 
L 470.869152 204.536302 
L 471.510322 217.43906 
L 472.792663 249.839447 
L 474.39559 289.031989 
L 475.517638 310.685253 
L 476.479394 324.937733 
L 477.441149 335.719079 
L 478.402905 343.753069 
L 479.364661 349.754962 
L 480.326417 354.318063 
L 481.288172 357.88117 
L 482.410221 361.16499 
L 483.532269 363.779792 
L 484.654318 365.890708 
L 485.936659 367.809212 
L 487.219 369.29283 
L 488.501341 370.419396 
L 489.783682 371.258847 
L 491.226315 371.938146 
L 492.829241 372.45222 
L 493.630705 372.639423 
L 493.95129 112.029177 
L 494.111582 80.887006 
L 494.271875 78.326446 
L 494.59246 103.568399 
L 494.913046 128.274975 
L 495.233631 139.308909 
L 495.393923 140.393434 
L 495.554216 139.530207 
L 496.515972 128.43203 
L 496.676264 128.94422 
L 496.99685 133.023798 
L 497.317435 140.852305 
L 497.958605 164.557425 
L 498.439483 185.634727 
L 498.760069 379.025266 
L 498.920361 409.964224 
L 499.080654 419.026252 
L 499.240946 416.015476 
L 500.202702 369.977857 
L 500.523287 367.002958 
L 500.68358 367.16255 
L 501.004165 369.481715 
L 501.485043 376.199013 
L 501.965921 386.16136 
L 502.927677 412.712234 
L 503.568847 427.176529 
L 503.889433 430.53055 
L 504.049725 430.893884 
L 504.210018 430.294863 
L 504.530603 426.068774 
L 504.851188 417.77028 
L 505.332066 398.239505 
L 505.973237 361.970814 
L 508.057041 234.932964 
L 508.698211 211.216247 
L 509.179089 200.427725 
L 509.499674 196.456703 
L 509.82026 194.867745 
L 509.980552 194.897177 
L 510.140845 195.43413 
L 510.46143 197.896126 
L 510.942308 204.536475 
L 511.583479 217.439204 
L 512.86582 249.839547 
L 514.468746 289.032053 
L 515.590794 310.6853 
L 516.55255 324.93777 
L 517.514306 335.719107 
L 518.476061 343.753091 
L 519.437817 349.754978 
L 520.399573 354.318076 
L 521.361329 357.881179 
L 522.483377 361.164997 
L 523.605425 363.779797 
L 524.727474 365.890712 
L 526.009815 367.809215 
L 527.292156 369.292832 
L 528.574497 370.419397 
L 529.856838 371.258848 
L 531.299471 371.938147 
L 532.902398 372.452221 
L 533.864153 372.672377 
L 534.184739 112.057343 
L 534.345031 80.913344 
L 534.505324 78.35127 
L 534.825909 103.590907 
L 535.146494 128.29578 
L 535.46708 139.328328 
L 535.627372 140.412215 
L 535.787665 139.548365 
L 536.749421 128.446425 
L 536.909713 128.957975 
L 537.230299 133.036283 
L 537.550884 140.863552 
L 538.192054 164.566384 
L 538.672932 185.642186 
L 538.993517 379.032053 
L 539.15381 409.970665 
L 539.314103 419.032344 
L 539.474395 416.021222 
L 540.436151 369.981752 
L 540.756736 367.006361 
L 540.917029 367.165733 
L 541.237614 369.484505 
L 541.718492 376.201325 
L 542.19937 386.163303 
L 543.161126 412.71367 
L 543.802296 427.177735 
L 544.122881 430.53166 
L 544.283174 430.89495 
L 544.443467 430.295887 
L 544.764052 426.06972 
L 545.084637 417.771154 
L 545.565515 398.240282 
L 546.206686 361.971476 
L 548.29049 234.933345 
L 548.93166 211.216565 
L 549.412538 200.428002 
L 549.733123 196.456955 
L 550.053709 194.867975 
L 550.214001 194.897396 
L 550.374294 195.434339 
L 550.694879 197.896317 
L 551.175757 204.536641 
L 551.816927 217.439342 
L 553.099268 249.839642 
L 554.702195 289.032115 
L 555.824243 310.685346 
L 556.785999 324.937805 
L 557.747755 335.719134 
L 558.70951 343.753111 
L 559.671266 349.754994 
L 560.633022 354.318088 
L 561.594778 357.881189 
L 562.716826 361.165004 
L 563.838874 363.779802 
L 564.960923 365.890716 
L 566.243264 367.809218 
L 567.525605 369.292834 
L 568.807946 370.419399 
L 570.090287 371.258849 
L 571.53292 371.938147 
L 573.135847 372.452221 
L 574.257895 372.703974 
L 574.57848 112.084345 
L 574.738773 80.938592 
L 574.899065 78.375066 
L 575.219651 103.612482 
L 575.540236 128.315723 
L 575.860821 139.346942 
L 576.021114 140.430218 
L 576.181406 139.565772 
L 577.143162 128.460227 
L 577.303455 128.971164 
L 577.62404 133.048253 
L 577.944625 140.874337 
L 578.585796 164.574974 
L 579.066674 185.649339 
L 579.387259 379.038562 
L 579.547552 409.976841 
L 579.707844 419.038186 
L 579.868137 416.026732 
L 580.829893 369.985489 
L 581.150478 367.009626 
L 581.31077 367.168786 
L 581.631356 369.487182 
L 582.112234 376.203543 
L 582.593111 386.165168 
L 583.554867 412.715048 
L 584.196038 427.178891 
L 584.516623 430.532725 
L 584.676916 430.895972 
L 584.837208 430.29687 
L 585.157793 426.070627 
L 585.478379 417.771993 
L 585.959257 398.241028 
L 586.600427 361.972111 
L 588.684231 234.93371 
L 589.325402 211.216869 
L 589.80628 200.428267 
L 590.126865 196.457197 
L 590.44745 194.868195 
L 590.607743 194.897607 
L 590.768035 195.43454 
L 591.088621 197.8965 
L 591.569498 204.5368 
L 592.210669 217.439474 
L 593.49301 249.839734 
L 595.095936 289.032174 
L 596.217985 310.685389 
L 597.17974 324.937838 
L 598.141496 335.71916 
L 599.103252 343.753131 
L 600.065008 349.755009 
L 601.026763 354.3181 
L 601.988519 357.881198 
L 603.110567 361.165011 
L 604.232616 363.779807 
L 605.354664 365.890719 
L 606.637005 367.80922 
L 607.919346 369.292836 
L 609.201687 370.4194 
L 610.484028 371.25885 
L 611.926662 371.938148 
L 613.209003 372.365676 
L 613.529588 111.79506 
L 613.689881 80.66802 
L 613.850173 78.12 
L 614.331051 117.24702 
L 614.651636 135.320623 
L 614.811929 139.147351 
L 614.972222 140.237191 
L 615.132514 139.37915 
L 616.09427 128.312338 
L 616.254563 128.82986 
L 616.575148 132.920024 
L 616.895733 140.758834 
L 617.536904 164.482997 
L 618.017782 185.57277 
L 618.338367 378.968907 
L 618.498659 409.910752 
L 618.658952 418.97568 
L 618.819245 415.967782 
L 619.781 369.945546 
L 620.101586 366.974734 
L 620.261878 367.136157 
L 620.582464 369.45858 
L 621.063341 376.179846 
L 621.544219 386.145249 
L 622.505975 412.700325 
L 623.147146 427.166533 
L 623.467731 430.521346 
L 623.628023 430.885044 
L 623.788316 430.28637 
L 624.108901 426.060926 
L 624.429487 417.763024 
L 624.910364 398.233056 
L 625.551535 361.965315 
L 627.635339 234.929801 
L 628.27651 211.213607 
L 628.757387 200.425425 
L 629.077973 196.454606 
L 629.398558 194.865834 
L 629.558851 194.895354 
L 629.719143 195.43239 
L 630.039728 197.894541 
L 630.520606 204.535097 
L 631.161777 217.438059 
L 632.444118 249.838751 
L 634.047044 289.031541 
L 635.169092 310.684923 
L 636.130848 324.937479 
L 637.092604 335.718883 
L 638.05436 343.752919 
L 639.016115 349.754847 
L 639.977871 354.317975 
L 640.939627 357.881102 
L 642.061675 361.164941 
L 643.183724 363.779755 
L 644.305772 365.890681 
L 645.588113 367.809193 
L 646.870454 369.292816 
L 648.152795 370.419386 
L 649.435136 371.258839 
L 650.87777 371.938141 
L 652.480696 372.452217 
L 653.92333 372.763309 
L 654.243915 112.135042 
L 654.404207 80.985993 
L 654.5645 78.419739 
L 654.885085 103.652982 
L 655.205671 128.35316 
L 655.526256 139.381885 
L 655.686548 140.464015 
L 655.846841 139.598451 
L 656.808597 128.486145 
L 656.968889 128.995931 
L 657.289475 133.070734 
L 657.61006 140.894592 
L 658.25123 164.591111 
L 658.732108 185.662778 
L 659.052694 379.050791 
L 659.212986 409.988446 
L 659.373279 419.049164 
L 659.533571 416.037087 
L 660.495327 369.992511 
L 660.815912 367.015761 
L 660.976205 367.174524 
L 661.29679 369.492213 
L 661.777668 376.207712 
L 662.258546 386.168672 
L 663.220302 412.717638 
L 663.861472 427.181064 
L 664.182058 430.534725 
L 664.34235 430.897893 
L 664.502643 430.298715 
L 664.823228 426.072332 
L 665.143813 417.773569 
L 665.624691 398.242428 
L 666.265862 361.973305 
L 668.349666 234.934396 
L 668.990836 211.217442 
L 669.471714 200.428766 
L 669.792299 196.457652 
L 670.112885 194.86861 
L 670.273177 194.898002 
L 670.43347 195.434918 
L 670.754055 197.896844 
L 671.234933 204.537099 
L 671.876104 217.439723 
L 673.158445 249.839907 
L 674.761371 289.032285 
L 675.883419 310.685472 
L 676.845175 324.937902 
L 677.806931 335.719209 
L 678.768686 343.753169 
L 679.730442 349.755038 
L 680.692198 354.318122 
L 681.653954 357.881214 
L 682.776002 361.165023 
L 683.89805 363.779816 
L 685.020099 365.890726 
L 686.30244 367.809225 
L 687.584781 369.29284 
L 688.867122 370.419403 
L 690.149463 371.258851 
L 691.592096 371.938149 
L 693.195023 372.452223 
L 694.156778 372.672379 
L 694.477364 112.057344 
L 694.637656 80.913345 
L 694.797949 78.351271 
L 695.118534 103.590908 
L 695.439119 128.295781 
L 695.759705 139.328329 
L 695.919997 140.412216 
L 696.08029 139.548366 
L 697.042046 128.446426 
L 697.202338 128.957976 
L 697.522924 133.036283 
L 697.843509 140.863553 
L 698.484679 164.566384 
L 698.965557 185.642186 
L 699.286142 379.032053 
L 699.446435 409.970665 
L 699.606728 419.032344 
L 699.76702 416.021222 
L 700.728776 369.981753 
L 701.049361 367.006361 
L 701.209654 367.165733 
L 701.530239 369.484506 
L 702.011117 376.201325 
L 702.491995 386.163303 
L 703.453751 412.71367 
L 704.094921 427.177735 
L 704.415506 430.53166 
L 704.575799 430.89495 
L 704.736092 430.295887 
L 705.056677 426.06972 
L 705.377262 417.771154 
L 705.85814 398.240282 
L 706.499311 361.971476 
L 708.583115 234.933345 
L 709.224285 211.216565 
L 709.705163 200.428002 
L 710.025748 196.456955 
L 710.346334 194.867975 
L 710.506626 194.897396 
L 710.666919 195.434339 
L 710.987504 197.896317 
L 711.468382 204.536641 
L 712.109552 217.439342 
L 713.391893 249.839642 
L 714.99482 289.032115 
L 716.116868 310.685346 
L 717.078624 324.937805 
L 718.04038 335.719134 
L 719.002135 343.753111 
L 719.963891 349.754994 
L 720.925647 354.318088 
L 721.887403 357.881189 
L 723.009451 361.165004 
L 724.131499 363.779802 
L 725.253548 365.890716 
L 726.535889 367.809218 
L 727.81823 369.292834 
L 729.100571 370.419399 
L 730.382912 371.258849 
L 731.825545 371.938147 
L 733.428472 372.452221 
L 734.069642 372.605055 
L 734.390227 111.9998 
L 734.55052 80.859533 
L 734.710813 78.300551 
L 735.031398 103.544919 
L 735.351983 128.25327 
L 735.672568 139.288652 
L 735.832861 140.373843 
L 735.993154 139.511265 
L 736.954909 128.417015 
L 737.115202 128.929873 
L 737.435787 133.010777 
L 737.756372 140.840576 
L 738.397543 164.548083 
L 738.878421 185.626948 
L 739.199006 379.018189 
L 739.359299 409.95751 
L 739.519591 419.019901 
L 739.679884 416.009486 
L 740.64164 369.973797 
L 740.962225 366.999411 
L 741.122518 367.159233 
L 741.443103 369.478807 
L 741.923981 376.196603 
L 742.404859 386.159334 
L 743.366614 412.710736 
L 744.007785 427.175273 
L 744.32837 430.529394 
L 744.488663 430.892773 
L 744.648955 430.293796 
L 744.969541 426.067788 
L 745.290126 417.769368 
L 745.771004 398.238695 
L 746.412174 361.970123 
L 748.495978 234.932567 
L 749.137149 211.215915 
L 749.618027 200.427436 
L 749.938612 196.456439 
L 750.259197 194.867505 
L 750.41949 194.896948 
L 750.579782 195.433911 
L 750.900368 197.895927 
L 751.381246 204.536302 
L 752.022416 217.43906 
L 753.304757 249.839447 
L 754.907683 289.031989 
L 756.029732 310.685253 
L 756.991487 324.937733 
L 757.953243 335.719079 
L 758.914999 343.753069 
L 759.876755 349.754962 
L 760.83851 354.318063 
L 761.800266 357.88117 
L 762.922315 361.16499 
L 764.044363 363.779792 
L 765.166411 365.890708 
L 766.448752 367.809212 
L 767.731093 369.29283 
L 769.013434 370.419396 
L 770.295775 371.258847 
L 771.738409 371.938146 
L 773.341335 372.45222 
L 773.822213 372.569212 
L 774.142798 111.969157 
L 774.303091 80.830875 
L 774.463384 78.273538 
L 774.783969 103.520423 
L 775.104554 128.230626 
L 775.425139 139.267518 
L 775.585432 140.353404 
L 775.745725 139.491504 
L 776.70748 128.401353 
L 776.867773 128.914908 
L 777.188358 132.997197 
L 777.508943 140.828343 
L 778.150114 164.53834 
L 778.630992 185.618837 
L 778.951577 379.01081 
L 779.11187 409.950508 
L 779.272162 419.013278 
L 779.432455 416.00324 
L 780.394211 369.969564 
L 780.714796 366.995713 
L 780.875089 367.155775 
L 781.195674 369.475775 
L 781.676552 376.194091 
L 782.15743 386.157222 
L 783.119185 412.709176 
L 783.760356 427.173963 
L 784.080941 430.528188 
L 784.241234 430.891615 
L 784.401526 430.292683 
L 784.722112 426.06676 
L 785.042697 417.768418 
L 785.523575 398.23785 
L 786.164745 361.969403 
L 788.248549 234.932153 
L 788.88972 211.21557 
L 789.370598 200.427135 
L 789.691183 196.456165 
L 790.011768 194.867255 
L 790.172061 194.896709 
L 790.332353 195.433683 
L 790.652939 197.89572 
L 791.133817 204.536122 
L 791.774987 217.43891 
L 793.057328 249.839342 
L 794.660254 289.031922 
L 795.782303 310.685203 
L 796.744058 324.937695 
L 797.705814 335.71905 
L 798.66757 343.753046 
L 799.629326 349.754944 
L 800.591081 354.31805 
L 801.552837 357.88116 
L 802.674886 361.164983 
L 803.796934 363.779787 
L 804.918982 365.890704 
L 806.201323 367.809209 
L 807.483664 369.292828 
L 808.766005 370.419395 
L 810.048346 371.258845 
L 811.49098 371.938145 
L 813.093906 372.45222 
L 813.414491 372.531835 
L 813.735077 111.937197 
L 813.895369 80.800984 
L 814.055662 78.24536 
L 814.376247 103.49487 
L 814.696832 128.207004 
L 815.017418 139.245472 
L 815.17771 140.332083 
L 815.338003 139.470891 
L 816.299759 128.385018 
L 816.460051 128.8993 
L 816.780637 132.983033 
L 817.101222 140.815584 
L 817.742392 164.52818 
L 818.22327 185.610379 
L 818.543855 379.003115 
L 818.704148 409.943207 
L 818.864441 419.006373 
L 819.024733 415.996727 
L 819.986489 369.965151 
L 820.307074 366.991858 
L 820.467367 367.15217 
L 820.787952 369.472615 
L 821.26883 376.191473 
L 821.749708 386.155022 
L 822.711464 412.707549 
L 823.352634 427.172598 
L 823.673219 430.526931 
L 823.833512 430.890408 
L 823.993805 430.291523 
L 824.31439 426.065688 
L 824.634975 417.767427 
L 825.115853 398.23697 
L 825.757024 361.968652 
L 827.840828 234.931721 
L 828.481998 211.215209 
L 828.962876 200.426821 
L 829.283461 196.455879 
L 829.604047 194.866994 
L 829.764339 194.89646 
L 829.924632 195.433446 
L 830.245217 197.895503 
L 830.726095 204.535933 
L 831.367265 217.438754 
L 832.649606 249.839234 
L 834.252533 289.031852 
L 835.374581 310.685152 
L 836.336337 324.937655 
L 837.298093 335.719019 
L 838.259848 343.753023 
L 839.221604 349.754926 
L 840.18336 354.318036 
L 841.145116 357.881149 
L 842.267164 361.164975 
L 843.389212 363.779781 
L 844.511261 365.8907 
L 845.793602 367.809206 
L 847.075943 369.292826 
L 848.358284 370.419393 
L 849.640625 371.258844 
L 851.083258 371.938144 
L 852.686185 372.452219 
L 854.609696 372.843443 
L 854.930281 112.203492 
L 855.090574 81.049987 
L 855.250867 78.480044 
L 855.571452 103.707651 
L 855.892037 128.403695 
L 856.212622 139.429058 
L 856.372915 140.509644 
L 856.533208 139.642573 
L 857.494963 128.521152 
L 857.655256 129.029386 
L 857.975841 133.101105 
L 858.296426 140.921958 
L 858.937597 164.612919 
L 859.418475 185.680941 
L 859.73906 379.067321 
L 859.899353 410.004133 
L 860.059645 419.064004 
L 860.219938 416.051086 
L 861.181694 370.002007 
L 861.502279 367.02406 
L 861.662572 367.182286 
L 861.983157 369.499019 
L 862.464035 376.213352 
L 862.944913 386.173414 
L 863.906668 412.721141 
L 864.547839 427.184003 
L 864.868424 430.537431 
L 865.028717 430.900491 
L 865.189009 430.301211 
L 865.509595 426.074638 
L 865.83018 417.7757 
L 866.311058 398.244321 
L 866.952228 361.974919 
L 869.036032 234.935324 
L 869.677203 211.218217 
L 870.158081 200.429441 
L 870.478666 196.458267 
L 870.799251 194.86917 
L 870.959544 194.898537 
L 871.119836 195.435428 
L 871.440422 197.897309 
L 871.9213 204.537504 
L 872.56247 217.440059 
L 873.844811 249.840141 
L 875.447737 289.032436 
L 876.569786 310.685583 
L 877.531541 324.937987 
L 878.493297 335.719275 
L 879.455053 343.753219 
L 880.416809 349.755077 
L 881.378564 354.318151 
L 882.34032 357.881237 
L 883.462369 361.16504 
L 884.584417 363.779828 
L 885.706465 365.890735 
L 886.988806 367.809231 
L 888.271147 369.292844 
L 889.553488 370.419406 
L 890.835829 371.258854 
L 892.278463 371.938151 
L 893.881389 372.452224 
L 894.362267 372.569215 
L 894.682852 111.969159 
L 894.843145 80.830877 
L 895.003438 78.27354 
L 895.324023 103.520426 
L 895.644608 128.230628 
L 895.965193 139.26752 
L 896.125486 140.353406 
L 896.285779 139.491506 
L 897.247534 128.401355 
L 897.407827 128.91491 
L 897.728412 132.997198 
L 898.048997 140.828344 
L 898.690168 164.538341 
L 899.171046 185.618838 
L 899.491631 379.01081 
L 899.651924 409.950508 
L 899.812216 419.013279 
L 899.972509 416.00324 
L 900.934265 369.969564 
L 901.25485 366.995713 
L 901.415143 367.155775 
L 901.735728 369.475776 
L 902.216606 376.194091 
L 902.697484 386.157223 
L 903.659239 412.709176 
L 904.30041 427.173963 
L 904.620995 430.528188 
L 904.781288 430.891615 
L 904.94158 430.292684 
L 905.262166 426.06676 
L 905.582751 417.768418 
L 906.063629 398.237851 
L 906.704799 361.969403 
L 908.788603 234.932153 
L 909.429774 211.21557 
L 909.910652 200.427135 
L 910.231237 196.456165 
L 910.551822 194.867255 
L 910.712115 194.896709 
L 910.872407 195.433683 
L 911.192993 197.89572 
L 911.673871 204.536122 
L 912.315041 217.43891 
L 913.597382 249.839342 
L 915.200308 289.031922 
L 916.322357 310.685203 
L 917.284112 324.937695 
L 918.245868 335.71905 
L 919.207624 343.753046 
L 920.16938 349.754944 
L 921.131135 354.31805 
L 922.092891 357.88116 
L 923.21494 361.164983 
L 924.336988 363.779787 
L 925.459036 365.890704 
L 926.741377 367.809209 
L 928.023718 369.292828 
L 929.306059 370.419395 
L 930.5884 371.258845 
L 932.031034 371.938145 
L 933.63396 372.45222 
L 933.794253 372.492859 
L 933.954545 196.394861 
L 933.954545 196.394861 
" clip-path="url(#p4537988600)" style="fill: none; stroke: #1f77b4; stroke-width: 1.5; stroke-linecap: square"/>
   </g>
   <g id="line2d_14">
    <path d="M 173.045455 99.700013 
L 177.693941 99.700013 
L 177.854233 373.440035 
L 213.278903 373.440035 
L 213.439196 99.700013 
L 218.087682 99.700013 
L 218.247975 373.440035 
L 253.99323 373.440035 
L 254.153523 99.700013 
L 258.802009 99.700013 
L 258.962302 373.440035 
L 293.585509 373.440035 
L 293.745801 99.700013 
L 298.394287 99.700013 
L 298.55458 373.440035 
L 333.818957 373.440035 
L 333.97925 99.700013 
L 338.627736 99.700013 
L 338.788029 373.440035 
L 373.090651 373.440035 
L 373.250943 99.700013 
L 377.899429 99.700013 
L 378.059722 373.440035 
L 413.644685 373.440035 
L 413.804977 99.700013 
L 418.453463 99.700013 
L 418.613756 373.440035 
L 453.557548 373.440035 
L 453.717841 99.700013 
L 458.366327 99.700013 
L 458.52662 373.440035 
L 493.630705 373.440035 
L 493.790997 99.700013 
L 498.439483 99.700013 
L 498.599776 373.440035 
L 533.864153 373.440035 
L 534.024446 99.700013 
L 538.672932 99.700013 
L 538.833225 373.440035 
L 574.257895 373.440035 
L 574.418188 99.700013 
L 579.066674 99.700013 
L 579.226966 373.440035 
L 613.209003 373.440035 
L 613.369295 99.700013 
L 618.017782 99.700013 
L 618.178074 373.440035 
L 653.92333 373.440035 
L 654.083622 99.700013 
L 658.732108 99.700013 
L 658.892401 373.440035 
L 694.156778 373.440035 
L 694.317071 99.700013 
L 698.965557 99.700013 
L 699.12585 373.440035 
L 734.069642 373.440035 
L 734.229935 99.700013 
L 738.878421 99.700013 
L 739.038713 373.440035 
L 773.822213 373.440035 
L 773.982506 99.700013 
L 778.630992 99.700013 
L 778.791284 373.440035 
L 813.414491 373.440035 
L 813.574784 99.700013 
L 818.22327 99.700013 
L 818.383563 373.440035 
L 854.609696 373.440035 
L 854.769989 99.700013 
L 859.418475 99.700013 
L 859.578767 373.440035 
L 894.362267 373.440035 
L 894.52256 99.700013 
L 899.171046 99.700013 
L 899.331338 373.440035 
L 933.794253 373.440035 
L 933.954545 99.700013 
L 933.954545 99.700013 
" clip-path="url(#p4537988600)" style="fill: none; stroke: #ff7f0e; stroke-width: 1.5; stroke-linecap: square"/>
   </g>
   <g id="line2d_15">
    <path d="M 929.466352 373.440035 
" clip-path="url(#p4537988600)" style="fill: none; stroke: #000000; stroke-width: 1.5; stroke-linecap: square"/>
    <defs>
     <path id="m77c9517612" d="M 0 1 
C 0.265203 1 0.51958 0.894634 0.707107 0.707107 
C 0.894634 0.51958 1 0.265203 1 0 
C 1 -0.265203 0.894634 -0.51958 0.707107 -0.707107 
C 0.51958 -0.894634 0.265203 -1 0 -1 
C -0.265203 -1 -0.51958 -0.894634 -0.707107 -0.707107 
C -0.894634 -0.51958 -1 -0.265203 -1 0 
C -1 0.265203 -0.894634 0.51958 -0.707107 0.707107 
C -0.51958 0.894634 -0.265203 1 0 1 
z
" style="stroke: #000000"/>
    </defs>
    <g clip-path="url(#p4537988600)">
     <use xlink:href="#m77c9517612" x="173.045455" y="99.700013" style="stroke: #000000"/>
     <use xlink:href="#m77c9517612" x="178.174819" y="373.440035" style="stroke: #000000"/>
     <use xlink:href="#m77c9517612" x="183.14389" y="373.440035" style="stroke: #000000"/>
     <use xlink:href="#m77c9517612" x="188.112961" y="99.700013" style="stroke: #000000"/>
     <use xlink:href="#m77c9517612" x="193.082033" y="373.440035" style="stroke: #000000"/>
     <use xlink:href="#m77c9517612" x="198.211397" y="373.440035" style="stroke: #000000"/>
     <use xlink:href="#m77c9517612" x="203.180468" y="99.700013" style="stroke: #000000"/>
     <use xlink:href="#m77c9517612" x="208.149539" y="373.440035" style="stroke: #000000"/>
     <use xlink:href="#m77c9517612" x="213.118611" y="99.700013" style="stroke: #000000"/>
     <use xlink:href="#m77c9517612" x="218.247975" y="373.440035" style="stroke: #000000"/>
     <use xlink:href="#m77c9517612" x="223.217046" y="373.440035" style="stroke: #000000"/>
     <use xlink:href="#m77c9517612" x="228.186118" y="99.700013" style="stroke: #000000"/>
     <use xlink:href="#m77c9517612" x="233.155189" y="373.440035" style="stroke: #000000"/>
     <use xlink:href="#m77c9517612" x="238.284553" y="373.440035" style="stroke: #000000"/>
     <use xlink:href="#m77c9517612" x="243.253624" y="99.700013" style="stroke: #000000"/>
     <use xlink:href="#m77c9517612" x="248.222696" y="373.440035" style="stroke: #000000"/>
     <use xlink:href="#m77c9517612" x="253.191767" y="99.700013" style="stroke: #000000"/>
     <use xlink:href="#m77c9517612" x="258.321131" y="373.440035" style="stroke: #000000"/>
     <use xlink:href="#m77c9517612" x="263.290202" y="373.440035" style="stroke: #000000"/>
     <use xlink:href="#m77c9517612" x="268.259274" y="99.700013" style="stroke: #000000"/>
     <use xlink:href="#m77c9517612" x="273.228345" y="373.440035" style="stroke: #000000"/>
     <use xlink:href="#m77c9517612" x="278.357709" y="373.440035" style="stroke: #000000"/>
     <use xlink:href="#m77c9517612" x="283.326781" y="99.700013" style="stroke: #000000"/>
     <use xlink:href="#m77c9517612" x="288.295852" y="373.440035" style="stroke: #000000"/>
     <use xlink:href="#m77c9517612" x="293.264923" y="99.700013" style="stroke: #000000"/>
     <use xlink:href="#m77c9517612" x="298.394287" y="373.440035" style="stroke: #000000"/>
     <use xlink:href="#m77c9517612" x="303.363359" y="373.440035" style="stroke: #000000"/>
     <use xlink:href="#m77c9517612" x="308.33243" y="99.700013" style="stroke: #000000"/>
     <use xlink:href="#m77c9517612" x="313.301501" y="373.440035" style="stroke: #000000"/>
     <use xlink:href="#m77c9517612" x="318.430865" y="373.440035" style="stroke: #000000"/>
     <use xlink:href="#m77c9517612" x="323.399937" y="99.700013" style="stroke: #000000"/>
     <use xlink:href="#m77c9517612" x="328.369008" y="373.440035" style="stroke: #000000"/>
     <use xlink:href="#m77c9517612" x="333.33808" y="99.700013" style="stroke: #000000"/>
     <use xlink:href="#m77c9517612" x="338.467444" y="373.440035" style="stroke: #000000"/>
     <use xlink:href="#m77c9517612" x="343.436515" y="373.440035" style="stroke: #000000"/>
     <use xlink:href="#m77c9517612" x="348.405586" y="99.700013" style="stroke: #000000"/>
     <use xlink:href="#m77c9517612" x="353.374658" y="373.440035" style="stroke: #000000"/>
     <use xlink:href="#m77c9517612" x="358.504022" y="373.440035" style="stroke: #000000"/>
     <use xlink:href="#m77c9517612" x="363.473093" y="99.700013" style="stroke: #000000"/>
     <use xlink:href="#m77c9517612" x="368.442164" y="373.440035" style="stroke: #000000"/>
     <use xlink:href="#m77c9517612" x="373.411236" y="99.700013" style="stroke: #000000"/>
     <use xlink:href="#m77c9517612" x="378.5406" y="373.440035" style="stroke: #000000"/>
     <use xlink:href="#m77c9517612" x="383.509671" y="373.440035" style="stroke: #000000"/>
     <use xlink:href="#m77c9517612" x="388.478743" y="99.700013" style="stroke: #000000"/>
     <use xlink:href="#m77c9517612" x="393.447814" y="373.440035" style="stroke: #000000"/>
     <use xlink:href="#m77c9517612" x="398.577178" y="373.440035" style="stroke: #000000"/>
     <use xlink:href="#m77c9517612" x="403.546249" y="99.700013" style="stroke: #000000"/>
     <use xlink:href="#m77c9517612" x="408.515321" y="373.440035" style="stroke: #000000"/>
     <use xlink:href="#m77c9517612" x="413.484392" y="99.700013" style="stroke: #000000"/>
     <use xlink:href="#m77c9517612" x="418.613756" y="373.440035" style="stroke: #000000"/>
     <use xlink:href="#m77c9517612" x="423.582827" y="373.440035" style="stroke: #000000"/>
     <use xlink:href="#m77c9517612" x="428.551899" y="99.700013" style="stroke: #000000"/>
     <use xlink:href="#m77c9517612" x="433.52097" y="373.440035" style="stroke: #000000"/>
     <use xlink:href="#m77c9517612" x="438.650334" y="373.440035" style="stroke: #000000"/>
     <use xlink:href="#m77c9517612" x="443.619406" y="99.700013" style="stroke: #000000"/>
     <use xlink:href="#m77c9517612" x="448.588477" y="373.440035" style="stroke: #000000"/>
     <use xlink:href="#m77c9517612" x="453.557548" y="99.700013" style="stroke: #000000"/>
     <use xlink:href="#m77c9517612" x="458.686912" y="373.440035" style="stroke: #000000"/>
     <use xlink:href="#m77c9517612" x="463.655984" y="373.440035" style="stroke: #000000"/>
     <use xlink:href="#m77c9517612" x="468.625055" y="99.700013" style="stroke: #000000"/>
     <use xlink:href="#m77c9517612" x="473.594126" y="373.440035" style="stroke: #000000"/>
     <use xlink:href="#m77c9517612" x="478.72349" y="373.440035" style="stroke: #000000"/>
     <use xlink:href="#m77c9517612" x="483.692562" y="99.700013" style="stroke: #000000"/>
     <use xlink:href="#m77c9517612" x="488.661633" y="373.440035" style="stroke: #000000"/>
     <use xlink:href="#m77c9517612" x="493.630705" y="99.700013" style="stroke: #000000"/>
     <use xlink:href="#m77c9517612" x="498.760069" y="373.440035" style="stroke: #000000"/>
     <use xlink:href="#m77c9517612" x="503.72914" y="373.440035" style="stroke: #000000"/>
     <use xlink:href="#m77c9517612" x="508.698211" y="99.700013" style="stroke: #000000"/>
     <use xlink:href="#m77c9517612" x="513.667283" y="373.440035" style="stroke: #000000"/>
     <use xlink:href="#m77c9517612" x="518.796647" y="373.440035" style="stroke: #000000"/>
     <use xlink:href="#m77c9517612" x="523.765718" y="99.700013" style="stroke: #000000"/>
     <use xlink:href="#m77c9517612" x="528.734789" y="373.440035" style="stroke: #000000"/>
     <use xlink:href="#m77c9517612" x="533.703861" y="99.700013" style="stroke: #000000"/>
     <use xlink:href="#m77c9517612" x="538.833225" y="373.440035" style="stroke: #000000"/>
     <use xlink:href="#m77c9517612" x="543.802296" y="373.440035" style="stroke: #000000"/>
     <use xlink:href="#m77c9517612" x="548.771368" y="99.700013" style="stroke: #000000"/>
     <use xlink:href="#m77c9517612" x="553.740439" y="373.440035" style="stroke: #000000"/>
     <use xlink:href="#m77c9517612" x="558.869803" y="373.440035" style="stroke: #000000"/>
     <use xlink:href="#m77c9517612" x="563.838874" y="99.700013" style="stroke: #000000"/>
     <use xlink:href="#m77c9517612" x="568.807946" y="373.440035" style="stroke: #000000"/>
     <use xlink:href="#m77c9517612" x="573.777017" y="99.700013" style="stroke: #000000"/>
     <use xlink:href="#m77c9517612" x="578.906381" y="373.440035" style="stroke: #000000"/>
     <use xlink:href="#m77c9517612" x="583.875452" y="373.440035" style="stroke: #000000"/>
     <use xlink:href="#m77c9517612" x="588.844524" y="99.700013" style="stroke: #000000"/>
     <use xlink:href="#m77c9517612" x="593.813595" y="373.440035" style="stroke: #000000"/>
     <use xlink:href="#m77c9517612" x="598.942959" y="373.440035" style="stroke: #000000"/>
     <use xlink:href="#m77c9517612" x="603.912031" y="99.700013" style="stroke: #000000"/>
     <use xlink:href="#m77c9517612" x="608.881102" y="373.440035" style="stroke: #000000"/>
     <use xlink:href="#m77c9517612" x="613.850173" y="99.700013" style="stroke: #000000"/>
     <use xlink:href="#m77c9517612" x="618.979537" y="373.440035" style="stroke: #000000"/>
     <use xlink:href="#m77c9517612" x="623.948609" y="373.440035" style="stroke: #000000"/>
     <use xlink:href="#m77c9517612" x="628.91768" y="99.700013" style="stroke: #000000"/>
     <use xlink:href="#m77c9517612" x="633.886751" y="373.440035" style="stroke: #000000"/>
     <use xlink:href="#m77c9517612" x="639.016115" y="373.440035" style="stroke: #000000"/>
     <use xlink:href="#m77c9517612" x="643.985187" y="99.700013" style="stroke: #000000"/>
     <use xlink:href="#m77c9517612" x="648.954258" y="373.440035" style="stroke: #000000"/>
     <use xlink:href="#m77c9517612" x="653.92333" y="99.700013" style="stroke: #000000"/>
     <use xlink:href="#m77c9517612" x="659.052694" y="373.440035" style="stroke: #000000"/>
     <use xlink:href="#m77c9517612" x="664.021765" y="373.440035" style="stroke: #000000"/>
     <use xlink:href="#m77c9517612" x="668.990836" y="99.700013" style="stroke: #000000"/>
     <use xlink:href="#m77c9517612" x="673.959908" y="373.440035" style="stroke: #000000"/>
     <use xlink:href="#m77c9517612" x="679.089272" y="373.440035" style="stroke: #000000"/>
     <use xlink:href="#m77c9517612" x="684.058343" y="99.700013" style="stroke: #000000"/>
     <use xlink:href="#m77c9517612" x="689.027414" y="373.440035" style="stroke: #000000"/>
     <use xlink:href="#m77c9517612" x="693.996486" y="99.700013" style="stroke: #000000"/>
     <use xlink:href="#m77c9517612" x="699.12585" y="373.440035" style="stroke: #000000"/>
     <use xlink:href="#m77c9517612" x="704.094921" y="373.440035" style="stroke: #000000"/>
     <use xlink:href="#m77c9517612" x="709.063993" y="99.700013" style="stroke: #000000"/>
     <use xlink:href="#m77c9517612" x="714.033064" y="373.440035" style="stroke: #000000"/>
     <use xlink:href="#m77c9517612" x="719.162428" y="373.440035" style="stroke: #000000"/>
     <use xlink:href="#m77c9517612" x="724.131499" y="99.700013" style="stroke: #000000"/>
     <use xlink:href="#m77c9517612" x="729.100571" y="373.440035" style="stroke: #000000"/>
     <use xlink:href="#m77c9517612" x="734.069642" y="99.700013" style="stroke: #000000"/>
     <use xlink:href="#m77c9517612" x="739.199006" y="373.440035" style="stroke: #000000"/>
     <use xlink:href="#m77c9517612" x="744.168077" y="373.440035" style="stroke: #000000"/>
     <use xlink:href="#m77c9517612" x="749.137149" y="99.700013" style="stroke: #000000"/>
     <use xlink:href="#m77c9517612" x="754.10622" y="373.440035" style="stroke: #000000"/>
     <use xlink:href="#m77c9517612" x="759.235584" y="373.440035" style="stroke: #000000"/>
     <use xlink:href="#m77c9517612" x="764.204656" y="99.700013" style="stroke: #000000"/>
     <use xlink:href="#m77c9517612" x="769.173727" y="373.440035" style="stroke: #000000"/>
     <use xlink:href="#m77c9517612" x="774.142798" y="99.700013" style="stroke: #000000"/>
     <use xlink:href="#m77c9517612" x="779.272162" y="373.440035" style="stroke: #000000"/>
     <use xlink:href="#m77c9517612" x="784.241234" y="373.440035" style="stroke: #000000"/>
     <use xlink:href="#m77c9517612" x="789.210305" y="99.700013" style="stroke: #000000"/>
     <use xlink:href="#m77c9517612" x="794.179376" y="373.440035" style="stroke: #000000"/>
     <use xlink:href="#m77c9517612" x="799.30874" y="373.440035" style="stroke: #000000"/>
     <use xlink:href="#m77c9517612" x="804.277812" y="99.700013" style="stroke: #000000"/>
     <use xlink:href="#m77c9517612" x="809.246883" y="373.440035" style="stroke: #000000"/>
     <use xlink:href="#m77c9517612" x="814.215955" y="99.700013" style="stroke: #000000"/>
     <use xlink:href="#m77c9517612" x="819.345319" y="373.440035" style="stroke: #000000"/>
     <use xlink:href="#m77c9517612" x="824.31439" y="373.440035" style="stroke: #000000"/>
     <use xlink:href="#m77c9517612" x="829.283461" y="99.700013" style="stroke: #000000"/>
     <use xlink:href="#m77c9517612" x="834.252533" y="373.440035" style="stroke: #000000"/>
     <use xlink:href="#m77c9517612" x="839.381897" y="373.440035" style="stroke: #000000"/>
     <use xlink:href="#m77c9517612" x="844.350968" y="99.700013" style="stroke: #000000"/>
     <use xlink:href="#m77c9517612" x="849.320039" y="373.440035" style="stroke: #000000"/>
     <use xlink:href="#m77c9517612" x="854.289111" y="99.700013" style="stroke: #000000"/>
     <use xlink:href="#m77c9517612" x="859.418475" y="373.440035" style="stroke: #000000"/>
     <use xlink:href="#m77c9517612" x="864.387546" y="373.440035" style="stroke: #000000"/>
     <use xlink:href="#m77c9517612" x="869.356618" y="99.700013" style="stroke: #000000"/>
     <use xlink:href="#m77c9517612" x="874.325689" y="373.440035" style="stroke: #000000"/>
     <use xlink:href="#m77c9517612" x="879.455053" y="373.440035" style="stroke: #000000"/>
     <use xlink:href="#m77c9517612" x="884.424124" y="99.700013" style="stroke: #000000"/>
     <use xlink:href="#m77c9517612" x="889.393196" y="373.440035" style="stroke: #000000"/>
     <use xlink:href="#m77c9517612" x="894.362267" y="99.700013" style="stroke: #000000"/>
     <use xlink:href="#m77c9517612" x="899.491631" y="373.440035" style="stroke: #000000"/>
     <use xlink:href="#m77c9517612" x="904.460702" y="373.440035" style="stroke: #000000"/>
     <use xlink:href="#m77c9517612" x="909.429774" y="99.700013" style="stroke: #000000"/>
     <use xlink:href="#m77c9517612" x="914.398845" y="373.440035" style="stroke: #000000"/>
     <use xlink:href="#m77c9517612" x="919.528209" y="373.440035" style="stroke: #000000"/>
     <use xlink:href="#m77c9517612" x="924.497281" y="99.700013" style="stroke: #000000"/>
     <use xlink:href="#m77c9517612" x="929.466352" y="373.440035" style="stroke: #000000"/>
    </g>
   </g>
   <g id="patch_3">
    <path d="M 135 448.56 
L 135 60.48 
" style="fill: none; stroke: #000000; stroke-width: 0.8; stroke-linejoin: miter; stroke-linecap: square"/>
   </g>
   <g id="patch_4">
    <path d="M 972 448.56 
L 972 60.48 
" style="fill: none; stroke: #000000; stroke-width: 0.8; stroke-linejoin: miter; stroke-linecap: square"/>
   </g>
   <g id="patch_5">
    <path d="M 135 448.56 
L 972 448.56 
" style="fill: none; stroke: #000000; stroke-width: 0.8; stroke-linejoin: miter; stroke-linecap: square"/>
   </g>
   <g id="patch_6">
    <path d="M 135 60.48 
L 972 60.48 
" style="fill: none; stroke: #000000; stroke-width: 0.8; stroke-linejoin: miter; stroke-linecap: square"/>
   </g>
   <g id="legend_1">
    <g id="patch_7">
     <path d="M 895.915625 278.315313 
L 965 278.315313 
Q 967 278.315313 967 276.315313 
L 967 232.724688 
Q 967 230.724688 965 230.724688 
L 895.915625 230.724688 
Q 893.915625 230.724688 893.915625 232.724688 
L 893.915625 276.315313 
Q 893.915625 278.315313 895.915625 278.315313 
z
" style="fill: #ffffff; opacity: 0.8; stroke: #cccccc; stroke-linejoin: miter"/>
    </g>
    <g id="line2d_16">
     <path d="M 897.915625 238.823125 
L 907.915625 238.823125 
L 917.915625 238.823125 
" style="fill: none; stroke: #1f77b4; stroke-width: 1.5; stroke-linecap: square"/>
    </g>
    <g id="text_14">
     <!-- nw_0 -->
     <g transform="translate(925.915625 242.323125) scale(0.1 -0.1)">
      <defs>
       <path id="DejaVuSans-6e" d="M 3513 2113 
L 3513 0 
L 2938 0 
L 2938 2094 
Q 2938 2591 2744 2837 
Q 2550 3084 2163 3084 
Q 1697 3084 1428 2787 
Q 1159 2491 1159 1978 
L 1159 0 
L 581 0 
L 581 3500 
L 1159 3500 
L 1159 2956 
Q 1366 3272 1645 3428 
Q 1925 3584 2291 3584 
Q 2894 3584 3203 3211 
Q 3513 2838 3513 2113 
z
" transform="scale(0.015625)"/>
       <path id="DejaVuSans-77" d="M 269 3500 
L 844 3500 
L 1563 769 
L 2278 3500 
L 2956 3500 
L 3675 769 
L 4391 3500 
L 4966 3500 
L 4050 0 
L 3372 0 
L 2619 2869 
L 1863 0 
L 1184 0 
L 269 3500 
z
" transform="scale(0.015625)"/>
       <path id="DejaVuSans-5f" d="M 3263 -1063 
L 3263 -1509 
L -63 -1509 
L -63 -1063 
L 3263 -1063 
z
" transform="scale(0.015625)"/>
      </defs>
      <use xlink:href="#DejaVuSans-6e"/>
      <use xlink:href="#DejaVuSans-77" x="63.378906"/>
      <use xlink:href="#DejaVuSans-5f" x="145.166016"/>
      <use xlink:href="#DejaVuSans-30" x="195.166016"/>
     </g>
    </g>
    <g id="line2d_17">
     <path d="M 897.915625 253.779375 
L 907.915625 253.779375 
L 917.915625 253.779375 
" style="fill: none; stroke: #ff7f0e; stroke-width: 1.5; stroke-linecap: square"/>
    </g>
    <g id="text_15">
     <!-- input_0 -->
     <g transform="translate(925.915625 257.279375) scale(0.1 -0.1)">
      <defs>
       <path id="DejaVuSans-69" d="M 603 3500 
L 1178 3500 
L 1178 0 
L 603 0 
L 603 3500 
z
M 603 4863 
L 1178 4863 
L 1178 4134 
L 603 4134 
L 603 4863 
z
" transform="scale(0.015625)"/>
       <path id="DejaVuSans-70" d="M 1159 525 
L 1159 -1331 
L 581 -1331 
L 581 3500 
L 1159 3500 
L 1159 2969 
Q 1341 3281 1617 3432 
Q 1894 3584 2278 3584 
Q 2916 3584 3314 3078 
Q 3713 2572 3713 1747 
Q 3713 922 3314 415 
Q 2916 -91 2278 -91 
Q 1894 -91 1617 61 
Q 1341 213 1159 525 
z
M 3116 1747 
Q 3116 2381 2855 2742 
Q 2594 3103 2138 3103 
Q 1681 3103 1420 2742 
Q 1159 2381 1159 1747 
Q 1159 1113 1420 752 
Q 1681 391 2138 391 
Q 2594 391 2855 752 
Q 3116 1113 3116 1747 
z
" transform="scale(0.015625)"/>
       <path id="DejaVuSans-75" d="M 544 1381 
L 544 3500 
L 1119 3500 
L 1119 1403 
Q 1119 906 1312 657 
Q 1506 409 1894 409 
Q 2359 409 2629 706 
Q 2900 1003 2900 1516 
L 2900 3500 
L 3475 3500 
L 3475 0 
L 2900 0 
L 2900 538 
Q 2691 219 2414 64 
Q 2138 -91 1772 -91 
Q 1169 -91 856 284 
Q 544 659 544 1381 
z
M 1991 3584 
L 1991 3584 
z
" transform="scale(0.015625)"/>
      </defs>
      <use xlink:href="#DejaVuSans-69"/>
      <use xlink:href="#DejaVuSans-6e" x="27.783203"/>
      <use xlink:href="#DejaVuSans-70" x="91.162109"/>
      <use xlink:href="#DejaVuSans-75" x="154.638672"/>
      <use xlink:href="#DejaVuSans-74" x="218.017578"/>
      <use xlink:href="#DejaVuSans-5f" x="257.226562"/>
      <use xlink:href="#DejaVuSans-30" x="307.226562"/>
     </g>
    </g>
    <g id="line2d_18">
     <path d="M 897.915625 268.735625 
L 907.915625 268.735625 
L 917.915625 268.735625 
" style="fill: none; stroke: #000000; stroke-width: 1.5; stroke-linecap: square"/>
     <g>
      <use xlink:href="#m77c9517612" x="907.915625" y="268.735625" style="stroke: #000000"/>
     </g>
    </g>
    <g id="text_16">
     <!-- target -->
     <g transform="translate(925.915625 272.235625) scale(0.1 -0.1)">
      <defs>
       <path id="DejaVuSans-61" d="M 2194 1759 
Q 1497 1759 1228 1600 
Q 959 1441 959 1056 
Q 959 750 1161 570 
Q 1363 391 1709 391 
Q 2188 391 2477 730 
Q 2766 1069 2766 1631 
L 2766 1759 
L 2194 1759 
z
M 3341 1997 
L 3341 0 
L 2766 0 
L 2766 531 
Q 2569 213 2275 61 
Q 1981 -91 1556 -91 
Q 1019 -91 701 211 
Q 384 513 384 1019 
Q 384 1609 779 1909 
Q 1175 2209 1959 2209 
L 2766 2209 
L 2766 2266 
Q 2766 2663 2505 2880 
Q 2244 3097 1772 3097 
Q 1472 3097 1187 3025 
Q 903 2953 641 2809 
L 641 3341 
Q 956 3463 1253 3523 
Q 1550 3584 1831 3584 
Q 2591 3584 2966 3190 
Q 3341 2797 3341 1997 
z
" transform="scale(0.015625)"/>
       <path id="DejaVuSans-72" d="M 2631 2963 
Q 2534 3019 2420 3045 
Q 2306 3072 2169 3072 
Q 1681 3072 1420 2755 
Q 1159 2438 1159 1844 
L 1159 0 
L 581 0 
L 581 3500 
L 1159 3500 
L 1159 2956 
Q 1341 3275 1631 3429 
Q 1922 3584 2338 3584 
Q 2397 3584 2469 3576 
Q 2541 3569 2628 3553 
L 2631 2963 
z
" transform="scale(0.015625)"/>
       <path id="DejaVuSans-67" d="M 2906 1791 
Q 2906 2416 2648 2759 
Q 2391 3103 1925 3103 
Q 1463 3103 1205 2759 
Q 947 2416 947 1791 
Q 947 1169 1205 825 
Q 1463 481 1925 481 
Q 2391 481 2648 825 
Q 2906 1169 2906 1791 
z
M 3481 434 
Q 3481 -459 3084 -895 
Q 2688 -1331 1869 -1331 
Q 1566 -1331 1297 -1286 
Q 1028 -1241 775 -1147 
L 775 -588 
Q 1028 -725 1275 -790 
Q 1522 -856 1778 -856 
Q 2344 -856 2625 -561 
Q 2906 -266 2906 331 
L 2906 616 
Q 2728 306 2450 153 
Q 2172 0 1784 0 
Q 1141 0 747 490 
Q 353 981 353 1791 
Q 353 2603 747 3093 
Q 1141 3584 1784 3584 
Q 2172 3584 2450 3431 
Q 2728 3278 2906 2969 
L 2906 3500 
L 3481 3500 
L 3481 434 
z
" transform="scale(0.015625)"/>
       <path id="DejaVuSans-65" d="M 3597 1894 
L 3597 1613 
L 953 1613 
Q 991 1019 1311 708 
Q 1631 397 2203 397 
Q 2534 397 2845 478 
Q 3156 559 3463 722 
L 3463 178 
Q 3153 47 2828 -22 
Q 2503 -91 2169 -91 
Q 1331 -91 842 396 
Q 353 884 353 1716 
Q 353 2575 817 3079 
Q 1281 3584 2069 3584 
Q 2775 3584 3186 3129 
Q 3597 2675 3597 1894 
z
M 3022 2063 
Q 3016 2534 2758 2815 
Q 2500 3097 2075 3097 
Q 1594 3097 1305 2825 
Q 1016 2553 972 2059 
L 3022 2063 
z
" transform="scale(0.015625)"/>
      </defs>
      <use xlink:href="#DejaVuSans-74"/>
      <use xlink:href="#DejaVuSans-61" x="39.208984"/>
      <use xlink:href="#DejaVuSans-72" x="100.488281"/>
      <use xlink:href="#DejaVuSans-67" x="139.851562"/>
      <use xlink:href="#DejaVuSans-65" x="203.328125"/>
      <use xlink:href="#DejaVuSans-74" x="264.851562"/>
     </g>
    </g>
   </g>
  </g>
 </g>
 <defs>
  <clipPath id="p4537988600">
   <rect x="135" y="60.48" width="837" height="388.08"/>
  </clipPath>
 </defs>
</svg>
