<?xml version="1.0" encoding="utf-8" standalone="no"?>
<!DOCTYPE svg PUBLIC "-//W3C//DTD SVG 1.1//EN"
  "http://www.w3.org/Graphics/SVG/1.1/DTD/svg11.dtd">
<svg xmlns:xlink="http://www.w3.org/1999/xlink" width="1080pt" height="504pt" viewBox="0 0 1080 504" xmlns="http://www.w3.org/2000/svg" version="1.1">
 <metadata>
  <rdf:RDF xmlns:dc="http://purl.org/dc/elements/1.1/" xmlns:cc="http://creativecommons.org/ns#" xmlns:rdf="http://www.w3.org/1999/02/22-rdf-syntax-ns#">
   <cc:Work>
    <dc:type rdf:resource="http://purl.org/dc/dcmitype/StillImage"/>
    <dc:date>2024-05-09T11:39:32.365191</dc:date>
    <dc:format>image/svg+xml</dc:format>
    <dc:creator>
     <cc:Agent>
      <dc:title>Matplotlib v3.7.1, https://matplotlib.org/</dc:title>
     </cc:Agent>
    </dc:creator>
   </cc:Work>
  </rdf:RDF>
 </metadata>
 <defs>
  <style type="text/css">*{stroke-linejoin: round; stroke-linecap: butt}</style>
 </defs>
 <g id="figure_1">
  <g id="patch_1">
   <path d="M 0 504 
L 1080 504 
L 1080 0 
L 0 0 
z
" style="fill: #ffffff"/>
  </g>
  <g id="axes_1">
   <g id="patch_2">
    <path d="M 135 448.56 
L 972 448.56 
L 972 60.48 
L 135 60.48 
z
" style="fill: #ffffff"/>
   </g>
   <g id="matplotlib.axis_1">
    <g id="xtick_1">
     <g id="line2d_1">
      <defs>
       <path id="mc290f7dffb" d="M 0 0 
L 0 3.5 
" style="stroke: #000000; stroke-width: 0.8"/>
      </defs>
      <g>
       <use xlink:href="#mc290f7dffb" x="173.045455" y="448.56" style="stroke: #000000; stroke-width: 0.8"/>
      </g>
     </g>
     <g id="text_1">
      <!-- 0 -->
      <g transform="translate(169.864205 463.158437) scale(0.1 -0.1)">
       <defs>
        <path id="DejaVuSans-30" d="M 2034 4250 
Q 1547 4250 1301 3770 
Q 1056 3291 1056 2328 
Q 1056 1369 1301 889 
Q 1547 409 2034 409 
Q 2525 409 2770 889 
Q 3016 1369 3016 2328 
Q 3016 3291 2770 3770 
Q 2525 4250 2034 4250 
z
M 2034 4750 
Q 2819 4750 3233 4129 
Q 3647 3509 3647 2328 
Q 3647 1150 3233 529 
Q 2819 -91 2034 -91 
Q 1250 -91 836 529 
Q 422 1150 422 2328 
Q 422 3509 836 4129 
Q 1250 4750 2034 4750 
z
" transform="scale(0.015625)"/>
       </defs>
       <use xlink:href="#DejaVuSans-30"/>
      </g>
     </g>
    </g>
    <g id="xtick_2">
     <g id="line2d_2">
      <g>
       <use xlink:href="#mc290f7dffb" x="333.33808" y="448.56" style="stroke: #000000; stroke-width: 0.8"/>
      </g>
     </g>
     <g id="text_2">
      <!-- 1000 -->
      <g transform="translate(320.61308 463.158437) scale(0.1 -0.1)">
       <defs>
        <path id="DejaVuSans-31" d="M 794 531 
L 1825 531 
L 1825 4091 
L 703 3866 
L 703 4441 
L 1819 4666 
L 2450 4666 
L 2450 531 
L 3481 531 
L 3481 0 
L 794 0 
L 794 531 
z
" transform="scale(0.015625)"/>
       </defs>
       <use xlink:href="#DejaVuSans-31"/>
       <use xlink:href="#DejaVuSans-30" x="63.623047"/>
       <use xlink:href="#DejaVuSans-30" x="127.246094"/>
       <use xlink:href="#DejaVuSans-30" x="190.869141"/>
      </g>
     </g>
    </g>
    <g id="xtick_3">
     <g id="line2d_3">
      <g>
       <use xlink:href="#mc290f7dffb" x="493.630705" y="448.56" style="stroke: #000000; stroke-width: 0.8"/>
      </g>
     </g>
     <g id="text_3">
      <!-- 2000 -->
      <g transform="translate(480.905705 463.158437) scale(0.1 -0.1)">
       <defs>
        <path id="DejaVuSans-32" d="M 1228 531 
L 3431 531 
L 3431 0 
L 469 0 
L 469 531 
Q 828 903 1448 1529 
Q 2069 2156 2228 2338 
Q 2531 2678 2651 2914 
Q 2772 3150 2772 3378 
Q 2772 3750 2511 3984 
Q 2250 4219 1831 4219 
Q 1534 4219 1204 4116 
Q 875 4013 500 3803 
L 500 4441 
Q 881 4594 1212 4672 
Q 1544 4750 1819 4750 
Q 2544 4750 2975 4387 
Q 3406 4025 3406 3419 
Q 3406 3131 3298 2873 
Q 3191 2616 2906 2266 
Q 2828 2175 2409 1742 
Q 1991 1309 1228 531 
z
" transform="scale(0.015625)"/>
       </defs>
       <use xlink:href="#DejaVuSans-32"/>
       <use xlink:href="#DejaVuSans-30" x="63.623047"/>
       <use xlink:href="#DejaVuSans-30" x="127.246094"/>
       <use xlink:href="#DejaVuSans-30" x="190.869141"/>
      </g>
     </g>
    </g>
    <g id="xtick_4">
     <g id="line2d_4">
      <g>
       <use xlink:href="#mc290f7dffb" x="653.92333" y="448.56" style="stroke: #000000; stroke-width: 0.8"/>
      </g>
     </g>
     <g id="text_4">
      <!-- 3000 -->
      <g transform="translate(641.19833 463.158437) scale(0.1 -0.1)">
       <defs>
        <path id="DejaVuSans-33" d="M 2597 2516 
Q 3050 2419 3304 2112 
Q 3559 1806 3559 1356 
Q 3559 666 3084 287 
Q 2609 -91 1734 -91 
Q 1441 -91 1130 -33 
Q 819 25 488 141 
L 488 750 
Q 750 597 1062 519 
Q 1375 441 1716 441 
Q 2309 441 2620 675 
Q 2931 909 2931 1356 
Q 2931 1769 2642 2001 
Q 2353 2234 1838 2234 
L 1294 2234 
L 1294 2753 
L 1863 2753 
Q 2328 2753 2575 2939 
Q 2822 3125 2822 3475 
Q 2822 3834 2567 4026 
Q 2313 4219 1838 4219 
Q 1578 4219 1281 4162 
Q 984 4106 628 3988 
L 628 4550 
Q 988 4650 1302 4700 
Q 1616 4750 1894 4750 
Q 2613 4750 3031 4423 
Q 3450 4097 3450 3541 
Q 3450 3153 3228 2886 
Q 3006 2619 2597 2516 
z
" transform="scale(0.015625)"/>
       </defs>
       <use xlink:href="#DejaVuSans-33"/>
       <use xlink:href="#DejaVuSans-30" x="63.623047"/>
       <use xlink:href="#DejaVuSans-30" x="127.246094"/>
       <use xlink:href="#DejaVuSans-30" x="190.869141"/>
      </g>
     </g>
    </g>
    <g id="xtick_5">
     <g id="line2d_5">
      <g>
       <use xlink:href="#mc290f7dffb" x="814.215955" y="448.56" style="stroke: #000000; stroke-width: 0.8"/>
      </g>
     </g>
     <g id="text_5">
      <!-- 4000 -->
      <g transform="translate(801.490955 463.158437) scale(0.1 -0.1)">
       <defs>
        <path id="DejaVuSans-34" d="M 2419 4116 
L 825 1625 
L 2419 1625 
L 2419 4116 
z
M 2253 4666 
L 3047 4666 
L 3047 1625 
L 3713 1625 
L 3713 1100 
L 3047 1100 
L 3047 0 
L 2419 0 
L 2419 1100 
L 313 1100 
L 313 1709 
L 2253 4666 
z
" transform="scale(0.015625)"/>
       </defs>
       <use xlink:href="#DejaVuSans-34"/>
       <use xlink:href="#DejaVuSans-30" x="63.623047"/>
       <use xlink:href="#DejaVuSans-30" x="127.246094"/>
       <use xlink:href="#DejaVuSans-30" x="190.869141"/>
      </g>
     </g>
    </g>
    <g id="text_6">
     <!-- t -->
     <g transform="translate(551.539844 476.836563) scale(0.1 -0.1)">
      <defs>
       <path id="DejaVuSans-74" d="M 1172 4494 
L 1172 3500 
L 2356 3500 
L 2356 3053 
L 1172 3053 
L 1172 1153 
Q 1172 725 1289 603 
Q 1406 481 1766 481 
L 2356 481 
L 2356 0 
L 1766 0 
Q 1100 0 847 248 
Q 594 497 594 1153 
L 594 3053 
L 172 3053 
L 172 3500 
L 594 3500 
L 594 4494 
L 1172 4494 
z
" transform="scale(0.015625)"/>
      </defs>
      <use xlink:href="#DejaVuSans-74"/>
     </g>
    </g>
   </g>
   <g id="matplotlib.axis_2">
    <g id="ytick_1">
     <g id="line2d_6">
      <defs>
       <path id="m9b541ff261" d="M 0 0 
L -3.5 0 
" style="stroke: #000000; stroke-width: 0.8"/>
      </defs>
      <g>
       <use xlink:href="#m9b541ff261" x="135" y="421.49939" style="stroke: #000000; stroke-width: 0.8"/>
      </g>
     </g>
     <g id="text_7">
      <!-- −0.2 -->
      <g transform="translate(103.717187 425.298609) scale(0.1 -0.1)">
       <defs>
        <path id="DejaVuSans-2212" d="M 678 2272 
L 4684 2272 
L 4684 1741 
L 678 1741 
L 678 2272 
z
" transform="scale(0.015625)"/>
        <path id="DejaVuSans-2e" d="M 684 794 
L 1344 794 
L 1344 0 
L 684 0 
L 684 794 
z
" transform="scale(0.015625)"/>
       </defs>
       <use xlink:href="#DejaVuSans-2212"/>
       <use xlink:href="#DejaVuSans-30" x="83.789062"/>
       <use xlink:href="#DejaVuSans-2e" x="147.412109"/>
       <use xlink:href="#DejaVuSans-32" x="179.199219"/>
      </g>
     </g>
    </g>
    <g id="ytick_2">
     <g id="line2d_7">
      <g>
       <use xlink:href="#m9b541ff261" x="135" y="364.269491" style="stroke: #000000; stroke-width: 0.8"/>
      </g>
     </g>
     <g id="text_8">
      <!-- 0.0 -->
      <g transform="translate(112.096875 368.06871) scale(0.1 -0.1)">
       <use xlink:href="#DejaVuSans-30"/>
       <use xlink:href="#DejaVuSans-2e" x="63.623047"/>
       <use xlink:href="#DejaVuSans-30" x="95.410156"/>
      </g>
     </g>
    </g>
    <g id="ytick_3">
     <g id="line2d_8">
      <g>
       <use xlink:href="#m9b541ff261" x="135" y="307.039593" style="stroke: #000000; stroke-width: 0.8"/>
      </g>
     </g>
     <g id="text_9">
      <!-- 0.2 -->
      <g transform="translate(112.096875 310.838812) scale(0.1 -0.1)">
       <use xlink:href="#DejaVuSans-30"/>
       <use xlink:href="#DejaVuSans-2e" x="63.623047"/>
       <use xlink:href="#DejaVuSans-32" x="95.410156"/>
      </g>
     </g>
    </g>
    <g id="ytick_4">
     <g id="line2d_9">
      <g>
       <use xlink:href="#m9b541ff261" x="135" y="249.809695" style="stroke: #000000; stroke-width: 0.8"/>
      </g>
     </g>
     <g id="text_10">
      <!-- 0.4 -->
      <g transform="translate(112.096875 253.608914) scale(0.1 -0.1)">
       <use xlink:href="#DejaVuSans-30"/>
       <use xlink:href="#DejaVuSans-2e" x="63.623047"/>
       <use xlink:href="#DejaVuSans-34" x="95.410156"/>
      </g>
     </g>
    </g>
    <g id="ytick_5">
     <g id="line2d_10">
      <g>
       <use xlink:href="#m9b541ff261" x="135" y="192.579797" style="stroke: #000000; stroke-width: 0.8"/>
      </g>
     </g>
     <g id="text_11">
      <!-- 0.6 -->
      <g transform="translate(112.096875 196.379015) scale(0.1 -0.1)">
       <defs>
        <path id="DejaVuSans-36" d="M 2113 2584 
Q 1688 2584 1439 2293 
Q 1191 2003 1191 1497 
Q 1191 994 1439 701 
Q 1688 409 2113 409 
Q 2538 409 2786 701 
Q 3034 994 3034 1497 
Q 3034 2003 2786 2293 
Q 2538 2584 2113 2584 
z
M 3366 4563 
L 3366 3988 
Q 3128 4100 2886 4159 
Q 2644 4219 2406 4219 
Q 1781 4219 1451 3797 
Q 1122 3375 1075 2522 
Q 1259 2794 1537 2939 
Q 1816 3084 2150 3084 
Q 2853 3084 3261 2657 
Q 3669 2231 3669 1497 
Q 3669 778 3244 343 
Q 2819 -91 2113 -91 
Q 1303 -91 875 529 
Q 447 1150 447 2328 
Q 447 3434 972 4092 
Q 1497 4750 2381 4750 
Q 2619 4750 2861 4703 
Q 3103 4656 3366 4563 
z
" transform="scale(0.015625)"/>
       </defs>
       <use xlink:href="#DejaVuSans-30"/>
       <use xlink:href="#DejaVuSans-2e" x="63.623047"/>
       <use xlink:href="#DejaVuSans-36" x="95.410156"/>
      </g>
     </g>
    </g>
    <g id="ytick_6">
     <g id="line2d_11">
      <g>
       <use xlink:href="#m9b541ff261" x="135" y="135.349898" style="stroke: #000000; stroke-width: 0.8"/>
      </g>
     </g>
     <g id="text_12">
      <!-- 0.8 -->
      <g transform="translate(112.096875 139.149117) scale(0.1 -0.1)">
       <defs>
        <path id="DejaVuSans-38" d="M 2034 2216 
Q 1584 2216 1326 1975 
Q 1069 1734 1069 1313 
Q 1069 891 1326 650 
Q 1584 409 2034 409 
Q 2484 409 2743 651 
Q 3003 894 3003 1313 
Q 3003 1734 2745 1975 
Q 2488 2216 2034 2216 
z
M 1403 2484 
Q 997 2584 770 2862 
Q 544 3141 544 3541 
Q 544 4100 942 4425 
Q 1341 4750 2034 4750 
Q 2731 4750 3128 4425 
Q 3525 4100 3525 3541 
Q 3525 3141 3298 2862 
Q 3072 2584 2669 2484 
Q 3125 2378 3379 2068 
Q 3634 1759 3634 1313 
Q 3634 634 3220 271 
Q 2806 -91 2034 -91 
Q 1263 -91 848 271 
Q 434 634 434 1313 
Q 434 1759 690 2068 
Q 947 2378 1403 2484 
z
M 1172 3481 
Q 1172 3119 1398 2916 
Q 1625 2713 2034 2713 
Q 2441 2713 2670 2916 
Q 2900 3119 2900 3481 
Q 2900 3844 2670 4047 
Q 2441 4250 2034 4250 
Q 1625 4250 1398 4047 
Q 1172 3844 1172 3481 
z
" transform="scale(0.015625)"/>
       </defs>
       <use xlink:href="#DejaVuSans-30"/>
       <use xlink:href="#DejaVuSans-2e" x="63.623047"/>
       <use xlink:href="#DejaVuSans-38" x="95.410156"/>
      </g>
     </g>
    </g>
    <g id="ytick_7">
     <g id="line2d_12">
      <g>
       <use xlink:href="#m9b541ff261" x="135" y="78.12" style="stroke: #000000; stroke-width: 0.8"/>
      </g>
     </g>
     <g id="text_13">
      <!-- 1.0 -->
      <g transform="translate(112.096875 81.919219) scale(0.1 -0.1)">
       <use xlink:href="#DejaVuSans-31"/>
       <use xlink:href="#DejaVuSans-2e" x="63.623047"/>
       <use xlink:href="#DejaVuSans-30" x="95.410156"/>
      </g>
     </g>
    </g>
   </g>
   <g id="line2d_13">
    <path d="M 173.045455 262.96118 
L 173.36604 144.874383 
L 173.686625 97.999714 
L 173.846918 90.159509 
L 174.00721 88.633507 
L 174.167503 91.226812 
L 174.648381 109.208445 
L 175.129259 126.027854 
L 175.449844 132.342614 
L 175.770429 134.42184 
L 175.930722 134.061899 
L 176.251307 131.122482 
L 176.732185 123.059085 
L 177.693941 104.347804 
L 178.014526 239.492238 
L 178.335111 303.148508 
L 178.655696 328.728417 
L 178.976282 336.914403 
L 179.617452 343.127083 
L 179.938037 349.82293 
L 180.418915 366.243214 
L 181.861549 422.683214 
L 182.182134 428.667635 
L 182.502719 430.671123 
L 182.663012 430.117998 
L 182.983597 425.92241 
L 183.304183 417.796023 
L 183.78506 399.104296 
L 184.586524 355.286704 
L 186.83062 222.717221 
L 187.471791 198.186222 
L 187.952669 185.808118 
L 188.433547 178.657777 
L 188.754132 176.684615 
L 188.914424 176.491956 
L 189.074717 176.803471 
L 189.395302 178.852448 
L 189.715888 182.643593 
L 190.196765 191.142276 
L 190.837936 206.568987 
L 191.959984 239.959472 
L 193.723203 292.55491 
L 194.684959 315.289678 
L 195.486422 329.726953 
L 196.287885 340.057751 
L 196.929056 345.634006 
L 197.570226 349.170109 
L 198.051104 350.71124 
L 198.531982 351.485352 
L 198.852567 351.656484 
L 199.173152 351.606169 
L 199.65403 351.211113 
L 200.295201 350.295465 
L 202.379005 346.996841 
L 203.020175 346.45042 
L 203.501053 346.267353 
L 203.981931 346.285359 
L 204.462809 346.499801 
L 205.10398 347.069154 
L 205.905443 348.171749 
L 206.867198 349.922866 
L 208.630417 353.716795 
L 210.553929 357.709168 
L 211.83627 359.895165 
L 212.958318 361.408663 
L 213.278903 361.772139 
L 213.599489 190.086406 
L 213.920074 113.166067 
L 214.240659 88.591251 
L 214.400952 87.194369 
L 214.561244 89.91011 
L 215.042122 108.220996 
L 215.523 125.316755 
L 215.843585 131.788998 
L 216.164171 134.006167 
L 216.324463 133.708368 
L 216.645049 130.880559 
L 217.125926 122.955772 
L 218.087682 104.435877 
L 218.408267 239.627446 
L 218.728853 303.322695 
L 219.049438 328.934019 
L 219.370023 337.144443 
L 220.011194 343.387434 
L 220.331779 350.090363 
L 220.812657 366.512884 
L 222.25529 422.917535 
L 222.575876 428.888917 
L 222.896461 430.878459 
L 223.056754 430.318139 
L 223.377339 426.107925 
L 223.697924 417.966839 
L 224.178802 399.253473 
L 224.980265 355.40244 
L 227.224362 222.76712 
L 227.865532 198.225123 
L 228.34641 185.840704 
L 228.827288 178.685484 
L 229.147873 176.709767 
L 229.308166 176.516017 
L 229.468459 176.826556 
L 229.789044 178.873894 
L 230.109629 182.66377 
L 230.590507 191.161129 
L 231.231677 206.586896 
L 232.353726 239.977066 
L 234.116945 292.572841 
L 235.0787 315.307393 
L 235.880164 329.74412 
L 236.681627 340.07404 
L 237.322797 345.649388 
L 237.963968 349.184442 
L 238.444846 350.724716 
L 238.925723 351.497933 
L 239.246309 351.668455 
L 239.566894 351.617523 
L 240.047772 351.221543 
L 240.688942 350.304681 
L 242.772746 347.002534 
L 243.413917 346.455212 
L 243.894795 346.271533 
L 244.375673 346.288981 
L 244.856551 346.50292 
L 245.497721 347.071681 
L 246.299184 348.173657 
L 247.26094 349.924191 
L 249.024159 353.717414 
L 250.94767 357.709389 
L 252.230011 359.895253 
L 253.35206 361.408688 
L 253.99323 362.106039 
L 254.313815 190.390339 
L 254.634401 113.441481 
L 254.954986 88.839608 
L 255.115279 87.429762 
L 255.275571 90.132921 
L 255.756449 108.408426 
L 256.237327 125.472412 
L 256.557912 131.925478 
L 256.878497 134.125046 
L 257.03879 133.819023 
L 257.359375 130.975888 
L 257.840253 123.030788 
L 258.802009 104.478946 
L 259.122594 239.661983 
L 259.443179 303.3496 
L 259.763765 328.954147 
L 260.08435 337.158609 
L 260.72552 343.391943 
L 261.046106 350.091082 
L 261.526984 366.509077 
L 262.969617 422.906842 
L 263.290202 428.877727 
L 263.610788 430.867045 
L 263.77108 430.306701 
L 264.091666 426.096591 
L 264.412251 417.955778 
L 264.893129 399.243066 
L 265.694592 355.393533 
L 267.938689 222.762786 
L 268.579859 198.22183 
L 269.060737 185.838076 
L 269.541615 178.683421 
L 269.8622 176.708028 
L 270.022493 176.514423 
L 270.182785 176.825099 
L 270.503371 178.872679 
L 270.823956 182.662762 
L 271.304834 191.160369 
L 271.946004 206.586366 
L 273.068053 239.976729 
L 274.831271 292.572493 
L 275.793027 315.306977 
L 276.59449 329.743645 
L 277.395953 340.073515 
L 278.037124 345.648836 
L 278.678294 349.183872 
L 279.159172 350.724142 
L 279.64005 351.49736 
L 279.960635 351.667887 
L 280.281221 351.616962 
L 280.762099 351.220995 
L 281.403269 350.30416 
L 283.487073 347.002127 
L 284.128244 346.454845 
L 284.609122 346.271195 
L 285.089999 346.288673 
L 285.570877 346.502639 
L 286.212048 347.071436 
L 287.013511 348.173454 
L 287.975267 349.924031 
L 289.738486 353.717317 
L 291.661997 357.709336 
L 292.944338 359.89522 
L 293.585509 360.80648 
L 293.906094 189.199896 
L 294.226679 112.3559 
L 294.547264 87.854423 
L 294.707557 86.492993 
L 294.86785 89.243323 
L 295.348727 107.652476 
L 295.829605 124.837753 
L 296.150191 131.364633 
L 296.470776 133.632381 
L 296.631068 133.358361 
L 296.951654 130.575145 
L 297.432532 122.710066 
L 298.394287 104.285813 
L 298.714873 239.503213 
L 299.035458 303.221745 
L 299.356043 328.853925 
L 299.676628 337.08289 
L 300.317799 343.356476 
L 300.638384 350.071704 
L 301.119262 366.509298 
L 302.561896 422.939296 
L 302.882481 428.913164 
L 303.203066 430.904339 
L 303.363359 430.344554 
L 303.683944 426.134918 
L 304.004529 417.993846 
L 304.485407 399.279661 
L 305.28687 355.425737 
L 307.530967 222.779359 
L 308.172137 198.234597 
L 308.653015 185.848365 
L 309.133893 178.691573 
L 309.454478 176.714942 
L 309.614771 176.520775 
L 309.775064 176.830922 
L 310.095649 178.877551 
L 310.416234 182.666814 
L 310.897112 191.16342 
L 311.538283 206.588457 
L 312.660331 239.977947 
L 314.42355 292.573601 
L 315.385306 315.308307 
L 316.186769 329.74519 
L 316.988232 340.075253 
L 317.629402 345.650693 
L 318.270573 349.185812 
L 318.751451 350.726117 
L 319.232329 351.499348 
L 319.552914 351.669871 
L 319.873499 351.618934 
L 320.354377 351.222933 
L 320.995547 350.306026 
L 323.079352 347.003627 
L 323.720522 346.45621 
L 324.2014 346.272458 
L 324.682278 346.289834 
L 325.163156 346.503701 
L 325.804326 347.07237 
L 326.605789 348.174239 
L 327.567545 349.924656 
L 329.330764 353.717706 
L 331.254275 357.709551 
L 332.536616 359.895358 
L 333.658665 361.408758 
L 333.818957 361.594233 
L 334.139543 189.923874 
L 334.460128 113.018246 
L 334.780713 88.457459 
L 334.941006 87.067324 
L 335.101298 89.789626 
L 335.582176 108.119044 
L 336.063054 125.231545 
L 336.383639 131.713941 
L 336.704225 133.940463 
L 336.864517 133.647045 
L 337.185103 130.827423 
L 337.66598 122.913534 
L 338.627736 104.410915 
L 338.948321 239.607121 
L 339.268907 303.306531 
L 339.589492 328.921564 
L 339.910077 337.135267 
L 340.551248 343.383614 
L 340.871833 350.088667 
L 341.352711 366.513756 
L 342.795344 422.922505 
L 343.11593 428.894234 
L 343.436515 430.883974 
L 343.596808 430.323703 
L 343.917393 426.113503 
L 344.237978 417.972335 
L 344.718856 399.258705 
L 345.520319 355.406986 
L 347.764416 222.769399 
L 348.405586 198.226866 
L 348.886464 185.8421 
L 349.367342 178.686583 
L 349.687927 176.710696 
L 349.84822 176.516869 
L 350.008513 176.827336 
L 350.329098 178.874543 
L 350.649683 182.664308 
L 351.130561 191.161532 
L 351.771731 206.587171 
L 352.89378 239.97723 
L 354.656999 292.573 
L 355.618754 315.307586 
L 356.420218 329.744344 
L 357.221681 340.074291 
L 357.862851 345.649655 
L 358.504022 349.18472 
L 358.9849 350.724999 
L 359.465777 351.498216 
L 359.786363 351.668737 
L 360.106948 351.617803 
L 360.587826 351.221817 
L 361.228996 350.304945 
L 363.3128 347.002744 
L 363.953971 346.455402 
L 364.434849 346.271708 
L 364.915727 346.289143 
L 365.396605 346.503067 
L 366.037775 347.07181 
L 366.839238 348.173765 
L 367.800994 349.924277 
L 369.564213 353.717467 
L 371.487724 357.709417 
L 372.770065 359.895272 
L 373.090651 360.366432 
L 373.411236 188.792659 
L 373.731821 111.980789 
L 374.052406 87.510594 
L 374.212699 86.164426 
L 374.372992 88.929732 
L 374.853869 107.381884 
L 375.334747 124.606902 
L 375.655333 131.158308 
L 375.975918 133.448949 
L 376.13621 133.185758 
L 376.456796 130.422968 
L 376.937674 122.585501 
L 377.899429 104.206227 
L 378.220015 239.4359 
L 378.5406 303.165565 
L 378.861185 328.807794 
L 379.18177 337.045769 
L 379.822941 343.334452 
L 380.143526 350.055866 
L 380.624404 366.501193 
L 382.067038 422.945114 
L 382.387623 428.920576 
L 382.708208 430.912927 
L 382.868501 430.35359 
L 383.189086 426.144604 
L 383.509671 418.003895 
L 383.990549 399.289813 
L 384.792012 355.435218 
L 387.036109 222.784791 
L 387.677279 198.238887 
L 388.158157 185.851886 
L 388.639035 178.694412 
L 388.95962 176.717378 
L 389.119913 176.523024 
L 389.280206 176.832995 
L 389.600791 178.879302 
L 389.921376 182.668282 
L 390.402254 191.164532 
L 391.043425 206.589212 
L 392.165473 239.978343 
L 393.928692 292.573874 
L 394.890448 315.308629 
L 395.691911 329.745572 
L 396.493374 340.075698 
L 397.134544 345.651183 
L 397.775715 349.186337 
L 398.256593 350.726661 
L 398.737471 351.499904 
L 399.058056 351.670432 
L 399.378641 351.619497 
L 399.859519 351.223495 
L 400.500689 350.306577 
L 402.584494 347.004093 
L 403.225664 346.45664 
L 403.706542 346.27286 
L 404.18742 346.290208 
L 404.668298 346.504046 
L 405.309468 347.072678 
L 406.110931 348.174501 
L 407.072687 349.924869 
L 408.835906 353.717843 
L 410.759417 357.70963 
L 412.041758 359.895411 
L 413.163807 361.408793 
L 413.644685 361.942827 
L 413.96527 190.241952 
L 414.285855 113.307179 
L 414.60644 88.718647 
L 414.766733 87.315186 
L 414.927026 90.024537 
L 415.407904 108.317431 
L 415.888781 125.397001 
L 416.209367 131.85946 
L 416.529952 134.067638 
L 416.690245 133.765635 
L 417.01083 130.929984 
L 417.491708 122.994789 
L 418.453463 104.458484 
L 418.774049 239.645664 
L 419.094634 303.336982 
L 419.415219 328.944812 
L 419.735804 337.152157 
L 420.376975 343.390149 
L 420.69756 350.091109 
L 421.178438 366.511269 
L 422.621072 422.912274 
L 422.941657 428.883377 
L 423.262242 430.872782 
L 423.422535 430.312439 
L 423.74312 426.102257 
L 424.063705 417.961293 
L 424.544583 399.248236 
L 425.346046 355.397937 
L 427.590143 222.764906 
L 428.231314 198.223436 
L 428.712191 185.839354 
L 429.193069 178.684422 
L 429.513655 176.70887 
L 429.673947 176.515195 
L 429.83424 176.825804 
L 430.154825 178.873265 
L 430.47541 182.663248 
L 430.956288 191.160735 
L 431.597459 206.586622 
L 432.719507 239.976893 
L 434.482726 292.572667 
L 435.444482 315.307186 
L 436.245945 329.743883 
L 437.047408 340.073778 
L 437.688578 345.649112 
L 438.329749 349.184156 
L 438.810627 350.724429 
L 439.291505 351.497645 
L 439.61209 351.668169 
L 439.932675 351.617241 
L 440.413553 351.221267 
L 441.054724 350.304418 
L 443.138528 347.002328 
L 443.779698 346.455026 
L 444.260576 346.271361 
L 444.741454 346.288825 
L 445.222332 346.502777 
L 445.863502 347.071556 
L 446.664965 348.173554 
L 447.626721 349.92411 
L 449.38994 353.717364 
L 451.313452 357.709362 
L 452.595793 359.895236 
L 453.557548 361.215618 
L 453.878134 189.57676 
L 454.198719 112.701448 
L 454.519304 88.169724 
L 454.679597 86.793617 
L 454.839889 89.529594 
L 455.320767 107.897797 
L 455.801645 125.045547 
L 456.12223 131.549419 
L 456.442816 133.795794 
L 456.603108 133.511701 
L 456.923693 130.709548 
L 457.404571 122.819011 
L 458.366327 104.353692 
L 458.686912 239.559953 
L 459.007498 303.268417 
L 459.328083 328.891549 
L 459.648668 337.112441 
L 460.289839 343.372617 
L 460.610424 350.082409 
L 461.091302 366.513284 
L 462.533935 422.93163 
L 462.854521 428.904267 
L 463.175106 430.894585 
L 463.335398 430.334494 
L 463.655984 426.124465 
L 463.976569 417.983251 
L 464.457447 399.269231 
L 465.25891 355.416287 
L 467.503007 222.774221 
L 468.144177 198.230587 
L 468.625055 185.845103 
L 469.105933 178.688965 
L 469.426518 176.712718 
L 469.586811 176.518726 
L 469.747103 176.829039 
L 470.067689 178.875968 
L 470.388274 182.665493 
L 470.869152 191.162423 
L 471.510322 206.58778 
L 472.632371 239.977579 
L 474.39559 292.57331 
L 475.357345 315.30796 
L 476.158808 329.74478 
L 476.960272 340.074783 
L 477.601442 345.650183 
L 478.242613 349.185272 
L 478.72349 350.725563 
L 479.204368 351.498784 
L 479.524954 351.669305 
L 479.845539 351.618369 
L 480.326417 351.222373 
L 480.967587 350.305481 
L 483.051391 347.003177 
L 483.692562 346.455797 
L 484.17344 346.272074 
L 484.654318 346.289479 
L 485.135195 346.503375 
L 485.776366 347.072081 
L 486.577829 348.173993 
L 487.539585 349.924458 
L 489.302804 353.71758 
L 491.226315 357.70948 
L 492.508656 359.895312 
L 493.630705 361.408727 
L 493.95129 189.754006 
L 494.271875 112.863399 
L 494.59246 88.316985 
L 494.752753 86.933779 
L 494.913046 89.66283 
L 495.393923 108.011361 
L 495.874801 125.141198 
L 496.195387 131.634139 
L 496.515972 133.870397 
L 496.676264 133.581548 
L 496.99685 130.770478 
L 497.477728 122.868004 
L 498.439483 104.383573 
L 498.760069 239.584674 
L 499.080654 303.288487 
L 499.401239 328.907454 
L 499.721824 337.124644 
L 500.362995 343.378715 
L 500.68358 350.086053 
L 501.164458 366.513923 
L 502.607092 422.927226 
L 502.927677 428.899372 
L 503.248262 430.889368 
L 503.408555 430.329173 
L 503.72914 426.119033 
L 504.049725 417.97782 
L 504.530603 399.26397 
L 505.332066 355.411611 
L 507.576163 222.771769 
L 508.217333 198.22869 
L 508.698211 185.843569 
L 509.179089 178.687746 
L 509.499674 176.711682 
L 509.659967 176.517774 
L 509.82026 176.828165 
L 510.140845 178.875236 
L 510.46143 182.664884 
L 510.942308 191.161965 
L 511.583479 206.587468 
L 512.705527 239.977402 
L 514.468746 292.573158 
L 515.430502 315.307776 
L 516.231965 329.744565 
L 517.033428 340.07454 
L 517.674598 345.649921 
L 518.315769 349.184997 
L 518.796647 350.725281 
L 519.277525 351.498501 
L 519.59811 351.669021 
L 519.918695 351.618086 
L 520.399573 351.222094 
L 521.040743 350.305212 
L 523.124548 347.002958 
L 523.765718 346.455597 
L 524.246596 346.271889 
L 524.727474 346.289308 
L 525.208352 346.503218 
L 525.849522 347.071943 
L 526.650985 348.173877 
L 527.612741 349.924366 
L 529.37596 353.717522 
L 531.299471 357.709448 
L 532.581812 359.895291 
L 533.703861 361.408713 
L 533.864153 361.594191 
L 534.184739 189.923836 
L 534.505324 113.018213 
L 534.825909 88.457429 
L 534.986202 87.067297 
L 535.146494 89.789601 
L 535.627372 108.119023 
L 536.10825 125.231528 
L 536.428835 131.713926 
L 536.749421 133.94045 
L 536.909713 133.647033 
L 537.230299 130.827413 
L 537.711176 122.913526 
L 538.672932 104.410911 
L 538.993517 239.607117 
L 539.314103 303.306528 
L 539.634688 328.921562 
L 539.955273 337.135266 
L 540.596444 343.383614 
L 540.917029 350.088667 
L 541.397907 366.513757 
L 542.84054 422.922506 
L 543.161126 428.894235 
L 543.481711 430.883975 
L 543.642004 430.323704 
L 543.962589 426.113504 
L 544.283174 417.972336 
L 544.764052 399.258705 
L 545.565515 355.406987 
L 547.809612 222.769399 
L 548.450782 198.226866 
L 548.93166 185.8421 
L 549.412538 178.686584 
L 549.733123 176.710697 
L 549.893416 176.516869 
L 550.053709 176.827336 
L 550.374294 178.874543 
L 550.694879 182.664308 
L 551.175757 191.161532 
L 551.816927 206.587172 
L 552.938976 239.97723 
L 554.702195 292.573 
L 555.66395 315.307586 
L 556.465414 329.744344 
L 557.266877 340.074291 
L 557.908047 345.649656 
L 558.549218 349.18472 
L 559.030096 350.724999 
L 559.510973 351.498216 
L 559.831559 351.668737 
L 560.152144 351.617804 
L 560.633022 351.221817 
L 561.274192 350.304945 
L 563.357996 347.002744 
L 563.999167 346.455402 
L 564.480045 346.271708 
L 564.960923 346.289143 
L 565.441801 346.503067 
L 566.082971 347.07181 
L 566.884434 348.173765 
L 567.84619 349.924277 
L 569.609409 353.717467 
L 571.53292 357.709417 
L 572.815261 359.895272 
L 573.93731 361.4087 
L 574.257895 361.772162 
L 574.57848 190.086419 
L 574.899065 113.166072 
L 575.219651 88.591247 
L 575.379943 87.194362 
L 575.540236 89.9101 
L 576.021114 108.220977 
L 576.501992 125.316729 
L 576.822577 131.788968 
L 577.143162 134.006135 
L 577.303455 133.708334 
L 577.62404 130.880524 
L 578.104918 122.955735 
L 579.066674 104.435838 
L 579.387259 239.627407 
L 579.707844 303.322656 
L 580.028429 328.93398 
L 580.349015 337.144405 
L 580.990185 343.387398 
L 581.31077 350.090328 
L 581.791648 366.512851 
L 583.234282 422.917509 
L 583.554867 428.888893 
L 583.875452 430.878437 
L 584.035745 430.318117 
L 584.35633 426.107905 
L 584.676916 417.966821 
L 585.157793 399.253456 
L 585.959257 355.402426 
L 588.203353 222.767111 
L 588.844524 198.225115 
L 589.325402 185.840696 
L 589.80628 178.685476 
L 590.126865 176.70976 
L 590.287157 176.51601 
L 590.44745 176.826549 
L 590.768035 178.873887 
L 591.088621 182.663764 
L 591.569498 191.161123 
L 592.210669 206.58689 
L 593.332717 239.977061 
L 595.095936 292.572837 
L 596.057692 315.30739 
L 596.859155 329.744117 
L 597.660618 340.074037 
L 598.301789 345.649386 
L 598.942959 349.18444 
L 599.423837 350.724715 
L 599.904715 351.497931 
L 600.2253 351.668453 
L 600.545885 351.617522 
L 601.026763 351.221541 
L 601.667934 350.30468 
L 603.751738 347.002534 
L 604.392908 346.455212 
L 604.873786 346.271533 
L 605.354664 346.288981 
L 605.835542 346.50292 
L 606.476713 347.071681 
L 607.278176 348.173657 
L 608.239931 349.924191 
L 610.00315 353.717414 
L 611.926662 357.709389 
L 613.209003 359.895254 
L 613.529588 188.354569 
L 613.850173 111.57542 
L 614.170759 87.137367 
L 614.331051 85.806975 
L 614.491344 88.587817 
L 614.972222 107.084872 
L 615.4531 124.35176 
L 615.773685 130.92918 
L 616.09427 133.244224 
L 616.254563 132.992618 
L 616.575148 130.251755 
L 617.056026 122.444094 
L 618.017782 104.113843 
L 618.338367 239.356969 
L 618.658952 303.098883 
L 618.979537 328.752212 
L 619.300123 337.000187 
L 619.941293 343.305758 
L 620.261878 350.034163 
L 620.742756 366.488312 
L 622.18539 422.948648 
L 622.505975 428.926113 
L 622.82656 430.92 
L 622.986853 430.361274 
L 623.307438 426.153234 
L 623.628023 418.013142 
L 624.108901 399.29948 
L 624.910364 355.444588 
L 627.154461 222.790487 
L 627.795632 198.243444 
L 628.27651 185.855661 
L 628.757387 178.697485 
L 629.077973 176.72003 
L 629.238265 176.52548 
L 629.398558 176.835266 
L 629.719143 178.88123 
L 630.039728 182.669907 
L 630.520606 191.165772 
L 631.161777 206.59006 
L 632.283825 239.978778 
L 634.047044 292.574136 
L 635.0088 315.308928 
L 635.810263 329.74593 
L 636.611726 340.07612 
L 637.252897 345.651652 
L 637.894067 349.186845 
L 638.374945 350.727192 
L 638.855823 351.500452 
L 639.176408 351.670987 
L 639.496993 351.620057 
L 639.977871 351.224056 
L 640.619042 350.307132 
L 642.702846 347.004574 
L 643.344016 346.457087 
L 643.824894 346.27328 
L 644.305772 346.2906 
L 644.78665 346.50441 
L 645.42782 347.073004 
L 646.229284 348.174782 
L 647.191039 349.925098 
L 648.954258 353.717993 
L 650.87777 357.709717 
L 652.160111 359.895469 
L 653.282159 361.408833 
L 653.92333 362.106154 
L 654.243915 190.39044 
L 654.5645 113.441571 
L 654.885085 88.839687 
L 655.045378 87.429836 
L 655.205671 90.132991 
L 655.686548 108.408483 
L 656.167426 125.472457 
L 656.488012 131.925517 
L 656.808597 134.125079 
L 656.968889 133.819054 
L 657.289475 130.975915 
L 657.770353 123.030809 
L 658.732108 104.478957 
L 659.052694 239.661991 
L 659.373279 303.349605 
L 659.693864 328.954151 
L 660.014449 337.158611 
L 660.65562 343.391943 
L 660.976205 350.091081 
L 661.457083 366.509075 
L 662.899717 422.906839 
L 663.220302 428.877724 
L 663.540887 430.867043 
L 663.70118 430.306699 
L 664.021765 426.096588 
L 664.34235 417.955776 
L 664.823228 399.243064 
L 665.624691 355.393531 
L 667.868788 222.762785 
L 668.509958 198.221829 
L 668.990836 185.838075 
L 669.471714 178.68342 
L 669.792299 176.708027 
L 669.952592 176.514423 
L 670.112885 176.825098 
L 670.43347 178.872678 
L 670.754055 182.662761 
L 671.234933 191.160368 
L 671.876104 206.586365 
L 672.998152 239.976727 
L 674.761371 292.572492 
L 675.723127 315.306976 
L 676.52459 329.743644 
L 677.326053 340.073514 
L 677.967223 345.648835 
L 678.608394 349.183872 
L 679.089272 350.724142 
L 679.57015 351.49736 
L 679.890735 351.667886 
L 680.21132 351.616961 
L 680.692198 351.220995 
L 681.333368 350.304159 
L 683.417173 347.002127 
L 684.058343 346.454845 
L 684.539221 346.271195 
L 685.020099 346.288673 
L 685.500977 346.502639 
L 686.142147 347.071436 
L 686.94361 348.173454 
L 687.905366 349.924031 
L 689.668585 353.717317 
L 691.592096 357.709336 
L 692.874437 359.89522 
L 693.996486 361.408667 
L 694.156778 361.594147 
L 694.477364 189.923798 
L 694.797949 113.018179 
L 695.118534 88.4574 
L 695.278827 87.067269 
L 695.439119 89.789575 
L 695.919997 108.119002 
L 696.400875 125.231511 
L 696.72146 131.713912 
L 697.042046 133.940438 
L 697.202338 133.647022 
L 697.522924 130.827404 
L 698.003801 122.913519 
L 698.965557 104.410908 
L 699.286142 239.607115 
L 699.606728 303.306527 
L 699.927313 328.921562 
L 700.247898 337.135265 
L 700.889069 343.383614 
L 701.209654 350.088668 
L 701.690532 366.513758 
L 703.133165 422.922508 
L 703.453751 428.894237 
L 703.774336 430.883976 
L 703.934629 430.323706 
L 704.255214 426.113505 
L 704.575799 417.972337 
L 705.056677 399.258707 
L 705.85814 355.406988 
L 708.102237 222.769399 
L 708.743407 198.226866 
L 709.224285 185.842101 
L 709.705163 178.686584 
L 710.025748 176.710697 
L 710.186041 176.516869 
L 710.346334 176.827336 
L 710.666919 178.874544 
L 710.987504 182.664309 
L 711.468382 191.161533 
L 712.109552 206.587172 
L 713.231601 239.977231 
L 714.99482 292.573 
L 715.956575 315.307587 
L 716.758039 329.744345 
L 717.559502 340.074291 
L 718.200672 345.649656 
L 718.841843 349.18472 
L 719.322721 350.724999 
L 719.803598 351.498216 
L 720.124184 351.668737 
L 720.444769 351.617804 
L 720.925647 351.221817 
L 721.566817 350.304945 
L 723.650621 347.002744 
L 724.291792 346.455402 
L 724.77267 346.271709 
L 725.253548 346.289143 
L 725.734426 346.503067 
L 726.375596 347.07181 
L 727.177059 348.173765 
L 728.138815 349.924277 
L 729.902034 353.717467 
L 731.825545 357.709417 
L 733.107886 359.895272 
L 734.069642 361.215642 
L 734.390227 189.576782 
L 734.710813 112.701468 
L 735.031398 88.169741 
L 735.19169 86.793633 
L 735.351983 89.529609 
L 735.832861 107.897809 
L 736.313739 125.045557 
L 736.634324 131.549427 
L 736.954909 133.795801 
L 737.115202 133.511707 
L 737.435787 130.709553 
L 737.916665 122.819015 
L 738.878421 104.353694 
L 739.199006 239.559955 
L 739.519591 303.268418 
L 739.840177 328.89155 
L 740.160762 337.112441 
L 740.801932 343.372617 
L 741.122518 350.082409 
L 741.603395 366.513284 
L 743.046029 422.931629 
L 743.366614 428.904267 
L 743.6872 430.894584 
L 743.847492 430.334494 
L 744.168077 426.124465 
L 744.488663 417.983251 
L 744.969541 399.269231 
L 745.771004 355.416286 
L 748.0151 222.774221 
L 748.656271 198.230587 
L 749.137149 185.845103 
L 749.618027 178.688965 
L 749.938612 176.712717 
L 750.098905 176.518726 
L 750.259197 176.829039 
L 750.579782 178.875968 
L 750.900368 182.665493 
L 751.381246 191.162423 
L 752.022416 206.58778 
L 753.144464 239.977579 
L 754.907683 292.57331 
L 755.869439 315.30796 
L 756.670902 329.74478 
L 757.472365 340.074783 
L 758.113536 345.650183 
L 758.754706 349.185272 
L 759.235584 350.725562 
L 759.716462 351.498784 
L 760.037047 351.669305 
L 760.357633 351.618368 
L 760.83851 351.222373 
L 761.479681 350.305481 
L 763.563485 347.003177 
L 764.204656 346.455797 
L 764.685533 346.272074 
L 765.166411 346.289479 
L 765.647289 346.503375 
L 766.28846 347.072081 
L 767.089923 348.173993 
L 768.051679 349.924458 
L 769.814897 353.71758 
L 771.738409 357.70948 
L 773.02075 359.895312 
L 773.822213 361.014964 
L 774.142798 189.392153 
L 774.463384 112.532378 
L 774.783969 88.015632 
L 774.944261 86.646783 
L 775.104554 89.389851 
L 775.585432 107.778257 
L 776.06631 124.944483 
L 776.386895 131.459664 
L 776.70748 133.716532 
L 776.867773 133.437379 
L 777.188358 130.644507 
L 777.669236 122.766428 
L 778.630992 104.321156 
L 778.951577 239.532846 
L 779.272162 303.246212 
L 779.592748 328.873746 
L 779.913333 337.098559 
L 780.554503 343.365234 
L 780.875089 350.077653 
L 781.355966 366.511766 
L 782.7986 422.935667 
L 783.119185 428.908877 
L 783.439771 430.899586 
L 783.600063 430.339631 
L 783.920648 426.129769 
L 784.241234 417.988601 
L 784.722112 399.274467 
L 785.523575 355.420999 
L 787.767671 222.776751 
L 788.408842 198.232556 
L 788.88972 185.846701 
L 789.370598 178.69024 
L 789.691183 176.713804 
L 789.851476 176.519725 
L 790.011768 176.829957 
L 790.332353 178.876739 
L 790.652939 182.666135 
L 791.133817 191.162907 
L 791.774987 206.588109 
L 792.897035 239.97776 
L 794.660254 292.573457 
L 795.62201 315.308136 
L 796.423473 329.744988 
L 797.224936 340.07502 
L 797.866107 345.65044 
L 798.507277 349.185544 
L 798.988155 350.725841 
L 799.469033 351.499067 
L 799.789618 351.669588 
L 800.110204 351.618651 
L 800.591081 351.222652 
L 801.232252 350.305752 
L 803.316056 347.0034 
L 803.957227 346.456001 
L 804.438104 346.272264 
L 804.918982 346.289654 
L 805.39986 346.503536 
L 806.041031 347.072223 
L 806.842494 348.174114 
L 807.80425 349.924555 
L 809.567468 353.717642 
L 811.49098 357.709514 
L 812.773321 359.895335 
L 813.414491 360.80657 
L 813.735077 189.199976 
L 814.055662 112.355971 
L 814.376247 87.854486 
L 814.53654 86.493052 
L 814.696832 89.243378 
L 815.17771 107.652521 
L 815.658588 124.83779 
L 815.979173 131.364665 
L 816.299759 133.632408 
L 816.460051 133.358386 
L 816.780637 130.575167 
L 817.261514 122.710082 
L 818.22327 104.285822 
L 818.543855 239.50322 
L 818.864441 303.22175 
L 819.185026 328.853928 
L 819.505611 337.082892 
L 820.146782 343.356476 
L 820.467367 350.071703 
L 820.948245 366.509297 
L 822.390878 422.939294 
L 822.711464 428.913162 
L 823.032049 430.904337 
L 823.192342 430.344552 
L 823.512927 426.134916 
L 823.833512 417.993844 
L 824.31439 399.279659 
L 825.115853 355.425736 
L 827.35995 222.779358 
L 828.00112 198.234596 
L 828.481998 185.848364 
L 828.962876 178.691572 
L 829.283461 176.714942 
L 829.443754 176.520774 
L 829.604047 176.830922 
L 829.924632 178.87755 
L 830.245217 182.666814 
L 830.726095 191.163419 
L 831.367265 206.588456 
L 832.489314 239.977947 
L 834.252533 292.5736 
L 835.214288 315.308306 
L 836.015752 329.745189 
L 836.817215 340.075252 
L 837.458385 345.650693 
L 838.099556 349.185812 
L 838.580434 350.726117 
L 839.061311 351.499348 
L 839.381897 351.66987 
L 839.702482 351.618933 
L 840.18336 351.222933 
L 840.82453 350.306026 
L 842.908334 347.003627 
L 843.549505 346.45621 
L 844.030383 346.272458 
L 844.511261 346.289834 
L 844.992139 346.503701 
L 845.633309 347.07237 
L 846.434772 348.174239 
L 847.396528 349.924656 
L 849.159747 353.717706 
L 851.083258 357.709551 
L 852.365599 359.895358 
L 853.487648 361.408758 
L 854.609696 362.553508 
L 854.930281 190.795184 
L 855.250867 113.806108 
L 855.571452 89.166381 
L 855.731744 87.738498 
L 855.892037 90.424218 
L 856.372915 108.651007 
L 856.853793 125.671662 
L 857.174378 132.098775 
L 857.494963 134.274664 
L 857.655256 133.957628 
L 857.975841 131.094055 
L 858.456719 123.122065 
L 859.418475 104.528492 
L 859.73906 239.700476 
L 860.059645 303.378263 
L 860.380231 328.974145 
L 860.700816 337.171044 
L 861.341986 343.392309 
L 861.662572 350.086808 
L 862.143449 366.499383 
L 863.586083 422.889677 
L 863.906668 428.860234 
L 864.227254 430.849566 
L 864.387546 430.289338 
L 864.708131 426.079645 
L 865.028717 417.939455 
L 865.509595 399.227958 
L 866.311058 355.380888 
L 868.555154 222.756927 
L 869.196325 198.217436 
L 869.677203 185.834602 
L 870.158081 178.680718 
L 870.478666 176.705759 
L 870.638959 176.512349 
L 870.799251 176.823205 
L 871.119836 178.871105 
L 871.440422 182.661457 
L 871.9213 191.15938 
L 872.56247 206.58566 
L 873.684518 239.976234 
L 875.447737 292.571931 
L 876.409493 315.306309 
L 877.210956 329.742894 
L 878.012419 340.0727 
L 878.65359 345.647988 
L 879.29476 349.183009 
L 879.775638 350.723279 
L 880.256516 351.496506 
L 880.577101 351.667043 
L 880.897687 351.616133 
L 881.378564 351.220193 
L 882.019735 350.303401 
L 884.103539 347.001552 
L 884.74471 346.454329 
L 885.225587 346.270724 
L 885.706465 346.288244 
L 886.187343 346.502252 
L 886.828514 347.071101 
L 887.629977 348.173178 
L 888.591733 349.923817 
L 890.354951 353.717189 
L 892.278463 357.709269 
L 893.560804 359.895179 
L 894.362267 361.014866 
L 894.682852 189.392066 
L 895.003438 112.532302 
L 895.324023 88.015564 
L 895.484315 86.64672 
L 895.644608 89.389792 
L 896.125486 107.778209 
L 896.606364 124.944445 
L 896.926949 131.459631 
L 897.247534 133.716504 
L 897.407827 133.437353 
L 897.728412 130.644485 
L 898.20929 122.766412 
L 899.171046 104.321148 
L 899.491631 239.53284 
L 899.812216 303.246208 
L 900.132802 328.873743 
L 900.453387 337.098558 
L 901.094557 343.365235 
L 901.415143 350.077655 
L 901.89602 366.511768 
L 903.338654 422.93567 
L 903.659239 428.90888 
L 903.979825 430.899589 
L 904.140117 430.339634 
L 904.460702 426.129771 
L 904.781288 417.988603 
L 905.262166 399.27447 
L 906.063629 355.421001 
L 908.307725 222.776752 
L 908.948896 198.232556 
L 909.429774 185.846702 
L 909.910652 178.690241 
L 910.231237 176.713804 
L 910.39153 176.519726 
L 910.551822 176.829958 
L 910.872407 178.876739 
L 911.192993 182.666136 
L 911.673871 191.162908 
L 912.315041 206.58811 
L 913.437089 239.977761 
L 915.200308 292.573458 
L 916.162064 315.308137 
L 916.963527 329.744988 
L 917.76499 340.075021 
L 918.406161 345.650441 
L 919.047331 349.185544 
L 919.528209 350.725842 
L 920.009087 351.499067 
L 920.329672 351.669589 
L 920.650258 351.618651 
L 921.131135 351.222653 
L 921.772306 350.305753 
L 923.85611 347.0034 
L 924.497281 346.456001 
L 924.978158 346.272264 
L 925.459036 346.289654 
L 925.939914 346.503536 
L 926.581085 347.072223 
L 927.382548 348.174114 
L 928.344304 349.924555 
L 930.107522 353.717642 
L 932.031034 357.709514 
L 933.313375 359.895335 
L 933.794253 360.590413 
L 933.954545 259.505005 
L 933.954545 259.505005 
" clip-path="url(#p8887386a68)" style="fill: none; stroke: #1f77b4; stroke-width: 1.5; stroke-linecap: square"/>
   </g>
   <g id="line2d_14">
    <path d="M 173.045455 78.12 
L 177.693941 78.12 
L 177.854233 364.269491 
L 213.278903 364.269491 
L 213.439196 78.12 
L 218.087682 78.12 
L 218.247975 364.269491 
L 253.99323 364.269491 
L 254.153523 78.12 
L 258.802009 78.12 
L 258.962302 364.269491 
L 293.585509 364.269491 
L 293.745801 78.12 
L 298.394287 78.12 
L 298.55458 364.269491 
L 333.818957 364.269491 
L 333.97925 78.12 
L 338.627736 78.12 
L 338.788029 364.269491 
L 373.090651 364.269491 
L 373.250943 78.12 
L 377.899429 78.12 
L 378.059722 364.269491 
L 413.644685 364.269491 
L 413.804977 78.12 
L 418.453463 78.12 
L 418.613756 364.269491 
L 453.557548 364.269491 
L 453.717841 78.12 
L 458.366327 78.12 
L 458.52662 364.269491 
L 493.630705 364.269491 
L 493.790997 78.12 
L 498.439483 78.12 
L 498.599776 364.269491 
L 533.864153 364.269491 
L 534.024446 78.12 
L 538.672932 78.12 
L 538.833225 364.269491 
L 574.257895 364.269491 
L 574.418188 78.12 
L 579.066674 78.12 
L 579.226966 364.269491 
L 613.209003 364.269491 
L 613.369295 78.12 
L 618.017782 78.12 
L 618.178074 364.269491 
L 653.92333 364.269491 
L 654.083622 78.12 
L 658.732108 78.12 
L 658.892401 364.269491 
L 694.156778 364.269491 
L 694.317071 78.12 
L 698.965557 78.12 
L 699.12585 364.269491 
L 734.069642 364.269491 
L 734.229935 78.12 
L 738.878421 78.12 
L 739.038713 364.269491 
L 773.822213 364.269491 
L 773.982506 78.12 
L 778.630992 78.12 
L 778.791284 364.269491 
L 813.414491 364.269491 
L 813.574784 78.12 
L 818.22327 78.12 
L 818.383563 364.269491 
L 854.609696 364.269491 
L 854.769989 78.12 
L 859.418475 78.12 
L 859.578767 364.269491 
L 894.362267 364.269491 
L 894.52256 78.12 
L 899.171046 78.12 
L 899.331338 364.269491 
L 933.794253 364.269491 
L 933.954545 78.12 
L 933.954545 78.12 
" clip-path="url(#p8887386a68)" style="fill: none; stroke: #ff7f0e; stroke-width: 1.5; stroke-linecap: square"/>
   </g>
   <g id="line2d_15">
    <path d="M 929.466352 364.269491 
" clip-path="url(#p8887386a68)" style="fill: none; stroke: #000000; stroke-width: 1.5; stroke-linecap: square"/>
    <defs>
     <path id="ma08ee21390" d="M 0 1 
C 0.265203 1 0.51958 0.894634 0.707107 0.707107 
C 0.894634 0.51958 1 0.265203 1 0 
C 1 -0.265203 0.894634 -0.51958 0.707107 -0.707107 
C 0.51958 -0.894634 0.265203 -1 0 -1 
C -0.265203 -1 -0.51958 -0.894634 -0.707107 -0.707107 
C -0.894634 -0.51958 -1 -0.265203 -1 0 
C -1 0.265203 -0.894634 0.51958 -0.707107 0.707107 
C -0.51958 0.894634 -0.265203 1 0 1 
z
" style="stroke: #000000"/>
    </defs>
    <g clip-path="url(#p8887386a68)">
     <use xlink:href="#ma08ee21390" x="173.045455" y="78.12" style="stroke: #000000"/>
     <use xlink:href="#ma08ee21390" x="178.174819" y="364.269491" style="stroke: #000000"/>
     <use xlink:href="#ma08ee21390" x="183.14389" y="364.269491" style="stroke: #000000"/>
     <use xlink:href="#ma08ee21390" x="188.112961" y="78.12" style="stroke: #000000"/>
     <use xlink:href="#ma08ee21390" x="193.082033" y="364.269491" style="stroke: #000000"/>
     <use xlink:href="#ma08ee21390" x="198.211397" y="364.269491" style="stroke: #000000"/>
     <use xlink:href="#ma08ee21390" x="203.180468" y="78.12" style="stroke: #000000"/>
     <use xlink:href="#ma08ee21390" x="208.149539" y="364.269491" style="stroke: #000000"/>
     <use xlink:href="#ma08ee21390" x="213.118611" y="78.12" style="stroke: #000000"/>
     <use xlink:href="#ma08ee21390" x="218.247975" y="364.269491" style="stroke: #000000"/>
     <use xlink:href="#ma08ee21390" x="223.217046" y="364.269491" style="stroke: #000000"/>
     <use xlink:href="#ma08ee21390" x="228.186118" y="78.12" style="stroke: #000000"/>
     <use xlink:href="#ma08ee21390" x="233.155189" y="364.269491" style="stroke: #000000"/>
     <use xlink:href="#ma08ee21390" x="238.284553" y="364.269491" style="stroke: #000000"/>
     <use xlink:href="#ma08ee21390" x="243.253624" y="78.12" style="stroke: #000000"/>
     <use xlink:href="#ma08ee21390" x="248.222696" y="364.269491" style="stroke: #000000"/>
     <use xlink:href="#ma08ee21390" x="253.191767" y="78.12" style="stroke: #000000"/>
     <use xlink:href="#ma08ee21390" x="258.321131" y="364.269491" style="stroke: #000000"/>
     <use xlink:href="#ma08ee21390" x="263.290202" y="364.269491" style="stroke: #000000"/>
     <use xlink:href="#ma08ee21390" x="268.259274" y="78.12" style="stroke: #000000"/>
     <use xlink:href="#ma08ee21390" x="273.228345" y="364.269491" style="stroke: #000000"/>
     <use xlink:href="#ma08ee21390" x="278.357709" y="364.269491" style="stroke: #000000"/>
     <use xlink:href="#ma08ee21390" x="283.326781" y="78.12" style="stroke: #000000"/>
     <use xlink:href="#ma08ee21390" x="288.295852" y="364.269491" style="stroke: #000000"/>
     <use xlink:href="#ma08ee21390" x="293.264923" y="78.12" style="stroke: #000000"/>
     <use xlink:href="#ma08ee21390" x="298.394287" y="364.269491" style="stroke: #000000"/>
     <use xlink:href="#ma08ee21390" x="303.363359" y="364.269491" style="stroke: #000000"/>
     <use xlink:href="#ma08ee21390" x="308.33243" y="78.12" style="stroke: #000000"/>
     <use xlink:href="#ma08ee21390" x="313.301501" y="364.269491" style="stroke: #000000"/>
     <use xlink:href="#ma08ee21390" x="318.430865" y="364.269491" style="stroke: #000000"/>
     <use xlink:href="#ma08ee21390" x="323.399937" y="78.12" style="stroke: #000000"/>
     <use xlink:href="#ma08ee21390" x="328.369008" y="364.269491" style="stroke: #000000"/>
     <use xlink:href="#ma08ee21390" x="333.33808" y="78.12" style="stroke: #000000"/>
     <use xlink:href="#ma08ee21390" x="338.467444" y="364.269491" style="stroke: #000000"/>
     <use xlink:href="#ma08ee21390" x="343.436515" y="364.269491" style="stroke: #000000"/>
     <use xlink:href="#ma08ee21390" x="348.405586" y="78.12" style="stroke: #000000"/>
     <use xlink:href="#ma08ee21390" x="353.374658" y="364.269491" style="stroke: #000000"/>
     <use xlink:href="#ma08ee21390" x="358.504022" y="364.269491" style="stroke: #000000"/>
     <use xlink:href="#ma08ee21390" x="363.473093" y="78.12" style="stroke: #000000"/>
     <use xlink:href="#ma08ee21390" x="368.442164" y="364.269491" style="stroke: #000000"/>
     <use xlink:href="#ma08ee21390" x="373.411236" y="78.12" style="stroke: #000000"/>
     <use xlink:href="#ma08ee21390" x="378.5406" y="364.269491" style="stroke: #000000"/>
     <use xlink:href="#ma08ee21390" x="383.509671" y="364.269491" style="stroke: #000000"/>
     <use xlink:href="#ma08ee21390" x="388.478743" y="78.12" style="stroke: #000000"/>
     <use xlink:href="#ma08ee21390" x="393.447814" y="364.269491" style="stroke: #000000"/>
     <use xlink:href="#ma08ee21390" x="398.577178" y="364.269491" style="stroke: #000000"/>
     <use xlink:href="#ma08ee21390" x="403.546249" y="78.12" style="stroke: #000000"/>
     <use xlink:href="#ma08ee21390" x="408.515321" y="364.269491" style="stroke: #000000"/>
     <use xlink:href="#ma08ee21390" x="413.484392" y="78.12" style="stroke: #000000"/>
     <use xlink:href="#ma08ee21390" x="418.613756" y="364.269491" style="stroke: #000000"/>
     <use xlink:href="#ma08ee21390" x="423.582827" y="364.269491" style="stroke: #000000"/>
     <use xlink:href="#ma08ee21390" x="428.551899" y="78.12" style="stroke: #000000"/>
     <use xlink:href="#ma08ee21390" x="433.52097" y="364.269491" style="stroke: #000000"/>
     <use xlink:href="#ma08ee21390" x="438.650334" y="364.269491" style="stroke: #000000"/>
     <use xlink:href="#ma08ee21390" x="443.619406" y="78.12" style="stroke: #000000"/>
     <use xlink:href="#ma08ee21390" x="448.588477" y="364.269491" style="stroke: #000000"/>
     <use xlink:href="#ma08ee21390" x="453.557548" y="78.12" style="stroke: #000000"/>
     <use xlink:href="#ma08ee21390" x="458.686912" y="364.269491" style="stroke: #000000"/>
     <use xlink:href="#ma08ee21390" x="463.655984" y="364.269491" style="stroke: #000000"/>
     <use xlink:href="#ma08ee21390" x="468.625055" y="78.12" style="stroke: #000000"/>
     <use xlink:href="#ma08ee21390" x="473.594126" y="364.269491" style="stroke: #000000"/>
     <use xlink:href="#ma08ee21390" x="478.72349" y="364.269491" style="stroke: #000000"/>
     <use xlink:href="#ma08ee21390" x="483.692562" y="78.12" style="stroke: #000000"/>
     <use xlink:href="#ma08ee21390" x="488.661633" y="364.269491" style="stroke: #000000"/>
     <use xlink:href="#ma08ee21390" x="493.630705" y="78.12" style="stroke: #000000"/>
     <use xlink:href="#ma08ee21390" x="498.760069" y="364.269491" style="stroke: #000000"/>
     <use xlink:href="#ma08ee21390" x="503.72914" y="364.269491" style="stroke: #000000"/>
     <use xlink:href="#ma08ee21390" x="508.698211" y="78.12" style="stroke: #000000"/>
     <use xlink:href="#ma08ee21390" x="513.667283" y="364.269491" style="stroke: #000000"/>
     <use xlink:href="#ma08ee21390" x="518.796647" y="364.269491" style="stroke: #000000"/>
     <use xlink:href="#ma08ee21390" x="523.765718" y="78.12" style="stroke: #000000"/>
     <use xlink:href="#ma08ee21390" x="528.734789" y="364.269491" style="stroke: #000000"/>
     <use xlink:href="#ma08ee21390" x="533.703861" y="78.12" style="stroke: #000000"/>
     <use xlink:href="#ma08ee21390" x="538.833225" y="364.269491" style="stroke: #000000"/>
     <use xlink:href="#ma08ee21390" x="543.802296" y="364.269491" style="stroke: #000000"/>
     <use xlink:href="#ma08ee21390" x="548.771368" y="78.12" style="stroke: #000000"/>
     <use xlink:href="#ma08ee21390" x="553.740439" y="364.269491" style="stroke: #000000"/>
     <use xlink:href="#ma08ee21390" x="558.869803" y="364.269491" style="stroke: #000000"/>
     <use xlink:href="#ma08ee21390" x="563.838874" y="78.12" style="stroke: #000000"/>
     <use xlink:href="#ma08ee21390" x="568.807946" y="364.269491" style="stroke: #000000"/>
     <use xlink:href="#ma08ee21390" x="573.777017" y="78.12" style="stroke: #000000"/>
     <use xlink:href="#ma08ee21390" x="578.906381" y="364.269491" style="stroke: #000000"/>
     <use xlink:href="#ma08ee21390" x="583.875452" y="364.269491" style="stroke: #000000"/>
     <use xlink:href="#ma08ee21390" x="588.844524" y="78.12" style="stroke: #000000"/>
     <use xlink:href="#ma08ee21390" x="593.813595" y="364.269491" style="stroke: #000000"/>
     <use xlink:href="#ma08ee21390" x="598.942959" y="364.269491" style="stroke: #000000"/>
     <use xlink:href="#ma08ee21390" x="603.912031" y="78.12" style="stroke: #000000"/>
     <use xlink:href="#ma08ee21390" x="608.881102" y="364.269491" style="stroke: #000000"/>
     <use xlink:href="#ma08ee21390" x="613.850173" y="78.12" style="stroke: #000000"/>
     <use xlink:href="#ma08ee21390" x="618.979537" y="364.269491" style="stroke: #000000"/>
     <use xlink:href="#ma08ee21390" x="623.948609" y="364.269491" style="stroke: #000000"/>
     <use xlink:href="#ma08ee21390" x="628.91768" y="78.12" style="stroke: #000000"/>
     <use xlink:href="#ma08ee21390" x="633.886751" y="364.269491" style="stroke: #000000"/>
     <use xlink:href="#ma08ee21390" x="639.016115" y="364.269491" style="stroke: #000000"/>
     <use xlink:href="#ma08ee21390" x="643.985187" y="78.12" style="stroke: #000000"/>
     <use xlink:href="#ma08ee21390" x="648.954258" y="364.269491" style="stroke: #000000"/>
     <use xlink:href="#ma08ee21390" x="653.92333" y="78.12" style="stroke: #000000"/>
     <use xlink:href="#ma08ee21390" x="659.052694" y="364.269491" style="stroke: #000000"/>
     <use xlink:href="#ma08ee21390" x="664.021765" y="364.269491" style="stroke: #000000"/>
     <use xlink:href="#ma08ee21390" x="668.990836" y="78.12" style="stroke: #000000"/>
     <use xlink:href="#ma08ee21390" x="673.959908" y="364.269491" style="stroke: #000000"/>
     <use xlink:href="#ma08ee21390" x="679.089272" y="364.269491" style="stroke: #000000"/>
     <use xlink:href="#ma08ee21390" x="684.058343" y="78.12" style="stroke: #000000"/>
     <use xlink:href="#ma08ee21390" x="689.027414" y="364.269491" style="stroke: #000000"/>
     <use xlink:href="#ma08ee21390" x="693.996486" y="78.12" style="stroke: #000000"/>
     <use xlink:href="#ma08ee21390" x="699.12585" y="364.269491" style="stroke: #000000"/>
     <use xlink:href="#ma08ee21390" x="704.094921" y="364.269491" style="stroke: #000000"/>
     <use xlink:href="#ma08ee21390" x="709.063993" y="78.12" style="stroke: #000000"/>
     <use xlink:href="#ma08ee21390" x="714.033064" y="364.269491" style="stroke: #000000"/>
     <use xlink:href="#ma08ee21390" x="719.162428" y="364.269491" style="stroke: #000000"/>
     <use xlink:href="#ma08ee21390" x="724.131499" y="78.12" style="stroke: #000000"/>
     <use xlink:href="#ma08ee21390" x="729.100571" y="364.269491" style="stroke: #000000"/>
     <use xlink:href="#ma08ee21390" x="734.069642" y="78.12" style="stroke: #000000"/>
     <use xlink:href="#ma08ee21390" x="739.199006" y="364.269491" style="stroke: #000000"/>
     <use xlink:href="#ma08ee21390" x="744.168077" y="364.269491" style="stroke: #000000"/>
     <use xlink:href="#ma08ee21390" x="749.137149" y="78.12" style="stroke: #000000"/>
     <use xlink:href="#ma08ee21390" x="754.10622" y="364.269491" style="stroke: #000000"/>
     <use xlink:href="#ma08ee21390" x="759.235584" y="364.269491" style="stroke: #000000"/>
     <use xlink:href="#ma08ee21390" x="764.204656" y="78.12" style="stroke: #000000"/>
     <use xlink:href="#ma08ee21390" x="769.173727" y="364.269491" style="stroke: #000000"/>
     <use xlink:href="#ma08ee21390" x="774.142798" y="78.12" style="stroke: #000000"/>
     <use xlink:href="#ma08ee21390" x="779.272162" y="364.269491" style="stroke: #000000"/>
     <use xlink:href="#ma08ee21390" x="784.241234" y="364.269491" style="stroke: #000000"/>
     <use xlink:href="#ma08ee21390" x="789.210305" y="78.12" style="stroke: #000000"/>
     <use xlink:href="#ma08ee21390" x="794.179376" y="364.269491" style="stroke: #000000"/>
     <use xlink:href="#ma08ee21390" x="799.30874" y="364.269491" style="stroke: #000000"/>
     <use xlink:href="#ma08ee21390" x="804.277812" y="78.12" style="stroke: #000000"/>
     <use xlink:href="#ma08ee21390" x="809.246883" y="364.269491" style="stroke: #000000"/>
     <use xlink:href="#ma08ee21390" x="814.215955" y="78.12" style="stroke: #000000"/>
     <use xlink:href="#ma08ee21390" x="819.345319" y="364.269491" style="stroke: #000000"/>
     <use xlink:href="#ma08ee21390" x="824.31439" y="364.269491" style="stroke: #000000"/>
     <use xlink:href="#ma08ee21390" x="829.283461" y="78.12" style="stroke: #000000"/>
     <use xlink:href="#ma08ee21390" x="834.252533" y="364.269491" style="stroke: #000000"/>
     <use xlink:href="#ma08ee21390" x="839.381897" y="364.269491" style="stroke: #000000"/>
     <use xlink:href="#ma08ee21390" x="844.350968" y="78.12" style="stroke: #000000"/>
     <use xlink:href="#ma08ee21390" x="849.320039" y="364.269491" style="stroke: #000000"/>
     <use xlink:href="#ma08ee21390" x="854.289111" y="78.12" style="stroke: #000000"/>
     <use xlink:href="#ma08ee21390" x="859.418475" y="364.269491" style="stroke: #000000"/>
     <use xlink:href="#ma08ee21390" x="864.387546" y="364.269491" style="stroke: #000000"/>
     <use xlink:href="#ma08ee21390" x="869.356618" y="78.12" style="stroke: #000000"/>
     <use xlink:href="#ma08ee21390" x="874.325689" y="364.269491" style="stroke: #000000"/>
     <use xlink:href="#ma08ee21390" x="879.455053" y="364.269491" style="stroke: #000000"/>
     <use xlink:href="#ma08ee21390" x="884.424124" y="78.12" style="stroke: #000000"/>
     <use xlink:href="#ma08ee21390" x="889.393196" y="364.269491" style="stroke: #000000"/>
     <use xlink:href="#ma08ee21390" x="894.362267" y="78.12" style="stroke: #000000"/>
     <use xlink:href="#ma08ee21390" x="899.491631" y="364.269491" style="stroke: #000000"/>
     <use xlink:href="#ma08ee21390" x="904.460702" y="364.269491" style="stroke: #000000"/>
     <use xlink:href="#ma08ee21390" x="909.429774" y="78.12" style="stroke: #000000"/>
     <use xlink:href="#ma08ee21390" x="914.398845" y="364.269491" style="stroke: #000000"/>
     <use xlink:href="#ma08ee21390" x="919.528209" y="364.269491" style="stroke: #000000"/>
     <use xlink:href="#ma08ee21390" x="924.497281" y="78.12" style="stroke: #000000"/>
     <use xlink:href="#ma08ee21390" x="929.466352" y="364.269491" style="stroke: #000000"/>
    </g>
   </g>
   <g id="patch_3">
    <path d="M 135 448.56 
L 135 60.48 
" style="fill: none; stroke: #000000; stroke-width: 0.8; stroke-linejoin: miter; stroke-linecap: square"/>
   </g>
   <g id="patch_4">
    <path d="M 972 448.56 
L 972 60.48 
" style="fill: none; stroke: #000000; stroke-width: 0.8; stroke-linejoin: miter; stroke-linecap: square"/>
   </g>
   <g id="patch_5">
    <path d="M 135 448.56 
L 972 448.56 
" style="fill: none; stroke: #000000; stroke-width: 0.8; stroke-linejoin: miter; stroke-linecap: square"/>
   </g>
   <g id="patch_6">
    <path d="M 135 60.48 
L 972 60.48 
" style="fill: none; stroke: #000000; stroke-width: 0.8; stroke-linejoin: miter; stroke-linecap: square"/>
   </g>
   <g id="legend_1">
    <g id="patch_7">
     <path d="M 142 443.56 
L 211.084375 443.56 
Q 213.084375 443.56 213.084375 441.56 
L 213.084375 397.969375 
Q 213.084375 395.969375 211.084375 395.969375 
L 142 395.969375 
Q 140 395.969375 140 397.969375 
L 140 441.56 
Q 140 443.56 142 443.56 
z
" style="fill: #ffffff; opacity: 0.8; stroke: #cccccc; stroke-linejoin: miter"/>
    </g>
    <g id="line2d_16">
     <path d="M 144 404.067813 
L 154 404.067813 
L 164 404.067813 
" style="fill: none; stroke: #1f77b4; stroke-width: 1.5; stroke-linecap: square"/>
    </g>
    <g id="text_14">
     <!-- nw_0 -->
     <g transform="translate(172 407.567813) scale(0.1 -0.1)">
      <defs>
       <path id="DejaVuSans-6e" d="M 3513 2113 
L 3513 0 
L 2938 0 
L 2938 2094 
Q 2938 2591 2744 2837 
Q 2550 3084 2163 3084 
Q 1697 3084 1428 2787 
Q 1159 2491 1159 1978 
L 1159 0 
L 581 0 
L 581 3500 
L 1159 3500 
L 1159 2956 
Q 1366 3272 1645 3428 
Q 1925 3584 2291 3584 
Q 2894 3584 3203 3211 
Q 3513 2838 3513 2113 
z
" transform="scale(0.015625)"/>
       <path id="DejaVuSans-77" d="M 269 3500 
L 844 3500 
L 1563 769 
L 2278 3500 
L 2956 3500 
L 3675 769 
L 4391 3500 
L 4966 3500 
L 4050 0 
L 3372 0 
L 2619 2869 
L 1863 0 
L 1184 0 
L 269 3500 
z
" transform="scale(0.015625)"/>
       <path id="DejaVuSans-5f" d="M 3263 -1063 
L 3263 -1509 
L -63 -1509 
L -63 -1063 
L 3263 -1063 
z
" transform="scale(0.015625)"/>
      </defs>
      <use xlink:href="#DejaVuSans-6e"/>
      <use xlink:href="#DejaVuSans-77" x="63.378906"/>
      <use xlink:href="#DejaVuSans-5f" x="145.166016"/>
      <use xlink:href="#DejaVuSans-30" x="195.166016"/>
     </g>
    </g>
    <g id="line2d_17">
     <path d="M 144 419.024063 
L 154 419.024063 
L 164 419.024063 
" style="fill: none; stroke: #ff7f0e; stroke-width: 1.5; stroke-linecap: square"/>
    </g>
    <g id="text_15">
     <!-- input_0 -->
     <g transform="translate(172 422.524063) scale(0.1 -0.1)">
      <defs>
       <path id="DejaVuSans-69" d="M 603 3500 
L 1178 3500 
L 1178 0 
L 603 0 
L 603 3500 
z
M 603 4863 
L 1178 4863 
L 1178 4134 
L 603 4134 
L 603 4863 
z
" transform="scale(0.015625)"/>
       <path id="DejaVuSans-70" d="M 1159 525 
L 1159 -1331 
L 581 -1331 
L 581 3500 
L 1159 3500 
L 1159 2969 
Q 1341 3281 1617 3432 
Q 1894 3584 2278 3584 
Q 2916 3584 3314 3078 
Q 3713 2572 3713 1747 
Q 3713 922 3314 415 
Q 2916 -91 2278 -91 
Q 1894 -91 1617 61 
Q 1341 213 1159 525 
z
M 3116 1747 
Q 3116 2381 2855 2742 
Q 2594 3103 2138 3103 
Q 1681 3103 1420 2742 
Q 1159 2381 1159 1747 
Q 1159 1113 1420 752 
Q 1681 391 2138 391 
Q 2594 391 2855 752 
Q 3116 1113 3116 1747 
z
" transform="scale(0.015625)"/>
       <path id="DejaVuSans-75" d="M 544 1381 
L 544 3500 
L 1119 3500 
L 1119 1403 
Q 1119 906 1312 657 
Q 1506 409 1894 409 
Q 2359 409 2629 706 
Q 2900 1003 2900 1516 
L 2900 3500 
L 3475 3500 
L 3475 0 
L 2900 0 
L 2900 538 
Q 2691 219 2414 64 
Q 2138 -91 1772 -91 
Q 1169 -91 856 284 
Q 544 659 544 1381 
z
M 1991 3584 
L 1991 3584 
z
" transform="scale(0.015625)"/>
      </defs>
      <use xlink:href="#DejaVuSans-69"/>
      <use xlink:href="#DejaVuSans-6e" x="27.783203"/>
      <use xlink:href="#DejaVuSans-70" x="91.162109"/>
      <use xlink:href="#DejaVuSans-75" x="154.638672"/>
      <use xlink:href="#DejaVuSans-74" x="218.017578"/>
      <use xlink:href="#DejaVuSans-5f" x="257.226562"/>
      <use xlink:href="#DejaVuSans-30" x="307.226562"/>
     </g>
    </g>
    <g id="line2d_18">
     <path d="M 144 433.980312 
L 154 433.980312 
L 164 433.980312 
" style="fill: none; stroke: #000000; stroke-width: 1.5; stroke-linecap: square"/>
     <g>
      <use xlink:href="#ma08ee21390" x="154" y="433.980312" style="stroke: #000000"/>
     </g>
    </g>
    <g id="text_16">
     <!-- target -->
     <g transform="translate(172 437.480312) scale(0.1 -0.1)">
      <defs>
       <path id="DejaVuSans-61" d="M 2194 1759 
Q 1497 1759 1228 1600 
Q 959 1441 959 1056 
Q 959 750 1161 570 
Q 1363 391 1709 391 
Q 2188 391 2477 730 
Q 2766 1069 2766 1631 
L 2766 1759 
L 2194 1759 
z
M 3341 1997 
L 3341 0 
L 2766 0 
L 2766 531 
Q 2569 213 2275 61 
Q 1981 -91 1556 -91 
Q 1019 -91 701 211 
Q 384 513 384 1019 
Q 384 1609 779 1909 
Q 1175 2209 1959 2209 
L 2766 2209 
L 2766 2266 
Q 2766 2663 2505 2880 
Q 2244 3097 1772 3097 
Q 1472 3097 1187 3025 
Q 903 2953 641 2809 
L 641 3341 
Q 956 3463 1253 3523 
Q 1550 3584 1831 3584 
Q 2591 3584 2966 3190 
Q 3341 2797 3341 1997 
z
" transform="scale(0.015625)"/>
       <path id="DejaVuSans-72" d="M 2631 2963 
Q 2534 3019 2420 3045 
Q 2306 3072 2169 3072 
Q 1681 3072 1420 2755 
Q 1159 2438 1159 1844 
L 1159 0 
L 581 0 
L 581 3500 
L 1159 3500 
L 1159 2956 
Q 1341 3275 1631 3429 
Q 1922 3584 2338 3584 
Q 2397 3584 2469 3576 
Q 2541 3569 2628 3553 
L 2631 2963 
z
" transform="scale(0.015625)"/>
       <path id="DejaVuSans-67" d="M 2906 1791 
Q 2906 2416 2648 2759 
Q 2391 3103 1925 3103 
Q 1463 3103 1205 2759 
Q 947 2416 947 1791 
Q 947 1169 1205 825 
Q 1463 481 1925 481 
Q 2391 481 2648 825 
Q 2906 1169 2906 1791 
z
M 3481 434 
Q 3481 -459 3084 -895 
Q 2688 -1331 1869 -1331 
Q 1566 -1331 1297 -1286 
Q 1028 -1241 775 -1147 
L 775 -588 
Q 1028 -725 1275 -790 
Q 1522 -856 1778 -856 
Q 2344 -856 2625 -561 
Q 2906 -266 2906 331 
L 2906 616 
Q 2728 306 2450 153 
Q 2172 0 1784 0 
Q 1141 0 747 490 
Q 353 981 353 1791 
Q 353 2603 747 3093 
Q 1141 3584 1784 3584 
Q 2172 3584 2450 3431 
Q 2728 3278 2906 2969 
L 2906 3500 
L 3481 3500 
L 3481 434 
z
" transform="scale(0.015625)"/>
       <path id="DejaVuSans-65" d="M 3597 1894 
L 3597 1613 
L 953 1613 
Q 991 1019 1311 708 
Q 1631 397 2203 397 
Q 2534 397 2845 478 
Q 3156 559 3463 722 
L 3463 178 
Q 3153 47 2828 -22 
Q 2503 -91 2169 -91 
Q 1331 -91 842 396 
Q 353 884 353 1716 
Q 353 2575 817 3079 
Q 1281 3584 2069 3584 
Q 2775 3584 3186 3129 
Q 3597 2675 3597 1894 
z
M 3022 2063 
Q 3016 2534 2758 2815 
Q 2500 3097 2075 3097 
Q 1594 3097 1305 2825 
Q 1016 2553 972 2059 
L 3022 2063 
z
" transform="scale(0.015625)"/>
      </defs>
      <use xlink:href="#DejaVuSans-74"/>
      <use xlink:href="#DejaVuSans-61" x="39.208984"/>
      <use xlink:href="#DejaVuSans-72" x="100.488281"/>
      <use xlink:href="#DejaVuSans-67" x="139.851562"/>
      <use xlink:href="#DejaVuSans-65" x="203.328125"/>
      <use xlink:href="#DejaVuSans-74" x="264.851562"/>
     </g>
    </g>
   </g>
  </g>
 </g>
 <defs>
  <clipPath id="p8887386a68">
   <rect x="135" y="60.48" width="837" height="388.08"/>
  </clipPath>
 </defs>
</svg>
