<?xml version="1.0" encoding="utf-8" standalone="no"?>
<!DOCTYPE svg PUBLIC "-//W3C//DTD SVG 1.1//EN"
  "http://www.w3.org/Graphics/SVG/1.1/DTD/svg11.dtd">
<svg xmlns:xlink="http://www.w3.org/1999/xlink" width="1080pt" height="504pt" viewBox="0 0 1080 504" xmlns="http://www.w3.org/2000/svg" version="1.1">
 <metadata>
  <rdf:RDF xmlns:dc="http://purl.org/dc/elements/1.1/" xmlns:cc="http://creativecommons.org/ns#" xmlns:rdf="http://www.w3.org/1999/02/22-rdf-syntax-ns#">
   <cc:Work>
    <dc:type rdf:resource="http://purl.org/dc/dcmitype/StillImage"/>
    <dc:date>2024-05-09T11:39:08.527862</dc:date>
    <dc:format>image/svg+xml</dc:format>
    <dc:creator>
     <cc:Agent>
      <dc:title>Matplotlib v3.7.1, https://matplotlib.org/</dc:title>
     </cc:Agent>
    </dc:creator>
   </cc:Work>
  </rdf:RDF>
 </metadata>
 <defs>
  <style type="text/css">*{stroke-linejoin: round; stroke-linecap: butt}</style>
 </defs>
 <g id="figure_1">
  <g id="patch_1">
   <path d="M 0 504 
L 1080 504 
L 1080 0 
L 0 0 
z
" style="fill: #ffffff"/>
  </g>
  <g id="axes_1">
   <g id="patch_2">
    <path d="M 135 448.56 
L 972 448.56 
L 972 60.48 
L 135 60.48 
z
" style="fill: #ffffff"/>
   </g>
   <g id="matplotlib.axis_1">
    <g id="xtick_1">
     <g id="line2d_1">
      <defs>
       <path id="mb9946c9f11" d="M 0 0 
L 0 3.5 
" style="stroke: #000000; stroke-width: 0.8"/>
      </defs>
      <g>
       <use xlink:href="#mb9946c9f11" x="173.045455" y="448.56" style="stroke: #000000; stroke-width: 0.8"/>
      </g>
     </g>
     <g id="text_1">
      <!-- 0 -->
      <g transform="translate(169.864205 463.158437) scale(0.1 -0.1)">
       <defs>
        <path id="DejaVuSans-30" d="M 2034 4250 
Q 1547 4250 1301 3770 
Q 1056 3291 1056 2328 
Q 1056 1369 1301 889 
Q 1547 409 2034 409 
Q 2525 409 2770 889 
Q 3016 1369 3016 2328 
Q 3016 3291 2770 3770 
Q 2525 4250 2034 4250 
z
M 2034 4750 
Q 2819 4750 3233 4129 
Q 3647 3509 3647 2328 
Q 3647 1150 3233 529 
Q 2819 -91 2034 -91 
Q 1250 -91 836 529 
Q 422 1150 422 2328 
Q 422 3509 836 4129 
Q 1250 4750 2034 4750 
z
" transform="scale(0.015625)"/>
       </defs>
       <use xlink:href="#DejaVuSans-30"/>
      </g>
     </g>
    </g>
    <g id="xtick_2">
     <g id="line2d_2">
      <g>
       <use xlink:href="#mb9946c9f11" x="333.33808" y="448.56" style="stroke: #000000; stroke-width: 0.8"/>
      </g>
     </g>
     <g id="text_2">
      <!-- 1000 -->
      <g transform="translate(320.61308 463.158437) scale(0.1 -0.1)">
       <defs>
        <path id="DejaVuSans-31" d="M 794 531 
L 1825 531 
L 1825 4091 
L 703 3866 
L 703 4441 
L 1819 4666 
L 2450 4666 
L 2450 531 
L 3481 531 
L 3481 0 
L 794 0 
L 794 531 
z
" transform="scale(0.015625)"/>
       </defs>
       <use xlink:href="#DejaVuSans-31"/>
       <use xlink:href="#DejaVuSans-30" x="63.623047"/>
       <use xlink:href="#DejaVuSans-30" x="127.246094"/>
       <use xlink:href="#DejaVuSans-30" x="190.869141"/>
      </g>
     </g>
    </g>
    <g id="xtick_3">
     <g id="line2d_3">
      <g>
       <use xlink:href="#mb9946c9f11" x="493.630705" y="448.56" style="stroke: #000000; stroke-width: 0.8"/>
      </g>
     </g>
     <g id="text_3">
      <!-- 2000 -->
      <g transform="translate(480.905705 463.158437) scale(0.1 -0.1)">
       <defs>
        <path id="DejaVuSans-32" d="M 1228 531 
L 3431 531 
L 3431 0 
L 469 0 
L 469 531 
Q 828 903 1448 1529 
Q 2069 2156 2228 2338 
Q 2531 2678 2651 2914 
Q 2772 3150 2772 3378 
Q 2772 3750 2511 3984 
Q 2250 4219 1831 4219 
Q 1534 4219 1204 4116 
Q 875 4013 500 3803 
L 500 4441 
Q 881 4594 1212 4672 
Q 1544 4750 1819 4750 
Q 2544 4750 2975 4387 
Q 3406 4025 3406 3419 
Q 3406 3131 3298 2873 
Q 3191 2616 2906 2266 
Q 2828 2175 2409 1742 
Q 1991 1309 1228 531 
z
" transform="scale(0.015625)"/>
       </defs>
       <use xlink:href="#DejaVuSans-32"/>
       <use xlink:href="#DejaVuSans-30" x="63.623047"/>
       <use xlink:href="#DejaVuSans-30" x="127.246094"/>
       <use xlink:href="#DejaVuSans-30" x="190.869141"/>
      </g>
     </g>
    </g>
    <g id="xtick_4">
     <g id="line2d_4">
      <g>
       <use xlink:href="#mb9946c9f11" x="653.92333" y="448.56" style="stroke: #000000; stroke-width: 0.8"/>
      </g>
     </g>
     <g id="text_4">
      <!-- 3000 -->
      <g transform="translate(641.19833 463.158437) scale(0.1 -0.1)">
       <defs>
        <path id="DejaVuSans-33" d="M 2597 2516 
Q 3050 2419 3304 2112 
Q 3559 1806 3559 1356 
Q 3559 666 3084 287 
Q 2609 -91 1734 -91 
Q 1441 -91 1130 -33 
Q 819 25 488 141 
L 488 750 
Q 750 597 1062 519 
Q 1375 441 1716 441 
Q 2309 441 2620 675 
Q 2931 909 2931 1356 
Q 2931 1769 2642 2001 
Q 2353 2234 1838 2234 
L 1294 2234 
L 1294 2753 
L 1863 2753 
Q 2328 2753 2575 2939 
Q 2822 3125 2822 3475 
Q 2822 3834 2567 4026 
Q 2313 4219 1838 4219 
Q 1578 4219 1281 4162 
Q 984 4106 628 3988 
L 628 4550 
Q 988 4650 1302 4700 
Q 1616 4750 1894 4750 
Q 2613 4750 3031 4423 
Q 3450 4097 3450 3541 
Q 3450 3153 3228 2886 
Q 3006 2619 2597 2516 
z
" transform="scale(0.015625)"/>
       </defs>
       <use xlink:href="#DejaVuSans-33"/>
       <use xlink:href="#DejaVuSans-30" x="63.623047"/>
       <use xlink:href="#DejaVuSans-30" x="127.246094"/>
       <use xlink:href="#DejaVuSans-30" x="190.869141"/>
      </g>
     </g>
    </g>
    <g id="xtick_5">
     <g id="line2d_5">
      <g>
       <use xlink:href="#mb9946c9f11" x="814.215955" y="448.56" style="stroke: #000000; stroke-width: 0.8"/>
      </g>
     </g>
     <g id="text_5">
      <!-- 4000 -->
      <g transform="translate(801.490955 463.158437) scale(0.1 -0.1)">
       <defs>
        <path id="DejaVuSans-34" d="M 2419 4116 
L 825 1625 
L 2419 1625 
L 2419 4116 
z
M 2253 4666 
L 3047 4666 
L 3047 1625 
L 3713 1625 
L 3713 1100 
L 3047 1100 
L 3047 0 
L 2419 0 
L 2419 1100 
L 313 1100 
L 313 1709 
L 2253 4666 
z
" transform="scale(0.015625)"/>
       </defs>
       <use xlink:href="#DejaVuSans-34"/>
       <use xlink:href="#DejaVuSans-30" x="63.623047"/>
       <use xlink:href="#DejaVuSans-30" x="127.246094"/>
       <use xlink:href="#DejaVuSans-30" x="190.869141"/>
      </g>
     </g>
    </g>
    <g id="text_6">
     <!-- t -->
     <g transform="translate(551.539844 476.836563) scale(0.1 -0.1)">
      <defs>
       <path id="DejaVuSans-74" d="M 1172 4494 
L 1172 3500 
L 2356 3500 
L 2356 3053 
L 1172 3053 
L 1172 1153 
Q 1172 725 1289 603 
Q 1406 481 1766 481 
L 2356 481 
L 2356 0 
L 1766 0 
Q 1100 0 847 248 
Q 594 497 594 1153 
L 594 3053 
L 172 3053 
L 172 3500 
L 594 3500 
L 594 4494 
L 1172 4494 
z
" transform="scale(0.015625)"/>
      </defs>
      <use xlink:href="#DejaVuSans-74"/>
     </g>
    </g>
   </g>
   <g id="matplotlib.axis_2">
    <g id="ytick_1">
     <g id="line2d_6">
      <defs>
       <path id="m5cb77623aa" d="M 0 0 
L -3.5 0 
" style="stroke: #000000; stroke-width: 0.8"/>
      </defs>
      <g>
       <use xlink:href="#m5cb77623aa" x="135" y="445.617744" style="stroke: #000000; stroke-width: 0.8"/>
      </g>
     </g>
     <g id="text_7">
      <!-- −0.2 -->
      <g transform="translate(103.717187 449.416962) scale(0.1 -0.1)">
       <defs>
        <path id="DejaVuSans-2212" d="M 678 2272 
L 4684 2272 
L 4684 1741 
L 678 1741 
L 678 2272 
z
" transform="scale(0.015625)"/>
        <path id="DejaVuSans-2e" d="M 684 794 
L 1344 794 
L 1344 0 
L 684 0 
L 684 794 
z
" transform="scale(0.015625)"/>
       </defs>
       <use xlink:href="#DejaVuSans-2212"/>
       <use xlink:href="#DejaVuSans-30" x="83.789062"/>
       <use xlink:href="#DejaVuSans-2e" x="147.412109"/>
       <use xlink:href="#DejaVuSans-32" x="179.199219"/>
      </g>
     </g>
    </g>
    <g id="ytick_2">
     <g id="line2d_7">
      <g>
       <use xlink:href="#m5cb77623aa" x="135" y="388.660839" style="stroke: #000000; stroke-width: 0.8"/>
      </g>
     </g>
     <g id="text_8">
      <!-- 0.0 -->
      <g transform="translate(112.096875 392.460058) scale(0.1 -0.1)">
       <use xlink:href="#DejaVuSans-30"/>
       <use xlink:href="#DejaVuSans-2e" x="63.623047"/>
       <use xlink:href="#DejaVuSans-30" x="95.410156"/>
      </g>
     </g>
    </g>
    <g id="ytick_3">
     <g id="line2d_8">
      <g>
       <use xlink:href="#m5cb77623aa" x="135" y="331.703935" style="stroke: #000000; stroke-width: 0.8"/>
      </g>
     </g>
     <g id="text_9">
      <!-- 0.2 -->
      <g transform="translate(112.096875 335.503154) scale(0.1 -0.1)">
       <use xlink:href="#DejaVuSans-30"/>
       <use xlink:href="#DejaVuSans-2e" x="63.623047"/>
       <use xlink:href="#DejaVuSans-32" x="95.410156"/>
      </g>
     </g>
    </g>
    <g id="ytick_4">
     <g id="line2d_9">
      <g>
       <use xlink:href="#m5cb77623aa" x="135" y="274.747031" style="stroke: #000000; stroke-width: 0.8"/>
      </g>
     </g>
     <g id="text_10">
      <!-- 0.4 -->
      <g transform="translate(112.096875 278.54625) scale(0.1 -0.1)">
       <use xlink:href="#DejaVuSans-30"/>
       <use xlink:href="#DejaVuSans-2e" x="63.623047"/>
       <use xlink:href="#DejaVuSans-34" x="95.410156"/>
      </g>
     </g>
    </g>
    <g id="ytick_5">
     <g id="line2d_10">
      <g>
       <use xlink:href="#m5cb77623aa" x="135" y="217.790127" style="stroke: #000000; stroke-width: 0.8"/>
      </g>
     </g>
     <g id="text_11">
      <!-- 0.6 -->
      <g transform="translate(112.096875 221.589346) scale(0.1 -0.1)">
       <defs>
        <path id="DejaVuSans-36" d="M 2113 2584 
Q 1688 2584 1439 2293 
Q 1191 2003 1191 1497 
Q 1191 994 1439 701 
Q 1688 409 2113 409 
Q 2538 409 2786 701 
Q 3034 994 3034 1497 
Q 3034 2003 2786 2293 
Q 2538 2584 2113 2584 
z
M 3366 4563 
L 3366 3988 
Q 3128 4100 2886 4159 
Q 2644 4219 2406 4219 
Q 1781 4219 1451 3797 
Q 1122 3375 1075 2522 
Q 1259 2794 1537 2939 
Q 1816 3084 2150 3084 
Q 2853 3084 3261 2657 
Q 3669 2231 3669 1497 
Q 3669 778 3244 343 
Q 2819 -91 2113 -91 
Q 1303 -91 875 529 
Q 447 1150 447 2328 
Q 447 3434 972 4092 
Q 1497 4750 2381 4750 
Q 2619 4750 2861 4703 
Q 3103 4656 3366 4563 
z
" transform="scale(0.015625)"/>
       </defs>
       <use xlink:href="#DejaVuSans-30"/>
       <use xlink:href="#DejaVuSans-2e" x="63.623047"/>
       <use xlink:href="#DejaVuSans-36" x="95.410156"/>
      </g>
     </g>
    </g>
    <g id="ytick_6">
     <g id="line2d_11">
      <g>
       <use xlink:href="#m5cb77623aa" x="135" y="160.833223" style="stroke: #000000; stroke-width: 0.8"/>
      </g>
     </g>
     <g id="text_12">
      <!-- 0.8 -->
      <g transform="translate(112.096875 164.632442) scale(0.1 -0.1)">
       <defs>
        <path id="DejaVuSans-38" d="M 2034 2216 
Q 1584 2216 1326 1975 
Q 1069 1734 1069 1313 
Q 1069 891 1326 650 
Q 1584 409 2034 409 
Q 2484 409 2743 651 
Q 3003 894 3003 1313 
Q 3003 1734 2745 1975 
Q 2488 2216 2034 2216 
z
M 1403 2484 
Q 997 2584 770 2862 
Q 544 3141 544 3541 
Q 544 4100 942 4425 
Q 1341 4750 2034 4750 
Q 2731 4750 3128 4425 
Q 3525 4100 3525 3541 
Q 3525 3141 3298 2862 
Q 3072 2584 2669 2484 
Q 3125 2378 3379 2068 
Q 3634 1759 3634 1313 
Q 3634 634 3220 271 
Q 2806 -91 2034 -91 
Q 1263 -91 848 271 
Q 434 634 434 1313 
Q 434 1759 690 2068 
Q 947 2378 1403 2484 
z
M 1172 3481 
Q 1172 3119 1398 2916 
Q 1625 2713 2034 2713 
Q 2441 2713 2670 2916 
Q 2900 3119 2900 3481 
Q 2900 3844 2670 4047 
Q 2441 4250 2034 4250 
Q 1625 4250 1398 4047 
Q 1172 3844 1172 3481 
z
" transform="scale(0.015625)"/>
       </defs>
       <use xlink:href="#DejaVuSans-30"/>
       <use xlink:href="#DejaVuSans-2e" x="63.623047"/>
       <use xlink:href="#DejaVuSans-38" x="95.410156"/>
      </g>
     </g>
    </g>
    <g id="ytick_7">
     <g id="line2d_12">
      <g>
       <use xlink:href="#m5cb77623aa" x="135" y="103.876319" style="stroke: #000000; stroke-width: 0.8"/>
      </g>
     </g>
     <g id="text_13">
      <!-- 1.0 -->
      <g transform="translate(112.096875 107.675538) scale(0.1 -0.1)">
       <use xlink:href="#DejaVuSans-31"/>
       <use xlink:href="#DejaVuSans-2e" x="63.623047"/>
       <use xlink:href="#DejaVuSans-30" x="95.410156"/>
      </g>
     </g>
    </g>
   </g>
   <g id="line2d_13">
    <path d="M 173.045455 197.437965 
L 173.36604 81.576975 
L 173.526332 78.12 
L 173.846918 98.194482 
L 174.167503 117.769896 
L 174.488088 125.708312 
L 174.648381 125.974775 
L 174.968966 122.495484 
L 175.449844 115.823513 
L 175.770429 114.269225 
L 175.930722 114.725604 
L 176.251307 118.060209 
L 176.732185 128.096212 
L 177.533648 152.258897 
L 177.693941 157.426602 
L 178.014526 352.368802 
L 178.335111 427.354055 
L 178.495404 430.92 
L 178.815989 409.553167 
L 179.296867 377.14855 
L 179.617452 371.60248 
L 179.777745 372.414498 
L 180.258623 380.02628 
L 180.739501 386.199934 
L 181.060086 388.009301 
L 181.380671 388.62357 
L 181.701256 388.730053 
L 182.342427 388.627588 
L 182.663012 388.32983 
L 182.983597 387.624119 
L 183.304183 386.376404 
L 183.78506 383.476167 
L 185.548279 370.8071 
L 186.029157 369.335558 
L 186.349742 369.044382 
L 186.510035 369.09003 
L 186.83062 369.518019 
L 187.311498 370.833826 
L 188.112961 374.055572 
L 189.555595 380.047759 
L 190.517351 383.027929 
L 191.318814 384.819213 
L 192.120277 386.099479 
L 192.92174 386.989703 
L 193.883496 387.686132 
L 194.845252 388.106107 
L 196.127593 388.406536 
L 198.051104 388.585839 
L 201.898127 388.655694 
L 213.278903 388.660843 
L 213.599489 112.034595 
L 213.759781 81.576978 
L 213.920074 78.120002 
L 214.240659 98.194484 
L 214.561244 117.769897 
L 214.88183 125.708313 
L 215.042122 125.974776 
L 215.362708 122.495485 
L 215.843585 115.823513 
L 216.164171 114.269225 
L 216.324463 114.725604 
L 216.645049 118.060209 
L 217.125926 128.096212 
L 217.92739 152.258897 
L 218.087682 157.426602 
L 218.408267 352.368802 
L 218.728853 427.354055 
L 218.889145 430.92 
L 219.209731 409.553167 
L 219.690608 377.14855 
L 220.011194 371.60248 
L 220.171486 372.414498 
L 220.652364 380.02628 
L 221.133242 386.199934 
L 221.453827 388.009301 
L 221.774413 388.62357 
L 222.094998 388.730053 
L 222.736168 388.627588 
L 223.056754 388.329831 
L 223.377339 387.624119 
L 223.697924 386.376404 
L 224.178802 383.476167 
L 225.942021 370.8071 
L 226.422899 369.335558 
L 226.743484 369.044382 
L 226.903777 369.09003 
L 227.224362 369.518019 
L 227.70524 370.833826 
L 228.506703 374.055572 
L 229.949336 380.047759 
L 230.911092 383.027929 
L 231.712555 384.819213 
L 232.514018 386.099479 
L 233.315482 386.989703 
L 234.277237 387.686132 
L 235.238993 388.106107 
L 236.521334 388.406536 
L 238.444846 388.585839 
L 242.291869 388.655694 
L 253.99323 388.660842 
L 254.313815 112.034594 
L 254.474108 81.576977 
L 254.634401 78.120002 
L 254.954986 98.194484 
L 255.275571 117.769897 
L 255.596156 125.708313 
L 255.756449 125.974776 
L 256.077034 122.495485 
L 256.557912 115.823513 
L 256.878497 114.269225 
L 257.03879 114.725604 
L 257.359375 118.060209 
L 257.840253 128.096212 
L 258.641716 152.258897 
L 258.802009 157.426602 
L 259.122594 352.368802 
L 259.443179 427.354055 
L 259.603472 430.92 
L 259.924057 409.553167 
L 260.404935 377.14855 
L 260.72552 371.60248 
L 260.885813 372.414498 
L 261.366691 380.02628 
L 261.847569 386.199934 
L 262.168154 388.009301 
L 262.488739 388.62357 
L 262.809325 388.730053 
L 263.450495 388.627588 
L 263.77108 388.329831 
L 264.091666 387.624119 
L 264.412251 386.376404 
L 264.893129 383.476167 
L 266.656348 370.8071 
L 267.137225 369.335558 
L 267.457811 369.044382 
L 267.618103 369.09003 
L 267.938689 369.518019 
L 268.419566 370.833826 
L 269.22103 374.055572 
L 270.663663 380.047759 
L 271.625419 383.027929 
L 272.426882 384.819213 
L 273.228345 386.099479 
L 274.029808 386.989703 
L 274.991564 387.686132 
L 275.95332 388.106107 
L 277.235661 388.406536 
L 279.159172 388.585839 
L 283.006195 388.655694 
L 293.585509 388.660844 
L 293.906094 112.034596 
L 294.066386 81.576979 
L 294.226679 78.120003 
L 294.547264 98.194485 
L 294.86785 117.769898 
L 295.188435 125.708314 
L 295.348727 125.974776 
L 295.669313 122.495485 
L 296.150191 115.823513 
L 296.470776 114.269225 
L 296.631068 114.725604 
L 296.951654 118.060209 
L 297.432532 128.096212 
L 298.233995 152.258897 
L 298.394287 157.426602 
L 298.714873 352.368802 
L 299.035458 427.354055 
L 299.19575 430.92 
L 299.516336 409.553168 
L 299.997214 377.14855 
L 300.317799 371.60248 
L 300.478091 372.414498 
L 300.958969 380.02628 
L 301.439847 386.199934 
L 301.760432 388.009301 
L 302.081018 388.62357 
L 302.401603 388.730053 
L 303.042773 388.627588 
L 303.363359 388.329831 
L 303.683944 387.624119 
L 304.004529 386.376404 
L 304.485407 383.476167 
L 306.248626 370.8071 
L 306.729504 369.335558 
L 307.050089 369.044382 
L 307.210382 369.09003 
L 307.530967 369.518019 
L 308.011845 370.833826 
L 308.813308 374.055572 
L 310.255942 380.047759 
L 311.217697 383.027929 
L 312.01916 384.819213 
L 312.820624 386.099479 
L 313.622087 386.989703 
L 314.583842 387.686132 
L 315.545598 388.106107 
L 316.827939 388.406536 
L 318.751451 388.585839 
L 322.598474 388.655694 
L 333.818957 388.660843 
L 334.139543 112.034595 
L 334.299835 81.576978 
L 334.460128 78.120002 
L 334.780713 98.194484 
L 335.101298 117.769898 
L 335.421884 125.708313 
L 335.582176 125.974776 
L 335.902762 122.495485 
L 336.383639 115.823513 
L 336.704225 114.269225 
L 336.864517 114.725604 
L 337.185103 118.060209 
L 337.66598 128.096212 
L 338.467444 152.258897 
L 338.627736 157.426602 
L 338.948321 352.368802 
L 339.268907 427.354055 
L 339.429199 430.92 
L 339.749785 409.553168 
L 340.230662 377.14855 
L 340.551248 371.60248 
L 340.71154 372.414498 
L 341.192418 380.02628 
L 341.673296 386.199934 
L 341.993881 388.009301 
L 342.314467 388.62357 
L 342.635052 388.730053 
L 343.276222 388.627588 
L 343.596808 388.329831 
L 343.917393 387.624119 
L 344.237978 386.376404 
L 344.718856 383.476167 
L 346.482075 370.8071 
L 346.962953 369.335558 
L 347.283538 369.044382 
L 347.443831 369.09003 
L 347.764416 369.518019 
L 348.245294 370.833826 
L 349.046757 374.055572 
L 350.48939 380.047759 
L 351.451146 383.027929 
L 352.252609 384.819213 
L 353.054072 386.099479 
L 353.855536 386.989703 
L 354.817291 387.686132 
L 355.779047 388.106107 
L 357.061388 388.406536 
L 358.9849 388.585839 
L 362.831923 388.655694 
L 373.090651 388.660845 
L 373.411236 112.034597 
L 373.571528 81.576979 
L 373.731821 78.120004 
L 374.052406 98.194485 
L 374.372992 117.769898 
L 374.693577 125.708314 
L 374.853869 125.974777 
L 375.174455 122.495485 
L 375.655333 115.823514 
L 375.975918 114.269225 
L 376.13621 114.725604 
L 376.456796 118.060209 
L 376.937674 128.096212 
L 377.739137 152.258897 
L 377.899429 157.426602 
L 378.220015 352.368802 
L 378.5406 427.354055 
L 378.700892 430.92 
L 379.021478 409.553168 
L 379.502356 377.14855 
L 379.822941 371.60248 
L 379.983233 372.414498 
L 380.464111 380.02628 
L 380.944989 386.199934 
L 381.265574 388.009301 
L 381.58616 388.62357 
L 381.906745 388.730053 
L 382.547915 388.627588 
L 382.868501 388.329831 
L 383.189086 387.624119 
L 383.509671 386.376404 
L 383.990549 383.476167 
L 385.753768 370.8071 
L 386.234646 369.335558 
L 386.555231 369.044382 
L 386.715524 369.09003 
L 387.036109 369.518019 
L 387.516987 370.833826 
L 388.31845 374.055572 
L 389.761084 380.047759 
L 390.722839 383.027929 
L 391.524302 384.819213 
L 392.325766 386.099479 
L 393.127229 386.989703 
L 394.088984 387.686132 
L 395.05074 388.106107 
L 396.333081 388.406536 
L 398.256593 388.585839 
L 402.103616 388.655694 
L 413.644685 388.660843 
L 413.96527 112.034595 
L 414.125563 81.576977 
L 414.285855 78.120002 
L 414.60644 98.194484 
L 414.927026 117.769897 
L 415.247611 125.708313 
L 415.407904 125.974776 
L 415.728489 122.495485 
L 416.209367 115.823513 
L 416.529952 114.269225 
L 416.690245 114.725604 
L 417.01083 118.060209 
L 417.491708 128.096212 
L 418.293171 152.258897 
L 418.453463 157.426602 
L 418.774049 352.368802 
L 419.094634 427.354055 
L 419.254927 430.92 
L 419.575512 409.553167 
L 420.05639 377.14855 
L 420.376975 371.60248 
L 420.537268 372.414498 
L 421.018145 380.02628 
L 421.499023 386.199934 
L 421.819609 388.009301 
L 422.140194 388.62357 
L 422.460779 388.730053 
L 423.10195 388.627588 
L 423.422535 388.329831 
L 423.74312 387.624119 
L 424.063705 386.376404 
L 424.544583 383.476167 
L 426.307802 370.8071 
L 426.78868 369.335558 
L 427.109265 369.044382 
L 427.269558 369.09003 
L 427.590143 369.518019 
L 428.071021 370.833826 
L 428.872484 374.055572 
L 430.315118 380.047759 
L 431.276873 383.027929 
L 432.078337 384.819213 
L 432.8798 386.099479 
L 433.681263 386.989703 
L 434.643019 387.686132 
L 435.604774 388.106107 
L 436.887115 388.406536 
L 438.810627 388.585839 
L 442.65765 388.655694 
L 453.557548 388.660844 
L 453.878134 112.034595 
L 454.038426 81.576978 
L 454.198719 78.120003 
L 454.519304 98.194484 
L 454.839889 117.769898 
L 455.160475 125.708313 
L 455.320767 125.974776 
L 455.641352 122.495485 
L 456.12223 115.823513 
L 456.442816 114.269225 
L 456.603108 114.725604 
L 456.923693 118.060209 
L 457.404571 128.096212 
L 458.206034 152.258897 
L 458.366327 157.426602 
L 458.686912 352.368802 
L 459.007498 427.354055 
L 459.16779 430.92 
L 459.488375 409.553168 
L 459.969253 377.14855 
L 460.289839 371.60248 
L 460.450131 372.414498 
L 460.931009 380.02628 
L 461.411887 386.199934 
L 461.732472 388.009301 
L 462.053057 388.62357 
L 462.373643 388.730053 
L 463.014813 388.627588 
L 463.335398 388.329831 
L 463.655984 387.624119 
L 463.976569 386.376404 
L 464.457447 383.476167 
L 466.220666 370.8071 
L 466.701544 369.335558 
L 467.022129 369.044382 
L 467.182421 369.09003 
L 467.503007 369.518019 
L 467.983885 370.833826 
L 468.785348 374.055572 
L 470.227981 380.047759 
L 471.189737 383.027929 
L 471.9912 384.819213 
L 472.792663 386.099479 
L 473.594126 386.989703 
L 474.555882 387.686132 
L 475.517638 388.106107 
L 476.799979 388.406536 
L 478.72349 388.585839 
L 482.570513 388.655694 
L 493.630705 388.660843 
L 493.95129 112.034595 
L 494.111582 81.576978 
L 494.271875 78.120003 
L 494.59246 98.194484 
L 494.913046 117.769898 
L 495.233631 125.708313 
L 495.393923 125.974776 
L 495.714509 122.495485 
L 496.195387 115.823513 
L 496.515972 114.269225 
L 496.676264 114.725604 
L 496.99685 118.060209 
L 497.477728 128.096212 
L 498.279191 152.258897 
L 498.439483 157.426602 
L 498.760069 352.368802 
L 499.080654 427.354055 
L 499.240946 430.92 
L 499.561532 409.553168 
L 500.04241 377.14855 
L 500.362995 371.60248 
L 500.523287 372.414498 
L 501.004165 380.02628 
L 501.485043 386.199934 
L 501.805628 388.009301 
L 502.126214 388.62357 
L 502.446799 388.730053 
L 503.087969 388.627588 
L 503.408555 388.329831 
L 503.72914 387.624119 
L 504.049725 386.376404 
L 504.530603 383.476167 
L 506.293822 370.8071 
L 506.7747 369.335558 
L 507.095285 369.044382 
L 507.255578 369.09003 
L 507.576163 369.518019 
L 508.057041 370.833826 
L 508.858504 374.055572 
L 510.301138 380.047759 
L 511.262893 383.027929 
L 512.064356 384.819213 
L 512.86582 386.099479 
L 513.667283 386.989703 
L 514.629038 387.686132 
L 515.590794 388.106107 
L 516.873135 388.406536 
L 518.796647 388.585839 
L 522.64367 388.655694 
L 533.864153 388.660843 
L 534.184739 112.034595 
L 534.345031 81.576978 
L 534.505324 78.120002 
L 534.825909 98.194484 
L 535.146494 117.769898 
L 535.46708 125.708313 
L 535.627372 125.974776 
L 535.947958 122.495485 
L 536.428835 115.823513 
L 536.749421 114.269225 
L 536.909713 114.725604 
L 537.230299 118.060209 
L 537.711176 128.096212 
L 538.51264 152.258897 
L 538.672932 157.426602 
L 538.993517 352.368802 
L 539.314103 427.354055 
L 539.474395 430.92 
L 539.794981 409.553168 
L 540.275858 377.14855 
L 540.596444 371.60248 
L 540.756736 372.414498 
L 541.237614 380.02628 
L 541.718492 386.199934 
L 542.039077 388.009301 
L 542.359663 388.62357 
L 542.680248 388.730053 
L 543.321418 388.627588 
L 543.642004 388.329831 
L 543.962589 387.624119 
L 544.283174 386.376404 
L 544.764052 383.476167 
L 546.527271 370.8071 
L 547.008149 369.335558 
L 547.328734 369.044382 
L 547.489027 369.09003 
L 547.809612 369.518019 
L 548.29049 370.833826 
L 549.091953 374.055572 
L 550.534586 380.047759 
L 551.496342 383.027929 
L 552.297805 384.819213 
L 553.099268 386.099479 
L 553.900732 386.989703 
L 554.862487 387.686132 
L 555.824243 388.106107 
L 557.106584 388.406536 
L 559.030096 388.585839 
L 562.877119 388.655694 
L 574.257895 388.660843 
L 574.57848 112.034595 
L 574.738773 81.576978 
L 574.899065 78.120002 
L 575.219651 98.194484 
L 575.540236 117.769897 
L 575.860821 125.708313 
L 576.021114 125.974776 
L 576.341699 122.495485 
L 576.822577 115.823513 
L 577.143162 114.269225 
L 577.303455 114.725604 
L 577.62404 118.060209 
L 578.104918 128.096212 
L 578.906381 152.258897 
L 579.066674 157.426602 
L 579.387259 352.368802 
L 579.707844 427.354055 
L 579.868137 430.92 
L 580.188722 409.553167 
L 580.6696 377.14855 
L 580.990185 371.60248 
L 581.150478 372.414498 
L 581.631356 380.02628 
L 582.112234 386.199934 
L 582.432819 388.009301 
L 582.753404 388.62357 
L 583.073989 388.730053 
L 583.71516 388.627588 
L 584.035745 388.329831 
L 584.35633 387.624119 
L 584.676916 386.376404 
L 585.157793 383.476167 
L 586.921012 370.8071 
L 587.40189 369.335558 
L 587.722475 369.044382 
L 587.882768 369.09003 
L 588.203353 369.518019 
L 588.684231 370.833826 
L 589.485694 374.055572 
L 590.928328 380.047759 
L 591.890084 383.027929 
L 592.691547 384.819213 
L 593.49301 386.099479 
L 594.294473 386.989703 
L 595.256229 387.686132 
L 596.217985 388.106107 
L 597.500326 388.406536 
L 599.423837 388.585839 
L 603.27086 388.655694 
L 613.209003 388.660845 
L 613.529588 112.034597 
L 613.689881 81.57698 
L 613.850173 78.120004 
L 614.170759 98.194486 
L 614.491344 117.769899 
L 614.811929 125.708314 
L 614.972222 125.974777 
L 615.292807 122.495486 
L 615.773685 115.823514 
L 616.09427 114.269226 
L 616.254563 114.725605 
L 616.575148 118.060209 
L 617.056026 128.096212 
L 617.857489 152.258897 
L 618.017782 157.426602 
L 618.338367 352.368802 
L 618.658952 427.354055 
L 618.819245 430.92 
L 619.13983 409.553168 
L 619.620708 377.14855 
L 619.941293 371.60248 
L 620.101586 372.414498 
L 620.582464 380.02628 
L 621.063341 386.199934 
L 621.383927 388.009301 
L 621.704512 388.62357 
L 622.025097 388.730053 
L 622.666268 388.627588 
L 622.986853 388.329831 
L 623.307438 387.624119 
L 623.628023 386.376404 
L 624.108901 383.476167 
L 625.87212 370.8071 
L 626.352998 369.335558 
L 626.673583 369.044382 
L 626.833876 369.09003 
L 627.154461 369.518019 
L 627.635339 370.833826 
L 628.436802 374.055572 
L 629.879436 380.047759 
L 630.841192 383.027929 
L 631.642655 384.819213 
L 632.444118 386.099479 
L 633.245581 386.989703 
L 634.207337 387.686132 
L 635.169092 388.106107 
L 636.451433 388.406536 
L 638.374945 388.585839 
L 642.221968 388.655694 
L 653.92333 388.660842 
L 654.243915 112.034594 
L 654.404207 81.576977 
L 654.5645 78.120002 
L 654.885085 98.194484 
L 655.205671 117.769897 
L 655.526256 125.708313 
L 655.686548 125.974776 
L 656.007134 122.495485 
L 656.488012 115.823513 
L 656.808597 114.269225 
L 656.968889 114.725604 
L 657.289475 118.060209 
L 657.770353 128.096212 
L 658.571816 152.258897 
L 658.732108 157.426602 
L 659.052694 352.368802 
L 659.373279 427.354055 
L 659.533571 430.92 
L 659.854157 409.553167 
L 660.335035 377.14855 
L 660.65562 371.60248 
L 660.815912 372.414498 
L 661.29679 380.02628 
L 661.777668 386.199934 
L 662.098253 388.009301 
L 662.418839 388.62357 
L 662.739424 388.730053 
L 663.380594 388.627588 
L 663.70118 388.329831 
L 664.021765 387.624119 
L 664.34235 386.376404 
L 664.823228 383.476167 
L 666.586447 370.8071 
L 667.067325 369.335558 
L 667.38791 369.044382 
L 667.548203 369.09003 
L 667.868788 369.518019 
L 668.349666 370.833826 
L 669.151129 374.055572 
L 670.593763 380.047759 
L 671.555518 383.027929 
L 672.356981 384.819213 
L 673.158445 386.099479 
L 673.959908 386.989703 
L 674.921663 387.686132 
L 675.883419 388.106107 
L 677.16576 388.406536 
L 679.089272 388.585839 
L 682.936295 388.655694 
L 694.156778 388.660843 
L 694.477364 112.034595 
L 694.637656 81.576978 
L 694.797949 78.120002 
L 695.118534 98.194484 
L 695.439119 117.769898 
L 695.759705 125.708313 
L 695.919997 125.974776 
L 696.240583 122.495485 
L 696.72146 115.823513 
L 697.042046 114.269225 
L 697.202338 114.725604 
L 697.522924 118.060209 
L 698.003801 128.096212 
L 698.805265 152.258897 
L 698.965557 157.426602 
L 699.286142 352.368802 
L 699.606728 427.354055 
L 699.76702 430.92 
L 700.087606 409.553168 
L 700.568483 377.14855 
L 700.889069 371.60248 
L 701.049361 372.414498 
L 701.530239 380.02628 
L 702.011117 386.199934 
L 702.331702 388.009301 
L 702.652288 388.62357 
L 702.972873 388.730053 
L 703.614043 388.627588 
L 703.934629 388.329831 
L 704.255214 387.624119 
L 704.575799 386.376404 
L 705.056677 383.476167 
L 706.819896 370.8071 
L 707.300774 369.335558 
L 707.621359 369.044382 
L 707.781652 369.09003 
L 708.102237 369.518019 
L 708.583115 370.833826 
L 709.384578 374.055572 
L 710.827211 380.047759 
L 711.788967 383.027929 
L 712.59043 384.819213 
L 713.391893 386.099479 
L 714.193357 386.989703 
L 715.155112 387.686132 
L 716.116868 388.106107 
L 717.399209 388.406536 
L 719.322721 388.585839 
L 723.169744 388.655694 
L 734.069642 388.660844 
L 734.390227 112.034595 
L 734.55052 81.576978 
L 734.710813 78.120003 
L 735.031398 98.194484 
L 735.351983 117.769898 
L 735.672568 125.708313 
L 735.832861 125.974776 
L 736.153446 122.495485 
L 736.634324 115.823513 
L 736.954909 114.269225 
L 737.115202 114.725604 
L 737.435787 118.060209 
L 737.916665 128.096212 
L 738.718128 152.258897 
L 738.878421 157.426602 
L 739.199006 352.368802 
L 739.519591 427.354055 
L 739.679884 430.92 
L 740.000469 409.553168 
L 740.481347 377.14855 
L 740.801932 371.60248 
L 740.962225 372.414498 
L 741.443103 380.02628 
L 741.923981 386.199934 
L 742.244566 388.009301 
L 742.565151 388.62357 
L 742.885736 388.730053 
L 743.526907 388.627588 
L 743.847492 388.329831 
L 744.168077 387.624119 
L 744.488663 386.376404 
L 744.969541 383.476167 
L 746.732759 370.8071 
L 747.213637 369.335558 
L 747.534223 369.044382 
L 747.694515 369.09003 
L 748.0151 369.518019 
L 748.495978 370.833826 
L 749.297441 374.055572 
L 750.740075 380.047759 
L 751.701831 383.027929 
L 752.503294 384.819213 
L 753.304757 386.099479 
L 754.10622 386.989703 
L 755.067976 387.686132 
L 756.029732 388.106107 
L 757.312073 388.406536 
L 759.235584 388.585839 
L 763.082607 388.655694 
L 773.822213 388.660844 
L 774.142798 112.034596 
L 774.303091 81.576979 
L 774.463384 78.120003 
L 774.783969 98.194485 
L 775.104554 117.769898 
L 775.425139 125.708313 
L 775.585432 125.974776 
L 775.906017 122.495485 
L 776.386895 115.823513 
L 776.70748 114.269225 
L 776.867773 114.725604 
L 777.188358 118.060209 
L 777.669236 128.096212 
L 778.470699 152.258897 
L 778.630992 157.426602 
L 778.951577 352.368802 
L 779.272162 427.354055 
L 779.432455 430.92 
L 779.75304 409.553168 
L 780.233918 377.14855 
L 780.554503 371.60248 
L 780.714796 372.414498 
L 781.195674 380.02628 
L 781.676552 386.199934 
L 781.997137 388.009301 
L 782.317722 388.62357 
L 782.638307 388.730053 
L 783.279478 388.627588 
L 783.600063 388.329831 
L 783.920648 387.624119 
L 784.241234 386.376404 
L 784.722112 383.476167 
L 786.48533 370.8071 
L 786.966208 369.335558 
L 787.286794 369.044382 
L 787.447086 369.09003 
L 787.767671 369.518019 
L 788.248549 370.833826 
L 789.050012 374.055572 
L 790.492646 380.047759 
L 791.454402 383.027929 
L 792.255865 384.819213 
L 793.057328 386.099479 
L 793.858791 386.989703 
L 794.820547 387.686132 
L 795.782303 388.106107 
L 797.064644 388.406536 
L 798.988155 388.585839 
L 802.835178 388.655694 
L 813.414491 388.660844 
L 813.735077 112.034596 
L 813.895369 81.576979 
L 814.055662 78.120003 
L 814.376247 98.194485 
L 814.696832 117.769898 
L 815.017418 125.708314 
L 815.17771 125.974776 
L 815.498296 122.495485 
L 815.979173 115.823513 
L 816.299759 114.269225 
L 816.460051 114.725604 
L 816.780637 118.060209 
L 817.261514 128.096212 
L 818.062978 152.258897 
L 818.22327 157.426602 
L 818.543855 352.368802 
L 818.864441 427.354055 
L 819.024733 430.92 
L 819.345319 409.553168 
L 819.826196 377.14855 
L 820.146782 371.60248 
L 820.307074 372.414498 
L 820.787952 380.02628 
L 821.26883 386.199934 
L 821.589415 388.009301 
L 821.910001 388.62357 
L 822.230586 388.730053 
L 822.871756 388.627588 
L 823.192342 388.329831 
L 823.512927 387.624119 
L 823.833512 386.376404 
L 824.31439 383.476167 
L 826.077609 370.8071 
L 826.558487 369.335558 
L 826.879072 369.044382 
L 827.039365 369.09003 
L 827.35995 369.518019 
L 827.840828 370.833826 
L 828.642291 374.055572 
L 830.084924 380.047759 
L 831.04668 383.027929 
L 831.848143 384.819213 
L 832.649606 386.099479 
L 833.45107 386.989703 
L 834.412825 387.686132 
L 835.374581 388.106107 
L 836.656922 388.406536 
L 838.580434 388.585839 
L 842.427457 388.655694 
L 854.609696 388.660842 
L 854.930281 112.034594 
L 855.090574 81.576977 
L 855.250867 78.120002 
L 855.571452 98.194483 
L 855.892037 117.769897 
L 856.212622 125.708313 
L 856.372915 125.974776 
L 856.6935 122.495484 
L 857.174378 115.823513 
L 857.494963 114.269225 
L 857.655256 114.725604 
L 857.975841 118.060209 
L 858.456719 128.096212 
L 859.258182 152.258897 
L 859.418475 157.426602 
L 859.73906 352.368802 
L 860.059645 427.354055 
L 860.219938 430.92 
L 860.540523 409.553167 
L 861.021401 377.14855 
L 861.341986 371.60248 
L 861.502279 372.414498 
L 861.983157 380.02628 
L 862.464035 386.199934 
L 862.78462 388.009301 
L 863.105205 388.62357 
L 863.42579 388.730053 
L 864.066961 388.627588 
L 864.387546 388.329831 
L 864.708131 387.624119 
L 865.028717 386.376404 
L 865.509595 383.476167 
L 867.272813 370.8071 
L 867.753691 369.335558 
L 868.074277 369.044382 
L 868.234569 369.09003 
L 868.555154 369.518019 
L 869.036032 370.833826 
L 869.837495 374.055572 
L 871.280129 380.047759 
L 872.241885 383.027929 
L 873.043348 384.819213 
L 873.844811 386.099479 
L 874.646274 386.989703 
L 875.60803 387.686132 
L 876.569786 388.106107 
L 877.852127 388.406536 
L 879.775638 388.585839 
L 883.622661 388.655694 
L 894.362267 388.660844 
L 894.682852 112.034596 
L 894.843145 81.576979 
L 895.003438 78.120003 
L 895.324023 98.194485 
L 895.644608 117.769898 
L 895.965193 125.708313 
L 896.125486 125.974776 
L 896.446071 122.495485 
L 896.926949 115.823513 
L 897.247534 114.269225 
L 897.407827 114.725604 
L 897.728412 118.060209 
L 898.20929 128.096212 
L 899.010753 152.258897 
L 899.171046 157.426602 
L 899.491631 352.368802 
L 899.812216 427.354055 
L 899.972509 430.92 
L 900.293094 409.553168 
L 900.773972 377.14855 
L 901.094557 371.60248 
L 901.25485 372.414498 
L 901.735728 380.02628 
L 902.216606 386.199934 
L 902.537191 388.009301 
L 902.857776 388.62357 
L 903.178361 388.730053 
L 903.819532 388.627588 
L 904.140117 388.329831 
L 904.460702 387.624119 
L 904.781288 386.376404 
L 905.262166 383.476167 
L 907.025384 370.8071 
L 907.506262 369.335558 
L 907.826848 369.044382 
L 907.98714 369.09003 
L 908.307725 369.518019 
L 908.788603 370.833826 
L 909.590066 374.055572 
L 911.0327 380.047759 
L 911.994456 383.027929 
L 912.795919 384.819213 
L 913.597382 386.099479 
L 914.398845 386.989703 
L 915.360601 387.686132 
L 916.322357 388.106107 
L 917.604698 388.406536 
L 919.528209 388.585839 
L 923.375232 388.655694 
L 933.794253 388.660844 
L 933.954545 197.43797 
L 933.954545 197.43797 
" clip-path="url(#p61526f0e35)" style="fill: none; stroke: #1f77b4; stroke-width: 1.5; stroke-linecap: square"/>
   </g>
   <g id="line2d_14">
    <path d="M 173.045455 103.876319 
L 177.693941 103.876319 
L 177.854233 388.660839 
L 213.278903 388.660839 
L 213.439196 103.876319 
L 218.087682 103.876319 
L 218.247975 388.660839 
L 253.99323 388.660839 
L 254.153523 103.876319 
L 258.802009 103.876319 
L 258.962302 388.660839 
L 293.585509 388.660839 
L 293.745801 103.876319 
L 298.394287 103.876319 
L 298.55458 388.660839 
L 333.818957 388.660839 
L 333.97925 103.876319 
L 338.627736 103.876319 
L 338.788029 388.660839 
L 373.090651 388.660839 
L 373.250943 103.876319 
L 377.899429 103.876319 
L 378.059722 388.660839 
L 413.644685 388.660839 
L 413.804977 103.876319 
L 418.453463 103.876319 
L 418.613756 388.660839 
L 453.557548 388.660839 
L 453.717841 103.876319 
L 458.366327 103.876319 
L 458.52662 388.660839 
L 493.630705 388.660839 
L 493.790997 103.876319 
L 498.439483 103.876319 
L 498.599776 388.660839 
L 533.864153 388.660839 
L 534.024446 103.876319 
L 538.672932 103.876319 
L 538.833225 388.660839 
L 574.257895 388.660839 
L 574.418188 103.876319 
L 579.066674 103.876319 
L 579.226966 388.660839 
L 613.209003 388.660839 
L 613.369295 103.876319 
L 618.017782 103.876319 
L 618.178074 388.660839 
L 653.92333 388.660839 
L 654.083622 103.876319 
L 658.732108 103.876319 
L 658.892401 388.660839 
L 694.156778 388.660839 
L 694.317071 103.876319 
L 698.965557 103.876319 
L 699.12585 388.660839 
L 734.069642 388.660839 
L 734.229935 103.876319 
L 738.878421 103.876319 
L 739.038713 388.660839 
L 773.822213 388.660839 
L 773.982506 103.876319 
L 778.630992 103.876319 
L 778.791284 388.660839 
L 813.414491 388.660839 
L 813.574784 103.876319 
L 818.22327 103.876319 
L 818.383563 388.660839 
L 854.609696 388.660839 
L 854.769989 103.876319 
L 859.418475 103.876319 
L 859.578767 388.660839 
L 894.362267 388.660839 
L 894.52256 103.876319 
L 899.171046 103.876319 
L 899.331338 388.660839 
L 933.794253 388.660839 
L 933.954545 103.876319 
L 933.954545 103.876319 
" clip-path="url(#p61526f0e35)" style="fill: none; stroke: #ff7f0e; stroke-width: 1.5; stroke-linecap: square"/>
   </g>
   <g id="line2d_15">
    <path d="M 929.466352 388.660839 
" clip-path="url(#p61526f0e35)" style="fill: none; stroke: #000000; stroke-width: 1.5; stroke-linecap: square"/>
    <defs>
     <path id="m071b40e341" d="M 0 1 
C 0.265203 1 0.51958 0.894634 0.707107 0.707107 
C 0.894634 0.51958 1 0.265203 1 0 
C 1 -0.265203 0.894634 -0.51958 0.707107 -0.707107 
C 0.51958 -0.894634 0.265203 -1 0 -1 
C -0.265203 -1 -0.51958 -0.894634 -0.707107 -0.707107 
C -0.894634 -0.51958 -1 -0.265203 -1 0 
C -1 0.265203 -0.894634 0.51958 -0.707107 0.707107 
C -0.51958 0.894634 -0.265203 1 0 1 
z
" style="stroke: #000000"/>
    </defs>
    <g clip-path="url(#p61526f0e35)">
     <use xlink:href="#m071b40e341" x="173.045455" y="103.876319" style="stroke: #000000"/>
     <use xlink:href="#m071b40e341" x="178.174819" y="388.660839" style="stroke: #000000"/>
     <use xlink:href="#m071b40e341" x="183.14389" y="388.660839" style="stroke: #000000"/>
     <use xlink:href="#m071b40e341" x="188.112961" y="103.876319" style="stroke: #000000"/>
     <use xlink:href="#m071b40e341" x="193.082033" y="388.660839" style="stroke: #000000"/>
     <use xlink:href="#m071b40e341" x="198.211397" y="388.660839" style="stroke: #000000"/>
     <use xlink:href="#m071b40e341" x="203.180468" y="103.876319" style="stroke: #000000"/>
     <use xlink:href="#m071b40e341" x="208.149539" y="388.660839" style="stroke: #000000"/>
     <use xlink:href="#m071b40e341" x="213.118611" y="103.876319" style="stroke: #000000"/>
     <use xlink:href="#m071b40e341" x="218.247975" y="388.660839" style="stroke: #000000"/>
     <use xlink:href="#m071b40e341" x="223.217046" y="388.660839" style="stroke: #000000"/>
     <use xlink:href="#m071b40e341" x="228.186118" y="103.876319" style="stroke: #000000"/>
     <use xlink:href="#m071b40e341" x="233.155189" y="388.660839" style="stroke: #000000"/>
     <use xlink:href="#m071b40e341" x="238.284553" y="388.660839" style="stroke: #000000"/>
     <use xlink:href="#m071b40e341" x="243.253624" y="103.876319" style="stroke: #000000"/>
     <use xlink:href="#m071b40e341" x="248.222696" y="388.660839" style="stroke: #000000"/>
     <use xlink:href="#m071b40e341" x="253.191767" y="103.876319" style="stroke: #000000"/>
     <use xlink:href="#m071b40e341" x="258.321131" y="388.660839" style="stroke: #000000"/>
     <use xlink:href="#m071b40e341" x="263.290202" y="388.660839" style="stroke: #000000"/>
     <use xlink:href="#m071b40e341" x="268.259274" y="103.876319" style="stroke: #000000"/>
     <use xlink:href="#m071b40e341" x="273.228345" y="388.660839" style="stroke: #000000"/>
     <use xlink:href="#m071b40e341" x="278.357709" y="388.660839" style="stroke: #000000"/>
     <use xlink:href="#m071b40e341" x="283.326781" y="103.876319" style="stroke: #000000"/>
     <use xlink:href="#m071b40e341" x="288.295852" y="388.660839" style="stroke: #000000"/>
     <use xlink:href="#m071b40e341" x="293.264923" y="103.876319" style="stroke: #000000"/>
     <use xlink:href="#m071b40e341" x="298.394287" y="388.660839" style="stroke: #000000"/>
     <use xlink:href="#m071b40e341" x="303.363359" y="388.660839" style="stroke: #000000"/>
     <use xlink:href="#m071b40e341" x="308.33243" y="103.876319" style="stroke: #000000"/>
     <use xlink:href="#m071b40e341" x="313.301501" y="388.660839" style="stroke: #000000"/>
     <use xlink:href="#m071b40e341" x="318.430865" y="388.660839" style="stroke: #000000"/>
     <use xlink:href="#m071b40e341" x="323.399937" y="103.876319" style="stroke: #000000"/>
     <use xlink:href="#m071b40e341" x="328.369008" y="388.660839" style="stroke: #000000"/>
     <use xlink:href="#m071b40e341" x="333.33808" y="103.876319" style="stroke: #000000"/>
     <use xlink:href="#m071b40e341" x="338.467444" y="388.660839" style="stroke: #000000"/>
     <use xlink:href="#m071b40e341" x="343.436515" y="388.660839" style="stroke: #000000"/>
     <use xlink:href="#m071b40e341" x="348.405586" y="103.876319" style="stroke: #000000"/>
     <use xlink:href="#m071b40e341" x="353.374658" y="388.660839" style="stroke: #000000"/>
     <use xlink:href="#m071b40e341" x="358.504022" y="388.660839" style="stroke: #000000"/>
     <use xlink:href="#m071b40e341" x="363.473093" y="103.876319" style="stroke: #000000"/>
     <use xlink:href="#m071b40e341" x="368.442164" y="388.660839" style="stroke: #000000"/>
     <use xlink:href="#m071b40e341" x="373.411236" y="103.876319" style="stroke: #000000"/>
     <use xlink:href="#m071b40e341" x="378.5406" y="388.660839" style="stroke: #000000"/>
     <use xlink:href="#m071b40e341" x="383.509671" y="388.660839" style="stroke: #000000"/>
     <use xlink:href="#m071b40e341" x="388.478743" y="103.876319" style="stroke: #000000"/>
     <use xlink:href="#m071b40e341" x="393.447814" y="388.660839" style="stroke: #000000"/>
     <use xlink:href="#m071b40e341" x="398.577178" y="388.660839" style="stroke: #000000"/>
     <use xlink:href="#m071b40e341" x="403.546249" y="103.876319" style="stroke: #000000"/>
     <use xlink:href="#m071b40e341" x="408.515321" y="388.660839" style="stroke: #000000"/>
     <use xlink:href="#m071b40e341" x="413.484392" y="103.876319" style="stroke: #000000"/>
     <use xlink:href="#m071b40e341" x="418.613756" y="388.660839" style="stroke: #000000"/>
     <use xlink:href="#m071b40e341" x="423.582827" y="388.660839" style="stroke: #000000"/>
     <use xlink:href="#m071b40e341" x="428.551899" y="103.876319" style="stroke: #000000"/>
     <use xlink:href="#m071b40e341" x="433.52097" y="388.660839" style="stroke: #000000"/>
     <use xlink:href="#m071b40e341" x="438.650334" y="388.660839" style="stroke: #000000"/>
     <use xlink:href="#m071b40e341" x="443.619406" y="103.876319" style="stroke: #000000"/>
     <use xlink:href="#m071b40e341" x="448.588477" y="388.660839" style="stroke: #000000"/>
     <use xlink:href="#m071b40e341" x="453.557548" y="103.876319" style="stroke: #000000"/>
     <use xlink:href="#m071b40e341" x="458.686912" y="388.660839" style="stroke: #000000"/>
     <use xlink:href="#m071b40e341" x="463.655984" y="388.660839" style="stroke: #000000"/>
     <use xlink:href="#m071b40e341" x="468.625055" y="103.876319" style="stroke: #000000"/>
     <use xlink:href="#m071b40e341" x="473.594126" y="388.660839" style="stroke: #000000"/>
     <use xlink:href="#m071b40e341" x="478.72349" y="388.660839" style="stroke: #000000"/>
     <use xlink:href="#m071b40e341" x="483.692562" y="103.876319" style="stroke: #000000"/>
     <use xlink:href="#m071b40e341" x="488.661633" y="388.660839" style="stroke: #000000"/>
     <use xlink:href="#m071b40e341" x="493.630705" y="103.876319" style="stroke: #000000"/>
     <use xlink:href="#m071b40e341" x="498.760069" y="388.660839" style="stroke: #000000"/>
     <use xlink:href="#m071b40e341" x="503.72914" y="388.660839" style="stroke: #000000"/>
     <use xlink:href="#m071b40e341" x="508.698211" y="103.876319" style="stroke: #000000"/>
     <use xlink:href="#m071b40e341" x="513.667283" y="388.660839" style="stroke: #000000"/>
     <use xlink:href="#m071b40e341" x="518.796647" y="388.660839" style="stroke: #000000"/>
     <use xlink:href="#m071b40e341" x="523.765718" y="103.876319" style="stroke: #000000"/>
     <use xlink:href="#m071b40e341" x="528.734789" y="388.660839" style="stroke: #000000"/>
     <use xlink:href="#m071b40e341" x="533.703861" y="103.876319" style="stroke: #000000"/>
     <use xlink:href="#m071b40e341" x="538.833225" y="388.660839" style="stroke: #000000"/>
     <use xlink:href="#m071b40e341" x="543.802296" y="388.660839" style="stroke: #000000"/>
     <use xlink:href="#m071b40e341" x="548.771368" y="103.876319" style="stroke: #000000"/>
     <use xlink:href="#m071b40e341" x="553.740439" y="388.660839" style="stroke: #000000"/>
     <use xlink:href="#m071b40e341" x="558.869803" y="388.660839" style="stroke: #000000"/>
     <use xlink:href="#m071b40e341" x="563.838874" y="103.876319" style="stroke: #000000"/>
     <use xlink:href="#m071b40e341" x="568.807946" y="388.660839" style="stroke: #000000"/>
     <use xlink:href="#m071b40e341" x="573.777017" y="103.876319" style="stroke: #000000"/>
     <use xlink:href="#m071b40e341" x="578.906381" y="388.660839" style="stroke: #000000"/>
     <use xlink:href="#m071b40e341" x="583.875452" y="388.660839" style="stroke: #000000"/>
     <use xlink:href="#m071b40e341" x="588.844524" y="103.876319" style="stroke: #000000"/>
     <use xlink:href="#m071b40e341" x="593.813595" y="388.660839" style="stroke: #000000"/>
     <use xlink:href="#m071b40e341" x="598.942959" y="388.660839" style="stroke: #000000"/>
     <use xlink:href="#m071b40e341" x="603.912031" y="103.876319" style="stroke: #000000"/>
     <use xlink:href="#m071b40e341" x="608.881102" y="388.660839" style="stroke: #000000"/>
     <use xlink:href="#m071b40e341" x="613.850173" y="103.876319" style="stroke: #000000"/>
     <use xlink:href="#m071b40e341" x="618.979537" y="388.660839" style="stroke: #000000"/>
     <use xlink:href="#m071b40e341" x="623.948609" y="388.660839" style="stroke: #000000"/>
     <use xlink:href="#m071b40e341" x="628.91768" y="103.876319" style="stroke: #000000"/>
     <use xlink:href="#m071b40e341" x="633.886751" y="388.660839" style="stroke: #000000"/>
     <use xlink:href="#m071b40e341" x="639.016115" y="388.660839" style="stroke: #000000"/>
     <use xlink:href="#m071b40e341" x="643.985187" y="103.876319" style="stroke: #000000"/>
     <use xlink:href="#m071b40e341" x="648.954258" y="388.660839" style="stroke: #000000"/>
     <use xlink:href="#m071b40e341" x="653.92333" y="103.876319" style="stroke: #000000"/>
     <use xlink:href="#m071b40e341" x="659.052694" y="388.660839" style="stroke: #000000"/>
     <use xlink:href="#m071b40e341" x="664.021765" y="388.660839" style="stroke: #000000"/>
     <use xlink:href="#m071b40e341" x="668.990836" y="103.876319" style="stroke: #000000"/>
     <use xlink:href="#m071b40e341" x="673.959908" y="388.660839" style="stroke: #000000"/>
     <use xlink:href="#m071b40e341" x="679.089272" y="388.660839" style="stroke: #000000"/>
     <use xlink:href="#m071b40e341" x="684.058343" y="103.876319" style="stroke: #000000"/>
     <use xlink:href="#m071b40e341" x="689.027414" y="388.660839" style="stroke: #000000"/>
     <use xlink:href="#m071b40e341" x="693.996486" y="103.876319" style="stroke: #000000"/>
     <use xlink:href="#m071b40e341" x="699.12585" y="388.660839" style="stroke: #000000"/>
     <use xlink:href="#m071b40e341" x="704.094921" y="388.660839" style="stroke: #000000"/>
     <use xlink:href="#m071b40e341" x="709.063993" y="103.876319" style="stroke: #000000"/>
     <use xlink:href="#m071b40e341" x="714.033064" y="388.660839" style="stroke: #000000"/>
     <use xlink:href="#m071b40e341" x="719.162428" y="388.660839" style="stroke: #000000"/>
     <use xlink:href="#m071b40e341" x="724.131499" y="103.876319" style="stroke: #000000"/>
     <use xlink:href="#m071b40e341" x="729.100571" y="388.660839" style="stroke: #000000"/>
     <use xlink:href="#m071b40e341" x="734.069642" y="103.876319" style="stroke: #000000"/>
     <use xlink:href="#m071b40e341" x="739.199006" y="388.660839" style="stroke: #000000"/>
     <use xlink:href="#m071b40e341" x="744.168077" y="388.660839" style="stroke: #000000"/>
     <use xlink:href="#m071b40e341" x="749.137149" y="103.876319" style="stroke: #000000"/>
     <use xlink:href="#m071b40e341" x="754.10622" y="388.660839" style="stroke: #000000"/>
     <use xlink:href="#m071b40e341" x="759.235584" y="388.660839" style="stroke: #000000"/>
     <use xlink:href="#m071b40e341" x="764.204656" y="103.876319" style="stroke: #000000"/>
     <use xlink:href="#m071b40e341" x="769.173727" y="388.660839" style="stroke: #000000"/>
     <use xlink:href="#m071b40e341" x="774.142798" y="103.876319" style="stroke: #000000"/>
     <use xlink:href="#m071b40e341" x="779.272162" y="388.660839" style="stroke: #000000"/>
     <use xlink:href="#m071b40e341" x="784.241234" y="388.660839" style="stroke: #000000"/>
     <use xlink:href="#m071b40e341" x="789.210305" y="103.876319" style="stroke: #000000"/>
     <use xlink:href="#m071b40e341" x="794.179376" y="388.660839" style="stroke: #000000"/>
     <use xlink:href="#m071b40e341" x="799.30874" y="388.660839" style="stroke: #000000"/>
     <use xlink:href="#m071b40e341" x="804.277812" y="103.876319" style="stroke: #000000"/>
     <use xlink:href="#m071b40e341" x="809.246883" y="388.660839" style="stroke: #000000"/>
     <use xlink:href="#m071b40e341" x="814.215955" y="103.876319" style="stroke: #000000"/>
     <use xlink:href="#m071b40e341" x="819.345319" y="388.660839" style="stroke: #000000"/>
     <use xlink:href="#m071b40e341" x="824.31439" y="388.660839" style="stroke: #000000"/>
     <use xlink:href="#m071b40e341" x="829.283461" y="103.876319" style="stroke: #000000"/>
     <use xlink:href="#m071b40e341" x="834.252533" y="388.660839" style="stroke: #000000"/>
     <use xlink:href="#m071b40e341" x="839.381897" y="388.660839" style="stroke: #000000"/>
     <use xlink:href="#m071b40e341" x="844.350968" y="103.876319" style="stroke: #000000"/>
     <use xlink:href="#m071b40e341" x="849.320039" y="388.660839" style="stroke: #000000"/>
     <use xlink:href="#m071b40e341" x="854.289111" y="103.876319" style="stroke: #000000"/>
     <use xlink:href="#m071b40e341" x="859.418475" y="388.660839" style="stroke: #000000"/>
     <use xlink:href="#m071b40e341" x="864.387546" y="388.660839" style="stroke: #000000"/>
     <use xlink:href="#m071b40e341" x="869.356618" y="103.876319" style="stroke: #000000"/>
     <use xlink:href="#m071b40e341" x="874.325689" y="388.660839" style="stroke: #000000"/>
     <use xlink:href="#m071b40e341" x="879.455053" y="388.660839" style="stroke: #000000"/>
     <use xlink:href="#m071b40e341" x="884.424124" y="103.876319" style="stroke: #000000"/>
     <use xlink:href="#m071b40e341" x="889.393196" y="388.660839" style="stroke: #000000"/>
     <use xlink:href="#m071b40e341" x="894.362267" y="103.876319" style="stroke: #000000"/>
     <use xlink:href="#m071b40e341" x="899.491631" y="388.660839" style="stroke: #000000"/>
     <use xlink:href="#m071b40e341" x="904.460702" y="388.660839" style="stroke: #000000"/>
     <use xlink:href="#m071b40e341" x="909.429774" y="103.876319" style="stroke: #000000"/>
     <use xlink:href="#m071b40e341" x="914.398845" y="388.660839" style="stroke: #000000"/>
     <use xlink:href="#m071b40e341" x="919.528209" y="388.660839" style="stroke: #000000"/>
     <use xlink:href="#m071b40e341" x="924.497281" y="103.876319" style="stroke: #000000"/>
     <use xlink:href="#m071b40e341" x="929.466352" y="388.660839" style="stroke: #000000"/>
    </g>
   </g>
   <g id="patch_3">
    <path d="M 135 448.56 
L 135 60.48 
" style="fill: none; stroke: #000000; stroke-width: 0.8; stroke-linejoin: miter; stroke-linecap: square"/>
   </g>
   <g id="patch_4">
    <path d="M 972 448.56 
L 972 60.48 
" style="fill: none; stroke: #000000; stroke-width: 0.8; stroke-linejoin: miter; stroke-linecap: square"/>
   </g>
   <g id="patch_5">
    <path d="M 135 448.56 
L 972 448.56 
" style="fill: none; stroke: #000000; stroke-width: 0.8; stroke-linejoin: miter; stroke-linecap: square"/>
   </g>
   <g id="patch_6">
    <path d="M 135 60.48 
L 972 60.48 
" style="fill: none; stroke: #000000; stroke-width: 0.8; stroke-linejoin: miter; stroke-linecap: square"/>
   </g>
   <g id="legend_1">
    <g id="patch_7">
     <path d="M 895.915625 278.315313 
L 965 278.315313 
Q 967 278.315313 967 276.315313 
L 967 232.724688 
Q 967 230.724688 965 230.724688 
L 895.915625 230.724688 
Q 893.915625 230.724688 893.915625 232.724688 
L 893.915625 276.315313 
Q 893.915625 278.315313 895.915625 278.315313 
z
" style="fill: #ffffff; opacity: 0.8; stroke: #cccccc; stroke-linejoin: miter"/>
    </g>
    <g id="line2d_16">
     <path d="M 897.915625 238.823125 
L 907.915625 238.823125 
L 917.915625 238.823125 
" style="fill: none; stroke: #1f77b4; stroke-width: 1.5; stroke-linecap: square"/>
    </g>
    <g id="text_14">
     <!-- nw_0 -->
     <g transform="translate(925.915625 242.323125) scale(0.1 -0.1)">
      <defs>
       <path id="DejaVuSans-6e" d="M 3513 2113 
L 3513 0 
L 2938 0 
L 2938 2094 
Q 2938 2591 2744 2837 
Q 2550 3084 2163 3084 
Q 1697 3084 1428 2787 
Q 1159 2491 1159 1978 
L 1159 0 
L 581 0 
L 581 3500 
L 1159 3500 
L 1159 2956 
Q 1366 3272 1645 3428 
Q 1925 3584 2291 3584 
Q 2894 3584 3203 3211 
Q 3513 2838 3513 2113 
z
" transform="scale(0.015625)"/>
       <path id="DejaVuSans-77" d="M 269 3500 
L 844 3500 
L 1563 769 
L 2278 3500 
L 2956 3500 
L 3675 769 
L 4391 3500 
L 4966 3500 
L 4050 0 
L 3372 0 
L 2619 2869 
L 1863 0 
L 1184 0 
L 269 3500 
z
" transform="scale(0.015625)"/>
       <path id="DejaVuSans-5f" d="M 3263 -1063 
L 3263 -1509 
L -63 -1509 
L -63 -1063 
L 3263 -1063 
z
" transform="scale(0.015625)"/>
      </defs>
      <use xlink:href="#DejaVuSans-6e"/>
      <use xlink:href="#DejaVuSans-77" x="63.378906"/>
      <use xlink:href="#DejaVuSans-5f" x="145.166016"/>
      <use xlink:href="#DejaVuSans-30" x="195.166016"/>
     </g>
    </g>
    <g id="line2d_17">
     <path d="M 897.915625 253.779375 
L 907.915625 253.779375 
L 917.915625 253.779375 
" style="fill: none; stroke: #ff7f0e; stroke-width: 1.5; stroke-linecap: square"/>
    </g>
    <g id="text_15">
     <!-- input_0 -->
     <g transform="translate(925.915625 257.279375) scale(0.1 -0.1)">
      <defs>
       <path id="DejaVuSans-69" d="M 603 3500 
L 1178 3500 
L 1178 0 
L 603 0 
L 603 3500 
z
M 603 4863 
L 1178 4863 
L 1178 4134 
L 603 4134 
L 603 4863 
z
" transform="scale(0.015625)"/>
       <path id="DejaVuSans-70" d="M 1159 525 
L 1159 -1331 
L 581 -1331 
L 581 3500 
L 1159 3500 
L 1159 2969 
Q 1341 3281 1617 3432 
Q 1894 3584 2278 3584 
Q 2916 3584 3314 3078 
Q 3713 2572 3713 1747 
Q 3713 922 3314 415 
Q 2916 -91 2278 -91 
Q 1894 -91 1617 61 
Q 1341 213 1159 525 
z
M 3116 1747 
Q 3116 2381 2855 2742 
Q 2594 3103 2138 3103 
Q 1681 3103 1420 2742 
Q 1159 2381 1159 1747 
Q 1159 1113 1420 752 
Q 1681 391 2138 391 
Q 2594 391 2855 752 
Q 3116 1113 3116 1747 
z
" transform="scale(0.015625)"/>
       <path id="DejaVuSans-75" d="M 544 1381 
L 544 3500 
L 1119 3500 
L 1119 1403 
Q 1119 906 1312 657 
Q 1506 409 1894 409 
Q 2359 409 2629 706 
Q 2900 1003 2900 1516 
L 2900 3500 
L 3475 3500 
L 3475 0 
L 2900 0 
L 2900 538 
Q 2691 219 2414 64 
Q 2138 -91 1772 -91 
Q 1169 -91 856 284 
Q 544 659 544 1381 
z
M 1991 3584 
L 1991 3584 
z
" transform="scale(0.015625)"/>
      </defs>
      <use xlink:href="#DejaVuSans-69"/>
      <use xlink:href="#DejaVuSans-6e" x="27.783203"/>
      <use xlink:href="#DejaVuSans-70" x="91.162109"/>
      <use xlink:href="#DejaVuSans-75" x="154.638672"/>
      <use xlink:href="#DejaVuSans-74" x="218.017578"/>
      <use xlink:href="#DejaVuSans-5f" x="257.226562"/>
      <use xlink:href="#DejaVuSans-30" x="307.226562"/>
     </g>
    </g>
    <g id="line2d_18">
     <path d="M 897.915625 268.735625 
L 907.915625 268.735625 
L 917.915625 268.735625 
" style="fill: none; stroke: #000000; stroke-width: 1.5; stroke-linecap: square"/>
     <g>
      <use xlink:href="#m071b40e341" x="907.915625" y="268.735625" style="stroke: #000000"/>
     </g>
    </g>
    <g id="text_16">
     <!-- target -->
     <g transform="translate(925.915625 272.235625) scale(0.1 -0.1)">
      <defs>
       <path id="DejaVuSans-61" d="M 2194 1759 
Q 1497 1759 1228 1600 
Q 959 1441 959 1056 
Q 959 750 1161 570 
Q 1363 391 1709 391 
Q 2188 391 2477 730 
Q 2766 1069 2766 1631 
L 2766 1759 
L 2194 1759 
z
M 3341 1997 
L 3341 0 
L 2766 0 
L 2766 531 
Q 2569 213 2275 61 
Q 1981 -91 1556 -91 
Q 1019 -91 701 211 
Q 384 513 384 1019 
Q 384 1609 779 1909 
Q 1175 2209 1959 2209 
L 2766 2209 
L 2766 2266 
Q 2766 2663 2505 2880 
Q 2244 3097 1772 3097 
Q 1472 3097 1187 3025 
Q 903 2953 641 2809 
L 641 3341 
Q 956 3463 1253 3523 
Q 1550 3584 1831 3584 
Q 2591 3584 2966 3190 
Q 3341 2797 3341 1997 
z
" transform="scale(0.015625)"/>
       <path id="DejaVuSans-72" d="M 2631 2963 
Q 2534 3019 2420 3045 
Q 2306 3072 2169 3072 
Q 1681 3072 1420 2755 
Q 1159 2438 1159 1844 
L 1159 0 
L 581 0 
L 581 3500 
L 1159 3500 
L 1159 2956 
Q 1341 3275 1631 3429 
Q 1922 3584 2338 3584 
Q 2397 3584 2469 3576 
Q 2541 3569 2628 3553 
L 2631 2963 
z
" transform="scale(0.015625)"/>
       <path id="DejaVuSans-67" d="M 2906 1791 
Q 2906 2416 2648 2759 
Q 2391 3103 1925 3103 
Q 1463 3103 1205 2759 
Q 947 2416 947 1791 
Q 947 1169 1205 825 
Q 1463 481 1925 481 
Q 2391 481 2648 825 
Q 2906 1169 2906 1791 
z
M 3481 434 
Q 3481 -459 3084 -895 
Q 2688 -1331 1869 -1331 
Q 1566 -1331 1297 -1286 
Q 1028 -1241 775 -1147 
L 775 -588 
Q 1028 -725 1275 -790 
Q 1522 -856 1778 -856 
Q 2344 -856 2625 -561 
Q 2906 -266 2906 331 
L 2906 616 
Q 2728 306 2450 153 
Q 2172 0 1784 0 
Q 1141 0 747 490 
Q 353 981 353 1791 
Q 353 2603 747 3093 
Q 1141 3584 1784 3584 
Q 2172 3584 2450 3431 
Q 2728 3278 2906 2969 
L 2906 3500 
L 3481 3500 
L 3481 434 
z
" transform="scale(0.015625)"/>
       <path id="DejaVuSans-65" d="M 3597 1894 
L 3597 1613 
L 953 1613 
Q 991 1019 1311 708 
Q 1631 397 2203 397 
Q 2534 397 2845 478 
Q 3156 559 3463 722 
L 3463 178 
Q 3153 47 2828 -22 
Q 2503 -91 2169 -91 
Q 1331 -91 842 396 
Q 353 884 353 1716 
Q 353 2575 817 3079 
Q 1281 3584 2069 3584 
Q 2775 3584 3186 3129 
Q 3597 2675 3597 1894 
z
M 3022 2063 
Q 3016 2534 2758 2815 
Q 2500 3097 2075 3097 
Q 1594 3097 1305 2825 
Q 1016 2553 972 2059 
L 3022 2063 
z
" transform="scale(0.015625)"/>
      </defs>
      <use xlink:href="#DejaVuSans-74"/>
      <use xlink:href="#DejaVuSans-61" x="39.208984"/>
      <use xlink:href="#DejaVuSans-72" x="100.488281"/>
      <use xlink:href="#DejaVuSans-67" x="139.851562"/>
      <use xlink:href="#DejaVuSans-65" x="203.328125"/>
      <use xlink:href="#DejaVuSans-74" x="264.851562"/>
     </g>
    </g>
   </g>
  </g>
 </g>
 <defs>
  <clipPath id="p61526f0e35">
   <rect x="135" y="60.48" width="837" height="388.08"/>
  </clipPath>
 </defs>
</svg>
