<?xml version="1.0" encoding="utf-8" standalone="no"?>
<!DOCTYPE svg PUBLIC "-//W3C//DTD SVG 1.1//EN"
  "http://www.w3.org/Graphics/SVG/1.1/DTD/svg11.dtd">
<svg xmlns:xlink="http://www.w3.org/1999/xlink" width="1080pt" height="504pt" viewBox="0 0 1080 504" xmlns="http://www.w3.org/2000/svg" version="1.1">
 <metadata>
  <rdf:RDF xmlns:dc="http://purl.org/dc/elements/1.1/" xmlns:cc="http://creativecommons.org/ns#" xmlns:rdf="http://www.w3.org/1999/02/22-rdf-syntax-ns#">
   <cc:Work>
    <dc:type rdf:resource="http://purl.org/dc/dcmitype/StillImage"/>
    <dc:date>2024-05-09T11:03:41.803547</dc:date>
    <dc:format>image/svg+xml</dc:format>
    <dc:creator>
     <cc:Agent>
      <dc:title>Matplotlib v3.7.1, https://matplotlib.org/</dc:title>
     </cc:Agent>
    </dc:creator>
   </cc:Work>
  </rdf:RDF>
 </metadata>
 <defs>
  <style type="text/css">*{stroke-linejoin: round; stroke-linecap: butt}</style>
 </defs>
 <g id="figure_1">
  <g id="patch_1">
   <path d="M 0 504 
L 1080 504 
L 1080 0 
L 0 0 
z
" style="fill: #ffffff"/>
  </g>
  <g id="axes_1">
   <g id="patch_2">
    <path d="M 135 448.56 
L 972 448.56 
L 972 60.48 
L 135 60.48 
z
" style="fill: #ffffff"/>
   </g>
   <g id="matplotlib.axis_1">
    <g id="xtick_1">
     <g id="line2d_1">
      <defs>
       <path id="m07fd1523a2" d="M 0 0 
L 0 3.5 
" style="stroke: #000000; stroke-width: 0.8"/>
      </defs>
      <g>
       <use xlink:href="#m07fd1523a2" x="173.045455" y="448.56" style="stroke: #000000; stroke-width: 0.8"/>
      </g>
     </g>
     <g id="text_1">
      <!-- 0 -->
      <g transform="translate(169.864205 463.158437) scale(0.1 -0.1)">
       <defs>
        <path id="DejaVuSans-30" d="M 2034 4250 
Q 1547 4250 1301 3770 
Q 1056 3291 1056 2328 
Q 1056 1369 1301 889 
Q 1547 409 2034 409 
Q 2525 409 2770 889 
Q 3016 1369 3016 2328 
Q 3016 3291 2770 3770 
Q 2525 4250 2034 4250 
z
M 2034 4750 
Q 2819 4750 3233 4129 
Q 3647 3509 3647 2328 
Q 3647 1150 3233 529 
Q 2819 -91 2034 -91 
Q 1250 -91 836 529 
Q 422 1150 422 2328 
Q 422 3509 836 4129 
Q 1250 4750 2034 4750 
z
" transform="scale(0.015625)"/>
       </defs>
       <use xlink:href="#DejaVuSans-30"/>
      </g>
     </g>
    </g>
    <g id="xtick_2">
     <g id="line2d_2">
      <g>
       <use xlink:href="#m07fd1523a2" x="333.33808" y="448.56" style="stroke: #000000; stroke-width: 0.8"/>
      </g>
     </g>
     <g id="text_2">
      <!-- 1000 -->
      <g transform="translate(320.61308 463.158437) scale(0.1 -0.1)">
       <defs>
        <path id="DejaVuSans-31" d="M 794 531 
L 1825 531 
L 1825 4091 
L 703 3866 
L 703 4441 
L 1819 4666 
L 2450 4666 
L 2450 531 
L 3481 531 
L 3481 0 
L 794 0 
L 794 531 
z
" transform="scale(0.015625)"/>
       </defs>
       <use xlink:href="#DejaVuSans-31"/>
       <use xlink:href="#DejaVuSans-30" x="63.623047"/>
       <use xlink:href="#DejaVuSans-30" x="127.246094"/>
       <use xlink:href="#DejaVuSans-30" x="190.869141"/>
      </g>
     </g>
    </g>
    <g id="xtick_3">
     <g id="line2d_3">
      <g>
       <use xlink:href="#m07fd1523a2" x="493.630705" y="448.56" style="stroke: #000000; stroke-width: 0.8"/>
      </g>
     </g>
     <g id="text_3">
      <!-- 2000 -->
      <g transform="translate(480.905705 463.158437) scale(0.1 -0.1)">
       <defs>
        <path id="DejaVuSans-32" d="M 1228 531 
L 3431 531 
L 3431 0 
L 469 0 
L 469 531 
Q 828 903 1448 1529 
Q 2069 2156 2228 2338 
Q 2531 2678 2651 2914 
Q 2772 3150 2772 3378 
Q 2772 3750 2511 3984 
Q 2250 4219 1831 4219 
Q 1534 4219 1204 4116 
Q 875 4013 500 3803 
L 500 4441 
Q 881 4594 1212 4672 
Q 1544 4750 1819 4750 
Q 2544 4750 2975 4387 
Q 3406 4025 3406 3419 
Q 3406 3131 3298 2873 
Q 3191 2616 2906 2266 
Q 2828 2175 2409 1742 
Q 1991 1309 1228 531 
z
" transform="scale(0.015625)"/>
       </defs>
       <use xlink:href="#DejaVuSans-32"/>
       <use xlink:href="#DejaVuSans-30" x="63.623047"/>
       <use xlink:href="#DejaVuSans-30" x="127.246094"/>
       <use xlink:href="#DejaVuSans-30" x="190.869141"/>
      </g>
     </g>
    </g>
    <g id="xtick_4">
     <g id="line2d_4">
      <g>
       <use xlink:href="#m07fd1523a2" x="653.92333" y="448.56" style="stroke: #000000; stroke-width: 0.8"/>
      </g>
     </g>
     <g id="text_4">
      <!-- 3000 -->
      <g transform="translate(641.19833 463.158437) scale(0.1 -0.1)">
       <defs>
        <path id="DejaVuSans-33" d="M 2597 2516 
Q 3050 2419 3304 2112 
Q 3559 1806 3559 1356 
Q 3559 666 3084 287 
Q 2609 -91 1734 -91 
Q 1441 -91 1130 -33 
Q 819 25 488 141 
L 488 750 
Q 750 597 1062 519 
Q 1375 441 1716 441 
Q 2309 441 2620 675 
Q 2931 909 2931 1356 
Q 2931 1769 2642 2001 
Q 2353 2234 1838 2234 
L 1294 2234 
L 1294 2753 
L 1863 2753 
Q 2328 2753 2575 2939 
Q 2822 3125 2822 3475 
Q 2822 3834 2567 4026 
Q 2313 4219 1838 4219 
Q 1578 4219 1281 4162 
Q 984 4106 628 3988 
L 628 4550 
Q 988 4650 1302 4700 
Q 1616 4750 1894 4750 
Q 2613 4750 3031 4423 
Q 3450 4097 3450 3541 
Q 3450 3153 3228 2886 
Q 3006 2619 2597 2516 
z
" transform="scale(0.015625)"/>
       </defs>
       <use xlink:href="#DejaVuSans-33"/>
       <use xlink:href="#DejaVuSans-30" x="63.623047"/>
       <use xlink:href="#DejaVuSans-30" x="127.246094"/>
       <use xlink:href="#DejaVuSans-30" x="190.869141"/>
      </g>
     </g>
    </g>
    <g id="xtick_5">
     <g id="line2d_5">
      <g>
       <use xlink:href="#m07fd1523a2" x="814.215955" y="448.56" style="stroke: #000000; stroke-width: 0.8"/>
      </g>
     </g>
     <g id="text_5">
      <!-- 4000 -->
      <g transform="translate(801.490955 463.158437) scale(0.1 -0.1)">
       <defs>
        <path id="DejaVuSans-34" d="M 2419 4116 
L 825 1625 
L 2419 1625 
L 2419 4116 
z
M 2253 4666 
L 3047 4666 
L 3047 1625 
L 3713 1625 
L 3713 1100 
L 3047 1100 
L 3047 0 
L 2419 0 
L 2419 1100 
L 313 1100 
L 313 1709 
L 2253 4666 
z
" transform="scale(0.015625)"/>
       </defs>
       <use xlink:href="#DejaVuSans-34"/>
       <use xlink:href="#DejaVuSans-30" x="63.623047"/>
       <use xlink:href="#DejaVuSans-30" x="127.246094"/>
       <use xlink:href="#DejaVuSans-30" x="190.869141"/>
      </g>
     </g>
    </g>
    <g id="text_6">
     <!-- t -->
     <g transform="translate(551.539844 476.836563) scale(0.1 -0.1)">
      <defs>
       <path id="DejaVuSans-74" d="M 1172 4494 
L 1172 3500 
L 2356 3500 
L 2356 3053 
L 1172 3053 
L 1172 1153 
Q 1172 725 1289 603 
Q 1406 481 1766 481 
L 2356 481 
L 2356 0 
L 1766 0 
Q 1100 0 847 248 
Q 594 497 594 1153 
L 594 3053 
L 172 3053 
L 172 3500 
L 594 3500 
L 594 4494 
L 1172 4494 
z
" transform="scale(0.015625)"/>
      </defs>
      <use xlink:href="#DejaVuSans-74"/>
     </g>
    </g>
   </g>
   <g id="matplotlib.axis_2">
    <g id="ytick_1">
     <g id="line2d_6">
      <defs>
       <path id="m7fe9fa567e" d="M 0 0 
L -3.5 0 
" style="stroke: #000000; stroke-width: 0.8"/>
      </defs>
      <g>
       <use xlink:href="#m7fe9fa567e" x="135" y="396.609074" style="stroke: #000000; stroke-width: 0.8"/>
      </g>
     </g>
     <g id="text_7">
      <!-- −2 -->
      <g transform="translate(113.257812 400.408292) scale(0.1 -0.1)">
       <defs>
        <path id="DejaVuSans-2212" d="M 678 2272 
L 4684 2272 
L 4684 1741 
L 678 1741 
L 678 2272 
z
" transform="scale(0.015625)"/>
       </defs>
       <use xlink:href="#DejaVuSans-2212"/>
       <use xlink:href="#DejaVuSans-32" x="83.789062"/>
      </g>
     </g>
    </g>
    <g id="ytick_2">
     <g id="line2d_7">
      <g>
       <use xlink:href="#m7fe9fa567e" x="135" y="324.034522" style="stroke: #000000; stroke-width: 0.8"/>
      </g>
     </g>
     <g id="text_8">
      <!-- −1 -->
      <g transform="translate(113.257812 327.83374) scale(0.1 -0.1)">
       <use xlink:href="#DejaVuSans-2212"/>
       <use xlink:href="#DejaVuSans-31" x="83.789062"/>
      </g>
     </g>
    </g>
    <g id="ytick_3">
     <g id="line2d_8">
      <g>
       <use xlink:href="#m7fe9fa567e" x="135" y="251.45997" style="stroke: #000000; stroke-width: 0.8"/>
      </g>
     </g>
     <g id="text_9">
      <!-- 0 -->
      <g transform="translate(121.6375 255.259189) scale(0.1 -0.1)">
       <use xlink:href="#DejaVuSans-30"/>
      </g>
     </g>
    </g>
    <g id="ytick_4">
     <g id="line2d_9">
      <g>
       <use xlink:href="#m7fe9fa567e" x="135" y="178.885418" style="stroke: #000000; stroke-width: 0.8"/>
      </g>
     </g>
     <g id="text_10">
      <!-- 1 -->
      <g transform="translate(121.6375 182.684637) scale(0.1 -0.1)">
       <use xlink:href="#DejaVuSans-31"/>
      </g>
     </g>
    </g>
    <g id="ytick_5">
     <g id="line2d_10">
      <g>
       <use xlink:href="#m7fe9fa567e" x="135" y="106.310866" style="stroke: #000000; stroke-width: 0.8"/>
      </g>
     </g>
     <g id="text_11">
      <!-- 2 -->
      <g transform="translate(121.6375 110.110085) scale(0.1 -0.1)">
       <use xlink:href="#DejaVuSans-32"/>
      </g>
     </g>
    </g>
   </g>
   <g id="line2d_11">
    <path d="M 173.045455 190.812192 
L 173.36604 118.62307 
L 173.686625 86.813641 
L 174.00721 78.12 
L 174.167503 78.936603 
L 174.488088 86.285696 
L 176.251307 142.434133 
L 176.892478 154.430332 
L 177.533648 162.691936 
L 177.693941 164.318857 
L 178.014526 289.769221 
L 178.335111 354.112355 
L 178.655696 385.659595 
L 178.976282 398.6789 
L 179.136574 400.965555 
L 179.296867 401.385354 
L 179.45716 400.445654 
L 179.777745 395.953813 
L 180.418915 382.146129 
L 181.540964 351.667948 
L 182.342427 331.043432 
L 182.823305 322.599535 
L 183.304183 317.976401 
L 183.624768 316.879381 
L 183.78506 316.841845 
L 183.945353 317.096735 
L 184.265938 318.32787 
L 184.746816 321.398292 
L 186.349742 332.721062 
L 186.990913 335.473391 
L 187.632083 337.210682 
L 188.433547 338.604433 
L 189.87618 340.507234 
L 190.677643 341.292945 
L 191.318814 341.64958 
L 191.959984 341.738575 
L 192.761447 341.552629 
L 195.486422 340.582634 
L 196.768763 340.526606 
L 203.340761 340.632952 
L 213.278903 340.601032 
L 213.599489 235.577783 
L 213.920074 191.598823 
L 214.240659 177.877507 
L 214.400952 177.089448 
L 214.561244 178.592934 
L 215.042122 189.254208 
L 215.683293 203.986267 
L 216.164171 210.768083 
L 216.484756 213.046453 
L 216.805341 213.796463 
L 216.965634 213.698418 
L 217.286219 212.771443 
L 217.767097 210.171873 
L 218.087682 208.04765 
L 218.408267 330.41739 
L 218.728853 392.648055 
L 219.049438 421.179765 
L 219.370023 430.501696 
L 219.530316 430.919766 
L 219.690608 429.542264 
L 220.011194 423.427649 
L 220.812657 400.924438 
L 222.736168 344.539065 
L 223.377339 333.197511 
L 223.858217 328.741467 
L 224.178802 327.495554 
L 224.339095 327.310557 
L 224.499387 327.375445 
L 224.819972 328.121283 
L 225.30085 330.284568 
L 226.743484 337.754731 
L 227.384654 339.68061 
L 227.865532 340.496373 
L 228.34641 340.949255 
L 229.147873 341.340022 
L 231.39197 342.13722 
L 232.193433 342.110815 
L 232.994896 341.845144 
L 235.719871 340.716383 
L 236.841919 340.592609 
L 239.246309 340.634302 
L 244.055087 340.618843 
L 253.99323 340.600389 
L 254.313815 235.577508 
L 254.634401 191.59879 
L 254.954986 177.877602 
L 255.115279 177.089582 
L 255.275571 178.5931 
L 255.756449 189.25445 
L 256.39762 203.986596 
L 256.878497 210.768461 
L 257.199083 213.046851 
L 257.519668 213.796869 
L 257.679961 213.698824 
L 258.000546 212.77184 
L 258.481424 210.17224 
L 258.802009 208.04799 
L 259.122594 330.417701 
L 259.443179 392.648346 
L 259.763765 421.180026 
L 260.08435 430.501919 
L 260.244643 430.919971 
L 260.404935 429.542452 
L 260.72552 423.427807 
L 261.526984 400.924547 
L 263.450495 344.539143 
L 264.091666 333.197583 
L 264.572543 328.741531 
L 264.893129 327.495613 
L 265.053421 327.310614 
L 265.213714 327.3755 
L 265.534299 328.121332 
L 266.015177 330.28461 
L 267.457811 337.754757 
L 268.098981 339.680632 
L 268.579859 340.496391 
L 269.060737 340.94927 
L 269.8622 341.340033 
L 272.106297 342.137222 
L 272.90776 342.110816 
L 273.709223 341.845144 
L 276.434198 340.716384 
L 277.556246 340.592609 
L 279.960635 340.634302 
L 284.769414 340.618843 
L 293.585509 340.600392 
L 293.906094 235.577463 
L 294.226679 191.5987 
L 294.547264 177.877484 
L 294.707557 177.089454 
L 294.86785 178.592963 
L 295.348727 189.254292 
L 295.989898 203.986418 
L 296.470776 210.768276 
L 296.791361 213.046666 
L 297.111946 213.796688 
L 297.272239 213.698645 
L 297.592824 212.771669 
L 298.073702 210.172086 
L 298.394287 208.047849 
L 298.714873 330.417572 
L 299.035458 392.648225 
L 299.356043 421.179916 
L 299.676628 430.501824 
L 299.836921 430.919884 
L 299.997214 429.542371 
L 300.317799 423.427738 
L 301.119262 400.924498 
L 303.042773 344.53911 
L 303.683944 333.197554 
L 304.164822 328.741505 
L 304.485407 327.495589 
L 304.6457 327.310591 
L 304.805992 327.375478 
L 305.126578 328.121313 
L 305.607455 330.284593 
L 307.050089 337.754747 
L 307.69126 339.680623 
L 308.172137 340.496384 
L 308.653015 340.949265 
L 309.454478 341.340029 
L 311.698575 342.137221 
L 312.500038 342.110815 
L 313.301501 341.845144 
L 316.026476 340.716383 
L 317.148524 340.592609 
L 319.552914 340.634302 
L 324.361693 340.618843 
L 333.818957 340.600404 
L 334.139543 235.577501 
L 334.460128 191.598762 
L 334.780713 177.877562 
L 334.941006 177.089537 
L 335.101298 178.593051 
L 335.582176 189.254392 
L 336.223347 203.98653 
L 336.704225 210.768392 
L 337.02481 213.046782 
L 337.345395 213.796801 
L 337.505688 213.698757 
L 337.826273 212.771776 
L 338.307151 210.172182 
L 338.627736 208.047936 
L 338.948321 330.417652 
L 339.268907 392.6483 
L 339.589492 421.179984 
L 339.910077 430.501883 
L 340.07037 430.919938 
L 340.230662 429.542421 
L 340.551248 423.42778 
L 341.352711 400.924528 
L 343.276222 344.53913 
L 343.917393 333.197572 
L 344.398271 328.741521 
L 344.718856 327.495604 
L 344.879149 327.310605 
L 345.039441 327.375491 
L 345.360026 328.121325 
L 345.840904 330.284604 
L 347.283538 337.754753 
L 347.924708 339.680629 
L 348.405586 340.496388 
L 348.886464 340.949268 
L 349.687927 341.340031 
L 351.932024 342.137222 
L 352.733487 342.110816 
L 353.53495 341.845144 
L 356.259925 340.716383 
L 357.381973 340.592609 
L 359.786363 340.634302 
L 364.595141 340.618843 
L 373.090651 340.600369 
L 373.411236 235.577427 
L 373.731821 191.598653 
L 374.052406 177.877431 
L 374.212699 177.089399 
L 374.372992 178.592906 
L 374.853869 189.254229 
L 375.49504 203.98635 
L 375.975918 210.768206 
L 376.296503 213.046597 
L 376.617088 213.79662 
L 376.777381 213.698578 
L 377.097966 212.771606 
L 377.578844 210.172029 
L 377.899429 208.047797 
L 378.220015 330.417524 
L 378.5406 392.64818 
L 378.861185 421.179876 
L 379.18177 430.50179 
L 379.342063 430.919852 
L 379.502356 429.542342 
L 379.822941 423.427714 
L 380.624404 400.924481 
L 382.547915 344.539098 
L 383.189086 333.197543 
L 383.669964 328.741495 
L 383.990549 327.49558 
L 384.150842 327.310583 
L 384.311134 327.37547 
L 384.63172 328.121305 
L 385.112597 330.284587 
L 386.555231 337.754743 
L 387.196402 339.68062 
L 387.677279 340.496381 
L 388.158157 340.949262 
L 388.95962 341.340027 
L 391.203717 342.137221 
L 392.00518 342.110815 
L 392.806643 341.845144 
L 395.531618 340.716383 
L 396.653666 340.592609 
L 399.058056 340.634302 
L 403.866835 340.618843 
L 413.644685 340.600396 
L 413.96527 235.577508 
L 414.285855 191.598782 
L 414.60644 177.87759 
L 414.766733 177.089569 
L 414.927026 178.593085 
L 415.407904 189.254432 
L 416.049074 203.986576 
L 416.529952 210.768439 
L 416.850537 213.04683 
L 417.171122 213.796848 
L 417.331415 213.698803 
L 417.652 212.77182 
L 418.132878 210.172222 
L 418.453463 208.047973 
L 418.774049 330.417686 
L 419.094634 392.648331 
L 419.415219 421.180013 
L 419.735804 430.501908 
L 419.896097 430.919961 
L 420.05639 429.542442 
L 420.376975 423.427798 
L 421.178438 400.924541 
L 423.10195 344.539139 
L 423.74312 333.19758 
L 424.223998 328.741528 
L 424.544583 327.49561 
L 424.704876 327.310611 
L 424.865168 327.375497 
L 425.185754 328.12133 
L 425.666632 330.284608 
L 427.109265 337.754756 
L 427.750436 339.680631 
L 428.231314 340.49639 
L 428.712191 340.94927 
L 429.513655 341.340032 
L 431.757751 342.137222 
L 432.559214 342.110816 
L 433.360678 341.845144 
L 436.085652 340.716383 
L 437.207701 340.592609 
L 439.61209 340.634302 
L 444.420869 340.618843 
L 453.557548 340.600403 
L 453.878134 235.577487 
L 454.198719 191.598735 
L 454.519304 177.877527 
L 454.679597 177.0895 
L 454.839889 178.593011 
L 455.320767 189.254346 
L 455.961938 203.986478 
L 456.442816 210.768338 
L 456.763401 213.046728 
L 457.083986 213.796748 
L 457.244279 213.698704 
L 457.564864 212.771726 
L 458.045742 210.172137 
L 458.366327 208.047895 
L 458.686912 330.417614 
L 459.007498 392.648264 
L 459.328083 421.179952 
L 459.648668 430.501855 
L 459.808961 430.919912 
L 459.969253 429.542397 
L 460.289839 423.42776 
L 461.091302 400.924514 
L 463.014813 344.53912 
L 463.655984 333.197563 
L 464.136862 328.741514 
L 464.457447 327.495597 
L 464.617739 327.310599 
L 464.778032 327.375485 
L 465.098617 328.121319 
L 465.579495 330.284599 
L 467.022129 337.75475 
L 467.663299 339.680626 
L 468.144177 340.496386 
L 468.625055 340.949266 
L 469.426518 341.34003 
L 471.670615 342.137222 
L 472.472078 342.110815 
L 473.273541 341.845144 
L 475.998516 340.716383 
L 477.120564 340.592609 
L 479.524954 340.634302 
L 484.333732 340.618843 
L 493.630705 340.600405 
L 493.95129 235.577495 
L 494.271875 191.59875 
L 494.59246 177.877545 
L 494.752753 177.089519 
L 494.913046 178.593032 
L 495.393923 189.25437 
L 496.035094 203.986505 
L 496.515972 210.768366 
L 496.836557 213.046756 
L 497.157142 213.796775 
L 497.317435 213.698731 
L 497.63802 212.771751 
L 498.118898 210.17216 
L 498.439483 208.047916 
L 498.760069 330.417634 
L 499.080654 392.648282 
L 499.401239 421.179969 
L 499.721824 430.501869 
L 499.882117 430.919925 
L 500.04241 429.542409 
L 500.362995 423.427771 
L 501.164458 400.924521 
L 503.087969 344.539125 
L 503.72914 333.197568 
L 504.210018 328.741518 
L 504.530603 327.495601 
L 504.690896 327.310602 
L 504.851188 327.375488 
L 505.171774 328.121322 
L 505.652651 330.284601 
L 507.095285 337.754752 
L 507.736456 339.680627 
L 508.217333 340.496387 
L 508.698211 340.949267 
L 509.499674 341.340031 
L 511.743771 342.137222 
L 512.545234 342.110816 
L 513.346697 341.845144 
L 516.071672 340.716383 
L 517.19372 340.592609 
L 519.59811 340.634302 
L 524.406889 340.618843 
L 533.864153 340.600404 
L 534.184739 235.577501 
L 534.505324 191.598762 
L 534.825909 177.877562 
L 534.986202 177.089537 
L 535.146494 178.593051 
L 535.627372 189.254392 
L 536.268543 203.98653 
L 536.749421 210.768392 
L 537.070006 213.046782 
L 537.390591 213.796801 
L 537.550884 213.698757 
L 537.871469 212.771776 
L 538.352347 210.172182 
L 538.672932 208.047936 
L 538.993517 330.417652 
L 539.314103 392.6483 
L 539.634688 421.179984 
L 539.955273 430.501883 
L 540.115566 430.919938 
L 540.275858 429.542421 
L 540.596444 423.42778 
L 541.397907 400.924528 
L 543.321418 344.53913 
L 543.962589 333.197572 
L 544.443467 328.741521 
L 544.764052 327.495604 
L 544.924345 327.310605 
L 545.084637 327.375491 
L 545.405222 328.121325 
L 545.8861 330.284604 
L 547.328734 337.754753 
L 547.969904 339.680629 
L 548.450782 340.496388 
L 548.93166 340.949268 
L 549.733123 341.340031 
L 551.97722 342.137222 
L 552.778683 342.110816 
L 553.580146 341.845144 
L 556.305121 340.716383 
L 557.427169 340.592609 
L 559.831559 340.634302 
L 564.640337 340.618843 
L 574.257895 340.600401 
L 574.57848 235.577505 
L 574.899065 191.598773 
L 575.219651 177.877576 
L 575.379943 177.089554 
L 575.540236 178.593069 
L 576.021114 189.254413 
L 576.662284 203.986554 
L 577.143162 210.768416 
L 577.463747 213.046807 
L 577.784333 213.796825 
L 577.944625 213.69878 
L 578.265211 212.771798 
L 578.746088 210.172203 
L 579.066674 208.047955 
L 579.387259 330.417669 
L 579.707844 392.648316 
L 580.028429 421.179999 
L 580.349015 430.501896 
L 580.509307 430.91995 
L 580.6696 429.542431 
L 580.990185 423.42779 
L 581.791648 400.924535 
L 583.71516 344.539134 
L 584.35633 333.197576 
L 584.837208 328.741525 
L 585.157793 327.495607 
L 585.318086 327.310608 
L 585.478379 327.375494 
L 585.798964 328.121328 
L 586.279842 330.284606 
L 587.722475 337.754755 
L 588.363646 339.68063 
L 588.844524 340.496389 
L 589.325402 340.949269 
L 590.126865 341.340032 
L 592.370962 342.137222 
L 593.172425 342.110816 
L 593.973888 341.845144 
L 596.698862 340.716383 
L 597.820911 340.592609 
L 600.2253 340.634302 
L 605.034079 340.618843 
L 613.209003 340.600334 
L 613.529588 235.577378 
L 613.850173 191.598594 
L 614.170759 177.877367 
L 614.331051 177.089334 
L 614.491344 178.592839 
L 614.972222 189.254157 
L 615.613392 203.986272 
L 616.09427 210.768127 
L 616.414855 213.046518 
L 616.735441 213.796543 
L 616.895733 213.698503 
L 617.216318 212.771534 
L 617.697196 210.171965 
L 618.017782 208.047738 
L 618.338367 330.417471 
L 618.658952 392.64813 
L 618.979537 421.179832 
L 619.300123 430.501751 
L 619.460415 430.919817 
L 619.620708 429.54231 
L 619.941293 423.427686 
L 620.742756 400.924462 
L 622.666268 344.539084 
L 623.307438 333.19753 
L 623.788316 328.741484 
L 624.108901 327.49557 
L 624.269194 327.310573 
L 624.429487 327.375461 
L 624.750072 328.121297 
L 625.23095 330.28458 
L 626.673583 337.754739 
L 627.314754 339.680617 
L 627.795632 340.496378 
L 628.27651 340.94926 
L 629.077973 341.340026 
L 631.322069 342.137221 
L 632.123533 342.110815 
L 632.924996 341.845144 
L 635.64997 340.716383 
L 636.772019 340.592609 
L 639.176408 340.634302 
L 643.985187 340.618843 
L 653.92333 340.600389 
L 654.243915 235.577508 
L 654.5645 191.59879 
L 654.885085 177.877602 
L 655.045378 177.089582 
L 655.205671 178.5931 
L 655.686548 189.25445 
L 656.327719 203.986596 
L 656.808597 210.768461 
L 657.129182 213.046851 
L 657.449767 213.796869 
L 657.61006 213.698824 
L 657.930645 212.77184 
L 658.411523 210.17224 
L 658.732108 208.04799 
L 659.052694 330.417701 
L 659.373279 392.648346 
L 659.693864 421.180026 
L 660.014449 430.501919 
L 660.174742 430.919971 
L 660.335035 429.542452 
L 660.65562 423.427807 
L 661.457083 400.924547 
L 663.380594 344.539143 
L 664.021765 333.197583 
L 664.502643 328.741531 
L 664.823228 327.495613 
L 664.983521 327.310614 
L 665.143813 327.3755 
L 665.464399 328.121332 
L 665.945276 330.28461 
L 667.38791 337.754757 
L 668.029081 339.680632 
L 668.509958 340.496391 
L 668.990836 340.94927 
L 669.792299 341.340033 
L 672.036396 342.137222 
L 672.837859 342.110816 
L 673.639322 341.845144 
L 676.364297 340.716384 
L 677.486345 340.592609 
L 679.890735 340.634302 
L 684.699514 340.618843 
L 694.156778 340.600404 
L 694.477364 235.577501 
L 694.797949 191.598762 
L 695.118534 177.877562 
L 695.278827 177.089537 
L 695.439119 178.593051 
L 695.919997 189.254392 
L 696.561168 203.98653 
L 697.042046 210.768392 
L 697.362631 213.046782 
L 697.683216 213.796801 
L 697.843509 213.698757 
L 698.164094 212.771776 
L 698.644972 210.172182 
L 698.965557 208.047936 
L 699.286142 330.417652 
L 699.606728 392.6483 
L 699.927313 421.179984 
L 700.247898 430.501883 
L 700.408191 430.919938 
L 700.568483 429.542421 
L 700.889069 423.42778 
L 701.690532 400.924528 
L 703.614043 344.53913 
L 704.255214 333.197572 
L 704.736092 328.741521 
L 705.056677 327.495604 
L 705.21697 327.310605 
L 705.377262 327.375491 
L 705.697847 328.121325 
L 706.178725 330.284604 
L 707.621359 337.754753 
L 708.262529 339.680629 
L 708.743407 340.496388 
L 709.224285 340.949268 
L 710.025748 341.340031 
L 712.269845 342.137222 
L 713.071308 342.110816 
L 713.872771 341.845144 
L 716.597746 340.716383 
L 717.719794 340.592609 
L 720.124184 340.634302 
L 724.932962 340.618843 
L 734.069642 340.600403 
L 734.390227 235.577487 
L 734.710813 191.598735 
L 735.031398 177.877527 
L 735.19169 177.0895 
L 735.351983 178.593011 
L 735.832861 189.254346 
L 736.474031 203.986478 
L 736.954909 210.768338 
L 737.275495 213.046728 
L 737.59608 213.796748 
L 737.756372 213.698704 
L 738.076958 212.771726 
L 738.557836 210.172137 
L 738.878421 208.047895 
L 739.199006 330.417614 
L 739.519591 392.648264 
L 739.840177 421.179952 
L 740.160762 430.501855 
L 740.321054 430.919912 
L 740.481347 429.542397 
L 740.801932 423.42776 
L 741.603395 400.924514 
L 743.526907 344.53912 
L 744.168077 333.197563 
L 744.648955 328.741514 
L 744.969541 327.495597 
L 745.129833 327.310599 
L 745.290126 327.375485 
L 745.610711 328.121319 
L 746.091589 330.284599 
L 747.534223 337.75475 
L 748.175393 339.680626 
L 748.656271 340.496386 
L 749.137149 340.949266 
L 749.938612 341.34003 
L 752.182709 342.137222 
L 752.984172 342.110815 
L 753.785635 341.845144 
L 756.51061 340.716383 
L 757.632658 340.592609 
L 760.037047 340.634302 
L 764.845826 340.618843 
L 773.822213 340.600399 
L 774.142798 235.577476 
L 774.463384 191.598719 
L 774.783969 177.877506 
L 774.944261 177.089478 
L 775.104554 178.592988 
L 775.585432 189.25432 
L 776.226602 203.986449 
L 776.70748 210.768308 
L 777.028066 213.046698 
L 777.348651 213.796719 
L 777.508943 213.698676 
L 777.829529 212.771698 
L 778.310407 210.172112 
L 778.630992 208.047873 
L 778.951577 330.417594 
L 779.272162 392.648245 
L 779.592748 421.179935 
L 779.913333 430.50184 
L 780.073625 430.919898 
L 780.233918 429.542384 
L 780.554503 423.427749 
L 781.355966 400.924506 
L 783.279478 344.539115 
L 783.920648 333.197559 
L 784.401526 328.741509 
L 784.722112 327.495593 
L 784.882404 327.310595 
L 785.042697 327.375481 
L 785.363282 328.121316 
L 785.84416 330.284596 
L 787.286794 337.754749 
L 787.927964 339.680625 
L 788.408842 340.496385 
L 788.88972 340.949266 
L 789.691183 341.340029 
L 791.93528 342.137222 
L 792.736743 342.110815 
L 793.538206 341.845144 
L 796.263181 340.716383 
L 797.385229 340.592609 
L 799.789618 340.634302 
L 804.598397 340.618843 
L 813.414491 340.600392 
L 813.735077 235.577463 
L 814.055662 191.5987 
L 814.376247 177.877484 
L 814.53654 177.089454 
L 814.696832 178.592963 
L 815.17771 189.254292 
L 815.818881 203.986418 
L 816.299759 210.768276 
L 816.620344 213.046666 
L 816.940929 213.796688 
L 817.101222 213.698645 
L 817.421807 212.771669 
L 817.902685 210.172086 
L 818.22327 208.047849 
L 818.543855 330.417572 
L 818.864441 392.648225 
L 819.185026 421.179916 
L 819.505611 430.501824 
L 819.665904 430.919884 
L 819.826196 429.542371 
L 820.146782 423.427738 
L 820.948245 400.924498 
L 822.871756 344.53911 
L 823.512927 333.197554 
L 823.993805 328.741505 
L 824.31439 327.495589 
L 824.474683 327.310591 
L 824.634975 327.375478 
L 824.95556 328.121313 
L 825.436438 330.284593 
L 826.879072 337.754747 
L 827.520242 339.680623 
L 828.00112 340.496384 
L 828.481998 340.949265 
L 829.283461 341.340029 
L 831.527558 342.137221 
L 832.329021 342.110815 
L 833.130484 341.845144 
L 835.855459 340.716383 
L 836.977507 340.592609 
L 839.381897 340.634302 
L 844.190675 340.618843 
L 854.609696 340.60036 
L 854.930281 235.577504 
L 855.250867 191.598805 
L 855.571452 177.877631 
L 855.731744 177.089616 
L 855.892037 178.593138 
L 856.372915 189.254497 
L 857.014085 203.98665 
L 857.494963 210.768518 
L 857.815549 213.046909 
L 858.136134 213.796926 
L 858.296426 213.698879 
L 858.617012 212.771893 
L 859.09789 210.172289 
L 859.418475 208.048035 
L 859.73906 330.417742 
L 860.059645 392.648384 
L 860.380231 421.180061 
L 860.700816 430.50195 
L 860.861108 430.92 
L 861.021401 429.542478 
L 861.341986 423.427829 
L 862.143449 400.924563 
L 864.066961 344.539153 
L 864.708131 333.197592 
L 865.189009 328.74154 
L 865.509595 327.495621 
L 865.669887 327.310621 
L 865.83018 327.375506 
L 866.150765 328.121339 
L 866.631643 330.284615 
L 868.074277 337.75476 
L 868.715447 339.680634 
L 869.196325 340.496393 
L 869.677203 340.949272 
L 870.478666 341.340034 
L 872.722763 342.137223 
L 873.524226 342.110816 
L 874.325689 341.845144 
L 877.050664 340.716384 
L 878.172712 340.592609 
L 880.577101 340.634302 
L 885.38588 340.618843 
L 894.362267 340.600399 
L 894.682852 235.577476 
L 895.003438 191.598719 
L 895.324023 177.877506 
L 895.484315 177.089478 
L 895.644608 178.592988 
L 896.125486 189.25432 
L 896.766656 203.986449 
L 897.247534 210.768308 
L 897.56812 213.046698 
L 897.888705 213.796719 
L 898.048997 213.698676 
L 898.369583 212.771698 
L 898.850461 210.172112 
L 899.171046 208.047873 
L 899.491631 330.417594 
L 899.812216 392.648245 
L 900.132802 421.179935 
L 900.453387 430.50184 
L 900.613679 430.919898 
L 900.773972 429.542384 
L 901.094557 423.427749 
L 901.89602 400.924506 
L 903.819532 344.539115 
L 904.460702 333.197559 
L 904.94158 328.741509 
L 905.262166 327.495593 
L 905.422458 327.310595 
L 905.582751 327.375481 
L 905.903336 328.121316 
L 906.384214 330.284596 
L 907.826848 337.754749 
L 908.468018 339.680625 
L 908.948896 340.496385 
L 909.429774 340.949266 
L 910.231237 341.340029 
L 912.475334 342.137222 
L 913.276797 342.110815 
L 914.07826 341.845144 
L 916.803235 340.716383 
L 917.925283 340.592609 
L 920.329672 340.634302 
L 925.138451 340.618843 
L 933.794253 340.600382 
L 933.954545 277.520397 
L 933.954545 277.520397 
" clip-path="url(#p2ccee4c5ff)" style="fill: none; stroke: #1f77b4; stroke-width: 1.5; stroke-linecap: square"/>
   </g>
   <g id="line2d_12">
    <path d="M 173.045455 178.885418 
L 177.693941 178.885418 
L 177.854233 251.45997 
L 213.278903 251.45997 
L 213.439196 178.885418 
L 218.087682 178.885418 
L 218.247975 251.45997 
L 253.99323 251.45997 
L 254.153523 178.885418 
L 258.802009 178.885418 
L 258.962302 251.45997 
L 293.585509 251.45997 
L 293.745801 178.885418 
L 298.394287 178.885418 
L 298.55458 251.45997 
L 333.818957 251.45997 
L 333.97925 178.885418 
L 338.627736 178.885418 
L 338.788029 251.45997 
L 373.090651 251.45997 
L 373.250943 178.885418 
L 377.899429 178.885418 
L 378.059722 251.45997 
L 413.644685 251.45997 
L 413.804977 178.885418 
L 418.453463 178.885418 
L 418.613756 251.45997 
L 453.557548 251.45997 
L 453.717841 178.885418 
L 458.366327 178.885418 
L 458.52662 251.45997 
L 493.630705 251.45997 
L 493.790997 178.885418 
L 498.439483 178.885418 
L 498.599776 251.45997 
L 533.864153 251.45997 
L 534.024446 178.885418 
L 538.672932 178.885418 
L 538.833225 251.45997 
L 574.257895 251.45997 
L 574.418188 178.885418 
L 579.066674 178.885418 
L 579.226966 251.45997 
L 613.209003 251.45997 
L 613.369295 178.885418 
L 618.017782 178.885418 
L 618.178074 251.45997 
L 653.92333 251.45997 
L 654.083622 178.885418 
L 658.732108 178.885418 
L 658.892401 251.45997 
L 694.156778 251.45997 
L 694.317071 178.885418 
L 698.965557 178.885418 
L 699.12585 251.45997 
L 734.069642 251.45997 
L 734.229935 178.885418 
L 738.878421 178.885418 
L 739.038713 251.45997 
L 773.822213 251.45997 
L 773.982506 178.885418 
L 778.630992 178.885418 
L 778.791284 251.45997 
L 813.414491 251.45997 
L 813.574784 178.885418 
L 818.22327 178.885418 
L 818.383563 251.45997 
L 854.609696 251.45997 
L 854.769989 178.885418 
L 859.418475 178.885418 
L 859.578767 251.45997 
L 894.362267 251.45997 
L 894.52256 178.885418 
L 899.171046 178.885418 
L 899.331338 251.45997 
L 933.794253 251.45997 
L 933.954545 178.885418 
L 933.954545 178.885418 
" clip-path="url(#p2ccee4c5ff)" style="fill: none; stroke: #ff7f0e; stroke-width: 1.5; stroke-linecap: square"/>
   </g>
   <g id="line2d_13">
    <path d="M 929.466352 251.45997 
" clip-path="url(#p2ccee4c5ff)" style="fill: none; stroke: #000000; stroke-width: 1.5; stroke-linecap: square"/>
    <defs>
     <path id="m0f032084bf" d="M 0 1 
C 0.265203 1 0.51958 0.894634 0.707107 0.707107 
C 0.894634 0.51958 1 0.265203 1 0 
C 1 -0.265203 0.894634 -0.51958 0.707107 -0.707107 
C 0.51958 -0.894634 0.265203 -1 0 -1 
C -0.265203 -1 -0.51958 -0.894634 -0.707107 -0.707107 
C -0.894634 -0.51958 -1 -0.265203 -1 0 
C -1 0.265203 -0.894634 0.51958 -0.707107 0.707107 
C -0.51958 0.894634 -0.265203 1 0 1 
z
" style="stroke: #000000"/>
    </defs>
    <g clip-path="url(#p2ccee4c5ff)">
     <use xlink:href="#m0f032084bf" x="173.045455" y="178.885418" style="stroke: #000000"/>
     <use xlink:href="#m0f032084bf" x="178.174819" y="251.45997" style="stroke: #000000"/>
     <use xlink:href="#m0f032084bf" x="183.14389" y="251.45997" style="stroke: #000000"/>
     <use xlink:href="#m0f032084bf" x="188.112961" y="178.885418" style="stroke: #000000"/>
     <use xlink:href="#m0f032084bf" x="193.082033" y="251.45997" style="stroke: #000000"/>
     <use xlink:href="#m0f032084bf" x="198.211397" y="251.45997" style="stroke: #000000"/>
     <use xlink:href="#m0f032084bf" x="203.180468" y="178.885418" style="stroke: #000000"/>
     <use xlink:href="#m0f032084bf" x="208.149539" y="251.45997" style="stroke: #000000"/>
     <use xlink:href="#m0f032084bf" x="213.118611" y="178.885418" style="stroke: #000000"/>
     <use xlink:href="#m0f032084bf" x="218.247975" y="251.45997" style="stroke: #000000"/>
     <use xlink:href="#m0f032084bf" x="223.217046" y="251.45997" style="stroke: #000000"/>
     <use xlink:href="#m0f032084bf" x="228.186118" y="178.885418" style="stroke: #000000"/>
     <use xlink:href="#m0f032084bf" x="233.155189" y="251.45997" style="stroke: #000000"/>
     <use xlink:href="#m0f032084bf" x="238.284553" y="251.45997" style="stroke: #000000"/>
     <use xlink:href="#m0f032084bf" x="243.253624" y="178.885418" style="stroke: #000000"/>
     <use xlink:href="#m0f032084bf" x="248.222696" y="251.45997" style="stroke: #000000"/>
     <use xlink:href="#m0f032084bf" x="253.191767" y="178.885418" style="stroke: #000000"/>
     <use xlink:href="#m0f032084bf" x="258.321131" y="251.45997" style="stroke: #000000"/>
     <use xlink:href="#m0f032084bf" x="263.290202" y="251.45997" style="stroke: #000000"/>
     <use xlink:href="#m0f032084bf" x="268.259274" y="178.885418" style="stroke: #000000"/>
     <use xlink:href="#m0f032084bf" x="273.228345" y="251.45997" style="stroke: #000000"/>
     <use xlink:href="#m0f032084bf" x="278.357709" y="251.45997" style="stroke: #000000"/>
     <use xlink:href="#m0f032084bf" x="283.326781" y="178.885418" style="stroke: #000000"/>
     <use xlink:href="#m0f032084bf" x="288.295852" y="251.45997" style="stroke: #000000"/>
     <use xlink:href="#m0f032084bf" x="293.264923" y="178.885418" style="stroke: #000000"/>
     <use xlink:href="#m0f032084bf" x="298.394287" y="251.45997" style="stroke: #000000"/>
     <use xlink:href="#m0f032084bf" x="303.363359" y="251.45997" style="stroke: #000000"/>
     <use xlink:href="#m0f032084bf" x="308.33243" y="178.885418" style="stroke: #000000"/>
     <use xlink:href="#m0f032084bf" x="313.301501" y="251.45997" style="stroke: #000000"/>
     <use xlink:href="#m0f032084bf" x="318.430865" y="251.45997" style="stroke: #000000"/>
     <use xlink:href="#m0f032084bf" x="323.399937" y="178.885418" style="stroke: #000000"/>
     <use xlink:href="#m0f032084bf" x="328.369008" y="251.45997" style="stroke: #000000"/>
     <use xlink:href="#m0f032084bf" x="333.33808" y="178.885418" style="stroke: #000000"/>
     <use xlink:href="#m0f032084bf" x="338.467444" y="251.45997" style="stroke: #000000"/>
     <use xlink:href="#m0f032084bf" x="343.436515" y="251.45997" style="stroke: #000000"/>
     <use xlink:href="#m0f032084bf" x="348.405586" y="178.885418" style="stroke: #000000"/>
     <use xlink:href="#m0f032084bf" x="353.374658" y="251.45997" style="stroke: #000000"/>
     <use xlink:href="#m0f032084bf" x="358.504022" y="251.45997" style="stroke: #000000"/>
     <use xlink:href="#m0f032084bf" x="363.473093" y="178.885418" style="stroke: #000000"/>
     <use xlink:href="#m0f032084bf" x="368.442164" y="251.45997" style="stroke: #000000"/>
     <use xlink:href="#m0f032084bf" x="373.411236" y="178.885418" style="stroke: #000000"/>
     <use xlink:href="#m0f032084bf" x="378.5406" y="251.45997" style="stroke: #000000"/>
     <use xlink:href="#m0f032084bf" x="383.509671" y="251.45997" style="stroke: #000000"/>
     <use xlink:href="#m0f032084bf" x="388.478743" y="178.885418" style="stroke: #000000"/>
     <use xlink:href="#m0f032084bf" x="393.447814" y="251.45997" style="stroke: #000000"/>
     <use xlink:href="#m0f032084bf" x="398.577178" y="251.45997" style="stroke: #000000"/>
     <use xlink:href="#m0f032084bf" x="403.546249" y="178.885418" style="stroke: #000000"/>
     <use xlink:href="#m0f032084bf" x="408.515321" y="251.45997" style="stroke: #000000"/>
     <use xlink:href="#m0f032084bf" x="413.484392" y="178.885418" style="stroke: #000000"/>
     <use xlink:href="#m0f032084bf" x="418.613756" y="251.45997" style="stroke: #000000"/>
     <use xlink:href="#m0f032084bf" x="423.582827" y="251.45997" style="stroke: #000000"/>
     <use xlink:href="#m0f032084bf" x="428.551899" y="178.885418" style="stroke: #000000"/>
     <use xlink:href="#m0f032084bf" x="433.52097" y="251.45997" style="stroke: #000000"/>
     <use xlink:href="#m0f032084bf" x="438.650334" y="251.45997" style="stroke: #000000"/>
     <use xlink:href="#m0f032084bf" x="443.619406" y="178.885418" style="stroke: #000000"/>
     <use xlink:href="#m0f032084bf" x="448.588477" y="251.45997" style="stroke: #000000"/>
     <use xlink:href="#m0f032084bf" x="453.557548" y="178.885418" style="stroke: #000000"/>
     <use xlink:href="#m0f032084bf" x="458.686912" y="251.45997" style="stroke: #000000"/>
     <use xlink:href="#m0f032084bf" x="463.655984" y="251.45997" style="stroke: #000000"/>
     <use xlink:href="#m0f032084bf" x="468.625055" y="178.885418" style="stroke: #000000"/>
     <use xlink:href="#m0f032084bf" x="473.594126" y="251.45997" style="stroke: #000000"/>
     <use xlink:href="#m0f032084bf" x="478.72349" y="251.45997" style="stroke: #000000"/>
     <use xlink:href="#m0f032084bf" x="483.692562" y="178.885418" style="stroke: #000000"/>
     <use xlink:href="#m0f032084bf" x="488.661633" y="251.45997" style="stroke: #000000"/>
     <use xlink:href="#m0f032084bf" x="493.630705" y="178.885418" style="stroke: #000000"/>
     <use xlink:href="#m0f032084bf" x="498.760069" y="251.45997" style="stroke: #000000"/>
     <use xlink:href="#m0f032084bf" x="503.72914" y="251.45997" style="stroke: #000000"/>
     <use xlink:href="#m0f032084bf" x="508.698211" y="178.885418" style="stroke: #000000"/>
     <use xlink:href="#m0f032084bf" x="513.667283" y="251.45997" style="stroke: #000000"/>
     <use xlink:href="#m0f032084bf" x="518.796647" y="251.45997" style="stroke: #000000"/>
     <use xlink:href="#m0f032084bf" x="523.765718" y="178.885418" style="stroke: #000000"/>
     <use xlink:href="#m0f032084bf" x="528.734789" y="251.45997" style="stroke: #000000"/>
     <use xlink:href="#m0f032084bf" x="533.703861" y="178.885418" style="stroke: #000000"/>
     <use xlink:href="#m0f032084bf" x="538.833225" y="251.45997" style="stroke: #000000"/>
     <use xlink:href="#m0f032084bf" x="543.802296" y="251.45997" style="stroke: #000000"/>
     <use xlink:href="#m0f032084bf" x="548.771368" y="178.885418" style="stroke: #000000"/>
     <use xlink:href="#m0f032084bf" x="553.740439" y="251.45997" style="stroke: #000000"/>
     <use xlink:href="#m0f032084bf" x="558.869803" y="251.45997" style="stroke: #000000"/>
     <use xlink:href="#m0f032084bf" x="563.838874" y="178.885418" style="stroke: #000000"/>
     <use xlink:href="#m0f032084bf" x="568.807946" y="251.45997" style="stroke: #000000"/>
     <use xlink:href="#m0f032084bf" x="573.777017" y="178.885418" style="stroke: #000000"/>
     <use xlink:href="#m0f032084bf" x="578.906381" y="251.45997" style="stroke: #000000"/>
     <use xlink:href="#m0f032084bf" x="583.875452" y="251.45997" style="stroke: #000000"/>
     <use xlink:href="#m0f032084bf" x="588.844524" y="178.885418" style="stroke: #000000"/>
     <use xlink:href="#m0f032084bf" x="593.813595" y="251.45997" style="stroke: #000000"/>
     <use xlink:href="#m0f032084bf" x="598.942959" y="251.45997" style="stroke: #000000"/>
     <use xlink:href="#m0f032084bf" x="603.912031" y="178.885418" style="stroke: #000000"/>
     <use xlink:href="#m0f032084bf" x="608.881102" y="251.45997" style="stroke: #000000"/>
     <use xlink:href="#m0f032084bf" x="613.850173" y="178.885418" style="stroke: #000000"/>
     <use xlink:href="#m0f032084bf" x="618.979537" y="251.45997" style="stroke: #000000"/>
     <use xlink:href="#m0f032084bf" x="623.948609" y="251.45997" style="stroke: #000000"/>
     <use xlink:href="#m0f032084bf" x="628.91768" y="178.885418" style="stroke: #000000"/>
     <use xlink:href="#m0f032084bf" x="633.886751" y="251.45997" style="stroke: #000000"/>
     <use xlink:href="#m0f032084bf" x="639.016115" y="251.45997" style="stroke: #000000"/>
     <use xlink:href="#m0f032084bf" x="643.985187" y="178.885418" style="stroke: #000000"/>
     <use xlink:href="#m0f032084bf" x="648.954258" y="251.45997" style="stroke: #000000"/>
     <use xlink:href="#m0f032084bf" x="653.92333" y="178.885418" style="stroke: #000000"/>
     <use xlink:href="#m0f032084bf" x="659.052694" y="251.45997" style="stroke: #000000"/>
     <use xlink:href="#m0f032084bf" x="664.021765" y="251.45997" style="stroke: #000000"/>
     <use xlink:href="#m0f032084bf" x="668.990836" y="178.885418" style="stroke: #000000"/>
     <use xlink:href="#m0f032084bf" x="673.959908" y="251.45997" style="stroke: #000000"/>
     <use xlink:href="#m0f032084bf" x="679.089272" y="251.45997" style="stroke: #000000"/>
     <use xlink:href="#m0f032084bf" x="684.058343" y="178.885418" style="stroke: #000000"/>
     <use xlink:href="#m0f032084bf" x="689.027414" y="251.45997" style="stroke: #000000"/>
     <use xlink:href="#m0f032084bf" x="693.996486" y="178.885418" style="stroke: #000000"/>
     <use xlink:href="#m0f032084bf" x="699.12585" y="251.45997" style="stroke: #000000"/>
     <use xlink:href="#m0f032084bf" x="704.094921" y="251.45997" style="stroke: #000000"/>
     <use xlink:href="#m0f032084bf" x="709.063993" y="178.885418" style="stroke: #000000"/>
     <use xlink:href="#m0f032084bf" x="714.033064" y="251.45997" style="stroke: #000000"/>
     <use xlink:href="#m0f032084bf" x="719.162428" y="251.45997" style="stroke: #000000"/>
     <use xlink:href="#m0f032084bf" x="724.131499" y="178.885418" style="stroke: #000000"/>
     <use xlink:href="#m0f032084bf" x="729.100571" y="251.45997" style="stroke: #000000"/>
     <use xlink:href="#m0f032084bf" x="734.069642" y="178.885418" style="stroke: #000000"/>
     <use xlink:href="#m0f032084bf" x="739.199006" y="251.45997" style="stroke: #000000"/>
     <use xlink:href="#m0f032084bf" x="744.168077" y="251.45997" style="stroke: #000000"/>
     <use xlink:href="#m0f032084bf" x="749.137149" y="178.885418" style="stroke: #000000"/>
     <use xlink:href="#m0f032084bf" x="754.10622" y="251.45997" style="stroke: #000000"/>
     <use xlink:href="#m0f032084bf" x="759.235584" y="251.45997" style="stroke: #000000"/>
     <use xlink:href="#m0f032084bf" x="764.204656" y="178.885418" style="stroke: #000000"/>
     <use xlink:href="#m0f032084bf" x="769.173727" y="251.45997" style="stroke: #000000"/>
     <use xlink:href="#m0f032084bf" x="774.142798" y="178.885418" style="stroke: #000000"/>
     <use xlink:href="#m0f032084bf" x="779.272162" y="251.45997" style="stroke: #000000"/>
     <use xlink:href="#m0f032084bf" x="784.241234" y="251.45997" style="stroke: #000000"/>
     <use xlink:href="#m0f032084bf" x="789.210305" y="178.885418" style="stroke: #000000"/>
     <use xlink:href="#m0f032084bf" x="794.179376" y="251.45997" style="stroke: #000000"/>
     <use xlink:href="#m0f032084bf" x="799.30874" y="251.45997" style="stroke: #000000"/>
     <use xlink:href="#m0f032084bf" x="804.277812" y="178.885418" style="stroke: #000000"/>
     <use xlink:href="#m0f032084bf" x="809.246883" y="251.45997" style="stroke: #000000"/>
     <use xlink:href="#m0f032084bf" x="814.215955" y="178.885418" style="stroke: #000000"/>
     <use xlink:href="#m0f032084bf" x="819.345319" y="251.45997" style="stroke: #000000"/>
     <use xlink:href="#m0f032084bf" x="824.31439" y="251.45997" style="stroke: #000000"/>
     <use xlink:href="#m0f032084bf" x="829.283461" y="178.885418" style="stroke: #000000"/>
     <use xlink:href="#m0f032084bf" x="834.252533" y="251.45997" style="stroke: #000000"/>
     <use xlink:href="#m0f032084bf" x="839.381897" y="251.45997" style="stroke: #000000"/>
     <use xlink:href="#m0f032084bf" x="844.350968" y="178.885418" style="stroke: #000000"/>
     <use xlink:href="#m0f032084bf" x="849.320039" y="251.45997" style="stroke: #000000"/>
     <use xlink:href="#m0f032084bf" x="854.289111" y="178.885418" style="stroke: #000000"/>
     <use xlink:href="#m0f032084bf" x="859.418475" y="251.45997" style="stroke: #000000"/>
     <use xlink:href="#m0f032084bf" x="864.387546" y="251.45997" style="stroke: #000000"/>
     <use xlink:href="#m0f032084bf" x="869.356618" y="178.885418" style="stroke: #000000"/>
     <use xlink:href="#m0f032084bf" x="874.325689" y="251.45997" style="stroke: #000000"/>
     <use xlink:href="#m0f032084bf" x="879.455053" y="251.45997" style="stroke: #000000"/>
     <use xlink:href="#m0f032084bf" x="884.424124" y="178.885418" style="stroke: #000000"/>
     <use xlink:href="#m0f032084bf" x="889.393196" y="251.45997" style="stroke: #000000"/>
     <use xlink:href="#m0f032084bf" x="894.362267" y="178.885418" style="stroke: #000000"/>
     <use xlink:href="#m0f032084bf" x="899.491631" y="251.45997" style="stroke: #000000"/>
     <use xlink:href="#m0f032084bf" x="904.460702" y="251.45997" style="stroke: #000000"/>
     <use xlink:href="#m0f032084bf" x="909.429774" y="178.885418" style="stroke: #000000"/>
     <use xlink:href="#m0f032084bf" x="914.398845" y="251.45997" style="stroke: #000000"/>
     <use xlink:href="#m0f032084bf" x="919.528209" y="251.45997" style="stroke: #000000"/>
     <use xlink:href="#m0f032084bf" x="924.497281" y="178.885418" style="stroke: #000000"/>
     <use xlink:href="#m0f032084bf" x="929.466352" y="251.45997" style="stroke: #000000"/>
    </g>
   </g>
   <g id="patch_3">
    <path d="M 135 448.56 
L 135 60.48 
" style="fill: none; stroke: #000000; stroke-width: 0.8; stroke-linejoin: miter; stroke-linecap: square"/>
   </g>
   <g id="patch_4">
    <path d="M 972 448.56 
L 972 60.48 
" style="fill: none; stroke: #000000; stroke-width: 0.8; stroke-linejoin: miter; stroke-linecap: square"/>
   </g>
   <g id="patch_5">
    <path d="M 135 448.56 
L 972 448.56 
" style="fill: none; stroke: #000000; stroke-width: 0.8; stroke-linejoin: miter; stroke-linecap: square"/>
   </g>
   <g id="patch_6">
    <path d="M 135 60.48 
L 972 60.48 
" style="fill: none; stroke: #000000; stroke-width: 0.8; stroke-linejoin: miter; stroke-linecap: square"/>
   </g>
   <g id="legend_1">
    <g id="patch_7">
     <path d="M 895.915625 113.070625 
L 965 113.070625 
Q 967 113.070625 967 111.070625 
L 967 67.48 
Q 967 65.48 965 65.48 
L 895.915625 65.48 
Q 893.915625 65.48 893.915625 67.48 
L 893.915625 111.070625 
Q 893.915625 113.070625 895.915625 113.070625 
z
" style="fill: #ffffff; opacity: 0.8; stroke: #cccccc; stroke-linejoin: miter"/>
    </g>
    <g id="line2d_14">
     <path d="M 897.915625 73.578438 
L 907.915625 73.578438 
L 917.915625 73.578438 
" style="fill: none; stroke: #1f77b4; stroke-width: 1.5; stroke-linecap: square"/>
    </g>
    <g id="text_12">
     <!-- nw_0 -->
     <g transform="translate(925.915625 77.078438) scale(0.1 -0.1)">
      <defs>
       <path id="DejaVuSans-6e" d="M 3513 2113 
L 3513 0 
L 2938 0 
L 2938 2094 
Q 2938 2591 2744 2837 
Q 2550 3084 2163 3084 
Q 1697 3084 1428 2787 
Q 1159 2491 1159 1978 
L 1159 0 
L 581 0 
L 581 3500 
L 1159 3500 
L 1159 2956 
Q 1366 3272 1645 3428 
Q 1925 3584 2291 3584 
Q 2894 3584 3203 3211 
Q 3513 2838 3513 2113 
z
" transform="scale(0.015625)"/>
       <path id="DejaVuSans-77" d="M 269 3500 
L 844 3500 
L 1563 769 
L 2278 3500 
L 2956 3500 
L 3675 769 
L 4391 3500 
L 4966 3500 
L 4050 0 
L 3372 0 
L 2619 2869 
L 1863 0 
L 1184 0 
L 269 3500 
z
" transform="scale(0.015625)"/>
       <path id="DejaVuSans-5f" d="M 3263 -1063 
L 3263 -1509 
L -63 -1509 
L -63 -1063 
L 3263 -1063 
z
" transform="scale(0.015625)"/>
      </defs>
      <use xlink:href="#DejaVuSans-6e"/>
      <use xlink:href="#DejaVuSans-77" x="63.378906"/>
      <use xlink:href="#DejaVuSans-5f" x="145.166016"/>
      <use xlink:href="#DejaVuSans-30" x="195.166016"/>
     </g>
    </g>
    <g id="line2d_15">
     <path d="M 897.915625 88.534688 
L 907.915625 88.534688 
L 917.915625 88.534688 
" style="fill: none; stroke: #ff7f0e; stroke-width: 1.5; stroke-linecap: square"/>
    </g>
    <g id="text_13">
     <!-- input_0 -->
     <g transform="translate(925.915625 92.034688) scale(0.1 -0.1)">
      <defs>
       <path id="DejaVuSans-69" d="M 603 3500 
L 1178 3500 
L 1178 0 
L 603 0 
L 603 3500 
z
M 603 4863 
L 1178 4863 
L 1178 4134 
L 603 4134 
L 603 4863 
z
" transform="scale(0.015625)"/>
       <path id="DejaVuSans-70" d="M 1159 525 
L 1159 -1331 
L 581 -1331 
L 581 3500 
L 1159 3500 
L 1159 2969 
Q 1341 3281 1617 3432 
Q 1894 3584 2278 3584 
Q 2916 3584 3314 3078 
Q 3713 2572 3713 1747 
Q 3713 922 3314 415 
Q 2916 -91 2278 -91 
Q 1894 -91 1617 61 
Q 1341 213 1159 525 
z
M 3116 1747 
Q 3116 2381 2855 2742 
Q 2594 3103 2138 3103 
Q 1681 3103 1420 2742 
Q 1159 2381 1159 1747 
Q 1159 1113 1420 752 
Q 1681 391 2138 391 
Q 2594 391 2855 752 
Q 3116 1113 3116 1747 
z
" transform="scale(0.015625)"/>
       <path id="DejaVuSans-75" d="M 544 1381 
L 544 3500 
L 1119 3500 
L 1119 1403 
Q 1119 906 1312 657 
Q 1506 409 1894 409 
Q 2359 409 2629 706 
Q 2900 1003 2900 1516 
L 2900 3500 
L 3475 3500 
L 3475 0 
L 2900 0 
L 2900 538 
Q 2691 219 2414 64 
Q 2138 -91 1772 -91 
Q 1169 -91 856 284 
Q 544 659 544 1381 
z
M 1991 3584 
L 1991 3584 
z
" transform="scale(0.015625)"/>
      </defs>
      <use xlink:href="#DejaVuSans-69"/>
      <use xlink:href="#DejaVuSans-6e" x="27.783203"/>
      <use xlink:href="#DejaVuSans-70" x="91.162109"/>
      <use xlink:href="#DejaVuSans-75" x="154.638672"/>
      <use xlink:href="#DejaVuSans-74" x="218.017578"/>
      <use xlink:href="#DejaVuSans-5f" x="257.226562"/>
      <use xlink:href="#DejaVuSans-30" x="307.226562"/>
     </g>
    </g>
    <g id="line2d_16">
     <path d="M 897.915625 103.490938 
L 907.915625 103.490938 
L 917.915625 103.490938 
" style="fill: none; stroke: #000000; stroke-width: 1.5; stroke-linecap: square"/>
     <g>
      <use xlink:href="#m0f032084bf" x="907.915625" y="103.490938" style="stroke: #000000"/>
     </g>
    </g>
    <g id="text_14">
     <!-- target -->
     <g transform="translate(925.915625 106.990938) scale(0.1 -0.1)">
      <defs>
       <path id="DejaVuSans-61" d="M 2194 1759 
Q 1497 1759 1228 1600 
Q 959 1441 959 1056 
Q 959 750 1161 570 
Q 1363 391 1709 391 
Q 2188 391 2477 730 
Q 2766 1069 2766 1631 
L 2766 1759 
L 2194 1759 
z
M 3341 1997 
L 3341 0 
L 2766 0 
L 2766 531 
Q 2569 213 2275 61 
Q 1981 -91 1556 -91 
Q 1019 -91 701 211 
Q 384 513 384 1019 
Q 384 1609 779 1909 
Q 1175 2209 1959 2209 
L 2766 2209 
L 2766 2266 
Q 2766 2663 2505 2880 
Q 2244 3097 1772 3097 
Q 1472 3097 1187 3025 
Q 903 2953 641 2809 
L 641 3341 
Q 956 3463 1253 3523 
Q 1550 3584 1831 3584 
Q 2591 3584 2966 3190 
Q 3341 2797 3341 1997 
z
" transform="scale(0.015625)"/>
       <path id="DejaVuSans-72" d="M 2631 2963 
Q 2534 3019 2420 3045 
Q 2306 3072 2169 3072 
Q 1681 3072 1420 2755 
Q 1159 2438 1159 1844 
L 1159 0 
L 581 0 
L 581 3500 
L 1159 3500 
L 1159 2956 
Q 1341 3275 1631 3429 
Q 1922 3584 2338 3584 
Q 2397 3584 2469 3576 
Q 2541 3569 2628 3553 
L 2631 2963 
z
" transform="scale(0.015625)"/>
       <path id="DejaVuSans-67" d="M 2906 1791 
Q 2906 2416 2648 2759 
Q 2391 3103 1925 3103 
Q 1463 3103 1205 2759 
Q 947 2416 947 1791 
Q 947 1169 1205 825 
Q 1463 481 1925 481 
Q 2391 481 2648 825 
Q 2906 1169 2906 1791 
z
M 3481 434 
Q 3481 -459 3084 -895 
Q 2688 -1331 1869 -1331 
Q 1566 -1331 1297 -1286 
Q 1028 -1241 775 -1147 
L 775 -588 
Q 1028 -725 1275 -790 
Q 1522 -856 1778 -856 
Q 2344 -856 2625 -561 
Q 2906 -266 2906 331 
L 2906 616 
Q 2728 306 2450 153 
Q 2172 0 1784 0 
Q 1141 0 747 490 
Q 353 981 353 1791 
Q 353 2603 747 3093 
Q 1141 3584 1784 3584 
Q 2172 3584 2450 3431 
Q 2728 3278 2906 2969 
L 2906 3500 
L 3481 3500 
L 3481 434 
z
" transform="scale(0.015625)"/>
       <path id="DejaVuSans-65" d="M 3597 1894 
L 3597 1613 
L 953 1613 
Q 991 1019 1311 708 
Q 1631 397 2203 397 
Q 2534 397 2845 478 
Q 3156 559 3463 722 
L 3463 178 
Q 3153 47 2828 -22 
Q 2503 -91 2169 -91 
Q 1331 -91 842 396 
Q 353 884 353 1716 
Q 353 2575 817 3079 
Q 1281 3584 2069 3584 
Q 2775 3584 3186 3129 
Q 3597 2675 3597 1894 
z
M 3022 2063 
Q 3016 2534 2758 2815 
Q 2500 3097 2075 3097 
Q 1594 3097 1305 2825 
Q 1016 2553 972 2059 
L 3022 2063 
z
" transform="scale(0.015625)"/>
      </defs>
      <use xlink:href="#DejaVuSans-74"/>
      <use xlink:href="#DejaVuSans-61" x="39.208984"/>
      <use xlink:href="#DejaVuSans-72" x="100.488281"/>
      <use xlink:href="#DejaVuSans-67" x="139.851562"/>
      <use xlink:href="#DejaVuSans-65" x="203.328125"/>
      <use xlink:href="#DejaVuSans-74" x="264.851562"/>
     </g>
    </g>
   </g>
  </g>
 </g>
 <defs>
  <clipPath id="p2ccee4c5ff">
   <rect x="135" y="60.48" width="837" height="388.08"/>
  </clipPath>
 </defs>
</svg>
