<?xml version="1.0" encoding="utf-8" standalone="no"?>
<!DOCTYPE svg PUBLIC "-//W3C//DTD SVG 1.1//EN"
  "http://www.w3.org/Graphics/SVG/1.1/DTD/svg11.dtd">
<svg xmlns:xlink="http://www.w3.org/1999/xlink" width="1080pt" height="504pt" viewBox="0 0 1080 504" xmlns="http://www.w3.org/2000/svg" version="1.1">
 <metadata>
  <rdf:RDF xmlns:dc="http://purl.org/dc/elements/1.1/" xmlns:cc="http://creativecommons.org/ns#" xmlns:rdf="http://www.w3.org/1999/02/22-rdf-syntax-ns#">
   <cc:Work>
    <dc:type rdf:resource="http://purl.org/dc/dcmitype/StillImage"/>
    <dc:date>2024-05-09T11:07:13.450621</dc:date>
    <dc:format>image/svg+xml</dc:format>
    <dc:creator>
     <cc:Agent>
      <dc:title>Matplotlib v3.7.1, https://matplotlib.org/</dc:title>
     </cc:Agent>
    </dc:creator>
   </cc:Work>
  </rdf:RDF>
 </metadata>
 <defs>
  <style type="text/css">*{stroke-linejoin: round; stroke-linecap: butt}</style>
 </defs>
 <g id="figure_1">
  <g id="patch_1">
   <path d="M 0 504 
L 1080 504 
L 1080 0 
L 0 0 
z
" style="fill: #ffffff"/>
  </g>
  <g id="axes_1">
   <g id="patch_2">
    <path d="M 135 448.56 
L 972 448.56 
L 972 60.48 
L 135 60.48 
z
" style="fill: #ffffff"/>
   </g>
   <g id="matplotlib.axis_1">
    <g id="xtick_1">
     <g id="line2d_1">
      <defs>
       <path id="m774f83f2d9" d="M 0 0 
L 0 3.5 
" style="stroke: #000000; stroke-width: 0.8"/>
      </defs>
      <g>
       <use xlink:href="#m774f83f2d9" x="173.045455" y="448.56" style="stroke: #000000; stroke-width: 0.8"/>
      </g>
     </g>
     <g id="text_1">
      <!-- 0 -->
      <g transform="translate(169.864205 463.158437) scale(0.1 -0.1)">
       <defs>
        <path id="DejaVuSans-30" d="M 2034 4250 
Q 1547 4250 1301 3770 
Q 1056 3291 1056 2328 
Q 1056 1369 1301 889 
Q 1547 409 2034 409 
Q 2525 409 2770 889 
Q 3016 1369 3016 2328 
Q 3016 3291 2770 3770 
Q 2525 4250 2034 4250 
z
M 2034 4750 
Q 2819 4750 3233 4129 
Q 3647 3509 3647 2328 
Q 3647 1150 3233 529 
Q 2819 -91 2034 -91 
Q 1250 -91 836 529 
Q 422 1150 422 2328 
Q 422 3509 836 4129 
Q 1250 4750 2034 4750 
z
" transform="scale(0.015625)"/>
       </defs>
       <use xlink:href="#DejaVuSans-30"/>
      </g>
     </g>
    </g>
    <g id="xtick_2">
     <g id="line2d_2">
      <g>
       <use xlink:href="#m774f83f2d9" x="333.33808" y="448.56" style="stroke: #000000; stroke-width: 0.8"/>
      </g>
     </g>
     <g id="text_2">
      <!-- 1000 -->
      <g transform="translate(320.61308 463.158437) scale(0.1 -0.1)">
       <defs>
        <path id="DejaVuSans-31" d="M 794 531 
L 1825 531 
L 1825 4091 
L 703 3866 
L 703 4441 
L 1819 4666 
L 2450 4666 
L 2450 531 
L 3481 531 
L 3481 0 
L 794 0 
L 794 531 
z
" transform="scale(0.015625)"/>
       </defs>
       <use xlink:href="#DejaVuSans-31"/>
       <use xlink:href="#DejaVuSans-30" x="63.623047"/>
       <use xlink:href="#DejaVuSans-30" x="127.246094"/>
       <use xlink:href="#DejaVuSans-30" x="190.869141"/>
      </g>
     </g>
    </g>
    <g id="xtick_3">
     <g id="line2d_3">
      <g>
       <use xlink:href="#m774f83f2d9" x="493.630705" y="448.56" style="stroke: #000000; stroke-width: 0.8"/>
      </g>
     </g>
     <g id="text_3">
      <!-- 2000 -->
      <g transform="translate(480.905705 463.158437) scale(0.1 -0.1)">
       <defs>
        <path id="DejaVuSans-32" d="M 1228 531 
L 3431 531 
L 3431 0 
L 469 0 
L 469 531 
Q 828 903 1448 1529 
Q 2069 2156 2228 2338 
Q 2531 2678 2651 2914 
Q 2772 3150 2772 3378 
Q 2772 3750 2511 3984 
Q 2250 4219 1831 4219 
Q 1534 4219 1204 4116 
Q 875 4013 500 3803 
L 500 4441 
Q 881 4594 1212 4672 
Q 1544 4750 1819 4750 
Q 2544 4750 2975 4387 
Q 3406 4025 3406 3419 
Q 3406 3131 3298 2873 
Q 3191 2616 2906 2266 
Q 2828 2175 2409 1742 
Q 1991 1309 1228 531 
z
" transform="scale(0.015625)"/>
       </defs>
       <use xlink:href="#DejaVuSans-32"/>
       <use xlink:href="#DejaVuSans-30" x="63.623047"/>
       <use xlink:href="#DejaVuSans-30" x="127.246094"/>
       <use xlink:href="#DejaVuSans-30" x="190.869141"/>
      </g>
     </g>
    </g>
    <g id="xtick_4">
     <g id="line2d_4">
      <g>
       <use xlink:href="#m774f83f2d9" x="653.92333" y="448.56" style="stroke: #000000; stroke-width: 0.8"/>
      </g>
     </g>
     <g id="text_4">
      <!-- 3000 -->
      <g transform="translate(641.19833 463.158437) scale(0.1 -0.1)">
       <defs>
        <path id="DejaVuSans-33" d="M 2597 2516 
Q 3050 2419 3304 2112 
Q 3559 1806 3559 1356 
Q 3559 666 3084 287 
Q 2609 -91 1734 -91 
Q 1441 -91 1130 -33 
Q 819 25 488 141 
L 488 750 
Q 750 597 1062 519 
Q 1375 441 1716 441 
Q 2309 441 2620 675 
Q 2931 909 2931 1356 
Q 2931 1769 2642 2001 
Q 2353 2234 1838 2234 
L 1294 2234 
L 1294 2753 
L 1863 2753 
Q 2328 2753 2575 2939 
Q 2822 3125 2822 3475 
Q 2822 3834 2567 4026 
Q 2313 4219 1838 4219 
Q 1578 4219 1281 4162 
Q 984 4106 628 3988 
L 628 4550 
Q 988 4650 1302 4700 
Q 1616 4750 1894 4750 
Q 2613 4750 3031 4423 
Q 3450 4097 3450 3541 
Q 3450 3153 3228 2886 
Q 3006 2619 2597 2516 
z
" transform="scale(0.015625)"/>
       </defs>
       <use xlink:href="#DejaVuSans-33"/>
       <use xlink:href="#DejaVuSans-30" x="63.623047"/>
       <use xlink:href="#DejaVuSans-30" x="127.246094"/>
       <use xlink:href="#DejaVuSans-30" x="190.869141"/>
      </g>
     </g>
    </g>
    <g id="xtick_5">
     <g id="line2d_5">
      <g>
       <use xlink:href="#m774f83f2d9" x="814.215955" y="448.56" style="stroke: #000000; stroke-width: 0.8"/>
      </g>
     </g>
     <g id="text_5">
      <!-- 4000 -->
      <g transform="translate(801.490955 463.158437) scale(0.1 -0.1)">
       <defs>
        <path id="DejaVuSans-34" d="M 2419 4116 
L 825 1625 
L 2419 1625 
L 2419 4116 
z
M 2253 4666 
L 3047 4666 
L 3047 1625 
L 3713 1625 
L 3713 1100 
L 3047 1100 
L 3047 0 
L 2419 0 
L 2419 1100 
L 313 1100 
L 313 1709 
L 2253 4666 
z
" transform="scale(0.015625)"/>
       </defs>
       <use xlink:href="#DejaVuSans-34"/>
       <use xlink:href="#DejaVuSans-30" x="63.623047"/>
       <use xlink:href="#DejaVuSans-30" x="127.246094"/>
       <use xlink:href="#DejaVuSans-30" x="190.869141"/>
      </g>
     </g>
    </g>
    <g id="text_6">
     <!-- t -->
     <g transform="translate(551.539844 476.836563) scale(0.1 -0.1)">
      <defs>
       <path id="DejaVuSans-74" d="M 1172 4494 
L 1172 3500 
L 2356 3500 
L 2356 3053 
L 1172 3053 
L 1172 1153 
Q 1172 725 1289 603 
Q 1406 481 1766 481 
L 2356 481 
L 2356 0 
L 1766 0 
Q 1100 0 847 248 
Q 594 497 594 1153 
L 594 3053 
L 172 3053 
L 172 3500 
L 594 3500 
L 594 4494 
L 1172 4494 
z
" transform="scale(0.015625)"/>
      </defs>
      <use xlink:href="#DejaVuSans-74"/>
     </g>
    </g>
   </g>
   <g id="matplotlib.axis_2">
    <g id="ytick_1">
     <g id="line2d_6">
      <defs>
       <path id="mea190ff09d" d="M 0 0 
L -3.5 0 
" style="stroke: #000000; stroke-width: 0.8"/>
      </defs>
      <g>
       <use xlink:href="#mea190ff09d" x="135" y="430.92" style="stroke: #000000; stroke-width: 0.8"/>
      </g>
     </g>
     <g id="text_7">
      <!-- 0.0 -->
      <g transform="translate(112.096875 434.719219) scale(0.1 -0.1)">
       <defs>
        <path id="DejaVuSans-2e" d="M 684 794 
L 1344 794 
L 1344 0 
L 684 0 
L 684 794 
z
" transform="scale(0.015625)"/>
       </defs>
       <use xlink:href="#DejaVuSans-30"/>
       <use xlink:href="#DejaVuSans-2e" x="63.623047"/>
       <use xlink:href="#DejaVuSans-30" x="95.410156"/>
      </g>
     </g>
    </g>
    <g id="ytick_2">
     <g id="line2d_7">
      <g>
       <use xlink:href="#mea190ff09d" x="135" y="360.36" style="stroke: #000000; stroke-width: 0.8"/>
      </g>
     </g>
     <g id="text_8">
      <!-- 0.2 -->
      <g transform="translate(112.096875 364.159219) scale(0.1 -0.1)">
       <use xlink:href="#DejaVuSans-30"/>
       <use xlink:href="#DejaVuSans-2e" x="63.623047"/>
       <use xlink:href="#DejaVuSans-32" x="95.410156"/>
      </g>
     </g>
    </g>
    <g id="ytick_3">
     <g id="line2d_8">
      <g>
       <use xlink:href="#mea190ff09d" x="135" y="289.8" style="stroke: #000000; stroke-width: 0.8"/>
      </g>
     </g>
     <g id="text_9">
      <!-- 0.4 -->
      <g transform="translate(112.096875 293.599219) scale(0.1 -0.1)">
       <use xlink:href="#DejaVuSans-30"/>
       <use xlink:href="#DejaVuSans-2e" x="63.623047"/>
       <use xlink:href="#DejaVuSans-34" x="95.410156"/>
      </g>
     </g>
    </g>
    <g id="ytick_4">
     <g id="line2d_9">
      <g>
       <use xlink:href="#mea190ff09d" x="135" y="219.24" style="stroke: #000000; stroke-width: 0.8"/>
      </g>
     </g>
     <g id="text_10">
      <!-- 0.6 -->
      <g transform="translate(112.096875 223.039219) scale(0.1 -0.1)">
       <defs>
        <path id="DejaVuSans-36" d="M 2113 2584 
Q 1688 2584 1439 2293 
Q 1191 2003 1191 1497 
Q 1191 994 1439 701 
Q 1688 409 2113 409 
Q 2538 409 2786 701 
Q 3034 994 3034 1497 
Q 3034 2003 2786 2293 
Q 2538 2584 2113 2584 
z
M 3366 4563 
L 3366 3988 
Q 3128 4100 2886 4159 
Q 2644 4219 2406 4219 
Q 1781 4219 1451 3797 
Q 1122 3375 1075 2522 
Q 1259 2794 1537 2939 
Q 1816 3084 2150 3084 
Q 2853 3084 3261 2657 
Q 3669 2231 3669 1497 
Q 3669 778 3244 343 
Q 2819 -91 2113 -91 
Q 1303 -91 875 529 
Q 447 1150 447 2328 
Q 447 3434 972 4092 
Q 1497 4750 2381 4750 
Q 2619 4750 2861 4703 
Q 3103 4656 3366 4563 
z
" transform="scale(0.015625)"/>
       </defs>
       <use xlink:href="#DejaVuSans-30"/>
       <use xlink:href="#DejaVuSans-2e" x="63.623047"/>
       <use xlink:href="#DejaVuSans-36" x="95.410156"/>
      </g>
     </g>
    </g>
    <g id="ytick_5">
     <g id="line2d_10">
      <g>
       <use xlink:href="#mea190ff09d" x="135" y="148.68" style="stroke: #000000; stroke-width: 0.8"/>
      </g>
     </g>
     <g id="text_11">
      <!-- 0.8 -->
      <g transform="translate(112.096875 152.479219) scale(0.1 -0.1)">
       <defs>
        <path id="DejaVuSans-38" d="M 2034 2216 
Q 1584 2216 1326 1975 
Q 1069 1734 1069 1313 
Q 1069 891 1326 650 
Q 1584 409 2034 409 
Q 2484 409 2743 651 
Q 3003 894 3003 1313 
Q 3003 1734 2745 1975 
Q 2488 2216 2034 2216 
z
M 1403 2484 
Q 997 2584 770 2862 
Q 544 3141 544 3541 
Q 544 4100 942 4425 
Q 1341 4750 2034 4750 
Q 2731 4750 3128 4425 
Q 3525 4100 3525 3541 
Q 3525 3141 3298 2862 
Q 3072 2584 2669 2484 
Q 3125 2378 3379 2068 
Q 3634 1759 3634 1313 
Q 3634 634 3220 271 
Q 2806 -91 2034 -91 
Q 1263 -91 848 271 
Q 434 634 434 1313 
Q 434 1759 690 2068 
Q 947 2378 1403 2484 
z
M 1172 3481 
Q 1172 3119 1398 2916 
Q 1625 2713 2034 2713 
Q 2441 2713 2670 2916 
Q 2900 3119 2900 3481 
Q 2900 3844 2670 4047 
Q 2441 4250 2034 4250 
Q 1625 4250 1398 4047 
Q 1172 3844 1172 3481 
z
" transform="scale(0.015625)"/>
       </defs>
       <use xlink:href="#DejaVuSans-30"/>
       <use xlink:href="#DejaVuSans-2e" x="63.623047"/>
       <use xlink:href="#DejaVuSans-38" x="95.410156"/>
      </g>
     </g>
    </g>
    <g id="ytick_6">
     <g id="line2d_11">
      <g>
       <use xlink:href="#mea190ff09d" x="135" y="78.12" style="stroke: #000000; stroke-width: 0.8"/>
      </g>
     </g>
     <g id="text_12">
      <!-- 1.0 -->
      <g transform="translate(112.096875 81.919219) scale(0.1 -0.1)">
       <use xlink:href="#DejaVuSans-31"/>
       <use xlink:href="#DejaVuSans-2e" x="63.623047"/>
       <use xlink:href="#DejaVuSans-30" x="95.410156"/>
      </g>
     </g>
    </g>
   </g>
   <g id="line2d_12">
    <path d="M 173.045455 417.53451 
L 173.846918 362.702948 
L 174.488088 331.527824 
L 175.129259 309.72774 
L 175.770429 295.756063 
L 176.251307 289.587263 
L 176.571892 287.236833 
L 176.892478 286.131208 
L 177.05277 286.003919 
L 177.213063 286.1394 
L 177.533648 287.139106 
L 177.693941 287.974823 
L 178.495404 328.552196 
L 179.296867 358.296196 
L 180.09833 379.153889 
L 180.739501 390.569219 
L 181.380671 398.104341 
L 181.861549 401.600955 
L 182.342427 403.521864 
L 182.663012 404.035778 
L 182.823305 404.085329 
L 183.14389 403.80471 
L 183.464475 403.06174 
L 183.945353 401.187694 
L 184.586524 397.50389 
L 185.387987 391.432129 
L 186.510035 381.099776 
L 188.914424 356.167406 
L 190.998229 335.538179 
L 192.601155 321.837013 
L 193.883496 312.586911 
L 195.165837 304.943057 
L 196.287885 299.561887 
L 197.249641 295.884189 
L 198.211397 293.023677 
L 199.01286 291.226893 
L 199.814323 289.928887 
L 200.455493 289.226703 
L 201.096664 288.804179 
L 201.737834 288.643589 
L 202.379005 288.727398 
L 203.020175 289.038406 
L 203.821639 289.721206 
L 204.623102 290.701385 
L 205.584857 292.228063 
L 206.706906 294.431334 
L 208.149539 297.824017 
L 209.752466 302.182432 
L 211.83627 308.526546 
L 213.278903 313.230314 
L 214.080367 261.02931 
L 214.721537 232.475233 
L 215.362708 213.695283 
L 215.843585 205.05611 
L 216.324463 200.407271 
L 216.645049 199.251146 
L 216.805341 199.198762 
L 216.965634 199.472815 
L 217.286219 200.931705 
L 217.767097 205.154738 
L 218.087682 209.150625 
L 218.889145 253.860448 
L 219.690608 287.567002 
L 220.492072 312.212915 
L 221.293535 329.46015 
L 221.934705 338.889958 
L 222.575876 345.119839 
L 223.056754 348.023569 
L 223.537631 349.640124 
L 223.858217 350.094255 
L 224.178802 350.108121 
L 224.499387 349.728006 
L 224.980265 348.512352 
L 225.621436 345.888563 
L 226.422899 341.375894 
L 227.544947 333.53949 
L 230.109629 313.308731 
L 232.033141 299.171136 
L 233.475774 290.185467 
L 234.758115 283.616678 
L 235.880164 279.017177 
L 236.841919 275.92157 
L 237.803675 273.58124 
L 238.605138 272.180847 
L 239.406601 271.252329 
L 240.047772 270.829757 
L 240.688942 270.674877 
L 241.330113 270.771614 
L 241.971283 271.103755 
L 242.772746 271.825378 
L 243.57421 272.858568 
L 244.535965 274.467366 
L 245.658014 276.790551 
L 247.100647 280.371312 
L 248.703574 284.975448 
L 250.787378 291.681035 
L 253.672645 301.800731 
L 253.99323 302.961188 
L 254.634401 260.499426 
L 255.275571 230.487733 
L 255.916742 211.048002 
L 256.39762 202.392028 
L 256.718205 199.083703 
L 257.03879 197.540199 
L 257.199083 197.378668 
L 257.359375 197.59772 
L 257.679961 199.102579 
L 258.000546 201.910735 
L 258.481424 208.274073 
L 258.802009 213.76954 
L 259.603472 261.225097 
L 260.404935 297.196 
L 261.206398 323.693131 
L 262.007861 342.437778 
L 262.649032 352.845584 
L 263.290202 359.883173 
L 263.77108 363.293363 
L 264.251958 365.339964 
L 264.572543 366.041876 
L 264.893129 366.27468 
L 265.213714 366.086494 
L 265.534299 365.522044 
L 266.015177 364.059904 
L 266.656348 361.156385 
L 267.457811 356.358874 
L 268.579859 348.214767 
L 273.869516 307.710072 
L 275.151857 300.195082 
L 276.434198 294.01294 
L 277.556246 289.7051 
L 278.518002 286.806403 
L 279.479758 284.603991 
L 280.281221 283.269263 
L 281.082684 282.359701 
L 281.723854 281.918235 
L 282.365025 281.714316 
L 283.006195 281.732337 
L 283.647366 281.956826 
L 284.448829 282.504682 
L 285.250292 283.322694 
L 286.212048 284.622318 
L 287.334096 286.52086 
L 288.77673 289.467465 
L 290.379656 293.271372 
L 292.46346 298.825564 
L 293.585509 302.01968 
L 294.226679 261.032758 
L 294.86785 232.506487 
L 295.50902 214.56164 
L 295.989898 207.031692 
L 296.310483 204.475708 
L 296.631068 203.685423 
L 296.791361 203.90071 
L 297.111946 205.45431 
L 297.432532 208.381974 
L 297.913409 215.046622 
L 298.394287 224.056477 
L 299.19575 270.572791 
L 299.997214 305.728843 
L 300.798677 331.528767 
L 301.60014 349.685825 
L 302.24131 359.696508 
L 302.882481 366.39657 
L 303.363359 369.589711 
L 303.844237 371.447818 
L 304.164822 372.038864 
L 304.485407 372.171895 
L 304.805992 371.894389 
L 305.126578 371.250442 
L 305.607455 369.686099 
L 306.248626 366.674886 
L 307.050089 361.781918 
L 308.33243 352.303814 
L 312.980916 316.147751 
L 314.42355 307.182258 
L 315.705891 300.555007 
L 316.827939 295.810245 
L 317.949988 292.020218 
L 318.911743 289.491329 
L 319.873499 287.581611 
L 320.674962 286.428536 
L 321.476425 285.642848 
L 322.277888 285.194967 
L 322.919059 285.060165 
L 323.720522 285.146975 
L 324.521985 285.491688 
L 325.323448 286.067973 
L 326.285204 287.030387 
L 327.407252 288.476892 
L 328.689593 290.487843 
L 330.29252 293.430934 
L 332.216031 297.435399 
L 333.818957 301.054457 
L 334.460128 261.694408 
L 335.101298 234.5775 
L 335.582176 221.145264 
L 336.063054 212.836024 
L 336.383639 209.818966 
L 336.704225 208.609882 
L 336.864517 208.630484 
L 337.02481 209.040972 
L 337.345395 210.954755 
L 337.826273 216.285172 
L 338.467444 227.281976 
L 338.627736 230.623432 
L 339.429199 275.184193 
L 340.230662 308.769548 
L 341.032126 333.327527 
L 341.833589 350.521942 
L 342.474759 359.934171 
L 343.11593 366.166734 
L 343.596808 369.084371 
L 344.077685 370.723674 
L 344.398271 371.197197 
L 344.718856 371.233314 
L 345.039441 370.87784 
L 345.520319 369.702546 
L 346.16149 367.136217 
L 346.962953 362.695255 
L 348.085001 354.94384 
L 350.329098 337.26607 
L 352.573195 320.317167 
L 354.176121 309.95823 
L 355.458462 302.994271 
L 356.740803 297.253773 
L 357.862851 293.211466 
L 358.9849 290.034053 
L 359.946655 287.949979 
L 360.908411 286.407452 
L 361.709874 285.500725 
L 362.511337 284.908119 
L 363.3128 284.601819 
L 364.114264 284.554916 
L 364.915727 284.741735 
L 365.877482 285.240452 
L 366.839238 286.002186 
L 367.961287 287.176499 
L 369.243628 288.834803 
L 370.846554 291.289641 
L 372.770065 294.663065 
L 373.090651 295.261394 
L 373.731821 257.002465 
L 374.372992 230.749867 
L 374.853869 217.824242 
L 375.334747 209.910363 
L 375.655333 207.099374 
L 375.975918 206.053254 
L 376.13621 206.139927 
L 376.296503 206.606607 
L 376.617088 208.604295 
L 377.097966 213.993615 
L 377.739137 224.955509 
L 377.899429 228.269754 
L 378.700892 271.423433 
L 379.502356 303.991928 
L 380.303819 327.855498 
L 381.105282 344.619702 
L 381.746452 353.844191 
L 382.387623 360.003868 
L 382.868501 362.930402 
L 383.349379 364.624876 
L 383.669964 365.157585 
L 383.990549 365.26869 
L 384.311134 365.002319 
L 384.63172 364.399414 
L 385.112597 362.946283 
L 385.753768 360.161867 
L 386.555231 355.651439 
L 387.837572 346.938717 
L 392.486058 313.819991 
L 393.928692 305.596651 
L 395.211033 299.490055 
L 396.333081 295.084492 
L 397.45513 291.522401 
L 398.416885 289.101005 
L 399.378641 287.21991 
L 400.340397 285.834317 
L 401.14186 285.02472 
L 401.943323 284.500221 
L 402.744786 284.234638 
L 403.546249 284.202805 
L 404.347712 284.380848 
L 405.309468 284.840141 
L 406.431517 285.670043 
L 407.713858 286.944957 
L 409.156491 288.718327 
L 410.91971 291.266552 
L 413.003514 294.67902 
L 413.644685 295.796378 
L 414.285855 258.173376 
L 414.927026 232.362114 
L 415.407904 219.655554 
L 415.888781 211.876031 
L 416.209367 209.112184 
L 416.529952 208.082313 
L 416.690245 208.166305 
L 416.850537 208.6235 
L 417.171122 210.582969 
L 417.652 215.871025 
L 418.293171 226.626968 
L 418.453463 229.878725 
L 419.254927 272.31933 
L 420.05639 304.401438 
L 420.857853 327.961682 
L 421.659316 344.568612 
L 422.300486 353.751265 
L 422.941657 359.928804 
L 423.422535 362.900711 
L 423.903413 364.663025 
L 424.223998 365.251476 
L 424.544583 365.425484 
L 424.865168 365.228192 
L 425.185754 364.699628 
L 425.666632 363.366053 
L 426.307802 360.75213 
L 427.109265 356.465326 
L 428.391606 348.115295 
L 433.200385 315.105059 
L 434.643019 307.226881 
L 435.92536 301.372864 
L 437.047408 297.140256 
L 438.169456 293.704042 
L 439.291505 291.011461 
L 440.25326 289.246946 
L 441.215016 287.937933 
L 442.176772 287.039799 
L 442.978235 286.573473 
L 443.779698 286.337429 
L 444.581161 286.308353 
L 445.542917 286.515933 
L 446.504673 286.955223 
L 447.626721 287.718791 
L 448.909062 288.869098 
L 450.511988 290.642913 
L 452.4355 293.150985 
L 453.557548 294.762351 
L 454.198719 257.49827 
L 454.839889 231.925211 
L 455.320767 219.330565 
L 455.801645 211.614587 
L 456.12223 208.869844 
L 456.442816 207.842827 
L 456.603108 207.92275 
L 456.763401 208.372515 
L 457.083986 210.307924 
L 457.564864 215.540016 
L 458.206034 226.192413 
L 458.366327 229.414325 
L 459.16779 271.562903 
L 459.969253 303.477213 
L 460.770716 326.965804 
L 461.57218 343.573673 
L 462.21335 352.796048 
L 462.854521 359.038712 
L 463.335398 362.07176 
L 463.816276 363.902805 
L 464.136862 364.540144 
L 464.457447 364.764769 
L 464.778032 364.619263 
L 465.098617 364.143148 
L 465.579495 362.888486 
L 466.220666 360.378131 
L 467.022129 356.214394 
L 468.144177 349.127187 
L 473.754419 311.612592 
L 475.197053 304.268277 
L 476.479394 298.857853 
L 477.601442 294.969448 
L 478.72349 291.827001 
L 479.845539 289.373827 
L 480.807295 287.770907 
L 481.76905 286.584553 
L 482.730806 285.772431 
L 483.532269 285.35192 
L 484.333732 285.140263 
L 485.295488 285.132181 
L 486.257244 285.360516 
L 487.379292 285.885094 
L 488.661633 286.77313 
L 490.104267 288.075747 
L 491.707193 289.827051 
L 493.630705 292.26144 
L 494.271875 255.187716 
L 494.913046 229.721653 
L 495.393923 217.16284 
L 495.874801 209.451768 
L 496.195387 206.695983 
L 496.515972 205.648316 
L 496.676264 205.714771 
L 496.836557 206.149206 
L 497.157142 208.049031 
L 497.63802 213.217777 
L 498.279191 223.773098 
L 498.439483 226.969358 
L 499.240946 269.126498 
L 500.04241 301.10863 
L 500.843873 324.707344 
L 501.645336 341.453725 
L 502.286506 350.799694 
L 502.927677 357.17214 
L 503.408555 360.304206 
L 503.889433 362.234152 
L 504.210018 362.936768 
L 504.530603 363.225783 
L 504.851188 363.143511 
L 505.171774 362.729231 
L 505.652651 361.564244 
L 506.293822 359.166806 
L 507.095285 355.132033 
L 508.217333 348.200209 
L 510.621723 331.434269 
L 512.705527 317.599336 
L 514.308453 308.416041 
L 515.751087 301.485625 
L 517.033428 296.417947 
L 518.155476 292.799345 
L 519.277525 289.894237 
L 520.399573 287.644823 
L 521.361329 286.190536 
L 522.323084 285.130338 
L 523.28484 284.423924 
L 524.246596 284.032703 
L 525.208352 283.92051 
L 526.170107 284.054052 
L 527.131863 284.403153 
L 528.253912 285.047076 
L 529.536253 286.049745 
L 530.978886 287.462444 
L 532.742105 289.524184 
L 533.864153 290.996127 
L 534.505324 253.892683 
L 535.146494 228.336667 
L 535.627372 215.678675 
L 536.10825 207.846652 
L 536.428835 205.000302 
L 536.749421 203.855516 
L 536.909713 203.871298 
L 537.070006 204.253828 
L 537.390591 206.046637 
L 537.871469 211.048596 
L 538.51264 221.374296 
L 538.672932 224.512503 
L 539.474395 266.800878 
L 540.275858 298.95996 
L 541.077322 322.767031 
L 541.878785 339.741549 
L 542.519955 349.277928 
L 543.161126 355.84356 
L 543.802296 359.93661 
L 544.283174 361.646883 
L 544.603759 362.230997 
L 544.924345 362.421683 
L 545.24493 362.259512 
L 545.565515 361.782144 
L 546.046393 360.550752 
L 546.687563 358.110303 
L 547.489027 354.081379 
L 548.611075 347.240644 
L 554.221317 311.045244 
L 555.66395 303.935798 
L 556.946291 298.686259 
L 558.06834 294.903942 
L 559.190388 291.838601 
L 560.312437 289.437562 
L 561.274192 287.862793 
L 562.235948 286.692349 
L 563.197704 285.886748 
L 564.15946 285.407795 
L 565.121215 285.219392 
L 566.082971 285.288072 
L 567.044727 285.58331 
L 568.166775 286.177655 
L 569.449116 287.140067 
L 570.89175 288.526669 
L 572.494676 290.38002 
L 574.257895 292.731349 
L 574.899065 255.49916 
L 575.540236 229.771052 
L 576.021114 216.960768 
L 576.501992 208.960183 
L 576.822577 205.993884 
L 577.143162 204.724029 
L 577.303455 204.675593 
L 577.463747 204.992901 
L 577.784333 206.652597 
L 578.265211 211.449404 
L 578.906381 221.49441 
L 579.066674 224.561611 
L 579.868137 266.912211 
L 580.6696 299.176093 
L 581.471063 323.118256 
L 582.272526 340.248143 
L 582.913697 349.917923 
L 583.554867 356.621348 
L 584.196038 360.853785 
L 584.676916 362.668248 
L 584.997501 363.321198 
L 585.318086 363.579973 
L 585.638671 363.484963 
L 585.959257 363.073661 
L 586.440134 361.93901 
L 587.081305 359.622524 
L 587.882768 355.739452 
L 589.004816 349.084229 
L 591.569498 331.948445 
L 593.653303 318.83669 
L 595.256229 310.197685 
L 596.53857 304.37146 
L 597.820911 299.531773 
L 598.942959 296.079627 
L 600.065008 293.312536 
L 601.187056 291.175653 
L 602.148812 289.800027 
L 603.110567 288.804341 
L 604.072323 288.150433 
L 605.034079 287.80179 
L 605.995835 287.724214 
L 606.95759 287.886238 
L 607.919346 288.259351 
L 609.041395 288.927615 
L 610.323736 289.955759 
L 611.766369 291.397136 
L 613.209003 293.091232 
L 613.850173 255.946159 
L 614.491344 230.275824 
L 614.972222 217.492436 
L 615.4531 209.506729 
L 615.773685 206.544535 
L 616.09427 205.274705 
L 616.254563 205.224897 
L 616.414855 205.539985 
L 616.735441 207.19291 
L 617.216318 211.974508 
L 617.857489 221.991805 
L 618.017782 225.051046 
L 618.819245 267.253537 
L 619.620708 299.419392 
L 620.422171 323.302235 
L 621.223634 340.401991 
L 621.864805 350.063318 
L 622.505975 356.768487 
L 623.147146 361.009974 
L 623.628023 362.834536 
L 623.948609 363.495295 
L 624.269194 363.762464 
L 624.589779 363.676224 
L 624.910364 363.273874 
L 625.391242 362.152619 
L 626.032413 359.853156 
L 626.833876 355.988644 
L 627.955924 349.351775 
L 630.360314 333.285776 
L 632.444118 319.99697 
L 634.047044 311.149056 
L 635.489678 304.448362 
L 636.772019 299.528415 
L 637.894067 295.998646 
L 639.016115 293.148547 
L 640.138164 290.924655 
L 641.09992 289.47225 
L 642.061675 288.398547 
L 643.023431 287.666068 
L 643.985187 287.238914 
L 644.946943 287.083435 
L 645.908698 287.16864 
L 646.870454 287.466433 
L 647.992502 288.049181 
L 649.274843 288.98325 
L 650.717477 290.324073 
L 652.320403 292.115613 
L 653.92333 294.173581 
L 654.5645 256.964761 
L 655.205671 231.213159 
L 655.686548 218.359376 
L 656.167426 210.2965 
L 656.488012 207.279596 
L 656.808597 205.95275 
L 656.968889 205.873644 
L 657.129182 206.158942 
L 657.449767 207.750918 
L 657.930645 212.438015 
L 658.571816 222.324438 
L 658.732108 225.350216 
L 659.533571 267.564983 
L 660.335035 299.737812 
L 661.136498 323.623048 
L 661.937961 340.721397 
L 662.579131 350.379399 
L 663.220302 357.079721 
L 663.861472 361.315224 
L 664.34235 363.134767 
L 664.662935 363.792006 
L 664.983521 364.055564 
L 665.304106 363.965658 
L 665.624691 363.559623 
L 666.105569 362.432876 
L 666.74674 360.126317 
L 667.548203 356.253596 
L 668.670251 349.60707 
L 671.07464 333.530174 
L 673.158445 320.244209 
L 674.761371 311.405897 
L 676.204004 304.718508 
L 677.486345 299.813307 
L 678.608394 296.29808 
L 679.730442 293.463506 
L 680.852491 291.255607 
L 681.814246 289.816907 
L 682.776002 288.756593 
L 683.737758 288.036919 
L 684.699514 287.621743 
L 685.661269 287.477196 
L 686.623025 287.572103 
L 687.584781 287.878211 
L 688.706829 288.46874 
L 689.98917 289.408992 
L 691.431804 290.753151 
L 693.03473 292.543818 
L 694.156778 293.955558 
L 694.797949 256.648656 
L 695.439119 230.795465 
L 696.08029 214.648558 
L 696.561168 207.964739 
L 696.881753 205.759467 
L 697.042046 205.270316 
L 697.202338 205.164212 
L 697.362631 205.422466 
L 697.683216 206.96026 
L 698.003801 209.745888 
L 698.484679 215.984451 
L 698.965557 224.343308 
L 699.76702 266.52581 
L 700.568483 298.681889 
L 701.369947 322.562668 
L 702.17141 339.666116 
L 702.81258 349.333508 
L 703.453751 356.046835 
L 704.094921 360.298082 
L 704.575799 362.130773 
L 704.896384 362.79726 
L 705.21697 363.070364 
L 705.537555 362.990232 
L 705.85814 362.59414 
L 706.339018 361.482496 
L 706.980188 359.196164 
L 707.781652 355.348393 
L 708.9037 348.735235 
L 711.308089 332.719685 
L 713.391893 319.472922 
L 714.99482 310.655626 
L 716.437453 303.980806 
L 717.719794 299.082234 
L 718.841843 295.569707 
L 719.963891 292.735305 
L 721.085939 290.525401 
L 722.047695 289.083507 
L 723.009451 288.018851 
L 723.971207 287.293876 
L 724.932962 286.872615 
L 725.894718 286.721358 
L 726.856474 286.809075 
L 727.81823 287.10764 
L 728.940278 287.689073 
L 730.222619 288.618726 
L 731.665253 289.950926 
L 733.268179 291.728506 
L 734.069642 292.718321 
L 734.710813 255.507798 
L 735.351983 229.742167 
L 735.832861 216.870742 
L 736.313739 208.784888 
L 736.634324 205.750042 
L 736.954909 204.40339 
L 737.115202 204.313744 
L 737.275495 204.588111 
L 737.59608 206.157145 
L 738.076958 210.807483 
L 738.718128 220.641467 
L 738.878421 223.653667 
L 739.679884 265.77842 
L 740.481347 297.887989 
L 741.28281 321.731527 
L 742.084273 338.805296 
L 742.725444 348.453397 
L 743.366614 355.150678 
L 744.007785 359.388553 
L 744.488663 361.21267 
L 744.809248 361.874027 
L 745.129833 362.142413 
L 745.450418 362.057927 
L 745.771004 361.657802 
L 746.251882 360.540626 
L 746.893052 358.2477 
L 747.694515 354.392598 
L 748.816564 347.770193 
L 751.220953 331.735696 
L 753.304757 318.470982 
L 754.907683 309.638293 
L 756.350317 302.948516 
L 757.632658 298.035985 
L 758.754706 294.51093 
L 759.876755 291.663906 
L 760.998803 289.441482 
L 761.960559 287.989089 
L 762.922315 286.914279 
L 763.88407 286.179613 
L 764.845826 285.749239 
L 765.807582 285.589553 
L 766.769338 285.669622 
L 767.731093 285.961413 
L 768.853142 286.536155 
L 770.135483 287.459904 
L 771.578116 288.78786 
L 773.181043 290.563904 
L 773.822213 291.351161 
L 774.463384 254.218476 
L 775.104554 228.526004 
L 775.585432 215.706892 
L 776.06631 207.67152 
L 776.386895 204.669454 
L 776.70748 203.354977 
L 776.867773 203.281214 
L 777.028066 203.571339 
L 777.348651 205.171547 
L 777.829529 209.867907 
L 778.470699 219.762158 
L 778.630992 222.789269 
L 779.432455 264.917824 
L 780.233918 297.032272 
L 781.035381 320.881457 
L 781.836844 337.961386 
L 782.478015 347.614644 
L 783.119185 354.317196 
L 783.760356 358.56039 
L 784.241234 360.388495 
L 784.561819 361.052502 
L 784.882404 361.323526 
L 785.202989 361.241664 
L 785.523575 360.844145 
L 786.004453 359.730841 
L 786.645623 357.443006 
L 787.447086 353.594154 
L 788.569135 346.980312 
L 790.973524 330.963842 
L 793.057328 317.715237 
L 794.660254 308.895904 
L 796.102888 302.219274 
L 797.385229 297.319574 
L 798.507277 293.806783 
L 799.629326 290.973103 
L 800.751374 288.76519 
L 801.71313 287.326216 
L 802.674886 286.26577 
L 803.636641 285.546435 
L 804.598397 285.132373 
L 805.560153 284.989989 
L 806.521909 285.088347 
L 807.483664 285.399404 
L 808.605713 285.997836 
L 809.888054 286.95021 
L 811.330687 288.312253 
L 812.933614 290.128359 
L 813.414491 290.727424 
L 814.055662 253.625786 
L 814.696832 227.963552 
L 815.17771 215.166901 
L 815.658588 207.154019 
L 815.979173 204.167046 
L 816.299759 202.867794 
L 816.460051 202.801706 
L 816.620344 203.099554 
L 816.940929 204.715368 
L 817.421807 209.435594 
L 818.062978 219.362662 
L 818.22327 222.398173 
L 819.024733 264.567378 
L 819.826196 296.721011 
L 820.62766 320.607664 
L 821.429123 337.72316 
L 822.070293 347.403418 
L 822.711464 354.13163 
L 823.352634 358.399122 
L 823.833512 360.244554 
L 824.154097 360.919685 
L 824.474683 361.201493 
L 824.795268 361.130078 
L 825.115853 360.742672 
L 825.596731 359.64392 
L 826.237901 357.374356 
L 827.039365 353.546581 
L 828.161413 346.95913 
L 830.565802 330.988255 
L 832.649606 317.76906 
L 834.252533 308.967325 
L 835.695166 302.303596 
L 836.977507 297.413516 
L 838.099556 293.908016 
L 839.221604 291.080802 
L 840.343652 288.878722 
L 841.305408 287.444371 
L 842.267164 286.388296 
L 843.22892 285.67316 
L 844.190675 285.263189 
L 845.152431 285.124842 
L 846.114187 285.227231 
L 847.075943 285.542343 
L 848.197991 286.145574 
L 849.480332 287.10355 
L 850.922966 288.47207 
L 852.525892 290.295582 
L 854.449403 292.833721 
L 854.609696 293.060423 
L 855.250867 255.747342 
L 855.892037 229.8764 
L 856.533208 213.702739 
L 857.014085 206.994235 
L 857.334671 204.770732 
L 857.494963 204.272008 
L 857.655256 204.156057 
L 857.815549 204.404211 
L 858.136134 205.921127 
L 858.456719 208.6851 
L 858.937597 214.890019 
L 859.418475 223.2142 
L 860.219938 265.4945 
L 861.021401 297.740212 
L 861.822864 321.703058 
L 862.624327 338.881637 
L 863.265498 348.604574 
L 863.906668 355.369748 
L 864.547839 359.669465 
L 865.028717 361.53648 
L 865.349302 362.224953 
L 865.669887 362.51937 
L 865.990472 362.459912 
L 866.311058 362.083887 
L 866.791936 361.001283 
L 867.433106 358.75185 
L 868.234569 354.947606 
L 869.356618 348.391276 
L 871.761007 332.485424 
L 873.844811 319.324842 
L 875.447737 310.570341 
L 876.890371 303.950282 
L 878.172712 299.099354 
L 879.29476 295.627876 
L 880.416809 292.834014 
L 881.538857 290.664185 
L 882.500613 289.256289 
L 883.462369 288.225316 
L 884.424124 287.533706 
L 885.38588 287.14549 
L 886.347636 287.026955 
L 887.309392 287.147065 
L 888.271147 287.477689 
L 889.393196 288.096101 
L 890.675537 289.067456 
L 892.11817 290.44586 
L 893.881389 292.471824 
L 894.362267 293.080736 
L 895.003438 255.757524 
L 895.644608 229.8772 
L 896.285779 213.694179 
L 896.766656 206.978428 
L 897.087242 204.749946 
L 897.247534 204.248685 
L 897.407827 204.130168 
L 897.56812 204.375727 
L 897.888705 205.887375 
L 898.20929 208.64599 
L 898.690168 214.842766 
L 899.171046 223.158766 
L 899.972509 265.33694 
L 900.773972 297.5052 
L 901.575435 321.41062 
L 902.376898 338.547783 
L 903.018069 348.246775 
L 903.659239 354.994496 
L 904.30041 359.281911 
L 904.781288 361.142371 
L 905.101873 361.8275 
L 905.422458 362.119254 
L 905.743043 362.057709 
L 906.063629 361.680071 
L 906.544507 360.595735 
L 907.185677 358.34485 
L 907.98714 354.539381 
L 909.109189 347.980873 
L 911.513578 332.061643 
L 913.597382 318.874876 
L 915.200308 310.090257 
L 916.642942 303.436317 
L 917.925283 298.550685 
L 919.047331 295.045962 
L 920.16938 292.216773 
L 921.291428 290.010115 
L 922.253184 288.569882 
L 923.21494 287.506213 
L 924.176695 286.781858 
L 925.138451 286.361131 
L 926.100207 286.210572 
L 927.061963 286.299367 
L 928.023718 286.599578 
L 929.145767 287.183865 
L 930.428108 288.118259 
L 931.870741 289.457956 
L 933.473668 291.246815 
L 933.794253 291.637863 
L 933.954545 281.181294 
L 933.954545 281.181294 
" clip-path="url(#pe8add85d90)" style="fill: none; stroke: #1f77b4; stroke-width: 1.5; stroke-linecap: square"/>
   </g>
   <g id="line2d_13">
    <path d="M 173.045455 78.12 
L 177.693941 78.12 
L 177.854233 430.92 
L 213.278903 430.92 
L 213.439196 78.12 
L 218.087682 78.12 
L 218.247975 430.92 
L 253.99323 430.92 
L 254.153523 78.12 
L 258.802009 78.12 
L 258.962302 430.92 
L 293.585509 430.92 
L 293.745801 78.12 
L 298.394287 78.12 
L 298.55458 430.92 
L 333.818957 430.92 
L 333.97925 78.12 
L 338.627736 78.12 
L 338.788029 430.92 
L 373.090651 430.92 
L 373.250943 78.12 
L 377.899429 78.12 
L 378.059722 430.92 
L 413.644685 430.92 
L 413.804977 78.12 
L 418.453463 78.12 
L 418.613756 430.92 
L 453.557548 430.92 
L 453.717841 78.12 
L 458.366327 78.12 
L 458.52662 430.92 
L 493.630705 430.92 
L 493.790997 78.12 
L 498.439483 78.12 
L 498.599776 430.92 
L 533.864153 430.92 
L 534.024446 78.12 
L 538.672932 78.12 
L 538.833225 430.92 
L 574.257895 430.92 
L 574.418188 78.12 
L 579.066674 78.12 
L 579.226966 430.92 
L 613.209003 430.92 
L 613.369295 78.12 
L 618.017782 78.12 
L 618.178074 430.92 
L 653.92333 430.92 
L 654.083622 78.12 
L 658.732108 78.12 
L 658.892401 430.92 
L 694.156778 430.92 
L 694.317071 78.12 
L 698.965557 78.12 
L 699.12585 430.92 
L 734.069642 430.92 
L 734.229935 78.12 
L 738.878421 78.12 
L 739.038713 430.92 
L 773.822213 430.92 
L 773.982506 78.12 
L 778.630992 78.12 
L 778.791284 430.92 
L 813.414491 430.92 
L 813.574784 78.12 
L 818.22327 78.12 
L 818.383563 430.92 
L 854.609696 430.92 
L 854.769989 78.12 
L 859.418475 78.12 
L 859.578767 430.92 
L 894.362267 430.92 
L 894.52256 78.12 
L 899.171046 78.12 
L 899.331338 430.92 
L 933.794253 430.92 
L 933.954545 78.12 
L 933.954545 78.12 
" clip-path="url(#pe8add85d90)" style="fill: none; stroke: #ff7f0e; stroke-width: 1.5; stroke-linecap: square"/>
   </g>
   <g id="line2d_14">
    <path d="M 929.466352 430.92 
" clip-path="url(#pe8add85d90)" style="fill: none; stroke: #000000; stroke-width: 1.5; stroke-linecap: square"/>
    <defs>
     <path id="m3e89cf4844" d="M 0 1 
C 0.265203 1 0.51958 0.894634 0.707107 0.707107 
C 0.894634 0.51958 1 0.265203 1 0 
C 1 -0.265203 0.894634 -0.51958 0.707107 -0.707107 
C 0.51958 -0.894634 0.265203 -1 0 -1 
C -0.265203 -1 -0.51958 -0.894634 -0.707107 -0.707107 
C -0.894634 -0.51958 -1 -0.265203 -1 0 
C -1 0.265203 -0.894634 0.51958 -0.707107 0.707107 
C -0.51958 0.894634 -0.265203 1 0 1 
z
" style="stroke: #000000"/>
    </defs>
    <g clip-path="url(#pe8add85d90)">
     <use xlink:href="#m3e89cf4844" x="173.045455" y="78.12" style="stroke: #000000"/>
     <use xlink:href="#m3e89cf4844" x="178.174819" y="430.92" style="stroke: #000000"/>
     <use xlink:href="#m3e89cf4844" x="183.14389" y="430.92" style="stroke: #000000"/>
     <use xlink:href="#m3e89cf4844" x="188.112961" y="78.12" style="stroke: #000000"/>
     <use xlink:href="#m3e89cf4844" x="193.082033" y="430.92" style="stroke: #000000"/>
     <use xlink:href="#m3e89cf4844" x="198.211397" y="430.92" style="stroke: #000000"/>
     <use xlink:href="#m3e89cf4844" x="203.180468" y="78.12" style="stroke: #000000"/>
     <use xlink:href="#m3e89cf4844" x="208.149539" y="430.92" style="stroke: #000000"/>
     <use xlink:href="#m3e89cf4844" x="213.118611" y="78.12" style="stroke: #000000"/>
     <use xlink:href="#m3e89cf4844" x="218.247975" y="430.92" style="stroke: #000000"/>
     <use xlink:href="#m3e89cf4844" x="223.217046" y="430.92" style="stroke: #000000"/>
     <use xlink:href="#m3e89cf4844" x="228.186118" y="78.12" style="stroke: #000000"/>
     <use xlink:href="#m3e89cf4844" x="233.155189" y="430.92" style="stroke: #000000"/>
     <use xlink:href="#m3e89cf4844" x="238.284553" y="430.92" style="stroke: #000000"/>
     <use xlink:href="#m3e89cf4844" x="243.253624" y="78.12" style="stroke: #000000"/>
     <use xlink:href="#m3e89cf4844" x="248.222696" y="430.92" style="stroke: #000000"/>
     <use xlink:href="#m3e89cf4844" x="253.191767" y="78.12" style="stroke: #000000"/>
     <use xlink:href="#m3e89cf4844" x="258.321131" y="430.92" style="stroke: #000000"/>
     <use xlink:href="#m3e89cf4844" x="263.290202" y="430.92" style="stroke: #000000"/>
     <use xlink:href="#m3e89cf4844" x="268.259274" y="78.12" style="stroke: #000000"/>
     <use xlink:href="#m3e89cf4844" x="273.228345" y="430.92" style="stroke: #000000"/>
     <use xlink:href="#m3e89cf4844" x="278.357709" y="430.92" style="stroke: #000000"/>
     <use xlink:href="#m3e89cf4844" x="283.326781" y="78.12" style="stroke: #000000"/>
     <use xlink:href="#m3e89cf4844" x="288.295852" y="430.92" style="stroke: #000000"/>
     <use xlink:href="#m3e89cf4844" x="293.264923" y="78.12" style="stroke: #000000"/>
     <use xlink:href="#m3e89cf4844" x="298.394287" y="430.92" style="stroke: #000000"/>
     <use xlink:href="#m3e89cf4844" x="303.363359" y="430.92" style="stroke: #000000"/>
     <use xlink:href="#m3e89cf4844" x="308.33243" y="78.12" style="stroke: #000000"/>
     <use xlink:href="#m3e89cf4844" x="313.301501" y="430.92" style="stroke: #000000"/>
     <use xlink:href="#m3e89cf4844" x="318.430865" y="430.92" style="stroke: #000000"/>
     <use xlink:href="#m3e89cf4844" x="323.399937" y="78.12" style="stroke: #000000"/>
     <use xlink:href="#m3e89cf4844" x="328.369008" y="430.92" style="stroke: #000000"/>
     <use xlink:href="#m3e89cf4844" x="333.33808" y="78.12" style="stroke: #000000"/>
     <use xlink:href="#m3e89cf4844" x="338.467444" y="430.92" style="stroke: #000000"/>
     <use xlink:href="#m3e89cf4844" x="343.436515" y="430.92" style="stroke: #000000"/>
     <use xlink:href="#m3e89cf4844" x="348.405586" y="78.12" style="stroke: #000000"/>
     <use xlink:href="#m3e89cf4844" x="353.374658" y="430.92" style="stroke: #000000"/>
     <use xlink:href="#m3e89cf4844" x="358.504022" y="430.92" style="stroke: #000000"/>
     <use xlink:href="#m3e89cf4844" x="363.473093" y="78.12" style="stroke: #000000"/>
     <use xlink:href="#m3e89cf4844" x="368.442164" y="430.92" style="stroke: #000000"/>
     <use xlink:href="#m3e89cf4844" x="373.411236" y="78.12" style="stroke: #000000"/>
     <use xlink:href="#m3e89cf4844" x="378.5406" y="430.92" style="stroke: #000000"/>
     <use xlink:href="#m3e89cf4844" x="383.509671" y="430.92" style="stroke: #000000"/>
     <use xlink:href="#m3e89cf4844" x="388.478743" y="78.12" style="stroke: #000000"/>
     <use xlink:href="#m3e89cf4844" x="393.447814" y="430.92" style="stroke: #000000"/>
     <use xlink:href="#m3e89cf4844" x="398.577178" y="430.92" style="stroke: #000000"/>
     <use xlink:href="#m3e89cf4844" x="403.546249" y="78.12" style="stroke: #000000"/>
     <use xlink:href="#m3e89cf4844" x="408.515321" y="430.92" style="stroke: #000000"/>
     <use xlink:href="#m3e89cf4844" x="413.484392" y="78.12" style="stroke: #000000"/>
     <use xlink:href="#m3e89cf4844" x="418.613756" y="430.92" style="stroke: #000000"/>
     <use xlink:href="#m3e89cf4844" x="423.582827" y="430.92" style="stroke: #000000"/>
     <use xlink:href="#m3e89cf4844" x="428.551899" y="78.12" style="stroke: #000000"/>
     <use xlink:href="#m3e89cf4844" x="433.52097" y="430.92" style="stroke: #000000"/>
     <use xlink:href="#m3e89cf4844" x="438.650334" y="430.92" style="stroke: #000000"/>
     <use xlink:href="#m3e89cf4844" x="443.619406" y="78.12" style="stroke: #000000"/>
     <use xlink:href="#m3e89cf4844" x="448.588477" y="430.92" style="stroke: #000000"/>
     <use xlink:href="#m3e89cf4844" x="453.557548" y="78.12" style="stroke: #000000"/>
     <use xlink:href="#m3e89cf4844" x="458.686912" y="430.92" style="stroke: #000000"/>
     <use xlink:href="#m3e89cf4844" x="463.655984" y="430.92" style="stroke: #000000"/>
     <use xlink:href="#m3e89cf4844" x="468.625055" y="78.12" style="stroke: #000000"/>
     <use xlink:href="#m3e89cf4844" x="473.594126" y="430.92" style="stroke: #000000"/>
     <use xlink:href="#m3e89cf4844" x="478.72349" y="430.92" style="stroke: #000000"/>
     <use xlink:href="#m3e89cf4844" x="483.692562" y="78.12" style="stroke: #000000"/>
     <use xlink:href="#m3e89cf4844" x="488.661633" y="430.92" style="stroke: #000000"/>
     <use xlink:href="#m3e89cf4844" x="493.630705" y="78.12" style="stroke: #000000"/>
     <use xlink:href="#m3e89cf4844" x="498.760069" y="430.92" style="stroke: #000000"/>
     <use xlink:href="#m3e89cf4844" x="503.72914" y="430.92" style="stroke: #000000"/>
     <use xlink:href="#m3e89cf4844" x="508.698211" y="78.12" style="stroke: #000000"/>
     <use xlink:href="#m3e89cf4844" x="513.667283" y="430.92" style="stroke: #000000"/>
     <use xlink:href="#m3e89cf4844" x="518.796647" y="430.92" style="stroke: #000000"/>
     <use xlink:href="#m3e89cf4844" x="523.765718" y="78.12" style="stroke: #000000"/>
     <use xlink:href="#m3e89cf4844" x="528.734789" y="430.92" style="stroke: #000000"/>
     <use xlink:href="#m3e89cf4844" x="533.703861" y="78.12" style="stroke: #000000"/>
     <use xlink:href="#m3e89cf4844" x="538.833225" y="430.92" style="stroke: #000000"/>
     <use xlink:href="#m3e89cf4844" x="543.802296" y="430.92" style="stroke: #000000"/>
     <use xlink:href="#m3e89cf4844" x="548.771368" y="78.12" style="stroke: #000000"/>
     <use xlink:href="#m3e89cf4844" x="553.740439" y="430.92" style="stroke: #000000"/>
     <use xlink:href="#m3e89cf4844" x="558.869803" y="430.92" style="stroke: #000000"/>
     <use xlink:href="#m3e89cf4844" x="563.838874" y="78.12" style="stroke: #000000"/>
     <use xlink:href="#m3e89cf4844" x="568.807946" y="430.92" style="stroke: #000000"/>
     <use xlink:href="#m3e89cf4844" x="573.777017" y="78.12" style="stroke: #000000"/>
     <use xlink:href="#m3e89cf4844" x="578.906381" y="430.92" style="stroke: #000000"/>
     <use xlink:href="#m3e89cf4844" x="583.875452" y="430.92" style="stroke: #000000"/>
     <use xlink:href="#m3e89cf4844" x="588.844524" y="78.12" style="stroke: #000000"/>
     <use xlink:href="#m3e89cf4844" x="593.813595" y="430.92" style="stroke: #000000"/>
     <use xlink:href="#m3e89cf4844" x="598.942959" y="430.92" style="stroke: #000000"/>
     <use xlink:href="#m3e89cf4844" x="603.912031" y="78.12" style="stroke: #000000"/>
     <use xlink:href="#m3e89cf4844" x="608.881102" y="430.92" style="stroke: #000000"/>
     <use xlink:href="#m3e89cf4844" x="613.850173" y="78.12" style="stroke: #000000"/>
     <use xlink:href="#m3e89cf4844" x="618.979537" y="430.92" style="stroke: #000000"/>
     <use xlink:href="#m3e89cf4844" x="623.948609" y="430.92" style="stroke: #000000"/>
     <use xlink:href="#m3e89cf4844" x="628.91768" y="78.12" style="stroke: #000000"/>
     <use xlink:href="#m3e89cf4844" x="633.886751" y="430.92" style="stroke: #000000"/>
     <use xlink:href="#m3e89cf4844" x="639.016115" y="430.92" style="stroke: #000000"/>
     <use xlink:href="#m3e89cf4844" x="643.985187" y="78.12" style="stroke: #000000"/>
     <use xlink:href="#m3e89cf4844" x="648.954258" y="430.92" style="stroke: #000000"/>
     <use xlink:href="#m3e89cf4844" x="653.92333" y="78.12" style="stroke: #000000"/>
     <use xlink:href="#m3e89cf4844" x="659.052694" y="430.92" style="stroke: #000000"/>
     <use xlink:href="#m3e89cf4844" x="664.021765" y="430.92" style="stroke: #000000"/>
     <use xlink:href="#m3e89cf4844" x="668.990836" y="78.12" style="stroke: #000000"/>
     <use xlink:href="#m3e89cf4844" x="673.959908" y="430.92" style="stroke: #000000"/>
     <use xlink:href="#m3e89cf4844" x="679.089272" y="430.92" style="stroke: #000000"/>
     <use xlink:href="#m3e89cf4844" x="684.058343" y="78.12" style="stroke: #000000"/>
     <use xlink:href="#m3e89cf4844" x="689.027414" y="430.92" style="stroke: #000000"/>
     <use xlink:href="#m3e89cf4844" x="693.996486" y="78.12" style="stroke: #000000"/>
     <use xlink:href="#m3e89cf4844" x="699.12585" y="430.92" style="stroke: #000000"/>
     <use xlink:href="#m3e89cf4844" x="704.094921" y="430.92" style="stroke: #000000"/>
     <use xlink:href="#m3e89cf4844" x="709.063993" y="78.12" style="stroke: #000000"/>
     <use xlink:href="#m3e89cf4844" x="714.033064" y="430.92" style="stroke: #000000"/>
     <use xlink:href="#m3e89cf4844" x="719.162428" y="430.92" style="stroke: #000000"/>
     <use xlink:href="#m3e89cf4844" x="724.131499" y="78.12" style="stroke: #000000"/>
     <use xlink:href="#m3e89cf4844" x="729.100571" y="430.92" style="stroke: #000000"/>
     <use xlink:href="#m3e89cf4844" x="734.069642" y="78.12" style="stroke: #000000"/>
     <use xlink:href="#m3e89cf4844" x="739.199006" y="430.92" style="stroke: #000000"/>
     <use xlink:href="#m3e89cf4844" x="744.168077" y="430.92" style="stroke: #000000"/>
     <use xlink:href="#m3e89cf4844" x="749.137149" y="78.12" style="stroke: #000000"/>
     <use xlink:href="#m3e89cf4844" x="754.10622" y="430.92" style="stroke: #000000"/>
     <use xlink:href="#m3e89cf4844" x="759.235584" y="430.92" style="stroke: #000000"/>
     <use xlink:href="#m3e89cf4844" x="764.204656" y="78.12" style="stroke: #000000"/>
     <use xlink:href="#m3e89cf4844" x="769.173727" y="430.92" style="stroke: #000000"/>
     <use xlink:href="#m3e89cf4844" x="774.142798" y="78.12" style="stroke: #000000"/>
     <use xlink:href="#m3e89cf4844" x="779.272162" y="430.92" style="stroke: #000000"/>
     <use xlink:href="#m3e89cf4844" x="784.241234" y="430.92" style="stroke: #000000"/>
     <use xlink:href="#m3e89cf4844" x="789.210305" y="78.12" style="stroke: #000000"/>
     <use xlink:href="#m3e89cf4844" x="794.179376" y="430.92" style="stroke: #000000"/>
     <use xlink:href="#m3e89cf4844" x="799.30874" y="430.92" style="stroke: #000000"/>
     <use xlink:href="#m3e89cf4844" x="804.277812" y="78.12" style="stroke: #000000"/>
     <use xlink:href="#m3e89cf4844" x="809.246883" y="430.92" style="stroke: #000000"/>
     <use xlink:href="#m3e89cf4844" x="814.215955" y="78.12" style="stroke: #000000"/>
     <use xlink:href="#m3e89cf4844" x="819.345319" y="430.92" style="stroke: #000000"/>
     <use xlink:href="#m3e89cf4844" x="824.31439" y="430.92" style="stroke: #000000"/>
     <use xlink:href="#m3e89cf4844" x="829.283461" y="78.12" style="stroke: #000000"/>
     <use xlink:href="#m3e89cf4844" x="834.252533" y="430.92" style="stroke: #000000"/>
     <use xlink:href="#m3e89cf4844" x="839.381897" y="430.92" style="stroke: #000000"/>
     <use xlink:href="#m3e89cf4844" x="844.350968" y="78.12" style="stroke: #000000"/>
     <use xlink:href="#m3e89cf4844" x="849.320039" y="430.92" style="stroke: #000000"/>
     <use xlink:href="#m3e89cf4844" x="854.289111" y="78.12" style="stroke: #000000"/>
     <use xlink:href="#m3e89cf4844" x="859.418475" y="430.92" style="stroke: #000000"/>
     <use xlink:href="#m3e89cf4844" x="864.387546" y="430.92" style="stroke: #000000"/>
     <use xlink:href="#m3e89cf4844" x="869.356618" y="78.12" style="stroke: #000000"/>
     <use xlink:href="#m3e89cf4844" x="874.325689" y="430.92" style="stroke: #000000"/>
     <use xlink:href="#m3e89cf4844" x="879.455053" y="430.92" style="stroke: #000000"/>
     <use xlink:href="#m3e89cf4844" x="884.424124" y="78.12" style="stroke: #000000"/>
     <use xlink:href="#m3e89cf4844" x="889.393196" y="430.92" style="stroke: #000000"/>
     <use xlink:href="#m3e89cf4844" x="894.362267" y="78.12" style="stroke: #000000"/>
     <use xlink:href="#m3e89cf4844" x="899.491631" y="430.92" style="stroke: #000000"/>
     <use xlink:href="#m3e89cf4844" x="904.460702" y="430.92" style="stroke: #000000"/>
     <use xlink:href="#m3e89cf4844" x="909.429774" y="78.12" style="stroke: #000000"/>
     <use xlink:href="#m3e89cf4844" x="914.398845" y="430.92" style="stroke: #000000"/>
     <use xlink:href="#m3e89cf4844" x="919.528209" y="430.92" style="stroke: #000000"/>
     <use xlink:href="#m3e89cf4844" x="924.497281" y="78.12" style="stroke: #000000"/>
     <use xlink:href="#m3e89cf4844" x="929.466352" y="430.92" style="stroke: #000000"/>
    </g>
   </g>
   <g id="patch_3">
    <path d="M 135 448.56 
L 135 60.48 
" style="fill: none; stroke: #000000; stroke-width: 0.8; stroke-linejoin: miter; stroke-linecap: square"/>
   </g>
   <g id="patch_4">
    <path d="M 972 448.56 
L 972 60.48 
" style="fill: none; stroke: #000000; stroke-width: 0.8; stroke-linejoin: miter; stroke-linecap: square"/>
   </g>
   <g id="patch_5">
    <path d="M 135 448.56 
L 972 448.56 
" style="fill: none; stroke: #000000; stroke-width: 0.8; stroke-linejoin: miter; stroke-linecap: square"/>
   </g>
   <g id="patch_6">
    <path d="M 135 60.48 
L 972 60.48 
" style="fill: none; stroke: #000000; stroke-width: 0.8; stroke-linejoin: miter; stroke-linecap: square"/>
   </g>
   <g id="legend_1">
    <g id="patch_7">
     <path d="M 142 278.315313 
L 211.084375 278.315313 
Q 213.084375 278.315313 213.084375 276.315313 
L 213.084375 232.724688 
Q 213.084375 230.724688 211.084375 230.724688 
L 142 230.724688 
Q 140 230.724688 140 232.724688 
L 140 276.315313 
Q 140 278.315313 142 278.315313 
z
" style="fill: #ffffff; opacity: 0.8; stroke: #cccccc; stroke-linejoin: miter"/>
    </g>
    <g id="line2d_15">
     <path d="M 144 238.823125 
L 154 238.823125 
L 164 238.823125 
" style="fill: none; stroke: #1f77b4; stroke-width: 1.5; stroke-linecap: square"/>
    </g>
    <g id="text_13">
     <!-- nw_0 -->
     <g transform="translate(172 242.323125) scale(0.1 -0.1)">
      <defs>
       <path id="DejaVuSans-6e" d="M 3513 2113 
L 3513 0 
L 2938 0 
L 2938 2094 
Q 2938 2591 2744 2837 
Q 2550 3084 2163 3084 
Q 1697 3084 1428 2787 
Q 1159 2491 1159 1978 
L 1159 0 
L 581 0 
L 581 3500 
L 1159 3500 
L 1159 2956 
Q 1366 3272 1645 3428 
Q 1925 3584 2291 3584 
Q 2894 3584 3203 3211 
Q 3513 2838 3513 2113 
z
" transform="scale(0.015625)"/>
       <path id="DejaVuSans-77" d="M 269 3500 
L 844 3500 
L 1563 769 
L 2278 3500 
L 2956 3500 
L 3675 769 
L 4391 3500 
L 4966 3500 
L 4050 0 
L 3372 0 
L 2619 2869 
L 1863 0 
L 1184 0 
L 269 3500 
z
" transform="scale(0.015625)"/>
       <path id="DejaVuSans-5f" d="M 3263 -1063 
L 3263 -1509 
L -63 -1509 
L -63 -1063 
L 3263 -1063 
z
" transform="scale(0.015625)"/>
      </defs>
      <use xlink:href="#DejaVuSans-6e"/>
      <use xlink:href="#DejaVuSans-77" x="63.378906"/>
      <use xlink:href="#DejaVuSans-5f" x="145.166016"/>
      <use xlink:href="#DejaVuSans-30" x="195.166016"/>
     </g>
    </g>
    <g id="line2d_16">
     <path d="M 144 253.779375 
L 154 253.779375 
L 164 253.779375 
" style="fill: none; stroke: #ff7f0e; stroke-width: 1.5; stroke-linecap: square"/>
    </g>
    <g id="text_14">
     <!-- input_0 -->
     <g transform="translate(172 257.279375) scale(0.1 -0.1)">
      <defs>
       <path id="DejaVuSans-69" d="M 603 3500 
L 1178 3500 
L 1178 0 
L 603 0 
L 603 3500 
z
M 603 4863 
L 1178 4863 
L 1178 4134 
L 603 4134 
L 603 4863 
z
" transform="scale(0.015625)"/>
       <path id="DejaVuSans-70" d="M 1159 525 
L 1159 -1331 
L 581 -1331 
L 581 3500 
L 1159 3500 
L 1159 2969 
Q 1341 3281 1617 3432 
Q 1894 3584 2278 3584 
Q 2916 3584 3314 3078 
Q 3713 2572 3713 1747 
Q 3713 922 3314 415 
Q 2916 -91 2278 -91 
Q 1894 -91 1617 61 
Q 1341 213 1159 525 
z
M 3116 1747 
Q 3116 2381 2855 2742 
Q 2594 3103 2138 3103 
Q 1681 3103 1420 2742 
Q 1159 2381 1159 1747 
Q 1159 1113 1420 752 
Q 1681 391 2138 391 
Q 2594 391 2855 752 
Q 3116 1113 3116 1747 
z
" transform="scale(0.015625)"/>
       <path id="DejaVuSans-75" d="M 544 1381 
L 544 3500 
L 1119 3500 
L 1119 1403 
Q 1119 906 1312 657 
Q 1506 409 1894 409 
Q 2359 409 2629 706 
Q 2900 1003 2900 1516 
L 2900 3500 
L 3475 3500 
L 3475 0 
L 2900 0 
L 2900 538 
Q 2691 219 2414 64 
Q 2138 -91 1772 -91 
Q 1169 -91 856 284 
Q 544 659 544 1381 
z
M 1991 3584 
L 1991 3584 
z
" transform="scale(0.015625)"/>
      </defs>
      <use xlink:href="#DejaVuSans-69"/>
      <use xlink:href="#DejaVuSans-6e" x="27.783203"/>
      <use xlink:href="#DejaVuSans-70" x="91.162109"/>
      <use xlink:href="#DejaVuSans-75" x="154.638672"/>
      <use xlink:href="#DejaVuSans-74" x="218.017578"/>
      <use xlink:href="#DejaVuSans-5f" x="257.226562"/>
      <use xlink:href="#DejaVuSans-30" x="307.226562"/>
     </g>
    </g>
    <g id="line2d_17">
     <path d="M 144 268.735625 
L 154 268.735625 
L 164 268.735625 
" style="fill: none; stroke: #000000; stroke-width: 1.5; stroke-linecap: square"/>
     <g>
      <use xlink:href="#m3e89cf4844" x="154" y="268.735625" style="stroke: #000000"/>
     </g>
    </g>
    <g id="text_15">
     <!-- target -->
     <g transform="translate(172 272.235625) scale(0.1 -0.1)">
      <defs>
       <path id="DejaVuSans-61" d="M 2194 1759 
Q 1497 1759 1228 1600 
Q 959 1441 959 1056 
Q 959 750 1161 570 
Q 1363 391 1709 391 
Q 2188 391 2477 730 
Q 2766 1069 2766 1631 
L 2766 1759 
L 2194 1759 
z
M 3341 1997 
L 3341 0 
L 2766 0 
L 2766 531 
Q 2569 213 2275 61 
Q 1981 -91 1556 -91 
Q 1019 -91 701 211 
Q 384 513 384 1019 
Q 384 1609 779 1909 
Q 1175 2209 1959 2209 
L 2766 2209 
L 2766 2266 
Q 2766 2663 2505 2880 
Q 2244 3097 1772 3097 
Q 1472 3097 1187 3025 
Q 903 2953 641 2809 
L 641 3341 
Q 956 3463 1253 3523 
Q 1550 3584 1831 3584 
Q 2591 3584 2966 3190 
Q 3341 2797 3341 1997 
z
" transform="scale(0.015625)"/>
       <path id="DejaVuSans-72" d="M 2631 2963 
Q 2534 3019 2420 3045 
Q 2306 3072 2169 3072 
Q 1681 3072 1420 2755 
Q 1159 2438 1159 1844 
L 1159 0 
L 581 0 
L 581 3500 
L 1159 3500 
L 1159 2956 
Q 1341 3275 1631 3429 
Q 1922 3584 2338 3584 
Q 2397 3584 2469 3576 
Q 2541 3569 2628 3553 
L 2631 2963 
z
" transform="scale(0.015625)"/>
       <path id="DejaVuSans-67" d="M 2906 1791 
Q 2906 2416 2648 2759 
Q 2391 3103 1925 3103 
Q 1463 3103 1205 2759 
Q 947 2416 947 1791 
Q 947 1169 1205 825 
Q 1463 481 1925 481 
Q 2391 481 2648 825 
Q 2906 1169 2906 1791 
z
M 3481 434 
Q 3481 -459 3084 -895 
Q 2688 -1331 1869 -1331 
Q 1566 -1331 1297 -1286 
Q 1028 -1241 775 -1147 
L 775 -588 
Q 1028 -725 1275 -790 
Q 1522 -856 1778 -856 
Q 2344 -856 2625 -561 
Q 2906 -266 2906 331 
L 2906 616 
Q 2728 306 2450 153 
Q 2172 0 1784 0 
Q 1141 0 747 490 
Q 353 981 353 1791 
Q 353 2603 747 3093 
Q 1141 3584 1784 3584 
Q 2172 3584 2450 3431 
Q 2728 3278 2906 2969 
L 2906 3500 
L 3481 3500 
L 3481 434 
z
" transform="scale(0.015625)"/>
       <path id="DejaVuSans-65" d="M 3597 1894 
L 3597 1613 
L 953 1613 
Q 991 1019 1311 708 
Q 1631 397 2203 397 
Q 2534 397 2845 478 
Q 3156 559 3463 722 
L 3463 178 
Q 3153 47 2828 -22 
Q 2503 -91 2169 -91 
Q 1331 -91 842 396 
Q 353 884 353 1716 
Q 353 2575 817 3079 
Q 1281 3584 2069 3584 
Q 2775 3584 3186 3129 
Q 3597 2675 3597 1894 
z
M 3022 2063 
Q 3016 2534 2758 2815 
Q 2500 3097 2075 3097 
Q 1594 3097 1305 2825 
Q 1016 2553 972 2059 
L 3022 2063 
z
" transform="scale(0.015625)"/>
      </defs>
      <use xlink:href="#DejaVuSans-74"/>
      <use xlink:href="#DejaVuSans-61" x="39.208984"/>
      <use xlink:href="#DejaVuSans-72" x="100.488281"/>
      <use xlink:href="#DejaVuSans-67" x="139.851562"/>
      <use xlink:href="#DejaVuSans-65" x="203.328125"/>
      <use xlink:href="#DejaVuSans-74" x="264.851562"/>
     </g>
    </g>
   </g>
  </g>
 </g>
 <defs>
  <clipPath id="pe8add85d90">
   <rect x="135" y="60.48" width="837" height="388.08"/>
  </clipPath>
 </defs>
</svg>
