<?xml version="1.0" encoding="utf-8" standalone="no"?>
<!DOCTYPE svg PUBLIC "-//W3C//DTD SVG 1.1//EN"
  "http://www.w3.org/Graphics/SVG/1.1/DTD/svg11.dtd">
<svg xmlns:xlink="http://www.w3.org/1999/xlink" width="1080pt" height="504pt" viewBox="0 0 1080 504" xmlns="http://www.w3.org/2000/svg" version="1.1">
 <metadata>
  <rdf:RDF xmlns:dc="http://purl.org/dc/elements/1.1/" xmlns:cc="http://creativecommons.org/ns#" xmlns:rdf="http://www.w3.org/1999/02/22-rdf-syntax-ns#">
   <cc:Work>
    <dc:type rdf:resource="http://purl.org/dc/dcmitype/StillImage"/>
    <dc:date>2024-05-09T11:11:20.826664</dc:date>
    <dc:format>image/svg+xml</dc:format>
    <dc:creator>
     <cc:Agent>
      <dc:title>Matplotlib v3.7.1, https://matplotlib.org/</dc:title>
     </cc:Agent>
    </dc:creator>
   </cc:Work>
  </rdf:RDF>
 </metadata>
 <defs>
  <style type="text/css">*{stroke-linejoin: round; stroke-linecap: butt}</style>
 </defs>
 <g id="figure_1">
  <g id="patch_1">
   <path d="M 0 504 
L 1080 504 
L 1080 0 
L 0 0 
z
" style="fill: #ffffff"/>
  </g>
  <g id="axes_1">
   <g id="patch_2">
    <path d="M 135 448.56 
L 972 448.56 
L 972 60.48 
L 135 60.48 
z
" style="fill: #ffffff"/>
   </g>
   <g id="matplotlib.axis_1">
    <g id="xtick_1">
     <g id="line2d_1">
      <defs>
       <path id="m4dc8e6c223" d="M 0 0 
L 0 3.5 
" style="stroke: #000000; stroke-width: 0.8"/>
      </defs>
      <g>
       <use xlink:href="#m4dc8e6c223" x="173.045455" y="448.56" style="stroke: #000000; stroke-width: 0.8"/>
      </g>
     </g>
     <g id="text_1">
      <!-- 0 -->
      <g transform="translate(169.864205 463.158437) scale(0.1 -0.1)">
       <defs>
        <path id="DejaVuSans-30" d="M 2034 4250 
Q 1547 4250 1301 3770 
Q 1056 3291 1056 2328 
Q 1056 1369 1301 889 
Q 1547 409 2034 409 
Q 2525 409 2770 889 
Q 3016 1369 3016 2328 
Q 3016 3291 2770 3770 
Q 2525 4250 2034 4250 
z
M 2034 4750 
Q 2819 4750 3233 4129 
Q 3647 3509 3647 2328 
Q 3647 1150 3233 529 
Q 2819 -91 2034 -91 
Q 1250 -91 836 529 
Q 422 1150 422 2328 
Q 422 3509 836 4129 
Q 1250 4750 2034 4750 
z
" transform="scale(0.015625)"/>
       </defs>
       <use xlink:href="#DejaVuSans-30"/>
      </g>
     </g>
    </g>
    <g id="xtick_2">
     <g id="line2d_2">
      <g>
       <use xlink:href="#m4dc8e6c223" x="333.33808" y="448.56" style="stroke: #000000; stroke-width: 0.8"/>
      </g>
     </g>
     <g id="text_2">
      <!-- 1000 -->
      <g transform="translate(320.61308 463.158437) scale(0.1 -0.1)">
       <defs>
        <path id="DejaVuSans-31" d="M 794 531 
L 1825 531 
L 1825 4091 
L 703 3866 
L 703 4441 
L 1819 4666 
L 2450 4666 
L 2450 531 
L 3481 531 
L 3481 0 
L 794 0 
L 794 531 
z
" transform="scale(0.015625)"/>
       </defs>
       <use xlink:href="#DejaVuSans-31"/>
       <use xlink:href="#DejaVuSans-30" x="63.623047"/>
       <use xlink:href="#DejaVuSans-30" x="127.246094"/>
       <use xlink:href="#DejaVuSans-30" x="190.869141"/>
      </g>
     </g>
    </g>
    <g id="xtick_3">
     <g id="line2d_3">
      <g>
       <use xlink:href="#m4dc8e6c223" x="493.630705" y="448.56" style="stroke: #000000; stroke-width: 0.8"/>
      </g>
     </g>
     <g id="text_3">
      <!-- 2000 -->
      <g transform="translate(480.905705 463.158437) scale(0.1 -0.1)">
       <defs>
        <path id="DejaVuSans-32" d="M 1228 531 
L 3431 531 
L 3431 0 
L 469 0 
L 469 531 
Q 828 903 1448 1529 
Q 2069 2156 2228 2338 
Q 2531 2678 2651 2914 
Q 2772 3150 2772 3378 
Q 2772 3750 2511 3984 
Q 2250 4219 1831 4219 
Q 1534 4219 1204 4116 
Q 875 4013 500 3803 
L 500 4441 
Q 881 4594 1212 4672 
Q 1544 4750 1819 4750 
Q 2544 4750 2975 4387 
Q 3406 4025 3406 3419 
Q 3406 3131 3298 2873 
Q 3191 2616 2906 2266 
Q 2828 2175 2409 1742 
Q 1991 1309 1228 531 
z
" transform="scale(0.015625)"/>
       </defs>
       <use xlink:href="#DejaVuSans-32"/>
       <use xlink:href="#DejaVuSans-30" x="63.623047"/>
       <use xlink:href="#DejaVuSans-30" x="127.246094"/>
       <use xlink:href="#DejaVuSans-30" x="190.869141"/>
      </g>
     </g>
    </g>
    <g id="xtick_4">
     <g id="line2d_4">
      <g>
       <use xlink:href="#m4dc8e6c223" x="653.92333" y="448.56" style="stroke: #000000; stroke-width: 0.8"/>
      </g>
     </g>
     <g id="text_4">
      <!-- 3000 -->
      <g transform="translate(641.19833 463.158437) scale(0.1 -0.1)">
       <defs>
        <path id="DejaVuSans-33" d="M 2597 2516 
Q 3050 2419 3304 2112 
Q 3559 1806 3559 1356 
Q 3559 666 3084 287 
Q 2609 -91 1734 -91 
Q 1441 -91 1130 -33 
Q 819 25 488 141 
L 488 750 
Q 750 597 1062 519 
Q 1375 441 1716 441 
Q 2309 441 2620 675 
Q 2931 909 2931 1356 
Q 2931 1769 2642 2001 
Q 2353 2234 1838 2234 
L 1294 2234 
L 1294 2753 
L 1863 2753 
Q 2328 2753 2575 2939 
Q 2822 3125 2822 3475 
Q 2822 3834 2567 4026 
Q 2313 4219 1838 4219 
Q 1578 4219 1281 4162 
Q 984 4106 628 3988 
L 628 4550 
Q 988 4650 1302 4700 
Q 1616 4750 1894 4750 
Q 2613 4750 3031 4423 
Q 3450 4097 3450 3541 
Q 3450 3153 3228 2886 
Q 3006 2619 2597 2516 
z
" transform="scale(0.015625)"/>
       </defs>
       <use xlink:href="#DejaVuSans-33"/>
       <use xlink:href="#DejaVuSans-30" x="63.623047"/>
       <use xlink:href="#DejaVuSans-30" x="127.246094"/>
       <use xlink:href="#DejaVuSans-30" x="190.869141"/>
      </g>
     </g>
    </g>
    <g id="xtick_5">
     <g id="line2d_5">
      <g>
       <use xlink:href="#m4dc8e6c223" x="814.215955" y="448.56" style="stroke: #000000; stroke-width: 0.8"/>
      </g>
     </g>
     <g id="text_5">
      <!-- 4000 -->
      <g transform="translate(801.490955 463.158437) scale(0.1 -0.1)">
       <defs>
        <path id="DejaVuSans-34" d="M 2419 4116 
L 825 1625 
L 2419 1625 
L 2419 4116 
z
M 2253 4666 
L 3047 4666 
L 3047 1625 
L 3713 1625 
L 3713 1100 
L 3047 1100 
L 3047 0 
L 2419 0 
L 2419 1100 
L 313 1100 
L 313 1709 
L 2253 4666 
z
" transform="scale(0.015625)"/>
       </defs>
       <use xlink:href="#DejaVuSans-34"/>
       <use xlink:href="#DejaVuSans-30" x="63.623047"/>
       <use xlink:href="#DejaVuSans-30" x="127.246094"/>
       <use xlink:href="#DejaVuSans-30" x="190.869141"/>
      </g>
     </g>
    </g>
    <g id="text_6">
     <!-- t -->
     <g transform="translate(551.539844 476.836563) scale(0.1 -0.1)">
      <defs>
       <path id="DejaVuSans-74" d="M 1172 4494 
L 1172 3500 
L 2356 3500 
L 2356 3053 
L 1172 3053 
L 1172 1153 
Q 1172 725 1289 603 
Q 1406 481 1766 481 
L 2356 481 
L 2356 0 
L 1766 0 
Q 1100 0 847 248 
Q 594 497 594 1153 
L 594 3053 
L 172 3053 
L 172 3500 
L 594 3500 
L 594 4494 
L 1172 4494 
z
" transform="scale(0.015625)"/>
      </defs>
      <use xlink:href="#DejaVuSans-74"/>
     </g>
    </g>
   </g>
   <g id="matplotlib.axis_2">
    <g id="ytick_1">
     <g id="line2d_6">
      <defs>
       <path id="m998af8529f" d="M 0 0 
L -3.5 0 
" style="stroke: #000000; stroke-width: 0.8"/>
      </defs>
      <g>
       <use xlink:href="#m998af8529f" x="135" y="402.094015" style="stroke: #000000; stroke-width: 0.8"/>
      </g>
     </g>
     <g id="text_7">
      <!-- −0.2 -->
      <g transform="translate(103.717187 405.893234) scale(0.1 -0.1)">
       <defs>
        <path id="DejaVuSans-2212" d="M 678 2272 
L 4684 2272 
L 4684 1741 
L 678 1741 
L 678 2272 
z
" transform="scale(0.015625)"/>
        <path id="DejaVuSans-2e" d="M 684 794 
L 1344 794 
L 1344 0 
L 684 0 
L 684 794 
z
" transform="scale(0.015625)"/>
       </defs>
       <use xlink:href="#DejaVuSans-2212"/>
       <use xlink:href="#DejaVuSans-30" x="83.789062"/>
       <use xlink:href="#DejaVuSans-2e" x="147.412109"/>
       <use xlink:href="#DejaVuSans-32" x="179.199219"/>
      </g>
     </g>
    </g>
    <g id="ytick_2">
     <g id="line2d_7">
      <g>
       <use xlink:href="#m998af8529f" x="135" y="352.552006" style="stroke: #000000; stroke-width: 0.8"/>
      </g>
     </g>
     <g id="text_8">
      <!-- 0.0 -->
      <g transform="translate(112.096875 356.351225) scale(0.1 -0.1)">
       <use xlink:href="#DejaVuSans-30"/>
       <use xlink:href="#DejaVuSans-2e" x="63.623047"/>
       <use xlink:href="#DejaVuSans-30" x="95.410156"/>
      </g>
     </g>
    </g>
    <g id="ytick_3">
     <g id="line2d_8">
      <g>
       <use xlink:href="#m998af8529f" x="135" y="303.009997" style="stroke: #000000; stroke-width: 0.8"/>
      </g>
     </g>
     <g id="text_9">
      <!-- 0.2 -->
      <g transform="translate(112.096875 306.809216) scale(0.1 -0.1)">
       <use xlink:href="#DejaVuSans-30"/>
       <use xlink:href="#DejaVuSans-2e" x="63.623047"/>
       <use xlink:href="#DejaVuSans-32" x="95.410156"/>
      </g>
     </g>
    </g>
    <g id="ytick_4">
     <g id="line2d_9">
      <g>
       <use xlink:href="#m998af8529f" x="135" y="253.467988" style="stroke: #000000; stroke-width: 0.8"/>
      </g>
     </g>
     <g id="text_10">
      <!-- 0.4 -->
      <g transform="translate(112.096875 257.267207) scale(0.1 -0.1)">
       <use xlink:href="#DejaVuSans-30"/>
       <use xlink:href="#DejaVuSans-2e" x="63.623047"/>
       <use xlink:href="#DejaVuSans-34" x="95.410156"/>
      </g>
     </g>
    </g>
    <g id="ytick_5">
     <g id="line2d_10">
      <g>
       <use xlink:href="#m998af8529f" x="135" y="203.925979" style="stroke: #000000; stroke-width: 0.8"/>
      </g>
     </g>
     <g id="text_11">
      <!-- 0.6 -->
      <g transform="translate(112.096875 207.725198) scale(0.1 -0.1)">
       <defs>
        <path id="DejaVuSans-36" d="M 2113 2584 
Q 1688 2584 1439 2293 
Q 1191 2003 1191 1497 
Q 1191 994 1439 701 
Q 1688 409 2113 409 
Q 2538 409 2786 701 
Q 3034 994 3034 1497 
Q 3034 2003 2786 2293 
Q 2538 2584 2113 2584 
z
M 3366 4563 
L 3366 3988 
Q 3128 4100 2886 4159 
Q 2644 4219 2406 4219 
Q 1781 4219 1451 3797 
Q 1122 3375 1075 2522 
Q 1259 2794 1537 2939 
Q 1816 3084 2150 3084 
Q 2853 3084 3261 2657 
Q 3669 2231 3669 1497 
Q 3669 778 3244 343 
Q 2819 -91 2113 -91 
Q 1303 -91 875 529 
Q 447 1150 447 2328 
Q 447 3434 972 4092 
Q 1497 4750 2381 4750 
Q 2619 4750 2861 4703 
Q 3103 4656 3366 4563 
z
" transform="scale(0.015625)"/>
       </defs>
       <use xlink:href="#DejaVuSans-30"/>
       <use xlink:href="#DejaVuSans-2e" x="63.623047"/>
       <use xlink:href="#DejaVuSans-36" x="95.410156"/>
      </g>
     </g>
    </g>
    <g id="ytick_6">
     <g id="line2d_11">
      <g>
       <use xlink:href="#m998af8529f" x="135" y="154.38397" style="stroke: #000000; stroke-width: 0.8"/>
      </g>
     </g>
     <g id="text_12">
      <!-- 0.8 -->
      <g transform="translate(112.096875 158.183189) scale(0.1 -0.1)">
       <defs>
        <path id="DejaVuSans-38" d="M 2034 2216 
Q 1584 2216 1326 1975 
Q 1069 1734 1069 1313 
Q 1069 891 1326 650 
Q 1584 409 2034 409 
Q 2484 409 2743 651 
Q 3003 894 3003 1313 
Q 3003 1734 2745 1975 
Q 2488 2216 2034 2216 
z
M 1403 2484 
Q 997 2584 770 2862 
Q 544 3141 544 3541 
Q 544 4100 942 4425 
Q 1341 4750 2034 4750 
Q 2731 4750 3128 4425 
Q 3525 4100 3525 3541 
Q 3525 3141 3298 2862 
Q 3072 2584 2669 2484 
Q 3125 2378 3379 2068 
Q 3634 1759 3634 1313 
Q 3634 634 3220 271 
Q 2806 -91 2034 -91 
Q 1263 -91 848 271 
Q 434 634 434 1313 
Q 434 1759 690 2068 
Q 947 2378 1403 2484 
z
M 1172 3481 
Q 1172 3119 1398 2916 
Q 1625 2713 2034 2713 
Q 2441 2713 2670 2916 
Q 2900 3119 2900 3481 
Q 2900 3844 2670 4047 
Q 2441 4250 2034 4250 
Q 1625 4250 1398 4047 
Q 1172 3844 1172 3481 
z
" transform="scale(0.015625)"/>
       </defs>
       <use xlink:href="#DejaVuSans-30"/>
       <use xlink:href="#DejaVuSans-2e" x="63.623047"/>
       <use xlink:href="#DejaVuSans-38" x="95.410156"/>
      </g>
     </g>
    </g>
    <g id="ytick_7">
     <g id="line2d_12">
      <g>
       <use xlink:href="#m998af8529f" x="135" y="104.841961" style="stroke: #000000; stroke-width: 0.8"/>
      </g>
     </g>
     <g id="text_13">
      <!-- 1.0 -->
      <g transform="translate(112.096875 108.64118) scale(0.1 -0.1)">
       <use xlink:href="#DejaVuSans-31"/>
       <use xlink:href="#DejaVuSans-2e" x="63.623047"/>
       <use xlink:href="#DejaVuSans-30" x="95.410156"/>
      </g>
     </g>
    </g>
   </g>
   <g id="line2d_13">
    <path d="M 173.045455 242.160673 
L 173.36604 149.32644 
L 173.526332 134.879374 
L 173.686625 130.706172 
L 173.846918 132.604428 
L 174.167503 145.079497 
L 174.808673 172.564176 
L 175.129259 179.753364 
L 175.289551 181.307891 
L 175.449844 181.597384 
L 175.610137 180.748884 
L 175.930722 176.234775 
L 176.4116 164.591989 
L 177.213063 138.664537 
L 177.693941 120.515287 
L 178.014526 254.067871 
L 178.335111 307.971628 
L 178.655696 332.524599 
L 179.136574 351.615697 
L 179.777745 366.015053 
L 180.579208 382.648931 
L 181.380671 405.900343 
L 182.021842 423.287684 
L 182.342427 428.734071 
L 182.663012 430.92 
L 182.823305 430.640153 
L 182.983597 429.407212 
L 183.304183 424.088226 
L 183.78506 409.444531 
L 184.426231 380.057257 
L 187.151206 237.789374 
L 187.792376 218.017226 
L 188.273254 207.974332 
L 188.754132 201.749411 
L 189.074717 199.511959 
L 189.395302 198.628649 
L 189.555595 198.643948 
L 189.715888 198.936016 
L 190.036473 200.266344 
L 190.517351 203.816761 
L 191.158521 210.630492 
L 192.601155 229.567483 
L 193.883496 245.342715 
L 194.845252 254.755416 
L 195.646715 260.818168 
L 196.448178 265.409413 
L 197.249641 268.78833 
L 198.051104 271.25116 
L 198.852567 273.082168 
L 199.974616 275.039916 
L 203.501053 280.687517 
L 205.10398 283.913989 
L 207.027491 288.328425 
L 210.553929 297.134797 
L 213.278903 303.891251 
L 213.599489 133.149561 
L 213.920074 87.070154 
L 214.080367 82.233532 
L 214.240659 83.250077 
L 214.561244 94.447078 
L 215.683293 144.096688 
L 216.003878 151.028313 
L 216.324463 154.051122 
L 216.484756 154.254919 
L 216.645049 153.68543 
L 216.965634 150.499806 
L 217.446512 141.367949 
L 217.92739 127.606968 
L 218.087682 122.002341 
L 218.408267 255.643979 
L 218.728853 309.974679 
L 219.049438 333.213787 
L 219.370023 344.253184 
L 219.690608 349.798213 
L 220.171486 353.8726 
L 220.652364 358.181725 
L 220.972949 363.146958 
L 221.453827 374.420197 
L 222.736168 407.866122 
L 223.056754 411.174504 
L 223.217046 411.532467 
L 223.377339 410.976247 
L 223.697924 407.095604 
L 224.018509 399.661935 
L 224.499387 382.705392 
L 225.30085 343.859792 
L 227.064069 253.861285 
L 227.865532 225.190108 
L 228.506703 210.092599 
L 228.987581 203.186534 
L 229.308166 200.497651 
L 229.628751 199.182802 
L 229.789044 198.993361 
L 229.949336 199.089518 
L 230.269922 200.057786 
L 230.590507 201.925817 
L 231.071385 206.06935 
L 231.872848 215.339149 
L 234.597823 248.980457 
L 235.559578 257.42611 
L 236.361041 262.744442 
L 237.162505 266.710819 
L 237.963968 269.605827 
L 238.765431 271.722876 
L 239.727187 273.609644 
L 241.16982 275.841884 
L 243.093332 278.835604 
L 244.535965 281.498943 
L 246.138892 284.921906 
L 248.382988 290.294832 
L 253.99323 304.339941 
L 254.313815 133.595115 
L 254.634401 87.527255 
L 254.794693 82.708306 
L 254.954986 83.747502 
L 255.275571 94.990911 
L 256.39762 144.617555 
L 256.718205 151.492248 
L 257.03879 154.450958 
L 257.199083 154.622484 
L 257.359375 154.021605 
L 257.679961 150.778016 
L 258.160838 141.57598 
L 258.641716 127.767038 
L 258.802009 122.151033 
L 259.122594 255.782994 
L 259.443179 310.098462 
L 259.763765 333.341477 
L 260.08435 344.403083 
L 260.404935 349.980571 
L 260.885813 354.10593 
L 261.366691 358.454296 
L 261.687276 363.435715 
L 262.168154 374.718074 
L 263.450495 408.123704 
L 263.77108 411.413669 
L 263.931373 411.761855 
L 264.091666 411.195607 
L 264.412251 407.294483 
L 264.732836 399.840232 
L 265.213714 382.85359 
L 266.015177 343.962383 
L 267.778396 253.892306 
L 268.579859 225.201726 
L 269.22103 210.093615 
L 269.701907 203.181998 
L 270.022493 200.490385 
L 270.343078 199.17348 
L 270.503371 198.983237 
L 270.663663 199.07873 
L 270.984248 200.046042 
L 271.304834 201.913552 
L 271.785712 206.056971 
L 272.587175 215.32786 
L 275.312149 248.976975 
L 276.273905 257.425102 
L 277.075368 262.745111 
L 277.876831 266.712808 
L 278.678294 269.608809 
L 279.479758 271.726572 
L 280.441513 273.613901 
L 281.884147 275.846553 
L 283.807658 278.840356 
L 285.250292 281.503593 
L 286.853218 284.926379 
L 289.097315 290.299027 
L 293.585509 301.604314 
L 293.906094 130.879909 
L 294.226679 84.745727 
L 294.386972 79.822271 
L 294.547264 80.727161 
L 294.86785 91.695859 
L 295.989898 141.480368 
L 296.310483 148.703027 
L 296.631068 152.052254 
L 296.791361 152.42012 
L 296.951654 152.010125 
L 297.272239 149.118832 
L 297.592824 143.813208 
L 298.073702 131.847804 
L 298.394287 121.279182 
L 298.714873 254.970448 
L 299.035458 309.376826 
L 299.356043 332.59456 
L 299.676628 343.520481 
L 299.997214 348.90074 
L 300.478091 352.717048 
L 300.798677 355.13083 
L 301.119262 359.0016 
L 301.60014 368.731257 
L 303.203066 408.693113 
L 303.523651 410.386453 
L 303.683944 409.880018 
L 304.004529 406.101114 
L 304.325114 398.769755 
L 304.805992 381.96293 
L 305.607455 343.344432 
L 307.370674 253.703095 
L 308.172137 225.129067 
L 308.813308 210.084796 
L 309.294186 203.206706 
L 309.614771 200.531627 
L 309.935356 199.227218 
L 310.095649 199.041866 
L 310.255942 199.141427 
L 310.576527 200.114639 
L 310.897112 201.985436 
L 311.37799 206.129776 
L 312.179453 215.394479 
L 314.904428 248.997572 
L 315.866183 257.431012 
L 316.667647 262.741053 
L 317.46911 266.700896 
L 318.270573 269.590981 
L 319.072036 271.704488 
L 320.033792 273.588468 
L 321.476425 275.818663 
L 323.399937 278.811968 
L 324.84257 281.475815 
L 326.445497 284.899654 
L 328.689593 290.273962 
L 333.818957 303.156819 
L 334.139543 132.421352 
L 334.460128 86.32659 
L 334.620421 81.46403 
L 334.780713 82.447116 
L 335.101298 93.576354 
L 336.223347 143.284234 
L 336.543932 150.310864 
L 336.864517 153.439048 
L 337.02481 153.695519 
L 337.185103 153.177086 
L 337.505688 150.085315 
L 337.986566 141.06634 
L 338.467444 127.381788 
L 338.627736 121.795115 
L 338.948321 255.451692 
L 339.268907 309.805078 
L 339.589492 333.036218 
L 339.910077 344.038679 
L 340.230662 349.530656 
L 340.71154 353.522044 
L 341.032126 356.03189 
L 341.352711 359.972161 
L 341.833589 369.752786 
L 343.436515 409.547716 
L 343.596808 410.802116 
L 343.7571 411.174964 
L 343.917393 410.634048 
L 344.237978 406.784756 
L 344.558563 399.382694 
L 345.039441 382.472518 
L 345.840904 343.697467 
L 347.604123 253.810438 
L 348.405586 225.169749 
L 349.046757 210.089018 
L 349.527635 203.191811 
L 349.84822 200.50732 
L 350.168805 199.195812 
L 350.329098 199.007687 
L 350.48939 199.104946 
L 350.809976 200.074833 
L 351.130561 201.9438 
L 351.611439 206.087685 
L 352.412902 215.356037 
L 355.137877 248.985705 
L 356.099632 257.427591 
L 356.901095 262.743358 
L 357.702559 266.707709 
L 358.504022 269.601187 
L 359.305485 271.717132 
L 360.267241 273.603029 
L 361.709874 275.834625 
L 363.633386 278.828208 
L 365.076019 281.491701 
L 366.678946 284.914933 
L 368.923042 290.288289 
L 373.090651 300.800443 
L 373.411236 130.08125 
L 373.731821 83.924935 
L 373.892114 78.968406 
L 374.052406 79.830885 
L 374.372992 90.711936 
L 375.49504 140.523449 
L 375.815625 147.846186 
L 376.13621 151.309293 
L 376.296503 151.734808 
L 376.456796 151.381066 
L 376.777381 148.594116 
L 377.097966 143.377732 
L 377.578844 131.513582 
L 377.899429 120.991467 
L 378.220015 254.701732 
L 378.5406 309.136913 
L 378.861185 332.348609 
L 379.18177 343.23534 
L 379.502356 348.557958 
L 379.983233 352.283929 
L 380.303819 354.648365 
L 380.624404 358.483737 
L 381.105282 368.188222 
L 382.708208 408.241907 
L 383.028793 409.97054 
L 383.189086 409.482474 
L 383.509671 405.741004 
L 383.830256 398.447177 
L 384.311134 381.695112 
L 385.112597 343.159384 
L 386.875816 253.64753 
L 387.677279 225.108511 
L 388.31845 210.083339 
L 388.799328 203.215234 
L 389.119913 200.545057 
L 389.440498 199.244331 
L 389.600791 199.060413 
L 389.761084 199.16116 
L 390.081669 200.136072 
L 390.402254 202.007784 
L 390.883132 206.152296 
L 391.684595 215.41498 
L 394.40957 249.003884 
L 395.371325 257.432847 
L 396.172789 262.739858 
L 396.974252 266.697319 
L 397.775715 269.585614 
L 398.577178 271.697836 
L 399.538934 273.580809 
L 400.981567 275.810273 
L 402.905079 278.80344 
L 404.347712 281.467477 
L 405.950639 284.891638 
L 408.194735 290.26645 
L 413.644685 303.929229 
L 413.96527 133.187757 
L 414.285855 87.11092 
L 414.446148 82.277152 
L 414.60644 83.297268 
L 414.927026 94.501975 
L 416.049074 144.159406 
L 416.369659 151.087129 
L 416.690245 154.104784 
L 416.850537 154.305803 
L 417.01083 153.733522 
L 417.331415 150.542528 
L 417.812293 141.403773 
L 418.293171 127.637678 
L 418.453463 122.031737 
L 418.774049 255.672047 
L 419.094634 310.000398 
L 419.415219 333.2391 
L 419.735804 344.28008 
L 420.05639 349.827842 
L 420.537268 353.90664 
L 421.018145 358.218937 
L 421.338731 363.185209 
L 421.819609 374.458375 
L 423.10195 407.897314 
L 423.422535 411.203131 
L 423.582827 411.559766 
L 423.74312 411.002202 
L 424.063705 407.11886 
L 424.384291 399.682527 
L 424.865168 382.72216 
L 425.666632 343.870904 
L 427.42985 253.863874 
L 428.231314 225.190506 
L 428.872484 210.091852 
L 429.353362 203.185218 
L 429.673947 200.496072 
L 429.994532 199.181039 
L 430.154825 198.991532 
L 430.315118 199.087639 
L 430.635703 200.05585 
L 430.956288 201.923874 
L 431.437166 206.067469 
L 432.238629 215.337507 
L 434.963604 248.979968 
L 435.92536 257.425952 
L 436.726823 262.744503 
L 437.528286 266.711049 
L 438.329749 269.606182 
L 439.131212 271.723319 
L 440.092968 273.610154 
L 441.535601 275.842441 
L 443.459113 278.836167 
L 444.901747 281.499491 
L 446.504673 284.922431 
L 448.74877 290.295322 
L 453.557548 302.390674 
L 453.878134 131.660824 
L 454.198719 85.547139 
L 454.359011 80.655003 
L 454.519304 81.600093 
L 454.839889 92.6515 
L 455.961938 142.401115 
L 456.282523 149.524925 
L 456.603108 152.762371 
L 456.763401 153.073826 
L 456.923693 152.608873 
L 457.244279 149.615871 
L 457.725157 140.716587 
L 458.206034 127.114026 
L 458.366327 121.546863 
L 458.686912 255.220236 
L 459.007498 309.599351 
L 459.328083 332.823595 
L 459.648668 343.788145 
L 459.969253 349.224925 
L 460.450131 353.12981 
L 460.770716 355.592125 
L 461.091302 359.497913 
L 461.57218 369.253008 
L 463.175106 409.128649 
L 463.495691 410.788184 
L 463.655984 410.264124 
L 463.976569 406.449264 
L 464.297154 399.081811 
L 464.778032 382.222254 
L 465.579495 343.523936 
L 467.342714 253.757458 
L 468.144177 225.149515 
L 468.785348 210.08671 
L 469.266226 203.19891 
L 469.586811 200.519056 
L 469.907396 199.211048 
L 470.067689 199.024293 
L 470.227981 199.122689 
L 470.548567 200.094224 
L 470.869152 201.964104 
L 471.35003 206.108233 
L 472.151493 215.374825 
L 474.876467 248.99151 
L 475.838223 257.42926 
L 476.639686 262.742221 
L 477.441149 266.704362 
L 478.242613 269.596176 
L 479.044076 271.710924 
L 480.005831 273.595879 
L 481.448465 275.826786 
L 483.371977 278.82023 
L 484.81461 281.483896 
L 486.417536 284.907425 
L 488.661633 290.281247 
L 493.630705 302.771499 
L 493.95129 132.038904 
L 494.271875 85.93478 
L 494.432168 81.057482 
L 494.59246 82.021628 
L 494.913046 93.112122 
L 496.035094 142.842097 
L 496.355679 149.917723 
L 496.676264 153.100906 
L 496.836557 153.385032 
L 496.99685 152.893486 
L 497.317435 149.851341 
L 497.798313 140.892446 
L 498.279191 127.248983 
L 498.439483 121.67207 
L 498.760069 255.337008 
L 499.080654 309.703215 
L 499.401239 332.930807 
L 499.721824 343.914162 
L 500.04241 349.378362 
L 500.523287 353.326222 
L 500.843873 355.812133 
L 501.164458 359.735013 
L 501.645336 369.502695 
L 503.248262 409.337744 
L 503.568847 410.981134 
L 503.72914 410.448649 
L 504.049725 406.616585 
L 504.37031 399.231845 
L 504.851188 382.347014 
L 505.652651 343.610398 
L 507.41587 253.78379 
L 508.217333 225.159525 
L 508.858504 210.087789 
L 509.339382 203.195305 
L 509.659967 200.513144 
L 509.980552 199.203395 
L 510.140845 199.015959 
L 510.301138 199.113791 
L 510.621723 200.084509 
L 510.942308 201.953938 
L 511.423186 206.097952 
L 512.224649 215.365431 
L 514.949624 248.988609 
L 515.911379 257.428424 
L 516.712843 262.742786 
L 517.514306 266.70603 
L 518.315769 269.598674 
L 519.117232 271.71402 
L 520.078988 273.599444 
L 521.521621 275.830695 
L 523.445133 278.824207 
L 524.887766 281.487786 
L 526.490693 284.911167 
L 528.734789 290.284756 
L 533.864153 303.165948 
L 534.184739 132.430397 
L 534.505324 86.335803 
L 534.665617 81.473547 
L 534.825909 82.457026 
L 535.146494 93.587056 
L 536.268543 143.294085 
L 536.589128 150.319524 
L 536.909713 153.446395 
L 537.070006 153.702213 
L 537.230299 153.183147 
L 537.550884 150.090215 
L 538.031762 141.06985 
L 538.51264 127.38436 
L 538.672932 121.797468 
L 538.993517 255.453865 
L 539.314103 309.806983 
L 539.634688 333.038232 
L 539.955273 344.041155 
L 540.275858 349.533791 
L 540.756736 353.526208 
L 541.077322 356.036624 
L 541.397907 359.977315 
L 541.878785 369.758271 
L 543.481711 409.552397 
L 543.642004 410.806626 
L 543.802296 411.179296 
L 543.962589 410.638197 
L 544.283174 406.788529 
L 544.603759 399.386087 
L 545.084637 382.475353 
L 545.8861 343.69945 
L 547.649319 253.81107 
L 548.450782 225.170011 
L 549.091953 210.089075 
L 549.572831 203.191759 
L 549.893416 200.507214 
L 550.214001 199.195664 
L 550.374294 199.007523 
L 550.534586 199.104768 
L 550.855172 200.074635 
L 551.175757 201.943589 
L 551.656635 206.087469 
L 552.458098 215.355837 
L 555.183073 248.985642 
L 556.144828 257.427573 
L 556.946291 262.743371 
L 557.747755 266.707747 
L 558.549218 269.601243 
L 559.350681 271.717202 
L 560.312437 273.603109 
L 561.75507 275.834713 
L 563.678582 278.828297 
L 565.121215 281.491789 
L 566.724142 284.915018 
L 568.968238 290.288368 
L 574.257895 303.559016 
L 574.57848 132.820437 
L 574.899065 86.735062 
L 575.059358 81.887545 
L 575.219651 82.889978 
L 575.540236 94.058674 
L 576.662284 143.740777 
L 576.98287 150.71597 
L 577.303455 153.786633 
L 577.463747 154.014235 
L 577.62404 153.467762 
L 577.944625 150.324307 
L 578.425503 141.242906 
L 578.906381 127.515814 
L 579.066674 121.919078 
L 579.387259 255.567131 
L 579.707844 309.907428 
L 580.028429 333.142471 
L 580.349015 344.164968 
L 580.6696 349.685977 
L 581.150478 353.722849 
L 581.471063 356.257749 
L 581.791648 360.216285 
L 582.272526 370.010666 
L 583.875452 409.764888 
L 584.035745 411.011138 
L 584.196038 411.375528 
L 584.35633 410.825928 
L 584.676916 406.958878 
L 584.997501 399.538945 
L 585.478379 382.602602 
L 586.279842 343.787828 
L 588.043061 253.838261 
L 588.844524 225.180546 
L 589.485694 210.090478 
L 589.966572 203.18836 
L 590.287157 200.501445 
L 590.607743 199.188101 
L 590.768035 198.999257 
L 590.928328 199.095916 
L 591.248913 200.064931 
L 591.569498 201.933407 
L 592.050376 206.077143 
L 592.851839 215.346376 
L 595.576814 248.982714 
L 596.53857 257.426736 
L 597.340033 262.743954 
L 598.141496 266.709449 
L 598.942959 269.603789 
L 599.744422 271.720355 
L 600.706178 273.606741 
L 602.148812 275.838697 
L 604.072323 278.832354 
L 605.514957 281.495759 
L 607.117883 284.918838 
L 609.36198 290.291951 
L 613.209003 300.004616 
L 613.529588 129.29015 
L 613.850173 83.110517 
L 614.010466 78.12 
L 614.170759 78.938949 
L 614.491344 89.729619 
L 615.613392 139.557916 
L 615.933977 146.978655 
L 616.254563 150.554093 
L 616.414855 151.036671 
L 616.575148 150.738718 
L 616.895733 148.055512 
L 617.216318 142.928154 
L 617.697196 131.165514 
L 618.017782 120.690378 
L 618.338367 254.420227 
L 618.658952 308.88499 
L 618.979537 332.09141 
L 619.300123 342.939666 
L 619.620708 348.205341 
L 620.101586 351.842059 
L 620.422171 354.15791 
L 620.742756 357.958665 
L 621.223634 367.639155 
L 622.82656 407.78803 
L 623.147146 409.55247 
L 623.307438 409.083011 
L 623.628023 405.379406 
L 623.948609 398.12349 
L 624.429487 381.426665 
L 625.23095 342.974291 
L 626.994169 253.592517 
L 627.795632 225.08857 
L 628.436802 210.082492 
L 628.91768 203.224348 
L 629.238265 200.559047 
L 629.558851 199.261978 
L 629.719143 199.079477 
L 629.879436 199.181394 
L 630.200021 200.157971 
L 630.520606 202.030563 
L 631.001484 206.175193 
L 631.802947 215.435772 
L 634.367629 247.380155 
L 635.329385 256.191755 
L 636.130848 261.793926 
L 636.932311 265.997682 
L 637.733774 269.074159 
L 638.535238 271.317627 
L 639.496993 273.293386 
L 640.779334 275.329943 
L 643.183724 279.070315 
L 644.626357 281.78083 
L 646.389576 285.617671 
L 648.793966 291.462438 
L 653.92333 304.310105 
L 654.243915 133.565563 
L 654.5645 87.497194 
L 654.724793 82.677291 
L 654.885085 83.715251 
L 655.205671 94.956194 
L 656.327719 144.585983 
L 656.648304 151.464619 
L 656.968889 154.427642 
L 657.129182 154.601308 
L 657.289475 154.002496 
L 657.61006 150.762688 
L 658.090938 141.565163 
L 658.571816 127.759236 
L 658.732108 122.143929 
L 659.052694 255.776446 
L 659.373279 310.092751 
L 659.693864 333.335383 
L 660.014449 344.39546 
L 660.335035 349.970783 
L 660.815912 354.09276 
L 661.29679 358.438486 
L 661.617376 363.418771 
L 662.098253 374.700381 
L 663.380594 408.1081 
L 663.70118 411.399125 
L 663.861472 411.747879 
L 664.021765 411.182217 
L 664.34235 407.282298 
L 664.662935 399.829265 
L 665.143813 382.844417 
L 665.945276 343.955951 
L 667.708495 253.890234 
L 668.509958 225.200856 
L 669.151129 210.093411 
L 669.632007 203.182147 
L 669.952592 200.49071 
L 670.273177 199.173941 
L 670.43347 198.983751 
L 670.593763 199.079289 
L 670.914348 200.046669 
L 671.234933 201.91422 
L 671.715811 206.057658 
L 672.517274 215.328499 
L 675.242249 248.977175 
L 676.204004 257.425157 
L 677.005468 262.745067 
L 677.806931 266.712686 
L 678.608394 269.608627 
L 679.409857 271.726347 
L 680.371613 273.613642 
L 681.814246 275.846269 
L 683.737758 278.840066 
L 685.180391 281.503309 
L 686.783318 284.926106 
L 689.027414 290.29877 
L 694.156778 303.177804 
L 694.477364 132.442143 
L 694.797949 86.347769 
L 694.958242 81.485907 
L 695.118534 82.469898 
L 695.439119 93.600956 
L 696.561168 143.30688 
L 696.881753 150.33077 
L 697.202338 153.455937 
L 697.362631 153.710906 
L 697.522924 153.191018 
L 697.843509 150.09658 
L 698.324387 141.074409 
L 698.805265 127.387701 
L 698.965557 121.800525 
L 699.286142 255.456687 
L 699.606728 309.809456 
L 699.927313 333.040847 
L 700.247898 344.044371 
L 700.568483 349.537863 
L 701.049361 353.531616 
L 701.369947 356.042771 
L 701.690532 359.984008 
L 702.17141 369.765394 
L 703.774336 409.558478 
L 703.934629 410.812484 
L 704.094921 411.184923 
L 704.255214 410.643586 
L 704.575799 406.793429 
L 704.896384 399.390493 
L 705.377262 382.479034 
L 706.178725 343.702026 
L 707.941944 253.811891 
L 708.743407 225.17035 
L 709.384578 210.089148 
L 709.865456 203.191691 
L 710.186041 200.507076 
L 710.506626 199.195472 
L 710.666919 199.00731 
L 710.827211 199.104537 
L 711.147797 200.074377 
L 711.468382 201.943316 
L 711.94926 206.087189 
L 712.750723 215.355578 
L 715.475698 248.985561 
L 716.437453 257.427551 
L 717.238916 262.743389 
L 718.04038 266.707796 
L 718.841843 269.601316 
L 719.643306 271.717292 
L 720.605062 273.603213 
L 722.047695 275.834827 
L 723.971207 278.828414 
L 725.41384 281.491903 
L 727.016767 284.915128 
L 729.260863 290.288471 
L 734.069642 302.384811 
L 734.390227 131.655014 
L 734.710813 85.541216 
L 734.871105 80.648879 
L 735.031398 81.593709 
L 735.351983 92.644592 
L 736.474031 142.394704 
L 736.794617 149.519273 
L 737.115202 152.757558 
L 737.275495 153.069432 
L 737.435787 152.604886 
L 737.756372 149.61263 
L 738.23725 140.714244 
L 738.718128 127.112292 
L 738.878421 121.545272 
L 739.199006 255.218765 
L 739.519591 309.598058 
L 739.840177 332.822236 
L 740.160762 343.786491 
L 740.481347 349.222849 
L 740.962225 353.127076 
L 741.28281 355.589027 
L 741.603395 359.494549 
L 742.084273 369.249436 
L 743.6872 409.125614 
L 744.007785 410.785376 
L 744.168077 410.261437 
L 744.488663 406.446822 
L 744.809248 399.079615 
L 745.290126 382.220421 
L 746.091589 343.522656 
L 747.854808 253.757052 
L 748.656271 225.14935 
L 749.297441 210.086676 
L 749.778319 203.198947 
L 750.098905 200.519127 
L 750.41949 199.211146 
L 750.579782 199.024401 
L 750.740075 199.122806 
L 751.06066 200.094354 
L 751.381246 201.964242 
L 751.862123 206.108374 
L 752.663587 215.374955 
L 755.388561 248.99155 
L 756.350317 257.429271 
L 757.15178 262.742212 
L 757.953243 266.704338 
L 758.754706 269.596139 
L 759.556169 271.710879 
L 760.517925 273.595828 
L 761.960559 275.82673 
L 763.88407 278.820173 
L 765.326704 281.483839 
L 766.92963 284.90737 
L 769.173727 290.281196 
L 773.822213 301.984379 
L 774.142798 131.257416 
L 774.463384 85.133375 
L 774.623676 80.225262 
L 774.783969 81.149834 
L 775.104554 92.159093 
L 776.226602 141.92832 
L 776.547188 149.103368 
L 776.867773 152.398627 
L 777.028066 152.739227 
L 777.188358 152.302652 
L 777.508943 149.362128 
L 777.989821 140.526589 
L 778.470699 126.967869 
L 778.630992 121.411183 
L 778.951577 255.093688 
L 779.272162 309.486718 
L 779.592748 332.707485 
L 779.913333 343.652025 
L 780.233918 349.059587 
L 780.714796 352.91869 
L 781.035381 355.355895 
L 781.355966 359.24353 
L 781.836844 368.985344 
L 783.439771 408.904841 
L 783.760356 410.581697 
L 783.920648 410.066673 
L 784.241234 406.270255 
L 784.561819 398.921323 
L 785.042697 382.088836 
L 785.84416 343.431517 
L 787.607379 253.729369 
L 788.408842 225.138877 
L 789.050012 210.085615 
L 789.53089 203.202819 
L 789.851476 200.525428 
L 790.172061 199.219278 
L 790.332353 199.033248 
L 790.492646 199.132247 
L 790.813231 200.104651 
L 791.133817 201.97501 
L 791.614694 206.119257 
L 792.416158 215.384892 
L 795.141132 248.994617 
L 796.102888 257.430156 
L 796.904351 262.741618 
L 797.705814 266.702579 
L 798.507277 269.593504 
L 799.30874 271.707614 
L 800.270496 273.592068 
L 801.71313 275.822609 
L 803.636641 278.815981 
L 805.079275 281.479739 
L 806.682201 284.903427 
L 808.926298 290.277498 
L 813.414491 301.585684 
L 813.735077 130.861444 
L 814.055662 84.726883 
L 814.215955 79.802773 
L 814.376247 80.706816 
L 814.696832 91.673792 
L 815.818881 141.459717 
L 816.139466 148.684766 
L 816.460051 152.03665 
L 816.620344 152.405847 
L 816.780637 151.997142 
L 817.101222 149.108226 
L 817.421807 143.804616 
L 817.902685 131.841468 
L 818.22327 121.273863 
L 818.543855 254.965526 
L 818.864441 309.372486 
L 819.185026 332.590023 
L 819.505611 343.515015 
L 819.826196 348.89394 
L 820.307074 352.708165 
L 820.62766 355.120799 
L 820.948245 358.99073 
L 821.429123 368.719746 
L 823.032049 408.683374 
L 823.352634 410.377451 
L 823.512927 409.871402 
L 823.833512 406.093288 
L 824.154097 398.762725 
L 824.634975 381.957066 
L 825.436438 343.340343 
L 827.199657 253.701808 
L 828.00112 225.128548 
L 828.642291 210.084699 
L 829.123169 203.206832 
L 829.443754 200.531864 
L 829.764339 199.227539 
L 829.924632 199.042221 
L 830.084924 199.141809 
L 830.40551 200.115062 
L 830.726095 201.985883 
L 831.206973 206.130232 
L 832.008436 215.3949 
L 834.733411 248.997703 
L 835.695166 257.431049 
L 836.496629 262.741026 
L 837.298093 266.700818 
L 838.099556 269.590865 
L 838.901019 271.704344 
L 839.862775 273.588302 
L 841.305408 275.818481 
L 843.22892 278.811783 
L 844.671553 281.475634 
L 846.27448 284.899479 
L 848.518576 290.273798 
L 854.609696 305.4742 
L 854.930281 134.719801 
L 855.250867 88.67566 
L 855.411159 83.896653 
L 855.571452 84.987308 
L 855.892037 96.334656 
L 857.014085 145.867741 
L 857.334671 152.594962 
L 857.655256 155.390437 
L 857.815549 155.480463 
L 857.975841 154.800652 
L 858.296426 151.412148 
L 858.777304 142.036272 
L 859.258182 128.110229 
L 859.418475 122.466878 
L 859.73906 256.076554 
L 860.059645 310.357371 
L 860.380231 333.61292 
L 860.700816 344.73183 
L 861.021401 350.391613 
L 861.502279 354.645896 
L 861.983157 359.094433 
L 862.464035 367.416662 
L 863.105205 384.685874 
L 863.906668 405.95084 
L 864.227254 410.781728 
L 864.387546 411.99026 
L 864.547839 412.315442 
L 864.708131 411.72553 
L 865.028717 407.775905 
L 865.349302 400.272725 
L 865.83018 383.214269 
L 866.631643 344.213742 
L 868.394862 253.970865 
L 869.196325 225.23303 
L 869.837495 210.098925 
L 870.318373 203.173591 
L 870.638959 200.475179 
L 870.959544 199.153108 
L 871.119836 198.96083 
L 871.280129 199.054621 
L 871.600714 200.019436 
L 871.9213 201.885509 
L 872.402177 206.028401 
L 873.203641 215.301565 
L 875.928615 248.968807 
L 876.890371 257.422793 
L 877.691834 262.746791 
L 878.493297 266.717638 
L 879.29476 269.61602 
L 880.096223 271.7355 
L 881.057979 273.624185 
L 882.500613 275.857842 
L 884.424124 278.851863 
L 885.866758 281.514864 
L 887.469684 284.937233 
L 889.713781 290.309214 
L 894.362267 302.008494 
L 894.682852 131.281314 
L 895.003438 85.157754 
L 895.16373 80.250476 
L 895.324023 81.17613 
L 895.644608 92.187582 
L 896.766656 141.954871 
L 897.087242 149.12681 
L 897.407827 152.418623 
L 897.56812 152.757499 
L 897.728412 152.319253 
L 898.048997 149.375656 
L 898.529875 140.536414 
L 899.010753 126.975177 
L 899.171046 121.417896 
L 899.491631 255.099898 
L 899.812216 309.492186 
L 900.132802 332.713216 
L 900.453387 343.658964 
L 900.773972 349.068256 
L 901.25485 352.930061 
L 901.575435 355.368756 
L 901.89602 359.257484 
L 902.376898 369.000139 
L 903.979825 408.917386 
L 904.30041 410.593297 
L 904.460702 410.077777 
L 904.781288 406.280344 
L 905.101873 398.930388 
L 905.582751 382.0964 
L 906.384214 343.436796 
L 908.147433 253.731035 
L 908.948896 225.139554 
L 909.590066 210.085747 
L 910.070944 203.202662 
L 910.39153 200.525128 
L 910.712115 199.218869 
L 910.872407 199.032796 
L 911.0327 199.131758 
L 911.353285 200.104109 
L 911.673871 201.974436 
L 912.154748 206.118671 
L 912.956212 215.384351 
L 915.681186 248.994449 
L 916.642942 257.430108 
L 917.444405 262.741653 
L 918.245868 266.70268 
L 919.047331 269.593654 
L 919.848794 271.7078 
L 920.81055 273.592282 
L 922.253184 275.822843 
L 924.176695 278.816219 
L 925.619329 281.479972 
L 927.222255 284.903652 
L 929.466352 290.277709 
L 933.794253 301.189117 
L 933.954545 190.897702 
L 933.954545 190.897702 
" clip-path="url(#p97d0ef5cb6)" style="fill: none; stroke: #1f77b4; stroke-width: 1.5; stroke-linecap: square"/>
   </g>
   <g id="line2d_14">
    <path d="M 173.045455 104.841961 
L 177.693941 104.841961 
L 177.854233 352.552006 
L 213.278903 352.552006 
L 213.439196 104.841961 
L 218.087682 104.841961 
L 218.247975 352.552006 
L 253.99323 352.552006 
L 254.153523 104.841961 
L 258.802009 104.841961 
L 258.962302 352.552006 
L 293.585509 352.552006 
L 293.745801 104.841961 
L 298.394287 104.841961 
L 298.55458 352.552006 
L 333.818957 352.552006 
L 333.97925 104.841961 
L 338.627736 104.841961 
L 338.788029 352.552006 
L 373.090651 352.552006 
L 373.250943 104.841961 
L 377.899429 104.841961 
L 378.059722 352.552006 
L 413.644685 352.552006 
L 413.804977 104.841961 
L 418.453463 104.841961 
L 418.613756 352.552006 
L 453.557548 352.552006 
L 453.717841 104.841961 
L 458.366327 104.841961 
L 458.52662 352.552006 
L 493.630705 352.552006 
L 493.790997 104.841961 
L 498.439483 104.841961 
L 498.599776 352.552006 
L 533.864153 352.552006 
L 534.024446 104.841961 
L 538.672932 104.841961 
L 538.833225 352.552006 
L 574.257895 352.552006 
L 574.418188 104.841961 
L 579.066674 104.841961 
L 579.226966 352.552006 
L 613.209003 352.552006 
L 613.369295 104.841961 
L 618.017782 104.841961 
L 618.178074 352.552006 
L 653.92333 352.552006 
L 654.083622 104.841961 
L 658.732108 104.841961 
L 658.892401 352.552006 
L 694.156778 352.552006 
L 694.317071 104.841961 
L 698.965557 104.841961 
L 699.12585 352.552006 
L 734.069642 352.552006 
L 734.229935 104.841961 
L 738.878421 104.841961 
L 739.038713 352.552006 
L 773.822213 352.552006 
L 773.982506 104.841961 
L 778.630992 104.841961 
L 778.791284 352.552006 
L 813.414491 352.552006 
L 813.574784 104.841961 
L 818.22327 104.841961 
L 818.383563 352.552006 
L 854.609696 352.552006 
L 854.769989 104.841961 
L 859.418475 104.841961 
L 859.578767 352.552006 
L 894.362267 352.552006 
L 894.52256 104.841961 
L 899.171046 104.841961 
L 899.331338 352.552006 
L 933.794253 352.552006 
L 933.954545 104.841961 
L 933.954545 104.841961 
" clip-path="url(#p97d0ef5cb6)" style="fill: none; stroke: #ff7f0e; stroke-width: 1.5; stroke-linecap: square"/>
   </g>
   <g id="line2d_15">
    <path d="M 929.466352 352.552006 
" clip-path="url(#p97d0ef5cb6)" style="fill: none; stroke: #000000; stroke-width: 1.5; stroke-linecap: square"/>
    <defs>
     <path id="m2da8c9a7b8" d="M 0 1 
C 0.265203 1 0.51958 0.894634 0.707107 0.707107 
C 0.894634 0.51958 1 0.265203 1 0 
C 1 -0.265203 0.894634 -0.51958 0.707107 -0.707107 
C 0.51958 -0.894634 0.265203 -1 0 -1 
C -0.265203 -1 -0.51958 -0.894634 -0.707107 -0.707107 
C -0.894634 -0.51958 -1 -0.265203 -1 0 
C -1 0.265203 -0.894634 0.51958 -0.707107 0.707107 
C -0.51958 0.894634 -0.265203 1 0 1 
z
" style="stroke: #000000"/>
    </defs>
    <g clip-path="url(#p97d0ef5cb6)">
     <use xlink:href="#m2da8c9a7b8" x="173.045455" y="104.841961" style="stroke: #000000"/>
     <use xlink:href="#m2da8c9a7b8" x="178.174819" y="352.552006" style="stroke: #000000"/>
     <use xlink:href="#m2da8c9a7b8" x="183.14389" y="352.552006" style="stroke: #000000"/>
     <use xlink:href="#m2da8c9a7b8" x="188.112961" y="104.841961" style="stroke: #000000"/>
     <use xlink:href="#m2da8c9a7b8" x="193.082033" y="352.552006" style="stroke: #000000"/>
     <use xlink:href="#m2da8c9a7b8" x="198.211397" y="352.552006" style="stroke: #000000"/>
     <use xlink:href="#m2da8c9a7b8" x="203.180468" y="104.841961" style="stroke: #000000"/>
     <use xlink:href="#m2da8c9a7b8" x="208.149539" y="352.552006" style="stroke: #000000"/>
     <use xlink:href="#m2da8c9a7b8" x="213.118611" y="104.841961" style="stroke: #000000"/>
     <use xlink:href="#m2da8c9a7b8" x="218.247975" y="352.552006" style="stroke: #000000"/>
     <use xlink:href="#m2da8c9a7b8" x="223.217046" y="352.552006" style="stroke: #000000"/>
     <use xlink:href="#m2da8c9a7b8" x="228.186118" y="104.841961" style="stroke: #000000"/>
     <use xlink:href="#m2da8c9a7b8" x="233.155189" y="352.552006" style="stroke: #000000"/>
     <use xlink:href="#m2da8c9a7b8" x="238.284553" y="352.552006" style="stroke: #000000"/>
     <use xlink:href="#m2da8c9a7b8" x="243.253624" y="104.841961" style="stroke: #000000"/>
     <use xlink:href="#m2da8c9a7b8" x="248.222696" y="352.552006" style="stroke: #000000"/>
     <use xlink:href="#m2da8c9a7b8" x="253.191767" y="104.841961" style="stroke: #000000"/>
     <use xlink:href="#m2da8c9a7b8" x="258.321131" y="352.552006" style="stroke: #000000"/>
     <use xlink:href="#m2da8c9a7b8" x="263.290202" y="352.552006" style="stroke: #000000"/>
     <use xlink:href="#m2da8c9a7b8" x="268.259274" y="104.841961" style="stroke: #000000"/>
     <use xlink:href="#m2da8c9a7b8" x="273.228345" y="352.552006" style="stroke: #000000"/>
     <use xlink:href="#m2da8c9a7b8" x="278.357709" y="352.552006" style="stroke: #000000"/>
     <use xlink:href="#m2da8c9a7b8" x="283.326781" y="104.841961" style="stroke: #000000"/>
     <use xlink:href="#m2da8c9a7b8" x="288.295852" y="352.552006" style="stroke: #000000"/>
     <use xlink:href="#m2da8c9a7b8" x="293.264923" y="104.841961" style="stroke: #000000"/>
     <use xlink:href="#m2da8c9a7b8" x="298.394287" y="352.552006" style="stroke: #000000"/>
     <use xlink:href="#m2da8c9a7b8" x="303.363359" y="352.552006" style="stroke: #000000"/>
     <use xlink:href="#m2da8c9a7b8" x="308.33243" y="104.841961" style="stroke: #000000"/>
     <use xlink:href="#m2da8c9a7b8" x="313.301501" y="352.552006" style="stroke: #000000"/>
     <use xlink:href="#m2da8c9a7b8" x="318.430865" y="352.552006" style="stroke: #000000"/>
     <use xlink:href="#m2da8c9a7b8" x="323.399937" y="104.841961" style="stroke: #000000"/>
     <use xlink:href="#m2da8c9a7b8" x="328.369008" y="352.552006" style="stroke: #000000"/>
     <use xlink:href="#m2da8c9a7b8" x="333.33808" y="104.841961" style="stroke: #000000"/>
     <use xlink:href="#m2da8c9a7b8" x="338.467444" y="352.552006" style="stroke: #000000"/>
     <use xlink:href="#m2da8c9a7b8" x="343.436515" y="352.552006" style="stroke: #000000"/>
     <use xlink:href="#m2da8c9a7b8" x="348.405586" y="104.841961" style="stroke: #000000"/>
     <use xlink:href="#m2da8c9a7b8" x="353.374658" y="352.552006" style="stroke: #000000"/>
     <use xlink:href="#m2da8c9a7b8" x="358.504022" y="352.552006" style="stroke: #000000"/>
     <use xlink:href="#m2da8c9a7b8" x="363.473093" y="104.841961" style="stroke: #000000"/>
     <use xlink:href="#m2da8c9a7b8" x="368.442164" y="352.552006" style="stroke: #000000"/>
     <use xlink:href="#m2da8c9a7b8" x="373.411236" y="104.841961" style="stroke: #000000"/>
     <use xlink:href="#m2da8c9a7b8" x="378.5406" y="352.552006" style="stroke: #000000"/>
     <use xlink:href="#m2da8c9a7b8" x="383.509671" y="352.552006" style="stroke: #000000"/>
     <use xlink:href="#m2da8c9a7b8" x="388.478743" y="104.841961" style="stroke: #000000"/>
     <use xlink:href="#m2da8c9a7b8" x="393.447814" y="352.552006" style="stroke: #000000"/>
     <use xlink:href="#m2da8c9a7b8" x="398.577178" y="352.552006" style="stroke: #000000"/>
     <use xlink:href="#m2da8c9a7b8" x="403.546249" y="104.841961" style="stroke: #000000"/>
     <use xlink:href="#m2da8c9a7b8" x="408.515321" y="352.552006" style="stroke: #000000"/>
     <use xlink:href="#m2da8c9a7b8" x="413.484392" y="104.841961" style="stroke: #000000"/>
     <use xlink:href="#m2da8c9a7b8" x="418.613756" y="352.552006" style="stroke: #000000"/>
     <use xlink:href="#m2da8c9a7b8" x="423.582827" y="352.552006" style="stroke: #000000"/>
     <use xlink:href="#m2da8c9a7b8" x="428.551899" y="104.841961" style="stroke: #000000"/>
     <use xlink:href="#m2da8c9a7b8" x="433.52097" y="352.552006" style="stroke: #000000"/>
     <use xlink:href="#m2da8c9a7b8" x="438.650334" y="352.552006" style="stroke: #000000"/>
     <use xlink:href="#m2da8c9a7b8" x="443.619406" y="104.841961" style="stroke: #000000"/>
     <use xlink:href="#m2da8c9a7b8" x="448.588477" y="352.552006" style="stroke: #000000"/>
     <use xlink:href="#m2da8c9a7b8" x="453.557548" y="104.841961" style="stroke: #000000"/>
     <use xlink:href="#m2da8c9a7b8" x="458.686912" y="352.552006" style="stroke: #000000"/>
     <use xlink:href="#m2da8c9a7b8" x="463.655984" y="352.552006" style="stroke: #000000"/>
     <use xlink:href="#m2da8c9a7b8" x="468.625055" y="104.841961" style="stroke: #000000"/>
     <use xlink:href="#m2da8c9a7b8" x="473.594126" y="352.552006" style="stroke: #000000"/>
     <use xlink:href="#m2da8c9a7b8" x="478.72349" y="352.552006" style="stroke: #000000"/>
     <use xlink:href="#m2da8c9a7b8" x="483.692562" y="104.841961" style="stroke: #000000"/>
     <use xlink:href="#m2da8c9a7b8" x="488.661633" y="352.552006" style="stroke: #000000"/>
     <use xlink:href="#m2da8c9a7b8" x="493.630705" y="104.841961" style="stroke: #000000"/>
     <use xlink:href="#m2da8c9a7b8" x="498.760069" y="352.552006" style="stroke: #000000"/>
     <use xlink:href="#m2da8c9a7b8" x="503.72914" y="352.552006" style="stroke: #000000"/>
     <use xlink:href="#m2da8c9a7b8" x="508.698211" y="104.841961" style="stroke: #000000"/>
     <use xlink:href="#m2da8c9a7b8" x="513.667283" y="352.552006" style="stroke: #000000"/>
     <use xlink:href="#m2da8c9a7b8" x="518.796647" y="352.552006" style="stroke: #000000"/>
     <use xlink:href="#m2da8c9a7b8" x="523.765718" y="104.841961" style="stroke: #000000"/>
     <use xlink:href="#m2da8c9a7b8" x="528.734789" y="352.552006" style="stroke: #000000"/>
     <use xlink:href="#m2da8c9a7b8" x="533.703861" y="104.841961" style="stroke: #000000"/>
     <use xlink:href="#m2da8c9a7b8" x="538.833225" y="352.552006" style="stroke: #000000"/>
     <use xlink:href="#m2da8c9a7b8" x="543.802296" y="352.552006" style="stroke: #000000"/>
     <use xlink:href="#m2da8c9a7b8" x="548.771368" y="104.841961" style="stroke: #000000"/>
     <use xlink:href="#m2da8c9a7b8" x="553.740439" y="352.552006" style="stroke: #000000"/>
     <use xlink:href="#m2da8c9a7b8" x="558.869803" y="352.552006" style="stroke: #000000"/>
     <use xlink:href="#m2da8c9a7b8" x="563.838874" y="104.841961" style="stroke: #000000"/>
     <use xlink:href="#m2da8c9a7b8" x="568.807946" y="352.552006" style="stroke: #000000"/>
     <use xlink:href="#m2da8c9a7b8" x="573.777017" y="104.841961" style="stroke: #000000"/>
     <use xlink:href="#m2da8c9a7b8" x="578.906381" y="352.552006" style="stroke: #000000"/>
     <use xlink:href="#m2da8c9a7b8" x="583.875452" y="352.552006" style="stroke: #000000"/>
     <use xlink:href="#m2da8c9a7b8" x="588.844524" y="104.841961" style="stroke: #000000"/>
     <use xlink:href="#m2da8c9a7b8" x="593.813595" y="352.552006" style="stroke: #000000"/>
     <use xlink:href="#m2da8c9a7b8" x="598.942959" y="352.552006" style="stroke: #000000"/>
     <use xlink:href="#m2da8c9a7b8" x="603.912031" y="104.841961" style="stroke: #000000"/>
     <use xlink:href="#m2da8c9a7b8" x="608.881102" y="352.552006" style="stroke: #000000"/>
     <use xlink:href="#m2da8c9a7b8" x="613.850173" y="104.841961" style="stroke: #000000"/>
     <use xlink:href="#m2da8c9a7b8" x="618.979537" y="352.552006" style="stroke: #000000"/>
     <use xlink:href="#m2da8c9a7b8" x="623.948609" y="352.552006" style="stroke: #000000"/>
     <use xlink:href="#m2da8c9a7b8" x="628.91768" y="104.841961" style="stroke: #000000"/>
     <use xlink:href="#m2da8c9a7b8" x="633.886751" y="352.552006" style="stroke: #000000"/>
     <use xlink:href="#m2da8c9a7b8" x="639.016115" y="352.552006" style="stroke: #000000"/>
     <use xlink:href="#m2da8c9a7b8" x="643.985187" y="104.841961" style="stroke: #000000"/>
     <use xlink:href="#m2da8c9a7b8" x="648.954258" y="352.552006" style="stroke: #000000"/>
     <use xlink:href="#m2da8c9a7b8" x="653.92333" y="104.841961" style="stroke: #000000"/>
     <use xlink:href="#m2da8c9a7b8" x="659.052694" y="352.552006" style="stroke: #000000"/>
     <use xlink:href="#m2da8c9a7b8" x="664.021765" y="352.552006" style="stroke: #000000"/>
     <use xlink:href="#m2da8c9a7b8" x="668.990836" y="104.841961" style="stroke: #000000"/>
     <use xlink:href="#m2da8c9a7b8" x="673.959908" y="352.552006" style="stroke: #000000"/>
     <use xlink:href="#m2da8c9a7b8" x="679.089272" y="352.552006" style="stroke: #000000"/>
     <use xlink:href="#m2da8c9a7b8" x="684.058343" y="104.841961" style="stroke: #000000"/>
     <use xlink:href="#m2da8c9a7b8" x="689.027414" y="352.552006" style="stroke: #000000"/>
     <use xlink:href="#m2da8c9a7b8" x="693.996486" y="104.841961" style="stroke: #000000"/>
     <use xlink:href="#m2da8c9a7b8" x="699.12585" y="352.552006" style="stroke: #000000"/>
     <use xlink:href="#m2da8c9a7b8" x="704.094921" y="352.552006" style="stroke: #000000"/>
     <use xlink:href="#m2da8c9a7b8" x="709.063993" y="104.841961" style="stroke: #000000"/>
     <use xlink:href="#m2da8c9a7b8" x="714.033064" y="352.552006" style="stroke: #000000"/>
     <use xlink:href="#m2da8c9a7b8" x="719.162428" y="352.552006" style="stroke: #000000"/>
     <use xlink:href="#m2da8c9a7b8" x="724.131499" y="104.841961" style="stroke: #000000"/>
     <use xlink:href="#m2da8c9a7b8" x="729.100571" y="352.552006" style="stroke: #000000"/>
     <use xlink:href="#m2da8c9a7b8" x="734.069642" y="104.841961" style="stroke: #000000"/>
     <use xlink:href="#m2da8c9a7b8" x="739.199006" y="352.552006" style="stroke: #000000"/>
     <use xlink:href="#m2da8c9a7b8" x="744.168077" y="352.552006" style="stroke: #000000"/>
     <use xlink:href="#m2da8c9a7b8" x="749.137149" y="104.841961" style="stroke: #000000"/>
     <use xlink:href="#m2da8c9a7b8" x="754.10622" y="352.552006" style="stroke: #000000"/>
     <use xlink:href="#m2da8c9a7b8" x="759.235584" y="352.552006" style="stroke: #000000"/>
     <use xlink:href="#m2da8c9a7b8" x="764.204656" y="104.841961" style="stroke: #000000"/>
     <use xlink:href="#m2da8c9a7b8" x="769.173727" y="352.552006" style="stroke: #000000"/>
     <use xlink:href="#m2da8c9a7b8" x="774.142798" y="104.841961" style="stroke: #000000"/>
     <use xlink:href="#m2da8c9a7b8" x="779.272162" y="352.552006" style="stroke: #000000"/>
     <use xlink:href="#m2da8c9a7b8" x="784.241234" y="352.552006" style="stroke: #000000"/>
     <use xlink:href="#m2da8c9a7b8" x="789.210305" y="104.841961" style="stroke: #000000"/>
     <use xlink:href="#m2da8c9a7b8" x="794.179376" y="352.552006" style="stroke: #000000"/>
     <use xlink:href="#m2da8c9a7b8" x="799.30874" y="352.552006" style="stroke: #000000"/>
     <use xlink:href="#m2da8c9a7b8" x="804.277812" y="104.841961" style="stroke: #000000"/>
     <use xlink:href="#m2da8c9a7b8" x="809.246883" y="352.552006" style="stroke: #000000"/>
     <use xlink:href="#m2da8c9a7b8" x="814.215955" y="104.841961" style="stroke: #000000"/>
     <use xlink:href="#m2da8c9a7b8" x="819.345319" y="352.552006" style="stroke: #000000"/>
     <use xlink:href="#m2da8c9a7b8" x="824.31439" y="352.552006" style="stroke: #000000"/>
     <use xlink:href="#m2da8c9a7b8" x="829.283461" y="104.841961" style="stroke: #000000"/>
     <use xlink:href="#m2da8c9a7b8" x="834.252533" y="352.552006" style="stroke: #000000"/>
     <use xlink:href="#m2da8c9a7b8" x="839.381897" y="352.552006" style="stroke: #000000"/>
     <use xlink:href="#m2da8c9a7b8" x="844.350968" y="104.841961" style="stroke: #000000"/>
     <use xlink:href="#m2da8c9a7b8" x="849.320039" y="352.552006" style="stroke: #000000"/>
     <use xlink:href="#m2da8c9a7b8" x="854.289111" y="104.841961" style="stroke: #000000"/>
     <use xlink:href="#m2da8c9a7b8" x="859.418475" y="352.552006" style="stroke: #000000"/>
     <use xlink:href="#m2da8c9a7b8" x="864.387546" y="352.552006" style="stroke: #000000"/>
     <use xlink:href="#m2da8c9a7b8" x="869.356618" y="104.841961" style="stroke: #000000"/>
     <use xlink:href="#m2da8c9a7b8" x="874.325689" y="352.552006" style="stroke: #000000"/>
     <use xlink:href="#m2da8c9a7b8" x="879.455053" y="352.552006" style="stroke: #000000"/>
     <use xlink:href="#m2da8c9a7b8" x="884.424124" y="104.841961" style="stroke: #000000"/>
     <use xlink:href="#m2da8c9a7b8" x="889.393196" y="352.552006" style="stroke: #000000"/>
     <use xlink:href="#m2da8c9a7b8" x="894.362267" y="104.841961" style="stroke: #000000"/>
     <use xlink:href="#m2da8c9a7b8" x="899.491631" y="352.552006" style="stroke: #000000"/>
     <use xlink:href="#m2da8c9a7b8" x="904.460702" y="352.552006" style="stroke: #000000"/>
     <use xlink:href="#m2da8c9a7b8" x="909.429774" y="104.841961" style="stroke: #000000"/>
     <use xlink:href="#m2da8c9a7b8" x="914.398845" y="352.552006" style="stroke: #000000"/>
     <use xlink:href="#m2da8c9a7b8" x="919.528209" y="352.552006" style="stroke: #000000"/>
     <use xlink:href="#m2da8c9a7b8" x="924.497281" y="104.841961" style="stroke: #000000"/>
     <use xlink:href="#m2da8c9a7b8" x="929.466352" y="352.552006" style="stroke: #000000"/>
    </g>
   </g>
   <g id="patch_3">
    <path d="M 135 448.56 
L 135 60.48 
" style="fill: none; stroke: #000000; stroke-width: 0.8; stroke-linejoin: miter; stroke-linecap: square"/>
   </g>
   <g id="patch_4">
    <path d="M 972 448.56 
L 972 60.48 
" style="fill: none; stroke: #000000; stroke-width: 0.8; stroke-linejoin: miter; stroke-linecap: square"/>
   </g>
   <g id="patch_5">
    <path d="M 135 448.56 
L 972 448.56 
" style="fill: none; stroke: #000000; stroke-width: 0.8; stroke-linejoin: miter; stroke-linecap: square"/>
   </g>
   <g id="patch_6">
    <path d="M 135 60.48 
L 972 60.48 
" style="fill: none; stroke: #000000; stroke-width: 0.8; stroke-linejoin: miter; stroke-linecap: square"/>
   </g>
   <g id="legend_1">
    <g id="patch_7">
     <path d="M 895.915625 443.56 
L 965 443.56 
Q 967 443.56 967 441.56 
L 967 397.969375 
Q 967 395.969375 965 395.969375 
L 895.915625 395.969375 
Q 893.915625 395.969375 893.915625 397.969375 
L 893.915625 441.56 
Q 893.915625 443.56 895.915625 443.56 
z
" style="fill: #ffffff; opacity: 0.8; stroke: #cccccc; stroke-linejoin: miter"/>
    </g>
    <g id="line2d_16">
     <path d="M 897.915625 404.067813 
L 907.915625 404.067813 
L 917.915625 404.067813 
" style="fill: none; stroke: #1f77b4; stroke-width: 1.5; stroke-linecap: square"/>
    </g>
    <g id="text_14">
     <!-- nw_0 -->
     <g transform="translate(925.915625 407.567813) scale(0.1 -0.1)">
      <defs>
       <path id="DejaVuSans-6e" d="M 3513 2113 
L 3513 0 
L 2938 0 
L 2938 2094 
Q 2938 2591 2744 2837 
Q 2550 3084 2163 3084 
Q 1697 3084 1428 2787 
Q 1159 2491 1159 1978 
L 1159 0 
L 581 0 
L 581 3500 
L 1159 3500 
L 1159 2956 
Q 1366 3272 1645 3428 
Q 1925 3584 2291 3584 
Q 2894 3584 3203 3211 
Q 3513 2838 3513 2113 
z
" transform="scale(0.015625)"/>
       <path id="DejaVuSans-77" d="M 269 3500 
L 844 3500 
L 1563 769 
L 2278 3500 
L 2956 3500 
L 3675 769 
L 4391 3500 
L 4966 3500 
L 4050 0 
L 3372 0 
L 2619 2869 
L 1863 0 
L 1184 0 
L 269 3500 
z
" transform="scale(0.015625)"/>
       <path id="DejaVuSans-5f" d="M 3263 -1063 
L 3263 -1509 
L -63 -1509 
L -63 -1063 
L 3263 -1063 
z
" transform="scale(0.015625)"/>
      </defs>
      <use xlink:href="#DejaVuSans-6e"/>
      <use xlink:href="#DejaVuSans-77" x="63.378906"/>
      <use xlink:href="#DejaVuSans-5f" x="145.166016"/>
      <use xlink:href="#DejaVuSans-30" x="195.166016"/>
     </g>
    </g>
    <g id="line2d_17">
     <path d="M 897.915625 419.024063 
L 907.915625 419.024063 
L 917.915625 419.024063 
" style="fill: none; stroke: #ff7f0e; stroke-width: 1.5; stroke-linecap: square"/>
    </g>
    <g id="text_15">
     <!-- input_0 -->
     <g transform="translate(925.915625 422.524063) scale(0.1 -0.1)">
      <defs>
       <path id="DejaVuSans-69" d="M 603 3500 
L 1178 3500 
L 1178 0 
L 603 0 
L 603 3500 
z
M 603 4863 
L 1178 4863 
L 1178 4134 
L 603 4134 
L 603 4863 
z
" transform="scale(0.015625)"/>
       <path id="DejaVuSans-70" d="M 1159 525 
L 1159 -1331 
L 581 -1331 
L 581 3500 
L 1159 3500 
L 1159 2969 
Q 1341 3281 1617 3432 
Q 1894 3584 2278 3584 
Q 2916 3584 3314 3078 
Q 3713 2572 3713 1747 
Q 3713 922 3314 415 
Q 2916 -91 2278 -91 
Q 1894 -91 1617 61 
Q 1341 213 1159 525 
z
M 3116 1747 
Q 3116 2381 2855 2742 
Q 2594 3103 2138 3103 
Q 1681 3103 1420 2742 
Q 1159 2381 1159 1747 
Q 1159 1113 1420 752 
Q 1681 391 2138 391 
Q 2594 391 2855 752 
Q 3116 1113 3116 1747 
z
" transform="scale(0.015625)"/>
       <path id="DejaVuSans-75" d="M 544 1381 
L 544 3500 
L 1119 3500 
L 1119 1403 
Q 1119 906 1312 657 
Q 1506 409 1894 409 
Q 2359 409 2629 706 
Q 2900 1003 2900 1516 
L 2900 3500 
L 3475 3500 
L 3475 0 
L 2900 0 
L 2900 538 
Q 2691 219 2414 64 
Q 2138 -91 1772 -91 
Q 1169 -91 856 284 
Q 544 659 544 1381 
z
M 1991 3584 
L 1991 3584 
z
" transform="scale(0.015625)"/>
      </defs>
      <use xlink:href="#DejaVuSans-69"/>
      <use xlink:href="#DejaVuSans-6e" x="27.783203"/>
      <use xlink:href="#DejaVuSans-70" x="91.162109"/>
      <use xlink:href="#DejaVuSans-75" x="154.638672"/>
      <use xlink:href="#DejaVuSans-74" x="218.017578"/>
      <use xlink:href="#DejaVuSans-5f" x="257.226562"/>
      <use xlink:href="#DejaVuSans-30" x="307.226562"/>
     </g>
    </g>
    <g id="line2d_18">
     <path d="M 897.915625 433.980312 
L 907.915625 433.980312 
L 917.915625 433.980312 
" style="fill: none; stroke: #000000; stroke-width: 1.5; stroke-linecap: square"/>
     <g>
      <use xlink:href="#m2da8c9a7b8" x="907.915625" y="433.980312" style="stroke: #000000"/>
     </g>
    </g>
    <g id="text_16">
     <!-- target -->
     <g transform="translate(925.915625 437.480312) scale(0.1 -0.1)">
      <defs>
       <path id="DejaVuSans-61" d="M 2194 1759 
Q 1497 1759 1228 1600 
Q 959 1441 959 1056 
Q 959 750 1161 570 
Q 1363 391 1709 391 
Q 2188 391 2477 730 
Q 2766 1069 2766 1631 
L 2766 1759 
L 2194 1759 
z
M 3341 1997 
L 3341 0 
L 2766 0 
L 2766 531 
Q 2569 213 2275 61 
Q 1981 -91 1556 -91 
Q 1019 -91 701 211 
Q 384 513 384 1019 
Q 384 1609 779 1909 
Q 1175 2209 1959 2209 
L 2766 2209 
L 2766 2266 
Q 2766 2663 2505 2880 
Q 2244 3097 1772 3097 
Q 1472 3097 1187 3025 
Q 903 2953 641 2809 
L 641 3341 
Q 956 3463 1253 3523 
Q 1550 3584 1831 3584 
Q 2591 3584 2966 3190 
Q 3341 2797 3341 1997 
z
" transform="scale(0.015625)"/>
       <path id="DejaVuSans-72" d="M 2631 2963 
Q 2534 3019 2420 3045 
Q 2306 3072 2169 3072 
Q 1681 3072 1420 2755 
Q 1159 2438 1159 1844 
L 1159 0 
L 581 0 
L 581 3500 
L 1159 3500 
L 1159 2956 
Q 1341 3275 1631 3429 
Q 1922 3584 2338 3584 
Q 2397 3584 2469 3576 
Q 2541 3569 2628 3553 
L 2631 2963 
z
" transform="scale(0.015625)"/>
       <path id="DejaVuSans-67" d="M 2906 1791 
Q 2906 2416 2648 2759 
Q 2391 3103 1925 3103 
Q 1463 3103 1205 2759 
Q 947 2416 947 1791 
Q 947 1169 1205 825 
Q 1463 481 1925 481 
Q 2391 481 2648 825 
Q 2906 1169 2906 1791 
z
M 3481 434 
Q 3481 -459 3084 -895 
Q 2688 -1331 1869 -1331 
Q 1566 -1331 1297 -1286 
Q 1028 -1241 775 -1147 
L 775 -588 
Q 1028 -725 1275 -790 
Q 1522 -856 1778 -856 
Q 2344 -856 2625 -561 
Q 2906 -266 2906 331 
L 2906 616 
Q 2728 306 2450 153 
Q 2172 0 1784 0 
Q 1141 0 747 490 
Q 353 981 353 1791 
Q 353 2603 747 3093 
Q 1141 3584 1784 3584 
Q 2172 3584 2450 3431 
Q 2728 3278 2906 2969 
L 2906 3500 
L 3481 3500 
L 3481 434 
z
" transform="scale(0.015625)"/>
       <path id="DejaVuSans-65" d="M 3597 1894 
L 3597 1613 
L 953 1613 
Q 991 1019 1311 708 
Q 1631 397 2203 397 
Q 2534 397 2845 478 
Q 3156 559 3463 722 
L 3463 178 
Q 3153 47 2828 -22 
Q 2503 -91 2169 -91 
Q 1331 -91 842 396 
Q 353 884 353 1716 
Q 353 2575 817 3079 
Q 1281 3584 2069 3584 
Q 2775 3584 3186 3129 
Q 3597 2675 3597 1894 
z
M 3022 2063 
Q 3016 2534 2758 2815 
Q 2500 3097 2075 3097 
Q 1594 3097 1305 2825 
Q 1016 2553 972 2059 
L 3022 2063 
z
" transform="scale(0.015625)"/>
      </defs>
      <use xlink:href="#DejaVuSans-74"/>
      <use xlink:href="#DejaVuSans-61" x="39.208984"/>
      <use xlink:href="#DejaVuSans-72" x="100.488281"/>
      <use xlink:href="#DejaVuSans-67" x="139.851562"/>
      <use xlink:href="#DejaVuSans-65" x="203.328125"/>
      <use xlink:href="#DejaVuSans-74" x="264.851562"/>
     </g>
    </g>
   </g>
  </g>
 </g>
 <defs>
  <clipPath id="p97d0ef5cb6">
   <rect x="135" y="60.48" width="837" height="388.08"/>
  </clipPath>
 </defs>
</svg>
