<?xml version="1.0" encoding="utf-8" standalone="no"?>
<!DOCTYPE svg PUBLIC "-//W3C//DTD SVG 1.1//EN"
  "http://www.w3.org/Graphics/SVG/1.1/DTD/svg11.dtd">
<svg xmlns:xlink="http://www.w3.org/1999/xlink" width="1080pt" height="504pt" viewBox="0 0 1080 504" xmlns="http://www.w3.org/2000/svg" version="1.1">
 <metadata>
  <rdf:RDF xmlns:dc="http://purl.org/dc/elements/1.1/" xmlns:cc="http://creativecommons.org/ns#" xmlns:rdf="http://www.w3.org/1999/02/22-rdf-syntax-ns#">
   <cc:Work>
    <dc:type rdf:resource="http://purl.org/dc/dcmitype/StillImage"/>
    <dc:date>2024-05-09T11:03:59.578841</dc:date>
    <dc:format>image/svg+xml</dc:format>
    <dc:creator>
     <cc:Agent>
      <dc:title>Matplotlib v3.7.1, https://matplotlib.org/</dc:title>
     </cc:Agent>
    </dc:creator>
   </cc:Work>
  </rdf:RDF>
 </metadata>
 <defs>
  <style type="text/css">*{stroke-linejoin: round; stroke-linecap: butt}</style>
 </defs>
 <g id="figure_1">
  <g id="patch_1">
   <path d="M 0 504 
L 1080 504 
L 1080 0 
L 0 0 
z
" style="fill: #ffffff"/>
  </g>
  <g id="axes_1">
   <g id="patch_2">
    <path d="M 135 448.56 
L 972 448.56 
L 972 60.48 
L 135 60.48 
z
" style="fill: #ffffff"/>
   </g>
   <g id="matplotlib.axis_1">
    <g id="xtick_1">
     <g id="line2d_1">
      <defs>
       <path id="mce06a3ea6d" d="M 0 0 
L 0 3.5 
" style="stroke: #000000; stroke-width: 0.8"/>
      </defs>
      <g>
       <use xlink:href="#mce06a3ea6d" x="173.045455" y="448.56" style="stroke: #000000; stroke-width: 0.8"/>
      </g>
     </g>
     <g id="text_1">
      <!-- 0 -->
      <g transform="translate(169.864205 463.158437) scale(0.1 -0.1)">
       <defs>
        <path id="DejaVuSans-30" d="M 2034 4250 
Q 1547 4250 1301 3770 
Q 1056 3291 1056 2328 
Q 1056 1369 1301 889 
Q 1547 409 2034 409 
Q 2525 409 2770 889 
Q 3016 1369 3016 2328 
Q 3016 3291 2770 3770 
Q 2525 4250 2034 4250 
z
M 2034 4750 
Q 2819 4750 3233 4129 
Q 3647 3509 3647 2328 
Q 3647 1150 3233 529 
Q 2819 -91 2034 -91 
Q 1250 -91 836 529 
Q 422 1150 422 2328 
Q 422 3509 836 4129 
Q 1250 4750 2034 4750 
z
" transform="scale(0.015625)"/>
       </defs>
       <use xlink:href="#DejaVuSans-30"/>
      </g>
     </g>
    </g>
    <g id="xtick_2">
     <g id="line2d_2">
      <g>
       <use xlink:href="#mce06a3ea6d" x="333.33808" y="448.56" style="stroke: #000000; stroke-width: 0.8"/>
      </g>
     </g>
     <g id="text_2">
      <!-- 1000 -->
      <g transform="translate(320.61308 463.158437) scale(0.1 -0.1)">
       <defs>
        <path id="DejaVuSans-31" d="M 794 531 
L 1825 531 
L 1825 4091 
L 703 3866 
L 703 4441 
L 1819 4666 
L 2450 4666 
L 2450 531 
L 3481 531 
L 3481 0 
L 794 0 
L 794 531 
z
" transform="scale(0.015625)"/>
       </defs>
       <use xlink:href="#DejaVuSans-31"/>
       <use xlink:href="#DejaVuSans-30" x="63.623047"/>
       <use xlink:href="#DejaVuSans-30" x="127.246094"/>
       <use xlink:href="#DejaVuSans-30" x="190.869141"/>
      </g>
     </g>
    </g>
    <g id="xtick_3">
     <g id="line2d_3">
      <g>
       <use xlink:href="#mce06a3ea6d" x="493.630705" y="448.56" style="stroke: #000000; stroke-width: 0.8"/>
      </g>
     </g>
     <g id="text_3">
      <!-- 2000 -->
      <g transform="translate(480.905705 463.158437) scale(0.1 -0.1)">
       <defs>
        <path id="DejaVuSans-32" d="M 1228 531 
L 3431 531 
L 3431 0 
L 469 0 
L 469 531 
Q 828 903 1448 1529 
Q 2069 2156 2228 2338 
Q 2531 2678 2651 2914 
Q 2772 3150 2772 3378 
Q 2772 3750 2511 3984 
Q 2250 4219 1831 4219 
Q 1534 4219 1204 4116 
Q 875 4013 500 3803 
L 500 4441 
Q 881 4594 1212 4672 
Q 1544 4750 1819 4750 
Q 2544 4750 2975 4387 
Q 3406 4025 3406 3419 
Q 3406 3131 3298 2873 
Q 3191 2616 2906 2266 
Q 2828 2175 2409 1742 
Q 1991 1309 1228 531 
z
" transform="scale(0.015625)"/>
       </defs>
       <use xlink:href="#DejaVuSans-32"/>
       <use xlink:href="#DejaVuSans-30" x="63.623047"/>
       <use xlink:href="#DejaVuSans-30" x="127.246094"/>
       <use xlink:href="#DejaVuSans-30" x="190.869141"/>
      </g>
     </g>
    </g>
    <g id="xtick_4">
     <g id="line2d_4">
      <g>
       <use xlink:href="#mce06a3ea6d" x="653.92333" y="448.56" style="stroke: #000000; stroke-width: 0.8"/>
      </g>
     </g>
     <g id="text_4">
      <!-- 3000 -->
      <g transform="translate(641.19833 463.158437) scale(0.1 -0.1)">
       <defs>
        <path id="DejaVuSans-33" d="M 2597 2516 
Q 3050 2419 3304 2112 
Q 3559 1806 3559 1356 
Q 3559 666 3084 287 
Q 2609 -91 1734 -91 
Q 1441 -91 1130 -33 
Q 819 25 488 141 
L 488 750 
Q 750 597 1062 519 
Q 1375 441 1716 441 
Q 2309 441 2620 675 
Q 2931 909 2931 1356 
Q 2931 1769 2642 2001 
Q 2353 2234 1838 2234 
L 1294 2234 
L 1294 2753 
L 1863 2753 
Q 2328 2753 2575 2939 
Q 2822 3125 2822 3475 
Q 2822 3834 2567 4026 
Q 2313 4219 1838 4219 
Q 1578 4219 1281 4162 
Q 984 4106 628 3988 
L 628 4550 
Q 988 4650 1302 4700 
Q 1616 4750 1894 4750 
Q 2613 4750 3031 4423 
Q 3450 4097 3450 3541 
Q 3450 3153 3228 2886 
Q 3006 2619 2597 2516 
z
" transform="scale(0.015625)"/>
       </defs>
       <use xlink:href="#DejaVuSans-33"/>
       <use xlink:href="#DejaVuSans-30" x="63.623047"/>
       <use xlink:href="#DejaVuSans-30" x="127.246094"/>
       <use xlink:href="#DejaVuSans-30" x="190.869141"/>
      </g>
     </g>
    </g>
    <g id="xtick_5">
     <g id="line2d_5">
      <g>
       <use xlink:href="#mce06a3ea6d" x="814.215955" y="448.56" style="stroke: #000000; stroke-width: 0.8"/>
      </g>
     </g>
     <g id="text_5">
      <!-- 4000 -->
      <g transform="translate(801.490955 463.158437) scale(0.1 -0.1)">
       <defs>
        <path id="DejaVuSans-34" d="M 2419 4116 
L 825 1625 
L 2419 1625 
L 2419 4116 
z
M 2253 4666 
L 3047 4666 
L 3047 1625 
L 3713 1625 
L 3713 1100 
L 3047 1100 
L 3047 0 
L 2419 0 
L 2419 1100 
L 313 1100 
L 313 1709 
L 2253 4666 
z
" transform="scale(0.015625)"/>
       </defs>
       <use xlink:href="#DejaVuSans-34"/>
       <use xlink:href="#DejaVuSans-30" x="63.623047"/>
       <use xlink:href="#DejaVuSans-30" x="127.246094"/>
       <use xlink:href="#DejaVuSans-30" x="190.869141"/>
      </g>
     </g>
    </g>
    <g id="text_6">
     <!-- t -->
     <g transform="translate(551.539844 476.836563) scale(0.1 -0.1)">
      <defs>
       <path id="DejaVuSans-74" d="M 1172 4494 
L 1172 3500 
L 2356 3500 
L 2356 3053 
L 1172 3053 
L 1172 1153 
Q 1172 725 1289 603 
Q 1406 481 1766 481 
L 2356 481 
L 2356 0 
L 1766 0 
Q 1100 0 847 248 
Q 594 497 594 1153 
L 594 3053 
L 172 3053 
L 172 3500 
L 594 3500 
L 594 4494 
L 1172 4494 
z
" transform="scale(0.015625)"/>
      </defs>
      <use xlink:href="#DejaVuSans-74"/>
     </g>
    </g>
   </g>
   <g id="matplotlib.axis_2">
    <g id="ytick_1">
     <g id="line2d_6">
      <defs>
       <path id="md5154450f8" d="M 0 0 
L -3.5 0 
" style="stroke: #000000; stroke-width: 0.8"/>
      </defs>
      <g>
       <use xlink:href="#md5154450f8" x="135" y="430.92" style="stroke: #000000; stroke-width: 0.8"/>
      </g>
     </g>
     <g id="text_7">
      <!-- 0.0 -->
      <g transform="translate(112.096875 434.719219) scale(0.1 -0.1)">
       <defs>
        <path id="DejaVuSans-2e" d="M 684 794 
L 1344 794 
L 1344 0 
L 684 0 
L 684 794 
z
" transform="scale(0.015625)"/>
       </defs>
       <use xlink:href="#DejaVuSans-30"/>
       <use xlink:href="#DejaVuSans-2e" x="63.623047"/>
       <use xlink:href="#DejaVuSans-30" x="95.410156"/>
      </g>
     </g>
    </g>
    <g id="ytick_2">
     <g id="line2d_7">
      <g>
       <use xlink:href="#md5154450f8" x="135" y="360.36" style="stroke: #000000; stroke-width: 0.8"/>
      </g>
     </g>
     <g id="text_8">
      <!-- 0.2 -->
      <g transform="translate(112.096875 364.159219) scale(0.1 -0.1)">
       <use xlink:href="#DejaVuSans-30"/>
       <use xlink:href="#DejaVuSans-2e" x="63.623047"/>
       <use xlink:href="#DejaVuSans-32" x="95.410156"/>
      </g>
     </g>
    </g>
    <g id="ytick_3">
     <g id="line2d_8">
      <g>
       <use xlink:href="#md5154450f8" x="135" y="289.8" style="stroke: #000000; stroke-width: 0.8"/>
      </g>
     </g>
     <g id="text_9">
      <!-- 0.4 -->
      <g transform="translate(112.096875 293.599219) scale(0.1 -0.1)">
       <use xlink:href="#DejaVuSans-30"/>
       <use xlink:href="#DejaVuSans-2e" x="63.623047"/>
       <use xlink:href="#DejaVuSans-34" x="95.410156"/>
      </g>
     </g>
    </g>
    <g id="ytick_4">
     <g id="line2d_9">
      <g>
       <use xlink:href="#md5154450f8" x="135" y="219.24" style="stroke: #000000; stroke-width: 0.8"/>
      </g>
     </g>
     <g id="text_10">
      <!-- 0.6 -->
      <g transform="translate(112.096875 223.039219) scale(0.1 -0.1)">
       <defs>
        <path id="DejaVuSans-36" d="M 2113 2584 
Q 1688 2584 1439 2293 
Q 1191 2003 1191 1497 
Q 1191 994 1439 701 
Q 1688 409 2113 409 
Q 2538 409 2786 701 
Q 3034 994 3034 1497 
Q 3034 2003 2786 2293 
Q 2538 2584 2113 2584 
z
M 3366 4563 
L 3366 3988 
Q 3128 4100 2886 4159 
Q 2644 4219 2406 4219 
Q 1781 4219 1451 3797 
Q 1122 3375 1075 2522 
Q 1259 2794 1537 2939 
Q 1816 3084 2150 3084 
Q 2853 3084 3261 2657 
Q 3669 2231 3669 1497 
Q 3669 778 3244 343 
Q 2819 -91 2113 -91 
Q 1303 -91 875 529 
Q 447 1150 447 2328 
Q 447 3434 972 4092 
Q 1497 4750 2381 4750 
Q 2619 4750 2861 4703 
Q 3103 4656 3366 4563 
z
" transform="scale(0.015625)"/>
       </defs>
       <use xlink:href="#DejaVuSans-30"/>
       <use xlink:href="#DejaVuSans-2e" x="63.623047"/>
       <use xlink:href="#DejaVuSans-36" x="95.410156"/>
      </g>
     </g>
    </g>
    <g id="ytick_5">
     <g id="line2d_10">
      <g>
       <use xlink:href="#md5154450f8" x="135" y="148.68" style="stroke: #000000; stroke-width: 0.8"/>
      </g>
     </g>
     <g id="text_11">
      <!-- 0.8 -->
      <g transform="translate(112.096875 152.479219) scale(0.1 -0.1)">
       <defs>
        <path id="DejaVuSans-38" d="M 2034 2216 
Q 1584 2216 1326 1975 
Q 1069 1734 1069 1313 
Q 1069 891 1326 650 
Q 1584 409 2034 409 
Q 2484 409 2743 651 
Q 3003 894 3003 1313 
Q 3003 1734 2745 1975 
Q 2488 2216 2034 2216 
z
M 1403 2484 
Q 997 2584 770 2862 
Q 544 3141 544 3541 
Q 544 4100 942 4425 
Q 1341 4750 2034 4750 
Q 2731 4750 3128 4425 
Q 3525 4100 3525 3541 
Q 3525 3141 3298 2862 
Q 3072 2584 2669 2484 
Q 3125 2378 3379 2068 
Q 3634 1759 3634 1313 
Q 3634 634 3220 271 
Q 2806 -91 2034 -91 
Q 1263 -91 848 271 
Q 434 634 434 1313 
Q 434 1759 690 2068 
Q 947 2378 1403 2484 
z
M 1172 3481 
Q 1172 3119 1398 2916 
Q 1625 2713 2034 2713 
Q 2441 2713 2670 2916 
Q 2900 3119 2900 3481 
Q 2900 3844 2670 4047 
Q 2441 4250 2034 4250 
Q 1625 4250 1398 4047 
Q 1172 3844 1172 3481 
z
" transform="scale(0.015625)"/>
       </defs>
       <use xlink:href="#DejaVuSans-30"/>
       <use xlink:href="#DejaVuSans-2e" x="63.623047"/>
       <use xlink:href="#DejaVuSans-38" x="95.410156"/>
      </g>
     </g>
    </g>
    <g id="ytick_6">
     <g id="line2d_11">
      <g>
       <use xlink:href="#md5154450f8" x="135" y="78.12" style="stroke: #000000; stroke-width: 0.8"/>
      </g>
     </g>
     <g id="text_12">
      <!-- 1.0 -->
      <g transform="translate(112.096875 81.919219) scale(0.1 -0.1)">
       <use xlink:href="#DejaVuSans-31"/>
       <use xlink:href="#DejaVuSans-2e" x="63.623047"/>
       <use xlink:href="#DejaVuSans-30" x="95.410156"/>
      </g>
     </g>
    </g>
   </g>
   <g id="line2d_12">
    <path d="M 173.045455 419.602412 
L 173.846918 373.197924 
L 174.488088 347.210891 
L 175.129259 329.967573 
L 175.610137 322.18913 
L 175.930722 319.24727 
L 176.251307 317.977856 
L 176.4116 317.939049 
L 176.571892 318.281436 
L 176.892478 320.063324 
L 177.213063 323.233399 
L 177.693941 330.404956 
L 178.655696 364.476173 
L 179.45716 385.737885 
L 180.258623 401.531544 
L 181.060086 412.688823 
L 181.701256 418.770425 
L 182.342427 422.685857 
L 182.823305 424.381448 
L 183.14389 424.985291 
L 183.464475 425.205038 
L 183.78506 425.070601 
L 184.105646 424.610265 
L 184.586524 423.366782 
L 185.227694 420.805495 
L 186.029157 416.401962 
L 186.990913 409.756334 
L 188.433547 397.917671 
L 191.158521 373.031143 
L 193.723203 350.376001 
L 195.486422 336.573608 
L 197.089348 325.698001 
L 198.531982 317.401209 
L 199.814323 311.24367 
L 200.936371 306.789334 
L 202.05842 303.184627 
L 203.020175 300.747533 
L 203.981931 298.887401 
L 204.783394 297.758346 
L 205.584857 296.993948 
L 206.226028 296.633037 
L 206.867198 296.48476 
L 207.508369 296.53962 
L 208.149539 296.788048 
L 208.951003 297.356179 
L 209.752466 298.193127 
L 210.714221 299.52634 
L 211.83627 301.495727 
L 213.118611 304.233433 
L 213.278903 304.608905 
L 214.080367 260.69141 
L 214.721537 236.941899 
L 215.202415 225.044286 
L 215.683293 217.741204 
L 216.003878 215.228455 
L 216.164171 214.636988 
L 216.324463 214.470954 
L 216.484756 214.717377 
L 216.805341 216.397252 
L 217.125926 219.578972 
L 217.606804 226.965494 
L 218.087682 237.228455 
L 219.049438 273.716083 
L 220.011194 301.085115 
L 220.812657 318.080935 
L 221.61412 330.650393 
L 222.415583 339.493788 
L 223.056754 344.300434 
L 223.697924 347.394015 
L 224.178802 348.740682 
L 224.499387 349.228479 
L 224.819972 349.419141 
L 225.140558 349.337458 
L 225.461143 349.006835 
L 225.942021 348.092086 
L 226.583191 346.196787 
L 227.384654 342.946763 
L 228.506703 337.19383 
L 230.109629 327.543011 
L 234.277237 301.872478 
L 235.880164 293.614316 
L 237.162505 288.031294 
L 238.444846 283.442326 
L 239.566894 280.267707 
L 240.52865 278.171864 
L 241.330113 276.85966 
L 242.131576 275.933065 
L 242.772746 275.461875 
L 243.413917 275.223486 
L 244.055087 275.210443 
L 244.696258 275.414733 
L 245.337428 275.827901 
L 246.138892 276.624662 
L 247.100647 277.96843 
L 248.062403 279.705497 
L 249.184451 282.186994 
L 250.466792 285.561755 
L 252.069719 290.481579 
L 253.832938 296.64114 
L 253.99323 297.234211 
L 254.794693 254.880051 
L 255.435864 232.300187 
L 255.916742 221.234609 
L 256.39762 214.726245 
L 256.718205 212.723195 
L 256.878497 212.380681 
L 257.03879 212.459727 
L 257.199083 212.947403 
L 257.519668 215.098479 
L 258.000546 221.08422 
L 258.481424 230.108278 
L 258.802009 237.670028 
L 259.763765 274.653036 
L 260.72552 302.515019 
L 261.526984 319.915752 
L 262.328447 332.881922 
L 263.12991 342.111621 
L 263.77108 347.218586 
L 264.412251 350.603896 
L 264.893129 352.163336 
L 265.374007 352.989381 
L 265.694592 353.175996 
L 266.015177 353.099598 
L 266.335762 352.782878 
L 266.81664 351.90368 
L 267.457811 350.079946 
L 268.259274 346.951857 
L 269.381322 341.416408 
L 270.984248 332.138948 
L 274.991564 308.397223 
L 276.59449 300.398865 
L 277.876831 294.984267 
L 279.159172 290.531177 
L 280.281221 287.450588 
L 281.242976 285.418111 
L 282.04444 284.147301 
L 282.845903 283.252313 
L 283.647366 282.722337 
L 284.288536 282.552583 
L 284.929707 282.600897 
L 285.570877 282.859399 
L 286.37234 283.465423 
L 287.173804 284.369961 
L 288.135559 285.824856 
L 289.257608 287.992772 
L 290.539949 291.030843 
L 291.982582 295.076796 
L 293.585509 300.235205 
L 294.386972 257.879123 
L 295.028142 235.280759 
L 295.50902 224.192759 
L 295.989898 217.655522 
L 296.310483 215.629998 
L 296.470776 215.275355 
L 296.631068 215.341711 
L 296.791361 215.816158 
L 297.111946 217.939249 
L 297.592824 223.879519 
L 298.073702 232.854396 
L 298.394287 240.381545 
L 299.356043 277.146319 
L 300.317799 304.822196 
L 301.119262 322.089294 
L 301.920725 334.939013 
L 302.722188 344.067521 
L 303.363359 349.103367 
L 304.004529 352.425444 
L 304.485407 353.942202 
L 304.966285 354.729321 
L 305.28687 354.891943 
L 305.607455 354.793034 
L 305.928041 354.455216 
L 306.408919 353.546878 
L 307.050089 351.688647 
L 307.851552 348.523804 
L 308.973601 342.947364 
L 310.576527 333.629114 
L 314.583842 309.850799 
L 316.186769 301.855474 
L 317.46911 296.448037 
L 318.751451 292.005266 
L 319.873499 288.935645 
L 320.835255 286.913621 
L 321.636718 285.652059 
L 322.438181 284.766655 
L 323.239644 284.24647 
L 323.880815 284.084619 
L 324.521985 284.140838 
L 325.163156 284.407196 
L 325.964619 285.0229 
L 326.766082 285.936881 
L 327.727838 287.402687 
L 328.849886 289.582605 
L 330.132227 292.633229 
L 331.574861 296.691574 
L 333.33808 302.411681 
L 333.818957 304.095599 
L 334.620421 261.113088 
L 335.261591 238.044742 
L 335.742469 226.621446 
L 336.223347 219.762975 
L 336.543932 217.530819 
L 336.704225 217.075054 
L 336.864517 217.041724 
L 337.02481 217.4179 
L 337.345395 219.348616 
L 337.66598 222.769926 
L 338.146858 230.495511 
L 338.627736 241.074168 
L 339.589492 278.120692 
L 340.551248 306.044763 
L 341.352711 323.494966 
L 342.154174 336.507761 
L 342.955637 345.780681 
L 343.596808 350.91949 
L 344.237978 354.334039 
L 344.718856 355.913631 
L 345.199734 356.758265 
L 345.520319 356.956391 
L 345.840904 356.890795 
L 346.16149 356.584165 
L 346.642367 355.718763 
L 347.283538 353.91093 
L 348.085001 350.798745 
L 349.207049 345.278302 
L 350.809976 336.008227 
L 354.977584 311.362213 
L 356.58051 303.450928 
L 357.862851 298.113375 
L 359.145192 293.738029 
L 360.267241 290.722891 
L 361.228996 288.742996 
L 362.030459 287.512796 
L 362.831923 286.65505 
L 363.473093 286.229613 
L 364.114264 286.028844 
L 364.755434 286.045458 
L 365.396605 286.271635 
L 366.198068 286.836456 
L 366.999531 287.698999 
L 367.961287 289.102586 
L 369.083335 291.209573 
L 370.365676 294.176869 
L 371.80831 298.142094 
L 373.090651 302.146567 
L 373.892114 258.824923 
L 374.533284 235.507855 
L 375.014162 223.910439 
L 375.49504 216.887987 
L 375.815625 214.551928 
L 375.975918 214.045789 
L 376.13621 213.963118 
L 376.296503 214.290969 
L 376.617088 216.128025 
L 376.937674 219.459567 
L 377.418551 227.057546 
L 377.899429 237.516722 
L 378.861185 274.575044 
L 379.822941 302.514395 
L 380.624404 319.98017 
L 381.425867 333.011231 
L 382.22733 342.305187 
L 382.868501 347.462847 
L 383.509671 350.898059 
L 383.990549 352.494335 
L 384.471427 353.356666 
L 384.792012 353.567151 
L 385.112597 353.514359 
L 385.433183 353.220974 
L 385.914061 352.376258 
L 386.555231 350.597512 
L 387.356694 347.524047 
L 388.31845 342.906494 
L 389.761084 334.796007 
L 394.569862 306.852426 
L 396.012496 300.011996 
L 397.294837 294.888635 
L 398.416885 291.200245 
L 399.538934 288.272741 
L 400.500689 286.368611 
L 401.302153 285.20183 
L 402.103616 284.407625 
L 402.744786 284.033024 
L 403.385957 283.883029 
L 404.027127 283.950298 
L 404.668298 284.226954 
L 405.469761 284.854545 
L 406.271224 285.7794 
L 407.23298 287.257026 
L 408.355028 289.449191 
L 409.637369 292.511983 
L 411.080003 296.581937 
L 412.843222 302.313608 
L 413.644685 305.150668 
L 414.446148 261.372843 
L 415.087318 237.716598 
L 415.568196 225.878862 
L 416.049074 218.627485 
L 416.369659 216.144862 
L 416.529952 215.567196 
L 416.690245 215.41414 
L 416.850537 215.672732 
L 417.171122 217.374566 
L 417.491708 220.575159 
L 417.972586 227.984413 
L 418.453463 238.263694 
L 419.415219 275.659117 
L 420.376975 303.892595 
L 421.178438 321.573418 
L 421.979901 334.794379 
L 422.781364 344.254972 
L 423.422535 349.530371 
L 424.063705 353.070391 
L 424.544583 354.737265 
L 425.025461 355.663684 
L 425.346046 355.913427 
L 425.666632 355.89722 
L 425.987217 355.637833 
L 426.468095 354.83944 
L 427.109265 353.114146 
L 427.910728 350.094979 
L 428.872484 345.525673 
L 430.315118 337.456611 
L 435.284189 308.624498 
L 436.726823 301.835295 
L 438.009164 296.756598 
L 439.131212 293.103532 
L 440.25326 290.205982 
L 441.215016 288.322318 
L 442.016479 287.168513 
L 442.817942 286.383368 
L 443.459113 286.01312 
L 444.100283 285.864874 
L 444.741454 285.931288 
L 445.382624 286.204503 
L 446.184088 286.824218 
L 446.985551 287.737325 
L 447.947306 289.195937 
L 449.069355 291.359499 
L 450.351696 294.381765 
L 451.794329 298.397135 
L 453.557548 304.050911 
L 454.359011 260.171175 
L 455.000182 236.440161 
L 455.48106 224.550137 
L 455.961938 217.249612 
L 456.282523 214.73592 
L 456.603108 213.975454 
L 456.763401 214.219661 
L 457.083986 215.893686 
L 457.404571 219.067723 
L 457.885449 226.439437 
L 458.366327 236.683846 
L 459.328083 274.006786 
L 460.289839 302.176256 
L 461.091302 319.810059 
L 461.892765 332.989598 
L 462.694228 342.414207 
L 463.335398 347.664622 
L 463.976569 351.18294 
L 464.457447 352.835633 
L 464.938325 353.74962 
L 465.25891 353.992026 
L 465.579495 353.969229 
L 465.90008 353.703984 
L 466.380958 352.89815 
L 467.022129 351.165379 
L 467.823592 348.140641 
L 468.785348 343.569909 
L 470.227981 335.50871 
L 475.03676 307.59358 
L 476.479394 300.732618 
L 477.761735 295.583248 
L 478.883783 291.867211 
L 480.005831 288.908323 
L 480.967587 286.974855 
L 481.76905 285.782211 
L 482.570513 284.961082 
L 483.211684 284.56431 
L 483.852854 284.39168 
L 484.494025 284.435937 
L 485.135195 284.689283 
L 485.936659 285.287432 
L 486.738122 286.182631 
L 487.699877 287.624564 
L 488.821926 289.775178 
L 490.104267 292.790935 
L 491.5469 296.808971 
L 493.149827 301.933377 
L 493.630705 303.587395 
L 494.432168 259.664334 
L 495.073338 235.903719 
L 495.554216 223.994177 
L 496.035094 216.676256 
L 496.355679 214.152069 
L 496.676264 213.381942 
L 496.836557 213.621617 
L 497.157142 215.287152 
L 497.477728 218.453431 
L 497.958605 225.814801 
L 498.439483 236.050309 
L 499.401239 273.457633 
L 500.362995 301.703604 
L 501.164458 319.395661 
L 501.965921 332.628863 
L 502.767384 342.102894 
L 503.408555 347.390008 
L 504.049725 350.942667 
L 504.530603 352.619653 
L 505.011481 353.556745 
L 505.332066 353.81392 
L 505.652651 353.805401 
L 505.973237 353.55396 
L 506.454115 352.767974 
L 507.095285 351.060132 
L 507.896748 348.064239 
L 508.858504 343.524971 
L 510.301138 335.505136 
L 515.270209 306.875945 
L 516.712843 300.153431 
L 517.995184 295.136174 
L 519.117232 291.538234 
L 520.23928 288.696829 
L 521.201036 286.861923 
L 522.002499 285.749087 
L 522.803962 285.005132 
L 523.445133 284.667944 
L 524.086303 284.552812 
L 524.727474 284.652357 
L 525.368644 284.958687 
L 526.170107 285.619718 
L 526.971571 286.573998 
L 527.933326 288.081744 
L 529.055375 290.302132 
L 530.337716 293.388513 
L 531.780349 297.474729 
L 533.543568 303.212921 
L 533.864153 304.33175 
L 534.665617 260.377013 
L 535.306787 236.591979 
L 535.787665 224.664649 
L 536.268543 217.329382 
L 536.589128 214.793871 
L 536.909713 214.01261 
L 537.070006 214.246788 
L 537.390591 215.901467 
L 537.711176 219.057072 
L 538.192054 226.402764 
L 538.672932 236.622987 
L 539.634688 274.049838 
L 540.596444 302.311551 
L 541.397907 320.014119 
L 542.19937 333.255683 
L 543.000833 342.736116 
L 543.642004 348.027057 
L 544.283174 351.582481 
L 544.764052 353.260891 
L 545.24493 354.198882 
L 545.565515 354.45638 
L 545.8861 354.447973 
L 546.206686 354.19644 
L 546.687563 353.409949 
L 547.328734 351.700793 
L 548.130197 348.7023 
L 549.091953 344.158644 
L 550.534586 336.129962 
L 555.503658 307.455291 
L 556.946291 300.716676 
L 558.228632 295.68445 
L 559.350681 292.073041 
L 560.472729 289.217926 
L 561.434485 287.371142 
L 562.235948 286.24836 
L 563.037411 285.494441 
L 563.678582 285.149288 
L 564.319752 285.026207 
L 564.960923 285.117833 
L 565.602093 285.416281 
L 566.403556 286.067528 
L 567.205019 287.012115 
L 568.166775 288.508373 
L 569.288824 290.715583 
L 570.571165 293.787243 
L 572.013798 297.857379 
L 573.777017 303.576674 
L 574.257895 305.257753 
L 575.059358 261.268256 
L 575.700529 237.456143 
L 576.181406 225.508932 
L 576.662284 218.154151 
L 576.98287 215.605835 
L 577.303455 214.811929 
L 577.463747 215.039845 
L 577.784333 216.682121 
L 578.104918 219.825482 
L 578.585796 227.153105 
L 579.066674 237.355612 
L 580.028429 274.792516 
L 580.990185 303.061099 
L 581.791648 320.767201 
L 582.593111 334.010491 
L 583.394575 343.491002 
L 584.035745 348.780917 
L 584.676916 352.334422 
L 585.157793 354.010847 
L 585.638671 354.946414 
L 585.959257 355.202064 
L 586.279842 355.191632 
L 586.600427 354.937904 
L 587.081305 354.147815 
L 587.722475 352.433326 
L 588.523939 349.427374 
L 589.485694 344.873718 
L 590.928328 336.82818 
L 595.897399 308.083513 
L 597.340033 301.322412 
L 598.622374 296.269774 
L 599.744422 292.640301 
L 600.866471 289.767026 
L 601.828226 287.904663 
L 602.62969 286.768923 
L 603.431153 286.002098 
L 604.072323 285.646669 
L 604.713494 285.513371 
L 605.354664 285.594846 
L 605.995835 285.88322 
L 606.797298 286.521996 
L 607.598761 287.454261 
L 608.560517 288.935949 
L 609.682565 291.126488 
L 610.964906 294.179562 
L 612.40754 298.229431 
L 613.209003 300.725824 
L 614.010466 256.980115 
L 614.651636 233.35451 
L 615.132514 221.542454 
L 615.613392 214.318951 
L 615.933977 211.856074 
L 616.09427 211.288619 
L 616.254563 211.145995 
L 616.414855 211.415233 
L 616.735441 213.138997 
L 617.056026 216.362338 
L 617.536904 223.807188 
L 618.017782 234.123743 
L 618.979537 271.356995 
L 619.941293 299.45435 
L 620.742756 317.0406 
L 621.544219 330.183264 
L 622.345682 339.581032 
L 622.986853 344.816779 
L 623.628023 348.326144 
L 624.108901 349.975693 
L 624.589779 350.889462 
L 624.910364 351.133289 
L 625.23095 351.113125 
L 625.551535 350.851692 
L 626.032413 350.053712 
L 626.673583 348.335227 
L 627.475046 345.33412 
L 628.436802 340.799581 
L 629.879436 332.807053 
L 634.688215 305.216693 
L 636.130848 298.473769 
L 637.413189 293.434608 
L 638.535238 289.81816 
L 639.657286 286.961083 
L 640.619042 285.116162 
L 641.420505 283.997926 
L 642.221968 283.251551 
L 642.863138 282.914705 
L 643.504309 282.80201 
L 644.145479 282.906125 
L 644.78665 283.21917 
L 645.588113 283.891603 
L 646.389576 284.860577 
L 647.351332 286.390181 
L 648.47338 288.641638 
L 649.755721 291.770384 
L 651.198355 295.912191 
L 652.961574 301.728241 
L 653.92333 305.19237 
L 654.724793 261.246333 
L 655.365963 237.468179 
L 655.846841 225.54588 
L 656.327719 218.215481 
L 656.648304 215.683103 
L 656.968889 214.904868 
L 657.129182 215.140517 
L 657.449767 216.798044 
L 657.770353 219.956367 
L 658.25123 227.305867 
L 658.732108 237.529556 
L 659.693864 275.055026 
L 660.65562 303.404497 
L 661.457083 321.172401 
L 662.258546 334.47262 
L 663.060009 344.005391 
L 663.70118 349.333889 
L 664.34235 352.923221 
L 664.823228 354.624768 
L 665.304106 355.584005 
L 665.624691 355.854648 
L 665.945276 355.858595 
L 666.265862 355.618643 
L 666.74674 354.848116 
L 667.38791 353.157709 
L 668.189373 350.178778 
L 669.151129 345.65326 
L 670.593763 337.641782 
L 675.562834 308.951684 
L 677.005468 302.191626 
L 678.287809 297.135463 
L 679.409857 293.499861 
L 680.531905 290.617932 
L 681.493661 288.746354 
L 682.295124 287.601795 
L 683.096587 286.825213 
L 683.737758 286.461363 
L 684.378928 286.319142 
L 685.020099 286.391233 
L 685.661269 286.669802 
L 686.462732 287.295785 
L 687.264196 288.214727 
L 688.225951 289.679821 
L 689.348 291.850296 
L 690.630341 294.879705 
L 692.072974 298.902265 
L 693.836193 304.563791 
L 694.156778 305.668855 
L 694.958242 261.696117 
L 695.599412 237.894854 
L 696.08029 225.954442 
L 696.561168 218.605414 
L 696.881753 216.060393 
L 697.202338 215.26938 
L 697.362631 215.498599 
L 697.683216 217.143205 
L 698.003801 220.288549 
L 698.484679 227.618537 
L 698.965557 237.822736 
L 699.927313 275.204338 
L 700.889069 303.422844 
L 701.690532 321.090909 
L 702.491995 334.299286 
L 703.293458 343.747799 
L 703.934629 349.014088 
L 704.575799 352.54562 
L 705.056677 354.206595 
L 705.537555 355.127556 
L 705.85814 355.373921 
L 706.178725 355.354555 
L 706.499311 355.092232 
L 706.980188 354.289872 
L 707.621359 352.560128 
L 708.422822 349.536791 
L 709.384578 344.964577 
L 710.827211 336.89549 
L 715.796283 308.101365 
L 717.238916 301.333063 
L 718.521257 296.276093 
L 719.643306 292.644216 
L 720.765354 289.769671 
L 721.72711 287.907011 
L 722.528573 286.77152 
L 723.330036 286.005344 
L 723.971207 285.650697 
L 724.612377 285.51839 
L 725.253548 285.601046 
L 725.894718 285.890773 
L 726.696181 286.531455 
L 727.497644 287.465835 
L 728.4594 288.950295 
L 729.581449 291.144328 
L 730.86379 294.201655 
L 732.306423 298.256527 
L 734.069642 303.958299 
L 734.871105 260.043721 
L 735.512276 236.289023 
L 735.993154 224.383465 
L 736.474031 217.069174 
L 736.794617 214.547224 
L 737.115202 213.779196 
L 737.275495 214.019872 
L 737.59608 215.687315 
L 737.916665 218.855384 
L 738.397543 226.219228 
L 738.878421 236.456978 
L 739.840177 273.828305 
L 740.801932 302.041719 
L 741.603395 319.709171 
L 742.404859 332.919971 
L 743.206322 342.373716 
L 743.847492 347.646065 
L 744.488663 351.18521 
L 744.969541 352.852855 
L 745.450418 353.781262 
L 745.771004 354.033003 
L 746.091589 354.019329 
L 746.412174 353.763004 
L 746.893052 352.97019 
L 747.534223 351.254144 
L 748.335686 348.249375 
L 749.297441 343.701365 
L 750.740075 335.672012 
L 755.548854 307.847999 
L 756.991487 301.010817 
L 758.273828 295.881449 
L 759.395877 292.182099 
L 760.517925 289.239182 
L 761.479681 287.318859 
L 762.281144 286.136798 
L 763.082607 285.325923 
L 763.723778 284.937124 
L 764.364948 284.772264 
L 765.006119 284.824092 
L 765.647289 285.084813 
L 766.448752 285.691909 
L 767.250215 286.595757 
L 768.211971 288.047679 
L 769.33402 290.20942 
L 770.616361 293.237208 
L 772.058994 297.267918 
L 773.66192 302.405359 
L 773.822213 302.952424 
L 774.623676 259.098947 
L 775.264847 235.391348 
L 775.745725 223.520088 
L 776.226602 216.239226 
L 776.547188 213.739087 
L 776.70748 213.153283 
L 776.867773 212.992493 
L 777.028066 213.243747 
L 777.348651 214.932066 
L 777.669236 218.120644 
L 778.150114 225.514573 
L 778.630992 235.781607 
L 779.592748 273.14796 
L 780.554503 301.359666 
L 781.355966 319.027927 
L 782.15743 332.241364 
L 782.958893 341.6994 
L 783.600063 346.976264 
L 784.241234 350.520803 
L 784.722112 352.193027 
L 785.202989 353.126439 
L 785.523575 353.38174 
L 785.84416 353.371795 
L 786.164745 353.119362 
L 786.645623 352.332673 
L 787.286794 350.625295 
L 788.088257 347.632093 
L 789.050012 343.098911 
L 790.492646 335.093427 
L 795.301425 307.357973 
L 796.744058 300.548728 
L 798.026399 295.444317 
L 799.148448 291.76677 
L 800.270496 288.845527 
L 801.232252 286.943615 
L 802.033715 285.776744 
L 802.835178 284.980893 
L 803.476349 284.603978 
L 804.117519 284.450872 
L 804.75869 284.514313 
L 805.39986 284.786497 
L 806.201323 285.407698 
L 807.002786 286.32539 
L 807.964542 287.793561 
L 809.086591 289.973732 
L 810.368932 293.021857 
L 811.811565 297.074482 
L 813.414491 302.235038 
L 814.215955 258.432603 
L 814.857125 234.763776 
L 815.338003 222.92045 
L 815.818881 215.666581 
L 816.139466 213.18393 
L 816.299759 212.606722 
L 816.460051 212.454431 
L 816.620344 212.714087 
L 816.940929 214.418929 
L 817.261514 217.62366 
L 817.742392 225.041146 
L 818.22327 235.330953 
L 819.185026 272.680234 
L 820.146782 300.87877 
L 820.948245 318.538743 
L 821.749708 331.746106 
L 822.551171 341.200086 
L 823.192342 346.475036 
L 823.833512 350.018752 
L 824.31439 351.691026 
L 824.795268 352.625025 
L 825.115853 352.881 
L 825.436438 352.871945 
L 825.757024 352.62061 
L 826.237901 351.835939 
L 826.879072 350.131906 
L 827.680535 347.143853 
L 828.642291 342.618129 
L 830.084924 334.626094 
L 834.893703 306.949387 
L 836.336337 300.160444 
L 837.618678 295.074657 
L 838.740726 291.413703 
L 839.862775 288.509219 
L 840.82453 286.621729 
L 841.625993 285.466875 
L 842.427457 284.68301 
L 843.068627 284.315643 
L 843.709798 284.172034 
L 844.350968 284.244911 
L 844.992139 284.526458 
L 845.793602 285.159244 
L 846.595065 286.088373 
L 847.556821 287.570048 
L 848.678869 289.76564 
L 849.96121 292.830903 
L 851.403844 296.902137 
L 853.167062 302.633704 
L 854.609696 307.828646 
L 855.411159 263.757741 
L 856.05233 239.881968 
L 856.533208 227.887832 
L 857.014085 220.486802 
L 857.334671 217.908016 
L 857.655256 217.083922 
L 857.815549 217.296849 
L 858.136134 218.909349 
L 858.456719 222.023201 
L 858.937597 229.307046 
L 859.418475 239.466342 
L 860.380231 277.003363 
L 861.341986 305.356096 
L 862.143449 323.121002 
L 862.944913 336.413505 
L 863.746376 345.934257 
L 864.387546 351.250303 
L 865.028717 354.824861 
L 865.509595 356.513908 
L 865.990472 357.459506 
L 866.311058 357.720457 
L 866.631643 357.714255 
L 866.952228 357.463715 
L 867.433106 356.676523 
L 868.074277 354.962524 
L 868.87574 351.952086 
L 869.837495 347.386119 
L 871.280129 339.309369 
L 876.2492 310.366592 
L 877.691834 303.528791 
L 878.974175 298.402994 
L 880.096223 294.70641 
L 881.218272 291.763723 
L 882.180028 289.840423 
L 882.981491 288.653116 
L 883.782954 287.834183 
L 884.424124 287.436782 
L 885.065295 287.261335 
L 885.706465 287.300555 
L 886.347636 287.546634 
L 887.149099 288.132578 
L 887.950562 289.012159 
L 888.912318 290.430968 
L 890.034366 292.548829 
L 891.316707 295.520032 
L 892.759341 299.479684 
L 894.362267 304.530205 
L 895.16373 260.589083 
L 895.804901 236.812372 
L 896.285779 224.889983 
L 896.766656 217.558671 
L 897.087242 215.025304 
L 897.407827 214.245827 
L 897.56812 214.480771 
L 897.888705 216.136749 
L 898.20929 219.293363 
L 898.690168 226.640079 
L 899.171046 236.86081 
L 900.132802 274.163128 
L 901.094557 302.312726 
L 901.89602 319.930775 
L 902.697484 333.095446 
L 903.498947 342.506191 
L 904.140117 347.7463 
L 904.781288 351.255047 
L 905.262166 352.901061 
L 905.743043 353.808807 
L 906.063629 354.047299 
L 906.384214 354.020786 
L 906.704799 353.752024 
L 907.185677 352.941292 
L 907.826848 351.202689 
L 908.628311 348.171785 
L 909.590066 343.595279 
L 911.0327 335.52865 
L 915.841479 307.62061 
L 917.284112 300.76822 
L 918.566453 295.628508 
L 919.688502 291.92231 
L 920.81055 288.974404 
L 921.772306 287.051149 
L 922.573769 285.867513 
L 923.375232 285.055791 
L 924.016403 284.6668 
L 924.657573 284.502154 
L 925.298744 284.554572 
L 925.939914 284.816237 
L 926.741377 285.424972 
L 927.54284 286.33093 
L 928.504596 287.785945 
L 929.626645 289.951982 
L 930.908986 292.985463 
L 932.351619 297.023412 
L 933.794253 301.627414 
L 933.954545 291.505054 
L 933.954545 291.505054 
" clip-path="url(#p2edc8f643a)" style="fill: none; stroke: #1f77b4; stroke-width: 1.5; stroke-linecap: square"/>
   </g>
   <g id="line2d_13">
    <path d="M 173.045455 78.12 
L 177.693941 78.12 
L 177.854233 430.92 
L 213.278903 430.92 
L 213.439196 78.12 
L 218.087682 78.12 
L 218.247975 430.92 
L 253.99323 430.92 
L 254.153523 78.12 
L 258.802009 78.12 
L 258.962302 430.92 
L 293.585509 430.92 
L 293.745801 78.12 
L 298.394287 78.12 
L 298.55458 430.92 
L 333.818957 430.92 
L 333.97925 78.12 
L 338.627736 78.12 
L 338.788029 430.92 
L 373.090651 430.92 
L 373.250943 78.12 
L 377.899429 78.12 
L 378.059722 430.92 
L 413.644685 430.92 
L 413.804977 78.12 
L 418.453463 78.12 
L 418.613756 430.92 
L 453.557548 430.92 
L 453.717841 78.12 
L 458.366327 78.12 
L 458.52662 430.92 
L 493.630705 430.92 
L 493.790997 78.12 
L 498.439483 78.12 
L 498.599776 430.92 
L 533.864153 430.92 
L 534.024446 78.12 
L 538.672932 78.12 
L 538.833225 430.92 
L 574.257895 430.92 
L 574.418188 78.12 
L 579.066674 78.12 
L 579.226966 430.92 
L 613.209003 430.92 
L 613.369295 78.12 
L 618.017782 78.12 
L 618.178074 430.92 
L 653.92333 430.92 
L 654.083622 78.12 
L 658.732108 78.12 
L 658.892401 430.92 
L 694.156778 430.92 
L 694.317071 78.12 
L 698.965557 78.12 
L 699.12585 430.92 
L 734.069642 430.92 
L 734.229935 78.12 
L 738.878421 78.12 
L 739.038713 430.92 
L 773.822213 430.92 
L 773.982506 78.12 
L 778.630992 78.12 
L 778.791284 430.92 
L 813.414491 430.92 
L 813.574784 78.12 
L 818.22327 78.12 
L 818.383563 430.92 
L 854.609696 430.92 
L 854.769989 78.12 
L 859.418475 78.12 
L 859.578767 430.92 
L 894.362267 430.92 
L 894.52256 78.12 
L 899.171046 78.12 
L 899.331338 430.92 
L 933.794253 430.92 
L 933.954545 78.12 
L 933.954545 78.12 
" clip-path="url(#p2edc8f643a)" style="fill: none; stroke: #ff7f0e; stroke-width: 1.5; stroke-linecap: square"/>
   </g>
   <g id="line2d_14">
    <path d="M 929.466352 430.92 
" clip-path="url(#p2edc8f643a)" style="fill: none; stroke: #000000; stroke-width: 1.5; stroke-linecap: square"/>
    <defs>
     <path id="m135a028a10" d="M 0 1 
C 0.265203 1 0.51958 0.894634 0.707107 0.707107 
C 0.894634 0.51958 1 0.265203 1 0 
C 1 -0.265203 0.894634 -0.51958 0.707107 -0.707107 
C 0.51958 -0.894634 0.265203 -1 0 -1 
C -0.265203 -1 -0.51958 -0.894634 -0.707107 -0.707107 
C -0.894634 -0.51958 -1 -0.265203 -1 0 
C -1 0.265203 -0.894634 0.51958 -0.707107 0.707107 
C -0.51958 0.894634 -0.265203 1 0 1 
z
" style="stroke: #000000"/>
    </defs>
    <g clip-path="url(#p2edc8f643a)">
     <use xlink:href="#m135a028a10" x="173.045455" y="78.12" style="stroke: #000000"/>
     <use xlink:href="#m135a028a10" x="178.174819" y="430.92" style="stroke: #000000"/>
     <use xlink:href="#m135a028a10" x="183.14389" y="430.92" style="stroke: #000000"/>
     <use xlink:href="#m135a028a10" x="188.112961" y="78.12" style="stroke: #000000"/>
     <use xlink:href="#m135a028a10" x="193.082033" y="430.92" style="stroke: #000000"/>
     <use xlink:href="#m135a028a10" x="198.211397" y="430.92" style="stroke: #000000"/>
     <use xlink:href="#m135a028a10" x="203.180468" y="78.12" style="stroke: #000000"/>
     <use xlink:href="#m135a028a10" x="208.149539" y="430.92" style="stroke: #000000"/>
     <use xlink:href="#m135a028a10" x="213.118611" y="78.12" style="stroke: #000000"/>
     <use xlink:href="#m135a028a10" x="218.247975" y="430.92" style="stroke: #000000"/>
     <use xlink:href="#m135a028a10" x="223.217046" y="430.92" style="stroke: #000000"/>
     <use xlink:href="#m135a028a10" x="228.186118" y="78.12" style="stroke: #000000"/>
     <use xlink:href="#m135a028a10" x="233.155189" y="430.92" style="stroke: #000000"/>
     <use xlink:href="#m135a028a10" x="238.284553" y="430.92" style="stroke: #000000"/>
     <use xlink:href="#m135a028a10" x="243.253624" y="78.12" style="stroke: #000000"/>
     <use xlink:href="#m135a028a10" x="248.222696" y="430.92" style="stroke: #000000"/>
     <use xlink:href="#m135a028a10" x="253.191767" y="78.12" style="stroke: #000000"/>
     <use xlink:href="#m135a028a10" x="258.321131" y="430.92" style="stroke: #000000"/>
     <use xlink:href="#m135a028a10" x="263.290202" y="430.92" style="stroke: #000000"/>
     <use xlink:href="#m135a028a10" x="268.259274" y="78.12" style="stroke: #000000"/>
     <use xlink:href="#m135a028a10" x="273.228345" y="430.92" style="stroke: #000000"/>
     <use xlink:href="#m135a028a10" x="278.357709" y="430.92" style="stroke: #000000"/>
     <use xlink:href="#m135a028a10" x="283.326781" y="78.12" style="stroke: #000000"/>
     <use xlink:href="#m135a028a10" x="288.295852" y="430.92" style="stroke: #000000"/>
     <use xlink:href="#m135a028a10" x="293.264923" y="78.12" style="stroke: #000000"/>
     <use xlink:href="#m135a028a10" x="298.394287" y="430.92" style="stroke: #000000"/>
     <use xlink:href="#m135a028a10" x="303.363359" y="430.92" style="stroke: #000000"/>
     <use xlink:href="#m135a028a10" x="308.33243" y="78.12" style="stroke: #000000"/>
     <use xlink:href="#m135a028a10" x="313.301501" y="430.92" style="stroke: #000000"/>
     <use xlink:href="#m135a028a10" x="318.430865" y="430.92" style="stroke: #000000"/>
     <use xlink:href="#m135a028a10" x="323.399937" y="78.12" style="stroke: #000000"/>
     <use xlink:href="#m135a028a10" x="328.369008" y="430.92" style="stroke: #000000"/>
     <use xlink:href="#m135a028a10" x="333.33808" y="78.12" style="stroke: #000000"/>
     <use xlink:href="#m135a028a10" x="338.467444" y="430.92" style="stroke: #000000"/>
     <use xlink:href="#m135a028a10" x="343.436515" y="430.92" style="stroke: #000000"/>
     <use xlink:href="#m135a028a10" x="348.405586" y="78.12" style="stroke: #000000"/>
     <use xlink:href="#m135a028a10" x="353.374658" y="430.92" style="stroke: #000000"/>
     <use xlink:href="#m135a028a10" x="358.504022" y="430.92" style="stroke: #000000"/>
     <use xlink:href="#m135a028a10" x="363.473093" y="78.12" style="stroke: #000000"/>
     <use xlink:href="#m135a028a10" x="368.442164" y="430.92" style="stroke: #000000"/>
     <use xlink:href="#m135a028a10" x="373.411236" y="78.12" style="stroke: #000000"/>
     <use xlink:href="#m135a028a10" x="378.5406" y="430.92" style="stroke: #000000"/>
     <use xlink:href="#m135a028a10" x="383.509671" y="430.92" style="stroke: #000000"/>
     <use xlink:href="#m135a028a10" x="388.478743" y="78.12" style="stroke: #000000"/>
     <use xlink:href="#m135a028a10" x="393.447814" y="430.92" style="stroke: #000000"/>
     <use xlink:href="#m135a028a10" x="398.577178" y="430.92" style="stroke: #000000"/>
     <use xlink:href="#m135a028a10" x="403.546249" y="78.12" style="stroke: #000000"/>
     <use xlink:href="#m135a028a10" x="408.515321" y="430.92" style="stroke: #000000"/>
     <use xlink:href="#m135a028a10" x="413.484392" y="78.12" style="stroke: #000000"/>
     <use xlink:href="#m135a028a10" x="418.613756" y="430.92" style="stroke: #000000"/>
     <use xlink:href="#m135a028a10" x="423.582827" y="430.92" style="stroke: #000000"/>
     <use xlink:href="#m135a028a10" x="428.551899" y="78.12" style="stroke: #000000"/>
     <use xlink:href="#m135a028a10" x="433.52097" y="430.92" style="stroke: #000000"/>
     <use xlink:href="#m135a028a10" x="438.650334" y="430.92" style="stroke: #000000"/>
     <use xlink:href="#m135a028a10" x="443.619406" y="78.12" style="stroke: #000000"/>
     <use xlink:href="#m135a028a10" x="448.588477" y="430.92" style="stroke: #000000"/>
     <use xlink:href="#m135a028a10" x="453.557548" y="78.12" style="stroke: #000000"/>
     <use xlink:href="#m135a028a10" x="458.686912" y="430.92" style="stroke: #000000"/>
     <use xlink:href="#m135a028a10" x="463.655984" y="430.92" style="stroke: #000000"/>
     <use xlink:href="#m135a028a10" x="468.625055" y="78.12" style="stroke: #000000"/>
     <use xlink:href="#m135a028a10" x="473.594126" y="430.92" style="stroke: #000000"/>
     <use xlink:href="#m135a028a10" x="478.72349" y="430.92" style="stroke: #000000"/>
     <use xlink:href="#m135a028a10" x="483.692562" y="78.12" style="stroke: #000000"/>
     <use xlink:href="#m135a028a10" x="488.661633" y="430.92" style="stroke: #000000"/>
     <use xlink:href="#m135a028a10" x="493.630705" y="78.12" style="stroke: #000000"/>
     <use xlink:href="#m135a028a10" x="498.760069" y="430.92" style="stroke: #000000"/>
     <use xlink:href="#m135a028a10" x="503.72914" y="430.92" style="stroke: #000000"/>
     <use xlink:href="#m135a028a10" x="508.698211" y="78.12" style="stroke: #000000"/>
     <use xlink:href="#m135a028a10" x="513.667283" y="430.92" style="stroke: #000000"/>
     <use xlink:href="#m135a028a10" x="518.796647" y="430.92" style="stroke: #000000"/>
     <use xlink:href="#m135a028a10" x="523.765718" y="78.12" style="stroke: #000000"/>
     <use xlink:href="#m135a028a10" x="528.734789" y="430.92" style="stroke: #000000"/>
     <use xlink:href="#m135a028a10" x="533.703861" y="78.12" style="stroke: #000000"/>
     <use xlink:href="#m135a028a10" x="538.833225" y="430.92" style="stroke: #000000"/>
     <use xlink:href="#m135a028a10" x="543.802296" y="430.92" style="stroke: #000000"/>
     <use xlink:href="#m135a028a10" x="548.771368" y="78.12" style="stroke: #000000"/>
     <use xlink:href="#m135a028a10" x="553.740439" y="430.92" style="stroke: #000000"/>
     <use xlink:href="#m135a028a10" x="558.869803" y="430.92" style="stroke: #000000"/>
     <use xlink:href="#m135a028a10" x="563.838874" y="78.12" style="stroke: #000000"/>
     <use xlink:href="#m135a028a10" x="568.807946" y="430.92" style="stroke: #000000"/>
     <use xlink:href="#m135a028a10" x="573.777017" y="78.12" style="stroke: #000000"/>
     <use xlink:href="#m135a028a10" x="578.906381" y="430.92" style="stroke: #000000"/>
     <use xlink:href="#m135a028a10" x="583.875452" y="430.92" style="stroke: #000000"/>
     <use xlink:href="#m135a028a10" x="588.844524" y="78.12" style="stroke: #000000"/>
     <use xlink:href="#m135a028a10" x="593.813595" y="430.92" style="stroke: #000000"/>
     <use xlink:href="#m135a028a10" x="598.942959" y="430.92" style="stroke: #000000"/>
     <use xlink:href="#m135a028a10" x="603.912031" y="78.12" style="stroke: #000000"/>
     <use xlink:href="#m135a028a10" x="608.881102" y="430.92" style="stroke: #000000"/>
     <use xlink:href="#m135a028a10" x="613.850173" y="78.12" style="stroke: #000000"/>
     <use xlink:href="#m135a028a10" x="618.979537" y="430.92" style="stroke: #000000"/>
     <use xlink:href="#m135a028a10" x="623.948609" y="430.92" style="stroke: #000000"/>
     <use xlink:href="#m135a028a10" x="628.91768" y="78.12" style="stroke: #000000"/>
     <use xlink:href="#m135a028a10" x="633.886751" y="430.92" style="stroke: #000000"/>
     <use xlink:href="#m135a028a10" x="639.016115" y="430.92" style="stroke: #000000"/>
     <use xlink:href="#m135a028a10" x="643.985187" y="78.12" style="stroke: #000000"/>
     <use xlink:href="#m135a028a10" x="648.954258" y="430.92" style="stroke: #000000"/>
     <use xlink:href="#m135a028a10" x="653.92333" y="78.12" style="stroke: #000000"/>
     <use xlink:href="#m135a028a10" x="659.052694" y="430.92" style="stroke: #000000"/>
     <use xlink:href="#m135a028a10" x="664.021765" y="430.92" style="stroke: #000000"/>
     <use xlink:href="#m135a028a10" x="668.990836" y="78.12" style="stroke: #000000"/>
     <use xlink:href="#m135a028a10" x="673.959908" y="430.92" style="stroke: #000000"/>
     <use xlink:href="#m135a028a10" x="679.089272" y="430.92" style="stroke: #000000"/>
     <use xlink:href="#m135a028a10" x="684.058343" y="78.12" style="stroke: #000000"/>
     <use xlink:href="#m135a028a10" x="689.027414" y="430.92" style="stroke: #000000"/>
     <use xlink:href="#m135a028a10" x="693.996486" y="78.12" style="stroke: #000000"/>
     <use xlink:href="#m135a028a10" x="699.12585" y="430.92" style="stroke: #000000"/>
     <use xlink:href="#m135a028a10" x="704.094921" y="430.92" style="stroke: #000000"/>
     <use xlink:href="#m135a028a10" x="709.063993" y="78.12" style="stroke: #000000"/>
     <use xlink:href="#m135a028a10" x="714.033064" y="430.92" style="stroke: #000000"/>
     <use xlink:href="#m135a028a10" x="719.162428" y="430.92" style="stroke: #000000"/>
     <use xlink:href="#m135a028a10" x="724.131499" y="78.12" style="stroke: #000000"/>
     <use xlink:href="#m135a028a10" x="729.100571" y="430.92" style="stroke: #000000"/>
     <use xlink:href="#m135a028a10" x="734.069642" y="78.12" style="stroke: #000000"/>
     <use xlink:href="#m135a028a10" x="739.199006" y="430.92" style="stroke: #000000"/>
     <use xlink:href="#m135a028a10" x="744.168077" y="430.92" style="stroke: #000000"/>
     <use xlink:href="#m135a028a10" x="749.137149" y="78.12" style="stroke: #000000"/>
     <use xlink:href="#m135a028a10" x="754.10622" y="430.92" style="stroke: #000000"/>
     <use xlink:href="#m135a028a10" x="759.235584" y="430.92" style="stroke: #000000"/>
     <use xlink:href="#m135a028a10" x="764.204656" y="78.12" style="stroke: #000000"/>
     <use xlink:href="#m135a028a10" x="769.173727" y="430.92" style="stroke: #000000"/>
     <use xlink:href="#m135a028a10" x="774.142798" y="78.12" style="stroke: #000000"/>
     <use xlink:href="#m135a028a10" x="779.272162" y="430.92" style="stroke: #000000"/>
     <use xlink:href="#m135a028a10" x="784.241234" y="430.92" style="stroke: #000000"/>
     <use xlink:href="#m135a028a10" x="789.210305" y="78.12" style="stroke: #000000"/>
     <use xlink:href="#m135a028a10" x="794.179376" y="430.92" style="stroke: #000000"/>
     <use xlink:href="#m135a028a10" x="799.30874" y="430.92" style="stroke: #000000"/>
     <use xlink:href="#m135a028a10" x="804.277812" y="78.12" style="stroke: #000000"/>
     <use xlink:href="#m135a028a10" x="809.246883" y="430.92" style="stroke: #000000"/>
     <use xlink:href="#m135a028a10" x="814.215955" y="78.12" style="stroke: #000000"/>
     <use xlink:href="#m135a028a10" x="819.345319" y="430.92" style="stroke: #000000"/>
     <use xlink:href="#m135a028a10" x="824.31439" y="430.92" style="stroke: #000000"/>
     <use xlink:href="#m135a028a10" x="829.283461" y="78.12" style="stroke: #000000"/>
     <use xlink:href="#m135a028a10" x="834.252533" y="430.92" style="stroke: #000000"/>
     <use xlink:href="#m135a028a10" x="839.381897" y="430.92" style="stroke: #000000"/>
     <use xlink:href="#m135a028a10" x="844.350968" y="78.12" style="stroke: #000000"/>
     <use xlink:href="#m135a028a10" x="849.320039" y="430.92" style="stroke: #000000"/>
     <use xlink:href="#m135a028a10" x="854.289111" y="78.12" style="stroke: #000000"/>
     <use xlink:href="#m135a028a10" x="859.418475" y="430.92" style="stroke: #000000"/>
     <use xlink:href="#m135a028a10" x="864.387546" y="430.92" style="stroke: #000000"/>
     <use xlink:href="#m135a028a10" x="869.356618" y="78.12" style="stroke: #000000"/>
     <use xlink:href="#m135a028a10" x="874.325689" y="430.92" style="stroke: #000000"/>
     <use xlink:href="#m135a028a10" x="879.455053" y="430.92" style="stroke: #000000"/>
     <use xlink:href="#m135a028a10" x="884.424124" y="78.12" style="stroke: #000000"/>
     <use xlink:href="#m135a028a10" x="889.393196" y="430.92" style="stroke: #000000"/>
     <use xlink:href="#m135a028a10" x="894.362267" y="78.12" style="stroke: #000000"/>
     <use xlink:href="#m135a028a10" x="899.491631" y="430.92" style="stroke: #000000"/>
     <use xlink:href="#m135a028a10" x="904.460702" y="430.92" style="stroke: #000000"/>
     <use xlink:href="#m135a028a10" x="909.429774" y="78.12" style="stroke: #000000"/>
     <use xlink:href="#m135a028a10" x="914.398845" y="430.92" style="stroke: #000000"/>
     <use xlink:href="#m135a028a10" x="919.528209" y="430.92" style="stroke: #000000"/>
     <use xlink:href="#m135a028a10" x="924.497281" y="78.12" style="stroke: #000000"/>
     <use xlink:href="#m135a028a10" x="929.466352" y="430.92" style="stroke: #000000"/>
    </g>
   </g>
   <g id="patch_3">
    <path d="M 135 448.56 
L 135 60.48 
" style="fill: none; stroke: #000000; stroke-width: 0.8; stroke-linejoin: miter; stroke-linecap: square"/>
   </g>
   <g id="patch_4">
    <path d="M 972 448.56 
L 972 60.48 
" style="fill: none; stroke: #000000; stroke-width: 0.8; stroke-linejoin: miter; stroke-linecap: square"/>
   </g>
   <g id="patch_5">
    <path d="M 135 448.56 
L 972 448.56 
" style="fill: none; stroke: #000000; stroke-width: 0.8; stroke-linejoin: miter; stroke-linecap: square"/>
   </g>
   <g id="patch_6">
    <path d="M 135 60.48 
L 972 60.48 
" style="fill: none; stroke: #000000; stroke-width: 0.8; stroke-linejoin: miter; stroke-linecap: square"/>
   </g>
   <g id="legend_1">
    <g id="patch_7">
     <path d="M 142 278.315313 
L 211.084375 278.315313 
Q 213.084375 278.315313 213.084375 276.315313 
L 213.084375 232.724688 
Q 213.084375 230.724688 211.084375 230.724688 
L 142 230.724688 
Q 140 230.724688 140 232.724688 
L 140 276.315313 
Q 140 278.315313 142 278.315313 
z
" style="fill: #ffffff; opacity: 0.8; stroke: #cccccc; stroke-linejoin: miter"/>
    </g>
    <g id="line2d_15">
     <path d="M 144 238.823125 
L 154 238.823125 
L 164 238.823125 
" style="fill: none; stroke: #1f77b4; stroke-width: 1.5; stroke-linecap: square"/>
    </g>
    <g id="text_13">
     <!-- nw_0 -->
     <g transform="translate(172 242.323125) scale(0.1 -0.1)">
      <defs>
       <path id="DejaVuSans-6e" d="M 3513 2113 
L 3513 0 
L 2938 0 
L 2938 2094 
Q 2938 2591 2744 2837 
Q 2550 3084 2163 3084 
Q 1697 3084 1428 2787 
Q 1159 2491 1159 1978 
L 1159 0 
L 581 0 
L 581 3500 
L 1159 3500 
L 1159 2956 
Q 1366 3272 1645 3428 
Q 1925 3584 2291 3584 
Q 2894 3584 3203 3211 
Q 3513 2838 3513 2113 
z
" transform="scale(0.015625)"/>
       <path id="DejaVuSans-77" d="M 269 3500 
L 844 3500 
L 1563 769 
L 2278 3500 
L 2956 3500 
L 3675 769 
L 4391 3500 
L 4966 3500 
L 4050 0 
L 3372 0 
L 2619 2869 
L 1863 0 
L 1184 0 
L 269 3500 
z
" transform="scale(0.015625)"/>
       <path id="DejaVuSans-5f" d="M 3263 -1063 
L 3263 -1509 
L -63 -1509 
L -63 -1063 
L 3263 -1063 
z
" transform="scale(0.015625)"/>
      </defs>
      <use xlink:href="#DejaVuSans-6e"/>
      <use xlink:href="#DejaVuSans-77" x="63.378906"/>
      <use xlink:href="#DejaVuSans-5f" x="145.166016"/>
      <use xlink:href="#DejaVuSans-30" x="195.166016"/>
     </g>
    </g>
    <g id="line2d_16">
     <path d="M 144 253.779375 
L 154 253.779375 
L 164 253.779375 
" style="fill: none; stroke: #ff7f0e; stroke-width: 1.5; stroke-linecap: square"/>
    </g>
    <g id="text_14">
     <!-- input_0 -->
     <g transform="translate(172 257.279375) scale(0.1 -0.1)">
      <defs>
       <path id="DejaVuSans-69" d="M 603 3500 
L 1178 3500 
L 1178 0 
L 603 0 
L 603 3500 
z
M 603 4863 
L 1178 4863 
L 1178 4134 
L 603 4134 
L 603 4863 
z
" transform="scale(0.015625)"/>
       <path id="DejaVuSans-70" d="M 1159 525 
L 1159 -1331 
L 581 -1331 
L 581 3500 
L 1159 3500 
L 1159 2969 
Q 1341 3281 1617 3432 
Q 1894 3584 2278 3584 
Q 2916 3584 3314 3078 
Q 3713 2572 3713 1747 
Q 3713 922 3314 415 
Q 2916 -91 2278 -91 
Q 1894 -91 1617 61 
Q 1341 213 1159 525 
z
M 3116 1747 
Q 3116 2381 2855 2742 
Q 2594 3103 2138 3103 
Q 1681 3103 1420 2742 
Q 1159 2381 1159 1747 
Q 1159 1113 1420 752 
Q 1681 391 2138 391 
Q 2594 391 2855 752 
Q 3116 1113 3116 1747 
z
" transform="scale(0.015625)"/>
       <path id="DejaVuSans-75" d="M 544 1381 
L 544 3500 
L 1119 3500 
L 1119 1403 
Q 1119 906 1312 657 
Q 1506 409 1894 409 
Q 2359 409 2629 706 
Q 2900 1003 2900 1516 
L 2900 3500 
L 3475 3500 
L 3475 0 
L 2900 0 
L 2900 538 
Q 2691 219 2414 64 
Q 2138 -91 1772 -91 
Q 1169 -91 856 284 
Q 544 659 544 1381 
z
M 1991 3584 
L 1991 3584 
z
" transform="scale(0.015625)"/>
      </defs>
      <use xlink:href="#DejaVuSans-69"/>
      <use xlink:href="#DejaVuSans-6e" x="27.783203"/>
      <use xlink:href="#DejaVuSans-70" x="91.162109"/>
      <use xlink:href="#DejaVuSans-75" x="154.638672"/>
      <use xlink:href="#DejaVuSans-74" x="218.017578"/>
      <use xlink:href="#DejaVuSans-5f" x="257.226562"/>
      <use xlink:href="#DejaVuSans-30" x="307.226562"/>
     </g>
    </g>
    <g id="line2d_17">
     <path d="M 144 268.735625 
L 154 268.735625 
L 164 268.735625 
" style="fill: none; stroke: #000000; stroke-width: 1.5; stroke-linecap: square"/>
     <g>
      <use xlink:href="#m135a028a10" x="154" y="268.735625" style="stroke: #000000"/>
     </g>
    </g>
    <g id="text_15">
     <!-- target -->
     <g transform="translate(172 272.235625) scale(0.1 -0.1)">
      <defs>
       <path id="DejaVuSans-61" d="M 2194 1759 
Q 1497 1759 1228 1600 
Q 959 1441 959 1056 
Q 959 750 1161 570 
Q 1363 391 1709 391 
Q 2188 391 2477 730 
Q 2766 1069 2766 1631 
L 2766 1759 
L 2194 1759 
z
M 3341 1997 
L 3341 0 
L 2766 0 
L 2766 531 
Q 2569 213 2275 61 
Q 1981 -91 1556 -91 
Q 1019 -91 701 211 
Q 384 513 384 1019 
Q 384 1609 779 1909 
Q 1175 2209 1959 2209 
L 2766 2209 
L 2766 2266 
Q 2766 2663 2505 2880 
Q 2244 3097 1772 3097 
Q 1472 3097 1187 3025 
Q 903 2953 641 2809 
L 641 3341 
Q 956 3463 1253 3523 
Q 1550 3584 1831 3584 
Q 2591 3584 2966 3190 
Q 3341 2797 3341 1997 
z
" transform="scale(0.015625)"/>
       <path id="DejaVuSans-72" d="M 2631 2963 
Q 2534 3019 2420 3045 
Q 2306 3072 2169 3072 
Q 1681 3072 1420 2755 
Q 1159 2438 1159 1844 
L 1159 0 
L 581 0 
L 581 3500 
L 1159 3500 
L 1159 2956 
Q 1341 3275 1631 3429 
Q 1922 3584 2338 3584 
Q 2397 3584 2469 3576 
Q 2541 3569 2628 3553 
L 2631 2963 
z
" transform="scale(0.015625)"/>
       <path id="DejaVuSans-67" d="M 2906 1791 
Q 2906 2416 2648 2759 
Q 2391 3103 1925 3103 
Q 1463 3103 1205 2759 
Q 947 2416 947 1791 
Q 947 1169 1205 825 
Q 1463 481 1925 481 
Q 2391 481 2648 825 
Q 2906 1169 2906 1791 
z
M 3481 434 
Q 3481 -459 3084 -895 
Q 2688 -1331 1869 -1331 
Q 1566 -1331 1297 -1286 
Q 1028 -1241 775 -1147 
L 775 -588 
Q 1028 -725 1275 -790 
Q 1522 -856 1778 -856 
Q 2344 -856 2625 -561 
Q 2906 -266 2906 331 
L 2906 616 
Q 2728 306 2450 153 
Q 2172 0 1784 0 
Q 1141 0 747 490 
Q 353 981 353 1791 
Q 353 2603 747 3093 
Q 1141 3584 1784 3584 
Q 2172 3584 2450 3431 
Q 2728 3278 2906 2969 
L 2906 3500 
L 3481 3500 
L 3481 434 
z
" transform="scale(0.015625)"/>
       <path id="DejaVuSans-65" d="M 3597 1894 
L 3597 1613 
L 953 1613 
Q 991 1019 1311 708 
Q 1631 397 2203 397 
Q 2534 397 2845 478 
Q 3156 559 3463 722 
L 3463 178 
Q 3153 47 2828 -22 
Q 2503 -91 2169 -91 
Q 1331 -91 842 396 
Q 353 884 353 1716 
Q 353 2575 817 3079 
Q 1281 3584 2069 3584 
Q 2775 3584 3186 3129 
Q 3597 2675 3597 1894 
z
M 3022 2063 
Q 3016 2534 2758 2815 
Q 2500 3097 2075 3097 
Q 1594 3097 1305 2825 
Q 1016 2553 972 2059 
L 3022 2063 
z
" transform="scale(0.015625)"/>
      </defs>
      <use xlink:href="#DejaVuSans-74"/>
      <use xlink:href="#DejaVuSans-61" x="39.208984"/>
      <use xlink:href="#DejaVuSans-72" x="100.488281"/>
      <use xlink:href="#DejaVuSans-67" x="139.851562"/>
      <use xlink:href="#DejaVuSans-65" x="203.328125"/>
      <use xlink:href="#DejaVuSans-74" x="264.851562"/>
     </g>
    </g>
   </g>
  </g>
 </g>
 <defs>
  <clipPath id="p2edc8f643a">
   <rect x="135" y="60.48" width="837" height="388.08"/>
  </clipPath>
 </defs>
</svg>
