<?xml version="1.0" encoding="utf-8" standalone="no"?>
<!DOCTYPE svg PUBLIC "-//W3C//DTD SVG 1.1//EN"
  "http://www.w3.org/Graphics/SVG/1.1/DTD/svg11.dtd">
<svg xmlns:xlink="http://www.w3.org/1999/xlink" width="1080pt" height="504pt" viewBox="0 0 1080 504" xmlns="http://www.w3.org/2000/svg" version="1.1">
 <metadata>
  <rdf:RDF xmlns:dc="http://purl.org/dc/elements/1.1/" xmlns:cc="http://creativecommons.org/ns#" xmlns:rdf="http://www.w3.org/1999/02/22-rdf-syntax-ns#">
   <cc:Work>
    <dc:type rdf:resource="http://purl.org/dc/dcmitype/StillImage"/>
    <dc:date>2024-05-09T11:12:17.124189</dc:date>
    <dc:format>image/svg+xml</dc:format>
    <dc:creator>
     <cc:Agent>
      <dc:title>Matplotlib v3.7.1, https://matplotlib.org/</dc:title>
     </cc:Agent>
    </dc:creator>
   </cc:Work>
  </rdf:RDF>
 </metadata>
 <defs>
  <style type="text/css">*{stroke-linejoin: round; stroke-linecap: butt}</style>
 </defs>
 <g id="figure_1">
  <g id="patch_1">
   <path d="M 0 504 
L 1080 504 
L 1080 0 
L 0 0 
z
" style="fill: #ffffff"/>
  </g>
  <g id="axes_1">
   <g id="patch_2">
    <path d="M 135 448.56 
L 972 448.56 
L 972 60.48 
L 135 60.48 
z
" style="fill: #ffffff"/>
   </g>
   <g id="matplotlib.axis_1">
    <g id="xtick_1">
     <g id="line2d_1">
      <defs>
       <path id="macc56b2a95" d="M 0 0 
L 0 3.5 
" style="stroke: #000000; stroke-width: 0.8"/>
      </defs>
      <g>
       <use xlink:href="#macc56b2a95" x="173.045455" y="448.56" style="stroke: #000000; stroke-width: 0.8"/>
      </g>
     </g>
     <g id="text_1">
      <!-- 0 -->
      <g transform="translate(169.864205 463.158437) scale(0.1 -0.1)">
       <defs>
        <path id="DejaVuSans-30" d="M 2034 4250 
Q 1547 4250 1301 3770 
Q 1056 3291 1056 2328 
Q 1056 1369 1301 889 
Q 1547 409 2034 409 
Q 2525 409 2770 889 
Q 3016 1369 3016 2328 
Q 3016 3291 2770 3770 
Q 2525 4250 2034 4250 
z
M 2034 4750 
Q 2819 4750 3233 4129 
Q 3647 3509 3647 2328 
Q 3647 1150 3233 529 
Q 2819 -91 2034 -91 
Q 1250 -91 836 529 
Q 422 1150 422 2328 
Q 422 3509 836 4129 
Q 1250 4750 2034 4750 
z
" transform="scale(0.015625)"/>
       </defs>
       <use xlink:href="#DejaVuSans-30"/>
      </g>
     </g>
    </g>
    <g id="xtick_2">
     <g id="line2d_2">
      <g>
       <use xlink:href="#macc56b2a95" x="333.33808" y="448.56" style="stroke: #000000; stroke-width: 0.8"/>
      </g>
     </g>
     <g id="text_2">
      <!-- 1000 -->
      <g transform="translate(320.61308 463.158437) scale(0.1 -0.1)">
       <defs>
        <path id="DejaVuSans-31" d="M 794 531 
L 1825 531 
L 1825 4091 
L 703 3866 
L 703 4441 
L 1819 4666 
L 2450 4666 
L 2450 531 
L 3481 531 
L 3481 0 
L 794 0 
L 794 531 
z
" transform="scale(0.015625)"/>
       </defs>
       <use xlink:href="#DejaVuSans-31"/>
       <use xlink:href="#DejaVuSans-30" x="63.623047"/>
       <use xlink:href="#DejaVuSans-30" x="127.246094"/>
       <use xlink:href="#DejaVuSans-30" x="190.869141"/>
      </g>
     </g>
    </g>
    <g id="xtick_3">
     <g id="line2d_3">
      <g>
       <use xlink:href="#macc56b2a95" x="493.630705" y="448.56" style="stroke: #000000; stroke-width: 0.8"/>
      </g>
     </g>
     <g id="text_3">
      <!-- 2000 -->
      <g transform="translate(480.905705 463.158437) scale(0.1 -0.1)">
       <defs>
        <path id="DejaVuSans-32" d="M 1228 531 
L 3431 531 
L 3431 0 
L 469 0 
L 469 531 
Q 828 903 1448 1529 
Q 2069 2156 2228 2338 
Q 2531 2678 2651 2914 
Q 2772 3150 2772 3378 
Q 2772 3750 2511 3984 
Q 2250 4219 1831 4219 
Q 1534 4219 1204 4116 
Q 875 4013 500 3803 
L 500 4441 
Q 881 4594 1212 4672 
Q 1544 4750 1819 4750 
Q 2544 4750 2975 4387 
Q 3406 4025 3406 3419 
Q 3406 3131 3298 2873 
Q 3191 2616 2906 2266 
Q 2828 2175 2409 1742 
Q 1991 1309 1228 531 
z
" transform="scale(0.015625)"/>
       </defs>
       <use xlink:href="#DejaVuSans-32"/>
       <use xlink:href="#DejaVuSans-30" x="63.623047"/>
       <use xlink:href="#DejaVuSans-30" x="127.246094"/>
       <use xlink:href="#DejaVuSans-30" x="190.869141"/>
      </g>
     </g>
    </g>
    <g id="xtick_4">
     <g id="line2d_4">
      <g>
       <use xlink:href="#macc56b2a95" x="653.92333" y="448.56" style="stroke: #000000; stroke-width: 0.8"/>
      </g>
     </g>
     <g id="text_4">
      <!-- 3000 -->
      <g transform="translate(641.19833 463.158437) scale(0.1 -0.1)">
       <defs>
        <path id="DejaVuSans-33" d="M 2597 2516 
Q 3050 2419 3304 2112 
Q 3559 1806 3559 1356 
Q 3559 666 3084 287 
Q 2609 -91 1734 -91 
Q 1441 -91 1130 -33 
Q 819 25 488 141 
L 488 750 
Q 750 597 1062 519 
Q 1375 441 1716 441 
Q 2309 441 2620 675 
Q 2931 909 2931 1356 
Q 2931 1769 2642 2001 
Q 2353 2234 1838 2234 
L 1294 2234 
L 1294 2753 
L 1863 2753 
Q 2328 2753 2575 2939 
Q 2822 3125 2822 3475 
Q 2822 3834 2567 4026 
Q 2313 4219 1838 4219 
Q 1578 4219 1281 4162 
Q 984 4106 628 3988 
L 628 4550 
Q 988 4650 1302 4700 
Q 1616 4750 1894 4750 
Q 2613 4750 3031 4423 
Q 3450 4097 3450 3541 
Q 3450 3153 3228 2886 
Q 3006 2619 2597 2516 
z
" transform="scale(0.015625)"/>
       </defs>
       <use xlink:href="#DejaVuSans-33"/>
       <use xlink:href="#DejaVuSans-30" x="63.623047"/>
       <use xlink:href="#DejaVuSans-30" x="127.246094"/>
       <use xlink:href="#DejaVuSans-30" x="190.869141"/>
      </g>
     </g>
    </g>
    <g id="xtick_5">
     <g id="line2d_5">
      <g>
       <use xlink:href="#macc56b2a95" x="814.215955" y="448.56" style="stroke: #000000; stroke-width: 0.8"/>
      </g>
     </g>
     <g id="text_5">
      <!-- 4000 -->
      <g transform="translate(801.490955 463.158437) scale(0.1 -0.1)">
       <defs>
        <path id="DejaVuSans-34" d="M 2419 4116 
L 825 1625 
L 2419 1625 
L 2419 4116 
z
M 2253 4666 
L 3047 4666 
L 3047 1625 
L 3713 1625 
L 3713 1100 
L 3047 1100 
L 3047 0 
L 2419 0 
L 2419 1100 
L 313 1100 
L 313 1709 
L 2253 4666 
z
" transform="scale(0.015625)"/>
       </defs>
       <use xlink:href="#DejaVuSans-34"/>
       <use xlink:href="#DejaVuSans-30" x="63.623047"/>
       <use xlink:href="#DejaVuSans-30" x="127.246094"/>
       <use xlink:href="#DejaVuSans-30" x="190.869141"/>
      </g>
     </g>
    </g>
    <g id="text_6">
     <!-- t -->
     <g transform="translate(551.539844 476.836563) scale(0.1 -0.1)">
      <defs>
       <path id="DejaVuSans-74" d="M 1172 4494 
L 1172 3500 
L 2356 3500 
L 2356 3053 
L 1172 3053 
L 1172 1153 
Q 1172 725 1289 603 
Q 1406 481 1766 481 
L 2356 481 
L 2356 0 
L 1766 0 
Q 1100 0 847 248 
Q 594 497 594 1153 
L 594 3053 
L 172 3053 
L 172 3500 
L 594 3500 
L 594 4494 
L 1172 4494 
z
" transform="scale(0.015625)"/>
      </defs>
      <use xlink:href="#DejaVuSans-74"/>
     </g>
    </g>
   </g>
   <g id="matplotlib.axis_2">
    <g id="ytick_1">
     <g id="line2d_6">
      <defs>
       <path id="m99af16a906" d="M 0 0 
L -3.5 0 
" style="stroke: #000000; stroke-width: 0.8"/>
      </defs>
      <g>
       <use xlink:href="#m99af16a906" x="135" y="430.92" style="stroke: #000000; stroke-width: 0.8"/>
      </g>
     </g>
     <g id="text_7">
      <!-- 0.0 -->
      <g transform="translate(112.096875 434.719219) scale(0.1 -0.1)">
       <defs>
        <path id="DejaVuSans-2e" d="M 684 794 
L 1344 794 
L 1344 0 
L 684 0 
L 684 794 
z
" transform="scale(0.015625)"/>
       </defs>
       <use xlink:href="#DejaVuSans-30"/>
       <use xlink:href="#DejaVuSans-2e" x="63.623047"/>
       <use xlink:href="#DejaVuSans-30" x="95.410156"/>
      </g>
     </g>
    </g>
    <g id="ytick_2">
     <g id="line2d_7">
      <g>
       <use xlink:href="#m99af16a906" x="135" y="360.36" style="stroke: #000000; stroke-width: 0.8"/>
      </g>
     </g>
     <g id="text_8">
      <!-- 0.2 -->
      <g transform="translate(112.096875 364.159219) scale(0.1 -0.1)">
       <use xlink:href="#DejaVuSans-30"/>
       <use xlink:href="#DejaVuSans-2e" x="63.623047"/>
       <use xlink:href="#DejaVuSans-32" x="95.410156"/>
      </g>
     </g>
    </g>
    <g id="ytick_3">
     <g id="line2d_8">
      <g>
       <use xlink:href="#m99af16a906" x="135" y="289.8" style="stroke: #000000; stroke-width: 0.8"/>
      </g>
     </g>
     <g id="text_9">
      <!-- 0.4 -->
      <g transform="translate(112.096875 293.599219) scale(0.1 -0.1)">
       <use xlink:href="#DejaVuSans-30"/>
       <use xlink:href="#DejaVuSans-2e" x="63.623047"/>
       <use xlink:href="#DejaVuSans-34" x="95.410156"/>
      </g>
     </g>
    </g>
    <g id="ytick_4">
     <g id="line2d_9">
      <g>
       <use xlink:href="#m99af16a906" x="135" y="219.24" style="stroke: #000000; stroke-width: 0.8"/>
      </g>
     </g>
     <g id="text_10">
      <!-- 0.6 -->
      <g transform="translate(112.096875 223.039219) scale(0.1 -0.1)">
       <defs>
        <path id="DejaVuSans-36" d="M 2113 2584 
Q 1688 2584 1439 2293 
Q 1191 2003 1191 1497 
Q 1191 994 1439 701 
Q 1688 409 2113 409 
Q 2538 409 2786 701 
Q 3034 994 3034 1497 
Q 3034 2003 2786 2293 
Q 2538 2584 2113 2584 
z
M 3366 4563 
L 3366 3988 
Q 3128 4100 2886 4159 
Q 2644 4219 2406 4219 
Q 1781 4219 1451 3797 
Q 1122 3375 1075 2522 
Q 1259 2794 1537 2939 
Q 1816 3084 2150 3084 
Q 2853 3084 3261 2657 
Q 3669 2231 3669 1497 
Q 3669 778 3244 343 
Q 2819 -91 2113 -91 
Q 1303 -91 875 529 
Q 447 1150 447 2328 
Q 447 3434 972 4092 
Q 1497 4750 2381 4750 
Q 2619 4750 2861 4703 
Q 3103 4656 3366 4563 
z
" transform="scale(0.015625)"/>
       </defs>
       <use xlink:href="#DejaVuSans-30"/>
       <use xlink:href="#DejaVuSans-2e" x="63.623047"/>
       <use xlink:href="#DejaVuSans-36" x="95.410156"/>
      </g>
     </g>
    </g>
    <g id="ytick_5">
     <g id="line2d_10">
      <g>
       <use xlink:href="#m99af16a906" x="135" y="148.68" style="stroke: #000000; stroke-width: 0.8"/>
      </g>
     </g>
     <g id="text_11">
      <!-- 0.8 -->
      <g transform="translate(112.096875 152.479219) scale(0.1 -0.1)">
       <defs>
        <path id="DejaVuSans-38" d="M 2034 2216 
Q 1584 2216 1326 1975 
Q 1069 1734 1069 1313 
Q 1069 891 1326 650 
Q 1584 409 2034 409 
Q 2484 409 2743 651 
Q 3003 894 3003 1313 
Q 3003 1734 2745 1975 
Q 2488 2216 2034 2216 
z
M 1403 2484 
Q 997 2584 770 2862 
Q 544 3141 544 3541 
Q 544 4100 942 4425 
Q 1341 4750 2034 4750 
Q 2731 4750 3128 4425 
Q 3525 4100 3525 3541 
Q 3525 3141 3298 2862 
Q 3072 2584 2669 2484 
Q 3125 2378 3379 2068 
Q 3634 1759 3634 1313 
Q 3634 634 3220 271 
Q 2806 -91 2034 -91 
Q 1263 -91 848 271 
Q 434 634 434 1313 
Q 434 1759 690 2068 
Q 947 2378 1403 2484 
z
M 1172 3481 
Q 1172 3119 1398 2916 
Q 1625 2713 2034 2713 
Q 2441 2713 2670 2916 
Q 2900 3119 2900 3481 
Q 2900 3844 2670 4047 
Q 2441 4250 2034 4250 
Q 1625 4250 1398 4047 
Q 1172 3844 1172 3481 
z
" transform="scale(0.015625)"/>
       </defs>
       <use xlink:href="#DejaVuSans-30"/>
       <use xlink:href="#DejaVuSans-2e" x="63.623047"/>
       <use xlink:href="#DejaVuSans-38" x="95.410156"/>
      </g>
     </g>
    </g>
    <g id="ytick_6">
     <g id="line2d_11">
      <g>
       <use xlink:href="#m99af16a906" x="135" y="78.12" style="stroke: #000000; stroke-width: 0.8"/>
      </g>
     </g>
     <g id="text_12">
      <!-- 1.0 -->
      <g transform="translate(112.096875 81.919219) scale(0.1 -0.1)">
       <use xlink:href="#DejaVuSans-31"/>
       <use xlink:href="#DejaVuSans-2e" x="63.623047"/>
       <use xlink:href="#DejaVuSans-30" x="95.410156"/>
      </g>
     </g>
    </g>
   </g>
   <g id="line2d_12">
    <path d="M 173.045455 420.520606 
L 173.686625 385.837712 
L 174.327796 361.413823 
L 174.808673 349.216041 
L 175.289551 341.816165 
L 175.610137 339.360144 
L 175.770429 338.834716 
L 175.930722 338.760238 
L 176.091014 339.123947 
L 176.4116 341.116113 
L 176.732185 344.714027 
L 177.213063 352.918485 
L 177.854233 368.728632 
L 178.655696 388.02677 
L 179.45716 402.550146 
L 180.258623 413.005331 
L 180.899793 418.860452 
L 181.540964 422.793534 
L 182.021842 424.635912 
L 182.502719 425.63824 
L 182.823305 425.884491 
L 183.14389 425.82241 
L 183.464475 425.475551 
L 183.945353 424.469724 
L 184.586524 422.329912 
L 185.387987 418.580527 
L 186.349742 412.842134 
L 187.632083 403.700823 
L 189.715888 386.885813 
L 193.723203 354.365682 
L 195.646715 340.706633 
L 197.249641 330.792995 
L 198.692275 323.126292 
L 200.134908 316.687375 
L 201.417249 311.993814 
L 202.539298 308.666453 
L 203.661346 306.044095 
L 204.623102 304.336667 
L 205.584857 303.106953 
L 206.386321 302.43142 
L 207.187784 302.059175 
L 207.989247 301.976418 
L 208.79071 302.169029 
L 209.592173 302.622686 
L 210.393636 303.322982 
L 211.355392 304.468617 
L 212.47744 306.194879 
L 213.278903 307.664541 
L 213.920074 273.109444 
L 214.561244 249.043191 
L 215.042122 237.252101 
L 215.523 230.368626 
L 215.843585 228.314083 
L 216.003878 228.005757 
L 216.164171 228.158948 
L 216.324463 228.760644 
L 216.645049 231.258771 
L 217.125926 238.058903 
L 217.606804 248.24141 
L 218.56856 275.587262 
L 219.530316 298.322044 
L 220.331779 312.503362 
L 221.133242 323.052779 
L 221.934705 330.541045 
L 222.575876 334.665287 
L 223.217046 337.377058 
L 223.697924 338.606494 
L 224.178802 339.233012 
L 224.499387 339.351066 
L 224.819972 339.252439 
L 225.30085 338.738379 
L 225.781728 337.836176 
L 226.422899 336.120608 
L 227.224362 333.309442 
L 228.34641 328.46792 
L 230.109629 319.654673 
L 233.796359 300.992766 
L 235.399286 294.072442 
L 236.841919 288.822283 
L 238.12426 285.022865 
L 239.246309 282.398514 
L 240.208064 280.67523 
L 241.16982 279.434559 
L 241.971283 278.76328 
L 242.772746 278.413968 
L 243.413917 278.360325 
L 244.055087 278.501723 
L 244.856551 278.943948 
L 245.658014 279.669829 
L 246.619769 280.897207 
L 247.581525 282.491357 
L 248.703574 284.782795 
L 249.985915 287.923322 
L 251.428548 292.052398 
L 253.191767 297.841501 
L 253.99323 300.706673 
L 254.634401 267.475169 
L 255.275571 244.6465 
L 255.756449 233.730183 
L 256.237327 227.677987 
L 256.557912 226.154458 
L 256.718205 226.104906 
L 256.878497 226.512477 
L 257.199083 228.647476 
L 257.519668 232.458948 
L 258.000546 241.109395 
L 258.641716 257.641859 
L 259.924057 293.9624 
L 260.72552 310.671996 
L 261.526984 323.428889 
L 262.328447 332.839186 
L 263.12991 339.433747 
L 263.77108 342.99591 
L 264.412251 345.263971 
L 264.893129 346.229526 
L 265.374007 346.644983 
L 265.694592 346.649112 
L 266.015177 346.456311 
L 266.496055 345.835082 
L 267.137225 344.469414 
L 267.938689 342.05796 
L 268.900444 338.386094 
L 270.343078 331.864656 
L 275.472442 307.632366 
L 276.915076 302.126842 
L 278.197417 298.023549 
L 279.319465 295.092198 
L 280.441513 292.796118 
L 281.403269 291.337185 
L 282.204732 290.477602 
L 283.006195 289.936522 
L 283.647366 289.728267 
L 284.288536 289.714934 
L 284.929707 289.891539 
L 285.73117 290.371028 
L 286.532633 291.127186 
L 287.494389 292.382412 
L 288.456145 293.995966 
L 289.578193 296.300452 
L 290.860534 299.444701 
L 292.303168 303.565618 
L 293.585509 307.685675 
L 294.226679 274.195118 
L 294.86785 251.076582 
L 295.348727 239.925704 
L 295.829605 233.626544 
L 296.150191 231.932474 
L 296.310483 231.796098 
L 296.470776 232.115906 
L 296.791361 234.072832 
L 297.111946 237.703289 
L 297.592824 246.077847 
L 298.233995 262.236949 
L 299.516336 298.312144 
L 300.317799 314.918129 
L 301.119262 327.575418 
L 301.920725 336.890256 
L 302.722188 343.393603 
L 303.363359 346.885895 
L 304.004529 349.086863 
L 304.485407 350.003925 
L 304.805992 350.306377 
L 305.126578 350.384952 
L 305.447163 350.258343 
L 305.928041 349.722019 
L 306.408919 348.818852 
L 307.050089 347.13093 
L 307.851552 344.393546 
L 308.973601 339.712809 
L 310.736819 331.244264 
L 314.263257 314.160647 
L 315.866183 307.517107 
L 317.308817 302.482052 
L 318.591158 298.847433 
L 319.713206 296.347751 
L 320.674962 294.717531 
L 321.476425 293.718735 
L 322.277888 293.042431 
L 323.079352 292.682091 
L 323.720522 292.615777 
L 324.361693 292.741441 
L 325.163156 293.160147 
L 325.964619 293.858721 
L 326.926375 295.048995 
L 327.88813 296.601972 
L 329.010179 298.841029 
L 330.29252 301.916897 
L 331.735153 305.968154 
L 333.498372 311.656022 
L 333.818957 312.766879 
L 334.460128 278.768893 
L 335.101298 255.159345 
L 335.582176 243.652584 
L 336.063054 237.009339 
L 336.383639 235.092936 
L 336.543932 234.84762 
L 336.704225 235.060019 
L 337.02481 236.806856 
L 337.345395 240.233749 
L 337.826273 248.315748 
L 338.467444 264.10987 
L 339.910077 304.117641 
L 340.71154 320.079371 
L 341.513003 332.2027 
L 342.314467 341.077379 
L 342.955637 346.187406 
L 343.596808 349.784149 
L 344.237978 352.077452 
L 344.718856 353.055816 
L 345.199734 353.478862 
L 345.520319 353.485169 
L 345.840904 353.29226 
L 346.321782 352.666621 
L 346.962953 351.287254 
L 347.764416 348.84639 
L 348.726172 345.121802 
L 350.168805 338.487463 
L 355.618754 312.219739 
L 357.061388 306.654047 
L 358.343729 302.498996 
L 359.465777 299.518502 
L 360.587826 297.166448 
L 361.549582 295.652388 
L 362.351045 294.741025 
L 363.152508 294.142388 
L 363.953971 293.849064 
L 364.595141 293.828251 
L 365.236312 293.991945 
L 366.037775 294.447436 
L 366.839238 295.170684 
L 367.800994 296.374515 
L 368.923042 298.213812 
L 370.045091 300.486469 
L 371.327432 303.566686 
L 372.930358 308.059915 
L 373.090651 308.544788 
L 373.731821 274.574471 
L 374.372992 250.981496 
L 374.853869 239.482262 
L 375.334747 232.844219 
L 375.655333 230.930828 
L 375.815625 230.687068 
L 375.975918 230.901138 
L 376.296503 232.65191 
L 376.617088 236.083931 
L 377.097966 244.176895 
L 377.739137 259.99417 
L 379.18177 299.731594 
L 379.983233 315.542127 
L 380.784697 327.528526 
L 381.58616 336.278304 
L 382.22733 341.295739 
L 382.868501 344.805432 
L 383.509671 347.016424 
L 383.990549 347.935732 
L 384.311134 348.237029 
L 384.63172 348.312255 
L 384.952305 348.180045 
L 385.433183 347.630999 
L 385.914061 346.709809 
L 386.555231 344.989443 
L 387.356694 342.197779 
L 388.478743 337.415262 
L 390.241961 328.726768 
L 394.088984 309.520405 
L 395.691911 302.702069 
L 397.134544 297.505968 
L 398.416885 293.717552 
L 399.538934 291.071633 
L 400.500689 289.305972 
L 401.462445 288.00083 
L 402.263908 287.259178 
L 403.065371 286.824713 
L 403.706542 286.692601 
L 404.347712 286.746615 
L 405.149176 287.067513 
L 405.950639 287.659191 
L 406.912394 288.709422 
L 407.87415 290.109922 
L 408.996199 292.156092 
L 410.27854 294.992984 
L 411.721173 298.753786 
L 413.324099 303.548003 
L 413.644685 304.575795 
L 414.285855 270.925274 
L 414.927026 247.626982 
L 415.407904 236.335685 
L 415.888781 229.89699 
L 416.209367 228.112868 
L 416.369659 227.932906 
L 416.529952 228.210325 
L 416.850537 230.086777 
L 417.171122 233.643651 
L 417.652 241.923702 
L 418.293171 257.993187 
L 419.575512 294.422331 
L 420.376975 311.288906 
L 421.178438 324.196089 
L 421.979901 333.74411 
L 422.781364 340.458978 
L 423.422535 344.102175 
L 424.063705 346.435953 
L 424.544583 347.43993 
L 425.025461 347.883977 
L 425.346046 347.901512 
L 425.666632 347.717481 
L 426.147509 347.100545 
L 426.78868 345.723731 
L 427.590143 343.270775 
L 428.551899 339.508311 
L 429.994532 332.768042 
L 436.085652 302.848082 
L 437.528286 297.310876 
L 438.810627 293.181145 
L 439.932675 290.213108 
L 441.054724 287.85857 
L 442.016479 286.327489 
L 442.978235 285.239029 
L 443.779698 284.662293 
L 444.581161 284.377271 
L 445.382624 284.374559 
L 446.184088 284.643707 
L 446.985551 285.173443 
L 447.947306 286.136295 
L 448.909062 287.435762 
L 450.031111 289.347755 
L 451.313452 292.011345 
L 452.756085 295.554153 
L 453.557548 297.745831 
L 454.198719 264.608625 
L 454.839889 241.765909 
L 455.320767 230.78391 
L 455.801645 224.630955 
L 456.12223 223.02606 
L 456.282523 222.932731 
L 456.442816 223.294972 
L 456.763401 225.336145 
L 457.083986 229.052014 
L 457.564864 237.561963 
L 458.206034 253.926844 
L 459.488375 290.255436 
L 460.450131 309.910895 
L 461.251594 322.059934 
L 462.053057 330.984943 
L 462.694228 336.14671 
L 463.335398 339.800905 
L 463.976569 342.153755 
L 464.457447 343.17624 
L 464.938325 343.641622 
L 465.25891 343.674638 
L 465.579495 343.506891 
L 466.060373 342.915528 
L 466.701544 341.574175 
L 467.503007 339.166239 
L 468.464762 335.456453 
L 469.747103 329.573268 
L 472.311785 316.470949 
L 474.716175 304.602985 
L 476.479394 296.999495 
L 477.922027 291.719697 
L 479.204368 287.818489 
L 480.326417 285.042109 
L 481.448465 282.866343 
L 482.410221 281.475469 
L 483.211684 280.64444 
L 484.013147 280.10435 
L 484.81461 279.846843 
L 485.616073 279.862383 
L 486.417536 280.140483 
L 487.219 280.66991 
L 488.180755 281.62033 
L 489.142511 282.89449 
L 490.264559 284.761216 
L 491.5469 287.353251 
L 492.989534 290.791852 
L 493.630705 292.479444 
L 494.271875 259.952 
L 494.913046 237.635173 
L 495.393923 227.000356 
L 495.874801 221.159906 
L 496.195387 219.746551 
L 496.355679 219.744491 
L 496.515972 220.195229 
L 496.836557 222.405761 
L 497.317435 228.815551 
L 497.798313 238.665064 
L 498.439483 256.649304 
L 499.401239 284.220776 
L 500.362995 305.00915 
L 501.164458 318.000546 
L 501.965921 327.683197 
L 502.767384 334.570901 
L 503.408555 338.372664 
L 504.049725 340.877807 
L 504.530603 342.016118 
L 505.011481 342.59766 
L 505.332066 342.70788 
L 505.652651 342.616876 
L 506.133529 342.139298 
L 506.614407 341.298645 
L 507.255578 339.695315 
L 508.057041 337.057875 
L 509.179089 332.49002 
L 510.782015 324.891767 
L 515.430502 302.245872 
L 517.033428 295.685355 
L 518.476061 290.662967 
L 519.758402 286.964131 
L 520.880451 284.338501 
L 522.002499 282.285512 
L 522.964255 280.976014 
L 523.765718 280.195368 
L 524.567181 279.689573 
L 525.368644 279.450227 
L 526.170107 279.46789 
L 526.971571 279.732294 
L 527.773034 280.23253 
L 528.734789 281.128042 
L 529.696545 282.326403 
L 530.818594 284.079567 
L 532.100935 286.510721 
L 533.543568 289.731875 
L 533.864153 290.510956 
L 534.505324 258.643256 
L 535.146494 236.863745 
L 535.627372 226.562245 
L 536.10825 221.003216 
L 536.428835 219.75193 
L 536.589128 219.823947 
L 536.749421 220.344429 
L 537.070006 222.682323 
L 537.550884 229.256031 
L 538.031762 239.24175 
L 538.672932 257.373276 
L 539.634688 284.794769 
L 540.596444 305.533999 
L 541.397907 318.545539 
L 542.19937 328.292007 
L 543.000833 335.277496 
L 543.642004 339.176203 
L 544.283174 341.790751 
L 544.764052 343.017223 
L 545.24493 343.690709 
L 545.565515 343.863737 
L 545.8861 343.836369 
L 546.206686 343.624977 
L 546.687563 342.996407 
L 547.328734 341.651254 
L 548.130197 339.298721 
L 549.091953 335.721976 
L 550.534586 329.339036 
L 556.946291 299.46807 
L 558.388925 294.205956 
L 559.671266 290.238507 
L 560.953607 286.97214 
L 562.075655 284.696682 
L 563.037411 283.175898 
L 563.999167 282.043949 
L 564.80063 281.389969 
L 565.602093 280.990873 
L 566.403556 280.837949 
L 567.205019 280.921663 
L 568.006483 281.231834 
L 568.968238 281.887918 
L 569.929994 282.835639 
L 571.052042 284.283845 
L 572.334383 286.35224 
L 573.777017 289.150387 
L 574.257895 290.183179 
L 574.899065 258.957896 
L 575.540236 237.669652 
L 576.021114 227.650166 
L 576.501992 222.308319 
L 576.822577 221.169658 
L 576.98287 221.289164 
L 577.143162 221.851604 
L 577.463747 224.257844 
L 577.944625 230.898811 
L 578.425503 240.915035 
L 579.066674 259.040078 
L 580.028429 286.157269 
L 580.990185 306.725558 
L 581.791648 319.677167 
L 582.593111 329.424267 
L 583.394575 336.459102 
L 584.035745 340.425335 
L 584.676916 343.127209 
L 585.157793 344.429621 
L 585.638671 345.186203 
L 585.959257 345.417872 
L 586.279842 345.451266 
L 586.600427 345.302373 
L 587.081305 344.770035 
L 587.722475 343.556114 
L 588.523939 341.369038 
L 589.485694 337.987737 
L 590.768035 332.601857 
L 593.172425 321.268674 
L 595.897399 308.666281 
L 597.660618 301.480668 
L 599.263544 295.887197 
L 600.545885 292.131146 
L 601.828226 289.041113 
L 602.950275 286.887459 
L 603.912031 285.445381 
L 604.873786 284.367725 
L 605.835542 283.643456 
L 606.637005 283.30029 
L 607.438468 283.184638 
L 608.239931 283.287155 
L 609.041395 283.597981 
L 610.00315 284.231501 
L 610.964906 285.132045 
L 612.086954 286.495507 
L 613.209003 288.167775 
L 613.850173 257.544171 
L 614.491344 236.699819 
L 614.972222 226.922446 
L 615.4531 221.754099 
L 615.773685 220.696821 
L 615.933977 220.847552 
L 616.09427 221.435256 
L 616.414855 223.875151 
L 616.895733 230.528046 
L 617.376611 240.515426 
L 618.017782 258.548482 
L 618.979537 285.036529 
L 619.941293 305.142535 
L 620.742756 317.816401 
L 621.544219 327.368417 
L 622.345682 334.278345 
L 622.986853 338.187697 
L 623.628023 340.865418 
L 624.108901 342.168416 
L 624.589779 342.939629 
L 625.070657 343.238797 
L 625.391242 343.203268 
L 625.87212 342.835316 
L 626.352998 342.131655 
L 626.994169 340.745828 
L 627.795632 338.422921 
L 628.91768 334.346203 
L 630.520606 327.486752 
L 635.810263 304.0494 
L 637.413189 298.183432 
L 638.855823 293.686588 
L 640.138164 290.356385 
L 641.260212 287.968961 
L 642.382261 286.071432 
L 643.344016 284.828023 
L 644.305772 283.928488 
L 645.267528 283.361014 
L 646.068991 283.131902 
L 646.870454 283.115099 
L 647.671917 283.301294 
L 648.633673 283.778969 
L 649.595429 284.5176 
L 650.717477 285.685537 
L 651.999818 287.389422 
L 653.442452 289.726655 
L 653.92333 290.594937 
L 654.5645 260.266934 
L 655.205671 239.577086 
L 655.686548 229.835227 
L 656.167426 224.642263 
L 656.488012 223.538773 
L 656.648304 223.658222 
L 656.808597 224.209517 
L 657.129182 226.562149 
L 657.61006 233.051377 
L 658.090938 242.840778 
L 658.732108 260.565446 
L 659.693864 286.91435 
L 660.65562 307.003097 
L 661.457083 319.73622 
L 662.258546 329.400033 
L 663.060009 336.462597 
L 663.70118 340.516584 
L 664.34235 343.353982 
L 664.983521 345.140752 
L 665.464399 345.881274 
L 665.945276 346.171366 
L 666.265862 346.140416 
L 666.74674 345.793362 
L 667.227617 345.125316 
L 667.868788 343.806098 
L 668.670251 341.590686 
L 669.792299 337.695714 
L 671.395226 331.127475 
L 676.845175 307.924255 
L 678.448101 302.289012 
L 679.890735 297.95434 
L 681.173076 294.72774 
L 682.455417 292.103019 
L 683.577465 290.297447 
L 684.539221 289.107135 
L 685.500977 288.23702 
L 686.462732 287.675668 
L 687.264196 287.434295 
L 688.065659 287.389936 
L 689.027414 287.584376 
L 689.98917 288.034035 
L 690.950926 288.722623 
L 692.072974 289.805881 
L 693.355315 291.380723 
L 694.156778 292.530922 
L 694.797949 262.402916 
L 695.439119 241.792669 
L 695.919997 232.041622 
L 696.400875 226.787681 
L 696.72146 225.61776 
L 696.881753 225.696896 
L 697.042046 226.203415 
L 697.362631 228.453888 
L 697.843509 234.761139 
L 698.324387 244.338263 
L 698.965557 261.740245 
L 699.927313 287.525886 
L 700.889069 307.191451 
L 701.690532 319.662183 
L 702.491995 329.133092 
L 703.293458 336.061873 
L 703.934629 340.045208 
L 704.575799 342.839729 
L 705.21697 344.607621 
L 705.697847 345.347676 
L 706.178725 345.647574 
L 706.499311 345.628268 
L 706.980188 345.305506 
L 707.461066 344.669014 
L 708.102237 343.401498 
L 708.9037 341.263297 
L 710.025748 337.493625 
L 711.628675 331.124697 
L 717.078624 308.581584 
L 718.68155 303.098634 
L 720.124184 298.877467 
L 721.406525 295.731847 
L 722.688866 293.168936 
L 723.810914 291.401715 
L 724.932962 290.068305 
L 725.894718 289.259698 
L 726.856474 288.747677 
L 727.81823 288.519201 
L 728.779985 288.560046 
L 729.741741 288.855137 
L 730.703497 289.388825 
L 731.825545 290.291683 
L 733.107886 291.661682 
L 734.069642 292.904022 
L 734.710813 262.846185 
L 735.351983 242.224505 
L 735.832861 232.418479 
L 736.313739 227.074894 
L 736.634324 225.828057 
L 736.794617 225.864035 
L 736.954909 226.324452 
L 737.275495 228.474431 
L 737.756372 234.612164 
L 738.23725 244.000155 
L 738.878421 261.124648 
L 739.840177 286.585005 
L 740.801932 306.027671 
L 741.603395 318.378262 
L 742.404859 327.779222 
L 743.206322 334.680454 
L 743.847492 338.667624 
L 744.488663 341.485552 
L 745.129833 343.293588 
L 745.610711 344.073188 
L 746.091589 344.41962 
L 746.412174 344.43477 
L 746.893052 344.168214 
L 747.37393 343.592656 
L 748.0151 342.412489 
L 748.816564 340.391118 
L 749.938612 336.794548 
L 751.381246 331.325583 
L 757.472365 307.267262 
L 759.075292 302.203874 
L 760.517925 298.356343 
L 761.800266 295.529653 
L 762.922315 293.519136 
L 764.044363 291.935652 
L 765.006119 290.910154 
L 765.967874 290.18094 
L 766.92963 289.736556 
L 767.891386 289.564077 
L 768.853142 289.64949 
L 769.814897 289.978 
L 770.776653 290.534303 
L 771.898702 291.450416 
L 773.181043 292.819098 
L 773.822213 293.621127 
L 774.463384 263.539502 
L 775.104554 242.840572 
L 775.585432 232.946439 
L 776.06631 227.492397 
L 776.386895 226.160944 
L 776.547188 226.151626 
L 776.70748 226.564883 
L 777.028066 228.615325 
L 777.348651 232.226759 
L 777.829529 240.391779 
L 778.470699 256.001047 
L 779.592748 285.913495 
L 780.554503 305.19681 
L 781.355966 317.461235 
L 782.15743 326.811685 
L 782.958893 333.692516 
L 783.760356 338.492071 
L 784.401526 341.062368 
L 785.042697 342.671321 
L 785.523575 343.330006 
L 786.004453 343.577397 
L 786.325038 343.537657 
L 786.805916 343.204055 
L 787.286794 342.578216 
L 787.927964 341.354244 
L 788.729427 339.310491 
L 789.851476 335.732129 
L 791.454402 329.719771 
L 796.744058 309.16714 
L 798.346985 304.001999 
L 799.789618 300.026134 
L 801.071959 297.064925 
L 802.3543 294.654471 
L 803.476349 292.994637 
L 804.598397 291.7448 
L 805.560153 290.98936 
L 806.521909 290.513986 
L 807.483664 290.306209 
L 808.44542 290.352433 
L 809.407176 290.638253 
L 810.368932 291.148724 
L 811.49098 292.007842 
L 812.773321 293.307346 
L 813.414491 294.073374 
L 814.055662 263.931008 
L 814.696832 243.13875 
L 815.17771 233.156411 
L 815.658588 227.60081 
L 815.979173 226.195161 
L 816.139466 226.146991 
L 816.299759 226.520313 
L 816.620344 228.487863 
L 816.940929 232.012758 
L 817.421807 240.042069 
L 818.062978 255.461436 
L 819.185026 285.163252 
L 820.146782 304.334936 
L 820.948245 316.538642 
L 821.749708 325.853201 
L 822.551171 332.719215 
L 823.352634 337.52171 
L 823.993805 340.105168 
L 824.634975 341.735434 
L 825.115853 342.414724 
L 825.596731 342.686163 
L 825.917316 342.664155 
L 826.398194 342.359405 
L 826.879072 341.764791 
L 827.520242 340.585553 
L 828.321706 338.601669 
L 829.443754 335.112254 
L 831.04668 329.232141 
L 836.336337 309.092661 
L 837.939263 304.032568 
L 839.381897 300.140479 
L 840.664238 297.244691 
L 841.946579 294.890948 
L 843.068627 293.27357 
L 844.190675 292.059566 
L 845.152431 291.329661 
L 846.114187 290.875155 
L 847.075943 290.683708 
L 848.037698 290.741871 
L 848.999454 291.035401 
L 849.96121 291.549527 
L 851.083258 292.408028 
L 852.365599 293.700759 
L 853.808233 295.509588 
L 854.609696 296.659059 
L 855.250867 266.350404 
L 855.892037 245.374113 
L 856.372915 235.244417 
L 856.853793 229.535074 
L 857.174378 228.024029 
L 857.334671 227.922428 
L 857.494963 228.241883 
L 857.815549 230.100563 
L 858.136134 233.515321 
L 858.617012 241.377671 
L 859.258182 256.57249 
L 860.380231 286.285763 
L 861.341986 305.543662 
L 862.143449 317.828888 
L 862.944913 327.230564 
L 863.746376 334.186769 
L 864.547839 339.080403 
L 865.189009 341.736248 
L 865.83018 343.437595 
L 866.311058 344.168941 
L 866.791936 344.491093 
L 867.112521 344.502044 
L 867.593399 344.245316 
L 868.074277 343.696885 
L 868.715447 342.576118 
L 869.51691 340.659955 
L 870.638959 337.254636 
L 872.081592 332.081037 
L 878.172712 309.349154 
L 879.775638 304.567931 
L 881.218272 300.934851 
L 882.500613 298.265295 
L 883.782954 296.127558 
L 884.905002 294.687321 
L 885.866758 293.763882 
L 886.828514 293.117691 
L 887.790269 292.737586 
L 888.752025 292.611093 
L 889.713781 292.724773 
L 890.675537 293.064509 
L 891.797585 293.727151 
L 892.919633 294.654186 
L 894.201974 296.007196 
L 894.362267 296.196702 
L 895.003438 265.892255 
L 895.644608 244.906743 
L 896.125486 234.762427 
L 896.606364 229.032661 
L 896.926949 227.505112 
L 897.087242 227.394462 
L 897.247534 227.70437 
L 897.56812 229.542541 
L 897.888705 232.93505 
L 898.369583 240.761113 
L 899.010753 255.902898 
L 900.132802 285.341874 
L 901.094557 304.377434 
L 901.89602 316.503921 
L 902.697484 325.769024 
L 903.498947 332.609108 
L 904.30041 337.405471 
L 904.94158 339.99606 
L 905.582751 341.642532 
L 906.063629 342.339121 
L 906.544507 342.631695 
L 906.865092 342.625673 
L 907.34597 342.347416 
L 907.826848 341.78195 
L 908.468018 340.645054 
L 909.269481 338.718558 
L 910.39153 335.315357 
L 911.994456 329.564638 
L 917.284112 309.832429 
L 918.887039 304.87574 
L 920.329672 301.065813 
L 921.612013 298.233861 
L 922.894354 295.935077 
L 924.016403 294.358468 
L 925.138451 293.178451 
L 926.100207 292.472365 
L 927.061963 292.036878 
L 928.023718 291.859771 
L 928.985474 291.927735 
L 929.94723 292.226681 
L 930.908986 292.742003 
L 932.031034 293.596802 
L 933.313375 294.878932 
L 933.794253 295.436813 
L 933.954545 286.926604 
L 933.954545 286.926604 
" clip-path="url(#p2fc16210bb)" style="fill: none; stroke: #1f77b4; stroke-width: 1.5; stroke-linecap: square"/>
   </g>
   <g id="line2d_13">
    <path d="M 173.045455 78.12 
L 177.693941 78.12 
L 177.854233 430.92 
L 213.278903 430.92 
L 213.439196 78.12 
L 218.087682 78.12 
L 218.247975 430.92 
L 253.99323 430.92 
L 254.153523 78.12 
L 258.802009 78.12 
L 258.962302 430.92 
L 293.585509 430.92 
L 293.745801 78.12 
L 298.394287 78.12 
L 298.55458 430.92 
L 333.818957 430.92 
L 333.97925 78.12 
L 338.627736 78.12 
L 338.788029 430.92 
L 373.090651 430.92 
L 373.250943 78.12 
L 377.899429 78.12 
L 378.059722 430.92 
L 413.644685 430.92 
L 413.804977 78.12 
L 418.453463 78.12 
L 418.613756 430.92 
L 453.557548 430.92 
L 453.717841 78.12 
L 458.366327 78.12 
L 458.52662 430.92 
L 493.630705 430.92 
L 493.790997 78.12 
L 498.439483 78.12 
L 498.599776 430.92 
L 533.864153 430.92 
L 534.024446 78.12 
L 538.672932 78.12 
L 538.833225 430.92 
L 574.257895 430.92 
L 574.418188 78.12 
L 579.066674 78.12 
L 579.226966 430.92 
L 613.209003 430.92 
L 613.369295 78.12 
L 618.017782 78.12 
L 618.178074 430.92 
L 653.92333 430.92 
L 654.083622 78.12 
L 658.732108 78.12 
L 658.892401 430.92 
L 694.156778 430.92 
L 694.317071 78.12 
L 698.965557 78.12 
L 699.12585 430.92 
L 734.069642 430.92 
L 734.229935 78.12 
L 738.878421 78.12 
L 739.038713 430.92 
L 773.822213 430.92 
L 773.982506 78.12 
L 778.630992 78.12 
L 778.791284 430.92 
L 813.414491 430.92 
L 813.574784 78.12 
L 818.22327 78.12 
L 818.383563 430.92 
L 854.609696 430.92 
L 854.769989 78.12 
L 859.418475 78.12 
L 859.578767 430.92 
L 894.362267 430.92 
L 894.52256 78.12 
L 899.171046 78.12 
L 899.331338 430.92 
L 933.794253 430.92 
L 933.954545 78.12 
L 933.954545 78.12 
" clip-path="url(#p2fc16210bb)" style="fill: none; stroke: #ff7f0e; stroke-width: 1.5; stroke-linecap: square"/>
   </g>
   <g id="line2d_14">
    <path d="M 929.466352 430.92 
" clip-path="url(#p2fc16210bb)" style="fill: none; stroke: #000000; stroke-width: 1.5; stroke-linecap: square"/>
    <defs>
     <path id="mf4111977d1" d="M 0 1 
C 0.265203 1 0.51958 0.894634 0.707107 0.707107 
C 0.894634 0.51958 1 0.265203 1 0 
C 1 -0.265203 0.894634 -0.51958 0.707107 -0.707107 
C 0.51958 -0.894634 0.265203 -1 0 -1 
C -0.265203 -1 -0.51958 -0.894634 -0.707107 -0.707107 
C -0.894634 -0.51958 -1 -0.265203 -1 0 
C -1 0.265203 -0.894634 0.51958 -0.707107 0.707107 
C -0.51958 0.894634 -0.265203 1 0 1 
z
" style="stroke: #000000"/>
    </defs>
    <g clip-path="url(#p2fc16210bb)">
     <use xlink:href="#mf4111977d1" x="173.045455" y="78.12" style="stroke: #000000"/>
     <use xlink:href="#mf4111977d1" x="178.174819" y="430.92" style="stroke: #000000"/>
     <use xlink:href="#mf4111977d1" x="183.14389" y="430.92" style="stroke: #000000"/>
     <use xlink:href="#mf4111977d1" x="188.112961" y="78.12" style="stroke: #000000"/>
     <use xlink:href="#mf4111977d1" x="193.082033" y="430.92" style="stroke: #000000"/>
     <use xlink:href="#mf4111977d1" x="198.211397" y="430.92" style="stroke: #000000"/>
     <use xlink:href="#mf4111977d1" x="203.180468" y="78.12" style="stroke: #000000"/>
     <use xlink:href="#mf4111977d1" x="208.149539" y="430.92" style="stroke: #000000"/>
     <use xlink:href="#mf4111977d1" x="213.118611" y="78.12" style="stroke: #000000"/>
     <use xlink:href="#mf4111977d1" x="218.247975" y="430.92" style="stroke: #000000"/>
     <use xlink:href="#mf4111977d1" x="223.217046" y="430.92" style="stroke: #000000"/>
     <use xlink:href="#mf4111977d1" x="228.186118" y="78.12" style="stroke: #000000"/>
     <use xlink:href="#mf4111977d1" x="233.155189" y="430.92" style="stroke: #000000"/>
     <use xlink:href="#mf4111977d1" x="238.284553" y="430.92" style="stroke: #000000"/>
     <use xlink:href="#mf4111977d1" x="243.253624" y="78.12" style="stroke: #000000"/>
     <use xlink:href="#mf4111977d1" x="248.222696" y="430.92" style="stroke: #000000"/>
     <use xlink:href="#mf4111977d1" x="253.191767" y="78.12" style="stroke: #000000"/>
     <use xlink:href="#mf4111977d1" x="258.321131" y="430.92" style="stroke: #000000"/>
     <use xlink:href="#mf4111977d1" x="263.290202" y="430.92" style="stroke: #000000"/>
     <use xlink:href="#mf4111977d1" x="268.259274" y="78.12" style="stroke: #000000"/>
     <use xlink:href="#mf4111977d1" x="273.228345" y="430.92" style="stroke: #000000"/>
     <use xlink:href="#mf4111977d1" x="278.357709" y="430.92" style="stroke: #000000"/>
     <use xlink:href="#mf4111977d1" x="283.326781" y="78.12" style="stroke: #000000"/>
     <use xlink:href="#mf4111977d1" x="288.295852" y="430.92" style="stroke: #000000"/>
     <use xlink:href="#mf4111977d1" x="293.264923" y="78.12" style="stroke: #000000"/>
     <use xlink:href="#mf4111977d1" x="298.394287" y="430.92" style="stroke: #000000"/>
     <use xlink:href="#mf4111977d1" x="303.363359" y="430.92" style="stroke: #000000"/>
     <use xlink:href="#mf4111977d1" x="308.33243" y="78.12" style="stroke: #000000"/>
     <use xlink:href="#mf4111977d1" x="313.301501" y="430.92" style="stroke: #000000"/>
     <use xlink:href="#mf4111977d1" x="318.430865" y="430.92" style="stroke: #000000"/>
     <use xlink:href="#mf4111977d1" x="323.399937" y="78.12" style="stroke: #000000"/>
     <use xlink:href="#mf4111977d1" x="328.369008" y="430.92" style="stroke: #000000"/>
     <use xlink:href="#mf4111977d1" x="333.33808" y="78.12" style="stroke: #000000"/>
     <use xlink:href="#mf4111977d1" x="338.467444" y="430.92" style="stroke: #000000"/>
     <use xlink:href="#mf4111977d1" x="343.436515" y="430.92" style="stroke: #000000"/>
     <use xlink:href="#mf4111977d1" x="348.405586" y="78.12" style="stroke: #000000"/>
     <use xlink:href="#mf4111977d1" x="353.374658" y="430.92" style="stroke: #000000"/>
     <use xlink:href="#mf4111977d1" x="358.504022" y="430.92" style="stroke: #000000"/>
     <use xlink:href="#mf4111977d1" x="363.473093" y="78.12" style="stroke: #000000"/>
     <use xlink:href="#mf4111977d1" x="368.442164" y="430.92" style="stroke: #000000"/>
     <use xlink:href="#mf4111977d1" x="373.411236" y="78.12" style="stroke: #000000"/>
     <use xlink:href="#mf4111977d1" x="378.5406" y="430.92" style="stroke: #000000"/>
     <use xlink:href="#mf4111977d1" x="383.509671" y="430.92" style="stroke: #000000"/>
     <use xlink:href="#mf4111977d1" x="388.478743" y="78.12" style="stroke: #000000"/>
     <use xlink:href="#mf4111977d1" x="393.447814" y="430.92" style="stroke: #000000"/>
     <use xlink:href="#mf4111977d1" x="398.577178" y="430.92" style="stroke: #000000"/>
     <use xlink:href="#mf4111977d1" x="403.546249" y="78.12" style="stroke: #000000"/>
     <use xlink:href="#mf4111977d1" x="408.515321" y="430.92" style="stroke: #000000"/>
     <use xlink:href="#mf4111977d1" x="413.484392" y="78.12" style="stroke: #000000"/>
     <use xlink:href="#mf4111977d1" x="418.613756" y="430.92" style="stroke: #000000"/>
     <use xlink:href="#mf4111977d1" x="423.582827" y="430.92" style="stroke: #000000"/>
     <use xlink:href="#mf4111977d1" x="428.551899" y="78.12" style="stroke: #000000"/>
     <use xlink:href="#mf4111977d1" x="433.52097" y="430.92" style="stroke: #000000"/>
     <use xlink:href="#mf4111977d1" x="438.650334" y="430.92" style="stroke: #000000"/>
     <use xlink:href="#mf4111977d1" x="443.619406" y="78.12" style="stroke: #000000"/>
     <use xlink:href="#mf4111977d1" x="448.588477" y="430.92" style="stroke: #000000"/>
     <use xlink:href="#mf4111977d1" x="453.557548" y="78.12" style="stroke: #000000"/>
     <use xlink:href="#mf4111977d1" x="458.686912" y="430.92" style="stroke: #000000"/>
     <use xlink:href="#mf4111977d1" x="463.655984" y="430.92" style="stroke: #000000"/>
     <use xlink:href="#mf4111977d1" x="468.625055" y="78.12" style="stroke: #000000"/>
     <use xlink:href="#mf4111977d1" x="473.594126" y="430.92" style="stroke: #000000"/>
     <use xlink:href="#mf4111977d1" x="478.72349" y="430.92" style="stroke: #000000"/>
     <use xlink:href="#mf4111977d1" x="483.692562" y="78.12" style="stroke: #000000"/>
     <use xlink:href="#mf4111977d1" x="488.661633" y="430.92" style="stroke: #000000"/>
     <use xlink:href="#mf4111977d1" x="493.630705" y="78.12" style="stroke: #000000"/>
     <use xlink:href="#mf4111977d1" x="498.760069" y="430.92" style="stroke: #000000"/>
     <use xlink:href="#mf4111977d1" x="503.72914" y="430.92" style="stroke: #000000"/>
     <use xlink:href="#mf4111977d1" x="508.698211" y="78.12" style="stroke: #000000"/>
     <use xlink:href="#mf4111977d1" x="513.667283" y="430.92" style="stroke: #000000"/>
     <use xlink:href="#mf4111977d1" x="518.796647" y="430.92" style="stroke: #000000"/>
     <use xlink:href="#mf4111977d1" x="523.765718" y="78.12" style="stroke: #000000"/>
     <use xlink:href="#mf4111977d1" x="528.734789" y="430.92" style="stroke: #000000"/>
     <use xlink:href="#mf4111977d1" x="533.703861" y="78.12" style="stroke: #000000"/>
     <use xlink:href="#mf4111977d1" x="538.833225" y="430.92" style="stroke: #000000"/>
     <use xlink:href="#mf4111977d1" x="543.802296" y="430.92" style="stroke: #000000"/>
     <use xlink:href="#mf4111977d1" x="548.771368" y="78.12" style="stroke: #000000"/>
     <use xlink:href="#mf4111977d1" x="553.740439" y="430.92" style="stroke: #000000"/>
     <use xlink:href="#mf4111977d1" x="558.869803" y="430.92" style="stroke: #000000"/>
     <use xlink:href="#mf4111977d1" x="563.838874" y="78.12" style="stroke: #000000"/>
     <use xlink:href="#mf4111977d1" x="568.807946" y="430.92" style="stroke: #000000"/>
     <use xlink:href="#mf4111977d1" x="573.777017" y="78.12" style="stroke: #000000"/>
     <use xlink:href="#mf4111977d1" x="578.906381" y="430.92" style="stroke: #000000"/>
     <use xlink:href="#mf4111977d1" x="583.875452" y="430.92" style="stroke: #000000"/>
     <use xlink:href="#mf4111977d1" x="588.844524" y="78.12" style="stroke: #000000"/>
     <use xlink:href="#mf4111977d1" x="593.813595" y="430.92" style="stroke: #000000"/>
     <use xlink:href="#mf4111977d1" x="598.942959" y="430.92" style="stroke: #000000"/>
     <use xlink:href="#mf4111977d1" x="603.912031" y="78.12" style="stroke: #000000"/>
     <use xlink:href="#mf4111977d1" x="608.881102" y="430.92" style="stroke: #000000"/>
     <use xlink:href="#mf4111977d1" x="613.850173" y="78.12" style="stroke: #000000"/>
     <use xlink:href="#mf4111977d1" x="618.979537" y="430.92" style="stroke: #000000"/>
     <use xlink:href="#mf4111977d1" x="623.948609" y="430.92" style="stroke: #000000"/>
     <use xlink:href="#mf4111977d1" x="628.91768" y="78.12" style="stroke: #000000"/>
     <use xlink:href="#mf4111977d1" x="633.886751" y="430.92" style="stroke: #000000"/>
     <use xlink:href="#mf4111977d1" x="639.016115" y="430.92" style="stroke: #000000"/>
     <use xlink:href="#mf4111977d1" x="643.985187" y="78.12" style="stroke: #000000"/>
     <use xlink:href="#mf4111977d1" x="648.954258" y="430.92" style="stroke: #000000"/>
     <use xlink:href="#mf4111977d1" x="653.92333" y="78.12" style="stroke: #000000"/>
     <use xlink:href="#mf4111977d1" x="659.052694" y="430.92" style="stroke: #000000"/>
     <use xlink:href="#mf4111977d1" x="664.021765" y="430.92" style="stroke: #000000"/>
     <use xlink:href="#mf4111977d1" x="668.990836" y="78.12" style="stroke: #000000"/>
     <use xlink:href="#mf4111977d1" x="673.959908" y="430.92" style="stroke: #000000"/>
     <use xlink:href="#mf4111977d1" x="679.089272" y="430.92" style="stroke: #000000"/>
     <use xlink:href="#mf4111977d1" x="684.058343" y="78.12" style="stroke: #000000"/>
     <use xlink:href="#mf4111977d1" x="689.027414" y="430.92" style="stroke: #000000"/>
     <use xlink:href="#mf4111977d1" x="693.996486" y="78.12" style="stroke: #000000"/>
     <use xlink:href="#mf4111977d1" x="699.12585" y="430.92" style="stroke: #000000"/>
     <use xlink:href="#mf4111977d1" x="704.094921" y="430.92" style="stroke: #000000"/>
     <use xlink:href="#mf4111977d1" x="709.063993" y="78.12" style="stroke: #000000"/>
     <use xlink:href="#mf4111977d1" x="714.033064" y="430.92" style="stroke: #000000"/>
     <use xlink:href="#mf4111977d1" x="719.162428" y="430.92" style="stroke: #000000"/>
     <use xlink:href="#mf4111977d1" x="724.131499" y="78.12" style="stroke: #000000"/>
     <use xlink:href="#mf4111977d1" x="729.100571" y="430.92" style="stroke: #000000"/>
     <use xlink:href="#mf4111977d1" x="734.069642" y="78.12" style="stroke: #000000"/>
     <use xlink:href="#mf4111977d1" x="739.199006" y="430.92" style="stroke: #000000"/>
     <use xlink:href="#mf4111977d1" x="744.168077" y="430.92" style="stroke: #000000"/>
     <use xlink:href="#mf4111977d1" x="749.137149" y="78.12" style="stroke: #000000"/>
     <use xlink:href="#mf4111977d1" x="754.10622" y="430.92" style="stroke: #000000"/>
     <use xlink:href="#mf4111977d1" x="759.235584" y="430.92" style="stroke: #000000"/>
     <use xlink:href="#mf4111977d1" x="764.204656" y="78.12" style="stroke: #000000"/>
     <use xlink:href="#mf4111977d1" x="769.173727" y="430.92" style="stroke: #000000"/>
     <use xlink:href="#mf4111977d1" x="774.142798" y="78.12" style="stroke: #000000"/>
     <use xlink:href="#mf4111977d1" x="779.272162" y="430.92" style="stroke: #000000"/>
     <use xlink:href="#mf4111977d1" x="784.241234" y="430.92" style="stroke: #000000"/>
     <use xlink:href="#mf4111977d1" x="789.210305" y="78.12" style="stroke: #000000"/>
     <use xlink:href="#mf4111977d1" x="794.179376" y="430.92" style="stroke: #000000"/>
     <use xlink:href="#mf4111977d1" x="799.30874" y="430.92" style="stroke: #000000"/>
     <use xlink:href="#mf4111977d1" x="804.277812" y="78.12" style="stroke: #000000"/>
     <use xlink:href="#mf4111977d1" x="809.246883" y="430.92" style="stroke: #000000"/>
     <use xlink:href="#mf4111977d1" x="814.215955" y="78.12" style="stroke: #000000"/>
     <use xlink:href="#mf4111977d1" x="819.345319" y="430.92" style="stroke: #000000"/>
     <use xlink:href="#mf4111977d1" x="824.31439" y="430.92" style="stroke: #000000"/>
     <use xlink:href="#mf4111977d1" x="829.283461" y="78.12" style="stroke: #000000"/>
     <use xlink:href="#mf4111977d1" x="834.252533" y="430.92" style="stroke: #000000"/>
     <use xlink:href="#mf4111977d1" x="839.381897" y="430.92" style="stroke: #000000"/>
     <use xlink:href="#mf4111977d1" x="844.350968" y="78.12" style="stroke: #000000"/>
     <use xlink:href="#mf4111977d1" x="849.320039" y="430.92" style="stroke: #000000"/>
     <use xlink:href="#mf4111977d1" x="854.289111" y="78.12" style="stroke: #000000"/>
     <use xlink:href="#mf4111977d1" x="859.418475" y="430.92" style="stroke: #000000"/>
     <use xlink:href="#mf4111977d1" x="864.387546" y="430.92" style="stroke: #000000"/>
     <use xlink:href="#mf4111977d1" x="869.356618" y="78.12" style="stroke: #000000"/>
     <use xlink:href="#mf4111977d1" x="874.325689" y="430.92" style="stroke: #000000"/>
     <use xlink:href="#mf4111977d1" x="879.455053" y="430.92" style="stroke: #000000"/>
     <use xlink:href="#mf4111977d1" x="884.424124" y="78.12" style="stroke: #000000"/>
     <use xlink:href="#mf4111977d1" x="889.393196" y="430.92" style="stroke: #000000"/>
     <use xlink:href="#mf4111977d1" x="894.362267" y="78.12" style="stroke: #000000"/>
     <use xlink:href="#mf4111977d1" x="899.491631" y="430.92" style="stroke: #000000"/>
     <use xlink:href="#mf4111977d1" x="904.460702" y="430.92" style="stroke: #000000"/>
     <use xlink:href="#mf4111977d1" x="909.429774" y="78.12" style="stroke: #000000"/>
     <use xlink:href="#mf4111977d1" x="914.398845" y="430.92" style="stroke: #000000"/>
     <use xlink:href="#mf4111977d1" x="919.528209" y="430.92" style="stroke: #000000"/>
     <use xlink:href="#mf4111977d1" x="924.497281" y="78.12" style="stroke: #000000"/>
     <use xlink:href="#mf4111977d1" x="929.466352" y="430.92" style="stroke: #000000"/>
    </g>
   </g>
   <g id="patch_3">
    <path d="M 135 448.56 
L 135 60.48 
" style="fill: none; stroke: #000000; stroke-width: 0.8; stroke-linejoin: miter; stroke-linecap: square"/>
   </g>
   <g id="patch_4">
    <path d="M 972 448.56 
L 972 60.48 
" style="fill: none; stroke: #000000; stroke-width: 0.8; stroke-linejoin: miter; stroke-linecap: square"/>
   </g>
   <g id="patch_5">
    <path d="M 135 448.56 
L 972 448.56 
" style="fill: none; stroke: #000000; stroke-width: 0.8; stroke-linejoin: miter; stroke-linecap: square"/>
   </g>
   <g id="patch_6">
    <path d="M 135 60.48 
L 972 60.48 
" style="fill: none; stroke: #000000; stroke-width: 0.8; stroke-linejoin: miter; stroke-linecap: square"/>
   </g>
   <g id="legend_1">
    <g id="patch_7">
     <path d="M 142 278.315313 
L 211.084375 278.315313 
Q 213.084375 278.315313 213.084375 276.315313 
L 213.084375 232.724688 
Q 213.084375 230.724688 211.084375 230.724688 
L 142 230.724688 
Q 140 230.724688 140 232.724688 
L 140 276.315313 
Q 140 278.315313 142 278.315313 
z
" style="fill: #ffffff; opacity: 0.8; stroke: #cccccc; stroke-linejoin: miter"/>
    </g>
    <g id="line2d_15">
     <path d="M 144 238.823125 
L 154 238.823125 
L 164 238.823125 
" style="fill: none; stroke: #1f77b4; stroke-width: 1.5; stroke-linecap: square"/>
    </g>
    <g id="text_13">
     <!-- nw_0 -->
     <g transform="translate(172 242.323125) scale(0.1 -0.1)">
      <defs>
       <path id="DejaVuSans-6e" d="M 3513 2113 
L 3513 0 
L 2938 0 
L 2938 2094 
Q 2938 2591 2744 2837 
Q 2550 3084 2163 3084 
Q 1697 3084 1428 2787 
Q 1159 2491 1159 1978 
L 1159 0 
L 581 0 
L 581 3500 
L 1159 3500 
L 1159 2956 
Q 1366 3272 1645 3428 
Q 1925 3584 2291 3584 
Q 2894 3584 3203 3211 
Q 3513 2838 3513 2113 
z
" transform="scale(0.015625)"/>
       <path id="DejaVuSans-77" d="M 269 3500 
L 844 3500 
L 1563 769 
L 2278 3500 
L 2956 3500 
L 3675 769 
L 4391 3500 
L 4966 3500 
L 4050 0 
L 3372 0 
L 2619 2869 
L 1863 0 
L 1184 0 
L 269 3500 
z
" transform="scale(0.015625)"/>
       <path id="DejaVuSans-5f" d="M 3263 -1063 
L 3263 -1509 
L -63 -1509 
L -63 -1063 
L 3263 -1063 
z
" transform="scale(0.015625)"/>
      </defs>
      <use xlink:href="#DejaVuSans-6e"/>
      <use xlink:href="#DejaVuSans-77" x="63.378906"/>
      <use xlink:href="#DejaVuSans-5f" x="145.166016"/>
      <use xlink:href="#DejaVuSans-30" x="195.166016"/>
     </g>
    </g>
    <g id="line2d_16">
     <path d="M 144 253.779375 
L 154 253.779375 
L 164 253.779375 
" style="fill: none; stroke: #ff7f0e; stroke-width: 1.5; stroke-linecap: square"/>
    </g>
    <g id="text_14">
     <!-- input_0 -->
     <g transform="translate(172 257.279375) scale(0.1 -0.1)">
      <defs>
       <path id="DejaVuSans-69" d="M 603 3500 
L 1178 3500 
L 1178 0 
L 603 0 
L 603 3500 
z
M 603 4863 
L 1178 4863 
L 1178 4134 
L 603 4134 
L 603 4863 
z
" transform="scale(0.015625)"/>
       <path id="DejaVuSans-70" d="M 1159 525 
L 1159 -1331 
L 581 -1331 
L 581 3500 
L 1159 3500 
L 1159 2969 
Q 1341 3281 1617 3432 
Q 1894 3584 2278 3584 
Q 2916 3584 3314 3078 
Q 3713 2572 3713 1747 
Q 3713 922 3314 415 
Q 2916 -91 2278 -91 
Q 1894 -91 1617 61 
Q 1341 213 1159 525 
z
M 3116 1747 
Q 3116 2381 2855 2742 
Q 2594 3103 2138 3103 
Q 1681 3103 1420 2742 
Q 1159 2381 1159 1747 
Q 1159 1113 1420 752 
Q 1681 391 2138 391 
Q 2594 391 2855 752 
Q 3116 1113 3116 1747 
z
" transform="scale(0.015625)"/>
       <path id="DejaVuSans-75" d="M 544 1381 
L 544 3500 
L 1119 3500 
L 1119 1403 
Q 1119 906 1312 657 
Q 1506 409 1894 409 
Q 2359 409 2629 706 
Q 2900 1003 2900 1516 
L 2900 3500 
L 3475 3500 
L 3475 0 
L 2900 0 
L 2900 538 
Q 2691 219 2414 64 
Q 2138 -91 1772 -91 
Q 1169 -91 856 284 
Q 544 659 544 1381 
z
M 1991 3584 
L 1991 3584 
z
" transform="scale(0.015625)"/>
      </defs>
      <use xlink:href="#DejaVuSans-69"/>
      <use xlink:href="#DejaVuSans-6e" x="27.783203"/>
      <use xlink:href="#DejaVuSans-70" x="91.162109"/>
      <use xlink:href="#DejaVuSans-75" x="154.638672"/>
      <use xlink:href="#DejaVuSans-74" x="218.017578"/>
      <use xlink:href="#DejaVuSans-5f" x="257.226562"/>
      <use xlink:href="#DejaVuSans-30" x="307.226562"/>
     </g>
    </g>
    <g id="line2d_17">
     <path d="M 144 268.735625 
L 154 268.735625 
L 164 268.735625 
" style="fill: none; stroke: #000000; stroke-width: 1.5; stroke-linecap: square"/>
     <g>
      <use xlink:href="#mf4111977d1" x="154" y="268.735625" style="stroke: #000000"/>
     </g>
    </g>
    <g id="text_15">
     <!-- target -->
     <g transform="translate(172 272.235625) scale(0.1 -0.1)">
      <defs>
       <path id="DejaVuSans-61" d="M 2194 1759 
Q 1497 1759 1228 1600 
Q 959 1441 959 1056 
Q 959 750 1161 570 
Q 1363 391 1709 391 
Q 2188 391 2477 730 
Q 2766 1069 2766 1631 
L 2766 1759 
L 2194 1759 
z
M 3341 1997 
L 3341 0 
L 2766 0 
L 2766 531 
Q 2569 213 2275 61 
Q 1981 -91 1556 -91 
Q 1019 -91 701 211 
Q 384 513 384 1019 
Q 384 1609 779 1909 
Q 1175 2209 1959 2209 
L 2766 2209 
L 2766 2266 
Q 2766 2663 2505 2880 
Q 2244 3097 1772 3097 
Q 1472 3097 1187 3025 
Q 903 2953 641 2809 
L 641 3341 
Q 956 3463 1253 3523 
Q 1550 3584 1831 3584 
Q 2591 3584 2966 3190 
Q 3341 2797 3341 1997 
z
" transform="scale(0.015625)"/>
       <path id="DejaVuSans-72" d="M 2631 2963 
Q 2534 3019 2420 3045 
Q 2306 3072 2169 3072 
Q 1681 3072 1420 2755 
Q 1159 2438 1159 1844 
L 1159 0 
L 581 0 
L 581 3500 
L 1159 3500 
L 1159 2956 
Q 1341 3275 1631 3429 
Q 1922 3584 2338 3584 
Q 2397 3584 2469 3576 
Q 2541 3569 2628 3553 
L 2631 2963 
z
" transform="scale(0.015625)"/>
       <path id="DejaVuSans-67" d="M 2906 1791 
Q 2906 2416 2648 2759 
Q 2391 3103 1925 3103 
Q 1463 3103 1205 2759 
Q 947 2416 947 1791 
Q 947 1169 1205 825 
Q 1463 481 1925 481 
Q 2391 481 2648 825 
Q 2906 1169 2906 1791 
z
M 3481 434 
Q 3481 -459 3084 -895 
Q 2688 -1331 1869 -1331 
Q 1566 -1331 1297 -1286 
Q 1028 -1241 775 -1147 
L 775 -588 
Q 1028 -725 1275 -790 
Q 1522 -856 1778 -856 
Q 2344 -856 2625 -561 
Q 2906 -266 2906 331 
L 2906 616 
Q 2728 306 2450 153 
Q 2172 0 1784 0 
Q 1141 0 747 490 
Q 353 981 353 1791 
Q 353 2603 747 3093 
Q 1141 3584 1784 3584 
Q 2172 3584 2450 3431 
Q 2728 3278 2906 2969 
L 2906 3500 
L 3481 3500 
L 3481 434 
z
" transform="scale(0.015625)"/>
       <path id="DejaVuSans-65" d="M 3597 1894 
L 3597 1613 
L 953 1613 
Q 991 1019 1311 708 
Q 1631 397 2203 397 
Q 2534 397 2845 478 
Q 3156 559 3463 722 
L 3463 178 
Q 3153 47 2828 -22 
Q 2503 -91 2169 -91 
Q 1331 -91 842 396 
Q 353 884 353 1716 
Q 353 2575 817 3079 
Q 1281 3584 2069 3584 
Q 2775 3584 3186 3129 
Q 3597 2675 3597 1894 
z
M 3022 2063 
Q 3016 2534 2758 2815 
Q 2500 3097 2075 3097 
Q 1594 3097 1305 2825 
Q 1016 2553 972 2059 
L 3022 2063 
z
" transform="scale(0.015625)"/>
      </defs>
      <use xlink:href="#DejaVuSans-74"/>
      <use xlink:href="#DejaVuSans-61" x="39.208984"/>
      <use xlink:href="#DejaVuSans-72" x="100.488281"/>
      <use xlink:href="#DejaVuSans-67" x="139.851562"/>
      <use xlink:href="#DejaVuSans-65" x="203.328125"/>
      <use xlink:href="#DejaVuSans-74" x="264.851562"/>
     </g>
    </g>
   </g>
  </g>
 </g>
 <defs>
  <clipPath id="p2fc16210bb">
   <rect x="135" y="60.48" width="837" height="388.08"/>
  </clipPath>
 </defs>
</svg>
