<?xml version="1.0" encoding="utf-8" standalone="no"?>
<!DOCTYPE svg PUBLIC "-//W3C//DTD SVG 1.1//EN"
  "http://www.w3.org/Graphics/SVG/1.1/DTD/svg11.dtd">
<svg xmlns:xlink="http://www.w3.org/1999/xlink" width="1080pt" height="504pt" viewBox="0 0 1080 504" xmlns="http://www.w3.org/2000/svg" version="1.1">
 <metadata>
  <rdf:RDF xmlns:dc="http://purl.org/dc/elements/1.1/" xmlns:cc="http://creativecommons.org/ns#" xmlns:rdf="http://www.w3.org/1999/02/22-rdf-syntax-ns#">
   <cc:Work>
    <dc:type rdf:resource="http://purl.org/dc/dcmitype/StillImage"/>
    <dc:date>2024-05-09T11:12:40.736772</dc:date>
    <dc:format>image/svg+xml</dc:format>
    <dc:creator>
     <cc:Agent>
      <dc:title>Matplotlib v3.7.1, https://matplotlib.org/</dc:title>
     </cc:Agent>
    </dc:creator>
   </cc:Work>
  </rdf:RDF>
 </metadata>
 <defs>
  <style type="text/css">*{stroke-linejoin: round; stroke-linecap: butt}</style>
 </defs>
 <g id="figure_1">
  <g id="patch_1">
   <path d="M 0 504 
L 1080 504 
L 1080 0 
L 0 0 
z
" style="fill: #ffffff"/>
  </g>
  <g id="axes_1">
   <g id="patch_2">
    <path d="M 135 448.56 
L 972 448.56 
L 972 60.48 
L 135 60.48 
z
" style="fill: #ffffff"/>
   </g>
   <g id="matplotlib.axis_1">
    <g id="xtick_1">
     <g id="line2d_1">
      <defs>
       <path id="ma9485d0d6c" d="M 0 0 
L 0 3.5 
" style="stroke: #000000; stroke-width: 0.8"/>
      </defs>
      <g>
       <use xlink:href="#ma9485d0d6c" x="173.045455" y="448.56" style="stroke: #000000; stroke-width: 0.8"/>
      </g>
     </g>
     <g id="text_1">
      <!-- 0 -->
      <g transform="translate(169.864205 463.158437) scale(0.1 -0.1)">
       <defs>
        <path id="DejaVuSans-30" d="M 2034 4250 
Q 1547 4250 1301 3770 
Q 1056 3291 1056 2328 
Q 1056 1369 1301 889 
Q 1547 409 2034 409 
Q 2525 409 2770 889 
Q 3016 1369 3016 2328 
Q 3016 3291 2770 3770 
Q 2525 4250 2034 4250 
z
M 2034 4750 
Q 2819 4750 3233 4129 
Q 3647 3509 3647 2328 
Q 3647 1150 3233 529 
Q 2819 -91 2034 -91 
Q 1250 -91 836 529 
Q 422 1150 422 2328 
Q 422 3509 836 4129 
Q 1250 4750 2034 4750 
z
" transform="scale(0.015625)"/>
       </defs>
       <use xlink:href="#DejaVuSans-30"/>
      </g>
     </g>
    </g>
    <g id="xtick_2">
     <g id="line2d_2">
      <g>
       <use xlink:href="#ma9485d0d6c" x="333.33808" y="448.56" style="stroke: #000000; stroke-width: 0.8"/>
      </g>
     </g>
     <g id="text_2">
      <!-- 1000 -->
      <g transform="translate(320.61308 463.158437) scale(0.1 -0.1)">
       <defs>
        <path id="DejaVuSans-31" d="M 794 531 
L 1825 531 
L 1825 4091 
L 703 3866 
L 703 4441 
L 1819 4666 
L 2450 4666 
L 2450 531 
L 3481 531 
L 3481 0 
L 794 0 
L 794 531 
z
" transform="scale(0.015625)"/>
       </defs>
       <use xlink:href="#DejaVuSans-31"/>
       <use xlink:href="#DejaVuSans-30" x="63.623047"/>
       <use xlink:href="#DejaVuSans-30" x="127.246094"/>
       <use xlink:href="#DejaVuSans-30" x="190.869141"/>
      </g>
     </g>
    </g>
    <g id="xtick_3">
     <g id="line2d_3">
      <g>
       <use xlink:href="#ma9485d0d6c" x="493.630705" y="448.56" style="stroke: #000000; stroke-width: 0.8"/>
      </g>
     </g>
     <g id="text_3">
      <!-- 2000 -->
      <g transform="translate(480.905705 463.158437) scale(0.1 -0.1)">
       <defs>
        <path id="DejaVuSans-32" d="M 1228 531 
L 3431 531 
L 3431 0 
L 469 0 
L 469 531 
Q 828 903 1448 1529 
Q 2069 2156 2228 2338 
Q 2531 2678 2651 2914 
Q 2772 3150 2772 3378 
Q 2772 3750 2511 3984 
Q 2250 4219 1831 4219 
Q 1534 4219 1204 4116 
Q 875 4013 500 3803 
L 500 4441 
Q 881 4594 1212 4672 
Q 1544 4750 1819 4750 
Q 2544 4750 2975 4387 
Q 3406 4025 3406 3419 
Q 3406 3131 3298 2873 
Q 3191 2616 2906 2266 
Q 2828 2175 2409 1742 
Q 1991 1309 1228 531 
z
" transform="scale(0.015625)"/>
       </defs>
       <use xlink:href="#DejaVuSans-32"/>
       <use xlink:href="#DejaVuSans-30" x="63.623047"/>
       <use xlink:href="#DejaVuSans-30" x="127.246094"/>
       <use xlink:href="#DejaVuSans-30" x="190.869141"/>
      </g>
     </g>
    </g>
    <g id="xtick_4">
     <g id="line2d_4">
      <g>
       <use xlink:href="#ma9485d0d6c" x="653.92333" y="448.56" style="stroke: #000000; stroke-width: 0.8"/>
      </g>
     </g>
     <g id="text_4">
      <!-- 3000 -->
      <g transform="translate(641.19833 463.158437) scale(0.1 -0.1)">
       <defs>
        <path id="DejaVuSans-33" d="M 2597 2516 
Q 3050 2419 3304 2112 
Q 3559 1806 3559 1356 
Q 3559 666 3084 287 
Q 2609 -91 1734 -91 
Q 1441 -91 1130 -33 
Q 819 25 488 141 
L 488 750 
Q 750 597 1062 519 
Q 1375 441 1716 441 
Q 2309 441 2620 675 
Q 2931 909 2931 1356 
Q 2931 1769 2642 2001 
Q 2353 2234 1838 2234 
L 1294 2234 
L 1294 2753 
L 1863 2753 
Q 2328 2753 2575 2939 
Q 2822 3125 2822 3475 
Q 2822 3834 2567 4026 
Q 2313 4219 1838 4219 
Q 1578 4219 1281 4162 
Q 984 4106 628 3988 
L 628 4550 
Q 988 4650 1302 4700 
Q 1616 4750 1894 4750 
Q 2613 4750 3031 4423 
Q 3450 4097 3450 3541 
Q 3450 3153 3228 2886 
Q 3006 2619 2597 2516 
z
" transform="scale(0.015625)"/>
       </defs>
       <use xlink:href="#DejaVuSans-33"/>
       <use xlink:href="#DejaVuSans-30" x="63.623047"/>
       <use xlink:href="#DejaVuSans-30" x="127.246094"/>
       <use xlink:href="#DejaVuSans-30" x="190.869141"/>
      </g>
     </g>
    </g>
    <g id="xtick_5">
     <g id="line2d_5">
      <g>
       <use xlink:href="#ma9485d0d6c" x="814.215955" y="448.56" style="stroke: #000000; stroke-width: 0.8"/>
      </g>
     </g>
     <g id="text_5">
      <!-- 4000 -->
      <g transform="translate(801.490955 463.158437) scale(0.1 -0.1)">
       <defs>
        <path id="DejaVuSans-34" d="M 2419 4116 
L 825 1625 
L 2419 1625 
L 2419 4116 
z
M 2253 4666 
L 3047 4666 
L 3047 1625 
L 3713 1625 
L 3713 1100 
L 3047 1100 
L 3047 0 
L 2419 0 
L 2419 1100 
L 313 1100 
L 313 1709 
L 2253 4666 
z
" transform="scale(0.015625)"/>
       </defs>
       <use xlink:href="#DejaVuSans-34"/>
       <use xlink:href="#DejaVuSans-30" x="63.623047"/>
       <use xlink:href="#DejaVuSans-30" x="127.246094"/>
       <use xlink:href="#DejaVuSans-30" x="190.869141"/>
      </g>
     </g>
    </g>
    <g id="text_6">
     <!-- t -->
     <g transform="translate(551.539844 476.836563) scale(0.1 -0.1)">
      <defs>
       <path id="DejaVuSans-74" d="M 1172 4494 
L 1172 3500 
L 2356 3500 
L 2356 3053 
L 1172 3053 
L 1172 1153 
Q 1172 725 1289 603 
Q 1406 481 1766 481 
L 2356 481 
L 2356 0 
L 1766 0 
Q 1100 0 847 248 
Q 594 497 594 1153 
L 594 3053 
L 172 3053 
L 172 3500 
L 594 3500 
L 594 4494 
L 1172 4494 
z
" transform="scale(0.015625)"/>
      </defs>
      <use xlink:href="#DejaVuSans-74"/>
     </g>
    </g>
   </g>
   <g id="matplotlib.axis_2">
    <g id="ytick_1">
     <g id="line2d_6">
      <defs>
       <path id="m256f25bf1c" d="M 0 0 
L -3.5 0 
" style="stroke: #000000; stroke-width: 0.8"/>
      </defs>
      <g>
       <use xlink:href="#m256f25bf1c" x="135" y="413.623094" style="stroke: #000000; stroke-width: 0.8"/>
      </g>
     </g>
     <g id="text_7">
      <!-- −0.2 -->
      <g transform="translate(103.717187 417.422313) scale(0.1 -0.1)">
       <defs>
        <path id="DejaVuSans-2212" d="M 678 2272 
L 4684 2272 
L 4684 1741 
L 678 1741 
L 678 2272 
z
" transform="scale(0.015625)"/>
        <path id="DejaVuSans-2e" d="M 684 794 
L 1344 794 
L 1344 0 
L 684 0 
L 684 794 
z
" transform="scale(0.015625)"/>
       </defs>
       <use xlink:href="#DejaVuSans-2212"/>
       <use xlink:href="#DejaVuSans-30" x="83.789062"/>
       <use xlink:href="#DejaVuSans-2e" x="147.412109"/>
       <use xlink:href="#DejaVuSans-32" x="179.199219"/>
      </g>
     </g>
    </g>
    <g id="ytick_2">
     <g id="line2d_7">
      <g>
       <use xlink:href="#m256f25bf1c" x="135" y="365.721072" style="stroke: #000000; stroke-width: 0.8"/>
      </g>
     </g>
     <g id="text_8">
      <!-- 0.0 -->
      <g transform="translate(112.096875 369.520291) scale(0.1 -0.1)">
       <use xlink:href="#DejaVuSans-30"/>
       <use xlink:href="#DejaVuSans-2e" x="63.623047"/>
       <use xlink:href="#DejaVuSans-30" x="95.410156"/>
      </g>
     </g>
    </g>
    <g id="ytick_3">
     <g id="line2d_8">
      <g>
       <use xlink:href="#m256f25bf1c" x="135" y="317.819049" style="stroke: #000000; stroke-width: 0.8"/>
      </g>
     </g>
     <g id="text_9">
      <!-- 0.2 -->
      <g transform="translate(112.096875 321.618268) scale(0.1 -0.1)">
       <use xlink:href="#DejaVuSans-30"/>
       <use xlink:href="#DejaVuSans-2e" x="63.623047"/>
       <use xlink:href="#DejaVuSans-32" x="95.410156"/>
      </g>
     </g>
    </g>
    <g id="ytick_4">
     <g id="line2d_9">
      <g>
       <use xlink:href="#m256f25bf1c" x="135" y="269.917027" style="stroke: #000000; stroke-width: 0.8"/>
      </g>
     </g>
     <g id="text_10">
      <!-- 0.4 -->
      <g transform="translate(112.096875 273.716246) scale(0.1 -0.1)">
       <use xlink:href="#DejaVuSans-30"/>
       <use xlink:href="#DejaVuSans-2e" x="63.623047"/>
       <use xlink:href="#DejaVuSans-34" x="95.410156"/>
      </g>
     </g>
    </g>
    <g id="ytick_5">
     <g id="line2d_10">
      <g>
       <use xlink:href="#m256f25bf1c" x="135" y="222.015004" style="stroke: #000000; stroke-width: 0.8"/>
      </g>
     </g>
     <g id="text_11">
      <!-- 0.6 -->
      <g transform="translate(112.096875 225.814223) scale(0.1 -0.1)">
       <defs>
        <path id="DejaVuSans-36" d="M 2113 2584 
Q 1688 2584 1439 2293 
Q 1191 2003 1191 1497 
Q 1191 994 1439 701 
Q 1688 409 2113 409 
Q 2538 409 2786 701 
Q 3034 994 3034 1497 
Q 3034 2003 2786 2293 
Q 2538 2584 2113 2584 
z
M 3366 4563 
L 3366 3988 
Q 3128 4100 2886 4159 
Q 2644 4219 2406 4219 
Q 1781 4219 1451 3797 
Q 1122 3375 1075 2522 
Q 1259 2794 1537 2939 
Q 1816 3084 2150 3084 
Q 2853 3084 3261 2657 
Q 3669 2231 3669 1497 
Q 3669 778 3244 343 
Q 2819 -91 2113 -91 
Q 1303 -91 875 529 
Q 447 1150 447 2328 
Q 447 3434 972 4092 
Q 1497 4750 2381 4750 
Q 2619 4750 2861 4703 
Q 3103 4656 3366 4563 
z
" transform="scale(0.015625)"/>
       </defs>
       <use xlink:href="#DejaVuSans-30"/>
       <use xlink:href="#DejaVuSans-2e" x="63.623047"/>
       <use xlink:href="#DejaVuSans-36" x="95.410156"/>
      </g>
     </g>
    </g>
    <g id="ytick_6">
     <g id="line2d_11">
      <g>
       <use xlink:href="#m256f25bf1c" x="135" y="174.112982" style="stroke: #000000; stroke-width: 0.8"/>
      </g>
     </g>
     <g id="text_12">
      <!-- 0.8 -->
      <g transform="translate(112.096875 177.912201) scale(0.1 -0.1)">
       <defs>
        <path id="DejaVuSans-38" d="M 2034 2216 
Q 1584 2216 1326 1975 
Q 1069 1734 1069 1313 
Q 1069 891 1326 650 
Q 1584 409 2034 409 
Q 2484 409 2743 651 
Q 3003 894 3003 1313 
Q 3003 1734 2745 1975 
Q 2488 2216 2034 2216 
z
M 1403 2484 
Q 997 2584 770 2862 
Q 544 3141 544 3541 
Q 544 4100 942 4425 
Q 1341 4750 2034 4750 
Q 2731 4750 3128 4425 
Q 3525 4100 3525 3541 
Q 3525 3141 3298 2862 
Q 3072 2584 2669 2484 
Q 3125 2378 3379 2068 
Q 3634 1759 3634 1313 
Q 3634 634 3220 271 
Q 2806 -91 2034 -91 
Q 1263 -91 848 271 
Q 434 634 434 1313 
Q 434 1759 690 2068 
Q 947 2378 1403 2484 
z
M 1172 3481 
Q 1172 3119 1398 2916 
Q 1625 2713 2034 2713 
Q 2441 2713 2670 2916 
Q 2900 3119 2900 3481 
Q 2900 3844 2670 4047 
Q 2441 4250 2034 4250 
Q 1625 4250 1398 4047 
Q 1172 3844 1172 3481 
z
" transform="scale(0.015625)"/>
       </defs>
       <use xlink:href="#DejaVuSans-30"/>
       <use xlink:href="#DejaVuSans-2e" x="63.623047"/>
       <use xlink:href="#DejaVuSans-38" x="95.410156"/>
      </g>
     </g>
    </g>
    <g id="ytick_7">
     <g id="line2d_12">
      <g>
       <use xlink:href="#m256f25bf1c" x="135" y="126.210959" style="stroke: #000000; stroke-width: 0.8"/>
      </g>
     </g>
     <g id="text_13">
      <!-- 1.0 -->
      <g transform="translate(112.096875 130.010178) scale(0.1 -0.1)">
       <use xlink:href="#DejaVuSans-31"/>
       <use xlink:href="#DejaVuSans-2e" x="63.623047"/>
       <use xlink:href="#DejaVuSans-30" x="95.410156"/>
      </g>
     </g>
    </g>
    <g id="ytick_8">
     <g id="line2d_13">
      <g>
       <use xlink:href="#m256f25bf1c" x="135" y="78.308937" style="stroke: #000000; stroke-width: 0.8"/>
      </g>
     </g>
     <g id="text_14">
      <!-- 1.2 -->
      <g transform="translate(112.096875 82.108156) scale(0.1 -0.1)">
       <use xlink:href="#DejaVuSans-31"/>
       <use xlink:href="#DejaVuSans-2e" x="63.623047"/>
       <use xlink:href="#DejaVuSans-32" x="95.410156"/>
      </g>
     </g>
    </g>
   </g>
   <g id="line2d_14">
    <path d="M 173.045455 282.719389 
L 173.36604 170.840975 
L 173.686625 110.72167 
L 174.00721 84.215135 
L 174.167503 79.290264 
L 174.327796 78.12 
L 174.488088 79.611146 
L 174.808673 87.09977 
L 175.449844 104.170101 
L 175.770429 108.880413 
L 175.930722 109.887034 
L 176.091014 109.99598 
L 176.251307 109.252099 
L 176.571892 105.497391 
L 177.05277 95.601879 
L 177.693941 78.620476 
L 178.014526 195.117088 
L 178.335111 258.718005 
L 178.655696 291.859559 
L 178.976282 308.694581 
L 179.45716 320.929763 
L 180.418915 339.716008 
L 181.060086 357.848974 
L 183.14389 423.329884 
L 183.624768 429.951554 
L 183.78506 430.802217 
L 183.945353 430.92 
L 184.105646 430.284646 
L 184.426231 426.71635 
L 184.746816 420.104603 
L 185.227694 404.8025 
L 185.868865 375.862334 
L 186.990913 311.241654 
L 188.273254 238.70326 
L 189.074717 205.748316 
L 189.555595 192.89391 
L 190.036473 185.815918 
L 190.357058 184.361486 
L 190.517351 184.598318 
L 190.677643 185.462024 
L 190.998229 189.000949 
L 191.479106 198.493815 
L 192.120277 217.713491 
L 193.082033 255.857294 
L 195.005544 335.316498 
L 195.807007 359.449938 
L 196.448178 372.490296 
L 196.929056 378.259925 
L 197.249641 380.155572 
L 197.409934 380.520987 
L 197.570226 380.502547 
L 197.730519 380.105169 
L 198.051104 378.199416 
L 198.531982 372.690877 
L 199.01286 364.266323 
L 199.65403 349.152627 
L 200.615786 320.430847 
L 203.340761 234.903121 
L 204.142224 217.732084 
L 204.783394 208.374549 
L 205.264272 204.060266 
L 205.584857 202.469251 
L 205.905443 201.879947 
L 206.065735 201.949433 
L 206.386321 202.786652 
L 206.706906 204.506393 
L 207.187784 208.59147 
L 207.828954 216.430992 
L 208.79071 231.857886 
L 211.675977 281.377689 
L 212.47744 290.738547 
L 213.118611 295.917437 
L 213.278903 296.875415 
L 213.599489 193.639432 
L 213.920074 142.655014 
L 214.240659 124.791866 
L 214.400952 123.922773 
L 214.561244 126.641221 
L 214.88183 138.742979 
L 216.003878 187.949539 
L 216.324463 194.862895 
L 216.645049 197.775011 
L 216.805341 197.858728 
L 216.965634 197.126744 
L 217.286219 193.559683 
L 217.767097 184.293678 
L 218.087682 176.511491 
L 218.408267 272.818997 
L 218.728853 317.976251 
L 219.049438 334.303652 
L 219.209731 336.27862 
L 219.370023 335.808624 
L 219.690608 330.91106 
L 220.331779 318.966411 
L 220.652364 315.731416 
L 220.812657 315.107972 
L 220.972949 315.164854 
L 221.133242 315.888265 
L 221.453827 319.207934 
L 221.934705 328.150658 
L 222.736168 349.458105 
L 223.697924 374.552502 
L 224.178802 382.562712 
L 224.499387 385.243327 
L 224.65968 385.683374 
L 224.819972 385.495309 
L 224.980265 384.667754 
L 225.30085 381.085881 
L 225.781728 371.046444 
L 226.422899 349.986523 
L 227.224362 314.883837 
L 229.308166 219.981403 
L 229.949336 200.734193 
L 230.430214 191.478909 
L 230.7508 187.974531 
L 231.071385 186.64115 
L 231.231677 186.782431 
L 231.39197 187.452729 
L 231.712555 190.333397 
L 232.193433 198.255535 
L 232.834604 214.591579 
L 233.636067 241.698222 
L 236.200749 333.70339 
L 236.841919 348.966774 
L 237.322797 356.939873 
L 237.803675 361.682616 
L 238.12426 362.996441 
L 238.284553 363.096932 
L 238.444846 362.829068 
L 238.765431 361.205095 
L 239.086016 358.173295 
L 239.566894 351.151656 
L 240.208064 337.7351 
L 241.16982 311.272703 
L 243.57421 241.158432 
L 244.375673 225.486185 
L 244.856551 219.219154 
L 245.337428 215.488773 
L 245.658014 214.426961 
L 245.818306 214.31846 
L 245.978599 214.486445 
L 246.299184 215.629708 
L 246.619769 217.801881 
L 247.100647 222.831431 
L 247.741818 232.372499 
L 248.703574 251.023344 
L 251.428548 307.021632 
L 252.230011 318.243887 
L 252.871182 324.36688 
L 253.35206 327.20689 
L 253.672645 328.273005 
L 253.99323 328.699375 
L 254.474108 189.934418 
L 254.794693 148.59609 
L 255.115279 132.616629 
L 255.275571 131.019533 
L 255.435864 132.320876 
L 255.756449 140.320481 
L 256.718205 169.058899 
L 257.03879 172.969322 
L 257.199083 173.503091 
L 257.359375 173.131316 
L 257.679961 169.93673 
L 258.160838 160.329447 
L 258.802009 142.516514 
L 259.122594 248.400578 
L 259.443179 303.665756 
L 259.763765 330.108632 
L 260.08435 341.109643 
L 260.404935 344.525911 
L 260.565228 344.868259 
L 260.72552 344.796545 
L 261.206398 344.264727 
L 261.366691 344.424853 
L 261.526984 344.881939 
L 261.847569 346.82555 
L 262.328447 352.418936 
L 262.969617 363.88026 
L 263.931373 382.023063 
L 264.412251 387.014643 
L 264.572543 387.603338 
L 264.732836 387.57223 
L 264.893129 386.888544 
L 265.213714 383.490875 
L 265.534299 377.377777 
L 266.015177 363.433271 
L 266.656348 337.462655 
L 267.778396 280.260778 
L 269.22103 207.658218 
L 270.022493 178.138912 
L 270.503371 166.428755 
L 270.984248 159.967226 
L 271.304834 158.748998 
L 271.465126 159.082984 
L 271.785712 161.628347 
L 272.106297 166.622327 
L 272.587175 178.435036 
L 273.228345 201.222049 
L 274.190101 246.02994 
L 276.434198 355.343183 
L 277.235661 382.421607 
L 277.876831 396.435927 
L 278.357709 401.993674 
L 278.678294 403.248252 
L 278.838587 403.13456 
L 278.99888 402.528521 
L 279.319465 399.855946 
L 279.800343 392.311726 
L 280.281221 380.825966 
L 280.922391 360.265251 
L 281.884147 321.62736 
L 283.807658 241.877913 
L 284.609122 217.478078 
L 285.250292 204.310133 
L 285.73117 198.529551 
L 286.051755 196.66228 
L 286.212048 196.317913 
L 286.37234 196.359371 
L 286.532633 196.779343 
L 286.853218 198.717903 
L 287.334096 204.196794 
L 287.975267 215.681885 
L 288.77673 235.135401 
L 292.142875 324.534353 
L 292.784045 334.813991 
L 293.425216 341.500556 
L 293.585509 342.597117 
L 294.066386 205.028482 
L 294.386972 163.623472 
L 294.707557 147.111832 
L 294.86785 145.120564 
L 295.028142 145.960356 
L 295.348727 152.872335 
L 296.150191 174.873859 
L 296.470776 179.152409 
L 296.631068 179.86616 
L 296.791361 179.634628 
L 296.951654 178.502236 
L 297.272239 173.819391 
L 297.753117 162.12191 
L 298.394287 141.903879 
L 298.714873 247.840841 
L 299.035458 303.192011 
L 299.356043 329.702099 
L 299.676628 340.714535 
L 299.997214 344.066376 
L 300.157506 344.346516 
L 300.317799 344.193732 
L 300.798677 343.326844 
L 300.958969 343.353983 
L 301.119262 343.672543 
L 301.439847 345.334103 
L 301.760432 348.446239 
L 302.24131 355.591328 
L 303.844237 382.870275 
L 304.164822 384.487881 
L 304.325114 384.393945 
L 304.485407 383.651995 
L 304.805992 380.156236 
L 305.126578 373.977631 
L 305.607455 360.012406 
L 306.248626 334.17107 
L 307.370674 277.526502 
L 308.813308 205.869972 
L 309.614771 176.891507 
L 310.095649 165.510649 
L 310.576527 159.384303 
L 310.736819 158.574509 
L 310.897112 158.392743 
L 311.057405 158.840761 
L 311.37799 161.614713 
L 311.698575 166.836333 
L 312.179453 178.98311 
L 312.820624 202.185369 
L 313.782379 247.498413 
L 315.866183 350.656131 
L 316.667647 379.509024 
L 317.308817 395.132614 
L 317.789695 401.950606 
L 318.11028 404.049807 
L 318.270573 404.355233 
L 318.430865 404.164021 
L 318.591158 403.478099 
L 318.911743 400.639604 
L 319.392621 392.834837 
L 319.873499 381.080905 
L 320.51467 360.164201 
L 321.636718 314.014464 
L 323.399937 240.639658 
L 324.2014 216.137398 
L 324.84257 202.953987 
L 325.323448 197.19609 
L 325.644034 195.358405 
L 325.804326 195.032782 
L 325.964619 195.095445 
L 326.124911 195.538951 
L 326.445497 197.531048 
L 326.926375 203.104455 
L 327.567545 214.736604 
L 328.369008 234.395883 
L 331.735153 324.579757 
L 332.376324 334.942145 
L 333.017494 341.679889 
L 333.498372 344.302827 
L 333.818957 344.921884 
L 334.299835 204.275077 
L 334.620421 161.127981 
L 334.941006 143.222705 
L 335.101298 140.673464 
L 335.261591 141.04573 
L 335.582176 147.273645 
L 336.543932 171.302073 
L 336.864517 173.791907 
L 337.02481 173.641645 
L 337.185103 172.604995 
L 337.505688 168.145198 
L 337.986566 156.830997 
L 338.627736 137.171153 
L 338.948321 243.521056 
L 339.268907 299.328899 
L 339.589492 326.328456 
L 339.910077 337.852511 
L 340.230662 341.72838 
L 340.390955 342.27251 
L 340.551248 342.383794 
L 340.871833 342.241825 
L 341.032126 342.30199 
L 341.192418 342.586368 
L 341.513003 344.061747 
L 341.833589 346.935553 
L 342.314467 353.84173 
L 343.276222 373.083528 
L 343.917393 383.844918 
L 344.237978 386.691324 
L 344.398271 387.250392 
L 344.558563 387.171491 
L 344.718856 386.422971 
L 345.039441 382.851451 
L 345.360026 376.52065 
L 345.840904 362.211526 
L 346.482075 335.776075 
L 347.604123 278.017661 
L 349.046757 205.209305 
L 349.84822 175.799498 
L 350.329098 164.238855 
L 350.809976 157.995257 
L 350.970268 157.160693 
L 351.130561 156.961425 
L 351.290854 157.399249 
L 351.611439 160.174757 
L 351.932024 165.426922 
L 352.412902 177.671863 
L 353.054072 201.093208 
L 354.015828 246.876145 
L 356.099632 351.191426 
L 356.901095 380.401928 
L 357.542266 396.2482 
L 358.023144 403.191682 
L 358.343729 405.353395 
L 358.504022 405.683468 
L 358.664314 405.512385 
L 358.824607 404.841994 
L 359.145192 402.020488 
L 359.62607 394.20527 
L 360.106948 382.397464 
L 360.748118 361.344037 
L 361.709874 321.891917 
L 363.633386 240.668496 
L 364.434849 215.858258 
L 365.076019 202.477777 
L 365.556897 196.607455 
L 365.877482 194.713041 
L 366.037775 194.36466 
L 366.198068 194.408327 
L 366.35836 194.836597 
L 366.678946 196.809403 
L 367.159823 202.381089 
L 367.800994 214.058157 
L 368.602457 233.837828 
L 371.968602 324.814553 
L 372.609773 335.294269 
L 373.090651 340.76433 
L 373.571528 204.887 
L 373.892114 164.641974 
L 374.212699 149.124429 
L 374.372992 147.543318 
L 374.533284 148.731 
L 374.853869 156.158342 
L 375.655333 178.63828 
L 375.975918 182.912932 
L 376.13621 183.603732 
L 376.296503 183.340126 
L 376.456796 182.169295 
L 376.777381 177.398334 
L 377.258259 165.556555 
L 377.899429 145.133082 
L 378.220015 250.525429 
L 378.5406 305.288596 
L 378.861185 331.198276 
L 379.18177 341.62716 
L 379.502356 344.436111 
L 379.662648 344.465224 
L 379.983233 343.522154 
L 380.303819 342.595802 
L 380.464111 342.448135 
L 380.624404 342.605394 
L 380.784697 343.108603 
L 381.105282 345.2291 
L 381.58616 351.115768 
L 382.387623 365.717389 
L 383.189086 379.069892 
L 383.509671 381.891362 
L 383.669964 382.498018 
L 383.830256 382.506711 
L 383.990549 381.884774 
L 384.311134 378.675429 
L 384.63172 372.832092 
L 385.112597 359.420441 
L 385.753768 334.314695 
L 386.875816 278.681376 
L 388.31845 207.667188 
L 389.119913 178.785521 
L 389.600791 167.386469 
L 390.081669 161.185345 
L 390.241961 160.337878 
L 390.402254 160.112007 
L 390.562547 160.509471 
L 390.883132 163.163036 
L 391.203717 168.239028 
L 391.684595 180.122744 
L 392.325766 202.903023 
L 393.287521 247.488661 
L 395.371325 349.185884 
L 396.172789 377.663479 
L 396.813959 393.088466 
L 397.294837 399.82153 
L 397.615422 401.896157 
L 397.775715 402.199194 
L 397.936007 402.012297 
L 398.0963 401.337453 
L 398.416885 398.541545 
L 398.897763 390.851543 
L 399.378641 379.27125 
L 400.019812 358.6676 
L 401.14186 313.219709 
L 402.905079 240.960269 
L 403.706542 216.821498 
L 404.347712 203.828559 
L 404.82859 198.150669 
L 405.149176 196.336471 
L 405.309468 196.01386 
L 405.469761 196.07387 
L 405.630053 196.509207 
L 405.950639 198.469114 
L 406.431517 203.957745 
L 407.072687 215.419329 
L 407.87415 234.799609 
L 411.240295 323.83954 
L 411.881466 334.10117 
L 412.522636 340.791842 
L 413.003514 343.414303 
L 413.324099 344.048826 
L 413.484392 344.044175 
L 413.644685 343.832326 
L 414.125563 201.947719 
L 414.446148 158.133402 
L 414.766733 139.74181 
L 414.927026 137.020925 
L 415.087318 137.267692 
L 415.407904 143.370993 
L 416.369659 167.727699 
L 416.690245 170.448065 
L 416.850537 170.420746 
L 417.01083 169.509168 
L 417.331415 165.299437 
L 417.812293 154.34502 
L 418.453463 135.120119 
L 418.774049 241.81284 
L 419.094634 297.980304 
L 419.415219 325.345662 
L 419.735804 337.230952 
L 420.05639 341.453944 
L 420.376975 342.435193 
L 420.857853 342.793625 
L 421.178438 343.91038 
L 421.499023 346.302785 
L 421.979901 352.510575 
L 422.621072 364.70171 
L 423.582827 383.519589 
L 423.903413 387.372529 
L 424.223998 389.027591 
L 424.384291 388.901325 
L 424.544583 388.093455 
L 424.865168 384.370083 
L 425.185754 377.850012 
L 425.666632 363.209618 
L 426.307802 336.302352 
L 427.42985 277.819177 
L 428.872484 204.43137 
L 429.673947 174.860093 
L 430.154825 163.251782 
L 430.635703 156.996862 
L 430.795996 156.166655 
L 430.956288 155.975836 
L 431.116581 156.426203 
L 431.437166 159.239052 
L 431.757751 164.54467 
L 432.238629 176.898664 
L 432.8798 200.513182 
L 433.841555 246.657675 
L 435.92536 351.773124 
L 436.726823 381.21311 
L 437.367993 397.194845 
L 437.848871 404.208871 
L 438.169456 406.401828 
L 438.329749 406.742593 
L 438.490042 406.578834 
L 438.650334 405.912344 
L 438.970919 403.088195 
L 439.451797 395.242522 
L 439.932675 383.372715 
L 440.573846 362.1908 
L 441.535601 322.468265 
L 443.459113 240.622003 
L 444.260576 215.603281 
L 444.901747 202.100529 
L 445.382624 196.168124 
L 445.70321 194.246921 
L 445.863502 193.889519 
L 446.023795 193.927045 
L 446.184088 194.352014 
L 446.504673 196.326517 
L 446.985551 201.92036 
L 447.626721 213.659375 
L 448.428184 233.557014 
L 451.794329 325.118147 
L 452.4355 335.664544 
L 453.07667 342.531458 
L 453.557548 345.212502 
L 454.038426 205.993491 
L 454.359011 163.663257 
L 454.679597 146.388252 
L 454.839889 144.076804 
L 455.000182 144.635805 
L 455.320767 151.095105 
L 456.12223 172.463406 
L 456.442816 176.629132 
L 456.603108 177.307476 
L 456.763401 177.052274 
L 456.923693 175.906541 
L 457.244279 171.223368 
L 457.725157 159.578233 
L 458.366327 139.504539 
L 458.686912 245.503009 
L 459.007498 300.936568 
L 459.328083 327.551543 
L 459.648668 338.693311 
L 459.969253 342.200254 
L 460.129546 342.567624 
L 460.289839 342.508292 
L 460.770716 341.955357 
L 460.931009 342.096645 
L 461.091302 342.533098 
L 461.411887 344.439052 
L 461.732472 347.802651 
L 462.21335 355.32696 
L 463.816276 383.686609 
L 464.136862 385.449646 
L 464.297154 385.41608 
L 464.457447 384.725824 
L 464.778032 381.306703 
L 465.098617 375.168972 
L 465.579495 361.201496 
L 466.220666 335.256584 
L 467.342714 278.256446 
L 468.785348 206.058705 
L 469.586811 176.820502 
L 470.067689 165.310679 
L 470.548567 159.078932 
L 470.708859 158.239536 
L 470.869152 158.031001 
L 471.029444 158.455103 
L 471.35003 161.189804 
L 471.670615 166.383536 
L 472.151493 178.509126 
L 472.792663 201.718679 
L 473.754419 247.10433 
L 475.838223 350.537611 
L 476.639686 379.494784 
L 477.280857 395.191851 
L 477.761735 402.05812 
L 478.08232 404.186038 
L 478.242613 404.504741 
L 478.402905 404.326062 
L 478.563198 403.651909 
L 478.883783 400.834574 
L 479.364661 393.055206 
L 479.845539 381.318366 
L 480.486709 360.410235 
L 481.448465 321.260908 
L 483.371977 240.725248 
L 484.17344 216.141259 
L 484.81461 202.89122 
L 485.295488 197.085423 
L 485.616073 195.217715 
L 485.776366 194.877825 
L 485.936659 194.926787 
L 486.096951 195.357209 
L 486.417536 197.325172 
L 486.898414 202.868086 
L 487.539585 214.471603 
L 488.341048 234.116109 
L 491.707193 324.452206 
L 492.348364 334.862963 
L 492.989534 341.647616 
L 493.470412 344.302999 
L 493.630705 344.733079 
L 494.111582 204.860969 
L 494.432168 162.180333 
L 494.752753 144.648386 
L 494.913046 142.2451 
L 495.073338 142.735922 
L 495.393923 149.124137 
L 496.195387 170.600885 
L 496.515972 174.879838 
L 496.676264 175.622361 
L 496.836557 175.434473 
L 496.99685 174.35801 
L 497.317435 169.815501 
L 497.798313 158.37705 
L 498.439483 138.557398 
L 498.760069 244.68811 
L 499.080654 300.262688 
L 499.401239 327.024526 
L 499.721824 338.315447 
L 500.04241 341.970205 
L 500.202702 342.409962 
L 500.362995 342.421552 
L 500.843873 342.070135 
L 501.004165 342.274297 
L 501.324751 343.60256 
L 501.645336 346.345369 
L 502.126214 353.082286 
L 502.927677 368.833416 
L 503.568847 380.646508 
L 504.049725 385.686721 
L 504.210018 386.270357 
L 504.37031 386.22389 
L 504.530603 385.515369 
L 504.851188 382.044527 
L 505.171774 375.837228 
L 505.652651 361.740669 
L 506.293822 335.601374 
L 507.41587 278.282083 
L 508.858504 205.802367 
L 509.659967 176.471663 
L 510.140845 164.926592 
L 510.621723 158.674775 
L 510.782015 157.832126 
L 510.942308 157.622085 
L 511.102601 158.046442 
L 511.423186 160.786985 
L 511.743771 165.993671 
L 512.224649 178.151764 
L 512.86582 201.427203 
L 513.827575 246.949066 
L 515.911379 350.719069 
L 516.712843 379.783442 
L 517.354013 395.548651 
L 517.834891 402.453907 
L 518.155476 404.60143 
L 518.315769 404.927899 
L 518.476061 404.755582 
L 518.636354 404.086351 
L 518.956939 401.274427 
L 519.437817 393.491795 
L 519.918695 381.73794 
L 520.559866 360.786777 
L 521.521621 321.537274 
L 523.445133 240.754822 
L 524.246596 216.085406 
L 524.887766 202.784532 
L 525.368644 196.952514 
L 525.68923 195.073244 
L 525.849522 194.72935 
L 526.009815 194.77548 
L 526.170107 195.204227 
L 526.490693 197.172215 
L 526.971571 202.723131 
L 527.612741 214.350399 
L 528.414204 234.040735 
L 531.780349 324.598722 
L 532.42152 335.032933 
L 533.06269 341.831044 
L 533.543568 344.489849 
L 533.864153 345.127808 
L 534.345031 204.479884 
L 534.665617 161.334083 
L 534.986202 143.426555 
L 535.146494 140.874245 
L 535.306787 141.242039 
L 535.627372 147.456935 
L 536.589128 171.423911 
L 536.909713 173.890647 
L 537.070006 173.729086 
L 537.230299 172.68146 
L 537.550884 168.201025 
L 538.031762 156.859912 
L 538.672932 137.172294 
L 538.993517 243.502546 
L 539.314103 299.2903 
L 539.634688 326.270287 
L 539.955273 337.776318 
L 540.275858 341.636617 
L 540.436151 342.174088 
L 540.596444 342.279531 
L 540.917029 342.128381 
L 541.077322 342.185181 
L 541.237614 342.466966 
L 541.558199 343.939279 
L 541.878785 346.812466 
L 542.359663 353.721384 
L 543.321418 372.979157 
L 543.962589 383.759186 
L 544.283174 386.6176 
L 544.443467 387.183327 
L 544.603759 387.111483 
L 544.764052 386.370376 
L 545.084637 382.814509 
L 545.405222 376.499969 
L 545.8861 362.214907 
L 546.527271 335.807617 
L 547.649319 278.079958 
L 549.091953 205.279621 
L 549.893416 175.865473 
L 550.374294 164.300544 
L 550.855172 158.051626 
L 551.015464 157.215063 
L 551.175757 157.013683 
L 551.33605 157.449275 
L 551.656635 160.219958 
L 551.97722 165.466801 
L 552.458098 177.702822 
L 553.099268 201.110663 
L 554.061024 246.87099 
L 556.144828 351.139845 
L 556.946291 380.337446 
L 557.587462 396.176368 
L 558.06834 403.116351 
L 558.388925 405.276794 
L 558.549218 405.606571 
L 558.70951 405.435426 
L 558.869803 404.76521 
L 559.190388 401.944783 
L 559.671266 394.133025 
L 560.152144 382.33083 
L 560.793314 361.287867 
L 561.75507 321.855909 
L 563.678582 240.672748 
L 564.480045 215.873264 
L 565.121215 202.497494 
L 565.602093 196.628341 
L 565.922678 194.733615 
L 566.082971 194.384767 
L 566.243264 194.427767 
L 566.403556 194.85518 
L 566.724142 196.825737 
L 567.205019 202.392869 
L 567.84619 214.062166 
L 568.647653 233.83058 
L 572.013798 324.772978 
L 572.654969 335.251905 
L 573.296139 342.078493 
L 573.777017 344.747556 
L 574.097602 345.387113 
L 574.257895 345.377393 
L 574.738773 203.972555 
L 575.059358 160.389735 
L 575.379943 142.136405 
L 575.540236 139.448942 
L 575.700529 139.706438 
L 576.021114 145.769592 
L 576.98287 169.670848 
L 577.303455 172.186543 
L 577.463747 172.055151 
L 577.62404 171.040051 
L 577.944625 166.628748 
L 578.425503 155.394903 
L 579.066674 135.850811 
L 579.387259 242.362524 
L 579.707844 298.343511 
L 580.028429 325.52153 
L 580.349015 337.223954 
L 580.6696 341.273716 
L 580.990185 342.095489 
L 581.31077 342.110651 
L 581.471063 342.245719 
L 581.631356 342.60256 
L 581.951941 344.215747 
L 582.272526 347.218217 
L 582.753404 354.300229 
L 583.71516 373.814326 
L 584.35633 384.666443 
L 584.676916 387.52141 
L 584.837208 388.074804 
L 584.997501 387.983597 
L 585.157793 387.216302 
L 585.478379 383.589108 
L 585.798964 377.181672 
L 586.279842 362.729248 
L 586.921012 336.07812 
L 588.043061 277.966303 
L 589.485694 204.846903 
L 590.287157 175.341444 
L 590.768035 163.74987 
L 591.248913 157.495606 
L 591.409206 156.662052 
L 591.569498 156.466087 
L 591.729791 156.909501 
L 592.050376 159.702997 
L 592.370962 164.982011 
L 592.851839 177.28284 
L 593.49301 200.803874 
L 594.454766 246.772253 
L 596.53857 351.485013 
L 597.340033 380.803453 
L 597.981203 396.710551 
L 598.462081 403.68384 
L 598.782667 405.857623 
L 598.942959 406.191337 
L 599.103252 406.022277 
L 599.263544 405.352274 
L 599.58413 402.526598 
L 600.065008 394.692689 
L 600.545885 382.851495 
L 601.187056 361.732278 
L 602.148812 322.145279 
L 604.072323 240.611843 
L 604.873786 215.69497 
L 605.514957 202.249575 
L 605.995835 196.344359 
L 606.31642 194.433576 
L 606.476713 194.0791 
L 606.637005 194.118058 
L 606.797298 194.542996 
L 607.117883 196.513202 
L 607.598761 202.090758 
L 608.239931 213.792303 
L 609.041395 233.624635 
L 612.40754 324.905421 
L 613.04871 335.426962 
L 613.209003 337.491889 
L 613.689881 203.340334 
L 614.010466 164.221757 
L 614.331051 149.68326 
L 614.491344 148.519939 
L 614.651636 150.074872 
L 614.972222 158.090247 
L 615.773685 181.358945 
L 616.09427 185.767067 
L 616.254563 186.500349 
L 616.414855 186.266629 
L 616.575148 185.115194 
L 616.895733 180.357937 
L 617.376611 168.489352 
L 618.017782 147.961732 
L 618.338367 253.101694 
L 618.658952 307.575276 
L 618.979537 333.17297 
L 619.300123 343.281391 
L 619.620708 345.772898 
L 619.781 345.647053 
L 620.582464 342.912088 
L 620.742756 342.937699 
L 620.903049 343.312928 
L 621.223634 345.187763 
L 621.704512 350.730927 
L 622.345682 361.803385 
L 623.147146 375.840885 
L 623.628023 380.675737 
L 623.788316 381.2789 
L 623.948609 381.296541 
L 624.108901 380.695771 
L 624.429487 377.563317 
L 624.750072 371.83732 
L 625.23095 358.657656 
L 625.87212 333.91334 
L 626.994169 278.884002 
L 628.436802 208.408488 
L 629.238265 179.695435 
L 629.719143 168.351275 
L 630.200021 162.168273 
L 630.360314 161.318353 
L 630.520606 161.085686 
L 630.680899 161.471974 
L 631.001484 164.089996 
L 631.322069 169.112991 
L 631.802947 180.885807 
L 632.444118 203.466213 
L 633.405874 247.674136 
L 635.489678 348.536648 
L 636.291141 376.779632 
L 636.932311 392.070296 
L 637.413189 398.737025 
L 637.733774 400.784822 
L 637.894067 401.079841 
L 638.05436 400.888593 
L 638.374945 399.05732 
L 638.69553 395.330549 
L 639.176408 386.352975 
L 639.817579 368.702774 
L 640.619042 339.520653 
L 643.504309 225.742286 
L 644.145479 209.946808 
L 644.626357 201.993876 
L 645.107235 197.54634 
L 645.42782 196.528473 
L 645.588113 196.591773 
L 645.748406 197.027442 
L 646.068991 198.979427 
L 646.549869 204.436101 
L 647.191039 215.82251 
L 647.992502 235.06939 
L 651.358648 323.498076 
L 651.999818 333.69596 
L 652.640989 340.350044 
L 653.121866 342.96318 
L 653.442452 343.599882 
L 653.602744 343.598744 
L 653.763037 343.391964 
L 653.92333 342.986037 
L 654.404207 200.533522 
L 654.724793 156.42226 
L 655.045378 137.82407 
L 655.205671 135.035159 
L 655.365963 135.236486 
L 655.686548 141.310307 
L 656.648304 165.912153 
L 656.968889 168.768406 
L 657.129182 168.811656 
L 657.289475 167.970915 
L 657.61006 163.900514 
L 658.090938 153.14207 
L 658.732108 134.147519 
L 659.052694 241.026209 
L 659.373279 297.386858 
L 659.693864 324.946811 
L 660.014449 337.022296 
L 660.335035 341.425985 
L 660.65562 342.574688 
L 661.136498 343.155299 
L 661.457083 344.400452 
L 661.777668 346.906374 
L 662.258546 353.258658 
L 662.899717 365.595015 
L 663.861472 384.502716 
L 664.182058 388.340894 
L 664.502643 389.955714 
L 664.662935 389.799811 
L 664.823228 388.956234 
L 665.143813 385.144822 
L 665.624691 374.19538 
L 666.265862 351.012385 
L 667.067325 312.360754 
L 669.311422 197.179794 
L 669.952592 174.354305 
L 670.43347 162.72709 
L 670.914348 156.47183 
L 671.07464 155.645643 
L 671.234933 155.460915 
L 671.395226 155.919447 
L 671.715811 158.754816 
L 672.036396 164.091083 
L 672.517274 176.505564 
L 673.158445 200.224602 
L 674.1202 246.561081 
L 676.204004 352.093342 
L 677.005468 381.650883 
L 677.646638 397.701172 
L 678.127516 404.750276 
L 678.448101 406.958339 
L 678.608394 407.304074 
L 678.768686 407.143522 
L 678.928979 406.478448 
L 679.249564 403.651667 
L 679.730442 395.788203 
L 680.21132 383.884139 
L 680.852491 362.632698 
L 681.814246 322.765689 
L 683.737758 240.59038 
L 684.539221 215.462551 
L 685.180391 201.896291 
L 685.661269 195.931986 
L 685.981855 193.997245 
L 686.142147 193.635386 
L 686.30244 193.669976 
L 686.462732 194.093507 
L 686.783318 196.069504 
L 687.264196 201.675907 
L 687.905366 213.448671 
L 688.706829 233.409658 
L 692.072974 325.280305 
L 692.714145 335.861542 
L 693.355315 342.749926 
L 693.836193 345.438009 
L 694.156778 346.077466 
L 694.637656 205.293162 
L 694.958242 162.035948 
L 695.278827 144.014106 
L 695.439119 141.405888 
L 695.599412 141.719246 
L 695.919997 147.830197 
L 696.881753 171.517261 
L 697.202338 173.898809 
L 697.362631 173.696247 
L 697.522924 172.608825 
L 697.843509 168.052927 
L 698.324387 156.610914 
L 698.965557 136.816141 
L 699.286142 243.169892 
L 699.606728 298.985102 
L 699.927313 325.993575 
L 700.247898 337.527111 
L 700.568483 341.412839 
L 700.728776 341.962134 
L 700.889069 342.078831 
L 701.209654 341.948751 
L 701.369947 342.015552 
L 701.530239 342.307121 
L 701.850824 343.798746 
L 702.17141 346.691442 
L 702.652288 353.630592 
L 703.614043 372.947207 
L 704.255214 383.755001 
L 704.575799 386.621093 
L 704.736092 387.18893 
L 704.896384 387.118057 
L 705.056677 386.376826 
L 705.377262 382.817751 
L 705.697847 376.496754 
L 706.178725 362.198005 
L 706.819896 335.769478 
L 707.941944 278.007336 
L 709.384578 205.177862 
L 710.186041 175.759009 
L 710.666919 164.196547 
L 711.147797 157.954522 
L 711.308089 157.121263 
L 711.468382 156.923686 
L 711.628675 157.36357 
L 711.94926 160.144249 
L 712.269845 165.402829 
L 712.750723 177.659208 
L 713.391893 201.097703 
L 714.353649 246.905613 
L 716.437453 351.246363 
L 717.238916 380.45284 
L 717.880087 396.29136 
L 718.360965 403.227123 
L 718.68155 405.38307 
L 718.841843 405.71013 
L 719.002135 405.53597 
L 719.162428 404.862454 
L 719.483013 402.034613 
L 719.963891 394.209866 
L 720.444769 382.392728 
L 721.085939 361.327443 
L 722.047695 321.859072 
L 723.971207 240.607772 
L 724.77267 215.787046 
L 725.41384 202.398557 
L 725.894718 196.522551 
L 726.215303 194.62457 
L 726.375596 194.274493 
L 726.535889 194.316529 
L 726.696181 194.743242 
L 727.016767 196.713194 
L 727.497644 202.28137 
L 728.138815 213.955562 
L 728.940278 233.735193 
L 732.306423 324.755764 
L 732.947594 335.248322 
L 733.588764 342.08615 
L 734.069642 344.761736 
L 734.55052 205.609601 
L 734.871105 163.348022 
L 735.19169 146.143805 
L 735.351983 143.865905 
L 735.512276 144.456535 
L 735.832861 150.972907 
L 736.634324 172.456569 
L 736.954909 176.662769 
L 737.115202 177.360808 
L 737.275495 177.125015 
L 737.435787 175.998403 
L 737.756372 171.352448 
L 738.23725 159.75942 
L 738.878421 139.744378 
L 739.199006 245.69826 
L 739.519591 301.083903 
L 739.840177 327.651361 
L 740.160762 338.749107 
L 740.481347 342.217698 
L 740.64164 342.568397 
L 740.801932 342.494131 
L 741.28281 341.906254 
L 741.443103 342.038789 
L 741.603395 342.467677 
L 741.923981 344.36141 
L 742.244566 347.715725 
L 742.725444 355.230103 
L 744.32837 383.604114 
L 744.648955 385.383911 
L 744.809248 385.360609 
L 744.969541 384.681742 
L 745.290126 381.288178 
L 745.610711 375.178473 
L 746.091589 361.254116 
L 746.732759 335.361248 
L 747.854808 278.42097 
L 749.297441 206.243571 
L 750.098905 176.996171 
L 750.579782 165.474747 
L 751.06066 159.226872 
L 751.220953 158.381095 
L 751.381246 158.165682 
L 751.541538 158.582415 
L 751.862123 161.300951 
L 752.182709 166.476724 
L 752.663587 178.572452 
L 753.304757 201.738244 
L 754.266513 247.055926 
L 756.350317 350.376333 
L 757.15178 379.312677 
L 757.792951 395.003071 
L 758.273828 401.870087 
L 758.594414 404.001209 
L 758.754706 404.322317 
L 758.914999 404.146575 
L 759.075292 403.475887 
L 759.395877 400.667036 
L 759.876755 392.904151 
L 760.357633 381.187953 
L 760.998803 360.312745 
L 761.960559 321.219941 
L 763.88407 240.789849 
L 764.685533 216.235256 
L 765.326704 203.000039 
L 765.807582 197.200095 
L 766.128167 195.333825 
L 766.28846 194.993937 
L 766.448752 195.042436 
L 766.609045 195.471944 
L 766.92963 197.436779 
L 767.410508 202.971996 
L 768.051679 214.56045 
L 768.853142 234.180444 
L 772.219287 324.410233 
L 772.860457 334.809777 
L 773.501628 341.58779 
L 773.822213 343.586008 
L 774.303091 205.279292 
L 774.623676 163.533969 
L 774.944261 146.763128 
L 775.104554 144.66568 
L 775.264847 145.412289 
L 775.585432 152.171607 
L 776.386895 173.953746 
L 776.70748 178.200321 
L 776.867773 178.908525 
L 777.028066 178.677825 
L 777.188358 177.552158 
L 777.508943 172.898385 
L 777.989821 161.275559 
L 778.630992 141.193867 
L 778.951577 247.001056 
L 779.272162 302.225049 
L 779.592748 328.622596 
L 779.913333 339.548151 
L 780.233918 342.847062 
L 780.394211 343.114948 
L 780.554503 342.959602 
L 781.035381 342.14025 
L 781.195674 342.199662 
L 781.355966 342.557391 
L 781.676552 344.314467 
L 781.997137 347.539462 
L 782.478015 354.874608 
L 784.080941 382.877624 
L 784.401526 384.649661 
L 784.561819 384.632437 
L 784.722112 383.966154 
L 785.042697 380.616121 
L 785.363282 374.571434 
L 785.84416 360.774447 
L 786.48533 335.079754 
L 787.607379 278.47406 
L 789.050012 206.601462 
L 789.851476 177.450938 
L 790.332353 165.961698 
L 790.813231 159.725727 
L 790.973524 158.879305 
L 791.133817 158.660918 
L 791.294109 159.072346 
L 791.614694 161.773323 
L 791.93528 166.922459 
L 792.416158 178.962181 
L 793.057328 202.027338 
L 794.019084 247.156795 
L 796.102888 350.07196 
L 796.904351 378.898242 
L 797.545522 394.526945 
L 798.026399 401.364113 
L 798.346985 403.483456 
L 798.507277 403.801166 
L 798.66757 403.623711 
L 798.827863 402.953005 
L 799.148448 400.149254 
L 799.629326 392.406876 
L 800.110204 380.726293 
L 800.751374 359.920231 
L 801.71313 320.967382 
L 803.636641 240.853416 
L 804.438104 216.405483 
L 805.079275 203.234113 
L 805.560153 197.467713 
L 805.880738 195.616693 
L 806.041031 195.282286 
L 806.201323 195.334848 
L 806.361616 195.767014 
L 806.682201 197.733036 
L 807.163079 203.26016 
L 807.80425 214.82116 
L 808.605713 234.385111 
L 811.971858 324.306974 
L 812.613028 334.665989 
L 813.254199 341.415671 
L 813.414491 342.525118 
L 813.895369 205.037427 
L 814.215955 163.794345 
L 814.53654 147.444176 
L 814.696832 145.521105 
L 814.857125 146.417708 
L 815.17771 153.407982 
L 815.979173 175.456445 
L 816.299759 179.729558 
L 816.460051 180.440925 
L 816.620344 180.208326 
L 816.780637 179.076679 
L 817.101222 174.401647 
L 817.5821 162.730598 
L 818.22327 142.56241 
L 818.543855 248.229729 
L 818.864441 303.29893 
L 819.185026 329.533141 
L 819.505611 340.292708 
L 819.826196 343.427833 
L 819.986489 343.615779 
L 820.307074 342.978525 
L 820.62766 342.339965 
L 820.787952 342.329178 
L 820.948245 342.618719 
L 821.26883 344.245231 
L 821.589415 347.347181 
L 822.070293 354.512634 
L 823.673219 382.169565 
L 823.993805 383.936072 
L 824.154097 383.925622 
L 824.31439 383.272347 
L 824.634975 379.965938 
L 824.95556 373.985473 
L 825.436438 360.313359 
L 826.077609 334.811892 
L 827.199657 278.530061 
L 828.642291 206.949422 
L 829.443754 177.891466 
L 829.924632 166.43328 
L 830.40551 160.20925 
L 830.565802 159.36245 
L 830.726095 159.141478 
L 830.886388 159.548106 
L 831.206973 162.232855 
L 831.527558 167.357065 
L 832.008436 179.343901 
L 832.649606 202.31317 
L 833.611362 247.26142 
L 835.695166 349.778987 
L 836.496629 378.494508 
L 837.1378 394.059839 
L 837.618678 400.865474 
L 837.939263 402.971796 
L 838.099556 403.285468 
L 838.259848 403.105649 
L 838.420141 402.434275 
L 838.740726 399.634323 
L 839.221604 391.91054 
L 839.702482 380.263742 
L 840.343652 359.52451 
L 841.465701 313.74271 
L 843.22892 240.902908 
L 844.030383 216.557949 
L 844.671553 203.447298 
L 845.152431 197.712067 
L 845.473016 195.874739 
L 845.633309 195.545052 
L 845.793602 195.600932 
L 845.953894 196.03503 
L 846.27448 198.000861 
L 846.755357 203.51807 
L 847.396528 215.049795 
L 848.197991 234.556696 
L 851.564136 324.183169 
L 852.205307 334.505977 
L 852.846477 341.231645 
L 853.327355 343.862894 
L 853.64794 344.495185 
L 853.808233 344.487085 
L 853.968526 344.270287 
L 854.289111 343.237728 
L 854.609696 341.458973 
L 855.090574 197.075802 
L 855.411159 151.90803 
L 855.731744 132.532412 
L 855.892037 129.466635 
L 856.05233 129.463354 
L 856.372915 135.324459 
L 857.334671 160.338573 
L 857.655256 163.497214 
L 857.815549 163.699279 
L 857.975841 163.018207 
L 858.296426 159.26131 
L 858.777304 148.942072 
L 859.418475 130.469276 
L 859.73906 238.021653 
L 860.059645 295.08245 
L 860.380231 323.343394 
L 860.700816 336.097555 
L 861.021401 341.139126 
L 861.341986 342.87284 
L 861.822864 344.222018 
L 862.143449 345.909317 
L 862.464035 348.807026 
L 862.944913 355.663035 
L 863.746376 372.05067 
L 864.547839 387.760692 
L 864.868424 391.550142 
L 865.189009 393.023747 
L 865.349302 392.76279 
L 865.509595 391.792295 
L 865.83018 387.667615 
L 866.311058 376.132824 
L 866.952228 352.066125 
L 867.913984 303.665067 
L 869.837495 202.338451 
L 870.638959 172.460969 
L 871.119836 160.788097 
L 871.440422 156.002985 
L 871.761007 153.753319 
L 871.9213 153.599503 
L 872.081592 154.096622 
L 872.402177 157.03196 
L 872.722763 162.497835 
L 873.203641 175.158779 
L 873.844811 199.289461 
L 874.806567 246.356403 
L 876.890371 353.388237 
L 877.691834 383.338757 
L 878.333005 399.604089 
L 878.813882 406.753209 
L 879.134468 408.99768 
L 879.29476 409.352314 
L 879.455053 409.194362 
L 879.615346 408.525527 
L 879.935931 405.67195 
L 880.416809 397.719864 
L 880.897687 385.670111 
L 881.538857 364.14256 
L 882.500613 323.725582 
L 884.424124 240.330479 
L 885.225587 214.79991 
L 885.866758 200.997408 
L 886.347636 194.912561 
L 886.668221 192.925323 
L 886.828514 192.545568 
L 886.988806 192.567773 
L 887.149099 192.984361 
L 887.469684 194.962412 
L 887.950562 200.60978 
L 888.591733 212.50047 
L 889.393196 232.689904 
L 892.759341 325.747542 
L 893.400511 336.476201 
L 894.041682 343.463443 
L 894.362267 345.519475 
L 894.843145 207.015631 
L 895.16373 165.104969 
L 895.484315 148.154005 
L 895.644608 145.963649 
L 895.804901 146.616328 
L 896.125486 153.185971 
L 896.926949 174.490186 
L 897.247534 178.548629 
L 897.407827 179.164847 
L 897.56812 178.844129 
L 897.888705 175.592059 
L 898.369583 165.397943 
L 899.171046 140.646825 
L 899.491631 246.454829 
L 899.812216 301.685104 
L 900.132802 328.091204 
L 900.453387 339.026036 
L 900.773972 342.334734 
L 900.934265 342.607888 
L 901.094557 342.458227 
L 901.575435 341.659854 
L 901.735728 341.728019 
L 901.89602 342.095562 
L 902.216606 343.875699 
L 902.537191 347.128415 
L 903.018069 354.512908 
L 904.620995 382.698464 
L 904.94158 384.500759 
L 905.101873 384.497283 
L 905.262166 383.843817 
L 905.582751 380.516702 
L 905.903336 374.491517 
L 906.384214 360.71794 
L 907.025384 335.044297 
L 908.147433 278.448815 
L 909.590066 206.557384 
L 910.39153 177.398056 
L 910.872407 165.908513 
L 911.353285 159.677054 
L 911.513578 158.833243 
L 911.673871 158.618006 
L 911.834163 159.033102 
L 912.154748 161.742853 
L 912.475334 166.902422 
L 912.956212 178.960058 
L 913.597382 202.050954 
L 914.559138 247.215582 
L 916.642942 350.156419 
L 917.444405 378.970559 
L 918.085576 394.582846 
L 918.566453 401.405103 
L 918.887039 403.51377 
L 919.047331 403.826019 
L 919.207624 403.64306 
L 919.367917 402.966837 
L 919.688502 400.152113 
L 920.16938 392.393754 
L 920.650258 380.69816 
L 921.291428 359.874034 
L 922.413476 313.903977 
L 924.176695 240.749735 
L 924.978158 216.288774 
L 925.619329 203.106931 
L 926.100207 197.332708 
L 926.420792 195.476581 
L 926.581085 195.139683 
L 926.741377 195.189811 
L 926.90167 195.619612 
L 927.222255 197.58117 
L 927.703133 203.102489 
L 928.344304 214.65806 
L 929.145767 234.220203 
L 932.511912 324.20371 
L 933.153082 334.582503 
L 933.794253 341.351795 
L 933.954545 282.894551 
L 933.954545 282.894551 
" clip-path="url(#pedc2b2a6c2)" style="fill: none; stroke: #1f77b4; stroke-width: 1.5; stroke-linecap: square"/>
   </g>
   <g id="line2d_15">
    <path d="M 173.045455 126.210959 
L 177.693941 126.210959 
L 177.854233 365.721072 
L 213.278903 365.721072 
L 213.439196 126.210959 
L 218.087682 126.210959 
L 218.247975 365.721072 
L 253.99323 365.721072 
L 254.153523 126.210959 
L 258.802009 126.210959 
L 258.962302 365.721072 
L 293.585509 365.721072 
L 293.745801 126.210959 
L 298.394287 126.210959 
L 298.55458 365.721072 
L 333.818957 365.721072 
L 333.97925 126.210959 
L 338.627736 126.210959 
L 338.788029 365.721072 
L 373.090651 365.721072 
L 373.250943 126.210959 
L 377.899429 126.210959 
L 378.059722 365.721072 
L 413.644685 365.721072 
L 413.804977 126.210959 
L 418.453463 126.210959 
L 418.613756 365.721072 
L 453.557548 365.721072 
L 453.717841 126.210959 
L 458.366327 126.210959 
L 458.52662 365.721072 
L 493.630705 365.721072 
L 493.790997 126.210959 
L 498.439483 126.210959 
L 498.599776 365.721072 
L 533.864153 365.721072 
L 534.024446 126.210959 
L 538.672932 126.210959 
L 538.833225 365.721072 
L 574.257895 365.721072 
L 574.418188 126.210959 
L 579.066674 126.210959 
L 579.226966 365.721072 
L 613.209003 365.721072 
L 613.369295 126.210959 
L 618.017782 126.210959 
L 618.178074 365.721072 
L 653.92333 365.721072 
L 654.083622 126.210959 
L 658.732108 126.210959 
L 658.892401 365.721072 
L 694.156778 365.721072 
L 694.317071 126.210959 
L 698.965557 126.210959 
L 699.12585 365.721072 
L 734.069642 365.721072 
L 734.229935 126.210959 
L 738.878421 126.210959 
L 739.038713 365.721072 
L 773.822213 365.721072 
L 773.982506 126.210959 
L 778.630992 126.210959 
L 778.791284 365.721072 
L 813.414491 365.721072 
L 813.574784 126.210959 
L 818.22327 126.210959 
L 818.383563 365.721072 
L 854.609696 365.721072 
L 854.769989 126.210959 
L 859.418475 126.210959 
L 859.578767 365.721072 
L 894.362267 365.721072 
L 894.52256 126.210959 
L 899.171046 126.210959 
L 899.331338 365.721072 
L 933.794253 365.721072 
L 933.954545 126.210959 
L 933.954545 126.210959 
" clip-path="url(#pedc2b2a6c2)" style="fill: none; stroke: #ff7f0e; stroke-width: 1.5; stroke-linecap: square"/>
   </g>
   <g id="line2d_16">
    <path d="M 929.466352 365.721072 
" clip-path="url(#pedc2b2a6c2)" style="fill: none; stroke: #000000; stroke-width: 1.5; stroke-linecap: square"/>
    <defs>
     <path id="mbc0c8ce336" d="M 0 1 
C 0.265203 1 0.51958 0.894634 0.707107 0.707107 
C 0.894634 0.51958 1 0.265203 1 0 
C 1 -0.265203 0.894634 -0.51958 0.707107 -0.707107 
C 0.51958 -0.894634 0.265203 -1 0 -1 
C -0.265203 -1 -0.51958 -0.894634 -0.707107 -0.707107 
C -0.894634 -0.51958 -1 -0.265203 -1 0 
C -1 0.265203 -0.894634 0.51958 -0.707107 0.707107 
C -0.51958 0.894634 -0.265203 1 0 1 
z
" style="stroke: #000000"/>
    </defs>
    <g clip-path="url(#pedc2b2a6c2)">
     <use xlink:href="#mbc0c8ce336" x="173.045455" y="126.210959" style="stroke: #000000"/>
     <use xlink:href="#mbc0c8ce336" x="178.174819" y="365.721072" style="stroke: #000000"/>
     <use xlink:href="#mbc0c8ce336" x="183.14389" y="365.721072" style="stroke: #000000"/>
     <use xlink:href="#mbc0c8ce336" x="188.112961" y="126.210959" style="stroke: #000000"/>
     <use xlink:href="#mbc0c8ce336" x="193.082033" y="365.721072" style="stroke: #000000"/>
     <use xlink:href="#mbc0c8ce336" x="198.211397" y="365.721072" style="stroke: #000000"/>
     <use xlink:href="#mbc0c8ce336" x="203.180468" y="126.210959" style="stroke: #000000"/>
     <use xlink:href="#mbc0c8ce336" x="208.149539" y="365.721072" style="stroke: #000000"/>
     <use xlink:href="#mbc0c8ce336" x="213.118611" y="126.210959" style="stroke: #000000"/>
     <use xlink:href="#mbc0c8ce336" x="218.247975" y="365.721072" style="stroke: #000000"/>
     <use xlink:href="#mbc0c8ce336" x="223.217046" y="365.721072" style="stroke: #000000"/>
     <use xlink:href="#mbc0c8ce336" x="228.186118" y="126.210959" style="stroke: #000000"/>
     <use xlink:href="#mbc0c8ce336" x="233.155189" y="365.721072" style="stroke: #000000"/>
     <use xlink:href="#mbc0c8ce336" x="238.284553" y="365.721072" style="stroke: #000000"/>
     <use xlink:href="#mbc0c8ce336" x="243.253624" y="126.210959" style="stroke: #000000"/>
     <use xlink:href="#mbc0c8ce336" x="248.222696" y="365.721072" style="stroke: #000000"/>
     <use xlink:href="#mbc0c8ce336" x="253.191767" y="126.210959" style="stroke: #000000"/>
     <use xlink:href="#mbc0c8ce336" x="258.321131" y="365.721072" style="stroke: #000000"/>
     <use xlink:href="#mbc0c8ce336" x="263.290202" y="365.721072" style="stroke: #000000"/>
     <use xlink:href="#mbc0c8ce336" x="268.259274" y="126.210959" style="stroke: #000000"/>
     <use xlink:href="#mbc0c8ce336" x="273.228345" y="365.721072" style="stroke: #000000"/>
     <use xlink:href="#mbc0c8ce336" x="278.357709" y="365.721072" style="stroke: #000000"/>
     <use xlink:href="#mbc0c8ce336" x="283.326781" y="126.210959" style="stroke: #000000"/>
     <use xlink:href="#mbc0c8ce336" x="288.295852" y="365.721072" style="stroke: #000000"/>
     <use xlink:href="#mbc0c8ce336" x="293.264923" y="126.210959" style="stroke: #000000"/>
     <use xlink:href="#mbc0c8ce336" x="298.394287" y="365.721072" style="stroke: #000000"/>
     <use xlink:href="#mbc0c8ce336" x="303.363359" y="365.721072" style="stroke: #000000"/>
     <use xlink:href="#mbc0c8ce336" x="308.33243" y="126.210959" style="stroke: #000000"/>
     <use xlink:href="#mbc0c8ce336" x="313.301501" y="365.721072" style="stroke: #000000"/>
     <use xlink:href="#mbc0c8ce336" x="318.430865" y="365.721072" style="stroke: #000000"/>
     <use xlink:href="#mbc0c8ce336" x="323.399937" y="126.210959" style="stroke: #000000"/>
     <use xlink:href="#mbc0c8ce336" x="328.369008" y="365.721072" style="stroke: #000000"/>
     <use xlink:href="#mbc0c8ce336" x="333.33808" y="126.210959" style="stroke: #000000"/>
     <use xlink:href="#mbc0c8ce336" x="338.467444" y="365.721072" style="stroke: #000000"/>
     <use xlink:href="#mbc0c8ce336" x="343.436515" y="365.721072" style="stroke: #000000"/>
     <use xlink:href="#mbc0c8ce336" x="348.405586" y="126.210959" style="stroke: #000000"/>
     <use xlink:href="#mbc0c8ce336" x="353.374658" y="365.721072" style="stroke: #000000"/>
     <use xlink:href="#mbc0c8ce336" x="358.504022" y="365.721072" style="stroke: #000000"/>
     <use xlink:href="#mbc0c8ce336" x="363.473093" y="126.210959" style="stroke: #000000"/>
     <use xlink:href="#mbc0c8ce336" x="368.442164" y="365.721072" style="stroke: #000000"/>
     <use xlink:href="#mbc0c8ce336" x="373.411236" y="126.210959" style="stroke: #000000"/>
     <use xlink:href="#mbc0c8ce336" x="378.5406" y="365.721072" style="stroke: #000000"/>
     <use xlink:href="#mbc0c8ce336" x="383.509671" y="365.721072" style="stroke: #000000"/>
     <use xlink:href="#mbc0c8ce336" x="388.478743" y="126.210959" style="stroke: #000000"/>
     <use xlink:href="#mbc0c8ce336" x="393.447814" y="365.721072" style="stroke: #000000"/>
     <use xlink:href="#mbc0c8ce336" x="398.577178" y="365.721072" style="stroke: #000000"/>
     <use xlink:href="#mbc0c8ce336" x="403.546249" y="126.210959" style="stroke: #000000"/>
     <use xlink:href="#mbc0c8ce336" x="408.515321" y="365.721072" style="stroke: #000000"/>
     <use xlink:href="#mbc0c8ce336" x="413.484392" y="126.210959" style="stroke: #000000"/>
     <use xlink:href="#mbc0c8ce336" x="418.613756" y="365.721072" style="stroke: #000000"/>
     <use xlink:href="#mbc0c8ce336" x="423.582827" y="365.721072" style="stroke: #000000"/>
     <use xlink:href="#mbc0c8ce336" x="428.551899" y="126.210959" style="stroke: #000000"/>
     <use xlink:href="#mbc0c8ce336" x="433.52097" y="365.721072" style="stroke: #000000"/>
     <use xlink:href="#mbc0c8ce336" x="438.650334" y="365.721072" style="stroke: #000000"/>
     <use xlink:href="#mbc0c8ce336" x="443.619406" y="126.210959" style="stroke: #000000"/>
     <use xlink:href="#mbc0c8ce336" x="448.588477" y="365.721072" style="stroke: #000000"/>
     <use xlink:href="#mbc0c8ce336" x="453.557548" y="126.210959" style="stroke: #000000"/>
     <use xlink:href="#mbc0c8ce336" x="458.686912" y="365.721072" style="stroke: #000000"/>
     <use xlink:href="#mbc0c8ce336" x="463.655984" y="365.721072" style="stroke: #000000"/>
     <use xlink:href="#mbc0c8ce336" x="468.625055" y="126.210959" style="stroke: #000000"/>
     <use xlink:href="#mbc0c8ce336" x="473.594126" y="365.721072" style="stroke: #000000"/>
     <use xlink:href="#mbc0c8ce336" x="478.72349" y="365.721072" style="stroke: #000000"/>
     <use xlink:href="#mbc0c8ce336" x="483.692562" y="126.210959" style="stroke: #000000"/>
     <use xlink:href="#mbc0c8ce336" x="488.661633" y="365.721072" style="stroke: #000000"/>
     <use xlink:href="#mbc0c8ce336" x="493.630705" y="126.210959" style="stroke: #000000"/>
     <use xlink:href="#mbc0c8ce336" x="498.760069" y="365.721072" style="stroke: #000000"/>
     <use xlink:href="#mbc0c8ce336" x="503.72914" y="365.721072" style="stroke: #000000"/>
     <use xlink:href="#mbc0c8ce336" x="508.698211" y="126.210959" style="stroke: #000000"/>
     <use xlink:href="#mbc0c8ce336" x="513.667283" y="365.721072" style="stroke: #000000"/>
     <use xlink:href="#mbc0c8ce336" x="518.796647" y="365.721072" style="stroke: #000000"/>
     <use xlink:href="#mbc0c8ce336" x="523.765718" y="126.210959" style="stroke: #000000"/>
     <use xlink:href="#mbc0c8ce336" x="528.734789" y="365.721072" style="stroke: #000000"/>
     <use xlink:href="#mbc0c8ce336" x="533.703861" y="126.210959" style="stroke: #000000"/>
     <use xlink:href="#mbc0c8ce336" x="538.833225" y="365.721072" style="stroke: #000000"/>
     <use xlink:href="#mbc0c8ce336" x="543.802296" y="365.721072" style="stroke: #000000"/>
     <use xlink:href="#mbc0c8ce336" x="548.771368" y="126.210959" style="stroke: #000000"/>
     <use xlink:href="#mbc0c8ce336" x="553.740439" y="365.721072" style="stroke: #000000"/>
     <use xlink:href="#mbc0c8ce336" x="558.869803" y="365.721072" style="stroke: #000000"/>
     <use xlink:href="#mbc0c8ce336" x="563.838874" y="126.210959" style="stroke: #000000"/>
     <use xlink:href="#mbc0c8ce336" x="568.807946" y="365.721072" style="stroke: #000000"/>
     <use xlink:href="#mbc0c8ce336" x="573.777017" y="126.210959" style="stroke: #000000"/>
     <use xlink:href="#mbc0c8ce336" x="578.906381" y="365.721072" style="stroke: #000000"/>
     <use xlink:href="#mbc0c8ce336" x="583.875452" y="365.721072" style="stroke: #000000"/>
     <use xlink:href="#mbc0c8ce336" x="588.844524" y="126.210959" style="stroke: #000000"/>
     <use xlink:href="#mbc0c8ce336" x="593.813595" y="365.721072" style="stroke: #000000"/>
     <use xlink:href="#mbc0c8ce336" x="598.942959" y="365.721072" style="stroke: #000000"/>
     <use xlink:href="#mbc0c8ce336" x="603.912031" y="126.210959" style="stroke: #000000"/>
     <use xlink:href="#mbc0c8ce336" x="608.881102" y="365.721072" style="stroke: #000000"/>
     <use xlink:href="#mbc0c8ce336" x="613.850173" y="126.210959" style="stroke: #000000"/>
     <use xlink:href="#mbc0c8ce336" x="618.979537" y="365.721072" style="stroke: #000000"/>
     <use xlink:href="#mbc0c8ce336" x="623.948609" y="365.721072" style="stroke: #000000"/>
     <use xlink:href="#mbc0c8ce336" x="628.91768" y="126.210959" style="stroke: #000000"/>
     <use xlink:href="#mbc0c8ce336" x="633.886751" y="365.721072" style="stroke: #000000"/>
     <use xlink:href="#mbc0c8ce336" x="639.016115" y="365.721072" style="stroke: #000000"/>
     <use xlink:href="#mbc0c8ce336" x="643.985187" y="126.210959" style="stroke: #000000"/>
     <use xlink:href="#mbc0c8ce336" x="648.954258" y="365.721072" style="stroke: #000000"/>
     <use xlink:href="#mbc0c8ce336" x="653.92333" y="126.210959" style="stroke: #000000"/>
     <use xlink:href="#mbc0c8ce336" x="659.052694" y="365.721072" style="stroke: #000000"/>
     <use xlink:href="#mbc0c8ce336" x="664.021765" y="365.721072" style="stroke: #000000"/>
     <use xlink:href="#mbc0c8ce336" x="668.990836" y="126.210959" style="stroke: #000000"/>
     <use xlink:href="#mbc0c8ce336" x="673.959908" y="365.721072" style="stroke: #000000"/>
     <use xlink:href="#mbc0c8ce336" x="679.089272" y="365.721072" style="stroke: #000000"/>
     <use xlink:href="#mbc0c8ce336" x="684.058343" y="126.210959" style="stroke: #000000"/>
     <use xlink:href="#mbc0c8ce336" x="689.027414" y="365.721072" style="stroke: #000000"/>
     <use xlink:href="#mbc0c8ce336" x="693.996486" y="126.210959" style="stroke: #000000"/>
     <use xlink:href="#mbc0c8ce336" x="699.12585" y="365.721072" style="stroke: #000000"/>
     <use xlink:href="#mbc0c8ce336" x="704.094921" y="365.721072" style="stroke: #000000"/>
     <use xlink:href="#mbc0c8ce336" x="709.063993" y="126.210959" style="stroke: #000000"/>
     <use xlink:href="#mbc0c8ce336" x="714.033064" y="365.721072" style="stroke: #000000"/>
     <use xlink:href="#mbc0c8ce336" x="719.162428" y="365.721072" style="stroke: #000000"/>
     <use xlink:href="#mbc0c8ce336" x="724.131499" y="126.210959" style="stroke: #000000"/>
     <use xlink:href="#mbc0c8ce336" x="729.100571" y="365.721072" style="stroke: #000000"/>
     <use xlink:href="#mbc0c8ce336" x="734.069642" y="126.210959" style="stroke: #000000"/>
     <use xlink:href="#mbc0c8ce336" x="739.199006" y="365.721072" style="stroke: #000000"/>
     <use xlink:href="#mbc0c8ce336" x="744.168077" y="365.721072" style="stroke: #000000"/>
     <use xlink:href="#mbc0c8ce336" x="749.137149" y="126.210959" style="stroke: #000000"/>
     <use xlink:href="#mbc0c8ce336" x="754.10622" y="365.721072" style="stroke: #000000"/>
     <use xlink:href="#mbc0c8ce336" x="759.235584" y="365.721072" style="stroke: #000000"/>
     <use xlink:href="#mbc0c8ce336" x="764.204656" y="126.210959" style="stroke: #000000"/>
     <use xlink:href="#mbc0c8ce336" x="769.173727" y="365.721072" style="stroke: #000000"/>
     <use xlink:href="#mbc0c8ce336" x="774.142798" y="126.210959" style="stroke: #000000"/>
     <use xlink:href="#mbc0c8ce336" x="779.272162" y="365.721072" style="stroke: #000000"/>
     <use xlink:href="#mbc0c8ce336" x="784.241234" y="365.721072" style="stroke: #000000"/>
     <use xlink:href="#mbc0c8ce336" x="789.210305" y="126.210959" style="stroke: #000000"/>
     <use xlink:href="#mbc0c8ce336" x="794.179376" y="365.721072" style="stroke: #000000"/>
     <use xlink:href="#mbc0c8ce336" x="799.30874" y="365.721072" style="stroke: #000000"/>
     <use xlink:href="#mbc0c8ce336" x="804.277812" y="126.210959" style="stroke: #000000"/>
     <use xlink:href="#mbc0c8ce336" x="809.246883" y="365.721072" style="stroke: #000000"/>
     <use xlink:href="#mbc0c8ce336" x="814.215955" y="126.210959" style="stroke: #000000"/>
     <use xlink:href="#mbc0c8ce336" x="819.345319" y="365.721072" style="stroke: #000000"/>
     <use xlink:href="#mbc0c8ce336" x="824.31439" y="365.721072" style="stroke: #000000"/>
     <use xlink:href="#mbc0c8ce336" x="829.283461" y="126.210959" style="stroke: #000000"/>
     <use xlink:href="#mbc0c8ce336" x="834.252533" y="365.721072" style="stroke: #000000"/>
     <use xlink:href="#mbc0c8ce336" x="839.381897" y="365.721072" style="stroke: #000000"/>
     <use xlink:href="#mbc0c8ce336" x="844.350968" y="126.210959" style="stroke: #000000"/>
     <use xlink:href="#mbc0c8ce336" x="849.320039" y="365.721072" style="stroke: #000000"/>
     <use xlink:href="#mbc0c8ce336" x="854.289111" y="126.210959" style="stroke: #000000"/>
     <use xlink:href="#mbc0c8ce336" x="859.418475" y="365.721072" style="stroke: #000000"/>
     <use xlink:href="#mbc0c8ce336" x="864.387546" y="365.721072" style="stroke: #000000"/>
     <use xlink:href="#mbc0c8ce336" x="869.356618" y="126.210959" style="stroke: #000000"/>
     <use xlink:href="#mbc0c8ce336" x="874.325689" y="365.721072" style="stroke: #000000"/>
     <use xlink:href="#mbc0c8ce336" x="879.455053" y="365.721072" style="stroke: #000000"/>
     <use xlink:href="#mbc0c8ce336" x="884.424124" y="126.210959" style="stroke: #000000"/>
     <use xlink:href="#mbc0c8ce336" x="889.393196" y="365.721072" style="stroke: #000000"/>
     <use xlink:href="#mbc0c8ce336" x="894.362267" y="126.210959" style="stroke: #000000"/>
     <use xlink:href="#mbc0c8ce336" x="899.491631" y="365.721072" style="stroke: #000000"/>
     <use xlink:href="#mbc0c8ce336" x="904.460702" y="365.721072" style="stroke: #000000"/>
     <use xlink:href="#mbc0c8ce336" x="909.429774" y="126.210959" style="stroke: #000000"/>
     <use xlink:href="#mbc0c8ce336" x="914.398845" y="365.721072" style="stroke: #000000"/>
     <use xlink:href="#mbc0c8ce336" x="919.528209" y="365.721072" style="stroke: #000000"/>
     <use xlink:href="#mbc0c8ce336" x="924.497281" y="126.210959" style="stroke: #000000"/>
     <use xlink:href="#mbc0c8ce336" x="929.466352" y="365.721072" style="stroke: #000000"/>
    </g>
   </g>
   <g id="patch_3">
    <path d="M 135 448.56 
L 135 60.48 
" style="fill: none; stroke: #000000; stroke-width: 0.8; stroke-linejoin: miter; stroke-linecap: square"/>
   </g>
   <g id="patch_4">
    <path d="M 972 448.56 
L 972 60.48 
" style="fill: none; stroke: #000000; stroke-width: 0.8; stroke-linejoin: miter; stroke-linecap: square"/>
   </g>
   <g id="patch_5">
    <path d="M 135 448.56 
L 972 448.56 
" style="fill: none; stroke: #000000; stroke-width: 0.8; stroke-linejoin: miter; stroke-linecap: square"/>
   </g>
   <g id="patch_6">
    <path d="M 135 60.48 
L 972 60.48 
" style="fill: none; stroke: #000000; stroke-width: 0.8; stroke-linejoin: miter; stroke-linecap: square"/>
   </g>
   <g id="legend_1">
    <g id="patch_7">
     <path d="M 895.915625 113.070625 
L 965 113.070625 
Q 967 113.070625 967 111.070625 
L 967 67.48 
Q 967 65.48 965 65.48 
L 895.915625 65.48 
Q 893.915625 65.48 893.915625 67.48 
L 893.915625 111.070625 
Q 893.915625 113.070625 895.915625 113.070625 
z
" style="fill: #ffffff; opacity: 0.8; stroke: #cccccc; stroke-linejoin: miter"/>
    </g>
    <g id="line2d_17">
     <path d="M 897.915625 73.578438 
L 907.915625 73.578438 
L 917.915625 73.578438 
" style="fill: none; stroke: #1f77b4; stroke-width: 1.5; stroke-linecap: square"/>
    </g>
    <g id="text_15">
     <!-- nw_0 -->
     <g transform="translate(925.915625 77.078438) scale(0.1 -0.1)">
      <defs>
       <path id="DejaVuSans-6e" d="M 3513 2113 
L 3513 0 
L 2938 0 
L 2938 2094 
Q 2938 2591 2744 2837 
Q 2550 3084 2163 3084 
Q 1697 3084 1428 2787 
Q 1159 2491 1159 1978 
L 1159 0 
L 581 0 
L 581 3500 
L 1159 3500 
L 1159 2956 
Q 1366 3272 1645 3428 
Q 1925 3584 2291 3584 
Q 2894 3584 3203 3211 
Q 3513 2838 3513 2113 
z
" transform="scale(0.015625)"/>
       <path id="DejaVuSans-77" d="M 269 3500 
L 844 3500 
L 1563 769 
L 2278 3500 
L 2956 3500 
L 3675 769 
L 4391 3500 
L 4966 3500 
L 4050 0 
L 3372 0 
L 2619 2869 
L 1863 0 
L 1184 0 
L 269 3500 
z
" transform="scale(0.015625)"/>
       <path id="DejaVuSans-5f" d="M 3263 -1063 
L 3263 -1509 
L -63 -1509 
L -63 -1063 
L 3263 -1063 
z
" transform="scale(0.015625)"/>
      </defs>
      <use xlink:href="#DejaVuSans-6e"/>
      <use xlink:href="#DejaVuSans-77" x="63.378906"/>
      <use xlink:href="#DejaVuSans-5f" x="145.166016"/>
      <use xlink:href="#DejaVuSans-30" x="195.166016"/>
     </g>
    </g>
    <g id="line2d_18">
     <path d="M 897.915625 88.534688 
L 907.915625 88.534688 
L 917.915625 88.534688 
" style="fill: none; stroke: #ff7f0e; stroke-width: 1.5; stroke-linecap: square"/>
    </g>
    <g id="text_16">
     <!-- input_0 -->
     <g transform="translate(925.915625 92.034688) scale(0.1 -0.1)">
      <defs>
       <path id="DejaVuSans-69" d="M 603 3500 
L 1178 3500 
L 1178 0 
L 603 0 
L 603 3500 
z
M 603 4863 
L 1178 4863 
L 1178 4134 
L 603 4134 
L 603 4863 
z
" transform="scale(0.015625)"/>
       <path id="DejaVuSans-70" d="M 1159 525 
L 1159 -1331 
L 581 -1331 
L 581 3500 
L 1159 3500 
L 1159 2969 
Q 1341 3281 1617 3432 
Q 1894 3584 2278 3584 
Q 2916 3584 3314 3078 
Q 3713 2572 3713 1747 
Q 3713 922 3314 415 
Q 2916 -91 2278 -91 
Q 1894 -91 1617 61 
Q 1341 213 1159 525 
z
M 3116 1747 
Q 3116 2381 2855 2742 
Q 2594 3103 2138 3103 
Q 1681 3103 1420 2742 
Q 1159 2381 1159 1747 
Q 1159 1113 1420 752 
Q 1681 391 2138 391 
Q 2594 391 2855 752 
Q 3116 1113 3116 1747 
z
" transform="scale(0.015625)"/>
       <path id="DejaVuSans-75" d="M 544 1381 
L 544 3500 
L 1119 3500 
L 1119 1403 
Q 1119 906 1312 657 
Q 1506 409 1894 409 
Q 2359 409 2629 706 
Q 2900 1003 2900 1516 
L 2900 3500 
L 3475 3500 
L 3475 0 
L 2900 0 
L 2900 538 
Q 2691 219 2414 64 
Q 2138 -91 1772 -91 
Q 1169 -91 856 284 
Q 544 659 544 1381 
z
M 1991 3584 
L 1991 3584 
z
" transform="scale(0.015625)"/>
      </defs>
      <use xlink:href="#DejaVuSans-69"/>
      <use xlink:href="#DejaVuSans-6e" x="27.783203"/>
      <use xlink:href="#DejaVuSans-70" x="91.162109"/>
      <use xlink:href="#DejaVuSans-75" x="154.638672"/>
      <use xlink:href="#DejaVuSans-74" x="218.017578"/>
      <use xlink:href="#DejaVuSans-5f" x="257.226562"/>
      <use xlink:href="#DejaVuSans-30" x="307.226562"/>
     </g>
    </g>
    <g id="line2d_19">
     <path d="M 897.915625 103.490938 
L 907.915625 103.490938 
L 917.915625 103.490938 
" style="fill: none; stroke: #000000; stroke-width: 1.5; stroke-linecap: square"/>
     <g>
      <use xlink:href="#mbc0c8ce336" x="907.915625" y="103.490938" style="stroke: #000000"/>
     </g>
    </g>
    <g id="text_17">
     <!-- target -->
     <g transform="translate(925.915625 106.990938) scale(0.1 -0.1)">
      <defs>
       <path id="DejaVuSans-61" d="M 2194 1759 
Q 1497 1759 1228 1600 
Q 959 1441 959 1056 
Q 959 750 1161 570 
Q 1363 391 1709 391 
Q 2188 391 2477 730 
Q 2766 1069 2766 1631 
L 2766 1759 
L 2194 1759 
z
M 3341 1997 
L 3341 0 
L 2766 0 
L 2766 531 
Q 2569 213 2275 61 
Q 1981 -91 1556 -91 
Q 1019 -91 701 211 
Q 384 513 384 1019 
Q 384 1609 779 1909 
Q 1175 2209 1959 2209 
L 2766 2209 
L 2766 2266 
Q 2766 2663 2505 2880 
Q 2244 3097 1772 3097 
Q 1472 3097 1187 3025 
Q 903 2953 641 2809 
L 641 3341 
Q 956 3463 1253 3523 
Q 1550 3584 1831 3584 
Q 2591 3584 2966 3190 
Q 3341 2797 3341 1997 
z
" transform="scale(0.015625)"/>
       <path id="DejaVuSans-72" d="M 2631 2963 
Q 2534 3019 2420 3045 
Q 2306 3072 2169 3072 
Q 1681 3072 1420 2755 
Q 1159 2438 1159 1844 
L 1159 0 
L 581 0 
L 581 3500 
L 1159 3500 
L 1159 2956 
Q 1341 3275 1631 3429 
Q 1922 3584 2338 3584 
Q 2397 3584 2469 3576 
Q 2541 3569 2628 3553 
L 2631 2963 
z
" transform="scale(0.015625)"/>
       <path id="DejaVuSans-67" d="M 2906 1791 
Q 2906 2416 2648 2759 
Q 2391 3103 1925 3103 
Q 1463 3103 1205 2759 
Q 947 2416 947 1791 
Q 947 1169 1205 825 
Q 1463 481 1925 481 
Q 2391 481 2648 825 
Q 2906 1169 2906 1791 
z
M 3481 434 
Q 3481 -459 3084 -895 
Q 2688 -1331 1869 -1331 
Q 1566 -1331 1297 -1286 
Q 1028 -1241 775 -1147 
L 775 -588 
Q 1028 -725 1275 -790 
Q 1522 -856 1778 -856 
Q 2344 -856 2625 -561 
Q 2906 -266 2906 331 
L 2906 616 
Q 2728 306 2450 153 
Q 2172 0 1784 0 
Q 1141 0 747 490 
Q 353 981 353 1791 
Q 353 2603 747 3093 
Q 1141 3584 1784 3584 
Q 2172 3584 2450 3431 
Q 2728 3278 2906 2969 
L 2906 3500 
L 3481 3500 
L 3481 434 
z
" transform="scale(0.015625)"/>
       <path id="DejaVuSans-65" d="M 3597 1894 
L 3597 1613 
L 953 1613 
Q 991 1019 1311 708 
Q 1631 397 2203 397 
Q 2534 397 2845 478 
Q 3156 559 3463 722 
L 3463 178 
Q 3153 47 2828 -22 
Q 2503 -91 2169 -91 
Q 1331 -91 842 396 
Q 353 884 353 1716 
Q 353 2575 817 3079 
Q 1281 3584 2069 3584 
Q 2775 3584 3186 3129 
Q 3597 2675 3597 1894 
z
M 3022 2063 
Q 3016 2534 2758 2815 
Q 2500 3097 2075 3097 
Q 1594 3097 1305 2825 
Q 1016 2553 972 2059 
L 3022 2063 
z
" transform="scale(0.015625)"/>
      </defs>
      <use xlink:href="#DejaVuSans-74"/>
      <use xlink:href="#DejaVuSans-61" x="39.208984"/>
      <use xlink:href="#DejaVuSans-72" x="100.488281"/>
      <use xlink:href="#DejaVuSans-67" x="139.851562"/>
      <use xlink:href="#DejaVuSans-65" x="203.328125"/>
      <use xlink:href="#DejaVuSans-74" x="264.851562"/>
     </g>
    </g>
   </g>
  </g>
 </g>
 <defs>
  <clipPath id="pedc2b2a6c2">
   <rect x="135" y="60.48" width="837" height="388.08"/>
  </clipPath>
 </defs>
</svg>
