<?xml version="1.0" encoding="utf-8" standalone="no"?>
<!DOCTYPE svg PUBLIC "-//W3C//DTD SVG 1.1//EN"
  "http://www.w3.org/Graphics/SVG/1.1/DTD/svg11.dtd">
<svg xmlns:xlink="http://www.w3.org/1999/xlink" width="1080pt" height="504pt" viewBox="0 0 1080 504" xmlns="http://www.w3.org/2000/svg" version="1.1">
 <metadata>
  <rdf:RDF xmlns:dc="http://purl.org/dc/elements/1.1/" xmlns:cc="http://creativecommons.org/ns#" xmlns:rdf="http://www.w3.org/1999/02/22-rdf-syntax-ns#">
   <cc:Work>
    <dc:type rdf:resource="http://purl.org/dc/dcmitype/StillImage"/>
    <dc:date>2024-05-09T11:00:50.395641</dc:date>
    <dc:format>image/svg+xml</dc:format>
    <dc:creator>
     <cc:Agent>
      <dc:title>Matplotlib v3.7.1, https://matplotlib.org/</dc:title>
     </cc:Agent>
    </dc:creator>
   </cc:Work>
  </rdf:RDF>
 </metadata>
 <defs>
  <style type="text/css">*{stroke-linejoin: round; stroke-linecap: butt}</style>
 </defs>
 <g id="figure_1">
  <g id="patch_1">
   <path d="M 0 504 
L 1080 504 
L 1080 0 
L 0 0 
z
" style="fill: #ffffff"/>
  </g>
  <g id="axes_1">
   <g id="patch_2">
    <path d="M 135 448.56 
L 972 448.56 
L 972 60.48 
L 135 60.48 
z
" style="fill: #ffffff"/>
   </g>
   <g id="matplotlib.axis_1">
    <g id="xtick_1">
     <g id="line2d_1">
      <defs>
       <path id="mea15ed0c16" d="M 0 0 
L 0 3.5 
" style="stroke: #000000; stroke-width: 0.8"/>
      </defs>
      <g>
       <use xlink:href="#mea15ed0c16" x="173.045455" y="448.56" style="stroke: #000000; stroke-width: 0.8"/>
      </g>
     </g>
     <g id="text_1">
      <!-- 0 -->
      <g transform="translate(169.864205 463.158437) scale(0.1 -0.1)">
       <defs>
        <path id="DejaVuSans-30" d="M 2034 4250 
Q 1547 4250 1301 3770 
Q 1056 3291 1056 2328 
Q 1056 1369 1301 889 
Q 1547 409 2034 409 
Q 2525 409 2770 889 
Q 3016 1369 3016 2328 
Q 3016 3291 2770 3770 
Q 2525 4250 2034 4250 
z
M 2034 4750 
Q 2819 4750 3233 4129 
Q 3647 3509 3647 2328 
Q 3647 1150 3233 529 
Q 2819 -91 2034 -91 
Q 1250 -91 836 529 
Q 422 1150 422 2328 
Q 422 3509 836 4129 
Q 1250 4750 2034 4750 
z
" transform="scale(0.015625)"/>
       </defs>
       <use xlink:href="#DejaVuSans-30"/>
      </g>
     </g>
    </g>
    <g id="xtick_2">
     <g id="line2d_2">
      <g>
       <use xlink:href="#mea15ed0c16" x="333.33808" y="448.56" style="stroke: #000000; stroke-width: 0.8"/>
      </g>
     </g>
     <g id="text_2">
      <!-- 1000 -->
      <g transform="translate(320.61308 463.158437) scale(0.1 -0.1)">
       <defs>
        <path id="DejaVuSans-31" d="M 794 531 
L 1825 531 
L 1825 4091 
L 703 3866 
L 703 4441 
L 1819 4666 
L 2450 4666 
L 2450 531 
L 3481 531 
L 3481 0 
L 794 0 
L 794 531 
z
" transform="scale(0.015625)"/>
       </defs>
       <use xlink:href="#DejaVuSans-31"/>
       <use xlink:href="#DejaVuSans-30" x="63.623047"/>
       <use xlink:href="#DejaVuSans-30" x="127.246094"/>
       <use xlink:href="#DejaVuSans-30" x="190.869141"/>
      </g>
     </g>
    </g>
    <g id="xtick_3">
     <g id="line2d_3">
      <g>
       <use xlink:href="#mea15ed0c16" x="493.630705" y="448.56" style="stroke: #000000; stroke-width: 0.8"/>
      </g>
     </g>
     <g id="text_3">
      <!-- 2000 -->
      <g transform="translate(480.905705 463.158437) scale(0.1 -0.1)">
       <defs>
        <path id="DejaVuSans-32" d="M 1228 531 
L 3431 531 
L 3431 0 
L 469 0 
L 469 531 
Q 828 903 1448 1529 
Q 2069 2156 2228 2338 
Q 2531 2678 2651 2914 
Q 2772 3150 2772 3378 
Q 2772 3750 2511 3984 
Q 2250 4219 1831 4219 
Q 1534 4219 1204 4116 
Q 875 4013 500 3803 
L 500 4441 
Q 881 4594 1212 4672 
Q 1544 4750 1819 4750 
Q 2544 4750 2975 4387 
Q 3406 4025 3406 3419 
Q 3406 3131 3298 2873 
Q 3191 2616 2906 2266 
Q 2828 2175 2409 1742 
Q 1991 1309 1228 531 
z
" transform="scale(0.015625)"/>
       </defs>
       <use xlink:href="#DejaVuSans-32"/>
       <use xlink:href="#DejaVuSans-30" x="63.623047"/>
       <use xlink:href="#DejaVuSans-30" x="127.246094"/>
       <use xlink:href="#DejaVuSans-30" x="190.869141"/>
      </g>
     </g>
    </g>
    <g id="xtick_4">
     <g id="line2d_4">
      <g>
       <use xlink:href="#mea15ed0c16" x="653.92333" y="448.56" style="stroke: #000000; stroke-width: 0.8"/>
      </g>
     </g>
     <g id="text_4">
      <!-- 3000 -->
      <g transform="translate(641.19833 463.158437) scale(0.1 -0.1)">
       <defs>
        <path id="DejaVuSans-33" d="M 2597 2516 
Q 3050 2419 3304 2112 
Q 3559 1806 3559 1356 
Q 3559 666 3084 287 
Q 2609 -91 1734 -91 
Q 1441 -91 1130 -33 
Q 819 25 488 141 
L 488 750 
Q 750 597 1062 519 
Q 1375 441 1716 441 
Q 2309 441 2620 675 
Q 2931 909 2931 1356 
Q 2931 1769 2642 2001 
Q 2353 2234 1838 2234 
L 1294 2234 
L 1294 2753 
L 1863 2753 
Q 2328 2753 2575 2939 
Q 2822 3125 2822 3475 
Q 2822 3834 2567 4026 
Q 2313 4219 1838 4219 
Q 1578 4219 1281 4162 
Q 984 4106 628 3988 
L 628 4550 
Q 988 4650 1302 4700 
Q 1616 4750 1894 4750 
Q 2613 4750 3031 4423 
Q 3450 4097 3450 3541 
Q 3450 3153 3228 2886 
Q 3006 2619 2597 2516 
z
" transform="scale(0.015625)"/>
       </defs>
       <use xlink:href="#DejaVuSans-33"/>
       <use xlink:href="#DejaVuSans-30" x="63.623047"/>
       <use xlink:href="#DejaVuSans-30" x="127.246094"/>
       <use xlink:href="#DejaVuSans-30" x="190.869141"/>
      </g>
     </g>
    </g>
    <g id="xtick_5">
     <g id="line2d_5">
      <g>
       <use xlink:href="#mea15ed0c16" x="814.215955" y="448.56" style="stroke: #000000; stroke-width: 0.8"/>
      </g>
     </g>
     <g id="text_5">
      <!-- 4000 -->
      <g transform="translate(801.490955 463.158437) scale(0.1 -0.1)">
       <defs>
        <path id="DejaVuSans-34" d="M 2419 4116 
L 825 1625 
L 2419 1625 
L 2419 4116 
z
M 2253 4666 
L 3047 4666 
L 3047 1625 
L 3713 1625 
L 3713 1100 
L 3047 1100 
L 3047 0 
L 2419 0 
L 2419 1100 
L 313 1100 
L 313 1709 
L 2253 4666 
z
" transform="scale(0.015625)"/>
       </defs>
       <use xlink:href="#DejaVuSans-34"/>
       <use xlink:href="#DejaVuSans-30" x="63.623047"/>
       <use xlink:href="#DejaVuSans-30" x="127.246094"/>
       <use xlink:href="#DejaVuSans-30" x="190.869141"/>
      </g>
     </g>
    </g>
    <g id="text_6">
     <!-- t -->
     <g transform="translate(551.539844 476.836563) scale(0.1 -0.1)">
      <defs>
       <path id="DejaVuSans-74" d="M 1172 4494 
L 1172 3500 
L 2356 3500 
L 2356 3053 
L 1172 3053 
L 1172 1153 
Q 1172 725 1289 603 
Q 1406 481 1766 481 
L 2356 481 
L 2356 0 
L 1766 0 
Q 1100 0 847 248 
Q 594 497 594 1153 
L 594 3053 
L 172 3053 
L 172 3500 
L 594 3500 
L 594 4494 
L 1172 4494 
z
" transform="scale(0.015625)"/>
      </defs>
      <use xlink:href="#DejaVuSans-74"/>
     </g>
    </g>
   </g>
   <g id="matplotlib.axis_2">
    <g id="ytick_1">
     <g id="line2d_6">
      <defs>
       <path id="m965799fa25" d="M 0 0 
L -3.5 0 
" style="stroke: #000000; stroke-width: 0.8"/>
      </defs>
      <g>
       <use xlink:href="#m965799fa25" x="135" y="403.872785" style="stroke: #000000; stroke-width: 0.8"/>
      </g>
     </g>
     <g id="text_7">
      <!-- −1.0 -->
      <g transform="translate(103.717187 407.672004) scale(0.1 -0.1)">
       <defs>
        <path id="DejaVuSans-2212" d="M 678 2272 
L 4684 2272 
L 4684 1741 
L 678 1741 
L 678 2272 
z
" transform="scale(0.015625)"/>
        <path id="DejaVuSans-2e" d="M 684 794 
L 1344 794 
L 1344 0 
L 684 0 
L 684 794 
z
" transform="scale(0.015625)"/>
       </defs>
       <use xlink:href="#DejaVuSans-2212"/>
       <use xlink:href="#DejaVuSans-31" x="83.789062"/>
       <use xlink:href="#DejaVuSans-2e" x="147.412109"/>
       <use xlink:href="#DejaVuSans-30" x="179.199219"/>
      </g>
     </g>
    </g>
    <g id="ytick_2">
     <g id="line2d_7">
      <g>
       <use xlink:href="#m965799fa25" x="135" y="344.899642" style="stroke: #000000; stroke-width: 0.8"/>
      </g>
     </g>
     <g id="text_8">
      <!-- −0.5 -->
      <g transform="translate(103.717187 348.698861) scale(0.1 -0.1)">
       <defs>
        <path id="DejaVuSans-35" d="M 691 4666 
L 3169 4666 
L 3169 4134 
L 1269 4134 
L 1269 2991 
Q 1406 3038 1543 3061 
Q 1681 3084 1819 3084 
Q 2600 3084 3056 2656 
Q 3513 2228 3513 1497 
Q 3513 744 3044 326 
Q 2575 -91 1722 -91 
Q 1428 -91 1123 -41 
Q 819 9 494 109 
L 494 744 
Q 775 591 1075 516 
Q 1375 441 1709 441 
Q 2250 441 2565 725 
Q 2881 1009 2881 1497 
Q 2881 1984 2565 2268 
Q 2250 2553 1709 2553 
Q 1456 2553 1204 2497 
Q 953 2441 691 2322 
L 691 4666 
z
" transform="scale(0.015625)"/>
       </defs>
       <use xlink:href="#DejaVuSans-2212"/>
       <use xlink:href="#DejaVuSans-30" x="83.789062"/>
       <use xlink:href="#DejaVuSans-2e" x="147.412109"/>
       <use xlink:href="#DejaVuSans-35" x="179.199219"/>
      </g>
     </g>
    </g>
    <g id="ytick_3">
     <g id="line2d_8">
      <g>
       <use xlink:href="#m965799fa25" x="135" y="285.926499" style="stroke: #000000; stroke-width: 0.8"/>
      </g>
     </g>
     <g id="text_9">
      <!-- 0.0 -->
      <g transform="translate(112.096875 289.725718) scale(0.1 -0.1)">
       <use xlink:href="#DejaVuSans-30"/>
       <use xlink:href="#DejaVuSans-2e" x="63.623047"/>
       <use xlink:href="#DejaVuSans-30" x="95.410156"/>
      </g>
     </g>
    </g>
    <g id="ytick_4">
     <g id="line2d_9">
      <g>
       <use xlink:href="#m965799fa25" x="135" y="226.953356" style="stroke: #000000; stroke-width: 0.8"/>
      </g>
     </g>
     <g id="text_10">
      <!-- 0.5 -->
      <g transform="translate(112.096875 230.752575) scale(0.1 -0.1)">
       <use xlink:href="#DejaVuSans-30"/>
       <use xlink:href="#DejaVuSans-2e" x="63.623047"/>
       <use xlink:href="#DejaVuSans-35" x="95.410156"/>
      </g>
     </g>
    </g>
    <g id="ytick_5">
     <g id="line2d_10">
      <g>
       <use xlink:href="#m965799fa25" x="135" y="167.980213" style="stroke: #000000; stroke-width: 0.8"/>
      </g>
     </g>
     <g id="text_11">
      <!-- 1.0 -->
      <g transform="translate(112.096875 171.779432) scale(0.1 -0.1)">
       <use xlink:href="#DejaVuSans-31"/>
       <use xlink:href="#DejaVuSans-2e" x="63.623047"/>
       <use xlink:href="#DejaVuSans-30" x="95.410156"/>
      </g>
     </g>
    </g>
    <g id="ytick_6">
     <g id="line2d_11">
      <g>
       <use xlink:href="#m965799fa25" x="135" y="109.00707" style="stroke: #000000; stroke-width: 0.8"/>
      </g>
     </g>
     <g id="text_12">
      <!-- 1.5 -->
      <g transform="translate(112.096875 112.806288) scale(0.1 -0.1)">
       <use xlink:href="#DejaVuSans-31"/>
       <use xlink:href="#DejaVuSans-2e" x="63.623047"/>
       <use xlink:href="#DejaVuSans-35" x="95.410156"/>
      </g>
     </g>
    </g>
   </g>
   <g id="line2d_12">
    <path d="M 173.045455 185.654533 
L 173.36604 107.177123 
L 173.686625 86.834198 
L 174.00721 79.544496 
L 174.167503 78.12 
L 174.327796 78.340557 
L 174.488088 80.359919 
L 174.808673 89.204481 
L 175.449844 111.028973 
L 175.770429 115.254314 
L 175.930722 115.196488 
L 176.251307 113.240533 
L 176.4116 113.184312 
L 176.571892 115.34742 
L 176.732185 121.134989 
L 177.05277 149.589157 
L 177.373355 210.508415 
L 177.693941 314.641303 
L 178.014526 419.108151 
L 178.174819 430.92 
L 178.335111 429.284736 
L 178.655696 406.730731 
L 179.617452 323.837593 
L 180.258623 287.658601 
L 180.899793 262.937906 
L 181.380671 250.172426 
L 181.861549 242.74849 
L 182.182134 241.043942 
L 182.342427 241.160829 
L 182.502719 241.886403 
L 182.823305 244.957263 
L 183.304183 252.508896 
L 184.426231 271.438649 
L 184.746816 274.394881 
L 185.067401 275.571584 
L 185.227694 275.453185 
L 185.387987 274.861797 
L 185.708572 272.304345 
L 186.18945 265.369963 
L 186.83062 251.754167 
L 189.074717 198.869227 
L 189.715888 190.187595 
L 190.196765 186.781106 
L 190.517351 186.069677 
L 190.677643 186.185837 
L 190.998229 187.353568 
L 191.318814 189.740784 
L 191.799692 195.487815 
L 192.440862 206.757807 
L 193.242325 225.350035 
L 196.127593 297.567453 
L 196.768763 306.903282 
L 197.249641 310.966735 
L 197.570226 312.164072 
L 197.730519 312.29819 
L 197.890811 312.121433 
L 198.211397 310.841567 
L 198.531982 308.353351 
L 199.01286 302.481588 
L 199.65403 291.13434 
L 200.615786 268.651672 
L 202.859883 213.156594 
L 203.661346 199.723611 
L 204.142224 194.403139 
L 204.623102 191.303706 
L 204.943687 190.481609 
L 205.10398 190.437739 
L 205.264272 190.633254 
L 205.584857 191.719886 
L 205.905443 193.686825 
L 206.386321 198.134838 
L 207.027491 206.418027 
L 207.989247 222.316991 
L 210.553929 266.894987 
L 211.355392 277.144939 
L 212.156855 284.609447 
L 212.798026 288.538448 
L 213.278903 290.361195 
L 213.599489 200.14869 
L 213.759781 192.835976 
L 213.920074 192.334282 
L 214.080367 192.772576 
L 214.240659 191.830571 
L 214.561244 185.375227 
L 215.042122 174.527623 
L 215.523 169.158073 
L 215.843585 164.871956 
L 216.164171 157.180095 
L 216.805341 140.258385 
L 216.965634 140.630615 
L 217.125926 145.333212 
L 217.446512 173.504206 
L 217.767097 236.200455 
L 218.408267 401.319993 
L 218.56856 397.823254 
L 219.049438 352.442313 
L 219.530316 311.68818 
L 220.011194 290.675244 
L 220.331779 284.71953 
L 220.652364 282.177526 
L 221.774413 277.24817 
L 222.575876 272.500439 
L 222.896461 271.658023 
L 223.056754 271.58858 
L 223.217046 271.753231 
L 223.537631 272.700718 
L 224.819972 278.246224 
L 224.980265 278.328267 
L 225.140558 278.143885 
L 225.461143 276.894092 
L 225.781728 274.402366 
L 226.262606 268.377989 
L 226.903777 256.740144 
L 228.186118 227.476219 
L 229.147873 207.402211 
L 229.789044 197.615637 
L 230.269922 192.833049 
L 230.590507 191.000424 
L 230.911092 190.302631 
L 231.071385 190.385958 
L 231.231677 190.758283 
L 231.552263 192.364352 
L 232.033141 196.870504 
L 232.514018 203.730204 
L 233.155189 216.040242 
L 234.116945 239.313369 
L 236.200749 291.086538 
L 236.841919 302.191253 
L 237.322797 307.881007 
L 237.803675 311.002 
L 238.12426 311.576599 
L 238.284553 311.404828 
L 238.605138 310.147229 
L 238.925723 307.695326 
L 239.406601 301.898147 
L 240.047772 290.673197 
L 241.009528 268.38105 
L 243.253624 213.109781 
L 244.055087 199.642762 
L 244.535965 194.274574 
L 245.016843 191.109995 
L 245.337428 190.236304 
L 245.497721 190.164555 
L 245.658014 190.330973 
L 245.978599 191.356262 
L 246.299184 193.258504 
L 246.780062 197.605342 
L 247.421233 205.750761 
L 248.382988 221.449926 
L 250.94767 265.63382 
L 251.749133 275.815332 
L 252.550597 283.237042 
L 253.191767 287.148491 
L 253.672645 288.966661 
L 253.99323 289.691633 
L 254.313815 205.297667 
L 254.474108 199.719477 
L 254.794693 201.418381 
L 254.954986 200.699271 
L 255.275571 193.761297 
L 255.916742 177.644089 
L 256.557912 166.507141 
L 257.03879 151.619484 
L 257.519668 138.126148 
L 257.679961 138.165694 
L 257.840253 142.617041 
L 258.000546 152.913884 
L 258.321131 196.819377 
L 258.641716 280.799351 
L 258.962302 382.453392 
L 259.122594 394.51359 
L 259.282887 389.854124 
L 259.763765 343.407106 
L 260.244643 303.959252 
L 260.565228 289.552663 
L 260.885813 282.670877 
L 261.206398 280.462819 
L 261.366691 280.29399 
L 262.007861 280.665329 
L 262.168154 280.428787 
L 262.488739 279.360339 
L 263.610788 274.565837 
L 263.77108 274.429049 
L 263.931373 274.498269 
L 264.251958 275.192221 
L 264.893129 277.799866 
L 265.374007 279.328106 
L 265.534299 279.507191 
L 265.694592 279.458594 
L 265.854884 279.153968 
L 266.17547 277.696719 
L 266.496055 275.041915 
L 266.976933 268.849688 
L 267.618103 257.101149 
L 269.060737 224.149369 
L 270.022493 204.913457 
L 270.663663 195.98618 
L 271.144541 191.939242 
L 271.465126 190.621557 
L 271.625419 190.3904 
L 271.785712 190.447265 
L 271.946004 190.792636 
L 272.266589 192.344037 
L 272.747467 196.768822 
L 273.228345 203.551439 
L 273.869516 215.770596 
L 274.831271 238.941385 
L 276.915076 290.639545 
L 277.556246 301.754162 
L 278.037124 307.458471 
L 278.518002 310.598725 
L 278.838587 311.188168 
L 278.99888 311.024287 
L 279.319465 309.783193 
L 279.64005 307.348491 
L 280.120928 301.577753 
L 280.762099 290.387834 
L 281.723854 268.144193 
L 283.967951 212.950947 
L 284.769414 199.499066 
L 285.250292 194.137355 
L 285.73117 190.977667 
L 286.051755 190.106511 
L 286.212048 190.035848 
L 286.37234 190.203243 
L 286.692926 191.23021 
L 287.013511 193.133829 
L 287.494389 197.482329 
L 288.135559 205.629556 
L 289.097315 221.331361 
L 291.661997 265.526256 
L 292.46346 275.712501 
L 293.264923 283.139275 
L 293.585509 285.317269 
L 293.906094 206.064753 
L 294.066386 202.078397 
L 294.386972 205.473192 
L 294.547264 205.017615 
L 294.86785 197.778027 
L 295.50902 179.22382 
L 296.310483 160.344778 
L 297.111946 134.211263 
L 297.272239 134.104228 
L 297.432532 138.488431 
L 297.592824 148.793435 
L 297.913409 192.920224 
L 298.233995 277.354284 
L 298.55458 378.692633 
L 298.714873 390.368734 
L 298.875165 385.519323 
L 300.157506 287.496087 
L 300.478091 281.516086 
L 300.638384 280.425581 
L 300.798677 280.129515 
L 300.958969 280.322502 
L 301.60014 281.717444 
L 301.760432 281.622555 
L 302.081018 280.702778 
L 303.363359 274.966274 
L 303.523651 274.835936 
L 303.683944 274.88957 
L 304.004529 275.452256 
L 304.966285 277.803453 
L 305.126578 277.812736 
L 305.28687 277.607672 
L 305.607455 276.450877 
L 305.928041 274.190601 
L 306.408919 268.664963 
L 307.050089 257.748867 
L 308.172137 232.987583 
L 309.294186 208.99205 
L 309.935356 198.670721 
L 310.416234 193.331418 
L 310.897112 190.350831 
L 311.217697 189.75401 
L 311.37799 189.881759 
L 311.698575 190.991544 
L 312.01916 193.227475 
L 312.500038 198.612221 
L 313.141209 209.236772 
L 313.942672 226.925257 
L 316.988232 299.518223 
L 317.629402 307.63514 
L 318.11028 310.76363 
L 318.430865 311.345753 
L 318.591158 311.178468 
L 318.911743 309.931196 
L 319.232329 307.491275 
L 319.713206 301.714691 
L 320.354377 290.520763 
L 321.316133 268.278289 
L 323.560229 213.10291 
L 324.361693 199.655189 
L 324.84257 194.294085 
L 325.323448 191.133289 
L 325.644034 190.260369 
L 325.804326 190.188507 
L 325.964619 190.354492 
L 326.285204 191.378001 
L 326.605789 193.277324 
L 327.086667 197.617874 
L 327.727838 205.751914 
L 328.689593 221.429407 
L 331.254275 265.547766 
L 332.055739 275.711189 
L 332.857202 283.117341 
L 333.498372 287.018414 
L 333.818957 288.326911 
L 334.139543 206.804591 
L 334.299835 202.08948 
L 334.620421 204.663219 
L 334.780713 204.051989 
L 335.101298 196.870169 
L 335.742469 179.273628 
L 336.383639 166.447249 
L 336.864517 150.613307 
L 337.345395 136.586432 
L 337.505688 136.54201 
L 337.66598 140.953616 
L 337.826273 151.252227 
L 338.146858 195.272561 
L 338.467444 279.490915 
L 338.788029 380.762598 
L 338.948321 392.451244 
L 339.108614 387.5634 
L 340.390955 288.356489 
L 340.71154 282.042147 
L 341.032126 280.365614 
L 341.192418 280.43544 
L 341.833589 281.507932 
L 341.993881 281.376413 
L 342.314467 280.433743 
L 343.436515 275.35835 
L 343.7571 275.076608 
L 343.917393 275.221667 
L 344.237978 275.971814 
L 345.199734 278.845985 
L 345.360026 278.928041 
L 345.520319 278.790089 
L 345.840904 277.749122 
L 346.16149 275.578617 
L 346.642367 270.137312 
L 347.283538 259.243071 
L 348.245294 238.053973 
L 349.527635 209.992524 
L 350.168805 199.459799 
L 350.649683 193.964514 
L 351.130561 190.836639 
L 351.451146 190.148563 
L 351.611439 190.233113 
L 351.771731 190.60447 
L 352.092317 192.202779 
L 352.573195 196.685662 
L 353.054072 203.512737 
L 353.695243 215.772766 
L 354.656999 238.974322 
L 356.740803 290.673066 
L 357.381973 301.782197 
L 357.862851 307.482825 
L 358.343729 310.620279 
L 358.664314 311.20849 
L 358.824607 311.044202 
L 359.145192 309.802728 
L 359.465777 307.368225 
L 359.946655 301.59883 
L 360.587826 290.412423 
L 361.549582 268.176648 
L 363.793678 213.002477 
L 364.595141 199.55415 
L 365.076019 194.193255 
L 365.556897 191.033331 
L 365.877482 190.161429 
L 366.037775 190.090219 
L 366.198068 190.256954 
L 366.518653 191.282268 
L 366.839238 193.183811 
L 367.320116 197.528463 
L 367.961287 205.669362 
L 368.923042 221.359737 
L 371.487724 265.520464 
L 372.289187 275.697028 
L 373.090651 283.115277 
L 373.411236 205.688072 
L 373.571528 202.288536 
L 373.892114 206.349491 
L 374.052406 206.023011 
L 374.372992 198.742374 
L 375.174455 175.789001 
L 375.655333 164.315279 
L 376.777381 132.084277 
L 376.937674 136.410967 
L 377.097966 146.684825 
L 377.418551 190.82284 
L 377.739137 275.354483 
L 378.059722 376.533291 
L 378.220015 388.064083 
L 378.380307 383.145807 
L 379.662648 286.066634 
L 379.983233 280.459322 
L 380.143526 279.547061 
L 380.303819 279.419697 
L 380.624404 280.340119 
L 380.944989 281.396107 
L 381.105282 281.643724 
L 381.265574 281.628341 
L 381.425867 281.344784 
L 381.746452 280.102104 
L 382.708208 275.380646 
L 383.028793 274.8401 
L 383.189086 274.843204 
L 383.509671 275.296481 
L 384.471427 277.319017 
L 384.63172 277.280799 
L 384.792012 277.031586 
L 385.112597 275.797658 
L 385.433183 273.476286 
L 385.914061 267.890073 
L 386.555231 256.948481 
L 387.677279 232.263967 
L 388.799328 208.435112 
L 389.440498 198.222264 
L 389.921376 192.962893 
L 390.402254 190.057702 
L 390.722839 189.507585 
L 390.883132 189.657451 
L 391.203717 190.808811 
L 391.524302 193.082608 
L 392.00518 198.517009 
L 392.646351 209.194609 
L 393.447814 226.929891 
L 396.333081 296.902022 
L 396.974252 306.060509 
L 397.45513 310.063553 
L 397.775715 311.251232 
L 397.936007 311.388776 
L 398.0963 311.220498 
L 398.416885 309.971335 
L 398.737471 307.529708 
L 399.218348 301.75102 
L 399.859519 290.555282 
L 400.821275 268.312256 
L 403.065371 213.141809 
L 403.866835 199.695952 
L 404.347712 194.33557 
L 404.82859 191.175086 
L 405.149176 190.302111 
L 405.309468 190.230137 
L 405.469761 190.395951 
L 405.790346 191.418942 
L 406.110931 193.317509 
L 406.591809 197.656475 
L 407.23298 205.787599 
L 408.194735 221.459196 
L 410.759417 265.55672 
L 411.560881 275.713443 
L 412.362344 283.11335 
L 413.003514 287.009907 
L 413.484392 288.818503 
L 413.644685 289.224443 
L 413.96527 206.617154 
L 414.125563 201.571112 
L 414.446148 203.803244 
L 414.60644 203.145936 
L 414.927026 196.045765 
L 415.568196 178.981557 
L 416.209367 166.75277 
L 416.690245 151.236361 
L 417.171122 137.363941 
L 417.331415 137.334043 
L 417.491708 141.742727 
L 417.652 152.021997 
L 417.972586 195.959372 
L 418.293171 280.045124 
L 418.613756 381.302708 
L 418.774049 393.024527 
L 418.934341 388.141765 
L 420.216682 288.458671 
L 420.537268 281.993667 
L 420.857853 280.187542 
L 421.018145 280.203458 
L 421.659316 281.147551 
L 421.819609 281.006708 
L 422.140194 280.071583 
L 423.262242 275.238036 
L 423.422535 275.05065 
L 423.582827 275.062795 
L 423.903413 275.629182 
L 424.544583 277.96466 
L 425.025461 279.305805 
L 425.185754 279.429525 
L 425.346046 279.329791 
L 425.506339 278.978531 
L 425.826924 277.442157 
L 426.147509 274.727323 
L 426.628387 268.479214 
L 427.269558 256.710898 
L 428.712191 223.853421 
L 429.673947 204.7129 
L 430.315118 195.842029 
L 430.795996 191.830093 
L 431.116581 190.531861 
L 431.276873 190.30926 
L 431.437166 190.373916 
L 431.597459 190.726333 
L 431.918044 192.289693 
L 432.398922 196.727549 
L 432.8798 203.518264 
L 433.52097 215.742267 
L 434.482726 238.912229 
L 436.56653 290.600343 
L 437.207701 301.713748 
L 437.688578 307.418227 
L 438.169456 310.559603 
L 438.490042 311.150304 
L 438.650334 310.987197 
L 438.970919 309.747917 
L 439.291505 307.315353 
L 439.772383 301.548326 
L 440.413553 290.364029 
L 441.375309 268.129385 
L 443.619406 212.953136 
L 444.420869 199.504462 
L 444.901747 194.143827 
L 445.382624 190.9846 
L 445.70321 190.113427 
L 445.863502 190.042663 
L 446.023795 190.2099 
L 446.34438 191.236382 
L 446.664965 193.139311 
L 447.145843 197.486435 
L 447.787014 205.631302 
L 448.74877 221.328797 
L 451.313452 265.511307 
L 452.114915 275.694268 
L 452.916378 283.118272 
L 453.557548 287.032045 
L 453.878134 206.531636 
L 454.038426 202.142228 
L 454.359011 205.07845 
L 454.519304 204.533461 
L 454.839889 197.319318 
L 455.48106 179.289972 
L 456.282523 161.245283 
L 457.083986 135.615005 
L 457.244279 135.550936 
L 457.404571 139.958842 
L 457.564864 150.268983 
L 457.885449 194.354309 
L 458.206034 278.68612 
L 458.52662 380.014856 
L 458.686912 391.711656 
L 458.847205 386.85014 
L 460.129546 288.147131 
L 460.450131 281.96333 
L 460.770716 280.39635 
L 460.931009 280.511088 
L 461.57218 281.688283 
L 461.732472 281.563808 
L 462.053057 280.613537 
L 463.335398 275.050682 
L 463.495691 274.963021 
L 463.655984 275.061413 
L 463.976569 275.717055 
L 464.938325 278.332647 
L 465.098617 278.379147 
L 465.25891 278.208495 
L 465.579495 277.111333 
L 465.90008 274.897592 
L 466.380958 269.416332 
L 467.022129 258.513495 
L 468.144177 233.67099 
L 469.426518 206.602132 
L 470.067689 197.0304 
L 470.548567 192.376089 
L 470.869152 190.611662 
L 471.189737 189.968431 
L 471.35003 190.074163 
L 471.670615 191.142498 
L 471.9912 193.340623 
L 472.472078 198.675753 
L 473.113249 209.247356 
L 473.914712 226.889436 
L 476.960272 299.440827 
L 477.601442 307.5624 
L 478.08232 310.69511 
L 478.402905 311.28014 
L 478.563198 311.114295 
L 478.883783 309.869818 
L 479.204368 307.43252 
L 479.685246 301.659423 
L 480.326417 290.469134 
L 481.288172 268.229829 
L 483.532269 213.054432 
L 484.333732 199.606109 
L 484.81461 194.244918 
L 485.295488 191.084364 
L 485.616073 190.211823 
L 485.776366 190.140222 
L 485.936659 190.306518 
L 486.257244 191.330804 
L 486.577829 193.231116 
L 487.058707 197.573545 
L 487.699877 205.710811 
L 488.661633 221.394503 
L 491.226315 265.53383 
L 492.027778 275.703869 
L 492.829241 283.116151 
L 493.470412 287.02164 
L 493.630705 287.728322 
L 493.95129 206.753961 
L 494.111582 202.210842 
L 494.432168 204.97133 
L 494.59246 204.391348 
L 494.913046 197.183729 
L 495.554216 179.340929 
L 496.195387 166.220508 
L 496.676264 150.223278 
L 497.157142 136.110303 
L 497.317435 136.055138 
L 497.477728 140.464617 
L 497.63802 150.76929 
L 497.958605 194.824147 
L 498.279191 279.102658 
L 498.599776 380.389073 
L 498.760069 392.069938 
L 498.920361 387.186917 
L 500.202702 288.240655 
L 500.523287 282.002348 
L 500.843873 280.391112 
L 501.004165 280.488235 
L 501.645336 281.627864 
L 501.805628 281.502236 
L 502.126214 280.558871 
L 503.408555 275.115051 
L 503.568847 275.048301 
L 503.72914 275.168058 
L 504.049725 275.866818 
L 505.011481 278.600028 
L 505.171774 278.662706 
L 505.332066 278.506936 
L 505.652651 277.435358 
L 505.973237 275.241287 
L 506.454115 269.778077 
L 507.095285 258.878507 
L 508.217333 233.993677 
L 509.499674 206.831261 
L 510.140845 197.207153 
L 510.621723 192.514698 
L 510.942308 190.726142 
L 511.262893 190.060174 
L 511.423186 190.15513 
L 511.743771 191.20321 
L 512.064356 193.382903 
L 512.545234 198.693932 
L 513.186405 209.240002 
L 513.987868 226.860034 
L 517.033428 299.394355 
L 517.674598 307.518888 
L 518.155476 310.654159 
L 518.476061 311.240932 
L 518.636354 311.075948 
L 518.956939 309.833149 
L 519.277525 307.397436 
L 519.758402 301.626482 
L 520.399573 290.438525 
L 521.361329 268.20153 
L 523.605425 213.027585 
L 524.406889 199.579392 
L 524.887766 194.218392 
L 525.368644 191.058173 
L 525.68923 190.185955 
L 525.849522 190.114548 
L 526.009815 190.281061 
L 526.3304 191.305852 
L 526.650985 193.206764 
L 527.131863 197.550277 
L 527.773034 205.689316 
L 528.734789 221.376284 
L 531.299471 265.526231 
L 532.100935 275.699542 
L 532.902398 283.114833 
L 533.543568 287.022475 
L 533.864153 288.333971 
L 534.184739 206.658319 
L 534.345031 201.898561 
L 534.665617 204.429691 
L 534.825909 203.815143 
L 535.146494 196.651896 
L 535.787665 179.148159 
L 536.428835 166.428539 
L 536.909713 150.65819 
L 537.390591 136.672732 
L 537.550884 136.637022 
L 537.711176 141.054934 
L 537.871469 151.357594 
L 538.192054 195.37998 
L 538.51264 279.593699 
L 538.833225 380.911697 
L 538.993517 392.636762 
L 539.15381 387.773001 
L 540.436151 288.500544 
L 540.756736 282.141269 
L 541.077322 280.420942 
L 541.237614 280.470398 
L 541.878785 281.477575 
L 542.039077 281.334386 
L 542.359663 280.374103 
L 543.481711 275.287308 
L 543.802296 275.012087 
L 543.962589 275.161286 
L 544.283174 275.920804 
L 545.24493 278.824235 
L 545.405222 278.910547 
L 545.565515 278.776549 
L 545.8861 277.742503 
L 546.206686 275.577547 
L 546.687563 270.142063 
L 547.328734 259.251594 
L 548.29049 238.062605 
L 549.572831 209.998032 
L 550.214001 199.464245 
L 550.694879 193.968649 
L 551.175757 190.840877 
L 551.496342 190.153069 
L 551.656635 190.237805 
L 551.816927 190.609377 
L 552.137513 192.208188 
L 552.618391 196.69195 
L 553.099268 203.519971 
L 553.740439 215.781228 
L 554.702195 238.984272 
L 556.785999 290.683942 
L 557.427169 301.792736 
L 557.908047 307.49296 
L 558.388925 310.629906 
L 558.70951 311.21773 
L 558.869803 311.053238 
L 559.190388 309.811336 
L 559.510973 307.376387 
L 559.991851 301.606303 
L 560.633022 290.418971 
L 561.594778 268.181886 
L 563.838874 213.005481 
L 564.640337 199.556689 
L 565.121215 194.195592 
L 565.602093 191.035515 
L 565.922678 190.163537 
L 566.082971 190.092294 
L 566.243264 190.259002 
L 566.563849 191.284272 
L 566.884434 193.185783 
L 567.365312 197.530409 
L 568.006483 205.671302 
L 568.968238 221.361704 
L 571.53292 265.52253 
L 572.334383 275.6991 
L 573.135847 283.11734 
L 573.777017 287.027062 
L 574.257895 288.84451 
L 574.57848 206.468836 
L 574.738773 201.495689 
L 575.059358 203.806074 
L 575.219651 203.161511 
L 575.540236 196.050963 
L 576.181406 178.896738 
L 576.822577 166.578979 
L 577.303455 151.031382 
L 577.784333 137.16679 
L 577.944625 137.148045 
L 578.104918 141.571866 
L 578.265211 151.870005 
L 578.585796 195.85517 
L 578.906381 279.999994 
L 579.226966 381.355898 
L 579.387259 393.132104 
L 579.547552 388.293486 
L 580.829893 288.714649 
L 581.150478 282.235418 
L 581.471063 280.406706 
L 581.631356 280.408858 
L 582.272526 281.285854 
L 582.432819 281.125963 
L 582.753404 280.15087 
L 583.875452 275.1685 
L 584.035745 274.960018 
L 584.196038 274.951397 
L 584.516623 275.477608 
L 584.997501 277.134834 
L 585.478379 278.738033 
L 585.798964 279.147889 
L 585.959257 279.03654 
L 586.279842 278.041458 
L 586.600427 275.90663 
L 587.081305 270.499694 
L 587.722475 259.618424 
L 588.684231 238.394404 
L 589.966572 210.233135 
L 590.607743 199.645557 
L 591.088621 194.111525 
L 591.569498 190.948507 
L 591.890084 190.239418 
L 592.050376 190.31424 
L 592.210669 190.676399 
L 592.531254 192.257911 
L 593.012132 196.719539 
L 593.49301 203.529839 
L 594.13418 215.773718 
L 595.095936 238.961764 
L 597.17974 290.65653 
L 597.820911 301.767196 
L 598.301789 307.469042 
L 598.782667 310.607571 
L 599.103252 311.196353 
L 599.263544 311.0323 
L 599.58413 309.791175 
L 599.904715 307.35686 
L 600.385593 301.587437 
L 601.026763 290.400449 
L 601.988519 268.162897 
L 604.232616 212.983586 
L 605.034079 199.534195 
L 605.514957 194.173032 
L 605.995835 191.013148 
L 606.31642 190.14145 
L 606.476713 190.070395 
L 606.637005 190.23732 
L 606.95759 191.263118 
L 607.278176 193.165279 
L 607.759054 197.511094 
L 608.400224 205.653939 
L 609.36198 221.347899 
L 611.926662 265.519715 
L 612.728125 275.699515 
L 613.209003 280.493199 
L 613.529588 204.579362 
L 613.689881 201.68619 
L 614.010466 206.356764 
L 614.170759 206.169155 
L 614.491344 198.915794 
L 615.292807 175.197121 
L 615.773685 163.097374 
L 616.735441 130.149535 
L 616.895733 129.878499 
L 617.056026 134.148313 
L 617.216318 144.387148 
L 617.536904 188.517441 
L 617.857489 273.11684 
L 618.178074 374.236363 
L 618.338367 385.71008 
L 618.498659 380.78533 
L 619.781 284.600495 
L 620.101586 279.292101 
L 620.261878 278.521607 
L 620.422171 278.52815 
L 620.742756 279.686969 
L 621.063341 280.935919 
L 621.223634 281.2618 
L 621.383927 281.312437 
L 621.544219 281.082853 
L 621.864805 279.913665 
L 622.82656 275.188017 
L 623.147146 274.594271 
L 623.307438 274.565084 
L 623.628023 274.946503 
L 624.589779 276.743741 
L 624.750072 276.672068 
L 624.910364 276.391575 
L 625.23095 275.102571 
L 625.551535 272.737236 
L 626.032413 267.107456 
L 626.673583 256.149487 
L 627.795632 231.53519 
L 628.91768 207.859554 
L 629.558851 197.7506 
L 630.039728 192.570109 
L 630.520606 189.741312 
L 630.841192 189.239592 
L 631.001484 189.412692 
L 631.322069 190.608321 
L 631.642655 192.923189 
L 632.123533 198.412714 
L 632.764703 209.151226 
L 633.566166 226.942833 
L 636.451433 296.980278 
L 637.092604 306.136256 
L 637.573482 310.135837 
L 637.894067 311.320781 
L 638.05436 311.456885 
L 638.214652 311.28714 
L 638.535238 310.035023 
L 638.855823 307.590499 
L 639.336701 301.807752 
L 639.977871 290.607439 
L 640.939627 268.3598 
L 643.183724 213.187558 
L 643.985187 199.742418 
L 644.466065 194.382367 
L 644.946943 191.221992 
L 645.267528 190.348921 
L 645.42782 190.276839 
L 645.588113 190.442502 
L 645.908698 191.465052 
L 646.229284 193.362982 
L 646.710161 197.700609 
L 647.351332 205.829219 
L 648.313088 221.495564 
L 650.87777 265.573318 
L 651.679233 275.723363 
L 652.480696 283.116907 
L 653.121866 287.00877 
L 653.602744 288.814139 
L 653.92333 289.531505 
L 654.243915 206.46038 
L 654.404207 201.276281 
L 654.724793 203.372465 
L 654.885085 202.70101 
L 655.205671 195.645852 
L 655.846841 178.819591 
L 656.488012 166.840616 
L 656.968889 151.446966 
L 657.449767 137.622791 
L 657.61006 137.592555 
L 657.770353 141.993287 
L 657.930645 152.257511 
L 658.25123 196.145948 
L 658.571816 280.162088 
L 658.892401 381.400132 
L 659.052694 393.131368 
L 659.212986 388.24824 
L 660.495327 288.385231 
L 660.815912 281.867018 
L 661.136498 280.01719 
L 661.29679 280.015978 
L 661.937961 280.928654 
L 662.098253 280.789552 
L 662.418839 279.868857 
L 663.540887 275.174433 
L 663.70118 275.013923 
L 663.861472 275.053668 
L 664.182058 275.676132 
L 664.823228 278.119189 
L 665.304106 279.5297 
L 665.464399 279.673478 
L 665.624691 279.59208 
L 665.784984 279.257355 
L 666.105569 277.748451 
L 666.426154 275.053488 
L 666.907032 268.821214 
L 667.548203 257.050227 
L 668.990836 224.115931 
L 669.952592 204.899273 
L 670.593763 195.977871 
L 671.07464 191.930936 
L 671.395226 190.611341 
L 671.555518 190.378728 
L 671.715811 190.433841 
L 671.876104 190.777195 
L 672.196689 192.3239 
L 672.677567 196.740456 
L 673.158445 203.51415 
L 673.799615 215.721543 
L 674.761371 238.877409 
L 676.845175 290.562135 
L 677.486345 301.677887 
L 677.967223 307.384374 
L 678.448101 310.527748 
L 678.768686 311.119702 
L 678.928979 310.957186 
L 679.249564 309.718999 
L 679.57015 307.287395 
L 680.051027 301.521541 
L 680.692198 290.338295 
L 681.653954 268.104264 
L 683.89805 212.927392 
L 684.699514 199.478771 
L 685.180391 194.118411 
L 685.661269 190.959678 
L 685.981855 190.088964 
L 686.142147 190.01847 
L 686.30244 190.186003 
L 686.623025 191.21316 
L 686.94361 193.116866 
L 687.424488 197.465343 
L 688.065659 205.612327 
L 689.027414 221.313524 
L 691.592096 265.506977 
L 692.39356 275.693076 
L 693.195023 283.119876 
L 693.836193 287.035593 
L 694.156778 288.350715 
L 694.477364 206.461613 
L 694.637656 201.639563 
L 694.958242 204.110895 
L 695.118534 203.491411 
L 695.439119 196.353283 
L 696.08029 178.977084 
L 696.72146 166.404515 
L 697.202338 150.721725 
L 697.683216 136.793175 
L 697.843509 136.769392 
L 698.003801 141.195906 
L 698.164094 151.504046 
L 698.484679 195.529033 
L 698.805265 279.73611 
L 699.12585 381.118602 
L 699.286142 392.894498 
L 699.446435 388.064422 
L 700.728776 288.702105 
L 701.049361 282.280512 
L 701.369947 280.499385 
L 701.530239 280.520542 
L 702.17141 281.436888 
L 702.331702 281.277446 
L 702.652288 280.292604 
L 703.774336 275.189642 
L 703.934629 274.956978 
L 704.094921 274.923399 
L 704.255214 275.078315 
L 704.575799 275.850783 
L 705.537555 278.794712 
L 705.697847 278.886916 
L 705.85814 278.758391 
L 706.178725 277.733924 
L 706.499311 275.576637 
L 706.980188 270.149182 
L 707.621359 259.263873 
L 708.583115 238.074898 
L 709.865456 210.005784 
L 710.506626 199.470424 
L 710.987504 193.974327 
L 711.468382 190.846635 
L 711.788967 190.159163 
L 711.94926 190.244139 
L 712.109552 190.615992 
L 712.430138 192.215468 
L 712.911016 196.70041 
L 713.391893 203.529713 
L 714.033064 215.792641 
L 714.99482 238.997723 
L 717.078624 290.698692 
L 717.719794 301.807038 
L 718.200672 307.506717 
L 718.68155 310.642973 
L 719.002135 311.230273 
L 719.162428 311.065504 
L 719.483013 309.823021 
L 719.803598 307.387465 
L 720.284476 301.616442 
L 720.925647 290.427849 
L 721.887403 268.188978 
L 724.131499 213.009531 
L 724.932962 199.560111 
L 725.41384 194.198743 
L 725.894718 191.038464 
L 726.215303 190.166385 
L 726.375596 190.095102 
L 726.535889 190.261773 
L 726.856474 191.286987 
L 727.177059 193.188461 
L 727.657937 197.533058 
L 728.299108 205.673953 
L 729.260863 221.364409 
L 731.825545 265.525402 
L 732.627008 275.701989 
L 733.428472 283.120225 
L 734.069642 287.029928 
L 734.390227 206.604397 
L 734.55052 202.236484 
L 734.871105 205.1925 
L 735.031398 204.648487 
L 735.351983 197.42383 
L 735.993154 179.346149 
L 736.794617 161.234883 
L 737.59608 135.563238 
L 737.756372 135.494792 
L 737.916665 139.89955 
L 738.076958 150.207696 
L 738.397543 194.292121 
L 738.718128 278.626445 
L 739.038713 379.933203 
L 739.199006 391.612737 
L 739.359299 386.740017 
L 740.64164 288.073479 
L 740.962225 281.912485 
L 741.28281 280.367605 
L 741.443103 280.492591 
L 742.084273 281.702521 
L 742.244566 281.583874 
L 742.565151 280.642381 
L 743.847492 275.083637 
L 744.007785 274.994167 
L 744.168077 275.090482 
L 744.488663 275.741433 
L 745.450418 278.342404 
L 745.610711 278.38678 
L 745.771004 278.214153 
L 746.091589 277.113535 
L 746.412174 274.897023 
L 746.893052 269.412854 
L 747.534223 258.508128 
L 748.656271 233.665729 
L 749.938612 206.598461 
L 750.579782 197.027207 
L 751.06066 192.373016 
L 751.381246 190.60856 
L 751.701831 189.965225 
L 751.862123 190.07088 
L 752.182709 191.139021 
L 752.503294 193.33691 
L 752.984172 198.671637 
L 753.625342 209.242683 
L 754.426805 226.88415 
L 757.472365 299.435177 
L 758.113536 307.55706 
L 758.594414 310.690062 
L 758.914999 311.275308 
L 759.075292 311.109576 
L 759.395877 309.865334 
L 759.716462 307.428279 
L 760.19734 301.655553 
L 760.83851 290.465757 
L 761.800266 268.227145 
L 764.044363 213.052928 
L 764.845826 199.604853 
L 765.326704 194.243773 
L 765.807582 191.083302 
L 766.128167 190.210805 
L 766.28846 190.139223 
L 766.448752 190.305535 
L 766.769338 191.329848 
L 767.089923 193.23018 
L 767.570801 197.572628 
L 768.211971 205.709904 
L 769.173727 221.39359 
L 771.738409 265.53288 
L 772.539872 275.702915 
L 773.341335 283.1152 
L 773.822213 286.208371 
L 774.142798 206.632019 
L 774.303091 202.530722 
L 774.623676 205.777578 
L 774.783969 205.282848 
L 775.104554 198.018373 
L 775.745725 179.545774 
L 776.547188 160.835471 
L 777.348651 134.802623 
L 777.508943 134.701709 
L 777.669236 139.087027 
L 777.829529 149.388177 
L 778.150114 193.492831 
L 778.470699 277.886824 
L 778.791284 379.126364 
L 778.951577 390.737714 
L 779.11187 385.83158 
L 780.394211 287.577742 
L 780.714796 281.580855 
L 780.875089 280.485726 
L 781.035381 280.187235 
L 781.195674 280.37978 
L 781.836844 281.789262 
L 781.997137 281.701352 
L 782.317722 280.79867 
L 783.600063 275.157224 
L 783.760356 275.040198 
L 783.920648 275.107158 
L 784.241234 275.696199 
L 785.202989 278.118113 
L 785.363282 278.137166 
L 785.523575 277.941115 
L 785.84416 276.799854 
L 786.164745 274.551466 
L 786.645623 269.036206 
L 787.286794 258.119326 
L 788.408842 233.318566 
L 789.53089 209.247687 
L 790.172061 198.875357 
L 790.652939 193.497148 
L 791.133817 190.478753 
L 791.454402 189.85794 
L 791.614694 189.974169 
L 791.93528 191.062012 
L 792.255865 193.277619 
L 792.736743 198.63519 
L 793.377913 209.229991 
L 794.179376 226.891537 
L 797.224936 299.458752 
L 797.866107 307.578829 
L 798.346985 310.710353 
L 798.66757 311.294658 
L 798.827863 311.128485 
L 799.148448 309.883441 
L 799.469033 307.445709 
L 799.949911 301.67224 
L 800.591081 290.481989 
L 801.552837 268.243746 
L 803.796934 213.072806 
L 804.598397 199.62566 
L 805.079275 194.264876 
L 805.560153 191.104457 
L 805.880738 190.231846 
L 806.041031 190.160161 
L 806.201323 190.326338 
L 806.521909 191.350288 
L 806.842494 193.250131 
L 807.323372 197.591619 
L 807.964542 205.727215 
L 808.926298 221.407664 
L 811.49098 265.536203 
L 812.292443 275.702925 
L 813.093906 283.112178 
L 813.414491 285.283839 
L 813.735077 206.518823 
L 813.895369 202.676216 
L 814.215955 206.212431 
L 814.376247 205.771192 
L 814.696832 198.481066 
L 815.338003 179.649676 
L 816.139466 160.374859 
L 816.940929 133.99148 
L 817.101222 133.8576 
L 817.261514 138.222289 
L 817.421807 148.514661 
L 817.742392 192.634614 
L 818.062978 277.082209 
L 818.383563 378.269808 
L 818.543855 389.82717 
L 818.704148 384.898011 
L 819.986489 287.057171 
L 820.307074 281.214943 
L 820.467367 280.193068 
L 820.62766 279.963408 
L 820.787952 280.219395 
L 821.429123 281.817051 
L 821.589415 281.758508 
L 821.910001 280.893698 
L 822.551171 277.522829 
L 823.032049 275.516607 
L 823.352634 275.042903 
L 823.512927 275.083695 
L 823.833512 275.617279 
L 824.795268 277.877397 
L 824.95556 277.873421 
L 825.115853 277.656035 
L 825.436438 276.477669 
L 825.757024 274.200104 
L 826.237901 268.656339 
L 826.879072 257.728517 
L 828.00112 232.967975 
L 829.123169 208.981064 
L 829.764339 198.662902 
L 830.245217 193.324413 
L 830.726095 190.343314 
L 831.04668 189.745506 
L 831.206973 189.872598 
L 831.527558 190.980798 
L 831.848143 193.214864 
L 832.329021 198.596487 
L 832.970192 209.216711 
L 833.771655 226.900278 
L 836.817215 299.48713 
L 837.458385 307.605315 
L 837.939263 310.735168 
L 838.259848 311.318357 
L 838.420141 311.151643 
L 838.740726 309.905577 
L 839.061311 307.466928 
L 839.542189 301.692331 
L 840.18336 290.501094 
L 841.145116 268.26247 
L 843.389212 213.093666 
L 844.190675 199.64729 
L 844.671553 194.286761 
L 845.152431 191.126387 
L 845.473016 190.253674 
L 845.633309 190.181896 
L 845.793602 190.347951 
L 846.114187 191.371569 
L 846.434772 193.270961 
L 846.91565 197.611554 
L 847.556821 205.745567 
L 848.518576 221.422915 
L 851.083258 265.540886 
L 851.884721 275.704283 
L 852.686185 283.110462 
L 853.327355 287.011594 
L 853.808233 288.823303 
L 854.289111 289.770327 
L 854.609696 289.972876 
L 854.930281 205.078606 
L 855.090574 199.371091 
L 855.250867 199.933007 
L 855.411159 200.986309 
L 855.571452 200.288694 
L 855.892037 193.469164 
L 856.533208 177.684397 
L 857.174378 166.772815 
L 857.655256 151.912573 
L 858.136134 138.321272 
L 858.296426 138.30335 
L 858.456719 142.686457 
L 858.617012 152.905403 
L 858.937597 196.6308 
L 859.258182 280.406136 
L 859.578767 381.769248 
L 859.73906 393.682579 
L 859.899353 388.90821 
L 860.380231 342.270541 
L 860.861108 302.794317 
L 861.181694 288.426826 
L 861.502279 281.616001 
L 861.822864 279.50253 
L 861.983157 279.38796 
L 862.624327 280.010075 
L 862.78462 279.842513 
L 863.105205 278.917012 
L 864.066961 274.909003 
L 864.387546 274.576536 
L 864.547839 274.716503 
L 864.868424 275.546437 
L 866.150765 280.291937 
L 866.311058 280.28079 
L 866.47135 280.009475 
L 866.791936 278.606155 
L 867.112521 275.988167 
L 867.593399 269.819563 
L 868.234569 258.047669 
L 869.51691 228.556456 
L 870.478666 208.244889 
L 871.119836 198.260082 
L 871.600714 193.315758 
L 871.9213 191.372831 
L 872.241885 190.565162 
L 872.402177 190.594328 
L 872.56247 190.913315 
L 872.883055 192.416008 
L 873.203641 195.05002 
L 873.684518 201.017648 
L 874.325689 212.334671 
L 875.287445 234.680342 
L 877.531541 290.492237 
L 878.172712 301.614071 
L 878.65359 307.324874 
L 879.134468 310.471882 
L 879.455053 311.065747 
L 879.615346 310.904013 
L 879.935931 309.667031 
L 880.256516 307.236146 
L 880.737394 301.470484 
L 881.378564 290.286021 
L 882.34032 268.047893 
L 884.584417 212.860515 
L 885.38588 199.410841 
L 885.866758 194.05096 
L 886.347636 190.893596 
L 886.668221 190.024292 
L 886.828514 189.954649 
L 886.988806 190.123128 
L 887.309392 191.152456 
L 887.629977 193.058686 
L 888.110855 197.411556 
L 888.752025 205.565369 
L 889.713781 221.278324 
L 892.278463 265.505093 
L 893.079926 275.700349 
L 893.881389 283.135132 
L 894.362267 286.240252 
L 894.682852 206.180998 
L 894.843145 201.938331 
L 895.16373 205.048475 
L 895.324023 204.541686 
L 895.644608 197.332077 
L 896.285779 179.144076 
L 897.087242 160.835795 
L 897.888705 135.055434 
L 898.048997 134.981492 
L 898.20929 139.386338 
L 898.369583 149.700025 
L 898.690168 193.81104 
L 899.010753 278.190699 
L 899.331338 379.577275 
L 899.491631 391.30441 
L 899.651924 386.475324 
L 900.934265 288.02527 
L 901.25485 281.888882 
L 901.575435 280.358987 
L 901.735728 280.488067 
L 902.376898 281.693729 
L 902.537191 281.56934 
L 902.857776 280.611539 
L 904.140117 274.943037 
L 904.30041 274.837207 
L 904.460702 274.917053 
L 904.781288 275.53528 
L 905.743043 278.048457 
L 905.903336 278.080789 
L 906.063629 277.89708 
L 906.384214 276.777419 
L 906.704799 274.546341 
L 907.185677 269.049228 
L 907.826848 258.144077 
L 908.948896 233.342501 
L 910.070944 209.262799 
L 910.712115 198.887124 
L 911.192993 193.507943 
L 911.673871 190.489884 
L 911.994456 189.869933 
L 912.154748 189.986754 
L 912.475334 191.076048 
L 912.795919 193.293384 
L 913.276797 198.653869 
L 913.917967 209.252717 
L 914.71943 226.918833 
L 917.76499 299.490998 
L 918.406161 307.609612 
L 918.887039 310.73964 
L 919.207624 311.322798 
L 919.367917 311.156015 
L 919.688502 309.909691 
L 920.009087 307.470618 
L 920.489965 301.695067 
L 921.131135 290.502014 
L 922.092891 268.259786 
L 924.336988 213.08205 
L 925.138451 199.633502 
L 925.619329 194.272112 
L 926.100207 191.111243 
L 926.420792 190.238408 
L 926.581085 190.166631 
L 926.741377 190.332729 
L 927.061963 191.356555 
L 927.382548 193.256315 
L 927.863426 197.597741 
L 928.504596 205.733343 
L 929.466352 221.41391 
L 932.031034 265.54281 
L 932.832497 275.709562 
L 933.63396 283.118793 
L 933.794253 284.260479 
L 933.954545 226.747942 
L 933.954545 226.747942 
" clip-path="url(#p7098d1bb28)" style="fill: none; stroke: #1f77b4; stroke-width: 1.5; stroke-linecap: square"/>
   </g>
   <g id="line2d_13">
    <path d="M 173.045455 167.980213 
L 177.693941 167.980213 
L 177.854233 285.926499 
L 213.278903 285.926499 
L 213.439196 167.980213 
L 218.087682 167.980213 
L 218.247975 285.926499 
L 253.99323 285.926499 
L 254.153523 167.980213 
L 258.802009 167.980213 
L 258.962302 285.926499 
L 293.585509 285.926499 
L 293.745801 167.980213 
L 298.394287 167.980213 
L 298.55458 285.926499 
L 333.818957 285.926499 
L 333.97925 167.980213 
L 338.627736 167.980213 
L 338.788029 285.926499 
L 373.090651 285.926499 
L 373.250943 167.980213 
L 377.899429 167.980213 
L 378.059722 285.926499 
L 413.644685 285.926499 
L 413.804977 167.980213 
L 418.453463 167.980213 
L 418.613756 285.926499 
L 453.557548 285.926499 
L 453.717841 167.980213 
L 458.366327 167.980213 
L 458.52662 285.926499 
L 493.630705 285.926499 
L 493.790997 167.980213 
L 498.439483 167.980213 
L 498.599776 285.926499 
L 533.864153 285.926499 
L 534.024446 167.980213 
L 538.672932 167.980213 
L 538.833225 285.926499 
L 574.257895 285.926499 
L 574.418188 167.980213 
L 579.066674 167.980213 
L 579.226966 285.926499 
L 613.209003 285.926499 
L 613.369295 167.980213 
L 618.017782 167.980213 
L 618.178074 285.926499 
L 653.92333 285.926499 
L 654.083622 167.980213 
L 658.732108 167.980213 
L 658.892401 285.926499 
L 694.156778 285.926499 
L 694.317071 167.980213 
L 698.965557 167.980213 
L 699.12585 285.926499 
L 734.069642 285.926499 
L 734.229935 167.980213 
L 738.878421 167.980213 
L 739.038713 285.926499 
L 773.822213 285.926499 
L 773.982506 167.980213 
L 778.630992 167.980213 
L 778.791284 285.926499 
L 813.414491 285.926499 
L 813.574784 167.980213 
L 818.22327 167.980213 
L 818.383563 285.926499 
L 854.609696 285.926499 
L 854.769989 167.980213 
L 859.418475 167.980213 
L 859.578767 285.926499 
L 894.362267 285.926499 
L 894.52256 167.980213 
L 899.171046 167.980213 
L 899.331338 285.926499 
L 933.794253 285.926499 
L 933.954545 167.980213 
L 933.954545 167.980213 
" clip-path="url(#p7098d1bb28)" style="fill: none; stroke: #ff7f0e; stroke-width: 1.5; stroke-linecap: square"/>
   </g>
   <g id="line2d_14">
    <path d="M 929.466352 285.926499 
" clip-path="url(#p7098d1bb28)" style="fill: none; stroke: #000000; stroke-width: 1.5; stroke-linecap: square"/>
    <defs>
     <path id="m496ad64ba8" d="M 0 1 
C 0.265203 1 0.51958 0.894634 0.707107 0.707107 
C 0.894634 0.51958 1 0.265203 1 0 
C 1 -0.265203 0.894634 -0.51958 0.707107 -0.707107 
C 0.51958 -0.894634 0.265203 -1 0 -1 
C -0.265203 -1 -0.51958 -0.894634 -0.707107 -0.707107 
C -0.894634 -0.51958 -1 -0.265203 -1 0 
C -1 0.265203 -0.894634 0.51958 -0.707107 0.707107 
C -0.51958 0.894634 -0.265203 1 0 1 
z
" style="stroke: #000000"/>
    </defs>
    <g clip-path="url(#p7098d1bb28)">
     <use xlink:href="#m496ad64ba8" x="173.045455" y="167.980213" style="stroke: #000000"/>
     <use xlink:href="#m496ad64ba8" x="178.174819" y="285.926499" style="stroke: #000000"/>
     <use xlink:href="#m496ad64ba8" x="183.14389" y="285.926499" style="stroke: #000000"/>
     <use xlink:href="#m496ad64ba8" x="188.112961" y="167.980213" style="stroke: #000000"/>
     <use xlink:href="#m496ad64ba8" x="193.082033" y="285.926499" style="stroke: #000000"/>
     <use xlink:href="#m496ad64ba8" x="198.211397" y="285.926499" style="stroke: #000000"/>
     <use xlink:href="#m496ad64ba8" x="203.180468" y="167.980213" style="stroke: #000000"/>
     <use xlink:href="#m496ad64ba8" x="208.149539" y="285.926499" style="stroke: #000000"/>
     <use xlink:href="#m496ad64ba8" x="213.118611" y="167.980213" style="stroke: #000000"/>
     <use xlink:href="#m496ad64ba8" x="218.247975" y="285.926499" style="stroke: #000000"/>
     <use xlink:href="#m496ad64ba8" x="223.217046" y="285.926499" style="stroke: #000000"/>
     <use xlink:href="#m496ad64ba8" x="228.186118" y="167.980213" style="stroke: #000000"/>
     <use xlink:href="#m496ad64ba8" x="233.155189" y="285.926499" style="stroke: #000000"/>
     <use xlink:href="#m496ad64ba8" x="238.284553" y="285.926499" style="stroke: #000000"/>
     <use xlink:href="#m496ad64ba8" x="243.253624" y="167.980213" style="stroke: #000000"/>
     <use xlink:href="#m496ad64ba8" x="248.222696" y="285.926499" style="stroke: #000000"/>
     <use xlink:href="#m496ad64ba8" x="253.191767" y="167.980213" style="stroke: #000000"/>
     <use xlink:href="#m496ad64ba8" x="258.321131" y="285.926499" style="stroke: #000000"/>
     <use xlink:href="#m496ad64ba8" x="263.290202" y="285.926499" style="stroke: #000000"/>
     <use xlink:href="#m496ad64ba8" x="268.259274" y="167.980213" style="stroke: #000000"/>
     <use xlink:href="#m496ad64ba8" x="273.228345" y="285.926499" style="stroke: #000000"/>
     <use xlink:href="#m496ad64ba8" x="278.357709" y="285.926499" style="stroke: #000000"/>
     <use xlink:href="#m496ad64ba8" x="283.326781" y="167.980213" style="stroke: #000000"/>
     <use xlink:href="#m496ad64ba8" x="288.295852" y="285.926499" style="stroke: #000000"/>
     <use xlink:href="#m496ad64ba8" x="293.264923" y="167.980213" style="stroke: #000000"/>
     <use xlink:href="#m496ad64ba8" x="298.394287" y="285.926499" style="stroke: #000000"/>
     <use xlink:href="#m496ad64ba8" x="303.363359" y="285.926499" style="stroke: #000000"/>
     <use xlink:href="#m496ad64ba8" x="308.33243" y="167.980213" style="stroke: #000000"/>
     <use xlink:href="#m496ad64ba8" x="313.301501" y="285.926499" style="stroke: #000000"/>
     <use xlink:href="#m496ad64ba8" x="318.430865" y="285.926499" style="stroke: #000000"/>
     <use xlink:href="#m496ad64ba8" x="323.399937" y="167.980213" style="stroke: #000000"/>
     <use xlink:href="#m496ad64ba8" x="328.369008" y="285.926499" style="stroke: #000000"/>
     <use xlink:href="#m496ad64ba8" x="333.33808" y="167.980213" style="stroke: #000000"/>
     <use xlink:href="#m496ad64ba8" x="338.467444" y="285.926499" style="stroke: #000000"/>
     <use xlink:href="#m496ad64ba8" x="343.436515" y="285.926499" style="stroke: #000000"/>
     <use xlink:href="#m496ad64ba8" x="348.405586" y="167.980213" style="stroke: #000000"/>
     <use xlink:href="#m496ad64ba8" x="353.374658" y="285.926499" style="stroke: #000000"/>
     <use xlink:href="#m496ad64ba8" x="358.504022" y="285.926499" style="stroke: #000000"/>
     <use xlink:href="#m496ad64ba8" x="363.473093" y="167.980213" style="stroke: #000000"/>
     <use xlink:href="#m496ad64ba8" x="368.442164" y="285.926499" style="stroke: #000000"/>
     <use xlink:href="#m496ad64ba8" x="373.411236" y="167.980213" style="stroke: #000000"/>
     <use xlink:href="#m496ad64ba8" x="378.5406" y="285.926499" style="stroke: #000000"/>
     <use xlink:href="#m496ad64ba8" x="383.509671" y="285.926499" style="stroke: #000000"/>
     <use xlink:href="#m496ad64ba8" x="388.478743" y="167.980213" style="stroke: #000000"/>
     <use xlink:href="#m496ad64ba8" x="393.447814" y="285.926499" style="stroke: #000000"/>
     <use xlink:href="#m496ad64ba8" x="398.577178" y="285.926499" style="stroke: #000000"/>
     <use xlink:href="#m496ad64ba8" x="403.546249" y="167.980213" style="stroke: #000000"/>
     <use xlink:href="#m496ad64ba8" x="408.515321" y="285.926499" style="stroke: #000000"/>
     <use xlink:href="#m496ad64ba8" x="413.484392" y="167.980213" style="stroke: #000000"/>
     <use xlink:href="#m496ad64ba8" x="418.613756" y="285.926499" style="stroke: #000000"/>
     <use xlink:href="#m496ad64ba8" x="423.582827" y="285.926499" style="stroke: #000000"/>
     <use xlink:href="#m496ad64ba8" x="428.551899" y="167.980213" style="stroke: #000000"/>
     <use xlink:href="#m496ad64ba8" x="433.52097" y="285.926499" style="stroke: #000000"/>
     <use xlink:href="#m496ad64ba8" x="438.650334" y="285.926499" style="stroke: #000000"/>
     <use xlink:href="#m496ad64ba8" x="443.619406" y="167.980213" style="stroke: #000000"/>
     <use xlink:href="#m496ad64ba8" x="448.588477" y="285.926499" style="stroke: #000000"/>
     <use xlink:href="#m496ad64ba8" x="453.557548" y="167.980213" style="stroke: #000000"/>
     <use xlink:href="#m496ad64ba8" x="458.686912" y="285.926499" style="stroke: #000000"/>
     <use xlink:href="#m496ad64ba8" x="463.655984" y="285.926499" style="stroke: #000000"/>
     <use xlink:href="#m496ad64ba8" x="468.625055" y="167.980213" style="stroke: #000000"/>
     <use xlink:href="#m496ad64ba8" x="473.594126" y="285.926499" style="stroke: #000000"/>
     <use xlink:href="#m496ad64ba8" x="478.72349" y="285.926499" style="stroke: #000000"/>
     <use xlink:href="#m496ad64ba8" x="483.692562" y="167.980213" style="stroke: #000000"/>
     <use xlink:href="#m496ad64ba8" x="488.661633" y="285.926499" style="stroke: #000000"/>
     <use xlink:href="#m496ad64ba8" x="493.630705" y="167.980213" style="stroke: #000000"/>
     <use xlink:href="#m496ad64ba8" x="498.760069" y="285.926499" style="stroke: #000000"/>
     <use xlink:href="#m496ad64ba8" x="503.72914" y="285.926499" style="stroke: #000000"/>
     <use xlink:href="#m496ad64ba8" x="508.698211" y="167.980213" style="stroke: #000000"/>
     <use xlink:href="#m496ad64ba8" x="513.667283" y="285.926499" style="stroke: #000000"/>
     <use xlink:href="#m496ad64ba8" x="518.796647" y="285.926499" style="stroke: #000000"/>
     <use xlink:href="#m496ad64ba8" x="523.765718" y="167.980213" style="stroke: #000000"/>
     <use xlink:href="#m496ad64ba8" x="528.734789" y="285.926499" style="stroke: #000000"/>
     <use xlink:href="#m496ad64ba8" x="533.703861" y="167.980213" style="stroke: #000000"/>
     <use xlink:href="#m496ad64ba8" x="538.833225" y="285.926499" style="stroke: #000000"/>
     <use xlink:href="#m496ad64ba8" x="543.802296" y="285.926499" style="stroke: #000000"/>
     <use xlink:href="#m496ad64ba8" x="548.771368" y="167.980213" style="stroke: #000000"/>
     <use xlink:href="#m496ad64ba8" x="553.740439" y="285.926499" style="stroke: #000000"/>
     <use xlink:href="#m496ad64ba8" x="558.869803" y="285.926499" style="stroke: #000000"/>
     <use xlink:href="#m496ad64ba8" x="563.838874" y="167.980213" style="stroke: #000000"/>
     <use xlink:href="#m496ad64ba8" x="568.807946" y="285.926499" style="stroke: #000000"/>
     <use xlink:href="#m496ad64ba8" x="573.777017" y="167.980213" style="stroke: #000000"/>
     <use xlink:href="#m496ad64ba8" x="578.906381" y="285.926499" style="stroke: #000000"/>
     <use xlink:href="#m496ad64ba8" x="583.875452" y="285.926499" style="stroke: #000000"/>
     <use xlink:href="#m496ad64ba8" x="588.844524" y="167.980213" style="stroke: #000000"/>
     <use xlink:href="#m496ad64ba8" x="593.813595" y="285.926499" style="stroke: #000000"/>
     <use xlink:href="#m496ad64ba8" x="598.942959" y="285.926499" style="stroke: #000000"/>
     <use xlink:href="#m496ad64ba8" x="603.912031" y="167.980213" style="stroke: #000000"/>
     <use xlink:href="#m496ad64ba8" x="608.881102" y="285.926499" style="stroke: #000000"/>
     <use xlink:href="#m496ad64ba8" x="613.850173" y="167.980213" style="stroke: #000000"/>
     <use xlink:href="#m496ad64ba8" x="618.979537" y="285.926499" style="stroke: #000000"/>
     <use xlink:href="#m496ad64ba8" x="623.948609" y="285.926499" style="stroke: #000000"/>
     <use xlink:href="#m496ad64ba8" x="628.91768" y="167.980213" style="stroke: #000000"/>
     <use xlink:href="#m496ad64ba8" x="633.886751" y="285.926499" style="stroke: #000000"/>
     <use xlink:href="#m496ad64ba8" x="639.016115" y="285.926499" style="stroke: #000000"/>
     <use xlink:href="#m496ad64ba8" x="643.985187" y="167.980213" style="stroke: #000000"/>
     <use xlink:href="#m496ad64ba8" x="648.954258" y="285.926499" style="stroke: #000000"/>
     <use xlink:href="#m496ad64ba8" x="653.92333" y="167.980213" style="stroke: #000000"/>
     <use xlink:href="#m496ad64ba8" x="659.052694" y="285.926499" style="stroke: #000000"/>
     <use xlink:href="#m496ad64ba8" x="664.021765" y="285.926499" style="stroke: #000000"/>
     <use xlink:href="#m496ad64ba8" x="668.990836" y="167.980213" style="stroke: #000000"/>
     <use xlink:href="#m496ad64ba8" x="673.959908" y="285.926499" style="stroke: #000000"/>
     <use xlink:href="#m496ad64ba8" x="679.089272" y="285.926499" style="stroke: #000000"/>
     <use xlink:href="#m496ad64ba8" x="684.058343" y="167.980213" style="stroke: #000000"/>
     <use xlink:href="#m496ad64ba8" x="689.027414" y="285.926499" style="stroke: #000000"/>
     <use xlink:href="#m496ad64ba8" x="693.996486" y="167.980213" style="stroke: #000000"/>
     <use xlink:href="#m496ad64ba8" x="699.12585" y="285.926499" style="stroke: #000000"/>
     <use xlink:href="#m496ad64ba8" x="704.094921" y="285.926499" style="stroke: #000000"/>
     <use xlink:href="#m496ad64ba8" x="709.063993" y="167.980213" style="stroke: #000000"/>
     <use xlink:href="#m496ad64ba8" x="714.033064" y="285.926499" style="stroke: #000000"/>
     <use xlink:href="#m496ad64ba8" x="719.162428" y="285.926499" style="stroke: #000000"/>
     <use xlink:href="#m496ad64ba8" x="724.131499" y="167.980213" style="stroke: #000000"/>
     <use xlink:href="#m496ad64ba8" x="729.100571" y="285.926499" style="stroke: #000000"/>
     <use xlink:href="#m496ad64ba8" x="734.069642" y="167.980213" style="stroke: #000000"/>
     <use xlink:href="#m496ad64ba8" x="739.199006" y="285.926499" style="stroke: #000000"/>
     <use xlink:href="#m496ad64ba8" x="744.168077" y="285.926499" style="stroke: #000000"/>
     <use xlink:href="#m496ad64ba8" x="749.137149" y="167.980213" style="stroke: #000000"/>
     <use xlink:href="#m496ad64ba8" x="754.10622" y="285.926499" style="stroke: #000000"/>
     <use xlink:href="#m496ad64ba8" x="759.235584" y="285.926499" style="stroke: #000000"/>
     <use xlink:href="#m496ad64ba8" x="764.204656" y="167.980213" style="stroke: #000000"/>
     <use xlink:href="#m496ad64ba8" x="769.173727" y="285.926499" style="stroke: #000000"/>
     <use xlink:href="#m496ad64ba8" x="774.142798" y="167.980213" style="stroke: #000000"/>
     <use xlink:href="#m496ad64ba8" x="779.272162" y="285.926499" style="stroke: #000000"/>
     <use xlink:href="#m496ad64ba8" x="784.241234" y="285.926499" style="stroke: #000000"/>
     <use xlink:href="#m496ad64ba8" x="789.210305" y="167.980213" style="stroke: #000000"/>
     <use xlink:href="#m496ad64ba8" x="794.179376" y="285.926499" style="stroke: #000000"/>
     <use xlink:href="#m496ad64ba8" x="799.30874" y="285.926499" style="stroke: #000000"/>
     <use xlink:href="#m496ad64ba8" x="804.277812" y="167.980213" style="stroke: #000000"/>
     <use xlink:href="#m496ad64ba8" x="809.246883" y="285.926499" style="stroke: #000000"/>
     <use xlink:href="#m496ad64ba8" x="814.215955" y="167.980213" style="stroke: #000000"/>
     <use xlink:href="#m496ad64ba8" x="819.345319" y="285.926499" style="stroke: #000000"/>
     <use xlink:href="#m496ad64ba8" x="824.31439" y="285.926499" style="stroke: #000000"/>
     <use xlink:href="#m496ad64ba8" x="829.283461" y="167.980213" style="stroke: #000000"/>
     <use xlink:href="#m496ad64ba8" x="834.252533" y="285.926499" style="stroke: #000000"/>
     <use xlink:href="#m496ad64ba8" x="839.381897" y="285.926499" style="stroke: #000000"/>
     <use xlink:href="#m496ad64ba8" x="844.350968" y="167.980213" style="stroke: #000000"/>
     <use xlink:href="#m496ad64ba8" x="849.320039" y="285.926499" style="stroke: #000000"/>
     <use xlink:href="#m496ad64ba8" x="854.289111" y="167.980213" style="stroke: #000000"/>
     <use xlink:href="#m496ad64ba8" x="859.418475" y="285.926499" style="stroke: #000000"/>
     <use xlink:href="#m496ad64ba8" x="864.387546" y="285.926499" style="stroke: #000000"/>
     <use xlink:href="#m496ad64ba8" x="869.356618" y="167.980213" style="stroke: #000000"/>
     <use xlink:href="#m496ad64ba8" x="874.325689" y="285.926499" style="stroke: #000000"/>
     <use xlink:href="#m496ad64ba8" x="879.455053" y="285.926499" style="stroke: #000000"/>
     <use xlink:href="#m496ad64ba8" x="884.424124" y="167.980213" style="stroke: #000000"/>
     <use xlink:href="#m496ad64ba8" x="889.393196" y="285.926499" style="stroke: #000000"/>
     <use xlink:href="#m496ad64ba8" x="894.362267" y="167.980213" style="stroke: #000000"/>
     <use xlink:href="#m496ad64ba8" x="899.491631" y="285.926499" style="stroke: #000000"/>
     <use xlink:href="#m496ad64ba8" x="904.460702" y="285.926499" style="stroke: #000000"/>
     <use xlink:href="#m496ad64ba8" x="909.429774" y="167.980213" style="stroke: #000000"/>
     <use xlink:href="#m496ad64ba8" x="914.398845" y="285.926499" style="stroke: #000000"/>
     <use xlink:href="#m496ad64ba8" x="919.528209" y="285.926499" style="stroke: #000000"/>
     <use xlink:href="#m496ad64ba8" x="924.497281" y="167.980213" style="stroke: #000000"/>
     <use xlink:href="#m496ad64ba8" x="929.466352" y="285.926499" style="stroke: #000000"/>
    </g>
   </g>
   <g id="patch_3">
    <path d="M 135 448.56 
L 135 60.48 
" style="fill: none; stroke: #000000; stroke-width: 0.8; stroke-linejoin: miter; stroke-linecap: square"/>
   </g>
   <g id="patch_4">
    <path d="M 972 448.56 
L 972 60.48 
" style="fill: none; stroke: #000000; stroke-width: 0.8; stroke-linejoin: miter; stroke-linecap: square"/>
   </g>
   <g id="patch_5">
    <path d="M 135 448.56 
L 972 448.56 
" style="fill: none; stroke: #000000; stroke-width: 0.8; stroke-linejoin: miter; stroke-linecap: square"/>
   </g>
   <g id="patch_6">
    <path d="M 135 60.48 
L 972 60.48 
" style="fill: none; stroke: #000000; stroke-width: 0.8; stroke-linejoin: miter; stroke-linecap: square"/>
   </g>
   <g id="legend_1">
    <g id="patch_7">
     <path d="M 895.915625 113.070625 
L 965 113.070625 
Q 967 113.070625 967 111.070625 
L 967 67.48 
Q 967 65.48 965 65.48 
L 895.915625 65.48 
Q 893.915625 65.48 893.915625 67.48 
L 893.915625 111.070625 
Q 893.915625 113.070625 895.915625 113.070625 
z
" style="fill: #ffffff; opacity: 0.8; stroke: #cccccc; stroke-linejoin: miter"/>
    </g>
    <g id="line2d_15">
     <path d="M 897.915625 73.578438 
L 907.915625 73.578438 
L 917.915625 73.578438 
" style="fill: none; stroke: #1f77b4; stroke-width: 1.5; stroke-linecap: square"/>
    </g>
    <g id="text_13">
     <!-- nw_0 -->
     <g transform="translate(925.915625 77.078438) scale(0.1 -0.1)">
      <defs>
       <path id="DejaVuSans-6e" d="M 3513 2113 
L 3513 0 
L 2938 0 
L 2938 2094 
Q 2938 2591 2744 2837 
Q 2550 3084 2163 3084 
Q 1697 3084 1428 2787 
Q 1159 2491 1159 1978 
L 1159 0 
L 581 0 
L 581 3500 
L 1159 3500 
L 1159 2956 
Q 1366 3272 1645 3428 
Q 1925 3584 2291 3584 
Q 2894 3584 3203 3211 
Q 3513 2838 3513 2113 
z
" transform="scale(0.015625)"/>
       <path id="DejaVuSans-77" d="M 269 3500 
L 844 3500 
L 1563 769 
L 2278 3500 
L 2956 3500 
L 3675 769 
L 4391 3500 
L 4966 3500 
L 4050 0 
L 3372 0 
L 2619 2869 
L 1863 0 
L 1184 0 
L 269 3500 
z
" transform="scale(0.015625)"/>
       <path id="DejaVuSans-5f" d="M 3263 -1063 
L 3263 -1509 
L -63 -1509 
L -63 -1063 
L 3263 -1063 
z
" transform="scale(0.015625)"/>
      </defs>
      <use xlink:href="#DejaVuSans-6e"/>
      <use xlink:href="#DejaVuSans-77" x="63.378906"/>
      <use xlink:href="#DejaVuSans-5f" x="145.166016"/>
      <use xlink:href="#DejaVuSans-30" x="195.166016"/>
     </g>
    </g>
    <g id="line2d_16">
     <path d="M 897.915625 88.534688 
L 907.915625 88.534688 
L 917.915625 88.534688 
" style="fill: none; stroke: #ff7f0e; stroke-width: 1.5; stroke-linecap: square"/>
    </g>
    <g id="text_14">
     <!-- input_0 -->
     <g transform="translate(925.915625 92.034688) scale(0.1 -0.1)">
      <defs>
       <path id="DejaVuSans-69" d="M 603 3500 
L 1178 3500 
L 1178 0 
L 603 0 
L 603 3500 
z
M 603 4863 
L 1178 4863 
L 1178 4134 
L 603 4134 
L 603 4863 
z
" transform="scale(0.015625)"/>
       <path id="DejaVuSans-70" d="M 1159 525 
L 1159 -1331 
L 581 -1331 
L 581 3500 
L 1159 3500 
L 1159 2969 
Q 1341 3281 1617 3432 
Q 1894 3584 2278 3584 
Q 2916 3584 3314 3078 
Q 3713 2572 3713 1747 
Q 3713 922 3314 415 
Q 2916 -91 2278 -91 
Q 1894 -91 1617 61 
Q 1341 213 1159 525 
z
M 3116 1747 
Q 3116 2381 2855 2742 
Q 2594 3103 2138 3103 
Q 1681 3103 1420 2742 
Q 1159 2381 1159 1747 
Q 1159 1113 1420 752 
Q 1681 391 2138 391 
Q 2594 391 2855 752 
Q 3116 1113 3116 1747 
z
" transform="scale(0.015625)"/>
       <path id="DejaVuSans-75" d="M 544 1381 
L 544 3500 
L 1119 3500 
L 1119 1403 
Q 1119 906 1312 657 
Q 1506 409 1894 409 
Q 2359 409 2629 706 
Q 2900 1003 2900 1516 
L 2900 3500 
L 3475 3500 
L 3475 0 
L 2900 0 
L 2900 538 
Q 2691 219 2414 64 
Q 2138 -91 1772 -91 
Q 1169 -91 856 284 
Q 544 659 544 1381 
z
M 1991 3584 
L 1991 3584 
z
" transform="scale(0.015625)"/>
      </defs>
      <use xlink:href="#DejaVuSans-69"/>
      <use xlink:href="#DejaVuSans-6e" x="27.783203"/>
      <use xlink:href="#DejaVuSans-70" x="91.162109"/>
      <use xlink:href="#DejaVuSans-75" x="154.638672"/>
      <use xlink:href="#DejaVuSans-74" x="218.017578"/>
      <use xlink:href="#DejaVuSans-5f" x="257.226562"/>
      <use xlink:href="#DejaVuSans-30" x="307.226562"/>
     </g>
    </g>
    <g id="line2d_17">
     <path d="M 897.915625 103.490938 
L 907.915625 103.490938 
L 917.915625 103.490938 
" style="fill: none; stroke: #000000; stroke-width: 1.5; stroke-linecap: square"/>
     <g>
      <use xlink:href="#m496ad64ba8" x="907.915625" y="103.490938" style="stroke: #000000"/>
     </g>
    </g>
    <g id="text_15">
     <!-- target -->
     <g transform="translate(925.915625 106.990938) scale(0.1 -0.1)">
      <defs>
       <path id="DejaVuSans-61" d="M 2194 1759 
Q 1497 1759 1228 1600 
Q 959 1441 959 1056 
Q 959 750 1161 570 
Q 1363 391 1709 391 
Q 2188 391 2477 730 
Q 2766 1069 2766 1631 
L 2766 1759 
L 2194 1759 
z
M 3341 1997 
L 3341 0 
L 2766 0 
L 2766 531 
Q 2569 213 2275 61 
Q 1981 -91 1556 -91 
Q 1019 -91 701 211 
Q 384 513 384 1019 
Q 384 1609 779 1909 
Q 1175 2209 1959 2209 
L 2766 2209 
L 2766 2266 
Q 2766 2663 2505 2880 
Q 2244 3097 1772 3097 
Q 1472 3097 1187 3025 
Q 903 2953 641 2809 
L 641 3341 
Q 956 3463 1253 3523 
Q 1550 3584 1831 3584 
Q 2591 3584 2966 3190 
Q 3341 2797 3341 1997 
z
" transform="scale(0.015625)"/>
       <path id="DejaVuSans-72" d="M 2631 2963 
Q 2534 3019 2420 3045 
Q 2306 3072 2169 3072 
Q 1681 3072 1420 2755 
Q 1159 2438 1159 1844 
L 1159 0 
L 581 0 
L 581 3500 
L 1159 3500 
L 1159 2956 
Q 1341 3275 1631 3429 
Q 1922 3584 2338 3584 
Q 2397 3584 2469 3576 
Q 2541 3569 2628 3553 
L 2631 2963 
z
" transform="scale(0.015625)"/>
       <path id="DejaVuSans-67" d="M 2906 1791 
Q 2906 2416 2648 2759 
Q 2391 3103 1925 3103 
Q 1463 3103 1205 2759 
Q 947 2416 947 1791 
Q 947 1169 1205 825 
Q 1463 481 1925 481 
Q 2391 481 2648 825 
Q 2906 1169 2906 1791 
z
M 3481 434 
Q 3481 -459 3084 -895 
Q 2688 -1331 1869 -1331 
Q 1566 -1331 1297 -1286 
Q 1028 -1241 775 -1147 
L 775 -588 
Q 1028 -725 1275 -790 
Q 1522 -856 1778 -856 
Q 2344 -856 2625 -561 
Q 2906 -266 2906 331 
L 2906 616 
Q 2728 306 2450 153 
Q 2172 0 1784 0 
Q 1141 0 747 490 
Q 353 981 353 1791 
Q 353 2603 747 3093 
Q 1141 3584 1784 3584 
Q 2172 3584 2450 3431 
Q 2728 3278 2906 2969 
L 2906 3500 
L 3481 3500 
L 3481 434 
z
" transform="scale(0.015625)"/>
       <path id="DejaVuSans-65" d="M 3597 1894 
L 3597 1613 
L 953 1613 
Q 991 1019 1311 708 
Q 1631 397 2203 397 
Q 2534 397 2845 478 
Q 3156 559 3463 722 
L 3463 178 
Q 3153 47 2828 -22 
Q 2503 -91 2169 -91 
Q 1331 -91 842 396 
Q 353 884 353 1716 
Q 353 2575 817 3079 
Q 1281 3584 2069 3584 
Q 2775 3584 3186 3129 
Q 3597 2675 3597 1894 
z
M 3022 2063 
Q 3016 2534 2758 2815 
Q 2500 3097 2075 3097 
Q 1594 3097 1305 2825 
Q 1016 2553 972 2059 
L 3022 2063 
z
" transform="scale(0.015625)"/>
      </defs>
      <use xlink:href="#DejaVuSans-74"/>
      <use xlink:href="#DejaVuSans-61" x="39.208984"/>
      <use xlink:href="#DejaVuSans-72" x="100.488281"/>
      <use xlink:href="#DejaVuSans-67" x="139.851562"/>
      <use xlink:href="#DejaVuSans-65" x="203.328125"/>
      <use xlink:href="#DejaVuSans-74" x="264.851562"/>
     </g>
    </g>
   </g>
  </g>
 </g>
 <defs>
  <clipPath id="p7098d1bb28">
   <rect x="135" y="60.48" width="837" height="388.08"/>
  </clipPath>
 </defs>
</svg>
