<?xml version="1.0" encoding="utf-8" standalone="no"?>
<!DOCTYPE svg PUBLIC "-//W3C//DTD SVG 1.1//EN"
  "http://www.w3.org/Graphics/SVG/1.1/DTD/svg11.dtd">
<svg xmlns:xlink="http://www.w3.org/1999/xlink" width="1080pt" height="504pt" viewBox="0 0 1080 504" xmlns="http://www.w3.org/2000/svg" version="1.1">
 <metadata>
  <rdf:RDF xmlns:dc="http://purl.org/dc/elements/1.1/" xmlns:cc="http://creativecommons.org/ns#" xmlns:rdf="http://www.w3.org/1999/02/22-rdf-syntax-ns#">
   <cc:Work>
    <dc:type rdf:resource="http://purl.org/dc/dcmitype/StillImage"/>
    <dc:date>2024-05-09T11:37:50.650316</dc:date>
    <dc:format>image/svg+xml</dc:format>
    <dc:creator>
     <cc:Agent>
      <dc:title>Matplotlib v3.7.1, https://matplotlib.org/</dc:title>
     </cc:Agent>
    </dc:creator>
   </cc:Work>
  </rdf:RDF>
 </metadata>
 <defs>
  <style type="text/css">*{stroke-linejoin: round; stroke-linecap: butt}</style>
 </defs>
 <g id="figure_1">
  <g id="patch_1">
   <path d="M 0 504 
L 1080 504 
L 1080 0 
L 0 0 
z
" style="fill: #ffffff"/>
  </g>
  <g id="axes_1">
   <g id="patch_2">
    <path d="M 135 448.56 
L 972 448.56 
L 972 60.48 
L 135 60.48 
z
" style="fill: #ffffff"/>
   </g>
   <g id="matplotlib.axis_1">
    <g id="xtick_1">
     <g id="line2d_1">
      <defs>
       <path id="m22230dfef5" d="M 0 0 
L 0 3.5 
" style="stroke: #000000; stroke-width: 0.8"/>
      </defs>
      <g>
       <use xlink:href="#m22230dfef5" x="173.045455" y="448.56" style="stroke: #000000; stroke-width: 0.8"/>
      </g>
     </g>
     <g id="text_1">
      <!-- 0 -->
      <g transform="translate(169.864205 463.158437) scale(0.1 -0.1)">
       <defs>
        <path id="DejaVuSans-30" d="M 2034 4250 
Q 1547 4250 1301 3770 
Q 1056 3291 1056 2328 
Q 1056 1369 1301 889 
Q 1547 409 2034 409 
Q 2525 409 2770 889 
Q 3016 1369 3016 2328 
Q 3016 3291 2770 3770 
Q 2525 4250 2034 4250 
z
M 2034 4750 
Q 2819 4750 3233 4129 
Q 3647 3509 3647 2328 
Q 3647 1150 3233 529 
Q 2819 -91 2034 -91 
Q 1250 -91 836 529 
Q 422 1150 422 2328 
Q 422 3509 836 4129 
Q 1250 4750 2034 4750 
z
" transform="scale(0.015625)"/>
       </defs>
       <use xlink:href="#DejaVuSans-30"/>
      </g>
     </g>
    </g>
    <g id="xtick_2">
     <g id="line2d_2">
      <g>
       <use xlink:href="#m22230dfef5" x="333.33808" y="448.56" style="stroke: #000000; stroke-width: 0.8"/>
      </g>
     </g>
     <g id="text_2">
      <!-- 1000 -->
      <g transform="translate(320.61308 463.158437) scale(0.1 -0.1)">
       <defs>
        <path id="DejaVuSans-31" d="M 794 531 
L 1825 531 
L 1825 4091 
L 703 3866 
L 703 4441 
L 1819 4666 
L 2450 4666 
L 2450 531 
L 3481 531 
L 3481 0 
L 794 0 
L 794 531 
z
" transform="scale(0.015625)"/>
       </defs>
       <use xlink:href="#DejaVuSans-31"/>
       <use xlink:href="#DejaVuSans-30" x="63.623047"/>
       <use xlink:href="#DejaVuSans-30" x="127.246094"/>
       <use xlink:href="#DejaVuSans-30" x="190.869141"/>
      </g>
     </g>
    </g>
    <g id="xtick_3">
     <g id="line2d_3">
      <g>
       <use xlink:href="#m22230dfef5" x="493.630705" y="448.56" style="stroke: #000000; stroke-width: 0.8"/>
      </g>
     </g>
     <g id="text_3">
      <!-- 2000 -->
      <g transform="translate(480.905705 463.158437) scale(0.1 -0.1)">
       <defs>
        <path id="DejaVuSans-32" d="M 1228 531 
L 3431 531 
L 3431 0 
L 469 0 
L 469 531 
Q 828 903 1448 1529 
Q 2069 2156 2228 2338 
Q 2531 2678 2651 2914 
Q 2772 3150 2772 3378 
Q 2772 3750 2511 3984 
Q 2250 4219 1831 4219 
Q 1534 4219 1204 4116 
Q 875 4013 500 3803 
L 500 4441 
Q 881 4594 1212 4672 
Q 1544 4750 1819 4750 
Q 2544 4750 2975 4387 
Q 3406 4025 3406 3419 
Q 3406 3131 3298 2873 
Q 3191 2616 2906 2266 
Q 2828 2175 2409 1742 
Q 1991 1309 1228 531 
z
" transform="scale(0.015625)"/>
       </defs>
       <use xlink:href="#DejaVuSans-32"/>
       <use xlink:href="#DejaVuSans-30" x="63.623047"/>
       <use xlink:href="#DejaVuSans-30" x="127.246094"/>
       <use xlink:href="#DejaVuSans-30" x="190.869141"/>
      </g>
     </g>
    </g>
    <g id="xtick_4">
     <g id="line2d_4">
      <g>
       <use xlink:href="#m22230dfef5" x="653.92333" y="448.56" style="stroke: #000000; stroke-width: 0.8"/>
      </g>
     </g>
     <g id="text_4">
      <!-- 3000 -->
      <g transform="translate(641.19833 463.158437) scale(0.1 -0.1)">
       <defs>
        <path id="DejaVuSans-33" d="M 2597 2516 
Q 3050 2419 3304 2112 
Q 3559 1806 3559 1356 
Q 3559 666 3084 287 
Q 2609 -91 1734 -91 
Q 1441 -91 1130 -33 
Q 819 25 488 141 
L 488 750 
Q 750 597 1062 519 
Q 1375 441 1716 441 
Q 2309 441 2620 675 
Q 2931 909 2931 1356 
Q 2931 1769 2642 2001 
Q 2353 2234 1838 2234 
L 1294 2234 
L 1294 2753 
L 1863 2753 
Q 2328 2753 2575 2939 
Q 2822 3125 2822 3475 
Q 2822 3834 2567 4026 
Q 2313 4219 1838 4219 
Q 1578 4219 1281 4162 
Q 984 4106 628 3988 
L 628 4550 
Q 988 4650 1302 4700 
Q 1616 4750 1894 4750 
Q 2613 4750 3031 4423 
Q 3450 4097 3450 3541 
Q 3450 3153 3228 2886 
Q 3006 2619 2597 2516 
z
" transform="scale(0.015625)"/>
       </defs>
       <use xlink:href="#DejaVuSans-33"/>
       <use xlink:href="#DejaVuSans-30" x="63.623047"/>
       <use xlink:href="#DejaVuSans-30" x="127.246094"/>
       <use xlink:href="#DejaVuSans-30" x="190.869141"/>
      </g>
     </g>
    </g>
    <g id="xtick_5">
     <g id="line2d_5">
      <g>
       <use xlink:href="#m22230dfef5" x="814.215955" y="448.56" style="stroke: #000000; stroke-width: 0.8"/>
      </g>
     </g>
     <g id="text_5">
      <!-- 4000 -->
      <g transform="translate(801.490955 463.158437) scale(0.1 -0.1)">
       <defs>
        <path id="DejaVuSans-34" d="M 2419 4116 
L 825 1625 
L 2419 1625 
L 2419 4116 
z
M 2253 4666 
L 3047 4666 
L 3047 1625 
L 3713 1625 
L 3713 1100 
L 3047 1100 
L 3047 0 
L 2419 0 
L 2419 1100 
L 313 1100 
L 313 1709 
L 2253 4666 
z
" transform="scale(0.015625)"/>
       </defs>
       <use xlink:href="#DejaVuSans-34"/>
       <use xlink:href="#DejaVuSans-30" x="63.623047"/>
       <use xlink:href="#DejaVuSans-30" x="127.246094"/>
       <use xlink:href="#DejaVuSans-30" x="190.869141"/>
      </g>
     </g>
    </g>
    <g id="text_6">
     <!-- t -->
     <g transform="translate(551.539844 476.836563) scale(0.1 -0.1)">
      <defs>
       <path id="DejaVuSans-74" d="M 1172 4494 
L 1172 3500 
L 2356 3500 
L 2356 3053 
L 1172 3053 
L 1172 1153 
Q 1172 725 1289 603 
Q 1406 481 1766 481 
L 2356 481 
L 2356 0 
L 1766 0 
Q 1100 0 847 248 
Q 594 497 594 1153 
L 594 3053 
L 172 3053 
L 172 3500 
L 594 3500 
L 594 4494 
L 1172 4494 
z
" transform="scale(0.015625)"/>
      </defs>
      <use xlink:href="#DejaVuSans-74"/>
     </g>
    </g>
   </g>
   <g id="matplotlib.axis_2">
    <g id="ytick_1">
     <g id="line2d_6">
      <defs>
       <path id="m97d8b9e212" d="M 0 0 
L -3.5 0 
" style="stroke: #000000; stroke-width: 0.8"/>
      </defs>
      <g>
       <use xlink:href="#m97d8b9e212" x="135" y="426.485431" style="stroke: #000000; stroke-width: 0.8"/>
      </g>
     </g>
     <g id="text_7">
      <!-- −0.2 -->
      <g transform="translate(103.717187 430.28465) scale(0.1 -0.1)">
       <defs>
        <path id="DejaVuSans-2212" d="M 678 2272 
L 4684 2272 
L 4684 1741 
L 678 1741 
L 678 2272 
z
" transform="scale(0.015625)"/>
        <path id="DejaVuSans-2e" d="M 684 794 
L 1344 794 
L 1344 0 
L 684 0 
L 684 794 
z
" transform="scale(0.015625)"/>
       </defs>
       <use xlink:href="#DejaVuSans-2212"/>
       <use xlink:href="#DejaVuSans-30" x="83.789062"/>
       <use xlink:href="#DejaVuSans-2e" x="147.412109"/>
       <use xlink:href="#DejaVuSans-32" x="179.199219"/>
      </g>
     </g>
    </g>
    <g id="ytick_2">
     <g id="line2d_7">
      <g>
       <use xlink:href="#m97d8b9e212" x="135" y="380.772838" style="stroke: #000000; stroke-width: 0.8"/>
      </g>
     </g>
     <g id="text_8">
      <!-- 0.0 -->
      <g transform="translate(112.096875 384.572057) scale(0.1 -0.1)">
       <use xlink:href="#DejaVuSans-30"/>
       <use xlink:href="#DejaVuSans-2e" x="63.623047"/>
       <use xlink:href="#DejaVuSans-30" x="95.410156"/>
      </g>
     </g>
    </g>
    <g id="ytick_3">
     <g id="line2d_8">
      <g>
       <use xlink:href="#m97d8b9e212" x="135" y="335.060245" style="stroke: #000000; stroke-width: 0.8"/>
      </g>
     </g>
     <g id="text_9">
      <!-- 0.2 -->
      <g transform="translate(112.096875 338.859464) scale(0.1 -0.1)">
       <use xlink:href="#DejaVuSans-30"/>
       <use xlink:href="#DejaVuSans-2e" x="63.623047"/>
       <use xlink:href="#DejaVuSans-32" x="95.410156"/>
      </g>
     </g>
    </g>
    <g id="ytick_4">
     <g id="line2d_9">
      <g>
       <use xlink:href="#m97d8b9e212" x="135" y="289.347652" style="stroke: #000000; stroke-width: 0.8"/>
      </g>
     </g>
     <g id="text_10">
      <!-- 0.4 -->
      <g transform="translate(112.096875 293.146871) scale(0.1 -0.1)">
       <use xlink:href="#DejaVuSans-30"/>
       <use xlink:href="#DejaVuSans-2e" x="63.623047"/>
       <use xlink:href="#DejaVuSans-34" x="95.410156"/>
      </g>
     </g>
    </g>
    <g id="ytick_5">
     <g id="line2d_10">
      <g>
       <use xlink:href="#m97d8b9e212" x="135" y="243.635059" style="stroke: #000000; stroke-width: 0.8"/>
      </g>
     </g>
     <g id="text_11">
      <!-- 0.6 -->
      <g transform="translate(112.096875 247.434278) scale(0.1 -0.1)">
       <defs>
        <path id="DejaVuSans-36" d="M 2113 2584 
Q 1688 2584 1439 2293 
Q 1191 2003 1191 1497 
Q 1191 994 1439 701 
Q 1688 409 2113 409 
Q 2538 409 2786 701 
Q 3034 994 3034 1497 
Q 3034 2003 2786 2293 
Q 2538 2584 2113 2584 
z
M 3366 4563 
L 3366 3988 
Q 3128 4100 2886 4159 
Q 2644 4219 2406 4219 
Q 1781 4219 1451 3797 
Q 1122 3375 1075 2522 
Q 1259 2794 1537 2939 
Q 1816 3084 2150 3084 
Q 2853 3084 3261 2657 
Q 3669 2231 3669 1497 
Q 3669 778 3244 343 
Q 2819 -91 2113 -91 
Q 1303 -91 875 529 
Q 447 1150 447 2328 
Q 447 3434 972 4092 
Q 1497 4750 2381 4750 
Q 2619 4750 2861 4703 
Q 3103 4656 3366 4563 
z
" transform="scale(0.015625)"/>
       </defs>
       <use xlink:href="#DejaVuSans-30"/>
       <use xlink:href="#DejaVuSans-2e" x="63.623047"/>
       <use xlink:href="#DejaVuSans-36" x="95.410156"/>
      </g>
     </g>
    </g>
    <g id="ytick_6">
     <g id="line2d_11">
      <g>
       <use xlink:href="#m97d8b9e212" x="135" y="197.922466" style="stroke: #000000; stroke-width: 0.8"/>
      </g>
     </g>
     <g id="text_12">
      <!-- 0.8 -->
      <g transform="translate(112.096875 201.721685) scale(0.1 -0.1)">
       <defs>
        <path id="DejaVuSans-38" d="M 2034 2216 
Q 1584 2216 1326 1975 
Q 1069 1734 1069 1313 
Q 1069 891 1326 650 
Q 1584 409 2034 409 
Q 2484 409 2743 651 
Q 3003 894 3003 1313 
Q 3003 1734 2745 1975 
Q 2488 2216 2034 2216 
z
M 1403 2484 
Q 997 2584 770 2862 
Q 544 3141 544 3541 
Q 544 4100 942 4425 
Q 1341 4750 2034 4750 
Q 2731 4750 3128 4425 
Q 3525 4100 3525 3541 
Q 3525 3141 3298 2862 
Q 3072 2584 2669 2484 
Q 3125 2378 3379 2068 
Q 3634 1759 3634 1313 
Q 3634 634 3220 271 
Q 2806 -91 2034 -91 
Q 1263 -91 848 271 
Q 434 634 434 1313 
Q 434 1759 690 2068 
Q 947 2378 1403 2484 
z
M 1172 3481 
Q 1172 3119 1398 2916 
Q 1625 2713 2034 2713 
Q 2441 2713 2670 2916 
Q 2900 3119 2900 3481 
Q 2900 3844 2670 4047 
Q 2441 4250 2034 4250 
Q 1625 4250 1398 4047 
Q 1172 3844 1172 3481 
z
" transform="scale(0.015625)"/>
       </defs>
       <use xlink:href="#DejaVuSans-30"/>
       <use xlink:href="#DejaVuSans-2e" x="63.623047"/>
       <use xlink:href="#DejaVuSans-38" x="95.410156"/>
      </g>
     </g>
    </g>
    <g id="ytick_7">
     <g id="line2d_12">
      <g>
       <use xlink:href="#m97d8b9e212" x="135" y="152.209873" style="stroke: #000000; stroke-width: 0.8"/>
      </g>
     </g>
     <g id="text_13">
      <!-- 1.0 -->
      <g transform="translate(112.096875 156.009092) scale(0.1 -0.1)">
       <use xlink:href="#DejaVuSans-31"/>
       <use xlink:href="#DejaVuSans-2e" x="63.623047"/>
       <use xlink:href="#DejaVuSans-30" x="95.410156"/>
      </g>
     </g>
    </g>
    <g id="ytick_8">
     <g id="line2d_13">
      <g>
       <use xlink:href="#m97d8b9e212" x="135" y="106.49728" style="stroke: #000000; stroke-width: 0.8"/>
      </g>
     </g>
     <g id="text_14">
      <!-- 1.2 -->
      <g transform="translate(112.096875 110.296499) scale(0.1 -0.1)">
       <use xlink:href="#DejaVuSans-31"/>
       <use xlink:href="#DejaVuSans-2e" x="63.623047"/>
       <use xlink:href="#DejaVuSans-32" x="95.410156"/>
      </g>
     </g>
    </g>
    <g id="ytick_9">
     <g id="line2d_14">
      <g>
       <use xlink:href="#m97d8b9e212" x="135" y="60.784687" style="stroke: #000000; stroke-width: 0.8"/>
      </g>
     </g>
     <g id="text_15">
      <!-- 1.4 -->
      <g transform="translate(112.096875 64.583906) scale(0.1 -0.1)">
       <use xlink:href="#DejaVuSans-31"/>
       <use xlink:href="#DejaVuSans-2e" x="63.623047"/>
       <use xlink:href="#DejaVuSans-34" x="95.410156"/>
      </g>
     </g>
    </g>
   </g>
   <g id="line2d_15">
    <path d="M 173.045455 260.105921 
L 173.36604 133.226668 
L 173.686625 98.311532 
L 173.846918 99.890618 
L 174.167503 121.601663 
L 175.129259 202.020084 
L 175.449844 215.017158 
L 175.770429 219.942932 
L 175.930722 219.721853 
L 176.091014 217.932692 
L 176.4116 210.313729 
L 176.892478 190.988759 
L 177.533648 155.056162 
L 177.693941 144.727395 
L 178.014526 321.908851 
L 178.335111 398.180232 
L 178.655696 421.563234 
L 178.815989 422.318265 
L 178.976282 418.900814 
L 179.617452 391.313504 
L 180.09833 376.543151 
L 180.418915 373.585152 
L 180.579208 374.149819 
L 180.899793 378.754946 
L 181.380671 391.725809 
L 182.502719 424.408481 
L 182.823305 428.930489 
L 182.983597 429.892672 
L 183.14389 429.922162 
L 183.304183 428.990547 
L 183.624768 424.211636 
L 183.945353 415.639329 
L 184.426231 396.356964 
L 185.227694 351.532508 
L 187.151206 235.558548 
L 187.792376 209.958957 
L 188.273254 197.664696 
L 188.593839 192.883999 
L 188.914424 190.780993 
L 189.074717 190.696605 
L 189.23501 191.229531 
L 189.555595 194.045545 
L 190.036473 202.195503 
L 190.677643 218.944139 
L 191.639399 251.830322 
L 193.562911 318.92038 
L 194.364374 339.63556 
L 195.005544 351.648674 
L 195.646715 359.496884 
L 196.127593 362.783238 
L 196.448178 363.835708 
L 196.60847 364.045895 
L 196.768763 364.058026 
L 196.929056 363.882135 
L 197.249641 363.008118 
L 197.730519 360.554411 
L 198.371689 355.615907 
L 199.333445 346.044272 
L 201.256957 326.377237 
L 202.05842 320.126786 
L 202.69959 316.429989 
L 203.340761 313.992001 
L 203.821639 312.997148 
L 204.142224 312.721198 
L 204.462809 312.743571 
L 204.783394 313.051262 
L 205.264272 314.013799 
L 205.74515 315.524471 
L 206.386321 318.2779 
L 207.348076 323.657981 
L 208.630417 332.312954 
L 212.156855 356.7888 
L 213.278903 363.159838 
L 213.599489 165.559147 
L 213.920074 93.864036 
L 214.080367 85.254089 
L 214.240659 87.624422 
L 214.561244 110.809779 
L 215.523 194.866491 
L 215.843585 208.844256 
L 216.164171 214.648939 
L 216.324463 214.831678 
L 216.484756 213.423882 
L 216.805341 206.50403 
L 217.286219 188.082038 
L 217.92739 153.116077 
L 218.087682 142.991652 
L 218.408267 320.479456 
L 218.728853 397.044241 
L 219.049438 420.703692 
L 219.209731 421.589777 
L 219.370023 418.298304 
L 220.011194 391.161818 
L 220.492072 376.673234 
L 220.812657 373.877109 
L 220.972949 374.515259 
L 221.293535 379.25314 
L 221.774413 392.389915 
L 222.896461 425.327167 
L 223.217046 429.893438 
L 223.377339 430.873731 
L 223.537631 430.918825 
L 223.697924 430.000437 
L 224.018509 425.241328 
L 224.339095 416.680714 
L 224.819972 397.402525 
L 225.621436 352.555593 
L 227.544947 236.428678 
L 228.186118 210.760429 
L 228.666995 198.412033 
L 228.987581 193.594564 
L 229.308166 191.454559 
L 229.468459 191.351663 
L 229.628751 191.866116 
L 229.949336 194.645387 
L 230.430214 202.741112 
L 231.071385 219.419956 
L 232.033141 252.208945 
L 233.956652 319.138935 
L 234.758115 339.801956 
L 235.399286 351.779319 
L 236.040456 359.596786 
L 236.521334 362.863156 
L 236.841919 363.903672 
L 237.002212 364.108274 
L 237.162505 364.115072 
L 237.322797 363.934093 
L 237.643382 363.050609 
L 238.12426 360.584371 
L 238.765431 355.631989 
L 239.727187 346.044763 
L 241.650698 326.360702 
L 242.452161 320.1071 
L 243.093332 316.408939 
L 243.734502 313.97039 
L 244.21538 312.975536 
L 244.535965 312.699749 
L 244.856551 312.722396 
L 245.177136 313.030456 
L 245.658014 313.993696 
L 246.138892 315.505213 
L 246.780062 318.259927 
L 247.741818 323.642139 
L 249.024159 332.300059 
L 252.550597 356.782901 
L 253.832938 363.983839 
L 253.99323 364.790914 
L 254.313815 167.077886 
L 254.634401 95.274623 
L 254.794693 86.611928 
L 254.954986 88.930384 
L 255.275571 112.014709 
L 256.237327 195.792933 
L 256.557912 209.686978 
L 256.878497 215.412784 
L 257.03879 215.557923 
L 257.199083 214.113755 
L 257.519668 207.124837 
L 258.000546 188.60832 
L 258.641716 153.532669 
L 258.802009 143.383613 
L 259.122594 320.832114 
L 259.443179 397.359193 
L 259.763765 420.982716 
L 259.924057 421.851563 
L 260.08435 418.543364 
L 260.72552 391.345408 
L 261.206398 376.816652 
L 261.526984 373.996575 
L 261.687276 374.623577 
L 262.007861 379.340772 
L 262.488739 392.450346 
L 263.610788 425.339885 
L 263.931373 429.896 
L 264.091666 430.871715 
L 264.251958 430.912546 
L 264.412251 429.990194 
L 264.732836 425.223999 
L 265.053421 416.657335 
L 265.534299 397.371792 
L 266.335762 352.516461 
L 268.259274 236.383077 
L 268.900444 210.715462 
L 269.381322 198.368123 
L 269.701907 193.551578 
L 270.022493 191.412639 
L 270.182785 191.310322 
L 270.343078 191.825381 
L 270.663663 194.605934 
L 271.144541 202.703722 
L 271.785712 219.385491 
L 272.747467 252.17902 
L 274.670979 319.117719 
L 275.472442 339.783993 
L 276.113612 351.763752 
L 276.754783 359.58342 
L 277.235661 362.851312 
L 277.556246 363.892781 
L 277.716539 364.097841 
L 277.876831 364.105085 
L 278.037124 363.92454 
L 278.357709 363.041889 
L 278.838587 360.576813 
L 279.479758 355.625825 
L 280.441513 346.040376 
L 282.365025 326.358888 
L 283.166488 320.106033 
L 283.807658 316.408356 
L 284.448829 313.970201 
L 284.929707 312.975589 
L 285.250292 312.699942 
L 285.570877 312.722711 
L 285.891463 313.030879 
L 286.37234 313.994252 
L 286.853218 315.505874 
L 287.494389 318.260689 
L 288.456145 323.642981 
L 289.738486 332.300912 
L 293.264923 356.783496 
L 293.585509 358.703903 
L 293.906094 161.385818 
L 294.226679 89.965898 
L 294.386972 81.491353 
L 294.547264 83.995614 
L 294.86785 107.44395 
L 295.829605 192.239565 
L 296.150191 206.443253 
L 296.470776 212.462333 
L 296.631068 212.747795 
L 296.791361 211.439682 
L 297.111946 204.709981 
L 297.592824 186.550099 
L 298.233995 151.891127 
L 298.394287 141.836083 
L 298.714873 319.435058 
L 299.035458 396.106575 
L 299.356043 419.867877 
L 299.516336 420.802901 
L 299.676628 417.558963 
L 300.317799 390.597673 
L 300.798677 376.224098 
L 301.119262 373.496794 
L 301.279555 374.167043 
L 301.60014 378.964636 
L 302.081018 392.180262 
L 303.203066 425.257217 
L 303.523651 429.853594 
L 303.683944 430.847522 
L 303.844237 430.905363 
L 304.004529 429.998871 
L 304.325114 425.261166 
L 304.6457 416.719016 
L 305.126578 397.463619 
L 305.928041 352.643663 
L 307.851552 236.542116 
L 308.492723 210.874187 
L 308.973601 198.5243 
L 309.294186 193.705173 
L 309.614771 191.563069 
L 309.775064 191.458979 
L 309.935356 191.972152 
L 310.255942 194.748635 
L 310.736819 202.839708 
L 311.37799 219.511719 
L 312.339746 252.289729 
L 314.263257 319.197772 
L 315.06472 339.852348 
L 315.705891 351.823407 
L 316.347061 359.635016 
L 316.827939 362.897297 
L 317.148524 363.935235 
L 317.308817 364.138592 
L 317.46911 364.144175 
L 317.629402 363.96201 
L 317.949988 363.076243 
L 318.430865 360.606798 
L 319.072036 355.650536 
L 320.033792 346.058298 
L 321.957303 326.366817 
L 322.758766 320.111006 
L 323.399937 316.411396 
L 324.041107 313.971649 
L 324.521985 312.976046 
L 324.84257 312.699824 
L 325.163156 312.722085 
L 325.483741 313.029804 
L 325.964619 313.99261 
L 326.445497 315.503778 
L 327.086667 318.258143 
L 328.048423 323.640039 
L 329.330764 332.297836 
L 332.857202 356.781251 
L 333.818957 362.304891 
L 334.139543 164.761404 
L 334.460128 93.121579 
L 334.620421 84.538678 
L 334.780713 86.935662 
L 335.101298 110.173071 
L 336.063054 194.374225 
L 336.383639 208.395673 
L 336.704225 214.241621 
L 336.864517 214.444068 
L 337.02481 213.055357 
L 337.345395 206.171804 
L 337.826273 187.799624 
L 338.467444 152.891663 
L 338.627736 142.780294 
L 338.948321 320.288957 
L 339.268907 396.873762 
L 339.589492 420.552299 
L 339.749785 421.447548 
L 339.910077 418.16497 
L 340.551248 391.061211 
L 341.032126 376.594051 
L 341.352711 373.81072 
L 341.513003 374.454828 
L 341.833589 379.203778 
L 342.314467 392.355132 
L 343.436515 425.318058 
L 343.7571 429.88982 
L 343.917393 430.872592 
L 344.077685 430.92 
L 344.237978 430.003765 
L 344.558563 425.248515 
L 344.879149 416.691211 
L 345.360026 397.417068 
L 346.16149 352.574824 
L 348.085001 236.451836 
L 348.726172 210.783395 
L 349.207049 198.434541 
L 349.527635 193.616647 
L 349.84822 191.476139 
L 350.008513 191.372965 
L 350.168805 191.887125 
L 350.48939 194.665772 
L 350.970268 202.760482 
L 351.611439 219.43787 
L 352.573195 252.224574 
L 354.496706 319.150119 
L 355.298169 339.811463 
L 355.93934 351.787586 
L 356.58051 359.603908 
L 357.061388 362.869485 
L 357.381973 363.909503 
L 357.542266 364.113865 
L 357.702559 364.120429 
L 357.862851 363.939223 
L 358.183436 363.055301 
L 358.664314 360.588451 
L 359.305485 355.635334 
L 360.267241 346.047165 
L 362.190752 326.36173 
L 362.992215 320.107725 
L 363.633386 316.409302 
L 364.274556 313.970539 
L 364.755434 312.975551 
L 365.076019 312.699687 
L 365.396605 312.722267 
L 365.71719 313.030268 
L 366.198068 313.993433 
L 366.678946 315.504891 
L 367.320116 318.259548 
L 368.281872 323.64171 
L 369.564213 332.299619 
L 373.090651 356.782587 
L 373.411236 159.575326 
L 373.731821 88.26484 
L 373.892114 79.844711 
L 374.052406 82.403163 
L 374.372992 105.958936 
L 375.334747 191.063092 
L 375.655333 205.362895 
L 375.975918 211.473896 
L 376.13621 211.803637 
L 376.296503 210.538639 
L 376.617088 203.891577 
L 377.097966 185.846453 
L 377.739137 151.323164 
L 377.899429 141.298984 
L 378.220015 318.947616 
L 378.5406 395.666841 
L 378.861185 419.473738 
L 379.021478 420.430703 
L 379.18177 417.208097 
L 379.822941 390.325654 
L 380.303819 376.004068 
L 380.624404 373.307982 
L 380.784697 373.992824 
L 381.105282 378.817623 
L 381.58616 392.069324 
L 382.708208 425.210803 
L 383.028793 429.821244 
L 383.189086 430.821571 
L 383.349379 430.885413 
L 383.509671 429.984543 
L 383.830256 425.257009 
L 384.150842 416.723711 
L 384.63172 397.479388 
L 385.433183 352.672925 
L 387.356694 236.585884 
L 387.997865 210.919048 
L 388.478743 198.569165 
L 388.799328 193.749725 
L 389.119913 191.607094 
L 389.280206 191.502669 
L 389.440498 192.015464 
L 389.761084 194.791078 
L 390.241961 202.880603 
L 390.883132 219.550204 
L 391.844888 252.324138 
L 393.768399 319.223569 
L 394.569862 339.874707 
L 395.211033 351.843157 
L 395.852203 359.652309 
L 396.333081 362.912857 
L 396.653666 363.949694 
L 396.813959 364.152517 
L 396.974252 364.157578 
L 397.134544 363.974902 
L 397.45513 363.088145 
L 397.936007 360.617301 
L 398.577178 355.659331 
L 399.538934 346.064858 
L 401.462445 326.369992 
L 402.263908 320.11315 
L 402.905079 316.412855 
L 403.546249 313.972535 
L 404.027127 312.976569 
L 404.347712 312.700135 
L 404.668298 312.722205 
L 404.988883 313.029754 
L 405.469761 313.992341 
L 405.950639 315.503329 
L 406.591809 318.257509 
L 407.553565 323.639225 
L 408.835906 332.296925 
L 412.362344 356.780529 
L 413.644685 363.981918 
L 413.96527 166.325355 
L 414.285855 94.576354 
L 414.446148 85.940086 
L 414.60644 88.284509 
L 414.927026 111.419339 
L 415.888781 195.336341 
L 416.209367 209.271988 
L 416.529952 215.036944 
L 416.690245 215.20073 
L 416.850537 213.77459 
L 417.171122 206.819878 
L 417.652 188.350121 
L 418.293171 153.328648 
L 418.453463 143.191744 
L 418.774049 320.659619 
L 419.094634 397.205283 
L 419.415219 420.846512 
L 419.575512 421.723852 
L 419.735804 418.423893 
L 420.376975 391.256205 
L 420.857853 376.747217 
L 421.178438 373.938919 
L 421.338731 374.571402 
L 421.659316 379.298763 
L 422.140194 392.421695 
L 423.262242 425.334627 
L 423.582827 429.895712 
L 423.74312 430.873664 
L 423.903413 430.916579 
L 424.063705 429.996161 
L 424.384291 425.233423 
L 424.704876 416.669704 
L 425.185754 397.38773 
L 425.987217 352.536449 
L 427.910728 236.406047 
L 428.551899 210.738056 
L 429.032777 198.390151 
L 429.353362 193.573121 
L 429.673947 191.433628 
L 429.83424 191.331012 
L 429.994532 191.845759 
L 430.315118 194.625654 
L 430.795996 202.722388 
L 431.437166 219.402669 
L 432.398922 252.193901 
L 434.322433 319.12822 
L 435.123896 339.792865 
L 435.765067 351.771427 
L 436.406237 359.589998 
L 436.887115 362.857132 
L 437.207701 363.898128 
L 437.367993 364.10296 
L 437.528286 364.109983 
L 437.688578 363.929223 
L 438.009164 363.046158 
L 438.490042 360.580506 
L 439.131212 355.628829 
L 440.092968 346.042503 
L 442.016479 326.359751 
L 442.817942 320.106531 
L 443.459113 316.408618 
L 444.100283 313.970271 
L 444.581161 312.975542 
L 444.901747 312.699826 
L 445.222332 312.722537 
L 445.542917 313.030653 
L 446.023795 313.993963 
L 446.504673 315.505535 
L 447.145843 318.260302 
L 448.107599 323.642557 
L 449.38994 332.300486 
L 452.916378 356.783202 
L 453.557548 360.545708 
L 453.878134 163.115249 
L 454.198719 91.585289 
L 454.359011 83.056368 
L 454.519304 85.506698 
L 454.839889 108.848719 
L 455.801645 193.34293 
L 456.12223 207.453747 
L 456.442816 213.384411 
L 456.603108 213.627415 
L 456.763401 212.278041 
L 457.083986 205.469477 
L 457.564864 187.200548 
L 458.206034 152.413348 
L 458.366327 142.329245 
L 458.686912 319.881574 
L 459.007498 396.508294 
L 459.328083 420.22682 
L 459.488375 421.14128 
L 459.648668 417.877357 
L 460.289839 390.842326 
L 460.770716 376.420251 
L 461.091302 373.663884 
L 461.251594 374.320565 
L 461.57218 379.092893 
L 462.053057 392.275098 
L 463.175106 425.292603 
L 463.495691 429.876105 
L 463.655984 430.864191 
L 463.816276 430.916562 
L 463.976569 430.004958 
L 464.297154 425.258032 
L 464.617739 416.707897 
L 465.098617 397.442584 
L 465.90008 352.61074 
L 467.823592 236.497291 
L 468.464762 210.82885 
L 468.94564 198.479321 
L 469.266226 193.66072 
L 469.586811 191.519333 
L 469.747103 191.415665 
L 469.907396 191.929297 
L 470.227981 194.7068 
L 470.708859 202.799613 
L 471.35003 219.474233 
L 472.311785 252.256518 
L 474.235297 319.173288 
L 475.03676 339.831273 
L 475.677931 351.804893 
L 476.319101 359.618894 
L 476.799979 362.882853 
L 477.120564 363.921852 
L 477.280857 364.125722 
L 477.441149 364.131806 
L 477.601442 363.950132 
L 477.922027 363.065309 
L 478.402905 360.597196 
L 479.044076 355.642552 
L 480.005831 346.052414 
L 481.929343 326.364074 
L 482.730806 320.109207 
L 483.371977 316.41022 
L 484.013147 313.970991 
L 484.494025 312.975713 
L 484.81461 312.699681 
L 485.135195 312.722111 
L 485.455781 313.02998 
L 485.936659 313.992979 
L 486.417536 315.504303 
L 487.058707 318.258826 
L 488.020463 323.640869 
L 489.302804 332.298735 
L 492.829241 356.781937 
L 493.630705 361.435329 
L 493.95129 163.948419 
L 494.271875 92.36349 
L 494.432168 83.807525 
L 494.59246 86.231105 
L 494.913046 109.520604 
L 495.874801 193.867254 
L 496.195387 207.932958 
L 496.515972 213.820813 
L 496.676264 214.043307 
L 496.836557 212.674031 
L 497.157142 205.827502 
L 497.63802 187.506245 
L 498.279191 152.657763 
L 498.439483 142.559811 
L 498.760069 320.089947 
L 499.080654 396.695361 
L 499.401239 420.393558 
L 499.561532 421.298249 
L 499.721824 418.024839 
L 500.362995 390.95484 
L 500.843873 376.509812 
L 501.164458 373.739711 
L 501.324751 374.389986 
L 501.645336 379.150399 
L 502.126214 392.316871 
L 503.248262 425.306504 
L 503.568847 429.884 
L 503.72914 430.869366 
L 503.889433 430.919195 
L 504.049725 430.005218 
L 504.37031 425.254023 
L 504.690896 416.700206 
L 505.171774 397.43035 
L 505.973237 352.593129 
L 507.896748 236.474632 
L 508.537919 210.806131 
L 509.018797 198.456902 
L 509.339382 193.638633 
L 509.659967 191.497667 
L 509.82026 191.394237 
L 509.980552 191.908125 
L 510.301138 194.686186 
L 510.782015 202.779929 
L 511.423186 219.455915 
L 512.384942 252.240392 
L 514.308453 319.161545 
L 515.109916 339.821216 
L 515.751087 351.796095 
L 516.392257 359.611265 
L 516.873135 362.87604 
L 517.19372 363.915553 
L 517.354013 364.119672 
L 517.514306 364.125999 
L 517.674598 363.944562 
L 517.995184 363.060195 
L 518.476061 360.592721 
L 519.117232 355.638851 
L 520.078988 346.049714 
L 522.002499 326.362854 
L 522.803962 320.108428 
L 523.445133 316.40973 
L 524.086303 313.97074 
L 524.567181 312.975612 
L 524.887766 312.699667 
L 525.208352 312.722173 
L 525.528937 313.030111 
L 526.009815 313.993196 
L 526.490693 315.504589 
L 527.131863 318.259182 
L 528.093619 323.641289 
L 529.37596 332.299179 
L 532.902398 356.782267 
L 533.864153 362.305762 
L 534.184739 164.762212 
L 534.505324 93.122327 
L 534.665617 84.539396 
L 534.825909 86.936353 
L 535.146494 110.173706 
L 536.10825 194.374711 
L 536.428835 208.396115 
L 536.749421 214.242021 
L 536.909713 214.444448 
L 537.070006 213.055718 
L 537.390591 206.172129 
L 537.871469 187.799899 
L 538.51264 152.891881 
L 538.672932 142.780499 
L 538.993517 320.289143 
L 539.314103 396.873928 
L 539.634688 420.552447 
L 539.794981 421.447687 
L 539.955273 418.1651 
L 540.596444 391.061309 
L 541.077322 376.594128 
L 541.397907 373.810784 
L 541.558199 374.454886 
L 541.878785 379.203825 
L 542.359663 392.355164 
L 543.481711 425.318065 
L 543.802296 429.889822 
L 543.962589 430.872591 
L 544.122881 430.919996 
L 544.283174 430.003759 
L 544.603759 425.248506 
L 544.924345 416.691198 
L 545.405222 397.417051 
L 546.206686 352.574802 
L 548.130197 236.451811 
L 548.771368 210.78337 
L 549.252245 198.434516 
L 549.572831 193.616623 
L 549.893416 191.476115 
L 550.053709 191.372942 
L 550.214001 191.887103 
L 550.534586 194.66575 
L 551.015464 202.760461 
L 551.656635 219.43785 
L 552.618391 252.224558 
L 554.541902 319.150107 
L 555.343365 339.811453 
L 555.984536 351.787577 
L 556.625706 359.603901 
L 557.106584 362.869479 
L 557.427169 363.909497 
L 557.587462 364.113859 
L 557.747755 364.120424 
L 557.908047 363.939218 
L 558.228632 363.055296 
L 558.70951 360.588447 
L 559.350681 355.635331 
L 560.312437 346.047163 
L 562.235948 326.361729 
L 563.037411 320.107724 
L 563.678582 316.409302 
L 564.319752 313.970539 
L 564.80063 312.975551 
L 565.121215 312.699688 
L 565.441801 312.722267 
L 565.762386 313.030268 
L 566.243264 313.993434 
L 566.724142 315.504892 
L 567.365312 318.259548 
L 568.327068 323.641711 
L 569.609409 332.29962 
L 573.135847 356.782588 
L 574.257895 363.155329 
L 574.57848 165.555149 
L 574.899065 93.860501 
L 575.059358 85.250769 
L 575.219651 87.621307 
L 575.540236 110.807044 
L 576.501992 194.864686 
L 576.822577 208.842698 
L 577.143162 214.647603 
L 577.303455 214.830444 
L 577.463747 213.422743 
L 577.784333 206.503066 
L 578.265211 188.0813 
L 578.906381 153.115581 
L 579.066674 142.991207 
L 579.387259 320.479085 
L 579.707844 397.043942 
L 580.028429 420.703461 
L 580.188722 421.589579 
L 580.349015 418.298138 
L 580.990185 391.161766 
L 581.471063 376.673254 
L 581.791648 373.877171 
L 581.951941 374.51534 
L 582.272526 379.253257 
L 582.753404 392.390076 
L 583.875452 425.327401 
L 584.196038 429.893685 
L 584.35633 430.873983 
L 584.516623 430.919083 
L 584.676916 430.000699 
L 584.997501 425.241597 
L 585.318086 416.680988 
L 585.798964 397.402802 
L 586.600427 352.555868 
L 588.523939 236.428915 
L 589.165109 210.760647 
L 589.645987 198.412237 
L 589.966572 193.594758 
L 590.287157 191.454743 
L 590.44745 191.351842 
L 590.607743 191.866289 
L 590.928328 194.64555 
L 591.409206 202.74126 
L 592.050376 219.420084 
L 593.012132 252.209046 
L 594.935644 319.138991 
L 595.737107 339.801997 
L 596.378277 351.77935 
L 597.019448 359.596809 
L 597.500326 362.863174 
L 597.820911 363.903687 
L 597.981203 364.108287 
L 598.141496 364.115083 
L 598.301789 363.934103 
L 598.622374 363.050616 
L 599.103252 360.584375 
L 599.744422 355.63199 
L 600.706178 346.044759 
L 602.62969 326.360696 
L 603.431153 320.107093 
L 604.072323 316.408932 
L 604.713494 313.970383 
L 605.194372 312.975529 
L 605.514957 312.699742 
L 605.835542 312.722389 
L 606.156127 313.03045 
L 606.637005 313.99369 
L 607.117883 315.505208 
L 607.759054 318.259922 
L 608.720809 323.642134 
L 610.00315 332.300056 
L 613.209003 354.787898 
L 613.529588 157.68879 
L 613.850173 86.48613 
L 614.010466 78.12 
L 614.170759 80.732473 
L 614.491344 104.396028 
L 615.4531 189.814107 
L 615.773685 204.212854 
L 616.09427 210.418932 
L 616.254563 210.794625 
L 616.414855 209.574461 
L 616.735441 203.013583 
L 617.216318 185.088671 
L 617.857489 150.708312 
L 618.017782 140.716768 
L 618.338367 318.418024 
L 618.658952 395.187831 
L 618.979537 419.043114 
L 619.13983 420.023381 
L 619.300123 416.823447 
L 619.941293 390.024939 
L 620.422171 375.758839 
L 620.742756 373.096137 
L 620.903049 373.796606 
L 621.223634 378.650575 
L 621.704512 391.941045 
L 622.82656 425.152235 
L 623.147146 429.77797 
L 623.307438 430.785272 
L 623.467731 430.855668 
L 623.628023 429.960947 
L 623.948609 425.244575 
L 624.269194 416.721038 
L 624.750072 397.489011 
L 625.551535 352.697751 
L 627.475046 236.628062 
L 628.116217 210.962972 
L 628.597095 198.613509 
L 628.91768 193.794002 
L 629.238265 191.651064 
L 629.398558 191.546407 
L 629.558851 192.058922 
L 629.879436 194.833844 
L 630.360314 202.922054 
L 631.001484 219.589495 
L 631.96324 252.359614 
L 633.886751 319.250642 
L 634.688215 339.898336 
L 635.329385 351.864145 
L 635.970556 359.670789 
L 636.451433 362.929556 
L 636.772019 363.965255 
L 636.932311 364.167526 
L 637.092604 364.172044 
L 637.252897 363.988836 
L 637.573482 363.101049 
L 638.05436 360.628741 
L 638.69553 355.668974 
L 639.657286 346.072131 
L 641.580797 326.373632 
L 642.382261 320.115669 
L 643.023431 316.414624 
L 643.664602 313.973673 
L 644.145479 312.977305 
L 644.466065 312.700634 
L 644.78665 312.72249 
L 645.107235 313.029849 
L 645.588113 313.992188 
L 646.068991 315.502971 
L 646.710161 318.256936 
L 647.671917 323.638439 
L 648.954258 332.29601 
L 652.480696 356.779771 
L 653.763037 363.981292 
L 653.92333 364.788441 
L 654.243915 167.0756 
L 654.5645 95.272513 
L 654.724793 86.609903 
L 654.885085 88.928443 
L 655.205671 112.012928 
L 656.167426 195.791584 
L 656.488012 209.685756 
L 656.808597 215.41168 
L 656.968889 215.556875 
L 657.129182 214.112762 
L 657.449767 207.123945 
L 657.930645 188.607568 
L 658.571816 153.532077 
L 658.732108 143.383056 
L 659.052694 320.831612 
L 659.373279 397.358745 
L 659.693864 420.98232 
L 659.854157 421.851192 
L 660.014449 418.543017 
L 660.65562 391.34515 
L 661.136498 376.816453 
L 661.457083 373.99641 
L 661.617376 374.623429 
L 661.937961 379.340654 
L 662.418839 392.450268 
L 663.540887 425.339877 
L 663.861472 429.896007 
L 664.021765 430.871729 
L 664.182058 430.912567 
L 664.34235 429.99022 
L 664.662935 425.224036 
L 664.983521 416.657381 
L 665.464399 397.371849 
L 666.265862 352.51653 
L 668.189373 236.383154 
L 668.830544 210.715538 
L 669.311422 198.368197 
L 669.632007 193.551649 
L 669.952592 191.412708 
L 670.112885 191.31039 
L 670.273177 191.825448 
L 670.593763 194.605998 
L 671.07464 202.703783 
L 671.715811 219.385546 
L 672.677567 252.179067 
L 674.601078 319.117751 
L 675.402541 339.78402 
L 676.043712 351.763774 
L 676.684882 359.583439 
L 677.16576 362.851329 
L 677.486345 363.892796 
L 677.646638 364.097855 
L 677.806931 364.105099 
L 677.967223 363.924554 
L 678.287809 363.0419 
L 678.768686 360.576823 
L 679.409857 355.625833 
L 680.371613 346.040381 
L 682.295124 326.35889 
L 683.096587 320.106034 
L 683.737758 316.408356 
L 684.378928 313.9702 
L 684.859806 312.975589 
L 685.180391 312.699941 
L 685.500977 312.72271 
L 685.821562 313.030877 
L 686.30244 313.994251 
L 686.783318 315.505873 
L 687.424488 318.260687 
L 688.386244 323.642979 
L 689.668585 332.30091 
L 693.195023 356.783495 
L 694.156778 362.306803 
L 694.477364 164.763174 
L 694.797949 93.123214 
L 694.958242 84.540247 
L 695.118534 86.937168 
L 695.439119 110.174454 
L 696.400875 194.375277 
L 696.72146 208.396627 
L 697.042046 214.242484 
L 697.202338 214.444887 
L 697.362631 213.056134 
L 697.683216 206.172503 
L 698.164094 187.800214 
L 698.805265 152.892129 
L 698.965557 142.780732 
L 699.286142 320.289352 
L 699.606728 396.874115 
L 699.927313 420.552613 
L 700.087606 421.447842 
L 700.247898 418.165245 
L 700.889069 391.061416 
L 701.369947 376.594211 
L 701.690532 373.810852 
L 701.850824 374.454948 
L 702.17141 379.203874 
L 702.652288 392.355196 
L 703.774336 425.318067 
L 704.094921 429.889818 
L 704.255214 430.872584 
L 704.415506 430.919987 
L 704.575799 430.003747 
L 704.896384 425.248489 
L 705.21697 416.691178 
L 705.697847 397.417026 
L 706.499311 352.574772 
L 708.422822 236.451778 
L 709.063993 210.783338 
L 709.54487 198.434485 
L 709.865456 193.616592 
L 710.186041 191.476085 
L 710.346334 191.372913 
L 710.506626 191.887074 
L 710.827211 194.665723 
L 711.308089 202.760435 
L 711.94926 219.437827 
L 712.911016 252.224537 
L 714.834527 319.150093 
L 715.63599 339.811442 
L 716.277161 351.787568 
L 716.918331 359.603893 
L 717.399209 362.869472 
L 717.719794 363.909491 
L 717.880087 364.113853 
L 718.04038 364.120418 
L 718.200672 363.939212 
L 718.521257 363.055291 
L 719.002135 360.588443 
L 719.643306 355.635328 
L 720.605062 346.047161 
L 722.528573 326.361728 
L 723.330036 320.107724 
L 723.971207 316.409302 
L 724.612377 313.970539 
L 725.093255 312.975552 
L 725.41384 312.699688 
L 725.734426 312.722267 
L 726.055011 313.030269 
L 726.535889 313.993434 
L 727.016767 315.504892 
L 727.657937 318.259549 
L 728.619693 323.641712 
L 729.902034 332.299621 
L 733.428472 356.782588 
L 734.069642 360.545157 
L 734.390227 163.114738 
L 734.710813 91.584816 
L 734.871105 83.055914 
L 735.031398 85.506262 
L 735.351983 108.848319 
L 736.313739 193.342624 
L 736.634324 207.45347 
L 736.954909 213.384159 
L 737.115202 213.627176 
L 737.275495 212.277815 
L 737.59608 205.469273 
L 738.076958 187.200375 
L 738.718128 152.413212 
L 738.878421 142.329117 
L 739.199006 319.881457 
L 739.519591 396.50819 
L 739.840177 420.226728 
L 740.000469 421.141193 
L 740.160762 417.877276 
L 740.801932 390.842265 
L 741.28281 376.420204 
L 741.603395 373.663844 
L 741.763688 374.320529 
L 742.084273 379.092864 
L 742.565151 392.275079 
L 743.6872 425.2926 
L 744.007785 429.876105 
L 744.168077 430.864192 
L 744.32837 430.916565 
L 744.488663 430.004962 
L 744.809248 425.258038 
L 745.129833 416.707905 
L 745.610711 397.442596 
L 746.412174 352.610754 
L 748.335686 236.497308 
L 748.976856 210.828867 
L 749.457734 198.479337 
L 749.778319 193.660736 
L 750.098905 191.519349 
L 750.259197 191.41568 
L 750.41949 191.929312 
L 750.740075 194.706814 
L 751.220953 202.799626 
L 751.862123 219.474246 
L 752.823879 252.256528 
L 754.747391 319.173295 
L 755.548854 339.831279 
L 756.190024 351.804898 
L 756.831195 359.618899 
L 757.312073 362.882856 
L 757.632658 363.921855 
L 757.792951 364.125725 
L 757.953243 364.13181 
L 758.113536 363.950135 
L 758.434121 363.065312 
L 758.914999 360.597198 
L 759.556169 355.642554 
L 760.517925 346.052416 
L 762.441437 326.364074 
L 763.2429 320.109207 
L 763.88407 316.41022 
L 764.525241 313.970991 
L 765.006119 312.975713 
L 765.326704 312.699681 
L 765.647289 312.722111 
L 765.967874 313.02998 
L 766.448752 313.992978 
L 766.92963 315.504302 
L 767.570801 318.258825 
L 768.532556 323.640869 
L 769.814897 332.298735 
L 773.341335 356.781937 
L 773.822213 359.633489 
L 774.142798 162.259457 
L 774.463384 90.784642 
L 774.623676 82.282929 
L 774.783969 84.760218 
L 775.104554 108.15531 
L 776.06631 192.799502 
L 776.386895 206.956406 
L 776.70748 212.930896 
L 776.867773 213.194929 
L 777.028066 211.865982 
L 777.348651 205.096431 
L 777.829529 186.881389 
L 778.470699 152.157466 
L 778.630992 142.087689 
L 778.951577 319.663 
L 779.272162 396.311789 
L 779.592748 420.051384 
L 779.75304 420.975971 
L 779.913333 417.721888 
L 780.554503 390.723149 
L 781.035381 376.324928 
L 781.355966 373.582848 
L 781.516259 374.246197 
L 781.836844 379.030937 
L 782.317722 392.229551 
L 783.439771 425.276204 
L 783.760356 429.866008 
L 783.920648 430.856951 
L 784.080941 430.911996 
L 784.241234 430.00289 
L 784.561819 425.260466 
L 784.882404 416.714224 
L 785.363282 397.453736 
L 786.164745 352.627651 
L 788.088257 236.519851 
L 788.729427 210.851597 
L 789.210305 198.501846 
L 789.53089 193.682957 
L 789.851476 191.541188 
L 790.011768 191.437298 
L 790.172061 191.950691 
L 790.492646 194.727665 
L 790.973524 202.819585 
L 791.614694 219.492876 
L 792.57645 252.272997 
L 794.499962 319.185385 
L 795.301425 339.841668 
L 795.942595 351.814011 
L 796.583766 359.626823 
L 797.064644 362.889948 
L 797.385229 363.928421 
L 797.545522 364.132037 
L 797.705814 364.137873 
L 797.866107 363.955956 
L 798.186692 363.070665 
L 798.66757 360.601893 
L 799.30874 355.646451 
L 800.270496 346.055278 
L 802.194008 326.365395 
L 802.995471 320.110066 
L 803.636641 316.410774 
L 804.277812 313.971293 
L 804.75869 312.975857 
L 805.079275 312.699732 
L 805.39986 312.72208 
L 805.720445 313.029877 
L 806.201323 313.992782 
L 806.682201 315.504031 
L 807.323372 318.258478 
L 808.285127 323.640451 
L 809.567468 332.298287 
L 813.093906 356.781598 
L 813.414491 358.702099 
L 813.735077 161.384138 
L 814.055662 89.964339 
L 814.215955 81.489851 
L 814.376247 83.994169 
L 814.696832 107.442616 
L 815.658588 192.238536 
L 815.979173 206.442315 
L 816.299759 212.461481 
L 816.460051 212.746984 
L 816.620344 211.43891 
L 816.940929 204.709285 
L 817.421807 186.549505 
L 818.062978 151.890653 
L 818.22327 141.835636 
L 818.543855 319.434654 
L 818.864441 396.106211 
L 819.185026 419.867553 
L 819.345319 420.802596 
L 819.505611 417.558677 
L 820.146782 390.597455 
L 820.62766 376.223924 
L 820.948245 373.496648 
L 821.108537 374.16691 
L 821.429123 378.964526 
L 821.910001 392.180183 
L 823.032049 425.257194 
L 823.352634 429.853583 
L 823.512927 430.847517 
L 823.673219 430.905363 
L 823.833512 429.998876 
L 824.154097 425.261179 
L 824.474683 416.719037 
L 824.95556 397.463649 
L 825.757024 352.643704 
L 827.680535 236.542167 
L 828.321706 210.874238 
L 828.802583 198.524349 
L 829.123169 193.705222 
L 829.443754 191.563117 
L 829.604047 191.459026 
L 829.764339 191.972198 
L 830.084924 194.74868 
L 830.565802 202.839751 
L 831.206973 219.511759 
L 832.168729 252.289764 
L 834.09224 319.197796 
L 834.893703 339.852369 
L 835.534874 351.823425 
L 836.176044 359.635031 
L 836.656922 362.89731 
L 836.977507 363.935247 
L 837.1378 364.138603 
L 837.298093 364.144186 
L 837.458385 363.962021 
L 837.77897 363.076252 
L 838.259848 360.606806 
L 838.901019 355.650543 
L 839.862775 346.058303 
L 841.786286 326.366819 
L 842.587749 320.111007 
L 843.22892 316.411396 
L 843.87009 313.971649 
L 844.350968 312.976046 
L 844.671553 312.699824 
L 844.992139 312.722084 
L 845.312724 313.029803 
L 845.793602 313.992609 
L 846.27448 315.503777 
L 846.91565 318.258142 
L 847.877406 323.640038 
L 849.159747 332.297835 
L 852.686185 356.78125 
L 853.968526 363.982509 
L 854.609696 367.083079 
L 854.930281 169.203108 
L 855.250867 97.240311 
L 855.411159 88.500257 
L 855.571452 90.742923 
L 855.892037 113.680455 
L 856.853793 197.059316 
L 857.174378 210.834721 
L 857.494963 216.449316 
L 857.655256 216.541633 
L 857.815549 215.046488 
L 858.136134 207.961088 
L 858.617012 189.313212 
L 859.258182 154.086162 
L 859.418475 143.90327 
L 859.73906 321.297975 
L 860.059645 397.773464 
L 860.380231 421.347882 
L 860.540523 422.193193 
L 860.700816 418.862173 
L 861.341986 391.580524 
L 861.822864 376.997256 
L 862.143449 374.144759 
L 862.303742 374.756699 
L 862.624327 379.445993 
L 863.105205 392.518996 
L 864.227254 425.344872 
L 864.547839 429.887567 
L 864.708131 430.857258 
L 864.868424 430.892495 
L 865.028717 429.964956 
L 865.349302 425.189543 
L 865.669887 416.615071 
L 866.150765 397.320166 
L 866.952228 352.454482 
L 868.87574 236.314795 
L 869.51691 210.648824 
L 869.997788 198.303483 
L 870.318373 193.488552 
L 870.638959 191.351413 
L 870.799251 191.250053 
L 870.959544 191.766103 
L 871.280129 194.548724 
L 871.761007 202.64978 
L 872.402177 219.336092 
L 873.363933 252.136537 
L 875.287445 319.088184 
L 876.088908 339.759203 
L 876.730078 351.742425 
L 877.371249 359.565251 
L 877.852127 362.83531 
L 878.172712 363.878131 
L 878.333005 364.083838 
L 878.493297 364.091712 
L 878.65359 363.911779 
L 878.974175 363.030297 
L 879.455053 360.566846 
L 880.096223 355.617792 
L 881.057979 346.034786 
L 882.981491 326.356773 
L 883.782954 320.104906 
L 884.424124 316.407861 
L 885.065295 313.970214 
L 885.546173 312.975912 
L 885.866758 312.700439 
L 886.187343 312.723362 
L 886.507928 313.031662 
L 886.988806 313.995198 
L 887.469684 315.506944 
L 888.110855 318.261871 
L 889.07261 323.644241 
L 890.354951 332.302151 
L 893.881389 356.784325 
L 894.362267 359.635691 
L 894.682852 162.261499 
L 895.003438 90.786532 
L 895.16373 82.284745 
L 895.324023 84.761962 
L 895.644608 108.156915 
L 896.606364 192.800728 
L 896.926949 206.95752 
L 897.247534 212.931905 
L 897.407827 213.195889 
L 897.56812 211.866893 
L 897.888705 205.097251 
L 898.369583 186.882084 
L 899.010753 152.158017 
L 899.171046 142.088208 
L 899.491631 319.663469 
L 899.812216 396.312209 
L 900.132802 420.051757 
L 900.293094 420.976321 
L 900.453387 417.722216 
L 901.094557 390.723396 
L 901.575435 376.325122 
L 901.89602 373.58301 
L 902.056313 374.246344 
L 902.376898 379.031056 
L 902.857776 392.229633 
L 903.979825 425.276221 
L 904.30041 429.86601 
L 904.460702 430.856947 
L 904.620995 430.911986 
L 904.781288 430.002875 
L 905.101873 425.26044 
L 905.422458 416.71419 
L 905.903336 397.453692 
L 906.704799 352.627595 
L 908.628311 236.519785 
L 909.269481 210.851532 
L 909.750359 198.501782 
L 910.070944 193.682894 
L 910.39153 191.541128 
L 910.551822 191.437239 
L 910.712115 191.950632 
L 911.0327 194.727609 
L 911.513578 202.819532 
L 912.154748 219.492827 
L 913.116504 252.272955 
L 915.040016 319.185356 
L 915.841479 339.841643 
L 916.482649 351.813991 
L 917.12382 359.626805 
L 917.604698 362.889933 
L 917.925283 363.928407 
L 918.085576 364.132023 
L 918.245868 364.13786 
L 918.406161 363.955944 
L 918.726746 363.070654 
L 919.207624 360.601884 
L 919.848794 355.646443 
L 920.81055 346.055273 
L 922.734062 326.365393 
L 923.535525 320.110065 
L 924.176695 316.410774 
L 924.817866 313.971293 
L 925.298744 312.975857 
L 925.619329 312.699733 
L 925.939914 312.722081 
L 926.260499 313.029878 
L 926.741377 313.992783 
L 927.222255 315.504032 
L 927.863426 318.258479 
L 928.825181 323.640453 
L 930.107522 332.298288 
L 933.63396 356.781599 
L 933.794253 357.751427 
L 933.954545 238.253286 
L 933.954545 238.253286 
" clip-path="url(#p5a27f181d8)" style="fill: none; stroke: #1f77b4; stroke-width: 1.5; stroke-linecap: square"/>
   </g>
   <g id="line2d_16">
    <path d="M 173.045455 152.209873 
L 177.693941 152.209873 
L 177.854233 380.772838 
L 213.278903 380.772838 
L 213.439196 152.209873 
L 218.087682 152.209873 
L 218.247975 380.772838 
L 253.99323 380.772838 
L 254.153523 152.209873 
L 258.802009 152.209873 
L 258.962302 380.772838 
L 293.585509 380.772838 
L 293.745801 152.209873 
L 298.394287 152.209873 
L 298.55458 380.772838 
L 333.818957 380.772838 
L 333.97925 152.209873 
L 338.627736 152.209873 
L 338.788029 380.772838 
L 373.090651 380.772838 
L 373.250943 152.209873 
L 377.899429 152.209873 
L 378.059722 380.772838 
L 413.644685 380.772838 
L 413.804977 152.209873 
L 418.453463 152.209873 
L 418.613756 380.772838 
L 453.557548 380.772838 
L 453.717841 152.209873 
L 458.366327 152.209873 
L 458.52662 380.772838 
L 493.630705 380.772838 
L 493.790997 152.209873 
L 498.439483 152.209873 
L 498.599776 380.772838 
L 533.864153 380.772838 
L 534.024446 152.209873 
L 538.672932 152.209873 
L 538.833225 380.772838 
L 574.257895 380.772838 
L 574.418188 152.209873 
L 579.066674 152.209873 
L 579.226966 380.772838 
L 613.209003 380.772838 
L 613.369295 152.209873 
L 618.017782 152.209873 
L 618.178074 380.772838 
L 653.92333 380.772838 
L 654.083622 152.209873 
L 658.732108 152.209873 
L 658.892401 380.772838 
L 694.156778 380.772838 
L 694.317071 152.209873 
L 698.965557 152.209873 
L 699.12585 380.772838 
L 734.069642 380.772838 
L 734.229935 152.209873 
L 738.878421 152.209873 
L 739.038713 380.772838 
L 773.822213 380.772838 
L 773.982506 152.209873 
L 778.630992 152.209873 
L 778.791284 380.772838 
L 813.414491 380.772838 
L 813.574784 152.209873 
L 818.22327 152.209873 
L 818.383563 380.772838 
L 854.609696 380.772838 
L 854.769989 152.209873 
L 859.418475 152.209873 
L 859.578767 380.772838 
L 894.362267 380.772838 
L 894.52256 152.209873 
L 899.171046 152.209873 
L 899.331338 380.772838 
L 933.794253 380.772838 
L 933.954545 152.209873 
L 933.954545 152.209873 
" clip-path="url(#p5a27f181d8)" style="fill: none; stroke: #ff7f0e; stroke-width: 1.5; stroke-linecap: square"/>
   </g>
   <g id="line2d_17">
    <path d="M 929.466352 380.772838 
" clip-path="url(#p5a27f181d8)" style="fill: none; stroke: #000000; stroke-width: 1.5; stroke-linecap: square"/>
    <defs>
     <path id="m6a6791ad84" d="M 0 1 
C 0.265203 1 0.51958 0.894634 0.707107 0.707107 
C 0.894634 0.51958 1 0.265203 1 0 
C 1 -0.265203 0.894634 -0.51958 0.707107 -0.707107 
C 0.51958 -0.894634 0.265203 -1 0 -1 
C -0.265203 -1 -0.51958 -0.894634 -0.707107 -0.707107 
C -0.894634 -0.51958 -1 -0.265203 -1 0 
C -1 0.265203 -0.894634 0.51958 -0.707107 0.707107 
C -0.51958 0.894634 -0.265203 1 0 1 
z
" style="stroke: #000000"/>
    </defs>
    <g clip-path="url(#p5a27f181d8)">
     <use xlink:href="#m6a6791ad84" x="173.045455" y="152.209873" style="stroke: #000000"/>
     <use xlink:href="#m6a6791ad84" x="178.174819" y="380.772838" style="stroke: #000000"/>
     <use xlink:href="#m6a6791ad84" x="183.14389" y="380.772838" style="stroke: #000000"/>
     <use xlink:href="#m6a6791ad84" x="188.112961" y="152.209873" style="stroke: #000000"/>
     <use xlink:href="#m6a6791ad84" x="193.082033" y="380.772838" style="stroke: #000000"/>
     <use xlink:href="#m6a6791ad84" x="198.211397" y="380.772838" style="stroke: #000000"/>
     <use xlink:href="#m6a6791ad84" x="203.180468" y="152.209873" style="stroke: #000000"/>
     <use xlink:href="#m6a6791ad84" x="208.149539" y="380.772838" style="stroke: #000000"/>
     <use xlink:href="#m6a6791ad84" x="213.118611" y="152.209873" style="stroke: #000000"/>
     <use xlink:href="#m6a6791ad84" x="218.247975" y="380.772838" style="stroke: #000000"/>
     <use xlink:href="#m6a6791ad84" x="223.217046" y="380.772838" style="stroke: #000000"/>
     <use xlink:href="#m6a6791ad84" x="228.186118" y="152.209873" style="stroke: #000000"/>
     <use xlink:href="#m6a6791ad84" x="233.155189" y="380.772838" style="stroke: #000000"/>
     <use xlink:href="#m6a6791ad84" x="238.284553" y="380.772838" style="stroke: #000000"/>
     <use xlink:href="#m6a6791ad84" x="243.253624" y="152.209873" style="stroke: #000000"/>
     <use xlink:href="#m6a6791ad84" x="248.222696" y="380.772838" style="stroke: #000000"/>
     <use xlink:href="#m6a6791ad84" x="253.191767" y="152.209873" style="stroke: #000000"/>
     <use xlink:href="#m6a6791ad84" x="258.321131" y="380.772838" style="stroke: #000000"/>
     <use xlink:href="#m6a6791ad84" x="263.290202" y="380.772838" style="stroke: #000000"/>
     <use xlink:href="#m6a6791ad84" x="268.259274" y="152.209873" style="stroke: #000000"/>
     <use xlink:href="#m6a6791ad84" x="273.228345" y="380.772838" style="stroke: #000000"/>
     <use xlink:href="#m6a6791ad84" x="278.357709" y="380.772838" style="stroke: #000000"/>
     <use xlink:href="#m6a6791ad84" x="283.326781" y="152.209873" style="stroke: #000000"/>
     <use xlink:href="#m6a6791ad84" x="288.295852" y="380.772838" style="stroke: #000000"/>
     <use xlink:href="#m6a6791ad84" x="293.264923" y="152.209873" style="stroke: #000000"/>
     <use xlink:href="#m6a6791ad84" x="298.394287" y="380.772838" style="stroke: #000000"/>
     <use xlink:href="#m6a6791ad84" x="303.363359" y="380.772838" style="stroke: #000000"/>
     <use xlink:href="#m6a6791ad84" x="308.33243" y="152.209873" style="stroke: #000000"/>
     <use xlink:href="#m6a6791ad84" x="313.301501" y="380.772838" style="stroke: #000000"/>
     <use xlink:href="#m6a6791ad84" x="318.430865" y="380.772838" style="stroke: #000000"/>
     <use xlink:href="#m6a6791ad84" x="323.399937" y="152.209873" style="stroke: #000000"/>
     <use xlink:href="#m6a6791ad84" x="328.369008" y="380.772838" style="stroke: #000000"/>
     <use xlink:href="#m6a6791ad84" x="333.33808" y="152.209873" style="stroke: #000000"/>
     <use xlink:href="#m6a6791ad84" x="338.467444" y="380.772838" style="stroke: #000000"/>
     <use xlink:href="#m6a6791ad84" x="343.436515" y="380.772838" style="stroke: #000000"/>
     <use xlink:href="#m6a6791ad84" x="348.405586" y="152.209873" style="stroke: #000000"/>
     <use xlink:href="#m6a6791ad84" x="353.374658" y="380.772838" style="stroke: #000000"/>
     <use xlink:href="#m6a6791ad84" x="358.504022" y="380.772838" style="stroke: #000000"/>
     <use xlink:href="#m6a6791ad84" x="363.473093" y="152.209873" style="stroke: #000000"/>
     <use xlink:href="#m6a6791ad84" x="368.442164" y="380.772838" style="stroke: #000000"/>
     <use xlink:href="#m6a6791ad84" x="373.411236" y="152.209873" style="stroke: #000000"/>
     <use xlink:href="#m6a6791ad84" x="378.5406" y="380.772838" style="stroke: #000000"/>
     <use xlink:href="#m6a6791ad84" x="383.509671" y="380.772838" style="stroke: #000000"/>
     <use xlink:href="#m6a6791ad84" x="388.478743" y="152.209873" style="stroke: #000000"/>
     <use xlink:href="#m6a6791ad84" x="393.447814" y="380.772838" style="stroke: #000000"/>
     <use xlink:href="#m6a6791ad84" x="398.577178" y="380.772838" style="stroke: #000000"/>
     <use xlink:href="#m6a6791ad84" x="403.546249" y="152.209873" style="stroke: #000000"/>
     <use xlink:href="#m6a6791ad84" x="408.515321" y="380.772838" style="stroke: #000000"/>
     <use xlink:href="#m6a6791ad84" x="413.484392" y="152.209873" style="stroke: #000000"/>
     <use xlink:href="#m6a6791ad84" x="418.613756" y="380.772838" style="stroke: #000000"/>
     <use xlink:href="#m6a6791ad84" x="423.582827" y="380.772838" style="stroke: #000000"/>
     <use xlink:href="#m6a6791ad84" x="428.551899" y="152.209873" style="stroke: #000000"/>
     <use xlink:href="#m6a6791ad84" x="433.52097" y="380.772838" style="stroke: #000000"/>
     <use xlink:href="#m6a6791ad84" x="438.650334" y="380.772838" style="stroke: #000000"/>
     <use xlink:href="#m6a6791ad84" x="443.619406" y="152.209873" style="stroke: #000000"/>
     <use xlink:href="#m6a6791ad84" x="448.588477" y="380.772838" style="stroke: #000000"/>
     <use xlink:href="#m6a6791ad84" x="453.557548" y="152.209873" style="stroke: #000000"/>
     <use xlink:href="#m6a6791ad84" x="458.686912" y="380.772838" style="stroke: #000000"/>
     <use xlink:href="#m6a6791ad84" x="463.655984" y="380.772838" style="stroke: #000000"/>
     <use xlink:href="#m6a6791ad84" x="468.625055" y="152.209873" style="stroke: #000000"/>
     <use xlink:href="#m6a6791ad84" x="473.594126" y="380.772838" style="stroke: #000000"/>
     <use xlink:href="#m6a6791ad84" x="478.72349" y="380.772838" style="stroke: #000000"/>
     <use xlink:href="#m6a6791ad84" x="483.692562" y="152.209873" style="stroke: #000000"/>
     <use xlink:href="#m6a6791ad84" x="488.661633" y="380.772838" style="stroke: #000000"/>
     <use xlink:href="#m6a6791ad84" x="493.630705" y="152.209873" style="stroke: #000000"/>
     <use xlink:href="#m6a6791ad84" x="498.760069" y="380.772838" style="stroke: #000000"/>
     <use xlink:href="#m6a6791ad84" x="503.72914" y="380.772838" style="stroke: #000000"/>
     <use xlink:href="#m6a6791ad84" x="508.698211" y="152.209873" style="stroke: #000000"/>
     <use xlink:href="#m6a6791ad84" x="513.667283" y="380.772838" style="stroke: #000000"/>
     <use xlink:href="#m6a6791ad84" x="518.796647" y="380.772838" style="stroke: #000000"/>
     <use xlink:href="#m6a6791ad84" x="523.765718" y="152.209873" style="stroke: #000000"/>
     <use xlink:href="#m6a6791ad84" x="528.734789" y="380.772838" style="stroke: #000000"/>
     <use xlink:href="#m6a6791ad84" x="533.703861" y="152.209873" style="stroke: #000000"/>
     <use xlink:href="#m6a6791ad84" x="538.833225" y="380.772838" style="stroke: #000000"/>
     <use xlink:href="#m6a6791ad84" x="543.802296" y="380.772838" style="stroke: #000000"/>
     <use xlink:href="#m6a6791ad84" x="548.771368" y="152.209873" style="stroke: #000000"/>
     <use xlink:href="#m6a6791ad84" x="553.740439" y="380.772838" style="stroke: #000000"/>
     <use xlink:href="#m6a6791ad84" x="558.869803" y="380.772838" style="stroke: #000000"/>
     <use xlink:href="#m6a6791ad84" x="563.838874" y="152.209873" style="stroke: #000000"/>
     <use xlink:href="#m6a6791ad84" x="568.807946" y="380.772838" style="stroke: #000000"/>
     <use xlink:href="#m6a6791ad84" x="573.777017" y="152.209873" style="stroke: #000000"/>
     <use xlink:href="#m6a6791ad84" x="578.906381" y="380.772838" style="stroke: #000000"/>
     <use xlink:href="#m6a6791ad84" x="583.875452" y="380.772838" style="stroke: #000000"/>
     <use xlink:href="#m6a6791ad84" x="588.844524" y="152.209873" style="stroke: #000000"/>
     <use xlink:href="#m6a6791ad84" x="593.813595" y="380.772838" style="stroke: #000000"/>
     <use xlink:href="#m6a6791ad84" x="598.942959" y="380.772838" style="stroke: #000000"/>
     <use xlink:href="#m6a6791ad84" x="603.912031" y="152.209873" style="stroke: #000000"/>
     <use xlink:href="#m6a6791ad84" x="608.881102" y="380.772838" style="stroke: #000000"/>
     <use xlink:href="#m6a6791ad84" x="613.850173" y="152.209873" style="stroke: #000000"/>
     <use xlink:href="#m6a6791ad84" x="618.979537" y="380.772838" style="stroke: #000000"/>
     <use xlink:href="#m6a6791ad84" x="623.948609" y="380.772838" style="stroke: #000000"/>
     <use xlink:href="#m6a6791ad84" x="628.91768" y="152.209873" style="stroke: #000000"/>
     <use xlink:href="#m6a6791ad84" x="633.886751" y="380.772838" style="stroke: #000000"/>
     <use xlink:href="#m6a6791ad84" x="639.016115" y="380.772838" style="stroke: #000000"/>
     <use xlink:href="#m6a6791ad84" x="643.985187" y="152.209873" style="stroke: #000000"/>
     <use xlink:href="#m6a6791ad84" x="648.954258" y="380.772838" style="stroke: #000000"/>
     <use xlink:href="#m6a6791ad84" x="653.92333" y="152.209873" style="stroke: #000000"/>
     <use xlink:href="#m6a6791ad84" x="659.052694" y="380.772838" style="stroke: #000000"/>
     <use xlink:href="#m6a6791ad84" x="664.021765" y="380.772838" style="stroke: #000000"/>
     <use xlink:href="#m6a6791ad84" x="668.990836" y="152.209873" style="stroke: #000000"/>
     <use xlink:href="#m6a6791ad84" x="673.959908" y="380.772838" style="stroke: #000000"/>
     <use xlink:href="#m6a6791ad84" x="679.089272" y="380.772838" style="stroke: #000000"/>
     <use xlink:href="#m6a6791ad84" x="684.058343" y="152.209873" style="stroke: #000000"/>
     <use xlink:href="#m6a6791ad84" x="689.027414" y="380.772838" style="stroke: #000000"/>
     <use xlink:href="#m6a6791ad84" x="693.996486" y="152.209873" style="stroke: #000000"/>
     <use xlink:href="#m6a6791ad84" x="699.12585" y="380.772838" style="stroke: #000000"/>
     <use xlink:href="#m6a6791ad84" x="704.094921" y="380.772838" style="stroke: #000000"/>
     <use xlink:href="#m6a6791ad84" x="709.063993" y="152.209873" style="stroke: #000000"/>
     <use xlink:href="#m6a6791ad84" x="714.033064" y="380.772838" style="stroke: #000000"/>
     <use xlink:href="#m6a6791ad84" x="719.162428" y="380.772838" style="stroke: #000000"/>
     <use xlink:href="#m6a6791ad84" x="724.131499" y="152.209873" style="stroke: #000000"/>
     <use xlink:href="#m6a6791ad84" x="729.100571" y="380.772838" style="stroke: #000000"/>
     <use xlink:href="#m6a6791ad84" x="734.069642" y="152.209873" style="stroke: #000000"/>
     <use xlink:href="#m6a6791ad84" x="739.199006" y="380.772838" style="stroke: #000000"/>
     <use xlink:href="#m6a6791ad84" x="744.168077" y="380.772838" style="stroke: #000000"/>
     <use xlink:href="#m6a6791ad84" x="749.137149" y="152.209873" style="stroke: #000000"/>
     <use xlink:href="#m6a6791ad84" x="754.10622" y="380.772838" style="stroke: #000000"/>
     <use xlink:href="#m6a6791ad84" x="759.235584" y="380.772838" style="stroke: #000000"/>
     <use xlink:href="#m6a6791ad84" x="764.204656" y="152.209873" style="stroke: #000000"/>
     <use xlink:href="#m6a6791ad84" x="769.173727" y="380.772838" style="stroke: #000000"/>
     <use xlink:href="#m6a6791ad84" x="774.142798" y="152.209873" style="stroke: #000000"/>
     <use xlink:href="#m6a6791ad84" x="779.272162" y="380.772838" style="stroke: #000000"/>
     <use xlink:href="#m6a6791ad84" x="784.241234" y="380.772838" style="stroke: #000000"/>
     <use xlink:href="#m6a6791ad84" x="789.210305" y="152.209873" style="stroke: #000000"/>
     <use xlink:href="#m6a6791ad84" x="794.179376" y="380.772838" style="stroke: #000000"/>
     <use xlink:href="#m6a6791ad84" x="799.30874" y="380.772838" style="stroke: #000000"/>
     <use xlink:href="#m6a6791ad84" x="804.277812" y="152.209873" style="stroke: #000000"/>
     <use xlink:href="#m6a6791ad84" x="809.246883" y="380.772838" style="stroke: #000000"/>
     <use xlink:href="#m6a6791ad84" x="814.215955" y="152.209873" style="stroke: #000000"/>
     <use xlink:href="#m6a6791ad84" x="819.345319" y="380.772838" style="stroke: #000000"/>
     <use xlink:href="#m6a6791ad84" x="824.31439" y="380.772838" style="stroke: #000000"/>
     <use xlink:href="#m6a6791ad84" x="829.283461" y="152.209873" style="stroke: #000000"/>
     <use xlink:href="#m6a6791ad84" x="834.252533" y="380.772838" style="stroke: #000000"/>
     <use xlink:href="#m6a6791ad84" x="839.381897" y="380.772838" style="stroke: #000000"/>
     <use xlink:href="#m6a6791ad84" x="844.350968" y="152.209873" style="stroke: #000000"/>
     <use xlink:href="#m6a6791ad84" x="849.320039" y="380.772838" style="stroke: #000000"/>
     <use xlink:href="#m6a6791ad84" x="854.289111" y="152.209873" style="stroke: #000000"/>
     <use xlink:href="#m6a6791ad84" x="859.418475" y="380.772838" style="stroke: #000000"/>
     <use xlink:href="#m6a6791ad84" x="864.387546" y="380.772838" style="stroke: #000000"/>
     <use xlink:href="#m6a6791ad84" x="869.356618" y="152.209873" style="stroke: #000000"/>
     <use xlink:href="#m6a6791ad84" x="874.325689" y="380.772838" style="stroke: #000000"/>
     <use xlink:href="#m6a6791ad84" x="879.455053" y="380.772838" style="stroke: #000000"/>
     <use xlink:href="#m6a6791ad84" x="884.424124" y="152.209873" style="stroke: #000000"/>
     <use xlink:href="#m6a6791ad84" x="889.393196" y="380.772838" style="stroke: #000000"/>
     <use xlink:href="#m6a6791ad84" x="894.362267" y="152.209873" style="stroke: #000000"/>
     <use xlink:href="#m6a6791ad84" x="899.491631" y="380.772838" style="stroke: #000000"/>
     <use xlink:href="#m6a6791ad84" x="904.460702" y="380.772838" style="stroke: #000000"/>
     <use xlink:href="#m6a6791ad84" x="909.429774" y="152.209873" style="stroke: #000000"/>
     <use xlink:href="#m6a6791ad84" x="914.398845" y="380.772838" style="stroke: #000000"/>
     <use xlink:href="#m6a6791ad84" x="919.528209" y="380.772838" style="stroke: #000000"/>
     <use xlink:href="#m6a6791ad84" x="924.497281" y="152.209873" style="stroke: #000000"/>
     <use xlink:href="#m6a6791ad84" x="929.466352" y="380.772838" style="stroke: #000000"/>
    </g>
   </g>
   <g id="patch_3">
    <path d="M 135 448.56 
L 135 60.48 
" style="fill: none; stroke: #000000; stroke-width: 0.8; stroke-linejoin: miter; stroke-linecap: square"/>
   </g>
   <g id="patch_4">
    <path d="M 972 448.56 
L 972 60.48 
" style="fill: none; stroke: #000000; stroke-width: 0.8; stroke-linejoin: miter; stroke-linecap: square"/>
   </g>
   <g id="patch_5">
    <path d="M 135 448.56 
L 972 448.56 
" style="fill: none; stroke: #000000; stroke-width: 0.8; stroke-linejoin: miter; stroke-linecap: square"/>
   </g>
   <g id="patch_6">
    <path d="M 135 60.48 
L 972 60.48 
" style="fill: none; stroke: #000000; stroke-width: 0.8; stroke-linejoin: miter; stroke-linecap: square"/>
   </g>
   <g id="legend_1">
    <g id="patch_7">
     <path d="M 142 113.070625 
L 211.084375 113.070625 
Q 213.084375 113.070625 213.084375 111.070625 
L 213.084375 67.48 
Q 213.084375 65.48 211.084375 65.48 
L 142 65.48 
Q 140 65.48 140 67.48 
L 140 111.070625 
Q 140 113.070625 142 113.070625 
z
" style="fill: #ffffff; opacity: 0.8; stroke: #cccccc; stroke-linejoin: miter"/>
    </g>
    <g id="line2d_18">
     <path d="M 144 73.578438 
L 154 73.578438 
L 164 73.578438 
" style="fill: none; stroke: #1f77b4; stroke-width: 1.5; stroke-linecap: square"/>
    </g>
    <g id="text_16">
     <!-- nw_0 -->
     <g transform="translate(172 77.078438) scale(0.1 -0.1)">
      <defs>
       <path id="DejaVuSans-6e" d="M 3513 2113 
L 3513 0 
L 2938 0 
L 2938 2094 
Q 2938 2591 2744 2837 
Q 2550 3084 2163 3084 
Q 1697 3084 1428 2787 
Q 1159 2491 1159 1978 
L 1159 0 
L 581 0 
L 581 3500 
L 1159 3500 
L 1159 2956 
Q 1366 3272 1645 3428 
Q 1925 3584 2291 3584 
Q 2894 3584 3203 3211 
Q 3513 2838 3513 2113 
z
" transform="scale(0.015625)"/>
       <path id="DejaVuSans-77" d="M 269 3500 
L 844 3500 
L 1563 769 
L 2278 3500 
L 2956 3500 
L 3675 769 
L 4391 3500 
L 4966 3500 
L 4050 0 
L 3372 0 
L 2619 2869 
L 1863 0 
L 1184 0 
L 269 3500 
z
" transform="scale(0.015625)"/>
       <path id="DejaVuSans-5f" d="M 3263 -1063 
L 3263 -1509 
L -63 -1509 
L -63 -1063 
L 3263 -1063 
z
" transform="scale(0.015625)"/>
      </defs>
      <use xlink:href="#DejaVuSans-6e"/>
      <use xlink:href="#DejaVuSans-77" x="63.378906"/>
      <use xlink:href="#DejaVuSans-5f" x="145.166016"/>
      <use xlink:href="#DejaVuSans-30" x="195.166016"/>
     </g>
    </g>
    <g id="line2d_19">
     <path d="M 144 88.534688 
L 154 88.534688 
L 164 88.534688 
" style="fill: none; stroke: #ff7f0e; stroke-width: 1.5; stroke-linecap: square"/>
    </g>
    <g id="text_17">
     <!-- input_0 -->
     <g transform="translate(172 92.034688) scale(0.1 -0.1)">
      <defs>
       <path id="DejaVuSans-69" d="M 603 3500 
L 1178 3500 
L 1178 0 
L 603 0 
L 603 3500 
z
M 603 4863 
L 1178 4863 
L 1178 4134 
L 603 4134 
L 603 4863 
z
" transform="scale(0.015625)"/>
       <path id="DejaVuSans-70" d="M 1159 525 
L 1159 -1331 
L 581 -1331 
L 581 3500 
L 1159 3500 
L 1159 2969 
Q 1341 3281 1617 3432 
Q 1894 3584 2278 3584 
Q 2916 3584 3314 3078 
Q 3713 2572 3713 1747 
Q 3713 922 3314 415 
Q 2916 -91 2278 -91 
Q 1894 -91 1617 61 
Q 1341 213 1159 525 
z
M 3116 1747 
Q 3116 2381 2855 2742 
Q 2594 3103 2138 3103 
Q 1681 3103 1420 2742 
Q 1159 2381 1159 1747 
Q 1159 1113 1420 752 
Q 1681 391 2138 391 
Q 2594 391 2855 752 
Q 3116 1113 3116 1747 
z
" transform="scale(0.015625)"/>
       <path id="DejaVuSans-75" d="M 544 1381 
L 544 3500 
L 1119 3500 
L 1119 1403 
Q 1119 906 1312 657 
Q 1506 409 1894 409 
Q 2359 409 2629 706 
Q 2900 1003 2900 1516 
L 2900 3500 
L 3475 3500 
L 3475 0 
L 2900 0 
L 2900 538 
Q 2691 219 2414 64 
Q 2138 -91 1772 -91 
Q 1169 -91 856 284 
Q 544 659 544 1381 
z
M 1991 3584 
L 1991 3584 
z
" transform="scale(0.015625)"/>
      </defs>
      <use xlink:href="#DejaVuSans-69"/>
      <use xlink:href="#DejaVuSans-6e" x="27.783203"/>
      <use xlink:href="#DejaVuSans-70" x="91.162109"/>
      <use xlink:href="#DejaVuSans-75" x="154.638672"/>
      <use xlink:href="#DejaVuSans-74" x="218.017578"/>
      <use xlink:href="#DejaVuSans-5f" x="257.226562"/>
      <use xlink:href="#DejaVuSans-30" x="307.226562"/>
     </g>
    </g>
    <g id="line2d_20">
     <path d="M 144 103.490938 
L 154 103.490938 
L 164 103.490938 
" style="fill: none; stroke: #000000; stroke-width: 1.5; stroke-linecap: square"/>
     <g>
      <use xlink:href="#m6a6791ad84" x="154" y="103.490938" style="stroke: #000000"/>
     </g>
    </g>
    <g id="text_18">
     <!-- target -->
     <g transform="translate(172 106.990938) scale(0.1 -0.1)">
      <defs>
       <path id="DejaVuSans-61" d="M 2194 1759 
Q 1497 1759 1228 1600 
Q 959 1441 959 1056 
Q 959 750 1161 570 
Q 1363 391 1709 391 
Q 2188 391 2477 730 
Q 2766 1069 2766 1631 
L 2766 1759 
L 2194 1759 
z
M 3341 1997 
L 3341 0 
L 2766 0 
L 2766 531 
Q 2569 213 2275 61 
Q 1981 -91 1556 -91 
Q 1019 -91 701 211 
Q 384 513 384 1019 
Q 384 1609 779 1909 
Q 1175 2209 1959 2209 
L 2766 2209 
L 2766 2266 
Q 2766 2663 2505 2880 
Q 2244 3097 1772 3097 
Q 1472 3097 1187 3025 
Q 903 2953 641 2809 
L 641 3341 
Q 956 3463 1253 3523 
Q 1550 3584 1831 3584 
Q 2591 3584 2966 3190 
Q 3341 2797 3341 1997 
z
" transform="scale(0.015625)"/>
       <path id="DejaVuSans-72" d="M 2631 2963 
Q 2534 3019 2420 3045 
Q 2306 3072 2169 3072 
Q 1681 3072 1420 2755 
Q 1159 2438 1159 1844 
L 1159 0 
L 581 0 
L 581 3500 
L 1159 3500 
L 1159 2956 
Q 1341 3275 1631 3429 
Q 1922 3584 2338 3584 
Q 2397 3584 2469 3576 
Q 2541 3569 2628 3553 
L 2631 2963 
z
" transform="scale(0.015625)"/>
       <path id="DejaVuSans-67" d="M 2906 1791 
Q 2906 2416 2648 2759 
Q 2391 3103 1925 3103 
Q 1463 3103 1205 2759 
Q 947 2416 947 1791 
Q 947 1169 1205 825 
Q 1463 481 1925 481 
Q 2391 481 2648 825 
Q 2906 1169 2906 1791 
z
M 3481 434 
Q 3481 -459 3084 -895 
Q 2688 -1331 1869 -1331 
Q 1566 -1331 1297 -1286 
Q 1028 -1241 775 -1147 
L 775 -588 
Q 1028 -725 1275 -790 
Q 1522 -856 1778 -856 
Q 2344 -856 2625 -561 
Q 2906 -266 2906 331 
L 2906 616 
Q 2728 306 2450 153 
Q 2172 0 1784 0 
Q 1141 0 747 490 
Q 353 981 353 1791 
Q 353 2603 747 3093 
Q 1141 3584 1784 3584 
Q 2172 3584 2450 3431 
Q 2728 3278 2906 2969 
L 2906 3500 
L 3481 3500 
L 3481 434 
z
" transform="scale(0.015625)"/>
       <path id="DejaVuSans-65" d="M 3597 1894 
L 3597 1613 
L 953 1613 
Q 991 1019 1311 708 
Q 1631 397 2203 397 
Q 2534 397 2845 478 
Q 3156 559 3463 722 
L 3463 178 
Q 3153 47 2828 -22 
Q 2503 -91 2169 -91 
Q 1331 -91 842 396 
Q 353 884 353 1716 
Q 353 2575 817 3079 
Q 1281 3584 2069 3584 
Q 2775 3584 3186 3129 
Q 3597 2675 3597 1894 
z
M 3022 2063 
Q 3016 2534 2758 2815 
Q 2500 3097 2075 3097 
Q 1594 3097 1305 2825 
Q 1016 2553 972 2059 
L 3022 2063 
z
" transform="scale(0.015625)"/>
      </defs>
      <use xlink:href="#DejaVuSans-74"/>
      <use xlink:href="#DejaVuSans-61" x="39.208984"/>
      <use xlink:href="#DejaVuSans-72" x="100.488281"/>
      <use xlink:href="#DejaVuSans-67" x="139.851562"/>
      <use xlink:href="#DejaVuSans-65" x="203.328125"/>
      <use xlink:href="#DejaVuSans-74" x="264.851562"/>
     </g>
    </g>
   </g>
  </g>
 </g>
 <defs>
  <clipPath id="p5a27f181d8">
   <rect x="135" y="60.48" width="837" height="388.08"/>
  </clipPath>
 </defs>
</svg>
