<?xml version="1.0" encoding="utf-8" standalone="no"?>
<!DOCTYPE svg PUBLIC "-//W3C//DTD SVG 1.1//EN"
  "http://www.w3.org/Graphics/SVG/1.1/DTD/svg11.dtd">
<svg xmlns:xlink="http://www.w3.org/1999/xlink" width="1080pt" height="504pt" viewBox="0 0 1080 504" xmlns="http://www.w3.org/2000/svg" version="1.1">
 <metadata>
  <rdf:RDF xmlns:dc="http://purl.org/dc/elements/1.1/" xmlns:cc="http://creativecommons.org/ns#" xmlns:rdf="http://www.w3.org/1999/02/22-rdf-syntax-ns#">
   <cc:Work>
    <dc:type rdf:resource="http://purl.org/dc/dcmitype/StillImage"/>
    <dc:date>2024-05-09T11:37:43.393346</dc:date>
    <dc:format>image/svg+xml</dc:format>
    <dc:creator>
     <cc:Agent>
      <dc:title>Matplotlib v3.7.1, https://matplotlib.org/</dc:title>
     </cc:Agent>
    </dc:creator>
   </cc:Work>
  </rdf:RDF>
 </metadata>
 <defs>
  <style type="text/css">*{stroke-linejoin: round; stroke-linecap: butt}</style>
 </defs>
 <g id="figure_1">
  <g id="patch_1">
   <path d="M 0 504 
L 1080 504 
L 1080 0 
L 0 0 
z
" style="fill: #ffffff"/>
  </g>
  <g id="axes_1">
   <g id="patch_2">
    <path d="M 135 448.56 
L 972 448.56 
L 972 60.48 
L 135 60.48 
z
" style="fill: #ffffff"/>
   </g>
   <g id="matplotlib.axis_1">
    <g id="xtick_1">
     <g id="line2d_1">
      <defs>
       <path id="m06d6a10298" d="M 0 0 
L 0 3.5 
" style="stroke: #000000; stroke-width: 0.8"/>
      </defs>
      <g>
       <use xlink:href="#m06d6a10298" x="173.045455" y="448.56" style="stroke: #000000; stroke-width: 0.8"/>
      </g>
     </g>
     <g id="text_1">
      <!-- 0 -->
      <g transform="translate(169.864205 463.158437) scale(0.1 -0.1)">
       <defs>
        <path id="DejaVuSans-30" d="M 2034 4250 
Q 1547 4250 1301 3770 
Q 1056 3291 1056 2328 
Q 1056 1369 1301 889 
Q 1547 409 2034 409 
Q 2525 409 2770 889 
Q 3016 1369 3016 2328 
Q 3016 3291 2770 3770 
Q 2525 4250 2034 4250 
z
M 2034 4750 
Q 2819 4750 3233 4129 
Q 3647 3509 3647 2328 
Q 3647 1150 3233 529 
Q 2819 -91 2034 -91 
Q 1250 -91 836 529 
Q 422 1150 422 2328 
Q 422 3509 836 4129 
Q 1250 4750 2034 4750 
z
" transform="scale(0.015625)"/>
       </defs>
       <use xlink:href="#DejaVuSans-30"/>
      </g>
     </g>
    </g>
    <g id="xtick_2">
     <g id="line2d_2">
      <g>
       <use xlink:href="#m06d6a10298" x="333.33808" y="448.56" style="stroke: #000000; stroke-width: 0.8"/>
      </g>
     </g>
     <g id="text_2">
      <!-- 1000 -->
      <g transform="translate(320.61308 463.158437) scale(0.1 -0.1)">
       <defs>
        <path id="DejaVuSans-31" d="M 794 531 
L 1825 531 
L 1825 4091 
L 703 3866 
L 703 4441 
L 1819 4666 
L 2450 4666 
L 2450 531 
L 3481 531 
L 3481 0 
L 794 0 
L 794 531 
z
" transform="scale(0.015625)"/>
       </defs>
       <use xlink:href="#DejaVuSans-31"/>
       <use xlink:href="#DejaVuSans-30" x="63.623047"/>
       <use xlink:href="#DejaVuSans-30" x="127.246094"/>
       <use xlink:href="#DejaVuSans-30" x="190.869141"/>
      </g>
     </g>
    </g>
    <g id="xtick_3">
     <g id="line2d_3">
      <g>
       <use xlink:href="#m06d6a10298" x="493.630705" y="448.56" style="stroke: #000000; stroke-width: 0.8"/>
      </g>
     </g>
     <g id="text_3">
      <!-- 2000 -->
      <g transform="translate(480.905705 463.158437) scale(0.1 -0.1)">
       <defs>
        <path id="DejaVuSans-32" d="M 1228 531 
L 3431 531 
L 3431 0 
L 469 0 
L 469 531 
Q 828 903 1448 1529 
Q 2069 2156 2228 2338 
Q 2531 2678 2651 2914 
Q 2772 3150 2772 3378 
Q 2772 3750 2511 3984 
Q 2250 4219 1831 4219 
Q 1534 4219 1204 4116 
Q 875 4013 500 3803 
L 500 4441 
Q 881 4594 1212 4672 
Q 1544 4750 1819 4750 
Q 2544 4750 2975 4387 
Q 3406 4025 3406 3419 
Q 3406 3131 3298 2873 
Q 3191 2616 2906 2266 
Q 2828 2175 2409 1742 
Q 1991 1309 1228 531 
z
" transform="scale(0.015625)"/>
       </defs>
       <use xlink:href="#DejaVuSans-32"/>
       <use xlink:href="#DejaVuSans-30" x="63.623047"/>
       <use xlink:href="#DejaVuSans-30" x="127.246094"/>
       <use xlink:href="#DejaVuSans-30" x="190.869141"/>
      </g>
     </g>
    </g>
    <g id="xtick_4">
     <g id="line2d_4">
      <g>
       <use xlink:href="#m06d6a10298" x="653.92333" y="448.56" style="stroke: #000000; stroke-width: 0.8"/>
      </g>
     </g>
     <g id="text_4">
      <!-- 3000 -->
      <g transform="translate(641.19833 463.158437) scale(0.1 -0.1)">
       <defs>
        <path id="DejaVuSans-33" d="M 2597 2516 
Q 3050 2419 3304 2112 
Q 3559 1806 3559 1356 
Q 3559 666 3084 287 
Q 2609 -91 1734 -91 
Q 1441 -91 1130 -33 
Q 819 25 488 141 
L 488 750 
Q 750 597 1062 519 
Q 1375 441 1716 441 
Q 2309 441 2620 675 
Q 2931 909 2931 1356 
Q 2931 1769 2642 2001 
Q 2353 2234 1838 2234 
L 1294 2234 
L 1294 2753 
L 1863 2753 
Q 2328 2753 2575 2939 
Q 2822 3125 2822 3475 
Q 2822 3834 2567 4026 
Q 2313 4219 1838 4219 
Q 1578 4219 1281 4162 
Q 984 4106 628 3988 
L 628 4550 
Q 988 4650 1302 4700 
Q 1616 4750 1894 4750 
Q 2613 4750 3031 4423 
Q 3450 4097 3450 3541 
Q 3450 3153 3228 2886 
Q 3006 2619 2597 2516 
z
" transform="scale(0.015625)"/>
       </defs>
       <use xlink:href="#DejaVuSans-33"/>
       <use xlink:href="#DejaVuSans-30" x="63.623047"/>
       <use xlink:href="#DejaVuSans-30" x="127.246094"/>
       <use xlink:href="#DejaVuSans-30" x="190.869141"/>
      </g>
     </g>
    </g>
    <g id="xtick_5">
     <g id="line2d_5">
      <g>
       <use xlink:href="#m06d6a10298" x="814.215955" y="448.56" style="stroke: #000000; stroke-width: 0.8"/>
      </g>
     </g>
     <g id="text_5">
      <!-- 4000 -->
      <g transform="translate(801.490955 463.158437) scale(0.1 -0.1)">
       <defs>
        <path id="DejaVuSans-34" d="M 2419 4116 
L 825 1625 
L 2419 1625 
L 2419 4116 
z
M 2253 4666 
L 3047 4666 
L 3047 1625 
L 3713 1625 
L 3713 1100 
L 3047 1100 
L 3047 0 
L 2419 0 
L 2419 1100 
L 313 1100 
L 313 1709 
L 2253 4666 
z
" transform="scale(0.015625)"/>
       </defs>
       <use xlink:href="#DejaVuSans-34"/>
       <use xlink:href="#DejaVuSans-30" x="63.623047"/>
       <use xlink:href="#DejaVuSans-30" x="127.246094"/>
       <use xlink:href="#DejaVuSans-30" x="190.869141"/>
      </g>
     </g>
    </g>
    <g id="text_6">
     <!-- t -->
     <g transform="translate(551.539844 476.836563) scale(0.1 -0.1)">
      <defs>
       <path id="DejaVuSans-74" d="M 1172 4494 
L 1172 3500 
L 2356 3500 
L 2356 3053 
L 1172 3053 
L 1172 1153 
Q 1172 725 1289 603 
Q 1406 481 1766 481 
L 2356 481 
L 2356 0 
L 1766 0 
Q 1100 0 847 248 
Q 594 497 594 1153 
L 594 3053 
L 172 3053 
L 172 3500 
L 594 3500 
L 594 4494 
L 1172 4494 
z
" transform="scale(0.015625)"/>
      </defs>
      <use xlink:href="#DejaVuSans-74"/>
     </g>
    </g>
   </g>
   <g id="matplotlib.axis_2">
    <g id="ytick_1">
     <g id="line2d_6">
      <defs>
       <path id="m03d29cf0d8" d="M 0 0 
L -3.5 0 
" style="stroke: #000000; stroke-width: 0.8"/>
      </defs>
      <g>
       <use xlink:href="#m03d29cf0d8" x="135" y="430.92" style="stroke: #000000; stroke-width: 0.8"/>
      </g>
     </g>
     <g id="text_7">
      <!-- 0.0 -->
      <g transform="translate(112.096875 434.719219) scale(0.1 -0.1)">
       <defs>
        <path id="DejaVuSans-2e" d="M 684 794 
L 1344 794 
L 1344 0 
L 684 0 
L 684 794 
z
" transform="scale(0.015625)"/>
       </defs>
       <use xlink:href="#DejaVuSans-30"/>
       <use xlink:href="#DejaVuSans-2e" x="63.623047"/>
       <use xlink:href="#DejaVuSans-30" x="95.410156"/>
      </g>
     </g>
    </g>
    <g id="ytick_2">
     <g id="line2d_7">
      <g>
       <use xlink:href="#m03d29cf0d8" x="135" y="360.36" style="stroke: #000000; stroke-width: 0.8"/>
      </g>
     </g>
     <g id="text_8">
      <!-- 0.2 -->
      <g transform="translate(112.096875 364.159219) scale(0.1 -0.1)">
       <use xlink:href="#DejaVuSans-30"/>
       <use xlink:href="#DejaVuSans-2e" x="63.623047"/>
       <use xlink:href="#DejaVuSans-32" x="95.410156"/>
      </g>
     </g>
    </g>
    <g id="ytick_3">
     <g id="line2d_8">
      <g>
       <use xlink:href="#m03d29cf0d8" x="135" y="289.8" style="stroke: #000000; stroke-width: 0.8"/>
      </g>
     </g>
     <g id="text_9">
      <!-- 0.4 -->
      <g transform="translate(112.096875 293.599219) scale(0.1 -0.1)">
       <use xlink:href="#DejaVuSans-30"/>
       <use xlink:href="#DejaVuSans-2e" x="63.623047"/>
       <use xlink:href="#DejaVuSans-34" x="95.410156"/>
      </g>
     </g>
    </g>
    <g id="ytick_4">
     <g id="line2d_9">
      <g>
       <use xlink:href="#m03d29cf0d8" x="135" y="219.24" style="stroke: #000000; stroke-width: 0.8"/>
      </g>
     </g>
     <g id="text_10">
      <!-- 0.6 -->
      <g transform="translate(112.096875 223.039219) scale(0.1 -0.1)">
       <defs>
        <path id="DejaVuSans-36" d="M 2113 2584 
Q 1688 2584 1439 2293 
Q 1191 2003 1191 1497 
Q 1191 994 1439 701 
Q 1688 409 2113 409 
Q 2538 409 2786 701 
Q 3034 994 3034 1497 
Q 3034 2003 2786 2293 
Q 2538 2584 2113 2584 
z
M 3366 4563 
L 3366 3988 
Q 3128 4100 2886 4159 
Q 2644 4219 2406 4219 
Q 1781 4219 1451 3797 
Q 1122 3375 1075 2522 
Q 1259 2794 1537 2939 
Q 1816 3084 2150 3084 
Q 2853 3084 3261 2657 
Q 3669 2231 3669 1497 
Q 3669 778 3244 343 
Q 2819 -91 2113 -91 
Q 1303 -91 875 529 
Q 447 1150 447 2328 
Q 447 3434 972 4092 
Q 1497 4750 2381 4750 
Q 2619 4750 2861 4703 
Q 3103 4656 3366 4563 
z
" transform="scale(0.015625)"/>
       </defs>
       <use xlink:href="#DejaVuSans-30"/>
       <use xlink:href="#DejaVuSans-2e" x="63.623047"/>
       <use xlink:href="#DejaVuSans-36" x="95.410156"/>
      </g>
     </g>
    </g>
    <g id="ytick_5">
     <g id="line2d_10">
      <g>
       <use xlink:href="#m03d29cf0d8" x="135" y="148.68" style="stroke: #000000; stroke-width: 0.8"/>
      </g>
     </g>
     <g id="text_11">
      <!-- 0.8 -->
      <g transform="translate(112.096875 152.479219) scale(0.1 -0.1)">
       <defs>
        <path id="DejaVuSans-38" d="M 2034 2216 
Q 1584 2216 1326 1975 
Q 1069 1734 1069 1313 
Q 1069 891 1326 650 
Q 1584 409 2034 409 
Q 2484 409 2743 651 
Q 3003 894 3003 1313 
Q 3003 1734 2745 1975 
Q 2488 2216 2034 2216 
z
M 1403 2484 
Q 997 2584 770 2862 
Q 544 3141 544 3541 
Q 544 4100 942 4425 
Q 1341 4750 2034 4750 
Q 2731 4750 3128 4425 
Q 3525 4100 3525 3541 
Q 3525 3141 3298 2862 
Q 3072 2584 2669 2484 
Q 3125 2378 3379 2068 
Q 3634 1759 3634 1313 
Q 3634 634 3220 271 
Q 2806 -91 2034 -91 
Q 1263 -91 848 271 
Q 434 634 434 1313 
Q 434 1759 690 2068 
Q 947 2378 1403 2484 
z
M 1172 3481 
Q 1172 3119 1398 2916 
Q 1625 2713 2034 2713 
Q 2441 2713 2670 2916 
Q 2900 3119 2900 3481 
Q 2900 3844 2670 4047 
Q 2441 4250 2034 4250 
Q 1625 4250 1398 4047 
Q 1172 3844 1172 3481 
z
" transform="scale(0.015625)"/>
       </defs>
       <use xlink:href="#DejaVuSans-30"/>
       <use xlink:href="#DejaVuSans-2e" x="63.623047"/>
       <use xlink:href="#DejaVuSans-38" x="95.410156"/>
      </g>
     </g>
    </g>
    <g id="ytick_6">
     <g id="line2d_11">
      <g>
       <use xlink:href="#m03d29cf0d8" x="135" y="78.12" style="stroke: #000000; stroke-width: 0.8"/>
      </g>
     </g>
     <g id="text_12">
      <!-- 1.0 -->
      <g transform="translate(112.096875 81.919219) scale(0.1 -0.1)">
       <use xlink:href="#DejaVuSans-31"/>
       <use xlink:href="#DejaVuSans-2e" x="63.623047"/>
       <use xlink:href="#DejaVuSans-30" x="95.410156"/>
      </g>
     </g>
    </g>
   </g>
   <g id="line2d_12">
    <path d="M 173.045455 414.876045 
L 173.686625 362.100004 
L 174.327796 326.165206 
L 174.808673 309.211515 
L 175.289551 300.063457 
L 175.610137 297.982961 
L 175.770429 298.079986 
L 175.930722 298.906029 
L 176.251307 302.66053 
L 176.732185 313.243007 
L 177.213063 329.301896 
L 178.335111 370.65922 
L 179.136574 390.383619 
L 179.938037 404.709091 
L 180.579208 412.856507 
L 181.220378 418.479434 
L 181.701256 421.249346 
L 182.182134 422.926939 
L 182.502719 423.499074 
L 182.823305 423.673725 
L 183.14389 423.482672 
L 183.464475 422.955924 
L 183.945353 421.597889 
L 184.586524 418.863344 
L 185.387987 414.223779 
L 186.349742 407.286536 
L 187.792376 395.034193 
L 194.364374 336.489739 
L 195.9673 325.222159 
L 197.409934 316.624511 
L 198.692275 310.246486 
L 199.814323 305.636241 
L 200.936371 301.909161 
L 201.898127 299.392379 
L 202.859883 297.474098 
L 203.661346 296.311688 
L 204.462809 295.526419 
L 205.10398 295.156992 
L 205.74515 295.006795 
L 206.386321 295.065707 
L 207.027491 295.323543 
L 207.828954 295.910048 
L 208.630417 296.771651 
L 209.592173 298.141197 
L 210.714221 300.160019 
L 211.996562 302.960307 
L 213.278903 306.217157 
L 213.920074 255.515319 
L 214.561244 221.720582 
L 215.042122 206.410559 
L 215.362708 200.597469 
L 215.683293 198.073087 
L 215.843585 197.986146 
L 216.003878 198.65276 
L 216.324463 202.159724 
L 216.645049 208.424841 
L 217.125926 222.642137 
L 217.767097 249.801214 
L 218.408267 277.794346 
L 219.209731 301.369254 
L 220.011194 319.338557 
L 220.812657 332.573736 
L 221.61412 341.837261 
L 222.25529 346.838655 
L 222.896461 350.026275 
L 223.377339 351.389327 
L 223.697924 351.866379 
L 224.018509 352.031259 
L 224.339095 351.910563 
L 224.65968 351.529357 
L 225.140558 350.520356 
L 225.781728 348.472173 
L 226.583191 345.000365 
L 227.70524 338.905891 
L 229.308166 328.757657 
L 233.155189 303.907926 
L 234.758115 295.11444 
L 236.200749 288.451101 
L 237.48309 283.622445 
L 238.605138 280.269107 
L 239.566894 278.041857 
L 240.52865 276.401061 
L 241.330113 275.469439 
L 241.971283 275.000299 
L 242.612454 274.768601 
L 243.253624 274.766227 
L 243.894795 274.984537 
L 244.535965 275.414483 
L 245.337428 276.235263 
L 246.299184 277.611019 
L 247.26094 279.382085 
L 248.382988 281.903995 
L 249.665329 285.323709 
L 251.268256 290.294645 
L 253.191767 297.096864 
L 253.99323 300.150419 
L 254.634401 248.369175 
L 255.275571 213.596291 
L 255.756449 197.615369 
L 256.077034 191.383557 
L 256.39762 188.462531 
L 256.557912 188.185356 
L 256.718205 188.667029 
L 257.03879 191.819706 
L 257.359375 197.750876 
L 257.840253 211.504248 
L 258.481424 238.111239 
L 259.122594 266.342667 
L 260.08435 295.352049 
L 260.885813 313.445474 
L 261.687276 326.919531 
L 262.488739 336.514745 
L 263.12991 341.835449 
L 263.77108 345.381037 
L 264.251958 347.033356 
L 264.732836 347.934052 
L 265.053421 348.162327 
L 265.374007 348.122365 
L 265.694592 347.837826 
L 266.17547 347.000821 
L 266.81664 345.225966 
L 267.618103 342.154174 
L 268.740152 336.701938 
L 270.343078 327.576606 
L 274.190101 305.307036 
L 275.793027 297.531434 
L 277.075368 292.309351 
L 278.197417 288.537189 
L 279.319465 285.533365 
L 280.281221 283.571973 
L 281.082684 282.364032 
L 281.884147 281.534943 
L 282.525317 281.13701 
L 283.166488 280.967708 
L 283.807658 281.019601 
L 284.448829 281.284677 
L 285.250292 281.902871 
L 286.051755 282.823609 
L 287.013511 284.302665 
L 288.135559 286.504289 
L 289.4179 289.586608 
L 290.860534 293.687403 
L 292.623753 299.465964 
L 293.585509 302.914111 
L 294.226679 251.253445 
L 294.86785 216.576696 
L 295.348727 200.655867 
L 295.669313 194.459837 
L 295.989898 191.571995 
L 296.150191 191.310645 
L 296.310483 191.807738 
L 296.631068 194.990344 
L 296.951654 200.950705 
L 297.432532 214.747659 
L 298.073702 241.414932 
L 298.714873 269.656373 
L 299.676628 298.628189 
L 300.478091 316.717769 
L 301.279555 330.207733 
L 302.081018 339.834418 
L 302.722188 345.189056 
L 303.363359 348.774599 
L 303.844237 350.45997 
L 304.325114 351.39576 
L 304.6457 351.648321 
L 304.966285 351.6332 
L 305.28687 351.373933 
L 305.767748 350.575387 
L 306.408919 348.852287 
L 307.210382 345.844902 
L 308.172137 341.3099 
L 309.614771 333.344774 
L 314.102965 307.753284 
L 315.545598 300.967044 
L 316.827939 295.880895 
L 317.949988 292.220831 
L 319.072036 289.319583 
L 320.033792 287.436895 
L 320.835255 286.28729 
L 321.636718 285.509522 
L 322.277888 285.14741 
L 322.919059 285.009179 
L 323.560229 285.087342 
L 324.2014 285.373869 
L 325.002863 286.012121 
L 325.804326 286.945485 
L 326.766082 288.430061 
L 327.88813 290.625228 
L 329.170471 293.683881 
L 330.613105 297.738501 
L 332.376324 303.434747 
L 333.818957 308.587383 
L 334.460128 256.765334 
L 335.101298 221.945114 
L 335.582176 205.929407 
L 335.902762 199.676485 
L 336.223347 196.736988 
L 336.383639 196.451807 
L 336.543932 196.926417 
L 336.864517 200.068132 
L 337.185103 205.99309 
L 337.66598 219.747323 
L 338.307151 246.377136 
L 338.948321 274.631827 
L 339.910077 303.666993 
L 340.71154 321.799852 
L 341.513003 335.323679 
L 342.314467 344.974314 
L 342.955637 350.340759 
L 343.596808 353.931475 
L 344.077685 355.616351 
L 344.558563 356.547901 
L 344.879149 356.795565 
L 345.199734 356.773899 
L 345.520319 356.506451 
L 346.001197 355.692597 
L 346.642367 353.943501 
L 347.443831 350.89486 
L 348.405586 346.29796 
L 349.84822 338.216089 
L 354.496706 311.278148 
L 355.93934 304.401463 
L 357.221681 299.2353 
L 358.343729 295.502038 
L 359.465777 292.52258 
L 360.427533 290.567876 
L 361.228996 289.354344 
L 362.030459 288.508903 
L 362.831923 288.020027 
L 363.473093 287.87666 
L 364.114264 287.945303 
L 364.755434 288.217857 
L 365.556897 288.83235 
L 366.35836 289.735009 
L 367.320116 291.173746 
L 368.442164 293.303466 
L 369.724505 296.272417 
L 371.167139 300.208646 
L 372.930358 305.737932 
L 373.090651 306.274328 
L 373.731821 255.267134 
L 374.372992 221.2004 
L 374.853869 205.713273 
L 375.174455 199.796685 
L 375.49504 197.18146 
L 375.655333 197.054093 
L 375.815625 197.683734 
L 376.13621 201.127468 
L 376.456796 207.344188 
L 376.937674 221.518011 
L 377.578844 248.676196 
L 378.220015 277.029325 
L 379.18177 305.63124 
L 379.983233 323.43222 
L 380.784697 336.648622 
L 381.58616 346.014501 
L 382.22733 351.168344 
L 382.868501 354.559103 
L 383.349379 356.101857 
L 383.830256 356.897675 
L 384.150842 357.058257 
L 384.471427 356.952138 
L 384.792012 356.602786 
L 385.27289 355.670687 
L 385.914061 353.772148 
L 386.715524 350.549117 
L 387.837572 344.888017 
L 389.440498 335.462716 
L 393.287521 312.424795 
L 394.890448 304.299865 
L 396.333081 298.162244 
L 397.615422 293.73275 
L 398.737471 290.673455 
L 399.699226 288.656691 
L 400.500689 287.395561 
L 401.302153 286.50599 
L 402.103616 285.976218 
L 402.744786 285.802316 
L 403.385957 285.842251 
L 404.027127 286.08783 
L 404.82859 286.670907 
L 405.630053 287.544556 
L 406.591809 288.951451 
L 407.713858 291.047829 
L 408.996199 293.98329 
L 410.438832 297.887214 
L 412.202051 303.384 
L 413.644685 308.362972 
L 414.285855 257.161814 
L 414.927026 222.934534 
L 415.407904 207.347248 
L 415.728489 201.3729 
L 416.049074 198.706746 
L 416.209367 198.556376 
L 416.369659 199.164604 
L 416.690245 202.570126 
L 417.01083 208.75454 
L 417.491708 222.890342 
L 418.132878 250.015857 
L 418.774049 278.427316 
L 419.735804 307.205356 
L 420.537268 325.124925 
L 421.338731 338.436588 
L 422.140194 347.876396 
L 422.781364 353.075279 
L 423.422535 356.499519 
L 423.903413 358.060308 
L 424.384291 358.868474 
L 424.704876 359.034291 
L 425.025461 358.931117 
L 425.346046 358.582512 
L 425.826924 357.647599 
L 426.468095 355.73841 
L 427.269558 352.491874 
L 428.391606 346.780919 
L 429.994532 337.255341 
L 434.001848 312.992412 
L 435.604774 304.825229 
L 437.047408 298.658983 
L 438.329749 294.206336 
L 439.451797 291.126063 
L 440.413553 289.089647 
L 441.375309 287.599373 
L 442.176772 286.762578 
L 442.978235 286.281014 
L 443.619406 286.142103 
L 444.260576 286.213686 
L 444.901747 286.487463 
L 445.70321 287.100846 
L 446.504673 287.999275 
L 447.466429 289.428658 
L 448.588477 291.5415 
L 449.870818 294.483431 
L 451.313452 298.379925 
L 453.07667 303.848526 
L 453.557548 305.454216 
L 454.198719 254.862735 
L 454.839889 221.200872 
L 455.320767 206.010613 
L 455.641352 200.288809 
L 455.961938 197.865921 
L 456.12223 197.833815 
L 456.282523 198.55812 
L 456.603108 202.1894 
L 456.923693 208.591318 
L 457.404571 223.03858 
L 458.045742 250.553314 
L 458.686912 279.046275 
L 459.648668 307.533024 
L 460.450131 325.228041 
L 461.251594 338.330978 
L 462.053057 347.577209 
L 462.694228 352.631678 
L 463.335398 355.920411 
L 463.816276 357.385206 
L 464.297154 358.102045 
L 464.617739 358.209499 
L 464.938325 358.049931 
L 465.25891 357.646855 
L 465.739788 356.633757 
L 466.380958 354.62667 
L 467.182421 351.26751 
L 468.30447 345.415975 
L 470.067689 334.708317 
L 473.594126 312.9681 
L 475.197053 304.475214 
L 476.639686 297.997891 
L 477.922027 293.267861 
L 479.044076 289.950918 
L 480.005831 287.719356 
L 480.967587 286.043052 
L 481.76905 285.059213 
L 482.570513 284.4385 
L 483.211684 284.194245 
L 483.852854 284.165962 
L 484.494025 284.345455 
L 485.295488 284.848915 
L 486.096951 285.646258 
L 487.058707 286.96593 
L 488.180755 288.966483 
L 489.463096 291.800161 
L 490.90573 295.599271 
L 492.508656 300.46283 
L 493.630705 304.202681 
L 494.271875 253.756964 
L 494.913046 220.237066 
L 495.393923 205.150691 
L 495.714509 199.496874 
L 496.035094 197.140937 
L 496.195387 197.141914 
L 496.355679 197.899037 
L 496.676264 201.595153 
L 497.157142 212.281608 
L 497.63802 228.663289 
L 498.279191 258.500385 
L 498.760069 278.791113 
L 499.721824 307.280849 
L 500.523287 324.975065 
L 501.324751 338.074692 
L 502.126214 347.315501 
L 502.767384 352.36435 
L 503.408555 355.646496 
L 503.889433 357.105803 
L 504.37031 357.816749 
L 504.690896 357.920073 
L 505.011481 357.756231 
L 505.332066 357.348751 
L 505.812944 356.32883 
L 506.454115 354.312304 
L 507.255578 350.940917 
L 508.377626 345.071726 
L 510.140845 334.335799 
L 513.667283 312.540564 
L 515.270209 304.024457 
L 516.712843 297.527556 
L 517.995184 292.781293 
L 519.117232 289.451107 
L 520.078988 287.208931 
L 521.040743 285.522709 
L 521.842207 284.531143 
L 522.64367 283.903193 
L 523.28484 283.653503 
L 523.926011 283.6201 
L 524.567181 283.794787 
L 525.368644 284.292678 
L 526.170107 285.084937 
L 527.131863 286.399141 
L 528.253912 288.394177 
L 529.536253 291.222667 
L 530.978886 295.017329 
L 532.581812 299.877619 
L 533.864153 304.169923 
L 534.505324 253.756138 
L 535.146494 220.269295 
L 535.627372 205.208182 
L 535.947958 199.571337 
L 536.268543 197.23242 
L 536.428835 197.241912 
L 536.589128 198.007545 
L 536.909713 201.720649 
L 537.390591 212.432434 
L 537.871469 228.839154 
L 538.51264 258.708994 
L 538.993517 279.010215 
L 539.955273 307.503823 
L 540.756736 325.197759 
L 541.558199 338.294395 
L 542.359663 347.529896 
L 543.000833 352.573068 
L 543.642004 355.848444 
L 544.122881 357.302045 
L 544.603759 358.00681 
L 544.924345 358.105777 
L 545.24493 357.937406 
L 545.565515 357.525239 
L 546.046393 356.498022 
L 546.687563 354.471337 
L 547.489027 351.086687 
L 548.611075 345.198164 
L 550.374294 334.430871 
L 553.900732 312.573141 
L 555.503658 304.030009 
L 556.946291 297.509951 
L 558.228632 292.744173 
L 559.350681 289.397804 
L 560.312437 287.142451 
L 561.274192 285.44371 
L 562.075655 284.44222 
L 562.877119 283.804812 
L 563.518289 283.547892 
L 564.15946 283.507557 
L 564.80063 283.675609 
L 565.602093 284.165622 
L 566.403556 284.95046 
L 567.365312 286.256354 
L 568.48736 288.242502 
L 569.769701 291.061872 
L 571.212335 294.847556 
L 572.815261 299.6994 
L 574.257895 304.543695 
L 574.899065 254.108085 
L 575.540236 220.602937 
L 576.021114 205.530105 
L 576.341699 199.886295 
L 576.662284 197.541029 
L 576.822577 197.547559 
L 576.98287 198.310366 
L 577.303455 202.018196 
L 577.784333 212.722929 
L 578.265211 229.123498 
L 578.906381 258.986303 
L 579.387259 279.291686 
L 580.349015 307.799214 
L 581.150478 325.501344 
L 581.951941 338.603466 
L 582.753404 347.842077 
L 583.394575 352.886227 
L 584.035745 356.161387 
L 584.516623 357.614121 
L 584.997501 358.317469 
L 585.318086 358.415209 
L 585.638671 358.2454 
L 585.959257 357.831598 
L 586.440134 356.801581 
L 587.081305 354.770576 
L 587.882768 351.379702 
L 589.004816 345.481182 
L 590.768035 334.695915 
L 594.294473 312.797684 
L 595.897399 304.235451 
L 597.340033 297.698315 
L 598.622374 292.917627 
L 599.744422 289.558516 
L 600.706178 287.29252 
L 601.667934 285.583425 
L 602.469397 284.573546 
L 603.27086 283.927981 
L 603.912031 283.66471 
L 604.553201 283.618182 
L 605.194372 283.780204 
L 605.835542 284.1422 
L 606.637005 284.86239 
L 607.598761 286.095791 
L 608.560517 287.702534 
L 609.682565 290.00731 
L 610.964906 293.148727 
L 612.567832 297.732456 
L 613.209003 299.742874 
L 613.850173 250.004738 
L 614.491344 217.135374 
L 614.972222 202.501907 
L 615.292807 197.134272 
L 615.613392 195.052454 
L 615.773685 195.186106 
L 615.933977 196.073055 
L 616.254563 200.020488 
L 616.735441 211.063861 
L 617.216318 227.779594 
L 617.857489 258.028736 
L 618.178074 272.733888 
L 619.13983 302.353617 
L 619.941293 320.816307 
L 620.742756 334.549478 
L 621.544219 344.307469 
L 622.18539 349.697371 
L 622.82656 353.264125 
L 623.307438 354.90394 
L 623.788316 355.770066 
L 624.108901 355.963969 
L 624.429487 355.881191 
L 624.750072 355.545893 
L 625.23095 354.618891 
L 625.87212 352.700501 
L 626.673583 349.416045 
L 627.795632 343.614176 
L 629.398558 333.908387 
L 633.405874 309.114125 
L 635.0088 300.750449 
L 636.451433 294.428358 
L 637.733774 289.857068 
L 638.855823 286.689525 
L 639.817579 284.590933 
L 640.779334 283.050164 
L 641.580797 282.180107 
L 642.382261 281.67313 
L 643.023431 281.519403 
L 643.664602 281.580932 
L 644.305772 281.849281 
L 645.107235 282.462148 
L 645.908698 283.366736 
L 646.870454 284.811854 
L 647.992502 286.953818 
L 649.274843 289.942066 
L 650.717477 293.905603 
L 652.480696 299.474868 
L 653.92333 304.512495 
L 654.5645 253.934103 
L 655.205671 220.301366 
L 655.686548 205.141939 
L 656.007134 199.444413 
L 656.327719 197.048456 
L 656.488012 197.030728 
L 656.648304 197.769977 
L 656.968889 201.43272 
L 657.449767 212.07464 
L 657.930645 228.417788 
L 658.571816 258.211712 
L 659.052694 278.54896 
L 660.014449 307.191567 
L 660.815912 324.997129 
L 661.617376 338.194852 
L 662.418839 347.52166 
L 663.060009 352.631317 
L 663.70118 355.967719 
L 664.182058 357.463708 
L 664.662935 358.208109 
L 664.983521 358.332033 
L 665.304106 358.187491 
L 665.624691 357.798058 
L 666.105569 356.802966 
L 666.74674 354.8156 
L 667.548203 351.474813 
L 668.670251 345.638665 
L 670.273177 335.948384 
L 674.1202 312.242973 
L 675.723127 303.84025 
L 677.16576 297.457625 
L 678.448101 292.816091 
L 679.57015 289.576663 
L 680.531905 287.410027 
L 681.493661 285.796265 
L 682.295124 284.862214 
L 683.096587 284.288843 
L 683.737758 284.080551 
L 684.378928 284.086439 
L 685.020099 284.298253 
L 685.821562 284.839456 
L 686.623025 285.671556 
L 687.584781 287.029001 
L 688.706829 289.068279 
L 689.98917 291.939397 
L 691.431804 295.772397 
L 693.03473 300.664173 
L 694.156778 304.418388 
L 694.797949 254.04251 
L 695.439119 220.591005 
L 695.919997 205.55466 
L 696.240583 199.933485 
L 696.561168 197.609561 
L 696.72146 197.626292 
L 696.881753 198.398994 
L 697.202338 202.125721 
L 697.683216 212.856651 
L 698.164094 229.280972 
L 698.805265 259.171886 
L 699.286142 279.468099 
L 700.247898 307.932216 
L 701.049361 325.601848 
L 701.850824 338.674607 
L 702.652288 347.8868 
L 703.293458 352.911815 
L 703.934629 356.16952 
L 704.415506 357.610214 
L 704.896384 358.302383 
L 705.21697 358.393131 
L 705.537555 358.216689 
L 705.85814 357.796601 
L 706.339018 356.757787 
L 706.980188 354.716183 
L 707.781652 351.313772 
L 708.9037 345.40206 
L 710.666919 334.602275 
L 714.193357 312.693452 
L 715.796283 304.132748 
L 717.238916 297.599595 
L 718.521257 292.824168 
L 719.643306 289.470771 
L 720.605062 287.210369 
L 721.566817 285.507414 
L 722.36828 284.503007 
L 723.169744 283.863187 
L 723.810914 283.604679 
L 724.452085 283.563043 
L 725.093255 283.730063 
L 725.734426 284.097148 
L 726.535889 284.8238 
L 727.497644 286.065062 
L 728.4594 287.679734 
L 729.581449 289.993789 
L 730.86379 293.14577 
L 732.466716 297.742524 
L 734.069642 302.945262 
L 734.710813 252.735927 
L 735.351983 219.437285 
L 735.832861 204.507267 
L 736.153446 198.953257 
L 736.474031 196.693663 
L 736.634324 196.741533 
L 736.794617 197.54471 
L 737.115202 201.330448 
L 737.59608 212.145249 
L 738.076958 228.648178 
L 738.718128 258.636281 
L 739.038713 273.32395 
L 740.000469 303.187779 
L 740.801932 321.829549 
L 741.603395 335.721385 
L 742.404859 345.619128 
L 743.046029 351.108168 
L 743.6872 354.763549 
L 744.168077 356.46333 
L 744.648955 357.384139 
L 744.969541 357.61169 
L 745.290126 357.560397 
L 745.610711 357.254492 
L 746.091589 356.367811 
L 746.732759 354.496494 
L 747.534223 351.260839 
L 748.495978 346.399248 
L 749.938612 337.86086 
L 754.747391 308.38493 
L 756.350317 300.378549 
L 757.632658 295.014693 
L 758.754706 291.134163 
L 759.876755 288.02711 
L 760.83851 285.97613 
L 761.800266 284.478349 
L 762.601729 283.640248 
L 763.2429 283.229187 
L 763.88407 283.040853 
L 764.525241 283.067359 
L 765.166411 283.300362 
L 765.967874 283.868726 
L 766.769338 284.728598 
L 767.731093 286.119978 
L 768.853142 288.199415 
L 770.135483 291.116804 
L 771.578116 295.001862 
L 773.341335 300.477645 
L 773.822213 302.089004 
L 774.463384 251.946214 
L 775.104554 218.708784 
L 775.585432 203.82141 
L 775.906017 198.294362 
L 776.226602 196.060612 
L 776.386895 196.120998 
L 776.547188 196.936428 
L 776.867773 200.745903 
L 777.348651 211.594468 
L 777.829529 228.12907 
L 778.470699 258.156381 
L 778.791284 272.850463 
L 779.75304 302.699637 
L 780.554503 321.332371 
L 781.355966 335.217768 
L 782.15743 345.111419 
L 782.7986 350.598721 
L 783.439771 354.25361 
L 783.920648 355.953778 
L 784.401526 356.875577 
L 784.722112 357.104104 
L 785.042697 357.054027 
L 785.363282 356.749567 
L 785.84416 355.865462 
L 786.48533 353.998288 
L 787.286794 350.768853 
L 788.248549 345.916073 
L 789.691183 337.393235 
L 794.499962 307.982583 
L 796.102888 300.000587 
L 797.385229 294.656647 
L 798.507277 290.793687 
L 799.629326 287.704227 
L 800.591081 285.668275 
L 801.392545 284.394839 
L 802.194008 283.495632 
L 802.995471 282.958368 
L 803.636641 282.77972 
L 804.277812 282.815814 
L 804.918982 283.058295 
L 805.720445 283.638342 
L 806.521909 284.509701 
L 807.483664 285.914588 
L 808.605713 288.009378 
L 809.888054 290.943749 
L 811.330687 294.847157 
L 813.093906 300.344242 
L 813.414491 301.417142 
L 814.055662 251.336135 
L 814.696832 218.15498 
L 815.17771 203.306489 
L 815.498296 197.80389 
L 815.818881 195.593471 
L 815.979173 195.665122 
L 816.139466 196.491557 
L 816.460051 200.32229 
L 816.940929 211.200954 
L 817.421807 227.763648 
L 818.062978 257.825552 
L 818.383563 272.523854 
L 819.345319 302.352272 
L 820.146782 320.971281 
L 820.948245 334.845864 
L 821.749708 344.731325 
L 822.390878 350.213787 
L 823.032049 353.865222 
L 823.512927 355.56364 
L 823.993805 356.484359 
L 824.31439 356.712515 
L 824.634975 356.662334 
L 824.95556 356.358024 
L 825.436438 355.474594 
L 826.077609 353.609108 
L 826.879072 350.38293 
L 827.840828 345.535551 
L 829.283461 337.023392 
L 834.09224 307.663337 
L 835.695166 299.701207 
L 836.977507 294.373672 
L 838.099556 290.525273 
L 839.221604 287.450454 
L 840.18336 285.427044 
L 840.984823 284.164012 
L 841.786286 283.275139 
L 842.587749 282.748115 
L 843.22892 282.577576 
L 843.87009 282.621694 
L 844.511261 282.872107 
L 845.312724 283.461924 
L 846.114187 284.342879 
L 847.075943 285.759038 
L 848.197991 287.866614 
L 849.480332 290.815088 
L 850.922966 294.73368 
L 852.686185 300.248298 
L 854.609696 306.986002 
L 855.250867 256.16964 
L 855.892037 222.317387 
L 856.372915 207.004564 
L 856.6935 201.209805 
L 857.014085 198.72045 
L 857.174378 198.657412 
L 857.334671 199.35225 
L 857.655256 202.928797 
L 857.975841 209.281262 
L 858.456719 223.66345 
L 859.09789 251.106625 
L 859.73906 279.65307 
L 860.700816 308.362409 
L 861.502279 326.213596 
L 862.303742 339.448679 
L 863.105205 348.805289 
L 863.746376 353.933791 
L 864.387546 357.284943 
L 864.868424 358.789487 
L 865.349302 359.540428 
L 865.669887 359.66765 
L 865.990472 359.525594 
L 866.311058 359.137868 
L 866.791936 358.143942 
L 867.433106 356.155683 
L 868.234569 352.810162 
L 869.356618 346.961361 
L 870.959544 337.24265 
L 874.966859 312.531987 
L 876.569786 304.20389 
L 878.012419 297.902763 
L 879.29476 293.338341 
L 880.416809 290.166582 
L 881.378564 288.056431 
L 882.34032 286.49671 
L 883.141783 285.60528 
L 883.943246 285.071984 
L 884.584417 284.893752 
L 885.225587 284.927819 
L 885.866758 285.165864 
L 886.668221 285.737044 
L 887.469684 286.595956 
L 888.43144 287.981385 
L 889.553488 290.047593 
L 890.835829 292.942151 
L 892.278463 296.7926 
L 894.041682 302.214833 
L 894.362267 303.273078 
L 895.003438 253.123712 
L 895.644608 219.877583 
L 896.125486 204.982471 
L 896.446071 199.449749 
L 896.766656 197.209948 
L 896.926949 197.267178 
L 897.087242 198.079367 
L 897.407827 201.882124 
L 897.888705 212.720065 
L 898.369583 229.243458 
L 899.010753 259.255033 
L 899.331338 273.934279 
L 900.293094 303.719954 
L 901.094557 322.301384 
L 901.89602 336.13702 
L 902.697484 345.982504 
L 903.338654 351.432447 
L 903.979825 355.051031 
L 904.460702 356.724667 
L 904.94158 357.620533 
L 905.262166 357.832102 
L 905.582751 357.765333 
L 905.903336 357.444447 
L 906.384214 356.536193 
L 907.025384 354.637738 
L 907.826848 351.370654 
L 908.948896 345.580395 
L 910.551822 335.868948 
L 914.559138 310.97474 
L 916.162064 302.546821 
L 917.604698 296.15892 
L 918.887039 291.524292 
L 920.009087 288.298492 
L 920.970843 286.148372 
L 921.932599 284.554987 
L 922.734062 283.640485 
L 923.535525 283.088703 
L 924.176695 282.898975 
L 924.817866 282.924443 
L 925.459036 283.156737 
L 926.260499 283.724642 
L 927.061963 284.584485 
L 928.023718 285.97634 
L 929.145767 288.056949 
L 930.428108 290.976371 
L 931.870741 294.864446 
L 933.63396 300.344739 
L 933.794253 300.877188 
L 933.954545 286.697819 
L 933.954545 286.697819 
" clip-path="url(#p667f77f3d6)" style="fill: none; stroke: #1f77b4; stroke-width: 1.5; stroke-linecap: square"/>
   </g>
   <g id="line2d_13">
    <path d="M 173.045455 78.12 
L 177.693941 78.12 
L 177.854233 430.92 
L 213.278903 430.92 
L 213.439196 78.12 
L 218.087682 78.12 
L 218.247975 430.92 
L 253.99323 430.92 
L 254.153523 78.12 
L 258.802009 78.12 
L 258.962302 430.92 
L 293.585509 430.92 
L 293.745801 78.12 
L 298.394287 78.12 
L 298.55458 430.92 
L 333.818957 430.92 
L 333.97925 78.12 
L 338.627736 78.12 
L 338.788029 430.92 
L 373.090651 430.92 
L 373.250943 78.12 
L 377.899429 78.12 
L 378.059722 430.92 
L 413.644685 430.92 
L 413.804977 78.12 
L 418.453463 78.12 
L 418.613756 430.92 
L 453.557548 430.92 
L 453.717841 78.12 
L 458.366327 78.12 
L 458.52662 430.92 
L 493.630705 430.92 
L 493.790997 78.12 
L 498.439483 78.12 
L 498.599776 430.92 
L 533.864153 430.92 
L 534.024446 78.12 
L 538.672932 78.12 
L 538.833225 430.92 
L 574.257895 430.92 
L 574.418188 78.12 
L 579.066674 78.12 
L 579.226966 430.92 
L 613.209003 430.92 
L 613.369295 78.12 
L 618.017782 78.12 
L 618.178074 430.92 
L 653.92333 430.92 
L 654.083622 78.12 
L 658.732108 78.12 
L 658.892401 430.92 
L 694.156778 430.92 
L 694.317071 78.12 
L 698.965557 78.12 
L 699.12585 430.92 
L 734.069642 430.92 
L 734.229935 78.12 
L 738.878421 78.12 
L 739.038713 430.92 
L 773.822213 430.92 
L 773.982506 78.12 
L 778.630992 78.12 
L 778.791284 430.92 
L 813.414491 430.92 
L 813.574784 78.12 
L 818.22327 78.12 
L 818.383563 430.92 
L 854.609696 430.92 
L 854.769989 78.12 
L 859.418475 78.12 
L 859.578767 430.92 
L 894.362267 430.92 
L 894.52256 78.12 
L 899.171046 78.12 
L 899.331338 430.92 
L 933.794253 430.92 
L 933.954545 78.12 
L 933.954545 78.12 
" clip-path="url(#p667f77f3d6)" style="fill: none; stroke: #ff7f0e; stroke-width: 1.5; stroke-linecap: square"/>
   </g>
   <g id="line2d_14">
    <path d="M 929.466352 430.92 
" clip-path="url(#p667f77f3d6)" style="fill: none; stroke: #000000; stroke-width: 1.5; stroke-linecap: square"/>
    <defs>
     <path id="m02b44dd49b" d="M 0 1 
C 0.265203 1 0.51958 0.894634 0.707107 0.707107 
C 0.894634 0.51958 1 0.265203 1 0 
C 1 -0.265203 0.894634 -0.51958 0.707107 -0.707107 
C 0.51958 -0.894634 0.265203 -1 0 -1 
C -0.265203 -1 -0.51958 -0.894634 -0.707107 -0.707107 
C -0.894634 -0.51958 -1 -0.265203 -1 0 
C -1 0.265203 -0.894634 0.51958 -0.707107 0.707107 
C -0.51958 0.894634 -0.265203 1 0 1 
z
" style="stroke: #000000"/>
    </defs>
    <g clip-path="url(#p667f77f3d6)">
     <use xlink:href="#m02b44dd49b" x="173.045455" y="78.12" style="stroke: #000000"/>
     <use xlink:href="#m02b44dd49b" x="178.174819" y="430.92" style="stroke: #000000"/>
     <use xlink:href="#m02b44dd49b" x="183.14389" y="430.92" style="stroke: #000000"/>
     <use xlink:href="#m02b44dd49b" x="188.112961" y="78.12" style="stroke: #000000"/>
     <use xlink:href="#m02b44dd49b" x="193.082033" y="430.92" style="stroke: #000000"/>
     <use xlink:href="#m02b44dd49b" x="198.211397" y="430.92" style="stroke: #000000"/>
     <use xlink:href="#m02b44dd49b" x="203.180468" y="78.12" style="stroke: #000000"/>
     <use xlink:href="#m02b44dd49b" x="208.149539" y="430.92" style="stroke: #000000"/>
     <use xlink:href="#m02b44dd49b" x="213.118611" y="78.12" style="stroke: #000000"/>
     <use xlink:href="#m02b44dd49b" x="218.247975" y="430.92" style="stroke: #000000"/>
     <use xlink:href="#m02b44dd49b" x="223.217046" y="430.92" style="stroke: #000000"/>
     <use xlink:href="#m02b44dd49b" x="228.186118" y="78.12" style="stroke: #000000"/>
     <use xlink:href="#m02b44dd49b" x="233.155189" y="430.92" style="stroke: #000000"/>
     <use xlink:href="#m02b44dd49b" x="238.284553" y="430.92" style="stroke: #000000"/>
     <use xlink:href="#m02b44dd49b" x="243.253624" y="78.12" style="stroke: #000000"/>
     <use xlink:href="#m02b44dd49b" x="248.222696" y="430.92" style="stroke: #000000"/>
     <use xlink:href="#m02b44dd49b" x="253.191767" y="78.12" style="stroke: #000000"/>
     <use xlink:href="#m02b44dd49b" x="258.321131" y="430.92" style="stroke: #000000"/>
     <use xlink:href="#m02b44dd49b" x="263.290202" y="430.92" style="stroke: #000000"/>
     <use xlink:href="#m02b44dd49b" x="268.259274" y="78.12" style="stroke: #000000"/>
     <use xlink:href="#m02b44dd49b" x="273.228345" y="430.92" style="stroke: #000000"/>
     <use xlink:href="#m02b44dd49b" x="278.357709" y="430.92" style="stroke: #000000"/>
     <use xlink:href="#m02b44dd49b" x="283.326781" y="78.12" style="stroke: #000000"/>
     <use xlink:href="#m02b44dd49b" x="288.295852" y="430.92" style="stroke: #000000"/>
     <use xlink:href="#m02b44dd49b" x="293.264923" y="78.12" style="stroke: #000000"/>
     <use xlink:href="#m02b44dd49b" x="298.394287" y="430.92" style="stroke: #000000"/>
     <use xlink:href="#m02b44dd49b" x="303.363359" y="430.92" style="stroke: #000000"/>
     <use xlink:href="#m02b44dd49b" x="308.33243" y="78.12" style="stroke: #000000"/>
     <use xlink:href="#m02b44dd49b" x="313.301501" y="430.92" style="stroke: #000000"/>
     <use xlink:href="#m02b44dd49b" x="318.430865" y="430.92" style="stroke: #000000"/>
     <use xlink:href="#m02b44dd49b" x="323.399937" y="78.12" style="stroke: #000000"/>
     <use xlink:href="#m02b44dd49b" x="328.369008" y="430.92" style="stroke: #000000"/>
     <use xlink:href="#m02b44dd49b" x="333.33808" y="78.12" style="stroke: #000000"/>
     <use xlink:href="#m02b44dd49b" x="338.467444" y="430.92" style="stroke: #000000"/>
     <use xlink:href="#m02b44dd49b" x="343.436515" y="430.92" style="stroke: #000000"/>
     <use xlink:href="#m02b44dd49b" x="348.405586" y="78.12" style="stroke: #000000"/>
     <use xlink:href="#m02b44dd49b" x="353.374658" y="430.92" style="stroke: #000000"/>
     <use xlink:href="#m02b44dd49b" x="358.504022" y="430.92" style="stroke: #000000"/>
     <use xlink:href="#m02b44dd49b" x="363.473093" y="78.12" style="stroke: #000000"/>
     <use xlink:href="#m02b44dd49b" x="368.442164" y="430.92" style="stroke: #000000"/>
     <use xlink:href="#m02b44dd49b" x="373.411236" y="78.12" style="stroke: #000000"/>
     <use xlink:href="#m02b44dd49b" x="378.5406" y="430.92" style="stroke: #000000"/>
     <use xlink:href="#m02b44dd49b" x="383.509671" y="430.92" style="stroke: #000000"/>
     <use xlink:href="#m02b44dd49b" x="388.478743" y="78.12" style="stroke: #000000"/>
     <use xlink:href="#m02b44dd49b" x="393.447814" y="430.92" style="stroke: #000000"/>
     <use xlink:href="#m02b44dd49b" x="398.577178" y="430.92" style="stroke: #000000"/>
     <use xlink:href="#m02b44dd49b" x="403.546249" y="78.12" style="stroke: #000000"/>
     <use xlink:href="#m02b44dd49b" x="408.515321" y="430.92" style="stroke: #000000"/>
     <use xlink:href="#m02b44dd49b" x="413.484392" y="78.12" style="stroke: #000000"/>
     <use xlink:href="#m02b44dd49b" x="418.613756" y="430.92" style="stroke: #000000"/>
     <use xlink:href="#m02b44dd49b" x="423.582827" y="430.92" style="stroke: #000000"/>
     <use xlink:href="#m02b44dd49b" x="428.551899" y="78.12" style="stroke: #000000"/>
     <use xlink:href="#m02b44dd49b" x="433.52097" y="430.92" style="stroke: #000000"/>
     <use xlink:href="#m02b44dd49b" x="438.650334" y="430.92" style="stroke: #000000"/>
     <use xlink:href="#m02b44dd49b" x="443.619406" y="78.12" style="stroke: #000000"/>
     <use xlink:href="#m02b44dd49b" x="448.588477" y="430.92" style="stroke: #000000"/>
     <use xlink:href="#m02b44dd49b" x="453.557548" y="78.12" style="stroke: #000000"/>
     <use xlink:href="#m02b44dd49b" x="458.686912" y="430.92" style="stroke: #000000"/>
     <use xlink:href="#m02b44dd49b" x="463.655984" y="430.92" style="stroke: #000000"/>
     <use xlink:href="#m02b44dd49b" x="468.625055" y="78.12" style="stroke: #000000"/>
     <use xlink:href="#m02b44dd49b" x="473.594126" y="430.92" style="stroke: #000000"/>
     <use xlink:href="#m02b44dd49b" x="478.72349" y="430.92" style="stroke: #000000"/>
     <use xlink:href="#m02b44dd49b" x="483.692562" y="78.12" style="stroke: #000000"/>
     <use xlink:href="#m02b44dd49b" x="488.661633" y="430.92" style="stroke: #000000"/>
     <use xlink:href="#m02b44dd49b" x="493.630705" y="78.12" style="stroke: #000000"/>
     <use xlink:href="#m02b44dd49b" x="498.760069" y="430.92" style="stroke: #000000"/>
     <use xlink:href="#m02b44dd49b" x="503.72914" y="430.92" style="stroke: #000000"/>
     <use xlink:href="#m02b44dd49b" x="508.698211" y="78.12" style="stroke: #000000"/>
     <use xlink:href="#m02b44dd49b" x="513.667283" y="430.92" style="stroke: #000000"/>
     <use xlink:href="#m02b44dd49b" x="518.796647" y="430.92" style="stroke: #000000"/>
     <use xlink:href="#m02b44dd49b" x="523.765718" y="78.12" style="stroke: #000000"/>
     <use xlink:href="#m02b44dd49b" x="528.734789" y="430.92" style="stroke: #000000"/>
     <use xlink:href="#m02b44dd49b" x="533.703861" y="78.12" style="stroke: #000000"/>
     <use xlink:href="#m02b44dd49b" x="538.833225" y="430.92" style="stroke: #000000"/>
     <use xlink:href="#m02b44dd49b" x="543.802296" y="430.92" style="stroke: #000000"/>
     <use xlink:href="#m02b44dd49b" x="548.771368" y="78.12" style="stroke: #000000"/>
     <use xlink:href="#m02b44dd49b" x="553.740439" y="430.92" style="stroke: #000000"/>
     <use xlink:href="#m02b44dd49b" x="558.869803" y="430.92" style="stroke: #000000"/>
     <use xlink:href="#m02b44dd49b" x="563.838874" y="78.12" style="stroke: #000000"/>
     <use xlink:href="#m02b44dd49b" x="568.807946" y="430.92" style="stroke: #000000"/>
     <use xlink:href="#m02b44dd49b" x="573.777017" y="78.12" style="stroke: #000000"/>
     <use xlink:href="#m02b44dd49b" x="578.906381" y="430.92" style="stroke: #000000"/>
     <use xlink:href="#m02b44dd49b" x="583.875452" y="430.92" style="stroke: #000000"/>
     <use xlink:href="#m02b44dd49b" x="588.844524" y="78.12" style="stroke: #000000"/>
     <use xlink:href="#m02b44dd49b" x="593.813595" y="430.92" style="stroke: #000000"/>
     <use xlink:href="#m02b44dd49b" x="598.942959" y="430.92" style="stroke: #000000"/>
     <use xlink:href="#m02b44dd49b" x="603.912031" y="78.12" style="stroke: #000000"/>
     <use xlink:href="#m02b44dd49b" x="608.881102" y="430.92" style="stroke: #000000"/>
     <use xlink:href="#m02b44dd49b" x="613.850173" y="78.12" style="stroke: #000000"/>
     <use xlink:href="#m02b44dd49b" x="618.979537" y="430.92" style="stroke: #000000"/>
     <use xlink:href="#m02b44dd49b" x="623.948609" y="430.92" style="stroke: #000000"/>
     <use xlink:href="#m02b44dd49b" x="628.91768" y="78.12" style="stroke: #000000"/>
     <use xlink:href="#m02b44dd49b" x="633.886751" y="430.92" style="stroke: #000000"/>
     <use xlink:href="#m02b44dd49b" x="639.016115" y="430.92" style="stroke: #000000"/>
     <use xlink:href="#m02b44dd49b" x="643.985187" y="78.12" style="stroke: #000000"/>
     <use xlink:href="#m02b44dd49b" x="648.954258" y="430.92" style="stroke: #000000"/>
     <use xlink:href="#m02b44dd49b" x="653.92333" y="78.12" style="stroke: #000000"/>
     <use xlink:href="#m02b44dd49b" x="659.052694" y="430.92" style="stroke: #000000"/>
     <use xlink:href="#m02b44dd49b" x="664.021765" y="430.92" style="stroke: #000000"/>
     <use xlink:href="#m02b44dd49b" x="668.990836" y="78.12" style="stroke: #000000"/>
     <use xlink:href="#m02b44dd49b" x="673.959908" y="430.92" style="stroke: #000000"/>
     <use xlink:href="#m02b44dd49b" x="679.089272" y="430.92" style="stroke: #000000"/>
     <use xlink:href="#m02b44dd49b" x="684.058343" y="78.12" style="stroke: #000000"/>
     <use xlink:href="#m02b44dd49b" x="689.027414" y="430.92" style="stroke: #000000"/>
     <use xlink:href="#m02b44dd49b" x="693.996486" y="78.12" style="stroke: #000000"/>
     <use xlink:href="#m02b44dd49b" x="699.12585" y="430.92" style="stroke: #000000"/>
     <use xlink:href="#m02b44dd49b" x="704.094921" y="430.92" style="stroke: #000000"/>
     <use xlink:href="#m02b44dd49b" x="709.063993" y="78.12" style="stroke: #000000"/>
     <use xlink:href="#m02b44dd49b" x="714.033064" y="430.92" style="stroke: #000000"/>
     <use xlink:href="#m02b44dd49b" x="719.162428" y="430.92" style="stroke: #000000"/>
     <use xlink:href="#m02b44dd49b" x="724.131499" y="78.12" style="stroke: #000000"/>
     <use xlink:href="#m02b44dd49b" x="729.100571" y="430.92" style="stroke: #000000"/>
     <use xlink:href="#m02b44dd49b" x="734.069642" y="78.12" style="stroke: #000000"/>
     <use xlink:href="#m02b44dd49b" x="739.199006" y="430.92" style="stroke: #000000"/>
     <use xlink:href="#m02b44dd49b" x="744.168077" y="430.92" style="stroke: #000000"/>
     <use xlink:href="#m02b44dd49b" x="749.137149" y="78.12" style="stroke: #000000"/>
     <use xlink:href="#m02b44dd49b" x="754.10622" y="430.92" style="stroke: #000000"/>
     <use xlink:href="#m02b44dd49b" x="759.235584" y="430.92" style="stroke: #000000"/>
     <use xlink:href="#m02b44dd49b" x="764.204656" y="78.12" style="stroke: #000000"/>
     <use xlink:href="#m02b44dd49b" x="769.173727" y="430.92" style="stroke: #000000"/>
     <use xlink:href="#m02b44dd49b" x="774.142798" y="78.12" style="stroke: #000000"/>
     <use xlink:href="#m02b44dd49b" x="779.272162" y="430.92" style="stroke: #000000"/>
     <use xlink:href="#m02b44dd49b" x="784.241234" y="430.92" style="stroke: #000000"/>
     <use xlink:href="#m02b44dd49b" x="789.210305" y="78.12" style="stroke: #000000"/>
     <use xlink:href="#m02b44dd49b" x="794.179376" y="430.92" style="stroke: #000000"/>
     <use xlink:href="#m02b44dd49b" x="799.30874" y="430.92" style="stroke: #000000"/>
     <use xlink:href="#m02b44dd49b" x="804.277812" y="78.12" style="stroke: #000000"/>
     <use xlink:href="#m02b44dd49b" x="809.246883" y="430.92" style="stroke: #000000"/>
     <use xlink:href="#m02b44dd49b" x="814.215955" y="78.12" style="stroke: #000000"/>
     <use xlink:href="#m02b44dd49b" x="819.345319" y="430.92" style="stroke: #000000"/>
     <use xlink:href="#m02b44dd49b" x="824.31439" y="430.92" style="stroke: #000000"/>
     <use xlink:href="#m02b44dd49b" x="829.283461" y="78.12" style="stroke: #000000"/>
     <use xlink:href="#m02b44dd49b" x="834.252533" y="430.92" style="stroke: #000000"/>
     <use xlink:href="#m02b44dd49b" x="839.381897" y="430.92" style="stroke: #000000"/>
     <use xlink:href="#m02b44dd49b" x="844.350968" y="78.12" style="stroke: #000000"/>
     <use xlink:href="#m02b44dd49b" x="849.320039" y="430.92" style="stroke: #000000"/>
     <use xlink:href="#m02b44dd49b" x="854.289111" y="78.12" style="stroke: #000000"/>
     <use xlink:href="#m02b44dd49b" x="859.418475" y="430.92" style="stroke: #000000"/>
     <use xlink:href="#m02b44dd49b" x="864.387546" y="430.92" style="stroke: #000000"/>
     <use xlink:href="#m02b44dd49b" x="869.356618" y="78.12" style="stroke: #000000"/>
     <use xlink:href="#m02b44dd49b" x="874.325689" y="430.92" style="stroke: #000000"/>
     <use xlink:href="#m02b44dd49b" x="879.455053" y="430.92" style="stroke: #000000"/>
     <use xlink:href="#m02b44dd49b" x="884.424124" y="78.12" style="stroke: #000000"/>
     <use xlink:href="#m02b44dd49b" x="889.393196" y="430.92" style="stroke: #000000"/>
     <use xlink:href="#m02b44dd49b" x="894.362267" y="78.12" style="stroke: #000000"/>
     <use xlink:href="#m02b44dd49b" x="899.491631" y="430.92" style="stroke: #000000"/>
     <use xlink:href="#m02b44dd49b" x="904.460702" y="430.92" style="stroke: #000000"/>
     <use xlink:href="#m02b44dd49b" x="909.429774" y="78.12" style="stroke: #000000"/>
     <use xlink:href="#m02b44dd49b" x="914.398845" y="430.92" style="stroke: #000000"/>
     <use xlink:href="#m02b44dd49b" x="919.528209" y="430.92" style="stroke: #000000"/>
     <use xlink:href="#m02b44dd49b" x="924.497281" y="78.12" style="stroke: #000000"/>
     <use xlink:href="#m02b44dd49b" x="929.466352" y="430.92" style="stroke: #000000"/>
    </g>
   </g>
   <g id="patch_3">
    <path d="M 135 448.56 
L 135 60.48 
" style="fill: none; stroke: #000000; stroke-width: 0.8; stroke-linejoin: miter; stroke-linecap: square"/>
   </g>
   <g id="patch_4">
    <path d="M 972 448.56 
L 972 60.48 
" style="fill: none; stroke: #000000; stroke-width: 0.8; stroke-linejoin: miter; stroke-linecap: square"/>
   </g>
   <g id="patch_5">
    <path d="M 135 448.56 
L 972 448.56 
" style="fill: none; stroke: #000000; stroke-width: 0.8; stroke-linejoin: miter; stroke-linecap: square"/>
   </g>
   <g id="patch_6">
    <path d="M 135 60.48 
L 972 60.48 
" style="fill: none; stroke: #000000; stroke-width: 0.8; stroke-linejoin: miter; stroke-linecap: square"/>
   </g>
   <g id="legend_1">
    <g id="patch_7">
     <path d="M 142 278.315313 
L 211.084375 278.315313 
Q 213.084375 278.315313 213.084375 276.315313 
L 213.084375 232.724688 
Q 213.084375 230.724688 211.084375 230.724688 
L 142 230.724688 
Q 140 230.724688 140 232.724688 
L 140 276.315313 
Q 140 278.315313 142 278.315313 
z
" style="fill: #ffffff; opacity: 0.8; stroke: #cccccc; stroke-linejoin: miter"/>
    </g>
    <g id="line2d_15">
     <path d="M 144 238.823125 
L 154 238.823125 
L 164 238.823125 
" style="fill: none; stroke: #1f77b4; stroke-width: 1.5; stroke-linecap: square"/>
    </g>
    <g id="text_13">
     <!-- nw_0 -->
     <g transform="translate(172 242.323125) scale(0.1 -0.1)">
      <defs>
       <path id="DejaVuSans-6e" d="M 3513 2113 
L 3513 0 
L 2938 0 
L 2938 2094 
Q 2938 2591 2744 2837 
Q 2550 3084 2163 3084 
Q 1697 3084 1428 2787 
Q 1159 2491 1159 1978 
L 1159 0 
L 581 0 
L 581 3500 
L 1159 3500 
L 1159 2956 
Q 1366 3272 1645 3428 
Q 1925 3584 2291 3584 
Q 2894 3584 3203 3211 
Q 3513 2838 3513 2113 
z
" transform="scale(0.015625)"/>
       <path id="DejaVuSans-77" d="M 269 3500 
L 844 3500 
L 1563 769 
L 2278 3500 
L 2956 3500 
L 3675 769 
L 4391 3500 
L 4966 3500 
L 4050 0 
L 3372 0 
L 2619 2869 
L 1863 0 
L 1184 0 
L 269 3500 
z
" transform="scale(0.015625)"/>
       <path id="DejaVuSans-5f" d="M 3263 -1063 
L 3263 -1509 
L -63 -1509 
L -63 -1063 
L 3263 -1063 
z
" transform="scale(0.015625)"/>
      </defs>
      <use xlink:href="#DejaVuSans-6e"/>
      <use xlink:href="#DejaVuSans-77" x="63.378906"/>
      <use xlink:href="#DejaVuSans-5f" x="145.166016"/>
      <use xlink:href="#DejaVuSans-30" x="195.166016"/>
     </g>
    </g>
    <g id="line2d_16">
     <path d="M 144 253.779375 
L 154 253.779375 
L 164 253.779375 
" style="fill: none; stroke: #ff7f0e; stroke-width: 1.5; stroke-linecap: square"/>
    </g>
    <g id="text_14">
     <!-- input_0 -->
     <g transform="translate(172 257.279375) scale(0.1 -0.1)">
      <defs>
       <path id="DejaVuSans-69" d="M 603 3500 
L 1178 3500 
L 1178 0 
L 603 0 
L 603 3500 
z
M 603 4863 
L 1178 4863 
L 1178 4134 
L 603 4134 
L 603 4863 
z
" transform="scale(0.015625)"/>
       <path id="DejaVuSans-70" d="M 1159 525 
L 1159 -1331 
L 581 -1331 
L 581 3500 
L 1159 3500 
L 1159 2969 
Q 1341 3281 1617 3432 
Q 1894 3584 2278 3584 
Q 2916 3584 3314 3078 
Q 3713 2572 3713 1747 
Q 3713 922 3314 415 
Q 2916 -91 2278 -91 
Q 1894 -91 1617 61 
Q 1341 213 1159 525 
z
M 3116 1747 
Q 3116 2381 2855 2742 
Q 2594 3103 2138 3103 
Q 1681 3103 1420 2742 
Q 1159 2381 1159 1747 
Q 1159 1113 1420 752 
Q 1681 391 2138 391 
Q 2594 391 2855 752 
Q 3116 1113 3116 1747 
z
" transform="scale(0.015625)"/>
       <path id="DejaVuSans-75" d="M 544 1381 
L 544 3500 
L 1119 3500 
L 1119 1403 
Q 1119 906 1312 657 
Q 1506 409 1894 409 
Q 2359 409 2629 706 
Q 2900 1003 2900 1516 
L 2900 3500 
L 3475 3500 
L 3475 0 
L 2900 0 
L 2900 538 
Q 2691 219 2414 64 
Q 2138 -91 1772 -91 
Q 1169 -91 856 284 
Q 544 659 544 1381 
z
M 1991 3584 
L 1991 3584 
z
" transform="scale(0.015625)"/>
      </defs>
      <use xlink:href="#DejaVuSans-69"/>
      <use xlink:href="#DejaVuSans-6e" x="27.783203"/>
      <use xlink:href="#DejaVuSans-70" x="91.162109"/>
      <use xlink:href="#DejaVuSans-75" x="154.638672"/>
      <use xlink:href="#DejaVuSans-74" x="218.017578"/>
      <use xlink:href="#DejaVuSans-5f" x="257.226562"/>
      <use xlink:href="#DejaVuSans-30" x="307.226562"/>
     </g>
    </g>
    <g id="line2d_17">
     <path d="M 144 268.735625 
L 154 268.735625 
L 164 268.735625 
" style="fill: none; stroke: #000000; stroke-width: 1.5; stroke-linecap: square"/>
     <g>
      <use xlink:href="#m02b44dd49b" x="154" y="268.735625" style="stroke: #000000"/>
     </g>
    </g>
    <g id="text_15">
     <!-- target -->
     <g transform="translate(172 272.235625) scale(0.1 -0.1)">
      <defs>
       <path id="DejaVuSans-61" d="M 2194 1759 
Q 1497 1759 1228 1600 
Q 959 1441 959 1056 
Q 959 750 1161 570 
Q 1363 391 1709 391 
Q 2188 391 2477 730 
Q 2766 1069 2766 1631 
L 2766 1759 
L 2194 1759 
z
M 3341 1997 
L 3341 0 
L 2766 0 
L 2766 531 
Q 2569 213 2275 61 
Q 1981 -91 1556 -91 
Q 1019 -91 701 211 
Q 384 513 384 1019 
Q 384 1609 779 1909 
Q 1175 2209 1959 2209 
L 2766 2209 
L 2766 2266 
Q 2766 2663 2505 2880 
Q 2244 3097 1772 3097 
Q 1472 3097 1187 3025 
Q 903 2953 641 2809 
L 641 3341 
Q 956 3463 1253 3523 
Q 1550 3584 1831 3584 
Q 2591 3584 2966 3190 
Q 3341 2797 3341 1997 
z
" transform="scale(0.015625)"/>
       <path id="DejaVuSans-72" d="M 2631 2963 
Q 2534 3019 2420 3045 
Q 2306 3072 2169 3072 
Q 1681 3072 1420 2755 
Q 1159 2438 1159 1844 
L 1159 0 
L 581 0 
L 581 3500 
L 1159 3500 
L 1159 2956 
Q 1341 3275 1631 3429 
Q 1922 3584 2338 3584 
Q 2397 3584 2469 3576 
Q 2541 3569 2628 3553 
L 2631 2963 
z
" transform="scale(0.015625)"/>
       <path id="DejaVuSans-67" d="M 2906 1791 
Q 2906 2416 2648 2759 
Q 2391 3103 1925 3103 
Q 1463 3103 1205 2759 
Q 947 2416 947 1791 
Q 947 1169 1205 825 
Q 1463 481 1925 481 
Q 2391 481 2648 825 
Q 2906 1169 2906 1791 
z
M 3481 434 
Q 3481 -459 3084 -895 
Q 2688 -1331 1869 -1331 
Q 1566 -1331 1297 -1286 
Q 1028 -1241 775 -1147 
L 775 -588 
Q 1028 -725 1275 -790 
Q 1522 -856 1778 -856 
Q 2344 -856 2625 -561 
Q 2906 -266 2906 331 
L 2906 616 
Q 2728 306 2450 153 
Q 2172 0 1784 0 
Q 1141 0 747 490 
Q 353 981 353 1791 
Q 353 2603 747 3093 
Q 1141 3584 1784 3584 
Q 2172 3584 2450 3431 
Q 2728 3278 2906 2969 
L 2906 3500 
L 3481 3500 
L 3481 434 
z
" transform="scale(0.015625)"/>
       <path id="DejaVuSans-65" d="M 3597 1894 
L 3597 1613 
L 953 1613 
Q 991 1019 1311 708 
Q 1631 397 2203 397 
Q 2534 397 2845 478 
Q 3156 559 3463 722 
L 3463 178 
Q 3153 47 2828 -22 
Q 2503 -91 2169 -91 
Q 1331 -91 842 396 
Q 353 884 353 1716 
Q 353 2575 817 3079 
Q 1281 3584 2069 3584 
Q 2775 3584 3186 3129 
Q 3597 2675 3597 1894 
z
M 3022 2063 
Q 3016 2534 2758 2815 
Q 2500 3097 2075 3097 
Q 1594 3097 1305 2825 
Q 1016 2553 972 2059 
L 3022 2063 
z
" transform="scale(0.015625)"/>
      </defs>
      <use xlink:href="#DejaVuSans-74"/>
      <use xlink:href="#DejaVuSans-61" x="39.208984"/>
      <use xlink:href="#DejaVuSans-72" x="100.488281"/>
      <use xlink:href="#DejaVuSans-67" x="139.851562"/>
      <use xlink:href="#DejaVuSans-65" x="203.328125"/>
      <use xlink:href="#DejaVuSans-74" x="264.851562"/>
     </g>
    </g>
   </g>
  </g>
 </g>
 <defs>
  <clipPath id="p667f77f3d6">
   <rect x="135" y="60.48" width="837" height="388.08"/>
  </clipPath>
 </defs>
</svg>
