<?xml version="1.0" encoding="utf-8" standalone="no"?>
<!DOCTYPE svg PUBLIC "-//W3C//DTD SVG 1.1//EN"
  "http://www.w3.org/Graphics/SVG/1.1/DTD/svg11.dtd">
<svg xmlns:xlink="http://www.w3.org/1999/xlink" width="1080pt" height="504pt" viewBox="0 0 1080 504" xmlns="http://www.w3.org/2000/svg" version="1.1">
 <metadata>
  <rdf:RDF xmlns:dc="http://purl.org/dc/elements/1.1/" xmlns:cc="http://creativecommons.org/ns#" xmlns:rdf="http://www.w3.org/1999/02/22-rdf-syntax-ns#">
   <cc:Work>
    <dc:type rdf:resource="http://purl.org/dc/dcmitype/StillImage"/>
    <dc:date>2024-05-09T11:02:39.081079</dc:date>
    <dc:format>image/svg+xml</dc:format>
    <dc:creator>
     <cc:Agent>
      <dc:title>Matplotlib v3.7.1, https://matplotlib.org/</dc:title>
     </cc:Agent>
    </dc:creator>
   </cc:Work>
  </rdf:RDF>
 </metadata>
 <defs>
  <style type="text/css">*{stroke-linejoin: round; stroke-linecap: butt}</style>
 </defs>
 <g id="figure_1">
  <g id="patch_1">
   <path d="M 0 504 
L 1080 504 
L 1080 0 
L 0 0 
z
" style="fill: #ffffff"/>
  </g>
  <g id="axes_1">
   <g id="patch_2">
    <path d="M 135 448.56 
L 972 448.56 
L 972 60.48 
L 135 60.48 
z
" style="fill: #ffffff"/>
   </g>
   <g id="matplotlib.axis_1">
    <g id="xtick_1">
     <g id="line2d_1">
      <defs>
       <path id="m04738690c5" d="M 0 0 
L 0 3.5 
" style="stroke: #000000; stroke-width: 0.8"/>
      </defs>
      <g>
       <use xlink:href="#m04738690c5" x="173.045455" y="448.56" style="stroke: #000000; stroke-width: 0.8"/>
      </g>
     </g>
     <g id="text_1">
      <!-- 0 -->
      <g transform="translate(169.864205 463.158437) scale(0.1 -0.1)">
       <defs>
        <path id="DejaVuSans-30" d="M 2034 4250 
Q 1547 4250 1301 3770 
Q 1056 3291 1056 2328 
Q 1056 1369 1301 889 
Q 1547 409 2034 409 
Q 2525 409 2770 889 
Q 3016 1369 3016 2328 
Q 3016 3291 2770 3770 
Q 2525 4250 2034 4250 
z
M 2034 4750 
Q 2819 4750 3233 4129 
Q 3647 3509 3647 2328 
Q 3647 1150 3233 529 
Q 2819 -91 2034 -91 
Q 1250 -91 836 529 
Q 422 1150 422 2328 
Q 422 3509 836 4129 
Q 1250 4750 2034 4750 
z
" transform="scale(0.015625)"/>
       </defs>
       <use xlink:href="#DejaVuSans-30"/>
      </g>
     </g>
    </g>
    <g id="xtick_2">
     <g id="line2d_2">
      <g>
       <use xlink:href="#m04738690c5" x="333.33808" y="448.56" style="stroke: #000000; stroke-width: 0.8"/>
      </g>
     </g>
     <g id="text_2">
      <!-- 1000 -->
      <g transform="translate(320.61308 463.158437) scale(0.1 -0.1)">
       <defs>
        <path id="DejaVuSans-31" d="M 794 531 
L 1825 531 
L 1825 4091 
L 703 3866 
L 703 4441 
L 1819 4666 
L 2450 4666 
L 2450 531 
L 3481 531 
L 3481 0 
L 794 0 
L 794 531 
z
" transform="scale(0.015625)"/>
       </defs>
       <use xlink:href="#DejaVuSans-31"/>
       <use xlink:href="#DejaVuSans-30" x="63.623047"/>
       <use xlink:href="#DejaVuSans-30" x="127.246094"/>
       <use xlink:href="#DejaVuSans-30" x="190.869141"/>
      </g>
     </g>
    </g>
    <g id="xtick_3">
     <g id="line2d_3">
      <g>
       <use xlink:href="#m04738690c5" x="493.630705" y="448.56" style="stroke: #000000; stroke-width: 0.8"/>
      </g>
     </g>
     <g id="text_3">
      <!-- 2000 -->
      <g transform="translate(480.905705 463.158437) scale(0.1 -0.1)">
       <defs>
        <path id="DejaVuSans-32" d="M 1228 531 
L 3431 531 
L 3431 0 
L 469 0 
L 469 531 
Q 828 903 1448 1529 
Q 2069 2156 2228 2338 
Q 2531 2678 2651 2914 
Q 2772 3150 2772 3378 
Q 2772 3750 2511 3984 
Q 2250 4219 1831 4219 
Q 1534 4219 1204 4116 
Q 875 4013 500 3803 
L 500 4441 
Q 881 4594 1212 4672 
Q 1544 4750 1819 4750 
Q 2544 4750 2975 4387 
Q 3406 4025 3406 3419 
Q 3406 3131 3298 2873 
Q 3191 2616 2906 2266 
Q 2828 2175 2409 1742 
Q 1991 1309 1228 531 
z
" transform="scale(0.015625)"/>
       </defs>
       <use xlink:href="#DejaVuSans-32"/>
       <use xlink:href="#DejaVuSans-30" x="63.623047"/>
       <use xlink:href="#DejaVuSans-30" x="127.246094"/>
       <use xlink:href="#DejaVuSans-30" x="190.869141"/>
      </g>
     </g>
    </g>
    <g id="xtick_4">
     <g id="line2d_4">
      <g>
       <use xlink:href="#m04738690c5" x="653.92333" y="448.56" style="stroke: #000000; stroke-width: 0.8"/>
      </g>
     </g>
     <g id="text_4">
      <!-- 3000 -->
      <g transform="translate(641.19833 463.158437) scale(0.1 -0.1)">
       <defs>
        <path id="DejaVuSans-33" d="M 2597 2516 
Q 3050 2419 3304 2112 
Q 3559 1806 3559 1356 
Q 3559 666 3084 287 
Q 2609 -91 1734 -91 
Q 1441 -91 1130 -33 
Q 819 25 488 141 
L 488 750 
Q 750 597 1062 519 
Q 1375 441 1716 441 
Q 2309 441 2620 675 
Q 2931 909 2931 1356 
Q 2931 1769 2642 2001 
Q 2353 2234 1838 2234 
L 1294 2234 
L 1294 2753 
L 1863 2753 
Q 2328 2753 2575 2939 
Q 2822 3125 2822 3475 
Q 2822 3834 2567 4026 
Q 2313 4219 1838 4219 
Q 1578 4219 1281 4162 
Q 984 4106 628 3988 
L 628 4550 
Q 988 4650 1302 4700 
Q 1616 4750 1894 4750 
Q 2613 4750 3031 4423 
Q 3450 4097 3450 3541 
Q 3450 3153 3228 2886 
Q 3006 2619 2597 2516 
z
" transform="scale(0.015625)"/>
       </defs>
       <use xlink:href="#DejaVuSans-33"/>
       <use xlink:href="#DejaVuSans-30" x="63.623047"/>
       <use xlink:href="#DejaVuSans-30" x="127.246094"/>
       <use xlink:href="#DejaVuSans-30" x="190.869141"/>
      </g>
     </g>
    </g>
    <g id="xtick_5">
     <g id="line2d_5">
      <g>
       <use xlink:href="#m04738690c5" x="814.215955" y="448.56" style="stroke: #000000; stroke-width: 0.8"/>
      </g>
     </g>
     <g id="text_5">
      <!-- 4000 -->
      <g transform="translate(801.490955 463.158437) scale(0.1 -0.1)">
       <defs>
        <path id="DejaVuSans-34" d="M 2419 4116 
L 825 1625 
L 2419 1625 
L 2419 4116 
z
M 2253 4666 
L 3047 4666 
L 3047 1625 
L 3713 1625 
L 3713 1100 
L 3047 1100 
L 3047 0 
L 2419 0 
L 2419 1100 
L 313 1100 
L 313 1709 
L 2253 4666 
z
" transform="scale(0.015625)"/>
       </defs>
       <use xlink:href="#DejaVuSans-34"/>
       <use xlink:href="#DejaVuSans-30" x="63.623047"/>
       <use xlink:href="#DejaVuSans-30" x="127.246094"/>
       <use xlink:href="#DejaVuSans-30" x="190.869141"/>
      </g>
     </g>
    </g>
    <g id="text_6">
     <!-- t -->
     <g transform="translate(551.539844 476.836563) scale(0.1 -0.1)">
      <defs>
       <path id="DejaVuSans-74" d="M 1172 4494 
L 1172 3500 
L 2356 3500 
L 2356 3053 
L 1172 3053 
L 1172 1153 
Q 1172 725 1289 603 
Q 1406 481 1766 481 
L 2356 481 
L 2356 0 
L 1766 0 
Q 1100 0 847 248 
Q 594 497 594 1153 
L 594 3053 
L 172 3053 
L 172 3500 
L 594 3500 
L 594 4494 
L 1172 4494 
z
" transform="scale(0.015625)"/>
      </defs>
      <use xlink:href="#DejaVuSans-74"/>
     </g>
    </g>
   </g>
   <g id="matplotlib.axis_2">
    <g id="ytick_1">
     <g id="line2d_6">
      <defs>
       <path id="me3917038b9" d="M 0 0 
L -3.5 0 
" style="stroke: #000000; stroke-width: 0.8"/>
      </defs>
      <g>
       <use xlink:href="#me3917038b9" x="135" y="407.31937" style="stroke: #000000; stroke-width: 0.8"/>
      </g>
     </g>
     <g id="text_7">
      <!-- −5 -->
      <g transform="translate(113.257812 411.118589) scale(0.1 -0.1)">
       <defs>
        <path id="DejaVuSans-2212" d="M 678 2272 
L 4684 2272 
L 4684 1741 
L 678 1741 
L 678 2272 
z
" transform="scale(0.015625)"/>
        <path id="DejaVuSans-35" d="M 691 4666 
L 3169 4666 
L 3169 4134 
L 1269 4134 
L 1269 2991 
Q 1406 3038 1543 3061 
Q 1681 3084 1819 3084 
Q 2600 3084 3056 2656 
Q 3513 2228 3513 1497 
Q 3513 744 3044 326 
Q 2575 -91 1722 -91 
Q 1428 -91 1123 -41 
Q 819 9 494 109 
L 494 744 
Q 775 591 1075 516 
Q 1375 441 1709 441 
Q 2250 441 2565 725 
Q 2881 1009 2881 1497 
Q 2881 1984 2565 2268 
Q 2250 2553 1709 2553 
Q 1456 2553 1204 2497 
Q 953 2441 691 2322 
L 691 4666 
z
" transform="scale(0.015625)"/>
       </defs>
       <use xlink:href="#DejaVuSans-2212"/>
       <use xlink:href="#DejaVuSans-35" x="83.789062"/>
      </g>
     </g>
    </g>
    <g id="ytick_2">
     <g id="line2d_7">
      <g>
       <use xlink:href="#me3917038b9" x="135" y="359.23316" style="stroke: #000000; stroke-width: 0.8"/>
      </g>
     </g>
     <g id="text_8">
      <!-- −4 -->
      <g transform="translate(113.257812 363.032379) scale(0.1 -0.1)">
       <use xlink:href="#DejaVuSans-2212"/>
       <use xlink:href="#DejaVuSans-34" x="83.789062"/>
      </g>
     </g>
    </g>
    <g id="ytick_3">
     <g id="line2d_8">
      <g>
       <use xlink:href="#me3917038b9" x="135" y="311.146951" style="stroke: #000000; stroke-width: 0.8"/>
      </g>
     </g>
     <g id="text_9">
      <!-- −3 -->
      <g transform="translate(113.257812 314.94617) scale(0.1 -0.1)">
       <use xlink:href="#DejaVuSans-2212"/>
       <use xlink:href="#DejaVuSans-33" x="83.789062"/>
      </g>
     </g>
    </g>
    <g id="ytick_4">
     <g id="line2d_9">
      <g>
       <use xlink:href="#me3917038b9" x="135" y="263.060741" style="stroke: #000000; stroke-width: 0.8"/>
      </g>
     </g>
     <g id="text_10">
      <!-- −2 -->
      <g transform="translate(113.257812 266.85996) scale(0.1 -0.1)">
       <use xlink:href="#DejaVuSans-2212"/>
       <use xlink:href="#DejaVuSans-32" x="83.789062"/>
      </g>
     </g>
    </g>
    <g id="ytick_5">
     <g id="line2d_10">
      <g>
       <use xlink:href="#me3917038b9" x="135" y="214.974532" style="stroke: #000000; stroke-width: 0.8"/>
      </g>
     </g>
     <g id="text_11">
      <!-- −1 -->
      <g transform="translate(113.257812 218.77375) scale(0.1 -0.1)">
       <use xlink:href="#DejaVuSans-2212"/>
       <use xlink:href="#DejaVuSans-31" x="83.789062"/>
      </g>
     </g>
    </g>
    <g id="ytick_6">
     <g id="line2d_11">
      <g>
       <use xlink:href="#me3917038b9" x="135" y="166.888322" style="stroke: #000000; stroke-width: 0.8"/>
      </g>
     </g>
     <g id="text_12">
      <!-- 0 -->
      <g transform="translate(121.6375 170.687541) scale(0.1 -0.1)">
       <use xlink:href="#DejaVuSans-30"/>
      </g>
     </g>
    </g>
    <g id="ytick_7">
     <g id="line2d_12">
      <g>
       <use xlink:href="#me3917038b9" x="135" y="118.802113" style="stroke: #000000; stroke-width: 0.8"/>
      </g>
     </g>
     <g id="text_13">
      <!-- 1 -->
      <g transform="translate(121.6375 122.601331) scale(0.1 -0.1)">
       <use xlink:href="#DejaVuSans-31"/>
      </g>
     </g>
    </g>
    <g id="ytick_8">
     <g id="line2d_13">
      <g>
       <use xlink:href="#me3917038b9" x="135" y="70.715903" style="stroke: #000000; stroke-width: 0.8"/>
      </g>
     </g>
     <g id="text_14">
      <!-- 2 -->
      <g transform="translate(121.6375 74.515122) scale(0.1 -0.1)">
       <use xlink:href="#DejaVuSans-32"/>
      </g>
     </g>
    </g>
   </g>
   <g id="line2d_14">
    <path d="M 173.045455 96.382757 
L 173.205747 78.12 
L 173.36604 93.204579 
L 173.846918 217.014709 
L 174.488088 365.222858 
L 174.968966 419.227044 
L 175.289551 430.92 
L 175.449844 430.554258 
L 175.610137 426.504278 
L 175.930722 408.710422 
L 176.4116 363.116314 
L 177.693941 201.889663 
L 178.014526 300.179486 
L 178.174819 318.060311 
L 178.335111 320.902802 
L 178.495404 312.768592 
L 178.815989 277.150469 
L 179.777745 153.746246 
L 180.258623 116.952796 
L 180.739501 97.851337 
L 181.060086 92.927071 
L 181.220378 92.36856 
L 181.380671 92.91396 
L 181.701256 96.900171 
L 182.182134 108.778187 
L 182.823305 132.056615 
L 184.265938 186.544163 
L 184.746816 197.756902 
L 185.227694 203.764706 
L 185.548279 204.879268 
L 185.708572 204.611274 
L 186.029157 202.537497 
L 186.349742 198.600676 
L 186.83062 189.785721 
L 187.632083 170.008329 
L 188.914424 137.702493 
L 189.555595 126.662838 
L 190.036473 121.795524 
L 190.357058 120.224189 
L 190.517351 119.920516 
L 190.677643 119.921914 
L 190.837936 120.213096 
L 191.158521 121.594131 
L 191.639399 125.362128 
L 192.28057 132.637371 
L 194.364374 158.702495 
L 195.005544 163.910357 
L 195.646715 167.257757 
L 196.127593 168.743228 
L 196.60847 169.589644 
L 197.089348 170.011899 
L 197.570226 170.166868 
L 198.051104 170.118776 
L 198.531982 169.829378 
L 199.01286 169.173379 
L 199.493738 167.974451 
L 199.974616 166.053687 
L 200.455493 163.280514 
L 201.096664 158.206942 
L 202.05842 148.289583 
L 203.501053 133.341193 
L 204.142224 129.073528 
L 204.623102 127.462628 
L 204.943687 127.217443 
L 205.10398 127.344413 
L 205.424565 128.08116 
L 205.905443 130.294818 
L 206.546613 134.895128 
L 208.951003 154.727826 
L 209.43188 156.769195 
L 209.752466 157.530196 
L 210.073051 157.797961 
L 210.233344 157.748479 
L 210.553929 157.294175 
L 210.874514 156.390934 
L 211.355392 154.283838 
L 211.996562 150.34555 
L 213.118611 141.724065 
L 213.278903 140.438662 
L 213.599489 90.071686 
L 213.759781 91.697997 
L 214.561244 130.990978 
L 214.721537 132.800091 
L 214.88183 132.664289 
L 215.202415 129.055178 
L 215.683293 122.6453 
L 216.003878 120.600003 
L 216.164171 120.374006 
L 216.324463 120.590163 
L 216.645049 121.935495 
L 217.446512 126.200246 
L 217.92739 127.44213 
L 218.087682 127.66065 
L 218.56856 182.771203 
L 218.889145 196.109846 
L 219.049438 196.700327 
L 219.209731 194.630718 
L 220.492072 166.575905 
L 220.812657 165.172692 
L 220.972949 165.150882 
L 221.293535 165.872761 
L 221.934705 167.82695 
L 222.25529 168.296955 
L 222.575876 168.378651 
L 223.056754 168.08396 
L 223.858217 167.224661 
L 224.339095 166.280483 
L 224.819972 164.621032 
L 225.30085 162.10644 
L 226.102313 156.37948 
L 229.308166 130.907015 
L 229.789044 129.021042 
L 230.109629 128.441601 
L 230.269922 128.371497 
L 230.430214 128.450595 
L 230.7508 129.052843 
L 231.071385 130.222288 
L 231.552263 132.916707 
L 232.353726 139.210653 
L 234.277237 155.301686 
L 234.918408 158.904563 
L 235.559578 161.285069 
L 236.040456 162.38101 
L 236.521334 163.047088 
L 237.162505 163.54542 
L 238.284553 164.073962 
L 238.925723 164.20276 
L 239.406601 164.027714 
L 239.727187 163.686906 
L 240.208064 162.707244 
L 240.688942 161.032172 
L 241.16982 158.57159 
L 241.810991 154.086044 
L 242.772746 145.499629 
L 244.055087 134.259874 
L 244.696258 130.567905 
L 245.177136 129.167948 
L 245.497721 128.959954 
L 245.658014 129.076863 
L 245.978599 129.742453 
L 246.459477 131.745853 
L 247.100647 135.950418 
L 248.382988 146.807093 
L 249.344744 153.892717 
L 249.985915 156.881243 
L 250.3065 157.710839 
L 250.627085 158.071036 
L 250.787378 158.074526 
L 251.107963 157.735169 
L 251.428548 156.952948 
L 251.909426 155.024168 
L 252.550597 151.287897 
L 253.512352 144.117294 
L 253.99323 140.273903 
L 254.313815 91.54944 
L 254.474108 93.154073 
L 255.275571 129.454448 
L 255.435864 130.702557 
L 255.596156 130.140992 
L 256.077034 123.907515 
L 256.39762 120.613941 
L 256.557912 119.936178 
L 256.718205 119.954948 
L 256.878497 120.613195 
L 257.199083 123.40942 
L 258.481424 137.196312 
L 258.802009 138.857177 
L 259.282887 192.938083 
L 259.603472 206.341192 
L 259.763765 206.909299 
L 259.924057 204.738215 
L 260.404935 191.057528 
L 260.885813 178.515933 
L 261.206398 173.607587 
L 261.526984 171.248732 
L 261.847569 170.610481 
L 262.168154 170.803985 
L 262.649032 171.230497 
L 262.969617 171.158478 
L 263.290202 170.782898 
L 264.572543 168.50678 
L 265.053421 167.389629 
L 265.534299 165.65654 
L 266.17547 162.126734 
L 266.976933 156.176747 
L 270.022493 131.84177 
L 270.503371 129.875992 
L 270.823956 129.242606 
L 270.984248 129.146013 
L 271.144541 129.199218 
L 271.465126 129.75216 
L 271.785712 130.876482 
L 272.266589 133.512439 
L 273.068053 139.734616 
L 274.991564 155.762381 
L 275.632735 159.364043 
L 276.273905 161.739599 
L 276.754783 162.822137 
L 277.235661 163.461088 
L 277.876831 163.895936 
L 278.838587 164.204149 
L 279.479758 164.252471 
L 279.960635 164.065327 
L 280.281221 163.748654 
L 280.762099 162.856651 
L 281.242976 161.323803 
L 281.723854 159.040637 
L 282.365025 154.796011 
L 283.326781 146.421878 
L 284.769414 133.716286 
L 285.410585 130.083053 
L 285.891463 128.732098 
L 286.212048 128.556469 
L 286.37234 128.688973 
L 286.692926 129.383829 
L 287.173804 131.42437 
L 287.814974 135.661639 
L 290.379656 155.224017 
L 290.860534 156.938204 
L 291.181119 157.505272 
L 291.501704 157.601672 
L 291.82229 157.235821 
L 292.142875 156.429765 
L 292.623753 154.472211 
L 293.264923 150.714649 
L 293.585509 148.470423 
L 293.906094 93.013493 
L 294.066386 93.192679 
L 294.86785 127.406847 
L 295.028142 128.308354 
L 295.188435 127.367068 
L 296.150191 115.884586 
L 296.310483 116.082299 
L 296.631068 118.683412 
L 297.111946 126.064493 
L 297.913409 138.710578 
L 298.394287 143.481946 
L 298.875165 202.145879 
L 299.19575 217.181001 
L 299.356043 218.052869 
L 299.516336 215.861084 
L 299.997214 200.519167 
L 300.638384 180.856476 
L 301.119262 172.986738 
L 301.439847 170.39087 
L 301.920725 168.565777 
L 302.722188 166.969178 
L 303.363359 166.085074 
L 303.683944 165.91749 
L 304.6457 165.790176 
L 304.966285 165.39421 
L 305.28687 164.624377 
L 305.767748 162.702067 
L 306.408919 158.876617 
L 307.370674 151.35863 
L 309.775064 131.40025 
L 310.255942 129.365653 
L 310.576527 128.747817 
L 310.736819 128.675448 
L 310.897112 128.762459 
L 311.217697 129.406905 
L 311.538283 130.646071 
L 312.01916 133.476437 
L 312.820624 140.01405 
L 314.583842 155.326423 
L 315.225013 159.268593 
L 315.866183 161.967466 
L 316.347061 163.264781 
L 316.827939 164.086675 
L 317.46911 164.710109 
L 318.270573 165.127342 
L 318.911743 165.274352 
L 319.392621 165.176211 
L 319.713206 164.935302 
L 320.033792 164.495507 
L 320.51467 163.352712 
L 320.995547 161.503596 
L 321.636718 157.807862 
L 322.438181 151.351016 
L 324.682278 131.541945 
L 325.163156 129.262626 
L 325.483741 128.442837 
L 325.804326 128.21802 
L 325.964619 128.330338 
L 326.285204 128.993897 
L 326.766082 131.01017 
L 327.407252 135.254774 
L 328.689593 146.223161 
L 329.651349 153.372827 
L 330.29252 156.378951 
L 330.613105 157.20867 
L 330.93369 157.563394 
L 331.093983 157.562191 
L 331.414568 157.209961 
L 331.735153 156.410936 
L 332.216031 154.45185 
L 332.857202 150.671919 
L 333.818957 143.449229 
L 334.139543 91.651962 
L 334.299835 92.424381 
L 335.101298 126.880823 
L 335.261591 127.92872 
L 335.421884 127.204722 
L 336.383639 117.18122 
L 336.543932 117.450602 
L 336.864517 119.960898 
L 337.505688 129.146125 
L 338.146858 137.467244 
L 338.627736 141.124989 
L 339.108614 197.07722 
L 339.429199 211.320232 
L 339.589492 212.060224 
L 339.749785 209.891516 
L 340.230662 195.360206 
L 340.871833 177.758607 
L 341.192418 173.014482 
L 341.513003 170.559951 
L 341.833589 169.566165 
L 342.154174 169.255242 
L 342.795344 168.822147 
L 344.077685 167.465875 
L 344.718856 166.999293 
L 345.039441 166.499742 
L 345.360026 165.667639 
L 345.840904 163.691354 
L 346.482075 159.81094 
L 347.443831 152.283293 
L 349.84822 132.462587 
L 350.329098 130.231505 
L 350.649683 129.436317 
L 350.970268 129.249243 
L 351.130561 129.388165 
L 351.451146 130.121625 
L 351.932024 132.276454 
L 352.573195 136.728145 
L 354.015828 149.477584 
L 354.977584 156.779247 
L 355.618754 160.208802 
L 356.259925 162.422065 
L 356.740803 163.413801 
L 357.221681 163.996336 
L 357.862851 164.400036 
L 358.824607 164.672091 
L 359.465777 164.624663 
L 359.946655 164.296585 
L 360.427533 163.536689 
L 360.908411 162.178638 
L 361.389289 160.094068 
L 362.030459 156.101291 
L 362.831923 149.412633 
L 364.755434 132.434913 
L 365.236312 129.849023 
L 365.71719 128.473498 
L 366.037775 128.287234 
L 366.198068 128.41612 
L 366.518653 129.107017 
L 366.999531 131.149185 
L 367.640701 135.400254 
L 369.083335 147.63525 
L 369.884798 153.365994 
L 370.525969 156.315112 
L 370.846554 157.119694 
L 371.167139 157.45266 
L 371.327432 157.442056 
L 371.648017 157.074303 
L 371.968602 156.264437 
L 372.44948 154.298289 
L 373.090651 150.52598 
L 373.411236 93.042967 
L 373.571528 92.899885 
L 374.372992 127.107863 
L 374.533284 127.969412 
L 374.693577 126.951614 
L 375.655333 114.928963 
L 375.815625 115.126488 
L 376.13621 117.848913 
L 376.617088 125.678805 
L 377.418551 139.408623 
L 377.899429 144.771858 
L 378.380307 205.359157 
L 378.700892 220.95562 
L 378.861185 221.908147 
L 379.021478 219.680553 
L 379.502356 203.692856 
L 380.143526 182.52155 
L 380.624404 173.501177 
L 381.105282 169.186598 
L 381.58616 167.181523 
L 382.22733 165.611799 
L 382.708208 164.911113 
L 383.028793 164.756323 
L 383.349379 164.837844 
L 384.150842 165.257311 
L 384.471427 165.083127 
L 384.792012 164.525237 
L 385.27289 162.884537 
L 385.914061 159.336946 
L 386.715524 153.334602 
L 388.158157 140.277615 
L 389.119913 132.43152 
L 389.600791 129.821058 
L 389.921376 128.789642 
L 390.241961 128.390821 
L 390.402254 128.435512 
L 390.722839 129.007652 
L 391.043425 130.192354 
L 391.524302 132.976186 
L 392.325766 139.526684 
L 394.249277 156.285701 
L 394.890448 160.066811 
L 395.531618 162.613233 
L 396.172789 164.129025 
L 396.813959 164.956636 
L 397.45513 165.421362 
L 398.256593 165.726848 
L 398.737471 165.705623 
L 399.058056 165.536417 
L 399.378641 165.187831 
L 399.859519 164.217541 
L 400.340397 162.573023 
L 400.821275 160.148459 
L 401.462445 155.676521 
L 402.424201 146.906153 
L 403.866835 133.606811 
L 404.508005 129.763476 
L 404.988883 128.292065 
L 405.309468 128.056327 
L 405.469761 128.165096 
L 405.790346 128.825205 
L 406.271224 130.844639 
L 406.912394 135.106003 
L 408.194735 146.129358 
L 409.156491 153.316441 
L 409.797662 156.337626 
L 410.118247 157.171077 
L 410.438832 157.5269 
L 410.599125 157.525275 
L 410.91971 157.170341 
L 411.240295 156.366312 
L 411.721173 154.396032 
L 412.362344 150.596196 
L 413.484392 142.049497 
L 413.644685 140.756871 
L 413.96527 90.910407 
L 414.125563 92.065862 
L 414.927026 127.007544 
L 415.087318 128.162897 
L 415.247611 127.567501 
L 416.209367 118.181334 
L 416.369659 118.452999 
L 416.690245 120.849381 
L 417.331415 129.42387 
L 417.972586 136.910365 
L 418.453463 139.991459 
L 418.934341 194.714341 
L 419.254927 208.557962 
L 419.415219 209.22945 
L 419.575512 207.073707 
L 420.05639 192.983817 
L 420.537268 179.623409 
L 421.018145 172.376862 
L 421.338731 170.483609 
L 421.659316 169.963777 
L 421.979901 170.019845 
L 422.300486 170.109374 
L 422.621072 169.990577 
L 423.10195 169.44779 
L 424.063705 168.287081 
L 424.544583 167.658884 
L 425.025461 166.522401 
L 425.506339 164.590429 
L 426.147509 160.764912 
L 427.109265 153.273927 
L 429.673947 132.429269 
L 430.154825 130.321324 
L 430.47541 129.603262 
L 430.635703 129.4682 
L 430.795996 129.48576 
L 431.116581 129.976325 
L 431.437166 131.050431 
L 431.918044 133.633294 
L 432.559214 138.451435 
L 434.803311 156.942346 
L 435.444482 160.268083 
L 436.085652 162.382197 
L 436.56653 163.306475 
L 437.047408 163.829282 
L 437.688578 164.166729 
L 438.650334 164.368939 
L 439.291505 164.294261 
L 439.772383 163.955668 
L 440.25326 163.193722 
L 440.734138 161.842109 
L 441.215016 159.772427 
L 441.856187 155.812228 
L 442.65765 149.182479 
L 444.581161 132.386848 
L 445.062039 129.842894 
L 445.382624 128.806894 
L 445.70321 128.346066 
L 445.863502 128.336461 
L 446.184088 128.755487 
L 446.504673 129.736516 
L 446.985551 132.15387 
L 447.626721 136.747248 
L 449.870818 154.258521 
L 450.351696 156.292079 
L 450.672281 157.084263 
L 450.992866 157.406671 
L 451.153159 157.391578 
L 451.473744 157.016584 
L 451.794329 156.201925 
L 452.275207 154.233341 
L 452.916378 150.466442 
L 453.557548 145.814599 
L 453.878134 92.395342 
L 454.038426 92.869109 
L 454.839889 126.973313 
L 455.000182 127.924048 
L 455.160475 127.081244 
L 456.12223 116.450898 
L 456.282523 116.713526 
L 456.603108 119.318465 
L 457.244279 129.042192 
L 457.885449 138.107339 
L 458.366327 142.28235 
L 458.847205 199.254503 
L 459.16779 213.853347 
L 459.328083 214.673521 
L 459.488375 212.524087 
L 459.969253 197.743612 
L 460.610424 179.369516 
L 461.091302 172.498669 
L 461.411887 170.4765 
L 461.732472 169.56201 
L 462.854521 167.957967 
L 463.495691 167.153986 
L 464.136862 166.811479 
L 464.617739 166.429716 
L 464.938325 165.856016 
L 465.419203 164.295702 
L 465.90008 161.862832 
L 466.701544 156.308907 
L 467.983885 145.373166 
L 469.266226 134.520162 
L 469.907396 130.749749 
L 470.388274 129.278899 
L 470.708859 129.055114 
L 470.869152 129.177672 
L 471.189737 129.883119 
L 471.670615 132.009164 
L 472.311785 136.448671 
L 473.594126 147.848733 
L 474.555882 155.57979 
L 475.197053 159.378051 
L 475.838223 161.935425 
L 476.319101 163.134232 
L 476.799979 163.867452 
L 477.441149 164.391224 
L 478.242613 164.717104 
L 478.883783 164.818711 
L 479.364661 164.702659 
L 479.685246 164.457382 
L 480.166124 163.711595 
L 480.647002 162.364536 
L 481.12788 160.286889 
L 481.76905 156.295304 
L 482.570513 149.592709 
L 484.494025 132.51625 
L 484.974903 129.898379 
L 485.455781 128.492071 
L 485.776366 128.287044 
L 485.936659 128.407303 
L 486.257244 129.082784 
L 486.738122 131.107221 
L 487.379292 135.346141 
L 488.661633 146.263417 
L 489.623389 153.363034 
L 490.264559 156.340809 
L 490.585145 157.159481 
L 490.90573 157.50573 
L 491.066023 157.50133 
L 491.386608 157.144877 
L 491.707193 156.344571 
L 492.188071 154.388978 
L 492.829241 150.622955 
L 493.630705 144.704006 
L 493.95129 92.040643 
L 494.111582 92.654161 
L 494.913046 126.935039 
L 495.073338 127.934011 
L 495.233631 127.149105 
L 496.195387 116.800687 
L 496.355679 117.063481 
L 496.676264 119.616634 
L 497.317435 129.070947 
L 497.958605 137.77307 
L 498.439483 141.698785 
L 498.920361 198.19846 
L 499.240946 212.624749 
L 499.401239 213.403026 
L 499.561532 211.239685 
L 500.04241 196.560118 
L 500.68358 178.529585 
L 501.164458 171.961188 
L 501.485043 170.126616 
L 501.805628 169.375604 
L 503.72914 167.238644 
L 504.690896 166.576038 
L 505.011481 165.972024 
L 505.492359 164.36478 
L 505.973237 161.889232 
L 506.7747 156.284887 
L 508.057041 145.334825 
L 509.339382 134.53132 
L 509.980552 130.795438 
L 510.46143 129.349326 
L 510.782015 129.140088 
L 510.942308 129.269109 
L 511.262893 129.985563 
L 511.743771 132.122752 
L 512.384942 136.56655 
L 513.667283 147.944547 
L 514.629038 155.644365 
L 515.270209 159.420834 
L 515.911379 161.958194 
L 516.392257 163.143767 
L 516.873135 163.86533 
L 517.514306 164.375615 
L 518.315769 164.68671 
L 518.956939 164.777162 
L 519.437817 164.652874 
L 519.918695 164.207808 
L 520.399573 163.271535 
L 520.880451 161.685811 
L 521.361329 159.342566 
L 522.002499 155.008948 
L 522.964255 146.49003 
L 524.406889 133.577319 
L 525.048059 129.871967 
L 525.528937 128.479819 
L 525.849522 128.283689 
L 526.009815 128.408117 
L 526.3304 129.0912 
L 526.811278 131.124753 
L 527.452448 135.370673 
L 528.895082 147.618711 
L 529.696545 153.366437 
L 530.337716 156.330477 
L 530.658301 157.1422 
L 530.978886 157.481764 
L 531.139179 157.474189 
L 531.459764 157.111842 
L 531.780349 156.306389 
L 532.261227 154.344764 
L 532.902398 150.5743 
L 533.864153 143.389052 
L 534.184739 91.789836 
L 534.345031 92.606599 
L 535.146494 127.088105 
L 535.306787 128.130486 
L 535.46708 127.401048 
L 536.428835 117.338239 
L 536.589128 117.597057 
L 536.909713 120.08157 
L 537.550884 129.202601 
L 538.192054 137.462273 
L 538.672932 141.089938 
L 539.15381 196.812821 
L 539.474395 210.998904 
L 539.634688 211.741695 
L 539.794981 209.594239 
L 540.275858 195.208865 
L 540.917029 177.882303 
L 541.237614 173.266102 
L 541.558199 170.916343 
L 541.878785 169.998002 
L 542.19937 169.731343 
L 542.680248 169.461852 
L 543.161126 168.882153 
L 543.962589 167.87657 
L 544.764052 167.134469 
L 545.084637 166.568497 
L 545.565515 165.085454 
L 546.046393 162.744711 
L 546.687563 158.498101 
L 547.809612 149.312202 
L 549.733123 133.35855 
L 550.214001 130.801058 
L 550.694879 129.432401 
L 551.015464 129.268653 
L 551.175757 129.417967 
L 551.496342 130.169355 
L 551.97722 132.343358 
L 552.618391 136.805822 
L 555.343365 158.639409 
L 555.984536 161.412736 
L 556.465414 162.739509 
L 556.946291 163.556822 
L 557.427169 164.021726 
L 558.06834 164.344478 
L 559.030096 164.560714 
L 559.510973 164.503375 
L 559.991851 164.1845 
L 560.472729 163.437816 
L 560.953607 162.096248 
L 561.434485 160.030531 
L 562.075655 156.064802 
L 562.877119 149.409346 
L 564.80063 132.483239 
L 565.281508 129.901096 
L 565.762386 128.525742 
L 566.082971 128.337871 
L 566.243264 128.465519 
L 566.563849 129.15322 
L 567.044727 131.189304 
L 567.685897 135.431292 
L 569.128531 147.651182 
L 569.929994 153.380729 
L 570.571165 156.333098 
L 570.89175 157.140539 
L 571.212335 157.477039 
L 571.372628 157.46841 
L 571.693213 157.104935 
L 572.013798 156.299647 
L 572.494676 154.340575 
L 573.135847 150.577249 
L 574.257895 142.134716 
L 574.57848 91.605877 
L 574.738773 92.65226 
L 575.540236 127.46453 
L 575.700529 128.558601 
L 575.860821 127.885888 
L 576.822577 118.018972 
L 576.98287 118.252132 
L 577.303455 120.62639 
L 577.944625 129.350561 
L 578.585796 137.139831 
L 579.066674 140.470102 
L 579.547552 195.446396 
L 579.868137 209.379132 
L 580.028429 210.082095 
L 580.188722 207.949383 
L 580.6696 193.874061 
L 581.150478 180.44764 
L 581.631356 173.07401 
L 581.951941 171.076313 
L 582.272526 170.44587 
L 582.593111 170.392018 
L 582.913697 170.37761 
L 583.234282 170.164514 
L 583.875452 169.249668 
L 584.676916 168.183846 
L 585.157793 167.508946 
L 585.638671 166.340775 
L 586.119549 164.388473 
L 586.76072 160.549753 
L 587.722475 153.062888 
L 590.126865 133.226901 
L 590.607743 130.760437 
L 590.928328 129.760303 
L 591.248913 129.343524 
L 591.409206 129.362698 
L 591.729791 129.855878 
L 592.050376 130.932017 
L 592.531254 133.517416 
L 593.172425 138.338999 
L 595.416521 156.84389 
L 596.057692 160.172603 
L 596.698862 162.290225 
L 597.17974 163.218567 
L 597.660618 163.747623 
L 598.301789 164.098109 
L 599.263544 164.33198 
L 599.904715 164.286223 
L 600.385593 163.972401 
L 600.866471 163.236683 
L 601.347349 161.911388 
L 601.828226 159.866579 
L 602.469397 155.934556 
L 603.27086 149.327307 
L 605.194372 132.511868 
L 605.675249 129.949432 
L 606.156127 128.588797 
L 606.476713 128.407787 
L 606.637005 128.537971 
L 606.95759 129.228993 
L 607.438468 131.26592 
L 608.079639 135.50242 
L 609.522272 147.694263 
L 610.323736 153.40765 
L 610.964906 156.350579 
L 611.285491 157.154941 
L 611.606077 157.489576 
L 611.766369 157.48048 
L 612.086954 157.11699 
L 612.40754 156.312872 
L 612.888418 154.357569 
L 613.209003 152.621514 
L 613.529588 93.343203 
L 613.689881 93.036786 
L 614.491344 127.86224 
L 614.651636 128.726892 
L 614.811929 127.645781 
L 615.773685 114.718617 
L 615.933977 114.817699 
L 616.09427 115.769795 
L 616.414855 119.756265 
L 618.017782 145.984485 
L 618.498659 208.437299 
L 618.819245 224.47782 
L 618.979537 225.485452 
L 619.13983 223.224564 
L 619.460415 213.029297 
L 620.261878 184.450201 
L 620.742756 174.546866 
L 621.223634 169.484057 
L 621.704512 166.9322 
L 622.345682 164.954472 
L 622.82656 164.147863 
L 623.147146 163.993318 
L 623.467731 164.11664 
L 624.269194 164.749385 
L 624.589779 164.680005 
L 624.910364 164.227181 
L 625.23095 163.339662 
L 625.711828 161.215511 
L 626.352998 157.160607 
L 627.314754 149.279578 
L 629.398558 131.204284 
L 629.879436 128.892843 
L 630.200021 128.107965 
L 630.360314 127.959874 
L 630.520606 127.977302 
L 630.841192 128.503267 
L 631.161777 129.65432 
L 631.642655 132.413353 
L 632.283825 137.539471 
L 634.527922 157.16107 
L 635.169092 160.760998 
L 635.810263 163.148988 
L 636.451433 164.569776 
L 637.092604 165.372087 
L 637.894067 165.938725 
L 638.535238 166.145781 
L 639.016115 166.05957 
L 639.336701 165.811715 
L 639.657286 165.35369 
L 640.138164 164.163748 
L 640.619042 162.245877 
L 641.260212 158.429979 
L 642.061675 151.789902 
L 644.305772 131.465304 
L 644.78665 129.111162 
L 645.107235 128.252946 
L 645.42782 127.999362 
L 645.588113 128.100952 
L 645.908698 128.750249 
L 646.229284 129.962367 
L 646.710161 132.703785 
L 647.511625 139.016389 
L 649.114551 152.313816 
L 649.755721 155.78026 
L 650.236599 157.221598 
L 650.557184 157.585466 
L 650.717477 157.586941 
L 651.038062 157.236276 
L 651.358648 156.433896 
L 651.839525 154.461244 
L 652.480696 150.649924 
L 653.602744 142.065923 
L 653.92333 139.472537 
L 654.243915 90.51824 
L 654.404207 91.871053 
L 655.205671 127.175662 
L 655.365963 128.397091 
L 655.526256 127.871678 
L 656.488012 118.748838 
L 656.648304 119.007714 
L 656.968889 121.322799 
L 657.770353 131.644601 
L 658.25123 136.638839 
L 658.732108 139.444891 
L 659.212986 193.707209 
L 659.533571 207.370035 
L 659.693864 208.001792 
L 659.854157 205.840088 
L 660.335035 191.907734 
L 660.815912 178.879524 
L 661.136498 173.629498 
L 661.457083 170.970565 
L 661.777668 170.100579 
L 661.937961 170.056772 
L 662.739424 170.496764 
L 663.060009 170.313556 
L 663.70118 169.481525 
L 664.983521 167.590803 
L 665.464399 166.100706 
L 665.945276 163.786918 
L 666.586447 159.553939 
L 667.708495 150.375663 
L 669.632007 134.354814 
L 670.273177 130.898556 
L 670.593763 129.923778 
L 670.914348 129.531246 
L 671.07464 129.561736 
L 671.395226 130.075236 
L 671.715811 131.167856 
L 672.196689 133.769383 
L 672.837859 138.595244 
L 675.081956 157.006056 
L 675.723127 160.297859 
L 676.364297 162.380067 
L 676.845175 163.282854 
L 677.326053 163.786631 
L 677.967223 164.102557 
L 678.928979 164.279932 
L 679.57015 164.193064 
L 680.051027 163.847548 
L 680.531905 163.080739 
L 681.012783 161.726593 
L 681.493661 159.657049 
L 682.134832 155.701737 
L 682.936295 149.086225 
L 684.859806 132.353822 
L 685.340684 129.827689 
L 685.661269 128.80288 
L 685.981855 128.352314 
L 686.142147 128.347401 
L 686.462732 128.774769 
L 686.783318 129.76258 
L 687.264196 132.186856 
L 687.905366 136.783103 
L 689.98917 153.377052 
L 690.470048 155.718134 
L 690.950926 157.068299 
L 691.271511 157.384393 
L 691.431804 157.366423 
L 691.752389 156.986335 
L 692.072974 156.167579 
L 692.553852 154.194927 
L 693.195023 150.426693 
L 694.156778 143.277646 
L 694.477364 91.930955 
L 694.637656 92.79812 
L 695.439119 127.289184 
L 695.599412 128.325901 
L 695.759705 127.592801 
L 696.72146 117.51917 
L 696.881753 117.771196 
L 697.202338 120.234264 
L 697.843509 129.286508 
L 698.484679 137.468256 
L 698.965557 141.051802 
L 699.446435 196.481498 
L 699.76702 210.598206 
L 699.927313 211.344729 
L 700.087606 209.223363 
L 700.568483 195.015324 
L 701.209654 178.022519 
L 701.530239 173.56207 
L 701.850824 171.340465 
L 702.17141 170.515157 
L 702.491995 170.304055 
L 702.972873 170.052053 
L 703.453751 169.425676 
L 704.415506 168.077826 
L 705.056677 167.30971 
L 705.537555 166.225827 
L 706.018433 164.355053 
L 706.659603 160.606354 
L 707.621359 153.194412 
L 710.186041 132.315875 
L 710.666919 130.178431 
L 710.987504 129.440887 
L 711.147797 129.296542 
L 711.308089 129.305293 
L 711.628675 129.780104 
L 711.94926 130.841565 
L 712.430138 133.412418 
L 713.071308 138.228436 
L 715.315405 156.796332 
L 715.956575 160.150232 
L 716.597746 162.2906 
L 717.078624 163.233607 
L 717.559502 163.77512 
L 718.200672 164.13908 
L 719.162428 164.388109 
L 719.803598 164.350237 
L 720.284476 164.041433 
L 720.765354 163.309882 
L 721.246232 161.987639 
L 721.72711 159.944376 
L 722.36828 156.011323 
L 723.169744 149.396631 
L 725.093255 132.53644 
L 725.574133 129.959824 
L 726.055011 128.585583 
L 726.375596 128.3963 
L 726.535889 128.522685 
L 726.856474 129.20693 
L 727.337352 131.236089 
L 727.978522 135.467327 
L 729.421156 147.668165 
L 730.222619 153.395338 
L 730.86379 156.35085 
L 731.184375 157.161381 
L 731.50496 157.50182 
L 731.665253 157.495434 
L 731.985838 157.136877 
L 732.306423 156.336936 
L 732.787301 154.38627 
L 733.428472 150.633878 
L 734.069642 145.98462 
L 734.390227 92.434901 
L 734.55052 92.904103 
L 735.351983 127.110604 
L 735.512276 128.069425 
L 735.672568 127.227125 
L 736.634324 116.501859 
L 736.794617 116.744679 
L 737.115202 119.31568 
L 737.756372 129.004763 
L 738.397543 138.078373 
L 738.878421 142.277332 
L 739.359299 199.393907 
L 739.679884 214.004123 
L 739.840177 214.81605 
L 740.000469 212.651983 
L 740.481347 197.803488 
L 741.122518 179.319366 
L 741.603395 172.375882 
L 741.923981 170.316468 
L 742.244566 169.375566 
L 743.046029 168.248797 
L 744.007785 166.989942 
L 744.648955 166.691664 
L 744.969541 166.507782 
L 745.290126 166.10929 
L 745.610711 165.380122 
L 746.091589 163.549463 
L 746.732759 159.826284 
L 747.694515 152.423009 
L 750.259197 131.494259 
L 750.740075 129.582232 
L 751.06066 129.038935 
L 751.220953 129.000527 
L 751.381246 129.118865 
L 751.701831 129.817008 
L 752.182709 131.935423 
L 752.823879 136.3717 
L 754.10622 147.787954 
L 755.067976 155.545199 
L 755.709146 159.364068 
L 756.350317 161.942553 
L 756.831195 163.15665 
L 757.312073 163.904115 
L 757.953243 164.444486 
L 758.754706 164.786048 
L 759.395877 164.895367 
L 759.876755 164.782036 
L 760.19734 164.537088 
L 760.678218 163.789621 
L 761.159096 162.438425 
L 761.639974 160.354464 
L 762.281144 156.351767 
L 763.082607 149.632677 
L 765.006119 132.520071 
L 765.486997 129.896598 
L 765.967874 128.486571 
L 766.28846 128.280109 
L 766.448752 128.399953 
L 766.769338 129.075165 
L 767.250215 131.100452 
L 767.891386 135.342301 
L 769.173727 146.268033 
L 770.135483 153.372827 
L 770.776653 156.35235 
L 771.097238 157.171273 
L 771.417824 157.517347 
L 771.578116 157.512702 
L 771.898702 157.155457 
L 772.219287 156.353979 
L 772.700165 154.396003 
L 773.341335 150.625893 
L 773.822213 147.178441 
L 774.142798 92.492736 
L 774.303091 92.749517 
L 775.104554 126.797231 
L 775.264847 127.723625 
L 775.425139 126.83592 
L 776.386895 115.876166 
L 776.547188 116.132431 
L 776.867773 118.793017 
L 777.508943 128.861553 
L 778.150114 138.415551 
L 778.630992 142.925415 
L 779.11187 201.012103 
L 779.432455 215.913695 
L 779.592748 216.762765 
L 779.75304 214.570833 
L 780.233918 199.333871 
L 780.875089 179.966768 
L 781.355966 172.360941 
L 781.676552 169.935824 
L 781.997137 168.71271 
L 782.478015 167.769143 
L 783.439771 166.376352 
L 783.920648 166.104646 
L 784.882404 166.005705 
L 785.202989 165.605476 
L 785.523575 164.827872 
L 786.004453 162.890275 
L 786.645623 159.042673 
L 787.607379 151.498241 
L 790.011768 131.561804 
L 790.492646 129.543464 
L 790.813231 128.93625 
L 790.973524 128.868834 
L 791.133817 128.960434 
L 791.454402 129.612626 
L 791.774987 130.857142 
L 792.255865 133.690125 
L 793.057328 140.216513 
L 794.820547 155.452737 
L 795.461717 159.360012 
L 796.102888 162.024242 
L 796.583766 163.296386 
L 797.064644 164.093941 
L 797.705814 164.686155 
L 798.507277 165.066223 
L 799.148448 165.185296 
L 799.629326 165.06774 
L 799.949911 164.814903 
L 800.430789 164.048682 
L 800.911667 162.671393 
L 801.392545 160.555238 
L 802.033715 156.502624 
L 802.835178 149.715502 
L 804.75869 132.462357 
L 805.239568 129.817397 
L 805.720445 128.393057 
L 806.041031 128.18104 
L 806.201323 128.299259 
L 806.521909 128.973392 
L 807.002786 131.00192 
L 807.643957 135.255145 
L 808.926298 146.214178 
L 809.888054 153.339632 
L 810.529224 156.326321 
L 810.849809 157.146436 
L 811.170395 157.492088 
L 811.330687 157.486646 
L 811.651273 157.126705 
L 811.971858 156.321192 
L 812.452736 154.355083 
L 813.093906 150.57149 
L 813.414491 148.309593 
L 813.735077 92.575081 
L 813.895369 92.649971 
L 814.696832 126.614339 
L 814.857125 127.512764 
L 815.017418 126.581486 
L 815.979173 115.357153 
L 816.139466 115.617255 
L 816.460051 118.346513 
L 816.940929 125.908148 
L 817.742392 138.755254 
L 818.22327 143.563335 
L 818.704148 202.569439 
L 819.024733 217.743494 
L 819.185026 218.630301 
L 819.345319 216.417879 
L 819.826196 200.847404 
L 820.467367 180.706012 
L 820.948245 172.511412 
L 821.26883 169.756458 
L 821.589415 168.273981 
L 822.070293 167.082606 
L 822.871756 165.784537 
L 823.192342 165.520048 
L 823.512927 165.467093 
L 824.474683 165.71351 
L 824.795268 165.435731 
L 825.115853 164.774436 
L 825.596731 162.990576 
L 826.237901 159.294121 
L 827.039365 153.196572 
L 829.764339 130.753284 
L 830.245217 129.077743 
L 830.565802 128.734073 
L 830.726095 128.803241 
L 831.04668 129.416963 
L 831.367265 130.632262 
L 831.848143 133.439669 
L 832.649606 139.970389 
L 834.412825 155.361611 
L 835.214288 160.145427 
L 835.855459 162.588217 
L 836.336337 163.733544 
L 836.817215 164.448736 
L 837.458385 164.992658 
L 838.259848 165.353137 
L 838.901019 165.418533 
L 839.381897 165.203682 
L 839.702482 164.851341 
L 840.18336 163.882659 
L 840.664238 162.248308 
L 841.145116 159.84222 
L 841.786286 155.406979 
L 842.748042 146.712723 
L 844.190675 133.547305 
L 844.831846 129.757335 
L 845.312724 128.318897 
L 845.633309 128.100862 
L 845.793602 128.217068 
L 846.114187 128.889086 
L 846.595065 130.918829 
L 847.236235 135.180341 
L 848.518576 146.167731 
L 849.480332 153.313001 
L 850.121503 156.307921 
L 850.442088 157.130195 
L 850.762673 157.476635 
L 850.922966 157.471077 
L 851.243551 157.109923 
L 851.564136 156.301973 
L 852.045014 154.330218 
L 852.686185 150.536333 
L 853.808233 142.017835 
L 854.609696 135.70255 
L 854.930281 89.987129 
L 855.090574 92.155583 
L 855.892037 129.09038 
L 856.05233 130.515496 
L 856.212622 130.178275 
L 856.533208 126.745727 
L 857.014085 121.880422 
L 857.174378 121.351436 
L 857.334671 121.460992 
L 857.655256 123.311221 
L 859.09789 136.60804 
L 859.418475 137.687325 
L 859.899353 190.131877 
L 860.219938 203.083179 
L 860.380231 203.596345 
L 860.540523 201.474355 
L 861.822864 173.042386 
L 862.143449 171.517164 
L 862.303742 171.422425 
L 862.624327 171.964924 
L 863.265498 173.385778 
L 863.586083 173.493225 
L 863.906668 173.156447 
L 864.547839 171.781047 
L 865.509595 169.155947 
L 865.990472 167.226273 
L 866.631643 163.523612 
L 867.593399 156.0239 
L 870.158081 134.743235 
L 870.799251 131.238843 
L 871.280129 129.848419 
L 871.600714 129.621275 
L 871.761007 129.727084 
L 872.081592 130.373817 
L 872.402177 131.57398 
L 872.883055 134.285211 
L 873.684518 140.5252 
L 875.447737 155.132947 
L 876.088908 158.85794 
L 876.730078 161.343514 
L 877.210956 162.471214 
L 877.691834 163.111401 
L 878.172712 163.425024 
L 878.974175 163.610581 
L 879.935931 163.643803 
L 880.416809 163.488766 
L 880.897687 163.042914 
L 881.378564 162.134692 
L 881.859442 160.604826 
L 882.34032 158.343982 
L 882.981491 154.158039 
L 883.943246 145.924529 
L 885.38588 133.489369 
L 886.027051 129.969305 
L 886.347636 128.975632 
L 886.668221 128.549491 
L 886.828514 128.554213 
L 887.149099 128.995704 
L 887.469684 129.990943 
L 887.950562 132.414705 
L 888.591733 136.991963 
L 890.675537 153.464563 
L 891.156415 155.783117 
L 891.637292 157.117618 
L 891.957878 157.427604 
L 892.11817 157.407932 
L 892.438756 157.02714 
L 892.759341 156.211176 
L 893.240219 154.24872 
L 893.881389 150.503289 
L 894.362267 147.094372 
L 894.682852 92.901497 
L 894.843145 93.275539 
L 895.644608 127.43404 
L 895.804901 128.353197 
L 895.965193 127.456402 
L 896.926949 116.382629 
L 897.087242 116.604169 
L 897.407827 119.181094 
L 897.888705 126.35878 
L 898.690168 138.419464 
L 899.171046 142.844568 
L 899.651924 200.331157 
L 899.972509 215.068167 
L 900.132802 215.917849 
L 900.293094 213.776289 
L 900.773972 198.914132 
L 901.415143 180.269176 
L 901.89602 173.147868 
L 902.216606 170.961755 
L 902.537191 169.896454 
L 903.338654 168.498783 
L 904.140117 167.191971 
L 904.620995 166.791153 
L 905.262166 166.425106 
L 905.582751 166.005212 
L 905.903336 165.260486 
L 906.384214 163.414917 
L 907.025384 159.683151 
L 907.98714 152.282447 
L 910.551822 131.385483 
L 911.0327 129.476737 
L 911.353285 128.935086 
L 911.513578 128.897403 
L 911.673871 129.016432 
L 911.994456 129.715952 
L 912.475334 131.836748 
L 913.116504 136.277388 
L 914.398845 147.706159 
L 915.360601 155.472571 
L 916.001771 159.295919 
L 916.642942 161.877711 
L 917.12382 163.094129 
L 917.604698 163.844502 
L 918.245868 164.390915 
L 919.047331 164.745565 
L 919.688502 164.870764 
L 920.16938 164.772425 
L 920.489965 164.538705 
L 920.81055 164.111608 
L 921.291428 162.997361 
L 921.772306 161.186784 
L 922.413476 157.554617 
L 923.21494 151.188904 
L 925.459036 131.603181 
L 925.939914 129.350155 
L 926.260499 128.542318 
L 926.581085 128.325037 
L 926.741377 128.43953 
L 927.061963 129.104441 
L 927.54284 131.11606 
L 928.184011 135.344826 
L 929.466352 146.267456 
L 930.428108 153.38906 
L 931.069278 156.385656 
L 931.389863 157.213929 
L 931.710449 157.569448 
L 931.870741 157.569461 
L 932.191327 157.221207 
L 932.511912 156.428054 
L 932.99279 154.480767 
L 933.63396 150.720527 
L 933.794253 149.619249 
L 933.954545 108.051566 
L 933.954545 108.051566 
" clip-path="url(#pfd9c2d15a1)" style="fill: none; stroke: #1f77b4; stroke-width: 1.5; stroke-linecap: square"/>
   </g>
   <g id="line2d_15">
    <path d="M 173.045455 118.802113 
L 177.693941 118.802113 
L 177.854233 166.888322 
L 213.278903 166.888322 
L 213.439196 118.802113 
L 218.087682 118.802113 
L 218.247975 166.888322 
L 253.99323 166.888322 
L 254.153523 118.802113 
L 258.802009 118.802113 
L 258.962302 166.888322 
L 293.585509 166.888322 
L 293.745801 118.802113 
L 298.394287 118.802113 
L 298.55458 166.888322 
L 333.818957 166.888322 
L 333.97925 118.802113 
L 338.627736 118.802113 
L 338.788029 166.888322 
L 373.090651 166.888322 
L 373.250943 118.802113 
L 377.899429 118.802113 
L 378.059722 166.888322 
L 413.644685 166.888322 
L 413.804977 118.802113 
L 418.453463 118.802113 
L 418.613756 166.888322 
L 453.557548 166.888322 
L 453.717841 118.802113 
L 458.366327 118.802113 
L 458.52662 166.888322 
L 493.630705 166.888322 
L 493.790997 118.802113 
L 498.439483 118.802113 
L 498.599776 166.888322 
L 533.864153 166.888322 
L 534.024446 118.802113 
L 538.672932 118.802113 
L 538.833225 166.888322 
L 574.257895 166.888322 
L 574.418188 118.802113 
L 579.066674 118.802113 
L 579.226966 166.888322 
L 613.209003 166.888322 
L 613.369295 118.802113 
L 618.017782 118.802113 
L 618.178074 166.888322 
L 653.92333 166.888322 
L 654.083622 118.802113 
L 658.732108 118.802113 
L 658.892401 166.888322 
L 694.156778 166.888322 
L 694.317071 118.802113 
L 698.965557 118.802113 
L 699.12585 166.888322 
L 734.069642 166.888322 
L 734.229935 118.802113 
L 738.878421 118.802113 
L 739.038713 166.888322 
L 773.822213 166.888322 
L 773.982506 118.802113 
L 778.630992 118.802113 
L 778.791284 166.888322 
L 813.414491 166.888322 
L 813.574784 118.802113 
L 818.22327 118.802113 
L 818.383563 166.888322 
L 854.609696 166.888322 
L 854.769989 118.802113 
L 859.418475 118.802113 
L 859.578767 166.888322 
L 894.362267 166.888322 
L 894.52256 118.802113 
L 899.171046 118.802113 
L 899.331338 166.888322 
L 933.794253 166.888322 
L 933.954545 118.802113 
L 933.954545 118.802113 
" clip-path="url(#pfd9c2d15a1)" style="fill: none; stroke: #ff7f0e; stroke-width: 1.5; stroke-linecap: square"/>
   </g>
   <g id="line2d_16">
    <path d="M 929.466352 166.888322 
" clip-path="url(#pfd9c2d15a1)" style="fill: none; stroke: #000000; stroke-width: 1.5; stroke-linecap: square"/>
    <defs>
     <path id="m0d06ba0179" d="M 0 1 
C 0.265203 1 0.51958 0.894634 0.707107 0.707107 
C 0.894634 0.51958 1 0.265203 1 0 
C 1 -0.265203 0.894634 -0.51958 0.707107 -0.707107 
C 0.51958 -0.894634 0.265203 -1 0 -1 
C -0.265203 -1 -0.51958 -0.894634 -0.707107 -0.707107 
C -0.894634 -0.51958 -1 -0.265203 -1 0 
C -1 0.265203 -0.894634 0.51958 -0.707107 0.707107 
C -0.51958 0.894634 -0.265203 1 0 1 
z
" style="stroke: #000000"/>
    </defs>
    <g clip-path="url(#pfd9c2d15a1)">
     <use xlink:href="#m0d06ba0179" x="173.045455" y="118.802113" style="stroke: #000000"/>
     <use xlink:href="#m0d06ba0179" x="178.174819" y="166.888322" style="stroke: #000000"/>
     <use xlink:href="#m0d06ba0179" x="183.14389" y="166.888322" style="stroke: #000000"/>
     <use xlink:href="#m0d06ba0179" x="188.112961" y="118.802113" style="stroke: #000000"/>
     <use xlink:href="#m0d06ba0179" x="193.082033" y="166.888322" style="stroke: #000000"/>
     <use xlink:href="#m0d06ba0179" x="198.211397" y="166.888322" style="stroke: #000000"/>
     <use xlink:href="#m0d06ba0179" x="203.180468" y="118.802113" style="stroke: #000000"/>
     <use xlink:href="#m0d06ba0179" x="208.149539" y="166.888322" style="stroke: #000000"/>
     <use xlink:href="#m0d06ba0179" x="213.118611" y="118.802113" style="stroke: #000000"/>
     <use xlink:href="#m0d06ba0179" x="218.247975" y="166.888322" style="stroke: #000000"/>
     <use xlink:href="#m0d06ba0179" x="223.217046" y="166.888322" style="stroke: #000000"/>
     <use xlink:href="#m0d06ba0179" x="228.186118" y="118.802113" style="stroke: #000000"/>
     <use xlink:href="#m0d06ba0179" x="233.155189" y="166.888322" style="stroke: #000000"/>
     <use xlink:href="#m0d06ba0179" x="238.284553" y="166.888322" style="stroke: #000000"/>
     <use xlink:href="#m0d06ba0179" x="243.253624" y="118.802113" style="stroke: #000000"/>
     <use xlink:href="#m0d06ba0179" x="248.222696" y="166.888322" style="stroke: #000000"/>
     <use xlink:href="#m0d06ba0179" x="253.191767" y="118.802113" style="stroke: #000000"/>
     <use xlink:href="#m0d06ba0179" x="258.321131" y="166.888322" style="stroke: #000000"/>
     <use xlink:href="#m0d06ba0179" x="263.290202" y="166.888322" style="stroke: #000000"/>
     <use xlink:href="#m0d06ba0179" x="268.259274" y="118.802113" style="stroke: #000000"/>
     <use xlink:href="#m0d06ba0179" x="273.228345" y="166.888322" style="stroke: #000000"/>
     <use xlink:href="#m0d06ba0179" x="278.357709" y="166.888322" style="stroke: #000000"/>
     <use xlink:href="#m0d06ba0179" x="283.326781" y="118.802113" style="stroke: #000000"/>
     <use xlink:href="#m0d06ba0179" x="288.295852" y="166.888322" style="stroke: #000000"/>
     <use xlink:href="#m0d06ba0179" x="293.264923" y="118.802113" style="stroke: #000000"/>
     <use xlink:href="#m0d06ba0179" x="298.394287" y="166.888322" style="stroke: #000000"/>
     <use xlink:href="#m0d06ba0179" x="303.363359" y="166.888322" style="stroke: #000000"/>
     <use xlink:href="#m0d06ba0179" x="308.33243" y="118.802113" style="stroke: #000000"/>
     <use xlink:href="#m0d06ba0179" x="313.301501" y="166.888322" style="stroke: #000000"/>
     <use xlink:href="#m0d06ba0179" x="318.430865" y="166.888322" style="stroke: #000000"/>
     <use xlink:href="#m0d06ba0179" x="323.399937" y="118.802113" style="stroke: #000000"/>
     <use xlink:href="#m0d06ba0179" x="328.369008" y="166.888322" style="stroke: #000000"/>
     <use xlink:href="#m0d06ba0179" x="333.33808" y="118.802113" style="stroke: #000000"/>
     <use xlink:href="#m0d06ba0179" x="338.467444" y="166.888322" style="stroke: #000000"/>
     <use xlink:href="#m0d06ba0179" x="343.436515" y="166.888322" style="stroke: #000000"/>
     <use xlink:href="#m0d06ba0179" x="348.405586" y="118.802113" style="stroke: #000000"/>
     <use xlink:href="#m0d06ba0179" x="353.374658" y="166.888322" style="stroke: #000000"/>
     <use xlink:href="#m0d06ba0179" x="358.504022" y="166.888322" style="stroke: #000000"/>
     <use xlink:href="#m0d06ba0179" x="363.473093" y="118.802113" style="stroke: #000000"/>
     <use xlink:href="#m0d06ba0179" x="368.442164" y="166.888322" style="stroke: #000000"/>
     <use xlink:href="#m0d06ba0179" x="373.411236" y="118.802113" style="stroke: #000000"/>
     <use xlink:href="#m0d06ba0179" x="378.5406" y="166.888322" style="stroke: #000000"/>
     <use xlink:href="#m0d06ba0179" x="383.509671" y="166.888322" style="stroke: #000000"/>
     <use xlink:href="#m0d06ba0179" x="388.478743" y="118.802113" style="stroke: #000000"/>
     <use xlink:href="#m0d06ba0179" x="393.447814" y="166.888322" style="stroke: #000000"/>
     <use xlink:href="#m0d06ba0179" x="398.577178" y="166.888322" style="stroke: #000000"/>
     <use xlink:href="#m0d06ba0179" x="403.546249" y="118.802113" style="stroke: #000000"/>
     <use xlink:href="#m0d06ba0179" x="408.515321" y="166.888322" style="stroke: #000000"/>
     <use xlink:href="#m0d06ba0179" x="413.484392" y="118.802113" style="stroke: #000000"/>
     <use xlink:href="#m0d06ba0179" x="418.613756" y="166.888322" style="stroke: #000000"/>
     <use xlink:href="#m0d06ba0179" x="423.582827" y="166.888322" style="stroke: #000000"/>
     <use xlink:href="#m0d06ba0179" x="428.551899" y="118.802113" style="stroke: #000000"/>
     <use xlink:href="#m0d06ba0179" x="433.52097" y="166.888322" style="stroke: #000000"/>
     <use xlink:href="#m0d06ba0179" x="438.650334" y="166.888322" style="stroke: #000000"/>
     <use xlink:href="#m0d06ba0179" x="443.619406" y="118.802113" style="stroke: #000000"/>
     <use xlink:href="#m0d06ba0179" x="448.588477" y="166.888322" style="stroke: #000000"/>
     <use xlink:href="#m0d06ba0179" x="453.557548" y="118.802113" style="stroke: #000000"/>
     <use xlink:href="#m0d06ba0179" x="458.686912" y="166.888322" style="stroke: #000000"/>
     <use xlink:href="#m0d06ba0179" x="463.655984" y="166.888322" style="stroke: #000000"/>
     <use xlink:href="#m0d06ba0179" x="468.625055" y="118.802113" style="stroke: #000000"/>
     <use xlink:href="#m0d06ba0179" x="473.594126" y="166.888322" style="stroke: #000000"/>
     <use xlink:href="#m0d06ba0179" x="478.72349" y="166.888322" style="stroke: #000000"/>
     <use xlink:href="#m0d06ba0179" x="483.692562" y="118.802113" style="stroke: #000000"/>
     <use xlink:href="#m0d06ba0179" x="488.661633" y="166.888322" style="stroke: #000000"/>
     <use xlink:href="#m0d06ba0179" x="493.630705" y="118.802113" style="stroke: #000000"/>
     <use xlink:href="#m0d06ba0179" x="498.760069" y="166.888322" style="stroke: #000000"/>
     <use xlink:href="#m0d06ba0179" x="503.72914" y="166.888322" style="stroke: #000000"/>
     <use xlink:href="#m0d06ba0179" x="508.698211" y="118.802113" style="stroke: #000000"/>
     <use xlink:href="#m0d06ba0179" x="513.667283" y="166.888322" style="stroke: #000000"/>
     <use xlink:href="#m0d06ba0179" x="518.796647" y="166.888322" style="stroke: #000000"/>
     <use xlink:href="#m0d06ba0179" x="523.765718" y="118.802113" style="stroke: #000000"/>
     <use xlink:href="#m0d06ba0179" x="528.734789" y="166.888322" style="stroke: #000000"/>
     <use xlink:href="#m0d06ba0179" x="533.703861" y="118.802113" style="stroke: #000000"/>
     <use xlink:href="#m0d06ba0179" x="538.833225" y="166.888322" style="stroke: #000000"/>
     <use xlink:href="#m0d06ba0179" x="543.802296" y="166.888322" style="stroke: #000000"/>
     <use xlink:href="#m0d06ba0179" x="548.771368" y="118.802113" style="stroke: #000000"/>
     <use xlink:href="#m0d06ba0179" x="553.740439" y="166.888322" style="stroke: #000000"/>
     <use xlink:href="#m0d06ba0179" x="558.869803" y="166.888322" style="stroke: #000000"/>
     <use xlink:href="#m0d06ba0179" x="563.838874" y="118.802113" style="stroke: #000000"/>
     <use xlink:href="#m0d06ba0179" x="568.807946" y="166.888322" style="stroke: #000000"/>
     <use xlink:href="#m0d06ba0179" x="573.777017" y="118.802113" style="stroke: #000000"/>
     <use xlink:href="#m0d06ba0179" x="578.906381" y="166.888322" style="stroke: #000000"/>
     <use xlink:href="#m0d06ba0179" x="583.875452" y="166.888322" style="stroke: #000000"/>
     <use xlink:href="#m0d06ba0179" x="588.844524" y="118.802113" style="stroke: #000000"/>
     <use xlink:href="#m0d06ba0179" x="593.813595" y="166.888322" style="stroke: #000000"/>
     <use xlink:href="#m0d06ba0179" x="598.942959" y="166.888322" style="stroke: #000000"/>
     <use xlink:href="#m0d06ba0179" x="603.912031" y="118.802113" style="stroke: #000000"/>
     <use xlink:href="#m0d06ba0179" x="608.881102" y="166.888322" style="stroke: #000000"/>
     <use xlink:href="#m0d06ba0179" x="613.850173" y="118.802113" style="stroke: #000000"/>
     <use xlink:href="#m0d06ba0179" x="618.979537" y="166.888322" style="stroke: #000000"/>
     <use xlink:href="#m0d06ba0179" x="623.948609" y="166.888322" style="stroke: #000000"/>
     <use xlink:href="#m0d06ba0179" x="628.91768" y="118.802113" style="stroke: #000000"/>
     <use xlink:href="#m0d06ba0179" x="633.886751" y="166.888322" style="stroke: #000000"/>
     <use xlink:href="#m0d06ba0179" x="639.016115" y="166.888322" style="stroke: #000000"/>
     <use xlink:href="#m0d06ba0179" x="643.985187" y="118.802113" style="stroke: #000000"/>
     <use xlink:href="#m0d06ba0179" x="648.954258" y="166.888322" style="stroke: #000000"/>
     <use xlink:href="#m0d06ba0179" x="653.92333" y="118.802113" style="stroke: #000000"/>
     <use xlink:href="#m0d06ba0179" x="659.052694" y="166.888322" style="stroke: #000000"/>
     <use xlink:href="#m0d06ba0179" x="664.021765" y="166.888322" style="stroke: #000000"/>
     <use xlink:href="#m0d06ba0179" x="668.990836" y="118.802113" style="stroke: #000000"/>
     <use xlink:href="#m0d06ba0179" x="673.959908" y="166.888322" style="stroke: #000000"/>
     <use xlink:href="#m0d06ba0179" x="679.089272" y="166.888322" style="stroke: #000000"/>
     <use xlink:href="#m0d06ba0179" x="684.058343" y="118.802113" style="stroke: #000000"/>
     <use xlink:href="#m0d06ba0179" x="689.027414" y="166.888322" style="stroke: #000000"/>
     <use xlink:href="#m0d06ba0179" x="693.996486" y="118.802113" style="stroke: #000000"/>
     <use xlink:href="#m0d06ba0179" x="699.12585" y="166.888322" style="stroke: #000000"/>
     <use xlink:href="#m0d06ba0179" x="704.094921" y="166.888322" style="stroke: #000000"/>
     <use xlink:href="#m0d06ba0179" x="709.063993" y="118.802113" style="stroke: #000000"/>
     <use xlink:href="#m0d06ba0179" x="714.033064" y="166.888322" style="stroke: #000000"/>
     <use xlink:href="#m0d06ba0179" x="719.162428" y="166.888322" style="stroke: #000000"/>
     <use xlink:href="#m0d06ba0179" x="724.131499" y="118.802113" style="stroke: #000000"/>
     <use xlink:href="#m0d06ba0179" x="729.100571" y="166.888322" style="stroke: #000000"/>
     <use xlink:href="#m0d06ba0179" x="734.069642" y="118.802113" style="stroke: #000000"/>
     <use xlink:href="#m0d06ba0179" x="739.199006" y="166.888322" style="stroke: #000000"/>
     <use xlink:href="#m0d06ba0179" x="744.168077" y="166.888322" style="stroke: #000000"/>
     <use xlink:href="#m0d06ba0179" x="749.137149" y="118.802113" style="stroke: #000000"/>
     <use xlink:href="#m0d06ba0179" x="754.10622" y="166.888322" style="stroke: #000000"/>
     <use xlink:href="#m0d06ba0179" x="759.235584" y="166.888322" style="stroke: #000000"/>
     <use xlink:href="#m0d06ba0179" x="764.204656" y="118.802113" style="stroke: #000000"/>
     <use xlink:href="#m0d06ba0179" x="769.173727" y="166.888322" style="stroke: #000000"/>
     <use xlink:href="#m0d06ba0179" x="774.142798" y="118.802113" style="stroke: #000000"/>
     <use xlink:href="#m0d06ba0179" x="779.272162" y="166.888322" style="stroke: #000000"/>
     <use xlink:href="#m0d06ba0179" x="784.241234" y="166.888322" style="stroke: #000000"/>
     <use xlink:href="#m0d06ba0179" x="789.210305" y="118.802113" style="stroke: #000000"/>
     <use xlink:href="#m0d06ba0179" x="794.179376" y="166.888322" style="stroke: #000000"/>
     <use xlink:href="#m0d06ba0179" x="799.30874" y="166.888322" style="stroke: #000000"/>
     <use xlink:href="#m0d06ba0179" x="804.277812" y="118.802113" style="stroke: #000000"/>
     <use xlink:href="#m0d06ba0179" x="809.246883" y="166.888322" style="stroke: #000000"/>
     <use xlink:href="#m0d06ba0179" x="814.215955" y="118.802113" style="stroke: #000000"/>
     <use xlink:href="#m0d06ba0179" x="819.345319" y="166.888322" style="stroke: #000000"/>
     <use xlink:href="#m0d06ba0179" x="824.31439" y="166.888322" style="stroke: #000000"/>
     <use xlink:href="#m0d06ba0179" x="829.283461" y="118.802113" style="stroke: #000000"/>
     <use xlink:href="#m0d06ba0179" x="834.252533" y="166.888322" style="stroke: #000000"/>
     <use xlink:href="#m0d06ba0179" x="839.381897" y="166.888322" style="stroke: #000000"/>
     <use xlink:href="#m0d06ba0179" x="844.350968" y="118.802113" style="stroke: #000000"/>
     <use xlink:href="#m0d06ba0179" x="849.320039" y="166.888322" style="stroke: #000000"/>
     <use xlink:href="#m0d06ba0179" x="854.289111" y="118.802113" style="stroke: #000000"/>
     <use xlink:href="#m0d06ba0179" x="859.418475" y="166.888322" style="stroke: #000000"/>
     <use xlink:href="#m0d06ba0179" x="864.387546" y="166.888322" style="stroke: #000000"/>
     <use xlink:href="#m0d06ba0179" x="869.356618" y="118.802113" style="stroke: #000000"/>
     <use xlink:href="#m0d06ba0179" x="874.325689" y="166.888322" style="stroke: #000000"/>
     <use xlink:href="#m0d06ba0179" x="879.455053" y="166.888322" style="stroke: #000000"/>
     <use xlink:href="#m0d06ba0179" x="884.424124" y="118.802113" style="stroke: #000000"/>
     <use xlink:href="#m0d06ba0179" x="889.393196" y="166.888322" style="stroke: #000000"/>
     <use xlink:href="#m0d06ba0179" x="894.362267" y="118.802113" style="stroke: #000000"/>
     <use xlink:href="#m0d06ba0179" x="899.491631" y="166.888322" style="stroke: #000000"/>
     <use xlink:href="#m0d06ba0179" x="904.460702" y="166.888322" style="stroke: #000000"/>
     <use xlink:href="#m0d06ba0179" x="909.429774" y="118.802113" style="stroke: #000000"/>
     <use xlink:href="#m0d06ba0179" x="914.398845" y="166.888322" style="stroke: #000000"/>
     <use xlink:href="#m0d06ba0179" x="919.528209" y="166.888322" style="stroke: #000000"/>
     <use xlink:href="#m0d06ba0179" x="924.497281" y="118.802113" style="stroke: #000000"/>
     <use xlink:href="#m0d06ba0179" x="929.466352" y="166.888322" style="stroke: #000000"/>
    </g>
   </g>
   <g id="patch_3">
    <path d="M 135 448.56 
L 135 60.48 
" style="fill: none; stroke: #000000; stroke-width: 0.8; stroke-linejoin: miter; stroke-linecap: square"/>
   </g>
   <g id="patch_4">
    <path d="M 972 448.56 
L 972 60.48 
" style="fill: none; stroke: #000000; stroke-width: 0.8; stroke-linejoin: miter; stroke-linecap: square"/>
   </g>
   <g id="patch_5">
    <path d="M 135 448.56 
L 972 448.56 
" style="fill: none; stroke: #000000; stroke-width: 0.8; stroke-linejoin: miter; stroke-linecap: square"/>
   </g>
   <g id="patch_6">
    <path d="M 135 60.48 
L 972 60.48 
" style="fill: none; stroke: #000000; stroke-width: 0.8; stroke-linejoin: miter; stroke-linecap: square"/>
   </g>
   <g id="legend_1">
    <g id="patch_7">
     <path d="M 895.915625 443.56 
L 965 443.56 
Q 967 443.56 967 441.56 
L 967 397.969375 
Q 967 395.969375 965 395.969375 
L 895.915625 395.969375 
Q 893.915625 395.969375 893.915625 397.969375 
L 893.915625 441.56 
Q 893.915625 443.56 895.915625 443.56 
z
" style="fill: #ffffff; opacity: 0.8; stroke: #cccccc; stroke-linejoin: miter"/>
    </g>
    <g id="line2d_17">
     <path d="M 897.915625 404.067813 
L 907.915625 404.067813 
L 917.915625 404.067813 
" style="fill: none; stroke: #1f77b4; stroke-width: 1.5; stroke-linecap: square"/>
    </g>
    <g id="text_15">
     <!-- nw_0 -->
     <g transform="translate(925.915625 407.567813) scale(0.1 -0.1)">
      <defs>
       <path id="DejaVuSans-6e" d="M 3513 2113 
L 3513 0 
L 2938 0 
L 2938 2094 
Q 2938 2591 2744 2837 
Q 2550 3084 2163 3084 
Q 1697 3084 1428 2787 
Q 1159 2491 1159 1978 
L 1159 0 
L 581 0 
L 581 3500 
L 1159 3500 
L 1159 2956 
Q 1366 3272 1645 3428 
Q 1925 3584 2291 3584 
Q 2894 3584 3203 3211 
Q 3513 2838 3513 2113 
z
" transform="scale(0.015625)"/>
       <path id="DejaVuSans-77" d="M 269 3500 
L 844 3500 
L 1563 769 
L 2278 3500 
L 2956 3500 
L 3675 769 
L 4391 3500 
L 4966 3500 
L 4050 0 
L 3372 0 
L 2619 2869 
L 1863 0 
L 1184 0 
L 269 3500 
z
" transform="scale(0.015625)"/>
       <path id="DejaVuSans-5f" d="M 3263 -1063 
L 3263 -1509 
L -63 -1509 
L -63 -1063 
L 3263 -1063 
z
" transform="scale(0.015625)"/>
      </defs>
      <use xlink:href="#DejaVuSans-6e"/>
      <use xlink:href="#DejaVuSans-77" x="63.378906"/>
      <use xlink:href="#DejaVuSans-5f" x="145.166016"/>
      <use xlink:href="#DejaVuSans-30" x="195.166016"/>
     </g>
    </g>
    <g id="line2d_18">
     <path d="M 897.915625 419.024063 
L 907.915625 419.024063 
L 917.915625 419.024063 
" style="fill: none; stroke: #ff7f0e; stroke-width: 1.5; stroke-linecap: square"/>
    </g>
    <g id="text_16">
     <!-- input_0 -->
     <g transform="translate(925.915625 422.524063) scale(0.1 -0.1)">
      <defs>
       <path id="DejaVuSans-69" d="M 603 3500 
L 1178 3500 
L 1178 0 
L 603 0 
L 603 3500 
z
M 603 4863 
L 1178 4863 
L 1178 4134 
L 603 4134 
L 603 4863 
z
" transform="scale(0.015625)"/>
       <path id="DejaVuSans-70" d="M 1159 525 
L 1159 -1331 
L 581 -1331 
L 581 3500 
L 1159 3500 
L 1159 2969 
Q 1341 3281 1617 3432 
Q 1894 3584 2278 3584 
Q 2916 3584 3314 3078 
Q 3713 2572 3713 1747 
Q 3713 922 3314 415 
Q 2916 -91 2278 -91 
Q 1894 -91 1617 61 
Q 1341 213 1159 525 
z
M 3116 1747 
Q 3116 2381 2855 2742 
Q 2594 3103 2138 3103 
Q 1681 3103 1420 2742 
Q 1159 2381 1159 1747 
Q 1159 1113 1420 752 
Q 1681 391 2138 391 
Q 2594 391 2855 752 
Q 3116 1113 3116 1747 
z
" transform="scale(0.015625)"/>
       <path id="DejaVuSans-75" d="M 544 1381 
L 544 3500 
L 1119 3500 
L 1119 1403 
Q 1119 906 1312 657 
Q 1506 409 1894 409 
Q 2359 409 2629 706 
Q 2900 1003 2900 1516 
L 2900 3500 
L 3475 3500 
L 3475 0 
L 2900 0 
L 2900 538 
Q 2691 219 2414 64 
Q 2138 -91 1772 -91 
Q 1169 -91 856 284 
Q 544 659 544 1381 
z
M 1991 3584 
L 1991 3584 
z
" transform="scale(0.015625)"/>
      </defs>
      <use xlink:href="#DejaVuSans-69"/>
      <use xlink:href="#DejaVuSans-6e" x="27.783203"/>
      <use xlink:href="#DejaVuSans-70" x="91.162109"/>
      <use xlink:href="#DejaVuSans-75" x="154.638672"/>
      <use xlink:href="#DejaVuSans-74" x="218.017578"/>
      <use xlink:href="#DejaVuSans-5f" x="257.226562"/>
      <use xlink:href="#DejaVuSans-30" x="307.226562"/>
     </g>
    </g>
    <g id="line2d_19">
     <path d="M 897.915625 433.980312 
L 907.915625 433.980312 
L 917.915625 433.980312 
" style="fill: none; stroke: #000000; stroke-width: 1.5; stroke-linecap: square"/>
     <g>
      <use xlink:href="#m0d06ba0179" x="907.915625" y="433.980312" style="stroke: #000000"/>
     </g>
    </g>
    <g id="text_17">
     <!-- target -->
     <g transform="translate(925.915625 437.480312) scale(0.1 -0.1)">
      <defs>
       <path id="DejaVuSans-61" d="M 2194 1759 
Q 1497 1759 1228 1600 
Q 959 1441 959 1056 
Q 959 750 1161 570 
Q 1363 391 1709 391 
Q 2188 391 2477 730 
Q 2766 1069 2766 1631 
L 2766 1759 
L 2194 1759 
z
M 3341 1997 
L 3341 0 
L 2766 0 
L 2766 531 
Q 2569 213 2275 61 
Q 1981 -91 1556 -91 
Q 1019 -91 701 211 
Q 384 513 384 1019 
Q 384 1609 779 1909 
Q 1175 2209 1959 2209 
L 2766 2209 
L 2766 2266 
Q 2766 2663 2505 2880 
Q 2244 3097 1772 3097 
Q 1472 3097 1187 3025 
Q 903 2953 641 2809 
L 641 3341 
Q 956 3463 1253 3523 
Q 1550 3584 1831 3584 
Q 2591 3584 2966 3190 
Q 3341 2797 3341 1997 
z
" transform="scale(0.015625)"/>
       <path id="DejaVuSans-72" d="M 2631 2963 
Q 2534 3019 2420 3045 
Q 2306 3072 2169 3072 
Q 1681 3072 1420 2755 
Q 1159 2438 1159 1844 
L 1159 0 
L 581 0 
L 581 3500 
L 1159 3500 
L 1159 2956 
Q 1341 3275 1631 3429 
Q 1922 3584 2338 3584 
Q 2397 3584 2469 3576 
Q 2541 3569 2628 3553 
L 2631 2963 
z
" transform="scale(0.015625)"/>
       <path id="DejaVuSans-67" d="M 2906 1791 
Q 2906 2416 2648 2759 
Q 2391 3103 1925 3103 
Q 1463 3103 1205 2759 
Q 947 2416 947 1791 
Q 947 1169 1205 825 
Q 1463 481 1925 481 
Q 2391 481 2648 825 
Q 2906 1169 2906 1791 
z
M 3481 434 
Q 3481 -459 3084 -895 
Q 2688 -1331 1869 -1331 
Q 1566 -1331 1297 -1286 
Q 1028 -1241 775 -1147 
L 775 -588 
Q 1028 -725 1275 -790 
Q 1522 -856 1778 -856 
Q 2344 -856 2625 -561 
Q 2906 -266 2906 331 
L 2906 616 
Q 2728 306 2450 153 
Q 2172 0 1784 0 
Q 1141 0 747 490 
Q 353 981 353 1791 
Q 353 2603 747 3093 
Q 1141 3584 1784 3584 
Q 2172 3584 2450 3431 
Q 2728 3278 2906 2969 
L 2906 3500 
L 3481 3500 
L 3481 434 
z
" transform="scale(0.015625)"/>
       <path id="DejaVuSans-65" d="M 3597 1894 
L 3597 1613 
L 953 1613 
Q 991 1019 1311 708 
Q 1631 397 2203 397 
Q 2534 397 2845 478 
Q 3156 559 3463 722 
L 3463 178 
Q 3153 47 2828 -22 
Q 2503 -91 2169 -91 
Q 1331 -91 842 396 
Q 353 884 353 1716 
Q 353 2575 817 3079 
Q 1281 3584 2069 3584 
Q 2775 3584 3186 3129 
Q 3597 2675 3597 1894 
z
M 3022 2063 
Q 3016 2534 2758 2815 
Q 2500 3097 2075 3097 
Q 1594 3097 1305 2825 
Q 1016 2553 972 2059 
L 3022 2063 
z
" transform="scale(0.015625)"/>
      </defs>
      <use xlink:href="#DejaVuSans-74"/>
      <use xlink:href="#DejaVuSans-61" x="39.208984"/>
      <use xlink:href="#DejaVuSans-72" x="100.488281"/>
      <use xlink:href="#DejaVuSans-67" x="139.851562"/>
      <use xlink:href="#DejaVuSans-65" x="203.328125"/>
      <use xlink:href="#DejaVuSans-74" x="264.851562"/>
     </g>
    </g>
   </g>
  </g>
 </g>
 <defs>
  <clipPath id="pfd9c2d15a1">
   <rect x="135" y="60.48" width="837" height="388.08"/>
  </clipPath>
 </defs>
</svg>
