<?xml version="1.0" encoding="utf-8" standalone="no"?>
<!DOCTYPE svg PUBLIC "-//W3C//DTD SVG 1.1//EN"
  "http://www.w3.org/Graphics/SVG/1.1/DTD/svg11.dtd">
<svg xmlns:xlink="http://www.w3.org/1999/xlink" width="1080pt" height="504pt" viewBox="0 0 1080 504" xmlns="http://www.w3.org/2000/svg" version="1.1">
 <metadata>
  <rdf:RDF xmlns:dc="http://purl.org/dc/elements/1.1/" xmlns:cc="http://creativecommons.org/ns#" xmlns:rdf="http://www.w3.org/1999/02/22-rdf-syntax-ns#">
   <cc:Work>
    <dc:type rdf:resource="http://purl.org/dc/dcmitype/StillImage"/>
    <dc:date>2024-05-09T11:05:22.373849</dc:date>
    <dc:format>image/svg+xml</dc:format>
    <dc:creator>
     <cc:Agent>
      <dc:title>Matplotlib v3.7.1, https://matplotlib.org/</dc:title>
     </cc:Agent>
    </dc:creator>
   </cc:Work>
  </rdf:RDF>
 </metadata>
 <defs>
  <style type="text/css">*{stroke-linejoin: round; stroke-linecap: butt}</style>
 </defs>
 <g id="figure_1">
  <g id="patch_1">
   <path d="M 0 504 
L 1080 504 
L 1080 0 
L 0 0 
z
" style="fill: #ffffff"/>
  </g>
  <g id="axes_1">
   <g id="patch_2">
    <path d="M 135 448.56 
L 972 448.56 
L 972 60.48 
L 135 60.48 
z
" style="fill: #ffffff"/>
   </g>
   <g id="matplotlib.axis_1">
    <g id="xtick_1">
     <g id="line2d_1">
      <defs>
       <path id="mf45263b6db" d="M 0 0 
L 0 3.5 
" style="stroke: #000000; stroke-width: 0.8"/>
      </defs>
      <g>
       <use xlink:href="#mf45263b6db" x="173.045455" y="448.56" style="stroke: #000000; stroke-width: 0.8"/>
      </g>
     </g>
     <g id="text_1">
      <!-- 0 -->
      <g transform="translate(169.864205 463.158437) scale(0.1 -0.1)">
       <defs>
        <path id="DejaVuSans-30" d="M 2034 4250 
Q 1547 4250 1301 3770 
Q 1056 3291 1056 2328 
Q 1056 1369 1301 889 
Q 1547 409 2034 409 
Q 2525 409 2770 889 
Q 3016 1369 3016 2328 
Q 3016 3291 2770 3770 
Q 2525 4250 2034 4250 
z
M 2034 4750 
Q 2819 4750 3233 4129 
Q 3647 3509 3647 2328 
Q 3647 1150 3233 529 
Q 2819 -91 2034 -91 
Q 1250 -91 836 529 
Q 422 1150 422 2328 
Q 422 3509 836 4129 
Q 1250 4750 2034 4750 
z
" transform="scale(0.015625)"/>
       </defs>
       <use xlink:href="#DejaVuSans-30"/>
      </g>
     </g>
    </g>
    <g id="xtick_2">
     <g id="line2d_2">
      <g>
       <use xlink:href="#mf45263b6db" x="333.33808" y="448.56" style="stroke: #000000; stroke-width: 0.8"/>
      </g>
     </g>
     <g id="text_2">
      <!-- 1000 -->
      <g transform="translate(320.61308 463.158437) scale(0.1 -0.1)">
       <defs>
        <path id="DejaVuSans-31" d="M 794 531 
L 1825 531 
L 1825 4091 
L 703 3866 
L 703 4441 
L 1819 4666 
L 2450 4666 
L 2450 531 
L 3481 531 
L 3481 0 
L 794 0 
L 794 531 
z
" transform="scale(0.015625)"/>
       </defs>
       <use xlink:href="#DejaVuSans-31"/>
       <use xlink:href="#DejaVuSans-30" x="63.623047"/>
       <use xlink:href="#DejaVuSans-30" x="127.246094"/>
       <use xlink:href="#DejaVuSans-30" x="190.869141"/>
      </g>
     </g>
    </g>
    <g id="xtick_3">
     <g id="line2d_3">
      <g>
       <use xlink:href="#mf45263b6db" x="493.630705" y="448.56" style="stroke: #000000; stroke-width: 0.8"/>
      </g>
     </g>
     <g id="text_3">
      <!-- 2000 -->
      <g transform="translate(480.905705 463.158437) scale(0.1 -0.1)">
       <defs>
        <path id="DejaVuSans-32" d="M 1228 531 
L 3431 531 
L 3431 0 
L 469 0 
L 469 531 
Q 828 903 1448 1529 
Q 2069 2156 2228 2338 
Q 2531 2678 2651 2914 
Q 2772 3150 2772 3378 
Q 2772 3750 2511 3984 
Q 2250 4219 1831 4219 
Q 1534 4219 1204 4116 
Q 875 4013 500 3803 
L 500 4441 
Q 881 4594 1212 4672 
Q 1544 4750 1819 4750 
Q 2544 4750 2975 4387 
Q 3406 4025 3406 3419 
Q 3406 3131 3298 2873 
Q 3191 2616 2906 2266 
Q 2828 2175 2409 1742 
Q 1991 1309 1228 531 
z
" transform="scale(0.015625)"/>
       </defs>
       <use xlink:href="#DejaVuSans-32"/>
       <use xlink:href="#DejaVuSans-30" x="63.623047"/>
       <use xlink:href="#DejaVuSans-30" x="127.246094"/>
       <use xlink:href="#DejaVuSans-30" x="190.869141"/>
      </g>
     </g>
    </g>
    <g id="xtick_4">
     <g id="line2d_4">
      <g>
       <use xlink:href="#mf45263b6db" x="653.92333" y="448.56" style="stroke: #000000; stroke-width: 0.8"/>
      </g>
     </g>
     <g id="text_4">
      <!-- 3000 -->
      <g transform="translate(641.19833 463.158437) scale(0.1 -0.1)">
       <defs>
        <path id="DejaVuSans-33" d="M 2597 2516 
Q 3050 2419 3304 2112 
Q 3559 1806 3559 1356 
Q 3559 666 3084 287 
Q 2609 -91 1734 -91 
Q 1441 -91 1130 -33 
Q 819 25 488 141 
L 488 750 
Q 750 597 1062 519 
Q 1375 441 1716 441 
Q 2309 441 2620 675 
Q 2931 909 2931 1356 
Q 2931 1769 2642 2001 
Q 2353 2234 1838 2234 
L 1294 2234 
L 1294 2753 
L 1863 2753 
Q 2328 2753 2575 2939 
Q 2822 3125 2822 3475 
Q 2822 3834 2567 4026 
Q 2313 4219 1838 4219 
Q 1578 4219 1281 4162 
Q 984 4106 628 3988 
L 628 4550 
Q 988 4650 1302 4700 
Q 1616 4750 1894 4750 
Q 2613 4750 3031 4423 
Q 3450 4097 3450 3541 
Q 3450 3153 3228 2886 
Q 3006 2619 2597 2516 
z
" transform="scale(0.015625)"/>
       </defs>
       <use xlink:href="#DejaVuSans-33"/>
       <use xlink:href="#DejaVuSans-30" x="63.623047"/>
       <use xlink:href="#DejaVuSans-30" x="127.246094"/>
       <use xlink:href="#DejaVuSans-30" x="190.869141"/>
      </g>
     </g>
    </g>
    <g id="xtick_5">
     <g id="line2d_5">
      <g>
       <use xlink:href="#mf45263b6db" x="814.215955" y="448.56" style="stroke: #000000; stroke-width: 0.8"/>
      </g>
     </g>
     <g id="text_5">
      <!-- 4000 -->
      <g transform="translate(801.490955 463.158437) scale(0.1 -0.1)">
       <defs>
        <path id="DejaVuSans-34" d="M 2419 4116 
L 825 1625 
L 2419 1625 
L 2419 4116 
z
M 2253 4666 
L 3047 4666 
L 3047 1625 
L 3713 1625 
L 3713 1100 
L 3047 1100 
L 3047 0 
L 2419 0 
L 2419 1100 
L 313 1100 
L 313 1709 
L 2253 4666 
z
" transform="scale(0.015625)"/>
       </defs>
       <use xlink:href="#DejaVuSans-34"/>
       <use xlink:href="#DejaVuSans-30" x="63.623047"/>
       <use xlink:href="#DejaVuSans-30" x="127.246094"/>
       <use xlink:href="#DejaVuSans-30" x="190.869141"/>
      </g>
     </g>
    </g>
    <g id="text_6">
     <!-- t -->
     <g transform="translate(551.539844 476.836563) scale(0.1 -0.1)">
      <defs>
       <path id="DejaVuSans-74" d="M 1172 4494 
L 1172 3500 
L 2356 3500 
L 2356 3053 
L 1172 3053 
L 1172 1153 
Q 1172 725 1289 603 
Q 1406 481 1766 481 
L 2356 481 
L 2356 0 
L 1766 0 
Q 1100 0 847 248 
Q 594 497 594 1153 
L 594 3053 
L 172 3053 
L 172 3500 
L 594 3500 
L 594 4494 
L 1172 4494 
z
" transform="scale(0.015625)"/>
      </defs>
      <use xlink:href="#DejaVuSans-74"/>
     </g>
    </g>
   </g>
   <g id="matplotlib.axis_2">
    <g id="ytick_1">
     <g id="line2d_6">
      <defs>
       <path id="m34c8e93e05" d="M 0 0 
L -3.5 0 
" style="stroke: #000000; stroke-width: 0.8"/>
      </defs>
      <g>
       <use xlink:href="#m34c8e93e05" x="135" y="415.877303" style="stroke: #000000; stroke-width: 0.8"/>
      </g>
     </g>
     <g id="text_7">
      <!-- 0.0 -->
      <g transform="translate(112.096875 419.676522) scale(0.1 -0.1)">
       <defs>
        <path id="DejaVuSans-2e" d="M 684 794 
L 1344 794 
L 1344 0 
L 684 0 
L 684 794 
z
" transform="scale(0.015625)"/>
       </defs>
       <use xlink:href="#DejaVuSans-30"/>
       <use xlink:href="#DejaVuSans-2e" x="63.623047"/>
       <use xlink:href="#DejaVuSans-30" x="95.410156"/>
      </g>
     </g>
    </g>
    <g id="ytick_2">
     <g id="line2d_7">
      <g>
       <use xlink:href="#m34c8e93e05" x="135" y="348.325843" style="stroke: #000000; stroke-width: 0.8"/>
      </g>
     </g>
     <g id="text_8">
      <!-- 0.2 -->
      <g transform="translate(112.096875 352.125061) scale(0.1 -0.1)">
       <use xlink:href="#DejaVuSans-30"/>
       <use xlink:href="#DejaVuSans-2e" x="63.623047"/>
       <use xlink:href="#DejaVuSans-32" x="95.410156"/>
      </g>
     </g>
    </g>
    <g id="ytick_3">
     <g id="line2d_8">
      <g>
       <use xlink:href="#m34c8e93e05" x="135" y="280.774382" style="stroke: #000000; stroke-width: 0.8"/>
      </g>
     </g>
     <g id="text_9">
      <!-- 0.4 -->
      <g transform="translate(112.096875 284.573601) scale(0.1 -0.1)">
       <use xlink:href="#DejaVuSans-30"/>
       <use xlink:href="#DejaVuSans-2e" x="63.623047"/>
       <use xlink:href="#DejaVuSans-34" x="95.410156"/>
      </g>
     </g>
    </g>
    <g id="ytick_4">
     <g id="line2d_9">
      <g>
       <use xlink:href="#m34c8e93e05" x="135" y="213.222921" style="stroke: #000000; stroke-width: 0.8"/>
      </g>
     </g>
     <g id="text_10">
      <!-- 0.6 -->
      <g transform="translate(112.096875 217.02214) scale(0.1 -0.1)">
       <defs>
        <path id="DejaVuSans-36" d="M 2113 2584 
Q 1688 2584 1439 2293 
Q 1191 2003 1191 1497 
Q 1191 994 1439 701 
Q 1688 409 2113 409 
Q 2538 409 2786 701 
Q 3034 994 3034 1497 
Q 3034 2003 2786 2293 
Q 2538 2584 2113 2584 
z
M 3366 4563 
L 3366 3988 
Q 3128 4100 2886 4159 
Q 2644 4219 2406 4219 
Q 1781 4219 1451 3797 
Q 1122 3375 1075 2522 
Q 1259 2794 1537 2939 
Q 1816 3084 2150 3084 
Q 2853 3084 3261 2657 
Q 3669 2231 3669 1497 
Q 3669 778 3244 343 
Q 2819 -91 2113 -91 
Q 1303 -91 875 529 
Q 447 1150 447 2328 
Q 447 3434 972 4092 
Q 1497 4750 2381 4750 
Q 2619 4750 2861 4703 
Q 3103 4656 3366 4563 
z
" transform="scale(0.015625)"/>
       </defs>
       <use xlink:href="#DejaVuSans-30"/>
       <use xlink:href="#DejaVuSans-2e" x="63.623047"/>
       <use xlink:href="#DejaVuSans-36" x="95.410156"/>
      </g>
     </g>
    </g>
    <g id="ytick_5">
     <g id="line2d_10">
      <g>
       <use xlink:href="#m34c8e93e05" x="135" y="145.671461" style="stroke: #000000; stroke-width: 0.8"/>
      </g>
     </g>
     <g id="text_11">
      <!-- 0.8 -->
      <g transform="translate(112.096875 149.470679) scale(0.1 -0.1)">
       <defs>
        <path id="DejaVuSans-38" d="M 2034 2216 
Q 1584 2216 1326 1975 
Q 1069 1734 1069 1313 
Q 1069 891 1326 650 
Q 1584 409 2034 409 
Q 2484 409 2743 651 
Q 3003 894 3003 1313 
Q 3003 1734 2745 1975 
Q 2488 2216 2034 2216 
z
M 1403 2484 
Q 997 2584 770 2862 
Q 544 3141 544 3541 
Q 544 4100 942 4425 
Q 1341 4750 2034 4750 
Q 2731 4750 3128 4425 
Q 3525 4100 3525 3541 
Q 3525 3141 3298 2862 
Q 3072 2584 2669 2484 
Q 3125 2378 3379 2068 
Q 3634 1759 3634 1313 
Q 3634 634 3220 271 
Q 2806 -91 2034 -91 
Q 1263 -91 848 271 
Q 434 634 434 1313 
Q 434 1759 690 2068 
Q 947 2378 1403 2484 
z
M 1172 3481 
Q 1172 3119 1398 2916 
Q 1625 2713 2034 2713 
Q 2441 2713 2670 2916 
Q 2900 3119 2900 3481 
Q 2900 3844 2670 4047 
Q 2441 4250 2034 4250 
Q 1625 4250 1398 4047 
Q 1172 3844 1172 3481 
z
" transform="scale(0.015625)"/>
       </defs>
       <use xlink:href="#DejaVuSans-30"/>
       <use xlink:href="#DejaVuSans-2e" x="63.623047"/>
       <use xlink:href="#DejaVuSans-38" x="95.410156"/>
      </g>
     </g>
    </g>
    <g id="ytick_6">
     <g id="line2d_11">
      <g>
       <use xlink:href="#m34c8e93e05" x="135" y="78.12" style="stroke: #000000; stroke-width: 0.8"/>
      </g>
     </g>
     <g id="text_12">
      <!-- 1.0 -->
      <g transform="translate(112.096875 81.919219) scale(0.1 -0.1)">
       <use xlink:href="#DejaVuSans-31"/>
       <use xlink:href="#DejaVuSans-2e" x="63.623047"/>
       <use xlink:href="#DejaVuSans-30" x="95.410156"/>
      </g>
     </g>
    </g>
   </g>
   <g id="line2d_12">
    <path d="M 173.045455 407.128296 
L 173.846918 371.865438 
L 174.488088 352.77676 
L 175.129259 340.674776 
L 175.610137 335.62006 
L 175.930722 333.963452 
L 176.091014 333.61127 
L 176.251307 333.560442 
L 176.4116 333.799313 
L 176.732185 335.101065 
L 177.213063 338.952348 
L 177.693941 344.839057 
L 178.495404 372.662828 
L 179.296867 393.865664 
L 180.09833 409.42148 
L 180.739501 418.380152 
L 181.380671 424.666227 
L 182.021842 428.631543 
L 182.502719 430.274124 
L 182.823305 430.803566 
L 183.14389 430.92 
L 183.464475 430.655245 
L 183.78506 430.039409 
L 184.265938 428.519251 
L 184.907109 425.516572 
L 185.708572 420.461775 
L 186.670328 412.916818 
L 188.112961 399.555325 
L 190.837936 371.5086 
L 193.562911 344.371851 
L 195.326129 328.840711 
L 196.929056 316.573264 
L 198.371689 307.183084 
L 199.65403 300.185449 
L 200.936371 294.450338 
L 202.05842 290.442086 
L 203.020175 287.729942 
L 203.981931 285.657844 
L 204.783394 284.398542 
L 205.584857 283.544375 
L 206.226028 283.13965 
L 206.867198 282.971457 
L 207.508369 283.029342 
L 208.149539 283.302748 
L 208.951003 283.931433 
L 209.752466 284.859633 
L 210.714221 286.339967 
L 211.83627 288.528301 
L 213.118611 291.571563 
L 213.278903 291.988978 
L 214.080367 254.303389 
L 214.721537 233.767797 
L 215.362708 220.614004 
L 215.843585 215.008705 
L 216.164171 213.090916 
L 216.484756 212.506992 
L 216.645049 212.684373 
L 216.965634 213.918896 
L 217.286219 216.251442 
L 217.767097 221.622471 
L 218.087682 226.334284 
L 219.049438 262.734532 
L 220.011194 290.004299 
L 220.812657 306.913259 
L 221.61412 319.395562 
L 222.415583 328.154217 
L 223.056754 332.896364 
L 223.697924 335.92949 
L 224.178802 337.234021 
L 224.499387 337.695453 
L 224.819972 337.861244 
L 225.140558 337.756279 
L 225.461143 337.404052 
L 225.942021 336.460232 
L 226.583191 334.532826 
L 227.384654 331.254229 
L 228.506703 325.48486 
L 230.109629 315.863238 
L 233.956652 292.353853 
L 235.559578 284.117283 
L 236.841919 278.577577 
L 237.963968 274.574273 
L 239.086016 271.389117 
L 240.047772 269.315325 
L 240.849235 268.04561 
L 241.650698 267.184563 
L 242.291869 266.782828 
L 242.933039 266.629159 
L 243.57421 266.716072 
L 244.21538 267.035393 
L 244.856551 267.578384 
L 245.658014 268.557629 
L 246.619769 270.148712 
L 247.741818 272.536303 
L 249.024159 275.899502 
L 250.466792 280.395665 
L 252.069719 286.144032 
L 253.99323 293.885504 
L 254.794693 256.489649 
L 255.435864 236.197226 
L 256.077034 223.291698 
L 256.557912 217.873688 
L 256.878497 216.080544 
L 257.03879 215.690232 
L 257.199083 215.620703 
L 257.359375 215.859822 
L 257.679961 217.217048 
L 258.000546 219.671065 
L 258.481424 225.221533 
L 258.802009 230.050864 
L 259.763765 267.498827 
L 260.72552 295.748216 
L 261.526984 313.421119 
L 262.328447 326.619812 
L 263.12991 336.047691 
L 263.77108 341.291669 
L 264.412251 344.797243 
L 264.893129 346.437112 
L 265.374007 347.336102 
L 265.694592 347.56756 
L 266.015177 347.533227 
L 266.335762 347.256 
L 266.81664 346.431647 
L 267.457811 344.673834 
L 268.259274 341.618572 
L 269.22103 337.014621 
L 270.663663 328.916135 
L 275.312149 301.888522 
L 276.754783 295.005255 
L 278.037124 289.857745 
L 279.159172 286.165541 
L 280.281221 283.254346 
L 281.242976 281.382128 
L 282.04444 280.255322 
L 282.845903 279.513532 
L 283.487073 279.189841 
L 284.128244 279.098645 
L 284.769414 279.232437 
L 285.410585 279.583103 
L 286.212048 280.313273 
L 287.013511 281.351224 
L 287.975267 282.977271 
L 289.097315 285.358033 
L 290.379656 288.653189 
L 291.82229 293.000432 
L 293.585509 299.08401 
L 294.386972 260.948443 
L 295.028142 240.073413 
L 295.669313 226.593812 
L 296.150191 220.751111 
L 296.470776 218.677745 
L 296.791361 217.940079 
L 296.951654 218.041205 
L 297.272239 219.124323 
L 297.592824 221.306792 
L 298.073702 226.45488 
L 298.394287 231.019343 
L 299.356043 268.099797 
L 300.317799 296.01686 
L 301.119262 313.436934 
L 301.920725 326.402604 
L 302.722188 335.615501 
L 303.363359 340.699408 
L 304.004529 344.054697 
L 304.485407 345.587863 
L 304.966285 346.385004 
L 305.28687 346.551136 
L 305.607455 346.453452 
L 305.928041 346.114783 
L 306.408919 345.201705 
L 307.050089 343.331691 
L 307.851552 340.145346 
L 308.973601 334.530786 
L 310.576527 325.153425 
L 314.42355 302.162408 
L 316.026476 294.063312 
L 317.308817 288.58904 
L 318.430865 284.60828 
L 319.552914 281.412481 
L 320.51467 279.303103 
L 321.316133 277.985286 
L 322.117596 277.059688 
L 322.758766 276.59474 
L 323.399937 276.367837 
L 324.041107 276.371775 
L 324.682278 276.598684 
L 325.323448 277.04015 
L 326.124911 277.880199 
L 327.086667 279.287157 
L 328.048423 281.098949 
L 329.170471 283.680783 
L 330.452812 287.184995 
L 332.055739 292.283439 
L 333.818957 298.65219 
L 334.620421 259.912614 
L 335.261591 238.575182 
L 335.902762 224.651028 
L 336.383639 218.486297 
L 336.704225 216.203546 
L 337.02481 215.260667 
L 337.185103 215.260732 
L 337.345395 215.559273 
L 337.66598 217.006068 
L 338.146858 221.136969 
L 338.627736 227.374465 
L 339.589492 264.666792 
L 340.551248 292.786337 
L 341.352711 310.367685 
L 342.154174 323.487724 
L 342.955637 332.848055 
L 343.596808 338.044947 
L 344.237978 341.508863 
L 344.718856 343.120685 
L 345.199734 343.99411 
L 345.520319 344.209803 
L 345.840904 344.16066 
L 346.16149 343.869526 
L 346.642367 343.025901 
L 347.283538 341.245122 
L 348.085001 338.165107 
L 349.046757 333.536578 
L 350.48939 325.410251 
L 355.137877 298.350989 
L 356.58051 291.473372 
L 357.862851 286.336743 
L 358.9849 282.65863 
L 360.106948 279.765875 
L 361.068704 277.913003 
L 361.870167 276.80487 
L 362.67163 276.08412 
L 363.3128 275.778993 
L 363.953971 275.707925 
L 364.595141 275.863429 
L 365.236312 276.23741 
L 366.037775 276.999007 
L 366.839238 278.070948 
L 367.800994 279.741202 
L 368.923042 282.178299 
L 370.205383 285.544153 
L 371.648017 289.978999 
L 373.090651 294.997226 
L 373.892114 255.715474 
L 374.533284 233.972851 
L 375.174455 219.667795 
L 375.655333 213.232782 
L 375.975918 210.776977 
L 376.296503 209.666634 
L 376.456796 209.585034 
L 376.617088 209.803272 
L 376.937674 211.093503 
L 377.258259 213.448813 
L 377.739137 218.796613 
L 377.899429 221.023748 
L 378.861185 258.402768 
L 379.822941 286.627863 
L 380.624404 304.310138 
L 381.425867 317.541751 
L 382.22733 327.023301 
L 382.868501 332.323478 
L 383.509671 335.895792 
L 383.990549 337.592006 
L 384.471427 338.55228 
L 384.792012 338.827152 
L 385.112597 338.838155 
L 385.433183 338.608087 
L 385.914061 337.857682 
L 386.555231 336.203991 
L 387.356694 333.286837 
L 388.31845 328.858765 
L 389.761084 321.041243 
L 394.40957 295.009638 
L 395.852203 288.451531 
L 397.134544 283.596016 
L 398.256593 280.160589 
L 399.218348 277.837716 
L 400.180104 276.090503 
L 400.981567 275.06903 
L 401.78303 274.434099 
L 402.424201 274.197226 
L 403.065371 274.19418 
L 403.706542 274.417563 
L 404.347712 274.85934 
L 405.149176 275.705623 
L 406.110931 277.129177 
L 407.072687 278.967928 
L 408.194735 281.59456 
L 409.477076 285.167467 
L 411.080003 290.377115 
L 412.843222 296.898405 
L 413.644685 300.0878 
L 414.446148 260.629314 
L 415.087318 238.758934 
L 415.728489 224.336162 
L 416.209367 217.818446 
L 416.529952 215.309813 
L 416.850537 214.148291 
L 417.01083 214.041671 
L 417.171122 214.235243 
L 417.491708 215.477137 
L 417.812293 217.785322 
L 418.293171 223.064441 
L 418.453463 225.26916 
L 419.415219 262.890423 
L 420.376975 291.320515 
L 421.178438 309.146919 
L 421.979901 322.499853 
L 422.781364 332.081263 
L 423.422535 337.446757 
L 424.063705 341.072147 
L 424.544583 342.800516 
L 425.025461 343.78668 
L 425.346046 344.075457 
L 425.666632 344.097771 
L 425.987217 343.87649 
L 426.468095 343.134696 
L 427.109265 341.484323 
L 427.910728 338.558973 
L 428.872484 334.104322 
L 430.315118 326.216206 
L 435.123896 298.962674 
L 436.56653 292.349741 
L 437.848871 287.446422 
L 438.970919 283.966751 
L 439.932675 281.60271 
L 440.894431 279.810477 
L 441.695894 278.748139 
L 442.497357 278.069069 
L 443.138528 277.794437 
L 443.779698 277.75142 
L 444.420869 277.932611 
L 445.062039 278.32999 
L 445.863502 279.117724 
L 446.664965 280.212471 
L 447.626721 281.905877 
L 448.74877 284.364431 
L 450.031111 287.747861 
L 451.473744 292.194135 
L 453.236963 298.39908 
L 453.557548 299.604915 
L 454.359011 259.840637 
L 455.000182 237.745919 
L 455.641352 223.115352 
L 456.12223 216.451916 
L 456.442816 213.850703 
L 456.763401 212.600109 
L 456.923693 212.450231 
L 457.083986 212.601379 
L 457.404571 213.76087 
L 457.725157 215.98983 
L 458.206034 221.155853 
L 458.366327 223.32436 
L 459.328083 260.822754 
L 460.289839 289.140525 
L 461.091302 306.881415 
L 461.892765 320.156163 
L 462.694228 329.666648 
L 463.335398 334.980562 
L 463.976569 338.558889 
L 464.457447 340.254878 
L 464.938325 341.211121 
L 465.25891 341.481298 
L 465.579495 341.486075 
L 465.90008 341.248308 
L 466.380958 340.483725 
L 467.022129 338.806513 
L 467.823592 335.853152 
L 468.785348 331.372694 
L 470.227981 323.460934 
L 474.876467 297.037329 
L 476.319101 290.340837 
L 477.601442 285.358986 
L 478.72349 281.811508 
L 479.685246 279.392078 
L 480.647002 277.548277 
L 481.448465 276.446562 
L 482.249928 275.731823 
L 482.891099 275.431535 
L 483.532269 275.365545 
L 484.17344 275.52653 
L 484.81461 275.906525 
L 485.616073 276.67654 
L 486.417536 277.758035 
L 487.379292 279.441381 
L 488.501341 281.896091 
L 489.783682 285.285149 
L 491.226315 289.749816 
L 492.989534 295.993171 
L 493.630705 298.443974 
L 494.432168 258.579489 
L 495.073338 236.423018 
L 495.714509 221.744962 
L 496.195387 215.054237 
L 496.515972 212.438431 
L 496.836557 211.175914 
L 496.99685 211.021024 
L 497.157142 211.167765 
L 497.477728 212.320184 
L 497.798313 214.544269 
L 498.279191 219.7068 
L 498.439483 221.875095 
L 499.401239 259.474477 
L 500.362995 287.879562 
L 501.164458 305.684045 
L 501.965921 319.01504 
L 502.767384 328.575261 
L 503.408555 333.924793 
L 504.049725 337.535414 
L 504.530603 339.253643 
L 505.011481 340.23057 
L 505.332066 340.513735 
L 505.652651 340.530896 
L 505.973237 340.304942 
L 506.454115 339.557078 
L 507.095285 337.900444 
L 507.896748 334.970354 
L 508.858504 330.514735 
L 510.301138 322.635133 
L 514.949624 296.290048 
L 516.392257 289.614118 
L 517.674598 284.650105 
L 518.796647 281.118186 
L 519.758402 278.712202 
L 520.720158 276.882048 
L 521.521621 275.791909 
L 522.323084 275.088968 
L 522.964255 274.798292 
L 523.605425 274.742084 
L 524.246596 274.913024 
L 524.887766 275.303154 
L 525.68923 276.086096 
L 526.490693 277.180805 
L 527.452448 278.880388 
L 528.574497 281.354549 
L 529.856838 284.766479 
L 531.299471 289.257633 
L 533.06269 295.53432 
L 533.864153 298.626496 
L 534.665617 258.709606 
L 535.306787 236.526218 
L 535.947958 221.83273 
L 536.428835 215.137043 
L 536.749421 212.520752 
L 537.070006 211.25982 
L 537.230299 211.106451 
L 537.390591 211.255174 
L 537.711176 212.412871 
L 538.031762 214.643876 
L 538.51264 219.819587 
L 538.672932 221.992964 
L 539.634688 259.645908 
L 540.596444 288.091058 
L 541.397907 305.920089 
L 542.19937 319.268717 
L 543.000833 328.8406 
L 543.642004 334.195731 
L 544.283174 337.809061 
L 544.764052 339.527642 
L 545.24493 340.503638 
L 545.565515 340.785531 
L 545.8861 340.800945 
L 546.206686 340.572801 
L 546.687563 339.820895 
L 547.328734 338.15762 
L 548.130197 335.217533 
L 549.091953 330.747953 
L 550.534586 322.844615 
L 555.183073 296.416369 
L 556.625706 289.716265 
L 557.908047 284.732349 
L 559.030096 281.184468 
L 559.991851 278.765987 
L 560.953607 276.924492 
L 561.75507 275.825817 
L 562.556533 275.115184 
L 563.197704 274.818971 
L 563.838874 274.757772 
L 564.480045 274.924268 
L 565.121215 275.310497 
L 565.922678 276.089318 
L 566.724142 277.180735 
L 567.685897 278.877436 
L 568.807946 281.349667 
L 570.090287 284.7612 
L 571.53292 289.254092 
L 573.296139 295.535819 
L 574.257895 299.266047 
L 575.059358 259.326694 
L 575.700529 237.137282 
L 576.341699 222.446877 
L 576.822577 215.758722 
L 577.143162 213.149664 
L 577.463747 211.897578 
L 577.62404 211.749197 
L 577.784333 211.903265 
L 578.104918 213.072658 
L 578.425503 215.316611 
L 578.906381 220.513852 
L 579.066674 222.694917 
L 580.028429 260.386879 
L 580.990185 288.858117 
L 581.791648 306.700481 
L 582.593111 320.055912 
L 583.394575 329.628999 
L 584.035745 334.981623 
L 584.676916 338.589781 
L 585.157793 340.302943 
L 585.638671 341.272354 
L 585.959257 341.549272 
L 586.279842 341.559282 
L 586.600427 341.325342 
L 587.081305 340.564072 
L 587.722475 338.88722 
L 588.523939 335.928713 
L 589.485694 331.435405 
L 590.928328 323.494325 
L 595.576814 296.942295 
L 597.019448 290.20661 
L 598.301789 285.193074 
L 599.423837 281.621035 
L 600.385593 279.183255 
L 601.347349 277.323818 
L 602.148812 276.211252 
L 602.950275 275.487709 
L 603.591445 275.181876 
L 604.232616 275.111688 
L 604.873786 275.269825 
L 605.514957 275.648321 
L 606.31642 276.418348 
L 607.117883 277.501924 
L 608.079639 279.190454 
L 609.201687 281.65481 
L 610.484028 285.059454 
L 611.926662 289.54716 
L 613.209003 294.036758 
L 614.010466 253.969194 
L 614.651636 231.694785 
L 615.292807 216.934146 
L 615.773685 210.202564 
L 616.09427 207.568797 
L 616.414855 206.295297 
L 616.575148 206.137418 
L 616.735441 206.282783 
L 617.056026 207.437113 
L 617.376611 209.66906 
L 617.857489 214.853863 
L 618.017782 217.03223 
L 618.979537 254.644972 
L 619.941293 283.06089 
L 620.742756 300.87477 
L 621.544219 314.217117 
L 622.345682 323.791892 
L 622.986853 329.156059 
L 623.628023 332.784438 
L 624.108901 334.518244 
L 624.589779 335.512819 
L 624.910364 335.808949 
L 625.23095 335.840063 
L 625.551535 335.629074 
L 626.032413 334.905588 
L 626.513291 333.753521 
L 627.154461 331.657133 
L 628.116217 327.574493 
L 629.398558 320.956861 
L 635.169092 289.437203 
L 636.451433 284.070139 
L 637.733774 279.663881 
L 638.855823 276.640221 
L 639.817579 274.676693 
L 640.619042 273.481226 
L 641.420505 272.679977 
L 642.061675 272.316575 
L 642.702846 272.193461 
L 643.344016 272.303723 
L 643.985187 272.639711 
L 644.78665 273.364501 
L 645.588113 274.411895 
L 646.549869 276.069166 
L 647.671917 278.513846 
L 648.954258 281.917748 
L 650.396892 286.431205 
L 652.160111 292.777061 
L 653.92333 299.855138 
L 654.724793 259.979801 
L 655.365963 237.858215 
L 656.007134 223.248076 
L 656.488012 216.627112 
L 656.808597 214.065754 
L 657.129182 212.863445 
L 657.289475 212.740669 
L 657.449767 212.920788 
L 657.770353 214.143528 
L 658.090938 216.442335 
L 658.571816 221.724314 
L 658.732108 223.934199 
L 659.693864 261.809241 
L 660.65562 290.436585 
L 661.457083 308.390816 
L 662.258546 321.843377 
L 663.060009 331.500401 
L 663.70118 336.911613 
L 664.34235 340.571458 
L 664.823228 342.319218 
L 665.304106 343.319913 
L 665.624691 343.615957 
L 665.945276 343.643782 
L 666.265862 343.426403 
L 666.74674 342.68775 
L 667.227617 341.514117 
L 667.868788 339.379591 
L 668.830544 335.22115 
L 670.112885 328.471427 
L 672.837859 312.42943 
L 674.921663 300.815811 
L 676.52459 293.121903 
L 677.806931 287.972819 
L 678.928979 284.274177 
L 680.051027 281.356294 
L 681.012783 279.48072 
L 681.814246 278.354106 
L 682.615709 277.616084 
L 683.25688 277.298423 
L 683.89805 277.216238 
L 684.539221 277.362247 
L 685.180391 277.728522 
L 685.981855 278.483188 
L 686.783318 279.551365 
L 687.745073 281.22143 
L 688.867122 283.664357 
L 690.149463 287.044775 
L 691.592096 291.505695 
L 693.355315 297.752634 
L 694.156778 300.833791 
L 694.958242 260.870868 
L 695.599412 238.683537 
L 696.240583 224.011456 
L 696.72146 217.346492 
L 697.042046 214.756951 
L 697.362631 213.527366 
L 697.522924 213.391287 
L 697.683216 213.558325 
L 698.003801 214.755558 
L 698.324387 217.029723 
L 698.805265 222.276325 
L 698.965557 224.474832 
L 699.927313 262.191248 
L 700.889069 290.670351 
L 701.690532 308.509124 
L 702.491995 321.853614 
L 703.293458 331.409929 
L 703.934629 336.745831 
L 704.575799 340.334978 
L 705.056677 342.0327 
L 705.537555 342.985878 
L 705.85814 343.251626 
L 706.178725 343.250245 
L 706.499311 343.00474 
L 706.980188 342.22589 
L 707.621359 340.52537 
L 708.422822 337.537308 
L 709.384578 333.009184 
L 710.827211 325.018545 
L 715.475698 298.342919 
L 716.918331 291.58237 
L 718.200672 286.552294 
L 719.322721 282.969976 
L 720.284476 280.526393 
L 721.246232 278.663814 
L 722.047695 277.550574 
L 722.849158 276.828041 
L 723.490329 276.524174 
L 724.131499 276.456935 
L 724.77267 276.618959 
L 725.41384 277.002235 
L 726.215303 277.779423 
L 727.016767 278.871399 
L 727.978522 280.571518 
L 729.100571 283.051286 
L 730.382912 286.475756 
L 731.825545 290.988185 
L 733.588764 297.300083 
L 734.069642 299.150562 
L 734.871105 259.179208 
L 735.512276 236.990307 
L 736.153446 222.320987 
L 736.634324 215.660783 
L 736.954909 213.075639 
L 737.275495 211.851394 
L 737.435787 211.718328 
L 737.59608 211.888603 
L 737.916665 213.092969 
L 738.23725 215.375118 
L 738.718128 220.635224 
L 738.878421 222.838626 
L 739.840177 260.586482 
L 740.801932 289.099498 
L 741.603395 306.968494 
L 742.404859 320.345015 
L 743.206322 329.935161 
L 743.847492 335.299402 
L 744.488663 338.917992 
L 744.969541 340.638501 
L 745.450418 341.615051 
L 745.771004 341.896697 
L 746.091589 341.91146 
L 746.412174 341.682339 
L 746.893052 340.928502 
L 747.534223 339.262111 
L 748.335686 336.317882 
L 749.297441 331.843928 
L 750.740075 323.937323 
L 755.388561 297.547337 
L 756.831195 290.877539 
L 758.113536 285.92806 
L 759.235584 282.415886 
L 760.19734 280.031945 
L 761.159096 278.228412 
L 761.960559 277.163825 
L 762.762022 276.489367 
L 763.403192 276.223497 
L 764.044363 276.193809 
L 764.685533 276.392907 
L 765.326704 276.812753 
L 766.128167 277.634904 
L 766.92963 278.770966 
L 767.891386 280.522768 
L 769.013434 283.061069 
L 770.295775 286.549996 
L 771.738409 291.131694 
L 773.501628 297.523415 
L 773.822213 298.765453 
L 774.623676 258.806821 
L 775.264847 236.630298 
L 775.906017 221.975125 
L 776.386895 215.326591 
L 776.70748 212.749695 
L 777.028066 211.534048 
L 777.188358 211.405407 
L 777.348651 211.580188 
L 777.669236 212.793799 
L 777.989821 215.085488 
L 778.470699 220.360421 
L 778.630992 222.568893 
L 779.592748 260.34569 
L 780.554503 288.887414 
L 781.355966 306.780239 
L 782.15743 320.18055 
L 782.958893 329.794479 
L 783.600063 335.177751 
L 784.241234 338.815381 
L 784.722112 340.550174 
L 785.202989 341.541012 
L 785.523575 341.832182 
L 785.84416 341.856468 
L 786.164745 341.636868 
L 786.645623 340.897303 
L 787.126501 339.725598 
L 787.767671 337.597926 
L 788.729427 333.458543 
L 790.011768 326.74955 
L 792.897035 309.916595 
L 794.98084 298.561094 
L 796.423473 291.80899 
L 797.705814 286.771163 
L 798.827863 283.175039 
L 799.789618 280.716797 
L 800.751374 278.838521 
L 801.552837 277.71226 
L 802.3543 276.977342 
L 802.995471 276.66432 
L 803.636641 276.588789 
L 804.277812 276.74353 
L 804.918982 277.120648 
L 805.720445 277.891851 
L 806.521909 278.979858 
L 807.483664 280.677975 
L 808.605713 283.159273 
L 809.888054 286.590532 
L 811.330687 291.116764 
L 813.093906 297.453704 
L 813.414491 298.687252 
L 814.215955 258.724297 
L 814.857125 236.544887 
L 815.498296 221.887344 
L 815.979173 215.237379 
L 816.299759 212.659692 
L 816.620344 211.443387 
L 816.780637 211.314467 
L 816.940929 211.489 
L 817.261514 212.702213 
L 817.5821 214.993632 
L 818.062978 220.268399 
L 818.22327 222.47688 
L 819.185026 260.248392 
L 820.146782 288.786879 
L 820.948245 306.678483 
L 821.749708 320.078836 
L 822.551171 329.693994 
L 823.192342 335.079052 
L 823.833512 338.719137 
L 824.31439 340.456186 
L 824.795268 341.449617 
L 825.115853 341.742694 
L 825.436438 341.769024 
L 825.757024 341.551599 
L 826.237901 340.815535 
L 826.718779 339.6476 
L 827.35995 337.525343 
L 828.321706 333.394843 
L 829.604047 326.698913 
L 832.489314 309.899096 
L 834.573118 298.569464 
L 836.015752 291.835649 
L 837.298093 286.814086 
L 838.420141 283.232062 
L 839.381897 280.785729 
L 840.343652 278.919141 
L 841.145116 277.802414 
L 841.946579 277.076816 
L 842.587749 276.771079 
L 843.22892 276.702671 
L 843.87009 276.864362 
L 844.511261 277.248249 
L 845.312724 278.027648 
L 846.114187 279.123541 
L 847.075943 280.830699 
L 848.197991 283.321941 
L 849.480332 286.763747 
L 850.922966 291.300782 
L 852.686185 297.649383 
L 854.609696 305.373771 
L 855.411159 265.523069 
L 856.05233 243.42353 
L 856.6935 228.836934 
L 857.174378 222.234275 
L 857.494963 219.685301 
L 857.815549 218.495441 
L 857.975841 218.378892 
L 858.136134 218.565229 
L 858.456719 219.800344 
L 858.777304 222.111392 
L 859.258182 227.411345 
L 859.418475 229.627087 
L 860.380231 267.485072 
L 861.341986 296.075945 
L 862.143449 313.987094 
L 862.944913 327.386659 
L 863.746376 336.982121 
L 864.387546 342.338736 
L 865.028717 345.939837 
L 865.509595 347.641127 
L 865.990472 348.593509 
L 866.311058 348.856411 
L 866.631643 348.850409 
L 866.952228 348.598569 
L 867.433106 347.807136 
L 868.074277 346.084396 
L 868.87574 343.060434 
L 869.837495 338.478399 
L 871.280129 330.387458 
L 876.088908 302.450188 
L 877.531541 295.649983 
L 878.813882 290.591818 
L 879.935931 286.986657 
L 880.897687 284.522931 
L 881.859442 282.638527 
L 882.660905 281.505211 
L 883.462369 280.760498 
L 884.103539 280.43719 
L 884.74471 280.34889 
L 885.38588 280.488164 
L 886.027051 280.846954 
L 886.828514 281.591058 
L 887.629977 282.647195 
L 888.591733 284.300717 
L 889.713781 286.72133 
L 890.996122 290.072213 
L 892.438756 294.494864 
L 894.201974 300.688204 
L 894.362267 301.288235 
L 895.16373 261.269641 
L 895.804901 239.041888 
L 896.446071 224.333119 
L 896.926949 217.643089 
L 897.247534 215.037994 
L 897.56812 213.793768 
L 897.728412 213.650708 
L 897.888705 213.810988 
L 898.20929 214.995369 
L 898.529875 217.257549 
L 899.010753 222.487759 
L 899.171046 224.681215 
L 900.132802 262.337997 
L 901.094557 290.763482 
L 901.89602 308.562455 
L 902.697484 321.871729 
L 903.498947 331.397477 
L 904.140117 336.712278 
L 904.781288 340.283284 
L 905.262166 341.96932 
L 905.743043 342.912436 
L 906.063629 343.172363 
L 906.384214 343.165864 
L 906.704799 342.915931 
L 907.185677 342.131715 
L 907.826848 340.426366 
L 908.628311 337.435869 
L 909.590066 332.909857 
L 911.0327 324.931931 
L 915.681186 298.361154 
L 917.12382 291.648345 
L 918.406161 286.665043 
L 919.528209 283.126372 
L 920.489965 280.721837 
L 921.451721 278.899516 
L 922.253184 277.820555 
L 923.054647 277.132809 
L 923.695817 276.857046 
L 924.336988 276.818082 
L 924.978158 277.008488 
L 925.619329 277.420193 
L 926.420792 278.2329 
L 927.222255 279.360276 
L 928.184011 281.102582 
L 929.306059 283.630974 
L 930.5884 287.109963 
L 932.031034 291.682041 
L 933.794253 298.063937 
L 933.954545 288.878413 
L 933.954545 288.878413 
" clip-path="url(#p13b29da55b)" style="fill: none; stroke: #1f77b4; stroke-width: 1.5; stroke-linecap: square"/>
   </g>
   <g id="line2d_13">
    <path d="M 173.045455 78.12 
L 177.693941 78.12 
L 177.854233 415.877303 
L 213.278903 415.877303 
L 213.439196 78.12 
L 218.087682 78.12 
L 218.247975 415.877303 
L 253.99323 415.877303 
L 254.153523 78.12 
L 258.802009 78.12 
L 258.962302 415.877303 
L 293.585509 415.877303 
L 293.745801 78.12 
L 298.394287 78.12 
L 298.55458 415.877303 
L 333.818957 415.877303 
L 333.97925 78.12 
L 338.627736 78.12 
L 338.788029 415.877303 
L 373.090651 415.877303 
L 373.250943 78.12 
L 377.899429 78.12 
L 378.059722 415.877303 
L 413.644685 415.877303 
L 413.804977 78.12 
L 418.453463 78.12 
L 418.613756 415.877303 
L 453.557548 415.877303 
L 453.717841 78.12 
L 458.366327 78.12 
L 458.52662 415.877303 
L 493.630705 415.877303 
L 493.790997 78.12 
L 498.439483 78.12 
L 498.599776 415.877303 
L 533.864153 415.877303 
L 534.024446 78.12 
L 538.672932 78.12 
L 538.833225 415.877303 
L 574.257895 415.877303 
L 574.418188 78.12 
L 579.066674 78.12 
L 579.226966 415.877303 
L 613.209003 415.877303 
L 613.369295 78.12 
L 618.017782 78.12 
L 618.178074 415.877303 
L 653.92333 415.877303 
L 654.083622 78.12 
L 658.732108 78.12 
L 658.892401 415.877303 
L 694.156778 415.877303 
L 694.317071 78.12 
L 698.965557 78.12 
L 699.12585 415.877303 
L 734.069642 415.877303 
L 734.229935 78.12 
L 738.878421 78.12 
L 739.038713 415.877303 
L 773.822213 415.877303 
L 773.982506 78.12 
L 778.630992 78.12 
L 778.791284 415.877303 
L 813.414491 415.877303 
L 813.574784 78.12 
L 818.22327 78.12 
L 818.383563 415.877303 
L 854.609696 415.877303 
L 854.769989 78.12 
L 859.418475 78.12 
L 859.578767 415.877303 
L 894.362267 415.877303 
L 894.52256 78.12 
L 899.171046 78.12 
L 899.331338 415.877303 
L 933.794253 415.877303 
L 933.954545 78.12 
L 933.954545 78.12 
" clip-path="url(#p13b29da55b)" style="fill: none; stroke: #ff7f0e; stroke-width: 1.5; stroke-linecap: square"/>
   </g>
   <g id="line2d_14">
    <path d="M 929.466352 415.877303 
" clip-path="url(#p13b29da55b)" style="fill: none; stroke: #000000; stroke-width: 1.5; stroke-linecap: square"/>
    <defs>
     <path id="m5cc3ff49f5" d="M 0 1 
C 0.265203 1 0.51958 0.894634 0.707107 0.707107 
C 0.894634 0.51958 1 0.265203 1 0 
C 1 -0.265203 0.894634 -0.51958 0.707107 -0.707107 
C 0.51958 -0.894634 0.265203 -1 0 -1 
C -0.265203 -1 -0.51958 -0.894634 -0.707107 -0.707107 
C -0.894634 -0.51958 -1 -0.265203 -1 0 
C -1 0.265203 -0.894634 0.51958 -0.707107 0.707107 
C -0.51958 0.894634 -0.265203 1 0 1 
z
" style="stroke: #000000"/>
    </defs>
    <g clip-path="url(#p13b29da55b)">
     <use xlink:href="#m5cc3ff49f5" x="173.045455" y="78.12" style="stroke: #000000"/>
     <use xlink:href="#m5cc3ff49f5" x="178.174819" y="415.877303" style="stroke: #000000"/>
     <use xlink:href="#m5cc3ff49f5" x="183.14389" y="415.877303" style="stroke: #000000"/>
     <use xlink:href="#m5cc3ff49f5" x="188.112961" y="78.12" style="stroke: #000000"/>
     <use xlink:href="#m5cc3ff49f5" x="193.082033" y="415.877303" style="stroke: #000000"/>
     <use xlink:href="#m5cc3ff49f5" x="198.211397" y="415.877303" style="stroke: #000000"/>
     <use xlink:href="#m5cc3ff49f5" x="203.180468" y="78.12" style="stroke: #000000"/>
     <use xlink:href="#m5cc3ff49f5" x="208.149539" y="415.877303" style="stroke: #000000"/>
     <use xlink:href="#m5cc3ff49f5" x="213.118611" y="78.12" style="stroke: #000000"/>
     <use xlink:href="#m5cc3ff49f5" x="218.247975" y="415.877303" style="stroke: #000000"/>
     <use xlink:href="#m5cc3ff49f5" x="223.217046" y="415.877303" style="stroke: #000000"/>
     <use xlink:href="#m5cc3ff49f5" x="228.186118" y="78.12" style="stroke: #000000"/>
     <use xlink:href="#m5cc3ff49f5" x="233.155189" y="415.877303" style="stroke: #000000"/>
     <use xlink:href="#m5cc3ff49f5" x="238.284553" y="415.877303" style="stroke: #000000"/>
     <use xlink:href="#m5cc3ff49f5" x="243.253624" y="78.12" style="stroke: #000000"/>
     <use xlink:href="#m5cc3ff49f5" x="248.222696" y="415.877303" style="stroke: #000000"/>
     <use xlink:href="#m5cc3ff49f5" x="253.191767" y="78.12" style="stroke: #000000"/>
     <use xlink:href="#m5cc3ff49f5" x="258.321131" y="415.877303" style="stroke: #000000"/>
     <use xlink:href="#m5cc3ff49f5" x="263.290202" y="415.877303" style="stroke: #000000"/>
     <use xlink:href="#m5cc3ff49f5" x="268.259274" y="78.12" style="stroke: #000000"/>
     <use xlink:href="#m5cc3ff49f5" x="273.228345" y="415.877303" style="stroke: #000000"/>
     <use xlink:href="#m5cc3ff49f5" x="278.357709" y="415.877303" style="stroke: #000000"/>
     <use xlink:href="#m5cc3ff49f5" x="283.326781" y="78.12" style="stroke: #000000"/>
     <use xlink:href="#m5cc3ff49f5" x="288.295852" y="415.877303" style="stroke: #000000"/>
     <use xlink:href="#m5cc3ff49f5" x="293.264923" y="78.12" style="stroke: #000000"/>
     <use xlink:href="#m5cc3ff49f5" x="298.394287" y="415.877303" style="stroke: #000000"/>
     <use xlink:href="#m5cc3ff49f5" x="303.363359" y="415.877303" style="stroke: #000000"/>
     <use xlink:href="#m5cc3ff49f5" x="308.33243" y="78.12" style="stroke: #000000"/>
     <use xlink:href="#m5cc3ff49f5" x="313.301501" y="415.877303" style="stroke: #000000"/>
     <use xlink:href="#m5cc3ff49f5" x="318.430865" y="415.877303" style="stroke: #000000"/>
     <use xlink:href="#m5cc3ff49f5" x="323.399937" y="78.12" style="stroke: #000000"/>
     <use xlink:href="#m5cc3ff49f5" x="328.369008" y="415.877303" style="stroke: #000000"/>
     <use xlink:href="#m5cc3ff49f5" x="333.33808" y="78.12" style="stroke: #000000"/>
     <use xlink:href="#m5cc3ff49f5" x="338.467444" y="415.877303" style="stroke: #000000"/>
     <use xlink:href="#m5cc3ff49f5" x="343.436515" y="415.877303" style="stroke: #000000"/>
     <use xlink:href="#m5cc3ff49f5" x="348.405586" y="78.12" style="stroke: #000000"/>
     <use xlink:href="#m5cc3ff49f5" x="353.374658" y="415.877303" style="stroke: #000000"/>
     <use xlink:href="#m5cc3ff49f5" x="358.504022" y="415.877303" style="stroke: #000000"/>
     <use xlink:href="#m5cc3ff49f5" x="363.473093" y="78.12" style="stroke: #000000"/>
     <use xlink:href="#m5cc3ff49f5" x="368.442164" y="415.877303" style="stroke: #000000"/>
     <use xlink:href="#m5cc3ff49f5" x="373.411236" y="78.12" style="stroke: #000000"/>
     <use xlink:href="#m5cc3ff49f5" x="378.5406" y="415.877303" style="stroke: #000000"/>
     <use xlink:href="#m5cc3ff49f5" x="383.509671" y="415.877303" style="stroke: #000000"/>
     <use xlink:href="#m5cc3ff49f5" x="388.478743" y="78.12" style="stroke: #000000"/>
     <use xlink:href="#m5cc3ff49f5" x="393.447814" y="415.877303" style="stroke: #000000"/>
     <use xlink:href="#m5cc3ff49f5" x="398.577178" y="415.877303" style="stroke: #000000"/>
     <use xlink:href="#m5cc3ff49f5" x="403.546249" y="78.12" style="stroke: #000000"/>
     <use xlink:href="#m5cc3ff49f5" x="408.515321" y="415.877303" style="stroke: #000000"/>
     <use xlink:href="#m5cc3ff49f5" x="413.484392" y="78.12" style="stroke: #000000"/>
     <use xlink:href="#m5cc3ff49f5" x="418.613756" y="415.877303" style="stroke: #000000"/>
     <use xlink:href="#m5cc3ff49f5" x="423.582827" y="415.877303" style="stroke: #000000"/>
     <use xlink:href="#m5cc3ff49f5" x="428.551899" y="78.12" style="stroke: #000000"/>
     <use xlink:href="#m5cc3ff49f5" x="433.52097" y="415.877303" style="stroke: #000000"/>
     <use xlink:href="#m5cc3ff49f5" x="438.650334" y="415.877303" style="stroke: #000000"/>
     <use xlink:href="#m5cc3ff49f5" x="443.619406" y="78.12" style="stroke: #000000"/>
     <use xlink:href="#m5cc3ff49f5" x="448.588477" y="415.877303" style="stroke: #000000"/>
     <use xlink:href="#m5cc3ff49f5" x="453.557548" y="78.12" style="stroke: #000000"/>
     <use xlink:href="#m5cc3ff49f5" x="458.686912" y="415.877303" style="stroke: #000000"/>
     <use xlink:href="#m5cc3ff49f5" x="463.655984" y="415.877303" style="stroke: #000000"/>
     <use xlink:href="#m5cc3ff49f5" x="468.625055" y="78.12" style="stroke: #000000"/>
     <use xlink:href="#m5cc3ff49f5" x="473.594126" y="415.877303" style="stroke: #000000"/>
     <use xlink:href="#m5cc3ff49f5" x="478.72349" y="415.877303" style="stroke: #000000"/>
     <use xlink:href="#m5cc3ff49f5" x="483.692562" y="78.12" style="stroke: #000000"/>
     <use xlink:href="#m5cc3ff49f5" x="488.661633" y="415.877303" style="stroke: #000000"/>
     <use xlink:href="#m5cc3ff49f5" x="493.630705" y="78.12" style="stroke: #000000"/>
     <use xlink:href="#m5cc3ff49f5" x="498.760069" y="415.877303" style="stroke: #000000"/>
     <use xlink:href="#m5cc3ff49f5" x="503.72914" y="415.877303" style="stroke: #000000"/>
     <use xlink:href="#m5cc3ff49f5" x="508.698211" y="78.12" style="stroke: #000000"/>
     <use xlink:href="#m5cc3ff49f5" x="513.667283" y="415.877303" style="stroke: #000000"/>
     <use xlink:href="#m5cc3ff49f5" x="518.796647" y="415.877303" style="stroke: #000000"/>
     <use xlink:href="#m5cc3ff49f5" x="523.765718" y="78.12" style="stroke: #000000"/>
     <use xlink:href="#m5cc3ff49f5" x="528.734789" y="415.877303" style="stroke: #000000"/>
     <use xlink:href="#m5cc3ff49f5" x="533.703861" y="78.12" style="stroke: #000000"/>
     <use xlink:href="#m5cc3ff49f5" x="538.833225" y="415.877303" style="stroke: #000000"/>
     <use xlink:href="#m5cc3ff49f5" x="543.802296" y="415.877303" style="stroke: #000000"/>
     <use xlink:href="#m5cc3ff49f5" x="548.771368" y="78.12" style="stroke: #000000"/>
     <use xlink:href="#m5cc3ff49f5" x="553.740439" y="415.877303" style="stroke: #000000"/>
     <use xlink:href="#m5cc3ff49f5" x="558.869803" y="415.877303" style="stroke: #000000"/>
     <use xlink:href="#m5cc3ff49f5" x="563.838874" y="78.12" style="stroke: #000000"/>
     <use xlink:href="#m5cc3ff49f5" x="568.807946" y="415.877303" style="stroke: #000000"/>
     <use xlink:href="#m5cc3ff49f5" x="573.777017" y="78.12" style="stroke: #000000"/>
     <use xlink:href="#m5cc3ff49f5" x="578.906381" y="415.877303" style="stroke: #000000"/>
     <use xlink:href="#m5cc3ff49f5" x="583.875452" y="415.877303" style="stroke: #000000"/>
     <use xlink:href="#m5cc3ff49f5" x="588.844524" y="78.12" style="stroke: #000000"/>
     <use xlink:href="#m5cc3ff49f5" x="593.813595" y="415.877303" style="stroke: #000000"/>
     <use xlink:href="#m5cc3ff49f5" x="598.942959" y="415.877303" style="stroke: #000000"/>
     <use xlink:href="#m5cc3ff49f5" x="603.912031" y="78.12" style="stroke: #000000"/>
     <use xlink:href="#m5cc3ff49f5" x="608.881102" y="415.877303" style="stroke: #000000"/>
     <use xlink:href="#m5cc3ff49f5" x="613.850173" y="78.12" style="stroke: #000000"/>
     <use xlink:href="#m5cc3ff49f5" x="618.979537" y="415.877303" style="stroke: #000000"/>
     <use xlink:href="#m5cc3ff49f5" x="623.948609" y="415.877303" style="stroke: #000000"/>
     <use xlink:href="#m5cc3ff49f5" x="628.91768" y="78.12" style="stroke: #000000"/>
     <use xlink:href="#m5cc3ff49f5" x="633.886751" y="415.877303" style="stroke: #000000"/>
     <use xlink:href="#m5cc3ff49f5" x="639.016115" y="415.877303" style="stroke: #000000"/>
     <use xlink:href="#m5cc3ff49f5" x="643.985187" y="78.12" style="stroke: #000000"/>
     <use xlink:href="#m5cc3ff49f5" x="648.954258" y="415.877303" style="stroke: #000000"/>
     <use xlink:href="#m5cc3ff49f5" x="653.92333" y="78.12" style="stroke: #000000"/>
     <use xlink:href="#m5cc3ff49f5" x="659.052694" y="415.877303" style="stroke: #000000"/>
     <use xlink:href="#m5cc3ff49f5" x="664.021765" y="415.877303" style="stroke: #000000"/>
     <use xlink:href="#m5cc3ff49f5" x="668.990836" y="78.12" style="stroke: #000000"/>
     <use xlink:href="#m5cc3ff49f5" x="673.959908" y="415.877303" style="stroke: #000000"/>
     <use xlink:href="#m5cc3ff49f5" x="679.089272" y="415.877303" style="stroke: #000000"/>
     <use xlink:href="#m5cc3ff49f5" x="684.058343" y="78.12" style="stroke: #000000"/>
     <use xlink:href="#m5cc3ff49f5" x="689.027414" y="415.877303" style="stroke: #000000"/>
     <use xlink:href="#m5cc3ff49f5" x="693.996486" y="78.12" style="stroke: #000000"/>
     <use xlink:href="#m5cc3ff49f5" x="699.12585" y="415.877303" style="stroke: #000000"/>
     <use xlink:href="#m5cc3ff49f5" x="704.094921" y="415.877303" style="stroke: #000000"/>
     <use xlink:href="#m5cc3ff49f5" x="709.063993" y="78.12" style="stroke: #000000"/>
     <use xlink:href="#m5cc3ff49f5" x="714.033064" y="415.877303" style="stroke: #000000"/>
     <use xlink:href="#m5cc3ff49f5" x="719.162428" y="415.877303" style="stroke: #000000"/>
     <use xlink:href="#m5cc3ff49f5" x="724.131499" y="78.12" style="stroke: #000000"/>
     <use xlink:href="#m5cc3ff49f5" x="729.100571" y="415.877303" style="stroke: #000000"/>
     <use xlink:href="#m5cc3ff49f5" x="734.069642" y="78.12" style="stroke: #000000"/>
     <use xlink:href="#m5cc3ff49f5" x="739.199006" y="415.877303" style="stroke: #000000"/>
     <use xlink:href="#m5cc3ff49f5" x="744.168077" y="415.877303" style="stroke: #000000"/>
     <use xlink:href="#m5cc3ff49f5" x="749.137149" y="78.12" style="stroke: #000000"/>
     <use xlink:href="#m5cc3ff49f5" x="754.10622" y="415.877303" style="stroke: #000000"/>
     <use xlink:href="#m5cc3ff49f5" x="759.235584" y="415.877303" style="stroke: #000000"/>
     <use xlink:href="#m5cc3ff49f5" x="764.204656" y="78.12" style="stroke: #000000"/>
     <use xlink:href="#m5cc3ff49f5" x="769.173727" y="415.877303" style="stroke: #000000"/>
     <use xlink:href="#m5cc3ff49f5" x="774.142798" y="78.12" style="stroke: #000000"/>
     <use xlink:href="#m5cc3ff49f5" x="779.272162" y="415.877303" style="stroke: #000000"/>
     <use xlink:href="#m5cc3ff49f5" x="784.241234" y="415.877303" style="stroke: #000000"/>
     <use xlink:href="#m5cc3ff49f5" x="789.210305" y="78.12" style="stroke: #000000"/>
     <use xlink:href="#m5cc3ff49f5" x="794.179376" y="415.877303" style="stroke: #000000"/>
     <use xlink:href="#m5cc3ff49f5" x="799.30874" y="415.877303" style="stroke: #000000"/>
     <use xlink:href="#m5cc3ff49f5" x="804.277812" y="78.12" style="stroke: #000000"/>
     <use xlink:href="#m5cc3ff49f5" x="809.246883" y="415.877303" style="stroke: #000000"/>
     <use xlink:href="#m5cc3ff49f5" x="814.215955" y="78.12" style="stroke: #000000"/>
     <use xlink:href="#m5cc3ff49f5" x="819.345319" y="415.877303" style="stroke: #000000"/>
     <use xlink:href="#m5cc3ff49f5" x="824.31439" y="415.877303" style="stroke: #000000"/>
     <use xlink:href="#m5cc3ff49f5" x="829.283461" y="78.12" style="stroke: #000000"/>
     <use xlink:href="#m5cc3ff49f5" x="834.252533" y="415.877303" style="stroke: #000000"/>
     <use xlink:href="#m5cc3ff49f5" x="839.381897" y="415.877303" style="stroke: #000000"/>
     <use xlink:href="#m5cc3ff49f5" x="844.350968" y="78.12" style="stroke: #000000"/>
     <use xlink:href="#m5cc3ff49f5" x="849.320039" y="415.877303" style="stroke: #000000"/>
     <use xlink:href="#m5cc3ff49f5" x="854.289111" y="78.12" style="stroke: #000000"/>
     <use xlink:href="#m5cc3ff49f5" x="859.418475" y="415.877303" style="stroke: #000000"/>
     <use xlink:href="#m5cc3ff49f5" x="864.387546" y="415.877303" style="stroke: #000000"/>
     <use xlink:href="#m5cc3ff49f5" x="869.356618" y="78.12" style="stroke: #000000"/>
     <use xlink:href="#m5cc3ff49f5" x="874.325689" y="415.877303" style="stroke: #000000"/>
     <use xlink:href="#m5cc3ff49f5" x="879.455053" y="415.877303" style="stroke: #000000"/>
     <use xlink:href="#m5cc3ff49f5" x="884.424124" y="78.12" style="stroke: #000000"/>
     <use xlink:href="#m5cc3ff49f5" x="889.393196" y="415.877303" style="stroke: #000000"/>
     <use xlink:href="#m5cc3ff49f5" x="894.362267" y="78.12" style="stroke: #000000"/>
     <use xlink:href="#m5cc3ff49f5" x="899.491631" y="415.877303" style="stroke: #000000"/>
     <use xlink:href="#m5cc3ff49f5" x="904.460702" y="415.877303" style="stroke: #000000"/>
     <use xlink:href="#m5cc3ff49f5" x="909.429774" y="78.12" style="stroke: #000000"/>
     <use xlink:href="#m5cc3ff49f5" x="914.398845" y="415.877303" style="stroke: #000000"/>
     <use xlink:href="#m5cc3ff49f5" x="919.528209" y="415.877303" style="stroke: #000000"/>
     <use xlink:href="#m5cc3ff49f5" x="924.497281" y="78.12" style="stroke: #000000"/>
     <use xlink:href="#m5cc3ff49f5" x="929.466352" y="415.877303" style="stroke: #000000"/>
    </g>
   </g>
   <g id="patch_3">
    <path d="M 135 448.56 
L 135 60.48 
" style="fill: none; stroke: #000000; stroke-width: 0.8; stroke-linejoin: miter; stroke-linecap: square"/>
   </g>
   <g id="patch_4">
    <path d="M 972 448.56 
L 972 60.48 
" style="fill: none; stroke: #000000; stroke-width: 0.8; stroke-linejoin: miter; stroke-linecap: square"/>
   </g>
   <g id="patch_5">
    <path d="M 135 448.56 
L 972 448.56 
" style="fill: none; stroke: #000000; stroke-width: 0.8; stroke-linejoin: miter; stroke-linecap: square"/>
   </g>
   <g id="patch_6">
    <path d="M 135 60.48 
L 972 60.48 
" style="fill: none; stroke: #000000; stroke-width: 0.8; stroke-linejoin: miter; stroke-linecap: square"/>
   </g>
   <g id="legend_1">
    <g id="patch_7">
     <path d="M 142 278.315313 
L 211.084375 278.315313 
Q 213.084375 278.315313 213.084375 276.315313 
L 213.084375 232.724688 
Q 213.084375 230.724688 211.084375 230.724688 
L 142 230.724688 
Q 140 230.724688 140 232.724688 
L 140 276.315313 
Q 140 278.315313 142 278.315313 
z
" style="fill: #ffffff; opacity: 0.8; stroke: #cccccc; stroke-linejoin: miter"/>
    </g>
    <g id="line2d_15">
     <path d="M 144 238.823125 
L 154 238.823125 
L 164 238.823125 
" style="fill: none; stroke: #1f77b4; stroke-width: 1.5; stroke-linecap: square"/>
    </g>
    <g id="text_13">
     <!-- nw_0 -->
     <g transform="translate(172 242.323125) scale(0.1 -0.1)">
      <defs>
       <path id="DejaVuSans-6e" d="M 3513 2113 
L 3513 0 
L 2938 0 
L 2938 2094 
Q 2938 2591 2744 2837 
Q 2550 3084 2163 3084 
Q 1697 3084 1428 2787 
Q 1159 2491 1159 1978 
L 1159 0 
L 581 0 
L 581 3500 
L 1159 3500 
L 1159 2956 
Q 1366 3272 1645 3428 
Q 1925 3584 2291 3584 
Q 2894 3584 3203 3211 
Q 3513 2838 3513 2113 
z
" transform="scale(0.015625)"/>
       <path id="DejaVuSans-77" d="M 269 3500 
L 844 3500 
L 1563 769 
L 2278 3500 
L 2956 3500 
L 3675 769 
L 4391 3500 
L 4966 3500 
L 4050 0 
L 3372 0 
L 2619 2869 
L 1863 0 
L 1184 0 
L 269 3500 
z
" transform="scale(0.015625)"/>
       <path id="DejaVuSans-5f" d="M 3263 -1063 
L 3263 -1509 
L -63 -1509 
L -63 -1063 
L 3263 -1063 
z
" transform="scale(0.015625)"/>
      </defs>
      <use xlink:href="#DejaVuSans-6e"/>
      <use xlink:href="#DejaVuSans-77" x="63.378906"/>
      <use xlink:href="#DejaVuSans-5f" x="145.166016"/>
      <use xlink:href="#DejaVuSans-30" x="195.166016"/>
     </g>
    </g>
    <g id="line2d_16">
     <path d="M 144 253.779375 
L 154 253.779375 
L 164 253.779375 
" style="fill: none; stroke: #ff7f0e; stroke-width: 1.5; stroke-linecap: square"/>
    </g>
    <g id="text_14">
     <!-- input_0 -->
     <g transform="translate(172 257.279375) scale(0.1 -0.1)">
      <defs>
       <path id="DejaVuSans-69" d="M 603 3500 
L 1178 3500 
L 1178 0 
L 603 0 
L 603 3500 
z
M 603 4863 
L 1178 4863 
L 1178 4134 
L 603 4134 
L 603 4863 
z
" transform="scale(0.015625)"/>
       <path id="DejaVuSans-70" d="M 1159 525 
L 1159 -1331 
L 581 -1331 
L 581 3500 
L 1159 3500 
L 1159 2969 
Q 1341 3281 1617 3432 
Q 1894 3584 2278 3584 
Q 2916 3584 3314 3078 
Q 3713 2572 3713 1747 
Q 3713 922 3314 415 
Q 2916 -91 2278 -91 
Q 1894 -91 1617 61 
Q 1341 213 1159 525 
z
M 3116 1747 
Q 3116 2381 2855 2742 
Q 2594 3103 2138 3103 
Q 1681 3103 1420 2742 
Q 1159 2381 1159 1747 
Q 1159 1113 1420 752 
Q 1681 391 2138 391 
Q 2594 391 2855 752 
Q 3116 1113 3116 1747 
z
" transform="scale(0.015625)"/>
       <path id="DejaVuSans-75" d="M 544 1381 
L 544 3500 
L 1119 3500 
L 1119 1403 
Q 1119 906 1312 657 
Q 1506 409 1894 409 
Q 2359 409 2629 706 
Q 2900 1003 2900 1516 
L 2900 3500 
L 3475 3500 
L 3475 0 
L 2900 0 
L 2900 538 
Q 2691 219 2414 64 
Q 2138 -91 1772 -91 
Q 1169 -91 856 284 
Q 544 659 544 1381 
z
M 1991 3584 
L 1991 3584 
z
" transform="scale(0.015625)"/>
      </defs>
      <use xlink:href="#DejaVuSans-69"/>
      <use xlink:href="#DejaVuSans-6e" x="27.783203"/>
      <use xlink:href="#DejaVuSans-70" x="91.162109"/>
      <use xlink:href="#DejaVuSans-75" x="154.638672"/>
      <use xlink:href="#DejaVuSans-74" x="218.017578"/>
      <use xlink:href="#DejaVuSans-5f" x="257.226562"/>
      <use xlink:href="#DejaVuSans-30" x="307.226562"/>
     </g>
    </g>
    <g id="line2d_17">
     <path d="M 144 268.735625 
L 154 268.735625 
L 164 268.735625 
" style="fill: none; stroke: #000000; stroke-width: 1.5; stroke-linecap: square"/>
     <g>
      <use xlink:href="#m5cc3ff49f5" x="154" y="268.735625" style="stroke: #000000"/>
     </g>
    </g>
    <g id="text_15">
     <!-- target -->
     <g transform="translate(172 272.235625) scale(0.1 -0.1)">
      <defs>
       <path id="DejaVuSans-61" d="M 2194 1759 
Q 1497 1759 1228 1600 
Q 959 1441 959 1056 
Q 959 750 1161 570 
Q 1363 391 1709 391 
Q 2188 391 2477 730 
Q 2766 1069 2766 1631 
L 2766 1759 
L 2194 1759 
z
M 3341 1997 
L 3341 0 
L 2766 0 
L 2766 531 
Q 2569 213 2275 61 
Q 1981 -91 1556 -91 
Q 1019 -91 701 211 
Q 384 513 384 1019 
Q 384 1609 779 1909 
Q 1175 2209 1959 2209 
L 2766 2209 
L 2766 2266 
Q 2766 2663 2505 2880 
Q 2244 3097 1772 3097 
Q 1472 3097 1187 3025 
Q 903 2953 641 2809 
L 641 3341 
Q 956 3463 1253 3523 
Q 1550 3584 1831 3584 
Q 2591 3584 2966 3190 
Q 3341 2797 3341 1997 
z
" transform="scale(0.015625)"/>
       <path id="DejaVuSans-72" d="M 2631 2963 
Q 2534 3019 2420 3045 
Q 2306 3072 2169 3072 
Q 1681 3072 1420 2755 
Q 1159 2438 1159 1844 
L 1159 0 
L 581 0 
L 581 3500 
L 1159 3500 
L 1159 2956 
Q 1341 3275 1631 3429 
Q 1922 3584 2338 3584 
Q 2397 3584 2469 3576 
Q 2541 3569 2628 3553 
L 2631 2963 
z
" transform="scale(0.015625)"/>
       <path id="DejaVuSans-67" d="M 2906 1791 
Q 2906 2416 2648 2759 
Q 2391 3103 1925 3103 
Q 1463 3103 1205 2759 
Q 947 2416 947 1791 
Q 947 1169 1205 825 
Q 1463 481 1925 481 
Q 2391 481 2648 825 
Q 2906 1169 2906 1791 
z
M 3481 434 
Q 3481 -459 3084 -895 
Q 2688 -1331 1869 -1331 
Q 1566 -1331 1297 -1286 
Q 1028 -1241 775 -1147 
L 775 -588 
Q 1028 -725 1275 -790 
Q 1522 -856 1778 -856 
Q 2344 -856 2625 -561 
Q 2906 -266 2906 331 
L 2906 616 
Q 2728 306 2450 153 
Q 2172 0 1784 0 
Q 1141 0 747 490 
Q 353 981 353 1791 
Q 353 2603 747 3093 
Q 1141 3584 1784 3584 
Q 2172 3584 2450 3431 
Q 2728 3278 2906 2969 
L 2906 3500 
L 3481 3500 
L 3481 434 
z
" transform="scale(0.015625)"/>
       <path id="DejaVuSans-65" d="M 3597 1894 
L 3597 1613 
L 953 1613 
Q 991 1019 1311 708 
Q 1631 397 2203 397 
Q 2534 397 2845 478 
Q 3156 559 3463 722 
L 3463 178 
Q 3153 47 2828 -22 
Q 2503 -91 2169 -91 
Q 1331 -91 842 396 
Q 353 884 353 1716 
Q 353 2575 817 3079 
Q 1281 3584 2069 3584 
Q 2775 3584 3186 3129 
Q 3597 2675 3597 1894 
z
M 3022 2063 
Q 3016 2534 2758 2815 
Q 2500 3097 2075 3097 
Q 1594 3097 1305 2825 
Q 1016 2553 972 2059 
L 3022 2063 
z
" transform="scale(0.015625)"/>
      </defs>
      <use xlink:href="#DejaVuSans-74"/>
      <use xlink:href="#DejaVuSans-61" x="39.208984"/>
      <use xlink:href="#DejaVuSans-72" x="100.488281"/>
      <use xlink:href="#DejaVuSans-67" x="139.851562"/>
      <use xlink:href="#DejaVuSans-65" x="203.328125"/>
      <use xlink:href="#DejaVuSans-74" x="264.851562"/>
     </g>
    </g>
   </g>
  </g>
 </g>
 <defs>
  <clipPath id="p13b29da55b">
   <rect x="135" y="60.48" width="837" height="388.08"/>
  </clipPath>
 </defs>
</svg>
