<?xml version="1.0" encoding="utf-8" standalone="no"?>
<!DOCTYPE svg PUBLIC "-//W3C//DTD SVG 1.1//EN"
  "http://www.w3.org/Graphics/SVG/1.1/DTD/svg11.dtd">
<svg xmlns:xlink="http://www.w3.org/1999/xlink" width="1080pt" height="504pt" viewBox="0 0 1080 504" xmlns="http://www.w3.org/2000/svg" version="1.1">
 <metadata>
  <rdf:RDF xmlns:dc="http://purl.org/dc/elements/1.1/" xmlns:cc="http://creativecommons.org/ns#" xmlns:rdf="http://www.w3.org/1999/02/22-rdf-syntax-ns#">
   <cc:Work>
    <dc:type rdf:resource="http://purl.org/dc/dcmitype/StillImage"/>
    <dc:date>2024-05-09T11:10:14.698337</dc:date>
    <dc:format>image/svg+xml</dc:format>
    <dc:creator>
     <cc:Agent>
      <dc:title>Matplotlib v3.7.1, https://matplotlib.org/</dc:title>
     </cc:Agent>
    </dc:creator>
   </cc:Work>
  </rdf:RDF>
 </metadata>
 <defs>
  <style type="text/css">*{stroke-linejoin: round; stroke-linecap: butt}</style>
 </defs>
 <g id="figure_1">
  <g id="patch_1">
   <path d="M 0 504 
L 1080 504 
L 1080 0 
L 0 0 
z
" style="fill: #ffffff"/>
  </g>
  <g id="axes_1">
   <g id="patch_2">
    <path d="M 135 448.56 
L 972 448.56 
L 972 60.48 
L 135 60.48 
z
" style="fill: #ffffff"/>
   </g>
   <g id="matplotlib.axis_1">
    <g id="xtick_1">
     <g id="line2d_1">
      <defs>
       <path id="me3253c713b" d="M 0 0 
L 0 3.5 
" style="stroke: #000000; stroke-width: 0.8"/>
      </defs>
      <g>
       <use xlink:href="#me3253c713b" x="173.045455" y="448.56" style="stroke: #000000; stroke-width: 0.8"/>
      </g>
     </g>
     <g id="text_1">
      <!-- 0 -->
      <g transform="translate(169.864205 463.158437) scale(0.1 -0.1)">
       <defs>
        <path id="DejaVuSans-30" d="M 2034 4250 
Q 1547 4250 1301 3770 
Q 1056 3291 1056 2328 
Q 1056 1369 1301 889 
Q 1547 409 2034 409 
Q 2525 409 2770 889 
Q 3016 1369 3016 2328 
Q 3016 3291 2770 3770 
Q 2525 4250 2034 4250 
z
M 2034 4750 
Q 2819 4750 3233 4129 
Q 3647 3509 3647 2328 
Q 3647 1150 3233 529 
Q 2819 -91 2034 -91 
Q 1250 -91 836 529 
Q 422 1150 422 2328 
Q 422 3509 836 4129 
Q 1250 4750 2034 4750 
z
" transform="scale(0.015625)"/>
       </defs>
       <use xlink:href="#DejaVuSans-30"/>
      </g>
     </g>
    </g>
    <g id="xtick_2">
     <g id="line2d_2">
      <g>
       <use xlink:href="#me3253c713b" x="333.33808" y="448.56" style="stroke: #000000; stroke-width: 0.8"/>
      </g>
     </g>
     <g id="text_2">
      <!-- 1000 -->
      <g transform="translate(320.61308 463.158437) scale(0.1 -0.1)">
       <defs>
        <path id="DejaVuSans-31" d="M 794 531 
L 1825 531 
L 1825 4091 
L 703 3866 
L 703 4441 
L 1819 4666 
L 2450 4666 
L 2450 531 
L 3481 531 
L 3481 0 
L 794 0 
L 794 531 
z
" transform="scale(0.015625)"/>
       </defs>
       <use xlink:href="#DejaVuSans-31"/>
       <use xlink:href="#DejaVuSans-30" x="63.623047"/>
       <use xlink:href="#DejaVuSans-30" x="127.246094"/>
       <use xlink:href="#DejaVuSans-30" x="190.869141"/>
      </g>
     </g>
    </g>
    <g id="xtick_3">
     <g id="line2d_3">
      <g>
       <use xlink:href="#me3253c713b" x="493.630705" y="448.56" style="stroke: #000000; stroke-width: 0.8"/>
      </g>
     </g>
     <g id="text_3">
      <!-- 2000 -->
      <g transform="translate(480.905705 463.158437) scale(0.1 -0.1)">
       <defs>
        <path id="DejaVuSans-32" d="M 1228 531 
L 3431 531 
L 3431 0 
L 469 0 
L 469 531 
Q 828 903 1448 1529 
Q 2069 2156 2228 2338 
Q 2531 2678 2651 2914 
Q 2772 3150 2772 3378 
Q 2772 3750 2511 3984 
Q 2250 4219 1831 4219 
Q 1534 4219 1204 4116 
Q 875 4013 500 3803 
L 500 4441 
Q 881 4594 1212 4672 
Q 1544 4750 1819 4750 
Q 2544 4750 2975 4387 
Q 3406 4025 3406 3419 
Q 3406 3131 3298 2873 
Q 3191 2616 2906 2266 
Q 2828 2175 2409 1742 
Q 1991 1309 1228 531 
z
" transform="scale(0.015625)"/>
       </defs>
       <use xlink:href="#DejaVuSans-32"/>
       <use xlink:href="#DejaVuSans-30" x="63.623047"/>
       <use xlink:href="#DejaVuSans-30" x="127.246094"/>
       <use xlink:href="#DejaVuSans-30" x="190.869141"/>
      </g>
     </g>
    </g>
    <g id="xtick_4">
     <g id="line2d_4">
      <g>
       <use xlink:href="#me3253c713b" x="653.92333" y="448.56" style="stroke: #000000; stroke-width: 0.8"/>
      </g>
     </g>
     <g id="text_4">
      <!-- 3000 -->
      <g transform="translate(641.19833 463.158437) scale(0.1 -0.1)">
       <defs>
        <path id="DejaVuSans-33" d="M 2597 2516 
Q 3050 2419 3304 2112 
Q 3559 1806 3559 1356 
Q 3559 666 3084 287 
Q 2609 -91 1734 -91 
Q 1441 -91 1130 -33 
Q 819 25 488 141 
L 488 750 
Q 750 597 1062 519 
Q 1375 441 1716 441 
Q 2309 441 2620 675 
Q 2931 909 2931 1356 
Q 2931 1769 2642 2001 
Q 2353 2234 1838 2234 
L 1294 2234 
L 1294 2753 
L 1863 2753 
Q 2328 2753 2575 2939 
Q 2822 3125 2822 3475 
Q 2822 3834 2567 4026 
Q 2313 4219 1838 4219 
Q 1578 4219 1281 4162 
Q 984 4106 628 3988 
L 628 4550 
Q 988 4650 1302 4700 
Q 1616 4750 1894 4750 
Q 2613 4750 3031 4423 
Q 3450 4097 3450 3541 
Q 3450 3153 3228 2886 
Q 3006 2619 2597 2516 
z
" transform="scale(0.015625)"/>
       </defs>
       <use xlink:href="#DejaVuSans-33"/>
       <use xlink:href="#DejaVuSans-30" x="63.623047"/>
       <use xlink:href="#DejaVuSans-30" x="127.246094"/>
       <use xlink:href="#DejaVuSans-30" x="190.869141"/>
      </g>
     </g>
    </g>
    <g id="xtick_5">
     <g id="line2d_5">
      <g>
       <use xlink:href="#me3253c713b" x="814.215955" y="448.56" style="stroke: #000000; stroke-width: 0.8"/>
      </g>
     </g>
     <g id="text_5">
      <!-- 4000 -->
      <g transform="translate(801.490955 463.158437) scale(0.1 -0.1)">
       <defs>
        <path id="DejaVuSans-34" d="M 2419 4116 
L 825 1625 
L 2419 1625 
L 2419 4116 
z
M 2253 4666 
L 3047 4666 
L 3047 1625 
L 3713 1625 
L 3713 1100 
L 3047 1100 
L 3047 0 
L 2419 0 
L 2419 1100 
L 313 1100 
L 313 1709 
L 2253 4666 
z
" transform="scale(0.015625)"/>
       </defs>
       <use xlink:href="#DejaVuSans-34"/>
       <use xlink:href="#DejaVuSans-30" x="63.623047"/>
       <use xlink:href="#DejaVuSans-30" x="127.246094"/>
       <use xlink:href="#DejaVuSans-30" x="190.869141"/>
      </g>
     </g>
    </g>
    <g id="text_6">
     <!-- t -->
     <g transform="translate(551.539844 476.836563) scale(0.1 -0.1)">
      <defs>
       <path id="DejaVuSans-74" d="M 1172 4494 
L 1172 3500 
L 2356 3500 
L 2356 3053 
L 1172 3053 
L 1172 1153 
Q 1172 725 1289 603 
Q 1406 481 1766 481 
L 2356 481 
L 2356 0 
L 1766 0 
Q 1100 0 847 248 
Q 594 497 594 1153 
L 594 3053 
L 172 3053 
L 172 3500 
L 594 3500 
L 594 4494 
L 1172 4494 
z
" transform="scale(0.015625)"/>
      </defs>
      <use xlink:href="#DejaVuSans-74"/>
     </g>
    </g>
   </g>
   <g id="matplotlib.axis_2">
    <g id="ytick_1">
     <g id="line2d_6">
      <defs>
       <path id="m8fcf1ff5dc" d="M 0 0 
L -3.5 0 
" style="stroke: #000000; stroke-width: 0.8"/>
      </defs>
      <g>
       <use xlink:href="#m8fcf1ff5dc" x="135" y="413.457379" style="stroke: #000000; stroke-width: 0.8"/>
      </g>
     </g>
     <g id="text_7">
      <!-- 0.0 -->
      <g transform="translate(112.096875 417.256598) scale(0.1 -0.1)">
       <defs>
        <path id="DejaVuSans-2e" d="M 684 794 
L 1344 794 
L 1344 0 
L 684 0 
L 684 794 
z
" transform="scale(0.015625)"/>
       </defs>
       <use xlink:href="#DejaVuSans-30"/>
       <use xlink:href="#DejaVuSans-2e" x="63.623047"/>
       <use xlink:href="#DejaVuSans-30" x="95.410156"/>
      </g>
     </g>
    </g>
    <g id="ytick_2">
     <g id="line2d_7">
      <g>
       <use xlink:href="#m8fcf1ff5dc" x="135" y="358.497048" style="stroke: #000000; stroke-width: 0.8"/>
      </g>
     </g>
     <g id="text_8">
      <!-- 0.2 -->
      <g transform="translate(112.096875 362.296266) scale(0.1 -0.1)">
       <use xlink:href="#DejaVuSans-30"/>
       <use xlink:href="#DejaVuSans-2e" x="63.623047"/>
       <use xlink:href="#DejaVuSans-32" x="95.410156"/>
      </g>
     </g>
    </g>
    <g id="ytick_3">
     <g id="line2d_8">
      <g>
       <use xlink:href="#m8fcf1ff5dc" x="135" y="303.536716" style="stroke: #000000; stroke-width: 0.8"/>
      </g>
     </g>
     <g id="text_9">
      <!-- 0.4 -->
      <g transform="translate(112.096875 307.335935) scale(0.1 -0.1)">
       <use xlink:href="#DejaVuSans-30"/>
       <use xlink:href="#DejaVuSans-2e" x="63.623047"/>
       <use xlink:href="#DejaVuSans-34" x="95.410156"/>
      </g>
     </g>
    </g>
    <g id="ytick_4">
     <g id="line2d_9">
      <g>
       <use xlink:href="#m8fcf1ff5dc" x="135" y="248.576385" style="stroke: #000000; stroke-width: 0.8"/>
      </g>
     </g>
     <g id="text_10">
      <!-- 0.6 -->
      <g transform="translate(112.096875 252.375603) scale(0.1 -0.1)">
       <defs>
        <path id="DejaVuSans-36" d="M 2113 2584 
Q 1688 2584 1439 2293 
Q 1191 2003 1191 1497 
Q 1191 994 1439 701 
Q 1688 409 2113 409 
Q 2538 409 2786 701 
Q 3034 994 3034 1497 
Q 3034 2003 2786 2293 
Q 2538 2584 2113 2584 
z
M 3366 4563 
L 3366 3988 
Q 3128 4100 2886 4159 
Q 2644 4219 2406 4219 
Q 1781 4219 1451 3797 
Q 1122 3375 1075 2522 
Q 1259 2794 1537 2939 
Q 1816 3084 2150 3084 
Q 2853 3084 3261 2657 
Q 3669 2231 3669 1497 
Q 3669 778 3244 343 
Q 2819 -91 2113 -91 
Q 1303 -91 875 529 
Q 447 1150 447 2328 
Q 447 3434 972 4092 
Q 1497 4750 2381 4750 
Q 2619 4750 2861 4703 
Q 3103 4656 3366 4563 
z
" transform="scale(0.015625)"/>
       </defs>
       <use xlink:href="#DejaVuSans-30"/>
       <use xlink:href="#DejaVuSans-2e" x="63.623047"/>
       <use xlink:href="#DejaVuSans-36" x="95.410156"/>
      </g>
     </g>
    </g>
    <g id="ytick_5">
     <g id="line2d_10">
      <g>
       <use xlink:href="#m8fcf1ff5dc" x="135" y="193.616053" style="stroke: #000000; stroke-width: 0.8"/>
      </g>
     </g>
     <g id="text_11">
      <!-- 0.8 -->
      <g transform="translate(112.096875 197.415272) scale(0.1 -0.1)">
       <defs>
        <path id="DejaVuSans-38" d="M 2034 2216 
Q 1584 2216 1326 1975 
Q 1069 1734 1069 1313 
Q 1069 891 1326 650 
Q 1584 409 2034 409 
Q 2484 409 2743 651 
Q 3003 894 3003 1313 
Q 3003 1734 2745 1975 
Q 2488 2216 2034 2216 
z
M 1403 2484 
Q 997 2584 770 2862 
Q 544 3141 544 3541 
Q 544 4100 942 4425 
Q 1341 4750 2034 4750 
Q 2731 4750 3128 4425 
Q 3525 4100 3525 3541 
Q 3525 3141 3298 2862 
Q 3072 2584 2669 2484 
Q 3125 2378 3379 2068 
Q 3634 1759 3634 1313 
Q 3634 634 3220 271 
Q 2806 -91 2034 -91 
Q 1263 -91 848 271 
Q 434 634 434 1313 
Q 434 1759 690 2068 
Q 947 2378 1403 2484 
z
M 1172 3481 
Q 1172 3119 1398 2916 
Q 1625 2713 2034 2713 
Q 2441 2713 2670 2916 
Q 2900 3119 2900 3481 
Q 2900 3844 2670 4047 
Q 2441 4250 2034 4250 
Q 1625 4250 1398 4047 
Q 1172 3844 1172 3481 
z
" transform="scale(0.015625)"/>
       </defs>
       <use xlink:href="#DejaVuSans-30"/>
       <use xlink:href="#DejaVuSans-2e" x="63.623047"/>
       <use xlink:href="#DejaVuSans-38" x="95.410156"/>
      </g>
     </g>
    </g>
    <g id="ytick_6">
     <g id="line2d_11">
      <g>
       <use xlink:href="#m8fcf1ff5dc" x="135" y="138.655722" style="stroke: #000000; stroke-width: 0.8"/>
      </g>
     </g>
     <g id="text_12">
      <!-- 1.0 -->
      <g transform="translate(112.096875 142.45494) scale(0.1 -0.1)">
       <use xlink:href="#DejaVuSans-31"/>
       <use xlink:href="#DejaVuSans-2e" x="63.623047"/>
       <use xlink:href="#DejaVuSans-30" x="95.410156"/>
      </g>
     </g>
    </g>
    <g id="ytick_7">
     <g id="line2d_12">
      <g>
       <use xlink:href="#m8fcf1ff5dc" x="135" y="83.69539" style="stroke: #000000; stroke-width: 0.8"/>
      </g>
     </g>
     <g id="text_13">
      <!-- 1.2 -->
      <g transform="translate(112.096875 87.494609) scale(0.1 -0.1)">
       <use xlink:href="#DejaVuSans-31"/>
       <use xlink:href="#DejaVuSans-2e" x="63.623047"/>
       <use xlink:href="#DejaVuSans-32" x="95.410156"/>
      </g>
     </g>
    </g>
   </g>
   <g id="line2d_13">
    <path d="M 173.045455 196.343392 
L 173.205747 153.239943 
L 173.846918 236.185263 
L 174.00721 235.735427 
L 174.327796 217.592783 
L 174.968966 178.684182 
L 175.449844 165.771417 
L 175.930722 155.646185 
L 176.4116 139.715555 
L 177.213063 101.477845 
L 177.693941 78.120073 
L 178.014526 377.910679 
L 178.174819 382.44695 
L 178.655696 327.724214 
L 178.815989 321.758596 
L 178.976282 322.957215 
L 179.296867 338.92352 
L 180.09833 389.868742 
L 180.579208 406.383294 
L 181.060086 415.688891 
L 181.861549 426.780082 
L 182.342427 430.548377 
L 182.502719 430.92 
L 182.663012 430.769226 
L 182.823305 430.077524 
L 183.14389 427.09622 
L 183.624768 419.138646 
L 184.426231 400.353342 
L 185.548279 374.28732 
L 186.18945 363.870267 
L 186.670328 358.994733 
L 186.990913 357.173981 
L 187.311498 356.444032 
L 187.471791 356.462494 
L 187.632083 356.719193 
L 187.952669 357.886412 
L 188.433547 361.017706 
L 189.074717 367.014205 
L 191.799692 395.071143 
L 192.601155 400.57857 
L 193.402618 404.608741 
L 194.204081 407.437973 
L 195.005544 409.370502 
L 195.807007 410.671017 
L 196.60847 411.542409 
L 197.570226 412.220533 
L 198.692275 412.701382 
L 200.134908 413.04627 
L 202.218712 413.281394 
L 205.74515 413.414773 
L 213.278903 413.455515 
L 213.439196 196.341703 
L 213.599489 153.238414 
L 214.240659 236.184252 
L 214.400952 235.734522 
L 214.721537 217.592061 
L 215.362708 178.683736 
L 215.843585 165.771114 
L 216.324463 155.645983 
L 216.805341 139.715422 
L 217.606804 101.477782 
L 218.087682 78.120033 
L 218.408267 377.910649 
L 218.56856 382.446923 
L 219.049438 327.724195 
L 219.209731 321.758579 
L 219.370023 322.9572 
L 219.690608 338.923507 
L 220.492072 389.868734 
L 220.972949 406.383288 
L 221.453827 415.688886 
L 222.25529 426.780079 
L 222.736168 430.548375 
L 222.896461 430.919998 
L 223.056754 430.769224 
L 223.217046 430.077522 
L 223.537631 427.096218 
L 224.018509 419.138644 
L 224.819972 400.353341 
L 225.942021 374.287319 
L 226.583191 363.870266 
L 227.064069 358.994732 
L 227.384654 357.17398 
L 227.70524 356.444031 
L 227.865532 356.462493 
L 228.025825 356.719192 
L 228.34641 357.886412 
L 228.827288 361.017705 
L 229.468459 367.014205 
L 232.193433 395.071142 
L 232.994896 400.57857 
L 233.796359 404.608741 
L 234.597823 407.437973 
L 235.399286 409.370502 
L 236.200749 410.671017 
L 237.002212 411.542409 
L 237.963968 412.220533 
L 239.086016 412.701382 
L 240.52865 413.04627 
L 242.612454 413.281394 
L 246.138892 413.414773 
L 253.99323 413.455748 
L 254.153523 196.341915 
L 254.313815 153.238605 
L 254.954986 236.184379 
L 255.115279 235.734635 
L 255.435864 217.592151 
L 256.077034 178.683792 
L 256.557912 165.771152 
L 257.03879 155.646008 
L 257.519668 139.715439 
L 258.321131 101.47779 
L 258.802009 78.120038 
L 259.122594 377.910652 
L 259.282887 382.446927 
L 259.763765 327.724197 
L 259.924057 321.758581 
L 260.08435 322.957201 
L 260.404935 338.923509 
L 261.206398 389.868735 
L 261.687276 406.383289 
L 262.168154 415.688887 
L 262.969617 426.78008 
L 263.450495 430.548375 
L 263.610788 430.919998 
L 263.77108 430.769224 
L 263.931373 430.077523 
L 264.251958 427.096218 
L 264.732836 419.138645 
L 265.534299 400.353341 
L 266.656348 374.287319 
L 267.297518 363.870266 
L 267.778396 358.994732 
L 268.098981 357.17398 
L 268.419566 356.444031 
L 268.579859 356.462493 
L 268.740152 356.719193 
L 269.060737 357.886412 
L 269.541615 361.017705 
L 270.182785 367.014205 
L 272.90776 395.071143 
L 273.709223 400.57857 
L 274.510686 404.608741 
L 275.312149 407.437973 
L 276.113612 409.370502 
L 276.915076 410.671017 
L 277.716539 411.542409 
L 278.678294 412.220533 
L 279.800343 412.701382 
L 281.242976 413.04627 
L 283.326781 413.281394 
L 286.853218 413.414773 
L 293.585509 413.454773 
L 293.745801 196.341031 
L 293.906094 153.237805 
L 294.547264 236.18385 
L 294.707557 235.734161 
L 295.028142 217.591774 
L 295.669313 178.683559 
L 296.150191 165.770994 
L 296.631068 155.645903 
L 297.111946 139.71537 
L 297.913409 101.477757 
L 298.394287 78.120017 
L 298.714873 377.910637 
L 298.875165 382.446913 
L 299.356043 327.724188 
L 299.516336 321.758573 
L 299.676628 322.957193 
L 299.997214 338.923502 
L 300.798677 389.868731 
L 301.279555 406.383286 
L 301.760432 415.688885 
L 302.561896 426.780078 
L 303.042773 430.548374 
L 303.203066 430.919997 
L 303.363359 430.769223 
L 303.523651 430.077522 
L 303.844237 427.096217 
L 304.325114 419.138644 
L 305.126578 400.35334 
L 306.248626 374.287318 
L 306.889796 363.870266 
L 307.370674 358.994732 
L 307.69126 357.17398 
L 308.011845 356.444031 
L 308.172137 356.462493 
L 308.33243 356.719192 
L 308.653015 357.886412 
L 309.133893 361.017705 
L 309.775064 367.014205 
L 312.500038 395.071142 
L 313.301501 400.57857 
L 314.102965 404.608741 
L 314.904428 407.437973 
L 315.705891 409.370502 
L 316.507354 410.671017 
L 317.308817 411.542409 
L 318.270573 412.220533 
L 319.392621 412.701381 
L 320.835255 413.04627 
L 322.919059 413.281394 
L 326.445497 413.414773 
L 333.818957 413.455385 
L 333.97925 196.341586 
L 334.139543 153.238308 
L 334.780713 236.184182 
L 334.941006 235.734459 
L 335.261591 217.592011 
L 335.902762 178.683705 
L 336.383639 165.771093 
L 336.864517 155.645969 
L 337.345395 139.715413 
L 338.146858 101.477777 
L 338.627736 78.12003 
L 338.948321 377.910647 
L 339.108614 382.446921 
L 339.589492 327.724194 
L 339.749785 321.758578 
L 339.910077 322.957198 
L 340.230662 338.923506 
L 341.032126 389.868734 
L 341.513003 406.383288 
L 341.993881 415.688886 
L 342.795344 426.780079 
L 343.276222 430.548375 
L 343.436515 430.919998 
L 343.596808 430.769223 
L 343.7571 430.077522 
L 344.077685 427.096218 
L 344.558563 419.138644 
L 345.360026 400.35334 
L 346.482075 374.287319 
L 347.123245 363.870266 
L 347.604123 358.994732 
L 347.924708 357.17398 
L 348.245294 356.444031 
L 348.405586 356.462493 
L 348.565879 356.719192 
L 348.886464 357.886412 
L 349.367342 361.017705 
L 350.008513 367.014205 
L 352.733487 395.071142 
L 353.53495 400.57857 
L 354.336413 404.608741 
L 355.137877 407.437973 
L 355.93934 409.370502 
L 356.740803 410.671017 
L 357.542266 411.542409 
L 358.504022 412.220533 
L 359.62607 412.701382 
L 361.068704 413.04627 
L 363.152508 413.281394 
L 366.678946 413.414773 
L 373.090651 413.454399 
L 373.250943 196.340692 
L 373.411236 153.237498 
L 374.052406 236.183647 
L 374.212699 235.73398 
L 374.533284 217.591629 
L 375.174455 178.68347 
L 375.655333 165.770933 
L 376.13621 155.645862 
L 376.617088 139.715343 
L 377.418551 101.477744 
L 377.899429 78.120009 
L 378.220015 377.910631 
L 378.380307 382.446907 
L 378.861185 327.724184 
L 379.021478 321.758569 
L 379.18177 322.95719 
L 379.502356 338.9235 
L 380.303819 389.86873 
L 380.784697 406.383285 
L 381.265574 415.688884 
L 382.067038 426.780078 
L 382.547915 430.548373 
L 382.708208 430.919996 
L 382.868501 430.769222 
L 383.028793 430.077521 
L 383.349379 427.096217 
L 383.830256 419.138643 
L 384.63172 400.35334 
L 385.753768 374.287318 
L 386.394938 363.870265 
L 386.875816 358.994731 
L 387.196402 357.17398 
L 387.516987 356.444031 
L 387.677279 356.462493 
L 387.837572 356.719192 
L 388.158157 357.886412 
L 388.639035 361.017705 
L 389.280206 367.014204 
L 392.00518 395.071142 
L 392.806643 400.57857 
L 393.608107 404.608741 
L 394.40957 407.437973 
L 395.211033 409.370502 
L 396.012496 410.671017 
L 396.813959 411.542409 
L 397.775715 412.220533 
L 398.897763 412.701381 
L 400.340397 413.04627 
L 402.424201 413.281394 
L 405.950639 413.414773 
L 413.644685 413.455635 
L 413.804977 196.341813 
L 413.96527 153.238513 
L 414.60644 236.184317 
L 414.766733 235.73458 
L 415.087318 217.592107 
L 415.728489 178.683765 
L 416.209367 165.771134 
L 416.690245 155.645996 
L 417.171122 139.715431 
L 417.972586 101.477786 
L 418.453463 78.120036 
L 418.774049 377.910651 
L 418.934341 382.446925 
L 419.415219 327.724196 
L 419.575512 321.75858 
L 419.735804 322.9572 
L 420.05639 338.923508 
L 420.857853 389.868735 
L 421.338731 406.383288 
L 421.819609 415.688887 
L 422.621072 426.78008 
L 423.10195 430.548375 
L 423.262242 430.919998 
L 423.422535 430.769224 
L 423.582827 430.077522 
L 423.903413 427.096218 
L 424.384291 419.138645 
L 425.185754 400.353341 
L 426.307802 374.287319 
L 426.948973 363.870266 
L 427.42985 358.994732 
L 427.750436 357.17398 
L 428.071021 356.444031 
L 428.231314 356.462493 
L 428.391606 356.719193 
L 428.712191 357.886412 
L 429.193069 361.017705 
L 429.83424 367.014205 
L 432.559214 395.071143 
L 433.360678 400.57857 
L 434.162141 404.608741 
L 434.963604 407.437973 
L 435.765067 409.370502 
L 436.56653 410.671017 
L 437.367993 411.542409 
L 438.329749 412.220533 
L 439.451797 412.701382 
L 440.894431 413.04627 
L 442.978235 413.281394 
L 446.504673 413.414773 
L 453.557548 413.4551 
L 453.717841 196.341327 
L 453.878134 153.238073 
L 454.519304 236.184027 
L 454.679597 235.73432 
L 455.000182 217.5919 
L 455.641352 178.683637 
L 456.12223 165.771047 
L 456.603108 155.645938 
L 457.083986 139.715393 
L 457.885449 101.477768 
L 458.366327 78.120024 
L 458.686912 377.910642 
L 458.847205 382.446917 
L 459.328083 327.724191 
L 459.488375 321.758575 
L 459.648668 322.957196 
L 459.969253 338.923504 
L 460.770716 389.868733 
L 461.251594 406.383287 
L 461.732472 415.688886 
L 462.533935 426.780079 
L 463.014813 430.548374 
L 463.175106 430.919997 
L 463.335398 430.769223 
L 463.495691 430.077522 
L 463.816276 427.096218 
L 464.297154 419.138644 
L 465.098617 400.35334 
L 466.220666 374.287318 
L 466.861836 363.870266 
L 467.342714 358.994732 
L 467.663299 357.17398 
L 467.983885 356.444031 
L 468.144177 356.462493 
L 468.30447 356.719192 
L 468.625055 357.886412 
L 469.105933 361.017705 
L 469.747103 367.014205 
L 472.472078 395.071142 
L 473.273541 400.57857 
L 474.075004 404.608741 
L 474.876467 407.437973 
L 475.677931 409.370502 
L 476.479394 410.671017 
L 477.280857 411.542409 
L 478.242613 412.220533 
L 479.364661 412.701382 
L 480.807295 413.04627 
L 482.891099 413.281394 
L 486.417536 413.414773 
L 493.630705 413.455247 
L 493.790997 196.341461 
L 493.95129 153.238194 
L 494.59246 236.184107 
L 494.752753 235.734392 
L 495.073338 217.591957 
L 495.714509 178.683672 
L 496.195387 165.771071 
L 496.676264 155.645954 
L 497.157142 139.715403 
L 497.958605 101.477773 
L 498.439483 78.120027 
L 498.760069 377.910644 
L 498.920361 382.446919 
L 499.401239 327.724192 
L 499.561532 321.758577 
L 499.721824 322.957197 
L 500.04241 338.923505 
L 500.843873 389.868733 
L 501.324751 406.383287 
L 501.805628 415.688886 
L 502.607092 426.780079 
L 503.087969 430.548375 
L 503.248262 430.919997 
L 503.408555 430.769223 
L 503.568847 430.077522 
L 503.889433 427.096218 
L 504.37031 419.138644 
L 505.171774 400.35334 
L 506.293822 374.287318 
L 506.934992 363.870266 
L 507.41587 358.994732 
L 507.736456 357.17398 
L 508.057041 356.444031 
L 508.217333 356.462493 
L 508.377626 356.719192 
L 508.698211 357.886412 
L 509.179089 361.017705 
L 509.82026 367.014205 
L 512.545234 395.071142 
L 513.346697 400.57857 
L 514.148161 404.608741 
L 514.949624 407.437973 
L 515.751087 409.370502 
L 516.55255 410.671017 
L 517.354013 411.542409 
L 518.315769 412.220533 
L 519.437817 412.701382 
L 520.880451 413.04627 
L 522.964255 413.281394 
L 526.490693 413.414773 
L 533.864153 413.455385 
L 534.024446 196.341586 
L 534.184739 153.238308 
L 534.825909 236.184182 
L 534.986202 235.734459 
L 535.306787 217.592011 
L 535.947958 178.683705 
L 536.428835 165.771093 
L 536.909713 155.645969 
L 537.390591 139.715413 
L 538.192054 101.477777 
L 538.672932 78.12003 
L 538.993517 377.910647 
L 539.15381 382.446921 
L 539.634688 327.724194 
L 539.794981 321.758578 
L 539.955273 322.957198 
L 540.275858 338.923506 
L 541.077322 389.868734 
L 541.558199 406.383288 
L 542.039077 415.688886 
L 542.84054 426.780079 
L 543.321418 430.548375 
L 543.481711 430.919998 
L 543.642004 430.769223 
L 543.802296 430.077522 
L 544.122881 427.096218 
L 544.603759 419.138644 
L 545.405222 400.35334 
L 546.527271 374.287319 
L 547.168441 363.870266 
L 547.649319 358.994732 
L 547.969904 357.17398 
L 548.29049 356.444031 
L 548.450782 356.462493 
L 548.611075 356.719192 
L 548.93166 357.886412 
L 549.412538 361.017705 
L 550.053709 367.014205 
L 552.778683 395.071142 
L 553.580146 400.57857 
L 554.381609 404.608741 
L 555.183073 407.437973 
L 555.984536 409.370502 
L 556.785999 410.671017 
L 557.587462 411.542409 
L 558.549218 412.220533 
L 559.671266 412.701382 
L 561.1139 413.04627 
L 563.197704 413.281394 
L 566.724142 413.414773 
L 574.257895 413.455515 
L 574.418188 196.341703 
L 574.57848 153.238414 
L 575.219651 236.184252 
L 575.379943 235.734522 
L 575.700529 217.592061 
L 576.341699 178.683736 
L 576.822577 165.771114 
L 577.303455 155.645983 
L 577.784333 139.715422 
L 578.585796 101.477782 
L 579.066674 78.120033 
L 579.387259 377.910649 
L 579.547552 382.446923 
L 580.028429 327.724195 
L 580.188722 321.758579 
L 580.349015 322.9572 
L 580.6696 338.923507 
L 581.471063 389.868734 
L 581.951941 406.383288 
L 582.432819 415.688886 
L 583.234282 426.780079 
L 583.71516 430.548375 
L 583.875452 430.919998 
L 584.035745 430.769224 
L 584.196038 430.077522 
L 584.516623 427.096218 
L 584.997501 419.138644 
L 585.798964 400.353341 
L 586.921012 374.287319 
L 587.562183 363.870266 
L 588.043061 358.994732 
L 588.363646 357.17398 
L 588.684231 356.444031 
L 588.844524 356.462493 
L 589.004816 356.719192 
L 589.325402 357.886412 
L 589.80628 361.017705 
L 590.44745 367.014205 
L 593.172425 395.071142 
L 593.973888 400.57857 
L 594.775351 404.608741 
L 595.576814 407.437973 
L 596.378277 409.370502 
L 597.17974 410.671017 
L 597.981203 411.542409 
L 598.942959 412.220533 
L 600.065008 412.701382 
L 601.507641 413.04627 
L 603.591445 413.281394 
L 607.117883 413.414773 
L 613.209003 413.453971 
L 613.369295 196.340305 
L 613.529588 153.237147 
L 614.170759 236.183415 
L 614.331051 235.733772 
L 614.651636 217.591463 
L 615.292807 178.683368 
L 615.773685 165.770864 
L 616.254563 155.645816 
L 616.735441 139.715313 
L 617.536904 101.47773 
L 618.017782 78.12 
L 618.338367 377.910624 
L 618.498659 382.446901 
L 618.979537 327.72418 
L 619.13983 321.758565 
L 619.300123 322.957187 
L 619.620708 338.923497 
L 620.422171 389.868728 
L 620.903049 406.383283 
L 621.383927 415.688883 
L 622.18539 426.780077 
L 622.666268 430.548373 
L 622.82656 430.919996 
L 622.986853 430.769222 
L 623.147146 430.077521 
L 623.467731 427.096217 
L 623.948609 419.138643 
L 624.750072 400.353339 
L 625.87212 374.287318 
L 626.513291 363.870265 
L 626.994169 358.994731 
L 627.314754 357.17398 
L 627.635339 356.444031 
L 627.795632 356.462493 
L 627.955924 356.719192 
L 628.27651 357.886411 
L 628.757387 361.017705 
L 629.398558 367.014204 
L 632.123533 395.071142 
L 632.924996 400.57857 
L 633.726459 404.608741 
L 634.527922 407.437973 
L 635.329385 409.370502 
L 636.130848 410.671017 
L 636.932311 411.542409 
L 637.894067 412.220533 
L 639.016115 412.701381 
L 640.458749 413.04627 
L 642.542553 413.281394 
L 646.068991 413.414773 
L 653.92333 413.455748 
L 654.083622 196.341915 
L 654.243915 153.238605 
L 654.885085 236.184379 
L 655.045378 235.734635 
L 655.365963 217.592151 
L 656.007134 178.683792 
L 656.488012 165.771152 
L 656.968889 155.646008 
L 657.449767 139.715439 
L 658.25123 101.47779 
L 658.732108 78.120038 
L 659.052694 377.910652 
L 659.212986 382.446927 
L 659.693864 327.724197 
L 659.854157 321.758581 
L 660.014449 322.957201 
L 660.335035 338.923509 
L 661.136498 389.868735 
L 661.617376 406.383289 
L 662.098253 415.688887 
L 662.899717 426.78008 
L 663.380594 430.548375 
L 663.540887 430.919998 
L 663.70118 430.769224 
L 663.861472 430.077523 
L 664.182058 427.096218 
L 664.662935 419.138645 
L 665.464399 400.353341 
L 666.586447 374.287319 
L 667.227617 363.870266 
L 667.708495 358.994732 
L 668.029081 357.17398 
L 668.349666 356.444031 
L 668.509958 356.462493 
L 668.670251 356.719193 
L 668.990836 357.886412 
L 669.471714 361.017705 
L 670.112885 367.014205 
L 672.837859 395.071143 
L 673.639322 400.57857 
L 674.440786 404.608741 
L 675.242249 407.437973 
L 676.043712 409.370502 
L 676.845175 410.671017 
L 677.646638 411.542409 
L 678.608394 412.220533 
L 679.730442 412.701382 
L 681.173076 413.04627 
L 683.25688 413.281394 
L 686.783318 413.414773 
L 694.156778 413.455385 
L 694.317071 196.341586 
L 694.477364 153.238308 
L 695.118534 236.184182 
L 695.278827 235.734459 
L 695.599412 217.592011 
L 696.240583 178.683705 
L 696.72146 165.771093 
L 697.202338 155.645969 
L 697.683216 139.715413 
L 698.484679 101.477777 
L 698.965557 78.12003 
L 699.286142 377.910647 
L 699.446435 382.446921 
L 699.927313 327.724194 
L 700.087606 321.758578 
L 700.247898 322.957198 
L 700.568483 338.923506 
L 701.369947 389.868734 
L 701.850824 406.383288 
L 702.331702 415.688886 
L 703.133165 426.780079 
L 703.614043 430.548375 
L 703.774336 430.919998 
L 703.934629 430.769223 
L 704.094921 430.077522 
L 704.415506 427.096218 
L 704.896384 419.138644 
L 705.697847 400.35334 
L 706.819896 374.287319 
L 707.461066 363.870266 
L 707.941944 358.994732 
L 708.262529 357.17398 
L 708.583115 356.444031 
L 708.743407 356.462493 
L 708.9037 356.719192 
L 709.224285 357.886412 
L 709.705163 361.017705 
L 710.346334 367.014205 
L 713.071308 395.071142 
L 713.872771 400.57857 
L 714.674234 404.608741 
L 715.475698 407.437973 
L 716.277161 409.370502 
L 717.078624 410.671017 
L 717.880087 411.542409 
L 718.841843 412.220533 
L 719.963891 412.701382 
L 721.406525 413.04627 
L 723.490329 413.281394 
L 727.016767 413.414773 
L 734.069642 413.4551 
L 734.229935 196.341327 
L 734.390227 153.238073 
L 735.031398 236.184027 
L 735.19169 235.73432 
L 735.512276 217.5919 
L 736.153446 178.683637 
L 736.634324 165.771047 
L 737.115202 155.645938 
L 737.59608 139.715393 
L 738.397543 101.477768 
L 738.878421 78.120024 
L 739.199006 377.910642 
L 739.359299 382.446917 
L 739.840177 327.724191 
L 740.000469 321.758575 
L 740.160762 322.957196 
L 740.481347 338.923504 
L 741.28281 389.868733 
L 741.763688 406.383287 
L 742.244566 415.688886 
L 743.046029 426.780079 
L 743.526907 430.548374 
L 743.6872 430.919997 
L 743.847492 430.769223 
L 744.007785 430.077522 
L 744.32837 427.096218 
L 744.809248 419.138644 
L 745.610711 400.35334 
L 746.732759 374.287318 
L 747.37393 363.870266 
L 747.854808 358.994732 
L 748.175393 357.17398 
L 748.495978 356.444031 
L 748.656271 356.462493 
L 748.816564 356.719192 
L 749.137149 357.886412 
L 749.618027 361.017705 
L 750.259197 367.014205 
L 752.984172 395.071142 
L 753.785635 400.57857 
L 754.587098 404.608741 
L 755.388561 407.437973 
L 756.190024 409.370502 
L 756.991487 410.671017 
L 757.792951 411.542409 
L 758.754706 412.220533 
L 759.876755 412.701382 
L 761.319388 413.04627 
L 763.403192 413.281394 
L 766.92963 413.414773 
L 773.822213 413.454942 
L 773.982506 196.341184 
L 774.142798 153.237943 
L 774.783969 236.183941 
L 774.944261 235.734243 
L 775.264847 217.591839 
L 775.906017 178.683599 
L 776.386895 165.771021 
L 776.867773 155.645921 
L 777.348651 139.715382 
L 778.150114 101.477762 
L 778.630992 78.120021 
L 778.951577 377.910639 
L 779.11187 382.446915 
L 779.592748 327.724189 
L 779.75304 321.758574 
L 779.913333 322.957195 
L 780.233918 338.923503 
L 781.035381 389.868732 
L 781.516259 406.383286 
L 781.997137 415.688885 
L 782.7986 426.780079 
L 783.279478 430.548374 
L 783.439771 430.919997 
L 783.600063 430.769223 
L 783.760356 430.077522 
L 784.080941 427.096218 
L 784.561819 419.138644 
L 785.363282 400.35334 
L 786.48533 374.287318 
L 787.126501 363.870266 
L 787.607379 358.994732 
L 787.927964 357.17398 
L 788.248549 356.444031 
L 788.408842 356.462493 
L 788.569135 356.719192 
L 788.88972 357.886412 
L 789.370598 361.017705 
L 790.011768 367.014205 
L 792.736743 395.071142 
L 793.538206 400.57857 
L 794.339669 404.608741 
L 795.141132 407.437973 
L 795.942595 409.370502 
L 796.744058 410.671017 
L 797.545522 411.542409 
L 798.507277 412.220533 
L 799.629326 412.701382 
L 801.071959 413.04627 
L 803.155763 413.281394 
L 806.682201 413.414773 
L 813.414491 413.454773 
L 813.574784 196.341031 
L 813.735077 153.237805 
L 814.376247 236.18385 
L 814.53654 235.734161 
L 814.857125 217.591774 
L 815.498296 178.683559 
L 815.979173 165.770994 
L 816.460051 155.645903 
L 816.940929 139.71537 
L 817.742392 101.477757 
L 818.22327 78.120017 
L 818.543855 377.910637 
L 818.704148 382.446913 
L 819.185026 327.724188 
L 819.345319 321.758573 
L 819.505611 322.957193 
L 819.826196 338.923502 
L 820.62766 389.868731 
L 821.108537 406.383286 
L 821.589415 415.688885 
L 822.390878 426.780078 
L 822.871756 430.548374 
L 823.032049 430.919997 
L 823.192342 430.769223 
L 823.352634 430.077522 
L 823.673219 427.096217 
L 824.154097 419.138644 
L 824.95556 400.35334 
L 826.077609 374.287318 
L 826.718779 363.870266 
L 827.199657 358.994732 
L 827.520242 357.17398 
L 827.840828 356.444031 
L 828.00112 356.462493 
L 828.161413 356.719192 
L 828.481998 357.886412 
L 828.962876 361.017705 
L 829.604047 367.014205 
L 832.329021 395.071142 
L 833.130484 400.57857 
L 833.931947 404.608741 
L 834.733411 407.437973 
L 835.534874 409.370502 
L 836.336337 410.671017 
L 837.1378 411.542409 
L 838.099556 412.220533 
L 839.221604 412.701381 
L 840.664238 413.04627 
L 842.748042 413.281394 
L 846.27448 413.414773 
L 854.609696 413.456045 
L 854.769989 196.342183 
L 854.930281 153.238849 
L 855.571452 236.184539 
L 855.731744 235.734779 
L 856.05233 217.592266 
L 856.6935 178.683863 
L 857.174378 165.7712 
L 857.655256 155.64604 
L 858.136134 139.71546 
L 858.937597 101.4778 
L 859.418475 78.120044 
L 859.73906 377.910657 
L 859.899353 382.446931 
L 860.380231 327.7242 
L 860.540523 321.758584 
L 860.700816 322.957204 
L 861.021401 338.923511 
L 861.822864 389.868737 
L 862.303742 406.38329 
L 862.78462 415.688888 
L 863.586083 426.78008 
L 864.066961 430.548376 
L 864.227254 430.919998 
L 864.387546 430.769224 
L 864.547839 430.077523 
L 864.868424 427.096219 
L 865.349302 419.138645 
L 866.150765 400.353341 
L 867.272813 374.287319 
L 867.913984 363.870266 
L 868.394862 358.994732 
L 868.715447 357.173981 
L 869.036032 356.444032 
L 869.196325 356.462493 
L 869.356618 356.719193 
L 869.677203 357.886412 
L 870.158081 361.017706 
L 870.799251 367.014205 
L 873.524226 395.071143 
L 874.325689 400.57857 
L 875.127152 404.608741 
L 875.928615 407.437973 
L 876.730078 409.370502 
L 877.531541 410.671017 
L 878.333005 411.542409 
L 879.29476 412.220533 
L 880.416809 412.701382 
L 881.859442 413.04627 
L 883.943246 413.281394 
L 887.469684 413.414773 
L 894.362267 413.454942 
L 894.52256 196.341184 
L 894.682852 153.237943 
L 895.324023 236.183941 
L 895.484315 235.734243 
L 895.804901 217.591839 
L 896.446071 178.683599 
L 896.926949 165.771021 
L 897.407827 155.645921 
L 897.888705 139.715382 
L 898.690168 101.477762 
L 899.171046 78.120021 
L 899.491631 377.910639 
L 899.651924 382.446915 
L 900.132802 327.724189 
L 900.293094 321.758574 
L 900.453387 322.957195 
L 900.773972 338.923503 
L 901.575435 389.868732 
L 902.056313 406.383286 
L 902.537191 415.688885 
L 903.338654 426.780079 
L 903.819532 430.548374 
L 903.979825 430.919997 
L 904.140117 430.769223 
L 904.30041 430.077522 
L 904.620995 427.096218 
L 905.101873 419.138644 
L 905.903336 400.35334 
L 907.025384 374.287318 
L 907.666555 363.870266 
L 908.147433 358.994732 
L 908.468018 357.17398 
L 908.788603 356.444031 
L 908.948896 356.462493 
L 909.109189 356.719192 
L 909.429774 357.886412 
L 909.910652 361.017705 
L 910.551822 367.014205 
L 913.276797 395.071142 
L 914.07826 400.57857 
L 914.879723 404.608741 
L 915.681186 407.437973 
L 916.482649 409.370502 
L 917.284112 410.671017 
L 918.085576 411.542409 
L 919.047331 412.220533 
L 920.16938 412.701382 
L 921.612013 413.04627 
L 923.695817 413.281394 
L 927.222255 413.414773 
L 933.794253 413.454592 
L 933.954545 196.340867 
L 933.954545 196.340867 
" clip-path="url(#pd53d3e34d3)" style="fill: none; stroke: #1f77b4; stroke-width: 1.5; stroke-linecap: square"/>
   </g>
   <g id="line2d_14">
    <path d="M 173.045455 138.655722 
L 177.693941 138.655722 
L 177.854233 413.457379 
L 213.278903 413.457379 
L 213.439196 138.655722 
L 218.087682 138.655722 
L 218.247975 413.457379 
L 253.99323 413.457379 
L 254.153523 138.655722 
L 258.802009 138.655722 
L 258.962302 413.457379 
L 293.585509 413.457379 
L 293.745801 138.655722 
L 298.394287 138.655722 
L 298.55458 413.457379 
L 333.818957 413.457379 
L 333.97925 138.655722 
L 338.627736 138.655722 
L 338.788029 413.457379 
L 373.090651 413.457379 
L 373.250943 138.655722 
L 377.899429 138.655722 
L 378.059722 413.457379 
L 413.644685 413.457379 
L 413.804977 138.655722 
L 418.453463 138.655722 
L 418.613756 413.457379 
L 453.557548 413.457379 
L 453.717841 138.655722 
L 458.366327 138.655722 
L 458.52662 413.457379 
L 493.630705 413.457379 
L 493.790997 138.655722 
L 498.439483 138.655722 
L 498.599776 413.457379 
L 533.864153 413.457379 
L 534.024446 138.655722 
L 538.672932 138.655722 
L 538.833225 413.457379 
L 574.257895 413.457379 
L 574.418188 138.655722 
L 579.066674 138.655722 
L 579.226966 413.457379 
L 613.209003 413.457379 
L 613.369295 138.655722 
L 618.017782 138.655722 
L 618.178074 413.457379 
L 653.92333 413.457379 
L 654.083622 138.655722 
L 658.732108 138.655722 
L 658.892401 413.457379 
L 694.156778 413.457379 
L 694.317071 138.655722 
L 698.965557 138.655722 
L 699.12585 413.457379 
L 734.069642 413.457379 
L 734.229935 138.655722 
L 738.878421 138.655722 
L 739.038713 413.457379 
L 773.822213 413.457379 
L 773.982506 138.655722 
L 778.630992 138.655722 
L 778.791284 413.457379 
L 813.414491 413.457379 
L 813.574784 138.655722 
L 818.22327 138.655722 
L 818.383563 413.457379 
L 854.609696 413.457379 
L 854.769989 138.655722 
L 859.418475 138.655722 
L 859.578767 413.457379 
L 894.362267 413.457379 
L 894.52256 138.655722 
L 899.171046 138.655722 
L 899.331338 413.457379 
L 933.794253 413.457379 
L 933.954545 138.655722 
L 933.954545 138.655722 
" clip-path="url(#pd53d3e34d3)" style="fill: none; stroke: #ff7f0e; stroke-width: 1.5; stroke-linecap: square"/>
   </g>
   <g id="line2d_15">
    <path d="M 929.466352 413.457379 
" clip-path="url(#pd53d3e34d3)" style="fill: none; stroke: #000000; stroke-width: 1.5; stroke-linecap: square"/>
    <defs>
     <path id="m062b934947" d="M 0 1 
C 0.265203 1 0.51958 0.894634 0.707107 0.707107 
C 0.894634 0.51958 1 0.265203 1 0 
C 1 -0.265203 0.894634 -0.51958 0.707107 -0.707107 
C 0.51958 -0.894634 0.265203 -1 0 -1 
C -0.265203 -1 -0.51958 -0.894634 -0.707107 -0.707107 
C -0.894634 -0.51958 -1 -0.265203 -1 0 
C -1 0.265203 -0.894634 0.51958 -0.707107 0.707107 
C -0.51958 0.894634 -0.265203 1 0 1 
z
" style="stroke: #000000"/>
    </defs>
    <g clip-path="url(#pd53d3e34d3)">
     <use xlink:href="#m062b934947" x="173.045455" y="138.655722" style="stroke: #000000"/>
     <use xlink:href="#m062b934947" x="178.174819" y="413.457379" style="stroke: #000000"/>
     <use xlink:href="#m062b934947" x="183.14389" y="413.457379" style="stroke: #000000"/>
     <use xlink:href="#m062b934947" x="188.112961" y="138.655722" style="stroke: #000000"/>
     <use xlink:href="#m062b934947" x="193.082033" y="413.457379" style="stroke: #000000"/>
     <use xlink:href="#m062b934947" x="198.211397" y="413.457379" style="stroke: #000000"/>
     <use xlink:href="#m062b934947" x="203.180468" y="138.655722" style="stroke: #000000"/>
     <use xlink:href="#m062b934947" x="208.149539" y="413.457379" style="stroke: #000000"/>
     <use xlink:href="#m062b934947" x="213.118611" y="138.655722" style="stroke: #000000"/>
     <use xlink:href="#m062b934947" x="218.247975" y="413.457379" style="stroke: #000000"/>
     <use xlink:href="#m062b934947" x="223.217046" y="413.457379" style="stroke: #000000"/>
     <use xlink:href="#m062b934947" x="228.186118" y="138.655722" style="stroke: #000000"/>
     <use xlink:href="#m062b934947" x="233.155189" y="413.457379" style="stroke: #000000"/>
     <use xlink:href="#m062b934947" x="238.284553" y="413.457379" style="stroke: #000000"/>
     <use xlink:href="#m062b934947" x="243.253624" y="138.655722" style="stroke: #000000"/>
     <use xlink:href="#m062b934947" x="248.222696" y="413.457379" style="stroke: #000000"/>
     <use xlink:href="#m062b934947" x="253.191767" y="138.655722" style="stroke: #000000"/>
     <use xlink:href="#m062b934947" x="258.321131" y="413.457379" style="stroke: #000000"/>
     <use xlink:href="#m062b934947" x="263.290202" y="413.457379" style="stroke: #000000"/>
     <use xlink:href="#m062b934947" x="268.259274" y="138.655722" style="stroke: #000000"/>
     <use xlink:href="#m062b934947" x="273.228345" y="413.457379" style="stroke: #000000"/>
     <use xlink:href="#m062b934947" x="278.357709" y="413.457379" style="stroke: #000000"/>
     <use xlink:href="#m062b934947" x="283.326781" y="138.655722" style="stroke: #000000"/>
     <use xlink:href="#m062b934947" x="288.295852" y="413.457379" style="stroke: #000000"/>
     <use xlink:href="#m062b934947" x="293.264923" y="138.655722" style="stroke: #000000"/>
     <use xlink:href="#m062b934947" x="298.394287" y="413.457379" style="stroke: #000000"/>
     <use xlink:href="#m062b934947" x="303.363359" y="413.457379" style="stroke: #000000"/>
     <use xlink:href="#m062b934947" x="308.33243" y="138.655722" style="stroke: #000000"/>
     <use xlink:href="#m062b934947" x="313.301501" y="413.457379" style="stroke: #000000"/>
     <use xlink:href="#m062b934947" x="318.430865" y="413.457379" style="stroke: #000000"/>
     <use xlink:href="#m062b934947" x="323.399937" y="138.655722" style="stroke: #000000"/>
     <use xlink:href="#m062b934947" x="328.369008" y="413.457379" style="stroke: #000000"/>
     <use xlink:href="#m062b934947" x="333.33808" y="138.655722" style="stroke: #000000"/>
     <use xlink:href="#m062b934947" x="338.467444" y="413.457379" style="stroke: #000000"/>
     <use xlink:href="#m062b934947" x="343.436515" y="413.457379" style="stroke: #000000"/>
     <use xlink:href="#m062b934947" x="348.405586" y="138.655722" style="stroke: #000000"/>
     <use xlink:href="#m062b934947" x="353.374658" y="413.457379" style="stroke: #000000"/>
     <use xlink:href="#m062b934947" x="358.504022" y="413.457379" style="stroke: #000000"/>
     <use xlink:href="#m062b934947" x="363.473093" y="138.655722" style="stroke: #000000"/>
     <use xlink:href="#m062b934947" x="368.442164" y="413.457379" style="stroke: #000000"/>
     <use xlink:href="#m062b934947" x="373.411236" y="138.655722" style="stroke: #000000"/>
     <use xlink:href="#m062b934947" x="378.5406" y="413.457379" style="stroke: #000000"/>
     <use xlink:href="#m062b934947" x="383.509671" y="413.457379" style="stroke: #000000"/>
     <use xlink:href="#m062b934947" x="388.478743" y="138.655722" style="stroke: #000000"/>
     <use xlink:href="#m062b934947" x="393.447814" y="413.457379" style="stroke: #000000"/>
     <use xlink:href="#m062b934947" x="398.577178" y="413.457379" style="stroke: #000000"/>
     <use xlink:href="#m062b934947" x="403.546249" y="138.655722" style="stroke: #000000"/>
     <use xlink:href="#m062b934947" x="408.515321" y="413.457379" style="stroke: #000000"/>
     <use xlink:href="#m062b934947" x="413.484392" y="138.655722" style="stroke: #000000"/>
     <use xlink:href="#m062b934947" x="418.613756" y="413.457379" style="stroke: #000000"/>
     <use xlink:href="#m062b934947" x="423.582827" y="413.457379" style="stroke: #000000"/>
     <use xlink:href="#m062b934947" x="428.551899" y="138.655722" style="stroke: #000000"/>
     <use xlink:href="#m062b934947" x="433.52097" y="413.457379" style="stroke: #000000"/>
     <use xlink:href="#m062b934947" x="438.650334" y="413.457379" style="stroke: #000000"/>
     <use xlink:href="#m062b934947" x="443.619406" y="138.655722" style="stroke: #000000"/>
     <use xlink:href="#m062b934947" x="448.588477" y="413.457379" style="stroke: #000000"/>
     <use xlink:href="#m062b934947" x="453.557548" y="138.655722" style="stroke: #000000"/>
     <use xlink:href="#m062b934947" x="458.686912" y="413.457379" style="stroke: #000000"/>
     <use xlink:href="#m062b934947" x="463.655984" y="413.457379" style="stroke: #000000"/>
     <use xlink:href="#m062b934947" x="468.625055" y="138.655722" style="stroke: #000000"/>
     <use xlink:href="#m062b934947" x="473.594126" y="413.457379" style="stroke: #000000"/>
     <use xlink:href="#m062b934947" x="478.72349" y="413.457379" style="stroke: #000000"/>
     <use xlink:href="#m062b934947" x="483.692562" y="138.655722" style="stroke: #000000"/>
     <use xlink:href="#m062b934947" x="488.661633" y="413.457379" style="stroke: #000000"/>
     <use xlink:href="#m062b934947" x="493.630705" y="138.655722" style="stroke: #000000"/>
     <use xlink:href="#m062b934947" x="498.760069" y="413.457379" style="stroke: #000000"/>
     <use xlink:href="#m062b934947" x="503.72914" y="413.457379" style="stroke: #000000"/>
     <use xlink:href="#m062b934947" x="508.698211" y="138.655722" style="stroke: #000000"/>
     <use xlink:href="#m062b934947" x="513.667283" y="413.457379" style="stroke: #000000"/>
     <use xlink:href="#m062b934947" x="518.796647" y="413.457379" style="stroke: #000000"/>
     <use xlink:href="#m062b934947" x="523.765718" y="138.655722" style="stroke: #000000"/>
     <use xlink:href="#m062b934947" x="528.734789" y="413.457379" style="stroke: #000000"/>
     <use xlink:href="#m062b934947" x="533.703861" y="138.655722" style="stroke: #000000"/>
     <use xlink:href="#m062b934947" x="538.833225" y="413.457379" style="stroke: #000000"/>
     <use xlink:href="#m062b934947" x="543.802296" y="413.457379" style="stroke: #000000"/>
     <use xlink:href="#m062b934947" x="548.771368" y="138.655722" style="stroke: #000000"/>
     <use xlink:href="#m062b934947" x="553.740439" y="413.457379" style="stroke: #000000"/>
     <use xlink:href="#m062b934947" x="558.869803" y="413.457379" style="stroke: #000000"/>
     <use xlink:href="#m062b934947" x="563.838874" y="138.655722" style="stroke: #000000"/>
     <use xlink:href="#m062b934947" x="568.807946" y="413.457379" style="stroke: #000000"/>
     <use xlink:href="#m062b934947" x="573.777017" y="138.655722" style="stroke: #000000"/>
     <use xlink:href="#m062b934947" x="578.906381" y="413.457379" style="stroke: #000000"/>
     <use xlink:href="#m062b934947" x="583.875452" y="413.457379" style="stroke: #000000"/>
     <use xlink:href="#m062b934947" x="588.844524" y="138.655722" style="stroke: #000000"/>
     <use xlink:href="#m062b934947" x="593.813595" y="413.457379" style="stroke: #000000"/>
     <use xlink:href="#m062b934947" x="598.942959" y="413.457379" style="stroke: #000000"/>
     <use xlink:href="#m062b934947" x="603.912031" y="138.655722" style="stroke: #000000"/>
     <use xlink:href="#m062b934947" x="608.881102" y="413.457379" style="stroke: #000000"/>
     <use xlink:href="#m062b934947" x="613.850173" y="138.655722" style="stroke: #000000"/>
     <use xlink:href="#m062b934947" x="618.979537" y="413.457379" style="stroke: #000000"/>
     <use xlink:href="#m062b934947" x="623.948609" y="413.457379" style="stroke: #000000"/>
     <use xlink:href="#m062b934947" x="628.91768" y="138.655722" style="stroke: #000000"/>
     <use xlink:href="#m062b934947" x="633.886751" y="413.457379" style="stroke: #000000"/>
     <use xlink:href="#m062b934947" x="639.016115" y="413.457379" style="stroke: #000000"/>
     <use xlink:href="#m062b934947" x="643.985187" y="138.655722" style="stroke: #000000"/>
     <use xlink:href="#m062b934947" x="648.954258" y="413.457379" style="stroke: #000000"/>
     <use xlink:href="#m062b934947" x="653.92333" y="138.655722" style="stroke: #000000"/>
     <use xlink:href="#m062b934947" x="659.052694" y="413.457379" style="stroke: #000000"/>
     <use xlink:href="#m062b934947" x="664.021765" y="413.457379" style="stroke: #000000"/>
     <use xlink:href="#m062b934947" x="668.990836" y="138.655722" style="stroke: #000000"/>
     <use xlink:href="#m062b934947" x="673.959908" y="413.457379" style="stroke: #000000"/>
     <use xlink:href="#m062b934947" x="679.089272" y="413.457379" style="stroke: #000000"/>
     <use xlink:href="#m062b934947" x="684.058343" y="138.655722" style="stroke: #000000"/>
     <use xlink:href="#m062b934947" x="689.027414" y="413.457379" style="stroke: #000000"/>
     <use xlink:href="#m062b934947" x="693.996486" y="138.655722" style="stroke: #000000"/>
     <use xlink:href="#m062b934947" x="699.12585" y="413.457379" style="stroke: #000000"/>
     <use xlink:href="#m062b934947" x="704.094921" y="413.457379" style="stroke: #000000"/>
     <use xlink:href="#m062b934947" x="709.063993" y="138.655722" style="stroke: #000000"/>
     <use xlink:href="#m062b934947" x="714.033064" y="413.457379" style="stroke: #000000"/>
     <use xlink:href="#m062b934947" x="719.162428" y="413.457379" style="stroke: #000000"/>
     <use xlink:href="#m062b934947" x="724.131499" y="138.655722" style="stroke: #000000"/>
     <use xlink:href="#m062b934947" x="729.100571" y="413.457379" style="stroke: #000000"/>
     <use xlink:href="#m062b934947" x="734.069642" y="138.655722" style="stroke: #000000"/>
     <use xlink:href="#m062b934947" x="739.199006" y="413.457379" style="stroke: #000000"/>
     <use xlink:href="#m062b934947" x="744.168077" y="413.457379" style="stroke: #000000"/>
     <use xlink:href="#m062b934947" x="749.137149" y="138.655722" style="stroke: #000000"/>
     <use xlink:href="#m062b934947" x="754.10622" y="413.457379" style="stroke: #000000"/>
     <use xlink:href="#m062b934947" x="759.235584" y="413.457379" style="stroke: #000000"/>
     <use xlink:href="#m062b934947" x="764.204656" y="138.655722" style="stroke: #000000"/>
     <use xlink:href="#m062b934947" x="769.173727" y="413.457379" style="stroke: #000000"/>
     <use xlink:href="#m062b934947" x="774.142798" y="138.655722" style="stroke: #000000"/>
     <use xlink:href="#m062b934947" x="779.272162" y="413.457379" style="stroke: #000000"/>
     <use xlink:href="#m062b934947" x="784.241234" y="413.457379" style="stroke: #000000"/>
     <use xlink:href="#m062b934947" x="789.210305" y="138.655722" style="stroke: #000000"/>
     <use xlink:href="#m062b934947" x="794.179376" y="413.457379" style="stroke: #000000"/>
     <use xlink:href="#m062b934947" x="799.30874" y="413.457379" style="stroke: #000000"/>
     <use xlink:href="#m062b934947" x="804.277812" y="138.655722" style="stroke: #000000"/>
     <use xlink:href="#m062b934947" x="809.246883" y="413.457379" style="stroke: #000000"/>
     <use xlink:href="#m062b934947" x="814.215955" y="138.655722" style="stroke: #000000"/>
     <use xlink:href="#m062b934947" x="819.345319" y="413.457379" style="stroke: #000000"/>
     <use xlink:href="#m062b934947" x="824.31439" y="413.457379" style="stroke: #000000"/>
     <use xlink:href="#m062b934947" x="829.283461" y="138.655722" style="stroke: #000000"/>
     <use xlink:href="#m062b934947" x="834.252533" y="413.457379" style="stroke: #000000"/>
     <use xlink:href="#m062b934947" x="839.381897" y="413.457379" style="stroke: #000000"/>
     <use xlink:href="#m062b934947" x="844.350968" y="138.655722" style="stroke: #000000"/>
     <use xlink:href="#m062b934947" x="849.320039" y="413.457379" style="stroke: #000000"/>
     <use xlink:href="#m062b934947" x="854.289111" y="138.655722" style="stroke: #000000"/>
     <use xlink:href="#m062b934947" x="859.418475" y="413.457379" style="stroke: #000000"/>
     <use xlink:href="#m062b934947" x="864.387546" y="413.457379" style="stroke: #000000"/>
     <use xlink:href="#m062b934947" x="869.356618" y="138.655722" style="stroke: #000000"/>
     <use xlink:href="#m062b934947" x="874.325689" y="413.457379" style="stroke: #000000"/>
     <use xlink:href="#m062b934947" x="879.455053" y="413.457379" style="stroke: #000000"/>
     <use xlink:href="#m062b934947" x="884.424124" y="138.655722" style="stroke: #000000"/>
     <use xlink:href="#m062b934947" x="889.393196" y="413.457379" style="stroke: #000000"/>
     <use xlink:href="#m062b934947" x="894.362267" y="138.655722" style="stroke: #000000"/>
     <use xlink:href="#m062b934947" x="899.491631" y="413.457379" style="stroke: #000000"/>
     <use xlink:href="#m062b934947" x="904.460702" y="413.457379" style="stroke: #000000"/>
     <use xlink:href="#m062b934947" x="909.429774" y="138.655722" style="stroke: #000000"/>
     <use xlink:href="#m062b934947" x="914.398845" y="413.457379" style="stroke: #000000"/>
     <use xlink:href="#m062b934947" x="919.528209" y="413.457379" style="stroke: #000000"/>
     <use xlink:href="#m062b934947" x="924.497281" y="138.655722" style="stroke: #000000"/>
     <use xlink:href="#m062b934947" x="929.466352" y="413.457379" style="stroke: #000000"/>
    </g>
   </g>
   <g id="patch_3">
    <path d="M 135 448.56 
L 135 60.48 
" style="fill: none; stroke: #000000; stroke-width: 0.8; stroke-linejoin: miter; stroke-linecap: square"/>
   </g>
   <g id="patch_4">
    <path d="M 972 448.56 
L 972 60.48 
" style="fill: none; stroke: #000000; stroke-width: 0.8; stroke-linejoin: miter; stroke-linecap: square"/>
   </g>
   <g id="patch_5">
    <path d="M 135 448.56 
L 972 448.56 
" style="fill: none; stroke: #000000; stroke-width: 0.8; stroke-linejoin: miter; stroke-linecap: square"/>
   </g>
   <g id="patch_6">
    <path d="M 135 60.48 
L 972 60.48 
" style="fill: none; stroke: #000000; stroke-width: 0.8; stroke-linejoin: miter; stroke-linecap: square"/>
   </g>
   <g id="legend_1">
    <g id="patch_7">
     <path d="M 895.915625 278.315313 
L 965 278.315313 
Q 967 278.315313 967 276.315313 
L 967 232.724688 
Q 967 230.724688 965 230.724688 
L 895.915625 230.724688 
Q 893.915625 230.724688 893.915625 232.724688 
L 893.915625 276.315313 
Q 893.915625 278.315313 895.915625 278.315313 
z
" style="fill: #ffffff; opacity: 0.8; stroke: #cccccc; stroke-linejoin: miter"/>
    </g>
    <g id="line2d_16">
     <path d="M 897.915625 238.823125 
L 907.915625 238.823125 
L 917.915625 238.823125 
" style="fill: none; stroke: #1f77b4; stroke-width: 1.5; stroke-linecap: square"/>
    </g>
    <g id="text_14">
     <!-- nw_0 -->
     <g transform="translate(925.915625 242.323125) scale(0.1 -0.1)">
      <defs>
       <path id="DejaVuSans-6e" d="M 3513 2113 
L 3513 0 
L 2938 0 
L 2938 2094 
Q 2938 2591 2744 2837 
Q 2550 3084 2163 3084 
Q 1697 3084 1428 2787 
Q 1159 2491 1159 1978 
L 1159 0 
L 581 0 
L 581 3500 
L 1159 3500 
L 1159 2956 
Q 1366 3272 1645 3428 
Q 1925 3584 2291 3584 
Q 2894 3584 3203 3211 
Q 3513 2838 3513 2113 
z
" transform="scale(0.015625)"/>
       <path id="DejaVuSans-77" d="M 269 3500 
L 844 3500 
L 1563 769 
L 2278 3500 
L 2956 3500 
L 3675 769 
L 4391 3500 
L 4966 3500 
L 4050 0 
L 3372 0 
L 2619 2869 
L 1863 0 
L 1184 0 
L 269 3500 
z
" transform="scale(0.015625)"/>
       <path id="DejaVuSans-5f" d="M 3263 -1063 
L 3263 -1509 
L -63 -1509 
L -63 -1063 
L 3263 -1063 
z
" transform="scale(0.015625)"/>
      </defs>
      <use xlink:href="#DejaVuSans-6e"/>
      <use xlink:href="#DejaVuSans-77" x="63.378906"/>
      <use xlink:href="#DejaVuSans-5f" x="145.166016"/>
      <use xlink:href="#DejaVuSans-30" x="195.166016"/>
     </g>
    </g>
    <g id="line2d_17">
     <path d="M 897.915625 253.779375 
L 907.915625 253.779375 
L 917.915625 253.779375 
" style="fill: none; stroke: #ff7f0e; stroke-width: 1.5; stroke-linecap: square"/>
    </g>
    <g id="text_15">
     <!-- input_0 -->
     <g transform="translate(925.915625 257.279375) scale(0.1 -0.1)">
      <defs>
       <path id="DejaVuSans-69" d="M 603 3500 
L 1178 3500 
L 1178 0 
L 603 0 
L 603 3500 
z
M 603 4863 
L 1178 4863 
L 1178 4134 
L 603 4134 
L 603 4863 
z
" transform="scale(0.015625)"/>
       <path id="DejaVuSans-70" d="M 1159 525 
L 1159 -1331 
L 581 -1331 
L 581 3500 
L 1159 3500 
L 1159 2969 
Q 1341 3281 1617 3432 
Q 1894 3584 2278 3584 
Q 2916 3584 3314 3078 
Q 3713 2572 3713 1747 
Q 3713 922 3314 415 
Q 2916 -91 2278 -91 
Q 1894 -91 1617 61 
Q 1341 213 1159 525 
z
M 3116 1747 
Q 3116 2381 2855 2742 
Q 2594 3103 2138 3103 
Q 1681 3103 1420 2742 
Q 1159 2381 1159 1747 
Q 1159 1113 1420 752 
Q 1681 391 2138 391 
Q 2594 391 2855 752 
Q 3116 1113 3116 1747 
z
" transform="scale(0.015625)"/>
       <path id="DejaVuSans-75" d="M 544 1381 
L 544 3500 
L 1119 3500 
L 1119 1403 
Q 1119 906 1312 657 
Q 1506 409 1894 409 
Q 2359 409 2629 706 
Q 2900 1003 2900 1516 
L 2900 3500 
L 3475 3500 
L 3475 0 
L 2900 0 
L 2900 538 
Q 2691 219 2414 64 
Q 2138 -91 1772 -91 
Q 1169 -91 856 284 
Q 544 659 544 1381 
z
M 1991 3584 
L 1991 3584 
z
" transform="scale(0.015625)"/>
      </defs>
      <use xlink:href="#DejaVuSans-69"/>
      <use xlink:href="#DejaVuSans-6e" x="27.783203"/>
      <use xlink:href="#DejaVuSans-70" x="91.162109"/>
      <use xlink:href="#DejaVuSans-75" x="154.638672"/>
      <use xlink:href="#DejaVuSans-74" x="218.017578"/>
      <use xlink:href="#DejaVuSans-5f" x="257.226562"/>
      <use xlink:href="#DejaVuSans-30" x="307.226562"/>
     </g>
    </g>
    <g id="line2d_18">
     <path d="M 897.915625 268.735625 
L 907.915625 268.735625 
L 917.915625 268.735625 
" style="fill: none; stroke: #000000; stroke-width: 1.5; stroke-linecap: square"/>
     <g>
      <use xlink:href="#m062b934947" x="907.915625" y="268.735625" style="stroke: #000000"/>
     </g>
    </g>
    <g id="text_16">
     <!-- target -->
     <g transform="translate(925.915625 272.235625) scale(0.1 -0.1)">
      <defs>
       <path id="DejaVuSans-61" d="M 2194 1759 
Q 1497 1759 1228 1600 
Q 959 1441 959 1056 
Q 959 750 1161 570 
Q 1363 391 1709 391 
Q 2188 391 2477 730 
Q 2766 1069 2766 1631 
L 2766 1759 
L 2194 1759 
z
M 3341 1997 
L 3341 0 
L 2766 0 
L 2766 531 
Q 2569 213 2275 61 
Q 1981 -91 1556 -91 
Q 1019 -91 701 211 
Q 384 513 384 1019 
Q 384 1609 779 1909 
Q 1175 2209 1959 2209 
L 2766 2209 
L 2766 2266 
Q 2766 2663 2505 2880 
Q 2244 3097 1772 3097 
Q 1472 3097 1187 3025 
Q 903 2953 641 2809 
L 641 3341 
Q 956 3463 1253 3523 
Q 1550 3584 1831 3584 
Q 2591 3584 2966 3190 
Q 3341 2797 3341 1997 
z
" transform="scale(0.015625)"/>
       <path id="DejaVuSans-72" d="M 2631 2963 
Q 2534 3019 2420 3045 
Q 2306 3072 2169 3072 
Q 1681 3072 1420 2755 
Q 1159 2438 1159 1844 
L 1159 0 
L 581 0 
L 581 3500 
L 1159 3500 
L 1159 2956 
Q 1341 3275 1631 3429 
Q 1922 3584 2338 3584 
Q 2397 3584 2469 3576 
Q 2541 3569 2628 3553 
L 2631 2963 
z
" transform="scale(0.015625)"/>
       <path id="DejaVuSans-67" d="M 2906 1791 
Q 2906 2416 2648 2759 
Q 2391 3103 1925 3103 
Q 1463 3103 1205 2759 
Q 947 2416 947 1791 
Q 947 1169 1205 825 
Q 1463 481 1925 481 
Q 2391 481 2648 825 
Q 2906 1169 2906 1791 
z
M 3481 434 
Q 3481 -459 3084 -895 
Q 2688 -1331 1869 -1331 
Q 1566 -1331 1297 -1286 
Q 1028 -1241 775 -1147 
L 775 -588 
Q 1028 -725 1275 -790 
Q 1522 -856 1778 -856 
Q 2344 -856 2625 -561 
Q 2906 -266 2906 331 
L 2906 616 
Q 2728 306 2450 153 
Q 2172 0 1784 0 
Q 1141 0 747 490 
Q 353 981 353 1791 
Q 353 2603 747 3093 
Q 1141 3584 1784 3584 
Q 2172 3584 2450 3431 
Q 2728 3278 2906 2969 
L 2906 3500 
L 3481 3500 
L 3481 434 
z
" transform="scale(0.015625)"/>
       <path id="DejaVuSans-65" d="M 3597 1894 
L 3597 1613 
L 953 1613 
Q 991 1019 1311 708 
Q 1631 397 2203 397 
Q 2534 397 2845 478 
Q 3156 559 3463 722 
L 3463 178 
Q 3153 47 2828 -22 
Q 2503 -91 2169 -91 
Q 1331 -91 842 396 
Q 353 884 353 1716 
Q 353 2575 817 3079 
Q 1281 3584 2069 3584 
Q 2775 3584 3186 3129 
Q 3597 2675 3597 1894 
z
M 3022 2063 
Q 3016 2534 2758 2815 
Q 2500 3097 2075 3097 
Q 1594 3097 1305 2825 
Q 1016 2553 972 2059 
L 3022 2063 
z
" transform="scale(0.015625)"/>
      </defs>
      <use xlink:href="#DejaVuSans-74"/>
      <use xlink:href="#DejaVuSans-61" x="39.208984"/>
      <use xlink:href="#DejaVuSans-72" x="100.488281"/>
      <use xlink:href="#DejaVuSans-67" x="139.851562"/>
      <use xlink:href="#DejaVuSans-65" x="203.328125"/>
      <use xlink:href="#DejaVuSans-74" x="264.851562"/>
     </g>
    </g>
   </g>
  </g>
 </g>
 <defs>
  <clipPath id="pd53d3e34d3">
   <rect x="135" y="60.48" width="837" height="388.08"/>
  </clipPath>
 </defs>
</svg>
