<?xml version="1.0" encoding="utf-8" standalone="no"?>
<!DOCTYPE svg PUBLIC "-//W3C//DTD SVG 1.1//EN"
  "http://www.w3.org/Graphics/SVG/1.1/DTD/svg11.dtd">
<svg xmlns:xlink="http://www.w3.org/1999/xlink" width="1080pt" height="504pt" viewBox="0 0 1080 504" xmlns="http://www.w3.org/2000/svg" version="1.1">
 <metadata>
  <rdf:RDF xmlns:dc="http://purl.org/dc/elements/1.1/" xmlns:cc="http://creativecommons.org/ns#" xmlns:rdf="http://www.w3.org/1999/02/22-rdf-syntax-ns#">
   <cc:Work>
    <dc:type rdf:resource="http://purl.org/dc/dcmitype/StillImage"/>
    <dc:date>2024-05-09T11:02:08.398454</dc:date>
    <dc:format>image/svg+xml</dc:format>
    <dc:creator>
     <cc:Agent>
      <dc:title>Matplotlib v3.7.1, https://matplotlib.org/</dc:title>
     </cc:Agent>
    </dc:creator>
   </cc:Work>
  </rdf:RDF>
 </metadata>
 <defs>
  <style type="text/css">*{stroke-linejoin: round; stroke-linecap: butt}</style>
 </defs>
 <g id="figure_1">
  <g id="patch_1">
   <path d="M 0 504 
L 1080 504 
L 1080 0 
L 0 0 
z
" style="fill: #ffffff"/>
  </g>
  <g id="axes_1">
   <g id="patch_2">
    <path d="M 135 448.56 
L 972 448.56 
L 972 60.48 
L 135 60.48 
z
" style="fill: #ffffff"/>
   </g>
   <g id="matplotlib.axis_1">
    <g id="xtick_1">
     <g id="line2d_1">
      <defs>
       <path id="mf1664d7239" d="M 0 0 
L 0 3.5 
" style="stroke: #000000; stroke-width: 0.8"/>
      </defs>
      <g>
       <use xlink:href="#mf1664d7239" x="173.045455" y="448.56" style="stroke: #000000; stroke-width: 0.8"/>
      </g>
     </g>
     <g id="text_1">
      <!-- 0 -->
      <g transform="translate(169.864205 463.158437) scale(0.1 -0.1)">
       <defs>
        <path id="DejaVuSans-30" d="M 2034 4250 
Q 1547 4250 1301 3770 
Q 1056 3291 1056 2328 
Q 1056 1369 1301 889 
Q 1547 409 2034 409 
Q 2525 409 2770 889 
Q 3016 1369 3016 2328 
Q 3016 3291 2770 3770 
Q 2525 4250 2034 4250 
z
M 2034 4750 
Q 2819 4750 3233 4129 
Q 3647 3509 3647 2328 
Q 3647 1150 3233 529 
Q 2819 -91 2034 -91 
Q 1250 -91 836 529 
Q 422 1150 422 2328 
Q 422 3509 836 4129 
Q 1250 4750 2034 4750 
z
" transform="scale(0.015625)"/>
       </defs>
       <use xlink:href="#DejaVuSans-30"/>
      </g>
     </g>
    </g>
    <g id="xtick_2">
     <g id="line2d_2">
      <g>
       <use xlink:href="#mf1664d7239" x="333.33808" y="448.56" style="stroke: #000000; stroke-width: 0.8"/>
      </g>
     </g>
     <g id="text_2">
      <!-- 1000 -->
      <g transform="translate(320.61308 463.158437) scale(0.1 -0.1)">
       <defs>
        <path id="DejaVuSans-31" d="M 794 531 
L 1825 531 
L 1825 4091 
L 703 3866 
L 703 4441 
L 1819 4666 
L 2450 4666 
L 2450 531 
L 3481 531 
L 3481 0 
L 794 0 
L 794 531 
z
" transform="scale(0.015625)"/>
       </defs>
       <use xlink:href="#DejaVuSans-31"/>
       <use xlink:href="#DejaVuSans-30" x="63.623047"/>
       <use xlink:href="#DejaVuSans-30" x="127.246094"/>
       <use xlink:href="#DejaVuSans-30" x="190.869141"/>
      </g>
     </g>
    </g>
    <g id="xtick_3">
     <g id="line2d_3">
      <g>
       <use xlink:href="#mf1664d7239" x="493.630705" y="448.56" style="stroke: #000000; stroke-width: 0.8"/>
      </g>
     </g>
     <g id="text_3">
      <!-- 2000 -->
      <g transform="translate(480.905705 463.158437) scale(0.1 -0.1)">
       <defs>
        <path id="DejaVuSans-32" d="M 1228 531 
L 3431 531 
L 3431 0 
L 469 0 
L 469 531 
Q 828 903 1448 1529 
Q 2069 2156 2228 2338 
Q 2531 2678 2651 2914 
Q 2772 3150 2772 3378 
Q 2772 3750 2511 3984 
Q 2250 4219 1831 4219 
Q 1534 4219 1204 4116 
Q 875 4013 500 3803 
L 500 4441 
Q 881 4594 1212 4672 
Q 1544 4750 1819 4750 
Q 2544 4750 2975 4387 
Q 3406 4025 3406 3419 
Q 3406 3131 3298 2873 
Q 3191 2616 2906 2266 
Q 2828 2175 2409 1742 
Q 1991 1309 1228 531 
z
" transform="scale(0.015625)"/>
       </defs>
       <use xlink:href="#DejaVuSans-32"/>
       <use xlink:href="#DejaVuSans-30" x="63.623047"/>
       <use xlink:href="#DejaVuSans-30" x="127.246094"/>
       <use xlink:href="#DejaVuSans-30" x="190.869141"/>
      </g>
     </g>
    </g>
    <g id="xtick_4">
     <g id="line2d_4">
      <g>
       <use xlink:href="#mf1664d7239" x="653.92333" y="448.56" style="stroke: #000000; stroke-width: 0.8"/>
      </g>
     </g>
     <g id="text_4">
      <!-- 3000 -->
      <g transform="translate(641.19833 463.158437) scale(0.1 -0.1)">
       <defs>
        <path id="DejaVuSans-33" d="M 2597 2516 
Q 3050 2419 3304 2112 
Q 3559 1806 3559 1356 
Q 3559 666 3084 287 
Q 2609 -91 1734 -91 
Q 1441 -91 1130 -33 
Q 819 25 488 141 
L 488 750 
Q 750 597 1062 519 
Q 1375 441 1716 441 
Q 2309 441 2620 675 
Q 2931 909 2931 1356 
Q 2931 1769 2642 2001 
Q 2353 2234 1838 2234 
L 1294 2234 
L 1294 2753 
L 1863 2753 
Q 2328 2753 2575 2939 
Q 2822 3125 2822 3475 
Q 2822 3834 2567 4026 
Q 2313 4219 1838 4219 
Q 1578 4219 1281 4162 
Q 984 4106 628 3988 
L 628 4550 
Q 988 4650 1302 4700 
Q 1616 4750 1894 4750 
Q 2613 4750 3031 4423 
Q 3450 4097 3450 3541 
Q 3450 3153 3228 2886 
Q 3006 2619 2597 2516 
z
" transform="scale(0.015625)"/>
       </defs>
       <use xlink:href="#DejaVuSans-33"/>
       <use xlink:href="#DejaVuSans-30" x="63.623047"/>
       <use xlink:href="#DejaVuSans-30" x="127.246094"/>
       <use xlink:href="#DejaVuSans-30" x="190.869141"/>
      </g>
     </g>
    </g>
    <g id="xtick_5">
     <g id="line2d_5">
      <g>
       <use xlink:href="#mf1664d7239" x="814.215955" y="448.56" style="stroke: #000000; stroke-width: 0.8"/>
      </g>
     </g>
     <g id="text_5">
      <!-- 4000 -->
      <g transform="translate(801.490955 463.158437) scale(0.1 -0.1)">
       <defs>
        <path id="DejaVuSans-34" d="M 2419 4116 
L 825 1625 
L 2419 1625 
L 2419 4116 
z
M 2253 4666 
L 3047 4666 
L 3047 1625 
L 3713 1625 
L 3713 1100 
L 3047 1100 
L 3047 0 
L 2419 0 
L 2419 1100 
L 313 1100 
L 313 1709 
L 2253 4666 
z
" transform="scale(0.015625)"/>
       </defs>
       <use xlink:href="#DejaVuSans-34"/>
       <use xlink:href="#DejaVuSans-30" x="63.623047"/>
       <use xlink:href="#DejaVuSans-30" x="127.246094"/>
       <use xlink:href="#DejaVuSans-30" x="190.869141"/>
      </g>
     </g>
    </g>
    <g id="text_6">
     <!-- t -->
     <g transform="translate(551.539844 476.836563) scale(0.1 -0.1)">
      <defs>
       <path id="DejaVuSans-74" d="M 1172 4494 
L 1172 3500 
L 2356 3500 
L 2356 3053 
L 1172 3053 
L 1172 1153 
Q 1172 725 1289 603 
Q 1406 481 1766 481 
L 2356 481 
L 2356 0 
L 1766 0 
Q 1100 0 847 248 
Q 594 497 594 1153 
L 594 3053 
L 172 3053 
L 172 3500 
L 594 3500 
L 594 4494 
L 1172 4494 
z
" transform="scale(0.015625)"/>
      </defs>
      <use xlink:href="#DejaVuSans-74"/>
     </g>
    </g>
   </g>
   <g id="matplotlib.axis_2">
    <g id="ytick_1">
     <g id="line2d_6">
      <defs>
       <path id="mcfe32bec8b" d="M 0 0 
L -3.5 0 
" style="stroke: #000000; stroke-width: 0.8"/>
      </defs>
      <g>
       <use xlink:href="#mcfe32bec8b" x="135" y="392.717902" style="stroke: #000000; stroke-width: 0.8"/>
      </g>
     </g>
     <g id="text_7">
      <!-- 0.0 -->
      <g transform="translate(112.096875 396.517121) scale(0.1 -0.1)">
       <defs>
        <path id="DejaVuSans-2e" d="M 684 794 
L 1344 794 
L 1344 0 
L 684 0 
L 684 794 
z
" transform="scale(0.015625)"/>
       </defs>
       <use xlink:href="#DejaVuSans-30"/>
       <use xlink:href="#DejaVuSans-2e" x="63.623047"/>
       <use xlink:href="#DejaVuSans-30" x="95.410156"/>
      </g>
     </g>
    </g>
    <g id="ytick_2">
     <g id="line2d_7">
      <g>
       <use xlink:href="#mcfe32bec8b" x="135" y="336.694741" style="stroke: #000000; stroke-width: 0.8"/>
      </g>
     </g>
     <g id="text_8">
      <!-- 0.5 -->
      <g transform="translate(112.096875 340.49396) scale(0.1 -0.1)">
       <defs>
        <path id="DejaVuSans-35" d="M 691 4666 
L 3169 4666 
L 3169 4134 
L 1269 4134 
L 1269 2991 
Q 1406 3038 1543 3061 
Q 1681 3084 1819 3084 
Q 2600 3084 3056 2656 
Q 3513 2228 3513 1497 
Q 3513 744 3044 326 
Q 2575 -91 1722 -91 
Q 1428 -91 1123 -41 
Q 819 9 494 109 
L 494 744 
Q 775 591 1075 516 
Q 1375 441 1709 441 
Q 2250 441 2565 725 
Q 2881 1009 2881 1497 
Q 2881 1984 2565 2268 
Q 2250 2553 1709 2553 
Q 1456 2553 1204 2497 
Q 953 2441 691 2322 
L 691 4666 
z
" transform="scale(0.015625)"/>
       </defs>
       <use xlink:href="#DejaVuSans-30"/>
       <use xlink:href="#DejaVuSans-2e" x="63.623047"/>
       <use xlink:href="#DejaVuSans-35" x="95.410156"/>
      </g>
     </g>
    </g>
    <g id="ytick_3">
     <g id="line2d_8">
      <g>
       <use xlink:href="#mcfe32bec8b" x="135" y="280.671581" style="stroke: #000000; stroke-width: 0.8"/>
      </g>
     </g>
     <g id="text_9">
      <!-- 1.0 -->
      <g transform="translate(112.096875 284.470799) scale(0.1 -0.1)">
       <use xlink:href="#DejaVuSans-31"/>
       <use xlink:href="#DejaVuSans-2e" x="63.623047"/>
       <use xlink:href="#DejaVuSans-30" x="95.410156"/>
      </g>
     </g>
    </g>
    <g id="ytick_4">
     <g id="line2d_9">
      <g>
       <use xlink:href="#mcfe32bec8b" x="135" y="224.64842" style="stroke: #000000; stroke-width: 0.8"/>
      </g>
     </g>
     <g id="text_10">
      <!-- 1.5 -->
      <g transform="translate(112.096875 228.447639) scale(0.1 -0.1)">
       <use xlink:href="#DejaVuSans-31"/>
       <use xlink:href="#DejaVuSans-2e" x="63.623047"/>
       <use xlink:href="#DejaVuSans-35" x="95.410156"/>
      </g>
     </g>
    </g>
    <g id="ytick_5">
     <g id="line2d_10">
      <g>
       <use xlink:href="#mcfe32bec8b" x="135" y="168.62526" style="stroke: #000000; stroke-width: 0.8"/>
      </g>
     </g>
     <g id="text_11">
      <!-- 2.0 -->
      <g transform="translate(112.096875 172.424478) scale(0.1 -0.1)">
       <use xlink:href="#DejaVuSans-32"/>
       <use xlink:href="#DejaVuSans-2e" x="63.623047"/>
       <use xlink:href="#DejaVuSans-30" x="95.410156"/>
      </g>
     </g>
    </g>
    <g id="ytick_6">
     <g id="line2d_11">
      <g>
       <use xlink:href="#mcfe32bec8b" x="135" y="112.602099" style="stroke: #000000; stroke-width: 0.8"/>
      </g>
     </g>
     <g id="text_12">
      <!-- 2.5 -->
      <g transform="translate(112.096875 116.401318) scale(0.1 -0.1)">
       <use xlink:href="#DejaVuSans-32"/>
       <use xlink:href="#DejaVuSans-2e" x="63.623047"/>
       <use xlink:href="#DejaVuSans-35" x="95.410156"/>
      </g>
     </g>
    </g>
   </g>
   <g id="line2d_12">
    <path d="M 173.045455 363.862105 
L 173.686625 276.671359 
L 174.327796 223.668521 
L 174.808673 198.939715 
L 175.449844 178.241676 
L 176.091014 164.857683 
L 177.533648 137.20271 
L 177.693941 133.359948 
L 178.335111 189.908375 
L 178.976282 225.684221 
L 179.45716 241.837822 
L 179.938037 250.791047 
L 180.258623 253.508694 
L 180.418915 254.042477 
L 180.579208 254.087192 
L 180.739501 253.685604 
L 181.060086 251.703405 
L 181.540964 246.326868 
L 182.182134 235.993377 
L 183.464475 210.318495 
L 185.067401 179.384914 
L 186.029157 164.86023 
L 186.83062 155.764828 
L 187.471791 150.502422 
L 188.112961 146.952577 
L 188.593839 145.333581 
L 189.074717 144.528092 
L 189.395302 144.40225 
L 189.715888 144.574818 
L 190.036473 145.018663 
L 190.517351 146.132556 
L 191.158521 148.308346 
L 192.120277 152.610089 
L 195.486422 168.935664 
L 196.287885 171.591648 
L 196.929056 173.126053 
L 197.570226 174.092329 
L 198.051104 174.432842 
L 198.531982 174.443261 
L 199.01286 174.129127 
L 199.493738 173.501272 
L 200.134908 172.203856 
L 200.936371 169.913551 
L 201.898127 166.348131 
L 203.180468 160.629485 
L 206.386321 145.883862 
L 207.348076 142.60269 
L 208.149539 140.661812 
L 208.79071 139.740424 
L 209.271588 139.465968 
L 209.592173 139.497414 
L 209.912758 139.709745 
L 210.393636 140.38381 
L 210.874514 141.505475 
L 211.515685 143.734174 
L 212.156855 146.841447 
L 212.958318 152.01776 
L 213.278903 154.502549 
L 213.759781 110.364201 
L 214.240659 86.892022 
L 214.561244 79.89936 
L 214.721537 78.44149 
L 214.88183 78.12 
L 215.042122 78.781005 
L 215.362708 82.485114 
L 215.843585 92.126993 
L 217.606804 133.029745 
L 218.087682 139.28042 
L 218.728853 211.484354 
L 219.370023 260.424391 
L 220.011194 291.411331 
L 220.492072 305.551545 
L 220.972949 313.653007 
L 221.293535 316.370563 
L 221.61412 317.35291 
L 221.774413 317.292089 
L 222.094998 316.245228 
L 222.575876 312.839111 
L 223.217046 306.01925 
L 225.942021 273.722263 
L 226.583191 268.958081 
L 227.224362 265.875075 
L 227.70524 264.688666 
L 228.025825 264.424282 
L 228.34641 264.567434 
L 228.666995 265.101956 
L 229.147873 266.594392 
L 229.789044 269.752275 
L 230.590507 275.284032 
L 231.552263 283.669625 
L 233.155189 299.931028 
L 235.399286 322.411008 
L 236.681627 333.011664 
L 237.643382 339.375068 
L 238.605138 344.257239 
L 239.406601 347.200083 
L 240.047772 348.85726 
L 240.688942 349.947485 
L 241.16982 350.431316 
L 241.650698 350.664073 
L 242.131576 350.681122 
L 242.772746 350.434955 
L 243.57421 349.833515 
L 245.497721 348.23921 
L 246.138892 348.044424 
L 246.619769 348.123184 
L 247.100647 348.445213 
L 247.581525 349.054901 
L 248.062403 349.995362 
L 248.703574 351.835515 
L 249.344744 354.431304 
L 249.985915 357.870437 
L 250.787378 363.478016 
L 251.588841 370.671638 
L 252.550597 381.570373 
L 253.512352 395.107211 
L 253.99323 402.909183 
L 254.474108 354.865779 
L 254.954986 324.906825 
L 255.435864 307.607754 
L 255.916742 298.437261 
L 256.39762 293.688822 
L 257.359375 286.333783 
L 257.840253 279.804467 
L 258.321131 269.713468 
L 258.802009 255.431491 
L 259.443179 328.013682 
L 260.08435 376.930866 
L 260.72552 407.508453 
L 261.206398 421.099012 
L 261.687276 428.452343 
L 262.007861 430.565282 
L 262.168154 430.92 
L 262.328447 430.861441 
L 262.488739 430.427772 
L 262.809325 428.577367 
L 263.290202 423.826225 
L 263.931373 414.965639 
L 265.694592 385.676439 
L 266.81664 369.131277 
L 267.778396 358.256607 
L 268.579859 351.842489 
L 269.22103 348.412475 
L 269.701907 346.763226 
L 270.182785 345.833513 
L 270.503371 345.57593 
L 270.823956 345.579593 
L 271.144541 345.818862 
L 271.625419 346.561963 
L 272.266589 348.130472 
L 273.228345 351.298006 
L 275.632735 359.71664 
L 276.434198 361.693485 
L 277.075368 362.749697 
L 277.556246 363.197308 
L 278.037124 363.333201 
L 278.518002 363.150759 
L 278.99888 362.650504 
L 279.479758 361.839707 
L 280.120928 360.299897 
L 280.922391 357.708544 
L 281.884147 353.796729 
L 283.487073 346.102841 
L 285.410585 336.979753 
L 286.37234 333.383575 
L 287.013511 331.618599 
L 287.654681 330.49711 
L 288.135559 330.14711 
L 288.456145 330.17363 
L 288.77673 330.423693 
L 289.257608 331.246305 
L 289.738486 332.643385 
L 290.379656 335.468875 
L 291.020827 339.47564 
L 291.82229 346.268105 
L 292.623753 355.173031 
L 293.585509 368.814692 
L 294.066386 323.644444 
L 294.547264 296.330448 
L 295.028142 281.235836 
L 295.50902 273.644688 
L 295.989898 269.692708 
L 296.631068 264.857504 
L 297.111946 258.618143 
L 297.592824 248.370523 
L 298.073702 233.118138 
L 298.394287 219.895923 
L 299.035458 291.970859 
L 299.676628 340.521901 
L 300.317799 370.841213 
L 300.798677 384.294968 
L 301.279555 391.552784 
L 301.60014 393.622628 
L 301.760432 393.961572 
L 301.920725 393.890945 
L 302.081018 393.448827 
L 302.401603 391.592074 
L 302.882481 386.856917 
L 303.683944 375.57948 
L 306.569211 331.193541 
L 307.370674 322.814734 
L 308.011845 317.903819 
L 308.653015 314.563832 
L 309.133893 313.031841 
L 309.614771 312.266071 
L 309.935356 312.144827 
L 310.255942 312.306884 
L 310.576527 312.726724 
L 311.057405 313.782066 
L 311.698575 315.842521 
L 312.660331 319.901074 
L 315.705891 333.742908 
L 316.507354 336.305428 
L 317.148524 337.795794 
L 317.789695 338.746275 
L 318.270573 339.095765 
L 318.751451 339.136042 
L 319.232329 338.876421 
L 319.713206 338.332467 
L 320.354377 337.202543 
L 321.15584 335.233785 
L 322.277888 331.730345 
L 325.002863 322.788944 
L 325.804326 321.01056 
L 326.445497 320.162992 
L 326.926375 319.942011 
L 327.24696 320.019884 
L 327.567545 320.294782 
L 328.048423 321.107413 
L 328.529301 322.441487 
L 329.170471 325.108117 
L 329.811642 328.880713 
L 330.613105 335.292517 
L 331.414568 343.741454 
L 332.376324 356.771135 
L 333.33808 373.150978 
L 333.818957 382.650605 
L 334.299835 337.920672 
L 334.780713 311.080259 
L 335.261591 296.237854 
L 335.742469 288.459647 
L 337.02481 274.017854 
L 337.505688 263.461392 
L 337.986566 247.475173 
L 338.627736 216.263324 
L 339.268907 288.542678 
L 339.910077 337.467634 
L 340.551248 368.283952 
L 341.032126 382.170123 
L 341.513003 389.898923 
L 341.833589 392.299784 
L 341.993881 392.80852 
L 342.154174 392.910226 
L 342.314467 392.642765 
L 342.635052 391.141531 
L 343.11593 386.952662 
L 343.7571 378.906328 
L 346.962953 334.048543 
L 347.764416 327.144448 
L 348.405586 323.415547 
L 348.886464 321.640413 
L 349.367342 320.691097 
L 349.687927 320.48642 
L 350.008513 320.59915 
L 350.329098 321.005537 
L 350.809976 322.110343 
L 351.451146 324.368645 
L 352.252609 328.148982 
L 353.695243 336.39444 
L 355.458462 346.367943 
L 356.420218 350.785369 
L 357.221681 353.623019 
L 357.862851 355.26926 
L 358.504022 356.337373 
L 358.9849 356.75993 
L 359.465777 356.867579 
L 359.946655 356.675775 
L 360.427533 356.205796 
L 361.068704 355.193116 
L 361.870167 353.416293 
L 362.992215 350.298542 
L 365.076019 344.395253 
L 365.877482 342.781119 
L 366.518653 342.005573 
L 366.999531 341.804907 
L 367.320116 341.880681 
L 367.640701 342.14125 
L 368.121579 342.910035 
L 368.602457 344.17429 
L 369.243628 346.709197 
L 369.884798 350.308278 
L 370.686261 356.448536 
L 371.487724 364.570305 
L 372.289187 374.823607 
L 373.090651 387.337537 
L 373.571528 342.719492 
L 374.052406 316.358182 
L 374.533284 302.236312 
L 375.014162 295.308398 
L 376.296503 283.069716 
L 376.777381 273.108098 
L 377.258259 257.506052 
L 377.899429 226.416189 
L 378.5406 299.888023 
L 379.18177 349.747384 
L 379.822941 381.260097 
L 380.303819 395.525431 
L 380.784697 403.521208 
L 381.105282 406.042409 
L 381.265574 406.595068 
L 381.425867 406.730321 
L 381.58616 406.486373 
L 381.906745 405.003405 
L 382.387623 400.774947 
L 383.028793 392.564028 
L 384.471427 369.872891 
L 385.753768 351.278516 
L 386.715524 340.671988 
L 387.516987 334.487381 
L 388.158157 331.283571 
L 388.639035 329.841275 
L 388.95962 329.304914 
L 389.280206 329.084306 
L 389.600791 329.156292 
L 389.921376 329.496213 
L 390.402254 330.451979 
L 391.043425 332.419008 
L 391.844888 335.690584 
L 393.608107 344.222867 
L 394.890448 349.952808 
L 395.852203 353.281467 
L 396.493374 354.882514 
L 397.134544 355.93239 
L 397.615422 356.344499 
L 398.0963 356.433855 
L 398.577178 356.206988 
L 399.058056 355.676883 
L 399.699226 354.531967 
L 400.500689 352.483846 
L 401.462445 349.3235 
L 405.149176 336.180367 
L 405.790346 334.813595 
L 406.271224 334.166994 
L 406.752102 333.90088 
L 407.072687 333.959234 
L 407.393272 334.222875 
L 407.87415 335.033667 
L 408.355028 336.383263 
L 408.996199 339.096037 
L 409.637369 342.941644 
L 410.438832 349.478397 
L 411.240295 358.084355 
L 412.202051 371.33614 
L 413.163807 387.964297 
L 413.644685 397.594339 
L 414.125563 353.76337 
L 414.60644 327.890477 
L 415.087318 313.9161 
L 415.568196 306.759372 
L 416.690245 294.683585 
L 417.171122 284.658365 
L 417.652 268.973567 
L 418.132878 246.536606 
L 418.453463 227.525054 
L 419.094634 302.517401 
L 419.735804 353.765602 
L 420.376975 386.540371 
L 420.857853 401.67297 
L 421.338731 410.471572 
L 421.659316 413.49385 
L 421.979901 414.656717 
L 422.140194 414.640774 
L 422.300486 414.275617 
L 422.621072 412.632793 
L 423.10195 408.345148 
L 423.903413 398.061062 
L 426.628387 359.847278 
L 427.42985 352.158436 
L 428.071021 347.710967 
L 428.712191 344.766778 
L 429.193069 343.492278 
L 429.513655 343.055577 
L 429.83424 342.925211 
L 430.154825 343.078284 
L 430.47541 343.490383 
L 430.956288 344.538193 
L 431.597459 346.598694 
L 432.559214 350.680483 
L 435.604774 364.650892 
L 436.406237 367.20263 
L 437.047408 368.651726 
L 437.528286 369.361564 
L 438.009164 369.736595 
L 438.490042 369.774352 
L 438.970919 369.479404 
L 439.451797 368.862938 
L 440.092968 367.571657 
L 440.894431 365.285797 
L 441.856187 361.753084 
L 443.459113 354.781543 
L 445.222332 347.362281 
L 446.184088 344.294309 
L 446.825258 342.903147 
L 447.306136 342.289507 
L 447.626721 342.112791 
L 447.947306 342.138817 
L 448.267892 342.38167 
L 448.74877 343.182466 
L 449.229647 344.546758 
L 449.870818 347.315894 
L 450.511988 351.257528 
L 451.313452 357.965717 
L 452.114915 366.794487 
L 453.07667 380.372191 
L 453.557548 388.437003 
L 454.038426 346.6617 
L 454.519304 322.552744 
L 455.000182 310.061807 
L 455.48106 304.116228 
L 456.442816 296.027001 
L 456.923693 287.976076 
L 457.404571 274.508927 
L 457.885449 254.352223 
L 458.366327 226.776667 
L 459.007498 301.465643 
L 459.648668 352.331131 
L 460.289839 384.665257 
L 460.770716 399.441171 
L 461.251594 407.869023 
L 461.57218 410.639732 
L 461.892765 411.549713 
L 462.053057 411.407383 
L 462.373643 410.110491 
L 462.854521 406.123021 
L 463.495691 398.174712 
L 464.938325 375.909254 
L 466.220666 357.598564 
L 467.022129 348.691635 
L 467.823592 342.191899 
L 468.464762 338.759661 
L 468.94564 337.172912 
L 469.426518 336.373257 
L 469.747103 336.243746 
L 470.067689 336.410356 
L 470.388274 336.848355 
L 470.869152 337.957421 
L 471.510322 340.139359 
L 472.472078 344.481404 
L 475.838223 361.03048 
L 476.639686 363.694878 
L 477.280857 365.214948 
L 477.922027 366.150262 
L 478.402905 366.45955 
L 478.883783 366.435376 
L 479.364661 366.087445 
L 479.845539 365.431691 
L 480.486709 364.116766 
L 481.288172 361.860092 
L 482.410221 357.850291 
L 485.616073 345.675502 
L 486.417536 343.696148 
L 486.898414 342.926499 
L 487.379292 342.532021 
L 487.699877 342.501802 
L 488.020463 342.674436 
L 488.341048 343.063835 
L 488.821926 344.083952 
L 489.302804 345.666433 
L 489.943974 348.7237 
L 490.585145 352.948996 
L 491.386608 360.003405 
L 492.188071 369.166748 
L 493.149827 383.127268 
L 493.630705 391.374777 
L 494.111582 351.763029 
L 494.59246 329.267541 
L 495.073338 317.861653 
L 495.554216 312.49198 
L 496.355679 306.066688 
L 496.676264 301.681201 
L 497.157142 291.009069 
L 497.63802 273.999747 
L 498.118898 249.58875 
L 498.439483 228.915717 
L 499.080654 303.593161 
L 499.721824 354.392788 
L 500.362995 386.61438 
L 500.843873 401.280082 
L 501.324751 409.579348 
L 501.645336 412.255758 
L 501.965921 413.065681 
L 502.126214 412.871448 
L 502.446799 411.467553 
L 502.927677 407.31316 
L 503.568847 399.134425 
L 505.011481 376.344094 
L 506.293822 357.591087 
L 507.255578 346.885131 
L 508.057041 340.652315 
L 508.698211 337.439389 
L 509.179089 336.009166 
L 509.499674 335.490128 
L 509.82026 335.294278 
L 510.140845 335.398373 
L 510.46143 335.777592 
L 510.942308 336.805255 
L 511.583479 338.890601 
L 512.384942 342.341421 
L 513.987868 350.525247 
L 515.430502 357.454205 
L 516.392257 361.04776 
L 517.19372 363.161302 
L 517.834891 364.204516 
L 518.315769 364.594209 
L 518.796647 364.646827 
L 519.277525 364.369425 
L 519.758402 363.775482 
L 520.399573 362.525556 
L 521.201036 360.315604 
L 522.162792 356.918501 
L 523.926011 349.628147 
L 525.368644 344.016749 
L 526.170107 341.588413 
L 526.811278 340.207788 
L 527.292156 339.579726 
L 527.612741 339.382824 
L 527.933326 339.380273 
L 528.253912 339.586239 
L 528.574497 340.014562 
L 529.055375 341.103366 
L 529.536253 342.766622 
L 530.177423 345.949786 
L 530.818594 350.320946 
L 531.620057 357.584271 
L 532.42152 366.984185 
L 533.383276 381.262163 
L 533.864153 389.681079 
L 534.345031 351.980647 
L 534.825909 330.951496 
L 535.306787 320.571109 
L 535.787665 315.789844 
L 536.428835 311.082045 
L 536.749421 307.278926 
L 537.230299 297.688524 
L 537.711176 281.830857 
L 538.192054 258.462576 
L 538.672932 226.888152 
L 539.314103 301.779626 
L 539.955273 352.731595 
L 540.596444 385.050479 
L 541.077322 399.757594 
L 541.558199 408.074994 
L 541.878785 410.752257 
L 542.19937 411.555225 
L 542.359663 411.354897 
L 542.680248 409.934184 
L 543.161126 405.744766 
L 543.802296 397.505753 
L 545.24493 374.554363 
L 546.527271 355.667922 
L 547.489027 344.887872 
L 548.29049 338.617558 
L 548.93166 335.392863 
L 549.412538 333.965097 
L 549.733123 333.453189 
L 550.053709 333.268887 
L 550.374294 333.388934 
L 550.694879 333.788472 
L 551.175757 334.854655 
L 551.816927 337.005862 
L 552.618391 340.56085 
L 554.221317 349.01563 
L 555.66395 356.242142 
L 556.625706 360.051682 
L 557.427169 362.350663 
L 558.06834 363.543257 
L 558.549218 364.04445 
L 559.030096 364.207338 
L 559.510973 364.038314 
L 559.991851 363.550237 
L 560.633022 362.436551 
L 561.274192 360.849496 
L 562.235948 357.748913 
L 563.678582 352.10595 
L 565.602093 344.684131 
L 566.403556 342.316409 
L 567.044727 340.971137 
L 567.525605 340.362012 
L 567.84619 340.174182 
L 568.166775 340.177906 
L 568.48736 340.387399 
L 568.807946 340.816553 
L 569.288824 341.901683 
L 569.769701 343.555566 
L 570.410872 346.717817 
L 571.052042 351.059075 
L 571.853506 358.273549 
L 572.654969 367.613393 
L 573.616724 381.806977 
L 574.257895 393.164406 
L 574.738773 356.983308 
L 575.219651 337.156661 
L 575.700529 327.65043 
L 576.181406 323.404732 
L 576.822577 318.87011 
L 577.143162 314.917793 
L 577.463747 308.834245 
L 577.944625 294.473102 
L 578.425503 272.595171 
L 579.066674 230.308539 
L 579.707844 305.721146 
L 580.349015 357.096553 
L 580.990185 389.74842 
L 581.471063 404.651091 
L 581.951941 413.122003 
L 582.272526 415.880275 
L 582.593111 416.748616 
L 582.753404 416.575496 
L 583.073989 415.198998 
L 583.554867 411.052642 
L 584.196038 402.833723 
L 585.478379 382.416809 
L 586.921012 360.789796 
L 587.882768 349.890863 
L 588.684231 343.52422 
L 589.325402 340.229491 
L 589.80628 338.75522 
L 590.126865 338.215725 
L 590.44745 338.006848 
L 590.768035 338.105533 
L 591.088621 338.487086 
L 591.569498 339.532908 
L 592.210669 341.669774 
L 593.012132 345.227869 
L 594.454766 352.882958 
L 596.057692 361.122678 
L 597.019448 365.055731 
L 597.820911 367.472908 
L 598.462081 368.768056 
L 598.942959 369.349876 
L 599.423837 369.595891 
L 599.904715 369.511889 
L 600.385593 369.110133 
L 600.866471 368.408898 
L 601.507641 367.049931 
L 602.309104 364.770922 
L 603.431153 360.802989 
L 606.156127 350.671007 
L 606.95759 348.537574 
L 607.598761 347.405412 
L 608.079639 346.970489 
L 608.400224 346.905376 
L 608.720809 347.036903 
L 609.041395 347.379117 
L 609.522272 348.317391 
L 610.00315 349.805273 
L 610.644321 352.717712 
L 611.285491 356.778438 
L 612.086954 363.602394 
L 612.888418 372.511782 
L 613.209003 376.690184 
L 613.689881 341.169551 
L 614.170759 321.990108 
L 614.651636 313.140959 
L 614.972222 310.452544 
L 615.773685 306.020525 
L 616.09427 302.588777 
L 616.414855 297.0499 
L 616.895733 283.553354 
L 617.376611 262.599246 
L 618.017782 221.638823 
L 618.658952 298.3583 
L 619.300123 350.803573 
L 619.941293 384.311556 
L 620.422171 399.729656 
L 620.903049 408.617658 
L 621.223634 411.60373 
L 621.544219 412.662613 
L 621.704512 412.571556 
L 622.025097 411.334254 
L 622.345682 408.914625 
L 622.82656 403.593519 
L 623.628023 391.882611 
L 626.032413 354.617391 
L 626.994169 343.894721 
L 627.795632 337.65541 
L 628.436802 334.427269 
L 628.91768 332.975532 
L 629.238265 332.436416 
L 629.558851 332.215567 
L 629.879436 332.289596 
L 630.200021 332.633653 
L 630.680899 333.599174 
L 631.322069 335.585056 
L 632.123533 338.888033 
L 633.886751 347.509148 
L 635.169092 353.306785 
L 636.130848 356.677762 
L 636.772019 358.298832 
L 637.413189 359.359332 
L 637.894067 359.771703 
L 638.374945 359.853488 
L 638.855823 359.6101 
L 639.336701 359.053413 
L 639.977871 357.855501 
L 640.779334 355.709367 
L 641.74109 352.378654 
L 643.344016 345.823306 
L 644.946943 339.506457 
L 645.908698 336.606816 
L 646.549869 335.298798 
L 647.030747 334.73142 
L 647.351332 334.577682 
L 647.671917 334.620302 
L 647.992502 334.873316 
L 648.47338 335.677224 
L 648.954258 337.030069 
L 649.595429 339.761477 
L 650.236599 343.64021 
L 651.038062 350.235724 
L 651.839525 358.916281 
L 652.801281 372.273774 
L 653.763037 389.020634 
L 653.92333 392.15247 
L 654.404207 356.724808 
L 654.885085 337.277239 
L 655.365963 327.767462 
L 655.846841 323.126685 
L 656.327719 319.193181 
L 656.648304 315.289859 
L 657.129182 305.529286 
L 657.61006 289.278644 
L 658.090938 265.09799 
L 658.732108 219.105108 
L 659.373279 297.52011 
L 660.014449 351.497355 
L 660.65562 386.378299 
L 661.136498 402.725929 
L 661.617376 412.461561 
L 661.937961 415.969182 
L 662.258546 417.516235 
L 662.418839 417.657147 
L 662.579131 417.426759 
L 662.899717 415.991324 
L 663.380594 411.874322 
L 664.021765 403.861579 
L 665.464399 381.689867 
L 666.74674 363.521785 
L 667.708495 353.174627 
L 668.509958 347.161228 
L 669.151129 344.065942 
L 669.632007 342.689684 
L 669.952592 342.190599 
L 670.273177 342.002251 
L 670.593763 342.101813 
L 670.914348 342.46496 
L 671.395226 343.448113 
L 672.036396 345.43933 
L 672.837859 348.724276 
L 674.761371 357.998773 
L 676.043712 363.520915 
L 676.845175 366.168918 
L 677.486345 367.712536 
L 678.127516 368.692623 
L 678.608394 369.043215 
L 679.089272 369.062287 
L 679.57015 368.755508 
L 680.051027 368.13498 
L 680.692198 366.851601 
L 681.493661 364.598671 
L 682.455417 361.140793 
L 684.218636 353.685855 
L 685.661269 347.864433 
L 686.623025 344.852361 
L 687.264196 343.472211 
L 687.745073 342.852321 
L 688.065659 342.664361 
L 688.386244 342.673407 
L 688.706829 342.893505 
L 689.027414 343.338383 
L 689.508292 344.456317 
L 689.98917 346.153543 
L 690.630341 349.388957 
L 691.271511 353.819669 
L 692.072974 361.166782 
L 692.874437 370.659997 
L 693.836193 385.061588 
L 694.156778 390.621353 
L 694.637656 355.576967 
L 695.118534 336.483163 
L 695.599412 327.277986 
L 696.08029 322.873985 
L 696.561168 319.092154 
L 696.881753 315.234888 
L 697.202338 309.357001 
L 697.683216 295.356043 
L 698.164094 273.70828 
L 698.805265 231.20267 
L 698.965557 218.011565 
L 699.606728 296.368189 
L 700.247898 350.205297 
L 700.889069 384.878327 
L 701.369947 401.033892 
L 701.850824 410.552827 
L 702.17141 413.905013 
L 702.491995 415.289684 
L 702.652288 415.347273 
L 702.81258 415.032384 
L 703.133165 413.425127 
L 703.614043 409.045905 
L 704.255214 400.681891 
L 705.85814 375.214914 
L 706.980188 359.017293 
L 707.941944 348.329867 
L 708.743407 342.101097 
L 709.384578 338.881602 
L 709.865456 337.441234 
L 710.186041 336.91344 
L 710.506626 336.707658 
L 710.827211 336.80106 
L 711.147797 337.169279 
L 711.628675 338.180917 
L 712.269845 340.2484 
L 713.071308 343.688135 
L 714.674234 351.914564 
L 716.116868 358.987045 
L 717.078624 362.742842 
L 717.880087 365.034585 
L 718.521257 366.248443 
L 719.002135 366.782084 
L 719.483013 366.991825 
L 719.963891 366.884113 
L 720.444769 366.471697 
L 720.925647 365.773177 
L 721.566817 364.438898 
L 722.36828 362.22451 
L 723.490329 358.408107 
L 726.055011 349.360329 
L 726.856474 347.32775 
L 727.497644 346.255515 
L 727.978522 345.852352 
L 728.299108 345.801805 
L 728.619693 345.942436 
L 728.940278 346.288159 
L 729.421156 347.220957 
L 729.902034 348.690196 
L 730.543204 351.556895 
L 731.184375 355.547711 
L 731.985838 362.250148 
L 732.787301 371.000398 
L 733.749057 384.392268 
L 734.069642 389.589223 
L 734.55052 354.689386 
L 735.031398 335.683161 
L 735.512276 326.511414 
L 735.993154 322.087955 
L 736.474031 318.233977 
L 736.794617 314.299148 
L 737.115202 308.3199 
L 737.59608 294.121843 
L 738.076958 272.222475 
L 738.718128 229.296494 
L 738.878421 215.985256 
L 739.519591 295.216804 
L 740.160762 349.782083 
L 740.801932 385.047744 
L 741.28281 401.56586 
L 741.763688 411.382676 
L 742.084273 414.899984 
L 742.404859 416.424713 
L 742.565151 416.543383 
L 742.725444 416.283848 
L 743.046029 414.770824 
L 743.526907 410.494352 
L 744.168077 402.202335 
L 745.610711 379.216782 
L 746.893052 360.231771 
L 747.854808 349.281601 
L 748.656271 342.800321 
L 749.297441 339.364765 
L 749.778319 337.757363 
L 750.259197 336.918521 
L 750.579782 336.751981 
L 750.900368 336.872761 
L 751.220953 337.256284 
L 751.701831 338.268171 
L 752.343001 340.294422 
L 753.304757 344.358432 
L 756.670902 359.832434 
L 757.472365 362.29118 
L 758.113536 363.676509 
L 758.754706 364.507903 
L 759.235584 364.761381 
L 759.716462 364.701504 
L 760.19734 364.338717 
L 760.678218 363.689449 
L 761.319388 362.416769 
L 762.120851 360.266759 
L 763.2429 356.503893 
L 766.128167 346.412585 
L 766.92963 344.535727 
L 767.570801 343.625936 
L 768.051679 343.365892 
L 768.372264 343.420555 
L 768.692849 343.673999 
L 769.173727 344.456759 
L 769.654605 345.762371 
L 770.295775 348.390581 
L 770.936946 352.120892 
L 771.738409 358.469029 
L 772.539872 366.836183 
L 773.501628 379.735353 
L 773.822213 384.761126 
L 774.303091 349.695309 
L 774.783969 330.469687 
L 775.264847 321.034768 
L 775.745725 316.311569 
L 776.226602 312.126564 
L 776.547188 307.955608 
L 777.028066 297.63494 
L 777.508943 280.6245 
L 777.989821 255.475714 
L 778.630992 207.857899 
L 779.272162 288.446266 
L 779.913333 344.205422 
L 780.554503 380.515228 
L 781.035381 397.726111 
L 781.516259 408.164321 
L 781.836844 412.058871 
L 782.15743 413.933016 
L 782.317722 414.216427 
L 782.478015 414.115234 
L 782.7986 412.900415 
L 783.279478 409.027673 
L 783.920648 401.19966 
L 785.202989 381.519023 
L 786.645623 360.465091 
L 787.607379 349.744416 
L 788.408842 343.398127 
L 789.050012 340.040951 
L 789.53089 338.477961 
L 790.011768 337.673029 
L 790.332353 337.523982 
L 790.652939 337.658623 
L 790.973524 338.052731 
L 791.454402 339.075071 
L 792.095572 341.106645 
L 793.057328 345.16411 
L 796.423473 360.534582 
L 797.224936 362.957337 
L 797.866107 364.311368 
L 798.346985 364.962772 
L 798.827863 365.295597 
L 799.30874 365.311546 
L 799.789618 365.018868 
L 800.270496 364.431923 
L 800.911667 363.226941 
L 801.71313 361.131109 
L 802.835178 357.375254 
L 806.041031 345.9234 
L 806.842494 344.08493 
L 807.323372 343.386607 
L 807.80425 343.052256 
L 808.124835 343.05544 
L 808.44542 343.255847 
L 808.926298 343.956124 
L 809.407176 345.175748 
L 809.888054 346.957757 
L 810.529224 350.279218 
L 811.170395 354.764461 
L 811.971858 362.134708 
L 812.773321 371.600672 
L 813.414491 380.76828 
L 813.895369 345.425511 
L 814.376247 325.892283 
L 814.857125 316.125229 
L 815.338003 311.04945 
L 815.818881 306.493927 
L 816.299759 299.123569 
L 816.780637 286.369329 
L 817.261514 266.357701 
L 817.742392 237.840762 
L 818.22327 200.127738 
L 818.864441 281.755244 
L 819.505611 338.399171 
L 820.146782 375.452259 
L 820.62766 393.135413 
L 821.108537 403.9787 
L 821.589415 409.384488 
L 821.910001 410.570327 
L 822.070293 410.55832 
L 822.230586 410.191706 
L 822.551171 408.528993 
L 823.032049 404.167163 
L 823.673219 395.965977 
L 827.039365 348.350236 
L 827.840828 341.364519 
L 828.481998 337.476247 
L 828.962876 335.517947 
L 829.443754 334.328107 
L 829.764339 333.930944 
L 830.084924 333.825759 
L 830.40551 333.989342 
L 830.726095 334.397274 
L 831.206973 335.411939 
L 831.848143 337.381092 
L 832.809899 341.23905 
L 835.695166 353.609845 
L 836.496629 356.031085 
L 837.1378 357.414405 
L 837.77897 358.255868 
L 838.259848 358.517952 
L 838.740726 358.462475 
L 839.221604 358.095534 
L 839.702482 357.429474 
L 840.343652 356.108238 
L 841.145116 353.84421 
L 842.106871 350.423865 
L 844.030383 342.501913 
L 845.312724 337.602157 
L 846.114187 335.191285 
L 846.755357 333.813909 
L 847.236235 333.179939 
L 847.717113 332.942159 
L 848.037698 333.027228 
L 848.358284 333.323199 
L 848.839162 334.191796 
L 849.320039 335.608685 
L 849.96121 338.422692 
L 850.60238 342.378678 
L 851.403844 349.059878 
L 852.205307 357.81033 
L 853.167062 371.225867 
L 854.128818 387.997649 
L 854.609696 397.689329 
L 855.090574 362.502305 
L 855.571452 342.919592 
L 856.05233 332.849235 
L 856.6935 325.508683 
L 857.174378 319.30172 
L 857.655256 308.976499 
L 858.136134 292.183821 
L 858.617012 267.25218 
L 859.258182 219.589715 
L 859.418475 204.969785 
L 860.059645 286.693921 
L 860.700816 343.381654 
L 861.341986 380.429323 
L 861.822864 398.079094 
L 862.303742 408.866603 
L 862.624327 412.948078 
L 862.944913 414.975064 
L 863.105205 415.32282 
L 863.265498 415.278295 
L 863.42579 414.877597 
L 863.746376 413.142433 
L 864.227254 408.662781 
L 864.868424 400.291702 
L 868.234569 351.766203 
L 869.036032 344.608178 
L 869.677203 340.604651 
L 870.318373 338.074829 
L 870.799251 337.074592 
L 871.119836 336.798996 
L 871.440422 336.810664 
L 871.761007 337.085876 
L 872.241885 337.938485 
L 872.883055 339.761809 
L 873.684518 342.854813 
L 875.127152 349.543574 
L 876.730078 356.666499 
L 877.691834 359.98055 
L 878.493297 361.940707 
L 879.134468 362.919947 
L 879.615346 363.298133 
L 880.096223 363.371568 
L 880.577101 363.147874 
L 881.057979 362.640758 
L 881.69915 361.557923 
L 882.500613 359.63772 
L 883.462369 356.701662 
L 886.828514 345.686742 
L 887.469684 344.36579 
L 887.950562 343.718099 
L 888.43144 343.418978 
L 888.752025 343.43702 
L 889.07261 343.645365 
L 889.553488 344.344592 
L 890.034366 345.547715 
L 890.515244 347.297965 
L 891.156415 350.553829 
L 891.797585 354.947688 
L 892.599048 362.169044 
L 893.400511 371.449857 
L 894.362267 385.486297 
L 894.843145 350.662976 
L 895.324023 331.561263 
L 895.804901 322.100719 
L 896.285779 317.173296 
L 896.766656 312.578868 
L 897.087242 308.009138 
L 897.56812 296.886047 
L 898.048997 278.812305 
L 898.529875 252.325012 
L 899.171046 202.476836 
L 899.812216 283.92765 
L 900.453387 340.334515 
L 901.094557 377.1011 
L 901.575435 394.543879 
L 902.056313 405.130438 
L 902.376898 409.082419 
L 902.697484 410.984203 
L 902.857776 411.271148 
L 903.018069 411.167092 
L 903.338654 409.928719 
L 903.819532 405.981014 
L 904.460702 397.99228 
L 905.743043 377.850863 
L 907.185677 356.188956 
L 908.147433 345.079922 
L 908.948896 338.449024 
L 909.590066 334.900483 
L 910.070944 333.219122 
L 910.551822 332.319619 
L 910.872407 332.12155 
L 911.192993 332.21884 
L 911.513578 332.58758 
L 911.994456 333.59485 
L 912.635626 335.650022 
L 913.437089 339.071242 
L 914.879723 346.445333 
L 916.642942 355.15284 
L 917.604698 358.875744 
L 918.406161 361.167088 
L 919.047331 362.409728 
L 919.528209 362.986567 
L 920.009087 363.260895 
L 920.489965 363.241377 
L 920.970843 362.942642 
L 921.451721 362.384836 
L 922.092891 361.282283 
L 922.894354 359.431073 
L 924.176695 355.781987 
L 925.939914 350.728849 
L 926.741377 348.981204 
L 927.382548 348.049132 
L 927.863426 347.698475 
L 928.184011 347.657567 
L 928.504596 347.787441 
L 928.825181 348.10198 
L 929.306059 348.949761 
L 929.786937 350.288352 
L 930.428108 352.910759 
L 931.069278 356.578816 
L 931.870741 362.771082 
L 932.672204 370.897966 
L 933.63396 383.402005 
L 933.794253 385.791763 
L 933.954545 371.925954 
L 933.954545 371.925954 
" clip-path="url(#pecdee5061a)" style="fill: none; stroke: #1f77b4; stroke-width: 1.5; stroke-linecap: square"/>
   </g>
   <g id="line2d_13">
    <path d="M 173.045455 280.671581 
L 177.693941 280.671581 
L 177.854233 392.717902 
L 213.278903 392.717902 
L 213.439196 280.671581 
L 218.087682 280.671581 
L 218.247975 392.717902 
L 253.99323 392.717902 
L 254.153523 280.671581 
L 258.802009 280.671581 
L 258.962302 392.717902 
L 293.585509 392.717902 
L 293.745801 280.671581 
L 298.394287 280.671581 
L 298.55458 392.717902 
L 333.818957 392.717902 
L 333.97925 280.671581 
L 338.627736 280.671581 
L 338.788029 392.717902 
L 373.090651 392.717902 
L 373.250943 280.671581 
L 377.899429 280.671581 
L 378.059722 392.717902 
L 413.644685 392.717902 
L 413.804977 280.671581 
L 418.453463 280.671581 
L 418.613756 392.717902 
L 453.557548 392.717902 
L 453.717841 280.671581 
L 458.366327 280.671581 
L 458.52662 392.717902 
L 493.630705 392.717902 
L 493.790997 280.671581 
L 498.439483 280.671581 
L 498.599776 392.717902 
L 533.864153 392.717902 
L 534.024446 280.671581 
L 538.672932 280.671581 
L 538.833225 392.717902 
L 574.257895 392.717902 
L 574.418188 280.671581 
L 579.066674 280.671581 
L 579.226966 392.717902 
L 613.209003 392.717902 
L 613.369295 280.671581 
L 618.017782 280.671581 
L 618.178074 392.717902 
L 653.92333 392.717902 
L 654.083622 280.671581 
L 658.732108 280.671581 
L 658.892401 392.717902 
L 694.156778 392.717902 
L 694.317071 280.671581 
L 698.965557 280.671581 
L 699.12585 392.717902 
L 734.069642 392.717902 
L 734.229935 280.671581 
L 738.878421 280.671581 
L 739.038713 392.717902 
L 773.822213 392.717902 
L 773.982506 280.671581 
L 778.630992 280.671581 
L 778.791284 392.717902 
L 813.414491 392.717902 
L 813.574784 280.671581 
L 818.22327 280.671581 
L 818.383563 392.717902 
L 854.609696 392.717902 
L 854.769989 280.671581 
L 859.418475 280.671581 
L 859.578767 392.717902 
L 894.362267 392.717902 
L 894.52256 280.671581 
L 899.171046 280.671581 
L 899.331338 392.717902 
L 933.794253 392.717902 
L 933.954545 280.671581 
L 933.954545 280.671581 
" clip-path="url(#pecdee5061a)" style="fill: none; stroke: #ff7f0e; stroke-width: 1.5; stroke-linecap: square"/>
   </g>
   <g id="line2d_14">
    <path d="M 929.466352 392.717902 
" clip-path="url(#pecdee5061a)" style="fill: none; stroke: #000000; stroke-width: 1.5; stroke-linecap: square"/>
    <defs>
     <path id="mc317e0ee1f" d="M 0 1 
C 0.265203 1 0.51958 0.894634 0.707107 0.707107 
C 0.894634 0.51958 1 0.265203 1 0 
C 1 -0.265203 0.894634 -0.51958 0.707107 -0.707107 
C 0.51958 -0.894634 0.265203 -1 0 -1 
C -0.265203 -1 -0.51958 -0.894634 -0.707107 -0.707107 
C -0.894634 -0.51958 -1 -0.265203 -1 0 
C -1 0.265203 -0.894634 0.51958 -0.707107 0.707107 
C -0.51958 0.894634 -0.265203 1 0 1 
z
" style="stroke: #000000"/>
    </defs>
    <g clip-path="url(#pecdee5061a)">
     <use xlink:href="#mc317e0ee1f" x="173.045455" y="280.671581" style="stroke: #000000"/>
     <use xlink:href="#mc317e0ee1f" x="178.174819" y="392.717902" style="stroke: #000000"/>
     <use xlink:href="#mc317e0ee1f" x="183.14389" y="392.717902" style="stroke: #000000"/>
     <use xlink:href="#mc317e0ee1f" x="188.112961" y="280.671581" style="stroke: #000000"/>
     <use xlink:href="#mc317e0ee1f" x="193.082033" y="392.717902" style="stroke: #000000"/>
     <use xlink:href="#mc317e0ee1f" x="198.211397" y="392.717902" style="stroke: #000000"/>
     <use xlink:href="#mc317e0ee1f" x="203.180468" y="280.671581" style="stroke: #000000"/>
     <use xlink:href="#mc317e0ee1f" x="208.149539" y="392.717902" style="stroke: #000000"/>
     <use xlink:href="#mc317e0ee1f" x="213.118611" y="280.671581" style="stroke: #000000"/>
     <use xlink:href="#mc317e0ee1f" x="218.247975" y="392.717902" style="stroke: #000000"/>
     <use xlink:href="#mc317e0ee1f" x="223.217046" y="392.717902" style="stroke: #000000"/>
     <use xlink:href="#mc317e0ee1f" x="228.186118" y="280.671581" style="stroke: #000000"/>
     <use xlink:href="#mc317e0ee1f" x="233.155189" y="392.717902" style="stroke: #000000"/>
     <use xlink:href="#mc317e0ee1f" x="238.284553" y="392.717902" style="stroke: #000000"/>
     <use xlink:href="#mc317e0ee1f" x="243.253624" y="280.671581" style="stroke: #000000"/>
     <use xlink:href="#mc317e0ee1f" x="248.222696" y="392.717902" style="stroke: #000000"/>
     <use xlink:href="#mc317e0ee1f" x="253.191767" y="280.671581" style="stroke: #000000"/>
     <use xlink:href="#mc317e0ee1f" x="258.321131" y="392.717902" style="stroke: #000000"/>
     <use xlink:href="#mc317e0ee1f" x="263.290202" y="392.717902" style="stroke: #000000"/>
     <use xlink:href="#mc317e0ee1f" x="268.259274" y="280.671581" style="stroke: #000000"/>
     <use xlink:href="#mc317e0ee1f" x="273.228345" y="392.717902" style="stroke: #000000"/>
     <use xlink:href="#mc317e0ee1f" x="278.357709" y="392.717902" style="stroke: #000000"/>
     <use xlink:href="#mc317e0ee1f" x="283.326781" y="280.671581" style="stroke: #000000"/>
     <use xlink:href="#mc317e0ee1f" x="288.295852" y="392.717902" style="stroke: #000000"/>
     <use xlink:href="#mc317e0ee1f" x="293.264923" y="280.671581" style="stroke: #000000"/>
     <use xlink:href="#mc317e0ee1f" x="298.394287" y="392.717902" style="stroke: #000000"/>
     <use xlink:href="#mc317e0ee1f" x="303.363359" y="392.717902" style="stroke: #000000"/>
     <use xlink:href="#mc317e0ee1f" x="308.33243" y="280.671581" style="stroke: #000000"/>
     <use xlink:href="#mc317e0ee1f" x="313.301501" y="392.717902" style="stroke: #000000"/>
     <use xlink:href="#mc317e0ee1f" x="318.430865" y="392.717902" style="stroke: #000000"/>
     <use xlink:href="#mc317e0ee1f" x="323.399937" y="280.671581" style="stroke: #000000"/>
     <use xlink:href="#mc317e0ee1f" x="328.369008" y="392.717902" style="stroke: #000000"/>
     <use xlink:href="#mc317e0ee1f" x="333.33808" y="280.671581" style="stroke: #000000"/>
     <use xlink:href="#mc317e0ee1f" x="338.467444" y="392.717902" style="stroke: #000000"/>
     <use xlink:href="#mc317e0ee1f" x="343.436515" y="392.717902" style="stroke: #000000"/>
     <use xlink:href="#mc317e0ee1f" x="348.405586" y="280.671581" style="stroke: #000000"/>
     <use xlink:href="#mc317e0ee1f" x="353.374658" y="392.717902" style="stroke: #000000"/>
     <use xlink:href="#mc317e0ee1f" x="358.504022" y="392.717902" style="stroke: #000000"/>
     <use xlink:href="#mc317e0ee1f" x="363.473093" y="280.671581" style="stroke: #000000"/>
     <use xlink:href="#mc317e0ee1f" x="368.442164" y="392.717902" style="stroke: #000000"/>
     <use xlink:href="#mc317e0ee1f" x="373.411236" y="280.671581" style="stroke: #000000"/>
     <use xlink:href="#mc317e0ee1f" x="378.5406" y="392.717902" style="stroke: #000000"/>
     <use xlink:href="#mc317e0ee1f" x="383.509671" y="392.717902" style="stroke: #000000"/>
     <use xlink:href="#mc317e0ee1f" x="388.478743" y="280.671581" style="stroke: #000000"/>
     <use xlink:href="#mc317e0ee1f" x="393.447814" y="392.717902" style="stroke: #000000"/>
     <use xlink:href="#mc317e0ee1f" x="398.577178" y="392.717902" style="stroke: #000000"/>
     <use xlink:href="#mc317e0ee1f" x="403.546249" y="280.671581" style="stroke: #000000"/>
     <use xlink:href="#mc317e0ee1f" x="408.515321" y="392.717902" style="stroke: #000000"/>
     <use xlink:href="#mc317e0ee1f" x="413.484392" y="280.671581" style="stroke: #000000"/>
     <use xlink:href="#mc317e0ee1f" x="418.613756" y="392.717902" style="stroke: #000000"/>
     <use xlink:href="#mc317e0ee1f" x="423.582827" y="392.717902" style="stroke: #000000"/>
     <use xlink:href="#mc317e0ee1f" x="428.551899" y="280.671581" style="stroke: #000000"/>
     <use xlink:href="#mc317e0ee1f" x="433.52097" y="392.717902" style="stroke: #000000"/>
     <use xlink:href="#mc317e0ee1f" x="438.650334" y="392.717902" style="stroke: #000000"/>
     <use xlink:href="#mc317e0ee1f" x="443.619406" y="280.671581" style="stroke: #000000"/>
     <use xlink:href="#mc317e0ee1f" x="448.588477" y="392.717902" style="stroke: #000000"/>
     <use xlink:href="#mc317e0ee1f" x="453.557548" y="280.671581" style="stroke: #000000"/>
     <use xlink:href="#mc317e0ee1f" x="458.686912" y="392.717902" style="stroke: #000000"/>
     <use xlink:href="#mc317e0ee1f" x="463.655984" y="392.717902" style="stroke: #000000"/>
     <use xlink:href="#mc317e0ee1f" x="468.625055" y="280.671581" style="stroke: #000000"/>
     <use xlink:href="#mc317e0ee1f" x="473.594126" y="392.717902" style="stroke: #000000"/>
     <use xlink:href="#mc317e0ee1f" x="478.72349" y="392.717902" style="stroke: #000000"/>
     <use xlink:href="#mc317e0ee1f" x="483.692562" y="280.671581" style="stroke: #000000"/>
     <use xlink:href="#mc317e0ee1f" x="488.661633" y="392.717902" style="stroke: #000000"/>
     <use xlink:href="#mc317e0ee1f" x="493.630705" y="280.671581" style="stroke: #000000"/>
     <use xlink:href="#mc317e0ee1f" x="498.760069" y="392.717902" style="stroke: #000000"/>
     <use xlink:href="#mc317e0ee1f" x="503.72914" y="392.717902" style="stroke: #000000"/>
     <use xlink:href="#mc317e0ee1f" x="508.698211" y="280.671581" style="stroke: #000000"/>
     <use xlink:href="#mc317e0ee1f" x="513.667283" y="392.717902" style="stroke: #000000"/>
     <use xlink:href="#mc317e0ee1f" x="518.796647" y="392.717902" style="stroke: #000000"/>
     <use xlink:href="#mc317e0ee1f" x="523.765718" y="280.671581" style="stroke: #000000"/>
     <use xlink:href="#mc317e0ee1f" x="528.734789" y="392.717902" style="stroke: #000000"/>
     <use xlink:href="#mc317e0ee1f" x="533.703861" y="280.671581" style="stroke: #000000"/>
     <use xlink:href="#mc317e0ee1f" x="538.833225" y="392.717902" style="stroke: #000000"/>
     <use xlink:href="#mc317e0ee1f" x="543.802296" y="392.717902" style="stroke: #000000"/>
     <use xlink:href="#mc317e0ee1f" x="548.771368" y="280.671581" style="stroke: #000000"/>
     <use xlink:href="#mc317e0ee1f" x="553.740439" y="392.717902" style="stroke: #000000"/>
     <use xlink:href="#mc317e0ee1f" x="558.869803" y="392.717902" style="stroke: #000000"/>
     <use xlink:href="#mc317e0ee1f" x="563.838874" y="280.671581" style="stroke: #000000"/>
     <use xlink:href="#mc317e0ee1f" x="568.807946" y="392.717902" style="stroke: #000000"/>
     <use xlink:href="#mc317e0ee1f" x="573.777017" y="280.671581" style="stroke: #000000"/>
     <use xlink:href="#mc317e0ee1f" x="578.906381" y="392.717902" style="stroke: #000000"/>
     <use xlink:href="#mc317e0ee1f" x="583.875452" y="392.717902" style="stroke: #000000"/>
     <use xlink:href="#mc317e0ee1f" x="588.844524" y="280.671581" style="stroke: #000000"/>
     <use xlink:href="#mc317e0ee1f" x="593.813595" y="392.717902" style="stroke: #000000"/>
     <use xlink:href="#mc317e0ee1f" x="598.942959" y="392.717902" style="stroke: #000000"/>
     <use xlink:href="#mc317e0ee1f" x="603.912031" y="280.671581" style="stroke: #000000"/>
     <use xlink:href="#mc317e0ee1f" x="608.881102" y="392.717902" style="stroke: #000000"/>
     <use xlink:href="#mc317e0ee1f" x="613.850173" y="280.671581" style="stroke: #000000"/>
     <use xlink:href="#mc317e0ee1f" x="618.979537" y="392.717902" style="stroke: #000000"/>
     <use xlink:href="#mc317e0ee1f" x="623.948609" y="392.717902" style="stroke: #000000"/>
     <use xlink:href="#mc317e0ee1f" x="628.91768" y="280.671581" style="stroke: #000000"/>
     <use xlink:href="#mc317e0ee1f" x="633.886751" y="392.717902" style="stroke: #000000"/>
     <use xlink:href="#mc317e0ee1f" x="639.016115" y="392.717902" style="stroke: #000000"/>
     <use xlink:href="#mc317e0ee1f" x="643.985187" y="280.671581" style="stroke: #000000"/>
     <use xlink:href="#mc317e0ee1f" x="648.954258" y="392.717902" style="stroke: #000000"/>
     <use xlink:href="#mc317e0ee1f" x="653.92333" y="280.671581" style="stroke: #000000"/>
     <use xlink:href="#mc317e0ee1f" x="659.052694" y="392.717902" style="stroke: #000000"/>
     <use xlink:href="#mc317e0ee1f" x="664.021765" y="392.717902" style="stroke: #000000"/>
     <use xlink:href="#mc317e0ee1f" x="668.990836" y="280.671581" style="stroke: #000000"/>
     <use xlink:href="#mc317e0ee1f" x="673.959908" y="392.717902" style="stroke: #000000"/>
     <use xlink:href="#mc317e0ee1f" x="679.089272" y="392.717902" style="stroke: #000000"/>
     <use xlink:href="#mc317e0ee1f" x="684.058343" y="280.671581" style="stroke: #000000"/>
     <use xlink:href="#mc317e0ee1f" x="689.027414" y="392.717902" style="stroke: #000000"/>
     <use xlink:href="#mc317e0ee1f" x="693.996486" y="280.671581" style="stroke: #000000"/>
     <use xlink:href="#mc317e0ee1f" x="699.12585" y="392.717902" style="stroke: #000000"/>
     <use xlink:href="#mc317e0ee1f" x="704.094921" y="392.717902" style="stroke: #000000"/>
     <use xlink:href="#mc317e0ee1f" x="709.063993" y="280.671581" style="stroke: #000000"/>
     <use xlink:href="#mc317e0ee1f" x="714.033064" y="392.717902" style="stroke: #000000"/>
     <use xlink:href="#mc317e0ee1f" x="719.162428" y="392.717902" style="stroke: #000000"/>
     <use xlink:href="#mc317e0ee1f" x="724.131499" y="280.671581" style="stroke: #000000"/>
     <use xlink:href="#mc317e0ee1f" x="729.100571" y="392.717902" style="stroke: #000000"/>
     <use xlink:href="#mc317e0ee1f" x="734.069642" y="280.671581" style="stroke: #000000"/>
     <use xlink:href="#mc317e0ee1f" x="739.199006" y="392.717902" style="stroke: #000000"/>
     <use xlink:href="#mc317e0ee1f" x="744.168077" y="392.717902" style="stroke: #000000"/>
     <use xlink:href="#mc317e0ee1f" x="749.137149" y="280.671581" style="stroke: #000000"/>
     <use xlink:href="#mc317e0ee1f" x="754.10622" y="392.717902" style="stroke: #000000"/>
     <use xlink:href="#mc317e0ee1f" x="759.235584" y="392.717902" style="stroke: #000000"/>
     <use xlink:href="#mc317e0ee1f" x="764.204656" y="280.671581" style="stroke: #000000"/>
     <use xlink:href="#mc317e0ee1f" x="769.173727" y="392.717902" style="stroke: #000000"/>
     <use xlink:href="#mc317e0ee1f" x="774.142798" y="280.671581" style="stroke: #000000"/>
     <use xlink:href="#mc317e0ee1f" x="779.272162" y="392.717902" style="stroke: #000000"/>
     <use xlink:href="#mc317e0ee1f" x="784.241234" y="392.717902" style="stroke: #000000"/>
     <use xlink:href="#mc317e0ee1f" x="789.210305" y="280.671581" style="stroke: #000000"/>
     <use xlink:href="#mc317e0ee1f" x="794.179376" y="392.717902" style="stroke: #000000"/>
     <use xlink:href="#mc317e0ee1f" x="799.30874" y="392.717902" style="stroke: #000000"/>
     <use xlink:href="#mc317e0ee1f" x="804.277812" y="280.671581" style="stroke: #000000"/>
     <use xlink:href="#mc317e0ee1f" x="809.246883" y="392.717902" style="stroke: #000000"/>
     <use xlink:href="#mc317e0ee1f" x="814.215955" y="280.671581" style="stroke: #000000"/>
     <use xlink:href="#mc317e0ee1f" x="819.345319" y="392.717902" style="stroke: #000000"/>
     <use xlink:href="#mc317e0ee1f" x="824.31439" y="392.717902" style="stroke: #000000"/>
     <use xlink:href="#mc317e0ee1f" x="829.283461" y="280.671581" style="stroke: #000000"/>
     <use xlink:href="#mc317e0ee1f" x="834.252533" y="392.717902" style="stroke: #000000"/>
     <use xlink:href="#mc317e0ee1f" x="839.381897" y="392.717902" style="stroke: #000000"/>
     <use xlink:href="#mc317e0ee1f" x="844.350968" y="280.671581" style="stroke: #000000"/>
     <use xlink:href="#mc317e0ee1f" x="849.320039" y="392.717902" style="stroke: #000000"/>
     <use xlink:href="#mc317e0ee1f" x="854.289111" y="280.671581" style="stroke: #000000"/>
     <use xlink:href="#mc317e0ee1f" x="859.418475" y="392.717902" style="stroke: #000000"/>
     <use xlink:href="#mc317e0ee1f" x="864.387546" y="392.717902" style="stroke: #000000"/>
     <use xlink:href="#mc317e0ee1f" x="869.356618" y="280.671581" style="stroke: #000000"/>
     <use xlink:href="#mc317e0ee1f" x="874.325689" y="392.717902" style="stroke: #000000"/>
     <use xlink:href="#mc317e0ee1f" x="879.455053" y="392.717902" style="stroke: #000000"/>
     <use xlink:href="#mc317e0ee1f" x="884.424124" y="280.671581" style="stroke: #000000"/>
     <use xlink:href="#mc317e0ee1f" x="889.393196" y="392.717902" style="stroke: #000000"/>
     <use xlink:href="#mc317e0ee1f" x="894.362267" y="280.671581" style="stroke: #000000"/>
     <use xlink:href="#mc317e0ee1f" x="899.491631" y="392.717902" style="stroke: #000000"/>
     <use xlink:href="#mc317e0ee1f" x="904.460702" y="392.717902" style="stroke: #000000"/>
     <use xlink:href="#mc317e0ee1f" x="909.429774" y="280.671581" style="stroke: #000000"/>
     <use xlink:href="#mc317e0ee1f" x="914.398845" y="392.717902" style="stroke: #000000"/>
     <use xlink:href="#mc317e0ee1f" x="919.528209" y="392.717902" style="stroke: #000000"/>
     <use xlink:href="#mc317e0ee1f" x="924.497281" y="280.671581" style="stroke: #000000"/>
     <use xlink:href="#mc317e0ee1f" x="929.466352" y="392.717902" style="stroke: #000000"/>
    </g>
   </g>
   <g id="patch_3">
    <path d="M 135 448.56 
L 135 60.48 
" style="fill: none; stroke: #000000; stroke-width: 0.8; stroke-linejoin: miter; stroke-linecap: square"/>
   </g>
   <g id="patch_4">
    <path d="M 972 448.56 
L 972 60.48 
" style="fill: none; stroke: #000000; stroke-width: 0.8; stroke-linejoin: miter; stroke-linecap: square"/>
   </g>
   <g id="patch_5">
    <path d="M 135 448.56 
L 972 448.56 
" style="fill: none; stroke: #000000; stroke-width: 0.8; stroke-linejoin: miter; stroke-linecap: square"/>
   </g>
   <g id="patch_6">
    <path d="M 135 60.48 
L 972 60.48 
" style="fill: none; stroke: #000000; stroke-width: 0.8; stroke-linejoin: miter; stroke-linecap: square"/>
   </g>
   <g id="legend_1">
    <g id="patch_7">
     <path d="M 895.915625 113.070625 
L 965 113.070625 
Q 967 113.070625 967 111.070625 
L 967 67.48 
Q 967 65.48 965 65.48 
L 895.915625 65.48 
Q 893.915625 65.48 893.915625 67.48 
L 893.915625 111.070625 
Q 893.915625 113.070625 895.915625 113.070625 
z
" style="fill: #ffffff; opacity: 0.8; stroke: #cccccc; stroke-linejoin: miter"/>
    </g>
    <g id="line2d_15">
     <path d="M 897.915625 73.578438 
L 907.915625 73.578438 
L 917.915625 73.578438 
" style="fill: none; stroke: #1f77b4; stroke-width: 1.5; stroke-linecap: square"/>
    </g>
    <g id="text_13">
     <!-- nw_0 -->
     <g transform="translate(925.915625 77.078438) scale(0.1 -0.1)">
      <defs>
       <path id="DejaVuSans-6e" d="M 3513 2113 
L 3513 0 
L 2938 0 
L 2938 2094 
Q 2938 2591 2744 2837 
Q 2550 3084 2163 3084 
Q 1697 3084 1428 2787 
Q 1159 2491 1159 1978 
L 1159 0 
L 581 0 
L 581 3500 
L 1159 3500 
L 1159 2956 
Q 1366 3272 1645 3428 
Q 1925 3584 2291 3584 
Q 2894 3584 3203 3211 
Q 3513 2838 3513 2113 
z
" transform="scale(0.015625)"/>
       <path id="DejaVuSans-77" d="M 269 3500 
L 844 3500 
L 1563 769 
L 2278 3500 
L 2956 3500 
L 3675 769 
L 4391 3500 
L 4966 3500 
L 4050 0 
L 3372 0 
L 2619 2869 
L 1863 0 
L 1184 0 
L 269 3500 
z
" transform="scale(0.015625)"/>
       <path id="DejaVuSans-5f" d="M 3263 -1063 
L 3263 -1509 
L -63 -1509 
L -63 -1063 
L 3263 -1063 
z
" transform="scale(0.015625)"/>
      </defs>
      <use xlink:href="#DejaVuSans-6e"/>
      <use xlink:href="#DejaVuSans-77" x="63.378906"/>
      <use xlink:href="#DejaVuSans-5f" x="145.166016"/>
      <use xlink:href="#DejaVuSans-30" x="195.166016"/>
     </g>
    </g>
    <g id="line2d_16">
     <path d="M 897.915625 88.534688 
L 907.915625 88.534688 
L 917.915625 88.534688 
" style="fill: none; stroke: #ff7f0e; stroke-width: 1.5; stroke-linecap: square"/>
    </g>
    <g id="text_14">
     <!-- input_0 -->
     <g transform="translate(925.915625 92.034688) scale(0.1 -0.1)">
      <defs>
       <path id="DejaVuSans-69" d="M 603 3500 
L 1178 3500 
L 1178 0 
L 603 0 
L 603 3500 
z
M 603 4863 
L 1178 4863 
L 1178 4134 
L 603 4134 
L 603 4863 
z
" transform="scale(0.015625)"/>
       <path id="DejaVuSans-70" d="M 1159 525 
L 1159 -1331 
L 581 -1331 
L 581 3500 
L 1159 3500 
L 1159 2969 
Q 1341 3281 1617 3432 
Q 1894 3584 2278 3584 
Q 2916 3584 3314 3078 
Q 3713 2572 3713 1747 
Q 3713 922 3314 415 
Q 2916 -91 2278 -91 
Q 1894 -91 1617 61 
Q 1341 213 1159 525 
z
M 3116 1747 
Q 3116 2381 2855 2742 
Q 2594 3103 2138 3103 
Q 1681 3103 1420 2742 
Q 1159 2381 1159 1747 
Q 1159 1113 1420 752 
Q 1681 391 2138 391 
Q 2594 391 2855 752 
Q 3116 1113 3116 1747 
z
" transform="scale(0.015625)"/>
       <path id="DejaVuSans-75" d="M 544 1381 
L 544 3500 
L 1119 3500 
L 1119 1403 
Q 1119 906 1312 657 
Q 1506 409 1894 409 
Q 2359 409 2629 706 
Q 2900 1003 2900 1516 
L 2900 3500 
L 3475 3500 
L 3475 0 
L 2900 0 
L 2900 538 
Q 2691 219 2414 64 
Q 2138 -91 1772 -91 
Q 1169 -91 856 284 
Q 544 659 544 1381 
z
M 1991 3584 
L 1991 3584 
z
" transform="scale(0.015625)"/>
      </defs>
      <use xlink:href="#DejaVuSans-69"/>
      <use xlink:href="#DejaVuSans-6e" x="27.783203"/>
      <use xlink:href="#DejaVuSans-70" x="91.162109"/>
      <use xlink:href="#DejaVuSans-75" x="154.638672"/>
      <use xlink:href="#DejaVuSans-74" x="218.017578"/>
      <use xlink:href="#DejaVuSans-5f" x="257.226562"/>
      <use xlink:href="#DejaVuSans-30" x="307.226562"/>
     </g>
    </g>
    <g id="line2d_17">
     <path d="M 897.915625 103.490938 
L 907.915625 103.490938 
L 917.915625 103.490938 
" style="fill: none; stroke: #000000; stroke-width: 1.5; stroke-linecap: square"/>
     <g>
      <use xlink:href="#mc317e0ee1f" x="907.915625" y="103.490938" style="stroke: #000000"/>
     </g>
    </g>
    <g id="text_15">
     <!-- target -->
     <g transform="translate(925.915625 106.990938) scale(0.1 -0.1)">
      <defs>
       <path id="DejaVuSans-61" d="M 2194 1759 
Q 1497 1759 1228 1600 
Q 959 1441 959 1056 
Q 959 750 1161 570 
Q 1363 391 1709 391 
Q 2188 391 2477 730 
Q 2766 1069 2766 1631 
L 2766 1759 
L 2194 1759 
z
M 3341 1997 
L 3341 0 
L 2766 0 
L 2766 531 
Q 2569 213 2275 61 
Q 1981 -91 1556 -91 
Q 1019 -91 701 211 
Q 384 513 384 1019 
Q 384 1609 779 1909 
Q 1175 2209 1959 2209 
L 2766 2209 
L 2766 2266 
Q 2766 2663 2505 2880 
Q 2244 3097 1772 3097 
Q 1472 3097 1187 3025 
Q 903 2953 641 2809 
L 641 3341 
Q 956 3463 1253 3523 
Q 1550 3584 1831 3584 
Q 2591 3584 2966 3190 
Q 3341 2797 3341 1997 
z
" transform="scale(0.015625)"/>
       <path id="DejaVuSans-72" d="M 2631 2963 
Q 2534 3019 2420 3045 
Q 2306 3072 2169 3072 
Q 1681 3072 1420 2755 
Q 1159 2438 1159 1844 
L 1159 0 
L 581 0 
L 581 3500 
L 1159 3500 
L 1159 2956 
Q 1341 3275 1631 3429 
Q 1922 3584 2338 3584 
Q 2397 3584 2469 3576 
Q 2541 3569 2628 3553 
L 2631 2963 
z
" transform="scale(0.015625)"/>
       <path id="DejaVuSans-67" d="M 2906 1791 
Q 2906 2416 2648 2759 
Q 2391 3103 1925 3103 
Q 1463 3103 1205 2759 
Q 947 2416 947 1791 
Q 947 1169 1205 825 
Q 1463 481 1925 481 
Q 2391 481 2648 825 
Q 2906 1169 2906 1791 
z
M 3481 434 
Q 3481 -459 3084 -895 
Q 2688 -1331 1869 -1331 
Q 1566 -1331 1297 -1286 
Q 1028 -1241 775 -1147 
L 775 -588 
Q 1028 -725 1275 -790 
Q 1522 -856 1778 -856 
Q 2344 -856 2625 -561 
Q 2906 -266 2906 331 
L 2906 616 
Q 2728 306 2450 153 
Q 2172 0 1784 0 
Q 1141 0 747 490 
Q 353 981 353 1791 
Q 353 2603 747 3093 
Q 1141 3584 1784 3584 
Q 2172 3584 2450 3431 
Q 2728 3278 2906 2969 
L 2906 3500 
L 3481 3500 
L 3481 434 
z
" transform="scale(0.015625)"/>
       <path id="DejaVuSans-65" d="M 3597 1894 
L 3597 1613 
L 953 1613 
Q 991 1019 1311 708 
Q 1631 397 2203 397 
Q 2534 397 2845 478 
Q 3156 559 3463 722 
L 3463 178 
Q 3153 47 2828 -22 
Q 2503 -91 2169 -91 
Q 1331 -91 842 396 
Q 353 884 353 1716 
Q 353 2575 817 3079 
Q 1281 3584 2069 3584 
Q 2775 3584 3186 3129 
Q 3597 2675 3597 1894 
z
M 3022 2063 
Q 3016 2534 2758 2815 
Q 2500 3097 2075 3097 
Q 1594 3097 1305 2825 
Q 1016 2553 972 2059 
L 3022 2063 
z
" transform="scale(0.015625)"/>
      </defs>
      <use xlink:href="#DejaVuSans-74"/>
      <use xlink:href="#DejaVuSans-61" x="39.208984"/>
      <use xlink:href="#DejaVuSans-72" x="100.488281"/>
      <use xlink:href="#DejaVuSans-67" x="139.851562"/>
      <use xlink:href="#DejaVuSans-65" x="203.328125"/>
      <use xlink:href="#DejaVuSans-74" x="264.851562"/>
     </g>
    </g>
   </g>
  </g>
 </g>
 <defs>
  <clipPath id="pecdee5061a">
   <rect x="135" y="60.48" width="837" height="388.08"/>
  </clipPath>
 </defs>
</svg>
