<?xml version="1.0" encoding="utf-8" standalone="no"?>
<!DOCTYPE svg PUBLIC "-//W3C//DTD SVG 1.1//EN"
  "http://www.w3.org/Graphics/SVG/1.1/DTD/svg11.dtd">
<svg xmlns:xlink="http://www.w3.org/1999/xlink" width="1080pt" height="504pt" viewBox="0 0 1080 504" xmlns="http://www.w3.org/2000/svg" version="1.1">
 <metadata>
  <rdf:RDF xmlns:dc="http://purl.org/dc/elements/1.1/" xmlns:cc="http://creativecommons.org/ns#" xmlns:rdf="http://www.w3.org/1999/02/22-rdf-syntax-ns#">
   <cc:Work>
    <dc:type rdf:resource="http://purl.org/dc/dcmitype/StillImage"/>
    <dc:date>2024-05-09T11:10:57.129215</dc:date>
    <dc:format>image/svg+xml</dc:format>
    <dc:creator>
     <cc:Agent>
      <dc:title>Matplotlib v3.7.1, https://matplotlib.org/</dc:title>
     </cc:Agent>
    </dc:creator>
   </cc:Work>
  </rdf:RDF>
 </metadata>
 <defs>
  <style type="text/css">*{stroke-linejoin: round; stroke-linecap: butt}</style>
 </defs>
 <g id="figure_1">
  <g id="patch_1">
   <path d="M 0 504 
L 1080 504 
L 1080 0 
L 0 0 
z
" style="fill: #ffffff"/>
  </g>
  <g id="axes_1">
   <g id="patch_2">
    <path d="M 135 448.56 
L 972 448.56 
L 972 60.48 
L 135 60.48 
z
" style="fill: #ffffff"/>
   </g>
   <g id="matplotlib.axis_1">
    <g id="xtick_1">
     <g id="line2d_1">
      <defs>
       <path id="m421b82a65a" d="M 0 0 
L 0 3.5 
" style="stroke: #000000; stroke-width: 0.8"/>
      </defs>
      <g>
       <use xlink:href="#m421b82a65a" x="173.045455" y="448.56" style="stroke: #000000; stroke-width: 0.8"/>
      </g>
     </g>
     <g id="text_1">
      <!-- 0 -->
      <g transform="translate(169.864205 463.158437) scale(0.1 -0.1)">
       <defs>
        <path id="DejaVuSans-30" d="M 2034 4250 
Q 1547 4250 1301 3770 
Q 1056 3291 1056 2328 
Q 1056 1369 1301 889 
Q 1547 409 2034 409 
Q 2525 409 2770 889 
Q 3016 1369 3016 2328 
Q 3016 3291 2770 3770 
Q 2525 4250 2034 4250 
z
M 2034 4750 
Q 2819 4750 3233 4129 
Q 3647 3509 3647 2328 
Q 3647 1150 3233 529 
Q 2819 -91 2034 -91 
Q 1250 -91 836 529 
Q 422 1150 422 2328 
Q 422 3509 836 4129 
Q 1250 4750 2034 4750 
z
" transform="scale(0.015625)"/>
       </defs>
       <use xlink:href="#DejaVuSans-30"/>
      </g>
     </g>
    </g>
    <g id="xtick_2">
     <g id="line2d_2">
      <g>
       <use xlink:href="#m421b82a65a" x="333.33808" y="448.56" style="stroke: #000000; stroke-width: 0.8"/>
      </g>
     </g>
     <g id="text_2">
      <!-- 1000 -->
      <g transform="translate(320.61308 463.158437) scale(0.1 -0.1)">
       <defs>
        <path id="DejaVuSans-31" d="M 794 531 
L 1825 531 
L 1825 4091 
L 703 3866 
L 703 4441 
L 1819 4666 
L 2450 4666 
L 2450 531 
L 3481 531 
L 3481 0 
L 794 0 
L 794 531 
z
" transform="scale(0.015625)"/>
       </defs>
       <use xlink:href="#DejaVuSans-31"/>
       <use xlink:href="#DejaVuSans-30" x="63.623047"/>
       <use xlink:href="#DejaVuSans-30" x="127.246094"/>
       <use xlink:href="#DejaVuSans-30" x="190.869141"/>
      </g>
     </g>
    </g>
    <g id="xtick_3">
     <g id="line2d_3">
      <g>
       <use xlink:href="#m421b82a65a" x="493.630705" y="448.56" style="stroke: #000000; stroke-width: 0.8"/>
      </g>
     </g>
     <g id="text_3">
      <!-- 2000 -->
      <g transform="translate(480.905705 463.158437) scale(0.1 -0.1)">
       <defs>
        <path id="DejaVuSans-32" d="M 1228 531 
L 3431 531 
L 3431 0 
L 469 0 
L 469 531 
Q 828 903 1448 1529 
Q 2069 2156 2228 2338 
Q 2531 2678 2651 2914 
Q 2772 3150 2772 3378 
Q 2772 3750 2511 3984 
Q 2250 4219 1831 4219 
Q 1534 4219 1204 4116 
Q 875 4013 500 3803 
L 500 4441 
Q 881 4594 1212 4672 
Q 1544 4750 1819 4750 
Q 2544 4750 2975 4387 
Q 3406 4025 3406 3419 
Q 3406 3131 3298 2873 
Q 3191 2616 2906 2266 
Q 2828 2175 2409 1742 
Q 1991 1309 1228 531 
z
" transform="scale(0.015625)"/>
       </defs>
       <use xlink:href="#DejaVuSans-32"/>
       <use xlink:href="#DejaVuSans-30" x="63.623047"/>
       <use xlink:href="#DejaVuSans-30" x="127.246094"/>
       <use xlink:href="#DejaVuSans-30" x="190.869141"/>
      </g>
     </g>
    </g>
    <g id="xtick_4">
     <g id="line2d_4">
      <g>
       <use xlink:href="#m421b82a65a" x="653.92333" y="448.56" style="stroke: #000000; stroke-width: 0.8"/>
      </g>
     </g>
     <g id="text_4">
      <!-- 3000 -->
      <g transform="translate(641.19833 463.158437) scale(0.1 -0.1)">
       <defs>
        <path id="DejaVuSans-33" d="M 2597 2516 
Q 3050 2419 3304 2112 
Q 3559 1806 3559 1356 
Q 3559 666 3084 287 
Q 2609 -91 1734 -91 
Q 1441 -91 1130 -33 
Q 819 25 488 141 
L 488 750 
Q 750 597 1062 519 
Q 1375 441 1716 441 
Q 2309 441 2620 675 
Q 2931 909 2931 1356 
Q 2931 1769 2642 2001 
Q 2353 2234 1838 2234 
L 1294 2234 
L 1294 2753 
L 1863 2753 
Q 2328 2753 2575 2939 
Q 2822 3125 2822 3475 
Q 2822 3834 2567 4026 
Q 2313 4219 1838 4219 
Q 1578 4219 1281 4162 
Q 984 4106 628 3988 
L 628 4550 
Q 988 4650 1302 4700 
Q 1616 4750 1894 4750 
Q 2613 4750 3031 4423 
Q 3450 4097 3450 3541 
Q 3450 3153 3228 2886 
Q 3006 2619 2597 2516 
z
" transform="scale(0.015625)"/>
       </defs>
       <use xlink:href="#DejaVuSans-33"/>
       <use xlink:href="#DejaVuSans-30" x="63.623047"/>
       <use xlink:href="#DejaVuSans-30" x="127.246094"/>
       <use xlink:href="#DejaVuSans-30" x="190.869141"/>
      </g>
     </g>
    </g>
    <g id="xtick_5">
     <g id="line2d_5">
      <g>
       <use xlink:href="#m421b82a65a" x="814.215955" y="448.56" style="stroke: #000000; stroke-width: 0.8"/>
      </g>
     </g>
     <g id="text_5">
      <!-- 4000 -->
      <g transform="translate(801.490955 463.158437) scale(0.1 -0.1)">
       <defs>
        <path id="DejaVuSans-34" d="M 2419 4116 
L 825 1625 
L 2419 1625 
L 2419 4116 
z
M 2253 4666 
L 3047 4666 
L 3047 1625 
L 3713 1625 
L 3713 1100 
L 3047 1100 
L 3047 0 
L 2419 0 
L 2419 1100 
L 313 1100 
L 313 1709 
L 2253 4666 
z
" transform="scale(0.015625)"/>
       </defs>
       <use xlink:href="#DejaVuSans-34"/>
       <use xlink:href="#DejaVuSans-30" x="63.623047"/>
       <use xlink:href="#DejaVuSans-30" x="127.246094"/>
       <use xlink:href="#DejaVuSans-30" x="190.869141"/>
      </g>
     </g>
    </g>
    <g id="text_6">
     <!-- t -->
     <g transform="translate(551.539844 476.836563) scale(0.1 -0.1)">
      <defs>
       <path id="DejaVuSans-74" d="M 1172 4494 
L 1172 3500 
L 2356 3500 
L 2356 3053 
L 1172 3053 
L 1172 1153 
Q 1172 725 1289 603 
Q 1406 481 1766 481 
L 2356 481 
L 2356 0 
L 1766 0 
Q 1100 0 847 248 
Q 594 497 594 1153 
L 594 3053 
L 172 3053 
L 172 3500 
L 594 3500 
L 594 4494 
L 1172 4494 
z
" transform="scale(0.015625)"/>
      </defs>
      <use xlink:href="#DejaVuSans-74"/>
     </g>
    </g>
   </g>
   <g id="matplotlib.axis_2">
    <g id="ytick_1">
     <g id="line2d_6">
      <defs>
       <path id="m59b116cc15" d="M 0 0 
L -3.5 0 
" style="stroke: #000000; stroke-width: 0.8"/>
      </defs>
      <g>
       <use xlink:href="#m59b116cc15" x="135" y="422.462709" style="stroke: #000000; stroke-width: 0.8"/>
      </g>
     </g>
     <g id="text_7">
      <!-- −0.2 -->
      <g transform="translate(103.717187 426.261928) scale(0.1 -0.1)">
       <defs>
        <path id="DejaVuSans-2212" d="M 678 2272 
L 4684 2272 
L 4684 1741 
L 678 1741 
L 678 2272 
z
" transform="scale(0.015625)"/>
        <path id="DejaVuSans-2e" d="M 684 794 
L 1344 794 
L 1344 0 
L 684 0 
L 684 794 
z
" transform="scale(0.015625)"/>
       </defs>
       <use xlink:href="#DejaVuSans-2212"/>
       <use xlink:href="#DejaVuSans-30" x="83.789062"/>
       <use xlink:href="#DejaVuSans-2e" x="147.412109"/>
       <use xlink:href="#DejaVuSans-32" x="179.199219"/>
      </g>
     </g>
    </g>
    <g id="ytick_2">
     <g id="line2d_7">
      <g>
       <use xlink:href="#m59b116cc15" x="135" y="367.109202" style="stroke: #000000; stroke-width: 0.8"/>
      </g>
     </g>
     <g id="text_8">
      <!-- 0.0 -->
      <g transform="translate(112.096875 370.908421) scale(0.1 -0.1)">
       <use xlink:href="#DejaVuSans-30"/>
       <use xlink:href="#DejaVuSans-2e" x="63.623047"/>
       <use xlink:href="#DejaVuSans-30" x="95.410156"/>
      </g>
     </g>
    </g>
    <g id="ytick_3">
     <g id="line2d_8">
      <g>
       <use xlink:href="#m59b116cc15" x="135" y="311.755694" style="stroke: #000000; stroke-width: 0.8"/>
      </g>
     </g>
     <g id="text_9">
      <!-- 0.2 -->
      <g transform="translate(112.096875 315.554913) scale(0.1 -0.1)">
       <use xlink:href="#DejaVuSans-30"/>
       <use xlink:href="#DejaVuSans-2e" x="63.623047"/>
       <use xlink:href="#DejaVuSans-32" x="95.410156"/>
      </g>
     </g>
    </g>
    <g id="ytick_4">
     <g id="line2d_9">
      <g>
       <use xlink:href="#m59b116cc15" x="135" y="256.402187" style="stroke: #000000; stroke-width: 0.8"/>
      </g>
     </g>
     <g id="text_10">
      <!-- 0.4 -->
      <g transform="translate(112.096875 260.201406) scale(0.1 -0.1)">
       <use xlink:href="#DejaVuSans-30"/>
       <use xlink:href="#DejaVuSans-2e" x="63.623047"/>
       <use xlink:href="#DejaVuSans-34" x="95.410156"/>
      </g>
     </g>
    </g>
    <g id="ytick_5">
     <g id="line2d_10">
      <g>
       <use xlink:href="#m59b116cc15" x="135" y="201.04868" style="stroke: #000000; stroke-width: 0.8"/>
      </g>
     </g>
     <g id="text_11">
      <!-- 0.6 -->
      <g transform="translate(112.096875 204.847898) scale(0.1 -0.1)">
       <defs>
        <path id="DejaVuSans-36" d="M 2113 2584 
Q 1688 2584 1439 2293 
Q 1191 2003 1191 1497 
Q 1191 994 1439 701 
Q 1688 409 2113 409 
Q 2538 409 2786 701 
Q 3034 994 3034 1497 
Q 3034 2003 2786 2293 
Q 2538 2584 2113 2584 
z
M 3366 4563 
L 3366 3988 
Q 3128 4100 2886 4159 
Q 2644 4219 2406 4219 
Q 1781 4219 1451 3797 
Q 1122 3375 1075 2522 
Q 1259 2794 1537 2939 
Q 1816 3084 2150 3084 
Q 2853 3084 3261 2657 
Q 3669 2231 3669 1497 
Q 3669 778 3244 343 
Q 2819 -91 2113 -91 
Q 1303 -91 875 529 
Q 447 1150 447 2328 
Q 447 3434 972 4092 
Q 1497 4750 2381 4750 
Q 2619 4750 2861 4703 
Q 3103 4656 3366 4563 
z
" transform="scale(0.015625)"/>
       </defs>
       <use xlink:href="#DejaVuSans-30"/>
       <use xlink:href="#DejaVuSans-2e" x="63.623047"/>
       <use xlink:href="#DejaVuSans-36" x="95.410156"/>
      </g>
     </g>
    </g>
    <g id="ytick_6">
     <g id="line2d_11">
      <g>
       <use xlink:href="#m59b116cc15" x="135" y="145.695172" style="stroke: #000000; stroke-width: 0.8"/>
      </g>
     </g>
     <g id="text_12">
      <!-- 0.8 -->
      <g transform="translate(112.096875 149.494391) scale(0.1 -0.1)">
       <defs>
        <path id="DejaVuSans-38" d="M 2034 2216 
Q 1584 2216 1326 1975 
Q 1069 1734 1069 1313 
Q 1069 891 1326 650 
Q 1584 409 2034 409 
Q 2484 409 2743 651 
Q 3003 894 3003 1313 
Q 3003 1734 2745 1975 
Q 2488 2216 2034 2216 
z
M 1403 2484 
Q 997 2584 770 2862 
Q 544 3141 544 3541 
Q 544 4100 942 4425 
Q 1341 4750 2034 4750 
Q 2731 4750 3128 4425 
Q 3525 4100 3525 3541 
Q 3525 3141 3298 2862 
Q 3072 2584 2669 2484 
Q 3125 2378 3379 2068 
Q 3634 1759 3634 1313 
Q 3634 634 3220 271 
Q 2806 -91 2034 -91 
Q 1263 -91 848 271 
Q 434 634 434 1313 
Q 434 1759 690 2068 
Q 947 2378 1403 2484 
z
M 1172 3481 
Q 1172 3119 1398 2916 
Q 1625 2713 2034 2713 
Q 2441 2713 2670 2916 
Q 2900 3119 2900 3481 
Q 2900 3844 2670 4047 
Q 2441 4250 2034 4250 
Q 1625 4250 1398 4047 
Q 1172 3844 1172 3481 
z
" transform="scale(0.015625)"/>
       </defs>
       <use xlink:href="#DejaVuSans-30"/>
       <use xlink:href="#DejaVuSans-2e" x="63.623047"/>
       <use xlink:href="#DejaVuSans-38" x="95.410156"/>
      </g>
     </g>
    </g>
    <g id="ytick_7">
     <g id="line2d_12">
      <g>
       <use xlink:href="#m59b116cc15" x="135" y="90.341665" style="stroke: #000000; stroke-width: 0.8"/>
      </g>
     </g>
     <g id="text_13">
      <!-- 1.0 -->
      <g transform="translate(112.096875 94.140884) scale(0.1 -0.1)">
       <use xlink:href="#DejaVuSans-31"/>
       <use xlink:href="#DejaVuSans-2e" x="63.623047"/>
       <use xlink:href="#DejaVuSans-30" x="95.410156"/>
      </g>
     </g>
    </g>
   </g>
   <g id="line2d_13">
    <path d="M 173.045455 290.286549 
L 173.36604 195.410229 
L 173.686625 152.959929 
L 174.00721 140.660801 
L 174.167503 141.032539 
L 174.488088 148.450786 
L 175.449844 177.684099 
L 175.770429 182.49813 
L 176.091014 184.212117 
L 176.251307 184.032743 
L 176.571892 181.961761 
L 177.05277 175.741921 
L 177.693941 164.564988 
L 178.014526 295.00867 
L 178.335111 361.23689 
L 178.655696 389.773609 
L 178.976282 398.44703 
L 179.136574 399.051992 
L 179.296867 398.501596 
L 179.777745 395.836813 
L 179.938037 395.744414 
L 180.09833 396.309449 
L 180.418915 399.452913 
L 180.899793 408.120996 
L 181.861549 427.148089 
L 182.182134 430.333721 
L 182.342427 430.92 
L 182.502719 430.761971 
L 182.663012 429.823884 
L 182.983597 425.53751 
L 183.304183 418.054415 
L 183.78506 401.278409 
L 184.426231 370.583571 
L 187.151206 225.06349 
L 187.792376 204.816423 
L 188.273254 195.017004 
L 188.754132 189.706 
L 189.074717 188.486682 
L 189.23501 188.519755 
L 189.395302 188.953507 
L 189.715888 190.932146 
L 190.196765 196.315297 
L 190.837936 206.946815 
L 191.959984 230.688375 
L 193.562911 264.295468 
L 194.524666 279.751144 
L 195.326129 288.986558 
L 195.9673 294.014776 
L 196.448178 296.52666 
L 196.929056 298.083015 
L 197.249641 298.653093 
L 197.570226 298.895944 
L 197.890811 298.85215 
L 198.211397 298.561814 
L 198.692275 297.74872 
L 199.333445 296.149184 
L 200.615786 292.104527 
L 202.05842 287.69763 
L 203.020175 285.41833 
L 203.821639 284.053778 
L 204.462809 283.325525 
L 205.10398 282.909784 
L 205.74515 282.785868 
L 206.386321 282.926949 
L 207.027491 283.303124 
L 207.828954 284.057194 
L 208.79071 285.302187 
L 210.073051 287.391885 
L 211.83627 290.770439 
L 213.278903 293.75415 
L 213.599489 168.885554 
L 213.920074 108.66789 
L 214.240659 86.832084 
L 214.400952 84.573271 
L 214.561244 85.901899 
L 214.88183 94.736451 
L 215.843585 126.208287 
L 216.164171 131.48898 
L 216.484756 133.622279 
L 216.645049 133.643444 
L 216.805341 133.065361 
L 217.125926 130.432799 
L 217.606804 123.969488 
L 218.087682 116.125201 
L 218.408267 246.477539 
L 218.728853 312.79716 
L 219.049438 341.707818 
L 219.370023 351.127053 
L 219.530316 352.260646 
L 219.690608 352.345397 
L 220.011194 351.910098 
L 220.171486 352.201685 
L 220.331779 353.13796 
L 220.652364 357.248156 
L 221.133242 368.471196 
L 222.575876 407.386632 
L 222.896461 410.835262 
L 223.056754 411.383608 
L 223.217046 411.109665 
L 223.377339 410.002569 
L 223.697924 405.310153 
L 224.178802 392.446938 
L 224.819972 366.342409 
L 225.942021 307.396805 
L 227.224362 243.31382 
L 228.025825 214.759207 
L 228.666995 200.314562 
L 229.147873 194.406144 
L 229.468459 192.664002 
L 229.628751 192.405226 
L 229.789044 192.529839 
L 230.109629 193.847032 
L 230.430214 196.441839 
L 230.911092 202.325814 
L 231.712555 215.88767 
L 234.597823 269.368697 
L 235.399286 279.251314 
L 236.040456 284.948399 
L 236.681627 288.791895 
L 237.162505 290.583554 
L 237.643382 291.564617 
L 237.963968 291.829084 
L 238.284553 291.825525 
L 238.605138 291.591068 
L 239.086016 290.885098 
L 239.727187 289.458956 
L 240.849235 286.282295 
L 242.452161 281.821584 
L 243.413917 279.781074 
L 244.21538 278.583422 
L 244.856551 277.967852 
L 245.497721 277.647585 
L 246.138892 277.60374 
L 246.780062 277.8116 
L 247.421233 278.24349 
L 248.222696 279.054998 
L 249.184451 280.356309 
L 250.466792 282.509526 
L 252.230011 285.972184 
L 253.99323 289.726956 
L 254.313815 165.313338 
L 254.634401 105.372618 
L 254.954986 83.693494 
L 255.115279 81.481942 
L 255.275571 82.842842 
L 255.596156 91.709792 
L 256.557912 123.162105 
L 256.878497 128.42582 
L 257.199083 130.543773 
L 257.359375 130.558522 
L 257.519668 129.975114 
L 257.840253 127.335804 
L 258.321131 120.874194 
L 258.802009 113.048997 
L 259.122594 243.394405 
L 259.443179 309.72449 
L 259.763765 338.66842 
L 260.08435 348.148347 
L 260.244643 349.32323 
L 260.404935 349.456543 
L 260.72552 349.139151 
L 260.885813 349.499287 
L 261.046106 350.509845 
L 261.366691 354.783591 
L 261.847569 366.280955 
L 263.290202 406.10632 
L 263.610788 409.755351 
L 263.77108 410.401831 
L 263.931373 410.224303 
L 264.091666 409.211661 
L 264.412251 404.701366 
L 264.893129 392.091291 
L 265.534299 366.279681 
L 266.656348 307.704358 
L 267.938689 243.815191 
L 268.740152 215.272039 
L 269.381322 200.788981 
L 269.8622 194.830512 
L 270.182785 193.047275 
L 270.343078 192.7661 
L 270.503371 192.867283 
L 270.663663 193.330685 
L 270.984248 195.258472 
L 271.465126 200.313324 
L 272.106297 210.113126 
L 273.228345 231.678429 
L 274.831271 261.721292 
L 275.793027 275.314767 
L 276.59449 283.315128 
L 277.235661 287.588722 
L 277.716539 289.670089 
L 278.197417 290.905765 
L 278.518002 291.318804 
L 278.838587 291.446405 
L 279.159172 291.325741 
L 279.64005 290.758793 
L 280.281221 289.462843 
L 281.242976 286.856084 
L 283.166488 281.481126 
L 284.128244 279.454512 
L 284.929707 278.266253 
L 285.570877 277.656803 
L 286.212048 277.341518 
L 286.853218 277.301652 
L 287.494389 277.512636 
L 288.135559 277.94695 
L 288.937022 278.760737 
L 289.898778 280.064038 
L 291.181119 282.219305 
L 292.944338 285.684869 
L 293.585509 287.031179 
L 293.906094 162.886314 
L 294.226679 103.096053 
L 294.547264 81.490533 
L 294.707557 79.296891 
L 294.86785 80.667107 
L 295.188435 89.535694 
L 296.150191 120.949059 
L 296.470776 126.202226 
L 296.791361 128.314178 
L 296.951654 128.327821 
L 297.111946 127.744622 
L 297.432532 125.109761 
L 297.913409 118.665202 
L 298.394287 110.870263 
L 298.714873 241.235316 
L 299.035458 307.593708 
L 299.356043 336.578846 
L 299.676628 346.116489 
L 299.836921 347.326972 
L 299.997214 347.500394 
L 300.317799 347.27611 
L 300.478091 347.688721 
L 300.638384 348.755262 
L 300.958969 353.150004 
L 301.439847 364.845794 
L 302.882481 405.308485 
L 303.203066 409.095224 
L 303.363359 409.80888 
L 303.523651 409.697195 
L 303.683944 408.748913 
L 304.004529 404.362321 
L 304.485407 391.923317 
L 305.126578 366.308221 
L 306.248626 307.977522 
L 307.530967 244.209259 
L 308.33243 215.666123 
L 308.973601 201.150423 
L 309.454478 195.152967 
L 309.775064 193.338494 
L 309.935356 193.040455 
L 310.095649 193.124082 
L 310.255942 193.569341 
L 310.576527 195.459469 
L 311.057405 200.455788 
L 311.698575 210.177182 
L 312.820624 231.615849 
L 314.42355 261.523696 
L 315.385306 275.066533 
L 316.186769 283.040695 
L 316.827939 287.302232 
L 317.308817 289.378882 
L 317.789695 290.612905 
L 318.11028 291.026267 
L 318.430865 291.155144 
L 318.751451 291.036558 
L 319.232329 290.473924 
L 319.873499 289.185306 
L 320.835255 286.591235 
L 322.758766 281.240812 
L 323.720522 279.223999 
L 324.521985 278.042316 
L 325.163156 277.437113 
L 325.804326 277.125252 
L 326.445497 277.088083 
L 327.086667 277.301147 
L 327.727838 277.737041 
L 328.529301 278.552264 
L 329.491057 279.856765 
L 330.773398 282.013221 
L 332.536616 285.480535 
L 333.818957 288.200944 
L 334.139543 163.944547 
L 334.460128 104.094107 
L 334.780713 82.461347 
L 334.941006 80.262041 
L 335.101298 81.630131 
L 335.421884 90.501232 
L 336.383639 121.936403 
L 336.704225 127.194436 
L 337.02481 129.308773 
L 337.185103 129.322627 
L 337.345395 128.73898 
L 337.66598 126.101249 
L 338.146858 119.647469 
L 338.627736 111.837272 
L 338.948321 242.190753 
L 339.268907 308.534158 
L 339.589492 337.498963 
L 339.910077 347.009288 
L 340.07037 348.203238 
L 340.230662 348.358201 
L 340.551248 348.091493 
L 340.71154 348.480366 
L 340.871833 349.521678 
L 341.192418 353.862137 
L 341.673296 365.46941 
L 343.11593 405.650165 
L 343.436515 409.376297 
L 343.596808 410.060418 
L 343.7571 409.919804 
L 343.917393 408.943261 
L 344.237978 404.502397 
L 344.718856 391.988441 
L 345.360026 366.287417 
L 346.482075 307.850195 
L 347.764416 244.030129 
L 348.565879 215.48788 
L 349.207049 200.987256 
L 349.687927 195.00748 
L 350.008513 193.207095 
L 350.168805 192.916646 
L 350.329098 193.008165 
L 350.48939 193.461572 
L 350.809976 195.368593 
L 351.290854 200.391131 
L 351.932024 210.147598 
L 353.054072 231.642842 
L 354.656999 261.61096 
L 355.618754 275.1764 
L 356.420218 283.162261 
L 357.061388 287.429188 
L 357.542266 289.507951 
L 358.023144 290.742721 
L 358.343729 291.155946 
L 358.664314 291.284261 
L 358.9849 291.164756 
L 359.465777 290.600209 
L 360.106948 289.308336 
L 361.068704 286.708632 
L 362.992215 281.347322 
L 363.953971 279.326168 
L 364.755434 278.141577 
L 365.396605 277.534501 
L 366.037775 277.221134 
L 366.678946 277.182782 
L 367.320116 277.394939 
L 367.961287 277.830147 
L 368.76275 278.644753 
L 369.724505 279.948745 
L 371.006846 282.104704 
L 372.770065 285.571276 
L 373.090651 286.240719 
L 373.411236 162.17411 
L 373.731821 102.426233 
L 374.052406 80.839916 
L 374.212699 78.650223 
L 374.372992 80.021844 
L 374.693577 88.888292 
L 375.655333 120.283692 
L 375.975918 125.532169 
L 376.296503 127.641054 
L 376.456796 127.653824 
L 376.617088 127.070204 
L 376.937674 124.435871 
L 377.418551 117.99558 
L 377.899429 110.209251 
L 378.220015 240.580669 
L 378.5406 306.94805 
L 378.861185 335.946095 
L 379.18177 345.501658 
L 379.342063 346.723147 
L 379.502356 346.908941 
L 379.822941 346.713304 
L 379.983233 347.142029 
L 380.303819 350.058879 
L 380.624404 355.978716 
L 381.265574 374.378941 
L 382.22733 402.072741 
L 382.547915 407.365171 
L 382.868501 409.633616 
L 383.028793 409.541939 
L 383.189086 408.613209 
L 383.509671 404.264179 
L 383.990549 391.877077 
L 384.63172 366.321527 
L 385.753768 308.064728 
L 387.036109 244.332553 
L 387.837572 215.788966 
L 388.478743 201.262974 
L 388.95962 195.253391 
L 389.280206 193.429244 
L 389.440498 193.12599 
L 389.600791 193.204194 
L 389.761084 193.643852 
L 390.081669 195.522367 
L 390.562547 200.500657 
L 391.203717 210.197928 
L 392.325766 231.597681 
L 393.928692 261.464079 
L 394.890448 274.991376 
L 395.691911 282.957494 
L 396.333081 287.215326 
L 396.813959 289.290521 
L 397.294837 290.524028 
L 397.615422 290.937482 
L 397.936007 291.066743 
L 398.256593 290.948787 
L 398.737471 290.387462 
L 399.378641 289.101073 
L 400.340397 286.510861 
L 402.263908 281.167889 
L 403.225664 279.154044 
L 404.027127 277.974347 
L 404.668298 277.370422 
L 405.309468 277.059587 
L 405.950639 277.023222 
L 406.591809 277.236903 
L 407.23298 277.673259 
L 408.034443 278.488899 
L 408.996199 279.793739 
L 410.27854 281.950527 
L 412.041758 285.418338 
L 413.644685 288.832698 
L 413.96527 164.514508 
L 414.285855 104.629638 
L 414.60644 82.980144 
L 414.766733 80.776795 
L 414.927026 82.142795 
L 415.247611 91.013537 
L 416.209367 122.456975 
L 416.529952 127.716997 
L 416.850537 129.832208 
L 417.01083 129.846045 
L 417.171122 129.262068 
L 417.491708 126.622734 
L 417.972586 120.164144 
L 418.453463 112.346116 
L 418.774049 242.694228 
L 419.094634 309.030374 
L 419.415219 337.985027 
L 419.735804 347.481451 
L 419.896097 348.666914 
L 420.05639 348.812359 
L 420.376975 348.523668 
L 420.537268 348.900196 
L 420.69756 349.928363 
L 421.018145 354.240473 
L 421.499023 365.801381 
L 422.941657 405.833784 
L 423.262242 409.527934 
L 423.422535 410.196461 
L 423.582827 410.040565 
L 423.74312 409.049089 
L 424.063705 404.579533 
L 424.544583 392.02592 
L 425.185754 366.279373 
L 426.307802 307.785569 
L 427.590143 243.937696 
L 428.391606 215.395614 
L 429.032777 200.902706 
L 429.513655 194.932085 
L 429.83424 193.13902 
L 429.994532 192.852519 
L 430.154825 192.948148 
L 430.315118 193.4058 
L 430.635703 195.32163 
L 431.116581 200.357852 
L 431.757751 210.13264 
L 432.8798 231.657464 
L 434.482726 261.657112 
L 435.444482 275.234375 
L 436.245945 283.226353 
L 436.887115 287.496095 
L 437.367993 289.575959 
L 437.848871 290.811114 
L 438.169456 291.224263 
L 438.490042 291.35228 
L 438.810627 291.232289 
L 439.291505 290.666734 
L 439.932675 289.373148 
L 440.894431 286.770478 
L 442.817942 281.403435 
L 443.779698 279.379991 
L 444.581161 278.193864 
L 445.222332 277.585796 
L 445.863502 277.271629 
L 446.504673 277.232648 
L 447.145843 277.444319 
L 447.787014 277.879159 
L 448.588477 278.69343 
L 449.550233 279.997143 
L 450.832574 282.152825 
L 452.595793 285.618989 
L 453.557548 287.649295 
L 453.878134 163.4452 
L 454.198719 103.623081 
L 454.519304 82.003272 
L 454.679597 79.806732 
L 454.839889 81.175941 
L 455.160475 90.046132 
L 456.12223 121.471986 
L 456.442816 126.728042 
L 456.763401 128.841554 
L 456.923693 128.855451 
L 457.083986 128.272151 
L 457.404571 125.636026 
L 457.885449 119.186917 
L 458.366327 111.384166 
L 458.686912 241.743268 
L 459.007498 308.093853 
L 459.328083 337.068308 
L 459.648668 346.591521 
L 459.808961 347.79325 
L 459.969253 347.956888 
L 460.289839 347.710091 
L 460.450131 348.110095 
L 460.610424 349.163231 
L 460.931009 353.529117 
L 461.411887 365.177826 
L 462.854521 405.490444 
L 463.175106 409.244908 
L 463.335398 409.942835 
L 463.495691 409.815743 
L 463.655984 408.852409 
L 463.976569 404.436911 
L 464.457447 391.957983 
L 465.098617 366.297113 
L 466.220666 307.909667 
L 467.503007 244.113802 
L 468.30447 215.571132 
L 468.94564 201.063455 
L 469.426518 195.075411 
L 469.747103 193.268437 
L 469.907396 192.974438 
L 470.067689 193.062266 
L 470.227981 193.511863 
L 470.548567 195.410984 
L 471.029444 200.421261 
L 471.670615 210.161326 
L 472.792663 231.63011 
L 474.39559 261.570039 
L 475.357345 275.124908 
L 476.158808 283.105297 
L 476.799979 287.369704 
L 477.280857 289.44748 
L 477.761735 290.681901 
L 478.08232 291.095191 
L 478.402905 291.22377 
L 478.72349 291.104696 
L 479.204368 290.541045 
L 479.845539 289.250697 
L 480.807295 286.653632 
L 482.730806 281.297423 
L 483.692562 279.278304 
L 484.494025 278.095077 
L 485.135195 277.488879 
L 485.776366 277.176219 
L 486.417536 277.138423 
L 487.058707 277.351006 
L 487.699877 277.786537 
L 488.501341 278.601434 
L 489.463096 279.905667 
L 490.745437 282.061861 
L 492.508656 285.528784 
L 493.630705 287.903644 
L 493.95129 163.675875 
L 494.271875 103.841122 
L 494.59246 82.215718 
L 494.752753 80.018069 
L 494.913046 81.386911 
L 495.233631 90.257766 
L 496.195387 121.688258 
L 496.515972 126.945231 
L 496.836557 129.05909 
L 496.99685 129.072938 
L 497.157142 128.489442 
L 497.477728 125.852488 
L 497.958605 119.401064 
L 498.439483 111.594697 
L 498.760069 241.950964 
L 499.080654 308.298024 
L 499.401239 337.267838 
L 499.721824 346.784933 
L 499.882117 347.982993 
L 500.04241 348.142551 
L 500.362995 347.886421 
L 500.523287 348.281221 
L 500.68358 349.328836 
L 501.004165 353.682869 
L 501.485043 365.3123 
L 502.927677 405.563748 
L 503.248262 409.305093 
L 503.408555 409.996629 
L 503.568847 409.863279 
L 503.72914 408.893833 
L 504.049725 404.466602 
L 504.530603 391.971479 
L 505.171774 366.292057 
L 506.293822 307.881644 
L 507.576163 244.07467 
L 508.377626 215.532258 
L 509.018797 201.027895 
L 509.499674 195.043716 
L 509.82026 193.239817 
L 509.980552 192.947473 
L 510.140845 193.037022 
L 510.301138 193.488394 
L 510.621723 195.391196 
L 511.102601 200.407182 
L 511.743771 210.154881 
L 512.86582 231.635978 
L 514.468746 261.589021 
L 515.430502 275.148807 
L 516.231965 283.131742 
L 516.873135 287.397322 
L 517.354013 289.475558 
L 517.834891 290.710142 
L 518.155476 291.123402 
L 518.476061 291.251859 
L 518.796647 291.132585 
L 519.277525 290.568518 
L 519.918695 289.277462 
L 520.880451 286.679171 
L 522.803962 281.320593 
L 523.765718 279.300529 
L 524.567181 278.116669 
L 525.208352 277.510064 
L 525.849522 277.197076 
L 526.490693 277.159023 
L 527.131863 277.371409 
L 527.773034 277.806791 
L 528.574497 278.621554 
L 529.536253 279.925677 
L 530.818594 282.081763 
L 532.581812 285.548525 
L 533.864153 288.268352 
L 534.184739 164.004413 
L 534.505324 104.149512 
L 534.825909 82.514354 
L 534.986202 80.314374 
L 535.146494 81.682042 
L 535.46708 90.552823 
L 536.428835 121.988818 
L 536.749421 127.247235 
L 537.070006 129.361898 
L 537.230299 129.375885 
L 537.390591 128.792345 
L 537.711176 126.154748 
L 538.192054 119.700933 
L 538.672932 111.890374 
L 538.993517 242.243823 
L 539.314103 308.586911 
L 539.634688 337.55102 
L 539.955273 347.060186 
L 540.115566 348.253372 
L 540.275858 348.407448 
L 540.596444 348.138616 
L 540.756736 348.526266 
L 540.917029 349.566258 
L 541.237614 353.90383 
L 541.718492 365.506293 
L 543.161126 405.671257 
L 543.481711 409.393934 
L 543.642004 410.076365 
L 543.802296 409.934092 
L 543.962589 408.955925 
L 544.283174 404.511934 
L 544.764052 391.993641 
L 545.405222 366.287613 
L 546.527271 307.844111 
L 547.809612 244.020843 
L 548.611075 215.47849 
L 549.252245 200.978602 
L 549.733123 194.999745 
L 550.053709 193.200104 
L 550.214001 192.910058 
L 550.374294 193.001998 
L 550.534586 193.455842 
L 550.855172 195.36377 
L 551.33605 200.387723 
L 551.97722 210.14609 
L 553.099268 231.64441 
L 554.702195 261.615812 
L 555.66395 275.182483 
L 556.465414 283.168981 
L 557.106584 287.4362 
L 557.587462 289.515077 
L 558.06834 290.749887 
L 558.388925 291.163103 
L 558.70951 291.291387 
L 559.030096 291.171831 
L 559.510973 290.607178 
L 560.152144 289.315127 
L 561.1139 286.715113 
L 563.037411 281.353204 
L 563.999167 279.33181 
L 564.80063 278.147058 
L 565.441801 277.539877 
L 566.082971 277.226426 
L 566.724142 277.188007 
L 567.365312 277.400112 
L 568.006483 277.835281 
L 568.807946 278.649851 
L 569.769701 279.953813 
L 571.052042 282.10974 
L 572.815261 285.576267 
L 574.257895 288.641927 
L 574.57848 164.340724 
L 574.899065 104.464887 
L 575.219651 82.819403 
L 575.379943 80.616871 
L 575.540236 81.983175 
L 575.860821 90.853581 
L 576.822577 122.294569 
L 577.143162 127.554337 
L 577.463747 129.669735 
L 577.62404 129.683832 
L 577.784333 129.100224 
L 578.104918 126.461941 
L 578.585796 120.005685 
L 579.066674 112.190883 
L 579.387259 242.541592 
L 579.707844 308.880751 
L 580.028429 337.839157 
L 580.349015 347.34035 
L 580.509307 348.528621 
L 580.6696 348.677162 
L 580.990185 348.395484 
L 581.150478 348.775896 
L 581.31077 349.808167 
L 581.631356 354.129053 
L 582.112234 365.704156 
L 583.554867 405.781255 
L 583.875452 409.484948 
L 584.035745 410.158119 
L 584.196038 410.006769 
L 584.35633 409.01973 
L 584.676916 404.558687 
L 585.157793 392.016812 
L 585.798964 366.283695 
L 586.921012 307.806474 
L 588.203353 243.966541 
L 589.004816 215.424187 
L 589.645987 200.928801 
L 590.126865 194.955319 
L 590.44745 193.159984 
L 590.607743 192.872264 
L 590.768035 192.966624 
L 590.928328 193.422969 
L 591.248913 195.33609 
L 591.729791 200.368113 
L 592.370962 210.13729 
L 593.49301 231.65307 
L 595.095936 261.643086 
L 596.057692 275.216738 
L 596.859155 283.206846 
L 597.500326 287.475727 
L 597.981203 289.555254 
L 598.462081 290.790291 
L 598.782667 291.203463 
L 599.103252 291.33157 
L 599.423837 291.211727 
L 599.904715 290.646479 
L 600.545885 289.353416 
L 601.507641 286.751651 
L 603.431153 281.386356 
L 604.392908 279.363609 
L 605.194372 278.177951 
L 605.835542 277.570183 
L 606.476713 277.256259 
L 607.117883 277.217468 
L 607.759054 277.429286 
L 608.400224 277.864237 
L 609.201687 278.678608 
L 610.163443 279.982403 
L 611.445784 282.138166 
L 613.209003 285.604451 
L 613.529588 161.598248 
L 613.850173 101.881592 
L 614.170759 80.307864 
L 614.331051 78.12 
L 614.491344 79.491484 
L 614.811929 88.353969 
L 615.773685 119.730735 
L 616.09427 124.974821 
L 616.414855 127.080937 
L 616.575148 127.092955 
L 616.735441 126.509005 
L 617.056026 123.87527 
L 617.536904 117.438984 
L 618.017782 109.660427 
L 618.338367 240.03842 
L 618.658952 306.414364 
L 618.979537 335.424055 
L 619.300123 344.995277 
L 619.460415 346.226242 
L 619.620708 346.422615 
L 619.941293 346.251281 
L 620.101586 346.693597 
L 620.422171 349.640088 
L 620.742756 355.592209 
L 621.383927 374.062013 
L 622.345682 401.863724 
L 622.666268 407.191206 
L 622.986853 409.493631 
L 623.147146 409.418442 
L 623.307438 408.505814 
L 623.628023 404.187698 
L 624.108901 391.843265 
L 624.750072 366.336586 
L 625.87212 308.140226 
L 627.154461 244.437155 
L 627.955924 215.892763 
L 628.597095 201.357933 
L 629.077973 195.338089 
L 629.398558 193.505792 
L 629.558851 193.198153 
L 629.719143 193.271801 
L 629.879436 193.706758 
L 630.200021 195.575532 
L 630.680899 200.538719 
L 631.322069 210.215805 
L 632.444118 231.58303 
L 634.047044 261.414801 
L 635.0088 274.929115 
L 635.810263 282.888511 
L 636.451433 287.143241 
L 636.932311 289.217216 
L 637.413189 290.450286 
L 637.733774 290.863812 
L 638.05436 290.993389 
L 638.374945 290.875953 
L 638.855823 290.315715 
L 639.496993 289.031175 
L 640.458749 286.444169 
L 642.382261 281.107382 
L 643.344016 279.095997 
L 644.145479 277.917942 
L 644.78665 277.315072 
L 645.42782 277.005082 
L 646.068991 276.969376 
L 646.710161 277.18356 
L 647.351332 277.620293 
L 648.152795 278.436266 
L 649.114551 279.741376 
L 650.396892 281.898423 
L 652.160111 285.366628 
L 653.92333 289.129497 
L 654.243915 164.782349 
L 654.5645 104.881238 
L 654.885085 83.223728 
L 655.045378 81.018381 
L 655.205671 82.383292 
L 655.526256 91.253635 
L 656.488012 122.700278 
L 656.808597 127.961036 
L 657.129182 130.076481 
L 657.289475 130.090228 
L 657.449767 129.506022 
L 657.770353 126.865799 
L 658.25123 120.40479 
L 658.732108 112.582973 
L 659.052694 242.928517 
L 659.373279 309.261234 
L 659.693864 338.211127 
L 660.014449 347.701061 
L 660.174742 348.882567 
L 660.335035 349.023579 
L 660.65562 348.724658 
L 660.815912 349.095445 
L 660.976205 350.117498 
L 661.29679 354.41643 
L 661.777668 365.955789 
L 663.220302 405.919267 
L 663.540887 409.59856 
L 663.70118 410.259842 
L 663.861472 410.096848 
L 664.021765 409.098435 
L 664.34235 404.61555 
L 664.823228 392.043513 
L 665.464399 366.275816 
L 666.586447 307.755715 
L 667.868788 243.894906 
L 668.670251 215.35289 
L 669.311422 200.863556 
L 669.792299 194.897181 
L 670.112885 193.107511 
L 670.273177 192.822844 
L 670.43347 192.920379 
L 670.593763 193.380002 
L 670.914348 195.29992 
L 671.395226 200.342493 
L 672.036396 210.125788 
L 673.158445 231.664346 
L 674.761371 261.678635 
L 675.723127 275.26139 
L 676.52459 283.256208 
L 677.16576 287.527256 
L 677.646638 289.607631 
L 678.127516 290.842964 
L 678.448101 291.256077 
L 678.768686 291.383954 
L 679.089272 291.263736 
L 679.57015 290.697711 
L 680.21132 289.403328 
L 681.173076 286.799277 
L 683.096587 281.429565 
L 684.058343 279.405053 
L 684.859806 278.21821 
L 685.500977 277.609679 
L 686.142147 277.295139 
L 686.783318 277.255863 
L 687.424488 277.467307 
L 688.065659 277.901974 
L 688.867122 278.716088 
L 689.828878 280.019669 
L 691.111219 282.17522 
L 692.874437 285.641192 
L 694.156778 288.360204 
L 694.477364 164.08599 
L 694.797949 104.225009 
L 695.118534 82.586575 
L 695.278827 80.385675 
L 695.439119 81.752763 
L 695.759705 90.623102 
L 696.72146 122.060199 
L 697.042046 127.319135 
L 697.362631 129.434239 
L 697.522924 129.448404 
L 697.683216 128.86501 
L 698.003801 126.227592 
L 698.484679 119.773727 
L 698.965557 111.962673 
L 699.286142 242.316084 
L 699.606728 308.658744 
L 699.927313 337.621907 
L 700.247898 347.129497 
L 700.408191 348.321645 
L 700.568483 348.474514 
L 700.889069 348.202793 
L 701.049361 348.588778 
L 701.209654 349.626976 
L 701.530239 353.960617 
L 702.011117 365.556534 
L 703.453751 405.700003 
L 703.774336 409.417975 
L 703.934629 410.098105 
L 704.094921 409.953573 
L 704.255214 408.973196 
L 704.575799 404.524947 
L 705.056677 392.000747 
L 705.697847 366.287906 
L 706.819896 307.835851 
L 708.102237 244.008221 
L 708.9037 215.465723 
L 709.54487 200.966836 
L 710.025748 194.989227 
L 710.346334 193.190597 
L 710.506626 192.901101 
L 710.666919 192.993614 
L 710.827211 193.448051 
L 711.147797 195.357214 
L 711.628675 200.383092 
L 712.269845 210.144044 
L 713.391893 231.646549 
L 714.99482 261.622419 
L 715.956575 275.190765 
L 716.758039 283.178129 
L 717.399209 287.445746 
L 717.880087 289.524779 
L 718.360965 290.759642 
L 718.68155 291.172847 
L 719.002135 291.301088 
L 719.322721 291.181462 
L 719.803598 290.616666 
L 720.444769 289.324371 
L 721.406525 286.723935 
L 723.330036 281.36121 
L 724.291792 279.33949 
L 725.093255 278.154519 
L 725.734426 277.547196 
L 726.375596 277.23363 
L 727.016767 277.195121 
L 727.657937 277.407155 
L 728.299108 277.84227 
L 729.100571 278.656791 
L 730.062326 279.96071 
L 731.344667 282.116596 
L 733.107886 285.583061 
L 734.069642 287.613593 
L 734.390227 163.413507 
L 734.710813 103.593751 
L 735.031398 81.975203 
L 735.19169 79.779013 
L 735.351983 81.148439 
L 735.672568 90.018783 
L 736.634324 121.444152 
L 736.954909 126.69999 
L 737.275495 128.813317 
L 737.435787 128.827138 
L 737.59608 128.243776 
L 737.916665 125.607571 
L 738.397543 119.15847 
L 738.878421 111.355904 
L 739.199006 241.715026 
L 739.519591 308.065783 
L 739.840177 337.040612 
L 740.160762 346.564446 
L 740.321054 347.766585 
L 740.481347 347.930697 
L 740.801932 347.685035 
L 740.962225 348.085692 
L 741.122518 349.139533 
L 741.443103 353.506961 
L 741.923981 365.158236 
L 743.366614 405.479274 
L 743.6872 409.23558 
L 743.847492 409.934408 
L 744.007785 409.808199 
L 744.168077 408.845731 
L 744.488663 404.431898 
L 744.969541 391.95528 
L 745.610711 366.297075 
L 746.732759 307.912969 
L 748.0151 244.118799 
L 748.816564 215.576178 
L 749.457734 201.068103 
L 749.938612 195.079566 
L 750.259197 193.272193 
L 750.41949 192.977978 
L 750.579782 193.06558 
L 750.740075 193.514944 
L 751.06066 195.413579 
L 751.541538 200.423098 
L 752.182709 210.162146 
L 753.304757 231.629285 
L 754.907683 261.567459 
L 755.869439 275.12167 
L 756.670902 283.101719 
L 757.312073 287.365969 
L 757.792951 289.443684 
L 758.273828 290.678085 
L 758.594414 291.091379 
L 758.914999 291.219975 
L 759.235584 291.100927 
L 759.716462 290.537333 
L 760.357633 289.247081 
L 761.319388 286.650181 
L 763.2429 281.294291 
L 764.204656 279.275299 
L 765.006119 278.092158 
L 765.647289 277.486016 
L 766.28846 277.1734 
L 766.92963 277.135639 
L 767.570801 277.34825 
L 768.211971 277.783802 
L 769.013434 278.598718 
L 769.97519 279.902967 
L 771.257531 282.059177 
L 773.02075 285.526123 
L 773.822213 287.214319 
L 774.142798 163.054074 
L 774.463384 103.256333 
L 774.783969 81.648238 
L 774.944261 79.45444 
L 775.104554 80.824972 
L 775.425139 89.695001 
L 776.386895 121.113115 
L 776.70748 126.367003 
L 777.028066 128.479111 
L 777.188358 128.492625 
L 777.348651 127.909164 
L 777.669236 125.273401 
L 778.150114 118.826597 
L 778.630992 111.028392 
L 778.951577 241.390505 
L 779.272162 307.745566 
L 779.592748 336.726649 
L 779.913333 346.259229 
L 780.073625 347.466758 
L 780.233918 347.636939 
L 780.554503 347.405357 
L 780.714796 347.813944 
L 780.875089 348.876242 
L 781.195674 353.261942 
L 781.676552 364.943163 
L 783.119185 405.360275 
L 783.439771 409.137324 
L 783.600063 409.846268 
L 783.760356 409.729974 
L 783.920648 408.777195 
L 784.241234 404.381983 
L 784.722112 391.931107 
L 785.363282 366.302455 
L 786.48533 307.955084 
L 787.767671 244.17897 
L 788.569135 215.636246 
L 789.210305 201.123171 
L 789.691183 195.128698 
L 790.011768 193.31658 
L 790.172061 193.019806 
L 790.332353 193.104745 
L 790.492646 193.551356 
L 790.813231 195.444282 
L 791.294109 200.444934 
L 791.93528 210.172109 
L 793.057328 231.620085 
L 794.660254 261.537837 
L 795.62201 275.084391 
L 796.423473 283.060478 
L 797.064644 287.322904 
L 797.545522 289.399904 
L 798.026399 290.634053 
L 798.346985 291.047394 
L 798.66757 291.176181 
L 798.988155 291.057446 
L 799.469033 290.494501 
L 800.110204 289.205352 
L 801.071959 286.610362 
L 802.995471 281.258163 
L 803.957227 279.240643 
L 804.75869 278.058488 
L 805.39986 277.452982 
L 806.041031 277.140878 
L 806.682201 277.103518 
L 807.323372 277.316438 
L 807.964542 277.752223 
L 808.766005 278.567351 
L 809.727761 279.871774 
L 811.010102 282.028155 
L 812.773321 285.495356 
L 813.414491 286.842439 
L 813.735077 162.718862 
L 814.055662 102.941104 
L 814.376247 81.342211 
L 814.53654 79.150384 
L 814.696832 80.521703 
L 815.017418 89.391003 
L 815.979173 120.801512 
L 816.299759 126.053445 
L 816.620344 128.164341 
L 816.780637 128.17755 
L 816.940929 127.59399 
L 817.261514 124.958653 
L 817.742392 118.514073 
L 818.22327 110.720073 
L 818.543855 241.085243 
L 818.864441 307.444564 
L 819.185026 336.431714 
L 819.505611 345.972682 
L 819.665904 347.185352 
L 819.826196 347.361309 
L 820.146782 347.143088 
L 820.307074 347.559186 
L 820.62766 350.448513 
L 820.948245 356.338377 
L 821.589415 374.674016 
L 822.551171 402.267654 
L 822.871756 407.527547 
L 823.192342 409.764452 
L 823.352634 409.657471 
L 823.512927 408.713792 
L 823.833512 404.336063 
L 824.31439 391.909346 
L 824.95556 366.308412 
L 826.077609 307.99545 
L 827.35995 244.236158 
L 828.161413 215.693242 
L 828.802583 201.175391 
L 829.283461 195.175286 
L 829.604047 193.358672 
L 829.764339 193.059474 
L 829.924632 193.141892 
L 830.084924 193.5859 
L 830.40551 195.473427 
L 830.886388 200.465696 
L 831.527558 210.181654 
L 832.649606 231.611532 
L 834.252533 261.510004 
L 835.214288 275.049329 
L 836.015752 283.021675 
L 836.656922 287.282378 
L 837.1378 289.358702 
L 837.618678 290.592611 
L 837.939263 291.005996 
L 838.259848 291.134962 
L 838.580434 291.016521 
L 839.061311 290.454187 
L 839.702482 289.166077 
L 840.664238 286.572886 
L 842.587749 281.224161 
L 843.549505 279.208026 
L 844.350968 278.026798 
L 844.992139 277.421889 
L 845.633309 277.110264 
L 846.27448 277.073282 
L 846.91565 277.28649 
L 847.556821 277.722493 
L 848.358284 278.537816 
L 849.320039 279.8424 
L 850.60238 281.998939 
L 852.365599 285.466374 
L 854.609696 290.274608 
L 854.930281 165.811611 
L 855.250867 105.843834 
L 855.571452 84.151808 
L 855.731744 81.937177 
L 855.892037 83.29647 
L 856.212622 92.162952 
L 857.174378 123.618805 
L 857.494963 128.882409 
L 857.815549 130.999145 
L 857.975841 131.012864 
L 858.136134 130.428151 
L 858.456719 127.785429 
L 858.937597 121.316764 
L 859.418475 113.482203 
L 859.73906 243.82041 
L 860.059645 310.142158 
L 860.380231 339.075711 
L 860.700816 348.542447 
L 860.861108 349.709554 
L 861.021401 349.834294 
L 861.341986 349.497467 
L 861.502279 349.846834 
L 861.662572 350.846005 
L 861.983157 355.095394 
L 862.464035 366.553323 
L 863.906668 406.254337 
L 864.227254 409.87679 
L 864.387546 410.510332 
L 864.547839 410.320138 
L 864.708131 409.295129 
L 865.028717 404.761105 
L 865.509595 392.118293 
L 866.150765 366.269202 
L 867.272813 307.647524 
L 868.555154 243.736021 
L 869.356618 215.19349 
L 869.997788 200.717227 
L 870.478666 194.766653 
L 870.799251 192.989687 
L 870.959544 192.711888 
L 871.119836 192.816578 
L 871.440422 194.09173 
L 871.761007 196.642364 
L 872.241885 202.458018 
L 873.043348 215.906842 
L 875.928615 269.091635 
L 876.730078 278.933384 
L 877.371249 284.609495 
L 878.012419 288.440881 
L 878.493297 290.228316 
L 878.974175 291.208564 
L 879.29476 291.474058 
L 879.615346 291.472566 
L 879.935931 291.241044 
L 880.416809 290.540754 
L 881.057979 289.123828 
L 882.180028 285.965238 
L 883.782954 281.528918 
L 884.74471 279.500347 
L 885.546173 278.310776 
L 886.187343 277.700477 
L 886.828514 277.384509 
L 887.469684 277.344103 
L 888.110855 277.554671 
L 888.752025 277.988669 
L 889.553488 278.802168 
L 890.515244 280.105228 
L 891.797585 282.260256 
L 893.560804 285.725468 
L 894.362267 287.412622 
L 894.682852 163.230062 
L 895.003438 103.419187 
L 895.324023 81.8041 
L 895.484315 79.608372 
L 895.644608 80.977719 
L 895.965193 89.846943 
L 896.926949 121.267884 
L 897.247534 126.52302 
L 897.56812 128.636194 
L 897.728412 128.650145 
L 897.888705 128.067045 
L 898.20929 125.43175 
L 898.690168 118.984933 
L 899.171046 111.18572 
L 899.491631 241.547721 
L 899.812216 307.90182 
L 900.132802 336.880809 
L 900.453387 346.409923 
L 900.613679 347.615169 
L 900.773972 347.782703 
L 901.094557 347.544788 
L 901.25485 347.949731 
L 901.415143 349.0081 
L 901.735728 353.385203 
L 902.216606 365.052116 
L 903.659239 405.422308 
L 903.979825 409.189096 
L 904.140117 409.893023 
L 904.30041 409.771806 
L 904.460702 408.814208 
L 904.781288 404.409717 
L 905.262166 391.945975 
L 905.903336 366.30249 
L 907.025384 307.93653 
L 908.307725 244.150992 
L 909.109189 215.608013 
L 909.750359 201.09717 
L 910.231237 195.105456 
L 910.551822 193.295569 
L 910.712115 193.000003 
L 910.872407 193.086203 
L 911.0327 193.53412 
L 911.353285 195.42976 
L 911.834163 200.434639 
L 912.475334 210.167489 
L 913.597382 231.624644 
L 915.200308 261.552189 
L 916.162064 275.102413 
L 916.963527 283.080397 
L 917.604698 287.343695 
L 918.085576 289.421035 
L 918.566453 290.655302 
L 918.887039 291.068619 
L 919.207624 291.197313 
L 919.528209 291.078427 
L 920.009087 290.515168 
L 920.650258 289.225487 
L 921.612013 286.629577 
L 923.535525 281.2756 
L 924.497281 279.25737 
L 925.298744 278.074738 
L 925.939914 277.468924 
L 926.581085 277.156571 
L 927.222255 277.119016 
L 927.863426 277.331784 
L 928.504596 277.767454 
L 929.306059 278.582476 
L 930.267815 279.886811 
L 931.550156 282.043104 
L 933.313375 285.510176 
L 933.794253 286.517569 
L 933.954545 214.376531 
L 933.954545 214.376531 
" clip-path="url(#p46e654c843)" style="fill: none; stroke: #1f77b4; stroke-width: 1.5; stroke-linecap: square"/>
   </g>
   <g id="line2d_14">
    <path d="M 173.045455 90.341665 
L 177.693941 90.341665 
L 177.854233 367.109202 
L 213.278903 367.109202 
L 213.439196 90.341665 
L 218.087682 90.341665 
L 218.247975 367.109202 
L 253.99323 367.109202 
L 254.153523 90.341665 
L 258.802009 90.341665 
L 258.962302 367.109202 
L 293.585509 367.109202 
L 293.745801 90.341665 
L 298.394287 90.341665 
L 298.55458 367.109202 
L 333.818957 367.109202 
L 333.97925 90.341665 
L 338.627736 90.341665 
L 338.788029 367.109202 
L 373.090651 367.109202 
L 373.250943 90.341665 
L 377.899429 90.341665 
L 378.059722 367.109202 
L 413.644685 367.109202 
L 413.804977 90.341665 
L 418.453463 90.341665 
L 418.613756 367.109202 
L 453.557548 367.109202 
L 453.717841 90.341665 
L 458.366327 90.341665 
L 458.52662 367.109202 
L 493.630705 367.109202 
L 493.790997 90.341665 
L 498.439483 90.341665 
L 498.599776 367.109202 
L 533.864153 367.109202 
L 534.024446 90.341665 
L 538.672932 90.341665 
L 538.833225 367.109202 
L 574.257895 367.109202 
L 574.418188 90.341665 
L 579.066674 90.341665 
L 579.226966 367.109202 
L 613.209003 367.109202 
L 613.369295 90.341665 
L 618.017782 90.341665 
L 618.178074 367.109202 
L 653.92333 367.109202 
L 654.083622 90.341665 
L 658.732108 90.341665 
L 658.892401 367.109202 
L 694.156778 367.109202 
L 694.317071 90.341665 
L 698.965557 90.341665 
L 699.12585 367.109202 
L 734.069642 367.109202 
L 734.229935 90.341665 
L 738.878421 90.341665 
L 739.038713 367.109202 
L 773.822213 367.109202 
L 773.982506 90.341665 
L 778.630992 90.341665 
L 778.791284 367.109202 
L 813.414491 367.109202 
L 813.574784 90.341665 
L 818.22327 90.341665 
L 818.383563 367.109202 
L 854.609696 367.109202 
L 854.769989 90.341665 
L 859.418475 90.341665 
L 859.578767 367.109202 
L 894.362267 367.109202 
L 894.52256 90.341665 
L 899.171046 90.341665 
L 899.331338 367.109202 
L 933.794253 367.109202 
L 933.954545 90.341665 
L 933.954545 90.341665 
" clip-path="url(#p46e654c843)" style="fill: none; stroke: #ff7f0e; stroke-width: 1.5; stroke-linecap: square"/>
   </g>
   <g id="line2d_15">
    <path d="M 929.466352 367.109202 
" clip-path="url(#p46e654c843)" style="fill: none; stroke: #000000; stroke-width: 1.5; stroke-linecap: square"/>
    <defs>
     <path id="m182cab0ced" d="M 0 1 
C 0.265203 1 0.51958 0.894634 0.707107 0.707107 
C 0.894634 0.51958 1 0.265203 1 0 
C 1 -0.265203 0.894634 -0.51958 0.707107 -0.707107 
C 0.51958 -0.894634 0.265203 -1 0 -1 
C -0.265203 -1 -0.51958 -0.894634 -0.707107 -0.707107 
C -0.894634 -0.51958 -1 -0.265203 -1 0 
C -1 0.265203 -0.894634 0.51958 -0.707107 0.707107 
C -0.51958 0.894634 -0.265203 1 0 1 
z
" style="stroke: #000000"/>
    </defs>
    <g clip-path="url(#p46e654c843)">
     <use xlink:href="#m182cab0ced" x="173.045455" y="90.341665" style="stroke: #000000"/>
     <use xlink:href="#m182cab0ced" x="178.174819" y="367.109202" style="stroke: #000000"/>
     <use xlink:href="#m182cab0ced" x="183.14389" y="367.109202" style="stroke: #000000"/>
     <use xlink:href="#m182cab0ced" x="188.112961" y="90.341665" style="stroke: #000000"/>
     <use xlink:href="#m182cab0ced" x="193.082033" y="367.109202" style="stroke: #000000"/>
     <use xlink:href="#m182cab0ced" x="198.211397" y="367.109202" style="stroke: #000000"/>
     <use xlink:href="#m182cab0ced" x="203.180468" y="90.341665" style="stroke: #000000"/>
     <use xlink:href="#m182cab0ced" x="208.149539" y="367.109202" style="stroke: #000000"/>
     <use xlink:href="#m182cab0ced" x="213.118611" y="90.341665" style="stroke: #000000"/>
     <use xlink:href="#m182cab0ced" x="218.247975" y="367.109202" style="stroke: #000000"/>
     <use xlink:href="#m182cab0ced" x="223.217046" y="367.109202" style="stroke: #000000"/>
     <use xlink:href="#m182cab0ced" x="228.186118" y="90.341665" style="stroke: #000000"/>
     <use xlink:href="#m182cab0ced" x="233.155189" y="367.109202" style="stroke: #000000"/>
     <use xlink:href="#m182cab0ced" x="238.284553" y="367.109202" style="stroke: #000000"/>
     <use xlink:href="#m182cab0ced" x="243.253624" y="90.341665" style="stroke: #000000"/>
     <use xlink:href="#m182cab0ced" x="248.222696" y="367.109202" style="stroke: #000000"/>
     <use xlink:href="#m182cab0ced" x="253.191767" y="90.341665" style="stroke: #000000"/>
     <use xlink:href="#m182cab0ced" x="258.321131" y="367.109202" style="stroke: #000000"/>
     <use xlink:href="#m182cab0ced" x="263.290202" y="367.109202" style="stroke: #000000"/>
     <use xlink:href="#m182cab0ced" x="268.259274" y="90.341665" style="stroke: #000000"/>
     <use xlink:href="#m182cab0ced" x="273.228345" y="367.109202" style="stroke: #000000"/>
     <use xlink:href="#m182cab0ced" x="278.357709" y="367.109202" style="stroke: #000000"/>
     <use xlink:href="#m182cab0ced" x="283.326781" y="90.341665" style="stroke: #000000"/>
     <use xlink:href="#m182cab0ced" x="288.295852" y="367.109202" style="stroke: #000000"/>
     <use xlink:href="#m182cab0ced" x="293.264923" y="90.341665" style="stroke: #000000"/>
     <use xlink:href="#m182cab0ced" x="298.394287" y="367.109202" style="stroke: #000000"/>
     <use xlink:href="#m182cab0ced" x="303.363359" y="367.109202" style="stroke: #000000"/>
     <use xlink:href="#m182cab0ced" x="308.33243" y="90.341665" style="stroke: #000000"/>
     <use xlink:href="#m182cab0ced" x="313.301501" y="367.109202" style="stroke: #000000"/>
     <use xlink:href="#m182cab0ced" x="318.430865" y="367.109202" style="stroke: #000000"/>
     <use xlink:href="#m182cab0ced" x="323.399937" y="90.341665" style="stroke: #000000"/>
     <use xlink:href="#m182cab0ced" x="328.369008" y="367.109202" style="stroke: #000000"/>
     <use xlink:href="#m182cab0ced" x="333.33808" y="90.341665" style="stroke: #000000"/>
     <use xlink:href="#m182cab0ced" x="338.467444" y="367.109202" style="stroke: #000000"/>
     <use xlink:href="#m182cab0ced" x="343.436515" y="367.109202" style="stroke: #000000"/>
     <use xlink:href="#m182cab0ced" x="348.405586" y="90.341665" style="stroke: #000000"/>
     <use xlink:href="#m182cab0ced" x="353.374658" y="367.109202" style="stroke: #000000"/>
     <use xlink:href="#m182cab0ced" x="358.504022" y="367.109202" style="stroke: #000000"/>
     <use xlink:href="#m182cab0ced" x="363.473093" y="90.341665" style="stroke: #000000"/>
     <use xlink:href="#m182cab0ced" x="368.442164" y="367.109202" style="stroke: #000000"/>
     <use xlink:href="#m182cab0ced" x="373.411236" y="90.341665" style="stroke: #000000"/>
     <use xlink:href="#m182cab0ced" x="378.5406" y="367.109202" style="stroke: #000000"/>
     <use xlink:href="#m182cab0ced" x="383.509671" y="367.109202" style="stroke: #000000"/>
     <use xlink:href="#m182cab0ced" x="388.478743" y="90.341665" style="stroke: #000000"/>
     <use xlink:href="#m182cab0ced" x="393.447814" y="367.109202" style="stroke: #000000"/>
     <use xlink:href="#m182cab0ced" x="398.577178" y="367.109202" style="stroke: #000000"/>
     <use xlink:href="#m182cab0ced" x="403.546249" y="90.341665" style="stroke: #000000"/>
     <use xlink:href="#m182cab0ced" x="408.515321" y="367.109202" style="stroke: #000000"/>
     <use xlink:href="#m182cab0ced" x="413.484392" y="90.341665" style="stroke: #000000"/>
     <use xlink:href="#m182cab0ced" x="418.613756" y="367.109202" style="stroke: #000000"/>
     <use xlink:href="#m182cab0ced" x="423.582827" y="367.109202" style="stroke: #000000"/>
     <use xlink:href="#m182cab0ced" x="428.551899" y="90.341665" style="stroke: #000000"/>
     <use xlink:href="#m182cab0ced" x="433.52097" y="367.109202" style="stroke: #000000"/>
     <use xlink:href="#m182cab0ced" x="438.650334" y="367.109202" style="stroke: #000000"/>
     <use xlink:href="#m182cab0ced" x="443.619406" y="90.341665" style="stroke: #000000"/>
     <use xlink:href="#m182cab0ced" x="448.588477" y="367.109202" style="stroke: #000000"/>
     <use xlink:href="#m182cab0ced" x="453.557548" y="90.341665" style="stroke: #000000"/>
     <use xlink:href="#m182cab0ced" x="458.686912" y="367.109202" style="stroke: #000000"/>
     <use xlink:href="#m182cab0ced" x="463.655984" y="367.109202" style="stroke: #000000"/>
     <use xlink:href="#m182cab0ced" x="468.625055" y="90.341665" style="stroke: #000000"/>
     <use xlink:href="#m182cab0ced" x="473.594126" y="367.109202" style="stroke: #000000"/>
     <use xlink:href="#m182cab0ced" x="478.72349" y="367.109202" style="stroke: #000000"/>
     <use xlink:href="#m182cab0ced" x="483.692562" y="90.341665" style="stroke: #000000"/>
     <use xlink:href="#m182cab0ced" x="488.661633" y="367.109202" style="stroke: #000000"/>
     <use xlink:href="#m182cab0ced" x="493.630705" y="90.341665" style="stroke: #000000"/>
     <use xlink:href="#m182cab0ced" x="498.760069" y="367.109202" style="stroke: #000000"/>
     <use xlink:href="#m182cab0ced" x="503.72914" y="367.109202" style="stroke: #000000"/>
     <use xlink:href="#m182cab0ced" x="508.698211" y="90.341665" style="stroke: #000000"/>
     <use xlink:href="#m182cab0ced" x="513.667283" y="367.109202" style="stroke: #000000"/>
     <use xlink:href="#m182cab0ced" x="518.796647" y="367.109202" style="stroke: #000000"/>
     <use xlink:href="#m182cab0ced" x="523.765718" y="90.341665" style="stroke: #000000"/>
     <use xlink:href="#m182cab0ced" x="528.734789" y="367.109202" style="stroke: #000000"/>
     <use xlink:href="#m182cab0ced" x="533.703861" y="90.341665" style="stroke: #000000"/>
     <use xlink:href="#m182cab0ced" x="538.833225" y="367.109202" style="stroke: #000000"/>
     <use xlink:href="#m182cab0ced" x="543.802296" y="367.109202" style="stroke: #000000"/>
     <use xlink:href="#m182cab0ced" x="548.771368" y="90.341665" style="stroke: #000000"/>
     <use xlink:href="#m182cab0ced" x="553.740439" y="367.109202" style="stroke: #000000"/>
     <use xlink:href="#m182cab0ced" x="558.869803" y="367.109202" style="stroke: #000000"/>
     <use xlink:href="#m182cab0ced" x="563.838874" y="90.341665" style="stroke: #000000"/>
     <use xlink:href="#m182cab0ced" x="568.807946" y="367.109202" style="stroke: #000000"/>
     <use xlink:href="#m182cab0ced" x="573.777017" y="90.341665" style="stroke: #000000"/>
     <use xlink:href="#m182cab0ced" x="578.906381" y="367.109202" style="stroke: #000000"/>
     <use xlink:href="#m182cab0ced" x="583.875452" y="367.109202" style="stroke: #000000"/>
     <use xlink:href="#m182cab0ced" x="588.844524" y="90.341665" style="stroke: #000000"/>
     <use xlink:href="#m182cab0ced" x="593.813595" y="367.109202" style="stroke: #000000"/>
     <use xlink:href="#m182cab0ced" x="598.942959" y="367.109202" style="stroke: #000000"/>
     <use xlink:href="#m182cab0ced" x="603.912031" y="90.341665" style="stroke: #000000"/>
     <use xlink:href="#m182cab0ced" x="608.881102" y="367.109202" style="stroke: #000000"/>
     <use xlink:href="#m182cab0ced" x="613.850173" y="90.341665" style="stroke: #000000"/>
     <use xlink:href="#m182cab0ced" x="618.979537" y="367.109202" style="stroke: #000000"/>
     <use xlink:href="#m182cab0ced" x="623.948609" y="367.109202" style="stroke: #000000"/>
     <use xlink:href="#m182cab0ced" x="628.91768" y="90.341665" style="stroke: #000000"/>
     <use xlink:href="#m182cab0ced" x="633.886751" y="367.109202" style="stroke: #000000"/>
     <use xlink:href="#m182cab0ced" x="639.016115" y="367.109202" style="stroke: #000000"/>
     <use xlink:href="#m182cab0ced" x="643.985187" y="90.341665" style="stroke: #000000"/>
     <use xlink:href="#m182cab0ced" x="648.954258" y="367.109202" style="stroke: #000000"/>
     <use xlink:href="#m182cab0ced" x="653.92333" y="90.341665" style="stroke: #000000"/>
     <use xlink:href="#m182cab0ced" x="659.052694" y="367.109202" style="stroke: #000000"/>
     <use xlink:href="#m182cab0ced" x="664.021765" y="367.109202" style="stroke: #000000"/>
     <use xlink:href="#m182cab0ced" x="668.990836" y="90.341665" style="stroke: #000000"/>
     <use xlink:href="#m182cab0ced" x="673.959908" y="367.109202" style="stroke: #000000"/>
     <use xlink:href="#m182cab0ced" x="679.089272" y="367.109202" style="stroke: #000000"/>
     <use xlink:href="#m182cab0ced" x="684.058343" y="90.341665" style="stroke: #000000"/>
     <use xlink:href="#m182cab0ced" x="689.027414" y="367.109202" style="stroke: #000000"/>
     <use xlink:href="#m182cab0ced" x="693.996486" y="90.341665" style="stroke: #000000"/>
     <use xlink:href="#m182cab0ced" x="699.12585" y="367.109202" style="stroke: #000000"/>
     <use xlink:href="#m182cab0ced" x="704.094921" y="367.109202" style="stroke: #000000"/>
     <use xlink:href="#m182cab0ced" x="709.063993" y="90.341665" style="stroke: #000000"/>
     <use xlink:href="#m182cab0ced" x="714.033064" y="367.109202" style="stroke: #000000"/>
     <use xlink:href="#m182cab0ced" x="719.162428" y="367.109202" style="stroke: #000000"/>
     <use xlink:href="#m182cab0ced" x="724.131499" y="90.341665" style="stroke: #000000"/>
     <use xlink:href="#m182cab0ced" x="729.100571" y="367.109202" style="stroke: #000000"/>
     <use xlink:href="#m182cab0ced" x="734.069642" y="90.341665" style="stroke: #000000"/>
     <use xlink:href="#m182cab0ced" x="739.199006" y="367.109202" style="stroke: #000000"/>
     <use xlink:href="#m182cab0ced" x="744.168077" y="367.109202" style="stroke: #000000"/>
     <use xlink:href="#m182cab0ced" x="749.137149" y="90.341665" style="stroke: #000000"/>
     <use xlink:href="#m182cab0ced" x="754.10622" y="367.109202" style="stroke: #000000"/>
     <use xlink:href="#m182cab0ced" x="759.235584" y="367.109202" style="stroke: #000000"/>
     <use xlink:href="#m182cab0ced" x="764.204656" y="90.341665" style="stroke: #000000"/>
     <use xlink:href="#m182cab0ced" x="769.173727" y="367.109202" style="stroke: #000000"/>
     <use xlink:href="#m182cab0ced" x="774.142798" y="90.341665" style="stroke: #000000"/>
     <use xlink:href="#m182cab0ced" x="779.272162" y="367.109202" style="stroke: #000000"/>
     <use xlink:href="#m182cab0ced" x="784.241234" y="367.109202" style="stroke: #000000"/>
     <use xlink:href="#m182cab0ced" x="789.210305" y="90.341665" style="stroke: #000000"/>
     <use xlink:href="#m182cab0ced" x="794.179376" y="367.109202" style="stroke: #000000"/>
     <use xlink:href="#m182cab0ced" x="799.30874" y="367.109202" style="stroke: #000000"/>
     <use xlink:href="#m182cab0ced" x="804.277812" y="90.341665" style="stroke: #000000"/>
     <use xlink:href="#m182cab0ced" x="809.246883" y="367.109202" style="stroke: #000000"/>
     <use xlink:href="#m182cab0ced" x="814.215955" y="90.341665" style="stroke: #000000"/>
     <use xlink:href="#m182cab0ced" x="819.345319" y="367.109202" style="stroke: #000000"/>
     <use xlink:href="#m182cab0ced" x="824.31439" y="367.109202" style="stroke: #000000"/>
     <use xlink:href="#m182cab0ced" x="829.283461" y="90.341665" style="stroke: #000000"/>
     <use xlink:href="#m182cab0ced" x="834.252533" y="367.109202" style="stroke: #000000"/>
     <use xlink:href="#m182cab0ced" x="839.381897" y="367.109202" style="stroke: #000000"/>
     <use xlink:href="#m182cab0ced" x="844.350968" y="90.341665" style="stroke: #000000"/>
     <use xlink:href="#m182cab0ced" x="849.320039" y="367.109202" style="stroke: #000000"/>
     <use xlink:href="#m182cab0ced" x="854.289111" y="90.341665" style="stroke: #000000"/>
     <use xlink:href="#m182cab0ced" x="859.418475" y="367.109202" style="stroke: #000000"/>
     <use xlink:href="#m182cab0ced" x="864.387546" y="367.109202" style="stroke: #000000"/>
     <use xlink:href="#m182cab0ced" x="869.356618" y="90.341665" style="stroke: #000000"/>
     <use xlink:href="#m182cab0ced" x="874.325689" y="367.109202" style="stroke: #000000"/>
     <use xlink:href="#m182cab0ced" x="879.455053" y="367.109202" style="stroke: #000000"/>
     <use xlink:href="#m182cab0ced" x="884.424124" y="90.341665" style="stroke: #000000"/>
     <use xlink:href="#m182cab0ced" x="889.393196" y="367.109202" style="stroke: #000000"/>
     <use xlink:href="#m182cab0ced" x="894.362267" y="90.341665" style="stroke: #000000"/>
     <use xlink:href="#m182cab0ced" x="899.491631" y="367.109202" style="stroke: #000000"/>
     <use xlink:href="#m182cab0ced" x="904.460702" y="367.109202" style="stroke: #000000"/>
     <use xlink:href="#m182cab0ced" x="909.429774" y="90.341665" style="stroke: #000000"/>
     <use xlink:href="#m182cab0ced" x="914.398845" y="367.109202" style="stroke: #000000"/>
     <use xlink:href="#m182cab0ced" x="919.528209" y="367.109202" style="stroke: #000000"/>
     <use xlink:href="#m182cab0ced" x="924.497281" y="90.341665" style="stroke: #000000"/>
     <use xlink:href="#m182cab0ced" x="929.466352" y="367.109202" style="stroke: #000000"/>
    </g>
   </g>
   <g id="patch_3">
    <path d="M 135 448.56 
L 135 60.48 
" style="fill: none; stroke: #000000; stroke-width: 0.8; stroke-linejoin: miter; stroke-linecap: square"/>
   </g>
   <g id="patch_4">
    <path d="M 972 448.56 
L 972 60.48 
" style="fill: none; stroke: #000000; stroke-width: 0.8; stroke-linejoin: miter; stroke-linecap: square"/>
   </g>
   <g id="patch_5">
    <path d="M 135 448.56 
L 972 448.56 
" style="fill: none; stroke: #000000; stroke-width: 0.8; stroke-linejoin: miter; stroke-linecap: square"/>
   </g>
   <g id="patch_6">
    <path d="M 135 60.48 
L 972 60.48 
" style="fill: none; stroke: #000000; stroke-width: 0.8; stroke-linejoin: miter; stroke-linecap: square"/>
   </g>
   <g id="legend_1">
    <g id="patch_7">
     <path d="M 895.915625 443.56 
L 965 443.56 
Q 967 443.56 967 441.56 
L 967 397.969375 
Q 967 395.969375 965 395.969375 
L 895.915625 395.969375 
Q 893.915625 395.969375 893.915625 397.969375 
L 893.915625 441.56 
Q 893.915625 443.56 895.915625 443.56 
z
" style="fill: #ffffff; opacity: 0.8; stroke: #cccccc; stroke-linejoin: miter"/>
    </g>
    <g id="line2d_16">
     <path d="M 897.915625 404.067813 
L 907.915625 404.067813 
L 917.915625 404.067813 
" style="fill: none; stroke: #1f77b4; stroke-width: 1.5; stroke-linecap: square"/>
    </g>
    <g id="text_14">
     <!-- nw_0 -->
     <g transform="translate(925.915625 407.567813) scale(0.1 -0.1)">
      <defs>
       <path id="DejaVuSans-6e" d="M 3513 2113 
L 3513 0 
L 2938 0 
L 2938 2094 
Q 2938 2591 2744 2837 
Q 2550 3084 2163 3084 
Q 1697 3084 1428 2787 
Q 1159 2491 1159 1978 
L 1159 0 
L 581 0 
L 581 3500 
L 1159 3500 
L 1159 2956 
Q 1366 3272 1645 3428 
Q 1925 3584 2291 3584 
Q 2894 3584 3203 3211 
Q 3513 2838 3513 2113 
z
" transform="scale(0.015625)"/>
       <path id="DejaVuSans-77" d="M 269 3500 
L 844 3500 
L 1563 769 
L 2278 3500 
L 2956 3500 
L 3675 769 
L 4391 3500 
L 4966 3500 
L 4050 0 
L 3372 0 
L 2619 2869 
L 1863 0 
L 1184 0 
L 269 3500 
z
" transform="scale(0.015625)"/>
       <path id="DejaVuSans-5f" d="M 3263 -1063 
L 3263 -1509 
L -63 -1509 
L -63 -1063 
L 3263 -1063 
z
" transform="scale(0.015625)"/>
      </defs>
      <use xlink:href="#DejaVuSans-6e"/>
      <use xlink:href="#DejaVuSans-77" x="63.378906"/>
      <use xlink:href="#DejaVuSans-5f" x="145.166016"/>
      <use xlink:href="#DejaVuSans-30" x="195.166016"/>
     </g>
    </g>
    <g id="line2d_17">
     <path d="M 897.915625 419.024063 
L 907.915625 419.024063 
L 917.915625 419.024063 
" style="fill: none; stroke: #ff7f0e; stroke-width: 1.5; stroke-linecap: square"/>
    </g>
    <g id="text_15">
     <!-- input_0 -->
     <g transform="translate(925.915625 422.524063) scale(0.1 -0.1)">
      <defs>
       <path id="DejaVuSans-69" d="M 603 3500 
L 1178 3500 
L 1178 0 
L 603 0 
L 603 3500 
z
M 603 4863 
L 1178 4863 
L 1178 4134 
L 603 4134 
L 603 4863 
z
" transform="scale(0.015625)"/>
       <path id="DejaVuSans-70" d="M 1159 525 
L 1159 -1331 
L 581 -1331 
L 581 3500 
L 1159 3500 
L 1159 2969 
Q 1341 3281 1617 3432 
Q 1894 3584 2278 3584 
Q 2916 3584 3314 3078 
Q 3713 2572 3713 1747 
Q 3713 922 3314 415 
Q 2916 -91 2278 -91 
Q 1894 -91 1617 61 
Q 1341 213 1159 525 
z
M 3116 1747 
Q 3116 2381 2855 2742 
Q 2594 3103 2138 3103 
Q 1681 3103 1420 2742 
Q 1159 2381 1159 1747 
Q 1159 1113 1420 752 
Q 1681 391 2138 391 
Q 2594 391 2855 752 
Q 3116 1113 3116 1747 
z
" transform="scale(0.015625)"/>
       <path id="DejaVuSans-75" d="M 544 1381 
L 544 3500 
L 1119 3500 
L 1119 1403 
Q 1119 906 1312 657 
Q 1506 409 1894 409 
Q 2359 409 2629 706 
Q 2900 1003 2900 1516 
L 2900 3500 
L 3475 3500 
L 3475 0 
L 2900 0 
L 2900 538 
Q 2691 219 2414 64 
Q 2138 -91 1772 -91 
Q 1169 -91 856 284 
Q 544 659 544 1381 
z
M 1991 3584 
L 1991 3584 
z
" transform="scale(0.015625)"/>
      </defs>
      <use xlink:href="#DejaVuSans-69"/>
      <use xlink:href="#DejaVuSans-6e" x="27.783203"/>
      <use xlink:href="#DejaVuSans-70" x="91.162109"/>
      <use xlink:href="#DejaVuSans-75" x="154.638672"/>
      <use xlink:href="#DejaVuSans-74" x="218.017578"/>
      <use xlink:href="#DejaVuSans-5f" x="257.226562"/>
      <use xlink:href="#DejaVuSans-30" x="307.226562"/>
     </g>
    </g>
    <g id="line2d_18">
     <path d="M 897.915625 433.980312 
L 907.915625 433.980312 
L 917.915625 433.980312 
" style="fill: none; stroke: #000000; stroke-width: 1.5; stroke-linecap: square"/>
     <g>
      <use xlink:href="#m182cab0ced" x="907.915625" y="433.980312" style="stroke: #000000"/>
     </g>
    </g>
    <g id="text_16">
     <!-- target -->
     <g transform="translate(925.915625 437.480312) scale(0.1 -0.1)">
      <defs>
       <path id="DejaVuSans-61" d="M 2194 1759 
Q 1497 1759 1228 1600 
Q 959 1441 959 1056 
Q 959 750 1161 570 
Q 1363 391 1709 391 
Q 2188 391 2477 730 
Q 2766 1069 2766 1631 
L 2766 1759 
L 2194 1759 
z
M 3341 1997 
L 3341 0 
L 2766 0 
L 2766 531 
Q 2569 213 2275 61 
Q 1981 -91 1556 -91 
Q 1019 -91 701 211 
Q 384 513 384 1019 
Q 384 1609 779 1909 
Q 1175 2209 1959 2209 
L 2766 2209 
L 2766 2266 
Q 2766 2663 2505 2880 
Q 2244 3097 1772 3097 
Q 1472 3097 1187 3025 
Q 903 2953 641 2809 
L 641 3341 
Q 956 3463 1253 3523 
Q 1550 3584 1831 3584 
Q 2591 3584 2966 3190 
Q 3341 2797 3341 1997 
z
" transform="scale(0.015625)"/>
       <path id="DejaVuSans-72" d="M 2631 2963 
Q 2534 3019 2420 3045 
Q 2306 3072 2169 3072 
Q 1681 3072 1420 2755 
Q 1159 2438 1159 1844 
L 1159 0 
L 581 0 
L 581 3500 
L 1159 3500 
L 1159 2956 
Q 1341 3275 1631 3429 
Q 1922 3584 2338 3584 
Q 2397 3584 2469 3576 
Q 2541 3569 2628 3553 
L 2631 2963 
z
" transform="scale(0.015625)"/>
       <path id="DejaVuSans-67" d="M 2906 1791 
Q 2906 2416 2648 2759 
Q 2391 3103 1925 3103 
Q 1463 3103 1205 2759 
Q 947 2416 947 1791 
Q 947 1169 1205 825 
Q 1463 481 1925 481 
Q 2391 481 2648 825 
Q 2906 1169 2906 1791 
z
M 3481 434 
Q 3481 -459 3084 -895 
Q 2688 -1331 1869 -1331 
Q 1566 -1331 1297 -1286 
Q 1028 -1241 775 -1147 
L 775 -588 
Q 1028 -725 1275 -790 
Q 1522 -856 1778 -856 
Q 2344 -856 2625 -561 
Q 2906 -266 2906 331 
L 2906 616 
Q 2728 306 2450 153 
Q 2172 0 1784 0 
Q 1141 0 747 490 
Q 353 981 353 1791 
Q 353 2603 747 3093 
Q 1141 3584 1784 3584 
Q 2172 3584 2450 3431 
Q 2728 3278 2906 2969 
L 2906 3500 
L 3481 3500 
L 3481 434 
z
" transform="scale(0.015625)"/>
       <path id="DejaVuSans-65" d="M 3597 1894 
L 3597 1613 
L 953 1613 
Q 991 1019 1311 708 
Q 1631 397 2203 397 
Q 2534 397 2845 478 
Q 3156 559 3463 722 
L 3463 178 
Q 3153 47 2828 -22 
Q 2503 -91 2169 -91 
Q 1331 -91 842 396 
Q 353 884 353 1716 
Q 353 2575 817 3079 
Q 1281 3584 2069 3584 
Q 2775 3584 3186 3129 
Q 3597 2675 3597 1894 
z
M 3022 2063 
Q 3016 2534 2758 2815 
Q 2500 3097 2075 3097 
Q 1594 3097 1305 2825 
Q 1016 2553 972 2059 
L 3022 2063 
z
" transform="scale(0.015625)"/>
      </defs>
      <use xlink:href="#DejaVuSans-74"/>
      <use xlink:href="#DejaVuSans-61" x="39.208984"/>
      <use xlink:href="#DejaVuSans-72" x="100.488281"/>
      <use xlink:href="#DejaVuSans-67" x="139.851562"/>
      <use xlink:href="#DejaVuSans-65" x="203.328125"/>
      <use xlink:href="#DejaVuSans-74" x="264.851562"/>
     </g>
    </g>
   </g>
  </g>
 </g>
 <defs>
  <clipPath id="p46e654c843">
   <rect x="135" y="60.48" width="837" height="388.08"/>
  </clipPath>
 </defs>
</svg>
