<?xml version="1.0" encoding="utf-8" standalone="no"?>
<!DOCTYPE svg PUBLIC "-//W3C//DTD SVG 1.1//EN"
  "http://www.w3.org/Graphics/SVG/1.1/DTD/svg11.dtd">
<svg xmlns:xlink="http://www.w3.org/1999/xlink" width="1080pt" height="504pt" viewBox="0 0 1080 504" xmlns="http://www.w3.org/2000/svg" version="1.1">
 <metadata>
  <rdf:RDF xmlns:dc="http://purl.org/dc/elements/1.1/" xmlns:cc="http://creativecommons.org/ns#" xmlns:rdf="http://www.w3.org/1999/02/22-rdf-syntax-ns#">
   <cc:Work>
    <dc:type rdf:resource="http://purl.org/dc/dcmitype/StillImage"/>
    <dc:date>2024-05-09T11:39:52.872425</dc:date>
    <dc:format>image/svg+xml</dc:format>
    <dc:creator>
     <cc:Agent>
      <dc:title>Matplotlib v3.7.1, https://matplotlib.org/</dc:title>
     </cc:Agent>
    </dc:creator>
   </cc:Work>
  </rdf:RDF>
 </metadata>
 <defs>
  <style type="text/css">*{stroke-linejoin: round; stroke-linecap: butt}</style>
 </defs>
 <g id="figure_1">
  <g id="patch_1">
   <path d="M 0 504 
L 1080 504 
L 1080 0 
L 0 0 
z
" style="fill: #ffffff"/>
  </g>
  <g id="axes_1">
   <g id="patch_2">
    <path d="M 135 448.56 
L 972 448.56 
L 972 60.48 
L 135 60.48 
z
" style="fill: #ffffff"/>
   </g>
   <g id="matplotlib.axis_1">
    <g id="xtick_1">
     <g id="line2d_1">
      <defs>
       <path id="mf96a973de1" d="M 0 0 
L 0 3.5 
" style="stroke: #000000; stroke-width: 0.8"/>
      </defs>
      <g>
       <use xlink:href="#mf96a973de1" x="173.045455" y="448.56" style="stroke: #000000; stroke-width: 0.8"/>
      </g>
     </g>
     <g id="text_1">
      <!-- 0 -->
      <g transform="translate(169.864205 463.158437) scale(0.1 -0.1)">
       <defs>
        <path id="DejaVuSans-30" d="M 2034 4250 
Q 1547 4250 1301 3770 
Q 1056 3291 1056 2328 
Q 1056 1369 1301 889 
Q 1547 409 2034 409 
Q 2525 409 2770 889 
Q 3016 1369 3016 2328 
Q 3016 3291 2770 3770 
Q 2525 4250 2034 4250 
z
M 2034 4750 
Q 2819 4750 3233 4129 
Q 3647 3509 3647 2328 
Q 3647 1150 3233 529 
Q 2819 -91 2034 -91 
Q 1250 -91 836 529 
Q 422 1150 422 2328 
Q 422 3509 836 4129 
Q 1250 4750 2034 4750 
z
" transform="scale(0.015625)"/>
       </defs>
       <use xlink:href="#DejaVuSans-30"/>
      </g>
     </g>
    </g>
    <g id="xtick_2">
     <g id="line2d_2">
      <g>
       <use xlink:href="#mf96a973de1" x="333.33808" y="448.56" style="stroke: #000000; stroke-width: 0.8"/>
      </g>
     </g>
     <g id="text_2">
      <!-- 1000 -->
      <g transform="translate(320.61308 463.158437) scale(0.1 -0.1)">
       <defs>
        <path id="DejaVuSans-31" d="M 794 531 
L 1825 531 
L 1825 4091 
L 703 3866 
L 703 4441 
L 1819 4666 
L 2450 4666 
L 2450 531 
L 3481 531 
L 3481 0 
L 794 0 
L 794 531 
z
" transform="scale(0.015625)"/>
       </defs>
       <use xlink:href="#DejaVuSans-31"/>
       <use xlink:href="#DejaVuSans-30" x="63.623047"/>
       <use xlink:href="#DejaVuSans-30" x="127.246094"/>
       <use xlink:href="#DejaVuSans-30" x="190.869141"/>
      </g>
     </g>
    </g>
    <g id="xtick_3">
     <g id="line2d_3">
      <g>
       <use xlink:href="#mf96a973de1" x="493.630705" y="448.56" style="stroke: #000000; stroke-width: 0.8"/>
      </g>
     </g>
     <g id="text_3">
      <!-- 2000 -->
      <g transform="translate(480.905705 463.158437) scale(0.1 -0.1)">
       <defs>
        <path id="DejaVuSans-32" d="M 1228 531 
L 3431 531 
L 3431 0 
L 469 0 
L 469 531 
Q 828 903 1448 1529 
Q 2069 2156 2228 2338 
Q 2531 2678 2651 2914 
Q 2772 3150 2772 3378 
Q 2772 3750 2511 3984 
Q 2250 4219 1831 4219 
Q 1534 4219 1204 4116 
Q 875 4013 500 3803 
L 500 4441 
Q 881 4594 1212 4672 
Q 1544 4750 1819 4750 
Q 2544 4750 2975 4387 
Q 3406 4025 3406 3419 
Q 3406 3131 3298 2873 
Q 3191 2616 2906 2266 
Q 2828 2175 2409 1742 
Q 1991 1309 1228 531 
z
" transform="scale(0.015625)"/>
       </defs>
       <use xlink:href="#DejaVuSans-32"/>
       <use xlink:href="#DejaVuSans-30" x="63.623047"/>
       <use xlink:href="#DejaVuSans-30" x="127.246094"/>
       <use xlink:href="#DejaVuSans-30" x="190.869141"/>
      </g>
     </g>
    </g>
    <g id="xtick_4">
     <g id="line2d_4">
      <g>
       <use xlink:href="#mf96a973de1" x="653.92333" y="448.56" style="stroke: #000000; stroke-width: 0.8"/>
      </g>
     </g>
     <g id="text_4">
      <!-- 3000 -->
      <g transform="translate(641.19833 463.158437) scale(0.1 -0.1)">
       <defs>
        <path id="DejaVuSans-33" d="M 2597 2516 
Q 3050 2419 3304 2112 
Q 3559 1806 3559 1356 
Q 3559 666 3084 287 
Q 2609 -91 1734 -91 
Q 1441 -91 1130 -33 
Q 819 25 488 141 
L 488 750 
Q 750 597 1062 519 
Q 1375 441 1716 441 
Q 2309 441 2620 675 
Q 2931 909 2931 1356 
Q 2931 1769 2642 2001 
Q 2353 2234 1838 2234 
L 1294 2234 
L 1294 2753 
L 1863 2753 
Q 2328 2753 2575 2939 
Q 2822 3125 2822 3475 
Q 2822 3834 2567 4026 
Q 2313 4219 1838 4219 
Q 1578 4219 1281 4162 
Q 984 4106 628 3988 
L 628 4550 
Q 988 4650 1302 4700 
Q 1616 4750 1894 4750 
Q 2613 4750 3031 4423 
Q 3450 4097 3450 3541 
Q 3450 3153 3228 2886 
Q 3006 2619 2597 2516 
z
" transform="scale(0.015625)"/>
       </defs>
       <use xlink:href="#DejaVuSans-33"/>
       <use xlink:href="#DejaVuSans-30" x="63.623047"/>
       <use xlink:href="#DejaVuSans-30" x="127.246094"/>
       <use xlink:href="#DejaVuSans-30" x="190.869141"/>
      </g>
     </g>
    </g>
    <g id="xtick_5">
     <g id="line2d_5">
      <g>
       <use xlink:href="#mf96a973de1" x="814.215955" y="448.56" style="stroke: #000000; stroke-width: 0.8"/>
      </g>
     </g>
     <g id="text_5">
      <!-- 4000 -->
      <g transform="translate(801.490955 463.158437) scale(0.1 -0.1)">
       <defs>
        <path id="DejaVuSans-34" d="M 2419 4116 
L 825 1625 
L 2419 1625 
L 2419 4116 
z
M 2253 4666 
L 3047 4666 
L 3047 1625 
L 3713 1625 
L 3713 1100 
L 3047 1100 
L 3047 0 
L 2419 0 
L 2419 1100 
L 313 1100 
L 313 1709 
L 2253 4666 
z
" transform="scale(0.015625)"/>
       </defs>
       <use xlink:href="#DejaVuSans-34"/>
       <use xlink:href="#DejaVuSans-30" x="63.623047"/>
       <use xlink:href="#DejaVuSans-30" x="127.246094"/>
       <use xlink:href="#DejaVuSans-30" x="190.869141"/>
      </g>
     </g>
    </g>
    <g id="text_6">
     <!-- t -->
     <g transform="translate(551.539844 476.836563) scale(0.1 -0.1)">
      <defs>
       <path id="DejaVuSans-74" d="M 1172 4494 
L 1172 3500 
L 2356 3500 
L 2356 3053 
L 1172 3053 
L 1172 1153 
Q 1172 725 1289 603 
Q 1406 481 1766 481 
L 2356 481 
L 2356 0 
L 1766 0 
Q 1100 0 847 248 
Q 594 497 594 1153 
L 594 3053 
L 172 3053 
L 172 3500 
L 594 3500 
L 594 4494 
L 1172 4494 
z
" transform="scale(0.015625)"/>
      </defs>
      <use xlink:href="#DejaVuSans-74"/>
     </g>
    </g>
   </g>
   <g id="matplotlib.axis_2">
    <g id="ytick_1">
     <g id="line2d_6">
      <defs>
       <path id="m566e83e4d3" d="M 0 0 
L -3.5 0 
" style="stroke: #000000; stroke-width: 0.8"/>
      </defs>
      <g>
       <use xlink:href="#m566e83e4d3" x="135" y="417.374132" style="stroke: #000000; stroke-width: 0.8"/>
      </g>
     </g>
     <g id="text_7">
      <!-- 0.0 -->
      <g transform="translate(112.096875 421.173351) scale(0.1 -0.1)">
       <defs>
        <path id="DejaVuSans-2e" d="M 684 794 
L 1344 794 
L 1344 0 
L 684 0 
L 684 794 
z
" transform="scale(0.015625)"/>
       </defs>
       <use xlink:href="#DejaVuSans-30"/>
       <use xlink:href="#DejaVuSans-2e" x="63.623047"/>
       <use xlink:href="#DejaVuSans-30" x="95.410156"/>
      </g>
     </g>
    </g>
    <g id="ytick_2">
     <g id="line2d_7">
      <g>
       <use xlink:href="#m566e83e4d3" x="135" y="349.523305" style="stroke: #000000; stroke-width: 0.8"/>
      </g>
     </g>
     <g id="text_8">
      <!-- 0.2 -->
      <g transform="translate(112.096875 353.322524) scale(0.1 -0.1)">
       <use xlink:href="#DejaVuSans-30"/>
       <use xlink:href="#DejaVuSans-2e" x="63.623047"/>
       <use xlink:href="#DejaVuSans-32" x="95.410156"/>
      </g>
     </g>
    </g>
    <g id="ytick_3">
     <g id="line2d_8">
      <g>
       <use xlink:href="#m566e83e4d3" x="135" y="281.672479" style="stroke: #000000; stroke-width: 0.8"/>
      </g>
     </g>
     <g id="text_9">
      <!-- 0.4 -->
      <g transform="translate(112.096875 285.471698) scale(0.1 -0.1)">
       <use xlink:href="#DejaVuSans-30"/>
       <use xlink:href="#DejaVuSans-2e" x="63.623047"/>
       <use xlink:href="#DejaVuSans-34" x="95.410156"/>
      </g>
     </g>
    </g>
    <g id="ytick_4">
     <g id="line2d_9">
      <g>
       <use xlink:href="#m566e83e4d3" x="135" y="213.821653" style="stroke: #000000; stroke-width: 0.8"/>
      </g>
     </g>
     <g id="text_10">
      <!-- 0.6 -->
      <g transform="translate(112.096875 217.620871) scale(0.1 -0.1)">
       <defs>
        <path id="DejaVuSans-36" d="M 2113 2584 
Q 1688 2584 1439 2293 
Q 1191 2003 1191 1497 
Q 1191 994 1439 701 
Q 1688 409 2113 409 
Q 2538 409 2786 701 
Q 3034 994 3034 1497 
Q 3034 2003 2786 2293 
Q 2538 2584 2113 2584 
z
M 3366 4563 
L 3366 3988 
Q 3128 4100 2886 4159 
Q 2644 4219 2406 4219 
Q 1781 4219 1451 3797 
Q 1122 3375 1075 2522 
Q 1259 2794 1537 2939 
Q 1816 3084 2150 3084 
Q 2853 3084 3261 2657 
Q 3669 2231 3669 1497 
Q 3669 778 3244 343 
Q 2819 -91 2113 -91 
Q 1303 -91 875 529 
Q 447 1150 447 2328 
Q 447 3434 972 4092 
Q 1497 4750 2381 4750 
Q 2619 4750 2861 4703 
Q 3103 4656 3366 4563 
z
" transform="scale(0.015625)"/>
       </defs>
       <use xlink:href="#DejaVuSans-30"/>
       <use xlink:href="#DejaVuSans-2e" x="63.623047"/>
       <use xlink:href="#DejaVuSans-36" x="95.410156"/>
      </g>
     </g>
    </g>
    <g id="ytick_5">
     <g id="line2d_10">
      <g>
       <use xlink:href="#m566e83e4d3" x="135" y="145.970826" style="stroke: #000000; stroke-width: 0.8"/>
      </g>
     </g>
     <g id="text_11">
      <!-- 0.8 -->
      <g transform="translate(112.096875 149.770045) scale(0.1 -0.1)">
       <defs>
        <path id="DejaVuSans-38" d="M 2034 2216 
Q 1584 2216 1326 1975 
Q 1069 1734 1069 1313 
Q 1069 891 1326 650 
Q 1584 409 2034 409 
Q 2484 409 2743 651 
Q 3003 894 3003 1313 
Q 3003 1734 2745 1975 
Q 2488 2216 2034 2216 
z
M 1403 2484 
Q 997 2584 770 2862 
Q 544 3141 544 3541 
Q 544 4100 942 4425 
Q 1341 4750 2034 4750 
Q 2731 4750 3128 4425 
Q 3525 4100 3525 3541 
Q 3525 3141 3298 2862 
Q 3072 2584 2669 2484 
Q 3125 2378 3379 2068 
Q 3634 1759 3634 1313 
Q 3634 634 3220 271 
Q 2806 -91 2034 -91 
Q 1263 -91 848 271 
Q 434 634 434 1313 
Q 434 1759 690 2068 
Q 947 2378 1403 2484 
z
M 1172 3481 
Q 1172 3119 1398 2916 
Q 1625 2713 2034 2713 
Q 2441 2713 2670 2916 
Q 2900 3119 2900 3481 
Q 2900 3844 2670 4047 
Q 2441 4250 2034 4250 
Q 1625 4250 1398 4047 
Q 1172 3844 1172 3481 
z
" transform="scale(0.015625)"/>
       </defs>
       <use xlink:href="#DejaVuSans-30"/>
       <use xlink:href="#DejaVuSans-2e" x="63.623047"/>
       <use xlink:href="#DejaVuSans-38" x="95.410156"/>
      </g>
     </g>
    </g>
    <g id="ytick_6">
     <g id="line2d_11">
      <g>
       <use xlink:href="#m566e83e4d3" x="135" y="78.12" style="stroke: #000000; stroke-width: 0.8"/>
      </g>
     </g>
     <g id="text_12">
      <!-- 1.0 -->
      <g transform="translate(112.096875 81.919219) scale(0.1 -0.1)">
       <use xlink:href="#DejaVuSans-31"/>
       <use xlink:href="#DejaVuSans-2e" x="63.623047"/>
       <use xlink:href="#DejaVuSans-30" x="95.410156"/>
      </g>
     </g>
    </g>
   </g>
   <g id="line2d_12">
    <path d="M 173.045455 161.84264 
L 173.205747 117.562133 
L 173.686625 176.44473 
L 173.846918 171.302237 
L 174.648381 98.662295 
L 174.808673 95.126386 
L 174.968966 95.297959 
L 175.289551 101.79855 
L 175.770429 112.535267 
L 176.091014 115.101805 
L 176.251307 114.846692 
L 176.571892 111.884345 
L 177.05277 103.405343 
L 177.693941 88.416071 
L 178.014526 395.152436 
L 178.174819 402.929684 
L 178.495404 391.378372 
L 178.655696 395.289345 
L 179.296867 429.56476 
L 179.45716 430.92 
L 179.617452 428.802808 
L 180.09833 412.738786 
L 180.418915 403.548672 
L 180.739501 399.436389 
L 180.899793 399.126973 
L 181.060086 399.667444 
L 181.380671 402.253517 
L 182.182134 409.572729 
L 182.663012 412.209479 
L 182.983597 413.190624 
L 183.304183 413.548557 
L 183.464475 413.479692 
L 183.78506 412.822585 
L 184.105646 411.483258 
L 184.586524 408.402033 
L 186.18945 396.95731 
L 186.670328 395.46456 
L 186.990913 395.184261 
L 187.151206 395.246554 
L 187.471791 395.735199 
L 187.952669 397.219833 
L 188.593839 400.117495 
L 190.677643 410.127436 
L 191.479106 412.754602 
L 192.28057 414.588452 
L 193.082033 415.784496 
L 193.883496 416.520058 
L 194.684959 416.948155 
L 195.646715 417.214651 
L 197.089348 417.359731 
L 200.295201 417.381013 
L 213.278903 417.37414 
L 213.439196 161.842648 
L 213.599489 117.562141 
L 214.080367 176.444737 
L 214.240659 171.302244 
L 215.042122 98.6623 
L 215.202415 95.12639 
L 215.362708 95.297963 
L 215.683293 101.798554 
L 216.164171 112.535269 
L 216.484756 115.101808 
L 216.645049 114.846694 
L 216.965634 111.884346 
L 217.446512 103.405344 
L 218.087682 88.416071 
L 218.408267 395.152436 
L 218.56856 402.929684 
L 218.889145 391.378372 
L 219.049438 395.289345 
L 219.690608 429.56476 
L 219.850901 430.92 
L 220.011194 428.802808 
L 220.492072 412.738786 
L 220.812657 403.548672 
L 221.133242 399.436389 
L 221.293535 399.126973 
L 221.453827 399.667443 
L 221.774413 402.253517 
L 222.575876 409.572729 
L 223.056754 412.209479 
L 223.377339 413.190624 
L 223.697924 413.548557 
L 223.858217 413.479692 
L 224.178802 412.822585 
L 224.499387 411.483258 
L 224.980265 408.402033 
L 226.583191 396.95731 
L 227.064069 395.46456 
L 227.384654 395.184261 
L 227.544947 395.246554 
L 227.865532 395.735199 
L 228.34641 397.219833 
L 228.987581 400.117495 
L 231.071385 410.127436 
L 231.872848 412.754602 
L 232.674311 414.588452 
L 233.475774 415.784496 
L 234.277237 416.520058 
L 235.0787 416.948155 
L 236.040456 417.214651 
L 237.48309 417.359731 
L 240.688942 417.381013 
L 253.99323 417.374141 
L 254.153523 161.842648 
L 254.313815 117.562141 
L 254.794693 176.444737 
L 254.954986 171.302244 
L 255.756449 98.662299 
L 255.916742 95.12639 
L 256.077034 95.297962 
L 256.39762 101.798553 
L 256.878497 112.535269 
L 257.199083 115.101807 
L 257.359375 114.846693 
L 257.679961 111.884346 
L 258.160838 103.405344 
L 258.802009 88.416071 
L 259.122594 395.152436 
L 259.282887 402.929684 
L 259.603472 391.378372 
L 259.763765 395.289345 
L 260.404935 429.56476 
L 260.565228 430.92 
L 260.72552 428.802808 
L 261.206398 412.738786 
L 261.526984 403.548672 
L 261.847569 399.436389 
L 262.007861 399.126973 
L 262.168154 399.667443 
L 262.488739 402.253517 
L 263.290202 409.572729 
L 263.77108 412.209479 
L 264.091666 413.190624 
L 264.412251 413.548557 
L 264.572543 413.479692 
L 264.893129 412.822585 
L 265.213714 411.483258 
L 265.694592 408.402033 
L 267.297518 396.95731 
L 267.778396 395.46456 
L 268.098981 395.184261 
L 268.259274 395.246554 
L 268.579859 395.735199 
L 269.060737 397.219833 
L 269.701907 400.117495 
L 271.785712 410.127436 
L 272.587175 412.754602 
L 273.388638 414.588452 
L 274.190101 415.784496 
L 274.991564 416.520058 
L 275.793027 416.948155 
L 276.754783 417.214651 
L 278.197417 417.359731 
L 281.403269 417.381013 
L 293.585509 417.374136 
L 293.745801 161.842645 
L 293.906094 117.562139 
L 294.386972 176.444737 
L 294.547264 171.302244 
L 295.348727 98.662301 
L 295.50902 95.126391 
L 295.669313 95.297964 
L 295.989898 101.798555 
L 296.470776 112.53527 
L 296.791361 115.101809 
L 296.951654 114.846695 
L 297.272239 111.884347 
L 297.753117 103.405344 
L 298.394287 88.416072 
L 298.714873 395.152437 
L 298.875165 402.929685 
L 299.19575 391.378372 
L 299.356043 395.289345 
L 299.997214 429.56476 
L 300.157506 430.92 
L 300.317799 428.802808 
L 300.798677 412.738786 
L 301.119262 403.548672 
L 301.439847 399.436389 
L 301.60014 399.126973 
L 301.760432 399.667443 
L 302.081018 402.253517 
L 302.882481 409.572729 
L 303.363359 412.209479 
L 303.683944 413.190624 
L 304.004529 413.548557 
L 304.164822 413.479692 
L 304.485407 412.822585 
L 304.805992 411.483258 
L 305.28687 408.402033 
L 306.889796 396.95731 
L 307.370674 395.46456 
L 307.69126 395.184261 
L 307.851552 395.246554 
L 308.172137 395.735199 
L 308.653015 397.219833 
L 309.294186 400.117495 
L 311.37799 410.127436 
L 312.179453 412.754602 
L 312.980916 414.588452 
L 313.782379 415.784496 
L 314.583842 416.520058 
L 315.385306 416.948155 
L 316.347061 417.214651 
L 317.789695 417.359731 
L 320.995547 417.381013 
L 333.818957 417.37414 
L 333.97925 161.842648 
L 334.139543 117.562141 
L 334.620421 176.444737 
L 334.780713 171.302245 
L 335.582176 98.6623 
L 335.742469 95.126391 
L 335.902762 95.297963 
L 336.223347 101.798554 
L 336.704225 112.535269 
L 337.02481 115.101808 
L 337.185103 114.846694 
L 337.505688 111.884347 
L 337.986566 103.405344 
L 338.627736 88.416072 
L 338.948321 395.152436 
L 339.108614 402.929684 
L 339.429199 391.378372 
L 339.589492 395.289345 
L 340.230662 429.56476 
L 340.390955 430.92 
L 340.551248 428.802808 
L 341.032126 412.738786 
L 341.352711 403.548672 
L 341.673296 399.436389 
L 341.833589 399.126973 
L 341.993881 399.667443 
L 342.314467 402.253517 
L 343.11593 409.572729 
L 343.596808 412.209479 
L 343.917393 413.190624 
L 344.237978 413.548557 
L 344.398271 413.479692 
L 344.718856 412.822585 
L 345.039441 411.483258 
L 345.520319 408.402033 
L 347.123245 396.95731 
L 347.604123 395.46456 
L 347.924708 395.184261 
L 348.085001 395.246554 
L 348.405586 395.735199 
L 348.886464 397.219833 
L 349.527635 400.117495 
L 351.611439 410.127436 
L 352.412902 412.754602 
L 353.214365 414.588452 
L 354.015828 415.784496 
L 354.817291 416.520058 
L 355.618754 416.948155 
L 356.58051 417.214651 
L 358.023144 417.359731 
L 361.228996 417.381013 
L 373.090651 417.374132 
L 373.250943 161.842642 
L 373.411236 117.562136 
L 373.892114 176.444736 
L 374.052406 171.302244 
L 374.853869 98.662301 
L 375.014162 95.126391 
L 375.174455 95.297964 
L 375.49504 101.798555 
L 375.975918 112.535271 
L 376.296503 115.101809 
L 376.456796 114.846695 
L 376.777381 111.884348 
L 377.258259 103.405345 
L 377.899429 88.416072 
L 378.220015 395.152437 
L 378.380307 402.929685 
L 378.700892 391.378373 
L 378.861185 395.289345 
L 379.502356 429.56476 
L 379.662648 430.92 
L 379.822941 428.802808 
L 380.303819 412.738786 
L 380.624404 403.548672 
L 380.944989 399.436389 
L 381.105282 399.126973 
L 381.265574 399.667443 
L 381.58616 402.253517 
L 382.387623 409.572729 
L 382.868501 412.209479 
L 383.189086 413.190624 
L 383.509671 413.548557 
L 383.669964 413.479692 
L 383.990549 412.822585 
L 384.311134 411.483258 
L 384.792012 408.402033 
L 386.394938 396.95731 
L 386.875816 395.46456 
L 387.196402 395.184261 
L 387.356694 395.246554 
L 387.677279 395.735199 
L 388.158157 397.219833 
L 388.799328 400.117495 
L 390.883132 410.127436 
L 391.684595 412.754602 
L 392.486058 414.588452 
L 393.287521 415.784496 
L 394.088984 416.520058 
L 394.890448 416.948155 
L 395.852203 417.214651 
L 397.294837 417.359731 
L 400.500689 417.381013 
L 413.644685 417.374141 
L 413.804977 161.842648 
L 413.96527 117.562141 
L 414.446148 176.444737 
L 414.60644 171.302244 
L 415.407904 98.662299 
L 415.568196 95.12639 
L 415.728489 95.297963 
L 416.049074 101.798553 
L 416.529952 112.535269 
L 416.850537 115.101807 
L 417.01083 114.846694 
L 417.331415 111.884346 
L 417.812293 103.405344 
L 418.453463 88.416071 
L 418.774049 395.152436 
L 418.934341 402.929684 
L 419.254927 391.378372 
L 419.415219 395.289345 
L 420.05639 429.56476 
L 420.216682 430.92 
L 420.376975 428.802808 
L 420.857853 412.738786 
L 421.178438 403.548672 
L 421.499023 399.436389 
L 421.659316 399.126973 
L 421.819609 399.667443 
L 422.140194 402.253517 
L 422.941657 409.572729 
L 423.422535 412.209479 
L 423.74312 413.190624 
L 424.063705 413.548557 
L 424.223998 413.479692 
L 424.544583 412.822585 
L 424.865168 411.483258 
L 425.346046 408.402033 
L 426.948973 396.95731 
L 427.42985 395.46456 
L 427.750436 395.184261 
L 427.910728 395.246554 
L 428.231314 395.735199 
L 428.712191 397.219833 
L 429.353362 400.117495 
L 431.437166 410.127436 
L 432.238629 412.754602 
L 433.040092 414.588452 
L 433.841555 415.784496 
L 434.643019 416.520058 
L 435.444482 416.948155 
L 436.406237 417.214651 
L 437.848871 417.359731 
L 441.054724 417.381013 
L 453.557548 417.374138 
L 453.717841 161.842647 
L 453.878134 117.56214 
L 454.359011 176.444737 
L 454.519304 171.302245 
L 455.320767 98.6623 
L 455.48106 95.126391 
L 455.641352 95.297964 
L 455.961938 101.798554 
L 456.442816 112.53527 
L 456.763401 115.101808 
L 456.923693 114.846694 
L 457.244279 111.884347 
L 457.725157 103.405344 
L 458.366327 88.416072 
L 458.686912 395.152436 
L 458.847205 402.929684 
L 459.16779 391.378372 
L 459.328083 395.289345 
L 459.969253 429.56476 
L 460.129546 430.92 
L 460.289839 428.802808 
L 460.770716 412.738786 
L 461.091302 403.548672 
L 461.411887 399.436389 
L 461.57218 399.126973 
L 461.732472 399.667443 
L 462.053057 402.253517 
L 462.854521 409.572729 
L 463.335398 412.209479 
L 463.655984 413.190624 
L 463.976569 413.548557 
L 464.136862 413.479692 
L 464.457447 412.822585 
L 464.778032 411.483258 
L 465.25891 408.402033 
L 466.861836 396.95731 
L 467.342714 395.46456 
L 467.663299 395.184261 
L 467.823592 395.246554 
L 468.144177 395.735199 
L 468.625055 397.219833 
L 469.266226 400.117495 
L 471.35003 410.127436 
L 472.151493 412.754602 
L 472.952956 414.588452 
L 473.754419 415.784496 
L 474.555882 416.520058 
L 475.357345 416.948155 
L 476.319101 417.214651 
L 477.761735 417.359731 
L 480.967587 417.381013 
L 493.630705 417.374139 
L 493.790997 161.842647 
L 493.95129 117.562141 
L 494.432168 176.444737 
L 494.59246 171.302245 
L 495.393923 98.6623 
L 495.554216 95.126391 
L 495.714509 95.297963 
L 496.035094 101.798554 
L 496.515972 112.53527 
L 496.836557 115.101808 
L 496.99685 114.846694 
L 497.317435 111.884347 
L 497.798313 103.405344 
L 498.439483 88.416072 
L 498.760069 395.152436 
L 498.920361 402.929684 
L 499.240946 391.378372 
L 499.401239 395.289345 
L 500.04241 429.56476 
L 500.202702 430.92 
L 500.362995 428.802808 
L 500.843873 412.738786 
L 501.164458 403.548672 
L 501.485043 399.436389 
L 501.645336 399.126973 
L 501.805628 399.667443 
L 502.126214 402.253517 
L 502.927677 409.572729 
L 503.408555 412.209479 
L 503.72914 413.190624 
L 504.049725 413.548557 
L 504.210018 413.479692 
L 504.530603 412.822585 
L 504.851188 411.483258 
L 505.332066 408.402033 
L 506.934992 396.95731 
L 507.41587 395.46456 
L 507.736456 395.184261 
L 507.896748 395.246554 
L 508.217333 395.735199 
L 508.698211 397.219833 
L 509.339382 400.117495 
L 511.423186 410.127436 
L 512.224649 412.754602 
L 513.026112 414.588452 
L 513.827575 415.784496 
L 514.629038 416.520058 
L 515.430502 416.948155 
L 516.392257 417.214651 
L 517.834891 417.359731 
L 521.040743 417.381013 
L 533.864153 417.37414 
L 534.024446 161.842648 
L 534.184739 117.562141 
L 534.665617 176.444737 
L 534.825909 171.302245 
L 535.627372 98.6623 
L 535.787665 95.126391 
L 535.947958 95.297963 
L 536.268543 101.798554 
L 536.749421 112.535269 
L 537.070006 115.101808 
L 537.230299 114.846694 
L 537.550884 111.884347 
L 538.031762 103.405344 
L 538.672932 88.416072 
L 538.993517 395.152436 
L 539.15381 402.929684 
L 539.474395 391.378372 
L 539.634688 395.289345 
L 540.275858 429.56476 
L 540.436151 430.92 
L 540.596444 428.802808 
L 541.077322 412.738786 
L 541.397907 403.548672 
L 541.718492 399.436389 
L 541.878785 399.126973 
L 542.039077 399.667443 
L 542.359663 402.253517 
L 543.161126 409.572729 
L 543.642004 412.209479 
L 543.962589 413.190624 
L 544.283174 413.548557 
L 544.443467 413.479692 
L 544.764052 412.822585 
L 545.084637 411.483258 
L 545.565515 408.402033 
L 547.168441 396.95731 
L 547.649319 395.46456 
L 547.969904 395.184261 
L 548.130197 395.246554 
L 548.450782 395.735199 
L 548.93166 397.219833 
L 549.572831 400.117495 
L 551.656635 410.127436 
L 552.458098 412.754602 
L 553.259561 414.588452 
L 554.061024 415.784496 
L 554.862487 416.520058 
L 555.66395 416.948155 
L 556.625706 417.214651 
L 558.06834 417.359731 
L 561.274192 417.381013 
L 574.257895 417.37414 
L 574.418188 161.842648 
L 574.57848 117.562141 
L 575.059358 176.444737 
L 575.219651 171.302244 
L 576.021114 98.6623 
L 576.181406 95.12639 
L 576.341699 95.297963 
L 576.662284 101.798554 
L 577.143162 112.535269 
L 577.463747 115.101808 
L 577.62404 114.846694 
L 577.944625 111.884346 
L 578.425503 103.405344 
L 579.066674 88.416071 
L 579.387259 395.152436 
L 579.547552 402.929684 
L 579.868137 391.378372 
L 580.028429 395.289345 
L 580.6696 429.56476 
L 580.829893 430.92 
L 580.990185 428.802808 
L 581.471063 412.738786 
L 581.791648 403.548672 
L 582.112234 399.436389 
L 582.272526 399.126973 
L 582.432819 399.667443 
L 582.753404 402.253517 
L 583.554867 409.572729 
L 584.035745 412.209479 
L 584.35633 413.190624 
L 584.676916 413.548557 
L 584.837208 413.479692 
L 585.157793 412.822585 
L 585.478379 411.483258 
L 585.959257 408.402033 
L 587.562183 396.95731 
L 588.043061 395.46456 
L 588.363646 395.184261 
L 588.523939 395.246554 
L 588.844524 395.735199 
L 589.325402 397.219833 
L 589.966572 400.117495 
L 592.050376 410.127436 
L 592.851839 412.754602 
L 593.653303 414.588452 
L 594.454766 415.784496 
L 595.256229 416.520058 
L 596.057692 416.948155 
L 597.019448 417.214651 
L 598.462081 417.359731 
L 601.667934 417.381013 
L 613.209003 417.374127 
L 613.369295 161.842637 
L 613.529588 117.562132 
L 614.010466 176.444733 
L 614.170759 171.302242 
L 614.972222 98.6623 
L 615.132514 95.126391 
L 615.292807 95.297964 
L 615.613392 101.798555 
L 616.09427 112.535271 
L 616.414855 115.101809 
L 616.575148 114.846695 
L 616.895733 111.884348 
L 617.376611 103.405345 
L 618.017782 88.416072 
L 618.338367 395.152437 
L 618.498659 402.929685 
L 618.819245 391.378373 
L 618.979537 395.289345 
L 619.620708 429.56476 
L 619.781 430.92 
L 619.941293 428.802809 
L 620.422171 412.738786 
L 620.742756 403.548672 
L 621.063341 399.436389 
L 621.223634 399.126973 
L 621.383927 399.667444 
L 621.704512 402.253517 
L 622.505975 409.572729 
L 622.986853 412.209479 
L 623.307438 413.190624 
L 623.628023 413.548557 
L 623.788316 413.479692 
L 624.108901 412.822585 
L 624.429487 411.483258 
L 624.910364 408.402033 
L 626.513291 396.95731 
L 626.994169 395.46456 
L 627.314754 395.184261 
L 627.475046 395.246554 
L 627.795632 395.735199 
L 628.27651 397.219833 
L 628.91768 400.117495 
L 631.001484 410.127436 
L 631.802947 412.754602 
L 632.60441 414.588452 
L 633.405874 415.784496 
L 634.207337 416.520058 
L 635.0088 416.948155 
L 635.970556 417.214651 
L 637.413189 417.359731 
L 640.619042 417.381013 
L 653.92333 417.374141 
L 654.083622 161.842648 
L 654.243915 117.562141 
L 654.724793 176.444737 
L 654.885085 171.302244 
L 655.686548 98.662299 
L 655.846841 95.12639 
L 656.007134 95.297962 
L 656.327719 101.798553 
L 656.808597 112.535269 
L 657.129182 115.101807 
L 657.289475 114.846693 
L 657.61006 111.884346 
L 658.090938 103.405344 
L 658.732108 88.416071 
L 659.052694 395.152436 
L 659.212986 402.929684 
L 659.533571 391.378372 
L 659.693864 395.289345 
L 660.335035 429.56476 
L 660.495327 430.92 
L 660.65562 428.802808 
L 661.136498 412.738786 
L 661.457083 403.548672 
L 661.777668 399.436389 
L 661.937961 399.126973 
L 662.098253 399.667443 
L 662.418839 402.253517 
L 663.220302 409.572729 
L 663.70118 412.209479 
L 664.021765 413.190624 
L 664.34235 413.548557 
L 664.502643 413.479692 
L 664.823228 412.822585 
L 665.143813 411.483258 
L 665.624691 408.402033 
L 667.227617 396.95731 
L 667.708495 395.46456 
L 668.029081 395.184261 
L 668.189373 395.246554 
L 668.509958 395.735199 
L 668.990836 397.219833 
L 669.632007 400.117495 
L 671.715811 410.127436 
L 672.517274 412.754602 
L 673.318737 414.588452 
L 674.1202 415.784496 
L 674.921663 416.520058 
L 675.723127 416.948155 
L 676.684882 417.214651 
L 678.127516 417.359731 
L 681.333368 417.381013 
L 694.156778 417.37414 
L 694.317071 161.842648 
L 694.477364 117.562141 
L 694.958242 176.444737 
L 695.118534 171.302245 
L 695.919997 98.6623 
L 696.08029 95.126391 
L 696.240583 95.297963 
L 696.561168 101.798554 
L 697.042046 112.535269 
L 697.362631 115.101808 
L 697.522924 114.846694 
L 697.843509 111.884347 
L 698.324387 103.405344 
L 698.965557 88.416072 
L 699.286142 395.152436 
L 699.446435 402.929684 
L 699.76702 391.378372 
L 699.927313 395.289345 
L 700.568483 429.56476 
L 700.728776 430.92 
L 700.889069 428.802808 
L 701.369947 412.738786 
L 701.690532 403.548672 
L 702.011117 399.436389 
L 702.17141 399.126973 
L 702.331702 399.667443 
L 702.652288 402.253517 
L 703.453751 409.572729 
L 703.934629 412.209479 
L 704.255214 413.190624 
L 704.575799 413.548557 
L 704.736092 413.479692 
L 705.056677 412.822585 
L 705.377262 411.483258 
L 705.85814 408.402033 
L 707.461066 396.95731 
L 707.941944 395.46456 
L 708.262529 395.184261 
L 708.422822 395.246554 
L 708.743407 395.735199 
L 709.224285 397.219833 
L 709.865456 400.117495 
L 711.94926 410.127436 
L 712.750723 412.754602 
L 713.552186 414.588452 
L 714.353649 415.784496 
L 715.155112 416.520058 
L 715.956575 416.948155 
L 716.918331 417.214651 
L 718.360965 417.359731 
L 721.566817 417.381013 
L 734.069642 417.374138 
L 734.229935 161.842647 
L 734.390227 117.56214 
L 734.871105 176.444737 
L 735.031398 171.302245 
L 735.832861 98.6623 
L 735.993154 95.126391 
L 736.153446 95.297964 
L 736.474031 101.798554 
L 736.954909 112.53527 
L 737.275495 115.101808 
L 737.435787 114.846694 
L 737.756372 111.884347 
L 738.23725 103.405344 
L 738.878421 88.416072 
L 739.199006 395.152436 
L 739.359299 402.929684 
L 739.679884 391.378372 
L 739.840177 395.289345 
L 740.481347 429.56476 
L 740.64164 430.92 
L 740.801932 428.802808 
L 741.28281 412.738786 
L 741.603395 403.548672 
L 741.923981 399.436389 
L 742.084273 399.126973 
L 742.244566 399.667443 
L 742.565151 402.253517 
L 743.366614 409.572729 
L 743.847492 412.209479 
L 744.168077 413.190624 
L 744.488663 413.548557 
L 744.648955 413.479692 
L 744.969541 412.822585 
L 745.290126 411.483258 
L 745.771004 408.402033 
L 747.37393 396.95731 
L 747.854808 395.46456 
L 748.175393 395.184261 
L 748.335686 395.246554 
L 748.656271 395.735199 
L 749.137149 397.219833 
L 749.778319 400.117495 
L 751.862123 410.127436 
L 752.663587 412.754602 
L 753.46505 414.588452 
L 754.266513 415.784496 
L 755.067976 416.520058 
L 755.869439 416.948155 
L 756.831195 417.214651 
L 758.273828 417.359731 
L 761.479681 417.381013 
L 773.822213 417.374137 
L 773.982506 161.842646 
L 774.142798 117.56214 
L 774.623676 176.444737 
L 774.783969 171.302245 
L 775.585432 98.6623 
L 775.745725 95.126391 
L 775.906017 95.297964 
L 776.226602 101.798555 
L 776.70748 112.53527 
L 777.028066 115.101808 
L 777.188358 114.846694 
L 777.508943 111.884347 
L 777.989821 103.405344 
L 778.630992 88.416072 
L 778.951577 395.152437 
L 779.11187 402.929685 
L 779.432455 391.378372 
L 779.592748 395.289345 
L 780.233918 429.56476 
L 780.394211 430.92 
L 780.554503 428.802808 
L 781.035381 412.738786 
L 781.355966 403.548672 
L 781.676552 399.436389 
L 781.836844 399.126973 
L 781.997137 399.667443 
L 782.317722 402.253517 
L 783.119185 409.572729 
L 783.600063 412.209479 
L 783.920648 413.190624 
L 784.241234 413.548557 
L 784.401526 413.479692 
L 784.722112 412.822585 
L 785.042697 411.483258 
L 785.523575 408.402033 
L 787.126501 396.95731 
L 787.607379 395.46456 
L 787.927964 395.184261 
L 788.088257 395.246554 
L 788.408842 395.735199 
L 788.88972 397.219833 
L 789.53089 400.117495 
L 791.614694 410.127436 
L 792.416158 412.754602 
L 793.217621 414.588452 
L 794.019084 415.784496 
L 794.820547 416.520058 
L 795.62201 416.948155 
L 796.583766 417.214651 
L 798.026399 417.359731 
L 801.232252 417.381013 
L 813.414491 417.374136 
L 813.574784 161.842645 
L 813.735077 117.562139 
L 814.215955 176.444737 
L 814.376247 171.302244 
L 815.17771 98.662301 
L 815.338003 95.126391 
L 815.498296 95.297964 
L 815.818881 101.798555 
L 816.299759 112.53527 
L 816.620344 115.101809 
L 816.780637 114.846695 
L 817.101222 111.884347 
L 817.5821 103.405344 
L 818.22327 88.416072 
L 818.543855 395.152437 
L 818.704148 402.929685 
L 819.024733 391.378372 
L 819.185026 395.289345 
L 819.826196 429.56476 
L 819.986489 430.92 
L 820.146782 428.802808 
L 820.62766 412.738786 
L 820.948245 403.548672 
L 821.26883 399.436389 
L 821.429123 399.126973 
L 821.589415 399.667443 
L 821.910001 402.253517 
L 822.711464 409.572729 
L 823.192342 412.209479 
L 823.512927 413.190624 
L 823.833512 413.548557 
L 823.993805 413.479692 
L 824.31439 412.822585 
L 824.634975 411.483258 
L 825.115853 408.402033 
L 826.718779 396.95731 
L 827.199657 395.46456 
L 827.520242 395.184261 
L 827.680535 395.246554 
L 828.00112 395.735199 
L 828.481998 397.219833 
L 829.123169 400.117495 
L 831.206973 410.127436 
L 832.008436 412.754602 
L 832.809899 414.588452 
L 833.611362 415.784496 
L 834.412825 416.520058 
L 835.214288 416.948155 
L 836.176044 417.214651 
L 837.618678 417.359731 
L 840.82453 417.381013 
L 854.609696 417.37414 
L 854.769989 161.842648 
L 854.930281 117.56214 
L 855.411159 176.444736 
L 855.571452 171.302243 
L 856.372915 98.662298 
L 856.533208 95.126389 
L 856.6935 95.297962 
L 857.014085 101.798552 
L 857.494963 112.535268 
L 857.815549 115.101807 
L 857.975841 114.846693 
L 858.296426 111.884346 
L 858.777304 103.405343 
L 859.418475 88.416071 
L 859.73906 395.152436 
L 859.899353 402.929684 
L 860.219938 391.378372 
L 860.380231 395.289345 
L 861.021401 429.564759 
L 861.181694 430.92 
L 861.341986 428.802808 
L 861.822864 412.738786 
L 862.143449 403.548672 
L 862.464035 399.436389 
L 862.624327 399.126973 
L 862.78462 399.667443 
L 863.105205 402.253517 
L 863.906668 409.572729 
L 864.387546 412.209479 
L 864.708131 413.190624 
L 865.028717 413.548557 
L 865.189009 413.479692 
L 865.509595 412.822585 
L 865.83018 411.483258 
L 866.311058 408.402033 
L 867.913984 396.95731 
L 868.394862 395.46456 
L 868.715447 395.184261 
L 868.87574 395.246554 
L 869.196325 395.735199 
L 869.677203 397.219833 
L 870.318373 400.117495 
L 872.402177 410.127436 
L 873.203641 412.754602 
L 874.005104 414.588452 
L 874.806567 415.784496 
L 875.60803 416.520058 
L 876.409493 416.948155 
L 877.371249 417.214651 
L 878.813882 417.359731 
L 882.019735 417.381013 
L 894.362267 417.374137 
L 894.52256 161.842646 
L 894.682852 117.56214 
L 895.16373 176.444737 
L 895.324023 171.302245 
L 896.125486 98.6623 
L 896.285779 95.126391 
L 896.446071 95.297964 
L 896.766656 101.798555 
L 897.247534 112.53527 
L 897.56812 115.101808 
L 897.728412 114.846694 
L 898.048997 111.884347 
L 898.529875 103.405344 
L 899.171046 88.416072 
L 899.491631 395.152437 
L 899.651924 402.929685 
L 899.972509 391.378372 
L 900.132802 395.289345 
L 900.773972 429.56476 
L 900.934265 430.92 
L 901.094557 428.802808 
L 901.575435 412.738786 
L 901.89602 403.548672 
L 902.216606 399.436389 
L 902.376898 399.126973 
L 902.537191 399.667443 
L 902.857776 402.253517 
L 903.659239 409.572729 
L 904.140117 412.209479 
L 904.460702 413.190624 
L 904.781288 413.548557 
L 904.94158 413.479692 
L 905.262166 412.822585 
L 905.582751 411.483258 
L 906.063629 408.402033 
L 907.666555 396.95731 
L 908.147433 395.46456 
L 908.468018 395.184261 
L 908.628311 395.246554 
L 908.948896 395.735199 
L 909.429774 397.219833 
L 910.070944 400.117495 
L 912.154748 410.127436 
L 912.956212 412.754602 
L 913.757675 414.588452 
L 914.559138 415.784496 
L 915.360601 416.520058 
L 916.162064 416.948155 
L 917.12382 417.214651 
L 918.566453 417.359731 
L 921.772306 417.381013 
L 933.794253 417.374134 
L 933.954545 161.842643 
L 933.954545 161.842643 
" clip-path="url(#p473469a446)" style="fill: none; stroke: #1f77b4; stroke-width: 1.5; stroke-linecap: square"/>
   </g>
   <g id="line2d_13">
    <path d="M 173.045455 78.12 
L 177.693941 78.12 
L 177.854233 417.374132 
L 213.278903 417.374132 
L 213.439196 78.12 
L 218.087682 78.12 
L 218.247975 417.374132 
L 253.99323 417.374132 
L 254.153523 78.12 
L 258.802009 78.12 
L 258.962302 417.374132 
L 293.585509 417.374132 
L 293.745801 78.12 
L 298.394287 78.12 
L 298.55458 417.374132 
L 333.818957 417.374132 
L 333.97925 78.12 
L 338.627736 78.12 
L 338.788029 417.374132 
L 373.090651 417.374132 
L 373.250943 78.12 
L 377.899429 78.12 
L 378.059722 417.374132 
L 413.644685 417.374132 
L 413.804977 78.12 
L 418.453463 78.12 
L 418.613756 417.374132 
L 453.557548 417.374132 
L 453.717841 78.12 
L 458.366327 78.12 
L 458.52662 417.374132 
L 493.630705 417.374132 
L 493.790997 78.12 
L 498.439483 78.12 
L 498.599776 417.374132 
L 533.864153 417.374132 
L 534.024446 78.12 
L 538.672932 78.12 
L 538.833225 417.374132 
L 574.257895 417.374132 
L 574.418188 78.12 
L 579.066674 78.12 
L 579.226966 417.374132 
L 613.209003 417.374132 
L 613.369295 78.12 
L 618.017782 78.12 
L 618.178074 417.374132 
L 653.92333 417.374132 
L 654.083622 78.12 
L 658.732108 78.12 
L 658.892401 417.374132 
L 694.156778 417.374132 
L 694.317071 78.12 
L 698.965557 78.12 
L 699.12585 417.374132 
L 734.069642 417.374132 
L 734.229935 78.12 
L 738.878421 78.12 
L 739.038713 417.374132 
L 773.822213 417.374132 
L 773.982506 78.12 
L 778.630992 78.12 
L 778.791284 417.374132 
L 813.414491 417.374132 
L 813.574784 78.12 
L 818.22327 78.12 
L 818.383563 417.374132 
L 854.609696 417.374132 
L 854.769989 78.12 
L 859.418475 78.12 
L 859.578767 417.374132 
L 894.362267 417.374132 
L 894.52256 78.12 
L 899.171046 78.12 
L 899.331338 417.374132 
L 933.794253 417.374132 
L 933.954545 78.12 
L 933.954545 78.12 
" clip-path="url(#p473469a446)" style="fill: none; stroke: #ff7f0e; stroke-width: 1.5; stroke-linecap: square"/>
   </g>
   <g id="line2d_14">
    <path d="M 929.466352 417.374132 
" clip-path="url(#p473469a446)" style="fill: none; stroke: #000000; stroke-width: 1.5; stroke-linecap: square"/>
    <defs>
     <path id="m096217d2f0" d="M 0 1 
C 0.265203 1 0.51958 0.894634 0.707107 0.707107 
C 0.894634 0.51958 1 0.265203 1 0 
C 1 -0.265203 0.894634 -0.51958 0.707107 -0.707107 
C 0.51958 -0.894634 0.265203 -1 0 -1 
C -0.265203 -1 -0.51958 -0.894634 -0.707107 -0.707107 
C -0.894634 -0.51958 -1 -0.265203 -1 0 
C -1 0.265203 -0.894634 0.51958 -0.707107 0.707107 
C -0.51958 0.894634 -0.265203 1 0 1 
z
" style="stroke: #000000"/>
    </defs>
    <g clip-path="url(#p473469a446)">
     <use xlink:href="#m096217d2f0" x="173.045455" y="78.12" style="stroke: #000000"/>
     <use xlink:href="#m096217d2f0" x="178.174819" y="417.374132" style="stroke: #000000"/>
     <use xlink:href="#m096217d2f0" x="183.14389" y="417.374132" style="stroke: #000000"/>
     <use xlink:href="#m096217d2f0" x="188.112961" y="78.12" style="stroke: #000000"/>
     <use xlink:href="#m096217d2f0" x="193.082033" y="417.374132" style="stroke: #000000"/>
     <use xlink:href="#m096217d2f0" x="198.211397" y="417.374132" style="stroke: #000000"/>
     <use xlink:href="#m096217d2f0" x="203.180468" y="78.12" style="stroke: #000000"/>
     <use xlink:href="#m096217d2f0" x="208.149539" y="417.374132" style="stroke: #000000"/>
     <use xlink:href="#m096217d2f0" x="213.118611" y="78.12" style="stroke: #000000"/>
     <use xlink:href="#m096217d2f0" x="218.247975" y="417.374132" style="stroke: #000000"/>
     <use xlink:href="#m096217d2f0" x="223.217046" y="417.374132" style="stroke: #000000"/>
     <use xlink:href="#m096217d2f0" x="228.186118" y="78.12" style="stroke: #000000"/>
     <use xlink:href="#m096217d2f0" x="233.155189" y="417.374132" style="stroke: #000000"/>
     <use xlink:href="#m096217d2f0" x="238.284553" y="417.374132" style="stroke: #000000"/>
     <use xlink:href="#m096217d2f0" x="243.253624" y="78.12" style="stroke: #000000"/>
     <use xlink:href="#m096217d2f0" x="248.222696" y="417.374132" style="stroke: #000000"/>
     <use xlink:href="#m096217d2f0" x="253.191767" y="78.12" style="stroke: #000000"/>
     <use xlink:href="#m096217d2f0" x="258.321131" y="417.374132" style="stroke: #000000"/>
     <use xlink:href="#m096217d2f0" x="263.290202" y="417.374132" style="stroke: #000000"/>
     <use xlink:href="#m096217d2f0" x="268.259274" y="78.12" style="stroke: #000000"/>
     <use xlink:href="#m096217d2f0" x="273.228345" y="417.374132" style="stroke: #000000"/>
     <use xlink:href="#m096217d2f0" x="278.357709" y="417.374132" style="stroke: #000000"/>
     <use xlink:href="#m096217d2f0" x="283.326781" y="78.12" style="stroke: #000000"/>
     <use xlink:href="#m096217d2f0" x="288.295852" y="417.374132" style="stroke: #000000"/>
     <use xlink:href="#m096217d2f0" x="293.264923" y="78.12" style="stroke: #000000"/>
     <use xlink:href="#m096217d2f0" x="298.394287" y="417.374132" style="stroke: #000000"/>
     <use xlink:href="#m096217d2f0" x="303.363359" y="417.374132" style="stroke: #000000"/>
     <use xlink:href="#m096217d2f0" x="308.33243" y="78.12" style="stroke: #000000"/>
     <use xlink:href="#m096217d2f0" x="313.301501" y="417.374132" style="stroke: #000000"/>
     <use xlink:href="#m096217d2f0" x="318.430865" y="417.374132" style="stroke: #000000"/>
     <use xlink:href="#m096217d2f0" x="323.399937" y="78.12" style="stroke: #000000"/>
     <use xlink:href="#m096217d2f0" x="328.369008" y="417.374132" style="stroke: #000000"/>
     <use xlink:href="#m096217d2f0" x="333.33808" y="78.12" style="stroke: #000000"/>
     <use xlink:href="#m096217d2f0" x="338.467444" y="417.374132" style="stroke: #000000"/>
     <use xlink:href="#m096217d2f0" x="343.436515" y="417.374132" style="stroke: #000000"/>
     <use xlink:href="#m096217d2f0" x="348.405586" y="78.12" style="stroke: #000000"/>
     <use xlink:href="#m096217d2f0" x="353.374658" y="417.374132" style="stroke: #000000"/>
     <use xlink:href="#m096217d2f0" x="358.504022" y="417.374132" style="stroke: #000000"/>
     <use xlink:href="#m096217d2f0" x="363.473093" y="78.12" style="stroke: #000000"/>
     <use xlink:href="#m096217d2f0" x="368.442164" y="417.374132" style="stroke: #000000"/>
     <use xlink:href="#m096217d2f0" x="373.411236" y="78.12" style="stroke: #000000"/>
     <use xlink:href="#m096217d2f0" x="378.5406" y="417.374132" style="stroke: #000000"/>
     <use xlink:href="#m096217d2f0" x="383.509671" y="417.374132" style="stroke: #000000"/>
     <use xlink:href="#m096217d2f0" x="388.478743" y="78.12" style="stroke: #000000"/>
     <use xlink:href="#m096217d2f0" x="393.447814" y="417.374132" style="stroke: #000000"/>
     <use xlink:href="#m096217d2f0" x="398.577178" y="417.374132" style="stroke: #000000"/>
     <use xlink:href="#m096217d2f0" x="403.546249" y="78.12" style="stroke: #000000"/>
     <use xlink:href="#m096217d2f0" x="408.515321" y="417.374132" style="stroke: #000000"/>
     <use xlink:href="#m096217d2f0" x="413.484392" y="78.12" style="stroke: #000000"/>
     <use xlink:href="#m096217d2f0" x="418.613756" y="417.374132" style="stroke: #000000"/>
     <use xlink:href="#m096217d2f0" x="423.582827" y="417.374132" style="stroke: #000000"/>
     <use xlink:href="#m096217d2f0" x="428.551899" y="78.12" style="stroke: #000000"/>
     <use xlink:href="#m096217d2f0" x="433.52097" y="417.374132" style="stroke: #000000"/>
     <use xlink:href="#m096217d2f0" x="438.650334" y="417.374132" style="stroke: #000000"/>
     <use xlink:href="#m096217d2f0" x="443.619406" y="78.12" style="stroke: #000000"/>
     <use xlink:href="#m096217d2f0" x="448.588477" y="417.374132" style="stroke: #000000"/>
     <use xlink:href="#m096217d2f0" x="453.557548" y="78.12" style="stroke: #000000"/>
     <use xlink:href="#m096217d2f0" x="458.686912" y="417.374132" style="stroke: #000000"/>
     <use xlink:href="#m096217d2f0" x="463.655984" y="417.374132" style="stroke: #000000"/>
     <use xlink:href="#m096217d2f0" x="468.625055" y="78.12" style="stroke: #000000"/>
     <use xlink:href="#m096217d2f0" x="473.594126" y="417.374132" style="stroke: #000000"/>
     <use xlink:href="#m096217d2f0" x="478.72349" y="417.374132" style="stroke: #000000"/>
     <use xlink:href="#m096217d2f0" x="483.692562" y="78.12" style="stroke: #000000"/>
     <use xlink:href="#m096217d2f0" x="488.661633" y="417.374132" style="stroke: #000000"/>
     <use xlink:href="#m096217d2f0" x="493.630705" y="78.12" style="stroke: #000000"/>
     <use xlink:href="#m096217d2f0" x="498.760069" y="417.374132" style="stroke: #000000"/>
     <use xlink:href="#m096217d2f0" x="503.72914" y="417.374132" style="stroke: #000000"/>
     <use xlink:href="#m096217d2f0" x="508.698211" y="78.12" style="stroke: #000000"/>
     <use xlink:href="#m096217d2f0" x="513.667283" y="417.374132" style="stroke: #000000"/>
     <use xlink:href="#m096217d2f0" x="518.796647" y="417.374132" style="stroke: #000000"/>
     <use xlink:href="#m096217d2f0" x="523.765718" y="78.12" style="stroke: #000000"/>
     <use xlink:href="#m096217d2f0" x="528.734789" y="417.374132" style="stroke: #000000"/>
     <use xlink:href="#m096217d2f0" x="533.703861" y="78.12" style="stroke: #000000"/>
     <use xlink:href="#m096217d2f0" x="538.833225" y="417.374132" style="stroke: #000000"/>
     <use xlink:href="#m096217d2f0" x="543.802296" y="417.374132" style="stroke: #000000"/>
     <use xlink:href="#m096217d2f0" x="548.771368" y="78.12" style="stroke: #000000"/>
     <use xlink:href="#m096217d2f0" x="553.740439" y="417.374132" style="stroke: #000000"/>
     <use xlink:href="#m096217d2f0" x="558.869803" y="417.374132" style="stroke: #000000"/>
     <use xlink:href="#m096217d2f0" x="563.838874" y="78.12" style="stroke: #000000"/>
     <use xlink:href="#m096217d2f0" x="568.807946" y="417.374132" style="stroke: #000000"/>
     <use xlink:href="#m096217d2f0" x="573.777017" y="78.12" style="stroke: #000000"/>
     <use xlink:href="#m096217d2f0" x="578.906381" y="417.374132" style="stroke: #000000"/>
     <use xlink:href="#m096217d2f0" x="583.875452" y="417.374132" style="stroke: #000000"/>
     <use xlink:href="#m096217d2f0" x="588.844524" y="78.12" style="stroke: #000000"/>
     <use xlink:href="#m096217d2f0" x="593.813595" y="417.374132" style="stroke: #000000"/>
     <use xlink:href="#m096217d2f0" x="598.942959" y="417.374132" style="stroke: #000000"/>
     <use xlink:href="#m096217d2f0" x="603.912031" y="78.12" style="stroke: #000000"/>
     <use xlink:href="#m096217d2f0" x="608.881102" y="417.374132" style="stroke: #000000"/>
     <use xlink:href="#m096217d2f0" x="613.850173" y="78.12" style="stroke: #000000"/>
     <use xlink:href="#m096217d2f0" x="618.979537" y="417.374132" style="stroke: #000000"/>
     <use xlink:href="#m096217d2f0" x="623.948609" y="417.374132" style="stroke: #000000"/>
     <use xlink:href="#m096217d2f0" x="628.91768" y="78.12" style="stroke: #000000"/>
     <use xlink:href="#m096217d2f0" x="633.886751" y="417.374132" style="stroke: #000000"/>
     <use xlink:href="#m096217d2f0" x="639.016115" y="417.374132" style="stroke: #000000"/>
     <use xlink:href="#m096217d2f0" x="643.985187" y="78.12" style="stroke: #000000"/>
     <use xlink:href="#m096217d2f0" x="648.954258" y="417.374132" style="stroke: #000000"/>
     <use xlink:href="#m096217d2f0" x="653.92333" y="78.12" style="stroke: #000000"/>
     <use xlink:href="#m096217d2f0" x="659.052694" y="417.374132" style="stroke: #000000"/>
     <use xlink:href="#m096217d2f0" x="664.021765" y="417.374132" style="stroke: #000000"/>
     <use xlink:href="#m096217d2f0" x="668.990836" y="78.12" style="stroke: #000000"/>
     <use xlink:href="#m096217d2f0" x="673.959908" y="417.374132" style="stroke: #000000"/>
     <use xlink:href="#m096217d2f0" x="679.089272" y="417.374132" style="stroke: #000000"/>
     <use xlink:href="#m096217d2f0" x="684.058343" y="78.12" style="stroke: #000000"/>
     <use xlink:href="#m096217d2f0" x="689.027414" y="417.374132" style="stroke: #000000"/>
     <use xlink:href="#m096217d2f0" x="693.996486" y="78.12" style="stroke: #000000"/>
     <use xlink:href="#m096217d2f0" x="699.12585" y="417.374132" style="stroke: #000000"/>
     <use xlink:href="#m096217d2f0" x="704.094921" y="417.374132" style="stroke: #000000"/>
     <use xlink:href="#m096217d2f0" x="709.063993" y="78.12" style="stroke: #000000"/>
     <use xlink:href="#m096217d2f0" x="714.033064" y="417.374132" style="stroke: #000000"/>
     <use xlink:href="#m096217d2f0" x="719.162428" y="417.374132" style="stroke: #000000"/>
     <use xlink:href="#m096217d2f0" x="724.131499" y="78.12" style="stroke: #000000"/>
     <use xlink:href="#m096217d2f0" x="729.100571" y="417.374132" style="stroke: #000000"/>
     <use xlink:href="#m096217d2f0" x="734.069642" y="78.12" style="stroke: #000000"/>
     <use xlink:href="#m096217d2f0" x="739.199006" y="417.374132" style="stroke: #000000"/>
     <use xlink:href="#m096217d2f0" x="744.168077" y="417.374132" style="stroke: #000000"/>
     <use xlink:href="#m096217d2f0" x="749.137149" y="78.12" style="stroke: #000000"/>
     <use xlink:href="#m096217d2f0" x="754.10622" y="417.374132" style="stroke: #000000"/>
     <use xlink:href="#m096217d2f0" x="759.235584" y="417.374132" style="stroke: #000000"/>
     <use xlink:href="#m096217d2f0" x="764.204656" y="78.12" style="stroke: #000000"/>
     <use xlink:href="#m096217d2f0" x="769.173727" y="417.374132" style="stroke: #000000"/>
     <use xlink:href="#m096217d2f0" x="774.142798" y="78.12" style="stroke: #000000"/>
     <use xlink:href="#m096217d2f0" x="779.272162" y="417.374132" style="stroke: #000000"/>
     <use xlink:href="#m096217d2f0" x="784.241234" y="417.374132" style="stroke: #000000"/>
     <use xlink:href="#m096217d2f0" x="789.210305" y="78.12" style="stroke: #000000"/>
     <use xlink:href="#m096217d2f0" x="794.179376" y="417.374132" style="stroke: #000000"/>
     <use xlink:href="#m096217d2f0" x="799.30874" y="417.374132" style="stroke: #000000"/>
     <use xlink:href="#m096217d2f0" x="804.277812" y="78.12" style="stroke: #000000"/>
     <use xlink:href="#m096217d2f0" x="809.246883" y="417.374132" style="stroke: #000000"/>
     <use xlink:href="#m096217d2f0" x="814.215955" y="78.12" style="stroke: #000000"/>
     <use xlink:href="#m096217d2f0" x="819.345319" y="417.374132" style="stroke: #000000"/>
     <use xlink:href="#m096217d2f0" x="824.31439" y="417.374132" style="stroke: #000000"/>
     <use xlink:href="#m096217d2f0" x="829.283461" y="78.12" style="stroke: #000000"/>
     <use xlink:href="#m096217d2f0" x="834.252533" y="417.374132" style="stroke: #000000"/>
     <use xlink:href="#m096217d2f0" x="839.381897" y="417.374132" style="stroke: #000000"/>
     <use xlink:href="#m096217d2f0" x="844.350968" y="78.12" style="stroke: #000000"/>
     <use xlink:href="#m096217d2f0" x="849.320039" y="417.374132" style="stroke: #000000"/>
     <use xlink:href="#m096217d2f0" x="854.289111" y="78.12" style="stroke: #000000"/>
     <use xlink:href="#m096217d2f0" x="859.418475" y="417.374132" style="stroke: #000000"/>
     <use xlink:href="#m096217d2f0" x="864.387546" y="417.374132" style="stroke: #000000"/>
     <use xlink:href="#m096217d2f0" x="869.356618" y="78.12" style="stroke: #000000"/>
     <use xlink:href="#m096217d2f0" x="874.325689" y="417.374132" style="stroke: #000000"/>
     <use xlink:href="#m096217d2f0" x="879.455053" y="417.374132" style="stroke: #000000"/>
     <use xlink:href="#m096217d2f0" x="884.424124" y="78.12" style="stroke: #000000"/>
     <use xlink:href="#m096217d2f0" x="889.393196" y="417.374132" style="stroke: #000000"/>
     <use xlink:href="#m096217d2f0" x="894.362267" y="78.12" style="stroke: #000000"/>
     <use xlink:href="#m096217d2f0" x="899.491631" y="417.374132" style="stroke: #000000"/>
     <use xlink:href="#m096217d2f0" x="904.460702" y="417.374132" style="stroke: #000000"/>
     <use xlink:href="#m096217d2f0" x="909.429774" y="78.12" style="stroke: #000000"/>
     <use xlink:href="#m096217d2f0" x="914.398845" y="417.374132" style="stroke: #000000"/>
     <use xlink:href="#m096217d2f0" x="919.528209" y="417.374132" style="stroke: #000000"/>
     <use xlink:href="#m096217d2f0" x="924.497281" y="78.12" style="stroke: #000000"/>
     <use xlink:href="#m096217d2f0" x="929.466352" y="417.374132" style="stroke: #000000"/>
    </g>
   </g>
   <g id="patch_3">
    <path d="M 135 448.56 
L 135 60.48 
" style="fill: none; stroke: #000000; stroke-width: 0.8; stroke-linejoin: miter; stroke-linecap: square"/>
   </g>
   <g id="patch_4">
    <path d="M 972 448.56 
L 972 60.48 
" style="fill: none; stroke: #000000; stroke-width: 0.8; stroke-linejoin: miter; stroke-linecap: square"/>
   </g>
   <g id="patch_5">
    <path d="M 135 448.56 
L 972 448.56 
" style="fill: none; stroke: #000000; stroke-width: 0.8; stroke-linejoin: miter; stroke-linecap: square"/>
   </g>
   <g id="patch_6">
    <path d="M 135 60.48 
L 972 60.48 
" style="fill: none; stroke: #000000; stroke-width: 0.8; stroke-linejoin: miter; stroke-linecap: square"/>
   </g>
   <g id="legend_1">
    <g id="patch_7">
     <path d="M 895.915625 278.315313 
L 965 278.315313 
Q 967 278.315313 967 276.315313 
L 967 232.724688 
Q 967 230.724688 965 230.724688 
L 895.915625 230.724688 
Q 893.915625 230.724688 893.915625 232.724688 
L 893.915625 276.315313 
Q 893.915625 278.315313 895.915625 278.315313 
z
" style="fill: #ffffff; opacity: 0.8; stroke: #cccccc; stroke-linejoin: miter"/>
    </g>
    <g id="line2d_15">
     <path d="M 897.915625 238.823125 
L 907.915625 238.823125 
L 917.915625 238.823125 
" style="fill: none; stroke: #1f77b4; stroke-width: 1.5; stroke-linecap: square"/>
    </g>
    <g id="text_13">
     <!-- nw_0 -->
     <g transform="translate(925.915625 242.323125) scale(0.1 -0.1)">
      <defs>
       <path id="DejaVuSans-6e" d="M 3513 2113 
L 3513 0 
L 2938 0 
L 2938 2094 
Q 2938 2591 2744 2837 
Q 2550 3084 2163 3084 
Q 1697 3084 1428 2787 
Q 1159 2491 1159 1978 
L 1159 0 
L 581 0 
L 581 3500 
L 1159 3500 
L 1159 2956 
Q 1366 3272 1645 3428 
Q 1925 3584 2291 3584 
Q 2894 3584 3203 3211 
Q 3513 2838 3513 2113 
z
" transform="scale(0.015625)"/>
       <path id="DejaVuSans-77" d="M 269 3500 
L 844 3500 
L 1563 769 
L 2278 3500 
L 2956 3500 
L 3675 769 
L 4391 3500 
L 4966 3500 
L 4050 0 
L 3372 0 
L 2619 2869 
L 1863 0 
L 1184 0 
L 269 3500 
z
" transform="scale(0.015625)"/>
       <path id="DejaVuSans-5f" d="M 3263 -1063 
L 3263 -1509 
L -63 -1509 
L -63 -1063 
L 3263 -1063 
z
" transform="scale(0.015625)"/>
      </defs>
      <use xlink:href="#DejaVuSans-6e"/>
      <use xlink:href="#DejaVuSans-77" x="63.378906"/>
      <use xlink:href="#DejaVuSans-5f" x="145.166016"/>
      <use xlink:href="#DejaVuSans-30" x="195.166016"/>
     </g>
    </g>
    <g id="line2d_16">
     <path d="M 897.915625 253.779375 
L 907.915625 253.779375 
L 917.915625 253.779375 
" style="fill: none; stroke: #ff7f0e; stroke-width: 1.5; stroke-linecap: square"/>
    </g>
    <g id="text_14">
     <!-- input_0 -->
     <g transform="translate(925.915625 257.279375) scale(0.1 -0.1)">
      <defs>
       <path id="DejaVuSans-69" d="M 603 3500 
L 1178 3500 
L 1178 0 
L 603 0 
L 603 3500 
z
M 603 4863 
L 1178 4863 
L 1178 4134 
L 603 4134 
L 603 4863 
z
" transform="scale(0.015625)"/>
       <path id="DejaVuSans-70" d="M 1159 525 
L 1159 -1331 
L 581 -1331 
L 581 3500 
L 1159 3500 
L 1159 2969 
Q 1341 3281 1617 3432 
Q 1894 3584 2278 3584 
Q 2916 3584 3314 3078 
Q 3713 2572 3713 1747 
Q 3713 922 3314 415 
Q 2916 -91 2278 -91 
Q 1894 -91 1617 61 
Q 1341 213 1159 525 
z
M 3116 1747 
Q 3116 2381 2855 2742 
Q 2594 3103 2138 3103 
Q 1681 3103 1420 2742 
Q 1159 2381 1159 1747 
Q 1159 1113 1420 752 
Q 1681 391 2138 391 
Q 2594 391 2855 752 
Q 3116 1113 3116 1747 
z
" transform="scale(0.015625)"/>
       <path id="DejaVuSans-75" d="M 544 1381 
L 544 3500 
L 1119 3500 
L 1119 1403 
Q 1119 906 1312 657 
Q 1506 409 1894 409 
Q 2359 409 2629 706 
Q 2900 1003 2900 1516 
L 2900 3500 
L 3475 3500 
L 3475 0 
L 2900 0 
L 2900 538 
Q 2691 219 2414 64 
Q 2138 -91 1772 -91 
Q 1169 -91 856 284 
Q 544 659 544 1381 
z
M 1991 3584 
L 1991 3584 
z
" transform="scale(0.015625)"/>
      </defs>
      <use xlink:href="#DejaVuSans-69"/>
      <use xlink:href="#DejaVuSans-6e" x="27.783203"/>
      <use xlink:href="#DejaVuSans-70" x="91.162109"/>
      <use xlink:href="#DejaVuSans-75" x="154.638672"/>
      <use xlink:href="#DejaVuSans-74" x="218.017578"/>
      <use xlink:href="#DejaVuSans-5f" x="257.226562"/>
      <use xlink:href="#DejaVuSans-30" x="307.226562"/>
     </g>
    </g>
    <g id="line2d_17">
     <path d="M 897.915625 268.735625 
L 907.915625 268.735625 
L 917.915625 268.735625 
" style="fill: none; stroke: #000000; stroke-width: 1.5; stroke-linecap: square"/>
     <g>
      <use xlink:href="#m096217d2f0" x="907.915625" y="268.735625" style="stroke: #000000"/>
     </g>
    </g>
    <g id="text_15">
     <!-- target -->
     <g transform="translate(925.915625 272.235625) scale(0.1 -0.1)">
      <defs>
       <path id="DejaVuSans-61" d="M 2194 1759 
Q 1497 1759 1228 1600 
Q 959 1441 959 1056 
Q 959 750 1161 570 
Q 1363 391 1709 391 
Q 2188 391 2477 730 
Q 2766 1069 2766 1631 
L 2766 1759 
L 2194 1759 
z
M 3341 1997 
L 3341 0 
L 2766 0 
L 2766 531 
Q 2569 213 2275 61 
Q 1981 -91 1556 -91 
Q 1019 -91 701 211 
Q 384 513 384 1019 
Q 384 1609 779 1909 
Q 1175 2209 1959 2209 
L 2766 2209 
L 2766 2266 
Q 2766 2663 2505 2880 
Q 2244 3097 1772 3097 
Q 1472 3097 1187 3025 
Q 903 2953 641 2809 
L 641 3341 
Q 956 3463 1253 3523 
Q 1550 3584 1831 3584 
Q 2591 3584 2966 3190 
Q 3341 2797 3341 1997 
z
" transform="scale(0.015625)"/>
       <path id="DejaVuSans-72" d="M 2631 2963 
Q 2534 3019 2420 3045 
Q 2306 3072 2169 3072 
Q 1681 3072 1420 2755 
Q 1159 2438 1159 1844 
L 1159 0 
L 581 0 
L 581 3500 
L 1159 3500 
L 1159 2956 
Q 1341 3275 1631 3429 
Q 1922 3584 2338 3584 
Q 2397 3584 2469 3576 
Q 2541 3569 2628 3553 
L 2631 2963 
z
" transform="scale(0.015625)"/>
       <path id="DejaVuSans-67" d="M 2906 1791 
Q 2906 2416 2648 2759 
Q 2391 3103 1925 3103 
Q 1463 3103 1205 2759 
Q 947 2416 947 1791 
Q 947 1169 1205 825 
Q 1463 481 1925 481 
Q 2391 481 2648 825 
Q 2906 1169 2906 1791 
z
M 3481 434 
Q 3481 -459 3084 -895 
Q 2688 -1331 1869 -1331 
Q 1566 -1331 1297 -1286 
Q 1028 -1241 775 -1147 
L 775 -588 
Q 1028 -725 1275 -790 
Q 1522 -856 1778 -856 
Q 2344 -856 2625 -561 
Q 2906 -266 2906 331 
L 2906 616 
Q 2728 306 2450 153 
Q 2172 0 1784 0 
Q 1141 0 747 490 
Q 353 981 353 1791 
Q 353 2603 747 3093 
Q 1141 3584 1784 3584 
Q 2172 3584 2450 3431 
Q 2728 3278 2906 2969 
L 2906 3500 
L 3481 3500 
L 3481 434 
z
" transform="scale(0.015625)"/>
       <path id="DejaVuSans-65" d="M 3597 1894 
L 3597 1613 
L 953 1613 
Q 991 1019 1311 708 
Q 1631 397 2203 397 
Q 2534 397 2845 478 
Q 3156 559 3463 722 
L 3463 178 
Q 3153 47 2828 -22 
Q 2503 -91 2169 -91 
Q 1331 -91 842 396 
Q 353 884 353 1716 
Q 353 2575 817 3079 
Q 1281 3584 2069 3584 
Q 2775 3584 3186 3129 
Q 3597 2675 3597 1894 
z
M 3022 2063 
Q 3016 2534 2758 2815 
Q 2500 3097 2075 3097 
Q 1594 3097 1305 2825 
Q 1016 2553 972 2059 
L 3022 2063 
z
" transform="scale(0.015625)"/>
      </defs>
      <use xlink:href="#DejaVuSans-74"/>
      <use xlink:href="#DejaVuSans-61" x="39.208984"/>
      <use xlink:href="#DejaVuSans-72" x="100.488281"/>
      <use xlink:href="#DejaVuSans-67" x="139.851562"/>
      <use xlink:href="#DejaVuSans-65" x="203.328125"/>
      <use xlink:href="#DejaVuSans-74" x="264.851562"/>
     </g>
    </g>
   </g>
  </g>
 </g>
 <defs>
  <clipPath id="p473469a446">
   <rect x="135" y="60.48" width="837" height="388.08"/>
  </clipPath>
 </defs>
</svg>
