<?xml version="1.0" encoding="utf-8" standalone="no"?>
<!DOCTYPE svg PUBLIC "-//W3C//DTD SVG 1.1//EN"
  "http://www.w3.org/Graphics/SVG/1.1/DTD/svg11.dtd">
<svg xmlns:xlink="http://www.w3.org/1999/xlink" width="1080pt" height="504pt" viewBox="0 0 1080 504" xmlns="http://www.w3.org/2000/svg" version="1.1">
 <metadata>
  <rdf:RDF xmlns:dc="http://purl.org/dc/elements/1.1/" xmlns:cc="http://creativecommons.org/ns#" xmlns:rdf="http://www.w3.org/1999/02/22-rdf-syntax-ns#">
   <cc:Work>
    <dc:type rdf:resource="http://purl.org/dc/dcmitype/StillImage"/>
    <dc:date>2024-05-09T11:08:33.544703</dc:date>
    <dc:format>image/svg+xml</dc:format>
    <dc:creator>
     <cc:Agent>
      <dc:title>Matplotlib v3.7.1, https://matplotlib.org/</dc:title>
     </cc:Agent>
    </dc:creator>
   </cc:Work>
  </rdf:RDF>
 </metadata>
 <defs>
  <style type="text/css">*{stroke-linejoin: round; stroke-linecap: butt}</style>
 </defs>
 <g id="figure_1">
  <g id="patch_1">
   <path d="M 0 504 
L 1080 504 
L 1080 0 
L 0 0 
z
" style="fill: #ffffff"/>
  </g>
  <g id="axes_1">
   <g id="patch_2">
    <path d="M 135 448.56 
L 972 448.56 
L 972 60.48 
L 135 60.48 
z
" style="fill: #ffffff"/>
   </g>
   <g id="matplotlib.axis_1">
    <g id="xtick_1">
     <g id="line2d_1">
      <defs>
       <path id="mcf02847f7a" d="M 0 0 
L 0 3.5 
" style="stroke: #000000; stroke-width: 0.8"/>
      </defs>
      <g>
       <use xlink:href="#mcf02847f7a" x="173.045455" y="448.56" style="stroke: #000000; stroke-width: 0.8"/>
      </g>
     </g>
     <g id="text_1">
      <!-- 0 -->
      <g transform="translate(169.864205 463.158437) scale(0.1 -0.1)">
       <defs>
        <path id="DejaVuSans-30" d="M 2034 4250 
Q 1547 4250 1301 3770 
Q 1056 3291 1056 2328 
Q 1056 1369 1301 889 
Q 1547 409 2034 409 
Q 2525 409 2770 889 
Q 3016 1369 3016 2328 
Q 3016 3291 2770 3770 
Q 2525 4250 2034 4250 
z
M 2034 4750 
Q 2819 4750 3233 4129 
Q 3647 3509 3647 2328 
Q 3647 1150 3233 529 
Q 2819 -91 2034 -91 
Q 1250 -91 836 529 
Q 422 1150 422 2328 
Q 422 3509 836 4129 
Q 1250 4750 2034 4750 
z
" transform="scale(0.015625)"/>
       </defs>
       <use xlink:href="#DejaVuSans-30"/>
      </g>
     </g>
    </g>
    <g id="xtick_2">
     <g id="line2d_2">
      <g>
       <use xlink:href="#mcf02847f7a" x="333.33808" y="448.56" style="stroke: #000000; stroke-width: 0.8"/>
      </g>
     </g>
     <g id="text_2">
      <!-- 1000 -->
      <g transform="translate(320.61308 463.158437) scale(0.1 -0.1)">
       <defs>
        <path id="DejaVuSans-31" d="M 794 531 
L 1825 531 
L 1825 4091 
L 703 3866 
L 703 4441 
L 1819 4666 
L 2450 4666 
L 2450 531 
L 3481 531 
L 3481 0 
L 794 0 
L 794 531 
z
" transform="scale(0.015625)"/>
       </defs>
       <use xlink:href="#DejaVuSans-31"/>
       <use xlink:href="#DejaVuSans-30" x="63.623047"/>
       <use xlink:href="#DejaVuSans-30" x="127.246094"/>
       <use xlink:href="#DejaVuSans-30" x="190.869141"/>
      </g>
     </g>
    </g>
    <g id="xtick_3">
     <g id="line2d_3">
      <g>
       <use xlink:href="#mcf02847f7a" x="493.630705" y="448.56" style="stroke: #000000; stroke-width: 0.8"/>
      </g>
     </g>
     <g id="text_3">
      <!-- 2000 -->
      <g transform="translate(480.905705 463.158437) scale(0.1 -0.1)">
       <defs>
        <path id="DejaVuSans-32" d="M 1228 531 
L 3431 531 
L 3431 0 
L 469 0 
L 469 531 
Q 828 903 1448 1529 
Q 2069 2156 2228 2338 
Q 2531 2678 2651 2914 
Q 2772 3150 2772 3378 
Q 2772 3750 2511 3984 
Q 2250 4219 1831 4219 
Q 1534 4219 1204 4116 
Q 875 4013 500 3803 
L 500 4441 
Q 881 4594 1212 4672 
Q 1544 4750 1819 4750 
Q 2544 4750 2975 4387 
Q 3406 4025 3406 3419 
Q 3406 3131 3298 2873 
Q 3191 2616 2906 2266 
Q 2828 2175 2409 1742 
Q 1991 1309 1228 531 
z
" transform="scale(0.015625)"/>
       </defs>
       <use xlink:href="#DejaVuSans-32"/>
       <use xlink:href="#DejaVuSans-30" x="63.623047"/>
       <use xlink:href="#DejaVuSans-30" x="127.246094"/>
       <use xlink:href="#DejaVuSans-30" x="190.869141"/>
      </g>
     </g>
    </g>
    <g id="xtick_4">
     <g id="line2d_4">
      <g>
       <use xlink:href="#mcf02847f7a" x="653.92333" y="448.56" style="stroke: #000000; stroke-width: 0.8"/>
      </g>
     </g>
     <g id="text_4">
      <!-- 3000 -->
      <g transform="translate(641.19833 463.158437) scale(0.1 -0.1)">
       <defs>
        <path id="DejaVuSans-33" d="M 2597 2516 
Q 3050 2419 3304 2112 
Q 3559 1806 3559 1356 
Q 3559 666 3084 287 
Q 2609 -91 1734 -91 
Q 1441 -91 1130 -33 
Q 819 25 488 141 
L 488 750 
Q 750 597 1062 519 
Q 1375 441 1716 441 
Q 2309 441 2620 675 
Q 2931 909 2931 1356 
Q 2931 1769 2642 2001 
Q 2353 2234 1838 2234 
L 1294 2234 
L 1294 2753 
L 1863 2753 
Q 2328 2753 2575 2939 
Q 2822 3125 2822 3475 
Q 2822 3834 2567 4026 
Q 2313 4219 1838 4219 
Q 1578 4219 1281 4162 
Q 984 4106 628 3988 
L 628 4550 
Q 988 4650 1302 4700 
Q 1616 4750 1894 4750 
Q 2613 4750 3031 4423 
Q 3450 4097 3450 3541 
Q 3450 3153 3228 2886 
Q 3006 2619 2597 2516 
z
" transform="scale(0.015625)"/>
       </defs>
       <use xlink:href="#DejaVuSans-33"/>
       <use xlink:href="#DejaVuSans-30" x="63.623047"/>
       <use xlink:href="#DejaVuSans-30" x="127.246094"/>
       <use xlink:href="#DejaVuSans-30" x="190.869141"/>
      </g>
     </g>
    </g>
    <g id="xtick_5">
     <g id="line2d_5">
      <g>
       <use xlink:href="#mcf02847f7a" x="814.215955" y="448.56" style="stroke: #000000; stroke-width: 0.8"/>
      </g>
     </g>
     <g id="text_5">
      <!-- 4000 -->
      <g transform="translate(801.490955 463.158437) scale(0.1 -0.1)">
       <defs>
        <path id="DejaVuSans-34" d="M 2419 4116 
L 825 1625 
L 2419 1625 
L 2419 4116 
z
M 2253 4666 
L 3047 4666 
L 3047 1625 
L 3713 1625 
L 3713 1100 
L 3047 1100 
L 3047 0 
L 2419 0 
L 2419 1100 
L 313 1100 
L 313 1709 
L 2253 4666 
z
" transform="scale(0.015625)"/>
       </defs>
       <use xlink:href="#DejaVuSans-34"/>
       <use xlink:href="#DejaVuSans-30" x="63.623047"/>
       <use xlink:href="#DejaVuSans-30" x="127.246094"/>
       <use xlink:href="#DejaVuSans-30" x="190.869141"/>
      </g>
     </g>
    </g>
    <g id="text_6">
     <!-- t -->
     <g transform="translate(551.539844 476.836563) scale(0.1 -0.1)">
      <defs>
       <path id="DejaVuSans-74" d="M 1172 4494 
L 1172 3500 
L 2356 3500 
L 2356 3053 
L 1172 3053 
L 1172 1153 
Q 1172 725 1289 603 
Q 1406 481 1766 481 
L 2356 481 
L 2356 0 
L 1766 0 
Q 1100 0 847 248 
Q 594 497 594 1153 
L 594 3053 
L 172 3053 
L 172 3500 
L 594 3500 
L 594 4494 
L 1172 4494 
z
" transform="scale(0.015625)"/>
      </defs>
      <use xlink:href="#DejaVuSans-74"/>
     </g>
    </g>
   </g>
   <g id="matplotlib.axis_2">
    <g id="ytick_1">
     <g id="line2d_6">
      <defs>
       <path id="m7053bf3552" d="M 0 0 
L -3.5 0 
" style="stroke: #000000; stroke-width: 0.8"/>
      </defs>
      <g>
       <use xlink:href="#m7053bf3552" x="135" y="404.628318" style="stroke: #000000; stroke-width: 0.8"/>
      </g>
     </g>
     <g id="text_7">
      <!-- −0.2 -->
      <g transform="translate(103.717187 408.427536) scale(0.1 -0.1)">
       <defs>
        <path id="DejaVuSans-2212" d="M 678 2272 
L 4684 2272 
L 4684 1741 
L 678 1741 
L 678 2272 
z
" transform="scale(0.015625)"/>
        <path id="DejaVuSans-2e" d="M 684 794 
L 1344 794 
L 1344 0 
L 684 0 
L 684 794 
z
" transform="scale(0.015625)"/>
       </defs>
       <use xlink:href="#DejaVuSans-2212"/>
       <use xlink:href="#DejaVuSans-30" x="83.789062"/>
       <use xlink:href="#DejaVuSans-2e" x="147.412109"/>
       <use xlink:href="#DejaVuSans-32" x="179.199219"/>
      </g>
     </g>
    </g>
    <g id="ytick_2">
     <g id="line2d_7">
      <g>
       <use xlink:href="#m7053bf3552" x="135" y="354.48951" style="stroke: #000000; stroke-width: 0.8"/>
      </g>
     </g>
     <g id="text_8">
      <!-- 0.0 -->
      <g transform="translate(112.096875 358.288728) scale(0.1 -0.1)">
       <use xlink:href="#DejaVuSans-30"/>
       <use xlink:href="#DejaVuSans-2e" x="63.623047"/>
       <use xlink:href="#DejaVuSans-30" x="95.410156"/>
      </g>
     </g>
    </g>
    <g id="ytick_3">
     <g id="line2d_8">
      <g>
       <use xlink:href="#m7053bf3552" x="135" y="304.350702" style="stroke: #000000; stroke-width: 0.8"/>
      </g>
     </g>
     <g id="text_9">
      <!-- 0.2 -->
      <g transform="translate(112.096875 308.149921) scale(0.1 -0.1)">
       <use xlink:href="#DejaVuSans-30"/>
       <use xlink:href="#DejaVuSans-2e" x="63.623047"/>
       <use xlink:href="#DejaVuSans-32" x="95.410156"/>
      </g>
     </g>
    </g>
    <g id="ytick_4">
     <g id="line2d_9">
      <g>
       <use xlink:href="#m7053bf3552" x="135" y="254.211894" style="stroke: #000000; stroke-width: 0.8"/>
      </g>
     </g>
     <g id="text_10">
      <!-- 0.4 -->
      <g transform="translate(112.096875 258.011113) scale(0.1 -0.1)">
       <use xlink:href="#DejaVuSans-30"/>
       <use xlink:href="#DejaVuSans-2e" x="63.623047"/>
       <use xlink:href="#DejaVuSans-34" x="95.410156"/>
      </g>
     </g>
    </g>
    <g id="ytick_5">
     <g id="line2d_10">
      <g>
       <use xlink:href="#m7053bf3552" x="135" y="204.073086" style="stroke: #000000; stroke-width: 0.8"/>
      </g>
     </g>
     <g id="text_11">
      <!-- 0.6 -->
      <g transform="translate(112.096875 207.872305) scale(0.1 -0.1)">
       <defs>
        <path id="DejaVuSans-36" d="M 2113 2584 
Q 1688 2584 1439 2293 
Q 1191 2003 1191 1497 
Q 1191 994 1439 701 
Q 1688 409 2113 409 
Q 2538 409 2786 701 
Q 3034 994 3034 1497 
Q 3034 2003 2786 2293 
Q 2538 2584 2113 2584 
z
M 3366 4563 
L 3366 3988 
Q 3128 4100 2886 4159 
Q 2644 4219 2406 4219 
Q 1781 4219 1451 3797 
Q 1122 3375 1075 2522 
Q 1259 2794 1537 2939 
Q 1816 3084 2150 3084 
Q 2853 3084 3261 2657 
Q 3669 2231 3669 1497 
Q 3669 778 3244 343 
Q 2819 -91 2113 -91 
Q 1303 -91 875 529 
Q 447 1150 447 2328 
Q 447 3434 972 4092 
Q 1497 4750 2381 4750 
Q 2619 4750 2861 4703 
Q 3103 4656 3366 4563 
z
" transform="scale(0.015625)"/>
       </defs>
       <use xlink:href="#DejaVuSans-30"/>
       <use xlink:href="#DejaVuSans-2e" x="63.623047"/>
       <use xlink:href="#DejaVuSans-36" x="95.410156"/>
      </g>
     </g>
    </g>
    <g id="ytick_6">
     <g id="line2d_11">
      <g>
       <use xlink:href="#m7053bf3552" x="135" y="153.934278" style="stroke: #000000; stroke-width: 0.8"/>
      </g>
     </g>
     <g id="text_12">
      <!-- 0.8 -->
      <g transform="translate(112.096875 157.733497) scale(0.1 -0.1)">
       <defs>
        <path id="DejaVuSans-38" d="M 2034 2216 
Q 1584 2216 1326 1975 
Q 1069 1734 1069 1313 
Q 1069 891 1326 650 
Q 1584 409 2034 409 
Q 2484 409 2743 651 
Q 3003 894 3003 1313 
Q 3003 1734 2745 1975 
Q 2488 2216 2034 2216 
z
M 1403 2484 
Q 997 2584 770 2862 
Q 544 3141 544 3541 
Q 544 4100 942 4425 
Q 1341 4750 2034 4750 
Q 2731 4750 3128 4425 
Q 3525 4100 3525 3541 
Q 3525 3141 3298 2862 
Q 3072 2584 2669 2484 
Q 3125 2378 3379 2068 
Q 3634 1759 3634 1313 
Q 3634 634 3220 271 
Q 2806 -91 2034 -91 
Q 1263 -91 848 271 
Q 434 634 434 1313 
Q 434 1759 690 2068 
Q 947 2378 1403 2484 
z
M 1172 3481 
Q 1172 3119 1398 2916 
Q 1625 2713 2034 2713 
Q 2441 2713 2670 2916 
Q 2900 3119 2900 3481 
Q 2900 3844 2670 4047 
Q 2441 4250 2034 4250 
Q 1625 4250 1398 4047 
Q 1172 3844 1172 3481 
z
" transform="scale(0.015625)"/>
       </defs>
       <use xlink:href="#DejaVuSans-30"/>
       <use xlink:href="#DejaVuSans-2e" x="63.623047"/>
       <use xlink:href="#DejaVuSans-38" x="95.410156"/>
      </g>
     </g>
    </g>
    <g id="ytick_7">
     <g id="line2d_12">
      <g>
       <use xlink:href="#m7053bf3552" x="135" y="103.79547" style="stroke: #000000; stroke-width: 0.8"/>
      </g>
     </g>
     <g id="text_13">
      <!-- 1.0 -->
      <g transform="translate(112.096875 107.594689) scale(0.1 -0.1)">
       <use xlink:href="#DejaVuSans-31"/>
       <use xlink:href="#DejaVuSans-2e" x="63.623047"/>
       <use xlink:href="#DejaVuSans-30" x="95.410156"/>
      </g>
     </g>
    </g>
   </g>
   <g id="line2d_13">
    <path d="M 173.045455 165.381208 
L 173.205747 143.947713 
L 173.686625 183.570542 
L 174.00721 198.845376 
L 174.167503 202.010185 
L 174.327796 200.1338 
L 174.648381 183.042255 
L 175.129259 155.40483 
L 175.289551 153.08122 
L 175.449844 154.770995 
L 176.251307 175.542973 
L 176.4116 172.895546 
L 176.732185 157.822577 
L 177.693941 89.165743 
L 177.854233 358.033387 
L 178.014526 427.957645 
L 178.174819 430.92 
L 178.655696 408.003482 
L 178.976282 391.410788 
L 179.938037 318.143428 
L 180.258623 311.648776 
L 180.418915 311.456333 
L 180.579208 312.734462 
L 180.899793 318.584567 
L 182.182134 350.980001 
L 182.342427 351.608549 
L 182.502719 350.845219 
L 182.823305 345.202321 
L 183.304183 328.860975 
L 184.105646 300.398108 
L 184.426231 294.525652 
L 184.746816 292.44235 
L 184.907109 292.492449 
L 185.227694 293.712199 
L 185.548279 294.789272 
L 185.708572 294.6752 
L 185.868865 293.847233 
L 186.18945 289.426334 
L 186.510035 280.739546 
L 186.990913 259.953021 
L 188.754132 170.937734 
L 189.074717 164.444877 
L 189.395302 162.350544 
L 189.555595 162.851141 
L 189.87618 166.585939 
L 190.357058 177.652143 
L 191.158521 204.487721 
L 192.761447 260.057897 
L 193.562911 279.563733 
L 194.043788 287.267615 
L 194.524666 291.926932 
L 194.845252 293.500274 
L 195.165837 294.041857 
L 195.326129 293.990622 
L 195.646715 293.38527 
L 196.127593 291.64317 
L 197.409934 286.407786 
L 197.890811 285.229293 
L 198.371689 284.634352 
L 198.692275 284.537596 
L 199.01286 284.651756 
L 199.493738 285.159862 
L 200.134908 286.338121 
L 200.936371 288.388229 
L 202.218712 292.437755 
L 204.142224 299.33778 
L 208.951003 317.25046 
L 210.874514 323.166167 
L 212.798026 328.343667 
L 213.278903 329.524051 
L 213.439196 142.540111 
L 213.599489 122.283634 
L 214.080367 164.869744 
L 214.400952 181.797941 
L 214.561244 185.520153 
L 214.721537 184.008396 
L 215.042122 167.199967 
L 215.523 139.633681 
L 215.683293 137.411782 
L 215.843585 139.281016 
L 216.645049 162.025255 
L 216.805341 159.890396 
L 217.125926 145.830787 
L 218.087682 79.609892 
L 218.247975 348.567845 
L 218.408267 418.732677 
L 218.56856 422.01525 
L 218.889145 405.227786 
L 219.209731 393.829944 
L 219.530316 371.209819 
L 220.171486 318.953647 
L 220.492072 307.494596 
L 220.652364 305.50789 
L 220.812657 305.386807 
L 220.972949 306.727917 
L 221.293535 312.687019 
L 222.575876 345.515204 
L 222.736168 346.19611 
L 222.896461 345.480838 
L 223.217046 339.919529 
L 223.697924 323.676035 
L 224.499387 295.432358 
L 224.819972 289.70313 
L 225.140558 287.798484 
L 225.30085 287.949318 
L 226.102313 290.700442 
L 226.262606 289.990456 
L 226.583191 285.802385 
L 226.903777 277.341028 
L 227.384654 256.875078 
L 229.147873 168.819813 
L 229.468459 162.454423 
L 229.628751 160.929667 
L 229.789044 160.470383 
L 229.949336 161.019741 
L 230.269922 164.839899 
L 230.7508 176.007027 
L 231.552263 202.95879 
L 233.155189 258.694373 
L 233.956652 278.283955 
L 234.43753 286.039537 
L 234.918408 290.751129 
L 235.238993 292.359494 
L 235.559578 292.936143 
L 235.719871 292.902425 
L 236.040456 292.331986 
L 236.521334 290.641606 
L 237.803675 285.535048 
L 238.284553 284.399766 
L 238.765431 283.844966 
L 239.086016 283.77337 
L 239.406601 283.911534 
L 239.887479 284.453737 
L 240.52865 285.674431 
L 241.330113 287.773498 
L 242.612454 291.893243 
L 244.535965 298.883386 
L 249.344744 316.962525 
L 251.268256 322.926528 
L 253.191767 328.144102 
L 253.99323 330.099841 
L 254.153523 143.066778 
L 254.313815 122.782189 
L 254.794693 165.297666 
L 255.115279 182.187108 
L 255.275571 185.896221 
L 255.435864 184.375802 
L 255.756449 167.560314 
L 256.237327 139.991774 
L 256.39762 137.767419 
L 256.557912 139.632451 
L 257.359375 162.331283 
L 257.519668 160.184633 
L 257.840253 146.101675 
L 258.802009 79.824453 
L 258.962302 348.780173 
L 259.122594 418.93943 
L 259.282887 422.21466 
L 259.603472 405.410776 
L 259.924057 393.998 
L 260.244643 371.366643 
L 260.885813 319.09676 
L 261.206398 307.633262 
L 261.366691 305.644728 
L 261.526984 305.52204 
L 261.687276 306.861732 
L 262.007861 312.818376 
L 263.290202 345.636844 
L 263.450495 346.316581 
L 263.610788 345.600236 
L 263.931373 340.03711 
L 264.412251 323.791446 
L 265.213714 295.542911 
L 265.534299 289.810499 
L 265.854884 287.901877 
L 266.015177 288.050467 
L 266.81664 290.788919 
L 266.976933 290.076301 
L 267.297518 285.883036 
L 267.618103 277.41665 
L 268.098981 256.94355 
L 269.8622 168.866905 
L 270.182785 162.49868 
L 270.343078 160.972649 
L 270.503371 160.512187 
L 270.663663 161.060461 
L 270.984248 164.878722 
L 271.465126 176.04361 
L 272.266589 202.992796 
L 273.869516 258.724714 
L 274.670979 278.312438 
L 275.151857 286.066871 
L 275.632735 290.777301 
L 275.95332 292.384887 
L 276.273905 292.960757 
L 276.434198 292.926649 
L 276.754783 292.355434 
L 277.235661 290.663902 
L 278.518002 285.554477 
L 278.99888 284.418234 
L 279.479758 283.862539 
L 279.800343 283.790383 
L 280.120928 283.928013 
L 280.601806 284.469456 
L 281.242976 285.689205 
L 282.04444 287.787182 
L 283.326781 291.905363 
L 285.250292 298.8935 
L 290.059071 316.968933 
L 291.982582 322.931861 
L 293.585509 327.329789 
L 293.745801 140.532571 
L 293.906094 120.381454 
L 294.386972 163.233437 
L 294.707557 180.308622 
L 294.86785 184.080333 
L 295.028142 182.600979 
L 295.348727 165.817678 
L 295.829605 138.256684 
L 295.989898 136.043122 
L 296.150191 137.92746 
L 296.951654 160.842195 
L 297.111946 158.752102 
L 297.432532 144.781336 
L 298.394287 78.775753 
L 298.55458 347.742159 
L 298.714873 417.928492 
L 298.875165 421.239483 
L 299.19575 404.515682 
L 299.516336 393.175783 
L 299.836921 370.599206 
L 300.478091 318.396105 
L 300.798677 306.954261 
L 300.958969 304.974631 
L 301.119262 304.859767 
L 301.279555 306.206378 
L 301.60014 312.175028 
L 302.882481 345.041111 
L 303.042773 345.726585 
L 303.203066 345.015501 
L 303.523651 339.461291 
L 304.004529 323.226282 
L 304.805992 295.001571 
L 305.126578 289.284757 
L 305.447163 287.39561 
L 305.607455 287.555188 
L 306.408919 290.355691 
L 306.569211 289.655961 
L 306.889796 285.488131 
L 307.210382 277.046371 
L 307.69126 256.608282 
L 309.454478 168.636338 
L 309.775064 162.281995 
L 309.935356 160.762203 
L 310.095649 160.307509 
L 310.255942 160.86109 
L 310.576527 164.688638 
L 311.057405 175.864498 
L 311.858868 202.826298 
L 313.461794 258.576155 
L 314.263257 278.172978 
L 314.744135 285.933035 
L 315.225013 290.649155 
L 315.545598 292.260554 
L 315.866183 292.840242 
L 316.026476 292.808042 
L 316.347061 292.240629 
L 316.827939 290.554733 
L 318.11028 285.459348 
L 318.591158 284.327815 
L 319.072036 283.776496 
L 319.392621 283.707084 
L 319.713206 283.84733 
L 320.194084 284.392491 
L 320.835255 285.616866 
L 321.636718 287.720182 
L 322.919059 291.846019 
L 324.84257 298.84398 
L 329.651349 316.937558 
L 331.574861 322.90575 
L 333.498372 328.126799 
L 333.818957 328.925431 
L 333.97925 141.99254 
L 334.139543 121.764687 
L 334.620421 164.422912 
L 334.941006 181.391032 
L 335.101298 185.12668 
L 335.261591 183.623708 
L 335.582176 166.822069 
L 336.063054 139.25724 
L 336.223347 137.037642 
L 336.383639 138.911028 
L 337.185103 161.701922 
L 337.345395 159.579288 
L 337.66598 145.543915 
L 338.627736 79.381601 
L 338.788029 348.341797 
L 338.948321 418.512455 
L 339.108614 421.802753 
L 339.429199 405.032625 
L 339.749785 393.650581 
L 340.07037 371.042344 
L 340.71154 318.800687 
L 341.032126 307.34635 
L 341.192418 305.361583 
L 341.352711 305.242204 
L 341.513003 306.584821 
L 341.833589 312.546537 
L 343.11593 345.385102 
L 343.276222 346.06726 
L 343.436515 345.353135 
L 343.7571 339.793772 
L 344.237978 323.552604 
L 345.039441 295.314132 
L 345.360026 289.588311 
L 345.680612 287.687918 
L 345.840904 287.841152 
L 346.642367 290.605825 
L 346.80266 289.898653 
L 347.123245 285.716135 
L 347.443831 277.260155 
L 347.924708 256.801849 
L 349.687927 168.76945 
L 350.008513 162.407093 
L 350.168805 160.883698 
L 350.329098 160.425674 
L 350.48939 160.976192 
L 350.809976 164.798378 
L 351.290854 175.967903 
L 352.092317 202.922422 
L 353.695243 258.661924 
L 354.496706 278.253495 
L 354.977584 286.010305 
L 355.458462 290.72314 
L 355.779047 292.332338 
L 356.099632 292.909822 
L 356.259925 292.87652 
L 356.58051 292.306912 
L 357.061388 290.617763 
L 358.343729 285.514272 
L 358.824607 284.380019 
L 359.305485 283.826174 
L 359.62607 283.755178 
L 359.946655 283.893913 
L 360.427533 284.436928 
L 361.068704 285.658632 
L 361.870167 287.758865 
L 363.152508 291.880282 
L 365.076019 298.872571 
L 369.884798 316.955673 
L 371.80831 322.920825 
L 373.090651 326.480771 
L 373.250943 139.755536 
L 373.411236 119.644885 
L 373.892114 162.599047 
L 374.212699 179.73087 
L 374.372992 183.52164 
L 374.533284 182.054725 
L 374.853869 165.28089 
L 375.334747 137.721457 
L 375.49504 135.510966 
L 375.655333 137.40101 
L 376.456796 160.38137 
L 376.617088 158.308594 
L 376.937674 144.372251 
L 377.899429 78.450409 
L 378.059722 347.420149 
L 378.220015 417.6149 
L 378.380307 420.937007 
L 378.700892 404.238104 
L 379.021478 392.920854 
L 379.342063 370.36129 
L 379.983233 318.178886 
L 380.303819 306.743741 
L 380.464111 304.766869 
L 380.624404 304.654427 
L 380.784697 306.003182 
L 381.105282 311.975559 
L 382.387623 344.856453 
L 382.547915 345.543712 
L 382.708208 344.834266 
L 383.028793 339.282835 
L 383.509671 323.051148 
L 384.311134 294.833842 
L 384.63172 289.121865 
L 384.952305 287.238756 
L 385.112597 287.40174 
L 385.914061 290.221472 
L 386.074353 289.525736 
L 386.394938 285.365788 
L 386.715524 276.93166 
L 387.196402 256.504421 
L 388.95962 168.564922 
L 389.280206 162.21488 
L 389.440498 160.697019 
L 389.600791 160.244113 
L 389.761084 160.799338 
L 390.081669 164.629762 
L 390.562547 175.80902 
L 391.36401 202.774727 
L 392.966936 258.53014 
L 393.768399 278.129781 
L 394.249277 285.89158 
L 394.730155 290.609461 
L 395.05074 292.222041 
L 395.371325 292.802912 
L 395.531618 292.771303 
L 395.852203 292.205068 
L 396.333081 290.520917 
L 397.615422 285.42988 
L 398.0963 284.299806 
L 398.577178 283.749843 
L 398.897763 283.68128 
L 399.218348 283.822337 
L 399.699226 284.36865 
L 400.340397 285.594458 
L 401.14186 287.699427 
L 402.424201 291.827635 
L 404.347712 298.82864 
L 409.156491 316.927839 
L 411.080003 322.897661 
L 413.003514 328.120063 
L 413.644685 329.696657 
L 413.804977 142.698009 
L 413.96527 122.432885 
L 414.446148 164.99727 
L 414.766733 181.913666 
L 414.927026 185.631872 
L 415.087318 184.117435 
L 415.407904 167.306712 
L 415.888781 139.739511 
L 416.049074 137.516817 
L 416.209367 139.384744 
L 417.01083 162.11528 
L 417.171122 159.976883 
L 417.491708 145.91027 
L 418.453463 79.672461 
L 418.613756 348.629705 
L 418.774049 418.792864 
L 418.934341 422.073255 
L 419.254927 405.280938 
L 419.575512 393.878699 
L 419.896097 371.255273 
L 420.537268 318.995081 
L 420.857853 307.53473 
L 421.018145 305.54749 
L 421.178438 305.425939 
L 421.338731 306.766635 
L 421.659316 312.725021 
L 422.941657 345.550388 
L 423.10195 346.230956 
L 423.262242 345.515373 
L 423.582827 339.953539 
L 424.063705 323.709419 
L 424.865168 295.464341 
L 425.185754 289.734193 
L 425.506339 287.828397 
L 425.666632 287.978582 
L 426.468095 290.726038 
L 426.628387 290.01529 
L 426.948973 285.825716 
L 427.269558 277.362903 
L 427.750436 256.894884 
L 429.513655 168.833434 
L 429.83424 162.467224 
L 429.994532 160.942098 
L 430.154825 160.482474 
L 430.315118 161.031519 
L 430.635703 164.851128 
L 431.116581 176.017608 
L 431.918044 202.968626 
L 433.52097 258.703149 
L 434.322433 278.292194 
L 434.803311 286.047444 
L 435.284189 290.7587 
L 435.604774 292.36684 
L 435.92536 292.943264 
L 436.085652 292.909433 
L 436.406237 292.33877 
L 436.887115 290.648056 
L 438.169456 285.540669 
L 438.650334 284.40511 
L 439.131212 283.85005 
L 439.451797 283.778293 
L 439.772383 283.916302 
L 440.25326 284.458285 
L 440.894431 285.678705 
L 441.695894 287.777457 
L 442.978235 291.89675 
L 444.901747 298.886312 
L 449.710525 316.964379 
L 451.634037 322.928071 
L 453.557548 328.145387 
L 453.717841 141.278886 
L 453.878134 121.088642 
L 454.359011 163.841778 
L 454.679597 180.862289 
L 454.839889 184.615591 
L 455.000182 183.124196 
L 455.320767 166.331612 
L 455.801645 138.768831 
L 455.961938 136.552239 
L 456.12223 138.431029 
L 456.923693 161.282598 
L 457.083986 159.175877 
L 457.404571 145.172084 
L 458.366327 79.086293 
L 458.52662 348.049512 
L 458.686912 418.227808 
L 458.847205 421.528188 
L 459.16779 404.780631 
L 459.488375 393.419121 
L 459.808961 370.826313 
L 460.450131 318.603457 
L 460.770716 307.155213 
L 460.931009 305.172952 
L 461.091302 305.055775 
L 461.251594 306.400339 
L 461.57218 312.365435 
L 462.854521 345.217406 
L 463.014813 345.901179 
L 463.175106 345.188534 
L 463.495691 339.631681 
L 463.976569 323.393511 
L 464.778032 295.161744 
L 465.098617 289.440314 
L 465.419203 287.545403 
L 465.579495 287.70173 
L 466.380958 290.483871 
L 466.541251 289.780327 
L 466.861836 285.60497 
L 467.182421 277.155922 
L 467.663299 256.707473 
L 469.426518 168.704548 
L 469.747103 162.346098 
L 469.907396 160.824459 
L 470.067689 160.368059 
L 470.227981 160.92007 
L 470.548567 164.744871 
L 471.029444 175.917484 
L 471.830908 202.875553 
L 473.433834 258.620105 
L 474.235297 278.214237 
L 474.716175 285.97263 
L 475.197053 290.687067 
L 475.517638 292.297338 
L 475.838223 292.875897 
L 475.998516 292.843132 
L 476.319101 292.274594 
L 476.799979 290.587031 
L 478.08232 285.487492 
L 478.563198 284.354566 
L 479.044076 283.801953 
L 479.364661 283.731729 
L 479.685246 283.871201 
L 480.166124 284.415262 
L 480.807295 285.638268 
L 481.608758 287.740004 
L 482.891099 291.863577 
L 484.81461 298.858631 
L 489.623389 316.946841 
L 491.5469 322.913475 
L 493.470412 328.133232 
L 493.630705 328.535068 
L 493.790997 141.635418 
L 493.95129 121.426399 
L 494.432168 164.132134 
L 494.752753 181.12647 
L 494.913046 184.870953 
L 495.073338 183.373778 
L 495.393923 166.576687 
L 495.874801 139.012924 
L 496.035094 136.794844 
L 496.195387 138.670948 
L 496.99685 161.492246 
L 497.157142 159.377578 
L 497.477728 145.358009 
L 498.439483 79.233967 
L 498.599776 348.195671 
L 498.760069 418.370145 
L 498.920361 421.66548 
L 499.240946 404.90663 
L 499.561532 393.534848 
L 499.882117 370.934323 
L 500.523287 318.702067 
L 500.843873 307.250778 
L 501.004165 305.267264 
L 501.164458 305.148986 
L 501.324751 306.492576 
L 501.645336 312.455983 
L 502.927677 345.301249 
L 503.087969 345.984214 
L 503.248262 345.270829 
L 503.568847 339.71272 
L 504.049725 323.473051 
L 504.851188 295.237931 
L 505.171774 289.514305 
L 505.492359 287.616654 
L 505.652651 287.771434 
L 506.454115 290.544842 
L 506.614407 289.839484 
L 506.934992 285.660547 
L 507.255578 277.208033 
L 507.736456 256.754656 
L 509.499674 168.736995 
L 509.82026 162.376591 
L 509.980552 160.854075 
L 510.140845 160.396863 
L 510.301138 160.948127 
L 510.621723 164.771621 
L 511.102601 175.942691 
L 511.904064 202.898984 
L 513.50699 258.641012 
L 514.308453 278.233863 
L 514.789331 285.991466 
L 515.270209 290.705101 
L 515.590794 292.314836 
L 515.911379 292.892857 
L 516.071672 292.859824 
L 516.392257 292.290751 
L 516.873135 290.602395 
L 518.155476 285.500881 
L 518.636354 284.367291 
L 519.117232 283.814062 
L 519.437817 283.743452 
L 519.758402 283.882556 
L 520.23928 284.426094 
L 520.880451 285.648449 
L 521.681914 287.749434 
L 522.964255 291.871928 
L 524.887766 298.8656 
L 529.696545 316.951256 
L 531.620057 322.91715 
L 533.543568 328.136292 
L 533.864153 328.93464 
L 534.024446 142.000962 
L 534.184739 121.772678 
L 534.665617 164.429814 
L 534.986202 181.397327 
L 535.146494 185.132772 
L 535.306787 183.629668 
L 535.627372 166.82793 
L 536.10825 139.263087 
L 536.268543 137.043456 
L 536.428835 138.91678 
L 537.230299 161.70696 
L 537.390591 159.584137 
L 537.711176 145.548392 
L 538.672932 79.385178 
L 538.833225 348.345342 
L 538.993517 418.51591 
L 539.15381 421.806089 
L 539.474395 405.035691 
L 539.794981 393.653402 
L 540.115566 371.044979 
L 540.756736 318.803095 
L 541.077322 307.348685 
L 541.237614 305.363887 
L 541.397907 305.244482 
L 541.558199 306.587075 
L 541.878785 312.54875 
L 543.161126 345.387152 
L 543.321418 346.06929 
L 543.481711 345.355147 
L 543.802296 339.795753 
L 544.283174 323.554548 
L 545.084637 295.315994 
L 545.405222 289.59012 
L 545.725808 287.68966 
L 545.8861 287.842856 
L 546.687563 290.607315 
L 546.847856 289.900099 
L 547.168441 285.717494 
L 547.489027 277.261429 
L 547.969904 256.803003 
L 549.733123 168.770244 
L 550.053709 162.407838 
L 550.214001 160.884423 
L 550.374294 160.426379 
L 550.534586 160.976878 
L 550.855172 164.799032 
L 551.33605 175.96852 
L 552.137513 202.922995 
L 553.740439 258.662435 
L 554.541902 278.253974 
L 555.02278 286.010766 
L 555.503658 290.723581 
L 555.824243 292.332766 
L 556.144828 292.910236 
L 556.305121 292.876928 
L 556.625706 292.307307 
L 557.106584 290.618138 
L 558.388925 285.514599 
L 558.869803 284.38033 
L 559.350681 283.82647 
L 559.671266 283.755464 
L 559.991851 283.894191 
L 560.472729 284.437193 
L 561.1139 285.658881 
L 561.915363 287.759096 
L 563.197704 291.880486 
L 565.121215 298.872741 
L 569.929994 316.955781 
L 571.853506 322.920915 
L 573.777017 328.139428 
L 574.257895 329.328927 
L 574.418188 142.361644 
L 574.57848 122.114322 
L 575.059358 164.723493 
L 575.379943 181.664554 
L 575.540236 185.391081 
L 575.700529 183.88212 
L 576.021114 167.075763 
L 576.501992 139.509764 
L 576.662284 137.288569 
L 576.822577 139.159121 
L 577.62404 161.918499 
L 577.784333 159.787623 
L 578.104918 145.73591 
L 579.066674 79.534082 
L 579.226966 348.492733 
L 579.387259 418.659462 
L 579.547552 421.944567 
L 579.868137 405.162808 
L 580.188722 393.770177 
L 580.509307 371.153979 
L 581.150478 318.90261 
L 581.471063 307.445123 
L 581.631356 305.45906 
L 581.791648 305.338543 
L 581.951941 306.680153 
L 582.272526 312.640123 
L 583.554867 345.471768 
L 583.71516 346.153092 
L 583.875452 345.438202 
L 584.196038 339.877543 
L 584.676916 323.634827 
L 585.478379 295.392891 
L 585.798964 289.664801 
L 586.119549 287.761575 
L 586.279842 287.91321 
L 587.081305 290.668856 
L 587.241598 289.959809 
L 587.562183 285.773591 
L 587.882768 277.314028 
L 588.363646 256.850629 
L 590.126865 168.802998 
L 590.44745 162.438621 
L 590.607743 160.914319 
L 590.768035 160.455455 
L 590.928328 161.005201 
L 591.248913 164.826036 
L 591.729791 175.993964 
L 592.531254 202.946647 
L 594.13418 258.683539 
L 594.935644 278.273786 
L 595.416521 286.029778 
L 595.897399 290.741785 
L 596.217985 292.350428 
L 596.53857 292.927356 
L 596.698862 292.893777 
L 597.019448 292.323616 
L 597.500326 290.633646 
L 598.782667 285.528113 
L 599.263544 284.393175 
L 599.744422 283.838693 
L 600.065008 283.767297 
L 600.385593 283.905652 
L 600.866471 284.448126 
L 601.507641 285.669157 
L 602.309104 287.768613 
L 603.591445 291.888917 
L 605.514957 298.879776 
L 610.323736 316.960238 
L 612.247247 322.924624 
L 613.209003 325.624425 
L 613.369295 138.971635 
L 613.529588 118.90148 
L 614.010466 161.957665 
L 614.331051 179.146164 
L 614.491344 182.956008 
L 614.651636 181.501519 
L 614.972222 164.737042 
L 615.4531 137.178971 
L 615.613392 134.971527 
L 615.773685 136.867291 
L 616.575148 159.913866 
L 616.735441 157.858592 
L 617.056026 143.95705 
L 618.017782 78.12 
L 618.178074 347.093119 
L 618.338367 417.296413 
L 618.498659 420.629806 
L 618.819245 403.95619 
L 619.13983 392.661954 
L 619.460415 370.119681 
L 620.101586 317.958314 
L 620.422171 306.529979 
L 620.582464 304.555907 
L 620.742756 304.445929 
L 620.903049 305.796864 
L 621.223634 311.77303 
L 622.505975 344.668999 
L 622.666268 345.358077 
L 622.82656 344.6503 
L 623.147146 339.101702 
L 623.628023 322.873405 
L 624.429487 294.663637 
L 624.750072 288.956574 
L 625.070657 287.079594 
L 625.23095 287.246036 
L 626.032413 290.085283 
L 626.192705 289.393599 
L 626.513291 285.241649 
L 626.833876 276.815266 
L 627.314754 256.399039 
L 629.077973 168.492464 
L 629.398558 162.146786 
L 629.558851 160.630886 
L 629.719143 160.179793 
L 629.879436 160.736686 
L 630.200021 164.570029 
L 630.680899 175.752736 
L 631.482362 202.722407 
L 633.085288 258.483457 
L 633.886751 278.085957 
L 634.367629 285.849523 
L 634.848507 290.569191 
L 635.169092 292.182969 
L 635.489678 292.76504 
L 635.64997 292.73403 
L 635.970556 292.168991 
L 636.451433 290.48661 
L 637.733774 285.399984 
L 638.214652 284.271391 
L 638.69553 283.722803 
L 639.016115 283.655102 
L 639.336701 283.796981 
L 639.817579 284.344462 
L 640.458749 285.571724 
L 641.260212 287.67837 
L 642.542553 291.808984 
L 644.466065 298.813076 
L 649.274843 316.917978 
L 651.198355 322.889454 
L 653.121866 328.113229 
L 653.92333 330.071229 
L 654.083622 143.040609 
L 654.243915 122.757363 
L 654.724793 165.276219 
L 655.045378 182.167548 
L 655.205671 185.877294 
L 655.365963 184.357285 
L 655.686548 167.542099 
L 656.167426 139.973601 
L 656.327719 137.749349 
L 656.488012 139.614575 
L 657.289475 162.315627 
L 657.449767 160.16956 
L 657.770353 146.087761 
L 658.732108 79.813335 
L 658.892401 348.769158 
L 659.052694 418.928693 
L 659.212986 422.204295 
L 659.533571 405.401247 
L 659.854157 393.989236 
L 660.174742 371.358455 
L 660.815912 319.089276 
L 661.136498 307.626007 
L 661.29679 305.637567 
L 661.457083 305.514962 
L 661.617376 306.854727 
L 661.937961 312.811499 
L 663.220302 345.630474 
L 663.380594 346.310272 
L 663.540887 345.593983 
L 663.861472 340.030953 
L 664.34235 323.785403 
L 665.143813 295.537123 
L 665.464399 289.804878 
L 665.784984 287.896464 
L 665.945276 288.045172 
L 666.74674 290.784286 
L 666.907032 290.071806 
L 667.227617 285.878813 
L 667.548203 277.41269 
L 668.029081 256.939964 
L 669.792299 168.864439 
L 670.112885 162.496362 
L 670.273177 160.970398 
L 670.43347 160.509998 
L 670.593763 161.058329 
L 670.914348 164.876689 
L 671.395226 176.041694 
L 672.196689 202.991015 
L 673.799615 258.723125 
L 674.601078 278.310946 
L 675.081956 286.06544 
L 675.562834 290.775931 
L 675.883419 292.383558 
L 676.204004 292.959468 
L 676.364297 292.925381 
L 676.684882 292.354206 
L 677.16576 290.662735 
L 678.448101 285.55346 
L 678.928979 284.417267 
L 679.409857 283.861619 
L 679.730442 283.789493 
L 680.051027 283.92715 
L 680.531905 284.468633 
L 681.173076 285.688431 
L 681.974539 287.786466 
L 683.25688 291.904729 
L 685.180391 298.89297 
L 689.98917 316.968598 
L 691.912682 322.931582 
L 693.836193 328.148311 
L 694.156778 328.946298 
L 694.317071 142.011625 
L 694.477364 121.782793 
L 694.958242 164.438552 
L 695.278827 181.405296 
L 695.439119 185.140483 
L 695.599412 183.637212 
L 695.919997 166.83535 
L 696.400875 139.27049 
L 696.561168 137.050816 
L 696.72146 138.924062 
L 697.522924 161.713337 
L 697.683216 159.590277 
L 698.003801 145.55406 
L 698.965557 79.389707 
L 699.12585 348.349829 
L 699.286142 418.520284 
L 699.446435 421.810312 
L 699.76702 405.039573 
L 700.087606 393.656972 
L 700.408191 371.048315 
L 701.049361 318.806145 
L 701.369947 307.35164 
L 701.530239 305.366805 
L 701.690532 305.247365 
L 701.850824 306.589928 
L 702.17141 312.551552 
L 703.453751 345.389747 
L 703.614043 346.07186 
L 703.774336 345.357694 
L 704.094921 339.798261 
L 704.575799 323.55701 
L 705.377262 295.318352 
L 705.697847 289.59241 
L 706.018433 287.691865 
L 706.178725 287.845013 
L 706.980188 290.609202 
L 707.140481 289.90193 
L 707.461066 285.719214 
L 707.781652 277.263042 
L 708.262529 256.804464 
L 710.025748 168.771248 
L 710.346334 162.408783 
L 710.506626 160.885339 
L 710.666919 160.427271 
L 710.827211 160.977747 
L 711.147797 164.79986 
L 711.628675 175.9693 
L 712.430138 202.92372 
L 714.033064 258.663082 
L 714.834527 278.254582 
L 715.315405 286.011349 
L 715.796283 290.724139 
L 716.116868 292.333307 
L 716.437453 292.910761 
L 716.597746 292.877445 
L 716.918331 292.307807 
L 717.399209 290.618614 
L 718.68155 285.515013 
L 719.162428 284.380724 
L 719.643306 283.826845 
L 719.963891 283.755827 
L 720.284476 283.894542 
L 720.765354 284.437528 
L 721.406525 285.659196 
L 722.207988 287.759388 
L 723.490329 291.880745 
L 725.41384 298.872957 
L 730.222619 316.955918 
L 732.146131 322.921029 
L 734.069642 328.139523 
L 734.229935 141.273522 
L 734.390227 121.083553 
L 734.871105 163.837383 
L 735.19169 180.858281 
L 735.351983 184.611713 
L 735.512276 183.120402 
L 735.832861 166.32788 
L 736.313739 138.765108 
L 736.474031 136.548538 
L 736.634324 138.427367 
L 737.435787 161.27939 
L 737.59608 159.172789 
L 737.916665 145.169233 
L 738.878421 79.084015 
L 739.038713 348.047255 
L 739.199006 418.225608 
L 739.359299 421.526064 
L 739.679884 404.778678 
L 740.000469 393.417326 
L 740.321054 370.824635 
L 740.962225 318.601923 
L 741.28281 307.153727 
L 741.443103 305.171485 
L 741.603395 305.054325 
L 741.763688 306.398904 
L 742.084273 312.364026 
L 743.366614 345.2161 
L 743.526907 345.899886 
L 743.6872 345.187253 
L 744.007785 339.630419 
L 744.488663 323.392273 
L 745.290126 295.160558 
L 745.610711 289.439162 
L 745.931296 287.544294 
L 746.091589 287.700645 
L 746.893052 290.482922 
L 747.053345 289.779406 
L 747.37393 285.604105 
L 747.694515 277.155111 
L 748.175393 256.706738 
L 749.938612 168.704042 
L 750.259197 162.345623 
L 750.41949 160.823998 
L 750.579782 160.367611 
L 750.740075 160.919634 
L 751.06066 164.744454 
L 751.541538 175.917092 
L 752.343001 202.875188 
L 753.945928 258.619779 
L 754.747391 278.213931 
L 755.228269 285.972337 
L 755.709146 290.686786 
L 756.029732 292.297066 
L 756.350317 292.875633 
L 756.51061 292.842872 
L 756.831195 292.274343 
L 757.312073 290.586792 
L 758.594414 285.487284 
L 759.075292 284.354368 
L 759.556169 283.801764 
L 759.876755 283.731546 
L 760.19734 283.871024 
L 760.678218 284.415093 
L 761.319388 285.63811 
L 762.120851 287.739858 
L 763.403192 291.863447 
L 765.326704 298.858522 
L 770.135483 316.946772 
L 772.058994 322.913418 
L 773.822213 327.726151 
L 773.982506 140.895286 
L 774.142798 120.725166 
L 774.623676 163.529133 
L 774.944261 180.577753 
L 775.104554 184.34052 
L 775.264847 182.855318 
L 775.585432 166.067517 
L 776.06631 138.505686 
L 776.226602 136.290662 
L 776.386895 138.172314 
L 777.188358 161.056378 
L 777.348651 158.958204 
L 777.669236 144.971384 
L 778.630992 78.926784 
L 778.791284 347.891633 
L 778.951577 418.074052 
L 779.11187 421.379877 
L 779.432455 404.644513 
L 779.75304 393.294096 
L 780.073625 370.709622 
L 780.714796 318.496912 
L 781.035381 307.051956 
L 781.195674 305.071047 
L 781.355966 304.955059 
L 781.516259 306.300674 
L 781.836844 312.267596 
L 783.119185 345.126814 
L 783.279478 345.81146 
L 783.439771 345.099617 
L 783.760356 339.544121 
L 784.241234 323.307574 
L 785.042697 295.079432 
L 785.363282 289.360374 
L 785.683867 287.468425 
L 785.84416 287.626423 
L 786.645623 290.417999 
L 786.805916 289.716415 
L 787.126501 285.544926 
L 787.447086 277.099623 
L 787.927964 256.656498 
L 789.691183 168.669494 
L 790.011768 162.313154 
L 790.172061 160.792464 
L 790.332353 160.336941 
L 790.492646 160.889759 
L 790.813231 164.715971 
L 791.294109 175.890253 
L 792.095572 202.85024 
L 793.698499 258.597518 
L 794.499962 278.193033 
L 794.98084 285.952282 
L 795.461717 290.667583 
L 795.782303 292.278434 
L 796.102888 292.857573 
L 796.263181 292.825098 
L 796.583766 292.257139 
L 797.064644 290.570432 
L 798.346985 285.473028 
L 798.827863 284.340818 
L 799.30874 283.78887 
L 799.629326 283.719063 
L 799.949911 283.858934 
L 800.430789 284.40356 
L 801.071959 285.62727 
L 801.873422 287.729817 
L 803.155763 291.854553 
L 805.079275 298.851102 
L 809.888054 316.94207 
L 811.811565 322.909505 
L 813.414491 327.310596 
L 813.574784 140.515017 
L 813.735077 120.3648 
L 814.215955 163.219053 
L 814.53654 180.295504 
L 814.696832 184.067639 
L 814.857125 182.588562 
L 815.17771 165.805466 
L 815.658588 138.244502 
L 815.818881 136.03101 
L 815.979173 137.915478 
L 816.780637 160.8317 
L 816.940929 158.741998 
L 817.261514 144.772009 
L 818.22327 78.768299 
L 818.383563 347.734773 
L 818.543855 417.921293 
L 818.704148 421.232533 
L 819.024733 404.509293 
L 819.345319 393.169906 
L 819.665904 370.593715 
L 820.307074 318.391087 
L 820.62766 306.949396 
L 820.787952 304.96983 
L 820.948245 304.855021 
L 821.108537 306.201681 
L 821.429123 312.170417 
L 822.711464 345.03684 
L 822.871756 345.722355 
L 823.032049 345.011308 
L 823.352634 339.457163 
L 823.833512 323.22223 
L 824.634975 294.997691 
L 824.95556 289.280988 
L 825.276146 287.391981 
L 825.436438 287.551638 
L 826.237901 290.352586 
L 826.398194 289.652948 
L 826.718779 285.485299 
L 827.039365 277.043716 
L 827.520242 256.605878 
L 829.283461 168.634685 
L 829.604047 162.280442 
L 829.764339 160.760694 
L 829.924632 160.306042 
L 830.084924 160.859661 
L 830.40551 164.687275 
L 830.886388 175.863213 
L 831.687851 202.825104 
L 833.290777 258.57509 
L 834.09224 278.171978 
L 834.573118 285.932076 
L 835.053996 290.648236 
L 835.374581 292.259662 
L 835.695166 292.839378 
L 835.855459 292.807191 
L 836.176044 292.239806 
L 836.656922 290.55395 
L 837.939263 285.458666 
L 838.420141 284.327167 
L 838.901019 283.77588 
L 839.221604 283.706487 
L 839.542189 283.846752 
L 840.023067 284.39194 
L 840.664238 285.616348 
L 841.465701 287.719701 
L 842.748042 291.845593 
L 844.671553 298.843625 
L 849.480332 316.937333 
L 851.403844 322.905562 
L 853.327355 328.126643 
L 854.609696 331.193993 
L 854.769989 144.067461 
L 854.930281 123.729963 
L 855.411159 166.112964 
L 855.731744 182.929518 
L 855.892037 186.614002 
L 856.05233 185.077321 
L 856.372915 168.248625 
L 856.853793 140.675724 
L 857.014085 138.446606 
L 857.174378 140.303538 
L 857.975841 162.915536 
L 858.136134 160.746418 
L 858.456719 146.619044 
L 859.418475 80.235037 
L 859.578767 349.186662 
L 859.73906 419.335399 
L 859.899353 422.59671 
L 860.219938 405.761621 
L 860.540523 394.320405 
L 860.861108 371.667621 
L 861.502279 319.371506 
L 861.822864 307.899482 
L 861.983157 305.907443 
L 862.143449 305.781678 
L 862.303742 307.118651 
L 862.624327 313.070586 
L 863.906668 345.87042 
L 864.066961 346.547912 
L 864.227254 345.829508 
L 864.547839 340.262892 
L 865.028717 324.013054 
L 865.83018 295.755176 
L 866.150765 290.016648 
L 866.47135 288.100389 
L 866.631643 288.244671 
L 867.433106 290.958797 
L 867.593399 290.241128 
L 867.913984 286.037894 
L 868.234569 277.561855 
L 868.715447 257.075033 
L 870.478666 168.957338 
L 870.799251 162.583669 
L 870.959544 161.055192 
L 871.119836 160.592467 
L 871.280129 161.13866 
L 871.600714 164.953279 
L 872.081592 176.113862 
L 872.883055 203.058099 
L 874.485982 258.782975 
L 875.287445 278.367128 
L 875.768323 286.119355 
L 876.2492 290.827553 
L 876.569786 292.433644 
L 876.890371 293.008015 
L 877.050664 292.973159 
L 877.371249 292.400452 
L 877.852127 290.706711 
L 879.134468 285.59178 
L 879.615346 284.453689 
L 880.096223 283.896278 
L 880.416809 283.823047 
L 880.737394 283.95965 
L 881.218272 284.499636 
L 881.859442 285.71757 
L 882.660905 287.813454 
L 883.943246 291.928634 
L 885.866758 298.912918 
L 890.675537 316.981236 
L 892.599048 322.9421 
L 894.362267 327.750403 
L 894.52256 140.917468 
L 894.682852 120.746209 
L 895.16373 163.547308 
L 895.484315 180.59433 
L 895.644608 184.356559 
L 895.804901 182.871009 
L 896.125486 166.08295 
L 896.606364 138.521081 
L 896.766656 136.305969 
L 896.926949 138.187457 
L 897.728412 161.06964 
L 897.888705 158.970972 
L 898.20929 144.983172 
L 899.171046 78.936203 
L 899.331338 347.900966 
L 899.491631 418.083149 
L 899.651924 421.388659 
L 899.972509 404.652586 
L 900.293094 393.301523 
L 900.613679 370.71656 
L 901.25485 318.503254 
L 901.575435 307.058104 
L 901.735728 305.077115 
L 901.89602 304.961056 
L 902.056313 306.306609 
L 902.376898 312.273423 
L 903.659239 345.132211 
L 903.819532 345.816805 
L 903.979825 345.104915 
L 904.30041 339.549338 
L 904.781288 323.312694 
L 905.582751 295.084336 
L 905.903336 289.365136 
L 906.223921 287.473011 
L 906.384214 287.630909 
L 907.185677 290.421924 
L 907.34597 289.720223 
L 907.666555 285.548503 
L 907.98714 277.102978 
L 908.468018 256.659535 
L 910.231237 168.671583 
L 910.551822 162.315118 
L 910.712115 160.794371 
L 910.872407 160.338796 
L 911.0327 160.891566 
L 911.353285 164.717694 
L 911.834163 175.891876 
L 912.635626 202.851748 
L 914.238553 258.598864 
L 915.040016 278.194297 
L 915.520894 285.953494 
L 916.001771 290.668744 
L 916.322357 292.27956 
L 916.642942 292.858665 
L 916.803235 292.826173 
L 917.12382 292.258179 
L 917.604698 290.571421 
L 918.887039 285.47389 
L 919.367917 284.341637 
L 919.848794 283.78965 
L 920.16938 283.719818 
L 920.489965 283.859664 
L 920.970843 284.404257 
L 921.612013 285.627925 
L 922.413476 287.730424 
L 923.695817 291.855091 
L 925.619329 298.85155 
L 930.428108 316.942355 
L 932.351619 322.909741 
L 933.794253 326.893428 
L 933.954545 140.133233 
L 933.954545 140.133233 
" clip-path="url(#pe148f898b5)" style="fill: none; stroke: #1f77b4; stroke-width: 1.5; stroke-linecap: square"/>
   </g>
   <g id="line2d_14">
    <path d="M 173.045455 103.79547 
L 177.693941 103.79547 
L 177.854233 354.48951 
L 213.278903 354.48951 
L 213.439196 103.79547 
L 218.087682 103.79547 
L 218.247975 354.48951 
L 253.99323 354.48951 
L 254.153523 103.79547 
L 258.802009 103.79547 
L 258.962302 354.48951 
L 293.585509 354.48951 
L 293.745801 103.79547 
L 298.394287 103.79547 
L 298.55458 354.48951 
L 333.818957 354.48951 
L 333.97925 103.79547 
L 338.627736 103.79547 
L 338.788029 354.48951 
L 373.090651 354.48951 
L 373.250943 103.79547 
L 377.899429 103.79547 
L 378.059722 354.48951 
L 413.644685 354.48951 
L 413.804977 103.79547 
L 418.453463 103.79547 
L 418.613756 354.48951 
L 453.557548 354.48951 
L 453.717841 103.79547 
L 458.366327 103.79547 
L 458.52662 354.48951 
L 493.630705 354.48951 
L 493.790997 103.79547 
L 498.439483 103.79547 
L 498.599776 354.48951 
L 533.864153 354.48951 
L 534.024446 103.79547 
L 538.672932 103.79547 
L 538.833225 354.48951 
L 574.257895 354.48951 
L 574.418188 103.79547 
L 579.066674 103.79547 
L 579.226966 354.48951 
L 613.209003 354.48951 
L 613.369295 103.79547 
L 618.017782 103.79547 
L 618.178074 354.48951 
L 653.92333 354.48951 
L 654.083622 103.79547 
L 658.732108 103.79547 
L 658.892401 354.48951 
L 694.156778 354.48951 
L 694.317071 103.79547 
L 698.965557 103.79547 
L 699.12585 354.48951 
L 734.069642 354.48951 
L 734.229935 103.79547 
L 738.878421 103.79547 
L 739.038713 354.48951 
L 773.822213 354.48951 
L 773.982506 103.79547 
L 778.630992 103.79547 
L 778.791284 354.48951 
L 813.414491 354.48951 
L 813.574784 103.79547 
L 818.22327 103.79547 
L 818.383563 354.48951 
L 854.609696 354.48951 
L 854.769989 103.79547 
L 859.418475 103.79547 
L 859.578767 354.48951 
L 894.362267 354.48951 
L 894.52256 103.79547 
L 899.171046 103.79547 
L 899.331338 354.48951 
L 933.794253 354.48951 
L 933.954545 103.79547 
L 933.954545 103.79547 
" clip-path="url(#pe148f898b5)" style="fill: none; stroke: #ff7f0e; stroke-width: 1.5; stroke-linecap: square"/>
   </g>
   <g id="line2d_15">
    <path d="M 929.466352 354.48951 
" clip-path="url(#pe148f898b5)" style="fill: none; stroke: #000000; stroke-width: 1.5; stroke-linecap: square"/>
    <defs>
     <path id="m1ec5bbce40" d="M 0 1 
C 0.265203 1 0.51958 0.894634 0.707107 0.707107 
C 0.894634 0.51958 1 0.265203 1 0 
C 1 -0.265203 0.894634 -0.51958 0.707107 -0.707107 
C 0.51958 -0.894634 0.265203 -1 0 -1 
C -0.265203 -1 -0.51958 -0.894634 -0.707107 -0.707107 
C -0.894634 -0.51958 -1 -0.265203 -1 0 
C -1 0.265203 -0.894634 0.51958 -0.707107 0.707107 
C -0.51958 0.894634 -0.265203 1 0 1 
z
" style="stroke: #000000"/>
    </defs>
    <g clip-path="url(#pe148f898b5)">
     <use xlink:href="#m1ec5bbce40" x="173.045455" y="103.79547" style="stroke: #000000"/>
     <use xlink:href="#m1ec5bbce40" x="178.174819" y="354.48951" style="stroke: #000000"/>
     <use xlink:href="#m1ec5bbce40" x="183.14389" y="354.48951" style="stroke: #000000"/>
     <use xlink:href="#m1ec5bbce40" x="188.112961" y="103.79547" style="stroke: #000000"/>
     <use xlink:href="#m1ec5bbce40" x="193.082033" y="354.48951" style="stroke: #000000"/>
     <use xlink:href="#m1ec5bbce40" x="198.211397" y="354.48951" style="stroke: #000000"/>
     <use xlink:href="#m1ec5bbce40" x="203.180468" y="103.79547" style="stroke: #000000"/>
     <use xlink:href="#m1ec5bbce40" x="208.149539" y="354.48951" style="stroke: #000000"/>
     <use xlink:href="#m1ec5bbce40" x="213.118611" y="103.79547" style="stroke: #000000"/>
     <use xlink:href="#m1ec5bbce40" x="218.247975" y="354.48951" style="stroke: #000000"/>
     <use xlink:href="#m1ec5bbce40" x="223.217046" y="354.48951" style="stroke: #000000"/>
     <use xlink:href="#m1ec5bbce40" x="228.186118" y="103.79547" style="stroke: #000000"/>
     <use xlink:href="#m1ec5bbce40" x="233.155189" y="354.48951" style="stroke: #000000"/>
     <use xlink:href="#m1ec5bbce40" x="238.284553" y="354.48951" style="stroke: #000000"/>
     <use xlink:href="#m1ec5bbce40" x="243.253624" y="103.79547" style="stroke: #000000"/>
     <use xlink:href="#m1ec5bbce40" x="248.222696" y="354.48951" style="stroke: #000000"/>
     <use xlink:href="#m1ec5bbce40" x="253.191767" y="103.79547" style="stroke: #000000"/>
     <use xlink:href="#m1ec5bbce40" x="258.321131" y="354.48951" style="stroke: #000000"/>
     <use xlink:href="#m1ec5bbce40" x="263.290202" y="354.48951" style="stroke: #000000"/>
     <use xlink:href="#m1ec5bbce40" x="268.259274" y="103.79547" style="stroke: #000000"/>
     <use xlink:href="#m1ec5bbce40" x="273.228345" y="354.48951" style="stroke: #000000"/>
     <use xlink:href="#m1ec5bbce40" x="278.357709" y="354.48951" style="stroke: #000000"/>
     <use xlink:href="#m1ec5bbce40" x="283.326781" y="103.79547" style="stroke: #000000"/>
     <use xlink:href="#m1ec5bbce40" x="288.295852" y="354.48951" style="stroke: #000000"/>
     <use xlink:href="#m1ec5bbce40" x="293.264923" y="103.79547" style="stroke: #000000"/>
     <use xlink:href="#m1ec5bbce40" x="298.394287" y="354.48951" style="stroke: #000000"/>
     <use xlink:href="#m1ec5bbce40" x="303.363359" y="354.48951" style="stroke: #000000"/>
     <use xlink:href="#m1ec5bbce40" x="308.33243" y="103.79547" style="stroke: #000000"/>
     <use xlink:href="#m1ec5bbce40" x="313.301501" y="354.48951" style="stroke: #000000"/>
     <use xlink:href="#m1ec5bbce40" x="318.430865" y="354.48951" style="stroke: #000000"/>
     <use xlink:href="#m1ec5bbce40" x="323.399937" y="103.79547" style="stroke: #000000"/>
     <use xlink:href="#m1ec5bbce40" x="328.369008" y="354.48951" style="stroke: #000000"/>
     <use xlink:href="#m1ec5bbce40" x="333.33808" y="103.79547" style="stroke: #000000"/>
     <use xlink:href="#m1ec5bbce40" x="338.467444" y="354.48951" style="stroke: #000000"/>
     <use xlink:href="#m1ec5bbce40" x="343.436515" y="354.48951" style="stroke: #000000"/>
     <use xlink:href="#m1ec5bbce40" x="348.405586" y="103.79547" style="stroke: #000000"/>
     <use xlink:href="#m1ec5bbce40" x="353.374658" y="354.48951" style="stroke: #000000"/>
     <use xlink:href="#m1ec5bbce40" x="358.504022" y="354.48951" style="stroke: #000000"/>
     <use xlink:href="#m1ec5bbce40" x="363.473093" y="103.79547" style="stroke: #000000"/>
     <use xlink:href="#m1ec5bbce40" x="368.442164" y="354.48951" style="stroke: #000000"/>
     <use xlink:href="#m1ec5bbce40" x="373.411236" y="103.79547" style="stroke: #000000"/>
     <use xlink:href="#m1ec5bbce40" x="378.5406" y="354.48951" style="stroke: #000000"/>
     <use xlink:href="#m1ec5bbce40" x="383.509671" y="354.48951" style="stroke: #000000"/>
     <use xlink:href="#m1ec5bbce40" x="388.478743" y="103.79547" style="stroke: #000000"/>
     <use xlink:href="#m1ec5bbce40" x="393.447814" y="354.48951" style="stroke: #000000"/>
     <use xlink:href="#m1ec5bbce40" x="398.577178" y="354.48951" style="stroke: #000000"/>
     <use xlink:href="#m1ec5bbce40" x="403.546249" y="103.79547" style="stroke: #000000"/>
     <use xlink:href="#m1ec5bbce40" x="408.515321" y="354.48951" style="stroke: #000000"/>
     <use xlink:href="#m1ec5bbce40" x="413.484392" y="103.79547" style="stroke: #000000"/>
     <use xlink:href="#m1ec5bbce40" x="418.613756" y="354.48951" style="stroke: #000000"/>
     <use xlink:href="#m1ec5bbce40" x="423.582827" y="354.48951" style="stroke: #000000"/>
     <use xlink:href="#m1ec5bbce40" x="428.551899" y="103.79547" style="stroke: #000000"/>
     <use xlink:href="#m1ec5bbce40" x="433.52097" y="354.48951" style="stroke: #000000"/>
     <use xlink:href="#m1ec5bbce40" x="438.650334" y="354.48951" style="stroke: #000000"/>
     <use xlink:href="#m1ec5bbce40" x="443.619406" y="103.79547" style="stroke: #000000"/>
     <use xlink:href="#m1ec5bbce40" x="448.588477" y="354.48951" style="stroke: #000000"/>
     <use xlink:href="#m1ec5bbce40" x="453.557548" y="103.79547" style="stroke: #000000"/>
     <use xlink:href="#m1ec5bbce40" x="458.686912" y="354.48951" style="stroke: #000000"/>
     <use xlink:href="#m1ec5bbce40" x="463.655984" y="354.48951" style="stroke: #000000"/>
     <use xlink:href="#m1ec5bbce40" x="468.625055" y="103.79547" style="stroke: #000000"/>
     <use xlink:href="#m1ec5bbce40" x="473.594126" y="354.48951" style="stroke: #000000"/>
     <use xlink:href="#m1ec5bbce40" x="478.72349" y="354.48951" style="stroke: #000000"/>
     <use xlink:href="#m1ec5bbce40" x="483.692562" y="103.79547" style="stroke: #000000"/>
     <use xlink:href="#m1ec5bbce40" x="488.661633" y="354.48951" style="stroke: #000000"/>
     <use xlink:href="#m1ec5bbce40" x="493.630705" y="103.79547" style="stroke: #000000"/>
     <use xlink:href="#m1ec5bbce40" x="498.760069" y="354.48951" style="stroke: #000000"/>
     <use xlink:href="#m1ec5bbce40" x="503.72914" y="354.48951" style="stroke: #000000"/>
     <use xlink:href="#m1ec5bbce40" x="508.698211" y="103.79547" style="stroke: #000000"/>
     <use xlink:href="#m1ec5bbce40" x="513.667283" y="354.48951" style="stroke: #000000"/>
     <use xlink:href="#m1ec5bbce40" x="518.796647" y="354.48951" style="stroke: #000000"/>
     <use xlink:href="#m1ec5bbce40" x="523.765718" y="103.79547" style="stroke: #000000"/>
     <use xlink:href="#m1ec5bbce40" x="528.734789" y="354.48951" style="stroke: #000000"/>
     <use xlink:href="#m1ec5bbce40" x="533.703861" y="103.79547" style="stroke: #000000"/>
     <use xlink:href="#m1ec5bbce40" x="538.833225" y="354.48951" style="stroke: #000000"/>
     <use xlink:href="#m1ec5bbce40" x="543.802296" y="354.48951" style="stroke: #000000"/>
     <use xlink:href="#m1ec5bbce40" x="548.771368" y="103.79547" style="stroke: #000000"/>
     <use xlink:href="#m1ec5bbce40" x="553.740439" y="354.48951" style="stroke: #000000"/>
     <use xlink:href="#m1ec5bbce40" x="558.869803" y="354.48951" style="stroke: #000000"/>
     <use xlink:href="#m1ec5bbce40" x="563.838874" y="103.79547" style="stroke: #000000"/>
     <use xlink:href="#m1ec5bbce40" x="568.807946" y="354.48951" style="stroke: #000000"/>
     <use xlink:href="#m1ec5bbce40" x="573.777017" y="103.79547" style="stroke: #000000"/>
     <use xlink:href="#m1ec5bbce40" x="578.906381" y="354.48951" style="stroke: #000000"/>
     <use xlink:href="#m1ec5bbce40" x="583.875452" y="354.48951" style="stroke: #000000"/>
     <use xlink:href="#m1ec5bbce40" x="588.844524" y="103.79547" style="stroke: #000000"/>
     <use xlink:href="#m1ec5bbce40" x="593.813595" y="354.48951" style="stroke: #000000"/>
     <use xlink:href="#m1ec5bbce40" x="598.942959" y="354.48951" style="stroke: #000000"/>
     <use xlink:href="#m1ec5bbce40" x="603.912031" y="103.79547" style="stroke: #000000"/>
     <use xlink:href="#m1ec5bbce40" x="608.881102" y="354.48951" style="stroke: #000000"/>
     <use xlink:href="#m1ec5bbce40" x="613.850173" y="103.79547" style="stroke: #000000"/>
     <use xlink:href="#m1ec5bbce40" x="618.979537" y="354.48951" style="stroke: #000000"/>
     <use xlink:href="#m1ec5bbce40" x="623.948609" y="354.48951" style="stroke: #000000"/>
     <use xlink:href="#m1ec5bbce40" x="628.91768" y="103.79547" style="stroke: #000000"/>
     <use xlink:href="#m1ec5bbce40" x="633.886751" y="354.48951" style="stroke: #000000"/>
     <use xlink:href="#m1ec5bbce40" x="639.016115" y="354.48951" style="stroke: #000000"/>
     <use xlink:href="#m1ec5bbce40" x="643.985187" y="103.79547" style="stroke: #000000"/>
     <use xlink:href="#m1ec5bbce40" x="648.954258" y="354.48951" style="stroke: #000000"/>
     <use xlink:href="#m1ec5bbce40" x="653.92333" y="103.79547" style="stroke: #000000"/>
     <use xlink:href="#m1ec5bbce40" x="659.052694" y="354.48951" style="stroke: #000000"/>
     <use xlink:href="#m1ec5bbce40" x="664.021765" y="354.48951" style="stroke: #000000"/>
     <use xlink:href="#m1ec5bbce40" x="668.990836" y="103.79547" style="stroke: #000000"/>
     <use xlink:href="#m1ec5bbce40" x="673.959908" y="354.48951" style="stroke: #000000"/>
     <use xlink:href="#m1ec5bbce40" x="679.089272" y="354.48951" style="stroke: #000000"/>
     <use xlink:href="#m1ec5bbce40" x="684.058343" y="103.79547" style="stroke: #000000"/>
     <use xlink:href="#m1ec5bbce40" x="689.027414" y="354.48951" style="stroke: #000000"/>
     <use xlink:href="#m1ec5bbce40" x="693.996486" y="103.79547" style="stroke: #000000"/>
     <use xlink:href="#m1ec5bbce40" x="699.12585" y="354.48951" style="stroke: #000000"/>
     <use xlink:href="#m1ec5bbce40" x="704.094921" y="354.48951" style="stroke: #000000"/>
     <use xlink:href="#m1ec5bbce40" x="709.063993" y="103.79547" style="stroke: #000000"/>
     <use xlink:href="#m1ec5bbce40" x="714.033064" y="354.48951" style="stroke: #000000"/>
     <use xlink:href="#m1ec5bbce40" x="719.162428" y="354.48951" style="stroke: #000000"/>
     <use xlink:href="#m1ec5bbce40" x="724.131499" y="103.79547" style="stroke: #000000"/>
     <use xlink:href="#m1ec5bbce40" x="729.100571" y="354.48951" style="stroke: #000000"/>
     <use xlink:href="#m1ec5bbce40" x="734.069642" y="103.79547" style="stroke: #000000"/>
     <use xlink:href="#m1ec5bbce40" x="739.199006" y="354.48951" style="stroke: #000000"/>
     <use xlink:href="#m1ec5bbce40" x="744.168077" y="354.48951" style="stroke: #000000"/>
     <use xlink:href="#m1ec5bbce40" x="749.137149" y="103.79547" style="stroke: #000000"/>
     <use xlink:href="#m1ec5bbce40" x="754.10622" y="354.48951" style="stroke: #000000"/>
     <use xlink:href="#m1ec5bbce40" x="759.235584" y="354.48951" style="stroke: #000000"/>
     <use xlink:href="#m1ec5bbce40" x="764.204656" y="103.79547" style="stroke: #000000"/>
     <use xlink:href="#m1ec5bbce40" x="769.173727" y="354.48951" style="stroke: #000000"/>
     <use xlink:href="#m1ec5bbce40" x="774.142798" y="103.79547" style="stroke: #000000"/>
     <use xlink:href="#m1ec5bbce40" x="779.272162" y="354.48951" style="stroke: #000000"/>
     <use xlink:href="#m1ec5bbce40" x="784.241234" y="354.48951" style="stroke: #000000"/>
     <use xlink:href="#m1ec5bbce40" x="789.210305" y="103.79547" style="stroke: #000000"/>
     <use xlink:href="#m1ec5bbce40" x="794.179376" y="354.48951" style="stroke: #000000"/>
     <use xlink:href="#m1ec5bbce40" x="799.30874" y="354.48951" style="stroke: #000000"/>
     <use xlink:href="#m1ec5bbce40" x="804.277812" y="103.79547" style="stroke: #000000"/>
     <use xlink:href="#m1ec5bbce40" x="809.246883" y="354.48951" style="stroke: #000000"/>
     <use xlink:href="#m1ec5bbce40" x="814.215955" y="103.79547" style="stroke: #000000"/>
     <use xlink:href="#m1ec5bbce40" x="819.345319" y="354.48951" style="stroke: #000000"/>
     <use xlink:href="#m1ec5bbce40" x="824.31439" y="354.48951" style="stroke: #000000"/>
     <use xlink:href="#m1ec5bbce40" x="829.283461" y="103.79547" style="stroke: #000000"/>
     <use xlink:href="#m1ec5bbce40" x="834.252533" y="354.48951" style="stroke: #000000"/>
     <use xlink:href="#m1ec5bbce40" x="839.381897" y="354.48951" style="stroke: #000000"/>
     <use xlink:href="#m1ec5bbce40" x="844.350968" y="103.79547" style="stroke: #000000"/>
     <use xlink:href="#m1ec5bbce40" x="849.320039" y="354.48951" style="stroke: #000000"/>
     <use xlink:href="#m1ec5bbce40" x="854.289111" y="103.79547" style="stroke: #000000"/>
     <use xlink:href="#m1ec5bbce40" x="859.418475" y="354.48951" style="stroke: #000000"/>
     <use xlink:href="#m1ec5bbce40" x="864.387546" y="354.48951" style="stroke: #000000"/>
     <use xlink:href="#m1ec5bbce40" x="869.356618" y="103.79547" style="stroke: #000000"/>
     <use xlink:href="#m1ec5bbce40" x="874.325689" y="354.48951" style="stroke: #000000"/>
     <use xlink:href="#m1ec5bbce40" x="879.455053" y="354.48951" style="stroke: #000000"/>
     <use xlink:href="#m1ec5bbce40" x="884.424124" y="103.79547" style="stroke: #000000"/>
     <use xlink:href="#m1ec5bbce40" x="889.393196" y="354.48951" style="stroke: #000000"/>
     <use xlink:href="#m1ec5bbce40" x="894.362267" y="103.79547" style="stroke: #000000"/>
     <use xlink:href="#m1ec5bbce40" x="899.491631" y="354.48951" style="stroke: #000000"/>
     <use xlink:href="#m1ec5bbce40" x="904.460702" y="354.48951" style="stroke: #000000"/>
     <use xlink:href="#m1ec5bbce40" x="909.429774" y="103.79547" style="stroke: #000000"/>
     <use xlink:href="#m1ec5bbce40" x="914.398845" y="354.48951" style="stroke: #000000"/>
     <use xlink:href="#m1ec5bbce40" x="919.528209" y="354.48951" style="stroke: #000000"/>
     <use xlink:href="#m1ec5bbce40" x="924.497281" y="103.79547" style="stroke: #000000"/>
     <use xlink:href="#m1ec5bbce40" x="929.466352" y="354.48951" style="stroke: #000000"/>
    </g>
   </g>
   <g id="patch_3">
    <path d="M 135 448.56 
L 135 60.48 
" style="fill: none; stroke: #000000; stroke-width: 0.8; stroke-linejoin: miter; stroke-linecap: square"/>
   </g>
   <g id="patch_4">
    <path d="M 972 448.56 
L 972 60.48 
" style="fill: none; stroke: #000000; stroke-width: 0.8; stroke-linejoin: miter; stroke-linecap: square"/>
   </g>
   <g id="patch_5">
    <path d="M 135 448.56 
L 972 448.56 
" style="fill: none; stroke: #000000; stroke-width: 0.8; stroke-linejoin: miter; stroke-linecap: square"/>
   </g>
   <g id="patch_6">
    <path d="M 135 60.48 
L 972 60.48 
" style="fill: none; stroke: #000000; stroke-width: 0.8; stroke-linejoin: miter; stroke-linecap: square"/>
   </g>
   <g id="legend_1">
    <g id="patch_7">
     <path d="M 895.915625 443.56 
L 965 443.56 
Q 967 443.56 967 441.56 
L 967 397.969375 
Q 967 395.969375 965 395.969375 
L 895.915625 395.969375 
Q 893.915625 395.969375 893.915625 397.969375 
L 893.915625 441.56 
Q 893.915625 443.56 895.915625 443.56 
z
" style="fill: #ffffff; opacity: 0.8; stroke: #cccccc; stroke-linejoin: miter"/>
    </g>
    <g id="line2d_16">
     <path d="M 897.915625 404.067813 
L 907.915625 404.067813 
L 917.915625 404.067813 
" style="fill: none; stroke: #1f77b4; stroke-width: 1.5; stroke-linecap: square"/>
    </g>
    <g id="text_14">
     <!-- nw_0 -->
     <g transform="translate(925.915625 407.567813) scale(0.1 -0.1)">
      <defs>
       <path id="DejaVuSans-6e" d="M 3513 2113 
L 3513 0 
L 2938 0 
L 2938 2094 
Q 2938 2591 2744 2837 
Q 2550 3084 2163 3084 
Q 1697 3084 1428 2787 
Q 1159 2491 1159 1978 
L 1159 0 
L 581 0 
L 581 3500 
L 1159 3500 
L 1159 2956 
Q 1366 3272 1645 3428 
Q 1925 3584 2291 3584 
Q 2894 3584 3203 3211 
Q 3513 2838 3513 2113 
z
" transform="scale(0.015625)"/>
       <path id="DejaVuSans-77" d="M 269 3500 
L 844 3500 
L 1563 769 
L 2278 3500 
L 2956 3500 
L 3675 769 
L 4391 3500 
L 4966 3500 
L 4050 0 
L 3372 0 
L 2619 2869 
L 1863 0 
L 1184 0 
L 269 3500 
z
" transform="scale(0.015625)"/>
       <path id="DejaVuSans-5f" d="M 3263 -1063 
L 3263 -1509 
L -63 -1509 
L -63 -1063 
L 3263 -1063 
z
" transform="scale(0.015625)"/>
      </defs>
      <use xlink:href="#DejaVuSans-6e"/>
      <use xlink:href="#DejaVuSans-77" x="63.378906"/>
      <use xlink:href="#DejaVuSans-5f" x="145.166016"/>
      <use xlink:href="#DejaVuSans-30" x="195.166016"/>
     </g>
    </g>
    <g id="line2d_17">
     <path d="M 897.915625 419.024063 
L 907.915625 419.024063 
L 917.915625 419.024063 
" style="fill: none; stroke: #ff7f0e; stroke-width: 1.5; stroke-linecap: square"/>
    </g>
    <g id="text_15">
     <!-- input_0 -->
     <g transform="translate(925.915625 422.524063) scale(0.1 -0.1)">
      <defs>
       <path id="DejaVuSans-69" d="M 603 3500 
L 1178 3500 
L 1178 0 
L 603 0 
L 603 3500 
z
M 603 4863 
L 1178 4863 
L 1178 4134 
L 603 4134 
L 603 4863 
z
" transform="scale(0.015625)"/>
       <path id="DejaVuSans-70" d="M 1159 525 
L 1159 -1331 
L 581 -1331 
L 581 3500 
L 1159 3500 
L 1159 2969 
Q 1341 3281 1617 3432 
Q 1894 3584 2278 3584 
Q 2916 3584 3314 3078 
Q 3713 2572 3713 1747 
Q 3713 922 3314 415 
Q 2916 -91 2278 -91 
Q 1894 -91 1617 61 
Q 1341 213 1159 525 
z
M 3116 1747 
Q 3116 2381 2855 2742 
Q 2594 3103 2138 3103 
Q 1681 3103 1420 2742 
Q 1159 2381 1159 1747 
Q 1159 1113 1420 752 
Q 1681 391 2138 391 
Q 2594 391 2855 752 
Q 3116 1113 3116 1747 
z
" transform="scale(0.015625)"/>
       <path id="DejaVuSans-75" d="M 544 1381 
L 544 3500 
L 1119 3500 
L 1119 1403 
Q 1119 906 1312 657 
Q 1506 409 1894 409 
Q 2359 409 2629 706 
Q 2900 1003 2900 1516 
L 2900 3500 
L 3475 3500 
L 3475 0 
L 2900 0 
L 2900 538 
Q 2691 219 2414 64 
Q 2138 -91 1772 -91 
Q 1169 -91 856 284 
Q 544 659 544 1381 
z
M 1991 3584 
L 1991 3584 
z
" transform="scale(0.015625)"/>
      </defs>
      <use xlink:href="#DejaVuSans-69"/>
      <use xlink:href="#DejaVuSans-6e" x="27.783203"/>
      <use xlink:href="#DejaVuSans-70" x="91.162109"/>
      <use xlink:href="#DejaVuSans-75" x="154.638672"/>
      <use xlink:href="#DejaVuSans-74" x="218.017578"/>
      <use xlink:href="#DejaVuSans-5f" x="257.226562"/>
      <use xlink:href="#DejaVuSans-30" x="307.226562"/>
     </g>
    </g>
    <g id="line2d_18">
     <path d="M 897.915625 433.980312 
L 907.915625 433.980312 
L 917.915625 433.980312 
" style="fill: none; stroke: #000000; stroke-width: 1.5; stroke-linecap: square"/>
     <g>
      <use xlink:href="#m1ec5bbce40" x="907.915625" y="433.980312" style="stroke: #000000"/>
     </g>
    </g>
    <g id="text_16">
     <!-- target -->
     <g transform="translate(925.915625 437.480312) scale(0.1 -0.1)">
      <defs>
       <path id="DejaVuSans-61" d="M 2194 1759 
Q 1497 1759 1228 1600 
Q 959 1441 959 1056 
Q 959 750 1161 570 
Q 1363 391 1709 391 
Q 2188 391 2477 730 
Q 2766 1069 2766 1631 
L 2766 1759 
L 2194 1759 
z
M 3341 1997 
L 3341 0 
L 2766 0 
L 2766 531 
Q 2569 213 2275 61 
Q 1981 -91 1556 -91 
Q 1019 -91 701 211 
Q 384 513 384 1019 
Q 384 1609 779 1909 
Q 1175 2209 1959 2209 
L 2766 2209 
L 2766 2266 
Q 2766 2663 2505 2880 
Q 2244 3097 1772 3097 
Q 1472 3097 1187 3025 
Q 903 2953 641 2809 
L 641 3341 
Q 956 3463 1253 3523 
Q 1550 3584 1831 3584 
Q 2591 3584 2966 3190 
Q 3341 2797 3341 1997 
z
" transform="scale(0.015625)"/>
       <path id="DejaVuSans-72" d="M 2631 2963 
Q 2534 3019 2420 3045 
Q 2306 3072 2169 3072 
Q 1681 3072 1420 2755 
Q 1159 2438 1159 1844 
L 1159 0 
L 581 0 
L 581 3500 
L 1159 3500 
L 1159 2956 
Q 1341 3275 1631 3429 
Q 1922 3584 2338 3584 
Q 2397 3584 2469 3576 
Q 2541 3569 2628 3553 
L 2631 2963 
z
" transform="scale(0.015625)"/>
       <path id="DejaVuSans-67" d="M 2906 1791 
Q 2906 2416 2648 2759 
Q 2391 3103 1925 3103 
Q 1463 3103 1205 2759 
Q 947 2416 947 1791 
Q 947 1169 1205 825 
Q 1463 481 1925 481 
Q 2391 481 2648 825 
Q 2906 1169 2906 1791 
z
M 3481 434 
Q 3481 -459 3084 -895 
Q 2688 -1331 1869 -1331 
Q 1566 -1331 1297 -1286 
Q 1028 -1241 775 -1147 
L 775 -588 
Q 1028 -725 1275 -790 
Q 1522 -856 1778 -856 
Q 2344 -856 2625 -561 
Q 2906 -266 2906 331 
L 2906 616 
Q 2728 306 2450 153 
Q 2172 0 1784 0 
Q 1141 0 747 490 
Q 353 981 353 1791 
Q 353 2603 747 3093 
Q 1141 3584 1784 3584 
Q 2172 3584 2450 3431 
Q 2728 3278 2906 2969 
L 2906 3500 
L 3481 3500 
L 3481 434 
z
" transform="scale(0.015625)"/>
       <path id="DejaVuSans-65" d="M 3597 1894 
L 3597 1613 
L 953 1613 
Q 991 1019 1311 708 
Q 1631 397 2203 397 
Q 2534 397 2845 478 
Q 3156 559 3463 722 
L 3463 178 
Q 3153 47 2828 -22 
Q 2503 -91 2169 -91 
Q 1331 -91 842 396 
Q 353 884 353 1716 
Q 353 2575 817 3079 
Q 1281 3584 2069 3584 
Q 2775 3584 3186 3129 
Q 3597 2675 3597 1894 
z
M 3022 2063 
Q 3016 2534 2758 2815 
Q 2500 3097 2075 3097 
Q 1594 3097 1305 2825 
Q 1016 2553 972 2059 
L 3022 2063 
z
" transform="scale(0.015625)"/>
      </defs>
      <use xlink:href="#DejaVuSans-74"/>
      <use xlink:href="#DejaVuSans-61" x="39.208984"/>
      <use xlink:href="#DejaVuSans-72" x="100.488281"/>
      <use xlink:href="#DejaVuSans-67" x="139.851562"/>
      <use xlink:href="#DejaVuSans-65" x="203.328125"/>
      <use xlink:href="#DejaVuSans-74" x="264.851562"/>
     </g>
    </g>
   </g>
  </g>
 </g>
 <defs>
  <clipPath id="pe148f898b5">
   <rect x="135" y="60.48" width="837" height="388.08"/>
  </clipPath>
 </defs>
</svg>
