<?xml version="1.0" encoding="utf-8" standalone="no"?>
<!DOCTYPE svg PUBLIC "-//W3C//DTD SVG 1.1//EN"
  "http://www.w3.org/Graphics/SVG/1.1/DTD/svg11.dtd">
<svg xmlns:xlink="http://www.w3.org/1999/xlink" width="1080pt" height="504pt" viewBox="0 0 1080 504" xmlns="http://www.w3.org/2000/svg" version="1.1">
 <metadata>
  <rdf:RDF xmlns:dc="http://purl.org/dc/elements/1.1/" xmlns:cc="http://creativecommons.org/ns#" xmlns:rdf="http://www.w3.org/1999/02/22-rdf-syntax-ns#">
   <cc:Work>
    <dc:type rdf:resource="http://purl.org/dc/dcmitype/StillImage"/>
    <dc:date>2024-05-09T11:10:20.229542</dc:date>
    <dc:format>image/svg+xml</dc:format>
    <dc:creator>
     <cc:Agent>
      <dc:title>Matplotlib v3.7.1, https://matplotlib.org/</dc:title>
     </cc:Agent>
    </dc:creator>
   </cc:Work>
  </rdf:RDF>
 </metadata>
 <defs>
  <style type="text/css">*{stroke-linejoin: round; stroke-linecap: butt}</style>
 </defs>
 <g id="figure_1">
  <g id="patch_1">
   <path d="M 0 504 
L 1080 504 
L 1080 0 
L 0 0 
z
" style="fill: #ffffff"/>
  </g>
  <g id="axes_1">
   <g id="patch_2">
    <path d="M 135 448.56 
L 972 448.56 
L 972 60.48 
L 135 60.48 
z
" style="fill: #ffffff"/>
   </g>
   <g id="matplotlib.axis_1">
    <g id="xtick_1">
     <g id="line2d_1">
      <defs>
       <path id="mc652a43a92" d="M 0 0 
L 0 3.5 
" style="stroke: #000000; stroke-width: 0.8"/>
      </defs>
      <g>
       <use xlink:href="#mc652a43a92" x="173.045455" y="448.56" style="stroke: #000000; stroke-width: 0.8"/>
      </g>
     </g>
     <g id="text_1">
      <!-- 0 -->
      <g transform="translate(169.864205 463.158437) scale(0.1 -0.1)">
       <defs>
        <path id="DejaVuSans-30" d="M 2034 4250 
Q 1547 4250 1301 3770 
Q 1056 3291 1056 2328 
Q 1056 1369 1301 889 
Q 1547 409 2034 409 
Q 2525 409 2770 889 
Q 3016 1369 3016 2328 
Q 3016 3291 2770 3770 
Q 2525 4250 2034 4250 
z
M 2034 4750 
Q 2819 4750 3233 4129 
Q 3647 3509 3647 2328 
Q 3647 1150 3233 529 
Q 2819 -91 2034 -91 
Q 1250 -91 836 529 
Q 422 1150 422 2328 
Q 422 3509 836 4129 
Q 1250 4750 2034 4750 
z
" transform="scale(0.015625)"/>
       </defs>
       <use xlink:href="#DejaVuSans-30"/>
      </g>
     </g>
    </g>
    <g id="xtick_2">
     <g id="line2d_2">
      <g>
       <use xlink:href="#mc652a43a92" x="333.33808" y="448.56" style="stroke: #000000; stroke-width: 0.8"/>
      </g>
     </g>
     <g id="text_2">
      <!-- 1000 -->
      <g transform="translate(320.61308 463.158437) scale(0.1 -0.1)">
       <defs>
        <path id="DejaVuSans-31" d="M 794 531 
L 1825 531 
L 1825 4091 
L 703 3866 
L 703 4441 
L 1819 4666 
L 2450 4666 
L 2450 531 
L 3481 531 
L 3481 0 
L 794 0 
L 794 531 
z
" transform="scale(0.015625)"/>
       </defs>
       <use xlink:href="#DejaVuSans-31"/>
       <use xlink:href="#DejaVuSans-30" x="63.623047"/>
       <use xlink:href="#DejaVuSans-30" x="127.246094"/>
       <use xlink:href="#DejaVuSans-30" x="190.869141"/>
      </g>
     </g>
    </g>
    <g id="xtick_3">
     <g id="line2d_3">
      <g>
       <use xlink:href="#mc652a43a92" x="493.630705" y="448.56" style="stroke: #000000; stroke-width: 0.8"/>
      </g>
     </g>
     <g id="text_3">
      <!-- 2000 -->
      <g transform="translate(480.905705 463.158437) scale(0.1 -0.1)">
       <defs>
        <path id="DejaVuSans-32" d="M 1228 531 
L 3431 531 
L 3431 0 
L 469 0 
L 469 531 
Q 828 903 1448 1529 
Q 2069 2156 2228 2338 
Q 2531 2678 2651 2914 
Q 2772 3150 2772 3378 
Q 2772 3750 2511 3984 
Q 2250 4219 1831 4219 
Q 1534 4219 1204 4116 
Q 875 4013 500 3803 
L 500 4441 
Q 881 4594 1212 4672 
Q 1544 4750 1819 4750 
Q 2544 4750 2975 4387 
Q 3406 4025 3406 3419 
Q 3406 3131 3298 2873 
Q 3191 2616 2906 2266 
Q 2828 2175 2409 1742 
Q 1991 1309 1228 531 
z
" transform="scale(0.015625)"/>
       </defs>
       <use xlink:href="#DejaVuSans-32"/>
       <use xlink:href="#DejaVuSans-30" x="63.623047"/>
       <use xlink:href="#DejaVuSans-30" x="127.246094"/>
       <use xlink:href="#DejaVuSans-30" x="190.869141"/>
      </g>
     </g>
    </g>
    <g id="xtick_4">
     <g id="line2d_4">
      <g>
       <use xlink:href="#mc652a43a92" x="653.92333" y="448.56" style="stroke: #000000; stroke-width: 0.8"/>
      </g>
     </g>
     <g id="text_4">
      <!-- 3000 -->
      <g transform="translate(641.19833 463.158437) scale(0.1 -0.1)">
       <defs>
        <path id="DejaVuSans-33" d="M 2597 2516 
Q 3050 2419 3304 2112 
Q 3559 1806 3559 1356 
Q 3559 666 3084 287 
Q 2609 -91 1734 -91 
Q 1441 -91 1130 -33 
Q 819 25 488 141 
L 488 750 
Q 750 597 1062 519 
Q 1375 441 1716 441 
Q 2309 441 2620 675 
Q 2931 909 2931 1356 
Q 2931 1769 2642 2001 
Q 2353 2234 1838 2234 
L 1294 2234 
L 1294 2753 
L 1863 2753 
Q 2328 2753 2575 2939 
Q 2822 3125 2822 3475 
Q 2822 3834 2567 4026 
Q 2313 4219 1838 4219 
Q 1578 4219 1281 4162 
Q 984 4106 628 3988 
L 628 4550 
Q 988 4650 1302 4700 
Q 1616 4750 1894 4750 
Q 2613 4750 3031 4423 
Q 3450 4097 3450 3541 
Q 3450 3153 3228 2886 
Q 3006 2619 2597 2516 
z
" transform="scale(0.015625)"/>
       </defs>
       <use xlink:href="#DejaVuSans-33"/>
       <use xlink:href="#DejaVuSans-30" x="63.623047"/>
       <use xlink:href="#DejaVuSans-30" x="127.246094"/>
       <use xlink:href="#DejaVuSans-30" x="190.869141"/>
      </g>
     </g>
    </g>
    <g id="xtick_5">
     <g id="line2d_5">
      <g>
       <use xlink:href="#mc652a43a92" x="814.215955" y="448.56" style="stroke: #000000; stroke-width: 0.8"/>
      </g>
     </g>
     <g id="text_5">
      <!-- 4000 -->
      <g transform="translate(801.490955 463.158437) scale(0.1 -0.1)">
       <defs>
        <path id="DejaVuSans-34" d="M 2419 4116 
L 825 1625 
L 2419 1625 
L 2419 4116 
z
M 2253 4666 
L 3047 4666 
L 3047 1625 
L 3713 1625 
L 3713 1100 
L 3047 1100 
L 3047 0 
L 2419 0 
L 2419 1100 
L 313 1100 
L 313 1709 
L 2253 4666 
z
" transform="scale(0.015625)"/>
       </defs>
       <use xlink:href="#DejaVuSans-34"/>
       <use xlink:href="#DejaVuSans-30" x="63.623047"/>
       <use xlink:href="#DejaVuSans-30" x="127.246094"/>
       <use xlink:href="#DejaVuSans-30" x="190.869141"/>
      </g>
     </g>
    </g>
    <g id="text_6">
     <!-- t -->
     <g transform="translate(551.539844 476.836563) scale(0.1 -0.1)">
      <defs>
       <path id="DejaVuSans-74" d="M 1172 4494 
L 1172 3500 
L 2356 3500 
L 2356 3053 
L 1172 3053 
L 1172 1153 
Q 1172 725 1289 603 
Q 1406 481 1766 481 
L 2356 481 
L 2356 0 
L 1766 0 
Q 1100 0 847 248 
Q 594 497 594 1153 
L 594 3053 
L 172 3053 
L 172 3500 
L 594 3500 
L 594 4494 
L 1172 4494 
z
" transform="scale(0.015625)"/>
      </defs>
      <use xlink:href="#DejaVuSans-74"/>
     </g>
    </g>
   </g>
   <g id="matplotlib.axis_2">
    <g id="ytick_1">
     <g id="line2d_6">
      <defs>
       <path id="m9dbb17c6df" d="M 0 0 
L -3.5 0 
" style="stroke: #000000; stroke-width: 0.8"/>
      </defs>
      <g>
       <use xlink:href="#m9dbb17c6df" x="135" y="405.626674" style="stroke: #000000; stroke-width: 0.8"/>
      </g>
     </g>
     <g id="text_7">
      <!-- −0.2 -->
      <g transform="translate(103.717187 409.425893) scale(0.1 -0.1)">
       <defs>
        <path id="DejaVuSans-2212" d="M 678 2272 
L 4684 2272 
L 4684 1741 
L 678 1741 
L 678 2272 
z
" transform="scale(0.015625)"/>
        <path id="DejaVuSans-2e" d="M 684 794 
L 1344 794 
L 1344 0 
L 684 0 
L 684 794 
z
" transform="scale(0.015625)"/>
       </defs>
       <use xlink:href="#DejaVuSans-2212"/>
       <use xlink:href="#DejaVuSans-30" x="83.789062"/>
       <use xlink:href="#DejaVuSans-2e" x="147.412109"/>
       <use xlink:href="#DejaVuSans-32" x="179.199219"/>
      </g>
     </g>
    </g>
    <g id="ytick_2">
     <g id="line2d_7">
      <g>
       <use xlink:href="#m9dbb17c6df" x="135" y="352.06388" style="stroke: #000000; stroke-width: 0.8"/>
      </g>
     </g>
     <g id="text_8">
      <!-- 0.0 -->
      <g transform="translate(112.096875 355.863099) scale(0.1 -0.1)">
       <use xlink:href="#DejaVuSans-30"/>
       <use xlink:href="#DejaVuSans-2e" x="63.623047"/>
       <use xlink:href="#DejaVuSans-30" x="95.410156"/>
      </g>
     </g>
    </g>
    <g id="ytick_3">
     <g id="line2d_8">
      <g>
       <use xlink:href="#m9dbb17c6df" x="135" y="298.501087" style="stroke: #000000; stroke-width: 0.8"/>
      </g>
     </g>
     <g id="text_9">
      <!-- 0.2 -->
      <g transform="translate(112.096875 302.300306) scale(0.1 -0.1)">
       <use xlink:href="#DejaVuSans-30"/>
       <use xlink:href="#DejaVuSans-2e" x="63.623047"/>
       <use xlink:href="#DejaVuSans-32" x="95.410156"/>
      </g>
     </g>
    </g>
    <g id="ytick_4">
     <g id="line2d_9">
      <g>
       <use xlink:href="#m9dbb17c6df" x="135" y="244.938294" style="stroke: #000000; stroke-width: 0.8"/>
      </g>
     </g>
     <g id="text_10">
      <!-- 0.4 -->
      <g transform="translate(112.096875 248.737512) scale(0.1 -0.1)">
       <use xlink:href="#DejaVuSans-30"/>
       <use xlink:href="#DejaVuSans-2e" x="63.623047"/>
       <use xlink:href="#DejaVuSans-34" x="95.410156"/>
      </g>
     </g>
    </g>
    <g id="ytick_5">
     <g id="line2d_10">
      <g>
       <use xlink:href="#m9dbb17c6df" x="135" y="191.3755" style="stroke: #000000; stroke-width: 0.8"/>
      </g>
     </g>
     <g id="text_11">
      <!-- 0.6 -->
      <g transform="translate(112.096875 195.174719) scale(0.1 -0.1)">
       <defs>
        <path id="DejaVuSans-36" d="M 2113 2584 
Q 1688 2584 1439 2293 
Q 1191 2003 1191 1497 
Q 1191 994 1439 701 
Q 1688 409 2113 409 
Q 2538 409 2786 701 
Q 3034 994 3034 1497 
Q 3034 2003 2786 2293 
Q 2538 2584 2113 2584 
z
M 3366 4563 
L 3366 3988 
Q 3128 4100 2886 4159 
Q 2644 4219 2406 4219 
Q 1781 4219 1451 3797 
Q 1122 3375 1075 2522 
Q 1259 2794 1537 2939 
Q 1816 3084 2150 3084 
Q 2853 3084 3261 2657 
Q 3669 2231 3669 1497 
Q 3669 778 3244 343 
Q 2819 -91 2113 -91 
Q 1303 -91 875 529 
Q 447 1150 447 2328 
Q 447 3434 972 4092 
Q 1497 4750 2381 4750 
Q 2619 4750 2861 4703 
Q 3103 4656 3366 4563 
z
" transform="scale(0.015625)"/>
       </defs>
       <use xlink:href="#DejaVuSans-30"/>
       <use xlink:href="#DejaVuSans-2e" x="63.623047"/>
       <use xlink:href="#DejaVuSans-36" x="95.410156"/>
      </g>
     </g>
    </g>
    <g id="ytick_6">
     <g id="line2d_11">
      <g>
       <use xlink:href="#m9dbb17c6df" x="135" y="137.812707" style="stroke: #000000; stroke-width: 0.8"/>
      </g>
     </g>
     <g id="text_12">
      <!-- 0.8 -->
      <g transform="translate(112.096875 141.611926) scale(0.1 -0.1)">
       <defs>
        <path id="DejaVuSans-38" d="M 2034 2216 
Q 1584 2216 1326 1975 
Q 1069 1734 1069 1313 
Q 1069 891 1326 650 
Q 1584 409 2034 409 
Q 2484 409 2743 651 
Q 3003 894 3003 1313 
Q 3003 1734 2745 1975 
Q 2488 2216 2034 2216 
z
M 1403 2484 
Q 997 2584 770 2862 
Q 544 3141 544 3541 
Q 544 4100 942 4425 
Q 1341 4750 2034 4750 
Q 2731 4750 3128 4425 
Q 3525 4100 3525 3541 
Q 3525 3141 3298 2862 
Q 3072 2584 2669 2484 
Q 3125 2378 3379 2068 
Q 3634 1759 3634 1313 
Q 3634 634 3220 271 
Q 2806 -91 2034 -91 
Q 1263 -91 848 271 
Q 434 634 434 1313 
Q 434 1759 690 2068 
Q 947 2378 1403 2484 
z
M 1172 3481 
Q 1172 3119 1398 2916 
Q 1625 2713 2034 2713 
Q 2441 2713 2670 2916 
Q 2900 3119 2900 3481 
Q 2900 3844 2670 4047 
Q 2441 4250 2034 4250 
Q 1625 4250 1398 4047 
Q 1172 3844 1172 3481 
z
" transform="scale(0.015625)"/>
       </defs>
       <use xlink:href="#DejaVuSans-30"/>
       <use xlink:href="#DejaVuSans-2e" x="63.623047"/>
       <use xlink:href="#DejaVuSans-38" x="95.410156"/>
      </g>
     </g>
    </g>
    <g id="ytick_7">
     <g id="line2d_12">
      <g>
       <use xlink:href="#m9dbb17c6df" x="135" y="84.249914" style="stroke: #000000; stroke-width: 0.8"/>
      </g>
     </g>
     <g id="text_13">
      <!-- 1.0 -->
      <g transform="translate(112.096875 88.049132) scale(0.1 -0.1)">
       <use xlink:href="#DejaVuSans-31"/>
       <use xlink:href="#DejaVuSans-2e" x="63.623047"/>
       <use xlink:href="#DejaVuSans-30" x="95.410156"/>
      </g>
     </g>
    </g>
   </g>
   <g id="line2d_13">
    <path d="M 173.045455 148.757058 
L 173.205747 79.746354 
L 173.36604 78.124569 
L 173.846918 146.814789 
L 174.00721 155.017845 
L 174.167503 154.249754 
L 174.488088 137.83414 
L 174.968966 113.64636 
L 175.129259 110.68044 
L 175.289551 110.516093 
L 175.449844 112.766344 
L 175.770429 122.370235 
L 177.213063 175.612496 
L 177.693941 188.25645 
L 178.014526 406.922993 
L 178.174819 430.92 
L 178.335111 424.043816 
L 179.136574 314.856563 
L 179.296867 308.058334 
L 179.45716 305.992827 
L 179.617452 307.071281 
L 180.739501 325.833978 
L 181.861549 335.420556 
L 182.663012 343.393993 
L 182.983597 345.227574 
L 183.14389 345.669591 
L 183.304183 345.769872 
L 183.464475 345.525383 
L 183.78506 344.046011 
L 184.265938 339.74347 
L 185.227694 327.504835 
L 186.029157 318.493011 
L 186.510035 314.991516 
L 186.83062 313.601955 
L 187.151206 312.958649 
L 187.311498 312.901747 
L 187.471791 313.00957 
L 187.792376 313.676158 
L 188.273254 315.62114 
L 188.914424 319.445185 
L 191.799692 338.535476 
L 192.761447 342.717159 
L 193.562911 345.269174 
L 194.364374 347.142181 
L 195.165837 348.498262 
L 195.9673 349.475117 
L 196.929056 350.294631 
L 198.051104 350.924525 
L 199.333445 351.372926 
L 200.936371 351.693577 
L 203.340761 351.918274 
L 207.348076 352.032891 
L 213.278903 352.060735 
L 213.599489 79.743518 
L 213.759781 78.121951 
L 214.240659 146.812855 
L 214.400952 155.016118 
L 214.561244 154.248216 
L 214.88183 137.832924 
L 215.362708 113.6455 
L 215.523 110.679672 
L 215.683293 110.515408 
L 215.843585 112.765731 
L 216.164171 122.369745 
L 217.606804 175.61233 
L 218.087682 188.256341 
L 218.408267 406.922903 
L 218.56856 430.919916 
L 218.728853 424.043738 
L 219.530316 314.856512 
L 219.690608 308.058287 
L 219.850901 305.992785 
L 220.011194 307.071244 
L 221.133242 325.833966 
L 222.25529 335.420554 
L 223.056754 343.393993 
L 223.377339 345.227574 
L 223.537631 345.669591 
L 223.697924 345.769872 
L 223.858217 345.525383 
L 224.178802 344.046011 
L 224.65968 339.74347 
L 225.621436 327.504833 
L 226.422899 318.493009 
L 226.903777 314.991513 
L 227.224362 313.601953 
L 227.544947 312.958646 
L 227.70524 312.901745 
L 227.865532 313.009568 
L 228.186118 313.676156 
L 228.666995 315.621138 
L 229.308166 319.445183 
L 232.193433 338.535475 
L 233.155189 342.717158 
L 233.956652 345.269174 
L 234.758115 347.142181 
L 235.559578 348.498262 
L 236.361041 349.475117 
L 237.322797 350.294631 
L 238.444846 350.924525 
L 239.727187 351.372926 
L 241.330113 351.693577 
L 243.734502 351.918274 
L 247.741818 352.032891 
L 253.99323 352.061101 
L 254.313815 79.743848 
L 254.474108 78.122256 
L 254.954986 146.81308 
L 255.115279 155.016319 
L 255.275571 154.248395 
L 255.596156 137.833065 
L 256.077034 113.6456 
L 256.237327 110.679762 
L 256.39762 110.515488 
L 256.557912 112.765802 
L 256.878497 122.369802 
L 258.321131 175.612349 
L 258.802009 188.256354 
L 259.122594 406.922913 
L 259.282887 430.919926 
L 259.443179 424.043747 
L 260.244643 314.856518 
L 260.404935 308.058293 
L 260.565228 305.99279 
L 260.72552 307.071248 
L 261.847569 325.833967 
L 262.969617 335.420554 
L 263.77108 343.393993 
L 264.091666 345.227574 
L 264.251958 345.669591 
L 264.412251 345.769872 
L 264.572543 345.525383 
L 264.893129 344.046011 
L 265.374007 339.74347 
L 266.335762 327.504833 
L 267.137225 318.493009 
L 267.618103 314.991514 
L 267.938689 313.601953 
L 268.259274 312.958647 
L 268.419566 312.901745 
L 268.579859 313.009568 
L 268.900444 313.676156 
L 269.381322 315.621139 
L 270.022493 319.445183 
L 272.90776 338.535475 
L 273.869516 342.717158 
L 274.670979 345.269174 
L 275.472442 347.142181 
L 276.273905 348.498262 
L 277.075368 349.475117 
L 278.037124 350.294631 
L 279.159172 350.924525 
L 280.441513 351.372926 
L 282.04444 351.693577 
L 284.448829 351.918274 
L 288.456145 352.032891 
L 293.585509 352.059595 
L 293.906094 79.74249 
L 294.066386 78.121002 
L 294.547264 146.812154 
L 294.707557 155.015492 
L 294.86785 154.247658 
L 295.188435 137.832483 
L 295.669313 113.645189 
L 295.829605 110.679394 
L 295.989898 110.515159 
L 296.150191 112.765509 
L 296.470776 122.369567 
L 297.913409 175.61227 
L 298.394287 188.256301 
L 298.714873 406.92287 
L 298.875165 430.919886 
L 299.035458 424.043709 
L 299.836921 314.856493 
L 299.997214 308.05827 
L 300.157506 305.99277 
L 300.317799 307.07123 
L 301.439847 325.833961 
L 302.561896 335.420553 
L 303.363359 343.393993 
L 303.683944 345.227574 
L 303.844237 345.669591 
L 304.004529 345.769873 
L 304.164822 345.525383 
L 304.485407 344.046011 
L 304.966285 339.743469 
L 305.928041 327.504833 
L 306.729504 318.493008 
L 307.210382 314.991513 
L 307.530967 313.601952 
L 307.851552 312.958645 
L 308.011845 312.901744 
L 308.172137 313.009567 
L 308.492723 313.676155 
L 308.973601 315.621138 
L 309.614771 319.445182 
L 312.500038 338.535475 
L 313.461794 342.717158 
L 314.263257 345.269174 
L 315.06472 347.142181 
L 315.866183 348.498262 
L 316.667647 349.475117 
L 317.629402 350.294631 
L 318.751451 350.924525 
L 320.033792 351.372926 
L 321.636718 351.693577 
L 324.041107 351.918274 
L 328.048423 352.032891 
L 333.818957 352.060535 
L 334.139543 79.743337 
L 334.299835 78.121784 
L 334.780713 146.812732 
L 334.941006 155.016008 
L 335.101298 154.248118 
L 335.421884 137.832846 
L 335.902762 113.645446 
L 336.063054 110.679624 
L 336.223347 110.515364 
L 336.383639 112.765692 
L 336.704225 122.369714 
L 338.146858 175.61232 
L 338.627736 188.256334 
L 338.948321 406.922897 
L 339.108614 430.919911 
L 339.268907 424.043733 
L 340.07037 314.856508 
L 340.230662 308.058284 
L 340.390955 305.992782 
L 340.551248 307.071241 
L 341.673296 325.833965 
L 342.795344 335.420554 
L 343.596808 343.393993 
L 343.917393 345.227574 
L 344.077685 345.669591 
L 344.237978 345.769872 
L 344.398271 345.525383 
L 344.718856 344.046011 
L 345.199734 339.74347 
L 346.16149 327.504833 
L 346.962953 318.493009 
L 347.443831 314.991513 
L 347.764416 313.601952 
L 348.085001 312.958646 
L 348.245294 312.901745 
L 348.405586 313.009567 
L 348.726172 313.676156 
L 349.207049 315.621138 
L 349.84822 319.445183 
L 352.733487 338.535475 
L 353.695243 342.717158 
L 354.496706 345.269174 
L 355.298169 347.142181 
L 356.099632 348.498262 
L 356.901095 349.475117 
L 357.862851 350.294631 
L 358.9849 350.924525 
L 360.267241 351.372926 
L 361.870167 351.693577 
L 364.274556 351.918274 
L 368.281872 352.032891 
L 373.090651 352.059031 
L 373.411236 79.741981 
L 373.571528 78.120532 
L 374.052406 146.811807 
L 374.212699 155.015182 
L 374.372992 154.247382 
L 374.693577 137.832264 
L 375.174455 113.645035 
L 375.334747 110.679257 
L 375.49504 110.515036 
L 375.655333 112.765399 
L 375.975918 122.369479 
L 377.418551 175.61224 
L 377.899429 188.256282 
L 378.220015 406.922854 
L 378.380307 430.919871 
L 378.5406 424.043695 
L 379.342063 314.856483 
L 379.502356 308.058262 
L 379.662648 305.992762 
L 379.822941 307.071224 
L 380.944989 325.833959 
L 382.067038 335.420553 
L 382.868501 343.393994 
L 383.189086 345.227574 
L 383.349379 345.669591 
L 383.509671 345.769873 
L 383.669964 345.525383 
L 383.990549 344.046011 
L 384.471427 339.743469 
L 385.433183 327.504832 
L 386.234646 318.493008 
L 386.715524 314.991512 
L 387.036109 313.601951 
L 387.356694 312.958645 
L 387.516987 312.901744 
L 387.677279 313.009566 
L 387.997865 313.676155 
L 388.478743 315.621137 
L 389.119913 319.445182 
L 392.00518 338.535475 
L 392.966936 342.717158 
L 393.768399 345.269174 
L 394.569862 347.142181 
L 395.371325 348.498262 
L 396.172789 349.475117 
L 397.134544 350.294631 
L 398.256593 350.924525 
L 399.538934 351.372926 
L 401.14186 351.693577 
L 403.546249 351.918274 
L 407.553565 352.032891 
L 413.644685 352.060924 
L 413.96527 79.743688 
L 414.125563 78.122108 
L 414.60644 146.812971 
L 414.766733 155.016222 
L 414.927026 154.248308 
L 415.247611 137.832997 
L 415.728489 113.645552 
L 415.888781 110.679719 
L 416.049074 110.515449 
L 416.209367 112.765768 
L 416.529952 122.369775 
L 417.972586 175.61234 
L 418.453463 188.256347 
L 418.774049 406.922908 
L 418.934341 430.919921 
L 419.094634 424.043742 
L 419.896097 314.856515 
L 420.05639 308.05829 
L 420.216682 305.992788 
L 420.376975 307.071246 
L 421.499023 325.833967 
L 422.621072 335.420554 
L 423.422535 343.393993 
L 423.74312 345.227574 
L 423.903413 345.669591 
L 424.063705 345.769872 
L 424.223998 345.525383 
L 424.544583 344.046011 
L 425.025461 339.74347 
L 425.987217 327.504833 
L 426.78868 318.493009 
L 427.269558 314.991514 
L 427.590143 313.601953 
L 427.910728 312.958646 
L 428.071021 312.901745 
L 428.231314 313.009568 
L 428.551899 313.676156 
L 429.032777 315.621138 
L 429.673947 319.445183 
L 432.559214 338.535475 
L 433.52097 342.717158 
L 434.322433 345.269174 
L 435.123896 347.142181 
L 435.92536 348.498262 
L 436.726823 349.475117 
L 437.688578 350.294631 
L 438.810627 350.924525 
L 440.092968 351.372926 
L 441.695894 351.693577 
L 444.100283 351.918274 
L 448.107599 352.032891 
L 453.557548 352.060094 
L 453.878134 79.74294 
L 454.038426 78.121417 
L 454.519304 146.812461 
L 454.679597 155.015766 
L 454.839889 154.247902 
L 455.160475 137.832675 
L 455.641352 113.645325 
L 455.801645 110.679516 
L 455.961938 110.515268 
L 456.12223 112.765606 
L 456.442816 122.369645 
L 457.885449 175.612296 
L 458.366327 188.256319 
L 458.686912 406.922884 
L 458.847205 430.919899 
L 459.007498 424.043722 
L 459.808961 314.856501 
L 459.969253 308.058278 
L 460.129546 305.992776 
L 460.289839 307.071236 
L 461.411887 325.833963 
L 462.533935 335.420554 
L 463.335398 343.393993 
L 463.655984 345.227574 
L 463.816276 345.669591 
L 463.976569 345.769873 
L 464.136862 345.525383 
L 464.457447 344.046011 
L 464.938325 339.743469 
L 465.90008 327.504833 
L 466.701544 318.493008 
L 467.182421 314.991513 
L 467.503007 313.601952 
L 467.823592 312.958646 
L 467.983885 312.901744 
L 468.144177 313.009567 
L 468.464762 313.676155 
L 468.94564 315.621138 
L 469.586811 319.445183 
L 472.472078 338.535475 
L 473.433834 342.717158 
L 474.235297 345.269174 
L 475.03676 347.142181 
L 475.838223 348.498262 
L 476.639686 349.475117 
L 477.601442 350.294631 
L 478.72349 350.924525 
L 480.005831 351.372926 
L 481.608758 351.693577 
L 484.013147 351.918274 
L 488.020463 352.032891 
L 493.630705 352.060321 
L 493.95129 79.743144 
L 494.111582 78.121606 
L 494.59246 146.8126 
L 494.752753 155.01589 
L 494.913046 154.248013 
L 495.233631 137.832763 
L 495.714509 113.645387 
L 495.874801 110.679571 
L 496.035094 110.515318 
L 496.195387 112.76565 
L 496.515972 122.369681 
L 497.958605 175.612308 
L 498.439483 188.256327 
L 498.760069 406.922891 
L 498.920361 430.919905 
L 499.080654 424.043727 
L 499.882117 314.856505 
L 500.04241 308.058281 
L 500.202702 305.99278 
L 500.362995 307.071239 
L 501.485043 325.833964 
L 502.607092 335.420554 
L 503.408555 343.393993 
L 503.72914 345.227574 
L 503.889433 345.669591 
L 504.049725 345.769872 
L 504.210018 345.525383 
L 504.530603 344.046011 
L 505.011481 339.74347 
L 505.973237 327.504833 
L 506.7747 318.493008 
L 507.255578 314.991513 
L 507.576163 313.601952 
L 507.896748 312.958646 
L 508.057041 312.901744 
L 508.217333 313.009567 
L 508.537919 313.676156 
L 509.018797 315.621138 
L 509.659967 319.445183 
L 512.545234 338.535475 
L 513.50699 342.717158 
L 514.308453 345.269174 
L 515.109916 347.142181 
L 515.911379 348.498262 
L 516.712843 349.475117 
L 517.674598 350.294631 
L 518.796647 350.924525 
L 520.078988 351.372926 
L 521.681914 351.693577 
L 524.086303 351.918274 
L 528.093619 352.032891 
L 533.864153 352.060535 
L 534.184739 79.743337 
L 534.345031 78.121784 
L 534.825909 146.812732 
L 534.986202 155.016008 
L 535.146494 154.248118 
L 535.46708 137.832846 
L 535.947958 113.645446 
L 536.10825 110.679624 
L 536.268543 110.515364 
L 536.428835 112.765692 
L 536.749421 122.369714 
L 538.192054 175.61232 
L 538.672932 188.256334 
L 538.993517 406.922897 
L 539.15381 430.919911 
L 539.314103 424.043733 
L 540.115566 314.856508 
L 540.275858 308.058284 
L 540.436151 305.992782 
L 540.596444 307.071241 
L 541.718492 325.833965 
L 542.84054 335.420554 
L 543.642004 343.393993 
L 543.962589 345.227574 
L 544.122881 345.669591 
L 544.283174 345.769872 
L 544.443467 345.525383 
L 544.764052 344.046011 
L 545.24493 339.74347 
L 546.206686 327.504833 
L 547.008149 318.493009 
L 547.489027 314.991513 
L 547.809612 313.601952 
L 548.130197 312.958646 
L 548.29049 312.901745 
L 548.450782 313.009567 
L 548.771368 313.676156 
L 549.252245 315.621138 
L 549.893416 319.445183 
L 552.778683 338.535475 
L 553.740439 342.717158 
L 554.541902 345.269174 
L 555.343365 347.142181 
L 556.144828 348.498262 
L 556.946291 349.475117 
L 557.908047 350.294631 
L 559.030096 350.924525 
L 560.312437 351.372926 
L 561.915363 351.693577 
L 564.319752 351.918274 
L 568.327068 352.032891 
L 574.257895 352.060735 
L 574.57848 79.743518 
L 574.738773 78.121951 
L 575.219651 146.812855 
L 575.379943 155.016118 
L 575.540236 154.248216 
L 575.860821 137.832924 
L 576.341699 113.6455 
L 576.501992 110.679672 
L 576.662284 110.515408 
L 576.822577 112.765731 
L 577.143162 122.369745 
L 578.585796 175.61233 
L 579.066674 188.256341 
L 579.387259 406.922903 
L 579.547552 430.919916 
L 579.707844 424.043738 
L 580.509307 314.856512 
L 580.6696 308.058287 
L 580.829893 305.992785 
L 580.990185 307.071244 
L 582.112234 325.833966 
L 583.234282 335.420554 
L 584.035745 343.393993 
L 584.35633 345.227574 
L 584.516623 345.669591 
L 584.676916 345.769872 
L 584.837208 345.525383 
L 585.157793 344.046011 
L 585.638671 339.74347 
L 586.600427 327.504833 
L 587.40189 318.493009 
L 587.882768 314.991513 
L 588.203353 313.601953 
L 588.523939 312.958646 
L 588.684231 312.901745 
L 588.844524 313.009568 
L 589.165109 313.676156 
L 589.645987 315.621138 
L 590.287157 319.445183 
L 593.172425 338.535475 
L 594.13418 342.717158 
L 594.935644 345.269174 
L 595.737107 347.142181 
L 596.53857 348.498262 
L 597.340033 349.475117 
L 598.301789 350.294631 
L 599.423837 350.924525 
L 600.706178 351.372926 
L 602.309104 351.693577 
L 604.713494 351.918274 
L 608.720809 352.032891 
L 613.209003 352.058392 
L 613.529588 79.741405 
L 613.689881 78.12 
L 614.170759 146.811414 
L 614.331051 155.014831 
L 614.491344 154.247069 
L 614.811929 137.832017 
L 615.292807 113.64486 
L 615.4531 110.679101 
L 615.613392 110.514897 
L 615.773685 112.765274 
L 616.09427 122.36938 
L 617.536904 175.612207 
L 618.017782 188.25626 
L 618.338367 406.922835 
L 618.498659 430.919854 
L 618.658952 424.043679 
L 619.460415 314.856473 
L 619.620708 308.058252 
L 619.781 305.992754 
L 619.941293 307.071216 
L 621.063341 325.833956 
L 622.18539 335.420553 
L 622.986853 343.393994 
L 623.307438 345.227574 
L 623.467731 345.669592 
L 623.628023 345.769873 
L 623.788316 345.525384 
L 624.108901 344.046011 
L 624.589779 339.743469 
L 625.551535 327.504832 
L 626.352998 318.493007 
L 626.833876 314.991512 
L 627.154461 313.601951 
L 627.475046 312.958645 
L 627.635339 312.901743 
L 627.795632 313.009566 
L 628.116217 313.676154 
L 628.597095 315.621137 
L 629.238265 319.445182 
L 632.123533 338.535475 
L 633.085288 342.717158 
L 633.886751 345.269173 
L 634.688215 347.142181 
L 635.489678 348.498262 
L 636.291141 349.475117 
L 637.252897 350.294631 
L 638.374945 350.924525 
L 639.657286 351.372926 
L 641.260212 351.693577 
L 643.664602 351.918274 
L 647.671917 352.032891 
L 653.92333 352.061101 
L 654.243915 79.743848 
L 654.404207 78.122256 
L 654.885085 146.81308 
L 655.045378 155.016319 
L 655.205671 154.248395 
L 655.526256 137.833065 
L 656.007134 113.6456 
L 656.167426 110.679762 
L 656.327719 110.515488 
L 656.488012 112.765802 
L 656.808597 122.369802 
L 658.25123 175.612349 
L 658.732108 188.256354 
L 659.052694 406.922913 
L 659.212986 430.919926 
L 659.373279 424.043747 
L 660.174742 314.856518 
L 660.335035 308.058293 
L 660.495327 305.99279 
L 660.65562 307.071248 
L 661.777668 325.833967 
L 662.899717 335.420554 
L 663.70118 343.393993 
L 664.021765 345.227574 
L 664.182058 345.669591 
L 664.34235 345.769872 
L 664.502643 345.525383 
L 664.823228 344.046011 
L 665.304106 339.74347 
L 666.265862 327.504833 
L 667.067325 318.493009 
L 667.548203 314.991514 
L 667.868788 313.601953 
L 668.189373 312.958647 
L 668.349666 312.901745 
L 668.509958 313.009568 
L 668.830544 313.676156 
L 669.311422 315.621139 
L 669.952592 319.445183 
L 672.837859 338.535475 
L 673.799615 342.717158 
L 674.601078 345.269174 
L 675.402541 347.142181 
L 676.204004 348.498262 
L 677.005468 349.475117 
L 677.967223 350.294631 
L 679.089272 350.924525 
L 680.371613 351.372926 
L 681.974539 351.693577 
L 684.378928 351.918274 
L 688.386244 352.032891 
L 694.156778 352.060535 
L 694.477364 79.743337 
L 694.637656 78.121784 
L 695.118534 146.812732 
L 695.278827 155.016008 
L 695.439119 154.248118 
L 695.759705 137.832846 
L 696.240583 113.645446 
L 696.400875 110.679624 
L 696.561168 110.515364 
L 696.72146 112.765692 
L 697.042046 122.369714 
L 698.484679 175.61232 
L 698.965557 188.256334 
L 699.286142 406.922897 
L 699.446435 430.919911 
L 699.606728 424.043733 
L 700.408191 314.856508 
L 700.568483 308.058284 
L 700.728776 305.992782 
L 700.889069 307.071241 
L 702.011117 325.833965 
L 703.133165 335.420554 
L 703.934629 343.393993 
L 704.255214 345.227574 
L 704.415506 345.669591 
L 704.575799 345.769872 
L 704.736092 345.525383 
L 705.056677 344.046011 
L 705.537555 339.74347 
L 706.499311 327.504833 
L 707.300774 318.493009 
L 707.781652 314.991513 
L 708.102237 313.601952 
L 708.422822 312.958646 
L 708.583115 312.901745 
L 708.743407 313.009567 
L 709.063993 313.676156 
L 709.54487 315.621138 
L 710.186041 319.445183 
L 713.071308 338.535475 
L 714.033064 342.717158 
L 714.834527 345.269174 
L 715.63599 347.142181 
L 716.437453 348.498262 
L 717.238916 349.475117 
L 718.200672 350.294631 
L 719.322721 350.924525 
L 720.605062 351.372926 
L 722.207988 351.693577 
L 724.612377 351.918274 
L 728.619693 352.032891 
L 734.069642 352.060094 
L 734.390227 79.74294 
L 734.55052 78.121417 
L 735.031398 146.812461 
L 735.19169 155.015766 
L 735.351983 154.247902 
L 735.672568 137.832675 
L 736.153446 113.645325 
L 736.313739 110.679516 
L 736.474031 110.515268 
L 736.634324 112.765606 
L 736.954909 122.369645 
L 738.397543 175.612296 
L 738.878421 188.256319 
L 739.199006 406.922884 
L 739.359299 430.919899 
L 739.519591 424.043722 
L 740.321054 314.856501 
L 740.481347 308.058278 
L 740.64164 305.992776 
L 740.801932 307.071236 
L 741.923981 325.833963 
L 743.046029 335.420554 
L 743.847492 343.393993 
L 744.168077 345.227574 
L 744.32837 345.669591 
L 744.488663 345.769873 
L 744.648955 345.525383 
L 744.969541 344.046011 
L 745.450418 339.743469 
L 746.412174 327.504833 
L 747.213637 318.493008 
L 747.694515 314.991513 
L 748.0151 313.601952 
L 748.335686 312.958646 
L 748.495978 312.901744 
L 748.656271 313.009567 
L 748.976856 313.676155 
L 749.457734 315.621138 
L 750.098905 319.445183 
L 752.984172 338.535475 
L 753.945928 342.717158 
L 754.747391 345.269174 
L 755.548854 347.142181 
L 756.350317 348.498262 
L 757.15178 349.475117 
L 758.113536 350.294631 
L 759.235584 350.924525 
L 760.517925 351.372926 
L 762.120851 351.693577 
L 764.525241 351.918274 
L 768.532556 352.032891 
L 773.822213 352.059852 
L 774.142798 79.742722 
L 774.303091 78.121216 
L 774.783969 146.812312 
L 774.944261 155.015633 
L 775.104554 154.247784 
L 775.425139 137.832582 
L 775.906017 113.645259 
L 776.06631 110.679457 
L 776.226602 110.515215 
L 776.386895 112.765559 
L 776.70748 122.369607 
L 778.150114 175.612284 
L 778.630992 188.25631 
L 778.951577 406.922877 
L 779.11187 430.919893 
L 779.272162 424.043716 
L 780.073625 314.856497 
L 780.233918 308.058274 
L 780.394211 305.992773 
L 780.554503 307.071233 
L 781.676552 325.833962 
L 782.7986 335.420553 
L 783.600063 343.393993 
L 783.920648 345.227574 
L 784.080941 345.669591 
L 784.241234 345.769873 
L 784.401526 345.525383 
L 784.722112 344.046011 
L 785.202989 339.743469 
L 786.164745 327.504833 
L 786.966208 318.493008 
L 787.447086 314.991513 
L 787.767671 313.601952 
L 788.088257 312.958646 
L 788.248549 312.901744 
L 788.408842 313.009567 
L 788.729427 313.676155 
L 789.210305 315.621138 
L 789.851476 319.445182 
L 792.736743 338.535475 
L 793.698499 342.717158 
L 794.499962 345.269174 
L 795.301425 347.142181 
L 796.102888 348.498262 
L 796.904351 349.475117 
L 797.866107 350.294631 
L 798.988155 350.924525 
L 800.270496 351.372926 
L 801.873422 351.693577 
L 804.277812 351.918274 
L 808.285127 352.032891 
L 813.414491 352.059595 
L 813.735077 79.74249 
L 813.895369 78.121002 
L 814.376247 146.812154 
L 814.53654 155.015492 
L 814.696832 154.247658 
L 815.017418 137.832483 
L 815.498296 113.645189 
L 815.658588 110.679394 
L 815.818881 110.515159 
L 815.979173 112.765509 
L 816.299759 122.369567 
L 817.742392 175.61227 
L 818.22327 188.256301 
L 818.543855 406.92287 
L 818.704148 430.919886 
L 818.864441 424.043709 
L 819.665904 314.856493 
L 819.826196 308.05827 
L 819.986489 305.99277 
L 820.146782 307.07123 
L 821.26883 325.833961 
L 822.390878 335.420553 
L 823.192342 343.393993 
L 823.512927 345.227574 
L 823.673219 345.669591 
L 823.833512 345.769873 
L 823.993805 345.525383 
L 824.31439 344.046011 
L 824.795268 339.743469 
L 825.757024 327.504833 
L 826.558487 318.493008 
L 827.039365 314.991513 
L 827.35995 313.601952 
L 827.680535 312.958645 
L 827.840828 312.901744 
L 828.00112 313.009567 
L 828.321706 313.676155 
L 828.802583 315.621138 
L 829.443754 319.445182 
L 832.329021 338.535475 
L 833.290777 342.717158 
L 834.09224 345.269174 
L 834.893703 347.142181 
L 835.695166 348.498262 
L 836.496629 349.475117 
L 837.458385 350.294631 
L 838.580434 350.924525 
L 839.862775 351.372926 
L 841.465701 351.693577 
L 843.87009 351.918274 
L 847.877406 352.032891 
L 854.609696 352.061572 
L 854.930281 79.744273 
L 855.090574 78.122648 
L 855.571452 146.81337 
L 855.731744 155.016578 
L 855.892037 154.248625 
L 856.212622 137.833247 
L 856.6935 113.645729 
L 856.853793 110.679877 
L 857.014085 110.51559 
L 857.174378 112.765894 
L 857.494963 122.369876 
L 858.937597 175.612374 
L 859.418475 188.25637 
L 859.73906 406.922927 
L 859.899353 430.919939 
L 860.059645 424.043758 
L 860.861108 314.856525 
L 861.021401 308.0583 
L 861.181694 305.992796 
L 861.341986 307.071254 
L 862.464035 325.833969 
L 863.586083 335.420555 
L 864.387546 343.393993 
L 864.708131 345.227574 
L 864.868424 345.669591 
L 865.028717 345.769872 
L 865.189009 345.525383 
L 865.509595 344.046011 
L 865.990472 339.74347 
L 866.952228 327.504834 
L 867.753691 318.493009 
L 868.234569 314.991514 
L 868.555154 313.601953 
L 868.87574 312.958647 
L 869.036032 312.901745 
L 869.196325 313.009568 
L 869.51691 313.676156 
L 869.997788 315.621139 
L 870.638959 319.445183 
L 873.524226 338.535475 
L 874.485982 342.717158 
L 875.287445 345.269174 
L 876.088908 347.142181 
L 876.890371 348.498262 
L 877.691834 349.475117 
L 878.65359 350.294631 
L 879.775638 350.924525 
L 881.057979 351.372926 
L 882.660905 351.693577 
L 885.065295 351.918274 
L 889.07261 352.032891 
L 894.362267 352.059852 
L 894.682852 79.742722 
L 894.843145 78.121216 
L 895.324023 146.812312 
L 895.484315 155.015633 
L 895.644608 154.247784 
L 895.965193 137.832582 
L 896.446071 113.645259 
L 896.606364 110.679457 
L 896.766656 110.515215 
L 896.926949 112.765559 
L 897.247534 122.369607 
L 898.690168 175.612284 
L 899.171046 188.25631 
L 899.491631 406.922877 
L 899.651924 430.919893 
L 899.812216 424.043716 
L 900.613679 314.856497 
L 900.773972 308.058274 
L 900.934265 305.992773 
L 901.094557 307.071233 
L 902.216606 325.833962 
L 903.338654 335.420553 
L 904.140117 343.393993 
L 904.460702 345.227574 
L 904.620995 345.669591 
L 904.781288 345.769873 
L 904.94158 345.525383 
L 905.262166 344.046011 
L 905.743043 339.743469 
L 906.704799 327.504833 
L 907.506262 318.493008 
L 907.98714 314.991513 
L 908.307725 313.601952 
L 908.628311 312.958646 
L 908.788603 312.901744 
L 908.948896 313.009567 
L 909.269481 313.676155 
L 909.750359 315.621138 
L 910.39153 319.445182 
L 913.276797 338.535475 
L 914.238553 342.717158 
L 915.040016 345.269174 
L 915.841479 347.142181 
L 916.642942 348.498262 
L 917.444405 349.475117 
L 918.406161 350.294631 
L 919.528209 350.924525 
L 920.81055 351.372926 
L 922.413476 351.693577 
L 924.817866 351.918274 
L 928.825181 352.032891 
L 933.794253 352.059322 
L 933.954545 148.752679 
L 933.954545 148.752679 
" clip-path="url(#p67daeb4c4c)" style="fill: none; stroke: #1f77b4; stroke-width: 1.5; stroke-linecap: square"/>
   </g>
   <g id="line2d_14">
    <path d="M 173.045455 84.249914 
L 177.693941 84.249914 
L 177.854233 352.06388 
L 213.278903 352.06388 
L 213.439196 84.249914 
L 218.087682 84.249914 
L 218.247975 352.06388 
L 253.99323 352.06388 
L 254.153523 84.249914 
L 258.802009 84.249914 
L 258.962302 352.06388 
L 293.585509 352.06388 
L 293.745801 84.249914 
L 298.394287 84.249914 
L 298.55458 352.06388 
L 333.818957 352.06388 
L 333.97925 84.249914 
L 338.627736 84.249914 
L 338.788029 352.06388 
L 373.090651 352.06388 
L 373.250943 84.249914 
L 377.899429 84.249914 
L 378.059722 352.06388 
L 413.644685 352.06388 
L 413.804977 84.249914 
L 418.453463 84.249914 
L 418.613756 352.06388 
L 453.557548 352.06388 
L 453.717841 84.249914 
L 458.366327 84.249914 
L 458.52662 352.06388 
L 493.630705 352.06388 
L 493.790997 84.249914 
L 498.439483 84.249914 
L 498.599776 352.06388 
L 533.864153 352.06388 
L 534.024446 84.249914 
L 538.672932 84.249914 
L 538.833225 352.06388 
L 574.257895 352.06388 
L 574.418188 84.249914 
L 579.066674 84.249914 
L 579.226966 352.06388 
L 613.209003 352.06388 
L 613.369295 84.249914 
L 618.017782 84.249914 
L 618.178074 352.06388 
L 653.92333 352.06388 
L 654.083622 84.249914 
L 658.732108 84.249914 
L 658.892401 352.06388 
L 694.156778 352.06388 
L 694.317071 84.249914 
L 698.965557 84.249914 
L 699.12585 352.06388 
L 734.069642 352.06388 
L 734.229935 84.249914 
L 738.878421 84.249914 
L 739.038713 352.06388 
L 773.822213 352.06388 
L 773.982506 84.249914 
L 778.630992 84.249914 
L 778.791284 352.06388 
L 813.414491 352.06388 
L 813.574784 84.249914 
L 818.22327 84.249914 
L 818.383563 352.06388 
L 854.609696 352.06388 
L 854.769989 84.249914 
L 859.418475 84.249914 
L 859.578767 352.06388 
L 894.362267 352.06388 
L 894.52256 84.249914 
L 899.171046 84.249914 
L 899.331338 352.06388 
L 933.794253 352.06388 
L 933.954545 84.249914 
L 933.954545 84.249914 
" clip-path="url(#p67daeb4c4c)" style="fill: none; stroke: #ff7f0e; stroke-width: 1.5; stroke-linecap: square"/>
   </g>
   <g id="line2d_15">
    <path d="M 929.466352 352.06388 
" clip-path="url(#p67daeb4c4c)" style="fill: none; stroke: #000000; stroke-width: 1.5; stroke-linecap: square"/>
    <defs>
     <path id="m3f425d170f" d="M 0 1 
C 0.265203 1 0.51958 0.894634 0.707107 0.707107 
C 0.894634 0.51958 1 0.265203 1 0 
C 1 -0.265203 0.894634 -0.51958 0.707107 -0.707107 
C 0.51958 -0.894634 0.265203 -1 0 -1 
C -0.265203 -1 -0.51958 -0.894634 -0.707107 -0.707107 
C -0.894634 -0.51958 -1 -0.265203 -1 0 
C -1 0.265203 -0.894634 0.51958 -0.707107 0.707107 
C -0.51958 0.894634 -0.265203 1 0 1 
z
" style="stroke: #000000"/>
    </defs>
    <g clip-path="url(#p67daeb4c4c)">
     <use xlink:href="#m3f425d170f" x="173.045455" y="84.249914" style="stroke: #000000"/>
     <use xlink:href="#m3f425d170f" x="178.174819" y="352.06388" style="stroke: #000000"/>
     <use xlink:href="#m3f425d170f" x="183.14389" y="352.06388" style="stroke: #000000"/>
     <use xlink:href="#m3f425d170f" x="188.112961" y="84.249914" style="stroke: #000000"/>
     <use xlink:href="#m3f425d170f" x="193.082033" y="352.06388" style="stroke: #000000"/>
     <use xlink:href="#m3f425d170f" x="198.211397" y="352.06388" style="stroke: #000000"/>
     <use xlink:href="#m3f425d170f" x="203.180468" y="84.249914" style="stroke: #000000"/>
     <use xlink:href="#m3f425d170f" x="208.149539" y="352.06388" style="stroke: #000000"/>
     <use xlink:href="#m3f425d170f" x="213.118611" y="84.249914" style="stroke: #000000"/>
     <use xlink:href="#m3f425d170f" x="218.247975" y="352.06388" style="stroke: #000000"/>
     <use xlink:href="#m3f425d170f" x="223.217046" y="352.06388" style="stroke: #000000"/>
     <use xlink:href="#m3f425d170f" x="228.186118" y="84.249914" style="stroke: #000000"/>
     <use xlink:href="#m3f425d170f" x="233.155189" y="352.06388" style="stroke: #000000"/>
     <use xlink:href="#m3f425d170f" x="238.284553" y="352.06388" style="stroke: #000000"/>
     <use xlink:href="#m3f425d170f" x="243.253624" y="84.249914" style="stroke: #000000"/>
     <use xlink:href="#m3f425d170f" x="248.222696" y="352.06388" style="stroke: #000000"/>
     <use xlink:href="#m3f425d170f" x="253.191767" y="84.249914" style="stroke: #000000"/>
     <use xlink:href="#m3f425d170f" x="258.321131" y="352.06388" style="stroke: #000000"/>
     <use xlink:href="#m3f425d170f" x="263.290202" y="352.06388" style="stroke: #000000"/>
     <use xlink:href="#m3f425d170f" x="268.259274" y="84.249914" style="stroke: #000000"/>
     <use xlink:href="#m3f425d170f" x="273.228345" y="352.06388" style="stroke: #000000"/>
     <use xlink:href="#m3f425d170f" x="278.357709" y="352.06388" style="stroke: #000000"/>
     <use xlink:href="#m3f425d170f" x="283.326781" y="84.249914" style="stroke: #000000"/>
     <use xlink:href="#m3f425d170f" x="288.295852" y="352.06388" style="stroke: #000000"/>
     <use xlink:href="#m3f425d170f" x="293.264923" y="84.249914" style="stroke: #000000"/>
     <use xlink:href="#m3f425d170f" x="298.394287" y="352.06388" style="stroke: #000000"/>
     <use xlink:href="#m3f425d170f" x="303.363359" y="352.06388" style="stroke: #000000"/>
     <use xlink:href="#m3f425d170f" x="308.33243" y="84.249914" style="stroke: #000000"/>
     <use xlink:href="#m3f425d170f" x="313.301501" y="352.06388" style="stroke: #000000"/>
     <use xlink:href="#m3f425d170f" x="318.430865" y="352.06388" style="stroke: #000000"/>
     <use xlink:href="#m3f425d170f" x="323.399937" y="84.249914" style="stroke: #000000"/>
     <use xlink:href="#m3f425d170f" x="328.369008" y="352.06388" style="stroke: #000000"/>
     <use xlink:href="#m3f425d170f" x="333.33808" y="84.249914" style="stroke: #000000"/>
     <use xlink:href="#m3f425d170f" x="338.467444" y="352.06388" style="stroke: #000000"/>
     <use xlink:href="#m3f425d170f" x="343.436515" y="352.06388" style="stroke: #000000"/>
     <use xlink:href="#m3f425d170f" x="348.405586" y="84.249914" style="stroke: #000000"/>
     <use xlink:href="#m3f425d170f" x="353.374658" y="352.06388" style="stroke: #000000"/>
     <use xlink:href="#m3f425d170f" x="358.504022" y="352.06388" style="stroke: #000000"/>
     <use xlink:href="#m3f425d170f" x="363.473093" y="84.249914" style="stroke: #000000"/>
     <use xlink:href="#m3f425d170f" x="368.442164" y="352.06388" style="stroke: #000000"/>
     <use xlink:href="#m3f425d170f" x="373.411236" y="84.249914" style="stroke: #000000"/>
     <use xlink:href="#m3f425d170f" x="378.5406" y="352.06388" style="stroke: #000000"/>
     <use xlink:href="#m3f425d170f" x="383.509671" y="352.06388" style="stroke: #000000"/>
     <use xlink:href="#m3f425d170f" x="388.478743" y="84.249914" style="stroke: #000000"/>
     <use xlink:href="#m3f425d170f" x="393.447814" y="352.06388" style="stroke: #000000"/>
     <use xlink:href="#m3f425d170f" x="398.577178" y="352.06388" style="stroke: #000000"/>
     <use xlink:href="#m3f425d170f" x="403.546249" y="84.249914" style="stroke: #000000"/>
     <use xlink:href="#m3f425d170f" x="408.515321" y="352.06388" style="stroke: #000000"/>
     <use xlink:href="#m3f425d170f" x="413.484392" y="84.249914" style="stroke: #000000"/>
     <use xlink:href="#m3f425d170f" x="418.613756" y="352.06388" style="stroke: #000000"/>
     <use xlink:href="#m3f425d170f" x="423.582827" y="352.06388" style="stroke: #000000"/>
     <use xlink:href="#m3f425d170f" x="428.551899" y="84.249914" style="stroke: #000000"/>
     <use xlink:href="#m3f425d170f" x="433.52097" y="352.06388" style="stroke: #000000"/>
     <use xlink:href="#m3f425d170f" x="438.650334" y="352.06388" style="stroke: #000000"/>
     <use xlink:href="#m3f425d170f" x="443.619406" y="84.249914" style="stroke: #000000"/>
     <use xlink:href="#m3f425d170f" x="448.588477" y="352.06388" style="stroke: #000000"/>
     <use xlink:href="#m3f425d170f" x="453.557548" y="84.249914" style="stroke: #000000"/>
     <use xlink:href="#m3f425d170f" x="458.686912" y="352.06388" style="stroke: #000000"/>
     <use xlink:href="#m3f425d170f" x="463.655984" y="352.06388" style="stroke: #000000"/>
     <use xlink:href="#m3f425d170f" x="468.625055" y="84.249914" style="stroke: #000000"/>
     <use xlink:href="#m3f425d170f" x="473.594126" y="352.06388" style="stroke: #000000"/>
     <use xlink:href="#m3f425d170f" x="478.72349" y="352.06388" style="stroke: #000000"/>
     <use xlink:href="#m3f425d170f" x="483.692562" y="84.249914" style="stroke: #000000"/>
     <use xlink:href="#m3f425d170f" x="488.661633" y="352.06388" style="stroke: #000000"/>
     <use xlink:href="#m3f425d170f" x="493.630705" y="84.249914" style="stroke: #000000"/>
     <use xlink:href="#m3f425d170f" x="498.760069" y="352.06388" style="stroke: #000000"/>
     <use xlink:href="#m3f425d170f" x="503.72914" y="352.06388" style="stroke: #000000"/>
     <use xlink:href="#m3f425d170f" x="508.698211" y="84.249914" style="stroke: #000000"/>
     <use xlink:href="#m3f425d170f" x="513.667283" y="352.06388" style="stroke: #000000"/>
     <use xlink:href="#m3f425d170f" x="518.796647" y="352.06388" style="stroke: #000000"/>
     <use xlink:href="#m3f425d170f" x="523.765718" y="84.249914" style="stroke: #000000"/>
     <use xlink:href="#m3f425d170f" x="528.734789" y="352.06388" style="stroke: #000000"/>
     <use xlink:href="#m3f425d170f" x="533.703861" y="84.249914" style="stroke: #000000"/>
     <use xlink:href="#m3f425d170f" x="538.833225" y="352.06388" style="stroke: #000000"/>
     <use xlink:href="#m3f425d170f" x="543.802296" y="352.06388" style="stroke: #000000"/>
     <use xlink:href="#m3f425d170f" x="548.771368" y="84.249914" style="stroke: #000000"/>
     <use xlink:href="#m3f425d170f" x="553.740439" y="352.06388" style="stroke: #000000"/>
     <use xlink:href="#m3f425d170f" x="558.869803" y="352.06388" style="stroke: #000000"/>
     <use xlink:href="#m3f425d170f" x="563.838874" y="84.249914" style="stroke: #000000"/>
     <use xlink:href="#m3f425d170f" x="568.807946" y="352.06388" style="stroke: #000000"/>
     <use xlink:href="#m3f425d170f" x="573.777017" y="84.249914" style="stroke: #000000"/>
     <use xlink:href="#m3f425d170f" x="578.906381" y="352.06388" style="stroke: #000000"/>
     <use xlink:href="#m3f425d170f" x="583.875452" y="352.06388" style="stroke: #000000"/>
     <use xlink:href="#m3f425d170f" x="588.844524" y="84.249914" style="stroke: #000000"/>
     <use xlink:href="#m3f425d170f" x="593.813595" y="352.06388" style="stroke: #000000"/>
     <use xlink:href="#m3f425d170f" x="598.942959" y="352.06388" style="stroke: #000000"/>
     <use xlink:href="#m3f425d170f" x="603.912031" y="84.249914" style="stroke: #000000"/>
     <use xlink:href="#m3f425d170f" x="608.881102" y="352.06388" style="stroke: #000000"/>
     <use xlink:href="#m3f425d170f" x="613.850173" y="84.249914" style="stroke: #000000"/>
     <use xlink:href="#m3f425d170f" x="618.979537" y="352.06388" style="stroke: #000000"/>
     <use xlink:href="#m3f425d170f" x="623.948609" y="352.06388" style="stroke: #000000"/>
     <use xlink:href="#m3f425d170f" x="628.91768" y="84.249914" style="stroke: #000000"/>
     <use xlink:href="#m3f425d170f" x="633.886751" y="352.06388" style="stroke: #000000"/>
     <use xlink:href="#m3f425d170f" x="639.016115" y="352.06388" style="stroke: #000000"/>
     <use xlink:href="#m3f425d170f" x="643.985187" y="84.249914" style="stroke: #000000"/>
     <use xlink:href="#m3f425d170f" x="648.954258" y="352.06388" style="stroke: #000000"/>
     <use xlink:href="#m3f425d170f" x="653.92333" y="84.249914" style="stroke: #000000"/>
     <use xlink:href="#m3f425d170f" x="659.052694" y="352.06388" style="stroke: #000000"/>
     <use xlink:href="#m3f425d170f" x="664.021765" y="352.06388" style="stroke: #000000"/>
     <use xlink:href="#m3f425d170f" x="668.990836" y="84.249914" style="stroke: #000000"/>
     <use xlink:href="#m3f425d170f" x="673.959908" y="352.06388" style="stroke: #000000"/>
     <use xlink:href="#m3f425d170f" x="679.089272" y="352.06388" style="stroke: #000000"/>
     <use xlink:href="#m3f425d170f" x="684.058343" y="84.249914" style="stroke: #000000"/>
     <use xlink:href="#m3f425d170f" x="689.027414" y="352.06388" style="stroke: #000000"/>
     <use xlink:href="#m3f425d170f" x="693.996486" y="84.249914" style="stroke: #000000"/>
     <use xlink:href="#m3f425d170f" x="699.12585" y="352.06388" style="stroke: #000000"/>
     <use xlink:href="#m3f425d170f" x="704.094921" y="352.06388" style="stroke: #000000"/>
     <use xlink:href="#m3f425d170f" x="709.063993" y="84.249914" style="stroke: #000000"/>
     <use xlink:href="#m3f425d170f" x="714.033064" y="352.06388" style="stroke: #000000"/>
     <use xlink:href="#m3f425d170f" x="719.162428" y="352.06388" style="stroke: #000000"/>
     <use xlink:href="#m3f425d170f" x="724.131499" y="84.249914" style="stroke: #000000"/>
     <use xlink:href="#m3f425d170f" x="729.100571" y="352.06388" style="stroke: #000000"/>
     <use xlink:href="#m3f425d170f" x="734.069642" y="84.249914" style="stroke: #000000"/>
     <use xlink:href="#m3f425d170f" x="739.199006" y="352.06388" style="stroke: #000000"/>
     <use xlink:href="#m3f425d170f" x="744.168077" y="352.06388" style="stroke: #000000"/>
     <use xlink:href="#m3f425d170f" x="749.137149" y="84.249914" style="stroke: #000000"/>
     <use xlink:href="#m3f425d170f" x="754.10622" y="352.06388" style="stroke: #000000"/>
     <use xlink:href="#m3f425d170f" x="759.235584" y="352.06388" style="stroke: #000000"/>
     <use xlink:href="#m3f425d170f" x="764.204656" y="84.249914" style="stroke: #000000"/>
     <use xlink:href="#m3f425d170f" x="769.173727" y="352.06388" style="stroke: #000000"/>
     <use xlink:href="#m3f425d170f" x="774.142798" y="84.249914" style="stroke: #000000"/>
     <use xlink:href="#m3f425d170f" x="779.272162" y="352.06388" style="stroke: #000000"/>
     <use xlink:href="#m3f425d170f" x="784.241234" y="352.06388" style="stroke: #000000"/>
     <use xlink:href="#m3f425d170f" x="789.210305" y="84.249914" style="stroke: #000000"/>
     <use xlink:href="#m3f425d170f" x="794.179376" y="352.06388" style="stroke: #000000"/>
     <use xlink:href="#m3f425d170f" x="799.30874" y="352.06388" style="stroke: #000000"/>
     <use xlink:href="#m3f425d170f" x="804.277812" y="84.249914" style="stroke: #000000"/>
     <use xlink:href="#m3f425d170f" x="809.246883" y="352.06388" style="stroke: #000000"/>
     <use xlink:href="#m3f425d170f" x="814.215955" y="84.249914" style="stroke: #000000"/>
     <use xlink:href="#m3f425d170f" x="819.345319" y="352.06388" style="stroke: #000000"/>
     <use xlink:href="#m3f425d170f" x="824.31439" y="352.06388" style="stroke: #000000"/>
     <use xlink:href="#m3f425d170f" x="829.283461" y="84.249914" style="stroke: #000000"/>
     <use xlink:href="#m3f425d170f" x="834.252533" y="352.06388" style="stroke: #000000"/>
     <use xlink:href="#m3f425d170f" x="839.381897" y="352.06388" style="stroke: #000000"/>
     <use xlink:href="#m3f425d170f" x="844.350968" y="84.249914" style="stroke: #000000"/>
     <use xlink:href="#m3f425d170f" x="849.320039" y="352.06388" style="stroke: #000000"/>
     <use xlink:href="#m3f425d170f" x="854.289111" y="84.249914" style="stroke: #000000"/>
     <use xlink:href="#m3f425d170f" x="859.418475" y="352.06388" style="stroke: #000000"/>
     <use xlink:href="#m3f425d170f" x="864.387546" y="352.06388" style="stroke: #000000"/>
     <use xlink:href="#m3f425d170f" x="869.356618" y="84.249914" style="stroke: #000000"/>
     <use xlink:href="#m3f425d170f" x="874.325689" y="352.06388" style="stroke: #000000"/>
     <use xlink:href="#m3f425d170f" x="879.455053" y="352.06388" style="stroke: #000000"/>
     <use xlink:href="#m3f425d170f" x="884.424124" y="84.249914" style="stroke: #000000"/>
     <use xlink:href="#m3f425d170f" x="889.393196" y="352.06388" style="stroke: #000000"/>
     <use xlink:href="#m3f425d170f" x="894.362267" y="84.249914" style="stroke: #000000"/>
     <use xlink:href="#m3f425d170f" x="899.491631" y="352.06388" style="stroke: #000000"/>
     <use xlink:href="#m3f425d170f" x="904.460702" y="352.06388" style="stroke: #000000"/>
     <use xlink:href="#m3f425d170f" x="909.429774" y="84.249914" style="stroke: #000000"/>
     <use xlink:href="#m3f425d170f" x="914.398845" y="352.06388" style="stroke: #000000"/>
     <use xlink:href="#m3f425d170f" x="919.528209" y="352.06388" style="stroke: #000000"/>
     <use xlink:href="#m3f425d170f" x="924.497281" y="84.249914" style="stroke: #000000"/>
     <use xlink:href="#m3f425d170f" x="929.466352" y="352.06388" style="stroke: #000000"/>
    </g>
   </g>
   <g id="patch_3">
    <path d="M 135 448.56 
L 135 60.48 
" style="fill: none; stroke: #000000; stroke-width: 0.8; stroke-linejoin: miter; stroke-linecap: square"/>
   </g>
   <g id="patch_4">
    <path d="M 972 448.56 
L 972 60.48 
" style="fill: none; stroke: #000000; stroke-width: 0.8; stroke-linejoin: miter; stroke-linecap: square"/>
   </g>
   <g id="patch_5">
    <path d="M 135 448.56 
L 972 448.56 
" style="fill: none; stroke: #000000; stroke-width: 0.8; stroke-linejoin: miter; stroke-linecap: square"/>
   </g>
   <g id="patch_6">
    <path d="M 135 60.48 
L 972 60.48 
" style="fill: none; stroke: #000000; stroke-width: 0.8; stroke-linejoin: miter; stroke-linecap: square"/>
   </g>
   <g id="legend_1">
    <g id="patch_7">
     <path d="M 895.915625 278.315313 
L 965 278.315313 
Q 967 278.315313 967 276.315313 
L 967 232.724688 
Q 967 230.724688 965 230.724688 
L 895.915625 230.724688 
Q 893.915625 230.724688 893.915625 232.724688 
L 893.915625 276.315313 
Q 893.915625 278.315313 895.915625 278.315313 
z
" style="fill: #ffffff; opacity: 0.8; stroke: #cccccc; stroke-linejoin: miter"/>
    </g>
    <g id="line2d_16">
     <path d="M 897.915625 238.823125 
L 907.915625 238.823125 
L 917.915625 238.823125 
" style="fill: none; stroke: #1f77b4; stroke-width: 1.5; stroke-linecap: square"/>
    </g>
    <g id="text_14">
     <!-- nw_0 -->
     <g transform="translate(925.915625 242.323125) scale(0.1 -0.1)">
      <defs>
       <path id="DejaVuSans-6e" d="M 3513 2113 
L 3513 0 
L 2938 0 
L 2938 2094 
Q 2938 2591 2744 2837 
Q 2550 3084 2163 3084 
Q 1697 3084 1428 2787 
Q 1159 2491 1159 1978 
L 1159 0 
L 581 0 
L 581 3500 
L 1159 3500 
L 1159 2956 
Q 1366 3272 1645 3428 
Q 1925 3584 2291 3584 
Q 2894 3584 3203 3211 
Q 3513 2838 3513 2113 
z
" transform="scale(0.015625)"/>
       <path id="DejaVuSans-77" d="M 269 3500 
L 844 3500 
L 1563 769 
L 2278 3500 
L 2956 3500 
L 3675 769 
L 4391 3500 
L 4966 3500 
L 4050 0 
L 3372 0 
L 2619 2869 
L 1863 0 
L 1184 0 
L 269 3500 
z
" transform="scale(0.015625)"/>
       <path id="DejaVuSans-5f" d="M 3263 -1063 
L 3263 -1509 
L -63 -1509 
L -63 -1063 
L 3263 -1063 
z
" transform="scale(0.015625)"/>
      </defs>
      <use xlink:href="#DejaVuSans-6e"/>
      <use xlink:href="#DejaVuSans-77" x="63.378906"/>
      <use xlink:href="#DejaVuSans-5f" x="145.166016"/>
      <use xlink:href="#DejaVuSans-30" x="195.166016"/>
     </g>
    </g>
    <g id="line2d_17">
     <path d="M 897.915625 253.779375 
L 907.915625 253.779375 
L 917.915625 253.779375 
" style="fill: none; stroke: #ff7f0e; stroke-width: 1.5; stroke-linecap: square"/>
    </g>
    <g id="text_15">
     <!-- input_0 -->
     <g transform="translate(925.915625 257.279375) scale(0.1 -0.1)">
      <defs>
       <path id="DejaVuSans-69" d="M 603 3500 
L 1178 3500 
L 1178 0 
L 603 0 
L 603 3500 
z
M 603 4863 
L 1178 4863 
L 1178 4134 
L 603 4134 
L 603 4863 
z
" transform="scale(0.015625)"/>
       <path id="DejaVuSans-70" d="M 1159 525 
L 1159 -1331 
L 581 -1331 
L 581 3500 
L 1159 3500 
L 1159 2969 
Q 1341 3281 1617 3432 
Q 1894 3584 2278 3584 
Q 2916 3584 3314 3078 
Q 3713 2572 3713 1747 
Q 3713 922 3314 415 
Q 2916 -91 2278 -91 
Q 1894 -91 1617 61 
Q 1341 213 1159 525 
z
M 3116 1747 
Q 3116 2381 2855 2742 
Q 2594 3103 2138 3103 
Q 1681 3103 1420 2742 
Q 1159 2381 1159 1747 
Q 1159 1113 1420 752 
Q 1681 391 2138 391 
Q 2594 391 2855 752 
Q 3116 1113 3116 1747 
z
" transform="scale(0.015625)"/>
       <path id="DejaVuSans-75" d="M 544 1381 
L 544 3500 
L 1119 3500 
L 1119 1403 
Q 1119 906 1312 657 
Q 1506 409 1894 409 
Q 2359 409 2629 706 
Q 2900 1003 2900 1516 
L 2900 3500 
L 3475 3500 
L 3475 0 
L 2900 0 
L 2900 538 
Q 2691 219 2414 64 
Q 2138 -91 1772 -91 
Q 1169 -91 856 284 
Q 544 659 544 1381 
z
M 1991 3584 
L 1991 3584 
z
" transform="scale(0.015625)"/>
      </defs>
      <use xlink:href="#DejaVuSans-69"/>
      <use xlink:href="#DejaVuSans-6e" x="27.783203"/>
      <use xlink:href="#DejaVuSans-70" x="91.162109"/>
      <use xlink:href="#DejaVuSans-75" x="154.638672"/>
      <use xlink:href="#DejaVuSans-74" x="218.017578"/>
      <use xlink:href="#DejaVuSans-5f" x="257.226562"/>
      <use xlink:href="#DejaVuSans-30" x="307.226562"/>
     </g>
    </g>
    <g id="line2d_18">
     <path d="M 897.915625 268.735625 
L 907.915625 268.735625 
L 917.915625 268.735625 
" style="fill: none; stroke: #000000; stroke-width: 1.5; stroke-linecap: square"/>
     <g>
      <use xlink:href="#m3f425d170f" x="907.915625" y="268.735625" style="stroke: #000000"/>
     </g>
    </g>
    <g id="text_16">
     <!-- target -->
     <g transform="translate(925.915625 272.235625) scale(0.1 -0.1)">
      <defs>
       <path id="DejaVuSans-61" d="M 2194 1759 
Q 1497 1759 1228 1600 
Q 959 1441 959 1056 
Q 959 750 1161 570 
Q 1363 391 1709 391 
Q 2188 391 2477 730 
Q 2766 1069 2766 1631 
L 2766 1759 
L 2194 1759 
z
M 3341 1997 
L 3341 0 
L 2766 0 
L 2766 531 
Q 2569 213 2275 61 
Q 1981 -91 1556 -91 
Q 1019 -91 701 211 
Q 384 513 384 1019 
Q 384 1609 779 1909 
Q 1175 2209 1959 2209 
L 2766 2209 
L 2766 2266 
Q 2766 2663 2505 2880 
Q 2244 3097 1772 3097 
Q 1472 3097 1187 3025 
Q 903 2953 641 2809 
L 641 3341 
Q 956 3463 1253 3523 
Q 1550 3584 1831 3584 
Q 2591 3584 2966 3190 
Q 3341 2797 3341 1997 
z
" transform="scale(0.015625)"/>
       <path id="DejaVuSans-72" d="M 2631 2963 
Q 2534 3019 2420 3045 
Q 2306 3072 2169 3072 
Q 1681 3072 1420 2755 
Q 1159 2438 1159 1844 
L 1159 0 
L 581 0 
L 581 3500 
L 1159 3500 
L 1159 2956 
Q 1341 3275 1631 3429 
Q 1922 3584 2338 3584 
Q 2397 3584 2469 3576 
Q 2541 3569 2628 3553 
L 2631 2963 
z
" transform="scale(0.015625)"/>
       <path id="DejaVuSans-67" d="M 2906 1791 
Q 2906 2416 2648 2759 
Q 2391 3103 1925 3103 
Q 1463 3103 1205 2759 
Q 947 2416 947 1791 
Q 947 1169 1205 825 
Q 1463 481 1925 481 
Q 2391 481 2648 825 
Q 2906 1169 2906 1791 
z
M 3481 434 
Q 3481 -459 3084 -895 
Q 2688 -1331 1869 -1331 
Q 1566 -1331 1297 -1286 
Q 1028 -1241 775 -1147 
L 775 -588 
Q 1028 -725 1275 -790 
Q 1522 -856 1778 -856 
Q 2344 -856 2625 -561 
Q 2906 -266 2906 331 
L 2906 616 
Q 2728 306 2450 153 
Q 2172 0 1784 0 
Q 1141 0 747 490 
Q 353 981 353 1791 
Q 353 2603 747 3093 
Q 1141 3584 1784 3584 
Q 2172 3584 2450 3431 
Q 2728 3278 2906 2969 
L 2906 3500 
L 3481 3500 
L 3481 434 
z
" transform="scale(0.015625)"/>
       <path id="DejaVuSans-65" d="M 3597 1894 
L 3597 1613 
L 953 1613 
Q 991 1019 1311 708 
Q 1631 397 2203 397 
Q 2534 397 2845 478 
Q 3156 559 3463 722 
L 3463 178 
Q 3153 47 2828 -22 
Q 2503 -91 2169 -91 
Q 1331 -91 842 396 
Q 353 884 353 1716 
Q 353 2575 817 3079 
Q 1281 3584 2069 3584 
Q 2775 3584 3186 3129 
Q 3597 2675 3597 1894 
z
M 3022 2063 
Q 3016 2534 2758 2815 
Q 2500 3097 2075 3097 
Q 1594 3097 1305 2825 
Q 1016 2553 972 2059 
L 3022 2063 
z
" transform="scale(0.015625)"/>
      </defs>
      <use xlink:href="#DejaVuSans-74"/>
      <use xlink:href="#DejaVuSans-61" x="39.208984"/>
      <use xlink:href="#DejaVuSans-72" x="100.488281"/>
      <use xlink:href="#DejaVuSans-67" x="139.851562"/>
      <use xlink:href="#DejaVuSans-65" x="203.328125"/>
      <use xlink:href="#DejaVuSans-74" x="264.851562"/>
     </g>
    </g>
   </g>
  </g>
 </g>
 <defs>
  <clipPath id="p67daeb4c4c">
   <rect x="135" y="60.48" width="837" height="388.08"/>
  </clipPath>
 </defs>
</svg>
