<?xml version="1.0" encoding="utf-8" standalone="no"?>
<!DOCTYPE svg PUBLIC "-//W3C//DTD SVG 1.1//EN"
  "http://www.w3.org/Graphics/SVG/1.1/DTD/svg11.dtd">
<svg xmlns:xlink="http://www.w3.org/1999/xlink" width="1080pt" height="504pt" viewBox="0 0 1080 504" xmlns="http://www.w3.org/2000/svg" version="1.1">
 <metadata>
  <rdf:RDF xmlns:dc="http://purl.org/dc/elements/1.1/" xmlns:cc="http://creativecommons.org/ns#" xmlns:rdf="http://www.w3.org/1999/02/22-rdf-syntax-ns#">
   <cc:Work>
    <dc:type rdf:resource="http://purl.org/dc/dcmitype/StillImage"/>
    <dc:date>2024-05-09T11:05:25.166716</dc:date>
    <dc:format>image/svg+xml</dc:format>
    <dc:creator>
     <cc:Agent>
      <dc:title>Matplotlib v3.7.1, https://matplotlib.org/</dc:title>
     </cc:Agent>
    </dc:creator>
   </cc:Work>
  </rdf:RDF>
 </metadata>
 <defs>
  <style type="text/css">*{stroke-linejoin: round; stroke-linecap: butt}</style>
 </defs>
 <g id="figure_1">
  <g id="patch_1">
   <path d="M 0 504 
L 1080 504 
L 1080 0 
L 0 0 
z
" style="fill: #ffffff"/>
  </g>
  <g id="axes_1">
   <g id="patch_2">
    <path d="M 135 448.56 
L 972 448.56 
L 972 60.48 
L 135 60.48 
z
" style="fill: #ffffff"/>
   </g>
   <g id="matplotlib.axis_1">
    <g id="xtick_1">
     <g id="line2d_1">
      <defs>
       <path id="m2f6215d7b0" d="M 0 0 
L 0 3.5 
" style="stroke: #000000; stroke-width: 0.8"/>
      </defs>
      <g>
       <use xlink:href="#m2f6215d7b0" x="173.045455" y="448.56" style="stroke: #000000; stroke-width: 0.8"/>
      </g>
     </g>
     <g id="text_1">
      <!-- 0 -->
      <g transform="translate(169.864205 463.158437) scale(0.1 -0.1)">
       <defs>
        <path id="DejaVuSans-30" d="M 2034 4250 
Q 1547 4250 1301 3770 
Q 1056 3291 1056 2328 
Q 1056 1369 1301 889 
Q 1547 409 2034 409 
Q 2525 409 2770 889 
Q 3016 1369 3016 2328 
Q 3016 3291 2770 3770 
Q 2525 4250 2034 4250 
z
M 2034 4750 
Q 2819 4750 3233 4129 
Q 3647 3509 3647 2328 
Q 3647 1150 3233 529 
Q 2819 -91 2034 -91 
Q 1250 -91 836 529 
Q 422 1150 422 2328 
Q 422 3509 836 4129 
Q 1250 4750 2034 4750 
z
" transform="scale(0.015625)"/>
       </defs>
       <use xlink:href="#DejaVuSans-30"/>
      </g>
     </g>
    </g>
    <g id="xtick_2">
     <g id="line2d_2">
      <g>
       <use xlink:href="#m2f6215d7b0" x="333.33808" y="448.56" style="stroke: #000000; stroke-width: 0.8"/>
      </g>
     </g>
     <g id="text_2">
      <!-- 1000 -->
      <g transform="translate(320.61308 463.158437) scale(0.1 -0.1)">
       <defs>
        <path id="DejaVuSans-31" d="M 794 531 
L 1825 531 
L 1825 4091 
L 703 3866 
L 703 4441 
L 1819 4666 
L 2450 4666 
L 2450 531 
L 3481 531 
L 3481 0 
L 794 0 
L 794 531 
z
" transform="scale(0.015625)"/>
       </defs>
       <use xlink:href="#DejaVuSans-31"/>
       <use xlink:href="#DejaVuSans-30" x="63.623047"/>
       <use xlink:href="#DejaVuSans-30" x="127.246094"/>
       <use xlink:href="#DejaVuSans-30" x="190.869141"/>
      </g>
     </g>
    </g>
    <g id="xtick_3">
     <g id="line2d_3">
      <g>
       <use xlink:href="#m2f6215d7b0" x="493.630705" y="448.56" style="stroke: #000000; stroke-width: 0.8"/>
      </g>
     </g>
     <g id="text_3">
      <!-- 2000 -->
      <g transform="translate(480.905705 463.158437) scale(0.1 -0.1)">
       <defs>
        <path id="DejaVuSans-32" d="M 1228 531 
L 3431 531 
L 3431 0 
L 469 0 
L 469 531 
Q 828 903 1448 1529 
Q 2069 2156 2228 2338 
Q 2531 2678 2651 2914 
Q 2772 3150 2772 3378 
Q 2772 3750 2511 3984 
Q 2250 4219 1831 4219 
Q 1534 4219 1204 4116 
Q 875 4013 500 3803 
L 500 4441 
Q 881 4594 1212 4672 
Q 1544 4750 1819 4750 
Q 2544 4750 2975 4387 
Q 3406 4025 3406 3419 
Q 3406 3131 3298 2873 
Q 3191 2616 2906 2266 
Q 2828 2175 2409 1742 
Q 1991 1309 1228 531 
z
" transform="scale(0.015625)"/>
       </defs>
       <use xlink:href="#DejaVuSans-32"/>
       <use xlink:href="#DejaVuSans-30" x="63.623047"/>
       <use xlink:href="#DejaVuSans-30" x="127.246094"/>
       <use xlink:href="#DejaVuSans-30" x="190.869141"/>
      </g>
     </g>
    </g>
    <g id="xtick_4">
     <g id="line2d_4">
      <g>
       <use xlink:href="#m2f6215d7b0" x="653.92333" y="448.56" style="stroke: #000000; stroke-width: 0.8"/>
      </g>
     </g>
     <g id="text_4">
      <!-- 3000 -->
      <g transform="translate(641.19833 463.158437) scale(0.1 -0.1)">
       <defs>
        <path id="DejaVuSans-33" d="M 2597 2516 
Q 3050 2419 3304 2112 
Q 3559 1806 3559 1356 
Q 3559 666 3084 287 
Q 2609 -91 1734 -91 
Q 1441 -91 1130 -33 
Q 819 25 488 141 
L 488 750 
Q 750 597 1062 519 
Q 1375 441 1716 441 
Q 2309 441 2620 675 
Q 2931 909 2931 1356 
Q 2931 1769 2642 2001 
Q 2353 2234 1838 2234 
L 1294 2234 
L 1294 2753 
L 1863 2753 
Q 2328 2753 2575 2939 
Q 2822 3125 2822 3475 
Q 2822 3834 2567 4026 
Q 2313 4219 1838 4219 
Q 1578 4219 1281 4162 
Q 984 4106 628 3988 
L 628 4550 
Q 988 4650 1302 4700 
Q 1616 4750 1894 4750 
Q 2613 4750 3031 4423 
Q 3450 4097 3450 3541 
Q 3450 3153 3228 2886 
Q 3006 2619 2597 2516 
z
" transform="scale(0.015625)"/>
       </defs>
       <use xlink:href="#DejaVuSans-33"/>
       <use xlink:href="#DejaVuSans-30" x="63.623047"/>
       <use xlink:href="#DejaVuSans-30" x="127.246094"/>
       <use xlink:href="#DejaVuSans-30" x="190.869141"/>
      </g>
     </g>
    </g>
    <g id="xtick_5">
     <g id="line2d_5">
      <g>
       <use xlink:href="#m2f6215d7b0" x="814.215955" y="448.56" style="stroke: #000000; stroke-width: 0.8"/>
      </g>
     </g>
     <g id="text_5">
      <!-- 4000 -->
      <g transform="translate(801.490955 463.158437) scale(0.1 -0.1)">
       <defs>
        <path id="DejaVuSans-34" d="M 2419 4116 
L 825 1625 
L 2419 1625 
L 2419 4116 
z
M 2253 4666 
L 3047 4666 
L 3047 1625 
L 3713 1625 
L 3713 1100 
L 3047 1100 
L 3047 0 
L 2419 0 
L 2419 1100 
L 313 1100 
L 313 1709 
L 2253 4666 
z
" transform="scale(0.015625)"/>
       </defs>
       <use xlink:href="#DejaVuSans-34"/>
       <use xlink:href="#DejaVuSans-30" x="63.623047"/>
       <use xlink:href="#DejaVuSans-30" x="127.246094"/>
       <use xlink:href="#DejaVuSans-30" x="190.869141"/>
      </g>
     </g>
    </g>
    <g id="text_6">
     <!-- t -->
     <g transform="translate(551.539844 476.836563) scale(0.1 -0.1)">
      <defs>
       <path id="DejaVuSans-74" d="M 1172 4494 
L 1172 3500 
L 2356 3500 
L 2356 3053 
L 1172 3053 
L 1172 1153 
Q 1172 725 1289 603 
Q 1406 481 1766 481 
L 2356 481 
L 2356 0 
L 1766 0 
Q 1100 0 847 248 
Q 594 497 594 1153 
L 594 3053 
L 172 3053 
L 172 3500 
L 594 3500 
L 594 4494 
L 1172 4494 
z
" transform="scale(0.015625)"/>
      </defs>
      <use xlink:href="#DejaVuSans-74"/>
     </g>
    </g>
   </g>
   <g id="matplotlib.axis_2">
    <g id="ytick_1">
     <g id="line2d_6">
      <defs>
       <path id="mdb201f192b" d="M 0 0 
L -3.5 0 
" style="stroke: #000000; stroke-width: 0.8"/>
      </defs>
      <g>
       <use xlink:href="#mdb201f192b" x="135" y="430.92" style="stroke: #000000; stroke-width: 0.8"/>
      </g>
     </g>
     <g id="text_7">
      <!-- 0.0 -->
      <g transform="translate(112.096875 434.719219) scale(0.1 -0.1)">
       <defs>
        <path id="DejaVuSans-2e" d="M 684 794 
L 1344 794 
L 1344 0 
L 684 0 
L 684 794 
z
" transform="scale(0.015625)"/>
       </defs>
       <use xlink:href="#DejaVuSans-30"/>
       <use xlink:href="#DejaVuSans-2e" x="63.623047"/>
       <use xlink:href="#DejaVuSans-30" x="95.410156"/>
      </g>
     </g>
    </g>
    <g id="ytick_2">
     <g id="line2d_7">
      <g>
       <use xlink:href="#mdb201f192b" x="135" y="360.36" style="stroke: #000000; stroke-width: 0.8"/>
      </g>
     </g>
     <g id="text_8">
      <!-- 0.2 -->
      <g transform="translate(112.096875 364.159219) scale(0.1 -0.1)">
       <use xlink:href="#DejaVuSans-30"/>
       <use xlink:href="#DejaVuSans-2e" x="63.623047"/>
       <use xlink:href="#DejaVuSans-32" x="95.410156"/>
      </g>
     </g>
    </g>
    <g id="ytick_3">
     <g id="line2d_8">
      <g>
       <use xlink:href="#mdb201f192b" x="135" y="289.8" style="stroke: #000000; stroke-width: 0.8"/>
      </g>
     </g>
     <g id="text_9">
      <!-- 0.4 -->
      <g transform="translate(112.096875 293.599219) scale(0.1 -0.1)">
       <use xlink:href="#DejaVuSans-30"/>
       <use xlink:href="#DejaVuSans-2e" x="63.623047"/>
       <use xlink:href="#DejaVuSans-34" x="95.410156"/>
      </g>
     </g>
    </g>
    <g id="ytick_4">
     <g id="line2d_9">
      <g>
       <use xlink:href="#mdb201f192b" x="135" y="219.24" style="stroke: #000000; stroke-width: 0.8"/>
      </g>
     </g>
     <g id="text_10">
      <!-- 0.6 -->
      <g transform="translate(112.096875 223.039219) scale(0.1 -0.1)">
       <defs>
        <path id="DejaVuSans-36" d="M 2113 2584 
Q 1688 2584 1439 2293 
Q 1191 2003 1191 1497 
Q 1191 994 1439 701 
Q 1688 409 2113 409 
Q 2538 409 2786 701 
Q 3034 994 3034 1497 
Q 3034 2003 2786 2293 
Q 2538 2584 2113 2584 
z
M 3366 4563 
L 3366 3988 
Q 3128 4100 2886 4159 
Q 2644 4219 2406 4219 
Q 1781 4219 1451 3797 
Q 1122 3375 1075 2522 
Q 1259 2794 1537 2939 
Q 1816 3084 2150 3084 
Q 2853 3084 3261 2657 
Q 3669 2231 3669 1497 
Q 3669 778 3244 343 
Q 2819 -91 2113 -91 
Q 1303 -91 875 529 
Q 447 1150 447 2328 
Q 447 3434 972 4092 
Q 1497 4750 2381 4750 
Q 2619 4750 2861 4703 
Q 3103 4656 3366 4563 
z
" transform="scale(0.015625)"/>
       </defs>
       <use xlink:href="#DejaVuSans-30"/>
       <use xlink:href="#DejaVuSans-2e" x="63.623047"/>
       <use xlink:href="#DejaVuSans-36" x="95.410156"/>
      </g>
     </g>
    </g>
    <g id="ytick_5">
     <g id="line2d_10">
      <g>
       <use xlink:href="#mdb201f192b" x="135" y="148.68" style="stroke: #000000; stroke-width: 0.8"/>
      </g>
     </g>
     <g id="text_11">
      <!-- 0.8 -->
      <g transform="translate(112.096875 152.479219) scale(0.1 -0.1)">
       <defs>
        <path id="DejaVuSans-38" d="M 2034 2216 
Q 1584 2216 1326 1975 
Q 1069 1734 1069 1313 
Q 1069 891 1326 650 
Q 1584 409 2034 409 
Q 2484 409 2743 651 
Q 3003 894 3003 1313 
Q 3003 1734 2745 1975 
Q 2488 2216 2034 2216 
z
M 1403 2484 
Q 997 2584 770 2862 
Q 544 3141 544 3541 
Q 544 4100 942 4425 
Q 1341 4750 2034 4750 
Q 2731 4750 3128 4425 
Q 3525 4100 3525 3541 
Q 3525 3141 3298 2862 
Q 3072 2584 2669 2484 
Q 3125 2378 3379 2068 
Q 3634 1759 3634 1313 
Q 3634 634 3220 271 
Q 2806 -91 2034 -91 
Q 1263 -91 848 271 
Q 434 634 434 1313 
Q 434 1759 690 2068 
Q 947 2378 1403 2484 
z
M 1172 3481 
Q 1172 3119 1398 2916 
Q 1625 2713 2034 2713 
Q 2441 2713 2670 2916 
Q 2900 3119 2900 3481 
Q 2900 3844 2670 4047 
Q 2441 4250 2034 4250 
Q 1625 4250 1398 4047 
Q 1172 3844 1172 3481 
z
" transform="scale(0.015625)"/>
       </defs>
       <use xlink:href="#DejaVuSans-30"/>
       <use xlink:href="#DejaVuSans-2e" x="63.623047"/>
       <use xlink:href="#DejaVuSans-38" x="95.410156"/>
      </g>
     </g>
    </g>
    <g id="ytick_6">
     <g id="line2d_11">
      <g>
       <use xlink:href="#mdb201f192b" x="135" y="78.12" style="stroke: #000000; stroke-width: 0.8"/>
      </g>
     </g>
     <g id="text_12">
      <!-- 1.0 -->
      <g transform="translate(112.096875 81.919219) scale(0.1 -0.1)">
       <use xlink:href="#DejaVuSans-31"/>
       <use xlink:href="#DejaVuSans-2e" x="63.623047"/>
       <use xlink:href="#DejaVuSans-30" x="95.410156"/>
      </g>
     </g>
    </g>
   </g>
   <g id="line2d_12">
    <path d="M 173.045455 415.390395 
L 173.846918 352.586891 
L 174.488088 318.559254 
L 174.968966 301.456759 
L 175.449844 290.8875 
L 175.770429 287.187997 
L 176.091014 285.979098 
L 176.251307 286.260933 
L 176.571892 288.505715 
L 176.892478 292.875095 
L 177.373355 303.120588 
L 177.854233 318.932719 
L 178.655696 347.578181 
L 179.45716 369.058507 
L 180.258623 384.551864 
L 180.899793 393.325178 
L 181.540964 399.377202 
L 182.021842 402.375254 
L 182.502719 404.223875 
L 182.823305 404.887101 
L 183.14389 405.139872 
L 183.464475 405.018013 
L 183.78506 404.555127 
L 184.265938 403.289729 
L 184.907109 400.686519 
L 185.708572 396.246616 
L 186.83062 388.424081 
L 188.433547 375.345291 
L 192.761447 339.074651 
L 194.524666 326.550035 
L 195.9673 317.804742 
L 197.249641 311.243666 
L 198.531982 305.834309 
L 199.65403 302.02807 
L 200.615786 299.430803 
L 201.577542 297.421867 
L 202.379005 296.176953 
L 203.180468 295.303496 
L 203.981931 294.783103 
L 204.623102 294.608326 
L 205.264272 294.637674 
L 205.905443 294.861359 
L 206.706906 295.399412 
L 207.508369 296.207067 
L 208.470125 297.506117 
L 209.592173 299.437246 
L 210.874514 302.134147 
L 212.317148 305.712346 
L 213.278903 308.375107 
L 213.920074 260.619161 
L 214.561244 227.417117 
L 215.042122 211.080248 
L 215.523 201.376853 
L 215.843585 198.300547 
L 216.003878 197.717853 
L 216.164171 197.7456 
L 216.324463 198.364497 
L 216.645049 201.300948 
L 217.125926 209.683813 
L 217.606804 222.434799 
L 218.247975 246.170878 
L 219.209731 281.90014 
L 220.011194 304.228902 
L 220.812657 320.967031 
L 221.61412 333.061364 
L 222.25529 339.945389 
L 222.896461 344.745504 
L 223.537631 347.783285 
L 224.018509 349.076987 
L 224.339095 349.530921 
L 224.65968 349.692358 
L 224.980265 349.588626 
L 225.30085 349.245299 
L 225.781728 348.332951 
L 226.422899 346.48821 
L 227.224362 343.388097 
L 228.34641 338.019293 
L 230.269922 327.456497 
L 232.994896 312.685906 
L 234.597823 305.222929 
L 235.880164 300.18799 
L 237.162505 296.066298 
L 238.284553 293.228531 
L 239.246309 291.363182 
L 240.208064 290.00796 
L 241.009528 289.254765 
L 241.810991 288.829384 
L 242.452161 288.715106 
L 243.093332 288.7929 
L 243.894795 289.147241 
L 244.696258 289.771255 
L 245.658014 290.851553 
L 246.619769 292.26503 
L 247.741818 294.295501 
L 249.024159 297.062695 
L 250.627085 301.095544 
L 252.550597 306.618623 
L 253.99323 311.143058 
L 254.634401 264.918317 
L 255.275571 233.116987 
L 255.756449 217.742092 
L 256.237327 208.923338 
L 256.557912 206.393516 
L 256.718205 206.071064 
L 256.878497 206.350397 
L 257.199083 208.637804 
L 257.519668 213.107274 
L 258.000546 223.596269 
L 258.641716 243.961377 
L 260.244643 301.817309 
L 261.046106 321.504276 
L 261.847569 336.050725 
L 262.649032 346.331573 
L 263.290202 351.994756 
L 263.931373 355.74767 
L 264.412251 357.48846 
L 264.893129 358.434139 
L 265.213714 358.673465 
L 265.534299 358.63255 
L 265.854884 358.337394 
L 266.335762 357.470754 
L 266.976933 355.639538 
L 267.778396 352.484575 
L 268.900444 346.915688 
L 270.663663 336.686499 
L 274.190101 316.000946 
L 275.793027 307.941327 
L 277.235661 301.772781 
L 278.518002 297.226215 
L 279.64005 293.984859 
L 280.762099 291.422612 
L 281.723854 289.751042 
L 282.68561 288.544224 
L 283.487073 287.877692 
L 284.288536 287.504526 
L 285.089999 287.409893 
L 285.891463 287.578482 
L 286.692926 287.994751 
L 287.654681 288.799278 
L 288.616437 289.911348 
L 289.738486 291.562626 
L 291.020827 293.867368 
L 292.46346 296.924493 
L 293.585509 299.595129 
L 294.226679 255.63273 
L 294.86785 225.890761 
L 295.348727 211.931857 
L 295.829605 204.422753 
L 296.150191 202.708726 
L 296.310483 202.777392 
L 296.470776 203.436842 
L 296.791361 206.452051 
L 297.272239 214.942973 
L 297.753117 227.784072 
L 298.394287 250.933031 
L 299.356043 286.550204 
L 300.157506 308.793697 
L 300.958969 325.442222 
L 301.760432 337.43349 
L 302.401603 344.220302 
L 303.042773 348.906662 
L 303.523651 351.236377 
L 304.004529 352.685388 
L 304.325114 353.216686 
L 304.6457 353.435473 
L 304.966285 353.369842 
L 305.28687 353.04611 
L 305.767748 352.130023 
L 306.408919 350.222063 
L 307.210382 346.956694 
L 308.33243 341.212673 
L 310.095649 330.678417 
L 313.622087 309.36381 
L 315.225013 301.041032 
L 316.667647 294.658771 
L 317.949988 289.944485 
L 319.072036 286.575488 
L 320.194084 283.904629 
L 321.15584 282.155708 
L 322.117596 280.886417 
L 322.919059 280.179321 
L 323.720522 279.776087 
L 324.521985 279.661866 
L 325.323448 279.82129 
L 326.124911 280.238711 
L 326.926375 280.898407 
L 327.88813 281.987841 
L 329.010179 283.635888 
L 330.29252 285.966429 
L 331.735153 289.088402 
L 333.33808 293.086452 
L 333.818957 294.380032 
L 334.460128 251.105054 
L 335.101298 222.000326 
L 335.582176 208.486301 
L 336.063054 201.39372 
L 336.383639 199.94165 
L 336.543932 200.136591 
L 336.704225 200.919189 
L 337.02481 204.171351 
L 337.505688 212.994506 
L 338.146858 231.40755 
L 340.390955 307.604011 
L 341.192418 324.338559 
L 341.993881 336.435589 
L 342.635052 343.317795 
L 343.276222 348.106664 
L 343.917393 351.119237 
L 344.398271 352.382577 
L 344.718856 352.81006 
L 345.039441 352.939676 
L 345.360026 352.798451 
L 345.680612 352.411695 
L 346.16149 351.422585 
L 346.80266 349.452864 
L 347.604123 346.158733 
L 348.726172 340.445986 
L 350.48939 330.077761 
L 353.855536 310.163873 
L 355.458462 301.983164 
L 356.901095 295.703065 
L 358.183436 291.060719 
L 359.305485 287.741394 
L 360.427533 285.109027 
L 361.389289 283.385108 
L 362.351045 282.134244 
L 363.152508 281.438025 
L 363.953971 281.042053 
L 364.755434 280.931895 
L 365.556897 281.092583 
L 366.35836 281.508858 
L 367.159823 282.165366 
L 368.121579 283.248772 
L 369.243628 284.887463 
L 370.525969 287.205262 
L 371.968602 290.311616 
L 373.090651 293.04527 
L 373.731821 250.521549 
L 374.372992 222.100282 
L 374.853869 209.055781 
L 375.174455 203.944048 
L 375.49504 201.494047 
L 375.655333 201.214723 
L 375.815625 201.538904 
L 376.13621 203.919974 
L 376.456796 208.486535 
L 376.937674 219.123144 
L 377.578844 239.679469 
L 379.18177 297.258006 
L 379.983233 316.984124 
L 380.784697 331.566086 
L 381.58616 341.876992 
L 382.22733 347.559323 
L 382.868501 351.326418 
L 383.349379 353.074333 
L 383.830256 354.023987 
L 384.150842 354.264173 
L 384.471427 354.222667 
L 384.792012 353.925461 
L 385.27289 353.053014 
L 385.914061 351.209 
L 386.715524 348.03013 
L 387.837572 342.413871 
L 389.440498 333.059456 
L 393.287521 310.249447 
L 394.890448 302.171651 
L 396.333081 296.005022 
L 397.615422 291.472097 
L 398.737471 288.25123 
L 399.859519 285.717473 
L 400.821275 284.076956 
L 401.622738 283.070718 
L 402.424201 282.37934 
L 403.225664 281.989196 
L 404.027127 281.885826 
L 404.82859 282.054237 
L 405.630053 282.47914 
L 406.431517 283.145149 
L 407.393272 284.241056 
L 408.515321 285.895759 
L 409.797662 288.233583 
L 411.240295 291.364409 
L 412.843222 295.374339 
L 413.644685 297.559146 
L 414.285855 254.66949 
L 414.927026 225.916804 
L 415.407904 212.644104 
L 415.888781 205.772766 
L 416.209367 204.4568 
L 416.369659 204.716328 
L 416.690245 206.972245 
L 417.01083 211.418834 
L 417.491708 221.884296 
L 418.132878 242.226824 
L 419.735804 299.918343 
L 420.537268 319.753971 
L 421.338731 334.429078 
L 422.140194 344.81849 
L 422.781364 350.554069 
L 423.422535 354.366616 
L 423.903413 356.143841 
L 424.384291 357.118948 
L 424.704876 357.374055 
L 425.025461 357.345893 
L 425.346046 357.060506 
L 425.826924 356.20303 
L 426.468095 354.374059 
L 427.269558 351.20654 
L 428.391606 345.593278 
L 429.994532 336.219538 
L 433.841555 313.268918 
L 435.444482 305.100854 
L 436.887115 298.840492 
L 438.169456 294.21594 
L 439.291505 290.90956 
L 440.413553 288.286196 
L 441.375309 286.566234 
L 442.337065 285.315593 
L 443.138528 284.616667 
L 443.939991 284.215405 
L 444.741454 284.097474 
L 445.542917 284.248045 
L 446.34438 284.65203 
L 447.145843 285.294264 
L 448.107599 286.358202 
L 449.229647 287.971412 
L 450.511988 290.257131 
L 451.954622 293.324593 
L 453.557548 297.259869 
L 454.198719 254.720503 
L 454.839889 226.285524 
L 455.320767 213.230699 
L 455.641352 208.111553 
L 455.961938 205.653406 
L 456.12223 205.369653 
L 456.282523 205.689125 
L 456.603108 208.059821 
L 456.923693 212.61454 
L 457.404571 223.230158 
L 458.045742 243.751448 
L 459.648668 301.145999 
L 460.450131 320.776163 
L 461.251594 335.266665 
L 462.053057 345.490376 
L 462.694228 351.105817 
L 463.335398 354.808369 
L 463.816276 356.509301 
L 464.297154 357.4131 
L 464.617739 357.623301 
L 464.938325 357.552249 
L 465.25891 357.225913 
L 465.739788 356.310497 
L 466.380958 354.410431 
L 467.182421 351.163248 
L 468.30447 345.454085 
L 470.067689 334.98084 
L 473.594126 313.749556 
L 475.197053 305.433821 
L 476.639686 299.039973 
L 477.922027 294.302111 
L 479.044076 290.903398 
L 480.166124 288.195574 
L 481.12788 286.410182 
L 482.089636 285.100892 
L 482.891099 284.35838 
L 483.692562 283.918351 
L 484.494025 283.766421 
L 485.295488 283.887667 
L 486.096951 284.266866 
L 486.898414 284.888691 
L 487.86017 285.933656 
L 488.982218 287.531891 
L 490.264559 289.809204 
L 491.707193 292.877206 
L 493.310119 296.823933 
L 493.630705 297.672805 
L 494.271875 255.136414 
L 494.913046 226.706467 
L 495.393923 213.65648 
L 495.714509 208.540951 
L 496.035094 206.086658 
L 496.195387 205.804902 
L 496.355679 206.12641 
L 496.676264 208.501255 
L 496.99685 213.06018 
L 497.477728 223.682095 
L 498.118898 244.211481 
L 499.721824 301.647214 
L 500.523287 321.299902 
L 501.324751 335.812296 
L 502.126214 346.057231 
L 502.767384 351.689126 
L 503.408555 355.407625 
L 503.889433 357.120156 
L 504.37031 358.035224 
L 504.690896 358.252745 
L 505.011481 358.188851 
L 505.332066 357.869505 
L 505.812944 356.96425 
L 506.454115 355.077097 
L 507.255578 351.844977 
L 508.377626 346.154771 
L 510.140845 335.705957 
L 513.667283 314.502774 
L 515.270209 306.190618 
L 516.712843 299.795276 
L 517.995184 295.052525 
L 519.117232 291.646942 
L 520.23928 288.929984 
L 521.201036 287.135076 
L 522.162792 285.814824 
L 522.964255 285.062147 
L 523.765718 284.611082 
L 524.567181 284.447308 
L 525.368644 284.555961 
L 526.170107 284.921881 
L 526.971571 285.529799 
L 527.933326 286.557329 
L 529.055375 288.134317 
L 530.337716 290.386337 
L 531.780349 293.424847 
L 533.383276 297.337848 
L 533.864153 298.607712 
L 534.505324 256.051593 
L 535.146494 227.603978 
L 535.627372 214.541915 
L 535.947958 209.41882 
L 536.268543 206.957302 
L 536.428835 206.672048 
L 536.589128 206.990127 
L 536.909713 209.358302 
L 537.230299 213.910776 
L 537.711176 224.523334 
L 538.352347 245.040645 
L 539.955273 302.415514 
L 540.756736 322.034711 
L 541.558199 336.51446 
L 542.359663 346.727696 
L 543.000833 352.33495 
L 543.642004 356.029461 
L 544.122881 357.72443 
L 544.603759 358.6223 
L 544.924345 358.828554 
L 545.24493 358.753551 
L 545.565515 358.423252 
L 546.046393 357.501849 
L 546.687563 355.593681 
L 547.489027 352.336084 
L 548.611075 346.611588 
L 550.374294 336.111819 
L 553.900732 314.815621 
L 555.503658 306.464426 
L 556.946291 300.035443 
L 558.228632 295.263902 
L 559.350681 291.833956 
L 560.472729 289.093393 
L 561.434485 287.278853 
L 562.396241 285.939523 
L 563.197704 285.171374 
L 563.999167 284.705229 
L 564.80063 284.526768 
L 565.602093 284.621135 
L 566.403556 284.973171 
L 567.205019 285.567613 
L 568.166775 286.579516 
L 569.288824 288.139033 
L 570.571165 290.372098 
L 572.013798 293.390585 
L 573.616724 297.282963 
L 574.257895 298.977301 
L 574.899065 256.397638 
L 575.540236 227.929486 
L 576.021114 214.85385 
L 576.341699 209.722515 
L 576.662284 207.253365 
L 576.822577 206.964511 
L 576.98287 207.279129 
L 577.303455 209.64078 
L 577.62404 214.187228 
L 578.104918 224.791606 
L 578.746088 245.299427 
L 580.349015 302.650186 
L 581.150478 322.256165 
L 581.951941 336.722462 
L 582.753404 346.922239 
L 583.394575 352.51884 
L 584.035745 356.202869 
L 584.516623 357.890122 
L 584.997501 358.780418 
L 585.318086 358.981709 
L 585.638671 358.901814 
L 585.959257 358.566698 
L 586.440134 357.638213 
L 587.081305 355.720875 
L 587.882768 352.452259 
L 589.004816 346.713163 
L 590.768035 336.192301 
L 594.294473 314.859783 
L 595.897399 306.494178 
L 597.340033 300.053121 
L 598.622374 295.271462 
L 599.744422 291.833083 
L 600.866471 289.084441 
L 601.828226 287.263236 
L 602.789982 285.917464 
L 603.591445 285.14411 
L 604.392908 284.672902 
L 605.194372 284.489518 
L 605.995835 284.579098 
L 606.797298 284.92648 
L 607.598761 285.516401 
L 608.560517 286.523054 
L 609.682565 288.076684 
L 610.964906 290.303337 
L 612.40754 293.315017 
L 613.209003 295.192658 
L 613.850173 253.267208 
L 614.491344 225.393305 
L 614.972222 212.726542 
L 615.292807 207.851245 
L 615.613392 205.625507 
L 615.773685 205.453785 
L 615.933977 205.882571 
L 616.254563 208.463919 
L 616.575148 213.218965 
L 617.056026 224.116501 
L 617.697196 244.980867 
L 619.13983 297.512433 
L 619.941293 318.05154 
L 620.742756 333.292465 
L 621.544219 344.130532 
L 622.18539 350.152753 
L 622.82656 354.196474 
L 623.307438 356.115035 
L 623.788316 357.207079 
L 624.108901 357.52784 
L 624.429487 357.556306 
L 624.750072 357.319171 
L 625.23095 356.519709 
L 625.711828 355.256197 
L 626.352998 352.970009 
L 627.314754 348.544218 
L 628.597095 341.412202 
L 634.688215 305.729974 
L 636.130848 299.218425 
L 637.413189 294.375548 
L 638.535238 290.887412 
L 639.657286 288.094103 
L 640.619042 286.239374 
L 641.580797 284.86484 
L 642.382261 284.071276 
L 643.183724 283.583292 
L 643.985187 283.386528 
L 644.78665 283.466037 
L 645.588113 283.806537 
L 646.389576 284.392613 
L 647.351332 285.39842 
L 648.47338 286.955842 
L 649.755721 289.192458 
L 651.198355 292.221508 
L 652.801281 296.132374 
L 653.92333 299.159742 
L 654.5645 256.541126 
L 655.205671 228.039226 
L 655.686548 214.941414 
L 656.007134 209.796676 
L 656.327719 207.315157 
L 656.488012 207.020488 
L 656.648304 207.329526 
L 656.968889 209.680698 
L 657.289475 214.217524 
L 657.770353 224.808955 
L 658.411523 245.302009 
L 660.014449 302.738818 
L 660.815912 322.39872 
L 661.617376 336.915734 
L 662.418839 347.162866 
L 663.060009 352.794841 
L 663.70118 356.511952 
L 664.182058 358.222485 
L 664.662935 359.134731 
L 664.983521 359.349911 
L 665.304106 359.283305 
L 665.624691 358.960877 
L 666.105569 358.050293 
L 666.74674 356.154708 
L 667.548203 352.909888 
L 668.670251 347.197806 
L 670.273177 337.697809 
L 674.1202 314.488655 
L 675.723127 306.223262 
L 677.16576 299.878111 
L 678.448101 295.179774 
L 679.57015 291.80979 
L 680.692198 289.123601 
L 681.653954 287.350376 
L 682.615709 286.047024 
L 683.417173 285.304612 
L 684.218636 284.860291 
L 685.020099 284.699758 
L 685.821562 284.808219 
L 686.623025 285.17062 
L 687.424488 285.771835 
L 688.386244 286.787348 
L 689.508292 288.345238 
L 690.790633 290.569395 
L 692.233267 293.569861 
L 693.836193 297.433665 
L 694.156778 298.265121 
L 694.797949 255.85191 
L 695.439119 227.535465 
L 695.919997 214.564532 
L 696.240583 209.498901 
L 696.561168 207.092311 
L 696.72146 206.833594 
L 696.881753 207.177606 
L 697.202338 209.595869 
L 697.522924 214.196119 
L 698.003801 224.876162 
L 698.644972 245.476009 
L 700.087606 298.082691 
L 700.889069 318.731564 
L 701.690532 334.060415 
L 702.491995 344.967646 
L 703.133165 351.033481 
L 703.774336 355.111685 
L 704.255214 357.050747 
L 704.736092 358.159137 
L 705.056677 358.488666 
L 705.377262 358.524309 
L 705.697847 358.292856 
L 706.178725 357.499297 
L 706.659603 356.238783 
L 707.300774 353.952495 
L 708.262529 349.518807 
L 709.54487 342.364084 
L 712.59043 323.485417 
L 714.674234 311.422258 
L 716.277161 303.393556 
L 717.719794 297.302903 
L 719.002135 292.848891 
L 720.124184 289.699179 
L 721.246232 287.234549 
L 722.207988 285.649657 
L 723.009451 284.68633 
L 723.810914 284.034256 
L 724.612377 283.679521 
L 725.41384 283.607503 
L 726.215303 283.803148 
L 727.016767 284.251187 
L 727.978522 285.100453 
L 728.940278 286.264923 
L 730.062326 287.987591 
L 731.344667 290.388167 
L 732.787301 293.572077 
L 734.069642 296.772943 
L 734.710813 254.499498 
L 735.351983 226.312061 
L 735.832861 213.43129 
L 736.153446 208.422808 
L 736.474031 206.071114 
L 736.634324 205.839029 
L 736.794617 206.209144 
L 737.115202 208.678077 
L 737.435787 213.327023 
L 737.916665 224.076608 
L 738.557836 244.763099 
L 740.000469 297.422551 
L 740.801932 318.086079 
L 741.603395 333.43369 
L 742.404859 344.363006 
L 743.046029 350.448449 
L 743.6872 354.54766 
L 744.168077 356.503236 
L 744.648955 357.628682 
L 744.969541 357.969836 
L 745.290126 358.017281 
L 745.610711 357.797782 
L 746.091589 357.022395 
L 746.572467 355.780282 
L 747.213637 353.518783 
L 748.175393 349.12257 
L 749.457734 342.017816 
L 752.503294 323.254477 
L 754.587098 311.265294 
L 756.190024 303.289951 
L 757.632658 297.244402 
L 758.914999 292.828029 
L 760.037047 289.709297 
L 761.159096 287.273785 
L 762.120851 285.71235 
L 762.922315 284.767504 
L 763.723778 284.132938 
L 764.525241 283.794735 
L 765.326704 283.738274 
L 766.128167 283.948501 
L 766.92963 284.410151 
L 767.891386 285.274473 
L 768.853142 286.452617 
L 769.97519 288.189506 
L 771.257531 290.604083 
L 772.700165 293.800925 
L 773.822213 296.592491 
L 774.463384 254.389142 
L 775.104554 226.265031 
L 775.585432 213.427576 
L 775.906017 208.446085 
L 776.226602 206.119939 
L 776.386895 205.900105 
L 776.547188 206.28213 
L 776.867773 208.773893 
L 777.188358 213.444393 
L 777.669236 224.224037 
L 778.310407 244.946649 
L 779.75304 297.590656 
L 780.554503 318.23636 
L 781.355966 333.569465 
L 782.15743 344.48697 
L 782.7986 350.564545 
L 783.439771 354.657038 
L 783.920648 356.608206 
L 784.401526 357.729696 
L 784.722112 358.068432 
L 785.042697 358.11361 
L 785.363282 357.89198 
L 785.84416 357.113613 
L 786.325038 355.868738 
L 786.966208 353.603819 
L 787.927964 349.202863 
L 789.210305 342.092126 
L 792.255865 323.314058 
L 794.339669 311.313243 
L 795.942595 303.327832 
L 797.385229 297.272381 
L 798.66757 292.846583 
L 799.789618 289.719164 
L 800.911667 287.274602 
L 801.873422 285.705156 
L 802.674886 284.753479 
L 803.476349 284.11196 
L 804.277812 283.766699 
L 805.079275 283.703093 
L 805.880738 283.906105 
L 806.682201 284.360485 
L 807.643957 285.216036 
L 808.605713 286.385378 
L 809.727761 288.111996 
L 811.010102 290.514871 
L 812.452736 293.698658 
L 813.414491 296.067961 
L 814.055662 253.959345 
L 814.696832 225.920836 
L 815.17771 213.141965 
L 815.498296 208.197003 
L 815.818881 205.905452 
L 815.979173 205.702214 
L 816.139466 206.100381 
L 816.460051 208.623101 
L 816.780637 213.322852 
L 817.261514 224.143335 
L 817.902685 244.915104 
L 819.345319 297.524194 
L 820.146782 318.136284 
L 820.948245 333.44091 
L 821.749708 344.33431 
L 822.390878 350.395308 
L 823.032049 354.473308 
L 823.512927 356.414816 
L 823.993805 357.527576 
L 824.31439 357.860963 
L 824.634975 357.90114 
L 824.95556 357.674833 
L 825.436438 356.890016 
L 825.917316 355.639307 
L 826.558487 353.367465 
L 827.520242 348.957702 
L 828.802583 341.837621 
L 831.848143 323.04496 
L 833.931947 311.038101 
L 835.534874 303.049417 
L 836.977507 296.991775 
L 838.259848 292.564508 
L 839.381897 289.436118 
L 840.503945 286.990842 
L 841.465701 285.420969 
L 842.267164 284.469058 
L 843.068627 283.827408 
L 843.87009 283.482115 
L 844.671553 283.418572 
L 845.473016 283.621736 
L 846.27448 284.076356 
L 847.236235 284.932304 
L 848.197991 286.102157 
L 849.320039 287.829507 
L 850.60238 290.23339 
L 852.045014 293.418509 
L 853.808233 297.896892 
L 854.609696 300.113287 
L 855.250867 257.356105 
L 855.892037 228.728752 
L 856.372915 215.5449 
L 856.853793 208.757568 
L 857.174378 207.494715 
L 857.334671 207.779887 
L 857.655256 210.085193 
L 857.975841 214.578543 
L 858.456719 225.108983 
L 859.09789 245.527993 
L 860.700816 302.933524 
L 861.502279 322.58716 
L 862.303742 337.09317 
L 863.105205 347.325562 
L 863.746376 352.943626 
L 864.387546 356.645344 
L 864.868424 358.343551 
L 865.349302 359.242933 
L 865.669887 359.44929 
L 865.990472 359.373698 
L 866.311058 359.042143 
L 866.791936 358.117664 
L 867.433106 356.203275 
L 868.234569 352.934714 
L 869.356618 347.189382 
L 871.119836 336.645206 
L 874.646274 315.223892 
L 876.409493 306.027265 
L 877.852127 299.650636 
L 879.134468 294.926527 
L 880.256516 291.535709 
L 881.378564 288.830286 
L 882.34032 287.041846 
L 883.302076 285.724447 
L 884.103539 284.971216 
L 884.905002 284.516878 
L 885.706465 284.347125 
L 886.507928 284.447159 
L 887.309392 284.80192 
L 888.110855 285.396274 
L 889.07261 286.404577 
L 890.194659 287.955449 
L 891.477 290.173398 
L 892.919633 293.169145 
L 894.362267 296.62176 
L 895.003438 254.425685 
L 895.644608 226.307765 
L 896.125486 213.474319 
L 896.446071 208.495225 
L 896.766656 206.171269 
L 896.926949 205.952456 
L 897.087242 206.335454 
L 897.407827 208.829023 
L 897.728412 213.50115 
L 898.20929 224.282913 
L 898.850461 245.007778 
L 900.293094 297.558058 
L 901.094557 318.138887 
L 901.89602 333.409817 
L 902.697484 344.268148 
L 903.338654 350.300703 
L 903.979825 354.350339 
L 904.460702 356.270826 
L 904.94158 357.362914 
L 905.262166 357.682768 
L 905.582751 357.709644 
L 905.903336 357.470293 
L 906.384214 356.666442 
L 906.865092 355.397401 
L 907.506262 353.102309 
L 908.468018 348.660455 
L 909.750359 341.503204 
L 915.841479 305.675755 
L 917.284112 299.128713 
L 918.566453 294.254841 
L 919.688502 290.740197 
L 920.81055 287.921082 
L 921.772306 286.044873 
L 922.734062 284.649518 
L 923.535525 283.839145 
L 924.336988 283.334883 
L 925.138451 283.122398 
L 925.939914 283.186773 
L 926.741377 283.512754 
L 927.54284 284.084952 
L 928.504596 285.074985 
L 929.626645 286.615272 
L 930.908986 288.834044 
L 932.351619 291.84533 
L 933.794253 295.326805 
L 933.954545 283.399418 
L 933.954545 283.399418 
" clip-path="url(#p8ee315048a)" style="fill: none; stroke: #1f77b4; stroke-width: 1.5; stroke-linecap: square"/>
   </g>
   <g id="line2d_13">
    <path d="M 173.045455 78.12 
L 177.693941 78.12 
L 177.854233 430.92 
L 213.278903 430.92 
L 213.439196 78.12 
L 218.087682 78.12 
L 218.247975 430.92 
L 253.99323 430.92 
L 254.153523 78.12 
L 258.802009 78.12 
L 258.962302 430.92 
L 293.585509 430.92 
L 293.745801 78.12 
L 298.394287 78.12 
L 298.55458 430.92 
L 333.818957 430.92 
L 333.97925 78.12 
L 338.627736 78.12 
L 338.788029 430.92 
L 373.090651 430.92 
L 373.250943 78.12 
L 377.899429 78.12 
L 378.059722 430.92 
L 413.644685 430.92 
L 413.804977 78.12 
L 418.453463 78.12 
L 418.613756 430.92 
L 453.557548 430.92 
L 453.717841 78.12 
L 458.366327 78.12 
L 458.52662 430.92 
L 493.630705 430.92 
L 493.790997 78.12 
L 498.439483 78.12 
L 498.599776 430.92 
L 533.864153 430.92 
L 534.024446 78.12 
L 538.672932 78.12 
L 538.833225 430.92 
L 574.257895 430.92 
L 574.418188 78.12 
L 579.066674 78.12 
L 579.226966 430.92 
L 613.209003 430.92 
L 613.369295 78.12 
L 618.017782 78.12 
L 618.178074 430.92 
L 653.92333 430.92 
L 654.083622 78.12 
L 658.732108 78.12 
L 658.892401 430.92 
L 694.156778 430.92 
L 694.317071 78.12 
L 698.965557 78.12 
L 699.12585 430.92 
L 734.069642 430.92 
L 734.229935 78.12 
L 738.878421 78.12 
L 739.038713 430.92 
L 773.822213 430.92 
L 773.982506 78.12 
L 778.630992 78.12 
L 778.791284 430.92 
L 813.414491 430.92 
L 813.574784 78.12 
L 818.22327 78.12 
L 818.383563 430.92 
L 854.609696 430.92 
L 854.769989 78.12 
L 859.418475 78.12 
L 859.578767 430.92 
L 894.362267 430.92 
L 894.52256 78.12 
L 899.171046 78.12 
L 899.331338 430.92 
L 933.794253 430.92 
L 933.954545 78.12 
L 933.954545 78.12 
" clip-path="url(#p8ee315048a)" style="fill: none; stroke: #ff7f0e; stroke-width: 1.5; stroke-linecap: square"/>
   </g>
   <g id="line2d_14">
    <path d="M 929.466352 430.92 
" clip-path="url(#p8ee315048a)" style="fill: none; stroke: #000000; stroke-width: 1.5; stroke-linecap: square"/>
    <defs>
     <path id="m35cd5d1fab" d="M 0 1 
C 0.265203 1 0.51958 0.894634 0.707107 0.707107 
C 0.894634 0.51958 1 0.265203 1 0 
C 1 -0.265203 0.894634 -0.51958 0.707107 -0.707107 
C 0.51958 -0.894634 0.265203 -1 0 -1 
C -0.265203 -1 -0.51958 -0.894634 -0.707107 -0.707107 
C -0.894634 -0.51958 -1 -0.265203 -1 0 
C -1 0.265203 -0.894634 0.51958 -0.707107 0.707107 
C -0.51958 0.894634 -0.265203 1 0 1 
z
" style="stroke: #000000"/>
    </defs>
    <g clip-path="url(#p8ee315048a)">
     <use xlink:href="#m35cd5d1fab" x="173.045455" y="78.12" style="stroke: #000000"/>
     <use xlink:href="#m35cd5d1fab" x="178.174819" y="430.92" style="stroke: #000000"/>
     <use xlink:href="#m35cd5d1fab" x="183.14389" y="430.92" style="stroke: #000000"/>
     <use xlink:href="#m35cd5d1fab" x="188.112961" y="78.12" style="stroke: #000000"/>
     <use xlink:href="#m35cd5d1fab" x="193.082033" y="430.92" style="stroke: #000000"/>
     <use xlink:href="#m35cd5d1fab" x="198.211397" y="430.92" style="stroke: #000000"/>
     <use xlink:href="#m35cd5d1fab" x="203.180468" y="78.12" style="stroke: #000000"/>
     <use xlink:href="#m35cd5d1fab" x="208.149539" y="430.92" style="stroke: #000000"/>
     <use xlink:href="#m35cd5d1fab" x="213.118611" y="78.12" style="stroke: #000000"/>
     <use xlink:href="#m35cd5d1fab" x="218.247975" y="430.92" style="stroke: #000000"/>
     <use xlink:href="#m35cd5d1fab" x="223.217046" y="430.92" style="stroke: #000000"/>
     <use xlink:href="#m35cd5d1fab" x="228.186118" y="78.12" style="stroke: #000000"/>
     <use xlink:href="#m35cd5d1fab" x="233.155189" y="430.92" style="stroke: #000000"/>
     <use xlink:href="#m35cd5d1fab" x="238.284553" y="430.92" style="stroke: #000000"/>
     <use xlink:href="#m35cd5d1fab" x="243.253624" y="78.12" style="stroke: #000000"/>
     <use xlink:href="#m35cd5d1fab" x="248.222696" y="430.92" style="stroke: #000000"/>
     <use xlink:href="#m35cd5d1fab" x="253.191767" y="78.12" style="stroke: #000000"/>
     <use xlink:href="#m35cd5d1fab" x="258.321131" y="430.92" style="stroke: #000000"/>
     <use xlink:href="#m35cd5d1fab" x="263.290202" y="430.92" style="stroke: #000000"/>
     <use xlink:href="#m35cd5d1fab" x="268.259274" y="78.12" style="stroke: #000000"/>
     <use xlink:href="#m35cd5d1fab" x="273.228345" y="430.92" style="stroke: #000000"/>
     <use xlink:href="#m35cd5d1fab" x="278.357709" y="430.92" style="stroke: #000000"/>
     <use xlink:href="#m35cd5d1fab" x="283.326781" y="78.12" style="stroke: #000000"/>
     <use xlink:href="#m35cd5d1fab" x="288.295852" y="430.92" style="stroke: #000000"/>
     <use xlink:href="#m35cd5d1fab" x="293.264923" y="78.12" style="stroke: #000000"/>
     <use xlink:href="#m35cd5d1fab" x="298.394287" y="430.92" style="stroke: #000000"/>
     <use xlink:href="#m35cd5d1fab" x="303.363359" y="430.92" style="stroke: #000000"/>
     <use xlink:href="#m35cd5d1fab" x="308.33243" y="78.12" style="stroke: #000000"/>
     <use xlink:href="#m35cd5d1fab" x="313.301501" y="430.92" style="stroke: #000000"/>
     <use xlink:href="#m35cd5d1fab" x="318.430865" y="430.92" style="stroke: #000000"/>
     <use xlink:href="#m35cd5d1fab" x="323.399937" y="78.12" style="stroke: #000000"/>
     <use xlink:href="#m35cd5d1fab" x="328.369008" y="430.92" style="stroke: #000000"/>
     <use xlink:href="#m35cd5d1fab" x="333.33808" y="78.12" style="stroke: #000000"/>
     <use xlink:href="#m35cd5d1fab" x="338.467444" y="430.92" style="stroke: #000000"/>
     <use xlink:href="#m35cd5d1fab" x="343.436515" y="430.92" style="stroke: #000000"/>
     <use xlink:href="#m35cd5d1fab" x="348.405586" y="78.12" style="stroke: #000000"/>
     <use xlink:href="#m35cd5d1fab" x="353.374658" y="430.92" style="stroke: #000000"/>
     <use xlink:href="#m35cd5d1fab" x="358.504022" y="430.92" style="stroke: #000000"/>
     <use xlink:href="#m35cd5d1fab" x="363.473093" y="78.12" style="stroke: #000000"/>
     <use xlink:href="#m35cd5d1fab" x="368.442164" y="430.92" style="stroke: #000000"/>
     <use xlink:href="#m35cd5d1fab" x="373.411236" y="78.12" style="stroke: #000000"/>
     <use xlink:href="#m35cd5d1fab" x="378.5406" y="430.92" style="stroke: #000000"/>
     <use xlink:href="#m35cd5d1fab" x="383.509671" y="430.92" style="stroke: #000000"/>
     <use xlink:href="#m35cd5d1fab" x="388.478743" y="78.12" style="stroke: #000000"/>
     <use xlink:href="#m35cd5d1fab" x="393.447814" y="430.92" style="stroke: #000000"/>
     <use xlink:href="#m35cd5d1fab" x="398.577178" y="430.92" style="stroke: #000000"/>
     <use xlink:href="#m35cd5d1fab" x="403.546249" y="78.12" style="stroke: #000000"/>
     <use xlink:href="#m35cd5d1fab" x="408.515321" y="430.92" style="stroke: #000000"/>
     <use xlink:href="#m35cd5d1fab" x="413.484392" y="78.12" style="stroke: #000000"/>
     <use xlink:href="#m35cd5d1fab" x="418.613756" y="430.92" style="stroke: #000000"/>
     <use xlink:href="#m35cd5d1fab" x="423.582827" y="430.92" style="stroke: #000000"/>
     <use xlink:href="#m35cd5d1fab" x="428.551899" y="78.12" style="stroke: #000000"/>
     <use xlink:href="#m35cd5d1fab" x="433.52097" y="430.92" style="stroke: #000000"/>
     <use xlink:href="#m35cd5d1fab" x="438.650334" y="430.92" style="stroke: #000000"/>
     <use xlink:href="#m35cd5d1fab" x="443.619406" y="78.12" style="stroke: #000000"/>
     <use xlink:href="#m35cd5d1fab" x="448.588477" y="430.92" style="stroke: #000000"/>
     <use xlink:href="#m35cd5d1fab" x="453.557548" y="78.12" style="stroke: #000000"/>
     <use xlink:href="#m35cd5d1fab" x="458.686912" y="430.92" style="stroke: #000000"/>
     <use xlink:href="#m35cd5d1fab" x="463.655984" y="430.92" style="stroke: #000000"/>
     <use xlink:href="#m35cd5d1fab" x="468.625055" y="78.12" style="stroke: #000000"/>
     <use xlink:href="#m35cd5d1fab" x="473.594126" y="430.92" style="stroke: #000000"/>
     <use xlink:href="#m35cd5d1fab" x="478.72349" y="430.92" style="stroke: #000000"/>
     <use xlink:href="#m35cd5d1fab" x="483.692562" y="78.12" style="stroke: #000000"/>
     <use xlink:href="#m35cd5d1fab" x="488.661633" y="430.92" style="stroke: #000000"/>
     <use xlink:href="#m35cd5d1fab" x="493.630705" y="78.12" style="stroke: #000000"/>
     <use xlink:href="#m35cd5d1fab" x="498.760069" y="430.92" style="stroke: #000000"/>
     <use xlink:href="#m35cd5d1fab" x="503.72914" y="430.92" style="stroke: #000000"/>
     <use xlink:href="#m35cd5d1fab" x="508.698211" y="78.12" style="stroke: #000000"/>
     <use xlink:href="#m35cd5d1fab" x="513.667283" y="430.92" style="stroke: #000000"/>
     <use xlink:href="#m35cd5d1fab" x="518.796647" y="430.92" style="stroke: #000000"/>
     <use xlink:href="#m35cd5d1fab" x="523.765718" y="78.12" style="stroke: #000000"/>
     <use xlink:href="#m35cd5d1fab" x="528.734789" y="430.92" style="stroke: #000000"/>
     <use xlink:href="#m35cd5d1fab" x="533.703861" y="78.12" style="stroke: #000000"/>
     <use xlink:href="#m35cd5d1fab" x="538.833225" y="430.92" style="stroke: #000000"/>
     <use xlink:href="#m35cd5d1fab" x="543.802296" y="430.92" style="stroke: #000000"/>
     <use xlink:href="#m35cd5d1fab" x="548.771368" y="78.12" style="stroke: #000000"/>
     <use xlink:href="#m35cd5d1fab" x="553.740439" y="430.92" style="stroke: #000000"/>
     <use xlink:href="#m35cd5d1fab" x="558.869803" y="430.92" style="stroke: #000000"/>
     <use xlink:href="#m35cd5d1fab" x="563.838874" y="78.12" style="stroke: #000000"/>
     <use xlink:href="#m35cd5d1fab" x="568.807946" y="430.92" style="stroke: #000000"/>
     <use xlink:href="#m35cd5d1fab" x="573.777017" y="78.12" style="stroke: #000000"/>
     <use xlink:href="#m35cd5d1fab" x="578.906381" y="430.92" style="stroke: #000000"/>
     <use xlink:href="#m35cd5d1fab" x="583.875452" y="430.92" style="stroke: #000000"/>
     <use xlink:href="#m35cd5d1fab" x="588.844524" y="78.12" style="stroke: #000000"/>
     <use xlink:href="#m35cd5d1fab" x="593.813595" y="430.92" style="stroke: #000000"/>
     <use xlink:href="#m35cd5d1fab" x="598.942959" y="430.92" style="stroke: #000000"/>
     <use xlink:href="#m35cd5d1fab" x="603.912031" y="78.12" style="stroke: #000000"/>
     <use xlink:href="#m35cd5d1fab" x="608.881102" y="430.92" style="stroke: #000000"/>
     <use xlink:href="#m35cd5d1fab" x="613.850173" y="78.12" style="stroke: #000000"/>
     <use xlink:href="#m35cd5d1fab" x="618.979537" y="430.92" style="stroke: #000000"/>
     <use xlink:href="#m35cd5d1fab" x="623.948609" y="430.92" style="stroke: #000000"/>
     <use xlink:href="#m35cd5d1fab" x="628.91768" y="78.12" style="stroke: #000000"/>
     <use xlink:href="#m35cd5d1fab" x="633.886751" y="430.92" style="stroke: #000000"/>
     <use xlink:href="#m35cd5d1fab" x="639.016115" y="430.92" style="stroke: #000000"/>
     <use xlink:href="#m35cd5d1fab" x="643.985187" y="78.12" style="stroke: #000000"/>
     <use xlink:href="#m35cd5d1fab" x="648.954258" y="430.92" style="stroke: #000000"/>
     <use xlink:href="#m35cd5d1fab" x="653.92333" y="78.12" style="stroke: #000000"/>
     <use xlink:href="#m35cd5d1fab" x="659.052694" y="430.92" style="stroke: #000000"/>
     <use xlink:href="#m35cd5d1fab" x="664.021765" y="430.92" style="stroke: #000000"/>
     <use xlink:href="#m35cd5d1fab" x="668.990836" y="78.12" style="stroke: #000000"/>
     <use xlink:href="#m35cd5d1fab" x="673.959908" y="430.92" style="stroke: #000000"/>
     <use xlink:href="#m35cd5d1fab" x="679.089272" y="430.92" style="stroke: #000000"/>
     <use xlink:href="#m35cd5d1fab" x="684.058343" y="78.12" style="stroke: #000000"/>
     <use xlink:href="#m35cd5d1fab" x="689.027414" y="430.92" style="stroke: #000000"/>
     <use xlink:href="#m35cd5d1fab" x="693.996486" y="78.12" style="stroke: #000000"/>
     <use xlink:href="#m35cd5d1fab" x="699.12585" y="430.92" style="stroke: #000000"/>
     <use xlink:href="#m35cd5d1fab" x="704.094921" y="430.92" style="stroke: #000000"/>
     <use xlink:href="#m35cd5d1fab" x="709.063993" y="78.12" style="stroke: #000000"/>
     <use xlink:href="#m35cd5d1fab" x="714.033064" y="430.92" style="stroke: #000000"/>
     <use xlink:href="#m35cd5d1fab" x="719.162428" y="430.92" style="stroke: #000000"/>
     <use xlink:href="#m35cd5d1fab" x="724.131499" y="78.12" style="stroke: #000000"/>
     <use xlink:href="#m35cd5d1fab" x="729.100571" y="430.92" style="stroke: #000000"/>
     <use xlink:href="#m35cd5d1fab" x="734.069642" y="78.12" style="stroke: #000000"/>
     <use xlink:href="#m35cd5d1fab" x="739.199006" y="430.92" style="stroke: #000000"/>
     <use xlink:href="#m35cd5d1fab" x="744.168077" y="430.92" style="stroke: #000000"/>
     <use xlink:href="#m35cd5d1fab" x="749.137149" y="78.12" style="stroke: #000000"/>
     <use xlink:href="#m35cd5d1fab" x="754.10622" y="430.92" style="stroke: #000000"/>
     <use xlink:href="#m35cd5d1fab" x="759.235584" y="430.92" style="stroke: #000000"/>
     <use xlink:href="#m35cd5d1fab" x="764.204656" y="78.12" style="stroke: #000000"/>
     <use xlink:href="#m35cd5d1fab" x="769.173727" y="430.92" style="stroke: #000000"/>
     <use xlink:href="#m35cd5d1fab" x="774.142798" y="78.12" style="stroke: #000000"/>
     <use xlink:href="#m35cd5d1fab" x="779.272162" y="430.92" style="stroke: #000000"/>
     <use xlink:href="#m35cd5d1fab" x="784.241234" y="430.92" style="stroke: #000000"/>
     <use xlink:href="#m35cd5d1fab" x="789.210305" y="78.12" style="stroke: #000000"/>
     <use xlink:href="#m35cd5d1fab" x="794.179376" y="430.92" style="stroke: #000000"/>
     <use xlink:href="#m35cd5d1fab" x="799.30874" y="430.92" style="stroke: #000000"/>
     <use xlink:href="#m35cd5d1fab" x="804.277812" y="78.12" style="stroke: #000000"/>
     <use xlink:href="#m35cd5d1fab" x="809.246883" y="430.92" style="stroke: #000000"/>
     <use xlink:href="#m35cd5d1fab" x="814.215955" y="78.12" style="stroke: #000000"/>
     <use xlink:href="#m35cd5d1fab" x="819.345319" y="430.92" style="stroke: #000000"/>
     <use xlink:href="#m35cd5d1fab" x="824.31439" y="430.92" style="stroke: #000000"/>
     <use xlink:href="#m35cd5d1fab" x="829.283461" y="78.12" style="stroke: #000000"/>
     <use xlink:href="#m35cd5d1fab" x="834.252533" y="430.92" style="stroke: #000000"/>
     <use xlink:href="#m35cd5d1fab" x="839.381897" y="430.92" style="stroke: #000000"/>
     <use xlink:href="#m35cd5d1fab" x="844.350968" y="78.12" style="stroke: #000000"/>
     <use xlink:href="#m35cd5d1fab" x="849.320039" y="430.92" style="stroke: #000000"/>
     <use xlink:href="#m35cd5d1fab" x="854.289111" y="78.12" style="stroke: #000000"/>
     <use xlink:href="#m35cd5d1fab" x="859.418475" y="430.92" style="stroke: #000000"/>
     <use xlink:href="#m35cd5d1fab" x="864.387546" y="430.92" style="stroke: #000000"/>
     <use xlink:href="#m35cd5d1fab" x="869.356618" y="78.12" style="stroke: #000000"/>
     <use xlink:href="#m35cd5d1fab" x="874.325689" y="430.92" style="stroke: #000000"/>
     <use xlink:href="#m35cd5d1fab" x="879.455053" y="430.92" style="stroke: #000000"/>
     <use xlink:href="#m35cd5d1fab" x="884.424124" y="78.12" style="stroke: #000000"/>
     <use xlink:href="#m35cd5d1fab" x="889.393196" y="430.92" style="stroke: #000000"/>
     <use xlink:href="#m35cd5d1fab" x="894.362267" y="78.12" style="stroke: #000000"/>
     <use xlink:href="#m35cd5d1fab" x="899.491631" y="430.92" style="stroke: #000000"/>
     <use xlink:href="#m35cd5d1fab" x="904.460702" y="430.92" style="stroke: #000000"/>
     <use xlink:href="#m35cd5d1fab" x="909.429774" y="78.12" style="stroke: #000000"/>
     <use xlink:href="#m35cd5d1fab" x="914.398845" y="430.92" style="stroke: #000000"/>
     <use xlink:href="#m35cd5d1fab" x="919.528209" y="430.92" style="stroke: #000000"/>
     <use xlink:href="#m35cd5d1fab" x="924.497281" y="78.12" style="stroke: #000000"/>
     <use xlink:href="#m35cd5d1fab" x="929.466352" y="430.92" style="stroke: #000000"/>
    </g>
   </g>
   <g id="patch_3">
    <path d="M 135 448.56 
L 135 60.48 
" style="fill: none; stroke: #000000; stroke-width: 0.8; stroke-linejoin: miter; stroke-linecap: square"/>
   </g>
   <g id="patch_4">
    <path d="M 972 448.56 
L 972 60.48 
" style="fill: none; stroke: #000000; stroke-width: 0.8; stroke-linejoin: miter; stroke-linecap: square"/>
   </g>
   <g id="patch_5">
    <path d="M 135 448.56 
L 972 448.56 
" style="fill: none; stroke: #000000; stroke-width: 0.8; stroke-linejoin: miter; stroke-linecap: square"/>
   </g>
   <g id="patch_6">
    <path d="M 135 60.48 
L 972 60.48 
" style="fill: none; stroke: #000000; stroke-width: 0.8; stroke-linejoin: miter; stroke-linecap: square"/>
   </g>
   <g id="legend_1">
    <g id="patch_7">
     <path d="M 142 278.315313 
L 211.084375 278.315313 
Q 213.084375 278.315313 213.084375 276.315313 
L 213.084375 232.724688 
Q 213.084375 230.724688 211.084375 230.724688 
L 142 230.724688 
Q 140 230.724688 140 232.724688 
L 140 276.315313 
Q 140 278.315313 142 278.315313 
z
" style="fill: #ffffff; opacity: 0.8; stroke: #cccccc; stroke-linejoin: miter"/>
    </g>
    <g id="line2d_15">
     <path d="M 144 238.823125 
L 154 238.823125 
L 164 238.823125 
" style="fill: none; stroke: #1f77b4; stroke-width: 1.5; stroke-linecap: square"/>
    </g>
    <g id="text_13">
     <!-- nw_0 -->
     <g transform="translate(172 242.323125) scale(0.1 -0.1)">
      <defs>
       <path id="DejaVuSans-6e" d="M 3513 2113 
L 3513 0 
L 2938 0 
L 2938 2094 
Q 2938 2591 2744 2837 
Q 2550 3084 2163 3084 
Q 1697 3084 1428 2787 
Q 1159 2491 1159 1978 
L 1159 0 
L 581 0 
L 581 3500 
L 1159 3500 
L 1159 2956 
Q 1366 3272 1645 3428 
Q 1925 3584 2291 3584 
Q 2894 3584 3203 3211 
Q 3513 2838 3513 2113 
z
" transform="scale(0.015625)"/>
       <path id="DejaVuSans-77" d="M 269 3500 
L 844 3500 
L 1563 769 
L 2278 3500 
L 2956 3500 
L 3675 769 
L 4391 3500 
L 4966 3500 
L 4050 0 
L 3372 0 
L 2619 2869 
L 1863 0 
L 1184 0 
L 269 3500 
z
" transform="scale(0.015625)"/>
       <path id="DejaVuSans-5f" d="M 3263 -1063 
L 3263 -1509 
L -63 -1509 
L -63 -1063 
L 3263 -1063 
z
" transform="scale(0.015625)"/>
      </defs>
      <use xlink:href="#DejaVuSans-6e"/>
      <use xlink:href="#DejaVuSans-77" x="63.378906"/>
      <use xlink:href="#DejaVuSans-5f" x="145.166016"/>
      <use xlink:href="#DejaVuSans-30" x="195.166016"/>
     </g>
    </g>
    <g id="line2d_16">
     <path d="M 144 253.779375 
L 154 253.779375 
L 164 253.779375 
" style="fill: none; stroke: #ff7f0e; stroke-width: 1.5; stroke-linecap: square"/>
    </g>
    <g id="text_14">
     <!-- input_0 -->
     <g transform="translate(172 257.279375) scale(0.1 -0.1)">
      <defs>
       <path id="DejaVuSans-69" d="M 603 3500 
L 1178 3500 
L 1178 0 
L 603 0 
L 603 3500 
z
M 603 4863 
L 1178 4863 
L 1178 4134 
L 603 4134 
L 603 4863 
z
" transform="scale(0.015625)"/>
       <path id="DejaVuSans-70" d="M 1159 525 
L 1159 -1331 
L 581 -1331 
L 581 3500 
L 1159 3500 
L 1159 2969 
Q 1341 3281 1617 3432 
Q 1894 3584 2278 3584 
Q 2916 3584 3314 3078 
Q 3713 2572 3713 1747 
Q 3713 922 3314 415 
Q 2916 -91 2278 -91 
Q 1894 -91 1617 61 
Q 1341 213 1159 525 
z
M 3116 1747 
Q 3116 2381 2855 2742 
Q 2594 3103 2138 3103 
Q 1681 3103 1420 2742 
Q 1159 2381 1159 1747 
Q 1159 1113 1420 752 
Q 1681 391 2138 391 
Q 2594 391 2855 752 
Q 3116 1113 3116 1747 
z
" transform="scale(0.015625)"/>
       <path id="DejaVuSans-75" d="M 544 1381 
L 544 3500 
L 1119 3500 
L 1119 1403 
Q 1119 906 1312 657 
Q 1506 409 1894 409 
Q 2359 409 2629 706 
Q 2900 1003 2900 1516 
L 2900 3500 
L 3475 3500 
L 3475 0 
L 2900 0 
L 2900 538 
Q 2691 219 2414 64 
Q 2138 -91 1772 -91 
Q 1169 -91 856 284 
Q 544 659 544 1381 
z
M 1991 3584 
L 1991 3584 
z
" transform="scale(0.015625)"/>
      </defs>
      <use xlink:href="#DejaVuSans-69"/>
      <use xlink:href="#DejaVuSans-6e" x="27.783203"/>
      <use xlink:href="#DejaVuSans-70" x="91.162109"/>
      <use xlink:href="#DejaVuSans-75" x="154.638672"/>
      <use xlink:href="#DejaVuSans-74" x="218.017578"/>
      <use xlink:href="#DejaVuSans-5f" x="257.226562"/>
      <use xlink:href="#DejaVuSans-30" x="307.226562"/>
     </g>
    </g>
    <g id="line2d_17">
     <path d="M 144 268.735625 
L 154 268.735625 
L 164 268.735625 
" style="fill: none; stroke: #000000; stroke-width: 1.5; stroke-linecap: square"/>
     <g>
      <use xlink:href="#m35cd5d1fab" x="154" y="268.735625" style="stroke: #000000"/>
     </g>
    </g>
    <g id="text_15">
     <!-- target -->
     <g transform="translate(172 272.235625) scale(0.1 -0.1)">
      <defs>
       <path id="DejaVuSans-61" d="M 2194 1759 
Q 1497 1759 1228 1600 
Q 959 1441 959 1056 
Q 959 750 1161 570 
Q 1363 391 1709 391 
Q 2188 391 2477 730 
Q 2766 1069 2766 1631 
L 2766 1759 
L 2194 1759 
z
M 3341 1997 
L 3341 0 
L 2766 0 
L 2766 531 
Q 2569 213 2275 61 
Q 1981 -91 1556 -91 
Q 1019 -91 701 211 
Q 384 513 384 1019 
Q 384 1609 779 1909 
Q 1175 2209 1959 2209 
L 2766 2209 
L 2766 2266 
Q 2766 2663 2505 2880 
Q 2244 3097 1772 3097 
Q 1472 3097 1187 3025 
Q 903 2953 641 2809 
L 641 3341 
Q 956 3463 1253 3523 
Q 1550 3584 1831 3584 
Q 2591 3584 2966 3190 
Q 3341 2797 3341 1997 
z
" transform="scale(0.015625)"/>
       <path id="DejaVuSans-72" d="M 2631 2963 
Q 2534 3019 2420 3045 
Q 2306 3072 2169 3072 
Q 1681 3072 1420 2755 
Q 1159 2438 1159 1844 
L 1159 0 
L 581 0 
L 581 3500 
L 1159 3500 
L 1159 2956 
Q 1341 3275 1631 3429 
Q 1922 3584 2338 3584 
Q 2397 3584 2469 3576 
Q 2541 3569 2628 3553 
L 2631 2963 
z
" transform="scale(0.015625)"/>
       <path id="DejaVuSans-67" d="M 2906 1791 
Q 2906 2416 2648 2759 
Q 2391 3103 1925 3103 
Q 1463 3103 1205 2759 
Q 947 2416 947 1791 
Q 947 1169 1205 825 
Q 1463 481 1925 481 
Q 2391 481 2648 825 
Q 2906 1169 2906 1791 
z
M 3481 434 
Q 3481 -459 3084 -895 
Q 2688 -1331 1869 -1331 
Q 1566 -1331 1297 -1286 
Q 1028 -1241 775 -1147 
L 775 -588 
Q 1028 -725 1275 -790 
Q 1522 -856 1778 -856 
Q 2344 -856 2625 -561 
Q 2906 -266 2906 331 
L 2906 616 
Q 2728 306 2450 153 
Q 2172 0 1784 0 
Q 1141 0 747 490 
Q 353 981 353 1791 
Q 353 2603 747 3093 
Q 1141 3584 1784 3584 
Q 2172 3584 2450 3431 
Q 2728 3278 2906 2969 
L 2906 3500 
L 3481 3500 
L 3481 434 
z
" transform="scale(0.015625)"/>
       <path id="DejaVuSans-65" d="M 3597 1894 
L 3597 1613 
L 953 1613 
Q 991 1019 1311 708 
Q 1631 397 2203 397 
Q 2534 397 2845 478 
Q 3156 559 3463 722 
L 3463 178 
Q 3153 47 2828 -22 
Q 2503 -91 2169 -91 
Q 1331 -91 842 396 
Q 353 884 353 1716 
Q 353 2575 817 3079 
Q 1281 3584 2069 3584 
Q 2775 3584 3186 3129 
Q 3597 2675 3597 1894 
z
M 3022 2063 
Q 3016 2534 2758 2815 
Q 2500 3097 2075 3097 
Q 1594 3097 1305 2825 
Q 1016 2553 972 2059 
L 3022 2063 
z
" transform="scale(0.015625)"/>
      </defs>
      <use xlink:href="#DejaVuSans-74"/>
      <use xlink:href="#DejaVuSans-61" x="39.208984"/>
      <use xlink:href="#DejaVuSans-72" x="100.488281"/>
      <use xlink:href="#DejaVuSans-67" x="139.851562"/>
      <use xlink:href="#DejaVuSans-65" x="203.328125"/>
      <use xlink:href="#DejaVuSans-74" x="264.851562"/>
     </g>
    </g>
   </g>
  </g>
 </g>
 <defs>
  <clipPath id="p8ee315048a">
   <rect x="135" y="60.48" width="837" height="388.08"/>
  </clipPath>
 </defs>
</svg>
