<?xml version="1.0" encoding="utf-8" standalone="no"?>
<!DOCTYPE svg PUBLIC "-//W3C//DTD SVG 1.1//EN"
  "http://www.w3.org/Graphics/SVG/1.1/DTD/svg11.dtd">
<svg xmlns:xlink="http://www.w3.org/1999/xlink" width="1080pt" height="504pt" viewBox="0 0 1080 504" xmlns="http://www.w3.org/2000/svg" version="1.1">
 <metadata>
  <rdf:RDF xmlns:dc="http://purl.org/dc/elements/1.1/" xmlns:cc="http://creativecommons.org/ns#" xmlns:rdf="http://www.w3.org/1999/02/22-rdf-syntax-ns#">
   <cc:Work>
    <dc:type rdf:resource="http://purl.org/dc/dcmitype/StillImage"/>
    <dc:date>2024-05-09T11:03:36.345639</dc:date>
    <dc:format>image/svg+xml</dc:format>
    <dc:creator>
     <cc:Agent>
      <dc:title>Matplotlib v3.7.1, https://matplotlib.org/</dc:title>
     </cc:Agent>
    </dc:creator>
   </cc:Work>
  </rdf:RDF>
 </metadata>
 <defs>
  <style type="text/css">*{stroke-linejoin: round; stroke-linecap: butt}</style>
 </defs>
 <g id="figure_1">
  <g id="patch_1">
   <path d="M 0 504 
L 1080 504 
L 1080 0 
L 0 0 
z
" style="fill: #ffffff"/>
  </g>
  <g id="axes_1">
   <g id="patch_2">
    <path d="M 135 448.56 
L 972 448.56 
L 972 60.48 
L 135 60.48 
z
" style="fill: #ffffff"/>
   </g>
   <g id="matplotlib.axis_1">
    <g id="xtick_1">
     <g id="line2d_1">
      <defs>
       <path id="m40971e0bee" d="M 0 0 
L 0 3.5 
" style="stroke: #000000; stroke-width: 0.8"/>
      </defs>
      <g>
       <use xlink:href="#m40971e0bee" x="173.045455" y="448.56" style="stroke: #000000; stroke-width: 0.8"/>
      </g>
     </g>
     <g id="text_1">
      <!-- 0 -->
      <g transform="translate(169.864205 463.158437) scale(0.1 -0.1)">
       <defs>
        <path id="DejaVuSans-30" d="M 2034 4250 
Q 1547 4250 1301 3770 
Q 1056 3291 1056 2328 
Q 1056 1369 1301 889 
Q 1547 409 2034 409 
Q 2525 409 2770 889 
Q 3016 1369 3016 2328 
Q 3016 3291 2770 3770 
Q 2525 4250 2034 4250 
z
M 2034 4750 
Q 2819 4750 3233 4129 
Q 3647 3509 3647 2328 
Q 3647 1150 3233 529 
Q 2819 -91 2034 -91 
Q 1250 -91 836 529 
Q 422 1150 422 2328 
Q 422 3509 836 4129 
Q 1250 4750 2034 4750 
z
" transform="scale(0.015625)"/>
       </defs>
       <use xlink:href="#DejaVuSans-30"/>
      </g>
     </g>
    </g>
    <g id="xtick_2">
     <g id="line2d_2">
      <g>
       <use xlink:href="#m40971e0bee" x="333.33808" y="448.56" style="stroke: #000000; stroke-width: 0.8"/>
      </g>
     </g>
     <g id="text_2">
      <!-- 1000 -->
      <g transform="translate(320.61308 463.158437) scale(0.1 -0.1)">
       <defs>
        <path id="DejaVuSans-31" d="M 794 531 
L 1825 531 
L 1825 4091 
L 703 3866 
L 703 4441 
L 1819 4666 
L 2450 4666 
L 2450 531 
L 3481 531 
L 3481 0 
L 794 0 
L 794 531 
z
" transform="scale(0.015625)"/>
       </defs>
       <use xlink:href="#DejaVuSans-31"/>
       <use xlink:href="#DejaVuSans-30" x="63.623047"/>
       <use xlink:href="#DejaVuSans-30" x="127.246094"/>
       <use xlink:href="#DejaVuSans-30" x="190.869141"/>
      </g>
     </g>
    </g>
    <g id="xtick_3">
     <g id="line2d_3">
      <g>
       <use xlink:href="#m40971e0bee" x="493.630705" y="448.56" style="stroke: #000000; stroke-width: 0.8"/>
      </g>
     </g>
     <g id="text_3">
      <!-- 2000 -->
      <g transform="translate(480.905705 463.158437) scale(0.1 -0.1)">
       <defs>
        <path id="DejaVuSans-32" d="M 1228 531 
L 3431 531 
L 3431 0 
L 469 0 
L 469 531 
Q 828 903 1448 1529 
Q 2069 2156 2228 2338 
Q 2531 2678 2651 2914 
Q 2772 3150 2772 3378 
Q 2772 3750 2511 3984 
Q 2250 4219 1831 4219 
Q 1534 4219 1204 4116 
Q 875 4013 500 3803 
L 500 4441 
Q 881 4594 1212 4672 
Q 1544 4750 1819 4750 
Q 2544 4750 2975 4387 
Q 3406 4025 3406 3419 
Q 3406 3131 3298 2873 
Q 3191 2616 2906 2266 
Q 2828 2175 2409 1742 
Q 1991 1309 1228 531 
z
" transform="scale(0.015625)"/>
       </defs>
       <use xlink:href="#DejaVuSans-32"/>
       <use xlink:href="#DejaVuSans-30" x="63.623047"/>
       <use xlink:href="#DejaVuSans-30" x="127.246094"/>
       <use xlink:href="#DejaVuSans-30" x="190.869141"/>
      </g>
     </g>
    </g>
    <g id="xtick_4">
     <g id="line2d_4">
      <g>
       <use xlink:href="#m40971e0bee" x="653.92333" y="448.56" style="stroke: #000000; stroke-width: 0.8"/>
      </g>
     </g>
     <g id="text_4">
      <!-- 3000 -->
      <g transform="translate(641.19833 463.158437) scale(0.1 -0.1)">
       <defs>
        <path id="DejaVuSans-33" d="M 2597 2516 
Q 3050 2419 3304 2112 
Q 3559 1806 3559 1356 
Q 3559 666 3084 287 
Q 2609 -91 1734 -91 
Q 1441 -91 1130 -33 
Q 819 25 488 141 
L 488 750 
Q 750 597 1062 519 
Q 1375 441 1716 441 
Q 2309 441 2620 675 
Q 2931 909 2931 1356 
Q 2931 1769 2642 2001 
Q 2353 2234 1838 2234 
L 1294 2234 
L 1294 2753 
L 1863 2753 
Q 2328 2753 2575 2939 
Q 2822 3125 2822 3475 
Q 2822 3834 2567 4026 
Q 2313 4219 1838 4219 
Q 1578 4219 1281 4162 
Q 984 4106 628 3988 
L 628 4550 
Q 988 4650 1302 4700 
Q 1616 4750 1894 4750 
Q 2613 4750 3031 4423 
Q 3450 4097 3450 3541 
Q 3450 3153 3228 2886 
Q 3006 2619 2597 2516 
z
" transform="scale(0.015625)"/>
       </defs>
       <use xlink:href="#DejaVuSans-33"/>
       <use xlink:href="#DejaVuSans-30" x="63.623047"/>
       <use xlink:href="#DejaVuSans-30" x="127.246094"/>
       <use xlink:href="#DejaVuSans-30" x="190.869141"/>
      </g>
     </g>
    </g>
    <g id="xtick_5">
     <g id="line2d_5">
      <g>
       <use xlink:href="#m40971e0bee" x="814.215955" y="448.56" style="stroke: #000000; stroke-width: 0.8"/>
      </g>
     </g>
     <g id="text_5">
      <!-- 4000 -->
      <g transform="translate(801.490955 463.158437) scale(0.1 -0.1)">
       <defs>
        <path id="DejaVuSans-34" d="M 2419 4116 
L 825 1625 
L 2419 1625 
L 2419 4116 
z
M 2253 4666 
L 3047 4666 
L 3047 1625 
L 3713 1625 
L 3713 1100 
L 3047 1100 
L 3047 0 
L 2419 0 
L 2419 1100 
L 313 1100 
L 313 1709 
L 2253 4666 
z
" transform="scale(0.015625)"/>
       </defs>
       <use xlink:href="#DejaVuSans-34"/>
       <use xlink:href="#DejaVuSans-30" x="63.623047"/>
       <use xlink:href="#DejaVuSans-30" x="127.246094"/>
       <use xlink:href="#DejaVuSans-30" x="190.869141"/>
      </g>
     </g>
    </g>
    <g id="text_6">
     <!-- t -->
     <g transform="translate(551.539844 476.836563) scale(0.1 -0.1)">
      <defs>
       <path id="DejaVuSans-74" d="M 1172 4494 
L 1172 3500 
L 2356 3500 
L 2356 3053 
L 1172 3053 
L 1172 1153 
Q 1172 725 1289 603 
Q 1406 481 1766 481 
L 2356 481 
L 2356 0 
L 1766 0 
Q 1100 0 847 248 
Q 594 497 594 1153 
L 594 3053 
L 172 3053 
L 172 3500 
L 594 3500 
L 594 4494 
L 1172 4494 
z
" transform="scale(0.015625)"/>
      </defs>
      <use xlink:href="#DejaVuSans-74"/>
     </g>
    </g>
   </g>
   <g id="matplotlib.axis_2">
    <g id="ytick_1">
     <g id="line2d_6">
      <defs>
       <path id="m6f1dc5fa7c" d="M 0 0 
L -3.5 0 
" style="stroke: #000000; stroke-width: 0.8"/>
      </defs>
      <g>
       <use xlink:href="#m6f1dc5fa7c" x="135" y="391.073667" style="stroke: #000000; stroke-width: 0.8"/>
      </g>
     </g>
     <g id="text_7">
      <!-- 0 -->
      <g transform="translate(121.6375 394.872886) scale(0.1 -0.1)">
       <use xlink:href="#DejaVuSans-30"/>
      </g>
     </g>
    </g>
    <g id="ytick_2">
     <g id="line2d_7">
      <g>
       <use xlink:href="#m6f1dc5fa7c" x="135" y="323.373399" style="stroke: #000000; stroke-width: 0.8"/>
      </g>
     </g>
     <g id="text_8">
      <!-- 5 -->
      <g transform="translate(121.6375 327.172618) scale(0.1 -0.1)">
       <defs>
        <path id="DejaVuSans-35" d="M 691 4666 
L 3169 4666 
L 3169 4134 
L 1269 4134 
L 1269 2991 
Q 1406 3038 1543 3061 
Q 1681 3084 1819 3084 
Q 2600 3084 3056 2656 
Q 3513 2228 3513 1497 
Q 3513 744 3044 326 
Q 2575 -91 1722 -91 
Q 1428 -91 1123 -41 
Q 819 9 494 109 
L 494 744 
Q 775 591 1075 516 
Q 1375 441 1709 441 
Q 2250 441 2565 725 
Q 2881 1009 2881 1497 
Q 2881 1984 2565 2268 
Q 2250 2553 1709 2553 
Q 1456 2553 1204 2497 
Q 953 2441 691 2322 
L 691 4666 
z
" transform="scale(0.015625)"/>
       </defs>
       <use xlink:href="#DejaVuSans-35"/>
      </g>
     </g>
    </g>
    <g id="ytick_3">
     <g id="line2d_8">
      <g>
       <use xlink:href="#m6f1dc5fa7c" x="135" y="255.673131" style="stroke: #000000; stroke-width: 0.8"/>
      </g>
     </g>
     <g id="text_9">
      <!-- 10 -->
      <g transform="translate(115.275 259.47235) scale(0.1 -0.1)">
       <use xlink:href="#DejaVuSans-31"/>
       <use xlink:href="#DejaVuSans-30" x="63.623047"/>
      </g>
     </g>
    </g>
    <g id="ytick_4">
     <g id="line2d_9">
      <g>
       <use xlink:href="#m6f1dc5fa7c" x="135" y="187.972863" style="stroke: #000000; stroke-width: 0.8"/>
      </g>
     </g>
     <g id="text_10">
      <!-- 15 -->
      <g transform="translate(115.275 191.772082) scale(0.1 -0.1)">
       <use xlink:href="#DejaVuSans-31"/>
       <use xlink:href="#DejaVuSans-35" x="63.623047"/>
      </g>
     </g>
    </g>
    <g id="ytick_5">
     <g id="line2d_10">
      <g>
       <use xlink:href="#m6f1dc5fa7c" x="135" y="120.272595" style="stroke: #000000; stroke-width: 0.8"/>
      </g>
     </g>
     <g id="text_11">
      <!-- 20 -->
      <g transform="translate(115.275 124.071814) scale(0.1 -0.1)">
       <use xlink:href="#DejaVuSans-32"/>
       <use xlink:href="#DejaVuSans-30" x="63.623047"/>
      </g>
     </g>
    </g>
   </g>
   <g id="line2d_11">
    <path d="M 173.045455 378.846278 
L 173.205747 372.815569 
L 173.36604 355.220937 
L 173.686625 281.458904 
L 174.327796 117.039859 
L 174.648381 81.624831 
L 174.808673 78.12 
L 174.968966 82.717573 
L 175.289551 109.368457 
L 176.251307 208.087695 
L 176.571892 223.244136 
L 176.892478 229.020618 
L 177.05277 229.315016 
L 177.213063 228.417152 
L 177.693941 222.112923 
L 178.014526 371.446956 
L 178.174819 369.73271 
L 178.815989 311.525865 
L 178.976282 311.792348 
L 179.136574 319.31823 
L 179.617452 367.415466 
L 180.09833 412.853868 
L 180.418915 427.506401 
L 180.579208 430.329979 
L 180.739501 430.92 
L 180.899793 429.913941 
L 181.220378 425.24479 
L 182.342427 406.236234 
L 182.823305 400.883101 
L 183.304183 397.983337 
L 183.624768 397.120865 
L 185.548279 394.112048 
L 186.029157 393.603054 
L 186.349742 392.924638 
L 186.83062 391.070122 
L 187.471791 387.337885 
L 189.87618 372.619549 
L 190.196765 371.531097 
L 190.517351 371.167759 
L 190.677643 371.272977 
L 190.998229 371.996558 
L 191.479106 373.947847 
L 192.440862 378.038982 
L 193.723203 382.585564 
L 194.684959 387.709028 
L 195.326129 390.658504 
L 195.807007 391.930898 
L 196.127593 392.338598 
L 196.60847 392.53839 
L 198.051104 392.61196 
L 198.531982 392.298075 
L 199.173152 391.410027 
L 200.134908 390.022874 
L 200.936371 388.873405 
L 201.417249 387.736615 
L 202.379005 384.558538 
L 203.180468 382.279597 
L 204.142224 380.433309 
L 205.584857 377.887362 
L 205.905443 377.666818 
L 206.226028 377.698641 
L 206.546613 377.979148 
L 207.027491 378.760192 
L 209.912758 384.322586 
L 210.393636 384.758021 
L 210.874514 384.849448 
L 211.355392 384.626152 
L 211.996562 383.982924 
L 212.958318 382.599579 
L 213.278903 382.089884 
L 213.439196 297.847329 
L 213.599489 289.57593 
L 214.400952 403.179356 
L 214.721537 415.432092 
L 214.88183 416.54838 
L 215.042122 415.455279 
L 215.523 406.439308 
L 216.003878 399.185787 
L 216.484756 393.335387 
L 216.805341 386.10743 
L 217.286219 366.837488 
L 218.087682 318.451172 
L 218.247975 405.606991 
L 218.408267 419.344472 
L 218.728853 362.499657 
L 219.049438 301.472377 
L 219.370023 279.746642 
L 219.530316 283.682341 
L 219.850901 310.00002 
L 220.492072 369.84874 
L 220.812657 384.822134 
L 221.133242 391.496161 
L 221.453827 394.166647 
L 221.774413 395.258004 
L 221.934705 395.445821 
L 222.094998 395.406261 
L 222.415583 394.66841 
L 223.377339 391.15993 
L 223.537631 391.104139 
L 223.697924 391.26425 
L 224.178802 392.500933 
L 224.499387 393.221551 
L 224.65968 393.366837 
L 224.819972 393.333559 
L 225.140558 392.762911 
L 225.781728 390.517429 
L 227.224362 385.569923 
L 228.186118 382.394277 
L 228.827288 381.122381 
L 230.590507 378.74237 
L 230.911092 378.844603 
L 231.231677 379.326435 
L 231.712555 380.600069 
L 232.674311 383.346025 
L 233.315482 384.519186 
L 234.43753 386.460828 
L 235.0787 387.502375 
L 235.399286 387.757157 
L 235.719871 387.759994 
L 236.040456 387.52469 
L 237.48309 385.934111 
L 237.963968 385.980587 
L 240.047772 386.83246 
L 240.849235 386.948617 
L 241.330113 386.749478 
L 241.810991 386.177979 
L 242.452161 384.867051 
L 244.375673 379.858018 
L 245.337428 377.599414 
L 245.818306 376.943909 
L 246.138892 376.798357 
L 246.459477 376.903704 
L 246.780062 377.239056 
L 247.26094 378.067473 
L 248.703574 381.321521 
L 250.3065 384.747926 
L 251.107963 386.026809 
L 251.909426 386.922895 
L 252.710889 387.51016 
L 253.512352 387.829539 
L 253.99323 387.945943 
L 254.153523 306.018001 
L 254.313815 301.57554 
L 254.954986 401.532015 
L 255.275571 416.58608 
L 255.435864 417.324586 
L 255.596156 415.158816 
L 256.718205 388.639244 
L 257.199083 386.631698 
L 257.359375 385.149215 
L 257.679961 378.874412 
L 258.000546 367.396793 
L 258.641716 332.114237 
L 258.802009 322.100221 
L 258.962302 407.483469 
L 259.122594 418.755867 
L 259.443179 359.104508 
L 259.763765 298.083217 
L 259.924057 282.600936 
L 260.08435 278.243073 
L 260.244643 283.458624 
L 260.565228 312.196334 
L 261.206398 373.610193 
L 261.526984 387.667473 
L 261.847569 392.987853 
L 262.168154 394.429246 
L 262.488739 394.741561 
L 262.809325 394.639333 
L 263.12991 394.087699 
L 263.931373 392.170292 
L 264.091666 392.157146 
L 264.251958 392.350632 
L 264.572543 393.246867 
L 265.213714 395.164572 
L 265.374007 395.266135 
L 265.534299 395.147183 
L 265.854884 394.303604 
L 266.496055 391.307334 
L 267.618103 386.335969 
L 268.740152 382.033882 
L 269.22103 380.867283 
L 269.8622 379.947344 
L 271.304834 378.231787 
L 271.625419 378.413122 
L 271.946004 378.987775 
L 272.587175 380.948609 
L 273.388638 383.356685 
L 274.029808 384.602583 
L 275.151857 386.660335 
L 275.793027 387.74515 
L 276.113612 388.003402 
L 276.434198 387.997733 
L 276.754783 387.74605 
L 278.197417 386.124877 
L 278.678294 386.187537 
L 280.441513 386.932926 
L 281.563562 387.111435 
L 282.04444 386.895071 
L 282.525317 386.290481 
L 283.166488 384.924035 
L 286.37234 377.024021 
L 286.692926 376.759172 
L 287.013511 376.751203 
L 287.334096 376.993147 
L 287.814974 377.735116 
L 288.77673 379.867594 
L 290.860534 384.504469 
L 291.661997 385.863136 
L 292.46346 386.813754 
L 293.264923 387.434189 
L 293.585509 387.599115 
L 293.745801 309.62374 
L 293.906094 305.967929 
L 294.547264 399.45154 
L 294.86785 411.405143 
L 295.028142 411.513881 
L 295.348727 405.936196 
L 295.829605 394.910442 
L 296.150191 391.657705 
L 296.310483 391.412958 
L 296.631068 391.787934 
L 296.791361 391.415238 
L 296.951654 390.076432 
L 297.272239 383.381882 
L 297.592824 370.755331 
L 298.233995 332.147181 
L 298.394287 321.2612 
L 298.55458 406.076361 
L 298.714873 416.77632 
L 299.035458 355.755206 
L 299.356043 293.569968 
L 299.516336 277.657142 
L 299.676628 272.990354 
L 299.836921 278.041034 
L 300.157506 306.965704 
L 300.798677 370.649821 
L 301.119262 386.131697 
L 301.439847 392.523881 
L 301.760432 394.505625 
L 302.081018 394.892518 
L 302.24131 394.815924 
L 302.561896 394.256494 
L 303.523651 391.617764 
L 303.683944 391.599103 
L 303.844237 391.789608 
L 304.164822 392.676464 
L 304.805992 394.607032 
L 304.966285 394.739869 
L 305.126578 394.669088 
L 305.447163 393.971682 
L 306.088333 391.38022 
L 307.851552 384.240678 
L 308.492723 382.041816 
L 308.973601 380.993537 
L 310.736819 378.307668 
L 311.057405 378.265581 
L 311.37799 378.638718 
L 311.858868 379.8853 
L 312.980916 383.30907 
L 313.622087 384.453777 
L 314.583842 386.122434 
L 315.385306 387.559464 
L 315.705891 387.827027 
L 316.026476 387.822235 
L 316.347061 387.564323 
L 317.629402 386.012599 
L 317.949988 385.962183 
L 318.430865 386.169372 
L 319.552914 386.804701 
L 320.995547 387.165793 
L 321.476425 387.066733 
L 321.797011 386.79897 
L 322.277888 386.04261 
L 322.919059 384.522774 
L 325.804326 377.117503 
L 326.285204 376.629493 
L 326.605789 376.630531 
L 326.926375 376.888054 
L 327.407252 377.659494 
L 328.369008 379.841111 
L 330.452812 384.535805 
L 331.254275 385.902056 
L 332.055739 386.848062 
L 332.857202 387.456681 
L 333.658665 387.768208 
L 333.818957 387.802182 
L 333.97925 307.10365 
L 334.139543 302.856925 
L 334.780713 400.317428 
L 335.101298 414.260804 
L 335.261591 414.834397 
L 335.421884 412.787306 
L 336.383639 391.185659 
L 336.704225 389.890449 
L 336.864517 389.603208 
L 337.02481 388.908769 
L 337.185103 387.383244 
L 337.505688 380.702119 
L 337.826273 368.525137 
L 338.467444 331.58407 
L 338.627736 321.18166 
L 338.788029 406.202254 
L 338.948321 417.044657 
L 339.268907 356.619609 
L 339.589492 295.188204 
L 339.749785 279.642878 
L 339.910077 275.31102 
L 340.07037 280.639204 
L 340.390955 309.843269 
L 341.032126 372.730207 
L 341.352711 387.420899 
L 341.673296 393.111605 
L 341.993881 394.651329 
L 342.314467 394.874296 
L 342.635052 394.609665 
L 342.955637 393.913441 
L 343.596808 392.08893 
L 343.7571 391.879888 
L 343.917393 391.869529 
L 344.077685 392.067715 
L 344.398271 392.975117 
L 345.039441 394.942675 
L 345.199734 395.069659 
L 345.360026 394.98239 
L 345.680612 394.21761 
L 346.321782 391.390985 
L 347.604123 385.859167 
L 348.565879 382.162248 
L 349.046757 380.96628 
L 349.687927 379.997369 
L 351.130561 378.196949 
L 351.451146 378.386805 
L 351.771731 378.975279 
L 352.412902 380.952273 
L 353.214365 383.328731 
L 353.855536 384.537503 
L 354.817291 386.267393 
L 355.618754 387.686963 
L 355.93934 387.944336 
L 356.259925 387.933902 
L 356.58051 387.675933 
L 357.862851 386.126313 
L 358.183436 386.062499 
L 358.664314 386.240364 
L 359.786363 386.818109 
L 361.228996 387.133506 
L 361.709874 387.020001 
L 362.030459 386.748038 
L 362.511337 385.996076 
L 363.3128 384.074244 
L 365.877482 377.463311 
L 366.35836 376.812137 
L 366.678946 376.683513 
L 366.999531 376.814664 
L 367.480409 377.435809 
L 368.281872 379.129361 
L 370.686261 384.531559 
L 371.487724 385.887632 
L 372.289187 386.832594 
L 373.090651 387.446067 
L 373.250943 310.822296 
L 373.411236 307.458406 
L 374.052406 399.165136 
L 374.372992 410.237987 
L 374.533284 410.129862 
L 374.853869 404.584628 
L 375.334747 394.325721 
L 375.655333 391.681373 
L 375.815625 391.708166 
L 376.13621 392.517251 
L 376.296503 392.298358 
L 376.456796 391.068127 
L 376.777381 384.455046 
L 377.097966 371.744058 
L 377.739137 332.609652 
L 377.899429 321.546238 
L 378.059722 406.388149 
L 378.220015 417.190503 
L 378.5406 356.111332 
L 378.861185 293.591016 
L 379.021478 277.45194 
L 379.18177 272.541393 
L 379.342063 277.350575 
L 379.662648 305.884909 
L 380.303819 369.530946 
L 380.624404 385.316742 
L 380.944989 392.056889 
L 381.265574 394.313159 
L 381.58616 394.853121 
L 381.746452 394.810403 
L 382.067038 394.259963 
L 383.028793 391.536236 
L 383.189086 391.507712 
L 383.349379 391.688294 
L 383.669964 392.552379 
L 384.311134 394.437173 
L 384.471427 394.565536 
L 384.63172 394.495656 
L 384.952305 393.818691 
L 385.593475 391.33302 
L 387.677279 383.23492 
L 388.31845 381.47769 
L 389.119913 380.184214 
L 390.241961 378.367082 
L 390.562547 378.297734 
L 390.883132 378.65226 
L 391.36401 379.888332 
L 392.486058 383.305131 
L 393.127229 384.420324 
L 393.928692 385.734494 
L 394.890448 387.493138 
L 395.211033 387.768221 
L 395.531618 387.769529 
L 395.852203 387.514613 
L 397.134544 385.958509 
L 397.45513 385.911804 
L 397.936007 386.130781 
L 399.058056 386.795833 
L 400.500689 387.179796 
L 400.981567 387.090782 
L 401.302153 386.827959 
L 401.78303 386.073767 
L 402.424201 384.547449 
L 405.309468 377.089602 
L 405.790346 376.590065 
L 406.110931 376.5862 
L 406.431517 376.841795 
L 406.912394 377.615508 
L 407.87415 379.809614 
L 409.957954 384.527359 
L 410.759417 385.901005 
L 411.560881 386.849498 
L 412.362344 387.457247 
L 413.163807 387.764376 
L 413.644685 387.847535 
L 413.804977 306.049014 
L 413.96527 301.571072 
L 414.60644 400.921872 
L 414.927026 415.798881 
L 415.087318 416.563444 
L 415.247611 414.50309 
L 416.369659 389.335019 
L 416.850537 387.379516 
L 417.171122 383.197931 
L 417.491708 374.071008 
L 417.972586 351.07176 
L 418.453463 321.543467 
L 418.613756 406.796585 
L 418.774049 417.89821 
L 419.094634 357.989058 
L 419.415219 296.901048 
L 419.575512 281.449117 
L 419.735804 277.15795 
L 419.896097 282.472398 
L 420.216682 311.482641 
L 420.857853 373.502587 
L 421.178438 387.752717 
L 421.499023 393.149311 
L 421.819609 394.571619 
L 422.140194 394.814007 
L 422.460779 394.634137 
L 422.781364 394.02384 
L 423.582827 392.060404 
L 423.74312 392.04741 
L 423.903413 392.242151 
L 424.223998 393.143782 
L 424.865168 395.091471 
L 425.025461 395.205746 
L 425.185754 395.101237 
L 425.506339 394.289221 
L 426.147509 391.34546 
L 427.269558 386.377992 
L 428.391606 382.04325 
L 428.872484 380.865898 
L 429.513655 379.929963 
L 430.956288 378.210258 
L 431.276873 378.400578 
L 431.597459 378.983607 
L 432.238629 380.950082 
L 433.040092 383.344978 
L 433.681263 384.582732 
L 434.803311 386.649448 
L 435.444482 387.736268 
L 435.765067 387.992327 
L 436.085652 387.983388 
L 436.406237 387.728738 
L 437.848871 386.116438 
L 438.329749 386.184819 
L 439.932675 386.898414 
L 441.215016 387.111095 
L 441.695894 386.890477 
L 442.176772 386.280279 
L 442.817942 384.90808 
L 446.023795 377.012782 
L 446.34438 376.753074 
L 446.664965 376.750601 
L 446.985551 376.997658 
L 447.466429 377.745358 
L 448.428184 379.881636 
L 450.511988 384.516912 
L 451.313452 385.872139 
L 452.114915 386.819518 
L 452.916378 387.437227 
L 453.557548 387.721122 
L 453.717841 308.347376 
L 453.878134 304.390028 
L 454.519304 399.868115 
L 454.839889 412.813596 
L 455.000182 413.156931 
L 455.160475 411.077836 
L 456.12223 391.492455 
L 456.282523 390.917487 
L 456.603108 390.78698 
L 456.763401 390.250962 
L 456.923693 388.811508 
L 457.244279 382.096945 
L 457.564864 369.658633 
L 458.206034 331.813467 
L 458.366327 321.156284 
L 458.52662 406.038322 
L 458.686912 416.760444 
L 459.007498 355.974344 
L 459.328083 294.162576 
L 459.488375 278.450167 
L 459.648668 273.97692 
L 459.808961 279.199316 
L 460.129546 308.338773 
L 460.770716 371.736935 
L 461.091302 386.838075 
L 461.411887 392.870571 
L 461.732472 394.610193 
L 462.053057 394.893019 
L 462.373643 394.598584 
L 462.694228 393.843347 
L 463.335398 391.950003 
L 463.495691 391.736735 
L 463.655984 391.724225 
L 463.816276 391.920646 
L 464.136862 392.822002 
L 464.778032 394.779714 
L 464.938325 394.911678 
L 465.098617 394.83453 
L 465.419203 394.106289 
L 466.060373 391.397451 
L 467.503007 385.362185 
L 468.464762 381.860325 
L 468.94564 380.825207 
L 470.548567 378.40795 
L 470.869152 378.210107 
L 471.189737 378.388685 
L 471.510322 378.974134 
L 472.151493 380.955789 
L 472.952956 383.317761 
L 473.594126 384.494638 
L 474.555882 386.197008 
L 475.357345 387.625462 
L 475.677931 387.887032 
L 475.998516 387.878349 
L 476.319101 387.619509 
L 477.601442 386.069634 
L 477.922027 386.013172 
L 478.402905 386.206143 
L 479.524954 386.81183 
L 480.967587 387.149652 
L 481.448465 387.042433 
L 481.76905 386.77175 
L 482.249928 386.016463 
L 482.891099 384.506028 
L 485.776366 377.152883 
L 486.257244 376.672475 
L 486.577829 376.675398 
L 486.898414 376.931996 
L 487.379292 377.697924 
L 488.341048 379.864853 
L 490.424852 384.536787 
L 491.226315 385.897239 
L 492.027778 386.842259 
L 492.829241 387.453045 
L 493.630705 387.770273 
L 493.790997 307.70034 
L 493.95129 303.590581 
L 494.59246 400.072806 
L 494.913046 413.524309 
L 495.073338 413.986942 
L 495.233631 411.92868 
L 496.195387 391.36576 
L 496.515972 390.394658 
L 496.676264 390.218967 
L 496.836557 389.598521 
L 496.99685 388.109096 
L 497.317435 381.394235 
L 497.63802 369.06903 
L 498.279191 331.652191 
L 498.439483 321.119941 
L 498.599776 406.056679 
L 498.760069 416.817085 
L 499.080654 356.187502 
L 499.401239 294.572163 
L 499.561532 278.955068 
L 499.721824 274.568489 
L 499.882117 279.862638 
L 500.202702 309.074836 
L 500.843873 372.271616 
L 501.164458 387.171201 
L 501.485043 393.024463 
L 501.805628 394.650675 
L 502.126214 394.890947 
L 502.446799 394.602838 
L 502.767384 393.87304 
L 503.408555 392.014229 
L 503.568847 391.803797 
L 503.72914 391.793167 
L 503.889433 391.991333 
L 504.210018 392.897618 
L 504.851188 394.864774 
L 505.011481 394.995363 
L 505.171774 394.914152 
L 505.492359 394.169033 
L 506.133529 391.400602 
L 507.41587 385.939368 
L 508.377626 382.236723 
L 508.858504 381.033119 
L 509.499674 380.049104 
L 510.942308 378.199156 
L 511.262893 378.385074 
L 511.583479 378.973378 
L 512.224649 380.953682 
L 513.026112 383.322384 
L 513.667283 384.515738 
L 514.629038 386.234084 
L 515.430502 387.65832 
L 515.751087 387.91737 
L 516.071672 387.90733 
L 516.392257 387.648564 
L 517.674598 386.099502 
L 517.995184 386.039621 
L 518.476061 386.225041 
L 519.59811 386.815744 
L 521.040743 387.141528 
L 521.521621 387.030494 
L 521.842207 386.758664 
L 522.323084 386.00442 
L 523.124548 384.075382 
L 525.68923 377.444598 
L 526.170107 376.791531 
L 526.490693 376.663197 
L 526.811278 376.795878 
L 527.292156 377.420935 
L 528.093619 379.121534 
L 530.498008 384.53558 
L 531.299471 385.893286 
L 532.100935 386.837866 
L 532.902398 387.449716 
L 533.703861 387.769795 
L 533.864153 387.806207 
L 534.024446 307.128222 
L 534.184739 302.891838 
L 534.825909 400.379958 
L 535.146494 414.32543 
L 535.306787 414.893226 
L 535.46708 412.835758 
L 536.428835 391.146851 
L 536.749421 389.844471 
L 536.909713 389.560234 
L 537.070006 388.872641 
L 537.230299 387.357055 
L 537.550884 380.701465 
L 537.871469 368.551673 
L 538.51264 331.650958 
L 538.672932 321.254265 
L 538.833225 406.28888 
L 538.993517 417.152486 
L 539.314103 356.752277 
L 539.634688 295.316541 
L 539.794981 279.760561 
L 539.955273 275.413721 
L 540.115566 280.723619 
L 540.436151 309.886006 
L 541.077322 372.705525 
L 541.397907 387.384346 
L 541.718492 393.077395 
L 542.039077 394.627783 
L 542.359663 394.863327 
L 542.680248 394.608807 
L 543.000833 393.918646 
L 543.642004 392.097178 
L 543.802296 391.887973 
L 543.962589 391.877303 
L 544.122881 392.075062 
L 544.443467 392.981229 
L 545.084637 394.944314 
L 545.24493 395.069838 
L 545.405222 394.981085 
L 545.725808 394.213608 
L 546.366978 391.38468 
L 547.649319 385.859906 
L 548.611075 382.167167 
L 549.091953 380.97228 
L 549.733123 380.004629 
L 551.175757 378.201271 
L 551.496342 378.389446 
L 551.816927 378.976558 
L 552.458098 380.952663 
L 553.259561 383.330188 
L 553.900732 384.538881 
L 554.862487 386.266603 
L 555.66395 387.685686 
L 555.984536 387.943406 
L 556.305121 387.933404 
L 556.625706 387.675761 
L 557.908047 386.125118 
L 558.228632 386.060919 
L 558.70951 386.238621 
L 559.831559 386.817268 
L 561.274192 387.133482 
L 561.75507 387.020705 
L 562.075655 386.749317 
L 562.556533 385.998099 
L 563.197704 384.498949 
L 566.082971 377.192209 
L 566.563849 376.714734 
L 566.884434 376.716357 
L 567.205019 376.969292 
L 567.685897 377.727025 
L 568.647653 379.878444 
L 570.731457 384.530111 
L 571.53292 385.886849 
L 572.334383 386.832375 
L 573.135847 387.446292 
L 573.93731 387.769828 
L 574.257895 387.839045 
L 574.418188 306.616388 
L 574.57848 302.270063 
L 575.219651 400.708363 
L 575.540236 415.114369 
L 575.700529 415.773813 
L 575.860821 413.705909 
L 576.822577 390.868436 
L 577.143162 389.246094 
L 577.303455 388.862579 
L 577.463747 388.119016 
L 577.62404 386.589746 
L 577.944625 380.019419 
L 578.265211 368.06789 
L 578.906381 331.706804 
L 579.066674 321.446422 
L 579.226966 406.593417 
L 579.387259 417.582288 
L 579.707844 357.433289 
L 580.028429 296.1661 
L 580.188722 280.656526 
L 580.349015 276.330403 
L 580.509307 281.634252 
L 580.829893 310.701863 
L 581.471063 373.090528 
L 581.791648 387.549122 
L 582.112234 393.09471 
L 582.432819 394.585894 
L 582.753404 394.830814 
L 583.073989 394.618645 
L 583.394575 393.97178 
L 584.196038 391.978145 
L 584.35633 391.966597 
L 584.516623 392.163037 
L 584.837208 393.066954 
L 585.478379 395.020515 
L 585.638671 395.139627 
L 585.798964 395.042156 
L 586.119549 394.250794 
L 586.76072 391.362763 
L 587.882768 386.451681 
L 589.004816 382.107478 
L 589.485694 380.921875 
L 590.126865 379.970759 
L 591.569498 378.20761 
L 591.890084 378.396032 
L 592.210669 378.980495 
L 592.851839 380.951589 
L 593.653303 383.338533 
L 594.294473 384.561664 
L 595.416521 386.619645 
L 596.057692 387.710296 
L 596.378277 387.967325 
L 596.698862 387.958017 
L 597.019448 387.701958 
L 598.462081 386.092346 
L 598.942959 386.167972 
L 600.545885 386.898093 
L 601.828226 387.119488 
L 602.309104 386.899809 
L 602.789982 386.287605 
L 603.431153 384.909779 
L 606.637005 376.992691 
L 606.95759 376.733439 
L 607.278176 376.732669 
L 607.598761 376.982401 
L 608.079639 377.734919 
L 609.041395 379.87888 
L 611.125199 384.522983 
L 611.926662 385.879385 
L 612.728125 386.826192 
L 613.209003 387.232093 
L 613.369295 311.937171 
L 613.529588 308.850413 
L 614.170759 399.035337 
L 614.491344 409.370952 
L 614.651636 409.073887 
L 614.972222 403.519792 
L 615.4531 393.807898 
L 615.773685 391.610242 
L 615.933977 391.843057 
L 616.254563 393.006811 
L 616.414855 392.931725 
L 616.575148 391.819953 
L 616.895733 385.360019 
L 617.216318 372.684166 
L 617.857489 333.291398 
L 618.017782 322.106681 
L 618.178074 407.109624 
L 618.338367 418.199097 
L 618.658952 357.308988 
L 618.979537 294.484519 
L 619.300123 272.824971 
L 619.460415 277.277293 
L 619.781 305.1452 
L 620.422171 368.285243 
L 620.742756 384.282865 
L 621.063341 391.375335 
L 621.383927 393.969836 
L 621.704512 394.743265 
L 621.864805 394.77048 
L 622.025097 394.609467 
L 622.345682 393.818704 
L 622.986853 391.740933 
L 623.307438 391.44891 
L 623.467731 391.613334 
L 623.788316 392.441741 
L 624.429487 394.252638 
L 624.589779 394.369091 
L 624.750072 394.292887 
L 625.070657 393.623918 
L 625.711828 391.236347 
L 627.955924 382.929118 
L 628.436802 381.700323 
L 630.039728 378.902638 
L 630.360314 378.461442 
L 630.680899 378.354996 
L 631.001484 378.680646 
L 631.482362 379.895234 
L 632.60441 383.308337 
L 633.245581 384.396108 
L 634.047044 385.664964 
L 635.169092 387.595799 
L 635.489678 387.746234 
L 635.810263 387.620715 
L 636.291141 387.040251 
L 637.092604 386.001126 
L 637.413189 385.855446 
L 637.733774 385.901216 
L 638.374945 386.324781 
L 639.176408 386.781764 
L 640.779334 387.197072 
L 641.09992 387.114499 
L 641.420505 386.859918 
L 641.901383 386.112961 
L 642.542553 384.584394 
L 645.42782 377.071196 
L 645.908698 376.554094 
L 646.229284 376.54081 
L 646.549869 376.790311 
L 647.030747 377.561751 
L 647.992502 379.765826 
L 650.076307 384.508297 
L 650.87777 385.892254 
L 651.679233 386.845968 
L 652.480696 387.455184 
L 653.282159 387.760101 
L 653.92333 387.860397 
L 654.083622 305.60251 
L 654.243915 301.028374 
L 654.885085 401.218932 
L 655.205671 416.509155 
L 655.365963 417.351496 
L 655.526256 415.273189 
L 656.007134 401.028245 
L 656.488012 390.275842 
L 656.808597 388.036947 
L 657.129182 386.606787 
L 657.449767 382.463576 
L 657.770353 373.507105 
L 658.25123 350.897111 
L 658.732108 321.782077 
L 658.892401 407.165079 
L 659.052694 418.418106 
L 659.373279 358.783873 
L 659.693864 297.848772 
L 659.854157 282.424751 
L 660.014449 278.131058 
L 660.174742 283.413558 
L 660.495327 312.278391 
L 661.136498 373.819531 
L 661.457083 387.858513 
L 661.777668 393.128402 
L 662.098253 394.51334 
L 662.418839 394.781173 
L 662.739424 394.651934 
L 663.060009 394.086865 
L 663.861472 392.154386 
L 664.021765 392.138967 
L 664.182058 392.330828 
L 664.502643 393.226951 
L 665.143813 395.158565 
L 665.304106 395.265174 
L 665.464399 395.151026 
L 665.784984 394.314573 
L 666.426154 391.316172 
L 667.548203 386.312034 
L 668.670251 381.997499 
L 669.151129 380.829809 
L 669.792299 379.909909 
L 671.234933 378.221757 
L 671.555518 378.409991 
L 671.876104 378.988687 
L 672.517274 380.948998 
L 673.318737 383.353274 
L 673.959908 384.603945 
L 675.081956 386.673461 
L 675.723127 387.756766 
L 676.043712 388.012921 
L 676.364297 388.005458 
L 676.684882 387.752957 
L 678.127516 386.135977 
L 678.608394 386.197135 
L 680.371613 386.931784 
L 681.493661 387.104512 
L 681.974539 386.884732 
L 682.455417 386.278025 
L 683.096587 384.912073 
L 686.30244 377.031461 
L 686.623025 376.769638 
L 686.94361 376.763995 
L 687.264196 377.007288 
L 687.745073 377.74941 
L 688.706829 379.878645 
L 690.790633 384.507891 
L 691.592096 385.863413 
L 692.39356 386.812327 
L 693.195023 387.432182 
L 693.996486 387.765175 
L 694.156778 387.804601 
L 694.317071 307.197953 
L 694.477364 302.981252 
L 695.118534 400.41462 
L 695.439119 414.323877 
L 695.599412 414.878368 
L 695.759705 412.811483 
L 696.72146 391.13024 
L 697.042046 389.847714 
L 697.202338 389.57529 
L 697.362631 388.899973 
L 697.522924 387.396415 
L 697.843509 380.76144 
L 698.164094 368.624394 
L 698.805265 331.72126 
L 698.965557 321.318943 
L 699.12585 406.360879 
L 699.286142 417.239325 
L 699.606728 356.847234 
L 699.927313 295.39162 
L 700.087606 279.818787 
L 700.247898 275.452168 
L 700.408191 280.74073 
L 700.728776 309.861924 
L 701.369947 372.640722 
L 701.690532 387.325847 
L 702.011117 393.035447 
L 702.331702 394.604119 
L 702.652288 394.853828 
L 702.972873 394.607401 
L 703.293458 393.92032 
L 704.094921 391.888987 
L 704.255214 391.877885 
L 704.415506 392.075127 
L 704.736092 392.979835 
L 705.377262 394.938403 
L 705.537555 395.062821 
L 705.697847 394.973164 
L 706.018433 394.204821 
L 706.659603 391.378867 
L 707.941944 385.867535 
L 708.9037 382.178608 
L 709.384578 380.98415 
L 710.025748 380.016448 
L 711.468382 378.205995 
L 711.788967 378.392151 
L 712.109552 378.977863 
L 712.750723 380.95327 
L 713.552186 383.331102 
L 714.193357 384.538384 
L 715.155112 386.26294 
L 715.956575 387.681876 
L 716.277161 387.940062 
L 716.597746 387.930511 
L 716.918331 387.673116 
L 718.200672 386.121515 
L 718.521257 386.057264 
L 719.002135 386.235435 
L 720.124184 386.816082 
L 721.566817 387.13401 
L 722.047695 387.022169 
L 722.36828 386.751369 
L 722.849158 386.000715 
L 723.490329 384.501549 
L 726.375596 377.191337 
L 726.856474 376.712706 
L 727.177059 376.713699 
L 727.497644 376.966213 
L 727.978522 377.723751 
L 728.940278 379.875731 
L 731.024082 384.529021 
L 731.825545 385.886559 
L 732.627008 386.832629 
L 733.428472 387.446877 
L 734.069642 387.72596 
L 734.229935 308.329524 
L 734.390227 304.366463 
L 735.031398 399.845887 
L 735.351983 412.793952 
L 735.512276 413.13978 
L 735.672568 411.064038 
L 736.634324 391.501599 
L 736.794617 390.927227 
L 737.115202 390.792939 
L 737.275495 390.252799 
L 737.435787 388.808142 
L 737.756372 382.081573 
L 738.076958 369.631786 
L 738.718128 331.773469 
L 738.878421 321.115575 
L 739.038713 405.988757 
L 739.199006 416.696745 
L 739.519591 355.89627 
L 739.840177 294.090824 
L 740.000469 278.387291 
L 740.160762 273.925652 
L 740.321054 279.16152 
L 740.64164 308.32958 
L 741.28281 371.766098 
L 741.603395 386.869865 
L 741.923981 392.896403 
L 742.244566 394.626339 
L 742.565151 394.900014 
L 742.885736 394.599281 
L 743.206322 393.840931 
L 743.847492 391.947128 
L 744.007785 391.734227 
L 744.168077 391.722146 
L 744.32837 391.919047 
L 744.648955 392.821542 
L 745.290126 394.782289 
L 745.450418 394.915048 
L 745.610711 394.838623 
L 745.931296 394.111414 
L 746.572467 391.402138 
L 748.0151 385.359031 
L 748.976856 381.8548 
L 749.457734 380.819202 
L 751.06066 378.403357 
L 751.381246 378.206745 
L 751.701831 378.386549 
L 752.022416 378.972968 
L 752.663587 380.955328 
L 753.46505 383.316941 
L 754.10622 384.494248 
L 755.067976 386.198353 
L 755.869439 387.627121 
L 756.190024 387.888454 
L 756.51061 387.879489 
L 756.831195 387.62045 
L 758.113536 386.071201 
L 758.434121 386.014921 
L 758.914999 386.207863 
L 760.037047 386.812689 
L 761.479681 387.14974 
L 761.960559 387.041991 
L 762.281144 386.770917 
L 762.762022 386.015153 
L 763.403192 384.504482 
L 766.28846 377.152685 
L 766.769338 376.672989 
L 767.089923 376.676359 
L 767.410508 376.933313 
L 767.891386 377.699537 
L 768.853142 379.866403 
L 770.936946 384.537668 
L 771.738409 385.897659 
L 772.539872 386.842298 
L 773.341335 387.452786 
L 773.822213 387.674741 
L 773.982506 308.945043 
L 774.142798 305.123929 
L 774.783969 399.592616 
L 775.104554 412.041086 
L 775.264847 412.272593 
L 775.585432 406.678318 
L 776.226602 392.884625 
L 776.547188 391.213606 
L 776.867773 391.333778 
L 777.028066 390.870341 
L 777.188358 389.467693 
L 777.508943 382.727362 
L 777.829529 370.155827 
L 778.470699 331.871498 
L 778.630992 321.092628 
L 778.791284 405.909051 
L 778.951577 416.571684 
L 779.272162 355.613221 
L 779.592748 293.625812 
L 779.75304 277.837754 
L 779.913333 273.301701 
L 780.073625 278.478914 
L 780.394211 307.60015 
L 781.035381 371.269276 
L 781.355966 386.574669 
L 781.676552 392.772999 
L 781.997137 394.60611 
L 782.317722 394.913231 
L 782.638307 394.600069 
L 782.958893 393.813108 
L 783.600063 391.882855 
L 783.760356 391.666942 
L 783.920648 391.652864 
L 784.080941 391.847989 
L 784.401526 392.745875 
L 785.042697 394.699567 
L 785.202989 394.834485 
L 785.363282 394.762858 
L 785.683867 394.053597 
L 786.325038 391.403354 
L 787.927964 384.783819 
L 788.729427 381.935982 
L 789.210305 380.892723 
L 790.973524 378.276186 
L 791.294109 378.248614 
L 791.614694 378.631392 
L 792.095572 379.883018 
L 793.217621 383.311029 
L 793.858791 384.47262 
L 794.820547 386.162979 
L 795.62201 387.596588 
L 795.942595 387.860355 
L 796.263181 387.852646 
L 796.583766 387.593526 
L 797.866107 386.044473 
L 798.186692 385.991713 
L 798.66757 386.191966 
L 799.789618 386.810364 
L 801.232252 387.158039 
L 801.71313 387.05341 
L 802.033715 386.783025 
L 802.514593 386.025713 
L 803.155763 384.509734 
L 806.041031 377.133983 
L 806.521909 376.651959 
L 806.842494 376.655367 
L 807.163079 376.913608 
L 807.643957 377.683357 
L 808.605713 379.857688 
L 810.689517 384.539315 
L 811.49098 385.901392 
L 812.292443 386.845862 
L 813.093906 387.454764 
L 813.414491 387.613148 
L 813.574784 309.590322 
L 813.735077 305.922404 
L 814.376247 399.386171 
L 814.696832 411.334221 
L 814.857125 411.446316 
L 815.17771 405.888169 
L 815.658588 394.908352 
L 815.979173 391.6797 
L 816.139466 391.441038 
L 816.460051 391.813413 
L 816.620344 391.43237 
L 816.780637 390.081452 
L 817.101222 383.355647 
L 817.421807 370.695905 
L 818.062978 332.041511 
L 818.22327 321.150434 
L 818.383563 405.937839 
L 818.543855 416.59509 
L 818.864441 355.52699 
L 819.185026 293.354139 
L 819.345319 277.464359 
L 819.505611 272.828887 
L 819.665904 277.916749 
L 819.986489 306.922422 
L 820.62766 370.72209 
L 820.948245 386.216157 
L 821.26883 392.595207 
L 821.589415 394.551554 
L 821.910001 394.912995 
L 822.070293 394.826136 
L 822.390878 394.252885 
L 823.352634 391.60964 
L 823.512927 391.592256 
L 823.673219 391.784181 
L 823.993805 392.674318 
L 824.634975 394.61338 
L 824.795268 394.748474 
L 824.95556 394.679787 
L 825.276146 393.985552 
L 825.917316 391.393815 
L 827.680535 384.230239 
L 828.321706 382.027821 
L 828.802583 380.978076 
L 830.565802 378.296536 
L 830.886388 378.257865 
L 831.206973 378.634145 
L 831.687851 379.883628 
L 832.809899 383.306684 
L 833.45107 384.452203 
L 834.412825 386.125456 
L 835.214288 387.563482 
L 835.534874 387.830404 
L 835.855459 387.824809 
L 836.176044 387.566292 
L 837.458385 386.016293 
L 837.77897 385.966488 
L 838.259848 386.173801 
L 839.381897 386.807046 
L 840.82453 387.166291 
L 841.305408 387.065821 
L 841.625993 386.796967 
L 842.106871 386.039207 
L 842.748042 384.518557 
L 845.633309 377.116427 
L 846.114187 376.630377 
L 846.434772 376.632694 
L 846.755357 376.891271 
L 847.236235 377.663658 
L 848.197991 379.845301 
L 850.281795 384.538405 
L 851.083258 385.903428 
L 851.884721 386.848377 
L 852.686185 387.456144 
L 853.487648 387.767063 
L 854.609696 387.9739 
L 854.769989 304.839896 
L 854.930281 300.132472 
L 855.731744 413.427488 
L 855.892037 418.683327 
L 856.05233 419.608664 
L 856.212622 417.33162 
L 856.6935 401.310221 
L 857.174378 388.544177 
L 857.494963 385.537888 
L 857.815549 383.96283 
L 858.136134 380.231574 
L 858.456719 372.068066 
L 858.937597 350.917343 
L 859.418475 323.1415 
L 859.578767 409.021778 
L 859.73906 420.892835 
L 860.059645 362.239791 
L 860.380231 301.664926 
L 860.540523 286.205221 
L 860.700816 281.751166 
L 860.861108 286.762415 
L 861.181694 314.821777 
L 861.822864 374.439588 
L 862.143449 387.815488 
L 862.464035 392.782941 
L 862.78462 394.177644 
L 863.105205 394.634809 
L 863.42579 394.734374 
L 863.746376 394.343488 
L 864.547839 392.512599 
L 864.708131 392.486475 
L 864.868424 392.665226 
L 865.189009 393.531611 
L 865.669887 395.089078 
L 865.990472 395.438484 
L 866.150765 395.282275 
L 866.47135 394.351504 
L 867.272813 390.364103 
L 868.234569 386.143835 
L 869.356618 381.933476 
L 869.837495 380.80052 
L 870.478666 379.932189 
L 871.9213 378.288315 
L 872.241885 378.453437 
L 872.56247 379.006956 
L 873.043348 380.402049 
L 874.005104 383.383705 
L 874.646274 384.668019 
L 876.730078 388.060719 
L 877.050664 388.063173 
L 877.371249 387.821025 
L 878.813882 386.182912 
L 879.29476 386.222141 
L 881.057979 386.931155 
L 882.180028 387.096093 
L 882.660905 386.885852 
L 883.141783 386.295443 
L 883.782954 384.950225 
L 886.988806 377.08101 
L 887.309392 376.805392 
L 887.629977 376.783625 
L 887.950562 377.010671 
L 888.43144 377.732509 
L 889.393196 379.843305 
L 891.477 384.466797 
L 892.278463 385.829119 
L 893.079926 386.785873 
L 893.881389 387.413181 
L 894.362267 387.648931 
L 894.52256 309.049231 
L 894.682852 305.255714 
L 895.324023 399.634602 
L 895.644608 412.038219 
L 895.804901 412.255106 
L 896.125486 406.647208 
L 896.766656 392.865585 
L 897.087242 391.214696 
L 897.407827 391.365182 
L 897.56812 390.919767 
L 897.728412 389.535876 
L 898.048997 382.830899 
L 898.369583 370.285366 
L 899.010753 332.00906 
L 899.171046 321.222847 
L 899.331338 406.067673 
L 899.491631 416.77849 
L 899.812216 355.861072 
L 900.132802 293.838411 
L 900.293094 278.012577 
L 900.453387 273.429666 
L 900.613679 278.554578 
L 900.934265 307.571089 
L 901.575435 371.125075 
L 901.89602 386.438533 
L 902.216606 392.672557 
L 902.537191 394.548559 
L 902.857776 394.890666 
L 903.018069 394.80992 
L 903.338654 394.263006 
L 904.30041 391.669239 
L 904.460702 391.653209 
L 904.620995 391.846247 
L 904.94158 392.739372 
L 905.582751 394.681756 
L 905.743043 394.814186 
L 905.903336 394.740582 
L 906.223921 394.029577 
L 906.865092 391.386528 
L 908.468018 384.804589 
L 909.269481 381.962358 
L 909.750359 380.920046 
L 911.513578 378.291353 
L 911.834163 378.258693 
L 912.154748 378.637184 
L 912.635626 379.885227 
L 913.757675 383.313254 
L 914.398845 384.472071 
L 915.360601 386.155302 
L 916.162064 387.588204 
L 916.482649 387.853009 
L 916.803235 387.846409 
L 917.12382 387.588017 
L 918.406161 386.036916 
L 918.726746 385.9838 
L 919.207624 386.184701 
L 920.329672 386.807123 
L 921.772306 387.158238 
L 922.253184 387.055673 
L 922.573769 386.786696 
L 923.054647 386.030935 
L 923.695817 384.515397 
L 926.581085 377.133287 
L 927.061963 376.64863 
L 927.382548 376.650487 
L 927.703133 376.907581 
L 928.184011 377.676553 
L 929.145767 379.851641 
L 931.229571 384.536309 
L 932.031034 385.900108 
L 932.832497 386.845857 
L 933.63396 387.455641 
L 933.794253 387.540916 
L 933.954545 310.243544 
L 933.954545 310.243544 
" clip-path="url(#pc4ee415381)" style="fill: none; stroke: #1f77b4; stroke-width: 1.5; stroke-linecap: square"/>
   </g>
   <g id="line2d_12">
    <path d="M 173.045455 377.533614 
L 177.693941 377.533614 
L 177.854233 391.073667 
L 213.278903 391.073667 
L 213.439196 377.533614 
L 218.087682 377.533614 
L 218.247975 391.073667 
L 253.99323 391.073667 
L 254.153523 377.533614 
L 258.802009 377.533614 
L 258.962302 391.073667 
L 293.585509 391.073667 
L 293.745801 377.533614 
L 298.394287 377.533614 
L 298.55458 391.073667 
L 333.818957 391.073667 
L 333.97925 377.533614 
L 338.627736 377.533614 
L 338.788029 391.073667 
L 373.090651 391.073667 
L 373.250943 377.533614 
L 377.899429 377.533614 
L 378.059722 391.073667 
L 413.644685 391.073667 
L 413.804977 377.533614 
L 418.453463 377.533614 
L 418.613756 391.073667 
L 453.557548 391.073667 
L 453.717841 377.533614 
L 458.366327 377.533614 
L 458.52662 391.073667 
L 493.630705 391.073667 
L 493.790997 377.533614 
L 498.439483 377.533614 
L 498.599776 391.073667 
L 533.864153 391.073667 
L 534.024446 377.533614 
L 538.672932 377.533614 
L 538.833225 391.073667 
L 574.257895 391.073667 
L 574.418188 377.533614 
L 579.066674 377.533614 
L 579.226966 391.073667 
L 613.209003 391.073667 
L 613.369295 377.533614 
L 618.017782 377.533614 
L 618.178074 391.073667 
L 653.92333 391.073667 
L 654.083622 377.533614 
L 658.732108 377.533614 
L 658.892401 391.073667 
L 694.156778 391.073667 
L 694.317071 377.533614 
L 698.965557 377.533614 
L 699.12585 391.073667 
L 734.069642 391.073667 
L 734.229935 377.533614 
L 738.878421 377.533614 
L 739.038713 391.073667 
L 773.822213 391.073667 
L 773.982506 377.533614 
L 778.630992 377.533614 
L 778.791284 391.073667 
L 813.414491 391.073667 
L 813.574784 377.533614 
L 818.22327 377.533614 
L 818.383563 391.073667 
L 854.609696 391.073667 
L 854.769989 377.533614 
L 859.418475 377.533614 
L 859.578767 391.073667 
L 894.362267 391.073667 
L 894.52256 377.533614 
L 899.171046 377.533614 
L 899.331338 391.073667 
L 933.794253 391.073667 
L 933.954545 377.533614 
L 933.954545 377.533614 
" clip-path="url(#pc4ee415381)" style="fill: none; stroke: #ff7f0e; stroke-width: 1.5; stroke-linecap: square"/>
   </g>
   <g id="line2d_13">
    <path d="M 929.466352 391.073667 
" clip-path="url(#pc4ee415381)" style="fill: none; stroke: #000000; stroke-width: 1.5; stroke-linecap: square"/>
    <defs>
     <path id="m0149342798" d="M 0 1 
C 0.265203 1 0.51958 0.894634 0.707107 0.707107 
C 0.894634 0.51958 1 0.265203 1 0 
C 1 -0.265203 0.894634 -0.51958 0.707107 -0.707107 
C 0.51958 -0.894634 0.265203 -1 0 -1 
C -0.265203 -1 -0.51958 -0.894634 -0.707107 -0.707107 
C -0.894634 -0.51958 -1 -0.265203 -1 0 
C -1 0.265203 -0.894634 0.51958 -0.707107 0.707107 
C -0.51958 0.894634 -0.265203 1 0 1 
z
" style="stroke: #000000"/>
    </defs>
    <g clip-path="url(#pc4ee415381)">
     <use xlink:href="#m0149342798" x="173.045455" y="377.533614" style="stroke: #000000"/>
     <use xlink:href="#m0149342798" x="178.174819" y="391.073667" style="stroke: #000000"/>
     <use xlink:href="#m0149342798" x="183.14389" y="391.073667" style="stroke: #000000"/>
     <use xlink:href="#m0149342798" x="188.112961" y="377.533614" style="stroke: #000000"/>
     <use xlink:href="#m0149342798" x="193.082033" y="391.073667" style="stroke: #000000"/>
     <use xlink:href="#m0149342798" x="198.211397" y="391.073667" style="stroke: #000000"/>
     <use xlink:href="#m0149342798" x="203.180468" y="377.533614" style="stroke: #000000"/>
     <use xlink:href="#m0149342798" x="208.149539" y="391.073667" style="stroke: #000000"/>
     <use xlink:href="#m0149342798" x="213.118611" y="377.533614" style="stroke: #000000"/>
     <use xlink:href="#m0149342798" x="218.247975" y="391.073667" style="stroke: #000000"/>
     <use xlink:href="#m0149342798" x="223.217046" y="391.073667" style="stroke: #000000"/>
     <use xlink:href="#m0149342798" x="228.186118" y="377.533614" style="stroke: #000000"/>
     <use xlink:href="#m0149342798" x="233.155189" y="391.073667" style="stroke: #000000"/>
     <use xlink:href="#m0149342798" x="238.284553" y="391.073667" style="stroke: #000000"/>
     <use xlink:href="#m0149342798" x="243.253624" y="377.533614" style="stroke: #000000"/>
     <use xlink:href="#m0149342798" x="248.222696" y="391.073667" style="stroke: #000000"/>
     <use xlink:href="#m0149342798" x="253.191767" y="377.533614" style="stroke: #000000"/>
     <use xlink:href="#m0149342798" x="258.321131" y="391.073667" style="stroke: #000000"/>
     <use xlink:href="#m0149342798" x="263.290202" y="391.073667" style="stroke: #000000"/>
     <use xlink:href="#m0149342798" x="268.259274" y="377.533614" style="stroke: #000000"/>
     <use xlink:href="#m0149342798" x="273.228345" y="391.073667" style="stroke: #000000"/>
     <use xlink:href="#m0149342798" x="278.357709" y="391.073667" style="stroke: #000000"/>
     <use xlink:href="#m0149342798" x="283.326781" y="377.533614" style="stroke: #000000"/>
     <use xlink:href="#m0149342798" x="288.295852" y="391.073667" style="stroke: #000000"/>
     <use xlink:href="#m0149342798" x="293.264923" y="377.533614" style="stroke: #000000"/>
     <use xlink:href="#m0149342798" x="298.394287" y="391.073667" style="stroke: #000000"/>
     <use xlink:href="#m0149342798" x="303.363359" y="391.073667" style="stroke: #000000"/>
     <use xlink:href="#m0149342798" x="308.33243" y="377.533614" style="stroke: #000000"/>
     <use xlink:href="#m0149342798" x="313.301501" y="391.073667" style="stroke: #000000"/>
     <use xlink:href="#m0149342798" x="318.430865" y="391.073667" style="stroke: #000000"/>
     <use xlink:href="#m0149342798" x="323.399937" y="377.533614" style="stroke: #000000"/>
     <use xlink:href="#m0149342798" x="328.369008" y="391.073667" style="stroke: #000000"/>
     <use xlink:href="#m0149342798" x="333.33808" y="377.533614" style="stroke: #000000"/>
     <use xlink:href="#m0149342798" x="338.467444" y="391.073667" style="stroke: #000000"/>
     <use xlink:href="#m0149342798" x="343.436515" y="391.073667" style="stroke: #000000"/>
     <use xlink:href="#m0149342798" x="348.405586" y="377.533614" style="stroke: #000000"/>
     <use xlink:href="#m0149342798" x="353.374658" y="391.073667" style="stroke: #000000"/>
     <use xlink:href="#m0149342798" x="358.504022" y="391.073667" style="stroke: #000000"/>
     <use xlink:href="#m0149342798" x="363.473093" y="377.533614" style="stroke: #000000"/>
     <use xlink:href="#m0149342798" x="368.442164" y="391.073667" style="stroke: #000000"/>
     <use xlink:href="#m0149342798" x="373.411236" y="377.533614" style="stroke: #000000"/>
     <use xlink:href="#m0149342798" x="378.5406" y="391.073667" style="stroke: #000000"/>
     <use xlink:href="#m0149342798" x="383.509671" y="391.073667" style="stroke: #000000"/>
     <use xlink:href="#m0149342798" x="388.478743" y="377.533614" style="stroke: #000000"/>
     <use xlink:href="#m0149342798" x="393.447814" y="391.073667" style="stroke: #000000"/>
     <use xlink:href="#m0149342798" x="398.577178" y="391.073667" style="stroke: #000000"/>
     <use xlink:href="#m0149342798" x="403.546249" y="377.533614" style="stroke: #000000"/>
     <use xlink:href="#m0149342798" x="408.515321" y="391.073667" style="stroke: #000000"/>
     <use xlink:href="#m0149342798" x="413.484392" y="377.533614" style="stroke: #000000"/>
     <use xlink:href="#m0149342798" x="418.613756" y="391.073667" style="stroke: #000000"/>
     <use xlink:href="#m0149342798" x="423.582827" y="391.073667" style="stroke: #000000"/>
     <use xlink:href="#m0149342798" x="428.551899" y="377.533614" style="stroke: #000000"/>
     <use xlink:href="#m0149342798" x="433.52097" y="391.073667" style="stroke: #000000"/>
     <use xlink:href="#m0149342798" x="438.650334" y="391.073667" style="stroke: #000000"/>
     <use xlink:href="#m0149342798" x="443.619406" y="377.533614" style="stroke: #000000"/>
     <use xlink:href="#m0149342798" x="448.588477" y="391.073667" style="stroke: #000000"/>
     <use xlink:href="#m0149342798" x="453.557548" y="377.533614" style="stroke: #000000"/>
     <use xlink:href="#m0149342798" x="458.686912" y="391.073667" style="stroke: #000000"/>
     <use xlink:href="#m0149342798" x="463.655984" y="391.073667" style="stroke: #000000"/>
     <use xlink:href="#m0149342798" x="468.625055" y="377.533614" style="stroke: #000000"/>
     <use xlink:href="#m0149342798" x="473.594126" y="391.073667" style="stroke: #000000"/>
     <use xlink:href="#m0149342798" x="478.72349" y="391.073667" style="stroke: #000000"/>
     <use xlink:href="#m0149342798" x="483.692562" y="377.533614" style="stroke: #000000"/>
     <use xlink:href="#m0149342798" x="488.661633" y="391.073667" style="stroke: #000000"/>
     <use xlink:href="#m0149342798" x="493.630705" y="377.533614" style="stroke: #000000"/>
     <use xlink:href="#m0149342798" x="498.760069" y="391.073667" style="stroke: #000000"/>
     <use xlink:href="#m0149342798" x="503.72914" y="391.073667" style="stroke: #000000"/>
     <use xlink:href="#m0149342798" x="508.698211" y="377.533614" style="stroke: #000000"/>
     <use xlink:href="#m0149342798" x="513.667283" y="391.073667" style="stroke: #000000"/>
     <use xlink:href="#m0149342798" x="518.796647" y="391.073667" style="stroke: #000000"/>
     <use xlink:href="#m0149342798" x="523.765718" y="377.533614" style="stroke: #000000"/>
     <use xlink:href="#m0149342798" x="528.734789" y="391.073667" style="stroke: #000000"/>
     <use xlink:href="#m0149342798" x="533.703861" y="377.533614" style="stroke: #000000"/>
     <use xlink:href="#m0149342798" x="538.833225" y="391.073667" style="stroke: #000000"/>
     <use xlink:href="#m0149342798" x="543.802296" y="391.073667" style="stroke: #000000"/>
     <use xlink:href="#m0149342798" x="548.771368" y="377.533614" style="stroke: #000000"/>
     <use xlink:href="#m0149342798" x="553.740439" y="391.073667" style="stroke: #000000"/>
     <use xlink:href="#m0149342798" x="558.869803" y="391.073667" style="stroke: #000000"/>
     <use xlink:href="#m0149342798" x="563.838874" y="377.533614" style="stroke: #000000"/>
     <use xlink:href="#m0149342798" x="568.807946" y="391.073667" style="stroke: #000000"/>
     <use xlink:href="#m0149342798" x="573.777017" y="377.533614" style="stroke: #000000"/>
     <use xlink:href="#m0149342798" x="578.906381" y="391.073667" style="stroke: #000000"/>
     <use xlink:href="#m0149342798" x="583.875452" y="391.073667" style="stroke: #000000"/>
     <use xlink:href="#m0149342798" x="588.844524" y="377.533614" style="stroke: #000000"/>
     <use xlink:href="#m0149342798" x="593.813595" y="391.073667" style="stroke: #000000"/>
     <use xlink:href="#m0149342798" x="598.942959" y="391.073667" style="stroke: #000000"/>
     <use xlink:href="#m0149342798" x="603.912031" y="377.533614" style="stroke: #000000"/>
     <use xlink:href="#m0149342798" x="608.881102" y="391.073667" style="stroke: #000000"/>
     <use xlink:href="#m0149342798" x="613.850173" y="377.533614" style="stroke: #000000"/>
     <use xlink:href="#m0149342798" x="618.979537" y="391.073667" style="stroke: #000000"/>
     <use xlink:href="#m0149342798" x="623.948609" y="391.073667" style="stroke: #000000"/>
     <use xlink:href="#m0149342798" x="628.91768" y="377.533614" style="stroke: #000000"/>
     <use xlink:href="#m0149342798" x="633.886751" y="391.073667" style="stroke: #000000"/>
     <use xlink:href="#m0149342798" x="639.016115" y="391.073667" style="stroke: #000000"/>
     <use xlink:href="#m0149342798" x="643.985187" y="377.533614" style="stroke: #000000"/>
     <use xlink:href="#m0149342798" x="648.954258" y="391.073667" style="stroke: #000000"/>
     <use xlink:href="#m0149342798" x="653.92333" y="377.533614" style="stroke: #000000"/>
     <use xlink:href="#m0149342798" x="659.052694" y="391.073667" style="stroke: #000000"/>
     <use xlink:href="#m0149342798" x="664.021765" y="391.073667" style="stroke: #000000"/>
     <use xlink:href="#m0149342798" x="668.990836" y="377.533614" style="stroke: #000000"/>
     <use xlink:href="#m0149342798" x="673.959908" y="391.073667" style="stroke: #000000"/>
     <use xlink:href="#m0149342798" x="679.089272" y="391.073667" style="stroke: #000000"/>
     <use xlink:href="#m0149342798" x="684.058343" y="377.533614" style="stroke: #000000"/>
     <use xlink:href="#m0149342798" x="689.027414" y="391.073667" style="stroke: #000000"/>
     <use xlink:href="#m0149342798" x="693.996486" y="377.533614" style="stroke: #000000"/>
     <use xlink:href="#m0149342798" x="699.12585" y="391.073667" style="stroke: #000000"/>
     <use xlink:href="#m0149342798" x="704.094921" y="391.073667" style="stroke: #000000"/>
     <use xlink:href="#m0149342798" x="709.063993" y="377.533614" style="stroke: #000000"/>
     <use xlink:href="#m0149342798" x="714.033064" y="391.073667" style="stroke: #000000"/>
     <use xlink:href="#m0149342798" x="719.162428" y="391.073667" style="stroke: #000000"/>
     <use xlink:href="#m0149342798" x="724.131499" y="377.533614" style="stroke: #000000"/>
     <use xlink:href="#m0149342798" x="729.100571" y="391.073667" style="stroke: #000000"/>
     <use xlink:href="#m0149342798" x="734.069642" y="377.533614" style="stroke: #000000"/>
     <use xlink:href="#m0149342798" x="739.199006" y="391.073667" style="stroke: #000000"/>
     <use xlink:href="#m0149342798" x="744.168077" y="391.073667" style="stroke: #000000"/>
     <use xlink:href="#m0149342798" x="749.137149" y="377.533614" style="stroke: #000000"/>
     <use xlink:href="#m0149342798" x="754.10622" y="391.073667" style="stroke: #000000"/>
     <use xlink:href="#m0149342798" x="759.235584" y="391.073667" style="stroke: #000000"/>
     <use xlink:href="#m0149342798" x="764.204656" y="377.533614" style="stroke: #000000"/>
     <use xlink:href="#m0149342798" x="769.173727" y="391.073667" style="stroke: #000000"/>
     <use xlink:href="#m0149342798" x="774.142798" y="377.533614" style="stroke: #000000"/>
     <use xlink:href="#m0149342798" x="779.272162" y="391.073667" style="stroke: #000000"/>
     <use xlink:href="#m0149342798" x="784.241234" y="391.073667" style="stroke: #000000"/>
     <use xlink:href="#m0149342798" x="789.210305" y="377.533614" style="stroke: #000000"/>
     <use xlink:href="#m0149342798" x="794.179376" y="391.073667" style="stroke: #000000"/>
     <use xlink:href="#m0149342798" x="799.30874" y="391.073667" style="stroke: #000000"/>
     <use xlink:href="#m0149342798" x="804.277812" y="377.533614" style="stroke: #000000"/>
     <use xlink:href="#m0149342798" x="809.246883" y="391.073667" style="stroke: #000000"/>
     <use xlink:href="#m0149342798" x="814.215955" y="377.533614" style="stroke: #000000"/>
     <use xlink:href="#m0149342798" x="819.345319" y="391.073667" style="stroke: #000000"/>
     <use xlink:href="#m0149342798" x="824.31439" y="391.073667" style="stroke: #000000"/>
     <use xlink:href="#m0149342798" x="829.283461" y="377.533614" style="stroke: #000000"/>
     <use xlink:href="#m0149342798" x="834.252533" y="391.073667" style="stroke: #000000"/>
     <use xlink:href="#m0149342798" x="839.381897" y="391.073667" style="stroke: #000000"/>
     <use xlink:href="#m0149342798" x="844.350968" y="377.533614" style="stroke: #000000"/>
     <use xlink:href="#m0149342798" x="849.320039" y="391.073667" style="stroke: #000000"/>
     <use xlink:href="#m0149342798" x="854.289111" y="377.533614" style="stroke: #000000"/>
     <use xlink:href="#m0149342798" x="859.418475" y="391.073667" style="stroke: #000000"/>
     <use xlink:href="#m0149342798" x="864.387546" y="391.073667" style="stroke: #000000"/>
     <use xlink:href="#m0149342798" x="869.356618" y="377.533614" style="stroke: #000000"/>
     <use xlink:href="#m0149342798" x="874.325689" y="391.073667" style="stroke: #000000"/>
     <use xlink:href="#m0149342798" x="879.455053" y="391.073667" style="stroke: #000000"/>
     <use xlink:href="#m0149342798" x="884.424124" y="377.533614" style="stroke: #000000"/>
     <use xlink:href="#m0149342798" x="889.393196" y="391.073667" style="stroke: #000000"/>
     <use xlink:href="#m0149342798" x="894.362267" y="377.533614" style="stroke: #000000"/>
     <use xlink:href="#m0149342798" x="899.491631" y="391.073667" style="stroke: #000000"/>
     <use xlink:href="#m0149342798" x="904.460702" y="391.073667" style="stroke: #000000"/>
     <use xlink:href="#m0149342798" x="909.429774" y="377.533614" style="stroke: #000000"/>
     <use xlink:href="#m0149342798" x="914.398845" y="391.073667" style="stroke: #000000"/>
     <use xlink:href="#m0149342798" x="919.528209" y="391.073667" style="stroke: #000000"/>
     <use xlink:href="#m0149342798" x="924.497281" y="377.533614" style="stroke: #000000"/>
     <use xlink:href="#m0149342798" x="929.466352" y="391.073667" style="stroke: #000000"/>
    </g>
   </g>
   <g id="patch_3">
    <path d="M 135 448.56 
L 135 60.48 
" style="fill: none; stroke: #000000; stroke-width: 0.8; stroke-linejoin: miter; stroke-linecap: square"/>
   </g>
   <g id="patch_4">
    <path d="M 972 448.56 
L 972 60.48 
" style="fill: none; stroke: #000000; stroke-width: 0.8; stroke-linejoin: miter; stroke-linecap: square"/>
   </g>
   <g id="patch_5">
    <path d="M 135 448.56 
L 972 448.56 
" style="fill: none; stroke: #000000; stroke-width: 0.8; stroke-linejoin: miter; stroke-linecap: square"/>
   </g>
   <g id="patch_6">
    <path d="M 135 60.48 
L 972 60.48 
" style="fill: none; stroke: #000000; stroke-width: 0.8; stroke-linejoin: miter; stroke-linecap: square"/>
   </g>
   <g id="legend_1">
    <g id="patch_7">
     <path d="M 895.915625 113.070625 
L 965 113.070625 
Q 967 113.070625 967 111.070625 
L 967 67.48 
Q 967 65.48 965 65.48 
L 895.915625 65.48 
Q 893.915625 65.48 893.915625 67.48 
L 893.915625 111.070625 
Q 893.915625 113.070625 895.915625 113.070625 
z
" style="fill: #ffffff; opacity: 0.8; stroke: #cccccc; stroke-linejoin: miter"/>
    </g>
    <g id="line2d_14">
     <path d="M 897.915625 73.578438 
L 907.915625 73.578438 
L 917.915625 73.578438 
" style="fill: none; stroke: #1f77b4; stroke-width: 1.5; stroke-linecap: square"/>
    </g>
    <g id="text_12">
     <!-- nw_0 -->
     <g transform="translate(925.915625 77.078438) scale(0.1 -0.1)">
      <defs>
       <path id="DejaVuSans-6e" d="M 3513 2113 
L 3513 0 
L 2938 0 
L 2938 2094 
Q 2938 2591 2744 2837 
Q 2550 3084 2163 3084 
Q 1697 3084 1428 2787 
Q 1159 2491 1159 1978 
L 1159 0 
L 581 0 
L 581 3500 
L 1159 3500 
L 1159 2956 
Q 1366 3272 1645 3428 
Q 1925 3584 2291 3584 
Q 2894 3584 3203 3211 
Q 3513 2838 3513 2113 
z
" transform="scale(0.015625)"/>
       <path id="DejaVuSans-77" d="M 269 3500 
L 844 3500 
L 1563 769 
L 2278 3500 
L 2956 3500 
L 3675 769 
L 4391 3500 
L 4966 3500 
L 4050 0 
L 3372 0 
L 2619 2869 
L 1863 0 
L 1184 0 
L 269 3500 
z
" transform="scale(0.015625)"/>
       <path id="DejaVuSans-5f" d="M 3263 -1063 
L 3263 -1509 
L -63 -1509 
L -63 -1063 
L 3263 -1063 
z
" transform="scale(0.015625)"/>
      </defs>
      <use xlink:href="#DejaVuSans-6e"/>
      <use xlink:href="#DejaVuSans-77" x="63.378906"/>
      <use xlink:href="#DejaVuSans-5f" x="145.166016"/>
      <use xlink:href="#DejaVuSans-30" x="195.166016"/>
     </g>
    </g>
    <g id="line2d_15">
     <path d="M 897.915625 88.534688 
L 907.915625 88.534688 
L 917.915625 88.534688 
" style="fill: none; stroke: #ff7f0e; stroke-width: 1.5; stroke-linecap: square"/>
    </g>
    <g id="text_13">
     <!-- input_0 -->
     <g transform="translate(925.915625 92.034688) scale(0.1 -0.1)">
      <defs>
       <path id="DejaVuSans-69" d="M 603 3500 
L 1178 3500 
L 1178 0 
L 603 0 
L 603 3500 
z
M 603 4863 
L 1178 4863 
L 1178 4134 
L 603 4134 
L 603 4863 
z
" transform="scale(0.015625)"/>
       <path id="DejaVuSans-70" d="M 1159 525 
L 1159 -1331 
L 581 -1331 
L 581 3500 
L 1159 3500 
L 1159 2969 
Q 1341 3281 1617 3432 
Q 1894 3584 2278 3584 
Q 2916 3584 3314 3078 
Q 3713 2572 3713 1747 
Q 3713 922 3314 415 
Q 2916 -91 2278 -91 
Q 1894 -91 1617 61 
Q 1341 213 1159 525 
z
M 3116 1747 
Q 3116 2381 2855 2742 
Q 2594 3103 2138 3103 
Q 1681 3103 1420 2742 
Q 1159 2381 1159 1747 
Q 1159 1113 1420 752 
Q 1681 391 2138 391 
Q 2594 391 2855 752 
Q 3116 1113 3116 1747 
z
" transform="scale(0.015625)"/>
       <path id="DejaVuSans-75" d="M 544 1381 
L 544 3500 
L 1119 3500 
L 1119 1403 
Q 1119 906 1312 657 
Q 1506 409 1894 409 
Q 2359 409 2629 706 
Q 2900 1003 2900 1516 
L 2900 3500 
L 3475 3500 
L 3475 0 
L 2900 0 
L 2900 538 
Q 2691 219 2414 64 
Q 2138 -91 1772 -91 
Q 1169 -91 856 284 
Q 544 659 544 1381 
z
M 1991 3584 
L 1991 3584 
z
" transform="scale(0.015625)"/>
      </defs>
      <use xlink:href="#DejaVuSans-69"/>
      <use xlink:href="#DejaVuSans-6e" x="27.783203"/>
      <use xlink:href="#DejaVuSans-70" x="91.162109"/>
      <use xlink:href="#DejaVuSans-75" x="154.638672"/>
      <use xlink:href="#DejaVuSans-74" x="218.017578"/>
      <use xlink:href="#DejaVuSans-5f" x="257.226562"/>
      <use xlink:href="#DejaVuSans-30" x="307.226562"/>
     </g>
    </g>
    <g id="line2d_16">
     <path d="M 897.915625 103.490938 
L 907.915625 103.490938 
L 917.915625 103.490938 
" style="fill: none; stroke: #000000; stroke-width: 1.5; stroke-linecap: square"/>
     <g>
      <use xlink:href="#m0149342798" x="907.915625" y="103.490938" style="stroke: #000000"/>
     </g>
    </g>
    <g id="text_14">
     <!-- target -->
     <g transform="translate(925.915625 106.990938) scale(0.1 -0.1)">
      <defs>
       <path id="DejaVuSans-61" d="M 2194 1759 
Q 1497 1759 1228 1600 
Q 959 1441 959 1056 
Q 959 750 1161 570 
Q 1363 391 1709 391 
Q 2188 391 2477 730 
Q 2766 1069 2766 1631 
L 2766 1759 
L 2194 1759 
z
M 3341 1997 
L 3341 0 
L 2766 0 
L 2766 531 
Q 2569 213 2275 61 
Q 1981 -91 1556 -91 
Q 1019 -91 701 211 
Q 384 513 384 1019 
Q 384 1609 779 1909 
Q 1175 2209 1959 2209 
L 2766 2209 
L 2766 2266 
Q 2766 2663 2505 2880 
Q 2244 3097 1772 3097 
Q 1472 3097 1187 3025 
Q 903 2953 641 2809 
L 641 3341 
Q 956 3463 1253 3523 
Q 1550 3584 1831 3584 
Q 2591 3584 2966 3190 
Q 3341 2797 3341 1997 
z
" transform="scale(0.015625)"/>
       <path id="DejaVuSans-72" d="M 2631 2963 
Q 2534 3019 2420 3045 
Q 2306 3072 2169 3072 
Q 1681 3072 1420 2755 
Q 1159 2438 1159 1844 
L 1159 0 
L 581 0 
L 581 3500 
L 1159 3500 
L 1159 2956 
Q 1341 3275 1631 3429 
Q 1922 3584 2338 3584 
Q 2397 3584 2469 3576 
Q 2541 3569 2628 3553 
L 2631 2963 
z
" transform="scale(0.015625)"/>
       <path id="DejaVuSans-67" d="M 2906 1791 
Q 2906 2416 2648 2759 
Q 2391 3103 1925 3103 
Q 1463 3103 1205 2759 
Q 947 2416 947 1791 
Q 947 1169 1205 825 
Q 1463 481 1925 481 
Q 2391 481 2648 825 
Q 2906 1169 2906 1791 
z
M 3481 434 
Q 3481 -459 3084 -895 
Q 2688 -1331 1869 -1331 
Q 1566 -1331 1297 -1286 
Q 1028 -1241 775 -1147 
L 775 -588 
Q 1028 -725 1275 -790 
Q 1522 -856 1778 -856 
Q 2344 -856 2625 -561 
Q 2906 -266 2906 331 
L 2906 616 
Q 2728 306 2450 153 
Q 2172 0 1784 0 
Q 1141 0 747 490 
Q 353 981 353 1791 
Q 353 2603 747 3093 
Q 1141 3584 1784 3584 
Q 2172 3584 2450 3431 
Q 2728 3278 2906 2969 
L 2906 3500 
L 3481 3500 
L 3481 434 
z
" transform="scale(0.015625)"/>
       <path id="DejaVuSans-65" d="M 3597 1894 
L 3597 1613 
L 953 1613 
Q 991 1019 1311 708 
Q 1631 397 2203 397 
Q 2534 397 2845 478 
Q 3156 559 3463 722 
L 3463 178 
Q 3153 47 2828 -22 
Q 2503 -91 2169 -91 
Q 1331 -91 842 396 
Q 353 884 353 1716 
Q 353 2575 817 3079 
Q 1281 3584 2069 3584 
Q 2775 3584 3186 3129 
Q 3597 2675 3597 1894 
z
M 3022 2063 
Q 3016 2534 2758 2815 
Q 2500 3097 2075 3097 
Q 1594 3097 1305 2825 
Q 1016 2553 972 2059 
L 3022 2063 
z
" transform="scale(0.015625)"/>
      </defs>
      <use xlink:href="#DejaVuSans-74"/>
      <use xlink:href="#DejaVuSans-61" x="39.208984"/>
      <use xlink:href="#DejaVuSans-72" x="100.488281"/>
      <use xlink:href="#DejaVuSans-67" x="139.851562"/>
      <use xlink:href="#DejaVuSans-65" x="203.328125"/>
      <use xlink:href="#DejaVuSans-74" x="264.851562"/>
     </g>
    </g>
   </g>
  </g>
 </g>
 <defs>
  <clipPath id="pc4ee415381">
   <rect x="135" y="60.48" width="837" height="388.08"/>
  </clipPath>
 </defs>
</svg>
