<?xml version="1.0" encoding="utf-8" standalone="no"?>
<!DOCTYPE svg PUBLIC "-//W3C//DTD SVG 1.1//EN"
  "http://www.w3.org/Graphics/SVG/1.1/DTD/svg11.dtd">
<svg xmlns:xlink="http://www.w3.org/1999/xlink" width="1080pt" height="504pt" viewBox="0 0 1080 504" xmlns="http://www.w3.org/2000/svg" version="1.1">
 <metadata>
  <rdf:RDF xmlns:dc="http://purl.org/dc/elements/1.1/" xmlns:cc="http://creativecommons.org/ns#" xmlns:rdf="http://www.w3.org/1999/02/22-rdf-syntax-ns#">
   <cc:Work>
    <dc:type rdf:resource="http://purl.org/dc/dcmitype/StillImage"/>
    <dc:date>2024-05-09T11:09:13.711845</dc:date>
    <dc:format>image/svg+xml</dc:format>
    <dc:creator>
     <cc:Agent>
      <dc:title>Matplotlib v3.7.1, https://matplotlib.org/</dc:title>
     </cc:Agent>
    </dc:creator>
   </cc:Work>
  </rdf:RDF>
 </metadata>
 <defs>
  <style type="text/css">*{stroke-linejoin: round; stroke-linecap: butt}</style>
 </defs>
 <g id="figure_1">
  <g id="patch_1">
   <path d="M 0 504 
L 1080 504 
L 1080 0 
L 0 0 
z
" style="fill: #ffffff"/>
  </g>
  <g id="axes_1">
   <g id="patch_2">
    <path d="M 135 448.56 
L 972 448.56 
L 972 60.48 
L 135 60.48 
z
" style="fill: #ffffff"/>
   </g>
   <g id="matplotlib.axis_1">
    <g id="xtick_1">
     <g id="line2d_1">
      <defs>
       <path id="md4be4c4398" d="M 0 0 
L 0 3.5 
" style="stroke: #000000; stroke-width: 0.8"/>
      </defs>
      <g>
       <use xlink:href="#md4be4c4398" x="173.045455" y="448.56" style="stroke: #000000; stroke-width: 0.8"/>
      </g>
     </g>
     <g id="text_1">
      <!-- 0 -->
      <g transform="translate(169.864205 463.158437) scale(0.1 -0.1)">
       <defs>
        <path id="DejaVuSans-30" d="M 2034 4250 
Q 1547 4250 1301 3770 
Q 1056 3291 1056 2328 
Q 1056 1369 1301 889 
Q 1547 409 2034 409 
Q 2525 409 2770 889 
Q 3016 1369 3016 2328 
Q 3016 3291 2770 3770 
Q 2525 4250 2034 4250 
z
M 2034 4750 
Q 2819 4750 3233 4129 
Q 3647 3509 3647 2328 
Q 3647 1150 3233 529 
Q 2819 -91 2034 -91 
Q 1250 -91 836 529 
Q 422 1150 422 2328 
Q 422 3509 836 4129 
Q 1250 4750 2034 4750 
z
" transform="scale(0.015625)"/>
       </defs>
       <use xlink:href="#DejaVuSans-30"/>
      </g>
     </g>
    </g>
    <g id="xtick_2">
     <g id="line2d_2">
      <g>
       <use xlink:href="#md4be4c4398" x="333.33808" y="448.56" style="stroke: #000000; stroke-width: 0.8"/>
      </g>
     </g>
     <g id="text_2">
      <!-- 1000 -->
      <g transform="translate(320.61308 463.158437) scale(0.1 -0.1)">
       <defs>
        <path id="DejaVuSans-31" d="M 794 531 
L 1825 531 
L 1825 4091 
L 703 3866 
L 703 4441 
L 1819 4666 
L 2450 4666 
L 2450 531 
L 3481 531 
L 3481 0 
L 794 0 
L 794 531 
z
" transform="scale(0.015625)"/>
       </defs>
       <use xlink:href="#DejaVuSans-31"/>
       <use xlink:href="#DejaVuSans-30" x="63.623047"/>
       <use xlink:href="#DejaVuSans-30" x="127.246094"/>
       <use xlink:href="#DejaVuSans-30" x="190.869141"/>
      </g>
     </g>
    </g>
    <g id="xtick_3">
     <g id="line2d_3">
      <g>
       <use xlink:href="#md4be4c4398" x="493.630705" y="448.56" style="stroke: #000000; stroke-width: 0.8"/>
      </g>
     </g>
     <g id="text_3">
      <!-- 2000 -->
      <g transform="translate(480.905705 463.158437) scale(0.1 -0.1)">
       <defs>
        <path id="DejaVuSans-32" d="M 1228 531 
L 3431 531 
L 3431 0 
L 469 0 
L 469 531 
Q 828 903 1448 1529 
Q 2069 2156 2228 2338 
Q 2531 2678 2651 2914 
Q 2772 3150 2772 3378 
Q 2772 3750 2511 3984 
Q 2250 4219 1831 4219 
Q 1534 4219 1204 4116 
Q 875 4013 500 3803 
L 500 4441 
Q 881 4594 1212 4672 
Q 1544 4750 1819 4750 
Q 2544 4750 2975 4387 
Q 3406 4025 3406 3419 
Q 3406 3131 3298 2873 
Q 3191 2616 2906 2266 
Q 2828 2175 2409 1742 
Q 1991 1309 1228 531 
z
" transform="scale(0.015625)"/>
       </defs>
       <use xlink:href="#DejaVuSans-32"/>
       <use xlink:href="#DejaVuSans-30" x="63.623047"/>
       <use xlink:href="#DejaVuSans-30" x="127.246094"/>
       <use xlink:href="#DejaVuSans-30" x="190.869141"/>
      </g>
     </g>
    </g>
    <g id="xtick_4">
     <g id="line2d_4">
      <g>
       <use xlink:href="#md4be4c4398" x="653.92333" y="448.56" style="stroke: #000000; stroke-width: 0.8"/>
      </g>
     </g>
     <g id="text_4">
      <!-- 3000 -->
      <g transform="translate(641.19833 463.158437) scale(0.1 -0.1)">
       <defs>
        <path id="DejaVuSans-33" d="M 2597 2516 
Q 3050 2419 3304 2112 
Q 3559 1806 3559 1356 
Q 3559 666 3084 287 
Q 2609 -91 1734 -91 
Q 1441 -91 1130 -33 
Q 819 25 488 141 
L 488 750 
Q 750 597 1062 519 
Q 1375 441 1716 441 
Q 2309 441 2620 675 
Q 2931 909 2931 1356 
Q 2931 1769 2642 2001 
Q 2353 2234 1838 2234 
L 1294 2234 
L 1294 2753 
L 1863 2753 
Q 2328 2753 2575 2939 
Q 2822 3125 2822 3475 
Q 2822 3834 2567 4026 
Q 2313 4219 1838 4219 
Q 1578 4219 1281 4162 
Q 984 4106 628 3988 
L 628 4550 
Q 988 4650 1302 4700 
Q 1616 4750 1894 4750 
Q 2613 4750 3031 4423 
Q 3450 4097 3450 3541 
Q 3450 3153 3228 2886 
Q 3006 2619 2597 2516 
z
" transform="scale(0.015625)"/>
       </defs>
       <use xlink:href="#DejaVuSans-33"/>
       <use xlink:href="#DejaVuSans-30" x="63.623047"/>
       <use xlink:href="#DejaVuSans-30" x="127.246094"/>
       <use xlink:href="#DejaVuSans-30" x="190.869141"/>
      </g>
     </g>
    </g>
    <g id="xtick_5">
     <g id="line2d_5">
      <g>
       <use xlink:href="#md4be4c4398" x="814.215955" y="448.56" style="stroke: #000000; stroke-width: 0.8"/>
      </g>
     </g>
     <g id="text_5">
      <!-- 4000 -->
      <g transform="translate(801.490955 463.158437) scale(0.1 -0.1)">
       <defs>
        <path id="DejaVuSans-34" d="M 2419 4116 
L 825 1625 
L 2419 1625 
L 2419 4116 
z
M 2253 4666 
L 3047 4666 
L 3047 1625 
L 3713 1625 
L 3713 1100 
L 3047 1100 
L 3047 0 
L 2419 0 
L 2419 1100 
L 313 1100 
L 313 1709 
L 2253 4666 
z
" transform="scale(0.015625)"/>
       </defs>
       <use xlink:href="#DejaVuSans-34"/>
       <use xlink:href="#DejaVuSans-30" x="63.623047"/>
       <use xlink:href="#DejaVuSans-30" x="127.246094"/>
       <use xlink:href="#DejaVuSans-30" x="190.869141"/>
      </g>
     </g>
    </g>
    <g id="text_6">
     <!-- t -->
     <g transform="translate(551.539844 476.836563) scale(0.1 -0.1)">
      <defs>
       <path id="DejaVuSans-74" d="M 1172 4494 
L 1172 3500 
L 2356 3500 
L 2356 3053 
L 1172 3053 
L 1172 1153 
Q 1172 725 1289 603 
Q 1406 481 1766 481 
L 2356 481 
L 2356 0 
L 1766 0 
Q 1100 0 847 248 
Q 594 497 594 1153 
L 594 3053 
L 172 3053 
L 172 3500 
L 594 3500 
L 594 4494 
L 1172 4494 
z
" transform="scale(0.015625)"/>
      </defs>
      <use xlink:href="#DejaVuSans-74"/>
     </g>
    </g>
   </g>
   <g id="matplotlib.axis_2">
    <g id="ytick_1">
     <g id="line2d_6">
      <defs>
       <path id="m8cb7f83f86" d="M 0 0 
L -3.5 0 
" style="stroke: #000000; stroke-width: 0.8"/>
      </defs>
      <g>
       <use xlink:href="#m8cb7f83f86" x="135" y="431.565119" style="stroke: #000000; stroke-width: 0.8"/>
      </g>
     </g>
     <g id="text_7">
      <!-- −0.2 -->
      <g transform="translate(103.717187 435.364338) scale(0.1 -0.1)">
       <defs>
        <path id="DejaVuSans-2212" d="M 678 2272 
L 4684 2272 
L 4684 1741 
L 678 1741 
L 678 2272 
z
" transform="scale(0.015625)"/>
        <path id="DejaVuSans-2e" d="M 684 794 
L 1344 794 
L 1344 0 
L 684 0 
L 684 794 
z
" transform="scale(0.015625)"/>
       </defs>
       <use xlink:href="#DejaVuSans-2212"/>
       <use xlink:href="#DejaVuSans-30" x="83.789062"/>
       <use xlink:href="#DejaVuSans-2e" x="147.412109"/>
       <use xlink:href="#DejaVuSans-32" x="179.199219"/>
      </g>
     </g>
    </g>
    <g id="ytick_2">
     <g id="line2d_7">
      <g>
       <use xlink:href="#m8cb7f83f86" x="135" y="372.657599" style="stroke: #000000; stroke-width: 0.8"/>
      </g>
     </g>
     <g id="text_8">
      <!-- 0.0 -->
      <g transform="translate(112.096875 376.456818) scale(0.1 -0.1)">
       <use xlink:href="#DejaVuSans-30"/>
       <use xlink:href="#DejaVuSans-2e" x="63.623047"/>
       <use xlink:href="#DejaVuSans-30" x="95.410156"/>
      </g>
     </g>
    </g>
    <g id="ytick_3">
     <g id="line2d_8">
      <g>
       <use xlink:href="#m8cb7f83f86" x="135" y="313.750079" style="stroke: #000000; stroke-width: 0.8"/>
      </g>
     </g>
     <g id="text_9">
      <!-- 0.2 -->
      <g transform="translate(112.096875 317.549298) scale(0.1 -0.1)">
       <use xlink:href="#DejaVuSans-30"/>
       <use xlink:href="#DejaVuSans-2e" x="63.623047"/>
       <use xlink:href="#DejaVuSans-32" x="95.410156"/>
      </g>
     </g>
    </g>
    <g id="ytick_4">
     <g id="line2d_9">
      <g>
       <use xlink:href="#m8cb7f83f86" x="135" y="254.84256" style="stroke: #000000; stroke-width: 0.8"/>
      </g>
     </g>
     <g id="text_10">
      <!-- 0.4 -->
      <g transform="translate(112.096875 258.641778) scale(0.1 -0.1)">
       <use xlink:href="#DejaVuSans-30"/>
       <use xlink:href="#DejaVuSans-2e" x="63.623047"/>
       <use xlink:href="#DejaVuSans-34" x="95.410156"/>
      </g>
     </g>
    </g>
    <g id="ytick_5">
     <g id="line2d_10">
      <g>
       <use xlink:href="#m8cb7f83f86" x="135" y="195.93504" style="stroke: #000000; stroke-width: 0.8"/>
      </g>
     </g>
     <g id="text_11">
      <!-- 0.6 -->
      <g transform="translate(112.096875 199.734258) scale(0.1 -0.1)">
       <defs>
        <path id="DejaVuSans-36" d="M 2113 2584 
Q 1688 2584 1439 2293 
Q 1191 2003 1191 1497 
Q 1191 994 1439 701 
Q 1688 409 2113 409 
Q 2538 409 2786 701 
Q 3034 994 3034 1497 
Q 3034 2003 2786 2293 
Q 2538 2584 2113 2584 
z
M 3366 4563 
L 3366 3988 
Q 3128 4100 2886 4159 
Q 2644 4219 2406 4219 
Q 1781 4219 1451 3797 
Q 1122 3375 1075 2522 
Q 1259 2794 1537 2939 
Q 1816 3084 2150 3084 
Q 2853 3084 3261 2657 
Q 3669 2231 3669 1497 
Q 3669 778 3244 343 
Q 2819 -91 2113 -91 
Q 1303 -91 875 529 
Q 447 1150 447 2328 
Q 447 3434 972 4092 
Q 1497 4750 2381 4750 
Q 2619 4750 2861 4703 
Q 3103 4656 3366 4563 
z
" transform="scale(0.015625)"/>
       </defs>
       <use xlink:href="#DejaVuSans-30"/>
       <use xlink:href="#DejaVuSans-2e" x="63.623047"/>
       <use xlink:href="#DejaVuSans-36" x="95.410156"/>
      </g>
     </g>
    </g>
    <g id="ytick_6">
     <g id="line2d_11">
      <g>
       <use xlink:href="#m8cb7f83f86" x="135" y="137.02752" style="stroke: #000000; stroke-width: 0.8"/>
      </g>
     </g>
     <g id="text_12">
      <!-- 0.8 -->
      <g transform="translate(112.096875 140.826739) scale(0.1 -0.1)">
       <defs>
        <path id="DejaVuSans-38" d="M 2034 2216 
Q 1584 2216 1326 1975 
Q 1069 1734 1069 1313 
Q 1069 891 1326 650 
Q 1584 409 2034 409 
Q 2484 409 2743 651 
Q 3003 894 3003 1313 
Q 3003 1734 2745 1975 
Q 2488 2216 2034 2216 
z
M 1403 2484 
Q 997 2584 770 2862 
Q 544 3141 544 3541 
Q 544 4100 942 4425 
Q 1341 4750 2034 4750 
Q 2731 4750 3128 4425 
Q 3525 4100 3525 3541 
Q 3525 3141 3298 2862 
Q 3072 2584 2669 2484 
Q 3125 2378 3379 2068 
Q 3634 1759 3634 1313 
Q 3634 634 3220 271 
Q 2806 -91 2034 -91 
Q 1263 -91 848 271 
Q 434 634 434 1313 
Q 434 1759 690 2068 
Q 947 2378 1403 2484 
z
M 1172 3481 
Q 1172 3119 1398 2916 
Q 1625 2713 2034 2713 
Q 2441 2713 2670 2916 
Q 2900 3119 2900 3481 
Q 2900 3844 2670 4047 
Q 2441 4250 2034 4250 
Q 1625 4250 1398 4047 
Q 1172 3844 1172 3481 
z
" transform="scale(0.015625)"/>
       </defs>
       <use xlink:href="#DejaVuSans-30"/>
       <use xlink:href="#DejaVuSans-2e" x="63.623047"/>
       <use xlink:href="#DejaVuSans-38" x="95.410156"/>
      </g>
     </g>
    </g>
    <g id="ytick_7">
     <g id="line2d_12">
      <g>
       <use xlink:href="#m8cb7f83f86" x="135" y="78.12" style="stroke: #000000; stroke-width: 0.8"/>
      </g>
     </g>
     <g id="text_13">
      <!-- 1.0 -->
      <g transform="translate(112.096875 81.919219) scale(0.1 -0.1)">
       <use xlink:href="#DejaVuSans-31"/>
       <use xlink:href="#DejaVuSans-2e" x="63.623047"/>
       <use xlink:href="#DejaVuSans-30" x="95.410156"/>
      </g>
     </g>
    </g>
   </g>
   <g id="line2d_13">
    <path d="M 173.045455 272.39409 
L 173.36604 158.433036 
L 173.686625 113.093985 
L 174.00721 100.747049 
L 174.167503 100.38964 
L 174.488088 104.119445 
L 175.129259 112.814403 
L 175.610137 115.99317 
L 176.251307 119.143609 
L 176.571892 121.872058 
L 177.05277 128.728758 
L 177.533648 139.517936 
L 177.693941 144.021088 
L 178.014526 239.482577 
L 178.335111 290.840872 
L 178.655696 316.102587 
L 178.976282 327.930069 
L 180.09833 354.139396 
L 180.899793 386.029375 
L 181.701256 416.558683 
L 182.182134 427.650812 
L 182.502719 430.755045 
L 182.663012 430.92 
L 182.823305 430.149578 
L 183.14389 425.846699 
L 183.464475 418.04225 
L 183.945353 400.546099 
L 184.746816 360.020704 
L 186.990913 235.833724 
L 187.632083 211.634746 
L 188.273254 195.415835 
L 188.754132 188.526889 
L 189.074717 186.313403 
L 189.23501 185.875885 
L 189.395302 185.860366 
L 189.555595 186.246868 
L 189.87618 188.140134 
L 190.357058 193.437102 
L 190.998229 204.082063 
L 191.959984 224.678374 
L 194.043788 270.607485 
L 195.005544 286.992576 
L 195.807007 297.435041 
L 196.60847 305.122322 
L 197.409934 310.477156 
L 198.051104 313.443574 
L 198.692275 315.549848 
L 199.493738 317.37907 
L 200.455493 318.972859 
L 202.05842 321.53647 
L 203.020175 323.491586 
L 204.142224 326.312648 
L 205.584857 330.67615 
L 208.149539 339.406212 
L 210.553929 347.247329 
L 212.317148 352.218285 
L 213.278903 354.595645 
L 213.599489 186.718504 
L 213.920074 113.783962 
L 214.240659 89.131903 
L 214.400952 86.011423 
L 214.561244 86.091769 
L 214.88183 90.677658 
L 215.523 101.005748 
L 216.003878 105.331726 
L 216.805341 111.430651 
L 217.286219 118.03787 
L 217.767097 128.324953 
L 218.087682 137.397951 
L 218.408267 233.283134 
L 218.728853 285.024444 
L 219.049438 310.631712 
L 219.370023 322.770835 
L 220.492072 349.865799 
L 221.293535 382.261405 
L 222.094998 413.233794 
L 222.575876 424.567895 
L 222.896461 427.82401 
L 223.056754 428.06207 
L 223.217046 427.362846 
L 223.537631 423.19659 
L 223.858217 415.520984 
L 224.339095 398.203421 
L 225.140558 357.93716 
L 227.384654 234.258632 
L 228.025825 210.162864 
L 228.666995 194.03599 
L 229.147873 187.21081 
L 229.468459 185.038001 
L 229.628751 184.620382 
L 229.789044 184.624513 
L 229.949336 185.030442 
L 230.269922 186.961996 
L 230.7508 192.31527 
L 231.39197 203.033769 
L 232.353726 223.737802 
L 234.43753 269.886549 
L 235.399286 286.363165 
L 236.200749 296.875611 
L 237.002212 304.626606 
L 237.803675 310.038702 
L 238.444846 313.04634 
L 239.086016 315.189921 
L 239.887479 317.060617 
L 240.849235 318.697334 
L 242.612454 321.62089 
L 243.57421 323.673104 
L 244.696258 326.601649 
L 246.138892 331.068025 
L 252.230011 350.881505 
L 253.832938 354.921474 
L 253.99323 355.288935 
L 254.313815 187.376686 
L 254.634401 114.408695 
L 254.954986 89.724131 
L 255.115279 86.587637 
L 255.275571 86.6521 
L 255.596156 91.206603 
L 256.237327 101.47372 
L 256.718205 105.756115 
L 257.519668 111.787957 
L 258.000546 118.358789 
L 258.481424 128.61254 
L 258.802009 137.664998 
L 259.122594 233.533389 
L 259.443179 285.259448 
L 259.763765 310.852894 
L 260.08435 322.979495 
L 261.206398 350.038561 
L 262.007861 382.413488 
L 262.809325 413.367702 
L 263.290202 424.691873 
L 263.610788 427.941758 
L 263.77108 428.176821 
L 263.931373 427.474678 
L 264.251958 423.302824 
L 264.572543 415.621943 
L 265.053421 398.297073 
L 265.854884 358.020228 
L 268.098981 234.32103 
L 268.740152 210.221096 
L 269.381322 194.090521 
L 269.8622 187.262787 
L 270.182785 185.088353 
L 270.343078 184.66994 
L 270.503371 184.673288 
L 270.663663 185.078443 
L 270.984248 187.008474 
L 271.465126 192.359513 
L 272.106297 203.075101 
L 273.068053 223.774878 
L 275.151857 269.914972 
L 276.113612 286.387985 
L 276.915076 296.897677 
L 277.716539 304.646164 
L 278.518002 310.056005 
L 279.159172 313.06202 
L 279.800343 315.204131 
L 280.601806 317.073193 
L 281.563562 318.708217 
L 283.326781 321.629305 
L 284.288536 323.680451 
L 285.410585 326.607941 
L 286.853218 331.073202 
L 292.944338 350.883815 
L 293.585509 352.579612 
L 293.906094 184.802996 
L 294.226679 111.964343 
L 294.547264 87.405616 
L 294.707557 84.33118 
L 294.86785 84.457237 
L 295.188435 89.13358 
L 295.829605 99.637833 
L 296.310483 104.090054 
L 297.111946 110.383748 
L 297.592824 117.096821 
L 298.073702 127.480998 
L 298.394287 136.613884 
L 298.714873 232.547991 
L 299.035458 284.333758 
L 299.356043 309.981339 
L 299.676628 322.157001 
L 300.798677 349.35687 
L 301.60014 381.813063 
L 302.401603 412.838825 
L 302.882481 424.202131 
L 303.203066 427.476588 
L 303.363359 427.723477 
L 303.523651 427.032852 
L 303.844237 422.883096 
L 304.164822 415.223048 
L 304.6457 397.927042 
L 305.447163 357.692038 
L 307.69126 234.074637 
L 308.33243 209.991197 
L 308.973601 193.87527 
L 309.454478 187.057645 
L 309.775064 184.889641 
L 309.935356 184.474369 
L 310.095649 184.480814 
L 310.255942 184.889029 
L 310.576527 186.825081 
L 311.057405 192.184954 
L 311.698575 202.912047 
L 312.660331 223.628628 
L 314.744135 269.802873 
L 315.705891 286.290098 
L 316.507354 296.810653 
L 317.308817 304.569031 
L 318.11028 309.987765 
L 318.751451 313.000182 
L 319.392621 315.148088 
L 320.194084 317.023596 
L 321.15584 318.665294 
L 322.919059 321.596114 
L 324.041107 324.035609 
L 325.163156 327.045451 
L 326.605789 331.584323 
L 332.216031 349.986784 
L 333.818957 354.161026 
L 334.139543 186.306198 
L 334.460128 113.392864 
L 334.780713 88.761362 
L 334.941006 85.650991 
L 335.101298 85.741353 
L 335.421884 90.347005 
L 336.063054 100.713391 
L 336.543932 105.066683 
L 337.345395 111.207576 
L 337.826273 117.837529 
L 338.307151 128.145422 
L 338.627736 137.231236 
L 338.948321 233.126889 
L 339.268907 284.877701 
L 339.589492 310.493577 
L 339.910077 322.640493 
L 341.032126 349.757782 
L 341.833589 382.166248 
L 342.635052 413.149949 
L 343.11593 424.490235 
L 343.436515 427.750234 
L 343.596808 427.990163 
L 343.7571 427.29276 
L 344.077685 423.129997 
L 344.398271 415.457684 
L 344.879149 398.144683 
L 345.680612 357.885038 
L 347.924708 234.219453 
L 348.565879 210.126298 
L 349.207049 194.001746 
L 349.687927 187.17817 
L 350.008513 185.006382 
L 350.168805 184.589262 
L 350.329098 184.593885 
L 350.48939 185.0003 
L 350.809976 186.93281 
L 351.290854 192.287488 
L 351.932024 203.007817 
L 352.89378 223.714523 
L 354.977584 269.868708 
L 355.93934 286.347586 
L 356.740803 296.861762 
L 357.542266 304.614332 
L 358.343729 310.027844 
L 358.9849 313.036501 
L 359.62607 315.181004 
L 360.427533 317.052727 
L 361.389289 318.690506 
L 363.152508 321.61561 
L 364.114264 323.668495 
L 365.236312 326.597702 
L 366.678946 331.064777 
L 372.770065 350.880056 
L 373.090651 351.741408 
L 373.411236 184.005213 
L 373.731821 111.205255 
L 374.052406 86.684358 
L 374.212699 83.628649 
L 374.372992 83.773338 
L 374.693577 88.486671 
L 375.334747 99.063368 
L 375.815625 103.567785 
L 376.617088 109.94239 
L 377.097966 116.699606 
L 377.578844 127.124371 
L 377.899429 136.282336 
L 378.220015 232.236919 
L 378.5406 284.041315 
L 378.861185 309.705807 
L 379.18177 321.896814 
L 380.303819 349.140856 
L 381.105282 381.622657 
L 381.906745 412.671037 
L 382.387623 424.046742 
L 382.708208 427.328991 
L 382.868501 427.579633 
L 383.028793 426.892664 
L 383.349379 422.749926 
L 383.669964 415.096499 
L 384.150842 397.809671 
L 384.952305 357.587982 
L 387.196402 233.996644 
L 387.837572 209.918458 
L 388.478743 193.807194 
L 388.95962 186.992785 
L 389.280206 184.826825 
L 389.440498 184.41255 
L 389.600791 184.41998 
L 389.761084 184.829166 
L 390.081669 186.767129 
L 390.562547 192.129803 
L 391.203717 202.860541 
L 392.165473 223.582439 
L 394.249277 269.767477 
L 395.211033 286.259189 
L 396.012496 296.783174 
L 396.813959 304.544675 
L 397.615422 309.966214 
L 398.256593 312.980652 
L 398.897763 315.130388 
L 399.699226 317.007931 
L 400.660982 318.651736 
L 402.424201 321.585629 
L 403.546249 324.026657 
L 404.668298 327.03778 
L 406.110931 331.578009 
L 411.721173 349.983781 
L 413.324099 354.158599 
L 413.644685 354.913655 
L 413.96527 187.020685 
L 414.285855 114.071025 
L 414.60644 89.404235 
L 414.766733 86.276484 
L 414.927026 86.349609 
L 415.247611 90.921204 
L 415.888781 101.221442 
L 416.369659 105.527456 
L 417.171122 111.595582 
L 417.652 118.186064 
L 418.132878 128.457798 
L 418.453463 137.52133 
L 418.774049 233.398772 
L 419.094634 285.133046 
L 419.415219 310.733934 
L 419.735804 322.867273 
L 420.857853 349.945635 
L 421.659316 382.331667 
L 422.460779 413.295638 
L 422.941657 424.625141 
L 423.262242 427.878371 
L 423.422535 428.115043 
L 423.582827 427.414468 
L 423.903413 423.24562 
L 424.223998 415.567572 
L 424.704876 398.246627 
L 425.506339 357.975469 
L 427.750436 234.287384 
L 428.391606 210.189692 
L 429.032777 194.061109 
L 429.513655 187.234752 
L 429.83424 185.061193 
L 429.994532 184.643208 
L 430.154825 184.646978 
L 430.315118 185.05255 
L 430.635703 186.983402 
L 431.116581 192.335646 
L 431.757751 203.052804 
L 432.719507 223.754877 
L 434.803311 269.89964 
L 435.765067 286.374597 
L 436.56653 296.885775 
L 437.367993 304.635615 
L 438.169456 310.046673 
L 438.810627 313.053564 
L 439.451797 315.196467 
L 440.25326 317.066411 
L 441.215016 318.702348 
L 442.978235 321.624767 
L 443.939991 323.676489 
L 445.062039 326.604548 
L 446.504673 331.07041 
L 452.595793 350.882569 
L 453.557548 353.386411 
L 453.878134 185.570203 
L 454.198719 112.693716 
L 454.519304 88.098083 
L 454.679597 85.005409 
L 454.839889 85.113341 
L 455.160475 89.753762 
L 455.801645 100.187866 
L 456.282523 104.589686 
L 457.083986 110.805447 
L 457.564864 117.476088 
L 458.045742 127.8213 
L 458.366327 136.930131 
L 458.686912 232.844591 
L 459.007498 284.612494 
L 459.328083 310.243867 
L 459.648668 322.40483 
L 460.770716 349.562447 
L 461.57218 381.994197 
L 462.373643 412.998403 
L 462.854521 424.349906 
L 463.175106 427.616948 
L 463.335398 427.860267 
L 463.495691 427.166166 
L 463.816276 423.009736 
L 464.136862 415.343396 
L 464.617739 398.038669 
L 465.419203 357.791018 
L 467.663299 234.14888 
L 468.30447 210.060453 
L 468.94564 193.940098 
L 469.426518 187.11942 
L 469.747103 184.949474 
L 469.907396 184.533254 
L 470.067689 184.538764 
L 470.227981 184.946056 
L 470.548567 186.88029 
L 471.029444 192.237499 
L 471.670615 202.961124 
L 472.632371 223.672642 
L 474.716175 269.836607 
L 475.677931 286.319555 
L 476.479394 296.836841 
L 477.280857 304.592243 
L 478.08232 310.008301 
L 478.72349 313.018792 
L 479.364661 315.164955 
L 480.166124 317.038523 
L 481.12788 318.678214 
L 482.891099 321.606105 
L 484.013147 324.044139 
L 485.135195 327.05276 
L 486.577829 331.590339 
L 492.188071 349.989645 
L 493.630705 353.775953 
L 493.95129 185.940411 
L 494.271875 113.045467 
L 494.59246 88.431857 
L 494.752753 85.33031 
L 494.913046 85.429429 
L 495.233631 90.052404 
L 495.874801 100.452503 
L 496.355679 104.829936 
L 497.157142 111.008051 
L 497.63802 117.658221 
L 498.118898 127.984652 
L 498.439483 137.081897 
L 498.760069 232.98689 
L 499.080654 284.746188 
L 499.401239 310.369758 
L 499.721824 322.523648 
L 500.843873 349.660949 
L 501.645336 382.080963 
L 502.446799 413.07483 
L 502.927677 424.420677 
L 503.248262 427.684166 
L 503.408555 427.925776 
L 503.568847 427.230008 
L 503.889433 423.070384 
L 504.210018 415.401031 
L 504.690896 398.09213 
L 505.492359 357.838427 
L 507.736456 234.184459 
L 508.377626 210.093647 
L 509.018797 193.971175 
L 509.499674 187.149035 
L 509.82026 184.97816 
L 509.980552 184.561485 
L 510.140845 184.566548 
L 510.301138 184.973398 
L 510.621723 186.906763 
L 511.102601 192.262695 
L 511.743771 202.984658 
L 512.705527 223.693751 
L 514.789331 269.852786 
L 515.751087 286.333683 
L 516.55255 296.849402 
L 517.354013 304.603376 
L 518.155476 310.018151 
L 518.796647 313.027718 
L 519.437817 315.173044 
L 520.23928 317.045682 
L 521.201036 318.684409 
L 522.964255 321.610896 
L 523.926011 323.664379 
L 525.048059 326.594177 
L 526.490693 331.061877 
L 532.581812 350.878763 
L 533.864153 354.164447 
L 534.184739 186.309423 
L 534.505324 113.395906 
L 534.825909 88.764229 
L 534.986202 85.653773 
L 535.146494 85.744052 
L 535.46708 90.349541 
L 536.10825 100.715619 
L 536.589128 105.068694 
L 537.390591 111.20926 
L 537.871469 117.839037 
L 538.352347 128.146771 
L 538.672932 137.232487 
L 538.993517 233.128061 
L 539.314103 284.878801 
L 539.634688 310.494612 
L 539.955273 322.64147 
L 541.077322 349.758594 
L 541.878785 382.166964 
L 542.680248 413.150582 
L 543.161126 424.490823 
L 543.481711 427.750793 
L 543.642004 427.990709 
L 543.802296 427.293292 
L 544.122881 423.130503 
L 544.443467 415.458166 
L 544.924345 398.145131 
L 545.725808 357.885436 
L 547.969904 234.219754 
L 548.611075 210.126579 
L 549.252245 194.00201 
L 549.733123 187.178422 
L 550.053709 185.006626 
L 550.214001 184.589502 
L 550.374294 184.594121 
L 550.534586 185.000532 
L 550.855172 186.933035 
L 551.33605 192.287702 
L 551.97722 203.008017 
L 552.938976 223.714703 
L 555.02278 269.868845 
L 555.984536 286.347706 
L 556.785999 296.861869 
L 557.587462 304.614426 
L 558.388925 310.027927 
L 559.030096 313.036577 
L 559.671266 315.181072 
L 560.472729 317.052787 
L 561.434485 318.690558 
L 563.197704 321.615651 
L 564.15946 323.66853 
L 565.281508 326.597732 
L 566.724142 331.064802 
L 572.815261 350.880068 
L 574.257895 354.546239 
L 574.57848 186.671923 
L 574.899065 113.740027 
L 575.219651 89.09049 
L 575.379943 85.971235 
L 575.540236 86.052786 
L 575.860821 90.641025 
L 576.501992 100.973582 
L 576.98287 105.302688 
L 577.784333 111.406345 
L 578.265211 118.016096 
L 578.746088 128.305479 
L 579.066674 137.379885 
L 579.387259 233.266215 
L 579.707844 285.008561 
L 580.028429 310.616763 
L 580.349015 322.756728 
L 581.471063 349.854083 
L 582.272526 382.251056 
L 583.073989 413.224648 
L 583.554867 424.559407 
L 583.875452 427.815937 
L 584.035745 428.054196 
L 584.196038 427.355167 
L 584.516623 423.189284 
L 584.837208 415.514031 
L 585.318086 398.196957 
L 586.119549 357.931407 
L 588.363646 234.254283 
L 589.004816 210.1588 
L 589.645987 194.032181 
L 590.126865 187.207178 
L 590.44745 185.034482 
L 590.607743 184.616918 
L 590.768035 184.621104 
L 590.928328 185.027087 
L 591.248913 186.958746 
L 591.729791 192.312176 
L 592.370962 203.030879 
L 593.332717 223.73521 
L 595.416521 269.884564 
L 596.378277 286.361432 
L 597.17974 296.874071 
L 597.981203 304.625242 
L 598.782667 310.037496 
L 599.423837 313.045248 
L 600.065008 315.18893 
L 600.866471 317.059742 
L 601.828226 318.696576 
L 603.591445 321.620304 
L 604.553201 323.672593 
L 605.675249 326.601211 
L 607.117883 331.067665 
L 613.209003 350.881345 
L 613.529588 183.185751 
L 613.850173 110.424747 
L 614.170759 85.942039 
L 614.331051 82.905276 
L 614.491344 83.068842 
L 614.811929 87.819725 
L 615.4531 98.470225 
L 615.933977 103.028002 
L 616.735441 109.485563 
L 617.216318 116.288149 
L 617.697196 126.754691 
L 618.017782 135.9385 
L 618.338367 231.914173 
L 618.658952 283.73777 
L 618.979537 309.419706 
L 619.300123 321.626551 
L 620.422171 348.916256 
L 621.223634 381.424592 
L 622.025097 412.496454 
L 622.505975 423.885044 
L 622.82656 427.175398 
L 622.986853 427.429944 
L 623.147146 426.74678 
L 623.467731 422.611347 
L 623.788316 414.964813 
L 624.269194 397.687545 
L 625.070657 357.479734 
L 627.314754 233.915574 
L 627.955924 209.842868 
L 628.597095 193.736466 
L 629.077973 186.925408 
L 629.398558 184.761577 
L 629.558851 184.348342 
L 629.719143 184.356796 
L 629.879436 184.766994 
L 630.200021 186.706945 
L 630.680899 192.072534 
L 631.322069 202.807063 
L 632.283825 223.534487 
L 634.367629 269.730733 
L 635.329385 286.227103 
L 636.130848 296.754649 
L 636.932311 304.51939 
L 637.733774 309.943843 
L 638.374945 312.960378 
L 639.016115 315.112012 
L 639.817579 316.991667 
L 640.779334 318.63766 
L 642.542553 321.574742 
L 643.664602 324.017362 
L 644.78665 327.029815 
L 646.229284 331.571452 
L 651.839525 349.980662 
L 653.442452 354.15608 
L 653.92333 355.278918 
L 654.243915 187.367243 
L 654.5645 114.399788 
L 654.885085 89.715736 
L 655.045378 86.57949 
L 655.205671 86.644198 
L 655.526256 91.199177 
L 656.167426 101.4672 
L 656.648304 105.750229 
L 657.449767 111.78303 
L 657.930645 118.354376 
L 658.411523 128.608593 
L 658.732108 137.661337 
L 659.052694 233.52996 
L 659.373279 285.256229 
L 659.693864 310.849864 
L 660.014449 322.976637 
L 661.136498 350.036187 
L 661.937961 382.411391 
L 662.739424 413.365849 
L 663.220302 424.690154 
L 663.540887 427.940123 
L 663.70118 428.175225 
L 663.861472 427.473122 
L 664.182058 423.301344 
L 664.502643 415.620534 
L 664.983521 398.295763 
L 665.784984 358.019063 
L 668.029081 234.320149 
L 668.670251 210.220273 
L 669.311422 194.089749 
L 669.792299 187.262051 
L 670.112885 185.08764 
L 670.273177 184.669238 
L 670.43347 184.672597 
L 670.593763 185.077763 
L 670.914348 187.007816 
L 671.395226 192.358886 
L 672.036396 203.074515 
L 672.998152 223.774353 
L 675.081956 269.91457 
L 676.043712 286.387634 
L 676.845175 296.897365 
L 677.646638 304.645887 
L 678.448101 310.055761 
L 679.089272 313.061799 
L 679.730442 315.20393 
L 680.531905 317.073016 
L 681.493661 318.708064 
L 683.25688 321.629187 
L 684.218636 323.680347 
L 685.340684 326.607852 
L 686.783318 331.073129 
L 692.874437 350.883782 
L 694.156778 354.168679 
L 694.477364 186.313413 
L 694.797949 113.39967 
L 695.118534 88.767777 
L 695.278827 85.657216 
L 695.439119 85.747392 
L 695.759705 90.35268 
L 696.400875 100.718374 
L 696.881753 105.071182 
L 697.683216 111.211342 
L 698.164094 117.840903 
L 698.644972 128.14844 
L 698.965557 137.234035 
L 699.286142 233.12951 
L 699.606728 284.880162 
L 699.927313 310.495893 
L 700.247898 322.642679 
L 701.369947 349.759598 
L 702.17141 382.167851 
L 702.972873 413.151366 
L 703.453751 424.491551 
L 703.774336 427.751485 
L 703.934629 427.991384 
L 704.094921 427.29395 
L 704.415506 423.131129 
L 704.736092 415.458761 
L 705.21697 398.145685 
L 706.018433 357.885929 
L 708.262529 234.220127 
L 708.9037 210.126928 
L 709.54487 194.002336 
L 710.025748 187.178733 
L 710.346334 185.006927 
L 710.506626 184.589799 
L 710.666919 184.594413 
L 710.827211 185.00082 
L 711.147797 186.933313 
L 711.628675 192.287967 
L 712.269845 203.008265 
L 713.231601 223.714925 
L 715.315405 269.869015 
L 716.277161 286.347855 
L 717.078624 296.862001 
L 717.880087 304.614543 
L 718.68155 310.02803 
L 719.322721 313.03667 
L 719.963891 315.181157 
L 720.765354 317.052863 
L 721.72711 318.690623 
L 723.490329 321.615701 
L 724.452085 323.668574 
L 725.574133 326.597769 
L 727.016767 331.064833 
L 733.107886 350.880081 
L 734.069642 353.384221 
L 734.390227 185.568139 
L 734.710813 112.691768 
L 735.031398 88.096247 
L 735.19169 85.003628 
L 735.351983 85.111613 
L 735.672568 89.752138 
L 736.313739 100.18644 
L 736.794617 104.588399 
L 737.59608 110.80437 
L 738.076958 117.475123 
L 738.557836 127.820436 
L 738.878421 136.92933 
L 739.199006 232.843841 
L 739.519591 284.61179 
L 739.840177 310.243204 
L 740.160762 322.404205 
L 741.28281 349.561928 
L 742.084273 381.993738 
L 742.885736 412.997997 
L 743.366614 424.34953 
L 743.6872 427.61659 
L 743.847492 427.859918 
L 744.007785 427.165825 
L 744.32837 423.009412 
L 744.648955 415.343087 
L 745.129833 398.038382 
L 745.931296 357.790762 
L 748.175393 234.148688 
L 748.816564 210.060272 
L 749.457734 193.939929 
L 749.938612 187.119259 
L 750.259197 184.949318 
L 750.41949 184.5331 
L 750.579782 184.538613 
L 750.740075 184.945907 
L 751.06066 186.880146 
L 751.541538 192.237362 
L 752.182709 202.960996 
L 753.144464 223.672527 
L 755.228269 269.836519 
L 756.190024 286.319478 
L 756.991487 296.836773 
L 757.792951 304.592183 
L 758.594414 310.008248 
L 759.235584 313.018744 
L 759.876755 315.164911 
L 760.678218 317.038484 
L 761.639974 318.67818 
L 763.403192 321.606079 
L 764.525241 324.044117 
L 765.647289 327.052741 
L 767.089923 331.590323 
L 772.700165 349.989637 
L 773.822213 352.98117 
L 774.142798 185.184978 
L 774.463384 112.327603 
L 774.783969 87.750597 
L 774.944261 84.667122 
L 775.104554 84.784191 
L 775.425139 89.442711 
L 776.06631 99.912119 
L 776.547188 104.339279 
L 777.348651 110.594185 
L 777.829529 117.286124 
L 778.310407 127.650885 
L 778.630992 136.771781 
L 778.951577 232.696095 
L 779.272162 284.472956 
L 779.592748 310.112454 
L 779.913333 322.280785 
L 781.035381 349.45957 
L 781.836844 381.903557 
L 782.638307 412.91855 
L 783.119185 424.275959 
L 783.439771 427.54671 
L 783.600063 427.791815 
L 783.760356 427.099453 
L 784.080941 422.946361 
L 784.401526 415.283168 
L 784.882404 397.982803 
L 785.683867 357.741476 
L 787.927964 234.11171 
L 788.569135 210.025776 
L 789.210305 193.907637 
L 789.691183 187.088486 
L 790.011768 184.919512 
L 790.172061 184.503766 
L 790.332353 184.509744 
L 790.492646 184.917498 
L 790.813231 186.852642 
L 791.294109 192.211184 
L 791.93528 202.936545 
L 792.897035 223.650599 
L 794.98084 269.819712 
L 795.942595 286.304802 
L 796.744058 296.823726 
L 797.545522 304.580618 
L 798.346985 309.998016 
L 798.988155 313.009472 
L 799.629326 315.156508 
L 800.430789 317.031048 
L 801.392545 318.671744 
L 803.155763 321.601102 
L 804.277812 324.039868 
L 805.39986 327.0491 
L 806.842494 331.587326 
L 812.452736 349.988212 
L 813.414491 352.572504 
L 813.735077 184.796294 
L 814.055662 111.958021 
L 814.376247 87.399657 
L 814.53654 84.325397 
L 814.696832 84.451626 
L 815.017418 89.128308 
L 815.658588 99.633203 
L 816.139466 104.085873 
L 816.940929 110.380248 
L 817.421807 117.093686 
L 817.902685 127.478194 
L 818.22327 136.611282 
L 818.543855 232.545554 
L 818.864441 284.33147 
L 819.185026 309.979185 
L 819.505611 322.154968 
L 820.62766 349.355182 
L 821.429123 381.811572 
L 822.230586 412.837507 
L 822.711464 424.200908 
L 823.032049 427.475424 
L 823.192342 427.722342 
L 823.352634 427.031746 
L 823.673219 422.882043 
L 823.993805 415.222046 
L 824.474683 397.926111 
L 825.276146 357.691209 
L 827.520242 234.074011 
L 828.161413 209.990611 
L 828.802583 193.874721 
L 829.283461 187.057122 
L 829.604047 184.889134 
L 829.764339 184.47387 
L 829.924632 184.480323 
L 830.084924 184.888546 
L 830.40551 186.824613 
L 830.886388 192.184508 
L 831.527558 202.911631 
L 832.489314 223.628254 
L 834.573118 269.802587 
L 835.534874 286.289848 
L 836.336337 296.810432 
L 837.1378 304.568835 
L 837.939263 309.987591 
L 838.580434 313.000024 
L 839.221604 315.147945 
L 840.023067 317.02347 
L 840.984823 318.665185 
L 842.748042 321.59603 
L 843.87009 324.035537 
L 844.992139 327.045389 
L 846.434772 331.584272 
L 852.045014 349.986759 
L 853.64794 354.161006 
L 854.609696 356.347133 
L 854.930281 188.37997 
L 855.250867 115.359812 
L 855.571452 90.624729 
L 855.731744 87.463412 
L 855.892037 87.503297 
L 856.212622 92.009346 
L 856.853793 102.182729 
L 857.334671 106.398393 
L 857.975841 110.821595 
L 858.456719 116.295313 
L 858.937597 125.205009 
L 859.418475 138.067772 
L 859.73906 233.910692 
L 860.059645 285.61364 
L 860.380231 311.186161 
L 860.700816 323.293824 
L 861.822864 350.298699 
L 862.624327 382.642485 
L 863.42579 413.569363 
L 863.906668 424.87861 
L 864.227254 428.119133 
L 864.387546 428.349692 
L 864.547839 427.643164 
L 864.868424 423.4629 
L 865.189009 415.774094 
L 865.669887 398.438251 
L 866.47135 358.145509 
L 868.715447 234.415256 
L 869.356618 210.309057 
L 869.997788 194.172913 
L 870.478666 187.341332 
L 870.799251 185.164449 
L 870.959544 184.74484 
L 871.119836 184.747006 
L 871.280129 185.150995 
L 871.600714 187.078729 
L 872.081592 192.426396 
L 872.722763 203.137587 
L 873.684518 223.830936 
L 875.768323 269.957947 
L 876.730078 286.425511 
L 877.531541 296.931037 
L 878.333005 304.67573 
L 879.134468 310.082162 
L 879.775638 313.085722 
L 880.416809 315.22561 
L 881.218272 317.092201 
L 882.180028 318.724666 
L 883.943246 321.642023 
L 884.905002 323.691553 
L 886.027051 326.617449 
L 887.469684 331.081025 
L 893.560804 350.887304 
L 894.362267 352.990036 
L 894.682852 185.193338 
L 895.003438 112.335489 
L 895.324023 87.758031 
L 895.484315 84.674336 
L 895.644608 84.791189 
L 895.965193 89.449288 
L 896.606364 99.917895 
L 897.087242 104.344493 
L 897.888705 110.59855 
L 898.369583 117.290035 
L 898.850461 127.654383 
L 899.171046 136.775026 
L 899.491631 232.699134 
L 899.812216 284.475809 
L 900.132802 310.11514 
L 900.453387 322.283319 
L 901.575435 349.461675 
L 902.376898 381.905417 
L 903.178361 412.920194 
L 903.659239 424.277484 
L 903.979825 427.548161 
L 904.140117 427.79323 
L 904.30041 427.100833 
L 904.620995 422.947674 
L 904.94158 415.284418 
L 905.422458 397.983964 
L 906.223921 357.74251 
L 908.468018 234.112491 
L 909.109189 210.026506 
L 909.750359 193.908321 
L 910.231237 187.089138 
L 910.551822 184.920144 
L 910.712115 184.504388 
L 910.872407 184.510357 
L 911.0327 184.918101 
L 911.353285 186.853226 
L 911.834163 192.21174 
L 912.475334 202.937064 
L 913.437089 223.651064 
L 915.520894 269.820069 
L 916.482649 286.305113 
L 917.284112 296.824002 
L 918.085576 304.580863 
L 918.887039 309.998233 
L 919.528209 313.009668 
L 920.16938 315.156685 
L 920.970843 317.031205 
L 921.932599 318.67188 
L 923.695817 321.601207 
L 924.817866 324.039957 
L 925.939914 327.049177 
L 927.382548 331.58739 
L 932.99279 349.988242 
L 933.794253 352.158411 
L 933.954545 252.473023 
L 933.954545 252.473023 
" clip-path="url(#p4c5b5723ce)" style="fill: none; stroke: #1f77b4; stroke-width: 1.5; stroke-linecap: square"/>
   </g>
   <g id="line2d_14">
    <path d="M 173.045455 78.12 
L 177.693941 78.12 
L 177.854233 372.657599 
L 213.278903 372.657599 
L 213.439196 78.12 
L 218.087682 78.12 
L 218.247975 372.657599 
L 253.99323 372.657599 
L 254.153523 78.12 
L 258.802009 78.12 
L 258.962302 372.657599 
L 293.585509 372.657599 
L 293.745801 78.12 
L 298.394287 78.12 
L 298.55458 372.657599 
L 333.818957 372.657599 
L 333.97925 78.12 
L 338.627736 78.12 
L 338.788029 372.657599 
L 373.090651 372.657599 
L 373.250943 78.12 
L 377.899429 78.12 
L 378.059722 372.657599 
L 413.644685 372.657599 
L 413.804977 78.12 
L 418.453463 78.12 
L 418.613756 372.657599 
L 453.557548 372.657599 
L 453.717841 78.12 
L 458.366327 78.12 
L 458.52662 372.657599 
L 493.630705 372.657599 
L 493.790997 78.12 
L 498.439483 78.12 
L 498.599776 372.657599 
L 533.864153 372.657599 
L 534.024446 78.12 
L 538.672932 78.12 
L 538.833225 372.657599 
L 574.257895 372.657599 
L 574.418188 78.12 
L 579.066674 78.12 
L 579.226966 372.657599 
L 613.209003 372.657599 
L 613.369295 78.12 
L 618.017782 78.12 
L 618.178074 372.657599 
L 653.92333 372.657599 
L 654.083622 78.12 
L 658.732108 78.12 
L 658.892401 372.657599 
L 694.156778 372.657599 
L 694.317071 78.12 
L 698.965557 78.12 
L 699.12585 372.657599 
L 734.069642 372.657599 
L 734.229935 78.12 
L 738.878421 78.12 
L 739.038713 372.657599 
L 773.822213 372.657599 
L 773.982506 78.12 
L 778.630992 78.12 
L 778.791284 372.657599 
L 813.414491 372.657599 
L 813.574784 78.12 
L 818.22327 78.12 
L 818.383563 372.657599 
L 854.609696 372.657599 
L 854.769989 78.12 
L 859.418475 78.12 
L 859.578767 372.657599 
L 894.362267 372.657599 
L 894.52256 78.12 
L 899.171046 78.12 
L 899.331338 372.657599 
L 933.794253 372.657599 
L 933.954545 78.12 
L 933.954545 78.12 
" clip-path="url(#p4c5b5723ce)" style="fill: none; stroke: #ff7f0e; stroke-width: 1.5; stroke-linecap: square"/>
   </g>
   <g id="line2d_15">
    <path d="M 929.466352 372.657599 
" clip-path="url(#p4c5b5723ce)" style="fill: none; stroke: #000000; stroke-width: 1.5; stroke-linecap: square"/>
    <defs>
     <path id="meb8aa48a6f" d="M 0 1 
C 0.265203 1 0.51958 0.894634 0.707107 0.707107 
C 0.894634 0.51958 1 0.265203 1 0 
C 1 -0.265203 0.894634 -0.51958 0.707107 -0.707107 
C 0.51958 -0.894634 0.265203 -1 0 -1 
C -0.265203 -1 -0.51958 -0.894634 -0.707107 -0.707107 
C -0.894634 -0.51958 -1 -0.265203 -1 0 
C -1 0.265203 -0.894634 0.51958 -0.707107 0.707107 
C -0.51958 0.894634 -0.265203 1 0 1 
z
" style="stroke: #000000"/>
    </defs>
    <g clip-path="url(#p4c5b5723ce)">
     <use xlink:href="#meb8aa48a6f" x="173.045455" y="78.12" style="stroke: #000000"/>
     <use xlink:href="#meb8aa48a6f" x="178.174819" y="372.657599" style="stroke: #000000"/>
     <use xlink:href="#meb8aa48a6f" x="183.14389" y="372.657599" style="stroke: #000000"/>
     <use xlink:href="#meb8aa48a6f" x="188.112961" y="78.12" style="stroke: #000000"/>
     <use xlink:href="#meb8aa48a6f" x="193.082033" y="372.657599" style="stroke: #000000"/>
     <use xlink:href="#meb8aa48a6f" x="198.211397" y="372.657599" style="stroke: #000000"/>
     <use xlink:href="#meb8aa48a6f" x="203.180468" y="78.12" style="stroke: #000000"/>
     <use xlink:href="#meb8aa48a6f" x="208.149539" y="372.657599" style="stroke: #000000"/>
     <use xlink:href="#meb8aa48a6f" x="213.118611" y="78.12" style="stroke: #000000"/>
     <use xlink:href="#meb8aa48a6f" x="218.247975" y="372.657599" style="stroke: #000000"/>
     <use xlink:href="#meb8aa48a6f" x="223.217046" y="372.657599" style="stroke: #000000"/>
     <use xlink:href="#meb8aa48a6f" x="228.186118" y="78.12" style="stroke: #000000"/>
     <use xlink:href="#meb8aa48a6f" x="233.155189" y="372.657599" style="stroke: #000000"/>
     <use xlink:href="#meb8aa48a6f" x="238.284553" y="372.657599" style="stroke: #000000"/>
     <use xlink:href="#meb8aa48a6f" x="243.253624" y="78.12" style="stroke: #000000"/>
     <use xlink:href="#meb8aa48a6f" x="248.222696" y="372.657599" style="stroke: #000000"/>
     <use xlink:href="#meb8aa48a6f" x="253.191767" y="78.12" style="stroke: #000000"/>
     <use xlink:href="#meb8aa48a6f" x="258.321131" y="372.657599" style="stroke: #000000"/>
     <use xlink:href="#meb8aa48a6f" x="263.290202" y="372.657599" style="stroke: #000000"/>
     <use xlink:href="#meb8aa48a6f" x="268.259274" y="78.12" style="stroke: #000000"/>
     <use xlink:href="#meb8aa48a6f" x="273.228345" y="372.657599" style="stroke: #000000"/>
     <use xlink:href="#meb8aa48a6f" x="278.357709" y="372.657599" style="stroke: #000000"/>
     <use xlink:href="#meb8aa48a6f" x="283.326781" y="78.12" style="stroke: #000000"/>
     <use xlink:href="#meb8aa48a6f" x="288.295852" y="372.657599" style="stroke: #000000"/>
     <use xlink:href="#meb8aa48a6f" x="293.264923" y="78.12" style="stroke: #000000"/>
     <use xlink:href="#meb8aa48a6f" x="298.394287" y="372.657599" style="stroke: #000000"/>
     <use xlink:href="#meb8aa48a6f" x="303.363359" y="372.657599" style="stroke: #000000"/>
     <use xlink:href="#meb8aa48a6f" x="308.33243" y="78.12" style="stroke: #000000"/>
     <use xlink:href="#meb8aa48a6f" x="313.301501" y="372.657599" style="stroke: #000000"/>
     <use xlink:href="#meb8aa48a6f" x="318.430865" y="372.657599" style="stroke: #000000"/>
     <use xlink:href="#meb8aa48a6f" x="323.399937" y="78.12" style="stroke: #000000"/>
     <use xlink:href="#meb8aa48a6f" x="328.369008" y="372.657599" style="stroke: #000000"/>
     <use xlink:href="#meb8aa48a6f" x="333.33808" y="78.12" style="stroke: #000000"/>
     <use xlink:href="#meb8aa48a6f" x="338.467444" y="372.657599" style="stroke: #000000"/>
     <use xlink:href="#meb8aa48a6f" x="343.436515" y="372.657599" style="stroke: #000000"/>
     <use xlink:href="#meb8aa48a6f" x="348.405586" y="78.12" style="stroke: #000000"/>
     <use xlink:href="#meb8aa48a6f" x="353.374658" y="372.657599" style="stroke: #000000"/>
     <use xlink:href="#meb8aa48a6f" x="358.504022" y="372.657599" style="stroke: #000000"/>
     <use xlink:href="#meb8aa48a6f" x="363.473093" y="78.12" style="stroke: #000000"/>
     <use xlink:href="#meb8aa48a6f" x="368.442164" y="372.657599" style="stroke: #000000"/>
     <use xlink:href="#meb8aa48a6f" x="373.411236" y="78.12" style="stroke: #000000"/>
     <use xlink:href="#meb8aa48a6f" x="378.5406" y="372.657599" style="stroke: #000000"/>
     <use xlink:href="#meb8aa48a6f" x="383.509671" y="372.657599" style="stroke: #000000"/>
     <use xlink:href="#meb8aa48a6f" x="388.478743" y="78.12" style="stroke: #000000"/>
     <use xlink:href="#meb8aa48a6f" x="393.447814" y="372.657599" style="stroke: #000000"/>
     <use xlink:href="#meb8aa48a6f" x="398.577178" y="372.657599" style="stroke: #000000"/>
     <use xlink:href="#meb8aa48a6f" x="403.546249" y="78.12" style="stroke: #000000"/>
     <use xlink:href="#meb8aa48a6f" x="408.515321" y="372.657599" style="stroke: #000000"/>
     <use xlink:href="#meb8aa48a6f" x="413.484392" y="78.12" style="stroke: #000000"/>
     <use xlink:href="#meb8aa48a6f" x="418.613756" y="372.657599" style="stroke: #000000"/>
     <use xlink:href="#meb8aa48a6f" x="423.582827" y="372.657599" style="stroke: #000000"/>
     <use xlink:href="#meb8aa48a6f" x="428.551899" y="78.12" style="stroke: #000000"/>
     <use xlink:href="#meb8aa48a6f" x="433.52097" y="372.657599" style="stroke: #000000"/>
     <use xlink:href="#meb8aa48a6f" x="438.650334" y="372.657599" style="stroke: #000000"/>
     <use xlink:href="#meb8aa48a6f" x="443.619406" y="78.12" style="stroke: #000000"/>
     <use xlink:href="#meb8aa48a6f" x="448.588477" y="372.657599" style="stroke: #000000"/>
     <use xlink:href="#meb8aa48a6f" x="453.557548" y="78.12" style="stroke: #000000"/>
     <use xlink:href="#meb8aa48a6f" x="458.686912" y="372.657599" style="stroke: #000000"/>
     <use xlink:href="#meb8aa48a6f" x="463.655984" y="372.657599" style="stroke: #000000"/>
     <use xlink:href="#meb8aa48a6f" x="468.625055" y="78.12" style="stroke: #000000"/>
     <use xlink:href="#meb8aa48a6f" x="473.594126" y="372.657599" style="stroke: #000000"/>
     <use xlink:href="#meb8aa48a6f" x="478.72349" y="372.657599" style="stroke: #000000"/>
     <use xlink:href="#meb8aa48a6f" x="483.692562" y="78.12" style="stroke: #000000"/>
     <use xlink:href="#meb8aa48a6f" x="488.661633" y="372.657599" style="stroke: #000000"/>
     <use xlink:href="#meb8aa48a6f" x="493.630705" y="78.12" style="stroke: #000000"/>
     <use xlink:href="#meb8aa48a6f" x="498.760069" y="372.657599" style="stroke: #000000"/>
     <use xlink:href="#meb8aa48a6f" x="503.72914" y="372.657599" style="stroke: #000000"/>
     <use xlink:href="#meb8aa48a6f" x="508.698211" y="78.12" style="stroke: #000000"/>
     <use xlink:href="#meb8aa48a6f" x="513.667283" y="372.657599" style="stroke: #000000"/>
     <use xlink:href="#meb8aa48a6f" x="518.796647" y="372.657599" style="stroke: #000000"/>
     <use xlink:href="#meb8aa48a6f" x="523.765718" y="78.12" style="stroke: #000000"/>
     <use xlink:href="#meb8aa48a6f" x="528.734789" y="372.657599" style="stroke: #000000"/>
     <use xlink:href="#meb8aa48a6f" x="533.703861" y="78.12" style="stroke: #000000"/>
     <use xlink:href="#meb8aa48a6f" x="538.833225" y="372.657599" style="stroke: #000000"/>
     <use xlink:href="#meb8aa48a6f" x="543.802296" y="372.657599" style="stroke: #000000"/>
     <use xlink:href="#meb8aa48a6f" x="548.771368" y="78.12" style="stroke: #000000"/>
     <use xlink:href="#meb8aa48a6f" x="553.740439" y="372.657599" style="stroke: #000000"/>
     <use xlink:href="#meb8aa48a6f" x="558.869803" y="372.657599" style="stroke: #000000"/>
     <use xlink:href="#meb8aa48a6f" x="563.838874" y="78.12" style="stroke: #000000"/>
     <use xlink:href="#meb8aa48a6f" x="568.807946" y="372.657599" style="stroke: #000000"/>
     <use xlink:href="#meb8aa48a6f" x="573.777017" y="78.12" style="stroke: #000000"/>
     <use xlink:href="#meb8aa48a6f" x="578.906381" y="372.657599" style="stroke: #000000"/>
     <use xlink:href="#meb8aa48a6f" x="583.875452" y="372.657599" style="stroke: #000000"/>
     <use xlink:href="#meb8aa48a6f" x="588.844524" y="78.12" style="stroke: #000000"/>
     <use xlink:href="#meb8aa48a6f" x="593.813595" y="372.657599" style="stroke: #000000"/>
     <use xlink:href="#meb8aa48a6f" x="598.942959" y="372.657599" style="stroke: #000000"/>
     <use xlink:href="#meb8aa48a6f" x="603.912031" y="78.12" style="stroke: #000000"/>
     <use xlink:href="#meb8aa48a6f" x="608.881102" y="372.657599" style="stroke: #000000"/>
     <use xlink:href="#meb8aa48a6f" x="613.850173" y="78.12" style="stroke: #000000"/>
     <use xlink:href="#meb8aa48a6f" x="618.979537" y="372.657599" style="stroke: #000000"/>
     <use xlink:href="#meb8aa48a6f" x="623.948609" y="372.657599" style="stroke: #000000"/>
     <use xlink:href="#meb8aa48a6f" x="628.91768" y="78.12" style="stroke: #000000"/>
     <use xlink:href="#meb8aa48a6f" x="633.886751" y="372.657599" style="stroke: #000000"/>
     <use xlink:href="#meb8aa48a6f" x="639.016115" y="372.657599" style="stroke: #000000"/>
     <use xlink:href="#meb8aa48a6f" x="643.985187" y="78.12" style="stroke: #000000"/>
     <use xlink:href="#meb8aa48a6f" x="648.954258" y="372.657599" style="stroke: #000000"/>
     <use xlink:href="#meb8aa48a6f" x="653.92333" y="78.12" style="stroke: #000000"/>
     <use xlink:href="#meb8aa48a6f" x="659.052694" y="372.657599" style="stroke: #000000"/>
     <use xlink:href="#meb8aa48a6f" x="664.021765" y="372.657599" style="stroke: #000000"/>
     <use xlink:href="#meb8aa48a6f" x="668.990836" y="78.12" style="stroke: #000000"/>
     <use xlink:href="#meb8aa48a6f" x="673.959908" y="372.657599" style="stroke: #000000"/>
     <use xlink:href="#meb8aa48a6f" x="679.089272" y="372.657599" style="stroke: #000000"/>
     <use xlink:href="#meb8aa48a6f" x="684.058343" y="78.12" style="stroke: #000000"/>
     <use xlink:href="#meb8aa48a6f" x="689.027414" y="372.657599" style="stroke: #000000"/>
     <use xlink:href="#meb8aa48a6f" x="693.996486" y="78.12" style="stroke: #000000"/>
     <use xlink:href="#meb8aa48a6f" x="699.12585" y="372.657599" style="stroke: #000000"/>
     <use xlink:href="#meb8aa48a6f" x="704.094921" y="372.657599" style="stroke: #000000"/>
     <use xlink:href="#meb8aa48a6f" x="709.063993" y="78.12" style="stroke: #000000"/>
     <use xlink:href="#meb8aa48a6f" x="714.033064" y="372.657599" style="stroke: #000000"/>
     <use xlink:href="#meb8aa48a6f" x="719.162428" y="372.657599" style="stroke: #000000"/>
     <use xlink:href="#meb8aa48a6f" x="724.131499" y="78.12" style="stroke: #000000"/>
     <use xlink:href="#meb8aa48a6f" x="729.100571" y="372.657599" style="stroke: #000000"/>
     <use xlink:href="#meb8aa48a6f" x="734.069642" y="78.12" style="stroke: #000000"/>
     <use xlink:href="#meb8aa48a6f" x="739.199006" y="372.657599" style="stroke: #000000"/>
     <use xlink:href="#meb8aa48a6f" x="744.168077" y="372.657599" style="stroke: #000000"/>
     <use xlink:href="#meb8aa48a6f" x="749.137149" y="78.12" style="stroke: #000000"/>
     <use xlink:href="#meb8aa48a6f" x="754.10622" y="372.657599" style="stroke: #000000"/>
     <use xlink:href="#meb8aa48a6f" x="759.235584" y="372.657599" style="stroke: #000000"/>
     <use xlink:href="#meb8aa48a6f" x="764.204656" y="78.12" style="stroke: #000000"/>
     <use xlink:href="#meb8aa48a6f" x="769.173727" y="372.657599" style="stroke: #000000"/>
     <use xlink:href="#meb8aa48a6f" x="774.142798" y="78.12" style="stroke: #000000"/>
     <use xlink:href="#meb8aa48a6f" x="779.272162" y="372.657599" style="stroke: #000000"/>
     <use xlink:href="#meb8aa48a6f" x="784.241234" y="372.657599" style="stroke: #000000"/>
     <use xlink:href="#meb8aa48a6f" x="789.210305" y="78.12" style="stroke: #000000"/>
     <use xlink:href="#meb8aa48a6f" x="794.179376" y="372.657599" style="stroke: #000000"/>
     <use xlink:href="#meb8aa48a6f" x="799.30874" y="372.657599" style="stroke: #000000"/>
     <use xlink:href="#meb8aa48a6f" x="804.277812" y="78.12" style="stroke: #000000"/>
     <use xlink:href="#meb8aa48a6f" x="809.246883" y="372.657599" style="stroke: #000000"/>
     <use xlink:href="#meb8aa48a6f" x="814.215955" y="78.12" style="stroke: #000000"/>
     <use xlink:href="#meb8aa48a6f" x="819.345319" y="372.657599" style="stroke: #000000"/>
     <use xlink:href="#meb8aa48a6f" x="824.31439" y="372.657599" style="stroke: #000000"/>
     <use xlink:href="#meb8aa48a6f" x="829.283461" y="78.12" style="stroke: #000000"/>
     <use xlink:href="#meb8aa48a6f" x="834.252533" y="372.657599" style="stroke: #000000"/>
     <use xlink:href="#meb8aa48a6f" x="839.381897" y="372.657599" style="stroke: #000000"/>
     <use xlink:href="#meb8aa48a6f" x="844.350968" y="78.12" style="stroke: #000000"/>
     <use xlink:href="#meb8aa48a6f" x="849.320039" y="372.657599" style="stroke: #000000"/>
     <use xlink:href="#meb8aa48a6f" x="854.289111" y="78.12" style="stroke: #000000"/>
     <use xlink:href="#meb8aa48a6f" x="859.418475" y="372.657599" style="stroke: #000000"/>
     <use xlink:href="#meb8aa48a6f" x="864.387546" y="372.657599" style="stroke: #000000"/>
     <use xlink:href="#meb8aa48a6f" x="869.356618" y="78.12" style="stroke: #000000"/>
     <use xlink:href="#meb8aa48a6f" x="874.325689" y="372.657599" style="stroke: #000000"/>
     <use xlink:href="#meb8aa48a6f" x="879.455053" y="372.657599" style="stroke: #000000"/>
     <use xlink:href="#meb8aa48a6f" x="884.424124" y="78.12" style="stroke: #000000"/>
     <use xlink:href="#meb8aa48a6f" x="889.393196" y="372.657599" style="stroke: #000000"/>
     <use xlink:href="#meb8aa48a6f" x="894.362267" y="78.12" style="stroke: #000000"/>
     <use xlink:href="#meb8aa48a6f" x="899.491631" y="372.657599" style="stroke: #000000"/>
     <use xlink:href="#meb8aa48a6f" x="904.460702" y="372.657599" style="stroke: #000000"/>
     <use xlink:href="#meb8aa48a6f" x="909.429774" y="78.12" style="stroke: #000000"/>
     <use xlink:href="#meb8aa48a6f" x="914.398845" y="372.657599" style="stroke: #000000"/>
     <use xlink:href="#meb8aa48a6f" x="919.528209" y="372.657599" style="stroke: #000000"/>
     <use xlink:href="#meb8aa48a6f" x="924.497281" y="78.12" style="stroke: #000000"/>
     <use xlink:href="#meb8aa48a6f" x="929.466352" y="372.657599" style="stroke: #000000"/>
    </g>
   </g>
   <g id="patch_3">
    <path d="M 135 448.56 
L 135 60.48 
" style="fill: none; stroke: #000000; stroke-width: 0.8; stroke-linejoin: miter; stroke-linecap: square"/>
   </g>
   <g id="patch_4">
    <path d="M 972 448.56 
L 972 60.48 
" style="fill: none; stroke: #000000; stroke-width: 0.8; stroke-linejoin: miter; stroke-linecap: square"/>
   </g>
   <g id="patch_5">
    <path d="M 135 448.56 
L 972 448.56 
" style="fill: none; stroke: #000000; stroke-width: 0.8; stroke-linejoin: miter; stroke-linecap: square"/>
   </g>
   <g id="patch_6">
    <path d="M 135 60.48 
L 972 60.48 
" style="fill: none; stroke: #000000; stroke-width: 0.8; stroke-linejoin: miter; stroke-linecap: square"/>
   </g>
   <g id="legend_1">
    <g id="patch_7">
     <path d="M 895.915625 443.56 
L 965 443.56 
Q 967 443.56 967 441.56 
L 967 397.969375 
Q 967 395.969375 965 395.969375 
L 895.915625 395.969375 
Q 893.915625 395.969375 893.915625 397.969375 
L 893.915625 441.56 
Q 893.915625 443.56 895.915625 443.56 
z
" style="fill: #ffffff; opacity: 0.8; stroke: #cccccc; stroke-linejoin: miter"/>
    </g>
    <g id="line2d_16">
     <path d="M 897.915625 404.067813 
L 907.915625 404.067813 
L 917.915625 404.067813 
" style="fill: none; stroke: #1f77b4; stroke-width: 1.5; stroke-linecap: square"/>
    </g>
    <g id="text_14">
     <!-- nw_0 -->
     <g transform="translate(925.915625 407.567813) scale(0.1 -0.1)">
      <defs>
       <path id="DejaVuSans-6e" d="M 3513 2113 
L 3513 0 
L 2938 0 
L 2938 2094 
Q 2938 2591 2744 2837 
Q 2550 3084 2163 3084 
Q 1697 3084 1428 2787 
Q 1159 2491 1159 1978 
L 1159 0 
L 581 0 
L 581 3500 
L 1159 3500 
L 1159 2956 
Q 1366 3272 1645 3428 
Q 1925 3584 2291 3584 
Q 2894 3584 3203 3211 
Q 3513 2838 3513 2113 
z
" transform="scale(0.015625)"/>
       <path id="DejaVuSans-77" d="M 269 3500 
L 844 3500 
L 1563 769 
L 2278 3500 
L 2956 3500 
L 3675 769 
L 4391 3500 
L 4966 3500 
L 4050 0 
L 3372 0 
L 2619 2869 
L 1863 0 
L 1184 0 
L 269 3500 
z
" transform="scale(0.015625)"/>
       <path id="DejaVuSans-5f" d="M 3263 -1063 
L 3263 -1509 
L -63 -1509 
L -63 -1063 
L 3263 -1063 
z
" transform="scale(0.015625)"/>
      </defs>
      <use xlink:href="#DejaVuSans-6e"/>
      <use xlink:href="#DejaVuSans-77" x="63.378906"/>
      <use xlink:href="#DejaVuSans-5f" x="145.166016"/>
      <use xlink:href="#DejaVuSans-30" x="195.166016"/>
     </g>
    </g>
    <g id="line2d_17">
     <path d="M 897.915625 419.024063 
L 907.915625 419.024063 
L 917.915625 419.024063 
" style="fill: none; stroke: #ff7f0e; stroke-width: 1.5; stroke-linecap: square"/>
    </g>
    <g id="text_15">
     <!-- input_0 -->
     <g transform="translate(925.915625 422.524063) scale(0.1 -0.1)">
      <defs>
       <path id="DejaVuSans-69" d="M 603 3500 
L 1178 3500 
L 1178 0 
L 603 0 
L 603 3500 
z
M 603 4863 
L 1178 4863 
L 1178 4134 
L 603 4134 
L 603 4863 
z
" transform="scale(0.015625)"/>
       <path id="DejaVuSans-70" d="M 1159 525 
L 1159 -1331 
L 581 -1331 
L 581 3500 
L 1159 3500 
L 1159 2969 
Q 1341 3281 1617 3432 
Q 1894 3584 2278 3584 
Q 2916 3584 3314 3078 
Q 3713 2572 3713 1747 
Q 3713 922 3314 415 
Q 2916 -91 2278 -91 
Q 1894 -91 1617 61 
Q 1341 213 1159 525 
z
M 3116 1747 
Q 3116 2381 2855 2742 
Q 2594 3103 2138 3103 
Q 1681 3103 1420 2742 
Q 1159 2381 1159 1747 
Q 1159 1113 1420 752 
Q 1681 391 2138 391 
Q 2594 391 2855 752 
Q 3116 1113 3116 1747 
z
" transform="scale(0.015625)"/>
       <path id="DejaVuSans-75" d="M 544 1381 
L 544 3500 
L 1119 3500 
L 1119 1403 
Q 1119 906 1312 657 
Q 1506 409 1894 409 
Q 2359 409 2629 706 
Q 2900 1003 2900 1516 
L 2900 3500 
L 3475 3500 
L 3475 0 
L 2900 0 
L 2900 538 
Q 2691 219 2414 64 
Q 2138 -91 1772 -91 
Q 1169 -91 856 284 
Q 544 659 544 1381 
z
M 1991 3584 
L 1991 3584 
z
" transform="scale(0.015625)"/>
      </defs>
      <use xlink:href="#DejaVuSans-69"/>
      <use xlink:href="#DejaVuSans-6e" x="27.783203"/>
      <use xlink:href="#DejaVuSans-70" x="91.162109"/>
      <use xlink:href="#DejaVuSans-75" x="154.638672"/>
      <use xlink:href="#DejaVuSans-74" x="218.017578"/>
      <use xlink:href="#DejaVuSans-5f" x="257.226562"/>
      <use xlink:href="#DejaVuSans-30" x="307.226562"/>
     </g>
    </g>
    <g id="line2d_18">
     <path d="M 897.915625 433.980312 
L 907.915625 433.980312 
L 917.915625 433.980312 
" style="fill: none; stroke: #000000; stroke-width: 1.5; stroke-linecap: square"/>
     <g>
      <use xlink:href="#meb8aa48a6f" x="907.915625" y="433.980312" style="stroke: #000000"/>
     </g>
    </g>
    <g id="text_16">
     <!-- target -->
     <g transform="translate(925.915625 437.480312) scale(0.1 -0.1)">
      <defs>
       <path id="DejaVuSans-61" d="M 2194 1759 
Q 1497 1759 1228 1600 
Q 959 1441 959 1056 
Q 959 750 1161 570 
Q 1363 391 1709 391 
Q 2188 391 2477 730 
Q 2766 1069 2766 1631 
L 2766 1759 
L 2194 1759 
z
M 3341 1997 
L 3341 0 
L 2766 0 
L 2766 531 
Q 2569 213 2275 61 
Q 1981 -91 1556 -91 
Q 1019 -91 701 211 
Q 384 513 384 1019 
Q 384 1609 779 1909 
Q 1175 2209 1959 2209 
L 2766 2209 
L 2766 2266 
Q 2766 2663 2505 2880 
Q 2244 3097 1772 3097 
Q 1472 3097 1187 3025 
Q 903 2953 641 2809 
L 641 3341 
Q 956 3463 1253 3523 
Q 1550 3584 1831 3584 
Q 2591 3584 2966 3190 
Q 3341 2797 3341 1997 
z
" transform="scale(0.015625)"/>
       <path id="DejaVuSans-72" d="M 2631 2963 
Q 2534 3019 2420 3045 
Q 2306 3072 2169 3072 
Q 1681 3072 1420 2755 
Q 1159 2438 1159 1844 
L 1159 0 
L 581 0 
L 581 3500 
L 1159 3500 
L 1159 2956 
Q 1341 3275 1631 3429 
Q 1922 3584 2338 3584 
Q 2397 3584 2469 3576 
Q 2541 3569 2628 3553 
L 2631 2963 
z
" transform="scale(0.015625)"/>
       <path id="DejaVuSans-67" d="M 2906 1791 
Q 2906 2416 2648 2759 
Q 2391 3103 1925 3103 
Q 1463 3103 1205 2759 
Q 947 2416 947 1791 
Q 947 1169 1205 825 
Q 1463 481 1925 481 
Q 2391 481 2648 825 
Q 2906 1169 2906 1791 
z
M 3481 434 
Q 3481 -459 3084 -895 
Q 2688 -1331 1869 -1331 
Q 1566 -1331 1297 -1286 
Q 1028 -1241 775 -1147 
L 775 -588 
Q 1028 -725 1275 -790 
Q 1522 -856 1778 -856 
Q 2344 -856 2625 -561 
Q 2906 -266 2906 331 
L 2906 616 
Q 2728 306 2450 153 
Q 2172 0 1784 0 
Q 1141 0 747 490 
Q 353 981 353 1791 
Q 353 2603 747 3093 
Q 1141 3584 1784 3584 
Q 2172 3584 2450 3431 
Q 2728 3278 2906 2969 
L 2906 3500 
L 3481 3500 
L 3481 434 
z
" transform="scale(0.015625)"/>
       <path id="DejaVuSans-65" d="M 3597 1894 
L 3597 1613 
L 953 1613 
Q 991 1019 1311 708 
Q 1631 397 2203 397 
Q 2534 397 2845 478 
Q 3156 559 3463 722 
L 3463 178 
Q 3153 47 2828 -22 
Q 2503 -91 2169 -91 
Q 1331 -91 842 396 
Q 353 884 353 1716 
Q 353 2575 817 3079 
Q 1281 3584 2069 3584 
Q 2775 3584 3186 3129 
Q 3597 2675 3597 1894 
z
M 3022 2063 
Q 3016 2534 2758 2815 
Q 2500 3097 2075 3097 
Q 1594 3097 1305 2825 
Q 1016 2553 972 2059 
L 3022 2063 
z
" transform="scale(0.015625)"/>
      </defs>
      <use xlink:href="#DejaVuSans-74"/>
      <use xlink:href="#DejaVuSans-61" x="39.208984"/>
      <use xlink:href="#DejaVuSans-72" x="100.488281"/>
      <use xlink:href="#DejaVuSans-67" x="139.851562"/>
      <use xlink:href="#DejaVuSans-65" x="203.328125"/>
      <use xlink:href="#DejaVuSans-74" x="264.851562"/>
     </g>
    </g>
   </g>
  </g>
 </g>
 <defs>
  <clipPath id="p4c5b5723ce">
   <rect x="135" y="60.48" width="837" height="388.08"/>
  </clipPath>
 </defs>
</svg>
