<?xml version="1.0" encoding="utf-8" standalone="no"?>
<!DOCTYPE svg PUBLIC "-//W3C//DTD SVG 1.1//EN"
  "http://www.w3.org/Graphics/SVG/1.1/DTD/svg11.dtd">
<svg xmlns:xlink="http://www.w3.org/1999/xlink" width="1080pt" height="504pt" viewBox="0 0 1080 504" xmlns="http://www.w3.org/2000/svg" version="1.1">
 <metadata>
  <rdf:RDF xmlns:dc="http://purl.org/dc/elements/1.1/" xmlns:cc="http://creativecommons.org/ns#" xmlns:rdf="http://www.w3.org/1999/02/22-rdf-syntax-ns#">
   <cc:Work>
    <dc:type rdf:resource="http://purl.org/dc/dcmitype/StillImage"/>
    <dc:date>2024-05-09T11:11:18.185539</dc:date>
    <dc:format>image/svg+xml</dc:format>
    <dc:creator>
     <cc:Agent>
      <dc:title>Matplotlib v3.7.1, https://matplotlib.org/</dc:title>
     </cc:Agent>
    </dc:creator>
   </cc:Work>
  </rdf:RDF>
 </metadata>
 <defs>
  <style type="text/css">*{stroke-linejoin: round; stroke-linecap: butt}</style>
 </defs>
 <g id="figure_1">
  <g id="patch_1">
   <path d="M 0 504 
L 1080 504 
L 1080 0 
L 0 0 
z
" style="fill: #ffffff"/>
  </g>
  <g id="axes_1">
   <g id="patch_2">
    <path d="M 135 448.56 
L 972 448.56 
L 972 60.48 
L 135 60.48 
z
" style="fill: #ffffff"/>
   </g>
   <g id="matplotlib.axis_1">
    <g id="xtick_1">
     <g id="line2d_1">
      <defs>
       <path id="m749e95ed05" d="M 0 0 
L 0 3.5 
" style="stroke: #000000; stroke-width: 0.8"/>
      </defs>
      <g>
       <use xlink:href="#m749e95ed05" x="173.045455" y="448.56" style="stroke: #000000; stroke-width: 0.8"/>
      </g>
     </g>
     <g id="text_1">
      <!-- 0 -->
      <g transform="translate(169.864205 463.158437) scale(0.1 -0.1)">
       <defs>
        <path id="DejaVuSans-30" d="M 2034 4250 
Q 1547 4250 1301 3770 
Q 1056 3291 1056 2328 
Q 1056 1369 1301 889 
Q 1547 409 2034 409 
Q 2525 409 2770 889 
Q 3016 1369 3016 2328 
Q 3016 3291 2770 3770 
Q 2525 4250 2034 4250 
z
M 2034 4750 
Q 2819 4750 3233 4129 
Q 3647 3509 3647 2328 
Q 3647 1150 3233 529 
Q 2819 -91 2034 -91 
Q 1250 -91 836 529 
Q 422 1150 422 2328 
Q 422 3509 836 4129 
Q 1250 4750 2034 4750 
z
" transform="scale(0.015625)"/>
       </defs>
       <use xlink:href="#DejaVuSans-30"/>
      </g>
     </g>
    </g>
    <g id="xtick_2">
     <g id="line2d_2">
      <g>
       <use xlink:href="#m749e95ed05" x="333.33808" y="448.56" style="stroke: #000000; stroke-width: 0.8"/>
      </g>
     </g>
     <g id="text_2">
      <!-- 1000 -->
      <g transform="translate(320.61308 463.158437) scale(0.1 -0.1)">
       <defs>
        <path id="DejaVuSans-31" d="M 794 531 
L 1825 531 
L 1825 4091 
L 703 3866 
L 703 4441 
L 1819 4666 
L 2450 4666 
L 2450 531 
L 3481 531 
L 3481 0 
L 794 0 
L 794 531 
z
" transform="scale(0.015625)"/>
       </defs>
       <use xlink:href="#DejaVuSans-31"/>
       <use xlink:href="#DejaVuSans-30" x="63.623047"/>
       <use xlink:href="#DejaVuSans-30" x="127.246094"/>
       <use xlink:href="#DejaVuSans-30" x="190.869141"/>
      </g>
     </g>
    </g>
    <g id="xtick_3">
     <g id="line2d_3">
      <g>
       <use xlink:href="#m749e95ed05" x="493.630705" y="448.56" style="stroke: #000000; stroke-width: 0.8"/>
      </g>
     </g>
     <g id="text_3">
      <!-- 2000 -->
      <g transform="translate(480.905705 463.158437) scale(0.1 -0.1)">
       <defs>
        <path id="DejaVuSans-32" d="M 1228 531 
L 3431 531 
L 3431 0 
L 469 0 
L 469 531 
Q 828 903 1448 1529 
Q 2069 2156 2228 2338 
Q 2531 2678 2651 2914 
Q 2772 3150 2772 3378 
Q 2772 3750 2511 3984 
Q 2250 4219 1831 4219 
Q 1534 4219 1204 4116 
Q 875 4013 500 3803 
L 500 4441 
Q 881 4594 1212 4672 
Q 1544 4750 1819 4750 
Q 2544 4750 2975 4387 
Q 3406 4025 3406 3419 
Q 3406 3131 3298 2873 
Q 3191 2616 2906 2266 
Q 2828 2175 2409 1742 
Q 1991 1309 1228 531 
z
" transform="scale(0.015625)"/>
       </defs>
       <use xlink:href="#DejaVuSans-32"/>
       <use xlink:href="#DejaVuSans-30" x="63.623047"/>
       <use xlink:href="#DejaVuSans-30" x="127.246094"/>
       <use xlink:href="#DejaVuSans-30" x="190.869141"/>
      </g>
     </g>
    </g>
    <g id="xtick_4">
     <g id="line2d_4">
      <g>
       <use xlink:href="#m749e95ed05" x="653.92333" y="448.56" style="stroke: #000000; stroke-width: 0.8"/>
      </g>
     </g>
     <g id="text_4">
      <!-- 3000 -->
      <g transform="translate(641.19833 463.158437) scale(0.1 -0.1)">
       <defs>
        <path id="DejaVuSans-33" d="M 2597 2516 
Q 3050 2419 3304 2112 
Q 3559 1806 3559 1356 
Q 3559 666 3084 287 
Q 2609 -91 1734 -91 
Q 1441 -91 1130 -33 
Q 819 25 488 141 
L 488 750 
Q 750 597 1062 519 
Q 1375 441 1716 441 
Q 2309 441 2620 675 
Q 2931 909 2931 1356 
Q 2931 1769 2642 2001 
Q 2353 2234 1838 2234 
L 1294 2234 
L 1294 2753 
L 1863 2753 
Q 2328 2753 2575 2939 
Q 2822 3125 2822 3475 
Q 2822 3834 2567 4026 
Q 2313 4219 1838 4219 
Q 1578 4219 1281 4162 
Q 984 4106 628 3988 
L 628 4550 
Q 988 4650 1302 4700 
Q 1616 4750 1894 4750 
Q 2613 4750 3031 4423 
Q 3450 4097 3450 3541 
Q 3450 3153 3228 2886 
Q 3006 2619 2597 2516 
z
" transform="scale(0.015625)"/>
       </defs>
       <use xlink:href="#DejaVuSans-33"/>
       <use xlink:href="#DejaVuSans-30" x="63.623047"/>
       <use xlink:href="#DejaVuSans-30" x="127.246094"/>
       <use xlink:href="#DejaVuSans-30" x="190.869141"/>
      </g>
     </g>
    </g>
    <g id="xtick_5">
     <g id="line2d_5">
      <g>
       <use xlink:href="#m749e95ed05" x="814.215955" y="448.56" style="stroke: #000000; stroke-width: 0.8"/>
      </g>
     </g>
     <g id="text_5">
      <!-- 4000 -->
      <g transform="translate(801.490955 463.158437) scale(0.1 -0.1)">
       <defs>
        <path id="DejaVuSans-34" d="M 2419 4116 
L 825 1625 
L 2419 1625 
L 2419 4116 
z
M 2253 4666 
L 3047 4666 
L 3047 1625 
L 3713 1625 
L 3713 1100 
L 3047 1100 
L 3047 0 
L 2419 0 
L 2419 1100 
L 313 1100 
L 313 1709 
L 2253 4666 
z
" transform="scale(0.015625)"/>
       </defs>
       <use xlink:href="#DejaVuSans-34"/>
       <use xlink:href="#DejaVuSans-30" x="63.623047"/>
       <use xlink:href="#DejaVuSans-30" x="127.246094"/>
       <use xlink:href="#DejaVuSans-30" x="190.869141"/>
      </g>
     </g>
    </g>
    <g id="text_6">
     <!-- t -->
     <g transform="translate(551.539844 476.836563) scale(0.1 -0.1)">
      <defs>
       <path id="DejaVuSans-74" d="M 1172 4494 
L 1172 3500 
L 2356 3500 
L 2356 3053 
L 1172 3053 
L 1172 1153 
Q 1172 725 1289 603 
Q 1406 481 1766 481 
L 2356 481 
L 2356 0 
L 1766 0 
Q 1100 0 847 248 
Q 594 497 594 1153 
L 594 3053 
L 172 3053 
L 172 3500 
L 594 3500 
L 594 4494 
L 1172 4494 
z
" transform="scale(0.015625)"/>
      </defs>
      <use xlink:href="#DejaVuSans-74"/>
     </g>
    </g>
   </g>
   <g id="matplotlib.axis_2">
    <g id="ytick_1">
     <g id="line2d_6">
      <defs>
       <path id="m2be5b1db92" d="M 0 0 
L -3.5 0 
" style="stroke: #000000; stroke-width: 0.8"/>
      </defs>
      <g>
       <use xlink:href="#m2be5b1db92" x="135" y="431.75163" style="stroke: #000000; stroke-width: 0.8"/>
      </g>
     </g>
     <g id="text_7">
      <!-- −0.2 -->
      <g transform="translate(103.717187 435.550849) scale(0.1 -0.1)">
       <defs>
        <path id="DejaVuSans-2212" d="M 678 2272 
L 4684 2272 
L 4684 1741 
L 678 1741 
L 678 2272 
z
" transform="scale(0.015625)"/>
        <path id="DejaVuSans-2e" d="M 684 794 
L 1344 794 
L 1344 0 
L 684 0 
L 684 794 
z
" transform="scale(0.015625)"/>
       </defs>
       <use xlink:href="#DejaVuSans-2212"/>
       <use xlink:href="#DejaVuSans-30" x="83.789062"/>
       <use xlink:href="#DejaVuSans-2e" x="147.412109"/>
       <use xlink:href="#DejaVuSans-32" x="179.199219"/>
      </g>
     </g>
    </g>
    <g id="ytick_2">
     <g id="line2d_7">
      <g>
       <use xlink:href="#m2be5b1db92" x="135" y="378.077329" style="stroke: #000000; stroke-width: 0.8"/>
      </g>
     </g>
     <g id="text_8">
      <!-- 0.0 -->
      <g transform="translate(112.096875 381.876548) scale(0.1 -0.1)">
       <use xlink:href="#DejaVuSans-30"/>
       <use xlink:href="#DejaVuSans-2e" x="63.623047"/>
       <use xlink:href="#DejaVuSans-30" x="95.410156"/>
      </g>
     </g>
    </g>
    <g id="ytick_3">
     <g id="line2d_8">
      <g>
       <use xlink:href="#m2be5b1db92" x="135" y="324.403028" style="stroke: #000000; stroke-width: 0.8"/>
      </g>
     </g>
     <g id="text_9">
      <!-- 0.2 -->
      <g transform="translate(112.096875 328.202247) scale(0.1 -0.1)">
       <use xlink:href="#DejaVuSans-30"/>
       <use xlink:href="#DejaVuSans-2e" x="63.623047"/>
       <use xlink:href="#DejaVuSans-32" x="95.410156"/>
      </g>
     </g>
    </g>
    <g id="ytick_4">
     <g id="line2d_9">
      <g>
       <use xlink:href="#m2be5b1db92" x="135" y="270.728727" style="stroke: #000000; stroke-width: 0.8"/>
      </g>
     </g>
     <g id="text_10">
      <!-- 0.4 -->
      <g transform="translate(112.096875 274.527946) scale(0.1 -0.1)">
       <use xlink:href="#DejaVuSans-30"/>
       <use xlink:href="#DejaVuSans-2e" x="63.623047"/>
       <use xlink:href="#DejaVuSans-34" x="95.410156"/>
      </g>
     </g>
    </g>
    <g id="ytick_5">
     <g id="line2d_10">
      <g>
       <use xlink:href="#m2be5b1db92" x="135" y="217.054426" style="stroke: #000000; stroke-width: 0.8"/>
      </g>
     </g>
     <g id="text_11">
      <!-- 0.6 -->
      <g transform="translate(112.096875 220.853644) scale(0.1 -0.1)">
       <defs>
        <path id="DejaVuSans-36" d="M 2113 2584 
Q 1688 2584 1439 2293 
Q 1191 2003 1191 1497 
Q 1191 994 1439 701 
Q 1688 409 2113 409 
Q 2538 409 2786 701 
Q 3034 994 3034 1497 
Q 3034 2003 2786 2293 
Q 2538 2584 2113 2584 
z
M 3366 4563 
L 3366 3988 
Q 3128 4100 2886 4159 
Q 2644 4219 2406 4219 
Q 1781 4219 1451 3797 
Q 1122 3375 1075 2522 
Q 1259 2794 1537 2939 
Q 1816 3084 2150 3084 
Q 2853 3084 3261 2657 
Q 3669 2231 3669 1497 
Q 3669 778 3244 343 
Q 2819 -91 2113 -91 
Q 1303 -91 875 529 
Q 447 1150 447 2328 
Q 447 3434 972 4092 
Q 1497 4750 2381 4750 
Q 2619 4750 2861 4703 
Q 3103 4656 3366 4563 
z
" transform="scale(0.015625)"/>
       </defs>
       <use xlink:href="#DejaVuSans-30"/>
       <use xlink:href="#DejaVuSans-2e" x="63.623047"/>
       <use xlink:href="#DejaVuSans-36" x="95.410156"/>
      </g>
     </g>
    </g>
    <g id="ytick_6">
     <g id="line2d_11">
      <g>
       <use xlink:href="#m2be5b1db92" x="135" y="163.380125" style="stroke: #000000; stroke-width: 0.8"/>
      </g>
     </g>
     <g id="text_12">
      <!-- 0.8 -->
      <g transform="translate(112.096875 167.179343) scale(0.1 -0.1)">
       <defs>
        <path id="DejaVuSans-38" d="M 2034 2216 
Q 1584 2216 1326 1975 
Q 1069 1734 1069 1313 
Q 1069 891 1326 650 
Q 1584 409 2034 409 
Q 2484 409 2743 651 
Q 3003 894 3003 1313 
Q 3003 1734 2745 1975 
Q 2488 2216 2034 2216 
z
M 1403 2484 
Q 997 2584 770 2862 
Q 544 3141 544 3541 
Q 544 4100 942 4425 
Q 1341 4750 2034 4750 
Q 2731 4750 3128 4425 
Q 3525 4100 3525 3541 
Q 3525 3141 3298 2862 
Q 3072 2584 2669 2484 
Q 3125 2378 3379 2068 
Q 3634 1759 3634 1313 
Q 3634 634 3220 271 
Q 2806 -91 2034 -91 
Q 1263 -91 848 271 
Q 434 634 434 1313 
Q 434 1759 690 2068 
Q 947 2378 1403 2484 
z
M 1172 3481 
Q 1172 3119 1398 2916 
Q 1625 2713 2034 2713 
Q 2441 2713 2670 2916 
Q 2900 3119 2900 3481 
Q 2900 3844 2670 4047 
Q 2441 4250 2034 4250 
Q 1625 4250 1398 4047 
Q 1172 3844 1172 3481 
z
" transform="scale(0.015625)"/>
       </defs>
       <use xlink:href="#DejaVuSans-30"/>
       <use xlink:href="#DejaVuSans-2e" x="63.623047"/>
       <use xlink:href="#DejaVuSans-38" x="95.410156"/>
      </g>
     </g>
    </g>
    <g id="ytick_7">
     <g id="line2d_12">
      <g>
       <use xlink:href="#m2be5b1db92" x="135" y="109.705823" style="stroke: #000000; stroke-width: 0.8"/>
      </g>
     </g>
     <g id="text_13">
      <!-- 1.0 -->
      <g transform="translate(112.096875 113.505042) scale(0.1 -0.1)">
       <use xlink:href="#DejaVuSans-31"/>
       <use xlink:href="#DejaVuSans-2e" x="63.623047"/>
       <use xlink:href="#DejaVuSans-30" x="95.410156"/>
      </g>
     </g>
    </g>
   </g>
   <g id="line2d_13">
    <path d="M 173.045455 275.651456 
L 173.36604 163.930544 
L 173.686625 126.792712 
L 173.846918 123.489926 
L 174.00721 125.928214 
L 174.327796 139.565467 
L 175.129259 176.005184 
L 175.449844 183.515516 
L 175.770429 186.580782 
L 175.930722 186.656532 
L 176.091014 185.892399 
L 176.4116 182.222099 
L 176.892478 172.537235 
L 177.533648 153.960189 
L 177.693941 148.478204 
L 178.014526 295.992492 
L 178.335111 366.519853 
L 178.655696 392.906212 
L 178.815989 396.604374 
L 178.976282 396.626695 
L 179.296867 391.10743 
L 179.777745 381.552892 
L 180.09833 379.237608 
L 180.258623 379.699718 
L 180.579208 383.666239 
L 181.060086 395.290813 
L 182.182134 425.612021 
L 182.502719 429.908095 
L 182.663012 430.84893 
L 182.823305 430.92 
L 182.983597 430.092997 
L 183.304183 425.706611 
L 183.624768 417.747685 
L 184.105646 399.687595 
L 184.746816 366.504632 
L 187.471791 209.524729 
L 188.112961 188.767118 
L 188.593839 179.688175 
L 188.914424 176.738941 
L 189.074717 176.170212 
L 189.23501 176.186684 
L 189.395302 176.770736 
L 189.715888 179.55843 
L 190.196765 187.420998 
L 190.837936 203.576418 
L 191.799692 235.823415 
L 194.043788 314.349892 
L 194.845252 334.396171 
L 195.486422 345.671526 
L 195.9673 351.229873 
L 196.448178 354.362026 
L 196.768763 355.171076 
L 196.929056 355.213466 
L 197.089348 355.025805 
L 197.409934 353.998264 
L 197.890811 350.982088 
L 198.531982 344.681639 
L 199.333445 334.216011 
L 202.379005 291.301609 
L 203.180468 283.784248 
L 203.821639 279.617281 
L 204.302516 277.60669 
L 204.783394 276.538105 
L 205.10398 276.331132 
L 205.424565 276.510113 
L 205.74515 277.055555 
L 206.226028 278.511651 
L 206.867198 281.511638 
L 207.668662 286.655852 
L 208.79071 295.675677 
L 213.278903 334.317521 
L 213.599489 166.478746 
L 213.920074 100.89231 
L 214.080367 90.045212 
L 214.240659 87.970524 
L 214.400952 91.601248 
L 214.88183 117.036141 
L 215.523 149.297666 
L 216.003878 161.787365 
L 216.324463 164.719227 
L 216.484756 164.841758 
L 216.645049 164.198084 
L 216.965634 160.95794 
L 217.446512 152.232067 
L 218.087682 135.096358 
L 218.408267 283.678851 
L 218.728853 355.33698 
L 219.049438 382.846016 
L 219.209731 387.087758 
L 219.370023 387.636668 
L 219.690608 383.110314 
L 220.171486 374.878404 
L 220.331779 373.585999 
L 220.492072 373.332118 
L 220.652364 374.146154 
L 220.972949 378.754776 
L 221.453827 391.199359 
L 222.575876 422.86179 
L 222.896461 427.414124 
L 223.056754 428.464198 
L 223.217046 428.632433 
L 223.377339 427.890897 
L 223.697924 423.64182 
L 224.018509 415.777792 
L 224.499387 397.786993 
L 225.140558 364.576363 
L 227.865532 206.568488 
L 228.506703 185.508209 
L 228.987581 176.219046 
L 229.308166 173.141868 
L 229.468459 172.513526 
L 229.628751 172.473557 
L 229.789044 173.004511 
L 230.109629 175.696645 
L 230.590507 183.444206 
L 231.231677 199.502169 
L 232.193433 231.724078 
L 234.43753 310.676671 
L 235.238993 330.990009 
L 235.880164 342.502487 
L 236.361041 348.2465 
L 236.841919 351.567192 
L 237.162505 352.501991 
L 237.322797 352.606958 
L 237.48309 352.481545 
L 237.803675 351.577157 
L 238.12426 349.869283 
L 238.605138 345.993551 
L 239.246309 338.864955 
L 240.368357 323.135678 
L 242.291869 295.81772 
L 243.253624 285.546396 
L 243.894795 280.629251 
L 244.535965 277.384551 
L 245.016843 276.05206 
L 245.337428 275.673647 
L 245.658014 275.687245 
L 245.978599 276.075144 
L 246.299184 276.816639 
L 246.780062 278.540681 
L 247.421233 281.846073 
L 248.222696 287.286391 
L 249.344744 296.566977 
L 253.512352 332.756359 
L 253.99323 336.153127 
L 254.313815 168.193312 
L 254.634401 102.488356 
L 254.794693 91.58278 
L 254.954986 89.450163 
L 255.115279 93.023572 
L 255.596156 118.291045 
L 256.237327 150.343234 
L 256.718205 162.688926 
L 257.03879 165.531682 
L 257.199083 165.6118 
L 257.359375 164.927154 
L 257.679961 161.609374 
L 258.160838 152.777624 
L 258.802009 135.519458 
L 259.122594 284.04809 
L 259.443179 355.654718 
L 259.763765 383.115607 
L 259.924057 387.334717 
L 260.08435 387.862008 
L 260.404935 383.295497 
L 260.885813 375.010914 
L 261.046106 373.702876 
L 261.206398 373.434273 
L 261.366691 374.234464 
L 261.687276 378.817891 
L 262.168154 391.230426 
L 263.290202 422.840917 
L 263.610788 427.383441 
L 263.77108 428.429349 
L 263.931373 428.593889 
L 264.091666 427.849111 
L 264.412251 423.594843 
L 264.732836 415.727242 
L 265.213714 397.733839 
L 265.854884 364.524214 
L 268.579859 206.555291 
L 269.22103 185.507257 
L 269.701907 176.227038 
L 270.022493 173.155579 
L 270.182785 172.530001 
L 270.343078 172.492723 
L 270.503371 173.026292 
L 270.823956 175.723401 
L 271.304834 183.477729 
L 271.946004 199.543302 
L 272.90776 231.773448 
L 275.151857 310.731637 
L 275.95332 331.043374 
L 276.59449 342.553655 
L 277.075368 348.295623 
L 277.556246 351.61402 
L 277.876831 352.54719 
L 278.037124 352.651319 
L 278.197417 352.525057 
L 278.518002 351.618946 
L 278.838587 349.90933 
L 279.319465 346.030981 
L 279.960635 338.898962 
L 281.082684 323.1641 
L 283.006195 295.838383 
L 283.967951 285.564129 
L 284.609122 280.64536 
L 285.250292 277.399274 
L 285.73117 276.065883 
L 286.051755 275.686931 
L 286.37234 275.700032 
L 286.692926 276.087476 
L 287.013511 276.828554 
L 287.494389 278.552032 
L 288.135559 281.856771 
L 288.937022 287.296401 
L 290.059071 296.576197 
L 293.585509 327.87236 
L 293.906094 160.39772 
L 294.226679 95.167329 
L 294.386972 84.496693 
L 294.547264 82.597673 
L 294.707557 86.403238 
L 295.188435 112.355848 
L 295.829605 145.281643 
L 296.310483 158.240575 
L 296.631068 161.468356 
L 296.791361 161.733365 
L 296.951654 161.2284 
L 297.272239 158.254169 
L 297.753117 149.898249 
L 298.394287 133.203174 
L 298.714873 281.970662 
L 299.035458 353.810282 
L 299.356043 381.49247 
L 299.516336 385.816699 
L 299.676628 386.445063 
L 299.836921 384.826977 
L 300.638384 372.803912 
L 300.798677 372.60735 
L 300.958969 373.475791 
L 301.279555 378.184875 
L 301.760432 390.760728 
L 302.882481 422.650455 
L 303.203066 427.24982 
L 303.363359 428.3207 
L 303.523651 428.507999 
L 303.683944 427.783832 
L 304.004529 423.564599 
L 304.325114 415.724201 
L 304.805992 397.758042 
L 305.447163 364.562224 
L 308.33243 200.291398 
L 308.973601 181.636712 
L 309.454478 174.199363 
L 309.775064 172.322601 
L 309.935356 172.274413 
L 310.095649 172.797402 
L 310.416234 175.474454 
L 310.897112 183.201795 
L 311.538283 199.237856 
L 312.500038 231.438607 
L 314.744135 310.39291 
L 315.545598 330.720289 
L 316.186769 342.247291 
L 316.667647 348.003554 
L 317.148524 351.337283 
L 317.46911 352.281056 
L 317.629402 352.390561 
L 317.789695 352.269708 
L 318.11028 351.374467 
L 318.430865 349.675716 
L 318.911743 345.813485 
L 319.552914 338.702268 
L 320.674962 323.000792 
L 322.598474 295.720544 
L 323.560229 285.463187 
L 324.2014 280.553708 
L 324.84257 277.315501 
L 325.323448 275.987192 
L 325.644034 275.611274 
L 325.964619 275.627152 
L 326.285204 276.017136 
L 326.605789 276.760536 
L 327.086667 278.487137 
L 327.727838 281.795463 
L 328.529301 287.238839 
L 329.651349 296.522906 
L 333.818957 332.721982 
L 334.139543 164.972926 
L 334.460128 99.472188 
L 334.620421 88.667078 
L 334.780713 86.633983 
L 334.941006 90.305966 
L 335.421884 115.862684 
L 336.063054 148.280751 
L 336.543932 160.881666 
L 336.864517 163.884057 
L 337.02481 164.040673 
L 337.185103 163.430271 
L 337.505688 160.254178 
L 337.986566 151.618097 
L 338.627736 134.590625 
L 338.948321 283.216728 
L 339.268907 354.918614 
L 339.589492 382.469985 
L 339.749785 386.73204 
L 339.910077 387.300586 
L 340.230662 382.811289 
L 340.71154 374.629191 
L 340.871833 373.351866 
L 341.032126 373.11233 
L 341.192418 373.939995 
L 341.513003 378.573827 
L 341.993881 391.051447 
L 343.11593 422.771509 
L 343.436515 427.335889 
L 343.596808 428.391314 
L 343.7571 428.564469 
L 343.917393 427.827431 
L 344.237978 423.586132 
L 344.558563 415.72833 
L 345.039441 397.744164 
L 345.680612 364.537837 
L 348.405586 206.510396 
L 349.046757 185.441636 
L 349.527635 176.146214 
L 349.84822 173.06506 
L 350.008513 172.434813 
L 350.168805 172.393005 
L 350.329098 172.922193 
L 350.649683 175.611034 
L 351.130561 183.354327 
L 351.771731 199.407998 
L 352.733487 231.626663 
L 354.977584 310.58534 
L 355.779047 330.904324 
L 356.420218 342.422119 
L 356.901095 348.170426 
L 357.381973 351.495568 
L 357.702559 352.433378 
L 357.862851 352.539854 
L 358.023144 352.41595 
L 358.343729 351.514566 
L 358.664314 349.809663 
L 359.145192 345.938286 
L 359.786363 338.815235 
L 360.908411 323.094705 
L 362.831923 295.788401 
L 363.793678 285.521331 
L 364.434849 280.606504 
L 365.076019 277.363758 
L 365.556897 276.032519 
L 365.877482 275.65485 
L 366.198068 275.669126 
L 366.518653 276.057644 
L 366.839238 276.799703 
L 367.320116 278.5245 
L 367.961287 281.830754 
L 368.76275 287.271966 
L 369.884798 296.553565 
L 373.090651 325.263784 
L 373.411236 157.924486 
L 373.731821 92.829268 
L 373.892114 82.226524 
L 374.052406 80.3956 
L 374.212699 84.269389 
L 374.693577 110.426187 
L 375.334747 143.617606 
L 375.815625 156.766054 
L 376.13621 160.11403 
L 376.296503 160.437084 
L 376.456796 159.988732 
L 376.777381 157.123307 
L 377.258259 148.919339 
L 377.899429 132.406044 
L 378.220015 281.250812 
L 378.5406 353.16581 
L 378.861185 380.919779 
L 379.021478 385.278216 
L 379.18177 385.939563 
L 379.342063 384.35319 
L 380.143526 372.469523 
L 380.303819 372.297146 
L 380.464111 373.188616 
L 380.784697 377.940439 
L 381.265574 390.572653 
L 382.387623 422.561992 
L 382.708208 427.18249 
L 382.868501 428.262814 
L 383.028793 428.458833 
L 383.189086 427.74268 
L 383.509671 423.537426 
L 383.830256 415.708396 
L 384.311134 397.754715 
L 384.952305 364.567833 
L 387.837572 200.265415 
L 388.478743 181.596396 
L 388.95962 174.148282 
L 389.280206 172.264561 
L 389.440498 172.212997 
L 389.600791 172.732693 
L 389.921376 175.403451 
L 390.402254 183.122201 
L 391.043425 199.14866 
L 392.00518 231.339418 
L 394.249277 310.290318 
L 395.05074 330.621884 
L 395.691911 342.153614 
L 396.172789 347.914013 
L 396.653666 351.252237 
L 396.974252 352.199146 
L 397.134544 352.310248 
L 397.294837 352.191007 
L 397.615422 351.299016 
L 397.936007 349.603528 
L 398.416885 345.746161 
L 399.058056 338.641258 
L 400.180104 322.949989 
L 402.103616 295.683774 
L 403.065371 285.43167 
L 403.706542 280.525087 
L 404.347712 277.289342 
L 404.82859 275.962624 
L 405.149176 275.587655 
L 405.469761 275.604403 
L 405.790346 275.995183 
L 406.271224 277.236736 
L 406.752102 279.193159 
L 407.393272 282.760683 
L 408.355028 289.715692 
L 409.797662 302.298097 
L 412.682929 327.815847 
L 413.644685 335.001299 
L 413.96527 167.113281 
L 414.285855 101.477497 
L 414.446148 90.605835 
L 414.60644 88.506754 
L 414.766733 92.113329 
L 415.247611 117.4779 
L 415.888781 149.652598 
L 416.369659 162.083625 
L 416.690245 164.979721 
L 416.850537 165.085394 
L 417.01083 164.425547 
L 417.331415 161.155088 
L 417.812293 152.388688 
L 418.453463 135.207594 
L 418.774049 283.768585 
L 419.094634 355.406949 
L 419.415219 382.898039 
L 419.575512 387.131494 
L 419.735804 387.672566 
L 420.05639 383.13185 
L 420.537268 374.881481 
L 420.69756 373.583688 
L 420.857853 373.324775 
L 421.018145 374.13412 
L 421.338731 378.734325 
L 421.819609 391.168487 
L 422.941657 422.815238 
L 423.262242 427.364955 
L 423.422535 428.413988 
L 423.582827 428.581351 
L 423.74312 427.839104 
L 424.063705 423.58906 
L 424.384291 415.724624 
L 424.865168 397.734148 
L 425.506339 364.525424 
L 428.231314 206.536344 
L 428.872484 185.481328 
L 429.353362 176.196012 
L 429.673947 173.121316 
L 429.83424 172.494182 
L 429.994532 172.455398 
L 430.154825 172.987512 
L 430.47541 175.681885 
L 430.956288 183.432586 
L 431.597459 199.494293 
L 432.559214 231.720833 
L 434.803311 310.679917 
L 435.604774 330.994366 
L 436.245945 342.50739 
L 436.726823 348.251647 
L 437.207701 351.572463 
L 437.528286 352.50729 
L 437.688578 352.612256 
L 437.848871 352.486833 
L 438.169456 351.582402 
L 438.490042 349.874457 
L 438.970919 345.998575 
L 439.61209 338.86972 
L 440.734138 323.139897 
L 442.65765 295.820978 
L 443.619406 285.549231 
L 444.260576 280.631836 
L 444.901747 277.386912 
L 445.382624 276.054269 
L 445.70321 275.675763 
L 446.023795 275.689272 
L 446.34438 276.077089 
L 446.664965 276.818507 
L 447.145843 278.542442 
L 447.787014 281.847706 
L 448.588477 287.287884 
L 449.710525 296.568303 
L 453.557548 330.361624 
L 453.878134 162.749927 
L 454.198719 97.383935 
L 454.359011 86.645644 
L 454.519304 84.679044 
L 454.679597 88.417159 
L 455.160475 114.169251 
L 455.801645 146.836717 
L 456.282523 159.612805 
L 456.603108 162.725203 
L 456.763401 162.934648 
L 456.923693 162.375589 
L 457.244279 159.297662 
L 457.725157 150.797538 
L 458.366327 133.930913 
L 458.686912 282.625446 
L 459.007498 354.39397 
L 459.328083 382.008575 
L 459.488375 386.300656 
L 459.648668 386.898068 
L 459.969253 382.462894 
L 460.450131 374.352928 
L 460.610424 373.097309 
L 460.770716 372.878362 
L 460.931009 373.725539 
L 461.251594 378.395305 
L 461.732472 390.91966 
L 462.854521 422.71975 
L 463.175106 427.300451 
L 463.335398 428.363053 
L 463.495691 428.542752 
L 463.655984 427.811646 
L 463.976569 423.580442 
L 464.297154 415.730498 
L 464.778032 397.754244 
L 465.419203 364.552028 
L 468.144177 206.489033 
L 468.785348 185.406434 
L 469.266226 176.100719 
L 469.586811 173.012942 
L 469.747103 172.379488 
L 469.907396 172.334557 
L 470.067689 172.860714 
L 470.388274 175.543801 
L 470.869152 183.279329 
L 471.510322 199.324464 
L 472.472078 231.534514 
L 474.716175 310.491376 
L 475.517638 330.814546 
L 476.158808 342.336891 
L 476.639686 348.089115 
L 477.120564 351.418474 
L 477.441149 352.359209 
L 477.601442 352.467169 
L 477.761735 352.34476 
L 478.08232 351.446383 
L 478.402905 349.744489 
L 478.883783 345.877581 
L 479.524954 338.760307 
L 480.647002 323.049066 
L 482.570513 295.755442 
L 483.532269 285.493093 
L 484.17344 280.580864 
L 484.81461 277.340321 
L 485.295488 276.010505 
L 485.616073 275.633686 
L 485.936659 275.64874 
L 486.257244 276.037969 
L 486.577829 276.780679 
L 487.058707 278.506352 
L 487.699877 281.813611 
L 488.501341 287.255874 
L 489.623389 296.538672 
L 493.630705 331.548993 
L 493.95129 163.869009 
L 494.271875 98.435852 
L 494.432168 87.664199 
L 494.59246 85.664365 
L 494.752753 89.369399 
L 495.233631 115.023617 
L 495.874801 147.565901 
L 496.355679 160.253933 
L 496.676264 163.310985 
L 496.836557 163.493839 
L 496.99685 162.908928 
L 497.317435 159.781554 
L 497.798313 151.212902 
L 498.439483 134.265141 
L 498.760069 282.925113 
L 499.080654 354.660001 
L 499.401239 382.242692 
L 499.561532 386.519618 
L 499.721824 387.102457 
L 500.04241 382.639948 
L 500.523287 374.49352 
L 500.68358 373.226919 
L 500.843873 372.99755 
L 501.004165 373.834845 
L 501.324751 378.486398 
L 501.805628 390.987029 
L 502.927677 422.746354 
L 503.248262 427.318704 
L 503.408555 428.377627 
L 503.568847 428.553966 
L 503.72914 427.81981 
L 504.049725 423.583399 
L 504.37031 415.72938 
L 504.851188 397.748975 
L 505.492359 364.54449 
L 508.217333 206.498868 
L 508.858504 185.423185 
L 509.339382 176.122629 
L 509.659967 173.038178 
L 509.82026 172.406336 
L 509.980552 172.362977 
L 510.140845 172.89066 
L 510.46143 175.576647 
L 510.942308 183.316098 
L 511.583479 199.365562 
L 512.545234 231.580018 
L 514.789331 310.538006 
L 515.590794 330.859149 
L 516.231965 342.379266 
L 516.712843 348.129563 
L 517.19372 351.456841 
L 517.514306 352.396131 
L 517.674598 352.503357 
L 517.834891 352.380208 
L 518.155476 351.480342 
L 518.476061 349.776957 
L 518.956939 345.907833 
L 519.59811 338.78769 
L 520.720158 323.07183 
L 522.64367 295.771891 
L 523.605425 285.507188 
L 524.246596 280.593663 
L 524.887766 277.35202 
L 525.368644 276.021493 
L 525.68923 275.64425 
L 526.009815 275.658915 
L 526.3304 276.047789 
L 526.650985 276.790174 
L 527.131863 278.515409 
L 527.773034 281.822166 
L 528.574497 287.263903 
L 529.696545 296.546102 
L 533.864153 332.739987 
L 534.184739 164.990093 
L 534.505324 99.488607 
L 534.665617 88.683142 
L 534.825909 86.649697 
L 534.986202 90.321334 
L 535.46708 115.877016 
L 536.10825 148.293693 
L 536.589128 160.893567 
L 536.909713 163.895271 
L 537.070006 164.051547 
L 537.230299 163.440807 
L 537.550884 160.264049 
L 538.031762 151.626998 
L 538.672932 134.59829 
L 538.993517 283.223958 
L 539.314103 354.925369 
L 539.634688 382.476256 
L 539.794981 386.738072 
L 539.955273 387.306384 
L 540.275858 382.816638 
L 540.756736 374.633921 
L 540.917029 373.356405 
L 541.077322 373.116685 
L 541.237614 373.944175 
L 541.558199 378.577678 
L 542.039077 391.054856 
L 543.161126 422.774109 
L 543.481711 427.338308 
L 543.642004 428.393652 
L 543.802296 428.56673 
L 543.962589 427.829621 
L 544.283174 423.588194 
L 544.603759 415.730284 
L 545.084637 397.74599 
L 545.725808 364.539554 
L 548.450782 206.512177 
L 549.091953 185.443489 
L 549.572831 176.14812 
L 549.893416 173.066999 
L 550.053709 172.436767 
L 550.214001 172.394974 
L 550.374294 172.924175 
L 550.694879 175.613039 
L 551.175757 183.356358 
L 551.816927 199.410043 
L 552.778683 231.628683 
L 555.02278 310.587111 
L 555.824243 330.90596 
L 556.465414 342.423637 
L 556.946291 348.171853 
L 557.427169 351.496903 
L 557.747755 352.434652 
L 557.908047 352.541098 
L 558.06834 352.417164 
L 558.388925 351.515721 
L 558.70951 349.810759 
L 559.190388 345.939297 
L 559.831559 338.81614 
L 560.953607 323.095445 
L 562.877119 295.788925 
L 563.838874 285.521778 
L 564.480045 280.60691 
L 565.121215 277.364128 
L 565.602093 276.032867 
L 565.922678 275.655185 
L 566.243264 275.669449 
L 566.563849 276.057956 
L 566.884434 276.800006 
L 567.365312 278.524789 
L 568.006483 281.831028 
L 568.807946 287.272225 
L 569.929994 296.553807 
L 574.097602 332.745976 
L 574.257895 333.904975 
L 574.57848 166.085034 
L 574.899065 100.515381 
L 575.059358 89.676282 
L 575.219651 87.609463 
L 575.379943 91.247992 
L 575.860821 116.706271 
L 576.501992 148.999288 
L 576.98287 161.512655 
L 577.303455 164.460158 
L 577.463747 164.590436 
L 577.62404 163.954449 
L 577.944625 160.72947 
L 578.425503 152.025739 
L 579.066674 134.918287 
L 579.387259 283.510619 
L 579.707844 355.179484 
L 580.028429 382.699461 
L 580.188722 386.946602 
L 580.349015 387.50081 
L 580.6696 382.984647 
L 581.150478 374.766806 
L 581.31077 373.478746 
L 581.471063 373.229038 
L 581.631356 374.047077 
L 581.951941 378.663213 
L 582.432819 391.117899 
L 583.554867 422.799018 
L 583.875452 427.355539 
L 584.035745 428.407525 
L 584.196038 428.577555 
L 584.35633 427.837696 
L 584.676916 423.591631 
L 584.997501 415.73017 
L 585.478379 397.742429 
L 586.119549 364.534504 
L 588.844524 206.526051 
L 589.485694 185.464311 
L 589.966572 176.174065 
L 590.287157 173.096221 
L 590.44745 172.467571 
L 590.607743 172.427314 
L 590.768035 172.958002 
L 591.088621 175.649681 
L 591.569498 183.396768 
L 592.210669 199.454546 
L 593.172425 231.677194 
L 595.416521 310.635792 
L 596.217985 330.952304 
L 596.859155 342.467525 
L 597.340033 348.213656 
L 597.820911 351.53648 
L 598.141496 352.472695 
L 598.301789 352.578363 
L 598.462081 352.453647 
L 598.782667 351.550636 
L 599.103252 349.844109 
L 599.58413 345.970329 
L 600.2253 338.844185 
L 601.347349 323.118707 
L 603.27086 295.805694 
L 604.232616 285.536139 
L 604.873786 280.619948 
L 605.514957 277.376046 
L 605.995835 276.044062 
L 606.31642 275.665949 
L 606.637005 275.679819 
L 606.95759 276.067965 
L 607.278176 276.809685 
L 607.759054 278.534025 
L 608.400224 281.839755 
L 609.201687 287.280419 
L 610.323736 296.561395 
L 613.209003 322.592917 
L 613.529588 155.383638 
L 613.850173 90.419933 
L 614.010466 79.883794 
L 614.170759 78.12 
L 614.331051 82.061338 
L 614.811929 108.421797 
L 615.4531 141.880831 
L 615.933977 155.221714 
L 616.254563 158.692312 
L 616.414855 159.074736 
L 616.575148 158.684384 
L 616.895733 155.930694 
L 617.376611 147.883345 
L 618.017782 131.558301 
L 618.338367 280.483311 
L 618.658952 352.476524 
L 618.979537 380.305036 
L 619.13983 384.699046 
L 619.300123 385.394731 
L 619.460415 383.841421 
L 620.261878 372.103825 
L 620.422171 371.95695 
L 620.582464 372.872759 
L 620.903049 377.669918 
L 621.383927 390.362296 
L 622.505975 422.45948 
L 622.82656 427.103239 
L 622.986853 428.194028 
L 623.147146 428.399757 
L 623.307438 427.692577 
L 623.628023 423.50312 
L 623.948609 415.687139 
L 624.429487 397.748197 
L 625.070657 364.572773 
L 627.955924 200.243961 
L 628.597095 181.560729 
L 629.077973 174.101783 
L 629.398558 172.210995 
L 629.558851 172.155987 
L 629.719143 172.672313 
L 630.039728 175.336596 
L 630.520606 183.046439 
L 631.161777 199.062814 
L 632.123533 231.242802 
L 634.367629 310.188684 
L 635.169092 330.524006 
L 635.810263 342.060183 
L 636.291141 347.824543 
L 636.772019 351.167117 
L 637.092604 352.117081 
L 637.252897 352.229745 
L 637.413189 352.112081 
L 637.733774 351.22328 
L 638.05436 349.531006 
L 638.535238 345.678445 
L 639.176408 338.579806 
L 640.298456 322.898716 
L 642.221968 295.646583 
L 643.183724 285.399775 
L 643.824894 280.49612 
L 644.466065 277.262865 
L 644.946943 275.937758 
L 645.267528 275.563754 
L 645.588113 275.581384 
L 645.908698 275.972972 
L 646.389576 277.215611 
L 646.870454 279.172987 
L 647.511625 282.741608 
L 648.47338 289.697973 
L 649.916014 302.281984 
L 652.801281 327.802297 
L 653.92333 336.094649 
L 654.243915 168.137568 
L 654.5645 102.435054 
L 654.724793 91.530641 
L 654.885085 89.399169 
L 655.045378 92.973712 
L 655.526256 118.244572 
L 656.167426 150.301298 
L 656.648304 162.650385 
L 656.968889 165.495378 
L 657.129182 165.576602 
L 657.289475 164.893052 
L 657.61006 161.577432 
L 658.090938 152.748829 
L 658.732108 135.494666 
L 659.052694 284.024713 
L 659.373279 355.632878 
L 659.693864 383.09533 
L 659.854157 387.315211 
L 660.014449 387.843257 
L 660.335035 383.278197 
L 660.815912 374.995613 
L 660.976205 373.688192 
L 661.136498 373.42018 
L 661.29679 374.220937 
L 661.617376 378.805427 
L 662.098253 391.219389 
L 663.220302 422.832503 
L 663.540887 427.375611 
L 663.70118 428.421785 
L 663.861472 428.586574 
L 664.021765 427.842029 
L 664.34235 423.588177 
L 664.662935 415.720927 
L 665.143813 397.727939 
L 665.784984 364.518673 
L 668.509958 206.549569 
L 669.151129 185.501306 
L 669.632007 176.220919 
L 669.952592 173.149355 
L 670.112885 172.523728 
L 670.273177 172.486405 
L 670.43347 173.019931 
L 670.754055 175.716965 
L 671.234933 183.471213 
L 671.876104 199.536742 
L 672.837859 231.766966 
L 675.081956 310.725954 
L 675.883419 331.038124 
L 676.52459 342.548782 
L 677.005468 348.291042 
L 677.486345 351.609734 
L 677.806931 352.543099 
L 677.967223 352.647326 
L 678.127516 352.521161 
L 678.448101 351.615241 
L 678.768686 349.905811 
L 679.249564 346.027734 
L 679.890735 338.896056 
L 681.012783 323.161724 
L 682.936295 295.836698 
L 683.89805 285.562692 
L 684.539221 280.644057 
L 685.180391 277.398083 
L 685.661269 276.064764 
L 685.981855 275.685853 
L 686.30244 275.698994 
L 686.623025 276.086472 
L 686.94361 276.827582 
L 687.424488 278.551101 
L 688.065659 281.855888 
L 688.867122 287.295568 
L 689.98917 296.575418 
L 694.156778 332.762763 
L 694.477364 165.011808 
L 694.797949 99.509379 
L 694.958242 88.703464 
L 695.118534 86.669578 
L 695.278827 90.340777 
L 695.759705 115.895151 
L 696.400875 148.310072 
L 696.881753 160.908629 
L 697.202338 163.909464 
L 697.362631 164.065309 
L 697.522924 163.454143 
L 697.843509 160.276544 
L 698.324387 151.638266 
L 698.965557 134.607993 
L 699.286142 283.23311 
L 699.606728 354.93392 
L 699.927313 382.484196 
L 700.087606 386.745711 
L 700.247898 387.313727 
L 700.568483 382.823412 
L 701.049361 374.639912 
L 701.209654 373.362155 
L 701.369947 373.122203 
L 701.530239 373.949471 
L 701.850824 378.582558 
L 702.331702 391.059179 
L 703.453751 422.777407 
L 703.774336 427.341379 
L 703.934629 428.396619 
L 704.094921 428.5696 
L 704.255214 427.832401 
L 704.575799 423.590813 
L 704.896384 415.732766 
L 705.377262 397.748312 
L 706.018433 364.541738 
L 708.743407 206.514444 
L 709.384578 185.445847 
L 709.865456 176.150545 
L 710.186041 173.069465 
L 710.346334 172.439252 
L 710.506626 172.397477 
L 710.666919 172.926695 
L 710.987504 175.615588 
L 711.468382 183.358938 
L 712.109552 199.41264 
L 713.071308 231.631248 
L 715.315405 310.589358 
L 716.116868 330.908036 
L 716.758039 342.425563 
L 717.238916 348.173663 
L 717.719794 351.498597 
L 718.04038 352.436268 
L 718.200672 352.542676 
L 718.360965 352.418703 
L 718.68155 351.517184 
L 719.002135 349.812149 
L 719.483013 345.94058 
L 720.124184 338.817287 
L 721.246232 323.096382 
L 723.169744 295.78959 
L 724.131499 285.522345 
L 724.77267 280.607424 
L 725.41384 277.364597 
L 725.894718 276.033308 
L 726.215303 275.65561 
L 726.535889 275.669859 
L 726.856474 276.058352 
L 727.177059 276.800389 
L 727.657937 278.525156 
L 728.299108 281.831376 
L 729.100571 287.272553 
L 730.222619 296.554114 
L 734.069642 330.350388 
L 734.390227 162.739212 
L 734.710813 97.373684 
L 734.871105 86.635614 
L 735.031398 84.66923 
L 735.19169 88.40756 
L 735.672568 114.160294 
L 736.313739 146.828623 
L 736.794617 159.605359 
L 737.115202 162.718185 
L 737.275495 162.927843 
L 737.435787 162.368993 
L 737.756372 159.291482 
L 738.23725 150.791963 
L 738.878421 133.92611 
L 739.199006 282.620916 
L 739.519591 354.389737 
L 739.840177 382.004644 
L 740.000469 386.296875 
L 740.160762 386.894433 
L 740.481347 382.459541 
L 740.962225 374.349962 
L 741.122518 373.094463 
L 741.28281 372.875631 
L 741.443103 373.722917 
L 741.763688 378.392889 
L 742.244566 390.917521 
L 743.366614 422.718117 
L 743.6872 427.298931 
L 743.847492 428.361584 
L 744.007785 428.54133 
L 744.168077 427.810269 
L 744.488663 423.579144 
L 744.809248 415.729268 
L 745.290126 397.753092 
L 745.931296 364.550944 
L 748.656271 206.487907 
L 749.297441 185.405262 
L 749.778319 176.099514 
L 750.098905 173.011716 
L 750.259197 172.378253 
L 750.41949 172.333313 
L 750.579782 172.859461 
L 750.900368 175.542533 
L 751.381246 183.278046 
L 752.022416 199.323173 
L 752.984172 231.533239 
L 755.228269 310.490259 
L 756.029732 330.813514 
L 756.670902 342.335934 
L 757.15178 348.088215 
L 757.632658 351.417632 
L 757.953243 352.358406 
L 758.113536 352.466385 
L 758.273828 352.343995 
L 758.594414 351.445656 
L 758.914999 349.743798 
L 759.395877 345.876944 
L 760.037047 338.759737 
L 761.159096 323.0486 
L 763.082607 295.755112 
L 764.044363 285.492812 
L 764.685533 280.580609 
L 765.326704 277.340088 
L 765.807582 276.010286 
L 766.128167 275.633475 
L 766.448752 275.648537 
L 766.769338 276.037772 
L 767.089923 276.780489 
L 767.570801 278.50617 
L 768.211971 281.813439 
L 769.013434 287.255711 
L 770.135483 296.53852 
L 773.822213 329.102138 
L 774.142798 161.560499 
L 774.463384 96.263528 
L 774.623676 85.559591 
L 774.783969 83.627264 
L 774.944261 87.399551 
L 775.425139 113.253079 
L 776.06631 146.051019 
L 776.547188 158.919379 
L 776.867773 162.089986 
L 777.028066 162.32746 
L 777.188358 161.795686 
L 777.508943 158.770062 
L 777.989821 150.342677 
L 778.630992 133.562607 
L 778.951577 282.293799 
L 779.272162 354.098127 
L 779.592748 381.746808 
L 779.75304 386.055105 
L 779.913333 386.668132 
L 780.073625 385.035322 
L 780.875089 372.947864 
L 781.035381 372.740196 
L 781.195674 373.598082 
L 781.516259 378.28764 
L 781.997137 390.83789 
L 783.119185 422.682948 
L 783.439771 427.272985 
L 783.600063 428.339723 
L 783.760356 428.523215 
L 783.920648 427.79557 
L 784.241234 423.570325 
L 784.561819 415.725118 
L 785.042697 397.753841 
L 785.683867 364.554707 
L 788.569135 200.301126 
L 789.210305 181.653424 
L 789.691183 174.221273 
L 790.011768 172.347857 
L 790.172061 172.301289 
L 790.332353 172.825856 
L 790.652939 175.50592 
L 791.133817 183.237364 
L 791.774987 199.278008 
L 792.736743 231.483539 
L 794.98084 310.43965 
L 795.782303 330.765158 
L 796.423473 342.290022 
L 796.904351 348.044408 
L 797.385229 351.376092 
L 797.705814 352.318437 
L 797.866107 352.427215 
L 798.026399 352.305628 
L 798.346985 351.408906 
L 798.66757 349.708668 
L 799.148448 345.844219 
L 799.789618 338.730122 
L 800.911667 323.023988 
L 802.835178 295.737336 
L 803.796934 285.477582 
L 804.438104 280.56678 
L 805.079275 277.327449 
L 805.560153 275.998414 
L 805.880738 275.622062 
L 806.201323 275.637542 
L 806.521909 276.027162 
L 806.842494 276.770229 
L 807.323372 278.496382 
L 807.964542 281.804192 
L 808.766005 287.24703 
L 809.888054 296.530483 
L 813.414491 327.835385 
L 813.735077 160.362452 
L 814.055662 95.133576 
L 814.215955 84.463661 
L 814.376247 82.565349 
L 814.53654 86.371615 
L 815.017418 112.326325 
L 815.658588 145.254945 
L 816.139466 158.216001 
L 816.460051 161.445187 
L 816.620344 161.710892 
L 816.780637 161.206619 
L 817.101222 158.233751 
L 817.5821 149.879824 
L 818.22327 133.187293 
L 818.543855 281.955676 
L 818.864441 353.796274 
L 819.185026 381.479459 
L 819.345319 385.80418 
L 819.505611 386.433027 
L 819.665904 384.815412 
L 820.467367 372.794477 
L 820.62766 372.598295 
L 820.787952 373.467098 
L 821.108537 378.176862 
L 821.589415 390.753626 
L 822.711464 422.645027 
L 823.032049 427.244763 
L 823.192342 428.315812 
L 823.352634 428.503269 
L 823.512927 427.779249 
L 823.833512 423.560279 
L 824.154097 415.720104 
L 824.634975 397.754208 
L 825.276146 364.558614 
L 828.161413 200.287617 
L 828.802583 181.632782 
L 829.283461 174.195326 
L 829.604047 172.3185 
L 829.764339 172.270283 
L 829.924632 172.793245 
L 830.245217 175.47025 
L 830.726095 183.197539 
L 831.367265 199.233574 
L 832.329021 231.43438 
L 834.573118 310.389209 
L 835.374581 330.716872 
L 836.015752 342.244121 
L 836.496629 348.000575 
L 836.977507 351.334496 
L 837.298093 352.278397 
L 837.458385 352.387965 
L 837.618678 352.267176 
L 837.939263 351.372059 
L 838.259848 349.67343 
L 838.740726 345.811376 
L 839.381897 338.700381 
L 840.503945 322.99925 
L 842.427457 295.719451 
L 843.389212 285.462256 
L 844.030383 280.552864 
L 844.671553 277.314729 
L 845.152431 275.986467 
L 845.473016 275.610576 
L 845.793602 275.626479 
L 846.114187 276.016485 
L 846.434772 276.759907 
L 846.91565 278.486535 
L 847.556821 281.794891 
L 848.358284 287.2383 
L 849.480332 296.522402 
L 853.64794 332.721578 
L 854.609696 339.273395 
L 854.930281 171.108109 
L 855.250867 105.206137 
L 855.411159 94.204375 
L 855.571452 91.976931 
L 855.731744 95.456838 
L 856.212622 120.452154 
L 856.853793 152.164197 
L 857.334671 164.275021 
L 857.655256 166.971822 
L 857.815549 166.982255 
L 857.975841 166.230135 
L 858.296426 162.784031 
L 858.777304 153.776045 
L 859.418475 136.311617 
L 859.73906 284.753138 
L 860.059645 356.274617 
L 860.380231 383.654766 
L 860.540523 387.83564 
L 860.700816 388.326267 
L 861.021401 383.691362 
L 861.502279 375.316611 
L 861.662572 373.981726 
L 861.822864 373.687805 
L 861.983157 374.464155 
L 862.303742 379.004108 
L 862.78462 391.361135 
L 863.906668 422.880714 
L 864.227254 427.405783 
L 864.387546 428.444223 
L 864.547839 428.602094 
L 864.708131 427.851421 
L 865.028717 423.587576 
L 865.349302 415.713173 
L 865.83018 397.714317 
L 866.47135 364.505181 
L 869.196325 206.598596 
L 869.837495 185.57038 
L 870.318373 176.304486 
L 870.638959 173.242081 
L 870.799251 172.62084 
L 870.959544 172.587759 
L 871.119836 173.125372 
L 871.440422 175.830079 
L 871.9213 183.594467 
L 872.56247 199.670754 
L 873.524226 231.910958 
L 875.768323 310.867395 
L 876.569786 331.172074 
L 877.210956 342.67518 
L 877.691834 348.411147 
L 878.172712 351.723196 
L 878.493297 352.652014 
L 878.65359 352.753947 
L 878.813882 352.625481 
L 879.134468 351.714959 
L 879.455053 350.000953 
L 879.935931 346.116125 
L 880.577101 338.975794 
L 881.69915 323.227694 
L 883.622661 295.884127 
L 884.584417 285.603289 
L 885.225587 280.680912 
L 885.866758 277.431772 
L 886.347636 276.096415 
L 886.668221 275.716289 
L 886.988806 275.728318 
L 887.309392 276.114781 
L 887.629977 276.854962 
L 888.110855 278.577234 
L 888.752025 281.88059 
L 889.553488 287.318773 
L 890.675537 296.596918 
L 894.362267 329.148914 
L 894.682852 161.605113 
L 895.003438 96.306221 
L 895.16373 85.60137 
L 895.324023 83.668144 
L 895.484315 87.439541 
L 895.965193 113.290408 
L 896.606364 146.084767 
L 897.087242 158.950435 
L 897.407827 162.119263 
L 897.56812 162.355855 
L 897.728412 161.823207 
L 898.048997 158.795857 
L 898.529875 150.365949 
L 899.171046 133.582661 
L 899.491631 282.312721 
L 899.812216 354.115814 
L 900.132802 381.763234 
L 900.293094 386.070909 
L 900.453387 386.683327 
L 900.613679 385.049922 
L 901.415143 372.959772 
L 901.575435 372.751626 
L 901.735728 373.609054 
L 902.056313 378.297753 
L 902.537191 390.846852 
L 903.659239 422.689798 
L 903.979825 427.279367 
L 904.140117 428.345891 
L 904.30041 428.529184 
L 904.460702 427.801353 
L 904.781288 423.575775 
L 905.101873 415.730287 
L 905.582751 397.75868 
L 906.223921 364.559264 
L 909.109189 200.305901 
L 909.750359 181.658387 
L 910.231237 174.226371 
L 910.551822 172.353035 
L 910.712115 172.306505 
L 910.872407 172.831106 
L 911.192993 175.51123 
L 911.673871 183.242738 
L 912.315041 199.283415 
L 913.276797 231.488876 
L 915.520894 310.444322 
L 916.322357 330.769471 
L 916.963527 342.294024 
L 917.444405 348.048169 
L 917.925283 351.37961 
L 918.245868 352.321794 
L 918.406161 352.430492 
L 918.566453 352.308825 
L 918.887039 351.411946 
L 919.207624 349.711553 
L 919.688502 345.846881 
L 920.329672 338.732503 
L 921.451721 323.025935 
L 923.375232 295.738715 
L 924.336988 285.478757 
L 924.978158 280.567846 
L 925.619329 277.328423 
L 926.100207 275.999329 
L 926.420792 275.622942 
L 926.741377 275.638391 
L 927.061963 276.027982 
L 927.382548 276.771024 
L 927.863426 278.497142 
L 928.504596 281.804914 
L 929.306059 287.247711 
L 930.428108 296.531119 
L 933.794253 326.551988 
L 933.954545 225.910459 
L 933.954545 225.910459 
" clip-path="url(#p4e83e87ccf)" style="fill: none; stroke: #1f77b4; stroke-width: 1.5; stroke-linecap: square"/>
   </g>
   <g id="line2d_14">
    <path d="M 173.045455 109.705823 
L 177.693941 109.705823 
L 177.854233 378.077329 
L 213.278903 378.077329 
L 213.439196 109.705823 
L 218.087682 109.705823 
L 218.247975 378.077329 
L 253.99323 378.077329 
L 254.153523 109.705823 
L 258.802009 109.705823 
L 258.962302 378.077329 
L 293.585509 378.077329 
L 293.745801 109.705823 
L 298.394287 109.705823 
L 298.55458 378.077329 
L 333.818957 378.077329 
L 333.97925 109.705823 
L 338.627736 109.705823 
L 338.788029 378.077329 
L 373.090651 378.077329 
L 373.250943 109.705823 
L 377.899429 109.705823 
L 378.059722 378.077329 
L 413.644685 378.077329 
L 413.804977 109.705823 
L 418.453463 109.705823 
L 418.613756 378.077329 
L 453.557548 378.077329 
L 453.717841 109.705823 
L 458.366327 109.705823 
L 458.52662 378.077329 
L 493.630705 378.077329 
L 493.790997 109.705823 
L 498.439483 109.705823 
L 498.599776 378.077329 
L 533.864153 378.077329 
L 534.024446 109.705823 
L 538.672932 109.705823 
L 538.833225 378.077329 
L 574.257895 378.077329 
L 574.418188 109.705823 
L 579.066674 109.705823 
L 579.226966 378.077329 
L 613.209003 378.077329 
L 613.369295 109.705823 
L 618.017782 109.705823 
L 618.178074 378.077329 
L 653.92333 378.077329 
L 654.083622 109.705823 
L 658.732108 109.705823 
L 658.892401 378.077329 
L 694.156778 378.077329 
L 694.317071 109.705823 
L 698.965557 109.705823 
L 699.12585 378.077329 
L 734.069642 378.077329 
L 734.229935 109.705823 
L 738.878421 109.705823 
L 739.038713 378.077329 
L 773.822213 378.077329 
L 773.982506 109.705823 
L 778.630992 109.705823 
L 778.791284 378.077329 
L 813.414491 378.077329 
L 813.574784 109.705823 
L 818.22327 109.705823 
L 818.383563 378.077329 
L 854.609696 378.077329 
L 854.769989 109.705823 
L 859.418475 109.705823 
L 859.578767 378.077329 
L 894.362267 378.077329 
L 894.52256 109.705823 
L 899.171046 109.705823 
L 899.331338 378.077329 
L 933.794253 378.077329 
L 933.954545 109.705823 
L 933.954545 109.705823 
" clip-path="url(#p4e83e87ccf)" style="fill: none; stroke: #ff7f0e; stroke-width: 1.5; stroke-linecap: square"/>
   </g>
   <g id="line2d_15">
    <path d="M 929.466352 378.077329 
" clip-path="url(#p4e83e87ccf)" style="fill: none; stroke: #000000; stroke-width: 1.5; stroke-linecap: square"/>
    <defs>
     <path id="m6b1933ca21" d="M 0 1 
C 0.265203 1 0.51958 0.894634 0.707107 0.707107 
C 0.894634 0.51958 1 0.265203 1 0 
C 1 -0.265203 0.894634 -0.51958 0.707107 -0.707107 
C 0.51958 -0.894634 0.265203 -1 0 -1 
C -0.265203 -1 -0.51958 -0.894634 -0.707107 -0.707107 
C -0.894634 -0.51958 -1 -0.265203 -1 0 
C -1 0.265203 -0.894634 0.51958 -0.707107 0.707107 
C -0.51958 0.894634 -0.265203 1 0 1 
z
" style="stroke: #000000"/>
    </defs>
    <g clip-path="url(#p4e83e87ccf)">
     <use xlink:href="#m6b1933ca21" x="173.045455" y="109.705823" style="stroke: #000000"/>
     <use xlink:href="#m6b1933ca21" x="178.174819" y="378.077329" style="stroke: #000000"/>
     <use xlink:href="#m6b1933ca21" x="183.14389" y="378.077329" style="stroke: #000000"/>
     <use xlink:href="#m6b1933ca21" x="188.112961" y="109.705823" style="stroke: #000000"/>
     <use xlink:href="#m6b1933ca21" x="193.082033" y="378.077329" style="stroke: #000000"/>
     <use xlink:href="#m6b1933ca21" x="198.211397" y="378.077329" style="stroke: #000000"/>
     <use xlink:href="#m6b1933ca21" x="203.180468" y="109.705823" style="stroke: #000000"/>
     <use xlink:href="#m6b1933ca21" x="208.149539" y="378.077329" style="stroke: #000000"/>
     <use xlink:href="#m6b1933ca21" x="213.118611" y="109.705823" style="stroke: #000000"/>
     <use xlink:href="#m6b1933ca21" x="218.247975" y="378.077329" style="stroke: #000000"/>
     <use xlink:href="#m6b1933ca21" x="223.217046" y="378.077329" style="stroke: #000000"/>
     <use xlink:href="#m6b1933ca21" x="228.186118" y="109.705823" style="stroke: #000000"/>
     <use xlink:href="#m6b1933ca21" x="233.155189" y="378.077329" style="stroke: #000000"/>
     <use xlink:href="#m6b1933ca21" x="238.284553" y="378.077329" style="stroke: #000000"/>
     <use xlink:href="#m6b1933ca21" x="243.253624" y="109.705823" style="stroke: #000000"/>
     <use xlink:href="#m6b1933ca21" x="248.222696" y="378.077329" style="stroke: #000000"/>
     <use xlink:href="#m6b1933ca21" x="253.191767" y="109.705823" style="stroke: #000000"/>
     <use xlink:href="#m6b1933ca21" x="258.321131" y="378.077329" style="stroke: #000000"/>
     <use xlink:href="#m6b1933ca21" x="263.290202" y="378.077329" style="stroke: #000000"/>
     <use xlink:href="#m6b1933ca21" x="268.259274" y="109.705823" style="stroke: #000000"/>
     <use xlink:href="#m6b1933ca21" x="273.228345" y="378.077329" style="stroke: #000000"/>
     <use xlink:href="#m6b1933ca21" x="278.357709" y="378.077329" style="stroke: #000000"/>
     <use xlink:href="#m6b1933ca21" x="283.326781" y="109.705823" style="stroke: #000000"/>
     <use xlink:href="#m6b1933ca21" x="288.295852" y="378.077329" style="stroke: #000000"/>
     <use xlink:href="#m6b1933ca21" x="293.264923" y="109.705823" style="stroke: #000000"/>
     <use xlink:href="#m6b1933ca21" x="298.394287" y="378.077329" style="stroke: #000000"/>
     <use xlink:href="#m6b1933ca21" x="303.363359" y="378.077329" style="stroke: #000000"/>
     <use xlink:href="#m6b1933ca21" x="308.33243" y="109.705823" style="stroke: #000000"/>
     <use xlink:href="#m6b1933ca21" x="313.301501" y="378.077329" style="stroke: #000000"/>
     <use xlink:href="#m6b1933ca21" x="318.430865" y="378.077329" style="stroke: #000000"/>
     <use xlink:href="#m6b1933ca21" x="323.399937" y="109.705823" style="stroke: #000000"/>
     <use xlink:href="#m6b1933ca21" x="328.369008" y="378.077329" style="stroke: #000000"/>
     <use xlink:href="#m6b1933ca21" x="333.33808" y="109.705823" style="stroke: #000000"/>
     <use xlink:href="#m6b1933ca21" x="338.467444" y="378.077329" style="stroke: #000000"/>
     <use xlink:href="#m6b1933ca21" x="343.436515" y="378.077329" style="stroke: #000000"/>
     <use xlink:href="#m6b1933ca21" x="348.405586" y="109.705823" style="stroke: #000000"/>
     <use xlink:href="#m6b1933ca21" x="353.374658" y="378.077329" style="stroke: #000000"/>
     <use xlink:href="#m6b1933ca21" x="358.504022" y="378.077329" style="stroke: #000000"/>
     <use xlink:href="#m6b1933ca21" x="363.473093" y="109.705823" style="stroke: #000000"/>
     <use xlink:href="#m6b1933ca21" x="368.442164" y="378.077329" style="stroke: #000000"/>
     <use xlink:href="#m6b1933ca21" x="373.411236" y="109.705823" style="stroke: #000000"/>
     <use xlink:href="#m6b1933ca21" x="378.5406" y="378.077329" style="stroke: #000000"/>
     <use xlink:href="#m6b1933ca21" x="383.509671" y="378.077329" style="stroke: #000000"/>
     <use xlink:href="#m6b1933ca21" x="388.478743" y="109.705823" style="stroke: #000000"/>
     <use xlink:href="#m6b1933ca21" x="393.447814" y="378.077329" style="stroke: #000000"/>
     <use xlink:href="#m6b1933ca21" x="398.577178" y="378.077329" style="stroke: #000000"/>
     <use xlink:href="#m6b1933ca21" x="403.546249" y="109.705823" style="stroke: #000000"/>
     <use xlink:href="#m6b1933ca21" x="408.515321" y="378.077329" style="stroke: #000000"/>
     <use xlink:href="#m6b1933ca21" x="413.484392" y="109.705823" style="stroke: #000000"/>
     <use xlink:href="#m6b1933ca21" x="418.613756" y="378.077329" style="stroke: #000000"/>
     <use xlink:href="#m6b1933ca21" x="423.582827" y="378.077329" style="stroke: #000000"/>
     <use xlink:href="#m6b1933ca21" x="428.551899" y="109.705823" style="stroke: #000000"/>
     <use xlink:href="#m6b1933ca21" x="433.52097" y="378.077329" style="stroke: #000000"/>
     <use xlink:href="#m6b1933ca21" x="438.650334" y="378.077329" style="stroke: #000000"/>
     <use xlink:href="#m6b1933ca21" x="443.619406" y="109.705823" style="stroke: #000000"/>
     <use xlink:href="#m6b1933ca21" x="448.588477" y="378.077329" style="stroke: #000000"/>
     <use xlink:href="#m6b1933ca21" x="453.557548" y="109.705823" style="stroke: #000000"/>
     <use xlink:href="#m6b1933ca21" x="458.686912" y="378.077329" style="stroke: #000000"/>
     <use xlink:href="#m6b1933ca21" x="463.655984" y="378.077329" style="stroke: #000000"/>
     <use xlink:href="#m6b1933ca21" x="468.625055" y="109.705823" style="stroke: #000000"/>
     <use xlink:href="#m6b1933ca21" x="473.594126" y="378.077329" style="stroke: #000000"/>
     <use xlink:href="#m6b1933ca21" x="478.72349" y="378.077329" style="stroke: #000000"/>
     <use xlink:href="#m6b1933ca21" x="483.692562" y="109.705823" style="stroke: #000000"/>
     <use xlink:href="#m6b1933ca21" x="488.661633" y="378.077329" style="stroke: #000000"/>
     <use xlink:href="#m6b1933ca21" x="493.630705" y="109.705823" style="stroke: #000000"/>
     <use xlink:href="#m6b1933ca21" x="498.760069" y="378.077329" style="stroke: #000000"/>
     <use xlink:href="#m6b1933ca21" x="503.72914" y="378.077329" style="stroke: #000000"/>
     <use xlink:href="#m6b1933ca21" x="508.698211" y="109.705823" style="stroke: #000000"/>
     <use xlink:href="#m6b1933ca21" x="513.667283" y="378.077329" style="stroke: #000000"/>
     <use xlink:href="#m6b1933ca21" x="518.796647" y="378.077329" style="stroke: #000000"/>
     <use xlink:href="#m6b1933ca21" x="523.765718" y="109.705823" style="stroke: #000000"/>
     <use xlink:href="#m6b1933ca21" x="528.734789" y="378.077329" style="stroke: #000000"/>
     <use xlink:href="#m6b1933ca21" x="533.703861" y="109.705823" style="stroke: #000000"/>
     <use xlink:href="#m6b1933ca21" x="538.833225" y="378.077329" style="stroke: #000000"/>
     <use xlink:href="#m6b1933ca21" x="543.802296" y="378.077329" style="stroke: #000000"/>
     <use xlink:href="#m6b1933ca21" x="548.771368" y="109.705823" style="stroke: #000000"/>
     <use xlink:href="#m6b1933ca21" x="553.740439" y="378.077329" style="stroke: #000000"/>
     <use xlink:href="#m6b1933ca21" x="558.869803" y="378.077329" style="stroke: #000000"/>
     <use xlink:href="#m6b1933ca21" x="563.838874" y="109.705823" style="stroke: #000000"/>
     <use xlink:href="#m6b1933ca21" x="568.807946" y="378.077329" style="stroke: #000000"/>
     <use xlink:href="#m6b1933ca21" x="573.777017" y="109.705823" style="stroke: #000000"/>
     <use xlink:href="#m6b1933ca21" x="578.906381" y="378.077329" style="stroke: #000000"/>
     <use xlink:href="#m6b1933ca21" x="583.875452" y="378.077329" style="stroke: #000000"/>
     <use xlink:href="#m6b1933ca21" x="588.844524" y="109.705823" style="stroke: #000000"/>
     <use xlink:href="#m6b1933ca21" x="593.813595" y="378.077329" style="stroke: #000000"/>
     <use xlink:href="#m6b1933ca21" x="598.942959" y="378.077329" style="stroke: #000000"/>
     <use xlink:href="#m6b1933ca21" x="603.912031" y="109.705823" style="stroke: #000000"/>
     <use xlink:href="#m6b1933ca21" x="608.881102" y="378.077329" style="stroke: #000000"/>
     <use xlink:href="#m6b1933ca21" x="613.850173" y="109.705823" style="stroke: #000000"/>
     <use xlink:href="#m6b1933ca21" x="618.979537" y="378.077329" style="stroke: #000000"/>
     <use xlink:href="#m6b1933ca21" x="623.948609" y="378.077329" style="stroke: #000000"/>
     <use xlink:href="#m6b1933ca21" x="628.91768" y="109.705823" style="stroke: #000000"/>
     <use xlink:href="#m6b1933ca21" x="633.886751" y="378.077329" style="stroke: #000000"/>
     <use xlink:href="#m6b1933ca21" x="639.016115" y="378.077329" style="stroke: #000000"/>
     <use xlink:href="#m6b1933ca21" x="643.985187" y="109.705823" style="stroke: #000000"/>
     <use xlink:href="#m6b1933ca21" x="648.954258" y="378.077329" style="stroke: #000000"/>
     <use xlink:href="#m6b1933ca21" x="653.92333" y="109.705823" style="stroke: #000000"/>
     <use xlink:href="#m6b1933ca21" x="659.052694" y="378.077329" style="stroke: #000000"/>
     <use xlink:href="#m6b1933ca21" x="664.021765" y="378.077329" style="stroke: #000000"/>
     <use xlink:href="#m6b1933ca21" x="668.990836" y="109.705823" style="stroke: #000000"/>
     <use xlink:href="#m6b1933ca21" x="673.959908" y="378.077329" style="stroke: #000000"/>
     <use xlink:href="#m6b1933ca21" x="679.089272" y="378.077329" style="stroke: #000000"/>
     <use xlink:href="#m6b1933ca21" x="684.058343" y="109.705823" style="stroke: #000000"/>
     <use xlink:href="#m6b1933ca21" x="689.027414" y="378.077329" style="stroke: #000000"/>
     <use xlink:href="#m6b1933ca21" x="693.996486" y="109.705823" style="stroke: #000000"/>
     <use xlink:href="#m6b1933ca21" x="699.12585" y="378.077329" style="stroke: #000000"/>
     <use xlink:href="#m6b1933ca21" x="704.094921" y="378.077329" style="stroke: #000000"/>
     <use xlink:href="#m6b1933ca21" x="709.063993" y="109.705823" style="stroke: #000000"/>
     <use xlink:href="#m6b1933ca21" x="714.033064" y="378.077329" style="stroke: #000000"/>
     <use xlink:href="#m6b1933ca21" x="719.162428" y="378.077329" style="stroke: #000000"/>
     <use xlink:href="#m6b1933ca21" x="724.131499" y="109.705823" style="stroke: #000000"/>
     <use xlink:href="#m6b1933ca21" x="729.100571" y="378.077329" style="stroke: #000000"/>
     <use xlink:href="#m6b1933ca21" x="734.069642" y="109.705823" style="stroke: #000000"/>
     <use xlink:href="#m6b1933ca21" x="739.199006" y="378.077329" style="stroke: #000000"/>
     <use xlink:href="#m6b1933ca21" x="744.168077" y="378.077329" style="stroke: #000000"/>
     <use xlink:href="#m6b1933ca21" x="749.137149" y="109.705823" style="stroke: #000000"/>
     <use xlink:href="#m6b1933ca21" x="754.10622" y="378.077329" style="stroke: #000000"/>
     <use xlink:href="#m6b1933ca21" x="759.235584" y="378.077329" style="stroke: #000000"/>
     <use xlink:href="#m6b1933ca21" x="764.204656" y="109.705823" style="stroke: #000000"/>
     <use xlink:href="#m6b1933ca21" x="769.173727" y="378.077329" style="stroke: #000000"/>
     <use xlink:href="#m6b1933ca21" x="774.142798" y="109.705823" style="stroke: #000000"/>
     <use xlink:href="#m6b1933ca21" x="779.272162" y="378.077329" style="stroke: #000000"/>
     <use xlink:href="#m6b1933ca21" x="784.241234" y="378.077329" style="stroke: #000000"/>
     <use xlink:href="#m6b1933ca21" x="789.210305" y="109.705823" style="stroke: #000000"/>
     <use xlink:href="#m6b1933ca21" x="794.179376" y="378.077329" style="stroke: #000000"/>
     <use xlink:href="#m6b1933ca21" x="799.30874" y="378.077329" style="stroke: #000000"/>
     <use xlink:href="#m6b1933ca21" x="804.277812" y="109.705823" style="stroke: #000000"/>
     <use xlink:href="#m6b1933ca21" x="809.246883" y="378.077329" style="stroke: #000000"/>
     <use xlink:href="#m6b1933ca21" x="814.215955" y="109.705823" style="stroke: #000000"/>
     <use xlink:href="#m6b1933ca21" x="819.345319" y="378.077329" style="stroke: #000000"/>
     <use xlink:href="#m6b1933ca21" x="824.31439" y="378.077329" style="stroke: #000000"/>
     <use xlink:href="#m6b1933ca21" x="829.283461" y="109.705823" style="stroke: #000000"/>
     <use xlink:href="#m6b1933ca21" x="834.252533" y="378.077329" style="stroke: #000000"/>
     <use xlink:href="#m6b1933ca21" x="839.381897" y="378.077329" style="stroke: #000000"/>
     <use xlink:href="#m6b1933ca21" x="844.350968" y="109.705823" style="stroke: #000000"/>
     <use xlink:href="#m6b1933ca21" x="849.320039" y="378.077329" style="stroke: #000000"/>
     <use xlink:href="#m6b1933ca21" x="854.289111" y="109.705823" style="stroke: #000000"/>
     <use xlink:href="#m6b1933ca21" x="859.418475" y="378.077329" style="stroke: #000000"/>
     <use xlink:href="#m6b1933ca21" x="864.387546" y="378.077329" style="stroke: #000000"/>
     <use xlink:href="#m6b1933ca21" x="869.356618" y="109.705823" style="stroke: #000000"/>
     <use xlink:href="#m6b1933ca21" x="874.325689" y="378.077329" style="stroke: #000000"/>
     <use xlink:href="#m6b1933ca21" x="879.455053" y="378.077329" style="stroke: #000000"/>
     <use xlink:href="#m6b1933ca21" x="884.424124" y="109.705823" style="stroke: #000000"/>
     <use xlink:href="#m6b1933ca21" x="889.393196" y="378.077329" style="stroke: #000000"/>
     <use xlink:href="#m6b1933ca21" x="894.362267" y="109.705823" style="stroke: #000000"/>
     <use xlink:href="#m6b1933ca21" x="899.491631" y="378.077329" style="stroke: #000000"/>
     <use xlink:href="#m6b1933ca21" x="904.460702" y="378.077329" style="stroke: #000000"/>
     <use xlink:href="#m6b1933ca21" x="909.429774" y="109.705823" style="stroke: #000000"/>
     <use xlink:href="#m6b1933ca21" x="914.398845" y="378.077329" style="stroke: #000000"/>
     <use xlink:href="#m6b1933ca21" x="919.528209" y="378.077329" style="stroke: #000000"/>
     <use xlink:href="#m6b1933ca21" x="924.497281" y="109.705823" style="stroke: #000000"/>
     <use xlink:href="#m6b1933ca21" x="929.466352" y="378.077329" style="stroke: #000000"/>
    </g>
   </g>
   <g id="patch_3">
    <path d="M 135 448.56 
L 135 60.48 
" style="fill: none; stroke: #000000; stroke-width: 0.8; stroke-linejoin: miter; stroke-linecap: square"/>
   </g>
   <g id="patch_4">
    <path d="M 972 448.56 
L 972 60.48 
" style="fill: none; stroke: #000000; stroke-width: 0.8; stroke-linejoin: miter; stroke-linecap: square"/>
   </g>
   <g id="patch_5">
    <path d="M 135 448.56 
L 972 448.56 
" style="fill: none; stroke: #000000; stroke-width: 0.8; stroke-linejoin: miter; stroke-linecap: square"/>
   </g>
   <g id="patch_6">
    <path d="M 135 60.48 
L 972 60.48 
" style="fill: none; stroke: #000000; stroke-width: 0.8; stroke-linejoin: miter; stroke-linecap: square"/>
   </g>
   <g id="legend_1">
    <g id="patch_7">
     <path d="M 895.915625 443.56 
L 965 443.56 
Q 967 443.56 967 441.56 
L 967 397.969375 
Q 967 395.969375 965 395.969375 
L 895.915625 395.969375 
Q 893.915625 395.969375 893.915625 397.969375 
L 893.915625 441.56 
Q 893.915625 443.56 895.915625 443.56 
z
" style="fill: #ffffff; opacity: 0.8; stroke: #cccccc; stroke-linejoin: miter"/>
    </g>
    <g id="line2d_16">
     <path d="M 897.915625 404.067813 
L 907.915625 404.067813 
L 917.915625 404.067813 
" style="fill: none; stroke: #1f77b4; stroke-width: 1.5; stroke-linecap: square"/>
    </g>
    <g id="text_14">
     <!-- nw_0 -->
     <g transform="translate(925.915625 407.567813) scale(0.1 -0.1)">
      <defs>
       <path id="DejaVuSans-6e" d="M 3513 2113 
L 3513 0 
L 2938 0 
L 2938 2094 
Q 2938 2591 2744 2837 
Q 2550 3084 2163 3084 
Q 1697 3084 1428 2787 
Q 1159 2491 1159 1978 
L 1159 0 
L 581 0 
L 581 3500 
L 1159 3500 
L 1159 2956 
Q 1366 3272 1645 3428 
Q 1925 3584 2291 3584 
Q 2894 3584 3203 3211 
Q 3513 2838 3513 2113 
z
" transform="scale(0.015625)"/>
       <path id="DejaVuSans-77" d="M 269 3500 
L 844 3500 
L 1563 769 
L 2278 3500 
L 2956 3500 
L 3675 769 
L 4391 3500 
L 4966 3500 
L 4050 0 
L 3372 0 
L 2619 2869 
L 1863 0 
L 1184 0 
L 269 3500 
z
" transform="scale(0.015625)"/>
       <path id="DejaVuSans-5f" d="M 3263 -1063 
L 3263 -1509 
L -63 -1509 
L -63 -1063 
L 3263 -1063 
z
" transform="scale(0.015625)"/>
      </defs>
      <use xlink:href="#DejaVuSans-6e"/>
      <use xlink:href="#DejaVuSans-77" x="63.378906"/>
      <use xlink:href="#DejaVuSans-5f" x="145.166016"/>
      <use xlink:href="#DejaVuSans-30" x="195.166016"/>
     </g>
    </g>
    <g id="line2d_17">
     <path d="M 897.915625 419.024063 
L 907.915625 419.024063 
L 917.915625 419.024063 
" style="fill: none; stroke: #ff7f0e; stroke-width: 1.5; stroke-linecap: square"/>
    </g>
    <g id="text_15">
     <!-- input_0 -->
     <g transform="translate(925.915625 422.524063) scale(0.1 -0.1)">
      <defs>
       <path id="DejaVuSans-69" d="M 603 3500 
L 1178 3500 
L 1178 0 
L 603 0 
L 603 3500 
z
M 603 4863 
L 1178 4863 
L 1178 4134 
L 603 4134 
L 603 4863 
z
" transform="scale(0.015625)"/>
       <path id="DejaVuSans-70" d="M 1159 525 
L 1159 -1331 
L 581 -1331 
L 581 3500 
L 1159 3500 
L 1159 2969 
Q 1341 3281 1617 3432 
Q 1894 3584 2278 3584 
Q 2916 3584 3314 3078 
Q 3713 2572 3713 1747 
Q 3713 922 3314 415 
Q 2916 -91 2278 -91 
Q 1894 -91 1617 61 
Q 1341 213 1159 525 
z
M 3116 1747 
Q 3116 2381 2855 2742 
Q 2594 3103 2138 3103 
Q 1681 3103 1420 2742 
Q 1159 2381 1159 1747 
Q 1159 1113 1420 752 
Q 1681 391 2138 391 
Q 2594 391 2855 752 
Q 3116 1113 3116 1747 
z
" transform="scale(0.015625)"/>
       <path id="DejaVuSans-75" d="M 544 1381 
L 544 3500 
L 1119 3500 
L 1119 1403 
Q 1119 906 1312 657 
Q 1506 409 1894 409 
Q 2359 409 2629 706 
Q 2900 1003 2900 1516 
L 2900 3500 
L 3475 3500 
L 3475 0 
L 2900 0 
L 2900 538 
Q 2691 219 2414 64 
Q 2138 -91 1772 -91 
Q 1169 -91 856 284 
Q 544 659 544 1381 
z
M 1991 3584 
L 1991 3584 
z
" transform="scale(0.015625)"/>
      </defs>
      <use xlink:href="#DejaVuSans-69"/>
      <use xlink:href="#DejaVuSans-6e" x="27.783203"/>
      <use xlink:href="#DejaVuSans-70" x="91.162109"/>
      <use xlink:href="#DejaVuSans-75" x="154.638672"/>
      <use xlink:href="#DejaVuSans-74" x="218.017578"/>
      <use xlink:href="#DejaVuSans-5f" x="257.226562"/>
      <use xlink:href="#DejaVuSans-30" x="307.226562"/>
     </g>
    </g>
    <g id="line2d_18">
     <path d="M 897.915625 433.980312 
L 907.915625 433.980312 
L 917.915625 433.980312 
" style="fill: none; stroke: #000000; stroke-width: 1.5; stroke-linecap: square"/>
     <g>
      <use xlink:href="#m6b1933ca21" x="907.915625" y="433.980312" style="stroke: #000000"/>
     </g>
    </g>
    <g id="text_16">
     <!-- target -->
     <g transform="translate(925.915625 437.480312) scale(0.1 -0.1)">
      <defs>
       <path id="DejaVuSans-61" d="M 2194 1759 
Q 1497 1759 1228 1600 
Q 959 1441 959 1056 
Q 959 750 1161 570 
Q 1363 391 1709 391 
Q 2188 391 2477 730 
Q 2766 1069 2766 1631 
L 2766 1759 
L 2194 1759 
z
M 3341 1997 
L 3341 0 
L 2766 0 
L 2766 531 
Q 2569 213 2275 61 
Q 1981 -91 1556 -91 
Q 1019 -91 701 211 
Q 384 513 384 1019 
Q 384 1609 779 1909 
Q 1175 2209 1959 2209 
L 2766 2209 
L 2766 2266 
Q 2766 2663 2505 2880 
Q 2244 3097 1772 3097 
Q 1472 3097 1187 3025 
Q 903 2953 641 2809 
L 641 3341 
Q 956 3463 1253 3523 
Q 1550 3584 1831 3584 
Q 2591 3584 2966 3190 
Q 3341 2797 3341 1997 
z
" transform="scale(0.015625)"/>
       <path id="DejaVuSans-72" d="M 2631 2963 
Q 2534 3019 2420 3045 
Q 2306 3072 2169 3072 
Q 1681 3072 1420 2755 
Q 1159 2438 1159 1844 
L 1159 0 
L 581 0 
L 581 3500 
L 1159 3500 
L 1159 2956 
Q 1341 3275 1631 3429 
Q 1922 3584 2338 3584 
Q 2397 3584 2469 3576 
Q 2541 3569 2628 3553 
L 2631 2963 
z
" transform="scale(0.015625)"/>
       <path id="DejaVuSans-67" d="M 2906 1791 
Q 2906 2416 2648 2759 
Q 2391 3103 1925 3103 
Q 1463 3103 1205 2759 
Q 947 2416 947 1791 
Q 947 1169 1205 825 
Q 1463 481 1925 481 
Q 2391 481 2648 825 
Q 2906 1169 2906 1791 
z
M 3481 434 
Q 3481 -459 3084 -895 
Q 2688 -1331 1869 -1331 
Q 1566 -1331 1297 -1286 
Q 1028 -1241 775 -1147 
L 775 -588 
Q 1028 -725 1275 -790 
Q 1522 -856 1778 -856 
Q 2344 -856 2625 -561 
Q 2906 -266 2906 331 
L 2906 616 
Q 2728 306 2450 153 
Q 2172 0 1784 0 
Q 1141 0 747 490 
Q 353 981 353 1791 
Q 353 2603 747 3093 
Q 1141 3584 1784 3584 
Q 2172 3584 2450 3431 
Q 2728 3278 2906 2969 
L 2906 3500 
L 3481 3500 
L 3481 434 
z
" transform="scale(0.015625)"/>
       <path id="DejaVuSans-65" d="M 3597 1894 
L 3597 1613 
L 953 1613 
Q 991 1019 1311 708 
Q 1631 397 2203 397 
Q 2534 397 2845 478 
Q 3156 559 3463 722 
L 3463 178 
Q 3153 47 2828 -22 
Q 2503 -91 2169 -91 
Q 1331 -91 842 396 
Q 353 884 353 1716 
Q 353 2575 817 3079 
Q 1281 3584 2069 3584 
Q 2775 3584 3186 3129 
Q 3597 2675 3597 1894 
z
M 3022 2063 
Q 3016 2534 2758 2815 
Q 2500 3097 2075 3097 
Q 1594 3097 1305 2825 
Q 1016 2553 972 2059 
L 3022 2063 
z
" transform="scale(0.015625)"/>
      </defs>
      <use xlink:href="#DejaVuSans-74"/>
      <use xlink:href="#DejaVuSans-61" x="39.208984"/>
      <use xlink:href="#DejaVuSans-72" x="100.488281"/>
      <use xlink:href="#DejaVuSans-67" x="139.851562"/>
      <use xlink:href="#DejaVuSans-65" x="203.328125"/>
      <use xlink:href="#DejaVuSans-74" x="264.851562"/>
     </g>
    </g>
   </g>
  </g>
 </g>
 <defs>
  <clipPath id="p4e83e87ccf">
   <rect x="135" y="60.48" width="837" height="388.08"/>
  </clipPath>
 </defs>
</svg>
