<?xml version="1.0" encoding="utf-8" standalone="no"?>
<!DOCTYPE svg PUBLIC "-//W3C//DTD SVG 1.1//EN"
  "http://www.w3.org/Graphics/SVG/1.1/DTD/svg11.dtd">
<svg xmlns:xlink="http://www.w3.org/1999/xlink" width="1080pt" height="504pt" viewBox="0 0 1080 504" xmlns="http://www.w3.org/2000/svg" version="1.1">
 <metadata>
  <rdf:RDF xmlns:dc="http://purl.org/dc/elements/1.1/" xmlns:cc="http://creativecommons.org/ns#" xmlns:rdf="http://www.w3.org/1999/02/22-rdf-syntax-ns#">
   <cc:Work>
    <dc:type rdf:resource="http://purl.org/dc/dcmitype/StillImage"/>
    <dc:date>2024-05-09T11:01:53.627810</dc:date>
    <dc:format>image/svg+xml</dc:format>
    <dc:creator>
     <cc:Agent>
      <dc:title>Matplotlib v3.7.1, https://matplotlib.org/</dc:title>
     </cc:Agent>
    </dc:creator>
   </cc:Work>
  </rdf:RDF>
 </metadata>
 <defs>
  <style type="text/css">*{stroke-linejoin: round; stroke-linecap: butt}</style>
 </defs>
 <g id="figure_1">
  <g id="patch_1">
   <path d="M 0 504 
L 1080 504 
L 1080 0 
L 0 0 
z
" style="fill: #ffffff"/>
  </g>
  <g id="axes_1">
   <g id="patch_2">
    <path d="M 135 448.56 
L 972 448.56 
L 972 60.48 
L 135 60.48 
z
" style="fill: #ffffff"/>
   </g>
   <g id="matplotlib.axis_1">
    <g id="xtick_1">
     <g id="line2d_1">
      <defs>
       <path id="me003e1f000" d="M 0 0 
L 0 3.5 
" style="stroke: #000000; stroke-width: 0.8"/>
      </defs>
      <g>
       <use xlink:href="#me003e1f000" x="173.045455" y="448.56" style="stroke: #000000; stroke-width: 0.8"/>
      </g>
     </g>
     <g id="text_1">
      <!-- 0 -->
      <g transform="translate(169.864205 463.158437) scale(0.1 -0.1)">
       <defs>
        <path id="DejaVuSans-30" d="M 2034 4250 
Q 1547 4250 1301 3770 
Q 1056 3291 1056 2328 
Q 1056 1369 1301 889 
Q 1547 409 2034 409 
Q 2525 409 2770 889 
Q 3016 1369 3016 2328 
Q 3016 3291 2770 3770 
Q 2525 4250 2034 4250 
z
M 2034 4750 
Q 2819 4750 3233 4129 
Q 3647 3509 3647 2328 
Q 3647 1150 3233 529 
Q 2819 -91 2034 -91 
Q 1250 -91 836 529 
Q 422 1150 422 2328 
Q 422 3509 836 4129 
Q 1250 4750 2034 4750 
z
" transform="scale(0.015625)"/>
       </defs>
       <use xlink:href="#DejaVuSans-30"/>
      </g>
     </g>
    </g>
    <g id="xtick_2">
     <g id="line2d_2">
      <g>
       <use xlink:href="#me003e1f000" x="333.33808" y="448.56" style="stroke: #000000; stroke-width: 0.8"/>
      </g>
     </g>
     <g id="text_2">
      <!-- 1000 -->
      <g transform="translate(320.61308 463.158437) scale(0.1 -0.1)">
       <defs>
        <path id="DejaVuSans-31" d="M 794 531 
L 1825 531 
L 1825 4091 
L 703 3866 
L 703 4441 
L 1819 4666 
L 2450 4666 
L 2450 531 
L 3481 531 
L 3481 0 
L 794 0 
L 794 531 
z
" transform="scale(0.015625)"/>
       </defs>
       <use xlink:href="#DejaVuSans-31"/>
       <use xlink:href="#DejaVuSans-30" x="63.623047"/>
       <use xlink:href="#DejaVuSans-30" x="127.246094"/>
       <use xlink:href="#DejaVuSans-30" x="190.869141"/>
      </g>
     </g>
    </g>
    <g id="xtick_3">
     <g id="line2d_3">
      <g>
       <use xlink:href="#me003e1f000" x="493.630705" y="448.56" style="stroke: #000000; stroke-width: 0.8"/>
      </g>
     </g>
     <g id="text_3">
      <!-- 2000 -->
      <g transform="translate(480.905705 463.158437) scale(0.1 -0.1)">
       <defs>
        <path id="DejaVuSans-32" d="M 1228 531 
L 3431 531 
L 3431 0 
L 469 0 
L 469 531 
Q 828 903 1448 1529 
Q 2069 2156 2228 2338 
Q 2531 2678 2651 2914 
Q 2772 3150 2772 3378 
Q 2772 3750 2511 3984 
Q 2250 4219 1831 4219 
Q 1534 4219 1204 4116 
Q 875 4013 500 3803 
L 500 4441 
Q 881 4594 1212 4672 
Q 1544 4750 1819 4750 
Q 2544 4750 2975 4387 
Q 3406 4025 3406 3419 
Q 3406 3131 3298 2873 
Q 3191 2616 2906 2266 
Q 2828 2175 2409 1742 
Q 1991 1309 1228 531 
z
" transform="scale(0.015625)"/>
       </defs>
       <use xlink:href="#DejaVuSans-32"/>
       <use xlink:href="#DejaVuSans-30" x="63.623047"/>
       <use xlink:href="#DejaVuSans-30" x="127.246094"/>
       <use xlink:href="#DejaVuSans-30" x="190.869141"/>
      </g>
     </g>
    </g>
    <g id="xtick_4">
     <g id="line2d_4">
      <g>
       <use xlink:href="#me003e1f000" x="653.92333" y="448.56" style="stroke: #000000; stroke-width: 0.8"/>
      </g>
     </g>
     <g id="text_4">
      <!-- 3000 -->
      <g transform="translate(641.19833 463.158437) scale(0.1 -0.1)">
       <defs>
        <path id="DejaVuSans-33" d="M 2597 2516 
Q 3050 2419 3304 2112 
Q 3559 1806 3559 1356 
Q 3559 666 3084 287 
Q 2609 -91 1734 -91 
Q 1441 -91 1130 -33 
Q 819 25 488 141 
L 488 750 
Q 750 597 1062 519 
Q 1375 441 1716 441 
Q 2309 441 2620 675 
Q 2931 909 2931 1356 
Q 2931 1769 2642 2001 
Q 2353 2234 1838 2234 
L 1294 2234 
L 1294 2753 
L 1863 2753 
Q 2328 2753 2575 2939 
Q 2822 3125 2822 3475 
Q 2822 3834 2567 4026 
Q 2313 4219 1838 4219 
Q 1578 4219 1281 4162 
Q 984 4106 628 3988 
L 628 4550 
Q 988 4650 1302 4700 
Q 1616 4750 1894 4750 
Q 2613 4750 3031 4423 
Q 3450 4097 3450 3541 
Q 3450 3153 3228 2886 
Q 3006 2619 2597 2516 
z
" transform="scale(0.015625)"/>
       </defs>
       <use xlink:href="#DejaVuSans-33"/>
       <use xlink:href="#DejaVuSans-30" x="63.623047"/>
       <use xlink:href="#DejaVuSans-30" x="127.246094"/>
       <use xlink:href="#DejaVuSans-30" x="190.869141"/>
      </g>
     </g>
    </g>
    <g id="xtick_5">
     <g id="line2d_5">
      <g>
       <use xlink:href="#me003e1f000" x="814.215955" y="448.56" style="stroke: #000000; stroke-width: 0.8"/>
      </g>
     </g>
     <g id="text_5">
      <!-- 4000 -->
      <g transform="translate(801.490955 463.158437) scale(0.1 -0.1)">
       <defs>
        <path id="DejaVuSans-34" d="M 2419 4116 
L 825 1625 
L 2419 1625 
L 2419 4116 
z
M 2253 4666 
L 3047 4666 
L 3047 1625 
L 3713 1625 
L 3713 1100 
L 3047 1100 
L 3047 0 
L 2419 0 
L 2419 1100 
L 313 1100 
L 313 1709 
L 2253 4666 
z
" transform="scale(0.015625)"/>
       </defs>
       <use xlink:href="#DejaVuSans-34"/>
       <use xlink:href="#DejaVuSans-30" x="63.623047"/>
       <use xlink:href="#DejaVuSans-30" x="127.246094"/>
       <use xlink:href="#DejaVuSans-30" x="190.869141"/>
      </g>
     </g>
    </g>
    <g id="text_6">
     <!-- t -->
     <g transform="translate(551.539844 476.836563) scale(0.1 -0.1)">
      <defs>
       <path id="DejaVuSans-74" d="M 1172 4494 
L 1172 3500 
L 2356 3500 
L 2356 3053 
L 1172 3053 
L 1172 1153 
Q 1172 725 1289 603 
Q 1406 481 1766 481 
L 2356 481 
L 2356 0 
L 1766 0 
Q 1100 0 847 248 
Q 594 497 594 1153 
L 594 3053 
L 172 3053 
L 172 3500 
L 594 3500 
L 594 4494 
L 1172 4494 
z
" transform="scale(0.015625)"/>
      </defs>
      <use xlink:href="#DejaVuSans-74"/>
     </g>
    </g>
   </g>
   <g id="matplotlib.axis_2">
    <g id="ytick_1">
     <g id="line2d_6">
      <defs>
       <path id="m26dc1466a8" d="M 0 0 
L -3.5 0 
" style="stroke: #000000; stroke-width: 0.8"/>
      </defs>
      <g>
       <use xlink:href="#m26dc1466a8" x="135" y="437.310618" style="stroke: #000000; stroke-width: 0.8"/>
      </g>
     </g>
     <g id="text_7">
      <!-- −0.4 -->
      <g transform="translate(103.717187 441.109836) scale(0.1 -0.1)">
       <defs>
        <path id="DejaVuSans-2212" d="M 678 2272 
L 4684 2272 
L 4684 1741 
L 678 1741 
L 678 2272 
z
" transform="scale(0.015625)"/>
        <path id="DejaVuSans-2e" d="M 684 794 
L 1344 794 
L 1344 0 
L 684 0 
L 684 794 
z
" transform="scale(0.015625)"/>
       </defs>
       <use xlink:href="#DejaVuSans-2212"/>
       <use xlink:href="#DejaVuSans-30" x="83.789062"/>
       <use xlink:href="#DejaVuSans-2e" x="147.412109"/>
       <use xlink:href="#DejaVuSans-34" x="179.199219"/>
      </g>
     </g>
    </g>
    <g id="ytick_2">
     <g id="line2d_7">
      <g>
       <use xlink:href="#m26dc1466a8" x="135" y="385.997672" style="stroke: #000000; stroke-width: 0.8"/>
      </g>
     </g>
     <g id="text_8">
      <!-- −0.2 -->
      <g transform="translate(103.717187 389.796891) scale(0.1 -0.1)">
       <use xlink:href="#DejaVuSans-2212"/>
       <use xlink:href="#DejaVuSans-30" x="83.789062"/>
       <use xlink:href="#DejaVuSans-2e" x="147.412109"/>
       <use xlink:href="#DejaVuSans-32" x="179.199219"/>
      </g>
     </g>
    </g>
    <g id="ytick_3">
     <g id="line2d_8">
      <g>
       <use xlink:href="#m26dc1466a8" x="135" y="334.684727" style="stroke: #000000; stroke-width: 0.8"/>
      </g>
     </g>
     <g id="text_9">
      <!-- 0.0 -->
      <g transform="translate(112.096875 338.483946) scale(0.1 -0.1)">
       <use xlink:href="#DejaVuSans-30"/>
       <use xlink:href="#DejaVuSans-2e" x="63.623047"/>
       <use xlink:href="#DejaVuSans-30" x="95.410156"/>
      </g>
     </g>
    </g>
    <g id="ytick_4">
     <g id="line2d_9">
      <g>
       <use xlink:href="#m26dc1466a8" x="135" y="283.371782" style="stroke: #000000; stroke-width: 0.8"/>
      </g>
     </g>
     <g id="text_10">
      <!-- 0.2 -->
      <g transform="translate(112.096875 287.171) scale(0.1 -0.1)">
       <use xlink:href="#DejaVuSans-30"/>
       <use xlink:href="#DejaVuSans-2e" x="63.623047"/>
       <use xlink:href="#DejaVuSans-32" x="95.410156"/>
      </g>
     </g>
    </g>
    <g id="ytick_5">
     <g id="line2d_10">
      <g>
       <use xlink:href="#m26dc1466a8" x="135" y="232.058836" style="stroke: #000000; stroke-width: 0.8"/>
      </g>
     </g>
     <g id="text_11">
      <!-- 0.4 -->
      <g transform="translate(112.096875 235.858055) scale(0.1 -0.1)">
       <use xlink:href="#DejaVuSans-30"/>
       <use xlink:href="#DejaVuSans-2e" x="63.623047"/>
       <use xlink:href="#DejaVuSans-34" x="95.410156"/>
      </g>
     </g>
    </g>
    <g id="ytick_6">
     <g id="line2d_11">
      <g>
       <use xlink:href="#m26dc1466a8" x="135" y="180.745891" style="stroke: #000000; stroke-width: 0.8"/>
      </g>
     </g>
     <g id="text_12">
      <!-- 0.6 -->
      <g transform="translate(112.096875 184.54511) scale(0.1 -0.1)">
       <defs>
        <path id="DejaVuSans-36" d="M 2113 2584 
Q 1688 2584 1439 2293 
Q 1191 2003 1191 1497 
Q 1191 994 1439 701 
Q 1688 409 2113 409 
Q 2538 409 2786 701 
Q 3034 994 3034 1497 
Q 3034 2003 2786 2293 
Q 2538 2584 2113 2584 
z
M 3366 4563 
L 3366 3988 
Q 3128 4100 2886 4159 
Q 2644 4219 2406 4219 
Q 1781 4219 1451 3797 
Q 1122 3375 1075 2522 
Q 1259 2794 1537 2939 
Q 1816 3084 2150 3084 
Q 2853 3084 3261 2657 
Q 3669 2231 3669 1497 
Q 3669 778 3244 343 
Q 2819 -91 2113 -91 
Q 1303 -91 875 529 
Q 447 1150 447 2328 
Q 447 3434 972 4092 
Q 1497 4750 2381 4750 
Q 2619 4750 2861 4703 
Q 3103 4656 3366 4563 
z
" transform="scale(0.015625)"/>
       </defs>
       <use xlink:href="#DejaVuSans-30"/>
       <use xlink:href="#DejaVuSans-2e" x="63.623047"/>
       <use xlink:href="#DejaVuSans-36" x="95.410156"/>
      </g>
     </g>
    </g>
    <g id="ytick_7">
     <g id="line2d_12">
      <g>
       <use xlink:href="#m26dc1466a8" x="135" y="129.432945" style="stroke: #000000; stroke-width: 0.8"/>
      </g>
     </g>
     <g id="text_13">
      <!-- 0.8 -->
      <g transform="translate(112.096875 133.232164) scale(0.1 -0.1)">
       <defs>
        <path id="DejaVuSans-38" d="M 2034 2216 
Q 1584 2216 1326 1975 
Q 1069 1734 1069 1313 
Q 1069 891 1326 650 
Q 1584 409 2034 409 
Q 2484 409 2743 651 
Q 3003 894 3003 1313 
Q 3003 1734 2745 1975 
Q 2488 2216 2034 2216 
z
M 1403 2484 
Q 997 2584 770 2862 
Q 544 3141 544 3541 
Q 544 4100 942 4425 
Q 1341 4750 2034 4750 
Q 2731 4750 3128 4425 
Q 3525 4100 3525 3541 
Q 3525 3141 3298 2862 
Q 3072 2584 2669 2484 
Q 3125 2378 3379 2068 
Q 3634 1759 3634 1313 
Q 3634 634 3220 271 
Q 2806 -91 2034 -91 
Q 1263 -91 848 271 
Q 434 634 434 1313 
Q 434 1759 690 2068 
Q 947 2378 1403 2484 
z
M 1172 3481 
Q 1172 3119 1398 2916 
Q 1625 2713 2034 2713 
Q 2441 2713 2670 2916 
Q 2900 3119 2900 3481 
Q 2900 3844 2670 4047 
Q 2441 4250 2034 4250 
Q 1625 4250 1398 4047 
Q 1172 3844 1172 3481 
z
" transform="scale(0.015625)"/>
       </defs>
       <use xlink:href="#DejaVuSans-30"/>
       <use xlink:href="#DejaVuSans-2e" x="63.623047"/>
       <use xlink:href="#DejaVuSans-38" x="95.410156"/>
      </g>
     </g>
    </g>
    <g id="ytick_8">
     <g id="line2d_13">
      <g>
       <use xlink:href="#m26dc1466a8" x="135" y="78.12" style="stroke: #000000; stroke-width: 0.8"/>
      </g>
     </g>
     <g id="text_14">
      <!-- 1.0 -->
      <g transform="translate(112.096875 81.919219) scale(0.1 -0.1)">
       <use xlink:href="#DejaVuSans-31"/>
       <use xlink:href="#DejaVuSans-2e" x="63.623047"/>
       <use xlink:href="#DejaVuSans-30" x="95.410156"/>
      </g>
     </g>
    </g>
   </g>
   <g id="line2d_14">
    <path d="M 173.045455 411.10635 
L 173.205747 430.92 
L 173.36604 422.583461 
L 174.327796 304.145209 
L 174.648381 290.627899 
L 174.968966 285.32328 
L 176.251307 274.39842 
L 177.533648 259.31754 
L 177.693941 257.925744 
L 178.014526 118.793492 
L 178.174819 108.531083 
L 178.335111 116.217527 
L 178.815989 176.971863 
L 179.45716 249.660647 
L 179.938037 282.008641 
L 180.418915 302.215123 
L 180.899793 314.714772 
L 181.380671 321.232833 
L 181.701256 322.823989 
L 181.861549 322.948361 
L 182.021842 322.707214 
L 182.342427 321.39389 
L 183.78506 313.361362 
L 184.105646 312.852283 
L 184.265938 312.838268 
L 184.586524 313.245503 
L 184.907109 314.138495 
L 185.548279 316.854694 
L 187.151206 324.237456 
L 187.952669 326.854247 
L 188.754132 328.72401 
L 189.555595 330.068056 
L 190.517351 331.252094 
L 191.639399 332.278902 
L 192.92174 333.135187 
L 194.204081 333.723265 
L 195.646715 334.139888 
L 197.570226 334.436841 
L 200.295201 334.607957 
L 205.74515 334.67912 
L 213.278903 334.684671 
L 213.439196 411.106298 
L 213.599489 430.919953 
L 213.759781 422.58342 
L 214.721537 304.145192 
L 215.042122 290.627887 
L 215.362708 285.323272 
L 216.645049 274.398421 
L 217.92739 259.317544 
L 218.087682 257.925748 
L 218.408267 118.793496 
L 218.56856 108.531087 
L 218.728853 116.217531 
L 219.209731 176.971867 
L 219.850901 249.66065 
L 220.331779 282.008644 
L 220.812657 302.215125 
L 221.293535 314.714774 
L 221.774413 321.232835 
L 222.094998 322.82399 
L 222.25529 322.948362 
L 222.415583 322.707216 
L 222.736168 321.393891 
L 224.178802 313.361362 
L 224.499387 312.852284 
L 224.65968 312.838269 
L 224.980265 313.245503 
L 225.30085 314.138495 
L 225.942021 316.854694 
L 227.544947 324.237456 
L 228.34641 326.854248 
L 229.147873 328.72401 
L 229.949336 330.068056 
L 230.911092 331.252094 
L 232.033141 332.278902 
L 233.315482 333.135187 
L 234.597823 333.723265 
L 236.040456 334.139888 
L 237.963968 334.436841 
L 240.688942 334.607957 
L 246.138892 334.67912 
L 253.99323 334.684685 
L 254.153523 411.106311 
L 254.313815 430.919965 
L 254.474108 422.583431 
L 255.435864 304.145197 
L 255.756449 290.627891 
L 256.077034 285.323275 
L 257.359375 274.398422 
L 258.641716 259.317544 
L 258.802009 257.925748 
L 259.122594 118.793496 
L 259.282887 108.531088 
L 259.443179 116.217531 
L 259.924057 176.971867 
L 260.565228 249.66065 
L 261.046106 282.008644 
L 261.526984 302.215125 
L 262.007861 314.714774 
L 262.488739 321.232835 
L 262.809325 322.82399 
L 262.969617 322.948362 
L 263.12991 322.707216 
L 263.450495 321.393891 
L 264.893129 313.361362 
L 265.213714 312.852284 
L 265.374007 312.838269 
L 265.694592 313.245503 
L 266.015177 314.138495 
L 266.656348 316.854694 
L 268.259274 324.237456 
L 269.060737 326.854248 
L 269.8622 328.72401 
L 270.663663 330.068056 
L 271.625419 331.252094 
L 272.747467 332.278902 
L 274.029808 333.135187 
L 275.312149 333.723265 
L 276.754783 334.139888 
L 278.678294 334.436841 
L 281.403269 334.607957 
L 286.853218 334.67912 
L 293.585509 334.68462 
L 293.745801 411.10625 
L 293.906094 430.919911 
L 294.066386 422.583384 
L 295.028142 304.145175 
L 295.348727 290.627873 
L 295.669313 285.32326 
L 296.951654 274.398416 
L 298.233995 259.317542 
L 298.394287 257.925747 
L 298.714873 118.793495 
L 298.875165 108.531087 
L 299.035458 116.21753 
L 299.516336 176.971866 
L 300.157506 249.66065 
L 300.638384 282.008644 
L 301.119262 302.215125 
L 301.60014 314.714774 
L 302.081018 321.232835 
L 302.401603 322.82399 
L 302.561896 322.948362 
L 302.722188 322.707216 
L 303.042773 321.393891 
L 304.485407 313.361362 
L 304.805992 312.852284 
L 304.966285 312.838269 
L 305.28687 313.245503 
L 305.607455 314.138495 
L 306.248626 316.854694 
L 307.851552 324.237456 
L 308.653015 326.854248 
L 309.454478 328.72401 
L 310.255942 330.068056 
L 311.217697 331.252094 
L 312.339746 332.278902 
L 313.622087 333.135187 
L 314.904428 333.723265 
L 316.347061 334.139888 
L 318.270573 334.436841 
L 320.995547 334.607957 
L 326.445497 334.67912 
L 333.818957 334.684662 
L 333.97925 411.10629 
L 334.139543 430.919946 
L 334.299835 422.583414 
L 335.261591 304.145189 
L 335.582176 290.627885 
L 335.902762 285.32327 
L 337.185103 274.398421 
L 338.467444 259.317544 
L 338.627736 257.925748 
L 338.948321 118.793496 
L 339.108614 108.531087 
L 339.268907 116.217531 
L 339.749785 176.971867 
L 340.390955 249.66065 
L 340.871833 282.008644 
L 341.352711 302.215125 
L 341.833589 314.714774 
L 342.314467 321.232835 
L 342.635052 322.82399 
L 342.795344 322.948362 
L 342.955637 322.707216 
L 343.276222 321.393891 
L 344.718856 313.361362 
L 345.039441 312.852284 
L 345.199734 312.838269 
L 345.520319 313.245503 
L 345.840904 314.138495 
L 346.482075 316.854694 
L 348.085001 324.237456 
L 348.886464 326.854248 
L 349.687927 328.72401 
L 350.48939 330.068056 
L 351.451146 331.252094 
L 352.573195 332.278902 
L 353.855536 333.135187 
L 355.137877 333.723265 
L 356.58051 334.139888 
L 358.504022 334.436841 
L 361.228996 334.607957 
L 366.678946 334.67912 
L 373.090651 334.684592 
L 373.250943 411.106223 
L 373.411236 430.919887 
L 373.571528 422.583363 
L 374.533284 304.145166 
L 374.853869 290.627865 
L 375.174455 285.323253 
L 376.456796 274.398413 
L 377.739137 259.317541 
L 377.899429 257.925746 
L 378.220015 118.793494 
L 378.380307 108.531086 
L 378.5406 116.21753 
L 379.021478 176.971866 
L 379.662648 249.66065 
L 380.143526 282.008644 
L 380.624404 302.215125 
L 381.105282 314.714774 
L 381.58616 321.232834 
L 381.906745 322.82399 
L 382.067038 322.948362 
L 382.22733 322.707216 
L 382.547915 321.393891 
L 383.990549 313.361362 
L 384.311134 312.852284 
L 384.471427 312.838269 
L 384.792012 313.245503 
L 385.112597 314.138495 
L 385.753768 316.854694 
L 387.356694 324.237456 
L 388.158157 326.854248 
L 388.95962 328.72401 
L 389.761084 330.068056 
L 390.722839 331.252094 
L 391.844888 332.278902 
L 393.127229 333.135187 
L 394.40957 333.723265 
L 395.852203 334.139888 
L 397.775715 334.436841 
L 400.500689 334.607957 
L 405.950639 334.67912 
L 413.644685 334.684678 
L 413.804977 411.106305 
L 413.96527 430.919959 
L 414.125563 422.583426 
L 415.087318 304.145195 
L 415.407904 290.627889 
L 415.728489 285.323273 
L 417.01083 274.398422 
L 418.293171 259.317544 
L 418.453463 257.925748 
L 418.774049 118.793496 
L 418.934341 108.531087 
L 419.094634 116.217531 
L 419.575512 176.971867 
L 420.216682 249.66065 
L 420.69756 282.008644 
L 421.178438 302.215125 
L 421.659316 314.714774 
L 422.140194 321.232835 
L 422.460779 322.82399 
L 422.621072 322.948362 
L 422.781364 322.707216 
L 423.10195 321.393891 
L 424.544583 313.361362 
L 424.865168 312.852284 
L 425.025461 312.838269 
L 425.346046 313.245503 
L 425.666632 314.138495 
L 426.307802 316.854694 
L 427.910728 324.237456 
L 428.712191 326.854248 
L 429.513655 328.72401 
L 430.315118 330.068056 
L 431.276873 331.252094 
L 432.398922 332.278902 
L 433.681263 333.135187 
L 434.963604 333.723265 
L 436.406237 334.139888 
L 438.329749 334.436841 
L 441.054724 334.607957 
L 446.504673 334.67912 
L 453.557548 334.684643 
L 453.717841 411.106272 
L 453.878134 430.91993 
L 454.038426 422.583401 
L 455.000182 304.145183 
L 455.320767 290.62788 
L 455.641352 285.323265 
L 456.923693 274.398419 
L 458.206034 259.317543 
L 458.366327 257.925747 
L 458.686912 118.793496 
L 458.847205 108.531087 
L 459.007498 116.217531 
L 459.488375 176.971867 
L 460.129546 249.66065 
L 460.610424 282.008644 
L 461.091302 302.215125 
L 461.57218 314.714774 
L 462.053057 321.232835 
L 462.373643 322.82399 
L 462.533935 322.948362 
L 462.694228 322.707216 
L 463.014813 321.393891 
L 464.457447 313.361362 
L 464.778032 312.852284 
L 464.938325 312.838269 
L 465.25891 313.245503 
L 465.579495 314.138495 
L 466.220666 316.854694 
L 467.823592 324.237456 
L 468.625055 326.854248 
L 469.426518 328.72401 
L 470.227981 330.068056 
L 471.189737 331.252094 
L 472.311785 332.278902 
L 473.594126 333.135187 
L 474.876467 333.723265 
L 476.319101 334.139888 
L 478.242613 334.436841 
L 480.967587 334.607957 
L 486.417536 334.67912 
L 493.630705 334.684653 
L 493.790997 411.106281 
L 493.95129 430.919939 
L 494.111582 422.583408 
L 495.073338 304.145186 
L 495.393923 290.627882 
L 495.714509 285.323268 
L 496.99685 274.39842 
L 498.279191 259.317543 
L 498.439483 257.925748 
L 498.760069 118.793496 
L 498.920361 108.531087 
L 499.080654 116.217531 
L 499.561532 176.971867 
L 500.202702 249.66065 
L 500.68358 282.008644 
L 501.164458 302.215125 
L 501.645336 314.714774 
L 502.126214 321.232835 
L 502.446799 322.82399 
L 502.607092 322.948362 
L 502.767384 322.707216 
L 503.087969 321.393891 
L 504.530603 313.361362 
L 504.851188 312.852284 
L 505.011481 312.838269 
L 505.332066 313.245503 
L 505.652651 314.138495 
L 506.293822 316.854694 
L 507.896748 324.237456 
L 508.698211 326.854248 
L 509.499674 328.72401 
L 510.301138 330.068056 
L 511.262893 331.252094 
L 512.384942 332.278902 
L 513.667283 333.135187 
L 514.949624 333.723265 
L 516.392257 334.139888 
L 518.315769 334.436841 
L 521.040743 334.607957 
L 526.490693 334.67912 
L 533.864153 334.684662 
L 534.024446 411.10629 
L 534.184739 430.919946 
L 534.345031 422.583414 
L 535.306787 304.145189 
L 535.627372 290.627885 
L 535.947958 285.32327 
L 537.230299 274.398421 
L 538.51264 259.317544 
L 538.672932 257.925748 
L 538.993517 118.793496 
L 539.15381 108.531087 
L 539.314103 116.217531 
L 539.794981 176.971867 
L 540.436151 249.66065 
L 540.917029 282.008644 
L 541.397907 302.215125 
L 541.878785 314.714774 
L 542.359663 321.232835 
L 542.680248 322.82399 
L 542.84054 322.948362 
L 543.000833 322.707216 
L 543.321418 321.393891 
L 544.764052 313.361362 
L 545.084637 312.852284 
L 545.24493 312.838269 
L 545.565515 313.245503 
L 545.8861 314.138495 
L 546.527271 316.854694 
L 548.130197 324.237456 
L 548.93166 326.854248 
L 549.733123 328.72401 
L 550.534586 330.068056 
L 551.496342 331.252094 
L 552.618391 332.278902 
L 553.900732 333.135187 
L 555.183073 333.723265 
L 556.625706 334.139888 
L 558.549218 334.436841 
L 561.274192 334.607957 
L 566.724142 334.67912 
L 574.257895 334.684671 
L 574.418188 411.106298 
L 574.57848 430.919953 
L 574.738773 422.58342 
L 575.700529 304.145192 
L 576.021114 290.627887 
L 576.341699 285.323272 
L 577.62404 274.398421 
L 578.906381 259.317544 
L 579.066674 257.925748 
L 579.387259 118.793496 
L 579.547552 108.531087 
L 579.707844 116.217531 
L 580.188722 176.971867 
L 580.829893 249.66065 
L 581.31077 282.008644 
L 581.791648 302.215125 
L 582.272526 314.714774 
L 582.753404 321.232835 
L 583.073989 322.82399 
L 583.234282 322.948362 
L 583.394575 322.707216 
L 583.71516 321.393891 
L 585.157793 313.361362 
L 585.478379 312.852284 
L 585.638671 312.838269 
L 585.959257 313.245503 
L 586.279842 314.138495 
L 586.921012 316.854694 
L 588.523939 324.237456 
L 589.325402 326.854248 
L 590.126865 328.72401 
L 590.928328 330.068056 
L 591.890084 331.252094 
L 593.012132 332.278902 
L 594.294473 333.135187 
L 595.576814 333.723265 
L 597.019448 334.139888 
L 598.942959 334.436841 
L 601.667934 334.607957 
L 607.117883 334.67912 
L 613.209003 334.684558 
L 613.369295 411.106191 
L 613.529588 430.919859 
L 613.689881 422.583339 
L 614.651636 304.145154 
L 614.972222 290.627856 
L 615.292807 285.323245 
L 616.575148 274.398409 
L 617.857489 259.31754 
L 618.017782 257.925745 
L 618.338367 118.793493 
L 618.498659 108.531085 
L 618.658952 116.217529 
L 619.13983 176.971865 
L 619.781 249.660649 
L 620.261878 282.008643 
L 620.742756 302.215125 
L 621.223634 314.714774 
L 621.704512 321.232834 
L 622.025097 322.82399 
L 622.18539 322.948362 
L 622.345682 322.707215 
L 622.666268 321.393891 
L 624.108901 313.361362 
L 624.429487 312.852283 
L 624.589779 312.838268 
L 624.910364 313.245503 
L 625.23095 314.138495 
L 625.87212 316.854694 
L 627.475046 324.237456 
L 628.27651 326.854248 
L 629.077973 328.72401 
L 629.879436 330.068056 
L 630.841192 331.252094 
L 631.96324 332.278902 
L 633.245581 333.135187 
L 634.527922 333.723265 
L 635.970556 334.139888 
L 637.894067 334.436841 
L 640.619042 334.607957 
L 646.068991 334.67912 
L 653.92333 334.684685 
L 654.083622 411.106311 
L 654.243915 430.919965 
L 654.404207 422.583431 
L 655.365963 304.145197 
L 655.686548 290.627891 
L 656.007134 285.323275 
L 657.289475 274.398422 
L 658.571816 259.317544 
L 658.732108 257.925748 
L 659.052694 118.793496 
L 659.212986 108.531088 
L 659.373279 116.217531 
L 659.854157 176.971867 
L 660.495327 249.66065 
L 660.976205 282.008644 
L 661.457083 302.215125 
L 661.937961 314.714774 
L 662.418839 321.232835 
L 662.739424 322.82399 
L 662.899717 322.948362 
L 663.060009 322.707216 
L 663.380594 321.393891 
L 664.823228 313.361362 
L 665.143813 312.852284 
L 665.304106 312.838269 
L 665.624691 313.245503 
L 665.945276 314.138495 
L 666.586447 316.854694 
L 668.189373 324.237456 
L 668.990836 326.854248 
L 669.792299 328.72401 
L 670.593763 330.068056 
L 671.555518 331.252094 
L 672.677567 332.278902 
L 673.959908 333.135187 
L 675.242249 333.723265 
L 676.684882 334.139888 
L 678.608394 334.436841 
L 681.333368 334.607957 
L 686.783318 334.67912 
L 694.156778 334.684662 
L 694.317071 411.10629 
L 694.477364 430.919946 
L 694.637656 422.583414 
L 695.599412 304.145189 
L 695.919997 290.627885 
L 696.240583 285.32327 
L 697.522924 274.398421 
L 698.805265 259.317544 
L 698.965557 257.925748 
L 699.286142 118.793496 
L 699.446435 108.531087 
L 699.606728 116.217531 
L 700.087606 176.971867 
L 700.728776 249.66065 
L 701.209654 282.008644 
L 701.690532 302.215125 
L 702.17141 314.714774 
L 702.652288 321.232835 
L 702.972873 322.82399 
L 703.133165 322.948362 
L 703.293458 322.707216 
L 703.614043 321.393891 
L 705.056677 313.361362 
L 705.377262 312.852284 
L 705.537555 312.838269 
L 705.85814 313.245503 
L 706.178725 314.138495 
L 706.819896 316.854694 
L 708.422822 324.237456 
L 709.224285 326.854248 
L 710.025748 328.72401 
L 710.827211 330.068056 
L 711.788967 331.252094 
L 712.911016 332.278902 
L 714.193357 333.135187 
L 715.475698 333.723265 
L 716.918331 334.139888 
L 718.841843 334.436841 
L 721.566817 334.607957 
L 727.016767 334.67912 
L 734.069642 334.684643 
L 734.229935 411.106272 
L 734.390227 430.91993 
L 734.55052 422.583401 
L 735.512276 304.145183 
L 735.832861 290.62788 
L 736.153446 285.323265 
L 737.435787 274.398419 
L 738.718128 259.317543 
L 738.878421 257.925747 
L 739.199006 118.793496 
L 739.359299 108.531087 
L 739.519591 116.217531 
L 740.000469 176.971867 
L 740.64164 249.66065 
L 741.122518 282.008644 
L 741.603395 302.215125 
L 742.084273 314.714774 
L 742.565151 321.232835 
L 742.885736 322.82399 
L 743.046029 322.948362 
L 743.206322 322.707216 
L 743.526907 321.393891 
L 744.969541 313.361362 
L 745.290126 312.852284 
L 745.450418 312.838269 
L 745.771004 313.245503 
L 746.091589 314.138495 
L 746.732759 316.854694 
L 748.335686 324.237456 
L 749.137149 326.854248 
L 749.938612 328.72401 
L 750.740075 330.068056 
L 751.701831 331.252094 
L 752.823879 332.278902 
L 754.10622 333.135187 
L 755.388561 333.723265 
L 756.831195 334.139888 
L 758.754706 334.436841 
L 761.479681 334.607957 
L 766.92963 334.67912 
L 773.822213 334.684632 
L 773.982506 411.106261 
L 774.142798 430.919921 
L 774.303091 422.583393 
L 775.264847 304.145179 
L 775.585432 290.627877 
L 775.906017 285.323263 
L 777.188358 274.398418 
L 778.470699 259.317543 
L 778.630992 257.925747 
L 778.951577 118.793495 
L 779.11187 108.531087 
L 779.272162 116.217531 
L 779.75304 176.971866 
L 780.394211 249.66065 
L 780.875089 282.008644 
L 781.355966 302.215125 
L 781.836844 314.714774 
L 782.317722 321.232835 
L 782.638307 322.82399 
L 782.7986 322.948362 
L 782.958893 322.707216 
L 783.279478 321.393891 
L 784.722112 313.361362 
L 785.042697 312.852284 
L 785.202989 312.838269 
L 785.523575 313.245503 
L 785.84416 314.138495 
L 786.48533 316.854694 
L 788.088257 324.237456 
L 788.88972 326.854248 
L 789.691183 328.72401 
L 790.492646 330.068056 
L 791.454402 331.252094 
L 792.57645 332.278902 
L 793.858791 333.135187 
L 795.141132 333.723265 
L 796.583766 334.139888 
L 798.507277 334.436841 
L 801.232252 334.607957 
L 806.682201 334.67912 
L 813.414491 334.68462 
L 813.574784 411.10625 
L 813.735077 430.919911 
L 813.895369 422.583384 
L 814.857125 304.145175 
L 815.17771 290.627873 
L 815.498296 285.32326 
L 816.780637 274.398416 
L 818.062978 259.317542 
L 818.22327 257.925747 
L 818.543855 118.793495 
L 818.704148 108.531087 
L 818.864441 116.21753 
L 819.345319 176.971866 
L 819.986489 249.66065 
L 820.467367 282.008644 
L 820.948245 302.215125 
L 821.429123 314.714774 
L 821.910001 321.232835 
L 822.230586 322.82399 
L 822.390878 322.948362 
L 822.551171 322.707216 
L 822.871756 321.393891 
L 824.31439 313.361362 
L 824.634975 312.852284 
L 824.795268 312.838269 
L 825.115853 313.245503 
L 825.436438 314.138495 
L 826.077609 316.854694 
L 827.680535 324.237456 
L 828.481998 326.854248 
L 829.283461 328.72401 
L 830.084924 330.068056 
L 831.04668 331.252094 
L 832.168729 332.278902 
L 833.45107 333.135187 
L 834.733411 333.723265 
L 836.176044 334.139888 
L 838.099556 334.436841 
L 840.82453 334.607957 
L 846.27448 334.67912 
L 854.609696 334.684701 
L 854.769989 411.106326 
L 854.930281 430.919979 
L 855.090574 422.583442 
L 856.05233 304.145202 
L 856.372915 290.627895 
L 856.6935 285.323278 
L 857.975841 274.398424 
L 859.258182 259.317544 
L 859.418475 257.925748 
L 859.73906 118.793496 
L 859.899353 108.531087 
L 860.059645 116.217531 
L 860.540523 176.971867 
L 861.181694 249.66065 
L 861.662572 282.008644 
L 862.143449 302.215125 
L 862.624327 314.714774 
L 863.105205 321.232835 
L 863.42579 322.82399 
L 863.586083 322.948362 
L 863.746376 322.707216 
L 864.066961 321.393891 
L 865.509595 313.361362 
L 865.83018 312.852284 
L 865.990472 312.838269 
L 866.311058 313.245503 
L 866.631643 314.138495 
L 867.272813 316.854694 
L 868.87574 324.237456 
L 869.677203 326.854248 
L 870.478666 328.72401 
L 871.280129 330.068056 
L 872.241885 331.252094 
L 873.363933 332.278902 
L 874.646274 333.135187 
L 875.928615 333.723265 
L 877.371249 334.139888 
L 879.29476 334.436841 
L 882.019735 334.607957 
L 887.469684 334.67912 
L 894.362267 334.684632 
L 894.52256 411.106261 
L 894.682852 430.919921 
L 894.843145 422.583393 
L 895.804901 304.145179 
L 896.125486 290.627877 
L 896.446071 285.323263 
L 897.728412 274.398418 
L 899.010753 259.317543 
L 899.171046 257.925747 
L 899.491631 118.793495 
L 899.651924 108.531087 
L 899.812216 116.217531 
L 900.293094 176.971866 
L 900.934265 249.66065 
L 901.415143 282.008644 
L 901.89602 302.215125 
L 902.376898 314.714774 
L 902.857776 321.232835 
L 903.178361 322.82399 
L 903.338654 322.948362 
L 903.498947 322.707216 
L 903.819532 321.393891 
L 905.262166 313.361362 
L 905.582751 312.852284 
L 905.743043 312.838269 
L 906.063629 313.245503 
L 906.384214 314.138495 
L 907.025384 316.854694 
L 908.628311 324.237456 
L 909.429774 326.854248 
L 910.231237 328.72401 
L 911.0327 330.068056 
L 911.994456 331.252094 
L 913.116504 332.278902 
L 914.398845 333.135187 
L 915.681186 333.723265 
L 917.12382 334.139888 
L 919.047331 334.436841 
L 921.772306 334.607957 
L 927.222255 334.67912 
L 933.794253 334.684607 
L 933.954545 411.106237 
L 933.954545 411.106237 
" clip-path="url(#p31ff5c2028)" style="fill: none; stroke: #1f77b4; stroke-width: 1.5; stroke-linecap: square"/>
   </g>
   <g id="line2d_15">
    <path d="M 173.045455 78.12 
L 177.693941 78.12 
L 177.854233 334.684727 
L 213.278903 334.684727 
L 213.439196 78.12 
L 218.087682 78.12 
L 218.247975 334.684727 
L 253.99323 334.684727 
L 254.153523 78.12 
L 258.802009 78.12 
L 258.962302 334.684727 
L 293.585509 334.684727 
L 293.745801 78.12 
L 298.394287 78.12 
L 298.55458 334.684727 
L 333.818957 334.684727 
L 333.97925 78.12 
L 338.627736 78.12 
L 338.788029 334.684727 
L 373.090651 334.684727 
L 373.250943 78.12 
L 377.899429 78.12 
L 378.059722 334.684727 
L 413.644685 334.684727 
L 413.804977 78.12 
L 418.453463 78.12 
L 418.613756 334.684727 
L 453.557548 334.684727 
L 453.717841 78.12 
L 458.366327 78.12 
L 458.52662 334.684727 
L 493.630705 334.684727 
L 493.790997 78.12 
L 498.439483 78.12 
L 498.599776 334.684727 
L 533.864153 334.684727 
L 534.024446 78.12 
L 538.672932 78.12 
L 538.833225 334.684727 
L 574.257895 334.684727 
L 574.418188 78.12 
L 579.066674 78.12 
L 579.226966 334.684727 
L 613.209003 334.684727 
L 613.369295 78.12 
L 618.017782 78.12 
L 618.178074 334.684727 
L 653.92333 334.684727 
L 654.083622 78.12 
L 658.732108 78.12 
L 658.892401 334.684727 
L 694.156778 334.684727 
L 694.317071 78.12 
L 698.965557 78.12 
L 699.12585 334.684727 
L 734.069642 334.684727 
L 734.229935 78.12 
L 738.878421 78.12 
L 739.038713 334.684727 
L 773.822213 334.684727 
L 773.982506 78.12 
L 778.630992 78.12 
L 778.791284 334.684727 
L 813.414491 334.684727 
L 813.574784 78.12 
L 818.22327 78.12 
L 818.383563 334.684727 
L 854.609696 334.684727 
L 854.769989 78.12 
L 859.418475 78.12 
L 859.578767 334.684727 
L 894.362267 334.684727 
L 894.52256 78.12 
L 899.171046 78.12 
L 899.331338 334.684727 
L 933.794253 334.684727 
L 933.954545 78.12 
L 933.954545 78.12 
" clip-path="url(#p31ff5c2028)" style="fill: none; stroke: #ff7f0e; stroke-width: 1.5; stroke-linecap: square"/>
   </g>
   <g id="line2d_16">
    <path d="M 929.466352 334.684727 
" clip-path="url(#p31ff5c2028)" style="fill: none; stroke: #000000; stroke-width: 1.5; stroke-linecap: square"/>
    <defs>
     <path id="m60e132f371" d="M 0 1 
C 0.265203 1 0.51958 0.894634 0.707107 0.707107 
C 0.894634 0.51958 1 0.265203 1 0 
C 1 -0.265203 0.894634 -0.51958 0.707107 -0.707107 
C 0.51958 -0.894634 0.265203 -1 0 -1 
C -0.265203 -1 -0.51958 -0.894634 -0.707107 -0.707107 
C -0.894634 -0.51958 -1 -0.265203 -1 0 
C -1 0.265203 -0.894634 0.51958 -0.707107 0.707107 
C -0.51958 0.894634 -0.265203 1 0 1 
z
" style="stroke: #000000"/>
    </defs>
    <g clip-path="url(#p31ff5c2028)">
     <use xlink:href="#m60e132f371" x="173.045455" y="78.12" style="stroke: #000000"/>
     <use xlink:href="#m60e132f371" x="178.174819" y="334.684727" style="stroke: #000000"/>
     <use xlink:href="#m60e132f371" x="183.14389" y="334.684727" style="stroke: #000000"/>
     <use xlink:href="#m60e132f371" x="188.112961" y="78.12" style="stroke: #000000"/>
     <use xlink:href="#m60e132f371" x="193.082033" y="334.684727" style="stroke: #000000"/>
     <use xlink:href="#m60e132f371" x="198.211397" y="334.684727" style="stroke: #000000"/>
     <use xlink:href="#m60e132f371" x="203.180468" y="78.12" style="stroke: #000000"/>
     <use xlink:href="#m60e132f371" x="208.149539" y="334.684727" style="stroke: #000000"/>
     <use xlink:href="#m60e132f371" x="213.118611" y="78.12" style="stroke: #000000"/>
     <use xlink:href="#m60e132f371" x="218.247975" y="334.684727" style="stroke: #000000"/>
     <use xlink:href="#m60e132f371" x="223.217046" y="334.684727" style="stroke: #000000"/>
     <use xlink:href="#m60e132f371" x="228.186118" y="78.12" style="stroke: #000000"/>
     <use xlink:href="#m60e132f371" x="233.155189" y="334.684727" style="stroke: #000000"/>
     <use xlink:href="#m60e132f371" x="238.284553" y="334.684727" style="stroke: #000000"/>
     <use xlink:href="#m60e132f371" x="243.253624" y="78.12" style="stroke: #000000"/>
     <use xlink:href="#m60e132f371" x="248.222696" y="334.684727" style="stroke: #000000"/>
     <use xlink:href="#m60e132f371" x="253.191767" y="78.12" style="stroke: #000000"/>
     <use xlink:href="#m60e132f371" x="258.321131" y="334.684727" style="stroke: #000000"/>
     <use xlink:href="#m60e132f371" x="263.290202" y="334.684727" style="stroke: #000000"/>
     <use xlink:href="#m60e132f371" x="268.259274" y="78.12" style="stroke: #000000"/>
     <use xlink:href="#m60e132f371" x="273.228345" y="334.684727" style="stroke: #000000"/>
     <use xlink:href="#m60e132f371" x="278.357709" y="334.684727" style="stroke: #000000"/>
     <use xlink:href="#m60e132f371" x="283.326781" y="78.12" style="stroke: #000000"/>
     <use xlink:href="#m60e132f371" x="288.295852" y="334.684727" style="stroke: #000000"/>
     <use xlink:href="#m60e132f371" x="293.264923" y="78.12" style="stroke: #000000"/>
     <use xlink:href="#m60e132f371" x="298.394287" y="334.684727" style="stroke: #000000"/>
     <use xlink:href="#m60e132f371" x="303.363359" y="334.684727" style="stroke: #000000"/>
     <use xlink:href="#m60e132f371" x="308.33243" y="78.12" style="stroke: #000000"/>
     <use xlink:href="#m60e132f371" x="313.301501" y="334.684727" style="stroke: #000000"/>
     <use xlink:href="#m60e132f371" x="318.430865" y="334.684727" style="stroke: #000000"/>
     <use xlink:href="#m60e132f371" x="323.399937" y="78.12" style="stroke: #000000"/>
     <use xlink:href="#m60e132f371" x="328.369008" y="334.684727" style="stroke: #000000"/>
     <use xlink:href="#m60e132f371" x="333.33808" y="78.12" style="stroke: #000000"/>
     <use xlink:href="#m60e132f371" x="338.467444" y="334.684727" style="stroke: #000000"/>
     <use xlink:href="#m60e132f371" x="343.436515" y="334.684727" style="stroke: #000000"/>
     <use xlink:href="#m60e132f371" x="348.405586" y="78.12" style="stroke: #000000"/>
     <use xlink:href="#m60e132f371" x="353.374658" y="334.684727" style="stroke: #000000"/>
     <use xlink:href="#m60e132f371" x="358.504022" y="334.684727" style="stroke: #000000"/>
     <use xlink:href="#m60e132f371" x="363.473093" y="78.12" style="stroke: #000000"/>
     <use xlink:href="#m60e132f371" x="368.442164" y="334.684727" style="stroke: #000000"/>
     <use xlink:href="#m60e132f371" x="373.411236" y="78.12" style="stroke: #000000"/>
     <use xlink:href="#m60e132f371" x="378.5406" y="334.684727" style="stroke: #000000"/>
     <use xlink:href="#m60e132f371" x="383.509671" y="334.684727" style="stroke: #000000"/>
     <use xlink:href="#m60e132f371" x="388.478743" y="78.12" style="stroke: #000000"/>
     <use xlink:href="#m60e132f371" x="393.447814" y="334.684727" style="stroke: #000000"/>
     <use xlink:href="#m60e132f371" x="398.577178" y="334.684727" style="stroke: #000000"/>
     <use xlink:href="#m60e132f371" x="403.546249" y="78.12" style="stroke: #000000"/>
     <use xlink:href="#m60e132f371" x="408.515321" y="334.684727" style="stroke: #000000"/>
     <use xlink:href="#m60e132f371" x="413.484392" y="78.12" style="stroke: #000000"/>
     <use xlink:href="#m60e132f371" x="418.613756" y="334.684727" style="stroke: #000000"/>
     <use xlink:href="#m60e132f371" x="423.582827" y="334.684727" style="stroke: #000000"/>
     <use xlink:href="#m60e132f371" x="428.551899" y="78.12" style="stroke: #000000"/>
     <use xlink:href="#m60e132f371" x="433.52097" y="334.684727" style="stroke: #000000"/>
     <use xlink:href="#m60e132f371" x="438.650334" y="334.684727" style="stroke: #000000"/>
     <use xlink:href="#m60e132f371" x="443.619406" y="78.12" style="stroke: #000000"/>
     <use xlink:href="#m60e132f371" x="448.588477" y="334.684727" style="stroke: #000000"/>
     <use xlink:href="#m60e132f371" x="453.557548" y="78.12" style="stroke: #000000"/>
     <use xlink:href="#m60e132f371" x="458.686912" y="334.684727" style="stroke: #000000"/>
     <use xlink:href="#m60e132f371" x="463.655984" y="334.684727" style="stroke: #000000"/>
     <use xlink:href="#m60e132f371" x="468.625055" y="78.12" style="stroke: #000000"/>
     <use xlink:href="#m60e132f371" x="473.594126" y="334.684727" style="stroke: #000000"/>
     <use xlink:href="#m60e132f371" x="478.72349" y="334.684727" style="stroke: #000000"/>
     <use xlink:href="#m60e132f371" x="483.692562" y="78.12" style="stroke: #000000"/>
     <use xlink:href="#m60e132f371" x="488.661633" y="334.684727" style="stroke: #000000"/>
     <use xlink:href="#m60e132f371" x="493.630705" y="78.12" style="stroke: #000000"/>
     <use xlink:href="#m60e132f371" x="498.760069" y="334.684727" style="stroke: #000000"/>
     <use xlink:href="#m60e132f371" x="503.72914" y="334.684727" style="stroke: #000000"/>
     <use xlink:href="#m60e132f371" x="508.698211" y="78.12" style="stroke: #000000"/>
     <use xlink:href="#m60e132f371" x="513.667283" y="334.684727" style="stroke: #000000"/>
     <use xlink:href="#m60e132f371" x="518.796647" y="334.684727" style="stroke: #000000"/>
     <use xlink:href="#m60e132f371" x="523.765718" y="78.12" style="stroke: #000000"/>
     <use xlink:href="#m60e132f371" x="528.734789" y="334.684727" style="stroke: #000000"/>
     <use xlink:href="#m60e132f371" x="533.703861" y="78.12" style="stroke: #000000"/>
     <use xlink:href="#m60e132f371" x="538.833225" y="334.684727" style="stroke: #000000"/>
     <use xlink:href="#m60e132f371" x="543.802296" y="334.684727" style="stroke: #000000"/>
     <use xlink:href="#m60e132f371" x="548.771368" y="78.12" style="stroke: #000000"/>
     <use xlink:href="#m60e132f371" x="553.740439" y="334.684727" style="stroke: #000000"/>
     <use xlink:href="#m60e132f371" x="558.869803" y="334.684727" style="stroke: #000000"/>
     <use xlink:href="#m60e132f371" x="563.838874" y="78.12" style="stroke: #000000"/>
     <use xlink:href="#m60e132f371" x="568.807946" y="334.684727" style="stroke: #000000"/>
     <use xlink:href="#m60e132f371" x="573.777017" y="78.12" style="stroke: #000000"/>
     <use xlink:href="#m60e132f371" x="578.906381" y="334.684727" style="stroke: #000000"/>
     <use xlink:href="#m60e132f371" x="583.875452" y="334.684727" style="stroke: #000000"/>
     <use xlink:href="#m60e132f371" x="588.844524" y="78.12" style="stroke: #000000"/>
     <use xlink:href="#m60e132f371" x="593.813595" y="334.684727" style="stroke: #000000"/>
     <use xlink:href="#m60e132f371" x="598.942959" y="334.684727" style="stroke: #000000"/>
     <use xlink:href="#m60e132f371" x="603.912031" y="78.12" style="stroke: #000000"/>
     <use xlink:href="#m60e132f371" x="608.881102" y="334.684727" style="stroke: #000000"/>
     <use xlink:href="#m60e132f371" x="613.850173" y="78.12" style="stroke: #000000"/>
     <use xlink:href="#m60e132f371" x="618.979537" y="334.684727" style="stroke: #000000"/>
     <use xlink:href="#m60e132f371" x="623.948609" y="334.684727" style="stroke: #000000"/>
     <use xlink:href="#m60e132f371" x="628.91768" y="78.12" style="stroke: #000000"/>
     <use xlink:href="#m60e132f371" x="633.886751" y="334.684727" style="stroke: #000000"/>
     <use xlink:href="#m60e132f371" x="639.016115" y="334.684727" style="stroke: #000000"/>
     <use xlink:href="#m60e132f371" x="643.985187" y="78.12" style="stroke: #000000"/>
     <use xlink:href="#m60e132f371" x="648.954258" y="334.684727" style="stroke: #000000"/>
     <use xlink:href="#m60e132f371" x="653.92333" y="78.12" style="stroke: #000000"/>
     <use xlink:href="#m60e132f371" x="659.052694" y="334.684727" style="stroke: #000000"/>
     <use xlink:href="#m60e132f371" x="664.021765" y="334.684727" style="stroke: #000000"/>
     <use xlink:href="#m60e132f371" x="668.990836" y="78.12" style="stroke: #000000"/>
     <use xlink:href="#m60e132f371" x="673.959908" y="334.684727" style="stroke: #000000"/>
     <use xlink:href="#m60e132f371" x="679.089272" y="334.684727" style="stroke: #000000"/>
     <use xlink:href="#m60e132f371" x="684.058343" y="78.12" style="stroke: #000000"/>
     <use xlink:href="#m60e132f371" x="689.027414" y="334.684727" style="stroke: #000000"/>
     <use xlink:href="#m60e132f371" x="693.996486" y="78.12" style="stroke: #000000"/>
     <use xlink:href="#m60e132f371" x="699.12585" y="334.684727" style="stroke: #000000"/>
     <use xlink:href="#m60e132f371" x="704.094921" y="334.684727" style="stroke: #000000"/>
     <use xlink:href="#m60e132f371" x="709.063993" y="78.12" style="stroke: #000000"/>
     <use xlink:href="#m60e132f371" x="714.033064" y="334.684727" style="stroke: #000000"/>
     <use xlink:href="#m60e132f371" x="719.162428" y="334.684727" style="stroke: #000000"/>
     <use xlink:href="#m60e132f371" x="724.131499" y="78.12" style="stroke: #000000"/>
     <use xlink:href="#m60e132f371" x="729.100571" y="334.684727" style="stroke: #000000"/>
     <use xlink:href="#m60e132f371" x="734.069642" y="78.12" style="stroke: #000000"/>
     <use xlink:href="#m60e132f371" x="739.199006" y="334.684727" style="stroke: #000000"/>
     <use xlink:href="#m60e132f371" x="744.168077" y="334.684727" style="stroke: #000000"/>
     <use xlink:href="#m60e132f371" x="749.137149" y="78.12" style="stroke: #000000"/>
     <use xlink:href="#m60e132f371" x="754.10622" y="334.684727" style="stroke: #000000"/>
     <use xlink:href="#m60e132f371" x="759.235584" y="334.684727" style="stroke: #000000"/>
     <use xlink:href="#m60e132f371" x="764.204656" y="78.12" style="stroke: #000000"/>
     <use xlink:href="#m60e132f371" x="769.173727" y="334.684727" style="stroke: #000000"/>
     <use xlink:href="#m60e132f371" x="774.142798" y="78.12" style="stroke: #000000"/>
     <use xlink:href="#m60e132f371" x="779.272162" y="334.684727" style="stroke: #000000"/>
     <use xlink:href="#m60e132f371" x="784.241234" y="334.684727" style="stroke: #000000"/>
     <use xlink:href="#m60e132f371" x="789.210305" y="78.12" style="stroke: #000000"/>
     <use xlink:href="#m60e132f371" x="794.179376" y="334.684727" style="stroke: #000000"/>
     <use xlink:href="#m60e132f371" x="799.30874" y="334.684727" style="stroke: #000000"/>
     <use xlink:href="#m60e132f371" x="804.277812" y="78.12" style="stroke: #000000"/>
     <use xlink:href="#m60e132f371" x="809.246883" y="334.684727" style="stroke: #000000"/>
     <use xlink:href="#m60e132f371" x="814.215955" y="78.12" style="stroke: #000000"/>
     <use xlink:href="#m60e132f371" x="819.345319" y="334.684727" style="stroke: #000000"/>
     <use xlink:href="#m60e132f371" x="824.31439" y="334.684727" style="stroke: #000000"/>
     <use xlink:href="#m60e132f371" x="829.283461" y="78.12" style="stroke: #000000"/>
     <use xlink:href="#m60e132f371" x="834.252533" y="334.684727" style="stroke: #000000"/>
     <use xlink:href="#m60e132f371" x="839.381897" y="334.684727" style="stroke: #000000"/>
     <use xlink:href="#m60e132f371" x="844.350968" y="78.12" style="stroke: #000000"/>
     <use xlink:href="#m60e132f371" x="849.320039" y="334.684727" style="stroke: #000000"/>
     <use xlink:href="#m60e132f371" x="854.289111" y="78.12" style="stroke: #000000"/>
     <use xlink:href="#m60e132f371" x="859.418475" y="334.684727" style="stroke: #000000"/>
     <use xlink:href="#m60e132f371" x="864.387546" y="334.684727" style="stroke: #000000"/>
     <use xlink:href="#m60e132f371" x="869.356618" y="78.12" style="stroke: #000000"/>
     <use xlink:href="#m60e132f371" x="874.325689" y="334.684727" style="stroke: #000000"/>
     <use xlink:href="#m60e132f371" x="879.455053" y="334.684727" style="stroke: #000000"/>
     <use xlink:href="#m60e132f371" x="884.424124" y="78.12" style="stroke: #000000"/>
     <use xlink:href="#m60e132f371" x="889.393196" y="334.684727" style="stroke: #000000"/>
     <use xlink:href="#m60e132f371" x="894.362267" y="78.12" style="stroke: #000000"/>
     <use xlink:href="#m60e132f371" x="899.491631" y="334.684727" style="stroke: #000000"/>
     <use xlink:href="#m60e132f371" x="904.460702" y="334.684727" style="stroke: #000000"/>
     <use xlink:href="#m60e132f371" x="909.429774" y="78.12" style="stroke: #000000"/>
     <use xlink:href="#m60e132f371" x="914.398845" y="334.684727" style="stroke: #000000"/>
     <use xlink:href="#m60e132f371" x="919.528209" y="334.684727" style="stroke: #000000"/>
     <use xlink:href="#m60e132f371" x="924.497281" y="78.12" style="stroke: #000000"/>
     <use xlink:href="#m60e132f371" x="929.466352" y="334.684727" style="stroke: #000000"/>
    </g>
   </g>
   <g id="patch_3">
    <path d="M 135 448.56 
L 135 60.48 
" style="fill: none; stroke: #000000; stroke-width: 0.8; stroke-linejoin: miter; stroke-linecap: square"/>
   </g>
   <g id="patch_4">
    <path d="M 972 448.56 
L 972 60.48 
" style="fill: none; stroke: #000000; stroke-width: 0.8; stroke-linejoin: miter; stroke-linecap: square"/>
   </g>
   <g id="patch_5">
    <path d="M 135 448.56 
L 972 448.56 
" style="fill: none; stroke: #000000; stroke-width: 0.8; stroke-linejoin: miter; stroke-linecap: square"/>
   </g>
   <g id="patch_6">
    <path d="M 135 60.48 
L 972 60.48 
" style="fill: none; stroke: #000000; stroke-width: 0.8; stroke-linejoin: miter; stroke-linecap: square"/>
   </g>
   <g id="legend_1">
    <g id="patch_7">
     <path d="M 142 443.56 
L 211.084375 443.56 
Q 213.084375 443.56 213.084375 441.56 
L 213.084375 397.969375 
Q 213.084375 395.969375 211.084375 395.969375 
L 142 395.969375 
Q 140 395.969375 140 397.969375 
L 140 441.56 
Q 140 443.56 142 443.56 
z
" style="fill: #ffffff; opacity: 0.8; stroke: #cccccc; stroke-linejoin: miter"/>
    </g>
    <g id="line2d_17">
     <path d="M 144 404.067813 
L 154 404.067813 
L 164 404.067813 
" style="fill: none; stroke: #1f77b4; stroke-width: 1.5; stroke-linecap: square"/>
    </g>
    <g id="text_15">
     <!-- nw_0 -->
     <g transform="translate(172 407.567813) scale(0.1 -0.1)">
      <defs>
       <path id="DejaVuSans-6e" d="M 3513 2113 
L 3513 0 
L 2938 0 
L 2938 2094 
Q 2938 2591 2744 2837 
Q 2550 3084 2163 3084 
Q 1697 3084 1428 2787 
Q 1159 2491 1159 1978 
L 1159 0 
L 581 0 
L 581 3500 
L 1159 3500 
L 1159 2956 
Q 1366 3272 1645 3428 
Q 1925 3584 2291 3584 
Q 2894 3584 3203 3211 
Q 3513 2838 3513 2113 
z
" transform="scale(0.015625)"/>
       <path id="DejaVuSans-77" d="M 269 3500 
L 844 3500 
L 1563 769 
L 2278 3500 
L 2956 3500 
L 3675 769 
L 4391 3500 
L 4966 3500 
L 4050 0 
L 3372 0 
L 2619 2869 
L 1863 0 
L 1184 0 
L 269 3500 
z
" transform="scale(0.015625)"/>
       <path id="DejaVuSans-5f" d="M 3263 -1063 
L 3263 -1509 
L -63 -1509 
L -63 -1063 
L 3263 -1063 
z
" transform="scale(0.015625)"/>
      </defs>
      <use xlink:href="#DejaVuSans-6e"/>
      <use xlink:href="#DejaVuSans-77" x="63.378906"/>
      <use xlink:href="#DejaVuSans-5f" x="145.166016"/>
      <use xlink:href="#DejaVuSans-30" x="195.166016"/>
     </g>
    </g>
    <g id="line2d_18">
     <path d="M 144 419.024063 
L 154 419.024063 
L 164 419.024063 
" style="fill: none; stroke: #ff7f0e; stroke-width: 1.5; stroke-linecap: square"/>
    </g>
    <g id="text_16">
     <!-- input_0 -->
     <g transform="translate(172 422.524063) scale(0.1 -0.1)">
      <defs>
       <path id="DejaVuSans-69" d="M 603 3500 
L 1178 3500 
L 1178 0 
L 603 0 
L 603 3500 
z
M 603 4863 
L 1178 4863 
L 1178 4134 
L 603 4134 
L 603 4863 
z
" transform="scale(0.015625)"/>
       <path id="DejaVuSans-70" d="M 1159 525 
L 1159 -1331 
L 581 -1331 
L 581 3500 
L 1159 3500 
L 1159 2969 
Q 1341 3281 1617 3432 
Q 1894 3584 2278 3584 
Q 2916 3584 3314 3078 
Q 3713 2572 3713 1747 
Q 3713 922 3314 415 
Q 2916 -91 2278 -91 
Q 1894 -91 1617 61 
Q 1341 213 1159 525 
z
M 3116 1747 
Q 3116 2381 2855 2742 
Q 2594 3103 2138 3103 
Q 1681 3103 1420 2742 
Q 1159 2381 1159 1747 
Q 1159 1113 1420 752 
Q 1681 391 2138 391 
Q 2594 391 2855 752 
Q 3116 1113 3116 1747 
z
" transform="scale(0.015625)"/>
       <path id="DejaVuSans-75" d="M 544 1381 
L 544 3500 
L 1119 3500 
L 1119 1403 
Q 1119 906 1312 657 
Q 1506 409 1894 409 
Q 2359 409 2629 706 
Q 2900 1003 2900 1516 
L 2900 3500 
L 3475 3500 
L 3475 0 
L 2900 0 
L 2900 538 
Q 2691 219 2414 64 
Q 2138 -91 1772 -91 
Q 1169 -91 856 284 
Q 544 659 544 1381 
z
M 1991 3584 
L 1991 3584 
z
" transform="scale(0.015625)"/>
      </defs>
      <use xlink:href="#DejaVuSans-69"/>
      <use xlink:href="#DejaVuSans-6e" x="27.783203"/>
      <use xlink:href="#DejaVuSans-70" x="91.162109"/>
      <use xlink:href="#DejaVuSans-75" x="154.638672"/>
      <use xlink:href="#DejaVuSans-74" x="218.017578"/>
      <use xlink:href="#DejaVuSans-5f" x="257.226562"/>
      <use xlink:href="#DejaVuSans-30" x="307.226562"/>
     </g>
    </g>
    <g id="line2d_19">
     <path d="M 144 433.980312 
L 154 433.980312 
L 164 433.980312 
" style="fill: none; stroke: #000000; stroke-width: 1.5; stroke-linecap: square"/>
     <g>
      <use xlink:href="#m60e132f371" x="154" y="433.980312" style="stroke: #000000"/>
     </g>
    </g>
    <g id="text_17">
     <!-- target -->
     <g transform="translate(172 437.480312) scale(0.1 -0.1)">
      <defs>
       <path id="DejaVuSans-61" d="M 2194 1759 
Q 1497 1759 1228 1600 
Q 959 1441 959 1056 
Q 959 750 1161 570 
Q 1363 391 1709 391 
Q 2188 391 2477 730 
Q 2766 1069 2766 1631 
L 2766 1759 
L 2194 1759 
z
M 3341 1997 
L 3341 0 
L 2766 0 
L 2766 531 
Q 2569 213 2275 61 
Q 1981 -91 1556 -91 
Q 1019 -91 701 211 
Q 384 513 384 1019 
Q 384 1609 779 1909 
Q 1175 2209 1959 2209 
L 2766 2209 
L 2766 2266 
Q 2766 2663 2505 2880 
Q 2244 3097 1772 3097 
Q 1472 3097 1187 3025 
Q 903 2953 641 2809 
L 641 3341 
Q 956 3463 1253 3523 
Q 1550 3584 1831 3584 
Q 2591 3584 2966 3190 
Q 3341 2797 3341 1997 
z
" transform="scale(0.015625)"/>
       <path id="DejaVuSans-72" d="M 2631 2963 
Q 2534 3019 2420 3045 
Q 2306 3072 2169 3072 
Q 1681 3072 1420 2755 
Q 1159 2438 1159 1844 
L 1159 0 
L 581 0 
L 581 3500 
L 1159 3500 
L 1159 2956 
Q 1341 3275 1631 3429 
Q 1922 3584 2338 3584 
Q 2397 3584 2469 3576 
Q 2541 3569 2628 3553 
L 2631 2963 
z
" transform="scale(0.015625)"/>
       <path id="DejaVuSans-67" d="M 2906 1791 
Q 2906 2416 2648 2759 
Q 2391 3103 1925 3103 
Q 1463 3103 1205 2759 
Q 947 2416 947 1791 
Q 947 1169 1205 825 
Q 1463 481 1925 481 
Q 2391 481 2648 825 
Q 2906 1169 2906 1791 
z
M 3481 434 
Q 3481 -459 3084 -895 
Q 2688 -1331 1869 -1331 
Q 1566 -1331 1297 -1286 
Q 1028 -1241 775 -1147 
L 775 -588 
Q 1028 -725 1275 -790 
Q 1522 -856 1778 -856 
Q 2344 -856 2625 -561 
Q 2906 -266 2906 331 
L 2906 616 
Q 2728 306 2450 153 
Q 2172 0 1784 0 
Q 1141 0 747 490 
Q 353 981 353 1791 
Q 353 2603 747 3093 
Q 1141 3584 1784 3584 
Q 2172 3584 2450 3431 
Q 2728 3278 2906 2969 
L 2906 3500 
L 3481 3500 
L 3481 434 
z
" transform="scale(0.015625)"/>
       <path id="DejaVuSans-65" d="M 3597 1894 
L 3597 1613 
L 953 1613 
Q 991 1019 1311 708 
Q 1631 397 2203 397 
Q 2534 397 2845 478 
Q 3156 559 3463 722 
L 3463 178 
Q 3153 47 2828 -22 
Q 2503 -91 2169 -91 
Q 1331 -91 842 396 
Q 353 884 353 1716 
Q 353 2575 817 3079 
Q 1281 3584 2069 3584 
Q 2775 3584 3186 3129 
Q 3597 2675 3597 1894 
z
M 3022 2063 
Q 3016 2534 2758 2815 
Q 2500 3097 2075 3097 
Q 1594 3097 1305 2825 
Q 1016 2553 972 2059 
L 3022 2063 
z
" transform="scale(0.015625)"/>
      </defs>
      <use xlink:href="#DejaVuSans-74"/>
      <use xlink:href="#DejaVuSans-61" x="39.208984"/>
      <use xlink:href="#DejaVuSans-72" x="100.488281"/>
      <use xlink:href="#DejaVuSans-67" x="139.851562"/>
      <use xlink:href="#DejaVuSans-65" x="203.328125"/>
      <use xlink:href="#DejaVuSans-74" x="264.851562"/>
     </g>
    </g>
   </g>
  </g>
 </g>
 <defs>
  <clipPath id="p31ff5c2028">
   <rect x="135" y="60.48" width="837" height="388.08"/>
  </clipPath>
 </defs>
</svg>
