<?xml version="1.0" encoding="utf-8" standalone="no"?>
<!DOCTYPE svg PUBLIC "-//W3C//DTD SVG 1.1//EN"
  "http://www.w3.org/Graphics/SVG/1.1/DTD/svg11.dtd">
<svg xmlns:xlink="http://www.w3.org/1999/xlink" width="1080pt" height="504pt" viewBox="0 0 1080 504" xmlns="http://www.w3.org/2000/svg" version="1.1">
 <metadata>
  <rdf:RDF xmlns:dc="http://purl.org/dc/elements/1.1/" xmlns:cc="http://creativecommons.org/ns#" xmlns:rdf="http://www.w3.org/1999/02/22-rdf-syntax-ns#">
   <cc:Work>
    <dc:type rdf:resource="http://purl.org/dc/dcmitype/StillImage"/>
    <dc:date>2024-05-09T11:05:47.940336</dc:date>
    <dc:format>image/svg+xml</dc:format>
    <dc:creator>
     <cc:Agent>
      <dc:title>Matplotlib v3.7.1, https://matplotlib.org/</dc:title>
     </cc:Agent>
    </dc:creator>
   </cc:Work>
  </rdf:RDF>
 </metadata>
 <defs>
  <style type="text/css">*{stroke-linejoin: round; stroke-linecap: butt}</style>
 </defs>
 <g id="figure_1">
  <g id="patch_1">
   <path d="M 0 504 
L 1080 504 
L 1080 0 
L 0 0 
z
" style="fill: #ffffff"/>
  </g>
  <g id="axes_1">
   <g id="patch_2">
    <path d="M 135 448.56 
L 972 448.56 
L 972 60.48 
L 135 60.48 
z
" style="fill: #ffffff"/>
   </g>
   <g id="matplotlib.axis_1">
    <g id="xtick_1">
     <g id="line2d_1">
      <defs>
       <path id="mcd1e4c35e8" d="M 0 0 
L 0 3.5 
" style="stroke: #000000; stroke-width: 0.8"/>
      </defs>
      <g>
       <use xlink:href="#mcd1e4c35e8" x="173.045455" y="448.56" style="stroke: #000000; stroke-width: 0.8"/>
      </g>
     </g>
     <g id="text_1">
      <!-- 0 -->
      <g transform="translate(169.864205 463.158437) scale(0.1 -0.1)">
       <defs>
        <path id="DejaVuSans-30" d="M 2034 4250 
Q 1547 4250 1301 3770 
Q 1056 3291 1056 2328 
Q 1056 1369 1301 889 
Q 1547 409 2034 409 
Q 2525 409 2770 889 
Q 3016 1369 3016 2328 
Q 3016 3291 2770 3770 
Q 2525 4250 2034 4250 
z
M 2034 4750 
Q 2819 4750 3233 4129 
Q 3647 3509 3647 2328 
Q 3647 1150 3233 529 
Q 2819 -91 2034 -91 
Q 1250 -91 836 529 
Q 422 1150 422 2328 
Q 422 3509 836 4129 
Q 1250 4750 2034 4750 
z
" transform="scale(0.015625)"/>
       </defs>
       <use xlink:href="#DejaVuSans-30"/>
      </g>
     </g>
    </g>
    <g id="xtick_2">
     <g id="line2d_2">
      <g>
       <use xlink:href="#mcd1e4c35e8" x="333.33808" y="448.56" style="stroke: #000000; stroke-width: 0.8"/>
      </g>
     </g>
     <g id="text_2">
      <!-- 1000 -->
      <g transform="translate(320.61308 463.158437) scale(0.1 -0.1)">
       <defs>
        <path id="DejaVuSans-31" d="M 794 531 
L 1825 531 
L 1825 4091 
L 703 3866 
L 703 4441 
L 1819 4666 
L 2450 4666 
L 2450 531 
L 3481 531 
L 3481 0 
L 794 0 
L 794 531 
z
" transform="scale(0.015625)"/>
       </defs>
       <use xlink:href="#DejaVuSans-31"/>
       <use xlink:href="#DejaVuSans-30" x="63.623047"/>
       <use xlink:href="#DejaVuSans-30" x="127.246094"/>
       <use xlink:href="#DejaVuSans-30" x="190.869141"/>
      </g>
     </g>
    </g>
    <g id="xtick_3">
     <g id="line2d_3">
      <g>
       <use xlink:href="#mcd1e4c35e8" x="493.630705" y="448.56" style="stroke: #000000; stroke-width: 0.8"/>
      </g>
     </g>
     <g id="text_3">
      <!-- 2000 -->
      <g transform="translate(480.905705 463.158437) scale(0.1 -0.1)">
       <defs>
        <path id="DejaVuSans-32" d="M 1228 531 
L 3431 531 
L 3431 0 
L 469 0 
L 469 531 
Q 828 903 1448 1529 
Q 2069 2156 2228 2338 
Q 2531 2678 2651 2914 
Q 2772 3150 2772 3378 
Q 2772 3750 2511 3984 
Q 2250 4219 1831 4219 
Q 1534 4219 1204 4116 
Q 875 4013 500 3803 
L 500 4441 
Q 881 4594 1212 4672 
Q 1544 4750 1819 4750 
Q 2544 4750 2975 4387 
Q 3406 4025 3406 3419 
Q 3406 3131 3298 2873 
Q 3191 2616 2906 2266 
Q 2828 2175 2409 1742 
Q 1991 1309 1228 531 
z
" transform="scale(0.015625)"/>
       </defs>
       <use xlink:href="#DejaVuSans-32"/>
       <use xlink:href="#DejaVuSans-30" x="63.623047"/>
       <use xlink:href="#DejaVuSans-30" x="127.246094"/>
       <use xlink:href="#DejaVuSans-30" x="190.869141"/>
      </g>
     </g>
    </g>
    <g id="xtick_4">
     <g id="line2d_4">
      <g>
       <use xlink:href="#mcd1e4c35e8" x="653.92333" y="448.56" style="stroke: #000000; stroke-width: 0.8"/>
      </g>
     </g>
     <g id="text_4">
      <!-- 3000 -->
      <g transform="translate(641.19833 463.158437) scale(0.1 -0.1)">
       <defs>
        <path id="DejaVuSans-33" d="M 2597 2516 
Q 3050 2419 3304 2112 
Q 3559 1806 3559 1356 
Q 3559 666 3084 287 
Q 2609 -91 1734 -91 
Q 1441 -91 1130 -33 
Q 819 25 488 141 
L 488 750 
Q 750 597 1062 519 
Q 1375 441 1716 441 
Q 2309 441 2620 675 
Q 2931 909 2931 1356 
Q 2931 1769 2642 2001 
Q 2353 2234 1838 2234 
L 1294 2234 
L 1294 2753 
L 1863 2753 
Q 2328 2753 2575 2939 
Q 2822 3125 2822 3475 
Q 2822 3834 2567 4026 
Q 2313 4219 1838 4219 
Q 1578 4219 1281 4162 
Q 984 4106 628 3988 
L 628 4550 
Q 988 4650 1302 4700 
Q 1616 4750 1894 4750 
Q 2613 4750 3031 4423 
Q 3450 4097 3450 3541 
Q 3450 3153 3228 2886 
Q 3006 2619 2597 2516 
z
" transform="scale(0.015625)"/>
       </defs>
       <use xlink:href="#DejaVuSans-33"/>
       <use xlink:href="#DejaVuSans-30" x="63.623047"/>
       <use xlink:href="#DejaVuSans-30" x="127.246094"/>
       <use xlink:href="#DejaVuSans-30" x="190.869141"/>
      </g>
     </g>
    </g>
    <g id="xtick_5">
     <g id="line2d_5">
      <g>
       <use xlink:href="#mcd1e4c35e8" x="814.215955" y="448.56" style="stroke: #000000; stroke-width: 0.8"/>
      </g>
     </g>
     <g id="text_5">
      <!-- 4000 -->
      <g transform="translate(801.490955 463.158437) scale(0.1 -0.1)">
       <defs>
        <path id="DejaVuSans-34" d="M 2419 4116 
L 825 1625 
L 2419 1625 
L 2419 4116 
z
M 2253 4666 
L 3047 4666 
L 3047 1625 
L 3713 1625 
L 3713 1100 
L 3047 1100 
L 3047 0 
L 2419 0 
L 2419 1100 
L 313 1100 
L 313 1709 
L 2253 4666 
z
" transform="scale(0.015625)"/>
       </defs>
       <use xlink:href="#DejaVuSans-34"/>
       <use xlink:href="#DejaVuSans-30" x="63.623047"/>
       <use xlink:href="#DejaVuSans-30" x="127.246094"/>
       <use xlink:href="#DejaVuSans-30" x="190.869141"/>
      </g>
     </g>
    </g>
    <g id="text_6">
     <!-- t -->
     <g transform="translate(551.539844 476.836563) scale(0.1 -0.1)">
      <defs>
       <path id="DejaVuSans-74" d="M 1172 4494 
L 1172 3500 
L 2356 3500 
L 2356 3053 
L 1172 3053 
L 1172 1153 
Q 1172 725 1289 603 
Q 1406 481 1766 481 
L 2356 481 
L 2356 0 
L 1766 0 
Q 1100 0 847 248 
Q 594 497 594 1153 
L 594 3053 
L 172 3053 
L 172 3500 
L 594 3500 
L 594 4494 
L 1172 4494 
z
" transform="scale(0.015625)"/>
      </defs>
      <use xlink:href="#DejaVuSans-74"/>
     </g>
    </g>
   </g>
   <g id="matplotlib.axis_2">
    <g id="ytick_1">
     <g id="line2d_6">
      <defs>
       <path id="m96799fc684" d="M 0 0 
L -3.5 0 
" style="stroke: #000000; stroke-width: 0.8"/>
      </defs>
      <g>
       <use xlink:href="#m96799fc684" x="135" y="430.92" style="stroke: #000000; stroke-width: 0.8"/>
      </g>
     </g>
     <g id="text_7">
      <!-- 0.0 -->
      <g transform="translate(112.096875 434.719219) scale(0.1 -0.1)">
       <defs>
        <path id="DejaVuSans-2e" d="M 684 794 
L 1344 794 
L 1344 0 
L 684 0 
L 684 794 
z
" transform="scale(0.015625)"/>
       </defs>
       <use xlink:href="#DejaVuSans-30"/>
       <use xlink:href="#DejaVuSans-2e" x="63.623047"/>
       <use xlink:href="#DejaVuSans-30" x="95.410156"/>
      </g>
     </g>
    </g>
    <g id="ytick_2">
     <g id="line2d_7">
      <g>
       <use xlink:href="#m96799fc684" x="135" y="360.36" style="stroke: #000000; stroke-width: 0.8"/>
      </g>
     </g>
     <g id="text_8">
      <!-- 0.2 -->
      <g transform="translate(112.096875 364.159219) scale(0.1 -0.1)">
       <use xlink:href="#DejaVuSans-30"/>
       <use xlink:href="#DejaVuSans-2e" x="63.623047"/>
       <use xlink:href="#DejaVuSans-32" x="95.410156"/>
      </g>
     </g>
    </g>
    <g id="ytick_3">
     <g id="line2d_8">
      <g>
       <use xlink:href="#m96799fc684" x="135" y="289.8" style="stroke: #000000; stroke-width: 0.8"/>
      </g>
     </g>
     <g id="text_9">
      <!-- 0.4 -->
      <g transform="translate(112.096875 293.599219) scale(0.1 -0.1)">
       <use xlink:href="#DejaVuSans-30"/>
       <use xlink:href="#DejaVuSans-2e" x="63.623047"/>
       <use xlink:href="#DejaVuSans-34" x="95.410156"/>
      </g>
     </g>
    </g>
    <g id="ytick_4">
     <g id="line2d_9">
      <g>
       <use xlink:href="#m96799fc684" x="135" y="219.24" style="stroke: #000000; stroke-width: 0.8"/>
      </g>
     </g>
     <g id="text_10">
      <!-- 0.6 -->
      <g transform="translate(112.096875 223.039219) scale(0.1 -0.1)">
       <defs>
        <path id="DejaVuSans-36" d="M 2113 2584 
Q 1688 2584 1439 2293 
Q 1191 2003 1191 1497 
Q 1191 994 1439 701 
Q 1688 409 2113 409 
Q 2538 409 2786 701 
Q 3034 994 3034 1497 
Q 3034 2003 2786 2293 
Q 2538 2584 2113 2584 
z
M 3366 4563 
L 3366 3988 
Q 3128 4100 2886 4159 
Q 2644 4219 2406 4219 
Q 1781 4219 1451 3797 
Q 1122 3375 1075 2522 
Q 1259 2794 1537 2939 
Q 1816 3084 2150 3084 
Q 2853 3084 3261 2657 
Q 3669 2231 3669 1497 
Q 3669 778 3244 343 
Q 2819 -91 2113 -91 
Q 1303 -91 875 529 
Q 447 1150 447 2328 
Q 447 3434 972 4092 
Q 1497 4750 2381 4750 
Q 2619 4750 2861 4703 
Q 3103 4656 3366 4563 
z
" transform="scale(0.015625)"/>
       </defs>
       <use xlink:href="#DejaVuSans-30"/>
       <use xlink:href="#DejaVuSans-2e" x="63.623047"/>
       <use xlink:href="#DejaVuSans-36" x="95.410156"/>
      </g>
     </g>
    </g>
    <g id="ytick_5">
     <g id="line2d_10">
      <g>
       <use xlink:href="#m96799fc684" x="135" y="148.68" style="stroke: #000000; stroke-width: 0.8"/>
      </g>
     </g>
     <g id="text_11">
      <!-- 0.8 -->
      <g transform="translate(112.096875 152.479219) scale(0.1 -0.1)">
       <defs>
        <path id="DejaVuSans-38" d="M 2034 2216 
Q 1584 2216 1326 1975 
Q 1069 1734 1069 1313 
Q 1069 891 1326 650 
Q 1584 409 2034 409 
Q 2484 409 2743 651 
Q 3003 894 3003 1313 
Q 3003 1734 2745 1975 
Q 2488 2216 2034 2216 
z
M 1403 2484 
Q 997 2584 770 2862 
Q 544 3141 544 3541 
Q 544 4100 942 4425 
Q 1341 4750 2034 4750 
Q 2731 4750 3128 4425 
Q 3525 4100 3525 3541 
Q 3525 3141 3298 2862 
Q 3072 2584 2669 2484 
Q 3125 2378 3379 2068 
Q 3634 1759 3634 1313 
Q 3634 634 3220 271 
Q 2806 -91 2034 -91 
Q 1263 -91 848 271 
Q 434 634 434 1313 
Q 434 1759 690 2068 
Q 947 2378 1403 2484 
z
M 1172 3481 
Q 1172 3119 1398 2916 
Q 1625 2713 2034 2713 
Q 2441 2713 2670 2916 
Q 2900 3119 2900 3481 
Q 2900 3844 2670 4047 
Q 2441 4250 2034 4250 
Q 1625 4250 1398 4047 
Q 1172 3844 1172 3481 
z
" transform="scale(0.015625)"/>
       </defs>
       <use xlink:href="#DejaVuSans-30"/>
       <use xlink:href="#DejaVuSans-2e" x="63.623047"/>
       <use xlink:href="#DejaVuSans-38" x="95.410156"/>
      </g>
     </g>
    </g>
    <g id="ytick_6">
     <g id="line2d_11">
      <g>
       <use xlink:href="#m96799fc684" x="135" y="78.12" style="stroke: #000000; stroke-width: 0.8"/>
      </g>
     </g>
     <g id="text_12">
      <!-- 1.0 -->
      <g transform="translate(112.096875 81.919219) scale(0.1 -0.1)">
       <use xlink:href="#DejaVuSans-31"/>
       <use xlink:href="#DejaVuSans-2e" x="63.623047"/>
       <use xlink:href="#DejaVuSans-30" x="95.410156"/>
      </g>
     </g>
    </g>
   </g>
   <g id="line2d_12">
    <path d="M 173.045455 417.786522 
L 173.846918 364.556252 
L 174.488088 335.45426 
L 175.129259 316.811325 
L 175.610137 308.929509 
L 175.930722 306.306888 
L 176.091014 305.734068 
L 176.251307 305.631909 
L 176.4116 305.984696 
L 176.732185 307.994322 
L 177.05277 311.645378 
L 177.533648 319.957614 
L 177.693941 323.432142 
L 178.495404 355.280446 
L 179.296867 379.641257 
L 180.09833 397.672098 
L 180.899793 410.383765 
L 181.540964 417.318828 
L 182.182134 421.811854 
L 182.663012 423.793237 
L 182.983597 424.528893 
L 183.304183 424.839839 
L 183.624768 424.760928 
L 183.945353 424.324963 
L 184.426231 423.068534 
L 185.067401 420.416363 
L 185.868865 415.814713 
L 186.83062 408.856165 
L 188.273254 396.487712 
L 191.318814 367.617506 
L 193.723203 345.914345 
L 195.486422 331.829371 
L 197.089348 320.701087 
L 198.531982 312.140547 
L 199.814323 305.698388 
L 201.096664 300.333927 
L 202.218712 296.494485 
L 203.340761 293.418405 
L 204.302516 291.361268 
L 205.264272 289.812779 
L 206.065735 288.892391 
L 206.867198 288.292352 
L 207.668662 287.997645 
L 208.309832 287.971713 
L 209.111295 288.189257 
L 209.912758 288.67108 
L 210.714221 289.403084 
L 211.675977 290.592417 
L 212.798026 292.379691 
L 213.278903 293.269215 
L 213.920074 254.475376 
L 214.561244 227.743454 
L 215.042122 214.732484 
L 215.523 207.12944 
L 215.843585 204.808614 
L 216.003878 204.418198 
L 216.164171 204.518059 
L 216.324463 205.091481 
L 216.645049 207.594345 
L 217.125926 214.507423 
L 217.606804 224.862955 
L 218.087682 238.297817 
L 219.049438 276.28641 
L 219.850901 300.069629 
L 220.652364 317.896616 
L 221.453827 330.74252 
L 222.094998 338.006209 
L 222.736168 343.007481 
L 223.217046 345.479053 
L 223.697924 346.998132 
L 224.018509 347.54016 
L 224.339095 347.743533 
L 224.65968 347.638533 
L 224.980265 347.253594 
L 225.461143 346.209207 
L 226.102313 344.072191 
L 226.903777 340.447459 
L 228.025825 334.108846 
L 229.789044 322.551827 
L 232.994896 301.376629 
L 234.597823 292.242772 
L 236.040456 285.289294 
L 237.322797 280.22065 
L 238.444846 276.670675 
L 239.406601 274.283553 
L 240.368357 272.489772 
L 241.16982 271.435332 
L 241.971283 270.76748 
L 242.612454 270.501703 
L 243.253624 270.465834 
L 243.894795 270.651383 
L 244.535965 271.049595 
L 245.337428 271.832814 
L 246.138892 272.91677 
L 247.100647 274.58969 
L 248.222696 277.016526 
L 249.505037 280.359356 
L 250.94767 284.765644 
L 252.710889 290.951995 
L 253.99323 295.922006 
L 254.634401 257.391175 
L 255.275571 230.857599 
L 255.756449 217.954759 
L 256.237327 210.426335 
L 256.557912 208.137203 
L 256.718205 207.757342 
L 256.878497 207.864287 
L 257.03879 208.441361 
L 257.359375 210.941403 
L 257.840253 217.825552 
L 258.321131 228.123524 
L 258.802009 241.473334 
L 259.763765 280.914831 
L 260.565228 305.809308 
L 261.366691 324.664404 
L 262.168154 338.461085 
L 262.809325 346.433105 
L 263.450495 352.098681 
L 264.091666 355.798715 
L 264.572543 357.467195 
L 265.053421 358.315636 
L 265.374007 358.477696 
L 265.694592 358.35056 
L 266.015177 357.961085 
L 266.496055 356.939638 
L 267.137225 354.881499 
L 267.938689 351.418891 
L 269.060737 345.395234 
L 270.823956 334.455546 
L 274.029808 314.471228 
L 275.632735 305.858093 
L 277.075368 299.296036 
L 278.357709 294.503768 
L 279.479758 291.136638 
L 280.441513 288.861424 
L 281.403269 287.138196 
L 282.204732 286.111381 
L 283.006195 285.443438 
L 283.647366 285.158147 
L 284.288536 285.08598 
L 284.929707 285.218959 
L 285.570877 285.548883 
L 286.37234 286.225536 
L 287.173804 287.180488 
L 288.135559 288.670751 
L 289.257608 290.848892 
L 290.539949 293.864952 
L 291.982582 297.855777 
L 293.585509 302.934839 
L 294.226679 263.943161 
L 294.86785 236.974825 
L 295.348727 223.761162 
L 295.829605 215.933532 
L 296.150191 213.450747 
L 296.310483 212.975665 
L 296.470776 212.988397 
L 296.631068 213.472222 
L 296.951654 215.788479 
L 297.432532 222.403083 
L 297.913409 232.437865 
L 298.394287 245.529771 
L 299.356043 284.510358 
L 300.157506 309.001763 
L 300.958969 327.443079 
L 301.760432 340.820534 
L 302.401603 348.456318 
L 303.042773 353.787101 
L 303.683944 357.155554 
L 304.164822 358.578399 
L 304.485407 359.066514 
L 304.805992 359.223425 
L 305.126578 359.078815 
L 305.447163 358.660544 
L 305.928041 357.576747 
L 306.569211 355.404302 
L 307.370674 351.757622 
L 308.492723 345.418686 
L 310.255942 333.901314 
L 313.461794 312.807259 
L 315.06472 303.678854 
L 316.507354 296.69804 
L 317.789695 291.576214 
L 318.911743 287.956444 
L 319.873499 285.492159 
L 320.835255 283.605491 
L 321.636718 282.46199 
L 322.438181 281.694886 
L 323.079352 281.342673 
L 323.720522 281.214395 
L 324.361693 281.301838 
L 325.002863 281.59654 
L 325.804326 282.24324 
L 326.605789 283.183327 
L 327.567545 284.674798 
L 328.689593 286.879208 
L 329.971934 289.955857 
L 331.414568 294.050571 
L 333.017494 299.284925 
L 333.818957 302.13861 
L 334.460128 262.461085 
L 335.101298 234.860641 
L 335.582176 221.206259 
L 336.063054 212.964984 
L 336.383639 210.220797 
L 336.543932 209.619169 
L 336.704225 209.508057 
L 336.864517 209.87069 
L 337.185103 211.952315 
L 337.505688 215.738595 
L 337.986566 224.356109 
L 338.627736 240.755919 
L 339.589492 280.268359 
L 340.390955 305.164785 
L 341.192418 323.98106 
L 341.993881 337.707162 
L 342.635052 345.605111 
L 343.276222 351.184744 
L 343.917393 354.790017 
L 344.398271 356.383267 
L 344.879149 357.154044 
L 345.199734 357.26343 
L 345.520319 357.083193 
L 345.840904 356.640419 
L 346.321782 355.53912 
L 346.962953 353.375701 
L 347.764416 349.785298 
L 348.886464 343.59373 
L 350.809976 331.375828 
L 353.695243 313.106367 
L 355.298169 304.300951 
L 356.740803 297.589577 
L 358.023144 292.690818 
L 359.145192 289.253742 
L 360.106948 286.936859 
L 361.068704 285.189163 
L 361.870167 284.155068 
L 362.67163 283.491578 
L 363.3128 283.218107 
L 363.953971 283.164902 
L 364.595141 283.32377 
L 365.236312 283.686272 
L 366.037775 284.412665 
L 366.839238 285.426881 
L 367.800994 287.000056 
L 368.923042 289.289956 
L 370.205383 292.451638 
L 371.648017 296.626345 
L 373.090651 301.371938 
L 373.731821 261.556848 
L 374.372992 233.834218 
L 374.853869 220.0972 
L 375.334747 211.780167 
L 375.655333 208.98893 
L 375.815625 208.364733 
L 375.975918 208.231655 
L 376.13621 208.572896 
L 376.456796 210.613365 
L 376.777381 214.360486 
L 377.258259 222.922579 
L 377.899429 239.253699 
L 378.861185 278.745908 
L 379.662648 303.620189 
L 380.464111 322.410959 
L 381.265574 336.109375 
L 381.906745 343.9843 
L 382.547915 349.540638 
L 383.189086 353.122752 
L 383.669964 354.698942 
L 384.150842 355.453074 
L 384.471427 355.551656 
L 384.792012 355.360887 
L 385.112597 354.907884 
L 385.593475 353.791872 
L 386.234646 351.610142 
L 387.036109 347.999195 
L 388.158157 341.783736 
L 390.081669 329.539484 
L 392.966936 311.267544 
L 394.569862 302.4801 
L 396.012496 295.796274 
L 397.294837 290.930596 
L 398.416885 287.528722 
L 399.378641 285.246386 
L 400.340397 283.537027 
L 401.14186 282.537599 
L 401.943323 281.911094 
L 402.584494 281.668781 
L 403.225664 281.648048 
L 403.866835 281.840624 
L 404.508005 282.237995 
L 405.309468 283.009488 
L 406.271224 284.315741 
L 407.23298 286.009225 
L 408.355028 288.435629 
L 409.637369 291.748006 
L 411.080003 296.085261 
L 412.843222 302.143106 
L 413.644685 305.134776 
L 414.285855 264.744044 
L 414.927026 236.482935 
L 415.407904 222.365429 
L 415.888781 213.687169 
L 416.209367 210.665477 
L 416.529952 209.685808 
L 416.690245 209.918815 
L 417.01083 211.748618 
L 417.331415 215.292659 
L 417.812293 223.56395 
L 418.453463 239.532194 
L 419.415219 279.430905 
L 420.216682 304.615165 
L 421.018145 323.691505 
L 421.819609 337.652569 
L 422.460779 345.722023 
L 423.10195 351.459732 
L 423.74312 355.21066 
L 424.223998 356.90556 
L 424.704876 357.771881 
L 425.025461 357.941739 
L 425.346046 357.819505 
L 425.666632 357.432355 
L 426.147509 356.410221 
L 426.78868 354.344801 
L 427.590143 350.865598 
L 428.712191 344.810495 
L 430.47541 333.817403 
L 433.681263 313.775997 
L 435.284189 305.169368 
L 436.726823 298.636955 
L 438.009164 293.8904 
L 439.131212 290.57797 
L 440.092968 288.360173 
L 441.054724 286.703632 
L 441.856187 285.739111 
L 442.65765 285.139233 
L 443.29882 284.912322 
L 443.939991 284.901836 
L 444.581161 285.099617 
L 445.382624 285.626934 
L 446.184088 286.449915 
L 447.145843 287.804179 
L 448.267892 289.853383 
L 449.550233 292.759267 
L 450.992866 296.670306 
L 452.595793 301.710831 
L 453.557548 305.041196 
L 454.198719 264.688719 
L 454.839889 236.466952 
L 455.320767 222.379247 
L 455.801645 213.730747 
L 456.12223 210.728755 
L 456.442816 209.768598 
L 456.603108 210.011272 
L 456.923693 211.860196 
L 457.244279 215.423029 
L 457.725157 223.721783 
L 458.366327 239.725057 
L 459.328083 279.443308 
L 460.129546 304.486336 
L 460.931009 323.429485 
L 461.732472 337.265183 
L 462.373643 345.239853 
L 463.014813 350.887579 
L 463.655984 354.553248 
L 464.136862 356.187257 
L 464.617739 356.995273 
L 464.938325 357.127681 
L 465.25891 356.969123 
L 465.579495 356.546767 
L 466.060373 355.473902 
L 466.701544 353.344671 
L 467.503007 349.791764 
L 468.625055 343.644538 
L 470.548567 331.486045 
L 473.433834 313.281504 
L 475.03676 304.505648 
L 476.479394 297.819226 
L 477.761735 292.942255 
L 478.883783 289.524412 
L 479.845539 287.224372 
L 480.807295 285.493998 
L 481.608758 284.474784 
L 482.410221 283.826634 
L 483.051391 283.565793 
L 483.692562 283.525554 
L 484.333732 283.697737 
L 484.974903 284.073914 
L 485.776366 284.817917 
L 486.738122 286.089929 
L 487.699877 287.748053 
L 488.821926 290.132126 
L 490.104267 293.395171 
L 491.5469 297.676349 
L 493.310119 303.66581 
L 493.630705 304.833673 
L 494.271875 264.453925 
L 494.913046 236.207319 
L 495.393923 222.102513 
L 495.874801 213.438179 
L 496.195387 210.426317 
L 496.515972 209.456827 
L 496.676264 209.695033 
L 496.99685 211.535414 
L 497.317435 215.09022 
L 497.798313 223.377886 
L 498.439483 239.368122 
L 499.401239 279.205503 
L 500.202702 304.345359 
L 501.004165 323.382983 
L 501.805628 337.310693 
L 502.446799 345.357136 
L 503.087969 351.074957 
L 503.72914 354.809003 
L 504.210018 356.493148 
L 504.690896 357.350299 
L 505.011481 357.514905 
L 505.332066 357.388092 
L 505.652651 356.997027 
L 506.133529 355.970237 
L 506.7747 353.900827 
L 507.576163 350.420074 
L 508.698211 344.368936 
L 510.46143 333.395592 
L 513.667283 313.427791 
L 515.270209 304.873902 
L 516.712843 298.396837 
L 517.995184 293.705107 
L 519.117232 290.444563 
L 520.078988 288.273873 
L 521.040743 286.666642 
L 521.842207 285.744742 
L 522.64367 285.188746 
L 523.28484 284.997767 
L 523.926011 285.023881 
L 524.567181 285.258869 
L 525.368644 285.833459 
L 526.170107 286.704449 
L 527.131863 288.117137 
L 528.253912 290.235371 
L 529.536253 293.220917 
L 530.978886 297.222019 
L 532.581812 302.362437 
L 533.864153 306.928052 
L 534.505324 266.471019 
L 535.146494 238.150595 
L 535.627372 223.992624 
L 536.10825 215.276961 
L 536.428835 212.23188 
L 536.749421 211.229962 
L 536.909713 211.452248 
L 537.230299 213.261369 
L 537.550884 216.785687 
L 538.031762 225.029051 
L 538.672932 240.96286 
L 539.634688 280.82085 
L 540.436151 305.97439 
L 541.237614 325.022625 
L 542.039077 338.957971 
L 542.680248 347.008448 
L 543.321418 352.728516 
L 543.962589 356.463076 
L 544.443467 358.146503 
L 544.924345 359.002017 
L 545.24493 359.16503 
L 545.565515 359.036235 
L 545.8861 358.642802 
L 546.366978 357.611755 
L 547.008149 355.535388 
L 547.809612 352.043962 
L 548.93166 345.974382 
L 550.694879 334.964463 
L 553.900732 314.909635 
L 555.503658 306.303914 
L 556.946291 299.776283 
L 558.228632 295.036917 
L 559.350681 291.732893 
L 560.312437 289.523771 
L 561.274192 287.877173 
L 562.075655 286.921845 
L 562.877119 286.33193 
L 563.518289 286.113508 
L 564.15946 286.111945 
L 564.80063 286.319052 
L 565.602093 286.858552 
L 566.403556 287.694248 
L 567.365312 289.064393 
L 568.48736 291.132855 
L 569.769701 294.061513 
L 571.212335 297.998858 
L 572.815261 303.069053 
L 574.257895 308.168278 
L 574.899065 267.654551 
L 575.540236 239.280332 
L 576.021114 225.083882 
L 576.501992 216.331317 
L 576.822577 213.262503 
L 577.143162 212.23754 
L 577.303455 212.448559 
L 577.62404 214.23566 
L 577.944625 217.738634 
L 578.425503 225.951244 
L 579.066674 241.846378 
L 580.028429 281.693217 
L 580.829893 306.836115 
L 581.631356 325.872529 
L 582.432819 339.794923 
L 583.073989 347.83426 
L 583.71516 353.542525 
L 584.35633 357.264648 
L 584.837208 358.938348 
L 585.318086 359.783807 
L 585.638671 359.939942 
L 585.959257 359.80413 
L 586.279842 359.403549 
L 586.76072 358.36154 
L 587.40189 356.270125 
L 588.203353 352.759241 
L 589.325402 346.661309 
L 591.088621 335.604553 
L 594.294473 315.459041 
L 595.897399 306.806081 
L 597.340033 300.235235 
L 598.622374 295.457089 
L 599.744422 292.118972 
L 600.706178 289.880582 
L 601.667934 288.204734 
L 602.469397 287.225083 
L 603.27086 286.610922 
L 603.912031 286.37318 
L 604.553201 286.352378 
L 605.194372 286.540343 
L 605.995835 287.056071 
L 606.797298 287.868189 
L 607.759054 289.210333 
L 608.881102 291.246578 
L 610.00315 293.746632 
L 611.285491 297.115963 
L 612.888418 302.005134 
L 613.209003 303.064072 
L 613.850173 263.040142 
L 614.491344 235.127465 
L 614.972222 221.259102 
L 615.4531 212.819501 
L 615.773685 209.95109 
L 615.933977 209.289595 
L 616.09427 209.120048 
L 616.254563 209.425628 
L 616.575148 211.397106 
L 616.895733 215.078212 
L 617.376611 223.546511 
L 618.017782 239.761569 
L 618.979537 279.274227 
L 619.781 304.164129 
L 620.582464 322.969354 
L 621.383927 336.681201 
L 622.025097 344.566237 
L 622.666268 350.132209 
L 623.307438 353.723559 
L 623.788316 355.306463 
L 624.269194 356.067159 
L 624.589779 356.170049 
L 624.910364 355.983543 
L 625.23095 355.534768 
L 625.711828 354.425046 
L 626.352998 352.251648 
L 627.154461 348.651102 
L 628.27651 342.450349 
L 630.200021 330.232257 
L 633.085288 312.003234 
L 634.688215 303.242018 
L 636.130848 296.583372 
L 637.413189 291.741339 
L 638.535238 288.36111 
L 639.496993 286.098009 
L 640.458749 284.40849 
L 641.260212 283.426033 
L 642.061675 282.816874 
L 642.702846 282.588691 
L 643.344016 282.582298 
L 643.985187 282.789411 
L 644.78665 283.335534 
L 645.588113 284.184947 
L 646.549869 285.580479 
L 647.671917 287.690126 
L 648.954258 290.679891 
L 650.396892 294.702037 
L 651.999818 299.883797 
L 653.92333 306.935549 
L 654.5645 266.444684 
L 655.205671 238.090525 
L 655.686548 223.90753 
L 656.167426 215.167233 
L 656.488012 212.106012 
L 656.808597 211.088222 
L 656.968889 211.302683 
L 657.289475 213.096399 
L 657.61006 216.605663 
L 658.090938 224.827173 
L 658.732108 240.733347 
L 659.693864 280.724761 
L 660.495327 305.983432 
L 661.29679 325.131319 
L 662.098253 339.160862 
L 662.899717 348.934421 
L 663.540887 354.194475 
L 664.182058 357.545591 
L 664.662935 358.986185 
L 664.983521 359.499235 
L 665.304106 359.690672 
L 665.624691 359.589455 
L 665.945276 359.222759 
L 666.426154 358.230248 
L 667.067325 356.202354 
L 667.868788 352.766897 
L 668.990836 346.767188 
L 670.754055 335.847608 
L 673.959908 315.899377 
L 675.562834 307.320978 
L 677.005468 300.804267 
L 678.287809 296.064396 
L 679.409857 292.752513 
L 680.371613 290.531455 
L 681.333368 288.868382 
L 682.134832 287.896037 
L 682.936295 287.286271 
L 683.577465 287.050027 
L 684.218636 287.028995 
L 684.859806 287.215062 
L 685.661269 287.726168 
L 686.462732 288.531274 
L 687.424488 289.862019 
L 688.546537 291.881115 
L 689.828878 294.749348 
L 691.271511 298.614285 
L 692.874437 303.599457 
L 694.156778 308.038786 
L 694.797949 267.577902 
L 695.439119 239.252875 
L 695.919997 225.091004 
L 696.400875 216.371096 
L 696.72146 213.323015 
L 697.042046 212.317976 
L 697.202338 212.538659 
L 697.522924 214.344502 
L 697.843509 217.865451 
L 698.324387 226.103627 
L 698.965557 242.030328 
L 699.927313 281.776078 
L 700.728776 306.838279 
L 701.530239 325.797099 
L 702.331702 339.644911 
L 702.972873 347.626695 
L 703.614043 353.279247 
L 704.255214 356.947464 
L 704.736092 358.581903 
L 705.21697 359.389091 
L 705.537555 359.520255 
L 705.85814 359.359905 
L 706.178725 358.935215 
L 706.659603 357.85784 
L 707.300774 355.720749 
L 708.102237 352.155114 
L 709.224285 345.984841 
L 710.987504 334.824354 
L 714.193357 314.520288 
L 715.796283 305.802002 
L 717.238916 299.179977 
L 718.521257 294.362192 
L 719.643306 290.993765 
L 720.605062 288.732546 
L 721.566817 287.036692 
L 722.36828 286.042464 
L 723.169744 285.415579 
L 723.810914 285.168956 
L 724.452085 285.1404 
L 725.093255 285.32171 
L 725.894718 285.830623 
L 726.696181 286.637548 
L 727.657937 287.975523 
L 728.779985 290.009628 
L 729.902034 292.51033 
L 731.184375 295.883619 
L 732.787301 300.782225 
L 734.069642 305.175235 
L 734.710813 264.872672 
L 735.351983 236.697892 
L 735.832861 222.643594 
L 736.313739 214.027015 
L 736.634324 211.045519 
L 736.954909 210.105261 
L 737.115202 210.357669 
L 737.435787 212.225649 
L 737.756372 215.807011 
L 738.23725 224.132632 
L 738.878421 240.170156 
L 739.840177 279.89496 
L 740.64164 304.946697 
L 741.443103 323.900915 
L 742.244566 337.749557 
L 742.885736 345.735648 
L 743.526907 351.395534 
L 744.168077 355.073929 
L 744.648955 356.717762 
L 745.129833 357.535773 
L 745.450418 357.674914 
L 745.771004 357.523126 
L 746.091589 357.107563 
L 746.572467 356.0449 
L 747.213637 353.929234 
L 748.0151 350.393091 
L 749.137149 344.268706 
L 750.900368 333.18971 
L 754.10622 313.05654 
L 755.709146 304.431668 
L 757.15178 297.896827 
L 758.434121 293.158327 
L 759.556169 289.860221 
L 760.517925 287.65972 
L 761.479681 286.024789 
L 762.281144 285.081357 
L 763.082607 284.505186 
L 763.723778 284.299013 
L 764.364948 284.310746 
L 765.006119 284.532142 
L 765.807582 285.090812 
L 766.609045 285.947028 
L 767.570801 287.343431 
L 768.692849 289.444554 
L 769.97519 292.412872 
L 771.417824 296.397333 
L 773.02075 301.522347 
L 773.822213 304.326091 
L 774.463384 264.102417 
L 775.104554 236.001153 
L 775.585432 221.998599 
L 776.06631 213.430956 
L 776.386895 210.480567 
L 776.70748 209.570232 
L 776.867773 209.837166 
L 777.188358 211.733339 
L 777.508943 215.341772 
L 777.989821 223.705948 
L 778.630992 239.791169 
L 779.592748 279.52112 
L 780.394211 304.578633 
L 781.195674 323.539803 
L 781.997137 337.396423 
L 782.638307 345.38954 
L 783.279478 351.056954 
L 783.920648 354.743315 
L 784.401526 356.393378 
L 784.882404 357.217811 
L 785.202989 357.361329 
L 785.523575 357.213988 
L 785.84416 356.802937 
L 786.325038 355.74715 
L 786.966208 353.640827 
L 787.767671 350.116588 
L 788.88972 344.009168 
L 790.652939 332.95718 
L 793.858791 312.872774 
L 795.461717 304.271579 
L 796.904351 297.757441 
L 798.186692 293.036786 
L 799.30874 289.753823 
L 800.270496 287.565934 
L 801.232252 285.943261 
L 802.033715 285.009766 
L 802.835178 284.443276 
L 803.476349 284.24466 
L 804.117519 284.263781 
L 804.75869 284.492395 
L 805.560153 285.059845 
L 806.361616 285.924573 
L 807.323372 287.33083 
L 808.44542 289.442952 
L 809.727761 292.423181 
L 811.170395 296.420198 
L 812.773321 301.558113 
L 813.414491 303.794113 
L 814.055662 263.628266 
L 814.696832 235.580909 
L 815.17771 221.616289 
L 815.658588 213.084498 
L 815.979173 210.156879 
L 816.139466 209.466455 
L 816.299759 209.268426 
L 816.460051 209.545972 
L 816.780637 211.462722 
L 817.101222 215.09088 
L 817.5821 223.483076 
L 818.22327 239.602809 
L 819.185026 279.302096 
L 819.986489 304.336354 
L 820.787952 323.276263 
L 821.589415 337.11353 
L 822.230586 345.092482 
L 822.871756 350.746857 
L 823.512927 354.421268 
L 823.993805 356.063056 
L 824.474683 356.879788 
L 824.795268 357.018483 
L 825.115853 356.866563 
L 825.436438 356.45117 
L 825.917316 355.389309 
L 826.558487 353.27568 
L 827.35995 349.743539 
L 828.481998 343.627235 
L 830.245217 332.566059 
L 833.290777 313.407415 
L 834.893703 304.679081 
L 836.336337 298.034065 
L 837.618678 293.192438 
L 838.740726 289.804183 
L 839.702482 287.528399 
L 840.664238 285.821186 
L 841.465701 284.820389 
L 842.267164 284.189819 
L 842.908334 283.942421 
L 843.549505 283.915057 
L 844.190675 284.099536 
L 844.831846 284.48742 
L 845.633309 285.245214 
L 846.595065 286.532513 
L 847.556821 288.204525 
L 848.678869 290.603001 
L 849.96121 293.880096 
L 851.403844 298.173963 
L 853.167062 304.174399 
L 854.609696 309.604158 
L 855.250867 268.910645 
L 855.892037 240.36583 
L 856.372915 226.047453 
L 856.853793 217.178102 
L 857.174378 214.034276 
L 857.494963 212.936569 
L 857.655256 213.112064 
L 857.975841 214.829806 
L 858.296426 218.265664 
L 858.777304 226.381781 
L 859.418475 242.155996 
L 860.380231 282.181901 
L 861.181694 307.461865 
L 861.983157 326.624825 
L 862.78462 340.663692 
L 863.586083 350.441271 
L 864.227254 355.700998 
L 864.868424 359.048853 
L 865.349302 360.485188 
L 865.669887 360.99458 
L 865.990472 361.181727 
L 866.311058 361.07561 
L 866.631643 360.703424 
L 867.112521 359.701618 
L 867.753691 357.659451 
L 868.555154 354.203339 
L 869.677203 348.169945 
L 871.440422 337.187696 
L 874.646274 317.101806 
L 876.2492 308.446125 
L 877.691834 301.85644 
L 878.974175 297.049651 
L 880.096223 293.678047 
L 881.057979 291.405181 
L 882.019735 289.689925 
L 882.821198 288.673934 
L 883.622661 288.020477 
L 884.263832 287.74931 
L 884.905002 287.69343 
L 885.546173 287.844768 
L 886.187343 288.195031 
L 886.988806 288.899746 
L 887.950562 290.114941 
L 888.912318 291.706288 
L 890.034366 294.000756 
L 891.316707 297.147313 
L 892.759341 301.281477 
L 894.362267 306.515164 
L 895.003438 266.185651 
L 895.644608 237.985637 
L 896.125486 223.913401 
L 896.606364 215.279634 
L 896.926949 212.287059 
L 897.247534 211.336 
L 897.407827 211.583105 
L 897.728412 213.440663 
L 898.048997 217.011832 
L 898.529875 225.322557 
L 899.171046 241.340868 
L 900.132802 280.957583 
L 900.934265 305.921298 
L 901.735728 324.789445 
L 902.537191 338.554045 
L 903.178361 346.474416 
L 903.819532 352.06997 
L 904.460702 355.685459 
L 904.94158 357.283069 
L 905.422458 358.055694 
L 905.743043 358.165048 
L 906.063629 357.983854 
L 906.384214 357.539271 
L 906.865092 356.433806 
L 907.506262 354.262448 
L 908.307725 350.658934 
L 909.429774 344.444484 
L 911.353285 332.179867 
L 914.238553 313.835643 
L 915.841479 304.991353 
L 917.284112 298.248492 
L 918.566453 293.325221 
L 919.688502 289.869698 
L 920.650258 287.53937 
L 921.612013 285.780484 
L 922.413476 284.738812 
L 923.21494 284.069342 
L 923.85611 283.792234 
L 924.497281 283.736406 
L 925.138451 283.893655 
L 925.779622 284.25553 
L 926.581085 284.982508 
L 927.382548 285.998801 
L 928.344304 287.576378 
L 929.466352 289.873953 
L 930.748693 293.047588 
L 932.191327 297.239537 
L 933.794253 302.567565 
L 933.954545 291.320802 
L 933.954545 291.320802 
" clip-path="url(#pf6f5374d25)" style="fill: none; stroke: #1f77b4; stroke-width: 1.5; stroke-linecap: square"/>
   </g>
   <g id="line2d_13">
    <path d="M 173.045455 78.12 
L 177.693941 78.12 
L 177.854233 430.92 
L 213.278903 430.92 
L 213.439196 78.12 
L 218.087682 78.12 
L 218.247975 430.92 
L 253.99323 430.92 
L 254.153523 78.12 
L 258.802009 78.12 
L 258.962302 430.92 
L 293.585509 430.92 
L 293.745801 78.12 
L 298.394287 78.12 
L 298.55458 430.92 
L 333.818957 430.92 
L 333.97925 78.12 
L 338.627736 78.12 
L 338.788029 430.92 
L 373.090651 430.92 
L 373.250943 78.12 
L 377.899429 78.12 
L 378.059722 430.92 
L 413.644685 430.92 
L 413.804977 78.12 
L 418.453463 78.12 
L 418.613756 430.92 
L 453.557548 430.92 
L 453.717841 78.12 
L 458.366327 78.12 
L 458.52662 430.92 
L 493.630705 430.92 
L 493.790997 78.12 
L 498.439483 78.12 
L 498.599776 430.92 
L 533.864153 430.92 
L 534.024446 78.12 
L 538.672932 78.12 
L 538.833225 430.92 
L 574.257895 430.92 
L 574.418188 78.12 
L 579.066674 78.12 
L 579.226966 430.92 
L 613.209003 430.92 
L 613.369295 78.12 
L 618.017782 78.12 
L 618.178074 430.92 
L 653.92333 430.92 
L 654.083622 78.12 
L 658.732108 78.12 
L 658.892401 430.92 
L 694.156778 430.92 
L 694.317071 78.12 
L 698.965557 78.12 
L 699.12585 430.92 
L 734.069642 430.92 
L 734.229935 78.12 
L 738.878421 78.12 
L 739.038713 430.92 
L 773.822213 430.92 
L 773.982506 78.12 
L 778.630992 78.12 
L 778.791284 430.92 
L 813.414491 430.92 
L 813.574784 78.12 
L 818.22327 78.12 
L 818.383563 430.92 
L 854.609696 430.92 
L 854.769989 78.12 
L 859.418475 78.12 
L 859.578767 430.92 
L 894.362267 430.92 
L 894.52256 78.12 
L 899.171046 78.12 
L 899.331338 430.92 
L 933.794253 430.92 
L 933.954545 78.12 
L 933.954545 78.12 
" clip-path="url(#pf6f5374d25)" style="fill: none; stroke: #ff7f0e; stroke-width: 1.5; stroke-linecap: square"/>
   </g>
   <g id="line2d_14">
    <path d="M 929.466352 430.92 
" clip-path="url(#pf6f5374d25)" style="fill: none; stroke: #000000; stroke-width: 1.5; stroke-linecap: square"/>
    <defs>
     <path id="m747ac6367a" d="M 0 1 
C 0.265203 1 0.51958 0.894634 0.707107 0.707107 
C 0.894634 0.51958 1 0.265203 1 0 
C 1 -0.265203 0.894634 -0.51958 0.707107 -0.707107 
C 0.51958 -0.894634 0.265203 -1 0 -1 
C -0.265203 -1 -0.51958 -0.894634 -0.707107 -0.707107 
C -0.894634 -0.51958 -1 -0.265203 -1 0 
C -1 0.265203 -0.894634 0.51958 -0.707107 0.707107 
C -0.51958 0.894634 -0.265203 1 0 1 
z
" style="stroke: #000000"/>
    </defs>
    <g clip-path="url(#pf6f5374d25)">
     <use xlink:href="#m747ac6367a" x="173.045455" y="78.12" style="stroke: #000000"/>
     <use xlink:href="#m747ac6367a" x="178.174819" y="430.92" style="stroke: #000000"/>
     <use xlink:href="#m747ac6367a" x="183.14389" y="430.92" style="stroke: #000000"/>
     <use xlink:href="#m747ac6367a" x="188.112961" y="78.12" style="stroke: #000000"/>
     <use xlink:href="#m747ac6367a" x="193.082033" y="430.92" style="stroke: #000000"/>
     <use xlink:href="#m747ac6367a" x="198.211397" y="430.92" style="stroke: #000000"/>
     <use xlink:href="#m747ac6367a" x="203.180468" y="78.12" style="stroke: #000000"/>
     <use xlink:href="#m747ac6367a" x="208.149539" y="430.92" style="stroke: #000000"/>
     <use xlink:href="#m747ac6367a" x="213.118611" y="78.12" style="stroke: #000000"/>
     <use xlink:href="#m747ac6367a" x="218.247975" y="430.92" style="stroke: #000000"/>
     <use xlink:href="#m747ac6367a" x="223.217046" y="430.92" style="stroke: #000000"/>
     <use xlink:href="#m747ac6367a" x="228.186118" y="78.12" style="stroke: #000000"/>
     <use xlink:href="#m747ac6367a" x="233.155189" y="430.92" style="stroke: #000000"/>
     <use xlink:href="#m747ac6367a" x="238.284553" y="430.92" style="stroke: #000000"/>
     <use xlink:href="#m747ac6367a" x="243.253624" y="78.12" style="stroke: #000000"/>
     <use xlink:href="#m747ac6367a" x="248.222696" y="430.92" style="stroke: #000000"/>
     <use xlink:href="#m747ac6367a" x="253.191767" y="78.12" style="stroke: #000000"/>
     <use xlink:href="#m747ac6367a" x="258.321131" y="430.92" style="stroke: #000000"/>
     <use xlink:href="#m747ac6367a" x="263.290202" y="430.92" style="stroke: #000000"/>
     <use xlink:href="#m747ac6367a" x="268.259274" y="78.12" style="stroke: #000000"/>
     <use xlink:href="#m747ac6367a" x="273.228345" y="430.92" style="stroke: #000000"/>
     <use xlink:href="#m747ac6367a" x="278.357709" y="430.92" style="stroke: #000000"/>
     <use xlink:href="#m747ac6367a" x="283.326781" y="78.12" style="stroke: #000000"/>
     <use xlink:href="#m747ac6367a" x="288.295852" y="430.92" style="stroke: #000000"/>
     <use xlink:href="#m747ac6367a" x="293.264923" y="78.12" style="stroke: #000000"/>
     <use xlink:href="#m747ac6367a" x="298.394287" y="430.92" style="stroke: #000000"/>
     <use xlink:href="#m747ac6367a" x="303.363359" y="430.92" style="stroke: #000000"/>
     <use xlink:href="#m747ac6367a" x="308.33243" y="78.12" style="stroke: #000000"/>
     <use xlink:href="#m747ac6367a" x="313.301501" y="430.92" style="stroke: #000000"/>
     <use xlink:href="#m747ac6367a" x="318.430865" y="430.92" style="stroke: #000000"/>
     <use xlink:href="#m747ac6367a" x="323.399937" y="78.12" style="stroke: #000000"/>
     <use xlink:href="#m747ac6367a" x="328.369008" y="430.92" style="stroke: #000000"/>
     <use xlink:href="#m747ac6367a" x="333.33808" y="78.12" style="stroke: #000000"/>
     <use xlink:href="#m747ac6367a" x="338.467444" y="430.92" style="stroke: #000000"/>
     <use xlink:href="#m747ac6367a" x="343.436515" y="430.92" style="stroke: #000000"/>
     <use xlink:href="#m747ac6367a" x="348.405586" y="78.12" style="stroke: #000000"/>
     <use xlink:href="#m747ac6367a" x="353.374658" y="430.92" style="stroke: #000000"/>
     <use xlink:href="#m747ac6367a" x="358.504022" y="430.92" style="stroke: #000000"/>
     <use xlink:href="#m747ac6367a" x="363.473093" y="78.12" style="stroke: #000000"/>
     <use xlink:href="#m747ac6367a" x="368.442164" y="430.92" style="stroke: #000000"/>
     <use xlink:href="#m747ac6367a" x="373.411236" y="78.12" style="stroke: #000000"/>
     <use xlink:href="#m747ac6367a" x="378.5406" y="430.92" style="stroke: #000000"/>
     <use xlink:href="#m747ac6367a" x="383.509671" y="430.92" style="stroke: #000000"/>
     <use xlink:href="#m747ac6367a" x="388.478743" y="78.12" style="stroke: #000000"/>
     <use xlink:href="#m747ac6367a" x="393.447814" y="430.92" style="stroke: #000000"/>
     <use xlink:href="#m747ac6367a" x="398.577178" y="430.92" style="stroke: #000000"/>
     <use xlink:href="#m747ac6367a" x="403.546249" y="78.12" style="stroke: #000000"/>
     <use xlink:href="#m747ac6367a" x="408.515321" y="430.92" style="stroke: #000000"/>
     <use xlink:href="#m747ac6367a" x="413.484392" y="78.12" style="stroke: #000000"/>
     <use xlink:href="#m747ac6367a" x="418.613756" y="430.92" style="stroke: #000000"/>
     <use xlink:href="#m747ac6367a" x="423.582827" y="430.92" style="stroke: #000000"/>
     <use xlink:href="#m747ac6367a" x="428.551899" y="78.12" style="stroke: #000000"/>
     <use xlink:href="#m747ac6367a" x="433.52097" y="430.92" style="stroke: #000000"/>
     <use xlink:href="#m747ac6367a" x="438.650334" y="430.92" style="stroke: #000000"/>
     <use xlink:href="#m747ac6367a" x="443.619406" y="78.12" style="stroke: #000000"/>
     <use xlink:href="#m747ac6367a" x="448.588477" y="430.92" style="stroke: #000000"/>
     <use xlink:href="#m747ac6367a" x="453.557548" y="78.12" style="stroke: #000000"/>
     <use xlink:href="#m747ac6367a" x="458.686912" y="430.92" style="stroke: #000000"/>
     <use xlink:href="#m747ac6367a" x="463.655984" y="430.92" style="stroke: #000000"/>
     <use xlink:href="#m747ac6367a" x="468.625055" y="78.12" style="stroke: #000000"/>
     <use xlink:href="#m747ac6367a" x="473.594126" y="430.92" style="stroke: #000000"/>
     <use xlink:href="#m747ac6367a" x="478.72349" y="430.92" style="stroke: #000000"/>
     <use xlink:href="#m747ac6367a" x="483.692562" y="78.12" style="stroke: #000000"/>
     <use xlink:href="#m747ac6367a" x="488.661633" y="430.92" style="stroke: #000000"/>
     <use xlink:href="#m747ac6367a" x="493.630705" y="78.12" style="stroke: #000000"/>
     <use xlink:href="#m747ac6367a" x="498.760069" y="430.92" style="stroke: #000000"/>
     <use xlink:href="#m747ac6367a" x="503.72914" y="430.92" style="stroke: #000000"/>
     <use xlink:href="#m747ac6367a" x="508.698211" y="78.12" style="stroke: #000000"/>
     <use xlink:href="#m747ac6367a" x="513.667283" y="430.92" style="stroke: #000000"/>
     <use xlink:href="#m747ac6367a" x="518.796647" y="430.92" style="stroke: #000000"/>
     <use xlink:href="#m747ac6367a" x="523.765718" y="78.12" style="stroke: #000000"/>
     <use xlink:href="#m747ac6367a" x="528.734789" y="430.92" style="stroke: #000000"/>
     <use xlink:href="#m747ac6367a" x="533.703861" y="78.12" style="stroke: #000000"/>
     <use xlink:href="#m747ac6367a" x="538.833225" y="430.92" style="stroke: #000000"/>
     <use xlink:href="#m747ac6367a" x="543.802296" y="430.92" style="stroke: #000000"/>
     <use xlink:href="#m747ac6367a" x="548.771368" y="78.12" style="stroke: #000000"/>
     <use xlink:href="#m747ac6367a" x="553.740439" y="430.92" style="stroke: #000000"/>
     <use xlink:href="#m747ac6367a" x="558.869803" y="430.92" style="stroke: #000000"/>
     <use xlink:href="#m747ac6367a" x="563.838874" y="78.12" style="stroke: #000000"/>
     <use xlink:href="#m747ac6367a" x="568.807946" y="430.92" style="stroke: #000000"/>
     <use xlink:href="#m747ac6367a" x="573.777017" y="78.12" style="stroke: #000000"/>
     <use xlink:href="#m747ac6367a" x="578.906381" y="430.92" style="stroke: #000000"/>
     <use xlink:href="#m747ac6367a" x="583.875452" y="430.92" style="stroke: #000000"/>
     <use xlink:href="#m747ac6367a" x="588.844524" y="78.12" style="stroke: #000000"/>
     <use xlink:href="#m747ac6367a" x="593.813595" y="430.92" style="stroke: #000000"/>
     <use xlink:href="#m747ac6367a" x="598.942959" y="430.92" style="stroke: #000000"/>
     <use xlink:href="#m747ac6367a" x="603.912031" y="78.12" style="stroke: #000000"/>
     <use xlink:href="#m747ac6367a" x="608.881102" y="430.92" style="stroke: #000000"/>
     <use xlink:href="#m747ac6367a" x="613.850173" y="78.12" style="stroke: #000000"/>
     <use xlink:href="#m747ac6367a" x="618.979537" y="430.92" style="stroke: #000000"/>
     <use xlink:href="#m747ac6367a" x="623.948609" y="430.92" style="stroke: #000000"/>
     <use xlink:href="#m747ac6367a" x="628.91768" y="78.12" style="stroke: #000000"/>
     <use xlink:href="#m747ac6367a" x="633.886751" y="430.92" style="stroke: #000000"/>
     <use xlink:href="#m747ac6367a" x="639.016115" y="430.92" style="stroke: #000000"/>
     <use xlink:href="#m747ac6367a" x="643.985187" y="78.12" style="stroke: #000000"/>
     <use xlink:href="#m747ac6367a" x="648.954258" y="430.92" style="stroke: #000000"/>
     <use xlink:href="#m747ac6367a" x="653.92333" y="78.12" style="stroke: #000000"/>
     <use xlink:href="#m747ac6367a" x="659.052694" y="430.92" style="stroke: #000000"/>
     <use xlink:href="#m747ac6367a" x="664.021765" y="430.92" style="stroke: #000000"/>
     <use xlink:href="#m747ac6367a" x="668.990836" y="78.12" style="stroke: #000000"/>
     <use xlink:href="#m747ac6367a" x="673.959908" y="430.92" style="stroke: #000000"/>
     <use xlink:href="#m747ac6367a" x="679.089272" y="430.92" style="stroke: #000000"/>
     <use xlink:href="#m747ac6367a" x="684.058343" y="78.12" style="stroke: #000000"/>
     <use xlink:href="#m747ac6367a" x="689.027414" y="430.92" style="stroke: #000000"/>
     <use xlink:href="#m747ac6367a" x="693.996486" y="78.12" style="stroke: #000000"/>
     <use xlink:href="#m747ac6367a" x="699.12585" y="430.92" style="stroke: #000000"/>
     <use xlink:href="#m747ac6367a" x="704.094921" y="430.92" style="stroke: #000000"/>
     <use xlink:href="#m747ac6367a" x="709.063993" y="78.12" style="stroke: #000000"/>
     <use xlink:href="#m747ac6367a" x="714.033064" y="430.92" style="stroke: #000000"/>
     <use xlink:href="#m747ac6367a" x="719.162428" y="430.92" style="stroke: #000000"/>
     <use xlink:href="#m747ac6367a" x="724.131499" y="78.12" style="stroke: #000000"/>
     <use xlink:href="#m747ac6367a" x="729.100571" y="430.92" style="stroke: #000000"/>
     <use xlink:href="#m747ac6367a" x="734.069642" y="78.12" style="stroke: #000000"/>
     <use xlink:href="#m747ac6367a" x="739.199006" y="430.92" style="stroke: #000000"/>
     <use xlink:href="#m747ac6367a" x="744.168077" y="430.92" style="stroke: #000000"/>
     <use xlink:href="#m747ac6367a" x="749.137149" y="78.12" style="stroke: #000000"/>
     <use xlink:href="#m747ac6367a" x="754.10622" y="430.92" style="stroke: #000000"/>
     <use xlink:href="#m747ac6367a" x="759.235584" y="430.92" style="stroke: #000000"/>
     <use xlink:href="#m747ac6367a" x="764.204656" y="78.12" style="stroke: #000000"/>
     <use xlink:href="#m747ac6367a" x="769.173727" y="430.92" style="stroke: #000000"/>
     <use xlink:href="#m747ac6367a" x="774.142798" y="78.12" style="stroke: #000000"/>
     <use xlink:href="#m747ac6367a" x="779.272162" y="430.92" style="stroke: #000000"/>
     <use xlink:href="#m747ac6367a" x="784.241234" y="430.92" style="stroke: #000000"/>
     <use xlink:href="#m747ac6367a" x="789.210305" y="78.12" style="stroke: #000000"/>
     <use xlink:href="#m747ac6367a" x="794.179376" y="430.92" style="stroke: #000000"/>
     <use xlink:href="#m747ac6367a" x="799.30874" y="430.92" style="stroke: #000000"/>
     <use xlink:href="#m747ac6367a" x="804.277812" y="78.12" style="stroke: #000000"/>
     <use xlink:href="#m747ac6367a" x="809.246883" y="430.92" style="stroke: #000000"/>
     <use xlink:href="#m747ac6367a" x="814.215955" y="78.12" style="stroke: #000000"/>
     <use xlink:href="#m747ac6367a" x="819.345319" y="430.92" style="stroke: #000000"/>
     <use xlink:href="#m747ac6367a" x="824.31439" y="430.92" style="stroke: #000000"/>
     <use xlink:href="#m747ac6367a" x="829.283461" y="78.12" style="stroke: #000000"/>
     <use xlink:href="#m747ac6367a" x="834.252533" y="430.92" style="stroke: #000000"/>
     <use xlink:href="#m747ac6367a" x="839.381897" y="430.92" style="stroke: #000000"/>
     <use xlink:href="#m747ac6367a" x="844.350968" y="78.12" style="stroke: #000000"/>
     <use xlink:href="#m747ac6367a" x="849.320039" y="430.92" style="stroke: #000000"/>
     <use xlink:href="#m747ac6367a" x="854.289111" y="78.12" style="stroke: #000000"/>
     <use xlink:href="#m747ac6367a" x="859.418475" y="430.92" style="stroke: #000000"/>
     <use xlink:href="#m747ac6367a" x="864.387546" y="430.92" style="stroke: #000000"/>
     <use xlink:href="#m747ac6367a" x="869.356618" y="78.12" style="stroke: #000000"/>
     <use xlink:href="#m747ac6367a" x="874.325689" y="430.92" style="stroke: #000000"/>
     <use xlink:href="#m747ac6367a" x="879.455053" y="430.92" style="stroke: #000000"/>
     <use xlink:href="#m747ac6367a" x="884.424124" y="78.12" style="stroke: #000000"/>
     <use xlink:href="#m747ac6367a" x="889.393196" y="430.92" style="stroke: #000000"/>
     <use xlink:href="#m747ac6367a" x="894.362267" y="78.12" style="stroke: #000000"/>
     <use xlink:href="#m747ac6367a" x="899.491631" y="430.92" style="stroke: #000000"/>
     <use xlink:href="#m747ac6367a" x="904.460702" y="430.92" style="stroke: #000000"/>
     <use xlink:href="#m747ac6367a" x="909.429774" y="78.12" style="stroke: #000000"/>
     <use xlink:href="#m747ac6367a" x="914.398845" y="430.92" style="stroke: #000000"/>
     <use xlink:href="#m747ac6367a" x="919.528209" y="430.92" style="stroke: #000000"/>
     <use xlink:href="#m747ac6367a" x="924.497281" y="78.12" style="stroke: #000000"/>
     <use xlink:href="#m747ac6367a" x="929.466352" y="430.92" style="stroke: #000000"/>
    </g>
   </g>
   <g id="patch_3">
    <path d="M 135 448.56 
L 135 60.48 
" style="fill: none; stroke: #000000; stroke-width: 0.8; stroke-linejoin: miter; stroke-linecap: square"/>
   </g>
   <g id="patch_4">
    <path d="M 972 448.56 
L 972 60.48 
" style="fill: none; stroke: #000000; stroke-width: 0.8; stroke-linejoin: miter; stroke-linecap: square"/>
   </g>
   <g id="patch_5">
    <path d="M 135 448.56 
L 972 448.56 
" style="fill: none; stroke: #000000; stroke-width: 0.8; stroke-linejoin: miter; stroke-linecap: square"/>
   </g>
   <g id="patch_6">
    <path d="M 135 60.48 
L 972 60.48 
" style="fill: none; stroke: #000000; stroke-width: 0.8; stroke-linejoin: miter; stroke-linecap: square"/>
   </g>
   <g id="legend_1">
    <g id="patch_7">
     <path d="M 142 278.315313 
L 211.084375 278.315313 
Q 213.084375 278.315313 213.084375 276.315313 
L 213.084375 232.724688 
Q 213.084375 230.724688 211.084375 230.724688 
L 142 230.724688 
Q 140 230.724688 140 232.724688 
L 140 276.315313 
Q 140 278.315313 142 278.315313 
z
" style="fill: #ffffff; opacity: 0.8; stroke: #cccccc; stroke-linejoin: miter"/>
    </g>
    <g id="line2d_15">
     <path d="M 144 238.823125 
L 154 238.823125 
L 164 238.823125 
" style="fill: none; stroke: #1f77b4; stroke-width: 1.5; stroke-linecap: square"/>
    </g>
    <g id="text_13">
     <!-- nw_0 -->
     <g transform="translate(172 242.323125) scale(0.1 -0.1)">
      <defs>
       <path id="DejaVuSans-6e" d="M 3513 2113 
L 3513 0 
L 2938 0 
L 2938 2094 
Q 2938 2591 2744 2837 
Q 2550 3084 2163 3084 
Q 1697 3084 1428 2787 
Q 1159 2491 1159 1978 
L 1159 0 
L 581 0 
L 581 3500 
L 1159 3500 
L 1159 2956 
Q 1366 3272 1645 3428 
Q 1925 3584 2291 3584 
Q 2894 3584 3203 3211 
Q 3513 2838 3513 2113 
z
" transform="scale(0.015625)"/>
       <path id="DejaVuSans-77" d="M 269 3500 
L 844 3500 
L 1563 769 
L 2278 3500 
L 2956 3500 
L 3675 769 
L 4391 3500 
L 4966 3500 
L 4050 0 
L 3372 0 
L 2619 2869 
L 1863 0 
L 1184 0 
L 269 3500 
z
" transform="scale(0.015625)"/>
       <path id="DejaVuSans-5f" d="M 3263 -1063 
L 3263 -1509 
L -63 -1509 
L -63 -1063 
L 3263 -1063 
z
" transform="scale(0.015625)"/>
      </defs>
      <use xlink:href="#DejaVuSans-6e"/>
      <use xlink:href="#DejaVuSans-77" x="63.378906"/>
      <use xlink:href="#DejaVuSans-5f" x="145.166016"/>
      <use xlink:href="#DejaVuSans-30" x="195.166016"/>
     </g>
    </g>
    <g id="line2d_16">
     <path d="M 144 253.779375 
L 154 253.779375 
L 164 253.779375 
" style="fill: none; stroke: #ff7f0e; stroke-width: 1.5; stroke-linecap: square"/>
    </g>
    <g id="text_14">
     <!-- input_0 -->
     <g transform="translate(172 257.279375) scale(0.1 -0.1)">
      <defs>
       <path id="DejaVuSans-69" d="M 603 3500 
L 1178 3500 
L 1178 0 
L 603 0 
L 603 3500 
z
M 603 4863 
L 1178 4863 
L 1178 4134 
L 603 4134 
L 603 4863 
z
" transform="scale(0.015625)"/>
       <path id="DejaVuSans-70" d="M 1159 525 
L 1159 -1331 
L 581 -1331 
L 581 3500 
L 1159 3500 
L 1159 2969 
Q 1341 3281 1617 3432 
Q 1894 3584 2278 3584 
Q 2916 3584 3314 3078 
Q 3713 2572 3713 1747 
Q 3713 922 3314 415 
Q 2916 -91 2278 -91 
Q 1894 -91 1617 61 
Q 1341 213 1159 525 
z
M 3116 1747 
Q 3116 2381 2855 2742 
Q 2594 3103 2138 3103 
Q 1681 3103 1420 2742 
Q 1159 2381 1159 1747 
Q 1159 1113 1420 752 
Q 1681 391 2138 391 
Q 2594 391 2855 752 
Q 3116 1113 3116 1747 
z
" transform="scale(0.015625)"/>
       <path id="DejaVuSans-75" d="M 544 1381 
L 544 3500 
L 1119 3500 
L 1119 1403 
Q 1119 906 1312 657 
Q 1506 409 1894 409 
Q 2359 409 2629 706 
Q 2900 1003 2900 1516 
L 2900 3500 
L 3475 3500 
L 3475 0 
L 2900 0 
L 2900 538 
Q 2691 219 2414 64 
Q 2138 -91 1772 -91 
Q 1169 -91 856 284 
Q 544 659 544 1381 
z
M 1991 3584 
L 1991 3584 
z
" transform="scale(0.015625)"/>
      </defs>
      <use xlink:href="#DejaVuSans-69"/>
      <use xlink:href="#DejaVuSans-6e" x="27.783203"/>
      <use xlink:href="#DejaVuSans-70" x="91.162109"/>
      <use xlink:href="#DejaVuSans-75" x="154.638672"/>
      <use xlink:href="#DejaVuSans-74" x="218.017578"/>
      <use xlink:href="#DejaVuSans-5f" x="257.226562"/>
      <use xlink:href="#DejaVuSans-30" x="307.226562"/>
     </g>
    </g>
    <g id="line2d_17">
     <path d="M 144 268.735625 
L 154 268.735625 
L 164 268.735625 
" style="fill: none; stroke: #000000; stroke-width: 1.5; stroke-linecap: square"/>
     <g>
      <use xlink:href="#m747ac6367a" x="154" y="268.735625" style="stroke: #000000"/>
     </g>
    </g>
    <g id="text_15">
     <!-- target -->
     <g transform="translate(172 272.235625) scale(0.1 -0.1)">
      <defs>
       <path id="DejaVuSans-61" d="M 2194 1759 
Q 1497 1759 1228 1600 
Q 959 1441 959 1056 
Q 959 750 1161 570 
Q 1363 391 1709 391 
Q 2188 391 2477 730 
Q 2766 1069 2766 1631 
L 2766 1759 
L 2194 1759 
z
M 3341 1997 
L 3341 0 
L 2766 0 
L 2766 531 
Q 2569 213 2275 61 
Q 1981 -91 1556 -91 
Q 1019 -91 701 211 
Q 384 513 384 1019 
Q 384 1609 779 1909 
Q 1175 2209 1959 2209 
L 2766 2209 
L 2766 2266 
Q 2766 2663 2505 2880 
Q 2244 3097 1772 3097 
Q 1472 3097 1187 3025 
Q 903 2953 641 2809 
L 641 3341 
Q 956 3463 1253 3523 
Q 1550 3584 1831 3584 
Q 2591 3584 2966 3190 
Q 3341 2797 3341 1997 
z
" transform="scale(0.015625)"/>
       <path id="DejaVuSans-72" d="M 2631 2963 
Q 2534 3019 2420 3045 
Q 2306 3072 2169 3072 
Q 1681 3072 1420 2755 
Q 1159 2438 1159 1844 
L 1159 0 
L 581 0 
L 581 3500 
L 1159 3500 
L 1159 2956 
Q 1341 3275 1631 3429 
Q 1922 3584 2338 3584 
Q 2397 3584 2469 3576 
Q 2541 3569 2628 3553 
L 2631 2963 
z
" transform="scale(0.015625)"/>
       <path id="DejaVuSans-67" d="M 2906 1791 
Q 2906 2416 2648 2759 
Q 2391 3103 1925 3103 
Q 1463 3103 1205 2759 
Q 947 2416 947 1791 
Q 947 1169 1205 825 
Q 1463 481 1925 481 
Q 2391 481 2648 825 
Q 2906 1169 2906 1791 
z
M 3481 434 
Q 3481 -459 3084 -895 
Q 2688 -1331 1869 -1331 
Q 1566 -1331 1297 -1286 
Q 1028 -1241 775 -1147 
L 775 -588 
Q 1028 -725 1275 -790 
Q 1522 -856 1778 -856 
Q 2344 -856 2625 -561 
Q 2906 -266 2906 331 
L 2906 616 
Q 2728 306 2450 153 
Q 2172 0 1784 0 
Q 1141 0 747 490 
Q 353 981 353 1791 
Q 353 2603 747 3093 
Q 1141 3584 1784 3584 
Q 2172 3584 2450 3431 
Q 2728 3278 2906 2969 
L 2906 3500 
L 3481 3500 
L 3481 434 
z
" transform="scale(0.015625)"/>
       <path id="DejaVuSans-65" d="M 3597 1894 
L 3597 1613 
L 953 1613 
Q 991 1019 1311 708 
Q 1631 397 2203 397 
Q 2534 397 2845 478 
Q 3156 559 3463 722 
L 3463 178 
Q 3153 47 2828 -22 
Q 2503 -91 2169 -91 
Q 1331 -91 842 396 
Q 353 884 353 1716 
Q 353 2575 817 3079 
Q 1281 3584 2069 3584 
Q 2775 3584 3186 3129 
Q 3597 2675 3597 1894 
z
M 3022 2063 
Q 3016 2534 2758 2815 
Q 2500 3097 2075 3097 
Q 1594 3097 1305 2825 
Q 1016 2553 972 2059 
L 3022 2063 
z
" transform="scale(0.015625)"/>
      </defs>
      <use xlink:href="#DejaVuSans-74"/>
      <use xlink:href="#DejaVuSans-61" x="39.208984"/>
      <use xlink:href="#DejaVuSans-72" x="100.488281"/>
      <use xlink:href="#DejaVuSans-67" x="139.851562"/>
      <use xlink:href="#DejaVuSans-65" x="203.328125"/>
      <use xlink:href="#DejaVuSans-74" x="264.851562"/>
     </g>
    </g>
   </g>
  </g>
 </g>
 <defs>
  <clipPath id="pf6f5374d25">
   <rect x="135" y="60.48" width="837" height="388.08"/>
  </clipPath>
 </defs>
</svg>
