<?xml version="1.0" encoding="utf-8" standalone="no"?>
<!DOCTYPE svg PUBLIC "-//W3C//DTD SVG 1.1//EN"
  "http://www.w3.org/Graphics/SVG/1.1/DTD/svg11.dtd">
<svg xmlns:xlink="http://www.w3.org/1999/xlink" width="1080pt" height="504pt" viewBox="0 0 1080 504" xmlns="http://www.w3.org/2000/svg" version="1.1">
 <metadata>
  <rdf:RDF xmlns:dc="http://purl.org/dc/elements/1.1/" xmlns:cc="http://creativecommons.org/ns#" xmlns:rdf="http://www.w3.org/1999/02/22-rdf-syntax-ns#">
   <cc:Work>
    <dc:type rdf:resource="http://purl.org/dc/dcmitype/StillImage"/>
    <dc:date>2024-05-09T11:02:29.011931</dc:date>
    <dc:format>image/svg+xml</dc:format>
    <dc:creator>
     <cc:Agent>
      <dc:title>Matplotlib v3.7.1, https://matplotlib.org/</dc:title>
     </cc:Agent>
    </dc:creator>
   </cc:Work>
  </rdf:RDF>
 </metadata>
 <defs>
  <style type="text/css">*{stroke-linejoin: round; stroke-linecap: butt}</style>
 </defs>
 <g id="figure_1">
  <g id="patch_1">
   <path d="M 0 504 
L 1080 504 
L 1080 0 
L 0 0 
z
" style="fill: #ffffff"/>
  </g>
  <g id="axes_1">
   <g id="patch_2">
    <path d="M 135 448.56 
L 972 448.56 
L 972 60.48 
L 135 60.48 
z
" style="fill: #ffffff"/>
   </g>
   <g id="matplotlib.axis_1">
    <g id="xtick_1">
     <g id="line2d_1">
      <defs>
       <path id="m37bcf702ff" d="M 0 0 
L 0 3.5 
" style="stroke: #000000; stroke-width: 0.8"/>
      </defs>
      <g>
       <use xlink:href="#m37bcf702ff" x="173.045455" y="448.56" style="stroke: #000000; stroke-width: 0.8"/>
      </g>
     </g>
     <g id="text_1">
      <!-- 0 -->
      <g transform="translate(169.864205 463.158437) scale(0.1 -0.1)">
       <defs>
        <path id="DejaVuSans-30" d="M 2034 4250 
Q 1547 4250 1301 3770 
Q 1056 3291 1056 2328 
Q 1056 1369 1301 889 
Q 1547 409 2034 409 
Q 2525 409 2770 889 
Q 3016 1369 3016 2328 
Q 3016 3291 2770 3770 
Q 2525 4250 2034 4250 
z
M 2034 4750 
Q 2819 4750 3233 4129 
Q 3647 3509 3647 2328 
Q 3647 1150 3233 529 
Q 2819 -91 2034 -91 
Q 1250 -91 836 529 
Q 422 1150 422 2328 
Q 422 3509 836 4129 
Q 1250 4750 2034 4750 
z
" transform="scale(0.015625)"/>
       </defs>
       <use xlink:href="#DejaVuSans-30"/>
      </g>
     </g>
    </g>
    <g id="xtick_2">
     <g id="line2d_2">
      <g>
       <use xlink:href="#m37bcf702ff" x="333.33808" y="448.56" style="stroke: #000000; stroke-width: 0.8"/>
      </g>
     </g>
     <g id="text_2">
      <!-- 1000 -->
      <g transform="translate(320.61308 463.158437) scale(0.1 -0.1)">
       <defs>
        <path id="DejaVuSans-31" d="M 794 531 
L 1825 531 
L 1825 4091 
L 703 3866 
L 703 4441 
L 1819 4666 
L 2450 4666 
L 2450 531 
L 3481 531 
L 3481 0 
L 794 0 
L 794 531 
z
" transform="scale(0.015625)"/>
       </defs>
       <use xlink:href="#DejaVuSans-31"/>
       <use xlink:href="#DejaVuSans-30" x="63.623047"/>
       <use xlink:href="#DejaVuSans-30" x="127.246094"/>
       <use xlink:href="#DejaVuSans-30" x="190.869141"/>
      </g>
     </g>
    </g>
    <g id="xtick_3">
     <g id="line2d_3">
      <g>
       <use xlink:href="#m37bcf702ff" x="493.630705" y="448.56" style="stroke: #000000; stroke-width: 0.8"/>
      </g>
     </g>
     <g id="text_3">
      <!-- 2000 -->
      <g transform="translate(480.905705 463.158437) scale(0.1 -0.1)">
       <defs>
        <path id="DejaVuSans-32" d="M 1228 531 
L 3431 531 
L 3431 0 
L 469 0 
L 469 531 
Q 828 903 1448 1529 
Q 2069 2156 2228 2338 
Q 2531 2678 2651 2914 
Q 2772 3150 2772 3378 
Q 2772 3750 2511 3984 
Q 2250 4219 1831 4219 
Q 1534 4219 1204 4116 
Q 875 4013 500 3803 
L 500 4441 
Q 881 4594 1212 4672 
Q 1544 4750 1819 4750 
Q 2544 4750 2975 4387 
Q 3406 4025 3406 3419 
Q 3406 3131 3298 2873 
Q 3191 2616 2906 2266 
Q 2828 2175 2409 1742 
Q 1991 1309 1228 531 
z
" transform="scale(0.015625)"/>
       </defs>
       <use xlink:href="#DejaVuSans-32"/>
       <use xlink:href="#DejaVuSans-30" x="63.623047"/>
       <use xlink:href="#DejaVuSans-30" x="127.246094"/>
       <use xlink:href="#DejaVuSans-30" x="190.869141"/>
      </g>
     </g>
    </g>
    <g id="xtick_4">
     <g id="line2d_4">
      <g>
       <use xlink:href="#m37bcf702ff" x="653.92333" y="448.56" style="stroke: #000000; stroke-width: 0.8"/>
      </g>
     </g>
     <g id="text_4">
      <!-- 3000 -->
      <g transform="translate(641.19833 463.158437) scale(0.1 -0.1)">
       <defs>
        <path id="DejaVuSans-33" d="M 2597 2516 
Q 3050 2419 3304 2112 
Q 3559 1806 3559 1356 
Q 3559 666 3084 287 
Q 2609 -91 1734 -91 
Q 1441 -91 1130 -33 
Q 819 25 488 141 
L 488 750 
Q 750 597 1062 519 
Q 1375 441 1716 441 
Q 2309 441 2620 675 
Q 2931 909 2931 1356 
Q 2931 1769 2642 2001 
Q 2353 2234 1838 2234 
L 1294 2234 
L 1294 2753 
L 1863 2753 
Q 2328 2753 2575 2939 
Q 2822 3125 2822 3475 
Q 2822 3834 2567 4026 
Q 2313 4219 1838 4219 
Q 1578 4219 1281 4162 
Q 984 4106 628 3988 
L 628 4550 
Q 988 4650 1302 4700 
Q 1616 4750 1894 4750 
Q 2613 4750 3031 4423 
Q 3450 4097 3450 3541 
Q 3450 3153 3228 2886 
Q 3006 2619 2597 2516 
z
" transform="scale(0.015625)"/>
       </defs>
       <use xlink:href="#DejaVuSans-33"/>
       <use xlink:href="#DejaVuSans-30" x="63.623047"/>
       <use xlink:href="#DejaVuSans-30" x="127.246094"/>
       <use xlink:href="#DejaVuSans-30" x="190.869141"/>
      </g>
     </g>
    </g>
    <g id="xtick_5">
     <g id="line2d_5">
      <g>
       <use xlink:href="#m37bcf702ff" x="814.215955" y="448.56" style="stroke: #000000; stroke-width: 0.8"/>
      </g>
     </g>
     <g id="text_5">
      <!-- 4000 -->
      <g transform="translate(801.490955 463.158437) scale(0.1 -0.1)">
       <defs>
        <path id="DejaVuSans-34" d="M 2419 4116 
L 825 1625 
L 2419 1625 
L 2419 4116 
z
M 2253 4666 
L 3047 4666 
L 3047 1625 
L 3713 1625 
L 3713 1100 
L 3047 1100 
L 3047 0 
L 2419 0 
L 2419 1100 
L 313 1100 
L 313 1709 
L 2253 4666 
z
" transform="scale(0.015625)"/>
       </defs>
       <use xlink:href="#DejaVuSans-34"/>
       <use xlink:href="#DejaVuSans-30" x="63.623047"/>
       <use xlink:href="#DejaVuSans-30" x="127.246094"/>
       <use xlink:href="#DejaVuSans-30" x="190.869141"/>
      </g>
     </g>
    </g>
    <g id="text_6">
     <!-- t -->
     <g transform="translate(551.539844 476.836563) scale(0.1 -0.1)">
      <defs>
       <path id="DejaVuSans-74" d="M 1172 4494 
L 1172 3500 
L 2356 3500 
L 2356 3053 
L 1172 3053 
L 1172 1153 
Q 1172 725 1289 603 
Q 1406 481 1766 481 
L 2356 481 
L 2356 0 
L 1766 0 
Q 1100 0 847 248 
Q 594 497 594 1153 
L 594 3053 
L 172 3053 
L 172 3500 
L 594 3500 
L 594 4494 
L 1172 4494 
z
" transform="scale(0.015625)"/>
      </defs>
      <use xlink:href="#DejaVuSans-74"/>
     </g>
    </g>
   </g>
   <g id="matplotlib.axis_2">
    <g id="ytick_1">
     <g id="line2d_6">
      <defs>
       <path id="m0963e4c727" d="M 0 0 
L -3.5 0 
" style="stroke: #000000; stroke-width: 0.8"/>
      </defs>
      <g>
       <use xlink:href="#m0963e4c727" x="135" y="443.270698" style="stroke: #000000; stroke-width: 0.8"/>
      </g>
     </g>
     <g id="text_7">
      <!-- −40 -->
      <g transform="translate(106.895313 447.069917) scale(0.1 -0.1)">
       <defs>
        <path id="DejaVuSans-2212" d="M 678 2272 
L 4684 2272 
L 4684 1741 
L 678 1741 
L 678 2272 
z
" transform="scale(0.015625)"/>
       </defs>
       <use xlink:href="#DejaVuSans-2212"/>
       <use xlink:href="#DejaVuSans-34" x="83.789062"/>
       <use xlink:href="#DejaVuSans-30" x="147.412109"/>
      </g>
     </g>
    </g>
    <g id="ytick_2">
     <g id="line2d_7">
      <g>
       <use xlink:href="#m0963e4c727" x="135" y="378.007642" style="stroke: #000000; stroke-width: 0.8"/>
      </g>
     </g>
     <g id="text_8">
      <!-- −20 -->
      <g transform="translate(106.895313 381.806861) scale(0.1 -0.1)">
       <use xlink:href="#DejaVuSans-2212"/>
       <use xlink:href="#DejaVuSans-32" x="83.789062"/>
       <use xlink:href="#DejaVuSans-30" x="147.412109"/>
      </g>
     </g>
    </g>
    <g id="ytick_3">
     <g id="line2d_8">
      <g>
       <use xlink:href="#m0963e4c727" x="135" y="312.744586" style="stroke: #000000; stroke-width: 0.8"/>
      </g>
     </g>
     <g id="text_9">
      <!-- 0 -->
      <g transform="translate(121.6375 316.543805) scale(0.1 -0.1)">
       <use xlink:href="#DejaVuSans-30"/>
      </g>
     </g>
    </g>
    <g id="ytick_4">
     <g id="line2d_9">
      <g>
       <use xlink:href="#m0963e4c727" x="135" y="247.481531" style="stroke: #000000; stroke-width: 0.8"/>
      </g>
     </g>
     <g id="text_10">
      <!-- 20 -->
      <g transform="translate(115.275 251.280749) scale(0.1 -0.1)">
       <use xlink:href="#DejaVuSans-32"/>
       <use xlink:href="#DejaVuSans-30" x="63.623047"/>
      </g>
     </g>
    </g>
    <g id="ytick_5">
     <g id="line2d_10">
      <g>
       <use xlink:href="#m0963e4c727" x="135" y="182.218475" style="stroke: #000000; stroke-width: 0.8"/>
      </g>
     </g>
     <g id="text_11">
      <!-- 40 -->
      <g transform="translate(115.275 186.017694) scale(0.1 -0.1)">
       <use xlink:href="#DejaVuSans-34"/>
       <use xlink:href="#DejaVuSans-30" x="63.623047"/>
      </g>
     </g>
    </g>
    <g id="ytick_6">
     <g id="line2d_11">
      <g>
       <use xlink:href="#m0963e4c727" x="135" y="116.955419" style="stroke: #000000; stroke-width: 0.8"/>
      </g>
     </g>
     <g id="text_12">
      <!-- 60 -->
      <g transform="translate(115.275 120.754638) scale(0.1 -0.1)">
       <defs>
        <path id="DejaVuSans-36" d="M 2113 2584 
Q 1688 2584 1439 2293 
Q 1191 2003 1191 1497 
Q 1191 994 1439 701 
Q 1688 409 2113 409 
Q 2538 409 2786 701 
Q 3034 994 3034 1497 
Q 3034 2003 2786 2293 
Q 2538 2584 2113 2584 
z
M 3366 4563 
L 3366 3988 
Q 3128 4100 2886 4159 
Q 2644 4219 2406 4219 
Q 1781 4219 1451 3797 
Q 1122 3375 1075 2522 
Q 1259 2794 1537 2939 
Q 1816 3084 2150 3084 
Q 2853 3084 3261 2657 
Q 3669 2231 3669 1497 
Q 3669 778 3244 343 
Q 2819 -91 2113 -91 
Q 1303 -91 875 529 
Q 447 1150 447 2328 
Q 447 3434 972 4092 
Q 1497 4750 2381 4750 
Q 2619 4750 2861 4703 
Q 3103 4656 3366 4563 
z
" transform="scale(0.015625)"/>
       </defs>
       <use xlink:href="#DejaVuSans-36"/>
       <use xlink:href="#DejaVuSans-30" x="63.623047"/>
      </g>
     </g>
    </g>
   </g>
   <g id="line2d_12">
    <path d="M 173.045455 308.792189 
L 173.36604 289.500897 
L 173.846918 240.376027 
L 174.968966 118.835554 
L 175.449844 89.087277 
L 175.770429 79.691586 
L 175.930722 78.12 
L 176.091014 78.558308 
L 176.251307 80.921787 
L 176.571892 90.999213 
L 177.05277 117.596602 
L 177.693941 168.627804 
L 178.174819 228.761962 
L 179.617452 353.374875 
L 180.258623 398.679655 
L 180.739501 420.460275 
L 181.060086 428.261335 
L 181.380671 430.92 
L 181.540964 430.498663 
L 181.861549 426.637794 
L 182.342427 414.957098 
L 183.14389 386.99848 
L 184.586524 336.810899 
L 185.387987 316.564493 
L 186.029157 305.395438 
L 186.510035 299.972351 
L 186.990913 296.912613 
L 187.311498 296.049327 
L 187.471791 295.931766 
L 187.632083 296.004309 
L 187.952669 296.658728 
L 188.433547 298.679587 
L 189.074717 302.670922 
L 191.158521 316.751217 
L 191.799692 319.509749 
L 192.28057 320.839816 
L 192.761447 321.543922 
L 193.082033 321.691574 
L 193.402618 321.611263 
L 193.883496 321.134901 
L 194.524666 320.033642 
L 196.448178 316.312226 
L 197.089348 315.58702 
L 197.730519 315.19905 
L 198.371689 315.061563 
L 200.295201 314.828679 
L 200.936371 314.461874 
L 201.737834 313.725094 
L 203.180468 311.957784 
L 204.302516 310.726904 
L 205.10398 310.175515 
L 205.74515 309.987303 
L 206.386321 310.022047 
L 207.187784 310.328697 
L 208.309832 311.051933 
L 209.752466 311.972547 
L 210.553929 312.271247 
L 211.355392 312.343528 
L 212.156855 312.182109 
L 213.118611 311.723581 
L 213.278903 311.625057 
L 213.599489 305.272452 
L 213.759781 304.510096 
L 213.920074 304.736511 
L 214.400952 307.648798 
L 214.721537 309.286743 
L 215.042122 309.995829 
L 215.202415 310.028976 
L 215.523 309.636384 
L 216.805341 307.073809 
L 216.965634 307.102514 
L 217.125926 307.295819 
L 217.446512 308.2846 
L 217.767097 310.24807 
L 218.408267 315.536788 
L 218.56856 315.187869 
L 219.370023 312.36524 
L 219.690608 311.912785 
L 220.011194 311.779901 
L 220.331779 311.861206 
L 220.972949 312.367995 
L 221.774413 313.030377 
L 222.415583 313.23844 
L 223.217046 313.177552 
L 225.781728 312.638705 
L 227.064069 312.04705 
L 230.109629 310.405957 
L 230.911092 310.330093 
L 231.712555 310.495976 
L 232.674311 310.941492 
L 235.399286 312.354598 
L 236.681627 312.694277 
L 238.12426 312.841021 
L 239.406601 312.741991 
L 240.52865 312.413974 
L 241.810991 311.764792 
L 244.375673 310.34935 
L 245.337428 310.118719 
L 246.299184 310.151119 
L 247.26094 310.423954 
L 248.703574 311.105116 
L 250.466792 311.89974 
L 251.588841 312.148578 
L 252.550597 312.145984 
L 253.672645 311.909423 
L 253.99323 311.804334 
L 254.313815 302.857582 
L 254.474108 301.454648 
L 254.634401 301.381893 
L 254.954986 303.389594 
L 255.596156 308.40548 
L 255.916742 309.773196 
L 256.237327 310.357984 
L 256.557912 310.384745 
L 256.878497 310.08032 
L 257.519668 309.317289 
L 257.840253 309.304588 
L 258.000546 309.498299 
L 258.321131 310.445317 
L 258.641716 312.335184 
L 258.802009 313.69676 
L 259.122594 317.036365 
L 259.282887 317.157617 
L 259.603472 316.468161 
L 260.404935 314.396599 
L 261.046106 313.340427 
L 261.526984 312.913858 
L 262.007861 312.753575 
L 263.12991 312.748328 
L 265.694592 312.638987 
L 266.81664 312.301533 
L 268.259274 311.58108 
L 270.343078 310.487278 
L 271.144541 310.296967 
L 271.946004 310.328787 
L 272.747467 310.574734 
L 274.029808 311.244359 
L 275.793027 312.150009 
L 277.075368 312.560033 
L 278.518002 312.786425 
L 279.800343 312.773984 
L 280.922391 312.533713 
L 282.04444 312.052874 
L 285.73117 310.208916 
L 286.692926 310.150506 
L 287.654681 310.343685 
L 288.937022 310.882386 
L 291.341412 311.955523 
L 292.46346 312.163126 
L 293.425216 312.127218 
L 293.585509 312.102822 
L 293.906094 302.857652 
L 294.066386 301.364743 
L 294.226679 301.232677 
L 294.547264 303.191326 
L 295.188435 308.264804 
L 295.50902 309.686608 
L 295.829605 310.318962 
L 296.150191 310.377315 
L 296.470776 310.084469 
L 297.111946 309.288404 
L 297.432532 309.239436 
L 297.592824 309.412536 
L 297.913409 310.316994 
L 298.233995 312.166795 
L 298.394287 313.510614 
L 298.714873 317.28395 
L 298.875165 317.509451 
L 299.035458 317.295622 
L 300.638384 313.433062 
L 301.119262 312.962414 
L 301.60014 312.800956 
L 302.722188 312.837625 
L 304.6457 312.744592 
L 305.767748 312.50792 
L 307.050089 311.97377 
L 310.576527 310.274629 
L 311.37799 310.254068 
L 312.179453 310.45814 
L 313.301501 311.015385 
L 315.545598 312.208398 
L 316.827939 312.615066 
L 318.270573 312.831587 
L 319.552914 312.790915 
L 320.674962 312.510694 
L 321.797011 311.989816 
L 325.002863 310.283719 
L 325.964619 310.134153 
L 326.926375 310.245445 
L 328.048423 310.645884 
L 331.414568 312.073594 
L 332.376324 312.172013 
L 333.498372 312.040997 
L 333.818957 311.960588 
L 334.139543 302.862924 
L 334.299835 301.414607 
L 334.460128 301.312046 
L 334.780713 303.295398 
L 335.421884 308.340943 
L 335.742469 309.736122 
L 336.063054 310.345156 
L 336.383639 310.388267 
L 336.704225 310.090255 
L 337.345395 309.311725 
L 337.66598 309.28095 
L 337.826273 309.464196 
L 338.146858 310.389148 
L 338.467444 312.2575 
L 338.627736 313.609183 
L 338.948321 317.144104 
L 339.108614 317.313689 
L 339.429199 316.657058 
L 340.390955 314.174545 
L 341.032126 313.199457 
L 341.513003 312.856653 
L 342.154174 312.758511 
L 344.879149 312.726461 
L 346.001197 312.518207 
L 347.123245 312.072455 
L 348.886464 311.101913 
L 350.168805 310.470269 
L 350.970268 310.277015 
L 351.771731 310.306312 
L 352.573195 310.551653 
L 353.855536 311.225865 
L 355.618754 312.145833 
L 356.901095 312.566576 
L 358.343729 312.800629 
L 359.62607 312.789894 
L 360.748118 312.547807 
L 361.870167 312.063289 
L 365.556897 310.20738 
L 366.518653 310.147538 
L 367.480409 310.340049 
L 368.76275 310.878808 
L 371.167139 311.953732 
L 372.289187 312.16242 
L 373.090651 312.146613 
L 373.411236 302.822021 
L 373.571528 301.307451 
L 373.731821 301.162729 
L 374.052406 303.1159 
L 374.693577 308.220218 
L 375.014162 309.662785 
L 375.334747 310.312787 
L 375.655333 310.383129 
L 375.975918 310.095651 
L 376.777381 309.208284 
L 376.937674 309.233382 
L 377.097966 309.400688 
L 377.418551 310.293022 
L 377.739137 312.131287 
L 377.899429 313.469962 
L 378.220015 317.378028 
L 378.380307 317.635972 
L 378.5406 317.438263 
L 380.303819 313.266793 
L 380.784697 312.899166 
L 381.265574 312.808592 
L 383.990549 312.764481 
L 385.112597 312.544174 
L 386.394938 312.033223 
L 388.31845 310.978333 
L 389.600791 310.379166 
L 390.402254 310.222146 
L 391.203717 310.292779 
L 392.165473 310.651691 
L 396.172789 312.579513 
L 397.615422 312.828822 
L 398.897763 312.821408 
L 400.019812 312.575607 
L 401.14186 312.083627 
L 404.668298 310.239617 
L 405.630053 310.132743 
L 406.591809 310.284436 
L 407.713858 310.71661 
L 410.599125 311.995923 
L 411.721173 312.169083 
L 412.682929 312.10375 
L 413.644685 311.864953 
L 413.96527 302.841455 
L 414.125563 301.417066 
L 414.285855 301.331437 
L 414.60644 303.332364 
L 415.247611 308.374585 
L 415.568196 309.760866 
L 415.888781 310.361796 
L 416.209367 310.399969 
L 416.529952 310.101241 
L 417.171122 309.333114 
L 417.491708 309.311402 
L 417.652 309.499534 
L 417.972586 310.434085 
L 418.293171 312.310782 
L 418.453463 313.665856 
L 418.774049 317.087985 
L 418.934341 317.231578 
L 419.254927 316.560748 
L 420.05639 314.462241 
L 420.69756 313.372882 
L 421.178438 312.930557 
L 421.659316 312.762977 
L 422.781364 312.757098 
L 425.346046 312.634798 
L 426.468095 312.291688 
L 427.910728 311.570877 
L 429.994532 310.478902 
L 430.795996 310.288169 
L 431.597459 310.319439 
L 432.398922 310.565275 
L 433.681263 311.236432 
L 435.444482 312.147106 
L 436.726823 312.561146 
L 438.169456 312.790661 
L 439.451797 312.7792 
L 440.573846 312.538558 
L 441.695894 312.056617 
L 445.382624 310.20865 
L 446.34438 310.149705 
L 447.306136 310.342598 
L 448.588477 310.881237 
L 450.992866 311.954881 
L 452.114915 312.162847 
L 453.07667 312.127257 
L 453.557548 312.039825 
L 453.878134 302.870157 
L 454.038426 301.399356 
L 454.198719 301.281407 
L 454.519304 303.25032 
L 455.160475 308.304708 
L 455.48106 309.710944 
L 455.801645 310.329837 
L 456.12223 310.379272 
L 456.442816 310.083035 
L 457.083986 309.295375 
L 457.404571 309.255804 
L 457.564864 309.434211 
L 457.885449 310.349505 
L 458.206034 312.20927 
L 458.366327 313.557381 
L 458.686912 317.206254 
L 458.847205 317.402343 
L 459.16779 316.76063 
L 460.129546 314.217315 
L 460.770716 313.213626 
L 461.251594 312.866649 
L 461.892765 312.775724 
L 464.136862 312.768854 
L 465.419203 312.605276 
L 466.541251 312.21241 
L 468.144177 311.373497 
L 469.907396 310.461282 
L 470.708859 310.265703 
L 471.510322 310.293116 
L 472.311785 310.537967 
L 473.594126 311.215131 
L 475.357345 312.144231 
L 476.639686 312.571635 
L 478.08232 312.810264 
L 479.364661 312.800338 
L 480.486709 312.556892 
L 481.608758 312.069875 
L 485.295488 310.206142 
L 486.257244 310.145402 
L 487.219 310.337524 
L 488.501341 310.876391 
L 490.90573 311.952577 
L 492.027778 312.161983 
L 492.989534 312.127533 
L 493.630705 312.002439 
L 493.95129 302.868198 
L 494.111582 301.408399 
L 494.271875 301.297932 
L 494.59246 303.273717 
L 495.233631 308.32322 
L 495.554216 309.723768 
L 495.874801 310.337597 
L 496.195387 310.383746 
L 496.515972 310.086503 
L 497.157142 309.303188 
L 497.477728 309.26792 
L 497.63802 309.448706 
L 497.958605 310.368762 
L 498.279191 312.232777 
L 498.439483 313.582662 
L 498.760069 317.174896 
L 498.920361 317.35779 
L 499.240946 316.708609 
L 500.202702 314.195472 
L 500.843873 313.2061 
L 501.324751 312.861308 
L 501.965921 312.766947 
L 504.37031 312.752949 
L 505.492359 312.604956 
L 506.614407 312.215826 
L 508.217333 311.377013 
L 509.980552 310.465697 
L 510.782015 310.271264 
L 511.583479 310.299613 
L 512.384942 310.544715 
L 513.667283 311.220433 
L 515.430502 312.145027 
L 516.712843 312.569136 
L 518.155476 312.805498 
L 519.437817 312.795168 
L 520.559866 312.552392 
L 521.681914 312.066609 
L 525.368644 310.206751 
L 526.3304 310.146457 
L 527.292156 310.338773 
L 528.574497 310.877588 
L 530.978886 311.95315 
L 532.100935 312.1622 
L 533.06269 312.127469 
L 533.864153 311.959764 
L 534.184739 302.864273 
L 534.345031 301.416397 
L 534.505324 301.313983 
L 534.825909 303.297035 
L 535.46708 308.340967 
L 535.787665 309.73533 
L 536.10825 310.343726 
L 536.428835 310.386432 
L 536.749421 310.088254 
L 537.390591 309.310012 
L 537.711176 309.279602 
L 537.871469 309.463064 
L 538.192054 310.388478 
L 538.51264 312.257298 
L 538.672932 313.609205 
L 538.993517 317.140824 
L 539.15381 317.309566 
L 539.474395 316.652347 
L 540.436151 314.171909 
L 541.077322 313.198456 
L 541.558199 312.856429 
L 542.19937 312.758779 
L 544.924345 312.727393 
L 546.046393 312.519448 
L 547.168441 312.073746 
L 548.93166 311.102918 
L 550.214001 310.47109 
L 551.015464 310.277776 
L 551.816927 310.307036 
L 552.618391 310.552337 
L 553.900732 311.226433 
L 555.66395 312.146138 
L 556.946291 312.566677 
L 558.388925 312.800561 
L 559.671266 312.789754 
L 560.793314 312.547662 
L 561.915363 312.063175 
L 565.602093 310.207417 
L 566.563849 310.147596 
L 567.525605 310.340116 
L 568.807946 310.878874 
L 571.212335 311.953769 
L 572.334383 312.162438 
L 573.296139 312.127404 
L 574.257895 311.91301 
L 574.57848 302.856218 
L 574.738773 301.420529 
L 574.899065 301.326545 
L 575.219651 303.317803 
L 575.860821 308.358121 
L 576.181406 309.747112 
L 576.501992 310.350725 
L 576.822577 310.390466 
L 577.143162 310.091673 
L 577.784333 309.318735 
L 578.104918 309.293136 
L 578.265211 309.479216 
L 578.585796 310.409828 
L 578.906381 312.283242 
L 579.066674 313.637054 
L 579.387259 317.10933 
L 579.547552 317.264304 
L 579.868137 316.599414 
L 580.6696 314.479309 
L 581.31077 313.37664 
L 581.791648 312.932729 
L 582.272526 312.768331 
L 583.394575 312.771898 
L 585.798964 312.667786 
L 586.76072 312.41558 
L 588.043061 311.83498 
L 590.928328 310.374697 
L 591.729791 310.268404 
L 592.531254 310.389026 
L 593.49301 310.786005 
L 596.859155 312.433593 
L 598.301789 312.744065 
L 599.58413 312.817221 
L 600.706178 312.676414 
L 601.828226 312.294245 
L 603.27086 311.505956 
L 605.194372 310.452465 
L 606.156127 310.179844 
L 607.117883 310.164304 
L 608.079639 310.394563 
L 609.36198 310.959768 
L 611.445784 311.903946 
L 612.567832 312.149285 
L 613.209003 312.169389 
L 613.529588 302.768165 
L 613.689881 301.233566 
L 613.850173 301.077859 
L 614.170759 303.028816 
L 614.811929 308.169557 
L 615.132514 309.635108 
L 615.4531 310.30464 
L 615.773685 310.388571 
L 616.09427 310.107831 
L 616.895733 309.211111 
L 617.056026 309.231249 
L 617.216318 309.393076 
L 617.536904 310.273762 
L 617.857489 312.10076 
L 618.017782 313.434353 
L 618.338367 317.477788 
L 618.498659 317.768643 
L 618.658952 317.587523 
L 619.300123 315.704806 
L 619.941293 314.081302 
L 620.422171 313.30375 
L 620.903049 312.92191 
L 621.383927 312.828514 
L 623.948609 312.785367 
L 625.23095 312.529659 
L 626.513291 312.012586 
L 628.597095 310.874108 
L 629.719143 310.364025 
L 630.520606 310.2057 
L 631.322069 310.275209 
L 632.283825 310.634466 
L 634.367629 311.820619 
L 635.64997 312.386495 
L 636.932311 312.726597 
L 638.214652 312.864697 
L 639.336701 312.786569 
L 640.458749 312.467467 
L 641.74109 311.818147 
L 644.305772 310.389064 
L 645.267528 310.151217 
L 646.229284 310.175658 
L 647.191039 310.440287 
L 648.633673 311.110469 
L 650.396892 311.897658 
L 651.51894 312.146477 
L 652.480696 312.146611 
L 653.602744 311.915539 
L 653.92333 311.812298 
L 654.243915 302.824879 
L 654.404207 301.412605 
L 654.5645 301.335868 
L 654.885085 303.346933 
L 655.526256 308.390743 
L 655.846841 309.77399 
L 656.167426 310.37199 
L 656.488012 310.408492 
L 656.808597 310.109888 
L 657.449767 309.347114 
L 657.770353 309.329692 
L 657.930645 309.520091 
L 658.25123 310.45901 
L 658.571816 312.339379 
L 658.732108 313.695887 
L 659.052694 317.064741 
L 659.212986 317.196202 
L 659.533571 316.518986 
L 660.335035 314.443602 
L 660.976205 313.368883 
L 661.457083 312.928665 
L 661.937961 312.758055 
L 663.060009 312.742503 
L 665.784984 312.598586 
L 666.907032 312.224985 
L 668.349666 311.480909 
L 670.273177 310.48243 
L 671.07464 310.29307 
L 671.876104 310.325385 
L 672.677567 310.5715 
L 673.959908 311.241188 
L 675.723127 312.147377 
L 677.005468 312.55822 
L 678.448101 312.785621 
L 679.730442 312.773885 
L 680.852491 312.534 
L 681.974539 312.053348 
L 685.661269 310.209265 
L 686.623025 310.150752 
L 687.584781 310.343825 
L 688.867122 310.882401 
L 691.271511 311.955424 
L 692.39356 312.163042 
L 693.355315 312.127179 
L 694.156778 311.958653 
L 694.477364 302.865898 
L 694.637656 301.418588 
L 694.797949 301.316374 
L 695.118534 303.299088 
L 695.759705 308.341067 
L 696.08029 309.734435 
L 696.400875 310.342053 
L 696.72146 310.384265 
L 697.042046 310.08589 
L 697.683216 309.308015 
L 698.003801 309.278059 
L 698.164094 309.461785 
L 698.484679 310.387767 
L 698.805265 312.257158 
L 698.965557 313.609337 
L 699.286142 317.136751 
L 699.446435 317.304426 
L 699.76702 316.64647 
L 700.728776 314.168651 
L 701.369947 313.197226 
L 701.850824 312.856143 
L 702.491995 312.759072 
L 705.056677 312.739011 
L 706.178725 312.566706 
L 707.300774 312.150397 
L 708.9037 311.289827 
L 710.506626 310.472114 
L 711.308089 310.27873 
L 712.109552 310.307947 
L 712.911016 310.553198 
L 714.193357 311.227146 
L 715.956575 312.146513 
L 717.238916 312.566794 
L 718.68155 312.800463 
L 719.963891 312.789567 
L 721.085939 312.54747 
L 722.207988 312.063026 
L 725.894718 310.207466 
L 726.856474 310.147671 
L 727.81823 310.340204 
L 729.100571 310.878959 
L 731.50496 311.953815 
L 732.627008 312.162461 
L 733.588764 312.127408 
L 734.069642 312.040215 
L 734.390227 302.869269 
L 734.55052 301.398218 
L 734.710813 301.280194 
L 735.031398 303.24931 
L 735.672568 308.304696 
L 735.993154 309.71143 
L 736.313739 310.330709 
L 736.634324 310.380389 
L 736.954909 310.08425 
L 737.59608 309.296414 
L 737.916665 309.256622 
L 738.076958 309.4349 
L 738.397543 310.349916 
L 738.718128 312.2094 
L 738.878421 313.557377 
L 739.199006 317.208264 
L 739.359299 317.404868 
L 739.679884 316.763515 
L 740.64164 314.218942 
L 741.28281 313.214254 
L 741.763688 312.8668 
L 742.404859 312.775568 
L 744.648955 312.768377 
L 745.931296 312.604545 
L 747.053345 312.211598 
L 748.656271 311.372815 
L 750.41949 310.460773 
L 751.220953 310.265232 
L 752.022416 310.29267 
L 752.823879 310.537546 
L 754.10622 311.214781 
L 755.869439 312.144041 
L 757.15178 312.571569 
L 758.594414 312.810302 
L 759.876755 312.80042 
L 760.998803 312.556979 
L 762.120851 312.069943 
L 765.807582 310.206118 
L 766.769338 310.145366 
L 767.731093 310.337483 
L 769.013434 310.87635 
L 771.417824 311.952555 
L 772.539872 312.161971 
L 773.501628 312.127531 
L 773.822213 312.074327 
L 774.142798 302.863652 
L 774.303091 301.381051 
L 774.463384 301.255704 
L 774.783969 303.219639 
L 775.425139 308.285357 
L 775.745725 309.700324 
L 776.06631 310.326673 
L 776.386895 310.380992 
L 776.70748 310.086561 
L 777.348651 309.294107 
L 777.669236 309.249256 
L 777.829529 309.42468 
L 778.150114 310.333858 
L 778.470699 312.187949 
L 778.630992 313.533585 
L 778.951577 317.249017 
L 779.11187 317.460912 
L 779.272162 317.240551 
L 780.875089 313.420449 
L 781.355966 312.955076 
L 781.836844 312.793266 
L 782.958893 312.824182 
L 785.042697 312.721888 
L 786.164745 312.457504 
L 787.447086 311.897546 
L 790.652939 310.31145 
L 791.454402 310.245929 
L 792.255865 310.407993 
L 793.217621 310.841905 
L 796.102888 312.330873 
L 797.385229 312.68072 
L 798.827863 312.840096 
L 799.949911 312.761134 
L 801.071959 312.445931 
L 802.3543 311.804214 
L 804.918982 310.389927 
L 805.880738 310.155492 
L 806.842494 310.18192 
L 807.80425 310.447256 
L 809.246883 311.116676 
L 811.010102 311.901252 
L 812.13215 312.148114 
L 813.093906 312.146654 
L 813.414491 312.103467 
L 813.735077 302.853702 
L 813.895369 301.359969 
L 814.055662 301.227742 
L 814.376247 303.187387 
L 815.017418 308.265 
L 815.338003 309.688815 
L 815.658588 310.322738 
L 815.979173 310.382107 
L 816.299759 310.089707 
L 816.940929 309.293069 
L 817.261514 309.24328 
L 817.421807 309.415885 
L 817.742392 310.319255 
L 818.062978 312.167927 
L 818.22327 313.511191 
L 818.543855 317.291405 
L 818.704148 317.518726 
L 818.864441 317.305905 
L 820.467367 313.436496 
L 820.948245 312.963625 
L 821.429123 312.800777 
L 822.551171 312.836301 
L 824.474683 312.74224 
L 825.596731 312.504973 
L 826.879072 311.97079 
L 830.40551 310.272926 
L 831.206973 310.25248 
L 832.008436 310.456645 
L 833.130484 311.01407 
L 835.374581 312.207723 
L 836.656922 312.614797 
L 838.099556 312.83166 
L 839.381897 312.791138 
L 840.503945 312.510938 
L 841.625993 311.990009 
L 844.831846 310.283669 
L 845.793602 310.134056 
L 846.755357 310.24532 
L 847.877406 310.645753 
L 851.243551 312.073536 
L 852.205307 312.171985 
L 853.327355 312.041002 
L 854.609696 311.632104 
L 854.930281 302.759811 
L 855.090574 301.386795 
L 855.250867 301.339292 
L 855.571452 303.384926 
L 856.212622 308.438775 
L 856.533208 309.814549 
L 856.853793 310.405011 
L 857.174378 310.437536 
L 857.494963 310.140214 
L 858.136134 309.39503 
L 858.456719 309.391064 
L 858.777304 309.961426 
L 859.09789 311.355717 
L 859.418475 313.79307 
L 859.73906 316.998456 
L 859.899353 317.092853 
L 860.219938 316.396408 
L 861.021401 314.392016 
L 861.662572 313.361107 
L 862.143449 312.926163 
L 862.624327 312.745039 
L 863.746376 312.697634 
L 866.791936 312.511252 
L 867.913984 312.082669 
L 869.677203 311.115992 
L 870.959544 310.493639 
L 871.761007 310.308584 
L 872.56247 310.344105 
L 873.363933 310.590999 
L 874.646274 311.255968 
L 876.409493 312.148098 
L 877.691834 312.549 
L 879.134468 312.76988 
L 880.416809 312.75735 
L 881.538857 312.519859 
L 882.660905 312.043241 
L 886.347636 310.211205 
L 887.309392 310.154015 
L 888.271147 310.347636 
L 889.553488 310.886005 
L 891.957878 311.957095 
L 893.079926 312.163637 
L 894.041682 312.126927 
L 894.362267 312.073034 
L 894.682852 302.867757 
L 894.843145 301.386171 
L 895.003438 301.261081 
L 895.324023 303.224019 
L 895.965193 308.285249 
L 896.285779 309.698012 
L 896.606364 310.32265 
L 896.926949 310.375885 
L 897.247534 310.08101 
L 897.888705 309.289306 
L 898.20929 309.245412 
L 898.369583 309.4214 
L 898.690168 310.331795 
L 899.010753 312.187122 
L 899.171046 313.533351 
L 899.491631 317.240224 
L 899.651924 317.449918 
L 899.812216 317.228379 
L 901.25485 313.651783 
L 901.735728 313.069178 
L 902.216606 312.821356 
L 902.857776 312.792917 
L 904.460702 312.799131 
L 906.063629 312.64244 
L 907.185677 312.277013 
L 908.628311 311.55318 
L 910.872407 310.401154 
L 911.673871 310.246565 
L 912.475334 310.319113 
L 913.437089 310.677507 
L 917.284112 312.532211 
L 918.726746 312.80009 
L 920.009087 312.820834 
L 921.131135 312.611592 
L 922.253184 312.156189 
L 924.016403 311.121592 
L 925.459036 310.389974 
L 926.420792 310.155611 
L 927.382548 310.182082 
L 928.344304 310.447434 
L 929.786937 311.116838 
L 931.550156 311.901353 
L 932.672204 312.148168 
L 933.63396 312.146669 
L 933.794253 312.127593 
L 933.954545 306.255681 
L 933.954545 306.255681 
" clip-path="url(#pd617a367fe)" style="fill: none; stroke: #1f77b4; stroke-width: 1.5; stroke-linecap: square"/>
   </g>
   <g id="line2d_13">
    <path d="M 173.045455 309.481434 
L 177.693941 309.481434 
L 177.854233 312.744586 
L 213.278903 312.744586 
L 213.439196 309.481434 
L 218.087682 309.481434 
L 218.247975 312.744586 
L 253.99323 312.744586 
L 254.153523 309.481434 
L 258.802009 309.481434 
L 258.962302 312.744586 
L 293.585509 312.744586 
L 293.745801 309.481434 
L 298.394287 309.481434 
L 298.55458 312.744586 
L 333.818957 312.744586 
L 333.97925 309.481434 
L 338.627736 309.481434 
L 338.788029 312.744586 
L 373.090651 312.744586 
L 373.250943 309.481434 
L 377.899429 309.481434 
L 378.059722 312.744586 
L 413.644685 312.744586 
L 413.804977 309.481434 
L 418.453463 309.481434 
L 418.613756 312.744586 
L 453.557548 312.744586 
L 453.717841 309.481434 
L 458.366327 309.481434 
L 458.52662 312.744586 
L 493.630705 312.744586 
L 493.790997 309.481434 
L 498.439483 309.481434 
L 498.599776 312.744586 
L 533.864153 312.744586 
L 534.024446 309.481434 
L 538.672932 309.481434 
L 538.833225 312.744586 
L 574.257895 312.744586 
L 574.418188 309.481434 
L 579.066674 309.481434 
L 579.226966 312.744586 
L 613.209003 312.744586 
L 613.369295 309.481434 
L 618.017782 309.481434 
L 618.178074 312.744586 
L 653.92333 312.744586 
L 654.083622 309.481434 
L 658.732108 309.481434 
L 658.892401 312.744586 
L 694.156778 312.744586 
L 694.317071 309.481434 
L 698.965557 309.481434 
L 699.12585 312.744586 
L 734.069642 312.744586 
L 734.229935 309.481434 
L 738.878421 309.481434 
L 739.038713 312.744586 
L 773.822213 312.744586 
L 773.982506 309.481434 
L 778.630992 309.481434 
L 778.791284 312.744586 
L 813.414491 312.744586 
L 813.574784 309.481434 
L 818.22327 309.481434 
L 818.383563 312.744586 
L 854.609696 312.744586 
L 854.769989 309.481434 
L 859.418475 309.481434 
L 859.578767 312.744586 
L 894.362267 312.744586 
L 894.52256 309.481434 
L 899.171046 309.481434 
L 899.331338 312.744586 
L 933.794253 312.744586 
L 933.954545 309.481434 
L 933.954545 309.481434 
" clip-path="url(#pd617a367fe)" style="fill: none; stroke: #ff7f0e; stroke-width: 1.5; stroke-linecap: square"/>
   </g>
   <g id="line2d_14">
    <path d="M 929.466352 312.744586 
" clip-path="url(#pd617a367fe)" style="fill: none; stroke: #000000; stroke-width: 1.5; stroke-linecap: square"/>
    <defs>
     <path id="mb63a69ff83" d="M 0 1 
C 0.265203 1 0.51958 0.894634 0.707107 0.707107 
C 0.894634 0.51958 1 0.265203 1 0 
C 1 -0.265203 0.894634 -0.51958 0.707107 -0.707107 
C 0.51958 -0.894634 0.265203 -1 0 -1 
C -0.265203 -1 -0.51958 -0.894634 -0.707107 -0.707107 
C -0.894634 -0.51958 -1 -0.265203 -1 0 
C -1 0.265203 -0.894634 0.51958 -0.707107 0.707107 
C -0.51958 0.894634 -0.265203 1 0 1 
z
" style="stroke: #000000"/>
    </defs>
    <g clip-path="url(#pd617a367fe)">
     <use xlink:href="#mb63a69ff83" x="173.045455" y="309.481434" style="stroke: #000000"/>
     <use xlink:href="#mb63a69ff83" x="178.174819" y="312.744586" style="stroke: #000000"/>
     <use xlink:href="#mb63a69ff83" x="183.14389" y="312.744586" style="stroke: #000000"/>
     <use xlink:href="#mb63a69ff83" x="188.112961" y="309.481434" style="stroke: #000000"/>
     <use xlink:href="#mb63a69ff83" x="193.082033" y="312.744586" style="stroke: #000000"/>
     <use xlink:href="#mb63a69ff83" x="198.211397" y="312.744586" style="stroke: #000000"/>
     <use xlink:href="#mb63a69ff83" x="203.180468" y="309.481434" style="stroke: #000000"/>
     <use xlink:href="#mb63a69ff83" x="208.149539" y="312.744586" style="stroke: #000000"/>
     <use xlink:href="#mb63a69ff83" x="213.118611" y="309.481434" style="stroke: #000000"/>
     <use xlink:href="#mb63a69ff83" x="218.247975" y="312.744586" style="stroke: #000000"/>
     <use xlink:href="#mb63a69ff83" x="223.217046" y="312.744586" style="stroke: #000000"/>
     <use xlink:href="#mb63a69ff83" x="228.186118" y="309.481434" style="stroke: #000000"/>
     <use xlink:href="#mb63a69ff83" x="233.155189" y="312.744586" style="stroke: #000000"/>
     <use xlink:href="#mb63a69ff83" x="238.284553" y="312.744586" style="stroke: #000000"/>
     <use xlink:href="#mb63a69ff83" x="243.253624" y="309.481434" style="stroke: #000000"/>
     <use xlink:href="#mb63a69ff83" x="248.222696" y="312.744586" style="stroke: #000000"/>
     <use xlink:href="#mb63a69ff83" x="253.191767" y="309.481434" style="stroke: #000000"/>
     <use xlink:href="#mb63a69ff83" x="258.321131" y="312.744586" style="stroke: #000000"/>
     <use xlink:href="#mb63a69ff83" x="263.290202" y="312.744586" style="stroke: #000000"/>
     <use xlink:href="#mb63a69ff83" x="268.259274" y="309.481434" style="stroke: #000000"/>
     <use xlink:href="#mb63a69ff83" x="273.228345" y="312.744586" style="stroke: #000000"/>
     <use xlink:href="#mb63a69ff83" x="278.357709" y="312.744586" style="stroke: #000000"/>
     <use xlink:href="#mb63a69ff83" x="283.326781" y="309.481434" style="stroke: #000000"/>
     <use xlink:href="#mb63a69ff83" x="288.295852" y="312.744586" style="stroke: #000000"/>
     <use xlink:href="#mb63a69ff83" x="293.264923" y="309.481434" style="stroke: #000000"/>
     <use xlink:href="#mb63a69ff83" x="298.394287" y="312.744586" style="stroke: #000000"/>
     <use xlink:href="#mb63a69ff83" x="303.363359" y="312.744586" style="stroke: #000000"/>
     <use xlink:href="#mb63a69ff83" x="308.33243" y="309.481434" style="stroke: #000000"/>
     <use xlink:href="#mb63a69ff83" x="313.301501" y="312.744586" style="stroke: #000000"/>
     <use xlink:href="#mb63a69ff83" x="318.430865" y="312.744586" style="stroke: #000000"/>
     <use xlink:href="#mb63a69ff83" x="323.399937" y="309.481434" style="stroke: #000000"/>
     <use xlink:href="#mb63a69ff83" x="328.369008" y="312.744586" style="stroke: #000000"/>
     <use xlink:href="#mb63a69ff83" x="333.33808" y="309.481434" style="stroke: #000000"/>
     <use xlink:href="#mb63a69ff83" x="338.467444" y="312.744586" style="stroke: #000000"/>
     <use xlink:href="#mb63a69ff83" x="343.436515" y="312.744586" style="stroke: #000000"/>
     <use xlink:href="#mb63a69ff83" x="348.405586" y="309.481434" style="stroke: #000000"/>
     <use xlink:href="#mb63a69ff83" x="353.374658" y="312.744586" style="stroke: #000000"/>
     <use xlink:href="#mb63a69ff83" x="358.504022" y="312.744586" style="stroke: #000000"/>
     <use xlink:href="#mb63a69ff83" x="363.473093" y="309.481434" style="stroke: #000000"/>
     <use xlink:href="#mb63a69ff83" x="368.442164" y="312.744586" style="stroke: #000000"/>
     <use xlink:href="#mb63a69ff83" x="373.411236" y="309.481434" style="stroke: #000000"/>
     <use xlink:href="#mb63a69ff83" x="378.5406" y="312.744586" style="stroke: #000000"/>
     <use xlink:href="#mb63a69ff83" x="383.509671" y="312.744586" style="stroke: #000000"/>
     <use xlink:href="#mb63a69ff83" x="388.478743" y="309.481434" style="stroke: #000000"/>
     <use xlink:href="#mb63a69ff83" x="393.447814" y="312.744586" style="stroke: #000000"/>
     <use xlink:href="#mb63a69ff83" x="398.577178" y="312.744586" style="stroke: #000000"/>
     <use xlink:href="#mb63a69ff83" x="403.546249" y="309.481434" style="stroke: #000000"/>
     <use xlink:href="#mb63a69ff83" x="408.515321" y="312.744586" style="stroke: #000000"/>
     <use xlink:href="#mb63a69ff83" x="413.484392" y="309.481434" style="stroke: #000000"/>
     <use xlink:href="#mb63a69ff83" x="418.613756" y="312.744586" style="stroke: #000000"/>
     <use xlink:href="#mb63a69ff83" x="423.582827" y="312.744586" style="stroke: #000000"/>
     <use xlink:href="#mb63a69ff83" x="428.551899" y="309.481434" style="stroke: #000000"/>
     <use xlink:href="#mb63a69ff83" x="433.52097" y="312.744586" style="stroke: #000000"/>
     <use xlink:href="#mb63a69ff83" x="438.650334" y="312.744586" style="stroke: #000000"/>
     <use xlink:href="#mb63a69ff83" x="443.619406" y="309.481434" style="stroke: #000000"/>
     <use xlink:href="#mb63a69ff83" x="448.588477" y="312.744586" style="stroke: #000000"/>
     <use xlink:href="#mb63a69ff83" x="453.557548" y="309.481434" style="stroke: #000000"/>
     <use xlink:href="#mb63a69ff83" x="458.686912" y="312.744586" style="stroke: #000000"/>
     <use xlink:href="#mb63a69ff83" x="463.655984" y="312.744586" style="stroke: #000000"/>
     <use xlink:href="#mb63a69ff83" x="468.625055" y="309.481434" style="stroke: #000000"/>
     <use xlink:href="#mb63a69ff83" x="473.594126" y="312.744586" style="stroke: #000000"/>
     <use xlink:href="#mb63a69ff83" x="478.72349" y="312.744586" style="stroke: #000000"/>
     <use xlink:href="#mb63a69ff83" x="483.692562" y="309.481434" style="stroke: #000000"/>
     <use xlink:href="#mb63a69ff83" x="488.661633" y="312.744586" style="stroke: #000000"/>
     <use xlink:href="#mb63a69ff83" x="493.630705" y="309.481434" style="stroke: #000000"/>
     <use xlink:href="#mb63a69ff83" x="498.760069" y="312.744586" style="stroke: #000000"/>
     <use xlink:href="#mb63a69ff83" x="503.72914" y="312.744586" style="stroke: #000000"/>
     <use xlink:href="#mb63a69ff83" x="508.698211" y="309.481434" style="stroke: #000000"/>
     <use xlink:href="#mb63a69ff83" x="513.667283" y="312.744586" style="stroke: #000000"/>
     <use xlink:href="#mb63a69ff83" x="518.796647" y="312.744586" style="stroke: #000000"/>
     <use xlink:href="#mb63a69ff83" x="523.765718" y="309.481434" style="stroke: #000000"/>
     <use xlink:href="#mb63a69ff83" x="528.734789" y="312.744586" style="stroke: #000000"/>
     <use xlink:href="#mb63a69ff83" x="533.703861" y="309.481434" style="stroke: #000000"/>
     <use xlink:href="#mb63a69ff83" x="538.833225" y="312.744586" style="stroke: #000000"/>
     <use xlink:href="#mb63a69ff83" x="543.802296" y="312.744586" style="stroke: #000000"/>
     <use xlink:href="#mb63a69ff83" x="548.771368" y="309.481434" style="stroke: #000000"/>
     <use xlink:href="#mb63a69ff83" x="553.740439" y="312.744586" style="stroke: #000000"/>
     <use xlink:href="#mb63a69ff83" x="558.869803" y="312.744586" style="stroke: #000000"/>
     <use xlink:href="#mb63a69ff83" x="563.838874" y="309.481434" style="stroke: #000000"/>
     <use xlink:href="#mb63a69ff83" x="568.807946" y="312.744586" style="stroke: #000000"/>
     <use xlink:href="#mb63a69ff83" x="573.777017" y="309.481434" style="stroke: #000000"/>
     <use xlink:href="#mb63a69ff83" x="578.906381" y="312.744586" style="stroke: #000000"/>
     <use xlink:href="#mb63a69ff83" x="583.875452" y="312.744586" style="stroke: #000000"/>
     <use xlink:href="#mb63a69ff83" x="588.844524" y="309.481434" style="stroke: #000000"/>
     <use xlink:href="#mb63a69ff83" x="593.813595" y="312.744586" style="stroke: #000000"/>
     <use xlink:href="#mb63a69ff83" x="598.942959" y="312.744586" style="stroke: #000000"/>
     <use xlink:href="#mb63a69ff83" x="603.912031" y="309.481434" style="stroke: #000000"/>
     <use xlink:href="#mb63a69ff83" x="608.881102" y="312.744586" style="stroke: #000000"/>
     <use xlink:href="#mb63a69ff83" x="613.850173" y="309.481434" style="stroke: #000000"/>
     <use xlink:href="#mb63a69ff83" x="618.979537" y="312.744586" style="stroke: #000000"/>
     <use xlink:href="#mb63a69ff83" x="623.948609" y="312.744586" style="stroke: #000000"/>
     <use xlink:href="#mb63a69ff83" x="628.91768" y="309.481434" style="stroke: #000000"/>
     <use xlink:href="#mb63a69ff83" x="633.886751" y="312.744586" style="stroke: #000000"/>
     <use xlink:href="#mb63a69ff83" x="639.016115" y="312.744586" style="stroke: #000000"/>
     <use xlink:href="#mb63a69ff83" x="643.985187" y="309.481434" style="stroke: #000000"/>
     <use xlink:href="#mb63a69ff83" x="648.954258" y="312.744586" style="stroke: #000000"/>
     <use xlink:href="#mb63a69ff83" x="653.92333" y="309.481434" style="stroke: #000000"/>
     <use xlink:href="#mb63a69ff83" x="659.052694" y="312.744586" style="stroke: #000000"/>
     <use xlink:href="#mb63a69ff83" x="664.021765" y="312.744586" style="stroke: #000000"/>
     <use xlink:href="#mb63a69ff83" x="668.990836" y="309.481434" style="stroke: #000000"/>
     <use xlink:href="#mb63a69ff83" x="673.959908" y="312.744586" style="stroke: #000000"/>
     <use xlink:href="#mb63a69ff83" x="679.089272" y="312.744586" style="stroke: #000000"/>
     <use xlink:href="#mb63a69ff83" x="684.058343" y="309.481434" style="stroke: #000000"/>
     <use xlink:href="#mb63a69ff83" x="689.027414" y="312.744586" style="stroke: #000000"/>
     <use xlink:href="#mb63a69ff83" x="693.996486" y="309.481434" style="stroke: #000000"/>
     <use xlink:href="#mb63a69ff83" x="699.12585" y="312.744586" style="stroke: #000000"/>
     <use xlink:href="#mb63a69ff83" x="704.094921" y="312.744586" style="stroke: #000000"/>
     <use xlink:href="#mb63a69ff83" x="709.063993" y="309.481434" style="stroke: #000000"/>
     <use xlink:href="#mb63a69ff83" x="714.033064" y="312.744586" style="stroke: #000000"/>
     <use xlink:href="#mb63a69ff83" x="719.162428" y="312.744586" style="stroke: #000000"/>
     <use xlink:href="#mb63a69ff83" x="724.131499" y="309.481434" style="stroke: #000000"/>
     <use xlink:href="#mb63a69ff83" x="729.100571" y="312.744586" style="stroke: #000000"/>
     <use xlink:href="#mb63a69ff83" x="734.069642" y="309.481434" style="stroke: #000000"/>
     <use xlink:href="#mb63a69ff83" x="739.199006" y="312.744586" style="stroke: #000000"/>
     <use xlink:href="#mb63a69ff83" x="744.168077" y="312.744586" style="stroke: #000000"/>
     <use xlink:href="#mb63a69ff83" x="749.137149" y="309.481434" style="stroke: #000000"/>
     <use xlink:href="#mb63a69ff83" x="754.10622" y="312.744586" style="stroke: #000000"/>
     <use xlink:href="#mb63a69ff83" x="759.235584" y="312.744586" style="stroke: #000000"/>
     <use xlink:href="#mb63a69ff83" x="764.204656" y="309.481434" style="stroke: #000000"/>
     <use xlink:href="#mb63a69ff83" x="769.173727" y="312.744586" style="stroke: #000000"/>
     <use xlink:href="#mb63a69ff83" x="774.142798" y="309.481434" style="stroke: #000000"/>
     <use xlink:href="#mb63a69ff83" x="779.272162" y="312.744586" style="stroke: #000000"/>
     <use xlink:href="#mb63a69ff83" x="784.241234" y="312.744586" style="stroke: #000000"/>
     <use xlink:href="#mb63a69ff83" x="789.210305" y="309.481434" style="stroke: #000000"/>
     <use xlink:href="#mb63a69ff83" x="794.179376" y="312.744586" style="stroke: #000000"/>
     <use xlink:href="#mb63a69ff83" x="799.30874" y="312.744586" style="stroke: #000000"/>
     <use xlink:href="#mb63a69ff83" x="804.277812" y="309.481434" style="stroke: #000000"/>
     <use xlink:href="#mb63a69ff83" x="809.246883" y="312.744586" style="stroke: #000000"/>
     <use xlink:href="#mb63a69ff83" x="814.215955" y="309.481434" style="stroke: #000000"/>
     <use xlink:href="#mb63a69ff83" x="819.345319" y="312.744586" style="stroke: #000000"/>
     <use xlink:href="#mb63a69ff83" x="824.31439" y="312.744586" style="stroke: #000000"/>
     <use xlink:href="#mb63a69ff83" x="829.283461" y="309.481434" style="stroke: #000000"/>
     <use xlink:href="#mb63a69ff83" x="834.252533" y="312.744586" style="stroke: #000000"/>
     <use xlink:href="#mb63a69ff83" x="839.381897" y="312.744586" style="stroke: #000000"/>
     <use xlink:href="#mb63a69ff83" x="844.350968" y="309.481434" style="stroke: #000000"/>
     <use xlink:href="#mb63a69ff83" x="849.320039" y="312.744586" style="stroke: #000000"/>
     <use xlink:href="#mb63a69ff83" x="854.289111" y="309.481434" style="stroke: #000000"/>
     <use xlink:href="#mb63a69ff83" x="859.418475" y="312.744586" style="stroke: #000000"/>
     <use xlink:href="#mb63a69ff83" x="864.387546" y="312.744586" style="stroke: #000000"/>
     <use xlink:href="#mb63a69ff83" x="869.356618" y="309.481434" style="stroke: #000000"/>
     <use xlink:href="#mb63a69ff83" x="874.325689" y="312.744586" style="stroke: #000000"/>
     <use xlink:href="#mb63a69ff83" x="879.455053" y="312.744586" style="stroke: #000000"/>
     <use xlink:href="#mb63a69ff83" x="884.424124" y="309.481434" style="stroke: #000000"/>
     <use xlink:href="#mb63a69ff83" x="889.393196" y="312.744586" style="stroke: #000000"/>
     <use xlink:href="#mb63a69ff83" x="894.362267" y="309.481434" style="stroke: #000000"/>
     <use xlink:href="#mb63a69ff83" x="899.491631" y="312.744586" style="stroke: #000000"/>
     <use xlink:href="#mb63a69ff83" x="904.460702" y="312.744586" style="stroke: #000000"/>
     <use xlink:href="#mb63a69ff83" x="909.429774" y="309.481434" style="stroke: #000000"/>
     <use xlink:href="#mb63a69ff83" x="914.398845" y="312.744586" style="stroke: #000000"/>
     <use xlink:href="#mb63a69ff83" x="919.528209" y="312.744586" style="stroke: #000000"/>
     <use xlink:href="#mb63a69ff83" x="924.497281" y="309.481434" style="stroke: #000000"/>
     <use xlink:href="#mb63a69ff83" x="929.466352" y="312.744586" style="stroke: #000000"/>
    </g>
   </g>
   <g id="patch_3">
    <path d="M 135 448.56 
L 135 60.48 
" style="fill: none; stroke: #000000; stroke-width: 0.8; stroke-linejoin: miter; stroke-linecap: square"/>
   </g>
   <g id="patch_4">
    <path d="M 972 448.56 
L 972 60.48 
" style="fill: none; stroke: #000000; stroke-width: 0.8; stroke-linejoin: miter; stroke-linecap: square"/>
   </g>
   <g id="patch_5">
    <path d="M 135 448.56 
L 972 448.56 
" style="fill: none; stroke: #000000; stroke-width: 0.8; stroke-linejoin: miter; stroke-linecap: square"/>
   </g>
   <g id="patch_6">
    <path d="M 135 60.48 
L 972 60.48 
" style="fill: none; stroke: #000000; stroke-width: 0.8; stroke-linejoin: miter; stroke-linecap: square"/>
   </g>
   <g id="legend_1">
    <g id="patch_7">
     <path d="M 895.915625 113.070625 
L 965 113.070625 
Q 967 113.070625 967 111.070625 
L 967 67.48 
Q 967 65.48 965 65.48 
L 895.915625 65.48 
Q 893.915625 65.48 893.915625 67.48 
L 893.915625 111.070625 
Q 893.915625 113.070625 895.915625 113.070625 
z
" style="fill: #ffffff; opacity: 0.8; stroke: #cccccc; stroke-linejoin: miter"/>
    </g>
    <g id="line2d_15">
     <path d="M 897.915625 73.578438 
L 907.915625 73.578438 
L 917.915625 73.578438 
" style="fill: none; stroke: #1f77b4; stroke-width: 1.5; stroke-linecap: square"/>
    </g>
    <g id="text_13">
     <!-- nw_0 -->
     <g transform="translate(925.915625 77.078438) scale(0.1 -0.1)">
      <defs>
       <path id="DejaVuSans-6e" d="M 3513 2113 
L 3513 0 
L 2938 0 
L 2938 2094 
Q 2938 2591 2744 2837 
Q 2550 3084 2163 3084 
Q 1697 3084 1428 2787 
Q 1159 2491 1159 1978 
L 1159 0 
L 581 0 
L 581 3500 
L 1159 3500 
L 1159 2956 
Q 1366 3272 1645 3428 
Q 1925 3584 2291 3584 
Q 2894 3584 3203 3211 
Q 3513 2838 3513 2113 
z
" transform="scale(0.015625)"/>
       <path id="DejaVuSans-77" d="M 269 3500 
L 844 3500 
L 1563 769 
L 2278 3500 
L 2956 3500 
L 3675 769 
L 4391 3500 
L 4966 3500 
L 4050 0 
L 3372 0 
L 2619 2869 
L 1863 0 
L 1184 0 
L 269 3500 
z
" transform="scale(0.015625)"/>
       <path id="DejaVuSans-5f" d="M 3263 -1063 
L 3263 -1509 
L -63 -1509 
L -63 -1063 
L 3263 -1063 
z
" transform="scale(0.015625)"/>
      </defs>
      <use xlink:href="#DejaVuSans-6e"/>
      <use xlink:href="#DejaVuSans-77" x="63.378906"/>
      <use xlink:href="#DejaVuSans-5f" x="145.166016"/>
      <use xlink:href="#DejaVuSans-30" x="195.166016"/>
     </g>
    </g>
    <g id="line2d_16">
     <path d="M 897.915625 88.534688 
L 907.915625 88.534688 
L 917.915625 88.534688 
" style="fill: none; stroke: #ff7f0e; stroke-width: 1.5; stroke-linecap: square"/>
    </g>
    <g id="text_14">
     <!-- input_0 -->
     <g transform="translate(925.915625 92.034688) scale(0.1 -0.1)">
      <defs>
       <path id="DejaVuSans-69" d="M 603 3500 
L 1178 3500 
L 1178 0 
L 603 0 
L 603 3500 
z
M 603 4863 
L 1178 4863 
L 1178 4134 
L 603 4134 
L 603 4863 
z
" transform="scale(0.015625)"/>
       <path id="DejaVuSans-70" d="M 1159 525 
L 1159 -1331 
L 581 -1331 
L 581 3500 
L 1159 3500 
L 1159 2969 
Q 1341 3281 1617 3432 
Q 1894 3584 2278 3584 
Q 2916 3584 3314 3078 
Q 3713 2572 3713 1747 
Q 3713 922 3314 415 
Q 2916 -91 2278 -91 
Q 1894 -91 1617 61 
Q 1341 213 1159 525 
z
M 3116 1747 
Q 3116 2381 2855 2742 
Q 2594 3103 2138 3103 
Q 1681 3103 1420 2742 
Q 1159 2381 1159 1747 
Q 1159 1113 1420 752 
Q 1681 391 2138 391 
Q 2594 391 2855 752 
Q 3116 1113 3116 1747 
z
" transform="scale(0.015625)"/>
       <path id="DejaVuSans-75" d="M 544 1381 
L 544 3500 
L 1119 3500 
L 1119 1403 
Q 1119 906 1312 657 
Q 1506 409 1894 409 
Q 2359 409 2629 706 
Q 2900 1003 2900 1516 
L 2900 3500 
L 3475 3500 
L 3475 0 
L 2900 0 
L 2900 538 
Q 2691 219 2414 64 
Q 2138 -91 1772 -91 
Q 1169 -91 856 284 
Q 544 659 544 1381 
z
M 1991 3584 
L 1991 3584 
z
" transform="scale(0.015625)"/>
      </defs>
      <use xlink:href="#DejaVuSans-69"/>
      <use xlink:href="#DejaVuSans-6e" x="27.783203"/>
      <use xlink:href="#DejaVuSans-70" x="91.162109"/>
      <use xlink:href="#DejaVuSans-75" x="154.638672"/>
      <use xlink:href="#DejaVuSans-74" x="218.017578"/>
      <use xlink:href="#DejaVuSans-5f" x="257.226562"/>
      <use xlink:href="#DejaVuSans-30" x="307.226562"/>
     </g>
    </g>
    <g id="line2d_17">
     <path d="M 897.915625 103.490938 
L 907.915625 103.490938 
L 917.915625 103.490938 
" style="fill: none; stroke: #000000; stroke-width: 1.5; stroke-linecap: square"/>
     <g>
      <use xlink:href="#mb63a69ff83" x="907.915625" y="103.490938" style="stroke: #000000"/>
     </g>
    </g>
    <g id="text_15">
     <!-- target -->
     <g transform="translate(925.915625 106.990938) scale(0.1 -0.1)">
      <defs>
       <path id="DejaVuSans-61" d="M 2194 1759 
Q 1497 1759 1228 1600 
Q 959 1441 959 1056 
Q 959 750 1161 570 
Q 1363 391 1709 391 
Q 2188 391 2477 730 
Q 2766 1069 2766 1631 
L 2766 1759 
L 2194 1759 
z
M 3341 1997 
L 3341 0 
L 2766 0 
L 2766 531 
Q 2569 213 2275 61 
Q 1981 -91 1556 -91 
Q 1019 -91 701 211 
Q 384 513 384 1019 
Q 384 1609 779 1909 
Q 1175 2209 1959 2209 
L 2766 2209 
L 2766 2266 
Q 2766 2663 2505 2880 
Q 2244 3097 1772 3097 
Q 1472 3097 1187 3025 
Q 903 2953 641 2809 
L 641 3341 
Q 956 3463 1253 3523 
Q 1550 3584 1831 3584 
Q 2591 3584 2966 3190 
Q 3341 2797 3341 1997 
z
" transform="scale(0.015625)"/>
       <path id="DejaVuSans-72" d="M 2631 2963 
Q 2534 3019 2420 3045 
Q 2306 3072 2169 3072 
Q 1681 3072 1420 2755 
Q 1159 2438 1159 1844 
L 1159 0 
L 581 0 
L 581 3500 
L 1159 3500 
L 1159 2956 
Q 1341 3275 1631 3429 
Q 1922 3584 2338 3584 
Q 2397 3584 2469 3576 
Q 2541 3569 2628 3553 
L 2631 2963 
z
" transform="scale(0.015625)"/>
       <path id="DejaVuSans-67" d="M 2906 1791 
Q 2906 2416 2648 2759 
Q 2391 3103 1925 3103 
Q 1463 3103 1205 2759 
Q 947 2416 947 1791 
Q 947 1169 1205 825 
Q 1463 481 1925 481 
Q 2391 481 2648 825 
Q 2906 1169 2906 1791 
z
M 3481 434 
Q 3481 -459 3084 -895 
Q 2688 -1331 1869 -1331 
Q 1566 -1331 1297 -1286 
Q 1028 -1241 775 -1147 
L 775 -588 
Q 1028 -725 1275 -790 
Q 1522 -856 1778 -856 
Q 2344 -856 2625 -561 
Q 2906 -266 2906 331 
L 2906 616 
Q 2728 306 2450 153 
Q 2172 0 1784 0 
Q 1141 0 747 490 
Q 353 981 353 1791 
Q 353 2603 747 3093 
Q 1141 3584 1784 3584 
Q 2172 3584 2450 3431 
Q 2728 3278 2906 2969 
L 2906 3500 
L 3481 3500 
L 3481 434 
z
" transform="scale(0.015625)"/>
       <path id="DejaVuSans-65" d="M 3597 1894 
L 3597 1613 
L 953 1613 
Q 991 1019 1311 708 
Q 1631 397 2203 397 
Q 2534 397 2845 478 
Q 3156 559 3463 722 
L 3463 178 
Q 3153 47 2828 -22 
Q 2503 -91 2169 -91 
Q 1331 -91 842 396 
Q 353 884 353 1716 
Q 353 2575 817 3079 
Q 1281 3584 2069 3584 
Q 2775 3584 3186 3129 
Q 3597 2675 3597 1894 
z
M 3022 2063 
Q 3016 2534 2758 2815 
Q 2500 3097 2075 3097 
Q 1594 3097 1305 2825 
Q 1016 2553 972 2059 
L 3022 2063 
z
" transform="scale(0.015625)"/>
      </defs>
      <use xlink:href="#DejaVuSans-74"/>
      <use xlink:href="#DejaVuSans-61" x="39.208984"/>
      <use xlink:href="#DejaVuSans-72" x="100.488281"/>
      <use xlink:href="#DejaVuSans-67" x="139.851562"/>
      <use xlink:href="#DejaVuSans-65" x="203.328125"/>
      <use xlink:href="#DejaVuSans-74" x="264.851562"/>
     </g>
    </g>
   </g>
  </g>
 </g>
 <defs>
  <clipPath id="pd617a367fe">
   <rect x="135" y="60.48" width="837" height="388.08"/>
  </clipPath>
 </defs>
</svg>
