<?xml version="1.0" encoding="utf-8" standalone="no"?>
<!DOCTYPE svg PUBLIC "-//W3C//DTD SVG 1.1//EN"
  "http://www.w3.org/Graphics/SVG/1.1/DTD/svg11.dtd">
<svg xmlns:xlink="http://www.w3.org/1999/xlink" width="1080pt" height="504pt" viewBox="0 0 1080 504" xmlns="http://www.w3.org/2000/svg" version="1.1">
 <metadata>
  <rdf:RDF xmlns:dc="http://purl.org/dc/elements/1.1/" xmlns:cc="http://creativecommons.org/ns#" xmlns:rdf="http://www.w3.org/1999/02/22-rdf-syntax-ns#">
   <cc:Work>
    <dc:type rdf:resource="http://purl.org/dc/dcmitype/StillImage"/>
    <dc:date>2024-05-09T11:02:17.799133</dc:date>
    <dc:format>image/svg+xml</dc:format>
    <dc:creator>
     <cc:Agent>
      <dc:title>Matplotlib v3.7.1, https://matplotlib.org/</dc:title>
     </cc:Agent>
    </dc:creator>
   </cc:Work>
  </rdf:RDF>
 </metadata>
 <defs>
  <style type="text/css">*{stroke-linejoin: round; stroke-linecap: butt}</style>
 </defs>
 <g id="figure_1">
  <g id="patch_1">
   <path d="M 0 504 
L 1080 504 
L 1080 0 
L 0 0 
z
" style="fill: #ffffff"/>
  </g>
  <g id="axes_1">
   <g id="patch_2">
    <path d="M 135 448.56 
L 972 448.56 
L 972 60.48 
L 135 60.48 
z
" style="fill: #ffffff"/>
   </g>
   <g id="matplotlib.axis_1">
    <g id="xtick_1">
     <g id="line2d_1">
      <defs>
       <path id="m0552cefe61" d="M 0 0 
L 0 3.5 
" style="stroke: #000000; stroke-width: 0.8"/>
      </defs>
      <g>
       <use xlink:href="#m0552cefe61" x="173.045455" y="448.56" style="stroke: #000000; stroke-width: 0.8"/>
      </g>
     </g>
     <g id="text_1">
      <!-- 0 -->
      <g transform="translate(169.864205 463.158437) scale(0.1 -0.1)">
       <defs>
        <path id="DejaVuSans-30" d="M 2034 4250 
Q 1547 4250 1301 3770 
Q 1056 3291 1056 2328 
Q 1056 1369 1301 889 
Q 1547 409 2034 409 
Q 2525 409 2770 889 
Q 3016 1369 3016 2328 
Q 3016 3291 2770 3770 
Q 2525 4250 2034 4250 
z
M 2034 4750 
Q 2819 4750 3233 4129 
Q 3647 3509 3647 2328 
Q 3647 1150 3233 529 
Q 2819 -91 2034 -91 
Q 1250 -91 836 529 
Q 422 1150 422 2328 
Q 422 3509 836 4129 
Q 1250 4750 2034 4750 
z
" transform="scale(0.015625)"/>
       </defs>
       <use xlink:href="#DejaVuSans-30"/>
      </g>
     </g>
    </g>
    <g id="xtick_2">
     <g id="line2d_2">
      <g>
       <use xlink:href="#m0552cefe61" x="333.33808" y="448.56" style="stroke: #000000; stroke-width: 0.8"/>
      </g>
     </g>
     <g id="text_2">
      <!-- 1000 -->
      <g transform="translate(320.61308 463.158437) scale(0.1 -0.1)">
       <defs>
        <path id="DejaVuSans-31" d="M 794 531 
L 1825 531 
L 1825 4091 
L 703 3866 
L 703 4441 
L 1819 4666 
L 2450 4666 
L 2450 531 
L 3481 531 
L 3481 0 
L 794 0 
L 794 531 
z
" transform="scale(0.015625)"/>
       </defs>
       <use xlink:href="#DejaVuSans-31"/>
       <use xlink:href="#DejaVuSans-30" x="63.623047"/>
       <use xlink:href="#DejaVuSans-30" x="127.246094"/>
       <use xlink:href="#DejaVuSans-30" x="190.869141"/>
      </g>
     </g>
    </g>
    <g id="xtick_3">
     <g id="line2d_3">
      <g>
       <use xlink:href="#m0552cefe61" x="493.630705" y="448.56" style="stroke: #000000; stroke-width: 0.8"/>
      </g>
     </g>
     <g id="text_3">
      <!-- 2000 -->
      <g transform="translate(480.905705 463.158437) scale(0.1 -0.1)">
       <defs>
        <path id="DejaVuSans-32" d="M 1228 531 
L 3431 531 
L 3431 0 
L 469 0 
L 469 531 
Q 828 903 1448 1529 
Q 2069 2156 2228 2338 
Q 2531 2678 2651 2914 
Q 2772 3150 2772 3378 
Q 2772 3750 2511 3984 
Q 2250 4219 1831 4219 
Q 1534 4219 1204 4116 
Q 875 4013 500 3803 
L 500 4441 
Q 881 4594 1212 4672 
Q 1544 4750 1819 4750 
Q 2544 4750 2975 4387 
Q 3406 4025 3406 3419 
Q 3406 3131 3298 2873 
Q 3191 2616 2906 2266 
Q 2828 2175 2409 1742 
Q 1991 1309 1228 531 
z
" transform="scale(0.015625)"/>
       </defs>
       <use xlink:href="#DejaVuSans-32"/>
       <use xlink:href="#DejaVuSans-30" x="63.623047"/>
       <use xlink:href="#DejaVuSans-30" x="127.246094"/>
       <use xlink:href="#DejaVuSans-30" x="190.869141"/>
      </g>
     </g>
    </g>
    <g id="xtick_4">
     <g id="line2d_4">
      <g>
       <use xlink:href="#m0552cefe61" x="653.92333" y="448.56" style="stroke: #000000; stroke-width: 0.8"/>
      </g>
     </g>
     <g id="text_4">
      <!-- 3000 -->
      <g transform="translate(641.19833 463.158437) scale(0.1 -0.1)">
       <defs>
        <path id="DejaVuSans-33" d="M 2597 2516 
Q 3050 2419 3304 2112 
Q 3559 1806 3559 1356 
Q 3559 666 3084 287 
Q 2609 -91 1734 -91 
Q 1441 -91 1130 -33 
Q 819 25 488 141 
L 488 750 
Q 750 597 1062 519 
Q 1375 441 1716 441 
Q 2309 441 2620 675 
Q 2931 909 2931 1356 
Q 2931 1769 2642 2001 
Q 2353 2234 1838 2234 
L 1294 2234 
L 1294 2753 
L 1863 2753 
Q 2328 2753 2575 2939 
Q 2822 3125 2822 3475 
Q 2822 3834 2567 4026 
Q 2313 4219 1838 4219 
Q 1578 4219 1281 4162 
Q 984 4106 628 3988 
L 628 4550 
Q 988 4650 1302 4700 
Q 1616 4750 1894 4750 
Q 2613 4750 3031 4423 
Q 3450 4097 3450 3541 
Q 3450 3153 3228 2886 
Q 3006 2619 2597 2516 
z
" transform="scale(0.015625)"/>
       </defs>
       <use xlink:href="#DejaVuSans-33"/>
       <use xlink:href="#DejaVuSans-30" x="63.623047"/>
       <use xlink:href="#DejaVuSans-30" x="127.246094"/>
       <use xlink:href="#DejaVuSans-30" x="190.869141"/>
      </g>
     </g>
    </g>
    <g id="xtick_5">
     <g id="line2d_5">
      <g>
       <use xlink:href="#m0552cefe61" x="814.215955" y="448.56" style="stroke: #000000; stroke-width: 0.8"/>
      </g>
     </g>
     <g id="text_5">
      <!-- 4000 -->
      <g transform="translate(801.490955 463.158437) scale(0.1 -0.1)">
       <defs>
        <path id="DejaVuSans-34" d="M 2419 4116 
L 825 1625 
L 2419 1625 
L 2419 4116 
z
M 2253 4666 
L 3047 4666 
L 3047 1625 
L 3713 1625 
L 3713 1100 
L 3047 1100 
L 3047 0 
L 2419 0 
L 2419 1100 
L 313 1100 
L 313 1709 
L 2253 4666 
z
" transform="scale(0.015625)"/>
       </defs>
       <use xlink:href="#DejaVuSans-34"/>
       <use xlink:href="#DejaVuSans-30" x="63.623047"/>
       <use xlink:href="#DejaVuSans-30" x="127.246094"/>
       <use xlink:href="#DejaVuSans-30" x="190.869141"/>
      </g>
     </g>
    </g>
    <g id="text_6">
     <!-- t -->
     <g transform="translate(551.539844 476.836563) scale(0.1 -0.1)">
      <defs>
       <path id="DejaVuSans-74" d="M 1172 4494 
L 1172 3500 
L 2356 3500 
L 2356 3053 
L 1172 3053 
L 1172 1153 
Q 1172 725 1289 603 
Q 1406 481 1766 481 
L 2356 481 
L 2356 0 
L 1766 0 
Q 1100 0 847 248 
Q 594 497 594 1153 
L 594 3053 
L 172 3053 
L 172 3500 
L 594 3500 
L 594 4494 
L 1172 4494 
z
" transform="scale(0.015625)"/>
      </defs>
      <use xlink:href="#DejaVuSans-74"/>
     </g>
    </g>
   </g>
   <g id="matplotlib.axis_2">
    <g id="ytick_1">
     <g id="line2d_6">
      <defs>
       <path id="m3c7fcbce2f" d="M 0 0 
L -3.5 0 
" style="stroke: #000000; stroke-width: 0.8"/>
      </defs>
      <g>
       <use xlink:href="#m3c7fcbce2f" x="135" y="436.885464" style="stroke: #000000; stroke-width: 0.8"/>
      </g>
     </g>
     <g id="text_7">
      <!-- −2 -->
      <g transform="translate(113.257812 440.684683) scale(0.1 -0.1)">
       <defs>
        <path id="DejaVuSans-2212" d="M 678 2272 
L 4684 2272 
L 4684 1741 
L 678 1741 
L 678 2272 
z
" transform="scale(0.015625)"/>
       </defs>
       <use xlink:href="#DejaVuSans-2212"/>
       <use xlink:href="#DejaVuSans-32" x="83.789062"/>
      </g>
     </g>
    </g>
    <g id="ytick_2">
     <g id="line2d_7">
      <g>
       <use xlink:href="#m3c7fcbce2f" x="135" y="354.632698" style="stroke: #000000; stroke-width: 0.8"/>
      </g>
     </g>
     <g id="text_8">
      <!-- −1 -->
      <g transform="translate(113.257812 358.431917) scale(0.1 -0.1)">
       <use xlink:href="#DejaVuSans-2212"/>
       <use xlink:href="#DejaVuSans-31" x="83.789062"/>
      </g>
     </g>
    </g>
    <g id="ytick_3">
     <g id="line2d_8">
      <g>
       <use xlink:href="#m3c7fcbce2f" x="135" y="272.379933" style="stroke: #000000; stroke-width: 0.8"/>
      </g>
     </g>
     <g id="text_9">
      <!-- 0 -->
      <g transform="translate(121.6375 276.179152) scale(0.1 -0.1)">
       <use xlink:href="#DejaVuSans-30"/>
      </g>
     </g>
    </g>
    <g id="ytick_4">
     <g id="line2d_9">
      <g>
       <use xlink:href="#m3c7fcbce2f" x="135" y="190.127167" style="stroke: #000000; stroke-width: 0.8"/>
      </g>
     </g>
     <g id="text_10">
      <!-- 1 -->
      <g transform="translate(121.6375 193.926386) scale(0.1 -0.1)">
       <use xlink:href="#DejaVuSans-31"/>
      </g>
     </g>
    </g>
    <g id="ytick_5">
     <g id="line2d_10">
      <g>
       <use xlink:href="#m3c7fcbce2f" x="135" y="107.874402" style="stroke: #000000; stroke-width: 0.8"/>
      </g>
     </g>
     <g id="text_11">
      <!-- 2 -->
      <g transform="translate(121.6375 111.67362) scale(0.1 -0.1)">
       <use xlink:href="#DejaVuSans-32"/>
      </g>
     </g>
    </g>
   </g>
   <g id="line2d_11">
    <path d="M 173.045455 251.308647 
L 173.526332 202.396349 
L 174.00721 171.311379 
L 174.488088 153.518002 
L 174.968966 144.679923 
L 175.449844 140.706 
L 176.091014 136.428977 
L 176.4116 132.406858 
L 176.732185 125.868828 
L 177.213063 109.471011 
L 177.693941 82.838444 
L 178.335111 121.60464 
L 178.976282 146.344508 
L 179.45716 157.559679 
L 179.938037 163.739225 
L 180.258623 165.551113 
L 180.418915 165.864291 
L 180.579208 165.823101 
L 180.739501 165.456399 
L 181.060086 163.855175 
L 181.540964 159.658094 
L 182.182134 151.634738 
L 183.304183 134.11356 
L 185.067401 106.583693 
L 186.029157 94.630819 
L 186.83062 87.069343 
L 187.471791 82.699478 
L 188.112961 79.814651 
L 188.593839 78.588552 
L 188.914424 78.19507 
L 189.23501 78.12334 
L 189.555595 78.356584 
L 189.87618 78.876693 
L 190.357058 80.152582 
L 190.998229 82.672876 
L 191.799692 86.905051 
L 192.92174 94.267762 
L 195.646715 114.535464 
L 197.249641 125.288839 
L 198.531982 132.346667 
L 199.65403 137.229574 
L 200.615786 140.483273 
L 201.577542 142.984852 
L 202.539298 144.898576 
L 203.821639 146.90895 
L 205.424565 149.415618 
L 206.226028 151.046844 
L 207.027491 153.160462 
L 207.828954 155.929965 
L 208.630417 159.525514 
L 209.43188 164.111141 
L 210.393636 171.138959 
L 211.355392 180.063868 
L 212.317148 191.107745 
L 213.278903 204.463095 
L 213.759781 170.622148 
L 214.080367 158.65189 
L 214.400952 153.441534 
L 214.561244 152.928282 
L 214.721537 153.580292 
L 215.042122 157.714362 
L 215.523 168.5979 
L 216.484756 192.679144 
L 216.805341 197.501467 
L 216.965634 198.775609 
L 217.125926 199.147993 
L 217.286219 198.516458 
L 217.606804 193.855438 
L 217.92739 184.064607 
L 218.087682 177.037272 
L 218.889145 249.354939 
L 219.530316 289.131977 
L 220.171486 316.374394 
L 220.812657 333.820831 
L 221.293535 341.877706 
L 221.774413 346.555514 
L 222.094998 348.15501 
L 222.415583 348.760526 
L 222.575876 348.743931 
L 222.896461 348.169214 
L 223.217046 346.990008 
L 223.697924 344.362735 
L 224.499387 338.567477 
L 226.743484 321.489576 
L 227.544947 316.975084 
L 228.34641 313.679353 
L 228.987581 311.908713 
L 229.628751 310.837829 
L 230.109629 310.433551 
L 230.590507 310.313974 
L 231.071385 310.421995 
L 231.712555 310.815979 
L 233.956652 312.480295 
L 234.43753 312.527996 
L 234.918408 312.361417 
L 235.399286 311.943319 
L 235.880164 311.242519 
L 236.521334 309.826279 
L 237.162505 307.822843 
L 237.963968 304.463341 
L 238.765431 300.159693 
L 239.727187 293.824501 
L 241.009528 283.690369 
L 242.933039 266.231331 
L 245.177136 246.060841 
L 246.299184 237.719503 
L 247.100647 233.043863 
L 247.741818 230.28475 
L 248.222696 228.879157 
L 248.703574 228.106245 
L 249.024159 227.970138 
L 249.344744 228.156288 
L 249.665329 228.680523 
L 250.146207 230.134475 
L 250.627085 232.434199 
L 251.268256 236.899052 
L 251.909426 243.060304 
L 252.710889 253.297773 
L 253.512352 266.514755 
L 253.99323 275.939288 
L 254.474108 222.004097 
L 254.954986 189.022234 
L 255.435864 171.446229 
L 255.756449 165.736632 
L 256.077034 163.172785 
L 256.39762 162.430505 
L 256.718205 162.274611 
L 256.878497 162.054946 
L 257.03879 161.559051 
L 257.359375 159.226416 
L 257.679961 154.306933 
L 258.000546 145.916979 
L 258.481424 125.09884 
L 258.802009 104.714354 
L 259.443179 154.329043 
L 260.08435 188.596265 
L 260.72552 210.825821 
L 261.206398 221.298844 
L 261.687276 227.593927 
L 262.007861 229.908923 
L 262.328447 230.991215 
L 262.488739 231.136182 
L 262.649032 231.049655 
L 262.969617 230.272557 
L 263.450495 227.905317 
L 264.091666 223.256527 
L 266.656348 202.657516 
L 267.297518 199.390816 
L 267.778396 197.735433 
L 268.259274 196.793003 
L 268.579859 196.562989 
L 268.900444 196.647256 
L 269.22103 197.038237 
L 269.701907 198.176164 
L 270.182785 199.93453 
L 270.823956 203.147713 
L 271.625419 208.347551 
L 272.747467 217.264081 
L 274.831271 236.154265 
L 276.754783 252.878269 
L 278.037124 262.377651 
L 279.159172 269.302327 
L 280.281221 274.944301 
L 281.403269 279.496167 
L 282.845903 284.31604 
L 284.769414 290.654747 
L 285.73117 294.642666 
L 286.692926 299.735414 
L 287.494389 305.136733 
L 288.295852 311.85807 
L 289.257608 322.012212 
L 290.219363 334.829919 
L 291.181119 350.694238 
L 292.142875 369.955899 
L 293.264923 397.136934 
L 293.585509 405.891643 
L 294.066386 357.554638 
L 294.547264 331.832876 
L 294.86785 324.118563 
L 295.028142 322.434755 
L 295.188435 321.92454 
L 295.348727 322.390305 
L 295.669313 325.494634 
L 296.951654 342.248776 
L 297.111946 342.394839 
L 297.272239 341.681412 
L 297.592824 337.239681 
L 297.913409 328.110596 
L 298.394287 304.077848 
L 299.035458 353.697849 
L 299.676628 388.079306 
L 300.317799 410.460688 
L 300.798677 421.035334 
L 301.279555 427.396751 
L 301.60014 429.726744 
L 301.920725 430.794673 
L 302.081018 430.92 
L 302.24131 430.804813 
L 302.561896 429.941354 
L 303.042773 427.365255 
L 303.683944 422.273705 
L 305.126578 408.058738 
L 306.408919 396.416912 
L 307.210382 390.802825 
L 308.011845 386.765894 
L 308.653015 384.692359 
L 309.133893 383.780147 
L 309.614771 383.376867 
L 309.935356 383.366726 
L 310.255942 383.544383 
L 310.736819 384.123792 
L 311.37799 385.380674 
L 312.179453 387.508715 
L 315.225013 396.255067 
L 315.866183 397.380344 
L 316.507354 398.047572 
L 316.988232 398.213731 
L 317.46911 398.075643 
L 317.949988 397.624403 
L 318.430865 396.857505 
L 319.072036 395.351241 
L 319.873499 392.729737 
L 320.835255 388.622173 
L 322.117596 381.898949 
L 325.804326 361.554372 
L 326.605789 358.526881 
L 327.24696 356.859199 
L 327.727838 356.136211 
L 328.048423 355.936537 
L 328.369008 355.981735 
L 328.689593 356.287871 
L 329.010179 356.870757 
L 329.491057 358.297884 
L 329.971934 360.433645 
L 330.613105 364.468543 
L 331.254275 369.961863 
L 332.055739 379.037519 
L 332.857202 390.741019 
L 333.818957 408.487048 
L 334.299835 358.643684 
L 334.780713 331.353372 
L 335.101298 322.357597 
L 335.421884 318.580729 
L 335.582176 318.117243 
L 335.742469 318.336049 
L 336.063054 320.065146 
L 336.543932 323.258822 
L 336.704225 323.835631 
L 336.864517 323.920308 
L 337.02481 323.374738 
L 337.345395 319.875477 
L 337.66598 312.371362 
L 337.986566 300.001998 
L 338.467444 270.692089 
L 338.627736 257.728666 
L 339.268907 307.347394 
L 339.910077 341.338673 
L 340.551248 363.014859 
L 341.032126 372.894449 
L 341.513003 378.447316 
L 341.833589 380.1871 
L 341.993881 380.557624 
L 342.154174 380.631643 
L 342.314467 380.434801 
L 342.635052 379.32477 
L 343.11593 376.198192 
L 343.7571 370.106425 
L 345.039441 354.930341 
L 346.482075 338.523725 
L 347.443831 330.001805 
L 348.245294 324.840819 
L 348.886464 322.025137 
L 349.367342 320.652407 
L 349.84822 319.872919 
L 350.168805 319.65927 
L 350.48939 319.671361 
L 350.809976 319.891314 
L 351.290854 320.56941 
L 351.932024 322.018974 
L 352.733487 324.478259 
L 354.336413 330.375744 
L 355.779047 335.293708 
L 356.58051 337.373322 
L 357.221681 338.566778 
L 357.862851 339.286117 
L 358.343729 339.495681 
L 358.824607 339.416092 
L 359.305485 339.048387 
L 359.786363 338.399609 
L 360.427533 337.120245 
L 361.228996 334.921667 
L 362.190752 331.571061 
L 363.793678 325.007328 
L 365.396605 318.648716 
L 366.35836 315.713206 
L 366.999531 314.390327 
L 367.480409 313.824334 
L 367.800994 313.680708 
L 368.121579 313.743088 
L 368.442164 314.027667 
L 368.923042 314.906195 
L 369.40392 316.374016 
L 370.045091 319.337609 
L 370.686261 323.560623 
L 371.327432 329.156952 
L 372.128895 338.246905 
L 372.930358 349.845097 
L 373.090651 352.481562 
L 373.571528 305.272241 
L 374.052406 280.205585 
L 374.372992 272.388135 
L 374.693577 269.503247 
L 374.853869 269.368787 
L 375.014162 269.834234 
L 375.49504 272.933609 
L 375.815625 274.663316 
L 375.975918 274.941659 
L 376.13621 274.631009 
L 376.296503 273.592145 
L 376.617088 268.808962 
L 376.937674 259.620559 
L 377.418551 235.71927 
L 377.899429 197.509911 
L 378.5406 253.588149 
L 379.18177 292.967713 
L 379.822941 319.089576 
L 380.303819 331.7543 
L 380.784697 339.670521 
L 381.265574 343.762414 
L 381.58616 344.766773 
L 381.746452 344.832699 
L 381.906745 344.640659 
L 382.22733 343.573927 
L 382.708208 340.579028 
L 383.349379 334.743008 
L 384.63172 320.141256 
L 386.234646 302.551479 
L 387.196402 294.335763 
L 387.997865 289.212879 
L 388.639035 286.249283 
L 389.280206 284.229161 
L 389.761084 283.273385 
L 390.241961 282.738911 
L 390.722839 282.56686 
L 391.203717 282.694568 
L 391.684595 283.05746 
L 392.486058 284.00924 
L 394.40957 286.535814 
L 395.05074 287.014545 
L 395.531618 287.14885 
L 396.012496 287.054936 
L 396.493374 286.707629 
L 396.974252 286.088184 
L 397.615422 284.818594 
L 398.256593 283.032502 
L 399.058056 280.087545 
L 400.019812 275.589076 
L 401.14186 269.243061 
L 403.065371 256.824314 
L 404.82859 245.842231 
L 405.790346 240.970497 
L 406.591809 237.93463 
L 407.23298 236.367383 
L 407.713858 235.783328 
L 408.034443 235.706938 
L 408.355028 235.900173 
L 408.675613 236.379281 
L 409.156491 237.668866 
L 409.637369 239.690328 
L 410.27854 243.612095 
L 410.91971 249.041362 
L 411.721173 258.113419 
L 412.522636 269.907739 
L 413.484392 287.902354 
L 413.644685 291.326625 
L 414.125563 246.482051 
L 414.60644 223.462539 
L 414.927026 216.791767 
L 415.247611 214.851395 
L 415.407904 215.106299 
L 415.728489 217.042773 
L 416.369659 221.410271 
L 416.529952 221.612847 
L 416.690245 221.150637 
L 416.850537 219.882322 
L 417.171122 214.398566 
L 417.491708 204.17486 
L 417.972586 178.063116 
L 418.453463 136.818393 
L 419.094634 194.102486 
L 419.735804 234.303813 
L 420.376975 260.964038 
L 420.857853 273.896862 
L 421.338731 281.997722 
L 421.819609 286.215755 
L 422.140194 287.282365 
L 422.300486 287.374985 
L 422.460779 287.207543 
L 422.781364 286.186078 
L 423.262242 283.257301 
L 423.903413 277.525649 
L 425.185754 263.275314 
L 426.628387 248.014564 
L 427.590143 240.21372 
L 428.391606 235.592342 
L 429.032777 233.158608 
L 429.513655 232.04118 
L 429.994532 231.489988 
L 430.315118 231.413798 
L 430.635703 231.551949 
L 431.116581 232.122759 
L 431.597459 233.074223 
L 432.238629 234.822614 
L 433.200385 238.157664 
L 436.245945 249.341118 
L 437.047408 251.413644 
L 437.688578 252.624403 
L 438.329749 253.404116 
L 438.810627 253.699505 
L 439.291505 253.749757 
L 439.772383 253.563923 
L 440.25326 253.156714 
L 440.894431 252.30483 
L 441.695894 250.832371 
L 442.978235 247.905246 
L 444.581161 244.333783 
L 445.382624 243.101572 
L 445.863502 242.680145 
L 446.34438 242.564255 
L 446.664965 242.684204 
L 446.985551 242.981231 
L 447.466429 243.795016 
L 447.947306 245.100175 
L 448.588477 247.700023 
L 449.229647 251.399938 
L 449.870818 256.324789 
L 450.672281 264.386041 
L 451.473744 274.770993 
L 452.4355 290.589369 
L 453.397256 310.371558 
L 453.557548 314.074261 
L 454.038426 268.741369 
L 454.519304 245.737881 
L 454.839889 239.314067 
L 455.000182 238.048801 
L 455.160475 237.77842 
L 455.320767 238.286449 
L 455.641352 240.813968 
L 456.282523 246.610326 
L 456.442816 247.202643 
L 456.603108 247.136871 
L 456.763401 246.268615 
L 457.083986 241.583834 
L 457.404571 232.138157 
L 457.885449 207.105518 
L 458.366327 166.771974 
L 459.007498 225.286045 
L 459.648668 266.706838 
L 460.289839 294.57912 
L 460.931009 311.905026 
L 461.411887 319.511981 
L 461.892765 323.519267 
L 462.21335 324.582777 
L 462.373643 324.710889 
L 462.533935 324.601877 
L 462.854521 323.761071 
L 463.335398 321.245012 
L 463.976569 316.282507 
L 465.579495 301.051049 
L 466.701544 291.592807 
L 467.503007 286.511118 
L 468.144177 283.640625 
L 468.625055 282.203558 
L 469.105933 281.365612 
L 469.426518 281.125557 
L 469.747103 281.126664 
L 470.067689 281.354859 
L 470.548567 282.088098 
L 471.189737 283.702998 
L 471.9912 286.532152 
L 473.113249 291.455894 
L 475.677931 303.01364 
L 476.639686 306.280065 
L 477.441149 308.246799 
L 478.08232 309.267248 
L 478.563198 309.697671 
L 479.044076 309.840885 
L 479.524954 309.703311 
L 480.005831 309.297148 
L 480.647002 308.369136 
L 481.448465 306.669689 
L 482.410221 304.031071 
L 485.616073 294.692116 
L 486.257244 293.605668 
L 486.738122 293.150996 
L 487.058707 293.050452 
L 487.379292 293.131312 
L 487.699877 293.410107 
L 488.180755 294.235363 
L 488.661633 295.597864 
L 489.302804 298.343418 
L 489.943974 302.264579 
L 490.585145 307.481263 
L 491.386608 315.997466 
L 492.188071 326.924978 
L 493.149827 343.4888 
L 493.630705 353.268993 
L 494.111582 304.68013 
L 494.59246 278.988755 
L 494.913046 271.043685 
L 495.233631 268.171393 
L 495.393923 268.071773 
L 495.554216 268.578445 
L 496.515972 273.553521 
L 496.676264 273.075056 
L 496.836557 271.804203 
L 497.157142 266.332662 
L 497.477728 256.105763 
L 497.958605 229.864351 
L 498.439483 188.217679 
L 499.080654 244.12799 
L 499.721824 283.192775 
L 500.362995 308.918198 
L 500.843873 321.262516 
L 501.324751 328.857164 
L 501.805628 332.63952 
L 502.126214 333.449485 
L 502.286506 333.422791 
L 502.446799 333.141564 
L 502.767384 331.907748 
L 503.248262 328.693638 
L 503.889433 322.630979 
L 505.332066 305.936531 
L 506.614407 291.999007 
L 507.576163 283.797058 
L 508.377626 278.802921 
L 509.018797 276.036089 
L 509.659967 274.303616 
L 510.140845 273.625223 
L 510.46143 273.440095 
L 510.782015 273.448561 
L 511.102601 273.632192 
L 511.583479 274.193975 
L 512.224649 275.373549 
L 513.186405 277.742418 
L 515.270209 283.153988 
L 516.071672 284.631879 
L 516.712843 285.376112 
L 517.19372 285.636215 
L 517.674598 285.619467 
L 518.155476 285.31369 
L 518.636354 284.713127 
L 519.277525 283.455599 
L 519.918695 281.693573 
L 520.720158 278.838195 
L 521.842207 273.824426 
L 523.445133 265.394936 
L 525.368644 255.404538 
L 526.3304 251.423206 
L 527.131863 249.056082 
L 527.612741 248.168675 
L 528.093619 247.750378 
L 528.414204 247.759952 
L 528.734789 248.01954 
L 529.055375 248.545438 
L 529.536253 249.868699 
L 530.01713 251.880354 
L 530.658301 255.722258 
L 531.299471 260.996671 
L 532.100935 269.772405 
L 532.902398 281.160006 
L 533.864153 298.527316 
L 534.345031 249.12751 
L 534.825909 223.175821 
L 535.146494 215.317489 
L 535.46708 212.707575 
L 535.627372 212.796244 
L 535.947958 214.686152 
L 536.589128 219.822299 
L 536.749421 220.339142 
L 536.909713 220.220901 
L 537.070006 219.31697 
L 537.390591 214.587019 
L 537.711176 205.092135 
L 538.192054 179.881127 
L 538.672932 139.12035 
L 539.314103 194.315164 
L 539.955273 232.832707 
L 540.596444 258.140605 
L 541.077322 270.238643 
L 541.558199 277.633113 
L 541.878785 280.41381 
L 542.19937 281.764282 
L 542.359663 281.973402 
L 542.519955 281.906528 
L 542.84054 281.041354 
L 543.161126 279.349761 
L 543.642004 275.613612 
L 544.443467 267.31851 
L 547.168441 237.305025 
L 547.969904 231.088011 
L 548.771368 226.624548 
L 549.412538 224.313185 
L 549.893416 223.274298 
L 550.374294 222.784143 
L 550.694879 222.736681 
L 551.015464 222.89268 
L 551.496342 223.467823 
L 552.137513 224.769825 
L 552.938976 227.033774 
L 554.541902 232.530926 
L 555.824243 236.662548 
L 556.785999 239.022167 
L 557.427169 240.095613 
L 557.908047 240.601201 
L 558.388925 240.83516 
L 558.869803 240.791009 
L 559.350681 240.468544 
L 559.831559 239.87364 
L 560.472729 238.677712 
L 561.274192 236.599068 
L 562.235948 233.411114 
L 563.838874 227.156634 
L 565.441801 221.158296 
L 566.243264 218.847069 
L 566.884434 217.560699 
L 567.365312 217.012089 
L 567.685897 216.876118 
L 568.006483 216.943596 
L 568.327068 217.231273 
L 568.807946 218.112022 
L 569.288824 219.58111 
L 569.929994 222.54904 
L 570.571165 226.785026 
L 571.212335 232.409512 
L 572.013798 241.566607 
L 572.815261 253.280729 
L 573.777017 270.98019 
L 574.257895 281.40621 
L 574.738773 233.524303 
L 575.219651 209.334046 
L 575.540236 202.754009 
L 575.700529 201.57283 
L 575.860821 201.48193 
L 576.021114 202.255247 
L 576.341699 205.532449 
L 577.143162 214.631678 
L 577.303455 215.177245 
L 577.463747 214.922419 
L 577.62404 213.721495 
L 577.944625 207.935459 
L 578.265211 196.799291 
L 578.746088 168.107084 
L 579.066674 139.857277 
L 579.707844 196.431749 
L 580.349015 236.365308 
L 580.990185 263.089676 
L 581.471063 276.234503 
L 581.951941 284.653491 
L 582.432819 289.27039 
L 582.753404 290.637242 
L 582.913697 290.888247 
L 583.073989 290.883897 
L 583.234282 290.64735 
L 583.554867 289.564425 
L 584.035745 286.71166 
L 584.676916 281.336425 
L 587.882768 251.632354 
L 588.684231 247.145117 
L 589.325402 244.798104 
L 589.80628 243.751996 
L 590.126865 243.380043 
L 590.44745 243.255192 
L 590.768035 243.363725 
L 591.088621 243.690222 
L 591.569498 244.551589 
L 592.210669 246.297823 
L 593.012132 249.22467 
L 594.294473 254.910413 
L 596.378277 264.157447 
L 597.340033 267.511989 
L 598.141496 269.596986 
L 598.782667 270.738457 
L 599.263544 271.273619 
L 599.744422 271.532526 
L 600.2253 271.520688 
L 600.706178 271.249427 
L 601.187056 270.73561 
L 601.828226 269.712127 
L 602.62969 267.984048 
L 603.912031 264.570936 
L 605.675249 259.928906 
L 606.476713 258.431128 
L 606.95759 257.868167 
L 607.438468 257.625315 
L 607.759054 257.669107 
L 608.079639 257.896991 
L 608.560517 258.620545 
L 609.041395 259.851994 
L 609.522272 261.646784 
L 610.163443 265.01022 
L 610.804613 269.597815 
L 611.606077 277.237826 
L 612.40754 287.203528 
L 613.209003 299.702891 
L 613.689881 250.683468 
L 614.170759 225.588935 
L 614.491344 218.53185 
L 614.651636 217.148128 
L 614.811929 216.877624 
L 614.972222 217.493369 
L 615.292807 220.517446 
L 616.09427 229.290857 
L 616.254563 229.813508 
L 616.414855 229.546607 
L 616.575148 228.343 
L 616.895733 222.573894 
L 617.216318 211.474482 
L 617.697196 182.84847 
L 618.017782 154.632885 
L 618.658952 213.300126 
L 619.300123 255.232177 
L 619.941293 283.814635 
L 620.582464 301.928389 
L 621.063341 310.122034 
L 621.544219 314.680162 
L 621.864805 316.080097 
L 622.025097 316.365234 
L 622.18539 316.405077 
L 622.345682 316.221611 
L 622.666268 315.267109 
L 623.147146 312.64755 
L 623.788316 307.622002 
L 625.391242 292.261524 
L 626.513291 282.505654 
L 627.314754 277.04048 
L 628.116217 273.080974 
L 628.757387 271.017778 
L 629.238265 270.085709 
L 629.719143 269.641844 
L 630.039728 269.594739 
L 630.360314 269.728764 
L 630.841192 270.232736 
L 631.482362 271.376721 
L 632.283825 273.357677 
L 635.64997 282.419706 
L 636.291141 283.384934 
L 636.772019 283.825108 
L 637.252897 284.001368 
L 637.733774 283.90188 
L 638.214652 283.521032 
L 638.69553 282.859316 
L 639.336701 281.552057 
L 640.138164 279.281512 
L 641.09992 275.756781 
L 642.382261 270.104224 
L 644.946943 258.498931 
L 645.908698 255.261177 
L 646.549869 253.790561 
L 647.030747 253.143846 
L 647.351332 252.961368 
L 647.671917 252.997273 
L 647.992502 253.268115 
L 648.313088 253.790297 
L 648.793966 255.08026 
L 649.274843 257.025977 
L 649.916014 260.730753 
L 650.557184 265.814236 
L 651.358648 274.280505 
L 652.160111 285.286743 
L 653.121866 302.113088 
L 653.92333 319.348111 
L 654.404207 270.254631 
L 654.885085 244.605907 
L 655.205671 236.93226 
L 655.526256 234.472177 
L 655.686548 234.615282 
L 656.007134 236.555768 
L 656.648304 241.448881 
L 656.808597 241.80819 
L 656.968889 241.484625 
L 657.129182 240.322896 
L 657.449767 234.900967 
L 657.770353 224.447135 
L 658.25123 197.213972 
L 658.732108 153.618846 
L 659.373279 210.840735 
L 660.014449 251.408914 
L 660.65562 278.703011 
L 661.29679 295.599981 
L 661.777668 302.926433 
L 662.258546 306.655435 
L 662.579131 307.523486 
L 662.739424 307.548888 
L 662.899717 307.333113 
L 663.220302 306.264788 
L 663.70118 303.366994 
L 664.34235 297.80954 
L 665.624691 284.115507 
L 667.067325 269.439116 
L 668.029081 261.859378 
L 668.830544 257.279997 
L 669.471714 254.778054 
L 669.952592 253.548601 
L 670.43347 252.833277 
L 670.754055 252.619047 
L 671.07464 252.596633 
L 671.395226 252.749039 
L 671.876104 253.266224 
L 672.517274 254.396721 
L 673.47903 256.730453 
L 676.043712 263.355454 
L 676.845175 264.689267 
L 677.486345 265.30841 
L 677.967223 265.478793 
L 678.448101 265.382602 
L 678.928979 265.013483 
L 679.409857 264.371214 
L 680.051027 263.100705 
L 680.852491 260.891325 
L 681.814246 257.458561 
L 683.096587 251.952529 
L 685.661269 240.683807 
L 686.623025 237.57456 
L 687.264196 236.187026 
L 687.745073 235.600395 
L 688.065659 235.456624 
L 688.386244 235.529977 
L 688.706829 235.836849 
L 689.187707 236.770497 
L 689.668585 238.320092 
L 690.309755 241.435463 
L 690.950926 245.860758 
L 691.592096 251.711704 
L 692.39356 261.19634 
L 693.195023 273.277475 
L 694.156778 291.453631 
L 694.637656 243.227214 
L 695.118534 218.194233 
L 695.439119 210.827793 
L 695.759705 208.611695 
L 695.919997 208.857141 
L 696.240583 210.969344 
L 696.881753 216.09842 
L 697.042046 216.497606 
L 697.202338 216.206849 
L 697.362631 215.07094 
L 697.683216 209.679495 
L 698.003801 199.226692 
L 698.484679 171.933832 
L 698.965557 128.19346 
L 699.606728 185.072042 
L 700.247898 225.326469 
L 700.889069 252.325325 
L 701.369947 265.619946 
L 701.850824 274.127839 
L 702.331702 278.765955 
L 702.652288 280.107591 
L 702.81258 280.33403 
L 702.972873 280.29715 
L 703.293458 279.525051 
L 703.614043 277.9632 
L 704.094921 274.473335 
L 704.896384 266.673852 
L 707.621359 238.394126 
L 708.422822 232.58378 
L 709.063993 229.151515 
L 709.705163 226.807571 
L 710.186041 225.734639 
L 710.666919 225.208754 
L 710.987504 225.139149 
L 711.308089 225.275995 
L 711.788967 225.830789 
L 712.269845 226.750436 
L 712.911016 228.433942 
L 713.872771 231.629052 
L 716.597746 241.207022 
L 717.399209 243.26276 
L 718.04038 244.4659 
L 718.68155 245.230334 
L 719.162428 245.501911 
L 719.643306 245.512002 
L 720.124184 245.264497 
L 720.605062 244.769004 
L 721.246232 243.749403 
L 722.047695 241.970937 
L 723.169744 238.782257 
L 726.055011 230.141397 
L 726.696181 228.880904 
L 727.177059 228.261899 
L 727.657937 227.98298 
L 727.978522 228.012912 
L 728.299108 228.234392 
L 728.779985 228.960921 
L 729.260863 230.208422 
L 729.741741 232.029924 
L 730.382912 235.441145 
L 731.024082 240.084596 
L 731.825545 247.795618 
L 732.627008 257.821033 
L 733.588764 273.17852 
L 734.069642 282.306904 
L 734.55052 235.96641 
L 735.031398 212.374805 
L 735.351983 205.779914 
L 735.512276 204.485562 
L 735.672568 204.21728 
L 735.832861 204.752795 
L 736.153446 207.384944 
L 736.794617 213.373143 
L 736.954909 213.959711 
L 737.115202 213.848202 
L 737.275495 212.884547 
L 737.59608 207.820494 
L 737.916665 197.677438 
L 738.397543 170.825758 
L 738.878421 127.505854 
L 739.519591 185.647783 
L 740.160762 227.10587 
L 740.801932 255.244783 
L 741.443103 272.935246 
L 741.923981 280.82302 
L 742.404859 285.086197 
L 742.725444 286.296619 
L 742.885736 286.489448 
L 743.046029 286.438775 
L 743.366614 285.69425 
L 743.6872 284.226735 
L 744.168077 280.987022 
L 744.969541 273.837937 
L 747.37393 251.265298 
L 748.175393 245.915316 
L 748.816564 242.81202 
L 749.457734 240.781522 
L 749.938612 239.941797 
L 750.259197 239.690273 
L 750.579782 239.671079 
L 750.900368 239.869873 
L 751.381246 240.541832 
L 752.022416 242.043823 
L 752.823879 244.685989 
L 753.945928 249.278735 
L 756.350317 259.365702 
L 757.312073 262.446155 
L 758.113536 264.30441 
L 758.754706 265.267672 
L 759.235584 265.671649 
L 759.716462 265.801706 
L 760.19734 265.663374 
L 760.678218 265.267837 
L 761.319388 264.369731 
L 762.120851 262.728758 
L 763.082607 260.182812 
L 766.28846 251.179032 
L 766.92963 250.136458 
L 767.410508 249.704141 
L 767.731093 249.612636 
L 768.051679 249.69733 
L 768.372264 249.974325 
L 768.853142 250.785396 
L 769.33402 252.118702 
L 769.97519 254.799691 
L 770.616361 258.624243 
L 771.257531 263.709466 
L 772.058994 272.008397 
L 772.860457 282.655549 
L 773.822213 298.794061 
L 774.303091 252.892277 
L 774.783969 229.441379 
L 775.104554 222.828851 
L 775.264847 221.502633 
L 775.425139 221.191164 
L 775.585432 221.674927 
L 775.906017 224.187833 
L 776.547188 229.933486 
L 776.70748 230.468787 
L 776.867773 230.312621 
L 777.028066 229.312099 
L 777.348651 224.201741 
L 777.669236 214.054522 
L 778.150114 187.286461 
L 778.630992 144.167281 
L 779.272162 203.168903 
L 779.913333 245.324056 
L 780.554503 274.01517 
L 781.195674 292.130351 
L 781.676552 300.263024 
L 782.15743 304.715361 
L 782.478015 306.024016 
L 782.638307 306.258261 
L 782.7986 306.244154 
L 782.958893 306.004009 
L 783.279478 304.929289 
L 783.760356 302.117162 
L 784.401526 296.825341 
L 787.767671 266.291251 
L 788.569135 262.043909 
L 789.210305 259.842061 
L 789.691183 258.869553 
L 790.172061 258.44471 
L 790.492646 258.444826 
L 790.813231 258.654382 
L 791.294109 259.325371 
L 791.93528 260.792331 
L 792.736743 263.334599 
L 794.019084 268.339953 
L 795.942595 275.830593 
L 796.904351 278.734119 
L 797.705814 280.459574 
L 798.346985 281.318023 
L 798.827863 281.640442 
L 799.30874 281.68377 
L 799.789618 281.451234 
L 800.270496 280.951796 
L 800.911667 279.896417 
L 801.71313 278.02215 
L 802.674886 275.131482 
L 804.75869 267.832881 
L 805.880738 264.328847 
L 806.682201 262.47584 
L 807.323372 261.573282 
L 807.80425 261.318856 
L 808.124835 261.380523 
L 808.44542 261.645845 
L 808.926298 262.46029 
L 809.407176 263.821344 
L 810.048346 266.575637 
L 810.689517 270.512593 
L 811.330687 275.746316 
L 812.13215 284.276462 
L 812.933614 295.198673 
L 813.414491 302.975579 
L 813.895369 256.511691 
L 814.376247 232.393381 
L 814.696832 225.317322 
L 815.017418 223.224904 
L 815.17771 223.490107 
L 815.498296 225.593176 
L 816.139466 230.673718 
L 816.299759 231.082935 
L 816.460051 230.819042 
L 816.620344 229.730105 
L 816.940929 224.504191 
L 817.261514 214.327798 
L 817.742392 187.68741 
L 818.22327 144.91033 
L 818.864441 204.201553 
L 819.505611 246.480684 
L 820.146782 275.151342 
L 820.787952 293.121268 
L 821.26883 301.073952 
L 821.749708 305.29314 
L 822.070293 306.419991 
L 822.230586 306.556088 
L 822.390878 306.439282 
L 822.711464 305.535897 
L 823.192342 302.811015 
L 823.833512 297.36645 
L 824.95556 285.392866 
L 826.558487 268.597052 
L 827.520242 260.749226 
L 828.321706 255.958466 
L 828.962876 253.309305 
L 829.443754 251.98693 
L 829.924632 251.196089 
L 830.245217 250.941947 
L 830.565802 250.888333 
L 830.886388 251.018451 
L 831.367265 251.519109 
L 832.008436 252.658969 
L 832.809899 254.628424 
L 836.015752 263.209117 
L 836.656922 264.21751 
L 837.298093 264.799715 
L 837.77897 264.929912 
L 838.259848 264.784672 
L 838.740726 264.35919 
L 839.221604 263.654675 
L 839.862775 262.294223 
L 840.664238 259.9648 
L 841.625993 256.381644 
L 842.908334 250.669666 
L 845.473016 238.956246 
L 846.434772 235.649267 
L 847.075943 234.111989 
L 847.556821 233.400741 
L 847.877406 233.166979 
L 848.197991 233.144116 
L 848.518576 233.347928 
L 848.839162 233.794024 
L 849.320039 234.951082 
L 849.800917 236.738846 
L 850.442088 240.189026 
L 851.083258 244.96117 
L 851.884721 252.947533 
L 852.686185 263.359841 
L 853.64794 279.303076 
L 854.609696 299.258415 
L 855.090574 253.213056 
L 855.571452 229.213919 
L 855.892037 222.083526 
L 856.212622 219.849148 
L 856.372915 220.015058 
L 856.6935 221.870981 
L 857.334671 226.301537 
L 857.494963 226.522751 
L 857.655256 226.062687 
L 857.815549 224.770291 
L 858.136134 219.118781 
L 858.456719 208.496547 
L 858.937597 181.159659 
L 859.418475 137.663797 
L 860.059645 195.685742 
L 860.700816 236.707892 
L 861.341986 264.163081 
L 861.822864 277.631316 
L 862.303742 286.193737 
L 862.78462 290.788125 
L 863.105205 292.055428 
L 863.265498 292.233101 
L 863.42579 292.140533 
L 863.746376 291.238598 
L 864.227254 288.41573 
L 864.868424 282.697434 
L 865.990472 270.009018 
L 867.593399 252.06534 
L 868.555154 243.626827 
L 869.356618 238.456226 
L 869.997788 235.59231 
L 870.478666 234.165212 
L 870.959544 233.319613 
L 871.280129 233.057025 
L 871.600714 233.017399 
L 871.9213 233.183772 
L 872.402177 233.779902 
L 873.043348 235.12142 
L 873.844811 237.455734 
L 875.287445 242.584764 
L 876.890371 248.037958 
L 877.852127 250.493806 
L 878.493297 251.629032 
L 879.134468 252.306555 
L 879.615346 252.498197 
L 880.096223 252.41405 
L 880.577101 252.056607 
L 881.057979 251.434174 
L 881.69915 250.216768 
L 882.500613 248.141459 
L 883.462369 245.009164 
L 887.309392 231.650977 
L 887.950562 230.423317 
L 888.43144 229.901044 
L 888.752025 229.77266 
L 889.07261 229.838744 
L 889.393196 230.115159 
L 889.874074 230.958514 
L 890.354951 232.362796 
L 890.996122 235.196055 
L 891.637292 239.234963 
L 892.278463 244.591891 
L 893.079926 253.30295 
L 893.881389 264.432028 
L 894.362267 272.343621 
L 894.843145 225.101575 
L 895.324023 200.266324 
L 895.644608 192.788413 
L 895.965193 190.380421 
L 896.125486 190.526182 
L 896.446071 192.47772 
L 897.087242 197.655564 
L 897.247534 198.181632 
L 897.407827 198.074246 
L 897.56812 197.182601 
L 897.888705 192.47763 
L 898.20929 182.996356 
L 898.529875 167.774216 
L 899.010753 132.318447 
L 899.171046 116.758394 
L 899.812216 176.759362 
L 900.453387 219.486133 
L 901.094557 248.393349 
L 901.735728 266.434006 
L 902.216606 274.355036 
L 902.697484 278.486626 
L 903.018069 279.530634 
L 903.178361 279.619346 
L 903.338654 279.451746 
L 903.659239 278.438156 
L 904.140117 275.532011 
L 904.781288 269.830042 
L 906.063629 255.567028 
L 907.506262 240.122461 
L 908.468018 232.108017 
L 909.269481 227.269366 
L 909.910652 224.645571 
L 910.39153 223.380366 
L 910.872407 222.679642 
L 911.192993 222.503851 
L 911.513578 222.543115 
L 911.834163 222.78051 
L 912.315041 223.468703 
L 912.956212 224.907159 
L 913.757675 227.324876 
L 915.360601 233.107795 
L 916.803235 237.966597 
L 917.76499 240.407214 
L 918.406161 241.536299 
L 919.047331 242.21549 
L 919.528209 242.415677 
L 920.009087 242.347865 
L 920.489965 242.015796 
L 920.970843 241.428893 
L 921.612013 240.276334 
L 922.413476 238.31281 
L 923.535525 234.826336 
L 926.581085 224.734053 
L 927.382548 223.003926 
L 927.863426 222.356999 
L 928.344304 222.068562 
L 928.664889 222.10175 
L 928.985474 222.333657 
L 929.466352 223.088196 
L 929.94723 224.376907 
L 930.428108 226.25079 
L 931.069278 229.745376 
L 931.710449 234.482392 
L 932.511912 242.315329 
L 933.313375 252.456213 
L 933.794253 259.724482 
L 933.954545 240.236511 
L 933.954545 240.236511 
" clip-path="url(#pde0d7111b4)" style="fill: none; stroke: #1f77b4; stroke-width: 1.5; stroke-linecap: square"/>
   </g>
   <g id="line2d_12">
    <path d="M 173.045455 190.127167 
L 177.693941 190.127167 
L 177.854233 272.379933 
L 213.278903 272.379933 
L 213.439196 190.127167 
L 218.087682 190.127167 
L 218.247975 272.379933 
L 253.99323 272.379933 
L 254.153523 190.127167 
L 258.802009 190.127167 
L 258.962302 272.379933 
L 293.585509 272.379933 
L 293.745801 190.127167 
L 298.394287 190.127167 
L 298.55458 272.379933 
L 333.818957 272.379933 
L 333.97925 190.127167 
L 338.627736 190.127167 
L 338.788029 272.379933 
L 373.090651 272.379933 
L 373.250943 190.127167 
L 377.899429 190.127167 
L 378.059722 272.379933 
L 413.644685 272.379933 
L 413.804977 190.127167 
L 418.453463 190.127167 
L 418.613756 272.379933 
L 453.557548 272.379933 
L 453.717841 190.127167 
L 458.366327 190.127167 
L 458.52662 272.379933 
L 493.630705 272.379933 
L 493.790997 190.127167 
L 498.439483 190.127167 
L 498.599776 272.379933 
L 533.864153 272.379933 
L 534.024446 190.127167 
L 538.672932 190.127167 
L 538.833225 272.379933 
L 574.257895 272.379933 
L 574.418188 190.127167 
L 579.066674 190.127167 
L 579.226966 272.379933 
L 613.209003 272.379933 
L 613.369295 190.127167 
L 618.017782 190.127167 
L 618.178074 272.379933 
L 653.92333 272.379933 
L 654.083622 190.127167 
L 658.732108 190.127167 
L 658.892401 272.379933 
L 694.156778 272.379933 
L 694.317071 190.127167 
L 698.965557 190.127167 
L 699.12585 272.379933 
L 734.069642 272.379933 
L 734.229935 190.127167 
L 738.878421 190.127167 
L 739.038713 272.379933 
L 773.822213 272.379933 
L 773.982506 190.127167 
L 778.630992 190.127167 
L 778.791284 272.379933 
L 813.414491 272.379933 
L 813.574784 190.127167 
L 818.22327 190.127167 
L 818.383563 272.379933 
L 854.609696 272.379933 
L 854.769989 190.127167 
L 859.418475 190.127167 
L 859.578767 272.379933 
L 894.362267 272.379933 
L 894.52256 190.127167 
L 899.171046 190.127167 
L 899.331338 272.379933 
L 933.794253 272.379933 
L 933.954545 190.127167 
L 933.954545 190.127167 
" clip-path="url(#pde0d7111b4)" style="fill: none; stroke: #ff7f0e; stroke-width: 1.5; stroke-linecap: square"/>
   </g>
   <g id="line2d_13">
    <path d="M 929.466352 272.379933 
" clip-path="url(#pde0d7111b4)" style="fill: none; stroke: #000000; stroke-width: 1.5; stroke-linecap: square"/>
    <defs>
     <path id="m3fec8e7728" d="M 0 1 
C 0.265203 1 0.51958 0.894634 0.707107 0.707107 
C 0.894634 0.51958 1 0.265203 1 0 
C 1 -0.265203 0.894634 -0.51958 0.707107 -0.707107 
C 0.51958 -0.894634 0.265203 -1 0 -1 
C -0.265203 -1 -0.51958 -0.894634 -0.707107 -0.707107 
C -0.894634 -0.51958 -1 -0.265203 -1 0 
C -1 0.265203 -0.894634 0.51958 -0.707107 0.707107 
C -0.51958 0.894634 -0.265203 1 0 1 
z
" style="stroke: #000000"/>
    </defs>
    <g clip-path="url(#pde0d7111b4)">
     <use xlink:href="#m3fec8e7728" x="173.045455" y="190.127167" style="stroke: #000000"/>
     <use xlink:href="#m3fec8e7728" x="178.174819" y="272.379933" style="stroke: #000000"/>
     <use xlink:href="#m3fec8e7728" x="183.14389" y="272.379933" style="stroke: #000000"/>
     <use xlink:href="#m3fec8e7728" x="188.112961" y="190.127167" style="stroke: #000000"/>
     <use xlink:href="#m3fec8e7728" x="193.082033" y="272.379933" style="stroke: #000000"/>
     <use xlink:href="#m3fec8e7728" x="198.211397" y="272.379933" style="stroke: #000000"/>
     <use xlink:href="#m3fec8e7728" x="203.180468" y="190.127167" style="stroke: #000000"/>
     <use xlink:href="#m3fec8e7728" x="208.149539" y="272.379933" style="stroke: #000000"/>
     <use xlink:href="#m3fec8e7728" x="213.118611" y="190.127167" style="stroke: #000000"/>
     <use xlink:href="#m3fec8e7728" x="218.247975" y="272.379933" style="stroke: #000000"/>
     <use xlink:href="#m3fec8e7728" x="223.217046" y="272.379933" style="stroke: #000000"/>
     <use xlink:href="#m3fec8e7728" x="228.186118" y="190.127167" style="stroke: #000000"/>
     <use xlink:href="#m3fec8e7728" x="233.155189" y="272.379933" style="stroke: #000000"/>
     <use xlink:href="#m3fec8e7728" x="238.284553" y="272.379933" style="stroke: #000000"/>
     <use xlink:href="#m3fec8e7728" x="243.253624" y="190.127167" style="stroke: #000000"/>
     <use xlink:href="#m3fec8e7728" x="248.222696" y="272.379933" style="stroke: #000000"/>
     <use xlink:href="#m3fec8e7728" x="253.191767" y="190.127167" style="stroke: #000000"/>
     <use xlink:href="#m3fec8e7728" x="258.321131" y="272.379933" style="stroke: #000000"/>
     <use xlink:href="#m3fec8e7728" x="263.290202" y="272.379933" style="stroke: #000000"/>
     <use xlink:href="#m3fec8e7728" x="268.259274" y="190.127167" style="stroke: #000000"/>
     <use xlink:href="#m3fec8e7728" x="273.228345" y="272.379933" style="stroke: #000000"/>
     <use xlink:href="#m3fec8e7728" x="278.357709" y="272.379933" style="stroke: #000000"/>
     <use xlink:href="#m3fec8e7728" x="283.326781" y="190.127167" style="stroke: #000000"/>
     <use xlink:href="#m3fec8e7728" x="288.295852" y="272.379933" style="stroke: #000000"/>
     <use xlink:href="#m3fec8e7728" x="293.264923" y="190.127167" style="stroke: #000000"/>
     <use xlink:href="#m3fec8e7728" x="298.394287" y="272.379933" style="stroke: #000000"/>
     <use xlink:href="#m3fec8e7728" x="303.363359" y="272.379933" style="stroke: #000000"/>
     <use xlink:href="#m3fec8e7728" x="308.33243" y="190.127167" style="stroke: #000000"/>
     <use xlink:href="#m3fec8e7728" x="313.301501" y="272.379933" style="stroke: #000000"/>
     <use xlink:href="#m3fec8e7728" x="318.430865" y="272.379933" style="stroke: #000000"/>
     <use xlink:href="#m3fec8e7728" x="323.399937" y="190.127167" style="stroke: #000000"/>
     <use xlink:href="#m3fec8e7728" x="328.369008" y="272.379933" style="stroke: #000000"/>
     <use xlink:href="#m3fec8e7728" x="333.33808" y="190.127167" style="stroke: #000000"/>
     <use xlink:href="#m3fec8e7728" x="338.467444" y="272.379933" style="stroke: #000000"/>
     <use xlink:href="#m3fec8e7728" x="343.436515" y="272.379933" style="stroke: #000000"/>
     <use xlink:href="#m3fec8e7728" x="348.405586" y="190.127167" style="stroke: #000000"/>
     <use xlink:href="#m3fec8e7728" x="353.374658" y="272.379933" style="stroke: #000000"/>
     <use xlink:href="#m3fec8e7728" x="358.504022" y="272.379933" style="stroke: #000000"/>
     <use xlink:href="#m3fec8e7728" x="363.473093" y="190.127167" style="stroke: #000000"/>
     <use xlink:href="#m3fec8e7728" x="368.442164" y="272.379933" style="stroke: #000000"/>
     <use xlink:href="#m3fec8e7728" x="373.411236" y="190.127167" style="stroke: #000000"/>
     <use xlink:href="#m3fec8e7728" x="378.5406" y="272.379933" style="stroke: #000000"/>
     <use xlink:href="#m3fec8e7728" x="383.509671" y="272.379933" style="stroke: #000000"/>
     <use xlink:href="#m3fec8e7728" x="388.478743" y="190.127167" style="stroke: #000000"/>
     <use xlink:href="#m3fec8e7728" x="393.447814" y="272.379933" style="stroke: #000000"/>
     <use xlink:href="#m3fec8e7728" x="398.577178" y="272.379933" style="stroke: #000000"/>
     <use xlink:href="#m3fec8e7728" x="403.546249" y="190.127167" style="stroke: #000000"/>
     <use xlink:href="#m3fec8e7728" x="408.515321" y="272.379933" style="stroke: #000000"/>
     <use xlink:href="#m3fec8e7728" x="413.484392" y="190.127167" style="stroke: #000000"/>
     <use xlink:href="#m3fec8e7728" x="418.613756" y="272.379933" style="stroke: #000000"/>
     <use xlink:href="#m3fec8e7728" x="423.582827" y="272.379933" style="stroke: #000000"/>
     <use xlink:href="#m3fec8e7728" x="428.551899" y="190.127167" style="stroke: #000000"/>
     <use xlink:href="#m3fec8e7728" x="433.52097" y="272.379933" style="stroke: #000000"/>
     <use xlink:href="#m3fec8e7728" x="438.650334" y="272.379933" style="stroke: #000000"/>
     <use xlink:href="#m3fec8e7728" x="443.619406" y="190.127167" style="stroke: #000000"/>
     <use xlink:href="#m3fec8e7728" x="448.588477" y="272.379933" style="stroke: #000000"/>
     <use xlink:href="#m3fec8e7728" x="453.557548" y="190.127167" style="stroke: #000000"/>
     <use xlink:href="#m3fec8e7728" x="458.686912" y="272.379933" style="stroke: #000000"/>
     <use xlink:href="#m3fec8e7728" x="463.655984" y="272.379933" style="stroke: #000000"/>
     <use xlink:href="#m3fec8e7728" x="468.625055" y="190.127167" style="stroke: #000000"/>
     <use xlink:href="#m3fec8e7728" x="473.594126" y="272.379933" style="stroke: #000000"/>
     <use xlink:href="#m3fec8e7728" x="478.72349" y="272.379933" style="stroke: #000000"/>
     <use xlink:href="#m3fec8e7728" x="483.692562" y="190.127167" style="stroke: #000000"/>
     <use xlink:href="#m3fec8e7728" x="488.661633" y="272.379933" style="stroke: #000000"/>
     <use xlink:href="#m3fec8e7728" x="493.630705" y="190.127167" style="stroke: #000000"/>
     <use xlink:href="#m3fec8e7728" x="498.760069" y="272.379933" style="stroke: #000000"/>
     <use xlink:href="#m3fec8e7728" x="503.72914" y="272.379933" style="stroke: #000000"/>
     <use xlink:href="#m3fec8e7728" x="508.698211" y="190.127167" style="stroke: #000000"/>
     <use xlink:href="#m3fec8e7728" x="513.667283" y="272.379933" style="stroke: #000000"/>
     <use xlink:href="#m3fec8e7728" x="518.796647" y="272.379933" style="stroke: #000000"/>
     <use xlink:href="#m3fec8e7728" x="523.765718" y="190.127167" style="stroke: #000000"/>
     <use xlink:href="#m3fec8e7728" x="528.734789" y="272.379933" style="stroke: #000000"/>
     <use xlink:href="#m3fec8e7728" x="533.703861" y="190.127167" style="stroke: #000000"/>
     <use xlink:href="#m3fec8e7728" x="538.833225" y="272.379933" style="stroke: #000000"/>
     <use xlink:href="#m3fec8e7728" x="543.802296" y="272.379933" style="stroke: #000000"/>
     <use xlink:href="#m3fec8e7728" x="548.771368" y="190.127167" style="stroke: #000000"/>
     <use xlink:href="#m3fec8e7728" x="553.740439" y="272.379933" style="stroke: #000000"/>
     <use xlink:href="#m3fec8e7728" x="558.869803" y="272.379933" style="stroke: #000000"/>
     <use xlink:href="#m3fec8e7728" x="563.838874" y="190.127167" style="stroke: #000000"/>
     <use xlink:href="#m3fec8e7728" x="568.807946" y="272.379933" style="stroke: #000000"/>
     <use xlink:href="#m3fec8e7728" x="573.777017" y="190.127167" style="stroke: #000000"/>
     <use xlink:href="#m3fec8e7728" x="578.906381" y="272.379933" style="stroke: #000000"/>
     <use xlink:href="#m3fec8e7728" x="583.875452" y="272.379933" style="stroke: #000000"/>
     <use xlink:href="#m3fec8e7728" x="588.844524" y="190.127167" style="stroke: #000000"/>
     <use xlink:href="#m3fec8e7728" x="593.813595" y="272.379933" style="stroke: #000000"/>
     <use xlink:href="#m3fec8e7728" x="598.942959" y="272.379933" style="stroke: #000000"/>
     <use xlink:href="#m3fec8e7728" x="603.912031" y="190.127167" style="stroke: #000000"/>
     <use xlink:href="#m3fec8e7728" x="608.881102" y="272.379933" style="stroke: #000000"/>
     <use xlink:href="#m3fec8e7728" x="613.850173" y="190.127167" style="stroke: #000000"/>
     <use xlink:href="#m3fec8e7728" x="618.979537" y="272.379933" style="stroke: #000000"/>
     <use xlink:href="#m3fec8e7728" x="623.948609" y="272.379933" style="stroke: #000000"/>
     <use xlink:href="#m3fec8e7728" x="628.91768" y="190.127167" style="stroke: #000000"/>
     <use xlink:href="#m3fec8e7728" x="633.886751" y="272.379933" style="stroke: #000000"/>
     <use xlink:href="#m3fec8e7728" x="639.016115" y="272.379933" style="stroke: #000000"/>
     <use xlink:href="#m3fec8e7728" x="643.985187" y="190.127167" style="stroke: #000000"/>
     <use xlink:href="#m3fec8e7728" x="648.954258" y="272.379933" style="stroke: #000000"/>
     <use xlink:href="#m3fec8e7728" x="653.92333" y="190.127167" style="stroke: #000000"/>
     <use xlink:href="#m3fec8e7728" x="659.052694" y="272.379933" style="stroke: #000000"/>
     <use xlink:href="#m3fec8e7728" x="664.021765" y="272.379933" style="stroke: #000000"/>
     <use xlink:href="#m3fec8e7728" x="668.990836" y="190.127167" style="stroke: #000000"/>
     <use xlink:href="#m3fec8e7728" x="673.959908" y="272.379933" style="stroke: #000000"/>
     <use xlink:href="#m3fec8e7728" x="679.089272" y="272.379933" style="stroke: #000000"/>
     <use xlink:href="#m3fec8e7728" x="684.058343" y="190.127167" style="stroke: #000000"/>
     <use xlink:href="#m3fec8e7728" x="689.027414" y="272.379933" style="stroke: #000000"/>
     <use xlink:href="#m3fec8e7728" x="693.996486" y="190.127167" style="stroke: #000000"/>
     <use xlink:href="#m3fec8e7728" x="699.12585" y="272.379933" style="stroke: #000000"/>
     <use xlink:href="#m3fec8e7728" x="704.094921" y="272.379933" style="stroke: #000000"/>
     <use xlink:href="#m3fec8e7728" x="709.063993" y="190.127167" style="stroke: #000000"/>
     <use xlink:href="#m3fec8e7728" x="714.033064" y="272.379933" style="stroke: #000000"/>
     <use xlink:href="#m3fec8e7728" x="719.162428" y="272.379933" style="stroke: #000000"/>
     <use xlink:href="#m3fec8e7728" x="724.131499" y="190.127167" style="stroke: #000000"/>
     <use xlink:href="#m3fec8e7728" x="729.100571" y="272.379933" style="stroke: #000000"/>
     <use xlink:href="#m3fec8e7728" x="734.069642" y="190.127167" style="stroke: #000000"/>
     <use xlink:href="#m3fec8e7728" x="739.199006" y="272.379933" style="stroke: #000000"/>
     <use xlink:href="#m3fec8e7728" x="744.168077" y="272.379933" style="stroke: #000000"/>
     <use xlink:href="#m3fec8e7728" x="749.137149" y="190.127167" style="stroke: #000000"/>
     <use xlink:href="#m3fec8e7728" x="754.10622" y="272.379933" style="stroke: #000000"/>
     <use xlink:href="#m3fec8e7728" x="759.235584" y="272.379933" style="stroke: #000000"/>
     <use xlink:href="#m3fec8e7728" x="764.204656" y="190.127167" style="stroke: #000000"/>
     <use xlink:href="#m3fec8e7728" x="769.173727" y="272.379933" style="stroke: #000000"/>
     <use xlink:href="#m3fec8e7728" x="774.142798" y="190.127167" style="stroke: #000000"/>
     <use xlink:href="#m3fec8e7728" x="779.272162" y="272.379933" style="stroke: #000000"/>
     <use xlink:href="#m3fec8e7728" x="784.241234" y="272.379933" style="stroke: #000000"/>
     <use xlink:href="#m3fec8e7728" x="789.210305" y="190.127167" style="stroke: #000000"/>
     <use xlink:href="#m3fec8e7728" x="794.179376" y="272.379933" style="stroke: #000000"/>
     <use xlink:href="#m3fec8e7728" x="799.30874" y="272.379933" style="stroke: #000000"/>
     <use xlink:href="#m3fec8e7728" x="804.277812" y="190.127167" style="stroke: #000000"/>
     <use xlink:href="#m3fec8e7728" x="809.246883" y="272.379933" style="stroke: #000000"/>
     <use xlink:href="#m3fec8e7728" x="814.215955" y="190.127167" style="stroke: #000000"/>
     <use xlink:href="#m3fec8e7728" x="819.345319" y="272.379933" style="stroke: #000000"/>
     <use xlink:href="#m3fec8e7728" x="824.31439" y="272.379933" style="stroke: #000000"/>
     <use xlink:href="#m3fec8e7728" x="829.283461" y="190.127167" style="stroke: #000000"/>
     <use xlink:href="#m3fec8e7728" x="834.252533" y="272.379933" style="stroke: #000000"/>
     <use xlink:href="#m3fec8e7728" x="839.381897" y="272.379933" style="stroke: #000000"/>
     <use xlink:href="#m3fec8e7728" x="844.350968" y="190.127167" style="stroke: #000000"/>
     <use xlink:href="#m3fec8e7728" x="849.320039" y="272.379933" style="stroke: #000000"/>
     <use xlink:href="#m3fec8e7728" x="854.289111" y="190.127167" style="stroke: #000000"/>
     <use xlink:href="#m3fec8e7728" x="859.418475" y="272.379933" style="stroke: #000000"/>
     <use xlink:href="#m3fec8e7728" x="864.387546" y="272.379933" style="stroke: #000000"/>
     <use xlink:href="#m3fec8e7728" x="869.356618" y="190.127167" style="stroke: #000000"/>
     <use xlink:href="#m3fec8e7728" x="874.325689" y="272.379933" style="stroke: #000000"/>
     <use xlink:href="#m3fec8e7728" x="879.455053" y="272.379933" style="stroke: #000000"/>
     <use xlink:href="#m3fec8e7728" x="884.424124" y="190.127167" style="stroke: #000000"/>
     <use xlink:href="#m3fec8e7728" x="889.393196" y="272.379933" style="stroke: #000000"/>
     <use xlink:href="#m3fec8e7728" x="894.362267" y="190.127167" style="stroke: #000000"/>
     <use xlink:href="#m3fec8e7728" x="899.491631" y="272.379933" style="stroke: #000000"/>
     <use xlink:href="#m3fec8e7728" x="904.460702" y="272.379933" style="stroke: #000000"/>
     <use xlink:href="#m3fec8e7728" x="909.429774" y="190.127167" style="stroke: #000000"/>
     <use xlink:href="#m3fec8e7728" x="914.398845" y="272.379933" style="stroke: #000000"/>
     <use xlink:href="#m3fec8e7728" x="919.528209" y="272.379933" style="stroke: #000000"/>
     <use xlink:href="#m3fec8e7728" x="924.497281" y="190.127167" style="stroke: #000000"/>
     <use xlink:href="#m3fec8e7728" x="929.466352" y="272.379933" style="stroke: #000000"/>
    </g>
   </g>
   <g id="patch_3">
    <path d="M 135 448.56 
L 135 60.48 
" style="fill: none; stroke: #000000; stroke-width: 0.8; stroke-linejoin: miter; stroke-linecap: square"/>
   </g>
   <g id="patch_4">
    <path d="M 972 448.56 
L 972 60.48 
" style="fill: none; stroke: #000000; stroke-width: 0.8; stroke-linejoin: miter; stroke-linecap: square"/>
   </g>
   <g id="patch_5">
    <path d="M 135 448.56 
L 972 448.56 
" style="fill: none; stroke: #000000; stroke-width: 0.8; stroke-linejoin: miter; stroke-linecap: square"/>
   </g>
   <g id="patch_6">
    <path d="M 135 60.48 
L 972 60.48 
" style="fill: none; stroke: #000000; stroke-width: 0.8; stroke-linejoin: miter; stroke-linecap: square"/>
   </g>
   <g id="legend_1">
    <g id="patch_7">
     <path d="M 895.915625 113.070625 
L 965 113.070625 
Q 967 113.070625 967 111.070625 
L 967 67.48 
Q 967 65.48 965 65.48 
L 895.915625 65.48 
Q 893.915625 65.48 893.915625 67.48 
L 893.915625 111.070625 
Q 893.915625 113.070625 895.915625 113.070625 
z
" style="fill: #ffffff; opacity: 0.8; stroke: #cccccc; stroke-linejoin: miter"/>
    </g>
    <g id="line2d_14">
     <path d="M 897.915625 73.578438 
L 907.915625 73.578438 
L 917.915625 73.578438 
" style="fill: none; stroke: #1f77b4; stroke-width: 1.5; stroke-linecap: square"/>
    </g>
    <g id="text_12">
     <!-- nw_0 -->
     <g transform="translate(925.915625 77.078438) scale(0.1 -0.1)">
      <defs>
       <path id="DejaVuSans-6e" d="M 3513 2113 
L 3513 0 
L 2938 0 
L 2938 2094 
Q 2938 2591 2744 2837 
Q 2550 3084 2163 3084 
Q 1697 3084 1428 2787 
Q 1159 2491 1159 1978 
L 1159 0 
L 581 0 
L 581 3500 
L 1159 3500 
L 1159 2956 
Q 1366 3272 1645 3428 
Q 1925 3584 2291 3584 
Q 2894 3584 3203 3211 
Q 3513 2838 3513 2113 
z
" transform="scale(0.015625)"/>
       <path id="DejaVuSans-77" d="M 269 3500 
L 844 3500 
L 1563 769 
L 2278 3500 
L 2956 3500 
L 3675 769 
L 4391 3500 
L 4966 3500 
L 4050 0 
L 3372 0 
L 2619 2869 
L 1863 0 
L 1184 0 
L 269 3500 
z
" transform="scale(0.015625)"/>
       <path id="DejaVuSans-5f" d="M 3263 -1063 
L 3263 -1509 
L -63 -1509 
L -63 -1063 
L 3263 -1063 
z
" transform="scale(0.015625)"/>
      </defs>
      <use xlink:href="#DejaVuSans-6e"/>
      <use xlink:href="#DejaVuSans-77" x="63.378906"/>
      <use xlink:href="#DejaVuSans-5f" x="145.166016"/>
      <use xlink:href="#DejaVuSans-30" x="195.166016"/>
     </g>
    </g>
    <g id="line2d_15">
     <path d="M 897.915625 88.534688 
L 907.915625 88.534688 
L 917.915625 88.534688 
" style="fill: none; stroke: #ff7f0e; stroke-width: 1.5; stroke-linecap: square"/>
    </g>
    <g id="text_13">
     <!-- input_0 -->
     <g transform="translate(925.915625 92.034688) scale(0.1 -0.1)">
      <defs>
       <path id="DejaVuSans-69" d="M 603 3500 
L 1178 3500 
L 1178 0 
L 603 0 
L 603 3500 
z
M 603 4863 
L 1178 4863 
L 1178 4134 
L 603 4134 
L 603 4863 
z
" transform="scale(0.015625)"/>
       <path id="DejaVuSans-70" d="M 1159 525 
L 1159 -1331 
L 581 -1331 
L 581 3500 
L 1159 3500 
L 1159 2969 
Q 1341 3281 1617 3432 
Q 1894 3584 2278 3584 
Q 2916 3584 3314 3078 
Q 3713 2572 3713 1747 
Q 3713 922 3314 415 
Q 2916 -91 2278 -91 
Q 1894 -91 1617 61 
Q 1341 213 1159 525 
z
M 3116 1747 
Q 3116 2381 2855 2742 
Q 2594 3103 2138 3103 
Q 1681 3103 1420 2742 
Q 1159 2381 1159 1747 
Q 1159 1113 1420 752 
Q 1681 391 2138 391 
Q 2594 391 2855 752 
Q 3116 1113 3116 1747 
z
" transform="scale(0.015625)"/>
       <path id="DejaVuSans-75" d="M 544 1381 
L 544 3500 
L 1119 3500 
L 1119 1403 
Q 1119 906 1312 657 
Q 1506 409 1894 409 
Q 2359 409 2629 706 
Q 2900 1003 2900 1516 
L 2900 3500 
L 3475 3500 
L 3475 0 
L 2900 0 
L 2900 538 
Q 2691 219 2414 64 
Q 2138 -91 1772 -91 
Q 1169 -91 856 284 
Q 544 659 544 1381 
z
M 1991 3584 
L 1991 3584 
z
" transform="scale(0.015625)"/>
      </defs>
      <use xlink:href="#DejaVuSans-69"/>
      <use xlink:href="#DejaVuSans-6e" x="27.783203"/>
      <use xlink:href="#DejaVuSans-70" x="91.162109"/>
      <use xlink:href="#DejaVuSans-75" x="154.638672"/>
      <use xlink:href="#DejaVuSans-74" x="218.017578"/>
      <use xlink:href="#DejaVuSans-5f" x="257.226562"/>
      <use xlink:href="#DejaVuSans-30" x="307.226562"/>
     </g>
    </g>
    <g id="line2d_16">
     <path d="M 897.915625 103.490938 
L 907.915625 103.490938 
L 917.915625 103.490938 
" style="fill: none; stroke: #000000; stroke-width: 1.5; stroke-linecap: square"/>
     <g>
      <use xlink:href="#m3fec8e7728" x="907.915625" y="103.490938" style="stroke: #000000"/>
     </g>
    </g>
    <g id="text_14">
     <!-- target -->
     <g transform="translate(925.915625 106.990938) scale(0.1 -0.1)">
      <defs>
       <path id="DejaVuSans-61" d="M 2194 1759 
Q 1497 1759 1228 1600 
Q 959 1441 959 1056 
Q 959 750 1161 570 
Q 1363 391 1709 391 
Q 2188 391 2477 730 
Q 2766 1069 2766 1631 
L 2766 1759 
L 2194 1759 
z
M 3341 1997 
L 3341 0 
L 2766 0 
L 2766 531 
Q 2569 213 2275 61 
Q 1981 -91 1556 -91 
Q 1019 -91 701 211 
Q 384 513 384 1019 
Q 384 1609 779 1909 
Q 1175 2209 1959 2209 
L 2766 2209 
L 2766 2266 
Q 2766 2663 2505 2880 
Q 2244 3097 1772 3097 
Q 1472 3097 1187 3025 
Q 903 2953 641 2809 
L 641 3341 
Q 956 3463 1253 3523 
Q 1550 3584 1831 3584 
Q 2591 3584 2966 3190 
Q 3341 2797 3341 1997 
z
" transform="scale(0.015625)"/>
       <path id="DejaVuSans-72" d="M 2631 2963 
Q 2534 3019 2420 3045 
Q 2306 3072 2169 3072 
Q 1681 3072 1420 2755 
Q 1159 2438 1159 1844 
L 1159 0 
L 581 0 
L 581 3500 
L 1159 3500 
L 1159 2956 
Q 1341 3275 1631 3429 
Q 1922 3584 2338 3584 
Q 2397 3584 2469 3576 
Q 2541 3569 2628 3553 
L 2631 2963 
z
" transform="scale(0.015625)"/>
       <path id="DejaVuSans-67" d="M 2906 1791 
Q 2906 2416 2648 2759 
Q 2391 3103 1925 3103 
Q 1463 3103 1205 2759 
Q 947 2416 947 1791 
Q 947 1169 1205 825 
Q 1463 481 1925 481 
Q 2391 481 2648 825 
Q 2906 1169 2906 1791 
z
M 3481 434 
Q 3481 -459 3084 -895 
Q 2688 -1331 1869 -1331 
Q 1566 -1331 1297 -1286 
Q 1028 -1241 775 -1147 
L 775 -588 
Q 1028 -725 1275 -790 
Q 1522 -856 1778 -856 
Q 2344 -856 2625 -561 
Q 2906 -266 2906 331 
L 2906 616 
Q 2728 306 2450 153 
Q 2172 0 1784 0 
Q 1141 0 747 490 
Q 353 981 353 1791 
Q 353 2603 747 3093 
Q 1141 3584 1784 3584 
Q 2172 3584 2450 3431 
Q 2728 3278 2906 2969 
L 2906 3500 
L 3481 3500 
L 3481 434 
z
" transform="scale(0.015625)"/>
       <path id="DejaVuSans-65" d="M 3597 1894 
L 3597 1613 
L 953 1613 
Q 991 1019 1311 708 
Q 1631 397 2203 397 
Q 2534 397 2845 478 
Q 3156 559 3463 722 
L 3463 178 
Q 3153 47 2828 -22 
Q 2503 -91 2169 -91 
Q 1331 -91 842 396 
Q 353 884 353 1716 
Q 353 2575 817 3079 
Q 1281 3584 2069 3584 
Q 2775 3584 3186 3129 
Q 3597 2675 3597 1894 
z
M 3022 2063 
Q 3016 2534 2758 2815 
Q 2500 3097 2075 3097 
Q 1594 3097 1305 2825 
Q 1016 2553 972 2059 
L 3022 2063 
z
" transform="scale(0.015625)"/>
      </defs>
      <use xlink:href="#DejaVuSans-74"/>
      <use xlink:href="#DejaVuSans-61" x="39.208984"/>
      <use xlink:href="#DejaVuSans-72" x="100.488281"/>
      <use xlink:href="#DejaVuSans-67" x="139.851562"/>
      <use xlink:href="#DejaVuSans-65" x="203.328125"/>
      <use xlink:href="#DejaVuSans-74" x="264.851562"/>
     </g>
    </g>
   </g>
  </g>
 </g>
 <defs>
  <clipPath id="pde0d7111b4">
   <rect x="135" y="60.48" width="837" height="388.08"/>
  </clipPath>
 </defs>
</svg>
