<?xml version="1.0" encoding="utf-8" standalone="no"?>
<!DOCTYPE svg PUBLIC "-//W3C//DTD SVG 1.1//EN"
  "http://www.w3.org/Graphics/SVG/1.1/DTD/svg11.dtd">
<svg xmlns:xlink="http://www.w3.org/1999/xlink" width="1080pt" height="504pt" viewBox="0 0 1080 504" xmlns="http://www.w3.org/2000/svg" version="1.1">
 <metadata>
  <rdf:RDF xmlns:dc="http://purl.org/dc/elements/1.1/" xmlns:cc="http://creativecommons.org/ns#" xmlns:rdf="http://www.w3.org/1999/02/22-rdf-syntax-ns#">
   <cc:Work>
    <dc:type rdf:resource="http://purl.org/dc/dcmitype/StillImage"/>
    <dc:date>2024-05-09T11:13:31.585114</dc:date>
    <dc:format>image/svg+xml</dc:format>
    <dc:creator>
     <cc:Agent>
      <dc:title>Matplotlib v3.7.1, https://matplotlib.org/</dc:title>
     </cc:Agent>
    </dc:creator>
   </cc:Work>
  </rdf:RDF>
 </metadata>
 <defs>
  <style type="text/css">*{stroke-linejoin: round; stroke-linecap: butt}</style>
 </defs>
 <g id="figure_1">
  <g id="patch_1">
   <path d="M 0 504 
L 1080 504 
L 1080 0 
L 0 0 
z
" style="fill: #ffffff"/>
  </g>
  <g id="axes_1">
   <g id="patch_2">
    <path d="M 135 448.56 
L 972 448.56 
L 972 60.48 
L 135 60.48 
z
" style="fill: #ffffff"/>
   </g>
   <g id="matplotlib.axis_1">
    <g id="xtick_1">
     <g id="line2d_1">
      <defs>
       <path id="m834b7a5b3b" d="M 0 0 
L 0 3.5 
" style="stroke: #000000; stroke-width: 0.8"/>
      </defs>
      <g>
       <use xlink:href="#m834b7a5b3b" x="173.045455" y="448.56" style="stroke: #000000; stroke-width: 0.8"/>
      </g>
     </g>
     <g id="text_1">
      <!-- 0 -->
      <g transform="translate(169.864205 463.158437) scale(0.1 -0.1)">
       <defs>
        <path id="DejaVuSans-30" d="M 2034 4250 
Q 1547 4250 1301 3770 
Q 1056 3291 1056 2328 
Q 1056 1369 1301 889 
Q 1547 409 2034 409 
Q 2525 409 2770 889 
Q 3016 1369 3016 2328 
Q 3016 3291 2770 3770 
Q 2525 4250 2034 4250 
z
M 2034 4750 
Q 2819 4750 3233 4129 
Q 3647 3509 3647 2328 
Q 3647 1150 3233 529 
Q 2819 -91 2034 -91 
Q 1250 -91 836 529 
Q 422 1150 422 2328 
Q 422 3509 836 4129 
Q 1250 4750 2034 4750 
z
" transform="scale(0.015625)"/>
       </defs>
       <use xlink:href="#DejaVuSans-30"/>
      </g>
     </g>
    </g>
    <g id="xtick_2">
     <g id="line2d_2">
      <g>
       <use xlink:href="#m834b7a5b3b" x="333.33808" y="448.56" style="stroke: #000000; stroke-width: 0.8"/>
      </g>
     </g>
     <g id="text_2">
      <!-- 1000 -->
      <g transform="translate(320.61308 463.158437) scale(0.1 -0.1)">
       <defs>
        <path id="DejaVuSans-31" d="M 794 531 
L 1825 531 
L 1825 4091 
L 703 3866 
L 703 4441 
L 1819 4666 
L 2450 4666 
L 2450 531 
L 3481 531 
L 3481 0 
L 794 0 
L 794 531 
z
" transform="scale(0.015625)"/>
       </defs>
       <use xlink:href="#DejaVuSans-31"/>
       <use xlink:href="#DejaVuSans-30" x="63.623047"/>
       <use xlink:href="#DejaVuSans-30" x="127.246094"/>
       <use xlink:href="#DejaVuSans-30" x="190.869141"/>
      </g>
     </g>
    </g>
    <g id="xtick_3">
     <g id="line2d_3">
      <g>
       <use xlink:href="#m834b7a5b3b" x="493.630705" y="448.56" style="stroke: #000000; stroke-width: 0.8"/>
      </g>
     </g>
     <g id="text_3">
      <!-- 2000 -->
      <g transform="translate(480.905705 463.158437) scale(0.1 -0.1)">
       <defs>
        <path id="DejaVuSans-32" d="M 1228 531 
L 3431 531 
L 3431 0 
L 469 0 
L 469 531 
Q 828 903 1448 1529 
Q 2069 2156 2228 2338 
Q 2531 2678 2651 2914 
Q 2772 3150 2772 3378 
Q 2772 3750 2511 3984 
Q 2250 4219 1831 4219 
Q 1534 4219 1204 4116 
Q 875 4013 500 3803 
L 500 4441 
Q 881 4594 1212 4672 
Q 1544 4750 1819 4750 
Q 2544 4750 2975 4387 
Q 3406 4025 3406 3419 
Q 3406 3131 3298 2873 
Q 3191 2616 2906 2266 
Q 2828 2175 2409 1742 
Q 1991 1309 1228 531 
z
" transform="scale(0.015625)"/>
       </defs>
       <use xlink:href="#DejaVuSans-32"/>
       <use xlink:href="#DejaVuSans-30" x="63.623047"/>
       <use xlink:href="#DejaVuSans-30" x="127.246094"/>
       <use xlink:href="#DejaVuSans-30" x="190.869141"/>
      </g>
     </g>
    </g>
    <g id="xtick_4">
     <g id="line2d_4">
      <g>
       <use xlink:href="#m834b7a5b3b" x="653.92333" y="448.56" style="stroke: #000000; stroke-width: 0.8"/>
      </g>
     </g>
     <g id="text_4">
      <!-- 3000 -->
      <g transform="translate(641.19833 463.158437) scale(0.1 -0.1)">
       <defs>
        <path id="DejaVuSans-33" d="M 2597 2516 
Q 3050 2419 3304 2112 
Q 3559 1806 3559 1356 
Q 3559 666 3084 287 
Q 2609 -91 1734 -91 
Q 1441 -91 1130 -33 
Q 819 25 488 141 
L 488 750 
Q 750 597 1062 519 
Q 1375 441 1716 441 
Q 2309 441 2620 675 
Q 2931 909 2931 1356 
Q 2931 1769 2642 2001 
Q 2353 2234 1838 2234 
L 1294 2234 
L 1294 2753 
L 1863 2753 
Q 2328 2753 2575 2939 
Q 2822 3125 2822 3475 
Q 2822 3834 2567 4026 
Q 2313 4219 1838 4219 
Q 1578 4219 1281 4162 
Q 984 4106 628 3988 
L 628 4550 
Q 988 4650 1302 4700 
Q 1616 4750 1894 4750 
Q 2613 4750 3031 4423 
Q 3450 4097 3450 3541 
Q 3450 3153 3228 2886 
Q 3006 2619 2597 2516 
z
" transform="scale(0.015625)"/>
       </defs>
       <use xlink:href="#DejaVuSans-33"/>
       <use xlink:href="#DejaVuSans-30" x="63.623047"/>
       <use xlink:href="#DejaVuSans-30" x="127.246094"/>
       <use xlink:href="#DejaVuSans-30" x="190.869141"/>
      </g>
     </g>
    </g>
    <g id="xtick_5">
     <g id="line2d_5">
      <g>
       <use xlink:href="#m834b7a5b3b" x="814.215955" y="448.56" style="stroke: #000000; stroke-width: 0.8"/>
      </g>
     </g>
     <g id="text_5">
      <!-- 4000 -->
      <g transform="translate(801.490955 463.158437) scale(0.1 -0.1)">
       <defs>
        <path id="DejaVuSans-34" d="M 2419 4116 
L 825 1625 
L 2419 1625 
L 2419 4116 
z
M 2253 4666 
L 3047 4666 
L 3047 1625 
L 3713 1625 
L 3713 1100 
L 3047 1100 
L 3047 0 
L 2419 0 
L 2419 1100 
L 313 1100 
L 313 1709 
L 2253 4666 
z
" transform="scale(0.015625)"/>
       </defs>
       <use xlink:href="#DejaVuSans-34"/>
       <use xlink:href="#DejaVuSans-30" x="63.623047"/>
       <use xlink:href="#DejaVuSans-30" x="127.246094"/>
       <use xlink:href="#DejaVuSans-30" x="190.869141"/>
      </g>
     </g>
    </g>
    <g id="text_6">
     <!-- t -->
     <g transform="translate(551.539844 476.836563) scale(0.1 -0.1)">
      <defs>
       <path id="DejaVuSans-74" d="M 1172 4494 
L 1172 3500 
L 2356 3500 
L 2356 3053 
L 1172 3053 
L 1172 1153 
Q 1172 725 1289 603 
Q 1406 481 1766 481 
L 2356 481 
L 2356 0 
L 1766 0 
Q 1100 0 847 248 
Q 594 497 594 1153 
L 594 3053 
L 172 3053 
L 172 3500 
L 594 3500 
L 594 4494 
L 1172 4494 
z
" transform="scale(0.015625)"/>
      </defs>
      <use xlink:href="#DejaVuSans-74"/>
     </g>
    </g>
   </g>
   <g id="matplotlib.axis_2">
    <g id="ytick_1">
     <g id="line2d_6">
      <defs>
       <path id="m2963ee3306" d="M 0 0 
L -3.5 0 
" style="stroke: #000000; stroke-width: 0.8"/>
      </defs>
      <g>
       <use xlink:href="#m2963ee3306" x="135" y="437.091222" style="stroke: #000000; stroke-width: 0.8"/>
      </g>
     </g>
     <g id="text_7">
      <!-- −0.2 -->
      <g transform="translate(103.717187 440.890441) scale(0.1 -0.1)">
       <defs>
        <path id="DejaVuSans-2212" d="M 678 2272 
L 4684 2272 
L 4684 1741 
L 678 1741 
L 678 2272 
z
" transform="scale(0.015625)"/>
        <path id="DejaVuSans-2e" d="M 684 794 
L 1344 794 
L 1344 0 
L 684 0 
L 684 794 
z
" transform="scale(0.015625)"/>
       </defs>
       <use xlink:href="#DejaVuSans-2212"/>
       <use xlink:href="#DejaVuSans-30" x="83.789062"/>
       <use xlink:href="#DejaVuSans-2e" x="147.412109"/>
       <use xlink:href="#DejaVuSans-32" x="179.199219"/>
      </g>
     </g>
    </g>
    <g id="ytick_2">
     <g id="line2d_7">
      <g>
       <use xlink:href="#m2963ee3306" x="135" y="388.774882" style="stroke: #000000; stroke-width: 0.8"/>
      </g>
     </g>
     <g id="text_8">
      <!-- 0.0 -->
      <g transform="translate(112.096875 392.5741) scale(0.1 -0.1)">
       <use xlink:href="#DejaVuSans-30"/>
       <use xlink:href="#DejaVuSans-2e" x="63.623047"/>
       <use xlink:href="#DejaVuSans-30" x="95.410156"/>
      </g>
     </g>
    </g>
    <g id="ytick_3">
     <g id="line2d_8">
      <g>
       <use xlink:href="#m2963ee3306" x="135" y="340.458541" style="stroke: #000000; stroke-width: 0.8"/>
      </g>
     </g>
     <g id="text_9">
      <!-- 0.2 -->
      <g transform="translate(112.096875 344.25776) scale(0.1 -0.1)">
       <use xlink:href="#DejaVuSans-30"/>
       <use xlink:href="#DejaVuSans-2e" x="63.623047"/>
       <use xlink:href="#DejaVuSans-32" x="95.410156"/>
      </g>
     </g>
    </g>
    <g id="ytick_4">
     <g id="line2d_9">
      <g>
       <use xlink:href="#m2963ee3306" x="135" y="292.142201" style="stroke: #000000; stroke-width: 0.8"/>
      </g>
     </g>
     <g id="text_10">
      <!-- 0.4 -->
      <g transform="translate(112.096875 295.94142) scale(0.1 -0.1)">
       <use xlink:href="#DejaVuSans-30"/>
       <use xlink:href="#DejaVuSans-2e" x="63.623047"/>
       <use xlink:href="#DejaVuSans-34" x="95.410156"/>
      </g>
     </g>
    </g>
    <g id="ytick_5">
     <g id="line2d_10">
      <g>
       <use xlink:href="#m2963ee3306" x="135" y="243.825861" style="stroke: #000000; stroke-width: 0.8"/>
      </g>
     </g>
     <g id="text_11">
      <!-- 0.6 -->
      <g transform="translate(112.096875 247.62508) scale(0.1 -0.1)">
       <defs>
        <path id="DejaVuSans-36" d="M 2113 2584 
Q 1688 2584 1439 2293 
Q 1191 2003 1191 1497 
Q 1191 994 1439 701 
Q 1688 409 2113 409 
Q 2538 409 2786 701 
Q 3034 994 3034 1497 
Q 3034 2003 2786 2293 
Q 2538 2584 2113 2584 
z
M 3366 4563 
L 3366 3988 
Q 3128 4100 2886 4159 
Q 2644 4219 2406 4219 
Q 1781 4219 1451 3797 
Q 1122 3375 1075 2522 
Q 1259 2794 1537 2939 
Q 1816 3084 2150 3084 
Q 2853 3084 3261 2657 
Q 3669 2231 3669 1497 
Q 3669 778 3244 343 
Q 2819 -91 2113 -91 
Q 1303 -91 875 529 
Q 447 1150 447 2328 
Q 447 3434 972 4092 
Q 1497 4750 2381 4750 
Q 2619 4750 2861 4703 
Q 3103 4656 3366 4563 
z
" transform="scale(0.015625)"/>
       </defs>
       <use xlink:href="#DejaVuSans-30"/>
       <use xlink:href="#DejaVuSans-2e" x="63.623047"/>
       <use xlink:href="#DejaVuSans-36" x="95.410156"/>
      </g>
     </g>
    </g>
    <g id="ytick_6">
     <g id="line2d_11">
      <g>
       <use xlink:href="#m2963ee3306" x="135" y="195.509521" style="stroke: #000000; stroke-width: 0.8"/>
      </g>
     </g>
     <g id="text_12">
      <!-- 0.8 -->
      <g transform="translate(112.096875 199.308739) scale(0.1 -0.1)">
       <defs>
        <path id="DejaVuSans-38" d="M 2034 2216 
Q 1584 2216 1326 1975 
Q 1069 1734 1069 1313 
Q 1069 891 1326 650 
Q 1584 409 2034 409 
Q 2484 409 2743 651 
Q 3003 894 3003 1313 
Q 3003 1734 2745 1975 
Q 2488 2216 2034 2216 
z
M 1403 2484 
Q 997 2584 770 2862 
Q 544 3141 544 3541 
Q 544 4100 942 4425 
Q 1341 4750 2034 4750 
Q 2731 4750 3128 4425 
Q 3525 4100 3525 3541 
Q 3525 3141 3298 2862 
Q 3072 2584 2669 2484 
Q 3125 2378 3379 2068 
Q 3634 1759 3634 1313 
Q 3634 634 3220 271 
Q 2806 -91 2034 -91 
Q 1263 -91 848 271 
Q 434 634 434 1313 
Q 434 1759 690 2068 
Q 947 2378 1403 2484 
z
M 1172 3481 
Q 1172 3119 1398 2916 
Q 1625 2713 2034 2713 
Q 2441 2713 2670 2916 
Q 2900 3119 2900 3481 
Q 2900 3844 2670 4047 
Q 2441 4250 2034 4250 
Q 1625 4250 1398 4047 
Q 1172 3844 1172 3481 
z
" transform="scale(0.015625)"/>
       </defs>
       <use xlink:href="#DejaVuSans-30"/>
       <use xlink:href="#DejaVuSans-2e" x="63.623047"/>
       <use xlink:href="#DejaVuSans-38" x="95.410156"/>
      </g>
     </g>
    </g>
    <g id="ytick_7">
     <g id="line2d_12">
      <g>
       <use xlink:href="#m2963ee3306" x="135" y="147.19318" style="stroke: #000000; stroke-width: 0.8"/>
      </g>
     </g>
     <g id="text_13">
      <!-- 1.0 -->
      <g transform="translate(112.096875 150.992399) scale(0.1 -0.1)">
       <use xlink:href="#DejaVuSans-31"/>
       <use xlink:href="#DejaVuSans-2e" x="63.623047"/>
       <use xlink:href="#DejaVuSans-30" x="95.410156"/>
      </g>
     </g>
    </g>
    <g id="ytick_8">
     <g id="line2d_13">
      <g>
       <use xlink:href="#m2963ee3306" x="135" y="98.87684" style="stroke: #000000; stroke-width: 0.8"/>
      </g>
     </g>
     <g id="text_14">
      <!-- 1.2 -->
      <g transform="translate(112.096875 102.676059) scale(0.1 -0.1)">
       <use xlink:href="#DejaVuSans-31"/>
       <use xlink:href="#DejaVuSans-2e" x="63.623047"/>
       <use xlink:href="#DejaVuSans-32" x="95.410156"/>
      </g>
     </g>
    </g>
   </g>
   <g id="line2d_14">
    <path d="M 173.045455 238.76184 
L 173.36604 121.095289 
L 173.526332 111.625233 
L 173.686625 115.523875 
L 174.167503 135.337779 
L 174.327796 135.034329 
L 174.488088 130.779049 
L 174.968966 104.805977 
L 175.449844 82.040931 
L 175.610137 78.723763 
L 175.770429 78.12 
L 175.930722 80.310681 
L 176.251307 92.766101 
L 176.732185 128.404448 
L 177.533648 213.841145 
L 177.693941 232.411389 
L 178.014526 345.387538 
L 178.335111 399.034534 
L 178.655696 416.21928 
L 178.815989 417.784474 
L 178.976282 417.290775 
L 179.45716 414.414284 
L 179.617452 414.665379 
L 179.938037 417.317219 
L 181.060086 430.332825 
L 181.220378 430.861266 
L 181.380671 430.92 
L 181.540964 430.531074 
L 181.861549 428.577574 
L 182.342427 423.555113 
L 183.464475 408.393748 
L 184.105646 397.369058 
L 184.586524 385.700454 
L 185.227694 363.213586 
L 186.029157 323.4961 
L 188.273254 201.241395 
L 188.754132 186.067762 
L 189.23501 177.396914 
L 189.555595 175.323989 
L 189.715888 175.380359 
L 189.87618 176.144363 
L 190.196765 179.705639 
L 190.677643 189.697661 
L 191.318814 210.195438 
L 192.28057 250.866336 
L 194.204081 334.232272 
L 195.005544 358.435717 
L 195.646715 370.68178 
L 196.127593 375.442476 
L 196.448178 376.537204 
L 196.60847 376.482519 
L 196.768763 376.040594 
L 197.089348 374.047616 
L 197.570226 368.520857 
L 198.211397 357.195384 
L 199.173152 334.478362 
L 201.417249 278.123066 
L 202.218712 263.331449 
L 202.859883 254.826171 
L 203.340761 250.510371 
L 203.821639 247.950016 
L 204.142224 247.182283 
L 204.302516 247.067709 
L 204.462809 247.125843 
L 204.783394 247.736978 
L 205.10398 248.965268 
L 205.584857 251.842088 
L 206.226028 257.29062 
L 207.187784 267.902285 
L 210.874514 311.877325 
L 211.996562 321.514476 
L 212.958318 327.960503 
L 213.278903 329.776931 
L 213.599489 146.485431 
L 213.920074 87.861763 
L 214.080367 86.846657 
L 214.400952 110.244726 
L 215.042122 167.847679 
L 215.362708 183.664934 
L 215.683293 190.938549 
L 215.843585 192.294401 
L 216.003878 192.654805 
L 216.164171 192.377805 
L 216.805341 190.308705 
L 216.965634 190.450109 
L 217.125926 191.055149 
L 217.446512 193.787243 
L 217.767097 198.571232 
L 218.087682 205.289727 
L 218.408267 294.270787 
L 218.728853 335.259459 
L 219.049438 346.72449 
L 219.209731 347.250899 
L 219.690608 345.607384 
L 219.850901 346.199268 
L 220.171486 349.828265 
L 221.453827 370.752645 
L 221.774413 373.113357 
L 222.094998 374.359464 
L 223.217046 377.127327 
L 224.499387 382.836796 
L 224.65968 382.547199 
L 224.819972 381.74864 
L 225.140558 378.334095 
L 225.461143 372.140798 
L 225.942021 357.249899 
L 226.583191 327.842634 
L 229.147873 194.623757 
L 229.628751 183.490899 
L 229.949336 179.924818 
L 230.109629 179.30382 
L 230.269922 179.445779 
L 230.430214 180.335232 
L 230.7508 184.271318 
L 231.231677 195.144096 
L 231.872848 217.406146 
L 232.834604 261.838055 
L 234.758115 354.647375 
L 235.559578 382.411054 
L 236.200749 396.943181 
L 236.681627 403.0001 
L 237.002212 404.739916 
L 237.162505 404.939898 
L 237.322797 404.706974 
L 237.643382 402.99509 
L 237.963968 399.72659 
L 238.444846 392.22998 
L 239.086016 378.293383 
L 240.208064 347.282924 
L 241.971283 297.715524 
L 242.933039 277.212246 
L 243.57421 267.472469 
L 244.21538 261.101892 
L 244.696258 258.498095 
L 245.016843 257.745192 
L 245.177136 257.648321 
L 245.337428 257.729783 
L 245.658014 258.400871 
L 245.978599 259.701121 
L 246.459477 262.694354 
L 247.100647 268.283993 
L 248.062403 279.002462 
L 251.268256 316.913947 
L 252.230011 325.395321 
L 253.191767 332.040916 
L 253.99323 336.313318 
L 254.313815 152.489014 
L 254.634401 93.245379 
L 254.794693 91.846741 
L 255.115279 114.352502 
L 255.756449 170.009276 
L 256.077034 184.95832 
L 256.39762 191.515005 
L 256.557912 192.577322 
L 256.718205 192.688435 
L 257.03879 191.436776 
L 257.359375 190.006144 
L 257.519668 189.693116 
L 257.679961 189.801765 
L 257.840253 190.397771 
L 258.160838 193.168748 
L 258.481424 198.046569 
L 258.802009 204.893192 
L 259.122594 293.985909 
L 259.443179 335.167552 
L 259.763765 346.882188 
L 259.924057 347.540904 
L 260.404935 346.258752 
L 260.565228 346.94642 
L 260.885813 350.719247 
L 262.168154 371.725236 
L 262.488739 374.055769 
L 262.809325 375.275641 
L 263.77108 377.37532 
L 264.251958 379.682459 
L 264.893129 383.152216 
L 265.213714 383.755686 
L 265.374007 383.462092 
L 265.534299 382.657024 
L 265.854884 379.221321 
L 266.17547 372.99547 
L 266.656348 358.034463 
L 267.297518 328.498129 
L 269.8622 194.596321 
L 270.343078 183.350225 
L 270.663663 179.716556 
L 270.823956 179.064376 
L 270.984248 179.176971 
L 271.144541 180.038918 
L 271.465126 183.925672 
L 271.946004 194.738766 
L 272.587175 216.947306 
L 273.54893 261.349441 
L 275.472442 354.228355 
L 276.273905 382.046757 
L 276.915076 396.624394 
L 277.395953 402.714035 
L 277.716539 404.474325 
L 277.876831 404.684039 
L 278.037124 404.460471 
L 278.357709 402.766095 
L 278.678294 399.513386 
L 279.159172 392.037101 
L 279.800343 378.12134 
L 280.922391 347.131993 
L 282.68561 297.57212 
L 283.647366 277.068255 
L 284.288536 267.328625 
L 284.929707 260.959431 
L 285.410585 258.357729 
L 285.73117 257.60677 
L 285.891463 257.511039 
L 286.051755 257.593751 
L 286.37234 258.267663 
L 286.692926 259.571152 
L 287.173804 262.569957 
L 287.814974 268.168143 
L 288.77673 278.901034 
L 291.982582 316.858274 
L 292.944338 325.349009 
L 293.585509 329.980071 
L 293.906094 147.106429 
L 294.226679 88.781245 
L 294.386972 87.838189 
L 294.707557 111.238857 
L 295.348727 168.50822 
L 295.669313 184.104588 
L 295.989898 191.167088 
L 296.150191 192.425689 
L 296.310483 192.695382 
L 296.470776 192.334359 
L 297.111946 189.990847 
L 297.272239 190.077059 
L 297.432532 190.631498 
L 297.753117 193.275082 
L 298.073702 197.986282 
L 298.394287 204.6469 
L 298.714873 293.575704 
L 299.035458 334.50435 
L 299.356043 345.913047 
L 299.516336 346.416029 
L 299.997214 344.733933 
L 300.157506 345.325843 
L 300.478091 348.975937 
L 301.760432 370.20944 
L 302.24131 373.460013 
L 302.722188 374.767363 
L 303.203066 375.864006 
L 303.683944 377.903225 
L 304.6457 382.851085 
L 304.805992 383.002995 
L 304.966285 382.728516 
L 305.126578 381.943443 
L 305.447163 378.551486 
L 305.767748 372.375682 
L 306.248626 357.503087 
L 306.889796 328.108311 
L 309.454478 194.854873 
L 309.935356 183.70717 
L 310.255942 180.130575 
L 310.416234 179.504192 
L 310.576527 179.640702 
L 310.736819 180.524659 
L 311.057405 184.449668 
L 311.538283 195.305817 
L 312.179453 217.54613 
L 313.141209 261.947421 
L 315.06472 354.70615 
L 315.866183 382.453519 
L 316.507354 396.974674 
L 316.988232 403.024562 
L 317.308817 404.76025 
L 317.46911 404.958332 
L 317.629402 404.723615 
L 317.949988 403.008464 
L 318.270573 399.737103 
L 318.751451 392.23693 
L 319.392621 378.296827 
L 320.51467 347.28312 
L 322.277888 297.71579 
L 323.239644 277.214095 
L 323.880815 267.475681 
L 324.521985 261.106597 
L 325.002863 258.503962 
L 325.323448 257.751839 
L 325.483741 257.655358 
L 325.644034 257.737208 
L 325.964619 258.409065 
L 326.285204 259.71007 
L 326.766082 262.704403 
L 327.407252 268.295425 
L 328.369008 279.015738 
L 331.574861 316.930632 
L 332.536616 325.412072 
L 333.498372 332.057291 
L 333.818957 333.893105 
L 334.139543 150.445587 
L 334.460128 91.559796 
L 334.620421 90.33733 
L 334.941006 113.187938 
L 335.582176 169.46449 
L 335.902762 184.661393 
L 336.223347 191.410339 
L 336.383639 192.546457 
L 336.543932 192.716473 
L 336.864517 191.540021 
L 337.185103 190.133982 
L 337.345395 189.817277 
L 337.505688 189.913397 
L 337.66598 190.489394 
L 337.986566 193.203187 
L 338.307151 198.008879 
L 338.627736 204.776386 
L 338.948321 293.800551 
L 339.268907 334.878627 
L 339.589492 346.468565 
L 339.749785 347.063856 
L 340.230662 345.61889 
L 340.390955 346.26762 
L 340.71154 349.990721 
L 341.993881 371.094192 
L 342.474759 374.228867 
L 342.955637 375.434055 
L 343.436515 376.453232 
L 343.7571 377.648213 
L 345.039441 383.461164 
L 345.199734 383.176334 
L 345.360026 382.380298 
L 345.680612 378.963896 
L 346.001197 372.75951 
L 346.482075 357.835366 
L 347.123245 328.356456 
L 349.687927 194.708061 
L 350.168805 183.499605 
L 350.48939 179.887661 
L 350.649683 179.245268 
L 350.809976 179.366914 
L 350.970268 180.237171 
L 351.290854 184.138303 
L 351.771731 194.967421 
L 352.412902 217.187464 
L 353.374658 261.588324 
L 355.298169 354.419907 
L 356.099632 382.210807 
L 356.740803 396.76664 
L 357.221681 402.840949 
L 357.542266 404.59175 
L 357.702559 404.796975 
L 357.862851 404.569104 
L 358.183436 402.866701 
L 358.504022 399.606774 
L 358.9849 392.121213 
L 359.62607 378.195925 
L 360.748118 347.196775 
L 362.511337 297.633024 
L 363.473093 277.129354 
L 364.114264 267.389764 
L 364.755434 261.020203 
L 365.236312 258.417855 
L 365.556897 257.666268 
L 365.71719 257.570162 
L 365.877482 257.652459 
L 366.198068 258.325422 
L 366.518653 259.627809 
L 366.999531 262.624697 
L 367.640701 268.219906 
L 368.602457 278.947711 
L 371.80831 316.888281 
L 372.770065 325.375361 
L 373.090651 327.79052 
L 373.411236 145.224126 
L 373.731821 87.206287 
L 373.892114 86.417287 
L 374.212699 110.121293 
L 374.853869 167.937043 
L 375.174455 183.753822 
L 375.49504 190.990904 
L 375.655333 192.318625 
L 375.815625 192.645385 
L 375.975918 192.329755 
L 376.617088 190.06558 
L 376.777381 190.150778 
L 376.937674 190.697941 
L 377.258259 193.312237 
L 377.578844 197.980629 
L 377.899429 204.591092 
L 378.220015 293.473718 
L 378.5406 334.327188 
L 378.861185 345.644067 
L 379.021478 346.100253 
L 379.502356 344.298118 
L 379.662648 344.86135 
L 379.983233 348.474714 
L 381.425867 371.19121 
L 381.746452 373.080075 
L 382.22733 374.436106 
L 382.708208 375.568249 
L 383.189086 377.630581 
L 384.150842 382.604732 
L 384.311134 382.760552 
L 384.471427 382.490262 
L 384.63172 381.709772 
L 384.952305 378.32854 
L 385.27289 372.165961 
L 385.753768 357.318403 
L 386.394938 327.966295 
L 388.95962 194.924085 
L 389.440498 183.809778 
L 389.761084 180.252731 
L 389.921376 179.635232 
L 390.081669 179.780013 
L 390.241961 180.671614 
L 390.562547 184.610008 
L 391.043425 195.481459 
L 391.684595 217.733536 
L 392.646351 262.135902 
L 394.569862 354.855465 
L 395.371325 382.578977 
L 396.012496 397.081057 
L 396.493374 403.117495 
L 396.813959 404.844858 
L 396.974252 405.039006 
L 397.134544 404.800522 
L 397.45513 403.078359 
L 397.775715 399.800722 
L 398.256593 392.292558 
L 398.897763 378.34443 
L 400.019812 347.323124 
L 401.78303 297.75491 
L 402.744786 277.255029 
L 403.385957 267.517758 
L 404.027127 261.14942 
L 404.508005 258.546972 
L 404.82859 257.794772 
L 404.988883 257.698189 
L 405.149176 257.779895 
L 405.469761 258.451338 
L 405.790346 259.751764 
L 406.271224 262.744939 
L 406.912394 268.333938 
L 407.87415 279.050453 
L 411.080003 316.951725 
L 412.041758 325.43015 
L 413.003514 332.073099 
L 413.644685 335.571978 
L 413.96527 151.866305 
L 414.285855 92.734219 
L 414.446148 91.390108 
L 414.766733 114.002071 
L 415.407904 169.848631 
L 415.728489 184.873219 
L 416.049074 191.488185 
L 416.209367 192.572707 
L 416.369659 192.701396 
L 416.690245 191.47165 
L 417.01083 190.047211 
L 417.171122 189.732324 
L 417.331415 189.836374 
L 417.491708 190.425472 
L 417.812293 193.177358 
L 418.132878 198.03155 
L 418.453463 204.852502 
L 418.774049 293.923154 
L 419.094634 335.071835 
L 419.415219 346.746892 
L 419.575512 347.385493 
L 420.05639 346.051754 
L 420.216682 346.727108 
L 420.537268 350.484279 
L 421.819609 371.522486 
L 422.140194 373.871735 
L 422.460779 375.109835 
L 423.582827 377.905601 
L 424.865168 383.664863 
L 425.025461 383.37422 
L 425.185754 382.57217 
L 425.506339 379.142838 
L 425.826924 372.923969 
L 426.307802 357.974775 
L 426.948973 328.45657 
L 429.513655 194.633122 
L 429.994532 183.398517 
L 430.315118 179.771459 
L 430.47541 179.12225 
L 430.635703 179.237589 
L 430.795996 180.102051 
L 431.116581 183.993143 
L 431.597459 194.811035 
L 432.238629 217.022947 
L 433.200385 261.424476 
L 435.123896 354.288577 
L 435.92536 382.098471 
L 436.56653 396.669377 
L 437.047408 402.754289 
L 437.367993 404.511652 
L 437.528286 404.719981 
L 437.688578 404.495086 
L 438.009164 402.798231 
L 438.329749 399.543293 
L 438.810627 392.064137 
L 439.451797 378.145415 
L 440.573846 347.152979 
L 442.337065 297.591749 
L 443.29882 277.087843 
L 443.939991 267.348159 
L 444.581161 260.978789 
L 445.062039 258.376844 
L 445.382624 257.625666 
L 445.542917 257.529806 
L 445.70321 257.612378 
L 446.023795 258.285975 
L 446.34438 259.589103 
L 446.825258 262.58729 
L 447.466429 268.184529 
L 448.428184 278.915822 
L 451.634037 316.867888 
L 452.595793 325.357486 
L 453.557548 332.008968 
L 453.878134 148.841244 
L 454.198719 90.226734 
L 454.359011 89.139321 
L 454.679597 112.255995 
L 455.320767 169.013668 
L 455.641352 184.404136 
L 455.961938 191.304599 
L 456.12223 192.499643 
L 456.282523 192.717379 
L 456.442816 192.315635 
L 457.083986 189.907531 
L 457.244279 189.997557 
L 457.404571 190.561767 
L 457.725157 193.23879 
L 458.045742 197.995975 
L 458.366327 204.709113 
L 458.686912 293.685225 
L 459.007498 334.688834 
L 459.328083 346.188617 
L 459.488375 346.737993 
L 459.969253 345.174999 
L 460.129546 345.795415 
L 460.450131 349.482085 
L 461.732472 370.650465 
L 462.21335 373.84341 
L 462.694228 375.10032 
L 463.175106 376.159145 
L 463.655984 378.172606 
L 464.617739 383.088969 
L 464.778032 383.236223 
L 464.938325 382.956865 
L 465.098617 382.166579 
L 465.419203 378.762849 
L 465.739788 372.573069 
L 466.220666 357.674906 
L 466.861836 328.237849 
L 469.426518 194.782577 
L 469.907396 183.603552 
L 470.227981 180.0087 
L 470.388274 179.374038 
L 470.548567 179.502856 
L 470.708859 180.379716 
L 471.029444 184.292341 
L 471.510322 195.134427 
L 472.151493 217.364114 
L 473.113249 261.764955 
L 475.03676 354.561042 
L 475.838223 382.330859 
L 476.479394 396.869915 
L 476.960272 402.932414 
L 477.280857 404.675906 
L 477.441149 404.877676 
L 477.601442 404.646493 
L 477.922027 402.93792 
L 478.242613 399.672456 
L 478.72349 392.179808 
L 479.364661 378.247309 
L 480.486709 347.24098 
L 482.249928 297.675146 
L 483.211684 277.172196 
L 483.852854 267.433015 
L 484.494025 261.063529 
L 484.974903 258.460931 
L 485.295488 257.709015 
L 485.455781 257.612693 
L 485.616073 257.694741 
L 485.936659 258.367106 
L 486.257244 259.668765 
L 486.738122 262.664337 
L 487.379292 268.257428 
L 488.341048 278.981502 
L 491.5469 316.909478 
L 492.508656 325.393799 
L 493.470412 332.041208 
L 493.630705 332.981636 
L 493.95129 149.67103 
L 494.271875 90.917355 
L 494.432168 89.760462 
L 494.752753 112.74 
L 495.393923 169.249183 
L 495.714509 184.539514 
L 496.035094 191.361443 
L 496.195387 192.525866 
L 496.355679 192.718735 
L 496.676264 191.572408 
L 496.99685 190.177968 
L 497.157142 189.861204 
L 497.317435 189.954008 
L 497.477728 190.523927 
L 497.798313 193.219171 
L 498.118898 198.000658 
L 498.439483 204.741171 
L 498.760069 293.741575 
L 499.080654 334.783037 
L 499.401239 346.328711 
L 499.561532 346.90147 
L 500.04241 345.398615 
L 500.202702 346.033474 
L 500.523287 349.738773 
L 501.805628 370.87488 
L 502.286506 374.038621 
L 502.767384 375.269706 
L 503.248262 376.30886 
L 503.568847 377.513863 
L 504.851188 383.352133 
L 505.011481 383.070084 
L 505.171774 382.276955 
L 505.492359 378.866913 
L 505.812944 372.669795 
L 506.293822 357.758476 
L 506.934992 328.300073 
L 509.499674 194.74541 
L 509.980552 183.551162 
L 510.301138 179.947458 
L 510.46143 179.308789 
L 510.621723 179.433888 
L 510.782015 180.307321 
L 511.102601 184.213975 
L 511.583479 195.049307 
L 512.224649 217.273935 
L 513.186405 261.674676 
L 515.109916 354.488938 
L 515.911379 382.269602 
L 516.55255 396.817298 
L 517.033428 402.88588 
L 517.354013 404.633136 
L 517.514306 404.836686 
L 517.674598 404.607209 
L 517.995184 402.901812 
L 518.315769 399.639198 
L 518.796647 392.150195 
L 519.437817 378.221398 
L 520.559866 347.21873 
L 522.323084 297.653884 
L 523.28484 277.15051 
L 523.926011 267.411083 
L 524.567181 261.041526 
L 525.048059 258.439033 
L 525.368644 257.687273 
L 525.528937 257.591056 
L 525.68923 257.673226 
L 526.009815 258.345887 
L 526.3304 259.647911 
L 526.811278 262.644147 
L 527.452448 268.238315 
L 528.414204 278.964296 
L 531.620057 316.898744 
L 532.581812 325.384481 
L 533.543568 332.032973 
L 533.864153 333.869665 
L 534.184739 150.424168 
L 534.505324 91.540595 
L 534.665617 90.319543 
L 534.986202 113.173539 
L 535.627372 169.457661 
L 535.947958 184.65794 
L 536.268543 191.40963 
L 536.428835 192.546848 
L 536.589128 192.717778 
L 536.909713 191.54262 
L 537.230299 190.13724 
L 537.390591 189.820664 
L 537.550884 189.916802 
L 537.711176 190.492723 
L 538.031762 193.206139 
L 538.352347 198.011249 
L 538.672932 204.778058 
L 538.993517 293.801624 
L 539.314103 334.878746 
L 539.634688 346.46748 
L 539.794981 347.062139 
L 540.275858 345.615451 
L 540.436151 346.263724 
L 540.756736 349.986139 
L 542.039077 371.089225 
L 542.519955 374.22414 
L 543.000833 375.429519 
L 543.481711 376.4488 
L 543.802296 377.64381 
L 545.084637 383.456888 
L 545.24493 383.172103 
L 545.405222 382.376122 
L 545.725808 378.959866 
L 546.046393 372.755673 
L 546.527271 357.831904 
L 547.168441 328.353634 
L 549.733123 194.708338 
L 550.214001 183.50037 
L 550.534586 179.888715 
L 550.694879 179.246454 
L 550.855172 179.368225 
L 551.015464 180.238596 
L 551.33605 184.139934 
L 551.816927 194.969296 
L 552.458098 217.189551 
L 553.419854 261.590512 
L 555.343365 354.421761 
L 556.144828 382.21242 
L 556.785999 396.768058 
L 557.266877 402.842228 
L 557.587462 404.592942 
L 557.747755 404.798126 
L 557.908047 404.570216 
L 558.228632 402.86774 
L 558.549218 399.607748 
L 559.030096 392.122103 
L 559.671266 378.196729 
L 560.793314 347.197492 
L 562.556533 297.633707 
L 563.518289 277.130032 
L 564.15946 267.390436 
L 564.80063 261.020864 
L 565.281508 258.418501 
L 565.602093 257.666904 
L 565.762386 257.570791 
L 565.922678 257.653081 
L 566.243264 258.326029 
L 566.563849 259.628399 
L 567.044727 262.625259 
L 567.685897 268.220427 
L 568.647653 278.948164 
L 571.853506 316.888531 
L 572.815261 325.375571 
L 573.777017 332.025067 
L 574.257895 334.715324 
L 574.57848 151.139579 
L 574.899065 92.131476 
L 575.059358 90.849055 
L 575.379943 113.583021 
L 576.021114 169.651889 
L 576.341699 184.76611 
L 576.662284 191.450878 
L 576.822577 192.562295 
L 576.98287 192.71253 
L 577.303455 191.510571 
L 577.62404 190.095728 
L 577.784333 189.779899 
L 577.944625 189.879824 
L 578.104918 190.462106 
L 578.425503 193.194173 
L 578.746088 198.023132 
L 579.066674 204.816275 
L 579.387259 293.862848 
L 579.707844 334.975042 
L 580.028429 346.606059 
L 580.188722 347.222221 
L 580.6696 345.830693 
L 580.829893 346.492145 
L 581.150478 350.23137 
L 582.432819 371.301574 
L 582.753404 373.670351 
L 583.073989 374.92739 
L 584.196038 377.771273 
L 585.478379 383.55809 
L 585.638671 383.270471 
L 585.798964 382.471554 
L 586.119549 379.048969 
L 586.440134 372.837659 
L 586.921012 357.901529 
L 587.562183 328.403779 
L 590.126865 194.671099 
L 590.607743 183.450031 
L 590.928328 179.830798 
L 591.088621 179.18512 
L 591.248913 179.303726 
L 591.409206 180.171191 
L 591.729791 184.06749 
L 592.210669 194.891217 
L 592.851839 217.107388 
L 593.813595 261.508689 
L 595.737107 354.356317 
L 596.53857 382.156549 
L 597.17974 396.719784 
L 597.660618 402.799297 
L 597.981203 404.553318 
L 598.141496 404.760066 
L 598.301789 404.533655 
L 598.622374 402.833973 
L 598.942959 399.576491 
L 599.423837 392.094068 
L 600.065008 378.17199 
L 601.187056 347.176099 
L 602.950275 297.613491 
L 603.912031 277.109635 
L 604.553201 267.369948 
L 605.194372 261.000429 
L 605.675249 258.398239 
L 605.995835 257.646827 
L 606.156127 257.550829 
L 606.31642 257.633248 
L 606.637005 258.306497 
L 606.95759 259.609223 
L 607.438468 262.606714 
L 608.079639 268.202875 
L 609.041395 278.932334 
L 612.247247 316.878428 
L 613.209003 325.366726 
L 613.529588 143.124048 
L 613.850173 85.437043 
L 614.010466 84.81582 
L 614.331051 108.852674 
L 614.972222 167.273216 
L 615.292807 183.335795 
L 615.613392 190.769104 
L 615.773685 192.175279 
L 615.933977 192.567455 
L 616.09427 192.30461 
L 616.735441 190.140768 
L 616.895733 190.228373 
L 617.056026 190.771083 
L 617.376611 193.360205 
L 617.697196 197.98825 
L 618.017782 204.549764 
L 618.338367 293.386273 
L 618.658952 334.162192 
L 618.979537 345.383598 
L 619.13983 345.791003 
L 619.620708 343.863456 
L 619.781 344.396614 
L 620.101586 347.971173 
L 621.544219 370.76826 
L 621.864805 372.693684 
L 622.345682 374.096268 
L 622.82656 375.261011 
L 623.307438 377.343116 
L 624.269194 382.337273 
L 624.429487 382.496177 
L 624.589779 382.229344 
L 624.750072 381.452812 
L 625.070657 378.081386 
L 625.391242 371.931593 
L 625.87212 357.109337 
L 626.513291 327.801886 
L 629.077973 194.989435 
L 629.558851 183.91216 
L 629.879436 180.376882 
L 630.039728 179.769308 
L 630.200021 179.923347 
L 630.360314 180.823525 
L 630.680899 184.776994 
L 631.161777 195.665828 
L 631.802947 217.931576 
L 632.764703 262.336103 
L 634.688215 355.013838 
L 635.489678 382.711373 
L 636.130848 397.192614 
L 636.611726 403.214338 
L 636.932311 404.932593 
L 637.092604 405.122438 
L 637.252897 404.879832 
L 637.573482 403.150004 
L 637.894067 399.865514 
L 638.374945 392.348645 
L 639.016115 378.391824 
L 640.138164 347.362483 
L 641.901383 297.794004 
L 642.863138 277.296562 
L 643.504309 267.560841 
L 644.145479 261.193604 
L 644.626357 258.591558 
L 644.946943 257.839395 
L 645.107235 257.742759 
L 645.267528 257.824363 
L 645.588113 258.495457 
L 645.908698 259.795345 
L 646.389576 262.787376 
L 647.030747 268.374296 
L 647.992502 279.086792 
L 651.198355 316.973302 
L 652.160111 325.448459 
L 653.121866 332.088976 
L 653.92333 336.357945 
L 654.243915 152.52987 
L 654.5645 93.282087 
L 654.724793 91.880878 
L 655.045378 114.380607 
L 655.686548 170.024077 
L 656.007134 184.967173 
L 656.327719 191.518975 
L 656.488012 192.579314 
L 656.648304 192.688765 
L 656.968889 191.434697 
L 657.289475 190.002754 
L 657.449767 189.689418 
L 657.61006 189.797955 
L 657.770353 190.394017 
L 658.090938 193.165501 
L 658.411523 198.044204 
L 658.732108 204.891928 
L 659.052694 293.985599 
L 659.373279 335.16881 
L 659.693864 346.885435 
L 659.854157 347.545193 
L 660.335035 346.265841 
L 660.495327 346.954232 
L 660.815912 350.728103 
L 662.098253 371.734094 
L 662.418839 374.064185 
L 662.739424 375.28364 
L 663.70118 377.382544 
L 664.182058 379.68952 
L 664.823228 383.1591 
L 665.143813 383.762441 
L 665.304106 383.468762 
L 665.464399 382.663595 
L 665.784984 379.227642 
L 666.105569 373.001469 
L 666.586447 358.039844 
L 667.227617 328.502461 
L 669.792299 194.595573 
L 670.273177 183.348673 
L 670.593763 179.714529 
L 670.754055 179.062131 
L 670.914348 179.174522 
L 671.07464 180.03628 
L 671.395226 183.922697 
L 671.876104 194.735389 
L 672.517274 216.943585 
L 673.47903 261.345565 
L 675.402541 354.225069 
L 676.204004 382.04389 
L 676.845175 396.621869 
L 677.326053 402.711755 
L 677.646638 404.472198 
L 677.806931 404.681984 
L 677.967223 404.458486 
L 678.287809 402.76424 
L 678.608394 399.511649 
L 679.089272 392.035515 
L 679.730442 378.119911 
L 680.852491 347.13073 
L 682.615709 297.570937 
L 683.577465 277.067084 
L 684.218636 267.327465 
L 684.859806 260.958292 
L 685.340684 258.356612 
L 685.661269 257.605672 
L 685.821562 257.509951 
L 685.981855 257.592674 
L 686.30244 258.266611 
L 686.623025 259.570127 
L 687.103903 262.568978 
L 687.745073 268.167231 
L 688.706829 278.900232 
L 691.912682 316.85781 
L 692.874437 325.348613 
L 693.836193 332.001039 
L 694.156778 333.838812 
L 694.477364 150.395907 
L 694.797949 91.515214 
L 694.958242 90.296004 
L 695.278827 113.154409 
L 695.919997 169.448396 
L 696.240583 184.653082 
L 696.561168 191.408366 
L 696.72146 192.547029 
L 696.881753 192.719166 
L 697.202338 191.545729 
L 697.522924 190.141249 
L 697.683216 189.824863 
L 697.843509 189.921047 
L 698.003801 190.496889 
L 698.324387 193.20986 
L 698.644972 198.014254 
L 698.965557 204.78019 
L 699.286142 293.803009 
L 699.606728 334.878924 
L 699.927313 346.466133 
L 700.087606 347.059989 
L 700.568483 345.611113 
L 700.728776 346.258807 
L 701.049361 349.980349 
L 702.331702 371.082947 
L 702.81258 374.218163 
L 703.293458 375.423779 
L 703.774336 376.443183 
L 704.094921 377.638224 
L 705.377262 383.451432 
L 705.537555 383.166702 
L 705.697847 382.370788 
L 706.018433 378.954712 
L 706.339018 372.750758 
L 706.819896 357.827462 
L 707.461066 328.350003 
L 710.025748 194.708669 
L 710.506626 183.50133 
L 710.827211 179.890047 
L 710.987504 179.247956 
L 711.147797 179.369887 
L 711.308089 180.240407 
L 711.628675 184.142011 
L 712.109552 194.971689 
L 712.750723 217.192219 
L 713.712479 261.593315 
L 715.63599 354.42414 
L 716.437453 382.214492 
L 717.078624 396.769878 
L 717.559502 402.843869 
L 717.880087 404.594472 
L 718.04038 404.799604 
L 718.200672 404.571643 
L 718.521257 402.869073 
L 718.841843 399.608996 
L 719.322721 392.123242 
L 719.963891 378.197758 
L 721.085939 347.198409 
L 722.849158 297.634578 
L 723.810914 277.130899 
L 724.452085 267.391296 
L 725.093255 261.021708 
L 725.574133 258.419329 
L 725.894718 257.667717 
L 726.055011 257.571596 
L 726.215303 257.653877 
L 726.535889 258.326806 
L 726.856474 259.629155 
L 727.337352 262.62598 
L 727.978522 268.221094 
L 728.940278 278.948745 
L 732.146131 316.888852 
L 733.107886 325.37584 
L 734.069642 332.025299 
L 734.390227 148.856197 
L 734.710813 90.240136 
L 734.871105 89.151729 
L 735.19169 112.266029 
L 735.832861 169.018406 
L 736.153446 184.406514 
L 736.474031 191.305057 
L 736.634324 192.49933 
L 736.794617 192.716424 
L 736.954909 192.314165 
L 737.59608 189.905092 
L 737.756372 189.995098 
L 737.916665 190.559353 
L 738.23725 193.236621 
L 738.557836 197.994196 
L 738.878421 204.707805 
L 739.199006 293.684323 
L 739.519591 334.688588 
L 739.840177 346.189202 
L 740.000469 346.739015 
L 740.481347 345.177215 
L 740.64164 345.797949 
L 740.962225 349.485101 
L 742.244566 370.6538 
L 742.725444 373.846605 
L 743.206322 375.103409 
L 743.6872 376.162187 
L 744.168077 378.175644 
L 745.129833 383.091988 
L 745.290126 383.239222 
L 745.450418 382.959837 
L 745.610711 382.169517 
L 745.931296 378.765693 
L 746.251882 372.575786 
L 746.732759 357.677369 
L 747.37393 328.239871 
L 749.938612 194.782429 
L 750.41949 183.603059 
L 750.740075 180.008002 
L 750.900368 179.373246 
L 751.06066 179.501976 
L 751.220953 180.378755 
L 751.541538 184.291233 
L 752.022416 195.133145 
L 752.663587 217.362681 
L 753.625342 261.763448 
L 755.548854 354.559768 
L 756.350317 382.329754 
L 756.991487 396.868948 
L 757.472365 402.931545 
L 757.792951 404.675098 
L 757.953243 404.876897 
L 758.113536 404.645741 
L 758.434121 402.93722 
L 758.754706 399.671802 
L 759.235584 392.179213 
L 759.876755 378.246773 
L 760.998803 347.240502 
L 762.762022 297.674688 
L 763.723778 277.171738 
L 764.364948 267.432559 
L 765.006119 261.063079 
L 765.486997 258.46049 
L 765.807582 257.708581 
L 765.967874 257.612263 
L 766.128167 257.694315 
L 766.448752 258.36669 
L 766.769338 259.668361 
L 767.250215 262.663952 
L 767.891386 268.257071 
L 768.853142 278.981192 
L 772.058994 316.90931 
L 773.02075 325.393659 
L 773.822213 331.054776 
L 774.142798 148.028871 
L 774.463384 89.552808 
L 774.623676 88.533855 
L 774.944261 111.784159 
L 775.585432 168.780174 
L 775.906017 184.265947 
L 776.226602 191.241138 
L 776.386895 192.46538 
L 776.547188 192.706893 
L 776.70748 192.323676 
L 777.348651 189.943771 
L 777.508943 190.031528 
L 777.669236 190.590692 
L 777.989821 193.251161 
L 778.310407 197.985994 
L 778.630992 204.673811 
L 778.951577 293.627187 
L 779.272162 334.595037 
L 779.592748 346.051504 
L 779.75304 346.578857 
L 780.233918 344.959492 
L 780.394211 345.566494 
L 780.714796 349.236132 
L 781.997137 370.437945 
L 782.478015 373.659474 
L 782.958893 374.941543 
L 783.439771 376.019433 
L 783.920648 378.046081 
L 784.882404 382.978767 
L 785.042697 383.128388 
L 785.202989 382.851485 
L 785.363282 382.063793 
L 785.683867 378.665837 
L 786.004453 372.482808 
L 786.48533 357.596843 
L 787.126501 328.179752 
L 789.691183 194.818705 
L 790.172061 183.654207 
L 790.492646 180.067806 
L 790.652939 179.436971 
L 790.813231 179.569341 
L 790.973524 180.449474 
L 791.294109 184.367798 
L 791.774987 195.216324 
L 792.416158 217.450803 
L 793.377913 261.851612 
L 795.301425 354.629852 
L 796.102888 382.389054 
L 796.744058 396.919658 
L 797.224936 402.976206 
L 797.545522 404.716015 
L 797.705814 404.916045 
L 797.866107 404.683195 
L 798.186692 402.971516 
L 798.507277 399.703268 
L 798.988155 392.207064 
L 799.629326 378.270964 
L 800.751374 347.261119 
L 802.514593 297.694506 
L 803.476349 277.192111 
L 804.117519 267.453271 
L 804.75869 261.083959 
L 805.239568 258.481335 
L 805.560153 257.729318 
L 805.720445 257.632919 
L 805.880738 257.714873 
L 806.201323 258.386997 
L 806.521909 259.688349 
L 807.002786 262.683339 
L 807.643957 268.275461 
L 808.605713 278.997778 
L 811.811565 316.91964 
L 812.773321 325.402608 
L 813.414491 330.029481 
L 813.735077 147.151623 
L 814.055662 88.821642 
L 814.215955 87.875521 
L 814.53654 111.268883 
L 815.17771 168.522027 
L 815.498296 184.111198 
L 815.818881 191.167855 
L 815.979173 192.424116 
L 816.139466 192.691863 
L 816.299759 192.329277 
L 816.940929 189.982868 
L 817.101222 190.06903 
L 817.261514 190.623621 
L 817.5821 193.267977 
L 817.902685 197.980384 
L 818.22327 204.642458 
L 818.543855 293.572517 
L 818.864441 334.503202 
L 819.185026 345.914479 
L 819.345319 346.418821 
L 819.826196 344.740444 
L 819.986489 345.333349 
L 820.307074 348.984958 
L 821.589415 370.219582 
L 822.070293 373.46978 
L 822.551171 374.776856 
L 823.032049 375.873404 
L 823.512927 377.912656 
L 824.474683 382.860521 
L 824.634975 383.012379 
L 824.795268 382.737825 
L 824.95556 381.952652 
L 825.276146 378.560418 
L 825.596731 372.384226 
L 826.077609 357.510852 
L 826.718779 328.114712 
L 829.283461 194.854494 
L 829.764339 183.705708 
L 830.084924 180.128473 
L 830.245217 179.501795 
L 830.40551 179.63803 
L 830.565802 180.52173 
L 830.886388 184.446281 
L 831.367265 195.301885 
L 832.008436 217.541723 
L 832.970192 261.942784 
L 834.893703 354.70225 
L 835.695166 382.450152 
L 836.336337 396.97174 
L 836.817215 403.021936 
L 837.1378 404.757814 
L 837.298093 404.955986 
L 837.458385 404.721356 
L 837.77897 403.006364 
L 838.099556 399.735147 
L 838.580434 392.235156 
L 839.221604 378.295234 
L 840.343652 347.281702 
L 842.106871 297.714418 
L 843.068627 277.212713 
L 843.709798 267.4743 
L 844.350968 261.105232 
L 844.831846 258.50262 
L 845.152431 257.750518 
L 845.312724 257.654049 
L 845.473016 257.735912 
L 845.793602 258.407799 
L 846.114187 259.708837 
L 846.595065 262.703228 
L 847.236235 268.294336 
L 848.197991 279.014794 
L 851.403844 316.930129 
L 852.365599 325.411656 
L 853.327355 332.056935 
L 854.289111 337.062562 
L 854.609696 338.423371 
L 854.930281 154.263876 
L 855.250867 94.707025 
L 855.411159 93.154433 
L 855.731744 115.357804 
L 856.372915 170.466547 
L 856.6935 185.1957 
L 857.014085 191.582692 
L 857.174378 192.580542 
L 857.334671 192.640847 
L 857.655256 191.326717 
L 857.975841 189.880136 
L 858.136134 189.573785 
L 858.296426 189.6972 
L 858.456719 190.314781 
L 858.777304 193.144404 
L 859.258182 201.321229 
L 859.418475 205.018469 
L 859.73906 294.177104 
L 860.059645 335.456249 
L 860.380231 347.288045 
L 860.540523 348.0064 
L 861.021401 346.877585 
L 861.181694 347.601976 
L 861.502279 351.421689 
L 862.78462 372.332617 
L 863.105205 374.607184 
L 863.42579 375.772303 
L 864.387546 377.74357 
L 864.868424 380.008653 
L 865.509595 383.436244 
L 865.83018 384.021081 
L 865.990472 383.718195 
L 866.150765 382.903679 
L 866.47135 379.448213 
L 866.791936 373.200992 
L 867.272813 358.204367 
L 867.913984 328.61425 
L 870.478666 194.485611 
L 870.959544 183.206711 
L 871.280129 179.554218 
L 871.440422 178.89359 
L 871.600714 178.998392 
L 871.761007 179.853207 
L 872.081592 183.727678 
L 872.56247 194.527223 
L 873.203641 216.726316 
L 874.165396 261.130317 
L 876.088908 354.0512 
L 876.890371 381.893609 
L 877.531541 396.490234 
L 878.012419 402.593225 
L 878.333005 404.361786 
L 878.493297 404.575414 
L 878.65359 404.355605 
L 878.974175 402.668249 
L 879.29476 399.421874 
L 879.775638 391.953774 
L 880.416809 378.046531 
L 881.538857 347.066328 
L 883.302076 297.51125 
L 884.263832 277.008113 
L 884.905002 267.269045 
L 885.546173 260.900745 
L 886.027051 258.300009 
L 886.347636 257.549851 
L 886.507928 257.454567 
L 886.668221 257.537758 
L 886.988806 258.212721 
L 887.309392 259.517378 
L 887.790269 262.518136 
L 888.43144 268.119234 
L 889.393196 278.856921 
L 892.599048 316.829289 
L 893.560804 325.323332 
L 894.362267 330.990899 
L 894.682852 147.970348 
L 895.003438 89.500382 
L 895.16373 88.485333 
L 895.484315 111.744963 
L 896.125486 168.761736 
L 896.446071 184.256747 
L 896.766656 191.239456 
L 896.926949 192.466717 
L 897.087242 192.710746 
L 897.247534 192.329555 
L 897.888705 189.953466 
L 898.048997 190.041312 
L 898.20929 190.600308 
L 898.529875 193.259837 
L 898.850461 197.993167 
L 899.171046 204.679158 
L 899.491631 293.630961 
L 899.812216 334.596248 
L 900.132802 346.049467 
L 900.293094 346.575107 
L 900.773972 344.951061 
L 900.934265 345.556814 
L 901.25485 349.224555 
L 902.537191 370.425046 
L 903.018069 373.647086 
L 903.498947 374.929532 
L 903.979825 376.007569 
L 904.460702 378.034196 
L 905.422458 382.966901 
L 905.582751 383.116591 
L 905.743043 382.839784 
L 905.903336 382.05222 
L 906.223921 378.654618 
L 906.544507 372.472079 
L 907.025384 357.587098 
L 907.666555 328.171727 
L 910.231237 194.819221 
L 910.712115 183.656088 
L 911.0327 180.070494 
L 911.192993 179.440029 
L 911.353285 179.572747 
L 911.513578 180.453204 
L 911.834163 184.372106 
L 912.315041 195.221321 
L 912.956212 217.4564 
L 913.917967 261.857504 
L 915.841479 354.634822 
L 916.642942 382.393355 
L 917.284112 396.923414 
L 917.76499 402.979574 
L 918.085576 404.719143 
L 918.245868 404.919059 
L 918.406161 404.6861 
L 918.726746 402.974219 
L 919.047331 399.705789 
L 919.528209 392.209354 
L 920.16938 378.273022 
L 921.291428 347.26295 
L 923.054647 297.69627 
L 924.016403 277.193882 
L 924.657573 267.455037 
L 925.298744 261.085702 
L 925.779622 258.483048 
L 926.100207 257.731004 
L 926.260499 257.63459 
L 926.420792 257.716526 
L 926.741377 258.388612 
L 927.061963 259.689921 
L 927.54284 262.684838 
L 928.184011 268.27685 
L 929.145767 278.998984 
L 932.351619 316.920288 
L 933.313375 325.403146 
L 933.794253 328.948257 
L 933.954545 218.589996 
L 933.954545 218.589996 
" clip-path="url(#p8456de128f)" style="fill: none; stroke: #1f77b4; stroke-width: 1.5; stroke-linecap: square"/>
   </g>
   <g id="line2d_15">
    <path d="M 173.045455 147.19318 
L 177.693941 147.19318 
L 177.854233 388.774882 
L 213.278903 388.774882 
L 213.439196 147.19318 
L 218.087682 147.19318 
L 218.247975 388.774882 
L 253.99323 388.774882 
L 254.153523 147.19318 
L 258.802009 147.19318 
L 258.962302 388.774882 
L 293.585509 388.774882 
L 293.745801 147.19318 
L 298.394287 147.19318 
L 298.55458 388.774882 
L 333.818957 388.774882 
L 333.97925 147.19318 
L 338.627736 147.19318 
L 338.788029 388.774882 
L 373.090651 388.774882 
L 373.250943 147.19318 
L 377.899429 147.19318 
L 378.059722 388.774882 
L 413.644685 388.774882 
L 413.804977 147.19318 
L 418.453463 147.19318 
L 418.613756 388.774882 
L 453.557548 388.774882 
L 453.717841 147.19318 
L 458.366327 147.19318 
L 458.52662 388.774882 
L 493.630705 388.774882 
L 493.790997 147.19318 
L 498.439483 147.19318 
L 498.599776 388.774882 
L 533.864153 388.774882 
L 534.024446 147.19318 
L 538.672932 147.19318 
L 538.833225 388.774882 
L 574.257895 388.774882 
L 574.418188 147.19318 
L 579.066674 147.19318 
L 579.226966 388.774882 
L 613.209003 388.774882 
L 613.369295 147.19318 
L 618.017782 147.19318 
L 618.178074 388.774882 
L 653.92333 388.774882 
L 654.083622 147.19318 
L 658.732108 147.19318 
L 658.892401 388.774882 
L 694.156778 388.774882 
L 694.317071 147.19318 
L 698.965557 147.19318 
L 699.12585 388.774882 
L 734.069642 388.774882 
L 734.229935 147.19318 
L 738.878421 147.19318 
L 739.038713 388.774882 
L 773.822213 388.774882 
L 773.982506 147.19318 
L 778.630992 147.19318 
L 778.791284 388.774882 
L 813.414491 388.774882 
L 813.574784 147.19318 
L 818.22327 147.19318 
L 818.383563 388.774882 
L 854.609696 388.774882 
L 854.769989 147.19318 
L 859.418475 147.19318 
L 859.578767 388.774882 
L 894.362267 388.774882 
L 894.52256 147.19318 
L 899.171046 147.19318 
L 899.331338 388.774882 
L 933.794253 388.774882 
L 933.954545 147.19318 
L 933.954545 147.19318 
" clip-path="url(#p8456de128f)" style="fill: none; stroke: #ff7f0e; stroke-width: 1.5; stroke-linecap: square"/>
   </g>
   <g id="line2d_16">
    <path d="M 929.466352 388.774882 
" clip-path="url(#p8456de128f)" style="fill: none; stroke: #000000; stroke-width: 1.5; stroke-linecap: square"/>
    <defs>
     <path id="ma97be2fd1b" d="M 0 1 
C 0.265203 1 0.51958 0.894634 0.707107 0.707107 
C 0.894634 0.51958 1 0.265203 1 0 
C 1 -0.265203 0.894634 -0.51958 0.707107 -0.707107 
C 0.51958 -0.894634 0.265203 -1 0 -1 
C -0.265203 -1 -0.51958 -0.894634 -0.707107 -0.707107 
C -0.894634 -0.51958 -1 -0.265203 -1 0 
C -1 0.265203 -0.894634 0.51958 -0.707107 0.707107 
C -0.51958 0.894634 -0.265203 1 0 1 
z
" style="stroke: #000000"/>
    </defs>
    <g clip-path="url(#p8456de128f)">
     <use xlink:href="#ma97be2fd1b" x="173.045455" y="147.19318" style="stroke: #000000"/>
     <use xlink:href="#ma97be2fd1b" x="178.174819" y="388.774882" style="stroke: #000000"/>
     <use xlink:href="#ma97be2fd1b" x="183.14389" y="388.774882" style="stroke: #000000"/>
     <use xlink:href="#ma97be2fd1b" x="188.112961" y="147.19318" style="stroke: #000000"/>
     <use xlink:href="#ma97be2fd1b" x="193.082033" y="388.774882" style="stroke: #000000"/>
     <use xlink:href="#ma97be2fd1b" x="198.211397" y="388.774882" style="stroke: #000000"/>
     <use xlink:href="#ma97be2fd1b" x="203.180468" y="147.19318" style="stroke: #000000"/>
     <use xlink:href="#ma97be2fd1b" x="208.149539" y="388.774882" style="stroke: #000000"/>
     <use xlink:href="#ma97be2fd1b" x="213.118611" y="147.19318" style="stroke: #000000"/>
     <use xlink:href="#ma97be2fd1b" x="218.247975" y="388.774882" style="stroke: #000000"/>
     <use xlink:href="#ma97be2fd1b" x="223.217046" y="388.774882" style="stroke: #000000"/>
     <use xlink:href="#ma97be2fd1b" x="228.186118" y="147.19318" style="stroke: #000000"/>
     <use xlink:href="#ma97be2fd1b" x="233.155189" y="388.774882" style="stroke: #000000"/>
     <use xlink:href="#ma97be2fd1b" x="238.284553" y="388.774882" style="stroke: #000000"/>
     <use xlink:href="#ma97be2fd1b" x="243.253624" y="147.19318" style="stroke: #000000"/>
     <use xlink:href="#ma97be2fd1b" x="248.222696" y="388.774882" style="stroke: #000000"/>
     <use xlink:href="#ma97be2fd1b" x="253.191767" y="147.19318" style="stroke: #000000"/>
     <use xlink:href="#ma97be2fd1b" x="258.321131" y="388.774882" style="stroke: #000000"/>
     <use xlink:href="#ma97be2fd1b" x="263.290202" y="388.774882" style="stroke: #000000"/>
     <use xlink:href="#ma97be2fd1b" x="268.259274" y="147.19318" style="stroke: #000000"/>
     <use xlink:href="#ma97be2fd1b" x="273.228345" y="388.774882" style="stroke: #000000"/>
     <use xlink:href="#ma97be2fd1b" x="278.357709" y="388.774882" style="stroke: #000000"/>
     <use xlink:href="#ma97be2fd1b" x="283.326781" y="147.19318" style="stroke: #000000"/>
     <use xlink:href="#ma97be2fd1b" x="288.295852" y="388.774882" style="stroke: #000000"/>
     <use xlink:href="#ma97be2fd1b" x="293.264923" y="147.19318" style="stroke: #000000"/>
     <use xlink:href="#ma97be2fd1b" x="298.394287" y="388.774882" style="stroke: #000000"/>
     <use xlink:href="#ma97be2fd1b" x="303.363359" y="388.774882" style="stroke: #000000"/>
     <use xlink:href="#ma97be2fd1b" x="308.33243" y="147.19318" style="stroke: #000000"/>
     <use xlink:href="#ma97be2fd1b" x="313.301501" y="388.774882" style="stroke: #000000"/>
     <use xlink:href="#ma97be2fd1b" x="318.430865" y="388.774882" style="stroke: #000000"/>
     <use xlink:href="#ma97be2fd1b" x="323.399937" y="147.19318" style="stroke: #000000"/>
     <use xlink:href="#ma97be2fd1b" x="328.369008" y="388.774882" style="stroke: #000000"/>
     <use xlink:href="#ma97be2fd1b" x="333.33808" y="147.19318" style="stroke: #000000"/>
     <use xlink:href="#ma97be2fd1b" x="338.467444" y="388.774882" style="stroke: #000000"/>
     <use xlink:href="#ma97be2fd1b" x="343.436515" y="388.774882" style="stroke: #000000"/>
     <use xlink:href="#ma97be2fd1b" x="348.405586" y="147.19318" style="stroke: #000000"/>
     <use xlink:href="#ma97be2fd1b" x="353.374658" y="388.774882" style="stroke: #000000"/>
     <use xlink:href="#ma97be2fd1b" x="358.504022" y="388.774882" style="stroke: #000000"/>
     <use xlink:href="#ma97be2fd1b" x="363.473093" y="147.19318" style="stroke: #000000"/>
     <use xlink:href="#ma97be2fd1b" x="368.442164" y="388.774882" style="stroke: #000000"/>
     <use xlink:href="#ma97be2fd1b" x="373.411236" y="147.19318" style="stroke: #000000"/>
     <use xlink:href="#ma97be2fd1b" x="378.5406" y="388.774882" style="stroke: #000000"/>
     <use xlink:href="#ma97be2fd1b" x="383.509671" y="388.774882" style="stroke: #000000"/>
     <use xlink:href="#ma97be2fd1b" x="388.478743" y="147.19318" style="stroke: #000000"/>
     <use xlink:href="#ma97be2fd1b" x="393.447814" y="388.774882" style="stroke: #000000"/>
     <use xlink:href="#ma97be2fd1b" x="398.577178" y="388.774882" style="stroke: #000000"/>
     <use xlink:href="#ma97be2fd1b" x="403.546249" y="147.19318" style="stroke: #000000"/>
     <use xlink:href="#ma97be2fd1b" x="408.515321" y="388.774882" style="stroke: #000000"/>
     <use xlink:href="#ma97be2fd1b" x="413.484392" y="147.19318" style="stroke: #000000"/>
     <use xlink:href="#ma97be2fd1b" x="418.613756" y="388.774882" style="stroke: #000000"/>
     <use xlink:href="#ma97be2fd1b" x="423.582827" y="388.774882" style="stroke: #000000"/>
     <use xlink:href="#ma97be2fd1b" x="428.551899" y="147.19318" style="stroke: #000000"/>
     <use xlink:href="#ma97be2fd1b" x="433.52097" y="388.774882" style="stroke: #000000"/>
     <use xlink:href="#ma97be2fd1b" x="438.650334" y="388.774882" style="stroke: #000000"/>
     <use xlink:href="#ma97be2fd1b" x="443.619406" y="147.19318" style="stroke: #000000"/>
     <use xlink:href="#ma97be2fd1b" x="448.588477" y="388.774882" style="stroke: #000000"/>
     <use xlink:href="#ma97be2fd1b" x="453.557548" y="147.19318" style="stroke: #000000"/>
     <use xlink:href="#ma97be2fd1b" x="458.686912" y="388.774882" style="stroke: #000000"/>
     <use xlink:href="#ma97be2fd1b" x="463.655984" y="388.774882" style="stroke: #000000"/>
     <use xlink:href="#ma97be2fd1b" x="468.625055" y="147.19318" style="stroke: #000000"/>
     <use xlink:href="#ma97be2fd1b" x="473.594126" y="388.774882" style="stroke: #000000"/>
     <use xlink:href="#ma97be2fd1b" x="478.72349" y="388.774882" style="stroke: #000000"/>
     <use xlink:href="#ma97be2fd1b" x="483.692562" y="147.19318" style="stroke: #000000"/>
     <use xlink:href="#ma97be2fd1b" x="488.661633" y="388.774882" style="stroke: #000000"/>
     <use xlink:href="#ma97be2fd1b" x="493.630705" y="147.19318" style="stroke: #000000"/>
     <use xlink:href="#ma97be2fd1b" x="498.760069" y="388.774882" style="stroke: #000000"/>
     <use xlink:href="#ma97be2fd1b" x="503.72914" y="388.774882" style="stroke: #000000"/>
     <use xlink:href="#ma97be2fd1b" x="508.698211" y="147.19318" style="stroke: #000000"/>
     <use xlink:href="#ma97be2fd1b" x="513.667283" y="388.774882" style="stroke: #000000"/>
     <use xlink:href="#ma97be2fd1b" x="518.796647" y="388.774882" style="stroke: #000000"/>
     <use xlink:href="#ma97be2fd1b" x="523.765718" y="147.19318" style="stroke: #000000"/>
     <use xlink:href="#ma97be2fd1b" x="528.734789" y="388.774882" style="stroke: #000000"/>
     <use xlink:href="#ma97be2fd1b" x="533.703861" y="147.19318" style="stroke: #000000"/>
     <use xlink:href="#ma97be2fd1b" x="538.833225" y="388.774882" style="stroke: #000000"/>
     <use xlink:href="#ma97be2fd1b" x="543.802296" y="388.774882" style="stroke: #000000"/>
     <use xlink:href="#ma97be2fd1b" x="548.771368" y="147.19318" style="stroke: #000000"/>
     <use xlink:href="#ma97be2fd1b" x="553.740439" y="388.774882" style="stroke: #000000"/>
     <use xlink:href="#ma97be2fd1b" x="558.869803" y="388.774882" style="stroke: #000000"/>
     <use xlink:href="#ma97be2fd1b" x="563.838874" y="147.19318" style="stroke: #000000"/>
     <use xlink:href="#ma97be2fd1b" x="568.807946" y="388.774882" style="stroke: #000000"/>
     <use xlink:href="#ma97be2fd1b" x="573.777017" y="147.19318" style="stroke: #000000"/>
     <use xlink:href="#ma97be2fd1b" x="578.906381" y="388.774882" style="stroke: #000000"/>
     <use xlink:href="#ma97be2fd1b" x="583.875452" y="388.774882" style="stroke: #000000"/>
     <use xlink:href="#ma97be2fd1b" x="588.844524" y="147.19318" style="stroke: #000000"/>
     <use xlink:href="#ma97be2fd1b" x="593.813595" y="388.774882" style="stroke: #000000"/>
     <use xlink:href="#ma97be2fd1b" x="598.942959" y="388.774882" style="stroke: #000000"/>
     <use xlink:href="#ma97be2fd1b" x="603.912031" y="147.19318" style="stroke: #000000"/>
     <use xlink:href="#ma97be2fd1b" x="608.881102" y="388.774882" style="stroke: #000000"/>
     <use xlink:href="#ma97be2fd1b" x="613.850173" y="147.19318" style="stroke: #000000"/>
     <use xlink:href="#ma97be2fd1b" x="618.979537" y="388.774882" style="stroke: #000000"/>
     <use xlink:href="#ma97be2fd1b" x="623.948609" y="388.774882" style="stroke: #000000"/>
     <use xlink:href="#ma97be2fd1b" x="628.91768" y="147.19318" style="stroke: #000000"/>
     <use xlink:href="#ma97be2fd1b" x="633.886751" y="388.774882" style="stroke: #000000"/>
     <use xlink:href="#ma97be2fd1b" x="639.016115" y="388.774882" style="stroke: #000000"/>
     <use xlink:href="#ma97be2fd1b" x="643.985187" y="147.19318" style="stroke: #000000"/>
     <use xlink:href="#ma97be2fd1b" x="648.954258" y="388.774882" style="stroke: #000000"/>
     <use xlink:href="#ma97be2fd1b" x="653.92333" y="147.19318" style="stroke: #000000"/>
     <use xlink:href="#ma97be2fd1b" x="659.052694" y="388.774882" style="stroke: #000000"/>
     <use xlink:href="#ma97be2fd1b" x="664.021765" y="388.774882" style="stroke: #000000"/>
     <use xlink:href="#ma97be2fd1b" x="668.990836" y="147.19318" style="stroke: #000000"/>
     <use xlink:href="#ma97be2fd1b" x="673.959908" y="388.774882" style="stroke: #000000"/>
     <use xlink:href="#ma97be2fd1b" x="679.089272" y="388.774882" style="stroke: #000000"/>
     <use xlink:href="#ma97be2fd1b" x="684.058343" y="147.19318" style="stroke: #000000"/>
     <use xlink:href="#ma97be2fd1b" x="689.027414" y="388.774882" style="stroke: #000000"/>
     <use xlink:href="#ma97be2fd1b" x="693.996486" y="147.19318" style="stroke: #000000"/>
     <use xlink:href="#ma97be2fd1b" x="699.12585" y="388.774882" style="stroke: #000000"/>
     <use xlink:href="#ma97be2fd1b" x="704.094921" y="388.774882" style="stroke: #000000"/>
     <use xlink:href="#ma97be2fd1b" x="709.063993" y="147.19318" style="stroke: #000000"/>
     <use xlink:href="#ma97be2fd1b" x="714.033064" y="388.774882" style="stroke: #000000"/>
     <use xlink:href="#ma97be2fd1b" x="719.162428" y="388.774882" style="stroke: #000000"/>
     <use xlink:href="#ma97be2fd1b" x="724.131499" y="147.19318" style="stroke: #000000"/>
     <use xlink:href="#ma97be2fd1b" x="729.100571" y="388.774882" style="stroke: #000000"/>
     <use xlink:href="#ma97be2fd1b" x="734.069642" y="147.19318" style="stroke: #000000"/>
     <use xlink:href="#ma97be2fd1b" x="739.199006" y="388.774882" style="stroke: #000000"/>
     <use xlink:href="#ma97be2fd1b" x="744.168077" y="388.774882" style="stroke: #000000"/>
     <use xlink:href="#ma97be2fd1b" x="749.137149" y="147.19318" style="stroke: #000000"/>
     <use xlink:href="#ma97be2fd1b" x="754.10622" y="388.774882" style="stroke: #000000"/>
     <use xlink:href="#ma97be2fd1b" x="759.235584" y="388.774882" style="stroke: #000000"/>
     <use xlink:href="#ma97be2fd1b" x="764.204656" y="147.19318" style="stroke: #000000"/>
     <use xlink:href="#ma97be2fd1b" x="769.173727" y="388.774882" style="stroke: #000000"/>
     <use xlink:href="#ma97be2fd1b" x="774.142798" y="147.19318" style="stroke: #000000"/>
     <use xlink:href="#ma97be2fd1b" x="779.272162" y="388.774882" style="stroke: #000000"/>
     <use xlink:href="#ma97be2fd1b" x="784.241234" y="388.774882" style="stroke: #000000"/>
     <use xlink:href="#ma97be2fd1b" x="789.210305" y="147.19318" style="stroke: #000000"/>
     <use xlink:href="#ma97be2fd1b" x="794.179376" y="388.774882" style="stroke: #000000"/>
     <use xlink:href="#ma97be2fd1b" x="799.30874" y="388.774882" style="stroke: #000000"/>
     <use xlink:href="#ma97be2fd1b" x="804.277812" y="147.19318" style="stroke: #000000"/>
     <use xlink:href="#ma97be2fd1b" x="809.246883" y="388.774882" style="stroke: #000000"/>
     <use xlink:href="#ma97be2fd1b" x="814.215955" y="147.19318" style="stroke: #000000"/>
     <use xlink:href="#ma97be2fd1b" x="819.345319" y="388.774882" style="stroke: #000000"/>
     <use xlink:href="#ma97be2fd1b" x="824.31439" y="388.774882" style="stroke: #000000"/>
     <use xlink:href="#ma97be2fd1b" x="829.283461" y="147.19318" style="stroke: #000000"/>
     <use xlink:href="#ma97be2fd1b" x="834.252533" y="388.774882" style="stroke: #000000"/>
     <use xlink:href="#ma97be2fd1b" x="839.381897" y="388.774882" style="stroke: #000000"/>
     <use xlink:href="#ma97be2fd1b" x="844.350968" y="147.19318" style="stroke: #000000"/>
     <use xlink:href="#ma97be2fd1b" x="849.320039" y="388.774882" style="stroke: #000000"/>
     <use xlink:href="#ma97be2fd1b" x="854.289111" y="147.19318" style="stroke: #000000"/>
     <use xlink:href="#ma97be2fd1b" x="859.418475" y="388.774882" style="stroke: #000000"/>
     <use xlink:href="#ma97be2fd1b" x="864.387546" y="388.774882" style="stroke: #000000"/>
     <use xlink:href="#ma97be2fd1b" x="869.356618" y="147.19318" style="stroke: #000000"/>
     <use xlink:href="#ma97be2fd1b" x="874.325689" y="388.774882" style="stroke: #000000"/>
     <use xlink:href="#ma97be2fd1b" x="879.455053" y="388.774882" style="stroke: #000000"/>
     <use xlink:href="#ma97be2fd1b" x="884.424124" y="147.19318" style="stroke: #000000"/>
     <use xlink:href="#ma97be2fd1b" x="889.393196" y="388.774882" style="stroke: #000000"/>
     <use xlink:href="#ma97be2fd1b" x="894.362267" y="147.19318" style="stroke: #000000"/>
     <use xlink:href="#ma97be2fd1b" x="899.491631" y="388.774882" style="stroke: #000000"/>
     <use xlink:href="#ma97be2fd1b" x="904.460702" y="388.774882" style="stroke: #000000"/>
     <use xlink:href="#ma97be2fd1b" x="909.429774" y="147.19318" style="stroke: #000000"/>
     <use xlink:href="#ma97be2fd1b" x="914.398845" y="388.774882" style="stroke: #000000"/>
     <use xlink:href="#ma97be2fd1b" x="919.528209" y="388.774882" style="stroke: #000000"/>
     <use xlink:href="#ma97be2fd1b" x="924.497281" y="147.19318" style="stroke: #000000"/>
     <use xlink:href="#ma97be2fd1b" x="929.466352" y="388.774882" style="stroke: #000000"/>
    </g>
   </g>
   <g id="patch_3">
    <path d="M 135 448.56 
L 135 60.48 
" style="fill: none; stroke: #000000; stroke-width: 0.8; stroke-linejoin: miter; stroke-linecap: square"/>
   </g>
   <g id="patch_4">
    <path d="M 972 448.56 
L 972 60.48 
" style="fill: none; stroke: #000000; stroke-width: 0.8; stroke-linejoin: miter; stroke-linecap: square"/>
   </g>
   <g id="patch_5">
    <path d="M 135 448.56 
L 972 448.56 
" style="fill: none; stroke: #000000; stroke-width: 0.8; stroke-linejoin: miter; stroke-linecap: square"/>
   </g>
   <g id="patch_6">
    <path d="M 135 60.48 
L 972 60.48 
" style="fill: none; stroke: #000000; stroke-width: 0.8; stroke-linejoin: miter; stroke-linecap: square"/>
   </g>
   <g id="legend_1">
    <g id="patch_7">
     <path d="M 895.915625 113.070625 
L 965 113.070625 
Q 967 113.070625 967 111.070625 
L 967 67.48 
Q 967 65.48 965 65.48 
L 895.915625 65.48 
Q 893.915625 65.48 893.915625 67.48 
L 893.915625 111.070625 
Q 893.915625 113.070625 895.915625 113.070625 
z
" style="fill: #ffffff; opacity: 0.8; stroke: #cccccc; stroke-linejoin: miter"/>
    </g>
    <g id="line2d_17">
     <path d="M 897.915625 73.578438 
L 907.915625 73.578438 
L 917.915625 73.578438 
" style="fill: none; stroke: #1f77b4; stroke-width: 1.5; stroke-linecap: square"/>
    </g>
    <g id="text_15">
     <!-- nw_0 -->
     <g transform="translate(925.915625 77.078438) scale(0.1 -0.1)">
      <defs>
       <path id="DejaVuSans-6e" d="M 3513 2113 
L 3513 0 
L 2938 0 
L 2938 2094 
Q 2938 2591 2744 2837 
Q 2550 3084 2163 3084 
Q 1697 3084 1428 2787 
Q 1159 2491 1159 1978 
L 1159 0 
L 581 0 
L 581 3500 
L 1159 3500 
L 1159 2956 
Q 1366 3272 1645 3428 
Q 1925 3584 2291 3584 
Q 2894 3584 3203 3211 
Q 3513 2838 3513 2113 
z
" transform="scale(0.015625)"/>
       <path id="DejaVuSans-77" d="M 269 3500 
L 844 3500 
L 1563 769 
L 2278 3500 
L 2956 3500 
L 3675 769 
L 4391 3500 
L 4966 3500 
L 4050 0 
L 3372 0 
L 2619 2869 
L 1863 0 
L 1184 0 
L 269 3500 
z
" transform="scale(0.015625)"/>
       <path id="DejaVuSans-5f" d="M 3263 -1063 
L 3263 -1509 
L -63 -1509 
L -63 -1063 
L 3263 -1063 
z
" transform="scale(0.015625)"/>
      </defs>
      <use xlink:href="#DejaVuSans-6e"/>
      <use xlink:href="#DejaVuSans-77" x="63.378906"/>
      <use xlink:href="#DejaVuSans-5f" x="145.166016"/>
      <use xlink:href="#DejaVuSans-30" x="195.166016"/>
     </g>
    </g>
    <g id="line2d_18">
     <path d="M 897.915625 88.534688 
L 907.915625 88.534688 
L 917.915625 88.534688 
" style="fill: none; stroke: #ff7f0e; stroke-width: 1.5; stroke-linecap: square"/>
    </g>
    <g id="text_16">
     <!-- input_0 -->
     <g transform="translate(925.915625 92.034688) scale(0.1 -0.1)">
      <defs>
       <path id="DejaVuSans-69" d="M 603 3500 
L 1178 3500 
L 1178 0 
L 603 0 
L 603 3500 
z
M 603 4863 
L 1178 4863 
L 1178 4134 
L 603 4134 
L 603 4863 
z
" transform="scale(0.015625)"/>
       <path id="DejaVuSans-70" d="M 1159 525 
L 1159 -1331 
L 581 -1331 
L 581 3500 
L 1159 3500 
L 1159 2969 
Q 1341 3281 1617 3432 
Q 1894 3584 2278 3584 
Q 2916 3584 3314 3078 
Q 3713 2572 3713 1747 
Q 3713 922 3314 415 
Q 2916 -91 2278 -91 
Q 1894 -91 1617 61 
Q 1341 213 1159 525 
z
M 3116 1747 
Q 3116 2381 2855 2742 
Q 2594 3103 2138 3103 
Q 1681 3103 1420 2742 
Q 1159 2381 1159 1747 
Q 1159 1113 1420 752 
Q 1681 391 2138 391 
Q 2594 391 2855 752 
Q 3116 1113 3116 1747 
z
" transform="scale(0.015625)"/>
       <path id="DejaVuSans-75" d="M 544 1381 
L 544 3500 
L 1119 3500 
L 1119 1403 
Q 1119 906 1312 657 
Q 1506 409 1894 409 
Q 2359 409 2629 706 
Q 2900 1003 2900 1516 
L 2900 3500 
L 3475 3500 
L 3475 0 
L 2900 0 
L 2900 538 
Q 2691 219 2414 64 
Q 2138 -91 1772 -91 
Q 1169 -91 856 284 
Q 544 659 544 1381 
z
M 1991 3584 
L 1991 3584 
z
" transform="scale(0.015625)"/>
      </defs>
      <use xlink:href="#DejaVuSans-69"/>
      <use xlink:href="#DejaVuSans-6e" x="27.783203"/>
      <use xlink:href="#DejaVuSans-70" x="91.162109"/>
      <use xlink:href="#DejaVuSans-75" x="154.638672"/>
      <use xlink:href="#DejaVuSans-74" x="218.017578"/>
      <use xlink:href="#DejaVuSans-5f" x="257.226562"/>
      <use xlink:href="#DejaVuSans-30" x="307.226562"/>
     </g>
    </g>
    <g id="line2d_19">
     <path d="M 897.915625 103.490938 
L 907.915625 103.490938 
L 917.915625 103.490938 
" style="fill: none; stroke: #000000; stroke-width: 1.5; stroke-linecap: square"/>
     <g>
      <use xlink:href="#ma97be2fd1b" x="907.915625" y="103.490938" style="stroke: #000000"/>
     </g>
    </g>
    <g id="text_17">
     <!-- target -->
     <g transform="translate(925.915625 106.990938) scale(0.1 -0.1)">
      <defs>
       <path id="DejaVuSans-61" d="M 2194 1759 
Q 1497 1759 1228 1600 
Q 959 1441 959 1056 
Q 959 750 1161 570 
Q 1363 391 1709 391 
Q 2188 391 2477 730 
Q 2766 1069 2766 1631 
L 2766 1759 
L 2194 1759 
z
M 3341 1997 
L 3341 0 
L 2766 0 
L 2766 531 
Q 2569 213 2275 61 
Q 1981 -91 1556 -91 
Q 1019 -91 701 211 
Q 384 513 384 1019 
Q 384 1609 779 1909 
Q 1175 2209 1959 2209 
L 2766 2209 
L 2766 2266 
Q 2766 2663 2505 2880 
Q 2244 3097 1772 3097 
Q 1472 3097 1187 3025 
Q 903 2953 641 2809 
L 641 3341 
Q 956 3463 1253 3523 
Q 1550 3584 1831 3584 
Q 2591 3584 2966 3190 
Q 3341 2797 3341 1997 
z
" transform="scale(0.015625)"/>
       <path id="DejaVuSans-72" d="M 2631 2963 
Q 2534 3019 2420 3045 
Q 2306 3072 2169 3072 
Q 1681 3072 1420 2755 
Q 1159 2438 1159 1844 
L 1159 0 
L 581 0 
L 581 3500 
L 1159 3500 
L 1159 2956 
Q 1341 3275 1631 3429 
Q 1922 3584 2338 3584 
Q 2397 3584 2469 3576 
Q 2541 3569 2628 3553 
L 2631 2963 
z
" transform="scale(0.015625)"/>
       <path id="DejaVuSans-67" d="M 2906 1791 
Q 2906 2416 2648 2759 
Q 2391 3103 1925 3103 
Q 1463 3103 1205 2759 
Q 947 2416 947 1791 
Q 947 1169 1205 825 
Q 1463 481 1925 481 
Q 2391 481 2648 825 
Q 2906 1169 2906 1791 
z
M 3481 434 
Q 3481 -459 3084 -895 
Q 2688 -1331 1869 -1331 
Q 1566 -1331 1297 -1286 
Q 1028 -1241 775 -1147 
L 775 -588 
Q 1028 -725 1275 -790 
Q 1522 -856 1778 -856 
Q 2344 -856 2625 -561 
Q 2906 -266 2906 331 
L 2906 616 
Q 2728 306 2450 153 
Q 2172 0 1784 0 
Q 1141 0 747 490 
Q 353 981 353 1791 
Q 353 2603 747 3093 
Q 1141 3584 1784 3584 
Q 2172 3584 2450 3431 
Q 2728 3278 2906 2969 
L 2906 3500 
L 3481 3500 
L 3481 434 
z
" transform="scale(0.015625)"/>
       <path id="DejaVuSans-65" d="M 3597 1894 
L 3597 1613 
L 953 1613 
Q 991 1019 1311 708 
Q 1631 397 2203 397 
Q 2534 397 2845 478 
Q 3156 559 3463 722 
L 3463 178 
Q 3153 47 2828 -22 
Q 2503 -91 2169 -91 
Q 1331 -91 842 396 
Q 353 884 353 1716 
Q 353 2575 817 3079 
Q 1281 3584 2069 3584 
Q 2775 3584 3186 3129 
Q 3597 2675 3597 1894 
z
M 3022 2063 
Q 3016 2534 2758 2815 
Q 2500 3097 2075 3097 
Q 1594 3097 1305 2825 
Q 1016 2553 972 2059 
L 3022 2063 
z
" transform="scale(0.015625)"/>
      </defs>
      <use xlink:href="#DejaVuSans-74"/>
      <use xlink:href="#DejaVuSans-61" x="39.208984"/>
      <use xlink:href="#DejaVuSans-72" x="100.488281"/>
      <use xlink:href="#DejaVuSans-67" x="139.851562"/>
      <use xlink:href="#DejaVuSans-65" x="203.328125"/>
      <use xlink:href="#DejaVuSans-74" x="264.851562"/>
     </g>
    </g>
   </g>
  </g>
 </g>
 <defs>
  <clipPath id="p8456de128f">
   <rect x="135" y="60.48" width="837" height="388.08"/>
  </clipPath>
 </defs>
</svg>
