<?xml version="1.0" encoding="utf-8" standalone="no"?>
<!DOCTYPE svg PUBLIC "-//W3C//DTD SVG 1.1//EN"
  "http://www.w3.org/Graphics/SVG/1.1/DTD/svg11.dtd">
<svg xmlns:xlink="http://www.w3.org/1999/xlink" width="1080pt" height="504pt" viewBox="0 0 1080 504" xmlns="http://www.w3.org/2000/svg" version="1.1">
 <metadata>
  <rdf:RDF xmlns:dc="http://purl.org/dc/elements/1.1/" xmlns:cc="http://creativecommons.org/ns#" xmlns:rdf="http://www.w3.org/1999/02/22-rdf-syntax-ns#">
   <cc:Work>
    <dc:type rdf:resource="http://purl.org/dc/dcmitype/StillImage"/>
    <dc:date>2024-05-09T11:10:02.036942</dc:date>
    <dc:format>image/svg+xml</dc:format>
    <dc:creator>
     <cc:Agent>
      <dc:title>Matplotlib v3.7.1, https://matplotlib.org/</dc:title>
     </cc:Agent>
    </dc:creator>
   </cc:Work>
  </rdf:RDF>
 </metadata>
 <defs>
  <style type="text/css">*{stroke-linejoin: round; stroke-linecap: butt}</style>
 </defs>
 <g id="figure_1">
  <g id="patch_1">
   <path d="M 0 504 
L 1080 504 
L 1080 0 
L 0 0 
z
" style="fill: #ffffff"/>
  </g>
  <g id="axes_1">
   <g id="patch_2">
    <path d="M 135 448.56 
L 972 448.56 
L 972 60.48 
L 135 60.48 
z
" style="fill: #ffffff"/>
   </g>
   <g id="matplotlib.axis_1">
    <g id="xtick_1">
     <g id="line2d_1">
      <defs>
       <path id="m2cf6de7c52" d="M 0 0 
L 0 3.5 
" style="stroke: #000000; stroke-width: 0.8"/>
      </defs>
      <g>
       <use xlink:href="#m2cf6de7c52" x="173.045455" y="448.56" style="stroke: #000000; stroke-width: 0.8"/>
      </g>
     </g>
     <g id="text_1">
      <!-- 0 -->
      <g transform="translate(169.864205 463.158437) scale(0.1 -0.1)">
       <defs>
        <path id="DejaVuSans-30" d="M 2034 4250 
Q 1547 4250 1301 3770 
Q 1056 3291 1056 2328 
Q 1056 1369 1301 889 
Q 1547 409 2034 409 
Q 2525 409 2770 889 
Q 3016 1369 3016 2328 
Q 3016 3291 2770 3770 
Q 2525 4250 2034 4250 
z
M 2034 4750 
Q 2819 4750 3233 4129 
Q 3647 3509 3647 2328 
Q 3647 1150 3233 529 
Q 2819 -91 2034 -91 
Q 1250 -91 836 529 
Q 422 1150 422 2328 
Q 422 3509 836 4129 
Q 1250 4750 2034 4750 
z
" transform="scale(0.015625)"/>
       </defs>
       <use xlink:href="#DejaVuSans-30"/>
      </g>
     </g>
    </g>
    <g id="xtick_2">
     <g id="line2d_2">
      <g>
       <use xlink:href="#m2cf6de7c52" x="333.33808" y="448.56" style="stroke: #000000; stroke-width: 0.8"/>
      </g>
     </g>
     <g id="text_2">
      <!-- 1000 -->
      <g transform="translate(320.61308 463.158437) scale(0.1 -0.1)">
       <defs>
        <path id="DejaVuSans-31" d="M 794 531 
L 1825 531 
L 1825 4091 
L 703 3866 
L 703 4441 
L 1819 4666 
L 2450 4666 
L 2450 531 
L 3481 531 
L 3481 0 
L 794 0 
L 794 531 
z
" transform="scale(0.015625)"/>
       </defs>
       <use xlink:href="#DejaVuSans-31"/>
       <use xlink:href="#DejaVuSans-30" x="63.623047"/>
       <use xlink:href="#DejaVuSans-30" x="127.246094"/>
       <use xlink:href="#DejaVuSans-30" x="190.869141"/>
      </g>
     </g>
    </g>
    <g id="xtick_3">
     <g id="line2d_3">
      <g>
       <use xlink:href="#m2cf6de7c52" x="493.630705" y="448.56" style="stroke: #000000; stroke-width: 0.8"/>
      </g>
     </g>
     <g id="text_3">
      <!-- 2000 -->
      <g transform="translate(480.905705 463.158437) scale(0.1 -0.1)">
       <defs>
        <path id="DejaVuSans-32" d="M 1228 531 
L 3431 531 
L 3431 0 
L 469 0 
L 469 531 
Q 828 903 1448 1529 
Q 2069 2156 2228 2338 
Q 2531 2678 2651 2914 
Q 2772 3150 2772 3378 
Q 2772 3750 2511 3984 
Q 2250 4219 1831 4219 
Q 1534 4219 1204 4116 
Q 875 4013 500 3803 
L 500 4441 
Q 881 4594 1212 4672 
Q 1544 4750 1819 4750 
Q 2544 4750 2975 4387 
Q 3406 4025 3406 3419 
Q 3406 3131 3298 2873 
Q 3191 2616 2906 2266 
Q 2828 2175 2409 1742 
Q 1991 1309 1228 531 
z
" transform="scale(0.015625)"/>
       </defs>
       <use xlink:href="#DejaVuSans-32"/>
       <use xlink:href="#DejaVuSans-30" x="63.623047"/>
       <use xlink:href="#DejaVuSans-30" x="127.246094"/>
       <use xlink:href="#DejaVuSans-30" x="190.869141"/>
      </g>
     </g>
    </g>
    <g id="xtick_4">
     <g id="line2d_4">
      <g>
       <use xlink:href="#m2cf6de7c52" x="653.92333" y="448.56" style="stroke: #000000; stroke-width: 0.8"/>
      </g>
     </g>
     <g id="text_4">
      <!-- 3000 -->
      <g transform="translate(641.19833 463.158437) scale(0.1 -0.1)">
       <defs>
        <path id="DejaVuSans-33" d="M 2597 2516 
Q 3050 2419 3304 2112 
Q 3559 1806 3559 1356 
Q 3559 666 3084 287 
Q 2609 -91 1734 -91 
Q 1441 -91 1130 -33 
Q 819 25 488 141 
L 488 750 
Q 750 597 1062 519 
Q 1375 441 1716 441 
Q 2309 441 2620 675 
Q 2931 909 2931 1356 
Q 2931 1769 2642 2001 
Q 2353 2234 1838 2234 
L 1294 2234 
L 1294 2753 
L 1863 2753 
Q 2328 2753 2575 2939 
Q 2822 3125 2822 3475 
Q 2822 3834 2567 4026 
Q 2313 4219 1838 4219 
Q 1578 4219 1281 4162 
Q 984 4106 628 3988 
L 628 4550 
Q 988 4650 1302 4700 
Q 1616 4750 1894 4750 
Q 2613 4750 3031 4423 
Q 3450 4097 3450 3541 
Q 3450 3153 3228 2886 
Q 3006 2619 2597 2516 
z
" transform="scale(0.015625)"/>
       </defs>
       <use xlink:href="#DejaVuSans-33"/>
       <use xlink:href="#DejaVuSans-30" x="63.623047"/>
       <use xlink:href="#DejaVuSans-30" x="127.246094"/>
       <use xlink:href="#DejaVuSans-30" x="190.869141"/>
      </g>
     </g>
    </g>
    <g id="xtick_5">
     <g id="line2d_5">
      <g>
       <use xlink:href="#m2cf6de7c52" x="814.215955" y="448.56" style="stroke: #000000; stroke-width: 0.8"/>
      </g>
     </g>
     <g id="text_5">
      <!-- 4000 -->
      <g transform="translate(801.490955 463.158437) scale(0.1 -0.1)">
       <defs>
        <path id="DejaVuSans-34" d="M 2419 4116 
L 825 1625 
L 2419 1625 
L 2419 4116 
z
M 2253 4666 
L 3047 4666 
L 3047 1625 
L 3713 1625 
L 3713 1100 
L 3047 1100 
L 3047 0 
L 2419 0 
L 2419 1100 
L 313 1100 
L 313 1709 
L 2253 4666 
z
" transform="scale(0.015625)"/>
       </defs>
       <use xlink:href="#DejaVuSans-34"/>
       <use xlink:href="#DejaVuSans-30" x="63.623047"/>
       <use xlink:href="#DejaVuSans-30" x="127.246094"/>
       <use xlink:href="#DejaVuSans-30" x="190.869141"/>
      </g>
     </g>
    </g>
    <g id="text_6">
     <!-- t -->
     <g transform="translate(551.539844 476.836563) scale(0.1 -0.1)">
      <defs>
       <path id="DejaVuSans-74" d="M 1172 4494 
L 1172 3500 
L 2356 3500 
L 2356 3053 
L 1172 3053 
L 1172 1153 
Q 1172 725 1289 603 
Q 1406 481 1766 481 
L 2356 481 
L 2356 0 
L 1766 0 
Q 1100 0 847 248 
Q 594 497 594 1153 
L 594 3053 
L 172 3053 
L 172 3500 
L 594 3500 
L 594 4494 
L 1172 4494 
z
" transform="scale(0.015625)"/>
      </defs>
      <use xlink:href="#DejaVuSans-74"/>
     </g>
    </g>
   </g>
   <g id="matplotlib.axis_2">
    <g id="ytick_1">
     <g id="line2d_6">
      <defs>
       <path id="m58d97a93b7" d="M 0 0 
L -3.5 0 
" style="stroke: #000000; stroke-width: 0.8"/>
      </defs>
      <g>
       <use xlink:href="#m58d97a93b7" x="135" y="437.251177" style="stroke: #000000; stroke-width: 0.8"/>
      </g>
     </g>
     <g id="text_7">
      <!-- −0.2 -->
      <g transform="translate(103.717187 441.050395) scale(0.1 -0.1)">
       <defs>
        <path id="DejaVuSans-2212" d="M 678 2272 
L 4684 2272 
L 4684 1741 
L 678 1741 
L 678 2272 
z
" transform="scale(0.015625)"/>
        <path id="DejaVuSans-2e" d="M 684 794 
L 1344 794 
L 1344 0 
L 684 0 
L 684 794 
z
" transform="scale(0.015625)"/>
       </defs>
       <use xlink:href="#DejaVuSans-2212"/>
       <use xlink:href="#DejaVuSans-30" x="83.789062"/>
       <use xlink:href="#DejaVuSans-2e" x="147.412109"/>
       <use xlink:href="#DejaVuSans-32" x="179.199219"/>
      </g>
     </g>
    </g>
    <g id="ytick_2">
     <g id="line2d_7">
      <g>
       <use xlink:href="#m58d97a93b7" x="135" y="381.963973" style="stroke: #000000; stroke-width: 0.8"/>
      </g>
     </g>
     <g id="text_8">
      <!-- 0.0 -->
      <g transform="translate(112.096875 385.763192) scale(0.1 -0.1)">
       <use xlink:href="#DejaVuSans-30"/>
       <use xlink:href="#DejaVuSans-2e" x="63.623047"/>
       <use xlink:href="#DejaVuSans-30" x="95.410156"/>
      </g>
     </g>
    </g>
    <g id="ytick_3">
     <g id="line2d_8">
      <g>
       <use xlink:href="#m58d97a93b7" x="135" y="326.67677" style="stroke: #000000; stroke-width: 0.8"/>
      </g>
     </g>
     <g id="text_9">
      <!-- 0.2 -->
      <g transform="translate(112.096875 330.475989) scale(0.1 -0.1)">
       <use xlink:href="#DejaVuSans-30"/>
       <use xlink:href="#DejaVuSans-2e" x="63.623047"/>
       <use xlink:href="#DejaVuSans-32" x="95.410156"/>
      </g>
     </g>
    </g>
    <g id="ytick_4">
     <g id="line2d_9">
      <g>
       <use xlink:href="#m58d97a93b7" x="135" y="271.389567" style="stroke: #000000; stroke-width: 0.8"/>
      </g>
     </g>
     <g id="text_10">
      <!-- 0.4 -->
      <g transform="translate(112.096875 275.188786) scale(0.1 -0.1)">
       <use xlink:href="#DejaVuSans-30"/>
       <use xlink:href="#DejaVuSans-2e" x="63.623047"/>
       <use xlink:href="#DejaVuSans-34" x="95.410156"/>
      </g>
     </g>
    </g>
    <g id="ytick_5">
     <g id="line2d_10">
      <g>
       <use xlink:href="#m58d97a93b7" x="135" y="216.102364" style="stroke: #000000; stroke-width: 0.8"/>
      </g>
     </g>
     <g id="text_11">
      <!-- 0.6 -->
      <g transform="translate(112.096875 219.901582) scale(0.1 -0.1)">
       <defs>
        <path id="DejaVuSans-36" d="M 2113 2584 
Q 1688 2584 1439 2293 
Q 1191 2003 1191 1497 
Q 1191 994 1439 701 
Q 1688 409 2113 409 
Q 2538 409 2786 701 
Q 3034 994 3034 1497 
Q 3034 2003 2786 2293 
Q 2538 2584 2113 2584 
z
M 3366 4563 
L 3366 3988 
Q 3128 4100 2886 4159 
Q 2644 4219 2406 4219 
Q 1781 4219 1451 3797 
Q 1122 3375 1075 2522 
Q 1259 2794 1537 2939 
Q 1816 3084 2150 3084 
Q 2853 3084 3261 2657 
Q 3669 2231 3669 1497 
Q 3669 778 3244 343 
Q 2819 -91 2113 -91 
Q 1303 -91 875 529 
Q 447 1150 447 2328 
Q 447 3434 972 4092 
Q 1497 4750 2381 4750 
Q 2619 4750 2861 4703 
Q 3103 4656 3366 4563 
z
" transform="scale(0.015625)"/>
       </defs>
       <use xlink:href="#DejaVuSans-30"/>
       <use xlink:href="#DejaVuSans-2e" x="63.623047"/>
       <use xlink:href="#DejaVuSans-36" x="95.410156"/>
      </g>
     </g>
    </g>
    <g id="ytick_6">
     <g id="line2d_11">
      <g>
       <use xlink:href="#m58d97a93b7" x="135" y="160.81516" style="stroke: #000000; stroke-width: 0.8"/>
      </g>
     </g>
     <g id="text_12">
      <!-- 0.8 -->
      <g transform="translate(112.096875 164.614379) scale(0.1 -0.1)">
       <defs>
        <path id="DejaVuSans-38" d="M 2034 2216 
Q 1584 2216 1326 1975 
Q 1069 1734 1069 1313 
Q 1069 891 1326 650 
Q 1584 409 2034 409 
Q 2484 409 2743 651 
Q 3003 894 3003 1313 
Q 3003 1734 2745 1975 
Q 2488 2216 2034 2216 
z
M 1403 2484 
Q 997 2584 770 2862 
Q 544 3141 544 3541 
Q 544 4100 942 4425 
Q 1341 4750 2034 4750 
Q 2731 4750 3128 4425 
Q 3525 4100 3525 3541 
Q 3525 3141 3298 2862 
Q 3072 2584 2669 2484 
Q 3125 2378 3379 2068 
Q 3634 1759 3634 1313 
Q 3634 634 3220 271 
Q 2806 -91 2034 -91 
Q 1263 -91 848 271 
Q 434 634 434 1313 
Q 434 1759 690 2068 
Q 947 2378 1403 2484 
z
M 1172 3481 
Q 1172 3119 1398 2916 
Q 1625 2713 2034 2713 
Q 2441 2713 2670 2916 
Q 2900 3119 2900 3481 
Q 2900 3844 2670 4047 
Q 2441 4250 2034 4250 
Q 1625 4250 1398 4047 
Q 1172 3844 1172 3481 
z
" transform="scale(0.015625)"/>
       </defs>
       <use xlink:href="#DejaVuSans-30"/>
       <use xlink:href="#DejaVuSans-2e" x="63.623047"/>
       <use xlink:href="#DejaVuSans-38" x="95.410156"/>
      </g>
     </g>
    </g>
    <g id="ytick_7">
     <g id="line2d_12">
      <g>
       <use xlink:href="#m58d97a93b7" x="135" y="105.527957" style="stroke: #000000; stroke-width: 0.8"/>
      </g>
     </g>
     <g id="text_13">
      <!-- 1.0 -->
      <g transform="translate(112.096875 109.327176) scale(0.1 -0.1)">
       <use xlink:href="#DejaVuSans-31"/>
       <use xlink:href="#DejaVuSans-2e" x="63.623047"/>
       <use xlink:href="#DejaVuSans-30" x="95.410156"/>
      </g>
     </g>
    </g>
   </g>
   <g id="line2d_13">
    <path d="M 173.045455 244.643511 
L 173.36604 116.54275 
L 173.686625 80.944342 
L 173.846918 78.122407 
L 174.00721 80.222772 
L 174.327796 91.723092 
L 175.289551 132.672937 
L 175.770429 143.273107 
L 175.930722 144.605172 
L 176.091014 144.816622 
L 176.251307 143.947204 
L 176.571892 139.274489 
L 177.05277 126.671442 
L 177.693941 105.37706 
L 178.014526 288.33813 
L 178.335111 352.349398 
L 178.655696 379.796163 
L 179.136574 400.291729 
L 179.45716 405.871605 
L 179.617452 406.766073 
L 179.777745 406.721462 
L 180.09833 404.972617 
L 180.579208 402.196377 
L 180.739501 402.017477 
L 180.899793 402.389513 
L 181.220378 404.858698 
L 181.701256 412.118167 
L 182.663012 428.37729 
L 182.983597 430.738366 
L 183.14389 430.92 
L 183.304183 430.361135 
L 183.624768 426.901878 
L 183.945353 420.286598 
L 184.426231 404.873165 
L 185.067401 376.39762 
L 187.151206 277.21058 
L 187.792376 259.275617 
L 188.273254 251.682113 
L 188.593839 249.356223 
L 188.754132 248.970671 
L 188.914424 249.076028 
L 189.074717 249.648383 
L 189.395302 252.087918 
L 189.87618 258.547807 
L 190.517351 271.096769 
L 191.799692 302.646526 
L 193.242325 336.479343 
L 194.204081 353.796407 
L 195.005544 364.421616 
L 195.807007 371.863048 
L 196.448178 375.887415 
L 197.089348 378.55235 
L 197.730519 380.183518 
L 198.211397 380.907267 
L 198.692275 381.323459 
L 199.333445 381.554419 
L 200.134908 381.551133 
L 203.180468 381.262599 
L 204.943687 381.458425 
L 208.470125 381.89366 
L 211.355392 381.975912 
L 213.278903 381.96954 
L 213.599489 163.013066 
L 213.920074 91.992842 
L 214.080367 80.946209 
L 214.240659 78.1236 
L 214.400952 80.223321 
L 214.721537 91.722455 
L 215.683293 132.669731 
L 216.164171 143.269198 
L 216.324463 144.601107 
L 216.484756 144.812436 
L 216.645049 143.942933 
L 216.965634 139.27014 
L 217.446512 126.667168 
L 218.087682 105.37315 
L 218.408267 288.334458 
L 218.728853 352.34598 
L 219.049438 379.793011 
L 219.530316 400.288986 
L 219.850901 405.869136 
L 220.011194 406.76374 
L 220.171486 406.719261 
L 220.492072 404.970675 
L 220.972949 402.194798 
L 221.133242 402.01601 
L 221.293535 402.388154 
L 221.61412 404.85754 
L 222.094998 412.117273 
L 223.056754 428.376792 
L 223.377339 430.737964 
L 223.537631 430.91964 
L 223.697924 430.360813 
L 224.018509 426.901623 
L 224.339095 420.286397 
L 224.819972 404.873024 
L 225.461143 376.39753 
L 227.544947 277.210529 
L 228.186118 259.275565 
L 228.666995 251.682059 
L 228.987581 249.356169 
L 229.147873 248.970617 
L 229.308166 249.075974 
L 229.468459 249.64833 
L 229.789044 252.087865 
L 230.269922 258.547757 
L 230.911092 271.096723 
L 232.193433 302.646492 
L 233.636067 336.479322 
L 234.597823 353.796394 
L 235.399286 364.421608 
L 236.200749 371.863043 
L 236.841919 375.887413 
L 237.48309 378.552349 
L 238.12426 380.183517 
L 238.605138 380.907266 
L 239.086016 381.323459 
L 239.727187 381.554419 
L 240.52865 381.551133 
L 243.57421 381.262599 
L 245.337428 381.458425 
L 248.863866 381.89366 
L 251.749133 381.975912 
L 253.99323 381.9677 
L 254.313815 163.011248 
L 254.634401 91.99111 
L 254.794693 80.94454 
L 254.954986 78.122005 
L 255.115279 80.221808 
L 255.435864 91.721128 
L 256.39762 132.669005 
L 256.878497 143.268742 
L 257.03879 144.600732 
L 257.199083 144.812138 
L 257.359375 143.942706 
L 257.679961 139.270038 
L 258.160838 126.667216 
L 258.802009 105.37333 
L 259.122594 288.334685 
L 259.443179 352.34624 
L 259.763765 379.793291 
L 260.244643 400.28928 
L 260.565228 405.869428 
L 260.72552 406.764029 
L 260.885813 406.719546 
L 261.206398 404.970947 
L 261.687276 402.195044 
L 261.847569 402.016246 
L 262.007861 402.38838 
L 262.328447 404.857744 
L 262.809325 412.117445 
L 263.77108 428.376903 
L 264.091666 430.738057 
L 264.251958 430.919725 
L 264.412251 430.360891 
L 264.732836 426.901686 
L 265.053421 420.286448 
L 265.534299 404.873059 
L 266.17547 376.397551 
L 268.259274 277.210529 
L 268.900444 259.275565 
L 269.381322 251.682059 
L 269.701907 249.35617 
L 269.8622 248.970618 
L 270.022493 249.075975 
L 270.182785 249.648331 
L 270.503371 252.087867 
L 270.984248 258.547759 
L 271.625419 271.096726 
L 272.90776 302.646495 
L 274.350394 336.479325 
L 275.312149 353.796396 
L 276.113612 364.42161 
L 276.915076 371.863044 
L 277.556246 375.887413 
L 278.197417 378.552349 
L 278.838587 380.183517 
L 279.319465 380.907266 
L 279.800343 381.323459 
L 280.441513 381.554419 
L 281.242976 381.551133 
L 284.288536 381.262599 
L 286.051755 381.458425 
L 289.578193 381.89366 
L 292.46346 381.975912 
L 293.585509 381.973866 
L 293.906094 163.017745 
L 294.226679 91.997617 
L 294.386972 80.950948 
L 294.547264 78.128257 
L 294.707557 80.227853 
L 295.028142 91.726639 
L 295.989898 132.672456 
L 296.470776 143.271163 
L 296.631068 144.602833 
L 296.791361 144.813933 
L 296.951654 143.944211 
L 297.272239 139.271016 
L 297.753117 126.667539 
L 298.394287 105.373027 
L 298.714873 288.334143 
L 299.035458 352.345515 
L 299.356043 379.792435 
L 299.836921 400.288304 
L 300.157506 405.868417 
L 300.317799 406.763012 
L 300.478091 406.718531 
L 300.798677 404.969952 
L 301.279555 402.194113 
L 301.439847 402.015344 
L 301.60014 402.387508 
L 301.920725 404.856941 
L 302.401603 412.116753 
L 303.363359 428.376433 
L 303.683944 430.737655 
L 303.844237 430.919355 
L 304.004529 430.360551 
L 304.325114 426.901404 
L 304.6457 420.286216 
L 305.126578 404.872893 
L 305.767748 376.39745 
L 307.851552 277.210524 
L 308.492723 259.275566 
L 308.973601 251.682061 
L 309.294186 249.356171 
L 309.454478 248.970619 
L 309.614771 249.075975 
L 309.775064 249.64833 
L 310.095649 252.087864 
L 310.576527 258.547755 
L 311.217697 271.096718 
L 312.500038 302.646484 
L 313.942672 336.479315 
L 314.904428 353.796388 
L 315.705891 364.421604 
L 316.507354 371.86304 
L 317.148524 375.88741 
L 317.789695 378.552347 
L 318.430865 380.183516 
L 318.911743 380.907266 
L 319.392621 381.323459 
L 320.033792 381.554419 
L 320.835255 381.551133 
L 323.880815 381.262599 
L 325.644034 381.458425 
L 329.170471 381.89366 
L 332.055739 381.975912 
L 333.818957 381.970462 
L 334.139543 163.014007 
L 334.460128 91.993762 
L 334.620421 80.947105 
L 334.780713 78.124466 
L 334.941006 80.22415 
L 335.261591 91.723199 
L 336.223347 132.670171 
L 336.704225 143.269493 
L 336.864517 144.601358 
L 337.02481 144.812646 
L 337.185103 143.943104 
L 337.505688 139.27024 
L 337.986566 126.667182 
L 338.627736 105.373083 
L 338.948321 288.334362 
L 339.268907 352.345862 
L 339.589492 379.792878 
L 340.07037 400.288841 
L 340.390955 405.868988 
L 340.551248 406.763593 
L 340.71154 406.719116 
L 341.032126 404.970534 
L 341.513003 402.194668 
L 341.673296 402.015885 
L 341.833589 402.388033 
L 342.154174 404.85743 
L 342.635052 412.117179 
L 343.596808 428.37673 
L 343.917393 430.737911 
L 344.077685 430.919592 
L 344.237978 430.360769 
L 344.558563 426.901586 
L 344.879149 420.286368 
L 345.360026 404.873003 
L 346.001197 376.397518 
L 348.085001 277.210528 
L 348.726172 259.275565 
L 349.207049 251.682059 
L 349.527635 249.356169 
L 349.687927 248.970617 
L 349.84822 249.075974 
L 350.008513 249.64833 
L 350.329098 252.087864 
L 350.809976 258.547756 
L 351.451146 271.096722 
L 352.733487 302.64649 
L 354.176121 336.479321 
L 355.137877 353.796393 
L 355.93934 364.421607 
L 356.740803 371.863043 
L 357.381973 375.887412 
L 358.023144 378.552349 
L 358.664314 380.183517 
L 359.145192 380.907266 
L 359.62607 381.323459 
L 360.267241 381.554419 
L 361.068704 381.551133 
L 364.114264 381.262599 
L 365.877482 381.458425 
L 369.40392 381.89366 
L 372.289187 381.975912 
L 373.090651 381.97517 
L 373.411236 163.019414 
L 373.731821 91.999503 
L 373.892114 80.952894 
L 374.052406 78.130234 
L 374.212699 80.229836 
L 374.533284 91.728568 
L 375.49504 132.673904 
L 375.975918 143.272299 
L 376.13621 144.603865 
L 376.296503 144.814863 
L 376.456796 143.945041 
L 376.777381 139.271658 
L 377.258259 126.66793 
L 377.899429 105.373155 
L 378.220015 288.33416 
L 378.5406 352.345443 
L 378.861185 379.79229 
L 379.342063 400.288081 
L 379.662648 405.868161 
L 379.822941 406.762744 
L 379.983233 406.718253 
L 380.303819 404.969662 
L 380.784697 402.193823 
L 380.944989 402.015058 
L 381.105282 402.387227 
L 381.425867 404.856674 
L 381.906745 412.116512 
L 382.868501 428.376256 
L 383.189086 430.7375 
L 383.349379 430.91921 
L 383.509671 430.360417 
L 383.830256 426.901289 
L 384.150842 420.28612 
L 384.63172 404.87282 
L 385.27289 376.397404 
L 387.356694 277.21052 
L 387.997865 259.275566 
L 388.478743 251.682062 
L 388.799328 249.356172 
L 388.95962 248.97062 
L 389.119913 249.075976 
L 389.280206 249.648332 
L 389.600791 252.087866 
L 390.081669 258.547755 
L 390.722839 271.096718 
L 392.00518 302.646482 
L 393.447814 336.479313 
L 394.40957 353.796386 
L 395.211033 364.421602 
L 396.012496 371.863038 
L 396.653666 375.887409 
L 397.294837 378.552347 
L 397.936007 380.183515 
L 398.416885 380.907265 
L 398.897763 381.323459 
L 399.538934 381.554419 
L 400.340397 381.551133 
L 403.385957 381.262599 
L 405.149176 381.458425 
L 408.675613 381.89366 
L 411.560881 381.975912 
L 413.644685 381.968616 
L 413.96527 163.012144 
L 414.285855 91.991957 
L 414.446148 80.945352 
L 414.60644 78.122778 
L 414.766733 80.222539 
L 415.087318 91.721764 
L 416.049074 132.669343 
L 416.529952 143.268948 
L 416.690245 144.600899 
L 416.850537 144.812268 
L 417.01083 143.942801 
L 417.331415 139.270073 
L 417.812293 126.667181 
L 418.453463 105.373233 
L 418.774049 288.334566 
L 419.094634 352.346106 
L 419.415219 379.793149 
L 419.896097 400.289133 
L 420.216682 405.869282 
L 420.376975 406.763885 
L 420.537268 406.719405 
L 420.857853 404.970813 
L 421.338731 402.194923 
L 421.499023 402.016131 
L 421.659316 402.388269 
L 421.979901 404.857645 
L 422.460779 412.117362 
L 423.422535 428.37685 
L 423.74312 430.738013 
L 423.903413 430.919685 
L 424.063705 430.360854 
L 424.384291 426.901656 
L 424.704876 420.286424 
L 425.185754 404.873043 
L 425.826924 376.397541 
L 427.910728 277.210529 
L 428.551899 259.275565 
L 429.032777 251.682059 
L 429.353362 249.356169 
L 429.513655 248.970617 
L 429.673947 249.075974 
L 429.83424 249.64833 
L 430.154825 252.087866 
L 430.635703 258.547758 
L 431.276873 271.096724 
L 432.559214 302.646493 
L 434.001848 336.479324 
L 434.963604 353.796395 
L 435.765067 364.421609 
L 436.56653 371.863044 
L 437.207701 375.887413 
L 437.848871 378.552349 
L 438.490042 380.183517 
L 438.970919 380.907266 
L 439.451797 381.323459 
L 440.092968 381.554419 
L 440.894431 381.551133 
L 443.939991 381.262599 
L 445.70321 381.458425 
L 449.229647 381.89366 
L 452.114915 381.975912 
L 453.557548 381.97225 
L 453.878134 163.015904 
L 454.198719 91.995672 
L 454.359011 80.948991 
L 454.519304 78.12631 
L 454.679597 80.225937 
L 455.000182 91.724833 
L 455.961938 132.671209 
L 456.442816 143.270229 
L 456.603108 144.601999 
L 456.763401 144.813197 
L 456.923693 143.943569 
L 457.244279 139.270548 
L 457.725157 126.667295 
L 458.366327 105.373009 
L 458.686912 288.334216 
L 459.007498 352.345661 
L 459.328083 379.792635 
L 459.808961 400.288561 
L 460.129546 405.868697 
L 460.289839 406.763299 
L 460.450131 406.718822 
L 460.770716 404.970245 
L 461.251594 402.194396 
L 461.411887 402.015621 
L 461.57218 402.387779 
L 461.892765 404.857195 
L 462.373643 412.116976 
L 463.335398 428.376591 
L 463.655984 430.737792 
L 463.816276 430.919482 
L 463.976569 430.360668 
L 464.297154 426.901502 
L 464.617739 420.286299 
L 465.098617 404.872953 
L 465.739788 376.397488 
L 467.823592 277.210527 
L 468.464762 259.275566 
L 468.94564 251.68206 
L 469.266226 249.35617 
L 469.426518 248.970617 
L 469.586811 249.075974 
L 469.747103 249.64833 
L 470.067689 252.087864 
L 470.548567 258.547755 
L 471.189737 271.09672 
L 472.472078 302.646487 
L 473.914712 336.479318 
L 474.876467 353.79639 
L 475.677931 364.421606 
L 476.479394 371.863041 
L 477.120564 375.887411 
L 477.761735 378.552348 
L 478.402905 380.183516 
L 478.883783 380.907266 
L 479.364661 381.323459 
L 480.005831 381.554419 
L 480.807295 381.551133 
L 483.852854 381.262599 
L 485.616073 381.458425 
L 489.142511 381.89366 
L 492.027778 381.975912 
L 493.630705 381.97137 
L 493.95129 163.014956 
L 494.271875 91.994708 
L 494.432168 80.948035 
L 494.59246 78.125371 
L 494.752753 80.225024 
L 495.073338 91.723993 
L 496.035094 132.670664 
L 496.515972 143.269836 
L 496.676264 144.601655 
L 496.836557 144.812899 
L 496.99685 143.943315 
L 497.317435 139.270375 
L 497.798313 126.667223 
L 498.439483 105.373036 
L 498.760069 288.334281 
L 499.080654 352.345755 
L 499.401239 379.792752 
L 499.882117 400.288699 
L 500.202702 405.868842 
L 500.362995 406.763445 
L 500.523287 406.718969 
L 500.843873 404.97039 
L 501.324751 402.194534 
L 501.485043 402.015755 
L 501.645336 402.387908 
L 501.965921 404.857315 
L 502.446799 412.11708 
L 503.408555 428.376663 
L 503.72914 430.737854 
L 503.889433 430.919539 
L 504.049725 430.360721 
L 504.37031 426.901546 
L 504.690896 420.286335 
L 505.171774 404.872979 
L 505.812944 376.397504 
L 507.896748 277.210528 
L 508.537919 259.275565 
L 509.018797 251.682059 
L 509.339382 249.356169 
L 509.499674 248.970617 
L 509.659967 249.075974 
L 509.82026 249.64833 
L 510.140845 252.087864 
L 510.621723 258.547755 
L 511.262893 271.096721 
L 512.545234 302.646488 
L 513.987868 336.47932 
L 514.949624 353.796392 
L 515.751087 364.421607 
L 516.55255 371.863042 
L 517.19372 375.887412 
L 517.834891 378.552348 
L 518.476061 380.183516 
L 518.956939 380.907266 
L 519.437817 381.323459 
L 520.078988 381.554419 
L 520.880451 381.551133 
L 523.926011 381.262599 
L 525.68923 381.458425 
L 529.215667 381.89366 
L 532.100935 381.975912 
L 533.864153 381.970462 
L 534.184739 163.014007 
L 534.505324 91.993762 
L 534.665617 80.947105 
L 534.825909 78.124466 
L 534.986202 80.22415 
L 535.306787 91.723199 
L 536.268543 132.670171 
L 536.749421 143.269493 
L 536.909713 144.601358 
L 537.070006 144.812646 
L 537.230299 143.943104 
L 537.550884 139.27024 
L 538.031762 126.667182 
L 538.672932 105.373083 
L 538.993517 288.334362 
L 539.314103 352.345862 
L 539.634688 379.792878 
L 540.115566 400.288841 
L 540.436151 405.868988 
L 540.596444 406.763593 
L 540.756736 406.719116 
L 541.077322 404.970534 
L 541.558199 402.194668 
L 541.718492 402.015885 
L 541.878785 402.388033 
L 542.19937 404.85743 
L 542.680248 412.117179 
L 543.642004 428.37673 
L 543.962589 430.737911 
L 544.122881 430.919592 
L 544.283174 430.360769 
L 544.603759 426.901586 
L 544.924345 420.286368 
L 545.405222 404.873003 
L 546.046393 376.397518 
L 548.130197 277.210528 
L 548.771368 259.275565 
L 549.252245 251.682059 
L 549.572831 249.356169 
L 549.733123 248.970617 
L 549.893416 249.075974 
L 550.053709 249.64833 
L 550.374294 252.087864 
L 550.855172 258.547756 
L 551.496342 271.096722 
L 552.778683 302.64649 
L 554.221317 336.479321 
L 555.183073 353.796393 
L 555.984536 364.421607 
L 556.785999 371.863043 
L 557.427169 375.887412 
L 558.06834 378.552349 
L 558.70951 380.183517 
L 559.190388 380.907266 
L 559.671266 381.323459 
L 560.312437 381.554419 
L 561.1139 381.551133 
L 564.15946 381.262599 
L 565.922678 381.458425 
L 569.449116 381.89366 
L 572.334383 381.975912 
L 574.257895 381.96954 
L 574.57848 163.013066 
L 574.899065 91.992842 
L 575.059358 80.946209 
L 575.219651 78.1236 
L 575.379943 80.223321 
L 575.700529 91.722455 
L 576.662284 132.669731 
L 577.143162 143.269198 
L 577.303455 144.601107 
L 577.463747 144.812436 
L 577.62404 143.942933 
L 577.944625 139.27014 
L 578.425503 126.667168 
L 579.066674 105.37315 
L 579.387259 288.334458 
L 579.707844 352.34598 
L 580.028429 379.793011 
L 580.509307 400.288986 
L 580.829893 405.869136 
L 580.990185 406.76374 
L 581.150478 406.719261 
L 581.471063 404.970675 
L 581.951941 402.194798 
L 582.112234 402.01601 
L 582.272526 402.388154 
L 582.593111 404.85754 
L 583.073989 412.117273 
L 584.035745 428.376792 
L 584.35633 430.737964 
L 584.516623 430.91964 
L 584.676916 430.360813 
L 584.997501 426.901623 
L 585.318086 420.286397 
L 585.798964 404.873024 
L 586.440134 376.39753 
L 588.523939 277.210529 
L 589.165109 259.275565 
L 589.645987 251.682059 
L 589.966572 249.356169 
L 590.126865 248.970617 
L 590.287157 249.075974 
L 590.44745 249.64833 
L 590.768035 252.087865 
L 591.248913 258.547757 
L 591.890084 271.096723 
L 593.172425 302.646492 
L 594.615058 336.479322 
L 595.576814 353.796394 
L 596.378277 364.421608 
L 597.17974 371.863043 
L 597.820911 375.887413 
L 598.462081 378.552349 
L 599.103252 380.183517 
L 599.58413 380.907266 
L 600.065008 381.323459 
L 600.706178 381.554419 
L 601.507641 381.551133 
L 604.553201 381.262599 
L 606.31642 381.458425 
L 609.842858 381.89366 
L 612.728125 381.975912 
L 613.209003 381.975997 
L 613.529588 163.02077 
L 613.850173 92.001213 
L 614.010466 80.954723 
L 614.170759 78.132147 
L 614.331051 80.231802 
L 614.651636 91.730557 
L 615.613392 132.675534 
L 616.09427 143.273632 
L 616.254563 144.605095 
L 616.414855 144.815989 
L 616.575148 143.946065 
L 616.895733 139.272482 
L 617.376611 126.668482 
L 618.017782 105.373409 
L 618.338367 288.334285 
L 618.658952 352.345459 
L 618.979537 379.792217 
L 619.460415 400.287908 
L 619.781 405.86794 
L 619.941293 406.762504 
L 620.101586 406.717998 
L 620.422171 404.969387 
L 620.903049 402.193535 
L 621.063341 402.01477 
L 621.223634 402.386941 
L 621.544219 404.856396 
L 622.025097 412.116256 
L 622.986853 428.376061 
L 623.307438 430.737326 
L 623.467731 430.919048 
L 623.628023 430.360264 
L 623.948609 426.901157 
L 624.269194 420.286007 
L 624.750072 404.872734 
L 625.391242 376.397347 
L 627.475046 277.210515 
L 628.116217 259.275565 
L 628.597095 251.682064 
L 628.91768 249.356175 
L 629.077973 248.970623 
L 629.238265 249.075979 
L 629.398558 249.648335 
L 629.719143 252.087868 
L 630.200021 258.547757 
L 630.841192 271.096719 
L 632.123533 302.646481 
L 633.566166 336.47931 
L 634.527922 353.796383 
L 635.329385 364.4216 
L 636.130848 371.863037 
L 636.772019 375.887408 
L 637.413189 378.552346 
L 638.05436 380.183515 
L 638.535238 380.907265 
L 639.016115 381.323458 
L 639.657286 381.554419 
L 640.458749 381.551133 
L 643.504309 381.262599 
L 645.267528 381.458425 
L 648.793966 381.89366 
L 651.679233 381.975912 
L 653.92333 381.9677 
L 654.243915 163.011248 
L 654.5645 91.99111 
L 654.724793 80.94454 
L 654.885085 78.122005 
L 655.045378 80.221808 
L 655.365963 91.721128 
L 656.327719 132.669005 
L 656.808597 143.268742 
L 656.968889 144.600732 
L 657.129182 144.812138 
L 657.289475 143.942706 
L 657.61006 139.270038 
L 658.090938 126.667216 
L 658.732108 105.37333 
L 659.052694 288.334685 
L 659.373279 352.34624 
L 659.693864 379.793291 
L 660.174742 400.28928 
L 660.495327 405.869428 
L 660.65562 406.764029 
L 660.815912 406.719546 
L 661.136498 404.970947 
L 661.617376 402.195044 
L 661.777668 402.016246 
L 661.937961 402.38838 
L 662.258546 404.857744 
L 662.739424 412.117445 
L 663.70118 428.376903 
L 664.021765 430.738057 
L 664.182058 430.919725 
L 664.34235 430.360891 
L 664.662935 426.901686 
L 664.983521 420.286448 
L 665.464399 404.873059 
L 666.105569 376.397551 
L 668.189373 277.210529 
L 668.830544 259.275565 
L 669.311422 251.682059 
L 669.632007 249.35617 
L 669.792299 248.970618 
L 669.952592 249.075975 
L 670.112885 249.648331 
L 670.43347 252.087867 
L 670.914348 258.547759 
L 671.555518 271.096726 
L 672.837859 302.646495 
L 674.280493 336.479325 
L 675.242249 353.796396 
L 676.043712 364.42161 
L 676.845175 371.863044 
L 677.486345 375.887413 
L 678.127516 378.552349 
L 678.768686 380.183517 
L 679.249564 380.907266 
L 679.730442 381.323459 
L 680.371613 381.554419 
L 681.173076 381.551133 
L 684.218636 381.262599 
L 685.981855 381.458425 
L 689.508292 381.89366 
L 692.39356 381.975912 
L 694.156778 381.970462 
L 694.477364 163.014007 
L 694.797949 91.993762 
L 694.958242 80.947105 
L 695.118534 78.124466 
L 695.278827 80.22415 
L 695.599412 91.723199 
L 696.561168 132.670171 
L 697.042046 143.269493 
L 697.202338 144.601358 
L 697.362631 144.812646 
L 697.522924 143.943104 
L 697.843509 139.27024 
L 698.324387 126.667182 
L 698.965557 105.373083 
L 699.286142 288.334362 
L 699.606728 352.345862 
L 699.927313 379.792878 
L 700.408191 400.288841 
L 700.728776 405.868988 
L 700.889069 406.763593 
L 701.049361 406.719116 
L 701.369947 404.970534 
L 701.850824 402.194668 
L 702.011117 402.015885 
L 702.17141 402.388033 
L 702.491995 404.85743 
L 702.972873 412.117179 
L 703.934629 428.37673 
L 704.255214 430.737911 
L 704.415506 430.919592 
L 704.575799 430.360769 
L 704.896384 426.901586 
L 705.21697 420.286368 
L 705.697847 404.873003 
L 706.339018 376.397518 
L 708.422822 277.210528 
L 709.063993 259.275565 
L 709.54487 251.682059 
L 709.865456 249.356169 
L 710.025748 248.970617 
L 710.186041 249.075974 
L 710.346334 249.64833 
L 710.666919 252.087864 
L 711.147797 258.547756 
L 711.788967 271.096722 
L 713.071308 302.64649 
L 714.513942 336.479321 
L 715.475698 353.796393 
L 716.277161 364.421607 
L 717.078624 371.863043 
L 717.719794 375.887412 
L 718.360965 378.552349 
L 719.002135 380.183517 
L 719.483013 380.907266 
L 719.963891 381.323459 
L 720.605062 381.554419 
L 721.406525 381.551133 
L 724.452085 381.262599 
L 726.215303 381.458425 
L 729.741741 381.89366 
L 732.627008 381.975912 
L 734.069642 381.97225 
L 734.390227 163.015904 
L 734.710813 91.995672 
L 734.871105 80.948991 
L 735.031398 78.12631 
L 735.19169 80.225937 
L 735.512276 91.724833 
L 736.474031 132.671209 
L 736.954909 143.270229 
L 737.115202 144.601999 
L 737.275495 144.813197 
L 737.435787 143.943569 
L 737.756372 139.270548 
L 738.23725 126.667295 
L 738.878421 105.373009 
L 739.199006 288.334216 
L 739.519591 352.345661 
L 739.840177 379.792635 
L 740.321054 400.288561 
L 740.64164 405.868697 
L 740.801932 406.763299 
L 740.962225 406.718822 
L 741.28281 404.970245 
L 741.763688 402.194396 
L 741.923981 402.015621 
L 742.084273 402.387779 
L 742.404859 404.857195 
L 742.885736 412.116976 
L 743.847492 428.376591 
L 744.168077 430.737792 
L 744.32837 430.919482 
L 744.488663 430.360668 
L 744.809248 426.901502 
L 745.129833 420.286299 
L 745.610711 404.872953 
L 746.251882 376.397488 
L 748.335686 277.210527 
L 748.976856 259.275566 
L 749.457734 251.68206 
L 749.778319 249.35617 
L 749.938612 248.970617 
L 750.098905 249.075974 
L 750.259197 249.64833 
L 750.579782 252.087864 
L 751.06066 258.547755 
L 751.701831 271.09672 
L 752.984172 302.646487 
L 754.426805 336.479318 
L 755.388561 353.79639 
L 756.190024 364.421606 
L 756.991487 371.863041 
L 757.632658 375.887411 
L 758.273828 378.552348 
L 758.914999 380.183516 
L 759.395877 380.907266 
L 759.876755 381.323459 
L 760.517925 381.554419 
L 761.319388 381.551133 
L 764.364948 381.262599 
L 766.128167 381.458425 
L 769.654605 381.89366 
L 772.539872 381.975912 
L 773.822213 381.973088 
L 774.142798 163.016838 
L 774.463384 91.996645 
L 774.623676 80.949965 
L 774.783969 78.127274 
L 774.944261 80.226882 
L 775.264847 91.725717 
L 776.226602 132.671806 
L 776.70748 143.27067 
L 776.867773 144.602391 
L 777.028066 144.813541 
L 777.188358 143.943867 
L 777.508943 139.270761 
L 777.989821 126.6674 
L 778.630992 105.373005 
L 778.951577 288.334169 
L 779.272162 352.34558 
L 779.592748 379.792529 
L 780.073625 400.288429 
L 780.394211 405.868555 
L 780.554503 406.763154 
L 780.714796 406.718675 
L 781.035381 404.970098 
L 781.516259 402.194256 
L 781.676552 402.015484 
L 781.836844 402.387645 
L 782.15743 404.85707 
L 782.638307 412.116867 
L 783.600063 428.376515 
L 783.920648 430.737726 
L 784.080941 430.919421 
L 784.241234 430.360612 
L 784.561819 426.901455 
L 784.882404 420.286259 
L 785.363282 404.872924 
L 786.004453 376.39747 
L 788.088257 277.210526 
L 788.729427 259.275566 
L 789.210305 251.68206 
L 789.53089 249.35617 
L 789.691183 248.970618 
L 789.851476 249.075974 
L 790.011768 249.64833 
L 790.332353 252.087864 
L 790.813231 258.547755 
L 791.454402 271.096719 
L 792.736743 302.646486 
L 794.179376 336.479317 
L 795.141132 353.796389 
L 795.942595 364.421605 
L 796.744058 371.863041 
L 797.385229 375.887411 
L 798.026399 378.552348 
L 798.66757 380.183516 
L 799.148448 380.907266 
L 799.629326 381.323459 
L 800.270496 381.554419 
L 801.071959 381.551133 
L 804.117519 381.262599 
L 805.880738 381.458425 
L 809.407176 381.89366 
L 812.292443 381.975912 
L 813.414491 381.973866 
L 813.735077 163.017745 
L 814.055662 91.997617 
L 814.215955 80.950948 
L 814.376247 78.128257 
L 814.53654 80.227853 
L 814.857125 91.726639 
L 815.818881 132.672456 
L 816.299759 143.271163 
L 816.460051 144.602833 
L 816.620344 144.813933 
L 816.780637 143.944211 
L 817.101222 139.271016 
L 817.5821 126.667539 
L 818.22327 105.373027 
L 818.543855 288.334143 
L 818.864441 352.345515 
L 819.185026 379.792435 
L 819.665904 400.288304 
L 819.986489 405.868417 
L 820.146782 406.763012 
L 820.307074 406.718531 
L 820.62766 404.969952 
L 821.108537 402.194113 
L 821.26883 402.015344 
L 821.429123 402.387508 
L 821.749708 404.856941 
L 822.230586 412.116753 
L 823.192342 428.376433 
L 823.512927 430.737655 
L 823.673219 430.919355 
L 823.833512 430.360551 
L 824.154097 426.901404 
L 824.474683 420.286216 
L 824.95556 404.872893 
L 825.596731 376.39745 
L 827.680535 277.210524 
L 828.321706 259.275566 
L 828.802583 251.682061 
L 829.123169 249.356171 
L 829.283461 248.970619 
L 829.443754 249.075975 
L 829.604047 249.64833 
L 829.924632 252.087864 
L 830.40551 258.547755 
L 831.04668 271.096718 
L 832.329021 302.646484 
L 833.771655 336.479315 
L 834.733411 353.796388 
L 835.534874 364.421604 
L 836.336337 371.86304 
L 836.977507 375.88741 
L 837.618678 378.552347 
L 838.259848 380.183516 
L 838.740726 380.907266 
L 839.221604 381.323459 
L 839.862775 381.554419 
L 840.664238 381.551133 
L 843.709798 381.262599 
L 845.473016 381.458425 
L 848.999454 381.89366 
L 851.884721 381.975912 
L 854.609696 381.96509 
L 854.930281 163.008783 
L 855.250867 91.988852 
L 855.411159 80.942403 
L 855.571452 78.12 
L 855.731744 80.219942 
L 856.05233 91.719552 
L 857.014085 132.668277 
L 857.494963 143.268365 
L 857.655256 144.600457 
L 857.815549 144.811958 
L 857.975841 143.942612 
L 858.296426 139.270095 
L 858.777304 126.667443 
L 859.418475 105.373692 
L 859.73906 288.335088 
L 860.059645 352.346668 
L 860.380231 379.793731 
L 860.861108 400.289716 
L 861.181694 405.86985 
L 861.341986 406.764441 
L 861.502279 406.719947 
L 861.822864 404.971322 
L 862.303742 402.195373 
L 862.464035 402.01656 
L 862.624327 402.388677 
L 862.944913 404.858009 
L 863.42579 412.117662 
L 864.387546 428.377037 
L 864.708131 430.738168 
L 864.868424 430.919826 
L 865.028717 430.360981 
L 865.349302 426.901759 
L 865.669887 420.286506 
L 866.150765 404.873098 
L 866.791936 376.397571 
L 868.87574 277.21053 
L 869.51691 259.275566 
L 869.997788 251.682061 
L 870.318373 249.356172 
L 870.478666 248.97062 
L 870.638959 249.075977 
L 870.799251 249.648334 
L 871.119836 252.08787 
L 871.600714 258.547763 
L 872.241885 271.096731 
L 873.524226 302.6465 
L 874.966859 336.479329 
L 875.928615 353.796399 
L 876.730078 364.421612 
L 877.531541 371.863045 
L 878.172712 375.887414 
L 878.813882 378.55235 
L 879.455053 380.183517 
L 879.935931 380.907267 
L 880.416809 381.323459 
L 881.057979 381.554419 
L 881.859442 381.551133 
L 884.905002 381.262599 
L 886.668221 381.458425 
L 890.194659 381.89366 
L 893.079926 381.975912 
L 894.362267 381.973088 
L 894.682852 163.016838 
L 895.003438 91.996645 
L 895.16373 80.949965 
L 895.324023 78.127274 
L 895.484315 80.226882 
L 895.804901 91.725717 
L 896.766656 132.671806 
L 897.247534 143.27067 
L 897.407827 144.602391 
L 897.56812 144.813541 
L 897.728412 143.943867 
L 898.048997 139.270761 
L 898.529875 126.6674 
L 899.171046 105.373005 
L 899.491631 288.334169 
L 899.812216 352.34558 
L 900.132802 379.792529 
L 900.613679 400.288429 
L 900.934265 405.868555 
L 901.094557 406.763154 
L 901.25485 406.718675 
L 901.575435 404.970098 
L 902.056313 402.194256 
L 902.216606 402.015484 
L 902.376898 402.387645 
L 902.697484 404.85707 
L 903.178361 412.116867 
L 904.140117 428.376515 
L 904.460702 430.737726 
L 904.620995 430.919421 
L 904.781288 430.360612 
L 905.101873 426.901455 
L 905.422458 420.286259 
L 905.903336 404.872924 
L 906.544507 376.39747 
L 908.628311 277.210526 
L 909.269481 259.275566 
L 909.750359 251.68206 
L 910.070944 249.35617 
L 910.231237 248.970618 
L 910.39153 249.075974 
L 910.551822 249.64833 
L 910.872407 252.087864 
L 911.353285 258.547755 
L 911.994456 271.096719 
L 913.276797 302.646486 
L 914.71943 336.479317 
L 915.681186 353.796389 
L 916.482649 364.421605 
L 917.284112 371.863041 
L 917.925283 375.887411 
L 918.566453 378.552348 
L 919.207624 380.183516 
L 919.688502 380.907266 
L 920.16938 381.323459 
L 920.81055 381.554419 
L 921.612013 381.551133 
L 924.657573 381.262599 
L 926.420792 381.458425 
L 929.94723 381.89366 
L 932.832497 381.975912 
L 933.794253 381.974567 
L 933.954545 244.653634 
L 933.954545 244.653634 
" clip-path="url(#p0db5fc523b)" style="fill: none; stroke: #1f77b4; stroke-width: 1.5; stroke-linecap: square"/>
   </g>
   <g id="line2d_14">
    <path d="M 173.045455 105.527957 
L 177.693941 105.527957 
L 177.854233 381.963973 
L 213.278903 381.963973 
L 213.439196 105.527957 
L 218.087682 105.527957 
L 218.247975 381.963973 
L 253.99323 381.963973 
L 254.153523 105.527957 
L 258.802009 105.527957 
L 258.962302 381.963973 
L 293.585509 381.963973 
L 293.745801 105.527957 
L 298.394287 105.527957 
L 298.55458 381.963973 
L 333.818957 381.963973 
L 333.97925 105.527957 
L 338.627736 105.527957 
L 338.788029 381.963973 
L 373.090651 381.963973 
L 373.250943 105.527957 
L 377.899429 105.527957 
L 378.059722 381.963973 
L 413.644685 381.963973 
L 413.804977 105.527957 
L 418.453463 105.527957 
L 418.613756 381.963973 
L 453.557548 381.963973 
L 453.717841 105.527957 
L 458.366327 105.527957 
L 458.52662 381.963973 
L 493.630705 381.963973 
L 493.790997 105.527957 
L 498.439483 105.527957 
L 498.599776 381.963973 
L 533.864153 381.963973 
L 534.024446 105.527957 
L 538.672932 105.527957 
L 538.833225 381.963973 
L 574.257895 381.963973 
L 574.418188 105.527957 
L 579.066674 105.527957 
L 579.226966 381.963973 
L 613.209003 381.963973 
L 613.369295 105.527957 
L 618.017782 105.527957 
L 618.178074 381.963973 
L 653.92333 381.963973 
L 654.083622 105.527957 
L 658.732108 105.527957 
L 658.892401 381.963973 
L 694.156778 381.963973 
L 694.317071 105.527957 
L 698.965557 105.527957 
L 699.12585 381.963973 
L 734.069642 381.963973 
L 734.229935 105.527957 
L 738.878421 105.527957 
L 739.038713 381.963973 
L 773.822213 381.963973 
L 773.982506 105.527957 
L 778.630992 105.527957 
L 778.791284 381.963973 
L 813.414491 381.963973 
L 813.574784 105.527957 
L 818.22327 105.527957 
L 818.383563 381.963973 
L 854.609696 381.963973 
L 854.769989 105.527957 
L 859.418475 105.527957 
L 859.578767 381.963973 
L 894.362267 381.963973 
L 894.52256 105.527957 
L 899.171046 105.527957 
L 899.331338 381.963973 
L 933.794253 381.963973 
L 933.954545 105.527957 
L 933.954545 105.527957 
" clip-path="url(#p0db5fc523b)" style="fill: none; stroke: #ff7f0e; stroke-width: 1.5; stroke-linecap: square"/>
   </g>
   <g id="line2d_15">
    <path d="M 929.466352 381.963973 
" clip-path="url(#p0db5fc523b)" style="fill: none; stroke: #000000; stroke-width: 1.5; stroke-linecap: square"/>
    <defs>
     <path id="mb61de33e66" d="M 0 1 
C 0.265203 1 0.51958 0.894634 0.707107 0.707107 
C 0.894634 0.51958 1 0.265203 1 0 
C 1 -0.265203 0.894634 -0.51958 0.707107 -0.707107 
C 0.51958 -0.894634 0.265203 -1 0 -1 
C -0.265203 -1 -0.51958 -0.894634 -0.707107 -0.707107 
C -0.894634 -0.51958 -1 -0.265203 -1 0 
C -1 0.265203 -0.894634 0.51958 -0.707107 0.707107 
C -0.51958 0.894634 -0.265203 1 0 1 
z
" style="stroke: #000000"/>
    </defs>
    <g clip-path="url(#p0db5fc523b)">
     <use xlink:href="#mb61de33e66" x="173.045455" y="105.527957" style="stroke: #000000"/>
     <use xlink:href="#mb61de33e66" x="178.174819" y="381.963973" style="stroke: #000000"/>
     <use xlink:href="#mb61de33e66" x="183.14389" y="381.963973" style="stroke: #000000"/>
     <use xlink:href="#mb61de33e66" x="188.112961" y="105.527957" style="stroke: #000000"/>
     <use xlink:href="#mb61de33e66" x="193.082033" y="381.963973" style="stroke: #000000"/>
     <use xlink:href="#mb61de33e66" x="198.211397" y="381.963973" style="stroke: #000000"/>
     <use xlink:href="#mb61de33e66" x="203.180468" y="105.527957" style="stroke: #000000"/>
     <use xlink:href="#mb61de33e66" x="208.149539" y="381.963973" style="stroke: #000000"/>
     <use xlink:href="#mb61de33e66" x="213.118611" y="105.527957" style="stroke: #000000"/>
     <use xlink:href="#mb61de33e66" x="218.247975" y="381.963973" style="stroke: #000000"/>
     <use xlink:href="#mb61de33e66" x="223.217046" y="381.963973" style="stroke: #000000"/>
     <use xlink:href="#mb61de33e66" x="228.186118" y="105.527957" style="stroke: #000000"/>
     <use xlink:href="#mb61de33e66" x="233.155189" y="381.963973" style="stroke: #000000"/>
     <use xlink:href="#mb61de33e66" x="238.284553" y="381.963973" style="stroke: #000000"/>
     <use xlink:href="#mb61de33e66" x="243.253624" y="105.527957" style="stroke: #000000"/>
     <use xlink:href="#mb61de33e66" x="248.222696" y="381.963973" style="stroke: #000000"/>
     <use xlink:href="#mb61de33e66" x="253.191767" y="105.527957" style="stroke: #000000"/>
     <use xlink:href="#mb61de33e66" x="258.321131" y="381.963973" style="stroke: #000000"/>
     <use xlink:href="#mb61de33e66" x="263.290202" y="381.963973" style="stroke: #000000"/>
     <use xlink:href="#mb61de33e66" x="268.259274" y="105.527957" style="stroke: #000000"/>
     <use xlink:href="#mb61de33e66" x="273.228345" y="381.963973" style="stroke: #000000"/>
     <use xlink:href="#mb61de33e66" x="278.357709" y="381.963973" style="stroke: #000000"/>
     <use xlink:href="#mb61de33e66" x="283.326781" y="105.527957" style="stroke: #000000"/>
     <use xlink:href="#mb61de33e66" x="288.295852" y="381.963973" style="stroke: #000000"/>
     <use xlink:href="#mb61de33e66" x="293.264923" y="105.527957" style="stroke: #000000"/>
     <use xlink:href="#mb61de33e66" x="298.394287" y="381.963973" style="stroke: #000000"/>
     <use xlink:href="#mb61de33e66" x="303.363359" y="381.963973" style="stroke: #000000"/>
     <use xlink:href="#mb61de33e66" x="308.33243" y="105.527957" style="stroke: #000000"/>
     <use xlink:href="#mb61de33e66" x="313.301501" y="381.963973" style="stroke: #000000"/>
     <use xlink:href="#mb61de33e66" x="318.430865" y="381.963973" style="stroke: #000000"/>
     <use xlink:href="#mb61de33e66" x="323.399937" y="105.527957" style="stroke: #000000"/>
     <use xlink:href="#mb61de33e66" x="328.369008" y="381.963973" style="stroke: #000000"/>
     <use xlink:href="#mb61de33e66" x="333.33808" y="105.527957" style="stroke: #000000"/>
     <use xlink:href="#mb61de33e66" x="338.467444" y="381.963973" style="stroke: #000000"/>
     <use xlink:href="#mb61de33e66" x="343.436515" y="381.963973" style="stroke: #000000"/>
     <use xlink:href="#mb61de33e66" x="348.405586" y="105.527957" style="stroke: #000000"/>
     <use xlink:href="#mb61de33e66" x="353.374658" y="381.963973" style="stroke: #000000"/>
     <use xlink:href="#mb61de33e66" x="358.504022" y="381.963973" style="stroke: #000000"/>
     <use xlink:href="#mb61de33e66" x="363.473093" y="105.527957" style="stroke: #000000"/>
     <use xlink:href="#mb61de33e66" x="368.442164" y="381.963973" style="stroke: #000000"/>
     <use xlink:href="#mb61de33e66" x="373.411236" y="105.527957" style="stroke: #000000"/>
     <use xlink:href="#mb61de33e66" x="378.5406" y="381.963973" style="stroke: #000000"/>
     <use xlink:href="#mb61de33e66" x="383.509671" y="381.963973" style="stroke: #000000"/>
     <use xlink:href="#mb61de33e66" x="388.478743" y="105.527957" style="stroke: #000000"/>
     <use xlink:href="#mb61de33e66" x="393.447814" y="381.963973" style="stroke: #000000"/>
     <use xlink:href="#mb61de33e66" x="398.577178" y="381.963973" style="stroke: #000000"/>
     <use xlink:href="#mb61de33e66" x="403.546249" y="105.527957" style="stroke: #000000"/>
     <use xlink:href="#mb61de33e66" x="408.515321" y="381.963973" style="stroke: #000000"/>
     <use xlink:href="#mb61de33e66" x="413.484392" y="105.527957" style="stroke: #000000"/>
     <use xlink:href="#mb61de33e66" x="418.613756" y="381.963973" style="stroke: #000000"/>
     <use xlink:href="#mb61de33e66" x="423.582827" y="381.963973" style="stroke: #000000"/>
     <use xlink:href="#mb61de33e66" x="428.551899" y="105.527957" style="stroke: #000000"/>
     <use xlink:href="#mb61de33e66" x="433.52097" y="381.963973" style="stroke: #000000"/>
     <use xlink:href="#mb61de33e66" x="438.650334" y="381.963973" style="stroke: #000000"/>
     <use xlink:href="#mb61de33e66" x="443.619406" y="105.527957" style="stroke: #000000"/>
     <use xlink:href="#mb61de33e66" x="448.588477" y="381.963973" style="stroke: #000000"/>
     <use xlink:href="#mb61de33e66" x="453.557548" y="105.527957" style="stroke: #000000"/>
     <use xlink:href="#mb61de33e66" x="458.686912" y="381.963973" style="stroke: #000000"/>
     <use xlink:href="#mb61de33e66" x="463.655984" y="381.963973" style="stroke: #000000"/>
     <use xlink:href="#mb61de33e66" x="468.625055" y="105.527957" style="stroke: #000000"/>
     <use xlink:href="#mb61de33e66" x="473.594126" y="381.963973" style="stroke: #000000"/>
     <use xlink:href="#mb61de33e66" x="478.72349" y="381.963973" style="stroke: #000000"/>
     <use xlink:href="#mb61de33e66" x="483.692562" y="105.527957" style="stroke: #000000"/>
     <use xlink:href="#mb61de33e66" x="488.661633" y="381.963973" style="stroke: #000000"/>
     <use xlink:href="#mb61de33e66" x="493.630705" y="105.527957" style="stroke: #000000"/>
     <use xlink:href="#mb61de33e66" x="498.760069" y="381.963973" style="stroke: #000000"/>
     <use xlink:href="#mb61de33e66" x="503.72914" y="381.963973" style="stroke: #000000"/>
     <use xlink:href="#mb61de33e66" x="508.698211" y="105.527957" style="stroke: #000000"/>
     <use xlink:href="#mb61de33e66" x="513.667283" y="381.963973" style="stroke: #000000"/>
     <use xlink:href="#mb61de33e66" x="518.796647" y="381.963973" style="stroke: #000000"/>
     <use xlink:href="#mb61de33e66" x="523.765718" y="105.527957" style="stroke: #000000"/>
     <use xlink:href="#mb61de33e66" x="528.734789" y="381.963973" style="stroke: #000000"/>
     <use xlink:href="#mb61de33e66" x="533.703861" y="105.527957" style="stroke: #000000"/>
     <use xlink:href="#mb61de33e66" x="538.833225" y="381.963973" style="stroke: #000000"/>
     <use xlink:href="#mb61de33e66" x="543.802296" y="381.963973" style="stroke: #000000"/>
     <use xlink:href="#mb61de33e66" x="548.771368" y="105.527957" style="stroke: #000000"/>
     <use xlink:href="#mb61de33e66" x="553.740439" y="381.963973" style="stroke: #000000"/>
     <use xlink:href="#mb61de33e66" x="558.869803" y="381.963973" style="stroke: #000000"/>
     <use xlink:href="#mb61de33e66" x="563.838874" y="105.527957" style="stroke: #000000"/>
     <use xlink:href="#mb61de33e66" x="568.807946" y="381.963973" style="stroke: #000000"/>
     <use xlink:href="#mb61de33e66" x="573.777017" y="105.527957" style="stroke: #000000"/>
     <use xlink:href="#mb61de33e66" x="578.906381" y="381.963973" style="stroke: #000000"/>
     <use xlink:href="#mb61de33e66" x="583.875452" y="381.963973" style="stroke: #000000"/>
     <use xlink:href="#mb61de33e66" x="588.844524" y="105.527957" style="stroke: #000000"/>
     <use xlink:href="#mb61de33e66" x="593.813595" y="381.963973" style="stroke: #000000"/>
     <use xlink:href="#mb61de33e66" x="598.942959" y="381.963973" style="stroke: #000000"/>
     <use xlink:href="#mb61de33e66" x="603.912031" y="105.527957" style="stroke: #000000"/>
     <use xlink:href="#mb61de33e66" x="608.881102" y="381.963973" style="stroke: #000000"/>
     <use xlink:href="#mb61de33e66" x="613.850173" y="105.527957" style="stroke: #000000"/>
     <use xlink:href="#mb61de33e66" x="618.979537" y="381.963973" style="stroke: #000000"/>
     <use xlink:href="#mb61de33e66" x="623.948609" y="381.963973" style="stroke: #000000"/>
     <use xlink:href="#mb61de33e66" x="628.91768" y="105.527957" style="stroke: #000000"/>
     <use xlink:href="#mb61de33e66" x="633.886751" y="381.963973" style="stroke: #000000"/>
     <use xlink:href="#mb61de33e66" x="639.016115" y="381.963973" style="stroke: #000000"/>
     <use xlink:href="#mb61de33e66" x="643.985187" y="105.527957" style="stroke: #000000"/>
     <use xlink:href="#mb61de33e66" x="648.954258" y="381.963973" style="stroke: #000000"/>
     <use xlink:href="#mb61de33e66" x="653.92333" y="105.527957" style="stroke: #000000"/>
     <use xlink:href="#mb61de33e66" x="659.052694" y="381.963973" style="stroke: #000000"/>
     <use xlink:href="#mb61de33e66" x="664.021765" y="381.963973" style="stroke: #000000"/>
     <use xlink:href="#mb61de33e66" x="668.990836" y="105.527957" style="stroke: #000000"/>
     <use xlink:href="#mb61de33e66" x="673.959908" y="381.963973" style="stroke: #000000"/>
     <use xlink:href="#mb61de33e66" x="679.089272" y="381.963973" style="stroke: #000000"/>
     <use xlink:href="#mb61de33e66" x="684.058343" y="105.527957" style="stroke: #000000"/>
     <use xlink:href="#mb61de33e66" x="689.027414" y="381.963973" style="stroke: #000000"/>
     <use xlink:href="#mb61de33e66" x="693.996486" y="105.527957" style="stroke: #000000"/>
     <use xlink:href="#mb61de33e66" x="699.12585" y="381.963973" style="stroke: #000000"/>
     <use xlink:href="#mb61de33e66" x="704.094921" y="381.963973" style="stroke: #000000"/>
     <use xlink:href="#mb61de33e66" x="709.063993" y="105.527957" style="stroke: #000000"/>
     <use xlink:href="#mb61de33e66" x="714.033064" y="381.963973" style="stroke: #000000"/>
     <use xlink:href="#mb61de33e66" x="719.162428" y="381.963973" style="stroke: #000000"/>
     <use xlink:href="#mb61de33e66" x="724.131499" y="105.527957" style="stroke: #000000"/>
     <use xlink:href="#mb61de33e66" x="729.100571" y="381.963973" style="stroke: #000000"/>
     <use xlink:href="#mb61de33e66" x="734.069642" y="105.527957" style="stroke: #000000"/>
     <use xlink:href="#mb61de33e66" x="739.199006" y="381.963973" style="stroke: #000000"/>
     <use xlink:href="#mb61de33e66" x="744.168077" y="381.963973" style="stroke: #000000"/>
     <use xlink:href="#mb61de33e66" x="749.137149" y="105.527957" style="stroke: #000000"/>
     <use xlink:href="#mb61de33e66" x="754.10622" y="381.963973" style="stroke: #000000"/>
     <use xlink:href="#mb61de33e66" x="759.235584" y="381.963973" style="stroke: #000000"/>
     <use xlink:href="#mb61de33e66" x="764.204656" y="105.527957" style="stroke: #000000"/>
     <use xlink:href="#mb61de33e66" x="769.173727" y="381.963973" style="stroke: #000000"/>
     <use xlink:href="#mb61de33e66" x="774.142798" y="105.527957" style="stroke: #000000"/>
     <use xlink:href="#mb61de33e66" x="779.272162" y="381.963973" style="stroke: #000000"/>
     <use xlink:href="#mb61de33e66" x="784.241234" y="381.963973" style="stroke: #000000"/>
     <use xlink:href="#mb61de33e66" x="789.210305" y="105.527957" style="stroke: #000000"/>
     <use xlink:href="#mb61de33e66" x="794.179376" y="381.963973" style="stroke: #000000"/>
     <use xlink:href="#mb61de33e66" x="799.30874" y="381.963973" style="stroke: #000000"/>
     <use xlink:href="#mb61de33e66" x="804.277812" y="105.527957" style="stroke: #000000"/>
     <use xlink:href="#mb61de33e66" x="809.246883" y="381.963973" style="stroke: #000000"/>
     <use xlink:href="#mb61de33e66" x="814.215955" y="105.527957" style="stroke: #000000"/>
     <use xlink:href="#mb61de33e66" x="819.345319" y="381.963973" style="stroke: #000000"/>
     <use xlink:href="#mb61de33e66" x="824.31439" y="381.963973" style="stroke: #000000"/>
     <use xlink:href="#mb61de33e66" x="829.283461" y="105.527957" style="stroke: #000000"/>
     <use xlink:href="#mb61de33e66" x="834.252533" y="381.963973" style="stroke: #000000"/>
     <use xlink:href="#mb61de33e66" x="839.381897" y="381.963973" style="stroke: #000000"/>
     <use xlink:href="#mb61de33e66" x="844.350968" y="105.527957" style="stroke: #000000"/>
     <use xlink:href="#mb61de33e66" x="849.320039" y="381.963973" style="stroke: #000000"/>
     <use xlink:href="#mb61de33e66" x="854.289111" y="105.527957" style="stroke: #000000"/>
     <use xlink:href="#mb61de33e66" x="859.418475" y="381.963973" style="stroke: #000000"/>
     <use xlink:href="#mb61de33e66" x="864.387546" y="381.963973" style="stroke: #000000"/>
     <use xlink:href="#mb61de33e66" x="869.356618" y="105.527957" style="stroke: #000000"/>
     <use xlink:href="#mb61de33e66" x="874.325689" y="381.963973" style="stroke: #000000"/>
     <use xlink:href="#mb61de33e66" x="879.455053" y="381.963973" style="stroke: #000000"/>
     <use xlink:href="#mb61de33e66" x="884.424124" y="105.527957" style="stroke: #000000"/>
     <use xlink:href="#mb61de33e66" x="889.393196" y="381.963973" style="stroke: #000000"/>
     <use xlink:href="#mb61de33e66" x="894.362267" y="105.527957" style="stroke: #000000"/>
     <use xlink:href="#mb61de33e66" x="899.491631" y="381.963973" style="stroke: #000000"/>
     <use xlink:href="#mb61de33e66" x="904.460702" y="381.963973" style="stroke: #000000"/>
     <use xlink:href="#mb61de33e66" x="909.429774" y="105.527957" style="stroke: #000000"/>
     <use xlink:href="#mb61de33e66" x="914.398845" y="381.963973" style="stroke: #000000"/>
     <use xlink:href="#mb61de33e66" x="919.528209" y="381.963973" style="stroke: #000000"/>
     <use xlink:href="#mb61de33e66" x="924.497281" y="105.527957" style="stroke: #000000"/>
     <use xlink:href="#mb61de33e66" x="929.466352" y="381.963973" style="stroke: #000000"/>
    </g>
   </g>
   <g id="patch_3">
    <path d="M 135 448.56 
L 135 60.48 
" style="fill: none; stroke: #000000; stroke-width: 0.8; stroke-linejoin: miter; stroke-linecap: square"/>
   </g>
   <g id="patch_4">
    <path d="M 972 448.56 
L 972 60.48 
" style="fill: none; stroke: #000000; stroke-width: 0.8; stroke-linejoin: miter; stroke-linecap: square"/>
   </g>
   <g id="patch_5">
    <path d="M 135 448.56 
L 972 448.56 
" style="fill: none; stroke: #000000; stroke-width: 0.8; stroke-linejoin: miter; stroke-linecap: square"/>
   </g>
   <g id="patch_6">
    <path d="M 135 60.48 
L 972 60.48 
" style="fill: none; stroke: #000000; stroke-width: 0.8; stroke-linejoin: miter; stroke-linecap: square"/>
   </g>
   <g id="legend_1">
    <g id="patch_7">
     <path d="M 142 278.315313 
L 211.084375 278.315313 
Q 213.084375 278.315313 213.084375 276.315313 
L 213.084375 232.724688 
Q 213.084375 230.724688 211.084375 230.724688 
L 142 230.724688 
Q 140 230.724688 140 232.724688 
L 140 276.315313 
Q 140 278.315313 142 278.315313 
z
" style="fill: #ffffff; opacity: 0.8; stroke: #cccccc; stroke-linejoin: miter"/>
    </g>
    <g id="line2d_16">
     <path d="M 144 238.823125 
L 154 238.823125 
L 164 238.823125 
" style="fill: none; stroke: #1f77b4; stroke-width: 1.5; stroke-linecap: square"/>
    </g>
    <g id="text_14">
     <!-- nw_0 -->
     <g transform="translate(172 242.323125) scale(0.1 -0.1)">
      <defs>
       <path id="DejaVuSans-6e" d="M 3513 2113 
L 3513 0 
L 2938 0 
L 2938 2094 
Q 2938 2591 2744 2837 
Q 2550 3084 2163 3084 
Q 1697 3084 1428 2787 
Q 1159 2491 1159 1978 
L 1159 0 
L 581 0 
L 581 3500 
L 1159 3500 
L 1159 2956 
Q 1366 3272 1645 3428 
Q 1925 3584 2291 3584 
Q 2894 3584 3203 3211 
Q 3513 2838 3513 2113 
z
" transform="scale(0.015625)"/>
       <path id="DejaVuSans-77" d="M 269 3500 
L 844 3500 
L 1563 769 
L 2278 3500 
L 2956 3500 
L 3675 769 
L 4391 3500 
L 4966 3500 
L 4050 0 
L 3372 0 
L 2619 2869 
L 1863 0 
L 1184 0 
L 269 3500 
z
" transform="scale(0.015625)"/>
       <path id="DejaVuSans-5f" d="M 3263 -1063 
L 3263 -1509 
L -63 -1509 
L -63 -1063 
L 3263 -1063 
z
" transform="scale(0.015625)"/>
      </defs>
      <use xlink:href="#DejaVuSans-6e"/>
      <use xlink:href="#DejaVuSans-77" x="63.378906"/>
      <use xlink:href="#DejaVuSans-5f" x="145.166016"/>
      <use xlink:href="#DejaVuSans-30" x="195.166016"/>
     </g>
    </g>
    <g id="line2d_17">
     <path d="M 144 253.779375 
L 154 253.779375 
L 164 253.779375 
" style="fill: none; stroke: #ff7f0e; stroke-width: 1.5; stroke-linecap: square"/>
    </g>
    <g id="text_15">
     <!-- input_0 -->
     <g transform="translate(172 257.279375) scale(0.1 -0.1)">
      <defs>
       <path id="DejaVuSans-69" d="M 603 3500 
L 1178 3500 
L 1178 0 
L 603 0 
L 603 3500 
z
M 603 4863 
L 1178 4863 
L 1178 4134 
L 603 4134 
L 603 4863 
z
" transform="scale(0.015625)"/>
       <path id="DejaVuSans-70" d="M 1159 525 
L 1159 -1331 
L 581 -1331 
L 581 3500 
L 1159 3500 
L 1159 2969 
Q 1341 3281 1617 3432 
Q 1894 3584 2278 3584 
Q 2916 3584 3314 3078 
Q 3713 2572 3713 1747 
Q 3713 922 3314 415 
Q 2916 -91 2278 -91 
Q 1894 -91 1617 61 
Q 1341 213 1159 525 
z
M 3116 1747 
Q 3116 2381 2855 2742 
Q 2594 3103 2138 3103 
Q 1681 3103 1420 2742 
Q 1159 2381 1159 1747 
Q 1159 1113 1420 752 
Q 1681 391 2138 391 
Q 2594 391 2855 752 
Q 3116 1113 3116 1747 
z
" transform="scale(0.015625)"/>
       <path id="DejaVuSans-75" d="M 544 1381 
L 544 3500 
L 1119 3500 
L 1119 1403 
Q 1119 906 1312 657 
Q 1506 409 1894 409 
Q 2359 409 2629 706 
Q 2900 1003 2900 1516 
L 2900 3500 
L 3475 3500 
L 3475 0 
L 2900 0 
L 2900 538 
Q 2691 219 2414 64 
Q 2138 -91 1772 -91 
Q 1169 -91 856 284 
Q 544 659 544 1381 
z
M 1991 3584 
L 1991 3584 
z
" transform="scale(0.015625)"/>
      </defs>
      <use xlink:href="#DejaVuSans-69"/>
      <use xlink:href="#DejaVuSans-6e" x="27.783203"/>
      <use xlink:href="#DejaVuSans-70" x="91.162109"/>
      <use xlink:href="#DejaVuSans-75" x="154.638672"/>
      <use xlink:href="#DejaVuSans-74" x="218.017578"/>
      <use xlink:href="#DejaVuSans-5f" x="257.226562"/>
      <use xlink:href="#DejaVuSans-30" x="307.226562"/>
     </g>
    </g>
    <g id="line2d_18">
     <path d="M 144 268.735625 
L 154 268.735625 
L 164 268.735625 
" style="fill: none; stroke: #000000; stroke-width: 1.5; stroke-linecap: square"/>
     <g>
      <use xlink:href="#mb61de33e66" x="154" y="268.735625" style="stroke: #000000"/>
     </g>
    </g>
    <g id="text_16">
     <!-- target -->
     <g transform="translate(172 272.235625) scale(0.1 -0.1)">
      <defs>
       <path id="DejaVuSans-61" d="M 2194 1759 
Q 1497 1759 1228 1600 
Q 959 1441 959 1056 
Q 959 750 1161 570 
Q 1363 391 1709 391 
Q 2188 391 2477 730 
Q 2766 1069 2766 1631 
L 2766 1759 
L 2194 1759 
z
M 3341 1997 
L 3341 0 
L 2766 0 
L 2766 531 
Q 2569 213 2275 61 
Q 1981 -91 1556 -91 
Q 1019 -91 701 211 
Q 384 513 384 1019 
Q 384 1609 779 1909 
Q 1175 2209 1959 2209 
L 2766 2209 
L 2766 2266 
Q 2766 2663 2505 2880 
Q 2244 3097 1772 3097 
Q 1472 3097 1187 3025 
Q 903 2953 641 2809 
L 641 3341 
Q 956 3463 1253 3523 
Q 1550 3584 1831 3584 
Q 2591 3584 2966 3190 
Q 3341 2797 3341 1997 
z
" transform="scale(0.015625)"/>
       <path id="DejaVuSans-72" d="M 2631 2963 
Q 2534 3019 2420 3045 
Q 2306 3072 2169 3072 
Q 1681 3072 1420 2755 
Q 1159 2438 1159 1844 
L 1159 0 
L 581 0 
L 581 3500 
L 1159 3500 
L 1159 2956 
Q 1341 3275 1631 3429 
Q 1922 3584 2338 3584 
Q 2397 3584 2469 3576 
Q 2541 3569 2628 3553 
L 2631 2963 
z
" transform="scale(0.015625)"/>
       <path id="DejaVuSans-67" d="M 2906 1791 
Q 2906 2416 2648 2759 
Q 2391 3103 1925 3103 
Q 1463 3103 1205 2759 
Q 947 2416 947 1791 
Q 947 1169 1205 825 
Q 1463 481 1925 481 
Q 2391 481 2648 825 
Q 2906 1169 2906 1791 
z
M 3481 434 
Q 3481 -459 3084 -895 
Q 2688 -1331 1869 -1331 
Q 1566 -1331 1297 -1286 
Q 1028 -1241 775 -1147 
L 775 -588 
Q 1028 -725 1275 -790 
Q 1522 -856 1778 -856 
Q 2344 -856 2625 -561 
Q 2906 -266 2906 331 
L 2906 616 
Q 2728 306 2450 153 
Q 2172 0 1784 0 
Q 1141 0 747 490 
Q 353 981 353 1791 
Q 353 2603 747 3093 
Q 1141 3584 1784 3584 
Q 2172 3584 2450 3431 
Q 2728 3278 2906 2969 
L 2906 3500 
L 3481 3500 
L 3481 434 
z
" transform="scale(0.015625)"/>
       <path id="DejaVuSans-65" d="M 3597 1894 
L 3597 1613 
L 953 1613 
Q 991 1019 1311 708 
Q 1631 397 2203 397 
Q 2534 397 2845 478 
Q 3156 559 3463 722 
L 3463 178 
Q 3153 47 2828 -22 
Q 2503 -91 2169 -91 
Q 1331 -91 842 396 
Q 353 884 353 1716 
Q 353 2575 817 3079 
Q 1281 3584 2069 3584 
Q 2775 3584 3186 3129 
Q 3597 2675 3597 1894 
z
M 3022 2063 
Q 3016 2534 2758 2815 
Q 2500 3097 2075 3097 
Q 1594 3097 1305 2825 
Q 1016 2553 972 2059 
L 3022 2063 
z
" transform="scale(0.015625)"/>
      </defs>
      <use xlink:href="#DejaVuSans-74"/>
      <use xlink:href="#DejaVuSans-61" x="39.208984"/>
      <use xlink:href="#DejaVuSans-72" x="100.488281"/>
      <use xlink:href="#DejaVuSans-67" x="139.851562"/>
      <use xlink:href="#DejaVuSans-65" x="203.328125"/>
      <use xlink:href="#DejaVuSans-74" x="264.851562"/>
     </g>
    </g>
   </g>
  </g>
 </g>
 <defs>
  <clipPath id="p0db5fc523b">
   <rect x="135" y="60.48" width="837" height="388.08"/>
  </clipPath>
 </defs>
</svg>
