<?xml version="1.0" encoding="utf-8" standalone="no"?>
<!DOCTYPE svg PUBLIC "-//W3C//DTD SVG 1.1//EN"
  "http://www.w3.org/Graphics/SVG/1.1/DTD/svg11.dtd">
<svg xmlns:xlink="http://www.w3.org/1999/xlink" width="1080pt" height="504pt" viewBox="0 0 1080 504" xmlns="http://www.w3.org/2000/svg" version="1.1">
 <metadata>
  <rdf:RDF xmlns:dc="http://purl.org/dc/elements/1.1/" xmlns:cc="http://creativecommons.org/ns#" xmlns:rdf="http://www.w3.org/1999/02/22-rdf-syntax-ns#">
   <cc:Work>
    <dc:type rdf:resource="http://purl.org/dc/dcmitype/StillImage"/>
    <dc:date>2024-05-09T11:00:18.181432</dc:date>
    <dc:format>image/svg+xml</dc:format>
    <dc:creator>
     <cc:Agent>
      <dc:title>Matplotlib v3.7.1, https://matplotlib.org/</dc:title>
     </cc:Agent>
    </dc:creator>
   </cc:Work>
  </rdf:RDF>
 </metadata>
 <defs>
  <style type="text/css">*{stroke-linejoin: round; stroke-linecap: butt}</style>
 </defs>
 <g id="figure_1">
  <g id="patch_1">
   <path d="M 0 504 
L 1080 504 
L 1080 0 
L 0 0 
z
" style="fill: #ffffff"/>
  </g>
  <g id="axes_1">
   <g id="patch_2">
    <path d="M 135 448.56 
L 972 448.56 
L 972 60.48 
L 135 60.48 
z
" style="fill: #ffffff"/>
   </g>
   <g id="matplotlib.axis_1">
    <g id="xtick_1">
     <g id="line2d_1">
      <defs>
       <path id="m2e2e5674fe" d="M 0 0 
L 0 3.5 
" style="stroke: #000000; stroke-width: 0.8"/>
      </defs>
      <g>
       <use xlink:href="#m2e2e5674fe" x="173.045455" y="448.56" style="stroke: #000000; stroke-width: 0.8"/>
      </g>
     </g>
     <g id="text_1">
      <!-- 0 -->
      <g transform="translate(169.864205 463.158437) scale(0.1 -0.1)">
       <defs>
        <path id="DejaVuSans-30" d="M 2034 4250 
Q 1547 4250 1301 3770 
Q 1056 3291 1056 2328 
Q 1056 1369 1301 889 
Q 1547 409 2034 409 
Q 2525 409 2770 889 
Q 3016 1369 3016 2328 
Q 3016 3291 2770 3770 
Q 2525 4250 2034 4250 
z
M 2034 4750 
Q 2819 4750 3233 4129 
Q 3647 3509 3647 2328 
Q 3647 1150 3233 529 
Q 2819 -91 2034 -91 
Q 1250 -91 836 529 
Q 422 1150 422 2328 
Q 422 3509 836 4129 
Q 1250 4750 2034 4750 
z
" transform="scale(0.015625)"/>
       </defs>
       <use xlink:href="#DejaVuSans-30"/>
      </g>
     </g>
    </g>
    <g id="xtick_2">
     <g id="line2d_2">
      <g>
       <use xlink:href="#m2e2e5674fe" x="333.33808" y="448.56" style="stroke: #000000; stroke-width: 0.8"/>
      </g>
     </g>
     <g id="text_2">
      <!-- 1000 -->
      <g transform="translate(320.61308 463.158437) scale(0.1 -0.1)">
       <defs>
        <path id="DejaVuSans-31" d="M 794 531 
L 1825 531 
L 1825 4091 
L 703 3866 
L 703 4441 
L 1819 4666 
L 2450 4666 
L 2450 531 
L 3481 531 
L 3481 0 
L 794 0 
L 794 531 
z
" transform="scale(0.015625)"/>
       </defs>
       <use xlink:href="#DejaVuSans-31"/>
       <use xlink:href="#DejaVuSans-30" x="63.623047"/>
       <use xlink:href="#DejaVuSans-30" x="127.246094"/>
       <use xlink:href="#DejaVuSans-30" x="190.869141"/>
      </g>
     </g>
    </g>
    <g id="xtick_3">
     <g id="line2d_3">
      <g>
       <use xlink:href="#m2e2e5674fe" x="493.630705" y="448.56" style="stroke: #000000; stroke-width: 0.8"/>
      </g>
     </g>
     <g id="text_3">
      <!-- 2000 -->
      <g transform="translate(480.905705 463.158437) scale(0.1 -0.1)">
       <defs>
        <path id="DejaVuSans-32" d="M 1228 531 
L 3431 531 
L 3431 0 
L 469 0 
L 469 531 
Q 828 903 1448 1529 
Q 2069 2156 2228 2338 
Q 2531 2678 2651 2914 
Q 2772 3150 2772 3378 
Q 2772 3750 2511 3984 
Q 2250 4219 1831 4219 
Q 1534 4219 1204 4116 
Q 875 4013 500 3803 
L 500 4441 
Q 881 4594 1212 4672 
Q 1544 4750 1819 4750 
Q 2544 4750 2975 4387 
Q 3406 4025 3406 3419 
Q 3406 3131 3298 2873 
Q 3191 2616 2906 2266 
Q 2828 2175 2409 1742 
Q 1991 1309 1228 531 
z
" transform="scale(0.015625)"/>
       </defs>
       <use xlink:href="#DejaVuSans-32"/>
       <use xlink:href="#DejaVuSans-30" x="63.623047"/>
       <use xlink:href="#DejaVuSans-30" x="127.246094"/>
       <use xlink:href="#DejaVuSans-30" x="190.869141"/>
      </g>
     </g>
    </g>
    <g id="xtick_4">
     <g id="line2d_4">
      <g>
       <use xlink:href="#m2e2e5674fe" x="653.92333" y="448.56" style="stroke: #000000; stroke-width: 0.8"/>
      </g>
     </g>
     <g id="text_4">
      <!-- 3000 -->
      <g transform="translate(641.19833 463.158437) scale(0.1 -0.1)">
       <defs>
        <path id="DejaVuSans-33" d="M 2597 2516 
Q 3050 2419 3304 2112 
Q 3559 1806 3559 1356 
Q 3559 666 3084 287 
Q 2609 -91 1734 -91 
Q 1441 -91 1130 -33 
Q 819 25 488 141 
L 488 750 
Q 750 597 1062 519 
Q 1375 441 1716 441 
Q 2309 441 2620 675 
Q 2931 909 2931 1356 
Q 2931 1769 2642 2001 
Q 2353 2234 1838 2234 
L 1294 2234 
L 1294 2753 
L 1863 2753 
Q 2328 2753 2575 2939 
Q 2822 3125 2822 3475 
Q 2822 3834 2567 4026 
Q 2313 4219 1838 4219 
Q 1578 4219 1281 4162 
Q 984 4106 628 3988 
L 628 4550 
Q 988 4650 1302 4700 
Q 1616 4750 1894 4750 
Q 2613 4750 3031 4423 
Q 3450 4097 3450 3541 
Q 3450 3153 3228 2886 
Q 3006 2619 2597 2516 
z
" transform="scale(0.015625)"/>
       </defs>
       <use xlink:href="#DejaVuSans-33"/>
       <use xlink:href="#DejaVuSans-30" x="63.623047"/>
       <use xlink:href="#DejaVuSans-30" x="127.246094"/>
       <use xlink:href="#DejaVuSans-30" x="190.869141"/>
      </g>
     </g>
    </g>
    <g id="xtick_5">
     <g id="line2d_5">
      <g>
       <use xlink:href="#m2e2e5674fe" x="814.215955" y="448.56" style="stroke: #000000; stroke-width: 0.8"/>
      </g>
     </g>
     <g id="text_5">
      <!-- 4000 -->
      <g transform="translate(801.490955 463.158437) scale(0.1 -0.1)">
       <defs>
        <path id="DejaVuSans-34" d="M 2419 4116 
L 825 1625 
L 2419 1625 
L 2419 4116 
z
M 2253 4666 
L 3047 4666 
L 3047 1625 
L 3713 1625 
L 3713 1100 
L 3047 1100 
L 3047 0 
L 2419 0 
L 2419 1100 
L 313 1100 
L 313 1709 
L 2253 4666 
z
" transform="scale(0.015625)"/>
       </defs>
       <use xlink:href="#DejaVuSans-34"/>
       <use xlink:href="#DejaVuSans-30" x="63.623047"/>
       <use xlink:href="#DejaVuSans-30" x="127.246094"/>
       <use xlink:href="#DejaVuSans-30" x="190.869141"/>
      </g>
     </g>
    </g>
    <g id="text_6">
     <!-- t -->
     <g transform="translate(551.539844 476.836563) scale(0.1 -0.1)">
      <defs>
       <path id="DejaVuSans-74" d="M 1172 4494 
L 1172 3500 
L 2356 3500 
L 2356 3053 
L 1172 3053 
L 1172 1153 
Q 1172 725 1289 603 
Q 1406 481 1766 481 
L 2356 481 
L 2356 0 
L 1766 0 
Q 1100 0 847 248 
Q 594 497 594 1153 
L 594 3053 
L 172 3053 
L 172 3500 
L 594 3500 
L 594 4494 
L 1172 4494 
z
" transform="scale(0.015625)"/>
      </defs>
      <use xlink:href="#DejaVuSans-74"/>
     </g>
    </g>
   </g>
   <g id="matplotlib.axis_2">
    <g id="ytick_1">
     <g id="line2d_6">
      <defs>
       <path id="me57091c629" d="M 0 0 
L -3.5 0 
" style="stroke: #000000; stroke-width: 0.8"/>
      </defs>
      <g>
       <use xlink:href="#me57091c629" x="135" y="421.502582" style="stroke: #000000; stroke-width: 0.8"/>
      </g>
     </g>
     <g id="text_7">
      <!-- −20 -->
      <g transform="translate(106.895313 425.301801) scale(0.1 -0.1)">
       <defs>
        <path id="DejaVuSans-2212" d="M 678 2272 
L 4684 2272 
L 4684 1741 
L 678 1741 
L 678 2272 
z
" transform="scale(0.015625)"/>
       </defs>
       <use xlink:href="#DejaVuSans-2212"/>
       <use xlink:href="#DejaVuSans-32" x="83.789062"/>
       <use xlink:href="#DejaVuSans-30" x="147.412109"/>
      </g>
     </g>
    </g>
    <g id="ytick_2">
     <g id="line2d_7">
      <g>
       <use xlink:href="#me57091c629" x="135" y="358.106305" style="stroke: #000000; stroke-width: 0.8"/>
      </g>
     </g>
     <g id="text_8">
      <!-- −15 -->
      <g transform="translate(106.895313 361.905524) scale(0.1 -0.1)">
       <defs>
        <path id="DejaVuSans-35" d="M 691 4666 
L 3169 4666 
L 3169 4134 
L 1269 4134 
L 1269 2991 
Q 1406 3038 1543 3061 
Q 1681 3084 1819 3084 
Q 2600 3084 3056 2656 
Q 3513 2228 3513 1497 
Q 3513 744 3044 326 
Q 2575 -91 1722 -91 
Q 1428 -91 1123 -41 
Q 819 9 494 109 
L 494 744 
Q 775 591 1075 516 
Q 1375 441 1709 441 
Q 2250 441 2565 725 
Q 2881 1009 2881 1497 
Q 2881 1984 2565 2268 
Q 2250 2553 1709 2553 
Q 1456 2553 1204 2497 
Q 953 2441 691 2322 
L 691 4666 
z
" transform="scale(0.015625)"/>
       </defs>
       <use xlink:href="#DejaVuSans-2212"/>
       <use xlink:href="#DejaVuSans-31" x="83.789062"/>
       <use xlink:href="#DejaVuSans-35" x="147.412109"/>
      </g>
     </g>
    </g>
    <g id="ytick_3">
     <g id="line2d_8">
      <g>
       <use xlink:href="#me57091c629" x="135" y="294.710028" style="stroke: #000000; stroke-width: 0.8"/>
      </g>
     </g>
     <g id="text_9">
      <!-- −10 -->
      <g transform="translate(106.895313 298.509247) scale(0.1 -0.1)">
       <use xlink:href="#DejaVuSans-2212"/>
       <use xlink:href="#DejaVuSans-31" x="83.789062"/>
       <use xlink:href="#DejaVuSans-30" x="147.412109"/>
      </g>
     </g>
    </g>
    <g id="ytick_4">
     <g id="line2d_9">
      <g>
       <use xlink:href="#me57091c629" x="135" y="231.313751" style="stroke: #000000; stroke-width: 0.8"/>
      </g>
     </g>
     <g id="text_10">
      <!-- −5 -->
      <g transform="translate(113.257812 235.11297) scale(0.1 -0.1)">
       <use xlink:href="#DejaVuSans-2212"/>
       <use xlink:href="#DejaVuSans-35" x="83.789062"/>
      </g>
     </g>
    </g>
    <g id="ytick_5">
     <g id="line2d_10">
      <g>
       <use xlink:href="#me57091c629" x="135" y="167.917474" style="stroke: #000000; stroke-width: 0.8"/>
      </g>
     </g>
     <g id="text_11">
      <!-- 0 -->
      <g transform="translate(121.6375 171.716692) scale(0.1 -0.1)">
       <use xlink:href="#DejaVuSans-30"/>
      </g>
     </g>
    </g>
    <g id="ytick_6">
     <g id="line2d_11">
      <g>
       <use xlink:href="#me57091c629" x="135" y="104.521197" style="stroke: #000000; stroke-width: 0.8"/>
      </g>
     </g>
     <g id="text_12">
      <!-- 5 -->
      <g transform="translate(121.6375 108.320415) scale(0.1 -0.1)">
       <use xlink:href="#DejaVuSans-35"/>
      </g>
     </g>
    </g>
   </g>
   <g id="line2d_12">
    <path d="M 173.045455 158.625449 
L 173.36604 78.120279 
L 173.526332 95.616354 
L 174.00721 188.763987 
L 174.327796 209.22871 
L 174.488088 209.153928 
L 174.808673 199.669585 
L 175.610137 169.159613 
L 176.091014 158.475357 
L 176.732185 149.363915 
L 177.05277 146.887494 
L 177.213063 146.695858 
L 177.373355 147.449951 
L 177.693941 152.280354 
L 177.854233 122.476779 
L 178.174819 396.371059 
L 178.335111 430.92 
L 178.495404 409.156426 
L 179.296867 181.519522 
L 179.617452 152.142067 
L 179.777745 147.918973 
L 179.938037 147.856673 
L 180.258623 153.753076 
L 180.739501 163.636825 
L 181.060086 167.100398 
L 181.380671 168.536921 
L 181.701256 169.074421 
L 182.342427 169.631073 
L 182.663012 169.577744 
L 182.983597 169.07594 
L 183.464475 167.595771 
L 184.105646 165.563066 
L 184.426231 165.051224 
L 184.746816 164.969624 
L 185.067401 165.217512 
L 185.868865 166.044416 
L 186.18945 166.008671 
L 186.510035 165.632676 
L 186.990913 164.478063 
L 188.754132 159.091037 
L 189.23501 158.534946 
L 189.555595 158.471071 
L 189.87618 158.626105 
L 190.357058 159.190068 
L 191.158521 160.677178 
L 192.92174 164.183524 
L 193.883496 165.540997 
L 194.684959 166.327996 
L 195.646715 166.949591 
L 196.768763 167.374424 
L 198.211397 167.653599 
L 200.455493 167.827282 
L 205.10398 167.907399 
L 213.278903 167.917296 
L 213.439196 158.625286 
L 213.759781 78.120143 
L 213.920074 95.616231 
L 214.400952 188.763897 
L 214.721537 209.228638 
L 214.88183 209.153864 
L 215.202415 199.669534 
L 216.003878 169.159584 
L 216.484756 158.475337 
L 217.125926 149.363902 
L 217.446512 146.887483 
L 217.606804 146.695848 
L 217.767097 147.449942 
L 218.087682 152.280347 
L 218.247975 122.476773 
L 218.56856 396.371053 
L 218.728853 430.919995 
L 218.889145 409.156421 
L 219.690608 181.519518 
L 220.011194 152.142064 
L 220.171486 147.91897 
L 220.331779 147.856671 
L 220.652364 153.753074 
L 221.133242 163.636823 
L 221.453827 167.100396 
L 221.774413 168.536919 
L 222.094998 169.074419 
L 222.736168 169.631072 
L 223.056754 169.577744 
L 223.377339 169.075939 
L 223.858217 167.595771 
L 224.499387 165.563065 
L 224.819972 165.051224 
L 225.140558 164.969624 
L 225.461143 165.217512 
L 226.262606 166.044416 
L 226.583191 166.00867 
L 226.903777 165.632676 
L 227.384654 164.478063 
L 229.147873 159.091037 
L 229.628751 158.534946 
L 229.949336 158.471071 
L 230.269922 158.626105 
L 230.7508 159.190068 
L 231.552263 160.677178 
L 233.315482 164.183524 
L 234.277237 165.540997 
L 235.0787 166.327996 
L 236.040456 166.949591 
L 237.162505 167.374424 
L 238.605138 167.653599 
L 240.849235 167.827282 
L 245.497721 167.907399 
L 253.99323 167.917322 
L 254.153523 158.62531 
L 254.474108 78.120163 
L 254.634401 95.616249 
L 255.115279 188.76391 
L 255.435864 209.228649 
L 255.596156 209.153874 
L 255.916742 199.669542 
L 256.718205 169.159588 
L 257.199083 158.47534 
L 257.840253 149.363904 
L 258.160838 146.887485 
L 258.321131 146.695849 
L 258.481424 147.449943 
L 258.802009 152.280348 
L 258.962302 122.476774 
L 259.282887 396.371054 
L 259.443179 430.919996 
L 259.603472 409.156422 
L 260.404935 181.519519 
L 260.72552 152.142064 
L 260.885813 147.91897 
L 261.046106 147.856671 
L 261.366691 153.753074 
L 261.847569 163.636824 
L 262.168154 167.100396 
L 262.488739 168.53692 
L 262.809325 169.07442 
L 263.450495 169.631072 
L 263.77108 169.577744 
L 264.091666 169.075939 
L 264.572543 167.595771 
L 265.213714 165.563065 
L 265.534299 165.051224 
L 265.854884 164.969624 
L 266.17547 165.217512 
L 266.976933 166.044416 
L 267.297518 166.00867 
L 267.618103 165.632676 
L 268.098981 164.478063 
L 269.8622 159.091037 
L 270.343078 158.534946 
L 270.663663 158.471071 
L 270.984248 158.626105 
L 271.465126 159.190068 
L 272.266589 160.677178 
L 274.029808 164.183524 
L 274.991564 165.540997 
L 275.793027 166.327996 
L 276.754783 166.949591 
L 277.876831 167.374424 
L 279.319465 167.653599 
L 281.563562 167.827282 
L 286.212048 167.907399 
L 293.585509 167.917209 
L 293.745801 158.625206 
L 294.066386 78.120076 
L 294.226679 95.616171 
L 294.707557 188.763853 
L 295.028142 209.228603 
L 295.188435 209.153833 
L 295.50902 199.669509 
L 296.310483 169.15957 
L 296.791361 158.475326 
L 297.432532 149.363895 
L 297.753117 146.887478 
L 297.913409 146.695843 
L 298.073702 147.449937 
L 298.394287 152.280343 
L 298.55458 122.476769 
L 298.875165 396.37105 
L 299.035458 430.919992 
L 299.19575 409.156419 
L 299.997214 181.519517 
L 300.317799 152.142062 
L 300.478091 147.918968 
L 300.638384 147.856669 
L 300.958969 153.753073 
L 301.439847 163.636822 
L 301.760432 167.100395 
L 302.081018 168.536919 
L 302.401603 169.074419 
L 303.042773 169.631072 
L 303.363359 169.577743 
L 303.683944 169.075939 
L 304.164822 167.59577 
L 304.805992 165.563065 
L 305.126578 165.051224 
L 305.447163 164.969624 
L 305.767748 165.217511 
L 306.569211 166.044416 
L 306.889796 166.00867 
L 307.210382 165.632676 
L 307.69126 164.478063 
L 309.454478 159.091037 
L 309.935356 158.534946 
L 310.255942 158.471071 
L 310.576527 158.626104 
L 311.057405 159.190068 
L 311.858868 160.677178 
L 313.622087 164.183524 
L 314.583842 165.540997 
L 315.385306 166.327996 
L 316.347061 166.949591 
L 317.46911 167.374424 
L 318.911743 167.653599 
L 321.15584 167.827282 
L 325.804326 167.907399 
L 333.818957 167.917281 
L 333.97925 158.625272 
L 334.299835 78.120131 
L 334.460128 95.616221 
L 334.941006 188.76389 
L 335.261591 209.228632 
L 335.421884 209.153859 
L 335.742469 199.66953 
L 336.543932 169.159581 
L 337.02481 158.475335 
L 337.66598 149.3639 
L 337.986566 146.887482 
L 338.146858 146.695847 
L 338.307151 147.449941 
L 338.627736 152.280346 
L 338.788029 122.476772 
L 339.108614 396.371053 
L 339.268907 430.919994 
L 339.429199 409.156421 
L 340.230662 181.519518 
L 340.551248 152.142063 
L 340.71154 147.918969 
L 340.871833 147.85667 
L 341.192418 153.753074 
L 341.673296 163.636823 
L 341.993881 167.100396 
L 342.314467 168.536919 
L 342.635052 169.074419 
L 343.276222 169.631072 
L 343.596808 169.577744 
L 343.917393 169.075939 
L 344.398271 167.595771 
L 345.039441 165.563065 
L 345.360026 165.051224 
L 345.680612 164.969624 
L 346.001197 165.217512 
L 346.80266 166.044416 
L 347.123245 166.00867 
L 347.443831 165.632676 
L 347.924708 164.478063 
L 349.687927 159.091037 
L 350.168805 158.534946 
L 350.48939 158.471071 
L 350.809976 158.626105 
L 351.290854 159.190068 
L 352.092317 160.677178 
L 353.855536 164.183524 
L 354.817291 165.540997 
L 355.618754 166.327996 
L 356.58051 166.949591 
L 357.702559 167.374424 
L 359.145192 167.653599 
L 361.389289 167.827282 
L 366.037775 167.907399 
L 373.090651 167.917163 
L 373.250943 158.625164 
L 373.571528 78.120041 
L 373.731821 95.616139 
L 374.212699 188.76383 
L 374.533284 209.228584 
L 374.693577 209.153816 
L 375.014162 199.669496 
L 375.815625 169.159562 
L 376.296503 158.475321 
L 376.937674 149.363891 
L 377.258259 146.887475 
L 377.418551 146.695841 
L 377.578844 147.449935 
L 377.899429 152.280342 
L 378.059722 122.476768 
L 378.380307 396.371049 
L 378.5406 430.919991 
L 378.700892 409.156418 
L 379.502356 181.519516 
L 379.822941 152.142061 
L 379.983233 147.918968 
L 380.143526 147.856669 
L 380.464111 153.753072 
L 380.944989 163.636822 
L 381.265574 167.100395 
L 381.58616 168.536918 
L 381.906745 169.074418 
L 382.547915 169.631072 
L 382.868501 169.577743 
L 383.189086 169.075939 
L 383.669964 167.59577 
L 384.311134 165.563065 
L 384.63172 165.051224 
L 384.952305 164.969624 
L 385.27289 165.217511 
L 386.074353 166.044416 
L 386.394938 166.00867 
L 386.715524 165.632676 
L 387.196402 164.478063 
L 388.95962 159.091037 
L 389.440498 158.534946 
L 389.761084 158.471071 
L 390.081669 158.626104 
L 390.562547 159.190068 
L 391.36401 160.677178 
L 393.127229 164.183524 
L 394.088984 165.540997 
L 394.890448 166.327996 
L 395.852203 166.949591 
L 396.974252 167.374424 
L 398.416885 167.653599 
L 400.660982 167.827282 
L 405.309468 167.907399 
L 413.644685 167.91731 
L 413.804977 158.625298 
L 414.125563 78.120153 
L 414.285855 95.61624 
L 414.766733 188.763904 
L 415.087318 209.228644 
L 415.247611 209.153869 
L 415.568196 199.669538 
L 416.369659 169.159586 
L 416.850537 158.475338 
L 417.491708 149.363903 
L 417.812293 146.887484 
L 417.972586 146.695849 
L 418.132878 147.449942 
L 418.453463 152.280347 
L 418.613756 122.476773 
L 418.934341 396.371054 
L 419.094634 430.919995 
L 419.254927 409.156422 
L 420.05639 181.519519 
L 420.376975 152.142064 
L 420.537268 147.91897 
L 420.69756 147.856671 
L 421.018145 153.753074 
L 421.499023 163.636824 
L 421.819609 167.100396 
L 422.140194 168.53692 
L 422.460779 169.07442 
L 423.10195 169.631072 
L 423.422535 169.577744 
L 423.74312 169.075939 
L 424.223998 167.595771 
L 424.865168 165.563065 
L 425.185754 165.051224 
L 425.506339 164.969624 
L 425.826924 165.217512 
L 426.628387 166.044416 
L 426.948973 166.00867 
L 427.269558 165.632676 
L 427.750436 164.478063 
L 429.513655 159.091037 
L 429.994532 158.534946 
L 430.315118 158.471071 
L 430.635703 158.626105 
L 431.116581 159.190068 
L 431.918044 160.677178 
L 433.681263 164.183524 
L 434.643019 165.540997 
L 435.444482 166.327996 
L 436.406237 166.949591 
L 437.528286 167.374424 
L 438.970919 167.653599 
L 441.215016 167.827282 
L 445.863502 167.907399 
L 453.557548 167.917248 
L 453.717841 158.625242 
L 454.038426 78.120106 
L 454.198719 95.616198 
L 454.679597 188.763873 
L 455.000182 209.228619 
L 455.160475 209.153847 
L 455.48106 199.66952 
L 456.282523 169.159576 
L 456.763401 158.475331 
L 457.404571 149.363898 
L 457.725157 146.88748 
L 457.885449 146.695845 
L 458.045742 147.449939 
L 458.366327 152.280345 
L 458.52662 122.476771 
L 458.847205 396.371052 
L 459.007498 430.919993 
L 459.16779 409.15642 
L 459.969253 181.519518 
L 460.289839 152.142063 
L 460.450131 147.918969 
L 460.610424 147.85667 
L 460.931009 153.753073 
L 461.411887 163.636823 
L 461.732472 167.100396 
L 462.053057 168.536919 
L 462.373643 169.074419 
L 463.014813 169.631072 
L 463.335398 169.577743 
L 463.655984 169.075939 
L 464.136862 167.595771 
L 464.778032 165.563065 
L 465.098617 165.051224 
L 465.419203 164.969624 
L 465.739788 165.217512 
L 466.541251 166.044416 
L 466.861836 166.00867 
L 467.182421 165.632676 
L 467.663299 164.478063 
L 469.426518 159.091037 
L 469.907396 158.534946 
L 470.227981 158.471071 
L 470.548567 158.626105 
L 471.029444 159.190068 
L 471.830908 160.677178 
L 473.594126 164.183524 
L 474.555882 165.540997 
L 475.357345 166.327996 
L 476.319101 166.949591 
L 477.441149 167.374424 
L 478.883783 167.653599 
L 481.12788 167.827282 
L 485.776366 167.907399 
L 493.630705 167.917265 
L 493.790997 158.625258 
L 494.111582 78.120119 
L 494.271875 95.61621 
L 494.752753 188.763881 
L 495.073338 209.228626 
L 495.233631 209.153853 
L 495.554216 199.669525 
L 496.355679 169.159579 
L 496.836557 158.475333 
L 497.477728 149.363899 
L 497.798313 146.887481 
L 497.958605 146.695846 
L 498.118898 147.44994 
L 498.439483 152.280346 
L 498.599776 122.476771 
L 498.920361 396.371052 
L 499.080654 430.919994 
L 499.240946 409.156421 
L 500.04241 181.519518 
L 500.362995 152.142063 
L 500.523287 147.918969 
L 500.68358 147.85667 
L 501.004165 153.753074 
L 501.485043 163.636823 
L 501.805628 167.100396 
L 502.126214 168.536919 
L 502.446799 169.074419 
L 503.087969 169.631072 
L 503.408555 169.577744 
L 503.72914 169.075939 
L 504.210018 167.595771 
L 504.851188 165.563065 
L 505.171774 165.051224 
L 505.492359 164.969624 
L 505.812944 165.217512 
L 506.614407 166.044416 
L 506.934992 166.00867 
L 507.255578 165.632676 
L 507.736456 164.478063 
L 509.499674 159.091037 
L 509.980552 158.534946 
L 510.301138 158.471071 
L 510.621723 158.626105 
L 511.102601 159.190068 
L 511.904064 160.677178 
L 513.667283 164.183524 
L 514.629038 165.540997 
L 515.430502 166.327996 
L 516.392257 166.949591 
L 517.514306 167.374424 
L 518.956939 167.653599 
L 521.201036 167.827282 
L 525.849522 167.907399 
L 533.864153 167.917281 
L 534.024446 158.625272 
L 534.345031 78.120131 
L 534.505324 95.616221 
L 534.986202 188.76389 
L 535.306787 209.228632 
L 535.46708 209.153859 
L 535.787665 199.66953 
L 536.589128 169.159581 
L 537.070006 158.475335 
L 537.711176 149.3639 
L 538.031762 146.887482 
L 538.192054 146.695847 
L 538.352347 147.449941 
L 538.672932 152.280346 
L 538.833225 122.476772 
L 539.15381 396.371053 
L 539.314103 430.919994 
L 539.474395 409.156421 
L 540.275858 181.519518 
L 540.596444 152.142063 
L 540.756736 147.918969 
L 540.917029 147.85667 
L 541.237614 153.753074 
L 541.718492 163.636823 
L 542.039077 167.100396 
L 542.359663 168.536919 
L 542.680248 169.074419 
L 543.321418 169.631072 
L 543.642004 169.577744 
L 543.962589 169.075939 
L 544.443467 167.595771 
L 545.084637 165.563065 
L 545.405222 165.051224 
L 545.725808 164.969624 
L 546.046393 165.217512 
L 546.847856 166.044416 
L 547.168441 166.00867 
L 547.489027 165.632676 
L 547.969904 164.478063 
L 549.733123 159.091037 
L 550.214001 158.534946 
L 550.534586 158.471071 
L 550.855172 158.626105 
L 551.33605 159.190068 
L 552.137513 160.677178 
L 553.900732 164.183524 
L 554.862487 165.540997 
L 555.66395 166.327996 
L 556.625706 166.949591 
L 557.747755 167.374424 
L 559.190388 167.653599 
L 561.434485 167.827282 
L 566.082971 167.907399 
L 574.257895 167.917296 
L 574.418188 158.625286 
L 574.738773 78.120143 
L 574.899065 95.616231 
L 575.379943 188.763897 
L 575.700529 209.228638 
L 575.860821 209.153864 
L 576.181406 199.669534 
L 576.98287 169.159584 
L 577.463747 158.475337 
L 578.104918 149.363902 
L 578.425503 146.887483 
L 578.585796 146.695848 
L 578.746088 147.449942 
L 579.066674 152.280347 
L 579.226966 122.476773 
L 579.547552 396.371053 
L 579.707844 430.919995 
L 579.868137 409.156421 
L 580.6696 181.519518 
L 580.990185 152.142064 
L 581.150478 147.91897 
L 581.31077 147.856671 
L 581.631356 153.753074 
L 582.112234 163.636823 
L 582.432819 167.100396 
L 582.753404 168.536919 
L 583.073989 169.074419 
L 583.71516 169.631072 
L 584.035745 169.577744 
L 584.35633 169.075939 
L 584.837208 167.595771 
L 585.478379 165.563065 
L 585.798964 165.051224 
L 586.119549 164.969624 
L 586.440134 165.217512 
L 587.241598 166.044416 
L 587.562183 166.00867 
L 587.882768 165.632676 
L 588.363646 164.478063 
L 590.126865 159.091037 
L 590.607743 158.534946 
L 590.928328 158.471071 
L 591.248913 158.626105 
L 591.729791 159.190068 
L 592.531254 160.677178 
L 594.294473 164.183524 
L 595.256229 165.540997 
L 596.057692 166.327996 
L 597.019448 166.949591 
L 598.141496 167.374424 
L 599.58413 167.653599 
L 601.828226 167.827282 
L 606.476713 167.907399 
L 613.209003 167.917109 
L 613.369295 158.625114 
L 613.689881 78.12 
L 613.850173 95.616102 
L 614.331051 188.763803 
L 614.651636 209.228562 
L 614.811929 209.153797 
L 615.132514 199.66948 
L 615.933977 169.159553 
L 616.414855 158.475315 
L 617.056026 149.363887 
L 617.376611 146.887472 
L 617.536904 146.695838 
L 617.697196 147.449933 
L 618.017782 152.280339 
L 618.178074 122.476766 
L 618.498659 396.371047 
L 618.658952 430.919989 
L 618.819245 409.156416 
L 619.620708 181.519515 
L 619.941293 152.142061 
L 620.101586 147.918967 
L 620.261878 147.856668 
L 620.582464 153.753072 
L 621.063341 163.636821 
L 621.383927 167.100394 
L 621.704512 168.536918 
L 622.025097 169.074418 
L 622.666268 169.631071 
L 622.986853 169.577743 
L 623.307438 169.075938 
L 623.788316 167.59577 
L 624.429487 165.563065 
L 624.750072 165.051224 
L 625.070657 164.969624 
L 625.391242 165.217511 
L 626.192705 166.044416 
L 626.513291 166.00867 
L 626.833876 165.632676 
L 627.314754 164.478063 
L 629.077973 159.091037 
L 629.558851 158.534946 
L 629.879436 158.471071 
L 630.200021 158.626104 
L 630.680899 159.190068 
L 631.482362 160.677178 
L 633.245581 164.183524 
L 634.207337 165.540997 
L 635.0088 166.327996 
L 635.970556 166.949591 
L 637.092604 167.374424 
L 638.535238 167.653599 
L 640.779334 167.827282 
L 645.42782 167.907399 
L 653.92333 167.917322 
L 654.083622 158.62531 
L 654.404207 78.120163 
L 654.5645 95.616249 
L 655.045378 188.76391 
L 655.365963 209.228649 
L 655.526256 209.153874 
L 655.846841 199.669542 
L 656.648304 169.159588 
L 657.129182 158.47534 
L 657.770353 149.363904 
L 658.090938 146.887485 
L 658.25123 146.695849 
L 658.411523 147.449943 
L 658.732108 152.280348 
L 658.892401 122.476774 
L 659.212986 396.371054 
L 659.373279 430.919996 
L 659.533571 409.156422 
L 660.335035 181.519519 
L 660.65562 152.142064 
L 660.815912 147.91897 
L 660.976205 147.856671 
L 661.29679 153.753074 
L 661.777668 163.636824 
L 662.098253 167.100396 
L 662.418839 168.53692 
L 662.739424 169.07442 
L 663.380594 169.631072 
L 663.70118 169.577744 
L 664.021765 169.075939 
L 664.502643 167.595771 
L 665.143813 165.563065 
L 665.464399 165.051224 
L 665.784984 164.969624 
L 666.105569 165.217512 
L 666.907032 166.044416 
L 667.227617 166.00867 
L 667.548203 165.632676 
L 668.029081 164.478063 
L 669.792299 159.091037 
L 670.273177 158.534946 
L 670.593763 158.471071 
L 670.914348 158.626105 
L 671.395226 159.190068 
L 672.196689 160.677178 
L 673.959908 164.183524 
L 674.921663 165.540997 
L 675.723127 166.327996 
L 676.684882 166.949591 
L 677.806931 167.374424 
L 679.249564 167.653599 
L 681.493661 167.827282 
L 686.142147 167.907399 
L 694.156778 167.917281 
L 694.317071 158.625272 
L 694.637656 78.120131 
L 694.797949 95.616221 
L 695.278827 188.76389 
L 695.599412 209.228632 
L 695.759705 209.153859 
L 696.08029 199.66953 
L 696.881753 169.159581 
L 697.362631 158.475335 
L 698.003801 149.3639 
L 698.324387 146.887482 
L 698.484679 146.695847 
L 698.644972 147.449941 
L 698.965557 152.280346 
L 699.12585 122.476772 
L 699.446435 396.371053 
L 699.606728 430.919994 
L 699.76702 409.156421 
L 700.568483 181.519518 
L 700.889069 152.142063 
L 701.049361 147.918969 
L 701.209654 147.85667 
L 701.530239 153.753074 
L 702.011117 163.636823 
L 702.331702 167.100396 
L 702.652288 168.536919 
L 702.972873 169.074419 
L 703.614043 169.631072 
L 703.934629 169.577744 
L 704.255214 169.075939 
L 704.736092 167.595771 
L 705.377262 165.563065 
L 705.697847 165.051224 
L 706.018433 164.969624 
L 706.339018 165.217512 
L 707.140481 166.044416 
L 707.461066 166.00867 
L 707.781652 165.632676 
L 708.262529 164.478063 
L 710.025748 159.091037 
L 710.506626 158.534946 
L 710.827211 158.471071 
L 711.147797 158.626105 
L 711.628675 159.190068 
L 712.430138 160.677178 
L 714.193357 164.183524 
L 715.155112 165.540997 
L 715.956575 166.327996 
L 716.918331 166.949591 
L 718.04038 167.374424 
L 719.483013 167.653599 
L 721.72711 167.827282 
L 726.375596 167.907399 
L 734.069642 167.917248 
L 734.229935 158.625242 
L 734.55052 78.120106 
L 734.710813 95.616198 
L 735.19169 188.763873 
L 735.512276 209.228619 
L 735.672568 209.153847 
L 735.993154 199.66952 
L 736.794617 169.159576 
L 737.275495 158.475331 
L 737.916665 149.363898 
L 738.23725 146.88748 
L 738.397543 146.695845 
L 738.557836 147.449939 
L 738.878421 152.280345 
L 739.038713 122.476771 
L 739.359299 396.371052 
L 739.519591 430.919993 
L 739.679884 409.15642 
L 740.481347 181.519518 
L 740.801932 152.142063 
L 740.962225 147.918969 
L 741.122518 147.85667 
L 741.443103 153.753073 
L 741.923981 163.636823 
L 742.244566 167.100396 
L 742.565151 168.536919 
L 742.885736 169.074419 
L 743.526907 169.631072 
L 743.847492 169.577743 
L 744.168077 169.075939 
L 744.648955 167.595771 
L 745.290126 165.563065 
L 745.610711 165.051224 
L 745.931296 164.969624 
L 746.251882 165.217512 
L 747.053345 166.044416 
L 747.37393 166.00867 
L 747.694515 165.632676 
L 748.175393 164.478063 
L 749.938612 159.091037 
L 750.41949 158.534946 
L 750.740075 158.471071 
L 751.06066 158.626105 
L 751.541538 159.190068 
L 752.343001 160.677178 
L 754.10622 164.183524 
L 755.067976 165.540997 
L 755.869439 166.327996 
L 756.831195 166.949591 
L 757.953243 167.374424 
L 759.395877 167.653599 
L 761.639974 167.827282 
L 766.28846 167.907399 
L 773.822213 167.917229 
L 773.982506 158.625225 
L 774.303091 78.120092 
L 774.463384 95.616185 
L 774.944261 188.763863 
L 775.264847 209.228611 
L 775.425139 209.15384 
L 775.745725 199.669515 
L 776.547188 169.159573 
L 777.028066 158.475329 
L 777.669236 149.363897 
L 777.989821 146.887479 
L 778.150114 146.695844 
L 778.310407 147.449938 
L 778.630992 152.280344 
L 778.791284 122.47677 
L 779.11187 396.371051 
L 779.272162 430.919993 
L 779.432455 409.15642 
L 780.233918 181.519517 
L 780.554503 152.142063 
L 780.714796 147.918969 
L 780.875089 147.85667 
L 781.195674 153.753073 
L 781.676552 163.636823 
L 781.997137 167.100395 
L 782.317722 168.536919 
L 782.638307 169.074419 
L 783.279478 169.631072 
L 783.600063 169.577743 
L 783.920648 169.075939 
L 784.401526 167.595771 
L 785.042697 165.563065 
L 785.363282 165.051224 
L 785.683867 164.969624 
L 786.004453 165.217511 
L 786.805916 166.044416 
L 787.126501 166.00867 
L 787.447086 165.632676 
L 787.927964 164.478063 
L 789.691183 159.091037 
L 790.172061 158.534946 
L 790.492646 158.471071 
L 790.813231 158.626104 
L 791.294109 159.190068 
L 792.095572 160.677178 
L 793.858791 164.183524 
L 794.820547 165.540997 
L 795.62201 166.327996 
L 796.583766 166.949591 
L 797.705814 167.374424 
L 799.148448 167.653599 
L 801.392545 167.827282 
L 806.041031 167.907399 
L 813.414491 167.917209 
L 813.574784 158.625206 
L 813.895369 78.120076 
L 814.055662 95.616171 
L 814.53654 188.763853 
L 814.857125 209.228603 
L 815.017418 209.153833 
L 815.338003 199.669509 
L 816.139466 169.15957 
L 816.620344 158.475326 
L 817.261514 149.363895 
L 817.5821 146.887478 
L 817.742392 146.695843 
L 817.902685 147.449937 
L 818.22327 152.280343 
L 818.383563 122.476769 
L 818.704148 396.37105 
L 818.864441 430.919992 
L 819.024733 409.156419 
L 819.826196 181.519517 
L 820.146782 152.142062 
L 820.307074 147.918968 
L 820.467367 147.856669 
L 820.787952 153.753073 
L 821.26883 163.636822 
L 821.589415 167.100395 
L 821.910001 168.536919 
L 822.230586 169.074419 
L 822.871756 169.631072 
L 823.192342 169.577743 
L 823.512927 169.075939 
L 823.993805 167.59577 
L 824.634975 165.563065 
L 824.95556 165.051224 
L 825.276146 164.969624 
L 825.596731 165.217511 
L 826.398194 166.044416 
L 826.718779 166.00867 
L 827.039365 165.632676 
L 827.520242 164.478063 
L 829.283461 159.091037 
L 829.764339 158.534946 
L 830.084924 158.471071 
L 830.40551 158.626104 
L 830.886388 159.190068 
L 831.687851 160.677178 
L 833.45107 164.183524 
L 834.412825 165.540997 
L 835.214288 166.327996 
L 836.176044 166.949591 
L 837.298093 167.374424 
L 838.740726 167.653599 
L 840.984823 167.827282 
L 845.633309 167.907399 
L 854.609696 167.917354 
L 854.769989 158.62534 
L 855.090574 78.120187 
L 855.250867 95.616272 
L 855.731744 188.763926 
L 856.05233 209.228662 
L 856.212622 209.153885 
L 856.533208 199.669551 
L 857.334671 169.159593 
L 857.815549 158.475343 
L 858.456719 149.363906 
L 858.777304 146.887487 
L 858.937597 146.695851 
L 859.09789 147.449945 
L 859.418475 152.280349 
L 859.578767 122.476775 
L 859.899353 396.371055 
L 860.059645 430.919996 
L 860.219938 409.156423 
L 861.021401 181.51952 
L 861.341986 152.142065 
L 861.502279 147.918971 
L 861.662572 147.856672 
L 861.983157 153.753075 
L 862.464035 163.636824 
L 862.78462 167.100397 
L 863.105205 168.53692 
L 863.42579 169.07442 
L 864.066961 169.631073 
L 864.387546 169.577744 
L 864.708131 169.075939 
L 865.189009 167.595771 
L 865.83018 165.563066 
L 866.150765 165.051224 
L 866.47135 164.969624 
L 866.791936 165.217512 
L 867.593399 166.044416 
L 867.913984 166.00867 
L 868.234569 165.632676 
L 868.715447 164.478063 
L 870.478666 159.091037 
L 870.959544 158.534946 
L 871.280129 158.471071 
L 871.600714 158.626105 
L 872.081592 159.190068 
L 872.883055 160.677178 
L 874.646274 164.183524 
L 875.60803 165.540997 
L 876.409493 166.327996 
L 877.371249 166.949591 
L 878.493297 167.374424 
L 879.935931 167.653599 
L 882.180028 167.827282 
L 886.828514 167.907399 
L 894.362267 167.917229 
L 894.52256 158.625225 
L 894.843145 78.120092 
L 895.003438 95.616185 
L 895.484315 188.763863 
L 895.804901 209.228611 
L 895.965193 209.15384 
L 896.285779 199.669515 
L 897.087242 169.159573 
L 897.56812 158.475329 
L 898.20929 149.363897 
L 898.529875 146.887479 
L 898.690168 146.695844 
L 898.850461 147.449938 
L 899.171046 152.280344 
L 899.331338 122.47677 
L 899.651924 396.371051 
L 899.812216 430.919993 
L 899.972509 409.15642 
L 900.773972 181.519517 
L 901.094557 152.142063 
L 901.25485 147.918969 
L 901.415143 147.85667 
L 901.735728 153.753073 
L 902.216606 163.636823 
L 902.537191 167.100395 
L 902.857776 168.536919 
L 903.178361 169.074419 
L 903.819532 169.631072 
L 904.140117 169.577743 
L 904.460702 169.075939 
L 904.94158 167.595771 
L 905.582751 165.563065 
L 905.903336 165.051224 
L 906.223921 164.969624 
L 906.544507 165.217511 
L 907.34597 166.044416 
L 907.666555 166.00867 
L 907.98714 165.632676 
L 908.468018 164.478063 
L 910.231237 159.091037 
L 910.712115 158.534946 
L 911.0327 158.471071 
L 911.353285 158.626104 
L 911.834163 159.190068 
L 912.635626 160.677178 
L 914.398845 164.183524 
L 915.360601 165.540997 
L 916.162064 166.327996 
L 917.12382 166.949591 
L 918.245868 167.374424 
L 919.688502 167.653599 
L 921.932599 167.827282 
L 926.581085 167.907399 
L 933.794253 167.917187 
L 933.954545 158.625186 
L 933.954545 158.625186 
" clip-path="url(#p61cbfd6b9f)" style="fill: none; stroke: #1f77b4; stroke-width: 1.5; stroke-linecap: square"/>
   </g>
   <g id="line2d_13">
    <path d="M 173.045455 155.238218 
L 177.693941 155.238218 
L 177.854233 167.917474 
L 213.278903 167.917474 
L 213.439196 155.238218 
L 218.087682 155.238218 
L 218.247975 167.917474 
L 253.99323 167.917474 
L 254.153523 155.238218 
L 258.802009 155.238218 
L 258.962302 167.917474 
L 293.585509 167.917474 
L 293.745801 155.238218 
L 298.394287 155.238218 
L 298.55458 167.917474 
L 333.818957 167.917474 
L 333.97925 155.238218 
L 338.627736 155.238218 
L 338.788029 167.917474 
L 373.090651 167.917474 
L 373.250943 155.238218 
L 377.899429 155.238218 
L 378.059722 167.917474 
L 413.644685 167.917474 
L 413.804977 155.238218 
L 418.453463 155.238218 
L 418.613756 167.917474 
L 453.557548 167.917474 
L 453.717841 155.238218 
L 458.366327 155.238218 
L 458.52662 167.917474 
L 493.630705 167.917474 
L 493.790997 155.238218 
L 498.439483 155.238218 
L 498.599776 167.917474 
L 533.864153 167.917474 
L 534.024446 155.238218 
L 538.672932 155.238218 
L 538.833225 167.917474 
L 574.257895 167.917474 
L 574.418188 155.238218 
L 579.066674 155.238218 
L 579.226966 167.917474 
L 613.209003 167.917474 
L 613.369295 155.238218 
L 618.017782 155.238218 
L 618.178074 167.917474 
L 653.92333 167.917474 
L 654.083622 155.238218 
L 658.732108 155.238218 
L 658.892401 167.917474 
L 694.156778 167.917474 
L 694.317071 155.238218 
L 698.965557 155.238218 
L 699.12585 167.917474 
L 734.069642 167.917474 
L 734.229935 155.238218 
L 738.878421 155.238218 
L 739.038713 167.917474 
L 773.822213 167.917474 
L 773.982506 155.238218 
L 778.630992 155.238218 
L 778.791284 167.917474 
L 813.414491 167.917474 
L 813.574784 155.238218 
L 818.22327 155.238218 
L 818.383563 167.917474 
L 854.609696 167.917474 
L 854.769989 155.238218 
L 859.418475 155.238218 
L 859.578767 167.917474 
L 894.362267 167.917474 
L 894.52256 155.238218 
L 899.171046 155.238218 
L 899.331338 167.917474 
L 933.794253 167.917474 
L 933.954545 155.238218 
L 933.954545 155.238218 
" clip-path="url(#p61cbfd6b9f)" style="fill: none; stroke: #ff7f0e; stroke-width: 1.5; stroke-linecap: square"/>
   </g>
   <g id="line2d_14">
    <path d="M 929.466352 167.917474 
" clip-path="url(#p61cbfd6b9f)" style="fill: none; stroke: #000000; stroke-width: 1.5; stroke-linecap: square"/>
    <defs>
     <path id="m64fb95b764" d="M 0 1 
C 0.265203 1 0.51958 0.894634 0.707107 0.707107 
C 0.894634 0.51958 1 0.265203 1 0 
C 1 -0.265203 0.894634 -0.51958 0.707107 -0.707107 
C 0.51958 -0.894634 0.265203 -1 0 -1 
C -0.265203 -1 -0.51958 -0.894634 -0.707107 -0.707107 
C -0.894634 -0.51958 -1 -0.265203 -1 0 
C -1 0.265203 -0.894634 0.51958 -0.707107 0.707107 
C -0.51958 0.894634 -0.265203 1 0 1 
z
" style="stroke: #000000"/>
    </defs>
    <g clip-path="url(#p61cbfd6b9f)">
     <use xlink:href="#m64fb95b764" x="173.045455" y="155.238218" style="stroke: #000000"/>
     <use xlink:href="#m64fb95b764" x="178.174819" y="167.917474" style="stroke: #000000"/>
     <use xlink:href="#m64fb95b764" x="183.14389" y="167.917474" style="stroke: #000000"/>
     <use xlink:href="#m64fb95b764" x="188.112961" y="155.238218" style="stroke: #000000"/>
     <use xlink:href="#m64fb95b764" x="193.082033" y="167.917474" style="stroke: #000000"/>
     <use xlink:href="#m64fb95b764" x="198.211397" y="167.917474" style="stroke: #000000"/>
     <use xlink:href="#m64fb95b764" x="203.180468" y="155.238218" style="stroke: #000000"/>
     <use xlink:href="#m64fb95b764" x="208.149539" y="167.917474" style="stroke: #000000"/>
     <use xlink:href="#m64fb95b764" x="213.118611" y="155.238218" style="stroke: #000000"/>
     <use xlink:href="#m64fb95b764" x="218.247975" y="167.917474" style="stroke: #000000"/>
     <use xlink:href="#m64fb95b764" x="223.217046" y="167.917474" style="stroke: #000000"/>
     <use xlink:href="#m64fb95b764" x="228.186118" y="155.238218" style="stroke: #000000"/>
     <use xlink:href="#m64fb95b764" x="233.155189" y="167.917474" style="stroke: #000000"/>
     <use xlink:href="#m64fb95b764" x="238.284553" y="167.917474" style="stroke: #000000"/>
     <use xlink:href="#m64fb95b764" x="243.253624" y="155.238218" style="stroke: #000000"/>
     <use xlink:href="#m64fb95b764" x="248.222696" y="167.917474" style="stroke: #000000"/>
     <use xlink:href="#m64fb95b764" x="253.191767" y="155.238218" style="stroke: #000000"/>
     <use xlink:href="#m64fb95b764" x="258.321131" y="167.917474" style="stroke: #000000"/>
     <use xlink:href="#m64fb95b764" x="263.290202" y="167.917474" style="stroke: #000000"/>
     <use xlink:href="#m64fb95b764" x="268.259274" y="155.238218" style="stroke: #000000"/>
     <use xlink:href="#m64fb95b764" x="273.228345" y="167.917474" style="stroke: #000000"/>
     <use xlink:href="#m64fb95b764" x="278.357709" y="167.917474" style="stroke: #000000"/>
     <use xlink:href="#m64fb95b764" x="283.326781" y="155.238218" style="stroke: #000000"/>
     <use xlink:href="#m64fb95b764" x="288.295852" y="167.917474" style="stroke: #000000"/>
     <use xlink:href="#m64fb95b764" x="293.264923" y="155.238218" style="stroke: #000000"/>
     <use xlink:href="#m64fb95b764" x="298.394287" y="167.917474" style="stroke: #000000"/>
     <use xlink:href="#m64fb95b764" x="303.363359" y="167.917474" style="stroke: #000000"/>
     <use xlink:href="#m64fb95b764" x="308.33243" y="155.238218" style="stroke: #000000"/>
     <use xlink:href="#m64fb95b764" x="313.301501" y="167.917474" style="stroke: #000000"/>
     <use xlink:href="#m64fb95b764" x="318.430865" y="167.917474" style="stroke: #000000"/>
     <use xlink:href="#m64fb95b764" x="323.399937" y="155.238218" style="stroke: #000000"/>
     <use xlink:href="#m64fb95b764" x="328.369008" y="167.917474" style="stroke: #000000"/>
     <use xlink:href="#m64fb95b764" x="333.33808" y="155.238218" style="stroke: #000000"/>
     <use xlink:href="#m64fb95b764" x="338.467444" y="167.917474" style="stroke: #000000"/>
     <use xlink:href="#m64fb95b764" x="343.436515" y="167.917474" style="stroke: #000000"/>
     <use xlink:href="#m64fb95b764" x="348.405586" y="155.238218" style="stroke: #000000"/>
     <use xlink:href="#m64fb95b764" x="353.374658" y="167.917474" style="stroke: #000000"/>
     <use xlink:href="#m64fb95b764" x="358.504022" y="167.917474" style="stroke: #000000"/>
     <use xlink:href="#m64fb95b764" x="363.473093" y="155.238218" style="stroke: #000000"/>
     <use xlink:href="#m64fb95b764" x="368.442164" y="167.917474" style="stroke: #000000"/>
     <use xlink:href="#m64fb95b764" x="373.411236" y="155.238218" style="stroke: #000000"/>
     <use xlink:href="#m64fb95b764" x="378.5406" y="167.917474" style="stroke: #000000"/>
     <use xlink:href="#m64fb95b764" x="383.509671" y="167.917474" style="stroke: #000000"/>
     <use xlink:href="#m64fb95b764" x="388.478743" y="155.238218" style="stroke: #000000"/>
     <use xlink:href="#m64fb95b764" x="393.447814" y="167.917474" style="stroke: #000000"/>
     <use xlink:href="#m64fb95b764" x="398.577178" y="167.917474" style="stroke: #000000"/>
     <use xlink:href="#m64fb95b764" x="403.546249" y="155.238218" style="stroke: #000000"/>
     <use xlink:href="#m64fb95b764" x="408.515321" y="167.917474" style="stroke: #000000"/>
     <use xlink:href="#m64fb95b764" x="413.484392" y="155.238218" style="stroke: #000000"/>
     <use xlink:href="#m64fb95b764" x="418.613756" y="167.917474" style="stroke: #000000"/>
     <use xlink:href="#m64fb95b764" x="423.582827" y="167.917474" style="stroke: #000000"/>
     <use xlink:href="#m64fb95b764" x="428.551899" y="155.238218" style="stroke: #000000"/>
     <use xlink:href="#m64fb95b764" x="433.52097" y="167.917474" style="stroke: #000000"/>
     <use xlink:href="#m64fb95b764" x="438.650334" y="167.917474" style="stroke: #000000"/>
     <use xlink:href="#m64fb95b764" x="443.619406" y="155.238218" style="stroke: #000000"/>
     <use xlink:href="#m64fb95b764" x="448.588477" y="167.917474" style="stroke: #000000"/>
     <use xlink:href="#m64fb95b764" x="453.557548" y="155.238218" style="stroke: #000000"/>
     <use xlink:href="#m64fb95b764" x="458.686912" y="167.917474" style="stroke: #000000"/>
     <use xlink:href="#m64fb95b764" x="463.655984" y="167.917474" style="stroke: #000000"/>
     <use xlink:href="#m64fb95b764" x="468.625055" y="155.238218" style="stroke: #000000"/>
     <use xlink:href="#m64fb95b764" x="473.594126" y="167.917474" style="stroke: #000000"/>
     <use xlink:href="#m64fb95b764" x="478.72349" y="167.917474" style="stroke: #000000"/>
     <use xlink:href="#m64fb95b764" x="483.692562" y="155.238218" style="stroke: #000000"/>
     <use xlink:href="#m64fb95b764" x="488.661633" y="167.917474" style="stroke: #000000"/>
     <use xlink:href="#m64fb95b764" x="493.630705" y="155.238218" style="stroke: #000000"/>
     <use xlink:href="#m64fb95b764" x="498.760069" y="167.917474" style="stroke: #000000"/>
     <use xlink:href="#m64fb95b764" x="503.72914" y="167.917474" style="stroke: #000000"/>
     <use xlink:href="#m64fb95b764" x="508.698211" y="155.238218" style="stroke: #000000"/>
     <use xlink:href="#m64fb95b764" x="513.667283" y="167.917474" style="stroke: #000000"/>
     <use xlink:href="#m64fb95b764" x="518.796647" y="167.917474" style="stroke: #000000"/>
     <use xlink:href="#m64fb95b764" x="523.765718" y="155.238218" style="stroke: #000000"/>
     <use xlink:href="#m64fb95b764" x="528.734789" y="167.917474" style="stroke: #000000"/>
     <use xlink:href="#m64fb95b764" x="533.703861" y="155.238218" style="stroke: #000000"/>
     <use xlink:href="#m64fb95b764" x="538.833225" y="167.917474" style="stroke: #000000"/>
     <use xlink:href="#m64fb95b764" x="543.802296" y="167.917474" style="stroke: #000000"/>
     <use xlink:href="#m64fb95b764" x="548.771368" y="155.238218" style="stroke: #000000"/>
     <use xlink:href="#m64fb95b764" x="553.740439" y="167.917474" style="stroke: #000000"/>
     <use xlink:href="#m64fb95b764" x="558.869803" y="167.917474" style="stroke: #000000"/>
     <use xlink:href="#m64fb95b764" x="563.838874" y="155.238218" style="stroke: #000000"/>
     <use xlink:href="#m64fb95b764" x="568.807946" y="167.917474" style="stroke: #000000"/>
     <use xlink:href="#m64fb95b764" x="573.777017" y="155.238218" style="stroke: #000000"/>
     <use xlink:href="#m64fb95b764" x="578.906381" y="167.917474" style="stroke: #000000"/>
     <use xlink:href="#m64fb95b764" x="583.875452" y="167.917474" style="stroke: #000000"/>
     <use xlink:href="#m64fb95b764" x="588.844524" y="155.238218" style="stroke: #000000"/>
     <use xlink:href="#m64fb95b764" x="593.813595" y="167.917474" style="stroke: #000000"/>
     <use xlink:href="#m64fb95b764" x="598.942959" y="167.917474" style="stroke: #000000"/>
     <use xlink:href="#m64fb95b764" x="603.912031" y="155.238218" style="stroke: #000000"/>
     <use xlink:href="#m64fb95b764" x="608.881102" y="167.917474" style="stroke: #000000"/>
     <use xlink:href="#m64fb95b764" x="613.850173" y="155.238218" style="stroke: #000000"/>
     <use xlink:href="#m64fb95b764" x="618.979537" y="167.917474" style="stroke: #000000"/>
     <use xlink:href="#m64fb95b764" x="623.948609" y="167.917474" style="stroke: #000000"/>
     <use xlink:href="#m64fb95b764" x="628.91768" y="155.238218" style="stroke: #000000"/>
     <use xlink:href="#m64fb95b764" x="633.886751" y="167.917474" style="stroke: #000000"/>
     <use xlink:href="#m64fb95b764" x="639.016115" y="167.917474" style="stroke: #000000"/>
     <use xlink:href="#m64fb95b764" x="643.985187" y="155.238218" style="stroke: #000000"/>
     <use xlink:href="#m64fb95b764" x="648.954258" y="167.917474" style="stroke: #000000"/>
     <use xlink:href="#m64fb95b764" x="653.92333" y="155.238218" style="stroke: #000000"/>
     <use xlink:href="#m64fb95b764" x="659.052694" y="167.917474" style="stroke: #000000"/>
     <use xlink:href="#m64fb95b764" x="664.021765" y="167.917474" style="stroke: #000000"/>
     <use xlink:href="#m64fb95b764" x="668.990836" y="155.238218" style="stroke: #000000"/>
     <use xlink:href="#m64fb95b764" x="673.959908" y="167.917474" style="stroke: #000000"/>
     <use xlink:href="#m64fb95b764" x="679.089272" y="167.917474" style="stroke: #000000"/>
     <use xlink:href="#m64fb95b764" x="684.058343" y="155.238218" style="stroke: #000000"/>
     <use xlink:href="#m64fb95b764" x="689.027414" y="167.917474" style="stroke: #000000"/>
     <use xlink:href="#m64fb95b764" x="693.996486" y="155.238218" style="stroke: #000000"/>
     <use xlink:href="#m64fb95b764" x="699.12585" y="167.917474" style="stroke: #000000"/>
     <use xlink:href="#m64fb95b764" x="704.094921" y="167.917474" style="stroke: #000000"/>
     <use xlink:href="#m64fb95b764" x="709.063993" y="155.238218" style="stroke: #000000"/>
     <use xlink:href="#m64fb95b764" x="714.033064" y="167.917474" style="stroke: #000000"/>
     <use xlink:href="#m64fb95b764" x="719.162428" y="167.917474" style="stroke: #000000"/>
     <use xlink:href="#m64fb95b764" x="724.131499" y="155.238218" style="stroke: #000000"/>
     <use xlink:href="#m64fb95b764" x="729.100571" y="167.917474" style="stroke: #000000"/>
     <use xlink:href="#m64fb95b764" x="734.069642" y="155.238218" style="stroke: #000000"/>
     <use xlink:href="#m64fb95b764" x="739.199006" y="167.917474" style="stroke: #000000"/>
     <use xlink:href="#m64fb95b764" x="744.168077" y="167.917474" style="stroke: #000000"/>
     <use xlink:href="#m64fb95b764" x="749.137149" y="155.238218" style="stroke: #000000"/>
     <use xlink:href="#m64fb95b764" x="754.10622" y="167.917474" style="stroke: #000000"/>
     <use xlink:href="#m64fb95b764" x="759.235584" y="167.917474" style="stroke: #000000"/>
     <use xlink:href="#m64fb95b764" x="764.204656" y="155.238218" style="stroke: #000000"/>
     <use xlink:href="#m64fb95b764" x="769.173727" y="167.917474" style="stroke: #000000"/>
     <use xlink:href="#m64fb95b764" x="774.142798" y="155.238218" style="stroke: #000000"/>
     <use xlink:href="#m64fb95b764" x="779.272162" y="167.917474" style="stroke: #000000"/>
     <use xlink:href="#m64fb95b764" x="784.241234" y="167.917474" style="stroke: #000000"/>
     <use xlink:href="#m64fb95b764" x="789.210305" y="155.238218" style="stroke: #000000"/>
     <use xlink:href="#m64fb95b764" x="794.179376" y="167.917474" style="stroke: #000000"/>
     <use xlink:href="#m64fb95b764" x="799.30874" y="167.917474" style="stroke: #000000"/>
     <use xlink:href="#m64fb95b764" x="804.277812" y="155.238218" style="stroke: #000000"/>
     <use xlink:href="#m64fb95b764" x="809.246883" y="167.917474" style="stroke: #000000"/>
     <use xlink:href="#m64fb95b764" x="814.215955" y="155.238218" style="stroke: #000000"/>
     <use xlink:href="#m64fb95b764" x="819.345319" y="167.917474" style="stroke: #000000"/>
     <use xlink:href="#m64fb95b764" x="824.31439" y="167.917474" style="stroke: #000000"/>
     <use xlink:href="#m64fb95b764" x="829.283461" y="155.238218" style="stroke: #000000"/>
     <use xlink:href="#m64fb95b764" x="834.252533" y="167.917474" style="stroke: #000000"/>
     <use xlink:href="#m64fb95b764" x="839.381897" y="167.917474" style="stroke: #000000"/>
     <use xlink:href="#m64fb95b764" x="844.350968" y="155.238218" style="stroke: #000000"/>
     <use xlink:href="#m64fb95b764" x="849.320039" y="167.917474" style="stroke: #000000"/>
     <use xlink:href="#m64fb95b764" x="854.289111" y="155.238218" style="stroke: #000000"/>
     <use xlink:href="#m64fb95b764" x="859.418475" y="167.917474" style="stroke: #000000"/>
     <use xlink:href="#m64fb95b764" x="864.387546" y="167.917474" style="stroke: #000000"/>
     <use xlink:href="#m64fb95b764" x="869.356618" y="155.238218" style="stroke: #000000"/>
     <use xlink:href="#m64fb95b764" x="874.325689" y="167.917474" style="stroke: #000000"/>
     <use xlink:href="#m64fb95b764" x="879.455053" y="167.917474" style="stroke: #000000"/>
     <use xlink:href="#m64fb95b764" x="884.424124" y="155.238218" style="stroke: #000000"/>
     <use xlink:href="#m64fb95b764" x="889.393196" y="167.917474" style="stroke: #000000"/>
     <use xlink:href="#m64fb95b764" x="894.362267" y="155.238218" style="stroke: #000000"/>
     <use xlink:href="#m64fb95b764" x="899.491631" y="167.917474" style="stroke: #000000"/>
     <use xlink:href="#m64fb95b764" x="904.460702" y="167.917474" style="stroke: #000000"/>
     <use xlink:href="#m64fb95b764" x="909.429774" y="155.238218" style="stroke: #000000"/>
     <use xlink:href="#m64fb95b764" x="914.398845" y="167.917474" style="stroke: #000000"/>
     <use xlink:href="#m64fb95b764" x="919.528209" y="167.917474" style="stroke: #000000"/>
     <use xlink:href="#m64fb95b764" x="924.497281" y="155.238218" style="stroke: #000000"/>
     <use xlink:href="#m64fb95b764" x="929.466352" y="167.917474" style="stroke: #000000"/>
    </g>
   </g>
   <g id="patch_3">
    <path d="M 135 448.56 
L 135 60.48 
" style="fill: none; stroke: #000000; stroke-width: 0.8; stroke-linejoin: miter; stroke-linecap: square"/>
   </g>
   <g id="patch_4">
    <path d="M 972 448.56 
L 972 60.48 
" style="fill: none; stroke: #000000; stroke-width: 0.8; stroke-linejoin: miter; stroke-linecap: square"/>
   </g>
   <g id="patch_5">
    <path d="M 135 448.56 
L 972 448.56 
" style="fill: none; stroke: #000000; stroke-width: 0.8; stroke-linejoin: miter; stroke-linecap: square"/>
   </g>
   <g id="patch_6">
    <path d="M 135 60.48 
L 972 60.48 
" style="fill: none; stroke: #000000; stroke-width: 0.8; stroke-linejoin: miter; stroke-linecap: square"/>
   </g>
   <g id="legend_1">
    <g id="patch_7">
     <path d="M 895.915625 278.315313 
L 965 278.315313 
Q 967 278.315313 967 276.315313 
L 967 232.724688 
Q 967 230.724688 965 230.724688 
L 895.915625 230.724688 
Q 893.915625 230.724688 893.915625 232.724688 
L 893.915625 276.315313 
Q 893.915625 278.315313 895.915625 278.315313 
z
" style="fill: #ffffff; opacity: 0.8; stroke: #cccccc; stroke-linejoin: miter"/>
    </g>
    <g id="line2d_15">
     <path d="M 897.915625 238.823125 
L 907.915625 238.823125 
L 917.915625 238.823125 
" style="fill: none; stroke: #1f77b4; stroke-width: 1.5; stroke-linecap: square"/>
    </g>
    <g id="text_13">
     <!-- nw_0 -->
     <g transform="translate(925.915625 242.323125) scale(0.1 -0.1)">
      <defs>
       <path id="DejaVuSans-6e" d="M 3513 2113 
L 3513 0 
L 2938 0 
L 2938 2094 
Q 2938 2591 2744 2837 
Q 2550 3084 2163 3084 
Q 1697 3084 1428 2787 
Q 1159 2491 1159 1978 
L 1159 0 
L 581 0 
L 581 3500 
L 1159 3500 
L 1159 2956 
Q 1366 3272 1645 3428 
Q 1925 3584 2291 3584 
Q 2894 3584 3203 3211 
Q 3513 2838 3513 2113 
z
" transform="scale(0.015625)"/>
       <path id="DejaVuSans-77" d="M 269 3500 
L 844 3500 
L 1563 769 
L 2278 3500 
L 2956 3500 
L 3675 769 
L 4391 3500 
L 4966 3500 
L 4050 0 
L 3372 0 
L 2619 2869 
L 1863 0 
L 1184 0 
L 269 3500 
z
" transform="scale(0.015625)"/>
       <path id="DejaVuSans-5f" d="M 3263 -1063 
L 3263 -1509 
L -63 -1509 
L -63 -1063 
L 3263 -1063 
z
" transform="scale(0.015625)"/>
      </defs>
      <use xlink:href="#DejaVuSans-6e"/>
      <use xlink:href="#DejaVuSans-77" x="63.378906"/>
      <use xlink:href="#DejaVuSans-5f" x="145.166016"/>
      <use xlink:href="#DejaVuSans-30" x="195.166016"/>
     </g>
    </g>
    <g id="line2d_16">
     <path d="M 897.915625 253.779375 
L 907.915625 253.779375 
L 917.915625 253.779375 
" style="fill: none; stroke: #ff7f0e; stroke-width: 1.5; stroke-linecap: square"/>
    </g>
    <g id="text_14">
     <!-- input_0 -->
     <g transform="translate(925.915625 257.279375) scale(0.1 -0.1)">
      <defs>
       <path id="DejaVuSans-69" d="M 603 3500 
L 1178 3500 
L 1178 0 
L 603 0 
L 603 3500 
z
M 603 4863 
L 1178 4863 
L 1178 4134 
L 603 4134 
L 603 4863 
z
" transform="scale(0.015625)"/>
       <path id="DejaVuSans-70" d="M 1159 525 
L 1159 -1331 
L 581 -1331 
L 581 3500 
L 1159 3500 
L 1159 2969 
Q 1341 3281 1617 3432 
Q 1894 3584 2278 3584 
Q 2916 3584 3314 3078 
Q 3713 2572 3713 1747 
Q 3713 922 3314 415 
Q 2916 -91 2278 -91 
Q 1894 -91 1617 61 
Q 1341 213 1159 525 
z
M 3116 1747 
Q 3116 2381 2855 2742 
Q 2594 3103 2138 3103 
Q 1681 3103 1420 2742 
Q 1159 2381 1159 1747 
Q 1159 1113 1420 752 
Q 1681 391 2138 391 
Q 2594 391 2855 752 
Q 3116 1113 3116 1747 
z
" transform="scale(0.015625)"/>
       <path id="DejaVuSans-75" d="M 544 1381 
L 544 3500 
L 1119 3500 
L 1119 1403 
Q 1119 906 1312 657 
Q 1506 409 1894 409 
Q 2359 409 2629 706 
Q 2900 1003 2900 1516 
L 2900 3500 
L 3475 3500 
L 3475 0 
L 2900 0 
L 2900 538 
Q 2691 219 2414 64 
Q 2138 -91 1772 -91 
Q 1169 -91 856 284 
Q 544 659 544 1381 
z
M 1991 3584 
L 1991 3584 
z
" transform="scale(0.015625)"/>
      </defs>
      <use xlink:href="#DejaVuSans-69"/>
      <use xlink:href="#DejaVuSans-6e" x="27.783203"/>
      <use xlink:href="#DejaVuSans-70" x="91.162109"/>
      <use xlink:href="#DejaVuSans-75" x="154.638672"/>
      <use xlink:href="#DejaVuSans-74" x="218.017578"/>
      <use xlink:href="#DejaVuSans-5f" x="257.226562"/>
      <use xlink:href="#DejaVuSans-30" x="307.226562"/>
     </g>
    </g>
    <g id="line2d_17">
     <path d="M 897.915625 268.735625 
L 907.915625 268.735625 
L 917.915625 268.735625 
" style="fill: none; stroke: #000000; stroke-width: 1.5; stroke-linecap: square"/>
     <g>
      <use xlink:href="#m64fb95b764" x="907.915625" y="268.735625" style="stroke: #000000"/>
     </g>
    </g>
    <g id="text_15">
     <!-- target -->
     <g transform="translate(925.915625 272.235625) scale(0.1 -0.1)">
      <defs>
       <path id="DejaVuSans-61" d="M 2194 1759 
Q 1497 1759 1228 1600 
Q 959 1441 959 1056 
Q 959 750 1161 570 
Q 1363 391 1709 391 
Q 2188 391 2477 730 
Q 2766 1069 2766 1631 
L 2766 1759 
L 2194 1759 
z
M 3341 1997 
L 3341 0 
L 2766 0 
L 2766 531 
Q 2569 213 2275 61 
Q 1981 -91 1556 -91 
Q 1019 -91 701 211 
Q 384 513 384 1019 
Q 384 1609 779 1909 
Q 1175 2209 1959 2209 
L 2766 2209 
L 2766 2266 
Q 2766 2663 2505 2880 
Q 2244 3097 1772 3097 
Q 1472 3097 1187 3025 
Q 903 2953 641 2809 
L 641 3341 
Q 956 3463 1253 3523 
Q 1550 3584 1831 3584 
Q 2591 3584 2966 3190 
Q 3341 2797 3341 1997 
z
" transform="scale(0.015625)"/>
       <path id="DejaVuSans-72" d="M 2631 2963 
Q 2534 3019 2420 3045 
Q 2306 3072 2169 3072 
Q 1681 3072 1420 2755 
Q 1159 2438 1159 1844 
L 1159 0 
L 581 0 
L 581 3500 
L 1159 3500 
L 1159 2956 
Q 1341 3275 1631 3429 
Q 1922 3584 2338 3584 
Q 2397 3584 2469 3576 
Q 2541 3569 2628 3553 
L 2631 2963 
z
" transform="scale(0.015625)"/>
       <path id="DejaVuSans-67" d="M 2906 1791 
Q 2906 2416 2648 2759 
Q 2391 3103 1925 3103 
Q 1463 3103 1205 2759 
Q 947 2416 947 1791 
Q 947 1169 1205 825 
Q 1463 481 1925 481 
Q 2391 481 2648 825 
Q 2906 1169 2906 1791 
z
M 3481 434 
Q 3481 -459 3084 -895 
Q 2688 -1331 1869 -1331 
Q 1566 -1331 1297 -1286 
Q 1028 -1241 775 -1147 
L 775 -588 
Q 1028 -725 1275 -790 
Q 1522 -856 1778 -856 
Q 2344 -856 2625 -561 
Q 2906 -266 2906 331 
L 2906 616 
Q 2728 306 2450 153 
Q 2172 0 1784 0 
Q 1141 0 747 490 
Q 353 981 353 1791 
Q 353 2603 747 3093 
Q 1141 3584 1784 3584 
Q 2172 3584 2450 3431 
Q 2728 3278 2906 2969 
L 2906 3500 
L 3481 3500 
L 3481 434 
z
" transform="scale(0.015625)"/>
       <path id="DejaVuSans-65" d="M 3597 1894 
L 3597 1613 
L 953 1613 
Q 991 1019 1311 708 
Q 1631 397 2203 397 
Q 2534 397 2845 478 
Q 3156 559 3463 722 
L 3463 178 
Q 3153 47 2828 -22 
Q 2503 -91 2169 -91 
Q 1331 -91 842 396 
Q 353 884 353 1716 
Q 353 2575 817 3079 
Q 1281 3584 2069 3584 
Q 2775 3584 3186 3129 
Q 3597 2675 3597 1894 
z
M 3022 2063 
Q 3016 2534 2758 2815 
Q 2500 3097 2075 3097 
Q 1594 3097 1305 2825 
Q 1016 2553 972 2059 
L 3022 2063 
z
" transform="scale(0.015625)"/>
      </defs>
      <use xlink:href="#DejaVuSans-74"/>
      <use xlink:href="#DejaVuSans-61" x="39.208984"/>
      <use xlink:href="#DejaVuSans-72" x="100.488281"/>
      <use xlink:href="#DejaVuSans-67" x="139.851562"/>
      <use xlink:href="#DejaVuSans-65" x="203.328125"/>
      <use xlink:href="#DejaVuSans-74" x="264.851562"/>
     </g>
    </g>
   </g>
  </g>
 </g>
 <defs>
  <clipPath id="p61cbfd6b9f">
   <rect x="135" y="60.48" width="837" height="388.08"/>
  </clipPath>
 </defs>
</svg>
