<?xml version="1.0" encoding="utf-8" standalone="no"?>
<!DOCTYPE svg PUBLIC "-//W3C//DTD SVG 1.1//EN"
  "http://www.w3.org/Graphics/SVG/1.1/DTD/svg11.dtd">
<svg xmlns:xlink="http://www.w3.org/1999/xlink" width="1080pt" height="504pt" viewBox="0 0 1080 504" xmlns="http://www.w3.org/2000/svg" version="1.1">
 <metadata>
  <rdf:RDF xmlns:dc="http://purl.org/dc/elements/1.1/" xmlns:cc="http://creativecommons.org/ns#" xmlns:rdf="http://www.w3.org/1999/02/22-rdf-syntax-ns#">
   <cc:Work>
    <dc:type rdf:resource="http://purl.org/dc/dcmitype/StillImage"/>
    <dc:date>2024-05-09T11:02:25.924934</dc:date>
    <dc:format>image/svg+xml</dc:format>
    <dc:creator>
     <cc:Agent>
      <dc:title>Matplotlib v3.7.1, https://matplotlib.org/</dc:title>
     </cc:Agent>
    </dc:creator>
   </cc:Work>
  </rdf:RDF>
 </metadata>
 <defs>
  <style type="text/css">*{stroke-linejoin: round; stroke-linecap: butt}</style>
 </defs>
 <g id="figure_1">
  <g id="patch_1">
   <path d="M 0 504 
L 1080 504 
L 1080 0 
L 0 0 
z
" style="fill: #ffffff"/>
  </g>
  <g id="axes_1">
   <g id="patch_2">
    <path d="M 135 448.56 
L 972 448.56 
L 972 60.48 
L 135 60.48 
z
" style="fill: #ffffff"/>
   </g>
   <g id="matplotlib.axis_1">
    <g id="xtick_1">
     <g id="line2d_1">
      <defs>
       <path id="mba39d5f532" d="M 0 0 
L 0 3.5 
" style="stroke: #000000; stroke-width: 0.8"/>
      </defs>
      <g>
       <use xlink:href="#mba39d5f532" x="173.045455" y="448.56" style="stroke: #000000; stroke-width: 0.8"/>
      </g>
     </g>
     <g id="text_1">
      <!-- 0 -->
      <g transform="translate(169.864205 463.158437) scale(0.1 -0.1)">
       <defs>
        <path id="DejaVuSans-30" d="M 2034 4250 
Q 1547 4250 1301 3770 
Q 1056 3291 1056 2328 
Q 1056 1369 1301 889 
Q 1547 409 2034 409 
Q 2525 409 2770 889 
Q 3016 1369 3016 2328 
Q 3016 3291 2770 3770 
Q 2525 4250 2034 4250 
z
M 2034 4750 
Q 2819 4750 3233 4129 
Q 3647 3509 3647 2328 
Q 3647 1150 3233 529 
Q 2819 -91 2034 -91 
Q 1250 -91 836 529 
Q 422 1150 422 2328 
Q 422 3509 836 4129 
Q 1250 4750 2034 4750 
z
" transform="scale(0.015625)"/>
       </defs>
       <use xlink:href="#DejaVuSans-30"/>
      </g>
     </g>
    </g>
    <g id="xtick_2">
     <g id="line2d_2">
      <g>
       <use xlink:href="#mba39d5f532" x="333.33808" y="448.56" style="stroke: #000000; stroke-width: 0.8"/>
      </g>
     </g>
     <g id="text_2">
      <!-- 1000 -->
      <g transform="translate(320.61308 463.158437) scale(0.1 -0.1)">
       <defs>
        <path id="DejaVuSans-31" d="M 794 531 
L 1825 531 
L 1825 4091 
L 703 3866 
L 703 4441 
L 1819 4666 
L 2450 4666 
L 2450 531 
L 3481 531 
L 3481 0 
L 794 0 
L 794 531 
z
" transform="scale(0.015625)"/>
       </defs>
       <use xlink:href="#DejaVuSans-31"/>
       <use xlink:href="#DejaVuSans-30" x="63.623047"/>
       <use xlink:href="#DejaVuSans-30" x="127.246094"/>
       <use xlink:href="#DejaVuSans-30" x="190.869141"/>
      </g>
     </g>
    </g>
    <g id="xtick_3">
     <g id="line2d_3">
      <g>
       <use xlink:href="#mba39d5f532" x="493.630705" y="448.56" style="stroke: #000000; stroke-width: 0.8"/>
      </g>
     </g>
     <g id="text_3">
      <!-- 2000 -->
      <g transform="translate(480.905705 463.158437) scale(0.1 -0.1)">
       <defs>
        <path id="DejaVuSans-32" d="M 1228 531 
L 3431 531 
L 3431 0 
L 469 0 
L 469 531 
Q 828 903 1448 1529 
Q 2069 2156 2228 2338 
Q 2531 2678 2651 2914 
Q 2772 3150 2772 3378 
Q 2772 3750 2511 3984 
Q 2250 4219 1831 4219 
Q 1534 4219 1204 4116 
Q 875 4013 500 3803 
L 500 4441 
Q 881 4594 1212 4672 
Q 1544 4750 1819 4750 
Q 2544 4750 2975 4387 
Q 3406 4025 3406 3419 
Q 3406 3131 3298 2873 
Q 3191 2616 2906 2266 
Q 2828 2175 2409 1742 
Q 1991 1309 1228 531 
z
" transform="scale(0.015625)"/>
       </defs>
       <use xlink:href="#DejaVuSans-32"/>
       <use xlink:href="#DejaVuSans-30" x="63.623047"/>
       <use xlink:href="#DejaVuSans-30" x="127.246094"/>
       <use xlink:href="#DejaVuSans-30" x="190.869141"/>
      </g>
     </g>
    </g>
    <g id="xtick_4">
     <g id="line2d_4">
      <g>
       <use xlink:href="#mba39d5f532" x="653.92333" y="448.56" style="stroke: #000000; stroke-width: 0.8"/>
      </g>
     </g>
     <g id="text_4">
      <!-- 3000 -->
      <g transform="translate(641.19833 463.158437) scale(0.1 -0.1)">
       <defs>
        <path id="DejaVuSans-33" d="M 2597 2516 
Q 3050 2419 3304 2112 
Q 3559 1806 3559 1356 
Q 3559 666 3084 287 
Q 2609 -91 1734 -91 
Q 1441 -91 1130 -33 
Q 819 25 488 141 
L 488 750 
Q 750 597 1062 519 
Q 1375 441 1716 441 
Q 2309 441 2620 675 
Q 2931 909 2931 1356 
Q 2931 1769 2642 2001 
Q 2353 2234 1838 2234 
L 1294 2234 
L 1294 2753 
L 1863 2753 
Q 2328 2753 2575 2939 
Q 2822 3125 2822 3475 
Q 2822 3834 2567 4026 
Q 2313 4219 1838 4219 
Q 1578 4219 1281 4162 
Q 984 4106 628 3988 
L 628 4550 
Q 988 4650 1302 4700 
Q 1616 4750 1894 4750 
Q 2613 4750 3031 4423 
Q 3450 4097 3450 3541 
Q 3450 3153 3228 2886 
Q 3006 2619 2597 2516 
z
" transform="scale(0.015625)"/>
       </defs>
       <use xlink:href="#DejaVuSans-33"/>
       <use xlink:href="#DejaVuSans-30" x="63.623047"/>
       <use xlink:href="#DejaVuSans-30" x="127.246094"/>
       <use xlink:href="#DejaVuSans-30" x="190.869141"/>
      </g>
     </g>
    </g>
    <g id="xtick_5">
     <g id="line2d_5">
      <g>
       <use xlink:href="#mba39d5f532" x="814.215955" y="448.56" style="stroke: #000000; stroke-width: 0.8"/>
      </g>
     </g>
     <g id="text_5">
      <!-- 4000 -->
      <g transform="translate(801.490955 463.158437) scale(0.1 -0.1)">
       <defs>
        <path id="DejaVuSans-34" d="M 2419 4116 
L 825 1625 
L 2419 1625 
L 2419 4116 
z
M 2253 4666 
L 3047 4666 
L 3047 1625 
L 3713 1625 
L 3713 1100 
L 3047 1100 
L 3047 0 
L 2419 0 
L 2419 1100 
L 313 1100 
L 313 1709 
L 2253 4666 
z
" transform="scale(0.015625)"/>
       </defs>
       <use xlink:href="#DejaVuSans-34"/>
       <use xlink:href="#DejaVuSans-30" x="63.623047"/>
       <use xlink:href="#DejaVuSans-30" x="127.246094"/>
       <use xlink:href="#DejaVuSans-30" x="190.869141"/>
      </g>
     </g>
    </g>
    <g id="text_6">
     <!-- t -->
     <g transform="translate(551.539844 476.836563) scale(0.1 -0.1)">
      <defs>
       <path id="DejaVuSans-74" d="M 1172 4494 
L 1172 3500 
L 2356 3500 
L 2356 3053 
L 1172 3053 
L 1172 1153 
Q 1172 725 1289 603 
Q 1406 481 1766 481 
L 2356 481 
L 2356 0 
L 1766 0 
Q 1100 0 847 248 
Q 594 497 594 1153 
L 594 3053 
L 172 3053 
L 172 3500 
L 594 3500 
L 594 4494 
L 1172 4494 
z
" transform="scale(0.015625)"/>
      </defs>
      <use xlink:href="#DejaVuSans-74"/>
     </g>
    </g>
   </g>
   <g id="matplotlib.axis_2">
    <g id="ytick_1">
     <g id="line2d_6">
      <defs>
       <path id="m8e2c596655" d="M 0 0 
L -3.5 0 
" style="stroke: #000000; stroke-width: 0.8"/>
      </defs>
      <g>
       <use xlink:href="#m8e2c596655" x="135" y="415.736358" style="stroke: #000000; stroke-width: 0.8"/>
      </g>
     </g>
     <g id="text_7">
      <!-- 0.0 -->
      <g transform="translate(112.096875 419.535577) scale(0.1 -0.1)">
       <defs>
        <path id="DejaVuSans-2e" d="M 684 794 
L 1344 794 
L 1344 0 
L 684 0 
L 684 794 
z
" transform="scale(0.015625)"/>
       </defs>
       <use xlink:href="#DejaVuSans-30"/>
       <use xlink:href="#DejaVuSans-2e" x="63.623047"/>
       <use xlink:href="#DejaVuSans-30" x="95.410156"/>
      </g>
     </g>
    </g>
    <g id="ytick_2">
     <g id="line2d_7">
      <g>
       <use xlink:href="#m8e2c596655" x="135" y="364.940319" style="stroke: #000000; stroke-width: 0.8"/>
      </g>
     </g>
     <g id="text_8">
      <!-- 0.5 -->
      <g transform="translate(112.096875 368.739538) scale(0.1 -0.1)">
       <defs>
        <path id="DejaVuSans-35" d="M 691 4666 
L 3169 4666 
L 3169 4134 
L 1269 4134 
L 1269 2991 
Q 1406 3038 1543 3061 
Q 1681 3084 1819 3084 
Q 2600 3084 3056 2656 
Q 3513 2228 3513 1497 
Q 3513 744 3044 326 
Q 2575 -91 1722 -91 
Q 1428 -91 1123 -41 
Q 819 9 494 109 
L 494 744 
Q 775 591 1075 516 
Q 1375 441 1709 441 
Q 2250 441 2565 725 
Q 2881 1009 2881 1497 
Q 2881 1984 2565 2268 
Q 2250 2553 1709 2553 
Q 1456 2553 1204 2497 
Q 953 2441 691 2322 
L 691 4666 
z
" transform="scale(0.015625)"/>
       </defs>
       <use xlink:href="#DejaVuSans-30"/>
       <use xlink:href="#DejaVuSans-2e" x="63.623047"/>
       <use xlink:href="#DejaVuSans-35" x="95.410156"/>
      </g>
     </g>
    </g>
    <g id="ytick_3">
     <g id="line2d_8">
      <g>
       <use xlink:href="#m8e2c596655" x="135" y="314.144279" style="stroke: #000000; stroke-width: 0.8"/>
      </g>
     </g>
     <g id="text_9">
      <!-- 1.0 -->
      <g transform="translate(112.096875 317.943498) scale(0.1 -0.1)">
       <use xlink:href="#DejaVuSans-31"/>
       <use xlink:href="#DejaVuSans-2e" x="63.623047"/>
       <use xlink:href="#DejaVuSans-30" x="95.410156"/>
      </g>
     </g>
    </g>
    <g id="ytick_4">
     <g id="line2d_9">
      <g>
       <use xlink:href="#m8e2c596655" x="135" y="263.34824" style="stroke: #000000; stroke-width: 0.8"/>
      </g>
     </g>
     <g id="text_10">
      <!-- 1.5 -->
      <g transform="translate(112.096875 267.147458) scale(0.1 -0.1)">
       <use xlink:href="#DejaVuSans-31"/>
       <use xlink:href="#DejaVuSans-2e" x="63.623047"/>
       <use xlink:href="#DejaVuSans-35" x="95.410156"/>
      </g>
     </g>
    </g>
    <g id="ytick_5">
     <g id="line2d_10">
      <g>
       <use xlink:href="#m8e2c596655" x="135" y="212.5522" style="stroke: #000000; stroke-width: 0.8"/>
      </g>
     </g>
     <g id="text_11">
      <!-- 2.0 -->
      <g transform="translate(112.096875 216.351419) scale(0.1 -0.1)">
       <use xlink:href="#DejaVuSans-32"/>
       <use xlink:href="#DejaVuSans-2e" x="63.623047"/>
       <use xlink:href="#DejaVuSans-30" x="95.410156"/>
      </g>
     </g>
    </g>
    <g id="ytick_6">
     <g id="line2d_11">
      <g>
       <use xlink:href="#m8e2c596655" x="135" y="161.756161" style="stroke: #000000; stroke-width: 0.8"/>
      </g>
     </g>
     <g id="text_12">
      <!-- 2.5 -->
      <g transform="translate(112.096875 165.555379) scale(0.1 -0.1)">
       <use xlink:href="#DejaVuSans-32"/>
       <use xlink:href="#DejaVuSans-2e" x="63.623047"/>
       <use xlink:href="#DejaVuSans-35" x="95.410156"/>
      </g>
     </g>
    </g>
    <g id="ytick_7">
     <g id="line2d_12">
      <g>
       <use xlink:href="#m8e2c596655" x="135" y="110.960121" style="stroke: #000000; stroke-width: 0.8"/>
      </g>
     </g>
     <g id="text_13">
      <!-- 3.0 -->
      <g transform="translate(112.096875 114.75934) scale(0.1 -0.1)">
       <use xlink:href="#DejaVuSans-33"/>
       <use xlink:href="#DejaVuSans-2e" x="63.623047"/>
       <use xlink:href="#DejaVuSans-30" x="95.410156"/>
      </g>
     </g>
    </g>
   </g>
   <g id="line2d_13">
    <path d="M 173.045455 318.293365 
L 173.205747 279.913256 
L 173.36604 277.593385 
L 173.686625 316.818257 
L 174.167503 371.864604 
L 174.488088 382.999427 
L 174.648381 381.570892 
L 174.968966 367.497919 
L 175.449844 325.239515 
L 177.05277 156.710663 
L 177.693941 123.442154 
L 177.854233 78.12 
L 178.014526 90.583316 
L 178.815989 242.192546 
L 179.777745 343.097461 
L 180.258623 377.186706 
L 180.579208 389.214096 
L 180.899793 394.066618 
L 181.060086 394.628312 
L 181.220378 394.412591 
L 181.701256 391.941305 
L 182.021842 390.664724 
L 182.182134 390.439178 
L 182.342427 390.533087 
L 182.502719 390.949802 
L 182.823305 392.699129 
L 183.304183 397.271232 
L 184.105646 408.26764 
L 185.067401 421.171227 
L 185.387987 423.618084 
L 185.708572 424.439376 
L 185.868865 424.141933 
L 186.18945 422.008288 
L 186.510035 417.777038 
L 186.990913 407.747105 
L 187.792376 384.041905 
L 188.914424 349.78521 
L 189.555595 337.013271 
L 189.87618 333.496558 
L 190.196765 331.995881 
L 190.357058 331.98132 
L 190.517351 332.432491 
L 190.837936 334.622495 
L 191.318814 340.60287 
L 192.120277 355.05082 
L 193.723203 385.187924 
L 194.684959 398.835942 
L 195.646715 409.588283 
L 196.60847 418.037139 
L 197.249641 421.808549 
L 197.570226 422.85446 
L 197.890811 423.194632 
L 198.051104 423.067614 
L 198.371689 422.162781 
L 198.692275 420.331314 
L 199.173152 415.756423 
L 199.65403 408.993878 
L 200.295201 396.910148 
L 201.417249 370.241316 
L 202.69959 340.044427 
L 203.340761 328.752623 
L 203.821639 322.947254 
L 204.302516 319.757558 
L 204.623102 319.148956 
L 204.783394 319.300349 
L 205.10398 320.494772 
L 205.424565 322.829636 
L 205.905443 328.28384 
L 206.546613 338.589837 
L 207.508369 358.203904 
L 209.271588 394.420859 
L 210.073051 406.140701 
L 210.714221 412.088869 
L 211.195099 414.356045 
L 211.515685 414.808314 
L 211.675977 414.721045 
L 211.996562 413.935691 
L 212.317148 412.366403 
L 212.798026 408.646798 
L 213.278903 403.46613 
L 213.599489 242.38018 
L 213.759781 231.879389 
L 213.920074 241.601519 
L 214.721537 319.057929 
L 215.042122 331.689438 
L 215.362708 338.307135 
L 215.683293 341.906428 
L 216.003878 343.802981 
L 216.805341 347.094599 
L 217.286219 351.549337 
L 217.606804 354.457875 
L 217.767097 355.022563 
L 217.92739 354.421524 
L 218.087682 352.153023 
L 218.247975 292.032616 
L 218.408267 291.269878 
L 219.049438 368.995613 
L 219.370023 379.485854 
L 220.652364 393.958451 
L 220.812657 394.481633 
L 220.972949 394.405915 
L 221.293535 392.983852 
L 221.934705 389.624495 
L 222.094998 389.365631 
L 222.25529 389.425505 
L 222.575876 390.418295 
L 223.056754 393.40364 
L 224.65968 404.707306 
L 225.140558 406.941554 
L 225.461143 407.689812 
L 225.621436 407.7486 
L 225.781728 407.553695 
L 226.102313 406.283527 
L 226.422899 403.683013 
L 226.903777 397.0976 
L 227.544947 383.742616 
L 229.468459 338.038061 
L 229.949336 332.481515 
L 230.269922 331.005109 
L 230.430214 330.947498 
L 230.590507 331.333049 
L 230.911092 333.364885 
L 231.39197 339.172948 
L 232.033141 350.612606 
L 234.116945 391.432421 
L 234.918408 402.451968 
L 235.880164 412.359961 
L 236.841919 419.828367 
L 237.48309 423.351183 
L 237.963968 424.858926 
L 238.284553 425.15038 
L 238.444846 425.046281 
L 238.765431 424.284061 
L 239.086016 422.722568 
L 239.566894 418.773458 
L 240.047772 412.855784 
L 240.688942 402.111025 
L 241.650698 381.493532 
L 243.413917 342.951431 
L 244.055087 333.271378 
L 244.535965 328.583155 
L 244.856551 326.814165 
L 245.177136 326.163535 
L 245.337428 326.25692 
L 245.658014 327.263571 
L 245.978599 329.3198 
L 246.459477 334.203024 
L 247.100647 343.515541 
L 248.062403 361.334893 
L 249.825622 394.266935 
L 250.627085 404.829586 
L 251.107963 409.059438 
L 251.588841 411.549068 
L 251.909426 412.22112 
L 252.069719 412.262486 
L 252.230011 412.110192 
L 252.550597 411.237801 
L 252.871182 409.637686 
L 253.35206 405.972989 
L 253.99323 399.028435 
L 254.313815 263.583252 
L 254.474108 255.724751 
L 254.794693 275.274629 
L 255.115279 294.705265 
L 255.435864 301.795605 
L 255.756449 302.928637 
L 255.916742 303.580823 
L 256.077034 305.021647 
L 256.39762 310.960429 
L 256.878497 326.578489 
L 258.481424 388.455313 
L 258.641716 389.762549 
L 258.802009 388.660949 
L 258.962302 317.102617 
L 259.122594 309.556881 
L 259.924057 388.85215 
L 260.244643 394.278073 
L 260.72552 399.064908 
L 261.366691 406.766533 
L 261.687276 408.224029 
L 261.847569 408.299347 
L 262.168154 407.757693 
L 262.488739 407.167563 
L 262.649032 407.090233 
L 262.809325 407.215 
L 263.12991 408.052294 
L 264.572543 413.772535 
L 264.893129 414.230121 
L 265.213714 414.368417 
L 265.534299 414.215304 
L 265.854884 413.72668 
L 266.17547 412.777909 
L 266.496055 411.1859 
L 266.976933 407.159937 
L 267.457811 400.732585 
L 268.098981 388.355945 
L 270.343078 339.174099 
L 270.823956 335.039194 
L 270.984248 334.492882 
L 271.144541 334.36437 
L 271.304834 334.645625 
L 271.625419 336.377721 
L 272.106297 341.55353 
L 272.747467 351.960502 
L 274.991564 392.513138 
L 275.95332 404.442556 
L 276.915076 413.542659 
L 277.876831 420.559481 
L 278.518002 423.651108 
L 278.838587 424.487304 
L 279.159172 424.725449 
L 279.319465 424.591919 
L 279.64005 423.769307 
L 279.960635 422.152029 
L 280.441513 418.147273 
L 280.922391 412.234107 
L 281.563562 401.631295 
L 282.525317 381.571965 
L 284.128244 347.596784 
L 284.769414 337.734158 
L 285.250292 332.714176 
L 285.73117 330.000176 
L 286.051755 329.519286 
L 286.212048 329.675784 
L 286.532633 330.762603 
L 286.853218 332.835576 
L 287.334096 337.623744 
L 287.975267 346.594765 
L 289.097315 366.516786 
L 290.539949 391.827724 
L 291.341412 402.155056 
L 291.982582 407.446105 
L 292.46346 409.485179 
L 292.784045 409.906198 
L 292.944338 409.837978 
L 293.264923 409.156889 
L 293.585509 407.775316 
L 293.906094 276.789051 
L 294.066386 267.14009 
L 294.226679 271.198945 
L 294.707557 290.282294 
L 294.86785 291.650403 
L 295.028142 291.219978 
L 295.348727 289.514805 
L 295.50902 289.997353 
L 295.669313 292.014208 
L 295.989898 300.941804 
L 296.470776 323.93889 
L 297.913409 402.50678 
L 298.233995 408.596061 
L 298.394287 407.834657 
L 298.55458 332.092148 
L 298.714873 322.554056 
L 299.516336 404.76924 
L 299.836921 411.18221 
L 300.798677 418.343825 
L 300.958969 418.680208 
L 301.119262 418.485586 
L 301.439847 416.743558 
L 302.24131 410.682243 
L 302.561896 409.638539 
L 302.722188 409.486459 
L 302.882481 409.526573 
L 303.203066 409.965179 
L 303.844237 410.942393 
L 304.164822 411.05134 
L 304.485407 410.860925 
L 304.966285 410.122572 
L 305.447163 408.85985 
L 305.928041 406.753783 
L 306.408919 403.201731 
L 306.889796 397.610307 
L 307.530967 386.582274 
L 308.492723 364.542711 
L 309.454478 343.539879 
L 309.935356 336.45412 
L 310.255942 333.593044 
L 310.576527 332.362179 
L 310.736819 332.364875 
L 310.897112 332.771297 
L 311.217697 334.73727 
L 311.698575 340.230538 
L 312.339746 351.021274 
L 314.583842 392.727781 
L 315.385306 403.147172 
L 316.347061 412.718776 
L 317.308817 420.008174 
L 317.949988 423.388215 
L 318.430865 424.769226 
L 318.751451 424.975475 
L 318.911743 424.831378 
L 319.232329 423.999915 
L 319.552914 422.391254 
L 320.033792 418.432182 
L 320.51467 412.599395 
L 321.15584 402.139785 
L 322.117596 382.302129 
L 323.720522 348.428705 
L 324.361693 338.451815 
L 324.84257 333.286679 
L 325.323448 330.383962 
L 325.644034 329.758056 
L 325.804326 329.837623 
L 326.124911 330.764188 
L 326.445497 332.671794 
L 326.926375 337.211385 
L 327.567545 345.870892 
L 328.529301 362.422536 
L 330.29252 392.881909 
L 331.093983 402.559198 
L 331.574861 406.38607 
L 332.055739 408.583085 
L 332.376324 409.124596 
L 332.536616 409.120405 
L 332.696909 408.935729 
L 333.017494 408.037909 
L 333.498372 405.436625 
L 333.818957 402.931943 
L 334.139543 280.71866 
L 334.299835 273.104276 
L 334.620421 285.47727 
L 334.941006 293.687267 
L 335.101298 293.101613 
L 335.742469 284.696145 
L 335.902762 285.853631 
L 336.223347 294.325788 
L 336.704225 319.3707 
L 338.146858 409.121187 
L 338.467444 416.353312 
L 338.627736 415.872318 
L 338.788029 337.181888 
L 338.948321 325.767858 
L 339.749785 405.276176 
L 340.07037 411.467734 
L 341.192418 420.48408 
L 341.352711 420.790149 
L 341.513003 420.636754 
L 341.833589 419.344231 
L 342.474759 416.268591 
L 342.795344 415.698383 
L 342.955637 415.677243 
L 343.276222 415.952388 
L 343.7571 416.418349 
L 344.077685 416.345852 
L 344.398271 415.84898 
L 344.879149 414.433122 
L 345.520319 411.747577 
L 346.16149 408.068444 
L 346.642367 404.001917 
L 347.123245 398.177524 
L 347.764416 387.23215 
L 348.726172 365.84241 
L 349.687927 345.537037 
L 350.168805 338.645797 
L 350.48939 335.830483 
L 350.809976 334.574112 
L 350.970268 334.537732 
L 351.130561 334.888292 
L 351.451146 336.695871 
L 351.932024 341.853538 
L 352.573195 352.078228 
L 354.977584 394.248636 
L 355.93934 405.607933 
L 356.901095 414.392112 
L 357.702559 420.15497 
L 358.343729 423.34629 
L 358.664314 424.258634 
L 358.9849 424.594556 
L 359.145192 424.518663 
L 359.465777 423.829426 
L 359.786363 422.369436 
L 360.267241 418.641661 
L 360.748118 413.044185 
L 361.389289 402.891426 
L 362.351045 383.459159 
L 364.114264 347.18942 
L 364.755434 338.03082 
L 365.236312 333.542461 
L 365.556897 331.804396 
L 365.877482 331.099761 
L 366.037775 331.134252 
L 366.198068 331.422818 
L 366.518653 332.741071 
L 366.999531 336.453088 
L 367.640701 344.175098 
L 368.442164 356.986089 
L 370.686261 394.784777 
L 371.327432 402.127264 
L 371.80831 405.910834 
L 372.289187 408.091478 
L 372.609773 408.636138 
L 372.770065 408.63748 
L 372.930358 408.460847 
L 373.090651 408.109198 
L 373.411236 282.988696 
L 373.571528 273.27213 
L 373.731821 275.942861 
L 374.052406 286.103148 
L 374.212699 287.583557 
L 374.372992 286.521465 
L 374.853869 279.793683 
L 375.014162 279.837254 
L 375.174455 281.953356 
L 375.49504 292.490456 
L 375.975918 320.342488 
L 377.418551 413.469285 
L 377.739137 420.713114 
L 377.899429 420.194417 
L 378.059722 341.509215 
L 378.220015 330.421074 
L 379.021478 413.376915 
L 379.342063 420.390832 
L 379.983233 425.327998 
L 380.303819 426.804994 
L 380.464111 426.840107 
L 380.624404 426.33141 
L 380.944989 423.941605 
L 381.906745 415.16106 
L 382.22733 413.873926 
L 382.547915 413.317562 
L 383.349379 412.553143 
L 383.830256 411.429477 
L 384.471427 409.165784 
L 385.112597 406.256703 
L 385.593475 403.228498 
L 386.074353 398.800449 
L 386.555231 392.438567 
L 387.196402 380.745995 
L 389.280206 337.642034 
L 389.761084 333.01782 
L 390.081669 331.900373 
L 390.241961 331.944707 
L 390.402254 332.383413 
L 390.722839 334.388774 
L 391.203717 339.891305 
L 391.844888 350.641904 
L 394.249277 394.648996 
L 395.211033 406.352466 
L 396.172789 415.202814 
L 396.974252 420.8577 
L 397.615422 423.897733 
L 397.936007 424.723117 
L 398.256593 424.968922 
L 398.416885 424.847663 
L 398.737471 424.068557 
L 399.058056 422.521435 
L 399.538934 418.67112 
L 400.019812 412.963233 
L 400.660982 402.683131 
L 401.622738 383.096434 
L 403.385957 346.609938 
L 404.027127 337.384957 
L 404.508005 332.851908 
L 404.82859 331.08727 
L 405.149176 330.359255 
L 405.309468 330.383432 
L 405.469761 330.662698 
L 405.790346 331.96567 
L 406.271224 335.664056 
L 406.912394 343.387512 
L 407.713858 356.234742 
L 409.957954 394.321719 
L 410.599125 401.780695 
L 411.080003 405.655384 
L 411.560881 407.927696 
L 411.881466 408.532657 
L 412.041758 408.563673 
L 412.202051 408.4163 
L 412.522636 407.598674 
L 412.843222 406.111268 
L 413.324099 402.717661 
L 413.644685 399.75617 
L 413.96527 282.653982 
L 414.125563 276.088224 
L 414.766733 294.604401 
L 414.927026 292.831665 
L 415.568196 280.754994 
L 415.728489 281.55816 
L 415.888781 284.70501 
L 416.209367 297.476107 
L 416.690245 328.072173 
L 417.812293 406.440893 
L 418.132878 418.963118 
L 418.293171 421.629219 
L 418.453463 421.286795 
L 418.613756 340.861641 
L 418.774049 328.370497 
L 419.575512 406.659856 
L 419.896097 412.866103 
L 421.178438 423.368611 
L 421.338731 423.465614 
L 421.499023 423.188376 
L 422.621072 419.778606 
L 422.941657 419.812911 
L 423.422535 420.019847 
L 423.74312 419.786884 
L 424.063705 419.076405 
L 424.544583 417.19579 
L 425.346046 412.828018 
L 425.987217 408.467808 
L 426.628387 402.300814 
L 427.269558 393.105471 
L 428.071021 377.166943 
L 429.513655 346.385465 
L 429.994532 339.61951 
L 430.315118 336.839855 
L 430.635703 335.578997 
L 430.795996 335.525687 
L 430.956288 335.850027 
L 431.276873 337.579584 
L 431.757751 342.567409 
L 432.398922 352.504353 
L 434.803311 393.786576 
L 435.765067 405.055912 
L 436.726823 413.878194 
L 437.528286 419.740027 
L 438.169456 423.04245 
L 438.490042 424.01917 
L 438.810627 424.424673 
L 438.970919 424.385364 
L 439.291505 423.772518 
L 439.61209 422.392654 
L 440.092968 418.790255 
L 440.573846 413.321264 
L 441.215016 403.337227 
L 442.176772 384.12854 
L 443.939991 348.064335 
L 444.581161 338.892795 
L 445.062039 334.363574 
L 445.382624 332.58464 
L 445.70321 331.829379 
L 445.863502 331.835271 
L 446.023795 332.093266 
L 446.34438 333.345174 
L 446.825258 336.947492 
L 447.466429 344.512454 
L 448.267892 357.127126 
L 450.511988 394.529301 
L 451.153159 401.823471 
L 451.634037 405.591196 
L 452.114915 407.772527 
L 452.4355 408.326158 
L 452.595793 408.334356 
L 452.756085 408.166067 
L 453.07667 407.312288 
L 453.557548 404.802354 
L 453.878134 284.514032 
L 454.038426 276.442041 
L 454.359011 286.43925 
L 454.519304 290.774115 
L 454.679597 291.820094 
L 454.839889 290.024959 
L 455.320767 280.3736 
L 455.48106 279.497756 
L 455.641352 280.827666 
L 455.961938 290.31806 
L 456.442816 317.988903 
L 457.885449 415.09721 
L 458.206034 422.930519 
L 458.366327 422.590465 
L 458.52662 342.587507 
L 458.686912 330.546808 
L 459.488375 410.980281 
L 459.808961 417.520266 
L 460.770716 424.799246 
L 460.931009 425.276381 
L 461.091302 425.258224 
L 461.251594 424.776155 
L 461.732472 421.639568 
L 462.21335 418.549866 
L 462.533935 417.434264 
L 462.854521 417.006223 
L 463.495691 416.724049 
L 463.816276 416.23379 
L 464.297154 414.769921 
L 464.938325 411.857811 
L 465.739788 407.255933 
L 466.220666 403.481938 
L 466.701544 398.243137 
L 467.342714 388.291512 
L 468.144177 371.595873 
L 469.426518 344.402723 
L 469.907396 337.700222 
L 470.227981 334.993059 
L 470.548567 333.830073 
L 470.708859 333.835063 
L 470.869152 334.223681 
L 471.189737 336.098442 
L 471.670615 341.339077 
L 472.311785 351.654663 
L 474.716175 394.14516 
L 475.677931 405.598906 
L 476.639686 414.423919 
L 477.441149 420.187216 
L 478.08232 423.371379 
L 478.402905 424.281887 
L 478.72349 424.618961 
L 478.883783 424.545106 
L 479.204368 423.863359 
L 479.524954 422.415798 
L 480.005831 418.716065 
L 480.486709 413.156649 
L 481.12788 403.064857 
L 482.089636 383.72395 
L 483.852854 347.5085 
L 484.494025 338.311245 
L 484.974903 333.773308 
L 485.295488 331.993675 
L 485.616073 331.24182 
L 485.776366 331.250949 
L 485.936659 331.513197 
L 486.257244 332.776619 
L 486.738122 336.403506 
L 487.379292 344.013906 
L 488.180755 356.702776 
L 490.424852 394.367085 
L 491.066023 401.736194 
L 491.5469 405.556541 
L 492.027778 407.786289 
L 492.348364 408.369461 
L 492.508656 408.391537 
L 492.668949 408.236505 
L 492.989534 407.407319 
L 493.310119 405.913184 
L 493.630705 403.795407 
L 493.95129 284.629139 
L 494.111582 276.976191 
L 494.432168 287.447464 
L 494.59246 291.845834 
L 494.752753 292.859847 
L 494.913046 290.95833 
L 495.393923 280.759424 
L 495.554216 279.688201 
L 495.714509 280.839934 
L 496.035094 290.056992 
L 496.515972 317.561643 
L 497.958605 415.080885 
L 498.279191 422.97451 
L 498.439483 422.646281 
L 498.599776 342.367045 
L 498.760069 330.122328 
L 499.561532 410.02383 
L 499.882117 416.495695 
L 500.843873 424.121867 
L 501.004165 424.720178 
L 501.164458 424.831817 
L 501.324751 424.48412 
L 501.645336 422.808567 
L 502.286506 418.979501 
L 502.607092 418.025038 
L 502.927677 417.709757 
L 503.568847 417.523552 
L 503.889433 417.030084 
L 504.37031 415.519091 
L 505.011481 412.502525 
L 505.812944 407.766952 
L 506.454115 402.364336 
L 506.934992 396.498915 
L 507.576163 385.685487 
L 508.698211 361.107477 
L 509.499674 344.922683 
L 509.980552 338.224829 
L 510.301138 335.509784 
L 510.621723 334.329542 
L 510.782015 334.322408 
L 510.942308 334.696652 
L 511.262893 336.536329 
L 511.743771 341.710719 
L 512.384942 351.920653 
L 514.789331 394.052062 
L 515.751087 405.445845 
L 516.712843 414.263372 
L 517.514306 420.050601 
L 518.155476 423.266923 
L 518.476061 424.196322 
L 518.796647 424.553518 
L 518.956939 424.490051 
L 519.277525 423.829498 
L 519.59811 422.403403 
L 520.078988 418.735722 
L 520.559866 413.207422 
L 521.201036 403.154434 
L 522.162792 383.863247 
L 523.926011 347.702395 
L 524.567181 338.511284 
L 525.048059 333.973018 
L 525.368644 332.19089 
L 525.68923 331.434805 
L 525.849522 331.441199 
L 526.009815 331.700317 
L 526.3304 332.95636 
L 526.811278 336.569654 
L 527.452448 344.158077 
L 528.253912 356.815319 
L 530.498008 394.389581 
L 531.139179 401.737767 
L 531.620057 405.54477 
L 532.100935 407.763378 
L 532.42152 408.340392 
L 532.581812 408.359772 
L 532.742105 408.202298 
L 533.06269 407.368985 
L 533.383276 405.871709 
L 533.864153 402.473537 
L 534.184739 284.259827 
L 534.345031 276.983253 
L 534.986202 293.394686 
L 535.146494 291.422867 
L 535.627372 280.815657 
L 535.787665 279.599198 
L 535.947958 280.62207 
L 536.268543 289.657324 
L 536.749421 317.105197 
L 538.192054 415.182873 
L 538.51264 423.153879 
L 538.672932 422.845975 
L 538.833225 342.399809 
L 538.993517 330.004909 
L 539.794981 409.317064 
L 540.115566 415.690037 
L 541.237614 424.422114 
L 541.397907 424.674884 
L 541.558199 424.471705 
L 541.878785 423.078815 
L 542.519955 419.707689 
L 542.84054 418.903896 
L 543.161126 418.684393 
L 543.642004 418.655508 
L 543.962589 418.341771 
L 544.283174 417.595324 
L 544.764052 415.718188 
L 545.565515 411.434448 
L 546.206686 407.160237 
L 546.847856 401.069484 
L 547.489027 391.932175 
L 548.29049 376.04589 
L 549.733123 345.374108 
L 550.214001 338.669978 
L 550.534586 335.94152 
L 550.855172 334.74005 
L 551.015464 334.719418 
L 551.175757 335.078325 
L 551.496342 336.882225 
L 551.97722 341.992295 
L 552.618391 352.104009 
L 555.02278 393.9276 
L 555.984536 405.279935 
L 556.946291 414.102882 
L 557.747755 419.920033 
L 558.388925 423.170345 
L 558.70951 424.118666 
L 559.030096 424.495491 
L 559.190388 424.441989 
L 559.510973 423.801463 
L 559.831559 422.395294 
L 560.312437 418.756805 
L 560.793314 413.256302 
L 561.434485 403.237366 
L 562.396241 383.989048 
L 564.15946 347.874714 
L 564.80063 338.688843 
L 565.281508 334.150296 
L 565.602093 332.366024 
L 565.922678 331.606292 
L 566.082971 331.610322 
L 566.243264 331.866731 
L 566.563849 333.116368 
L 567.044727 336.717804 
L 567.685897 344.286923 
L 568.48736 356.91613 
L 570.731457 394.408965 
L 571.372628 401.737812 
L 571.853506 405.532349 
L 572.334383 407.740432 
L 572.654969 408.311556 
L 572.815261 408.328333 
L 572.975554 408.168486 
L 573.296139 407.331106 
L 573.616724 405.830656 
L 574.097602 402.429331 
L 574.257895 401.014096 
L 574.57848 283.721408 
L 574.738773 276.816359 
L 575.379943 293.799306 
L 575.540236 291.778361 
L 576.021114 280.83069 
L 576.181406 279.489379 
L 576.341699 280.401249 
L 576.662284 289.280904 
L 577.143162 316.685439 
L 578.585796 415.250062 
L 578.906381 423.280475 
L 579.066674 422.985319 
L 579.226966 342.396341 
L 579.387259 329.864327 
L 580.188722 408.601648 
L 580.509307 414.885327 
L 581.631356 424.16924 
L 581.791648 424.566325 
L 581.951941 424.509635 
L 582.272526 423.399937 
L 582.913697 420.477689 
L 583.234282 419.817426 
L 583.554867 419.686325 
L 584.035745 419.700082 
L 584.35633 419.367521 
L 584.676916 418.575418 
L 585.157793 416.598614 
L 585.959257 412.12446 
L 586.76072 406.397022 
L 587.40189 399.560922 
L 588.043061 389.538855 
L 588.844524 372.891343 
L 590.126865 345.821618 
L 590.607743 339.106523 
L 590.928328 336.362048 
L 591.248913 335.137284 
L 591.409206 335.102345 
L 591.569498 335.445264 
L 591.890084 337.21256 
L 592.370962 342.258236 
L 593.012132 352.273551 
L 595.416521 393.804629 
L 596.378277 405.120485 
L 597.340033 413.951708 
L 598.141496 419.79952 
L 598.782667 423.083449 
L 599.103252 424.050223 
L 599.423837 424.446043 
L 599.58413 424.40213 
L 599.904715 423.780782 
L 600.2253 422.393572 
L 600.706178 418.782645 
L 601.187056 413.30816 
L 601.828226 403.320801 
L 602.789982 384.111772 
L 604.553201 348.039287 
L 605.194372 338.857866 
L 605.675249 334.318788 
L 605.995835 332.532363 
L 606.31642 331.769095 
L 606.476713 331.770858 
L 606.637005 332.02468 
L 606.95759 333.268229 
L 607.438468 336.858442 
L 608.079639 344.409327 
L 608.881102 357.012042 
L 611.125199 394.427452 
L 611.766369 401.737726 
L 612.247247 405.520219 
L 612.728125 407.718068 
L 613.04871 408.283423 
L 613.209003 408.297637 
L 613.529588 283.494122 
L 613.689881 273.193794 
L 613.850173 275.046562 
L 614.170759 283.479712 
L 614.331051 284.257527 
L 614.491344 282.676587 
L 614.972222 275.603732 
L 615.132514 275.892859 
L 615.292807 278.391901 
L 615.613392 289.985241 
L 616.09427 319.72655 
L 617.376611 409.525384 
L 617.697196 421.531525 
L 617.857489 423.987268 
L 618.017782 423.48239 
L 618.178074 344.423895 
L 618.338367 333.225756 
L 619.13983 417.316627 
L 619.460415 424.733087 
L 619.941293 428.663536 
L 620.261878 430.539841 
L 620.422171 430.92 
L 620.582464 430.756715 
L 620.903049 428.773246 
L 622.345682 414.949593 
L 622.82656 413.611401 
L 623.467731 412.295517 
L 623.948609 410.781105 
L 624.750072 407.418385 
L 625.391242 404.082331 
L 625.87212 400.594531 
L 626.352998 395.554327 
L 626.994169 385.702632 
L 627.795632 368.907854 
L 629.077973 341.428883 
L 629.558851 334.710353 
L 629.879436 332.044152 
L 630.200021 330.968367 
L 630.360314 331.034733 
L 630.520606 331.496466 
L 630.841192 333.551373 
L 631.322069 339.13838 
L 631.96324 350.021993 
L 634.367629 394.607861 
L 635.169092 404.729854 
L 636.130848 414.062327 
L 636.932311 420.057083 
L 637.573482 423.466926 
L 638.05436 424.872318 
L 638.374945 425.10182 
L 638.535238 424.972421 
L 638.855823 424.177646 
L 639.176408 422.616274 
L 639.657286 418.748267 
L 640.138164 413.027551 
L 640.779334 402.736826 
L 641.74109 383.140103 
L 643.504309 346.605772 
L 644.145479 337.344566 
L 644.626357 332.778007 
L 644.946943 330.988694 
L 645.267528 330.234725 
L 645.42782 330.245627 
L 645.588113 330.511524 
L 645.908698 331.787795 
L 646.389576 335.447449 
L 647.030747 343.125047 
L 647.83221 355.930433 
L 650.076307 394.02827 
L 650.717477 401.524559 
L 651.198355 405.434905 
L 651.679233 407.747999 
L 651.999818 408.382304 
L 652.160111 408.428482 
L 652.320403 408.296528 
L 652.640989 407.510308 
L 652.961574 406.054735 
L 653.442452 402.708852 
L 653.92333 398.125645 
L 654.243915 282.752805 
L 654.404207 276.638209 
L 655.045378 294.99908 
L 655.205671 292.933759 
L 655.846841 279.808353 
L 656.007134 280.482464 
L 656.167426 283.570425 
L 656.488012 296.424596 
L 656.968889 327.527713 
L 658.090938 407.380143 
L 658.411523 420.118221 
L 658.571816 422.840705 
L 658.732108 422.520714 
L 658.892401 341.600403 
L 659.052694 328.780737 
L 660.014449 410.650338 
L 660.335035 414.118025 
L 660.815912 418.841647 
L 661.29679 423.280338 
L 661.617376 424.194013 
L 661.777668 424.046596 
L 662.098253 423.080361 
L 662.579131 421.580968 
L 662.899717 421.206224 
L 663.220302 421.262228 
L 663.70118 421.399059 
L 664.021765 421.066965 
L 664.34235 420.229402 
L 664.823228 418.130748 
L 665.624691 413.406947 
L 666.426154 407.474556 
L 667.067325 400.54522 
L 667.708495 390.493906 
L 668.509958 373.868702 
L 669.792299 346.828113 
L 670.273177 340.084413 
L 670.593763 337.303693 
L 670.914348 336.028592 
L 671.07464 335.963373 
L 671.234933 336.272792 
L 671.555518 337.964258 
L 672.036396 342.878099 
L 672.677567 352.6975 
L 675.081956 393.625282 
L 676.043712 404.856536 
L 677.005468 413.692721 
L 677.967223 420.570055 
L 678.608394 423.5042 
L 678.928979 424.231613 
L 679.089272 424.370213 
L 679.249564 424.344124 
L 679.409857 424.143247 
L 679.730442 423.181722 
L 680.051027 421.427542 
L 680.531905 417.243049 
L 681.173076 408.812378 
L 681.974539 394.392043 
L 684.539221 343.358625 
L 685.180391 335.912498 
L 685.661269 332.850872 
L 685.981855 332.081511 
L 686.142147 332.079343 
L 686.30244 332.328663 
L 686.623025 333.561564 
L 687.103903 337.132002 
L 687.745073 344.650424 
L 688.546537 357.205305 
L 690.790633 394.475788 
L 691.431804 401.749673 
L 691.912682 405.50798 
L 692.39356 407.684718 
L 692.714145 408.237827 
L 692.874437 408.246484 
L 693.03473 408.079112 
L 693.355315 407.22847 
L 693.836193 404.7262 
L 694.156778 402.303749 
L 694.477364 284.109952 
L 694.637656 276.81671 
L 695.278827 293.097471 
L 695.439119 291.099326 
L 695.919997 280.470233 
L 696.08029 279.267786 
L 696.240583 280.314771 
L 696.561168 289.423986 
L 697.042046 317.024375 
L 698.484679 415.512457 
L 698.805265 423.526634 
L 698.965557 423.232998 
L 699.12585 342.79176 
L 699.286142 330.394436 
L 700.087606 409.648282 
L 700.408191 415.998014 
L 701.530239 424.710147 
L 701.690532 424.965063 
L 701.850824 424.764002 
L 702.17141 423.373653 
L 702.81258 419.993109 
L 703.133165 419.17535 
L 703.453751 418.935889 
L 703.934629 418.867962 
L 704.255214 418.52404 
L 704.575799 417.745746 
L 705.056677 415.820704 
L 705.85814 411.465994 
L 706.499311 407.149364 
L 707.140481 401.030916 
L 707.781652 391.879071 
L 708.583115 375.9878 
L 710.025748 345.321896 
L 710.506626 338.619792 
L 710.827211 335.892284 
L 711.147797 334.691442 
L 711.308089 334.671022 
L 711.468382 335.030086 
L 711.788967 336.834196 
L 712.269845 341.944547 
L 712.911016 352.057221 
L 715.315405 393.897379 
L 716.277161 405.259452 
L 717.238916 414.090736 
L 718.04038 419.913082 
L 718.68155 423.166528 
L 719.002135 424.116174 
L 719.322721 424.494218 
L 719.483013 424.441298 
L 719.803598 423.801907 
L 720.124184 422.396854 
L 720.605062 418.760049 
L 721.085939 413.261262 
L 721.72711 403.244618 
L 722.688866 383.999359 
L 724.452085 347.886871 
L 725.093255 338.699873 
L 725.574133 334.15983 
L 725.894718 332.374282 
L 726.215303 331.613085 
L 726.375596 331.61632 
L 726.535889 331.871899 
L 726.856474 333.119789 
L 727.337352 336.718465 
L 727.978522 344.283861 
L 728.779985 356.908793 
L 731.024082 394.395527 
L 731.665253 401.724644 
L 732.146131 405.519941 
L 732.627008 407.729212 
L 732.947594 408.301335 
L 733.107886 408.318667 
L 733.268179 408.159406 
L 733.588764 407.323291 
L 733.909349 405.824207 
L 734.069642 404.838581 
L 734.390227 284.94794 
L 734.55052 276.921883 
L 734.871105 286.812832 
L 735.031398 291.038355 
L 735.19169 291.961289 
L 735.351983 290.042876 
L 735.832861 280.10673 
L 735.993154 279.179781 
L 736.153446 280.482989 
L 736.474031 289.98866 
L 736.954909 317.814466 
L 738.397543 415.520173 
L 738.718128 423.400811 
L 738.878421 423.068775 
L 739.038713 342.884817 
L 739.199006 330.746294 
L 740.000469 411.198315 
L 740.321054 417.772465 
L 741.28281 425.044477 
L 741.443103 425.51458 
L 741.603395 425.489446 
L 741.763688 425.000595 
L 742.244566 421.844284 
L 742.725444 418.732565 
L 743.046029 417.599096 
L 743.366614 417.14999 
L 744.007785 416.816623 
L 744.32837 416.297439 
L 744.809248 414.7887 
L 745.450418 411.820204 
L 746.251882 407.166612 
L 746.893052 401.818705 
L 747.37393 395.980212 
L 748.0151 385.18281 
L 749.137149 360.599872 
L 749.938612 344.416559 
L 750.41949 337.732417 
L 750.740075 335.033752 
L 751.06066 333.87612 
L 751.220953 333.882628 
L 751.381246 334.272028 
L 751.701831 336.146301 
L 752.182709 341.381864 
L 752.823879 351.68522 
L 755.228269 394.130163 
L 756.190024 405.577516 
L 757.15178 414.401715 
L 757.953243 420.167615 
L 758.594414 423.356021 
L 758.914999 424.269438 
L 759.235584 424.609975 
L 759.395877 424.53806 
L 759.716462 423.860604 
L 760.037047 422.417855 
L 760.517925 418.726188 
L 760.998803 413.175588 
L 761.639974 403.095999 
L 762.601729 383.771924 
L 764.364948 347.571184 
L 765.006119 338.371864 
L 765.486997 333.829747 
L 765.807582 332.046197 
L 766.128167 331.289635 
L 766.28846 331.29615 
L 766.448752 331.555633 
L 766.769338 332.813136 
L 767.250215 336.430444 
L 767.891386 344.027531 
L 768.692849 356.700459 
L 770.936946 394.337206 
L 771.578116 401.704739 
L 772.058994 405.52573 
L 772.539872 407.75755 
L 772.860457 408.342814 
L 773.02075 408.366128 
L 773.181043 408.212452 
L 773.501628 407.386303 
L 773.822213 405.895583 
L 774.142798 285.155849 
L 774.303091 276.762433 
L 774.463384 280.168609 
L 774.783969 290.301433 
L 774.944261 291.2118 
L 775.104554 289.351472 
L 775.585432 279.83205 
L 775.745725 279.067874 
L 775.906017 280.523257 
L 776.226602 290.26907 
L 776.70748 318.247352 
L 778.150114 415.529441 
L 778.470699 423.322496 
L 778.630992 422.961026 
L 778.791284 342.920725 
L 778.951577 330.919438 
L 779.75304 411.990525 
L 780.073625 418.693702 
L 780.875089 424.865737 
L 781.195674 426.013338 
L 781.355966 425.852172 
L 781.676552 424.220406 
L 782.638307 417.427669 
L 782.958893 416.528414 
L 783.279478 416.195973 
L 783.760356 415.886834 
L 784.080941 415.375191 
L 784.561819 413.923968 
L 785.202989 411.078296 
L 786.004453 406.585267 
L 786.48533 402.871745 
L 786.966208 397.682885 
L 787.607379 387.778659 
L 788.408842 371.116605 
L 789.691183 343.960724 
L 790.172061 337.280745 
L 790.492646 334.593595 
L 790.813231 333.45507 
L 790.973524 333.473984 
L 791.133817 333.877633 
L 791.454402 335.78561 
L 791.93528 341.08291 
L 792.57645 351.482642 
L 794.98084 394.246751 
L 795.942595 405.743342 
L 796.904351 414.568214 
L 797.705814 420.307398 
L 798.346985 423.463323 
L 798.66757 424.35832 
L 798.988155 424.679614 
L 799.148448 424.597896 
L 799.469033 423.900695 
L 799.789618 422.438267 
L 800.270496 418.717755 
L 800.751374 413.139695 
L 801.392545 403.026453 
L 802.3543 383.659706 
L 804.117519 347.409712 
L 804.75869 338.202822 
L 805.239568 333.658808 
L 805.560153 331.875782 
L 805.880738 331.121141 
L 806.041031 331.129129 
L 806.201323 331.390417 
L 806.521909 332.652491 
L 807.002786 336.278909 
L 807.643957 343.89183 
L 808.44542 356.589115 
L 810.689517 394.303376 
L 811.330687 401.691013 
L 811.811565 405.525518 
L 812.292443 407.769251 
L 812.613028 408.36149 
L 812.773321 408.387989 
L 812.933614 408.237292 
L 813.254199 407.416481 
L 813.414491 406.754191 
L 813.735077 285.165379 
L 813.895369 276.39823 
L 814.055662 279.510417 
L 814.376247 289.34233 
L 814.53654 290.240163 
L 814.696832 288.442301 
L 815.17771 279.37846 
L 815.338003 278.79692 
L 815.498296 280.426521 
L 815.818881 290.459696 
L 816.299759 318.658031 
L 817.742392 415.61294 
L 818.062978 423.319406 
L 818.22327 422.927319 
L 818.383563 343.050366 
L 818.543855 331.195198 
L 819.345319 412.880084 
L 819.665904 419.716019 
L 820.467367 425.735772 
L 820.787952 426.661253 
L 820.948245 426.369877 
L 821.26883 424.461308 
L 822.230586 416.94479 
L 822.551171 415.889352 
L 822.871756 415.44936 
L 823.512927 414.841706 
L 823.833512 414.15169 
L 824.31439 412.507318 
L 825.115853 408.784643 
L 825.757024 404.936881 
L 826.237901 400.858026 
L 826.718779 395.103175 
L 827.35995 384.346631 
L 828.321706 363.356388 
L 829.283461 343.486722 
L 829.764339 336.806999 
L 830.084924 334.129 
L 830.40551 333.007523 
L 830.565802 333.037954 
L 830.726095 333.455073 
L 831.04668 335.395547 
L 831.527558 340.753756 
L 832.168729 351.250684 
L 834.573118 394.351093 
L 835.534874 405.904917 
L 836.496629 414.736452 
L 837.298093 420.451973 
L 837.939263 423.576668 
L 838.259848 424.453536 
L 838.580434 424.755694 
L 838.740726 424.664166 
L 839.061311 423.947101 
L 839.381897 422.464759 
L 839.862775 418.714884 
L 840.343652 413.108712 
L 840.984823 402.960825 
L 841.946579 383.549795 
L 843.709798 347.247432 
L 844.350968 338.03181 
L 844.831846 333.485032 
L 845.152431 331.701961 
L 845.473016 330.948692 
L 845.633309 330.957884 
L 845.793602 331.220715 
L 846.114187 332.486858 
L 846.595065 336.121703 
L 847.236235 343.749705 
L 848.037698 356.470728 
L 850.281795 394.262933 
L 850.922966 401.671332 
L 851.403844 405.519958 
L 851.884721 407.776289 
L 852.205307 408.375988 
L 852.365599 408.405921 
L 852.525892 408.258456 
L 852.846477 407.443495 
L 853.167062 405.962308 
L 853.64794 402.583996 
L 854.289111 396.20099 
L 854.609696 392.343361 
L 854.930281 279.628583 
L 855.090574 274.570349 
L 855.731744 294.720847 
L 855.892037 292.623219 
L 856.533208 278.792856 
L 856.6935 279.320509 
L 856.853793 282.313799 
L 857.174378 295.151731 
L 857.655256 326.597808 
L 858.777304 407.581742 
L 859.09789 420.43912 
L 859.258182 423.17061 
L 859.418475 422.826654 
L 859.578767 341.634051 
L 859.73906 328.488559 
L 860.059645 365.298689 
L 860.380231 397.070804 
L 860.700816 408.673756 
L 861.822864 421.773096 
L 862.143449 424.513221 
L 862.464035 425.484643 
L 862.624327 425.478092 
L 863.42579 424.571169 
L 863.746376 424.687956 
L 864.227254 424.966555 
L 864.387546 424.920514 
L 864.708131 424.442122 
L 865.028717 423.39212 
L 865.509595 420.910339 
L 866.47135 414.376386 
L 867.272813 407.568746 
L 867.913984 399.728385 
L 868.555154 388.772625 
L 869.677203 364.262241 
L 870.478666 348.068462 
L 870.959544 341.254784 
L 871.440422 337.534778 
L 871.600714 337.042722 
L 871.761007 336.927775 
L 871.9213 337.183692 
L 872.241885 338.75827 
L 872.722763 343.478535 
L 873.363933 353.026268 
L 875.928615 395.311972 
L 876.890371 406.031933 
L 878.012419 415.891425 
L 878.813882 421.237545 
L 879.29476 423.359196 
L 879.615346 424.139209 
L 879.775638 424.304032 
L 879.935931 424.303988 
L 880.096223 424.128893 
L 880.416809 423.217851 
L 880.737394 421.512309 
L 881.218272 417.396493 
L 881.859442 409.048047 
L 882.660905 394.71358 
L 885.38588 341.612982 
L 885.866758 336.359382 
L 886.347636 333.284547 
L 886.668221 332.502019 
L 886.828514 332.492028 
L 886.988806 332.732738 
L 887.309392 333.946184 
L 887.790269 337.482398 
L 888.43144 344.947545 
L 889.232903 357.427789 
L 891.477 394.491102 
L 892.11817 401.717615 
L 892.599048 405.445903 
L 893.079926 407.59775 
L 893.400511 408.137198 
L 893.560804 408.139908 
L 893.721097 407.967172 
L 894.041682 407.107536 
L 894.362267 405.589444 
L 894.682852 284.78461 
L 894.843145 276.349349 
L 895.003438 279.711203 
L 895.324023 289.762286 
L 895.484315 290.642186 
L 895.644608 288.762122 
L 896.125486 279.262526 
L 896.285779 278.532071 
L 896.446071 280.033357 
L 896.766656 289.900862 
L 897.247534 318.106404 
L 898.690168 415.978183 
L 899.010753 423.84174 
L 899.171046 423.506683 
L 899.331338 343.529517 
L 899.491631 331.553146 
L 900.293094 412.512071 
L 900.613679 419.163632 
L 901.415143 425.303926 
L 901.735728 426.466159 
L 901.89602 426.314154 
L 902.216606 424.699717 
L 903.178361 417.909193 
L 903.498947 416.988037 
L 903.819532 416.62334 
L 904.30041 416.250928 
L 904.620995 415.690728 
L 905.101873 414.16317 
L 905.903336 410.39022 
L 906.704799 405.499739 
L 907.185677 401.319108 
L 907.666555 395.495576 
L 908.307725 384.695766 
L 909.429774 360.070385 
L 910.231237 343.863261 
L 910.712115 337.180818 
L 911.0327 334.492409 
L 911.353285 333.352959 
L 911.513578 333.371557 
L 911.673871 333.775004 
L 911.994456 335.68297 
L 912.475334 340.981438 
L 913.116504 351.385386 
L 915.520894 394.190369 
L 916.482649 405.706641 
L 917.444405 414.547545 
L 918.245868 420.296176 
L 918.887039 423.45722 
L 919.207624 424.354105 
L 919.528209 424.676927 
L 919.688502 424.595858 
L 920.009087 423.89977 
L 920.329672 422.438255 
L 920.81055 418.718854 
L 921.291428 413.141711 
L 921.932599 403.029514 
L 922.894354 383.663974 
L 924.657573 347.413787 
L 925.298744 338.205627 
L 925.779622 333.660209 
L 926.100207 331.876052 
L 926.420792 331.120149 
L 926.581085 331.127463 
L 926.741377 331.388054 
L 927.061963 332.648678 
L 927.54284 336.272845 
L 928.184011 343.882794 
L 928.985474 356.576787 
L 931.229571 394.287335 
L 931.870741 401.675739 
L 932.351619 405.511317 
L 932.832497 407.7565 
L 933.153082 408.349886 
L 933.313375 408.377005 
L 933.473668 408.226957 
L 933.794253 407.407518 
L 933.954545 321.446014 
L 933.954545 321.446014 
" clip-path="url(#p6223e06b38)" style="fill: none; stroke: #1f77b4; stroke-width: 1.5; stroke-linecap: square"/>
   </g>
   <g id="line2d_14">
    <path d="M 173.045455 314.144279 
L 177.693941 314.144279 
L 177.854233 415.736358 
L 213.278903 415.736358 
L 213.439196 314.144279 
L 218.087682 314.144279 
L 218.247975 415.736358 
L 253.99323 415.736358 
L 254.153523 314.144279 
L 258.802009 314.144279 
L 258.962302 415.736358 
L 293.585509 415.736358 
L 293.745801 314.144279 
L 298.394287 314.144279 
L 298.55458 415.736358 
L 333.818957 415.736358 
L 333.97925 314.144279 
L 338.627736 314.144279 
L 338.788029 415.736358 
L 373.090651 415.736358 
L 373.250943 314.144279 
L 377.899429 314.144279 
L 378.059722 415.736358 
L 413.644685 415.736358 
L 413.804977 314.144279 
L 418.453463 314.144279 
L 418.613756 415.736358 
L 453.557548 415.736358 
L 453.717841 314.144279 
L 458.366327 314.144279 
L 458.52662 415.736358 
L 493.630705 415.736358 
L 493.790997 314.144279 
L 498.439483 314.144279 
L 498.599776 415.736358 
L 533.864153 415.736358 
L 534.024446 314.144279 
L 538.672932 314.144279 
L 538.833225 415.736358 
L 574.257895 415.736358 
L 574.418188 314.144279 
L 579.066674 314.144279 
L 579.226966 415.736358 
L 613.209003 415.736358 
L 613.369295 314.144279 
L 618.017782 314.144279 
L 618.178074 415.736358 
L 653.92333 415.736358 
L 654.083622 314.144279 
L 658.732108 314.144279 
L 658.892401 415.736358 
L 694.156778 415.736358 
L 694.317071 314.144279 
L 698.965557 314.144279 
L 699.12585 415.736358 
L 734.069642 415.736358 
L 734.229935 314.144279 
L 738.878421 314.144279 
L 739.038713 415.736358 
L 773.822213 415.736358 
L 773.982506 314.144279 
L 778.630992 314.144279 
L 778.791284 415.736358 
L 813.414491 415.736358 
L 813.574784 314.144279 
L 818.22327 314.144279 
L 818.383563 415.736358 
L 854.609696 415.736358 
L 854.769989 314.144279 
L 859.418475 314.144279 
L 859.578767 415.736358 
L 894.362267 415.736358 
L 894.52256 314.144279 
L 899.171046 314.144279 
L 899.331338 415.736358 
L 933.794253 415.736358 
L 933.954545 314.144279 
L 933.954545 314.144279 
" clip-path="url(#p6223e06b38)" style="fill: none; stroke: #ff7f0e; stroke-width: 1.5; stroke-linecap: square"/>
   </g>
   <g id="line2d_15">
    <path d="M 929.466352 415.736358 
" clip-path="url(#p6223e06b38)" style="fill: none; stroke: #000000; stroke-width: 1.5; stroke-linecap: square"/>
    <defs>
     <path id="me5a71131e4" d="M 0 1 
C 0.265203 1 0.51958 0.894634 0.707107 0.707107 
C 0.894634 0.51958 1 0.265203 1 0 
C 1 -0.265203 0.894634 -0.51958 0.707107 -0.707107 
C 0.51958 -0.894634 0.265203 -1 0 -1 
C -0.265203 -1 -0.51958 -0.894634 -0.707107 -0.707107 
C -0.894634 -0.51958 -1 -0.265203 -1 0 
C -1 0.265203 -0.894634 0.51958 -0.707107 0.707107 
C -0.51958 0.894634 -0.265203 1 0 1 
z
" style="stroke: #000000"/>
    </defs>
    <g clip-path="url(#p6223e06b38)">
     <use xlink:href="#me5a71131e4" x="173.045455" y="314.144279" style="stroke: #000000"/>
     <use xlink:href="#me5a71131e4" x="178.174819" y="415.736358" style="stroke: #000000"/>
     <use xlink:href="#me5a71131e4" x="183.14389" y="415.736358" style="stroke: #000000"/>
     <use xlink:href="#me5a71131e4" x="188.112961" y="314.144279" style="stroke: #000000"/>
     <use xlink:href="#me5a71131e4" x="193.082033" y="415.736358" style="stroke: #000000"/>
     <use xlink:href="#me5a71131e4" x="198.211397" y="415.736358" style="stroke: #000000"/>
     <use xlink:href="#me5a71131e4" x="203.180468" y="314.144279" style="stroke: #000000"/>
     <use xlink:href="#me5a71131e4" x="208.149539" y="415.736358" style="stroke: #000000"/>
     <use xlink:href="#me5a71131e4" x="213.118611" y="314.144279" style="stroke: #000000"/>
     <use xlink:href="#me5a71131e4" x="218.247975" y="415.736358" style="stroke: #000000"/>
     <use xlink:href="#me5a71131e4" x="223.217046" y="415.736358" style="stroke: #000000"/>
     <use xlink:href="#me5a71131e4" x="228.186118" y="314.144279" style="stroke: #000000"/>
     <use xlink:href="#me5a71131e4" x="233.155189" y="415.736358" style="stroke: #000000"/>
     <use xlink:href="#me5a71131e4" x="238.284553" y="415.736358" style="stroke: #000000"/>
     <use xlink:href="#me5a71131e4" x="243.253624" y="314.144279" style="stroke: #000000"/>
     <use xlink:href="#me5a71131e4" x="248.222696" y="415.736358" style="stroke: #000000"/>
     <use xlink:href="#me5a71131e4" x="253.191767" y="314.144279" style="stroke: #000000"/>
     <use xlink:href="#me5a71131e4" x="258.321131" y="415.736358" style="stroke: #000000"/>
     <use xlink:href="#me5a71131e4" x="263.290202" y="415.736358" style="stroke: #000000"/>
     <use xlink:href="#me5a71131e4" x="268.259274" y="314.144279" style="stroke: #000000"/>
     <use xlink:href="#me5a71131e4" x="273.228345" y="415.736358" style="stroke: #000000"/>
     <use xlink:href="#me5a71131e4" x="278.357709" y="415.736358" style="stroke: #000000"/>
     <use xlink:href="#me5a71131e4" x="283.326781" y="314.144279" style="stroke: #000000"/>
     <use xlink:href="#me5a71131e4" x="288.295852" y="415.736358" style="stroke: #000000"/>
     <use xlink:href="#me5a71131e4" x="293.264923" y="314.144279" style="stroke: #000000"/>
     <use xlink:href="#me5a71131e4" x="298.394287" y="415.736358" style="stroke: #000000"/>
     <use xlink:href="#me5a71131e4" x="303.363359" y="415.736358" style="stroke: #000000"/>
     <use xlink:href="#me5a71131e4" x="308.33243" y="314.144279" style="stroke: #000000"/>
     <use xlink:href="#me5a71131e4" x="313.301501" y="415.736358" style="stroke: #000000"/>
     <use xlink:href="#me5a71131e4" x="318.430865" y="415.736358" style="stroke: #000000"/>
     <use xlink:href="#me5a71131e4" x="323.399937" y="314.144279" style="stroke: #000000"/>
     <use xlink:href="#me5a71131e4" x="328.369008" y="415.736358" style="stroke: #000000"/>
     <use xlink:href="#me5a71131e4" x="333.33808" y="314.144279" style="stroke: #000000"/>
     <use xlink:href="#me5a71131e4" x="338.467444" y="415.736358" style="stroke: #000000"/>
     <use xlink:href="#me5a71131e4" x="343.436515" y="415.736358" style="stroke: #000000"/>
     <use xlink:href="#me5a71131e4" x="348.405586" y="314.144279" style="stroke: #000000"/>
     <use xlink:href="#me5a71131e4" x="353.374658" y="415.736358" style="stroke: #000000"/>
     <use xlink:href="#me5a71131e4" x="358.504022" y="415.736358" style="stroke: #000000"/>
     <use xlink:href="#me5a71131e4" x="363.473093" y="314.144279" style="stroke: #000000"/>
     <use xlink:href="#me5a71131e4" x="368.442164" y="415.736358" style="stroke: #000000"/>
     <use xlink:href="#me5a71131e4" x="373.411236" y="314.144279" style="stroke: #000000"/>
     <use xlink:href="#me5a71131e4" x="378.5406" y="415.736358" style="stroke: #000000"/>
     <use xlink:href="#me5a71131e4" x="383.509671" y="415.736358" style="stroke: #000000"/>
     <use xlink:href="#me5a71131e4" x="388.478743" y="314.144279" style="stroke: #000000"/>
     <use xlink:href="#me5a71131e4" x="393.447814" y="415.736358" style="stroke: #000000"/>
     <use xlink:href="#me5a71131e4" x="398.577178" y="415.736358" style="stroke: #000000"/>
     <use xlink:href="#me5a71131e4" x="403.546249" y="314.144279" style="stroke: #000000"/>
     <use xlink:href="#me5a71131e4" x="408.515321" y="415.736358" style="stroke: #000000"/>
     <use xlink:href="#me5a71131e4" x="413.484392" y="314.144279" style="stroke: #000000"/>
     <use xlink:href="#me5a71131e4" x="418.613756" y="415.736358" style="stroke: #000000"/>
     <use xlink:href="#me5a71131e4" x="423.582827" y="415.736358" style="stroke: #000000"/>
     <use xlink:href="#me5a71131e4" x="428.551899" y="314.144279" style="stroke: #000000"/>
     <use xlink:href="#me5a71131e4" x="433.52097" y="415.736358" style="stroke: #000000"/>
     <use xlink:href="#me5a71131e4" x="438.650334" y="415.736358" style="stroke: #000000"/>
     <use xlink:href="#me5a71131e4" x="443.619406" y="314.144279" style="stroke: #000000"/>
     <use xlink:href="#me5a71131e4" x="448.588477" y="415.736358" style="stroke: #000000"/>
     <use xlink:href="#me5a71131e4" x="453.557548" y="314.144279" style="stroke: #000000"/>
     <use xlink:href="#me5a71131e4" x="458.686912" y="415.736358" style="stroke: #000000"/>
     <use xlink:href="#me5a71131e4" x="463.655984" y="415.736358" style="stroke: #000000"/>
     <use xlink:href="#me5a71131e4" x="468.625055" y="314.144279" style="stroke: #000000"/>
     <use xlink:href="#me5a71131e4" x="473.594126" y="415.736358" style="stroke: #000000"/>
     <use xlink:href="#me5a71131e4" x="478.72349" y="415.736358" style="stroke: #000000"/>
     <use xlink:href="#me5a71131e4" x="483.692562" y="314.144279" style="stroke: #000000"/>
     <use xlink:href="#me5a71131e4" x="488.661633" y="415.736358" style="stroke: #000000"/>
     <use xlink:href="#me5a71131e4" x="493.630705" y="314.144279" style="stroke: #000000"/>
     <use xlink:href="#me5a71131e4" x="498.760069" y="415.736358" style="stroke: #000000"/>
     <use xlink:href="#me5a71131e4" x="503.72914" y="415.736358" style="stroke: #000000"/>
     <use xlink:href="#me5a71131e4" x="508.698211" y="314.144279" style="stroke: #000000"/>
     <use xlink:href="#me5a71131e4" x="513.667283" y="415.736358" style="stroke: #000000"/>
     <use xlink:href="#me5a71131e4" x="518.796647" y="415.736358" style="stroke: #000000"/>
     <use xlink:href="#me5a71131e4" x="523.765718" y="314.144279" style="stroke: #000000"/>
     <use xlink:href="#me5a71131e4" x="528.734789" y="415.736358" style="stroke: #000000"/>
     <use xlink:href="#me5a71131e4" x="533.703861" y="314.144279" style="stroke: #000000"/>
     <use xlink:href="#me5a71131e4" x="538.833225" y="415.736358" style="stroke: #000000"/>
     <use xlink:href="#me5a71131e4" x="543.802296" y="415.736358" style="stroke: #000000"/>
     <use xlink:href="#me5a71131e4" x="548.771368" y="314.144279" style="stroke: #000000"/>
     <use xlink:href="#me5a71131e4" x="553.740439" y="415.736358" style="stroke: #000000"/>
     <use xlink:href="#me5a71131e4" x="558.869803" y="415.736358" style="stroke: #000000"/>
     <use xlink:href="#me5a71131e4" x="563.838874" y="314.144279" style="stroke: #000000"/>
     <use xlink:href="#me5a71131e4" x="568.807946" y="415.736358" style="stroke: #000000"/>
     <use xlink:href="#me5a71131e4" x="573.777017" y="314.144279" style="stroke: #000000"/>
     <use xlink:href="#me5a71131e4" x="578.906381" y="415.736358" style="stroke: #000000"/>
     <use xlink:href="#me5a71131e4" x="583.875452" y="415.736358" style="stroke: #000000"/>
     <use xlink:href="#me5a71131e4" x="588.844524" y="314.144279" style="stroke: #000000"/>
     <use xlink:href="#me5a71131e4" x="593.813595" y="415.736358" style="stroke: #000000"/>
     <use xlink:href="#me5a71131e4" x="598.942959" y="415.736358" style="stroke: #000000"/>
     <use xlink:href="#me5a71131e4" x="603.912031" y="314.144279" style="stroke: #000000"/>
     <use xlink:href="#me5a71131e4" x="608.881102" y="415.736358" style="stroke: #000000"/>
     <use xlink:href="#me5a71131e4" x="613.850173" y="314.144279" style="stroke: #000000"/>
     <use xlink:href="#me5a71131e4" x="618.979537" y="415.736358" style="stroke: #000000"/>
     <use xlink:href="#me5a71131e4" x="623.948609" y="415.736358" style="stroke: #000000"/>
     <use xlink:href="#me5a71131e4" x="628.91768" y="314.144279" style="stroke: #000000"/>
     <use xlink:href="#me5a71131e4" x="633.886751" y="415.736358" style="stroke: #000000"/>
     <use xlink:href="#me5a71131e4" x="639.016115" y="415.736358" style="stroke: #000000"/>
     <use xlink:href="#me5a71131e4" x="643.985187" y="314.144279" style="stroke: #000000"/>
     <use xlink:href="#me5a71131e4" x="648.954258" y="415.736358" style="stroke: #000000"/>
     <use xlink:href="#me5a71131e4" x="653.92333" y="314.144279" style="stroke: #000000"/>
     <use xlink:href="#me5a71131e4" x="659.052694" y="415.736358" style="stroke: #000000"/>
     <use xlink:href="#me5a71131e4" x="664.021765" y="415.736358" style="stroke: #000000"/>
     <use xlink:href="#me5a71131e4" x="668.990836" y="314.144279" style="stroke: #000000"/>
     <use xlink:href="#me5a71131e4" x="673.959908" y="415.736358" style="stroke: #000000"/>
     <use xlink:href="#me5a71131e4" x="679.089272" y="415.736358" style="stroke: #000000"/>
     <use xlink:href="#me5a71131e4" x="684.058343" y="314.144279" style="stroke: #000000"/>
     <use xlink:href="#me5a71131e4" x="689.027414" y="415.736358" style="stroke: #000000"/>
     <use xlink:href="#me5a71131e4" x="693.996486" y="314.144279" style="stroke: #000000"/>
     <use xlink:href="#me5a71131e4" x="699.12585" y="415.736358" style="stroke: #000000"/>
     <use xlink:href="#me5a71131e4" x="704.094921" y="415.736358" style="stroke: #000000"/>
     <use xlink:href="#me5a71131e4" x="709.063993" y="314.144279" style="stroke: #000000"/>
     <use xlink:href="#me5a71131e4" x="714.033064" y="415.736358" style="stroke: #000000"/>
     <use xlink:href="#me5a71131e4" x="719.162428" y="415.736358" style="stroke: #000000"/>
     <use xlink:href="#me5a71131e4" x="724.131499" y="314.144279" style="stroke: #000000"/>
     <use xlink:href="#me5a71131e4" x="729.100571" y="415.736358" style="stroke: #000000"/>
     <use xlink:href="#me5a71131e4" x="734.069642" y="314.144279" style="stroke: #000000"/>
     <use xlink:href="#me5a71131e4" x="739.199006" y="415.736358" style="stroke: #000000"/>
     <use xlink:href="#me5a71131e4" x="744.168077" y="415.736358" style="stroke: #000000"/>
     <use xlink:href="#me5a71131e4" x="749.137149" y="314.144279" style="stroke: #000000"/>
     <use xlink:href="#me5a71131e4" x="754.10622" y="415.736358" style="stroke: #000000"/>
     <use xlink:href="#me5a71131e4" x="759.235584" y="415.736358" style="stroke: #000000"/>
     <use xlink:href="#me5a71131e4" x="764.204656" y="314.144279" style="stroke: #000000"/>
     <use xlink:href="#me5a71131e4" x="769.173727" y="415.736358" style="stroke: #000000"/>
     <use xlink:href="#me5a71131e4" x="774.142798" y="314.144279" style="stroke: #000000"/>
     <use xlink:href="#me5a71131e4" x="779.272162" y="415.736358" style="stroke: #000000"/>
     <use xlink:href="#me5a71131e4" x="784.241234" y="415.736358" style="stroke: #000000"/>
     <use xlink:href="#me5a71131e4" x="789.210305" y="314.144279" style="stroke: #000000"/>
     <use xlink:href="#me5a71131e4" x="794.179376" y="415.736358" style="stroke: #000000"/>
     <use xlink:href="#me5a71131e4" x="799.30874" y="415.736358" style="stroke: #000000"/>
     <use xlink:href="#me5a71131e4" x="804.277812" y="314.144279" style="stroke: #000000"/>
     <use xlink:href="#me5a71131e4" x="809.246883" y="415.736358" style="stroke: #000000"/>
     <use xlink:href="#me5a71131e4" x="814.215955" y="314.144279" style="stroke: #000000"/>
     <use xlink:href="#me5a71131e4" x="819.345319" y="415.736358" style="stroke: #000000"/>
     <use xlink:href="#me5a71131e4" x="824.31439" y="415.736358" style="stroke: #000000"/>
     <use xlink:href="#me5a71131e4" x="829.283461" y="314.144279" style="stroke: #000000"/>
     <use xlink:href="#me5a71131e4" x="834.252533" y="415.736358" style="stroke: #000000"/>
     <use xlink:href="#me5a71131e4" x="839.381897" y="415.736358" style="stroke: #000000"/>
     <use xlink:href="#me5a71131e4" x="844.350968" y="314.144279" style="stroke: #000000"/>
     <use xlink:href="#me5a71131e4" x="849.320039" y="415.736358" style="stroke: #000000"/>
     <use xlink:href="#me5a71131e4" x="854.289111" y="314.144279" style="stroke: #000000"/>
     <use xlink:href="#me5a71131e4" x="859.418475" y="415.736358" style="stroke: #000000"/>
     <use xlink:href="#me5a71131e4" x="864.387546" y="415.736358" style="stroke: #000000"/>
     <use xlink:href="#me5a71131e4" x="869.356618" y="314.144279" style="stroke: #000000"/>
     <use xlink:href="#me5a71131e4" x="874.325689" y="415.736358" style="stroke: #000000"/>
     <use xlink:href="#me5a71131e4" x="879.455053" y="415.736358" style="stroke: #000000"/>
     <use xlink:href="#me5a71131e4" x="884.424124" y="314.144279" style="stroke: #000000"/>
     <use xlink:href="#me5a71131e4" x="889.393196" y="415.736358" style="stroke: #000000"/>
     <use xlink:href="#me5a71131e4" x="894.362267" y="314.144279" style="stroke: #000000"/>
     <use xlink:href="#me5a71131e4" x="899.491631" y="415.736358" style="stroke: #000000"/>
     <use xlink:href="#me5a71131e4" x="904.460702" y="415.736358" style="stroke: #000000"/>
     <use xlink:href="#me5a71131e4" x="909.429774" y="314.144279" style="stroke: #000000"/>
     <use xlink:href="#me5a71131e4" x="914.398845" y="415.736358" style="stroke: #000000"/>
     <use xlink:href="#me5a71131e4" x="919.528209" y="415.736358" style="stroke: #000000"/>
     <use xlink:href="#me5a71131e4" x="924.497281" y="314.144279" style="stroke: #000000"/>
     <use xlink:href="#me5a71131e4" x="929.466352" y="415.736358" style="stroke: #000000"/>
    </g>
   </g>
   <g id="patch_3">
    <path d="M 135 448.56 
L 135 60.48 
" style="fill: none; stroke: #000000; stroke-width: 0.8; stroke-linejoin: miter; stroke-linecap: square"/>
   </g>
   <g id="patch_4">
    <path d="M 972 448.56 
L 972 60.48 
" style="fill: none; stroke: #000000; stroke-width: 0.8; stroke-linejoin: miter; stroke-linecap: square"/>
   </g>
   <g id="patch_5">
    <path d="M 135 448.56 
L 972 448.56 
" style="fill: none; stroke: #000000; stroke-width: 0.8; stroke-linejoin: miter; stroke-linecap: square"/>
   </g>
   <g id="patch_6">
    <path d="M 135 60.48 
L 972 60.48 
" style="fill: none; stroke: #000000; stroke-width: 0.8; stroke-linejoin: miter; stroke-linecap: square"/>
   </g>
   <g id="legend_1">
    <g id="patch_7">
     <path d="M 895.915625 113.070625 
L 965 113.070625 
Q 967 113.070625 967 111.070625 
L 967 67.48 
Q 967 65.48 965 65.48 
L 895.915625 65.48 
Q 893.915625 65.48 893.915625 67.48 
L 893.915625 111.070625 
Q 893.915625 113.070625 895.915625 113.070625 
z
" style="fill: #ffffff; opacity: 0.8; stroke: #cccccc; stroke-linejoin: miter"/>
    </g>
    <g id="line2d_16">
     <path d="M 897.915625 73.578438 
L 907.915625 73.578438 
L 917.915625 73.578438 
" style="fill: none; stroke: #1f77b4; stroke-width: 1.5; stroke-linecap: square"/>
    </g>
    <g id="text_14">
     <!-- nw_0 -->
     <g transform="translate(925.915625 77.078438) scale(0.1 -0.1)">
      <defs>
       <path id="DejaVuSans-6e" d="M 3513 2113 
L 3513 0 
L 2938 0 
L 2938 2094 
Q 2938 2591 2744 2837 
Q 2550 3084 2163 3084 
Q 1697 3084 1428 2787 
Q 1159 2491 1159 1978 
L 1159 0 
L 581 0 
L 581 3500 
L 1159 3500 
L 1159 2956 
Q 1366 3272 1645 3428 
Q 1925 3584 2291 3584 
Q 2894 3584 3203 3211 
Q 3513 2838 3513 2113 
z
" transform="scale(0.015625)"/>
       <path id="DejaVuSans-77" d="M 269 3500 
L 844 3500 
L 1563 769 
L 2278 3500 
L 2956 3500 
L 3675 769 
L 4391 3500 
L 4966 3500 
L 4050 0 
L 3372 0 
L 2619 2869 
L 1863 0 
L 1184 0 
L 269 3500 
z
" transform="scale(0.015625)"/>
       <path id="DejaVuSans-5f" d="M 3263 -1063 
L 3263 -1509 
L -63 -1509 
L -63 -1063 
L 3263 -1063 
z
" transform="scale(0.015625)"/>
      </defs>
      <use xlink:href="#DejaVuSans-6e"/>
      <use xlink:href="#DejaVuSans-77" x="63.378906"/>
      <use xlink:href="#DejaVuSans-5f" x="145.166016"/>
      <use xlink:href="#DejaVuSans-30" x="195.166016"/>
     </g>
    </g>
    <g id="line2d_17">
     <path d="M 897.915625 88.534688 
L 907.915625 88.534688 
L 917.915625 88.534688 
" style="fill: none; stroke: #ff7f0e; stroke-width: 1.5; stroke-linecap: square"/>
    </g>
    <g id="text_15">
     <!-- input_0 -->
     <g transform="translate(925.915625 92.034688) scale(0.1 -0.1)">
      <defs>
       <path id="DejaVuSans-69" d="M 603 3500 
L 1178 3500 
L 1178 0 
L 603 0 
L 603 3500 
z
M 603 4863 
L 1178 4863 
L 1178 4134 
L 603 4134 
L 603 4863 
z
" transform="scale(0.015625)"/>
       <path id="DejaVuSans-70" d="M 1159 525 
L 1159 -1331 
L 581 -1331 
L 581 3500 
L 1159 3500 
L 1159 2969 
Q 1341 3281 1617 3432 
Q 1894 3584 2278 3584 
Q 2916 3584 3314 3078 
Q 3713 2572 3713 1747 
Q 3713 922 3314 415 
Q 2916 -91 2278 -91 
Q 1894 -91 1617 61 
Q 1341 213 1159 525 
z
M 3116 1747 
Q 3116 2381 2855 2742 
Q 2594 3103 2138 3103 
Q 1681 3103 1420 2742 
Q 1159 2381 1159 1747 
Q 1159 1113 1420 752 
Q 1681 391 2138 391 
Q 2594 391 2855 752 
Q 3116 1113 3116 1747 
z
" transform="scale(0.015625)"/>
       <path id="DejaVuSans-75" d="M 544 1381 
L 544 3500 
L 1119 3500 
L 1119 1403 
Q 1119 906 1312 657 
Q 1506 409 1894 409 
Q 2359 409 2629 706 
Q 2900 1003 2900 1516 
L 2900 3500 
L 3475 3500 
L 3475 0 
L 2900 0 
L 2900 538 
Q 2691 219 2414 64 
Q 2138 -91 1772 -91 
Q 1169 -91 856 284 
Q 544 659 544 1381 
z
M 1991 3584 
L 1991 3584 
z
" transform="scale(0.015625)"/>
      </defs>
      <use xlink:href="#DejaVuSans-69"/>
      <use xlink:href="#DejaVuSans-6e" x="27.783203"/>
      <use xlink:href="#DejaVuSans-70" x="91.162109"/>
      <use xlink:href="#DejaVuSans-75" x="154.638672"/>
      <use xlink:href="#DejaVuSans-74" x="218.017578"/>
      <use xlink:href="#DejaVuSans-5f" x="257.226562"/>
      <use xlink:href="#DejaVuSans-30" x="307.226562"/>
     </g>
    </g>
    <g id="line2d_18">
     <path d="M 897.915625 103.490938 
L 907.915625 103.490938 
L 917.915625 103.490938 
" style="fill: none; stroke: #000000; stroke-width: 1.5; stroke-linecap: square"/>
     <g>
      <use xlink:href="#me5a71131e4" x="907.915625" y="103.490938" style="stroke: #000000"/>
     </g>
    </g>
    <g id="text_16">
     <!-- target -->
     <g transform="translate(925.915625 106.990938) scale(0.1 -0.1)">
      <defs>
       <path id="DejaVuSans-61" d="M 2194 1759 
Q 1497 1759 1228 1600 
Q 959 1441 959 1056 
Q 959 750 1161 570 
Q 1363 391 1709 391 
Q 2188 391 2477 730 
Q 2766 1069 2766 1631 
L 2766 1759 
L 2194 1759 
z
M 3341 1997 
L 3341 0 
L 2766 0 
L 2766 531 
Q 2569 213 2275 61 
Q 1981 -91 1556 -91 
Q 1019 -91 701 211 
Q 384 513 384 1019 
Q 384 1609 779 1909 
Q 1175 2209 1959 2209 
L 2766 2209 
L 2766 2266 
Q 2766 2663 2505 2880 
Q 2244 3097 1772 3097 
Q 1472 3097 1187 3025 
Q 903 2953 641 2809 
L 641 3341 
Q 956 3463 1253 3523 
Q 1550 3584 1831 3584 
Q 2591 3584 2966 3190 
Q 3341 2797 3341 1997 
z
" transform="scale(0.015625)"/>
       <path id="DejaVuSans-72" d="M 2631 2963 
Q 2534 3019 2420 3045 
Q 2306 3072 2169 3072 
Q 1681 3072 1420 2755 
Q 1159 2438 1159 1844 
L 1159 0 
L 581 0 
L 581 3500 
L 1159 3500 
L 1159 2956 
Q 1341 3275 1631 3429 
Q 1922 3584 2338 3584 
Q 2397 3584 2469 3576 
Q 2541 3569 2628 3553 
L 2631 2963 
z
" transform="scale(0.015625)"/>
       <path id="DejaVuSans-67" d="M 2906 1791 
Q 2906 2416 2648 2759 
Q 2391 3103 1925 3103 
Q 1463 3103 1205 2759 
Q 947 2416 947 1791 
Q 947 1169 1205 825 
Q 1463 481 1925 481 
Q 2391 481 2648 825 
Q 2906 1169 2906 1791 
z
M 3481 434 
Q 3481 -459 3084 -895 
Q 2688 -1331 1869 -1331 
Q 1566 -1331 1297 -1286 
Q 1028 -1241 775 -1147 
L 775 -588 
Q 1028 -725 1275 -790 
Q 1522 -856 1778 -856 
Q 2344 -856 2625 -561 
Q 2906 -266 2906 331 
L 2906 616 
Q 2728 306 2450 153 
Q 2172 0 1784 0 
Q 1141 0 747 490 
Q 353 981 353 1791 
Q 353 2603 747 3093 
Q 1141 3584 1784 3584 
Q 2172 3584 2450 3431 
Q 2728 3278 2906 2969 
L 2906 3500 
L 3481 3500 
L 3481 434 
z
" transform="scale(0.015625)"/>
       <path id="DejaVuSans-65" d="M 3597 1894 
L 3597 1613 
L 953 1613 
Q 991 1019 1311 708 
Q 1631 397 2203 397 
Q 2534 397 2845 478 
Q 3156 559 3463 722 
L 3463 178 
Q 3153 47 2828 -22 
Q 2503 -91 2169 -91 
Q 1331 -91 842 396 
Q 353 884 353 1716 
Q 353 2575 817 3079 
Q 1281 3584 2069 3584 
Q 2775 3584 3186 3129 
Q 3597 2675 3597 1894 
z
M 3022 2063 
Q 3016 2534 2758 2815 
Q 2500 3097 2075 3097 
Q 1594 3097 1305 2825 
Q 1016 2553 972 2059 
L 3022 2063 
z
" transform="scale(0.015625)"/>
      </defs>
      <use xlink:href="#DejaVuSans-74"/>
      <use xlink:href="#DejaVuSans-61" x="39.208984"/>
      <use xlink:href="#DejaVuSans-72" x="100.488281"/>
      <use xlink:href="#DejaVuSans-67" x="139.851562"/>
      <use xlink:href="#DejaVuSans-65" x="203.328125"/>
      <use xlink:href="#DejaVuSans-74" x="264.851562"/>
     </g>
    </g>
   </g>
  </g>
 </g>
 <defs>
  <clipPath id="p6223e06b38">
   <rect x="135" y="60.48" width="837" height="388.08"/>
  </clipPath>
 </defs>
</svg>
