<?xml version="1.0" encoding="utf-8" standalone="no"?>
<!DOCTYPE svg PUBLIC "-//W3C//DTD SVG 1.1//EN"
  "http://www.w3.org/Graphics/SVG/1.1/DTD/svg11.dtd">
<svg xmlns:xlink="http://www.w3.org/1999/xlink" width="1080pt" height="504pt" viewBox="0 0 1080 504" xmlns="http://www.w3.org/2000/svg" version="1.1">
 <metadata>
  <rdf:RDF xmlns:dc="http://purl.org/dc/elements/1.1/" xmlns:cc="http://creativecommons.org/ns#" xmlns:rdf="http://www.w3.org/1999/02/22-rdf-syntax-ns#">
   <cc:Work>
    <dc:type rdf:resource="http://purl.org/dc/dcmitype/StillImage"/>
    <dc:date>2024-05-09T11:00:40.737624</dc:date>
    <dc:format>image/svg+xml</dc:format>
    <dc:creator>
     <cc:Agent>
      <dc:title>Matplotlib v3.7.1, https://matplotlib.org/</dc:title>
     </cc:Agent>
    </dc:creator>
   </cc:Work>
  </rdf:RDF>
 </metadata>
 <defs>
  <style type="text/css">*{stroke-linejoin: round; stroke-linecap: butt}</style>
 </defs>
 <g id="figure_1">
  <g id="patch_1">
   <path d="M 0 504 
L 1080 504 
L 1080 0 
L 0 0 
z
" style="fill: #ffffff"/>
  </g>
  <g id="axes_1">
   <g id="patch_2">
    <path d="M 135 448.56 
L 972 448.56 
L 972 60.48 
L 135 60.48 
z
" style="fill: #ffffff"/>
   </g>
   <g id="matplotlib.axis_1">
    <g id="xtick_1">
     <g id="line2d_1">
      <defs>
       <path id="me08118e7ba" d="M 0 0 
L 0 3.5 
" style="stroke: #000000; stroke-width: 0.8"/>
      </defs>
      <g>
       <use xlink:href="#me08118e7ba" x="173.045455" y="448.56" style="stroke: #000000; stroke-width: 0.8"/>
      </g>
     </g>
     <g id="text_1">
      <!-- 0 -->
      <g transform="translate(169.864205 463.158437) scale(0.1 -0.1)">
       <defs>
        <path id="DejaVuSans-30" d="M 2034 4250 
Q 1547 4250 1301 3770 
Q 1056 3291 1056 2328 
Q 1056 1369 1301 889 
Q 1547 409 2034 409 
Q 2525 409 2770 889 
Q 3016 1369 3016 2328 
Q 3016 3291 2770 3770 
Q 2525 4250 2034 4250 
z
M 2034 4750 
Q 2819 4750 3233 4129 
Q 3647 3509 3647 2328 
Q 3647 1150 3233 529 
Q 2819 -91 2034 -91 
Q 1250 -91 836 529 
Q 422 1150 422 2328 
Q 422 3509 836 4129 
Q 1250 4750 2034 4750 
z
" transform="scale(0.015625)"/>
       </defs>
       <use xlink:href="#DejaVuSans-30"/>
      </g>
     </g>
    </g>
    <g id="xtick_2">
     <g id="line2d_2">
      <g>
       <use xlink:href="#me08118e7ba" x="333.33808" y="448.56" style="stroke: #000000; stroke-width: 0.8"/>
      </g>
     </g>
     <g id="text_2">
      <!-- 1000 -->
      <g transform="translate(320.61308 463.158437) scale(0.1 -0.1)">
       <defs>
        <path id="DejaVuSans-31" d="M 794 531 
L 1825 531 
L 1825 4091 
L 703 3866 
L 703 4441 
L 1819 4666 
L 2450 4666 
L 2450 531 
L 3481 531 
L 3481 0 
L 794 0 
L 794 531 
z
" transform="scale(0.015625)"/>
       </defs>
       <use xlink:href="#DejaVuSans-31"/>
       <use xlink:href="#DejaVuSans-30" x="63.623047"/>
       <use xlink:href="#DejaVuSans-30" x="127.246094"/>
       <use xlink:href="#DejaVuSans-30" x="190.869141"/>
      </g>
     </g>
    </g>
    <g id="xtick_3">
     <g id="line2d_3">
      <g>
       <use xlink:href="#me08118e7ba" x="493.630705" y="448.56" style="stroke: #000000; stroke-width: 0.8"/>
      </g>
     </g>
     <g id="text_3">
      <!-- 2000 -->
      <g transform="translate(480.905705 463.158437) scale(0.1 -0.1)">
       <defs>
        <path id="DejaVuSans-32" d="M 1228 531 
L 3431 531 
L 3431 0 
L 469 0 
L 469 531 
Q 828 903 1448 1529 
Q 2069 2156 2228 2338 
Q 2531 2678 2651 2914 
Q 2772 3150 2772 3378 
Q 2772 3750 2511 3984 
Q 2250 4219 1831 4219 
Q 1534 4219 1204 4116 
Q 875 4013 500 3803 
L 500 4441 
Q 881 4594 1212 4672 
Q 1544 4750 1819 4750 
Q 2544 4750 2975 4387 
Q 3406 4025 3406 3419 
Q 3406 3131 3298 2873 
Q 3191 2616 2906 2266 
Q 2828 2175 2409 1742 
Q 1991 1309 1228 531 
z
" transform="scale(0.015625)"/>
       </defs>
       <use xlink:href="#DejaVuSans-32"/>
       <use xlink:href="#DejaVuSans-30" x="63.623047"/>
       <use xlink:href="#DejaVuSans-30" x="127.246094"/>
       <use xlink:href="#DejaVuSans-30" x="190.869141"/>
      </g>
     </g>
    </g>
    <g id="xtick_4">
     <g id="line2d_4">
      <g>
       <use xlink:href="#me08118e7ba" x="653.92333" y="448.56" style="stroke: #000000; stroke-width: 0.8"/>
      </g>
     </g>
     <g id="text_4">
      <!-- 3000 -->
      <g transform="translate(641.19833 463.158437) scale(0.1 -0.1)">
       <defs>
        <path id="DejaVuSans-33" d="M 2597 2516 
Q 3050 2419 3304 2112 
Q 3559 1806 3559 1356 
Q 3559 666 3084 287 
Q 2609 -91 1734 -91 
Q 1441 -91 1130 -33 
Q 819 25 488 141 
L 488 750 
Q 750 597 1062 519 
Q 1375 441 1716 441 
Q 2309 441 2620 675 
Q 2931 909 2931 1356 
Q 2931 1769 2642 2001 
Q 2353 2234 1838 2234 
L 1294 2234 
L 1294 2753 
L 1863 2753 
Q 2328 2753 2575 2939 
Q 2822 3125 2822 3475 
Q 2822 3834 2567 4026 
Q 2313 4219 1838 4219 
Q 1578 4219 1281 4162 
Q 984 4106 628 3988 
L 628 4550 
Q 988 4650 1302 4700 
Q 1616 4750 1894 4750 
Q 2613 4750 3031 4423 
Q 3450 4097 3450 3541 
Q 3450 3153 3228 2886 
Q 3006 2619 2597 2516 
z
" transform="scale(0.015625)"/>
       </defs>
       <use xlink:href="#DejaVuSans-33"/>
       <use xlink:href="#DejaVuSans-30" x="63.623047"/>
       <use xlink:href="#DejaVuSans-30" x="127.246094"/>
       <use xlink:href="#DejaVuSans-30" x="190.869141"/>
      </g>
     </g>
    </g>
    <g id="xtick_5">
     <g id="line2d_5">
      <g>
       <use xlink:href="#me08118e7ba" x="814.215955" y="448.56" style="stroke: #000000; stroke-width: 0.8"/>
      </g>
     </g>
     <g id="text_5">
      <!-- 4000 -->
      <g transform="translate(801.490955 463.158437) scale(0.1 -0.1)">
       <defs>
        <path id="DejaVuSans-34" d="M 2419 4116 
L 825 1625 
L 2419 1625 
L 2419 4116 
z
M 2253 4666 
L 3047 4666 
L 3047 1625 
L 3713 1625 
L 3713 1100 
L 3047 1100 
L 3047 0 
L 2419 0 
L 2419 1100 
L 313 1100 
L 313 1709 
L 2253 4666 
z
" transform="scale(0.015625)"/>
       </defs>
       <use xlink:href="#DejaVuSans-34"/>
       <use xlink:href="#DejaVuSans-30" x="63.623047"/>
       <use xlink:href="#DejaVuSans-30" x="127.246094"/>
       <use xlink:href="#DejaVuSans-30" x="190.869141"/>
      </g>
     </g>
    </g>
    <g id="text_6">
     <!-- t -->
     <g transform="translate(551.539844 476.836563) scale(0.1 -0.1)">
      <defs>
       <path id="DejaVuSans-74" d="M 1172 4494 
L 1172 3500 
L 2356 3500 
L 2356 3053 
L 1172 3053 
L 1172 1153 
Q 1172 725 1289 603 
Q 1406 481 1766 481 
L 2356 481 
L 2356 0 
L 1766 0 
Q 1100 0 847 248 
Q 594 497 594 1153 
L 594 3053 
L 172 3053 
L 172 3500 
L 594 3500 
L 594 4494 
L 1172 4494 
z
" transform="scale(0.015625)"/>
      </defs>
      <use xlink:href="#DejaVuSans-74"/>
     </g>
    </g>
   </g>
   <g id="matplotlib.axis_2">
    <g id="ytick_1">
     <g id="line2d_6">
      <defs>
       <path id="m50d5f40dae" d="M 0 0 
L -3.5 0 
" style="stroke: #000000; stroke-width: 0.8"/>
      </defs>
      <g>
       <use xlink:href="#m50d5f40dae" x="135" y="448.222072" style="stroke: #000000; stroke-width: 0.8"/>
      </g>
     </g>
     <g id="text_7">
      <!-- −0.5 -->
      <g transform="translate(103.717187 452.02129) scale(0.1 -0.1)">
       <defs>
        <path id="DejaVuSans-2212" d="M 678 2272 
L 4684 2272 
L 4684 1741 
L 678 1741 
L 678 2272 
z
" transform="scale(0.015625)"/>
        <path id="DejaVuSans-2e" d="M 684 794 
L 1344 794 
L 1344 0 
L 684 0 
L 684 794 
z
" transform="scale(0.015625)"/>
        <path id="DejaVuSans-35" d="M 691 4666 
L 3169 4666 
L 3169 4134 
L 1269 4134 
L 1269 2991 
Q 1406 3038 1543 3061 
Q 1681 3084 1819 3084 
Q 2600 3084 3056 2656 
Q 3513 2228 3513 1497 
Q 3513 744 3044 326 
Q 2575 -91 1722 -91 
Q 1428 -91 1123 -41 
Q 819 9 494 109 
L 494 744 
Q 775 591 1075 516 
Q 1375 441 1709 441 
Q 2250 441 2565 725 
Q 2881 1009 2881 1497 
Q 2881 1984 2565 2268 
Q 2250 2553 1709 2553 
Q 1456 2553 1204 2497 
Q 953 2441 691 2322 
L 691 4666 
z
" transform="scale(0.015625)"/>
       </defs>
       <use xlink:href="#DejaVuSans-2212"/>
       <use xlink:href="#DejaVuSans-30" x="83.789062"/>
       <use xlink:href="#DejaVuSans-2e" x="147.412109"/>
       <use xlink:href="#DejaVuSans-35" x="179.199219"/>
      </g>
     </g>
    </g>
    <g id="ytick_2">
     <g id="line2d_7">
      <g>
       <use xlink:href="#m50d5f40dae" x="135" y="396.105853" style="stroke: #000000; stroke-width: 0.8"/>
      </g>
     </g>
     <g id="text_8">
      <!-- 0.0 -->
      <g transform="translate(112.096875 399.905072) scale(0.1 -0.1)">
       <use xlink:href="#DejaVuSans-30"/>
       <use xlink:href="#DejaVuSans-2e" x="63.623047"/>
       <use xlink:href="#DejaVuSans-30" x="95.410156"/>
      </g>
     </g>
    </g>
    <g id="ytick_3">
     <g id="line2d_8">
      <g>
       <use xlink:href="#m50d5f40dae" x="135" y="343.989635" style="stroke: #000000; stroke-width: 0.8"/>
      </g>
     </g>
     <g id="text_9">
      <!-- 0.5 -->
      <g transform="translate(112.096875 347.788853) scale(0.1 -0.1)">
       <use xlink:href="#DejaVuSans-30"/>
       <use xlink:href="#DejaVuSans-2e" x="63.623047"/>
       <use xlink:href="#DejaVuSans-35" x="95.410156"/>
      </g>
     </g>
    </g>
    <g id="ytick_4">
     <g id="line2d_9">
      <g>
       <use xlink:href="#m50d5f40dae" x="135" y="291.873416" style="stroke: #000000; stroke-width: 0.8"/>
      </g>
     </g>
     <g id="text_10">
      <!-- 1.0 -->
      <g transform="translate(112.096875 295.672635) scale(0.1 -0.1)">
       <use xlink:href="#DejaVuSans-31"/>
       <use xlink:href="#DejaVuSans-2e" x="63.623047"/>
       <use xlink:href="#DejaVuSans-30" x="95.410156"/>
      </g>
     </g>
    </g>
    <g id="ytick_5">
     <g id="line2d_10">
      <g>
       <use xlink:href="#m50d5f40dae" x="135" y="239.757198" style="stroke: #000000; stroke-width: 0.8"/>
      </g>
     </g>
     <g id="text_11">
      <!-- 1.5 -->
      <g transform="translate(112.096875 243.556416) scale(0.1 -0.1)">
       <use xlink:href="#DejaVuSans-31"/>
       <use xlink:href="#DejaVuSans-2e" x="63.623047"/>
       <use xlink:href="#DejaVuSans-35" x="95.410156"/>
      </g>
     </g>
    </g>
    <g id="ytick_6">
     <g id="line2d_11">
      <g>
       <use xlink:href="#m50d5f40dae" x="135" y="187.640979" style="stroke: #000000; stroke-width: 0.8"/>
      </g>
     </g>
     <g id="text_12">
      <!-- 2.0 -->
      <g transform="translate(112.096875 191.440198) scale(0.1 -0.1)">
       <use xlink:href="#DejaVuSans-32"/>
       <use xlink:href="#DejaVuSans-2e" x="63.623047"/>
       <use xlink:href="#DejaVuSans-30" x="95.410156"/>
      </g>
     </g>
    </g>
    <g id="ytick_7">
     <g id="line2d_12">
      <g>
       <use xlink:href="#m50d5f40dae" x="135" y="135.524761" style="stroke: #000000; stroke-width: 0.8"/>
      </g>
     </g>
     <g id="text_13">
      <!-- 2.5 -->
      <g transform="translate(112.096875 139.323979) scale(0.1 -0.1)">
       <use xlink:href="#DejaVuSans-32"/>
       <use xlink:href="#DejaVuSans-2e" x="63.623047"/>
       <use xlink:href="#DejaVuSans-35" x="95.410156"/>
      </g>
     </g>
    </g>
    <g id="ytick_8">
     <g id="line2d_13">
      <g>
       <use xlink:href="#m50d5f40dae" x="135" y="83.408542" style="stroke: #000000; stroke-width: 0.8"/>
      </g>
     </g>
     <g id="text_14">
      <!-- 3.0 -->
      <g transform="translate(112.096875 87.207761) scale(0.1 -0.1)">
       <use xlink:href="#DejaVuSans-33"/>
       <use xlink:href="#DejaVuSans-2e" x="63.623047"/>
       <use xlink:href="#DejaVuSans-30" x="95.410156"/>
      </g>
     </g>
    </g>
   </g>
   <g id="line2d_14">
    <path d="M 173.045455 366.831614 
L 173.686625 278.167256 
L 174.327796 224.260295 
L 174.968966 192.185177 
L 175.770429 166.116766 
L 176.571892 139.615083 
L 177.213063 109.321282 
L 177.693941 78.12 
L 178.335111 149.035791 
L 178.976282 197.745069 
L 179.617452 228.817053 
L 180.09833 242.931492 
L 180.579208 250.782316 
L 180.899793 253.166687 
L 181.060086 253.632137 
L 181.220378 253.665553 
L 181.380671 253.303981 
L 181.701256 251.535227 
L 182.182134 246.74649 
L 182.823305 237.549618 
L 184.105646 214.801651 
L 185.548279 190.328131 
L 186.510035 177.718173 
L 187.311498 170.204377 
L 187.952669 166.241676 
L 188.433547 164.437071 
L 188.754132 163.765572 
L 189.074717 163.498623 
L 189.395302 163.615362 
L 189.715888 164.092699 
L 190.196765 165.430024 
L 190.837936 168.232519 
L 191.639399 173.059782 
L 192.761447 181.502753 
L 196.448178 210.745035 
L 197.409934 216.37919 
L 198.211397 220.026166 
L 199.01286 222.659793 
L 199.65403 224.033606 
L 200.134908 224.648022 
L 200.615786 224.921936 
L 201.096664 224.875165 
L 201.577542 224.532006 
L 202.05842 223.920763 
L 202.69959 222.744235 
L 203.661346 220.377965 
L 205.264272 215.621679 
L 206.706906 211.608753 
L 207.508369 209.945056 
L 208.149539 209.077333 
L 208.630417 208.761088 
L 208.951003 208.731657 
L 209.271588 208.860588 
L 209.752466 209.374788 
L 210.233344 210.305283 
L 210.714221 211.685447 
L 211.355392 214.278779 
L 211.996562 217.794418 
L 212.798026 223.576814 
L 213.278903 227.825293 
L 213.759781 189.060046 
L 214.080367 176.582479 
L 214.400952 172.462936 
L 214.561244 172.948099 
L 214.88183 177.897263 
L 215.362708 192.177117 
L 216.645049 236.730749 
L 216.965634 243.016098 
L 217.286219 245.507621 
L 217.446512 245.103485 
L 217.606804 243.492706 
L 217.92739 236.372786 
L 218.087682 230.741165 
L 218.728853 306.630539 
L 219.370023 360.045196 
L 220.011194 395.546191 
L 220.492072 412.798927 
L 220.972949 423.630391 
L 221.453827 429.303373 
L 221.774413 430.770028 
L 221.934705 430.92 
L 222.094998 430.726391 
L 222.415583 429.434358 
L 222.896461 425.664941 
L 223.537631 418.271482 
L 224.980265 397.729244 
L 226.262606 381.000747 
L 227.064069 373.009414 
L 227.70524 368.29885 
L 228.34641 365.131639 
L 228.827288 363.742758 
L 229.147873 363.2634 
L 229.468459 363.12148 
L 229.789044 363.297048 
L 230.109629 363.768055 
L 230.590507 364.976315 
L 231.231677 367.390768 
L 232.033141 371.404093 
L 233.315482 379.163997 
L 235.399286 391.844763 
L 236.361041 396.547629 
L 237.162505 399.568631 
L 237.803675 401.318286 
L 238.444846 402.444838 
L 238.925723 402.877876 
L 239.406601 402.964342 
L 239.887479 402.716872 
L 240.368357 402.153904 
L 241.009528 400.954275 
L 241.810991 398.833176 
L 242.772746 395.595976 
L 246.459477 382.375491 
L 247.100647 381.005067 
L 247.581525 380.346692 
L 248.062403 380.056427 
L 248.382988 380.089529 
L 248.703574 380.318886 
L 249.184451 381.057893 
L 249.665329 382.306303 
L 250.3065 384.828157 
L 250.94767 388.4051 
L 251.749133 394.472434 
L 252.550597 402.429786 
L 253.512352 414.61782 
L 253.99323 421.83231 
L 254.474108 366.05198 
L 254.954986 334.44779 
L 255.275571 323.290133 
L 255.596156 317.788467 
L 255.916742 316.150203 
L 256.077034 316.258759 
L 256.39762 317.368289 
L 256.718205 318.489597 
L 256.878497 318.646704 
L 257.03879 318.335058 
L 257.199083 317.415864 
L 257.519668 313.242846 
L 257.840253 305.18806 
L 258.321131 284.094483 
L 258.802009 250.275986 
L 259.443179 315.082246 
L 260.08435 359.255953 
L 260.72552 387.098293 
L 261.206398 399.505255 
L 261.687276 406.162474 
L 262.007861 407.996798 
L 262.168154 408.252612 
L 262.328447 408.116491 
L 262.649032 406.804872 
L 263.12991 402.707153 
L 263.77108 394.415307 
L 264.893129 376.042513 
L 266.496055 350.108529 
L 267.457811 337.920991 
L 268.259274 330.443183 
L 268.900444 326.285947 
L 269.381322 324.200108 
L 269.8622 322.946561 
L 270.182785 322.54216 
L 270.503371 322.45755 
L 270.823956 322.669044 
L 271.144541 323.151605 
L 271.625419 324.326639 
L 272.266589 326.595148 
L 273.228345 331.067352 
L 276.754783 348.828781 
L 277.556246 351.530936 
L 278.197417 353.089639 
L 278.838587 354.078992 
L 279.319465 354.442881 
L 279.800343 354.488131 
L 280.281221 354.226642 
L 280.762099 353.67626 
L 281.403269 352.534029 
L 282.204732 350.549025 
L 283.326781 347.029762 
L 286.051755 338.092908 
L 286.853218 336.311884 
L 287.494389 335.451293 
L 287.975267 335.210434 
L 288.295852 335.268709 
L 288.616437 335.51789 
L 289.097315 336.278352 
L 289.578193 337.540842 
L 290.219363 340.07531 
L 290.860534 343.664915 
L 291.661997 349.760537 
L 292.46346 357.775453 
L 293.425216 370.095076 
L 293.585509 372.446132 
L 294.066386 325.694129 
L 294.547264 302.074498 
L 294.86785 295.703685 
L 295.028142 294.603423 
L 295.188435 294.58989 
L 295.348727 295.4466 
L 295.669313 298.949712 
L 296.470776 309.520542 
L 296.791361 311.066549 
L 296.951654 310.704791 
L 297.111946 309.425931 
L 297.432532 303.68549 
L 297.753117 293.0637 
L 298.233995 266.577684 
L 298.394287 254.674268 
L 299.035458 317.883024 
L 299.676628 361.238597 
L 300.317799 388.890126 
L 300.798677 401.486493 
L 301.279555 408.564256 
L 301.60014 410.786053 
L 301.760432 411.263351 
L 301.920725 411.365394 
L 302.081018 411.125414 
L 302.401603 409.744145 
L 302.882481 405.845916 
L 303.523651 398.281796 
L 304.966285 377.317298 
L 306.248626 360.125235 
L 307.050089 351.785731 
L 307.851552 345.737536 
L 308.492723 342.587229 
L 308.973601 341.169883 
L 309.294186 340.648017 
L 309.614771 340.442811 
L 309.935356 340.532961 
L 310.255942 340.895334 
L 310.736819 341.895358 
L 311.37799 343.945085 
L 312.179453 347.361219 
L 313.782379 355.520688 
L 315.225013 362.458528 
L 316.186769 366.0501 
L 316.988232 368.143196 
L 317.629402 369.151285 
L 318.11028 369.501054 
L 318.430865 369.53941 
L 318.751451 369.423359 
L 319.232329 368.966194 
L 319.713206 368.182925 
L 320.354377 366.668148 
L 321.15584 364.11243 
L 322.277888 359.593113 
L 325.804326 344.371492 
L 326.605789 342.158939 
L 327.086667 341.289369 
L 327.567545 340.826329 
L 327.88813 340.768231 
L 328.208716 340.927452 
L 328.529301 341.318014 
L 329.010179 342.36729 
L 329.491057 344.011723 
L 330.132227 347.201827 
L 330.773398 351.615556 
L 331.574861 358.979022 
L 332.376324 368.525255 
L 333.33808 383.027019 
L 333.818957 391.571679 
L 334.299835 348.19675 
L 334.780713 326.287914 
L 335.101298 320.232997 
L 335.261591 319.064034 
L 335.421884 318.83928 
L 335.582176 319.348367 
L 335.902762 321.770287 
L 336.543932 327.13984 
L 336.704225 327.634818 
L 336.864517 327.497924 
L 337.02481 326.597876 
L 337.345395 322.025576 
L 337.66598 313.035346 
L 338.146858 289.652394 
L 338.627736 252.636306 
L 339.268907 315.013698 
L 339.910077 357.780352 
L 340.551248 385.04081 
L 341.032126 397.450586 
L 341.513003 404.417561 
L 341.833589 406.601455 
L 341.993881 407.069325 
L 342.154174 407.167769 
L 342.314467 406.929648 
L 342.635052 405.567066 
L 343.11593 401.729403 
L 343.7571 394.294519 
L 345.199734 373.749208 
L 346.482075 356.994688 
L 347.283538 348.930312 
L 348.085001 343.146798 
L 348.726172 340.196604 
L 349.207049 338.921281 
L 349.527635 338.490003 
L 349.84822 338.372033 
L 350.168805 338.546058 
L 350.48939 338.988975 
L 350.970268 340.103737 
L 351.611439 342.295748 
L 352.573195 346.669534 
L 356.099632 364.129933 
L 356.901095 366.717842 
L 357.542266 368.157107 
L 358.023144 368.844564 
L 358.504022 369.189754 
L 358.9849 369.195024 
L 359.465777 368.869684 
L 359.946655 368.229571 
L 360.587826 366.925072 
L 361.389289 364.666647 
L 362.511337 360.635363 
L 365.556897 348.931829 
L 366.35836 346.856702 
L 366.999531 345.832565 
L 367.480409 345.51752 
L 367.800994 345.551778 
L 368.121579 345.798751 
L 368.602457 346.599498 
L 369.083335 347.958245 
L 369.724505 350.715089 
L 370.365676 354.643033 
L 371.167139 361.338171 
L 371.968602 370.164062 
L 372.930358 383.757191 
L 373.090651 386.353906 
L 373.571528 340.707626 
L 374.052406 316.853748 
L 374.372992 309.628608 
L 374.693577 307.133054 
L 374.853869 307.109152 
L 375.174455 308.487209 
L 375.655333 311.323237 
L 375.815625 311.791261 
L 375.975918 311.762473 
L 376.13621 311.095284 
L 376.456796 307.322897 
L 376.777381 299.513817 
L 377.097966 286.84098 
L 377.578844 257.216384 
L 377.899429 229.590704 
L 378.5406 295.947568 
L 379.18177 342.166642 
L 379.822941 372.377525 
L 380.303819 386.688545 
L 380.784697 395.305129 
L 381.105282 398.456242 
L 381.425867 399.889029 
L 381.58616 400.047803 
L 381.746452 399.877792 
L 382.067038 398.670832 
L 382.547915 395.101593 
L 383.189086 388.056839 
L 384.471427 370.56573 
L 385.753768 353.887604 
L 386.715524 344.136236 
L 387.516987 338.350744 
L 388.158157 335.303498 
L 388.639035 333.903509 
L 389.119913 333.210041 
L 389.440498 333.110035 
L 389.761084 333.275712 
L 390.081669 333.684625 
L 390.562547 334.702331 
L 391.203717 336.685415 
L 392.165473 340.600268 
L 395.371325 354.617106 
L 396.172789 356.97762 
L 396.813959 358.302733 
L 397.294837 358.943545 
L 397.775715 359.274702 
L 398.256593 359.297564 
L 398.737471 359.020231 
L 399.218348 358.457128 
L 399.859519 357.297656 
L 400.660982 355.282607 
L 401.78303 351.691503 
L 404.668298 341.970402 
L 405.469761 340.19667 
L 405.950639 339.524163 
L 406.431517 339.207763 
L 406.752102 339.219324 
L 407.072687 339.425769 
L 407.553565 340.131687 
L 408.034443 341.354093 
L 408.515321 343.137289 
L 409.156491 346.459696 
L 409.797662 350.94689 
L 410.599125 358.322579 
L 411.400588 367.797218 
L 412.362344 382.110594 
L 413.324099 399.794071 
L 413.644685 406.459762 
L 414.125563 360.099664 
L 414.60644 335.82591 
L 414.927026 328.3896 
L 415.247611 325.682486 
L 415.407904 325.539932 
L 415.568196 325.923211 
L 416.369659 329.073801 
L 416.529952 328.75075 
L 416.690245 327.753076 
L 417.01083 323.203488 
L 417.331415 314.451973 
L 417.812293 291.652547 
L 418.293171 255.271223 
L 418.453463 239.821981 
L 419.094634 307.314258 
L 419.735804 354.587895 
L 420.376975 385.764908 
L 420.857853 400.740034 
L 421.338731 409.96829 
L 421.819609 414.592467 
L 422.140194 415.615353 
L 422.300486 415.609377 
L 422.460779 415.299391 
L 422.781364 413.881036 
L 423.262242 410.145788 
L 423.903413 403.110002 
L 427.109265 364.119657 
L 427.910728 358.088335 
L 428.551899 354.814519 
L 429.032777 353.241828 
L 429.513655 352.381271 
L 429.83424 352.175753 
L 430.154825 352.242129 
L 430.47541 352.558947 
L 430.956288 353.453591 
L 431.597459 355.30293 
L 432.398922 358.392208 
L 434.001848 365.743601 
L 435.444482 371.906076 
L 436.406237 375.01262 
L 437.047408 376.464463 
L 437.688578 377.35932 
L 438.169456 377.648436 
L 438.650334 377.606639 
L 439.131212 377.23827 
L 439.61209 376.554149 
L 440.25326 375.180788 
L 441.054724 372.803428 
L 442.016479 369.173076 
L 443.619406 362.05278 
L 445.382624 354.458782 
L 446.34438 351.275451 
L 446.985551 349.794317 
L 447.466429 349.104433 
L 447.947306 348.829363 
L 448.267892 348.899704 
L 448.588477 349.188814 
L 449.069355 350.061247 
L 449.550233 351.497829 
L 450.191403 354.360053 
L 450.832574 358.38508 
L 451.634037 365.173079 
L 452.4355 374.040309 
L 453.397256 387.585999 
L 453.557548 390.162294 
L 454.038426 344.791034 
L 454.519304 321.656725 
L 454.839889 315.037037 
L 455.160475 313.178181 
L 455.320767 313.468772 
L 455.641352 315.441714 
L 456.12223 319.020385 
L 456.282523 319.681984 
L 456.442816 319.815119 
L 456.603108 319.275962 
L 456.923693 315.650703 
L 457.244279 307.834516 
L 457.564864 294.993511 
L 458.045742 264.809497 
L 458.366327 236.608253 
L 459.007498 304.394229 
L 459.648668 351.71957 
L 460.289839 382.742087 
L 460.770716 397.486573 
L 461.251594 406.400995 
L 461.57218 409.681889 
L 461.892765 411.194037 
L 462.053057 411.374809 
L 462.21335 411.215659 
L 462.533935 409.998929 
L 463.014813 406.343415 
L 463.655984 399.069267 
L 464.938325 380.830734 
L 466.380958 361.233642 
L 467.342714 351.198336 
L 468.144177 345.230071 
L 468.785348 342.057258 
L 469.266226 340.570514 
L 469.747103 339.794358 
L 470.067689 339.64076 
L 470.388274 339.753699 
L 470.708859 340.110501 
L 471.189737 341.050871 
L 471.830908 342.931934 
L 472.792663 346.695715 
L 475.998516 360.231772 
L 476.799979 362.476274 
L 477.441149 363.70768 
L 477.922027 364.276698 
L 478.402905 364.533889 
L 478.883783 364.479707 
L 479.364661 364.12124 
L 479.845539 363.471804 
L 480.486709 362.187059 
L 481.288172 359.994782 
L 482.410221 356.10561 
L 485.616073 344.261344 
L 486.417536 342.321181 
L 487.058707 341.385825 
L 487.539585 341.120353 
L 487.86017 341.177496 
L 488.180755 341.437951 
L 488.661633 342.238946 
L 489.142511 343.57081 
L 489.783682 346.243635 
L 490.424852 350.025282 
L 491.226315 356.438621 
L 492.027778 364.860196 
L 492.989534 377.789253 
L 493.630705 388.199463 
L 494.111582 343.359175 
L 494.59246 320.573041 
L 494.913046 314.101754 
L 495.233631 312.335589 
L 495.393923 312.654407 
L 495.714509 314.652721 
L 496.195387 318.20594 
L 496.355679 318.845627 
L 496.515972 318.95149 
L 496.676264 318.380459 
L 496.99685 314.680513 
L 497.317435 306.77952 
L 497.63802 293.848521 
L 498.118898 263.52948 
L 498.439483 235.24397 
L 499.080654 303.325754 
L 499.721824 350.846941 
L 500.362995 381.991194 
L 500.843873 396.791346 
L 501.324751 405.739381 
L 501.645336 409.03365 
L 501.965921 410.55391 
L 502.126214 410.737232 
L 502.286506 410.579856 
L 502.607092 409.364972 
L 503.087969 405.710063 
L 503.72914 398.437661 
L 505.011481 380.226755 
L 506.454115 360.72718 
L 507.41587 350.803832 
L 508.217333 344.957793 
L 508.858504 341.900712 
L 509.339382 340.510523 
L 509.82026 339.838671 
L 510.140845 339.758616 
L 510.46143 339.948086 
L 510.782015 340.384215 
L 511.262893 341.448396 
L 511.904064 343.50252 
L 512.86582 347.539925 
L 516.071672 362.055395 
L 516.873135 364.550034 
L 517.514306 365.9809 
L 518.155476 366.868718 
L 518.636354 367.169449 
L 519.117232 367.159433 
L 519.59811 366.84778 
L 520.078988 366.249711 
L 520.720158 365.043595 
L 521.521621 362.971205 
L 522.64367 359.301465 
L 525.528937 349.343177 
L 526.3304 347.474495 
L 526.971571 346.561945 
L 527.452448 346.294123 
L 527.773034 346.34071 
L 528.093619 346.583615 
L 528.574497 347.345582 
L 529.055375 348.62379 
L 529.696545 351.203605 
L 530.337716 354.869457 
L 531.139179 361.109088 
L 531.940642 369.328629 
L 532.902398 381.983826 
L 533.864153 397.850624 
L 534.345031 351.729137 
L 534.825909 327.667375 
L 535.146494 320.369299 
L 535.46708 317.807245 
L 535.627372 317.742451 
L 535.947958 319.006941 
L 536.428835 321.554747 
L 536.589128 321.887353 
L 536.749421 321.701064 
L 536.909713 320.853253 
L 537.230299 316.647347 
L 537.550884 308.305775 
L 538.031762 286.265087 
L 538.51264 250.840807 
L 538.672932 235.759411 
L 539.314103 304.019692 
L 539.955273 351.66129 
L 540.596444 382.886269 
L 541.077322 397.729746 
L 541.558199 406.711822 
L 541.878785 410.025602 
L 542.19937 411.563972 
L 542.359663 411.756086 
L 542.519955 411.607449 
L 542.84054 410.410209 
L 543.321418 406.783216 
L 543.962589 399.552978 
L 545.24493 381.451022 
L 546.687563 362.118459 
L 547.649319 352.330203 
L 548.450782 346.608111 
L 549.091953 343.655697 
L 549.572831 342.346271 
L 549.893416 341.876864 
L 550.214001 341.70886 
L 550.534586 341.821512 
L 550.855172 342.192446 
L 551.33605 343.181263 
L 551.97722 345.17716 
L 552.778683 348.478313 
L 554.381609 356.33506 
L 555.824243 363.041789 
L 556.785999 366.562354 
L 557.587462 368.671361 
L 558.228632 369.750519 
L 558.70951 370.190886 
L 559.190388 370.314649 
L 559.671266 370.12879 
L 560.152144 369.646564 
L 560.793314 368.576339 
L 561.594778 366.638748 
L 562.556533 363.634574 
L 566.243264 351.243691 
L 566.884434 350.012317 
L 567.365312 349.463304 
L 567.685897 349.302851 
L 568.006483 349.323397 
L 568.327068 349.538809 
L 568.807946 350.256834 
L 569.288824 351.487873 
L 569.769701 353.274071 
L 570.410872 356.587897 
L 571.052042 361.047258 
L 571.853506 368.35296 
L 572.654969 377.708905 
L 573.616724 391.801527 
L 574.257895 403.005364 
L 574.738773 356.364974 
L 575.219651 331.748489 
L 575.540236 324.083906 
L 575.860821 321.171958 
L 576.021114 320.941731 
L 576.181406 321.25022 
L 576.98287 324.295218 
L 577.143162 324.018801 
L 577.303455 323.094713 
L 577.62404 318.780009 
L 577.944625 310.391026 
L 578.425503 288.400303 
L 578.906381 253.176327 
L 579.066674 238.195582 
L 579.707844 306.416907 
L 580.349015 353.999409 
L 580.990185 385.157208 
L 581.471063 399.950513 
L 581.951941 408.885837 
L 582.272526 412.171439 
L 582.593111 413.684613 
L 582.753404 413.865372 
L 582.913697 413.70626 
L 583.234282 412.490848 
L 583.71516 408.843886 
L 584.35633 401.601155 
L 585.638671 383.522077 
L 587.081305 364.282299 
L 588.043061 354.585857 
L 588.844524 348.952568 
L 589.485694 346.076178 
L 589.966572 344.825264 
L 590.287157 344.395091 
L 590.607743 344.266205 
L 590.928328 344.417618 
L 591.248913 344.826719 
L 591.729791 345.871181 
L 592.370962 347.937152 
L 593.332717 352.068094 
L 596.859155 368.507724 
L 597.660618 370.91853 
L 598.301789 372.245469 
L 598.782667 372.867491 
L 599.263544 373.164019 
L 599.744422 373.137559 
L 600.2253 372.797193 
L 600.706178 372.15816 
L 601.347349 370.878453 
L 602.148812 368.68389 
L 603.27086 364.787832 
L 606.476713 353.015328 
L 607.278176 351.130389 
L 607.759054 350.411559 
L 608.239931 350.061909 
L 608.560517 350.057535 
L 608.881102 350.252249 
L 609.201687 350.659479 
L 609.682565 351.697241 
L 610.163443 353.284789 
L 610.804613 356.325738 
L 611.445784 360.503507 
L 612.247247 367.445691 
L 613.04871 376.426183 
L 613.209003 378.477409 
L 613.689881 332.776173 
L 614.170759 309.299079 
L 614.491344 302.519669 
L 614.811929 300.601707 
L 614.972222 300.911155 
L 615.292807 303.037464 
L 615.933977 308.135546 
L 616.09427 308.613424 
L 616.254563 308.475483 
L 616.414855 307.588761 
L 616.735441 303.080621 
L 617.056026 294.197166 
L 617.536904 271.04073 
L 618.017782 234.320331 
L 618.658952 304.162683 
L 619.300123 353.026491 
L 619.941293 385.163863 
L 620.422171 400.515282 
L 620.903049 409.873019 
L 621.223634 413.37138 
L 621.544219 415.046567 
L 621.704512 415.290413 
L 621.864805 415.183015 
L 622.18539 414.038561 
L 622.666268 410.42282 
L 623.307438 403.096972 
L 624.429487 386.918142 
L 626.032413 364.285241 
L 626.994169 353.78099 
L 627.795632 347.414689 
L 628.436802 343.926909 
L 628.91768 342.208612 
L 629.398558 341.206259 
L 629.719143 340.905283 
L 630.039728 340.873817 
L 630.360314 341.089339 
L 630.841192 341.823896 
L 631.482362 343.442321 
L 632.283825 346.214098 
L 634.047044 353.522217 
L 635.329385 358.357805 
L 636.130848 360.676773 
L 636.772019 362.012955 
L 637.413189 362.834355 
L 637.894067 363.097142 
L 638.374945 363.054399 
L 638.855823 362.711027 
L 639.336701 362.078301 
L 639.977871 360.815115 
L 640.779334 358.643065 
L 641.74109 355.358325 
L 645.588113 341.335618 
L 646.229284 339.987111 
L 646.710161 339.361083 
L 647.191039 339.119252 
L 647.511625 339.194808 
L 647.83221 339.475682 
L 648.313088 340.310829 
L 648.793966 341.68073 
L 649.435136 344.409587 
L 650.076307 348.252356 
L 650.87777 354.747485 
L 651.679233 363.254537 
L 652.640989 376.287312 
L 653.602744 392.555645 
L 653.92333 398.719147 
L 654.404207 352.375134 
L 654.885085 327.908513 
L 655.205671 320.290679 
L 655.526256 317.399946 
L 655.686548 317.174745 
L 655.846841 317.486459 
L 656.648304 320.563264 
L 656.808597 320.30361 
L 656.968889 319.401779 
L 657.289475 315.150838 
L 657.61006 306.855184 
L 658.090938 285.06783 
L 658.571816 250.130602 
L 658.732108 235.264835 
L 659.373279 303.719418 
L 660.014449 351.517218 
L 660.65562 382.886629 
L 661.136498 397.842402 
L 661.617376 406.946769 
L 661.937961 410.349743 
L 662.258546 411.98451 
L 662.418839 412.227733 
L 662.579131 412.13223 
L 662.899717 411.047505 
L 663.380594 407.605266 
L 664.021765 400.651178 
L 665.304106 383.195789 
L 666.586447 366.522932 
L 667.548203 356.834787 
L 668.349666 351.166852 
L 668.990836 348.262886 
L 669.471714 347.000214 
L 669.792299 346.568679 
L 670.112885 346.444608 
L 670.43347 346.607612 
L 670.754055 347.035489 
L 671.234933 348.122042 
L 671.876104 350.270108 
L 672.677567 353.79181 
L 674.280493 362.151553 
L 675.723127 369.310202 
L 676.684882 373.089222 
L 677.486345 375.367138 
L 678.127516 376.541781 
L 678.608394 377.026696 
L 679.089272 377.16925 
L 679.57015 376.974333 
L 680.051027 376.453321 
L 680.692198 375.28228 
L 681.333368 373.619548 
L 682.295124 370.364605 
L 683.577465 365.081133 
L 685.821562 355.667441 
L 686.783318 352.602449 
L 687.424488 351.184338 
L 687.905366 350.533011 
L 688.225951 350.322008 
L 688.546537 350.305847 
L 688.867122 350.498099 
L 689.187707 350.911959 
L 689.668585 351.976141 
L 690.149463 353.60899 
L 690.790633 356.737782 
L 691.431804 361.03207 
L 692.233267 368.155369 
L 693.03473 377.350155 
L 693.996486 391.268887 
L 694.156778 393.904443 
L 694.637656 347.985172 
L 695.118534 323.894094 
L 695.439119 316.518323 
L 695.759705 313.875235 
L 695.919997 313.778981 
L 696.08029 314.224582 
L 696.881753 318.081017 
L 697.042046 318.005889 
L 697.202338 317.300088 
L 697.522924 313.478677 
L 697.843509 305.667019 
L 698.164094 293.049137 
L 698.644972 263.639821 
L 698.965557 236.262985 
L 699.606728 304.314478 
L 700.247898 351.677443 
L 700.889069 382.592201 
L 701.369947 397.200367 
L 701.850824 405.955872 
L 702.17141 409.127333 
L 702.491995 410.532554 
L 702.652288 410.662016 
L 702.81258 410.453565 
L 703.133165 409.14577 
L 703.614043 405.377325 
L 704.255214 398.007289 
L 705.697847 377.483928 
L 706.980188 360.616229 
L 707.781652 352.433915 
L 708.583115 346.510757 
L 709.224285 343.442329 
L 709.705163 342.079146 
L 710.025748 341.59129 
L 710.346334 341.419304 
L 710.666919 341.542657 
L 710.987504 341.938991 
L 711.468382 342.993061 
L 712.109552 345.124538 
L 712.911016 348.666204 
L 714.353649 356.311668 
L 716.116868 365.349496 
L 717.078624 369.19063 
L 717.880087 371.518264 
L 718.521257 372.737586 
L 719.002135 373.26167 
L 719.483013 373.450126 
L 719.963891 373.309431 
L 720.444769 372.852424 
L 720.925647 372.097856 
L 721.566817 370.67141 
L 722.36828 368.314769 
L 723.490329 364.251761 
L 726.215303 353.94526 
L 727.016767 351.766768 
L 727.657937 350.595814 
L 728.138815 350.128293 
L 728.4594 350.038981 
L 728.779985 350.143776 
L 729.100571 350.456202 
L 729.581449 351.342811 
L 730.062326 352.768776 
L 730.703497 355.578675 
L 731.344667 359.508364 
L 732.146131 366.117887 
L 732.947594 374.742356 
L 733.909349 387.914556 
L 734.069642 390.420113 
L 734.55052 345.47248 
L 735.031398 322.261773 
L 735.351983 315.433478 
L 735.672568 313.313088 
L 735.832861 313.470484 
L 736.153446 315.203403 
L 736.794617 319.219629 
L 736.954909 319.377233 
L 737.115202 318.902688 
L 737.275495 317.664658 
L 737.59608 312.41586 
L 737.916665 302.750291 
L 738.397543 278.364494 
L 738.878421 240.372488 
L 739.519591 308.66457 
L 740.160762 356.181047 
L 740.801932 387.173867 
L 741.28281 401.797405 
L 741.763688 410.535769 
L 742.084273 413.679573 
L 742.404859 415.045346 
L 742.565151 415.150966 
L 742.725444 414.916077 
L 743.046029 413.548068 
L 743.526907 409.672517 
L 744.168077 402.132393 
L 745.610711 381.138478 
L 746.893052 363.78327 
L 747.854808 353.839932 
L 748.656271 348.047972 
L 749.297441 345.073342 
L 749.778319 343.764151 
L 750.098905 343.301915 
L 750.41949 343.146037 
L 750.740075 343.275205 
L 751.06066 343.666484 
L 751.541538 344.691773 
L 752.182709 346.744547 
L 752.984172 350.12413 
L 754.587098 358.133415 
L 756.029732 364.936497 
L 756.991487 368.483444 
L 757.792951 370.585009 
L 758.434121 371.636495 
L 758.914999 372.042498 
L 759.395877 372.119676 
L 759.876755 371.874597 
L 760.357633 371.320176 
L 760.998803 370.133047 
L 761.800266 368.015529 
L 762.762022 364.745266 
L 764.525241 357.712203 
L 765.967874 352.309348 
L 766.769338 349.984981 
L 767.410508 348.676553 
L 767.891386 348.094064 
L 768.211971 347.922606 
L 768.532556 347.940975 
L 768.853142 348.16281 
L 769.33402 348.906021 
L 769.814897 350.180017 
L 770.456068 352.774917 
L 771.097238 356.476787 
L 771.898702 362.785882 
L 772.700165 371.095545 
L 773.66192 383.875731 
L 773.822213 386.314823 
L 774.303091 341.213021 
L 774.783969 317.939486 
L 775.104554 311.112792 
L 775.425139 309.023965 
L 775.585432 309.207141 
L 775.906017 311.009238 
L 776.547188 315.221716 
L 776.70748 315.437957 
L 776.867773 315.025072 
L 777.028066 313.851343 
L 777.348651 308.737598 
L 777.669236 299.213342 
L 778.150114 275.045528 
L 778.630992 237.271552 
L 779.272162 305.755948 
L 779.913333 353.429326 
L 780.554503 384.546595 
L 781.035381 399.243898 
L 781.516259 408.040547 
L 781.836844 411.215163 
L 782.15743 412.605692 
L 782.317722 412.721517 
L 782.478015 412.495436 
L 782.7986 411.141005 
L 783.279478 407.276278 
L 783.920648 399.734272 
L 785.202989 381.062099 
L 786.645623 361.21544 
L 787.607379 351.167569 
L 788.408842 345.277163 
L 789.050012 342.218318 
L 789.53089 340.843622 
L 789.851476 340.336879 
L 790.172061 340.135992 
L 790.492646 340.219782 
L 790.813231 340.565444 
L 791.294109 341.522131 
L 791.93528 343.483715 
L 792.736743 346.750965 
L 794.339669 354.546657 
L 795.782303 361.17673 
L 796.744058 364.621297 
L 797.545522 366.646501 
L 798.186692 367.643136 
L 798.66757 368.011774 
L 799.148448 368.054892 
L 799.629326 367.779102 
L 800.110204 367.197349 
L 800.751374 365.979056 
L 801.552837 363.831049 
L 802.514593 360.536466 
L 804.438104 352.84818 
L 805.720445 348.11024 
L 806.521909 345.808023 
L 807.163079 344.52229 
L 807.643957 343.959531 
L 807.964542 343.802445 
L 808.285127 343.836115 
L 808.605713 344.07414 
L 809.086591 344.843215 
L 809.567468 346.144848 
L 810.208639 348.779117 
L 810.849809 352.522934 
L 811.651273 358.88759 
L 812.452736 367.255699 
L 813.414491 380.108959 
L 813.895369 335.352882 
L 814.376247 312.495244 
L 814.696832 305.977576 
L 814.857125 304.615542 
L 815.017418 304.218614 
L 815.17771 304.57341 
L 815.498296 306.730043 
L 816.139466 311.686238 
L 816.299759 312.093636 
L 816.460051 311.873383 
L 816.620344 310.893481 
L 816.940929 306.169931 
L 817.261514 297.037667 
L 817.742392 273.457518 
L 818.22327 236.266552 
L 818.864441 304.809173 
L 819.505611 352.527348 
L 820.146782 383.675176 
L 820.62766 398.385835 
L 821.108537 407.187627 
L 821.429123 410.361153 
L 821.749708 411.747028 
L 821.910001 411.859207 
L 822.070293 411.628616 
L 822.390878 410.262599 
L 822.871756 406.374247 
L 823.512927 398.789582 
L 824.795268 379.99707 
L 826.237901 359.967175 
L 827.199657 349.774365 
L 828.00112 343.752122 
L 828.642291 340.581948 
L 829.123169 339.120965 
L 829.604047 338.388584 
L 829.924632 338.273066 
L 830.245217 338.430411 
L 830.565802 338.837258 
L 831.04668 339.861779 
L 831.687851 341.868485 
L 832.649606 345.839117 
L 835.855459 360.046431 
L 836.656922 362.419818 
L 837.298093 363.736457 
L 837.77897 364.357913 
L 838.259848 364.657102 
L 838.740726 364.634062 
L 839.221604 364.295564 
L 839.702482 363.654699 
L 840.343652 362.363417 
L 841.145116 360.133944 
L 842.106871 356.756577 
L 845.953894 342.276719 
L 846.595065 340.856026 
L 847.075943 340.178323 
L 847.556821 339.88712 
L 847.877406 339.931087 
L 848.197991 340.181446 
L 848.678869 340.972825 
L 849.159747 342.301306 
L 849.800917 344.978383 
L 850.442088 348.772944 
L 851.243551 355.21203 
L 852.045014 363.666574 
L 853.00677 376.639026 
L 853.968526 392.847499 
L 854.609696 405.509664 
L 855.090574 360.151789 
L 855.571452 336.368381 
L 855.892037 329.062463 
L 856.212622 326.384409 
L 856.372915 326.232173 
L 856.533208 326.596525 
L 857.334671 329.677219 
L 857.494963 329.374826 
L 857.655256 328.418285 
L 857.975841 324.02591 
L 858.296426 315.552188 
L 858.777304 293.443428 
L 859.258182 258.137008 
L 859.418475 243.140559 
L 860.059645 309.98438 
L 860.700816 356.334301 
L 861.341986 386.4151 
L 861.822864 400.50567 
L 862.303742 408.82847 
L 862.624327 411.755279 
L 862.944913 412.948597 
L 863.105205 412.983782 
L 863.265498 412.688514 
L 863.586083 411.228528 
L 864.066961 407.28194 
L 864.708131 399.75861 
L 866.311058 376.903219 
L 867.433106 362.504396 
L 868.234569 354.522916 
L 868.87574 349.788544 
L 869.51691 346.56153 
L 869.997788 345.101298 
L 870.318373 344.561021 
L 870.638959 344.347223 
L 870.959544 344.439824 
L 871.280129 344.816734 
L 871.761007 345.863087 
L 872.402177 348.023665 
L 873.203641 351.661397 
L 874.485982 358.699494 
L 876.409493 369.201501 
L 877.371249 373.365952 
L 878.172712 375.956222 
L 878.813882 377.37226 
L 879.29476 378.032207 
L 879.775638 378.343987 
L 880.096223 378.360305 
L 880.577101 378.104809 
L 881.057979 377.527184 
L 881.69915 376.29274 
L 882.500613 374.096047 
L 883.462369 370.711757 
L 885.225587 363.451473 
L 886.668221 357.875993 
L 887.469684 355.468926 
L 888.110855 354.103019 
L 888.591733 353.482951 
L 888.912318 353.289185 
L 889.232903 353.287483 
L 889.553488 353.491506 
L 889.874074 353.914546 
L 890.354951 354.987851 
L 890.835829 356.624553 
L 891.477 359.750888 
L 892.11817 364.034825 
L 892.919633 371.135414 
L 893.721097 380.298255 
L 894.362267 389.18796 
L 894.843145 344.733927 
L 895.324023 322.010051 
L 895.644608 315.504398 
L 895.965193 313.706337 
L 896.125486 314.02509 
L 896.446071 316.081693 
L 897.087242 320.752273 
L 897.247534 321.075529 
L 897.407827 320.767655 
L 897.56812 319.69741 
L 897.888705 314.787877 
L 898.20929 305.467058 
L 898.690168 281.610048 
L 899.171046 244.162531 
L 899.812216 311.829375 
L 900.453387 358.762079 
L 901.094557 389.21136 
L 901.575435 403.453007 
L 902.056313 411.831115 
L 902.376898 414.74658 
L 902.697484 415.893356 
L 902.857776 415.892946 
L 903.018069 415.554324 
L 903.338654 413.985685 
L 903.819532 409.826084 
L 904.460702 401.938219 
L 905.903336 380.28724 
L 907.185677 362.487017 
L 908.147433 352.290986 
L 908.948896 346.338757 
L 909.590066 343.267349 
L 910.070944 341.903195 
L 910.39153 341.412447 
L 910.712115 341.234399 
L 911.0327 341.347597 
L 911.353285 341.728962 
L 911.834163 342.75043 
L 912.475334 344.817984 
L 913.276797 348.246381 
L 914.879723 356.446045 
L 916.482649 364.208291 
L 917.444405 367.808175 
L 918.245868 369.950534 
L 918.887039 371.039693 
L 919.367917 371.480095 
L 919.848794 371.599092 
L 920.329672 371.405056 
L 920.81055 370.912571 
L 921.451721 369.827586 
L 922.253184 367.873589 
L 923.21494 364.858746 
L 926.741377 352.978759 
L 927.382548 351.67789 
L 927.863426 351.064445 
L 928.344304 350.81592 
L 928.664889 350.876574 
L 928.985474 351.134394 
L 929.466352 351.920071 
L 929.94723 353.223192 
L 930.5884 355.837226 
L 931.229571 359.537195 
L 932.031034 365.817053 
L 932.832497 374.07116 
L 933.794253 386.755582 
L 933.954545 369.198235 
L 933.954545 369.198235 
" clip-path="url(#peb4d4b245c)" style="fill: none; stroke: #1f77b4; stroke-width: 1.5; stroke-linecap: square"/>
   </g>
   <g id="line2d_15">
    <path d="M 173.045455 291.873416 
L 177.693941 291.873416 
L 177.854233 396.105853 
L 213.278903 396.105853 
L 213.439196 291.873416 
L 218.087682 291.873416 
L 218.247975 396.105853 
L 253.99323 396.105853 
L 254.153523 291.873416 
L 258.802009 291.873416 
L 258.962302 396.105853 
L 293.585509 396.105853 
L 293.745801 291.873416 
L 298.394287 291.873416 
L 298.55458 396.105853 
L 333.818957 396.105853 
L 333.97925 291.873416 
L 338.627736 291.873416 
L 338.788029 396.105853 
L 373.090651 396.105853 
L 373.250943 291.873416 
L 377.899429 291.873416 
L 378.059722 396.105853 
L 413.644685 396.105853 
L 413.804977 291.873416 
L 418.453463 291.873416 
L 418.613756 396.105853 
L 453.557548 396.105853 
L 453.717841 291.873416 
L 458.366327 291.873416 
L 458.52662 396.105853 
L 493.630705 396.105853 
L 493.790997 291.873416 
L 498.439483 291.873416 
L 498.599776 396.105853 
L 533.864153 396.105853 
L 534.024446 291.873416 
L 538.672932 291.873416 
L 538.833225 396.105853 
L 574.257895 396.105853 
L 574.418188 291.873416 
L 579.066674 291.873416 
L 579.226966 396.105853 
L 613.209003 396.105853 
L 613.369295 291.873416 
L 618.017782 291.873416 
L 618.178074 396.105853 
L 653.92333 396.105853 
L 654.083622 291.873416 
L 658.732108 291.873416 
L 658.892401 396.105853 
L 694.156778 396.105853 
L 694.317071 291.873416 
L 698.965557 291.873416 
L 699.12585 396.105853 
L 734.069642 396.105853 
L 734.229935 291.873416 
L 738.878421 291.873416 
L 739.038713 396.105853 
L 773.822213 396.105853 
L 773.982506 291.873416 
L 778.630992 291.873416 
L 778.791284 396.105853 
L 813.414491 396.105853 
L 813.574784 291.873416 
L 818.22327 291.873416 
L 818.383563 396.105853 
L 854.609696 396.105853 
L 854.769989 291.873416 
L 859.418475 291.873416 
L 859.578767 396.105853 
L 894.362267 396.105853 
L 894.52256 291.873416 
L 899.171046 291.873416 
L 899.331338 396.105853 
L 933.794253 396.105853 
L 933.954545 291.873416 
L 933.954545 291.873416 
" clip-path="url(#peb4d4b245c)" style="fill: none; stroke: #ff7f0e; stroke-width: 1.5; stroke-linecap: square"/>
   </g>
   <g id="line2d_16">
    <path d="M 929.466352 396.105853 
" clip-path="url(#peb4d4b245c)" style="fill: none; stroke: #000000; stroke-width: 1.5; stroke-linecap: square"/>
    <defs>
     <path id="m403b5c8bd2" d="M 0 1 
C 0.265203 1 0.51958 0.894634 0.707107 0.707107 
C 0.894634 0.51958 1 0.265203 1 0 
C 1 -0.265203 0.894634 -0.51958 0.707107 -0.707107 
C 0.51958 -0.894634 0.265203 -1 0 -1 
C -0.265203 -1 -0.51958 -0.894634 -0.707107 -0.707107 
C -0.894634 -0.51958 -1 -0.265203 -1 0 
C -1 0.265203 -0.894634 0.51958 -0.707107 0.707107 
C -0.51958 0.894634 -0.265203 1 0 1 
z
" style="stroke: #000000"/>
    </defs>
    <g clip-path="url(#peb4d4b245c)">
     <use xlink:href="#m403b5c8bd2" x="173.045455" y="291.873416" style="stroke: #000000"/>
     <use xlink:href="#m403b5c8bd2" x="178.174819" y="396.105853" style="stroke: #000000"/>
     <use xlink:href="#m403b5c8bd2" x="183.14389" y="396.105853" style="stroke: #000000"/>
     <use xlink:href="#m403b5c8bd2" x="188.112961" y="291.873416" style="stroke: #000000"/>
     <use xlink:href="#m403b5c8bd2" x="193.082033" y="396.105853" style="stroke: #000000"/>
     <use xlink:href="#m403b5c8bd2" x="198.211397" y="396.105853" style="stroke: #000000"/>
     <use xlink:href="#m403b5c8bd2" x="203.180468" y="291.873416" style="stroke: #000000"/>
     <use xlink:href="#m403b5c8bd2" x="208.149539" y="396.105853" style="stroke: #000000"/>
     <use xlink:href="#m403b5c8bd2" x="213.118611" y="291.873416" style="stroke: #000000"/>
     <use xlink:href="#m403b5c8bd2" x="218.247975" y="396.105853" style="stroke: #000000"/>
     <use xlink:href="#m403b5c8bd2" x="223.217046" y="396.105853" style="stroke: #000000"/>
     <use xlink:href="#m403b5c8bd2" x="228.186118" y="291.873416" style="stroke: #000000"/>
     <use xlink:href="#m403b5c8bd2" x="233.155189" y="396.105853" style="stroke: #000000"/>
     <use xlink:href="#m403b5c8bd2" x="238.284553" y="396.105853" style="stroke: #000000"/>
     <use xlink:href="#m403b5c8bd2" x="243.253624" y="291.873416" style="stroke: #000000"/>
     <use xlink:href="#m403b5c8bd2" x="248.222696" y="396.105853" style="stroke: #000000"/>
     <use xlink:href="#m403b5c8bd2" x="253.191767" y="291.873416" style="stroke: #000000"/>
     <use xlink:href="#m403b5c8bd2" x="258.321131" y="396.105853" style="stroke: #000000"/>
     <use xlink:href="#m403b5c8bd2" x="263.290202" y="396.105853" style="stroke: #000000"/>
     <use xlink:href="#m403b5c8bd2" x="268.259274" y="291.873416" style="stroke: #000000"/>
     <use xlink:href="#m403b5c8bd2" x="273.228345" y="396.105853" style="stroke: #000000"/>
     <use xlink:href="#m403b5c8bd2" x="278.357709" y="396.105853" style="stroke: #000000"/>
     <use xlink:href="#m403b5c8bd2" x="283.326781" y="291.873416" style="stroke: #000000"/>
     <use xlink:href="#m403b5c8bd2" x="288.295852" y="396.105853" style="stroke: #000000"/>
     <use xlink:href="#m403b5c8bd2" x="293.264923" y="291.873416" style="stroke: #000000"/>
     <use xlink:href="#m403b5c8bd2" x="298.394287" y="396.105853" style="stroke: #000000"/>
     <use xlink:href="#m403b5c8bd2" x="303.363359" y="396.105853" style="stroke: #000000"/>
     <use xlink:href="#m403b5c8bd2" x="308.33243" y="291.873416" style="stroke: #000000"/>
     <use xlink:href="#m403b5c8bd2" x="313.301501" y="396.105853" style="stroke: #000000"/>
     <use xlink:href="#m403b5c8bd2" x="318.430865" y="396.105853" style="stroke: #000000"/>
     <use xlink:href="#m403b5c8bd2" x="323.399937" y="291.873416" style="stroke: #000000"/>
     <use xlink:href="#m403b5c8bd2" x="328.369008" y="396.105853" style="stroke: #000000"/>
     <use xlink:href="#m403b5c8bd2" x="333.33808" y="291.873416" style="stroke: #000000"/>
     <use xlink:href="#m403b5c8bd2" x="338.467444" y="396.105853" style="stroke: #000000"/>
     <use xlink:href="#m403b5c8bd2" x="343.436515" y="396.105853" style="stroke: #000000"/>
     <use xlink:href="#m403b5c8bd2" x="348.405586" y="291.873416" style="stroke: #000000"/>
     <use xlink:href="#m403b5c8bd2" x="353.374658" y="396.105853" style="stroke: #000000"/>
     <use xlink:href="#m403b5c8bd2" x="358.504022" y="396.105853" style="stroke: #000000"/>
     <use xlink:href="#m403b5c8bd2" x="363.473093" y="291.873416" style="stroke: #000000"/>
     <use xlink:href="#m403b5c8bd2" x="368.442164" y="396.105853" style="stroke: #000000"/>
     <use xlink:href="#m403b5c8bd2" x="373.411236" y="291.873416" style="stroke: #000000"/>
     <use xlink:href="#m403b5c8bd2" x="378.5406" y="396.105853" style="stroke: #000000"/>
     <use xlink:href="#m403b5c8bd2" x="383.509671" y="396.105853" style="stroke: #000000"/>
     <use xlink:href="#m403b5c8bd2" x="388.478743" y="291.873416" style="stroke: #000000"/>
     <use xlink:href="#m403b5c8bd2" x="393.447814" y="396.105853" style="stroke: #000000"/>
     <use xlink:href="#m403b5c8bd2" x="398.577178" y="396.105853" style="stroke: #000000"/>
     <use xlink:href="#m403b5c8bd2" x="403.546249" y="291.873416" style="stroke: #000000"/>
     <use xlink:href="#m403b5c8bd2" x="408.515321" y="396.105853" style="stroke: #000000"/>
     <use xlink:href="#m403b5c8bd2" x="413.484392" y="291.873416" style="stroke: #000000"/>
     <use xlink:href="#m403b5c8bd2" x="418.613756" y="396.105853" style="stroke: #000000"/>
     <use xlink:href="#m403b5c8bd2" x="423.582827" y="396.105853" style="stroke: #000000"/>
     <use xlink:href="#m403b5c8bd2" x="428.551899" y="291.873416" style="stroke: #000000"/>
     <use xlink:href="#m403b5c8bd2" x="433.52097" y="396.105853" style="stroke: #000000"/>
     <use xlink:href="#m403b5c8bd2" x="438.650334" y="396.105853" style="stroke: #000000"/>
     <use xlink:href="#m403b5c8bd2" x="443.619406" y="291.873416" style="stroke: #000000"/>
     <use xlink:href="#m403b5c8bd2" x="448.588477" y="396.105853" style="stroke: #000000"/>
     <use xlink:href="#m403b5c8bd2" x="453.557548" y="291.873416" style="stroke: #000000"/>
     <use xlink:href="#m403b5c8bd2" x="458.686912" y="396.105853" style="stroke: #000000"/>
     <use xlink:href="#m403b5c8bd2" x="463.655984" y="396.105853" style="stroke: #000000"/>
     <use xlink:href="#m403b5c8bd2" x="468.625055" y="291.873416" style="stroke: #000000"/>
     <use xlink:href="#m403b5c8bd2" x="473.594126" y="396.105853" style="stroke: #000000"/>
     <use xlink:href="#m403b5c8bd2" x="478.72349" y="396.105853" style="stroke: #000000"/>
     <use xlink:href="#m403b5c8bd2" x="483.692562" y="291.873416" style="stroke: #000000"/>
     <use xlink:href="#m403b5c8bd2" x="488.661633" y="396.105853" style="stroke: #000000"/>
     <use xlink:href="#m403b5c8bd2" x="493.630705" y="291.873416" style="stroke: #000000"/>
     <use xlink:href="#m403b5c8bd2" x="498.760069" y="396.105853" style="stroke: #000000"/>
     <use xlink:href="#m403b5c8bd2" x="503.72914" y="396.105853" style="stroke: #000000"/>
     <use xlink:href="#m403b5c8bd2" x="508.698211" y="291.873416" style="stroke: #000000"/>
     <use xlink:href="#m403b5c8bd2" x="513.667283" y="396.105853" style="stroke: #000000"/>
     <use xlink:href="#m403b5c8bd2" x="518.796647" y="396.105853" style="stroke: #000000"/>
     <use xlink:href="#m403b5c8bd2" x="523.765718" y="291.873416" style="stroke: #000000"/>
     <use xlink:href="#m403b5c8bd2" x="528.734789" y="396.105853" style="stroke: #000000"/>
     <use xlink:href="#m403b5c8bd2" x="533.703861" y="291.873416" style="stroke: #000000"/>
     <use xlink:href="#m403b5c8bd2" x="538.833225" y="396.105853" style="stroke: #000000"/>
     <use xlink:href="#m403b5c8bd2" x="543.802296" y="396.105853" style="stroke: #000000"/>
     <use xlink:href="#m403b5c8bd2" x="548.771368" y="291.873416" style="stroke: #000000"/>
     <use xlink:href="#m403b5c8bd2" x="553.740439" y="396.105853" style="stroke: #000000"/>
     <use xlink:href="#m403b5c8bd2" x="558.869803" y="396.105853" style="stroke: #000000"/>
     <use xlink:href="#m403b5c8bd2" x="563.838874" y="291.873416" style="stroke: #000000"/>
     <use xlink:href="#m403b5c8bd2" x="568.807946" y="396.105853" style="stroke: #000000"/>
     <use xlink:href="#m403b5c8bd2" x="573.777017" y="291.873416" style="stroke: #000000"/>
     <use xlink:href="#m403b5c8bd2" x="578.906381" y="396.105853" style="stroke: #000000"/>
     <use xlink:href="#m403b5c8bd2" x="583.875452" y="396.105853" style="stroke: #000000"/>
     <use xlink:href="#m403b5c8bd2" x="588.844524" y="291.873416" style="stroke: #000000"/>
     <use xlink:href="#m403b5c8bd2" x="593.813595" y="396.105853" style="stroke: #000000"/>
     <use xlink:href="#m403b5c8bd2" x="598.942959" y="396.105853" style="stroke: #000000"/>
     <use xlink:href="#m403b5c8bd2" x="603.912031" y="291.873416" style="stroke: #000000"/>
     <use xlink:href="#m403b5c8bd2" x="608.881102" y="396.105853" style="stroke: #000000"/>
     <use xlink:href="#m403b5c8bd2" x="613.850173" y="291.873416" style="stroke: #000000"/>
     <use xlink:href="#m403b5c8bd2" x="618.979537" y="396.105853" style="stroke: #000000"/>
     <use xlink:href="#m403b5c8bd2" x="623.948609" y="396.105853" style="stroke: #000000"/>
     <use xlink:href="#m403b5c8bd2" x="628.91768" y="291.873416" style="stroke: #000000"/>
     <use xlink:href="#m403b5c8bd2" x="633.886751" y="396.105853" style="stroke: #000000"/>
     <use xlink:href="#m403b5c8bd2" x="639.016115" y="396.105853" style="stroke: #000000"/>
     <use xlink:href="#m403b5c8bd2" x="643.985187" y="291.873416" style="stroke: #000000"/>
     <use xlink:href="#m403b5c8bd2" x="648.954258" y="396.105853" style="stroke: #000000"/>
     <use xlink:href="#m403b5c8bd2" x="653.92333" y="291.873416" style="stroke: #000000"/>
     <use xlink:href="#m403b5c8bd2" x="659.052694" y="396.105853" style="stroke: #000000"/>
     <use xlink:href="#m403b5c8bd2" x="664.021765" y="396.105853" style="stroke: #000000"/>
     <use xlink:href="#m403b5c8bd2" x="668.990836" y="291.873416" style="stroke: #000000"/>
     <use xlink:href="#m403b5c8bd2" x="673.959908" y="396.105853" style="stroke: #000000"/>
     <use xlink:href="#m403b5c8bd2" x="679.089272" y="396.105853" style="stroke: #000000"/>
     <use xlink:href="#m403b5c8bd2" x="684.058343" y="291.873416" style="stroke: #000000"/>
     <use xlink:href="#m403b5c8bd2" x="689.027414" y="396.105853" style="stroke: #000000"/>
     <use xlink:href="#m403b5c8bd2" x="693.996486" y="291.873416" style="stroke: #000000"/>
     <use xlink:href="#m403b5c8bd2" x="699.12585" y="396.105853" style="stroke: #000000"/>
     <use xlink:href="#m403b5c8bd2" x="704.094921" y="396.105853" style="stroke: #000000"/>
     <use xlink:href="#m403b5c8bd2" x="709.063993" y="291.873416" style="stroke: #000000"/>
     <use xlink:href="#m403b5c8bd2" x="714.033064" y="396.105853" style="stroke: #000000"/>
     <use xlink:href="#m403b5c8bd2" x="719.162428" y="396.105853" style="stroke: #000000"/>
     <use xlink:href="#m403b5c8bd2" x="724.131499" y="291.873416" style="stroke: #000000"/>
     <use xlink:href="#m403b5c8bd2" x="729.100571" y="396.105853" style="stroke: #000000"/>
     <use xlink:href="#m403b5c8bd2" x="734.069642" y="291.873416" style="stroke: #000000"/>
     <use xlink:href="#m403b5c8bd2" x="739.199006" y="396.105853" style="stroke: #000000"/>
     <use xlink:href="#m403b5c8bd2" x="744.168077" y="396.105853" style="stroke: #000000"/>
     <use xlink:href="#m403b5c8bd2" x="749.137149" y="291.873416" style="stroke: #000000"/>
     <use xlink:href="#m403b5c8bd2" x="754.10622" y="396.105853" style="stroke: #000000"/>
     <use xlink:href="#m403b5c8bd2" x="759.235584" y="396.105853" style="stroke: #000000"/>
     <use xlink:href="#m403b5c8bd2" x="764.204656" y="291.873416" style="stroke: #000000"/>
     <use xlink:href="#m403b5c8bd2" x="769.173727" y="396.105853" style="stroke: #000000"/>
     <use xlink:href="#m403b5c8bd2" x="774.142798" y="291.873416" style="stroke: #000000"/>
     <use xlink:href="#m403b5c8bd2" x="779.272162" y="396.105853" style="stroke: #000000"/>
     <use xlink:href="#m403b5c8bd2" x="784.241234" y="396.105853" style="stroke: #000000"/>
     <use xlink:href="#m403b5c8bd2" x="789.210305" y="291.873416" style="stroke: #000000"/>
     <use xlink:href="#m403b5c8bd2" x="794.179376" y="396.105853" style="stroke: #000000"/>
     <use xlink:href="#m403b5c8bd2" x="799.30874" y="396.105853" style="stroke: #000000"/>
     <use xlink:href="#m403b5c8bd2" x="804.277812" y="291.873416" style="stroke: #000000"/>
     <use xlink:href="#m403b5c8bd2" x="809.246883" y="396.105853" style="stroke: #000000"/>
     <use xlink:href="#m403b5c8bd2" x="814.215955" y="291.873416" style="stroke: #000000"/>
     <use xlink:href="#m403b5c8bd2" x="819.345319" y="396.105853" style="stroke: #000000"/>
     <use xlink:href="#m403b5c8bd2" x="824.31439" y="396.105853" style="stroke: #000000"/>
     <use xlink:href="#m403b5c8bd2" x="829.283461" y="291.873416" style="stroke: #000000"/>
     <use xlink:href="#m403b5c8bd2" x="834.252533" y="396.105853" style="stroke: #000000"/>
     <use xlink:href="#m403b5c8bd2" x="839.381897" y="396.105853" style="stroke: #000000"/>
     <use xlink:href="#m403b5c8bd2" x="844.350968" y="291.873416" style="stroke: #000000"/>
     <use xlink:href="#m403b5c8bd2" x="849.320039" y="396.105853" style="stroke: #000000"/>
     <use xlink:href="#m403b5c8bd2" x="854.289111" y="291.873416" style="stroke: #000000"/>
     <use xlink:href="#m403b5c8bd2" x="859.418475" y="396.105853" style="stroke: #000000"/>
     <use xlink:href="#m403b5c8bd2" x="864.387546" y="396.105853" style="stroke: #000000"/>
     <use xlink:href="#m403b5c8bd2" x="869.356618" y="291.873416" style="stroke: #000000"/>
     <use xlink:href="#m403b5c8bd2" x="874.325689" y="396.105853" style="stroke: #000000"/>
     <use xlink:href="#m403b5c8bd2" x="879.455053" y="396.105853" style="stroke: #000000"/>
     <use xlink:href="#m403b5c8bd2" x="884.424124" y="291.873416" style="stroke: #000000"/>
     <use xlink:href="#m403b5c8bd2" x="889.393196" y="396.105853" style="stroke: #000000"/>
     <use xlink:href="#m403b5c8bd2" x="894.362267" y="291.873416" style="stroke: #000000"/>
     <use xlink:href="#m403b5c8bd2" x="899.491631" y="396.105853" style="stroke: #000000"/>
     <use xlink:href="#m403b5c8bd2" x="904.460702" y="396.105853" style="stroke: #000000"/>
     <use xlink:href="#m403b5c8bd2" x="909.429774" y="291.873416" style="stroke: #000000"/>
     <use xlink:href="#m403b5c8bd2" x="914.398845" y="396.105853" style="stroke: #000000"/>
     <use xlink:href="#m403b5c8bd2" x="919.528209" y="396.105853" style="stroke: #000000"/>
     <use xlink:href="#m403b5c8bd2" x="924.497281" y="291.873416" style="stroke: #000000"/>
     <use xlink:href="#m403b5c8bd2" x="929.466352" y="396.105853" style="stroke: #000000"/>
    </g>
   </g>
   <g id="patch_3">
    <path d="M 135 448.56 
L 135 60.48 
" style="fill: none; stroke: #000000; stroke-width: 0.8; stroke-linejoin: miter; stroke-linecap: square"/>
   </g>
   <g id="patch_4">
    <path d="M 972 448.56 
L 972 60.48 
" style="fill: none; stroke: #000000; stroke-width: 0.8; stroke-linejoin: miter; stroke-linecap: square"/>
   </g>
   <g id="patch_5">
    <path d="M 135 448.56 
L 972 448.56 
" style="fill: none; stroke: #000000; stroke-width: 0.8; stroke-linejoin: miter; stroke-linecap: square"/>
   </g>
   <g id="patch_6">
    <path d="M 135 60.48 
L 972 60.48 
" style="fill: none; stroke: #000000; stroke-width: 0.8; stroke-linejoin: miter; stroke-linecap: square"/>
   </g>
   <g id="legend_1">
    <g id="patch_7">
     <path d="M 895.915625 113.070625 
L 965 113.070625 
Q 967 113.070625 967 111.070625 
L 967 67.48 
Q 967 65.48 965 65.48 
L 895.915625 65.48 
Q 893.915625 65.48 893.915625 67.48 
L 893.915625 111.070625 
Q 893.915625 113.070625 895.915625 113.070625 
z
" style="fill: #ffffff; opacity: 0.8; stroke: #cccccc; stroke-linejoin: miter"/>
    </g>
    <g id="line2d_17">
     <path d="M 897.915625 73.578438 
L 907.915625 73.578438 
L 917.915625 73.578438 
" style="fill: none; stroke: #1f77b4; stroke-width: 1.5; stroke-linecap: square"/>
    </g>
    <g id="text_15">
     <!-- nw_0 -->
     <g transform="translate(925.915625 77.078438) scale(0.1 -0.1)">
      <defs>
       <path id="DejaVuSans-6e" d="M 3513 2113 
L 3513 0 
L 2938 0 
L 2938 2094 
Q 2938 2591 2744 2837 
Q 2550 3084 2163 3084 
Q 1697 3084 1428 2787 
Q 1159 2491 1159 1978 
L 1159 0 
L 581 0 
L 581 3500 
L 1159 3500 
L 1159 2956 
Q 1366 3272 1645 3428 
Q 1925 3584 2291 3584 
Q 2894 3584 3203 3211 
Q 3513 2838 3513 2113 
z
" transform="scale(0.015625)"/>
       <path id="DejaVuSans-77" d="M 269 3500 
L 844 3500 
L 1563 769 
L 2278 3500 
L 2956 3500 
L 3675 769 
L 4391 3500 
L 4966 3500 
L 4050 0 
L 3372 0 
L 2619 2869 
L 1863 0 
L 1184 0 
L 269 3500 
z
" transform="scale(0.015625)"/>
       <path id="DejaVuSans-5f" d="M 3263 -1063 
L 3263 -1509 
L -63 -1509 
L -63 -1063 
L 3263 -1063 
z
" transform="scale(0.015625)"/>
      </defs>
      <use xlink:href="#DejaVuSans-6e"/>
      <use xlink:href="#DejaVuSans-77" x="63.378906"/>
      <use xlink:href="#DejaVuSans-5f" x="145.166016"/>
      <use xlink:href="#DejaVuSans-30" x="195.166016"/>
     </g>
    </g>
    <g id="line2d_18">
     <path d="M 897.915625 88.534688 
L 907.915625 88.534688 
L 917.915625 88.534688 
" style="fill: none; stroke: #ff7f0e; stroke-width: 1.5; stroke-linecap: square"/>
    </g>
    <g id="text_16">
     <!-- input_0 -->
     <g transform="translate(925.915625 92.034688) scale(0.1 -0.1)">
      <defs>
       <path id="DejaVuSans-69" d="M 603 3500 
L 1178 3500 
L 1178 0 
L 603 0 
L 603 3500 
z
M 603 4863 
L 1178 4863 
L 1178 4134 
L 603 4134 
L 603 4863 
z
" transform="scale(0.015625)"/>
       <path id="DejaVuSans-70" d="M 1159 525 
L 1159 -1331 
L 581 -1331 
L 581 3500 
L 1159 3500 
L 1159 2969 
Q 1341 3281 1617 3432 
Q 1894 3584 2278 3584 
Q 2916 3584 3314 3078 
Q 3713 2572 3713 1747 
Q 3713 922 3314 415 
Q 2916 -91 2278 -91 
Q 1894 -91 1617 61 
Q 1341 213 1159 525 
z
M 3116 1747 
Q 3116 2381 2855 2742 
Q 2594 3103 2138 3103 
Q 1681 3103 1420 2742 
Q 1159 2381 1159 1747 
Q 1159 1113 1420 752 
Q 1681 391 2138 391 
Q 2594 391 2855 752 
Q 3116 1113 3116 1747 
z
" transform="scale(0.015625)"/>
       <path id="DejaVuSans-75" d="M 544 1381 
L 544 3500 
L 1119 3500 
L 1119 1403 
Q 1119 906 1312 657 
Q 1506 409 1894 409 
Q 2359 409 2629 706 
Q 2900 1003 2900 1516 
L 2900 3500 
L 3475 3500 
L 3475 0 
L 2900 0 
L 2900 538 
Q 2691 219 2414 64 
Q 2138 -91 1772 -91 
Q 1169 -91 856 284 
Q 544 659 544 1381 
z
M 1991 3584 
L 1991 3584 
z
" transform="scale(0.015625)"/>
      </defs>
      <use xlink:href="#DejaVuSans-69"/>
      <use xlink:href="#DejaVuSans-6e" x="27.783203"/>
      <use xlink:href="#DejaVuSans-70" x="91.162109"/>
      <use xlink:href="#DejaVuSans-75" x="154.638672"/>
      <use xlink:href="#DejaVuSans-74" x="218.017578"/>
      <use xlink:href="#DejaVuSans-5f" x="257.226562"/>
      <use xlink:href="#DejaVuSans-30" x="307.226562"/>
     </g>
    </g>
    <g id="line2d_19">
     <path d="M 897.915625 103.490938 
L 907.915625 103.490938 
L 917.915625 103.490938 
" style="fill: none; stroke: #000000; stroke-width: 1.5; stroke-linecap: square"/>
     <g>
      <use xlink:href="#m403b5c8bd2" x="907.915625" y="103.490938" style="stroke: #000000"/>
     </g>
    </g>
    <g id="text_17">
     <!-- target -->
     <g transform="translate(925.915625 106.990938) scale(0.1 -0.1)">
      <defs>
       <path id="DejaVuSans-61" d="M 2194 1759 
Q 1497 1759 1228 1600 
Q 959 1441 959 1056 
Q 959 750 1161 570 
Q 1363 391 1709 391 
Q 2188 391 2477 730 
Q 2766 1069 2766 1631 
L 2766 1759 
L 2194 1759 
z
M 3341 1997 
L 3341 0 
L 2766 0 
L 2766 531 
Q 2569 213 2275 61 
Q 1981 -91 1556 -91 
Q 1019 -91 701 211 
Q 384 513 384 1019 
Q 384 1609 779 1909 
Q 1175 2209 1959 2209 
L 2766 2209 
L 2766 2266 
Q 2766 2663 2505 2880 
Q 2244 3097 1772 3097 
Q 1472 3097 1187 3025 
Q 903 2953 641 2809 
L 641 3341 
Q 956 3463 1253 3523 
Q 1550 3584 1831 3584 
Q 2591 3584 2966 3190 
Q 3341 2797 3341 1997 
z
" transform="scale(0.015625)"/>
       <path id="DejaVuSans-72" d="M 2631 2963 
Q 2534 3019 2420 3045 
Q 2306 3072 2169 3072 
Q 1681 3072 1420 2755 
Q 1159 2438 1159 1844 
L 1159 0 
L 581 0 
L 581 3500 
L 1159 3500 
L 1159 2956 
Q 1341 3275 1631 3429 
Q 1922 3584 2338 3584 
Q 2397 3584 2469 3576 
Q 2541 3569 2628 3553 
L 2631 2963 
z
" transform="scale(0.015625)"/>
       <path id="DejaVuSans-67" d="M 2906 1791 
Q 2906 2416 2648 2759 
Q 2391 3103 1925 3103 
Q 1463 3103 1205 2759 
Q 947 2416 947 1791 
Q 947 1169 1205 825 
Q 1463 481 1925 481 
Q 2391 481 2648 825 
Q 2906 1169 2906 1791 
z
M 3481 434 
Q 3481 -459 3084 -895 
Q 2688 -1331 1869 -1331 
Q 1566 -1331 1297 -1286 
Q 1028 -1241 775 -1147 
L 775 -588 
Q 1028 -725 1275 -790 
Q 1522 -856 1778 -856 
Q 2344 -856 2625 -561 
Q 2906 -266 2906 331 
L 2906 616 
Q 2728 306 2450 153 
Q 2172 0 1784 0 
Q 1141 0 747 490 
Q 353 981 353 1791 
Q 353 2603 747 3093 
Q 1141 3584 1784 3584 
Q 2172 3584 2450 3431 
Q 2728 3278 2906 2969 
L 2906 3500 
L 3481 3500 
L 3481 434 
z
" transform="scale(0.015625)"/>
       <path id="DejaVuSans-65" d="M 3597 1894 
L 3597 1613 
L 953 1613 
Q 991 1019 1311 708 
Q 1631 397 2203 397 
Q 2534 397 2845 478 
Q 3156 559 3463 722 
L 3463 178 
Q 3153 47 2828 -22 
Q 2503 -91 2169 -91 
Q 1331 -91 842 396 
Q 353 884 353 1716 
Q 353 2575 817 3079 
Q 1281 3584 2069 3584 
Q 2775 3584 3186 3129 
Q 3597 2675 3597 1894 
z
M 3022 2063 
Q 3016 2534 2758 2815 
Q 2500 3097 2075 3097 
Q 1594 3097 1305 2825 
Q 1016 2553 972 2059 
L 3022 2063 
z
" transform="scale(0.015625)"/>
      </defs>
      <use xlink:href="#DejaVuSans-74"/>
      <use xlink:href="#DejaVuSans-61" x="39.208984"/>
      <use xlink:href="#DejaVuSans-72" x="100.488281"/>
      <use xlink:href="#DejaVuSans-67" x="139.851562"/>
      <use xlink:href="#DejaVuSans-65" x="203.328125"/>
      <use xlink:href="#DejaVuSans-74" x="264.851562"/>
     </g>
    </g>
   </g>
  </g>
 </g>
 <defs>
  <clipPath id="peb4d4b245c">
   <rect x="135" y="60.48" width="837" height="388.08"/>
  </clipPath>
 </defs>
</svg>
