<?xml version="1.0" encoding="utf-8" standalone="no"?>
<!DOCTYPE svg PUBLIC "-//W3C//DTD SVG 1.1//EN"
  "http://www.w3.org/Graphics/SVG/1.1/DTD/svg11.dtd">
<svg xmlns:xlink="http://www.w3.org/1999/xlink" width="1080pt" height="504pt" viewBox="0 0 1080 504" xmlns="http://www.w3.org/2000/svg" version="1.1">
 <metadata>
  <rdf:RDF xmlns:dc="http://purl.org/dc/elements/1.1/" xmlns:cc="http://creativecommons.org/ns#" xmlns:rdf="http://www.w3.org/1999/02/22-rdf-syntax-ns#">
   <cc:Work>
    <dc:type rdf:resource="http://purl.org/dc/dcmitype/StillImage"/>
    <dc:date>2024-05-09T11:12:11.807662</dc:date>
    <dc:format>image/svg+xml</dc:format>
    <dc:creator>
     <cc:Agent>
      <dc:title>Matplotlib v3.7.1, https://matplotlib.org/</dc:title>
     </cc:Agent>
    </dc:creator>
   </cc:Work>
  </rdf:RDF>
 </metadata>
 <defs>
  <style type="text/css">*{stroke-linejoin: round; stroke-linecap: butt}</style>
 </defs>
 <g id="figure_1">
  <g id="patch_1">
   <path d="M 0 504 
L 1080 504 
L 1080 0 
L 0 0 
z
" style="fill: #ffffff"/>
  </g>
  <g id="axes_1">
   <g id="patch_2">
    <path d="M 135 448.56 
L 972 448.56 
L 972 60.48 
L 135 60.48 
z
" style="fill: #ffffff"/>
   </g>
   <g id="matplotlib.axis_1">
    <g id="xtick_1">
     <g id="line2d_1">
      <defs>
       <path id="m6ed99cceac" d="M 0 0 
L 0 3.5 
" style="stroke: #000000; stroke-width: 0.8"/>
      </defs>
      <g>
       <use xlink:href="#m6ed99cceac" x="173.045455" y="448.56" style="stroke: #000000; stroke-width: 0.8"/>
      </g>
     </g>
     <g id="text_1">
      <!-- 0 -->
      <g transform="translate(169.864205 463.158437) scale(0.1 -0.1)">
       <defs>
        <path id="DejaVuSans-30" d="M 2034 4250 
Q 1547 4250 1301 3770 
Q 1056 3291 1056 2328 
Q 1056 1369 1301 889 
Q 1547 409 2034 409 
Q 2525 409 2770 889 
Q 3016 1369 3016 2328 
Q 3016 3291 2770 3770 
Q 2525 4250 2034 4250 
z
M 2034 4750 
Q 2819 4750 3233 4129 
Q 3647 3509 3647 2328 
Q 3647 1150 3233 529 
Q 2819 -91 2034 -91 
Q 1250 -91 836 529 
Q 422 1150 422 2328 
Q 422 3509 836 4129 
Q 1250 4750 2034 4750 
z
" transform="scale(0.015625)"/>
       </defs>
       <use xlink:href="#DejaVuSans-30"/>
      </g>
     </g>
    </g>
    <g id="xtick_2">
     <g id="line2d_2">
      <g>
       <use xlink:href="#m6ed99cceac" x="333.33808" y="448.56" style="stroke: #000000; stroke-width: 0.8"/>
      </g>
     </g>
     <g id="text_2">
      <!-- 1000 -->
      <g transform="translate(320.61308 463.158437) scale(0.1 -0.1)">
       <defs>
        <path id="DejaVuSans-31" d="M 794 531 
L 1825 531 
L 1825 4091 
L 703 3866 
L 703 4441 
L 1819 4666 
L 2450 4666 
L 2450 531 
L 3481 531 
L 3481 0 
L 794 0 
L 794 531 
z
" transform="scale(0.015625)"/>
       </defs>
       <use xlink:href="#DejaVuSans-31"/>
       <use xlink:href="#DejaVuSans-30" x="63.623047"/>
       <use xlink:href="#DejaVuSans-30" x="127.246094"/>
       <use xlink:href="#DejaVuSans-30" x="190.869141"/>
      </g>
     </g>
    </g>
    <g id="xtick_3">
     <g id="line2d_3">
      <g>
       <use xlink:href="#m6ed99cceac" x="493.630705" y="448.56" style="stroke: #000000; stroke-width: 0.8"/>
      </g>
     </g>
     <g id="text_3">
      <!-- 2000 -->
      <g transform="translate(480.905705 463.158437) scale(0.1 -0.1)">
       <defs>
        <path id="DejaVuSans-32" d="M 1228 531 
L 3431 531 
L 3431 0 
L 469 0 
L 469 531 
Q 828 903 1448 1529 
Q 2069 2156 2228 2338 
Q 2531 2678 2651 2914 
Q 2772 3150 2772 3378 
Q 2772 3750 2511 3984 
Q 2250 4219 1831 4219 
Q 1534 4219 1204 4116 
Q 875 4013 500 3803 
L 500 4441 
Q 881 4594 1212 4672 
Q 1544 4750 1819 4750 
Q 2544 4750 2975 4387 
Q 3406 4025 3406 3419 
Q 3406 3131 3298 2873 
Q 3191 2616 2906 2266 
Q 2828 2175 2409 1742 
Q 1991 1309 1228 531 
z
" transform="scale(0.015625)"/>
       </defs>
       <use xlink:href="#DejaVuSans-32"/>
       <use xlink:href="#DejaVuSans-30" x="63.623047"/>
       <use xlink:href="#DejaVuSans-30" x="127.246094"/>
       <use xlink:href="#DejaVuSans-30" x="190.869141"/>
      </g>
     </g>
    </g>
    <g id="xtick_4">
     <g id="line2d_4">
      <g>
       <use xlink:href="#m6ed99cceac" x="653.92333" y="448.56" style="stroke: #000000; stroke-width: 0.8"/>
      </g>
     </g>
     <g id="text_4">
      <!-- 3000 -->
      <g transform="translate(641.19833 463.158437) scale(0.1 -0.1)">
       <defs>
        <path id="DejaVuSans-33" d="M 2597 2516 
Q 3050 2419 3304 2112 
Q 3559 1806 3559 1356 
Q 3559 666 3084 287 
Q 2609 -91 1734 -91 
Q 1441 -91 1130 -33 
Q 819 25 488 141 
L 488 750 
Q 750 597 1062 519 
Q 1375 441 1716 441 
Q 2309 441 2620 675 
Q 2931 909 2931 1356 
Q 2931 1769 2642 2001 
Q 2353 2234 1838 2234 
L 1294 2234 
L 1294 2753 
L 1863 2753 
Q 2328 2753 2575 2939 
Q 2822 3125 2822 3475 
Q 2822 3834 2567 4026 
Q 2313 4219 1838 4219 
Q 1578 4219 1281 4162 
Q 984 4106 628 3988 
L 628 4550 
Q 988 4650 1302 4700 
Q 1616 4750 1894 4750 
Q 2613 4750 3031 4423 
Q 3450 4097 3450 3541 
Q 3450 3153 3228 2886 
Q 3006 2619 2597 2516 
z
" transform="scale(0.015625)"/>
       </defs>
       <use xlink:href="#DejaVuSans-33"/>
       <use xlink:href="#DejaVuSans-30" x="63.623047"/>
       <use xlink:href="#DejaVuSans-30" x="127.246094"/>
       <use xlink:href="#DejaVuSans-30" x="190.869141"/>
      </g>
     </g>
    </g>
    <g id="xtick_5">
     <g id="line2d_5">
      <g>
       <use xlink:href="#m6ed99cceac" x="814.215955" y="448.56" style="stroke: #000000; stroke-width: 0.8"/>
      </g>
     </g>
     <g id="text_5">
      <!-- 4000 -->
      <g transform="translate(801.490955 463.158437) scale(0.1 -0.1)">
       <defs>
        <path id="DejaVuSans-34" d="M 2419 4116 
L 825 1625 
L 2419 1625 
L 2419 4116 
z
M 2253 4666 
L 3047 4666 
L 3047 1625 
L 3713 1625 
L 3713 1100 
L 3047 1100 
L 3047 0 
L 2419 0 
L 2419 1100 
L 313 1100 
L 313 1709 
L 2253 4666 
z
" transform="scale(0.015625)"/>
       </defs>
       <use xlink:href="#DejaVuSans-34"/>
       <use xlink:href="#DejaVuSans-30" x="63.623047"/>
       <use xlink:href="#DejaVuSans-30" x="127.246094"/>
       <use xlink:href="#DejaVuSans-30" x="190.869141"/>
      </g>
     </g>
    </g>
    <g id="text_6">
     <!-- t -->
     <g transform="translate(551.539844 476.836563) scale(0.1 -0.1)">
      <defs>
       <path id="DejaVuSans-74" d="M 1172 4494 
L 1172 3500 
L 2356 3500 
L 2356 3053 
L 1172 3053 
L 1172 1153 
Q 1172 725 1289 603 
Q 1406 481 1766 481 
L 2356 481 
L 2356 0 
L 1766 0 
Q 1100 0 847 248 
Q 594 497 594 1153 
L 594 3053 
L 172 3053 
L 172 3500 
L 594 3500 
L 594 4494 
L 1172 4494 
z
" transform="scale(0.015625)"/>
      </defs>
      <use xlink:href="#DejaVuSans-74"/>
     </g>
    </g>
   </g>
   <g id="matplotlib.axis_2">
    <g id="ytick_1">
     <g id="line2d_6">
      <defs>
       <path id="m757ed80239" d="M 0 0 
L -3.5 0 
" style="stroke: #000000; stroke-width: 0.8"/>
      </defs>
      <g>
       <use xlink:href="#m757ed80239" x="135" y="396.719198" style="stroke: #000000; stroke-width: 0.8"/>
      </g>
     </g>
     <g id="text_7">
      <!-- 0.0 -->
      <g transform="translate(112.096875 400.518417) scale(0.1 -0.1)">
       <defs>
        <path id="DejaVuSans-2e" d="M 684 794 
L 1344 794 
L 1344 0 
L 684 0 
L 684 794 
z
" transform="scale(0.015625)"/>
       </defs>
       <use xlink:href="#DejaVuSans-30"/>
       <use xlink:href="#DejaVuSans-2e" x="63.623047"/>
       <use xlink:href="#DejaVuSans-30" x="95.410156"/>
      </g>
     </g>
    </g>
    <g id="ytick_2">
     <g id="line2d_7">
      <g>
       <use xlink:href="#m757ed80239" x="135" y="341.749253" style="stroke: #000000; stroke-width: 0.8"/>
      </g>
     </g>
     <g id="text_8">
      <!-- 0.2 -->
      <g transform="translate(112.096875 345.548472) scale(0.1 -0.1)">
       <use xlink:href="#DejaVuSans-30"/>
       <use xlink:href="#DejaVuSans-2e" x="63.623047"/>
       <use xlink:href="#DejaVuSans-32" x="95.410156"/>
      </g>
     </g>
    </g>
    <g id="ytick_3">
     <g id="line2d_8">
      <g>
       <use xlink:href="#m757ed80239" x="135" y="286.779308" style="stroke: #000000; stroke-width: 0.8"/>
      </g>
     </g>
     <g id="text_9">
      <!-- 0.4 -->
      <g transform="translate(112.096875 290.578527) scale(0.1 -0.1)">
       <use xlink:href="#DejaVuSans-30"/>
       <use xlink:href="#DejaVuSans-2e" x="63.623047"/>
       <use xlink:href="#DejaVuSans-34" x="95.410156"/>
      </g>
     </g>
    </g>
    <g id="ytick_4">
     <g id="line2d_9">
      <g>
       <use xlink:href="#m757ed80239" x="135" y="231.809363" style="stroke: #000000; stroke-width: 0.8"/>
      </g>
     </g>
     <g id="text_10">
      <!-- 0.6 -->
      <g transform="translate(112.096875 235.608581) scale(0.1 -0.1)">
       <defs>
        <path id="DejaVuSans-36" d="M 2113 2584 
Q 1688 2584 1439 2293 
Q 1191 2003 1191 1497 
Q 1191 994 1439 701 
Q 1688 409 2113 409 
Q 2538 409 2786 701 
Q 3034 994 3034 1497 
Q 3034 2003 2786 2293 
Q 2538 2584 2113 2584 
z
M 3366 4563 
L 3366 3988 
Q 3128 4100 2886 4159 
Q 2644 4219 2406 4219 
Q 1781 4219 1451 3797 
Q 1122 3375 1075 2522 
Q 1259 2794 1537 2939 
Q 1816 3084 2150 3084 
Q 2853 3084 3261 2657 
Q 3669 2231 3669 1497 
Q 3669 778 3244 343 
Q 2819 -91 2113 -91 
Q 1303 -91 875 529 
Q 447 1150 447 2328 
Q 447 3434 972 4092 
Q 1497 4750 2381 4750 
Q 2619 4750 2861 4703 
Q 3103 4656 3366 4563 
z
" transform="scale(0.015625)"/>
       </defs>
       <use xlink:href="#DejaVuSans-30"/>
       <use xlink:href="#DejaVuSans-2e" x="63.623047"/>
       <use xlink:href="#DejaVuSans-36" x="95.410156"/>
      </g>
     </g>
    </g>
    <g id="ytick_5">
     <g id="line2d_10">
      <g>
       <use xlink:href="#m757ed80239" x="135" y="176.839418" style="stroke: #000000; stroke-width: 0.8"/>
      </g>
     </g>
     <g id="text_11">
      <!-- 0.8 -->
      <g transform="translate(112.096875 180.638636) scale(0.1 -0.1)">
       <defs>
        <path id="DejaVuSans-38" d="M 2034 2216 
Q 1584 2216 1326 1975 
Q 1069 1734 1069 1313 
Q 1069 891 1326 650 
Q 1584 409 2034 409 
Q 2484 409 2743 651 
Q 3003 894 3003 1313 
Q 3003 1734 2745 1975 
Q 2488 2216 2034 2216 
z
M 1403 2484 
Q 997 2584 770 2862 
Q 544 3141 544 3541 
Q 544 4100 942 4425 
Q 1341 4750 2034 4750 
Q 2731 4750 3128 4425 
Q 3525 4100 3525 3541 
Q 3525 3141 3298 2862 
Q 3072 2584 2669 2484 
Q 3125 2378 3379 2068 
Q 3634 1759 3634 1313 
Q 3634 634 3220 271 
Q 2806 -91 2034 -91 
Q 1263 -91 848 271 
Q 434 634 434 1313 
Q 434 1759 690 2068 
Q 947 2378 1403 2484 
z
M 1172 3481 
Q 1172 3119 1398 2916 
Q 1625 2713 2034 2713 
Q 2441 2713 2670 2916 
Q 2900 3119 2900 3481 
Q 2900 3844 2670 4047 
Q 2441 4250 2034 4250 
Q 1625 4250 1398 4047 
Q 1172 3844 1172 3481 
z
" transform="scale(0.015625)"/>
       </defs>
       <use xlink:href="#DejaVuSans-30"/>
       <use xlink:href="#DejaVuSans-2e" x="63.623047"/>
       <use xlink:href="#DejaVuSans-38" x="95.410156"/>
      </g>
     </g>
    </g>
    <g id="ytick_6">
     <g id="line2d_11">
      <g>
       <use xlink:href="#m757ed80239" x="135" y="121.869472" style="stroke: #000000; stroke-width: 0.8"/>
      </g>
     </g>
     <g id="text_12">
      <!-- 1.0 -->
      <g transform="translate(112.096875 125.668691) scale(0.1 -0.1)">
       <use xlink:href="#DejaVuSans-31"/>
       <use xlink:href="#DejaVuSans-2e" x="63.623047"/>
       <use xlink:href="#DejaVuSans-30" x="95.410156"/>
      </g>
     </g>
    </g>
    <g id="ytick_7">
     <g id="line2d_12">
      <g>
       <use xlink:href="#m757ed80239" x="135" y="66.899527" style="stroke: #000000; stroke-width: 0.8"/>
      </g>
     </g>
     <g id="text_13">
      <!-- 1.2 -->
      <g transform="translate(112.096875 70.698746) scale(0.1 -0.1)">
       <use xlink:href="#DejaVuSans-31"/>
       <use xlink:href="#DejaVuSans-2e" x="63.623047"/>
       <use xlink:href="#DejaVuSans-32" x="95.410156"/>
      </g>
     </g>
    </g>
   </g>
   <g id="line2d_13">
    <path d="M 173.045455 210.040928 
L 173.205747 157.911113 
L 173.526332 143.217221 
L 174.00721 127.993083 
L 174.167503 126.872696 
L 174.327796 129.129272 
L 174.648381 141.985559 
L 175.449844 182.077995 
L 175.610137 185.396185 
L 175.770429 186.242358 
L 175.930722 184.597076 
L 176.251307 174.436429 
L 176.732185 146.437911 
L 177.693941 78.129354 
L 177.854233 176.365808 
L 178.014526 186.456303 
L 178.335111 142.952292 
L 178.495404 136.751632 
L 178.655696 148.042142 
L 178.976282 206.987232 
L 179.617452 337.998814 
L 179.938037 373.636855 
L 180.258623 389.261799 
L 180.418915 391.744083 
L 180.579208 391.949941 
L 180.899793 388.986822 
L 181.220378 386.104903 
L 181.380671 385.889861 
L 181.540964 386.835779 
L 181.861549 392.39638 
L 182.342427 407.582118 
L 182.983597 427.278155 
L 183.304183 430.92 
L 183.464475 430.411774 
L 183.624768 428.238409 
L 183.945353 418.985154 
L 184.426231 394.697382 
L 186.349742 278.166296 
L 186.83062 263.870861 
L 187.151206 258.648724 
L 187.471791 256.511391 
L 187.632083 256.472834 
L 187.792376 257.047869 
L 188.112961 259.814209 
L 188.593839 267.177548 
L 189.395302 284.651466 
L 191.318814 328.872651 
L 192.28057 345.487596 
L 193.242325 358.229125 
L 194.204081 368.012913 
L 195.165837 375.531821 
L 196.127593 381.230836 
L 197.089348 385.453234 
L 197.890811 388.071862 
L 198.692275 390.055129 
L 199.65403 391.808641 
L 200.615786 393.075911 
L 201.577542 394.006801 
L 202.69959 394.796288 
L 203.981931 395.423308 
L 205.424565 395.887082 
L 207.348076 396.25479 
L 210.073051 396.515055 
L 213.278903 396.642712 
L 213.439196 209.969994 
L 213.599489 157.845634 
L 213.920074 143.161711 
L 214.400952 127.949844 
L 214.561244 126.832902 
L 214.721537 129.092644 
L 215.042122 141.954517 
L 215.843585 182.057445 
L 216.003878 185.377262 
L 216.164171 186.224936 
L 216.324463 184.581042 
L 216.645049 174.422871 
L 217.125926 146.427444 
L 218.087682 78.123345 
L 218.247975 176.360103 
L 218.408267 186.450879 
L 218.728853 142.947393 
L 218.889145 136.746967 
L 219.049438 148.037693 
L 219.370023 206.983174 
L 220.011194 337.995472 
L 220.331779 373.633845 
L 220.652364 389.259091 
L 220.812657 391.741511 
L 220.972949 391.947494 
L 221.293535 388.98459 
L 221.61412 386.10284 
L 221.774413 385.887868 
L 221.934705 386.833847 
L 222.25529 392.394548 
L 222.736168 407.580402 
L 223.377339 427.276568 
L 223.697924 430.918482 
L 223.858217 430.410292 
L 224.018509 428.236964 
L 224.339095 418.983788 
L 224.819972 394.696143 
L 226.743484 278.165556 
L 227.224362 263.870223 
L 227.544947 258.648148 
L 227.865532 256.510871 
L 228.025825 256.47234 
L 228.186118 257.0474 
L 228.506703 259.813785 
L 228.987581 267.177186 
L 229.789044 284.651185 
L 231.712555 328.872495 
L 232.674311 345.487479 
L 233.636067 358.229037 
L 234.597823 368.012847 
L 235.559578 375.531773 
L 236.521334 381.2308 
L 237.48309 385.453207 
L 238.284553 388.071841 
L 239.086016 390.055113 
L 240.047772 391.808629 
L 241.009528 393.075902 
L 241.971283 394.006794 
L 243.093332 394.796283 
L 244.375673 395.423305 
L 245.818306 395.887079 
L 247.741818 396.254789 
L 250.466792 396.515055 
L 253.99323 396.64989 
L 254.153523 209.976651 
L 254.313815 157.851778 
L 254.634401 143.166918 
L 255.115279 127.953898 
L 255.275571 126.836632 
L 255.435864 129.096076 
L 255.756449 141.957424 
L 256.557912 182.059368 
L 256.718205 185.379033 
L 256.878497 186.226567 
L 257.03879 184.582543 
L 257.359375 174.42414 
L 257.840253 146.428424 
L 258.802009 78.123908 
L 258.962302 176.360638 
L 259.122594 186.451388 
L 259.443179 142.947853 
L 259.603472 136.747405 
L 259.763765 148.03811 
L 260.08435 206.983555 
L 260.72552 337.995786 
L 261.046106 373.634128 
L 261.366691 389.259346 
L 261.526984 391.741752 
L 261.687276 391.947723 
L 262.007861 388.984799 
L 262.328447 386.103034 
L 262.488739 385.888055 
L 262.649032 386.834029 
L 262.969617 392.39472 
L 263.450495 407.580563 
L 264.091666 427.276717 
L 264.412251 430.918624 
L 264.572543 430.410431 
L 264.732836 428.2371 
L 265.053421 418.983916 
L 265.534299 394.696259 
L 267.457811 278.165625 
L 267.938689 263.870283 
L 268.259274 258.648202 
L 268.579859 256.51092 
L 268.740152 256.472386 
L 268.900444 257.047444 
L 269.22103 259.813825 
L 269.701907 267.17722 
L 270.503371 284.651212 
L 272.426882 328.872509 
L 273.388638 345.48749 
L 274.350394 358.229045 
L 275.312149 368.012853 
L 276.273905 375.531777 
L 277.235661 381.230803 
L 278.197417 385.45321 
L 278.99888 388.071843 
L 279.800343 390.055114 
L 280.762099 391.80863 
L 281.723854 393.075903 
L 282.68561 394.006795 
L 283.807658 394.796284 
L 285.089999 395.423305 
L 286.532633 395.88708 
L 288.456145 396.254789 
L 291.181119 396.515055 
L 293.585509 396.621344 
L 293.745801 209.950174 
L 293.906094 157.827337 
L 294.226679 143.1462 
L 294.707557 127.937768 
L 294.86785 126.821791 
L 295.028142 129.082419 
L 295.348727 141.945857 
L 296.150191 182.05172 
L 296.310483 185.371991 
L 296.470776 186.220085 
L 296.631068 184.576577 
L 296.951654 174.419096 
L 297.432532 146.424528 
L 298.394287 78.121669 
L 298.55458 176.358512 
L 298.714873 186.449366 
L 299.035458 142.946025 
L 299.19575 136.745664 
L 299.356043 148.03645 
L 299.676628 206.982041 
L 300.317799 337.994538 
L 300.638384 373.633004 
L 300.958969 389.258334 
L 301.119262 391.740792 
L 301.279555 391.946809 
L 301.60014 388.983965 
L 301.920725 386.102263 
L 302.081018 385.887311 
L 302.24131 386.833308 
L 302.561896 392.394037 
L 303.042773 407.579922 
L 303.683944 427.276125 
L 304.004529 430.918058 
L 304.164822 430.409878 
L 304.325114 428.236561 
L 304.6457 418.983407 
L 305.126578 394.695797 
L 307.050089 278.165349 
L 307.530967 263.870045 
L 307.851552 258.647986 
L 308.172137 256.510725 
L 308.33243 256.472201 
L 308.492723 257.047269 
L 308.813308 259.813667 
L 309.294186 267.177085 
L 310.095649 284.651107 
L 312.01916 328.872451 
L 312.980916 345.487446 
L 313.942672 358.229012 
L 314.904428 368.012829 
L 315.866183 375.531759 
L 316.827939 381.23079 
L 317.789695 385.4532 
L 318.591158 388.071836 
L 319.392621 390.055108 
L 320.354377 391.808625 
L 321.316133 393.0759 
L 322.277888 394.006792 
L 323.399937 394.796282 
L 324.682278 395.423304 
L 326.124911 395.887079 
L 328.048423 396.254789 
L 330.773398 396.515055 
L 333.818957 396.638848 
L 333.97925 209.966411 
L 334.139543 157.842326 
L 334.460128 143.158907 
L 334.941006 127.947661 
L 335.101298 126.830894 
L 335.261591 129.090796 
L 335.582176 141.952952 
L 336.383639 182.05641 
L 336.543932 185.376309 
L 336.704225 186.224059 
L 336.864517 184.580234 
L 337.185103 174.422188 
L 337.66598 146.426916 
L 338.627736 78.123041 
L 338.788029 176.359815 
L 338.948321 186.450606 
L 339.268907 142.947145 
L 339.429199 136.746732 
L 339.589492 148.037468 
L 339.910077 206.982969 
L 340.551248 337.995303 
L 340.871833 373.633693 
L 341.192418 389.258955 
L 341.352711 391.741381 
L 341.513003 391.94737 
L 341.833589 388.984477 
L 342.154174 386.102736 
L 342.314467 385.887768 
L 342.474759 386.83375 
L 342.795344 392.394456 
L 343.276222 407.580315 
L 343.917393 427.276488 
L 344.237978 430.918405 
L 344.398271 430.410217 
L 344.558563 428.236891 
L 344.879149 418.983719 
L 345.360026 394.69608 
L 347.283538 278.165518 
L 347.764416 263.870191 
L 348.085001 258.648118 
L 348.405586 256.510845 
L 348.565879 256.472315 
L 348.726172 257.047376 
L 349.046757 259.813764 
L 349.527635 267.177168 
L 350.329098 284.651171 
L 352.252609 328.872487 
L 353.214365 345.487473 
L 354.176121 358.229033 
L 355.137877 368.012844 
L 356.099632 375.53177 
L 357.061388 381.230798 
L 358.023144 385.453206 
L 358.824607 388.07184 
L 359.62607 390.055112 
L 360.587826 391.808628 
L 361.549582 393.075902 
L 362.511337 394.006794 
L 363.633386 394.796283 
L 364.915727 395.423305 
L 366.35836 395.887079 
L 368.281872 396.254789 
L 371.006846 396.515055 
L 373.090651 396.611216 
L 373.250943 209.940778 
L 373.411236 157.818661 
L 373.731821 143.138841 
L 374.212699 127.932036 
L 374.372992 126.816517 
L 374.533284 129.077566 
L 374.853869 141.941747 
L 375.655333 182.049004 
L 375.815625 185.369492 
L 375.975918 186.217784 
L 376.13621 184.57446 
L 376.456796 174.417306 
L 376.937674 146.423147 
L 377.899429 78.120875 
L 378.059722 176.357758 
L 378.220015 186.448649 
L 378.5406 142.945377 
L 378.700892 136.745047 
L 378.861185 148.035861 
L 379.18177 206.981503 
L 379.822941 337.994095 
L 380.143526 373.632605 
L 380.464111 389.257975 
L 380.624404 391.740451 
L 380.784697 391.946485 
L 381.105282 388.983669 
L 381.425867 386.10199 
L 381.58616 385.887047 
L 381.746452 386.833052 
L 382.067038 392.393794 
L 382.547915 407.579695 
L 383.189086 427.275915 
L 383.509671 430.917857 
L 383.669964 430.409682 
L 383.830256 428.23637 
L 384.150842 418.983226 
L 384.63172 394.695633 
L 386.555231 278.165251 
L 387.036109 263.869961 
L 387.356694 258.64791 
L 387.677279 256.510657 
L 387.837572 256.472136 
L 387.997865 257.047206 
L 388.31845 259.813611 
L 388.799328 267.177037 
L 389.600791 284.65107 
L 391.524302 328.87243 
L 392.486058 345.48743 
L 393.447814 358.229001 
L 394.40957 368.01282 
L 395.371325 375.531753 
L 396.333081 381.230785 
L 397.294837 385.453196 
L 398.0963 388.071833 
L 398.897763 390.055106 
L 399.859519 391.808624 
L 400.821275 393.075899 
L 401.78303 394.006791 
L 402.905079 394.796281 
L 404.18742 395.423304 
L 405.630053 395.887079 
L 407.553565 396.254789 
L 410.27854 396.515055 
L 413.644685 396.64639 
L 413.804977 209.973405 
L 413.96527 157.848782 
L 414.285855 143.164379 
L 414.766733 127.951921 
L 414.927026 126.834813 
L 415.087318 129.094402 
L 415.407904 141.956006 
L 416.209367 182.05843 
L 416.369659 185.378169 
L 416.529952 186.225772 
L 416.690245 184.58181 
L 417.01083 174.423521 
L 417.491708 146.427946 
L 418.453463 78.123633 
L 418.613756 176.360377 
L 418.774049 186.45114 
L 419.094634 142.947628 
L 419.254927 136.747191 
L 419.415219 148.037907 
L 419.735804 206.98337 
L 420.376975 337.995633 
L 420.69756 373.63399 
L 421.018145 389.259222 
L 421.178438 391.741635 
L 421.338731 391.947611 
L 421.659316 388.984697 
L 421.979901 386.102939 
L 422.140194 385.887964 
L 422.300486 386.83394 
L 422.621072 392.394636 
L 423.10195 407.580484 
L 423.74312 427.276645 
L 424.063705 430.918555 
L 424.223998 430.410363 
L 424.384291 428.237034 
L 424.704876 418.983854 
L 425.185754 394.696202 
L 427.109265 278.165591 
L 427.590143 263.870254 
L 427.910728 258.648175 
L 428.231314 256.510896 
L 428.391606 256.472363 
L 428.551899 257.047422 
L 428.872484 259.813806 
L 429.353362 267.177203 
L 430.154825 284.651199 
L 432.078337 328.872502 
L 433.040092 345.487484 
L 434.001848 358.229041 
L 434.963604 368.01285 
L 435.92536 375.531775 
L 436.887115 381.230802 
L 437.848871 385.453209 
L 438.650334 388.071842 
L 439.451797 390.055114 
L 440.413553 391.808629 
L 441.375309 393.075903 
L 442.337065 394.006794 
L 443.459113 394.796284 
L 444.741454 395.423305 
L 446.184088 395.88708 
L 448.107599 396.254789 
L 450.832574 396.515055 
L 453.557548 396.630526 
L 453.717841 209.958692 
L 453.878134 157.835201 
L 454.198719 143.152867 
L 454.679597 127.942959 
L 454.839889 126.826568 
L 455.000182 129.086815 
L 455.320767 141.94958 
L 456.12223 182.05418 
L 456.282523 185.374256 
L 456.442816 186.222169 
L 456.603108 184.578495 
L 456.923693 174.420717 
L 457.404571 146.425781 
L 458.366327 78.122389 
L 458.52662 176.359195 
L 458.686912 186.450016 
L 459.007498 142.946613 
L 459.16779 136.746224 
L 459.328083 148.036984 
L 459.648668 206.982528 
L 460.289839 337.994939 
L 460.610424 373.633366 
L 460.931009 389.25866 
L 461.091302 391.741101 
L 461.251594 391.947103 
L 461.57218 388.984234 
L 461.892765 386.102511 
L 462.053057 385.887551 
L 462.21335 386.83354 
L 462.533935 392.394257 
L 463.014813 407.580128 
L 463.655984 427.276316 
L 463.976569 430.91824 
L 464.136862 430.410056 
L 464.297154 428.236734 
L 464.617739 418.98357 
L 465.098617 394.695946 
L 467.022129 278.165438 
L 467.503007 263.870122 
L 467.823592 258.648056 
L 468.144177 256.510788 
L 468.30447 256.472261 
L 468.464762 257.047325 
L 468.785348 259.813718 
L 469.266226 267.177128 
L 470.067689 284.651141 
L 471.9912 328.87247 
L 472.952956 345.48746 
L 473.914712 358.229023 
L 474.876467 368.012837 
L 475.838223 375.531765 
L 476.799979 381.230794 
L 477.761735 385.453203 
L 478.563198 388.071838 
L 479.364661 390.05511 
L 480.326417 391.808627 
L 481.288172 393.075901 
L 482.249928 394.006793 
L 483.371977 394.796283 
L 484.654318 395.423304 
L 486.096951 395.887079 
L 488.020463 396.254789 
L 490.745437 396.515055 
L 493.630705 396.634789 
L 493.790997 209.962646 
L 493.95129 157.838851 
L 494.271875 143.155962 
L 494.752753 127.945368 
L 494.913046 126.828785 
L 495.073338 129.088855 
L 495.393923 141.951307 
L 496.195387 182.055322 
L 496.355679 185.375308 
L 496.515972 186.223137 
L 496.676264 184.579386 
L 496.99685 174.421471 
L 497.477728 146.426362 
L 498.439483 78.122723 
L 498.599776 176.359513 
L 498.760069 186.450318 
L 499.080654 142.946885 
L 499.240946 136.746484 
L 499.401239 148.037232 
L 499.721824 206.982754 
L 500.362995 337.995126 
L 500.68358 373.633534 
L 501.004165 389.258811 
L 501.164458 391.741244 
L 501.324751 391.94724 
L 501.645336 388.984358 
L 501.965921 386.102626 
L 502.126214 385.887662 
L 502.286506 386.833647 
L 502.607092 392.394359 
L 503.087969 407.580224 
L 503.72914 427.276404 
L 504.049725 430.918325 
L 504.210018 430.410139 
L 504.37031 428.236815 
L 504.690896 418.983647 
L 505.171774 394.696015 
L 507.095285 278.165479 
L 507.576163 263.870157 
L 507.896748 258.648088 
L 508.217333 256.510817 
L 508.377626 256.472288 
L 508.537919 257.047351 
L 508.858504 259.813742 
L 509.339382 267.177148 
L 510.140845 284.651156 
L 512.064356 328.872478 
L 513.026112 345.487466 
L 513.987868 358.229028 
L 514.949624 368.01284 
L 515.911379 375.531768 
L 516.873135 381.230796 
L 517.834891 385.453205 
L 518.636354 388.071839 
L 519.437817 390.055111 
L 520.399573 391.808627 
L 521.361329 393.075901 
L 522.323084 394.006793 
L 523.445133 394.796283 
L 524.727474 395.423305 
L 526.170107 395.887079 
L 528.093619 396.254789 
L 530.818594 396.515055 
L 533.864153 396.638848 
L 534.024446 209.966411 
L 534.184739 157.842326 
L 534.505324 143.158907 
L 534.986202 127.947661 
L 535.146494 126.830894 
L 535.306787 129.090796 
L 535.627372 141.952952 
L 536.428835 182.05641 
L 536.589128 185.376309 
L 536.749421 186.224059 
L 536.909713 184.580234 
L 537.230299 174.422188 
L 537.711176 146.426916 
L 538.672932 78.123041 
L 538.833225 176.359815 
L 538.993517 186.450606 
L 539.314103 142.947145 
L 539.474395 136.746732 
L 539.634688 148.037468 
L 539.955273 206.982969 
L 540.596444 337.995303 
L 540.917029 373.633693 
L 541.237614 389.258955 
L 541.397907 391.741381 
L 541.558199 391.94737 
L 541.878785 388.984477 
L 542.19937 386.102736 
L 542.359663 385.887768 
L 542.519955 386.83375 
L 542.84054 392.394456 
L 543.321418 407.580315 
L 543.962589 427.276488 
L 544.283174 430.918405 
L 544.443467 430.410217 
L 544.603759 428.236891 
L 544.924345 418.983719 
L 545.405222 394.69608 
L 547.328734 278.165518 
L 547.809612 263.870191 
L 548.130197 258.648118 
L 548.450782 256.510845 
L 548.611075 256.472315 
L 548.771368 257.047376 
L 549.091953 259.813764 
L 549.572831 267.177168 
L 550.374294 284.651171 
L 552.297805 328.872487 
L 553.259561 345.487473 
L 554.221317 358.229033 
L 555.183073 368.012844 
L 556.144828 375.53177 
L 557.106584 381.230798 
L 558.06834 385.453206 
L 558.869803 388.07184 
L 559.671266 390.055112 
L 560.633022 391.808628 
L 561.594778 393.075902 
L 562.556533 394.006794 
L 563.678582 394.796283 
L 564.960923 395.423305 
L 566.403556 395.887079 
L 568.327068 396.254789 
L 571.052042 396.515055 
L 574.257895 396.642712 
L 574.418188 209.969994 
L 574.57848 157.845634 
L 574.899065 143.161711 
L 575.379943 127.949844 
L 575.540236 126.832902 
L 575.700529 129.092644 
L 576.021114 141.954517 
L 576.822577 182.057445 
L 576.98287 185.377262 
L 577.143162 186.224936 
L 577.303455 184.581042 
L 577.62404 174.422871 
L 578.104918 146.427443 
L 579.066674 78.123345 
L 579.226966 176.360103 
L 579.387259 186.450879 
L 579.707844 142.947393 
L 579.868137 136.746967 
L 580.028429 148.037693 
L 580.349015 206.983174 
L 580.990185 337.995472 
L 581.31077 373.633845 
L 581.631356 389.259091 
L 581.791648 391.741511 
L 581.951941 391.947494 
L 582.272526 388.98459 
L 582.593111 386.10284 
L 582.753404 385.887868 
L 582.913697 386.833847 
L 583.234282 392.394548 
L 583.71516 407.580402 
L 584.35633 427.276568 
L 584.676916 430.918482 
L 584.837208 430.410292 
L 584.997501 428.236964 
L 585.318086 418.983788 
L 585.798964 394.696143 
L 587.722475 278.165556 
L 588.203353 263.870223 
L 588.523939 258.648148 
L 588.844524 256.510871 
L 589.004816 256.47234 
L 589.165109 257.0474 
L 589.485694 259.813785 
L 589.966572 267.177186 
L 590.768035 284.651185 
L 592.691547 328.872495 
L 593.653303 345.487479 
L 594.615058 358.229037 
L 595.576814 368.012847 
L 596.53857 375.531773 
L 597.500326 381.2308 
L 598.462081 385.453207 
L 599.263544 388.071841 
L 600.065008 390.055113 
L 601.026763 391.808629 
L 601.988519 393.075902 
L 602.950275 394.006794 
L 604.072323 394.796283 
L 605.354664 395.423305 
L 606.797298 395.887079 
L 608.720809 396.254789 
L 611.445784 396.515055 
L 613.209003 396.600051 
L 613.369295 209.930417 
L 613.529588 157.809091 
L 613.850173 143.130722 
L 614.331051 127.925709 
L 614.491344 126.810695 
L 614.651636 129.072208 
L 614.972222 141.937209 
L 615.773685 182.046006 
L 615.933977 185.366732 
L 616.09427 186.215244 
L 616.254563 184.572124 
L 616.575148 174.415332 
L 617.056026 146.421623 
L 618.017782 78.12 
L 618.178074 176.356926 
L 618.338367 186.447859 
L 618.658952 142.944662 
L 618.819245 136.744366 
L 618.979537 148.035211 
L 619.300123 206.98091 
L 619.941293 337.993606 
L 620.261878 373.632164 
L 620.582464 389.257579 
L 620.742756 391.740074 
L 620.903049 391.946127 
L 621.223634 388.983343 
L 621.544219 386.101688 
L 621.704512 385.886756 
L 621.864805 386.832769 
L 622.18539 392.393526 
L 622.666268 407.579444 
L 623.307438 427.275684 
L 623.628023 430.917635 
L 623.788316 430.409465 
L 623.948609 428.236158 
L 624.269194 418.983026 
L 624.750072 394.695452 
L 626.673583 278.165143 
L 627.154461 263.869867 
L 627.475046 258.647826 
L 627.795632 256.51058 
L 627.955924 256.472064 
L 628.116217 257.047138 
L 628.436802 259.813549 
L 628.91768 267.176984 
L 629.719143 284.651029 
L 631.642655 328.872407 
L 632.60441 345.487413 
L 633.566166 358.228988 
L 634.527922 368.012811 
L 635.489678 375.531746 
L 636.451433 381.23078 
L 637.413189 385.453193 
L 638.214652 388.07183 
L 639.016115 390.055104 
L 639.977871 391.808622 
L 640.939627 393.075897 
L 641.901383 394.00679 
L 643.023431 394.796281 
L 644.305772 395.423303 
L 645.748406 395.887078 
L 647.671917 396.254788 
L 650.396892 396.515055 
L 653.92333 396.64989 
L 654.083622 209.976651 
L 654.243915 157.851778 
L 654.5645 143.166918 
L 655.045378 127.953898 
L 655.205671 126.836632 
L 655.365963 129.096076 
L 655.686548 141.957424 
L 656.488012 182.059368 
L 656.648304 185.379033 
L 656.808597 186.226567 
L 656.968889 184.582543 
L 657.289475 174.42414 
L 657.770353 146.428424 
L 658.732108 78.123908 
L 658.892401 176.360638 
L 659.052694 186.451388 
L 659.373279 142.947853 
L 659.533571 136.747405 
L 659.693864 148.03811 
L 660.014449 206.983555 
L 660.65562 337.995786 
L 660.976205 373.634128 
L 661.29679 389.259346 
L 661.457083 391.741752 
L 661.617376 391.947723 
L 661.937961 388.984799 
L 662.258546 386.103034 
L 662.418839 385.888055 
L 662.579131 386.834029 
L 662.899717 392.39472 
L 663.380594 407.580563 
L 664.021765 427.276717 
L 664.34235 430.918624 
L 664.502643 430.410431 
L 664.662935 428.2371 
L 664.983521 418.983916 
L 665.464399 394.696259 
L 667.38791 278.165625 
L 667.868788 263.870283 
L 668.189373 258.648202 
L 668.509958 256.51092 
L 668.670251 256.472386 
L 668.830544 257.047444 
L 669.151129 259.813825 
L 669.632007 267.17722 
L 670.43347 284.651212 
L 672.356981 328.872509 
L 673.318737 345.48749 
L 674.280493 358.229045 
L 675.242249 368.012853 
L 676.204004 375.531777 
L 677.16576 381.230803 
L 678.127516 385.45321 
L 678.928979 388.071843 
L 679.730442 390.055114 
L 680.692198 391.80863 
L 681.653954 393.075903 
L 682.615709 394.006795 
L 683.737758 394.796284 
L 685.020099 395.423305 
L 686.462732 395.88708 
L 688.386244 396.254789 
L 691.111219 396.515055 
L 694.156778 396.638848 
L 694.317071 209.966411 
L 694.477364 157.842326 
L 694.797949 143.158907 
L 695.278827 127.947661 
L 695.439119 126.830894 
L 695.599412 129.090796 
L 695.919997 141.952952 
L 696.72146 182.05641 
L 696.881753 185.376309 
L 697.042046 186.224059 
L 697.202338 184.580234 
L 697.522924 174.422188 
L 698.003801 146.426916 
L 698.965557 78.123041 
L 699.12585 176.359815 
L 699.286142 186.450606 
L 699.606728 142.947145 
L 699.76702 136.746732 
L 699.927313 148.037468 
L 700.247898 206.982969 
L 700.889069 337.995303 
L 701.209654 373.633693 
L 701.530239 389.258955 
L 701.690532 391.741381 
L 701.850824 391.94737 
L 702.17141 388.984477 
L 702.491995 386.102736 
L 702.652288 385.887768 
L 702.81258 386.83375 
L 703.133165 392.394456 
L 703.614043 407.580315 
L 704.255214 427.276488 
L 704.575799 430.918405 
L 704.736092 430.410217 
L 704.896384 428.236891 
L 705.21697 418.983719 
L 705.697847 394.69608 
L 707.621359 278.165518 
L 708.102237 263.870191 
L 708.422822 258.648118 
L 708.743407 256.510845 
L 708.9037 256.472315 
L 709.063993 257.047376 
L 709.384578 259.813764 
L 709.865456 267.177168 
L 710.666919 284.651171 
L 712.59043 328.872487 
L 713.552186 345.487473 
L 714.513942 358.229033 
L 715.475698 368.012844 
L 716.437453 375.53177 
L 717.399209 381.230798 
L 718.360965 385.453206 
L 719.162428 388.07184 
L 719.963891 390.055112 
L 720.925647 391.808628 
L 721.887403 393.075902 
L 722.849158 394.006794 
L 723.971207 394.796283 
L 725.253548 395.423305 
L 726.696181 395.887079 
L 728.619693 396.254789 
L 731.344667 396.515055 
L 734.069642 396.630526 
L 734.229935 209.958692 
L 734.390227 157.835201 
L 734.710813 143.152867 
L 735.19169 127.942959 
L 735.351983 126.826568 
L 735.512276 129.086815 
L 735.832861 141.94958 
L 736.634324 182.05418 
L 736.794617 185.374256 
L 736.954909 186.222169 
L 737.115202 184.578495 
L 737.435787 174.420717 
L 737.916665 146.425781 
L 738.878421 78.122389 
L 739.038713 176.359195 
L 739.199006 186.450016 
L 739.519591 142.946613 
L 739.679884 136.746224 
L 739.840177 148.036984 
L 740.160762 206.982528 
L 740.801932 337.994939 
L 741.122518 373.633366 
L 741.443103 389.25866 
L 741.603395 391.741101 
L 741.763688 391.947103 
L 742.084273 388.984234 
L 742.404859 386.102511 
L 742.565151 385.887551 
L 742.725444 386.83354 
L 743.046029 392.394257 
L 743.526907 407.580128 
L 744.168077 427.276316 
L 744.488663 430.91824 
L 744.648955 430.410056 
L 744.809248 428.236734 
L 745.129833 418.98357 
L 745.610711 394.695946 
L 747.534223 278.165438 
L 748.0151 263.870122 
L 748.335686 258.648056 
L 748.656271 256.510788 
L 748.816564 256.472261 
L 748.976856 257.047325 
L 749.297441 259.813718 
L 749.778319 267.177128 
L 750.579782 284.651141 
L 752.503294 328.87247 
L 753.46505 345.48746 
L 754.426805 358.229023 
L 755.388561 368.012837 
L 756.350317 375.531765 
L 757.312073 381.230794 
L 758.273828 385.453203 
L 759.075292 388.071838 
L 759.876755 390.05511 
L 760.83851 391.808627 
L 761.800266 393.075901 
L 762.762022 394.006793 
L 763.88407 394.796283 
L 765.166411 395.423304 
L 766.609045 395.887079 
L 768.532556 396.254789 
L 771.257531 396.515055 
L 773.822213 396.626047 
L 773.982506 209.954538 
L 774.142798 157.831366 
L 774.463384 143.149616 
L 774.944261 127.940428 
L 775.104554 126.824239 
L 775.264847 129.084671 
L 775.585432 141.947764 
L 776.386895 182.05298 
L 776.547188 185.373152 
L 776.70748 186.221153 
L 776.867773 184.57756 
L 777.188358 174.419926 
L 777.669236 146.42517 
L 778.630992 78.122038 
L 778.791284 176.358862 
L 778.951577 186.449699 
L 779.272162 142.946326 
L 779.432455 136.745951 
L 779.592748 148.036723 
L 779.913333 206.98229 
L 780.554503 337.994744 
L 780.875089 373.633189 
L 781.195674 389.258501 
L 781.355966 391.74095 
L 781.516259 391.94696 
L 781.836844 388.984103 
L 782.15743 386.10239 
L 782.317722 385.887434 
L 782.478015 386.833426 
L 782.7986 392.394149 
L 783.279478 407.580028 
L 783.920648 427.276223 
L 784.241234 430.918151 
L 784.401526 430.409969 
L 784.561819 428.23665 
L 784.882404 418.983491 
L 785.363282 394.695873 
L 787.286794 278.165395 
L 787.767671 263.870084 
L 788.088257 258.648022 
L 788.408842 256.510758 
L 788.569135 256.472232 
L 788.729427 257.047297 
L 789.050012 259.813693 
L 789.53089 267.177107 
L 790.332353 284.651124 
L 792.255865 328.87246 
L 793.217621 345.487453 
L 794.179376 358.229018 
L 795.141132 368.012833 
L 796.102888 375.531762 
L 797.064644 381.230792 
L 798.026399 385.453202 
L 798.827863 388.071837 
L 799.629326 390.055109 
L 800.591081 391.808626 
L 801.552837 393.0759 
L 802.514593 394.006793 
L 803.636641 394.796282 
L 804.918982 395.423304 
L 806.361616 395.887079 
L 808.285127 396.254789 
L 811.010102 396.515055 
L 813.414491 396.621344 
L 813.574784 209.950174 
L 813.735077 157.827337 
L 814.055662 143.1462 
L 814.53654 127.937767 
L 814.696832 126.821791 
L 814.857125 129.082419 
L 815.17771 141.945857 
L 815.979173 182.05172 
L 816.139466 185.371991 
L 816.299759 186.220085 
L 816.460051 184.576577 
L 816.780637 174.419096 
L 817.261514 146.424528 
L 818.22327 78.121669 
L 818.383563 176.358512 
L 818.543855 186.449366 
L 818.864441 142.946025 
L 819.024733 136.745664 
L 819.185026 148.03645 
L 819.505611 206.982041 
L 820.146782 337.994538 
L 820.467367 373.633004 
L 820.787952 389.258334 
L 820.948245 391.740792 
L 821.108537 391.946809 
L 821.429123 388.983965 
L 821.749708 386.102263 
L 821.910001 385.887311 
L 822.070293 386.833308 
L 822.390878 392.394037 
L 822.871756 407.579922 
L 823.512927 427.276125 
L 823.833512 430.918058 
L 823.993805 430.409878 
L 824.154097 428.236561 
L 824.474683 418.983407 
L 824.95556 394.695797 
L 826.879072 278.165349 
L 827.35995 263.870045 
L 827.680535 258.647986 
L 828.00112 256.510725 
L 828.161413 256.472201 
L 828.321706 257.047269 
L 828.642291 259.813667 
L 829.123169 267.177085 
L 829.924632 284.651107 
L 831.848143 328.872451 
L 832.809899 345.487446 
L 833.771655 358.229012 
L 834.733411 368.012829 
L 835.695166 375.531759 
L 836.656922 381.23079 
L 837.618678 385.4532 
L 838.420141 388.071836 
L 839.221604 390.055108 
L 840.18336 391.808625 
L 841.145116 393.0759 
L 842.106871 394.006792 
L 843.22892 394.796282 
L 844.511261 395.423304 
L 845.953894 395.887079 
L 847.877406 396.254789 
L 850.60238 396.515055 
L 854.609696 396.659413 
L 854.769989 209.985481 
L 854.930281 157.859928 
L 855.250867 143.173825 
L 855.731744 127.959275 
L 855.892037 126.84158 
L 856.05233 129.10063 
L 856.372915 141.961283 
L 857.174378 182.061923 
L 857.334671 185.381385 
L 857.494963 186.228733 
L 857.655256 184.584536 
L 857.975841 174.425826 
L 858.456719 146.429727 
L 859.418475 78.124657 
L 859.578767 176.361349 
L 859.73906 186.452064 
L 860.059645 142.948463 
L 860.219938 136.747986 
L 860.380231 148.038665 
L 860.700816 206.984061 
L 861.341986 337.996203 
L 861.662572 373.634503 
L 861.983157 389.259683 
L 862.143449 391.742073 
L 862.303742 391.948028 
L 862.624327 388.985077 
L 862.944913 386.10329 
L 863.105205 385.888304 
L 863.265498 386.834269 
L 863.586083 392.394948 
L 864.066961 407.580776 
L 864.708131 427.276915 
L 865.028717 430.918813 
L 865.189009 430.410616 
L 865.349302 428.23728 
L 865.669887 418.984086 
L 866.150765 394.696413 
L 868.074277 278.165717 
L 868.555154 263.870363 
L 868.87574 258.648273 
L 869.196325 256.510985 
L 869.356618 256.472448 
L 869.51691 257.047502 
L 869.837495 259.813878 
L 870.318373 267.177265 
L 871.119836 284.651247 
L 873.043348 328.872529 
L 874.005104 345.487504 
L 874.966859 358.229056 
L 875.928615 368.012862 
L 876.890371 375.531783 
L 877.852127 381.230808 
L 878.813882 385.453213 
L 879.615346 388.071846 
L 880.416809 390.055116 
L 881.378564 391.808631 
L 882.34032 393.075904 
L 883.302076 394.006796 
L 884.424124 394.796284 
L 885.706465 395.423306 
L 887.149099 395.88708 
L 889.07261 396.254789 
L 891.797585 396.515055 
L 894.362267 396.626047 
L 894.52256 209.954538 
L 894.682852 157.831366 
L 895.003438 143.149616 
L 895.484315 127.940428 
L 895.644608 126.824239 
L 895.804901 129.084671 
L 896.125486 141.947764 
L 896.926949 182.05298 
L 897.087242 185.373152 
L 897.247534 186.221153 
L 897.407827 184.57756 
L 897.728412 174.419926 
L 898.20929 146.42517 
L 899.171046 78.122038 
L 899.331338 176.358862 
L 899.491631 186.449699 
L 899.812216 142.946326 
L 899.972509 136.745951 
L 900.132802 148.036723 
L 900.453387 206.98229 
L 901.094557 337.994744 
L 901.415143 373.633189 
L 901.735728 389.258501 
L 901.89602 391.74095 
L 902.056313 391.94696 
L 902.376898 388.984103 
L 902.697484 386.10239 
L 902.857776 385.887434 
L 903.018069 386.833426 
L 903.338654 392.394149 
L 903.819532 407.580028 
L 904.460702 427.276223 
L 904.781288 430.918151 
L 904.94158 430.409969 
L 905.101873 428.23665 
L 905.422458 418.983491 
L 905.903336 394.695873 
L 907.826848 278.165395 
L 908.307725 263.870084 
L 908.628311 258.648022 
L 908.948896 256.510758 
L 909.109189 256.472232 
L 909.269481 257.047297 
L 909.590066 259.813693 
L 910.070944 267.177107 
L 910.872407 284.651124 
L 912.795919 328.87246 
L 913.757675 345.487453 
L 914.71943 358.229018 
L 915.681186 368.012833 
L 916.642942 375.531762 
L 917.604698 381.230792 
L 918.566453 385.453202 
L 919.367917 388.071837 
L 920.16938 390.055109 
L 921.131135 391.808626 
L 922.092891 393.0759 
L 923.054647 394.006793 
L 924.176695 394.796282 
L 925.459036 395.423304 
L 926.90167 395.887079 
L 928.825181 396.254789 
L 931.550156 396.515055 
L 933.794253 396.616404 
L 933.954545 209.945591 
L 933.954545 209.945591 
" clip-path="url(#pd5938563db)" style="fill: none; stroke: #1f77b4; stroke-width: 1.5; stroke-linecap: square"/>
   </g>
   <g id="line2d_14">
    <path d="M 173.045455 121.869472 
L 177.693941 121.869472 
L 177.854233 396.719198 
L 213.278903 396.719198 
L 213.439196 121.869472 
L 218.087682 121.869472 
L 218.247975 396.719198 
L 253.99323 396.719198 
L 254.153523 121.869472 
L 258.802009 121.869472 
L 258.962302 396.719198 
L 293.585509 396.719198 
L 293.745801 121.869472 
L 298.394287 121.869472 
L 298.55458 396.719198 
L 333.818957 396.719198 
L 333.97925 121.869472 
L 338.627736 121.869472 
L 338.788029 396.719198 
L 373.090651 396.719198 
L 373.250943 121.869472 
L 377.899429 121.869472 
L 378.059722 396.719198 
L 413.644685 396.719198 
L 413.804977 121.869472 
L 418.453463 121.869472 
L 418.613756 396.719198 
L 453.557548 396.719198 
L 453.717841 121.869472 
L 458.366327 121.869472 
L 458.52662 396.719198 
L 493.630705 396.719198 
L 493.790997 121.869472 
L 498.439483 121.869472 
L 498.599776 396.719198 
L 533.864153 396.719198 
L 534.024446 121.869472 
L 538.672932 121.869472 
L 538.833225 396.719198 
L 574.257895 396.719198 
L 574.418188 121.869472 
L 579.066674 121.869472 
L 579.226966 396.719198 
L 613.209003 396.719198 
L 613.369295 121.869472 
L 618.017782 121.869472 
L 618.178074 396.719198 
L 653.92333 396.719198 
L 654.083622 121.869472 
L 658.732108 121.869472 
L 658.892401 396.719198 
L 694.156778 396.719198 
L 694.317071 121.869472 
L 698.965557 121.869472 
L 699.12585 396.719198 
L 734.069642 396.719198 
L 734.229935 121.869472 
L 738.878421 121.869472 
L 739.038713 396.719198 
L 773.822213 396.719198 
L 773.982506 121.869472 
L 778.630992 121.869472 
L 778.791284 396.719198 
L 813.414491 396.719198 
L 813.574784 121.869472 
L 818.22327 121.869472 
L 818.383563 396.719198 
L 854.609696 396.719198 
L 854.769989 121.869472 
L 859.418475 121.869472 
L 859.578767 396.719198 
L 894.362267 396.719198 
L 894.52256 121.869472 
L 899.171046 121.869472 
L 899.331338 396.719198 
L 933.794253 396.719198 
L 933.954545 121.869472 
L 933.954545 121.869472 
" clip-path="url(#pd5938563db)" style="fill: none; stroke: #ff7f0e; stroke-width: 1.5; stroke-linecap: square"/>
   </g>
   <g id="line2d_15">
    <path d="M 929.466352 396.719198 
" clip-path="url(#pd5938563db)" style="fill: none; stroke: #000000; stroke-width: 1.5; stroke-linecap: square"/>
    <defs>
     <path id="m3b2e394e59" d="M 0 1 
C 0.265203 1 0.51958 0.894634 0.707107 0.707107 
C 0.894634 0.51958 1 0.265203 1 0 
C 1 -0.265203 0.894634 -0.51958 0.707107 -0.707107 
C 0.51958 -0.894634 0.265203 -1 0 -1 
C -0.265203 -1 -0.51958 -0.894634 -0.707107 -0.707107 
C -0.894634 -0.51958 -1 -0.265203 -1 0 
C -1 0.265203 -0.894634 0.51958 -0.707107 0.707107 
C -0.51958 0.894634 -0.265203 1 0 1 
z
" style="stroke: #000000"/>
    </defs>
    <g clip-path="url(#pd5938563db)">
     <use xlink:href="#m3b2e394e59" x="173.045455" y="121.869472" style="stroke: #000000"/>
     <use xlink:href="#m3b2e394e59" x="178.174819" y="396.719198" style="stroke: #000000"/>
     <use xlink:href="#m3b2e394e59" x="183.14389" y="396.719198" style="stroke: #000000"/>
     <use xlink:href="#m3b2e394e59" x="188.112961" y="121.869472" style="stroke: #000000"/>
     <use xlink:href="#m3b2e394e59" x="193.082033" y="396.719198" style="stroke: #000000"/>
     <use xlink:href="#m3b2e394e59" x="198.211397" y="396.719198" style="stroke: #000000"/>
     <use xlink:href="#m3b2e394e59" x="203.180468" y="121.869472" style="stroke: #000000"/>
     <use xlink:href="#m3b2e394e59" x="208.149539" y="396.719198" style="stroke: #000000"/>
     <use xlink:href="#m3b2e394e59" x="213.118611" y="121.869472" style="stroke: #000000"/>
     <use xlink:href="#m3b2e394e59" x="218.247975" y="396.719198" style="stroke: #000000"/>
     <use xlink:href="#m3b2e394e59" x="223.217046" y="396.719198" style="stroke: #000000"/>
     <use xlink:href="#m3b2e394e59" x="228.186118" y="121.869472" style="stroke: #000000"/>
     <use xlink:href="#m3b2e394e59" x="233.155189" y="396.719198" style="stroke: #000000"/>
     <use xlink:href="#m3b2e394e59" x="238.284553" y="396.719198" style="stroke: #000000"/>
     <use xlink:href="#m3b2e394e59" x="243.253624" y="121.869472" style="stroke: #000000"/>
     <use xlink:href="#m3b2e394e59" x="248.222696" y="396.719198" style="stroke: #000000"/>
     <use xlink:href="#m3b2e394e59" x="253.191767" y="121.869472" style="stroke: #000000"/>
     <use xlink:href="#m3b2e394e59" x="258.321131" y="396.719198" style="stroke: #000000"/>
     <use xlink:href="#m3b2e394e59" x="263.290202" y="396.719198" style="stroke: #000000"/>
     <use xlink:href="#m3b2e394e59" x="268.259274" y="121.869472" style="stroke: #000000"/>
     <use xlink:href="#m3b2e394e59" x="273.228345" y="396.719198" style="stroke: #000000"/>
     <use xlink:href="#m3b2e394e59" x="278.357709" y="396.719198" style="stroke: #000000"/>
     <use xlink:href="#m3b2e394e59" x="283.326781" y="121.869472" style="stroke: #000000"/>
     <use xlink:href="#m3b2e394e59" x="288.295852" y="396.719198" style="stroke: #000000"/>
     <use xlink:href="#m3b2e394e59" x="293.264923" y="121.869472" style="stroke: #000000"/>
     <use xlink:href="#m3b2e394e59" x="298.394287" y="396.719198" style="stroke: #000000"/>
     <use xlink:href="#m3b2e394e59" x="303.363359" y="396.719198" style="stroke: #000000"/>
     <use xlink:href="#m3b2e394e59" x="308.33243" y="121.869472" style="stroke: #000000"/>
     <use xlink:href="#m3b2e394e59" x="313.301501" y="396.719198" style="stroke: #000000"/>
     <use xlink:href="#m3b2e394e59" x="318.430865" y="396.719198" style="stroke: #000000"/>
     <use xlink:href="#m3b2e394e59" x="323.399937" y="121.869472" style="stroke: #000000"/>
     <use xlink:href="#m3b2e394e59" x="328.369008" y="396.719198" style="stroke: #000000"/>
     <use xlink:href="#m3b2e394e59" x="333.33808" y="121.869472" style="stroke: #000000"/>
     <use xlink:href="#m3b2e394e59" x="338.467444" y="396.719198" style="stroke: #000000"/>
     <use xlink:href="#m3b2e394e59" x="343.436515" y="396.719198" style="stroke: #000000"/>
     <use xlink:href="#m3b2e394e59" x="348.405586" y="121.869472" style="stroke: #000000"/>
     <use xlink:href="#m3b2e394e59" x="353.374658" y="396.719198" style="stroke: #000000"/>
     <use xlink:href="#m3b2e394e59" x="358.504022" y="396.719198" style="stroke: #000000"/>
     <use xlink:href="#m3b2e394e59" x="363.473093" y="121.869472" style="stroke: #000000"/>
     <use xlink:href="#m3b2e394e59" x="368.442164" y="396.719198" style="stroke: #000000"/>
     <use xlink:href="#m3b2e394e59" x="373.411236" y="121.869472" style="stroke: #000000"/>
     <use xlink:href="#m3b2e394e59" x="378.5406" y="396.719198" style="stroke: #000000"/>
     <use xlink:href="#m3b2e394e59" x="383.509671" y="396.719198" style="stroke: #000000"/>
     <use xlink:href="#m3b2e394e59" x="388.478743" y="121.869472" style="stroke: #000000"/>
     <use xlink:href="#m3b2e394e59" x="393.447814" y="396.719198" style="stroke: #000000"/>
     <use xlink:href="#m3b2e394e59" x="398.577178" y="396.719198" style="stroke: #000000"/>
     <use xlink:href="#m3b2e394e59" x="403.546249" y="121.869472" style="stroke: #000000"/>
     <use xlink:href="#m3b2e394e59" x="408.515321" y="396.719198" style="stroke: #000000"/>
     <use xlink:href="#m3b2e394e59" x="413.484392" y="121.869472" style="stroke: #000000"/>
     <use xlink:href="#m3b2e394e59" x="418.613756" y="396.719198" style="stroke: #000000"/>
     <use xlink:href="#m3b2e394e59" x="423.582827" y="396.719198" style="stroke: #000000"/>
     <use xlink:href="#m3b2e394e59" x="428.551899" y="121.869472" style="stroke: #000000"/>
     <use xlink:href="#m3b2e394e59" x="433.52097" y="396.719198" style="stroke: #000000"/>
     <use xlink:href="#m3b2e394e59" x="438.650334" y="396.719198" style="stroke: #000000"/>
     <use xlink:href="#m3b2e394e59" x="443.619406" y="121.869472" style="stroke: #000000"/>
     <use xlink:href="#m3b2e394e59" x="448.588477" y="396.719198" style="stroke: #000000"/>
     <use xlink:href="#m3b2e394e59" x="453.557548" y="121.869472" style="stroke: #000000"/>
     <use xlink:href="#m3b2e394e59" x="458.686912" y="396.719198" style="stroke: #000000"/>
     <use xlink:href="#m3b2e394e59" x="463.655984" y="396.719198" style="stroke: #000000"/>
     <use xlink:href="#m3b2e394e59" x="468.625055" y="121.869472" style="stroke: #000000"/>
     <use xlink:href="#m3b2e394e59" x="473.594126" y="396.719198" style="stroke: #000000"/>
     <use xlink:href="#m3b2e394e59" x="478.72349" y="396.719198" style="stroke: #000000"/>
     <use xlink:href="#m3b2e394e59" x="483.692562" y="121.869472" style="stroke: #000000"/>
     <use xlink:href="#m3b2e394e59" x="488.661633" y="396.719198" style="stroke: #000000"/>
     <use xlink:href="#m3b2e394e59" x="493.630705" y="121.869472" style="stroke: #000000"/>
     <use xlink:href="#m3b2e394e59" x="498.760069" y="396.719198" style="stroke: #000000"/>
     <use xlink:href="#m3b2e394e59" x="503.72914" y="396.719198" style="stroke: #000000"/>
     <use xlink:href="#m3b2e394e59" x="508.698211" y="121.869472" style="stroke: #000000"/>
     <use xlink:href="#m3b2e394e59" x="513.667283" y="396.719198" style="stroke: #000000"/>
     <use xlink:href="#m3b2e394e59" x="518.796647" y="396.719198" style="stroke: #000000"/>
     <use xlink:href="#m3b2e394e59" x="523.765718" y="121.869472" style="stroke: #000000"/>
     <use xlink:href="#m3b2e394e59" x="528.734789" y="396.719198" style="stroke: #000000"/>
     <use xlink:href="#m3b2e394e59" x="533.703861" y="121.869472" style="stroke: #000000"/>
     <use xlink:href="#m3b2e394e59" x="538.833225" y="396.719198" style="stroke: #000000"/>
     <use xlink:href="#m3b2e394e59" x="543.802296" y="396.719198" style="stroke: #000000"/>
     <use xlink:href="#m3b2e394e59" x="548.771368" y="121.869472" style="stroke: #000000"/>
     <use xlink:href="#m3b2e394e59" x="553.740439" y="396.719198" style="stroke: #000000"/>
     <use xlink:href="#m3b2e394e59" x="558.869803" y="396.719198" style="stroke: #000000"/>
     <use xlink:href="#m3b2e394e59" x="563.838874" y="121.869472" style="stroke: #000000"/>
     <use xlink:href="#m3b2e394e59" x="568.807946" y="396.719198" style="stroke: #000000"/>
     <use xlink:href="#m3b2e394e59" x="573.777017" y="121.869472" style="stroke: #000000"/>
     <use xlink:href="#m3b2e394e59" x="578.906381" y="396.719198" style="stroke: #000000"/>
     <use xlink:href="#m3b2e394e59" x="583.875452" y="396.719198" style="stroke: #000000"/>
     <use xlink:href="#m3b2e394e59" x="588.844524" y="121.869472" style="stroke: #000000"/>
     <use xlink:href="#m3b2e394e59" x="593.813595" y="396.719198" style="stroke: #000000"/>
     <use xlink:href="#m3b2e394e59" x="598.942959" y="396.719198" style="stroke: #000000"/>
     <use xlink:href="#m3b2e394e59" x="603.912031" y="121.869472" style="stroke: #000000"/>
     <use xlink:href="#m3b2e394e59" x="608.881102" y="396.719198" style="stroke: #000000"/>
     <use xlink:href="#m3b2e394e59" x="613.850173" y="121.869472" style="stroke: #000000"/>
     <use xlink:href="#m3b2e394e59" x="618.979537" y="396.719198" style="stroke: #000000"/>
     <use xlink:href="#m3b2e394e59" x="623.948609" y="396.719198" style="stroke: #000000"/>
     <use xlink:href="#m3b2e394e59" x="628.91768" y="121.869472" style="stroke: #000000"/>
     <use xlink:href="#m3b2e394e59" x="633.886751" y="396.719198" style="stroke: #000000"/>
     <use xlink:href="#m3b2e394e59" x="639.016115" y="396.719198" style="stroke: #000000"/>
     <use xlink:href="#m3b2e394e59" x="643.985187" y="121.869472" style="stroke: #000000"/>
     <use xlink:href="#m3b2e394e59" x="648.954258" y="396.719198" style="stroke: #000000"/>
     <use xlink:href="#m3b2e394e59" x="653.92333" y="121.869472" style="stroke: #000000"/>
     <use xlink:href="#m3b2e394e59" x="659.052694" y="396.719198" style="stroke: #000000"/>
     <use xlink:href="#m3b2e394e59" x="664.021765" y="396.719198" style="stroke: #000000"/>
     <use xlink:href="#m3b2e394e59" x="668.990836" y="121.869472" style="stroke: #000000"/>
     <use xlink:href="#m3b2e394e59" x="673.959908" y="396.719198" style="stroke: #000000"/>
     <use xlink:href="#m3b2e394e59" x="679.089272" y="396.719198" style="stroke: #000000"/>
     <use xlink:href="#m3b2e394e59" x="684.058343" y="121.869472" style="stroke: #000000"/>
     <use xlink:href="#m3b2e394e59" x="689.027414" y="396.719198" style="stroke: #000000"/>
     <use xlink:href="#m3b2e394e59" x="693.996486" y="121.869472" style="stroke: #000000"/>
     <use xlink:href="#m3b2e394e59" x="699.12585" y="396.719198" style="stroke: #000000"/>
     <use xlink:href="#m3b2e394e59" x="704.094921" y="396.719198" style="stroke: #000000"/>
     <use xlink:href="#m3b2e394e59" x="709.063993" y="121.869472" style="stroke: #000000"/>
     <use xlink:href="#m3b2e394e59" x="714.033064" y="396.719198" style="stroke: #000000"/>
     <use xlink:href="#m3b2e394e59" x="719.162428" y="396.719198" style="stroke: #000000"/>
     <use xlink:href="#m3b2e394e59" x="724.131499" y="121.869472" style="stroke: #000000"/>
     <use xlink:href="#m3b2e394e59" x="729.100571" y="396.719198" style="stroke: #000000"/>
     <use xlink:href="#m3b2e394e59" x="734.069642" y="121.869472" style="stroke: #000000"/>
     <use xlink:href="#m3b2e394e59" x="739.199006" y="396.719198" style="stroke: #000000"/>
     <use xlink:href="#m3b2e394e59" x="744.168077" y="396.719198" style="stroke: #000000"/>
     <use xlink:href="#m3b2e394e59" x="749.137149" y="121.869472" style="stroke: #000000"/>
     <use xlink:href="#m3b2e394e59" x="754.10622" y="396.719198" style="stroke: #000000"/>
     <use xlink:href="#m3b2e394e59" x="759.235584" y="396.719198" style="stroke: #000000"/>
     <use xlink:href="#m3b2e394e59" x="764.204656" y="121.869472" style="stroke: #000000"/>
     <use xlink:href="#m3b2e394e59" x="769.173727" y="396.719198" style="stroke: #000000"/>
     <use xlink:href="#m3b2e394e59" x="774.142798" y="121.869472" style="stroke: #000000"/>
     <use xlink:href="#m3b2e394e59" x="779.272162" y="396.719198" style="stroke: #000000"/>
     <use xlink:href="#m3b2e394e59" x="784.241234" y="396.719198" style="stroke: #000000"/>
     <use xlink:href="#m3b2e394e59" x="789.210305" y="121.869472" style="stroke: #000000"/>
     <use xlink:href="#m3b2e394e59" x="794.179376" y="396.719198" style="stroke: #000000"/>
     <use xlink:href="#m3b2e394e59" x="799.30874" y="396.719198" style="stroke: #000000"/>
     <use xlink:href="#m3b2e394e59" x="804.277812" y="121.869472" style="stroke: #000000"/>
     <use xlink:href="#m3b2e394e59" x="809.246883" y="396.719198" style="stroke: #000000"/>
     <use xlink:href="#m3b2e394e59" x="814.215955" y="121.869472" style="stroke: #000000"/>
     <use xlink:href="#m3b2e394e59" x="819.345319" y="396.719198" style="stroke: #000000"/>
     <use xlink:href="#m3b2e394e59" x="824.31439" y="396.719198" style="stroke: #000000"/>
     <use xlink:href="#m3b2e394e59" x="829.283461" y="121.869472" style="stroke: #000000"/>
     <use xlink:href="#m3b2e394e59" x="834.252533" y="396.719198" style="stroke: #000000"/>
     <use xlink:href="#m3b2e394e59" x="839.381897" y="396.719198" style="stroke: #000000"/>
     <use xlink:href="#m3b2e394e59" x="844.350968" y="121.869472" style="stroke: #000000"/>
     <use xlink:href="#m3b2e394e59" x="849.320039" y="396.719198" style="stroke: #000000"/>
     <use xlink:href="#m3b2e394e59" x="854.289111" y="121.869472" style="stroke: #000000"/>
     <use xlink:href="#m3b2e394e59" x="859.418475" y="396.719198" style="stroke: #000000"/>
     <use xlink:href="#m3b2e394e59" x="864.387546" y="396.719198" style="stroke: #000000"/>
     <use xlink:href="#m3b2e394e59" x="869.356618" y="121.869472" style="stroke: #000000"/>
     <use xlink:href="#m3b2e394e59" x="874.325689" y="396.719198" style="stroke: #000000"/>
     <use xlink:href="#m3b2e394e59" x="879.455053" y="396.719198" style="stroke: #000000"/>
     <use xlink:href="#m3b2e394e59" x="884.424124" y="121.869472" style="stroke: #000000"/>
     <use xlink:href="#m3b2e394e59" x="889.393196" y="396.719198" style="stroke: #000000"/>
     <use xlink:href="#m3b2e394e59" x="894.362267" y="121.869472" style="stroke: #000000"/>
     <use xlink:href="#m3b2e394e59" x="899.491631" y="396.719198" style="stroke: #000000"/>
     <use xlink:href="#m3b2e394e59" x="904.460702" y="396.719198" style="stroke: #000000"/>
     <use xlink:href="#m3b2e394e59" x="909.429774" y="121.869472" style="stroke: #000000"/>
     <use xlink:href="#m3b2e394e59" x="914.398845" y="396.719198" style="stroke: #000000"/>
     <use xlink:href="#m3b2e394e59" x="919.528209" y="396.719198" style="stroke: #000000"/>
     <use xlink:href="#m3b2e394e59" x="924.497281" y="121.869472" style="stroke: #000000"/>
     <use xlink:href="#m3b2e394e59" x="929.466352" y="396.719198" style="stroke: #000000"/>
    </g>
   </g>
   <g id="patch_3">
    <path d="M 135 448.56 
L 135 60.48 
" style="fill: none; stroke: #000000; stroke-width: 0.8; stroke-linejoin: miter; stroke-linecap: square"/>
   </g>
   <g id="patch_4">
    <path d="M 972 448.56 
L 972 60.48 
" style="fill: none; stroke: #000000; stroke-width: 0.8; stroke-linejoin: miter; stroke-linecap: square"/>
   </g>
   <g id="patch_5">
    <path d="M 135 448.56 
L 972 448.56 
" style="fill: none; stroke: #000000; stroke-width: 0.8; stroke-linejoin: miter; stroke-linecap: square"/>
   </g>
   <g id="patch_6">
    <path d="M 135 60.48 
L 972 60.48 
" style="fill: none; stroke: #000000; stroke-width: 0.8; stroke-linejoin: miter; stroke-linecap: square"/>
   </g>
   <g id="legend_1">
    <g id="patch_7">
     <path d="M 895.915625 113.070625 
L 965 113.070625 
Q 967 113.070625 967 111.070625 
L 967 67.48 
Q 967 65.48 965 65.48 
L 895.915625 65.48 
Q 893.915625 65.48 893.915625 67.48 
L 893.915625 111.070625 
Q 893.915625 113.070625 895.915625 113.070625 
z
" style="fill: #ffffff; opacity: 0.8; stroke: #cccccc; stroke-linejoin: miter"/>
    </g>
    <g id="line2d_16">
     <path d="M 897.915625 73.578438 
L 907.915625 73.578438 
L 917.915625 73.578438 
" style="fill: none; stroke: #1f77b4; stroke-width: 1.5; stroke-linecap: square"/>
    </g>
    <g id="text_14">
     <!-- nw_0 -->
     <g transform="translate(925.915625 77.078438) scale(0.1 -0.1)">
      <defs>
       <path id="DejaVuSans-6e" d="M 3513 2113 
L 3513 0 
L 2938 0 
L 2938 2094 
Q 2938 2591 2744 2837 
Q 2550 3084 2163 3084 
Q 1697 3084 1428 2787 
Q 1159 2491 1159 1978 
L 1159 0 
L 581 0 
L 581 3500 
L 1159 3500 
L 1159 2956 
Q 1366 3272 1645 3428 
Q 1925 3584 2291 3584 
Q 2894 3584 3203 3211 
Q 3513 2838 3513 2113 
z
" transform="scale(0.015625)"/>
       <path id="DejaVuSans-77" d="M 269 3500 
L 844 3500 
L 1563 769 
L 2278 3500 
L 2956 3500 
L 3675 769 
L 4391 3500 
L 4966 3500 
L 4050 0 
L 3372 0 
L 2619 2869 
L 1863 0 
L 1184 0 
L 269 3500 
z
" transform="scale(0.015625)"/>
       <path id="DejaVuSans-5f" d="M 3263 -1063 
L 3263 -1509 
L -63 -1509 
L -63 -1063 
L 3263 -1063 
z
" transform="scale(0.015625)"/>
      </defs>
      <use xlink:href="#DejaVuSans-6e"/>
      <use xlink:href="#DejaVuSans-77" x="63.378906"/>
      <use xlink:href="#DejaVuSans-5f" x="145.166016"/>
      <use xlink:href="#DejaVuSans-30" x="195.166016"/>
     </g>
    </g>
    <g id="line2d_17">
     <path d="M 897.915625 88.534688 
L 907.915625 88.534688 
L 917.915625 88.534688 
" style="fill: none; stroke: #ff7f0e; stroke-width: 1.5; stroke-linecap: square"/>
    </g>
    <g id="text_15">
     <!-- input_0 -->
     <g transform="translate(925.915625 92.034688) scale(0.1 -0.1)">
      <defs>
       <path id="DejaVuSans-69" d="M 603 3500 
L 1178 3500 
L 1178 0 
L 603 0 
L 603 3500 
z
M 603 4863 
L 1178 4863 
L 1178 4134 
L 603 4134 
L 603 4863 
z
" transform="scale(0.015625)"/>
       <path id="DejaVuSans-70" d="M 1159 525 
L 1159 -1331 
L 581 -1331 
L 581 3500 
L 1159 3500 
L 1159 2969 
Q 1341 3281 1617 3432 
Q 1894 3584 2278 3584 
Q 2916 3584 3314 3078 
Q 3713 2572 3713 1747 
Q 3713 922 3314 415 
Q 2916 -91 2278 -91 
Q 1894 -91 1617 61 
Q 1341 213 1159 525 
z
M 3116 1747 
Q 3116 2381 2855 2742 
Q 2594 3103 2138 3103 
Q 1681 3103 1420 2742 
Q 1159 2381 1159 1747 
Q 1159 1113 1420 752 
Q 1681 391 2138 391 
Q 2594 391 2855 752 
Q 3116 1113 3116 1747 
z
" transform="scale(0.015625)"/>
       <path id="DejaVuSans-75" d="M 544 1381 
L 544 3500 
L 1119 3500 
L 1119 1403 
Q 1119 906 1312 657 
Q 1506 409 1894 409 
Q 2359 409 2629 706 
Q 2900 1003 2900 1516 
L 2900 3500 
L 3475 3500 
L 3475 0 
L 2900 0 
L 2900 538 
Q 2691 219 2414 64 
Q 2138 -91 1772 -91 
Q 1169 -91 856 284 
Q 544 659 544 1381 
z
M 1991 3584 
L 1991 3584 
z
" transform="scale(0.015625)"/>
      </defs>
      <use xlink:href="#DejaVuSans-69"/>
      <use xlink:href="#DejaVuSans-6e" x="27.783203"/>
      <use xlink:href="#DejaVuSans-70" x="91.162109"/>
      <use xlink:href="#DejaVuSans-75" x="154.638672"/>
      <use xlink:href="#DejaVuSans-74" x="218.017578"/>
      <use xlink:href="#DejaVuSans-5f" x="257.226562"/>
      <use xlink:href="#DejaVuSans-30" x="307.226562"/>
     </g>
    </g>
    <g id="line2d_18">
     <path d="M 897.915625 103.490938 
L 907.915625 103.490938 
L 917.915625 103.490938 
" style="fill: none; stroke: #000000; stroke-width: 1.5; stroke-linecap: square"/>
     <g>
      <use xlink:href="#m3b2e394e59" x="907.915625" y="103.490938" style="stroke: #000000"/>
     </g>
    </g>
    <g id="text_16">
     <!-- target -->
     <g transform="translate(925.915625 106.990938) scale(0.1 -0.1)">
      <defs>
       <path id="DejaVuSans-61" d="M 2194 1759 
Q 1497 1759 1228 1600 
Q 959 1441 959 1056 
Q 959 750 1161 570 
Q 1363 391 1709 391 
Q 2188 391 2477 730 
Q 2766 1069 2766 1631 
L 2766 1759 
L 2194 1759 
z
M 3341 1997 
L 3341 0 
L 2766 0 
L 2766 531 
Q 2569 213 2275 61 
Q 1981 -91 1556 -91 
Q 1019 -91 701 211 
Q 384 513 384 1019 
Q 384 1609 779 1909 
Q 1175 2209 1959 2209 
L 2766 2209 
L 2766 2266 
Q 2766 2663 2505 2880 
Q 2244 3097 1772 3097 
Q 1472 3097 1187 3025 
Q 903 2953 641 2809 
L 641 3341 
Q 956 3463 1253 3523 
Q 1550 3584 1831 3584 
Q 2591 3584 2966 3190 
Q 3341 2797 3341 1997 
z
" transform="scale(0.015625)"/>
       <path id="DejaVuSans-72" d="M 2631 2963 
Q 2534 3019 2420 3045 
Q 2306 3072 2169 3072 
Q 1681 3072 1420 2755 
Q 1159 2438 1159 1844 
L 1159 0 
L 581 0 
L 581 3500 
L 1159 3500 
L 1159 2956 
Q 1341 3275 1631 3429 
Q 1922 3584 2338 3584 
Q 2397 3584 2469 3576 
Q 2541 3569 2628 3553 
L 2631 2963 
z
" transform="scale(0.015625)"/>
       <path id="DejaVuSans-67" d="M 2906 1791 
Q 2906 2416 2648 2759 
Q 2391 3103 1925 3103 
Q 1463 3103 1205 2759 
Q 947 2416 947 1791 
Q 947 1169 1205 825 
Q 1463 481 1925 481 
Q 2391 481 2648 825 
Q 2906 1169 2906 1791 
z
M 3481 434 
Q 3481 -459 3084 -895 
Q 2688 -1331 1869 -1331 
Q 1566 -1331 1297 -1286 
Q 1028 -1241 775 -1147 
L 775 -588 
Q 1028 -725 1275 -790 
Q 1522 -856 1778 -856 
Q 2344 -856 2625 -561 
Q 2906 -266 2906 331 
L 2906 616 
Q 2728 306 2450 153 
Q 2172 0 1784 0 
Q 1141 0 747 490 
Q 353 981 353 1791 
Q 353 2603 747 3093 
Q 1141 3584 1784 3584 
Q 2172 3584 2450 3431 
Q 2728 3278 2906 2969 
L 2906 3500 
L 3481 3500 
L 3481 434 
z
" transform="scale(0.015625)"/>
       <path id="DejaVuSans-65" d="M 3597 1894 
L 3597 1613 
L 953 1613 
Q 991 1019 1311 708 
Q 1631 397 2203 397 
Q 2534 397 2845 478 
Q 3156 559 3463 722 
L 3463 178 
Q 3153 47 2828 -22 
Q 2503 -91 2169 -91 
Q 1331 -91 842 396 
Q 353 884 353 1716 
Q 353 2575 817 3079 
Q 1281 3584 2069 3584 
Q 2775 3584 3186 3129 
Q 3597 2675 3597 1894 
z
M 3022 2063 
Q 3016 2534 2758 2815 
Q 2500 3097 2075 3097 
Q 1594 3097 1305 2825 
Q 1016 2553 972 2059 
L 3022 2063 
z
" transform="scale(0.015625)"/>
      </defs>
      <use xlink:href="#DejaVuSans-74"/>
      <use xlink:href="#DejaVuSans-61" x="39.208984"/>
      <use xlink:href="#DejaVuSans-72" x="100.488281"/>
      <use xlink:href="#DejaVuSans-67" x="139.851562"/>
      <use xlink:href="#DejaVuSans-65" x="203.328125"/>
      <use xlink:href="#DejaVuSans-74" x="264.851562"/>
     </g>
    </g>
   </g>
  </g>
 </g>
 <defs>
  <clipPath id="pd5938563db">
   <rect x="135" y="60.48" width="837" height="388.08"/>
  </clipPath>
 </defs>
</svg>
