<?xml version="1.0" encoding="utf-8" standalone="no"?>
<!DOCTYPE svg PUBLIC "-//W3C//DTD SVG 1.1//EN"
  "http://www.w3.org/Graphics/SVG/1.1/DTD/svg11.dtd">
<svg xmlns:xlink="http://www.w3.org/1999/xlink" width="1080pt" height="504pt" viewBox="0 0 1080 504" xmlns="http://www.w3.org/2000/svg" version="1.1">
 <metadata>
  <rdf:RDF xmlns:dc="http://purl.org/dc/elements/1.1/" xmlns:cc="http://creativecommons.org/ns#" xmlns:rdf="http://www.w3.org/1999/02/22-rdf-syntax-ns#">
   <cc:Work>
    <dc:type rdf:resource="http://purl.org/dc/dcmitype/StillImage"/>
    <dc:date>2024-05-09T11:08:26.139060</dc:date>
    <dc:format>image/svg+xml</dc:format>
    <dc:creator>
     <cc:Agent>
      <dc:title>Matplotlib v3.7.1, https://matplotlib.org/</dc:title>
     </cc:Agent>
    </dc:creator>
   </cc:Work>
  </rdf:RDF>
 </metadata>
 <defs>
  <style type="text/css">*{stroke-linejoin: round; stroke-linecap: butt}</style>
 </defs>
 <g id="figure_1">
  <g id="patch_1">
   <path d="M 0 504 
L 1080 504 
L 1080 0 
L 0 0 
z
" style="fill: #ffffff"/>
  </g>
  <g id="axes_1">
   <g id="patch_2">
    <path d="M 135 448.56 
L 972 448.56 
L 972 60.48 
L 135 60.48 
z
" style="fill: #ffffff"/>
   </g>
   <g id="matplotlib.axis_1">
    <g id="xtick_1">
     <g id="line2d_1">
      <defs>
       <path id="m140990f917" d="M 0 0 
L 0 3.5 
" style="stroke: #000000; stroke-width: 0.8"/>
      </defs>
      <g>
       <use xlink:href="#m140990f917" x="173.045455" y="448.56" style="stroke: #000000; stroke-width: 0.8"/>
      </g>
     </g>
     <g id="text_1">
      <!-- 0 -->
      <g transform="translate(169.864205 463.158437) scale(0.1 -0.1)">
       <defs>
        <path id="DejaVuSans-30" d="M 2034 4250 
Q 1547 4250 1301 3770 
Q 1056 3291 1056 2328 
Q 1056 1369 1301 889 
Q 1547 409 2034 409 
Q 2525 409 2770 889 
Q 3016 1369 3016 2328 
Q 3016 3291 2770 3770 
Q 2525 4250 2034 4250 
z
M 2034 4750 
Q 2819 4750 3233 4129 
Q 3647 3509 3647 2328 
Q 3647 1150 3233 529 
Q 2819 -91 2034 -91 
Q 1250 -91 836 529 
Q 422 1150 422 2328 
Q 422 3509 836 4129 
Q 1250 4750 2034 4750 
z
" transform="scale(0.015625)"/>
       </defs>
       <use xlink:href="#DejaVuSans-30"/>
      </g>
     </g>
    </g>
    <g id="xtick_2">
     <g id="line2d_2">
      <g>
       <use xlink:href="#m140990f917" x="333.33808" y="448.56" style="stroke: #000000; stroke-width: 0.8"/>
      </g>
     </g>
     <g id="text_2">
      <!-- 1000 -->
      <g transform="translate(320.61308 463.158437) scale(0.1 -0.1)">
       <defs>
        <path id="DejaVuSans-31" d="M 794 531 
L 1825 531 
L 1825 4091 
L 703 3866 
L 703 4441 
L 1819 4666 
L 2450 4666 
L 2450 531 
L 3481 531 
L 3481 0 
L 794 0 
L 794 531 
z
" transform="scale(0.015625)"/>
       </defs>
       <use xlink:href="#DejaVuSans-31"/>
       <use xlink:href="#DejaVuSans-30" x="63.623047"/>
       <use xlink:href="#DejaVuSans-30" x="127.246094"/>
       <use xlink:href="#DejaVuSans-30" x="190.869141"/>
      </g>
     </g>
    </g>
    <g id="xtick_3">
     <g id="line2d_3">
      <g>
       <use xlink:href="#m140990f917" x="493.630705" y="448.56" style="stroke: #000000; stroke-width: 0.8"/>
      </g>
     </g>
     <g id="text_3">
      <!-- 2000 -->
      <g transform="translate(480.905705 463.158437) scale(0.1 -0.1)">
       <defs>
        <path id="DejaVuSans-32" d="M 1228 531 
L 3431 531 
L 3431 0 
L 469 0 
L 469 531 
Q 828 903 1448 1529 
Q 2069 2156 2228 2338 
Q 2531 2678 2651 2914 
Q 2772 3150 2772 3378 
Q 2772 3750 2511 3984 
Q 2250 4219 1831 4219 
Q 1534 4219 1204 4116 
Q 875 4013 500 3803 
L 500 4441 
Q 881 4594 1212 4672 
Q 1544 4750 1819 4750 
Q 2544 4750 2975 4387 
Q 3406 4025 3406 3419 
Q 3406 3131 3298 2873 
Q 3191 2616 2906 2266 
Q 2828 2175 2409 1742 
Q 1991 1309 1228 531 
z
" transform="scale(0.015625)"/>
       </defs>
       <use xlink:href="#DejaVuSans-32"/>
       <use xlink:href="#DejaVuSans-30" x="63.623047"/>
       <use xlink:href="#DejaVuSans-30" x="127.246094"/>
       <use xlink:href="#DejaVuSans-30" x="190.869141"/>
      </g>
     </g>
    </g>
    <g id="xtick_4">
     <g id="line2d_4">
      <g>
       <use xlink:href="#m140990f917" x="653.92333" y="448.56" style="stroke: #000000; stroke-width: 0.8"/>
      </g>
     </g>
     <g id="text_4">
      <!-- 3000 -->
      <g transform="translate(641.19833 463.158437) scale(0.1 -0.1)">
       <defs>
        <path id="DejaVuSans-33" d="M 2597 2516 
Q 3050 2419 3304 2112 
Q 3559 1806 3559 1356 
Q 3559 666 3084 287 
Q 2609 -91 1734 -91 
Q 1441 -91 1130 -33 
Q 819 25 488 141 
L 488 750 
Q 750 597 1062 519 
Q 1375 441 1716 441 
Q 2309 441 2620 675 
Q 2931 909 2931 1356 
Q 2931 1769 2642 2001 
Q 2353 2234 1838 2234 
L 1294 2234 
L 1294 2753 
L 1863 2753 
Q 2328 2753 2575 2939 
Q 2822 3125 2822 3475 
Q 2822 3834 2567 4026 
Q 2313 4219 1838 4219 
Q 1578 4219 1281 4162 
Q 984 4106 628 3988 
L 628 4550 
Q 988 4650 1302 4700 
Q 1616 4750 1894 4750 
Q 2613 4750 3031 4423 
Q 3450 4097 3450 3541 
Q 3450 3153 3228 2886 
Q 3006 2619 2597 2516 
z
" transform="scale(0.015625)"/>
       </defs>
       <use xlink:href="#DejaVuSans-33"/>
       <use xlink:href="#DejaVuSans-30" x="63.623047"/>
       <use xlink:href="#DejaVuSans-30" x="127.246094"/>
       <use xlink:href="#DejaVuSans-30" x="190.869141"/>
      </g>
     </g>
    </g>
    <g id="xtick_5">
     <g id="line2d_5">
      <g>
       <use xlink:href="#m140990f917" x="814.215955" y="448.56" style="stroke: #000000; stroke-width: 0.8"/>
      </g>
     </g>
     <g id="text_5">
      <!-- 4000 -->
      <g transform="translate(801.490955 463.158437) scale(0.1 -0.1)">
       <defs>
        <path id="DejaVuSans-34" d="M 2419 4116 
L 825 1625 
L 2419 1625 
L 2419 4116 
z
M 2253 4666 
L 3047 4666 
L 3047 1625 
L 3713 1625 
L 3713 1100 
L 3047 1100 
L 3047 0 
L 2419 0 
L 2419 1100 
L 313 1100 
L 313 1709 
L 2253 4666 
z
" transform="scale(0.015625)"/>
       </defs>
       <use xlink:href="#DejaVuSans-34"/>
       <use xlink:href="#DejaVuSans-30" x="63.623047"/>
       <use xlink:href="#DejaVuSans-30" x="127.246094"/>
       <use xlink:href="#DejaVuSans-30" x="190.869141"/>
      </g>
     </g>
    </g>
    <g id="text_6">
     <!-- t -->
     <g transform="translate(551.539844 476.836563) scale(0.1 -0.1)">
      <defs>
       <path id="DejaVuSans-74" d="M 1172 4494 
L 1172 3500 
L 2356 3500 
L 2356 3053 
L 1172 3053 
L 1172 1153 
Q 1172 725 1289 603 
Q 1406 481 1766 481 
L 2356 481 
L 2356 0 
L 1766 0 
Q 1100 0 847 248 
Q 594 497 594 1153 
L 594 3053 
L 172 3053 
L 172 3500 
L 594 3500 
L 594 4494 
L 1172 4494 
z
" transform="scale(0.015625)"/>
      </defs>
      <use xlink:href="#DejaVuSans-74"/>
     </g>
    </g>
   </g>
   <g id="matplotlib.axis_2">
    <g id="ytick_1">
     <g id="line2d_6">
      <defs>
       <path id="mbc37ce1776" d="M 0 0 
L -3.5 0 
" style="stroke: #000000; stroke-width: 0.8"/>
      </defs>
      <g>
       <use xlink:href="#mbc37ce1776" x="135" y="431.706964" style="stroke: #000000; stroke-width: 0.8"/>
      </g>
     </g>
     <g id="text_7">
      <!-- −1.0 -->
      <g transform="translate(103.717187 435.506182) scale(0.1 -0.1)">
       <defs>
        <path id="DejaVuSans-2212" d="M 678 2272 
L 4684 2272 
L 4684 1741 
L 678 1741 
L 678 2272 
z
" transform="scale(0.015625)"/>
        <path id="DejaVuSans-2e" d="M 684 794 
L 1344 794 
L 1344 0 
L 684 0 
L 684 794 
z
" transform="scale(0.015625)"/>
       </defs>
       <use xlink:href="#DejaVuSans-2212"/>
       <use xlink:href="#DejaVuSans-31" x="83.789062"/>
       <use xlink:href="#DejaVuSans-2e" x="147.412109"/>
       <use xlink:href="#DejaVuSans-30" x="179.199219"/>
      </g>
     </g>
    </g>
    <g id="ytick_2">
     <g id="line2d_7">
      <g>
       <use xlink:href="#mbc37ce1776" x="135" y="381.536645" style="stroke: #000000; stroke-width: 0.8"/>
      </g>
     </g>
     <g id="text_8">
      <!-- −0.5 -->
      <g transform="translate(103.717187 385.335864) scale(0.1 -0.1)">
       <defs>
        <path id="DejaVuSans-35" d="M 691 4666 
L 3169 4666 
L 3169 4134 
L 1269 4134 
L 1269 2991 
Q 1406 3038 1543 3061 
Q 1681 3084 1819 3084 
Q 2600 3084 3056 2656 
Q 3513 2228 3513 1497 
Q 3513 744 3044 326 
Q 2575 -91 1722 -91 
Q 1428 -91 1123 -41 
Q 819 9 494 109 
L 494 744 
Q 775 591 1075 516 
Q 1375 441 1709 441 
Q 2250 441 2565 725 
Q 2881 1009 2881 1497 
Q 2881 1984 2565 2268 
Q 2250 2553 1709 2553 
Q 1456 2553 1204 2497 
Q 953 2441 691 2322 
L 691 4666 
z
" transform="scale(0.015625)"/>
       </defs>
       <use xlink:href="#DejaVuSans-2212"/>
       <use xlink:href="#DejaVuSans-30" x="83.789062"/>
       <use xlink:href="#DejaVuSans-2e" x="147.412109"/>
       <use xlink:href="#DejaVuSans-35" x="179.199219"/>
      </g>
     </g>
    </g>
    <g id="ytick_3">
     <g id="line2d_8">
      <g>
       <use xlink:href="#mbc37ce1776" x="135" y="331.366327" style="stroke: #000000; stroke-width: 0.8"/>
      </g>
     </g>
     <g id="text_9">
      <!-- 0.0 -->
      <g transform="translate(112.096875 335.165545) scale(0.1 -0.1)">
       <use xlink:href="#DejaVuSans-30"/>
       <use xlink:href="#DejaVuSans-2e" x="63.623047"/>
       <use xlink:href="#DejaVuSans-30" x="95.410156"/>
      </g>
     </g>
    </g>
    <g id="ytick_4">
     <g id="line2d_9">
      <g>
       <use xlink:href="#mbc37ce1776" x="135" y="281.196008" style="stroke: #000000; stroke-width: 0.8"/>
      </g>
     </g>
     <g id="text_10">
      <!-- 0.5 -->
      <g transform="translate(112.096875 284.995227) scale(0.1 -0.1)">
       <use xlink:href="#DejaVuSans-30"/>
       <use xlink:href="#DejaVuSans-2e" x="63.623047"/>
       <use xlink:href="#DejaVuSans-35" x="95.410156"/>
      </g>
     </g>
    </g>
    <g id="ytick_5">
     <g id="line2d_10">
      <g>
       <use xlink:href="#mbc37ce1776" x="135" y="231.02569" style="stroke: #000000; stroke-width: 0.8"/>
      </g>
     </g>
     <g id="text_11">
      <!-- 1.0 -->
      <g transform="translate(112.096875 234.824908) scale(0.1 -0.1)">
       <use xlink:href="#DejaVuSans-31"/>
       <use xlink:href="#DejaVuSans-2e" x="63.623047"/>
       <use xlink:href="#DejaVuSans-30" x="95.410156"/>
      </g>
     </g>
    </g>
    <g id="ytick_6">
     <g id="line2d_11">
      <g>
       <use xlink:href="#mbc37ce1776" x="135" y="180.855371" style="stroke: #000000; stroke-width: 0.8"/>
      </g>
     </g>
     <g id="text_12">
      <!-- 1.5 -->
      <g transform="translate(112.096875 184.65459) scale(0.1 -0.1)">
       <use xlink:href="#DejaVuSans-31"/>
       <use xlink:href="#DejaVuSans-2e" x="63.623047"/>
       <use xlink:href="#DejaVuSans-35" x="95.410156"/>
      </g>
     </g>
    </g>
    <g id="ytick_7">
     <g id="line2d_12">
      <g>
       <use xlink:href="#mbc37ce1776" x="135" y="130.685053" style="stroke: #000000; stroke-width: 0.8"/>
      </g>
     </g>
     <g id="text_13">
      <!-- 2.0 -->
      <g transform="translate(112.096875 134.484271) scale(0.1 -0.1)">
       <use xlink:href="#DejaVuSans-32"/>
       <use xlink:href="#DejaVuSans-2e" x="63.623047"/>
       <use xlink:href="#DejaVuSans-30" x="95.410156"/>
      </g>
     </g>
    </g>
    <g id="ytick_8">
     <g id="line2d_13">
      <g>
       <use xlink:href="#mbc37ce1776" x="135" y="80.514734" style="stroke: #000000; stroke-width: 0.8"/>
      </g>
     </g>
     <g id="text_14">
      <!-- 2.5 -->
      <g transform="translate(112.096875 84.313953) scale(0.1 -0.1)">
       <use xlink:href="#DejaVuSans-32"/>
       <use xlink:href="#DejaVuSans-2e" x="63.623047"/>
       <use xlink:href="#DejaVuSans-35" x="95.410156"/>
      </g>
     </g>
    </g>
   </g>
   <g id="line2d_14">
    <path d="M 173.045455 263.333608 
L 173.36604 170.932409 
L 173.686625 134.782342 
L 173.846918 137.131158 
L 174.167503 169.024313 
L 174.968966 274.067192 
L 175.289551 293.958863 
L 175.449844 298.035534 
L 175.610137 298.921706 
L 175.770429 297.363727 
L 176.251307 285.503994 
L 176.732185 274.261485 
L 177.05277 270.389464 
L 177.213063 269.562382 
L 177.373355 269.347674 
L 177.533648 269.62177 
L 177.693941 270.257953 
L 178.174819 387.420411 
L 178.495404 416.511813 
L 178.655696 419.607626 
L 178.815989 416.708592 
L 179.136574 398.170529 
L 180.258623 315.476174 
L 180.579208 305.486006 
L 180.899793 301.779862 
L 181.060086 301.690368 
L 181.220378 302.45175 
L 181.540964 305.668734 
L 182.823305 321.672461 
L 183.304183 324.901646 
L 183.624768 326.050855 
L 183.945353 326.527875 
L 184.105646 326.553568 
L 184.426231 326.248937 
L 184.746816 325.539113 
L 185.227694 323.813553 
L 185.708572 321.302608 
L 186.349742 316.587039 
L 187.151206 308.402715 
L 188.433547 294.061782 
L 188.754132 291.984891 
L 188.914424 291.448772 
L 189.074717 291.313569 
L 189.23501 291.620342 
L 189.555595 293.666471 
L 189.87618 297.643251 
L 190.357058 306.6529 
L 192.601155 354.957002 
L 193.082033 361.545777 
L 193.402618 364.281458 
L 193.723203 365.479127 
L 193.883496 365.489592 
L 194.043788 365.121414 
L 194.364374 363.343251 
L 194.845252 358.596723 
L 196.768763 335.86214 
L 197.249641 333.47941 
L 197.570226 333.054095 
L 197.730519 333.196148 
L 198.051104 334.177175 
L 198.371689 336.048198 
L 198.852567 340.35713 
L 199.493738 348.287908 
L 200.936371 367.023503 
L 201.256957 369.108243 
L 201.417249 369.56859 
L 201.577542 369.5829 
L 201.737834 369.118773 
L 202.05842 366.692309 
L 202.539298 359.51818 
L 203.340761 341.88559 
L 204.623102 314.522722 
L 205.264272 304.101491 
L 205.74515 299.068816 
L 206.065735 297.491293 
L 206.226028 297.275684 
L 206.386321 297.437683 
L 206.706906 298.825405 
L 207.187784 303.113762 
L 208.149539 315.554134 
L 208.951003 324.734022 
L 209.43188 328.153986 
L 209.752466 329.323657 
L 209.912758 329.557071 
L 210.073051 329.554002 
L 210.233344 329.315613 
L 210.553929 328.147737 
L 211.034807 324.773548 
L 211.675977 317.735939 
L 213.278903 296.529642 
L 213.759781 136.504586 
L 214.080367 87.315915 
L 214.240659 83.862502 
L 214.400952 92.23243 
L 214.721537 133.163207 
L 215.683293 286.065356 
L 216.003878 309.202139 
L 216.164171 314.069354 
L 216.324463 315.381406 
L 216.484756 314.045136 
L 216.965634 302.734764 
L 217.446512 292.219038 
L 217.767097 288.293622 
L 218.087682 286.349686 
L 218.56856 401.655305 
L 218.889145 427.805955 
L 219.049438 429.469871 
L 219.209731 425.259552 
L 219.530316 404.454714 
L 220.492072 325.805566 
L 220.812657 311.884153 
L 221.133242 305.201593 
L 221.293535 303.993922 
L 221.453827 303.85432 
L 221.61412 304.530851 
L 221.934705 307.46141 
L 223.217046 321.455901 
L 223.697924 323.999684 
L 224.018509 324.798404 
L 224.339095 325.024072 
L 224.65968 324.801152 
L 224.980265 324.224827 
L 225.461143 322.802129 
L 225.942021 320.701142 
L 226.583191 316.618223 
L 227.224362 310.836031 
L 228.987581 292.691451 
L 229.308166 291.691831 
L 229.468459 291.802999 
L 229.628751 292.372403 
L 229.949336 294.961502 
L 230.430214 302.299003 
L 231.231677 320.144622 
L 232.514018 348.223304 
L 233.155189 358.906212 
L 233.636067 363.925464 
L 233.956652 365.405394 
L 234.116945 365.554265 
L 234.277237 365.318228 
L 234.597823 363.774274 
L 235.0787 359.274807 
L 237.162505 335.179601 
L 237.48309 333.653686 
L 237.803675 333.059978 
L 237.963968 333.117999 
L 238.284553 333.934885 
L 238.605138 335.651381 
L 239.086016 339.757791 
L 239.727187 347.503608 
L 241.16982 366.507143 
L 241.490405 368.84047 
L 241.810991 369.629965 
L 241.971283 369.340756 
L 242.291869 367.274538 
L 242.612454 363.245768 
L 243.093332 354.199898 
L 245.177136 309.859463 
L 245.818306 300.981846 
L 246.138892 298.399005 
L 246.459477 297.309168 
L 246.619769 297.336631 
L 246.780062 297.733016 
L 247.100647 299.542141 
L 247.581525 304.28696 
L 249.505037 326.840235 
L 249.985915 329.182003 
L 250.3065 329.58228 
L 250.466792 329.42825 
L 250.787378 328.424228 
L 251.107963 326.531568 
L 251.588841 322.193887 
L 252.390304 311.998848 
L 253.512352 297.099976 
L 253.99323 293.589791 
L 254.474108 132.331217 
L 254.794693 82.472119 
L 254.954986 78.12 
L 255.115279 85.319311 
L 255.435864 123.380577 
L 256.557912 288.324853 
L 256.878497 304.018081 
L 257.03879 306.082387 
L 257.199083 305.450072 
L 257.519668 299.785241 
L 258.000546 290.349065 
L 258.321131 286.930255 
L 258.641716 285.723353 
L 258.802009 285.62655 
L 259.282887 402.31825 
L 259.603472 428.222508 
L 259.763765 429.750976 
L 259.924057 425.424046 
L 260.244643 404.416331 
L 261.206398 325.610128 
L 261.526984 311.885469 
L 261.847569 305.435422 
L 262.007861 304.332957 
L 262.168154 304.282216 
L 262.328447 305.027609 
L 262.649032 308.031786 
L 263.77108 320.54685 
L 264.251958 323.492953 
L 264.572543 324.505015 
L 264.893129 324.8929 
L 265.213714 324.792396 
L 265.534299 324.318286 
L 266.015177 323.057316 
L 266.496055 321.175504 
L 267.137225 317.49805 
L 267.778396 312.169619 
L 268.740152 301.579121 
L 269.541615 293.650699 
L 269.8622 292.054549 
L 270.022493 291.80623 
L 270.182785 291.985568 
L 270.343078 292.626716 
L 270.663663 295.360799 
L 271.144541 302.878068 
L 271.946004 320.809048 
L 273.228345 348.753884 
L 273.869516 359.28418 
L 274.350394 364.122558 
L 274.670979 365.465433 
L 274.831271 365.545966 
L 274.991564 365.244036 
L 275.312149 363.581638 
L 275.793027 358.953888 
L 277.876831 335.009482 
L 278.197417 333.563805 
L 278.518002 333.052968 
L 278.678294 333.152362 
L 278.99888 334.050033 
L 279.319465 335.842499 
L 279.800343 340.048314 
L 280.441513 347.884937 
L 281.884147 366.762112 
L 282.204732 368.975989 
L 282.365025 369.514227 
L 282.525317 369.613627 
L 282.68561 369.239781 
L 283.006195 366.998571 
L 283.326781 362.80755 
L 283.967951 350.019395 
L 285.570877 315.075263 
L 286.37234 302.448232 
L 286.853218 298.243026 
L 287.173804 297.286723 
L 287.334096 297.379704 
L 287.494389 297.838599 
L 287.814974 299.758252 
L 288.295852 304.618593 
L 290.219363 327.03153 
L 290.539949 328.742432 
L 290.860534 329.531671 
L 291.020827 329.57234 
L 291.181119 329.377313 
L 291.501704 328.293563 
L 291.82229 326.326376 
L 292.303168 321.892262 
L 293.104631 311.602217 
L 293.585509 304.741683 
L 294.066386 149.247176 
L 294.386972 102.736417 
L 294.547264 100.869111 
L 294.707557 110.839231 
L 295.028142 154.734877 
L 295.989898 305.349745 
L 296.310483 324.978772 
L 296.470776 328.284867 
L 296.631068 328.226262 
L 296.951654 321.510075 
L 297.913409 294.058152 
L 298.394287 287.740807 
L 298.875165 401.499411 
L 299.19575 428.075352 
L 299.356043 429.950994 
L 299.516336 425.908215 
L 299.836921 405.330039 
L 300.798677 326.495879 
L 301.119262 312.204285 
L 301.439847 305.127426 
L 301.60014 303.744176 
L 301.760432 303.454406 
L 301.920725 304.010552 
L 302.24131 306.793943 
L 303.523651 321.066803 
L 304.004529 323.844652 
L 304.325114 324.78841 
L 304.6457 325.138329 
L 304.966285 325.013243 
L 305.28687 324.50662 
L 305.767748 323.140169 
L 306.248626 321.051801 
L 306.889796 316.951078 
L 307.530967 311.139891 
L 309.294186 292.708235 
L 309.614771 291.571159 
L 309.775064 291.603226 
L 309.935356 292.088839 
L 310.255942 294.506756 
L 310.736819 301.627065 
L 311.538283 319.359976 
L 312.820624 347.592604 
L 313.461794 358.449793 
L 313.942672 363.678733 
L 314.263257 365.319531 
L 314.42355 365.549193 
L 314.583842 365.391431 
L 314.904428 363.989224 
L 315.385306 359.645654 
L 316.347061 347.091983 
L 317.148524 337.879503 
L 317.629402 334.465026 
L 317.949988 333.305076 
L 318.11028 333.077514 
L 318.270573 333.08677 
L 318.430865 333.33147 
L 318.751451 334.511642 
L 319.232329 337.901707 
L 319.873499 344.954067 
L 321.636718 367.594302 
L 321.957303 369.359992 
L 322.117596 369.63087 
L 322.277888 369.440291 
L 322.438181 368.761014 
L 322.758766 365.900497 
L 323.239644 358.183116 
L 324.2014 336.547864 
L 325.323448 313.243701 
L 325.964619 303.194889 
L 326.445497 298.597254 
L 326.766082 297.350479 
L 326.926375 297.300376 
L 327.086667 297.622388 
L 327.407252 299.298978 
L 327.88813 303.902907 
L 329.971934 327.657537 
L 330.29252 329.087476 
L 330.613105 329.584757 
L 330.773398 329.479071 
L 331.093983 328.5693 
L 331.414568 326.765057 
L 331.895446 322.542475 
L 332.536616 314.69003 
L 333.818957 297.440836 
L 334.299835 137.879765 
L 334.620421 88.969976 
L 334.780713 85.729207 
L 334.941006 94.338718 
L 335.261591 135.782063 
L 336.223347 288.783422 
L 336.543932 311.493187 
L 336.704225 316.160615 
L 336.864517 317.292794 
L 337.02481 315.793543 
L 337.505688 304.021491 
L 337.986566 293.000912 
L 338.307151 288.745462 
L 338.627736 286.52676 
L 339.108614 401.578782 
L 339.429199 427.786627 
L 339.589492 429.480389 
L 339.749785 425.294684 
L 340.07037 404.527582 
L 341.032126 325.879739 
L 341.352711 311.910675 
L 341.673296 305.175066 
L 341.833589 303.943568 
L 341.993881 303.783661 
L 342.154174 304.444099 
L 342.474759 307.355857 
L 343.7571 321.399028 
L 344.237978 323.979077 
L 344.558563 324.800111 
L 344.879149 325.044835 
L 345.199734 324.836879 
L 345.520319 324.271177 
L 346.001197 322.856972 
L 346.482075 320.757769 
L 347.123245 316.67191 
L 347.764416 310.885005 
L 349.527635 292.693511 
L 349.84822 291.671734 
L 350.008513 291.770207 
L 350.168805 292.326205 
L 350.48939 294.888054 
L 350.970268 302.191345 
L 351.771731 320.019899 
L 353.054072 348.12336 
L 353.695243 358.834393 
L 354.176121 363.887257 
L 354.496706 365.392829 
L 354.656999 365.554535 
L 354.817291 365.330908 
L 355.137877 363.80935 
L 355.618754 359.334347 
L 356.740803 344.645561 
L 357.381973 337.631166 
L 357.862851 334.327643 
L 358.183436 333.24856 
L 358.343729 333.062099 
L 358.504022 333.112361 
L 358.664314 333.397605 
L 358.9849 334.656126 
L 359.465777 338.152134 
L 360.106948 345.310545 
L 361.870167 367.803952 
L 362.190752 369.43784 
L 362.351045 369.631429 
L 362.511337 369.357995 
L 362.831923 367.324561 
L 363.152508 363.326434 
L 363.633386 354.31276 
L 365.71719 309.947869 
L 366.35836 301.035738 
L 366.678946 298.429507 
L 366.999531 297.314665 
L 367.159823 297.329811 
L 367.320116 297.714412 
L 367.640701 299.502612 
L 368.121579 304.225356 
L 370.045091 326.803668 
L 370.525969 329.167616 
L 370.846554 329.583342 
L 371.006846 329.437002 
L 371.327432 328.447956 
L 371.648017 326.569321 
L 372.128895 322.24985 
L 372.930358 312.073008 
L 373.090651 309.787811 
L 373.571528 157.365099 
L 373.892114 112.562784 
L 374.052406 111.465983 
L 374.212699 122.086177 
L 374.533284 166.828363 
L 375.334747 298.063715 
L 375.655333 325.26531 
L 375.975918 334.273914 
L 376.13621 333.526558 
L 376.456796 325.729343 
L 377.418551 295.768239 
L 377.899429 288.473554 
L 378.380307 401.684528 
L 378.700892 428.470192 
L 378.861185 430.442638 
L 379.021478 426.471156 
L 379.342063 405.967753 
L 380.303819 326.914586 
L 380.624404 312.429201 
L 380.944989 305.15741 
L 381.105282 303.688624 
L 381.265574 303.325616 
L 381.425867 303.822468 
L 381.746452 306.530277 
L 383.189086 322.050042 
L 383.669964 324.353716 
L 383.990549 325.04042 
L 384.311134 325.184637 
L 384.63172 324.893456 
L 384.952305 324.242001 
L 385.433183 322.65686 
L 385.914061 320.30783 
L 386.555231 315.780946 
L 387.196402 309.544938 
L 388.799328 292.716093 
L 389.119913 291.527842 
L 389.280206 291.530222 
L 389.440498 291.984211 
L 389.761084 294.336947 
L 390.081669 298.600163 
L 390.722839 311.518514 
L 392.486058 350.381373 
L 393.127229 360.376256 
L 393.608107 364.626936 
L 393.928692 365.542987 
L 394.088984 365.41533 
L 394.40957 364.067935 
L 394.890448 359.785313 
L 395.691911 349.421411 
L 396.493374 339.54995 
L 396.974252 335.470716 
L 397.294837 333.815148 
L 397.615422 333.086849 
L 397.775715 333.077463 
L 397.936007 333.30371 
L 398.256593 334.448169 
L 398.737471 337.789792 
L 399.378641 344.793283 
L 401.302153 368.594916 
L 401.622738 369.626048 
L 401.78303 369.472836 
L 401.943323 368.832586 
L 402.263908 366.05009 
L 402.744786 358.42844 
L 403.706542 336.836776 
L 404.82859 313.472323 
L 405.469761 303.354406 
L 405.950639 298.677134 
L 406.271224 297.370518 
L 406.431517 297.290676 
L 406.591809 297.584068 
L 406.912394 299.209362 
L 407.393272 303.758089 
L 409.477076 327.582983 
L 409.797662 329.048768 
L 410.118247 329.583071 
L 410.27854 329.495872 
L 410.599125 328.62221 
L 410.91971 326.851929 
L 411.400588 322.673754 
L 412.041758 314.86161 
L 413.484392 295.999371 
L 413.644685 294.719033 
L 414.125563 133.846198 
L 414.446148 84.162383 
L 414.60644 80.221246 
L 414.766733 87.996666 
L 415.087318 127.550056 
L 416.049074 279.56084 
L 416.369659 303.616626 
L 416.690245 310.651482 
L 416.850537 309.692479 
L 417.171122 303.363199 
L 417.812293 290.256402 
L 418.132878 287.18204 
L 418.453463 285.953587 
L 418.934341 401.929813 
L 419.254927 427.948099 
L 419.415219 429.540857 
L 419.575512 425.270372 
L 419.896097 404.366257 
L 420.857853 325.669508 
L 421.178438 311.855514 
L 421.499023 305.296526 
L 421.659316 304.144608 
L 421.819609 304.052312 
L 421.979901 304.765904 
L 422.300486 307.737866 
L 423.422535 320.378373 
L 423.903413 323.422212 
L 424.223998 324.49636 
L 424.544583 324.938758 
L 424.865168 324.882451 
L 425.185754 324.440979 
L 425.666632 323.208033 
L 426.147509 321.334134 
L 426.628387 318.716069 
L 427.269558 313.805751 
L 428.071021 305.417068 
L 429.032777 294.942278 
L 429.513655 292.026741 
L 429.673947 291.74612 
L 429.83424 291.890513 
L 429.994532 292.494935 
L 430.315118 295.154974 
L 430.795996 302.580906 
L 431.597459 320.46943 
L 432.8798 348.483062 
L 433.52097 359.091956 
L 434.001848 364.023171 
L 434.322433 365.436196 
L 434.482726 365.55165 
L 434.643019 365.283356 
L 434.963604 363.681316 
L 435.444482 359.118708 
L 437.528286 335.095655 
L 437.848871 333.608885 
L 438.169456 333.055647 
L 438.329749 333.133884 
L 438.650334 333.990269 
L 438.970919 335.74394 
L 439.451797 339.899057 
L 440.092968 347.689548 
L 441.535601 366.632792 
L 441.856187 368.908162 
L 442.016479 369.483618 
L 442.176772 369.623784 
L 442.337065 369.293323 
L 442.65765 367.141628 
L 442.978235 363.033324 
L 443.619406 350.344796 
L 445.222332 315.343646 
L 446.023795 302.619767 
L 446.504673 298.321378 
L 446.825258 297.296754 
L 446.985551 297.356269 
L 447.145843 297.78327 
L 447.466429 299.646628 
L 447.947306 304.448359 
L 449.870818 326.934492 
L 450.351696 329.21833 
L 450.511988 329.516538 
L 450.672281 329.578324 
L 450.832574 329.404257 
L 451.153159 328.361249 
L 451.473744 326.432115 
L 451.954622 322.047171 
L 452.756085 311.805278 
L 453.557548 300.635133 
L 454.038426 142.793799 
L 454.359011 94.914932 
L 454.519304 92.329095 
L 454.679597 101.622788 
L 455.000182 144.399619 
L 455.961938 296.859189 
L 456.282523 318.167069 
L 456.442816 322.200498 
L 456.603108 322.771248 
L 456.763401 320.772442 
L 457.244279 307.644914 
L 457.725157 295.213902 
L 458.206034 288.346335 
L 458.366327 287.090498 
L 458.847205 401.463642 
L 459.16779 427.846844 
L 459.328083 429.6293 
L 459.488375 425.514767 
L 459.808961 404.848096 
L 460.770716 326.148483 
L 461.091302 312.028978 
L 461.411887 305.130949 
L 461.57218 303.826901 
L 461.732472 303.604975 
L 461.892765 304.215826 
L 462.21335 307.067626 
L 463.495691 321.234585 
L 463.976569 323.915142 
L 464.297154 324.798368 
L 464.617739 325.096356 
L 464.938325 324.930338 
L 465.25891 324.394516 
L 465.739788 323.00442 
L 466.220666 320.910613 
L 466.861836 316.817066 
L 467.503007 311.017575 
L 469.266226 292.700447 
L 469.586811 291.618761 
L 469.747103 291.682806 
L 469.907396 292.202368 
L 470.227981 294.689898 
L 470.708859 301.899191 
L 471.510322 319.67953 
L 472.792663 347.850029 
L 473.433834 358.636997 
L 473.914712 363.781043 
L 474.235297 365.356455 
L 474.39559 365.553202 
L 474.555882 365.363504 
L 474.876467 363.903326 
L 475.357345 359.495694 
L 476.319101 346.913643 
L 477.120564 337.758619 
L 477.601442 334.397702 
L 477.922027 333.276849 
L 478.08232 333.069171 
L 478.242613 333.098274 
L 478.402905 333.362604 
L 478.72349 334.580732 
L 479.204368 338.022178 
L 479.845539 345.126115 
L 481.608758 367.696973 
L 481.929343 369.399252 
L 482.089636 369.632875 
L 482.249928 369.402307 
L 482.570513 367.458214 
L 482.891099 363.543992 
L 483.371977 354.619236 
L 485.616073 307.566597 
L 486.096951 301.184452 
L 486.417536 298.514697 
L 486.738122 297.331727 
L 486.898414 297.313233 
L 487.058707 297.665601 
L 487.379292 299.396421 
L 487.86017 304.058303 
L 489.783682 326.70283 
L 490.264559 329.127123 
L 490.585145 329.584953 
L 490.745437 329.459589 
L 491.066023 328.511424 
L 491.386608 326.671122 
L 491.867486 322.401511 
L 492.508656 314.506713 
L 493.630705 299.080931 
L 494.111582 140.388431 
L 494.432168 92.001289 
L 494.59246 89.110952 
L 494.752753 98.095605 
L 495.073338 140.294094 
L 496.035094 293.152433 
L 496.355679 315.12777 
L 496.515972 319.459438 
L 496.676264 320.29266 
L 496.836557 318.525789 
L 497.317435 306.017109 
L 497.798313 294.2173 
L 498.279191 287.927287 
L 498.439483 286.824922 
L 498.920361 401.496879 
L 499.240946 427.79863 
L 499.401239 429.540387 
L 499.561532 425.393552 
L 499.882117 404.682868 
L 500.843873 326.016837 
L 501.164458 311.967996 
L 501.485043 305.145411 
L 501.645336 303.874989 
L 501.805628 303.681834 
L 501.965921 304.315757 
L 502.286506 307.195773 
L 503.568847 321.309326 
L 504.049725 323.944936 
L 504.37031 324.800293 
L 504.690896 325.074392 
L 505.011481 324.889549 
L 505.332066 324.3403 
L 505.812944 322.939343 
L 506.293822 320.84306 
L 506.934992 316.752886 
L 507.576163 310.958946 
L 509.339382 292.697155 
L 509.659967 291.641961 
L 509.82026 291.72125 
L 509.980552 292.256959 
L 510.301138 294.777472 
L 510.782015 302.028608 
L 511.583479 319.83065 
L 512.86582 347.971492 
L 513.50699 358.724892 
L 513.987868 363.828552 
L 514.308453 365.372981 
L 514.468746 365.554168 
L 514.629038 365.349395 
L 514.949624 363.861918 
L 515.430502 359.424264 
L 516.392257 346.829387 
L 517.19372 337.701864 
L 517.674598 334.366386 
L 517.995184 333.264062 
L 518.155476 333.0658 
L 518.315769 333.104294 
L 518.476061 333.37791 
L 518.796647 334.613976 
L 519.277525 338.079668 
L 519.918695 345.207851 
L 521.681914 367.744776 
L 522.002499 369.416798 
L 522.162792 369.632692 
L 522.323084 369.383126 
L 522.64367 367.39939 
L 522.964255 363.447866 
L 523.445133 354.483443 
L 525.68923 307.467146 
L 526.170107 301.11813 
L 526.490693 298.476523 
L 526.811278 297.32378 
L 526.971571 297.320226 
L 527.131863 297.686918 
L 527.452448 299.443264 
L 527.933326 304.132279 
L 529.856838 326.747789 
L 530.337716 329.145323 
L 530.658301 329.58447 
L 530.818594 329.449795 
L 531.139179 328.483477 
L 531.459764 326.626146 
L 531.940642 322.334368 
L 532.581812 314.419726 
L 533.864153 297.235254 
L 534.345031 137.568098 
L 534.665617 88.594431 
L 534.825909 85.307011 
L 534.986202 93.864803 
L 535.306787 135.199506 
L 536.268543 288.19195 
L 536.589128 310.996644 
L 536.749421 315.70816 
L 536.909713 316.879894 
L 537.070006 315.416351 
L 537.550884 303.744555 
L 538.031762 292.832494 
L 538.352347 288.647679 
L 538.672932 286.487666 
L 539.15381 401.593687 
L 539.474395 427.789002 
L 539.634688 429.476267 
L 539.794981 425.285234 
L 540.115566 404.510098 
L 541.077322 325.862828 
L 541.397907 311.904266 
L 541.718492 305.18027 
L 541.878785 303.953983 
L 542.039077 303.798519 
L 542.19937 304.462487 
L 542.519955 307.378402 
L 543.802296 321.411328 
L 544.283174 323.983606 
L 544.603759 324.799852 
L 544.924345 325.040484 
L 545.24493 324.829313 
L 545.565515 324.261326 
L 546.046393 322.84529 
L 546.527271 320.745695 
L 547.168441 316.660457 
L 547.809612 310.874554 
L 549.572831 292.693047 
L 549.893416 291.675996 
L 550.053709 291.777179 
L 550.214001 292.33604 
L 550.534586 294.903712 
L 551.015464 302.214325 
L 551.816927 320.046553 
L 553.099268 348.144728 
L 553.740439 358.849765 
L 554.221317 363.895454 
L 554.541902 365.395548 
L 554.702195 365.554512 
L 554.862487 365.328232 
L 555.183073 363.801883 
L 555.66395 359.321641 
L 556.785999 344.631325 
L 557.427169 337.621243 
L 557.908047 334.322229 
L 558.228632 333.246422 
L 558.388925 333.061624 
L 558.549218 333.113544 
L 558.70951 333.400426 
L 559.030096 334.662108 
L 559.510973 338.162382 
L 560.152144 345.325038 
L 561.915363 367.812224 
L 562.235948 369.44072 
L 562.396241 369.631158 
L 562.556533 369.354356 
L 562.877119 367.313918 
L 563.197704 363.309237 
L 563.678582 354.288666 
L 565.762386 309.928963 
L 566.403556 301.024194 
L 566.724142 298.422956 
L 567.044727 297.313456 
L 567.205019 297.331235 
L 567.365312 297.718356 
L 567.685897 299.511032 
L 568.166775 304.238504 
L 570.090287 326.8115 
L 570.571165 329.170711 
L 570.89175 329.583136 
L 571.052042 329.435153 
L 571.372628 328.442906 
L 571.693213 326.561273 
L 572.174091 322.237908 
L 572.975554 312.057167 
L 574.097602 297.142067 
L 574.257895 295.638521 
L 574.738773 135.179422 
L 575.059358 85.732797 
L 575.219651 82.053434 
L 575.379943 90.156827 
L 575.700529 130.489115 
L 576.662284 283.106719 
L 576.98287 306.680464 
L 577.143162 311.756623 
L 577.303455 313.258677 
L 577.463747 312.096394 
L 577.784333 305.369977 
L 578.425503 291.34352 
L 578.746088 287.793877 
L 579.066674 286.164568 
L 579.547552 401.76317 
L 579.868137 427.852757 
L 580.028429 429.484235 
L 580.188722 425.246759 
L 580.509307 404.398398 
L 581.471063 325.735831 
L 581.791648 311.864478 
L 582.112234 305.238727 
L 582.272526 304.056641 
L 582.432819 303.938793 
L 582.593111 304.632452 
L 582.913697 307.582528 
L 584.196038 321.518927 
L 584.676916 324.021467 
L 584.997501 324.794908 
L 585.318086 324.999034 
L 585.638671 324.759237 
L 585.959257 324.170969 
L 586.440134 322.738796 
L 586.921012 320.635929 
L 587.562183 316.556505 
L 588.203353 310.779804 
L 589.966572 292.689471 
L 590.287157 291.715329 
L 590.44745 291.841071 
L 590.607743 292.425848 
L 590.928328 295.046131 
L 591.409206 302.422617 
L 592.210669 320.287366 
L 593.49301 348.337552 
L 594.13418 358.988071 
L 594.615058 363.968723 
L 594.935644 365.419273 
L 595.095936 365.553455 
L 595.256229 365.303232 
L 595.576814 363.733707 
L 596.057692 359.206391 
L 598.141496 335.142526 
L 598.462081 333.633795 
L 598.782667 333.057862 
L 598.942959 333.124766 
L 599.263544 333.959012 
L 599.58413 335.691854 
L 600.065008 339.819695 
L 600.706178 347.585211 
L 602.148812 366.562596 
L 602.469397 368.870556 
L 602.62969 369.465795 
L 602.789982 369.627672 
L 602.950275 369.320363 
L 603.27086 367.216598 
L 603.591445 363.152825 
L 604.072323 354.070364 
L 606.156127 309.758471 
L 606.797298 300.920566 
L 607.117883 298.364567 
L 607.438468 297.303373 
L 607.598761 297.344927 
L 607.759054 297.75478 
L 608.079639 299.587786 
L 608.560517 304.357719 
L 610.484028 326.881832 
L 610.964906 329.198171 
L 611.285491 329.580753 
L 611.445784 329.417919 
L 611.766369 328.396762 
L 612.086954 326.488062 
L 612.567832 322.129583 
L 613.209003 314.155708 
L 613.689881 164.61011 
L 614.010466 121.32645 
L 614.170759 120.832279 
L 614.331051 131.904788 
L 614.651636 177.046934 
L 615.4531 305.589297 
L 615.773685 330.995052 
L 616.09427 338.559248 
L 616.254563 337.267092 
L 616.575148 328.654792 
L 617.536904 297.003442 
L 618.017782 289.069814 
L 618.498659 401.919218 
L 618.819245 428.873153 
L 618.979537 430.92 
L 619.13983 427.001016 
L 619.460415 406.5435 
L 620.422171 327.26993 
L 620.903049 308.1042 
L 621.223634 303.66094 
L 621.383927 303.239944 
L 621.544219 303.689821 
L 621.864805 306.337263 
L 623.307438 321.944849 
L 623.788316 324.318046 
L 624.108901 325.045537 
L 624.429487 325.223069 
L 624.750072 324.956659 
L 625.070657 324.321537 
L 625.551535 322.747469 
L 626.032413 320.398498 
L 626.673583 315.864498 
L 627.314754 309.620092 
L 628.91768 292.721644 
L 629.238265 291.497699 
L 629.398558 291.479275 
L 629.558851 291.911038 
L 629.879436 294.217743 
L 630.200021 298.438564 
L 630.841192 311.308103 
L 632.60441 350.216982 
L 633.245581 360.265908 
L 633.726459 364.577112 
L 634.047044 365.537153 
L 634.207337 365.430908 
L 634.527922 364.122597 
L 635.0088 359.883653 
L 635.810263 349.543055 
L 636.611726 339.642156 
L 637.092604 335.529827 
L 637.413189 333.848981 
L 637.733774 333.094346 
L 637.894067 333.071738 
L 638.05436 333.284893 
L 638.374945 334.403988 
L 638.855823 337.711157 
L 639.496993 344.67975 
L 641.420505 368.543247 
L 641.74109 369.620915 
L 641.901383 369.494084 
L 642.061675 368.881445 
L 642.382261 366.154337 
L 642.863138 358.601164 
L 643.824894 337.041827 
L 644.946943 313.634948 
L 645.588113 303.468565 
L 646.068991 298.735146 
L 646.389576 297.386151 
L 646.549869 297.285195 
L 646.710161 297.558231 
L 647.030747 299.146943 
L 647.511625 303.656077 
L 649.595429 327.529313 
L 649.916014 329.020459 
L 650.236599 329.580993 
L 650.396892 329.506906 
L 650.717477 328.658876 
L 651.038062 326.912733 
L 651.51894 322.766183 
L 652.160111 314.982921 
L 653.602744 296.079699 
L 653.92333 293.826938 
L 654.404207 132.625871 
L 654.724793 82.78046 
L 654.885085 78.530653 
L 655.045378 85.882673 
L 655.365963 124.355986 
L 656.488012 289.797618 
L 656.808597 305.313779 
L 656.968889 307.29245 
L 657.129182 306.577474 
L 657.449767 300.74086 
L 658.090938 288.833272 
L 658.411523 286.394666 
L 658.732108 285.707953 
L 659.212986 402.202926 
L 659.533571 428.135911 
L 659.693864 429.680902 
L 659.854157 425.368696 
L 660.174742 404.389124 
L 661.136498 325.618291 
L 661.457083 311.871387 
L 661.777668 305.3935 
L 661.937961 304.278371 
L 662.098253 304.217037 
L 662.258546 304.954416 
L 662.579131 307.950878 
L 663.70118 320.501791 
L 664.182058 323.474633 
L 664.502643 324.503589 
L 664.823228 324.906261 
L 665.143813 324.817708 
L 665.464399 324.352387 
L 665.945276 323.098893 
L 666.426154 321.219093 
L 667.067325 317.539559 
L 667.708495 312.207341 
L 668.670251 301.607781 
L 669.471714 293.657753 
L 669.792299 292.046619 
L 669.952592 291.789457 
L 670.112885 291.959237 
L 670.273177 292.590351 
L 670.593763 295.30424 
L 671.07464 302.796696 
L 671.876104 320.716331 
L 673.158445 348.680026 
L 673.799615 359.231904 
L 674.280493 364.095706 
L 674.601078 365.457753 
L 674.761371 365.547817 
L 674.921663 365.25506 
L 675.242249 363.609102 
L 675.723127 358.999046 
L 677.806931 335.032844 
L 678.127516 333.575932 
L 678.448101 333.053511 
L 678.608394 333.147127 
L 678.928979 334.033529 
L 679.249564 335.815411 
L 679.730442 340.007409 
L 680.371613 347.831497 
L 681.814246 366.727018 
L 682.134832 368.957774 
L 682.295124 369.506213 
L 682.455417 369.616777 
L 682.615709 369.254801 
L 682.936295 367.038041 
L 683.25688 362.869556 
L 683.89805 350.108381 
L 685.500977 315.148466 
L 686.30244 302.494847 
L 686.783318 298.26413 
L 687.103903 297.289162 
L 687.264196 297.373011 
L 687.424488 297.823212 
L 687.745073 299.727538 
L 688.225951 304.57197 
L 690.149463 327.005193 
L 690.630341 329.244836 
L 690.790633 329.527725 
L 690.950926 329.574162 
L 691.111219 329.384858 
L 691.431804 328.312228 
L 691.752389 326.355421 
L 692.233267 321.934705 
L 693.03473 311.65772 
L 694.156778 296.857622 
L 694.637656 136.997633 
L 694.958242 87.907991 
L 695.118534 84.53294 
L 695.278827 92.992325 
L 695.599412 134.117267 
L 696.561168 287.073735 
L 696.881753 310.054868 
L 697.042046 314.848809 
L 697.202338 316.094702 
L 697.362631 314.698303 
L 697.843509 303.216369 
L 698.324387 292.511495 
L 698.644972 288.462004 
L 698.965557 286.414606 
L 699.446435 401.624494 
L 699.76702 427.796247 
L 699.927313 429.471232 
L 700.087606 425.270082 
L 700.408191 404.479489 
L 701.369947 325.832012 
L 701.690532 311.893104 
L 702.011117 305.190958 
L 702.17141 303.974483 
L 702.331702 303.827383 
L 702.491995 304.497982 
L 702.81258 307.421658 
L 704.094921 321.434695 
L 704.575799 323.992102 
L 704.896384 324.799195 
L 705.21697 325.032009 
L 705.537555 324.814698 
L 705.85814 324.24235 
L 706.339018 322.822827 
L 706.819896 320.722496 
L 707.461066 316.63846 
L 708.102237 310.854485 
L 709.865456 292.692192 
L 710.186041 291.68422 
L 710.346334 291.790605 
L 710.506626 292.35496 
L 710.827211 294.933801 
L 711.308089 302.25844 
L 712.109552 320.097674 
L 713.391893 348.185696 
L 714.033064 358.87921 
L 714.513942 363.911127 
L 714.834527 365.400712 
L 714.99482 365.554414 
L 715.155112 365.323048 
L 715.475698 363.787517 
L 715.956575 359.297245 
L 717.078624 344.60403 
L 717.719794 337.602234 
L 718.200672 334.311875 
L 718.521257 333.242354 
L 718.68155 333.060747 
L 718.841843 333.115847 
L 719.002135 333.40587 
L 719.322721 334.673615 
L 719.803598 338.182066 
L 720.444769 345.352856 
L 722.207988 367.828046 
L 722.528573 369.446185 
L 722.688866 369.630575 
L 722.849158 369.347308 
L 723.169744 367.293434 
L 723.490329 363.276191 
L 723.971207 354.242416 
L 726.055011 309.892723 
L 726.696181 301.002094 
L 727.016767 298.410441 
L 727.337352 297.31119 
L 727.497644 297.334017 
L 727.657937 297.725968 
L 727.978522 299.527223 
L 728.4594 304.263746 
L 730.382912 326.826495 
L 730.86379 329.176616 
L 731.184375 329.58271 
L 731.344667 329.431574 
L 731.665253 328.433189 
L 731.985838 326.545807 
L 732.466716 322.214977 
L 733.268179 312.026774 
L 734.069642 300.833772 
L 734.55052 143.10284 
L 734.871105 95.289485 
L 735.031398 92.741022 
L 735.19169 102.071669 
L 735.512276 144.914953 
L 736.474031 297.30922 
L 736.794617 318.533352 
L 736.954909 322.529764 
L 737.115202 323.068121 
L 737.275495 321.040877 
L 737.756372 307.838647 
L 738.23725 295.33283 
L 738.718128 288.397347 
L 738.878421 287.12351 
L 739.359299 401.461729 
L 739.679884 427.854929 
L 739.840177 429.642325 
L 740.000469 425.531672 
L 740.321054 404.870113 
L 741.28281 326.165346 
L 741.603395 312.037079 
L 741.923981 305.129785 
L 742.084273 303.821616 
L 742.244566 303.596163 
L 742.404859 304.204178 
L 742.725444 307.052479 
L 744.007785 321.225584 
L 744.488663 323.91148 
L 744.809248 324.798021 
L 745.129833 325.098853 
L 745.450418 324.935076 
L 745.771004 324.400854 
L 746.251882 323.012054 
L 746.732759 320.918545 
L 747.37393 316.824602 
L 748.0151 311.024458 
L 749.778319 292.700855 
L 750.098905 291.616057 
L 750.259197 291.678309 
L 750.41949 292.195971 
L 750.740075 294.679614 
L 751.220953 301.883963 
L 752.022416 319.661713 
L 753.304757 347.835697 
L 753.945928 358.626607 
L 754.426805 363.775405 
L 754.747391 365.354466 
L 754.907683 365.553049 
L 755.067976 365.365129 
L 755.388561 363.908175 
L 755.869439 359.504094 
L 756.831195 346.923581 
L 757.632658 337.765328 
L 758.113536 334.401417 
L 758.434121 333.27838 
L 758.594414 333.069593 
L 758.754706 333.097589 
L 758.914999 333.360825 
L 759.235584 334.576837 
L 759.716462 338.015421 
L 760.357633 345.116493 
L 762.120851 367.691304 
L 762.441437 369.397139 
L 762.601729 369.632849 
L 762.762022 369.404517 
L 763.082607 367.465095 
L 763.403192 363.555276 
L 763.88407 354.635218 
L 766.128167 307.578341 
L 766.609045 301.192303 
L 766.92963 298.519235 
L 767.250215 297.332703 
L 767.410508 297.312447 
L 767.570801 297.663125 
L 767.891386 299.39093 
L 768.372264 304.049601 
L 770.295775 326.697509 
L 770.776653 329.124954 
L 771.097238 329.584986 
L 771.257531 329.460719 
L 771.578116 328.514695 
L 771.898702 326.676401 
L 772.379579 322.409407 
L 773.02075 314.516957 
L 773.822213 303.193811 
L 774.303091 146.799263 
L 774.623676 99.770111 
L 774.783969 97.644012 
L 774.944261 107.378529 
L 775.264847 150.908774 
L 776.226602 302.328884 
L 776.547188 322.579286 
L 776.70748 326.151139 
L 776.867773 326.320789 
L 777.028066 323.972606 
L 777.508943 309.94434 
L 778.150114 293.448995 
L 778.630992 287.502815 
L 779.11187 401.469763 
L 779.432455 427.976105 
L 779.592748 429.818581 
L 779.75304 425.750614 
L 780.073625 405.142841 
L 781.035381 326.36543 
L 781.355966 312.136718 
L 781.676552 305.124492 
L 781.836844 303.769786 
L 781.997137 303.504472 
L 782.15743 304.080373 
L 782.478015 306.888665 
L 783.760356 321.126059 
L 784.241234 323.870046 
L 784.561819 324.792714 
L 784.882404 325.12454 
L 785.202989 324.985198 
L 785.523575 324.468411 
L 786.004453 323.093739 
L 786.48533 321.00349 
L 787.126501 316.905267 
L 787.767671 311.098111 
L 789.53089 292.705456 
L 789.851476 291.587331 
L 790.011768 291.630355 
L 790.172061 292.127614 
L 790.492646 294.569451 
L 790.973524 301.720441 
L 791.774987 319.469902 
L 793.057328 347.681249 
L 793.698499 358.514397 
L 794.179376 363.714211 
L 794.499962 365.332535 
L 794.660254 365.550873 
L 794.820547 365.382116 
L 795.141132 363.959931 
L 795.62201 359.594235 
L 796.583766 347.030609 
L 797.385229 337.837786 
L 797.866107 334.441699 
L 798.186692 333.295184 
L 798.346985 333.074459 
L 798.507277 333.09054 
L 798.66757 333.341992 
L 798.988155 334.535224 
L 799.469033 337.94298 
L 800.110204 345.013129 
L 801.873422 367.629861 
L 802.194008 369.373826 
L 802.3543 369.631925 
L 802.514593 369.427618 
L 802.674886 368.734027 
L 802.995471 365.844975 
L 803.476349 358.092794 
L 804.438104 336.442167 
L 805.560153 313.160212 
L 806.201323 303.136923 
L 806.682201 298.568575 
L 807.002786 297.34373 
L 807.163079 297.304503 
L 807.323372 297.636967 
L 807.643957 299.33225 
L 808.124835 303.956203 
L 810.048346 326.63997 
L 810.529224 329.101292 
L 810.849809 329.585011 
L 811.010102 329.472558 
L 811.330687 328.549578 
L 811.651273 326.732923 
L 812.13215 322.49414 
L 812.773321 314.627066 
L 813.414491 305.53343 
L 813.895369 150.506505 
L 814.215955 104.261857 
L 814.376247 102.522278 
L 814.53654 112.605475 
L 814.857125 156.666412 
L 815.658588 289.896331 
L 815.979173 318.835175 
L 816.299759 329.315183 
L 816.460051 329.143303 
L 816.780637 322.245723 
L 817.742392 294.352063 
L 818.22327 287.859805 
L 818.704148 401.520402 
L 819.024733 428.130814 
L 819.185026 430.022686 
L 819.345319 425.992093 
L 819.665904 405.427652 
L 820.62766 326.562262 
L 820.948245 312.239239 
L 821.26883 305.130351 
L 821.429123 303.732989 
L 821.589415 303.431129 
L 821.749708 303.977498 
L 822.070293 306.748503 
L 823.352634 321.037968 
L 823.833512 323.832128 
L 824.154097 324.786047 
L 824.474683 325.144682 
L 824.795268 325.026457 
L 825.115853 324.524722 
L 825.596731 323.162214 
L 826.077609 321.074739 
L 826.718779 316.972801 
L 827.35995 311.159684 
L 829.123169 292.709585 
L 829.443754 291.563515 
L 829.604047 291.590375 
L 829.764339 292.07045 
L 830.084924 294.476975 
L 830.565802 301.582632 
L 831.367265 319.307567 
L 832.649606 347.550306 
L 833.290777 358.418915 
L 833.771655 363.661713 
L 834.09224 365.313219 
L 834.252533 365.54828 
L 834.412825 365.395764 
L 834.733411 364.003097 
L 835.214288 359.670107 
L 836.176044 347.121254 
L 836.977507 337.899441 
L 837.458385 334.476209 
L 837.77897 333.309858 
L 837.939263 333.079038 
L 838.099556 333.085041 
L 838.259848 333.326523 
L 838.580434 334.500467 
L 839.061311 337.882092 
L 839.702482 344.925953 
L 841.465701 367.577261 
L 841.786286 369.353277 
L 841.946579 369.630233 
L 842.106871 369.446188 
L 842.267164 368.773729 
L 842.587749 365.926818 
L 843.068627 358.226071 
L 844.030383 336.598258 
L 845.152431 313.283535 
L 845.793602 303.2226 
L 846.27448 298.61103 
L 846.595065 297.353806 
L 846.755357 297.298518 
L 846.91565 297.615543 
L 847.236235 299.283207 
L 847.717113 303.877556 
L 849.800917 327.644623 
L 850.121503 329.080824 
L 850.442088 329.584568 
L 850.60238 329.482108 
L 850.922966 328.578634 
L 851.243551 326.780311 
L 851.724429 322.565462 
L 852.365599 314.720013 
L 853.808233 295.906973 
L 854.128818 293.737572 
L 854.289111 293.226071 
L 854.449403 293.155881 
L 854.609696 293.560746 
L 855.090574 133.296057 
L 855.411159 84.469982 
L 855.571452 79.539555 
L 855.731744 85.531571 
L 856.05233 119.782576 
L 857.174378 277.328841 
L 857.494963 293.922527 
L 857.655256 296.501569 
L 857.815549 296.404673 
L 858.136134 291.96662 
L 858.617012 285.046395 
L 858.937597 283.634586 
L 859.09789 283.810552 
L 859.418475 285.099915 
L 859.899353 403.583535 
L 860.219938 429.310394 
L 860.380231 430.727322 
L 860.540523 426.294834 
L 860.861108 405.049904 
L 861.822864 325.781598 
L 862.143449 312.194616 
L 862.464035 305.938191 
L 862.624327 304.924289 
L 862.78462 304.945793 
L 863.105205 307.086141 
L 864.708131 322.926908 
L 865.028717 324.142897 
L 865.349302 324.684855 
L 865.669887 324.695246 
L 865.990472 324.30678 
L 866.47135 323.175423 
L 866.952228 321.480079 
L 867.593399 318.182029 
L 868.234569 313.321371 
L 869.036032 305.011835 
L 869.997788 294.787898 
L 870.318373 292.698202 
L 870.638959 291.968419 
L 870.799251 292.232775 
L 871.119836 294.17654 
L 871.440422 298.039872 
L 871.9213 306.889207 
L 874.325689 357.534141 
L 874.806567 363.17837 
L 875.127152 365.135272 
L 875.287445 365.523632 
L 875.447737 365.519769 
L 875.60803 365.136868 
L 875.928615 363.330054 
L 876.409493 358.548437 
L 878.333005 335.820127 
L 878.813882 333.462278 
L 879.134468 333.054382 
L 879.29476 333.205027 
L 879.615346 334.202516 
L 879.935931 336.088509 
L 880.416809 340.41597 
L 881.218272 350.600748 
L 882.34032 365.550962 
L 882.821198 369.127307 
L 882.981491 369.573819 
L 883.141783 369.573186 
L 883.302076 369.093363 
L 883.622661 366.635145 
L 884.103539 359.420871 
L 884.905002 341.765921 
L 886.187343 314.428825 
L 886.828514 304.033844 
L 887.309392 299.032176 
L 887.629977 297.478535 
L 887.790269 297.274973 
L 887.950562 297.44868 
L 888.271147 298.857716 
L 888.752025 303.169758 
L 889.713781 315.620893 
L 890.515244 324.77957 
L 890.996122 328.179565 
L 891.316707 329.334593 
L 891.477 329.560542 
L 891.637292 329.550009 
L 891.797585 329.304226 
L 892.11817 328.122024 
L 892.599048 324.728376 
L 893.240219 317.671138 
L 894.362267 302.077786 
L 894.843145 145.045759 
L 895.16373 97.644623 
L 895.324023 95.323452 
L 895.484315 104.874504 
L 895.804901 148.10179 
L 896.766656 300.025018 
L 897.087242 320.731367 
L 897.247534 324.500725 
L 897.407827 324.841266 
L 897.56812 322.641208 
L 898.048997 308.990346 
L 898.690168 292.976978 
L 899.171046 287.32621 
L 899.651924 401.459506 
L 899.972509 427.913544 
L 900.132802 429.730741 
L 900.293094 425.643316 
L 900.613679 405.011586 
L 901.575435 326.270928 
L 901.89602 312.088935 
L 902.216606 305.125239 
L 902.376898 303.792026 
L 902.537191 303.545124 
L 902.697484 304.135876 
L 903.018069 306.962749 
L 904.30041 321.171551 
L 904.781288 323.889189 
L 905.101873 324.795461 
L 905.422458 325.113219 
L 905.743043 324.962786 
L 906.063629 324.438087 
L 906.544507 323.057004 
L 907.025384 320.965275 
L 907.666555 316.868991 
L 908.307725 311.064997 
L 910.070944 292.703336 
L 910.39153 291.600204 
L 910.551822 291.651885 
L 910.712115 292.158334 
L 911.0327 294.619019 
L 911.513578 301.794106 
L 912.315041 319.55642 
L 913.597382 347.75095 
L 914.238553 358.565091 
L 914.71943 363.741925 
L 915.040016 365.342547 
L 915.200308 365.551974 
L 915.360601 365.37457 
L 915.681186 363.936687 
L 916.162064 359.553642 
L 917.12382 346.982323 
L 917.925283 337.805051 
L 918.406161 334.423463 
L 918.726746 333.287533 
L 918.887039 333.072191 
L 919.047331 333.093645 
L 919.207624 333.350412 
L 919.528209 334.553921 
L 920.009087 337.975589 
L 920.650258 345.059704 
L 922.413476 367.657671 
L 922.734062 369.384472 
L 922.894354 369.632486 
L 923.054647 369.417354 
L 923.21494 368.712483 
L 923.535525 365.800977 
L 924.016403 358.021491 
L 925.138451 332.724338 
L 926.260499 310.277699 
L 926.90167 301.238828 
L 927.222255 298.546209 
L 927.54284 297.338638 
L 927.703133 297.30797 
L 927.863426 297.648653 
L 928.184011 299.35862 
L 928.664889 303.998268 
L 930.5884 326.665983 
L 931.069278 329.112035 
L 931.389863 329.585073 
L 931.550156 329.467292 
L 931.870741 328.533917 
L 932.191327 326.707499 
L 932.672204 322.455982 
L 933.313375 314.577438 
L 933.794253 307.766264 
L 933.954545 250.122212 
L 933.954545 250.122212 
" clip-path="url(#p80ef534450)" style="fill: none; stroke: #1f77b4; stroke-width: 1.5; stroke-linecap: square"/>
   </g>
   <g id="line2d_15">
    <path d="M 173.045455 231.02569 
L 177.693941 231.02569 
L 177.854233 331.366327 
L 213.278903 331.366327 
L 213.439196 231.02569 
L 218.087682 231.02569 
L 218.247975 331.366327 
L 253.99323 331.366327 
L 254.153523 231.02569 
L 258.802009 231.02569 
L 258.962302 331.366327 
L 293.585509 331.366327 
L 293.745801 231.02569 
L 298.394287 231.02569 
L 298.55458 331.366327 
L 333.818957 331.366327 
L 333.97925 231.02569 
L 338.627736 231.02569 
L 338.788029 331.366327 
L 373.090651 331.366327 
L 373.250943 231.02569 
L 377.899429 231.02569 
L 378.059722 331.366327 
L 413.644685 331.366327 
L 413.804977 231.02569 
L 418.453463 231.02569 
L 418.613756 331.366327 
L 453.557548 331.366327 
L 453.717841 231.02569 
L 458.366327 231.02569 
L 458.52662 331.366327 
L 493.630705 331.366327 
L 493.790997 231.02569 
L 498.439483 231.02569 
L 498.599776 331.366327 
L 533.864153 331.366327 
L 534.024446 231.02569 
L 538.672932 231.02569 
L 538.833225 331.366327 
L 574.257895 331.366327 
L 574.418188 231.02569 
L 579.066674 231.02569 
L 579.226966 331.366327 
L 613.209003 331.366327 
L 613.369295 231.02569 
L 618.017782 231.02569 
L 618.178074 331.366327 
L 653.92333 331.366327 
L 654.083622 231.02569 
L 658.732108 231.02569 
L 658.892401 331.366327 
L 694.156778 331.366327 
L 694.317071 231.02569 
L 698.965557 231.02569 
L 699.12585 331.366327 
L 734.069642 331.366327 
L 734.229935 231.02569 
L 738.878421 231.02569 
L 739.038713 331.366327 
L 773.822213 331.366327 
L 773.982506 231.02569 
L 778.630992 231.02569 
L 778.791284 331.366327 
L 813.414491 331.366327 
L 813.574784 231.02569 
L 818.22327 231.02569 
L 818.383563 331.366327 
L 854.609696 331.366327 
L 854.769989 231.02569 
L 859.418475 231.02569 
L 859.578767 331.366327 
L 894.362267 331.366327 
L 894.52256 231.02569 
L 899.171046 231.02569 
L 899.331338 331.366327 
L 933.794253 331.366327 
L 933.954545 231.02569 
L 933.954545 231.02569 
" clip-path="url(#p80ef534450)" style="fill: none; stroke: #ff7f0e; stroke-width: 1.5; stroke-linecap: square"/>
   </g>
   <g id="line2d_16">
    <path d="M 929.466352 331.366327 
" clip-path="url(#p80ef534450)" style="fill: none; stroke: #000000; stroke-width: 1.5; stroke-linecap: square"/>
    <defs>
     <path id="m24bffbfca8" d="M 0 1 
C 0.265203 1 0.51958 0.894634 0.707107 0.707107 
C 0.894634 0.51958 1 0.265203 1 0 
C 1 -0.265203 0.894634 -0.51958 0.707107 -0.707107 
C 0.51958 -0.894634 0.265203 -1 0 -1 
C -0.265203 -1 -0.51958 -0.894634 -0.707107 -0.707107 
C -0.894634 -0.51958 -1 -0.265203 -1 0 
C -1 0.265203 -0.894634 0.51958 -0.707107 0.707107 
C -0.51958 0.894634 -0.265203 1 0 1 
z
" style="stroke: #000000"/>
    </defs>
    <g clip-path="url(#p80ef534450)">
     <use xlink:href="#m24bffbfca8" x="173.045455" y="231.02569" style="stroke: #000000"/>
     <use xlink:href="#m24bffbfca8" x="178.174819" y="331.366327" style="stroke: #000000"/>
     <use xlink:href="#m24bffbfca8" x="183.14389" y="331.366327" style="stroke: #000000"/>
     <use xlink:href="#m24bffbfca8" x="188.112961" y="231.02569" style="stroke: #000000"/>
     <use xlink:href="#m24bffbfca8" x="193.082033" y="331.366327" style="stroke: #000000"/>
     <use xlink:href="#m24bffbfca8" x="198.211397" y="331.366327" style="stroke: #000000"/>
     <use xlink:href="#m24bffbfca8" x="203.180468" y="231.02569" style="stroke: #000000"/>
     <use xlink:href="#m24bffbfca8" x="208.149539" y="331.366327" style="stroke: #000000"/>
     <use xlink:href="#m24bffbfca8" x="213.118611" y="231.02569" style="stroke: #000000"/>
     <use xlink:href="#m24bffbfca8" x="218.247975" y="331.366327" style="stroke: #000000"/>
     <use xlink:href="#m24bffbfca8" x="223.217046" y="331.366327" style="stroke: #000000"/>
     <use xlink:href="#m24bffbfca8" x="228.186118" y="231.02569" style="stroke: #000000"/>
     <use xlink:href="#m24bffbfca8" x="233.155189" y="331.366327" style="stroke: #000000"/>
     <use xlink:href="#m24bffbfca8" x="238.284553" y="331.366327" style="stroke: #000000"/>
     <use xlink:href="#m24bffbfca8" x="243.253624" y="231.02569" style="stroke: #000000"/>
     <use xlink:href="#m24bffbfca8" x="248.222696" y="331.366327" style="stroke: #000000"/>
     <use xlink:href="#m24bffbfca8" x="253.191767" y="231.02569" style="stroke: #000000"/>
     <use xlink:href="#m24bffbfca8" x="258.321131" y="331.366327" style="stroke: #000000"/>
     <use xlink:href="#m24bffbfca8" x="263.290202" y="331.366327" style="stroke: #000000"/>
     <use xlink:href="#m24bffbfca8" x="268.259274" y="231.02569" style="stroke: #000000"/>
     <use xlink:href="#m24bffbfca8" x="273.228345" y="331.366327" style="stroke: #000000"/>
     <use xlink:href="#m24bffbfca8" x="278.357709" y="331.366327" style="stroke: #000000"/>
     <use xlink:href="#m24bffbfca8" x="283.326781" y="231.02569" style="stroke: #000000"/>
     <use xlink:href="#m24bffbfca8" x="288.295852" y="331.366327" style="stroke: #000000"/>
     <use xlink:href="#m24bffbfca8" x="293.264923" y="231.02569" style="stroke: #000000"/>
     <use xlink:href="#m24bffbfca8" x="298.394287" y="331.366327" style="stroke: #000000"/>
     <use xlink:href="#m24bffbfca8" x="303.363359" y="331.366327" style="stroke: #000000"/>
     <use xlink:href="#m24bffbfca8" x="308.33243" y="231.02569" style="stroke: #000000"/>
     <use xlink:href="#m24bffbfca8" x="313.301501" y="331.366327" style="stroke: #000000"/>
     <use xlink:href="#m24bffbfca8" x="318.430865" y="331.366327" style="stroke: #000000"/>
     <use xlink:href="#m24bffbfca8" x="323.399937" y="231.02569" style="stroke: #000000"/>
     <use xlink:href="#m24bffbfca8" x="328.369008" y="331.366327" style="stroke: #000000"/>
     <use xlink:href="#m24bffbfca8" x="333.33808" y="231.02569" style="stroke: #000000"/>
     <use xlink:href="#m24bffbfca8" x="338.467444" y="331.366327" style="stroke: #000000"/>
     <use xlink:href="#m24bffbfca8" x="343.436515" y="331.366327" style="stroke: #000000"/>
     <use xlink:href="#m24bffbfca8" x="348.405586" y="231.02569" style="stroke: #000000"/>
     <use xlink:href="#m24bffbfca8" x="353.374658" y="331.366327" style="stroke: #000000"/>
     <use xlink:href="#m24bffbfca8" x="358.504022" y="331.366327" style="stroke: #000000"/>
     <use xlink:href="#m24bffbfca8" x="363.473093" y="231.02569" style="stroke: #000000"/>
     <use xlink:href="#m24bffbfca8" x="368.442164" y="331.366327" style="stroke: #000000"/>
     <use xlink:href="#m24bffbfca8" x="373.411236" y="231.02569" style="stroke: #000000"/>
     <use xlink:href="#m24bffbfca8" x="378.5406" y="331.366327" style="stroke: #000000"/>
     <use xlink:href="#m24bffbfca8" x="383.509671" y="331.366327" style="stroke: #000000"/>
     <use xlink:href="#m24bffbfca8" x="388.478743" y="231.02569" style="stroke: #000000"/>
     <use xlink:href="#m24bffbfca8" x="393.447814" y="331.366327" style="stroke: #000000"/>
     <use xlink:href="#m24bffbfca8" x="398.577178" y="331.366327" style="stroke: #000000"/>
     <use xlink:href="#m24bffbfca8" x="403.546249" y="231.02569" style="stroke: #000000"/>
     <use xlink:href="#m24bffbfca8" x="408.515321" y="331.366327" style="stroke: #000000"/>
     <use xlink:href="#m24bffbfca8" x="413.484392" y="231.02569" style="stroke: #000000"/>
     <use xlink:href="#m24bffbfca8" x="418.613756" y="331.366327" style="stroke: #000000"/>
     <use xlink:href="#m24bffbfca8" x="423.582827" y="331.366327" style="stroke: #000000"/>
     <use xlink:href="#m24bffbfca8" x="428.551899" y="231.02569" style="stroke: #000000"/>
     <use xlink:href="#m24bffbfca8" x="433.52097" y="331.366327" style="stroke: #000000"/>
     <use xlink:href="#m24bffbfca8" x="438.650334" y="331.366327" style="stroke: #000000"/>
     <use xlink:href="#m24bffbfca8" x="443.619406" y="231.02569" style="stroke: #000000"/>
     <use xlink:href="#m24bffbfca8" x="448.588477" y="331.366327" style="stroke: #000000"/>
     <use xlink:href="#m24bffbfca8" x="453.557548" y="231.02569" style="stroke: #000000"/>
     <use xlink:href="#m24bffbfca8" x="458.686912" y="331.366327" style="stroke: #000000"/>
     <use xlink:href="#m24bffbfca8" x="463.655984" y="331.366327" style="stroke: #000000"/>
     <use xlink:href="#m24bffbfca8" x="468.625055" y="231.02569" style="stroke: #000000"/>
     <use xlink:href="#m24bffbfca8" x="473.594126" y="331.366327" style="stroke: #000000"/>
     <use xlink:href="#m24bffbfca8" x="478.72349" y="331.366327" style="stroke: #000000"/>
     <use xlink:href="#m24bffbfca8" x="483.692562" y="231.02569" style="stroke: #000000"/>
     <use xlink:href="#m24bffbfca8" x="488.661633" y="331.366327" style="stroke: #000000"/>
     <use xlink:href="#m24bffbfca8" x="493.630705" y="231.02569" style="stroke: #000000"/>
     <use xlink:href="#m24bffbfca8" x="498.760069" y="331.366327" style="stroke: #000000"/>
     <use xlink:href="#m24bffbfca8" x="503.72914" y="331.366327" style="stroke: #000000"/>
     <use xlink:href="#m24bffbfca8" x="508.698211" y="231.02569" style="stroke: #000000"/>
     <use xlink:href="#m24bffbfca8" x="513.667283" y="331.366327" style="stroke: #000000"/>
     <use xlink:href="#m24bffbfca8" x="518.796647" y="331.366327" style="stroke: #000000"/>
     <use xlink:href="#m24bffbfca8" x="523.765718" y="231.02569" style="stroke: #000000"/>
     <use xlink:href="#m24bffbfca8" x="528.734789" y="331.366327" style="stroke: #000000"/>
     <use xlink:href="#m24bffbfca8" x="533.703861" y="231.02569" style="stroke: #000000"/>
     <use xlink:href="#m24bffbfca8" x="538.833225" y="331.366327" style="stroke: #000000"/>
     <use xlink:href="#m24bffbfca8" x="543.802296" y="331.366327" style="stroke: #000000"/>
     <use xlink:href="#m24bffbfca8" x="548.771368" y="231.02569" style="stroke: #000000"/>
     <use xlink:href="#m24bffbfca8" x="553.740439" y="331.366327" style="stroke: #000000"/>
     <use xlink:href="#m24bffbfca8" x="558.869803" y="331.366327" style="stroke: #000000"/>
     <use xlink:href="#m24bffbfca8" x="563.838874" y="231.02569" style="stroke: #000000"/>
     <use xlink:href="#m24bffbfca8" x="568.807946" y="331.366327" style="stroke: #000000"/>
     <use xlink:href="#m24bffbfca8" x="573.777017" y="231.02569" style="stroke: #000000"/>
     <use xlink:href="#m24bffbfca8" x="578.906381" y="331.366327" style="stroke: #000000"/>
     <use xlink:href="#m24bffbfca8" x="583.875452" y="331.366327" style="stroke: #000000"/>
     <use xlink:href="#m24bffbfca8" x="588.844524" y="231.02569" style="stroke: #000000"/>
     <use xlink:href="#m24bffbfca8" x="593.813595" y="331.366327" style="stroke: #000000"/>
     <use xlink:href="#m24bffbfca8" x="598.942959" y="331.366327" style="stroke: #000000"/>
     <use xlink:href="#m24bffbfca8" x="603.912031" y="231.02569" style="stroke: #000000"/>
     <use xlink:href="#m24bffbfca8" x="608.881102" y="331.366327" style="stroke: #000000"/>
     <use xlink:href="#m24bffbfca8" x="613.850173" y="231.02569" style="stroke: #000000"/>
     <use xlink:href="#m24bffbfca8" x="618.979537" y="331.366327" style="stroke: #000000"/>
     <use xlink:href="#m24bffbfca8" x="623.948609" y="331.366327" style="stroke: #000000"/>
     <use xlink:href="#m24bffbfca8" x="628.91768" y="231.02569" style="stroke: #000000"/>
     <use xlink:href="#m24bffbfca8" x="633.886751" y="331.366327" style="stroke: #000000"/>
     <use xlink:href="#m24bffbfca8" x="639.016115" y="331.366327" style="stroke: #000000"/>
     <use xlink:href="#m24bffbfca8" x="643.985187" y="231.02569" style="stroke: #000000"/>
     <use xlink:href="#m24bffbfca8" x="648.954258" y="331.366327" style="stroke: #000000"/>
     <use xlink:href="#m24bffbfca8" x="653.92333" y="231.02569" style="stroke: #000000"/>
     <use xlink:href="#m24bffbfca8" x="659.052694" y="331.366327" style="stroke: #000000"/>
     <use xlink:href="#m24bffbfca8" x="664.021765" y="331.366327" style="stroke: #000000"/>
     <use xlink:href="#m24bffbfca8" x="668.990836" y="231.02569" style="stroke: #000000"/>
     <use xlink:href="#m24bffbfca8" x="673.959908" y="331.366327" style="stroke: #000000"/>
     <use xlink:href="#m24bffbfca8" x="679.089272" y="331.366327" style="stroke: #000000"/>
     <use xlink:href="#m24bffbfca8" x="684.058343" y="231.02569" style="stroke: #000000"/>
     <use xlink:href="#m24bffbfca8" x="689.027414" y="331.366327" style="stroke: #000000"/>
     <use xlink:href="#m24bffbfca8" x="693.996486" y="231.02569" style="stroke: #000000"/>
     <use xlink:href="#m24bffbfca8" x="699.12585" y="331.366327" style="stroke: #000000"/>
     <use xlink:href="#m24bffbfca8" x="704.094921" y="331.366327" style="stroke: #000000"/>
     <use xlink:href="#m24bffbfca8" x="709.063993" y="231.02569" style="stroke: #000000"/>
     <use xlink:href="#m24bffbfca8" x="714.033064" y="331.366327" style="stroke: #000000"/>
     <use xlink:href="#m24bffbfca8" x="719.162428" y="331.366327" style="stroke: #000000"/>
     <use xlink:href="#m24bffbfca8" x="724.131499" y="231.02569" style="stroke: #000000"/>
     <use xlink:href="#m24bffbfca8" x="729.100571" y="331.366327" style="stroke: #000000"/>
     <use xlink:href="#m24bffbfca8" x="734.069642" y="231.02569" style="stroke: #000000"/>
     <use xlink:href="#m24bffbfca8" x="739.199006" y="331.366327" style="stroke: #000000"/>
     <use xlink:href="#m24bffbfca8" x="744.168077" y="331.366327" style="stroke: #000000"/>
     <use xlink:href="#m24bffbfca8" x="749.137149" y="231.02569" style="stroke: #000000"/>
     <use xlink:href="#m24bffbfca8" x="754.10622" y="331.366327" style="stroke: #000000"/>
     <use xlink:href="#m24bffbfca8" x="759.235584" y="331.366327" style="stroke: #000000"/>
     <use xlink:href="#m24bffbfca8" x="764.204656" y="231.02569" style="stroke: #000000"/>
     <use xlink:href="#m24bffbfca8" x="769.173727" y="331.366327" style="stroke: #000000"/>
     <use xlink:href="#m24bffbfca8" x="774.142798" y="231.02569" style="stroke: #000000"/>
     <use xlink:href="#m24bffbfca8" x="779.272162" y="331.366327" style="stroke: #000000"/>
     <use xlink:href="#m24bffbfca8" x="784.241234" y="331.366327" style="stroke: #000000"/>
     <use xlink:href="#m24bffbfca8" x="789.210305" y="231.02569" style="stroke: #000000"/>
     <use xlink:href="#m24bffbfca8" x="794.179376" y="331.366327" style="stroke: #000000"/>
     <use xlink:href="#m24bffbfca8" x="799.30874" y="331.366327" style="stroke: #000000"/>
     <use xlink:href="#m24bffbfca8" x="804.277812" y="231.02569" style="stroke: #000000"/>
     <use xlink:href="#m24bffbfca8" x="809.246883" y="331.366327" style="stroke: #000000"/>
     <use xlink:href="#m24bffbfca8" x="814.215955" y="231.02569" style="stroke: #000000"/>
     <use xlink:href="#m24bffbfca8" x="819.345319" y="331.366327" style="stroke: #000000"/>
     <use xlink:href="#m24bffbfca8" x="824.31439" y="331.366327" style="stroke: #000000"/>
     <use xlink:href="#m24bffbfca8" x="829.283461" y="231.02569" style="stroke: #000000"/>
     <use xlink:href="#m24bffbfca8" x="834.252533" y="331.366327" style="stroke: #000000"/>
     <use xlink:href="#m24bffbfca8" x="839.381897" y="331.366327" style="stroke: #000000"/>
     <use xlink:href="#m24bffbfca8" x="844.350968" y="231.02569" style="stroke: #000000"/>
     <use xlink:href="#m24bffbfca8" x="849.320039" y="331.366327" style="stroke: #000000"/>
     <use xlink:href="#m24bffbfca8" x="854.289111" y="231.02569" style="stroke: #000000"/>
     <use xlink:href="#m24bffbfca8" x="859.418475" y="331.366327" style="stroke: #000000"/>
     <use xlink:href="#m24bffbfca8" x="864.387546" y="331.366327" style="stroke: #000000"/>
     <use xlink:href="#m24bffbfca8" x="869.356618" y="231.02569" style="stroke: #000000"/>
     <use xlink:href="#m24bffbfca8" x="874.325689" y="331.366327" style="stroke: #000000"/>
     <use xlink:href="#m24bffbfca8" x="879.455053" y="331.366327" style="stroke: #000000"/>
     <use xlink:href="#m24bffbfca8" x="884.424124" y="231.02569" style="stroke: #000000"/>
     <use xlink:href="#m24bffbfca8" x="889.393196" y="331.366327" style="stroke: #000000"/>
     <use xlink:href="#m24bffbfca8" x="894.362267" y="231.02569" style="stroke: #000000"/>
     <use xlink:href="#m24bffbfca8" x="899.491631" y="331.366327" style="stroke: #000000"/>
     <use xlink:href="#m24bffbfca8" x="904.460702" y="331.366327" style="stroke: #000000"/>
     <use xlink:href="#m24bffbfca8" x="909.429774" y="231.02569" style="stroke: #000000"/>
     <use xlink:href="#m24bffbfca8" x="914.398845" y="331.366327" style="stroke: #000000"/>
     <use xlink:href="#m24bffbfca8" x="919.528209" y="331.366327" style="stroke: #000000"/>
     <use xlink:href="#m24bffbfca8" x="924.497281" y="231.02569" style="stroke: #000000"/>
     <use xlink:href="#m24bffbfca8" x="929.466352" y="331.366327" style="stroke: #000000"/>
    </g>
   </g>
   <g id="patch_3">
    <path d="M 135 448.56 
L 135 60.48 
" style="fill: none; stroke: #000000; stroke-width: 0.8; stroke-linejoin: miter; stroke-linecap: square"/>
   </g>
   <g id="patch_4">
    <path d="M 972 448.56 
L 972 60.48 
" style="fill: none; stroke: #000000; stroke-width: 0.8; stroke-linejoin: miter; stroke-linecap: square"/>
   </g>
   <g id="patch_5">
    <path d="M 135 448.56 
L 972 448.56 
" style="fill: none; stroke: #000000; stroke-width: 0.8; stroke-linejoin: miter; stroke-linecap: square"/>
   </g>
   <g id="patch_6">
    <path d="M 135 60.48 
L 972 60.48 
" style="fill: none; stroke: #000000; stroke-width: 0.8; stroke-linejoin: miter; stroke-linecap: square"/>
   </g>
   <g id="legend_1">
    <g id="patch_7">
     <path d="M 142 113.070625 
L 211.084375 113.070625 
Q 213.084375 113.070625 213.084375 111.070625 
L 213.084375 67.48 
Q 213.084375 65.48 211.084375 65.48 
L 142 65.48 
Q 140 65.48 140 67.48 
L 140 111.070625 
Q 140 113.070625 142 113.070625 
z
" style="fill: #ffffff; opacity: 0.8; stroke: #cccccc; stroke-linejoin: miter"/>
    </g>
    <g id="line2d_17">
     <path d="M 144 73.578438 
L 154 73.578438 
L 164 73.578438 
" style="fill: none; stroke: #1f77b4; stroke-width: 1.5; stroke-linecap: square"/>
    </g>
    <g id="text_15">
     <!-- nw_0 -->
     <g transform="translate(172 77.078438) scale(0.1 -0.1)">
      <defs>
       <path id="DejaVuSans-6e" d="M 3513 2113 
L 3513 0 
L 2938 0 
L 2938 2094 
Q 2938 2591 2744 2837 
Q 2550 3084 2163 3084 
Q 1697 3084 1428 2787 
Q 1159 2491 1159 1978 
L 1159 0 
L 581 0 
L 581 3500 
L 1159 3500 
L 1159 2956 
Q 1366 3272 1645 3428 
Q 1925 3584 2291 3584 
Q 2894 3584 3203 3211 
Q 3513 2838 3513 2113 
z
" transform="scale(0.015625)"/>
       <path id="DejaVuSans-77" d="M 269 3500 
L 844 3500 
L 1563 769 
L 2278 3500 
L 2956 3500 
L 3675 769 
L 4391 3500 
L 4966 3500 
L 4050 0 
L 3372 0 
L 2619 2869 
L 1863 0 
L 1184 0 
L 269 3500 
z
" transform="scale(0.015625)"/>
       <path id="DejaVuSans-5f" d="M 3263 -1063 
L 3263 -1509 
L -63 -1509 
L -63 -1063 
L 3263 -1063 
z
" transform="scale(0.015625)"/>
      </defs>
      <use xlink:href="#DejaVuSans-6e"/>
      <use xlink:href="#DejaVuSans-77" x="63.378906"/>
      <use xlink:href="#DejaVuSans-5f" x="145.166016"/>
      <use xlink:href="#DejaVuSans-30" x="195.166016"/>
     </g>
    </g>
    <g id="line2d_18">
     <path d="M 144 88.534688 
L 154 88.534688 
L 164 88.534688 
" style="fill: none; stroke: #ff7f0e; stroke-width: 1.5; stroke-linecap: square"/>
    </g>
    <g id="text_16">
     <!-- input_0 -->
     <g transform="translate(172 92.034688) scale(0.1 -0.1)">
      <defs>
       <path id="DejaVuSans-69" d="M 603 3500 
L 1178 3500 
L 1178 0 
L 603 0 
L 603 3500 
z
M 603 4863 
L 1178 4863 
L 1178 4134 
L 603 4134 
L 603 4863 
z
" transform="scale(0.015625)"/>
       <path id="DejaVuSans-70" d="M 1159 525 
L 1159 -1331 
L 581 -1331 
L 581 3500 
L 1159 3500 
L 1159 2969 
Q 1341 3281 1617 3432 
Q 1894 3584 2278 3584 
Q 2916 3584 3314 3078 
Q 3713 2572 3713 1747 
Q 3713 922 3314 415 
Q 2916 -91 2278 -91 
Q 1894 -91 1617 61 
Q 1341 213 1159 525 
z
M 3116 1747 
Q 3116 2381 2855 2742 
Q 2594 3103 2138 3103 
Q 1681 3103 1420 2742 
Q 1159 2381 1159 1747 
Q 1159 1113 1420 752 
Q 1681 391 2138 391 
Q 2594 391 2855 752 
Q 3116 1113 3116 1747 
z
" transform="scale(0.015625)"/>
       <path id="DejaVuSans-75" d="M 544 1381 
L 544 3500 
L 1119 3500 
L 1119 1403 
Q 1119 906 1312 657 
Q 1506 409 1894 409 
Q 2359 409 2629 706 
Q 2900 1003 2900 1516 
L 2900 3500 
L 3475 3500 
L 3475 0 
L 2900 0 
L 2900 538 
Q 2691 219 2414 64 
Q 2138 -91 1772 -91 
Q 1169 -91 856 284 
Q 544 659 544 1381 
z
M 1991 3584 
L 1991 3584 
z
" transform="scale(0.015625)"/>
      </defs>
      <use xlink:href="#DejaVuSans-69"/>
      <use xlink:href="#DejaVuSans-6e" x="27.783203"/>
      <use xlink:href="#DejaVuSans-70" x="91.162109"/>
      <use xlink:href="#DejaVuSans-75" x="154.638672"/>
      <use xlink:href="#DejaVuSans-74" x="218.017578"/>
      <use xlink:href="#DejaVuSans-5f" x="257.226562"/>
      <use xlink:href="#DejaVuSans-30" x="307.226562"/>
     </g>
    </g>
    <g id="line2d_19">
     <path d="M 144 103.490938 
L 154 103.490938 
L 164 103.490938 
" style="fill: none; stroke: #000000; stroke-width: 1.5; stroke-linecap: square"/>
     <g>
      <use xlink:href="#m24bffbfca8" x="154" y="103.490938" style="stroke: #000000"/>
     </g>
    </g>
    <g id="text_17">
     <!-- target -->
     <g transform="translate(172 106.990938) scale(0.1 -0.1)">
      <defs>
       <path id="DejaVuSans-61" d="M 2194 1759 
Q 1497 1759 1228 1600 
Q 959 1441 959 1056 
Q 959 750 1161 570 
Q 1363 391 1709 391 
Q 2188 391 2477 730 
Q 2766 1069 2766 1631 
L 2766 1759 
L 2194 1759 
z
M 3341 1997 
L 3341 0 
L 2766 0 
L 2766 531 
Q 2569 213 2275 61 
Q 1981 -91 1556 -91 
Q 1019 -91 701 211 
Q 384 513 384 1019 
Q 384 1609 779 1909 
Q 1175 2209 1959 2209 
L 2766 2209 
L 2766 2266 
Q 2766 2663 2505 2880 
Q 2244 3097 1772 3097 
Q 1472 3097 1187 3025 
Q 903 2953 641 2809 
L 641 3341 
Q 956 3463 1253 3523 
Q 1550 3584 1831 3584 
Q 2591 3584 2966 3190 
Q 3341 2797 3341 1997 
z
" transform="scale(0.015625)"/>
       <path id="DejaVuSans-72" d="M 2631 2963 
Q 2534 3019 2420 3045 
Q 2306 3072 2169 3072 
Q 1681 3072 1420 2755 
Q 1159 2438 1159 1844 
L 1159 0 
L 581 0 
L 581 3500 
L 1159 3500 
L 1159 2956 
Q 1341 3275 1631 3429 
Q 1922 3584 2338 3584 
Q 2397 3584 2469 3576 
Q 2541 3569 2628 3553 
L 2631 2963 
z
" transform="scale(0.015625)"/>
       <path id="DejaVuSans-67" d="M 2906 1791 
Q 2906 2416 2648 2759 
Q 2391 3103 1925 3103 
Q 1463 3103 1205 2759 
Q 947 2416 947 1791 
Q 947 1169 1205 825 
Q 1463 481 1925 481 
Q 2391 481 2648 825 
Q 2906 1169 2906 1791 
z
M 3481 434 
Q 3481 -459 3084 -895 
Q 2688 -1331 1869 -1331 
Q 1566 -1331 1297 -1286 
Q 1028 -1241 775 -1147 
L 775 -588 
Q 1028 -725 1275 -790 
Q 1522 -856 1778 -856 
Q 2344 -856 2625 -561 
Q 2906 -266 2906 331 
L 2906 616 
Q 2728 306 2450 153 
Q 2172 0 1784 0 
Q 1141 0 747 490 
Q 353 981 353 1791 
Q 353 2603 747 3093 
Q 1141 3584 1784 3584 
Q 2172 3584 2450 3431 
Q 2728 3278 2906 2969 
L 2906 3500 
L 3481 3500 
L 3481 434 
z
" transform="scale(0.015625)"/>
       <path id="DejaVuSans-65" d="M 3597 1894 
L 3597 1613 
L 953 1613 
Q 991 1019 1311 708 
Q 1631 397 2203 397 
Q 2534 397 2845 478 
Q 3156 559 3463 722 
L 3463 178 
Q 3153 47 2828 -22 
Q 2503 -91 2169 -91 
Q 1331 -91 842 396 
Q 353 884 353 1716 
Q 353 2575 817 3079 
Q 1281 3584 2069 3584 
Q 2775 3584 3186 3129 
Q 3597 2675 3597 1894 
z
M 3022 2063 
Q 3016 2534 2758 2815 
Q 2500 3097 2075 3097 
Q 1594 3097 1305 2825 
Q 1016 2553 972 2059 
L 3022 2063 
z
" transform="scale(0.015625)"/>
      </defs>
      <use xlink:href="#DejaVuSans-74"/>
      <use xlink:href="#DejaVuSans-61" x="39.208984"/>
      <use xlink:href="#DejaVuSans-72" x="100.488281"/>
      <use xlink:href="#DejaVuSans-67" x="139.851562"/>
      <use xlink:href="#DejaVuSans-65" x="203.328125"/>
      <use xlink:href="#DejaVuSans-74" x="264.851562"/>
     </g>
    </g>
   </g>
  </g>
 </g>
 <defs>
  <clipPath id="p80ef534450">
   <rect x="135" y="60.48" width="837" height="388.08"/>
  </clipPath>
 </defs>
</svg>
