<?xml version="1.0" encoding="utf-8" standalone="no"?>
<!DOCTYPE svg PUBLIC "-//W3C//DTD SVG 1.1//EN"
  "http://www.w3.org/Graphics/SVG/1.1/DTD/svg11.dtd">
<svg xmlns:xlink="http://www.w3.org/1999/xlink" width="1080pt" height="504pt" viewBox="0 0 1080 504" xmlns="http://www.w3.org/2000/svg" version="1.1">
 <metadata>
  <rdf:RDF xmlns:dc="http://purl.org/dc/elements/1.1/" xmlns:cc="http://creativecommons.org/ns#" xmlns:rdf="http://www.w3.org/1999/02/22-rdf-syntax-ns#">
   <cc:Work>
    <dc:type rdf:resource="http://purl.org/dc/dcmitype/StillImage"/>
    <dc:date>2024-05-09T11:38:29.806383</dc:date>
    <dc:format>image/svg+xml</dc:format>
    <dc:creator>
     <cc:Agent>
      <dc:title>Matplotlib v3.7.1, https://matplotlib.org/</dc:title>
     </cc:Agent>
    </dc:creator>
   </cc:Work>
  </rdf:RDF>
 </metadata>
 <defs>
  <style type="text/css">*{stroke-linejoin: round; stroke-linecap: butt}</style>
 </defs>
 <g id="figure_1">
  <g id="patch_1">
   <path d="M 0 504 
L 1080 504 
L 1080 0 
L 0 0 
z
" style="fill: #ffffff"/>
  </g>
  <g id="axes_1">
   <g id="patch_2">
    <path d="M 135 448.56 
L 972 448.56 
L 972 60.48 
L 135 60.48 
z
" style="fill: #ffffff"/>
   </g>
   <g id="matplotlib.axis_1">
    <g id="xtick_1">
     <g id="line2d_1">
      <defs>
       <path id="m1874ab8671" d="M 0 0 
L 0 3.5 
" style="stroke: #000000; stroke-width: 0.8"/>
      </defs>
      <g>
       <use xlink:href="#m1874ab8671" x="173.045455" y="448.56" style="stroke: #000000; stroke-width: 0.8"/>
      </g>
     </g>
     <g id="text_1">
      <!-- 0 -->
      <g transform="translate(169.864205 463.158437) scale(0.1 -0.1)">
       <defs>
        <path id="DejaVuSans-30" d="M 2034 4250 
Q 1547 4250 1301 3770 
Q 1056 3291 1056 2328 
Q 1056 1369 1301 889 
Q 1547 409 2034 409 
Q 2525 409 2770 889 
Q 3016 1369 3016 2328 
Q 3016 3291 2770 3770 
Q 2525 4250 2034 4250 
z
M 2034 4750 
Q 2819 4750 3233 4129 
Q 3647 3509 3647 2328 
Q 3647 1150 3233 529 
Q 2819 -91 2034 -91 
Q 1250 -91 836 529 
Q 422 1150 422 2328 
Q 422 3509 836 4129 
Q 1250 4750 2034 4750 
z
" transform="scale(0.015625)"/>
       </defs>
       <use xlink:href="#DejaVuSans-30"/>
      </g>
     </g>
    </g>
    <g id="xtick_2">
     <g id="line2d_2">
      <g>
       <use xlink:href="#m1874ab8671" x="333.33808" y="448.56" style="stroke: #000000; stroke-width: 0.8"/>
      </g>
     </g>
     <g id="text_2">
      <!-- 1000 -->
      <g transform="translate(320.61308 463.158437) scale(0.1 -0.1)">
       <defs>
        <path id="DejaVuSans-31" d="M 794 531 
L 1825 531 
L 1825 4091 
L 703 3866 
L 703 4441 
L 1819 4666 
L 2450 4666 
L 2450 531 
L 3481 531 
L 3481 0 
L 794 0 
L 794 531 
z
" transform="scale(0.015625)"/>
       </defs>
       <use xlink:href="#DejaVuSans-31"/>
       <use xlink:href="#DejaVuSans-30" x="63.623047"/>
       <use xlink:href="#DejaVuSans-30" x="127.246094"/>
       <use xlink:href="#DejaVuSans-30" x="190.869141"/>
      </g>
     </g>
    </g>
    <g id="xtick_3">
     <g id="line2d_3">
      <g>
       <use xlink:href="#m1874ab8671" x="493.630705" y="448.56" style="stroke: #000000; stroke-width: 0.8"/>
      </g>
     </g>
     <g id="text_3">
      <!-- 2000 -->
      <g transform="translate(480.905705 463.158437) scale(0.1 -0.1)">
       <defs>
        <path id="DejaVuSans-32" d="M 1228 531 
L 3431 531 
L 3431 0 
L 469 0 
L 469 531 
Q 828 903 1448 1529 
Q 2069 2156 2228 2338 
Q 2531 2678 2651 2914 
Q 2772 3150 2772 3378 
Q 2772 3750 2511 3984 
Q 2250 4219 1831 4219 
Q 1534 4219 1204 4116 
Q 875 4013 500 3803 
L 500 4441 
Q 881 4594 1212 4672 
Q 1544 4750 1819 4750 
Q 2544 4750 2975 4387 
Q 3406 4025 3406 3419 
Q 3406 3131 3298 2873 
Q 3191 2616 2906 2266 
Q 2828 2175 2409 1742 
Q 1991 1309 1228 531 
z
" transform="scale(0.015625)"/>
       </defs>
       <use xlink:href="#DejaVuSans-32"/>
       <use xlink:href="#DejaVuSans-30" x="63.623047"/>
       <use xlink:href="#DejaVuSans-30" x="127.246094"/>
       <use xlink:href="#DejaVuSans-30" x="190.869141"/>
      </g>
     </g>
    </g>
    <g id="xtick_4">
     <g id="line2d_4">
      <g>
       <use xlink:href="#m1874ab8671" x="653.92333" y="448.56" style="stroke: #000000; stroke-width: 0.8"/>
      </g>
     </g>
     <g id="text_4">
      <!-- 3000 -->
      <g transform="translate(641.19833 463.158437) scale(0.1 -0.1)">
       <defs>
        <path id="DejaVuSans-33" d="M 2597 2516 
Q 3050 2419 3304 2112 
Q 3559 1806 3559 1356 
Q 3559 666 3084 287 
Q 2609 -91 1734 -91 
Q 1441 -91 1130 -33 
Q 819 25 488 141 
L 488 750 
Q 750 597 1062 519 
Q 1375 441 1716 441 
Q 2309 441 2620 675 
Q 2931 909 2931 1356 
Q 2931 1769 2642 2001 
Q 2353 2234 1838 2234 
L 1294 2234 
L 1294 2753 
L 1863 2753 
Q 2328 2753 2575 2939 
Q 2822 3125 2822 3475 
Q 2822 3834 2567 4026 
Q 2313 4219 1838 4219 
Q 1578 4219 1281 4162 
Q 984 4106 628 3988 
L 628 4550 
Q 988 4650 1302 4700 
Q 1616 4750 1894 4750 
Q 2613 4750 3031 4423 
Q 3450 4097 3450 3541 
Q 3450 3153 3228 2886 
Q 3006 2619 2597 2516 
z
" transform="scale(0.015625)"/>
       </defs>
       <use xlink:href="#DejaVuSans-33"/>
       <use xlink:href="#DejaVuSans-30" x="63.623047"/>
       <use xlink:href="#DejaVuSans-30" x="127.246094"/>
       <use xlink:href="#DejaVuSans-30" x="190.869141"/>
      </g>
     </g>
    </g>
    <g id="xtick_5">
     <g id="line2d_5">
      <g>
       <use xlink:href="#m1874ab8671" x="814.215955" y="448.56" style="stroke: #000000; stroke-width: 0.8"/>
      </g>
     </g>
     <g id="text_5">
      <!-- 4000 -->
      <g transform="translate(801.490955 463.158437) scale(0.1 -0.1)">
       <defs>
        <path id="DejaVuSans-34" d="M 2419 4116 
L 825 1625 
L 2419 1625 
L 2419 4116 
z
M 2253 4666 
L 3047 4666 
L 3047 1625 
L 3713 1625 
L 3713 1100 
L 3047 1100 
L 3047 0 
L 2419 0 
L 2419 1100 
L 313 1100 
L 313 1709 
L 2253 4666 
z
" transform="scale(0.015625)"/>
       </defs>
       <use xlink:href="#DejaVuSans-34"/>
       <use xlink:href="#DejaVuSans-30" x="63.623047"/>
       <use xlink:href="#DejaVuSans-30" x="127.246094"/>
       <use xlink:href="#DejaVuSans-30" x="190.869141"/>
      </g>
     </g>
    </g>
    <g id="text_6">
     <!-- t -->
     <g transform="translate(551.539844 476.836563) scale(0.1 -0.1)">
      <defs>
       <path id="DejaVuSans-74" d="M 1172 4494 
L 1172 3500 
L 2356 3500 
L 2356 3053 
L 1172 3053 
L 1172 1153 
Q 1172 725 1289 603 
Q 1406 481 1766 481 
L 2356 481 
L 2356 0 
L 1766 0 
Q 1100 0 847 248 
Q 594 497 594 1153 
L 594 3053 
L 172 3053 
L 172 3500 
L 594 3500 
L 594 4494 
L 1172 4494 
z
" transform="scale(0.015625)"/>
      </defs>
      <use xlink:href="#DejaVuSans-74"/>
     </g>
    </g>
   </g>
   <g id="matplotlib.axis_2">
    <g id="ytick_1">
     <g id="line2d_6">
      <defs>
       <path id="mc45a4f4675" d="M 0 0 
L -3.5 0 
" style="stroke: #000000; stroke-width: 0.8"/>
      </defs>
      <g>
       <use xlink:href="#mc45a4f4675" x="135" y="431.110265" style="stroke: #000000; stroke-width: 0.8"/>
      </g>
     </g>
     <g id="text_7">
      <!-- −0.2 -->
      <g transform="translate(103.717187 434.909483) scale(0.1 -0.1)">
       <defs>
        <path id="DejaVuSans-2212" d="M 678 2272 
L 4684 2272 
L 4684 1741 
L 678 1741 
L 678 2272 
z
" transform="scale(0.015625)"/>
        <path id="DejaVuSans-2e" d="M 684 794 
L 1344 794 
L 1344 0 
L 684 0 
L 684 794 
z
" transform="scale(0.015625)"/>
       </defs>
       <use xlink:href="#DejaVuSans-2212"/>
       <use xlink:href="#DejaVuSans-30" x="83.789062"/>
       <use xlink:href="#DejaVuSans-2e" x="147.412109"/>
       <use xlink:href="#DejaVuSans-32" x="179.199219"/>
      </g>
     </g>
    </g>
    <g id="ytick_2">
     <g id="line2d_7">
      <g>
       <use xlink:href="#mc45a4f4675" x="135" y="375.224315" style="stroke: #000000; stroke-width: 0.8"/>
      </g>
     </g>
     <g id="text_8">
      <!-- 0.0 -->
      <g transform="translate(112.096875 379.023533) scale(0.1 -0.1)">
       <use xlink:href="#DejaVuSans-30"/>
       <use xlink:href="#DejaVuSans-2e" x="63.623047"/>
       <use xlink:href="#DejaVuSans-30" x="95.410156"/>
      </g>
     </g>
    </g>
    <g id="ytick_3">
     <g id="line2d_8">
      <g>
       <use xlink:href="#mc45a4f4675" x="135" y="319.338365" style="stroke: #000000; stroke-width: 0.8"/>
      </g>
     </g>
     <g id="text_9">
      <!-- 0.2 -->
      <g transform="translate(112.096875 323.137583) scale(0.1 -0.1)">
       <use xlink:href="#DejaVuSans-30"/>
       <use xlink:href="#DejaVuSans-2e" x="63.623047"/>
       <use xlink:href="#DejaVuSans-32" x="95.410156"/>
      </g>
     </g>
    </g>
    <g id="ytick_4">
     <g id="line2d_9">
      <g>
       <use xlink:href="#mc45a4f4675" x="135" y="263.452414" style="stroke: #000000; stroke-width: 0.8"/>
      </g>
     </g>
     <g id="text_10">
      <!-- 0.4 -->
      <g transform="translate(112.096875 267.251633) scale(0.1 -0.1)">
       <use xlink:href="#DejaVuSans-30"/>
       <use xlink:href="#DejaVuSans-2e" x="63.623047"/>
       <use xlink:href="#DejaVuSans-34" x="95.410156"/>
      </g>
     </g>
    </g>
    <g id="ytick_5">
     <g id="line2d_10">
      <g>
       <use xlink:href="#mc45a4f4675" x="135" y="207.566464" style="stroke: #000000; stroke-width: 0.8"/>
      </g>
     </g>
     <g id="text_11">
      <!-- 0.6 -->
      <g transform="translate(112.096875 211.365683) scale(0.1 -0.1)">
       <defs>
        <path id="DejaVuSans-36" d="M 2113 2584 
Q 1688 2584 1439 2293 
Q 1191 2003 1191 1497 
Q 1191 994 1439 701 
Q 1688 409 2113 409 
Q 2538 409 2786 701 
Q 3034 994 3034 1497 
Q 3034 2003 2786 2293 
Q 2538 2584 2113 2584 
z
M 3366 4563 
L 3366 3988 
Q 3128 4100 2886 4159 
Q 2644 4219 2406 4219 
Q 1781 4219 1451 3797 
Q 1122 3375 1075 2522 
Q 1259 2794 1537 2939 
Q 1816 3084 2150 3084 
Q 2853 3084 3261 2657 
Q 3669 2231 3669 1497 
Q 3669 778 3244 343 
Q 2819 -91 2113 -91 
Q 1303 -91 875 529 
Q 447 1150 447 2328 
Q 447 3434 972 4092 
Q 1497 4750 2381 4750 
Q 2619 4750 2861 4703 
Q 3103 4656 3366 4563 
z
" transform="scale(0.015625)"/>
       </defs>
       <use xlink:href="#DejaVuSans-30"/>
       <use xlink:href="#DejaVuSans-2e" x="63.623047"/>
       <use xlink:href="#DejaVuSans-36" x="95.410156"/>
      </g>
     </g>
    </g>
    <g id="ytick_6">
     <g id="line2d_11">
      <g>
       <use xlink:href="#mc45a4f4675" x="135" y="151.680514" style="stroke: #000000; stroke-width: 0.8"/>
      </g>
     </g>
     <g id="text_12">
      <!-- 0.8 -->
      <g transform="translate(112.096875 155.479733) scale(0.1 -0.1)">
       <defs>
        <path id="DejaVuSans-38" d="M 2034 2216 
Q 1584 2216 1326 1975 
Q 1069 1734 1069 1313 
Q 1069 891 1326 650 
Q 1584 409 2034 409 
Q 2484 409 2743 651 
Q 3003 894 3003 1313 
Q 3003 1734 2745 1975 
Q 2488 2216 2034 2216 
z
M 1403 2484 
Q 997 2584 770 2862 
Q 544 3141 544 3541 
Q 544 4100 942 4425 
Q 1341 4750 2034 4750 
Q 2731 4750 3128 4425 
Q 3525 4100 3525 3541 
Q 3525 3141 3298 2862 
Q 3072 2584 2669 2484 
Q 3125 2378 3379 2068 
Q 3634 1759 3634 1313 
Q 3634 634 3220 271 
Q 2806 -91 2034 -91 
Q 1263 -91 848 271 
Q 434 634 434 1313 
Q 434 1759 690 2068 
Q 947 2378 1403 2484 
z
M 1172 3481 
Q 1172 3119 1398 2916 
Q 1625 2713 2034 2713 
Q 2441 2713 2670 2916 
Q 2900 3119 2900 3481 
Q 2900 3844 2670 4047 
Q 2441 4250 2034 4250 
Q 1625 4250 1398 4047 
Q 1172 3844 1172 3481 
z
" transform="scale(0.015625)"/>
       </defs>
       <use xlink:href="#DejaVuSans-30"/>
       <use xlink:href="#DejaVuSans-2e" x="63.623047"/>
       <use xlink:href="#DejaVuSans-38" x="95.410156"/>
      </g>
     </g>
    </g>
    <g id="ytick_7">
     <g id="line2d_12">
      <g>
       <use xlink:href="#mc45a4f4675" x="135" y="95.794564" style="stroke: #000000; stroke-width: 0.8"/>
      </g>
     </g>
     <g id="text_13">
      <!-- 1.0 -->
      <g transform="translate(112.096875 99.593783) scale(0.1 -0.1)">
       <use xlink:href="#DejaVuSans-31"/>
       <use xlink:href="#DejaVuSans-2e" x="63.623047"/>
       <use xlink:href="#DejaVuSans-30" x="95.410156"/>
      </g>
     </g>
    </g>
   </g>
   <g id="line2d_13">
    <path d="M 173.045455 205.667798 
L 173.36604 88.84905 
L 173.526332 78.135992 
L 173.686625 78.231628 
L 174.488088 97.105513 
L 175.289551 107.13327 
L 175.610137 110.061467 
L 175.930722 111.152032 
L 176.091014 110.768493 
L 176.4116 107.985785 
L 176.892478 99.462015 
L 177.693941 81.125588 
L 178.014526 300.732929 
L 178.335111 368.516935 
L 178.655696 393.987554 
L 178.976282 405.655555 
L 179.296867 410.102132 
L 179.45716 410.507542 
L 179.617452 410.13559 
L 180.258623 406.939083 
L 180.418915 406.864707 
L 180.579208 407.338117 
L 180.899793 409.969801 
L 181.380671 417.118238 
L 182.182134 429.112866 
L 182.502719 430.92 
L 182.663012 430.806113 
L 182.823305 429.944646 
L 183.14389 425.887273 
L 183.464475 418.74128 
L 183.945353 402.810102 
L 184.746816 366.528088 
L 186.349742 291.003633 
L 186.990913 269.994824 
L 187.471791 259.365259 
L 187.952669 253.168668 
L 188.273254 251.355662 
L 188.433547 251.091798 
L 188.593839 251.227795 
L 188.914424 252.604652 
L 189.23501 255.287259 
L 189.715888 261.305744 
L 190.517351 274.972019 
L 193.402618 328.691247 
L 194.364374 341.637842 
L 195.326129 351.453404 
L 196.127593 357.56817 
L 196.929056 362.166808 
L 197.730519 365.580362 
L 198.531982 368.096332 
L 199.333445 369.946931 
L 200.134908 371.310502 
L 201.096664 372.487451 
L 202.05842 373.312791 
L 203.180468 373.973426 
L 204.462809 374.463242 
L 206.065735 374.825863 
L 208.309832 375.073081 
L 211.83627 375.197619 
L 213.278903 375.212817 
L 213.599489 123.514304 
L 213.920074 78.13016 
L 214.080367 78.226762 
L 214.88183 97.103697 
L 215.683293 107.132582 
L 216.003878 110.060941 
L 216.324463 111.151577 
L 216.484756 110.76805 
L 216.805341 107.985339 
L 217.286219 99.461529 
L 218.087682 81.125029 
L 218.408267 300.73219 
L 218.728853 368.516103 
L 219.049438 393.986684 
L 219.370023 405.654688 
L 219.690608 410.101297 
L 219.850901 410.506732 
L 220.011194 410.134808 
L 220.652364 406.938445 
L 220.812657 406.86411 
L 220.972949 407.337559 
L 221.293535 409.969325 
L 221.774413 417.117877 
L 222.575876 429.112667 
L 222.896461 430.919855 
L 223.056754 430.805992 
L 223.217046 429.944547 
L 223.537631 425.887214 
L 223.858217 418.741255 
L 224.339095 402.810116 
L 225.140558 366.528144 
L 226.743484 291.003715 
L 227.384654 269.994904 
L 227.865532 259.365334 
L 228.34641 253.168737 
L 228.666995 251.355727 
L 228.827288 251.091861 
L 228.987581 251.227856 
L 229.308166 252.604708 
L 229.628751 255.287311 
L 230.109629 261.30579 
L 230.911092 274.972056 
L 233.796359 328.691262 
L 234.758115 341.637853 
L 235.719871 351.453412 
L 236.521334 357.568177 
L 237.322797 362.166812 
L 238.12426 365.580365 
L 238.925723 368.096335 
L 239.727187 369.946933 
L 240.52865 371.310504 
L 241.490405 372.487452 
L 242.452161 373.312792 
L 243.57421 373.973427 
L 244.856551 374.463243 
L 246.459477 374.825863 
L 248.703574 375.073081 
L 252.230011 375.197619 
L 253.99323 375.214963 
L 254.313815 123.516023 
L 254.634401 78.13154 
L 254.794693 78.227998 
L 255.596156 97.104418 
L 256.39762 107.133028 
L 256.718205 110.061318 
L 257.03879 111.151902 
L 257.199083 110.768354 
L 257.519668 107.985607 
L 258.000546 99.461756 
L 258.802009 81.125207 
L 259.122594 300.73237 
L 259.443179 368.516279 
L 259.763765 393.986852 
L 260.08435 405.654845 
L 260.404935 410.101443 
L 260.565228 410.506871 
L 260.72552 410.134941 
L 261.366691 406.938551 
L 261.526984 406.864209 
L 261.687276 407.337653 
L 262.007861 409.969406 
L 262.488739 417.11794 
L 263.290202 429.112707 
L 263.610788 430.919887 
L 263.77108 430.80602 
L 263.931373 429.944572 
L 264.251958 425.887233 
L 264.572543 418.741269 
L 265.053421 402.810124 
L 265.854884 366.528145 
L 267.457811 291.00371 
L 268.098981 269.994898 
L 268.579859 259.365328 
L 269.060737 253.168731 
L 269.381322 251.355722 
L 269.541615 251.091855 
L 269.701907 251.227851 
L 270.022493 252.604703 
L 270.343078 255.287307 
L 270.823956 261.305786 
L 271.625419 274.972052 
L 274.510686 328.69126 
L 275.472442 341.637852 
L 276.434198 351.453411 
L 277.235661 357.568176 
L 278.037124 362.166812 
L 278.838587 365.580365 
L 279.64005 368.096334 
L 280.441513 369.946933 
L 281.242976 371.310504 
L 282.204732 372.487452 
L 283.166488 373.312792 
L 284.288536 373.973427 
L 285.570877 374.463243 
L 287.173804 374.825863 
L 289.4179 375.073081 
L 292.944338 375.197619 
L 293.585509 375.205684 
L 293.906094 123.508517 
L 294.226679 78.125457 
L 294.386972 78.222521 
L 295.188435 97.101148 
L 295.989898 107.130976 
L 296.310483 110.059577 
L 296.631068 111.150402 
L 296.791361 110.766956 
L 297.111946 107.984379 
L 297.592824 99.460725 
L 298.394287 81.12441 
L 298.714873 300.731578 
L 299.035458 368.515514 
L 299.356043 393.986127 
L 299.676628 405.654169 
L 299.997214 410.100819 
L 300.157506 410.506275 
L 300.317799 410.134373 
L 300.958969 406.938098 
L 301.119262 406.863784 
L 301.279555 407.337255 
L 301.60014 409.969061 
L 302.081018 417.117668 
L 302.882481 429.112535 
L 303.203066 430.919747 
L 303.363359 430.805896 
L 303.523651 429.944461 
L 303.844237 425.887147 
L 304.164822 418.741204 
L 304.6457 402.810085 
L 305.447163 366.528137 
L 307.050089 291.003728 
L 307.69126 269.994919 
L 308.172137 259.365349 
L 308.653015 253.168752 
L 308.973601 251.355742 
L 309.133893 251.091875 
L 309.294186 251.22787 
L 309.614771 252.604722 
L 309.935356 255.287324 
L 310.416234 261.305802 
L 311.217697 274.972065 
L 314.102965 328.691266 
L 315.06472 341.637856 
L 316.026476 351.453414 
L 316.827939 357.568178 
L 317.629402 362.166814 
L 318.430865 365.580366 
L 319.232329 368.096336 
L 320.033792 369.946934 
L 320.835255 371.310504 
L 321.797011 372.487452 
L 322.758766 373.312792 
L 323.880815 373.973427 
L 325.163156 374.463243 
L 326.766082 374.825863 
L 329.010179 375.073081 
L 332.536616 375.197619 
L 333.818957 375.211606 
L 334.139543 123.513329 
L 334.460128 78.129373 
L 334.620421 78.226055 
L 335.421884 97.103279 
L 336.223347 107.132322 
L 336.543932 110.06072 
L 336.864517 111.151387 
L 337.02481 110.767873 
L 337.345395 107.985183 
L 337.826273 99.461398 
L 338.627736 81.124927 
L 338.948321 300.732088 
L 339.268907 368.516004 
L 339.589492 393.98659 
L 339.910077 405.6546 
L 340.230662 410.101215 
L 340.390955 410.506654 
L 340.551248 410.134734 
L 341.192418 406.938386 
L 341.352711 406.864054 
L 341.513003 407.337507 
L 341.833589 409.96928 
L 342.314467 417.117841 
L 343.11593 429.112645 
L 343.436515 430.919837 
L 343.596808 430.805976 
L 343.7571 429.944533 
L 344.077685 425.887203 
L 344.398271 418.741246 
L 344.879149 402.810111 
L 345.680612 366.528143 
L 347.283538 291.003717 
L 347.924708 269.994907 
L 348.405586 259.365337 
L 348.886464 253.16874 
L 349.207049 251.35573 
L 349.367342 251.091863 
L 349.527635 251.227858 
L 349.84822 252.604711 
L 350.168805 255.287314 
L 350.649683 261.305792 
L 351.451146 274.972057 
L 354.336413 328.691263 
L 355.298169 341.637854 
L 356.259925 351.453412 
L 357.061388 357.568177 
L 357.862851 362.166813 
L 358.664314 365.580365 
L 359.465777 368.096335 
L 360.267241 369.946933 
L 361.068704 371.310504 
L 362.030459 372.487452 
L 362.992215 373.312792 
L 364.114264 373.973427 
L 365.396605 374.463243 
L 366.999531 374.825863 
L 369.243628 375.073081 
L 372.770065 375.197619 
L 373.090651 375.201957 
L 373.411236 123.505463 
L 373.731821 78.12295 
L 373.892114 78.22025 
L 374.693577 97.099751 
L 375.49504 107.130084 
L 375.815625 110.058817 
L 376.13621 111.149749 
L 376.296503 110.766347 
L 376.617088 107.983846 
L 377.097966 99.460283 
L 377.899429 81.124075 
L 378.220015 300.731252 
L 378.5406 368.515204 
L 378.861185 393.985836 
L 379.18177 405.653899 
L 379.502356 410.100572 
L 379.662648 410.506039 
L 379.822941 410.134149 
L 380.464111 406.937919 
L 380.624404 406.863616 
L 380.784697 407.337098 
L 381.105282 409.968924 
L 381.58616 417.11756 
L 382.387623 429.112466 
L 382.708208 430.91969 
L 382.868501 430.805845 
L 383.028793 429.944416 
L 383.349379 425.887111 
L 383.669964 418.741176 
L 384.150842 402.810067 
L 384.952305 366.528131 
L 386.555231 291.003732 
L 387.196402 269.994925 
L 387.677279 259.365356 
L 388.158157 253.168759 
L 388.478743 251.355749 
L 388.639035 251.091882 
L 388.799328 251.227876 
L 389.119913 252.604728 
L 389.440498 255.28733 
L 389.921376 261.305807 
L 390.722839 274.97207 
L 393.608107 328.691268 
L 394.569862 341.637858 
L 395.531618 351.453415 
L 396.333081 357.568179 
L 397.134544 362.166815 
L 397.936007 365.580367 
L 398.737471 368.096336 
L 399.538934 369.946934 
L 400.340397 371.310505 
L 401.302153 372.487453 
L 402.263908 373.312792 
L 403.385957 373.973427 
L 404.668298 374.463243 
L 406.271224 374.825863 
L 408.515321 375.073082 
L 412.041758 375.197619 
L 413.644685 375.213934 
L 413.96527 123.5152 
L 414.285855 78.13088 
L 414.446148 78.227408 
L 415.247611 97.104075 
L 416.049074 107.132817 
L 416.369659 110.061139 
L 416.690245 111.151748 
L 416.850537 110.76821 
L 417.171122 107.98548 
L 417.652 99.461648 
L 418.453463 81.125123 
L 418.774049 300.732284 
L 419.094634 368.516195 
L 419.415219 393.986772 
L 419.735804 405.65477 
L 420.05639 410.101373 
L 420.216682 410.506804 
L 420.376975 410.134877 
L 421.018145 406.9385 
L 421.178438 406.864161 
L 421.338731 407.337608 
L 421.659316 409.969367 
L 422.140194 417.11791 
L 422.941657 429.112688 
L 423.262242 430.919871 
L 423.422535 430.806007 
L 423.582827 429.94456 
L 423.903413 425.887224 
L 424.223998 418.741262 
L 424.704876 402.81012 
L 425.506339 366.528145 
L 427.109265 291.003712 
L 427.750436 269.994901 
L 428.231314 259.365331 
L 428.712191 253.168734 
L 429.032777 251.355724 
L 429.193069 251.091858 
L 429.353362 251.227853 
L 429.673947 252.604706 
L 429.994532 255.287309 
L 430.47541 261.305788 
L 431.276873 274.972054 
L 434.162141 328.691261 
L 435.123896 341.637853 
L 436.085652 351.453411 
L 436.887115 357.568176 
L 437.688578 362.166812 
L 438.490042 365.580365 
L 439.291505 368.096334 
L 440.092968 369.946933 
L 440.894431 371.310504 
L 441.856187 372.487452 
L 442.817942 373.312792 
L 443.939991 373.973427 
L 445.222332 374.463243 
L 446.825258 374.825863 
L 449.069355 375.073081 
L 452.595793 375.197619 
L 453.557548 375.208877 
L 453.878134 123.511119 
L 454.198719 78.12758 
L 454.359011 78.22444 
L 455.160475 97.102313 
L 455.961938 107.131715 
L 456.282523 110.060204 
L 456.603108 111.150943 
L 456.763401 110.767459 
L 457.083986 107.98482 
L 457.564864 99.461093 
L 458.366327 81.124691 
L 458.686912 300.731854 
L 459.007498 368.515779 
L 459.328083 393.986377 
L 459.648668 405.654401 
L 459.969253 410.101032 
L 460.129546 410.506479 
L 460.289839 410.134567 
L 460.931009 406.938252 
L 461.091302 406.863929 
L 461.251594 407.33739 
L 461.57218 409.969178 
L 462.053057 417.117761 
L 462.854521 429.112594 
L 463.175106 430.919796 
L 463.335398 430.805939 
L 463.495691 429.9445 
L 463.816276 425.887177 
L 464.136862 418.741227 
L 464.617739 402.810099 
L 465.419203 366.528141 
L 467.022129 291.003722 
L 467.663299 269.994913 
L 468.144177 259.365343 
L 468.625055 253.168746 
L 468.94564 251.355736 
L 469.105933 251.091869 
L 469.266226 251.227864 
L 469.586811 252.604716 
L 469.907396 255.287319 
L 470.388274 261.305797 
L 471.189737 274.972061 
L 474.075004 328.691264 
L 475.03676 341.637855 
L 475.998516 351.453413 
L 476.799979 357.568178 
L 477.601442 362.166813 
L 478.402905 365.580366 
L 479.204368 368.096335 
L 480.005831 369.946933 
L 480.807295 371.310504 
L 481.76905 372.487452 
L 482.730806 373.312792 
L 483.852854 373.973427 
L 485.135195 374.463243 
L 486.738122 374.825863 
L 488.982218 375.073081 
L 492.508656 375.197619 
L 493.630705 375.210295 
L 493.95129 123.512269 
L 494.271875 78.128515 
L 494.432168 78.225283 
L 495.233631 97.102819 
L 496.035094 107.132033 
L 496.355679 110.060475 
L 496.676264 111.151176 
L 496.836557 110.767676 
L 497.157142 107.98501 
L 497.63802 99.461253 
L 498.439483 81.124815 
L 498.760069 300.731976 
L 499.080654 368.515896 
L 499.401239 393.986488 
L 499.721824 405.654504 
L 500.04241 410.101127 
L 500.202702 410.50657 
L 500.362995 410.134654 
L 501.004165 406.938321 
L 501.164458 406.863994 
L 501.324751 407.337451 
L 501.645336 409.969231 
L 502.126214 417.117802 
L 502.927677 429.112621 
L 503.248262 430.919817 
L 503.408555 430.805958 
L 503.568847 429.944517 
L 503.889433 425.887191 
L 504.210018 418.741237 
L 504.690896 402.810105 
L 505.492359 366.528142 
L 507.095285 291.00372 
L 507.736456 269.99491 
L 508.217333 259.36534 
L 508.698211 253.168743 
L 509.018797 251.355733 
L 509.179089 251.091866 
L 509.339382 251.227861 
L 509.659967 252.604713 
L 509.980552 255.287316 
L 510.46143 261.305795 
L 511.262893 274.972059 
L 514.148161 328.691263 
L 515.109916 341.637854 
L 516.071672 351.453413 
L 516.873135 357.568177 
L 517.674598 362.166813 
L 518.476061 365.580366 
L 519.277525 368.096335 
L 520.078988 369.946933 
L 520.880451 371.310504 
L 521.842207 372.487452 
L 522.803962 373.312792 
L 523.926011 373.973427 
L 525.208352 374.463243 
L 526.811278 374.825863 
L 529.055375 375.073081 
L 532.581812 375.197619 
L 533.864153 375.211606 
L 534.184739 123.513329 
L 534.505324 78.129373 
L 534.665617 78.226055 
L 535.46708 97.103279 
L 536.268543 107.132322 
L 536.589128 110.06072 
L 536.909713 111.151387 
L 537.070006 110.767873 
L 537.390591 107.985183 
L 537.871469 99.461398 
L 538.672932 81.124927 
L 538.993517 300.732088 
L 539.314103 368.516004 
L 539.634688 393.98659 
L 539.955273 405.6546 
L 540.275858 410.101215 
L 540.436151 410.506654 
L 540.596444 410.134734 
L 541.237614 406.938386 
L 541.397907 406.864054 
L 541.558199 407.337507 
L 541.878785 409.96928 
L 542.359663 417.117841 
L 543.161126 429.112645 
L 543.481711 430.919837 
L 543.642004 430.805976 
L 543.802296 429.944533 
L 544.122881 425.887203 
L 544.443467 418.741246 
L 544.924345 402.810111 
L 545.725808 366.528143 
L 547.328734 291.003717 
L 547.969904 269.994907 
L 548.450782 259.365337 
L 548.93166 253.16874 
L 549.252245 251.35573 
L 549.412538 251.091863 
L 549.572831 251.227858 
L 549.893416 252.604711 
L 550.214001 255.287314 
L 550.694879 261.305792 
L 551.496342 274.972057 
L 554.381609 328.691263 
L 555.343365 341.637854 
L 556.305121 351.453412 
L 557.106584 357.568177 
L 557.908047 362.166813 
L 558.70951 365.580365 
L 559.510973 368.096335 
L 560.312437 369.946933 
L 561.1139 371.310504 
L 562.075655 372.487452 
L 563.037411 373.312792 
L 564.15946 373.973427 
L 565.441801 374.463243 
L 567.044727 374.825863 
L 569.288824 375.073081 
L 572.815261 375.197619 
L 574.257895 375.212817 
L 574.57848 123.514304 
L 574.899065 78.13016 
L 575.059358 78.226762 
L 575.860821 97.103697 
L 576.662284 107.132582 
L 576.98287 110.060941 
L 577.303455 111.151577 
L 577.463747 110.76805 
L 577.784333 107.985339 
L 578.265211 99.461529 
L 579.066674 81.125029 
L 579.387259 300.73219 
L 579.707844 368.516103 
L 580.028429 393.986684 
L 580.349015 405.654688 
L 580.6696 410.101297 
L 580.829893 410.506732 
L 580.990185 410.134808 
L 581.631356 406.938445 
L 581.791648 406.86411 
L 581.951941 407.337559 
L 582.272526 409.969325 
L 582.753404 417.117877 
L 583.554867 429.112667 
L 583.875452 430.919855 
L 584.035745 430.805992 
L 584.196038 429.944547 
L 584.516623 425.887214 
L 584.837208 418.741255 
L 585.318086 402.810116 
L 586.119549 366.528144 
L 587.722475 291.003715 
L 588.363646 269.994904 
L 588.844524 259.365334 
L 589.325402 253.168737 
L 589.645987 251.355727 
L 589.80628 251.091861 
L 589.966572 251.227856 
L 590.287157 252.604708 
L 590.607743 255.287311 
L 591.088621 261.30579 
L 591.890084 274.972056 
L 594.775351 328.691262 
L 595.737107 341.637853 
L 596.698862 351.453412 
L 597.500326 357.568177 
L 598.301789 362.166812 
L 599.103252 365.580365 
L 599.904715 368.096335 
L 600.706178 369.946933 
L 601.507641 371.310504 
L 602.469397 372.487452 
L 603.431153 373.312792 
L 604.553201 373.973427 
L 605.835542 374.463243 
L 607.438468 374.825863 
L 609.682565 375.073081 
L 613.209003 375.197619 
L 613.529588 123.501889 
L 613.850173 78.12 
L 614.010466 78.21757 
L 614.811929 97.098084 
L 615.613392 107.129012 
L 615.933977 110.057904 
L 616.254563 111.148963 
L 616.414855 110.765615 
L 616.735441 107.983208 
L 617.216318 99.459754 
L 618.017782 81.123677 
L 618.338367 300.730868 
L 618.658952 368.514841 
L 618.979537 393.985497 
L 619.300123 405.653585 
L 619.620708 410.100285 
L 619.781 410.505766 
L 619.941293 410.133889 
L 620.582464 406.937713 
L 620.742756 406.863423 
L 620.903049 407.336917 
L 621.223634 409.968767 
L 621.704512 417.117434 
L 622.505975 429.112385 
L 622.82656 430.919624 
L 622.986853 430.805785 
L 623.147146 429.944362 
L 623.467731 425.887068 
L 623.788316 418.741143 
L 624.269194 402.810045 
L 625.070657 366.528123 
L 626.673583 291.003737 
L 627.314754 269.994931 
L 627.795632 259.365363 
L 628.27651 253.168766 
L 628.597095 251.355756 
L 628.757387 251.091889 
L 628.91768 251.227883 
L 629.238265 252.604734 
L 629.558851 255.287336 
L 630.039728 261.305813 
L 630.841192 274.972075 
L 633.726459 328.69127 
L 634.688215 341.63786 
L 635.64997 351.453417 
L 636.451433 357.56818 
L 637.252897 362.166815 
L 638.05436 365.580368 
L 638.855823 368.096336 
L 639.657286 369.946934 
L 640.458749 371.310505 
L 641.420505 372.487453 
L 642.382261 373.312792 
L 643.504309 373.973427 
L 644.78665 374.463243 
L 646.389576 374.825864 
L 648.633673 375.073082 
L 652.160111 375.197619 
L 653.92333 375.214963 
L 654.243915 123.516023 
L 654.5645 78.13154 
L 654.724793 78.227998 
L 655.526256 97.104418 
L 656.327719 107.133028 
L 656.648304 110.061318 
L 656.968889 111.151902 
L 657.129182 110.768354 
L 657.449767 107.985607 
L 657.930645 99.461756 
L 658.732108 81.125207 
L 659.052694 300.73237 
L 659.373279 368.516279 
L 659.693864 393.986852 
L 660.014449 405.654845 
L 660.335035 410.101443 
L 660.495327 410.506871 
L 660.65562 410.134941 
L 661.29679 406.938551 
L 661.457083 406.864209 
L 661.617376 407.337653 
L 661.937961 409.969406 
L 662.418839 417.11794 
L 663.220302 429.112707 
L 663.540887 430.919887 
L 663.70118 430.80602 
L 663.861472 429.944572 
L 664.182058 425.887233 
L 664.502643 418.741269 
L 664.983521 402.810124 
L 665.784984 366.528145 
L 667.38791 291.00371 
L 668.029081 269.994898 
L 668.509958 259.365328 
L 668.990836 253.168731 
L 669.311422 251.355722 
L 669.471714 251.091855 
L 669.632007 251.227851 
L 669.952592 252.604703 
L 670.273177 255.287307 
L 670.754055 261.305786 
L 671.555518 274.972052 
L 674.440786 328.69126 
L 675.402541 341.637852 
L 676.364297 351.453411 
L 677.16576 357.568176 
L 677.967223 362.166812 
L 678.768686 365.580365 
L 679.57015 368.096334 
L 680.371613 369.946933 
L 681.173076 371.310504 
L 682.134832 372.487452 
L 683.096587 373.312792 
L 684.218636 373.973427 
L 685.500977 374.463243 
L 687.103903 374.825863 
L 689.348 375.073081 
L 692.874437 375.197619 
L 694.156778 375.211606 
L 694.477364 123.513329 
L 694.797949 78.129373 
L 694.958242 78.226055 
L 695.759705 97.103279 
L 696.561168 107.132322 
L 696.881753 110.06072 
L 697.202338 111.151387 
L 697.362631 110.767873 
L 697.683216 107.985183 
L 698.164094 99.461398 
L 698.965557 81.124927 
L 699.286142 300.732088 
L 699.606728 368.516004 
L 699.927313 393.98659 
L 700.247898 405.6546 
L 700.568483 410.101215 
L 700.728776 410.506654 
L 700.889069 410.134734 
L 701.530239 406.938386 
L 701.690532 406.864054 
L 701.850824 407.337507 
L 702.17141 409.96928 
L 702.652288 417.117841 
L 703.453751 429.112645 
L 703.774336 430.919837 
L 703.934629 430.805976 
L 704.094921 429.944533 
L 704.415506 425.887203 
L 704.736092 418.741246 
L 705.21697 402.810111 
L 706.018433 366.528143 
L 707.621359 291.003717 
L 708.262529 269.994907 
L 708.743407 259.365337 
L 709.224285 253.16874 
L 709.54487 251.35573 
L 709.705163 251.091863 
L 709.865456 251.227858 
L 710.186041 252.604711 
L 710.506626 255.287314 
L 710.987504 261.305792 
L 711.788967 274.972057 
L 714.674234 328.691263 
L 715.63599 341.637854 
L 716.597746 351.453412 
L 717.399209 357.568177 
L 718.200672 362.166813 
L 719.002135 365.580365 
L 719.803598 368.096335 
L 720.605062 369.946933 
L 721.406525 371.310504 
L 722.36828 372.487452 
L 723.330036 373.312792 
L 724.452085 373.973427 
L 725.734426 374.463243 
L 727.337352 374.825863 
L 729.581449 375.073081 
L 733.107886 375.197619 
L 734.069642 375.208877 
L 734.390227 123.511119 
L 734.710813 78.12758 
L 734.871105 78.22444 
L 735.672568 97.102313 
L 736.474031 107.131715 
L 736.794617 110.060204 
L 737.115202 111.150943 
L 737.275495 110.767459 
L 737.59608 107.98482 
L 738.076958 99.461093 
L 738.878421 81.124691 
L 739.199006 300.731854 
L 739.519591 368.515779 
L 739.840177 393.986377 
L 740.160762 405.654401 
L 740.481347 410.101032 
L 740.64164 410.506479 
L 740.801932 410.134567 
L 741.443103 406.938252 
L 741.603395 406.863929 
L 741.763688 407.33739 
L 742.084273 409.969178 
L 742.565151 417.117761 
L 743.366614 429.112594 
L 743.6872 430.919796 
L 743.847492 430.805939 
L 744.007785 429.9445 
L 744.32837 425.887177 
L 744.648955 418.741227 
L 745.129833 402.810099 
L 745.931296 366.528141 
L 747.534223 291.003722 
L 748.175393 269.994913 
L 748.656271 259.365343 
L 749.137149 253.168746 
L 749.457734 251.355736 
L 749.618027 251.091869 
L 749.778319 251.227864 
L 750.098905 252.604716 
L 750.41949 255.287319 
L 750.900368 261.305797 
L 751.701831 274.972061 
L 754.587098 328.691264 
L 755.548854 341.637855 
L 756.51061 351.453413 
L 757.312073 357.568178 
L 758.113536 362.166813 
L 758.914999 365.580366 
L 759.716462 368.096335 
L 760.517925 369.946933 
L 761.319388 371.310504 
L 762.281144 372.487452 
L 763.2429 373.312792 
L 764.364948 373.973427 
L 765.647289 374.463243 
L 767.250215 374.825863 
L 769.494312 375.073081 
L 773.02075 375.197619 
L 773.822213 375.207342 
L 774.142798 123.50987 
L 774.463384 78.126563 
L 774.623676 78.223522 
L 775.425139 97.101757 
L 776.226602 107.131363 
L 776.547188 110.059906 
L 776.867773 111.150686 
L 777.028066 110.767219 
L 777.348651 107.98461 
L 777.829529 99.460918 
L 778.630992 81.124557 
L 778.951577 300.731722 
L 779.272162 368.515652 
L 779.592748 393.986257 
L 779.913333 405.654289 
L 780.233918 410.10093 
L 780.394211 410.506381 
L 780.554503 410.134474 
L 781.195674 406.938178 
L 781.355966 406.863859 
L 781.516259 407.337325 
L 781.836844 409.969122 
L 782.317722 417.117716 
L 783.119185 429.112566 
L 783.439771 430.919772 
L 783.600063 430.805918 
L 783.760356 429.944481 
L 784.080941 425.887163 
L 784.401526 418.741216 
L 784.882404 402.810093 
L 785.683867 366.528139 
L 787.286794 291.003725 
L 787.927964 269.994916 
L 788.408842 259.365346 
L 788.88972 253.168749 
L 789.210305 251.355739 
L 789.370598 251.091872 
L 789.53089 251.227867 
L 789.851476 252.604719 
L 790.172061 255.287321 
L 790.652939 261.305799 
L 791.454402 274.972063 
L 794.339669 328.691265 
L 795.301425 341.637856 
L 796.263181 351.453414 
L 797.064644 357.568178 
L 797.866107 362.166814 
L 798.66757 365.580366 
L 799.469033 368.096335 
L 800.270496 369.946934 
L 801.071959 371.310504 
L 802.033715 372.487452 
L 802.995471 373.312792 
L 804.117519 373.973427 
L 805.39986 374.463243 
L 807.002786 374.825863 
L 809.246883 375.073081 
L 812.773321 375.197619 
L 813.414491 375.205684 
L 813.735077 123.508517 
L 814.055662 78.125457 
L 814.215955 78.222521 
L 815.017418 97.101148 
L 815.818881 107.130976 
L 816.139466 110.059577 
L 816.460051 111.150402 
L 816.620344 110.766956 
L 816.940929 107.984379 
L 817.421807 99.460725 
L 818.22327 81.12441 
L 818.543855 300.731578 
L 818.864441 368.515514 
L 819.185026 393.986127 
L 819.505611 405.654169 
L 819.826196 410.100819 
L 819.986489 410.506275 
L 820.146782 410.134373 
L 820.787952 406.938098 
L 820.948245 406.863784 
L 821.108537 407.337255 
L 821.429123 409.969061 
L 821.910001 417.117668 
L 822.711464 429.112535 
L 823.032049 430.919747 
L 823.192342 430.805896 
L 823.352634 429.944461 
L 823.673219 425.887147 
L 823.993805 418.741204 
L 824.474683 402.810085 
L 825.276146 366.528137 
L 826.879072 291.003728 
L 827.520242 269.994919 
L 828.00112 259.365349 
L 828.481998 253.168752 
L 828.802583 251.355742 
L 828.962876 251.091875 
L 829.123169 251.22787 
L 829.443754 252.604722 
L 829.764339 255.287324 
L 830.245217 261.305802 
L 831.04668 274.972065 
L 833.931947 328.691266 
L 834.893703 341.637856 
L 835.855459 351.453414 
L 836.656922 357.568178 
L 837.458385 362.166814 
L 838.259848 365.580366 
L 839.061311 368.096336 
L 839.862775 369.946934 
L 840.664238 371.310504 
L 841.625993 372.487452 
L 842.587749 373.312792 
L 843.709798 373.973427 
L 844.992139 374.463243 
L 846.595065 374.825863 
L 848.839162 375.073081 
L 852.365599 375.197619 
L 854.609696 375.21759 
L 854.930281 123.518106 
L 855.250867 78.133194 
L 855.411159 78.229473 
L 856.212622 97.105256 
L 857.014085 107.133536 
L 857.334671 110.061747 
L 857.655256 111.152272 
L 857.815549 110.7687 
L 858.136134 107.985913 
L 858.617012 99.462017 
L 859.418475 81.125417 
L 859.73906 300.732585 
L 860.059645 368.516491 
L 860.380231 393.987057 
L 860.700816 405.655039 
L 861.021401 410.101622 
L 861.181694 410.507043 
L 861.341986 410.135105 
L 861.983157 406.938683 
L 862.143449 406.864333 
L 862.303742 407.337768 
L 862.624327 409.969506 
L 863.105205 417.118018 
L 863.906668 429.112755 
L 864.227254 430.919925 
L 864.387546 430.806054 
L 864.547839 429.944602 
L 864.868424 425.887255 
L 865.189009 418.741285 
L 865.669887 402.810132 
L 866.47135 366.528145 
L 868.074277 291.003702 
L 868.715447 269.99489 
L 869.196325 259.36532 
L 869.677203 253.168724 
L 869.997788 251.355715 
L 870.158081 251.091848 
L 870.318373 251.227844 
L 870.638959 252.604697 
L 870.959544 255.287301 
L 871.440422 261.305781 
L 872.241885 274.972048 
L 875.127152 328.691258 
L 876.088908 341.637851 
L 877.050664 351.45341 
L 877.852127 357.568175 
L 878.65359 362.166811 
L 879.455053 365.580364 
L 880.256516 368.096334 
L 881.057979 369.946932 
L 881.859442 371.310503 
L 882.821198 372.487452 
L 883.782954 373.312792 
L 884.905002 373.973426 
L 886.187343 374.463243 
L 887.790269 374.825863 
L 890.034366 375.073081 
L 893.560804 375.197619 
L 894.362267 375.207342 
L 894.682852 123.50987 
L 895.003438 78.126563 
L 895.16373 78.223522 
L 895.965193 97.101757 
L 896.766656 107.131363 
L 897.087242 110.059906 
L 897.407827 111.150686 
L 897.56812 110.767219 
L 897.888705 107.98461 
L 898.369583 99.460918 
L 899.171046 81.124557 
L 899.491631 300.731722 
L 899.812216 368.515652 
L 900.132802 393.986257 
L 900.453387 405.654289 
L 900.773972 410.10093 
L 900.934265 410.506381 
L 901.094557 410.134474 
L 901.735728 406.938178 
L 901.89602 406.863859 
L 902.056313 407.337325 
L 902.376898 409.969122 
L 902.857776 417.117716 
L 903.659239 429.112566 
L 903.979825 430.919772 
L 904.140117 430.805918 
L 904.30041 429.944481 
L 904.620995 425.887163 
L 904.94158 418.741216 
L 905.422458 402.810093 
L 906.223921 366.528139 
L 907.826848 291.003725 
L 908.468018 269.994916 
L 908.948896 259.365346 
L 909.429774 253.168749 
L 909.750359 251.355739 
L 909.910652 251.091872 
L 910.070944 251.227867 
L 910.39153 252.604719 
L 910.712115 255.287321 
L 911.192993 261.305799 
L 911.994456 274.972063 
L 914.879723 328.691265 
L 915.841479 341.637856 
L 916.803235 351.453414 
L 917.604698 357.568178 
L 918.406161 362.166814 
L 919.207624 365.580366 
L 920.009087 368.096335 
L 920.81055 369.946934 
L 921.612013 371.310504 
L 922.573769 372.487452 
L 923.535525 373.312792 
L 924.657573 373.973427 
L 925.939914 374.463243 
L 927.54284 374.825863 
L 929.786937 375.073081 
L 933.313375 375.197619 
L 933.794253 375.203892 
L 933.954545 205.650002 
L 933.954545 205.650002 
" clip-path="url(#p956cd13c57)" style="fill: none; stroke: #1f77b4; stroke-width: 1.5; stroke-linecap: square"/>
   </g>
   <g id="line2d_14">
    <path d="M 173.045455 95.794564 
L 177.693941 95.794564 
L 177.854233 375.224315 
L 213.278903 375.224315 
L 213.439196 95.794564 
L 218.087682 95.794564 
L 218.247975 375.224315 
L 253.99323 375.224315 
L 254.153523 95.794564 
L 258.802009 95.794564 
L 258.962302 375.224315 
L 293.585509 375.224315 
L 293.745801 95.794564 
L 298.394287 95.794564 
L 298.55458 375.224315 
L 333.818957 375.224315 
L 333.97925 95.794564 
L 338.627736 95.794564 
L 338.788029 375.224315 
L 373.090651 375.224315 
L 373.250943 95.794564 
L 377.899429 95.794564 
L 378.059722 375.224315 
L 413.644685 375.224315 
L 413.804977 95.794564 
L 418.453463 95.794564 
L 418.613756 375.224315 
L 453.557548 375.224315 
L 453.717841 95.794564 
L 458.366327 95.794564 
L 458.52662 375.224315 
L 493.630705 375.224315 
L 493.790997 95.794564 
L 498.439483 95.794564 
L 498.599776 375.224315 
L 533.864153 375.224315 
L 534.024446 95.794564 
L 538.672932 95.794564 
L 538.833225 375.224315 
L 574.257895 375.224315 
L 574.418188 95.794564 
L 579.066674 95.794564 
L 579.226966 375.224315 
L 613.209003 375.224315 
L 613.369295 95.794564 
L 618.017782 95.794564 
L 618.178074 375.224315 
L 653.92333 375.224315 
L 654.083622 95.794564 
L 658.732108 95.794564 
L 658.892401 375.224315 
L 694.156778 375.224315 
L 694.317071 95.794564 
L 698.965557 95.794564 
L 699.12585 375.224315 
L 734.069642 375.224315 
L 734.229935 95.794564 
L 738.878421 95.794564 
L 739.038713 375.224315 
L 773.822213 375.224315 
L 773.982506 95.794564 
L 778.630992 95.794564 
L 778.791284 375.224315 
L 813.414491 375.224315 
L 813.574784 95.794564 
L 818.22327 95.794564 
L 818.383563 375.224315 
L 854.609696 375.224315 
L 854.769989 95.794564 
L 859.418475 95.794564 
L 859.578767 375.224315 
L 894.362267 375.224315 
L 894.52256 95.794564 
L 899.171046 95.794564 
L 899.331338 375.224315 
L 933.794253 375.224315 
L 933.954545 95.794564 
L 933.954545 95.794564 
" clip-path="url(#p956cd13c57)" style="fill: none; stroke: #ff7f0e; stroke-width: 1.5; stroke-linecap: square"/>
   </g>
   <g id="line2d_15">
    <path d="M 929.466352 375.224315 
" clip-path="url(#p956cd13c57)" style="fill: none; stroke: #000000; stroke-width: 1.5; stroke-linecap: square"/>
    <defs>
     <path id="mdcae3b49c7" d="M 0 1 
C 0.265203 1 0.51958 0.894634 0.707107 0.707107 
C 0.894634 0.51958 1 0.265203 1 0 
C 1 -0.265203 0.894634 -0.51958 0.707107 -0.707107 
C 0.51958 -0.894634 0.265203 -1 0 -1 
C -0.265203 -1 -0.51958 -0.894634 -0.707107 -0.707107 
C -0.894634 -0.51958 -1 -0.265203 -1 0 
C -1 0.265203 -0.894634 0.51958 -0.707107 0.707107 
C -0.51958 0.894634 -0.265203 1 0 1 
z
" style="stroke: #000000"/>
    </defs>
    <g clip-path="url(#p956cd13c57)">
     <use xlink:href="#mdcae3b49c7" x="173.045455" y="95.794564" style="stroke: #000000"/>
     <use xlink:href="#mdcae3b49c7" x="178.174819" y="375.224315" style="stroke: #000000"/>
     <use xlink:href="#mdcae3b49c7" x="183.14389" y="375.224315" style="stroke: #000000"/>
     <use xlink:href="#mdcae3b49c7" x="188.112961" y="95.794564" style="stroke: #000000"/>
     <use xlink:href="#mdcae3b49c7" x="193.082033" y="375.224315" style="stroke: #000000"/>
     <use xlink:href="#mdcae3b49c7" x="198.211397" y="375.224315" style="stroke: #000000"/>
     <use xlink:href="#mdcae3b49c7" x="203.180468" y="95.794564" style="stroke: #000000"/>
     <use xlink:href="#mdcae3b49c7" x="208.149539" y="375.224315" style="stroke: #000000"/>
     <use xlink:href="#mdcae3b49c7" x="213.118611" y="95.794564" style="stroke: #000000"/>
     <use xlink:href="#mdcae3b49c7" x="218.247975" y="375.224315" style="stroke: #000000"/>
     <use xlink:href="#mdcae3b49c7" x="223.217046" y="375.224315" style="stroke: #000000"/>
     <use xlink:href="#mdcae3b49c7" x="228.186118" y="95.794564" style="stroke: #000000"/>
     <use xlink:href="#mdcae3b49c7" x="233.155189" y="375.224315" style="stroke: #000000"/>
     <use xlink:href="#mdcae3b49c7" x="238.284553" y="375.224315" style="stroke: #000000"/>
     <use xlink:href="#mdcae3b49c7" x="243.253624" y="95.794564" style="stroke: #000000"/>
     <use xlink:href="#mdcae3b49c7" x="248.222696" y="375.224315" style="stroke: #000000"/>
     <use xlink:href="#mdcae3b49c7" x="253.191767" y="95.794564" style="stroke: #000000"/>
     <use xlink:href="#mdcae3b49c7" x="258.321131" y="375.224315" style="stroke: #000000"/>
     <use xlink:href="#mdcae3b49c7" x="263.290202" y="375.224315" style="stroke: #000000"/>
     <use xlink:href="#mdcae3b49c7" x="268.259274" y="95.794564" style="stroke: #000000"/>
     <use xlink:href="#mdcae3b49c7" x="273.228345" y="375.224315" style="stroke: #000000"/>
     <use xlink:href="#mdcae3b49c7" x="278.357709" y="375.224315" style="stroke: #000000"/>
     <use xlink:href="#mdcae3b49c7" x="283.326781" y="95.794564" style="stroke: #000000"/>
     <use xlink:href="#mdcae3b49c7" x="288.295852" y="375.224315" style="stroke: #000000"/>
     <use xlink:href="#mdcae3b49c7" x="293.264923" y="95.794564" style="stroke: #000000"/>
     <use xlink:href="#mdcae3b49c7" x="298.394287" y="375.224315" style="stroke: #000000"/>
     <use xlink:href="#mdcae3b49c7" x="303.363359" y="375.224315" style="stroke: #000000"/>
     <use xlink:href="#mdcae3b49c7" x="308.33243" y="95.794564" style="stroke: #000000"/>
     <use xlink:href="#mdcae3b49c7" x="313.301501" y="375.224315" style="stroke: #000000"/>
     <use xlink:href="#mdcae3b49c7" x="318.430865" y="375.224315" style="stroke: #000000"/>
     <use xlink:href="#mdcae3b49c7" x="323.399937" y="95.794564" style="stroke: #000000"/>
     <use xlink:href="#mdcae3b49c7" x="328.369008" y="375.224315" style="stroke: #000000"/>
     <use xlink:href="#mdcae3b49c7" x="333.33808" y="95.794564" style="stroke: #000000"/>
     <use xlink:href="#mdcae3b49c7" x="338.467444" y="375.224315" style="stroke: #000000"/>
     <use xlink:href="#mdcae3b49c7" x="343.436515" y="375.224315" style="stroke: #000000"/>
     <use xlink:href="#mdcae3b49c7" x="348.405586" y="95.794564" style="stroke: #000000"/>
     <use xlink:href="#mdcae3b49c7" x="353.374658" y="375.224315" style="stroke: #000000"/>
     <use xlink:href="#mdcae3b49c7" x="358.504022" y="375.224315" style="stroke: #000000"/>
     <use xlink:href="#mdcae3b49c7" x="363.473093" y="95.794564" style="stroke: #000000"/>
     <use xlink:href="#mdcae3b49c7" x="368.442164" y="375.224315" style="stroke: #000000"/>
     <use xlink:href="#mdcae3b49c7" x="373.411236" y="95.794564" style="stroke: #000000"/>
     <use xlink:href="#mdcae3b49c7" x="378.5406" y="375.224315" style="stroke: #000000"/>
     <use xlink:href="#mdcae3b49c7" x="383.509671" y="375.224315" style="stroke: #000000"/>
     <use xlink:href="#mdcae3b49c7" x="388.478743" y="95.794564" style="stroke: #000000"/>
     <use xlink:href="#mdcae3b49c7" x="393.447814" y="375.224315" style="stroke: #000000"/>
     <use xlink:href="#mdcae3b49c7" x="398.577178" y="375.224315" style="stroke: #000000"/>
     <use xlink:href="#mdcae3b49c7" x="403.546249" y="95.794564" style="stroke: #000000"/>
     <use xlink:href="#mdcae3b49c7" x="408.515321" y="375.224315" style="stroke: #000000"/>
     <use xlink:href="#mdcae3b49c7" x="413.484392" y="95.794564" style="stroke: #000000"/>
     <use xlink:href="#mdcae3b49c7" x="418.613756" y="375.224315" style="stroke: #000000"/>
     <use xlink:href="#mdcae3b49c7" x="423.582827" y="375.224315" style="stroke: #000000"/>
     <use xlink:href="#mdcae3b49c7" x="428.551899" y="95.794564" style="stroke: #000000"/>
     <use xlink:href="#mdcae3b49c7" x="433.52097" y="375.224315" style="stroke: #000000"/>
     <use xlink:href="#mdcae3b49c7" x="438.650334" y="375.224315" style="stroke: #000000"/>
     <use xlink:href="#mdcae3b49c7" x="443.619406" y="95.794564" style="stroke: #000000"/>
     <use xlink:href="#mdcae3b49c7" x="448.588477" y="375.224315" style="stroke: #000000"/>
     <use xlink:href="#mdcae3b49c7" x="453.557548" y="95.794564" style="stroke: #000000"/>
     <use xlink:href="#mdcae3b49c7" x="458.686912" y="375.224315" style="stroke: #000000"/>
     <use xlink:href="#mdcae3b49c7" x="463.655984" y="375.224315" style="stroke: #000000"/>
     <use xlink:href="#mdcae3b49c7" x="468.625055" y="95.794564" style="stroke: #000000"/>
     <use xlink:href="#mdcae3b49c7" x="473.594126" y="375.224315" style="stroke: #000000"/>
     <use xlink:href="#mdcae3b49c7" x="478.72349" y="375.224315" style="stroke: #000000"/>
     <use xlink:href="#mdcae3b49c7" x="483.692562" y="95.794564" style="stroke: #000000"/>
     <use xlink:href="#mdcae3b49c7" x="488.661633" y="375.224315" style="stroke: #000000"/>
     <use xlink:href="#mdcae3b49c7" x="493.630705" y="95.794564" style="stroke: #000000"/>
     <use xlink:href="#mdcae3b49c7" x="498.760069" y="375.224315" style="stroke: #000000"/>
     <use xlink:href="#mdcae3b49c7" x="503.72914" y="375.224315" style="stroke: #000000"/>
     <use xlink:href="#mdcae3b49c7" x="508.698211" y="95.794564" style="stroke: #000000"/>
     <use xlink:href="#mdcae3b49c7" x="513.667283" y="375.224315" style="stroke: #000000"/>
     <use xlink:href="#mdcae3b49c7" x="518.796647" y="375.224315" style="stroke: #000000"/>
     <use xlink:href="#mdcae3b49c7" x="523.765718" y="95.794564" style="stroke: #000000"/>
     <use xlink:href="#mdcae3b49c7" x="528.734789" y="375.224315" style="stroke: #000000"/>
     <use xlink:href="#mdcae3b49c7" x="533.703861" y="95.794564" style="stroke: #000000"/>
     <use xlink:href="#mdcae3b49c7" x="538.833225" y="375.224315" style="stroke: #000000"/>
     <use xlink:href="#mdcae3b49c7" x="543.802296" y="375.224315" style="stroke: #000000"/>
     <use xlink:href="#mdcae3b49c7" x="548.771368" y="95.794564" style="stroke: #000000"/>
     <use xlink:href="#mdcae3b49c7" x="553.740439" y="375.224315" style="stroke: #000000"/>
     <use xlink:href="#mdcae3b49c7" x="558.869803" y="375.224315" style="stroke: #000000"/>
     <use xlink:href="#mdcae3b49c7" x="563.838874" y="95.794564" style="stroke: #000000"/>
     <use xlink:href="#mdcae3b49c7" x="568.807946" y="375.224315" style="stroke: #000000"/>
     <use xlink:href="#mdcae3b49c7" x="573.777017" y="95.794564" style="stroke: #000000"/>
     <use xlink:href="#mdcae3b49c7" x="578.906381" y="375.224315" style="stroke: #000000"/>
     <use xlink:href="#mdcae3b49c7" x="583.875452" y="375.224315" style="stroke: #000000"/>
     <use xlink:href="#mdcae3b49c7" x="588.844524" y="95.794564" style="stroke: #000000"/>
     <use xlink:href="#mdcae3b49c7" x="593.813595" y="375.224315" style="stroke: #000000"/>
     <use xlink:href="#mdcae3b49c7" x="598.942959" y="375.224315" style="stroke: #000000"/>
     <use xlink:href="#mdcae3b49c7" x="603.912031" y="95.794564" style="stroke: #000000"/>
     <use xlink:href="#mdcae3b49c7" x="608.881102" y="375.224315" style="stroke: #000000"/>
     <use xlink:href="#mdcae3b49c7" x="613.850173" y="95.794564" style="stroke: #000000"/>
     <use xlink:href="#mdcae3b49c7" x="618.979537" y="375.224315" style="stroke: #000000"/>
     <use xlink:href="#mdcae3b49c7" x="623.948609" y="375.224315" style="stroke: #000000"/>
     <use xlink:href="#mdcae3b49c7" x="628.91768" y="95.794564" style="stroke: #000000"/>
     <use xlink:href="#mdcae3b49c7" x="633.886751" y="375.224315" style="stroke: #000000"/>
     <use xlink:href="#mdcae3b49c7" x="639.016115" y="375.224315" style="stroke: #000000"/>
     <use xlink:href="#mdcae3b49c7" x="643.985187" y="95.794564" style="stroke: #000000"/>
     <use xlink:href="#mdcae3b49c7" x="648.954258" y="375.224315" style="stroke: #000000"/>
     <use xlink:href="#mdcae3b49c7" x="653.92333" y="95.794564" style="stroke: #000000"/>
     <use xlink:href="#mdcae3b49c7" x="659.052694" y="375.224315" style="stroke: #000000"/>
     <use xlink:href="#mdcae3b49c7" x="664.021765" y="375.224315" style="stroke: #000000"/>
     <use xlink:href="#mdcae3b49c7" x="668.990836" y="95.794564" style="stroke: #000000"/>
     <use xlink:href="#mdcae3b49c7" x="673.959908" y="375.224315" style="stroke: #000000"/>
     <use xlink:href="#mdcae3b49c7" x="679.089272" y="375.224315" style="stroke: #000000"/>
     <use xlink:href="#mdcae3b49c7" x="684.058343" y="95.794564" style="stroke: #000000"/>
     <use xlink:href="#mdcae3b49c7" x="689.027414" y="375.224315" style="stroke: #000000"/>
     <use xlink:href="#mdcae3b49c7" x="693.996486" y="95.794564" style="stroke: #000000"/>
     <use xlink:href="#mdcae3b49c7" x="699.12585" y="375.224315" style="stroke: #000000"/>
     <use xlink:href="#mdcae3b49c7" x="704.094921" y="375.224315" style="stroke: #000000"/>
     <use xlink:href="#mdcae3b49c7" x="709.063993" y="95.794564" style="stroke: #000000"/>
     <use xlink:href="#mdcae3b49c7" x="714.033064" y="375.224315" style="stroke: #000000"/>
     <use xlink:href="#mdcae3b49c7" x="719.162428" y="375.224315" style="stroke: #000000"/>
     <use xlink:href="#mdcae3b49c7" x="724.131499" y="95.794564" style="stroke: #000000"/>
     <use xlink:href="#mdcae3b49c7" x="729.100571" y="375.224315" style="stroke: #000000"/>
     <use xlink:href="#mdcae3b49c7" x="734.069642" y="95.794564" style="stroke: #000000"/>
     <use xlink:href="#mdcae3b49c7" x="739.199006" y="375.224315" style="stroke: #000000"/>
     <use xlink:href="#mdcae3b49c7" x="744.168077" y="375.224315" style="stroke: #000000"/>
     <use xlink:href="#mdcae3b49c7" x="749.137149" y="95.794564" style="stroke: #000000"/>
     <use xlink:href="#mdcae3b49c7" x="754.10622" y="375.224315" style="stroke: #000000"/>
     <use xlink:href="#mdcae3b49c7" x="759.235584" y="375.224315" style="stroke: #000000"/>
     <use xlink:href="#mdcae3b49c7" x="764.204656" y="95.794564" style="stroke: #000000"/>
     <use xlink:href="#mdcae3b49c7" x="769.173727" y="375.224315" style="stroke: #000000"/>
     <use xlink:href="#mdcae3b49c7" x="774.142798" y="95.794564" style="stroke: #000000"/>
     <use xlink:href="#mdcae3b49c7" x="779.272162" y="375.224315" style="stroke: #000000"/>
     <use xlink:href="#mdcae3b49c7" x="784.241234" y="375.224315" style="stroke: #000000"/>
     <use xlink:href="#mdcae3b49c7" x="789.210305" y="95.794564" style="stroke: #000000"/>
     <use xlink:href="#mdcae3b49c7" x="794.179376" y="375.224315" style="stroke: #000000"/>
     <use xlink:href="#mdcae3b49c7" x="799.30874" y="375.224315" style="stroke: #000000"/>
     <use xlink:href="#mdcae3b49c7" x="804.277812" y="95.794564" style="stroke: #000000"/>
     <use xlink:href="#mdcae3b49c7" x="809.246883" y="375.224315" style="stroke: #000000"/>
     <use xlink:href="#mdcae3b49c7" x="814.215955" y="95.794564" style="stroke: #000000"/>
     <use xlink:href="#mdcae3b49c7" x="819.345319" y="375.224315" style="stroke: #000000"/>
     <use xlink:href="#mdcae3b49c7" x="824.31439" y="375.224315" style="stroke: #000000"/>
     <use xlink:href="#mdcae3b49c7" x="829.283461" y="95.794564" style="stroke: #000000"/>
     <use xlink:href="#mdcae3b49c7" x="834.252533" y="375.224315" style="stroke: #000000"/>
     <use xlink:href="#mdcae3b49c7" x="839.381897" y="375.224315" style="stroke: #000000"/>
     <use xlink:href="#mdcae3b49c7" x="844.350968" y="95.794564" style="stroke: #000000"/>
     <use xlink:href="#mdcae3b49c7" x="849.320039" y="375.224315" style="stroke: #000000"/>
     <use xlink:href="#mdcae3b49c7" x="854.289111" y="95.794564" style="stroke: #000000"/>
     <use xlink:href="#mdcae3b49c7" x="859.418475" y="375.224315" style="stroke: #000000"/>
     <use xlink:href="#mdcae3b49c7" x="864.387546" y="375.224315" style="stroke: #000000"/>
     <use xlink:href="#mdcae3b49c7" x="869.356618" y="95.794564" style="stroke: #000000"/>
     <use xlink:href="#mdcae3b49c7" x="874.325689" y="375.224315" style="stroke: #000000"/>
     <use xlink:href="#mdcae3b49c7" x="879.455053" y="375.224315" style="stroke: #000000"/>
     <use xlink:href="#mdcae3b49c7" x="884.424124" y="95.794564" style="stroke: #000000"/>
     <use xlink:href="#mdcae3b49c7" x="889.393196" y="375.224315" style="stroke: #000000"/>
     <use xlink:href="#mdcae3b49c7" x="894.362267" y="95.794564" style="stroke: #000000"/>
     <use xlink:href="#mdcae3b49c7" x="899.491631" y="375.224315" style="stroke: #000000"/>
     <use xlink:href="#mdcae3b49c7" x="904.460702" y="375.224315" style="stroke: #000000"/>
     <use xlink:href="#mdcae3b49c7" x="909.429774" y="95.794564" style="stroke: #000000"/>
     <use xlink:href="#mdcae3b49c7" x="914.398845" y="375.224315" style="stroke: #000000"/>
     <use xlink:href="#mdcae3b49c7" x="919.528209" y="375.224315" style="stroke: #000000"/>
     <use xlink:href="#mdcae3b49c7" x="924.497281" y="95.794564" style="stroke: #000000"/>
     <use xlink:href="#mdcae3b49c7" x="929.466352" y="375.224315" style="stroke: #000000"/>
    </g>
   </g>
   <g id="patch_3">
    <path d="M 135 448.56 
L 135 60.48 
" style="fill: none; stroke: #000000; stroke-width: 0.8; stroke-linejoin: miter; stroke-linecap: square"/>
   </g>
   <g id="patch_4">
    <path d="M 972 448.56 
L 972 60.48 
" style="fill: none; stroke: #000000; stroke-width: 0.8; stroke-linejoin: miter; stroke-linecap: square"/>
   </g>
   <g id="patch_5">
    <path d="M 135 448.56 
L 972 448.56 
" style="fill: none; stroke: #000000; stroke-width: 0.8; stroke-linejoin: miter; stroke-linecap: square"/>
   </g>
   <g id="patch_6">
    <path d="M 135 60.48 
L 972 60.48 
" style="fill: none; stroke: #000000; stroke-width: 0.8; stroke-linejoin: miter; stroke-linecap: square"/>
   </g>
   <g id="legend_1">
    <g id="patch_7">
     <path d="M 895.915625 278.315313 
L 965 278.315313 
Q 967 278.315313 967 276.315313 
L 967 232.724688 
Q 967 230.724688 965 230.724688 
L 895.915625 230.724688 
Q 893.915625 230.724688 893.915625 232.724688 
L 893.915625 276.315313 
Q 893.915625 278.315313 895.915625 278.315313 
z
" style="fill: #ffffff; opacity: 0.8; stroke: #cccccc; stroke-linejoin: miter"/>
    </g>
    <g id="line2d_16">
     <path d="M 897.915625 238.823125 
L 907.915625 238.823125 
L 917.915625 238.823125 
" style="fill: none; stroke: #1f77b4; stroke-width: 1.5; stroke-linecap: square"/>
    </g>
    <g id="text_14">
     <!-- nw_0 -->
     <g transform="translate(925.915625 242.323125) scale(0.1 -0.1)">
      <defs>
       <path id="DejaVuSans-6e" d="M 3513 2113 
L 3513 0 
L 2938 0 
L 2938 2094 
Q 2938 2591 2744 2837 
Q 2550 3084 2163 3084 
Q 1697 3084 1428 2787 
Q 1159 2491 1159 1978 
L 1159 0 
L 581 0 
L 581 3500 
L 1159 3500 
L 1159 2956 
Q 1366 3272 1645 3428 
Q 1925 3584 2291 3584 
Q 2894 3584 3203 3211 
Q 3513 2838 3513 2113 
z
" transform="scale(0.015625)"/>
       <path id="DejaVuSans-77" d="M 269 3500 
L 844 3500 
L 1563 769 
L 2278 3500 
L 2956 3500 
L 3675 769 
L 4391 3500 
L 4966 3500 
L 4050 0 
L 3372 0 
L 2619 2869 
L 1863 0 
L 1184 0 
L 269 3500 
z
" transform="scale(0.015625)"/>
       <path id="DejaVuSans-5f" d="M 3263 -1063 
L 3263 -1509 
L -63 -1509 
L -63 -1063 
L 3263 -1063 
z
" transform="scale(0.015625)"/>
      </defs>
      <use xlink:href="#DejaVuSans-6e"/>
      <use xlink:href="#DejaVuSans-77" x="63.378906"/>
      <use xlink:href="#DejaVuSans-5f" x="145.166016"/>
      <use xlink:href="#DejaVuSans-30" x="195.166016"/>
     </g>
    </g>
    <g id="line2d_17">
     <path d="M 897.915625 253.779375 
L 907.915625 253.779375 
L 917.915625 253.779375 
" style="fill: none; stroke: #ff7f0e; stroke-width: 1.5; stroke-linecap: square"/>
    </g>
    <g id="text_15">
     <!-- input_0 -->
     <g transform="translate(925.915625 257.279375) scale(0.1 -0.1)">
      <defs>
       <path id="DejaVuSans-69" d="M 603 3500 
L 1178 3500 
L 1178 0 
L 603 0 
L 603 3500 
z
M 603 4863 
L 1178 4863 
L 1178 4134 
L 603 4134 
L 603 4863 
z
" transform="scale(0.015625)"/>
       <path id="DejaVuSans-70" d="M 1159 525 
L 1159 -1331 
L 581 -1331 
L 581 3500 
L 1159 3500 
L 1159 2969 
Q 1341 3281 1617 3432 
Q 1894 3584 2278 3584 
Q 2916 3584 3314 3078 
Q 3713 2572 3713 1747 
Q 3713 922 3314 415 
Q 2916 -91 2278 -91 
Q 1894 -91 1617 61 
Q 1341 213 1159 525 
z
M 3116 1747 
Q 3116 2381 2855 2742 
Q 2594 3103 2138 3103 
Q 1681 3103 1420 2742 
Q 1159 2381 1159 1747 
Q 1159 1113 1420 752 
Q 1681 391 2138 391 
Q 2594 391 2855 752 
Q 3116 1113 3116 1747 
z
" transform="scale(0.015625)"/>
       <path id="DejaVuSans-75" d="M 544 1381 
L 544 3500 
L 1119 3500 
L 1119 1403 
Q 1119 906 1312 657 
Q 1506 409 1894 409 
Q 2359 409 2629 706 
Q 2900 1003 2900 1516 
L 2900 3500 
L 3475 3500 
L 3475 0 
L 2900 0 
L 2900 538 
Q 2691 219 2414 64 
Q 2138 -91 1772 -91 
Q 1169 -91 856 284 
Q 544 659 544 1381 
z
M 1991 3584 
L 1991 3584 
z
" transform="scale(0.015625)"/>
      </defs>
      <use xlink:href="#DejaVuSans-69"/>
      <use xlink:href="#DejaVuSans-6e" x="27.783203"/>
      <use xlink:href="#DejaVuSans-70" x="91.162109"/>
      <use xlink:href="#DejaVuSans-75" x="154.638672"/>
      <use xlink:href="#DejaVuSans-74" x="218.017578"/>
      <use xlink:href="#DejaVuSans-5f" x="257.226562"/>
      <use xlink:href="#DejaVuSans-30" x="307.226562"/>
     </g>
    </g>
    <g id="line2d_18">
     <path d="M 897.915625 268.735625 
L 907.915625 268.735625 
L 917.915625 268.735625 
" style="fill: none; stroke: #000000; stroke-width: 1.5; stroke-linecap: square"/>
     <g>
      <use xlink:href="#mdcae3b49c7" x="907.915625" y="268.735625" style="stroke: #000000"/>
     </g>
    </g>
    <g id="text_16">
     <!-- target -->
     <g transform="translate(925.915625 272.235625) scale(0.1 -0.1)">
      <defs>
       <path id="DejaVuSans-61" d="M 2194 1759 
Q 1497 1759 1228 1600 
Q 959 1441 959 1056 
Q 959 750 1161 570 
Q 1363 391 1709 391 
Q 2188 391 2477 730 
Q 2766 1069 2766 1631 
L 2766 1759 
L 2194 1759 
z
M 3341 1997 
L 3341 0 
L 2766 0 
L 2766 531 
Q 2569 213 2275 61 
Q 1981 -91 1556 -91 
Q 1019 -91 701 211 
Q 384 513 384 1019 
Q 384 1609 779 1909 
Q 1175 2209 1959 2209 
L 2766 2209 
L 2766 2266 
Q 2766 2663 2505 2880 
Q 2244 3097 1772 3097 
Q 1472 3097 1187 3025 
Q 903 2953 641 2809 
L 641 3341 
Q 956 3463 1253 3523 
Q 1550 3584 1831 3584 
Q 2591 3584 2966 3190 
Q 3341 2797 3341 1997 
z
" transform="scale(0.015625)"/>
       <path id="DejaVuSans-72" d="M 2631 2963 
Q 2534 3019 2420 3045 
Q 2306 3072 2169 3072 
Q 1681 3072 1420 2755 
Q 1159 2438 1159 1844 
L 1159 0 
L 581 0 
L 581 3500 
L 1159 3500 
L 1159 2956 
Q 1341 3275 1631 3429 
Q 1922 3584 2338 3584 
Q 2397 3584 2469 3576 
Q 2541 3569 2628 3553 
L 2631 2963 
z
" transform="scale(0.015625)"/>
       <path id="DejaVuSans-67" d="M 2906 1791 
Q 2906 2416 2648 2759 
Q 2391 3103 1925 3103 
Q 1463 3103 1205 2759 
Q 947 2416 947 1791 
Q 947 1169 1205 825 
Q 1463 481 1925 481 
Q 2391 481 2648 825 
Q 2906 1169 2906 1791 
z
M 3481 434 
Q 3481 -459 3084 -895 
Q 2688 -1331 1869 -1331 
Q 1566 -1331 1297 -1286 
Q 1028 -1241 775 -1147 
L 775 -588 
Q 1028 -725 1275 -790 
Q 1522 -856 1778 -856 
Q 2344 -856 2625 -561 
Q 2906 -266 2906 331 
L 2906 616 
Q 2728 306 2450 153 
Q 2172 0 1784 0 
Q 1141 0 747 490 
Q 353 981 353 1791 
Q 353 2603 747 3093 
Q 1141 3584 1784 3584 
Q 2172 3584 2450 3431 
Q 2728 3278 2906 2969 
L 2906 3500 
L 3481 3500 
L 3481 434 
z
" transform="scale(0.015625)"/>
       <path id="DejaVuSans-65" d="M 3597 1894 
L 3597 1613 
L 953 1613 
Q 991 1019 1311 708 
Q 1631 397 2203 397 
Q 2534 397 2845 478 
Q 3156 559 3463 722 
L 3463 178 
Q 3153 47 2828 -22 
Q 2503 -91 2169 -91 
Q 1331 -91 842 396 
Q 353 884 353 1716 
Q 353 2575 817 3079 
Q 1281 3584 2069 3584 
Q 2775 3584 3186 3129 
Q 3597 2675 3597 1894 
z
M 3022 2063 
Q 3016 2534 2758 2815 
Q 2500 3097 2075 3097 
Q 1594 3097 1305 2825 
Q 1016 2553 972 2059 
L 3022 2063 
z
" transform="scale(0.015625)"/>
      </defs>
      <use xlink:href="#DejaVuSans-74"/>
      <use xlink:href="#DejaVuSans-61" x="39.208984"/>
      <use xlink:href="#DejaVuSans-72" x="100.488281"/>
      <use xlink:href="#DejaVuSans-67" x="139.851562"/>
      <use xlink:href="#DejaVuSans-65" x="203.328125"/>
      <use xlink:href="#DejaVuSans-74" x="264.851562"/>
     </g>
    </g>
   </g>
  </g>
 </g>
 <defs>
  <clipPath id="p956cd13c57">
   <rect x="135" y="60.48" width="837" height="388.08"/>
  </clipPath>
 </defs>
</svg>
