<?xml version="1.0" encoding="utf-8" standalone="no"?>
<!DOCTYPE svg PUBLIC "-//W3C//DTD SVG 1.1//EN"
  "http://www.w3.org/Graphics/SVG/1.1/DTD/svg11.dtd">
<svg xmlns:xlink="http://www.w3.org/1999/xlink" width="1080pt" height="504pt" viewBox="0 0 1080 504" xmlns="http://www.w3.org/2000/svg" version="1.1">
 <metadata>
  <rdf:RDF xmlns:dc="http://purl.org/dc/elements/1.1/" xmlns:cc="http://creativecommons.org/ns#" xmlns:rdf="http://www.w3.org/1999/02/22-rdf-syntax-ns#">
   <cc:Work>
    <dc:type rdf:resource="http://purl.org/dc/dcmitype/StillImage"/>
    <dc:date>2024-05-09T11:11:55.355553</dc:date>
    <dc:format>image/svg+xml</dc:format>
    <dc:creator>
     <cc:Agent>
      <dc:title>Matplotlib v3.7.1, https://matplotlib.org/</dc:title>
     </cc:Agent>
    </dc:creator>
   </cc:Work>
  </rdf:RDF>
 </metadata>
 <defs>
  <style type="text/css">*{stroke-linejoin: round; stroke-linecap: butt}</style>
 </defs>
 <g id="figure_1">
  <g id="patch_1">
   <path d="M 0 504 
L 1080 504 
L 1080 0 
L 0 0 
z
" style="fill: #ffffff"/>
  </g>
  <g id="axes_1">
   <g id="patch_2">
    <path d="M 135 448.56 
L 972 448.56 
L 972 60.48 
L 135 60.48 
z
" style="fill: #ffffff"/>
   </g>
   <g id="matplotlib.axis_1">
    <g id="xtick_1">
     <g id="line2d_1">
      <defs>
       <path id="m78eaaec721" d="M 0 0 
L 0 3.5 
" style="stroke: #000000; stroke-width: 0.8"/>
      </defs>
      <g>
       <use xlink:href="#m78eaaec721" x="173.045455" y="448.56" style="stroke: #000000; stroke-width: 0.8"/>
      </g>
     </g>
     <g id="text_1">
      <!-- 0 -->
      <g transform="translate(169.864205 463.158437) scale(0.1 -0.1)">
       <defs>
        <path id="DejaVuSans-30" d="M 2034 4250 
Q 1547 4250 1301 3770 
Q 1056 3291 1056 2328 
Q 1056 1369 1301 889 
Q 1547 409 2034 409 
Q 2525 409 2770 889 
Q 3016 1369 3016 2328 
Q 3016 3291 2770 3770 
Q 2525 4250 2034 4250 
z
M 2034 4750 
Q 2819 4750 3233 4129 
Q 3647 3509 3647 2328 
Q 3647 1150 3233 529 
Q 2819 -91 2034 -91 
Q 1250 -91 836 529 
Q 422 1150 422 2328 
Q 422 3509 836 4129 
Q 1250 4750 2034 4750 
z
" transform="scale(0.015625)"/>
       </defs>
       <use xlink:href="#DejaVuSans-30"/>
      </g>
     </g>
    </g>
    <g id="xtick_2">
     <g id="line2d_2">
      <g>
       <use xlink:href="#m78eaaec721" x="333.33808" y="448.56" style="stroke: #000000; stroke-width: 0.8"/>
      </g>
     </g>
     <g id="text_2">
      <!-- 1000 -->
      <g transform="translate(320.61308 463.158437) scale(0.1 -0.1)">
       <defs>
        <path id="DejaVuSans-31" d="M 794 531 
L 1825 531 
L 1825 4091 
L 703 3866 
L 703 4441 
L 1819 4666 
L 2450 4666 
L 2450 531 
L 3481 531 
L 3481 0 
L 794 0 
L 794 531 
z
" transform="scale(0.015625)"/>
       </defs>
       <use xlink:href="#DejaVuSans-31"/>
       <use xlink:href="#DejaVuSans-30" x="63.623047"/>
       <use xlink:href="#DejaVuSans-30" x="127.246094"/>
       <use xlink:href="#DejaVuSans-30" x="190.869141"/>
      </g>
     </g>
    </g>
    <g id="xtick_3">
     <g id="line2d_3">
      <g>
       <use xlink:href="#m78eaaec721" x="493.630705" y="448.56" style="stroke: #000000; stroke-width: 0.8"/>
      </g>
     </g>
     <g id="text_3">
      <!-- 2000 -->
      <g transform="translate(480.905705 463.158437) scale(0.1 -0.1)">
       <defs>
        <path id="DejaVuSans-32" d="M 1228 531 
L 3431 531 
L 3431 0 
L 469 0 
L 469 531 
Q 828 903 1448 1529 
Q 2069 2156 2228 2338 
Q 2531 2678 2651 2914 
Q 2772 3150 2772 3378 
Q 2772 3750 2511 3984 
Q 2250 4219 1831 4219 
Q 1534 4219 1204 4116 
Q 875 4013 500 3803 
L 500 4441 
Q 881 4594 1212 4672 
Q 1544 4750 1819 4750 
Q 2544 4750 2975 4387 
Q 3406 4025 3406 3419 
Q 3406 3131 3298 2873 
Q 3191 2616 2906 2266 
Q 2828 2175 2409 1742 
Q 1991 1309 1228 531 
z
" transform="scale(0.015625)"/>
       </defs>
       <use xlink:href="#DejaVuSans-32"/>
       <use xlink:href="#DejaVuSans-30" x="63.623047"/>
       <use xlink:href="#DejaVuSans-30" x="127.246094"/>
       <use xlink:href="#DejaVuSans-30" x="190.869141"/>
      </g>
     </g>
    </g>
    <g id="xtick_4">
     <g id="line2d_4">
      <g>
       <use xlink:href="#m78eaaec721" x="653.92333" y="448.56" style="stroke: #000000; stroke-width: 0.8"/>
      </g>
     </g>
     <g id="text_4">
      <!-- 3000 -->
      <g transform="translate(641.19833 463.158437) scale(0.1 -0.1)">
       <defs>
        <path id="DejaVuSans-33" d="M 2597 2516 
Q 3050 2419 3304 2112 
Q 3559 1806 3559 1356 
Q 3559 666 3084 287 
Q 2609 -91 1734 -91 
Q 1441 -91 1130 -33 
Q 819 25 488 141 
L 488 750 
Q 750 597 1062 519 
Q 1375 441 1716 441 
Q 2309 441 2620 675 
Q 2931 909 2931 1356 
Q 2931 1769 2642 2001 
Q 2353 2234 1838 2234 
L 1294 2234 
L 1294 2753 
L 1863 2753 
Q 2328 2753 2575 2939 
Q 2822 3125 2822 3475 
Q 2822 3834 2567 4026 
Q 2313 4219 1838 4219 
Q 1578 4219 1281 4162 
Q 984 4106 628 3988 
L 628 4550 
Q 988 4650 1302 4700 
Q 1616 4750 1894 4750 
Q 2613 4750 3031 4423 
Q 3450 4097 3450 3541 
Q 3450 3153 3228 2886 
Q 3006 2619 2597 2516 
z
" transform="scale(0.015625)"/>
       </defs>
       <use xlink:href="#DejaVuSans-33"/>
       <use xlink:href="#DejaVuSans-30" x="63.623047"/>
       <use xlink:href="#DejaVuSans-30" x="127.246094"/>
       <use xlink:href="#DejaVuSans-30" x="190.869141"/>
      </g>
     </g>
    </g>
    <g id="xtick_5">
     <g id="line2d_5">
      <g>
       <use xlink:href="#m78eaaec721" x="814.215955" y="448.56" style="stroke: #000000; stroke-width: 0.8"/>
      </g>
     </g>
     <g id="text_5">
      <!-- 4000 -->
      <g transform="translate(801.490955 463.158437) scale(0.1 -0.1)">
       <defs>
        <path id="DejaVuSans-34" d="M 2419 4116 
L 825 1625 
L 2419 1625 
L 2419 4116 
z
M 2253 4666 
L 3047 4666 
L 3047 1625 
L 3713 1625 
L 3713 1100 
L 3047 1100 
L 3047 0 
L 2419 0 
L 2419 1100 
L 313 1100 
L 313 1709 
L 2253 4666 
z
" transform="scale(0.015625)"/>
       </defs>
       <use xlink:href="#DejaVuSans-34"/>
       <use xlink:href="#DejaVuSans-30" x="63.623047"/>
       <use xlink:href="#DejaVuSans-30" x="127.246094"/>
       <use xlink:href="#DejaVuSans-30" x="190.869141"/>
      </g>
     </g>
    </g>
    <g id="text_6">
     <!-- t -->
     <g transform="translate(551.539844 476.836563) scale(0.1 -0.1)">
      <defs>
       <path id="DejaVuSans-74" d="M 1172 4494 
L 1172 3500 
L 2356 3500 
L 2356 3053 
L 1172 3053 
L 1172 1153 
Q 1172 725 1289 603 
Q 1406 481 1766 481 
L 2356 481 
L 2356 0 
L 1766 0 
Q 1100 0 847 248 
Q 594 497 594 1153 
L 594 3053 
L 172 3053 
L 172 3500 
L 594 3500 
L 594 4494 
L 1172 4494 
z
" transform="scale(0.015625)"/>
      </defs>
      <use xlink:href="#DejaVuSans-74"/>
     </g>
    </g>
   </g>
   <g id="matplotlib.axis_2">
    <g id="ytick_1">
     <g id="line2d_6">
      <defs>
       <path id="m65a1281105" d="M 0 0 
L -3.5 0 
" style="stroke: #000000; stroke-width: 0.8"/>
      </defs>
      <g>
       <use xlink:href="#m65a1281105" x="135" y="447.817981" style="stroke: #000000; stroke-width: 0.8"/>
      </g>
     </g>
     <g id="text_7">
      <!-- −0.2 -->
      <g transform="translate(103.717187 451.617199) scale(0.1 -0.1)">
       <defs>
        <path id="DejaVuSans-2212" d="M 678 2272 
L 4684 2272 
L 4684 1741 
L 678 1741 
L 678 2272 
z
" transform="scale(0.015625)"/>
        <path id="DejaVuSans-2e" d="M 684 794 
L 1344 794 
L 1344 0 
L 684 0 
L 684 794 
z
" transform="scale(0.015625)"/>
       </defs>
       <use xlink:href="#DejaVuSans-2212"/>
       <use xlink:href="#DejaVuSans-30" x="83.789062"/>
       <use xlink:href="#DejaVuSans-2e" x="147.412109"/>
       <use xlink:href="#DejaVuSans-32" x="179.199219"/>
      </g>
     </g>
    </g>
    <g id="ytick_2">
     <g id="line2d_7">
      <g>
       <use xlink:href="#m65a1281105" x="135" y="386.20165" style="stroke: #000000; stroke-width: 0.8"/>
      </g>
     </g>
     <g id="text_8">
      <!-- 0.0 -->
      <g transform="translate(112.096875 390.000869) scale(0.1 -0.1)">
       <use xlink:href="#DejaVuSans-30"/>
       <use xlink:href="#DejaVuSans-2e" x="63.623047"/>
       <use xlink:href="#DejaVuSans-30" x="95.410156"/>
      </g>
     </g>
    </g>
    <g id="ytick_3">
     <g id="line2d_8">
      <g>
       <use xlink:href="#m65a1281105" x="135" y="324.58532" style="stroke: #000000; stroke-width: 0.8"/>
      </g>
     </g>
     <g id="text_9">
      <!-- 0.2 -->
      <g transform="translate(112.096875 328.384539) scale(0.1 -0.1)">
       <use xlink:href="#DejaVuSans-30"/>
       <use xlink:href="#DejaVuSans-2e" x="63.623047"/>
       <use xlink:href="#DejaVuSans-32" x="95.410156"/>
      </g>
     </g>
    </g>
    <g id="ytick_4">
     <g id="line2d_9">
      <g>
       <use xlink:href="#m65a1281105" x="135" y="262.96899" style="stroke: #000000; stroke-width: 0.8"/>
      </g>
     </g>
     <g id="text_10">
      <!-- 0.4 -->
      <g transform="translate(112.096875 266.768209) scale(0.1 -0.1)">
       <use xlink:href="#DejaVuSans-30"/>
       <use xlink:href="#DejaVuSans-2e" x="63.623047"/>
       <use xlink:href="#DejaVuSans-34" x="95.410156"/>
      </g>
     </g>
    </g>
    <g id="ytick_5">
     <g id="line2d_10">
      <g>
       <use xlink:href="#m65a1281105" x="135" y="201.35266" style="stroke: #000000; stroke-width: 0.8"/>
      </g>
     </g>
     <g id="text_11">
      <!-- 0.6 -->
      <g transform="translate(112.096875 205.151879) scale(0.1 -0.1)">
       <defs>
        <path id="DejaVuSans-36" d="M 2113 2584 
Q 1688 2584 1439 2293 
Q 1191 2003 1191 1497 
Q 1191 994 1439 701 
Q 1688 409 2113 409 
Q 2538 409 2786 701 
Q 3034 994 3034 1497 
Q 3034 2003 2786 2293 
Q 2538 2584 2113 2584 
z
M 3366 4563 
L 3366 3988 
Q 3128 4100 2886 4159 
Q 2644 4219 2406 4219 
Q 1781 4219 1451 3797 
Q 1122 3375 1075 2522 
Q 1259 2794 1537 2939 
Q 1816 3084 2150 3084 
Q 2853 3084 3261 2657 
Q 3669 2231 3669 1497 
Q 3669 778 3244 343 
Q 2819 -91 2113 -91 
Q 1303 -91 875 529 
Q 447 1150 447 2328 
Q 447 3434 972 4092 
Q 1497 4750 2381 4750 
Q 2619 4750 2861 4703 
Q 3103 4656 3366 4563 
z
" transform="scale(0.015625)"/>
       </defs>
       <use xlink:href="#DejaVuSans-30"/>
       <use xlink:href="#DejaVuSans-2e" x="63.623047"/>
       <use xlink:href="#DejaVuSans-36" x="95.410156"/>
      </g>
     </g>
    </g>
    <g id="ytick_6">
     <g id="line2d_11">
      <g>
       <use xlink:href="#m65a1281105" x="135" y="139.73633" style="stroke: #000000; stroke-width: 0.8"/>
      </g>
     </g>
     <g id="text_12">
      <!-- 0.8 -->
      <g transform="translate(112.096875 143.535549) scale(0.1 -0.1)">
       <defs>
        <path id="DejaVuSans-38" d="M 2034 2216 
Q 1584 2216 1326 1975 
Q 1069 1734 1069 1313 
Q 1069 891 1326 650 
Q 1584 409 2034 409 
Q 2484 409 2743 651 
Q 3003 894 3003 1313 
Q 3003 1734 2745 1975 
Q 2488 2216 2034 2216 
z
M 1403 2484 
Q 997 2584 770 2862 
Q 544 3141 544 3541 
Q 544 4100 942 4425 
Q 1341 4750 2034 4750 
Q 2731 4750 3128 4425 
Q 3525 4100 3525 3541 
Q 3525 3141 3298 2862 
Q 3072 2584 2669 2484 
Q 3125 2378 3379 2068 
Q 3634 1759 3634 1313 
Q 3634 634 3220 271 
Q 2806 -91 2034 -91 
Q 1263 -91 848 271 
Q 434 634 434 1313 
Q 434 1759 690 2068 
Q 947 2378 1403 2484 
z
M 1172 3481 
Q 1172 3119 1398 2916 
Q 1625 2713 2034 2713 
Q 2441 2713 2670 2916 
Q 2900 3119 2900 3481 
Q 2900 3844 2670 4047 
Q 2441 4250 2034 4250 
Q 1625 4250 1398 4047 
Q 1172 3844 1172 3481 
z
" transform="scale(0.015625)"/>
       </defs>
       <use xlink:href="#DejaVuSans-30"/>
       <use xlink:href="#DejaVuSans-2e" x="63.623047"/>
       <use xlink:href="#DejaVuSans-38" x="95.410156"/>
      </g>
     </g>
    </g>
    <g id="ytick_7">
     <g id="line2d_12">
      <g>
       <use xlink:href="#m65a1281105" x="135" y="78.12" style="stroke: #000000; stroke-width: 0.8"/>
      </g>
     </g>
     <g id="text_13">
      <!-- 1.0 -->
      <g transform="translate(112.096875 81.919219) scale(0.1 -0.1)">
       <use xlink:href="#DejaVuSans-31"/>
       <use xlink:href="#DejaVuSans-2e" x="63.623047"/>
       <use xlink:href="#DejaVuSans-30" x="95.410156"/>
      </g>
     </g>
    </g>
   </g>
   <g id="line2d_13">
    <path d="M 173.045455 192.186082 
L 173.205747 139.009556 
L 173.36604 135.977624 
L 173.526332 142.163352 
L 173.686625 143.789346 
L 173.846918 139.5587 
L 174.327796 120.118999 
L 174.488088 117.817256 
L 174.648381 118.056399 
L 174.968966 123.071107 
L 175.449844 130.759292 
L 175.610137 131.745061 
L 175.770429 131.812181 
L 175.930722 131.03595 
L 176.251307 127.367231 
L 176.732185 117.783831 
L 177.373355 99.090132 
L 177.693941 87.839467 
L 178.014526 346.553932 
L 178.174819 350.682613 
L 178.655696 289.283164 
L 178.815989 292.393069 
L 179.136574 335.76497 
L 179.617452 409.59466 
L 179.938037 429.450223 
L 180.09833 430.92 
L 180.258623 428.709038 
L 181.220378 404.815156 
L 181.380671 403.978808 
L 181.540964 404.061527 
L 181.861549 405.971438 
L 182.342427 409.403802 
L 182.502719 409.86975 
L 182.663012 409.756781 
L 182.823305 408.977067 
L 183.14389 405.233384 
L 183.464475 398.552451 
L 183.945353 383.679992 
L 184.746816 350.516251 
L 186.349742 282.637155 
L 187.151206 258.442403 
L 187.792376 245.560656 
L 188.273254 239.464469 
L 188.754132 235.997918 
L 189.074717 234.914627 
L 189.395302 234.647977 
L 189.555595 234.778859 
L 189.87618 235.491737 
L 190.357058 237.484347 
L 190.998229 241.389272 
L 191.959984 248.845644 
L 194.524666 271.430617 
L 196.929056 291.533803 
L 198.852567 305.8833 
L 200.615786 317.51068 
L 202.379005 327.668204 
L 203.981931 335.695924 
L 205.584857 342.677209 
L 207.187784 348.724327 
L 208.79071 353.948771 
L 210.393636 358.454818 
L 211.996562 362.336912 
L 213.278903 365.050093 
L 213.439196 172.229433 
L 213.599489 120.034444 
L 213.759781 117.781448 
L 213.920074 124.535022 
L 214.080367 126.535049 
L 214.240659 122.519667 
L 214.721537 103.260799 
L 214.88183 101.022939 
L 215.042122 101.383221 
L 215.362708 106.857375 
L 215.843585 115.722383 
L 216.164171 117.757526 
L 216.324463 117.498951 
L 216.645049 114.882536 
L 217.125926 106.866516 
L 217.767097 90.18465 
L 218.087682 79.889836 
L 218.408267 339.308531 
L 218.56856 343.877446 
L 219.049438 283.676697 
L 219.209731 287.132522 
L 219.530316 331.113396 
L 220.011194 405.653086 
L 220.331779 425.860494 
L 220.492072 427.476274 
L 220.652364 425.395068 
L 221.61412 402.087757 
L 221.774413 401.335497 
L 221.934705 401.501193 
L 222.25529 403.574323 
L 222.736168 407.241766 
L 222.896461 407.782052 
L 223.056754 407.740793 
L 223.217046 407.029868 
L 223.537631 403.414209 
L 223.858217 396.848072 
L 224.339095 382.124229 
L 225.140558 349.158007 
L 226.743484 281.56918 
L 227.544947 257.490684 
L 228.186118 244.691575 
L 228.666995 238.651935 
L 229.147873 235.237674 
L 229.468459 234.187041 
L 229.628751 233.975917 
L 229.789044 233.951394 
L 229.949336 234.097182 
L 230.269922 234.838732 
L 230.7508 236.871639 
L 231.39197 240.825613 
L 232.353726 248.346665 
L 234.918408 271.063525 
L 237.322797 291.252933 
L 239.246309 305.654146 
L 241.009528 317.319359 
L 242.772746 327.507795 
L 244.375673 335.5589 
L 245.978599 342.559948 
L 247.581525 348.623848 
L 249.184451 353.86259 
L 250.787378 358.380851 
L 252.390304 362.273397 
L 253.99323 365.624429 
L 254.153523 172.771533 
L 254.313815 120.550286 
L 254.474108 118.276521 
L 254.634401 125.014964 
L 254.794693 127.005006 
L 254.954986 122.983839 
L 255.435864 103.719814 
L 255.596156 101.480077 
L 255.756449 101.836925 
L 256.077034 107.298339 
L 256.557912 116.131067 
L 256.878497 118.139351 
L 257.03879 117.866631 
L 257.359375 115.221473 
L 257.840253 107.162663 
L 258.481424 90.425943 
L 258.802009 80.105106 
L 259.122594 339.504657 
L 259.282887 344.061628 
L 259.763765 283.828358 
L 259.924057 287.274795 
L 260.244643 331.239136 
L 260.72552 405.759547 
L 261.046106 425.957403 
L 261.206398 427.569221 
L 261.366691 425.484494 
L 262.328447 402.161305 
L 262.488739 401.406776 
L 262.649032 401.570233 
L 262.969617 403.638964 
L 263.450495 407.300075 
L 263.610788 407.83836 
L 263.77108 407.795171 
L 263.931373 407.082394 
L 264.251958 403.46329 
L 264.572543 396.894064 
L 265.053421 382.166221 
L 265.854884 349.194682 
L 267.457811 281.598029 
L 268.259274 257.516395 
L 268.900444 244.715053 
L 269.381322 238.673885 
L 269.8622 235.258211 
L 270.182785 234.206696 
L 270.343078 233.995147 
L 270.503371 233.97021 
L 270.663663 234.115595 
L 270.984248 234.85637 
L 271.465126 236.888188 
L 272.106297 240.840837 
L 273.068053 248.360141 
L 275.632735 271.073438 
L 278.037124 291.260517 
L 279.960635 305.660333 
L 281.723854 317.324525 
L 283.487073 327.512126 
L 285.089999 335.562599 
L 286.692926 342.563114 
L 288.295852 348.626561 
L 289.898778 353.864917 
L 291.501704 358.382848 
L 293.104631 362.275112 
L 293.585509 363.333646 
L 293.745801 170.609285 
L 293.906094 118.492668 
L 294.066386 116.30164 
L 294.226679 123.100362 
L 294.386972 125.130201 
L 294.547264 121.132117 
L 295.028142 101.888844 
L 295.188435 99.656672 
L 295.348727 100.027289 
L 295.669313 105.539644 
L 296.150191 114.501256 
L 296.470776 116.616726 
L 296.631068 116.400447 
L 296.951654 113.869975 
L 297.432532 105.981877 
L 298.073702 89.463968 
L 298.394287 79.246918 
L 298.714873 338.722817 
L 298.875165 343.327408 
L 299.356043 283.223803 
L 299.516336 286.707674 
L 299.836921 330.737936 
L 300.317799 405.335219 
L 300.638384 425.571163 
L 300.798677 427.19878 
L 300.958969 425.128089 
L 301.920725 401.868198 
L 302.081018 401.122715 
L 302.24131 401.295093 
L 302.561896 403.381358 
L 303.042773 407.067699 
L 303.203066 407.613958 
L 303.363359 407.578462 
L 303.523651 406.873062 
L 303.844237 403.267686 
L 304.164822 396.71077 
L 304.6457 381.998863 
L 305.447163 349.048513 
L 307.050089 281.483046 
L 307.851552 257.413922 
L 308.492723 244.621478 
L 308.973601 238.5864 
L 309.454478 235.176358 
L 309.775064 234.128361 
L 309.935356 233.918504 
L 310.095649 233.895216 
L 310.255942 234.042206 
L 310.576527 234.78607 
L 311.057405 236.822229 
L 311.698575 240.780161 
L 312.660331 248.306431 
L 315.225013 271.03393 
L 317.629402 291.23029 
L 319.552914 305.635674 
L 321.316133 317.303937 
L 323.079352 327.494865 
L 324.682278 335.547855 
L 326.285204 342.550496 
L 327.88813 348.615749 
L 329.491057 353.855644 
L 331.093983 358.374889 
L 332.696909 362.268277 
L 333.818957 364.666784 
L 333.97925 171.867648 
L 334.139543 119.690187 
L 334.299835 117.451055 
L 334.460128 124.214732 
L 334.620421 126.221434 
L 334.780713 122.209927 
L 335.261591 102.954567 
L 335.421884 100.717983 
L 335.582176 101.080576 
L 335.902762 106.563264 
L 336.383639 115.44984 
L 336.704225 117.502911 
L 336.864517 117.253776 
L 337.185103 114.65654 
L 337.66598 106.669065 
L 338.307151 90.023784 
L 338.627736 79.746323 
L 338.948321 339.177785 
L 339.108614 343.754662 
L 339.589492 283.575594 
L 339.749785 287.037679 
L 340.07037 331.029575 
L 340.551248 405.582118 
L 340.871833 425.795895 
L 341.032126 427.414317 
L 341.192418 425.335457 
L 342.154174 402.038732 
L 342.314467 401.287986 
L 342.474759 401.455173 
L 342.795344 403.531237 
L 343.276222 407.2029 
L 343.436515 407.74452 
L 343.596808 407.704548 
L 343.7571 406.994857 
L 344.077685 403.381494 
L 344.398271 396.817417 
L 344.879149 382.096239 
L 345.680612 349.133562 
L 347.283538 281.549951 
L 348.085001 257.473548 
L 348.726172 244.675926 
L 349.207049 238.637305 
L 349.687927 235.223986 
L 350.008513 234.173941 
L 350.168805 233.9631 
L 350.329098 233.938853 
L 350.48939 234.084909 
L 350.809976 234.826975 
L 351.290854 236.860608 
L 351.932024 240.815466 
L 352.89378 248.337683 
L 355.458462 271.056918 
L 357.862851 291.247878 
L 359.786363 305.650022 
L 361.549582 317.315916 
L 363.3128 327.504909 
L 364.915727 335.556434 
L 366.518653 342.557838 
L 368.121579 348.62204 
L 369.724505 353.861039 
L 371.327432 358.37952 
L 372.930358 362.272254 
L 373.090651 362.630444 
L 373.250943 169.945497 
L 373.411236 117.860923 
L 373.571528 115.695219 
L 373.731821 122.51239 
L 373.892114 124.554409 
L 374.052406 120.563394 
L 374.533284 101.326513 
L 374.693577 99.096682 
L 374.853869 99.471544 
L 375.174455 104.999575 
L 375.655333 114.000803 
L 375.975918 116.149209 
L 376.13621 115.950273 
L 376.456796 113.45504 
L 376.937674 105.619394 
L 377.578844 89.168705 
L 377.899429 78.983532 
L 378.220015 338.482876 
L 378.380307 343.102086 
L 378.861185 283.038287 
L 379.021478 286.533651 
L 379.342063 330.584153 
L 379.822941 405.205038 
L 380.143526 425.452676 
L 380.303819 427.085144 
L 380.464111 425.018761 
L 381.425867 401.778296 
L 381.58616 401.035588 
L 381.746452 401.210702 
L 382.067038 403.302344 
L 382.547915 406.996423 
L 382.708208 407.545128 
L 382.868501 407.511989 
L 383.028793 406.808852 
L 383.349379 403.207685 
L 383.669964 396.654543 
L 384.150842 381.947522 
L 384.952305 349.00367 
L 386.555231 281.447768 
L 387.356694 257.382482 
L 387.997865 244.592768 
L 388.478743 238.559559 
L 388.95962 235.151245 
L 389.280206 234.104328 
L 389.440498 233.89499 
L 389.600791 233.872207 
L 389.761084 234.01969 
L 390.081669 234.764502 
L 390.562547 236.801992 
L 391.203717 240.761546 
L 392.165473 248.289953 
L 394.730155 271.021809 
L 397.134544 291.221017 
L 399.058056 305.628108 
L 400.821275 317.297621 
L 402.584494 327.48957 
L 404.18742 335.543332 
L 405.790346 342.546625 
L 407.393272 348.612432 
L 408.996199 353.852799 
L 410.599125 358.372448 
L 412.202051 362.266181 
L 413.644685 365.305215 
L 413.804977 172.470245 
L 413.96527 120.263601 
L 414.125563 118.001388 
L 414.285855 124.748248 
L 414.446148 126.743847 
L 414.60644 122.725902 
L 415.087318 103.464766 
L 415.247611 101.226079 
L 415.407904 101.584841 
L 415.728489 107.053344 
L 416.209367 115.904016 
L 416.529952 117.927226 
L 416.690245 117.662365 
L 417.01083 115.033178 
L 417.491708 106.99814 
L 418.132878 90.291894 
L 418.453463 79.985513 
L 418.774049 339.395699 
L 418.934341 343.959306 
L 419.415219 283.744102 
L 419.575512 287.195754 
L 419.896097 331.16928 
L 420.376975 405.7004 
L 420.69756 425.903562 
L 420.857853 427.517581 
L 421.018145 425.43481 
L 421.979901 402.120442 
L 422.140194 401.367174 
L 422.300486 401.531875 
L 422.621072 403.603051 
L 423.10195 407.267679 
L 423.262242 407.807076 
L 423.422535 407.76496 
L 423.582827 407.053212 
L 423.903413 403.436022 
L 424.223998 396.868513 
L 424.704876 382.142892 
L 425.506339 349.174307 
L 427.109265 281.582002 
L 427.910728 257.502112 
L 428.551899 244.70201 
L 429.032777 238.661691 
L 429.513655 235.246802 
L 429.83424 234.195777 
L 429.994532 233.984464 
L 430.154825 233.959757 
L 430.315118 234.105366 
L 430.635703 234.846571 
L 431.116581 236.878994 
L 431.757751 240.832379 
L 432.719507 248.352654 
L 435.284189 271.067931 
L 437.688578 291.256303 
L 439.61209 305.656896 
L 441.375309 317.321655 
L 443.138528 327.50972 
L 444.741454 335.560544 
L 446.34438 342.561355 
L 447.947306 348.625053 
L 449.550233 353.863624 
L 451.153159 358.381739 
L 452.756085 362.274159 
L 453.557548 364.012454 
L 453.717841 171.250028 
L 453.878134 119.102446 
L 454.038426 116.886939 
L 454.198719 123.667829 
L 454.359011 125.685894 
L 454.519304 121.680978 
L 455.000182 102.431545 
L 455.160475 100.197122 
L 455.320767 100.563649 
L 455.641352 106.06089 
L 456.12223 114.984284 
L 456.442816 117.067975 
L 456.603108 116.834962 
L 456.923693 114.270488 
L 457.404571 106.33178 
L 458.045742 89.749005 
L 458.366327 79.501191 
L 458.686912 338.954462 
L 458.847205 343.544943 
L 459.328083 283.402912 
L 459.488375 286.87569 
L 459.808961 330.886417 
L 460.289839 405.460918 
L 460.610424 425.685575 
L 460.770716 427.30851 
L 460.931009 425.233659 
L 461.892765 401.955014 
L 462.053057 401.206852 
L 462.21335 401.376588 
L 462.533935 403.457659 
L 463.014813 407.136528 
L 463.175106 407.680426 
L 463.335398 407.642651 
L 463.495691 406.935067 
L 463.816276 403.325625 
L 464.136862 396.765063 
L 464.617739 382.048437 
L 465.419203 349.091812 
L 467.022129 281.517108 
L 467.823592 257.444278 
L 468.464762 244.649198 
L 468.94564 238.612317 
L 469.426518 235.200606 
L 469.747103 234.151567 
L 469.907396 233.941209 
L 470.067689 233.917432 
L 470.227981 234.063947 
L 470.548567 234.806896 
L 471.029444 236.841768 
L 471.670615 240.798135 
L 472.632371 248.322342 
L 475.197053 271.045633 
L 477.601442 291.239244 
L 479.524954 305.642978 
L 481.288172 317.310036 
L 483.051391 327.499978 
L 484.654318 335.552223 
L 486.257244 342.554234 
L 487.86017 348.618951 
L 489.463096 353.858391 
L 491.066023 358.377247 
L 492.668949 362.270302 
L 493.630705 364.341218 
L 493.790997 171.560349 
L 493.95129 119.397759 
L 494.111582 117.170385 
L 494.271875 123.94263 
L 494.432168 125.954987 
L 494.59246 121.946761 
L 495.073338 102.69435 
L 495.233631 100.45884 
L 495.393923 100.82339 
L 495.714509 106.313317 
L 496.195387 115.21821 
L 496.515972 117.286514 
L 496.676264 117.0454 
L 496.99685 114.464463 
L 497.477728 106.501249 
L 498.118898 89.887066 
L 498.439483 79.624355 
L 498.760069 339.066668 
L 498.920361 343.650313 
L 499.401239 283.489673 
L 499.561532 286.957078 
L 499.882117 330.958343 
L 500.362995 405.521811 
L 500.68358 425.741001 
L 500.843873 427.361668 
L 501.004165 425.284803 
L 501.965921 401.997074 
L 502.126214 401.247614 
L 502.286506 401.41607 
L 502.607092 403.494625 
L 503.087969 407.169873 
L 503.248262 407.712627 
L 503.408555 407.673749 
L 503.568847 406.965106 
L 503.889433 403.353694 
L 504.210018 396.791366 
L 504.690896 382.072453 
L 505.492359 349.112788 
L 507.095285 281.533609 
L 507.896748 257.458984 
L 508.537919 244.662627 
L 509.018797 238.624871 
L 509.499674 235.212353 
L 509.82026 234.162808 
L 509.980552 233.952208 
L 510.140845 233.928194 
L 510.301138 234.074479 
L 510.621723 234.816984 
L 511.102601 236.851234 
L 511.743771 240.806843 
L 512.705527 248.330049 
L 515.270209 271.051303 
L 517.674598 291.243582 
L 519.59811 305.646517 
L 521.361329 317.31299 
L 523.124548 327.502455 
L 524.727474 335.554338 
L 526.3304 342.556045 
L 527.933326 348.620503 
L 529.536253 353.859721 
L 531.139179 358.378389 
L 532.742105 362.271283 
L 533.864153 364.669486 
L 534.024446 171.870198 
L 534.184739 119.692613 
L 534.345031 117.453383 
L 534.505324 124.216988 
L 534.665617 126.223642 
L 534.825909 122.212108 
L 535.306787 102.956722 
L 535.46708 100.720128 
L 535.627372 101.082704 
L 535.947958 106.565332 
L 536.428835 115.451755 
L 536.749421 117.5047 
L 536.909713 117.255498 
L 537.230299 114.658128 
L 537.711176 106.670452 
L 538.352347 90.024914 
L 538.672932 79.747331 
L 538.993517 339.178703 
L 539.15381 343.755525 
L 539.634688 283.576304 
L 539.794981 287.038345 
L 540.115566 331.030164 
L 540.596444 405.582616 
L 540.917029 425.796349 
L 541.077322 427.414752 
L 541.237614 425.335876 
L 542.19937 402.039076 
L 542.359663 401.288319 
L 542.519955 401.455497 
L 542.84054 403.53154 
L 543.321418 407.203173 
L 543.481711 407.744783 
L 543.642004 407.704803 
L 543.802296 406.995103 
L 544.122881 403.381724 
L 544.443467 396.817632 
L 544.924345 382.096436 
L 545.725808 349.133734 
L 547.328734 281.550086 
L 548.130197 257.473668 
L 548.771368 244.676036 
L 549.252245 238.637408 
L 549.733123 235.224082 
L 550.053709 234.174033 
L 550.214001 233.96319 
L 550.374294 233.938941 
L 550.534586 234.084995 
L 550.855172 234.827058 
L 551.33605 236.860686 
L 551.97722 240.815537 
L 552.938976 248.337746 
L 555.503658 271.056965 
L 557.908047 291.247913 
L 559.831559 305.650051 
L 561.594778 317.31594 
L 563.357996 327.504929 
L 564.960923 335.556451 
L 566.563849 342.557853 
L 568.166775 348.622052 
L 569.769701 353.86105 
L 571.372628 358.37953 
L 572.975554 362.272262 
L 574.257895 364.992847 
L 574.418188 172.17541 
L 574.57848 119.983048 
L 574.738773 117.73213 
L 574.899065 124.487221 
L 575.059358 126.488253 
L 575.219651 122.473458 
L 575.700529 103.215144 
L 575.860821 100.977484 
L 576.021114 101.338119 
L 576.341699 106.813559 
L 576.822577 115.681795 
L 577.143162 117.719614 
L 577.303455 117.462446 
L 577.62404 114.848891 
L 578.104918 106.837123 
L 578.746088 90.160705 
L 579.066674 79.868474 
L 579.387259 339.28907 
L 579.547552 343.85917 
L 580.028429 283.661647 
L 580.188722 287.118404 
L 580.509307 331.100918 
L 580.990185 405.64252 
L 581.31077 425.850877 
L 581.471063 427.46705 
L 581.631356 425.386193 
L 582.593111 402.080458 
L 582.753404 401.328424 
L 582.913697 401.494342 
L 583.234282 403.567909 
L 583.71516 407.23598 
L 583.875452 407.776464 
L 584.035745 407.735398 
L 584.196038 407.024656 
L 584.516623 403.409339 
L 584.837208 396.843509 
L 585.318086 382.120063 
L 586.119549 349.154369 
L 587.722475 281.566318 
L 588.523939 257.488134 
L 589.165109 244.689246 
L 589.645987 238.649758 
L 590.126865 235.235637 
L 590.44745 234.185092 
L 590.607743 233.97401 
L 590.768035 233.949528 
L 590.928328 234.095355 
L 591.248913 234.836982 
L 591.729791 236.869997 
L 592.370962 240.824103 
L 593.332717 248.345328 
L 595.897399 271.062542 
L 598.301789 291.25218 
L 600.2253 305.653532 
L 601.988519 317.318847 
L 603.751738 327.507366 
L 605.354664 335.558533 
L 606.95759 342.559634 
L 608.560517 348.623579 
L 610.163443 353.862359 
L 611.766369 358.380653 
L 613.209003 361.909645 
L 613.369295 169.265076 
L 613.529588 117.213308 
L 613.689881 115.073525 
L 613.850173 121.909576 
L 614.010466 123.964062 
L 614.170759 119.980281 
L 614.651636 100.749956 
L 614.811929 98.522532 
L 614.972222 98.901754 
L 615.292807 104.445868 
L 615.773685 113.487727 
L 616.09427 115.669911 
L 616.254563 115.48876 
L 616.575148 113.029665 
L 616.895733 108.318069 
L 617.376611 97.821674 
L 618.017782 78.713563 
L 618.338367 338.236945 
L 618.498659 342.871142 
L 618.979537 282.848149 
L 619.13983 286.355295 
L 619.460415 330.426546 
L 619.941293 405.071628 
L 620.261878 425.331255 
L 620.422171 426.968695 
L 620.582464 424.90673 
L 621.544219 401.686174 
L 621.704512 400.94631 
L 621.864805 401.124228 
L 622.18539 403.22138 
L 622.666268 406.923386 
L 622.82656 407.474596 
L 622.986853 407.443874 
L 623.147146 406.743055 
L 623.467731 403.146201 
L 623.788316 396.596925 
L 624.269194 381.894911 
L 625.070657 348.957715 
L 626.673583 281.411615 
L 627.475046 257.350262 
L 628.116217 244.563345 
L 628.597095 238.532051 
L 629.077973 235.125509 
L 629.398558 234.079698 
L 629.558851 233.870892 
L 629.719143 233.848627 
L 629.879436 233.996615 
L 630.200021 234.742398 
L 630.680899 236.781254 
L 631.322069 240.742468 
L 632.283825 248.273066 
L 634.848507 271.009387 
L 637.252897 291.211514 
L 639.176408 305.620355 
L 640.939627 317.291148 
L 642.702846 327.484143 
L 644.305772 335.538696 
L 645.908698 342.542658 
L 647.511625 348.609033 
L 649.114551 353.849883 
L 650.717477 358.369945 
L 652.320403 362.264032 
L 653.92333 365.616384 
L 654.083622 172.763942 
L 654.243915 120.543064 
L 654.404207 118.269592 
L 654.5645 125.008248 
L 654.724793 126.998431 
L 654.885085 122.977346 
L 655.365963 103.713399 
L 655.526256 101.47369 
L 655.686548 101.830587 
L 656.007134 107.292182 
L 656.488012 116.125363 
L 656.808597 118.134023 
L 656.968889 117.8615 
L 657.289475 115.216744 
L 657.770353 107.158531 
L 658.411523 90.422577 
L 658.732108 80.102103 
L 659.052694 339.501921 
L 659.212986 344.059059 
L 659.693864 283.826242 
L 659.854157 287.27281 
L 660.174742 331.237382 
L 660.65562 405.758062 
L 660.976205 425.956051 
L 661.136498 427.567924 
L 661.29679 425.483246 
L 662.258546 402.160279 
L 662.418839 401.405781 
L 662.579131 401.56927 
L 662.899717 403.638062 
L 663.380594 407.299261 
L 663.540887 407.837574 
L 663.70118 407.794412 
L 663.861472 407.081661 
L 664.182058 403.462605 
L 664.502643 396.893422 
L 664.983521 382.165635 
L 665.784984 349.194171 
L 667.38791 281.597626 
L 668.189373 257.516036 
L 668.830544 244.714725 
L 669.311422 238.673579 
L 669.792299 235.257924 
L 670.112885 234.206421 
L 670.273177 233.994879 
L 670.43347 233.969948 
L 670.593763 234.115338 
L 670.914348 234.856124 
L 671.395226 236.887957 
L 672.036396 240.840625 
L 672.998152 248.359953 
L 675.562834 271.0733 
L 677.967223 291.260411 
L 679.890735 305.660247 
L 681.653954 317.324453 
L 683.417173 327.512066 
L 685.020099 335.562548 
L 686.623025 342.56307 
L 688.225951 348.626523 
L 689.828878 353.864884 
L 691.431804 358.38282 
L 693.03473 362.275088 
L 694.156778 364.672907 
L 694.317071 171.873426 
L 694.477364 119.695685 
L 694.637656 117.45633 
L 694.797949 124.219845 
L 694.958242 126.226439 
L 695.118534 122.21487 
L 695.599412 102.95945 
L 695.759705 100.722844 
L 695.919997 101.0854 
L 696.240583 106.56795 
L 696.72146 115.454181 
L 697.042046 117.506966 
L 697.202338 117.257679 
L 697.522924 114.660138 
L 698.003801 106.672208 
L 698.644972 90.026345 
L 698.965557 79.748607 
L 699.286142 339.179866 
L 699.446435 343.756617 
L 699.927313 283.577203 
L 700.087606 287.039188 
L 700.408191 331.030909 
L 700.889069 405.583247 
L 701.209654 425.796923 
L 701.369947 427.415303 
L 701.530239 425.336406 
L 702.491995 402.039512 
L 702.652288 401.288742 
L 702.81258 401.455906 
L 703.133165 403.531923 
L 703.614043 407.203518 
L 703.774336 407.745117 
L 703.934629 407.705125 
L 704.094921 406.995414 
L 704.415506 403.382015 
L 704.736092 396.817905 
L 705.21697 382.096684 
L 706.018433 349.133951 
L 707.621359 281.550257 
L 708.422822 257.47382 
L 709.063993 244.676175 
L 709.54487 238.637538 
L 710.025748 235.224203 
L 710.346334 234.17415 
L 710.506626 233.963304 
L 710.666919 233.939052 
L 710.827211 234.085104 
L 711.147797 234.827162 
L 711.628675 236.860784 
L 712.269845 240.815628 
L 713.231601 248.337826 
L 715.796283 271.057023 
L 718.200672 291.247958 
L 720.124184 305.650088 
L 721.887403 317.315971 
L 723.650621 327.504954 
L 725.253548 335.556473 
L 726.856474 342.557871 
L 728.4594 348.622068 
L 730.062326 353.861064 
L 731.665253 358.379541 
L 733.268179 362.272272 
L 734.069642 364.010705 
L 734.229935 171.248377 
L 734.390227 119.100876 
L 734.55052 116.885432 
L 734.710813 123.666368 
L 734.871105 125.684464 
L 735.031398 121.679566 
L 735.512276 102.43015 
L 735.672568 100.195734 
L 735.832861 100.562271 
L 736.153446 106.059552 
L 736.634324 114.983044 
L 736.954909 117.066817 
L 737.115202 116.833848 
L 737.435787 114.269461 
L 737.916665 106.330882 
L 738.557836 89.748274 
L 738.878421 79.500539 
L 739.199006 338.953868 
L 739.359299 343.544385 
L 739.840177 283.402453 
L 740.000469 286.875259 
L 740.321054 330.886036 
L 740.801932 405.460595 
L 741.122518 425.685281 
L 741.28281 427.308228 
L 741.443103 425.233388 
L 742.404859 401.954791 
L 742.565151 401.206636 
L 742.725444 401.376379 
L 743.046029 403.457463 
L 743.526907 407.136351 
L 743.6872 407.680255 
L 743.847492 407.642486 
L 744.007785 406.934908 
L 744.32837 403.325476 
L 744.648955 396.764924 
L 745.129833 382.04831 
L 745.931296 349.091701 
L 747.534223 281.517021 
L 748.335686 257.444201 
L 748.976856 244.649127 
L 749.457734 238.61225 
L 749.938612 235.200544 
L 750.259197 234.151507 
L 750.41949 233.941151 
L 750.579782 233.917375 
L 750.740075 234.063891 
L 751.06066 234.806842 
L 751.541538 236.841718 
L 752.182709 240.798089 
L 753.144464 248.322301 
L 755.709146 271.045603 
L 758.113536 291.239221 
L 760.037047 305.64296 
L 761.800266 317.31002 
L 763.563485 327.499965 
L 765.166411 335.552211 
L 766.769338 342.554224 
L 768.372264 348.618943 
L 769.97519 353.858383 
L 771.578116 358.377241 
L 773.181043 362.270297 
L 773.822213 363.67151 
L 773.982506 170.928206 
L 774.142798 118.796182 
L 774.303091 116.592974 
L 774.463384 123.382825 
L 774.623676 125.406806 
L 774.783969 121.405324 
L 775.264847 102.158987 
L 775.425139 99.925695 
L 775.585432 100.294275 
L 775.906017 105.799107 
L 776.386895 114.741695 
L 776.70748 116.841345 
L 776.867773 116.616736 
L 777.188358 114.069338 
L 777.669236 106.156046 
L 778.310407 89.605847 
L 778.630992 79.373482 
L 778.951577 338.838118 
L 779.11187 343.435685 
L 779.592748 283.312953 
L 779.75304 286.791302 
L 780.073625 330.81184 
L 780.554503 405.397783 
L 780.875089 425.628108 
L 781.035381 427.253395 
L 781.195674 425.180633 
L 782.15743 401.911408 
L 782.317722 401.164591 
L 782.478015 401.335654 
L 782.7986 403.419334 
L 783.279478 407.101956 
L 783.439771 407.64704 
L 783.600063 407.61041 
L 783.760356 406.903923 
L 784.080941 403.296523 
L 784.401526 396.737793 
L 784.882404 382.023537 
L 785.683867 349.070064 
L 787.286794 281.5 
L 788.088257 257.429031 
L 788.729427 244.635275 
L 789.210305 238.5993 
L 789.691183 235.188427 
L 790.011768 234.139911 
L 790.172061 233.929805 
L 790.332353 233.906274 
L 790.492646 234.053027 
L 790.813231 234.796436 
L 791.294109 236.831954 
L 791.93528 240.789107 
L 792.897035 248.31435 
L 795.461717 271.039755 
L 797.866107 291.234747 
L 799.789618 305.639309 
L 801.552837 317.306972 
L 803.316056 327.49741 
L 804.918982 335.550029 
L 806.521909 342.552357 
L 808.124835 348.617343 
L 809.727761 353.857011 
L 811.330687 358.376063 
L 812.933614 362.269285 
L 813.414491 363.32808 
L 813.574784 170.604032 
L 813.735077 118.48767 
L 813.895369 116.296843 
L 814.055662 123.095713 
L 814.215955 125.125649 
L 814.376247 121.127622 
L 814.857125 101.884404 
L 815.017418 99.652252 
L 815.17771 100.022903 
L 815.498296 105.535384 
L 815.979173 114.497311 
L 816.299759 116.613041 
L 816.460051 116.396899 
L 816.780637 113.866705 
L 817.261514 105.979021 
L 817.902685 89.461642 
L 818.22327 79.244843 
L 818.543855 338.720927 
L 818.704148 343.325633 
L 819.185026 283.222341 
L 819.345319 286.706303 
L 819.665904 330.736724 
L 820.146782 405.334193 
L 820.467367 425.570229 
L 820.62766 427.197885 
L 820.787952 425.127227 
L 821.749708 401.867489 
L 821.910001 401.122028 
L 822.070293 401.294428 
L 822.390878 403.380735 
L 822.871756 407.067137 
L 823.032049 407.613416 
L 823.192342 407.577938 
L 823.352634 406.872556 
L 823.673219 403.267213 
L 823.993805 396.710327 
L 824.474683 381.998458 
L 825.276146 349.048159 
L 826.879072 281.482768 
L 827.680535 257.413674 
L 828.321706 244.621252 
L 828.802583 238.586189 
L 829.283461 235.176161 
L 829.604047 234.128172 
L 829.764339 233.918319 
L 829.924632 233.895035 
L 830.084924 234.042029 
L 830.40551 234.7859 
L 830.886388 236.822069 
L 831.527558 240.780014 
L 832.489314 248.306301 
L 835.053996 271.033834 
L 837.458385 291.230217 
L 839.381897 305.635614 
L 841.145116 317.303887 
L 842.908334 327.494823 
L 844.511261 335.547819 
L 846.114187 342.550466 
L 847.717113 348.615723 
L 849.320039 353.855621 
L 850.922966 358.37487 
L 852.525892 362.268261 
L 854.128818 365.620017 
L 854.609696 366.531239 
L 854.769989 173.627407 
L 854.930281 121.364639 
L 855.090574 119.058024 
L 855.250867 125.77253 
L 855.411159 127.74677 
L 855.571452 123.716443 
L 856.05233 104.444241 
L 856.212622 102.201536 
L 856.372915 102.552962 
L 856.6935 107.994266 
L 857.174378 116.776048 
L 857.494963 118.741948 
L 857.655256 118.446908 
L 857.975841 115.756397 
L 858.456719 107.630075 
L 859.09789 90.806807 
L 859.418475 80.444909 
L 859.73906 339.814246 
L 859.899353 344.352368 
L 860.380231 284.067773 
L 860.540523 287.499392 
L 860.861108 331.437643 
L 861.341986 405.927629 
L 861.662572 426.11041 
L 861.822864 427.715974 
L 861.983157 425.625691 
L 862.944913 402.277438 
L 863.105205 401.519325 
L 863.265498 401.679247 
L 863.586083 403.741031 
L 864.066961 407.392143 
L 864.227254 407.927267 
L 864.387546 407.88103 
L 864.547839 407.165329 
L 864.868424 403.540783 
L 865.189009 396.966679 
L 865.669887 382.23252 
L 866.47135 349.252584 
L 868.074277 281.643573 
L 868.87574 257.556983 
L 869.51691 244.752117 
L 869.997788 238.708537 
L 870.478666 235.290632 
L 870.799251 234.237723 
L 870.959544 234.025505 
L 871.119836 233.999916 
L 871.280129 234.144664 
L 871.600714 234.884216 
L 872.081592 236.914315 
L 872.722763 240.864871 
L 873.684518 248.381416 
L 876.2492 271.089088 
L 878.65359 291.27249 
L 880.577101 305.670101 
L 882.34032 317.33268 
L 884.103539 327.518964 
L 885.706465 335.56844 
L 887.309392 342.568112 
L 888.912318 348.630843 
L 890.515244 353.86859 
L 892.11817 358.386001 
L 893.721097 362.277819 
L 894.362267 363.678588 
L 894.52256 170.934886 
L 894.682852 118.802537 
L 894.843145 116.599073 
L 895.003438 123.388737 
L 895.16373 125.412594 
L 895.324023 121.411039 
L 895.804901 102.164632 
L 895.965193 99.931315 
L 896.125486 100.299852 
L 896.446071 105.804524 
L 896.926949 114.746712 
L 897.247534 116.846031 
L 897.407827 116.621248 
L 897.728412 114.073496 
L 898.20929 106.159678 
L 898.850461 89.608805 
L 899.171046 79.376121 
L 899.491631 338.840522 
L 899.651924 343.437943 
L 900.132802 283.314812 
L 900.293094 286.793046 
L 900.613679 330.813381 
L 901.094557 405.399087 
L 901.415143 425.629296 
L 901.575435 427.254534 
L 901.735728 425.181729 
L 902.697484 401.912309 
L 902.857776 401.165465 
L 903.018069 401.3365 
L 903.338654 403.420126 
L 903.819532 407.102671 
L 903.979825 407.64773 
L 904.140117 407.611076 
L 904.30041 406.904567 
L 904.620995 403.297125 
L 904.94158 396.738356 
L 905.422458 382.024051 
L 906.223921 349.070513 
L 907.826848 281.500353 
L 908.628311 257.429346 
L 909.269481 244.635563 
L 909.750359 238.599569 
L 910.231237 235.188679 
L 910.551822 234.140152 
L 910.712115 233.930041 
L 910.872407 233.906504 
L 911.0327 234.053253 
L 911.353285 234.796652 
L 911.834163 236.832157 
L 912.475334 240.789294 
L 913.437089 248.314515 
L 916.001771 271.039877 
L 918.406161 291.23484 
L 920.329672 305.639385 
L 922.092891 317.307036 
L 923.85611 327.497463 
L 925.459036 335.550074 
L 927.061963 342.552395 
L 928.664889 348.617376 
L 930.267815 353.857039 
L 931.870741 358.376087 
L 933.473668 362.269306 
L 933.794253 362.980446 
L 933.954545 170.275885 
L 933.954545 170.275885 
" clip-path="url(#p129173dc84)" style="fill: none; stroke: #1f77b4; stroke-width: 1.5; stroke-linecap: square"/>
   </g>
   <g id="line2d_14">
    <path d="M 173.045455 78.12 
L 177.693941 78.12 
L 177.854233 386.20165 
L 213.278903 386.20165 
L 213.439196 78.12 
L 218.087682 78.12 
L 218.247975 386.20165 
L 253.99323 386.20165 
L 254.153523 78.12 
L 258.802009 78.12 
L 258.962302 386.20165 
L 293.585509 386.20165 
L 293.745801 78.12 
L 298.394287 78.12 
L 298.55458 386.20165 
L 333.818957 386.20165 
L 333.97925 78.12 
L 338.627736 78.12 
L 338.788029 386.20165 
L 373.090651 386.20165 
L 373.250943 78.12 
L 377.899429 78.12 
L 378.059722 386.20165 
L 413.644685 386.20165 
L 413.804977 78.12 
L 418.453463 78.12 
L 418.613756 386.20165 
L 453.557548 386.20165 
L 453.717841 78.12 
L 458.366327 78.12 
L 458.52662 386.20165 
L 493.630705 386.20165 
L 493.790997 78.12 
L 498.439483 78.12 
L 498.599776 386.20165 
L 533.864153 386.20165 
L 534.024446 78.12 
L 538.672932 78.12 
L 538.833225 386.20165 
L 574.257895 386.20165 
L 574.418188 78.12 
L 579.066674 78.12 
L 579.226966 386.20165 
L 613.209003 386.20165 
L 613.369295 78.12 
L 618.017782 78.12 
L 618.178074 386.20165 
L 653.92333 386.20165 
L 654.083622 78.12 
L 658.732108 78.12 
L 658.892401 386.20165 
L 694.156778 386.20165 
L 694.317071 78.12 
L 698.965557 78.12 
L 699.12585 386.20165 
L 734.069642 386.20165 
L 734.229935 78.12 
L 738.878421 78.12 
L 739.038713 386.20165 
L 773.822213 386.20165 
L 773.982506 78.12 
L 778.630992 78.12 
L 778.791284 386.20165 
L 813.414491 386.20165 
L 813.574784 78.12 
L 818.22327 78.12 
L 818.383563 386.20165 
L 854.609696 386.20165 
L 854.769989 78.12 
L 859.418475 78.12 
L 859.578767 386.20165 
L 894.362267 386.20165 
L 894.52256 78.12 
L 899.171046 78.12 
L 899.331338 386.20165 
L 933.794253 386.20165 
L 933.954545 78.12 
L 933.954545 78.12 
" clip-path="url(#p129173dc84)" style="fill: none; stroke: #ff7f0e; stroke-width: 1.5; stroke-linecap: square"/>
   </g>
   <g id="line2d_15">
    <path d="M 929.466352 386.20165 
" clip-path="url(#p129173dc84)" style="fill: none; stroke: #000000; stroke-width: 1.5; stroke-linecap: square"/>
    <defs>
     <path id="m8ec67b8d39" d="M 0 1 
C 0.265203 1 0.51958 0.894634 0.707107 0.707107 
C 0.894634 0.51958 1 0.265203 1 0 
C 1 -0.265203 0.894634 -0.51958 0.707107 -0.707107 
C 0.51958 -0.894634 0.265203 -1 0 -1 
C -0.265203 -1 -0.51958 -0.894634 -0.707107 -0.707107 
C -0.894634 -0.51958 -1 -0.265203 -1 0 
C -1 0.265203 -0.894634 0.51958 -0.707107 0.707107 
C -0.51958 0.894634 -0.265203 1 0 1 
z
" style="stroke: #000000"/>
    </defs>
    <g clip-path="url(#p129173dc84)">
     <use xlink:href="#m8ec67b8d39" x="173.045455" y="78.12" style="stroke: #000000"/>
     <use xlink:href="#m8ec67b8d39" x="178.174819" y="386.20165" style="stroke: #000000"/>
     <use xlink:href="#m8ec67b8d39" x="183.14389" y="386.20165" style="stroke: #000000"/>
     <use xlink:href="#m8ec67b8d39" x="188.112961" y="78.12" style="stroke: #000000"/>
     <use xlink:href="#m8ec67b8d39" x="193.082033" y="386.20165" style="stroke: #000000"/>
     <use xlink:href="#m8ec67b8d39" x="198.211397" y="386.20165" style="stroke: #000000"/>
     <use xlink:href="#m8ec67b8d39" x="203.180468" y="78.12" style="stroke: #000000"/>
     <use xlink:href="#m8ec67b8d39" x="208.149539" y="386.20165" style="stroke: #000000"/>
     <use xlink:href="#m8ec67b8d39" x="213.118611" y="78.12" style="stroke: #000000"/>
     <use xlink:href="#m8ec67b8d39" x="218.247975" y="386.20165" style="stroke: #000000"/>
     <use xlink:href="#m8ec67b8d39" x="223.217046" y="386.20165" style="stroke: #000000"/>
     <use xlink:href="#m8ec67b8d39" x="228.186118" y="78.12" style="stroke: #000000"/>
     <use xlink:href="#m8ec67b8d39" x="233.155189" y="386.20165" style="stroke: #000000"/>
     <use xlink:href="#m8ec67b8d39" x="238.284553" y="386.20165" style="stroke: #000000"/>
     <use xlink:href="#m8ec67b8d39" x="243.253624" y="78.12" style="stroke: #000000"/>
     <use xlink:href="#m8ec67b8d39" x="248.222696" y="386.20165" style="stroke: #000000"/>
     <use xlink:href="#m8ec67b8d39" x="253.191767" y="78.12" style="stroke: #000000"/>
     <use xlink:href="#m8ec67b8d39" x="258.321131" y="386.20165" style="stroke: #000000"/>
     <use xlink:href="#m8ec67b8d39" x="263.290202" y="386.20165" style="stroke: #000000"/>
     <use xlink:href="#m8ec67b8d39" x="268.259274" y="78.12" style="stroke: #000000"/>
     <use xlink:href="#m8ec67b8d39" x="273.228345" y="386.20165" style="stroke: #000000"/>
     <use xlink:href="#m8ec67b8d39" x="278.357709" y="386.20165" style="stroke: #000000"/>
     <use xlink:href="#m8ec67b8d39" x="283.326781" y="78.12" style="stroke: #000000"/>
     <use xlink:href="#m8ec67b8d39" x="288.295852" y="386.20165" style="stroke: #000000"/>
     <use xlink:href="#m8ec67b8d39" x="293.264923" y="78.12" style="stroke: #000000"/>
     <use xlink:href="#m8ec67b8d39" x="298.394287" y="386.20165" style="stroke: #000000"/>
     <use xlink:href="#m8ec67b8d39" x="303.363359" y="386.20165" style="stroke: #000000"/>
     <use xlink:href="#m8ec67b8d39" x="308.33243" y="78.12" style="stroke: #000000"/>
     <use xlink:href="#m8ec67b8d39" x="313.301501" y="386.20165" style="stroke: #000000"/>
     <use xlink:href="#m8ec67b8d39" x="318.430865" y="386.20165" style="stroke: #000000"/>
     <use xlink:href="#m8ec67b8d39" x="323.399937" y="78.12" style="stroke: #000000"/>
     <use xlink:href="#m8ec67b8d39" x="328.369008" y="386.20165" style="stroke: #000000"/>
     <use xlink:href="#m8ec67b8d39" x="333.33808" y="78.12" style="stroke: #000000"/>
     <use xlink:href="#m8ec67b8d39" x="338.467444" y="386.20165" style="stroke: #000000"/>
     <use xlink:href="#m8ec67b8d39" x="343.436515" y="386.20165" style="stroke: #000000"/>
     <use xlink:href="#m8ec67b8d39" x="348.405586" y="78.12" style="stroke: #000000"/>
     <use xlink:href="#m8ec67b8d39" x="353.374658" y="386.20165" style="stroke: #000000"/>
     <use xlink:href="#m8ec67b8d39" x="358.504022" y="386.20165" style="stroke: #000000"/>
     <use xlink:href="#m8ec67b8d39" x="363.473093" y="78.12" style="stroke: #000000"/>
     <use xlink:href="#m8ec67b8d39" x="368.442164" y="386.20165" style="stroke: #000000"/>
     <use xlink:href="#m8ec67b8d39" x="373.411236" y="78.12" style="stroke: #000000"/>
     <use xlink:href="#m8ec67b8d39" x="378.5406" y="386.20165" style="stroke: #000000"/>
     <use xlink:href="#m8ec67b8d39" x="383.509671" y="386.20165" style="stroke: #000000"/>
     <use xlink:href="#m8ec67b8d39" x="388.478743" y="78.12" style="stroke: #000000"/>
     <use xlink:href="#m8ec67b8d39" x="393.447814" y="386.20165" style="stroke: #000000"/>
     <use xlink:href="#m8ec67b8d39" x="398.577178" y="386.20165" style="stroke: #000000"/>
     <use xlink:href="#m8ec67b8d39" x="403.546249" y="78.12" style="stroke: #000000"/>
     <use xlink:href="#m8ec67b8d39" x="408.515321" y="386.20165" style="stroke: #000000"/>
     <use xlink:href="#m8ec67b8d39" x="413.484392" y="78.12" style="stroke: #000000"/>
     <use xlink:href="#m8ec67b8d39" x="418.613756" y="386.20165" style="stroke: #000000"/>
     <use xlink:href="#m8ec67b8d39" x="423.582827" y="386.20165" style="stroke: #000000"/>
     <use xlink:href="#m8ec67b8d39" x="428.551899" y="78.12" style="stroke: #000000"/>
     <use xlink:href="#m8ec67b8d39" x="433.52097" y="386.20165" style="stroke: #000000"/>
     <use xlink:href="#m8ec67b8d39" x="438.650334" y="386.20165" style="stroke: #000000"/>
     <use xlink:href="#m8ec67b8d39" x="443.619406" y="78.12" style="stroke: #000000"/>
     <use xlink:href="#m8ec67b8d39" x="448.588477" y="386.20165" style="stroke: #000000"/>
     <use xlink:href="#m8ec67b8d39" x="453.557548" y="78.12" style="stroke: #000000"/>
     <use xlink:href="#m8ec67b8d39" x="458.686912" y="386.20165" style="stroke: #000000"/>
     <use xlink:href="#m8ec67b8d39" x="463.655984" y="386.20165" style="stroke: #000000"/>
     <use xlink:href="#m8ec67b8d39" x="468.625055" y="78.12" style="stroke: #000000"/>
     <use xlink:href="#m8ec67b8d39" x="473.594126" y="386.20165" style="stroke: #000000"/>
     <use xlink:href="#m8ec67b8d39" x="478.72349" y="386.20165" style="stroke: #000000"/>
     <use xlink:href="#m8ec67b8d39" x="483.692562" y="78.12" style="stroke: #000000"/>
     <use xlink:href="#m8ec67b8d39" x="488.661633" y="386.20165" style="stroke: #000000"/>
     <use xlink:href="#m8ec67b8d39" x="493.630705" y="78.12" style="stroke: #000000"/>
     <use xlink:href="#m8ec67b8d39" x="498.760069" y="386.20165" style="stroke: #000000"/>
     <use xlink:href="#m8ec67b8d39" x="503.72914" y="386.20165" style="stroke: #000000"/>
     <use xlink:href="#m8ec67b8d39" x="508.698211" y="78.12" style="stroke: #000000"/>
     <use xlink:href="#m8ec67b8d39" x="513.667283" y="386.20165" style="stroke: #000000"/>
     <use xlink:href="#m8ec67b8d39" x="518.796647" y="386.20165" style="stroke: #000000"/>
     <use xlink:href="#m8ec67b8d39" x="523.765718" y="78.12" style="stroke: #000000"/>
     <use xlink:href="#m8ec67b8d39" x="528.734789" y="386.20165" style="stroke: #000000"/>
     <use xlink:href="#m8ec67b8d39" x="533.703861" y="78.12" style="stroke: #000000"/>
     <use xlink:href="#m8ec67b8d39" x="538.833225" y="386.20165" style="stroke: #000000"/>
     <use xlink:href="#m8ec67b8d39" x="543.802296" y="386.20165" style="stroke: #000000"/>
     <use xlink:href="#m8ec67b8d39" x="548.771368" y="78.12" style="stroke: #000000"/>
     <use xlink:href="#m8ec67b8d39" x="553.740439" y="386.20165" style="stroke: #000000"/>
     <use xlink:href="#m8ec67b8d39" x="558.869803" y="386.20165" style="stroke: #000000"/>
     <use xlink:href="#m8ec67b8d39" x="563.838874" y="78.12" style="stroke: #000000"/>
     <use xlink:href="#m8ec67b8d39" x="568.807946" y="386.20165" style="stroke: #000000"/>
     <use xlink:href="#m8ec67b8d39" x="573.777017" y="78.12" style="stroke: #000000"/>
     <use xlink:href="#m8ec67b8d39" x="578.906381" y="386.20165" style="stroke: #000000"/>
     <use xlink:href="#m8ec67b8d39" x="583.875452" y="386.20165" style="stroke: #000000"/>
     <use xlink:href="#m8ec67b8d39" x="588.844524" y="78.12" style="stroke: #000000"/>
     <use xlink:href="#m8ec67b8d39" x="593.813595" y="386.20165" style="stroke: #000000"/>
     <use xlink:href="#m8ec67b8d39" x="598.942959" y="386.20165" style="stroke: #000000"/>
     <use xlink:href="#m8ec67b8d39" x="603.912031" y="78.12" style="stroke: #000000"/>
     <use xlink:href="#m8ec67b8d39" x="608.881102" y="386.20165" style="stroke: #000000"/>
     <use xlink:href="#m8ec67b8d39" x="613.850173" y="78.12" style="stroke: #000000"/>
     <use xlink:href="#m8ec67b8d39" x="618.979537" y="386.20165" style="stroke: #000000"/>
     <use xlink:href="#m8ec67b8d39" x="623.948609" y="386.20165" style="stroke: #000000"/>
     <use xlink:href="#m8ec67b8d39" x="628.91768" y="78.12" style="stroke: #000000"/>
     <use xlink:href="#m8ec67b8d39" x="633.886751" y="386.20165" style="stroke: #000000"/>
     <use xlink:href="#m8ec67b8d39" x="639.016115" y="386.20165" style="stroke: #000000"/>
     <use xlink:href="#m8ec67b8d39" x="643.985187" y="78.12" style="stroke: #000000"/>
     <use xlink:href="#m8ec67b8d39" x="648.954258" y="386.20165" style="stroke: #000000"/>
     <use xlink:href="#m8ec67b8d39" x="653.92333" y="78.12" style="stroke: #000000"/>
     <use xlink:href="#m8ec67b8d39" x="659.052694" y="386.20165" style="stroke: #000000"/>
     <use xlink:href="#m8ec67b8d39" x="664.021765" y="386.20165" style="stroke: #000000"/>
     <use xlink:href="#m8ec67b8d39" x="668.990836" y="78.12" style="stroke: #000000"/>
     <use xlink:href="#m8ec67b8d39" x="673.959908" y="386.20165" style="stroke: #000000"/>
     <use xlink:href="#m8ec67b8d39" x="679.089272" y="386.20165" style="stroke: #000000"/>
     <use xlink:href="#m8ec67b8d39" x="684.058343" y="78.12" style="stroke: #000000"/>
     <use xlink:href="#m8ec67b8d39" x="689.027414" y="386.20165" style="stroke: #000000"/>
     <use xlink:href="#m8ec67b8d39" x="693.996486" y="78.12" style="stroke: #000000"/>
     <use xlink:href="#m8ec67b8d39" x="699.12585" y="386.20165" style="stroke: #000000"/>
     <use xlink:href="#m8ec67b8d39" x="704.094921" y="386.20165" style="stroke: #000000"/>
     <use xlink:href="#m8ec67b8d39" x="709.063993" y="78.12" style="stroke: #000000"/>
     <use xlink:href="#m8ec67b8d39" x="714.033064" y="386.20165" style="stroke: #000000"/>
     <use xlink:href="#m8ec67b8d39" x="719.162428" y="386.20165" style="stroke: #000000"/>
     <use xlink:href="#m8ec67b8d39" x="724.131499" y="78.12" style="stroke: #000000"/>
     <use xlink:href="#m8ec67b8d39" x="729.100571" y="386.20165" style="stroke: #000000"/>
     <use xlink:href="#m8ec67b8d39" x="734.069642" y="78.12" style="stroke: #000000"/>
     <use xlink:href="#m8ec67b8d39" x="739.199006" y="386.20165" style="stroke: #000000"/>
     <use xlink:href="#m8ec67b8d39" x="744.168077" y="386.20165" style="stroke: #000000"/>
     <use xlink:href="#m8ec67b8d39" x="749.137149" y="78.12" style="stroke: #000000"/>
     <use xlink:href="#m8ec67b8d39" x="754.10622" y="386.20165" style="stroke: #000000"/>
     <use xlink:href="#m8ec67b8d39" x="759.235584" y="386.20165" style="stroke: #000000"/>
     <use xlink:href="#m8ec67b8d39" x="764.204656" y="78.12" style="stroke: #000000"/>
     <use xlink:href="#m8ec67b8d39" x="769.173727" y="386.20165" style="stroke: #000000"/>
     <use xlink:href="#m8ec67b8d39" x="774.142798" y="78.12" style="stroke: #000000"/>
     <use xlink:href="#m8ec67b8d39" x="779.272162" y="386.20165" style="stroke: #000000"/>
     <use xlink:href="#m8ec67b8d39" x="784.241234" y="386.20165" style="stroke: #000000"/>
     <use xlink:href="#m8ec67b8d39" x="789.210305" y="78.12" style="stroke: #000000"/>
     <use xlink:href="#m8ec67b8d39" x="794.179376" y="386.20165" style="stroke: #000000"/>
     <use xlink:href="#m8ec67b8d39" x="799.30874" y="386.20165" style="stroke: #000000"/>
     <use xlink:href="#m8ec67b8d39" x="804.277812" y="78.12" style="stroke: #000000"/>
     <use xlink:href="#m8ec67b8d39" x="809.246883" y="386.20165" style="stroke: #000000"/>
     <use xlink:href="#m8ec67b8d39" x="814.215955" y="78.12" style="stroke: #000000"/>
     <use xlink:href="#m8ec67b8d39" x="819.345319" y="386.20165" style="stroke: #000000"/>
     <use xlink:href="#m8ec67b8d39" x="824.31439" y="386.20165" style="stroke: #000000"/>
     <use xlink:href="#m8ec67b8d39" x="829.283461" y="78.12" style="stroke: #000000"/>
     <use xlink:href="#m8ec67b8d39" x="834.252533" y="386.20165" style="stroke: #000000"/>
     <use xlink:href="#m8ec67b8d39" x="839.381897" y="386.20165" style="stroke: #000000"/>
     <use xlink:href="#m8ec67b8d39" x="844.350968" y="78.12" style="stroke: #000000"/>
     <use xlink:href="#m8ec67b8d39" x="849.320039" y="386.20165" style="stroke: #000000"/>
     <use xlink:href="#m8ec67b8d39" x="854.289111" y="78.12" style="stroke: #000000"/>
     <use xlink:href="#m8ec67b8d39" x="859.418475" y="386.20165" style="stroke: #000000"/>
     <use xlink:href="#m8ec67b8d39" x="864.387546" y="386.20165" style="stroke: #000000"/>
     <use xlink:href="#m8ec67b8d39" x="869.356618" y="78.12" style="stroke: #000000"/>
     <use xlink:href="#m8ec67b8d39" x="874.325689" y="386.20165" style="stroke: #000000"/>
     <use xlink:href="#m8ec67b8d39" x="879.455053" y="386.20165" style="stroke: #000000"/>
     <use xlink:href="#m8ec67b8d39" x="884.424124" y="78.12" style="stroke: #000000"/>
     <use xlink:href="#m8ec67b8d39" x="889.393196" y="386.20165" style="stroke: #000000"/>
     <use xlink:href="#m8ec67b8d39" x="894.362267" y="78.12" style="stroke: #000000"/>
     <use xlink:href="#m8ec67b8d39" x="899.491631" y="386.20165" style="stroke: #000000"/>
     <use xlink:href="#m8ec67b8d39" x="904.460702" y="386.20165" style="stroke: #000000"/>
     <use xlink:href="#m8ec67b8d39" x="909.429774" y="78.12" style="stroke: #000000"/>
     <use xlink:href="#m8ec67b8d39" x="914.398845" y="386.20165" style="stroke: #000000"/>
     <use xlink:href="#m8ec67b8d39" x="919.528209" y="386.20165" style="stroke: #000000"/>
     <use xlink:href="#m8ec67b8d39" x="924.497281" y="78.12" style="stroke: #000000"/>
     <use xlink:href="#m8ec67b8d39" x="929.466352" y="386.20165" style="stroke: #000000"/>
    </g>
   </g>
   <g id="patch_3">
    <path d="M 135 448.56 
L 135 60.48 
" style="fill: none; stroke: #000000; stroke-width: 0.8; stroke-linejoin: miter; stroke-linecap: square"/>
   </g>
   <g id="patch_4">
    <path d="M 972 448.56 
L 972 60.48 
" style="fill: none; stroke: #000000; stroke-width: 0.8; stroke-linejoin: miter; stroke-linecap: square"/>
   </g>
   <g id="patch_5">
    <path d="M 135 448.56 
L 972 448.56 
" style="fill: none; stroke: #000000; stroke-width: 0.8; stroke-linejoin: miter; stroke-linecap: square"/>
   </g>
   <g id="patch_6">
    <path d="M 135 60.48 
L 972 60.48 
" style="fill: none; stroke: #000000; stroke-width: 0.8; stroke-linejoin: miter; stroke-linecap: square"/>
   </g>
   <g id="legend_1">
    <g id="patch_7">
     <path d="M 142 443.56 
L 211.084375 443.56 
Q 213.084375 443.56 213.084375 441.56 
L 213.084375 397.969375 
Q 213.084375 395.969375 211.084375 395.969375 
L 142 395.969375 
Q 140 395.969375 140 397.969375 
L 140 441.56 
Q 140 443.56 142 443.56 
z
" style="fill: #ffffff; opacity: 0.8; stroke: #cccccc; stroke-linejoin: miter"/>
    </g>
    <g id="line2d_16">
     <path d="M 144 404.067813 
L 154 404.067813 
L 164 404.067813 
" style="fill: none; stroke: #1f77b4; stroke-width: 1.5; stroke-linecap: square"/>
    </g>
    <g id="text_14">
     <!-- nw_0 -->
     <g transform="translate(172 407.567813) scale(0.1 -0.1)">
      <defs>
       <path id="DejaVuSans-6e" d="M 3513 2113 
L 3513 0 
L 2938 0 
L 2938 2094 
Q 2938 2591 2744 2837 
Q 2550 3084 2163 3084 
Q 1697 3084 1428 2787 
Q 1159 2491 1159 1978 
L 1159 0 
L 581 0 
L 581 3500 
L 1159 3500 
L 1159 2956 
Q 1366 3272 1645 3428 
Q 1925 3584 2291 3584 
Q 2894 3584 3203 3211 
Q 3513 2838 3513 2113 
z
" transform="scale(0.015625)"/>
       <path id="DejaVuSans-77" d="M 269 3500 
L 844 3500 
L 1563 769 
L 2278 3500 
L 2956 3500 
L 3675 769 
L 4391 3500 
L 4966 3500 
L 4050 0 
L 3372 0 
L 2619 2869 
L 1863 0 
L 1184 0 
L 269 3500 
z
" transform="scale(0.015625)"/>
       <path id="DejaVuSans-5f" d="M 3263 -1063 
L 3263 -1509 
L -63 -1509 
L -63 -1063 
L 3263 -1063 
z
" transform="scale(0.015625)"/>
      </defs>
      <use xlink:href="#DejaVuSans-6e"/>
      <use xlink:href="#DejaVuSans-77" x="63.378906"/>
      <use xlink:href="#DejaVuSans-5f" x="145.166016"/>
      <use xlink:href="#DejaVuSans-30" x="195.166016"/>
     </g>
    </g>
    <g id="line2d_17">
     <path d="M 144 419.024063 
L 154 419.024063 
L 164 419.024063 
" style="fill: none; stroke: #ff7f0e; stroke-width: 1.5; stroke-linecap: square"/>
    </g>
    <g id="text_15">
     <!-- input_0 -->
     <g transform="translate(172 422.524063) scale(0.1 -0.1)">
      <defs>
       <path id="DejaVuSans-69" d="M 603 3500 
L 1178 3500 
L 1178 0 
L 603 0 
L 603 3500 
z
M 603 4863 
L 1178 4863 
L 1178 4134 
L 603 4134 
L 603 4863 
z
" transform="scale(0.015625)"/>
       <path id="DejaVuSans-70" d="M 1159 525 
L 1159 -1331 
L 581 -1331 
L 581 3500 
L 1159 3500 
L 1159 2969 
Q 1341 3281 1617 3432 
Q 1894 3584 2278 3584 
Q 2916 3584 3314 3078 
Q 3713 2572 3713 1747 
Q 3713 922 3314 415 
Q 2916 -91 2278 -91 
Q 1894 -91 1617 61 
Q 1341 213 1159 525 
z
M 3116 1747 
Q 3116 2381 2855 2742 
Q 2594 3103 2138 3103 
Q 1681 3103 1420 2742 
Q 1159 2381 1159 1747 
Q 1159 1113 1420 752 
Q 1681 391 2138 391 
Q 2594 391 2855 752 
Q 3116 1113 3116 1747 
z
" transform="scale(0.015625)"/>
       <path id="DejaVuSans-75" d="M 544 1381 
L 544 3500 
L 1119 3500 
L 1119 1403 
Q 1119 906 1312 657 
Q 1506 409 1894 409 
Q 2359 409 2629 706 
Q 2900 1003 2900 1516 
L 2900 3500 
L 3475 3500 
L 3475 0 
L 2900 0 
L 2900 538 
Q 2691 219 2414 64 
Q 2138 -91 1772 -91 
Q 1169 -91 856 284 
Q 544 659 544 1381 
z
M 1991 3584 
L 1991 3584 
z
" transform="scale(0.015625)"/>
      </defs>
      <use xlink:href="#DejaVuSans-69"/>
      <use xlink:href="#DejaVuSans-6e" x="27.783203"/>
      <use xlink:href="#DejaVuSans-70" x="91.162109"/>
      <use xlink:href="#DejaVuSans-75" x="154.638672"/>
      <use xlink:href="#DejaVuSans-74" x="218.017578"/>
      <use xlink:href="#DejaVuSans-5f" x="257.226562"/>
      <use xlink:href="#DejaVuSans-30" x="307.226562"/>
     </g>
    </g>
    <g id="line2d_18">
     <path d="M 144 433.980312 
L 154 433.980312 
L 164 433.980312 
" style="fill: none; stroke: #000000; stroke-width: 1.5; stroke-linecap: square"/>
     <g>
      <use xlink:href="#m8ec67b8d39" x="154" y="433.980312" style="stroke: #000000"/>
     </g>
    </g>
    <g id="text_16">
     <!-- target -->
     <g transform="translate(172 437.480312) scale(0.1 -0.1)">
      <defs>
       <path id="DejaVuSans-61" d="M 2194 1759 
Q 1497 1759 1228 1600 
Q 959 1441 959 1056 
Q 959 750 1161 570 
Q 1363 391 1709 391 
Q 2188 391 2477 730 
Q 2766 1069 2766 1631 
L 2766 1759 
L 2194 1759 
z
M 3341 1997 
L 3341 0 
L 2766 0 
L 2766 531 
Q 2569 213 2275 61 
Q 1981 -91 1556 -91 
Q 1019 -91 701 211 
Q 384 513 384 1019 
Q 384 1609 779 1909 
Q 1175 2209 1959 2209 
L 2766 2209 
L 2766 2266 
Q 2766 2663 2505 2880 
Q 2244 3097 1772 3097 
Q 1472 3097 1187 3025 
Q 903 2953 641 2809 
L 641 3341 
Q 956 3463 1253 3523 
Q 1550 3584 1831 3584 
Q 2591 3584 2966 3190 
Q 3341 2797 3341 1997 
z
" transform="scale(0.015625)"/>
       <path id="DejaVuSans-72" d="M 2631 2963 
Q 2534 3019 2420 3045 
Q 2306 3072 2169 3072 
Q 1681 3072 1420 2755 
Q 1159 2438 1159 1844 
L 1159 0 
L 581 0 
L 581 3500 
L 1159 3500 
L 1159 2956 
Q 1341 3275 1631 3429 
Q 1922 3584 2338 3584 
Q 2397 3584 2469 3576 
Q 2541 3569 2628 3553 
L 2631 2963 
z
" transform="scale(0.015625)"/>
       <path id="DejaVuSans-67" d="M 2906 1791 
Q 2906 2416 2648 2759 
Q 2391 3103 1925 3103 
Q 1463 3103 1205 2759 
Q 947 2416 947 1791 
Q 947 1169 1205 825 
Q 1463 481 1925 481 
Q 2391 481 2648 825 
Q 2906 1169 2906 1791 
z
M 3481 434 
Q 3481 -459 3084 -895 
Q 2688 -1331 1869 -1331 
Q 1566 -1331 1297 -1286 
Q 1028 -1241 775 -1147 
L 775 -588 
Q 1028 -725 1275 -790 
Q 1522 -856 1778 -856 
Q 2344 -856 2625 -561 
Q 2906 -266 2906 331 
L 2906 616 
Q 2728 306 2450 153 
Q 2172 0 1784 0 
Q 1141 0 747 490 
Q 353 981 353 1791 
Q 353 2603 747 3093 
Q 1141 3584 1784 3584 
Q 2172 3584 2450 3431 
Q 2728 3278 2906 2969 
L 2906 3500 
L 3481 3500 
L 3481 434 
z
" transform="scale(0.015625)"/>
       <path id="DejaVuSans-65" d="M 3597 1894 
L 3597 1613 
L 953 1613 
Q 991 1019 1311 708 
Q 1631 397 2203 397 
Q 2534 397 2845 478 
Q 3156 559 3463 722 
L 3463 178 
Q 3153 47 2828 -22 
Q 2503 -91 2169 -91 
Q 1331 -91 842 396 
Q 353 884 353 1716 
Q 353 2575 817 3079 
Q 1281 3584 2069 3584 
Q 2775 3584 3186 3129 
Q 3597 2675 3597 1894 
z
M 3022 2063 
Q 3016 2534 2758 2815 
Q 2500 3097 2075 3097 
Q 1594 3097 1305 2825 
Q 1016 2553 972 2059 
L 3022 2063 
z
" transform="scale(0.015625)"/>
      </defs>
      <use xlink:href="#DejaVuSans-74"/>
      <use xlink:href="#DejaVuSans-61" x="39.208984"/>
      <use xlink:href="#DejaVuSans-72" x="100.488281"/>
      <use xlink:href="#DejaVuSans-67" x="139.851562"/>
      <use xlink:href="#DejaVuSans-65" x="203.328125"/>
      <use xlink:href="#DejaVuSans-74" x="264.851562"/>
     </g>
    </g>
   </g>
  </g>
 </g>
 <defs>
  <clipPath id="p129173dc84">
   <rect x="135" y="60.48" width="837" height="388.08"/>
  </clipPath>
 </defs>
</svg>
