<?xml version="1.0" encoding="utf-8" standalone="no"?>
<!DOCTYPE svg PUBLIC "-//W3C//DTD SVG 1.1//EN"
  "http://www.w3.org/Graphics/SVG/1.1/DTD/svg11.dtd">
<svg xmlns:xlink="http://www.w3.org/1999/xlink" width="1080pt" height="504pt" viewBox="0 0 1080 504" xmlns="http://www.w3.org/2000/svg" version="1.1">
 <metadata>
  <rdf:RDF xmlns:dc="http://purl.org/dc/elements/1.1/" xmlns:cc="http://creativecommons.org/ns#" xmlns:rdf="http://www.w3.org/1999/02/22-rdf-syntax-ns#">
   <cc:Work>
    <dc:type rdf:resource="http://purl.org/dc/dcmitype/StillImage"/>
    <dc:date>2024-05-09T11:38:21.590930</dc:date>
    <dc:format>image/svg+xml</dc:format>
    <dc:creator>
     <cc:Agent>
      <dc:title>Matplotlib v3.7.1, https://matplotlib.org/</dc:title>
     </cc:Agent>
    </dc:creator>
   </cc:Work>
  </rdf:RDF>
 </metadata>
 <defs>
  <style type="text/css">*{stroke-linejoin: round; stroke-linecap: butt}</style>
 </defs>
 <g id="figure_1">
  <g id="patch_1">
   <path d="M 0 504 
L 1080 504 
L 1080 0 
L 0 0 
z
" style="fill: #ffffff"/>
  </g>
  <g id="axes_1">
   <g id="patch_2">
    <path d="M 135 448.56 
L 972 448.56 
L 972 60.48 
L 135 60.48 
z
" style="fill: #ffffff"/>
   </g>
   <g id="matplotlib.axis_1">
    <g id="xtick_1">
     <g id="line2d_1">
      <defs>
       <path id="mea00458882" d="M 0 0 
L 0 3.5 
" style="stroke: #000000; stroke-width: 0.8"/>
      </defs>
      <g>
       <use xlink:href="#mea00458882" x="173.045455" y="448.56" style="stroke: #000000; stroke-width: 0.8"/>
      </g>
     </g>
     <g id="text_1">
      <!-- 0 -->
      <g transform="translate(169.864205 463.158437) scale(0.1 -0.1)">
       <defs>
        <path id="DejaVuSans-30" d="M 2034 4250 
Q 1547 4250 1301 3770 
Q 1056 3291 1056 2328 
Q 1056 1369 1301 889 
Q 1547 409 2034 409 
Q 2525 409 2770 889 
Q 3016 1369 3016 2328 
Q 3016 3291 2770 3770 
Q 2525 4250 2034 4250 
z
M 2034 4750 
Q 2819 4750 3233 4129 
Q 3647 3509 3647 2328 
Q 3647 1150 3233 529 
Q 2819 -91 2034 -91 
Q 1250 -91 836 529 
Q 422 1150 422 2328 
Q 422 3509 836 4129 
Q 1250 4750 2034 4750 
z
" transform="scale(0.015625)"/>
       </defs>
       <use xlink:href="#DejaVuSans-30"/>
      </g>
     </g>
    </g>
    <g id="xtick_2">
     <g id="line2d_2">
      <g>
       <use xlink:href="#mea00458882" x="333.33808" y="448.56" style="stroke: #000000; stroke-width: 0.8"/>
      </g>
     </g>
     <g id="text_2">
      <!-- 1000 -->
      <g transform="translate(320.61308 463.158437) scale(0.1 -0.1)">
       <defs>
        <path id="DejaVuSans-31" d="M 794 531 
L 1825 531 
L 1825 4091 
L 703 3866 
L 703 4441 
L 1819 4666 
L 2450 4666 
L 2450 531 
L 3481 531 
L 3481 0 
L 794 0 
L 794 531 
z
" transform="scale(0.015625)"/>
       </defs>
       <use xlink:href="#DejaVuSans-31"/>
       <use xlink:href="#DejaVuSans-30" x="63.623047"/>
       <use xlink:href="#DejaVuSans-30" x="127.246094"/>
       <use xlink:href="#DejaVuSans-30" x="190.869141"/>
      </g>
     </g>
    </g>
    <g id="xtick_3">
     <g id="line2d_3">
      <g>
       <use xlink:href="#mea00458882" x="493.630705" y="448.56" style="stroke: #000000; stroke-width: 0.8"/>
      </g>
     </g>
     <g id="text_3">
      <!-- 2000 -->
      <g transform="translate(480.905705 463.158437) scale(0.1 -0.1)">
       <defs>
        <path id="DejaVuSans-32" d="M 1228 531 
L 3431 531 
L 3431 0 
L 469 0 
L 469 531 
Q 828 903 1448 1529 
Q 2069 2156 2228 2338 
Q 2531 2678 2651 2914 
Q 2772 3150 2772 3378 
Q 2772 3750 2511 3984 
Q 2250 4219 1831 4219 
Q 1534 4219 1204 4116 
Q 875 4013 500 3803 
L 500 4441 
Q 881 4594 1212 4672 
Q 1544 4750 1819 4750 
Q 2544 4750 2975 4387 
Q 3406 4025 3406 3419 
Q 3406 3131 3298 2873 
Q 3191 2616 2906 2266 
Q 2828 2175 2409 1742 
Q 1991 1309 1228 531 
z
" transform="scale(0.015625)"/>
       </defs>
       <use xlink:href="#DejaVuSans-32"/>
       <use xlink:href="#DejaVuSans-30" x="63.623047"/>
       <use xlink:href="#DejaVuSans-30" x="127.246094"/>
       <use xlink:href="#DejaVuSans-30" x="190.869141"/>
      </g>
     </g>
    </g>
    <g id="xtick_4">
     <g id="line2d_4">
      <g>
       <use xlink:href="#mea00458882" x="653.92333" y="448.56" style="stroke: #000000; stroke-width: 0.8"/>
      </g>
     </g>
     <g id="text_4">
      <!-- 3000 -->
      <g transform="translate(641.19833 463.158437) scale(0.1 -0.1)">
       <defs>
        <path id="DejaVuSans-33" d="M 2597 2516 
Q 3050 2419 3304 2112 
Q 3559 1806 3559 1356 
Q 3559 666 3084 287 
Q 2609 -91 1734 -91 
Q 1441 -91 1130 -33 
Q 819 25 488 141 
L 488 750 
Q 750 597 1062 519 
Q 1375 441 1716 441 
Q 2309 441 2620 675 
Q 2931 909 2931 1356 
Q 2931 1769 2642 2001 
Q 2353 2234 1838 2234 
L 1294 2234 
L 1294 2753 
L 1863 2753 
Q 2328 2753 2575 2939 
Q 2822 3125 2822 3475 
Q 2822 3834 2567 4026 
Q 2313 4219 1838 4219 
Q 1578 4219 1281 4162 
Q 984 4106 628 3988 
L 628 4550 
Q 988 4650 1302 4700 
Q 1616 4750 1894 4750 
Q 2613 4750 3031 4423 
Q 3450 4097 3450 3541 
Q 3450 3153 3228 2886 
Q 3006 2619 2597 2516 
z
" transform="scale(0.015625)"/>
       </defs>
       <use xlink:href="#DejaVuSans-33"/>
       <use xlink:href="#DejaVuSans-30" x="63.623047"/>
       <use xlink:href="#DejaVuSans-30" x="127.246094"/>
       <use xlink:href="#DejaVuSans-30" x="190.869141"/>
      </g>
     </g>
    </g>
    <g id="xtick_5">
     <g id="line2d_5">
      <g>
       <use xlink:href="#mea00458882" x="814.215955" y="448.56" style="stroke: #000000; stroke-width: 0.8"/>
      </g>
     </g>
     <g id="text_5">
      <!-- 4000 -->
      <g transform="translate(801.490955 463.158437) scale(0.1 -0.1)">
       <defs>
        <path id="DejaVuSans-34" d="M 2419 4116 
L 825 1625 
L 2419 1625 
L 2419 4116 
z
M 2253 4666 
L 3047 4666 
L 3047 1625 
L 3713 1625 
L 3713 1100 
L 3047 1100 
L 3047 0 
L 2419 0 
L 2419 1100 
L 313 1100 
L 313 1709 
L 2253 4666 
z
" transform="scale(0.015625)"/>
       </defs>
       <use xlink:href="#DejaVuSans-34"/>
       <use xlink:href="#DejaVuSans-30" x="63.623047"/>
       <use xlink:href="#DejaVuSans-30" x="127.246094"/>
       <use xlink:href="#DejaVuSans-30" x="190.869141"/>
      </g>
     </g>
    </g>
    <g id="text_6">
     <!-- t -->
     <g transform="translate(551.539844 476.836563) scale(0.1 -0.1)">
      <defs>
       <path id="DejaVuSans-74" d="M 1172 4494 
L 1172 3500 
L 2356 3500 
L 2356 3053 
L 1172 3053 
L 1172 1153 
Q 1172 725 1289 603 
Q 1406 481 1766 481 
L 2356 481 
L 2356 0 
L 1766 0 
Q 1100 0 847 248 
Q 594 497 594 1153 
L 594 3053 
L 172 3053 
L 172 3500 
L 594 3500 
L 594 4494 
L 1172 4494 
z
" transform="scale(0.015625)"/>
      </defs>
      <use xlink:href="#DejaVuSans-74"/>
     </g>
    </g>
   </g>
   <g id="matplotlib.axis_2">
    <g id="ytick_1">
     <g id="line2d_6">
      <defs>
       <path id="m16737e9f08" d="M 0 0 
L -3.5 0 
" style="stroke: #000000; stroke-width: 0.8"/>
      </defs>
      <g>
       <use xlink:href="#m16737e9f08" x="135" y="419.32788" style="stroke: #000000; stroke-width: 0.8"/>
      </g>
     </g>
     <g id="text_7">
      <!-- −0.2 -->
      <g transform="translate(103.717187 423.127099) scale(0.1 -0.1)">
       <defs>
        <path id="DejaVuSans-2212" d="M 678 2272 
L 4684 2272 
L 4684 1741 
L 678 1741 
L 678 2272 
z
" transform="scale(0.015625)"/>
        <path id="DejaVuSans-2e" d="M 684 794 
L 1344 794 
L 1344 0 
L 684 0 
L 684 794 
z
" transform="scale(0.015625)"/>
       </defs>
       <use xlink:href="#DejaVuSans-2212"/>
       <use xlink:href="#DejaVuSans-30" x="83.789062"/>
       <use xlink:href="#DejaVuSans-2e" x="147.412109"/>
       <use xlink:href="#DejaVuSans-32" x="179.199219"/>
      </g>
     </g>
    </g>
    <g id="ytick_2">
     <g id="line2d_7">
      <g>
       <use xlink:href="#m16737e9f08" x="135" y="370.04184" style="stroke: #000000; stroke-width: 0.8"/>
      </g>
     </g>
     <g id="text_8">
      <!-- 0.0 -->
      <g transform="translate(112.096875 373.841059) scale(0.1 -0.1)">
       <use xlink:href="#DejaVuSans-30"/>
       <use xlink:href="#DejaVuSans-2e" x="63.623047"/>
       <use xlink:href="#DejaVuSans-30" x="95.410156"/>
      </g>
     </g>
    </g>
    <g id="ytick_3">
     <g id="line2d_8">
      <g>
       <use xlink:href="#m16737e9f08" x="135" y="320.7558" style="stroke: #000000; stroke-width: 0.8"/>
      </g>
     </g>
     <g id="text_9">
      <!-- 0.2 -->
      <g transform="translate(112.096875 324.555019) scale(0.1 -0.1)">
       <use xlink:href="#DejaVuSans-30"/>
       <use xlink:href="#DejaVuSans-2e" x="63.623047"/>
       <use xlink:href="#DejaVuSans-32" x="95.410156"/>
      </g>
     </g>
    </g>
    <g id="ytick_4">
     <g id="line2d_9">
      <g>
       <use xlink:href="#m16737e9f08" x="135" y="271.46976" style="stroke: #000000; stroke-width: 0.8"/>
      </g>
     </g>
     <g id="text_10">
      <!-- 0.4 -->
      <g transform="translate(112.096875 275.268979) scale(0.1 -0.1)">
       <use xlink:href="#DejaVuSans-30"/>
       <use xlink:href="#DejaVuSans-2e" x="63.623047"/>
       <use xlink:href="#DejaVuSans-34" x="95.410156"/>
      </g>
     </g>
    </g>
    <g id="ytick_5">
     <g id="line2d_10">
      <g>
       <use xlink:href="#m16737e9f08" x="135" y="222.18372" style="stroke: #000000; stroke-width: 0.8"/>
      </g>
     </g>
     <g id="text_11">
      <!-- 0.6 -->
      <g transform="translate(112.096875 225.982939) scale(0.1 -0.1)">
       <defs>
        <path id="DejaVuSans-36" d="M 2113 2584 
Q 1688 2584 1439 2293 
Q 1191 2003 1191 1497 
Q 1191 994 1439 701 
Q 1688 409 2113 409 
Q 2538 409 2786 701 
Q 3034 994 3034 1497 
Q 3034 2003 2786 2293 
Q 2538 2584 2113 2584 
z
M 3366 4563 
L 3366 3988 
Q 3128 4100 2886 4159 
Q 2644 4219 2406 4219 
Q 1781 4219 1451 3797 
Q 1122 3375 1075 2522 
Q 1259 2794 1537 2939 
Q 1816 3084 2150 3084 
Q 2853 3084 3261 2657 
Q 3669 2231 3669 1497 
Q 3669 778 3244 343 
Q 2819 -91 2113 -91 
Q 1303 -91 875 529 
Q 447 1150 447 2328 
Q 447 3434 972 4092 
Q 1497 4750 2381 4750 
Q 2619 4750 2861 4703 
Q 3103 4656 3366 4563 
z
" transform="scale(0.015625)"/>
       </defs>
       <use xlink:href="#DejaVuSans-30"/>
       <use xlink:href="#DejaVuSans-2e" x="63.623047"/>
       <use xlink:href="#DejaVuSans-36" x="95.410156"/>
      </g>
     </g>
    </g>
    <g id="ytick_6">
     <g id="line2d_11">
      <g>
       <use xlink:href="#m16737e9f08" x="135" y="172.89768" style="stroke: #000000; stroke-width: 0.8"/>
      </g>
     </g>
     <g id="text_12">
      <!-- 0.8 -->
      <g transform="translate(112.096875 176.696899) scale(0.1 -0.1)">
       <defs>
        <path id="DejaVuSans-38" d="M 2034 2216 
Q 1584 2216 1326 1975 
Q 1069 1734 1069 1313 
Q 1069 891 1326 650 
Q 1584 409 2034 409 
Q 2484 409 2743 651 
Q 3003 894 3003 1313 
Q 3003 1734 2745 1975 
Q 2488 2216 2034 2216 
z
M 1403 2484 
Q 997 2584 770 2862 
Q 544 3141 544 3541 
Q 544 4100 942 4425 
Q 1341 4750 2034 4750 
Q 2731 4750 3128 4425 
Q 3525 4100 3525 3541 
Q 3525 3141 3298 2862 
Q 3072 2584 2669 2484 
Q 3125 2378 3379 2068 
Q 3634 1759 3634 1313 
Q 3634 634 3220 271 
Q 2806 -91 2034 -91 
Q 1263 -91 848 271 
Q 434 634 434 1313 
Q 434 1759 690 2068 
Q 947 2378 1403 2484 
z
M 1172 3481 
Q 1172 3119 1398 2916 
Q 1625 2713 2034 2713 
Q 2441 2713 2670 2916 
Q 2900 3119 2900 3481 
Q 2900 3844 2670 4047 
Q 2441 4250 2034 4250 
Q 1625 4250 1398 4047 
Q 1172 3844 1172 3481 
z
" transform="scale(0.015625)"/>
       </defs>
       <use xlink:href="#DejaVuSans-30"/>
       <use xlink:href="#DejaVuSans-2e" x="63.623047"/>
       <use xlink:href="#DejaVuSans-38" x="95.410156"/>
      </g>
     </g>
    </g>
    <g id="ytick_7">
     <g id="line2d_12">
      <g>
       <use xlink:href="#m16737e9f08" x="135" y="123.61164" style="stroke: #000000; stroke-width: 0.8"/>
      </g>
     </g>
     <g id="text_13">
      <!-- 1.0 -->
      <g transform="translate(112.096875 127.410858) scale(0.1 -0.1)">
       <use xlink:href="#DejaVuSans-31"/>
       <use xlink:href="#DejaVuSans-2e" x="63.623047"/>
       <use xlink:href="#DejaVuSans-30" x="95.410156"/>
      </g>
     </g>
    </g>
    <g id="ytick_8">
     <g id="line2d_13">
      <g>
       <use xlink:href="#m16737e9f08" x="135" y="74.3256" style="stroke: #000000; stroke-width: 0.8"/>
      </g>
     </g>
     <g id="text_14">
      <!-- 1.2 -->
      <g transform="translate(112.096875 78.124818) scale(0.1 -0.1)">
       <use xlink:href="#DejaVuSans-31"/>
       <use xlink:href="#DejaVuSans-2e" x="63.623047"/>
       <use xlink:href="#DejaVuSans-32" x="95.410156"/>
      </g>
     </g>
    </g>
   </g>
   <g id="line2d_14">
    <path d="M 173.045455 264.29554 
L 173.36604 147.629687 
L 173.686625 107.840096 
L 173.846918 103.900099 
L 174.00721 106.035481 
L 174.327796 119.702495 
L 175.129259 156.821295 
L 175.449844 164.227848 
L 175.770429 167.096184 
L 175.930722 167.134179 
L 176.091014 166.438441 
L 176.4116 163.446974 
L 177.693941 147.901434 
L 178.014526 295.835621 
L 178.335111 360.753651 
L 178.655696 380.578597 
L 178.815989 381.429976 
L 178.976282 379.081231 
L 179.777745 359.651833 
L 179.938037 358.327253 
L 180.09833 358.351656 
L 180.258623 359.703238 
L 180.579208 365.981798 
L 181.060086 381.847753 
L 182.182134 421.938232 
L 182.502719 428.317473 
L 182.823305 430.92 
L 182.983597 430.688359 
L 183.14389 429.40853 
L 183.464475 423.723611 
L 183.945353 407.82442 
L 184.586524 375.249072 
L 185.708572 301.555201 
L 186.83062 231.439836 
L 187.471791 201.584134 
L 188.112961 181.941715 
L 188.593839 174.273175 
L 188.914424 172.427781 
L 189.074717 172.435697 
L 189.23501 173.034355 
L 189.555595 175.898847 
L 190.036473 183.915189 
L 190.677643 200.147037 
L 191.639399 231.805844 
L 193.562911 296.725513 
L 194.364374 317.197582 
L 195.005544 329.361015 
L 195.646715 337.632437 
L 196.127593 341.380272 
L 196.448178 342.792254 
L 196.768763 343.404391 
L 196.929056 343.431753 
L 197.089348 343.285453 
L 197.409934 342.510139 
L 197.890811 340.289187 
L 198.531982 335.778568 
L 199.493738 326.980816 
L 201.417249 308.774793 
L 202.218712 302.962634 
L 202.859883 299.526068 
L 203.501053 297.271297 
L 203.981931 296.368218 
L 204.302516 296.13426 
L 204.623102 296.185054 
L 204.943687 296.509199 
L 205.424565 297.477524 
L 205.905443 298.976102 
L 206.546613 301.694417 
L 207.508369 307.002928 
L 208.79071 315.57183 
L 212.47744 341.131024 
L 213.278903 345.796086 
L 213.599489 170.962136 
L 213.920074 100.8479 
L 214.080367 88.571807 
L 214.240659 85.50583 
L 214.400952 88.483066 
L 214.88183 113.061307 
L 215.523 144.36569 
L 215.843585 152.993176 
L 216.164171 156.985296 
L 216.324463 157.550028 
L 216.484756 157.358318 
L 216.805341 155.30909 
L 218.087682 142.746475 
L 218.408267 291.112963 
L 218.728853 356.453968 
L 219.049438 376.686977 
L 219.209731 377.735625 
L 219.370023 375.579205 
L 220.171486 357.030551 
L 220.331779 355.865163 
L 220.492072 356.042981 
L 220.652364 357.542192 
L 220.972949 364.098707 
L 221.453827 380.338954 
L 222.575876 421.115469 
L 222.896461 427.646803 
L 223.217046 430.383975 
L 223.377339 430.213495 
L 223.537631 428.990924 
L 223.858217 423.40943 
L 224.339095 407.639941 
L 224.980265 375.19624 
L 226.102313 301.643376 
L 227.224362 231.588709 
L 227.865532 201.743678 
L 228.506703 182.100092 
L 228.987581 174.425039 
L 229.308166 172.573308 
L 229.468459 172.577576 
L 229.628751 173.172314 
L 229.949336 176.028277 
L 230.430214 184.030531 
L 231.071385 200.242199 
L 232.033141 231.870131 
L 233.956652 296.734659 
L 234.758115 317.188155 
L 235.399286 329.338825 
L 236.040456 337.599323 
L 236.521334 341.340128 
L 236.841919 342.747954 
L 237.162505 343.35634 
L 237.322797 343.381974 
L 237.48309 343.234042 
L 237.803675 342.45574 
L 238.284553 340.230967 
L 238.925723 335.716394 
L 239.887479 326.914866 
L 241.810991 308.707436 
L 242.612454 302.896513 
L 243.253624 299.46151 
L 243.894795 297.208718 
L 244.375673 296.30735 
L 244.696258 296.074623 
L 245.016843 296.126713 
L 245.337428 296.452208 
L 245.818306 297.422646 
L 246.299184 298.923422 
L 246.940355 301.644763 
L 247.90211 306.957924 
L 249.184451 315.533037 
L 252.871182 341.108312 
L 253.99323 347.5079 
L 254.313815 172.570217 
L 254.634401 102.356115 
L 254.794693 90.030999 
L 254.954986 86.916497 
L 255.115279 89.845698 
L 255.435864 105.012014 
L 256.237327 145.409567 
L 256.557912 153.953408 
L 256.878497 157.86594 
L 257.03879 158.392485 
L 257.199083 158.163689 
L 257.519668 156.043654 
L 258.802009 143.24269 
L 259.122594 291.570735 
L 259.443179 356.874536 
L 259.763765 377.071764 
L 259.924057 378.103098 
L 260.08435 375.929764 
L 260.885813 357.302862 
L 261.046106 356.123131 
L 261.206398 356.28705 
L 261.366691 357.772809 
L 261.687276 364.303762 
L 262.168154 380.50901 
L 263.290202 421.21891 
L 263.610788 427.73484 
L 263.931373 430.458088 
L 264.091666 430.281176 
L 264.251958 429.052512 
L 264.572543 423.459805 
L 265.053421 407.675763 
L 265.694592 375.216434 
L 266.81664 301.644727 
L 267.938689 231.579348 
L 268.579859 201.730828 
L 269.22103 182.085171 
L 269.701907 174.409298 
L 270.022493 172.557304 
L 270.182785 172.561514 
L 270.343078 173.156238 
L 270.663663 176.012292 
L 271.144541 184.014937 
L 271.785712 200.227489 
L 272.747467 231.857249 
L 274.670979 296.726076 
L 275.472442 317.181314 
L 276.113612 329.333291 
L 276.754783 337.594998 
L 277.235661 341.33664 
L 277.556246 342.744989 
L 277.876831 343.353871 
L 278.037124 343.379743 
L 278.197417 343.232041 
L 278.518002 342.454179 
L 278.99888 340.230014 
L 279.64005 335.71616 
L 280.601806 326.915524 
L 282.525317 308.70929 
L 283.326781 302.898673 
L 283.967951 299.463848 
L 284.609122 297.211181 
L 285.089999 296.309877 
L 285.410585 296.07718 
L 285.73117 296.129289 
L 286.051755 296.454794 
L 286.532633 297.425232 
L 287.013511 298.925993 
L 287.654681 301.647289 
L 288.616437 306.960345 
L 289.898778 315.535263 
L 293.585509 341.109835 
L 293.906094 166.537099 
L 294.226679 96.677123 
L 294.386972 84.526953 
L 294.547264 81.58634 
L 294.707557 84.688372 
L 295.188435 109.636283 
L 295.829605 141.415063 
L 296.150191 150.268163 
L 296.470776 154.476408 
L 296.631068 155.145339 
L 296.791361 155.055126 
L 297.111946 153.200521 
L 298.394287 141.301448 
L 298.714873 289.776126 
L 299.035458 355.221943 
L 299.356043 375.555945 
L 299.516336 376.653551 
L 299.676628 374.545018 
L 300.478091 356.218871 
L 300.638384 355.094468 
L 300.798677 355.312067 
L 300.958969 356.849847 
L 301.279555 363.479843 
L 301.760432 379.821158 
L 302.882481 420.79186 
L 303.203066 427.368549 
L 303.523651 430.146907 
L 303.683944 429.995524 
L 303.844237 428.791091 
L 304.164822 423.243108 
L 304.6457 407.51742 
L 305.28687 375.121298 
L 306.408919 301.627046 
L 307.530967 231.607103 
L 308.172137 201.774043 
L 308.813308 182.138116 
L 309.294186 174.466544 
L 309.614771 172.616246 
L 309.775064 172.620998 
L 309.935356 173.216079 
L 310.255942 176.072344 
L 310.736819 184.074225 
L 311.37799 200.284181 
L 312.339746 231.907779 
L 314.263257 296.760888 
L 315.06472 317.209514 
L 315.705891 329.356469 
L 316.347061 337.613483 
L 316.827939 341.35185 
L 317.148524 342.758141 
L 317.46911 343.365067 
L 317.629402 343.389999 
L 317.789695 343.241384 
L 318.11028 342.461774 
L 318.591158 340.23518 
L 319.232329 335.71844 
L 320.194084 326.914194 
L 322.117596 308.70303 
L 322.919059 302.89112 
L 323.560229 299.455527 
L 324.2014 297.202303 
L 324.682278 296.300703 
L 325.002863 296.067861 
L 325.323448 296.119865 
L 325.644034 296.445301 
L 326.124911 297.415697 
L 326.605789 298.916483 
L 327.24696 301.637905 
L 328.208716 306.951309 
L 329.491057 315.526911 
L 333.177787 341.104067 
L 333.818957 344.876982 
L 334.139543 170.097097 
L 334.460128 100.035122 
L 334.620421 87.784764 
L 334.780713 84.744308 
L 334.941006 87.746857 
L 335.421884 112.399568 
L 336.063054 143.798537 
L 336.383639 152.47067 
L 336.704225 156.505374 
L 336.864517 157.090576 
L 337.02481 156.918767 
L 337.345395 154.907597 
L 338.627736 142.473749 
L 338.948321 290.861169 
L 339.268907 356.22241 
L 339.589492 376.474877 
L 339.749785 377.532943 
L 339.910077 375.385724 
L 340.71154 356.879691 
L 340.871833 355.722128 
L 341.032126 355.907533 
L 341.192418 357.414092 
L 341.513003 363.984584 
L 341.993881 380.244003 
L 343.11593 421.057149 
L 343.436515 427.59699 
L 343.7571 430.341867 
L 343.917393 430.174951 
L 344.077685 428.955761 
L 344.398271 423.3805 
L 344.879149 407.619126 
L 345.520319 375.184185 
L 346.642367 301.641987 
L 347.764416 231.593502 
L 348.405586 201.750538 
L 349.046757 182.108224 
L 349.527635 174.433711 
L 349.84822 172.582178 
L 350.008513 172.586504 
L 350.168805 173.181273 
L 350.48939 176.03723 
L 350.970268 184.039328 
L 351.611439 200.250573 
L 352.573195 231.877566 
L 354.496706 296.739777 
L 355.298169 317.19231 
L 355.93934 329.342252 
L 356.58051 337.602069 
L 357.061388 341.3424 
L 357.381973 342.749927 
L 357.702559 343.35803 
L 357.862851 343.383528 
L 358.023144 343.235463 
L 358.343729 342.456908 
L 358.824607 340.231783 
L 359.465777 335.716791 
L 360.427533 326.914738 
L 362.351045 308.706587 
L 363.152508 302.895473 
L 363.793678 299.460355 
L 364.434849 297.207479 
L 364.915727 296.306067 
L 365.236312 296.073318 
L 365.556897 296.12539 
L 365.877482 296.450874 
L 366.35836 297.421303 
L 366.839238 298.922082 
L 367.480409 301.643437 
L 368.442164 306.956645 
L 369.724505 315.531852 
L 373.090651 339.112095 
L 373.411236 164.640275 
L 373.731821 94.879818 
L 373.892114 82.779465 
L 374.052406 79.888792 
L 374.212699 83.040874 
L 374.693577 108.138866 
L 375.334747 140.113786 
L 375.655333 149.061398 
L 375.975918 153.360867 
L 376.13621 154.07401 
L 376.296503 154.027005 
L 376.617088 152.255642 
L 377.899429 140.644236 
L 378.220015 289.166209 
L 378.5406 354.657951 
L 378.861185 375.036328 
L 379.021478 376.155496 
L 379.18177 374.068087 
L 379.983233 355.840593 
L 380.143526 354.73446 
L 380.303819 354.969826 
L 380.464111 356.524862 
L 380.784697 363.187826 
L 381.265574 379.574699 
L 382.387623 420.633783 
L 382.708208 427.231318 
L 383.028793 430.028694 
L 383.189086 429.88616 
L 383.349379 428.690152 
L 383.669964 423.157796 
L 384.150842 407.452671 
L 384.792012 375.079121 
L 385.914061 301.613219 
L 387.036109 231.610674 
L 387.677279 201.783886 
L 388.31845 182.152191 
L 388.799328 174.482708 
L 389.119913 172.633372 
L 389.280206 172.638491 
L 389.440498 173.23387 
L 389.761084 176.09054 
L 390.241961 184.092614 
L 390.883132 200.302207 
L 391.844888 231.924325 
L 393.768399 296.772842 
L 394.569862 317.219392 
L 395.211033 329.364733 
L 395.852203 337.620214 
L 396.333081 341.3575 
L 396.653666 342.763105 
L 396.974252 343.369377 
L 397.134544 343.393993 
L 397.294837 343.245071 
L 397.615422 342.464869 
L 398.0963 340.237449 
L 398.737471 335.719719 
L 399.699226 326.914224 
L 401.622738 308.701319 
L 402.424201 302.88894 
L 403.065371 299.453063 
L 403.706542 297.199627 
L 404.18742 296.29791 
L 404.508005 296.065009 
L 404.82859 296.116966 
L 405.149176 296.442368 
L 405.630053 297.412736 
L 406.110931 298.913516 
L 406.752102 301.634961 
L 407.713858 306.948456 
L 408.996199 315.524259 
L 412.682929 341.102211 
L 413.644685 346.646661 
L 413.96527 171.761815 
L 414.285855 101.5985 
L 414.446148 89.29828 
L 414.60644 86.208399 
L 414.766733 89.16195 
L 415.087318 104.376103 
L 415.888781 144.88691 
L 416.209367 153.472899 
L 416.529952 157.425493 
L 416.690245 157.971246 
L 416.850537 157.761097 
L 417.171122 155.676642 
L 418.453463 142.995246 
L 418.774049 291.342586 
L 419.094634 356.665043 
L 419.415219 376.880198 
L 419.575512 377.920202 
L 419.735804 375.755336 
L 420.537268 357.167572 
L 420.69756 355.99501 
L 420.857853 356.165874 
L 421.018145 357.658353 
L 421.338731 364.202071 
L 421.819609 380.424787 
L 422.941657 421.167898 
L 423.262242 427.691498 
L 423.582827 430.421677 
L 423.74312 430.247965 
L 423.903413 429.022332 
L 424.223998 423.4352 
L 424.704876 407.658389 
L 425.346046 375.206816 
L 426.468095 301.644441 
L 427.590143 231.584346 
L 428.231314 201.737536 
L 428.872484 182.092885 
L 429.353362 174.417404 
L 429.673947 172.56553 
L 429.83424 172.569764 
L 429.994532 173.164489 
L 430.315118 176.020488 
L 430.795996 184.022924 
L 431.437166 200.235019 
L 432.398922 231.863845 
L 434.322433 296.730491 
L 435.123896 317.184847 
L 435.765067 329.336162 
L 436.406237 337.597256 
L 436.887115 341.338474 
L 437.207701 342.746557 
L 437.528286 343.355187 
L 437.688578 343.380938 
L 437.848871 343.233119 
L 438.169456 342.455034 
L 438.650334 340.230559 
L 439.291505 335.716338 
L 440.25326 326.915246 
L 442.176772 308.708397 
L 442.978235 302.897621 
L 443.619406 299.462702 
L 444.260576 297.209969 
L 444.741454 296.30863 
L 445.062039 296.075916 
L 445.382624 296.128014 
L 445.70321 296.453513 
L 446.184088 297.423949 
L 446.664965 298.924716 
L 447.306136 301.646032 
L 448.267892 306.959138 
L 449.550233 315.534151 
L 453.236963 341.109072 
L 453.557548 343.032836 
L 453.878134 168.357118 
L 454.198719 98.396365 
L 454.359011 86.196069 
L 454.519304 83.205409 
L 454.679597 86.257486 
L 455.160475 111.056675 
L 455.801645 142.643166 
L 456.12223 151.404321 
L 456.442816 155.524212 
L 456.603108 156.150454 
L 456.763401 156.018602 
L 457.083986 154.083998 
L 458.366327 141.910656 
L 458.686912 290.340468 
L 459.007498 355.742775 
L 459.328083 376.034802 
L 459.488375 377.112039 
L 459.648668 374.98357 
L 460.450131 356.564595 
L 460.610424 355.423055 
L 460.770716 355.624008 
L 460.931009 357.145637 
L 461.251594 363.744827 
L 461.732472 380.043689 
L 462.854521 420.932499 
L 463.175106 427.489982 
L 463.495691 430.250868 
L 463.655984 430.091371 
L 463.816276 428.879223 
L 464.136862 423.316965 
L 464.617739 407.572566 
L 465.25891 375.156029 
L 466.380958 301.636422 
L 467.503007 231.60123 
L 468.144177 201.762809 
L 468.785348 182.123368 
L 469.266226 174.450137 
L 469.586811 172.599117 
L 469.747103 172.603609 
L 469.907396 173.198492 
L 470.227981 176.054527 
L 470.708859 184.056428 
L 471.35003 200.266946 
L 472.311785 231.892183 
L 474.235297 296.749871 
L 475.03676 317.200495 
L 475.677931 329.348984 
L 476.319101 337.607443 
L 476.799979 341.346826 
L 477.120564 342.753757 
L 477.441149 343.361293 
L 477.601442 343.386519 
L 477.761735 343.23819 
L 478.08232 342.459128 
L 478.563198 340.233299 
L 479.204368 335.71747 
L 480.166124 326.914371 
L 482.089636 308.704789 
L 482.891099 302.893299 
L 483.532269 299.457959 
L 484.17344 297.204921 
L 484.654318 296.303422 
L 484.974903 296.070631 
L 485.295488 296.122673 
L 485.616073 296.448135 
L 486.096951 297.418553 
L 486.577829 298.919338 
L 487.219 301.64073 
L 488.180755 306.954037 
L 489.463096 315.529442 
L 493.149827 341.105826 
L 493.630705 343.963721 
L 493.95129 169.236084 
L 494.271875 99.224795 
L 494.432168 86.99947 
L 494.59246 83.983893 
L 494.752753 87.011165 
L 495.233631 111.736878 
L 495.874801 143.22908 
L 496.195387 151.945396 
L 496.515972 156.022336 
L 496.676264 156.627871 
L 496.836557 156.475849 
L 497.157142 154.502574 
L 498.439483 142.197413 
L 498.760069 290.605749 
L 499.080654 355.987245 
L 499.401239 376.259217 
L 499.561532 377.326733 
L 499.721824 375.188753 
L 500.523287 356.725592 
L 500.68358 355.575914 
L 500.843873 355.768969 
L 501.004165 357.28294 
L 501.324751 363.867541 
L 501.805628 380.146339 
L 502.927677 420.996611 
L 503.248262 427.545096 
L 503.568847 430.297812 
L 503.72914 430.134527 
L 503.889433 428.918783 
L 504.210018 423.34988 
L 504.690896 407.596797 
L 505.332066 375.170833 
L 506.454115 301.639621 
L 507.576163 231.597565 
L 508.217333 201.756782 
L 508.858504 182.115835 
L 509.339382 174.441921 
L 509.659967 172.590623 
L 509.82026 172.595021 
L 509.980552 173.189838 
L 510.301138 176.045818 
L 510.782015 184.047799 
L 511.423186 200.258664 
L 512.384942 231.884767 
L 514.308453 296.744726 
L 515.109916 317.196314 
L 515.751087 329.345539 
L 516.392257 337.604687 
L 516.873135 341.344551 
L 517.19372 342.751786 
L 517.514306 343.35961 
L 517.674598 343.384974 
L 517.834891 343.23678 
L 518.155476 342.457976 
L 518.636354 340.232505 
L 519.277525 335.717103 
L 520.23928 326.914538 
L 522.162792 308.705687 
L 522.964255 302.89439 
L 523.605425 299.459164 
L 524.246596 297.206209 
L 524.727474 296.304755 
L 525.048059 296.071986 
L 525.368644 296.124044 
L 525.68923 296.449517 
L 526.170107 297.419941 
L 526.650985 298.920724 
L 527.292156 301.642098 
L 528.253912 306.955356 
L 529.536253 315.530661 
L 533.222983 341.10667 
L 533.864153 344.879379 
L 534.184739 170.099364 
L 534.505324 100.037263 
L 534.665617 87.786842 
L 534.825909 84.746325 
L 534.986202 87.748813 
L 535.46708 112.401345 
L 536.10825 143.800087 
L 536.428835 152.472112 
L 536.749421 156.506713 
L 536.909713 157.091865 
L 537.070006 156.920007 
L 537.390591 154.908744 
L 538.672932 142.47457 
L 538.993517 290.861932 
L 539.314103 356.223118 
L 539.634688 376.475533 
L 539.794981 377.533574 
L 539.955273 375.386331 
L 540.756736 356.880185 
L 540.917029 355.722601 
L 541.077322 355.907986 
L 541.237614 357.414525 
L 541.558199 363.984979 
L 542.039077 380.244345 
L 543.161126 421.057385 
L 543.481711 427.5972 
L 543.802296 430.342053 
L 543.962589 430.175127 
L 544.122881 428.955926 
L 544.443467 423.380645 
L 544.924345 407.619243 
L 545.565515 375.184271 
L 546.687563 301.642031 
L 547.809612 231.593516 
L 548.450782 201.75054 
L 549.091953 182.108216 
L 549.572831 174.433697 
L 549.893416 172.582161 
L 550.053709 172.586485 
L 550.214001 173.181253 
L 550.534586 176.037207 
L 551.015464 184.039303 
L 551.656635 200.250545 
L 552.618391 231.877536 
L 554.541902 296.739748 
L 555.343365 317.192283 
L 555.984536 329.342226 
L 556.625706 337.602045 
L 557.106584 341.342377 
L 557.427169 342.749905 
L 557.747755 343.358009 
L 557.908047 343.383508 
L 558.06834 343.235444 
L 558.388925 342.45689 
L 558.869803 340.231766 
L 559.510973 335.716776 
L 560.472729 326.914726 
L 562.396241 308.70658 
L 563.197704 302.895468 
L 563.838874 299.460351 
L 564.480045 297.207476 
L 564.960923 296.306064 
L 565.281508 296.073316 
L 565.602093 296.125389 
L 565.922678 296.450872 
L 566.403556 297.421303 
L 566.884434 298.922081 
L 567.525605 301.643438 
L 568.48736 306.956646 
L 569.769701 315.531854 
L 573.456432 341.107494 
L 574.257895 345.775567 
L 574.57848 170.943019 
L 574.899065 100.83012 
L 575.059358 88.554674 
L 575.219651 85.489331 
L 575.379943 88.467188 
L 575.860821 113.047215 
L 576.501992 144.353784 
L 576.822577 152.982276 
L 577.143162 156.975343 
L 577.303455 157.540527 
L 577.463747 157.349255 
L 577.784333 155.300858 
L 579.066674 142.741027 
L 579.387259 291.108013 
L 579.707844 356.44948 
L 580.028429 376.682918 
L 580.188722 377.73177 
L 580.349015 375.575548 
L 581.150478 357.02779 
L 581.31077 355.862564 
L 581.471063 356.040538 
L 581.631356 357.5399 
L 581.951941 364.096701 
L 582.432819 380.337338 
L 583.554867 421.114593 
L 583.875452 427.646098 
L 584.196038 430.383425 
L 584.35633 430.213016 
L 584.516623 428.990513 
L 584.837208 423.409144 
L 585.318086 407.639818 
L 585.959257 375.196293 
L 587.081305 301.643644 
L 588.203353 231.589101 
L 588.844524 201.744111 
L 589.485694 182.100548 
L 589.966572 174.425505 
L 590.287157 172.573776 
L 590.44745 172.578044 
L 590.607743 173.172781 
L 590.928328 176.028741 
L 591.409206 184.030988 
L 592.050376 200.24264 
L 593.012132 231.870538 
L 594.935644 296.734982 
L 595.737107 317.18844 
L 596.378277 329.339081 
L 597.019448 337.599551 
L 597.500326 341.340336 
L 597.820911 342.748148 
L 598.141496 343.356521 
L 598.301789 343.382148 
L 598.462081 343.23421 
L 598.782667 342.455896 
L 599.263544 340.231106 
L 599.904715 335.716511 
L 600.866471 326.914954 
L 602.789982 308.707478 
L 603.591445 302.896541 
L 604.232616 299.461528 
L 604.873786 297.208727 
L 605.354664 296.307354 
L 605.675249 296.074625 
L 605.995835 296.126711 
L 606.31642 296.452203 
L 606.797298 297.422638 
L 607.278176 298.923412 
L 607.919346 301.644749 
L 608.881102 306.957907 
L 610.163443 315.533018 
L 613.209003 337.050326 
L 613.529588 162.676112 
L 613.850173 93.012762 
L 614.010466 80.961364 
L 614.170759 78.12 
L 614.331051 81.321717 
L 614.811929 106.569755 
L 615.4531 138.7431 
L 615.773685 147.787128 
L 616.09427 152.180101 
L 616.254563 152.938711 
L 616.414855 152.936232 
L 616.575148 152.324558 
L 616.895733 149.853622 
L 617.857489 140.819708 
L 618.017782 139.93928 
L 618.338367 288.510766 
L 618.658952 354.050661 
L 618.979537 374.475654 
L 619.13983 375.617506 
L 619.300123 373.552345 
L 620.101586 355.429075 
L 620.261878 354.342309 
L 620.422171 354.596528 
L 620.582464 356.169898 
L 620.903049 362.867945 
L 621.383927 379.303437 
L 622.505975 420.457379 
L 622.82656 427.077416 
L 623.147146 429.895374 
L 623.307438 429.762437 
L 623.467731 428.575579 
L 623.788316 423.06023 
L 624.269194 407.37757 
L 624.910364 375.02882 
L 626.032413 301.594396 
L 627.154461 231.61152 
L 627.795632 201.79198 
L 628.436802 182.165293 
L 628.91768 174.498367 
L 629.238265 172.650256 
L 629.398558 172.655861 
L 629.558851 173.251648 
L 629.879436 176.108919 
L 630.360314 184.111427 
L 631.001484 200.320888 
L 631.96324 231.941723 
L 633.886751 296.785678 
L 634.688215 317.230083 
L 635.329385 329.373739 
L 635.970556 337.627606 
L 636.451433 341.363746 
L 636.772019 342.768624 
L 637.092604 343.374198 
L 637.252897 343.398477 
L 637.413189 343.249226 
L 637.733774 342.468392 
L 638.214652 340.240085 
L 638.855823 335.72129 
L 639.817579 326.914443 
L 641.74109 308.699642 
L 642.542553 302.886749 
L 643.183724 299.450559 
L 643.824894 297.196886 
L 644.305772 296.295038 
L 644.626357 296.062068 
L 644.946943 296.113972 
L 645.267528 296.439334 
L 645.748406 297.409665 
L 646.229284 298.910433 
L 646.870454 301.631896 
L 647.83221 306.94548 
L 649.114551 315.521483 
L 652.801281 341.10026 
L 653.92333 347.500946 
L 654.243915 172.563653 
L 654.5645 102.349928 
L 654.724793 90.024996 
L 654.885085 86.910676 
L 655.045378 89.840058 
L 655.365963 105.006729 
L 656.167426 145.405124 
L 656.488012 153.94928 
L 656.808597 157.862114 
L 656.968889 158.388804 
L 657.129182 158.160151 
L 657.449767 156.040389 
L 658.732108 143.240368 
L 659.052694 291.568582 
L 659.373279 356.872542 
L 659.693864 377.06992 
L 659.854157 378.101326 
L 660.014449 375.928062 
L 660.815912 357.301484 
L 660.976205 356.121813 
L 661.136498 356.285791 
L 661.29679 357.771606 
L 661.617376 364.302668 
L 662.098253 380.508068 
L 663.220302 421.218269 
L 663.540887 427.734271 
L 663.861472 430.457587 
L 664.021765 430.280706 
L 664.182058 429.052072 
L 664.502643 423.459422 
L 664.983521 407.675458 
L 665.624691 375.216215 
L 666.74674 301.644625 
L 667.868788 231.579327 
L 668.509958 201.730842 
L 669.151129 182.08521 
L 669.632007 174.409353 
L 669.952592 172.557368 
L 670.112885 172.561582 
L 670.273177 173.156309 
L 670.593763 176.012369 
L 671.07464 184.015022 
L 671.715811 200.22758 
L 672.677567 231.857344 
L 674.601078 296.726164 
L 675.402541 317.181397 
L 676.043712 329.333368 
L 676.684882 337.595069 
L 677.16576 341.336707 
L 677.486345 342.745053 
L 677.806931 343.353931 
L 677.967223 343.379801 
L 678.127516 343.232098 
L 678.448101 342.454233 
L 678.928979 340.230063 
L 679.57015 335.716203 
L 680.531905 326.915558 
L 682.455417 308.70931 
L 683.25688 302.898688 
L 683.89805 299.463859 
L 684.539221 297.211189 
L 685.020099 296.309883 
L 685.340684 296.077185 
L 685.661269 296.129293 
L 685.981855 296.454797 
L 686.462732 297.425234 
L 686.94361 298.925993 
L 687.584781 301.647288 
L 688.546537 306.960342 
L 689.828878 315.535259 
L 693.515608 341.10983 
L 694.156778 344.882285 
L 694.477364 170.102109 
L 694.797949 100.039853 
L 694.958242 87.789356 
L 695.118534 84.748763 
L 695.278827 87.751176 
L 695.759705 112.403489 
L 696.400875 143.801954 
L 696.72146 152.473848 
L 697.042046 156.508323 
L 697.202338 157.093414 
L 697.362631 156.921497 
L 697.683216 154.91012 
L 698.965557 142.475552 
L 699.286142 290.862842 
L 699.606728 356.223962 
L 699.927313 376.476314 
L 700.087606 377.534325 
L 700.247898 375.387052 
L 701.049361 356.88077 
L 701.209654 355.723161 
L 701.369947 355.908522 
L 701.530239 357.415037 
L 701.850824 363.985444 
L 702.331702 380.244746 
L 703.453751 421.05766 
L 703.774336 427.597444 
L 704.094921 430.342269 
L 704.255214 430.175329 
L 704.415506 428.956116 
L 704.736092 423.38081 
L 705.21697 407.619376 
L 705.85814 375.184367 
L 706.980188 301.642077 
L 708.102237 231.593527 
L 708.743407 201.750537 
L 709.384578 182.108201 
L 709.865456 174.433676 
L 710.186041 172.582136 
L 710.346334 172.586458 
L 710.506626 173.181225 
L 710.827211 176.037176 
L 711.308089 184.039269 
L 711.94926 200.250508 
L 712.911016 231.877497 
L 714.834527 296.739711 
L 715.63599 317.192248 
L 716.277161 329.342193 
L 716.918331 337.602015 
L 717.399209 341.342349 
L 717.719794 342.749879 
L 718.04038 343.357984 
L 718.200672 343.383483 
L 718.360965 343.23542 
L 718.68155 342.456867 
L 719.162428 340.231745 
L 719.803598 335.716758 
L 720.765354 326.914712 
L 722.688866 308.706571 
L 723.490329 302.895461 
L 724.131499 299.460346 
L 724.77267 297.207473 
L 725.253548 296.306062 
L 725.574133 296.073313 
L 725.894718 296.125387 
L 726.215303 296.450871 
L 726.696181 297.421302 
L 727.177059 298.922081 
L 727.81823 301.643438 
L 728.779985 306.956647 
L 730.062326 315.531856 
L 733.749057 341.107496 
L 734.069642 343.031324 
L 734.390227 168.355687 
L 734.710813 98.395014 
L 734.871105 86.194757 
L 735.031398 83.204135 
L 735.19169 86.25625 
L 735.672568 111.055551 
L 736.313739 142.642186 
L 736.634324 151.403408 
L 736.954909 155.523365 
L 737.115202 156.149637 
L 737.275495 156.017816 
L 737.59608 154.083272 
L 738.878421 141.910135 
L 739.199006 290.339984 
L 739.519591 355.742326 
L 739.840177 376.034385 
L 740.000469 377.111639 
L 740.160762 374.983185 
L 740.962225 356.564281 
L 741.122518 355.422754 
L 741.28281 355.62372 
L 741.443103 357.145362 
L 741.763688 363.744576 
L 742.244566 380.043472 
L 743.366614 420.932348 
L 743.6872 427.489848 
L 744.007785 430.250749 
L 744.168077 430.091259 
L 744.32837 428.879118 
L 744.648955 423.316872 
L 745.129833 407.57249 
L 745.771004 375.155974 
L 746.893052 301.636393 
L 748.0151 231.601221 
L 748.656271 201.762807 
L 749.297441 182.123373 
L 749.778319 174.450145 
L 750.098905 172.599128 
L 750.259197 172.603621 
L 750.41949 173.198504 
L 750.740075 176.054541 
L 751.220953 184.056444 
L 751.862123 200.266964 
L 752.823879 231.892202 
L 754.747391 296.74989 
L 755.548854 317.200512 
L 756.190024 329.349 
L 756.831195 337.607458 
L 757.312073 341.34684 
L 757.632658 342.75377 
L 757.953243 343.361306 
L 758.113536 343.386532 
L 758.273828 343.238202 
L 758.594414 342.45914 
L 759.075292 340.233309 
L 759.716462 335.717479 
L 760.678218 326.914378 
L 762.601729 308.704793 
L 763.403192 302.893303 
L 764.044363 299.457961 
L 764.685533 297.204923 
L 765.166411 296.303423 
L 765.486997 296.070632 
L 765.807582 296.122674 
L 766.128167 296.448136 
L 766.609045 297.418553 
L 767.089923 298.919338 
L 767.731093 301.640729 
L 768.692849 306.954037 
L 769.97519 315.529441 
L 773.66192 341.105825 
L 773.822213 342.076954 
L 774.142798 167.453142 
L 774.463384 97.543088 
L 774.623676 85.367972 
L 774.783969 82.402426 
L 774.944261 85.479547 
L 775.425139 110.353163 
L 776.06631 142.035633 
L 776.386895 150.842594 
L 776.70748 155.006455 
L 776.867773 155.653925 
L 777.028066 155.54277 
L 777.348651 153.647903 
L 778.630992 141.610539 
L 778.951577 290.062575 
L 779.272162 355.486425 
L 779.592748 375.799225 
L 779.75304 376.886539 
L 779.913333 374.76793 
L 780.714796 356.394832 
L 780.875089 355.261755 
L 781.035381 355.470927 
L 781.195674 357.000529 
L 781.516259 363.614919 
L 781.997137 379.934714 
L 783.119185 420.863854 
L 783.439771 427.430783 
L 783.760356 430.200258 
L 783.920648 430.044747 
L 784.080941 428.836389 
L 784.401526 423.281139 
L 784.882404 407.545918 
L 785.523575 375.139382 
L 786.645623 301.632165 
L 787.767671 231.604393 
L 788.408842 201.768566 
L 789.050012 182.130815 
L 789.53089 174.458374 
L 789.851476 172.607693 
L 790.011768 172.612305 
L 790.172061 173.207278 
L 790.492646 176.063412 
L 790.973524 184.065284 
L 791.614694 200.275504 
L 792.57645 231.899908 
L 794.499962 296.755311 
L 795.301425 317.204944 
L 795.942595 329.352674 
L 796.583766 337.610418 
L 797.064644 341.349299 
L 797.385229 342.755914 
L 797.705814 343.363149 
L 797.866107 343.38823 
L 798.026399 343.23976 
L 798.346985 342.460428 
L 798.827863 340.234221 
L 799.469033 335.717942 
L 800.430789 326.914278 
L 802.3543 308.703916 
L 803.155763 302.892219 
L 803.796934 299.456754 
L 804.438104 297.203625 
L 804.918982 296.302076 
L 805.239568 296.06926 
L 805.560153 296.121283 
L 805.880738 296.446732 
L 806.361616 297.41714 
L 806.842494 298.917925 
L 807.483664 301.639332 
L 808.44542 306.952687 
L 809.727761 315.52819 
L 813.414491 341.104956 
L 813.735077 166.532476 
L 814.055662 96.672748 
L 814.215955 84.522701 
L 814.376247 81.582209 
L 814.53654 84.684362 
L 815.017418 109.632629 
L 815.658588 141.411864 
L 815.979173 150.26518 
L 816.299759 154.473633 
L 816.460051 155.142665 
L 816.620344 155.05255 
L 816.940929 153.198135 
L 818.22327 141.299725 
L 818.543855 289.774523 
L 818.864441 355.220453 
L 819.185026 375.554561 
L 819.345319 376.652218 
L 819.505611 374.543734 
L 820.307074 356.217819 
L 820.467367 355.093459 
L 820.62766 355.3111 
L 820.787952 356.848921 
L 821.108537 363.478996 
L 821.589415 379.82042 
L 822.711464 420.791343 
L 823.032049 427.368085 
L 823.352634 430.146493 
L 823.512927 429.995134 
L 823.673219 428.790723 
L 823.993805 423.242782 
L 824.474683 407.517152 
L 825.115853 375.121096 
L 826.237901 301.626934 
L 827.35995 231.607057 
L 828.00112 201.774024 
L 828.642291 182.138119 
L 829.123169 174.46656 
L 829.443754 172.61627 
L 829.604047 172.621025 
L 829.764339 173.21611 
L 830.084924 176.07238 
L 830.565802 184.074268 
L 831.206973 200.284231 
L 832.168729 231.907835 
L 834.09224 296.760945 
L 834.893703 317.209569 
L 835.534874 329.356521 
L 836.176044 337.613531 
L 836.656922 341.351896 
L 836.977507 342.758185 
L 837.298093 343.365109 
L 837.458385 343.39004 
L 837.618678 343.241424 
L 837.939263 342.461812 
L 838.420141 340.235215 
L 839.061311 335.718471 
L 840.023067 326.914219 
L 841.946579 308.703045 
L 842.748042 302.891132 
L 843.389212 299.455536 
L 844.030383 297.20231 
L 844.511261 296.300708 
L 844.831846 296.067866 
L 845.152431 296.119868 
L 845.473016 296.445304 
L 845.953894 297.415699 
L 846.434772 298.916484 
L 847.075943 301.637905 
L 848.037698 306.951307 
L 849.320039 315.526909 
L 853.00677 341.104063 
L 854.289111 348.340128 
L 854.609696 349.951317 
L 854.930281 174.857124 
L 855.250867 104.493427 
L 855.411159 92.095304 
L 855.571452 88.90882 
L 855.731744 91.767033 
L 856.05233 106.794457 
L 856.853793 146.86589 
L 857.174378 155.289248 
L 857.494963 159.087675 
L 857.655256 159.559648 
L 857.815549 159.277965 
L 858.136134 157.057254 
L 859.418475 143.920309 
L 859.73906 292.194481 
L 860.059645 357.446223 
L 860.380231 377.593469 
L 860.540523 378.600651 
L 860.700816 376.403748 
L 861.502279 357.668155 
L 861.662572 356.46857 
L 861.822864 356.613273 
L 861.983157 358.080454 
L 862.303742 364.576172 
L 862.78462 380.733325 
L 863.906668 421.35229 
L 864.227254 427.847336 
L 864.547839 430.551772 
L 864.708131 430.366191 
L 864.868424 429.129332 
L 865.189009 423.521585 
L 865.669887 407.718128 
L 866.311058 375.238116 
L 867.433106 301.64188 
L 868.555154 231.563007 
L 869.196325 201.710309 
L 869.837495 182.062353 
L 870.318373 174.38572 
L 870.638959 172.533587 
L 870.799251 172.537822 
L 870.959544 173.132627 
L 871.280129 175.988997 
L 871.761007 183.992435 
L 872.402177 200.206493 
L 873.363933 231.839106 
L 875.287445 296.714256 
L 876.088908 317.171985 
L 876.730078 329.325812 
L 877.371249 337.58922 
L 877.852127 341.332034 
L 878.172712 342.741113 
L 878.493297 343.350684 
L 878.65359 343.376885 
L 878.813882 343.229502 
L 879.134468 342.45225 
L 879.615346 340.228926 
L 880.256516 335.716061 
L 881.218272 326.916647 
L 883.141783 308.71204 
L 883.943246 302.901835 
L 884.584417 299.467245 
L 885.225587 297.214743 
L 885.706465 296.31352 
L 886.027051 296.080858 
L 886.347636 296.132989 
L 886.668221 296.458505 
L 887.149099 297.428937 
L 887.629977 298.929669 
L 888.271147 301.650895 
L 889.232903 306.963793 
L 890.515244 315.538426 
L 894.201974 341.111985 
L 894.362267 342.082988 
L 894.682852 167.458853 
L 895.003438 97.548486 
L 895.16373 85.373215 
L 895.324023 82.407516 
L 895.484315 85.484486 
L 895.965193 110.357656 
L 896.606364 142.039558 
L 896.926949 150.846249 
L 897.247534 155.009851 
L 897.407827 155.657196 
L 897.56812 155.545918 
L 897.888705 153.650817 
L 899.171046 141.612631 
L 899.491631 290.06452 
L 899.812216 355.488231 
L 900.132802 375.800899 
L 900.293094 376.888151 
L 900.453387 374.76948 
L 901.25485 356.396097 
L 901.415143 355.262968 
L 901.575435 355.472088 
L 901.735728 357.001639 
L 902.056313 363.615933 
L 902.537191 379.935593 
L 903.659239 420.864464 
L 903.979825 427.431328 
L 904.30041 430.200742 
L 904.460702 430.045203 
L 904.620995 428.836817 
L 904.94158 423.281516 
L 905.422458 407.546225 
L 906.063629 375.139609 
L 907.185677 301.632284 
L 908.307725 231.604436 
L 908.948896 201.768576 
L 909.590066 182.130799 
L 910.070944 174.458342 
L 910.39153 172.607653 
L 910.551822 172.612261 
L 910.712115 173.20723 
L 911.0327 176.063358 
L 911.513578 184.065222 
L 912.154748 200.275435 
L 913.116504 231.899833 
L 915.040016 296.755238 
L 915.841479 317.204875 
L 916.482649 329.352608 
L 917.12382 337.610357 
L 917.604698 341.349242 
L 917.925283 342.755859 
L 918.245868 343.363097 
L 918.406161 343.388179 
L 918.566453 343.23971 
L 918.887039 342.460381 
L 919.367917 340.234178 
L 920.009087 335.717904 
L 920.970843 326.914247 
L 922.894354 308.703898 
L 923.695817 302.892205 
L 924.336988 299.456743 
L 924.978158 297.203616 
L 925.459036 296.30207 
L 925.779622 296.069255 
L 926.100207 296.121279 
L 926.420792 296.446729 
L 926.90167 297.417138 
L 927.382548 298.917924 
L 928.023718 301.639332 
L 928.985474 306.952689 
L 930.267815 315.528193 
L 933.794253 340.115908 
L 933.954545 235.622547 
L 933.954545 235.622547 
" clip-path="url(#pa21dc02e3b)" style="fill: none; stroke: #1f77b4; stroke-width: 1.5; stroke-linecap: square"/>
   </g>
   <g id="line2d_15">
    <path d="M 173.045455 123.61164 
L 177.693941 123.61164 
L 177.854233 370.04184 
L 213.278903 370.04184 
L 213.439196 123.61164 
L 218.087682 123.61164 
L 218.247975 370.04184 
L 253.99323 370.04184 
L 254.153523 123.61164 
L 258.802009 123.61164 
L 258.962302 370.04184 
L 293.585509 370.04184 
L 293.745801 123.61164 
L 298.394287 123.61164 
L 298.55458 370.04184 
L 333.818957 370.04184 
L 333.97925 123.61164 
L 338.627736 123.61164 
L 338.788029 370.04184 
L 373.090651 370.04184 
L 373.250943 123.61164 
L 377.899429 123.61164 
L 378.059722 370.04184 
L 413.644685 370.04184 
L 413.804977 123.61164 
L 418.453463 123.61164 
L 418.613756 370.04184 
L 453.557548 370.04184 
L 453.717841 123.61164 
L 458.366327 123.61164 
L 458.52662 370.04184 
L 493.630705 370.04184 
L 493.790997 123.61164 
L 498.439483 123.61164 
L 498.599776 370.04184 
L 533.864153 370.04184 
L 534.024446 123.61164 
L 538.672932 123.61164 
L 538.833225 370.04184 
L 574.257895 370.04184 
L 574.418188 123.61164 
L 579.066674 123.61164 
L 579.226966 370.04184 
L 613.209003 370.04184 
L 613.369295 123.61164 
L 618.017782 123.61164 
L 618.178074 370.04184 
L 653.92333 370.04184 
L 654.083622 123.61164 
L 658.732108 123.61164 
L 658.892401 370.04184 
L 694.156778 370.04184 
L 694.317071 123.61164 
L 698.965557 123.61164 
L 699.12585 370.04184 
L 734.069642 370.04184 
L 734.229935 123.61164 
L 738.878421 123.61164 
L 739.038713 370.04184 
L 773.822213 370.04184 
L 773.982506 123.61164 
L 778.630992 123.61164 
L 778.791284 370.04184 
L 813.414491 370.04184 
L 813.574784 123.61164 
L 818.22327 123.61164 
L 818.383563 370.04184 
L 854.609696 370.04184 
L 854.769989 123.61164 
L 859.418475 123.61164 
L 859.578767 370.04184 
L 894.362267 370.04184 
L 894.52256 123.61164 
L 899.171046 123.61164 
L 899.331338 370.04184 
L 933.794253 370.04184 
L 933.954545 123.61164 
L 933.954545 123.61164 
" clip-path="url(#pa21dc02e3b)" style="fill: none; stroke: #ff7f0e; stroke-width: 1.5; stroke-linecap: square"/>
   </g>
   <g id="line2d_16">
    <path d="M 929.466352 370.04184 
" clip-path="url(#pa21dc02e3b)" style="fill: none; stroke: #000000; stroke-width: 1.5; stroke-linecap: square"/>
    <defs>
     <path id="m0e97c899ad" d="M 0 1 
C 0.265203 1 0.51958 0.894634 0.707107 0.707107 
C 0.894634 0.51958 1 0.265203 1 0 
C 1 -0.265203 0.894634 -0.51958 0.707107 -0.707107 
C 0.51958 -0.894634 0.265203 -1 0 -1 
C -0.265203 -1 -0.51958 -0.894634 -0.707107 -0.707107 
C -0.894634 -0.51958 -1 -0.265203 -1 0 
C -1 0.265203 -0.894634 0.51958 -0.707107 0.707107 
C -0.51958 0.894634 -0.265203 1 0 1 
z
" style="stroke: #000000"/>
    </defs>
    <g clip-path="url(#pa21dc02e3b)">
     <use xlink:href="#m0e97c899ad" x="173.045455" y="123.61164" style="stroke: #000000"/>
     <use xlink:href="#m0e97c899ad" x="178.174819" y="370.04184" style="stroke: #000000"/>
     <use xlink:href="#m0e97c899ad" x="183.14389" y="370.04184" style="stroke: #000000"/>
     <use xlink:href="#m0e97c899ad" x="188.112961" y="123.61164" style="stroke: #000000"/>
     <use xlink:href="#m0e97c899ad" x="193.082033" y="370.04184" style="stroke: #000000"/>
     <use xlink:href="#m0e97c899ad" x="198.211397" y="370.04184" style="stroke: #000000"/>
     <use xlink:href="#m0e97c899ad" x="203.180468" y="123.61164" style="stroke: #000000"/>
     <use xlink:href="#m0e97c899ad" x="208.149539" y="370.04184" style="stroke: #000000"/>
     <use xlink:href="#m0e97c899ad" x="213.118611" y="123.61164" style="stroke: #000000"/>
     <use xlink:href="#m0e97c899ad" x="218.247975" y="370.04184" style="stroke: #000000"/>
     <use xlink:href="#m0e97c899ad" x="223.217046" y="370.04184" style="stroke: #000000"/>
     <use xlink:href="#m0e97c899ad" x="228.186118" y="123.61164" style="stroke: #000000"/>
     <use xlink:href="#m0e97c899ad" x="233.155189" y="370.04184" style="stroke: #000000"/>
     <use xlink:href="#m0e97c899ad" x="238.284553" y="370.04184" style="stroke: #000000"/>
     <use xlink:href="#m0e97c899ad" x="243.253624" y="123.61164" style="stroke: #000000"/>
     <use xlink:href="#m0e97c899ad" x="248.222696" y="370.04184" style="stroke: #000000"/>
     <use xlink:href="#m0e97c899ad" x="253.191767" y="123.61164" style="stroke: #000000"/>
     <use xlink:href="#m0e97c899ad" x="258.321131" y="370.04184" style="stroke: #000000"/>
     <use xlink:href="#m0e97c899ad" x="263.290202" y="370.04184" style="stroke: #000000"/>
     <use xlink:href="#m0e97c899ad" x="268.259274" y="123.61164" style="stroke: #000000"/>
     <use xlink:href="#m0e97c899ad" x="273.228345" y="370.04184" style="stroke: #000000"/>
     <use xlink:href="#m0e97c899ad" x="278.357709" y="370.04184" style="stroke: #000000"/>
     <use xlink:href="#m0e97c899ad" x="283.326781" y="123.61164" style="stroke: #000000"/>
     <use xlink:href="#m0e97c899ad" x="288.295852" y="370.04184" style="stroke: #000000"/>
     <use xlink:href="#m0e97c899ad" x="293.264923" y="123.61164" style="stroke: #000000"/>
     <use xlink:href="#m0e97c899ad" x="298.394287" y="370.04184" style="stroke: #000000"/>
     <use xlink:href="#m0e97c899ad" x="303.363359" y="370.04184" style="stroke: #000000"/>
     <use xlink:href="#m0e97c899ad" x="308.33243" y="123.61164" style="stroke: #000000"/>
     <use xlink:href="#m0e97c899ad" x="313.301501" y="370.04184" style="stroke: #000000"/>
     <use xlink:href="#m0e97c899ad" x="318.430865" y="370.04184" style="stroke: #000000"/>
     <use xlink:href="#m0e97c899ad" x="323.399937" y="123.61164" style="stroke: #000000"/>
     <use xlink:href="#m0e97c899ad" x="328.369008" y="370.04184" style="stroke: #000000"/>
     <use xlink:href="#m0e97c899ad" x="333.33808" y="123.61164" style="stroke: #000000"/>
     <use xlink:href="#m0e97c899ad" x="338.467444" y="370.04184" style="stroke: #000000"/>
     <use xlink:href="#m0e97c899ad" x="343.436515" y="370.04184" style="stroke: #000000"/>
     <use xlink:href="#m0e97c899ad" x="348.405586" y="123.61164" style="stroke: #000000"/>
     <use xlink:href="#m0e97c899ad" x="353.374658" y="370.04184" style="stroke: #000000"/>
     <use xlink:href="#m0e97c899ad" x="358.504022" y="370.04184" style="stroke: #000000"/>
     <use xlink:href="#m0e97c899ad" x="363.473093" y="123.61164" style="stroke: #000000"/>
     <use xlink:href="#m0e97c899ad" x="368.442164" y="370.04184" style="stroke: #000000"/>
     <use xlink:href="#m0e97c899ad" x="373.411236" y="123.61164" style="stroke: #000000"/>
     <use xlink:href="#m0e97c899ad" x="378.5406" y="370.04184" style="stroke: #000000"/>
     <use xlink:href="#m0e97c899ad" x="383.509671" y="370.04184" style="stroke: #000000"/>
     <use xlink:href="#m0e97c899ad" x="388.478743" y="123.61164" style="stroke: #000000"/>
     <use xlink:href="#m0e97c899ad" x="393.447814" y="370.04184" style="stroke: #000000"/>
     <use xlink:href="#m0e97c899ad" x="398.577178" y="370.04184" style="stroke: #000000"/>
     <use xlink:href="#m0e97c899ad" x="403.546249" y="123.61164" style="stroke: #000000"/>
     <use xlink:href="#m0e97c899ad" x="408.515321" y="370.04184" style="stroke: #000000"/>
     <use xlink:href="#m0e97c899ad" x="413.484392" y="123.61164" style="stroke: #000000"/>
     <use xlink:href="#m0e97c899ad" x="418.613756" y="370.04184" style="stroke: #000000"/>
     <use xlink:href="#m0e97c899ad" x="423.582827" y="370.04184" style="stroke: #000000"/>
     <use xlink:href="#m0e97c899ad" x="428.551899" y="123.61164" style="stroke: #000000"/>
     <use xlink:href="#m0e97c899ad" x="433.52097" y="370.04184" style="stroke: #000000"/>
     <use xlink:href="#m0e97c899ad" x="438.650334" y="370.04184" style="stroke: #000000"/>
     <use xlink:href="#m0e97c899ad" x="443.619406" y="123.61164" style="stroke: #000000"/>
     <use xlink:href="#m0e97c899ad" x="448.588477" y="370.04184" style="stroke: #000000"/>
     <use xlink:href="#m0e97c899ad" x="453.557548" y="123.61164" style="stroke: #000000"/>
     <use xlink:href="#m0e97c899ad" x="458.686912" y="370.04184" style="stroke: #000000"/>
     <use xlink:href="#m0e97c899ad" x="463.655984" y="370.04184" style="stroke: #000000"/>
     <use xlink:href="#m0e97c899ad" x="468.625055" y="123.61164" style="stroke: #000000"/>
     <use xlink:href="#m0e97c899ad" x="473.594126" y="370.04184" style="stroke: #000000"/>
     <use xlink:href="#m0e97c899ad" x="478.72349" y="370.04184" style="stroke: #000000"/>
     <use xlink:href="#m0e97c899ad" x="483.692562" y="123.61164" style="stroke: #000000"/>
     <use xlink:href="#m0e97c899ad" x="488.661633" y="370.04184" style="stroke: #000000"/>
     <use xlink:href="#m0e97c899ad" x="493.630705" y="123.61164" style="stroke: #000000"/>
     <use xlink:href="#m0e97c899ad" x="498.760069" y="370.04184" style="stroke: #000000"/>
     <use xlink:href="#m0e97c899ad" x="503.72914" y="370.04184" style="stroke: #000000"/>
     <use xlink:href="#m0e97c899ad" x="508.698211" y="123.61164" style="stroke: #000000"/>
     <use xlink:href="#m0e97c899ad" x="513.667283" y="370.04184" style="stroke: #000000"/>
     <use xlink:href="#m0e97c899ad" x="518.796647" y="370.04184" style="stroke: #000000"/>
     <use xlink:href="#m0e97c899ad" x="523.765718" y="123.61164" style="stroke: #000000"/>
     <use xlink:href="#m0e97c899ad" x="528.734789" y="370.04184" style="stroke: #000000"/>
     <use xlink:href="#m0e97c899ad" x="533.703861" y="123.61164" style="stroke: #000000"/>
     <use xlink:href="#m0e97c899ad" x="538.833225" y="370.04184" style="stroke: #000000"/>
     <use xlink:href="#m0e97c899ad" x="543.802296" y="370.04184" style="stroke: #000000"/>
     <use xlink:href="#m0e97c899ad" x="548.771368" y="123.61164" style="stroke: #000000"/>
     <use xlink:href="#m0e97c899ad" x="553.740439" y="370.04184" style="stroke: #000000"/>
     <use xlink:href="#m0e97c899ad" x="558.869803" y="370.04184" style="stroke: #000000"/>
     <use xlink:href="#m0e97c899ad" x="563.838874" y="123.61164" style="stroke: #000000"/>
     <use xlink:href="#m0e97c899ad" x="568.807946" y="370.04184" style="stroke: #000000"/>
     <use xlink:href="#m0e97c899ad" x="573.777017" y="123.61164" style="stroke: #000000"/>
     <use xlink:href="#m0e97c899ad" x="578.906381" y="370.04184" style="stroke: #000000"/>
     <use xlink:href="#m0e97c899ad" x="583.875452" y="370.04184" style="stroke: #000000"/>
     <use xlink:href="#m0e97c899ad" x="588.844524" y="123.61164" style="stroke: #000000"/>
     <use xlink:href="#m0e97c899ad" x="593.813595" y="370.04184" style="stroke: #000000"/>
     <use xlink:href="#m0e97c899ad" x="598.942959" y="370.04184" style="stroke: #000000"/>
     <use xlink:href="#m0e97c899ad" x="603.912031" y="123.61164" style="stroke: #000000"/>
     <use xlink:href="#m0e97c899ad" x="608.881102" y="370.04184" style="stroke: #000000"/>
     <use xlink:href="#m0e97c899ad" x="613.850173" y="123.61164" style="stroke: #000000"/>
     <use xlink:href="#m0e97c899ad" x="618.979537" y="370.04184" style="stroke: #000000"/>
     <use xlink:href="#m0e97c899ad" x="623.948609" y="370.04184" style="stroke: #000000"/>
     <use xlink:href="#m0e97c899ad" x="628.91768" y="123.61164" style="stroke: #000000"/>
     <use xlink:href="#m0e97c899ad" x="633.886751" y="370.04184" style="stroke: #000000"/>
     <use xlink:href="#m0e97c899ad" x="639.016115" y="370.04184" style="stroke: #000000"/>
     <use xlink:href="#m0e97c899ad" x="643.985187" y="123.61164" style="stroke: #000000"/>
     <use xlink:href="#m0e97c899ad" x="648.954258" y="370.04184" style="stroke: #000000"/>
     <use xlink:href="#m0e97c899ad" x="653.92333" y="123.61164" style="stroke: #000000"/>
     <use xlink:href="#m0e97c899ad" x="659.052694" y="370.04184" style="stroke: #000000"/>
     <use xlink:href="#m0e97c899ad" x="664.021765" y="370.04184" style="stroke: #000000"/>
     <use xlink:href="#m0e97c899ad" x="668.990836" y="123.61164" style="stroke: #000000"/>
     <use xlink:href="#m0e97c899ad" x="673.959908" y="370.04184" style="stroke: #000000"/>
     <use xlink:href="#m0e97c899ad" x="679.089272" y="370.04184" style="stroke: #000000"/>
     <use xlink:href="#m0e97c899ad" x="684.058343" y="123.61164" style="stroke: #000000"/>
     <use xlink:href="#m0e97c899ad" x="689.027414" y="370.04184" style="stroke: #000000"/>
     <use xlink:href="#m0e97c899ad" x="693.996486" y="123.61164" style="stroke: #000000"/>
     <use xlink:href="#m0e97c899ad" x="699.12585" y="370.04184" style="stroke: #000000"/>
     <use xlink:href="#m0e97c899ad" x="704.094921" y="370.04184" style="stroke: #000000"/>
     <use xlink:href="#m0e97c899ad" x="709.063993" y="123.61164" style="stroke: #000000"/>
     <use xlink:href="#m0e97c899ad" x="714.033064" y="370.04184" style="stroke: #000000"/>
     <use xlink:href="#m0e97c899ad" x="719.162428" y="370.04184" style="stroke: #000000"/>
     <use xlink:href="#m0e97c899ad" x="724.131499" y="123.61164" style="stroke: #000000"/>
     <use xlink:href="#m0e97c899ad" x="729.100571" y="370.04184" style="stroke: #000000"/>
     <use xlink:href="#m0e97c899ad" x="734.069642" y="123.61164" style="stroke: #000000"/>
     <use xlink:href="#m0e97c899ad" x="739.199006" y="370.04184" style="stroke: #000000"/>
     <use xlink:href="#m0e97c899ad" x="744.168077" y="370.04184" style="stroke: #000000"/>
     <use xlink:href="#m0e97c899ad" x="749.137149" y="123.61164" style="stroke: #000000"/>
     <use xlink:href="#m0e97c899ad" x="754.10622" y="370.04184" style="stroke: #000000"/>
     <use xlink:href="#m0e97c899ad" x="759.235584" y="370.04184" style="stroke: #000000"/>
     <use xlink:href="#m0e97c899ad" x="764.204656" y="123.61164" style="stroke: #000000"/>
     <use xlink:href="#m0e97c899ad" x="769.173727" y="370.04184" style="stroke: #000000"/>
     <use xlink:href="#m0e97c899ad" x="774.142798" y="123.61164" style="stroke: #000000"/>
     <use xlink:href="#m0e97c899ad" x="779.272162" y="370.04184" style="stroke: #000000"/>
     <use xlink:href="#m0e97c899ad" x="784.241234" y="370.04184" style="stroke: #000000"/>
     <use xlink:href="#m0e97c899ad" x="789.210305" y="123.61164" style="stroke: #000000"/>
     <use xlink:href="#m0e97c899ad" x="794.179376" y="370.04184" style="stroke: #000000"/>
     <use xlink:href="#m0e97c899ad" x="799.30874" y="370.04184" style="stroke: #000000"/>
     <use xlink:href="#m0e97c899ad" x="804.277812" y="123.61164" style="stroke: #000000"/>
     <use xlink:href="#m0e97c899ad" x="809.246883" y="370.04184" style="stroke: #000000"/>
     <use xlink:href="#m0e97c899ad" x="814.215955" y="123.61164" style="stroke: #000000"/>
     <use xlink:href="#m0e97c899ad" x="819.345319" y="370.04184" style="stroke: #000000"/>
     <use xlink:href="#m0e97c899ad" x="824.31439" y="370.04184" style="stroke: #000000"/>
     <use xlink:href="#m0e97c899ad" x="829.283461" y="123.61164" style="stroke: #000000"/>
     <use xlink:href="#m0e97c899ad" x="834.252533" y="370.04184" style="stroke: #000000"/>
     <use xlink:href="#m0e97c899ad" x="839.381897" y="370.04184" style="stroke: #000000"/>
     <use xlink:href="#m0e97c899ad" x="844.350968" y="123.61164" style="stroke: #000000"/>
     <use xlink:href="#m0e97c899ad" x="849.320039" y="370.04184" style="stroke: #000000"/>
     <use xlink:href="#m0e97c899ad" x="854.289111" y="123.61164" style="stroke: #000000"/>
     <use xlink:href="#m0e97c899ad" x="859.418475" y="370.04184" style="stroke: #000000"/>
     <use xlink:href="#m0e97c899ad" x="864.387546" y="370.04184" style="stroke: #000000"/>
     <use xlink:href="#m0e97c899ad" x="869.356618" y="123.61164" style="stroke: #000000"/>
     <use xlink:href="#m0e97c899ad" x="874.325689" y="370.04184" style="stroke: #000000"/>
     <use xlink:href="#m0e97c899ad" x="879.455053" y="370.04184" style="stroke: #000000"/>
     <use xlink:href="#m0e97c899ad" x="884.424124" y="123.61164" style="stroke: #000000"/>
     <use xlink:href="#m0e97c899ad" x="889.393196" y="370.04184" style="stroke: #000000"/>
     <use xlink:href="#m0e97c899ad" x="894.362267" y="123.61164" style="stroke: #000000"/>
     <use xlink:href="#m0e97c899ad" x="899.491631" y="370.04184" style="stroke: #000000"/>
     <use xlink:href="#m0e97c899ad" x="904.460702" y="370.04184" style="stroke: #000000"/>
     <use xlink:href="#m0e97c899ad" x="909.429774" y="123.61164" style="stroke: #000000"/>
     <use xlink:href="#m0e97c899ad" x="914.398845" y="370.04184" style="stroke: #000000"/>
     <use xlink:href="#m0e97c899ad" x="919.528209" y="370.04184" style="stroke: #000000"/>
     <use xlink:href="#m0e97c899ad" x="924.497281" y="123.61164" style="stroke: #000000"/>
     <use xlink:href="#m0e97c899ad" x="929.466352" y="370.04184" style="stroke: #000000"/>
    </g>
   </g>
   <g id="patch_3">
    <path d="M 135 448.56 
L 135 60.48 
" style="fill: none; stroke: #000000; stroke-width: 0.8; stroke-linejoin: miter; stroke-linecap: square"/>
   </g>
   <g id="patch_4">
    <path d="M 972 448.56 
L 972 60.48 
" style="fill: none; stroke: #000000; stroke-width: 0.8; stroke-linejoin: miter; stroke-linecap: square"/>
   </g>
   <g id="patch_5">
    <path d="M 135 448.56 
L 972 448.56 
" style="fill: none; stroke: #000000; stroke-width: 0.8; stroke-linejoin: miter; stroke-linecap: square"/>
   </g>
   <g id="patch_6">
    <path d="M 135 60.48 
L 972 60.48 
" style="fill: none; stroke: #000000; stroke-width: 0.8; stroke-linejoin: miter; stroke-linecap: square"/>
   </g>
   <g id="legend_1">
    <g id="patch_7">
     <path d="M 142 113.070625 
L 211.084375 113.070625 
Q 213.084375 113.070625 213.084375 111.070625 
L 213.084375 67.48 
Q 213.084375 65.48 211.084375 65.48 
L 142 65.48 
Q 140 65.48 140 67.48 
L 140 111.070625 
Q 140 113.070625 142 113.070625 
z
" style="fill: #ffffff; opacity: 0.8; stroke: #cccccc; stroke-linejoin: miter"/>
    </g>
    <g id="line2d_17">
     <path d="M 144 73.578438 
L 154 73.578438 
L 164 73.578438 
" style="fill: none; stroke: #1f77b4; stroke-width: 1.5; stroke-linecap: square"/>
    </g>
    <g id="text_15">
     <!-- nw_0 -->
     <g transform="translate(172 77.078438) scale(0.1 -0.1)">
      <defs>
       <path id="DejaVuSans-6e" d="M 3513 2113 
L 3513 0 
L 2938 0 
L 2938 2094 
Q 2938 2591 2744 2837 
Q 2550 3084 2163 3084 
Q 1697 3084 1428 2787 
Q 1159 2491 1159 1978 
L 1159 0 
L 581 0 
L 581 3500 
L 1159 3500 
L 1159 2956 
Q 1366 3272 1645 3428 
Q 1925 3584 2291 3584 
Q 2894 3584 3203 3211 
Q 3513 2838 3513 2113 
z
" transform="scale(0.015625)"/>
       <path id="DejaVuSans-77" d="M 269 3500 
L 844 3500 
L 1563 769 
L 2278 3500 
L 2956 3500 
L 3675 769 
L 4391 3500 
L 4966 3500 
L 4050 0 
L 3372 0 
L 2619 2869 
L 1863 0 
L 1184 0 
L 269 3500 
z
" transform="scale(0.015625)"/>
       <path id="DejaVuSans-5f" d="M 3263 -1063 
L 3263 -1509 
L -63 -1509 
L -63 -1063 
L 3263 -1063 
z
" transform="scale(0.015625)"/>
      </defs>
      <use xlink:href="#DejaVuSans-6e"/>
      <use xlink:href="#DejaVuSans-77" x="63.378906"/>
      <use xlink:href="#DejaVuSans-5f" x="145.166016"/>
      <use xlink:href="#DejaVuSans-30" x="195.166016"/>
     </g>
    </g>
    <g id="line2d_18">
     <path d="M 144 88.534688 
L 154 88.534688 
L 164 88.534688 
" style="fill: none; stroke: #ff7f0e; stroke-width: 1.5; stroke-linecap: square"/>
    </g>
    <g id="text_16">
     <!-- input_0 -->
     <g transform="translate(172 92.034688) scale(0.1 -0.1)">
      <defs>
       <path id="DejaVuSans-69" d="M 603 3500 
L 1178 3500 
L 1178 0 
L 603 0 
L 603 3500 
z
M 603 4863 
L 1178 4863 
L 1178 4134 
L 603 4134 
L 603 4863 
z
" transform="scale(0.015625)"/>
       <path id="DejaVuSans-70" d="M 1159 525 
L 1159 -1331 
L 581 -1331 
L 581 3500 
L 1159 3500 
L 1159 2969 
Q 1341 3281 1617 3432 
Q 1894 3584 2278 3584 
Q 2916 3584 3314 3078 
Q 3713 2572 3713 1747 
Q 3713 922 3314 415 
Q 2916 -91 2278 -91 
Q 1894 -91 1617 61 
Q 1341 213 1159 525 
z
M 3116 1747 
Q 3116 2381 2855 2742 
Q 2594 3103 2138 3103 
Q 1681 3103 1420 2742 
Q 1159 2381 1159 1747 
Q 1159 1113 1420 752 
Q 1681 391 2138 391 
Q 2594 391 2855 752 
Q 3116 1113 3116 1747 
z
" transform="scale(0.015625)"/>
       <path id="DejaVuSans-75" d="M 544 1381 
L 544 3500 
L 1119 3500 
L 1119 1403 
Q 1119 906 1312 657 
Q 1506 409 1894 409 
Q 2359 409 2629 706 
Q 2900 1003 2900 1516 
L 2900 3500 
L 3475 3500 
L 3475 0 
L 2900 0 
L 2900 538 
Q 2691 219 2414 64 
Q 2138 -91 1772 -91 
Q 1169 -91 856 284 
Q 544 659 544 1381 
z
M 1991 3584 
L 1991 3584 
z
" transform="scale(0.015625)"/>
      </defs>
      <use xlink:href="#DejaVuSans-69"/>
      <use xlink:href="#DejaVuSans-6e" x="27.783203"/>
      <use xlink:href="#DejaVuSans-70" x="91.162109"/>
      <use xlink:href="#DejaVuSans-75" x="154.638672"/>
      <use xlink:href="#DejaVuSans-74" x="218.017578"/>
      <use xlink:href="#DejaVuSans-5f" x="257.226562"/>
      <use xlink:href="#DejaVuSans-30" x="307.226562"/>
     </g>
    </g>
    <g id="line2d_19">
     <path d="M 144 103.490938 
L 154 103.490938 
L 164 103.490938 
" style="fill: none; stroke: #000000; stroke-width: 1.5; stroke-linecap: square"/>
     <g>
      <use xlink:href="#m0e97c899ad" x="154" y="103.490938" style="stroke: #000000"/>
     </g>
    </g>
    <g id="text_17">
     <!-- target -->
     <g transform="translate(172 106.990938) scale(0.1 -0.1)">
      <defs>
       <path id="DejaVuSans-61" d="M 2194 1759 
Q 1497 1759 1228 1600 
Q 959 1441 959 1056 
Q 959 750 1161 570 
Q 1363 391 1709 391 
Q 2188 391 2477 730 
Q 2766 1069 2766 1631 
L 2766 1759 
L 2194 1759 
z
M 3341 1997 
L 3341 0 
L 2766 0 
L 2766 531 
Q 2569 213 2275 61 
Q 1981 -91 1556 -91 
Q 1019 -91 701 211 
Q 384 513 384 1019 
Q 384 1609 779 1909 
Q 1175 2209 1959 2209 
L 2766 2209 
L 2766 2266 
Q 2766 2663 2505 2880 
Q 2244 3097 1772 3097 
Q 1472 3097 1187 3025 
Q 903 2953 641 2809 
L 641 3341 
Q 956 3463 1253 3523 
Q 1550 3584 1831 3584 
Q 2591 3584 2966 3190 
Q 3341 2797 3341 1997 
z
" transform="scale(0.015625)"/>
       <path id="DejaVuSans-72" d="M 2631 2963 
Q 2534 3019 2420 3045 
Q 2306 3072 2169 3072 
Q 1681 3072 1420 2755 
Q 1159 2438 1159 1844 
L 1159 0 
L 581 0 
L 581 3500 
L 1159 3500 
L 1159 2956 
Q 1341 3275 1631 3429 
Q 1922 3584 2338 3584 
Q 2397 3584 2469 3576 
Q 2541 3569 2628 3553 
L 2631 2963 
z
" transform="scale(0.015625)"/>
       <path id="DejaVuSans-67" d="M 2906 1791 
Q 2906 2416 2648 2759 
Q 2391 3103 1925 3103 
Q 1463 3103 1205 2759 
Q 947 2416 947 1791 
Q 947 1169 1205 825 
Q 1463 481 1925 481 
Q 2391 481 2648 825 
Q 2906 1169 2906 1791 
z
M 3481 434 
Q 3481 -459 3084 -895 
Q 2688 -1331 1869 -1331 
Q 1566 -1331 1297 -1286 
Q 1028 -1241 775 -1147 
L 775 -588 
Q 1028 -725 1275 -790 
Q 1522 -856 1778 -856 
Q 2344 -856 2625 -561 
Q 2906 -266 2906 331 
L 2906 616 
Q 2728 306 2450 153 
Q 2172 0 1784 0 
Q 1141 0 747 490 
Q 353 981 353 1791 
Q 353 2603 747 3093 
Q 1141 3584 1784 3584 
Q 2172 3584 2450 3431 
Q 2728 3278 2906 2969 
L 2906 3500 
L 3481 3500 
L 3481 434 
z
" transform="scale(0.015625)"/>
       <path id="DejaVuSans-65" d="M 3597 1894 
L 3597 1613 
L 953 1613 
Q 991 1019 1311 708 
Q 1631 397 2203 397 
Q 2534 397 2845 478 
Q 3156 559 3463 722 
L 3463 178 
Q 3153 47 2828 -22 
Q 2503 -91 2169 -91 
Q 1331 -91 842 396 
Q 353 884 353 1716 
Q 353 2575 817 3079 
Q 1281 3584 2069 3584 
Q 2775 3584 3186 3129 
Q 3597 2675 3597 1894 
z
M 3022 2063 
Q 3016 2534 2758 2815 
Q 2500 3097 2075 3097 
Q 1594 3097 1305 2825 
Q 1016 2553 972 2059 
L 3022 2063 
z
" transform="scale(0.015625)"/>
      </defs>
      <use xlink:href="#DejaVuSans-74"/>
      <use xlink:href="#DejaVuSans-61" x="39.208984"/>
      <use xlink:href="#DejaVuSans-72" x="100.488281"/>
      <use xlink:href="#DejaVuSans-67" x="139.851562"/>
      <use xlink:href="#DejaVuSans-65" x="203.328125"/>
      <use xlink:href="#DejaVuSans-74" x="264.851562"/>
     </g>
    </g>
   </g>
  </g>
 </g>
 <defs>
  <clipPath id="pa21dc02e3b">
   <rect x="135" y="60.48" width="837" height="388.08"/>
  </clipPath>
 </defs>
</svg>
