<?xml version="1.0" encoding="utf-8" standalone="no"?>
<!DOCTYPE svg PUBLIC "-//W3C//DTD SVG 1.1//EN"
  "http://www.w3.org/Graphics/SVG/1.1/DTD/svg11.dtd">
<svg xmlns:xlink="http://www.w3.org/1999/xlink" width="1080pt" height="504pt" viewBox="0 0 1080 504" xmlns="http://www.w3.org/2000/svg" version="1.1">
 <metadata>
  <rdf:RDF xmlns:dc="http://purl.org/dc/elements/1.1/" xmlns:cc="http://creativecommons.org/ns#" xmlns:rdf="http://www.w3.org/1999/02/22-rdf-syntax-ns#">
   <cc:Work>
    <dc:type rdf:resource="http://purl.org/dc/dcmitype/StillImage"/>
    <dc:date>2024-05-09T11:11:23.475550</dc:date>
    <dc:format>image/svg+xml</dc:format>
    <dc:creator>
     <cc:Agent>
      <dc:title>Matplotlib v3.7.1, https://matplotlib.org/</dc:title>
     </cc:Agent>
    </dc:creator>
   </cc:Work>
  </rdf:RDF>
 </metadata>
 <defs>
  <style type="text/css">*{stroke-linejoin: round; stroke-linecap: butt}</style>
 </defs>
 <g id="figure_1">
  <g id="patch_1">
   <path d="M 0 504 
L 1080 504 
L 1080 0 
L 0 0 
z
" style="fill: #ffffff"/>
  </g>
  <g id="axes_1">
   <g id="patch_2">
    <path d="M 135 448.56 
L 972 448.56 
L 972 60.48 
L 135 60.48 
z
" style="fill: #ffffff"/>
   </g>
   <g id="matplotlib.axis_1">
    <g id="xtick_1">
     <g id="line2d_1">
      <defs>
       <path id="md67009407f" d="M 0 0 
L 0 3.5 
" style="stroke: #000000; stroke-width: 0.8"/>
      </defs>
      <g>
       <use xlink:href="#md67009407f" x="173.045455" y="448.56" style="stroke: #000000; stroke-width: 0.8"/>
      </g>
     </g>
     <g id="text_1">
      <!-- 0 -->
      <g transform="translate(169.864205 463.158437) scale(0.1 -0.1)">
       <defs>
        <path id="DejaVuSans-30" d="M 2034 4250 
Q 1547 4250 1301 3770 
Q 1056 3291 1056 2328 
Q 1056 1369 1301 889 
Q 1547 409 2034 409 
Q 2525 409 2770 889 
Q 3016 1369 3016 2328 
Q 3016 3291 2770 3770 
Q 2525 4250 2034 4250 
z
M 2034 4750 
Q 2819 4750 3233 4129 
Q 3647 3509 3647 2328 
Q 3647 1150 3233 529 
Q 2819 -91 2034 -91 
Q 1250 -91 836 529 
Q 422 1150 422 2328 
Q 422 3509 836 4129 
Q 1250 4750 2034 4750 
z
" transform="scale(0.015625)"/>
       </defs>
       <use xlink:href="#DejaVuSans-30"/>
      </g>
     </g>
    </g>
    <g id="xtick_2">
     <g id="line2d_2">
      <g>
       <use xlink:href="#md67009407f" x="333.33808" y="448.56" style="stroke: #000000; stroke-width: 0.8"/>
      </g>
     </g>
     <g id="text_2">
      <!-- 1000 -->
      <g transform="translate(320.61308 463.158437) scale(0.1 -0.1)">
       <defs>
        <path id="DejaVuSans-31" d="M 794 531 
L 1825 531 
L 1825 4091 
L 703 3866 
L 703 4441 
L 1819 4666 
L 2450 4666 
L 2450 531 
L 3481 531 
L 3481 0 
L 794 0 
L 794 531 
z
" transform="scale(0.015625)"/>
       </defs>
       <use xlink:href="#DejaVuSans-31"/>
       <use xlink:href="#DejaVuSans-30" x="63.623047"/>
       <use xlink:href="#DejaVuSans-30" x="127.246094"/>
       <use xlink:href="#DejaVuSans-30" x="190.869141"/>
      </g>
     </g>
    </g>
    <g id="xtick_3">
     <g id="line2d_3">
      <g>
       <use xlink:href="#md67009407f" x="493.630705" y="448.56" style="stroke: #000000; stroke-width: 0.8"/>
      </g>
     </g>
     <g id="text_3">
      <!-- 2000 -->
      <g transform="translate(480.905705 463.158437) scale(0.1 -0.1)">
       <defs>
        <path id="DejaVuSans-32" d="M 1228 531 
L 3431 531 
L 3431 0 
L 469 0 
L 469 531 
Q 828 903 1448 1529 
Q 2069 2156 2228 2338 
Q 2531 2678 2651 2914 
Q 2772 3150 2772 3378 
Q 2772 3750 2511 3984 
Q 2250 4219 1831 4219 
Q 1534 4219 1204 4116 
Q 875 4013 500 3803 
L 500 4441 
Q 881 4594 1212 4672 
Q 1544 4750 1819 4750 
Q 2544 4750 2975 4387 
Q 3406 4025 3406 3419 
Q 3406 3131 3298 2873 
Q 3191 2616 2906 2266 
Q 2828 2175 2409 1742 
Q 1991 1309 1228 531 
z
" transform="scale(0.015625)"/>
       </defs>
       <use xlink:href="#DejaVuSans-32"/>
       <use xlink:href="#DejaVuSans-30" x="63.623047"/>
       <use xlink:href="#DejaVuSans-30" x="127.246094"/>
       <use xlink:href="#DejaVuSans-30" x="190.869141"/>
      </g>
     </g>
    </g>
    <g id="xtick_4">
     <g id="line2d_4">
      <g>
       <use xlink:href="#md67009407f" x="653.92333" y="448.56" style="stroke: #000000; stroke-width: 0.8"/>
      </g>
     </g>
     <g id="text_4">
      <!-- 3000 -->
      <g transform="translate(641.19833 463.158437) scale(0.1 -0.1)">
       <defs>
        <path id="DejaVuSans-33" d="M 2597 2516 
Q 3050 2419 3304 2112 
Q 3559 1806 3559 1356 
Q 3559 666 3084 287 
Q 2609 -91 1734 -91 
Q 1441 -91 1130 -33 
Q 819 25 488 141 
L 488 750 
Q 750 597 1062 519 
Q 1375 441 1716 441 
Q 2309 441 2620 675 
Q 2931 909 2931 1356 
Q 2931 1769 2642 2001 
Q 2353 2234 1838 2234 
L 1294 2234 
L 1294 2753 
L 1863 2753 
Q 2328 2753 2575 2939 
Q 2822 3125 2822 3475 
Q 2822 3834 2567 4026 
Q 2313 4219 1838 4219 
Q 1578 4219 1281 4162 
Q 984 4106 628 3988 
L 628 4550 
Q 988 4650 1302 4700 
Q 1616 4750 1894 4750 
Q 2613 4750 3031 4423 
Q 3450 4097 3450 3541 
Q 3450 3153 3228 2886 
Q 3006 2619 2597 2516 
z
" transform="scale(0.015625)"/>
       </defs>
       <use xlink:href="#DejaVuSans-33"/>
       <use xlink:href="#DejaVuSans-30" x="63.623047"/>
       <use xlink:href="#DejaVuSans-30" x="127.246094"/>
       <use xlink:href="#DejaVuSans-30" x="190.869141"/>
      </g>
     </g>
    </g>
    <g id="xtick_5">
     <g id="line2d_5">
      <g>
       <use xlink:href="#md67009407f" x="814.215955" y="448.56" style="stroke: #000000; stroke-width: 0.8"/>
      </g>
     </g>
     <g id="text_5">
      <!-- 4000 -->
      <g transform="translate(801.490955 463.158437) scale(0.1 -0.1)">
       <defs>
        <path id="DejaVuSans-34" d="M 2419 4116 
L 825 1625 
L 2419 1625 
L 2419 4116 
z
M 2253 4666 
L 3047 4666 
L 3047 1625 
L 3713 1625 
L 3713 1100 
L 3047 1100 
L 3047 0 
L 2419 0 
L 2419 1100 
L 313 1100 
L 313 1709 
L 2253 4666 
z
" transform="scale(0.015625)"/>
       </defs>
       <use xlink:href="#DejaVuSans-34"/>
       <use xlink:href="#DejaVuSans-30" x="63.623047"/>
       <use xlink:href="#DejaVuSans-30" x="127.246094"/>
       <use xlink:href="#DejaVuSans-30" x="190.869141"/>
      </g>
     </g>
    </g>
    <g id="text_6">
     <!-- t -->
     <g transform="translate(551.539844 476.836563) scale(0.1 -0.1)">
      <defs>
       <path id="DejaVuSans-74" d="M 1172 4494 
L 1172 3500 
L 2356 3500 
L 2356 3053 
L 1172 3053 
L 1172 1153 
Q 1172 725 1289 603 
Q 1406 481 1766 481 
L 2356 481 
L 2356 0 
L 1766 0 
Q 1100 0 847 248 
Q 594 497 594 1153 
L 594 3053 
L 172 3053 
L 172 3500 
L 594 3500 
L 594 4494 
L 1172 4494 
z
" transform="scale(0.015625)"/>
      </defs>
      <use xlink:href="#DejaVuSans-74"/>
     </g>
    </g>
   </g>
   <g id="matplotlib.axis_2">
    <g id="ytick_1">
     <g id="line2d_6">
      <defs>
       <path id="m7e0f38b41a" d="M 0 0 
L -3.5 0 
" style="stroke: #000000; stroke-width: 0.8"/>
      </defs>
      <g>
       <use xlink:href="#m7e0f38b41a" x="135" y="368.962288" style="stroke: #000000; stroke-width: 0.8"/>
      </g>
     </g>
     <g id="text_7">
      <!-- −0.5 -->
      <g transform="translate(103.717187 372.761507) scale(0.1 -0.1)">
       <defs>
        <path id="DejaVuSans-2212" d="M 678 2272 
L 4684 2272 
L 4684 1741 
L 678 1741 
L 678 2272 
z
" transform="scale(0.015625)"/>
        <path id="DejaVuSans-2e" d="M 684 794 
L 1344 794 
L 1344 0 
L 684 0 
L 684 794 
z
" transform="scale(0.015625)"/>
        <path id="DejaVuSans-35" d="M 691 4666 
L 3169 4666 
L 3169 4134 
L 1269 4134 
L 1269 2991 
Q 1406 3038 1543 3061 
Q 1681 3084 1819 3084 
Q 2600 3084 3056 2656 
Q 3513 2228 3513 1497 
Q 3513 744 3044 326 
Q 2575 -91 1722 -91 
Q 1428 -91 1123 -41 
Q 819 9 494 109 
L 494 744 
Q 775 591 1075 516 
Q 1375 441 1709 441 
Q 2250 441 2565 725 
Q 2881 1009 2881 1497 
Q 2881 1984 2565 2268 
Q 2250 2553 1709 2553 
Q 1456 2553 1204 2497 
Q 953 2441 691 2322 
L 691 4666 
z
" transform="scale(0.015625)"/>
       </defs>
       <use xlink:href="#DejaVuSans-2212"/>
       <use xlink:href="#DejaVuSans-30" x="83.789062"/>
       <use xlink:href="#DejaVuSans-2e" x="147.412109"/>
       <use xlink:href="#DejaVuSans-35" x="179.199219"/>
      </g>
     </g>
    </g>
    <g id="ytick_2">
     <g id="line2d_7">
      <g>
       <use xlink:href="#m7e0f38b41a" x="135" y="286.073352" style="stroke: #000000; stroke-width: 0.8"/>
      </g>
     </g>
     <g id="text_8">
      <!-- 0.0 -->
      <g transform="translate(112.096875 289.872571) scale(0.1 -0.1)">
       <use xlink:href="#DejaVuSans-30"/>
       <use xlink:href="#DejaVuSans-2e" x="63.623047"/>
       <use xlink:href="#DejaVuSans-30" x="95.410156"/>
      </g>
     </g>
    </g>
    <g id="ytick_3">
     <g id="line2d_8">
      <g>
       <use xlink:href="#m7e0f38b41a" x="135" y="203.184416" style="stroke: #000000; stroke-width: 0.8"/>
      </g>
     </g>
     <g id="text_9">
      <!-- 0.5 -->
      <g transform="translate(112.096875 206.983635) scale(0.1 -0.1)">
       <use xlink:href="#DejaVuSans-30"/>
       <use xlink:href="#DejaVuSans-2e" x="63.623047"/>
       <use xlink:href="#DejaVuSans-35" x="95.410156"/>
      </g>
     </g>
    </g>
    <g id="ytick_4">
     <g id="line2d_9">
      <g>
       <use xlink:href="#m7e0f38b41a" x="135" y="120.295481" style="stroke: #000000; stroke-width: 0.8"/>
      </g>
     </g>
     <g id="text_10">
      <!-- 1.0 -->
      <g transform="translate(112.096875 124.094699) scale(0.1 -0.1)">
       <use xlink:href="#DejaVuSans-31"/>
       <use xlink:href="#DejaVuSans-2e" x="63.623047"/>
       <use xlink:href="#DejaVuSans-30" x="95.410156"/>
      </g>
     </g>
    </g>
   </g>
   <g id="line2d_10">
    <path d="M 173.045455 170.553743 
L 173.36604 83.343014 
L 173.526332 78.143168 
L 173.686625 84.181289 
L 174.488088 133.092233 
L 174.808673 139.892481 
L 175.129259 141.775174 
L 175.610137 142.493264 
L 175.930722 144.339547 
L 176.251307 148.164656 
L 176.732185 157.679874 
L 177.373355 175.711843 
L 177.693941 185.958082 
L 178.014526 385.030135 
L 178.335111 430.918853 
L 178.495404 426.67864 
L 178.815989 395.530628 
L 179.617452 307.552888 
L 180.09833 280.758657 
L 180.418915 273.540282 
L 180.579208 272.358354 
L 180.739501 272.406085 
L 181.060086 275.020561 
L 182.021842 285.91678 
L 182.342427 286.857505 
L 182.502719 286.653694 
L 182.823305 285.070767 
L 183.304183 280.573756 
L 184.586524 264.607495 
L 185.548279 250.641648 
L 186.349742 235.149163 
L 188.273254 193.870557 
L 188.754132 188.386499 
L 189.074717 186.793467 
L 189.23501 186.662868 
L 189.395302 186.983422 
L 189.715888 188.964483 
L 190.036473 192.654385 
L 190.517351 201.018966 
L 191.318814 220.370259 
L 193.242325 269.508507 
L 193.883496 280.581067 
L 194.524666 287.916565 
L 195.005544 291.159196 
L 195.486422 292.789489 
L 195.807007 293.159445 
L 196.127593 293.086781 
L 196.448178 292.6801 
L 196.929056 291.660298 
L 198.852567 287.015886 
L 199.493738 286.122823 
L 200.134908 285.623258 
L 200.776079 285.429313 
L 201.577542 285.458228 
L 203.501053 285.892737 
L 205.264272 286.141116 
L 207.348076 286.174244 
L 213.278903 286.050846 
L 213.599489 109.440145 
L 213.759781 83.327649 
L 213.920074 78.129763 
L 214.080367 84.169689 
L 214.88183 133.08773 
L 215.202415 139.889955 
L 215.523 141.774147 
L 216.003878 142.493713 
L 216.324463 144.340575 
L 216.645049 148.166027 
L 217.125926 157.681449 
L 217.767097 175.713343 
L 218.087682 185.959462 
L 218.408267 385.031403 
L 218.728853 430.919983 
L 218.889145 426.6797 
L 219.209731 395.531547 
L 220.011194 307.553467 
L 220.492072 280.75906 
L 220.812657 273.540585 
L 220.972949 272.358613 
L 221.133242 272.406303 
L 221.453827 275.020708 
L 222.415583 285.916793 
L 222.736168 286.857494 
L 222.896461 286.653673 
L 223.217046 285.070731 
L 223.697924 280.573708 
L 224.980265 264.607453 
L 225.942021 250.641628 
L 226.743484 235.149164 
L 228.666995 193.870589 
L 229.147873 188.386533 
L 229.468459 186.793501 
L 229.628751 186.662901 
L 229.789044 186.983455 
L 230.109629 188.964514 
L 230.430214 192.654414 
L 230.911092 201.018991 
L 231.712555 220.370275 
L 233.636067 269.508508 
L 234.277237 280.581066 
L 234.918408 287.916562 
L 235.399286 291.159193 
L 235.880164 292.789486 
L 236.200749 293.159442 
L 236.521334 293.086779 
L 236.841919 292.680098 
L 237.322797 291.660297 
L 239.246309 287.015886 
L 239.887479 286.122823 
L 240.52865 285.623259 
L 241.16982 285.429313 
L 241.971283 285.458228 
L 243.894795 285.892737 
L 245.658014 286.141116 
L 247.741818 286.174244 
L 253.99323 286.054291 
L 254.313815 109.443249 
L 254.474108 83.330555 
L 254.634401 78.132472 
L 254.794693 84.172205 
L 255.596156 133.089349 
L 255.916742 139.89125 
L 256.237327 141.775149 
L 256.718205 142.494348 
L 257.03879 144.341018 
L 257.359375 148.166316 
L 257.840253 157.681573 
L 258.481424 175.713339 
L 258.802009 185.959425 
L 259.122594 385.031346 
L 259.443179 430.919919 
L 259.603472 426.679637 
L 259.924057 395.53149 
L 260.72552 307.553443 
L 261.206398 280.759059 
L 261.526984 273.540598 
L 261.687276 272.358632 
L 261.847569 272.406327 
L 262.168154 275.020743 
L 263.12991 285.916842 
L 263.450495 286.857544 
L 263.610788 286.653723 
L 263.931373 285.070781 
L 264.412251 280.573756 
L 265.694592 264.60749 
L 266.656348 250.641657 
L 267.457811 235.149186 
L 269.381322 193.870597 
L 269.8622 188.386537 
L 270.182785 186.793504 
L 270.343078 186.662904 
L 270.503371 186.983457 
L 270.823956 188.964515 
L 271.144541 192.654413 
L 271.625419 201.018989 
L 272.426882 220.370273 
L 274.350394 269.508507 
L 274.991564 280.581065 
L 275.632735 287.916562 
L 276.113612 291.159194 
L 276.59449 292.789487 
L 276.915076 293.159443 
L 277.235661 293.086779 
L 277.556246 292.680099 
L 278.037124 291.660297 
L 279.960635 287.015887 
L 280.601806 286.122823 
L 281.242976 285.623259 
L 281.884147 285.429313 
L 282.68561 285.458228 
L 284.609122 285.892737 
L 286.37234 286.141116 
L 288.456145 286.174244 
L 293.585509 286.044271 
L 293.906094 109.433452 
L 294.066386 83.321093 
L 294.226679 78.123398 
L 294.386972 84.163546 
L 295.188435 133.082972 
L 295.50902 139.88585 
L 295.829605 141.770707 
L 296.310483 142.491205 
L 296.631068 144.338609 
L 296.951654 148.164527 
L 297.432532 157.680504 
L 298.073702 175.712896 
L 298.394287 185.95918 
L 298.714873 385.031243 
L 299.035458 430.919899 
L 299.19575 426.679641 
L 299.516336 395.531517 
L 300.317799 307.553433 
L 300.798677 280.758998 
L 301.119262 273.540501 
L 301.279555 272.358518 
L 301.439847 272.406198 
L 301.760432 275.020586 
L 302.722188 285.91664 
L 303.042773 286.857339 
L 303.203066 286.653518 
L 303.523651 285.070578 
L 304.004529 280.573562 
L 305.28687 264.607337 
L 306.248626 250.641537 
L 307.050089 235.149091 
L 308.973601 193.870556 
L 309.454478 188.386508 
L 309.775064 186.793481 
L 309.935356 186.662884 
L 310.095649 186.983441 
L 310.416234 188.964504 
L 310.736819 192.654408 
L 311.217697 201.01899 
L 312.01916 220.370279 
L 313.942672 269.508512 
L 314.583842 280.581069 
L 315.225013 287.916564 
L 315.705891 291.159194 
L 316.186769 292.789486 
L 316.507354 293.159442 
L 316.827939 293.086778 
L 317.148524 292.680097 
L 317.629402 291.660296 
L 319.552914 287.015886 
L 320.194084 286.122823 
L 320.835255 285.623259 
L 321.476425 285.429313 
L 322.277888 285.458228 
L 324.2014 285.892737 
L 325.964619 286.141116 
L 328.048423 286.174244 
L 333.818957 286.04924 
L 334.139543 109.43864 
L 334.299835 83.326217 
L 334.460128 78.128409 
L 334.620421 84.168414 
L 335.421884 133.086848 
L 335.742469 139.889227 
L 336.063054 141.773564 
L 336.543932 142.493319 
L 336.864517 144.340284 
L 337.185103 148.165821 
L 337.66598 157.681339 
L 338.307151 175.713311 
L 338.627736 185.959454 
L 338.948321 385.031411 
L 339.268907 430.919999 
L 339.429199 426.679717 
L 339.749785 395.531564 
L 340.551248 307.553473 
L 341.032126 280.759056 
L 341.352711 273.540575 
L 341.513003 272.3586 
L 341.673296 272.406287 
L 341.993881 275.020688 
L 342.955637 285.916765 
L 343.276222 286.857466 
L 343.436515 286.653644 
L 343.7571 285.070703 
L 344.237978 280.573681 
L 345.520319 264.607432 
L 346.482075 250.641612 
L 347.283538 235.149151 
L 349.207049 193.870584 
L 349.687927 188.386529 
L 350.008513 186.793498 
L 350.168805 186.662899 
L 350.329098 186.983453 
L 350.649683 188.964514 
L 350.970268 192.654414 
L 351.451146 201.018991 
L 352.252609 220.370276 
L 354.176121 269.508509 
L 354.817291 280.581066 
L 355.458462 287.916563 
L 355.93934 291.159193 
L 356.420218 292.789486 
L 356.740803 293.159442 
L 357.061388 293.086779 
L 357.381973 292.680098 
L 357.862851 291.660297 
L 359.786363 287.015886 
L 360.427533 286.122823 
L 361.068704 285.623259 
L 361.709874 285.429313 
L 362.511337 285.458228 
L 364.434849 285.892737 
L 366.198068 286.141116 
L 368.281872 286.174244 
L 373.090651 286.043078 
L 373.411236 109.431706 
L 373.571528 83.319203 
L 373.731821 78.121411 
L 373.892114 84.161495 
L 374.693577 133.080937 
L 375.014162 139.883954 
L 375.334747 141.769 
L 375.815625 142.489827 
L 376.13621 144.33745 
L 376.456796 148.163572 
L 376.937674 157.679816 
L 377.578844 175.712479 
L 377.899429 185.958863 
L 378.220015 385.031006 
L 378.5406 430.919721 
L 378.700892 426.679486 
L 379.021478 395.531398 
L 379.822941 307.553362 
L 380.303819 280.758936 
L 380.624404 273.540441 
L 380.784697 272.358458 
L 380.944989 272.406137 
L 381.265574 275.020523 
L 382.22733 285.916574 
L 382.547915 286.857273 
L 382.708208 286.653452 
L 383.028793 285.070514 
L 383.509671 280.573501 
L 384.792012 264.607288 
L 385.753768 250.641497 
L 386.555231 235.149058 
L 388.478743 193.870538 
L 388.95962 188.386493 
L 389.280206 186.793469 
L 389.440498 186.662873 
L 389.600791 186.98343 
L 389.921376 188.964496 
L 390.241961 192.654401 
L 390.722839 201.018986 
L 391.524302 220.370278 
L 393.447814 269.508514 
L 394.088984 280.58107 
L 394.730155 287.916565 
L 395.211033 291.159194 
L 395.691911 292.789486 
L 396.012496 293.159442 
L 396.333081 293.086778 
L 396.653666 292.680097 
L 397.134544 291.660296 
L 399.058056 287.015886 
L 399.699226 286.122823 
L 400.340397 285.623259 
L 400.981567 285.429313 
L 401.78303 285.458228 
L 403.706542 285.892738 
L 405.469761 286.141116 
L 407.553565 286.174244 
L 413.644685 286.052538 
L 413.96527 109.441689 
L 414.125563 83.329101 
L 414.285855 78.131123 
L 414.446148 84.170957 
L 415.247611 133.088565 
L 415.568196 139.89063 
L 415.888781 141.774675 
L 416.369659 142.494055 
L 416.690245 144.340818 
L 417.01083 148.166191 
L 417.491708 157.681526 
L 418.132878 175.713351 
L 418.453463 185.959452 
L 418.774049 385.031381 
L 419.094634 430.919956 
L 419.254927 426.679673 
L 419.575512 395.531522 
L 420.376975 307.553457 
L 420.857853 280.759061 
L 421.178438 273.540593 
L 421.338731 272.358624 
L 421.499023 272.406316 
L 421.819609 275.020727 
L 422.781364 285.916818 
L 423.10195 286.85752 
L 423.262242 286.653699 
L 423.582827 285.070757 
L 424.063705 280.573733 
L 425.346046 264.607472 
L 426.307802 250.641644 
L 427.109265 235.149176 
L 429.032777 193.870594 
L 429.513655 188.386535 
L 429.83424 186.793503 
L 429.994532 186.662903 
L 430.154825 186.983456 
L 430.47541 188.964515 
L 430.795996 192.654414 
L 431.276873 201.01899 
L 432.078337 220.370274 
L 434.001848 269.508507 
L 434.643019 280.581065 
L 435.284189 287.916562 
L 435.765067 291.159193 
L 436.245945 292.789486 
L 436.56653 293.159442 
L 436.887115 293.086779 
L 437.207701 292.680099 
L 437.688578 291.660297 
L 439.61209 287.015887 
L 440.25326 286.122823 
L 440.894431 285.623259 
L 441.535601 285.429313 
L 442.337065 285.458228 
L 444.260576 285.892737 
L 446.023795 286.141116 
L 448.107599 286.174244 
L 453.557548 286.046406 
L 453.878134 109.435831 
L 454.038426 83.323492 
L 454.198719 78.125785 
L 454.359011 84.165901 
L 455.160475 133.084966 
L 455.48106 139.887624 
L 455.801645 141.772237 
L 456.282523 142.492371 
L 456.603108 144.339552 
L 456.923693 148.165272 
L 457.404571 157.681006 
L 458.045742 175.713167 
L 458.366327 185.95937 
L 458.686912 385.031372 
L 459.007498 430.919985 
L 459.16779 426.679712 
L 459.488375 395.531567 
L 460.289839 307.553468 
L 460.770716 280.759037 
L 461.091302 273.540545 
L 461.251594 272.358565 
L 461.411887 272.406248 
L 461.732472 275.020641 
L 462.694228 285.916705 
L 463.014813 286.857404 
L 463.175106 286.653583 
L 463.495691 285.070642 
L 463.976569 280.573624 
L 465.25891 264.607386 
L 466.220666 250.641576 
L 467.022129 235.149123 
L 468.94564 193.870572 
L 469.426518 188.38652 
L 469.747103 186.793491 
L 469.907396 186.662893 
L 470.067689 186.983448 
L 470.388274 188.96451 
L 470.708859 192.654412 
L 471.189737 201.018991 
L 471.9912 220.370278 
L 473.914712 269.508511 
L 474.555882 280.581067 
L 475.197053 287.916563 
L 475.677931 291.159194 
L 476.158808 292.789486 
L 476.479394 293.159442 
L 476.799979 293.086779 
L 477.120564 292.680098 
L 477.601442 291.660296 
L 479.524954 287.015886 
L 480.166124 286.122823 
L 480.807295 285.623259 
L 481.448465 285.429313 
L 482.249928 285.458228 
L 484.17344 285.892737 
L 485.936659 286.141116 
L 488.020463 286.174244 
L 493.630705 286.047751 
L 493.95129 109.437194 
L 494.111582 83.324824 
L 494.271875 78.127077 
L 494.432168 84.167146 
L 495.233631 133.085925 
L 495.554216 139.888449 
L 495.874801 141.772927 
L 496.355679 142.492872 
L 496.676264 144.339944 
L 496.99685 148.16557 
L 497.477728 157.681192 
L 498.118898 175.713253 
L 498.439483 185.959424 
L 498.760069 385.031401 
L 499.080654 430.92 
L 499.240946 426.679722 
L 499.561532 395.531571 
L 500.362995 307.553473 
L 500.843873 280.759049 
L 501.164458 273.540561 
L 501.324751 272.358584 
L 501.485043 272.406269 
L 501.805628 275.020665 
L 502.767384 285.916736 
L 503.087969 286.857436 
L 503.248262 286.653614 
L 503.568847 285.070673 
L 504.049725 280.573653 
L 505.332066 264.607409 
L 506.293822 250.641595 
L 507.095285 235.149137 
L 509.018797 193.870578 
L 509.499674 188.386525 
L 509.82026 186.793495 
L 509.980552 186.662897 
L 510.140845 186.983451 
L 510.46143 188.964512 
L 510.782015 192.654413 
L 511.262893 201.018992 
L 512.064356 220.370277 
L 513.987868 269.50851 
L 514.629038 280.581067 
L 515.270209 287.916563 
L 515.751087 291.159194 
L 516.231965 292.789486 
L 516.55255 293.159442 
L 516.873135 293.086779 
L 517.19372 292.680098 
L 517.674598 291.660297 
L 519.59811 287.015886 
L 520.23928 286.122823 
L 520.880451 285.623259 
L 521.521621 285.429313 
L 522.323084 285.458228 
L 524.246596 285.892737 
L 526.009815 286.141116 
L 528.093619 286.174244 
L 533.864153 286.04924 
L 534.184739 109.43864 
L 534.345031 83.326217 
L 534.505324 78.128409 
L 534.665617 84.168414 
L 535.46708 133.086848 
L 535.787665 139.889227 
L 536.10825 141.773564 
L 536.589128 142.493319 
L 536.909713 144.340284 
L 537.230299 148.165821 
L 537.711176 157.681339 
L 538.352347 175.713311 
L 538.672932 185.959454 
L 538.993517 385.031411 
L 539.314103 430.919999 
L 539.474395 426.679717 
L 539.794981 395.531564 
L 540.596444 307.553473 
L 541.077322 280.759056 
L 541.397907 273.540575 
L 541.558199 272.3586 
L 541.718492 272.406287 
L 542.039077 275.020688 
L 543.000833 285.916765 
L 543.321418 286.857466 
L 543.481711 286.653644 
L 543.802296 285.070703 
L 544.283174 280.573681 
L 545.565515 264.607432 
L 546.527271 250.641612 
L 547.328734 235.149151 
L 549.252245 193.870584 
L 549.733123 188.386529 
L 550.053709 186.793498 
L 550.214001 186.662899 
L 550.374294 186.983453 
L 550.694879 188.964514 
L 551.015464 192.654414 
L 551.496342 201.018991 
L 552.297805 220.370276 
L 554.221317 269.508509 
L 554.862487 280.581066 
L 555.503658 287.916563 
L 555.984536 291.159193 
L 556.465414 292.789486 
L 556.785999 293.159442 
L 557.106584 293.086779 
L 557.427169 292.680098 
L 557.908047 291.660297 
L 559.831559 287.015886 
L 560.472729 286.122823 
L 561.1139 285.623259 
L 561.75507 285.429313 
L 562.556533 285.458228 
L 564.480045 285.892737 
L 566.243264 286.141116 
L 568.327068 286.174244 
L 574.257895 286.050846 
L 574.57848 109.440145 
L 574.738773 83.327649 
L 574.899065 78.129763 
L 575.059358 84.169689 
L 575.860821 133.08773 
L 576.181406 139.889955 
L 576.501992 141.774147 
L 576.98287 142.493713 
L 577.303455 144.340575 
L 577.62404 148.166027 
L 578.104918 157.681449 
L 578.746088 175.713343 
L 579.066674 185.959462 
L 579.387259 385.031403 
L 579.707844 430.919983 
L 579.868137 426.6797 
L 580.188722 395.531547 
L 580.990185 307.553467 
L 581.471063 280.75906 
L 581.791648 273.540585 
L 581.951941 272.358613 
L 582.112234 272.406303 
L 582.432819 275.020708 
L 583.394575 285.916793 
L 583.71516 286.857494 
L 583.875452 286.653673 
L 584.196038 285.070731 
L 584.676916 280.573708 
L 585.959257 264.607453 
L 586.921012 250.641628 
L 587.722475 235.149164 
L 589.645987 193.870589 
L 590.126865 188.386533 
L 590.44745 186.793501 
L 590.607743 186.662901 
L 590.768035 186.983455 
L 591.088621 188.964514 
L 591.409206 192.654414 
L 591.890084 201.018991 
L 592.691547 220.370275 
L 594.615058 269.508508 
L 595.256229 280.581066 
L 595.897399 287.916562 
L 596.378277 291.159193 
L 596.859155 292.789486 
L 597.17974 293.159442 
L 597.500326 293.086779 
L 597.820911 292.680098 
L 598.301789 291.660297 
L 600.2253 287.015886 
L 600.866471 286.122823 
L 601.507641 285.623259 
L 602.148812 285.429313 
L 602.950275 285.458228 
L 604.873786 285.892737 
L 606.637005 286.141116 
L 608.720809 286.174244 
L 613.209003 286.04306 
L 613.529588 109.430798 
L 613.689881 83.318012 
L 613.850173 78.12 
L 614.010466 84.159908 
L 614.811929 133.07895 
L 615.132514 139.882 
L 615.4531 141.767162 
L 615.933977 142.488254 
L 616.254563 144.33608 
L 616.575148 148.162404 
L 617.056026 157.678927 
L 617.697196 175.711896 
L 618.017782 185.958403 
L 618.338367 385.030641 
L 618.658952 430.919433 
L 618.819245 426.679229 
L 619.13983 395.531194 
L 619.941293 307.553243 
L 620.422171 280.758845 
L 620.742756 273.540361 
L 620.903049 272.358382 
L 621.063341 272.406065 
L 621.383927 275.020455 
L 622.345682 285.91651 
L 622.666268 286.85721 
L 622.82656 286.65339 
L 623.147146 285.070453 
L 623.628023 280.573443 
L 624.910364 264.60724 
L 625.87212 250.641457 
L 626.673583 235.149024 
L 628.597095 193.870517 
L 629.077973 188.386475 
L 629.398558 186.793453 
L 629.558851 186.662859 
L 629.719143 186.983417 
L 630.039728 188.964485 
L 630.360314 192.654393 
L 630.841192 201.01898 
L 631.642655 220.370276 
L 633.566166 269.508515 
L 634.207337 280.581071 
L 634.848507 287.916566 
L 635.329385 291.159195 
L 635.810263 292.789487 
L 636.130848 293.159442 
L 636.451433 293.086778 
L 636.772019 292.680097 
L 637.252897 291.660295 
L 639.176408 287.015886 
L 639.817579 286.122823 
L 640.458749 285.623259 
L 641.09992 285.429313 
L 641.901383 285.458228 
L 643.824894 285.892738 
L 645.588113 286.141116 
L 647.671917 286.174244 
L 653.92333 286.054291 
L 654.243915 109.443249 
L 654.404207 83.330555 
L 654.5645 78.132472 
L 654.724793 84.172205 
L 655.526256 133.089349 
L 655.846841 139.89125 
L 656.167426 141.775149 
L 656.648304 142.494348 
L 656.968889 144.341018 
L 657.289475 148.166316 
L 657.770353 157.681573 
L 658.411523 175.713339 
L 658.732108 185.959425 
L 659.052694 385.031346 
L 659.373279 430.919919 
L 659.533571 426.679637 
L 659.854157 395.53149 
L 660.65562 307.553443 
L 661.136498 280.759059 
L 661.457083 273.540598 
L 661.617376 272.358632 
L 661.777668 272.406327 
L 662.098253 275.020743 
L 663.060009 285.916842 
L 663.380594 286.857544 
L 663.540887 286.653723 
L 663.861472 285.070781 
L 664.34235 280.573756 
L 665.624691 264.60749 
L 666.586447 250.641657 
L 667.38791 235.149186 
L 669.311422 193.870597 
L 669.792299 188.386537 
L 670.112885 186.793504 
L 670.273177 186.662904 
L 670.43347 186.983457 
L 670.754055 188.964515 
L 671.07464 192.654413 
L 671.555518 201.018989 
L 672.356981 220.370273 
L 674.280493 269.508507 
L 674.921663 280.581065 
L 675.562834 287.916562 
L 676.043712 291.159194 
L 676.52459 292.789487 
L 676.845175 293.159443 
L 677.16576 293.086779 
L 677.486345 292.680099 
L 677.967223 291.660297 
L 679.890735 287.015887 
L 680.531905 286.122823 
L 681.173076 285.623259 
L 681.814246 285.429313 
L 682.615709 285.458228 
L 684.539221 285.892737 
L 686.30244 286.141116 
L 688.386244 286.174244 
L 694.156778 286.04924 
L 694.477364 109.43864 
L 694.637656 83.326217 
L 694.797949 78.128409 
L 694.958242 84.168414 
L 695.759705 133.086848 
L 696.08029 139.889227 
L 696.400875 141.773564 
L 696.881753 142.493319 
L 697.202338 144.340284 
L 697.522924 148.165821 
L 698.003801 157.681339 
L 698.644972 175.713311 
L 698.965557 185.959454 
L 699.286142 385.031411 
L 699.606728 430.919999 
L 699.76702 426.679717 
L 700.087606 395.531564 
L 700.889069 307.553473 
L 701.369947 280.759056 
L 701.690532 273.540575 
L 701.850824 272.3586 
L 702.011117 272.406287 
L 702.331702 275.020688 
L 703.293458 285.916765 
L 703.614043 286.857466 
L 703.774336 286.653644 
L 704.094921 285.070703 
L 704.575799 280.573681 
L 705.85814 264.607432 
L 706.819896 250.641612 
L 707.621359 235.149151 
L 709.54487 193.870584 
L 710.025748 188.386529 
L 710.346334 186.793498 
L 710.506626 186.662899 
L 710.666919 186.983453 
L 710.987504 188.964514 
L 711.308089 192.654414 
L 711.788967 201.018991 
L 712.59043 220.370276 
L 714.513942 269.508509 
L 715.155112 280.581066 
L 715.796283 287.916563 
L 716.277161 291.159193 
L 716.758039 292.789486 
L 717.078624 293.159442 
L 717.399209 293.086779 
L 717.719794 292.680098 
L 718.200672 291.660297 
L 720.124184 287.015886 
L 720.765354 286.122823 
L 721.406525 285.623259 
L 722.047695 285.429313 
L 722.849158 285.458228 
L 724.77267 285.892737 
L 726.535889 286.141116 
L 728.619693 286.174244 
L 734.069642 286.046406 
L 734.390227 109.435831 
L 734.55052 83.323492 
L 734.710813 78.125785 
L 734.871105 84.165901 
L 735.672568 133.084966 
L 735.993154 139.887624 
L 736.313739 141.772237 
L 736.794617 142.492371 
L 737.115202 144.339552 
L 737.435787 148.165272 
L 737.916665 157.681006 
L 738.557836 175.713167 
L 738.878421 185.95937 
L 739.199006 385.031372 
L 739.519591 430.919985 
L 739.679884 426.679712 
L 740.000469 395.531567 
L 740.801932 307.553468 
L 741.28281 280.759037 
L 741.603395 273.540545 
L 741.763688 272.358565 
L 741.923981 272.406248 
L 742.244566 275.020641 
L 743.206322 285.916705 
L 743.526907 286.857404 
L 743.6872 286.653583 
L 744.007785 285.070642 
L 744.488663 280.573624 
L 745.771004 264.607386 
L 746.732759 250.641576 
L 747.534223 235.149123 
L 749.457734 193.870572 
L 749.938612 188.38652 
L 750.259197 186.793491 
L 750.41949 186.662893 
L 750.579782 186.983448 
L 750.900368 188.96451 
L 751.220953 192.654412 
L 751.701831 201.018991 
L 752.503294 220.370278 
L 754.426805 269.508511 
L 755.067976 280.581067 
L 755.709146 287.916563 
L 756.190024 291.159194 
L 756.670902 292.789486 
L 756.991487 293.159442 
L 757.312073 293.086779 
L 757.632658 292.680098 
L 758.113536 291.660296 
L 760.037047 287.015886 
L 760.678218 286.122823 
L 761.319388 285.623259 
L 761.960559 285.429313 
L 762.762022 285.458228 
L 764.685533 285.892737 
L 766.448752 286.141116 
L 768.532556 286.174244 
L 773.822213 286.045236 
L 774.142798 109.434576 
L 774.303091 83.32224 
L 774.463384 78.124552 
L 774.623676 84.164695 
L 775.425139 133.083979 
L 775.745725 139.886756 
L 776.06631 141.771496 
L 776.547188 142.491815 
L 776.867773 144.339108 
L 777.188358 148.164925 
L 777.669236 157.680778 
L 778.310407 175.713049 
L 778.630992 185.959289 
L 778.951577 385.03132 
L 779.272162 430.919953 
L 779.432455 426.679686 
L 779.75304 395.53155 
L 780.554503 307.553455 
L 781.035381 280.75902 
L 781.355966 273.540525 
L 781.516259 272.358543 
L 781.676552 272.406224 
L 781.997137 275.020614 
L 782.958893 285.916673 
L 783.279478 286.857372 
L 783.439771 286.653551 
L 783.760356 285.070611 
L 784.241234 280.573593 
L 785.523575 264.607362 
L 786.48533 250.641557 
L 787.286794 235.149107 
L 789.210305 193.870564 
L 789.691183 188.386514 
L 790.011768 186.793486 
L 790.172061 186.662889 
L 790.332353 186.983445 
L 790.652939 188.964508 
L 790.973524 192.65441 
L 791.454402 201.018991 
L 792.255865 220.370279 
L 794.179376 269.508512 
L 794.820547 280.581068 
L 795.461717 287.916563 
L 795.942595 291.159194 
L 796.423473 292.789486 
L 796.744058 293.159442 
L 797.064644 293.086778 
L 797.385229 292.680098 
L 797.866107 291.660296 
L 799.789618 287.015886 
L 800.430789 286.122823 
L 801.071959 285.623259 
L 801.71313 285.429313 
L 802.514593 285.458228 
L 804.438104 285.892737 
L 806.201323 286.141116 
L 808.285127 286.174244 
L 813.414491 286.044271 
L 813.735077 109.433452 
L 813.895369 83.321093 
L 814.055662 78.123398 
L 814.215955 84.163546 
L 815.017418 133.082972 
L 815.338003 139.88585 
L 815.658588 141.770707 
L 816.139466 142.491205 
L 816.460051 144.338609 
L 816.780637 148.164527 
L 817.261514 157.680504 
L 817.902685 175.712896 
L 818.22327 185.95918 
L 818.543855 385.031243 
L 818.864441 430.919899 
L 819.024733 426.679641 
L 819.345319 395.531517 
L 820.146782 307.553433 
L 820.62766 280.758998 
L 820.948245 273.540501 
L 821.108537 272.358518 
L 821.26883 272.406198 
L 821.589415 275.020586 
L 822.551171 285.91664 
L 822.871756 286.857339 
L 823.032049 286.653518 
L 823.352634 285.070578 
L 823.833512 280.573562 
L 825.115853 264.607337 
L 826.077609 250.641537 
L 826.879072 235.149091 
L 828.802583 193.870556 
L 829.283461 188.386508 
L 829.604047 186.793481 
L 829.764339 186.662884 
L 829.924632 186.983441 
L 830.245217 188.964504 
L 830.565802 192.654408 
L 831.04668 201.01899 
L 831.848143 220.370279 
L 833.771655 269.508512 
L 834.412825 280.581069 
L 835.053996 287.916564 
L 835.534874 291.159194 
L 836.015752 292.789486 
L 836.336337 293.159442 
L 836.656922 293.086778 
L 836.977507 292.680097 
L 837.458385 291.660296 
L 839.381897 287.015886 
L 840.023067 286.122823 
L 840.664238 285.623259 
L 841.305408 285.429313 
L 842.106871 285.458228 
L 844.030383 285.892737 
L 845.793602 286.141116 
L 847.877406 286.174244 
L 854.609696 286.059669 
L 854.930281 109.447855 
L 855.090574 83.334779 
L 855.250867 78.136331 
L 855.411159 84.175718 
L 856.212622 133.091368 
L 856.533208 139.892776 
L 856.853793 141.776251 
L 857.334671 142.494954 
L 857.655256 144.341379 
L 857.975841 148.166493 
L 858.456719 157.681564 
L 859.09789 175.713209 
L 859.418475 185.959272 
L 859.73906 385.031185 
L 860.059645 430.919768 
L 860.219938 426.679493 
L 860.540523 395.531366 
L 861.341986 307.553384 
L 861.822864 280.759038 
L 862.143449 273.540599 
L 862.303742 272.358643 
L 862.464035 272.406347 
L 862.78462 275.020776 
L 863.746376 285.916897 
L 864.066961 286.857602 
L 864.227254 286.653781 
L 864.547839 285.070839 
L 865.028717 280.573812 
L 866.311058 264.607534 
L 867.272813 250.641691 
L 868.074277 235.149211 
L 869.997788 193.870603 
L 870.478666 188.38654 
L 870.799251 186.793505 
L 870.959544 186.662904 
L 871.119836 186.983456 
L 871.440422 188.964513 
L 871.761007 192.65441 
L 872.241885 201.018985 
L 873.043348 220.370269 
L 874.966859 269.508505 
L 875.60803 280.581064 
L 876.2492 287.916562 
L 876.730078 291.159194 
L 877.210956 292.789487 
L 877.531541 293.159443 
L 877.852127 293.08678 
L 878.172712 292.680099 
L 878.65359 291.660298 
L 880.577101 287.015887 
L 881.218272 286.122823 
L 881.859442 285.623259 
L 882.500613 285.429313 
L 883.302076 285.458228 
L 885.225587 285.892737 
L 886.988806 286.141116 
L 889.07261 286.174244 
L 894.362267 286.045236 
L 894.682852 109.434576 
L 894.843145 83.32224 
L 895.003438 78.124552 
L 895.16373 84.164695 
L 895.965193 133.083979 
L 896.285779 139.886756 
L 896.606364 141.771496 
L 897.087242 142.491815 
L 897.407827 144.339108 
L 897.728412 148.164925 
L 898.20929 157.680778 
L 898.850461 175.713049 
L 899.171046 185.959289 
L 899.491631 385.03132 
L 899.812216 430.919953 
L 899.972509 426.679686 
L 900.293094 395.53155 
L 901.094557 307.553455 
L 901.575435 280.75902 
L 901.89602 273.540525 
L 902.056313 272.358543 
L 902.216606 272.406224 
L 902.537191 275.020614 
L 903.498947 285.916673 
L 903.819532 286.857372 
L 903.979825 286.653551 
L 904.30041 285.070611 
L 904.781288 280.573593 
L 906.063629 264.607362 
L 907.025384 250.641557 
L 907.826848 235.149107 
L 909.750359 193.870564 
L 910.231237 188.386514 
L 910.551822 186.793486 
L 910.712115 186.662889 
L 910.872407 186.983445 
L 911.192993 188.964508 
L 911.513578 192.65441 
L 911.994456 201.018991 
L 912.795919 220.370279 
L 914.71943 269.508512 
L 915.360601 280.581068 
L 916.001771 287.916563 
L 916.482649 291.159194 
L 916.963527 292.789486 
L 917.284112 293.159442 
L 917.604698 293.086778 
L 917.925283 292.680098 
L 918.406161 291.660296 
L 920.329672 287.015886 
L 920.970843 286.122823 
L 921.612013 285.623259 
L 922.253184 285.429313 
L 923.054647 285.458228 
L 924.978158 285.892737 
L 926.741377 286.141116 
L 928.825181 286.174244 
L 933.794253 286.043542 
L 933.954545 170.526264 
L 933.954545 170.526264 
" clip-path="url(#p122957b22b)" style="fill: none; stroke: #1f77b4; stroke-width: 1.5; stroke-linecap: square"/>
   </g>
   <g id="line2d_11">
    <path d="M 173.045455 120.295481 
L 177.693941 120.295481 
L 177.854233 286.073352 
L 213.278903 286.073352 
L 213.439196 120.295481 
L 218.087682 120.295481 
L 218.247975 286.073352 
L 253.99323 286.073352 
L 254.153523 120.295481 
L 258.802009 120.295481 
L 258.962302 286.073352 
L 293.585509 286.073352 
L 293.745801 120.295481 
L 298.394287 120.295481 
L 298.55458 286.073352 
L 333.818957 286.073352 
L 333.97925 120.295481 
L 338.627736 120.295481 
L 338.788029 286.073352 
L 373.090651 286.073352 
L 373.250943 120.295481 
L 377.899429 120.295481 
L 378.059722 286.073352 
L 413.644685 286.073352 
L 413.804977 120.295481 
L 418.453463 120.295481 
L 418.613756 286.073352 
L 453.557548 286.073352 
L 453.717841 120.295481 
L 458.366327 120.295481 
L 458.52662 286.073352 
L 493.630705 286.073352 
L 493.790997 120.295481 
L 498.439483 120.295481 
L 498.599776 286.073352 
L 533.864153 286.073352 
L 534.024446 120.295481 
L 538.672932 120.295481 
L 538.833225 286.073352 
L 574.257895 286.073352 
L 574.418188 120.295481 
L 579.066674 120.295481 
L 579.226966 286.073352 
L 613.209003 286.073352 
L 613.369295 120.295481 
L 618.017782 120.295481 
L 618.178074 286.073352 
L 653.92333 286.073352 
L 654.083622 120.295481 
L 658.732108 120.295481 
L 658.892401 286.073352 
L 694.156778 286.073352 
L 694.317071 120.295481 
L 698.965557 120.295481 
L 699.12585 286.073352 
L 734.069642 286.073352 
L 734.229935 120.295481 
L 738.878421 120.295481 
L 739.038713 286.073352 
L 773.822213 286.073352 
L 773.982506 120.295481 
L 778.630992 120.295481 
L 778.791284 286.073352 
L 813.414491 286.073352 
L 813.574784 120.295481 
L 818.22327 120.295481 
L 818.383563 286.073352 
L 854.609696 286.073352 
L 854.769989 120.295481 
L 859.418475 120.295481 
L 859.578767 286.073352 
L 894.362267 286.073352 
L 894.52256 120.295481 
L 899.171046 120.295481 
L 899.331338 286.073352 
L 933.794253 286.073352 
L 933.954545 120.295481 
L 933.954545 120.295481 
" clip-path="url(#p122957b22b)" style="fill: none; stroke: #ff7f0e; stroke-width: 1.5; stroke-linecap: square"/>
   </g>
   <g id="line2d_12">
    <path d="M 929.466352 286.073352 
" clip-path="url(#p122957b22b)" style="fill: none; stroke: #000000; stroke-width: 1.5; stroke-linecap: square"/>
    <defs>
     <path id="m44b93ff15d" d="M 0 1 
C 0.265203 1 0.51958 0.894634 0.707107 0.707107 
C 0.894634 0.51958 1 0.265203 1 0 
C 1 -0.265203 0.894634 -0.51958 0.707107 -0.707107 
C 0.51958 -0.894634 0.265203 -1 0 -1 
C -0.265203 -1 -0.51958 -0.894634 -0.707107 -0.707107 
C -0.894634 -0.51958 -1 -0.265203 -1 0 
C -1 0.265203 -0.894634 0.51958 -0.707107 0.707107 
C -0.51958 0.894634 -0.265203 1 0 1 
z
" style="stroke: #000000"/>
    </defs>
    <g clip-path="url(#p122957b22b)">
     <use xlink:href="#m44b93ff15d" x="173.045455" y="120.295481" style="stroke: #000000"/>
     <use xlink:href="#m44b93ff15d" x="178.174819" y="286.073352" style="stroke: #000000"/>
     <use xlink:href="#m44b93ff15d" x="183.14389" y="286.073352" style="stroke: #000000"/>
     <use xlink:href="#m44b93ff15d" x="188.112961" y="120.295481" style="stroke: #000000"/>
     <use xlink:href="#m44b93ff15d" x="193.082033" y="286.073352" style="stroke: #000000"/>
     <use xlink:href="#m44b93ff15d" x="198.211397" y="286.073352" style="stroke: #000000"/>
     <use xlink:href="#m44b93ff15d" x="203.180468" y="120.295481" style="stroke: #000000"/>
     <use xlink:href="#m44b93ff15d" x="208.149539" y="286.073352" style="stroke: #000000"/>
     <use xlink:href="#m44b93ff15d" x="213.118611" y="120.295481" style="stroke: #000000"/>
     <use xlink:href="#m44b93ff15d" x="218.247975" y="286.073352" style="stroke: #000000"/>
     <use xlink:href="#m44b93ff15d" x="223.217046" y="286.073352" style="stroke: #000000"/>
     <use xlink:href="#m44b93ff15d" x="228.186118" y="120.295481" style="stroke: #000000"/>
     <use xlink:href="#m44b93ff15d" x="233.155189" y="286.073352" style="stroke: #000000"/>
     <use xlink:href="#m44b93ff15d" x="238.284553" y="286.073352" style="stroke: #000000"/>
     <use xlink:href="#m44b93ff15d" x="243.253624" y="120.295481" style="stroke: #000000"/>
     <use xlink:href="#m44b93ff15d" x="248.222696" y="286.073352" style="stroke: #000000"/>
     <use xlink:href="#m44b93ff15d" x="253.191767" y="120.295481" style="stroke: #000000"/>
     <use xlink:href="#m44b93ff15d" x="258.321131" y="286.073352" style="stroke: #000000"/>
     <use xlink:href="#m44b93ff15d" x="263.290202" y="286.073352" style="stroke: #000000"/>
     <use xlink:href="#m44b93ff15d" x="268.259274" y="120.295481" style="stroke: #000000"/>
     <use xlink:href="#m44b93ff15d" x="273.228345" y="286.073352" style="stroke: #000000"/>
     <use xlink:href="#m44b93ff15d" x="278.357709" y="286.073352" style="stroke: #000000"/>
     <use xlink:href="#m44b93ff15d" x="283.326781" y="120.295481" style="stroke: #000000"/>
     <use xlink:href="#m44b93ff15d" x="288.295852" y="286.073352" style="stroke: #000000"/>
     <use xlink:href="#m44b93ff15d" x="293.264923" y="120.295481" style="stroke: #000000"/>
     <use xlink:href="#m44b93ff15d" x="298.394287" y="286.073352" style="stroke: #000000"/>
     <use xlink:href="#m44b93ff15d" x="303.363359" y="286.073352" style="stroke: #000000"/>
     <use xlink:href="#m44b93ff15d" x="308.33243" y="120.295481" style="stroke: #000000"/>
     <use xlink:href="#m44b93ff15d" x="313.301501" y="286.073352" style="stroke: #000000"/>
     <use xlink:href="#m44b93ff15d" x="318.430865" y="286.073352" style="stroke: #000000"/>
     <use xlink:href="#m44b93ff15d" x="323.399937" y="120.295481" style="stroke: #000000"/>
     <use xlink:href="#m44b93ff15d" x="328.369008" y="286.073352" style="stroke: #000000"/>
     <use xlink:href="#m44b93ff15d" x="333.33808" y="120.295481" style="stroke: #000000"/>
     <use xlink:href="#m44b93ff15d" x="338.467444" y="286.073352" style="stroke: #000000"/>
     <use xlink:href="#m44b93ff15d" x="343.436515" y="286.073352" style="stroke: #000000"/>
     <use xlink:href="#m44b93ff15d" x="348.405586" y="120.295481" style="stroke: #000000"/>
     <use xlink:href="#m44b93ff15d" x="353.374658" y="286.073352" style="stroke: #000000"/>
     <use xlink:href="#m44b93ff15d" x="358.504022" y="286.073352" style="stroke: #000000"/>
     <use xlink:href="#m44b93ff15d" x="363.473093" y="120.295481" style="stroke: #000000"/>
     <use xlink:href="#m44b93ff15d" x="368.442164" y="286.073352" style="stroke: #000000"/>
     <use xlink:href="#m44b93ff15d" x="373.411236" y="120.295481" style="stroke: #000000"/>
     <use xlink:href="#m44b93ff15d" x="378.5406" y="286.073352" style="stroke: #000000"/>
     <use xlink:href="#m44b93ff15d" x="383.509671" y="286.073352" style="stroke: #000000"/>
     <use xlink:href="#m44b93ff15d" x="388.478743" y="120.295481" style="stroke: #000000"/>
     <use xlink:href="#m44b93ff15d" x="393.447814" y="286.073352" style="stroke: #000000"/>
     <use xlink:href="#m44b93ff15d" x="398.577178" y="286.073352" style="stroke: #000000"/>
     <use xlink:href="#m44b93ff15d" x="403.546249" y="120.295481" style="stroke: #000000"/>
     <use xlink:href="#m44b93ff15d" x="408.515321" y="286.073352" style="stroke: #000000"/>
     <use xlink:href="#m44b93ff15d" x="413.484392" y="120.295481" style="stroke: #000000"/>
     <use xlink:href="#m44b93ff15d" x="418.613756" y="286.073352" style="stroke: #000000"/>
     <use xlink:href="#m44b93ff15d" x="423.582827" y="286.073352" style="stroke: #000000"/>
     <use xlink:href="#m44b93ff15d" x="428.551899" y="120.295481" style="stroke: #000000"/>
     <use xlink:href="#m44b93ff15d" x="433.52097" y="286.073352" style="stroke: #000000"/>
     <use xlink:href="#m44b93ff15d" x="438.650334" y="286.073352" style="stroke: #000000"/>
     <use xlink:href="#m44b93ff15d" x="443.619406" y="120.295481" style="stroke: #000000"/>
     <use xlink:href="#m44b93ff15d" x="448.588477" y="286.073352" style="stroke: #000000"/>
     <use xlink:href="#m44b93ff15d" x="453.557548" y="120.295481" style="stroke: #000000"/>
     <use xlink:href="#m44b93ff15d" x="458.686912" y="286.073352" style="stroke: #000000"/>
     <use xlink:href="#m44b93ff15d" x="463.655984" y="286.073352" style="stroke: #000000"/>
     <use xlink:href="#m44b93ff15d" x="468.625055" y="120.295481" style="stroke: #000000"/>
     <use xlink:href="#m44b93ff15d" x="473.594126" y="286.073352" style="stroke: #000000"/>
     <use xlink:href="#m44b93ff15d" x="478.72349" y="286.073352" style="stroke: #000000"/>
     <use xlink:href="#m44b93ff15d" x="483.692562" y="120.295481" style="stroke: #000000"/>
     <use xlink:href="#m44b93ff15d" x="488.661633" y="286.073352" style="stroke: #000000"/>
     <use xlink:href="#m44b93ff15d" x="493.630705" y="120.295481" style="stroke: #000000"/>
     <use xlink:href="#m44b93ff15d" x="498.760069" y="286.073352" style="stroke: #000000"/>
     <use xlink:href="#m44b93ff15d" x="503.72914" y="286.073352" style="stroke: #000000"/>
     <use xlink:href="#m44b93ff15d" x="508.698211" y="120.295481" style="stroke: #000000"/>
     <use xlink:href="#m44b93ff15d" x="513.667283" y="286.073352" style="stroke: #000000"/>
     <use xlink:href="#m44b93ff15d" x="518.796647" y="286.073352" style="stroke: #000000"/>
     <use xlink:href="#m44b93ff15d" x="523.765718" y="120.295481" style="stroke: #000000"/>
     <use xlink:href="#m44b93ff15d" x="528.734789" y="286.073352" style="stroke: #000000"/>
     <use xlink:href="#m44b93ff15d" x="533.703861" y="120.295481" style="stroke: #000000"/>
     <use xlink:href="#m44b93ff15d" x="538.833225" y="286.073352" style="stroke: #000000"/>
     <use xlink:href="#m44b93ff15d" x="543.802296" y="286.073352" style="stroke: #000000"/>
     <use xlink:href="#m44b93ff15d" x="548.771368" y="120.295481" style="stroke: #000000"/>
     <use xlink:href="#m44b93ff15d" x="553.740439" y="286.073352" style="stroke: #000000"/>
     <use xlink:href="#m44b93ff15d" x="558.869803" y="286.073352" style="stroke: #000000"/>
     <use xlink:href="#m44b93ff15d" x="563.838874" y="120.295481" style="stroke: #000000"/>
     <use xlink:href="#m44b93ff15d" x="568.807946" y="286.073352" style="stroke: #000000"/>
     <use xlink:href="#m44b93ff15d" x="573.777017" y="120.295481" style="stroke: #000000"/>
     <use xlink:href="#m44b93ff15d" x="578.906381" y="286.073352" style="stroke: #000000"/>
     <use xlink:href="#m44b93ff15d" x="583.875452" y="286.073352" style="stroke: #000000"/>
     <use xlink:href="#m44b93ff15d" x="588.844524" y="120.295481" style="stroke: #000000"/>
     <use xlink:href="#m44b93ff15d" x="593.813595" y="286.073352" style="stroke: #000000"/>
     <use xlink:href="#m44b93ff15d" x="598.942959" y="286.073352" style="stroke: #000000"/>
     <use xlink:href="#m44b93ff15d" x="603.912031" y="120.295481" style="stroke: #000000"/>
     <use xlink:href="#m44b93ff15d" x="608.881102" y="286.073352" style="stroke: #000000"/>
     <use xlink:href="#m44b93ff15d" x="613.850173" y="120.295481" style="stroke: #000000"/>
     <use xlink:href="#m44b93ff15d" x="618.979537" y="286.073352" style="stroke: #000000"/>
     <use xlink:href="#m44b93ff15d" x="623.948609" y="286.073352" style="stroke: #000000"/>
     <use xlink:href="#m44b93ff15d" x="628.91768" y="120.295481" style="stroke: #000000"/>
     <use xlink:href="#m44b93ff15d" x="633.886751" y="286.073352" style="stroke: #000000"/>
     <use xlink:href="#m44b93ff15d" x="639.016115" y="286.073352" style="stroke: #000000"/>
     <use xlink:href="#m44b93ff15d" x="643.985187" y="120.295481" style="stroke: #000000"/>
     <use xlink:href="#m44b93ff15d" x="648.954258" y="286.073352" style="stroke: #000000"/>
     <use xlink:href="#m44b93ff15d" x="653.92333" y="120.295481" style="stroke: #000000"/>
     <use xlink:href="#m44b93ff15d" x="659.052694" y="286.073352" style="stroke: #000000"/>
     <use xlink:href="#m44b93ff15d" x="664.021765" y="286.073352" style="stroke: #000000"/>
     <use xlink:href="#m44b93ff15d" x="668.990836" y="120.295481" style="stroke: #000000"/>
     <use xlink:href="#m44b93ff15d" x="673.959908" y="286.073352" style="stroke: #000000"/>
     <use xlink:href="#m44b93ff15d" x="679.089272" y="286.073352" style="stroke: #000000"/>
     <use xlink:href="#m44b93ff15d" x="684.058343" y="120.295481" style="stroke: #000000"/>
     <use xlink:href="#m44b93ff15d" x="689.027414" y="286.073352" style="stroke: #000000"/>
     <use xlink:href="#m44b93ff15d" x="693.996486" y="120.295481" style="stroke: #000000"/>
     <use xlink:href="#m44b93ff15d" x="699.12585" y="286.073352" style="stroke: #000000"/>
     <use xlink:href="#m44b93ff15d" x="704.094921" y="286.073352" style="stroke: #000000"/>
     <use xlink:href="#m44b93ff15d" x="709.063993" y="120.295481" style="stroke: #000000"/>
     <use xlink:href="#m44b93ff15d" x="714.033064" y="286.073352" style="stroke: #000000"/>
     <use xlink:href="#m44b93ff15d" x="719.162428" y="286.073352" style="stroke: #000000"/>
     <use xlink:href="#m44b93ff15d" x="724.131499" y="120.295481" style="stroke: #000000"/>
     <use xlink:href="#m44b93ff15d" x="729.100571" y="286.073352" style="stroke: #000000"/>
     <use xlink:href="#m44b93ff15d" x="734.069642" y="120.295481" style="stroke: #000000"/>
     <use xlink:href="#m44b93ff15d" x="739.199006" y="286.073352" style="stroke: #000000"/>
     <use xlink:href="#m44b93ff15d" x="744.168077" y="286.073352" style="stroke: #000000"/>
     <use xlink:href="#m44b93ff15d" x="749.137149" y="120.295481" style="stroke: #000000"/>
     <use xlink:href="#m44b93ff15d" x="754.10622" y="286.073352" style="stroke: #000000"/>
     <use xlink:href="#m44b93ff15d" x="759.235584" y="286.073352" style="stroke: #000000"/>
     <use xlink:href="#m44b93ff15d" x="764.204656" y="120.295481" style="stroke: #000000"/>
     <use xlink:href="#m44b93ff15d" x="769.173727" y="286.073352" style="stroke: #000000"/>
     <use xlink:href="#m44b93ff15d" x="774.142798" y="120.295481" style="stroke: #000000"/>
     <use xlink:href="#m44b93ff15d" x="779.272162" y="286.073352" style="stroke: #000000"/>
     <use xlink:href="#m44b93ff15d" x="784.241234" y="286.073352" style="stroke: #000000"/>
     <use xlink:href="#m44b93ff15d" x="789.210305" y="120.295481" style="stroke: #000000"/>
     <use xlink:href="#m44b93ff15d" x="794.179376" y="286.073352" style="stroke: #000000"/>
     <use xlink:href="#m44b93ff15d" x="799.30874" y="286.073352" style="stroke: #000000"/>
     <use xlink:href="#m44b93ff15d" x="804.277812" y="120.295481" style="stroke: #000000"/>
     <use xlink:href="#m44b93ff15d" x="809.246883" y="286.073352" style="stroke: #000000"/>
     <use xlink:href="#m44b93ff15d" x="814.215955" y="120.295481" style="stroke: #000000"/>
     <use xlink:href="#m44b93ff15d" x="819.345319" y="286.073352" style="stroke: #000000"/>
     <use xlink:href="#m44b93ff15d" x="824.31439" y="286.073352" style="stroke: #000000"/>
     <use xlink:href="#m44b93ff15d" x="829.283461" y="120.295481" style="stroke: #000000"/>
     <use xlink:href="#m44b93ff15d" x="834.252533" y="286.073352" style="stroke: #000000"/>
     <use xlink:href="#m44b93ff15d" x="839.381897" y="286.073352" style="stroke: #000000"/>
     <use xlink:href="#m44b93ff15d" x="844.350968" y="120.295481" style="stroke: #000000"/>
     <use xlink:href="#m44b93ff15d" x="849.320039" y="286.073352" style="stroke: #000000"/>
     <use xlink:href="#m44b93ff15d" x="854.289111" y="120.295481" style="stroke: #000000"/>
     <use xlink:href="#m44b93ff15d" x="859.418475" y="286.073352" style="stroke: #000000"/>
     <use xlink:href="#m44b93ff15d" x="864.387546" y="286.073352" style="stroke: #000000"/>
     <use xlink:href="#m44b93ff15d" x="869.356618" y="120.295481" style="stroke: #000000"/>
     <use xlink:href="#m44b93ff15d" x="874.325689" y="286.073352" style="stroke: #000000"/>
     <use xlink:href="#m44b93ff15d" x="879.455053" y="286.073352" style="stroke: #000000"/>
     <use xlink:href="#m44b93ff15d" x="884.424124" y="120.295481" style="stroke: #000000"/>
     <use xlink:href="#m44b93ff15d" x="889.393196" y="286.073352" style="stroke: #000000"/>
     <use xlink:href="#m44b93ff15d" x="894.362267" y="120.295481" style="stroke: #000000"/>
     <use xlink:href="#m44b93ff15d" x="899.491631" y="286.073352" style="stroke: #000000"/>
     <use xlink:href="#m44b93ff15d" x="904.460702" y="286.073352" style="stroke: #000000"/>
     <use xlink:href="#m44b93ff15d" x="909.429774" y="120.295481" style="stroke: #000000"/>
     <use xlink:href="#m44b93ff15d" x="914.398845" y="286.073352" style="stroke: #000000"/>
     <use xlink:href="#m44b93ff15d" x="919.528209" y="286.073352" style="stroke: #000000"/>
     <use xlink:href="#m44b93ff15d" x="924.497281" y="120.295481" style="stroke: #000000"/>
     <use xlink:href="#m44b93ff15d" x="929.466352" y="286.073352" style="stroke: #000000"/>
    </g>
   </g>
   <g id="patch_3">
    <path d="M 135 448.56 
L 135 60.48 
" style="fill: none; stroke: #000000; stroke-width: 0.8; stroke-linejoin: miter; stroke-linecap: square"/>
   </g>
   <g id="patch_4">
    <path d="M 972 448.56 
L 972 60.48 
" style="fill: none; stroke: #000000; stroke-width: 0.8; stroke-linejoin: miter; stroke-linecap: square"/>
   </g>
   <g id="patch_5">
    <path d="M 135 448.56 
L 972 448.56 
" style="fill: none; stroke: #000000; stroke-width: 0.8; stroke-linejoin: miter; stroke-linecap: square"/>
   </g>
   <g id="patch_6">
    <path d="M 135 60.48 
L 972 60.48 
" style="fill: none; stroke: #000000; stroke-width: 0.8; stroke-linejoin: miter; stroke-linecap: square"/>
   </g>
   <g id="legend_1">
    <g id="patch_7">
     <path d="M 142 443.56 
L 211.084375 443.56 
Q 213.084375 443.56 213.084375 441.56 
L 213.084375 397.969375 
Q 213.084375 395.969375 211.084375 395.969375 
L 142 395.969375 
Q 140 395.969375 140 397.969375 
L 140 441.56 
Q 140 443.56 142 443.56 
z
" style="fill: #ffffff; opacity: 0.8; stroke: #cccccc; stroke-linejoin: miter"/>
    </g>
    <g id="line2d_13">
     <path d="M 144 404.067813 
L 154 404.067813 
L 164 404.067813 
" style="fill: none; stroke: #1f77b4; stroke-width: 1.5; stroke-linecap: square"/>
    </g>
    <g id="text_11">
     <!-- nw_0 -->
     <g transform="translate(172 407.567813) scale(0.1 -0.1)">
      <defs>
       <path id="DejaVuSans-6e" d="M 3513 2113 
L 3513 0 
L 2938 0 
L 2938 2094 
Q 2938 2591 2744 2837 
Q 2550 3084 2163 3084 
Q 1697 3084 1428 2787 
Q 1159 2491 1159 1978 
L 1159 0 
L 581 0 
L 581 3500 
L 1159 3500 
L 1159 2956 
Q 1366 3272 1645 3428 
Q 1925 3584 2291 3584 
Q 2894 3584 3203 3211 
Q 3513 2838 3513 2113 
z
" transform="scale(0.015625)"/>
       <path id="DejaVuSans-77" d="M 269 3500 
L 844 3500 
L 1563 769 
L 2278 3500 
L 2956 3500 
L 3675 769 
L 4391 3500 
L 4966 3500 
L 4050 0 
L 3372 0 
L 2619 2869 
L 1863 0 
L 1184 0 
L 269 3500 
z
" transform="scale(0.015625)"/>
       <path id="DejaVuSans-5f" d="M 3263 -1063 
L 3263 -1509 
L -63 -1509 
L -63 -1063 
L 3263 -1063 
z
" transform="scale(0.015625)"/>
      </defs>
      <use xlink:href="#DejaVuSans-6e"/>
      <use xlink:href="#DejaVuSans-77" x="63.378906"/>
      <use xlink:href="#DejaVuSans-5f" x="145.166016"/>
      <use xlink:href="#DejaVuSans-30" x="195.166016"/>
     </g>
    </g>
    <g id="line2d_14">
     <path d="M 144 419.024063 
L 154 419.024063 
L 164 419.024063 
" style="fill: none; stroke: #ff7f0e; stroke-width: 1.5; stroke-linecap: square"/>
    </g>
    <g id="text_12">
     <!-- input_0 -->
     <g transform="translate(172 422.524063) scale(0.1 -0.1)">
      <defs>
       <path id="DejaVuSans-69" d="M 603 3500 
L 1178 3500 
L 1178 0 
L 603 0 
L 603 3500 
z
M 603 4863 
L 1178 4863 
L 1178 4134 
L 603 4134 
L 603 4863 
z
" transform="scale(0.015625)"/>
       <path id="DejaVuSans-70" d="M 1159 525 
L 1159 -1331 
L 581 -1331 
L 581 3500 
L 1159 3500 
L 1159 2969 
Q 1341 3281 1617 3432 
Q 1894 3584 2278 3584 
Q 2916 3584 3314 3078 
Q 3713 2572 3713 1747 
Q 3713 922 3314 415 
Q 2916 -91 2278 -91 
Q 1894 -91 1617 61 
Q 1341 213 1159 525 
z
M 3116 1747 
Q 3116 2381 2855 2742 
Q 2594 3103 2138 3103 
Q 1681 3103 1420 2742 
Q 1159 2381 1159 1747 
Q 1159 1113 1420 752 
Q 1681 391 2138 391 
Q 2594 391 2855 752 
Q 3116 1113 3116 1747 
z
" transform="scale(0.015625)"/>
       <path id="DejaVuSans-75" d="M 544 1381 
L 544 3500 
L 1119 3500 
L 1119 1403 
Q 1119 906 1312 657 
Q 1506 409 1894 409 
Q 2359 409 2629 706 
Q 2900 1003 2900 1516 
L 2900 3500 
L 3475 3500 
L 3475 0 
L 2900 0 
L 2900 538 
Q 2691 219 2414 64 
Q 2138 -91 1772 -91 
Q 1169 -91 856 284 
Q 544 659 544 1381 
z
M 1991 3584 
L 1991 3584 
z
" transform="scale(0.015625)"/>
      </defs>
      <use xlink:href="#DejaVuSans-69"/>
      <use xlink:href="#DejaVuSans-6e" x="27.783203"/>
      <use xlink:href="#DejaVuSans-70" x="91.162109"/>
      <use xlink:href="#DejaVuSans-75" x="154.638672"/>
      <use xlink:href="#DejaVuSans-74" x="218.017578"/>
      <use xlink:href="#DejaVuSans-5f" x="257.226562"/>
      <use xlink:href="#DejaVuSans-30" x="307.226562"/>
     </g>
    </g>
    <g id="line2d_15">
     <path d="M 144 433.980312 
L 154 433.980312 
L 164 433.980312 
" style="fill: none; stroke: #000000; stroke-width: 1.5; stroke-linecap: square"/>
     <g>
      <use xlink:href="#m44b93ff15d" x="154" y="433.980312" style="stroke: #000000"/>
     </g>
    </g>
    <g id="text_13">
     <!-- target -->
     <g transform="translate(172 437.480312) scale(0.1 -0.1)">
      <defs>
       <path id="DejaVuSans-61" d="M 2194 1759 
Q 1497 1759 1228 1600 
Q 959 1441 959 1056 
Q 959 750 1161 570 
Q 1363 391 1709 391 
Q 2188 391 2477 730 
Q 2766 1069 2766 1631 
L 2766 1759 
L 2194 1759 
z
M 3341 1997 
L 3341 0 
L 2766 0 
L 2766 531 
Q 2569 213 2275 61 
Q 1981 -91 1556 -91 
Q 1019 -91 701 211 
Q 384 513 384 1019 
Q 384 1609 779 1909 
Q 1175 2209 1959 2209 
L 2766 2209 
L 2766 2266 
Q 2766 2663 2505 2880 
Q 2244 3097 1772 3097 
Q 1472 3097 1187 3025 
Q 903 2953 641 2809 
L 641 3341 
Q 956 3463 1253 3523 
Q 1550 3584 1831 3584 
Q 2591 3584 2966 3190 
Q 3341 2797 3341 1997 
z
" transform="scale(0.015625)"/>
       <path id="DejaVuSans-72" d="M 2631 2963 
Q 2534 3019 2420 3045 
Q 2306 3072 2169 3072 
Q 1681 3072 1420 2755 
Q 1159 2438 1159 1844 
L 1159 0 
L 581 0 
L 581 3500 
L 1159 3500 
L 1159 2956 
Q 1341 3275 1631 3429 
Q 1922 3584 2338 3584 
Q 2397 3584 2469 3576 
Q 2541 3569 2628 3553 
L 2631 2963 
z
" transform="scale(0.015625)"/>
       <path id="DejaVuSans-67" d="M 2906 1791 
Q 2906 2416 2648 2759 
Q 2391 3103 1925 3103 
Q 1463 3103 1205 2759 
Q 947 2416 947 1791 
Q 947 1169 1205 825 
Q 1463 481 1925 481 
Q 2391 481 2648 825 
Q 2906 1169 2906 1791 
z
M 3481 434 
Q 3481 -459 3084 -895 
Q 2688 -1331 1869 -1331 
Q 1566 -1331 1297 -1286 
Q 1028 -1241 775 -1147 
L 775 -588 
Q 1028 -725 1275 -790 
Q 1522 -856 1778 -856 
Q 2344 -856 2625 -561 
Q 2906 -266 2906 331 
L 2906 616 
Q 2728 306 2450 153 
Q 2172 0 1784 0 
Q 1141 0 747 490 
Q 353 981 353 1791 
Q 353 2603 747 3093 
Q 1141 3584 1784 3584 
Q 2172 3584 2450 3431 
Q 2728 3278 2906 2969 
L 2906 3500 
L 3481 3500 
L 3481 434 
z
" transform="scale(0.015625)"/>
       <path id="DejaVuSans-65" d="M 3597 1894 
L 3597 1613 
L 953 1613 
Q 991 1019 1311 708 
Q 1631 397 2203 397 
Q 2534 397 2845 478 
Q 3156 559 3463 722 
L 3463 178 
Q 3153 47 2828 -22 
Q 2503 -91 2169 -91 
Q 1331 -91 842 396 
Q 353 884 353 1716 
Q 353 2575 817 3079 
Q 1281 3584 2069 3584 
Q 2775 3584 3186 3129 
Q 3597 2675 3597 1894 
z
M 3022 2063 
Q 3016 2534 2758 2815 
Q 2500 3097 2075 3097 
Q 1594 3097 1305 2825 
Q 1016 2553 972 2059 
L 3022 2063 
z
" transform="scale(0.015625)"/>
      </defs>
      <use xlink:href="#DejaVuSans-74"/>
      <use xlink:href="#DejaVuSans-61" x="39.208984"/>
      <use xlink:href="#DejaVuSans-72" x="100.488281"/>
      <use xlink:href="#DejaVuSans-67" x="139.851562"/>
      <use xlink:href="#DejaVuSans-65" x="203.328125"/>
      <use xlink:href="#DejaVuSans-74" x="264.851562"/>
     </g>
    </g>
   </g>
  </g>
 </g>
 <defs>
  <clipPath id="p122957b22b">
   <rect x="135" y="60.48" width="837" height="388.08"/>
  </clipPath>
 </defs>
</svg>
