<?xml version="1.0" encoding="utf-8" standalone="no"?>
<!DOCTYPE svg PUBLIC "-//W3C//DTD SVG 1.1//EN"
  "http://www.w3.org/Graphics/SVG/1.1/DTD/svg11.dtd">
<svg xmlns:xlink="http://www.w3.org/1999/xlink" width="1080pt" height="504pt" viewBox="0 0 1080 504" xmlns="http://www.w3.org/2000/svg" version="1.1">
 <metadata>
  <rdf:RDF xmlns:dc="http://purl.org/dc/elements/1.1/" xmlns:cc="http://creativecommons.org/ns#" xmlns:rdf="http://www.w3.org/1999/02/22-rdf-syntax-ns#">
   <cc:Work>
    <dc:type rdf:resource="http://purl.org/dc/dcmitype/StillImage"/>
    <dc:date>2024-05-09T11:02:46.142822</dc:date>
    <dc:format>image/svg+xml</dc:format>
    <dc:creator>
     <cc:Agent>
      <dc:title>Matplotlib v3.7.1, https://matplotlib.org/</dc:title>
     </cc:Agent>
    </dc:creator>
   </cc:Work>
  </rdf:RDF>
 </metadata>
 <defs>
  <style type="text/css">*{stroke-linejoin: round; stroke-linecap: butt}</style>
 </defs>
 <g id="figure_1">
  <g id="patch_1">
   <path d="M 0 504 
L 1080 504 
L 1080 0 
L 0 0 
z
" style="fill: #ffffff"/>
  </g>
  <g id="axes_1">
   <g id="patch_2">
    <path d="M 135 448.56 
L 972 448.56 
L 972 60.48 
L 135 60.48 
z
" style="fill: #ffffff"/>
   </g>
   <g id="matplotlib.axis_1">
    <g id="xtick_1">
     <g id="line2d_1">
      <defs>
       <path id="m6c73a71eea" d="M 0 0 
L 0 3.5 
" style="stroke: #000000; stroke-width: 0.8"/>
      </defs>
      <g>
       <use xlink:href="#m6c73a71eea" x="173.045455" y="448.56" style="stroke: #000000; stroke-width: 0.8"/>
      </g>
     </g>
     <g id="text_1">
      <!-- 0 -->
      <g transform="translate(169.864205 463.158437) scale(0.1 -0.1)">
       <defs>
        <path id="DejaVuSans-30" d="M 2034 4250 
Q 1547 4250 1301 3770 
Q 1056 3291 1056 2328 
Q 1056 1369 1301 889 
Q 1547 409 2034 409 
Q 2525 409 2770 889 
Q 3016 1369 3016 2328 
Q 3016 3291 2770 3770 
Q 2525 4250 2034 4250 
z
M 2034 4750 
Q 2819 4750 3233 4129 
Q 3647 3509 3647 2328 
Q 3647 1150 3233 529 
Q 2819 -91 2034 -91 
Q 1250 -91 836 529 
Q 422 1150 422 2328 
Q 422 3509 836 4129 
Q 1250 4750 2034 4750 
z
" transform="scale(0.015625)"/>
       </defs>
       <use xlink:href="#DejaVuSans-30"/>
      </g>
     </g>
    </g>
    <g id="xtick_2">
     <g id="line2d_2">
      <g>
       <use xlink:href="#m6c73a71eea" x="333.33808" y="448.56" style="stroke: #000000; stroke-width: 0.8"/>
      </g>
     </g>
     <g id="text_2">
      <!-- 1000 -->
      <g transform="translate(320.61308 463.158437) scale(0.1 -0.1)">
       <defs>
        <path id="DejaVuSans-31" d="M 794 531 
L 1825 531 
L 1825 4091 
L 703 3866 
L 703 4441 
L 1819 4666 
L 2450 4666 
L 2450 531 
L 3481 531 
L 3481 0 
L 794 0 
L 794 531 
z
" transform="scale(0.015625)"/>
       </defs>
       <use xlink:href="#DejaVuSans-31"/>
       <use xlink:href="#DejaVuSans-30" x="63.623047"/>
       <use xlink:href="#DejaVuSans-30" x="127.246094"/>
       <use xlink:href="#DejaVuSans-30" x="190.869141"/>
      </g>
     </g>
    </g>
    <g id="xtick_3">
     <g id="line2d_3">
      <g>
       <use xlink:href="#m6c73a71eea" x="493.630705" y="448.56" style="stroke: #000000; stroke-width: 0.8"/>
      </g>
     </g>
     <g id="text_3">
      <!-- 2000 -->
      <g transform="translate(480.905705 463.158437) scale(0.1 -0.1)">
       <defs>
        <path id="DejaVuSans-32" d="M 1228 531 
L 3431 531 
L 3431 0 
L 469 0 
L 469 531 
Q 828 903 1448 1529 
Q 2069 2156 2228 2338 
Q 2531 2678 2651 2914 
Q 2772 3150 2772 3378 
Q 2772 3750 2511 3984 
Q 2250 4219 1831 4219 
Q 1534 4219 1204 4116 
Q 875 4013 500 3803 
L 500 4441 
Q 881 4594 1212 4672 
Q 1544 4750 1819 4750 
Q 2544 4750 2975 4387 
Q 3406 4025 3406 3419 
Q 3406 3131 3298 2873 
Q 3191 2616 2906 2266 
Q 2828 2175 2409 1742 
Q 1991 1309 1228 531 
z
" transform="scale(0.015625)"/>
       </defs>
       <use xlink:href="#DejaVuSans-32"/>
       <use xlink:href="#DejaVuSans-30" x="63.623047"/>
       <use xlink:href="#DejaVuSans-30" x="127.246094"/>
       <use xlink:href="#DejaVuSans-30" x="190.869141"/>
      </g>
     </g>
    </g>
    <g id="xtick_4">
     <g id="line2d_4">
      <g>
       <use xlink:href="#m6c73a71eea" x="653.92333" y="448.56" style="stroke: #000000; stroke-width: 0.8"/>
      </g>
     </g>
     <g id="text_4">
      <!-- 3000 -->
      <g transform="translate(641.19833 463.158437) scale(0.1 -0.1)">
       <defs>
        <path id="DejaVuSans-33" d="M 2597 2516 
Q 3050 2419 3304 2112 
Q 3559 1806 3559 1356 
Q 3559 666 3084 287 
Q 2609 -91 1734 -91 
Q 1441 -91 1130 -33 
Q 819 25 488 141 
L 488 750 
Q 750 597 1062 519 
Q 1375 441 1716 441 
Q 2309 441 2620 675 
Q 2931 909 2931 1356 
Q 2931 1769 2642 2001 
Q 2353 2234 1838 2234 
L 1294 2234 
L 1294 2753 
L 1863 2753 
Q 2328 2753 2575 2939 
Q 2822 3125 2822 3475 
Q 2822 3834 2567 4026 
Q 2313 4219 1838 4219 
Q 1578 4219 1281 4162 
Q 984 4106 628 3988 
L 628 4550 
Q 988 4650 1302 4700 
Q 1616 4750 1894 4750 
Q 2613 4750 3031 4423 
Q 3450 4097 3450 3541 
Q 3450 3153 3228 2886 
Q 3006 2619 2597 2516 
z
" transform="scale(0.015625)"/>
       </defs>
       <use xlink:href="#DejaVuSans-33"/>
       <use xlink:href="#DejaVuSans-30" x="63.623047"/>
       <use xlink:href="#DejaVuSans-30" x="127.246094"/>
       <use xlink:href="#DejaVuSans-30" x="190.869141"/>
      </g>
     </g>
    </g>
    <g id="xtick_5">
     <g id="line2d_5">
      <g>
       <use xlink:href="#m6c73a71eea" x="814.215955" y="448.56" style="stroke: #000000; stroke-width: 0.8"/>
      </g>
     </g>
     <g id="text_5">
      <!-- 4000 -->
      <g transform="translate(801.490955 463.158437) scale(0.1 -0.1)">
       <defs>
        <path id="DejaVuSans-34" d="M 2419 4116 
L 825 1625 
L 2419 1625 
L 2419 4116 
z
M 2253 4666 
L 3047 4666 
L 3047 1625 
L 3713 1625 
L 3713 1100 
L 3047 1100 
L 3047 0 
L 2419 0 
L 2419 1100 
L 313 1100 
L 313 1709 
L 2253 4666 
z
" transform="scale(0.015625)"/>
       </defs>
       <use xlink:href="#DejaVuSans-34"/>
       <use xlink:href="#DejaVuSans-30" x="63.623047"/>
       <use xlink:href="#DejaVuSans-30" x="127.246094"/>
       <use xlink:href="#DejaVuSans-30" x="190.869141"/>
      </g>
     </g>
    </g>
    <g id="text_6">
     <!-- t -->
     <g transform="translate(551.539844 476.836563) scale(0.1 -0.1)">
      <defs>
       <path id="DejaVuSans-74" d="M 1172 4494 
L 1172 3500 
L 2356 3500 
L 2356 3053 
L 1172 3053 
L 1172 1153 
Q 1172 725 1289 603 
Q 1406 481 1766 481 
L 2356 481 
L 2356 0 
L 1766 0 
Q 1100 0 847 248 
Q 594 497 594 1153 
L 594 3053 
L 172 3053 
L 172 3500 
L 594 3500 
L 594 4494 
L 1172 4494 
z
" transform="scale(0.015625)"/>
      </defs>
      <use xlink:href="#DejaVuSans-74"/>
     </g>
    </g>
   </g>
   <g id="matplotlib.axis_2">
    <g id="ytick_1">
     <g id="line2d_6">
      <defs>
       <path id="m1ed500bfbc" d="M 0 0 
L -3.5 0 
" style="stroke: #000000; stroke-width: 0.8"/>
      </defs>
      <g>
       <use xlink:href="#m1ed500bfbc" x="135" y="411.229068" style="stroke: #000000; stroke-width: 0.8"/>
      </g>
     </g>
     <g id="text_7">
      <!-- −7.5 -->
      <g transform="translate(103.717187 415.028287) scale(0.1 -0.1)">
       <defs>
        <path id="DejaVuSans-2212" d="M 678 2272 
L 4684 2272 
L 4684 1741 
L 678 1741 
L 678 2272 
z
" transform="scale(0.015625)"/>
        <path id="DejaVuSans-37" d="M 525 4666 
L 3525 4666 
L 3525 4397 
L 1831 0 
L 1172 0 
L 2766 4134 
L 525 4134 
L 525 4666 
z
" transform="scale(0.015625)"/>
        <path id="DejaVuSans-2e" d="M 684 794 
L 1344 794 
L 1344 0 
L 684 0 
L 684 794 
z
" transform="scale(0.015625)"/>
        <path id="DejaVuSans-35" d="M 691 4666 
L 3169 4666 
L 3169 4134 
L 1269 4134 
L 1269 2991 
Q 1406 3038 1543 3061 
Q 1681 3084 1819 3084 
Q 2600 3084 3056 2656 
Q 3513 2228 3513 1497 
Q 3513 744 3044 326 
Q 2575 -91 1722 -91 
Q 1428 -91 1123 -41 
Q 819 9 494 109 
L 494 744 
Q 775 591 1075 516 
Q 1375 441 1709 441 
Q 2250 441 2565 725 
Q 2881 1009 2881 1497 
Q 2881 1984 2565 2268 
Q 2250 2553 1709 2553 
Q 1456 2553 1204 2497 
Q 953 2441 691 2322 
L 691 4666 
z
" transform="scale(0.015625)"/>
       </defs>
       <use xlink:href="#DejaVuSans-2212"/>
       <use xlink:href="#DejaVuSans-37" x="83.789062"/>
       <use xlink:href="#DejaVuSans-2e" x="147.412109"/>
       <use xlink:href="#DejaVuSans-35" x="179.199219"/>
      </g>
     </g>
    </g>
    <g id="ytick_2">
     <g id="line2d_7">
      <g>
       <use xlink:href="#m1ed500bfbc" x="135" y="359.662761" style="stroke: #000000; stroke-width: 0.8"/>
      </g>
     </g>
     <g id="text_8">
      <!-- −5.0 -->
      <g transform="translate(103.717187 363.461979) scale(0.1 -0.1)">
       <use xlink:href="#DejaVuSans-2212"/>
       <use xlink:href="#DejaVuSans-35" x="83.789062"/>
       <use xlink:href="#DejaVuSans-2e" x="147.412109"/>
       <use xlink:href="#DejaVuSans-30" x="179.199219"/>
      </g>
     </g>
    </g>
    <g id="ytick_3">
     <g id="line2d_8">
      <g>
       <use xlink:href="#m1ed500bfbc" x="135" y="308.096453" style="stroke: #000000; stroke-width: 0.8"/>
      </g>
     </g>
     <g id="text_9">
      <!-- −2.5 -->
      <g transform="translate(103.717187 311.895672) scale(0.1 -0.1)">
       <use xlink:href="#DejaVuSans-2212"/>
       <use xlink:href="#DejaVuSans-32" x="83.789062"/>
       <use xlink:href="#DejaVuSans-2e" x="147.412109"/>
       <use xlink:href="#DejaVuSans-35" x="179.199219"/>
      </g>
     </g>
    </g>
    <g id="ytick_4">
     <g id="line2d_9">
      <g>
       <use xlink:href="#m1ed500bfbc" x="135" y="256.530146" style="stroke: #000000; stroke-width: 0.8"/>
      </g>
     </g>
     <g id="text_10">
      <!-- 0.0 -->
      <g transform="translate(112.096875 260.329364) scale(0.1 -0.1)">
       <use xlink:href="#DejaVuSans-30"/>
       <use xlink:href="#DejaVuSans-2e" x="63.623047"/>
       <use xlink:href="#DejaVuSans-30" x="95.410156"/>
      </g>
     </g>
    </g>
    <g id="ytick_5">
     <g id="line2d_10">
      <g>
       <use xlink:href="#m1ed500bfbc" x="135" y="204.963838" style="stroke: #000000; stroke-width: 0.8"/>
      </g>
     </g>
     <g id="text_11">
      <!-- 2.5 -->
      <g transform="translate(112.096875 208.763057) scale(0.1 -0.1)">
       <use xlink:href="#DejaVuSans-32"/>
       <use xlink:href="#DejaVuSans-2e" x="63.623047"/>
       <use xlink:href="#DejaVuSans-35" x="95.410156"/>
      </g>
     </g>
    </g>
    <g id="ytick_6">
     <g id="line2d_11">
      <g>
       <use xlink:href="#m1ed500bfbc" x="135" y="153.397531" style="stroke: #000000; stroke-width: 0.8"/>
      </g>
     </g>
     <g id="text_12">
      <!-- 5.0 -->
      <g transform="translate(112.096875 157.196749) scale(0.1 -0.1)">
       <use xlink:href="#DejaVuSans-35"/>
       <use xlink:href="#DejaVuSans-2e" x="63.623047"/>
       <use xlink:href="#DejaVuSans-30" x="95.410156"/>
      </g>
     </g>
    </g>
    <g id="ytick_7">
     <g id="line2d_12">
      <g>
       <use xlink:href="#m1ed500bfbc" x="135" y="101.831223" style="stroke: #000000; stroke-width: 0.8"/>
      </g>
     </g>
     <g id="text_13">
      <!-- 7.5 -->
      <g transform="translate(112.096875 105.630442) scale(0.1 -0.1)">
       <use xlink:href="#DejaVuSans-37"/>
       <use xlink:href="#DejaVuSans-2e" x="63.623047"/>
       <use xlink:href="#DejaVuSans-35" x="95.410156"/>
      </g>
     </g>
    </g>
   </g>
   <g id="line2d_13">
    <path d="M 173.045455 212.055149 
L 173.526332 124.247193 
L 173.846918 106.632648 
L 174.00721 107.903391 
L 174.327796 125.207121 
L 174.808673 173.212895 
L 175.930722 295.863692 
L 176.4116 329.448966 
L 176.732185 341.210434 
L 176.892478 343.408347 
L 177.05277 342.958628 
L 177.213063 339.736146 
L 177.533648 324.570707 
L 177.693941 312.484989 
L 178.014526 398.861042 
L 178.335111 429.190393 
L 178.495404 430.92 
L 178.655696 426.09422 
L 178.976282 401.395723 
L 179.45716 339.285075 
L 180.899793 131.208012 
L 181.380671 93.653922 
L 181.701256 81.286001 
L 181.861549 78.640868 
L 182.021842 78.12 
L 182.182134 79.502591 
L 182.502719 86.987452 
L 182.983597 106.126648 
L 184.265938 162.789381 
L 184.907109 180.330136 
L 185.387987 187.907614 
L 185.868865 192.00513 
L 186.349742 194.106579 
L 187.151206 196.766642 
L 187.632083 199.38575 
L 188.112961 203.36535 
L 188.754132 210.840036 
L 189.87618 227.620087 
L 190.998229 243.554844 
L 191.799692 251.756544 
L 192.440862 256.098676 
L 192.92174 258.227104 
L 193.402618 259.569635 
L 193.883496 260.277007 
L 194.204081 260.455572 
L 194.524666 260.433519 
L 195.005544 260.083015 
L 195.646715 259.188975 
L 196.768763 257.465301 
L 197.249641 257.137447 
L 197.570226 257.171187 
L 197.890811 257.432376 
L 198.371689 258.240687 
L 199.01286 259.90708 
L 199.974616 262.510126 
L 200.455493 263.199146 
L 200.776079 263.236403 
L 201.096664 262.86296 
L 201.417249 262.040638 
L 201.898127 259.944023 
L 202.539298 255.672878 
L 203.501053 247.206641 
L 204.623102 237.427073 
L 205.264272 233.445953 
L 205.74515 231.665787 
L 206.065735 231.118665 
L 206.226028 231.0405 
L 206.386321 231.0912 
L 206.706906 231.567797 
L 207.027491 232.514549 
L 207.508369 234.702951 
L 208.309832 239.817263 
L 210.073051 251.741459 
L 210.714221 254.373722 
L 211.034807 255.107264 
L 211.355392 255.410505 
L 211.515685 255.395122 
L 211.83627 255.025535 
L 212.156855 254.20615 
L 212.637733 252.162598 
L 213.278903 248.057691 
L 213.599489 271.597087 
L 213.759781 270.769532 
L 214.721537 249.724953 
L 215.202415 246.202863 
L 215.843585 241.636147 
L 216.645049 235.874524 
L 217.606804 231.611156 
L 217.92739 227.659849 
L 218.087682 224.408737 
L 218.408267 245.024686 
L 218.889145 259.147475 
L 219.209731 262.94905 
L 219.370023 263.477969 
L 219.530316 263.240485 
L 219.850901 261.051812 
L 220.652364 251.708349 
L 221.453827 243.641616 
L 221.934705 240.855324 
L 222.25529 240.157979 
L 222.415583 240.180466 
L 222.575876 240.444234 
L 222.896461 241.631964 
L 223.377339 244.667072 
L 224.65968 253.881528 
L 225.140558 255.883088 
L 225.461143 256.569557 
L 225.781728 256.752796 
L 226.102313 256.471531 
L 226.422899 255.775483 
L 226.903777 254.076929 
L 227.70524 250.043422 
L 229.147873 242.508512 
L 229.628751 240.886763 
L 230.109629 239.976799 
L 230.430214 239.783946 
L 230.7508 239.911548 
L 231.071385 240.335933 
L 231.552263 241.453877 
L 232.193433 243.619548 
L 234.597823 252.703988 
L 235.238993 254.154552 
L 235.880164 255.049564 
L 236.521334 255.51728 
L 237.322797 255.760429 
L 238.444846 255.831956 
L 239.086016 255.688159 
L 239.566894 255.389658 
L 240.047772 254.848137 
L 240.52865 254.005377 
L 241.16982 252.368109 
L 241.971283 249.577118 
L 244.21538 241.150236 
L 244.696258 240.124237 
L 245.177136 239.597714 
L 245.497721 239.542784 
L 245.818306 239.725176 
L 246.299184 240.421451 
L 246.780062 241.565472 
L 247.581525 244.192653 
L 249.505037 250.89578 
L 250.146207 252.222677 
L 250.627085 252.700364 
L 250.94767 252.748948 
L 251.268256 252.576591 
L 251.749133 251.910297 
L 252.230011 250.784088 
L 252.871182 248.66653 
L 253.832938 244.57091 
L 253.99323 243.828152 
L 254.153523 258.62605 
L 254.313815 262.881817 
L 254.474108 261.424167 
L 255.435864 238.491747 
L 255.756449 235.873517 
L 256.077034 234.911069 
L 256.237327 234.818654 
L 256.39762 234.930221 
L 256.718205 235.742031 
L 257.03879 237.366711 
L 258.160838 244.954962 
L 258.321131 244.837413 
L 258.481424 243.927213 
L 258.802009 238.969858 
L 259.122594 250.207229 
L 259.443179 254.630701 
L 259.763765 257.043902 
L 260.08435 258.090617 
L 260.244643 258.196959 
L 260.565228 257.927521 
L 261.206398 257.209759 
L 262.488739 256.584188 
L 263.12991 256.012489 
L 263.450495 255.907746 
L 263.931373 256.042324 
L 264.893129 256.509308 
L 265.213714 256.419161 
L 265.534299 256.125892 
L 266.015177 255.304811 
L 266.656348 253.614638 
L 267.457811 250.826349 
L 270.022493 241.161105 
L 270.503371 240.314003 
L 270.823956 240.066338 
L 271.144541 240.080153 
L 271.465126 240.349353 
L 271.946004 241.194645 
L 272.587175 243.001213 
L 273.709223 247.198732 
L 274.831271 251.230897 
L 275.632735 253.26358 
L 276.273905 254.257127 
L 276.915076 254.784889 
L 277.716539 255.063337 
L 279.479758 255.349007 
L 280.120928 255.249677 
L 280.601806 254.946578 
L 281.082684 254.363707 
L 281.563562 253.451211 
L 282.204732 251.706954 
L 283.166488 248.198887 
L 284.769414 242.212966 
L 285.410585 240.691429 
L 285.891463 240.103082 
L 286.212048 239.99998 
L 286.532633 240.130608 
L 286.853218 240.487442 
L 287.334096 241.410798 
L 287.975267 243.230666 
L 290.700241 251.928772 
L 291.181119 252.5685 
L 291.501704 252.736252 
L 291.82229 252.687843 
L 292.142875 252.42206 
L 292.623753 251.627186 
L 293.264923 249.892931 
L 293.585509 248.778969 
L 293.745801 263.221157 
L 293.906094 266.93879 
L 294.066386 264.850425 
L 295.028142 238.732658 
L 295.348727 235.580822 
L 295.669313 234.268491 
L 295.829605 234.042704 
L 295.989898 234.036906 
L 296.150191 234.236043 
L 296.470776 235.256454 
L 296.951654 238.286781 
L 297.592824 243.033072 
L 297.753117 243.608419 
L 297.913409 243.620382 
L 298.073702 242.885267 
L 298.394287 238.418096 
L 298.714873 251.150835 
L 299.19575 258.697956 
L 299.516336 260.981114 
L 299.836921 261.618973 
L 299.997214 261.505962 
L 301.439847 259.255561 
L 302.081018 258.409599 
L 302.882481 257.232701 
L 303.363359 256.892333 
L 304.004529 256.807178 
L 304.485407 256.709149 
L 304.966285 256.349208 
L 305.447163 255.652048 
L 306.088333 254.251881 
L 306.889796 251.921841 
L 307.851552 248.426151 
L 309.454478 242.362068 
L 310.095649 240.835106 
L 310.576527 240.300797 
L 310.897112 240.26166 
L 311.217697 240.474327 
L 311.698575 241.234693 
L 312.339746 242.940421 
L 313.301501 246.404054 
L 314.583842 251.019571 
L 315.385306 253.09134 
L 316.026476 254.16616 
L 316.667647 254.818692 
L 317.46911 255.285015 
L 318.751451 255.730476 
L 319.392621 255.768927 
L 319.873499 255.602408 
L 320.354377 255.184309 
L 320.835255 254.453146 
L 321.476425 252.941879 
L 322.277888 250.265215 
L 324.682278 241.44522 
L 325.163156 240.51694 
L 325.644034 240.087193 
L 325.964619 240.090782 
L 326.285204 240.323266 
L 326.766082 241.072999 
L 327.407252 242.702198 
L 328.369008 245.966525 
L 329.651349 250.236761 
L 330.29252 251.692531 
L 330.773398 252.313878 
L 331.093983 252.475138 
L 331.414568 252.425277 
L 331.735153 252.163315 
L 332.216031 251.384254 
L 332.857202 249.689471 
L 333.658665 246.740518 
L 333.818957 246.071862 
L 333.97925 260.743519 
L 334.139543 264.80494 
L 334.299835 263.107205 
L 335.261591 238.715973 
L 335.582176 235.803955 
L 335.902762 234.652315 
L 336.063054 234.49606 
L 336.223347 234.559526 
L 336.543932 235.310742 
L 336.864517 236.910239 
L 337.505688 241.951042 
L 337.826273 244.151598 
L 337.986566 244.708618 
L 338.146858 244.675264 
L 338.307151 243.866443 
L 338.627736 239.165203 
L 338.948321 250.815101 
L 339.268907 255.626194 
L 339.589492 258.29806 
L 339.910077 259.462392 
L 340.07037 259.585828 
L 340.390955 259.299601 
L 341.032126 258.495773 
L 342.314467 257.798437 
L 343.276222 256.845791 
L 343.7571 256.746632 
L 344.718856 256.741389 
L 345.199734 256.366092 
L 345.680612 255.602734 
L 346.321782 254.056822 
L 347.123245 251.513481 
L 348.405586 246.532218 
L 349.527635 242.366395 
L 350.168805 240.806134 
L 350.649683 240.241498 
L 350.970268 240.181168 
L 351.290854 240.372767 
L 351.771731 241.103262 
L 352.252609 242.294631 
L 353.054072 244.999576 
L 354.817291 251.358522 
L 355.458462 252.975728 
L 356.099632 254.050723 
L 356.740803 254.668559 
L 357.542266 255.054237 
L 359.145192 255.469261 
L 359.786363 255.450362 
L 360.267241 255.228071 
L 360.748118 254.741471 
L 361.228996 253.933156 
L 361.870167 252.320358 
L 362.67163 249.55579 
L 364.755434 241.831365 
L 365.396605 240.499723 
L 365.877482 240.074775 
L 366.198068 240.082306 
L 366.518653 240.319758 
L 366.999531 241.079409 
L 367.640701 242.726945 
L 368.602457 246.028087 
L 369.884798 250.351725 
L 370.525969 251.82852 
L 371.006846 252.460492 
L 371.327432 252.625783 
L 371.648017 252.577228 
L 371.968602 252.313684 
L 372.44948 251.526654 
L 373.090651 249.810878 
L 373.250943 263.829215 
L 373.411236 267.161981 
L 373.571528 264.738623 
L 374.533284 237.766015 
L 374.853869 234.67705 
L 375.174455 233.514077 
L 375.334747 233.379061 
L 375.49504 233.46742 
L 375.815625 234.253118 
L 376.13621 235.849487 
L 376.777381 240.830933 
L 377.097966 243.045885 
L 377.258259 243.637602 
L 377.418551 243.662312 
L 377.578844 242.937707 
L 377.899429 238.489978 
L 378.220015 251.438594 
L 378.700892 259.327009 
L 379.021478 261.752276 
L 379.342063 262.449054 
L 379.502356 262.339166 
L 379.983233 261.304782 
L 380.464111 260.399125 
L 381.58616 258.779134 
L 382.387623 257.402611 
L 382.868501 256.955379 
L 383.509671 256.764039 
L 384.150842 256.534134 
L 384.63172 256.069655 
L 385.112597 255.299844 
L 385.753768 253.865149 
L 386.555231 251.532021 
L 387.516987 248.005307 
L 389.119913 241.989587 
L 389.600791 240.839606 
L 390.081669 240.221328 
L 390.402254 240.130921 
L 390.722839 240.299376 
L 391.043425 240.715864 
L 391.524302 241.759352 
L 392.165473 243.768657 
L 394.730155 252.795146 
L 395.371325 254.090285 
L 396.012496 254.917944 
L 396.813959 255.516794 
L 397.775715 255.939459 
L 398.577178 256.103816 
L 399.058056 256.035185 
L 399.538934 255.755306 
L 400.019812 255.194789 
L 400.500689 254.304284 
L 401.14186 252.582047 
L 401.943323 249.700483 
L 403.866835 242.294329 
L 404.508005 240.754011 
L 404.988883 240.153577 
L 405.309468 240.041058 
L 405.630053 240.160007 
L 405.950639 240.502156 
L 406.431517 241.396864 
L 407.072687 243.165808 
L 409.797662 251.597267 
L 410.27854 252.210945 
L 410.599125 252.369106 
L 410.91971 252.318022 
L 411.240295 252.056889 
L 411.721173 251.283183 
L 412.362344 249.603454 
L 413.163807 246.685538 
L 413.644685 244.654236 
L 413.804977 259.433584 
L 413.96527 263.655744 
L 414.125563 262.140092 
L 415.087318 238.548259 
L 415.407904 235.747402 
L 415.728489 234.671689 
L 415.888781 234.549012 
L 416.049074 234.64635 
L 416.369659 235.470575 
L 416.690245 237.14932 
L 417.812293 245.104505 
L 417.972586 245.055625 
L 418.132878 244.218407 
L 418.453463 239.421028 
L 418.774049 250.660415 
L 419.094634 255.11138 
L 419.415219 257.543095 
L 419.735804 258.600293 
L 419.896097 258.713436 
L 420.216682 258.470456 
L 420.69756 257.952962 
L 421.018145 257.861112 
L 421.819609 257.810738 
L 422.300486 257.428275 
L 422.941657 256.873419 
L 423.422535 256.739694 
L 424.544583 256.767237 
L 424.865168 256.542904 
L 425.346046 255.864095 
L 425.987217 254.371547 
L 426.78868 251.832343 
L 428.071021 246.853012 
L 429.193069 242.611574 
L 429.83424 240.944775 
L 430.315118 240.280097 
L 430.635703 240.14912 
L 430.956288 240.270362 
L 431.276873 240.634169 
L 431.757751 241.591871 
L 432.398922 243.485985 
L 433.841555 248.858084 
L 434.803311 251.932738 
L 435.444482 253.347005 
L 436.085652 254.225805 
L 436.726823 254.689787 
L 437.688578 255.003418 
L 439.291505 255.313146 
L 439.772383 255.238926 
L 440.25326 254.957203 
L 440.734138 254.393089 
L 441.215016 253.496568 
L 441.856187 251.769155 
L 442.65765 248.908733 
L 444.420869 242.29227 
L 445.062039 240.763581 
L 445.542917 240.167482 
L 445.863502 240.058262 
L 446.184088 240.182145 
L 446.504673 240.53174 
L 446.985551 241.443608 
L 447.626721 243.247748 
L 449.069355 248.376817 
L 449.870818 250.842519 
L 450.511988 252.159438 
L 450.992866 252.644967 
L 451.313452 252.705085 
L 451.634037 252.548606 
L 451.954622 252.177169 
L 452.4355 251.234183 
L 453.07667 249.334119 
L 453.557548 247.519598 
L 453.717841 262.193909 
L 453.878134 266.164478 
L 454.038426 264.324348 
L 455.000182 239.058905 
L 455.320767 235.955761 
L 455.641352 234.636684 
L 455.801645 234.398856 
L 455.961938 234.380157 
L 456.12223 234.568051 
L 456.442816 235.576386 
L 456.923693 238.614557 
L 457.564864 243.370418 
L 457.725157 243.937526 
L 457.885449 243.934249 
L 458.045742 243.175925 
L 458.366327 238.635986 
L 458.686912 250.948797 
L 459.007498 256.273371 
L 459.328083 259.261702 
L 459.648668 260.555355 
L 459.808961 260.686457 
L 459.969253 260.582413 
L 461.091302 258.983206 
L 461.732472 258.498413 
L 463.175106 256.898324 
L 463.655984 256.82207 
L 464.457447 256.762447 
L 464.938325 256.3958 
L 465.419203 255.66484 
L 466.060373 254.189524 
L 466.861836 251.75037 
L 467.983885 247.521927 
L 469.266226 242.663561 
L 469.907396 241.024221 
L 470.388274 240.384441 
L 470.708859 240.270439 
L 471.029444 240.407982 
L 471.35003 240.78675 
L 471.830908 241.763159 
L 472.472078 243.672236 
L 475.197053 252.792333 
L 475.838223 253.917372 
L 476.479394 254.591172 
L 477.280857 255.043524 
L 478.72349 255.512626 
L 479.364661 255.561214 
L 479.845539 255.412876 
L 480.326417 255.019331 
L 480.807295 254.316361 
L 481.448465 252.843746 
L 482.249928 250.209827 
L 484.654318 241.445716 
L 485.135195 240.519186 
L 485.616073 240.090658 
L 485.936659 240.09531 
L 486.257244 240.329371 
L 486.738122 241.082853 
L 487.379292 242.720142 
L 488.341048 246.002759 
L 489.623389 250.301868 
L 490.264559 251.769603 
L 490.745437 252.397211 
L 491.066023 252.560966 
L 491.386608 252.512067 
L 491.707193 252.249413 
L 492.188071 251.466058 
L 492.829241 249.759388 
L 493.630705 246.786295 
L 493.790997 261.424325 
L 493.95129 265.41684 
L 494.111582 263.633294 
L 495.073338 238.817558 
L 495.393923 235.83342 
L 495.714509 234.625545 
L 495.874801 234.442983 
L 496.035094 234.479924 
L 496.195387 234.723687 
L 496.515972 235.841682 
L 496.99685 239.020587 
L 497.63802 243.857862 
L 497.798313 244.418248 
L 497.958605 244.396079 
L 498.118898 243.606554 
L 498.439483 238.968276 
L 498.760069 250.888665 
L 499.080654 255.920136 
L 499.401239 258.732683 
L 499.721824 259.957079 
L 499.882117 260.085261 
L 500.04241 259.994173 
L 501.004165 258.729821 
L 501.805628 258.281489 
L 502.607092 257.322415 
L 503.087969 256.890877 
L 503.568847 256.763149 
L 504.530603 256.737062 
L 505.011481 256.371225 
L 505.492359 255.628979 
L 506.133529 254.123438 
L 506.934992 251.634748 
L 508.057041 247.352127 
L 509.339382 242.500501 
L 509.980552 240.894738 
L 510.46143 240.289682 
L 510.782015 240.201715 
L 511.102601 240.366488 
L 511.423186 240.772738 
L 511.904064 241.788914 
L 512.545234 243.744342 
L 515.109916 252.554851 
L 515.751087 253.792202 
L 516.392257 254.5421 
L 517.033428 254.954518 
L 518.155476 255.349604 
L 519.277525 255.55779 
L 519.758402 255.466548 
L 520.23928 255.158058 
L 520.720158 254.561035 
L 521.201036 253.629114 
L 521.842207 251.856234 
L 522.803962 248.310353 
L 524.406889 242.288366 
L 525.048059 240.757075 
L 525.528937 240.1603 
L 525.849522 240.05039 
L 526.170107 240.172951 
L 526.490693 240.520299 
L 526.971571 241.426646 
L 527.612741 243.219072 
L 530.337716 251.795492 
L 530.818594 252.424991 
L 531.139179 252.589378 
L 531.459764 252.540584 
L 531.780349 252.277504 
L 532.261227 251.492532 
L 532.902398 249.782018 
L 533.703861 246.801908 
L 533.864153 246.125705 
L 534.024446 260.909972 
L 534.184739 265.046217 
L 534.345031 263.39479 
L 535.306787 238.967349 
L 535.627372 235.981821 
L 535.947958 234.742359 
L 536.10825 234.539258 
L 536.268543 234.555282 
L 536.428835 234.779294 
L 536.749421 235.865229 
L 537.230299 239.019357 
L 537.871469 243.85343 
L 538.031762 244.414138 
L 538.192054 244.391423 
L 538.352347 243.599923 
L 538.672932 238.951611 
L 538.993517 250.772678 
L 539.314103 255.689923 
L 539.634688 258.415676 
L 539.955273 259.595937 
L 540.115566 259.71743 
L 540.436151 259.415194 
L 541.077322 258.563681 
L 541.718492 258.320147 
L 542.19937 257.994089 
L 543.321418 256.880965 
L 543.802296 256.78557 
L 544.764052 256.779015 
L 545.24493 256.399652 
L 545.725808 255.631397 
L 546.366978 254.079588 
L 547.168441 251.533011 
L 548.450782 246.561844 
L 549.572831 242.416952 
L 550.214001 240.867677 
L 550.694879 240.307806 
L 551.015464 240.248201 
L 551.33605 240.438237 
L 551.816927 241.161869 
L 552.297805 242.341189 
L 553.099268 245.017114 
L 554.862487 251.302737 
L 555.503658 252.899328 
L 556.144828 253.959445 
L 556.785999 254.568532 
L 557.587462 254.9518 
L 559.190388 255.387282 
L 559.831559 255.383606 
L 560.312437 255.174109 
L 560.793314 254.700693 
L 561.274192 253.905233 
L 561.915363 252.307946 
L 562.716826 249.558545 
L 564.80063 241.84779 
L 565.441801 240.514766 
L 565.922678 240.088032 
L 566.243264 240.094229 
L 566.563849 240.330351 
L 567.044727 241.088192 
L 567.685897 242.733972 
L 568.647653 246.034324 
L 569.929994 250.359836 
L 570.571165 251.838088 
L 571.052042 252.47103 
L 571.372628 252.636807 
L 571.693213 252.588553 
L 572.013798 252.325081 
L 572.494676 251.537648 
L 573.135847 249.820239 
L 573.93731 246.825925 
L 574.257895 245.44808 
L 574.418188 260.361122 
L 574.57848 264.626556 
L 574.738773 263.096334 
L 575.700529 239.059822 
L 576.021114 236.088327 
L 576.341699 234.833656 
L 576.501992 234.617747 
L 576.662284 234.619976 
L 576.822577 234.830589 
L 577.143162 235.89448 
L 577.62404 239.031638 
L 578.265211 243.860397 
L 578.425503 244.418999 
L 578.585796 244.392675 
L 578.746088 243.595565 
L 579.066674 238.928499 
L 579.387259 250.648365 
L 579.707844 255.453996 
L 580.028429 258.096888 
L 580.349015 259.235938 
L 580.509307 259.3514 
L 580.829893 259.059407 
L 581.471063 258.275832 
L 582.112234 258.110807 
L 582.593111 257.837885 
L 583.71516 256.833925 
L 584.196038 256.775556 
L 585.157793 256.805775 
L 585.478379 256.59446 
L 585.959257 255.941955 
L 586.600427 254.492827 
L 587.40189 252.009674 
L 588.523939 247.736915 
L 589.966572 242.331574 
L 590.607743 240.831952 
L 591.088621 240.313274 
L 591.409206 240.280167 
L 591.729791 240.494348 
L 592.210669 241.247438 
L 592.851839 242.926339 
L 593.813595 246.329039 
L 595.095936 250.872429 
L 595.897399 252.899098 
L 596.53857 253.918387 
L 597.17974 254.490864 
L 597.981203 254.839755 
L 599.744422 255.280935 
L 600.385593 255.227305 
L 600.866471 254.953384 
L 601.347349 254.395312 
L 601.828226 253.50338 
L 602.469397 251.780317 
L 603.27086 248.923217 
L 605.034079 242.308004 
L 605.675249 240.777782 
L 606.156127 240.179791 
L 606.476713 240.06896 
L 606.797298 240.190966 
L 607.117883 240.538437 
L 607.598761 241.446729 
L 608.239931 243.245597 
L 609.682565 248.362908 
L 610.484028 250.82373 
L 611.125199 252.138281 
L 611.606077 252.623086 
L 611.926662 252.683244 
L 612.247247 252.527219 
L 612.567832 252.156634 
L 613.04871 251.21561 
L 613.209003 250.805723 
L 613.369295 264.477993 
L 613.529588 267.467734 
L 613.689881 264.727834 
L 614.491344 239.525261 
L 614.811929 234.971259 
L 615.132514 233.040183 
L 615.292807 232.685218 
L 615.4531 232.606736 
L 615.613392 232.753172 
L 615.933977 233.646104 
L 616.254563 235.32568 
L 617.376611 243.257542 
L 617.536904 243.302665 
L 617.697196 242.602797 
L 618.017782 238.221341 
L 618.338367 251.63555 
L 618.819245 260.077012 
L 619.13983 262.701174 
L 619.460415 263.46679 
L 619.620708 263.352674 
L 620.101586 262.207865 
L 620.742756 260.852569 
L 621.704512 259.131246 
L 622.505975 257.551066 
L 622.986853 257.006149 
L 623.467731 256.770216 
L 624.269194 256.459797 
L 624.750072 256.00794 
L 625.391242 254.978728 
L 626.192705 253.110125 
L 626.994169 250.650283 
L 628.116217 246.313894 
L 629.238265 242.133678 
L 629.879436 240.608306 
L 630.360314 240.09829 
L 630.680899 240.08708 
L 631.001484 240.336754 
L 631.482362 241.167604 
L 632.123533 242.986302 
L 633.085288 246.621476 
L 634.367629 251.394189 
L 635.169092 253.529883 
L 635.810263 254.659415 
L 636.451433 255.377259 
L 637.252897 255.922379 
L 638.214652 256.304599 
L 638.855823 256.36109 
L 639.336701 256.210144 
L 639.817579 255.815423 
L 640.298456 255.115514 
L 640.939627 253.649942 
L 641.74109 251.00916 
L 644.305772 241.425083 
L 644.78665 240.493293 
L 645.267528 240.062071 
L 645.588113 240.064377 
L 645.908698 240.294507 
L 646.389576 241.037559 
L 647.030747 242.650459 
L 647.992502 245.874946 
L 649.274843 250.079177 
L 649.916014 251.5069 
L 650.396892 252.113377 
L 650.717477 252.268636 
L 651.038062 252.216388 
L 651.358648 251.95597 
L 651.839525 251.187054 
L 652.480696 249.520774 
L 653.282159 246.630387 
L 653.92333 243.926667 
L 654.083622 258.700617 
L 654.243915 262.961721 
L 654.404207 261.509742 
L 655.365963 238.323625 
L 655.686548 235.615556 
L 656.007134 234.622491 
L 656.167426 234.540221 
L 656.327719 234.678181 
L 656.648304 235.584236 
L 656.968889 237.341793 
L 658.090938 245.42461 
L 658.25123 245.362072 
L 658.411523 244.501728 
L 658.732108 239.630291 
L 659.052694 250.607444 
L 659.373279 254.842986 
L 659.693864 257.136746 
L 660.014449 258.135113 
L 660.174742 258.243719 
L 660.495327 258.027395 
L 660.976205 257.598073 
L 661.29679 257.572353 
L 661.937961 257.695091 
L 662.418839 257.462633 
L 663.380594 256.75647 
L 663.861472 256.731029 
L 664.662935 256.811034 
L 664.983521 256.664636 
L 665.464399 256.1063 
L 665.945276 255.135275 
L 666.586447 253.328119 
L 667.548203 249.900609 
L 669.632007 241.975619 
L 670.112885 240.831796 
L 670.593763 240.206451 
L 670.914348 240.103015 
L 671.234933 240.251546 
L 671.555518 240.641379 
L 672.036396 241.633908 
L 672.677567 243.563413 
L 675.402541 252.780236 
L 676.043712 253.891913 
L 676.684882 254.514005 
L 677.326053 254.812189 
L 679.089272 255.210636 
L 679.890735 255.231082 
L 680.371613 255.031975 
L 680.852491 254.575584 
L 681.333368 253.800916 
L 681.974539 252.232616 
L 682.776002 249.514656 
L 684.859806 241.83936 
L 685.500977 240.508682 
L 685.981855 240.083895 
L 686.30244 240.092048 
L 686.623025 240.330918 
L 687.103903 241.094688 
L 687.745073 242.751978 
L 688.706829 246.07592 
L 689.98917 250.435415 
L 690.630341 251.926635 
L 691.111219 252.56579 
L 691.431804 252.733654 
L 691.752389 252.68567 
L 692.072974 252.420558 
L 692.553852 251.626999 
L 693.195023 249.89473 
L 693.996486 246.872299 
L 694.156778 246.185901 
L 694.317071 261.121627 
L 694.477364 265.360321 
L 694.637656 263.774292 
L 695.599412 239.325555 
L 695.919997 236.24924 
L 696.240583 234.898223 
L 696.400875 234.63479 
L 696.561168 234.589273 
L 696.72146 234.751958 
L 697.042046 235.721587 
L 697.522924 238.736925 
L 698.164094 243.493502 
L 698.324387 244.057359 
L 698.484679 244.046838 
L 698.644972 243.276232 
L 698.965557 238.693546 
L 699.286142 250.733704 
L 699.606728 255.784783 
L 699.927313 258.576507 
L 700.247898 259.773782 
L 700.408191 259.891057 
L 700.728776 259.564899 
L 701.369947 258.64611 
L 701.850824 258.416628 
L 702.331702 258.161882 
L 703.133165 257.297122 
L 703.614043 256.918679 
L 704.094921 256.831448 
L 705.056677 256.830442 
L 705.377262 256.618922 
L 705.85814 255.976062 
L 706.499311 254.555225 
L 707.300774 252.120092 
L 708.422822 247.901256 
L 709.865456 242.483459 
L 710.506626 240.946711 
L 710.987504 240.391973 
L 711.308089 240.332716 
L 711.628675 240.520207 
L 712.109552 241.234275 
L 712.59043 242.397425 
L 713.391893 245.035019 
L 715.155112 251.224928 
L 715.796283 252.794885 
L 716.437453 253.835982 
L 717.078624 254.434155 
L 717.880087 254.815044 
L 719.643306 255.303431 
L 720.284476 255.256469 
L 720.765354 254.984454 
L 721.246232 254.426278 
L 721.72711 253.532859 
L 722.36828 251.806665 
L 723.169744 248.945295 
L 724.932962 242.323114 
L 725.574133 240.790722 
L 726.055011 240.190811 
L 726.375596 240.078463 
L 726.696181 240.19872 
L 727.016767 240.544189 
L 727.497644 241.448994 
L 728.138815 243.242415 
L 729.581449 248.346098 
L 730.382912 250.800422 
L 731.024082 252.111326 
L 731.50496 252.594608 
L 731.825545 252.654402 
L 732.146131 252.498558 
L 732.466716 252.128708 
L 732.947594 251.189801 
L 733.588764 249.298007 
L 734.069642 247.491394 
L 734.229935 262.080755 
L 734.390227 265.992248 
L 734.55052 264.113848 
L 735.512276 238.872207 
L 735.832861 235.827284 
L 736.153446 234.5759 
L 736.313739 234.373279 
L 736.474031 234.389601 
L 736.634324 234.61155 
L 736.954909 235.682173 
L 737.435787 238.789762 
L 738.076958 243.575235 
L 738.23725 244.137239 
L 738.397543 244.123941 
L 738.557836 243.350892 
L 738.878421 238.76869 
L 739.199006 250.961382 
L 739.519591 256.215814 
L 739.840177 259.1714 
L 740.160762 260.457237 
L 740.321054 260.590363 
L 740.481347 260.490757 
L 741.603395 258.928533 
L 742.244566 258.44458 
L 743.6872 256.834053 
L 744.168077 256.763451 
L 744.969541 256.723 
L 745.450418 256.370242 
L 745.931296 255.652378 
L 746.572467 254.19055 
L 747.37393 251.758631 
L 748.495978 247.520206 
L 749.778319 242.631141 
L 750.41949 240.976921 
L 750.900368 240.329617 
L 751.220953 240.213123 
L 751.541538 240.350504 
L 751.862123 240.73155 
L 752.343001 241.715839 
L 752.984172 243.642578 
L 755.709146 252.860314 
L 756.350317 253.999817 
L 756.991487 254.682436 
L 757.792951 255.137698 
L 759.075292 255.556139 
L 759.876755 255.625788 
L 760.357633 255.465474 
L 760.83851 255.059334 
L 761.319388 254.343865 
L 761.960559 252.855878 
L 762.762022 250.206541 
L 765.166411 241.427834 
L 765.647289 240.502642 
L 766.128167 240.076025 
L 766.448752 240.082086 
L 766.769338 240.31755 
L 767.250215 241.072952 
L 767.891386 242.712157 
L 768.853142 245.995846 
L 770.135483 250.293528 
L 770.776653 251.760031 
L 771.257531 252.386825 
L 771.578116 252.550184 
L 771.898702 252.501061 
L 772.219287 252.238398 
L 772.700165 251.455501 
L 773.341335 249.750457 
L 773.822213 248.059134 
L 773.982506 262.455761 
L 774.142798 266.194089 
L 774.303091 264.165323 
L 775.264847 238.523716 
L 775.585432 235.498375 
L 775.906017 234.306863 
L 776.06631 234.142257 
L 776.226602 234.19874 
L 776.547188 234.928979 
L 776.867773 236.492257 
L 777.508943 241.452895 
L 777.829529 243.646382 
L 777.989821 244.216295 
L 778.150114 244.209174 
L 778.310407 243.441186 
L 778.630992 238.868091 
L 778.951577 251.130699 
L 779.432455 258.214696 
L 779.75304 260.358521 
L 780.073625 260.965784 
L 780.233918 260.867297 
L 781.355966 259.224594 
L 781.997137 258.67781 
L 783.600063 256.840392 
L 784.241234 256.78228 
L 784.722112 256.692832 
L 785.202989 256.330112 
L 785.683867 255.619075 
L 786.325038 254.186564 
L 787.126501 251.805418 
L 788.248549 247.614499 
L 789.691183 242.196115 
L 790.332353 240.704546 
L 790.813231 240.206028 
L 791.133817 240.193571 
L 791.454402 240.434109 
L 791.93528 241.236525 
L 792.57645 242.994384 
L 793.538206 246.517038 
L 794.820547 251.16151 
L 795.62201 253.223507 
L 796.263181 254.27937 
L 796.904351 254.907205 
L 797.705814 255.340385 
L 798.988155 255.740575 
L 799.629326 255.763063 
L 800.110204 255.587686 
L 800.591081 255.163148 
L 801.071959 254.427615 
L 801.71313 252.913067 
L 802.514593 250.235183 
L 804.918982 241.421582 
L 805.39986 240.496005 
L 805.880738 240.069504 
L 806.201323 240.075565 
L 806.521909 240.310762 
L 807.002786 241.064977 
L 807.643957 242.700758 
L 808.605713 245.975444 
L 809.888054 250.257724 
L 810.529224 251.717609 
L 811.010102 252.340887 
L 811.330687 252.502832 
L 811.651273 252.453156 
L 811.971858 252.190882 
L 812.452736 251.41045 
L 813.093906 249.712306 
L 813.414491 248.62317 
L 813.574784 262.852261 
L 813.735077 266.43165 
L 813.895369 264.25959 
L 814.857125 238.20505 
L 815.17771 235.185635 
L 815.498296 234.036416 
L 815.658588 233.899743 
L 815.818881 233.985662 
L 816.139466 234.772681 
L 816.460051 236.383193 
L 817.101222 241.402582 
L 817.421807 243.613319 
L 817.5821 244.190931 
L 817.742392 244.191734 
L 817.902685 243.43247 
L 818.22327 238.88117 
L 818.543855 251.276582 
L 819.024733 258.544692 
L 819.345319 260.759029 
L 819.665904 261.391637 
L 819.826196 261.292111 
L 821.108537 259.394537 
L 821.589415 258.903122 
L 823.192342 256.886185 
L 823.833512 256.77641 
L 824.31439 256.665221 
L 824.795268 256.297506 
L 825.276146 255.59725 
L 825.917316 254.197593 
L 826.718779 251.869247 
L 827.680535 248.366888 
L 829.283461 242.264936 
L 829.924632 240.724493 
L 830.40551 240.18651 
L 830.726095 240.149219 
L 831.04668 240.367618 
L 831.527558 241.144025 
L 832.168729 242.883658 
L 833.130484 246.415159 
L 834.412825 251.12135 
L 835.214288 253.235028 
L 835.855459 254.331761 
L 836.496629 254.995458 
L 837.298093 255.461186 
L 838.420141 255.843494 
L 839.061311 255.908708 
L 839.542189 255.788281 
L 840.023067 255.439494 
L 840.503945 254.795414 
L 840.984823 253.814082 
L 841.625993 251.978475 
L 842.587749 248.358734 
L 844.030383 242.779579 
L 844.671553 241.056576 
L 845.152431 240.291697 
L 845.473016 240.064667 
L 845.793602 240.070452 
L 846.114187 240.305109 
L 846.595065 241.057765 
L 847.236235 242.689734 
L 848.197991 245.955144 
L 849.480332 250.222157 
L 850.121503 251.675602 
L 850.60238 252.295493 
L 850.922966 252.45609 
L 851.243551 252.405906 
L 851.564136 252.144034 
L 852.045014 251.366015 
L 852.686185 249.674542 
L 853.487648 246.733048 
L 854.609696 241.830581 
L 854.769989 256.922675 
L 854.930281 261.512638 
L 855.090574 260.375133 
L 856.05233 238.253358 
L 856.372915 235.606013 
L 856.6935 234.600746 
L 856.853793 234.49991 
L 857.014085 234.617299 
L 857.334671 235.488862 
L 857.655256 237.231565 
L 858.777304 245.355823 
L 858.937597 245.29094 
L 859.09789 244.421656 
L 859.418475 239.508719 
L 859.73906 250.3308 
L 860.059645 254.321531 
L 860.380231 256.412184 
L 860.700816 257.301683 
L 860.861108 257.391896 
L 861.181694 257.196482 
L 861.662572 256.887055 
L 861.983157 256.964015 
L 862.624327 257.28854 
L 862.944913 257.261597 
L 864.387546 256.729384 
L 865.349302 256.891813 
L 865.669887 256.729928 
L 865.990472 256.372259 
L 866.47135 255.457235 
L 867.112521 253.648938 
L 868.074277 250.155223 
L 870.158081 242.158894 
L 870.799251 240.690254 
L 871.280129 240.194658 
L 871.600714 240.175221 
L 871.9213 240.40077 
L 872.402177 241.165165 
L 873.043348 242.847019 
L 874.005104 246.235843 
L 875.287445 250.762468 
L 876.088908 252.775235 
L 876.730078 253.761628 
L 877.371249 254.271195 
L 878.012419 254.480674 
L 880.577101 254.885223 
L 881.057979 254.735737 
L 881.538857 254.336285 
L 882.019735 253.620928 
L 882.660905 252.127594 
L 883.462369 249.485341 
L 885.546173 241.882199 
L 886.187343 240.548322 
L 886.668221 240.119073 
L 886.988806 240.124479 
L 887.309392 240.361406 
L 887.790269 241.12463 
L 888.43144 242.786799 
L 889.393196 246.13007 
L 890.675537 250.527259 
L 891.316707 252.035269 
L 891.797585 252.68335 
L 892.11817 252.854737 
L 892.438756 252.807991 
L 892.759341 252.541605 
L 893.240219 251.741091 
L 893.881389 249.989821 
L 894.362267 248.247566 
L 894.52256 262.921366 
L 894.682852 266.841207 
L 894.843145 264.924234 
L 895.804901 239.228922 
L 896.125486 236.041741 
L 896.446071 234.647789 
L 896.766656 234.312984 
L 896.926949 234.458863 
L 897.247534 235.379027 
L 897.56812 237.143192 
L 898.529875 243.520222 
L 898.690168 243.526137 
L 898.850461 242.787726 
L 899.171046 238.319494 
L 899.491631 250.996908 
L 899.972509 258.424429 
L 900.293094 260.651268 
L 900.613679 261.261556 
L 900.773972 261.144231 
L 902.056313 259.125592 
L 902.697484 258.434231 
L 903.819532 256.992516 
L 904.30041 256.814719 
L 905.422458 256.676147 
L 905.903336 256.212189 
L 906.384214 255.395236 
L 907.025384 253.846945 
L 907.826848 251.351248 
L 908.948896 247.06286 
L 910.231237 242.322851 
L 910.872407 240.841667 
L 911.353285 240.343422 
L 911.673871 240.326173 
L 911.994456 240.55744 
L 912.475334 241.337414 
L 913.116504 243.051174 
L 914.07826 246.489263 
L 915.360601 251.024467 
L 916.162064 253.037643 
L 916.803235 254.06901 
L 917.444405 254.685528 
L 918.245868 255.122072 
L 919.528209 255.562374 
L 920.16938 255.616792 
L 920.650258 255.468279 
L 921.131135 255.07153 
L 921.612013 254.363257 
L 922.253184 252.881915 
L 923.054647 250.237044 
L 925.459036 241.45462 
L 925.939914 240.526374 
L 926.420792 240.096059 
L 926.741377 240.099328 
L 927.061963 240.331769 
L 927.54284 241.082278 
L 928.184011 242.71452 
L 929.145767 245.987703 
L 930.428108 250.273804 
L 931.069278 251.736534 
L 931.550156 252.361625 
L 931.870741 252.524418 
L 932.191327 252.475185 
L 932.511912 252.21286 
L 932.99279 251.431261 
L 933.63396 249.729242 
L 933.794253 249.200922 
L 933.954545 263.262539 
L 933.954545 263.262539 
" clip-path="url(#p406d2cb209)" style="fill: none; stroke: #1f77b4; stroke-width: 1.5; stroke-linecap: square"/>
   </g>
   <g id="line2d_14">
    <path d="M 173.045455 235.903623 
L 177.693941 235.903623 
L 177.854233 256.530146 
L 213.278903 256.530146 
L 213.439196 235.903623 
L 218.087682 235.903623 
L 218.247975 256.530146 
L 253.99323 256.530146 
L 254.153523 235.903623 
L 258.802009 235.903623 
L 258.962302 256.530146 
L 293.585509 256.530146 
L 293.745801 235.903623 
L 298.394287 235.903623 
L 298.55458 256.530146 
L 333.818957 256.530146 
L 333.97925 235.903623 
L 338.627736 235.903623 
L 338.788029 256.530146 
L 373.090651 256.530146 
L 373.250943 235.903623 
L 377.899429 235.903623 
L 378.059722 256.530146 
L 413.644685 256.530146 
L 413.804977 235.903623 
L 418.453463 235.903623 
L 418.613756 256.530146 
L 453.557548 256.530146 
L 453.717841 235.903623 
L 458.366327 235.903623 
L 458.52662 256.530146 
L 493.630705 256.530146 
L 493.790997 235.903623 
L 498.439483 235.903623 
L 498.599776 256.530146 
L 533.864153 256.530146 
L 534.024446 235.903623 
L 538.672932 235.903623 
L 538.833225 256.530146 
L 574.257895 256.530146 
L 574.418188 235.903623 
L 579.066674 235.903623 
L 579.226966 256.530146 
L 613.209003 256.530146 
L 613.369295 235.903623 
L 618.017782 235.903623 
L 618.178074 256.530146 
L 653.92333 256.530146 
L 654.083622 235.903623 
L 658.732108 235.903623 
L 658.892401 256.530146 
L 694.156778 256.530146 
L 694.317071 235.903623 
L 698.965557 235.903623 
L 699.12585 256.530146 
L 734.069642 256.530146 
L 734.229935 235.903623 
L 738.878421 235.903623 
L 739.038713 256.530146 
L 773.822213 256.530146 
L 773.982506 235.903623 
L 778.630992 235.903623 
L 778.791284 256.530146 
L 813.414491 256.530146 
L 813.574784 235.903623 
L 818.22327 235.903623 
L 818.383563 256.530146 
L 854.609696 256.530146 
L 854.769989 235.903623 
L 859.418475 235.903623 
L 859.578767 256.530146 
L 894.362267 256.530146 
L 894.52256 235.903623 
L 899.171046 235.903623 
L 899.331338 256.530146 
L 933.794253 256.530146 
L 933.954545 235.903623 
L 933.954545 235.903623 
" clip-path="url(#p406d2cb209)" style="fill: none; stroke: #ff7f0e; stroke-width: 1.5; stroke-linecap: square"/>
   </g>
   <g id="line2d_15">
    <path d="M 929.466352 256.530146 
" clip-path="url(#p406d2cb209)" style="fill: none; stroke: #000000; stroke-width: 1.5; stroke-linecap: square"/>
    <defs>
     <path id="m85991df7a9" d="M 0 1 
C 0.265203 1 0.51958 0.894634 0.707107 0.707107 
C 0.894634 0.51958 1 0.265203 1 0 
C 1 -0.265203 0.894634 -0.51958 0.707107 -0.707107 
C 0.51958 -0.894634 0.265203 -1 0 -1 
C -0.265203 -1 -0.51958 -0.894634 -0.707107 -0.707107 
C -0.894634 -0.51958 -1 -0.265203 -1 0 
C -1 0.265203 -0.894634 0.51958 -0.707107 0.707107 
C -0.51958 0.894634 -0.265203 1 0 1 
z
" style="stroke: #000000"/>
    </defs>
    <g clip-path="url(#p406d2cb209)">
     <use xlink:href="#m85991df7a9" x="173.045455" y="235.903623" style="stroke: #000000"/>
     <use xlink:href="#m85991df7a9" x="178.174819" y="256.530146" style="stroke: #000000"/>
     <use xlink:href="#m85991df7a9" x="183.14389" y="256.530146" style="stroke: #000000"/>
     <use xlink:href="#m85991df7a9" x="188.112961" y="235.903623" style="stroke: #000000"/>
     <use xlink:href="#m85991df7a9" x="193.082033" y="256.530146" style="stroke: #000000"/>
     <use xlink:href="#m85991df7a9" x="198.211397" y="256.530146" style="stroke: #000000"/>
     <use xlink:href="#m85991df7a9" x="203.180468" y="235.903623" style="stroke: #000000"/>
     <use xlink:href="#m85991df7a9" x="208.149539" y="256.530146" style="stroke: #000000"/>
     <use xlink:href="#m85991df7a9" x="213.118611" y="235.903623" style="stroke: #000000"/>
     <use xlink:href="#m85991df7a9" x="218.247975" y="256.530146" style="stroke: #000000"/>
     <use xlink:href="#m85991df7a9" x="223.217046" y="256.530146" style="stroke: #000000"/>
     <use xlink:href="#m85991df7a9" x="228.186118" y="235.903623" style="stroke: #000000"/>
     <use xlink:href="#m85991df7a9" x="233.155189" y="256.530146" style="stroke: #000000"/>
     <use xlink:href="#m85991df7a9" x="238.284553" y="256.530146" style="stroke: #000000"/>
     <use xlink:href="#m85991df7a9" x="243.253624" y="235.903623" style="stroke: #000000"/>
     <use xlink:href="#m85991df7a9" x="248.222696" y="256.530146" style="stroke: #000000"/>
     <use xlink:href="#m85991df7a9" x="253.191767" y="235.903623" style="stroke: #000000"/>
     <use xlink:href="#m85991df7a9" x="258.321131" y="256.530146" style="stroke: #000000"/>
     <use xlink:href="#m85991df7a9" x="263.290202" y="256.530146" style="stroke: #000000"/>
     <use xlink:href="#m85991df7a9" x="268.259274" y="235.903623" style="stroke: #000000"/>
     <use xlink:href="#m85991df7a9" x="273.228345" y="256.530146" style="stroke: #000000"/>
     <use xlink:href="#m85991df7a9" x="278.357709" y="256.530146" style="stroke: #000000"/>
     <use xlink:href="#m85991df7a9" x="283.326781" y="235.903623" style="stroke: #000000"/>
     <use xlink:href="#m85991df7a9" x="288.295852" y="256.530146" style="stroke: #000000"/>
     <use xlink:href="#m85991df7a9" x="293.264923" y="235.903623" style="stroke: #000000"/>
     <use xlink:href="#m85991df7a9" x="298.394287" y="256.530146" style="stroke: #000000"/>
     <use xlink:href="#m85991df7a9" x="303.363359" y="256.530146" style="stroke: #000000"/>
     <use xlink:href="#m85991df7a9" x="308.33243" y="235.903623" style="stroke: #000000"/>
     <use xlink:href="#m85991df7a9" x="313.301501" y="256.530146" style="stroke: #000000"/>
     <use xlink:href="#m85991df7a9" x="318.430865" y="256.530146" style="stroke: #000000"/>
     <use xlink:href="#m85991df7a9" x="323.399937" y="235.903623" style="stroke: #000000"/>
     <use xlink:href="#m85991df7a9" x="328.369008" y="256.530146" style="stroke: #000000"/>
     <use xlink:href="#m85991df7a9" x="333.33808" y="235.903623" style="stroke: #000000"/>
     <use xlink:href="#m85991df7a9" x="338.467444" y="256.530146" style="stroke: #000000"/>
     <use xlink:href="#m85991df7a9" x="343.436515" y="256.530146" style="stroke: #000000"/>
     <use xlink:href="#m85991df7a9" x="348.405586" y="235.903623" style="stroke: #000000"/>
     <use xlink:href="#m85991df7a9" x="353.374658" y="256.530146" style="stroke: #000000"/>
     <use xlink:href="#m85991df7a9" x="358.504022" y="256.530146" style="stroke: #000000"/>
     <use xlink:href="#m85991df7a9" x="363.473093" y="235.903623" style="stroke: #000000"/>
     <use xlink:href="#m85991df7a9" x="368.442164" y="256.530146" style="stroke: #000000"/>
     <use xlink:href="#m85991df7a9" x="373.411236" y="235.903623" style="stroke: #000000"/>
     <use xlink:href="#m85991df7a9" x="378.5406" y="256.530146" style="stroke: #000000"/>
     <use xlink:href="#m85991df7a9" x="383.509671" y="256.530146" style="stroke: #000000"/>
     <use xlink:href="#m85991df7a9" x="388.478743" y="235.903623" style="stroke: #000000"/>
     <use xlink:href="#m85991df7a9" x="393.447814" y="256.530146" style="stroke: #000000"/>
     <use xlink:href="#m85991df7a9" x="398.577178" y="256.530146" style="stroke: #000000"/>
     <use xlink:href="#m85991df7a9" x="403.546249" y="235.903623" style="stroke: #000000"/>
     <use xlink:href="#m85991df7a9" x="408.515321" y="256.530146" style="stroke: #000000"/>
     <use xlink:href="#m85991df7a9" x="413.484392" y="235.903623" style="stroke: #000000"/>
     <use xlink:href="#m85991df7a9" x="418.613756" y="256.530146" style="stroke: #000000"/>
     <use xlink:href="#m85991df7a9" x="423.582827" y="256.530146" style="stroke: #000000"/>
     <use xlink:href="#m85991df7a9" x="428.551899" y="235.903623" style="stroke: #000000"/>
     <use xlink:href="#m85991df7a9" x="433.52097" y="256.530146" style="stroke: #000000"/>
     <use xlink:href="#m85991df7a9" x="438.650334" y="256.530146" style="stroke: #000000"/>
     <use xlink:href="#m85991df7a9" x="443.619406" y="235.903623" style="stroke: #000000"/>
     <use xlink:href="#m85991df7a9" x="448.588477" y="256.530146" style="stroke: #000000"/>
     <use xlink:href="#m85991df7a9" x="453.557548" y="235.903623" style="stroke: #000000"/>
     <use xlink:href="#m85991df7a9" x="458.686912" y="256.530146" style="stroke: #000000"/>
     <use xlink:href="#m85991df7a9" x="463.655984" y="256.530146" style="stroke: #000000"/>
     <use xlink:href="#m85991df7a9" x="468.625055" y="235.903623" style="stroke: #000000"/>
     <use xlink:href="#m85991df7a9" x="473.594126" y="256.530146" style="stroke: #000000"/>
     <use xlink:href="#m85991df7a9" x="478.72349" y="256.530146" style="stroke: #000000"/>
     <use xlink:href="#m85991df7a9" x="483.692562" y="235.903623" style="stroke: #000000"/>
     <use xlink:href="#m85991df7a9" x="488.661633" y="256.530146" style="stroke: #000000"/>
     <use xlink:href="#m85991df7a9" x="493.630705" y="235.903623" style="stroke: #000000"/>
     <use xlink:href="#m85991df7a9" x="498.760069" y="256.530146" style="stroke: #000000"/>
     <use xlink:href="#m85991df7a9" x="503.72914" y="256.530146" style="stroke: #000000"/>
     <use xlink:href="#m85991df7a9" x="508.698211" y="235.903623" style="stroke: #000000"/>
     <use xlink:href="#m85991df7a9" x="513.667283" y="256.530146" style="stroke: #000000"/>
     <use xlink:href="#m85991df7a9" x="518.796647" y="256.530146" style="stroke: #000000"/>
     <use xlink:href="#m85991df7a9" x="523.765718" y="235.903623" style="stroke: #000000"/>
     <use xlink:href="#m85991df7a9" x="528.734789" y="256.530146" style="stroke: #000000"/>
     <use xlink:href="#m85991df7a9" x="533.703861" y="235.903623" style="stroke: #000000"/>
     <use xlink:href="#m85991df7a9" x="538.833225" y="256.530146" style="stroke: #000000"/>
     <use xlink:href="#m85991df7a9" x="543.802296" y="256.530146" style="stroke: #000000"/>
     <use xlink:href="#m85991df7a9" x="548.771368" y="235.903623" style="stroke: #000000"/>
     <use xlink:href="#m85991df7a9" x="553.740439" y="256.530146" style="stroke: #000000"/>
     <use xlink:href="#m85991df7a9" x="558.869803" y="256.530146" style="stroke: #000000"/>
     <use xlink:href="#m85991df7a9" x="563.838874" y="235.903623" style="stroke: #000000"/>
     <use xlink:href="#m85991df7a9" x="568.807946" y="256.530146" style="stroke: #000000"/>
     <use xlink:href="#m85991df7a9" x="573.777017" y="235.903623" style="stroke: #000000"/>
     <use xlink:href="#m85991df7a9" x="578.906381" y="256.530146" style="stroke: #000000"/>
     <use xlink:href="#m85991df7a9" x="583.875452" y="256.530146" style="stroke: #000000"/>
     <use xlink:href="#m85991df7a9" x="588.844524" y="235.903623" style="stroke: #000000"/>
     <use xlink:href="#m85991df7a9" x="593.813595" y="256.530146" style="stroke: #000000"/>
     <use xlink:href="#m85991df7a9" x="598.942959" y="256.530146" style="stroke: #000000"/>
     <use xlink:href="#m85991df7a9" x="603.912031" y="235.903623" style="stroke: #000000"/>
     <use xlink:href="#m85991df7a9" x="608.881102" y="256.530146" style="stroke: #000000"/>
     <use xlink:href="#m85991df7a9" x="613.850173" y="235.903623" style="stroke: #000000"/>
     <use xlink:href="#m85991df7a9" x="618.979537" y="256.530146" style="stroke: #000000"/>
     <use xlink:href="#m85991df7a9" x="623.948609" y="256.530146" style="stroke: #000000"/>
     <use xlink:href="#m85991df7a9" x="628.91768" y="235.903623" style="stroke: #000000"/>
     <use xlink:href="#m85991df7a9" x="633.886751" y="256.530146" style="stroke: #000000"/>
     <use xlink:href="#m85991df7a9" x="639.016115" y="256.530146" style="stroke: #000000"/>
     <use xlink:href="#m85991df7a9" x="643.985187" y="235.903623" style="stroke: #000000"/>
     <use xlink:href="#m85991df7a9" x="648.954258" y="256.530146" style="stroke: #000000"/>
     <use xlink:href="#m85991df7a9" x="653.92333" y="235.903623" style="stroke: #000000"/>
     <use xlink:href="#m85991df7a9" x="659.052694" y="256.530146" style="stroke: #000000"/>
     <use xlink:href="#m85991df7a9" x="664.021765" y="256.530146" style="stroke: #000000"/>
     <use xlink:href="#m85991df7a9" x="668.990836" y="235.903623" style="stroke: #000000"/>
     <use xlink:href="#m85991df7a9" x="673.959908" y="256.530146" style="stroke: #000000"/>
     <use xlink:href="#m85991df7a9" x="679.089272" y="256.530146" style="stroke: #000000"/>
     <use xlink:href="#m85991df7a9" x="684.058343" y="235.903623" style="stroke: #000000"/>
     <use xlink:href="#m85991df7a9" x="689.027414" y="256.530146" style="stroke: #000000"/>
     <use xlink:href="#m85991df7a9" x="693.996486" y="235.903623" style="stroke: #000000"/>
     <use xlink:href="#m85991df7a9" x="699.12585" y="256.530146" style="stroke: #000000"/>
     <use xlink:href="#m85991df7a9" x="704.094921" y="256.530146" style="stroke: #000000"/>
     <use xlink:href="#m85991df7a9" x="709.063993" y="235.903623" style="stroke: #000000"/>
     <use xlink:href="#m85991df7a9" x="714.033064" y="256.530146" style="stroke: #000000"/>
     <use xlink:href="#m85991df7a9" x="719.162428" y="256.530146" style="stroke: #000000"/>
     <use xlink:href="#m85991df7a9" x="724.131499" y="235.903623" style="stroke: #000000"/>
     <use xlink:href="#m85991df7a9" x="729.100571" y="256.530146" style="stroke: #000000"/>
     <use xlink:href="#m85991df7a9" x="734.069642" y="235.903623" style="stroke: #000000"/>
     <use xlink:href="#m85991df7a9" x="739.199006" y="256.530146" style="stroke: #000000"/>
     <use xlink:href="#m85991df7a9" x="744.168077" y="256.530146" style="stroke: #000000"/>
     <use xlink:href="#m85991df7a9" x="749.137149" y="235.903623" style="stroke: #000000"/>
     <use xlink:href="#m85991df7a9" x="754.10622" y="256.530146" style="stroke: #000000"/>
     <use xlink:href="#m85991df7a9" x="759.235584" y="256.530146" style="stroke: #000000"/>
     <use xlink:href="#m85991df7a9" x="764.204656" y="235.903623" style="stroke: #000000"/>
     <use xlink:href="#m85991df7a9" x="769.173727" y="256.530146" style="stroke: #000000"/>
     <use xlink:href="#m85991df7a9" x="774.142798" y="235.903623" style="stroke: #000000"/>
     <use xlink:href="#m85991df7a9" x="779.272162" y="256.530146" style="stroke: #000000"/>
     <use xlink:href="#m85991df7a9" x="784.241234" y="256.530146" style="stroke: #000000"/>
     <use xlink:href="#m85991df7a9" x="789.210305" y="235.903623" style="stroke: #000000"/>
     <use xlink:href="#m85991df7a9" x="794.179376" y="256.530146" style="stroke: #000000"/>
     <use xlink:href="#m85991df7a9" x="799.30874" y="256.530146" style="stroke: #000000"/>
     <use xlink:href="#m85991df7a9" x="804.277812" y="235.903623" style="stroke: #000000"/>
     <use xlink:href="#m85991df7a9" x="809.246883" y="256.530146" style="stroke: #000000"/>
     <use xlink:href="#m85991df7a9" x="814.215955" y="235.903623" style="stroke: #000000"/>
     <use xlink:href="#m85991df7a9" x="819.345319" y="256.530146" style="stroke: #000000"/>
     <use xlink:href="#m85991df7a9" x="824.31439" y="256.530146" style="stroke: #000000"/>
     <use xlink:href="#m85991df7a9" x="829.283461" y="235.903623" style="stroke: #000000"/>
     <use xlink:href="#m85991df7a9" x="834.252533" y="256.530146" style="stroke: #000000"/>
     <use xlink:href="#m85991df7a9" x="839.381897" y="256.530146" style="stroke: #000000"/>
     <use xlink:href="#m85991df7a9" x="844.350968" y="235.903623" style="stroke: #000000"/>
     <use xlink:href="#m85991df7a9" x="849.320039" y="256.530146" style="stroke: #000000"/>
     <use xlink:href="#m85991df7a9" x="854.289111" y="235.903623" style="stroke: #000000"/>
     <use xlink:href="#m85991df7a9" x="859.418475" y="256.530146" style="stroke: #000000"/>
     <use xlink:href="#m85991df7a9" x="864.387546" y="256.530146" style="stroke: #000000"/>
     <use xlink:href="#m85991df7a9" x="869.356618" y="235.903623" style="stroke: #000000"/>
     <use xlink:href="#m85991df7a9" x="874.325689" y="256.530146" style="stroke: #000000"/>
     <use xlink:href="#m85991df7a9" x="879.455053" y="256.530146" style="stroke: #000000"/>
     <use xlink:href="#m85991df7a9" x="884.424124" y="235.903623" style="stroke: #000000"/>
     <use xlink:href="#m85991df7a9" x="889.393196" y="256.530146" style="stroke: #000000"/>
     <use xlink:href="#m85991df7a9" x="894.362267" y="235.903623" style="stroke: #000000"/>
     <use xlink:href="#m85991df7a9" x="899.491631" y="256.530146" style="stroke: #000000"/>
     <use xlink:href="#m85991df7a9" x="904.460702" y="256.530146" style="stroke: #000000"/>
     <use xlink:href="#m85991df7a9" x="909.429774" y="235.903623" style="stroke: #000000"/>
     <use xlink:href="#m85991df7a9" x="914.398845" y="256.530146" style="stroke: #000000"/>
     <use xlink:href="#m85991df7a9" x="919.528209" y="256.530146" style="stroke: #000000"/>
     <use xlink:href="#m85991df7a9" x="924.497281" y="235.903623" style="stroke: #000000"/>
     <use xlink:href="#m85991df7a9" x="929.466352" y="256.530146" style="stroke: #000000"/>
    </g>
   </g>
   <g id="patch_3">
    <path d="M 135 448.56 
L 135 60.48 
" style="fill: none; stroke: #000000; stroke-width: 0.8; stroke-linejoin: miter; stroke-linecap: square"/>
   </g>
   <g id="patch_4">
    <path d="M 972 448.56 
L 972 60.48 
" style="fill: none; stroke: #000000; stroke-width: 0.8; stroke-linejoin: miter; stroke-linecap: square"/>
   </g>
   <g id="patch_5">
    <path d="M 135 448.56 
L 972 448.56 
" style="fill: none; stroke: #000000; stroke-width: 0.8; stroke-linejoin: miter; stroke-linecap: square"/>
   </g>
   <g id="patch_6">
    <path d="M 135 60.48 
L 972 60.48 
" style="fill: none; stroke: #000000; stroke-width: 0.8; stroke-linejoin: miter; stroke-linecap: square"/>
   </g>
   <g id="legend_1">
    <g id="patch_7">
     <path d="M 895.915625 113.070625 
L 965 113.070625 
Q 967 113.070625 967 111.070625 
L 967 67.48 
Q 967 65.48 965 65.48 
L 895.915625 65.48 
Q 893.915625 65.48 893.915625 67.48 
L 893.915625 111.070625 
Q 893.915625 113.070625 895.915625 113.070625 
z
" style="fill: #ffffff; opacity: 0.8; stroke: #cccccc; stroke-linejoin: miter"/>
    </g>
    <g id="line2d_16">
     <path d="M 897.915625 73.578438 
L 907.915625 73.578438 
L 917.915625 73.578438 
" style="fill: none; stroke: #1f77b4; stroke-width: 1.5; stroke-linecap: square"/>
    </g>
    <g id="text_14">
     <!-- nw_0 -->
     <g transform="translate(925.915625 77.078438) scale(0.1 -0.1)">
      <defs>
       <path id="DejaVuSans-6e" d="M 3513 2113 
L 3513 0 
L 2938 0 
L 2938 2094 
Q 2938 2591 2744 2837 
Q 2550 3084 2163 3084 
Q 1697 3084 1428 2787 
Q 1159 2491 1159 1978 
L 1159 0 
L 581 0 
L 581 3500 
L 1159 3500 
L 1159 2956 
Q 1366 3272 1645 3428 
Q 1925 3584 2291 3584 
Q 2894 3584 3203 3211 
Q 3513 2838 3513 2113 
z
" transform="scale(0.015625)"/>
       <path id="DejaVuSans-77" d="M 269 3500 
L 844 3500 
L 1563 769 
L 2278 3500 
L 2956 3500 
L 3675 769 
L 4391 3500 
L 4966 3500 
L 4050 0 
L 3372 0 
L 2619 2869 
L 1863 0 
L 1184 0 
L 269 3500 
z
" transform="scale(0.015625)"/>
       <path id="DejaVuSans-5f" d="M 3263 -1063 
L 3263 -1509 
L -63 -1509 
L -63 -1063 
L 3263 -1063 
z
" transform="scale(0.015625)"/>
      </defs>
      <use xlink:href="#DejaVuSans-6e"/>
      <use xlink:href="#DejaVuSans-77" x="63.378906"/>
      <use xlink:href="#DejaVuSans-5f" x="145.166016"/>
      <use xlink:href="#DejaVuSans-30" x="195.166016"/>
     </g>
    </g>
    <g id="line2d_17">
     <path d="M 897.915625 88.534688 
L 907.915625 88.534688 
L 917.915625 88.534688 
" style="fill: none; stroke: #ff7f0e; stroke-width: 1.5; stroke-linecap: square"/>
    </g>
    <g id="text_15">
     <!-- input_0 -->
     <g transform="translate(925.915625 92.034688) scale(0.1 -0.1)">
      <defs>
       <path id="DejaVuSans-69" d="M 603 3500 
L 1178 3500 
L 1178 0 
L 603 0 
L 603 3500 
z
M 603 4863 
L 1178 4863 
L 1178 4134 
L 603 4134 
L 603 4863 
z
" transform="scale(0.015625)"/>
       <path id="DejaVuSans-70" d="M 1159 525 
L 1159 -1331 
L 581 -1331 
L 581 3500 
L 1159 3500 
L 1159 2969 
Q 1341 3281 1617 3432 
Q 1894 3584 2278 3584 
Q 2916 3584 3314 3078 
Q 3713 2572 3713 1747 
Q 3713 922 3314 415 
Q 2916 -91 2278 -91 
Q 1894 -91 1617 61 
Q 1341 213 1159 525 
z
M 3116 1747 
Q 3116 2381 2855 2742 
Q 2594 3103 2138 3103 
Q 1681 3103 1420 2742 
Q 1159 2381 1159 1747 
Q 1159 1113 1420 752 
Q 1681 391 2138 391 
Q 2594 391 2855 752 
Q 3116 1113 3116 1747 
z
" transform="scale(0.015625)"/>
       <path id="DejaVuSans-75" d="M 544 1381 
L 544 3500 
L 1119 3500 
L 1119 1403 
Q 1119 906 1312 657 
Q 1506 409 1894 409 
Q 2359 409 2629 706 
Q 2900 1003 2900 1516 
L 2900 3500 
L 3475 3500 
L 3475 0 
L 2900 0 
L 2900 538 
Q 2691 219 2414 64 
Q 2138 -91 1772 -91 
Q 1169 -91 856 284 
Q 544 659 544 1381 
z
M 1991 3584 
L 1991 3584 
z
" transform="scale(0.015625)"/>
      </defs>
      <use xlink:href="#DejaVuSans-69"/>
      <use xlink:href="#DejaVuSans-6e" x="27.783203"/>
      <use xlink:href="#DejaVuSans-70" x="91.162109"/>
      <use xlink:href="#DejaVuSans-75" x="154.638672"/>
      <use xlink:href="#DejaVuSans-74" x="218.017578"/>
      <use xlink:href="#DejaVuSans-5f" x="257.226562"/>
      <use xlink:href="#DejaVuSans-30" x="307.226562"/>
     </g>
    </g>
    <g id="line2d_18">
     <path d="M 897.915625 103.490938 
L 907.915625 103.490938 
L 917.915625 103.490938 
" style="fill: none; stroke: #000000; stroke-width: 1.5; stroke-linecap: square"/>
     <g>
      <use xlink:href="#m85991df7a9" x="907.915625" y="103.490938" style="stroke: #000000"/>
     </g>
    </g>
    <g id="text_16">
     <!-- target -->
     <g transform="translate(925.915625 106.990938) scale(0.1 -0.1)">
      <defs>
       <path id="DejaVuSans-61" d="M 2194 1759 
Q 1497 1759 1228 1600 
Q 959 1441 959 1056 
Q 959 750 1161 570 
Q 1363 391 1709 391 
Q 2188 391 2477 730 
Q 2766 1069 2766 1631 
L 2766 1759 
L 2194 1759 
z
M 3341 1997 
L 3341 0 
L 2766 0 
L 2766 531 
Q 2569 213 2275 61 
Q 1981 -91 1556 -91 
Q 1019 -91 701 211 
Q 384 513 384 1019 
Q 384 1609 779 1909 
Q 1175 2209 1959 2209 
L 2766 2209 
L 2766 2266 
Q 2766 2663 2505 2880 
Q 2244 3097 1772 3097 
Q 1472 3097 1187 3025 
Q 903 2953 641 2809 
L 641 3341 
Q 956 3463 1253 3523 
Q 1550 3584 1831 3584 
Q 2591 3584 2966 3190 
Q 3341 2797 3341 1997 
z
" transform="scale(0.015625)"/>
       <path id="DejaVuSans-72" d="M 2631 2963 
Q 2534 3019 2420 3045 
Q 2306 3072 2169 3072 
Q 1681 3072 1420 2755 
Q 1159 2438 1159 1844 
L 1159 0 
L 581 0 
L 581 3500 
L 1159 3500 
L 1159 2956 
Q 1341 3275 1631 3429 
Q 1922 3584 2338 3584 
Q 2397 3584 2469 3576 
Q 2541 3569 2628 3553 
L 2631 2963 
z
" transform="scale(0.015625)"/>
       <path id="DejaVuSans-67" d="M 2906 1791 
Q 2906 2416 2648 2759 
Q 2391 3103 1925 3103 
Q 1463 3103 1205 2759 
Q 947 2416 947 1791 
Q 947 1169 1205 825 
Q 1463 481 1925 481 
Q 2391 481 2648 825 
Q 2906 1169 2906 1791 
z
M 3481 434 
Q 3481 -459 3084 -895 
Q 2688 -1331 1869 -1331 
Q 1566 -1331 1297 -1286 
Q 1028 -1241 775 -1147 
L 775 -588 
Q 1028 -725 1275 -790 
Q 1522 -856 1778 -856 
Q 2344 -856 2625 -561 
Q 2906 -266 2906 331 
L 2906 616 
Q 2728 306 2450 153 
Q 2172 0 1784 0 
Q 1141 0 747 490 
Q 353 981 353 1791 
Q 353 2603 747 3093 
Q 1141 3584 1784 3584 
Q 2172 3584 2450 3431 
Q 2728 3278 2906 2969 
L 2906 3500 
L 3481 3500 
L 3481 434 
z
" transform="scale(0.015625)"/>
       <path id="DejaVuSans-65" d="M 3597 1894 
L 3597 1613 
L 953 1613 
Q 991 1019 1311 708 
Q 1631 397 2203 397 
Q 2534 397 2845 478 
Q 3156 559 3463 722 
L 3463 178 
Q 3153 47 2828 -22 
Q 2503 -91 2169 -91 
Q 1331 -91 842 396 
Q 353 884 353 1716 
Q 353 2575 817 3079 
Q 1281 3584 2069 3584 
Q 2775 3584 3186 3129 
Q 3597 2675 3597 1894 
z
M 3022 2063 
Q 3016 2534 2758 2815 
Q 2500 3097 2075 3097 
Q 1594 3097 1305 2825 
Q 1016 2553 972 2059 
L 3022 2063 
z
" transform="scale(0.015625)"/>
      </defs>
      <use xlink:href="#DejaVuSans-74"/>
      <use xlink:href="#DejaVuSans-61" x="39.208984"/>
      <use xlink:href="#DejaVuSans-72" x="100.488281"/>
      <use xlink:href="#DejaVuSans-67" x="139.851562"/>
      <use xlink:href="#DejaVuSans-65" x="203.328125"/>
      <use xlink:href="#DejaVuSans-74" x="264.851562"/>
     </g>
    </g>
   </g>
  </g>
 </g>
 <defs>
  <clipPath id="p406d2cb209">
   <rect x="135" y="60.48" width="837" height="388.08"/>
  </clipPath>
 </defs>
</svg>
