<?xml version="1.0" encoding="utf-8" standalone="no"?>
<!DOCTYPE svg PUBLIC "-//W3C//DTD SVG 1.1//EN"
  "http://www.w3.org/Graphics/SVG/1.1/DTD/svg11.dtd">
<svg xmlns:xlink="http://www.w3.org/1999/xlink" width="1080pt" height="504pt" viewBox="0 0 1080 504" xmlns="http://www.w3.org/2000/svg" version="1.1">
 <metadata>
  <rdf:RDF xmlns:dc="http://purl.org/dc/elements/1.1/" xmlns:cc="http://creativecommons.org/ns#" xmlns:rdf="http://www.w3.org/1999/02/22-rdf-syntax-ns#">
   <cc:Work>
    <dc:type rdf:resource="http://purl.org/dc/dcmitype/StillImage"/>
    <dc:date>2024-05-09T11:10:27.112569</dc:date>
    <dc:format>image/svg+xml</dc:format>
    <dc:creator>
     <cc:Agent>
      <dc:title>Matplotlib v3.7.1, https://matplotlib.org/</dc:title>
     </cc:Agent>
    </dc:creator>
   </cc:Work>
  </rdf:RDF>
 </metadata>
 <defs>
  <style type="text/css">*{stroke-linejoin: round; stroke-linecap: butt}</style>
 </defs>
 <g id="figure_1">
  <g id="patch_1">
   <path d="M 0 504 
L 1080 504 
L 1080 0 
L 0 0 
z
" style="fill: #ffffff"/>
  </g>
  <g id="axes_1">
   <g id="patch_2">
    <path d="M 135 448.56 
L 972 448.56 
L 972 60.48 
L 135 60.48 
z
" style="fill: #ffffff"/>
   </g>
   <g id="matplotlib.axis_1">
    <g id="xtick_1">
     <g id="line2d_1">
      <defs>
       <path id="m0eadbe2a1a" d="M 0 0 
L 0 3.5 
" style="stroke: #000000; stroke-width: 0.8"/>
      </defs>
      <g>
       <use xlink:href="#m0eadbe2a1a" x="173.045455" y="448.56" style="stroke: #000000; stroke-width: 0.8"/>
      </g>
     </g>
     <g id="text_1">
      <!-- 0 -->
      <g transform="translate(169.864205 463.158437) scale(0.1 -0.1)">
       <defs>
        <path id="DejaVuSans-30" d="M 2034 4250 
Q 1547 4250 1301 3770 
Q 1056 3291 1056 2328 
Q 1056 1369 1301 889 
Q 1547 409 2034 409 
Q 2525 409 2770 889 
Q 3016 1369 3016 2328 
Q 3016 3291 2770 3770 
Q 2525 4250 2034 4250 
z
M 2034 4750 
Q 2819 4750 3233 4129 
Q 3647 3509 3647 2328 
Q 3647 1150 3233 529 
Q 2819 -91 2034 -91 
Q 1250 -91 836 529 
Q 422 1150 422 2328 
Q 422 3509 836 4129 
Q 1250 4750 2034 4750 
z
" transform="scale(0.015625)"/>
       </defs>
       <use xlink:href="#DejaVuSans-30"/>
      </g>
     </g>
    </g>
    <g id="xtick_2">
     <g id="line2d_2">
      <g>
       <use xlink:href="#m0eadbe2a1a" x="333.33808" y="448.56" style="stroke: #000000; stroke-width: 0.8"/>
      </g>
     </g>
     <g id="text_2">
      <!-- 1000 -->
      <g transform="translate(320.61308 463.158437) scale(0.1 -0.1)">
       <defs>
        <path id="DejaVuSans-31" d="M 794 531 
L 1825 531 
L 1825 4091 
L 703 3866 
L 703 4441 
L 1819 4666 
L 2450 4666 
L 2450 531 
L 3481 531 
L 3481 0 
L 794 0 
L 794 531 
z
" transform="scale(0.015625)"/>
       </defs>
       <use xlink:href="#DejaVuSans-31"/>
       <use xlink:href="#DejaVuSans-30" x="63.623047"/>
       <use xlink:href="#DejaVuSans-30" x="127.246094"/>
       <use xlink:href="#DejaVuSans-30" x="190.869141"/>
      </g>
     </g>
    </g>
    <g id="xtick_3">
     <g id="line2d_3">
      <g>
       <use xlink:href="#m0eadbe2a1a" x="493.630705" y="448.56" style="stroke: #000000; stroke-width: 0.8"/>
      </g>
     </g>
     <g id="text_3">
      <!-- 2000 -->
      <g transform="translate(480.905705 463.158437) scale(0.1 -0.1)">
       <defs>
        <path id="DejaVuSans-32" d="M 1228 531 
L 3431 531 
L 3431 0 
L 469 0 
L 469 531 
Q 828 903 1448 1529 
Q 2069 2156 2228 2338 
Q 2531 2678 2651 2914 
Q 2772 3150 2772 3378 
Q 2772 3750 2511 3984 
Q 2250 4219 1831 4219 
Q 1534 4219 1204 4116 
Q 875 4013 500 3803 
L 500 4441 
Q 881 4594 1212 4672 
Q 1544 4750 1819 4750 
Q 2544 4750 2975 4387 
Q 3406 4025 3406 3419 
Q 3406 3131 3298 2873 
Q 3191 2616 2906 2266 
Q 2828 2175 2409 1742 
Q 1991 1309 1228 531 
z
" transform="scale(0.015625)"/>
       </defs>
       <use xlink:href="#DejaVuSans-32"/>
       <use xlink:href="#DejaVuSans-30" x="63.623047"/>
       <use xlink:href="#DejaVuSans-30" x="127.246094"/>
       <use xlink:href="#DejaVuSans-30" x="190.869141"/>
      </g>
     </g>
    </g>
    <g id="xtick_4">
     <g id="line2d_4">
      <g>
       <use xlink:href="#m0eadbe2a1a" x="653.92333" y="448.56" style="stroke: #000000; stroke-width: 0.8"/>
      </g>
     </g>
     <g id="text_4">
      <!-- 3000 -->
      <g transform="translate(641.19833 463.158437) scale(0.1 -0.1)">
       <defs>
        <path id="DejaVuSans-33" d="M 2597 2516 
Q 3050 2419 3304 2112 
Q 3559 1806 3559 1356 
Q 3559 666 3084 287 
Q 2609 -91 1734 -91 
Q 1441 -91 1130 -33 
Q 819 25 488 141 
L 488 750 
Q 750 597 1062 519 
Q 1375 441 1716 441 
Q 2309 441 2620 675 
Q 2931 909 2931 1356 
Q 2931 1769 2642 2001 
Q 2353 2234 1838 2234 
L 1294 2234 
L 1294 2753 
L 1863 2753 
Q 2328 2753 2575 2939 
Q 2822 3125 2822 3475 
Q 2822 3834 2567 4026 
Q 2313 4219 1838 4219 
Q 1578 4219 1281 4162 
Q 984 4106 628 3988 
L 628 4550 
Q 988 4650 1302 4700 
Q 1616 4750 1894 4750 
Q 2613 4750 3031 4423 
Q 3450 4097 3450 3541 
Q 3450 3153 3228 2886 
Q 3006 2619 2597 2516 
z
" transform="scale(0.015625)"/>
       </defs>
       <use xlink:href="#DejaVuSans-33"/>
       <use xlink:href="#DejaVuSans-30" x="63.623047"/>
       <use xlink:href="#DejaVuSans-30" x="127.246094"/>
       <use xlink:href="#DejaVuSans-30" x="190.869141"/>
      </g>
     </g>
    </g>
    <g id="xtick_5">
     <g id="line2d_5">
      <g>
       <use xlink:href="#m0eadbe2a1a" x="814.215955" y="448.56" style="stroke: #000000; stroke-width: 0.8"/>
      </g>
     </g>
     <g id="text_5">
      <!-- 4000 -->
      <g transform="translate(801.490955 463.158437) scale(0.1 -0.1)">
       <defs>
        <path id="DejaVuSans-34" d="M 2419 4116 
L 825 1625 
L 2419 1625 
L 2419 4116 
z
M 2253 4666 
L 3047 4666 
L 3047 1625 
L 3713 1625 
L 3713 1100 
L 3047 1100 
L 3047 0 
L 2419 0 
L 2419 1100 
L 313 1100 
L 313 1709 
L 2253 4666 
z
" transform="scale(0.015625)"/>
       </defs>
       <use xlink:href="#DejaVuSans-34"/>
       <use xlink:href="#DejaVuSans-30" x="63.623047"/>
       <use xlink:href="#DejaVuSans-30" x="127.246094"/>
       <use xlink:href="#DejaVuSans-30" x="190.869141"/>
      </g>
     </g>
    </g>
    <g id="text_6">
     <!-- t -->
     <g transform="translate(551.539844 476.836563) scale(0.1 -0.1)">
      <defs>
       <path id="DejaVuSans-74" d="M 1172 4494 
L 1172 3500 
L 2356 3500 
L 2356 3053 
L 1172 3053 
L 1172 1153 
Q 1172 725 1289 603 
Q 1406 481 1766 481 
L 2356 481 
L 2356 0 
L 1766 0 
Q 1100 0 847 248 
Q 594 497 594 1153 
L 594 3053 
L 172 3053 
L 172 3500 
L 594 3500 
L 594 4494 
L 1172 4494 
z
" transform="scale(0.015625)"/>
      </defs>
      <use xlink:href="#DejaVuSans-74"/>
     </g>
    </g>
   </g>
   <g id="matplotlib.axis_2">
    <g id="ytick_1">
     <g id="line2d_6">
      <defs>
       <path id="mc4b68b9bd9" d="M 0 0 
L -3.5 0 
" style="stroke: #000000; stroke-width: 0.8"/>
      </defs>
      <g>
       <use xlink:href="#mc4b68b9bd9" x="135" y="445.626873" style="stroke: #000000; stroke-width: 0.8"/>
      </g>
     </g>
     <g id="text_7">
      <!-- −0.4 -->
      <g transform="translate(103.717187 449.426092) scale(0.1 -0.1)">
       <defs>
        <path id="DejaVuSans-2212" d="M 678 2272 
L 4684 2272 
L 4684 1741 
L 678 1741 
L 678 2272 
z
" transform="scale(0.015625)"/>
        <path id="DejaVuSans-2e" d="M 684 794 
L 1344 794 
L 1344 0 
L 684 0 
L 684 794 
z
" transform="scale(0.015625)"/>
       </defs>
       <use xlink:href="#DejaVuSans-2212"/>
       <use xlink:href="#DejaVuSans-30" x="83.789062"/>
       <use xlink:href="#DejaVuSans-2e" x="147.412109"/>
       <use xlink:href="#DejaVuSans-34" x="179.199219"/>
      </g>
     </g>
    </g>
    <g id="ytick_2">
     <g id="line2d_7">
      <g>
       <use xlink:href="#mc4b68b9bd9" x="135" y="398.199919" style="stroke: #000000; stroke-width: 0.8"/>
      </g>
     </g>
     <g id="text_8">
      <!-- −0.2 -->
      <g transform="translate(103.717187 401.999138) scale(0.1 -0.1)">
       <use xlink:href="#DejaVuSans-2212"/>
       <use xlink:href="#DejaVuSans-30" x="83.789062"/>
       <use xlink:href="#DejaVuSans-2e" x="147.412109"/>
       <use xlink:href="#DejaVuSans-32" x="179.199219"/>
      </g>
     </g>
    </g>
    <g id="ytick_3">
     <g id="line2d_8">
      <g>
       <use xlink:href="#mc4b68b9bd9" x="135" y="350.772966" style="stroke: #000000; stroke-width: 0.8"/>
      </g>
     </g>
     <g id="text_9">
      <!-- 0.0 -->
      <g transform="translate(112.096875 354.572185) scale(0.1 -0.1)">
       <use xlink:href="#DejaVuSans-30"/>
       <use xlink:href="#DejaVuSans-2e" x="63.623047"/>
       <use xlink:href="#DejaVuSans-30" x="95.410156"/>
      </g>
     </g>
    </g>
    <g id="ytick_4">
     <g id="line2d_9">
      <g>
       <use xlink:href="#mc4b68b9bd9" x="135" y="303.346013" style="stroke: #000000; stroke-width: 0.8"/>
      </g>
     </g>
     <g id="text_10">
      <!-- 0.2 -->
      <g transform="translate(112.096875 307.145232) scale(0.1 -0.1)">
       <use xlink:href="#DejaVuSans-30"/>
       <use xlink:href="#DejaVuSans-2e" x="63.623047"/>
       <use xlink:href="#DejaVuSans-32" x="95.410156"/>
      </g>
     </g>
    </g>
    <g id="ytick_5">
     <g id="line2d_10">
      <g>
       <use xlink:href="#mc4b68b9bd9" x="135" y="255.919059" style="stroke: #000000; stroke-width: 0.8"/>
      </g>
     </g>
     <g id="text_11">
      <!-- 0.4 -->
      <g transform="translate(112.096875 259.718278) scale(0.1 -0.1)">
       <use xlink:href="#DejaVuSans-30"/>
       <use xlink:href="#DejaVuSans-2e" x="63.623047"/>
       <use xlink:href="#DejaVuSans-34" x="95.410156"/>
      </g>
     </g>
    </g>
    <g id="ytick_6">
     <g id="line2d_11">
      <g>
       <use xlink:href="#mc4b68b9bd9" x="135" y="208.492106" style="stroke: #000000; stroke-width: 0.8"/>
      </g>
     </g>
     <g id="text_12">
      <!-- 0.6 -->
      <g transform="translate(112.096875 212.291325) scale(0.1 -0.1)">
       <defs>
        <path id="DejaVuSans-36" d="M 2113 2584 
Q 1688 2584 1439 2293 
Q 1191 2003 1191 1497 
Q 1191 994 1439 701 
Q 1688 409 2113 409 
Q 2538 409 2786 701 
Q 3034 994 3034 1497 
Q 3034 2003 2786 2293 
Q 2538 2584 2113 2584 
z
M 3366 4563 
L 3366 3988 
Q 3128 4100 2886 4159 
Q 2644 4219 2406 4219 
Q 1781 4219 1451 3797 
Q 1122 3375 1075 2522 
Q 1259 2794 1537 2939 
Q 1816 3084 2150 3084 
Q 2853 3084 3261 2657 
Q 3669 2231 3669 1497 
Q 3669 778 3244 343 
Q 2819 -91 2113 -91 
Q 1303 -91 875 529 
Q 447 1150 447 2328 
Q 447 3434 972 4092 
Q 1497 4750 2381 4750 
Q 2619 4750 2861 4703 
Q 3103 4656 3366 4563 
z
" transform="scale(0.015625)"/>
       </defs>
       <use xlink:href="#DejaVuSans-30"/>
       <use xlink:href="#DejaVuSans-2e" x="63.623047"/>
       <use xlink:href="#DejaVuSans-36" x="95.410156"/>
      </g>
     </g>
    </g>
    <g id="ytick_7">
     <g id="line2d_12">
      <g>
       <use xlink:href="#mc4b68b9bd9" x="135" y="161.065153" style="stroke: #000000; stroke-width: 0.8"/>
      </g>
     </g>
     <g id="text_13">
      <!-- 0.8 -->
      <g transform="translate(112.096875 164.864371) scale(0.1 -0.1)">
       <defs>
        <path id="DejaVuSans-38" d="M 2034 2216 
Q 1584 2216 1326 1975 
Q 1069 1734 1069 1313 
Q 1069 891 1326 650 
Q 1584 409 2034 409 
Q 2484 409 2743 651 
Q 3003 894 3003 1313 
Q 3003 1734 2745 1975 
Q 2488 2216 2034 2216 
z
M 1403 2484 
Q 997 2584 770 2862 
Q 544 3141 544 3541 
Q 544 4100 942 4425 
Q 1341 4750 2034 4750 
Q 2731 4750 3128 4425 
Q 3525 4100 3525 3541 
Q 3525 3141 3298 2862 
Q 3072 2584 2669 2484 
Q 3125 2378 3379 2068 
Q 3634 1759 3634 1313 
Q 3634 634 3220 271 
Q 2806 -91 2034 -91 
Q 1263 -91 848 271 
Q 434 634 434 1313 
Q 434 1759 690 2068 
Q 947 2378 1403 2484 
z
M 1172 3481 
Q 1172 3119 1398 2916 
Q 1625 2713 2034 2713 
Q 2441 2713 2670 2916 
Q 2900 3119 2900 3481 
Q 2900 3844 2670 4047 
Q 2441 4250 2034 4250 
Q 1625 4250 1398 4047 
Q 1172 3844 1172 3481 
z
" transform="scale(0.015625)"/>
       </defs>
       <use xlink:href="#DejaVuSans-30"/>
       <use xlink:href="#DejaVuSans-2e" x="63.623047"/>
       <use xlink:href="#DejaVuSans-38" x="95.410156"/>
      </g>
     </g>
    </g>
    <g id="ytick_8">
     <g id="line2d_13">
      <g>
       <use xlink:href="#mc4b68b9bd9" x="135" y="113.638199" style="stroke: #000000; stroke-width: 0.8"/>
      </g>
     </g>
     <g id="text_14">
      <!-- 1.0 -->
      <g transform="translate(112.096875 117.437418) scale(0.1 -0.1)">
       <use xlink:href="#DejaVuSans-31"/>
       <use xlink:href="#DejaVuSans-2e" x="63.623047"/>
       <use xlink:href="#DejaVuSans-30" x="95.410156"/>
      </g>
     </g>
    </g>
    <g id="ytick_9">
     <g id="line2d_14">
      <g>
       <use xlink:href="#mc4b68b9bd9" x="135" y="66.211246" style="stroke: #000000; stroke-width: 0.8"/>
      </g>
     </g>
     <g id="text_15">
      <!-- 1.2 -->
      <g transform="translate(112.096875 70.010465) scale(0.1 -0.1)">
       <use xlink:href="#DejaVuSans-31"/>
       <use xlink:href="#DejaVuSans-2e" x="63.623047"/>
       <use xlink:href="#DejaVuSans-32" x="95.410156"/>
      </g>
     </g>
    </g>
   </g>
   <g id="line2d_15">
    <path d="M 173.045455 194.091756 
L 173.36604 85.207115 
L 173.526332 78.120336 
L 173.686625 82.494107 
L 174.327796 111.623955 
L 174.648381 116.266188 
L 174.808673 116.853674 
L 175.129259 117.083131 
L 175.289551 117.577616 
L 175.449844 118.76619 
L 175.770429 124.049949 
L 176.091014 133.775094 
L 176.571892 155.851695 
L 177.693941 220.947266 
L 178.014526 417.496461 
L 178.174819 430.919969 
L 178.335111 423.5703 
L 179.136574 359.747157 
L 179.45716 346.981843 
L 179.777745 341.293772 
L 179.938037 340.880408 
L 180.09833 341.888875 
L 180.418915 347.312683 
L 181.060086 365.348004 
L 182.021842 391.485483 
L 182.502719 399.116757 
L 182.823305 401.105599 
L 182.983597 401.049357 
L 183.14389 400.266283 
L 183.464475 396.528469 
L 183.945353 385.919759 
L 184.586524 364.940479 
L 186.029157 314.420387 
L 186.670328 300.076559 
L 187.151206 294.182167 
L 187.471791 292.496509 
L 187.632083 292.272315 
L 187.792376 292.427509 
L 188.112961 293.761963 
L 188.593839 297.860484 
L 189.23501 305.921687 
L 191.318814 334.493772 
L 192.120277 342.024742 
L 192.761447 346.236663 
L 193.402618 349.041587 
L 193.883496 350.391885 
L 194.364374 351.238356 
L 194.845252 351.702183 
L 195.326129 351.890866 
L 195.9673 351.867796 
L 196.929056 351.55629 
L 198.852567 350.92329 
L 200.295201 350.73273 
L 202.539298 350.724582 
L 209.271588 350.776101 
L 213.278903 350.772517 
L 213.599489 116.743667 
L 213.759781 85.206761 
L 213.920074 78.120008 
L 214.080367 82.493802 
L 214.721537 111.623728 
L 215.042122 116.265997 
L 215.202415 116.853501 
L 215.523 117.082994 
L 215.683293 117.577497 
L 215.843585 118.766087 
L 216.164171 124.049878 
L 216.484756 133.77505 
L 216.965634 155.851683 
L 218.087682 220.947289 
L 218.408267 417.496491 
L 218.56856 430.92 
L 218.728853 423.570332 
L 219.530316 359.747185 
L 219.850901 346.981868 
L 220.171486 341.293793 
L 220.331779 340.880428 
L 220.492072 341.888892 
L 220.812657 347.312697 
L 221.453827 365.348013 
L 222.415583 391.485487 
L 222.896461 399.116759 
L 223.217046 401.105601 
L 223.377339 401.049358 
L 223.537631 400.266285 
L 223.858217 396.52847 
L 224.339095 385.91976 
L 224.980265 364.940479 
L 226.422899 314.420387 
L 227.064069 300.076559 
L 227.544947 294.182167 
L 227.865532 292.496509 
L 228.025825 292.272315 
L 228.186118 292.427509 
L 228.506703 293.761963 
L 228.987581 297.860484 
L 229.628751 305.921687 
L 231.712555 334.493772 
L 232.514018 342.024742 
L 233.155189 346.236663 
L 233.796359 349.041587 
L 234.277237 350.391885 
L 234.758115 351.238356 
L 235.238993 351.702183 
L 235.719871 351.890866 
L 236.361041 351.867796 
L 237.322797 351.55629 
L 239.246309 350.92329 
L 240.688942 350.73273 
L 242.933039 350.724582 
L 249.665329 350.776101 
L 253.99323 350.772533 
L 254.313815 116.743685 
L 254.474108 85.20678 
L 254.634401 78.120027 
L 254.794693 82.493823 
L 255.435864 111.623752 
L 255.756449 116.266022 
L 255.916742 116.853525 
L 256.237327 117.083018 
L 256.39762 117.577519 
L 256.557912 118.766108 
L 256.878497 124.049896 
L 257.199083 133.775065 
L 257.679961 155.851693 
L 258.802009 220.94729 
L 259.122594 417.49649 
L 259.282887 430.919999 
L 259.443179 423.57033 
L 260.244643 359.747182 
L 260.565228 346.981865 
L 260.885813 341.29379 
L 261.046106 340.880425 
L 261.206398 341.88889 
L 261.526984 347.312695 
L 262.168154 365.348012 
L 263.12991 391.485486 
L 263.610788 399.116759 
L 263.931373 401.105601 
L 264.091666 401.049358 
L 264.251958 400.266284 
L 264.572543 396.528469 
L 265.053421 385.91976 
L 265.694592 364.940479 
L 267.137225 314.420387 
L 267.778396 300.076559 
L 268.259274 294.182167 
L 268.579859 292.496509 
L 268.740152 292.272315 
L 268.900444 292.427509 
L 269.22103 293.761963 
L 269.701907 297.860484 
L 270.343078 305.921687 
L 272.426882 334.493772 
L 273.228345 342.024742 
L 273.869516 346.236663 
L 274.510686 349.041587 
L 274.991564 350.391885 
L 275.472442 351.238356 
L 275.95332 351.702183 
L 276.434198 351.890866 
L 277.075368 351.867796 
L 278.037124 351.55629 
L 279.960635 350.92329 
L 281.403269 350.73273 
L 283.647366 350.724582 
L 290.379656 350.776101 
L 293.585509 350.772575 
L 293.906094 116.743699 
L 294.066386 85.206782 
L 294.226679 78.120018 
L 294.386972 82.493802 
L 295.028142 111.623693 
L 295.348727 116.265951 
L 295.50902 116.85345 
L 295.829605 117.082938 
L 295.989898 117.577439 
L 296.150191 118.76603 
L 296.470776 124.049823 
L 296.791361 133.775 
L 297.272239 155.851644 
L 298.394287 220.947277 
L 298.714873 417.496484 
L 298.875165 430.919996 
L 299.035458 423.570329 
L 299.836921 359.747189 
L 300.157506 346.981873 
L 300.478091 341.293799 
L 300.638384 340.880433 
L 300.798677 341.888898 
L 301.119262 347.312702 
L 301.760432 365.348017 
L 302.722188 391.485489 
L 303.203066 399.116761 
L 303.523651 401.105603 
L 303.683944 401.049359 
L 303.844237 400.266286 
L 304.164822 396.528471 
L 304.6457 385.91976 
L 305.28687 364.940479 
L 306.729504 314.420387 
L 307.370674 300.076559 
L 307.851552 294.182167 
L 308.172137 292.496509 
L 308.33243 292.272315 
L 308.492723 292.427509 
L 308.813308 293.761963 
L 309.294186 297.860484 
L 309.935356 305.921687 
L 312.01916 334.493772 
L 312.820624 342.024742 
L 313.461794 346.236663 
L 314.102965 349.041587 
L 314.583842 350.391885 
L 315.06472 351.238356 
L 315.545598 351.702183 
L 316.026476 351.890866 
L 316.667647 351.867796 
L 317.629402 351.55629 
L 319.552914 350.92329 
L 320.995547 350.73273 
L 323.239644 350.724582 
L 329.971934 350.776101 
L 333.818957 350.772516 
L 334.139543 116.743664 
L 334.299835 85.206756 
L 334.460128 78.120002 
L 334.620421 82.493796 
L 335.261591 111.623717 
L 335.582176 116.265986 
L 335.742469 116.853489 
L 336.063054 117.082983 
L 336.223347 117.577485 
L 336.383639 118.766076 
L 336.704225 124.049868 
L 337.02481 133.775041 
L 337.505688 155.851677 
L 338.627736 220.947288 
L 338.948321 417.49649 
L 339.108614 430.92 
L 339.268907 423.570332 
L 340.07037 359.747186 
L 340.390955 346.981869 
L 340.71154 341.293794 
L 340.871833 340.880429 
L 341.032126 341.888894 
L 341.352711 347.312698 
L 341.993881 365.348014 
L 342.955637 391.485487 
L 343.436515 399.11676 
L 343.7571 401.105602 
L 343.917393 401.049358 
L 344.077685 400.266285 
L 344.398271 396.52847 
L 344.879149 385.91976 
L 345.520319 364.940479 
L 346.962953 314.420387 
L 347.604123 300.076559 
L 348.085001 294.182167 
L 348.405586 292.496509 
L 348.565879 292.272315 
L 348.726172 292.427509 
L 349.046757 293.761963 
L 349.527635 297.860484 
L 350.168805 305.921687 
L 352.252609 334.493772 
L 353.054072 342.024742 
L 353.695243 346.236663 
L 354.336413 349.041587 
L 354.817291 350.391885 
L 355.298169 351.238356 
L 355.779047 351.702183 
L 356.259925 351.890866 
L 356.901095 351.867796 
L 357.862851 351.55629 
L 359.786363 350.92329 
L 361.228996 350.73273 
L 363.473093 350.724582 
L 370.205383 350.776101 
L 373.090651 350.772655 
L 373.411236 116.743757 
L 373.571528 85.206831 
L 373.731821 78.120058 
L 373.892114 82.493834 
L 374.533284 111.623696 
L 374.853869 116.265943 
L 375.014162 116.853439 
L 375.334747 117.08292 
L 375.49504 117.577418 
L 375.655333 118.766007 
L 375.975918 124.049799 
L 376.296503 133.774976 
L 376.777381 155.851623 
L 377.899429 220.947267 
L 378.220015 417.496477 
L 378.380307 430.91999 
L 378.5406 423.570324 
L 379.342063 359.747188 
L 379.662648 346.981873 
L 379.983233 341.2938 
L 380.143526 340.880434 
L 380.303819 341.888899 
L 380.624404 347.312704 
L 381.265574 365.348019 
L 382.22733 391.48549 
L 382.708208 399.116762 
L 383.028793 401.105603 
L 383.189086 401.04936 
L 383.349379 400.266286 
L 383.669964 396.528471 
L 384.150842 385.919761 
L 384.792012 364.940479 
L 386.234646 314.420387 
L 386.875816 300.076559 
L 387.356694 294.182167 
L 387.677279 292.496509 
L 387.837572 292.272315 
L 387.997865 292.427509 
L 388.31845 293.761963 
L 388.799328 297.860484 
L 389.440498 305.921687 
L 391.524302 334.493772 
L 392.325766 342.024742 
L 392.966936 346.236663 
L 393.608107 349.041587 
L 394.088984 350.391885 
L 394.569862 351.238356 
L 395.05074 351.702183 
L 395.531618 351.890866 
L 396.172789 351.867796 
L 397.134544 351.55629 
L 399.058056 350.92329 
L 400.500689 350.73273 
L 402.744786 350.724582 
L 409.477076 350.776101 
L 413.644685 350.772523 
L 413.96527 116.743675 
L 414.125563 85.206769 
L 414.285855 78.120017 
L 414.446148 82.493812 
L 415.087318 111.623739 
L 415.407904 116.266009 
L 415.568196 116.853513 
L 415.888781 117.083006 
L 416.049074 117.577508 
L 416.209367 118.766098 
L 416.529952 124.049888 
L 416.850537 133.775058 
L 417.331415 155.851688 
L 418.453463 220.94729 
L 418.774049 417.496491 
L 418.934341 430.92 
L 419.094634 423.570331 
L 419.896097 359.747184 
L 420.216682 346.981866 
L 420.537268 341.293792 
L 420.69756 340.880426 
L 420.857853 341.888891 
L 421.178438 347.312696 
L 421.819609 365.348012 
L 422.781364 391.485486 
L 423.262242 399.116759 
L 423.582827 401.105601 
L 423.74312 401.049358 
L 423.903413 400.266284 
L 424.223998 396.52847 
L 424.704876 385.91976 
L 425.346046 364.940479 
L 426.78868 314.420387 
L 427.42985 300.076559 
L 427.910728 294.182167 
L 428.231314 292.496509 
L 428.391606 292.272315 
L 428.551899 292.427509 
L 428.872484 293.761963 
L 429.353362 297.860484 
L 429.994532 305.921687 
L 432.078337 334.493772 
L 432.8798 342.024742 
L 433.52097 346.236663 
L 434.162141 349.041587 
L 434.643019 350.391885 
L 435.123896 351.238356 
L 435.604774 351.702183 
L 436.085652 351.890866 
L 436.726823 351.867796 
L 437.688578 351.55629 
L 439.61209 350.92329 
L 441.054724 350.73273 
L 443.29882 350.724582 
L 450.031111 350.776101 
L 453.557548 350.772531 
L 453.878134 116.74367 
L 454.038426 85.206759 
L 454.198719 78.120001 
L 454.359011 82.493791 
L 455.000182 111.623701 
L 455.320767 116.265966 
L 455.48106 116.853468 
L 455.801645 117.08296 
L 455.961938 117.577462 
L 456.12223 118.766053 
L 456.442816 124.049847 
L 456.763401 133.775022 
L 457.244279 155.851662 
L 458.366327 220.947283 
L 458.686912 417.496488 
L 458.847205 430.919999 
L 459.007498 423.570332 
L 459.808961 359.747188 
L 460.129546 346.981872 
L 460.450131 341.293797 
L 460.610424 340.880431 
L 460.770716 341.888896 
L 461.091302 347.3127 
L 461.732472 365.348016 
L 462.694228 391.485488 
L 463.175106 399.11676 
L 463.495691 401.105602 
L 463.655984 401.049359 
L 463.816276 400.266285 
L 464.136862 396.52847 
L 464.617739 385.91976 
L 465.25891 364.940479 
L 466.701544 314.420387 
L 467.342714 300.076559 
L 467.823592 294.182167 
L 468.144177 292.496509 
L 468.30447 292.272315 
L 468.464762 292.427509 
L 468.785348 293.761963 
L 469.266226 297.860484 
L 469.907396 305.921687 
L 471.9912 334.493772 
L 472.792663 342.024742 
L 473.433834 346.236663 
L 474.075004 349.041587 
L 474.555882 350.391885 
L 475.03676 351.238356 
L 475.517638 351.702183 
L 475.998516 351.890866 
L 476.639686 351.867796 
L 477.601442 351.55629 
L 479.524954 350.92329 
L 480.967587 350.73273 
L 483.211684 350.724582 
L 489.943974 350.776101 
L 493.630705 350.772521 
L 493.95129 116.743664 
L 494.111582 85.206756 
L 494.271875 78.12 
L 494.432168 82.493792 
L 495.073338 111.623708 
L 495.393923 116.265975 
L 495.554216 116.853478 
L 495.874801 117.082971 
L 496.035094 117.577473 
L 496.195387 118.766065 
L 496.515972 124.049858 
L 496.836557 133.775032 
L 497.317435 155.85167 
L 498.439483 220.947286 
L 498.760069 417.496489 
L 498.920361 430.92 
L 499.080654 423.570332 
L 499.882117 359.747187 
L 500.202702 346.98187 
L 500.523287 341.293796 
L 500.68358 340.88043 
L 500.843873 341.888895 
L 501.164458 347.312699 
L 501.805628 365.348015 
L 502.767384 391.485488 
L 503.248262 399.11676 
L 503.568847 401.105602 
L 503.72914 401.049359 
L 503.889433 400.266285 
L 504.210018 396.52847 
L 504.690896 385.91976 
L 505.332066 364.940479 
L 506.7747 314.420387 
L 507.41587 300.076559 
L 507.896748 294.182167 
L 508.217333 292.496509 
L 508.377626 292.272315 
L 508.537919 292.427509 
L 508.858504 293.761963 
L 509.339382 297.860484 
L 509.980552 305.921687 
L 512.064356 334.493772 
L 512.86582 342.024742 
L 513.50699 346.236663 
L 514.148161 349.041587 
L 514.629038 350.391885 
L 515.109916 351.238356 
L 515.590794 351.702183 
L 516.071672 351.890866 
L 516.712843 351.867796 
L 517.674598 351.55629 
L 519.59811 350.92329 
L 521.040743 350.73273 
L 523.28484 350.724582 
L 530.01713 350.776101 
L 533.864153 350.772516 
L 534.184739 116.743664 
L 534.345031 85.206756 
L 534.505324 78.120002 
L 534.665617 82.493796 
L 535.306787 111.623717 
L 535.627372 116.265986 
L 535.787665 116.853489 
L 536.10825 117.082983 
L 536.268543 117.577485 
L 536.428835 118.766076 
L 536.749421 124.049868 
L 537.070006 133.775041 
L 537.550884 155.851677 
L 538.672932 220.947288 
L 538.993517 417.49649 
L 539.15381 430.92 
L 539.314103 423.570332 
L 540.115566 359.747186 
L 540.436151 346.981869 
L 540.756736 341.293794 
L 540.917029 340.880429 
L 541.077322 341.888894 
L 541.397907 347.312698 
L 542.039077 365.348014 
L 543.000833 391.485487 
L 543.481711 399.11676 
L 543.802296 401.105602 
L 543.962589 401.049358 
L 544.122881 400.266285 
L 544.443467 396.52847 
L 544.924345 385.91976 
L 545.565515 364.940479 
L 547.008149 314.420387 
L 547.649319 300.076559 
L 548.130197 294.182167 
L 548.450782 292.496509 
L 548.611075 292.272315 
L 548.771368 292.427509 
L 549.091953 293.761963 
L 549.572831 297.860484 
L 550.214001 305.921687 
L 552.297805 334.493772 
L 553.099268 342.024742 
L 553.740439 346.236663 
L 554.381609 349.041587 
L 554.862487 350.391885 
L 555.343365 351.238356 
L 555.824243 351.702183 
L 556.305121 351.890866 
L 556.946291 351.867796 
L 557.908047 351.55629 
L 559.831559 350.92329 
L 561.274192 350.73273 
L 563.518289 350.724582 
L 570.250579 350.776101 
L 574.257895 350.772517 
L 574.57848 116.743667 
L 574.738773 85.206761 
L 574.899065 78.120008 
L 575.059358 82.493802 
L 575.700529 111.623728 
L 576.021114 116.265997 
L 576.181406 116.853501 
L 576.501992 117.082994 
L 576.662284 117.577497 
L 576.822577 118.766087 
L 577.143162 124.049878 
L 577.463747 133.77505 
L 577.944625 155.851683 
L 579.066674 220.947289 
L 579.387259 417.496491 
L 579.547552 430.92 
L 579.707844 423.570332 
L 580.509307 359.747185 
L 580.829893 346.981868 
L 581.150478 341.293793 
L 581.31077 340.880428 
L 581.471063 341.888892 
L 581.791648 347.312697 
L 582.432819 365.348013 
L 583.394575 391.485487 
L 583.875452 399.116759 
L 584.196038 401.105601 
L 584.35633 401.049358 
L 584.516623 400.266285 
L 584.837208 396.52847 
L 585.318086 385.91976 
L 585.959257 364.940479 
L 587.40189 314.420387 
L 588.043061 300.076559 
L 588.523939 294.182167 
L 588.844524 292.496509 
L 589.004816 292.272315 
L 589.165109 292.427509 
L 589.485694 293.761963 
L 589.966572 297.860484 
L 590.607743 305.921687 
L 592.691547 334.493772 
L 593.49301 342.024742 
L 594.13418 346.236663 
L 594.775351 349.041587 
L 595.256229 350.391885 
L 595.737107 351.238356 
L 596.217985 351.702183 
L 596.698862 351.890866 
L 597.340033 351.867796 
L 598.301789 351.55629 
L 600.2253 350.92329 
L 601.667934 350.73273 
L 603.912031 350.724582 
L 610.644321 350.776101 
L 613.209003 350.772778 
L 613.529588 116.74385 
L 613.689881 85.206911 
L 613.850173 78.120126 
L 614.010466 82.493891 
L 614.651636 111.623715 
L 614.972222 116.265947 
L 615.132514 116.853436 
L 615.4531 117.082907 
L 615.613392 117.577402 
L 615.773685 118.765987 
L 616.09427 124.049775 
L 616.414855 133.77495 
L 616.895733 155.851599 
L 618.017782 220.947254 
L 618.338367 417.496466 
L 618.498659 430.91998 
L 618.658952 423.570317 
L 619.460415 359.747186 
L 619.781 346.981872 
L 620.101586 341.293799 
L 620.261878 340.880434 
L 620.422171 341.888899 
L 620.742756 347.312704 
L 621.383927 365.34802 
L 622.345682 391.485491 
L 622.82656 399.116763 
L 623.147146 401.105604 
L 623.307438 401.049361 
L 623.467731 400.266287 
L 623.788316 396.528471 
L 624.269194 385.919761 
L 624.910364 364.940479 
L 626.352998 314.420387 
L 626.994169 300.076559 
L 627.475046 294.182167 
L 627.795632 292.496509 
L 627.955924 292.272315 
L 628.116217 292.427509 
L 628.436802 293.761963 
L 628.91768 297.860484 
L 629.558851 305.921687 
L 631.642655 334.493772 
L 632.444118 342.024742 
L 633.085288 346.236663 
L 633.726459 349.041587 
L 634.207337 350.391885 
L 634.688215 351.238356 
L 635.169092 351.702183 
L 635.64997 351.890866 
L 636.291141 351.867796 
L 637.252897 351.55629 
L 639.176408 350.92329 
L 640.619042 350.73273 
L 642.863138 350.724582 
L 649.595429 350.776101 
L 653.92333 350.772533 
L 654.243915 116.743685 
L 654.404207 85.20678 
L 654.5645 78.120027 
L 654.724793 82.493823 
L 655.365963 111.623752 
L 655.686548 116.266022 
L 655.846841 116.853525 
L 656.167426 117.083018 
L 656.327719 117.577519 
L 656.488012 118.766108 
L 656.808597 124.049896 
L 657.129182 133.775065 
L 657.61006 155.851693 
L 658.732108 220.94729 
L 659.052694 417.49649 
L 659.212986 430.919999 
L 659.373279 423.57033 
L 660.174742 359.747182 
L 660.495327 346.981865 
L 660.815912 341.29379 
L 660.976205 340.880425 
L 661.136498 341.88889 
L 661.457083 347.312695 
L 662.098253 365.348012 
L 663.060009 391.485486 
L 663.540887 399.116759 
L 663.861472 401.105601 
L 664.021765 401.049358 
L 664.182058 400.266284 
L 664.502643 396.528469 
L 664.983521 385.91976 
L 665.624691 364.940479 
L 667.067325 314.420387 
L 667.708495 300.076559 
L 668.189373 294.182167 
L 668.509958 292.496509 
L 668.670251 292.272315 
L 668.830544 292.427509 
L 669.151129 293.761963 
L 669.632007 297.860484 
L 670.273177 305.921687 
L 672.356981 334.493772 
L 673.158445 342.024742 
L 673.799615 346.236663 
L 674.440786 349.041587 
L 674.921663 350.391885 
L 675.402541 351.238356 
L 675.883419 351.702183 
L 676.364297 351.890866 
L 677.005468 351.867796 
L 677.967223 351.55629 
L 679.890735 350.92329 
L 681.333368 350.73273 
L 683.577465 350.724582 
L 690.309755 350.776101 
L 694.156778 350.772516 
L 694.477364 116.743664 
L 694.637656 85.206756 
L 694.797949 78.120002 
L 694.958242 82.493796 
L 695.599412 111.623717 
L 695.919997 116.265986 
L 696.08029 116.853489 
L 696.400875 117.082983 
L 696.561168 117.577485 
L 696.72146 118.766076 
L 697.042046 124.049868 
L 697.362631 133.775041 
L 697.843509 155.851677 
L 698.965557 220.947288 
L 699.286142 417.49649 
L 699.446435 430.92 
L 699.606728 423.570332 
L 700.408191 359.747186 
L 700.728776 346.981869 
L 701.049361 341.293794 
L 701.209654 340.880429 
L 701.369947 341.888894 
L 701.690532 347.312698 
L 702.331702 365.348014 
L 703.293458 391.485487 
L 703.774336 399.11676 
L 704.094921 401.105602 
L 704.255214 401.049358 
L 704.415506 400.266285 
L 704.736092 396.52847 
L 705.21697 385.91976 
L 705.85814 364.940479 
L 707.300774 314.420387 
L 707.941944 300.076559 
L 708.422822 294.182167 
L 708.743407 292.496509 
L 708.9037 292.272315 
L 709.063993 292.427509 
L 709.384578 293.761963 
L 709.865456 297.860484 
L 710.506626 305.921687 
L 712.59043 334.493772 
L 713.391893 342.024742 
L 714.033064 346.236663 
L 714.674234 349.041587 
L 715.155112 350.391885 
L 715.63599 351.238356 
L 716.116868 351.702183 
L 716.597746 351.890866 
L 717.238916 351.867796 
L 718.200672 351.55629 
L 720.124184 350.92329 
L 721.566817 350.73273 
L 723.810914 350.724582 
L 730.543204 350.776101 
L 734.069642 350.772531 
L 734.390227 116.74367 
L 734.55052 85.206759 
L 734.710813 78.120001 
L 734.871105 82.493791 
L 735.512276 111.623701 
L 735.832861 116.265966 
L 735.993154 116.853468 
L 736.313739 117.08296 
L 736.474031 117.577462 
L 736.634324 118.766053 
L 736.954909 124.049847 
L 737.275495 133.775022 
L 737.756372 155.851662 
L 738.878421 220.947283 
L 739.199006 417.496488 
L 739.359299 430.919999 
L 739.519591 423.570332 
L 740.321054 359.747188 
L 740.64164 346.981872 
L 740.962225 341.293797 
L 741.122518 340.880431 
L 741.28281 341.888896 
L 741.603395 347.3127 
L 742.244566 365.348016 
L 743.206322 391.485488 
L 743.6872 399.11676 
L 744.007785 401.105602 
L 744.168077 401.049359 
L 744.32837 400.266285 
L 744.648955 396.52847 
L 745.129833 385.91976 
L 745.771004 364.940479 
L 747.213637 314.420387 
L 747.854808 300.076559 
L 748.335686 294.182167 
L 748.656271 292.496509 
L 748.816564 292.272315 
L 748.976856 292.427509 
L 749.297441 293.761963 
L 749.778319 297.860484 
L 750.41949 305.921687 
L 752.503294 334.493772 
L 753.304757 342.024742 
L 753.945928 346.236663 
L 754.587098 349.041587 
L 755.067976 350.391885 
L 755.548854 351.238356 
L 756.029732 351.702183 
L 756.51061 351.890866 
L 757.15178 351.867796 
L 758.113536 351.55629 
L 760.037047 350.92329 
L 761.479681 350.73273 
L 763.723778 350.724582 
L 770.456068 350.776101 
L 773.822213 350.772549 
L 774.142798 116.743681 
L 774.303091 85.206768 
L 774.463384 78.120007 
L 774.623676 82.493795 
L 775.264847 111.623696 
L 775.585432 116.265957 
L 775.745725 116.853458 
L 776.06631 117.082949 
L 776.226602 117.57745 
L 776.386895 118.766042 
L 776.70748 124.049835 
L 777.028066 133.775011 
L 777.508943 155.851654 
L 778.630992 220.94728 
L 778.951577 417.496486 
L 779.11187 430.919998 
L 779.272162 423.570331 
L 780.073625 359.747189 
L 780.394211 346.981872 
L 780.714796 341.293798 
L 780.875089 340.880432 
L 781.035381 341.888897 
L 781.355966 347.312701 
L 781.997137 365.348017 
L 782.958893 391.485489 
L 783.439771 399.116761 
L 783.760356 401.105602 
L 783.920648 401.049359 
L 784.080941 400.266285 
L 784.401526 396.52847 
L 784.882404 385.91976 
L 785.523575 364.940479 
L 786.966208 314.420387 
L 787.607379 300.076559 
L 788.088257 294.182167 
L 788.408842 292.496509 
L 788.569135 292.272315 
L 788.729427 292.427509 
L 789.050012 293.761963 
L 789.53089 297.860484 
L 790.172061 305.921687 
L 792.255865 334.493772 
L 793.057328 342.024742 
L 793.698499 346.236663 
L 794.339669 349.041587 
L 794.820547 350.391885 
L 795.301425 351.238356 
L 795.782303 351.702183 
L 796.263181 351.890866 
L 796.904351 351.867796 
L 797.866107 351.55629 
L 799.789618 350.92329 
L 801.232252 350.73273 
L 803.476349 350.724582 
L 810.208639 350.776101 
L 813.414491 350.772575 
L 813.735077 116.743699 
L 813.895369 85.206782 
L 814.055662 78.120018 
L 814.215955 82.493802 
L 814.857125 111.623693 
L 815.17771 116.265951 
L 815.338003 116.85345 
L 815.658588 117.082938 
L 815.818881 117.577439 
L 815.979173 118.76603 
L 816.299759 124.049823 
L 816.620344 133.775 
L 817.101222 155.851644 
L 818.22327 220.947277 
L 818.543855 417.496484 
L 818.704148 430.919996 
L 818.864441 423.570329 
L 819.665904 359.747189 
L 819.986489 346.981873 
L 820.307074 341.293799 
L 820.467367 340.880433 
L 820.62766 341.888898 
L 820.948245 347.312702 
L 821.589415 365.348017 
L 822.551171 391.485489 
L 823.032049 399.116761 
L 823.352634 401.105603 
L 823.512927 401.049359 
L 823.673219 400.266286 
L 823.993805 396.528471 
L 824.474683 385.91976 
L 825.115853 364.940479 
L 826.558487 314.420387 
L 827.199657 300.076559 
L 827.680535 294.182167 
L 828.00112 292.496509 
L 828.161413 292.272315 
L 828.321706 292.427509 
L 828.642291 293.761963 
L 829.123169 297.860484 
L 829.764339 305.921687 
L 831.848143 334.493772 
L 832.649606 342.024742 
L 833.290777 346.236663 
L 833.931947 349.041587 
L 834.412825 350.391885 
L 834.893703 351.238356 
L 835.374581 351.702183 
L 835.855459 351.890866 
L 836.496629 351.867796 
L 837.458385 351.55629 
L 839.381897 350.92329 
L 840.82453 350.73273 
L 843.068627 350.724582 
L 849.800917 350.776101 
L 854.609696 350.772581 
L 854.930281 116.74373 
L 855.090574 85.206823 
L 855.250867 78.12007 
L 855.411159 82.493865 
L 856.05233 111.623791 
L 856.372915 116.266059 
L 856.533208 116.853561 
L 856.853793 117.08305 
L 857.014085 117.577549 
L 857.174378 118.766136 
L 857.494963 124.049919 
L 857.815549 133.775083 
L 858.296426 155.851704 
L 859.418475 220.94729 
L 859.73906 417.496487 
L 859.899353 430.919995 
L 860.059645 423.570326 
L 860.861108 359.747177 
L 861.181694 346.98186 
L 861.502279 341.293786 
L 861.662572 340.880421 
L 861.822864 341.888886 
L 862.143449 347.312691 
L 862.78462 365.348009 
L 863.746376 391.485485 
L 864.227254 399.116758 
L 864.547839 401.1056 
L 864.708131 401.049357 
L 864.868424 400.266284 
L 865.189009 396.528469 
L 865.669887 385.919759 
L 866.311058 364.940479 
L 867.753691 314.420387 
L 868.394862 300.076559 
L 868.87574 294.182167 
L 869.196325 292.496509 
L 869.356618 292.272315 
L 869.51691 292.427509 
L 869.837495 293.761963 
L 870.318373 297.860484 
L 870.959544 305.921687 
L 873.043348 334.493772 
L 873.844811 342.024742 
L 874.485982 346.236663 
L 875.127152 349.041587 
L 875.60803 350.391885 
L 876.088908 351.238356 
L 876.569786 351.702183 
L 877.050664 351.890866 
L 877.691834 351.867796 
L 878.65359 351.55629 
L 880.577101 350.92329 
L 882.019735 350.73273 
L 884.263832 350.724582 
L 890.996122 350.776101 
L 894.362267 350.772549 
L 894.682852 116.743681 
L 894.843145 85.206768 
L 895.003438 78.120007 
L 895.16373 82.493795 
L 895.804901 111.623696 
L 896.125486 116.265957 
L 896.285779 116.853458 
L 896.606364 117.082949 
L 896.766656 117.57745 
L 896.926949 118.766042 
L 897.247534 124.049835 
L 897.56812 133.775011 
L 898.048997 155.851654 
L 899.171046 220.94728 
L 899.491631 417.496486 
L 899.651924 430.919998 
L 899.812216 423.570331 
L 900.613679 359.747189 
L 900.934265 346.981872 
L 901.25485 341.293798 
L 901.415143 340.880432 
L 901.575435 341.888897 
L 901.89602 347.312701 
L 902.537191 365.348017 
L 903.498947 391.485489 
L 903.979825 399.116761 
L 904.30041 401.105602 
L 904.460702 401.049359 
L 904.620995 400.266285 
L 904.94158 396.52847 
L 905.422458 385.91976 
L 906.063629 364.940479 
L 907.506262 314.420387 
L 908.147433 300.076559 
L 908.628311 294.182167 
L 908.948896 292.496509 
L 909.109189 292.272315 
L 909.269481 292.427509 
L 909.590066 293.761963 
L 910.070944 297.860484 
L 910.712115 305.921687 
L 912.795919 334.493772 
L 913.597382 342.024742 
L 914.238553 346.236663 
L 914.879723 349.041587 
L 915.360601 350.391885 
L 915.841479 351.238356 
L 916.322357 351.702183 
L 916.803235 351.890866 
L 917.444405 351.867796 
L 918.406161 351.55629 
L 920.329672 350.92329 
L 921.772306 350.73273 
L 924.016403 350.724582 
L 930.748693 350.776101 
L 933.794253 350.77261 
L 933.954545 194.091414 
L 933.954545 194.091414 
" clip-path="url(#p056062caad)" style="fill: none; stroke: #1f77b4; stroke-width: 1.5; stroke-linecap: square"/>
   </g>
   <g id="line2d_16">
    <path d="M 173.045455 113.638199 
L 177.693941 113.638199 
L 177.854233 350.772966 
L 213.278903 350.772966 
L 213.439196 113.638199 
L 218.087682 113.638199 
L 218.247975 350.772966 
L 253.99323 350.772966 
L 254.153523 113.638199 
L 258.802009 113.638199 
L 258.962302 350.772966 
L 293.585509 350.772966 
L 293.745801 113.638199 
L 298.394287 113.638199 
L 298.55458 350.772966 
L 333.818957 350.772966 
L 333.97925 113.638199 
L 338.627736 113.638199 
L 338.788029 350.772966 
L 373.090651 350.772966 
L 373.250943 113.638199 
L 377.899429 113.638199 
L 378.059722 350.772966 
L 413.644685 350.772966 
L 413.804977 113.638199 
L 418.453463 113.638199 
L 418.613756 350.772966 
L 453.557548 350.772966 
L 453.717841 113.638199 
L 458.366327 113.638199 
L 458.52662 350.772966 
L 493.630705 350.772966 
L 493.790997 113.638199 
L 498.439483 113.638199 
L 498.599776 350.772966 
L 533.864153 350.772966 
L 534.024446 113.638199 
L 538.672932 113.638199 
L 538.833225 350.772966 
L 574.257895 350.772966 
L 574.418188 113.638199 
L 579.066674 113.638199 
L 579.226966 350.772966 
L 613.209003 350.772966 
L 613.369295 113.638199 
L 618.017782 113.638199 
L 618.178074 350.772966 
L 653.92333 350.772966 
L 654.083622 113.638199 
L 658.732108 113.638199 
L 658.892401 350.772966 
L 694.156778 350.772966 
L 694.317071 113.638199 
L 698.965557 113.638199 
L 699.12585 350.772966 
L 734.069642 350.772966 
L 734.229935 113.638199 
L 738.878421 113.638199 
L 739.038713 350.772966 
L 773.822213 350.772966 
L 773.982506 113.638199 
L 778.630992 113.638199 
L 778.791284 350.772966 
L 813.414491 350.772966 
L 813.574784 113.638199 
L 818.22327 113.638199 
L 818.383563 350.772966 
L 854.609696 350.772966 
L 854.769989 113.638199 
L 859.418475 113.638199 
L 859.578767 350.772966 
L 894.362267 350.772966 
L 894.52256 113.638199 
L 899.171046 113.638199 
L 899.331338 350.772966 
L 933.794253 350.772966 
L 933.954545 113.638199 
L 933.954545 113.638199 
" clip-path="url(#p056062caad)" style="fill: none; stroke: #ff7f0e; stroke-width: 1.5; stroke-linecap: square"/>
   </g>
   <g id="line2d_17">
    <path d="M 929.466352 350.772966 
" clip-path="url(#p056062caad)" style="fill: none; stroke: #000000; stroke-width: 1.5; stroke-linecap: square"/>
    <defs>
     <path id="m20864a736a" d="M 0 1 
C 0.265203 1 0.51958 0.894634 0.707107 0.707107 
C 0.894634 0.51958 1 0.265203 1 0 
C 1 -0.265203 0.894634 -0.51958 0.707107 -0.707107 
C 0.51958 -0.894634 0.265203 -1 0 -1 
C -0.265203 -1 -0.51958 -0.894634 -0.707107 -0.707107 
C -0.894634 -0.51958 -1 -0.265203 -1 0 
C -1 0.265203 -0.894634 0.51958 -0.707107 0.707107 
C -0.51958 0.894634 -0.265203 1 0 1 
z
" style="stroke: #000000"/>
    </defs>
    <g clip-path="url(#p056062caad)">
     <use xlink:href="#m20864a736a" x="173.045455" y="113.638199" style="stroke: #000000"/>
     <use xlink:href="#m20864a736a" x="178.174819" y="350.772966" style="stroke: #000000"/>
     <use xlink:href="#m20864a736a" x="183.14389" y="350.772966" style="stroke: #000000"/>
     <use xlink:href="#m20864a736a" x="188.112961" y="113.638199" style="stroke: #000000"/>
     <use xlink:href="#m20864a736a" x="193.082033" y="350.772966" style="stroke: #000000"/>
     <use xlink:href="#m20864a736a" x="198.211397" y="350.772966" style="stroke: #000000"/>
     <use xlink:href="#m20864a736a" x="203.180468" y="113.638199" style="stroke: #000000"/>
     <use xlink:href="#m20864a736a" x="208.149539" y="350.772966" style="stroke: #000000"/>
     <use xlink:href="#m20864a736a" x="213.118611" y="113.638199" style="stroke: #000000"/>
     <use xlink:href="#m20864a736a" x="218.247975" y="350.772966" style="stroke: #000000"/>
     <use xlink:href="#m20864a736a" x="223.217046" y="350.772966" style="stroke: #000000"/>
     <use xlink:href="#m20864a736a" x="228.186118" y="113.638199" style="stroke: #000000"/>
     <use xlink:href="#m20864a736a" x="233.155189" y="350.772966" style="stroke: #000000"/>
     <use xlink:href="#m20864a736a" x="238.284553" y="350.772966" style="stroke: #000000"/>
     <use xlink:href="#m20864a736a" x="243.253624" y="113.638199" style="stroke: #000000"/>
     <use xlink:href="#m20864a736a" x="248.222696" y="350.772966" style="stroke: #000000"/>
     <use xlink:href="#m20864a736a" x="253.191767" y="113.638199" style="stroke: #000000"/>
     <use xlink:href="#m20864a736a" x="258.321131" y="350.772966" style="stroke: #000000"/>
     <use xlink:href="#m20864a736a" x="263.290202" y="350.772966" style="stroke: #000000"/>
     <use xlink:href="#m20864a736a" x="268.259274" y="113.638199" style="stroke: #000000"/>
     <use xlink:href="#m20864a736a" x="273.228345" y="350.772966" style="stroke: #000000"/>
     <use xlink:href="#m20864a736a" x="278.357709" y="350.772966" style="stroke: #000000"/>
     <use xlink:href="#m20864a736a" x="283.326781" y="113.638199" style="stroke: #000000"/>
     <use xlink:href="#m20864a736a" x="288.295852" y="350.772966" style="stroke: #000000"/>
     <use xlink:href="#m20864a736a" x="293.264923" y="113.638199" style="stroke: #000000"/>
     <use xlink:href="#m20864a736a" x="298.394287" y="350.772966" style="stroke: #000000"/>
     <use xlink:href="#m20864a736a" x="303.363359" y="350.772966" style="stroke: #000000"/>
     <use xlink:href="#m20864a736a" x="308.33243" y="113.638199" style="stroke: #000000"/>
     <use xlink:href="#m20864a736a" x="313.301501" y="350.772966" style="stroke: #000000"/>
     <use xlink:href="#m20864a736a" x="318.430865" y="350.772966" style="stroke: #000000"/>
     <use xlink:href="#m20864a736a" x="323.399937" y="113.638199" style="stroke: #000000"/>
     <use xlink:href="#m20864a736a" x="328.369008" y="350.772966" style="stroke: #000000"/>
     <use xlink:href="#m20864a736a" x="333.33808" y="113.638199" style="stroke: #000000"/>
     <use xlink:href="#m20864a736a" x="338.467444" y="350.772966" style="stroke: #000000"/>
     <use xlink:href="#m20864a736a" x="343.436515" y="350.772966" style="stroke: #000000"/>
     <use xlink:href="#m20864a736a" x="348.405586" y="113.638199" style="stroke: #000000"/>
     <use xlink:href="#m20864a736a" x="353.374658" y="350.772966" style="stroke: #000000"/>
     <use xlink:href="#m20864a736a" x="358.504022" y="350.772966" style="stroke: #000000"/>
     <use xlink:href="#m20864a736a" x="363.473093" y="113.638199" style="stroke: #000000"/>
     <use xlink:href="#m20864a736a" x="368.442164" y="350.772966" style="stroke: #000000"/>
     <use xlink:href="#m20864a736a" x="373.411236" y="113.638199" style="stroke: #000000"/>
     <use xlink:href="#m20864a736a" x="378.5406" y="350.772966" style="stroke: #000000"/>
     <use xlink:href="#m20864a736a" x="383.509671" y="350.772966" style="stroke: #000000"/>
     <use xlink:href="#m20864a736a" x="388.478743" y="113.638199" style="stroke: #000000"/>
     <use xlink:href="#m20864a736a" x="393.447814" y="350.772966" style="stroke: #000000"/>
     <use xlink:href="#m20864a736a" x="398.577178" y="350.772966" style="stroke: #000000"/>
     <use xlink:href="#m20864a736a" x="403.546249" y="113.638199" style="stroke: #000000"/>
     <use xlink:href="#m20864a736a" x="408.515321" y="350.772966" style="stroke: #000000"/>
     <use xlink:href="#m20864a736a" x="413.484392" y="113.638199" style="stroke: #000000"/>
     <use xlink:href="#m20864a736a" x="418.613756" y="350.772966" style="stroke: #000000"/>
     <use xlink:href="#m20864a736a" x="423.582827" y="350.772966" style="stroke: #000000"/>
     <use xlink:href="#m20864a736a" x="428.551899" y="113.638199" style="stroke: #000000"/>
     <use xlink:href="#m20864a736a" x="433.52097" y="350.772966" style="stroke: #000000"/>
     <use xlink:href="#m20864a736a" x="438.650334" y="350.772966" style="stroke: #000000"/>
     <use xlink:href="#m20864a736a" x="443.619406" y="113.638199" style="stroke: #000000"/>
     <use xlink:href="#m20864a736a" x="448.588477" y="350.772966" style="stroke: #000000"/>
     <use xlink:href="#m20864a736a" x="453.557548" y="113.638199" style="stroke: #000000"/>
     <use xlink:href="#m20864a736a" x="458.686912" y="350.772966" style="stroke: #000000"/>
     <use xlink:href="#m20864a736a" x="463.655984" y="350.772966" style="stroke: #000000"/>
     <use xlink:href="#m20864a736a" x="468.625055" y="113.638199" style="stroke: #000000"/>
     <use xlink:href="#m20864a736a" x="473.594126" y="350.772966" style="stroke: #000000"/>
     <use xlink:href="#m20864a736a" x="478.72349" y="350.772966" style="stroke: #000000"/>
     <use xlink:href="#m20864a736a" x="483.692562" y="113.638199" style="stroke: #000000"/>
     <use xlink:href="#m20864a736a" x="488.661633" y="350.772966" style="stroke: #000000"/>
     <use xlink:href="#m20864a736a" x="493.630705" y="113.638199" style="stroke: #000000"/>
     <use xlink:href="#m20864a736a" x="498.760069" y="350.772966" style="stroke: #000000"/>
     <use xlink:href="#m20864a736a" x="503.72914" y="350.772966" style="stroke: #000000"/>
     <use xlink:href="#m20864a736a" x="508.698211" y="113.638199" style="stroke: #000000"/>
     <use xlink:href="#m20864a736a" x="513.667283" y="350.772966" style="stroke: #000000"/>
     <use xlink:href="#m20864a736a" x="518.796647" y="350.772966" style="stroke: #000000"/>
     <use xlink:href="#m20864a736a" x="523.765718" y="113.638199" style="stroke: #000000"/>
     <use xlink:href="#m20864a736a" x="528.734789" y="350.772966" style="stroke: #000000"/>
     <use xlink:href="#m20864a736a" x="533.703861" y="113.638199" style="stroke: #000000"/>
     <use xlink:href="#m20864a736a" x="538.833225" y="350.772966" style="stroke: #000000"/>
     <use xlink:href="#m20864a736a" x="543.802296" y="350.772966" style="stroke: #000000"/>
     <use xlink:href="#m20864a736a" x="548.771368" y="113.638199" style="stroke: #000000"/>
     <use xlink:href="#m20864a736a" x="553.740439" y="350.772966" style="stroke: #000000"/>
     <use xlink:href="#m20864a736a" x="558.869803" y="350.772966" style="stroke: #000000"/>
     <use xlink:href="#m20864a736a" x="563.838874" y="113.638199" style="stroke: #000000"/>
     <use xlink:href="#m20864a736a" x="568.807946" y="350.772966" style="stroke: #000000"/>
     <use xlink:href="#m20864a736a" x="573.777017" y="113.638199" style="stroke: #000000"/>
     <use xlink:href="#m20864a736a" x="578.906381" y="350.772966" style="stroke: #000000"/>
     <use xlink:href="#m20864a736a" x="583.875452" y="350.772966" style="stroke: #000000"/>
     <use xlink:href="#m20864a736a" x="588.844524" y="113.638199" style="stroke: #000000"/>
     <use xlink:href="#m20864a736a" x="593.813595" y="350.772966" style="stroke: #000000"/>
     <use xlink:href="#m20864a736a" x="598.942959" y="350.772966" style="stroke: #000000"/>
     <use xlink:href="#m20864a736a" x="603.912031" y="113.638199" style="stroke: #000000"/>
     <use xlink:href="#m20864a736a" x="608.881102" y="350.772966" style="stroke: #000000"/>
     <use xlink:href="#m20864a736a" x="613.850173" y="113.638199" style="stroke: #000000"/>
     <use xlink:href="#m20864a736a" x="618.979537" y="350.772966" style="stroke: #000000"/>
     <use xlink:href="#m20864a736a" x="623.948609" y="350.772966" style="stroke: #000000"/>
     <use xlink:href="#m20864a736a" x="628.91768" y="113.638199" style="stroke: #000000"/>
     <use xlink:href="#m20864a736a" x="633.886751" y="350.772966" style="stroke: #000000"/>
     <use xlink:href="#m20864a736a" x="639.016115" y="350.772966" style="stroke: #000000"/>
     <use xlink:href="#m20864a736a" x="643.985187" y="113.638199" style="stroke: #000000"/>
     <use xlink:href="#m20864a736a" x="648.954258" y="350.772966" style="stroke: #000000"/>
     <use xlink:href="#m20864a736a" x="653.92333" y="113.638199" style="stroke: #000000"/>
     <use xlink:href="#m20864a736a" x="659.052694" y="350.772966" style="stroke: #000000"/>
     <use xlink:href="#m20864a736a" x="664.021765" y="350.772966" style="stroke: #000000"/>
     <use xlink:href="#m20864a736a" x="668.990836" y="113.638199" style="stroke: #000000"/>
     <use xlink:href="#m20864a736a" x="673.959908" y="350.772966" style="stroke: #000000"/>
     <use xlink:href="#m20864a736a" x="679.089272" y="350.772966" style="stroke: #000000"/>
     <use xlink:href="#m20864a736a" x="684.058343" y="113.638199" style="stroke: #000000"/>
     <use xlink:href="#m20864a736a" x="689.027414" y="350.772966" style="stroke: #000000"/>
     <use xlink:href="#m20864a736a" x="693.996486" y="113.638199" style="stroke: #000000"/>
     <use xlink:href="#m20864a736a" x="699.12585" y="350.772966" style="stroke: #000000"/>
     <use xlink:href="#m20864a736a" x="704.094921" y="350.772966" style="stroke: #000000"/>
     <use xlink:href="#m20864a736a" x="709.063993" y="113.638199" style="stroke: #000000"/>
     <use xlink:href="#m20864a736a" x="714.033064" y="350.772966" style="stroke: #000000"/>
     <use xlink:href="#m20864a736a" x="719.162428" y="350.772966" style="stroke: #000000"/>
     <use xlink:href="#m20864a736a" x="724.131499" y="113.638199" style="stroke: #000000"/>
     <use xlink:href="#m20864a736a" x="729.100571" y="350.772966" style="stroke: #000000"/>
     <use xlink:href="#m20864a736a" x="734.069642" y="113.638199" style="stroke: #000000"/>
     <use xlink:href="#m20864a736a" x="739.199006" y="350.772966" style="stroke: #000000"/>
     <use xlink:href="#m20864a736a" x="744.168077" y="350.772966" style="stroke: #000000"/>
     <use xlink:href="#m20864a736a" x="749.137149" y="113.638199" style="stroke: #000000"/>
     <use xlink:href="#m20864a736a" x="754.10622" y="350.772966" style="stroke: #000000"/>
     <use xlink:href="#m20864a736a" x="759.235584" y="350.772966" style="stroke: #000000"/>
     <use xlink:href="#m20864a736a" x="764.204656" y="113.638199" style="stroke: #000000"/>
     <use xlink:href="#m20864a736a" x="769.173727" y="350.772966" style="stroke: #000000"/>
     <use xlink:href="#m20864a736a" x="774.142798" y="113.638199" style="stroke: #000000"/>
     <use xlink:href="#m20864a736a" x="779.272162" y="350.772966" style="stroke: #000000"/>
     <use xlink:href="#m20864a736a" x="784.241234" y="350.772966" style="stroke: #000000"/>
     <use xlink:href="#m20864a736a" x="789.210305" y="113.638199" style="stroke: #000000"/>
     <use xlink:href="#m20864a736a" x="794.179376" y="350.772966" style="stroke: #000000"/>
     <use xlink:href="#m20864a736a" x="799.30874" y="350.772966" style="stroke: #000000"/>
     <use xlink:href="#m20864a736a" x="804.277812" y="113.638199" style="stroke: #000000"/>
     <use xlink:href="#m20864a736a" x="809.246883" y="350.772966" style="stroke: #000000"/>
     <use xlink:href="#m20864a736a" x="814.215955" y="113.638199" style="stroke: #000000"/>
     <use xlink:href="#m20864a736a" x="819.345319" y="350.772966" style="stroke: #000000"/>
     <use xlink:href="#m20864a736a" x="824.31439" y="350.772966" style="stroke: #000000"/>
     <use xlink:href="#m20864a736a" x="829.283461" y="113.638199" style="stroke: #000000"/>
     <use xlink:href="#m20864a736a" x="834.252533" y="350.772966" style="stroke: #000000"/>
     <use xlink:href="#m20864a736a" x="839.381897" y="350.772966" style="stroke: #000000"/>
     <use xlink:href="#m20864a736a" x="844.350968" y="113.638199" style="stroke: #000000"/>
     <use xlink:href="#m20864a736a" x="849.320039" y="350.772966" style="stroke: #000000"/>
     <use xlink:href="#m20864a736a" x="854.289111" y="113.638199" style="stroke: #000000"/>
     <use xlink:href="#m20864a736a" x="859.418475" y="350.772966" style="stroke: #000000"/>
     <use xlink:href="#m20864a736a" x="864.387546" y="350.772966" style="stroke: #000000"/>
     <use xlink:href="#m20864a736a" x="869.356618" y="113.638199" style="stroke: #000000"/>
     <use xlink:href="#m20864a736a" x="874.325689" y="350.772966" style="stroke: #000000"/>
     <use xlink:href="#m20864a736a" x="879.455053" y="350.772966" style="stroke: #000000"/>
     <use xlink:href="#m20864a736a" x="884.424124" y="113.638199" style="stroke: #000000"/>
     <use xlink:href="#m20864a736a" x="889.393196" y="350.772966" style="stroke: #000000"/>
     <use xlink:href="#m20864a736a" x="894.362267" y="113.638199" style="stroke: #000000"/>
     <use xlink:href="#m20864a736a" x="899.491631" y="350.772966" style="stroke: #000000"/>
     <use xlink:href="#m20864a736a" x="904.460702" y="350.772966" style="stroke: #000000"/>
     <use xlink:href="#m20864a736a" x="909.429774" y="113.638199" style="stroke: #000000"/>
     <use xlink:href="#m20864a736a" x="914.398845" y="350.772966" style="stroke: #000000"/>
     <use xlink:href="#m20864a736a" x="919.528209" y="350.772966" style="stroke: #000000"/>
     <use xlink:href="#m20864a736a" x="924.497281" y="113.638199" style="stroke: #000000"/>
     <use xlink:href="#m20864a736a" x="929.466352" y="350.772966" style="stroke: #000000"/>
    </g>
   </g>
   <g id="patch_3">
    <path d="M 135 448.56 
L 135 60.48 
" style="fill: none; stroke: #000000; stroke-width: 0.8; stroke-linejoin: miter; stroke-linecap: square"/>
   </g>
   <g id="patch_4">
    <path d="M 972 448.56 
L 972 60.48 
" style="fill: none; stroke: #000000; stroke-width: 0.8; stroke-linejoin: miter; stroke-linecap: square"/>
   </g>
   <g id="patch_5">
    <path d="M 135 448.56 
L 972 448.56 
" style="fill: none; stroke: #000000; stroke-width: 0.8; stroke-linejoin: miter; stroke-linecap: square"/>
   </g>
   <g id="patch_6">
    <path d="M 135 60.48 
L 972 60.48 
" style="fill: none; stroke: #000000; stroke-width: 0.8; stroke-linejoin: miter; stroke-linecap: square"/>
   </g>
   <g id="legend_1">
    <g id="patch_7">
     <path d="M 895.915625 278.315313 
L 965 278.315313 
Q 967 278.315313 967 276.315313 
L 967 232.724688 
Q 967 230.724688 965 230.724688 
L 895.915625 230.724688 
Q 893.915625 230.724688 893.915625 232.724688 
L 893.915625 276.315313 
Q 893.915625 278.315313 895.915625 278.315313 
z
" style="fill: #ffffff; opacity: 0.8; stroke: #cccccc; stroke-linejoin: miter"/>
    </g>
    <g id="line2d_18">
     <path d="M 897.915625 238.823125 
L 907.915625 238.823125 
L 917.915625 238.823125 
" style="fill: none; stroke: #1f77b4; stroke-width: 1.5; stroke-linecap: square"/>
    </g>
    <g id="text_16">
     <!-- nw_0 -->
     <g transform="translate(925.915625 242.323125) scale(0.1 -0.1)">
      <defs>
       <path id="DejaVuSans-6e" d="M 3513 2113 
L 3513 0 
L 2938 0 
L 2938 2094 
Q 2938 2591 2744 2837 
Q 2550 3084 2163 3084 
Q 1697 3084 1428 2787 
Q 1159 2491 1159 1978 
L 1159 0 
L 581 0 
L 581 3500 
L 1159 3500 
L 1159 2956 
Q 1366 3272 1645 3428 
Q 1925 3584 2291 3584 
Q 2894 3584 3203 3211 
Q 3513 2838 3513 2113 
z
" transform="scale(0.015625)"/>
       <path id="DejaVuSans-77" d="M 269 3500 
L 844 3500 
L 1563 769 
L 2278 3500 
L 2956 3500 
L 3675 769 
L 4391 3500 
L 4966 3500 
L 4050 0 
L 3372 0 
L 2619 2869 
L 1863 0 
L 1184 0 
L 269 3500 
z
" transform="scale(0.015625)"/>
       <path id="DejaVuSans-5f" d="M 3263 -1063 
L 3263 -1509 
L -63 -1509 
L -63 -1063 
L 3263 -1063 
z
" transform="scale(0.015625)"/>
      </defs>
      <use xlink:href="#DejaVuSans-6e"/>
      <use xlink:href="#DejaVuSans-77" x="63.378906"/>
      <use xlink:href="#DejaVuSans-5f" x="145.166016"/>
      <use xlink:href="#DejaVuSans-30" x="195.166016"/>
     </g>
    </g>
    <g id="line2d_19">
     <path d="M 897.915625 253.779375 
L 907.915625 253.779375 
L 917.915625 253.779375 
" style="fill: none; stroke: #ff7f0e; stroke-width: 1.5; stroke-linecap: square"/>
    </g>
    <g id="text_17">
     <!-- input_0 -->
     <g transform="translate(925.915625 257.279375) scale(0.1 -0.1)">
      <defs>
       <path id="DejaVuSans-69" d="M 603 3500 
L 1178 3500 
L 1178 0 
L 603 0 
L 603 3500 
z
M 603 4863 
L 1178 4863 
L 1178 4134 
L 603 4134 
L 603 4863 
z
" transform="scale(0.015625)"/>
       <path id="DejaVuSans-70" d="M 1159 525 
L 1159 -1331 
L 581 -1331 
L 581 3500 
L 1159 3500 
L 1159 2969 
Q 1341 3281 1617 3432 
Q 1894 3584 2278 3584 
Q 2916 3584 3314 3078 
Q 3713 2572 3713 1747 
Q 3713 922 3314 415 
Q 2916 -91 2278 -91 
Q 1894 -91 1617 61 
Q 1341 213 1159 525 
z
M 3116 1747 
Q 3116 2381 2855 2742 
Q 2594 3103 2138 3103 
Q 1681 3103 1420 2742 
Q 1159 2381 1159 1747 
Q 1159 1113 1420 752 
Q 1681 391 2138 391 
Q 2594 391 2855 752 
Q 3116 1113 3116 1747 
z
" transform="scale(0.015625)"/>
       <path id="DejaVuSans-75" d="M 544 1381 
L 544 3500 
L 1119 3500 
L 1119 1403 
Q 1119 906 1312 657 
Q 1506 409 1894 409 
Q 2359 409 2629 706 
Q 2900 1003 2900 1516 
L 2900 3500 
L 3475 3500 
L 3475 0 
L 2900 0 
L 2900 538 
Q 2691 219 2414 64 
Q 2138 -91 1772 -91 
Q 1169 -91 856 284 
Q 544 659 544 1381 
z
M 1991 3584 
L 1991 3584 
z
" transform="scale(0.015625)"/>
      </defs>
      <use xlink:href="#DejaVuSans-69"/>
      <use xlink:href="#DejaVuSans-6e" x="27.783203"/>
      <use xlink:href="#DejaVuSans-70" x="91.162109"/>
      <use xlink:href="#DejaVuSans-75" x="154.638672"/>
      <use xlink:href="#DejaVuSans-74" x="218.017578"/>
      <use xlink:href="#DejaVuSans-5f" x="257.226562"/>
      <use xlink:href="#DejaVuSans-30" x="307.226562"/>
     </g>
    </g>
    <g id="line2d_20">
     <path d="M 897.915625 268.735625 
L 907.915625 268.735625 
L 917.915625 268.735625 
" style="fill: none; stroke: #000000; stroke-width: 1.5; stroke-linecap: square"/>
     <g>
      <use xlink:href="#m20864a736a" x="907.915625" y="268.735625" style="stroke: #000000"/>
     </g>
    </g>
    <g id="text_18">
     <!-- target -->
     <g transform="translate(925.915625 272.235625) scale(0.1 -0.1)">
      <defs>
       <path id="DejaVuSans-61" d="M 2194 1759 
Q 1497 1759 1228 1600 
Q 959 1441 959 1056 
Q 959 750 1161 570 
Q 1363 391 1709 391 
Q 2188 391 2477 730 
Q 2766 1069 2766 1631 
L 2766 1759 
L 2194 1759 
z
M 3341 1997 
L 3341 0 
L 2766 0 
L 2766 531 
Q 2569 213 2275 61 
Q 1981 -91 1556 -91 
Q 1019 -91 701 211 
Q 384 513 384 1019 
Q 384 1609 779 1909 
Q 1175 2209 1959 2209 
L 2766 2209 
L 2766 2266 
Q 2766 2663 2505 2880 
Q 2244 3097 1772 3097 
Q 1472 3097 1187 3025 
Q 903 2953 641 2809 
L 641 3341 
Q 956 3463 1253 3523 
Q 1550 3584 1831 3584 
Q 2591 3584 2966 3190 
Q 3341 2797 3341 1997 
z
" transform="scale(0.015625)"/>
       <path id="DejaVuSans-72" d="M 2631 2963 
Q 2534 3019 2420 3045 
Q 2306 3072 2169 3072 
Q 1681 3072 1420 2755 
Q 1159 2438 1159 1844 
L 1159 0 
L 581 0 
L 581 3500 
L 1159 3500 
L 1159 2956 
Q 1341 3275 1631 3429 
Q 1922 3584 2338 3584 
Q 2397 3584 2469 3576 
Q 2541 3569 2628 3553 
L 2631 2963 
z
" transform="scale(0.015625)"/>
       <path id="DejaVuSans-67" d="M 2906 1791 
Q 2906 2416 2648 2759 
Q 2391 3103 1925 3103 
Q 1463 3103 1205 2759 
Q 947 2416 947 1791 
Q 947 1169 1205 825 
Q 1463 481 1925 481 
Q 2391 481 2648 825 
Q 2906 1169 2906 1791 
z
M 3481 434 
Q 3481 -459 3084 -895 
Q 2688 -1331 1869 -1331 
Q 1566 -1331 1297 -1286 
Q 1028 -1241 775 -1147 
L 775 -588 
Q 1028 -725 1275 -790 
Q 1522 -856 1778 -856 
Q 2344 -856 2625 -561 
Q 2906 -266 2906 331 
L 2906 616 
Q 2728 306 2450 153 
Q 2172 0 1784 0 
Q 1141 0 747 490 
Q 353 981 353 1791 
Q 353 2603 747 3093 
Q 1141 3584 1784 3584 
Q 2172 3584 2450 3431 
Q 2728 3278 2906 2969 
L 2906 3500 
L 3481 3500 
L 3481 434 
z
" transform="scale(0.015625)"/>
       <path id="DejaVuSans-65" d="M 3597 1894 
L 3597 1613 
L 953 1613 
Q 991 1019 1311 708 
Q 1631 397 2203 397 
Q 2534 397 2845 478 
Q 3156 559 3463 722 
L 3463 178 
Q 3153 47 2828 -22 
Q 2503 -91 2169 -91 
Q 1331 -91 842 396 
Q 353 884 353 1716 
Q 353 2575 817 3079 
Q 1281 3584 2069 3584 
Q 2775 3584 3186 3129 
Q 3597 2675 3597 1894 
z
M 3022 2063 
Q 3016 2534 2758 2815 
Q 2500 3097 2075 3097 
Q 1594 3097 1305 2825 
Q 1016 2553 972 2059 
L 3022 2063 
z
" transform="scale(0.015625)"/>
      </defs>
      <use xlink:href="#DejaVuSans-74"/>
      <use xlink:href="#DejaVuSans-61" x="39.208984"/>
      <use xlink:href="#DejaVuSans-72" x="100.488281"/>
      <use xlink:href="#DejaVuSans-67" x="139.851562"/>
      <use xlink:href="#DejaVuSans-65" x="203.328125"/>
      <use xlink:href="#DejaVuSans-74" x="264.851562"/>
     </g>
    </g>
   </g>
  </g>
 </g>
 <defs>
  <clipPath id="p056062caad">
   <rect x="135" y="60.48" width="837" height="388.08"/>
  </clipPath>
 </defs>
</svg>
