<?xml version="1.0" encoding="utf-8" standalone="no"?>
<!DOCTYPE svg PUBLIC "-//W3C//DTD SVG 1.1//EN"
  "http://www.w3.org/Graphics/SVG/1.1/DTD/svg11.dtd">
<svg xmlns:xlink="http://www.w3.org/1999/xlink" width="1080pt" height="504pt" viewBox="0 0 1080 504" xmlns="http://www.w3.org/2000/svg" version="1.1">
 <metadata>
  <rdf:RDF xmlns:dc="http://purl.org/dc/elements/1.1/" xmlns:cc="http://creativecommons.org/ns#" xmlns:rdf="http://www.w3.org/1999/02/22-rdf-syntax-ns#">
   <cc:Work>
    <dc:type rdf:resource="http://purl.org/dc/dcmitype/StillImage"/>
    <dc:date>2024-05-09T10:59:49.893149</dc:date>
    <dc:format>image/svg+xml</dc:format>
    <dc:creator>
     <cc:Agent>
      <dc:title>Matplotlib v3.7.1, https://matplotlib.org/</dc:title>
     </cc:Agent>
    </dc:creator>
   </cc:Work>
  </rdf:RDF>
 </metadata>
 <defs>
  <style type="text/css">*{stroke-linejoin: round; stroke-linecap: butt}</style>
 </defs>
 <g id="figure_1">
  <g id="patch_1">
   <path d="M 0 504 
L 1080 504 
L 1080 0 
L 0 0 
z
" style="fill: #ffffff"/>
  </g>
  <g id="axes_1">
   <g id="patch_2">
    <path d="M 135 448.56 
L 972 448.56 
L 972 60.48 
L 135 60.48 
z
" style="fill: #ffffff"/>
   </g>
   <g id="matplotlib.axis_1">
    <g id="xtick_1">
     <g id="line2d_1">
      <defs>
       <path id="m37795b6cbc" d="M 0 0 
L 0 3.5 
" style="stroke: #000000; stroke-width: 0.8"/>
      </defs>
      <g>
       <use xlink:href="#m37795b6cbc" x="173.045455" y="448.56" style="stroke: #000000; stroke-width: 0.8"/>
      </g>
     </g>
     <g id="text_1">
      <!-- 0 -->
      <g transform="translate(169.864205 463.158437) scale(0.1 -0.1)">
       <defs>
        <path id="DejaVuSans-30" d="M 2034 4250 
Q 1547 4250 1301 3770 
Q 1056 3291 1056 2328 
Q 1056 1369 1301 889 
Q 1547 409 2034 409 
Q 2525 409 2770 889 
Q 3016 1369 3016 2328 
Q 3016 3291 2770 3770 
Q 2525 4250 2034 4250 
z
M 2034 4750 
Q 2819 4750 3233 4129 
Q 3647 3509 3647 2328 
Q 3647 1150 3233 529 
Q 2819 -91 2034 -91 
Q 1250 -91 836 529 
Q 422 1150 422 2328 
Q 422 3509 836 4129 
Q 1250 4750 2034 4750 
z
" transform="scale(0.015625)"/>
       </defs>
       <use xlink:href="#DejaVuSans-30"/>
      </g>
     </g>
    </g>
    <g id="xtick_2">
     <g id="line2d_2">
      <g>
       <use xlink:href="#m37795b6cbc" x="333.33808" y="448.56" style="stroke: #000000; stroke-width: 0.8"/>
      </g>
     </g>
     <g id="text_2">
      <!-- 1000 -->
      <g transform="translate(320.61308 463.158437) scale(0.1 -0.1)">
       <defs>
        <path id="DejaVuSans-31" d="M 794 531 
L 1825 531 
L 1825 4091 
L 703 3866 
L 703 4441 
L 1819 4666 
L 2450 4666 
L 2450 531 
L 3481 531 
L 3481 0 
L 794 0 
L 794 531 
z
" transform="scale(0.015625)"/>
       </defs>
       <use xlink:href="#DejaVuSans-31"/>
       <use xlink:href="#DejaVuSans-30" x="63.623047"/>
       <use xlink:href="#DejaVuSans-30" x="127.246094"/>
       <use xlink:href="#DejaVuSans-30" x="190.869141"/>
      </g>
     </g>
    </g>
    <g id="xtick_3">
     <g id="line2d_3">
      <g>
       <use xlink:href="#m37795b6cbc" x="493.630705" y="448.56" style="stroke: #000000; stroke-width: 0.8"/>
      </g>
     </g>
     <g id="text_3">
      <!-- 2000 -->
      <g transform="translate(480.905705 463.158437) scale(0.1 -0.1)">
       <defs>
        <path id="DejaVuSans-32" d="M 1228 531 
L 3431 531 
L 3431 0 
L 469 0 
L 469 531 
Q 828 903 1448 1529 
Q 2069 2156 2228 2338 
Q 2531 2678 2651 2914 
Q 2772 3150 2772 3378 
Q 2772 3750 2511 3984 
Q 2250 4219 1831 4219 
Q 1534 4219 1204 4116 
Q 875 4013 500 3803 
L 500 4441 
Q 881 4594 1212 4672 
Q 1544 4750 1819 4750 
Q 2544 4750 2975 4387 
Q 3406 4025 3406 3419 
Q 3406 3131 3298 2873 
Q 3191 2616 2906 2266 
Q 2828 2175 2409 1742 
Q 1991 1309 1228 531 
z
" transform="scale(0.015625)"/>
       </defs>
       <use xlink:href="#DejaVuSans-32"/>
       <use xlink:href="#DejaVuSans-30" x="63.623047"/>
       <use xlink:href="#DejaVuSans-30" x="127.246094"/>
       <use xlink:href="#DejaVuSans-30" x="190.869141"/>
      </g>
     </g>
    </g>
    <g id="xtick_4">
     <g id="line2d_4">
      <g>
       <use xlink:href="#m37795b6cbc" x="653.92333" y="448.56" style="stroke: #000000; stroke-width: 0.8"/>
      </g>
     </g>
     <g id="text_4">
      <!-- 3000 -->
      <g transform="translate(641.19833 463.158437) scale(0.1 -0.1)">
       <defs>
        <path id="DejaVuSans-33" d="M 2597 2516 
Q 3050 2419 3304 2112 
Q 3559 1806 3559 1356 
Q 3559 666 3084 287 
Q 2609 -91 1734 -91 
Q 1441 -91 1130 -33 
Q 819 25 488 141 
L 488 750 
Q 750 597 1062 519 
Q 1375 441 1716 441 
Q 2309 441 2620 675 
Q 2931 909 2931 1356 
Q 2931 1769 2642 2001 
Q 2353 2234 1838 2234 
L 1294 2234 
L 1294 2753 
L 1863 2753 
Q 2328 2753 2575 2939 
Q 2822 3125 2822 3475 
Q 2822 3834 2567 4026 
Q 2313 4219 1838 4219 
Q 1578 4219 1281 4162 
Q 984 4106 628 3988 
L 628 4550 
Q 988 4650 1302 4700 
Q 1616 4750 1894 4750 
Q 2613 4750 3031 4423 
Q 3450 4097 3450 3541 
Q 3450 3153 3228 2886 
Q 3006 2619 2597 2516 
z
" transform="scale(0.015625)"/>
       </defs>
       <use xlink:href="#DejaVuSans-33"/>
       <use xlink:href="#DejaVuSans-30" x="63.623047"/>
       <use xlink:href="#DejaVuSans-30" x="127.246094"/>
       <use xlink:href="#DejaVuSans-30" x="190.869141"/>
      </g>
     </g>
    </g>
    <g id="xtick_5">
     <g id="line2d_5">
      <g>
       <use xlink:href="#m37795b6cbc" x="814.215955" y="448.56" style="stroke: #000000; stroke-width: 0.8"/>
      </g>
     </g>
     <g id="text_5">
      <!-- 4000 -->
      <g transform="translate(801.490955 463.158437) scale(0.1 -0.1)">
       <defs>
        <path id="DejaVuSans-34" d="M 2419 4116 
L 825 1625 
L 2419 1625 
L 2419 4116 
z
M 2253 4666 
L 3047 4666 
L 3047 1625 
L 3713 1625 
L 3713 1100 
L 3047 1100 
L 3047 0 
L 2419 0 
L 2419 1100 
L 313 1100 
L 313 1709 
L 2253 4666 
z
" transform="scale(0.015625)"/>
       </defs>
       <use xlink:href="#DejaVuSans-34"/>
       <use xlink:href="#DejaVuSans-30" x="63.623047"/>
       <use xlink:href="#DejaVuSans-30" x="127.246094"/>
       <use xlink:href="#DejaVuSans-30" x="190.869141"/>
      </g>
     </g>
    </g>
    <g id="text_6">
     <!-- t -->
     <g transform="translate(551.539844 476.836563) scale(0.1 -0.1)">
      <defs>
       <path id="DejaVuSans-74" d="M 1172 4494 
L 1172 3500 
L 2356 3500 
L 2356 3053 
L 1172 3053 
L 1172 1153 
Q 1172 725 1289 603 
Q 1406 481 1766 481 
L 2356 481 
L 2356 0 
L 1766 0 
Q 1100 0 847 248 
Q 594 497 594 1153 
L 594 3053 
L 172 3053 
L 172 3500 
L 594 3500 
L 594 4494 
L 1172 4494 
z
" transform="scale(0.015625)"/>
      </defs>
      <use xlink:href="#DejaVuSans-74"/>
     </g>
    </g>
   </g>
   <g id="matplotlib.axis_2">
    <g id="ytick_1">
     <g id="line2d_6">
      <defs>
       <path id="m3f4c4e43ea" d="M 0 0 
L -3.5 0 
" style="stroke: #000000; stroke-width: 0.8"/>
      </defs>
      <g>
       <use xlink:href="#m3f4c4e43ea" x="135" y="416.402705" style="stroke: #000000; stroke-width: 0.8"/>
      </g>
     </g>
     <g id="text_7">
      <!-- −1.0 -->
      <g transform="translate(103.717187 420.201924) scale(0.1 -0.1)">
       <defs>
        <path id="DejaVuSans-2212" d="M 678 2272 
L 4684 2272 
L 4684 1741 
L 678 1741 
L 678 2272 
z
" transform="scale(0.015625)"/>
        <path id="DejaVuSans-2e" d="M 684 794 
L 1344 794 
L 1344 0 
L 684 0 
L 684 794 
z
" transform="scale(0.015625)"/>
       </defs>
       <use xlink:href="#DejaVuSans-2212"/>
       <use xlink:href="#DejaVuSans-31" x="83.789062"/>
       <use xlink:href="#DejaVuSans-2e" x="147.412109"/>
       <use xlink:href="#DejaVuSans-30" x="179.199219"/>
      </g>
     </g>
    </g>
    <g id="ytick_2">
     <g id="line2d_7">
      <g>
       <use xlink:href="#m3f4c4e43ea" x="135" y="362.076667" style="stroke: #000000; stroke-width: 0.8"/>
      </g>
     </g>
     <g id="text_8">
      <!-- −0.5 -->
      <g transform="translate(103.717187 365.875886) scale(0.1 -0.1)">
       <defs>
        <path id="DejaVuSans-35" d="M 691 4666 
L 3169 4666 
L 3169 4134 
L 1269 4134 
L 1269 2991 
Q 1406 3038 1543 3061 
Q 1681 3084 1819 3084 
Q 2600 3084 3056 2656 
Q 3513 2228 3513 1497 
Q 3513 744 3044 326 
Q 2575 -91 1722 -91 
Q 1428 -91 1123 -41 
Q 819 9 494 109 
L 494 744 
Q 775 591 1075 516 
Q 1375 441 1709 441 
Q 2250 441 2565 725 
Q 2881 1009 2881 1497 
Q 2881 1984 2565 2268 
Q 2250 2553 1709 2553 
Q 1456 2553 1204 2497 
Q 953 2441 691 2322 
L 691 4666 
z
" transform="scale(0.015625)"/>
       </defs>
       <use xlink:href="#DejaVuSans-2212"/>
       <use xlink:href="#DejaVuSans-30" x="83.789062"/>
       <use xlink:href="#DejaVuSans-2e" x="147.412109"/>
       <use xlink:href="#DejaVuSans-35" x="179.199219"/>
      </g>
     </g>
    </g>
    <g id="ytick_3">
     <g id="line2d_8">
      <g>
       <use xlink:href="#m3f4c4e43ea" x="135" y="307.75063" style="stroke: #000000; stroke-width: 0.8"/>
      </g>
     </g>
     <g id="text_9">
      <!-- 0.0 -->
      <g transform="translate(112.096875 311.549849) scale(0.1 -0.1)">
       <use xlink:href="#DejaVuSans-30"/>
       <use xlink:href="#DejaVuSans-2e" x="63.623047"/>
       <use xlink:href="#DejaVuSans-30" x="95.410156"/>
      </g>
     </g>
    </g>
    <g id="ytick_4">
     <g id="line2d_9">
      <g>
       <use xlink:href="#m3f4c4e43ea" x="135" y="253.424592" style="stroke: #000000; stroke-width: 0.8"/>
      </g>
     </g>
     <g id="text_10">
      <!-- 0.5 -->
      <g transform="translate(112.096875 257.223811) scale(0.1 -0.1)">
       <use xlink:href="#DejaVuSans-30"/>
       <use xlink:href="#DejaVuSans-2e" x="63.623047"/>
       <use xlink:href="#DejaVuSans-35" x="95.410156"/>
      </g>
     </g>
    </g>
    <g id="ytick_5">
     <g id="line2d_10">
      <g>
       <use xlink:href="#m3f4c4e43ea" x="135" y="199.098555" style="stroke: #000000; stroke-width: 0.8"/>
      </g>
     </g>
     <g id="text_11">
      <!-- 1.0 -->
      <g transform="translate(112.096875 202.897774) scale(0.1 -0.1)">
       <use xlink:href="#DejaVuSans-31"/>
       <use xlink:href="#DejaVuSans-2e" x="63.623047"/>
       <use xlink:href="#DejaVuSans-30" x="95.410156"/>
      </g>
     </g>
    </g>
    <g id="ytick_6">
     <g id="line2d_11">
      <g>
       <use xlink:href="#m3f4c4e43ea" x="135" y="144.772517" style="stroke: #000000; stroke-width: 0.8"/>
      </g>
     </g>
     <g id="text_12">
      <!-- 1.5 -->
      <g transform="translate(112.096875 148.571736) scale(0.1 -0.1)">
       <use xlink:href="#DejaVuSans-31"/>
       <use xlink:href="#DejaVuSans-2e" x="63.623047"/>
       <use xlink:href="#DejaVuSans-35" x="95.410156"/>
      </g>
     </g>
    </g>
    <g id="ytick_7">
     <g id="line2d_12">
      <g>
       <use xlink:href="#m3f4c4e43ea" x="135" y="90.44648" style="stroke: #000000; stroke-width: 0.8"/>
      </g>
     </g>
     <g id="text_13">
      <!-- 2.0 -->
      <g transform="translate(112.096875 94.245699) scale(0.1 -0.1)">
       <use xlink:href="#DejaVuSans-32"/>
       <use xlink:href="#DejaVuSans-2e" x="63.623047"/>
       <use xlink:href="#DejaVuSans-30" x="95.410156"/>
      </g>
     </g>
    </g>
   </g>
   <g id="line2d_13">
    <path d="M 173.045455 293.661016 
L 174.968966 98.623658 
L 175.289551 86.896582 
L 175.610137 82.280514 
L 176.091014 78.826659 
L 176.251307 78.160553 
L 176.4116 78.411904 
L 176.571892 80.304322 
L 176.732185 84.638987 
L 177.05277 103.607458 
L 177.373355 139.605202 
L 177.693941 193.091434 
L 177.854233 384.737399 
L 178.014526 430.84276 
L 178.335111 338.763138 
L 178.655696 254.189813 
L 178.976282 230.785656 
L 179.136574 232.818309 
L 179.617452 255.785475 
L 180.258623 282.817904 
L 180.739501 294.579821 
L 181.220378 302.164225 
L 181.701256 306.596494 
L 182.021842 307.79901 
L 182.182134 307.927339 
L 182.342427 307.799775 
L 182.663012 307.021297 
L 183.464475 304.798366 
L 183.78506 304.530038 
L 184.105646 304.599781 
L 184.586524 304.838284 
L 184.907109 304.722444 
L 185.227694 304.179736 
L 185.548279 303.152046 
L 186.029157 300.828773 
L 187.632083 292.283338 
L 188.112961 290.871453 
L 188.593839 290.054516 
L 189.074717 289.665767 
L 189.555595 289.561504 
L 190.036473 289.685064 
L 190.517351 290.077765 
L 190.998229 290.846871 
L 191.479106 292.111484 
L 192.120277 294.689752 
L 192.92174 299.228239 
L 194.845252 311.128606 
L 195.486422 313.482585 
L 195.9673 314.335009 
L 196.287885 314.452131 
L 196.60847 314.222035 
L 196.929056 313.670952 
L 197.409934 312.324817 
L 198.051104 309.80655 
L 200.615786 298.840354 
L 201.256957 297.23553 
L 201.737834 296.46782 
L 202.218712 296.058634 
L 202.69959 295.975056 
L 203.180468 296.172674 
L 203.821639 296.785925 
L 204.623102 297.942725 
L 206.546613 301.338798 
L 207.989247 303.611756 
L 209.111295 304.982471 
L 210.233344 305.994411 
L 211.355392 306.69616 
L 212.637733 307.204546 
L 213.278903 307.370852 
L 213.759781 255.758735 
L 214.400952 183.216652 
L 215.362708 98.561799 
L 215.683293 86.865115 
L 216.003878 82.275263 
L 216.484756 78.85295 
L 216.645049 78.195316 
L 216.805341 78.454147 
L 216.965634 80.353081 
L 217.125926 84.693333 
L 217.446512 103.670354 
L 217.767097 139.673479 
L 218.087682 193.162355 
L 218.247975 384.808654 
L 218.408267 430.913785 
L 218.728853 338.832874 
L 219.049438 254.257468 
L 219.370023 230.85038 
L 219.530316 232.881237 
L 220.011194 255.841862 
L 220.652364 282.863923 
L 221.133242 294.617873 
L 221.61412 302.194824 
L 222.094998 306.620493 
L 222.415583 307.819155 
L 222.575876 307.945724 
L 222.736168 307.81651 
L 223.056754 307.035054 
L 223.858217 304.806368 
L 224.178802 304.536324 
L 224.499387 304.604632 
L 224.980265 304.841431 
L 225.30085 304.72471 
L 225.621436 304.181289 
L 225.942021 303.153032 
L 226.422899 300.829133 
L 228.025825 292.282865 
L 228.506703 290.87095 
L 228.987581 290.054033 
L 229.468459 289.665337 
L 229.949336 289.561144 
L 230.430214 289.684783 
L 230.911092 290.077563 
L 231.39197 290.846744 
L 231.872848 292.111423 
L 232.514018 294.689765 
L 233.315482 299.22832 
L 235.238993 311.128751 
L 235.880164 313.48273 
L 236.361041 314.335149 
L 236.681627 314.452267 
L 237.002212 314.222165 
L 237.322797 313.671075 
L 237.803675 312.32493 
L 238.444846 309.806648 
L 241.009528 298.840399 
L 241.650698 297.235566 
L 242.131576 296.46785 
L 242.612454 296.058658 
L 243.093332 295.975076 
L 243.57421 296.17269 
L 244.21538 296.785935 
L 245.016843 297.942732 
L 246.940355 301.3388 
L 248.382988 303.611756 
L 249.505037 304.98247 
L 250.627085 305.994411 
L 251.749133 306.69616 
L 253.031474 307.204546 
L 253.99323 307.436929 
L 254.474108 255.81301 
L 255.115279 183.257648 
L 256.077034 98.585627 
L 256.39762 86.883992 
L 256.718205 82.289638 
L 257.199083 78.861487 
L 257.359375 78.202159 
L 257.519668 78.459423 
L 257.679961 80.356917 
L 257.840253 84.695854 
L 258.160838 103.67061 
L 258.481424 139.671926 
L 258.802009 193.159412 
L 258.962302 384.805119 
L 259.122594 430.909762 
L 259.443179 338.828072 
L 259.763765 254.252097 
L 260.08435 230.844645 
L 260.244643 232.875398 
L 260.72552 255.836001 
L 261.366691 282.858571 
L 261.847569 294.613146 
L 262.328447 302.190803 
L 262.809325 306.617177 
L 263.12991 307.816282 
L 263.290202 307.94306 
L 263.450495 307.814046 
L 263.77108 307.032961 
L 264.572543 304.80503 
L 264.893129 304.535223 
L 265.213714 304.603733 
L 265.694592 304.840781 
L 266.015177 304.724193 
L 266.335762 304.180884 
L 266.656348 303.15272 
L 267.137225 300.828929 
L 268.740152 292.28285 
L 269.22103 290.870958 
L 269.701907 290.054055 
L 270.182785 289.665366 
L 270.663663 289.561177 
L 271.144541 289.684815 
L 271.625419 290.077593 
L 272.106297 290.846769 
L 272.587175 292.111445 
L 273.228345 294.68978 
L 274.029808 299.228328 
L 275.95332 311.128747 
L 276.59449 313.482724 
L 277.075368 314.335142 
L 277.395953 314.452259 
L 277.716539 314.222157 
L 278.037124 313.671068 
L 278.518002 312.324922 
L 279.159172 309.806641 
L 281.723854 298.840395 
L 282.365025 297.235562 
L 282.845903 296.467847 
L 283.326781 296.058655 
L 283.807658 295.975074 
L 284.288536 296.172688 
L 284.929707 296.785934 
L 285.73117 297.942731 
L 287.654681 301.3388 
L 289.097315 303.611756 
L 290.219363 304.98247 
L 291.341412 305.994411 
L 292.46346 306.69616 
L 293.585509 307.154884 
L 294.066386 255.578035 
L 294.707557 183.076503 
L 295.669313 98.475909 
L 295.989898 86.795076 
L 296.310483 82.219693 
L 296.791361 78.816292 
L 296.951654 78.164191 
L 297.111946 78.428167 
L 297.272239 80.331862 
L 297.432532 84.676495 
L 297.753117 103.661172 
L 298.073702 139.670555 
L 298.394287 193.164407 
L 298.55458 384.812909 
L 298.714873 430.919908 
L 299.035458 338.842068 
L 299.356043 254.269022 
L 299.676628 230.863614 
L 299.836921 232.895059 
L 300.317799 255.856507 
L 300.958969 282.877887 
L 301.439847 294.630467 
L 301.920725 302.205699 
L 302.401603 306.629562 
L 302.722188 307.827062 
L 302.882481 307.953075 
L 303.042773 307.823326 
L 303.363359 307.04087 
L 304.164822 304.810127 
L 304.485407 304.539433 
L 304.805992 304.60718 
L 305.28687 304.843289 
L 305.607455 304.726195 
L 305.928041 304.182461 
L 306.248626 303.153943 
L 306.729504 300.829733 
L 308.33243 292.282916 
L 308.813308 290.870928 
L 309.294186 290.053965 
L 309.775064 289.665241 
L 310.255942 289.561036 
L 310.736819 289.684671 
L 311.217697 290.077456 
L 311.698575 290.846647 
L 312.179453 292.111339 
L 312.820624 294.689698 
L 313.622087 299.228275 
L 315.545598 311.128746 
L 316.186769 313.482733 
L 316.667647 314.335156 
L 316.988232 314.452276 
L 317.308817 314.222176 
L 317.629402 313.671088 
L 318.11028 312.324943 
L 318.751451 309.806662 
L 321.316133 298.840409 
L 321.957303 297.235574 
L 322.438181 296.467857 
L 322.919059 296.058664 
L 323.399937 295.975081 
L 323.880815 296.172694 
L 324.521985 296.785939 
L 325.323448 297.942734 
L 327.24696 301.338801 
L 328.689593 303.611756 
L 329.811642 304.98247 
L 330.93369 305.994411 
L 332.055739 306.69616 
L 333.33808 307.204546 
L 333.818957 307.333786 
L 334.299835 255.728044 
L 334.941006 183.193196 
L 335.902762 98.547833 
L 336.223347 86.853903 
L 336.543932 82.266558 
L 337.02481 78.84751 
L 337.185103 78.190827 
L 337.345395 78.450539 
L 337.505688 80.350285 
L 337.66598 84.691282 
L 337.986566 103.669594 
L 338.307151 139.67376 
L 338.627736 193.163449 
L 338.788029 384.8101 
L 338.948321 430.915526 
L 339.268907 338.835091 
L 339.589492 254.260043 
L 339.910077 230.853196 
L 340.07037 232.88413 
L 340.551248 255.844822 
L 341.192418 282.86667 
L 341.673296 294.62032 
L 342.154174 302.196918 
L 342.635052 306.622227 
L 342.955637 307.820662 
L 343.11593 307.947123 
L 343.276222 307.817804 
L 343.596808 307.036155 
L 344.398271 304.807076 
L 344.718856 304.536908 
L 345.039441 304.605109 
L 345.520319 304.841777 
L 345.840904 304.724986 
L 346.16149 304.181507 
L 346.482075 303.153201 
L 346.962953 300.829243 
L 348.565879 292.282875 
L 349.046757 290.870946 
L 349.527635 290.054021 
L 350.008513 289.66532 
L 350.48939 289.561126 
L 350.970268 289.684764 
L 351.451146 290.077546 
L 351.932024 290.846728 
L 352.412902 292.11141 
L 353.054072 294.689755 
L 353.855536 299.228314 
L 355.779047 311.128752 
L 356.420218 313.482732 
L 356.901095 314.335151 
L 357.221681 314.45227 
L 357.542266 314.222168 
L 357.862851 313.671079 
L 358.343729 312.324933 
L 358.9849 309.806652 
L 361.549582 298.840402 
L 362.190752 297.235568 
L 362.67163 296.467851 
L 363.152508 296.058659 
L 363.633386 295.975077 
L 364.114264 296.17269 
L 364.755434 296.785936 
L 365.556897 297.942732 
L 367.480409 301.3388 
L 368.923042 303.611756 
L 370.045091 304.98247 
L 371.167139 305.994411 
L 372.289187 306.69616 
L 373.090651 307.044611 
L 373.571528 255.484376 
L 374.212699 183.002385 
L 375.174455 98.428745 
L 375.49504 86.755859 
L 375.815625 82.187751 
L 376.296503 78.793907 
L 376.456796 78.14462 
L 376.617088 78.411225 
L 376.777381 80.317364 
L 376.937674 84.664259 
L 377.258259 103.652933 
L 377.578844 139.665642 
L 377.899429 193.162205 
L 378.059722 384.811937 
L 378.220015 430.92 
L 378.5406 338.843939 
L 378.861185 254.2723 
L 379.18177 230.867949 
L 379.342063 232.899797 
L 379.822941 255.861981 
L 380.464111 282.883431 
L 380.944989 294.635603 
L 381.425867 302.210215 
L 381.906745 306.633378 
L 382.22733 307.830412 
L 382.387623 307.956199 
L 382.547915 307.826231 
L 382.868501 307.043361 
L 383.669964 304.811754 
L 383.990549 304.540784 
L 384.311134 304.608292 
L 384.792012 304.844105 
L 385.112597 304.72685 
L 385.433183 304.182981 
L 385.753768 303.154349 
L 386.234646 300.830003 
L 387.837572 292.282937 
L 388.31845 290.870915 
L 388.799328 290.053929 
L 389.280206 289.665191 
L 389.761084 289.560978 
L 390.241961 289.684611 
L 390.722839 290.077397 
L 391.203717 290.846591 
L 391.684595 292.111288 
L 392.325766 294.689656 
L 393.127229 299.228244 
L 395.05074 311.128735 
L 395.691911 313.482727 
L 396.172789 314.335153 
L 396.493374 314.452274 
L 396.813959 314.222176 
L 397.134544 313.671088 
L 397.615422 312.324945 
L 398.256593 309.806665 
L 400.821275 298.840413 
L 401.462445 297.235577 
L 401.943323 296.46786 
L 402.424201 296.058667 
L 402.905079 295.975083 
L 403.385957 296.172696 
L 404.027127 296.78594 
L 404.82859 297.942735 
L 406.752102 301.338801 
L 408.194735 303.611756 
L 409.316784 304.98247 
L 410.438832 305.994411 
L 411.560881 306.69616 
L 412.843222 307.204546 
L 413.644685 307.405182 
L 414.125563 255.787009 
L 414.766733 183.238094 
L 415.728489 98.574365 
L 416.049074 86.875116 
L 416.369659 82.28293 
L 416.850537 78.857587 
L 417.01083 78.199073 
L 417.171122 78.457089 
L 417.331415 80.355273 
L 417.491708 84.694839 
L 417.812293 103.670678 
L 418.132878 139.672854 
L 418.453463 193.160998 
L 418.613756 384.806983 
L 418.774049 430.911853 
L 419.094634 338.830525 
L 419.415219 254.254812 
L 419.735804 230.847523 
L 419.896097 232.878321 
L 420.376975 255.838917 
L 421.018145 282.86122 
L 421.499023 294.61548 
L 421.979901 302.192784 
L 422.460779 306.618808 
L 422.781364 307.817694 
L 422.941657 307.944369 
L 423.10195 307.815256 
L 423.422535 307.033988 
L 424.223998 304.805686 
L 424.544583 304.535762 
L 424.865168 304.604173 
L 425.346046 304.841098 
L 425.666632 304.724445 
L 425.987217 304.181082 
L 426.307802 303.152872 
L 426.78868 300.829028 
L 428.391606 292.282857 
L 428.872484 290.870954 
L 429.353362 290.054045 
L 429.83424 289.665352 
L 430.315118 289.561161 
L 430.795996 289.684799 
L 431.276873 290.077578 
L 431.757751 290.846757 
L 432.238629 292.111435 
L 432.8798 294.689773 
L 433.681263 299.228325 
L 435.604774 311.128749 
L 436.245945 313.482727 
L 436.726823 314.335145 
L 437.047408 314.452263 
L 437.367993 314.222161 
L 437.688578 313.671072 
L 438.169456 312.324926 
L 438.810627 309.806645 
L 441.375309 298.840397 
L 442.016479 297.235564 
L 442.497357 296.467848 
L 442.978235 296.058657 
L 443.459113 295.975075 
L 443.939991 296.172689 
L 444.581161 296.785935 
L 445.382624 297.942732 
L 447.306136 301.3388 
L 448.74877 303.611756 
L 449.870818 304.98247 
L 450.992866 305.994411 
L 452.114915 306.69616 
L 453.397256 307.204546 
L 453.557548 307.250801 
L 454.038426 255.658807 
L 454.679597 183.139706 
L 455.641352 98.515299 
L 455.961938 86.82748 
L 456.282523 82.245711 
L 456.763401 78.833943 
L 456.923693 78.179387 
L 457.083986 78.441076 
L 457.244279 80.34265 
L 457.404571 84.685325 
L 457.725157 103.666567 
L 458.045742 139.673119 
L 458.366327 193.164696 
L 458.52662 384.812179 
L 458.686912 430.918306 
L 459.007498 338.839022 
L 459.328083 254.264852 
L 459.648668 230.858622 
L 459.808961 232.889767 
L 460.289839 255.850732 
L 460.931009 282.872259 
L 461.411887 294.625341 
L 461.892765 302.201242 
L 462.373643 306.625826 
L 462.694228 307.823796 
L 462.854521 307.950035 
L 463.014813 307.820504 
L 463.335398 307.038457 
L 464.136862 304.808561 
L 464.457447 304.538135 
L 464.778032 304.606114 
L 465.25891 304.84251 
L 465.579495 304.725571 
L 465.90008 304.181968 
L 466.220666 303.153559 
L 466.701544 300.829479 
L 468.30447 292.282894 
L 468.785348 290.870938 
L 469.266226 290.053995 
L 469.747103 289.665284 
L 470.227981 289.561084 
L 470.708859 289.684722 
L 471.189737 290.077505 
L 471.670615 290.846692 
L 472.151493 292.111379 
L 472.792663 294.689731 
L 473.594126 299.228299 
L 475.517638 311.128751 
L 476.158808 313.482734 
L 476.639686 314.335155 
L 476.960272 314.452274 
L 477.280857 314.222173 
L 477.601442 313.671084 
L 478.08232 312.324939 
L 478.72349 309.806658 
L 481.288172 298.840406 
L 481.929343 297.235571 
L 482.410221 296.467854 
L 482.891099 296.058662 
L 483.371977 295.975079 
L 483.852854 296.172692 
L 484.494025 296.785937 
L 485.295488 297.942733 
L 487.219 301.3388 
L 488.661633 303.611756 
L 489.783682 304.98247 
L 490.90573 305.994411 
L 492.027778 306.69616 
L 493.310119 307.204546 
L 493.630705 307.293825 
L 494.111582 255.694787 
L 494.752753 183.167593 
L 495.714509 98.532368 
L 496.035094 86.841389 
L 496.355679 82.256736 
L 496.836557 78.841199 
L 496.99685 78.18554 
L 497.157142 78.446204 
L 497.317435 80.346829 
L 497.477728 84.688632 
L 497.798313 103.668349 
L 498.118898 139.673655 
L 498.439483 193.164242 
L 498.599776 384.811288 
L 498.760069 430.917044 
L 499.080654 338.837151 
L 499.401239 254.262513 
L 499.721824 230.85595 
L 499.882117 232.88698 
L 500.362995 255.847785 
L 501.004165 282.869453 
L 501.485043 294.622812 
L 501.965921 302.199059 
L 502.446799 306.624007 
L 502.767384 307.82221 
L 502.927677 307.948561 
L 503.087969 307.819137 
L 503.408555 307.037291 
L 504.210018 304.807807 
L 504.530603 304.537512 
L 504.851188 304.605603 
L 505.332066 304.842137 
L 505.652651 304.725273 
L 505.973237 304.181733 
L 506.293822 303.153376 
L 506.7747 300.829358 
L 508.377626 292.282884 
L 508.858504 290.870942 
L 509.339382 290.054009 
L 509.82026 289.665303 
L 510.301138 289.561106 
L 510.782015 289.684744 
L 511.262893 290.077527 
L 511.743771 290.846711 
L 512.224649 292.111396 
L 512.86582 294.689744 
L 513.667283 299.228307 
L 515.590794 311.128752 
L 516.231965 313.482734 
L 516.712843 314.335154 
L 517.033428 314.452272 
L 517.354013 314.222171 
L 517.674598 313.671082 
L 518.155476 312.324937 
L 518.796647 309.806655 
L 521.361329 298.840404 
L 522.002499 297.235569 
L 522.483377 296.467853 
L 522.964255 296.058661 
L 523.445133 295.975078 
L 523.926011 296.172691 
L 524.567181 296.785937 
L 525.368644 297.942733 
L 527.292156 301.3388 
L 528.734789 303.611756 
L 529.856838 304.98247 
L 530.978886 305.994411 
L 532.100935 306.69616 
L 533.383276 307.204546 
L 533.864153 307.333786 
L 534.345031 255.728044 
L 534.986202 183.193196 
L 535.947958 98.547833 
L 536.268543 86.853903 
L 536.589128 82.266558 
L 537.070006 78.84751 
L 537.230299 78.190827 
L 537.390591 78.450539 
L 537.550884 80.350285 
L 537.711176 84.691282 
L 538.031762 103.669594 
L 538.352347 139.67376 
L 538.672932 193.163449 
L 538.833225 384.8101 
L 538.993517 430.915526 
L 539.314103 338.835091 
L 539.634688 254.260043 
L 539.955273 230.853196 
L 540.115566 232.88413 
L 540.596444 255.844822 
L 541.237614 282.86667 
L 541.718492 294.62032 
L 542.19937 302.196918 
L 542.680248 306.622227 
L 543.000833 307.820662 
L 543.161126 307.947123 
L 543.321418 307.817804 
L 543.642004 307.036155 
L 544.443467 304.807076 
L 544.764052 304.536908 
L 545.084637 304.605109 
L 545.565515 304.841777 
L 545.8861 304.724986 
L 546.206686 304.181507 
L 546.527271 303.153201 
L 547.008149 300.829243 
L 548.611075 292.282875 
L 549.091953 290.870946 
L 549.572831 290.054021 
L 550.053709 289.66532 
L 550.534586 289.561126 
L 551.015464 289.684764 
L 551.496342 290.077546 
L 551.97722 290.846728 
L 552.458098 292.11141 
L 553.099268 294.689755 
L 553.900732 299.228314 
L 555.824243 311.128752 
L 556.465414 313.482732 
L 556.946291 314.335151 
L 557.266877 314.45227 
L 557.587462 314.222168 
L 557.908047 313.671079 
L 558.388925 312.324933 
L 559.030096 309.806652 
L 561.594778 298.840402 
L 562.235948 297.235568 
L 562.716826 296.467851 
L 563.197704 296.058659 
L 563.678582 295.975077 
L 564.15946 296.17269 
L 564.80063 296.785936 
L 565.602093 297.942732 
L 567.525605 301.3388 
L 568.968238 303.611756 
L 570.090287 304.98247 
L 571.212335 305.994411 
L 572.334383 306.69616 
L 573.616724 307.204546 
L 574.257895 307.370852 
L 574.738773 255.758735 
L 575.379943 183.216652 
L 576.341699 98.561799 
L 576.662284 86.865115 
L 576.98287 82.275263 
L 577.463747 78.85295 
L 577.62404 78.195316 
L 577.784333 78.454147 
L 577.944625 80.353081 
L 578.104918 84.693333 
L 578.425503 103.670354 
L 578.746088 139.673479 
L 579.066674 193.162355 
L 579.226966 384.808654 
L 579.387259 430.913785 
L 579.707844 338.832874 
L 580.028429 254.257468 
L 580.349015 230.85038 
L 580.509307 232.881237 
L 580.990185 255.841862 
L 581.631356 282.863923 
L 582.112234 294.617873 
L 582.593111 302.194824 
L 583.073989 306.620493 
L 583.394575 307.819155 
L 583.554867 307.945724 
L 583.71516 307.81651 
L 584.035745 307.035054 
L 584.837208 304.806368 
L 585.157793 304.536324 
L 585.478379 304.604632 
L 585.959257 304.841431 
L 586.279842 304.72471 
L 586.600427 304.181289 
L 586.921012 303.153032 
L 587.40189 300.829133 
L 589.004816 292.282865 
L 589.485694 290.87095 
L 589.966572 290.054033 
L 590.44745 289.665337 
L 590.928328 289.561144 
L 591.409206 289.684783 
L 591.890084 290.077563 
L 592.370962 290.846744 
L 592.851839 292.111423 
L 593.49301 294.689765 
L 594.294473 299.22832 
L 596.217985 311.128751 
L 596.859155 313.48273 
L 597.340033 314.335149 
L 597.660618 314.452267 
L 597.981203 314.222165 
L 598.301789 313.671075 
L 598.782667 312.32493 
L 599.423837 309.806648 
L 601.988519 298.840399 
L 602.62969 297.235566 
L 603.110567 296.46785 
L 603.591445 296.058658 
L 604.072323 295.975076 
L 604.553201 296.17269 
L 605.194372 296.785935 
L 605.995835 297.942732 
L 607.919346 301.3388 
L 609.36198 303.611756 
L 610.484028 304.98247 
L 611.606077 305.994411 
L 612.728125 306.69616 
L 613.209003 306.918486 
L 613.689881 255.3764 
L 614.331051 182.916073 
L 615.292807 98.372823 
L 615.613392 86.708934 
L 615.933977 82.14907 
L 616.414855 78.76608 
L 616.575148 78.12 
L 616.735441 78.389606 
L 616.895733 80.298542 
L 617.056026 84.648034 
L 617.376611 103.64132 
L 617.697196 139.657905 
L 618.017782 193.157663 
L 618.178074 384.808864 
L 618.338367 430.918206 
L 618.658952 338.844303 
L 618.979537 254.274388 
L 619.300123 230.871366 
L 619.460415 232.903735 
L 619.941293 255.86695 
L 620.582464 282.888739 
L 621.063341 294.640627 
L 621.544219 302.214696 
L 622.025097 306.637201 
L 622.345682 307.833783 
L 622.505975 307.959349 
L 622.666268 307.829165 
L 622.986853 307.045887 
L 623.788316 304.813415 
L 624.108901 304.542166 
L 624.429487 304.609432 
L 624.910364 304.844945 
L 625.23095 304.727526 
L 625.551535 304.183518 
L 625.87212 303.154769 
L 626.352998 300.830282 
L 627.955924 292.282956 
L 628.436802 290.870897 
L 628.91768 290.053885 
L 629.398558 289.665131 
L 629.879436 289.56091 
L 630.360314 289.68454 
L 630.841192 290.077326 
L 631.322069 290.846523 
L 631.802947 292.111226 
L 632.444118 294.689602 
L 633.245581 299.228202 
L 635.169092 311.128717 
L 635.810263 313.482715 
L 636.291141 314.335144 
L 636.611726 314.452268 
L 636.932311 314.222171 
L 637.252897 313.671085 
L 637.733774 312.324944 
L 638.374945 309.806666 
L 640.939627 298.840415 
L 641.580797 297.23558 
L 642.061675 296.467862 
L 642.542553 296.058669 
L 643.023431 295.975085 
L 643.504309 296.172697 
L 644.145479 296.785941 
L 644.946943 297.942736 
L 646.870454 301.338801 
L 648.313088 303.611756 
L 649.435136 304.98247 
L 650.557184 305.994411 
L 651.679233 306.69616 
L 652.961574 307.204546 
L 653.92333 307.436929 
L 654.404207 255.81301 
L 655.045378 183.257648 
L 656.007134 98.585627 
L 656.327719 86.883992 
L 656.648304 82.289638 
L 657.129182 78.861487 
L 657.289475 78.202159 
L 657.449767 78.459423 
L 657.61006 80.356917 
L 657.770353 84.695854 
L 658.090938 103.67061 
L 658.411523 139.671926 
L 658.732108 193.159412 
L 658.892401 384.805119 
L 659.052694 430.909762 
L 659.373279 338.828072 
L 659.693864 254.252097 
L 660.014449 230.844645 
L 660.174742 232.875398 
L 660.65562 255.836001 
L 661.29679 282.858571 
L 661.777668 294.613146 
L 662.258546 302.190803 
L 662.739424 306.617177 
L 663.060009 307.816282 
L 663.220302 307.94306 
L 663.380594 307.814046 
L 663.70118 307.032961 
L 664.502643 304.80503 
L 664.823228 304.535223 
L 665.143813 304.603733 
L 665.624691 304.840781 
L 665.945276 304.724193 
L 666.265862 304.180884 
L 666.586447 303.15272 
L 667.067325 300.828929 
L 668.670251 292.28285 
L 669.151129 290.870958 
L 669.632007 290.054055 
L 670.112885 289.665366 
L 670.593763 289.561177 
L 671.07464 289.684815 
L 671.555518 290.077593 
L 672.036396 290.846769 
L 672.517274 292.111445 
L 673.158445 294.68978 
L 673.959908 299.228328 
L 675.883419 311.128747 
L 676.52459 313.482724 
L 677.005468 314.335142 
L 677.326053 314.452259 
L 677.646638 314.222157 
L 677.967223 313.671068 
L 678.448101 312.324922 
L 679.089272 309.806641 
L 681.653954 298.840395 
L 682.295124 297.235562 
L 682.776002 296.467847 
L 683.25688 296.058655 
L 683.737758 295.975074 
L 684.218636 296.172688 
L 684.859806 296.785934 
L 685.661269 297.942731 
L 687.584781 301.3388 
L 689.027414 303.611756 
L 690.149463 304.98247 
L 691.271511 305.994411 
L 692.39356 306.69616 
L 693.675901 307.204546 
L 694.156778 307.333786 
L 694.637656 255.728044 
L 695.278827 183.193196 
L 696.240583 98.547833 
L 696.561168 86.853903 
L 696.881753 82.266558 
L 697.362631 78.84751 
L 697.522924 78.190827 
L 697.683216 78.450539 
L 697.843509 80.350285 
L 698.003801 84.691282 
L 698.324387 103.669594 
L 698.644972 139.67376 
L 698.965557 193.163449 
L 699.12585 384.8101 
L 699.286142 430.915526 
L 699.606728 338.835091 
L 699.927313 254.260043 
L 700.247898 230.853196 
L 700.408191 232.88413 
L 700.889069 255.844822 
L 701.530239 282.86667 
L 702.011117 294.62032 
L 702.491995 302.196918 
L 702.972873 306.622227 
L 703.293458 307.820662 
L 703.453751 307.947123 
L 703.614043 307.817804 
L 703.934629 307.036155 
L 704.736092 304.807076 
L 705.056677 304.536908 
L 705.377262 304.605109 
L 705.85814 304.841777 
L 706.178725 304.724986 
L 706.499311 304.181507 
L 706.819896 303.153201 
L 707.300774 300.829243 
L 708.9037 292.282875 
L 709.384578 290.870946 
L 709.865456 290.054021 
L 710.346334 289.66532 
L 710.827211 289.561126 
L 711.308089 289.684764 
L 711.788967 290.077546 
L 712.269845 290.846728 
L 712.750723 292.11141 
L 713.391893 294.689755 
L 714.193357 299.228314 
L 716.116868 311.128752 
L 716.758039 313.482732 
L 717.238916 314.335151 
L 717.559502 314.45227 
L 717.880087 314.222168 
L 718.200672 313.671079 
L 718.68155 312.324933 
L 719.322721 309.806652 
L 721.887403 298.840402 
L 722.528573 297.235568 
L 723.009451 296.467851 
L 723.490329 296.058659 
L 723.971207 295.975077 
L 724.452085 296.17269 
L 725.093255 296.785936 
L 725.894718 297.942732 
L 727.81823 301.3388 
L 729.260863 303.611756 
L 730.382912 304.98247 
L 731.50496 305.994411 
L 732.627008 306.69616 
L 733.909349 307.204546 
L 734.069642 307.250801 
L 734.55052 255.658807 
L 735.19169 183.139706 
L 736.153446 98.515299 
L 736.474031 86.82748 
L 736.794617 82.245711 
L 737.275495 78.833943 
L 737.435787 78.179387 
L 737.59608 78.441076 
L 737.756372 80.342649 
L 737.916665 84.685325 
L 738.23725 103.666567 
L 738.557836 139.673119 
L 738.878421 193.164696 
L 739.038713 384.812179 
L 739.199006 430.918306 
L 739.519591 338.839022 
L 739.840177 254.264852 
L 740.160762 230.858622 
L 740.321054 232.889767 
L 740.801932 255.850732 
L 741.443103 282.872259 
L 741.923981 294.625341 
L 742.404859 302.201242 
L 742.885736 306.625826 
L 743.206322 307.823796 
L 743.366614 307.950035 
L 743.526907 307.820504 
L 743.847492 307.038457 
L 744.648955 304.808561 
L 744.969541 304.538135 
L 745.290126 304.606114 
L 745.771004 304.84251 
L 746.091589 304.725571 
L 746.412174 304.181968 
L 746.732759 303.153559 
L 747.213637 300.829479 
L 748.816564 292.282894 
L 749.297441 290.870938 
L 749.778319 290.053995 
L 750.259197 289.665284 
L 750.740075 289.561084 
L 751.220953 289.684722 
L 751.701831 290.077505 
L 752.182709 290.846692 
L 752.663587 292.111379 
L 753.304757 294.689731 
L 754.10622 299.228299 
L 756.029732 311.128751 
L 756.670902 313.482734 
L 757.15178 314.335155 
L 757.472365 314.452274 
L 757.792951 314.222173 
L 758.113536 313.671084 
L 758.594414 312.324939 
L 759.235584 309.806658 
L 761.800266 298.840406 
L 762.441437 297.235571 
L 762.922315 296.467854 
L 763.403192 296.058662 
L 763.88407 295.975079 
L 764.364948 296.172692 
L 765.006119 296.785937 
L 765.807582 297.942733 
L 767.731093 301.3388 
L 769.173727 303.611756 
L 770.295775 304.98247 
L 771.417824 305.994411 
L 772.539872 306.69616 
L 773.822213 307.204546 
L 774.303091 255.619946 
L 774.944261 183.109392 
L 775.906017 98.496517 
L 776.226602 86.812076 
L 776.547188 82.233394 
L 777.028066 78.825667 
L 777.188358 78.172296 
L 777.348651 78.435088 
L 777.508943 80.337683 
L 777.669236 84.681301 
L 777.989821 103.664194 
L 778.310407 139.672102 
L 778.630992 193.164766 
L 778.791284 384.812733 
L 778.951577 430.919274 
L 779.272162 338.840673 
L 779.592748 254.267032 
L 779.913333 230.861185 
L 780.073625 232.892469 
L 780.554503 255.853646 
L 781.195674 282.875075 
L 781.676552 294.627897 
L 782.15743 302.203458 
L 782.638307 306.62768 
L 782.958893 307.825415 
L 783.119185 307.951542 
L 783.279478 307.821902 
L 783.600063 307.039652 
L 784.401526 304.809335 
L 784.722112 304.538776 
L 785.042697 304.60664 
L 785.523575 304.842894 
L 785.84416 304.725878 
L 786.164745 304.182211 
L 786.48533 303.153748 
L 786.966208 300.829604 
L 788.569135 292.282905 
L 789.050012 290.870933 
L 789.53089 290.053981 
L 790.011768 289.665263 
L 790.492646 289.561061 
L 790.973524 289.684698 
L 791.454402 290.077482 
L 791.93528 290.84667 
L 792.416158 292.11136 
L 793.057328 294.689715 
L 793.858791 299.228288 
L 795.782303 311.128749 
L 796.423473 313.482734 
L 796.904351 314.335156 
L 797.224936 314.452276 
L 797.545522 314.222175 
L 797.866107 313.671086 
L 798.346985 312.324942 
L 798.988155 309.80666 
L 801.552837 298.840408 
L 802.194008 297.235573 
L 802.674886 296.467856 
L 803.155763 296.058663 
L 803.636641 295.97508 
L 804.117519 296.172693 
L 804.75869 296.785938 
L 805.560153 297.942734 
L 807.483664 301.338801 
L 808.926298 303.611756 
L 810.048346 304.98247 
L 811.170395 305.994411 
L 812.292443 306.69616 
L 813.414491 307.154884 
L 813.895369 255.578035 
L 814.53654 183.076503 
L 815.498296 98.475909 
L 815.818881 86.795076 
L 816.139466 82.219693 
L 816.620344 78.816292 
L 816.780637 78.164191 
L 816.940929 78.428167 
L 817.101222 80.331862 
L 817.261514 84.676495 
L 817.5821 103.661172 
L 817.902685 139.670554 
L 818.22327 193.164407 
L 818.383563 384.812908 
L 818.543855 430.919908 
L 818.864441 338.842068 
L 819.185026 254.269022 
L 819.505611 230.863614 
L 819.665904 232.895059 
L 820.146782 255.856507 
L 820.787952 282.877887 
L 821.26883 294.630467 
L 821.749708 302.205699 
L 822.230586 306.629562 
L 822.551171 307.827062 
L 822.711464 307.953075 
L 822.871756 307.823326 
L 823.192342 307.04087 
L 823.993805 304.810127 
L 824.31439 304.539433 
L 824.634975 304.60718 
L 825.115853 304.843289 
L 825.436438 304.726195 
L 825.757024 304.182461 
L 826.077609 303.153943 
L 826.558487 300.829733 
L 828.161413 292.282916 
L 828.642291 290.870928 
L 829.123169 290.053965 
L 829.604047 289.665241 
L 830.084924 289.561036 
L 830.565802 289.684671 
L 831.04668 290.077456 
L 831.527558 290.846647 
L 832.008436 292.111339 
L 832.649606 294.689698 
L 833.45107 299.228275 
L 835.374581 311.128746 
L 836.015752 313.482733 
L 836.496629 314.335156 
L 836.817215 314.452276 
L 837.1378 314.222176 
L 837.458385 313.671088 
L 837.939263 312.324943 
L 838.580434 309.806662 
L 841.145116 298.840409 
L 841.786286 297.235574 
L 842.267164 296.467857 
L 842.748042 296.058664 
L 843.22892 295.975081 
L 843.709798 296.172694 
L 844.350968 296.785939 
L 845.152431 297.942734 
L 847.075943 301.338801 
L 848.518576 303.611756 
L 849.640625 304.98247 
L 850.762673 305.994411 
L 851.884721 306.69616 
L 853.167062 307.204546 
L 854.609696 307.518145 
L 855.090574 255.87874 
L 855.731744 183.306179 
L 856.6935 98.612489 
L 857.014085 86.904673 
L 857.334671 82.304725 
L 857.815549 78.869364 
L 857.975841 78.20796 
L 858.136134 78.463314 
L 858.296426 80.359061 
L 858.456719 84.696413 
L 858.777304 103.66847 
L 859.09789 139.66768 
L 859.418475 193.153595 
L 859.578767 384.798658 
L 859.73906 430.902786 
L 860.059645 338.820302 
L 860.380231 254.243781 
L 860.700816 230.836033 
L 860.861108 232.866735 
L 861.341986 255.827537 
L 861.983157 282.85102 
L 862.464035 294.606555 
L 862.944913 302.185247 
L 863.42579 306.612627 
L 863.746376 307.812354 
L 863.906668 307.939425 
L 864.066961 307.81069 
L 864.387546 307.03012 
L 865.189009 304.803229 
L 865.509595 304.533745 
L 865.83018 304.602531 
L 866.311058 304.839916 
L 866.631643 304.72351 
L 866.952228 304.180351 
L 867.272813 303.152311 
L 867.753691 300.828666 
L 869.356618 292.282833 
L 869.837495 290.87097 
L 870.318373 290.054085 
L 870.799251 289.665404 
L 871.280129 289.561217 
L 871.761007 289.684853 
L 872.241885 290.077627 
L 872.722763 290.846798 
L 873.203641 292.111466 
L 873.844811 294.689793 
L 874.646274 299.228331 
L 876.569786 311.128736 
L 877.210956 313.482712 
L 877.691834 314.335129 
L 878.012419 314.452246 
L 878.333005 314.222144 
L 878.65359 313.671055 
L 879.134468 312.32491 
L 879.775638 309.80663 
L 882.34032 298.840389 
L 882.981491 297.235557 
L 883.462369 296.467842 
L 883.943246 296.058652 
L 884.424124 295.97507 
L 884.905002 296.172685 
L 885.546173 296.785932 
L 886.347636 297.94273 
L 888.271147 301.338799 
L 889.713781 303.611755 
L 890.835829 304.98247 
L 891.957878 305.994411 
L 893.079926 306.69616 
L 894.362267 307.204546 
L 894.843145 255.619946 
L 895.484315 183.109392 
L 896.446071 98.496517 
L 896.766656 86.812076 
L 897.087242 82.233394 
L 897.56812 78.825667 
L 897.728412 78.172296 
L 897.888705 78.435088 
L 898.048997 80.337683 
L 898.20929 84.681301 
L 898.529875 103.664194 
L 898.850461 139.672102 
L 899.171046 193.164766 
L 899.331338 384.812733 
L 899.491631 430.919274 
L 899.812216 338.840673 
L 900.132802 254.267032 
L 900.453387 230.861185 
L 900.613679 232.892469 
L 901.094557 255.853646 
L 901.735728 282.875075 
L 902.216606 294.627897 
L 902.697484 302.203458 
L 903.178361 306.62768 
L 903.498947 307.825415 
L 903.659239 307.951542 
L 903.819532 307.821902 
L 904.140117 307.039652 
L 904.94158 304.809335 
L 905.262166 304.538776 
L 905.582751 304.60664 
L 906.063629 304.842894 
L 906.384214 304.725878 
L 906.704799 304.182211 
L 907.025384 303.153748 
L 907.506262 300.829604 
L 909.109189 292.282905 
L 909.590066 290.870933 
L 910.070944 290.053981 
L 910.551822 289.665263 
L 911.0327 289.561061 
L 911.513578 289.684698 
L 911.994456 290.077482 
L 912.475334 290.84667 
L 912.956212 292.11136 
L 913.597382 294.689715 
L 914.398845 299.228288 
L 916.322357 311.128749 
L 916.963527 313.482734 
L 917.444405 314.335156 
L 917.76499 314.452276 
L 918.085576 314.222175 
L 918.406161 313.671086 
L 918.887039 312.324942 
L 919.528209 309.80666 
L 922.092891 298.840408 
L 922.734062 297.235573 
L 923.21494 296.467856 
L 923.695817 296.058663 
L 924.176695 295.97508 
L 924.657573 296.172693 
L 925.298744 296.785938 
L 926.100207 297.942734 
L 928.023718 301.338801 
L 929.466352 303.611756 
L 930.5884 304.98247 
L 931.710449 305.994411 
L 932.832497 306.69616 
L 933.794253 307.101633 
L 933.954545 293.060331 
L 933.954545 293.060331 
" clip-path="url(#pe86c7fd1a0)" style="fill: none; stroke: #1f77b4; stroke-width: 1.5; stroke-linecap: square"/>
   </g>
   <g id="line2d_14">
    <path d="M 173.045455 199.098555 
L 177.693941 199.098555 
L 177.854233 307.75063 
L 213.278903 307.75063 
L 213.439196 199.098555 
L 218.087682 199.098555 
L 218.247975 307.75063 
L 253.99323 307.75063 
L 254.153523 199.098555 
L 258.802009 199.098555 
L 258.962302 307.75063 
L 293.585509 307.75063 
L 293.745801 199.098555 
L 298.394287 199.098555 
L 298.55458 307.75063 
L 333.818957 307.75063 
L 333.97925 199.098555 
L 338.627736 199.098555 
L 338.788029 307.75063 
L 373.090651 307.75063 
L 373.250943 199.098555 
L 377.899429 199.098555 
L 378.059722 307.75063 
L 413.644685 307.75063 
L 413.804977 199.098555 
L 418.453463 199.098555 
L 418.613756 307.75063 
L 453.557548 307.75063 
L 453.717841 199.098555 
L 458.366327 199.098555 
L 458.52662 307.75063 
L 493.630705 307.75063 
L 493.790997 199.098555 
L 498.439483 199.098555 
L 498.599776 307.75063 
L 533.864153 307.75063 
L 534.024446 199.098555 
L 538.672932 199.098555 
L 538.833225 307.75063 
L 574.257895 307.75063 
L 574.418188 199.098555 
L 579.066674 199.098555 
L 579.226966 307.75063 
L 613.209003 307.75063 
L 613.369295 199.098555 
L 618.017782 199.098555 
L 618.178074 307.75063 
L 653.92333 307.75063 
L 654.083622 199.098555 
L 658.732108 199.098555 
L 658.892401 307.75063 
L 694.156778 307.75063 
L 694.317071 199.098555 
L 698.965557 199.098555 
L 699.12585 307.75063 
L 734.069642 307.75063 
L 734.229935 199.098555 
L 738.878421 199.098555 
L 739.038713 307.75063 
L 773.822213 307.75063 
L 773.982506 199.098555 
L 778.630992 199.098555 
L 778.791284 307.75063 
L 813.414491 307.75063 
L 813.574784 199.098555 
L 818.22327 199.098555 
L 818.383563 307.75063 
L 854.609696 307.75063 
L 854.769989 199.098555 
L 859.418475 199.098555 
L 859.578767 307.75063 
L 894.362267 307.75063 
L 894.52256 199.098555 
L 899.171046 199.098555 
L 899.331338 307.75063 
L 933.794253 307.75063 
L 933.954545 199.098555 
L 933.954545 199.098555 
" clip-path="url(#pe86c7fd1a0)" style="fill: none; stroke: #ff7f0e; stroke-width: 1.5; stroke-linecap: square"/>
   </g>
   <g id="line2d_15">
    <path d="M 929.466352 307.75063 
" clip-path="url(#pe86c7fd1a0)" style="fill: none; stroke: #000000; stroke-width: 1.5; stroke-linecap: square"/>
    <defs>
     <path id="m02bbd2ab60" d="M 0 1 
C 0.265203 1 0.51958 0.894634 0.707107 0.707107 
C 0.894634 0.51958 1 0.265203 1 0 
C 1 -0.265203 0.894634 -0.51958 0.707107 -0.707107 
C 0.51958 -0.894634 0.265203 -1 0 -1 
C -0.265203 -1 -0.51958 -0.894634 -0.707107 -0.707107 
C -0.894634 -0.51958 -1 -0.265203 -1 0 
C -1 0.265203 -0.894634 0.51958 -0.707107 0.707107 
C -0.51958 0.894634 -0.265203 1 0 1 
z
" style="stroke: #000000"/>
    </defs>
    <g clip-path="url(#pe86c7fd1a0)">
     <use xlink:href="#m02bbd2ab60" x="173.045455" y="199.098555" style="stroke: #000000"/>
     <use xlink:href="#m02bbd2ab60" x="178.174819" y="307.75063" style="stroke: #000000"/>
     <use xlink:href="#m02bbd2ab60" x="183.14389" y="307.75063" style="stroke: #000000"/>
     <use xlink:href="#m02bbd2ab60" x="188.112961" y="199.098555" style="stroke: #000000"/>
     <use xlink:href="#m02bbd2ab60" x="193.082033" y="307.75063" style="stroke: #000000"/>
     <use xlink:href="#m02bbd2ab60" x="198.211397" y="307.75063" style="stroke: #000000"/>
     <use xlink:href="#m02bbd2ab60" x="203.180468" y="199.098555" style="stroke: #000000"/>
     <use xlink:href="#m02bbd2ab60" x="208.149539" y="307.75063" style="stroke: #000000"/>
     <use xlink:href="#m02bbd2ab60" x="213.118611" y="199.098555" style="stroke: #000000"/>
     <use xlink:href="#m02bbd2ab60" x="218.247975" y="307.75063" style="stroke: #000000"/>
     <use xlink:href="#m02bbd2ab60" x="223.217046" y="307.75063" style="stroke: #000000"/>
     <use xlink:href="#m02bbd2ab60" x="228.186118" y="199.098555" style="stroke: #000000"/>
     <use xlink:href="#m02bbd2ab60" x="233.155189" y="307.75063" style="stroke: #000000"/>
     <use xlink:href="#m02bbd2ab60" x="238.284553" y="307.75063" style="stroke: #000000"/>
     <use xlink:href="#m02bbd2ab60" x="243.253624" y="199.098555" style="stroke: #000000"/>
     <use xlink:href="#m02bbd2ab60" x="248.222696" y="307.75063" style="stroke: #000000"/>
     <use xlink:href="#m02bbd2ab60" x="253.191767" y="199.098555" style="stroke: #000000"/>
     <use xlink:href="#m02bbd2ab60" x="258.321131" y="307.75063" style="stroke: #000000"/>
     <use xlink:href="#m02bbd2ab60" x="263.290202" y="307.75063" style="stroke: #000000"/>
     <use xlink:href="#m02bbd2ab60" x="268.259274" y="199.098555" style="stroke: #000000"/>
     <use xlink:href="#m02bbd2ab60" x="273.228345" y="307.75063" style="stroke: #000000"/>
     <use xlink:href="#m02bbd2ab60" x="278.357709" y="307.75063" style="stroke: #000000"/>
     <use xlink:href="#m02bbd2ab60" x="283.326781" y="199.098555" style="stroke: #000000"/>
     <use xlink:href="#m02bbd2ab60" x="288.295852" y="307.75063" style="stroke: #000000"/>
     <use xlink:href="#m02bbd2ab60" x="293.264923" y="199.098555" style="stroke: #000000"/>
     <use xlink:href="#m02bbd2ab60" x="298.394287" y="307.75063" style="stroke: #000000"/>
     <use xlink:href="#m02bbd2ab60" x="303.363359" y="307.75063" style="stroke: #000000"/>
     <use xlink:href="#m02bbd2ab60" x="308.33243" y="199.098555" style="stroke: #000000"/>
     <use xlink:href="#m02bbd2ab60" x="313.301501" y="307.75063" style="stroke: #000000"/>
     <use xlink:href="#m02bbd2ab60" x="318.430865" y="307.75063" style="stroke: #000000"/>
     <use xlink:href="#m02bbd2ab60" x="323.399937" y="199.098555" style="stroke: #000000"/>
     <use xlink:href="#m02bbd2ab60" x="328.369008" y="307.75063" style="stroke: #000000"/>
     <use xlink:href="#m02bbd2ab60" x="333.33808" y="199.098555" style="stroke: #000000"/>
     <use xlink:href="#m02bbd2ab60" x="338.467444" y="307.75063" style="stroke: #000000"/>
     <use xlink:href="#m02bbd2ab60" x="343.436515" y="307.75063" style="stroke: #000000"/>
     <use xlink:href="#m02bbd2ab60" x="348.405586" y="199.098555" style="stroke: #000000"/>
     <use xlink:href="#m02bbd2ab60" x="353.374658" y="307.75063" style="stroke: #000000"/>
     <use xlink:href="#m02bbd2ab60" x="358.504022" y="307.75063" style="stroke: #000000"/>
     <use xlink:href="#m02bbd2ab60" x="363.473093" y="199.098555" style="stroke: #000000"/>
     <use xlink:href="#m02bbd2ab60" x="368.442164" y="307.75063" style="stroke: #000000"/>
     <use xlink:href="#m02bbd2ab60" x="373.411236" y="199.098555" style="stroke: #000000"/>
     <use xlink:href="#m02bbd2ab60" x="378.5406" y="307.75063" style="stroke: #000000"/>
     <use xlink:href="#m02bbd2ab60" x="383.509671" y="307.75063" style="stroke: #000000"/>
     <use xlink:href="#m02bbd2ab60" x="388.478743" y="199.098555" style="stroke: #000000"/>
     <use xlink:href="#m02bbd2ab60" x="393.447814" y="307.75063" style="stroke: #000000"/>
     <use xlink:href="#m02bbd2ab60" x="398.577178" y="307.75063" style="stroke: #000000"/>
     <use xlink:href="#m02bbd2ab60" x="403.546249" y="199.098555" style="stroke: #000000"/>
     <use xlink:href="#m02bbd2ab60" x="408.515321" y="307.75063" style="stroke: #000000"/>
     <use xlink:href="#m02bbd2ab60" x="413.484392" y="199.098555" style="stroke: #000000"/>
     <use xlink:href="#m02bbd2ab60" x="418.613756" y="307.75063" style="stroke: #000000"/>
     <use xlink:href="#m02bbd2ab60" x="423.582827" y="307.75063" style="stroke: #000000"/>
     <use xlink:href="#m02bbd2ab60" x="428.551899" y="199.098555" style="stroke: #000000"/>
     <use xlink:href="#m02bbd2ab60" x="433.52097" y="307.75063" style="stroke: #000000"/>
     <use xlink:href="#m02bbd2ab60" x="438.650334" y="307.75063" style="stroke: #000000"/>
     <use xlink:href="#m02bbd2ab60" x="443.619406" y="199.098555" style="stroke: #000000"/>
     <use xlink:href="#m02bbd2ab60" x="448.588477" y="307.75063" style="stroke: #000000"/>
     <use xlink:href="#m02bbd2ab60" x="453.557548" y="199.098555" style="stroke: #000000"/>
     <use xlink:href="#m02bbd2ab60" x="458.686912" y="307.75063" style="stroke: #000000"/>
     <use xlink:href="#m02bbd2ab60" x="463.655984" y="307.75063" style="stroke: #000000"/>
     <use xlink:href="#m02bbd2ab60" x="468.625055" y="199.098555" style="stroke: #000000"/>
     <use xlink:href="#m02bbd2ab60" x="473.594126" y="307.75063" style="stroke: #000000"/>
     <use xlink:href="#m02bbd2ab60" x="478.72349" y="307.75063" style="stroke: #000000"/>
     <use xlink:href="#m02bbd2ab60" x="483.692562" y="199.098555" style="stroke: #000000"/>
     <use xlink:href="#m02bbd2ab60" x="488.661633" y="307.75063" style="stroke: #000000"/>
     <use xlink:href="#m02bbd2ab60" x="493.630705" y="199.098555" style="stroke: #000000"/>
     <use xlink:href="#m02bbd2ab60" x="498.760069" y="307.75063" style="stroke: #000000"/>
     <use xlink:href="#m02bbd2ab60" x="503.72914" y="307.75063" style="stroke: #000000"/>
     <use xlink:href="#m02bbd2ab60" x="508.698211" y="199.098555" style="stroke: #000000"/>
     <use xlink:href="#m02bbd2ab60" x="513.667283" y="307.75063" style="stroke: #000000"/>
     <use xlink:href="#m02bbd2ab60" x="518.796647" y="307.75063" style="stroke: #000000"/>
     <use xlink:href="#m02bbd2ab60" x="523.765718" y="199.098555" style="stroke: #000000"/>
     <use xlink:href="#m02bbd2ab60" x="528.734789" y="307.75063" style="stroke: #000000"/>
     <use xlink:href="#m02bbd2ab60" x="533.703861" y="199.098555" style="stroke: #000000"/>
     <use xlink:href="#m02bbd2ab60" x="538.833225" y="307.75063" style="stroke: #000000"/>
     <use xlink:href="#m02bbd2ab60" x="543.802296" y="307.75063" style="stroke: #000000"/>
     <use xlink:href="#m02bbd2ab60" x="548.771368" y="199.098555" style="stroke: #000000"/>
     <use xlink:href="#m02bbd2ab60" x="553.740439" y="307.75063" style="stroke: #000000"/>
     <use xlink:href="#m02bbd2ab60" x="558.869803" y="307.75063" style="stroke: #000000"/>
     <use xlink:href="#m02bbd2ab60" x="563.838874" y="199.098555" style="stroke: #000000"/>
     <use xlink:href="#m02bbd2ab60" x="568.807946" y="307.75063" style="stroke: #000000"/>
     <use xlink:href="#m02bbd2ab60" x="573.777017" y="199.098555" style="stroke: #000000"/>
     <use xlink:href="#m02bbd2ab60" x="578.906381" y="307.75063" style="stroke: #000000"/>
     <use xlink:href="#m02bbd2ab60" x="583.875452" y="307.75063" style="stroke: #000000"/>
     <use xlink:href="#m02bbd2ab60" x="588.844524" y="199.098555" style="stroke: #000000"/>
     <use xlink:href="#m02bbd2ab60" x="593.813595" y="307.75063" style="stroke: #000000"/>
     <use xlink:href="#m02bbd2ab60" x="598.942959" y="307.75063" style="stroke: #000000"/>
     <use xlink:href="#m02bbd2ab60" x="603.912031" y="199.098555" style="stroke: #000000"/>
     <use xlink:href="#m02bbd2ab60" x="608.881102" y="307.75063" style="stroke: #000000"/>
     <use xlink:href="#m02bbd2ab60" x="613.850173" y="199.098555" style="stroke: #000000"/>
     <use xlink:href="#m02bbd2ab60" x="618.979537" y="307.75063" style="stroke: #000000"/>
     <use xlink:href="#m02bbd2ab60" x="623.948609" y="307.75063" style="stroke: #000000"/>
     <use xlink:href="#m02bbd2ab60" x="628.91768" y="199.098555" style="stroke: #000000"/>
     <use xlink:href="#m02bbd2ab60" x="633.886751" y="307.75063" style="stroke: #000000"/>
     <use xlink:href="#m02bbd2ab60" x="639.016115" y="307.75063" style="stroke: #000000"/>
     <use xlink:href="#m02bbd2ab60" x="643.985187" y="199.098555" style="stroke: #000000"/>
     <use xlink:href="#m02bbd2ab60" x="648.954258" y="307.75063" style="stroke: #000000"/>
     <use xlink:href="#m02bbd2ab60" x="653.92333" y="199.098555" style="stroke: #000000"/>
     <use xlink:href="#m02bbd2ab60" x="659.052694" y="307.75063" style="stroke: #000000"/>
     <use xlink:href="#m02bbd2ab60" x="664.021765" y="307.75063" style="stroke: #000000"/>
     <use xlink:href="#m02bbd2ab60" x="668.990836" y="199.098555" style="stroke: #000000"/>
     <use xlink:href="#m02bbd2ab60" x="673.959908" y="307.75063" style="stroke: #000000"/>
     <use xlink:href="#m02bbd2ab60" x="679.089272" y="307.75063" style="stroke: #000000"/>
     <use xlink:href="#m02bbd2ab60" x="684.058343" y="199.098555" style="stroke: #000000"/>
     <use xlink:href="#m02bbd2ab60" x="689.027414" y="307.75063" style="stroke: #000000"/>
     <use xlink:href="#m02bbd2ab60" x="693.996486" y="199.098555" style="stroke: #000000"/>
     <use xlink:href="#m02bbd2ab60" x="699.12585" y="307.75063" style="stroke: #000000"/>
     <use xlink:href="#m02bbd2ab60" x="704.094921" y="307.75063" style="stroke: #000000"/>
     <use xlink:href="#m02bbd2ab60" x="709.063993" y="199.098555" style="stroke: #000000"/>
     <use xlink:href="#m02bbd2ab60" x="714.033064" y="307.75063" style="stroke: #000000"/>
     <use xlink:href="#m02bbd2ab60" x="719.162428" y="307.75063" style="stroke: #000000"/>
     <use xlink:href="#m02bbd2ab60" x="724.131499" y="199.098555" style="stroke: #000000"/>
     <use xlink:href="#m02bbd2ab60" x="729.100571" y="307.75063" style="stroke: #000000"/>
     <use xlink:href="#m02bbd2ab60" x="734.069642" y="199.098555" style="stroke: #000000"/>
     <use xlink:href="#m02bbd2ab60" x="739.199006" y="307.75063" style="stroke: #000000"/>
     <use xlink:href="#m02bbd2ab60" x="744.168077" y="307.75063" style="stroke: #000000"/>
     <use xlink:href="#m02bbd2ab60" x="749.137149" y="199.098555" style="stroke: #000000"/>
     <use xlink:href="#m02bbd2ab60" x="754.10622" y="307.75063" style="stroke: #000000"/>
     <use xlink:href="#m02bbd2ab60" x="759.235584" y="307.75063" style="stroke: #000000"/>
     <use xlink:href="#m02bbd2ab60" x="764.204656" y="199.098555" style="stroke: #000000"/>
     <use xlink:href="#m02bbd2ab60" x="769.173727" y="307.75063" style="stroke: #000000"/>
     <use xlink:href="#m02bbd2ab60" x="774.142798" y="199.098555" style="stroke: #000000"/>
     <use xlink:href="#m02bbd2ab60" x="779.272162" y="307.75063" style="stroke: #000000"/>
     <use xlink:href="#m02bbd2ab60" x="784.241234" y="307.75063" style="stroke: #000000"/>
     <use xlink:href="#m02bbd2ab60" x="789.210305" y="199.098555" style="stroke: #000000"/>
     <use xlink:href="#m02bbd2ab60" x="794.179376" y="307.75063" style="stroke: #000000"/>
     <use xlink:href="#m02bbd2ab60" x="799.30874" y="307.75063" style="stroke: #000000"/>
     <use xlink:href="#m02bbd2ab60" x="804.277812" y="199.098555" style="stroke: #000000"/>
     <use xlink:href="#m02bbd2ab60" x="809.246883" y="307.75063" style="stroke: #000000"/>
     <use xlink:href="#m02bbd2ab60" x="814.215955" y="199.098555" style="stroke: #000000"/>
     <use xlink:href="#m02bbd2ab60" x="819.345319" y="307.75063" style="stroke: #000000"/>
     <use xlink:href="#m02bbd2ab60" x="824.31439" y="307.75063" style="stroke: #000000"/>
     <use xlink:href="#m02bbd2ab60" x="829.283461" y="199.098555" style="stroke: #000000"/>
     <use xlink:href="#m02bbd2ab60" x="834.252533" y="307.75063" style="stroke: #000000"/>
     <use xlink:href="#m02bbd2ab60" x="839.381897" y="307.75063" style="stroke: #000000"/>
     <use xlink:href="#m02bbd2ab60" x="844.350968" y="199.098555" style="stroke: #000000"/>
     <use xlink:href="#m02bbd2ab60" x="849.320039" y="307.75063" style="stroke: #000000"/>
     <use xlink:href="#m02bbd2ab60" x="854.289111" y="199.098555" style="stroke: #000000"/>
     <use xlink:href="#m02bbd2ab60" x="859.418475" y="307.75063" style="stroke: #000000"/>
     <use xlink:href="#m02bbd2ab60" x="864.387546" y="307.75063" style="stroke: #000000"/>
     <use xlink:href="#m02bbd2ab60" x="869.356618" y="199.098555" style="stroke: #000000"/>
     <use xlink:href="#m02bbd2ab60" x="874.325689" y="307.75063" style="stroke: #000000"/>
     <use xlink:href="#m02bbd2ab60" x="879.455053" y="307.75063" style="stroke: #000000"/>
     <use xlink:href="#m02bbd2ab60" x="884.424124" y="199.098555" style="stroke: #000000"/>
     <use xlink:href="#m02bbd2ab60" x="889.393196" y="307.75063" style="stroke: #000000"/>
     <use xlink:href="#m02bbd2ab60" x="894.362267" y="199.098555" style="stroke: #000000"/>
     <use xlink:href="#m02bbd2ab60" x="899.491631" y="307.75063" style="stroke: #000000"/>
     <use xlink:href="#m02bbd2ab60" x="904.460702" y="307.75063" style="stroke: #000000"/>
     <use xlink:href="#m02bbd2ab60" x="909.429774" y="199.098555" style="stroke: #000000"/>
     <use xlink:href="#m02bbd2ab60" x="914.398845" y="307.75063" style="stroke: #000000"/>
     <use xlink:href="#m02bbd2ab60" x="919.528209" y="307.75063" style="stroke: #000000"/>
     <use xlink:href="#m02bbd2ab60" x="924.497281" y="199.098555" style="stroke: #000000"/>
     <use xlink:href="#m02bbd2ab60" x="929.466352" y="307.75063" style="stroke: #000000"/>
    </g>
   </g>
   <g id="patch_3">
    <path d="M 135 448.56 
L 135 60.48 
" style="fill: none; stroke: #000000; stroke-width: 0.8; stroke-linejoin: miter; stroke-linecap: square"/>
   </g>
   <g id="patch_4">
    <path d="M 972 448.56 
L 972 60.48 
" style="fill: none; stroke: #000000; stroke-width: 0.8; stroke-linejoin: miter; stroke-linecap: square"/>
   </g>
   <g id="patch_5">
    <path d="M 135 448.56 
L 972 448.56 
" style="fill: none; stroke: #000000; stroke-width: 0.8; stroke-linejoin: miter; stroke-linecap: square"/>
   </g>
   <g id="patch_6">
    <path d="M 135 60.48 
L 972 60.48 
" style="fill: none; stroke: #000000; stroke-width: 0.8; stroke-linejoin: miter; stroke-linecap: square"/>
   </g>
   <g id="legend_1">
    <g id="patch_7">
     <path d="M 142 443.56 
L 211.084375 443.56 
Q 213.084375 443.56 213.084375 441.56 
L 213.084375 397.969375 
Q 213.084375 395.969375 211.084375 395.969375 
L 142 395.969375 
Q 140 395.969375 140 397.969375 
L 140 441.56 
Q 140 443.56 142 443.56 
z
" style="fill: #ffffff; opacity: 0.8; stroke: #cccccc; stroke-linejoin: miter"/>
    </g>
    <g id="line2d_16">
     <path d="M 144 404.067813 
L 154 404.067813 
L 164 404.067813 
" style="fill: none; stroke: #1f77b4; stroke-width: 1.5; stroke-linecap: square"/>
    </g>
    <g id="text_14">
     <!-- nw_0 -->
     <g transform="translate(172 407.567813) scale(0.1 -0.1)">
      <defs>
       <path id="DejaVuSans-6e" d="M 3513 2113 
L 3513 0 
L 2938 0 
L 2938 2094 
Q 2938 2591 2744 2837 
Q 2550 3084 2163 3084 
Q 1697 3084 1428 2787 
Q 1159 2491 1159 1978 
L 1159 0 
L 581 0 
L 581 3500 
L 1159 3500 
L 1159 2956 
Q 1366 3272 1645 3428 
Q 1925 3584 2291 3584 
Q 2894 3584 3203 3211 
Q 3513 2838 3513 2113 
z
" transform="scale(0.015625)"/>
       <path id="DejaVuSans-77" d="M 269 3500 
L 844 3500 
L 1563 769 
L 2278 3500 
L 2956 3500 
L 3675 769 
L 4391 3500 
L 4966 3500 
L 4050 0 
L 3372 0 
L 2619 2869 
L 1863 0 
L 1184 0 
L 269 3500 
z
" transform="scale(0.015625)"/>
       <path id="DejaVuSans-5f" d="M 3263 -1063 
L 3263 -1509 
L -63 -1509 
L -63 -1063 
L 3263 -1063 
z
" transform="scale(0.015625)"/>
      </defs>
      <use xlink:href="#DejaVuSans-6e"/>
      <use xlink:href="#DejaVuSans-77" x="63.378906"/>
      <use xlink:href="#DejaVuSans-5f" x="145.166016"/>
      <use xlink:href="#DejaVuSans-30" x="195.166016"/>
     </g>
    </g>
    <g id="line2d_17">
     <path d="M 144 419.024063 
L 154 419.024063 
L 164 419.024063 
" style="fill: none; stroke: #ff7f0e; stroke-width: 1.5; stroke-linecap: square"/>
    </g>
    <g id="text_15">
     <!-- input_0 -->
     <g transform="translate(172 422.524063) scale(0.1 -0.1)">
      <defs>
       <path id="DejaVuSans-69" d="M 603 3500 
L 1178 3500 
L 1178 0 
L 603 0 
L 603 3500 
z
M 603 4863 
L 1178 4863 
L 1178 4134 
L 603 4134 
L 603 4863 
z
" transform="scale(0.015625)"/>
       <path id="DejaVuSans-70" d="M 1159 525 
L 1159 -1331 
L 581 -1331 
L 581 3500 
L 1159 3500 
L 1159 2969 
Q 1341 3281 1617 3432 
Q 1894 3584 2278 3584 
Q 2916 3584 3314 3078 
Q 3713 2572 3713 1747 
Q 3713 922 3314 415 
Q 2916 -91 2278 -91 
Q 1894 -91 1617 61 
Q 1341 213 1159 525 
z
M 3116 1747 
Q 3116 2381 2855 2742 
Q 2594 3103 2138 3103 
Q 1681 3103 1420 2742 
Q 1159 2381 1159 1747 
Q 1159 1113 1420 752 
Q 1681 391 2138 391 
Q 2594 391 2855 752 
Q 3116 1113 3116 1747 
z
" transform="scale(0.015625)"/>
       <path id="DejaVuSans-75" d="M 544 1381 
L 544 3500 
L 1119 3500 
L 1119 1403 
Q 1119 906 1312 657 
Q 1506 409 1894 409 
Q 2359 409 2629 706 
Q 2900 1003 2900 1516 
L 2900 3500 
L 3475 3500 
L 3475 0 
L 2900 0 
L 2900 538 
Q 2691 219 2414 64 
Q 2138 -91 1772 -91 
Q 1169 -91 856 284 
Q 544 659 544 1381 
z
M 1991 3584 
L 1991 3584 
z
" transform="scale(0.015625)"/>
      </defs>
      <use xlink:href="#DejaVuSans-69"/>
      <use xlink:href="#DejaVuSans-6e" x="27.783203"/>
      <use xlink:href="#DejaVuSans-70" x="91.162109"/>
      <use xlink:href="#DejaVuSans-75" x="154.638672"/>
      <use xlink:href="#DejaVuSans-74" x="218.017578"/>
      <use xlink:href="#DejaVuSans-5f" x="257.226562"/>
      <use xlink:href="#DejaVuSans-30" x="307.226562"/>
     </g>
    </g>
    <g id="line2d_18">
     <path d="M 144 433.980312 
L 154 433.980312 
L 164 433.980312 
" style="fill: none; stroke: #000000; stroke-width: 1.5; stroke-linecap: square"/>
     <g>
      <use xlink:href="#m02bbd2ab60" x="154" y="433.980312" style="stroke: #000000"/>
     </g>
    </g>
    <g id="text_16">
     <!-- target -->
     <g transform="translate(172 437.480312) scale(0.1 -0.1)">
      <defs>
       <path id="DejaVuSans-61" d="M 2194 1759 
Q 1497 1759 1228 1600 
Q 959 1441 959 1056 
Q 959 750 1161 570 
Q 1363 391 1709 391 
Q 2188 391 2477 730 
Q 2766 1069 2766 1631 
L 2766 1759 
L 2194 1759 
z
M 3341 1997 
L 3341 0 
L 2766 0 
L 2766 531 
Q 2569 213 2275 61 
Q 1981 -91 1556 -91 
Q 1019 -91 701 211 
Q 384 513 384 1019 
Q 384 1609 779 1909 
Q 1175 2209 1959 2209 
L 2766 2209 
L 2766 2266 
Q 2766 2663 2505 2880 
Q 2244 3097 1772 3097 
Q 1472 3097 1187 3025 
Q 903 2953 641 2809 
L 641 3341 
Q 956 3463 1253 3523 
Q 1550 3584 1831 3584 
Q 2591 3584 2966 3190 
Q 3341 2797 3341 1997 
z
" transform="scale(0.015625)"/>
       <path id="DejaVuSans-72" d="M 2631 2963 
Q 2534 3019 2420 3045 
Q 2306 3072 2169 3072 
Q 1681 3072 1420 2755 
Q 1159 2438 1159 1844 
L 1159 0 
L 581 0 
L 581 3500 
L 1159 3500 
L 1159 2956 
Q 1341 3275 1631 3429 
Q 1922 3584 2338 3584 
Q 2397 3584 2469 3576 
Q 2541 3569 2628 3553 
L 2631 2963 
z
" transform="scale(0.015625)"/>
       <path id="DejaVuSans-67" d="M 2906 1791 
Q 2906 2416 2648 2759 
Q 2391 3103 1925 3103 
Q 1463 3103 1205 2759 
Q 947 2416 947 1791 
Q 947 1169 1205 825 
Q 1463 481 1925 481 
Q 2391 481 2648 825 
Q 2906 1169 2906 1791 
z
M 3481 434 
Q 3481 -459 3084 -895 
Q 2688 -1331 1869 -1331 
Q 1566 -1331 1297 -1286 
Q 1028 -1241 775 -1147 
L 775 -588 
Q 1028 -725 1275 -790 
Q 1522 -856 1778 -856 
Q 2344 -856 2625 -561 
Q 2906 -266 2906 331 
L 2906 616 
Q 2728 306 2450 153 
Q 2172 0 1784 0 
Q 1141 0 747 490 
Q 353 981 353 1791 
Q 353 2603 747 3093 
Q 1141 3584 1784 3584 
Q 2172 3584 2450 3431 
Q 2728 3278 2906 2969 
L 2906 3500 
L 3481 3500 
L 3481 434 
z
" transform="scale(0.015625)"/>
       <path id="DejaVuSans-65" d="M 3597 1894 
L 3597 1613 
L 953 1613 
Q 991 1019 1311 708 
Q 1631 397 2203 397 
Q 2534 397 2845 478 
Q 3156 559 3463 722 
L 3463 178 
Q 3153 47 2828 -22 
Q 2503 -91 2169 -91 
Q 1331 -91 842 396 
Q 353 884 353 1716 
Q 353 2575 817 3079 
Q 1281 3584 2069 3584 
Q 2775 3584 3186 3129 
Q 3597 2675 3597 1894 
z
M 3022 2063 
Q 3016 2534 2758 2815 
Q 2500 3097 2075 3097 
Q 1594 3097 1305 2825 
Q 1016 2553 972 2059 
L 3022 2063 
z
" transform="scale(0.015625)"/>
      </defs>
      <use xlink:href="#DejaVuSans-74"/>
      <use xlink:href="#DejaVuSans-61" x="39.208984"/>
      <use xlink:href="#DejaVuSans-72" x="100.488281"/>
      <use xlink:href="#DejaVuSans-67" x="139.851562"/>
      <use xlink:href="#DejaVuSans-65" x="203.328125"/>
      <use xlink:href="#DejaVuSans-74" x="264.851562"/>
     </g>
    </g>
   </g>
  </g>
 </g>
 <defs>
  <clipPath id="pe86c7fd1a0">
   <rect x="135" y="60.48" width="837" height="388.08"/>
  </clipPath>
 </defs>
</svg>
