<?xml version="1.0" encoding="utf-8" standalone="no"?>
<!DOCTYPE svg PUBLIC "-//W3C//DTD SVG 1.1//EN"
  "http://www.w3.org/Graphics/SVG/1.1/DTD/svg11.dtd">
<svg xmlns:xlink="http://www.w3.org/1999/xlink" width="1080pt" height="504pt" viewBox="0 0 1080 504" xmlns="http://www.w3.org/2000/svg" version="1.1">
 <metadata>
  <rdf:RDF xmlns:dc="http://purl.org/dc/elements/1.1/" xmlns:cc="http://creativecommons.org/ns#" xmlns:rdf="http://www.w3.org/1999/02/22-rdf-syntax-ns#">
   <cc:Work>
    <dc:type rdf:resource="http://purl.org/dc/dcmitype/StillImage"/>
    <dc:date>2024-05-09T11:10:07.246590</dc:date>
    <dc:format>image/svg+xml</dc:format>
    <dc:creator>
     <cc:Agent>
      <dc:title>Matplotlib v3.7.1, https://matplotlib.org/</dc:title>
     </cc:Agent>
    </dc:creator>
   </cc:Work>
  </rdf:RDF>
 </metadata>
 <defs>
  <style type="text/css">*{stroke-linejoin: round; stroke-linecap: butt}</style>
 </defs>
 <g id="figure_1">
  <g id="patch_1">
   <path d="M 0 504 
L 1080 504 
L 1080 0 
L 0 0 
z
" style="fill: #ffffff"/>
  </g>
  <g id="axes_1">
   <g id="patch_2">
    <path d="M 135 448.56 
L 972 448.56 
L 972 60.48 
L 135 60.48 
z
" style="fill: #ffffff"/>
   </g>
   <g id="matplotlib.axis_1">
    <g id="xtick_1">
     <g id="line2d_1">
      <defs>
       <path id="mf43daa9d45" d="M 0 0 
L 0 3.5 
" style="stroke: #000000; stroke-width: 0.8"/>
      </defs>
      <g>
       <use xlink:href="#mf43daa9d45" x="173.045455" y="448.56" style="stroke: #000000; stroke-width: 0.8"/>
      </g>
     </g>
     <g id="text_1">
      <!-- 0 -->
      <g transform="translate(169.864205 463.158437) scale(0.1 -0.1)">
       <defs>
        <path id="DejaVuSans-30" d="M 2034 4250 
Q 1547 4250 1301 3770 
Q 1056 3291 1056 2328 
Q 1056 1369 1301 889 
Q 1547 409 2034 409 
Q 2525 409 2770 889 
Q 3016 1369 3016 2328 
Q 3016 3291 2770 3770 
Q 2525 4250 2034 4250 
z
M 2034 4750 
Q 2819 4750 3233 4129 
Q 3647 3509 3647 2328 
Q 3647 1150 3233 529 
Q 2819 -91 2034 -91 
Q 1250 -91 836 529 
Q 422 1150 422 2328 
Q 422 3509 836 4129 
Q 1250 4750 2034 4750 
z
" transform="scale(0.015625)"/>
       </defs>
       <use xlink:href="#DejaVuSans-30"/>
      </g>
     </g>
    </g>
    <g id="xtick_2">
     <g id="line2d_2">
      <g>
       <use xlink:href="#mf43daa9d45" x="333.33808" y="448.56" style="stroke: #000000; stroke-width: 0.8"/>
      </g>
     </g>
     <g id="text_2">
      <!-- 1000 -->
      <g transform="translate(320.61308 463.158437) scale(0.1 -0.1)">
       <defs>
        <path id="DejaVuSans-31" d="M 794 531 
L 1825 531 
L 1825 4091 
L 703 3866 
L 703 4441 
L 1819 4666 
L 2450 4666 
L 2450 531 
L 3481 531 
L 3481 0 
L 794 0 
L 794 531 
z
" transform="scale(0.015625)"/>
       </defs>
       <use xlink:href="#DejaVuSans-31"/>
       <use xlink:href="#DejaVuSans-30" x="63.623047"/>
       <use xlink:href="#DejaVuSans-30" x="127.246094"/>
       <use xlink:href="#DejaVuSans-30" x="190.869141"/>
      </g>
     </g>
    </g>
    <g id="xtick_3">
     <g id="line2d_3">
      <g>
       <use xlink:href="#mf43daa9d45" x="493.630705" y="448.56" style="stroke: #000000; stroke-width: 0.8"/>
      </g>
     </g>
     <g id="text_3">
      <!-- 2000 -->
      <g transform="translate(480.905705 463.158437) scale(0.1 -0.1)">
       <defs>
        <path id="DejaVuSans-32" d="M 1228 531 
L 3431 531 
L 3431 0 
L 469 0 
L 469 531 
Q 828 903 1448 1529 
Q 2069 2156 2228 2338 
Q 2531 2678 2651 2914 
Q 2772 3150 2772 3378 
Q 2772 3750 2511 3984 
Q 2250 4219 1831 4219 
Q 1534 4219 1204 4116 
Q 875 4013 500 3803 
L 500 4441 
Q 881 4594 1212 4672 
Q 1544 4750 1819 4750 
Q 2544 4750 2975 4387 
Q 3406 4025 3406 3419 
Q 3406 3131 3298 2873 
Q 3191 2616 2906 2266 
Q 2828 2175 2409 1742 
Q 1991 1309 1228 531 
z
" transform="scale(0.015625)"/>
       </defs>
       <use xlink:href="#DejaVuSans-32"/>
       <use xlink:href="#DejaVuSans-30" x="63.623047"/>
       <use xlink:href="#DejaVuSans-30" x="127.246094"/>
       <use xlink:href="#DejaVuSans-30" x="190.869141"/>
      </g>
     </g>
    </g>
    <g id="xtick_4">
     <g id="line2d_4">
      <g>
       <use xlink:href="#mf43daa9d45" x="653.92333" y="448.56" style="stroke: #000000; stroke-width: 0.8"/>
      </g>
     </g>
     <g id="text_4">
      <!-- 3000 -->
      <g transform="translate(641.19833 463.158437) scale(0.1 -0.1)">
       <defs>
        <path id="DejaVuSans-33" d="M 2597 2516 
Q 3050 2419 3304 2112 
Q 3559 1806 3559 1356 
Q 3559 666 3084 287 
Q 2609 -91 1734 -91 
Q 1441 -91 1130 -33 
Q 819 25 488 141 
L 488 750 
Q 750 597 1062 519 
Q 1375 441 1716 441 
Q 2309 441 2620 675 
Q 2931 909 2931 1356 
Q 2931 1769 2642 2001 
Q 2353 2234 1838 2234 
L 1294 2234 
L 1294 2753 
L 1863 2753 
Q 2328 2753 2575 2939 
Q 2822 3125 2822 3475 
Q 2822 3834 2567 4026 
Q 2313 4219 1838 4219 
Q 1578 4219 1281 4162 
Q 984 4106 628 3988 
L 628 4550 
Q 988 4650 1302 4700 
Q 1616 4750 1894 4750 
Q 2613 4750 3031 4423 
Q 3450 4097 3450 3541 
Q 3450 3153 3228 2886 
Q 3006 2619 2597 2516 
z
" transform="scale(0.015625)"/>
       </defs>
       <use xlink:href="#DejaVuSans-33"/>
       <use xlink:href="#DejaVuSans-30" x="63.623047"/>
       <use xlink:href="#DejaVuSans-30" x="127.246094"/>
       <use xlink:href="#DejaVuSans-30" x="190.869141"/>
      </g>
     </g>
    </g>
    <g id="xtick_5">
     <g id="line2d_5">
      <g>
       <use xlink:href="#mf43daa9d45" x="814.215955" y="448.56" style="stroke: #000000; stroke-width: 0.8"/>
      </g>
     </g>
     <g id="text_5">
      <!-- 4000 -->
      <g transform="translate(801.490955 463.158437) scale(0.1 -0.1)">
       <defs>
        <path id="DejaVuSans-34" d="M 2419 4116 
L 825 1625 
L 2419 1625 
L 2419 4116 
z
M 2253 4666 
L 3047 4666 
L 3047 1625 
L 3713 1625 
L 3713 1100 
L 3047 1100 
L 3047 0 
L 2419 0 
L 2419 1100 
L 313 1100 
L 313 1709 
L 2253 4666 
z
" transform="scale(0.015625)"/>
       </defs>
       <use xlink:href="#DejaVuSans-34"/>
       <use xlink:href="#DejaVuSans-30" x="63.623047"/>
       <use xlink:href="#DejaVuSans-30" x="127.246094"/>
       <use xlink:href="#DejaVuSans-30" x="190.869141"/>
      </g>
     </g>
    </g>
    <g id="text_6">
     <!-- t -->
     <g transform="translate(551.539844 476.836563) scale(0.1 -0.1)">
      <defs>
       <path id="DejaVuSans-74" d="M 1172 4494 
L 1172 3500 
L 2356 3500 
L 2356 3053 
L 1172 3053 
L 1172 1153 
Q 1172 725 1289 603 
Q 1406 481 1766 481 
L 2356 481 
L 2356 0 
L 1766 0 
Q 1100 0 847 248 
Q 594 497 594 1153 
L 594 3053 
L 172 3053 
L 172 3500 
L 594 3500 
L 594 4494 
L 1172 4494 
z
" transform="scale(0.015625)"/>
      </defs>
      <use xlink:href="#DejaVuSans-74"/>
     </g>
    </g>
   </g>
   <g id="matplotlib.axis_2">
    <g id="ytick_1">
     <g id="line2d_6">
      <defs>
       <path id="m00853c7f67" d="M 0 0 
L -3.5 0 
" style="stroke: #000000; stroke-width: 0.8"/>
      </defs>
      <g>
       <use xlink:href="#m00853c7f67" x="135" y="427.122847" style="stroke: #000000; stroke-width: 0.8"/>
      </g>
     </g>
     <g id="text_7">
      <!-- −0.2 -->
      <g transform="translate(103.717187 430.922066) scale(0.1 -0.1)">
       <defs>
        <path id="DejaVuSans-2212" d="M 678 2272 
L 4684 2272 
L 4684 1741 
L 678 1741 
L 678 2272 
z
" transform="scale(0.015625)"/>
        <path id="DejaVuSans-2e" d="M 684 794 
L 1344 794 
L 1344 0 
L 684 0 
L 684 794 
z
" transform="scale(0.015625)"/>
       </defs>
       <use xlink:href="#DejaVuSans-2212"/>
       <use xlink:href="#DejaVuSans-30" x="83.789062"/>
       <use xlink:href="#DejaVuSans-2e" x="147.412109"/>
       <use xlink:href="#DejaVuSans-32" x="179.199219"/>
      </g>
     </g>
    </g>
    <g id="ytick_2">
     <g id="line2d_7">
      <g>
       <use xlink:href="#m00853c7f67" x="135" y="370.553787" style="stroke: #000000; stroke-width: 0.8"/>
      </g>
     </g>
     <g id="text_8">
      <!-- 0.0 -->
      <g transform="translate(112.096875 374.353006) scale(0.1 -0.1)">
       <use xlink:href="#DejaVuSans-30"/>
       <use xlink:href="#DejaVuSans-2e" x="63.623047"/>
       <use xlink:href="#DejaVuSans-30" x="95.410156"/>
      </g>
     </g>
    </g>
    <g id="ytick_3">
     <g id="line2d_8">
      <g>
       <use xlink:href="#m00853c7f67" x="135" y="313.984727" style="stroke: #000000; stroke-width: 0.8"/>
      </g>
     </g>
     <g id="text_9">
      <!-- 0.2 -->
      <g transform="translate(112.096875 317.783946) scale(0.1 -0.1)">
       <use xlink:href="#DejaVuSans-30"/>
       <use xlink:href="#DejaVuSans-2e" x="63.623047"/>
       <use xlink:href="#DejaVuSans-32" x="95.410156"/>
      </g>
     </g>
    </g>
    <g id="ytick_4">
     <g id="line2d_9">
      <g>
       <use xlink:href="#m00853c7f67" x="135" y="257.415667" style="stroke: #000000; stroke-width: 0.8"/>
      </g>
     </g>
     <g id="text_10">
      <!-- 0.4 -->
      <g transform="translate(112.096875 261.214886) scale(0.1 -0.1)">
       <use xlink:href="#DejaVuSans-30"/>
       <use xlink:href="#DejaVuSans-2e" x="63.623047"/>
       <use xlink:href="#DejaVuSans-34" x="95.410156"/>
      </g>
     </g>
    </g>
    <g id="ytick_5">
     <g id="line2d_10">
      <g>
       <use xlink:href="#m00853c7f67" x="135" y="200.846607" style="stroke: #000000; stroke-width: 0.8"/>
      </g>
     </g>
     <g id="text_11">
      <!-- 0.6 -->
      <g transform="translate(112.096875 204.645826) scale(0.1 -0.1)">
       <defs>
        <path id="DejaVuSans-36" d="M 2113 2584 
Q 1688 2584 1439 2293 
Q 1191 2003 1191 1497 
Q 1191 994 1439 701 
Q 1688 409 2113 409 
Q 2538 409 2786 701 
Q 3034 994 3034 1497 
Q 3034 2003 2786 2293 
Q 2538 2584 2113 2584 
z
M 3366 4563 
L 3366 3988 
Q 3128 4100 2886 4159 
Q 2644 4219 2406 4219 
Q 1781 4219 1451 3797 
Q 1122 3375 1075 2522 
Q 1259 2794 1537 2939 
Q 1816 3084 2150 3084 
Q 2853 3084 3261 2657 
Q 3669 2231 3669 1497 
Q 3669 778 3244 343 
Q 2819 -91 2113 -91 
Q 1303 -91 875 529 
Q 447 1150 447 2328 
Q 447 3434 972 4092 
Q 1497 4750 2381 4750 
Q 2619 4750 2861 4703 
Q 3103 4656 3366 4563 
z
" transform="scale(0.015625)"/>
       </defs>
       <use xlink:href="#DejaVuSans-30"/>
       <use xlink:href="#DejaVuSans-2e" x="63.623047"/>
       <use xlink:href="#DejaVuSans-36" x="95.410156"/>
      </g>
     </g>
    </g>
    <g id="ytick_6">
     <g id="line2d_11">
      <g>
       <use xlink:href="#m00853c7f67" x="135" y="144.277547" style="stroke: #000000; stroke-width: 0.8"/>
      </g>
     </g>
     <g id="text_12">
      <!-- 0.8 -->
      <g transform="translate(112.096875 148.076766) scale(0.1 -0.1)">
       <defs>
        <path id="DejaVuSans-38" d="M 2034 2216 
Q 1584 2216 1326 1975 
Q 1069 1734 1069 1313 
Q 1069 891 1326 650 
Q 1584 409 2034 409 
Q 2484 409 2743 651 
Q 3003 894 3003 1313 
Q 3003 1734 2745 1975 
Q 2488 2216 2034 2216 
z
M 1403 2484 
Q 997 2584 770 2862 
Q 544 3141 544 3541 
Q 544 4100 942 4425 
Q 1341 4750 2034 4750 
Q 2731 4750 3128 4425 
Q 3525 4100 3525 3541 
Q 3525 3141 3298 2862 
Q 3072 2584 2669 2484 
Q 3125 2378 3379 2068 
Q 3634 1759 3634 1313 
Q 3634 634 3220 271 
Q 2806 -91 2034 -91 
Q 1263 -91 848 271 
Q 434 634 434 1313 
Q 434 1759 690 2068 
Q 947 2378 1403 2484 
z
M 1172 3481 
Q 1172 3119 1398 2916 
Q 1625 2713 2034 2713 
Q 2441 2713 2670 2916 
Q 2900 3119 2900 3481 
Q 2900 3844 2670 4047 
Q 2441 4250 2034 4250 
Q 1625 4250 1398 4047 
Q 1172 3844 1172 3481 
z
" transform="scale(0.015625)"/>
       </defs>
       <use xlink:href="#DejaVuSans-30"/>
       <use xlink:href="#DejaVuSans-2e" x="63.623047"/>
       <use xlink:href="#DejaVuSans-38" x="95.410156"/>
      </g>
     </g>
    </g>
    <g id="ytick_7">
     <g id="line2d_12">
      <g>
       <use xlink:href="#m00853c7f67" x="135" y="87.708487" style="stroke: #000000; stroke-width: 0.8"/>
      </g>
     </g>
     <g id="text_13">
      <!-- 1.0 -->
      <g transform="translate(112.096875 91.507706) scale(0.1 -0.1)">
       <use xlink:href="#DejaVuSans-31"/>
       <use xlink:href="#DejaVuSans-2e" x="63.623047"/>
       <use xlink:href="#DejaVuSans-30" x="95.410156"/>
      </g>
     </g>
    </g>
   </g>
   <g id="line2d_13">
    <path d="M 173.045455 202.258865 
L 173.36604 101.641336 
L 173.686625 79.682031 
L 173.846918 78.120005 
L 174.00721 80.425788 
L 174.327796 91.97614 
L 174.968966 116.445884 
L 175.289551 121.96318 
L 175.610137 123.415953 
L 175.770429 123.287676 
L 176.091014 122.71055 
L 176.251307 122.71595 
L 176.4116 123.138494 
L 176.732185 125.592755 
L 177.05277 130.34451 
L 177.533648 141.063243 
L 177.693941 145.281062 
L 178.014526 359.177379 
L 178.335111 406.033426 
L 178.655696 425.385077 
L 178.815989 429.917746 
L 178.976282 430.92 
L 179.136574 428.404617 
L 179.45716 414.483283 
L 180.418915 359.405362 
L 180.739501 353.195904 
L 180.899793 353.036377 
L 181.060086 354.52025 
L 181.380671 361.048623 
L 182.342427 385.535107 
L 182.663012 389.669573 
L 182.823305 390.631012 
L 182.983597 390.879854 
L 183.14389 390.463569 
L 183.464475 387.896824 
L 183.945353 380.860114 
L 185.868865 348.009098 
L 186.349742 343.851947 
L 186.670328 342.329986 
L 186.990913 341.743878 
L 187.151206 341.771959 
L 187.471791 342.395238 
L 187.792376 343.661502 
L 188.433547 347.55161 
L 190.677643 363.170255 
L 191.318814 366.051016 
L 191.959984 368.040977 
L 192.601155 369.291003 
L 193.242325 369.994715 
L 193.883496 370.338172 
L 194.684959 370.486662 
L 196.60847 370.490121 
L 213.278903 370.553797 
L 213.599489 132.7317 
L 213.920074 86.568961 
L 214.080367 79.682029 
L 214.240659 78.120002 
L 214.400952 80.425784 
L 214.721537 91.976135 
L 215.362708 116.44588 
L 215.683293 121.963177 
L 216.003878 123.41595 
L 216.164171 123.287674 
L 216.484756 122.710549 
L 216.645049 122.715949 
L 216.805341 123.138493 
L 217.125926 125.592754 
L 217.446512 130.34451 
L 217.92739 141.063243 
L 218.087682 145.281062 
L 218.408267 359.177379 
L 218.728853 406.033427 
L 219.049438 425.385077 
L 219.209731 429.917746 
L 219.370023 430.92 
L 219.530316 428.404617 
L 219.850901 414.483284 
L 220.812657 359.405362 
L 221.133242 353.195904 
L 221.293535 353.036378 
L 221.453827 354.52025 
L 221.774413 361.048623 
L 222.736168 385.535107 
L 223.056754 389.669573 
L 223.217046 390.631012 
L 223.377339 390.879854 
L 223.537631 390.463569 
L 223.858217 387.896824 
L 224.339095 380.860114 
L 226.262606 348.009098 
L 226.743484 343.851947 
L 227.064069 342.329986 
L 227.384654 341.743878 
L 227.544947 341.771959 
L 227.865532 342.395238 
L 228.186118 343.661502 
L 228.827288 347.55161 
L 231.071385 363.170255 
L 231.712555 366.051016 
L 232.353726 368.040977 
L 232.994896 369.291003 
L 233.636067 369.994715 
L 234.277237 370.338172 
L 235.0787 370.486662 
L 237.002212 370.490121 
L 253.99323 370.55379 
L 254.313815 132.731696 
L 254.634401 86.568958 
L 254.794693 79.682027 
L 254.954986 78.120001 
L 255.115279 80.425783 
L 255.435864 91.976136 
L 256.077034 116.445881 
L 256.39762 121.963178 
L 256.718205 123.415951 
L 256.878497 123.287675 
L 257.199083 122.71055 
L 257.359375 122.71595 
L 257.519668 123.138494 
L 257.840253 125.592755 
L 258.160838 130.34451 
L 258.641716 141.063243 
L 258.802009 145.281062 
L 259.122594 359.17738 
L 259.443179 406.033427 
L 259.763765 425.385077 
L 259.924057 429.917746 
L 260.08435 430.92 
L 260.244643 428.404617 
L 260.565228 414.483284 
L 261.526984 359.405362 
L 261.847569 353.195904 
L 262.007861 353.036378 
L 262.168154 354.52025 
L 262.488739 361.048623 
L 263.450495 385.535107 
L 263.77108 389.669573 
L 263.931373 390.631012 
L 264.091666 390.879854 
L 264.251958 390.463569 
L 264.572543 387.896824 
L 265.053421 380.860114 
L 266.976933 348.009098 
L 267.457811 343.851947 
L 267.778396 342.329986 
L 268.098981 341.743878 
L 268.259274 341.771959 
L 268.579859 342.395238 
L 268.900444 343.661502 
L 269.541615 347.55161 
L 271.785712 363.170255 
L 272.426882 366.051016 
L 273.068053 368.040977 
L 273.709223 369.291003 
L 274.350394 369.994715 
L 274.991564 370.338172 
L 275.793027 370.486662 
L 277.716539 370.490121 
L 293.585509 370.55382 
L 293.906094 132.731716 
L 294.226679 86.56897 
L 294.386972 79.682036 
L 294.547264 78.120006 
L 294.707557 80.425786 
L 295.028142 91.976135 
L 295.669313 116.445877 
L 295.989898 121.963173 
L 296.310483 123.415946 
L 296.470776 123.28767 
L 296.791361 122.710546 
L 296.951654 122.715946 
L 297.111946 123.13849 
L 297.432532 125.592752 
L 297.753117 130.344508 
L 298.233995 141.063242 
L 298.394287 145.281061 
L 298.714873 359.177379 
L 299.035458 406.033426 
L 299.356043 425.385077 
L 299.516336 429.917746 
L 299.676628 430.92 
L 299.836921 428.404617 
L 300.157506 414.483283 
L 301.119262 359.405362 
L 301.439847 353.195904 
L 301.60014 353.036378 
L 301.760432 354.52025 
L 302.081018 361.048623 
L 303.042773 385.535108 
L 303.363359 389.669573 
L 303.523651 390.631012 
L 303.683944 390.879854 
L 303.844237 390.463569 
L 304.164822 387.896824 
L 304.6457 380.860114 
L 306.569211 348.009098 
L 307.050089 343.851947 
L 307.370674 342.329986 
L 307.69126 341.743878 
L 307.851552 341.771959 
L 308.172137 342.395238 
L 308.492723 343.661502 
L 309.133893 347.55161 
L 311.37799 363.170255 
L 312.01916 366.051016 
L 312.660331 368.040977 
L 313.301501 369.291003 
L 313.942672 369.994715 
L 314.583842 370.338172 
L 315.385306 370.486662 
L 317.308817 370.490121 
L 333.818957 370.553801 
L 334.139543 132.731703 
L 334.460128 86.568962 
L 334.620421 79.68203 
L 334.780713 78.120003 
L 334.941006 80.425784 
L 335.261591 91.976135 
L 335.902762 116.44588 
L 336.223347 121.963176 
L 336.543932 123.41595 
L 336.704225 123.287673 
L 337.02481 122.710548 
L 337.185103 122.715949 
L 337.345395 123.138493 
L 337.66598 125.592754 
L 337.986566 130.344509 
L 338.467444 141.063243 
L 338.627736 145.281062 
L 338.948321 359.177379 
L 339.268907 406.033426 
L 339.589492 425.385077 
L 339.749785 429.917746 
L 339.910077 430.92 
L 340.07037 428.404617 
L 340.390955 414.483284 
L 341.352711 359.405362 
L 341.673296 353.195904 
L 341.833589 353.036378 
L 341.993881 354.52025 
L 342.314467 361.048623 
L 343.276222 385.535107 
L 343.596808 389.669573 
L 343.7571 390.631012 
L 343.917393 390.879854 
L 344.077685 390.463569 
L 344.398271 387.896824 
L 344.879149 380.860114 
L 346.80266 348.009098 
L 347.283538 343.851947 
L 347.604123 342.329986 
L 347.924708 341.743878 
L 348.085001 341.771959 
L 348.405586 342.395238 
L 348.726172 343.661502 
L 349.367342 347.55161 
L 351.611439 363.170255 
L 352.252609 366.051016 
L 352.89378 368.040977 
L 353.53495 369.291003 
L 354.176121 369.994715 
L 354.817291 370.338172 
L 355.618754 370.486662 
L 357.542266 370.490121 
L 373.090651 370.553831 
L 373.411236 132.731724 
L 373.731821 86.568976 
L 373.892114 79.682039 
L 374.052406 78.120009 
L 374.212699 80.425788 
L 374.533284 91.976135 
L 375.174455 116.445875 
L 375.49504 121.963171 
L 375.815625 123.415944 
L 375.975918 123.287668 
L 376.296503 122.710544 
L 376.456796 122.715944 
L 376.617088 123.138489 
L 376.937674 125.592751 
L 377.258259 130.344507 
L 377.739137 141.063241 
L 377.899429 145.281061 
L 378.220015 359.177378 
L 378.5406 406.033426 
L 378.861185 425.385077 
L 379.021478 429.917746 
L 379.18177 430.92 
L 379.342063 428.404617 
L 379.662648 414.483283 
L 380.624404 359.405362 
L 380.944989 353.195904 
L 381.105282 353.036377 
L 381.265574 354.52025 
L 381.58616 361.048623 
L 382.547915 385.535108 
L 382.868501 389.669573 
L 383.028793 390.631012 
L 383.189086 390.879854 
L 383.349379 390.463569 
L 383.669964 387.896824 
L 384.150842 380.860114 
L 386.074353 348.009098 
L 386.555231 343.851947 
L 386.875816 342.329986 
L 387.196402 341.743878 
L 387.356694 341.771959 
L 387.677279 342.395238 
L 387.997865 343.661502 
L 388.639035 347.55161 
L 390.883132 363.170255 
L 391.524302 366.051016 
L 392.165473 368.040977 
L 392.806643 369.291003 
L 393.447814 369.994715 
L 394.088984 370.338172 
L 394.890448 370.486662 
L 396.813959 370.490121 
L 413.644685 370.553793 
L 413.96527 132.731698 
L 414.285855 86.568959 
L 414.446148 79.682028 
L 414.60644 78.120001 
L 414.766733 80.425784 
L 415.087318 91.976135 
L 415.728489 116.445881 
L 416.049074 121.963177 
L 416.369659 123.415951 
L 416.529952 123.287675 
L 416.850537 122.710549 
L 417.01083 122.715949 
L 417.171122 123.138493 
L 417.491708 125.592754 
L 417.812293 130.34451 
L 418.293171 141.063243 
L 418.453463 145.281062 
L 418.774049 359.17738 
L 419.094634 406.033427 
L 419.415219 425.385077 
L 419.575512 429.917746 
L 419.735804 430.92 
L 419.896097 428.404617 
L 420.216682 414.483284 
L 421.178438 359.405362 
L 421.499023 353.195904 
L 421.659316 353.036378 
L 421.819609 354.52025 
L 422.140194 361.048623 
L 423.10195 385.535107 
L 423.422535 389.669573 
L 423.582827 390.631012 
L 423.74312 390.879854 
L 423.903413 390.463569 
L 424.223998 387.896824 
L 424.704876 380.860114 
L 426.628387 348.009098 
L 427.109265 343.851947 
L 427.42985 342.329986 
L 427.750436 341.743878 
L 427.910728 341.771959 
L 428.231314 342.395238 
L 428.551899 343.661502 
L 429.193069 347.55161 
L 431.437166 363.170255 
L 432.078337 366.051016 
L 432.719507 368.040977 
L 433.360678 369.291003 
L 434.001848 369.994715 
L 434.643019 370.338172 
L 435.444482 370.486662 
L 437.367993 370.490121 
L 453.557548 370.55381 
L 453.878134 132.731709 
L 454.198719 86.568966 
L 454.359011 79.682032 
L 454.519304 78.120004 
L 454.679597 80.425785 
L 455.000182 91.976135 
L 455.641352 116.445878 
L 455.961938 121.963175 
L 456.282523 123.415948 
L 456.442816 123.287672 
L 456.763401 122.710547 
L 456.923693 122.715947 
L 457.083986 123.138492 
L 457.404571 125.592753 
L 457.725157 130.344509 
L 458.206034 141.063242 
L 458.366327 145.281062 
L 458.686912 359.177379 
L 459.007498 406.033426 
L 459.328083 425.385077 
L 459.488375 429.917746 
L 459.648668 430.92 
L 459.808961 428.404617 
L 460.129546 414.483284 
L 461.091302 359.405362 
L 461.411887 353.195904 
L 461.57218 353.036378 
L 461.732472 354.52025 
L 462.053057 361.048623 
L 463.014813 385.535107 
L 463.335398 389.669573 
L 463.495691 390.631012 
L 463.655984 390.879854 
L 463.816276 390.463569 
L 464.136862 387.896824 
L 464.617739 380.860114 
L 466.541251 348.009098 
L 467.022129 343.851947 
L 467.342714 342.329986 
L 467.663299 341.743878 
L 467.823592 341.771959 
L 468.144177 342.395238 
L 468.464762 343.661502 
L 469.105933 347.55161 
L 471.35003 363.170255 
L 471.9912 366.051016 
L 472.632371 368.040977 
L 473.273541 369.291003 
L 473.914712 369.994715 
L 474.555882 370.338172 
L 475.357345 370.486662 
L 477.280857 370.490121 
L 493.630705 370.553805 
L 493.95129 132.731705 
L 494.271875 86.568964 
L 494.432168 79.682031 
L 494.59246 78.120003 
L 494.752753 80.425785 
L 495.073338 91.976135 
L 495.714509 116.445879 
L 496.035094 121.963175 
L 496.355679 123.415949 
L 496.515972 123.287673 
L 496.836557 122.710548 
L 496.99685 122.715948 
L 497.157142 123.138492 
L 497.477728 125.592753 
L 497.798313 130.344509 
L 498.279191 141.063243 
L 498.439483 145.281062 
L 498.760069 359.177379 
L 499.080654 406.033426 
L 499.401239 425.385077 
L 499.561532 429.917746 
L 499.721824 430.92 
L 499.882117 428.404617 
L 500.202702 414.483284 
L 501.164458 359.405362 
L 501.485043 353.195904 
L 501.645336 353.036378 
L 501.805628 354.52025 
L 502.126214 361.048623 
L 503.087969 385.535107 
L 503.408555 389.669573 
L 503.568847 390.631012 
L 503.72914 390.879854 
L 503.889433 390.463569 
L 504.210018 387.896824 
L 504.690896 380.860114 
L 506.614407 348.009098 
L 507.095285 343.851947 
L 507.41587 342.329986 
L 507.736456 341.743878 
L 507.896748 341.771959 
L 508.217333 342.395238 
L 508.537919 343.661502 
L 509.179089 347.55161 
L 511.423186 363.170255 
L 512.064356 366.051016 
L 512.705527 368.040977 
L 513.346697 369.291003 
L 513.987868 369.994715 
L 514.629038 370.338172 
L 515.430502 370.486662 
L 517.354013 370.490121 
L 533.864153 370.553801 
L 534.184739 132.731703 
L 534.505324 86.568962 
L 534.665617 79.68203 
L 534.825909 78.120003 
L 534.986202 80.425784 
L 535.306787 91.976135 
L 535.947958 116.44588 
L 536.268543 121.963176 
L 536.589128 123.41595 
L 536.749421 123.287673 
L 537.070006 122.710548 
L 537.230299 122.715949 
L 537.390591 123.138493 
L 537.711176 125.592754 
L 538.031762 130.344509 
L 538.51264 141.063243 
L 538.672932 145.281062 
L 538.993517 359.177379 
L 539.314103 406.033426 
L 539.634688 425.385077 
L 539.794981 429.917746 
L 539.955273 430.92 
L 540.115566 428.404617 
L 540.436151 414.483284 
L 541.397907 359.405362 
L 541.718492 353.195904 
L 541.878785 353.036378 
L 542.039077 354.52025 
L 542.359663 361.048623 
L 543.321418 385.535107 
L 543.642004 389.669573 
L 543.802296 390.631012 
L 543.962589 390.879854 
L 544.122881 390.463569 
L 544.443467 387.896824 
L 544.924345 380.860114 
L 546.847856 348.009098 
L 547.328734 343.851947 
L 547.649319 342.329986 
L 547.969904 341.743878 
L 548.130197 341.771959 
L 548.450782 342.395238 
L 548.771368 343.661502 
L 549.412538 347.55161 
L 551.656635 363.170255 
L 552.297805 366.051016 
L 552.938976 368.040977 
L 553.580146 369.291003 
L 554.221317 369.994715 
L 554.862487 370.338172 
L 555.66395 370.486662 
L 557.587462 370.490121 
L 574.257895 370.553797 
L 574.57848 132.7317 
L 574.899065 86.568961 
L 575.059358 79.682029 
L 575.219651 78.120002 
L 575.379943 80.425784 
L 575.700529 91.976135 
L 576.341699 116.44588 
L 576.662284 121.963177 
L 576.98287 123.41595 
L 577.143162 123.287674 
L 577.463747 122.710549 
L 577.62404 122.715949 
L 577.784333 123.138493 
L 578.104918 125.592754 
L 578.425503 130.34451 
L 578.906381 141.063243 
L 579.066674 145.281062 
L 579.387259 359.177379 
L 579.707844 406.033427 
L 580.028429 425.385077 
L 580.188722 429.917746 
L 580.349015 430.92 
L 580.509307 428.404617 
L 580.829893 414.483284 
L 581.791648 359.405362 
L 582.112234 353.195904 
L 582.272526 353.036378 
L 582.432819 354.52025 
L 582.753404 361.048623 
L 583.71516 385.535107 
L 584.035745 389.669573 
L 584.196038 390.631012 
L 584.35633 390.879854 
L 584.516623 390.463569 
L 584.837208 387.896824 
L 585.318086 380.860114 
L 587.241598 348.009098 
L 587.722475 343.851947 
L 588.043061 342.329986 
L 588.363646 341.743878 
L 588.523939 341.771959 
L 588.844524 342.395238 
L 589.165109 343.661502 
L 589.80628 347.55161 
L 592.050376 363.170255 
L 592.691547 366.051016 
L 593.332717 368.040977 
L 593.973888 369.291003 
L 594.615058 369.994715 
L 595.256229 370.338172 
L 596.057692 370.486662 
L 597.981203 370.490121 
L 613.209003 370.553842 
L 613.529588 132.731732 
L 613.850173 86.568981 
L 614.010466 79.682044 
L 614.170759 78.120012 
L 614.331051 80.42579 
L 614.651636 91.976135 
L 615.292807 116.445873 
L 615.613392 121.963169 
L 615.933977 123.415942 
L 616.09427 123.287666 
L 616.414855 122.710542 
L 616.575148 122.715942 
L 616.735441 123.138487 
L 617.056026 125.592749 
L 617.376611 130.344506 
L 617.857489 141.06324 
L 618.017782 145.28106 
L 618.338367 359.177378 
L 618.658952 406.033425 
L 618.979537 425.385076 
L 619.13983 429.917745 
L 619.300123 430.919999 
L 619.460415 428.404616 
L 619.781 414.483283 
L 620.742756 359.405362 
L 621.063341 353.195904 
L 621.223634 353.036377 
L 621.383927 354.52025 
L 621.704512 361.048623 
L 622.666268 385.535108 
L 622.986853 389.669573 
L 623.147146 390.631012 
L 623.307438 390.879854 
L 623.467731 390.46357 
L 623.788316 387.896824 
L 624.269194 380.860114 
L 626.192705 348.009098 
L 626.673583 343.851947 
L 626.994169 342.329986 
L 627.314754 341.743878 
L 627.475046 341.771959 
L 627.795632 342.395238 
L 628.116217 343.661502 
L 628.757387 347.55161 
L 631.001484 363.170255 
L 631.642655 366.051016 
L 632.283825 368.040977 
L 632.924996 369.291003 
L 633.566166 369.994715 
L 634.207337 370.338172 
L 635.0088 370.486662 
L 636.932311 370.490121 
L 653.92333 370.55379 
L 654.243915 132.731696 
L 654.5645 86.568958 
L 654.724793 79.682027 
L 654.885085 78.120001 
L 655.045378 80.425783 
L 655.365963 91.976136 
L 656.007134 116.445881 
L 656.327719 121.963178 
L 656.648304 123.415951 
L 656.808597 123.287675 
L 657.129182 122.71055 
L 657.289475 122.71595 
L 657.449767 123.138494 
L 657.770353 125.592755 
L 658.090938 130.34451 
L 658.571816 141.063243 
L 658.732108 145.281062 
L 659.052694 359.17738 
L 659.373279 406.033427 
L 659.693864 425.385077 
L 659.854157 429.917746 
L 660.014449 430.92 
L 660.174742 428.404617 
L 660.495327 414.483284 
L 661.457083 359.405362 
L 661.777668 353.195904 
L 661.937961 353.036378 
L 662.098253 354.52025 
L 662.418839 361.048623 
L 663.380594 385.535107 
L 663.70118 389.669573 
L 663.861472 390.631012 
L 664.021765 390.879854 
L 664.182058 390.463569 
L 664.502643 387.896824 
L 664.983521 380.860114 
L 666.907032 348.009098 
L 667.38791 343.851947 
L 667.708495 342.329986 
L 668.029081 341.743878 
L 668.189373 341.771959 
L 668.509958 342.395238 
L 668.830544 343.661502 
L 669.471714 347.55161 
L 671.715811 363.170255 
L 672.356981 366.051016 
L 672.998152 368.040977 
L 673.639322 369.291003 
L 674.280493 369.994715 
L 674.921663 370.338172 
L 675.723127 370.486662 
L 677.646638 370.490121 
L 694.156778 370.553801 
L 694.477364 132.731703 
L 694.797949 86.568962 
L 694.958242 79.68203 
L 695.118534 78.120003 
L 695.278827 80.425784 
L 695.599412 91.976135 
L 696.240583 116.44588 
L 696.561168 121.963176 
L 696.881753 123.41595 
L 697.042046 123.287673 
L 697.362631 122.710548 
L 697.522924 122.715949 
L 697.683216 123.138493 
L 698.003801 125.592754 
L 698.324387 130.344509 
L 698.805265 141.063243 
L 698.965557 145.281062 
L 699.286142 359.177379 
L 699.606728 406.033426 
L 699.927313 425.385077 
L 700.087606 429.917746 
L 700.247898 430.92 
L 700.408191 428.404617 
L 700.728776 414.483284 
L 701.690532 359.405362 
L 702.011117 353.195904 
L 702.17141 353.036378 
L 702.331702 354.52025 
L 702.652288 361.048623 
L 703.614043 385.535107 
L 703.934629 389.669573 
L 704.094921 390.631012 
L 704.255214 390.879854 
L 704.415506 390.463569 
L 704.736092 387.896824 
L 705.21697 380.860114 
L 707.140481 348.009098 
L 707.621359 343.851947 
L 707.941944 342.329986 
L 708.262529 341.743878 
L 708.422822 341.771959 
L 708.743407 342.395238 
L 709.063993 343.661502 
L 709.705163 347.55161 
L 711.94926 363.170255 
L 712.59043 366.051016 
L 713.231601 368.040977 
L 713.872771 369.291003 
L 714.513942 369.994715 
L 715.155112 370.338172 
L 715.956575 370.486662 
L 717.880087 370.490121 
L 734.069642 370.55381 
L 734.390227 132.731709 
L 734.710813 86.568966 
L 734.871105 79.682032 
L 735.031398 78.120004 
L 735.19169 80.425785 
L 735.512276 91.976135 
L 736.153446 116.445878 
L 736.474031 121.963175 
L 736.794617 123.415948 
L 736.954909 123.287672 
L 737.275495 122.710547 
L 737.435787 122.715947 
L 737.59608 123.138492 
L 737.916665 125.592753 
L 738.23725 130.344509 
L 738.718128 141.063242 
L 738.878421 145.281062 
L 739.199006 359.177379 
L 739.519591 406.033426 
L 739.840177 425.385077 
L 740.000469 429.917746 
L 740.160762 430.92 
L 740.321054 428.404617 
L 740.64164 414.483284 
L 741.603395 359.405362 
L 741.923981 353.195904 
L 742.084273 353.036378 
L 742.244566 354.52025 
L 742.565151 361.048623 
L 743.526907 385.535107 
L 743.847492 389.669573 
L 744.007785 390.631012 
L 744.168077 390.879854 
L 744.32837 390.463569 
L 744.648955 387.896824 
L 745.129833 380.860114 
L 747.053345 348.009098 
L 747.534223 343.851947 
L 747.854808 342.329986 
L 748.175393 341.743878 
L 748.335686 341.771959 
L 748.656271 342.395238 
L 748.976856 343.661502 
L 749.618027 347.55161 
L 751.862123 363.170255 
L 752.503294 366.051016 
L 753.144464 368.040977 
L 753.785635 369.291003 
L 754.426805 369.994715 
L 755.067976 370.338172 
L 755.869439 370.486662 
L 757.792951 370.490121 
L 773.822213 370.553815 
L 774.142798 132.731712 
L 774.463384 86.568968 
L 774.623676 79.682034 
L 774.783969 78.120005 
L 774.944261 80.425786 
L 775.264847 91.976135 
L 775.906017 116.445877 
L 776.226602 121.963174 
L 776.547188 123.415947 
L 776.70748 123.287671 
L 777.028066 122.710546 
L 777.188358 122.715947 
L 777.348651 123.138491 
L 777.669236 125.592753 
L 777.989821 130.344508 
L 778.470699 141.063242 
L 778.630992 145.281061 
L 778.951577 359.177379 
L 779.272162 406.033426 
L 779.592748 425.385077 
L 779.75304 429.917746 
L 779.913333 430.92 
L 780.073625 428.404617 
L 780.394211 414.483283 
L 781.355966 359.405362 
L 781.676552 353.195904 
L 781.836844 353.036378 
L 781.997137 354.52025 
L 782.317722 361.048623 
L 783.279478 385.535107 
L 783.600063 389.669573 
L 783.760356 390.631012 
L 783.920648 390.879854 
L 784.080941 390.463569 
L 784.401526 387.896824 
L 784.882404 380.860114 
L 786.805916 348.009098 
L 787.286794 343.851947 
L 787.607379 342.329986 
L 787.927964 341.743878 
L 788.088257 341.771959 
L 788.408842 342.395238 
L 788.729427 343.661502 
L 789.370598 347.55161 
L 791.614694 363.170255 
L 792.255865 366.051016 
L 792.897035 368.040977 
L 793.538206 369.291003 
L 794.179376 369.994715 
L 794.820547 370.338172 
L 795.62201 370.486662 
L 797.545522 370.490121 
L 813.414491 370.55382 
L 813.735077 132.731716 
L 814.055662 86.56897 
L 814.215955 79.682036 
L 814.376247 78.120006 
L 814.53654 80.425786 
L 814.857125 91.976135 
L 815.498296 116.445877 
L 815.818881 121.963173 
L 816.139466 123.415946 
L 816.299759 123.28767 
L 816.620344 122.710546 
L 816.780637 122.715946 
L 816.940929 123.13849 
L 817.261514 125.592752 
L 817.5821 130.344508 
L 818.062978 141.063242 
L 818.22327 145.281061 
L 818.543855 359.177379 
L 818.864441 406.033426 
L 819.185026 425.385077 
L 819.345319 429.917746 
L 819.505611 430.92 
L 819.665904 428.404617 
L 819.986489 414.483283 
L 820.948245 359.405362 
L 821.26883 353.195904 
L 821.429123 353.036378 
L 821.589415 354.52025 
L 821.910001 361.048623 
L 822.871756 385.535108 
L 823.192342 389.669573 
L 823.352634 390.631012 
L 823.512927 390.879854 
L 823.673219 390.463569 
L 823.993805 387.896824 
L 824.474683 380.860114 
L 826.398194 348.009098 
L 826.879072 343.851947 
L 827.199657 342.329986 
L 827.520242 341.743878 
L 827.680535 341.771959 
L 828.00112 342.395238 
L 828.321706 343.661502 
L 828.962876 347.55161 
L 831.206973 363.170255 
L 831.848143 366.051016 
L 832.489314 368.040977 
L 833.130484 369.291003 
L 833.771655 369.994715 
L 834.412825 370.338172 
L 835.214288 370.486662 
L 837.1378 370.490121 
L 854.609696 370.553783 
L 854.930281 132.731691 
L 855.250867 86.568956 
L 855.411159 79.682025 
L 855.571452 78.12 
L 855.731744 80.425783 
L 856.05233 91.976136 
L 856.6935 116.445883 
L 857.014085 121.963179 
L 857.334671 123.415953 
L 857.494963 123.287676 
L 857.815549 122.710551 
L 857.975841 122.715951 
L 858.136134 123.138494 
L 858.456719 125.592755 
L 858.777304 130.34451 
L 859.258182 141.063243 
L 859.418475 145.281062 
L 859.73906 359.17738 
L 860.059645 406.033427 
L 860.380231 425.385077 
L 860.540523 429.917746 
L 860.700816 430.92 
L 860.861108 428.404617 
L 861.181694 414.483284 
L 862.143449 359.405362 
L 862.464035 353.195904 
L 862.624327 353.036378 
L 862.78462 354.52025 
L 863.105205 361.048623 
L 864.066961 385.535107 
L 864.387546 389.669573 
L 864.547839 390.631012 
L 864.708131 390.879854 
L 864.868424 390.463569 
L 865.189009 387.896824 
L 865.669887 380.860114 
L 867.593399 348.009098 
L 868.074277 343.851947 
L 868.394862 342.329986 
L 868.715447 341.743878 
L 868.87574 341.771959 
L 869.196325 342.395238 
L 869.51691 343.661502 
L 870.158081 347.55161 
L 872.402177 363.170255 
L 873.043348 366.051016 
L 873.684518 368.040977 
L 874.325689 369.291003 
L 874.966859 369.994715 
L 875.60803 370.338172 
L 876.409493 370.486662 
L 878.333005 370.490121 
L 894.362267 370.553815 
L 894.682852 132.731712 
L 895.003438 86.568968 
L 895.16373 79.682034 
L 895.324023 78.120005 
L 895.484315 80.425786 
L 895.804901 91.976135 
L 896.446071 116.445877 
L 896.766656 121.963174 
L 897.087242 123.415947 
L 897.247534 123.287671 
L 897.56812 122.710546 
L 897.728412 122.715947 
L 897.888705 123.138491 
L 898.20929 125.592753 
L 898.529875 130.344508 
L 899.010753 141.063242 
L 899.171046 145.281061 
L 899.491631 359.177379 
L 899.812216 406.033426 
L 900.132802 425.385077 
L 900.293094 429.917746 
L 900.453387 430.92 
L 900.613679 428.404617 
L 900.934265 414.483283 
L 901.89602 359.405362 
L 902.216606 353.195904 
L 902.376898 353.036378 
L 902.537191 354.52025 
L 902.857776 361.048623 
L 903.819532 385.535107 
L 904.140117 389.669573 
L 904.30041 390.631012 
L 904.460702 390.879854 
L 904.620995 390.463569 
L 904.94158 387.896824 
L 905.422458 380.860114 
L 907.34597 348.009098 
L 907.826848 343.851947 
L 908.147433 342.329986 
L 908.468018 341.743878 
L 908.628311 341.771959 
L 908.948896 342.395238 
L 909.269481 343.661502 
L 909.910652 347.55161 
L 912.154748 363.170255 
L 912.795919 366.051016 
L 913.437089 368.040977 
L 914.07826 369.291003 
L 914.71943 369.994715 
L 915.360601 370.338172 
L 916.162064 370.486662 
L 918.085576 370.490121 
L 933.794253 370.553825 
L 933.954545 202.258895 
L 933.954545 202.258895 
" clip-path="url(#p22dd726d21)" style="fill: none; stroke: #1f77b4; stroke-width: 1.5; stroke-linecap: square"/>
   </g>
   <g id="line2d_14">
    <path d="M 173.045455 87.708487 
L 177.693941 87.708487 
L 177.854233 370.553787 
L 213.278903 370.553787 
L 213.439196 87.708487 
L 218.087682 87.708487 
L 218.247975 370.553787 
L 253.99323 370.553787 
L 254.153523 87.708487 
L 258.802009 87.708487 
L 258.962302 370.553787 
L 293.585509 370.553787 
L 293.745801 87.708487 
L 298.394287 87.708487 
L 298.55458 370.553787 
L 333.818957 370.553787 
L 333.97925 87.708487 
L 338.627736 87.708487 
L 338.788029 370.553787 
L 373.090651 370.553787 
L 373.250943 87.708487 
L 377.899429 87.708487 
L 378.059722 370.553787 
L 413.644685 370.553787 
L 413.804977 87.708487 
L 418.453463 87.708487 
L 418.613756 370.553787 
L 453.557548 370.553787 
L 453.717841 87.708487 
L 458.366327 87.708487 
L 458.52662 370.553787 
L 493.630705 370.553787 
L 493.790997 87.708487 
L 498.439483 87.708487 
L 498.599776 370.553787 
L 533.864153 370.553787 
L 534.024446 87.708487 
L 538.672932 87.708487 
L 538.833225 370.553787 
L 574.257895 370.553787 
L 574.418188 87.708487 
L 579.066674 87.708487 
L 579.226966 370.553787 
L 613.209003 370.553787 
L 613.369295 87.708487 
L 618.017782 87.708487 
L 618.178074 370.553787 
L 653.92333 370.553787 
L 654.083622 87.708487 
L 658.732108 87.708487 
L 658.892401 370.553787 
L 694.156778 370.553787 
L 694.317071 87.708487 
L 698.965557 87.708487 
L 699.12585 370.553787 
L 734.069642 370.553787 
L 734.229935 87.708487 
L 738.878421 87.708487 
L 739.038713 370.553787 
L 773.822213 370.553787 
L 773.982506 87.708487 
L 778.630992 87.708487 
L 778.791284 370.553787 
L 813.414491 370.553787 
L 813.574784 87.708487 
L 818.22327 87.708487 
L 818.383563 370.553787 
L 854.609696 370.553787 
L 854.769989 87.708487 
L 859.418475 87.708487 
L 859.578767 370.553787 
L 894.362267 370.553787 
L 894.52256 87.708487 
L 899.171046 87.708487 
L 899.331338 370.553787 
L 933.794253 370.553787 
L 933.954545 87.708487 
L 933.954545 87.708487 
" clip-path="url(#p22dd726d21)" style="fill: none; stroke: #ff7f0e; stroke-width: 1.5; stroke-linecap: square"/>
   </g>
   <g id="line2d_15">
    <path d="M 929.466352 370.553787 
" clip-path="url(#p22dd726d21)" style="fill: none; stroke: #000000; stroke-width: 1.5; stroke-linecap: square"/>
    <defs>
     <path id="mad024e0df2" d="M 0 1 
C 0.265203 1 0.51958 0.894634 0.707107 0.707107 
C 0.894634 0.51958 1 0.265203 1 0 
C 1 -0.265203 0.894634 -0.51958 0.707107 -0.707107 
C 0.51958 -0.894634 0.265203 -1 0 -1 
C -0.265203 -1 -0.51958 -0.894634 -0.707107 -0.707107 
C -0.894634 -0.51958 -1 -0.265203 -1 0 
C -1 0.265203 -0.894634 0.51958 -0.707107 0.707107 
C -0.51958 0.894634 -0.265203 1 0 1 
z
" style="stroke: #000000"/>
    </defs>
    <g clip-path="url(#p22dd726d21)">
     <use xlink:href="#mad024e0df2" x="173.045455" y="87.708487" style="stroke: #000000"/>
     <use xlink:href="#mad024e0df2" x="178.174819" y="370.553787" style="stroke: #000000"/>
     <use xlink:href="#mad024e0df2" x="183.14389" y="370.553787" style="stroke: #000000"/>
     <use xlink:href="#mad024e0df2" x="188.112961" y="87.708487" style="stroke: #000000"/>
     <use xlink:href="#mad024e0df2" x="193.082033" y="370.553787" style="stroke: #000000"/>
     <use xlink:href="#mad024e0df2" x="198.211397" y="370.553787" style="stroke: #000000"/>
     <use xlink:href="#mad024e0df2" x="203.180468" y="87.708487" style="stroke: #000000"/>
     <use xlink:href="#mad024e0df2" x="208.149539" y="370.553787" style="stroke: #000000"/>
     <use xlink:href="#mad024e0df2" x="213.118611" y="87.708487" style="stroke: #000000"/>
     <use xlink:href="#mad024e0df2" x="218.247975" y="370.553787" style="stroke: #000000"/>
     <use xlink:href="#mad024e0df2" x="223.217046" y="370.553787" style="stroke: #000000"/>
     <use xlink:href="#mad024e0df2" x="228.186118" y="87.708487" style="stroke: #000000"/>
     <use xlink:href="#mad024e0df2" x="233.155189" y="370.553787" style="stroke: #000000"/>
     <use xlink:href="#mad024e0df2" x="238.284553" y="370.553787" style="stroke: #000000"/>
     <use xlink:href="#mad024e0df2" x="243.253624" y="87.708487" style="stroke: #000000"/>
     <use xlink:href="#mad024e0df2" x="248.222696" y="370.553787" style="stroke: #000000"/>
     <use xlink:href="#mad024e0df2" x="253.191767" y="87.708487" style="stroke: #000000"/>
     <use xlink:href="#mad024e0df2" x="258.321131" y="370.553787" style="stroke: #000000"/>
     <use xlink:href="#mad024e0df2" x="263.290202" y="370.553787" style="stroke: #000000"/>
     <use xlink:href="#mad024e0df2" x="268.259274" y="87.708487" style="stroke: #000000"/>
     <use xlink:href="#mad024e0df2" x="273.228345" y="370.553787" style="stroke: #000000"/>
     <use xlink:href="#mad024e0df2" x="278.357709" y="370.553787" style="stroke: #000000"/>
     <use xlink:href="#mad024e0df2" x="283.326781" y="87.708487" style="stroke: #000000"/>
     <use xlink:href="#mad024e0df2" x="288.295852" y="370.553787" style="stroke: #000000"/>
     <use xlink:href="#mad024e0df2" x="293.264923" y="87.708487" style="stroke: #000000"/>
     <use xlink:href="#mad024e0df2" x="298.394287" y="370.553787" style="stroke: #000000"/>
     <use xlink:href="#mad024e0df2" x="303.363359" y="370.553787" style="stroke: #000000"/>
     <use xlink:href="#mad024e0df2" x="308.33243" y="87.708487" style="stroke: #000000"/>
     <use xlink:href="#mad024e0df2" x="313.301501" y="370.553787" style="stroke: #000000"/>
     <use xlink:href="#mad024e0df2" x="318.430865" y="370.553787" style="stroke: #000000"/>
     <use xlink:href="#mad024e0df2" x="323.399937" y="87.708487" style="stroke: #000000"/>
     <use xlink:href="#mad024e0df2" x="328.369008" y="370.553787" style="stroke: #000000"/>
     <use xlink:href="#mad024e0df2" x="333.33808" y="87.708487" style="stroke: #000000"/>
     <use xlink:href="#mad024e0df2" x="338.467444" y="370.553787" style="stroke: #000000"/>
     <use xlink:href="#mad024e0df2" x="343.436515" y="370.553787" style="stroke: #000000"/>
     <use xlink:href="#mad024e0df2" x="348.405586" y="87.708487" style="stroke: #000000"/>
     <use xlink:href="#mad024e0df2" x="353.374658" y="370.553787" style="stroke: #000000"/>
     <use xlink:href="#mad024e0df2" x="358.504022" y="370.553787" style="stroke: #000000"/>
     <use xlink:href="#mad024e0df2" x="363.473093" y="87.708487" style="stroke: #000000"/>
     <use xlink:href="#mad024e0df2" x="368.442164" y="370.553787" style="stroke: #000000"/>
     <use xlink:href="#mad024e0df2" x="373.411236" y="87.708487" style="stroke: #000000"/>
     <use xlink:href="#mad024e0df2" x="378.5406" y="370.553787" style="stroke: #000000"/>
     <use xlink:href="#mad024e0df2" x="383.509671" y="370.553787" style="stroke: #000000"/>
     <use xlink:href="#mad024e0df2" x="388.478743" y="87.708487" style="stroke: #000000"/>
     <use xlink:href="#mad024e0df2" x="393.447814" y="370.553787" style="stroke: #000000"/>
     <use xlink:href="#mad024e0df2" x="398.577178" y="370.553787" style="stroke: #000000"/>
     <use xlink:href="#mad024e0df2" x="403.546249" y="87.708487" style="stroke: #000000"/>
     <use xlink:href="#mad024e0df2" x="408.515321" y="370.553787" style="stroke: #000000"/>
     <use xlink:href="#mad024e0df2" x="413.484392" y="87.708487" style="stroke: #000000"/>
     <use xlink:href="#mad024e0df2" x="418.613756" y="370.553787" style="stroke: #000000"/>
     <use xlink:href="#mad024e0df2" x="423.582827" y="370.553787" style="stroke: #000000"/>
     <use xlink:href="#mad024e0df2" x="428.551899" y="87.708487" style="stroke: #000000"/>
     <use xlink:href="#mad024e0df2" x="433.52097" y="370.553787" style="stroke: #000000"/>
     <use xlink:href="#mad024e0df2" x="438.650334" y="370.553787" style="stroke: #000000"/>
     <use xlink:href="#mad024e0df2" x="443.619406" y="87.708487" style="stroke: #000000"/>
     <use xlink:href="#mad024e0df2" x="448.588477" y="370.553787" style="stroke: #000000"/>
     <use xlink:href="#mad024e0df2" x="453.557548" y="87.708487" style="stroke: #000000"/>
     <use xlink:href="#mad024e0df2" x="458.686912" y="370.553787" style="stroke: #000000"/>
     <use xlink:href="#mad024e0df2" x="463.655984" y="370.553787" style="stroke: #000000"/>
     <use xlink:href="#mad024e0df2" x="468.625055" y="87.708487" style="stroke: #000000"/>
     <use xlink:href="#mad024e0df2" x="473.594126" y="370.553787" style="stroke: #000000"/>
     <use xlink:href="#mad024e0df2" x="478.72349" y="370.553787" style="stroke: #000000"/>
     <use xlink:href="#mad024e0df2" x="483.692562" y="87.708487" style="stroke: #000000"/>
     <use xlink:href="#mad024e0df2" x="488.661633" y="370.553787" style="stroke: #000000"/>
     <use xlink:href="#mad024e0df2" x="493.630705" y="87.708487" style="stroke: #000000"/>
     <use xlink:href="#mad024e0df2" x="498.760069" y="370.553787" style="stroke: #000000"/>
     <use xlink:href="#mad024e0df2" x="503.72914" y="370.553787" style="stroke: #000000"/>
     <use xlink:href="#mad024e0df2" x="508.698211" y="87.708487" style="stroke: #000000"/>
     <use xlink:href="#mad024e0df2" x="513.667283" y="370.553787" style="stroke: #000000"/>
     <use xlink:href="#mad024e0df2" x="518.796647" y="370.553787" style="stroke: #000000"/>
     <use xlink:href="#mad024e0df2" x="523.765718" y="87.708487" style="stroke: #000000"/>
     <use xlink:href="#mad024e0df2" x="528.734789" y="370.553787" style="stroke: #000000"/>
     <use xlink:href="#mad024e0df2" x="533.703861" y="87.708487" style="stroke: #000000"/>
     <use xlink:href="#mad024e0df2" x="538.833225" y="370.553787" style="stroke: #000000"/>
     <use xlink:href="#mad024e0df2" x="543.802296" y="370.553787" style="stroke: #000000"/>
     <use xlink:href="#mad024e0df2" x="548.771368" y="87.708487" style="stroke: #000000"/>
     <use xlink:href="#mad024e0df2" x="553.740439" y="370.553787" style="stroke: #000000"/>
     <use xlink:href="#mad024e0df2" x="558.869803" y="370.553787" style="stroke: #000000"/>
     <use xlink:href="#mad024e0df2" x="563.838874" y="87.708487" style="stroke: #000000"/>
     <use xlink:href="#mad024e0df2" x="568.807946" y="370.553787" style="stroke: #000000"/>
     <use xlink:href="#mad024e0df2" x="573.777017" y="87.708487" style="stroke: #000000"/>
     <use xlink:href="#mad024e0df2" x="578.906381" y="370.553787" style="stroke: #000000"/>
     <use xlink:href="#mad024e0df2" x="583.875452" y="370.553787" style="stroke: #000000"/>
     <use xlink:href="#mad024e0df2" x="588.844524" y="87.708487" style="stroke: #000000"/>
     <use xlink:href="#mad024e0df2" x="593.813595" y="370.553787" style="stroke: #000000"/>
     <use xlink:href="#mad024e0df2" x="598.942959" y="370.553787" style="stroke: #000000"/>
     <use xlink:href="#mad024e0df2" x="603.912031" y="87.708487" style="stroke: #000000"/>
     <use xlink:href="#mad024e0df2" x="608.881102" y="370.553787" style="stroke: #000000"/>
     <use xlink:href="#mad024e0df2" x="613.850173" y="87.708487" style="stroke: #000000"/>
     <use xlink:href="#mad024e0df2" x="618.979537" y="370.553787" style="stroke: #000000"/>
     <use xlink:href="#mad024e0df2" x="623.948609" y="370.553787" style="stroke: #000000"/>
     <use xlink:href="#mad024e0df2" x="628.91768" y="87.708487" style="stroke: #000000"/>
     <use xlink:href="#mad024e0df2" x="633.886751" y="370.553787" style="stroke: #000000"/>
     <use xlink:href="#mad024e0df2" x="639.016115" y="370.553787" style="stroke: #000000"/>
     <use xlink:href="#mad024e0df2" x="643.985187" y="87.708487" style="stroke: #000000"/>
     <use xlink:href="#mad024e0df2" x="648.954258" y="370.553787" style="stroke: #000000"/>
     <use xlink:href="#mad024e0df2" x="653.92333" y="87.708487" style="stroke: #000000"/>
     <use xlink:href="#mad024e0df2" x="659.052694" y="370.553787" style="stroke: #000000"/>
     <use xlink:href="#mad024e0df2" x="664.021765" y="370.553787" style="stroke: #000000"/>
     <use xlink:href="#mad024e0df2" x="668.990836" y="87.708487" style="stroke: #000000"/>
     <use xlink:href="#mad024e0df2" x="673.959908" y="370.553787" style="stroke: #000000"/>
     <use xlink:href="#mad024e0df2" x="679.089272" y="370.553787" style="stroke: #000000"/>
     <use xlink:href="#mad024e0df2" x="684.058343" y="87.708487" style="stroke: #000000"/>
     <use xlink:href="#mad024e0df2" x="689.027414" y="370.553787" style="stroke: #000000"/>
     <use xlink:href="#mad024e0df2" x="693.996486" y="87.708487" style="stroke: #000000"/>
     <use xlink:href="#mad024e0df2" x="699.12585" y="370.553787" style="stroke: #000000"/>
     <use xlink:href="#mad024e0df2" x="704.094921" y="370.553787" style="stroke: #000000"/>
     <use xlink:href="#mad024e0df2" x="709.063993" y="87.708487" style="stroke: #000000"/>
     <use xlink:href="#mad024e0df2" x="714.033064" y="370.553787" style="stroke: #000000"/>
     <use xlink:href="#mad024e0df2" x="719.162428" y="370.553787" style="stroke: #000000"/>
     <use xlink:href="#mad024e0df2" x="724.131499" y="87.708487" style="stroke: #000000"/>
     <use xlink:href="#mad024e0df2" x="729.100571" y="370.553787" style="stroke: #000000"/>
     <use xlink:href="#mad024e0df2" x="734.069642" y="87.708487" style="stroke: #000000"/>
     <use xlink:href="#mad024e0df2" x="739.199006" y="370.553787" style="stroke: #000000"/>
     <use xlink:href="#mad024e0df2" x="744.168077" y="370.553787" style="stroke: #000000"/>
     <use xlink:href="#mad024e0df2" x="749.137149" y="87.708487" style="stroke: #000000"/>
     <use xlink:href="#mad024e0df2" x="754.10622" y="370.553787" style="stroke: #000000"/>
     <use xlink:href="#mad024e0df2" x="759.235584" y="370.553787" style="stroke: #000000"/>
     <use xlink:href="#mad024e0df2" x="764.204656" y="87.708487" style="stroke: #000000"/>
     <use xlink:href="#mad024e0df2" x="769.173727" y="370.553787" style="stroke: #000000"/>
     <use xlink:href="#mad024e0df2" x="774.142798" y="87.708487" style="stroke: #000000"/>
     <use xlink:href="#mad024e0df2" x="779.272162" y="370.553787" style="stroke: #000000"/>
     <use xlink:href="#mad024e0df2" x="784.241234" y="370.553787" style="stroke: #000000"/>
     <use xlink:href="#mad024e0df2" x="789.210305" y="87.708487" style="stroke: #000000"/>
     <use xlink:href="#mad024e0df2" x="794.179376" y="370.553787" style="stroke: #000000"/>
     <use xlink:href="#mad024e0df2" x="799.30874" y="370.553787" style="stroke: #000000"/>
     <use xlink:href="#mad024e0df2" x="804.277812" y="87.708487" style="stroke: #000000"/>
     <use xlink:href="#mad024e0df2" x="809.246883" y="370.553787" style="stroke: #000000"/>
     <use xlink:href="#mad024e0df2" x="814.215955" y="87.708487" style="stroke: #000000"/>
     <use xlink:href="#mad024e0df2" x="819.345319" y="370.553787" style="stroke: #000000"/>
     <use xlink:href="#mad024e0df2" x="824.31439" y="370.553787" style="stroke: #000000"/>
     <use xlink:href="#mad024e0df2" x="829.283461" y="87.708487" style="stroke: #000000"/>
     <use xlink:href="#mad024e0df2" x="834.252533" y="370.553787" style="stroke: #000000"/>
     <use xlink:href="#mad024e0df2" x="839.381897" y="370.553787" style="stroke: #000000"/>
     <use xlink:href="#mad024e0df2" x="844.350968" y="87.708487" style="stroke: #000000"/>
     <use xlink:href="#mad024e0df2" x="849.320039" y="370.553787" style="stroke: #000000"/>
     <use xlink:href="#mad024e0df2" x="854.289111" y="87.708487" style="stroke: #000000"/>
     <use xlink:href="#mad024e0df2" x="859.418475" y="370.553787" style="stroke: #000000"/>
     <use xlink:href="#mad024e0df2" x="864.387546" y="370.553787" style="stroke: #000000"/>
     <use xlink:href="#mad024e0df2" x="869.356618" y="87.708487" style="stroke: #000000"/>
     <use xlink:href="#mad024e0df2" x="874.325689" y="370.553787" style="stroke: #000000"/>
     <use xlink:href="#mad024e0df2" x="879.455053" y="370.553787" style="stroke: #000000"/>
     <use xlink:href="#mad024e0df2" x="884.424124" y="87.708487" style="stroke: #000000"/>
     <use xlink:href="#mad024e0df2" x="889.393196" y="370.553787" style="stroke: #000000"/>
     <use xlink:href="#mad024e0df2" x="894.362267" y="87.708487" style="stroke: #000000"/>
     <use xlink:href="#mad024e0df2" x="899.491631" y="370.553787" style="stroke: #000000"/>
     <use xlink:href="#mad024e0df2" x="904.460702" y="370.553787" style="stroke: #000000"/>
     <use xlink:href="#mad024e0df2" x="909.429774" y="87.708487" style="stroke: #000000"/>
     <use xlink:href="#mad024e0df2" x="914.398845" y="370.553787" style="stroke: #000000"/>
     <use xlink:href="#mad024e0df2" x="919.528209" y="370.553787" style="stroke: #000000"/>
     <use xlink:href="#mad024e0df2" x="924.497281" y="87.708487" style="stroke: #000000"/>
     <use xlink:href="#mad024e0df2" x="929.466352" y="370.553787" style="stroke: #000000"/>
    </g>
   </g>
   <g id="patch_3">
    <path d="M 135 448.56 
L 135 60.48 
" style="fill: none; stroke: #000000; stroke-width: 0.8; stroke-linejoin: miter; stroke-linecap: square"/>
   </g>
   <g id="patch_4">
    <path d="M 972 448.56 
L 972 60.48 
" style="fill: none; stroke: #000000; stroke-width: 0.8; stroke-linejoin: miter; stroke-linecap: square"/>
   </g>
   <g id="patch_5">
    <path d="M 135 448.56 
L 972 448.56 
" style="fill: none; stroke: #000000; stroke-width: 0.8; stroke-linejoin: miter; stroke-linecap: square"/>
   </g>
   <g id="patch_6">
    <path d="M 135 60.48 
L 972 60.48 
" style="fill: none; stroke: #000000; stroke-width: 0.8; stroke-linejoin: miter; stroke-linecap: square"/>
   </g>
   <g id="legend_1">
    <g id="patch_7">
     <path d="M 895.915625 278.315313 
L 965 278.315313 
Q 967 278.315313 967 276.315313 
L 967 232.724688 
Q 967 230.724688 965 230.724688 
L 895.915625 230.724688 
Q 893.915625 230.724688 893.915625 232.724688 
L 893.915625 276.315313 
Q 893.915625 278.315313 895.915625 278.315313 
z
" style="fill: #ffffff; opacity: 0.8; stroke: #cccccc; stroke-linejoin: miter"/>
    </g>
    <g id="line2d_16">
     <path d="M 897.915625 238.823125 
L 907.915625 238.823125 
L 917.915625 238.823125 
" style="fill: none; stroke: #1f77b4; stroke-width: 1.5; stroke-linecap: square"/>
    </g>
    <g id="text_14">
     <!-- nw_0 -->
     <g transform="translate(925.915625 242.323125) scale(0.1 -0.1)">
      <defs>
       <path id="DejaVuSans-6e" d="M 3513 2113 
L 3513 0 
L 2938 0 
L 2938 2094 
Q 2938 2591 2744 2837 
Q 2550 3084 2163 3084 
Q 1697 3084 1428 2787 
Q 1159 2491 1159 1978 
L 1159 0 
L 581 0 
L 581 3500 
L 1159 3500 
L 1159 2956 
Q 1366 3272 1645 3428 
Q 1925 3584 2291 3584 
Q 2894 3584 3203 3211 
Q 3513 2838 3513 2113 
z
" transform="scale(0.015625)"/>
       <path id="DejaVuSans-77" d="M 269 3500 
L 844 3500 
L 1563 769 
L 2278 3500 
L 2956 3500 
L 3675 769 
L 4391 3500 
L 4966 3500 
L 4050 0 
L 3372 0 
L 2619 2869 
L 1863 0 
L 1184 0 
L 269 3500 
z
" transform="scale(0.015625)"/>
       <path id="DejaVuSans-5f" d="M 3263 -1063 
L 3263 -1509 
L -63 -1509 
L -63 -1063 
L 3263 -1063 
z
" transform="scale(0.015625)"/>
      </defs>
      <use xlink:href="#DejaVuSans-6e"/>
      <use xlink:href="#DejaVuSans-77" x="63.378906"/>
      <use xlink:href="#DejaVuSans-5f" x="145.166016"/>
      <use xlink:href="#DejaVuSans-30" x="195.166016"/>
     </g>
    </g>
    <g id="line2d_17">
     <path d="M 897.915625 253.779375 
L 907.915625 253.779375 
L 917.915625 253.779375 
" style="fill: none; stroke: #ff7f0e; stroke-width: 1.5; stroke-linecap: square"/>
    </g>
    <g id="text_15">
     <!-- input_0 -->
     <g transform="translate(925.915625 257.279375) scale(0.1 -0.1)">
      <defs>
       <path id="DejaVuSans-69" d="M 603 3500 
L 1178 3500 
L 1178 0 
L 603 0 
L 603 3500 
z
M 603 4863 
L 1178 4863 
L 1178 4134 
L 603 4134 
L 603 4863 
z
" transform="scale(0.015625)"/>
       <path id="DejaVuSans-70" d="M 1159 525 
L 1159 -1331 
L 581 -1331 
L 581 3500 
L 1159 3500 
L 1159 2969 
Q 1341 3281 1617 3432 
Q 1894 3584 2278 3584 
Q 2916 3584 3314 3078 
Q 3713 2572 3713 1747 
Q 3713 922 3314 415 
Q 2916 -91 2278 -91 
Q 1894 -91 1617 61 
Q 1341 213 1159 525 
z
M 3116 1747 
Q 3116 2381 2855 2742 
Q 2594 3103 2138 3103 
Q 1681 3103 1420 2742 
Q 1159 2381 1159 1747 
Q 1159 1113 1420 752 
Q 1681 391 2138 391 
Q 2594 391 2855 752 
Q 3116 1113 3116 1747 
z
" transform="scale(0.015625)"/>
       <path id="DejaVuSans-75" d="M 544 1381 
L 544 3500 
L 1119 3500 
L 1119 1403 
Q 1119 906 1312 657 
Q 1506 409 1894 409 
Q 2359 409 2629 706 
Q 2900 1003 2900 1516 
L 2900 3500 
L 3475 3500 
L 3475 0 
L 2900 0 
L 2900 538 
Q 2691 219 2414 64 
Q 2138 -91 1772 -91 
Q 1169 -91 856 284 
Q 544 659 544 1381 
z
M 1991 3584 
L 1991 3584 
z
" transform="scale(0.015625)"/>
      </defs>
      <use xlink:href="#DejaVuSans-69"/>
      <use xlink:href="#DejaVuSans-6e" x="27.783203"/>
      <use xlink:href="#DejaVuSans-70" x="91.162109"/>
      <use xlink:href="#DejaVuSans-75" x="154.638672"/>
      <use xlink:href="#DejaVuSans-74" x="218.017578"/>
      <use xlink:href="#DejaVuSans-5f" x="257.226562"/>
      <use xlink:href="#DejaVuSans-30" x="307.226562"/>
     </g>
    </g>
    <g id="line2d_18">
     <path d="M 897.915625 268.735625 
L 907.915625 268.735625 
L 917.915625 268.735625 
" style="fill: none; stroke: #000000; stroke-width: 1.5; stroke-linecap: square"/>
     <g>
      <use xlink:href="#mad024e0df2" x="907.915625" y="268.735625" style="stroke: #000000"/>
     </g>
    </g>
    <g id="text_16">
     <!-- target -->
     <g transform="translate(925.915625 272.235625) scale(0.1 -0.1)">
      <defs>
       <path id="DejaVuSans-61" d="M 2194 1759 
Q 1497 1759 1228 1600 
Q 959 1441 959 1056 
Q 959 750 1161 570 
Q 1363 391 1709 391 
Q 2188 391 2477 730 
Q 2766 1069 2766 1631 
L 2766 1759 
L 2194 1759 
z
M 3341 1997 
L 3341 0 
L 2766 0 
L 2766 531 
Q 2569 213 2275 61 
Q 1981 -91 1556 -91 
Q 1019 -91 701 211 
Q 384 513 384 1019 
Q 384 1609 779 1909 
Q 1175 2209 1959 2209 
L 2766 2209 
L 2766 2266 
Q 2766 2663 2505 2880 
Q 2244 3097 1772 3097 
Q 1472 3097 1187 3025 
Q 903 2953 641 2809 
L 641 3341 
Q 956 3463 1253 3523 
Q 1550 3584 1831 3584 
Q 2591 3584 2966 3190 
Q 3341 2797 3341 1997 
z
" transform="scale(0.015625)"/>
       <path id="DejaVuSans-72" d="M 2631 2963 
Q 2534 3019 2420 3045 
Q 2306 3072 2169 3072 
Q 1681 3072 1420 2755 
Q 1159 2438 1159 1844 
L 1159 0 
L 581 0 
L 581 3500 
L 1159 3500 
L 1159 2956 
Q 1341 3275 1631 3429 
Q 1922 3584 2338 3584 
Q 2397 3584 2469 3576 
Q 2541 3569 2628 3553 
L 2631 2963 
z
" transform="scale(0.015625)"/>
       <path id="DejaVuSans-67" d="M 2906 1791 
Q 2906 2416 2648 2759 
Q 2391 3103 1925 3103 
Q 1463 3103 1205 2759 
Q 947 2416 947 1791 
Q 947 1169 1205 825 
Q 1463 481 1925 481 
Q 2391 481 2648 825 
Q 2906 1169 2906 1791 
z
M 3481 434 
Q 3481 -459 3084 -895 
Q 2688 -1331 1869 -1331 
Q 1566 -1331 1297 -1286 
Q 1028 -1241 775 -1147 
L 775 -588 
Q 1028 -725 1275 -790 
Q 1522 -856 1778 -856 
Q 2344 -856 2625 -561 
Q 2906 -266 2906 331 
L 2906 616 
Q 2728 306 2450 153 
Q 2172 0 1784 0 
Q 1141 0 747 490 
Q 353 981 353 1791 
Q 353 2603 747 3093 
Q 1141 3584 1784 3584 
Q 2172 3584 2450 3431 
Q 2728 3278 2906 2969 
L 2906 3500 
L 3481 3500 
L 3481 434 
z
" transform="scale(0.015625)"/>
       <path id="DejaVuSans-65" d="M 3597 1894 
L 3597 1613 
L 953 1613 
Q 991 1019 1311 708 
Q 1631 397 2203 397 
Q 2534 397 2845 478 
Q 3156 559 3463 722 
L 3463 178 
Q 3153 47 2828 -22 
Q 2503 -91 2169 -91 
Q 1331 -91 842 396 
Q 353 884 353 1716 
Q 353 2575 817 3079 
Q 1281 3584 2069 3584 
Q 2775 3584 3186 3129 
Q 3597 2675 3597 1894 
z
M 3022 2063 
Q 3016 2534 2758 2815 
Q 2500 3097 2075 3097 
Q 1594 3097 1305 2825 
Q 1016 2553 972 2059 
L 3022 2063 
z
" transform="scale(0.015625)"/>
      </defs>
      <use xlink:href="#DejaVuSans-74"/>
      <use xlink:href="#DejaVuSans-61" x="39.208984"/>
      <use xlink:href="#DejaVuSans-72" x="100.488281"/>
      <use xlink:href="#DejaVuSans-67" x="139.851562"/>
      <use xlink:href="#DejaVuSans-65" x="203.328125"/>
      <use xlink:href="#DejaVuSans-74" x="264.851562"/>
     </g>
    </g>
   </g>
  </g>
 </g>
 <defs>
  <clipPath id="p22dd726d21">
   <rect x="135" y="60.48" width="837" height="388.08"/>
  </clipPath>
 </defs>
</svg>
