<?xml version="1.0" encoding="utf-8" standalone="no"?>
<!DOCTYPE svg PUBLIC "-//W3C//DTD SVG 1.1//EN"
  "http://www.w3.org/Graphics/SVG/1.1/DTD/svg11.dtd">
<svg xmlns:xlink="http://www.w3.org/1999/xlink" width="1080pt" height="504pt" viewBox="0 0 1080 504" xmlns="http://www.w3.org/2000/svg" version="1.1">
 <metadata>
  <rdf:RDF xmlns:dc="http://purl.org/dc/elements/1.1/" xmlns:cc="http://creativecommons.org/ns#" xmlns:rdf="http://www.w3.org/1999/02/22-rdf-syntax-ns#">
   <cc:Work>
    <dc:type rdf:resource="http://purl.org/dc/dcmitype/StillImage"/>
    <dc:date>2024-05-09T11:13:34.314960</dc:date>
    <dc:format>image/svg+xml</dc:format>
    <dc:creator>
     <cc:Agent>
      <dc:title>Matplotlib v3.7.1, https://matplotlib.org/</dc:title>
     </cc:Agent>
    </dc:creator>
   </cc:Work>
  </rdf:RDF>
 </metadata>
 <defs>
  <style type="text/css">*{stroke-linejoin: round; stroke-linecap: butt}</style>
 </defs>
 <g id="figure_1">
  <g id="patch_1">
   <path d="M 0 504 
L 1080 504 
L 1080 0 
L 0 0 
z
" style="fill: #ffffff"/>
  </g>
  <g id="axes_1">
   <g id="patch_2">
    <path d="M 135 448.56 
L 972 448.56 
L 972 60.48 
L 135 60.48 
z
" style="fill: #ffffff"/>
   </g>
   <g id="matplotlib.axis_1">
    <g id="xtick_1">
     <g id="line2d_1">
      <defs>
       <path id="ma49039d204" d="M 0 0 
L 0 3.5 
" style="stroke: #000000; stroke-width: 0.8"/>
      </defs>
      <g>
       <use xlink:href="#ma49039d204" x="173.045455" y="448.56" style="stroke: #000000; stroke-width: 0.8"/>
      </g>
     </g>
     <g id="text_1">
      <!-- 0 -->
      <g transform="translate(169.864205 463.158437) scale(0.1 -0.1)">
       <defs>
        <path id="DejaVuSans-30" d="M 2034 4250 
Q 1547 4250 1301 3770 
Q 1056 3291 1056 2328 
Q 1056 1369 1301 889 
Q 1547 409 2034 409 
Q 2525 409 2770 889 
Q 3016 1369 3016 2328 
Q 3016 3291 2770 3770 
Q 2525 4250 2034 4250 
z
M 2034 4750 
Q 2819 4750 3233 4129 
Q 3647 3509 3647 2328 
Q 3647 1150 3233 529 
Q 2819 -91 2034 -91 
Q 1250 -91 836 529 
Q 422 1150 422 2328 
Q 422 3509 836 4129 
Q 1250 4750 2034 4750 
z
" transform="scale(0.015625)"/>
       </defs>
       <use xlink:href="#DejaVuSans-30"/>
      </g>
     </g>
    </g>
    <g id="xtick_2">
     <g id="line2d_2">
      <g>
       <use xlink:href="#ma49039d204" x="333.33808" y="448.56" style="stroke: #000000; stroke-width: 0.8"/>
      </g>
     </g>
     <g id="text_2">
      <!-- 1000 -->
      <g transform="translate(320.61308 463.158437) scale(0.1 -0.1)">
       <defs>
        <path id="DejaVuSans-31" d="M 794 531 
L 1825 531 
L 1825 4091 
L 703 3866 
L 703 4441 
L 1819 4666 
L 2450 4666 
L 2450 531 
L 3481 531 
L 3481 0 
L 794 0 
L 794 531 
z
" transform="scale(0.015625)"/>
       </defs>
       <use xlink:href="#DejaVuSans-31"/>
       <use xlink:href="#DejaVuSans-30" x="63.623047"/>
       <use xlink:href="#DejaVuSans-30" x="127.246094"/>
       <use xlink:href="#DejaVuSans-30" x="190.869141"/>
      </g>
     </g>
    </g>
    <g id="xtick_3">
     <g id="line2d_3">
      <g>
       <use xlink:href="#ma49039d204" x="493.630705" y="448.56" style="stroke: #000000; stroke-width: 0.8"/>
      </g>
     </g>
     <g id="text_3">
      <!-- 2000 -->
      <g transform="translate(480.905705 463.158437) scale(0.1 -0.1)">
       <defs>
        <path id="DejaVuSans-32" d="M 1228 531 
L 3431 531 
L 3431 0 
L 469 0 
L 469 531 
Q 828 903 1448 1529 
Q 2069 2156 2228 2338 
Q 2531 2678 2651 2914 
Q 2772 3150 2772 3378 
Q 2772 3750 2511 3984 
Q 2250 4219 1831 4219 
Q 1534 4219 1204 4116 
Q 875 4013 500 3803 
L 500 4441 
Q 881 4594 1212 4672 
Q 1544 4750 1819 4750 
Q 2544 4750 2975 4387 
Q 3406 4025 3406 3419 
Q 3406 3131 3298 2873 
Q 3191 2616 2906 2266 
Q 2828 2175 2409 1742 
Q 1991 1309 1228 531 
z
" transform="scale(0.015625)"/>
       </defs>
       <use xlink:href="#DejaVuSans-32"/>
       <use xlink:href="#DejaVuSans-30" x="63.623047"/>
       <use xlink:href="#DejaVuSans-30" x="127.246094"/>
       <use xlink:href="#DejaVuSans-30" x="190.869141"/>
      </g>
     </g>
    </g>
    <g id="xtick_4">
     <g id="line2d_4">
      <g>
       <use xlink:href="#ma49039d204" x="653.92333" y="448.56" style="stroke: #000000; stroke-width: 0.8"/>
      </g>
     </g>
     <g id="text_4">
      <!-- 3000 -->
      <g transform="translate(641.19833 463.158437) scale(0.1 -0.1)">
       <defs>
        <path id="DejaVuSans-33" d="M 2597 2516 
Q 3050 2419 3304 2112 
Q 3559 1806 3559 1356 
Q 3559 666 3084 287 
Q 2609 -91 1734 -91 
Q 1441 -91 1130 -33 
Q 819 25 488 141 
L 488 750 
Q 750 597 1062 519 
Q 1375 441 1716 441 
Q 2309 441 2620 675 
Q 2931 909 2931 1356 
Q 2931 1769 2642 2001 
Q 2353 2234 1838 2234 
L 1294 2234 
L 1294 2753 
L 1863 2753 
Q 2328 2753 2575 2939 
Q 2822 3125 2822 3475 
Q 2822 3834 2567 4026 
Q 2313 4219 1838 4219 
Q 1578 4219 1281 4162 
Q 984 4106 628 3988 
L 628 4550 
Q 988 4650 1302 4700 
Q 1616 4750 1894 4750 
Q 2613 4750 3031 4423 
Q 3450 4097 3450 3541 
Q 3450 3153 3228 2886 
Q 3006 2619 2597 2516 
z
" transform="scale(0.015625)"/>
       </defs>
       <use xlink:href="#DejaVuSans-33"/>
       <use xlink:href="#DejaVuSans-30" x="63.623047"/>
       <use xlink:href="#DejaVuSans-30" x="127.246094"/>
       <use xlink:href="#DejaVuSans-30" x="190.869141"/>
      </g>
     </g>
    </g>
    <g id="xtick_5">
     <g id="line2d_5">
      <g>
       <use xlink:href="#ma49039d204" x="814.215955" y="448.56" style="stroke: #000000; stroke-width: 0.8"/>
      </g>
     </g>
     <g id="text_5">
      <!-- 4000 -->
      <g transform="translate(801.490955 463.158437) scale(0.1 -0.1)">
       <defs>
        <path id="DejaVuSans-34" d="M 2419 4116 
L 825 1625 
L 2419 1625 
L 2419 4116 
z
M 2253 4666 
L 3047 4666 
L 3047 1625 
L 3713 1625 
L 3713 1100 
L 3047 1100 
L 3047 0 
L 2419 0 
L 2419 1100 
L 313 1100 
L 313 1709 
L 2253 4666 
z
" transform="scale(0.015625)"/>
       </defs>
       <use xlink:href="#DejaVuSans-34"/>
       <use xlink:href="#DejaVuSans-30" x="63.623047"/>
       <use xlink:href="#DejaVuSans-30" x="127.246094"/>
       <use xlink:href="#DejaVuSans-30" x="190.869141"/>
      </g>
     </g>
    </g>
    <g id="text_6">
     <!-- t -->
     <g transform="translate(551.539844 476.836563) scale(0.1 -0.1)">
      <defs>
       <path id="DejaVuSans-74" d="M 1172 4494 
L 1172 3500 
L 2356 3500 
L 2356 3053 
L 1172 3053 
L 1172 1153 
Q 1172 725 1289 603 
Q 1406 481 1766 481 
L 2356 481 
L 2356 0 
L 1766 0 
Q 1100 0 847 248 
Q 594 497 594 1153 
L 594 3053 
L 172 3053 
L 172 3500 
L 594 3500 
L 594 4494 
L 1172 4494 
z
" transform="scale(0.015625)"/>
      </defs>
      <use xlink:href="#DejaVuSans-74"/>
     </g>
    </g>
   </g>
   <g id="matplotlib.axis_2">
    <g id="ytick_1">
     <g id="line2d_6">
      <defs>
       <path id="m848396dc37" d="M 0 0 
L -3.5 0 
" style="stroke: #000000; stroke-width: 0.8"/>
      </defs>
      <g>
       <use xlink:href="#m848396dc37" x="135" y="425.757925" style="stroke: #000000; stroke-width: 0.8"/>
      </g>
     </g>
     <g id="text_7">
      <!-- −0.2 -->
      <g transform="translate(103.717187 429.557144) scale(0.1 -0.1)">
       <defs>
        <path id="DejaVuSans-2212" d="M 678 2272 
L 4684 2272 
L 4684 1741 
L 678 1741 
L 678 2272 
z
" transform="scale(0.015625)"/>
        <path id="DejaVuSans-2e" d="M 684 794 
L 1344 794 
L 1344 0 
L 684 0 
L 684 794 
z
" transform="scale(0.015625)"/>
       </defs>
       <use xlink:href="#DejaVuSans-2212"/>
       <use xlink:href="#DejaVuSans-30" x="83.789062"/>
       <use xlink:href="#DejaVuSans-2e" x="147.412109"/>
       <use xlink:href="#DejaVuSans-32" x="179.199219"/>
      </g>
     </g>
    </g>
    <g id="ytick_2">
     <g id="line2d_7">
      <g>
       <use xlink:href="#m848396dc37" x="135" y="378.785748" style="stroke: #000000; stroke-width: 0.8"/>
      </g>
     </g>
     <g id="text_8">
      <!-- 0.0 -->
      <g transform="translate(112.096875 382.584966) scale(0.1 -0.1)">
       <use xlink:href="#DejaVuSans-30"/>
       <use xlink:href="#DejaVuSans-2e" x="63.623047"/>
       <use xlink:href="#DejaVuSans-30" x="95.410156"/>
      </g>
     </g>
    </g>
    <g id="ytick_3">
     <g id="line2d_8">
      <g>
       <use xlink:href="#m848396dc37" x="135" y="331.81357" style="stroke: #000000; stroke-width: 0.8"/>
      </g>
     </g>
     <g id="text_9">
      <!-- 0.2 -->
      <g transform="translate(112.096875 335.612789) scale(0.1 -0.1)">
       <use xlink:href="#DejaVuSans-30"/>
       <use xlink:href="#DejaVuSans-2e" x="63.623047"/>
       <use xlink:href="#DejaVuSans-32" x="95.410156"/>
      </g>
     </g>
    </g>
    <g id="ytick_4">
     <g id="line2d_9">
      <g>
       <use xlink:href="#m848396dc37" x="135" y="284.841392" style="stroke: #000000; stroke-width: 0.8"/>
      </g>
     </g>
     <g id="text_10">
      <!-- 0.4 -->
      <g transform="translate(112.096875 288.640611) scale(0.1 -0.1)">
       <use xlink:href="#DejaVuSans-30"/>
       <use xlink:href="#DejaVuSans-2e" x="63.623047"/>
       <use xlink:href="#DejaVuSans-34" x="95.410156"/>
      </g>
     </g>
    </g>
    <g id="ytick_5">
     <g id="line2d_10">
      <g>
       <use xlink:href="#m848396dc37" x="135" y="237.869215" style="stroke: #000000; stroke-width: 0.8"/>
      </g>
     </g>
     <g id="text_11">
      <!-- 0.6 -->
      <g transform="translate(112.096875 241.668433) scale(0.1 -0.1)">
       <defs>
        <path id="DejaVuSans-36" d="M 2113 2584 
Q 1688 2584 1439 2293 
Q 1191 2003 1191 1497 
Q 1191 994 1439 701 
Q 1688 409 2113 409 
Q 2538 409 2786 701 
Q 3034 994 3034 1497 
Q 3034 2003 2786 2293 
Q 2538 2584 2113 2584 
z
M 3366 4563 
L 3366 3988 
Q 3128 4100 2886 4159 
Q 2644 4219 2406 4219 
Q 1781 4219 1451 3797 
Q 1122 3375 1075 2522 
Q 1259 2794 1537 2939 
Q 1816 3084 2150 3084 
Q 2853 3084 3261 2657 
Q 3669 2231 3669 1497 
Q 3669 778 3244 343 
Q 2819 -91 2113 -91 
Q 1303 -91 875 529 
Q 447 1150 447 2328 
Q 447 3434 972 4092 
Q 1497 4750 2381 4750 
Q 2619 4750 2861 4703 
Q 3103 4656 3366 4563 
z
" transform="scale(0.015625)"/>
       </defs>
       <use xlink:href="#DejaVuSans-30"/>
       <use xlink:href="#DejaVuSans-2e" x="63.623047"/>
       <use xlink:href="#DejaVuSans-36" x="95.410156"/>
      </g>
     </g>
    </g>
    <g id="ytick_6">
     <g id="line2d_11">
      <g>
       <use xlink:href="#m848396dc37" x="135" y="190.897037" style="stroke: #000000; stroke-width: 0.8"/>
      </g>
     </g>
     <g id="text_12">
      <!-- 0.8 -->
      <g transform="translate(112.096875 194.696256) scale(0.1 -0.1)">
       <defs>
        <path id="DejaVuSans-38" d="M 2034 2216 
Q 1584 2216 1326 1975 
Q 1069 1734 1069 1313 
Q 1069 891 1326 650 
Q 1584 409 2034 409 
Q 2484 409 2743 651 
Q 3003 894 3003 1313 
Q 3003 1734 2745 1975 
Q 2488 2216 2034 2216 
z
M 1403 2484 
Q 997 2584 770 2862 
Q 544 3141 544 3541 
Q 544 4100 942 4425 
Q 1341 4750 2034 4750 
Q 2731 4750 3128 4425 
Q 3525 4100 3525 3541 
Q 3525 3141 3298 2862 
Q 3072 2584 2669 2484 
Q 3125 2378 3379 2068 
Q 3634 1759 3634 1313 
Q 3634 634 3220 271 
Q 2806 -91 2034 -91 
Q 1263 -91 848 271 
Q 434 634 434 1313 
Q 434 1759 690 2068 
Q 947 2378 1403 2484 
z
M 1172 3481 
Q 1172 3119 1398 2916 
Q 1625 2713 2034 2713 
Q 2441 2713 2670 2916 
Q 2900 3119 2900 3481 
Q 2900 3844 2670 4047 
Q 2441 4250 2034 4250 
Q 1625 4250 1398 4047 
Q 1172 3844 1172 3481 
z
" transform="scale(0.015625)"/>
       </defs>
       <use xlink:href="#DejaVuSans-30"/>
       <use xlink:href="#DejaVuSans-2e" x="63.623047"/>
       <use xlink:href="#DejaVuSans-38" x="95.410156"/>
      </g>
     </g>
    </g>
    <g id="ytick_7">
     <g id="line2d_12">
      <g>
       <use xlink:href="#m848396dc37" x="135" y="143.924859" style="stroke: #000000; stroke-width: 0.8"/>
      </g>
     </g>
     <g id="text_13">
      <!-- 1.0 -->
      <g transform="translate(112.096875 147.724078) scale(0.1 -0.1)">
       <use xlink:href="#DejaVuSans-31"/>
       <use xlink:href="#DejaVuSans-2e" x="63.623047"/>
       <use xlink:href="#DejaVuSans-30" x="95.410156"/>
      </g>
     </g>
    </g>
    <g id="ytick_8">
     <g id="line2d_13">
      <g>
       <use xlink:href="#m848396dc37" x="135" y="96.952681" style="stroke: #000000; stroke-width: 0.8"/>
      </g>
     </g>
     <g id="text_14">
      <!-- 1.2 -->
      <g transform="translate(112.096875 100.7519) scale(0.1 -0.1)">
       <use xlink:href="#DejaVuSans-31"/>
       <use xlink:href="#DejaVuSans-2e" x="63.623047"/>
       <use xlink:href="#DejaVuSans-32" x="95.410156"/>
      </g>
     </g>
    </g>
   </g>
   <g id="line2d_14">
    <path d="M 173.045455 189.399583 
L 173.205747 176.860386 
L 173.526332 226.249584 
L 173.686625 224.834984 
L 174.00721 178.593944 
L 174.488088 99.344056 
L 174.808673 78.25307 
L 174.968966 78.157061 
L 175.129259 83.689562 
L 175.449844 106.634941 
L 177.05277 246.952348 
L 177.533648 267.969232 
L 177.693941 272.349066 
L 177.854233 324.718884 
L 178.014526 326.489054 
L 178.174819 324.114346 
L 178.335111 331.896799 
L 179.296867 430.800546 
L 179.45716 428.459546 
L 179.777745 410.832526 
L 181.220378 305.076395 
L 182.021842 268.607581 
L 182.502719 255.526034 
L 182.823305 252.707023 
L 182.983597 253.129774 
L 183.304183 257.155543 
L 183.78506 268.968846 
L 184.426231 291.180846 
L 185.227694 327.925307 
L 186.029157 365.227581 
L 186.349742 374.561276 
L 186.670328 378.630823 
L 186.83062 378.552514 
L 186.990913 377.092401 
L 187.311498 370.346104 
L 187.792376 352.515539 
L 189.395302 280.185122 
L 189.715888 273.742489 
L 189.87618 272.349381 
L 190.036473 272.221209 
L 190.196765 273.352567 
L 190.517351 279.226713 
L 190.998229 295.815878 
L 191.799692 335.831171 
L 192.761447 381.633557 
L 193.242325 395.756987 
L 193.562911 400.729929 
L 193.723203 401.869622 
L 193.883496 402.150654 
L 194.043788 401.623637 
L 194.364374 398.418148 
L 194.845252 389.526444 
L 196.287885 358.231112 
L 196.60847 354.627557 
L 196.929056 353.045446 
L 197.089348 353.022252 
L 197.249641 353.492462 
L 197.570226 355.794799 
L 198.051104 361.992031 
L 199.814323 389.209042 
L 200.134908 391.479586 
L 200.455493 392.441633 
L 200.615786 392.443771 
L 200.776079 392.146364 
L 201.096664 390.74625 
L 201.577542 387.095016 
L 203.180468 373.187785 
L 203.501053 371.862309 
L 203.821639 371.291487 
L 203.981931 371.284209 
L 204.142224 371.451694 
L 204.462809 372.258294 
L 204.943687 374.381369 
L 206.546613 382.524776 
L 206.867198 383.301745 
L 207.187784 383.633746 
L 207.508369 383.533467 
L 207.828954 383.049689 
L 208.309832 381.779309 
L 209.912758 376.855326 
L 210.393636 376.218063 
L 210.714221 376.119782 
L 211.034807 376.2656 
L 211.515685 376.857408 
L 212.47744 378.689058 
L 213.118611 379.760368 
L 213.278903 379.956745 
L 213.439196 190.382539 
L 213.599489 177.63443 
L 213.920074 226.658687 
L 214.080367 225.152039 
L 214.400952 178.960887 
L 214.88183 100.006002 
L 215.202415 78.993234 
L 215.362708 78.881254 
L 215.523 84.366125 
L 215.843585 107.146565 
L 217.446512 246.563675 
L 217.92739 267.523222 
L 218.087682 271.906781 
L 218.247975 324.25737 
L 218.408267 326.01344 
L 218.56856 323.639583 
L 218.728853 331.439699 
L 219.690608 430.709563 
L 219.850901 428.454379 
L 220.171486 410.997093 
L 221.61412 305.513748 
L 222.415583 268.822131 
L 222.896461 255.591534 
L 223.217046 252.694509 
L 223.377339 253.087055 
L 223.697924 257.070623 
L 224.178802 268.860976 
L 224.819972 291.09354 
L 225.621436 327.898221 
L 226.422899 365.254521 
L 226.743484 374.600554 
L 227.064069 378.675879 
L 227.224362 378.598111 
L 227.384654 377.137134 
L 227.70524 370.385563 
L 228.186118 352.541071 
L 229.789044 280.16592 
L 230.109629 273.72092 
L 230.269922 272.327622 
L 230.430214 272.199861 
L 230.590507 273.332169 
L 230.911092 279.209538 
L 231.39197 295.805643 
L 232.193433 335.833227 
L 233.155189 381.643709 
L 233.636067 395.767219 
L 233.956652 400.738951 
L 234.116945 401.877746 
L 234.277237 402.157734 
L 234.43753 401.629559 
L 234.758115 398.421559 
L 235.238993 389.526097 
L 236.681627 358.225146 
L 237.002212 354.621917 
L 237.322797 353.040608 
L 237.48309 353.017955 
L 237.643382 353.488777 
L 237.963968 355.792478 
L 238.444846 361.991841 
L 240.208064 389.212469 
L 240.52865 391.482666 
L 240.849235 392.444135 
L 241.009528 392.44592 
L 241.16982 392.14813 
L 241.490405 390.747202 
L 241.971283 387.094772 
L 243.57421 373.185849 
L 243.894795 371.860573 
L 244.21538 371.290084 
L 244.375673 371.28301 
L 244.535965 371.450716 
L 244.856551 372.257786 
L 245.337428 374.381554 
L 246.940355 382.525936 
L 247.26094 383.302787 
L 247.581525 383.634591 
L 247.90211 383.534062 
L 248.222696 383.050007 
L 248.703574 381.779218 
L 250.3065 376.854652 
L 250.787378 376.217508 
L 251.107963 376.119358 
L 251.428548 376.265331 
L 251.909426 376.857383 
L 252.871182 378.689394 
L 253.512352 379.76077 
L 253.99323 380.241562 
L 254.153523 190.617604 
L 254.313815 177.82938 
L 254.634401 226.793946 
L 254.794693 225.270605 
L 255.115279 179.057256 
L 255.596156 100.054368 
L 255.916742 79.001915 
L 256.077034 78.871459 
L 256.237327 84.33985 
L 256.557912 107.094894 
L 258.160838 246.54051 
L 258.641716 267.532172 
L 258.802009 271.92536 
L 258.962302 324.283491 
L 259.122594 326.049717 
L 259.282887 323.686763 
L 259.443179 331.497403 
L 260.404935 430.801266 
L 260.565228 428.545518 
L 260.885813 411.080792 
L 262.328447 305.50457 
L 263.12991 268.784719 
L 263.610788 255.555544 
L 263.931373 252.664668 
L 264.091666 253.061163 
L 264.412251 257.053314 
L 264.893129 268.855898 
L 265.534299 291.10003 
L 266.335762 327.909766 
L 267.137225 365.26238 
L 267.457811 374.605592 
L 267.778396 378.677965 
L 267.938689 378.598793 
L 268.098981 377.136513 
L 268.419566 370.38275 
L 268.900444 352.536237 
L 270.503371 280.163909 
L 270.823956 273.720242 
L 270.984248 272.327575 
L 271.144541 272.2004 
L 271.304834 273.333236 
L 271.625419 279.211452 
L 272.106297 295.808247 
L 272.90776 335.83554 
L 273.869516 381.644305 
L 274.350394 395.766933 
L 274.670979 400.738202 
L 274.831271 401.876816 
L 274.991564 402.15666 
L 275.151857 401.62838 
L 275.472442 398.420283 
L 275.95332 389.524934 
L 277.395953 358.225313 
L 277.716539 354.62237 
L 278.037124 353.041285 
L 278.197417 353.018716 
L 278.357709 353.489602 
L 278.678294 355.793368 
L 279.159172 361.992683 
L 280.922391 389.212355 
L 281.242976 391.482399 
L 281.563562 392.443755 
L 281.723854 392.445502 
L 281.884147 392.147685 
L 282.204732 390.746739 
L 282.68561 387.09436 
L 284.288536 373.185943 
L 284.609122 371.860753 
L 284.929707 371.290327 
L 285.089999 371.283274 
L 285.250292 371.450995 
L 285.570877 372.258073 
L 286.051755 374.381806 
L 287.654681 382.525885 
L 287.975267 383.302684 
L 288.295852 383.63445 
L 288.616437 383.533899 
L 288.937022 383.049839 
L 289.4179 381.779069 
L 291.020827 376.85468 
L 291.501704 376.217579 
L 291.82229 376.119446 
L 292.142875 376.265428 
L 292.623753 376.857474 
L 293.585509 378.689433 
L 293.745801 189.330475 
L 293.906094 176.779653 
L 294.226679 226.119304 
L 294.386972 224.696372 
L 294.707557 178.544627 
L 295.188435 99.598239 
L 295.50902 78.661769 
L 295.669313 78.607131 
L 295.829605 84.157043 
L 296.150191 107.075829 
L 297.592824 237.197525 
L 298.073702 262.032886 
L 298.394287 272.03992 
L 298.55458 324.377788 
L 298.714873 326.111792 
L 298.875165 323.707561 
L 299.035458 331.471328 
L 299.997214 430.494798 
L 300.157506 428.205373 
L 300.478091 410.6978 
L 301.920725 305.356704 
L 302.722188 268.835819 
L 303.203066 255.663447 
L 303.523651 252.781996 
L 303.683944 253.176252 
L 304.004529 257.153754 
L 304.485407 268.919953 
L 305.126578 291.112052 
L 305.928041 327.877686 
L 306.729504 365.221619 
L 307.050089 374.570283 
L 307.370674 378.651337 
L 307.530967 378.577213 
L 307.69126 377.120188 
L 308.011845 370.376857 
L 308.492723 352.543743 
L 310.095649 280.179469 
L 310.416234 273.73178 
L 310.576527 272.336823 
L 310.736819 272.207276 
L 310.897112 273.337733 
L 311.217697 279.211424 
L 311.698575 295.802735 
L 312.500038 335.825993 
L 313.461794 381.637832 
L 313.942672 395.76374 
L 314.263257 400.737253 
L 314.42355 401.876921 
L 314.583842 402.15774 
L 314.744135 401.630339 
L 315.06472 398.423653 
L 315.545598 389.529445 
L 316.988232 358.227174 
L 317.308817 354.62302 
L 317.629402 353.04076 
L 317.789695 353.01765 
L 317.949988 353.488041 
L 318.270573 355.790992 
L 318.751451 361.989599 
L 320.51467 389.211354 
L 320.835255 391.482117 
L 321.15584 392.444136 
L 321.316133 392.446176 
L 321.476425 392.14862 
L 321.797011 390.748083 
L 322.277888 387.096007 
L 323.880815 373.186395 
L 324.2014 371.860799 
L 324.521985 371.29 
L 324.682278 371.282783 
L 324.84257 371.450357 
L 325.163156 372.257208 
L 325.644034 374.380781 
L 327.24696 382.525595 
L 327.567545 383.302636 
L 327.88813 383.634626 
L 328.208716 383.534261 
L 328.529301 383.050337 
L 329.010179 381.779666 
L 330.613105 376.854856 
L 331.093983 376.217546 
L 331.414568 376.119292 
L 331.735153 376.265178 
L 332.216031 376.857141 
L 333.177787 378.689147 
L 333.818957 379.76062 
L 333.97925 190.220134 
L 334.139543 177.501223 
L 334.460128 226.570794 
L 334.620421 225.076452 
L 334.941006 178.89559 
L 335.421884 99.956416 
L 335.742469 78.962479 
L 335.902762 78.861112 
L 336.063054 84.356623 
L 336.383639 107.156686 
L 337.986566 246.589984 
L 338.467444 267.534059 
L 338.627736 271.912241 
L 338.788029 324.2594 
L 338.948321 326.010434 
L 339.108614 323.630606 
L 339.268907 331.424363 
L 340.230662 430.66278 
L 340.390955 428.404877 
L 340.71154 410.945661 
L 342.154174 305.503332 
L 342.955637 268.834964 
L 343.436515 255.608846 
L 343.7571 252.711219 
L 343.917393 253.102678 
L 344.237978 257.083055 
L 344.718856 268.867548 
L 345.360026 291.09308 
L 346.16149 327.892882 
L 346.962953 365.249286 
L 347.283538 374.596422 
L 347.604123 378.673153 
L 347.764416 378.596131 
L 347.924708 377.135895 
L 348.245294 370.385704 
L 348.726172 352.542805 
L 350.329098 280.167694 
L 350.649683 273.722049 
L 350.809976 272.328414 
L 350.970268 272.20032 
L 351.130561 273.332307 
L 351.451146 279.2091 
L 351.932024 295.804585 
L 352.733487 335.831893 
L 353.695243 381.643026 
L 354.176121 395.767014 
L 354.496706 400.739041 
L 354.656999 401.877967 
L 354.817291 402.158069 
L 354.977584 401.629993 
L 355.298169 398.422135 
L 355.779047 389.526743 
L 357.221681 358.225265 
L 357.542266 354.621869 
L 357.862851 353.04041 
L 358.023144 353.017692 
L 358.183436 353.488457 
L 358.504022 355.792074 
L 358.9849 361.991388 
L 360.748118 389.21241 
L 361.068704 391.482703 
L 361.389289 392.444253 
L 361.549582 392.446072 
L 361.709874 392.14831 
L 362.030459 390.747422 
L 362.511337 387.095004 
L 364.114264 373.185865 
L 364.434849 371.860535 
L 364.755434 371.290001 
L 364.915727 371.282909 
L 365.076019 371.450599 
L 365.396605 372.257648 
L 365.877482 374.38141 
L 367.480409 382.525924 
L 367.800994 383.302806 
L 368.121579 383.634638 
L 368.442164 383.534129 
L 368.76275 383.050087 
L 369.243628 381.779303 
L 370.846554 376.854661 
L 371.327432 376.217489 
L 371.648017 376.119325 
L 371.968602 376.265288 
L 372.44948 376.857334 
L 373.090651 378.053921 
L 373.250943 188.801542 
L 373.411236 176.354763 
L 373.731821 225.865733 
L 373.892114 224.48715 
L 374.212699 178.339236 
L 374.693577 99.343009 
L 375.014162 78.418538 
L 375.174455 78.386193 
L 375.334747 83.966622 
L 375.655333 106.961576 
L 377.097966 237.338788 
L 377.578844 262.174107 
L 377.899429 272.163439 
L 378.059722 324.50039 
L 378.220015 326.229386 
L 378.380307 323.814669 
L 378.5406 331.562937 
L 379.502356 430.437718 
L 379.662648 428.121449 
L 379.983233 410.566729 
L 381.425867 305.225907 
L 382.22733 268.802593 
L 382.708208 255.676403 
L 383.028793 252.814044 
L 383.189086 253.214217 
L 383.509671 257.197105 
L 383.990549 268.959121 
L 384.63172 291.133787 
L 385.433183 327.875469 
L 386.234646 365.20564 
L 386.555231 374.553022 
L 386.875816 378.635008 
L 387.036109 378.562031 
L 387.196402 377.106506 
L 387.516987 370.366916 
L 387.997865 352.540141 
L 389.600791 280.18748 
L 389.921376 273.739293 
L 390.081669 272.343804 
L 390.241961 272.213576 
L 390.402254 273.343234 
L 390.722839 279.215102 
L 391.203717 295.803552 
L 392.00518 335.823164 
L 392.966936 381.634035 
L 393.447814 395.760746 
L 393.768399 400.73508 
L 393.928692 401.875203 
L 394.088984 402.15649 
L 394.249277 401.629557 
L 394.569862 398.423764 
L 395.05074 389.530647 
L 396.493374 358.228919 
L 396.813959 354.624392 
L 397.134544 353.041666 
L 397.294837 353.018305 
L 397.45513 353.488441 
L 397.775715 355.790896 
L 398.256593 361.988869 
L 400.019812 389.210368 
L 400.340397 391.481386 
L 400.660982 392.443695 
L 400.821275 392.445884 
L 400.981567 392.148475 
L 401.302153 390.748215 
L 401.78303 387.096471 
L 403.385957 373.186923 
L 403.706542 371.861183 
L 404.027127 371.29022 
L 404.18742 371.282917 
L 404.347712 371.450408 
L 404.668298 372.257101 
L 405.149176 374.380485 
L 406.752102 382.525274 
L 407.072687 383.302401 
L 407.393272 383.634488 
L 407.713858 383.534223 
L 408.034443 383.050393 
L 408.515321 381.779835 
L 410.118247 376.855044 
L 410.599125 376.217657 
L 410.91971 376.119344 
L 411.240295 376.265173 
L 411.721173 376.857063 
L 412.682929 378.689004 
L 413.324099 379.760498 
L 413.644685 380.117839 
L 413.804977 190.515673 
L 413.96527 177.744357 
L 414.285855 226.733464 
L 414.446148 225.217105 
L 414.766733 179.015043 
L 415.247611 100.038728 
L 415.568196 79.006317 
L 415.728489 78.884585 
L 415.888781 84.360368 
L 416.209367 107.125742 
L 417.812293 246.54716 
L 418.293171 267.522679 
L 418.453463 271.911271 
L 418.613756 324.265544 
L 418.774049 326.026712 
L 418.934341 323.658516 
L 419.094634 331.46429 
L 420.05639 430.756032 
L 420.216682 428.501553 
L 420.537268 411.042385 
L 421.979901 305.514075 
L 422.781364 268.805235 
L 423.262242 255.573642 
L 423.582827 252.678898 
L 423.74312 253.073139 
L 424.063705 257.060665 
L 424.544583 268.85709 
L 425.185754 291.095889 
L 425.987217 327.90389 
L 426.78868 365.258907 
L 427.109265 374.603622 
L 427.42985 378.677484 
L 427.590143 378.598995 
L 427.750436 377.137332 
L 428.071021 370.384564 
L 428.551899 352.538863 
L 430.154825 280.164655 
L 430.47541 273.720318 
L 430.635703 272.327345 
L 430.795996 272.199892 
L 430.956288 273.332485 
L 431.276873 279.21033 
L 431.757751 295.806874 
L 432.559214 335.83445 
L 433.52097 381.644136 
L 434.001848 395.767189 
L 434.322433 400.738667 
L 434.482726 401.877359 
L 434.643019 402.157259 
L 434.803311 401.629017 
L 435.123896 398.420938 
L 435.604774 389.52549 
L 437.047408 358.225163 
L 437.367993 354.622087 
L 437.688578 353.040903 
L 437.848871 353.0183 
L 438.009164 353.489162 
L 438.329749 355.792912 
L 438.810627 361.992275 
L 440.573846 389.21245 
L 440.894431 391.482563 
L 441.215016 392.443967 
L 441.375309 392.445728 
L 441.535601 392.14792 
L 441.856187 390.746973 
L 442.337065 387.094556 
L 443.939991 373.185875 
L 444.260576 371.860646 
L 444.581161 371.290194 
L 444.741454 371.283133 
L 444.901747 371.450849 
L 445.222332 372.257929 
L 445.70321 374.381687 
L 447.306136 382.525923 
L 447.626721 383.302745 
L 447.947306 383.634528 
L 448.267892 383.533984 
L 448.588477 383.049924 
L 449.069355 381.77914 
L 450.672281 376.854659 
L 451.153159 376.217538 
L 451.473744 376.119398 
L 451.794329 376.265378 
L 452.275207 376.85743 
L 453.236963 378.689418 
L 453.557548 379.273597 
L 453.717841 189.816032 
L 453.878134 177.172182 
L 454.198719 226.361012 
L 454.359011 224.898492 
L 454.679597 178.735133 
L 455.160475 99.807235 
L 455.48106 78.846509 
L 455.641352 78.768135 
L 455.801645 84.288952 
L 456.12223 107.141176 
L 457.564864 237.079193 
L 458.045742 261.927055 
L 458.366327 271.954993 
L 458.52662 324.296453 
L 458.686912 326.038109 
L 458.847205 323.645904 
L 459.007498 331.425288 
L 459.969253 430.572741 
L 460.129546 428.303113 
L 460.450131 410.827823 
L 461.892765 305.450695 
L 462.694228 268.846168 
L 463.175106 255.639908 
L 463.495691 252.746594 
L 463.655984 253.137959 
L 463.976569 257.114756 
L 464.457447 268.888791 
L 465.098617 291.098349 
L 465.90008 327.883792 
L 466.701544 365.236564 
L 467.022129 374.585097 
L 467.342714 378.664318 
L 467.503007 378.588797 
L 467.663299 377.130151 
L 467.983885 370.383185 
L 468.464762 352.544565 
L 470.067689 280.17272 
L 470.388274 273.725917 
L 470.548567 272.331599 
L 470.708859 272.202787 
L 470.869152 273.334043 
L 471.189737 279.20942 
L 471.670615 295.80313 
L 472.472078 335.828994 
L 473.433834 381.640893 
L 473.914712 395.765862 
L 474.235297 400.738585 
L 474.39559 401.877843 
L 474.555882 402.158257 
L 474.716175 401.630467 
L 475.03676 398.423079 
L 475.517638 389.528101 
L 476.960272 358.225937 
L 477.280857 354.622171 
L 477.601442 353.040345 
L 477.761735 353.017455 
L 477.922027 353.48806 
L 478.242613 355.791407 
L 478.72349 361.990468 
L 480.486709 389.212045 
L 480.807295 391.48256 
L 481.12788 392.444319 
L 481.288172 392.446233 
L 481.448465 392.148557 
L 481.76905 390.747806 
L 482.249928 387.095502 
L 483.852854 373.186037 
L 484.17344 371.860582 
L 484.494025 371.28993 
L 484.654318 371.282784 
L 484.81461 371.450427 
L 485.135195 372.257399 
L 485.616073 374.381099 
L 487.219 382.525815 
L 487.539585 383.302772 
L 487.86017 383.634674 
L 488.180755 383.534226 
L 488.501341 383.05023 
L 488.982218 381.779483 
L 490.585145 376.854726 
L 491.066023 376.21749 
L 491.386608 376.119287 
L 491.707193 376.265219 
L 492.188071 376.857234 
L 493.149827 378.689269 
L 493.630705 379.531608 
L 493.790997 190.030223 
L 493.95129 177.346249 
L 494.271875 226.470961 
L 494.432168 224.991408 
L 494.752753 178.819903 
L 495.233631 99.889898 
L 495.554216 78.913464 
L 495.714509 78.823376 
L 495.874801 84.33094 
L 496.195387 107.155051 
L 497.798313 246.626193 
L 498.279191 267.55571 
L 498.439483 271.928276 
L 498.599776 324.272362 
L 498.760069 326.018552 
L 498.920361 323.632562 
L 499.080654 331.419363 
L 500.04241 430.616803 
L 500.202702 428.354079 
L 500.523287 410.888876 
L 501.965921 305.482311 
L 502.767384 268.84311 
L 503.248262 255.625113 
L 503.568847 252.728705 
L 503.72914 253.119757 
L 504.049725 257.097845 
L 504.530603 268.876851 
L 505.171774 291.094665 
L 505.973237 327.888027 
L 506.7747 365.243266 
L 507.095285 374.591245 
L 507.41587 378.669286 
L 507.576163 378.59302 
L 507.736456 377.133566 
L 508.057041 370.38492 
L 508.537919 352.543987 
L 510.140845 280.169971 
L 510.46143 273.72372 
L 510.621723 272.329742 
L 510.782015 272.201295 
L 510.942308 273.332929 
L 511.262893 279.209054 
L 511.743771 295.803737 
L 512.545234 335.830472 
L 513.50699 381.642084 
L 513.987868 395.766562 
L 514.308453 400.738921 
L 514.468746 401.878002 
L 514.629038 402.158247 
L 514.789331 401.6303 
L 515.109916 398.422646 
L 515.590794 389.527416 
L 517.033428 358.225529 
L 517.354013 354.621953 
L 517.674598 353.04032 
L 517.834891 353.017523 
L 517.995184 353.488215 
L 518.315769 355.791714 
L 518.796647 361.990927 
L 520.559866 389.212269 
L 520.880451 391.482668 
L 521.201036 392.444316 
L 521.361329 392.446178 
L 521.521621 392.148454 
L 521.842207 390.747625 
L 522.323084 387.09525 
L 523.926011 373.185928 
L 524.246596 371.860538 
L 524.567181 371.289949 
L 524.727474 371.282832 
L 524.887766 371.450502 
L 525.208352 372.257518 
L 525.68923 374.381257 
L 527.292156 382.525883 
L 527.612741 383.302801 
L 527.933326 383.634666 
L 528.253912 383.534184 
L 528.574497 383.050162 
L 529.055375 381.779392 
L 530.658301 376.854685 
L 531.139179 376.217483 
L 531.459764 376.119301 
L 531.780349 376.26525 
L 532.261227 376.857284 
L 533.222983 378.689319 
L 533.864153 379.760739 
L 534.024446 190.220232 
L 534.184739 177.501303 
L 534.505324 226.570847 
L 534.665617 225.076497 
L 534.986202 178.895629 
L 535.46708 99.956448 
L 535.787665 78.962501 
L 535.947958 78.861128 
L 536.10825 84.356632 
L 536.428835 107.156683 
L 538.031762 246.589967 
L 538.51264 267.53405 
L 538.672932 271.912235 
L 538.833225 324.259396 
L 538.993517 326.010433 
L 539.15381 323.630608 
L 539.314103 331.424369 
L 540.275858 430.662806 
L 540.436151 428.404905 
L 540.756736 410.945691 
L 542.19937 305.50334 
L 543.000833 268.834958 
L 543.481711 255.608837 
L 543.802296 252.71121 
L 543.962589 253.102669 
L 544.283174 257.083047 
L 544.764052 268.867544 
L 545.405222 291.09308 
L 546.206686 327.892885 
L 547.008149 365.249289 
L 547.328734 374.596424 
L 547.649319 378.673155 
L 547.809612 378.596133 
L 547.969904 377.135896 
L 548.29049 370.385704 
L 548.771368 352.542804 
L 550.374294 280.167693 
L 550.694879 273.722049 
L 550.855172 272.328414 
L 551.015464 272.200319 
L 551.175757 273.332306 
L 551.496342 279.2091 
L 551.97722 295.804585 
L 552.778683 335.831894 
L 553.740439 381.643026 
L 554.221317 395.767014 
L 554.541902 400.739041 
L 554.702195 401.877967 
L 554.862487 402.158069 
L 555.02278 401.629993 
L 555.343365 398.422135 
L 555.824243 389.526743 
L 557.266877 358.225265 
L 557.587462 354.621869 
L 557.908047 353.04041 
L 558.06834 353.017692 
L 558.228632 353.488458 
L 558.549218 355.792074 
L 559.030096 361.991388 
L 560.793314 389.21241 
L 561.1139 391.482703 
L 561.434485 392.444253 
L 561.594778 392.446072 
L 561.75507 392.14831 
L 562.075655 390.747422 
L 562.556533 387.095004 
L 564.15946 373.185865 
L 564.480045 371.860536 
L 564.80063 371.290001 
L 564.960923 371.282909 
L 565.121215 371.450599 
L 565.441801 372.257648 
L 565.922678 374.38141 
L 567.525605 382.525924 
L 567.84619 383.302806 
L 568.166775 383.634638 
L 568.48736 383.534129 
L 568.807946 383.050087 
L 569.288824 381.779303 
L 570.89175 376.854661 
L 571.372628 376.217489 
L 571.693213 376.119325 
L 572.013798 376.265288 
L 572.494676 376.857334 
L 573.456432 378.689361 
L 574.097602 379.760759 
L 574.257895 379.957136 
L 574.418188 190.382865 
L 574.57848 177.634692 
L 574.899065 226.658843 
L 575.059358 225.152168 
L 575.379943 178.961014 
L 575.860821 100.00616 
L 576.181406 78.993386 
L 576.341699 78.881393 
L 576.501992 84.366245 
L 576.822577 107.146639 
L 578.425503 246.563585 
L 578.906381 267.523138 
L 579.066674 271.906704 
L 579.226966 324.257293 
L 579.387259 326.013366 
L 579.547552 323.639515 
L 579.707844 331.43964 
L 580.6696 430.709596 
L 580.829893 428.454428 
L 581.150478 410.997172 
L 582.593111 305.51383 
L 583.394575 268.822153 
L 583.875452 255.591527 
L 584.196038 252.69449 
L 584.35633 253.087032 
L 584.676916 257.070597 
L 585.157793 268.860952 
L 585.798964 291.093526 
L 586.600427 327.898222 
L 587.40189 365.254531 
L 587.722475 374.600564 
L 588.043061 378.675889 
L 588.203353 378.598121 
L 588.363646 377.137142 
L 588.684231 370.385569 
L 589.165109 352.541073 
L 590.768035 280.165916 
L 591.088621 273.720915 
L 591.248913 272.327617 
L 591.409206 272.199857 
L 591.569498 273.332166 
L 591.890084 279.209536 
L 592.370962 295.805643 
L 593.172425 335.833228 
L 594.13418 381.643711 
L 594.615058 395.767221 
L 594.935644 400.738952 
L 595.095936 401.877747 
L 595.256229 402.157734 
L 595.416521 401.62956 
L 595.737107 398.421559 
L 596.217985 389.526096 
L 597.660618 358.225145 
L 597.981203 354.621916 
L 598.301789 353.040608 
L 598.462081 353.017955 
L 598.622374 353.488777 
L 598.942959 355.792478 
L 599.423837 361.991841 
L 601.187056 389.21247 
L 601.507641 391.482666 
L 601.828226 392.444135 
L 601.988519 392.44592 
L 602.148812 392.14813 
L 602.469397 390.747202 
L 602.950275 387.094771 
L 604.553201 373.185848 
L 604.873786 371.860572 
L 605.194372 371.290084 
L 605.354664 371.28301 
L 605.514957 371.450716 
L 605.835542 372.257786 
L 606.31642 374.381554 
L 607.919346 382.525937 
L 608.239931 383.302787 
L 608.560517 383.634591 
L 608.881102 383.534062 
L 609.201687 383.050007 
L 609.682565 381.779218 
L 611.285491 376.854652 
L 611.766369 376.217508 
L 612.086954 376.119358 
L 612.40754 376.265331 
L 612.888418 376.857383 
L 613.209003 377.422895 
L 613.369295 188.275699 
L 613.529588 175.935185 
L 613.850173 225.623755 
L 614.010466 224.290513 
L 614.331051 178.137316 
L 614.811929 99.061084 
L 615.132514 78.133804 
L 615.292807 78.12 
L 615.4531 83.72959 
L 615.773685 106.804061 
L 617.216318 237.491937 
L 617.697196 262.341023 
L 618.017782 272.317895 
L 618.178074 324.656982 
L 618.338367 326.384379 
L 618.498659 323.961888 
L 618.658952 331.696277 
L 619.620708 430.409258 
L 619.781 428.060911 
L 620.101586 410.447091 
L 621.544219 305.066861 
L 622.345682 268.74719 
L 622.82656 255.67638 
L 623.147146 252.839292 
L 623.307438 253.248173 
L 623.628023 257.241117 
L 624.108901 269.003402 
L 624.750072 291.162341 
L 625.551535 327.877776 
L 626.352998 365.190051 
L 626.673583 374.534705 
L 626.994169 378.616535 
L 627.154461 378.544317 
L 627.314754 377.090014 
L 627.635339 370.353924 
L 628.116217 352.533803 
L 629.719143 280.196121 
L 630.039728 273.747914 
L 630.200021 272.352064 
L 630.360314 272.221278 
L 630.520606 273.350215 
L 630.841192 279.220283 
L 631.322069 295.805636 
L 632.123533 335.820799 
L 633.085288 381.629787 
L 633.566166 395.757073 
L 633.886751 400.732183 
L 634.047044 401.872769 
L 634.207337 402.15455 
L 634.367629 401.628127 
L 634.688215 398.423349 
L 635.169092 389.531576 
L 636.611726 358.23106 
L 636.932311 354.626213 
L 637.252897 353.04303 
L 637.413189 353.019408 
L 637.573482 353.489269 
L 637.894067 355.791163 
L 638.374945 361.988364 
L 640.138164 389.209151 
L 640.458749 391.480405 
L 640.779334 392.443009 
L 640.939627 392.445359 
L 641.09992 392.148113 
L 641.420505 390.748173 
L 641.901383 387.096845 
L 643.504309 373.18759 
L 643.824894 371.861716 
L 644.145479 371.290583 
L 644.305772 371.283189 
L 644.466065 371.450586 
L 644.78665 372.257096 
L 645.267528 374.380241 
L 646.870454 382.524871 
L 647.191039 383.302078 
L 647.511625 383.634265 
L 647.83221 383.53411 
L 648.152795 383.050388 
L 648.633673 381.779971 
L 650.236599 376.85528 
L 650.717477 376.217818 
L 651.038062 376.119444 
L 651.358648 376.265209 
L 651.839525 376.857009 
L 652.801281 378.68885 
L 653.442452 379.760351 
L 653.92333 380.241317 
L 654.083622 190.617401 
L 654.243915 177.829211 
L 654.5645 226.793829 
L 654.724793 225.270503 
L 655.045378 179.057173 
L 655.526256 100.054327 
L 655.846841 79.001907 
L 656.007134 78.871467 
L 656.167426 84.339872 
L 656.488012 107.094938 
L 658.090938 246.54053 
L 658.571816 267.532165 
L 658.732108 271.925344 
L 658.892401 324.283469 
L 659.052694 326.049686 
L 659.212986 323.686723 
L 659.373279 331.497354 
L 660.335035 430.801188 
L 660.495327 428.54544 
L 660.815912 411.08072 
L 662.258546 305.504578 
L 663.060009 268.784751 
L 663.540887 255.555575 
L 663.861472 252.664694 
L 664.021765 253.061185 
L 664.34235 257.053329 
L 664.823228 268.855903 
L 665.464399 291.100024 
L 666.265862 327.909756 
L 667.067325 365.262373 
L 667.38791 374.605587 
L 667.708495 378.677963 
L 667.868788 378.598792 
L 668.029081 377.136513 
L 668.349666 370.382752 
L 668.830544 352.536241 
L 670.43347 280.163911 
L 670.754055 273.720243 
L 670.914348 272.327575 
L 671.07464 272.2004 
L 671.234933 273.333235 
L 671.555518 279.211451 
L 672.036396 295.808245 
L 672.837859 335.835538 
L 673.799615 381.644305 
L 674.280493 395.766933 
L 674.601078 400.738202 
L 674.761371 401.876817 
L 674.921663 402.156661 
L 675.081956 401.628381 
L 675.402541 398.420284 
L 675.883419 389.524935 
L 677.326053 358.225313 
L 677.646638 354.62237 
L 677.967223 353.041285 
L 678.127516 353.018716 
L 678.287809 353.489601 
L 678.608394 355.793367 
L 679.089272 361.992682 
L 680.852491 389.212355 
L 681.173076 391.482399 
L 681.493661 392.443756 
L 681.653954 392.445502 
L 681.814246 392.147685 
L 682.134832 390.746739 
L 682.615709 387.094361 
L 684.218636 373.185943 
L 684.539221 371.860753 
L 684.859806 371.290327 
L 685.020099 371.283274 
L 685.180391 371.450995 
L 685.500977 372.258073 
L 685.981855 374.381806 
L 687.584781 382.525885 
L 687.905366 383.302684 
L 688.225951 383.63445 
L 688.546537 383.533899 
L 688.867122 383.049839 
L 689.348 381.779069 
L 690.950926 376.85468 
L 691.431804 376.217579 
L 691.752389 376.119446 
L 692.072974 376.265428 
L 692.553852 376.857474 
L 693.515608 378.689433 
L 694.156778 379.760763 
L 694.317071 190.220252 
L 694.477364 177.501321 
L 694.797949 226.570864 
L 694.958242 225.076513 
L 695.278827 178.895638 
L 695.759705 99.956436 
L 696.08029 78.962478 
L 696.240583 78.861101 
L 696.400875 84.356603 
L 696.72146 107.156654 
L 698.324387 246.589975 
L 698.805265 267.534067 
L 698.965557 271.912254 
L 699.12585 324.259417 
L 699.286142 326.010457 
L 699.446435 323.630634 
L 699.606728 331.424397 
L 700.568483 430.66283 
L 700.728776 428.404925 
L 701.049361 410.945704 
L 702.491995 305.503324 
L 703.293458 268.834942 
L 703.774336 255.608827 
L 704.094921 252.711203 
L 704.255214 253.102665 
L 704.575799 257.083046 
L 705.056677 268.867546 
L 705.697847 291.093084 
L 706.499311 327.892888 
L 707.300774 365.24929 
L 707.621359 374.596424 
L 707.941944 378.673154 
L 708.102237 378.596131 
L 708.262529 377.135894 
L 708.583115 370.385702 
L 709.063993 352.542802 
L 710.666919 280.167693 
L 710.987504 273.722049 
L 711.147797 272.328414 
L 711.308089 272.20032 
L 711.468382 273.332307 
L 711.788967 279.209101 
L 712.269845 295.804586 
L 713.071308 335.831894 
L 714.033064 381.643026 
L 714.513942 395.767014 
L 714.834527 400.739041 
L 714.99482 401.877966 
L 715.155112 402.158069 
L 715.315405 401.629993 
L 715.63599 398.422134 
L 716.116868 389.526742 
L 717.559502 358.225265 
L 717.880087 354.621869 
L 718.200672 353.04041 
L 718.360965 353.017693 
L 718.521257 353.488458 
L 718.841843 355.792074 
L 719.322721 361.991389 
L 721.085939 389.21241 
L 721.406525 391.482703 
L 721.72711 392.444253 
L 721.887403 392.446072 
L 722.047695 392.14831 
L 722.36828 390.747421 
L 722.849158 387.095004 
L 724.452085 373.185865 
L 724.77267 371.860536 
L 725.093255 371.290002 
L 725.253548 371.282909 
L 725.41384 371.450599 
L 725.734426 372.257648 
L 726.215303 374.38141 
L 727.81823 382.525924 
L 728.138815 383.302806 
L 728.4594 383.634638 
L 728.779985 383.534129 
L 729.100571 383.050087 
L 729.581449 381.779303 
L 731.184375 376.854661 
L 731.665253 376.217489 
L 731.985838 376.119325 
L 732.306423 376.265288 
L 732.787301 376.857334 
L 733.749057 378.689361 
L 734.069642 379.273562 
L 734.229935 189.816003 
L 734.390227 177.172157 
L 734.710813 226.360994 
L 734.871105 224.898476 
L 735.19169 178.735121 
L 735.672568 99.807231 
L 735.993154 78.846512 
L 736.153446 78.76814 
L 736.313739 84.288959 
L 736.634324 107.141186 
L 738.076958 237.079197 
L 738.557836 261.927053 
L 738.878421 271.954988 
L 739.038713 324.296447 
L 739.199006 326.038102 
L 739.359299 323.645895 
L 739.519591 331.425277 
L 740.481347 430.572728 
L 740.64164 428.3031 
L 740.962225 410.827811 
L 742.404859 305.450698 
L 743.206322 268.846174 
L 743.6872 255.639914 
L 744.007785 252.746598 
L 744.168077 253.137963 
L 744.488663 257.114758 
L 744.969541 268.888791 
L 745.610711 291.098347 
L 746.412174 327.88379 
L 747.213637 365.236563 
L 747.534223 374.585097 
L 747.854808 378.664318 
L 748.0151 378.588797 
L 748.175393 377.130151 
L 748.495978 370.383186 
L 748.976856 352.544565 
L 750.579782 280.17272 
L 750.900368 273.725917 
L 751.06066 272.331599 
L 751.220953 272.202786 
L 751.381246 273.334043 
L 751.701831 279.209419 
L 752.182709 295.803129 
L 752.984172 335.828994 
L 753.945928 381.640893 
L 754.426805 395.765862 
L 754.747391 400.738585 
L 754.907683 401.877843 
L 755.067976 402.158257 
L 755.228269 401.630467 
L 755.548854 398.423079 
L 756.029732 389.528101 
L 757.472365 358.225937 
L 757.792951 354.622171 
L 758.113536 353.040345 
L 758.273828 353.017455 
L 758.434121 353.48806 
L 758.754706 355.791407 
L 759.235584 361.990468 
L 760.998803 389.212045 
L 761.319388 391.48256 
L 761.639974 392.444319 
L 761.800266 392.446233 
L 761.960559 392.148557 
L 762.281144 390.747806 
L 762.762022 387.095502 
L 764.364948 373.186037 
L 764.685533 371.860582 
L 765.006119 371.28993 
L 765.166411 371.282784 
L 765.326704 371.450427 
L 765.647289 372.257399 
L 766.128167 374.381099 
L 767.731093 382.525815 
L 768.051679 383.302772 
L 768.372264 383.634674 
L 768.692849 383.534226 
L 769.013434 383.05023 
L 769.494312 381.779483 
L 771.097238 376.854726 
L 771.578116 376.21749 
L 771.898702 376.119287 
L 772.219287 376.265219 
L 772.700165 376.857234 
L 773.66192 378.689269 
L 773.822213 378.990916 
L 773.982506 189.581157 
L 774.142798 176.981984 
L 774.463384 226.242923 
L 774.623676 224.799403 
L 774.944261 178.642725 
L 775.425139 99.709475 
L 775.745725 78.762231 
L 775.906017 78.695772 
L 776.06631 84.230808 
L 776.386895 107.11479 
L 777.829529 237.134941 
L 778.310407 261.975107 
L 778.630992 271.992317 
L 778.791284 324.331676 
L 778.951577 326.069226 
L 779.11187 323.670886 
L 779.272162 331.442531 
L 780.233918 430.531659 
L 780.394211 428.253093 
L 780.714796 410.76364 
L 782.15743 305.408672 
L 782.958893 268.843825 
L 783.439771 255.652835 
L 783.760356 252.764511 
L 783.920648 253.156939 
L 784.241234 257.133517 
L 784.722112 268.903233 
L 785.363282 291.104152 
L 786.164745 327.8803 
L 786.966208 365.229297 
L 787.286794 374.578067 
L 787.607379 378.658304 
L 787.767671 378.583504 
L 787.927964 377.125675 
L 788.248549 370.380494 
L 788.729427 352.544495 
L 790.332353 280.175905 
L 790.652939 273.728616 
L 790.813231 272.333969 
L 790.973524 272.204787 
L 791.133817 273.335649 
L 791.454402 279.210208 
L 791.93528 295.802787 
L 792.736743 335.827489 
L 793.698499 381.639468 
L 794.179376 395.764918 
L 794.499962 400.738028 
L 794.660254 401.877483 
L 794.820547 402.15809 
L 794.98084 401.630483 
L 795.301425 398.423419 
L 795.782303 389.528783 
L 797.224936 358.226487 
L 797.545522 354.622528 
L 797.866107 353.04049 
L 798.026399 353.017496 
L 798.186692 353.488 
L 798.507277 355.791163 
L 798.988155 361.990021 
L 800.751374 389.211739 
L 801.071959 391.482376 
L 801.392545 392.44426 
L 801.552837 392.446234 
L 801.71313 392.148614 
L 802.033715 390.747961 
L 802.514593 387.095757 
L 804.117519 373.186193 
L 804.438104 371.860669 
L 804.75869 371.289947 
L 804.918982 371.282767 
L 805.079275 371.450378 
L 805.39986 372.257294 
L 805.880738 374.380939 
L 807.483664 382.525718 
L 807.80425 383.302717 
L 808.124835 383.634661 
L 808.44542 383.534252 
L 808.766005 383.050289 
L 809.246883 381.779576 
L 810.849809 376.854783 
L 811.330687 376.217511 
L 811.651273 376.119283 
L 811.971858 376.265194 
L 812.452736 376.857186 
L 813.414491 378.689212 
L 813.574784 189.330291 
L 813.735077 176.779503 
L 814.055662 226.119208 
L 814.215955 224.696291 
L 814.53654 178.544554 
L 815.017418 99.598172 
L 815.338003 78.661717 
L 815.498296 78.607089 
L 815.658588 84.157013 
L 815.979173 107.075823 
L 817.421807 237.197565 
L 817.902685 262.032915 
L 818.22327 272.039939 
L 818.383563 324.377805 
L 818.543855 326.111804 
L 818.704148 323.707568 
L 818.864441 331.471328 
L 819.826196 430.494757 
L 819.986489 428.205326 
L 820.307074 410.697746 
L 821.749708 305.35668 
L 822.551171 268.835825 
L 823.032049 255.663461 
L 823.352634 252.782013 
L 823.512927 253.176268 
L 823.833512 257.153769 
L 824.31439 268.919963 
L 824.95556 291.112055 
L 825.757024 327.877682 
L 826.558487 365.221613 
L 826.879072 374.570278 
L 827.199657 378.651333 
L 827.35995 378.57721 
L 827.520242 377.120186 
L 827.840828 370.376856 
L 828.321706 352.543744 
L 829.924632 280.179471 
L 830.245217 273.731782 
L 830.40551 272.336824 
L 830.565802 272.207277 
L 830.726095 273.337734 
L 831.04668 279.211424 
L 831.527558 295.802734 
L 832.329021 335.825991 
L 833.290777 381.637831 
L 833.771655 395.763739 
L 834.09224 400.737253 
L 834.252533 401.876921 
L 834.412825 402.15774 
L 834.573118 401.630339 
L 834.893703 398.423654 
L 835.374581 389.529446 
L 836.817215 358.227174 
L 837.1378 354.62302 
L 837.458385 353.04076 
L 837.618678 353.01765 
L 837.77897 353.488041 
L 838.099556 355.790992 
L 838.580434 361.989599 
L 840.343652 389.211354 
L 840.664238 391.482117 
L 840.984823 392.444136 
L 841.145116 392.446176 
L 841.305408 392.14862 
L 841.625993 390.748083 
L 842.106871 387.096007 
L 843.709798 373.186395 
L 844.030383 371.860799 
L 844.350968 371.29 
L 844.511261 371.282783 
L 844.671553 371.450357 
L 844.992139 372.257208 
L 845.473016 374.38078 
L 847.075943 382.525595 
L 847.396528 383.302636 
L 847.717113 383.634626 
L 848.037698 383.534261 
L 848.358284 383.050337 
L 848.839162 381.779667 
L 850.442088 376.854856 
L 850.922966 376.217546 
L 851.243551 376.119292 
L 851.564136 376.265178 
L 852.045014 376.85714 
L 853.00677 378.689147 
L 853.64794 379.76062 
L 854.128818 380.241509 
L 854.609696 380.383389 
L 854.769989 190.732153 
L 854.930281 177.930922 
L 855.250867 226.884569 
L 855.411159 225.356587 
L 855.731744 179.109982 
L 856.212622 100.005786 
L 856.533208 78.895602 
L 856.6935 78.7465 
L 856.853793 84.203509 
L 857.174378 106.95541 
L 858.777304 246.575087 
L 859.258182 267.612407 
L 859.418475 272.015993 
L 859.578767 324.385752 
L 859.73906 326.165771 
L 859.899353 323.81511 
L 860.059645 331.634962 
L 861.021401 430.92 
L 861.181694 428.650122 
L 861.502279 411.150246 
L 862.944913 305.425387 
L 863.746376 268.708398 
L 864.227254 255.504267 
L 864.547839 252.632654 
L 864.708131 253.038392 
L 865.028717 257.046948 
L 865.509595 268.867068 
L 866.150765 291.12114 
L 866.952228 327.927169 
L 867.753691 365.267095 
L 868.074277 374.605154 
L 868.394862 378.673257 
L 868.555154 378.592402 
L 868.715447 377.128773 
L 869.036032 370.373344 
L 869.51691 352.526719 
L 871.119836 280.164636 
L 871.440422 273.72286 
L 871.600714 272.330942 
L 871.761007 272.204369 
L 871.9213 273.337657 
L 872.241885 279.216331 
L 872.722763 295.812821 
L 873.524226 335.837852 
L 874.485982 381.643388 
L 874.966859 395.764998 
L 875.287445 400.73593 
L 875.447737 401.87448 
L 875.60803 402.154324 
L 875.768323 401.626106 
L 876.088908 398.418293 
L 876.569786 389.523664 
L 878.012419 358.22644 
L 878.333005 354.623773 
L 878.65359 353.042817 
L 878.813882 353.020258 
L 878.974175 353.49112 
L 879.29476 355.794747 
L 879.775638 361.993672 
L 881.538857 389.211687 
L 881.859442 391.481611 
L 882.180028 392.44293 
L 882.34032 392.444688 
L 882.500613 392.1469 
L 882.821198 390.746061 
L 883.302076 387.09393 
L 884.905002 373.186356 
L 885.225587 371.861232 
L 885.546173 371.290824 
L 885.706465 371.283763 
L 885.866758 371.451466 
L 886.187343 372.258479 
L 886.668221 374.382065 
L 888.271147 382.525644 
L 888.591733 383.302403 
L 888.912318 383.634158 
L 889.232903 383.533621 
L 889.553488 383.049598 
L 890.034366 381.778914 
L 891.637292 376.854818 
L 892.11817 376.217746 
L 892.438756 376.119613 
L 892.759341 376.26558 
L 893.240219 376.857583 
L 894.201974 378.689425 
L 894.362267 378.991028 
L 894.52256 189.581249 
L 894.682852 176.982062 
L 895.003438 226.242981 
L 895.16373 224.799456 
L 895.484315 178.642764 
L 895.965193 99.709479 
L 896.285779 78.762213 
L 896.446071 78.695745 
L 896.606364 84.230774 
L 896.926949 107.114748 
L 898.369583 237.134934 
L 898.850461 261.975119 
L 899.171046 271.992339 
L 899.331338 324.331703 
L 899.491631 326.069259 
L 899.651924 323.670925 
L 899.812216 331.442575 
L 900.773972 430.531709 
L 900.934265 428.253141 
L 901.25485 410.763678 
L 902.697484 305.408654 
L 903.498947 268.8438 
L 903.979825 255.652814 
L 904.30041 252.764496 
L 904.460702 253.156927 
L 904.781288 257.13351 
L 905.262166 268.903234 
L 905.903336 291.104158 
L 906.704799 327.880307 
L 907.506262 365.229301 
L 907.826848 374.578068 
L 908.147433 378.658304 
L 908.307725 378.583503 
L 908.468018 377.125673 
L 908.788603 370.380491 
L 909.269481 352.544492 
L 910.872407 280.175905 
L 911.192993 273.728617 
L 911.353285 272.33397 
L 911.513578 272.204788 
L 911.673871 273.33565 
L 911.994456 279.210209 
L 912.475334 295.802789 
L 913.276797 335.82749 
L 914.238553 381.639468 
L 914.71943 395.764918 
L 915.040016 400.738027 
L 915.200308 401.877482 
L 915.360601 402.158089 
L 915.520894 401.630482 
L 915.841479 398.423419 
L 916.322357 389.528782 
L 917.76499 358.226487 
L 918.085576 354.622528 
L 918.406161 353.040491 
L 918.566453 353.017496 
L 918.726746 353.488 
L 919.047331 355.791163 
L 919.528209 361.990022 
L 921.291428 389.211739 
L 921.612013 391.482376 
L 921.932599 392.44426 
L 922.092891 392.446233 
L 922.253184 392.148613 
L 922.573769 390.747961 
L 923.054647 387.095757 
L 924.657573 373.186193 
L 924.978158 371.86067 
L 925.298744 371.289947 
L 925.459036 371.282767 
L 925.619329 371.450378 
L 925.939914 372.257295 
L 926.420792 374.380939 
L 928.023718 382.525718 
L 928.344304 383.302717 
L 928.664889 383.634661 
L 928.985474 383.534252 
L 929.306059 383.050289 
L 929.786937 381.779576 
L 931.389863 376.854783 
L 931.870741 376.217511 
L 932.191327 376.119284 
L 932.511912 376.265194 
L 932.99279 376.857186 
L 933.794253 378.374599 
L 933.954545 189.068521 
L 933.954545 189.068521 
" clip-path="url(#p8ba37537fd)" style="fill: none; stroke: #1f77b4; stroke-width: 1.5; stroke-linecap: square"/>
   </g>
   <g id="line2d_15">
    <path d="M 173.045455 143.924859 
L 177.693941 143.924859 
L 177.854233 378.785748 
L 213.278903 378.785748 
L 213.439196 143.924859 
L 218.087682 143.924859 
L 218.247975 378.785748 
L 253.99323 378.785748 
L 254.153523 143.924859 
L 258.802009 143.924859 
L 258.962302 378.785748 
L 293.585509 378.785748 
L 293.745801 143.924859 
L 298.394287 143.924859 
L 298.55458 378.785748 
L 333.818957 378.785748 
L 333.97925 143.924859 
L 338.627736 143.924859 
L 338.788029 378.785748 
L 373.090651 378.785748 
L 373.250943 143.924859 
L 377.899429 143.924859 
L 378.059722 378.785748 
L 413.644685 378.785748 
L 413.804977 143.924859 
L 418.453463 143.924859 
L 418.613756 378.785748 
L 453.557548 378.785748 
L 453.717841 143.924859 
L 458.366327 143.924859 
L 458.52662 378.785748 
L 493.630705 378.785748 
L 493.790997 143.924859 
L 498.439483 143.924859 
L 498.599776 378.785748 
L 533.864153 378.785748 
L 534.024446 143.924859 
L 538.672932 143.924859 
L 538.833225 378.785748 
L 574.257895 378.785748 
L 574.418188 143.924859 
L 579.066674 143.924859 
L 579.226966 378.785748 
L 613.209003 378.785748 
L 613.369295 143.924859 
L 618.017782 143.924859 
L 618.178074 378.785748 
L 653.92333 378.785748 
L 654.083622 143.924859 
L 658.732108 143.924859 
L 658.892401 378.785748 
L 694.156778 378.785748 
L 694.317071 143.924859 
L 698.965557 143.924859 
L 699.12585 378.785748 
L 734.069642 378.785748 
L 734.229935 143.924859 
L 738.878421 143.924859 
L 739.038713 378.785748 
L 773.822213 378.785748 
L 773.982506 143.924859 
L 778.630992 143.924859 
L 778.791284 378.785748 
L 813.414491 378.785748 
L 813.574784 143.924859 
L 818.22327 143.924859 
L 818.383563 378.785748 
L 854.609696 378.785748 
L 854.769989 143.924859 
L 859.418475 143.924859 
L 859.578767 378.785748 
L 894.362267 378.785748 
L 894.52256 143.924859 
L 899.171046 143.924859 
L 899.331338 378.785748 
L 933.794253 378.785748 
L 933.954545 143.924859 
L 933.954545 143.924859 
" clip-path="url(#p8ba37537fd)" style="fill: none; stroke: #ff7f0e; stroke-width: 1.5; stroke-linecap: square"/>
   </g>
   <g id="line2d_16">
    <path d="M 929.466352 378.785748 
" clip-path="url(#p8ba37537fd)" style="fill: none; stroke: #000000; stroke-width: 1.5; stroke-linecap: square"/>
    <defs>
     <path id="m6ef51ae18a" d="M 0 1 
C 0.265203 1 0.51958 0.894634 0.707107 0.707107 
C 0.894634 0.51958 1 0.265203 1 0 
C 1 -0.265203 0.894634 -0.51958 0.707107 -0.707107 
C 0.51958 -0.894634 0.265203 -1 0 -1 
C -0.265203 -1 -0.51958 -0.894634 -0.707107 -0.707107 
C -0.894634 -0.51958 -1 -0.265203 -1 0 
C -1 0.265203 -0.894634 0.51958 -0.707107 0.707107 
C -0.51958 0.894634 -0.265203 1 0 1 
z
" style="stroke: #000000"/>
    </defs>
    <g clip-path="url(#p8ba37537fd)">
     <use xlink:href="#m6ef51ae18a" x="173.045455" y="143.924859" style="stroke: #000000"/>
     <use xlink:href="#m6ef51ae18a" x="178.174819" y="378.785748" style="stroke: #000000"/>
     <use xlink:href="#m6ef51ae18a" x="183.14389" y="378.785748" style="stroke: #000000"/>
     <use xlink:href="#m6ef51ae18a" x="188.112961" y="143.924859" style="stroke: #000000"/>
     <use xlink:href="#m6ef51ae18a" x="193.082033" y="378.785748" style="stroke: #000000"/>
     <use xlink:href="#m6ef51ae18a" x="198.211397" y="378.785748" style="stroke: #000000"/>
     <use xlink:href="#m6ef51ae18a" x="203.180468" y="143.924859" style="stroke: #000000"/>
     <use xlink:href="#m6ef51ae18a" x="208.149539" y="378.785748" style="stroke: #000000"/>
     <use xlink:href="#m6ef51ae18a" x="213.118611" y="143.924859" style="stroke: #000000"/>
     <use xlink:href="#m6ef51ae18a" x="218.247975" y="378.785748" style="stroke: #000000"/>
     <use xlink:href="#m6ef51ae18a" x="223.217046" y="378.785748" style="stroke: #000000"/>
     <use xlink:href="#m6ef51ae18a" x="228.186118" y="143.924859" style="stroke: #000000"/>
     <use xlink:href="#m6ef51ae18a" x="233.155189" y="378.785748" style="stroke: #000000"/>
     <use xlink:href="#m6ef51ae18a" x="238.284553" y="378.785748" style="stroke: #000000"/>
     <use xlink:href="#m6ef51ae18a" x="243.253624" y="143.924859" style="stroke: #000000"/>
     <use xlink:href="#m6ef51ae18a" x="248.222696" y="378.785748" style="stroke: #000000"/>
     <use xlink:href="#m6ef51ae18a" x="253.191767" y="143.924859" style="stroke: #000000"/>
     <use xlink:href="#m6ef51ae18a" x="258.321131" y="378.785748" style="stroke: #000000"/>
     <use xlink:href="#m6ef51ae18a" x="263.290202" y="378.785748" style="stroke: #000000"/>
     <use xlink:href="#m6ef51ae18a" x="268.259274" y="143.924859" style="stroke: #000000"/>
     <use xlink:href="#m6ef51ae18a" x="273.228345" y="378.785748" style="stroke: #000000"/>
     <use xlink:href="#m6ef51ae18a" x="278.357709" y="378.785748" style="stroke: #000000"/>
     <use xlink:href="#m6ef51ae18a" x="283.326781" y="143.924859" style="stroke: #000000"/>
     <use xlink:href="#m6ef51ae18a" x="288.295852" y="378.785748" style="stroke: #000000"/>
     <use xlink:href="#m6ef51ae18a" x="293.264923" y="143.924859" style="stroke: #000000"/>
     <use xlink:href="#m6ef51ae18a" x="298.394287" y="378.785748" style="stroke: #000000"/>
     <use xlink:href="#m6ef51ae18a" x="303.363359" y="378.785748" style="stroke: #000000"/>
     <use xlink:href="#m6ef51ae18a" x="308.33243" y="143.924859" style="stroke: #000000"/>
     <use xlink:href="#m6ef51ae18a" x="313.301501" y="378.785748" style="stroke: #000000"/>
     <use xlink:href="#m6ef51ae18a" x="318.430865" y="378.785748" style="stroke: #000000"/>
     <use xlink:href="#m6ef51ae18a" x="323.399937" y="143.924859" style="stroke: #000000"/>
     <use xlink:href="#m6ef51ae18a" x="328.369008" y="378.785748" style="stroke: #000000"/>
     <use xlink:href="#m6ef51ae18a" x="333.33808" y="143.924859" style="stroke: #000000"/>
     <use xlink:href="#m6ef51ae18a" x="338.467444" y="378.785748" style="stroke: #000000"/>
     <use xlink:href="#m6ef51ae18a" x="343.436515" y="378.785748" style="stroke: #000000"/>
     <use xlink:href="#m6ef51ae18a" x="348.405586" y="143.924859" style="stroke: #000000"/>
     <use xlink:href="#m6ef51ae18a" x="353.374658" y="378.785748" style="stroke: #000000"/>
     <use xlink:href="#m6ef51ae18a" x="358.504022" y="378.785748" style="stroke: #000000"/>
     <use xlink:href="#m6ef51ae18a" x="363.473093" y="143.924859" style="stroke: #000000"/>
     <use xlink:href="#m6ef51ae18a" x="368.442164" y="378.785748" style="stroke: #000000"/>
     <use xlink:href="#m6ef51ae18a" x="373.411236" y="143.924859" style="stroke: #000000"/>
     <use xlink:href="#m6ef51ae18a" x="378.5406" y="378.785748" style="stroke: #000000"/>
     <use xlink:href="#m6ef51ae18a" x="383.509671" y="378.785748" style="stroke: #000000"/>
     <use xlink:href="#m6ef51ae18a" x="388.478743" y="143.924859" style="stroke: #000000"/>
     <use xlink:href="#m6ef51ae18a" x="393.447814" y="378.785748" style="stroke: #000000"/>
     <use xlink:href="#m6ef51ae18a" x="398.577178" y="378.785748" style="stroke: #000000"/>
     <use xlink:href="#m6ef51ae18a" x="403.546249" y="143.924859" style="stroke: #000000"/>
     <use xlink:href="#m6ef51ae18a" x="408.515321" y="378.785748" style="stroke: #000000"/>
     <use xlink:href="#m6ef51ae18a" x="413.484392" y="143.924859" style="stroke: #000000"/>
     <use xlink:href="#m6ef51ae18a" x="418.613756" y="378.785748" style="stroke: #000000"/>
     <use xlink:href="#m6ef51ae18a" x="423.582827" y="378.785748" style="stroke: #000000"/>
     <use xlink:href="#m6ef51ae18a" x="428.551899" y="143.924859" style="stroke: #000000"/>
     <use xlink:href="#m6ef51ae18a" x="433.52097" y="378.785748" style="stroke: #000000"/>
     <use xlink:href="#m6ef51ae18a" x="438.650334" y="378.785748" style="stroke: #000000"/>
     <use xlink:href="#m6ef51ae18a" x="443.619406" y="143.924859" style="stroke: #000000"/>
     <use xlink:href="#m6ef51ae18a" x="448.588477" y="378.785748" style="stroke: #000000"/>
     <use xlink:href="#m6ef51ae18a" x="453.557548" y="143.924859" style="stroke: #000000"/>
     <use xlink:href="#m6ef51ae18a" x="458.686912" y="378.785748" style="stroke: #000000"/>
     <use xlink:href="#m6ef51ae18a" x="463.655984" y="378.785748" style="stroke: #000000"/>
     <use xlink:href="#m6ef51ae18a" x="468.625055" y="143.924859" style="stroke: #000000"/>
     <use xlink:href="#m6ef51ae18a" x="473.594126" y="378.785748" style="stroke: #000000"/>
     <use xlink:href="#m6ef51ae18a" x="478.72349" y="378.785748" style="stroke: #000000"/>
     <use xlink:href="#m6ef51ae18a" x="483.692562" y="143.924859" style="stroke: #000000"/>
     <use xlink:href="#m6ef51ae18a" x="488.661633" y="378.785748" style="stroke: #000000"/>
     <use xlink:href="#m6ef51ae18a" x="493.630705" y="143.924859" style="stroke: #000000"/>
     <use xlink:href="#m6ef51ae18a" x="498.760069" y="378.785748" style="stroke: #000000"/>
     <use xlink:href="#m6ef51ae18a" x="503.72914" y="378.785748" style="stroke: #000000"/>
     <use xlink:href="#m6ef51ae18a" x="508.698211" y="143.924859" style="stroke: #000000"/>
     <use xlink:href="#m6ef51ae18a" x="513.667283" y="378.785748" style="stroke: #000000"/>
     <use xlink:href="#m6ef51ae18a" x="518.796647" y="378.785748" style="stroke: #000000"/>
     <use xlink:href="#m6ef51ae18a" x="523.765718" y="143.924859" style="stroke: #000000"/>
     <use xlink:href="#m6ef51ae18a" x="528.734789" y="378.785748" style="stroke: #000000"/>
     <use xlink:href="#m6ef51ae18a" x="533.703861" y="143.924859" style="stroke: #000000"/>
     <use xlink:href="#m6ef51ae18a" x="538.833225" y="378.785748" style="stroke: #000000"/>
     <use xlink:href="#m6ef51ae18a" x="543.802296" y="378.785748" style="stroke: #000000"/>
     <use xlink:href="#m6ef51ae18a" x="548.771368" y="143.924859" style="stroke: #000000"/>
     <use xlink:href="#m6ef51ae18a" x="553.740439" y="378.785748" style="stroke: #000000"/>
     <use xlink:href="#m6ef51ae18a" x="558.869803" y="378.785748" style="stroke: #000000"/>
     <use xlink:href="#m6ef51ae18a" x="563.838874" y="143.924859" style="stroke: #000000"/>
     <use xlink:href="#m6ef51ae18a" x="568.807946" y="378.785748" style="stroke: #000000"/>
     <use xlink:href="#m6ef51ae18a" x="573.777017" y="143.924859" style="stroke: #000000"/>
     <use xlink:href="#m6ef51ae18a" x="578.906381" y="378.785748" style="stroke: #000000"/>
     <use xlink:href="#m6ef51ae18a" x="583.875452" y="378.785748" style="stroke: #000000"/>
     <use xlink:href="#m6ef51ae18a" x="588.844524" y="143.924859" style="stroke: #000000"/>
     <use xlink:href="#m6ef51ae18a" x="593.813595" y="378.785748" style="stroke: #000000"/>
     <use xlink:href="#m6ef51ae18a" x="598.942959" y="378.785748" style="stroke: #000000"/>
     <use xlink:href="#m6ef51ae18a" x="603.912031" y="143.924859" style="stroke: #000000"/>
     <use xlink:href="#m6ef51ae18a" x="608.881102" y="378.785748" style="stroke: #000000"/>
     <use xlink:href="#m6ef51ae18a" x="613.850173" y="143.924859" style="stroke: #000000"/>
     <use xlink:href="#m6ef51ae18a" x="618.979537" y="378.785748" style="stroke: #000000"/>
     <use xlink:href="#m6ef51ae18a" x="623.948609" y="378.785748" style="stroke: #000000"/>
     <use xlink:href="#m6ef51ae18a" x="628.91768" y="143.924859" style="stroke: #000000"/>
     <use xlink:href="#m6ef51ae18a" x="633.886751" y="378.785748" style="stroke: #000000"/>
     <use xlink:href="#m6ef51ae18a" x="639.016115" y="378.785748" style="stroke: #000000"/>
     <use xlink:href="#m6ef51ae18a" x="643.985187" y="143.924859" style="stroke: #000000"/>
     <use xlink:href="#m6ef51ae18a" x="648.954258" y="378.785748" style="stroke: #000000"/>
     <use xlink:href="#m6ef51ae18a" x="653.92333" y="143.924859" style="stroke: #000000"/>
     <use xlink:href="#m6ef51ae18a" x="659.052694" y="378.785748" style="stroke: #000000"/>
     <use xlink:href="#m6ef51ae18a" x="664.021765" y="378.785748" style="stroke: #000000"/>
     <use xlink:href="#m6ef51ae18a" x="668.990836" y="143.924859" style="stroke: #000000"/>
     <use xlink:href="#m6ef51ae18a" x="673.959908" y="378.785748" style="stroke: #000000"/>
     <use xlink:href="#m6ef51ae18a" x="679.089272" y="378.785748" style="stroke: #000000"/>
     <use xlink:href="#m6ef51ae18a" x="684.058343" y="143.924859" style="stroke: #000000"/>
     <use xlink:href="#m6ef51ae18a" x="689.027414" y="378.785748" style="stroke: #000000"/>
     <use xlink:href="#m6ef51ae18a" x="693.996486" y="143.924859" style="stroke: #000000"/>
     <use xlink:href="#m6ef51ae18a" x="699.12585" y="378.785748" style="stroke: #000000"/>
     <use xlink:href="#m6ef51ae18a" x="704.094921" y="378.785748" style="stroke: #000000"/>
     <use xlink:href="#m6ef51ae18a" x="709.063993" y="143.924859" style="stroke: #000000"/>
     <use xlink:href="#m6ef51ae18a" x="714.033064" y="378.785748" style="stroke: #000000"/>
     <use xlink:href="#m6ef51ae18a" x="719.162428" y="378.785748" style="stroke: #000000"/>
     <use xlink:href="#m6ef51ae18a" x="724.131499" y="143.924859" style="stroke: #000000"/>
     <use xlink:href="#m6ef51ae18a" x="729.100571" y="378.785748" style="stroke: #000000"/>
     <use xlink:href="#m6ef51ae18a" x="734.069642" y="143.924859" style="stroke: #000000"/>
     <use xlink:href="#m6ef51ae18a" x="739.199006" y="378.785748" style="stroke: #000000"/>
     <use xlink:href="#m6ef51ae18a" x="744.168077" y="378.785748" style="stroke: #000000"/>
     <use xlink:href="#m6ef51ae18a" x="749.137149" y="143.924859" style="stroke: #000000"/>
     <use xlink:href="#m6ef51ae18a" x="754.10622" y="378.785748" style="stroke: #000000"/>
     <use xlink:href="#m6ef51ae18a" x="759.235584" y="378.785748" style="stroke: #000000"/>
     <use xlink:href="#m6ef51ae18a" x="764.204656" y="143.924859" style="stroke: #000000"/>
     <use xlink:href="#m6ef51ae18a" x="769.173727" y="378.785748" style="stroke: #000000"/>
     <use xlink:href="#m6ef51ae18a" x="774.142798" y="143.924859" style="stroke: #000000"/>
     <use xlink:href="#m6ef51ae18a" x="779.272162" y="378.785748" style="stroke: #000000"/>
     <use xlink:href="#m6ef51ae18a" x="784.241234" y="378.785748" style="stroke: #000000"/>
     <use xlink:href="#m6ef51ae18a" x="789.210305" y="143.924859" style="stroke: #000000"/>
     <use xlink:href="#m6ef51ae18a" x="794.179376" y="378.785748" style="stroke: #000000"/>
     <use xlink:href="#m6ef51ae18a" x="799.30874" y="378.785748" style="stroke: #000000"/>
     <use xlink:href="#m6ef51ae18a" x="804.277812" y="143.924859" style="stroke: #000000"/>
     <use xlink:href="#m6ef51ae18a" x="809.246883" y="378.785748" style="stroke: #000000"/>
     <use xlink:href="#m6ef51ae18a" x="814.215955" y="143.924859" style="stroke: #000000"/>
     <use xlink:href="#m6ef51ae18a" x="819.345319" y="378.785748" style="stroke: #000000"/>
     <use xlink:href="#m6ef51ae18a" x="824.31439" y="378.785748" style="stroke: #000000"/>
     <use xlink:href="#m6ef51ae18a" x="829.283461" y="143.924859" style="stroke: #000000"/>
     <use xlink:href="#m6ef51ae18a" x="834.252533" y="378.785748" style="stroke: #000000"/>
     <use xlink:href="#m6ef51ae18a" x="839.381897" y="378.785748" style="stroke: #000000"/>
     <use xlink:href="#m6ef51ae18a" x="844.350968" y="143.924859" style="stroke: #000000"/>
     <use xlink:href="#m6ef51ae18a" x="849.320039" y="378.785748" style="stroke: #000000"/>
     <use xlink:href="#m6ef51ae18a" x="854.289111" y="143.924859" style="stroke: #000000"/>
     <use xlink:href="#m6ef51ae18a" x="859.418475" y="378.785748" style="stroke: #000000"/>
     <use xlink:href="#m6ef51ae18a" x="864.387546" y="378.785748" style="stroke: #000000"/>
     <use xlink:href="#m6ef51ae18a" x="869.356618" y="143.924859" style="stroke: #000000"/>
     <use xlink:href="#m6ef51ae18a" x="874.325689" y="378.785748" style="stroke: #000000"/>
     <use xlink:href="#m6ef51ae18a" x="879.455053" y="378.785748" style="stroke: #000000"/>
     <use xlink:href="#m6ef51ae18a" x="884.424124" y="143.924859" style="stroke: #000000"/>
     <use xlink:href="#m6ef51ae18a" x="889.393196" y="378.785748" style="stroke: #000000"/>
     <use xlink:href="#m6ef51ae18a" x="894.362267" y="143.924859" style="stroke: #000000"/>
     <use xlink:href="#m6ef51ae18a" x="899.491631" y="378.785748" style="stroke: #000000"/>
     <use xlink:href="#m6ef51ae18a" x="904.460702" y="378.785748" style="stroke: #000000"/>
     <use xlink:href="#m6ef51ae18a" x="909.429774" y="143.924859" style="stroke: #000000"/>
     <use xlink:href="#m6ef51ae18a" x="914.398845" y="378.785748" style="stroke: #000000"/>
     <use xlink:href="#m6ef51ae18a" x="919.528209" y="378.785748" style="stroke: #000000"/>
     <use xlink:href="#m6ef51ae18a" x="924.497281" y="143.924859" style="stroke: #000000"/>
     <use xlink:href="#m6ef51ae18a" x="929.466352" y="378.785748" style="stroke: #000000"/>
    </g>
   </g>
   <g id="patch_3">
    <path d="M 135 448.56 
L 135 60.48 
" style="fill: none; stroke: #000000; stroke-width: 0.8; stroke-linejoin: miter; stroke-linecap: square"/>
   </g>
   <g id="patch_4">
    <path d="M 972 448.56 
L 972 60.48 
" style="fill: none; stroke: #000000; stroke-width: 0.8; stroke-linejoin: miter; stroke-linecap: square"/>
   </g>
   <g id="patch_5">
    <path d="M 135 448.56 
L 972 448.56 
" style="fill: none; stroke: #000000; stroke-width: 0.8; stroke-linejoin: miter; stroke-linecap: square"/>
   </g>
   <g id="patch_6">
    <path d="M 135 60.48 
L 972 60.48 
" style="fill: none; stroke: #000000; stroke-width: 0.8; stroke-linejoin: miter; stroke-linecap: square"/>
   </g>
   <g id="legend_1">
    <g id="patch_7">
     <path d="M 895.915625 113.070625 
L 965 113.070625 
Q 967 113.070625 967 111.070625 
L 967 67.48 
Q 967 65.48 965 65.48 
L 895.915625 65.48 
Q 893.915625 65.48 893.915625 67.48 
L 893.915625 111.070625 
Q 893.915625 113.070625 895.915625 113.070625 
z
" style="fill: #ffffff; opacity: 0.8; stroke: #cccccc; stroke-linejoin: miter"/>
    </g>
    <g id="line2d_17">
     <path d="M 897.915625 73.578438 
L 907.915625 73.578438 
L 917.915625 73.578438 
" style="fill: none; stroke: #1f77b4; stroke-width: 1.5; stroke-linecap: square"/>
    </g>
    <g id="text_15">
     <!-- nw_0 -->
     <g transform="translate(925.915625 77.078438) scale(0.1 -0.1)">
      <defs>
       <path id="DejaVuSans-6e" d="M 3513 2113 
L 3513 0 
L 2938 0 
L 2938 2094 
Q 2938 2591 2744 2837 
Q 2550 3084 2163 3084 
Q 1697 3084 1428 2787 
Q 1159 2491 1159 1978 
L 1159 0 
L 581 0 
L 581 3500 
L 1159 3500 
L 1159 2956 
Q 1366 3272 1645 3428 
Q 1925 3584 2291 3584 
Q 2894 3584 3203 3211 
Q 3513 2838 3513 2113 
z
" transform="scale(0.015625)"/>
       <path id="DejaVuSans-77" d="M 269 3500 
L 844 3500 
L 1563 769 
L 2278 3500 
L 2956 3500 
L 3675 769 
L 4391 3500 
L 4966 3500 
L 4050 0 
L 3372 0 
L 2619 2869 
L 1863 0 
L 1184 0 
L 269 3500 
z
" transform="scale(0.015625)"/>
       <path id="DejaVuSans-5f" d="M 3263 -1063 
L 3263 -1509 
L -63 -1509 
L -63 -1063 
L 3263 -1063 
z
" transform="scale(0.015625)"/>
      </defs>
      <use xlink:href="#DejaVuSans-6e"/>
      <use xlink:href="#DejaVuSans-77" x="63.378906"/>
      <use xlink:href="#DejaVuSans-5f" x="145.166016"/>
      <use xlink:href="#DejaVuSans-30" x="195.166016"/>
     </g>
    </g>
    <g id="line2d_18">
     <path d="M 897.915625 88.534688 
L 907.915625 88.534688 
L 917.915625 88.534688 
" style="fill: none; stroke: #ff7f0e; stroke-width: 1.5; stroke-linecap: square"/>
    </g>
    <g id="text_16">
     <!-- input_0 -->
     <g transform="translate(925.915625 92.034688) scale(0.1 -0.1)">
      <defs>
       <path id="DejaVuSans-69" d="M 603 3500 
L 1178 3500 
L 1178 0 
L 603 0 
L 603 3500 
z
M 603 4863 
L 1178 4863 
L 1178 4134 
L 603 4134 
L 603 4863 
z
" transform="scale(0.015625)"/>
       <path id="DejaVuSans-70" d="M 1159 525 
L 1159 -1331 
L 581 -1331 
L 581 3500 
L 1159 3500 
L 1159 2969 
Q 1341 3281 1617 3432 
Q 1894 3584 2278 3584 
Q 2916 3584 3314 3078 
Q 3713 2572 3713 1747 
Q 3713 922 3314 415 
Q 2916 -91 2278 -91 
Q 1894 -91 1617 61 
Q 1341 213 1159 525 
z
M 3116 1747 
Q 3116 2381 2855 2742 
Q 2594 3103 2138 3103 
Q 1681 3103 1420 2742 
Q 1159 2381 1159 1747 
Q 1159 1113 1420 752 
Q 1681 391 2138 391 
Q 2594 391 2855 752 
Q 3116 1113 3116 1747 
z
" transform="scale(0.015625)"/>
       <path id="DejaVuSans-75" d="M 544 1381 
L 544 3500 
L 1119 3500 
L 1119 1403 
Q 1119 906 1312 657 
Q 1506 409 1894 409 
Q 2359 409 2629 706 
Q 2900 1003 2900 1516 
L 2900 3500 
L 3475 3500 
L 3475 0 
L 2900 0 
L 2900 538 
Q 2691 219 2414 64 
Q 2138 -91 1772 -91 
Q 1169 -91 856 284 
Q 544 659 544 1381 
z
M 1991 3584 
L 1991 3584 
z
" transform="scale(0.015625)"/>
      </defs>
      <use xlink:href="#DejaVuSans-69"/>
      <use xlink:href="#DejaVuSans-6e" x="27.783203"/>
      <use xlink:href="#DejaVuSans-70" x="91.162109"/>
      <use xlink:href="#DejaVuSans-75" x="154.638672"/>
      <use xlink:href="#DejaVuSans-74" x="218.017578"/>
      <use xlink:href="#DejaVuSans-5f" x="257.226562"/>
      <use xlink:href="#DejaVuSans-30" x="307.226562"/>
     </g>
    </g>
    <g id="line2d_19">
     <path d="M 897.915625 103.490938 
L 907.915625 103.490938 
L 917.915625 103.490938 
" style="fill: none; stroke: #000000; stroke-width: 1.5; stroke-linecap: square"/>
     <g>
      <use xlink:href="#m6ef51ae18a" x="907.915625" y="103.490938" style="stroke: #000000"/>
     </g>
    </g>
    <g id="text_17">
     <!-- target -->
     <g transform="translate(925.915625 106.990938) scale(0.1 -0.1)">
      <defs>
       <path id="DejaVuSans-61" d="M 2194 1759 
Q 1497 1759 1228 1600 
Q 959 1441 959 1056 
Q 959 750 1161 570 
Q 1363 391 1709 391 
Q 2188 391 2477 730 
Q 2766 1069 2766 1631 
L 2766 1759 
L 2194 1759 
z
M 3341 1997 
L 3341 0 
L 2766 0 
L 2766 531 
Q 2569 213 2275 61 
Q 1981 -91 1556 -91 
Q 1019 -91 701 211 
Q 384 513 384 1019 
Q 384 1609 779 1909 
Q 1175 2209 1959 2209 
L 2766 2209 
L 2766 2266 
Q 2766 2663 2505 2880 
Q 2244 3097 1772 3097 
Q 1472 3097 1187 3025 
Q 903 2953 641 2809 
L 641 3341 
Q 956 3463 1253 3523 
Q 1550 3584 1831 3584 
Q 2591 3584 2966 3190 
Q 3341 2797 3341 1997 
z
" transform="scale(0.015625)"/>
       <path id="DejaVuSans-72" d="M 2631 2963 
Q 2534 3019 2420 3045 
Q 2306 3072 2169 3072 
Q 1681 3072 1420 2755 
Q 1159 2438 1159 1844 
L 1159 0 
L 581 0 
L 581 3500 
L 1159 3500 
L 1159 2956 
Q 1341 3275 1631 3429 
Q 1922 3584 2338 3584 
Q 2397 3584 2469 3576 
Q 2541 3569 2628 3553 
L 2631 2963 
z
" transform="scale(0.015625)"/>
       <path id="DejaVuSans-67" d="M 2906 1791 
Q 2906 2416 2648 2759 
Q 2391 3103 1925 3103 
Q 1463 3103 1205 2759 
Q 947 2416 947 1791 
Q 947 1169 1205 825 
Q 1463 481 1925 481 
Q 2391 481 2648 825 
Q 2906 1169 2906 1791 
z
M 3481 434 
Q 3481 -459 3084 -895 
Q 2688 -1331 1869 -1331 
Q 1566 -1331 1297 -1286 
Q 1028 -1241 775 -1147 
L 775 -588 
Q 1028 -725 1275 -790 
Q 1522 -856 1778 -856 
Q 2344 -856 2625 -561 
Q 2906 -266 2906 331 
L 2906 616 
Q 2728 306 2450 153 
Q 2172 0 1784 0 
Q 1141 0 747 490 
Q 353 981 353 1791 
Q 353 2603 747 3093 
Q 1141 3584 1784 3584 
Q 2172 3584 2450 3431 
Q 2728 3278 2906 2969 
L 2906 3500 
L 3481 3500 
L 3481 434 
z
" transform="scale(0.015625)"/>
       <path id="DejaVuSans-65" d="M 3597 1894 
L 3597 1613 
L 953 1613 
Q 991 1019 1311 708 
Q 1631 397 2203 397 
Q 2534 397 2845 478 
Q 3156 559 3463 722 
L 3463 178 
Q 3153 47 2828 -22 
Q 2503 -91 2169 -91 
Q 1331 -91 842 396 
Q 353 884 353 1716 
Q 353 2575 817 3079 
Q 1281 3584 2069 3584 
Q 2775 3584 3186 3129 
Q 3597 2675 3597 1894 
z
M 3022 2063 
Q 3016 2534 2758 2815 
Q 2500 3097 2075 3097 
Q 1594 3097 1305 2825 
Q 1016 2553 972 2059 
L 3022 2063 
z
" transform="scale(0.015625)"/>
      </defs>
      <use xlink:href="#DejaVuSans-74"/>
      <use xlink:href="#DejaVuSans-61" x="39.208984"/>
      <use xlink:href="#DejaVuSans-72" x="100.488281"/>
      <use xlink:href="#DejaVuSans-67" x="139.851562"/>
      <use xlink:href="#DejaVuSans-65" x="203.328125"/>
      <use xlink:href="#DejaVuSans-74" x="264.851562"/>
     </g>
    </g>
   </g>
  </g>
 </g>
 <defs>
  <clipPath id="p8ba37537fd">
   <rect x="135" y="60.48" width="837" height="388.08"/>
  </clipPath>
 </defs>
</svg>
