<?xml version="1.0" encoding="utf-8" standalone="no"?>
<!DOCTYPE svg PUBLIC "-//W3C//DTD SVG 1.1//EN"
  "http://www.w3.org/Graphics/SVG/1.1/DTD/svg11.dtd">
<svg xmlns:xlink="http://www.w3.org/1999/xlink" width="1080pt" height="504pt" viewBox="0 0 1080 504" xmlns="http://www.w3.org/2000/svg" version="1.1">
 <metadata>
  <rdf:RDF xmlns:dc="http://purl.org/dc/elements/1.1/" xmlns:cc="http://creativecommons.org/ns#" xmlns:rdf="http://www.w3.org/1999/02/22-rdf-syntax-ns#">
   <cc:Work>
    <dc:type rdf:resource="http://purl.org/dc/dcmitype/StillImage"/>
    <dc:date>2024-05-09T11:03:27.477781</dc:date>
    <dc:format>image/svg+xml</dc:format>
    <dc:creator>
     <cc:Agent>
      <dc:title>Matplotlib v3.7.1, https://matplotlib.org/</dc:title>
     </cc:Agent>
    </dc:creator>
   </cc:Work>
  </rdf:RDF>
 </metadata>
 <defs>
  <style type="text/css">*{stroke-linejoin: round; stroke-linecap: butt}</style>
 </defs>
 <g id="figure_1">
  <g id="patch_1">
   <path d="M 0 504 
L 1080 504 
L 1080 0 
L 0 0 
z
" style="fill: #ffffff"/>
  </g>
  <g id="axes_1">
   <g id="patch_2">
    <path d="M 135 448.56 
L 972 448.56 
L 972 60.48 
L 135 60.48 
z
" style="fill: #ffffff"/>
   </g>
   <g id="matplotlib.axis_1">
    <g id="xtick_1">
     <g id="line2d_1">
      <defs>
       <path id="m36ff852fa2" d="M 0 0 
L 0 3.5 
" style="stroke: #000000; stroke-width: 0.8"/>
      </defs>
      <g>
       <use xlink:href="#m36ff852fa2" x="173.045455" y="448.56" style="stroke: #000000; stroke-width: 0.8"/>
      </g>
     </g>
     <g id="text_1">
      <!-- 0 -->
      <g transform="translate(169.864205 463.158437) scale(0.1 -0.1)">
       <defs>
        <path id="DejaVuSans-30" d="M 2034 4250 
Q 1547 4250 1301 3770 
Q 1056 3291 1056 2328 
Q 1056 1369 1301 889 
Q 1547 409 2034 409 
Q 2525 409 2770 889 
Q 3016 1369 3016 2328 
Q 3016 3291 2770 3770 
Q 2525 4250 2034 4250 
z
M 2034 4750 
Q 2819 4750 3233 4129 
Q 3647 3509 3647 2328 
Q 3647 1150 3233 529 
Q 2819 -91 2034 -91 
Q 1250 -91 836 529 
Q 422 1150 422 2328 
Q 422 3509 836 4129 
Q 1250 4750 2034 4750 
z
" transform="scale(0.015625)"/>
       </defs>
       <use xlink:href="#DejaVuSans-30"/>
      </g>
     </g>
    </g>
    <g id="xtick_2">
     <g id="line2d_2">
      <g>
       <use xlink:href="#m36ff852fa2" x="333.33808" y="448.56" style="stroke: #000000; stroke-width: 0.8"/>
      </g>
     </g>
     <g id="text_2">
      <!-- 1000 -->
      <g transform="translate(320.61308 463.158437) scale(0.1 -0.1)">
       <defs>
        <path id="DejaVuSans-31" d="M 794 531 
L 1825 531 
L 1825 4091 
L 703 3866 
L 703 4441 
L 1819 4666 
L 2450 4666 
L 2450 531 
L 3481 531 
L 3481 0 
L 794 0 
L 794 531 
z
" transform="scale(0.015625)"/>
       </defs>
       <use xlink:href="#DejaVuSans-31"/>
       <use xlink:href="#DejaVuSans-30" x="63.623047"/>
       <use xlink:href="#DejaVuSans-30" x="127.246094"/>
       <use xlink:href="#DejaVuSans-30" x="190.869141"/>
      </g>
     </g>
    </g>
    <g id="xtick_3">
     <g id="line2d_3">
      <g>
       <use xlink:href="#m36ff852fa2" x="493.630705" y="448.56" style="stroke: #000000; stroke-width: 0.8"/>
      </g>
     </g>
     <g id="text_3">
      <!-- 2000 -->
      <g transform="translate(480.905705 463.158437) scale(0.1 -0.1)">
       <defs>
        <path id="DejaVuSans-32" d="M 1228 531 
L 3431 531 
L 3431 0 
L 469 0 
L 469 531 
Q 828 903 1448 1529 
Q 2069 2156 2228 2338 
Q 2531 2678 2651 2914 
Q 2772 3150 2772 3378 
Q 2772 3750 2511 3984 
Q 2250 4219 1831 4219 
Q 1534 4219 1204 4116 
Q 875 4013 500 3803 
L 500 4441 
Q 881 4594 1212 4672 
Q 1544 4750 1819 4750 
Q 2544 4750 2975 4387 
Q 3406 4025 3406 3419 
Q 3406 3131 3298 2873 
Q 3191 2616 2906 2266 
Q 2828 2175 2409 1742 
Q 1991 1309 1228 531 
z
" transform="scale(0.015625)"/>
       </defs>
       <use xlink:href="#DejaVuSans-32"/>
       <use xlink:href="#DejaVuSans-30" x="63.623047"/>
       <use xlink:href="#DejaVuSans-30" x="127.246094"/>
       <use xlink:href="#DejaVuSans-30" x="190.869141"/>
      </g>
     </g>
    </g>
    <g id="xtick_4">
     <g id="line2d_4">
      <g>
       <use xlink:href="#m36ff852fa2" x="653.92333" y="448.56" style="stroke: #000000; stroke-width: 0.8"/>
      </g>
     </g>
     <g id="text_4">
      <!-- 3000 -->
      <g transform="translate(641.19833 463.158437) scale(0.1 -0.1)">
       <defs>
        <path id="DejaVuSans-33" d="M 2597 2516 
Q 3050 2419 3304 2112 
Q 3559 1806 3559 1356 
Q 3559 666 3084 287 
Q 2609 -91 1734 -91 
Q 1441 -91 1130 -33 
Q 819 25 488 141 
L 488 750 
Q 750 597 1062 519 
Q 1375 441 1716 441 
Q 2309 441 2620 675 
Q 2931 909 2931 1356 
Q 2931 1769 2642 2001 
Q 2353 2234 1838 2234 
L 1294 2234 
L 1294 2753 
L 1863 2753 
Q 2328 2753 2575 2939 
Q 2822 3125 2822 3475 
Q 2822 3834 2567 4026 
Q 2313 4219 1838 4219 
Q 1578 4219 1281 4162 
Q 984 4106 628 3988 
L 628 4550 
Q 988 4650 1302 4700 
Q 1616 4750 1894 4750 
Q 2613 4750 3031 4423 
Q 3450 4097 3450 3541 
Q 3450 3153 3228 2886 
Q 3006 2619 2597 2516 
z
" transform="scale(0.015625)"/>
       </defs>
       <use xlink:href="#DejaVuSans-33"/>
       <use xlink:href="#DejaVuSans-30" x="63.623047"/>
       <use xlink:href="#DejaVuSans-30" x="127.246094"/>
       <use xlink:href="#DejaVuSans-30" x="190.869141"/>
      </g>
     </g>
    </g>
    <g id="xtick_5">
     <g id="line2d_5">
      <g>
       <use xlink:href="#m36ff852fa2" x="814.215955" y="448.56" style="stroke: #000000; stroke-width: 0.8"/>
      </g>
     </g>
     <g id="text_5">
      <!-- 4000 -->
      <g transform="translate(801.490955 463.158437) scale(0.1 -0.1)">
       <defs>
        <path id="DejaVuSans-34" d="M 2419 4116 
L 825 1625 
L 2419 1625 
L 2419 4116 
z
M 2253 4666 
L 3047 4666 
L 3047 1625 
L 3713 1625 
L 3713 1100 
L 3047 1100 
L 3047 0 
L 2419 0 
L 2419 1100 
L 313 1100 
L 313 1709 
L 2253 4666 
z
" transform="scale(0.015625)"/>
       </defs>
       <use xlink:href="#DejaVuSans-34"/>
       <use xlink:href="#DejaVuSans-30" x="63.623047"/>
       <use xlink:href="#DejaVuSans-30" x="127.246094"/>
       <use xlink:href="#DejaVuSans-30" x="190.869141"/>
      </g>
     </g>
    </g>
    <g id="text_6">
     <!-- t -->
     <g transform="translate(551.539844 476.836563) scale(0.1 -0.1)">
      <defs>
       <path id="DejaVuSans-74" d="M 1172 4494 
L 1172 3500 
L 2356 3500 
L 2356 3053 
L 1172 3053 
L 1172 1153 
Q 1172 725 1289 603 
Q 1406 481 1766 481 
L 2356 481 
L 2356 0 
L 1766 0 
Q 1100 0 847 248 
Q 594 497 594 1153 
L 594 3053 
L 172 3053 
L 172 3500 
L 594 3500 
L 594 4494 
L 1172 4494 
z
" transform="scale(0.015625)"/>
      </defs>
      <use xlink:href="#DejaVuSans-74"/>
     </g>
    </g>
   </g>
   <g id="matplotlib.axis_2">
    <g id="ytick_1">
     <g id="line2d_6">
      <defs>
       <path id="m2cf22c563d" d="M 0 0 
L -3.5 0 
" style="stroke: #000000; stroke-width: 0.8"/>
      </defs>
      <g>
       <use xlink:href="#m2cf22c563d" x="135" y="411.24947" style="stroke: #000000; stroke-width: 0.8"/>
      </g>
     </g>
     <g id="text_7">
      <!-- −2.5 -->
      <g transform="translate(103.717187 415.048689) scale(0.1 -0.1)">
       <defs>
        <path id="DejaVuSans-2212" d="M 678 2272 
L 4684 2272 
L 4684 1741 
L 678 1741 
L 678 2272 
z
" transform="scale(0.015625)"/>
        <path id="DejaVuSans-2e" d="M 684 794 
L 1344 794 
L 1344 0 
L 684 0 
L 684 794 
z
" transform="scale(0.015625)"/>
        <path id="DejaVuSans-35" d="M 691 4666 
L 3169 4666 
L 3169 4134 
L 1269 4134 
L 1269 2991 
Q 1406 3038 1543 3061 
Q 1681 3084 1819 3084 
Q 2600 3084 3056 2656 
Q 3513 2228 3513 1497 
Q 3513 744 3044 326 
Q 2575 -91 1722 -91 
Q 1428 -91 1123 -41 
Q 819 9 494 109 
L 494 744 
Q 775 591 1075 516 
Q 1375 441 1709 441 
Q 2250 441 2565 725 
Q 2881 1009 2881 1497 
Q 2881 1984 2565 2268 
Q 2250 2553 1709 2553 
Q 1456 2553 1204 2497 
Q 953 2441 691 2322 
L 691 4666 
z
" transform="scale(0.015625)"/>
       </defs>
       <use xlink:href="#DejaVuSans-2212"/>
       <use xlink:href="#DejaVuSans-32" x="83.789062"/>
       <use xlink:href="#DejaVuSans-2e" x="147.412109"/>
       <use xlink:href="#DejaVuSans-35" x="179.199219"/>
      </g>
     </g>
    </g>
    <g id="ytick_2">
     <g id="line2d_7">
      <g>
       <use xlink:href="#m2cf22c563d" x="135" y="363.659546" style="stroke: #000000; stroke-width: 0.8"/>
      </g>
     </g>
     <g id="text_8">
      <!-- −2.0 -->
      <g transform="translate(103.717187 367.458764) scale(0.1 -0.1)">
       <use xlink:href="#DejaVuSans-2212"/>
       <use xlink:href="#DejaVuSans-32" x="83.789062"/>
       <use xlink:href="#DejaVuSans-2e" x="147.412109"/>
       <use xlink:href="#DejaVuSans-30" x="179.199219"/>
      </g>
     </g>
    </g>
    <g id="ytick_3">
     <g id="line2d_8">
      <g>
       <use xlink:href="#m2cf22c563d" x="135" y="316.069621" style="stroke: #000000; stroke-width: 0.8"/>
      </g>
     </g>
     <g id="text_9">
      <!-- −1.5 -->
      <g transform="translate(103.717187 319.86884) scale(0.1 -0.1)">
       <use xlink:href="#DejaVuSans-2212"/>
       <use xlink:href="#DejaVuSans-31" x="83.789062"/>
       <use xlink:href="#DejaVuSans-2e" x="147.412109"/>
       <use xlink:href="#DejaVuSans-35" x="179.199219"/>
      </g>
     </g>
    </g>
    <g id="ytick_4">
     <g id="line2d_9">
      <g>
       <use xlink:href="#m2cf22c563d" x="135" y="268.479697" style="stroke: #000000; stroke-width: 0.8"/>
      </g>
     </g>
     <g id="text_10">
      <!-- −1.0 -->
      <g transform="translate(103.717187 272.278916) scale(0.1 -0.1)">
       <use xlink:href="#DejaVuSans-2212"/>
       <use xlink:href="#DejaVuSans-31" x="83.789062"/>
       <use xlink:href="#DejaVuSans-2e" x="147.412109"/>
       <use xlink:href="#DejaVuSans-30" x="179.199219"/>
      </g>
     </g>
    </g>
    <g id="ytick_5">
     <g id="line2d_10">
      <g>
       <use xlink:href="#m2cf22c563d" x="135" y="220.889773" style="stroke: #000000; stroke-width: 0.8"/>
      </g>
     </g>
     <g id="text_11">
      <!-- −0.5 -->
      <g transform="translate(103.717187 224.688992) scale(0.1 -0.1)">
       <use xlink:href="#DejaVuSans-2212"/>
       <use xlink:href="#DejaVuSans-30" x="83.789062"/>
       <use xlink:href="#DejaVuSans-2e" x="147.412109"/>
       <use xlink:href="#DejaVuSans-35" x="179.199219"/>
      </g>
     </g>
    </g>
    <g id="ytick_6">
     <g id="line2d_11">
      <g>
       <use xlink:href="#m2cf22c563d" x="135" y="173.299849" style="stroke: #000000; stroke-width: 0.8"/>
      </g>
     </g>
     <g id="text_12">
      <!-- 0.0 -->
      <g transform="translate(112.096875 177.099067) scale(0.1 -0.1)">
       <use xlink:href="#DejaVuSans-30"/>
       <use xlink:href="#DejaVuSans-2e" x="63.623047"/>
       <use xlink:href="#DejaVuSans-30" x="95.410156"/>
      </g>
     </g>
    </g>
    <g id="ytick_7">
     <g id="line2d_12">
      <g>
       <use xlink:href="#m2cf22c563d" x="135" y="125.709924" style="stroke: #000000; stroke-width: 0.8"/>
      </g>
     </g>
     <g id="text_13">
      <!-- 0.5 -->
      <g transform="translate(112.096875 129.509143) scale(0.1 -0.1)">
       <use xlink:href="#DejaVuSans-30"/>
       <use xlink:href="#DejaVuSans-2e" x="63.623047"/>
       <use xlink:href="#DejaVuSans-35" x="95.410156"/>
      </g>
     </g>
    </g>
    <g id="ytick_8">
     <g id="line2d_13">
      <g>
       <use xlink:href="#m2cf22c563d" x="135" y="78.12" style="stroke: #000000; stroke-width: 0.8"/>
      </g>
     </g>
     <g id="text_14">
      <!-- 1.0 -->
      <g transform="translate(112.096875 81.919219) scale(0.1 -0.1)">
       <use xlink:href="#DejaVuSans-31"/>
       <use xlink:href="#DejaVuSans-2e" x="63.623047"/>
       <use xlink:href="#DejaVuSans-30" x="95.410156"/>
      </g>
     </g>
    </g>
   </g>
   <g id="line2d_14">
    <path d="M 173.045455 179.633015 
L 173.846918 192.890045 
L 174.167503 204.206597 
L 174.808673 240.98033 
L 175.449844 272.570772 
L 175.930722 285.275266 
L 176.4116 291.85876 
L 177.533648 303.541872 
L 177.693941 305.749623 
L 178.014526 288.525875 
L 178.174819 287.906106 
L 178.495404 288.838654 
L 178.655696 288.698059 
L 178.815989 287.650119 
L 179.136574 282.678797 
L 179.938037 266.354292 
L 180.09833 265.086032 
L 180.258623 264.839028 
L 180.418915 265.535407 
L 180.739501 269.098822 
L 181.861549 285.397838 
L 182.182134 287.440025 
L 182.342427 287.848803 
L 182.502719 287.879589 
L 182.663012 287.575294 
L 182.983597 286.193276 
L 184.105646 280.012941 
L 184.426231 279.344225 
L 184.586524 279.255305 
L 184.746816 279.31158 
L 185.067401 279.776712 
L 185.708572 281.495032 
L 186.83062 284.599143 
L 187.952669 286.966512 
L 189.555595 289.846269 
L 190.517351 291.129054 
L 191.318814 291.865961 
L 192.28057 292.44052 
L 193.562911 292.907108 
L 195.486422 293.326466 
L 197.890811 293.60301 
L 201.577542 293.759053 
L 209.752466 293.829553 
L 213.278903 293.834018 
L 213.599489 317.781912 
L 214.080367 336.701305 
L 214.561244 354.311556 
L 216.164171 427.068042 
L 216.484756 430.676284 
L 216.645049 430.918149 
L 216.805341 430.320146 
L 217.125926 427.270553 
L 218.087682 413.032034 
L 218.408267 376.575161 
L 218.889145 360.478437 
L 219.370023 342.338702 
L 220.331779 301.530614 
L 220.652364 295.850022 
L 220.972949 294.250059 
L 221.133242 294.448862 
L 221.453827 295.814888 
L 222.094998 298.691248 
L 222.415583 299.129576 
L 222.575876 299.019876 
L 222.896461 298.167788 
L 223.377339 295.64443 
L 224.499387 288.917617 
L 224.980265 287.452423 
L 225.30085 287.050057 
L 225.621436 286.996671 
L 226.102313 287.318473 
L 227.865532 289.281043 
L 230.430214 291.890832 
L 231.39197 292.532704 
L 232.514018 292.992447 
L 233.956652 293.308277 
L 236.361041 293.575542 
L 240.047772 293.75339 
L 247.581525 293.827428 
L 253.99323 293.835092 
L 254.313815 317.784084 
L 254.794693 336.703421 
L 255.275571 354.313183 
L 256.878497 427.069199 
L 257.199083 430.677728 
L 257.359375 430.919733 
L 257.519668 430.321856 
L 257.840253 427.272446 
L 258.802009 413.033891 
L 259.122594 376.57665 
L 259.603472 360.47959 
L 260.08435 342.339517 
L 261.046106 301.530993 
L 261.366691 295.850354 
L 261.687276 294.25036 
L 261.847569 294.449147 
L 262.168154 295.815139 
L 262.809325 298.691431 
L 263.12991 299.129734 
L 263.290202 299.020026 
L 263.610788 298.167929 
L 264.091666 295.644574 
L 265.213714 288.917779 
L 265.694592 287.452582 
L 266.015177 287.05021 
L 266.335762 286.996815 
L 266.81664 287.318604 
L 268.579859 289.281126 
L 271.144541 291.890864 
L 272.106297 292.532726 
L 273.228345 292.992462 
L 274.670979 293.308286 
L 277.075368 293.575546 
L 280.762099 293.753392 
L 288.295852 293.827428 
L 293.585509 293.834553 
L 293.906094 317.783001 
L 294.386972 336.702368 
L 294.86785 354.312373 
L 296.470776 427.068622 
L 296.791361 430.677007 
L 296.951654 430.918942 
L 297.111946 430.321002 
L 297.432532 427.2715 
L 298.394287 413.032962 
L 298.714873 376.575906 
L 299.19575 360.479016 
L 299.676628 342.339112 
L 300.638384 301.530805 
L 300.958969 295.85019 
L 301.279555 294.250211 
L 301.439847 294.449005 
L 301.760432 295.815014 
L 302.401603 298.691339 
L 302.722188 299.129655 
L 302.882481 299.019951 
L 303.203066 298.167858 
L 303.683944 295.644502 
L 304.805992 288.917698 
L 305.28687 287.452503 
L 305.607455 287.050134 
L 305.928041 286.996743 
L 306.408919 287.318539 
L 308.172137 289.281084 
L 310.736819 291.890848 
L 311.698575 292.532715 
L 312.820624 292.992455 
L 314.263257 293.308282 
L 316.667647 293.575544 
L 320.354377 293.753391 
L 327.88813 293.827428 
L 333.818957 293.834883 
L 334.139543 317.783662 
L 334.620421 336.703011 
L 335.101298 354.312868 
L 336.704225 427.068975 
L 337.02481 430.677448 
L 337.185103 430.919426 
L 337.345395 430.321524 
L 337.66598 427.272078 
L 338.627736 413.033531 
L 338.948321 376.576361 
L 339.429199 360.479367 
L 339.910077 342.33936 
L 340.871833 301.53092 
L 341.192418 295.85029 
L 341.513003 294.250302 
L 341.673296 294.449092 
L 341.993881 295.81509 
L 342.635052 298.691395 
L 342.955637 299.129703 
L 343.11593 299.019997 
L 343.436515 298.167901 
L 343.917393 295.644546 
L 345.039441 288.917748 
L 345.520319 287.452552 
L 345.840904 287.05018 
L 346.16149 286.996787 
L 346.642367 287.318579 
L 348.405586 289.28111 
L 350.970268 291.890858 
L 351.932024 292.532722 
L 353.054072 292.992459 
L 354.496706 293.308284 
L 356.901095 293.575546 
L 360.587826 293.753391 
L 368.121579 293.827428 
L 373.090651 293.834364 
L 373.411236 317.782622 
L 373.892114 336.701998 
L 374.372992 354.312089 
L 375.975918 427.068419 
L 376.296503 430.676754 
L 376.456796 430.918664 
L 376.617088 430.320701 
L 376.937674 427.271166 
L 377.899429 413.032635 
L 378.220015 376.575644 
L 378.700892 360.478813 
L 379.18177 342.338969 
L 380.143526 301.53074 
L 380.464111 295.850132 
L 380.784697 294.250158 
L 380.944989 294.448956 
L 381.265574 295.81497 
L 381.906745 298.691307 
L 382.22733 299.129627 
L 382.387623 299.019925 
L 382.708208 298.167833 
L 383.189086 295.644477 
L 384.311134 288.91767 
L 384.792012 287.452476 
L 385.112597 287.050107 
L 385.433183 286.996718 
L 385.914061 287.318516 
L 387.677279 289.28107 
L 390.241961 291.890842 
L 391.203717 292.532711 
L 392.325766 292.992452 
L 393.768399 293.30828 
L 396.172789 293.575544 
L 399.859519 293.753391 
L 407.393272 293.827428 
L 413.644685 293.835026 
L 413.96527 317.78395 
L 414.446148 336.70329 
L 414.927026 354.313082 
L 416.529952 427.069128 
L 416.850537 430.677639 
L 417.01083 430.919636 
L 417.171122 430.32175 
L 417.491708 427.272329 
L 418.453463 413.033776 
L 418.774049 376.576558 
L 419.254927 360.479519 
L 419.735804 342.339467 
L 420.69756 301.530969 
L 421.018145 295.850334 
L 421.338731 294.250342 
L 421.499023 294.44913 
L 421.819609 295.815124 
L 422.460779 298.691419 
L 422.781364 299.129724 
L 422.941657 299.020017 
L 423.262242 298.16792 
L 423.74312 295.644565 
L 424.865168 288.917769 
L 425.346046 287.452572 
L 425.666632 287.0502 
L 425.987217 286.996806 
L 426.468095 287.318596 
L 428.231314 289.28112 
L 430.795996 291.890862 
L 431.757751 292.532725 
L 432.8798 292.992461 
L 434.322433 293.308286 
L 436.726823 293.575546 
L 440.413553 293.753392 
L 447.947306 293.827428 
L 453.557548 293.834725 
L 453.878134 317.783347 
L 454.359011 336.702704 
L 454.839889 354.312632 
L 456.442816 427.068807 
L 456.763401 430.677238 
L 456.923693 430.919196 
L 457.083986 430.321275 
L 457.404571 427.271803 
L 458.366327 413.03326 
L 458.686912 376.576145 
L 459.16779 360.4792 
L 459.648668 342.339242 
L 460.610424 301.530865 
L 460.931009 295.850243 
L 461.251594 294.250259 
L 461.411887 294.449051 
L 461.732472 295.815054 
L 462.373643 298.691368 
L 462.694228 299.12968 
L 462.854521 299.019975 
L 463.175106 298.167881 
L 463.655984 295.644525 
L 464.778032 288.917724 
L 465.25891 287.452529 
L 465.579495 287.050158 
L 465.90008 286.996766 
L 466.380958 287.31856 
L 468.144177 289.281098 
L 470.708859 291.890853 
L 471.670615 292.532719 
L 472.792663 292.992457 
L 474.235297 293.308283 
L 476.639686 293.575545 
L 480.326417 293.753391 
L 487.86017 293.827428 
L 493.630705 293.834806 
L 493.95129 317.783509 
L 494.432168 336.702861 
L 494.913046 354.312752 
L 496.515972 427.068893 
L 496.836557 430.677345 
L 496.99685 430.919314 
L 497.157142 430.321403 
L 497.477728 427.271944 
L 498.439483 413.033399 
L 498.760069 376.576256 
L 499.240946 360.479285 
L 499.721824 342.339302 
L 500.68358 301.530893 
L 501.004165 295.850267 
L 501.324751 294.250281 
L 501.485043 294.449072 
L 501.805628 295.815072 
L 502.446799 298.691382 
L 502.767384 299.129692 
L 502.927677 299.019986 
L 503.248262 298.167891 
L 503.72914 295.644536 
L 504.851188 288.917736 
L 505.332066 287.45254 
L 505.652651 287.050169 
L 505.973237 286.996777 
L 506.454115 287.318569 
L 508.217333 289.281104 
L 510.782015 291.890856 
L 511.743771 292.53272 
L 512.86582 292.992458 
L 514.308453 293.308284 
L 516.712843 293.575545 
L 520.399573 293.753391 
L 527.933326 293.827428 
L 533.864153 293.834883 
L 534.184739 317.783663 
L 534.665617 336.703011 
L 535.146494 354.312868 
L 536.749421 427.068975 
L 537.070006 430.677448 
L 537.230299 430.919426 
L 537.390591 430.321524 
L 537.711176 427.272078 
L 538.672932 413.033531 
L 538.993517 376.576361 
L 539.474395 360.479367 
L 539.955273 342.33936 
L 540.917029 301.53092 
L 541.237614 295.85029 
L 541.558199 294.250302 
L 541.718492 294.449092 
L 542.039077 295.81509 
L 542.680248 298.691395 
L 543.000833 299.129703 
L 543.161126 299.019997 
L 543.481711 298.167901 
L 543.962589 295.644546 
L 545.084637 288.917748 
L 545.565515 287.452552 
L 545.8861 287.05018 
L 546.206686 286.996787 
L 546.687563 287.318579 
L 548.450782 289.28111 
L 551.015464 291.890858 
L 551.97722 292.532722 
L 553.099268 292.992459 
L 554.541902 293.308284 
L 556.946291 293.575546 
L 560.633022 293.753391 
L 568.166775 293.827428 
L 574.257895 293.834956 
L 574.57848 317.783809 
L 575.059358 336.703154 
L 575.540236 354.312978 
L 577.143162 427.069053 
L 577.463747 430.677546 
L 577.62404 430.919533 
L 577.784333 430.32164 
L 578.104918 427.272207 
L 579.066674 413.033656 
L 579.387259 376.576462 
L 579.868137 360.479445 
L 580.349015 342.339414 
L 581.31077 301.530945 
L 581.631356 295.850313 
L 581.951941 294.250322 
L 582.112234 294.449111 
L 582.432819 295.815107 
L 583.073989 298.691407 
L 583.394575 299.129714 
L 583.554867 299.020007 
L 583.875452 298.167911 
L 584.35633 295.644556 
L 585.478379 288.917759 
L 585.959257 287.452562 
L 586.279842 287.05019 
L 586.600427 286.996797 
L 587.081305 287.318587 
L 588.844524 289.281115 
L 591.409206 291.89086 
L 592.370962 292.532723 
L 593.49301 292.99246 
L 594.935644 293.308285 
L 597.340033 293.575546 
L 601.026763 293.753392 
L 608.560517 293.827428 
L 613.209003 293.834157 
L 613.529588 317.782205 
L 614.010466 336.701593 
L 614.491344 354.311777 
L 616.09427 427.068197 
L 616.414855 430.676475 
L 616.575148 430.918358 
L 616.735441 430.320371 
L 617.056026 427.2708 
L 618.017782 413.032275 
L 618.338367 376.575355 
L 618.819245 360.47859 
L 619.300123 342.338812 
L 620.261878 301.530667 
L 620.582464 295.850069 
L 620.903049 294.250101 
L 621.063341 294.448901 
L 621.383927 295.814922 
L 622.025097 298.691272 
L 622.345682 299.129596 
L 622.505975 299.019895 
L 622.82656 298.167806 
L 623.307438 295.644449 
L 624.429487 288.917638 
L 624.910364 287.452445 
L 625.23095 287.050078 
L 625.551535 286.99669 
L 626.032413 287.318491 
L 627.795632 289.281054 
L 630.360314 291.890836 
L 631.322069 292.532707 
L 632.444118 292.992449 
L 633.886751 293.308278 
L 636.291141 293.575543 
L 639.977871 293.753391 
L 647.511625 293.827428 
L 653.92333 293.835092 
L 654.243915 317.784084 
L 654.724793 336.703421 
L 655.205671 354.313183 
L 656.808597 427.069199 
L 657.129182 430.677728 
L 657.289475 430.919733 
L 657.449767 430.321856 
L 657.770353 427.272446 
L 658.732108 413.033891 
L 659.052694 376.57665 
L 659.533571 360.47959 
L 660.014449 342.339517 
L 660.976205 301.530993 
L 661.29679 295.850354 
L 661.617376 294.25036 
L 661.777668 294.449147 
L 662.098253 295.815139 
L 662.739424 298.691431 
L 663.060009 299.129734 
L 663.220302 299.020026 
L 663.540887 298.167929 
L 664.021765 295.644574 
L 665.143813 288.917779 
L 665.624691 287.452582 
L 665.945276 287.05021 
L 666.265862 286.996815 
L 666.74674 287.318604 
L 668.509958 289.281126 
L 671.07464 291.890864 
L 672.036396 292.532726 
L 673.158445 292.992462 
L 674.601078 293.308286 
L 677.005468 293.575546 
L 680.692198 293.753392 
L 688.225951 293.827428 
L 694.156778 293.834883 
L 694.477364 317.783663 
L 694.958242 336.703011 
L 695.439119 354.312868 
L 697.042046 427.068975 
L 697.362631 430.677448 
L 697.522924 430.919426 
L 697.683216 430.321524 
L 698.003801 427.272078 
L 698.965557 413.033531 
L 699.286142 376.576361 
L 699.76702 360.479367 
L 700.247898 342.33936 
L 701.209654 301.53092 
L 701.530239 295.85029 
L 701.850824 294.250302 
L 702.011117 294.449092 
L 702.331702 295.81509 
L 702.972873 298.691395 
L 703.293458 299.129703 
L 703.453751 299.019997 
L 703.774336 298.167901 
L 704.255214 295.644546 
L 705.377262 288.917748 
L 705.85814 287.452552 
L 706.178725 287.05018 
L 706.499311 286.996787 
L 706.980188 287.318579 
L 708.743407 289.28111 
L 711.308089 291.890858 
L 712.269845 292.532722 
L 713.391893 292.992459 
L 714.834527 293.308284 
L 717.238916 293.575546 
L 720.925647 293.753391 
L 728.4594 293.827428 
L 734.069642 293.834725 
L 734.390227 317.783347 
L 734.871105 336.702704 
L 735.351983 354.312632 
L 736.954909 427.068807 
L 737.275495 430.677238 
L 737.435787 430.919196 
L 737.59608 430.321275 
L 737.916665 427.271803 
L 738.878421 413.03326 
L 739.199006 376.576145 
L 739.679884 360.4792 
L 740.160762 342.339242 
L 741.122518 301.530865 
L 741.443103 295.850243 
L 741.763688 294.250259 
L 741.923981 294.449051 
L 742.244566 295.815054 
L 742.885736 298.691368 
L 743.206322 299.12968 
L 743.366614 299.019975 
L 743.6872 298.167881 
L 744.168077 295.644525 
L 745.290126 288.917724 
L 745.771004 287.452529 
L 746.091589 287.050158 
L 746.412174 286.996766 
L 746.893052 287.31856 
L 748.656271 289.281098 
L 751.220953 291.890853 
L 752.182709 292.532719 
L 753.304757 292.992457 
L 754.747391 293.308283 
L 757.15178 293.575545 
L 760.83851 293.753391 
L 768.372264 293.827428 
L 773.822213 293.834641 
L 774.142798 317.783178 
L 774.623676 336.70254 
L 775.104554 354.312505 
L 776.70748 427.068717 
L 777.028066 430.677125 
L 777.188358 430.919072 
L 777.348651 430.321142 
L 777.669236 427.271655 
L 778.630992 413.033115 
L 778.951577 376.576028 
L 779.432455 360.47911 
L 779.913333 342.339178 
L 780.875089 301.530836 
L 781.195674 295.850217 
L 781.516259 294.250235 
L 781.676552 294.449029 
L 781.997137 295.815034 
L 782.638307 298.691354 
L 782.958893 299.129668 
L 783.119185 299.019963 
L 783.439771 298.16787 
L 783.920648 295.644514 
L 785.042697 288.917711 
L 785.523575 287.452516 
L 785.84416 287.050146 
L 786.164745 286.996755 
L 786.645623 287.31855 
L 788.408842 289.281091 
L 790.973524 291.890851 
L 791.93528 292.532717 
L 793.057328 292.992456 
L 794.499962 293.308282 
L 796.904351 293.575545 
L 800.591081 293.753391 
L 808.124835 293.827428 
L 813.414491 293.834553 
L 813.735077 317.783001 
L 814.215955 336.702368 
L 814.696832 354.312373 
L 816.299759 427.068622 
L 816.620344 430.677007 
L 816.780637 430.918942 
L 816.940929 430.321002 
L 817.261514 427.2715 
L 818.22327 413.032962 
L 818.543855 376.575906 
L 819.024733 360.479016 
L 819.505611 342.339112 
L 820.467367 301.530805 
L 820.787952 295.85019 
L 821.108537 294.250211 
L 821.26883 294.449005 
L 821.589415 295.815014 
L 822.230586 298.691339 
L 822.551171 299.129655 
L 822.711464 299.019951 
L 823.032049 298.167858 
L 823.512927 295.644502 
L 824.634975 288.917698 
L 825.115853 287.452503 
L 825.436438 287.050134 
L 825.757024 286.996743 
L 826.237901 287.318539 
L 828.00112 289.281084 
L 830.565802 291.890848 
L 831.527558 292.532715 
L 832.649606 292.992455 
L 834.09224 293.308282 
L 836.496629 293.575544 
L 840.18336 293.753391 
L 847.717113 293.827428 
L 854.609696 293.835274 
L 854.930281 317.78445 
L 855.411159 336.703777 
L 855.892037 354.313456 
L 857.494963 427.069394 
L 857.815549 430.677971 
L 857.975841 430.92 
L 858.136134 430.322144 
L 858.456719 427.272764 
L 859.418475 413.034203 
L 859.73906 376.5769 
L 860.219938 360.479783 
L 860.700816 342.339653 
L 861.662572 301.531056 
L 861.983157 295.85041 
L 862.303742 294.250411 
L 862.464035 294.449195 
L 862.78462 295.815181 
L 863.42579 298.691461 
L 863.746376 299.129761 
L 863.906668 299.020052 
L 864.227254 298.167953 
L 864.708131 295.644598 
L 865.83018 288.917806 
L 866.311058 287.452609 
L 866.631643 287.050235 
L 866.952228 286.996839 
L 867.433106 287.318626 
L 869.196325 289.281139 
L 871.761007 291.89087 
L 872.722763 292.53273 
L 873.844811 292.992464 
L 875.287445 293.308288 
L 877.691834 293.575547 
L 881.378564 293.753392 
L 888.912318 293.827428 
L 894.362267 293.834641 
L 894.682852 317.783178 
L 895.16373 336.70254 
L 895.644608 354.312506 
L 897.247534 427.068717 
L 897.56812 430.677125 
L 897.728412 430.919072 
L 897.888705 430.321142 
L 898.20929 427.271655 
L 899.171046 413.033115 
L 899.491631 376.576028 
L 899.972509 360.47911 
L 900.453387 342.339178 
L 901.415143 301.530836 
L 901.735728 295.850217 
L 902.056313 294.250235 
L 902.216606 294.449029 
L 902.537191 295.815034 
L 903.178361 298.691354 
L 903.498947 299.129668 
L 903.659239 299.019963 
L 903.979825 298.16787 
L 904.460702 295.644514 
L 905.582751 288.917711 
L 906.063629 287.452516 
L 906.384214 287.050146 
L 906.704799 286.996755 
L 907.185677 287.31855 
L 908.948896 289.281091 
L 911.513578 291.890851 
L 912.475334 292.532717 
L 913.597382 292.992456 
L 915.040016 293.308282 
L 917.444405 293.575545 
L 921.131135 293.753391 
L 928.664889 293.827428 
L 933.794253 293.834461 
L 933.954545 307.955465 
L 933.954545 307.955465 
" clip-path="url(#p43a7428789)" style="fill: none; stroke: #1f77b4; stroke-width: 1.5; stroke-linecap: square"/>
   </g>
   <g id="line2d_15">
    <path d="M 173.045455 78.12 
L 177.693941 78.12 
L 177.854233 173.299849 
L 213.278903 173.299849 
L 213.439196 78.12 
L 218.087682 78.12 
L 218.247975 173.299849 
L 253.99323 173.299849 
L 254.153523 78.12 
L 258.802009 78.12 
L 258.962302 173.299849 
L 293.585509 173.299849 
L 293.745801 78.12 
L 298.394287 78.12 
L 298.55458 173.299849 
L 333.818957 173.299849 
L 333.97925 78.12 
L 338.627736 78.12 
L 338.788029 173.299849 
L 373.090651 173.299849 
L 373.250943 78.12 
L 377.899429 78.12 
L 378.059722 173.299849 
L 413.644685 173.299849 
L 413.804977 78.12 
L 418.453463 78.12 
L 418.613756 173.299849 
L 453.557548 173.299849 
L 453.717841 78.12 
L 458.366327 78.12 
L 458.52662 173.299849 
L 493.630705 173.299849 
L 493.790997 78.12 
L 498.439483 78.12 
L 498.599776 173.299849 
L 533.864153 173.299849 
L 534.024446 78.12 
L 538.672932 78.12 
L 538.833225 173.299849 
L 574.257895 173.299849 
L 574.418188 78.12 
L 579.066674 78.12 
L 579.226966 173.299849 
L 613.209003 173.299849 
L 613.369295 78.12 
L 618.017782 78.12 
L 618.178074 173.299849 
L 653.92333 173.299849 
L 654.083622 78.12 
L 658.732108 78.12 
L 658.892401 173.299849 
L 694.156778 173.299849 
L 694.317071 78.12 
L 698.965557 78.12 
L 699.12585 173.299849 
L 734.069642 173.299849 
L 734.229935 78.12 
L 738.878421 78.12 
L 739.038713 173.299849 
L 773.822213 173.299849 
L 773.982506 78.12 
L 778.630992 78.12 
L 778.791284 173.299849 
L 813.414491 173.299849 
L 813.574784 78.12 
L 818.22327 78.12 
L 818.383563 173.299849 
L 854.609696 173.299849 
L 854.769989 78.12 
L 859.418475 78.12 
L 859.578767 173.299849 
L 894.362267 173.299849 
L 894.52256 78.12 
L 899.171046 78.12 
L 899.331338 173.299849 
L 933.794253 173.299849 
L 933.954545 78.12 
L 933.954545 78.12 
" clip-path="url(#p43a7428789)" style="fill: none; stroke: #ff7f0e; stroke-width: 1.5; stroke-linecap: square"/>
   </g>
   <g id="line2d_16">
    <path d="M 929.466352 173.299849 
" clip-path="url(#p43a7428789)" style="fill: none; stroke: #000000; stroke-width: 1.5; stroke-linecap: square"/>
    <defs>
     <path id="mdb1effb2be" d="M 0 1 
C 0.265203 1 0.51958 0.894634 0.707107 0.707107 
C 0.894634 0.51958 1 0.265203 1 0 
C 1 -0.265203 0.894634 -0.51958 0.707107 -0.707107 
C 0.51958 -0.894634 0.265203 -1 0 -1 
C -0.265203 -1 -0.51958 -0.894634 -0.707107 -0.707107 
C -0.894634 -0.51958 -1 -0.265203 -1 0 
C -1 0.265203 -0.894634 0.51958 -0.707107 0.707107 
C -0.51958 0.894634 -0.265203 1 0 1 
z
" style="stroke: #000000"/>
    </defs>
    <g clip-path="url(#p43a7428789)">
     <use xlink:href="#mdb1effb2be" x="173.045455" y="78.12" style="stroke: #000000"/>
     <use xlink:href="#mdb1effb2be" x="178.174819" y="173.299849" style="stroke: #000000"/>
     <use xlink:href="#mdb1effb2be" x="183.14389" y="173.299849" style="stroke: #000000"/>
     <use xlink:href="#mdb1effb2be" x="188.112961" y="78.12" style="stroke: #000000"/>
     <use xlink:href="#mdb1effb2be" x="193.082033" y="173.299849" style="stroke: #000000"/>
     <use xlink:href="#mdb1effb2be" x="198.211397" y="173.299849" style="stroke: #000000"/>
     <use xlink:href="#mdb1effb2be" x="203.180468" y="78.12" style="stroke: #000000"/>
     <use xlink:href="#mdb1effb2be" x="208.149539" y="173.299849" style="stroke: #000000"/>
     <use xlink:href="#mdb1effb2be" x="213.118611" y="78.12" style="stroke: #000000"/>
     <use xlink:href="#mdb1effb2be" x="218.247975" y="173.299849" style="stroke: #000000"/>
     <use xlink:href="#mdb1effb2be" x="223.217046" y="173.299849" style="stroke: #000000"/>
     <use xlink:href="#mdb1effb2be" x="228.186118" y="78.12" style="stroke: #000000"/>
     <use xlink:href="#mdb1effb2be" x="233.155189" y="173.299849" style="stroke: #000000"/>
     <use xlink:href="#mdb1effb2be" x="238.284553" y="173.299849" style="stroke: #000000"/>
     <use xlink:href="#mdb1effb2be" x="243.253624" y="78.12" style="stroke: #000000"/>
     <use xlink:href="#mdb1effb2be" x="248.222696" y="173.299849" style="stroke: #000000"/>
     <use xlink:href="#mdb1effb2be" x="253.191767" y="78.12" style="stroke: #000000"/>
     <use xlink:href="#mdb1effb2be" x="258.321131" y="173.299849" style="stroke: #000000"/>
     <use xlink:href="#mdb1effb2be" x="263.290202" y="173.299849" style="stroke: #000000"/>
     <use xlink:href="#mdb1effb2be" x="268.259274" y="78.12" style="stroke: #000000"/>
     <use xlink:href="#mdb1effb2be" x="273.228345" y="173.299849" style="stroke: #000000"/>
     <use xlink:href="#mdb1effb2be" x="278.357709" y="173.299849" style="stroke: #000000"/>
     <use xlink:href="#mdb1effb2be" x="283.326781" y="78.12" style="stroke: #000000"/>
     <use xlink:href="#mdb1effb2be" x="288.295852" y="173.299849" style="stroke: #000000"/>
     <use xlink:href="#mdb1effb2be" x="293.264923" y="78.12" style="stroke: #000000"/>
     <use xlink:href="#mdb1effb2be" x="298.394287" y="173.299849" style="stroke: #000000"/>
     <use xlink:href="#mdb1effb2be" x="303.363359" y="173.299849" style="stroke: #000000"/>
     <use xlink:href="#mdb1effb2be" x="308.33243" y="78.12" style="stroke: #000000"/>
     <use xlink:href="#mdb1effb2be" x="313.301501" y="173.299849" style="stroke: #000000"/>
     <use xlink:href="#mdb1effb2be" x="318.430865" y="173.299849" style="stroke: #000000"/>
     <use xlink:href="#mdb1effb2be" x="323.399937" y="78.12" style="stroke: #000000"/>
     <use xlink:href="#mdb1effb2be" x="328.369008" y="173.299849" style="stroke: #000000"/>
     <use xlink:href="#mdb1effb2be" x="333.33808" y="78.12" style="stroke: #000000"/>
     <use xlink:href="#mdb1effb2be" x="338.467444" y="173.299849" style="stroke: #000000"/>
     <use xlink:href="#mdb1effb2be" x="343.436515" y="173.299849" style="stroke: #000000"/>
     <use xlink:href="#mdb1effb2be" x="348.405586" y="78.12" style="stroke: #000000"/>
     <use xlink:href="#mdb1effb2be" x="353.374658" y="173.299849" style="stroke: #000000"/>
     <use xlink:href="#mdb1effb2be" x="358.504022" y="173.299849" style="stroke: #000000"/>
     <use xlink:href="#mdb1effb2be" x="363.473093" y="78.12" style="stroke: #000000"/>
     <use xlink:href="#mdb1effb2be" x="368.442164" y="173.299849" style="stroke: #000000"/>
     <use xlink:href="#mdb1effb2be" x="373.411236" y="78.12" style="stroke: #000000"/>
     <use xlink:href="#mdb1effb2be" x="378.5406" y="173.299849" style="stroke: #000000"/>
     <use xlink:href="#mdb1effb2be" x="383.509671" y="173.299849" style="stroke: #000000"/>
     <use xlink:href="#mdb1effb2be" x="388.478743" y="78.12" style="stroke: #000000"/>
     <use xlink:href="#mdb1effb2be" x="393.447814" y="173.299849" style="stroke: #000000"/>
     <use xlink:href="#mdb1effb2be" x="398.577178" y="173.299849" style="stroke: #000000"/>
     <use xlink:href="#mdb1effb2be" x="403.546249" y="78.12" style="stroke: #000000"/>
     <use xlink:href="#mdb1effb2be" x="408.515321" y="173.299849" style="stroke: #000000"/>
     <use xlink:href="#mdb1effb2be" x="413.484392" y="78.12" style="stroke: #000000"/>
     <use xlink:href="#mdb1effb2be" x="418.613756" y="173.299849" style="stroke: #000000"/>
     <use xlink:href="#mdb1effb2be" x="423.582827" y="173.299849" style="stroke: #000000"/>
     <use xlink:href="#mdb1effb2be" x="428.551899" y="78.12" style="stroke: #000000"/>
     <use xlink:href="#mdb1effb2be" x="433.52097" y="173.299849" style="stroke: #000000"/>
     <use xlink:href="#mdb1effb2be" x="438.650334" y="173.299849" style="stroke: #000000"/>
     <use xlink:href="#mdb1effb2be" x="443.619406" y="78.12" style="stroke: #000000"/>
     <use xlink:href="#mdb1effb2be" x="448.588477" y="173.299849" style="stroke: #000000"/>
     <use xlink:href="#mdb1effb2be" x="453.557548" y="78.12" style="stroke: #000000"/>
     <use xlink:href="#mdb1effb2be" x="458.686912" y="173.299849" style="stroke: #000000"/>
     <use xlink:href="#mdb1effb2be" x="463.655984" y="173.299849" style="stroke: #000000"/>
     <use xlink:href="#mdb1effb2be" x="468.625055" y="78.12" style="stroke: #000000"/>
     <use xlink:href="#mdb1effb2be" x="473.594126" y="173.299849" style="stroke: #000000"/>
     <use xlink:href="#mdb1effb2be" x="478.72349" y="173.299849" style="stroke: #000000"/>
     <use xlink:href="#mdb1effb2be" x="483.692562" y="78.12" style="stroke: #000000"/>
     <use xlink:href="#mdb1effb2be" x="488.661633" y="173.299849" style="stroke: #000000"/>
     <use xlink:href="#mdb1effb2be" x="493.630705" y="78.12" style="stroke: #000000"/>
     <use xlink:href="#mdb1effb2be" x="498.760069" y="173.299849" style="stroke: #000000"/>
     <use xlink:href="#mdb1effb2be" x="503.72914" y="173.299849" style="stroke: #000000"/>
     <use xlink:href="#mdb1effb2be" x="508.698211" y="78.12" style="stroke: #000000"/>
     <use xlink:href="#mdb1effb2be" x="513.667283" y="173.299849" style="stroke: #000000"/>
     <use xlink:href="#mdb1effb2be" x="518.796647" y="173.299849" style="stroke: #000000"/>
     <use xlink:href="#mdb1effb2be" x="523.765718" y="78.12" style="stroke: #000000"/>
     <use xlink:href="#mdb1effb2be" x="528.734789" y="173.299849" style="stroke: #000000"/>
     <use xlink:href="#mdb1effb2be" x="533.703861" y="78.12" style="stroke: #000000"/>
     <use xlink:href="#mdb1effb2be" x="538.833225" y="173.299849" style="stroke: #000000"/>
     <use xlink:href="#mdb1effb2be" x="543.802296" y="173.299849" style="stroke: #000000"/>
     <use xlink:href="#mdb1effb2be" x="548.771368" y="78.12" style="stroke: #000000"/>
     <use xlink:href="#mdb1effb2be" x="553.740439" y="173.299849" style="stroke: #000000"/>
     <use xlink:href="#mdb1effb2be" x="558.869803" y="173.299849" style="stroke: #000000"/>
     <use xlink:href="#mdb1effb2be" x="563.838874" y="78.12" style="stroke: #000000"/>
     <use xlink:href="#mdb1effb2be" x="568.807946" y="173.299849" style="stroke: #000000"/>
     <use xlink:href="#mdb1effb2be" x="573.777017" y="78.12" style="stroke: #000000"/>
     <use xlink:href="#mdb1effb2be" x="578.906381" y="173.299849" style="stroke: #000000"/>
     <use xlink:href="#mdb1effb2be" x="583.875452" y="173.299849" style="stroke: #000000"/>
     <use xlink:href="#mdb1effb2be" x="588.844524" y="78.12" style="stroke: #000000"/>
     <use xlink:href="#mdb1effb2be" x="593.813595" y="173.299849" style="stroke: #000000"/>
     <use xlink:href="#mdb1effb2be" x="598.942959" y="173.299849" style="stroke: #000000"/>
     <use xlink:href="#mdb1effb2be" x="603.912031" y="78.12" style="stroke: #000000"/>
     <use xlink:href="#mdb1effb2be" x="608.881102" y="173.299849" style="stroke: #000000"/>
     <use xlink:href="#mdb1effb2be" x="613.850173" y="78.12" style="stroke: #000000"/>
     <use xlink:href="#mdb1effb2be" x="618.979537" y="173.299849" style="stroke: #000000"/>
     <use xlink:href="#mdb1effb2be" x="623.948609" y="173.299849" style="stroke: #000000"/>
     <use xlink:href="#mdb1effb2be" x="628.91768" y="78.12" style="stroke: #000000"/>
     <use xlink:href="#mdb1effb2be" x="633.886751" y="173.299849" style="stroke: #000000"/>
     <use xlink:href="#mdb1effb2be" x="639.016115" y="173.299849" style="stroke: #000000"/>
     <use xlink:href="#mdb1effb2be" x="643.985187" y="78.12" style="stroke: #000000"/>
     <use xlink:href="#mdb1effb2be" x="648.954258" y="173.299849" style="stroke: #000000"/>
     <use xlink:href="#mdb1effb2be" x="653.92333" y="78.12" style="stroke: #000000"/>
     <use xlink:href="#mdb1effb2be" x="659.052694" y="173.299849" style="stroke: #000000"/>
     <use xlink:href="#mdb1effb2be" x="664.021765" y="173.299849" style="stroke: #000000"/>
     <use xlink:href="#mdb1effb2be" x="668.990836" y="78.12" style="stroke: #000000"/>
     <use xlink:href="#mdb1effb2be" x="673.959908" y="173.299849" style="stroke: #000000"/>
     <use xlink:href="#mdb1effb2be" x="679.089272" y="173.299849" style="stroke: #000000"/>
     <use xlink:href="#mdb1effb2be" x="684.058343" y="78.12" style="stroke: #000000"/>
     <use xlink:href="#mdb1effb2be" x="689.027414" y="173.299849" style="stroke: #000000"/>
     <use xlink:href="#mdb1effb2be" x="693.996486" y="78.12" style="stroke: #000000"/>
     <use xlink:href="#mdb1effb2be" x="699.12585" y="173.299849" style="stroke: #000000"/>
     <use xlink:href="#mdb1effb2be" x="704.094921" y="173.299849" style="stroke: #000000"/>
     <use xlink:href="#mdb1effb2be" x="709.063993" y="78.12" style="stroke: #000000"/>
     <use xlink:href="#mdb1effb2be" x="714.033064" y="173.299849" style="stroke: #000000"/>
     <use xlink:href="#mdb1effb2be" x="719.162428" y="173.299849" style="stroke: #000000"/>
     <use xlink:href="#mdb1effb2be" x="724.131499" y="78.12" style="stroke: #000000"/>
     <use xlink:href="#mdb1effb2be" x="729.100571" y="173.299849" style="stroke: #000000"/>
     <use xlink:href="#mdb1effb2be" x="734.069642" y="78.12" style="stroke: #000000"/>
     <use xlink:href="#mdb1effb2be" x="739.199006" y="173.299849" style="stroke: #000000"/>
     <use xlink:href="#mdb1effb2be" x="744.168077" y="173.299849" style="stroke: #000000"/>
     <use xlink:href="#mdb1effb2be" x="749.137149" y="78.12" style="stroke: #000000"/>
     <use xlink:href="#mdb1effb2be" x="754.10622" y="173.299849" style="stroke: #000000"/>
     <use xlink:href="#mdb1effb2be" x="759.235584" y="173.299849" style="stroke: #000000"/>
     <use xlink:href="#mdb1effb2be" x="764.204656" y="78.12" style="stroke: #000000"/>
     <use xlink:href="#mdb1effb2be" x="769.173727" y="173.299849" style="stroke: #000000"/>
     <use xlink:href="#mdb1effb2be" x="774.142798" y="78.12" style="stroke: #000000"/>
     <use xlink:href="#mdb1effb2be" x="779.272162" y="173.299849" style="stroke: #000000"/>
     <use xlink:href="#mdb1effb2be" x="784.241234" y="173.299849" style="stroke: #000000"/>
     <use xlink:href="#mdb1effb2be" x="789.210305" y="78.12" style="stroke: #000000"/>
     <use xlink:href="#mdb1effb2be" x="794.179376" y="173.299849" style="stroke: #000000"/>
     <use xlink:href="#mdb1effb2be" x="799.30874" y="173.299849" style="stroke: #000000"/>
     <use xlink:href="#mdb1effb2be" x="804.277812" y="78.12" style="stroke: #000000"/>
     <use xlink:href="#mdb1effb2be" x="809.246883" y="173.299849" style="stroke: #000000"/>
     <use xlink:href="#mdb1effb2be" x="814.215955" y="78.12" style="stroke: #000000"/>
     <use xlink:href="#mdb1effb2be" x="819.345319" y="173.299849" style="stroke: #000000"/>
     <use xlink:href="#mdb1effb2be" x="824.31439" y="173.299849" style="stroke: #000000"/>
     <use xlink:href="#mdb1effb2be" x="829.283461" y="78.12" style="stroke: #000000"/>
     <use xlink:href="#mdb1effb2be" x="834.252533" y="173.299849" style="stroke: #000000"/>
     <use xlink:href="#mdb1effb2be" x="839.381897" y="173.299849" style="stroke: #000000"/>
     <use xlink:href="#mdb1effb2be" x="844.350968" y="78.12" style="stroke: #000000"/>
     <use xlink:href="#mdb1effb2be" x="849.320039" y="173.299849" style="stroke: #000000"/>
     <use xlink:href="#mdb1effb2be" x="854.289111" y="78.12" style="stroke: #000000"/>
     <use xlink:href="#mdb1effb2be" x="859.418475" y="173.299849" style="stroke: #000000"/>
     <use xlink:href="#mdb1effb2be" x="864.387546" y="173.299849" style="stroke: #000000"/>
     <use xlink:href="#mdb1effb2be" x="869.356618" y="78.12" style="stroke: #000000"/>
     <use xlink:href="#mdb1effb2be" x="874.325689" y="173.299849" style="stroke: #000000"/>
     <use xlink:href="#mdb1effb2be" x="879.455053" y="173.299849" style="stroke: #000000"/>
     <use xlink:href="#mdb1effb2be" x="884.424124" y="78.12" style="stroke: #000000"/>
     <use xlink:href="#mdb1effb2be" x="889.393196" y="173.299849" style="stroke: #000000"/>
     <use xlink:href="#mdb1effb2be" x="894.362267" y="78.12" style="stroke: #000000"/>
     <use xlink:href="#mdb1effb2be" x="899.491631" y="173.299849" style="stroke: #000000"/>
     <use xlink:href="#mdb1effb2be" x="904.460702" y="173.299849" style="stroke: #000000"/>
     <use xlink:href="#mdb1effb2be" x="909.429774" y="78.12" style="stroke: #000000"/>
     <use xlink:href="#mdb1effb2be" x="914.398845" y="173.299849" style="stroke: #000000"/>
     <use xlink:href="#mdb1effb2be" x="919.528209" y="173.299849" style="stroke: #000000"/>
     <use xlink:href="#mdb1effb2be" x="924.497281" y="78.12" style="stroke: #000000"/>
     <use xlink:href="#mdb1effb2be" x="929.466352" y="173.299849" style="stroke: #000000"/>
    </g>
   </g>
   <g id="patch_3">
    <path d="M 135 448.56 
L 135 60.48 
" style="fill: none; stroke: #000000; stroke-width: 0.8; stroke-linejoin: miter; stroke-linecap: square"/>
   </g>
   <g id="patch_4">
    <path d="M 972 448.56 
L 972 60.48 
" style="fill: none; stroke: #000000; stroke-width: 0.8; stroke-linejoin: miter; stroke-linecap: square"/>
   </g>
   <g id="patch_5">
    <path d="M 135 448.56 
L 972 448.56 
" style="fill: none; stroke: #000000; stroke-width: 0.8; stroke-linejoin: miter; stroke-linecap: square"/>
   </g>
   <g id="patch_6">
    <path d="M 135 60.48 
L 972 60.48 
" style="fill: none; stroke: #000000; stroke-width: 0.8; stroke-linejoin: miter; stroke-linecap: square"/>
   </g>
   <g id="legend_1">
    <g id="patch_7">
     <path d="M 142 443.56 
L 211.084375 443.56 
Q 213.084375 443.56 213.084375 441.56 
L 213.084375 397.969375 
Q 213.084375 395.969375 211.084375 395.969375 
L 142 395.969375 
Q 140 395.969375 140 397.969375 
L 140 441.56 
Q 140 443.56 142 443.56 
z
" style="fill: #ffffff; opacity: 0.8; stroke: #cccccc; stroke-linejoin: miter"/>
    </g>
    <g id="line2d_17">
     <path d="M 144 404.067813 
L 154 404.067813 
L 164 404.067813 
" style="fill: none; stroke: #1f77b4; stroke-width: 1.5; stroke-linecap: square"/>
    </g>
    <g id="text_15">
     <!-- nw_0 -->
     <g transform="translate(172 407.567813) scale(0.1 -0.1)">
      <defs>
       <path id="DejaVuSans-6e" d="M 3513 2113 
L 3513 0 
L 2938 0 
L 2938 2094 
Q 2938 2591 2744 2837 
Q 2550 3084 2163 3084 
Q 1697 3084 1428 2787 
Q 1159 2491 1159 1978 
L 1159 0 
L 581 0 
L 581 3500 
L 1159 3500 
L 1159 2956 
Q 1366 3272 1645 3428 
Q 1925 3584 2291 3584 
Q 2894 3584 3203 3211 
Q 3513 2838 3513 2113 
z
" transform="scale(0.015625)"/>
       <path id="DejaVuSans-77" d="M 269 3500 
L 844 3500 
L 1563 769 
L 2278 3500 
L 2956 3500 
L 3675 769 
L 4391 3500 
L 4966 3500 
L 4050 0 
L 3372 0 
L 2619 2869 
L 1863 0 
L 1184 0 
L 269 3500 
z
" transform="scale(0.015625)"/>
       <path id="DejaVuSans-5f" d="M 3263 -1063 
L 3263 -1509 
L -63 -1509 
L -63 -1063 
L 3263 -1063 
z
" transform="scale(0.015625)"/>
      </defs>
      <use xlink:href="#DejaVuSans-6e"/>
      <use xlink:href="#DejaVuSans-77" x="63.378906"/>
      <use xlink:href="#DejaVuSans-5f" x="145.166016"/>
      <use xlink:href="#DejaVuSans-30" x="195.166016"/>
     </g>
    </g>
    <g id="line2d_18">
     <path d="M 144 419.024063 
L 154 419.024063 
L 164 419.024063 
" style="fill: none; stroke: #ff7f0e; stroke-width: 1.5; stroke-linecap: square"/>
    </g>
    <g id="text_16">
     <!-- input_0 -->
     <g transform="translate(172 422.524063) scale(0.1 -0.1)">
      <defs>
       <path id="DejaVuSans-69" d="M 603 3500 
L 1178 3500 
L 1178 0 
L 603 0 
L 603 3500 
z
M 603 4863 
L 1178 4863 
L 1178 4134 
L 603 4134 
L 603 4863 
z
" transform="scale(0.015625)"/>
       <path id="DejaVuSans-70" d="M 1159 525 
L 1159 -1331 
L 581 -1331 
L 581 3500 
L 1159 3500 
L 1159 2969 
Q 1341 3281 1617 3432 
Q 1894 3584 2278 3584 
Q 2916 3584 3314 3078 
Q 3713 2572 3713 1747 
Q 3713 922 3314 415 
Q 2916 -91 2278 -91 
Q 1894 -91 1617 61 
Q 1341 213 1159 525 
z
M 3116 1747 
Q 3116 2381 2855 2742 
Q 2594 3103 2138 3103 
Q 1681 3103 1420 2742 
Q 1159 2381 1159 1747 
Q 1159 1113 1420 752 
Q 1681 391 2138 391 
Q 2594 391 2855 752 
Q 3116 1113 3116 1747 
z
" transform="scale(0.015625)"/>
       <path id="DejaVuSans-75" d="M 544 1381 
L 544 3500 
L 1119 3500 
L 1119 1403 
Q 1119 906 1312 657 
Q 1506 409 1894 409 
Q 2359 409 2629 706 
Q 2900 1003 2900 1516 
L 2900 3500 
L 3475 3500 
L 3475 0 
L 2900 0 
L 2900 538 
Q 2691 219 2414 64 
Q 2138 -91 1772 -91 
Q 1169 -91 856 284 
Q 544 659 544 1381 
z
M 1991 3584 
L 1991 3584 
z
" transform="scale(0.015625)"/>
      </defs>
      <use xlink:href="#DejaVuSans-69"/>
      <use xlink:href="#DejaVuSans-6e" x="27.783203"/>
      <use xlink:href="#DejaVuSans-70" x="91.162109"/>
      <use xlink:href="#DejaVuSans-75" x="154.638672"/>
      <use xlink:href="#DejaVuSans-74" x="218.017578"/>
      <use xlink:href="#DejaVuSans-5f" x="257.226562"/>
      <use xlink:href="#DejaVuSans-30" x="307.226562"/>
     </g>
    </g>
    <g id="line2d_19">
     <path d="M 144 433.980312 
L 154 433.980312 
L 164 433.980312 
" style="fill: none; stroke: #000000; stroke-width: 1.5; stroke-linecap: square"/>
     <g>
      <use xlink:href="#mdb1effb2be" x="154" y="433.980312" style="stroke: #000000"/>
     </g>
    </g>
    <g id="text_17">
     <!-- target -->
     <g transform="translate(172 437.480312) scale(0.1 -0.1)">
      <defs>
       <path id="DejaVuSans-61" d="M 2194 1759 
Q 1497 1759 1228 1600 
Q 959 1441 959 1056 
Q 959 750 1161 570 
Q 1363 391 1709 391 
Q 2188 391 2477 730 
Q 2766 1069 2766 1631 
L 2766 1759 
L 2194 1759 
z
M 3341 1997 
L 3341 0 
L 2766 0 
L 2766 531 
Q 2569 213 2275 61 
Q 1981 -91 1556 -91 
Q 1019 -91 701 211 
Q 384 513 384 1019 
Q 384 1609 779 1909 
Q 1175 2209 1959 2209 
L 2766 2209 
L 2766 2266 
Q 2766 2663 2505 2880 
Q 2244 3097 1772 3097 
Q 1472 3097 1187 3025 
Q 903 2953 641 2809 
L 641 3341 
Q 956 3463 1253 3523 
Q 1550 3584 1831 3584 
Q 2591 3584 2966 3190 
Q 3341 2797 3341 1997 
z
" transform="scale(0.015625)"/>
       <path id="DejaVuSans-72" d="M 2631 2963 
Q 2534 3019 2420 3045 
Q 2306 3072 2169 3072 
Q 1681 3072 1420 2755 
Q 1159 2438 1159 1844 
L 1159 0 
L 581 0 
L 581 3500 
L 1159 3500 
L 1159 2956 
Q 1341 3275 1631 3429 
Q 1922 3584 2338 3584 
Q 2397 3584 2469 3576 
Q 2541 3569 2628 3553 
L 2631 2963 
z
" transform="scale(0.015625)"/>
       <path id="DejaVuSans-67" d="M 2906 1791 
Q 2906 2416 2648 2759 
Q 2391 3103 1925 3103 
Q 1463 3103 1205 2759 
Q 947 2416 947 1791 
Q 947 1169 1205 825 
Q 1463 481 1925 481 
Q 2391 481 2648 825 
Q 2906 1169 2906 1791 
z
M 3481 434 
Q 3481 -459 3084 -895 
Q 2688 -1331 1869 -1331 
Q 1566 -1331 1297 -1286 
Q 1028 -1241 775 -1147 
L 775 -588 
Q 1028 -725 1275 -790 
Q 1522 -856 1778 -856 
Q 2344 -856 2625 -561 
Q 2906 -266 2906 331 
L 2906 616 
Q 2728 306 2450 153 
Q 2172 0 1784 0 
Q 1141 0 747 490 
Q 353 981 353 1791 
Q 353 2603 747 3093 
Q 1141 3584 1784 3584 
Q 2172 3584 2450 3431 
Q 2728 3278 2906 2969 
L 2906 3500 
L 3481 3500 
L 3481 434 
z
" transform="scale(0.015625)"/>
       <path id="DejaVuSans-65" d="M 3597 1894 
L 3597 1613 
L 953 1613 
Q 991 1019 1311 708 
Q 1631 397 2203 397 
Q 2534 397 2845 478 
Q 3156 559 3463 722 
L 3463 178 
Q 3153 47 2828 -22 
Q 2503 -91 2169 -91 
Q 1331 -91 842 396 
Q 353 884 353 1716 
Q 353 2575 817 3079 
Q 1281 3584 2069 3584 
Q 2775 3584 3186 3129 
Q 3597 2675 3597 1894 
z
M 3022 2063 
Q 3016 2534 2758 2815 
Q 2500 3097 2075 3097 
Q 1594 3097 1305 2825 
Q 1016 2553 972 2059 
L 3022 2063 
z
" transform="scale(0.015625)"/>
      </defs>
      <use xlink:href="#DejaVuSans-74"/>
      <use xlink:href="#DejaVuSans-61" x="39.208984"/>
      <use xlink:href="#DejaVuSans-72" x="100.488281"/>
      <use xlink:href="#DejaVuSans-67" x="139.851562"/>
      <use xlink:href="#DejaVuSans-65" x="203.328125"/>
      <use xlink:href="#DejaVuSans-74" x="264.851562"/>
     </g>
    </g>
   </g>
  </g>
 </g>
 <defs>
  <clipPath id="p43a7428789">
   <rect x="135" y="60.48" width="837" height="388.08"/>
  </clipPath>
 </defs>
</svg>
