<?xml version="1.0" encoding="utf-8" standalone="no"?>
<!DOCTYPE svg PUBLIC "-//W3C//DTD SVG 1.1//EN"
  "http://www.w3.org/Graphics/SVG/1.1/DTD/svg11.dtd">
<svg xmlns:xlink="http://www.w3.org/1999/xlink" width="1080pt" height="504pt" viewBox="0 0 1080 504" xmlns="http://www.w3.org/2000/svg" version="1.1">
 <metadata>
  <rdf:RDF xmlns:dc="http://purl.org/dc/elements/1.1/" xmlns:cc="http://creativecommons.org/ns#" xmlns:rdf="http://www.w3.org/1999/02/22-rdf-syntax-ns#">
   <cc:Work>
    <dc:type rdf:resource="http://purl.org/dc/dcmitype/StillImage"/>
    <dc:date>2024-05-09T11:13:15.288386</dc:date>
    <dc:format>image/svg+xml</dc:format>
    <dc:creator>
     <cc:Agent>
      <dc:title>Matplotlib v3.7.1, https://matplotlib.org/</dc:title>
     </cc:Agent>
    </dc:creator>
   </cc:Work>
  </rdf:RDF>
 </metadata>
 <defs>
  <style type="text/css">*{stroke-linejoin: round; stroke-linecap: butt}</style>
 </defs>
 <g id="figure_1">
  <g id="patch_1">
   <path d="M 0 504 
L 1080 504 
L 1080 0 
L 0 0 
z
" style="fill: #ffffff"/>
  </g>
  <g id="axes_1">
   <g id="patch_2">
    <path d="M 135 448.56 
L 972 448.56 
L 972 60.48 
L 135 60.48 
z
" style="fill: #ffffff"/>
   </g>
   <g id="matplotlib.axis_1">
    <g id="xtick_1">
     <g id="line2d_1">
      <defs>
       <path id="m6dd9574a0e" d="M 0 0 
L 0 3.5 
" style="stroke: #000000; stroke-width: 0.8"/>
      </defs>
      <g>
       <use xlink:href="#m6dd9574a0e" x="173.045455" y="448.56" style="stroke: #000000; stroke-width: 0.8"/>
      </g>
     </g>
     <g id="text_1">
      <!-- 0 -->
      <g transform="translate(169.864205 463.158437) scale(0.1 -0.1)">
       <defs>
        <path id="DejaVuSans-30" d="M 2034 4250 
Q 1547 4250 1301 3770 
Q 1056 3291 1056 2328 
Q 1056 1369 1301 889 
Q 1547 409 2034 409 
Q 2525 409 2770 889 
Q 3016 1369 3016 2328 
Q 3016 3291 2770 3770 
Q 2525 4250 2034 4250 
z
M 2034 4750 
Q 2819 4750 3233 4129 
Q 3647 3509 3647 2328 
Q 3647 1150 3233 529 
Q 2819 -91 2034 -91 
Q 1250 -91 836 529 
Q 422 1150 422 2328 
Q 422 3509 836 4129 
Q 1250 4750 2034 4750 
z
" transform="scale(0.015625)"/>
       </defs>
       <use xlink:href="#DejaVuSans-30"/>
      </g>
     </g>
    </g>
    <g id="xtick_2">
     <g id="line2d_2">
      <g>
       <use xlink:href="#m6dd9574a0e" x="333.33808" y="448.56" style="stroke: #000000; stroke-width: 0.8"/>
      </g>
     </g>
     <g id="text_2">
      <!-- 1000 -->
      <g transform="translate(320.61308 463.158437) scale(0.1 -0.1)">
       <defs>
        <path id="DejaVuSans-31" d="M 794 531 
L 1825 531 
L 1825 4091 
L 703 3866 
L 703 4441 
L 1819 4666 
L 2450 4666 
L 2450 531 
L 3481 531 
L 3481 0 
L 794 0 
L 794 531 
z
" transform="scale(0.015625)"/>
       </defs>
       <use xlink:href="#DejaVuSans-31"/>
       <use xlink:href="#DejaVuSans-30" x="63.623047"/>
       <use xlink:href="#DejaVuSans-30" x="127.246094"/>
       <use xlink:href="#DejaVuSans-30" x="190.869141"/>
      </g>
     </g>
    </g>
    <g id="xtick_3">
     <g id="line2d_3">
      <g>
       <use xlink:href="#m6dd9574a0e" x="493.630705" y="448.56" style="stroke: #000000; stroke-width: 0.8"/>
      </g>
     </g>
     <g id="text_3">
      <!-- 2000 -->
      <g transform="translate(480.905705 463.158437) scale(0.1 -0.1)">
       <defs>
        <path id="DejaVuSans-32" d="M 1228 531 
L 3431 531 
L 3431 0 
L 469 0 
L 469 531 
Q 828 903 1448 1529 
Q 2069 2156 2228 2338 
Q 2531 2678 2651 2914 
Q 2772 3150 2772 3378 
Q 2772 3750 2511 3984 
Q 2250 4219 1831 4219 
Q 1534 4219 1204 4116 
Q 875 4013 500 3803 
L 500 4441 
Q 881 4594 1212 4672 
Q 1544 4750 1819 4750 
Q 2544 4750 2975 4387 
Q 3406 4025 3406 3419 
Q 3406 3131 3298 2873 
Q 3191 2616 2906 2266 
Q 2828 2175 2409 1742 
Q 1991 1309 1228 531 
z
" transform="scale(0.015625)"/>
       </defs>
       <use xlink:href="#DejaVuSans-32"/>
       <use xlink:href="#DejaVuSans-30" x="63.623047"/>
       <use xlink:href="#DejaVuSans-30" x="127.246094"/>
       <use xlink:href="#DejaVuSans-30" x="190.869141"/>
      </g>
     </g>
    </g>
    <g id="xtick_4">
     <g id="line2d_4">
      <g>
       <use xlink:href="#m6dd9574a0e" x="653.92333" y="448.56" style="stroke: #000000; stroke-width: 0.8"/>
      </g>
     </g>
     <g id="text_4">
      <!-- 3000 -->
      <g transform="translate(641.19833 463.158437) scale(0.1 -0.1)">
       <defs>
        <path id="DejaVuSans-33" d="M 2597 2516 
Q 3050 2419 3304 2112 
Q 3559 1806 3559 1356 
Q 3559 666 3084 287 
Q 2609 -91 1734 -91 
Q 1441 -91 1130 -33 
Q 819 25 488 141 
L 488 750 
Q 750 597 1062 519 
Q 1375 441 1716 441 
Q 2309 441 2620 675 
Q 2931 909 2931 1356 
Q 2931 1769 2642 2001 
Q 2353 2234 1838 2234 
L 1294 2234 
L 1294 2753 
L 1863 2753 
Q 2328 2753 2575 2939 
Q 2822 3125 2822 3475 
Q 2822 3834 2567 4026 
Q 2313 4219 1838 4219 
Q 1578 4219 1281 4162 
Q 984 4106 628 3988 
L 628 4550 
Q 988 4650 1302 4700 
Q 1616 4750 1894 4750 
Q 2613 4750 3031 4423 
Q 3450 4097 3450 3541 
Q 3450 3153 3228 2886 
Q 3006 2619 2597 2516 
z
" transform="scale(0.015625)"/>
       </defs>
       <use xlink:href="#DejaVuSans-33"/>
       <use xlink:href="#DejaVuSans-30" x="63.623047"/>
       <use xlink:href="#DejaVuSans-30" x="127.246094"/>
       <use xlink:href="#DejaVuSans-30" x="190.869141"/>
      </g>
     </g>
    </g>
    <g id="xtick_5">
     <g id="line2d_5">
      <g>
       <use xlink:href="#m6dd9574a0e" x="814.215955" y="448.56" style="stroke: #000000; stroke-width: 0.8"/>
      </g>
     </g>
     <g id="text_5">
      <!-- 4000 -->
      <g transform="translate(801.490955 463.158437) scale(0.1 -0.1)">
       <defs>
        <path id="DejaVuSans-34" d="M 2419 4116 
L 825 1625 
L 2419 1625 
L 2419 4116 
z
M 2253 4666 
L 3047 4666 
L 3047 1625 
L 3713 1625 
L 3713 1100 
L 3047 1100 
L 3047 0 
L 2419 0 
L 2419 1100 
L 313 1100 
L 313 1709 
L 2253 4666 
z
" transform="scale(0.015625)"/>
       </defs>
       <use xlink:href="#DejaVuSans-34"/>
       <use xlink:href="#DejaVuSans-30" x="63.623047"/>
       <use xlink:href="#DejaVuSans-30" x="127.246094"/>
       <use xlink:href="#DejaVuSans-30" x="190.869141"/>
      </g>
     </g>
    </g>
    <g id="text_6">
     <!-- t -->
     <g transform="translate(551.539844 476.836563) scale(0.1 -0.1)">
      <defs>
       <path id="DejaVuSans-74" d="M 1172 4494 
L 1172 3500 
L 2356 3500 
L 2356 3053 
L 1172 3053 
L 1172 1153 
Q 1172 725 1289 603 
Q 1406 481 1766 481 
L 2356 481 
L 2356 0 
L 1766 0 
Q 1100 0 847 248 
Q 594 497 594 1153 
L 594 3053 
L 172 3053 
L 172 3500 
L 594 3500 
L 594 4494 
L 1172 4494 
z
" transform="scale(0.015625)"/>
      </defs>
      <use xlink:href="#DejaVuSans-74"/>
     </g>
    </g>
   </g>
   <g id="matplotlib.axis_2">
    <g id="ytick_1">
     <g id="line2d_6">
      <defs>
       <path id="m68922448f6" d="M 0 0 
L -3.5 0 
" style="stroke: #000000; stroke-width: 0.8"/>
      </defs>
      <g>
       <use xlink:href="#m68922448f6" x="135" y="408.896106" style="stroke: #000000; stroke-width: 0.8"/>
      </g>
     </g>
     <g id="text_7">
      <!-- −0.2 -->
      <g transform="translate(103.717187 412.695325) scale(0.1 -0.1)">
       <defs>
        <path id="DejaVuSans-2212" d="M 678 2272 
L 4684 2272 
L 4684 1741 
L 678 1741 
L 678 2272 
z
" transform="scale(0.015625)"/>
        <path id="DejaVuSans-2e" d="M 684 794 
L 1344 794 
L 1344 0 
L 684 0 
L 684 794 
z
" transform="scale(0.015625)"/>
       </defs>
       <use xlink:href="#DejaVuSans-2212"/>
       <use xlink:href="#DejaVuSans-30" x="83.789062"/>
       <use xlink:href="#DejaVuSans-2e" x="147.412109"/>
       <use xlink:href="#DejaVuSans-32" x="179.199219"/>
      </g>
     </g>
    </g>
    <g id="ytick_2">
     <g id="line2d_7">
      <g>
       <use xlink:href="#m68922448f6" x="135" y="359.400295" style="stroke: #000000; stroke-width: 0.8"/>
      </g>
     </g>
     <g id="text_8">
      <!-- 0.0 -->
      <g transform="translate(112.096875 363.199513) scale(0.1 -0.1)">
       <use xlink:href="#DejaVuSans-30"/>
       <use xlink:href="#DejaVuSans-2e" x="63.623047"/>
       <use xlink:href="#DejaVuSans-30" x="95.410156"/>
      </g>
     </g>
    </g>
    <g id="ytick_3">
     <g id="line2d_8">
      <g>
       <use xlink:href="#m68922448f6" x="135" y="309.904483" style="stroke: #000000; stroke-width: 0.8"/>
      </g>
     </g>
     <g id="text_9">
      <!-- 0.2 -->
      <g transform="translate(112.096875 313.703702) scale(0.1 -0.1)">
       <use xlink:href="#DejaVuSans-30"/>
       <use xlink:href="#DejaVuSans-2e" x="63.623047"/>
       <use xlink:href="#DejaVuSans-32" x="95.410156"/>
      </g>
     </g>
    </g>
    <g id="ytick_4">
     <g id="line2d_9">
      <g>
       <use xlink:href="#m68922448f6" x="135" y="260.408672" style="stroke: #000000; stroke-width: 0.8"/>
      </g>
     </g>
     <g id="text_10">
      <!-- 0.4 -->
      <g transform="translate(112.096875 264.207891) scale(0.1 -0.1)">
       <use xlink:href="#DejaVuSans-30"/>
       <use xlink:href="#DejaVuSans-2e" x="63.623047"/>
       <use xlink:href="#DejaVuSans-34" x="95.410156"/>
      </g>
     </g>
    </g>
    <g id="ytick_5">
     <g id="line2d_10">
      <g>
       <use xlink:href="#m68922448f6" x="135" y="210.91286" style="stroke: #000000; stroke-width: 0.8"/>
      </g>
     </g>
     <g id="text_11">
      <!-- 0.6 -->
      <g transform="translate(112.096875 214.712079) scale(0.1 -0.1)">
       <defs>
        <path id="DejaVuSans-36" d="M 2113 2584 
Q 1688 2584 1439 2293 
Q 1191 2003 1191 1497 
Q 1191 994 1439 701 
Q 1688 409 2113 409 
Q 2538 409 2786 701 
Q 3034 994 3034 1497 
Q 3034 2003 2786 2293 
Q 2538 2584 2113 2584 
z
M 3366 4563 
L 3366 3988 
Q 3128 4100 2886 4159 
Q 2644 4219 2406 4219 
Q 1781 4219 1451 3797 
Q 1122 3375 1075 2522 
Q 1259 2794 1537 2939 
Q 1816 3084 2150 3084 
Q 2853 3084 3261 2657 
Q 3669 2231 3669 1497 
Q 3669 778 3244 343 
Q 2819 -91 2113 -91 
Q 1303 -91 875 529 
Q 447 1150 447 2328 
Q 447 3434 972 4092 
Q 1497 4750 2381 4750 
Q 2619 4750 2861 4703 
Q 3103 4656 3366 4563 
z
" transform="scale(0.015625)"/>
       </defs>
       <use xlink:href="#DejaVuSans-30"/>
       <use xlink:href="#DejaVuSans-2e" x="63.623047"/>
       <use xlink:href="#DejaVuSans-36" x="95.410156"/>
      </g>
     </g>
    </g>
    <g id="ytick_6">
     <g id="line2d_11">
      <g>
       <use xlink:href="#m68922448f6" x="135" y="161.417049" style="stroke: #000000; stroke-width: 0.8"/>
      </g>
     </g>
     <g id="text_12">
      <!-- 0.8 -->
      <g transform="translate(112.096875 165.216268) scale(0.1 -0.1)">
       <defs>
        <path id="DejaVuSans-38" d="M 2034 2216 
Q 1584 2216 1326 1975 
Q 1069 1734 1069 1313 
Q 1069 891 1326 650 
Q 1584 409 2034 409 
Q 2484 409 2743 651 
Q 3003 894 3003 1313 
Q 3003 1734 2745 1975 
Q 2488 2216 2034 2216 
z
M 1403 2484 
Q 997 2584 770 2862 
Q 544 3141 544 3541 
Q 544 4100 942 4425 
Q 1341 4750 2034 4750 
Q 2731 4750 3128 4425 
Q 3525 4100 3525 3541 
Q 3525 3141 3298 2862 
Q 3072 2584 2669 2484 
Q 3125 2378 3379 2068 
Q 3634 1759 3634 1313 
Q 3634 634 3220 271 
Q 2806 -91 2034 -91 
Q 1263 -91 848 271 
Q 434 634 434 1313 
Q 434 1759 690 2068 
Q 947 2378 1403 2484 
z
M 1172 3481 
Q 1172 3119 1398 2916 
Q 1625 2713 2034 2713 
Q 2441 2713 2670 2916 
Q 2900 3119 2900 3481 
Q 2900 3844 2670 4047 
Q 2441 4250 2034 4250 
Q 1625 4250 1398 4047 
Q 1172 3844 1172 3481 
z
" transform="scale(0.015625)"/>
       </defs>
       <use xlink:href="#DejaVuSans-30"/>
       <use xlink:href="#DejaVuSans-2e" x="63.623047"/>
       <use xlink:href="#DejaVuSans-38" x="95.410156"/>
      </g>
     </g>
    </g>
    <g id="ytick_7">
     <g id="line2d_12">
      <g>
       <use xlink:href="#m68922448f6" x="135" y="111.921238" style="stroke: #000000; stroke-width: 0.8"/>
      </g>
     </g>
     <g id="text_13">
      <!-- 1.0 -->
      <g transform="translate(112.096875 115.720456) scale(0.1 -0.1)">
       <use xlink:href="#DejaVuSans-31"/>
       <use xlink:href="#DejaVuSans-2e" x="63.623047"/>
       <use xlink:href="#DejaVuSans-30" x="95.410156"/>
      </g>
     </g>
    </g>
    <g id="ytick_8">
     <g id="line2d_13">
      <g>
       <use xlink:href="#m68922448f6" x="135" y="62.425426" style="stroke: #000000; stroke-width: 0.8"/>
      </g>
     </g>
     <g id="text_14">
      <!-- 1.2 -->
      <g transform="translate(112.096875 66.224645) scale(0.1 -0.1)">
       <use xlink:href="#DejaVuSans-31"/>
       <use xlink:href="#DejaVuSans-2e" x="63.623047"/>
       <use xlink:href="#DejaVuSans-32" x="95.410156"/>
      </g>
     </g>
    </g>
   </g>
   <g id="line2d_14">
    <path d="M 173.045455 222.23394 
L 173.36604 129.450911 
L 173.526332 124.436297 
L 173.686625 129.962843 
L 174.808673 195.337529 
L 175.289551 208.273785 
L 175.610137 212.561437 
L 175.770429 213.556172 
L 175.930722 213.82376 
L 176.091014 213.390734 
L 176.4116 210.556177 
L 176.892478 202.133477 
L 177.693941 181.843522 
L 178.014526 377.208048 
L 178.335111 425.593471 
L 178.495404 426.081091 
L 178.815989 409.378675 
L 179.617452 356.514849 
L 180.09833 338.495506 
L 180.418915 333.373095 
L 180.579208 332.648403 
L 180.739501 332.953327 
L 181.060086 335.910935 
L 182.502719 355.721024 
L 182.823305 357.615407 
L 183.14389 358.472297 
L 183.304183 358.571783 
L 183.464475 358.482255 
L 183.78506 357.804617 
L 184.105646 356.524043 
L 184.586524 353.439305 
L 185.067401 348.619672 
L 185.548279 341.451091 
L 186.029157 331.249581 
L 186.670328 312.022176 
L 187.471791 278.728464 
L 190.036473 159.095841 
L 190.517351 148.947276 
L 190.837936 146.212104 
L 190.998229 146.122048 
L 191.158521 146.896438 
L 191.479106 151.03094 
L 191.799692 158.525641 
L 192.28057 175.593814 
L 192.92174 207.399418 
L 194.043788 277.343577 
L 195.326129 355.136676 
L 196.127593 390.606939 
L 196.60847 404.506914 
L 197.089348 412.087421 
L 197.409934 413.475187 
L 197.570226 413.061717 
L 197.890811 410.050175 
L 198.211397 404.21721 
L 198.692275 390.569956 
L 199.333445 364.641727 
L 200.295201 315.091372 
L 201.898127 231.984289 
L 202.69959 202.180986 
L 203.180468 190.189482 
L 203.661346 183.000632 
L 203.981931 180.882476 
L 204.142224 180.605301 
L 204.302516 180.833308 
L 204.623102 182.74012 
L 204.943687 186.448622 
L 205.424565 194.966329 
L 206.065735 210.634829 
L 207.508369 253.953614 
L 208.630417 284.311135 
L 209.43188 299.820841 
L 210.073051 307.711205 
L 210.553929 311.052494 
L 210.874514 312.169936 
L 211.195099 312.510229 
L 211.355392 312.42456 
L 211.675977 311.820697 
L 212.156855 310.089183 
L 213.278903 304.664052 
L 213.599489 107.71946 
L 213.759781 83.268008 
L 213.920074 79.49403 
L 214.240659 96.380827 
L 215.042122 149.225029 
L 215.683293 175.521804 
L 216.164171 187.539187 
L 216.484756 192.083289 
L 216.805341 193.864411 
L 216.965634 193.765133 
L 217.125926 193.056834 
L 217.446512 190.04018 
L 217.92739 182.591159 
L 218.087682 179.645231 
L 218.408267 375.595947 
L 218.728853 424.73121 
L 218.889145 425.617984 
L 219.209731 409.680225 
L 220.171486 350.487256 
L 220.652364 336.312752 
L 220.972949 333.206336 
L 221.133242 333.236075 
L 221.293535 334.101213 
L 221.61412 337.589671 
L 222.736168 352.377797 
L 223.217046 355.536998 
L 223.537631 356.449137 
L 223.697924 356.604967 
L 223.858217 356.584169 
L 224.178802 356.058997 
L 224.499387 354.913685 
L 224.980265 351.911074 
L 225.461143 346.939543 
L 225.942021 339.338536 
L 226.422899 328.439082 
L 227.064069 307.991863 
L 227.865532 273.082275 
L 230.269922 157.357179 
L 230.7508 145.764314 
L 231.071385 142.053344 
L 231.231677 141.486165 
L 231.39197 141.797183 
L 231.552263 142.991207 
L 231.872848 148.008883 
L 232.353726 161.840798 
L 232.994896 190.593601 
L 233.956652 248.819636 
L 235.719871 360.124411 
L 236.521334 395.678912 
L 237.002212 409.373283 
L 237.322797 414.925032 
L 237.643382 417.497789 
L 237.803675 417.655976 
L 237.963968 417.064623 
L 238.284553 413.667372 
L 238.605138 407.418681 
L 239.086016 393.118749 
L 239.727187 366.331859 
L 240.849235 306.730044 
L 242.291869 231.800323 
L 243.093332 202.10002 
L 243.57421 190.295436 
L 244.055087 183.360411 
L 244.375673 181.436372 
L 244.535965 181.260865 
L 244.696258 181.592336 
L 245.016843 183.707681 
L 245.337428 187.620731 
L 245.818306 196.422703 
L 246.459477 212.396696 
L 249.505037 295.810596 
L 250.146207 305.361695 
L 250.627085 309.846238 
L 251.107963 312.196093 
L 251.428548 312.714932 
L 251.588841 312.700212 
L 251.909426 312.199879 
L 252.390304 310.52592 
L 253.35206 305.62093 
L 253.99323 302.703413 
L 254.313815 105.888708 
L 254.474108 81.635182 
L 254.634401 78.12 
L 254.954986 95.633399 
L 255.756449 150.079881 
L 256.39762 177.308266 
L 256.878497 189.789331 
L 257.199083 194.543449 
L 257.519668 196.462577 
L 257.679961 196.40702 
L 257.840253 195.726512 
L 258.160838 192.720653 
L 258.641716 185.188692 
L 258.802009 182.192506 
L 259.122594 378.047206 
L 259.443179 427.059622 
L 259.603472 427.878717 
L 259.924057 411.79637 
L 260.885813 352.128187 
L 261.366691 337.712119 
L 261.687276 334.447631 
L 261.847569 334.399712 
L 262.007861 335.188367 
L 262.328447 338.528258 
L 263.450495 352.863536 
L 263.931373 355.867105 
L 264.251958 356.688298 
L 264.412251 356.80232 
L 264.572543 356.742077 
L 264.893129 356.144924 
L 265.213714 354.936676 
L 265.694592 351.856716 
L 266.17547 346.829136 
L 266.656348 339.194613 
L 267.137225 328.284927 
L 267.778396 307.859137 
L 268.579859 273.022801 
L 270.984248 157.569648 
L 271.465126 145.99902 
L 271.785712 142.293515 
L 271.946004 141.726258 
L 272.106297 142.035362 
L 272.266589 143.225685 
L 272.587175 148.230857 
L 273.068053 162.032562 
L 273.709223 190.728355 
L 274.670979 248.849988 
L 276.434198 359.98333 
L 277.235661 395.491902 
L 277.716539 409.171195 
L 278.037124 414.718254 
L 278.357709 417.290567 
L 278.518002 417.450088 
L 278.678294 416.861074 
L 278.99888 413.471394 
L 279.319465 407.233857 
L 279.800343 392.95646 
L 280.441513 366.207673 
L 281.563562 306.680722 
L 283.006195 231.827615 
L 283.807658 202.148658 
L 284.288536 190.348496 
L 284.769414 183.411863 
L 285.089999 181.483681 
L 285.250292 181.305268 
L 285.410585 181.633321 
L 285.73117 183.740448 
L 286.051755 187.64371 
L 286.532633 196.428832 
L 287.173804 212.378271 
L 290.219363 295.718156 
L 290.860534 305.271495 
L 291.341412 309.761677 
L 291.82229 312.11995 
L 292.142875 312.645608 
L 292.303168 312.634577 
L 292.623753 312.142035 
L 293.104631 310.480363 
L 293.585509 308.138041 
L 293.906094 110.949702 
L 294.066386 86.13966 
L 294.226679 81.898076 
L 294.386972 87.659669 
L 295.669313 161.12951 
L 296.150191 176.098606 
L 296.631068 185.108666 
L 296.951654 187.823686 
L 297.111946 188.209209 
L 297.272239 187.979044 
L 297.592824 185.847486 
L 298.073702 179.411571 
L 298.394287 173.837378 
L 298.714873 369.99 
L 299.035458 419.3875 
L 299.19575 420.419223 
L 299.516336 404.792077 
L 300.317799 353.867125 
L 300.798677 336.220615 
L 301.119262 331.068586 
L 301.279555 330.273325 
L 301.439847 330.483817 
L 301.760432 333.217735 
L 303.363359 353.82296 
L 303.683944 355.400596 
L 304.004529 356.099409 
L 304.164822 356.166723 
L 304.325114 356.064854 
L 304.6457 355.380381 
L 304.966285 354.044559 
L 305.447163 350.615112 
L 305.928041 344.971906 
L 306.408919 336.428244 
L 306.889796 324.354874 
L 307.530967 302.167905 
L 308.33243 265.36308 
L 310.416234 162.519158 
L 310.897112 148.634645 
L 311.217697 143.222526 
L 311.538283 141.195621 
L 311.698575 141.497545 
L 311.858868 142.685404 
L 312.179453 147.699425 
L 312.660331 161.546519 
L 313.301501 190.353106 
L 314.263257 248.709192 
L 316.026476 360.280742 
L 316.827939 395.923915 
L 317.308817 409.654456 
L 317.629402 415.222348 
L 317.949988 417.804597 
L 318.11028 417.965004 
L 318.270573 417.37419 
L 318.591158 413.973036 
L 318.911743 407.714011 
L 319.392621 393.387469 
L 320.033792 366.547824 
L 321.15584 306.826574 
L 322.598474 231.75203 
L 323.399937 201.999456 
L 323.880815 190.176805 
L 324.361693 183.234147 
L 324.682278 181.310687 
L 324.84257 181.137097 
L 325.002863 181.471522 
L 325.323448 183.59571 
L 325.644034 187.521171 
L 326.124911 196.347384 
L 326.926375 216.9089 
L 329.491057 289.637738 
L 330.132227 301.243947 
L 330.773398 308.746523 
L 331.254275 311.778511 
L 331.574861 312.690625 
L 331.735153 312.850481 
L 331.895446 312.831954 
L 332.216031 312.322754 
L 332.696909 310.633023 
L 333.658665 305.692115 
L 333.818957 304.873221 
L 334.139543 107.734247 
L 334.299835 83.15646 
L 334.460128 79.245888 
L 334.780713 95.850374 
L 335.582176 148.100653 
L 336.223347 174.134141 
L 336.704225 186.06978 
L 337.02481 190.603505 
L 337.345395 192.403499 
L 337.505688 192.323233 
L 337.66598 191.639644 
L 337.986566 188.687508 
L 338.467444 181.365603 
L 338.627736 178.468166 
L 338.948321 374.529889 
L 339.268907 423.767343 
L 339.429199 424.703141 
L 339.749785 408.860967 
L 340.551248 357.30372 
L 341.032126 339.237738 
L 341.352711 333.796753 
L 341.513003 332.855361 
L 341.673296 332.919251 
L 341.833589 333.816657 
L 342.154174 337.363899 
L 343.276222 352.301054 
L 343.7571 355.50201 
L 344.077685 356.436634 
L 344.237978 356.602376 
L 344.398271 356.590705 
L 344.718856 356.081668 
L 345.039441 354.949934 
L 345.520319 351.96321 
L 346.001197 347.002126 
L 346.482075 339.405759 
L 346.962953 328.504841 
L 347.604123 308.04644 
L 348.405586 273.110998 
L 350.809976 157.303938 
L 351.290854 145.704996 
L 351.611439 141.992627 
L 351.771731 141.425524 
L 351.932024 141.737115 
L 352.092317 142.932192 
L 352.412902 147.953317 
L 352.89378 161.793345 
L 353.53495 190.561057 
L 354.496706 248.813475 
L 356.259925 360.158322 
L 357.061388 395.721571 
L 357.542266 409.41769 
L 357.862851 414.969139 
L 358.183436 417.540458 
L 358.343729 417.697517 
L 358.504022 417.104779 
L 358.824607 413.70403 
L 359.145192 407.45097 
L 359.62607 393.143172 
L 360.267241 366.344248 
L 361.389289 306.721333 
L 362.831923 231.77383 
L 363.633386 202.070791 
L 364.114264 190.26709 
L 364.595141 183.334661 
L 364.915727 181.413186 
L 365.076019 181.239181 
L 365.236312 181.572283 
L 365.556897 183.69123 
L 365.877482 187.608247 
L 366.35836 196.416611 
L 366.999531 212.399364 
L 370.045091 295.83803 
L 370.686261 305.388763 
L 371.167139 309.871913 
L 371.648017 312.219616 
L 371.968602 312.736705 
L 372.128895 312.72104 
L 372.44948 312.218721 
L 372.930358 310.541664 
L 373.090651 309.807246 
L 373.411236 112.736042 
L 373.571528 87.892001 
L 373.731821 83.569401 
L 373.892114 89.211511 
L 375.174455 161.130028 
L 375.655333 175.509536 
L 376.13621 184.000877 
L 376.456796 186.422027 
L 376.617088 186.678663 
L 376.777381 186.332526 
L 377.097966 184.009587 
L 377.578844 177.390612 
L 377.899429 171.761941 
L 378.220015 367.889206 
L 378.5406 417.310674 
L 378.700892 418.365686 
L 379.021478 402.801282 
L 379.822941 352.102202 
L 380.303819 334.627995 
L 380.624404 329.603517 
L 380.784697 328.875295 
L 380.944989 329.154627 
L 381.265574 332.030082 
L 382.868501 353.298068 
L 383.189086 354.980105 
L 383.509671 355.772107 
L 383.669964 355.882063 
L 383.830256 355.820387 
L 384.150842 355.209579 
L 384.471427 353.939462 
L 384.952305 350.595809 
L 385.433183 345.024821 
L 385.914061 336.540183 
L 386.394938 324.511744 
L 387.036109 302.360426 
L 387.837572 265.559079 
L 389.921376 162.572263 
L 390.402254 148.646505 
L 390.722839 143.209236 
L 391.043425 141.159967 
L 391.203717 141.451944 
L 391.36401 142.630762 
L 391.684595 147.629597 
L 392.165473 161.461567 
L 392.806643 190.262418 
L 393.768399 248.637181 
L 395.531618 360.290877 
L 396.333081 395.973941 
L 396.813959 409.725326 
L 397.134544 415.305161 
L 397.45513 417.897474 
L 397.615422 418.062134 
L 397.775715 417.475019 
L 398.0963 414.079519 
L 398.416885 407.823722 
L 398.897763 393.497342 
L 399.538934 366.649414 
L 400.660982 306.894533 
L 402.103616 231.760509 
L 402.905079 201.977874 
L 403.385957 190.140671 
L 403.866835 183.186874 
L 404.18742 181.258091 
L 404.347712 181.082497 
L 404.508005 181.415363 
L 404.82859 183.537766 
L 405.149176 187.463193 
L 405.630053 196.292468 
L 406.271224 212.315544 
L 409.316784 295.974937 
L 409.957954 305.548018 
L 410.438832 310.039046 
L 410.91971 312.387199 
L 411.240295 312.900762 
L 411.400588 312.882286 
L 411.721173 312.372451 
L 412.202051 310.680089 
L 413.163807 305.729278 
L 413.644685 303.418781 
L 413.96527 106.460764 
L 414.125563 82.081802 
L 414.285855 78.418267 
L 414.60644 95.599878 
L 415.407904 149.278036 
L 416.049074 176.114799 
L 416.529952 188.433297 
L 416.850537 193.13076 
L 417.171122 195.028624 
L 417.331415 194.97431 
L 417.491708 194.302261 
L 417.812293 191.332878 
L 418.293171 183.896529 
L 418.453463 180.940939 
L 418.774049 376.88021 
L 419.094634 425.978939 
L 419.254927 426.841607 
L 419.575512 410.847349 
L 420.537268 351.44482 
L 421.018145 337.153971 
L 421.338731 333.967513 
L 421.499023 333.956706 
L 421.659316 334.78111 
L 421.979901 338.188196 
L 423.10195 352.711773 
L 423.582827 355.775382 
L 423.903413 356.630852 
L 424.063705 356.760458 
L 424.223998 356.714826 
L 424.544583 356.144083 
L 424.865168 354.958587 
L 425.346046 351.905775 
L 425.826924 346.896421 
L 426.307802 339.270486 
L 426.78868 328.359375 
L 427.42985 307.916815 
L 428.231314 273.040786 
L 430.635703 157.46455 
L 431.116581 145.886382 
L 431.437166 142.180217 
L 431.597459 141.61391 
L 431.757751 141.924787 
L 431.918044 143.117674 
L 432.238629 148.130196 
L 432.719507 161.947786 
L 433.360678 190.671496 
L 434.322433 248.841431 
L 436.085652 360.048393 
L 436.887115 395.574347 
L 437.367993 409.258224 
L 437.688578 414.805897 
L 438.009164 417.376928 
L 438.169456 417.535124 
L 438.329749 416.944352 
L 438.650334 413.549923 
L 438.970919 407.306147 
L 439.451797 393.017087 
L 440.092968 366.249836 
L 441.215016 306.689172 
L 442.65765 231.805373 
L 443.459113 202.120009 
L 443.939991 190.319884 
L 444.420869 183.385954 
L 444.741454 181.460884 
L 444.901747 181.284373 
L 445.062039 181.614534 
L 445.382624 183.726416 
L 445.70321 187.635017 
L 446.184088 196.428867 
L 446.825258 212.390364 
L 449.870818 295.761723 
L 450.511988 305.313063 
L 450.992866 309.80003 
L 451.473744 312.153945 
L 451.794329 312.676232 
L 451.954622 312.663415 
L 452.275207 312.167172 
L 452.756085 310.499821 
L 453.557548 306.44871 
L 453.878134 109.239351 
L 454.038426 84.519914 
L 454.198719 80.418055 
L 454.359011 86.357141 
L 455.641352 161.64023 
L 456.12223 177.190051 
L 456.603108 186.671466 
L 456.923693 189.635278 
L 457.083986 190.12462 
L 457.244279 189.984258 
L 457.404571 189.254948 
L 457.725157 186.253025 
L 458.206034 178.952634 
L 458.366327 176.085267 
L 458.686912 372.21592 
L 459.007498 421.551775 
L 459.16779 422.543561 
L 459.488375 406.823341 
L 460.289839 355.610501 
L 460.770716 337.76524 
L 461.091302 332.473277 
L 461.251594 331.606396 
L 461.411887 331.744506 
L 461.732472 334.332721 
L 463.335398 354.288184 
L 463.655984 355.765757 
L 463.976569 356.375389 
L 464.136862 356.40194 
L 464.297154 356.261694 
L 464.617739 355.507122 
L 464.938325 354.109303 
L 465.419203 350.600557 
L 465.90008 344.893513 
L 466.380958 336.301546 
L 466.861836 324.196188 
L 467.503007 301.993077 
L 468.30447 265.208913 
L 470.388274 162.534517 
L 470.869152 148.687196 
L 471.189737 143.295667 
L 471.510322 141.285314 
L 471.670615 141.593879 
L 471.830908 142.787246 
L 472.151493 147.808836 
L 472.632371 161.658727 
L 473.273541 190.454243 
L 474.235297 248.769219 
L 475.998516 360.23681 
L 476.799979 395.839615 
L 477.280857 409.551523 
L 477.601442 415.109837 
L 477.922027 417.684995 
L 478.08232 417.842831 
L 478.242613 417.25011 
L 478.563198 413.847161 
L 478.883783 407.58903 
L 479.364661 393.268698 
L 480.005831 366.445488 
L 481.12788 306.768553 
L 482.570513 231.756665 
L 483.371977 202.03082 
L 483.852854 190.219412 
L 484.333732 183.283914 
L 484.654318 181.362894 
L 484.81461 181.189829 
L 484.974903 181.524325 
L 485.295488 183.647332 
L 485.616073 187.569948 
L 486.096951 196.389103 
L 486.898414 216.933071 
L 489.463096 289.596973 
L 490.104267 301.193478 
L 490.745437 308.690826 
L 491.226315 311.721865 
L 491.5469 312.63468 
L 491.707193 312.795258 
L 491.867486 312.777684 
L 492.188071 312.271026 
L 492.668949 310.586465 
L 493.630705 305.659037 
L 493.95129 108.468495 
L 494.111582 83.811304 
L 494.271875 79.796652 
L 494.432168 85.841342 
L 495.714509 162.094357 
L 496.195387 177.922949 
L 496.676264 187.616721 
L 496.99685 190.685613 
L 497.157142 191.216598 
L 497.317435 191.110661 
L 497.477728 190.408634 
L 497.798313 187.440376 
L 498.279191 180.141594 
L 498.439483 177.262977 
L 498.760069 373.36667 
L 499.080654 422.658976 
L 499.240946 423.625168 
L 499.561532 407.8482 
L 500.362995 356.471247 
L 500.843873 338.518725 
L 501.164458 333.153475 
L 501.324751 332.249691 
L 501.485043 332.350873 
L 501.805628 334.865724 
L 502.607092 346.41149 
L 503.087969 352.060775 
L 503.568847 355.336201 
L 503.889433 356.313897 
L 504.049725 356.499328 
L 504.210018 356.506182 
L 504.37031 356.347402 
L 504.690896 355.559051 
L 505.011481 354.131553 
L 505.492359 350.58548 
L 505.973237 344.849523 
L 506.454115 336.237228 
L 506.934992 324.120441 
L 507.576163 301.916001 
L 508.377626 265.1502 
L 510.46143 162.567461 
L 510.942308 148.736665 
L 511.262893 143.353421 
L 511.583479 141.348918 
L 511.743771 141.659462 
L 511.904064 142.854172 
L 512.224649 147.876556 
L 512.705527 161.723119 
L 513.346697 190.506824 
L 514.308453 248.793129 
L 516.071672 360.201407 
L 516.873135 395.784178 
L 517.354013 409.487749 
L 517.674598 415.042237 
L 517.995184 417.615021 
L 518.155476 417.772223 
L 518.315769 417.179237 
L 518.636354 413.776854 
L 518.956939 407.520711 
L 519.437817 393.205837 
L 520.078988 366.3938 
L 521.201036 306.742789 
L 522.64367 231.763182 
L 523.445133 202.049424 
L 523.926011 190.242424 
L 524.406889 183.309076 
L 524.727474 181.388254 
L 524.887766 181.214931 
L 525.048059 181.54894 
L 525.368644 183.670326 
L 525.68923 187.590528 
L 526.170107 196.404802 
L 526.971571 216.93828 
L 529.536253 289.570185 
L 530.177423 301.163133 
L 530.818594 308.659366 
L 531.299471 311.69109 
L 531.620057 312.605008 
L 531.780349 312.76631 
L 531.940642 312.749565 
L 532.261227 312.244841 
L 532.742105 310.563732 
L 533.703861 305.644207 
L 533.864153 304.829086 
L 534.184739 107.698216 
L 534.345031 83.124665 
L 534.505324 79.218323 
L 534.825909 95.830893 
L 535.627372 148.096897 
L 536.268543 174.137324 
L 536.749421 186.075235 
L 537.070006 190.609384 
L 537.390591 192.409134 
L 537.550884 192.328547 
L 537.711176 191.644533 
L 538.031762 188.691299 
L 538.51264 181.36737 
L 538.672932 178.469214 
L 538.993517 374.52849 
L 539.314103 423.764256 
L 539.474395 424.699385 
L 539.794981 408.856079 
L 540.596444 357.29644 
L 541.077322 339.229205 
L 541.397907 333.787551 
L 541.558199 332.845897 
L 541.718492 332.909581 
L 541.878785 333.80684 
L 542.19937 337.353967 
L 543.321418 352.292249 
L 543.802296 355.494077 
L 544.122881 356.429305 
L 544.283174 356.595345 
L 544.443467 356.583966 
L 544.764052 356.075484 
L 545.084637 354.944263 
L 545.565515 351.958233 
L 546.046393 346.997769 
L 546.527271 339.40198 
L 547.008149 328.501629 
L 547.649319 308.043996 
L 548.450782 273.109528 
L 550.855172 157.304676 
L 551.33605 145.705946 
L 551.656635 141.993674 
L 551.816927 141.426608 
L 551.97722 141.738229 
L 552.137513 142.933328 
L 552.458098 147.95448 
L 552.938976 161.794509 
L 553.580146 190.56217 
L 554.541902 248.814458 
L 556.305121 360.159112 
L 557.106584 395.722342 
L 557.587462 409.418475 
L 557.908047 414.96994 
L 558.228632 417.541283 
L 558.388925 417.698357 
L 558.549218 417.105633 
L 558.869803 413.704915 
L 559.190388 407.451889 
L 559.671266 393.14414 
L 560.312437 366.345267 
L 561.434485 306.722365 
L 562.877119 231.774683 
L 563.678582 202.071458 
L 564.15946 190.267626 
L 564.640337 183.335055 
L 564.960923 181.413484 
L 565.121215 181.239431 
L 565.281508 181.572485 
L 565.602093 183.691337 
L 565.922678 187.608263 
L 566.403556 196.416502 
L 567.044727 212.399112 
L 570.090287 295.837624 
L 570.731457 305.388421 
L 571.212335 309.871628 
L 571.693213 312.219394 
L 572.013798 312.736527 
L 572.174091 312.720883 
L 572.494676 312.218605 
L 572.975554 310.541606 
L 573.93731 305.630836 
L 574.257895 304.049155 
L 574.57848 107.002537 
L 574.738773 82.525233 
L 574.899065 78.739411 
L 575.219651 95.635723 
L 576.021114 148.614344 
L 576.662284 175.065717 
L 577.143162 187.205594 
L 577.463747 191.829382 
L 577.784333 193.68595 
L 577.944625 193.622218 
L 578.104918 192.947762 
L 578.425503 189.993098 
L 578.906381 182.62146 
L 579.066674 179.697 
L 579.387259 375.699417 
L 579.707844 424.869222 
L 579.868137 425.769268 
L 580.188722 409.852543 
L 581.150478 350.693231 
L 581.631356 336.52148 
L 581.951941 333.411313 
L 582.112234 333.437491 
L 582.272526 334.298003 
L 582.593111 337.774345 
L 583.71516 352.502486 
L 584.196038 355.634376 
L 584.516623 356.529325 
L 584.676916 356.676984 
L 584.837208 356.648333 
L 585.157793 356.108461 
L 585.478379 354.94985 
L 585.959257 351.92997 
L 586.440134 346.944424 
L 586.921012 339.332714 
L 587.40189 328.425958 
L 588.043061 307.974387 
L 588.844524 273.067542 
L 591.248913 157.377747 
L 591.729791 145.790482 
L 592.050376 142.08217 
L 592.210669 141.515963 
L 592.370962 141.827703 
L 592.531254 143.022197 
L 592.851839 148.040051 
L 593.332717 161.870375 
L 593.973888 190.617935 
L 594.935644 248.831251 
L 596.698862 360.108578 
L 597.500326 395.652857 
L 597.981203 409.342444 
L 598.301789 414.891661 
L 598.622374 417.462449 
L 598.782667 417.619871 
L 598.942959 417.027903 
L 599.263544 413.629876 
L 599.58413 407.381013 
L 600.065008 393.081929 
L 600.706178 366.298052 
L 601.828226 306.705312 
L 603.27086 231.789438 
L 604.072323 202.095523 
L 604.553201 190.293869 
L 605.034079 183.360983 
L 605.354664 181.437913 
L 605.514957 181.262754 
L 605.675249 181.594484 
L 605.995835 183.710087 
L 606.31642 187.623068 
L 606.797298 196.424388 
L 607.438468 212.396697 
L 610.484028 295.800868 
L 611.125199 305.351514 
L 611.606077 309.836283 
L 612.086954 312.186823 
L 612.40754 312.70635 
L 612.567832 312.692036 
L 612.888418 312.192622 
L 613.209003 311.177405 
L 613.529588 114.347896 
L 613.689881 89.544835 
L 613.850173 85.220028 
L 614.010466 90.821752 
L 615.132514 155.556622 
L 615.613392 171.485482 
L 616.09427 181.360549 
L 616.414855 184.734422 
L 616.575148 185.462125 
L 616.735441 185.568732 
L 616.895733 185.083487 
L 617.216318 182.518702 
L 617.697196 175.636175 
L 618.017782 169.899767 
L 618.338367 365.94712 
L 618.658952 415.349227 
L 618.819245 416.408435 
L 619.13983 400.871848 
L 619.941293 350.324386 
L 620.422171 332.987818 
L 620.742756 328.073112 
L 620.903049 327.404791 
L 621.063341 327.747013 
L 621.383927 330.755555 
L 622.986853 352.689977 
L 623.307438 354.480692 
L 623.628023 355.370098 
L 623.788316 355.524744 
L 623.948609 355.505275 
L 624.269194 354.972128 
L 624.589779 353.771868 
L 624.910364 351.822004 
L 625.391242 347.151637 
L 625.87212 339.789345 
L 626.352998 329.063738 
L 626.994169 308.740757 
L 627.795632 273.811602 
L 630.200021 157.327847 
L 630.680899 145.582763 
L 631.001484 141.787461 
L 631.161777 141.184148 
L 631.322069 141.463334 
L 631.482362 142.629982 
L 631.802947 147.606656 
L 632.283825 161.411732 
L 632.924996 190.19011 
L 633.726459 238.045514 
L 635.810263 368.543386 
L 636.451433 395.992085 
L 636.932311 409.765899 
L 637.252897 415.359713 
L 637.573482 417.964806 
L 637.733774 418.135302 
L 637.894067 417.553601 
L 638.214652 414.16752 
L 638.535238 407.919048 
L 639.016115 393.599302 
L 639.657286 366.751572 
L 640.779334 306.974596 
L 642.221968 231.785133 
L 643.023431 201.969186 
L 643.504309 190.113997 
L 643.985187 183.14483 
L 644.305772 181.207606 
L 644.466065 181.028395 
L 644.626357 181.358066 
L 644.946943 183.475396 
L 645.267528 187.397548 
L 645.748406 196.225306 
L 646.389576 212.252404 
L 649.435136 295.984339 
L 650.076307 305.572432 
L 650.557184 310.072487 
L 651.038062 312.427375 
L 651.358648 312.944068 
L 651.51894 312.926742 
L 651.839525 312.418388 
L 652.320403 310.72628 
L 653.282159 305.76987 
L 653.92333 302.813317 
L 654.243915 105.977433 
L 654.404207 81.713085 
L 654.5645 78.187215 
L 654.885085 95.680448 
L 655.686548 150.088762 
L 656.327719 177.301214 
L 656.808597 189.777715 
L 657.129182 194.531473 
L 657.449767 196.451842 
L 657.61006 196.397366 
L 657.770353 195.718179 
L 658.090938 192.715493 
L 658.571816 185.189012 
L 658.732108 182.194705 
L 659.052694 378.055672 
L 659.373279 427.07231 
L 659.533571 427.893043 
L 659.854157 411.813425 
L 660.815912 352.151772 
L 661.29679 337.738232 
L 661.617376 334.474878 
L 661.777668 334.427314 
L 661.937961 335.21617 
L 662.258546 338.555999 
L 663.380594 352.887282 
L 663.861472 355.888252 
L 664.182058 356.707693 
L 664.34235 356.820861 
L 664.502643 356.759788 
L 664.823228 356.161059 
L 665.143813 354.951359 
L 665.624691 351.869443 
L 666.105569 346.840113 
L 666.586447 339.20396 
L 667.067325 328.292687 
L 667.708495 307.864782 
L 668.509958 273.025838 
L 670.914348 157.567264 
L 671.395226 145.99621 
L 671.715811 142.290532 
L 671.876104 141.723219 
L 672.036396 142.032285 
L 672.196689 143.222586 
L 672.517274 148.22776 
L 672.998152 162.029559 
L 673.639322 190.725587 
L 674.601078 248.847646 
L 676.364297 359.981468 
L 677.16576 395.490029 
L 677.646638 409.169248 
L 677.967223 414.716233 
L 678.287809 417.288458 
L 678.448101 417.447929 
L 678.608394 416.858864 
L 678.928979 413.469078 
L 679.249564 407.231433 
L 679.730442 392.953887 
L 680.371613 366.20495 
L 681.493661 306.677983 
L 682.936295 231.825423 
L 683.737758 202.147008 
L 684.218636 190.347223 
L 684.699514 183.410986 
L 685.020099 181.48307 
L 685.180391 181.304789 
L 685.340684 181.632973 
L 685.661269 183.740354 
L 685.981855 187.643858 
L 686.462732 196.42931 
L 687.103903 212.379112 
L 690.149463 295.719223 
L 690.790633 305.27236 
L 691.271511 309.762366 
L 691.752389 312.120455 
L 692.072974 312.645992 
L 692.233267 312.634901 
L 692.553852 312.142245 
L 693.03473 310.480416 
L 693.996486 305.599178 
L 694.156778 304.78992 
L 694.477364 107.671695 
L 694.637656 83.104047 
L 694.797949 79.203225 
L 695.118534 95.825425 
L 695.919997 148.106566 
L 696.561168 174.150753 
L 697.042046 186.087787 
L 697.362631 190.620129 
L 697.683216 192.417425 
L 697.843509 192.335451 
L 698.003801 191.64998 
L 698.324387 188.693734 
L 698.805265 181.365361 
L 698.965557 178.465814 
L 699.286142 374.521022 
L 699.606728 423.754079 
L 699.76702 424.68817 
L 700.087606 408.84317 
L 700.889069 357.280423 
L 701.369947 339.211883 
L 701.690532 333.769698 
L 701.850824 332.827907 
L 702.011117 332.891546 
L 702.17141 333.788856 
L 702.491995 337.336362 
L 703.614043 352.278086 
L 704.094921 355.481815 
L 704.415506 356.418289 
L 704.575799 356.58493 
L 704.736092 356.574134 
L 705.056677 356.066756 
L 705.377262 354.936549 
L 705.85814 351.951878 
L 706.339018 346.992607 
L 706.819896 339.397886 
L 707.300774 328.498505 
L 707.941944 308.042036 
L 708.743407 273.108792 
L 711.147797 157.305581 
L 711.628675 145.706865 
L 711.94926 141.994572 
L 712.109552 141.427489 
L 712.269845 141.73909 
L 712.430138 142.934168 
L 712.750723 147.955275 
L 713.231601 161.795239 
L 713.872771 190.562845 
L 714.834527 248.81516 
L 716.597746 360.160201 
L 717.399209 395.723695 
L 717.880087 409.419992 
L 718.200672 414.971565 
L 718.521257 417.543009 
L 718.68155 417.70013 
L 718.841843 417.107452 
L 719.162428 413.706816 
L 719.483013 407.453858 
L 719.963891 393.146177 
L 720.605062 366.347321 
L 721.72711 306.724227 
L 723.169744 231.775946 
L 723.971207 202.072296 
L 724.452085 190.268206 
L 724.932962 183.335387 
L 725.253548 181.413661 
L 725.41384 181.239533 
L 725.574133 181.572517 
L 725.894718 183.691239 
L 726.215303 187.608049 
L 726.696181 196.416144 
L 727.337352 212.398625 
L 730.382912 295.837339 
L 731.024082 305.388262 
L 731.50496 309.871562 
L 731.985838 312.219412 
L 732.306423 312.736592 
L 732.466716 312.720971 
L 732.787301 312.21873 
L 733.268179 310.541774 
L 734.069642 306.474562 
L 734.390227 109.258651 
L 734.55052 84.535983 
L 734.710813 80.431006 
L 734.871105 86.367146 
L 736.153446 161.635452 
L 736.634324 177.183729 
L 737.115202 186.665225 
L 737.435787 189.629743 
L 737.59608 190.11958 
L 737.756372 189.979784 
L 737.916665 189.251097 
L 738.23725 186.25053 
L 738.718128 178.952271 
L 738.878421 176.0856 
L 739.199006 372.218357 
L 739.519591 421.555645 
L 739.679884 422.547991 
L 740.000469 406.828704 
L 740.801932 355.617688 
L 741.28281 337.773279 
L 741.603395 332.481721 
L 741.763688 331.614978 
L 741.923981 331.753179 
L 742.244566 334.341426 
L 743.847492 354.294859 
L 744.168077 355.771847 
L 744.488663 356.380908 
L 744.648955 356.407185 
L 744.809248 356.266673 
L 745.129833 355.511598 
L 745.450418 354.113318 
L 745.931296 350.603951 
L 746.412174 344.896352 
L 746.893052 336.303876 
L 747.37393 324.198038 
L 748.0151 301.994323 
L 748.816564 265.20948 
L 750.900368 162.534034 
L 751.381246 148.68663 
L 751.701831 143.295071 
L 752.022416 141.284705 
L 752.182709 141.593268 
L 752.343001 142.786636 
L 752.663587 147.808235 
L 753.144464 161.658149 
L 753.785635 190.453702 
L 754.747391 248.768714 
L 756.51061 360.236239 
L 757.312073 395.838961 
L 757.792951 409.55081 
L 758.113536 415.109082 
L 758.434121 417.684198 
L 758.594414 417.842013 
L 758.754706 417.249272 
L 759.075292 413.846285 
L 759.395877 407.588119 
L 759.876755 393.267747 
L 760.517925 366.444511 
L 761.639974 306.767629 
L 763.082607 231.755986 
L 763.88407 202.030335 
L 764.364948 190.219052 
L 764.845826 183.283679 
L 765.166411 181.362739 
L 765.326704 181.189714 
L 765.486997 181.524247 
L 765.807582 183.647327 
L 766.128167 187.570008 
L 766.609045 196.389249 
L 767.410508 216.933321 
L 769.97519 289.597218 
L 770.616361 301.193667 
L 771.257531 308.690951 
L 771.738409 311.721943 
L 772.058994 312.634727 
L 772.219287 312.795291 
L 772.379579 312.777703 
L 772.700165 312.27102 
L 773.181043 310.586427 
L 773.822213 307.364842 
L 774.142798 110.138223 
L 774.303091 85.358482 
L 774.463384 81.171692 
L 774.623676 87.007406 
L 775.906017 161.312663 
L 776.386895 176.568546 
L 776.867773 185.819589 
L 777.188358 188.665895 
L 777.348651 189.107457 
L 777.508943 188.926652 
L 777.829529 186.87328 
L 778.310407 180.503277 
L 778.630992 174.940414 
L 778.951577 371.092934 
L 779.272162 420.467709 
L 779.432455 421.48287 
L 779.75304 405.81519 
L 780.554503 354.758433 
L 781.035381 337.017953 
L 781.355966 331.798527 
L 781.516259 330.968389 
L 781.676552 331.14338 
L 781.997137 333.805106 
L 783.600063 354.079214 
L 783.920648 355.604909 
L 784.241234 356.257292 
L 784.401526 356.303345 
L 784.561819 356.181435 
L 784.882404 355.460286 
L 785.202989 354.091916 
L 785.683867 350.62054 
L 786.164745 344.943052 
L 786.645623 336.372677 
L 787.126501 324.28053 
L 787.767671 302.081556 
L 788.569135 265.282323 
L 790.652939 162.517009 
L 791.133817 148.651348 
L 791.454402 143.249996 
L 791.774987 141.232042 
L 791.93528 141.537688 
L 792.095572 142.728739 
L 792.416158 147.747511 
L 792.897035 161.597605 
L 793.538206 190.400869 
L 794.499962 248.739353 
L 796.263181 360.261633 
L 797.064644 395.884535 
L 797.545522 409.605363 
L 797.866107 415.168082 
L 798.186692 417.746322 
L 798.346985 417.905187 
L 798.507277 417.313149 
L 798.827863 413.910525 
L 799.148448 407.651349 
L 799.629326 393.327013 
L 800.270496 366.494488 
L 801.392545 306.794145 
L 802.835178 231.751068 
L 803.636641 202.012724 
L 804.117519 190.196403 
L 804.598397 183.25812 
L 804.918982 181.336436 
L 805.079275 181.163389 
L 805.239568 181.498128 
L 805.560153 183.622275 
L 805.880738 187.546839 
L 806.361616 196.370241 
L 807.163079 216.923911 
L 809.727761 289.620355 
L 810.368932 301.221156 
L 811.010102 308.720454 
L 811.49098 311.751446 
L 811.811565 312.663568 
L 811.971858 312.823619 
L 812.13215 312.805407 
L 812.452736 312.297171 
L 812.933614 310.609619 
L 813.414491 308.240195 
L 813.735077 111.033385 
L 813.895369 86.213528 
L 814.055662 81.962088 
L 814.215955 87.71403 
L 815.498296 161.128126 
L 815.979173 176.0881 
L 816.460051 185.094379 
L 816.780637 187.809176 
L 816.940929 188.195126 
L 817.101222 187.965684 
L 817.421807 185.836281 
L 817.902685 179.404775 
L 818.22327 173.833901 
L 818.543855 369.992141 
L 818.864441 419.393549 
L 819.024733 420.426824 
L 819.345319 404.802324 
L 820.146782 353.882987 
L 820.62766 336.239448 
L 820.948245 331.089028 
L 821.108537 330.294409 
L 821.26883 330.505416 
L 821.589415 333.239956 
L 823.192342 353.841708 
L 823.512927 355.418006 
L 823.833512 356.11548 
L 823.993805 356.182141 
L 824.154097 356.079635 
L 824.474683 355.393954 
L 824.795268 354.057017 
L 825.276146 350.626057 
L 825.757024 344.981482 
L 826.237901 336.436522 
L 826.718779 324.361864 
L 827.35995 302.173143 
L 828.161413 265.366119 
L 830.245217 162.517819 
L 830.726095 148.632762 
L 831.04668 143.220379 
L 831.367265 141.193283 
L 831.527558 141.495136 
L 831.687851 142.682939 
L 832.008436 147.69689 
L 832.489314 161.543967 
L 833.130484 190.350649 
L 834.09224 248.706997 
L 835.855459 360.278935 
L 836.656922 395.922135 
L 837.1378 409.652641 
L 837.458385 415.220491 
L 837.77897 417.802685 
L 837.939263 417.963061 
L 838.099556 417.372213 
L 838.420141 413.970986 
L 838.740726 407.711886 
L 839.221604 393.385235 
L 839.862775 366.545478 
L 840.984823 306.824207 
L 842.427457 231.750074 
L 843.22892 201.997923 
L 843.709798 190.175572 
L 844.190675 183.233233 
L 844.511261 181.30999 
L 844.671553 181.136509 
L 844.831846 181.471042 
L 845.152431 183.595442 
L 845.473016 187.521108 
L 845.953894 196.347605 
L 846.755357 216.909511 
L 849.320039 289.638676 
L 849.96121 301.244771 
L 850.60238 308.747185 
L 851.083258 311.779035 
L 851.403844 312.691054 
L 851.564136 312.850862 
L 851.724429 312.832288 
L 852.045014 312.322995 
L 852.525892 310.633135 
L 853.487648 305.692019 
L 854.128818 302.751026 
L 854.609696 301.421436 
L 854.930281 105.08827 
L 855.090574 81.231192 
L 855.250867 78.176516 
L 855.571452 96.698176 
L 856.372915 153.361305 
L 857.014085 181.59581 
L 857.494963 194.411096 
L 857.815549 199.230221 
L 858.136134 201.111152 
L 858.296426 201.003069 
L 858.456719 200.250335 
L 858.777304 197.048301 
L 859.258182 189.119596 
L 859.418475 185.970798 
L 859.73906 381.526705 
L 860.059645 430.246132 
L 860.219938 430.92 
L 860.540523 414.548396 
L 861.502279 354.041981 
L 861.983157 339.250192 
L 862.303742 335.758358 
L 862.464035 335.604142 
L 862.624327 336.29149 
L 862.944913 339.443712 
L 864.066961 353.267445 
L 864.547839 356.109399 
L 864.868424 356.8379 
L 865.028717 356.909649 
L 865.189009 356.809738 
L 865.509595 356.140949 
L 865.83018 354.87151 
L 866.311058 351.720752 
L 866.791936 346.650243 
L 867.272813 339.003248 
L 867.753691 328.11231 
L 868.394862 307.756126 
L 869.196325 273.058275 
L 871.600714 157.961645 
L 872.081592 146.399146 
L 872.402177 142.684766 
L 872.56247 142.108996 
L 872.722763 142.407016 
L 872.883055 143.583815 
L 873.203641 148.555235 
L 873.684518 162.292194 
L 874.325689 190.883685 
L 875.127152 238.399058 
L 877.210956 367.950464 
L 877.852127 395.199814 
L 878.333005 408.871076 
L 878.65359 414.420831 
L 878.974175 417.00194 
L 879.134468 417.168017 
L 879.29476 416.586915 
L 879.615346 413.216817 
L 879.935931 407.003292 
L 880.416809 392.768436 
L 881.057979 366.083636 
L 882.180028 306.666611 
L 883.622661 231.903673 
L 884.424124 202.23791 
L 884.905002 190.433092 
L 885.38588 183.483528 
L 885.706465 181.542813 
L 885.866758 181.35714 
L 886.027051 181.677357 
L 886.347636 183.767363 
L 886.668221 187.652047 
L 887.149099 196.407841 
L 887.790269 212.318463 
L 890.835829 295.575264 
L 891.477 305.139768 
L 891.957878 309.643376 
L 892.438756 312.018197 
L 892.759341 312.556028 
L 892.919633 312.551288 
L 893.240219 312.071513 
L 893.721097 310.428806 
L 894.362267 307.261896 
L 894.682852 110.062469 
L 894.843145 85.296149 
L 895.003438 81.122299 
L 895.16373 86.970218 
L 896.446071 161.335657 
L 896.926949 176.597282 
L 897.407827 185.847341 
L 897.728412 188.690317 
L 897.888705 189.129642 
L 898.048997 188.946313 
L 898.369583 186.887288 
L 898.850461 180.508125 
L 899.171046 174.939239 
L 899.491631 371.082983 
L 899.812216 420.451769 
L 899.972509 421.464583 
L 900.293094 405.792995 
L 901.094557 354.728638 
L 901.575435 336.984659 
L 901.89602 331.763592 
L 902.056313 330.932902 
L 902.216606 331.10754 
L 902.537191 333.769176 
L 904.140117 354.051823 
L 904.460702 355.579944 
L 904.781288 356.234694 
L 904.94158 356.281885 
L 905.101873 356.161077 
L 905.422458 355.442011 
L 905.743043 354.075557 
L 906.223921 350.606774 
L 906.704799 344.931611 
L 907.185677 336.363383 
L 907.666555 324.273263 
L 908.307725 302.07684 
L 909.109189 265.280443 
L 911.192993 162.519314 
L 911.673871 148.653921 
L 911.994456 143.252639 
L 912.315041 141.234687 
L 912.475334 141.540312 
L 912.635626 142.731333 
L 912.956212 147.750016 
L 913.437089 161.599937 
L 914.07826 190.402965 
L 915.040016 248.741218 
L 916.803235 360.263747 
L 917.604698 395.887022 
L 918.085576 409.608124 
L 918.406161 415.171036 
L 918.726746 417.749471 
L 918.887039 417.908432 
L 919.047331 417.316489 
L 919.367917 413.914045 
L 919.688502 407.655032 
L 920.16938 393.330891 
L 920.81055 366.498504 
L 921.932599 306.797973 
L 923.375232 231.753871 
L 924.176695 202.014702 
L 924.657573 190.197851 
L 925.138451 183.25904 
L 925.459036 181.337014 
L 925.619329 181.163801 
L 925.779622 181.498379 
L 926.100207 183.622221 
L 926.420792 187.546505 
L 926.90167 196.369546 
L 927.703133 216.922788 
L 930.267815 289.619314 
L 930.908986 301.22037 
L 931.550156 308.719951 
L 932.031034 311.751153 
L 932.351619 312.663407 
L 932.511912 312.82352 
L 932.672204 312.805367 
L 932.99279 312.297241 
L 933.473668 310.609826 
L 933.794253 309.075815 
L 933.954545 175.728956 
L 933.954545 175.728956 
" clip-path="url(#p7bc95a804b)" style="fill: none; stroke: #1f77b4; stroke-width: 1.5; stroke-linecap: square"/>
   </g>
   <g id="line2d_15">
    <path d="M 173.045455 111.921238 
L 177.693941 111.921238 
L 177.854233 359.400295 
L 213.278903 359.400295 
L 213.439196 111.921238 
L 218.087682 111.921238 
L 218.247975 359.400295 
L 253.99323 359.400295 
L 254.153523 111.921238 
L 258.802009 111.921238 
L 258.962302 359.400295 
L 293.585509 359.400295 
L 293.745801 111.921238 
L 298.394287 111.921238 
L 298.55458 359.400295 
L 333.818957 359.400295 
L 333.97925 111.921238 
L 338.627736 111.921238 
L 338.788029 359.400295 
L 373.090651 359.400295 
L 373.250943 111.921238 
L 377.899429 111.921238 
L 378.059722 359.400295 
L 413.644685 359.400295 
L 413.804977 111.921238 
L 418.453463 111.921238 
L 418.613756 359.400295 
L 453.557548 359.400295 
L 453.717841 111.921238 
L 458.366327 111.921238 
L 458.52662 359.400295 
L 493.630705 359.400295 
L 493.790997 111.921238 
L 498.439483 111.921238 
L 498.599776 359.400295 
L 533.864153 359.400295 
L 534.024446 111.921238 
L 538.672932 111.921238 
L 538.833225 359.400295 
L 574.257895 359.400295 
L 574.418188 111.921238 
L 579.066674 111.921238 
L 579.226966 359.400295 
L 613.209003 359.400295 
L 613.369295 111.921238 
L 618.017782 111.921238 
L 618.178074 359.400295 
L 653.92333 359.400295 
L 654.083622 111.921238 
L 658.732108 111.921238 
L 658.892401 359.400295 
L 694.156778 359.400295 
L 694.317071 111.921238 
L 698.965557 111.921238 
L 699.12585 359.400295 
L 734.069642 359.400295 
L 734.229935 111.921238 
L 738.878421 111.921238 
L 739.038713 359.400295 
L 773.822213 359.400295 
L 773.982506 111.921238 
L 778.630992 111.921238 
L 778.791284 359.400295 
L 813.414491 359.400295 
L 813.574784 111.921238 
L 818.22327 111.921238 
L 818.383563 359.400295 
L 854.609696 359.400295 
L 854.769989 111.921238 
L 859.418475 111.921238 
L 859.578767 359.400295 
L 894.362267 359.400295 
L 894.52256 111.921238 
L 899.171046 111.921238 
L 899.331338 359.400295 
L 933.794253 359.400295 
L 933.954545 111.921238 
L 933.954545 111.921238 
" clip-path="url(#p7bc95a804b)" style="fill: none; stroke: #ff7f0e; stroke-width: 1.5; stroke-linecap: square"/>
   </g>
   <g id="line2d_16">
    <path d="M 929.466352 359.400295 
" clip-path="url(#p7bc95a804b)" style="fill: none; stroke: #000000; stroke-width: 1.5; stroke-linecap: square"/>
    <defs>
     <path id="m4517f3d932" d="M 0 1 
C 0.265203 1 0.51958 0.894634 0.707107 0.707107 
C 0.894634 0.51958 1 0.265203 1 0 
C 1 -0.265203 0.894634 -0.51958 0.707107 -0.707107 
C 0.51958 -0.894634 0.265203 -1 0 -1 
C -0.265203 -1 -0.51958 -0.894634 -0.707107 -0.707107 
C -0.894634 -0.51958 -1 -0.265203 -1 0 
C -1 0.265203 -0.894634 0.51958 -0.707107 0.707107 
C -0.51958 0.894634 -0.265203 1 0 1 
z
" style="stroke: #000000"/>
    </defs>
    <g clip-path="url(#p7bc95a804b)">
     <use xlink:href="#m4517f3d932" x="173.045455" y="111.921238" style="stroke: #000000"/>
     <use xlink:href="#m4517f3d932" x="178.174819" y="359.400295" style="stroke: #000000"/>
     <use xlink:href="#m4517f3d932" x="183.14389" y="359.400295" style="stroke: #000000"/>
     <use xlink:href="#m4517f3d932" x="188.112961" y="111.921238" style="stroke: #000000"/>
     <use xlink:href="#m4517f3d932" x="193.082033" y="359.400295" style="stroke: #000000"/>
     <use xlink:href="#m4517f3d932" x="198.211397" y="359.400295" style="stroke: #000000"/>
     <use xlink:href="#m4517f3d932" x="203.180468" y="111.921238" style="stroke: #000000"/>
     <use xlink:href="#m4517f3d932" x="208.149539" y="359.400295" style="stroke: #000000"/>
     <use xlink:href="#m4517f3d932" x="213.118611" y="111.921238" style="stroke: #000000"/>
     <use xlink:href="#m4517f3d932" x="218.247975" y="359.400295" style="stroke: #000000"/>
     <use xlink:href="#m4517f3d932" x="223.217046" y="359.400295" style="stroke: #000000"/>
     <use xlink:href="#m4517f3d932" x="228.186118" y="111.921238" style="stroke: #000000"/>
     <use xlink:href="#m4517f3d932" x="233.155189" y="359.400295" style="stroke: #000000"/>
     <use xlink:href="#m4517f3d932" x="238.284553" y="359.400295" style="stroke: #000000"/>
     <use xlink:href="#m4517f3d932" x="243.253624" y="111.921238" style="stroke: #000000"/>
     <use xlink:href="#m4517f3d932" x="248.222696" y="359.400295" style="stroke: #000000"/>
     <use xlink:href="#m4517f3d932" x="253.191767" y="111.921238" style="stroke: #000000"/>
     <use xlink:href="#m4517f3d932" x="258.321131" y="359.400295" style="stroke: #000000"/>
     <use xlink:href="#m4517f3d932" x="263.290202" y="359.400295" style="stroke: #000000"/>
     <use xlink:href="#m4517f3d932" x="268.259274" y="111.921238" style="stroke: #000000"/>
     <use xlink:href="#m4517f3d932" x="273.228345" y="359.400295" style="stroke: #000000"/>
     <use xlink:href="#m4517f3d932" x="278.357709" y="359.400295" style="stroke: #000000"/>
     <use xlink:href="#m4517f3d932" x="283.326781" y="111.921238" style="stroke: #000000"/>
     <use xlink:href="#m4517f3d932" x="288.295852" y="359.400295" style="stroke: #000000"/>
     <use xlink:href="#m4517f3d932" x="293.264923" y="111.921238" style="stroke: #000000"/>
     <use xlink:href="#m4517f3d932" x="298.394287" y="359.400295" style="stroke: #000000"/>
     <use xlink:href="#m4517f3d932" x="303.363359" y="359.400295" style="stroke: #000000"/>
     <use xlink:href="#m4517f3d932" x="308.33243" y="111.921238" style="stroke: #000000"/>
     <use xlink:href="#m4517f3d932" x="313.301501" y="359.400295" style="stroke: #000000"/>
     <use xlink:href="#m4517f3d932" x="318.430865" y="359.400295" style="stroke: #000000"/>
     <use xlink:href="#m4517f3d932" x="323.399937" y="111.921238" style="stroke: #000000"/>
     <use xlink:href="#m4517f3d932" x="328.369008" y="359.400295" style="stroke: #000000"/>
     <use xlink:href="#m4517f3d932" x="333.33808" y="111.921238" style="stroke: #000000"/>
     <use xlink:href="#m4517f3d932" x="338.467444" y="359.400295" style="stroke: #000000"/>
     <use xlink:href="#m4517f3d932" x="343.436515" y="359.400295" style="stroke: #000000"/>
     <use xlink:href="#m4517f3d932" x="348.405586" y="111.921238" style="stroke: #000000"/>
     <use xlink:href="#m4517f3d932" x="353.374658" y="359.400295" style="stroke: #000000"/>
     <use xlink:href="#m4517f3d932" x="358.504022" y="359.400295" style="stroke: #000000"/>
     <use xlink:href="#m4517f3d932" x="363.473093" y="111.921238" style="stroke: #000000"/>
     <use xlink:href="#m4517f3d932" x="368.442164" y="359.400295" style="stroke: #000000"/>
     <use xlink:href="#m4517f3d932" x="373.411236" y="111.921238" style="stroke: #000000"/>
     <use xlink:href="#m4517f3d932" x="378.5406" y="359.400295" style="stroke: #000000"/>
     <use xlink:href="#m4517f3d932" x="383.509671" y="359.400295" style="stroke: #000000"/>
     <use xlink:href="#m4517f3d932" x="388.478743" y="111.921238" style="stroke: #000000"/>
     <use xlink:href="#m4517f3d932" x="393.447814" y="359.400295" style="stroke: #000000"/>
     <use xlink:href="#m4517f3d932" x="398.577178" y="359.400295" style="stroke: #000000"/>
     <use xlink:href="#m4517f3d932" x="403.546249" y="111.921238" style="stroke: #000000"/>
     <use xlink:href="#m4517f3d932" x="408.515321" y="359.400295" style="stroke: #000000"/>
     <use xlink:href="#m4517f3d932" x="413.484392" y="111.921238" style="stroke: #000000"/>
     <use xlink:href="#m4517f3d932" x="418.613756" y="359.400295" style="stroke: #000000"/>
     <use xlink:href="#m4517f3d932" x="423.582827" y="359.400295" style="stroke: #000000"/>
     <use xlink:href="#m4517f3d932" x="428.551899" y="111.921238" style="stroke: #000000"/>
     <use xlink:href="#m4517f3d932" x="433.52097" y="359.400295" style="stroke: #000000"/>
     <use xlink:href="#m4517f3d932" x="438.650334" y="359.400295" style="stroke: #000000"/>
     <use xlink:href="#m4517f3d932" x="443.619406" y="111.921238" style="stroke: #000000"/>
     <use xlink:href="#m4517f3d932" x="448.588477" y="359.400295" style="stroke: #000000"/>
     <use xlink:href="#m4517f3d932" x="453.557548" y="111.921238" style="stroke: #000000"/>
     <use xlink:href="#m4517f3d932" x="458.686912" y="359.400295" style="stroke: #000000"/>
     <use xlink:href="#m4517f3d932" x="463.655984" y="359.400295" style="stroke: #000000"/>
     <use xlink:href="#m4517f3d932" x="468.625055" y="111.921238" style="stroke: #000000"/>
     <use xlink:href="#m4517f3d932" x="473.594126" y="359.400295" style="stroke: #000000"/>
     <use xlink:href="#m4517f3d932" x="478.72349" y="359.400295" style="stroke: #000000"/>
     <use xlink:href="#m4517f3d932" x="483.692562" y="111.921238" style="stroke: #000000"/>
     <use xlink:href="#m4517f3d932" x="488.661633" y="359.400295" style="stroke: #000000"/>
     <use xlink:href="#m4517f3d932" x="493.630705" y="111.921238" style="stroke: #000000"/>
     <use xlink:href="#m4517f3d932" x="498.760069" y="359.400295" style="stroke: #000000"/>
     <use xlink:href="#m4517f3d932" x="503.72914" y="359.400295" style="stroke: #000000"/>
     <use xlink:href="#m4517f3d932" x="508.698211" y="111.921238" style="stroke: #000000"/>
     <use xlink:href="#m4517f3d932" x="513.667283" y="359.400295" style="stroke: #000000"/>
     <use xlink:href="#m4517f3d932" x="518.796647" y="359.400295" style="stroke: #000000"/>
     <use xlink:href="#m4517f3d932" x="523.765718" y="111.921238" style="stroke: #000000"/>
     <use xlink:href="#m4517f3d932" x="528.734789" y="359.400295" style="stroke: #000000"/>
     <use xlink:href="#m4517f3d932" x="533.703861" y="111.921238" style="stroke: #000000"/>
     <use xlink:href="#m4517f3d932" x="538.833225" y="359.400295" style="stroke: #000000"/>
     <use xlink:href="#m4517f3d932" x="543.802296" y="359.400295" style="stroke: #000000"/>
     <use xlink:href="#m4517f3d932" x="548.771368" y="111.921238" style="stroke: #000000"/>
     <use xlink:href="#m4517f3d932" x="553.740439" y="359.400295" style="stroke: #000000"/>
     <use xlink:href="#m4517f3d932" x="558.869803" y="359.400295" style="stroke: #000000"/>
     <use xlink:href="#m4517f3d932" x="563.838874" y="111.921238" style="stroke: #000000"/>
     <use xlink:href="#m4517f3d932" x="568.807946" y="359.400295" style="stroke: #000000"/>
     <use xlink:href="#m4517f3d932" x="573.777017" y="111.921238" style="stroke: #000000"/>
     <use xlink:href="#m4517f3d932" x="578.906381" y="359.400295" style="stroke: #000000"/>
     <use xlink:href="#m4517f3d932" x="583.875452" y="359.400295" style="stroke: #000000"/>
     <use xlink:href="#m4517f3d932" x="588.844524" y="111.921238" style="stroke: #000000"/>
     <use xlink:href="#m4517f3d932" x="593.813595" y="359.400295" style="stroke: #000000"/>
     <use xlink:href="#m4517f3d932" x="598.942959" y="359.400295" style="stroke: #000000"/>
     <use xlink:href="#m4517f3d932" x="603.912031" y="111.921238" style="stroke: #000000"/>
     <use xlink:href="#m4517f3d932" x="608.881102" y="359.400295" style="stroke: #000000"/>
     <use xlink:href="#m4517f3d932" x="613.850173" y="111.921238" style="stroke: #000000"/>
     <use xlink:href="#m4517f3d932" x="618.979537" y="359.400295" style="stroke: #000000"/>
     <use xlink:href="#m4517f3d932" x="623.948609" y="359.400295" style="stroke: #000000"/>
     <use xlink:href="#m4517f3d932" x="628.91768" y="111.921238" style="stroke: #000000"/>
     <use xlink:href="#m4517f3d932" x="633.886751" y="359.400295" style="stroke: #000000"/>
     <use xlink:href="#m4517f3d932" x="639.016115" y="359.400295" style="stroke: #000000"/>
     <use xlink:href="#m4517f3d932" x="643.985187" y="111.921238" style="stroke: #000000"/>
     <use xlink:href="#m4517f3d932" x="648.954258" y="359.400295" style="stroke: #000000"/>
     <use xlink:href="#m4517f3d932" x="653.92333" y="111.921238" style="stroke: #000000"/>
     <use xlink:href="#m4517f3d932" x="659.052694" y="359.400295" style="stroke: #000000"/>
     <use xlink:href="#m4517f3d932" x="664.021765" y="359.400295" style="stroke: #000000"/>
     <use xlink:href="#m4517f3d932" x="668.990836" y="111.921238" style="stroke: #000000"/>
     <use xlink:href="#m4517f3d932" x="673.959908" y="359.400295" style="stroke: #000000"/>
     <use xlink:href="#m4517f3d932" x="679.089272" y="359.400295" style="stroke: #000000"/>
     <use xlink:href="#m4517f3d932" x="684.058343" y="111.921238" style="stroke: #000000"/>
     <use xlink:href="#m4517f3d932" x="689.027414" y="359.400295" style="stroke: #000000"/>
     <use xlink:href="#m4517f3d932" x="693.996486" y="111.921238" style="stroke: #000000"/>
     <use xlink:href="#m4517f3d932" x="699.12585" y="359.400295" style="stroke: #000000"/>
     <use xlink:href="#m4517f3d932" x="704.094921" y="359.400295" style="stroke: #000000"/>
     <use xlink:href="#m4517f3d932" x="709.063993" y="111.921238" style="stroke: #000000"/>
     <use xlink:href="#m4517f3d932" x="714.033064" y="359.400295" style="stroke: #000000"/>
     <use xlink:href="#m4517f3d932" x="719.162428" y="359.400295" style="stroke: #000000"/>
     <use xlink:href="#m4517f3d932" x="724.131499" y="111.921238" style="stroke: #000000"/>
     <use xlink:href="#m4517f3d932" x="729.100571" y="359.400295" style="stroke: #000000"/>
     <use xlink:href="#m4517f3d932" x="734.069642" y="111.921238" style="stroke: #000000"/>
     <use xlink:href="#m4517f3d932" x="739.199006" y="359.400295" style="stroke: #000000"/>
     <use xlink:href="#m4517f3d932" x="744.168077" y="359.400295" style="stroke: #000000"/>
     <use xlink:href="#m4517f3d932" x="749.137149" y="111.921238" style="stroke: #000000"/>
     <use xlink:href="#m4517f3d932" x="754.10622" y="359.400295" style="stroke: #000000"/>
     <use xlink:href="#m4517f3d932" x="759.235584" y="359.400295" style="stroke: #000000"/>
     <use xlink:href="#m4517f3d932" x="764.204656" y="111.921238" style="stroke: #000000"/>
     <use xlink:href="#m4517f3d932" x="769.173727" y="359.400295" style="stroke: #000000"/>
     <use xlink:href="#m4517f3d932" x="774.142798" y="111.921238" style="stroke: #000000"/>
     <use xlink:href="#m4517f3d932" x="779.272162" y="359.400295" style="stroke: #000000"/>
     <use xlink:href="#m4517f3d932" x="784.241234" y="359.400295" style="stroke: #000000"/>
     <use xlink:href="#m4517f3d932" x="789.210305" y="111.921238" style="stroke: #000000"/>
     <use xlink:href="#m4517f3d932" x="794.179376" y="359.400295" style="stroke: #000000"/>
     <use xlink:href="#m4517f3d932" x="799.30874" y="359.400295" style="stroke: #000000"/>
     <use xlink:href="#m4517f3d932" x="804.277812" y="111.921238" style="stroke: #000000"/>
     <use xlink:href="#m4517f3d932" x="809.246883" y="359.400295" style="stroke: #000000"/>
     <use xlink:href="#m4517f3d932" x="814.215955" y="111.921238" style="stroke: #000000"/>
     <use xlink:href="#m4517f3d932" x="819.345319" y="359.400295" style="stroke: #000000"/>
     <use xlink:href="#m4517f3d932" x="824.31439" y="359.400295" style="stroke: #000000"/>
     <use xlink:href="#m4517f3d932" x="829.283461" y="111.921238" style="stroke: #000000"/>
     <use xlink:href="#m4517f3d932" x="834.252533" y="359.400295" style="stroke: #000000"/>
     <use xlink:href="#m4517f3d932" x="839.381897" y="359.400295" style="stroke: #000000"/>
     <use xlink:href="#m4517f3d932" x="844.350968" y="111.921238" style="stroke: #000000"/>
     <use xlink:href="#m4517f3d932" x="849.320039" y="359.400295" style="stroke: #000000"/>
     <use xlink:href="#m4517f3d932" x="854.289111" y="111.921238" style="stroke: #000000"/>
     <use xlink:href="#m4517f3d932" x="859.418475" y="359.400295" style="stroke: #000000"/>
     <use xlink:href="#m4517f3d932" x="864.387546" y="359.400295" style="stroke: #000000"/>
     <use xlink:href="#m4517f3d932" x="869.356618" y="111.921238" style="stroke: #000000"/>
     <use xlink:href="#m4517f3d932" x="874.325689" y="359.400295" style="stroke: #000000"/>
     <use xlink:href="#m4517f3d932" x="879.455053" y="359.400295" style="stroke: #000000"/>
     <use xlink:href="#m4517f3d932" x="884.424124" y="111.921238" style="stroke: #000000"/>
     <use xlink:href="#m4517f3d932" x="889.393196" y="359.400295" style="stroke: #000000"/>
     <use xlink:href="#m4517f3d932" x="894.362267" y="111.921238" style="stroke: #000000"/>
     <use xlink:href="#m4517f3d932" x="899.491631" y="359.400295" style="stroke: #000000"/>
     <use xlink:href="#m4517f3d932" x="904.460702" y="359.400295" style="stroke: #000000"/>
     <use xlink:href="#m4517f3d932" x="909.429774" y="111.921238" style="stroke: #000000"/>
     <use xlink:href="#m4517f3d932" x="914.398845" y="359.400295" style="stroke: #000000"/>
     <use xlink:href="#m4517f3d932" x="919.528209" y="359.400295" style="stroke: #000000"/>
     <use xlink:href="#m4517f3d932" x="924.497281" y="111.921238" style="stroke: #000000"/>
     <use xlink:href="#m4517f3d932" x="929.466352" y="359.400295" style="stroke: #000000"/>
    </g>
   </g>
   <g id="patch_3">
    <path d="M 135 448.56 
L 135 60.48 
" style="fill: none; stroke: #000000; stroke-width: 0.8; stroke-linejoin: miter; stroke-linecap: square"/>
   </g>
   <g id="patch_4">
    <path d="M 972 448.56 
L 972 60.48 
" style="fill: none; stroke: #000000; stroke-width: 0.8; stroke-linejoin: miter; stroke-linecap: square"/>
   </g>
   <g id="patch_5">
    <path d="M 135 448.56 
L 972 448.56 
" style="fill: none; stroke: #000000; stroke-width: 0.8; stroke-linejoin: miter; stroke-linecap: square"/>
   </g>
   <g id="patch_6">
    <path d="M 135 60.48 
L 972 60.48 
" style="fill: none; stroke: #000000; stroke-width: 0.8; stroke-linejoin: miter; stroke-linecap: square"/>
   </g>
   <g id="legend_1">
    <g id="patch_7">
     <path d="M 142 443.56 
L 211.084375 443.56 
Q 213.084375 443.56 213.084375 441.56 
L 213.084375 397.969375 
Q 213.084375 395.969375 211.084375 395.969375 
L 142 395.969375 
Q 140 395.969375 140 397.969375 
L 140 441.56 
Q 140 443.56 142 443.56 
z
" style="fill: #ffffff; opacity: 0.8; stroke: #cccccc; stroke-linejoin: miter"/>
    </g>
    <g id="line2d_17">
     <path d="M 144 404.067813 
L 154 404.067813 
L 164 404.067813 
" style="fill: none; stroke: #1f77b4; stroke-width: 1.5; stroke-linecap: square"/>
    </g>
    <g id="text_15">
     <!-- nw_0 -->
     <g transform="translate(172 407.567813) scale(0.1 -0.1)">
      <defs>
       <path id="DejaVuSans-6e" d="M 3513 2113 
L 3513 0 
L 2938 0 
L 2938 2094 
Q 2938 2591 2744 2837 
Q 2550 3084 2163 3084 
Q 1697 3084 1428 2787 
Q 1159 2491 1159 1978 
L 1159 0 
L 581 0 
L 581 3500 
L 1159 3500 
L 1159 2956 
Q 1366 3272 1645 3428 
Q 1925 3584 2291 3584 
Q 2894 3584 3203 3211 
Q 3513 2838 3513 2113 
z
" transform="scale(0.015625)"/>
       <path id="DejaVuSans-77" d="M 269 3500 
L 844 3500 
L 1563 769 
L 2278 3500 
L 2956 3500 
L 3675 769 
L 4391 3500 
L 4966 3500 
L 4050 0 
L 3372 0 
L 2619 2869 
L 1863 0 
L 1184 0 
L 269 3500 
z
" transform="scale(0.015625)"/>
       <path id="DejaVuSans-5f" d="M 3263 -1063 
L 3263 -1509 
L -63 -1509 
L -63 -1063 
L 3263 -1063 
z
" transform="scale(0.015625)"/>
      </defs>
      <use xlink:href="#DejaVuSans-6e"/>
      <use xlink:href="#DejaVuSans-77" x="63.378906"/>
      <use xlink:href="#DejaVuSans-5f" x="145.166016"/>
      <use xlink:href="#DejaVuSans-30" x="195.166016"/>
     </g>
    </g>
    <g id="line2d_18">
     <path d="M 144 419.024063 
L 154 419.024063 
L 164 419.024063 
" style="fill: none; stroke: #ff7f0e; stroke-width: 1.5; stroke-linecap: square"/>
    </g>
    <g id="text_16">
     <!-- input_0 -->
     <g transform="translate(172 422.524063) scale(0.1 -0.1)">
      <defs>
       <path id="DejaVuSans-69" d="M 603 3500 
L 1178 3500 
L 1178 0 
L 603 0 
L 603 3500 
z
M 603 4863 
L 1178 4863 
L 1178 4134 
L 603 4134 
L 603 4863 
z
" transform="scale(0.015625)"/>
       <path id="DejaVuSans-70" d="M 1159 525 
L 1159 -1331 
L 581 -1331 
L 581 3500 
L 1159 3500 
L 1159 2969 
Q 1341 3281 1617 3432 
Q 1894 3584 2278 3584 
Q 2916 3584 3314 3078 
Q 3713 2572 3713 1747 
Q 3713 922 3314 415 
Q 2916 -91 2278 -91 
Q 1894 -91 1617 61 
Q 1341 213 1159 525 
z
M 3116 1747 
Q 3116 2381 2855 2742 
Q 2594 3103 2138 3103 
Q 1681 3103 1420 2742 
Q 1159 2381 1159 1747 
Q 1159 1113 1420 752 
Q 1681 391 2138 391 
Q 2594 391 2855 752 
Q 3116 1113 3116 1747 
z
" transform="scale(0.015625)"/>
       <path id="DejaVuSans-75" d="M 544 1381 
L 544 3500 
L 1119 3500 
L 1119 1403 
Q 1119 906 1312 657 
Q 1506 409 1894 409 
Q 2359 409 2629 706 
Q 2900 1003 2900 1516 
L 2900 3500 
L 3475 3500 
L 3475 0 
L 2900 0 
L 2900 538 
Q 2691 219 2414 64 
Q 2138 -91 1772 -91 
Q 1169 -91 856 284 
Q 544 659 544 1381 
z
M 1991 3584 
L 1991 3584 
z
" transform="scale(0.015625)"/>
      </defs>
      <use xlink:href="#DejaVuSans-69"/>
      <use xlink:href="#DejaVuSans-6e" x="27.783203"/>
      <use xlink:href="#DejaVuSans-70" x="91.162109"/>
      <use xlink:href="#DejaVuSans-75" x="154.638672"/>
      <use xlink:href="#DejaVuSans-74" x="218.017578"/>
      <use xlink:href="#DejaVuSans-5f" x="257.226562"/>
      <use xlink:href="#DejaVuSans-30" x="307.226562"/>
     </g>
    </g>
    <g id="line2d_19">
     <path d="M 144 433.980312 
L 154 433.980312 
L 164 433.980312 
" style="fill: none; stroke: #000000; stroke-width: 1.5; stroke-linecap: square"/>
     <g>
      <use xlink:href="#m4517f3d932" x="154" y="433.980312" style="stroke: #000000"/>
     </g>
    </g>
    <g id="text_17">
     <!-- target -->
     <g transform="translate(172 437.480312) scale(0.1 -0.1)">
      <defs>
       <path id="DejaVuSans-61" d="M 2194 1759 
Q 1497 1759 1228 1600 
Q 959 1441 959 1056 
Q 959 750 1161 570 
Q 1363 391 1709 391 
Q 2188 391 2477 730 
Q 2766 1069 2766 1631 
L 2766 1759 
L 2194 1759 
z
M 3341 1997 
L 3341 0 
L 2766 0 
L 2766 531 
Q 2569 213 2275 61 
Q 1981 -91 1556 -91 
Q 1019 -91 701 211 
Q 384 513 384 1019 
Q 384 1609 779 1909 
Q 1175 2209 1959 2209 
L 2766 2209 
L 2766 2266 
Q 2766 2663 2505 2880 
Q 2244 3097 1772 3097 
Q 1472 3097 1187 3025 
Q 903 2953 641 2809 
L 641 3341 
Q 956 3463 1253 3523 
Q 1550 3584 1831 3584 
Q 2591 3584 2966 3190 
Q 3341 2797 3341 1997 
z
" transform="scale(0.015625)"/>
       <path id="DejaVuSans-72" d="M 2631 2963 
Q 2534 3019 2420 3045 
Q 2306 3072 2169 3072 
Q 1681 3072 1420 2755 
Q 1159 2438 1159 1844 
L 1159 0 
L 581 0 
L 581 3500 
L 1159 3500 
L 1159 2956 
Q 1341 3275 1631 3429 
Q 1922 3584 2338 3584 
Q 2397 3584 2469 3576 
Q 2541 3569 2628 3553 
L 2631 2963 
z
" transform="scale(0.015625)"/>
       <path id="DejaVuSans-67" d="M 2906 1791 
Q 2906 2416 2648 2759 
Q 2391 3103 1925 3103 
Q 1463 3103 1205 2759 
Q 947 2416 947 1791 
Q 947 1169 1205 825 
Q 1463 481 1925 481 
Q 2391 481 2648 825 
Q 2906 1169 2906 1791 
z
M 3481 434 
Q 3481 -459 3084 -895 
Q 2688 -1331 1869 -1331 
Q 1566 -1331 1297 -1286 
Q 1028 -1241 775 -1147 
L 775 -588 
Q 1028 -725 1275 -790 
Q 1522 -856 1778 -856 
Q 2344 -856 2625 -561 
Q 2906 -266 2906 331 
L 2906 616 
Q 2728 306 2450 153 
Q 2172 0 1784 0 
Q 1141 0 747 490 
Q 353 981 353 1791 
Q 353 2603 747 3093 
Q 1141 3584 1784 3584 
Q 2172 3584 2450 3431 
Q 2728 3278 2906 2969 
L 2906 3500 
L 3481 3500 
L 3481 434 
z
" transform="scale(0.015625)"/>
       <path id="DejaVuSans-65" d="M 3597 1894 
L 3597 1613 
L 953 1613 
Q 991 1019 1311 708 
Q 1631 397 2203 397 
Q 2534 397 2845 478 
Q 3156 559 3463 722 
L 3463 178 
Q 3153 47 2828 -22 
Q 2503 -91 2169 -91 
Q 1331 -91 842 396 
Q 353 884 353 1716 
Q 353 2575 817 3079 
Q 1281 3584 2069 3584 
Q 2775 3584 3186 3129 
Q 3597 2675 3597 1894 
z
M 3022 2063 
Q 3016 2534 2758 2815 
Q 2500 3097 2075 3097 
Q 1594 3097 1305 2825 
Q 1016 2553 972 2059 
L 3022 2063 
z
" transform="scale(0.015625)"/>
      </defs>
      <use xlink:href="#DejaVuSans-74"/>
      <use xlink:href="#DejaVuSans-61" x="39.208984"/>
      <use xlink:href="#DejaVuSans-72" x="100.488281"/>
      <use xlink:href="#DejaVuSans-67" x="139.851562"/>
      <use xlink:href="#DejaVuSans-65" x="203.328125"/>
      <use xlink:href="#DejaVuSans-74" x="264.851562"/>
     </g>
    </g>
   </g>
  </g>
 </g>
 <defs>
  <clipPath id="p7bc95a804b">
   <rect x="135" y="60.48" width="837" height="388.08"/>
  </clipPath>
 </defs>
</svg>
