<?xml version="1.0" encoding="utf-8" standalone="no"?>
<!DOCTYPE svg PUBLIC "-//W3C//DTD SVG 1.1//EN"
  "http://www.w3.org/Graphics/SVG/1.1/DTD/svg11.dtd">
<svg xmlns:xlink="http://www.w3.org/1999/xlink" width="1080pt" height="504pt" viewBox="0 0 1080 504" xmlns="http://www.w3.org/2000/svg" version="1.1">
 <metadata>
  <rdf:RDF xmlns:dc="http://purl.org/dc/elements/1.1/" xmlns:cc="http://creativecommons.org/ns#" xmlns:rdf="http://www.w3.org/1999/02/22-rdf-syntax-ns#">
   <cc:Work>
    <dc:type rdf:resource="http://purl.org/dc/dcmitype/StillImage"/>
    <dc:date>2024-05-09T11:07:24.973722</dc:date>
    <dc:format>image/svg+xml</dc:format>
    <dc:creator>
     <cc:Agent>
      <dc:title>Matplotlib v3.7.1, https://matplotlib.org/</dc:title>
     </cc:Agent>
    </dc:creator>
   </cc:Work>
  </rdf:RDF>
 </metadata>
 <defs>
  <style type="text/css">*{stroke-linejoin: round; stroke-linecap: butt}</style>
 </defs>
 <g id="figure_1">
  <g id="patch_1">
   <path d="M 0 504 
L 1080 504 
L 1080 0 
L 0 0 
z
" style="fill: #ffffff"/>
  </g>
  <g id="axes_1">
   <g id="patch_2">
    <path d="M 135 448.56 
L 972 448.56 
L 972 60.48 
L 135 60.48 
z
" style="fill: #ffffff"/>
   </g>
   <g id="matplotlib.axis_1">
    <g id="xtick_1">
     <g id="line2d_1">
      <defs>
       <path id="m570a972a26" d="M 0 0 
L 0 3.5 
" style="stroke: #000000; stroke-width: 0.8"/>
      </defs>
      <g>
       <use xlink:href="#m570a972a26" x="173.045455" y="448.56" style="stroke: #000000; stroke-width: 0.8"/>
      </g>
     </g>
     <g id="text_1">
      <!-- 0 -->
      <g transform="translate(169.864205 463.158437) scale(0.1 -0.1)">
       <defs>
        <path id="DejaVuSans-30" d="M 2034 4250 
Q 1547 4250 1301 3770 
Q 1056 3291 1056 2328 
Q 1056 1369 1301 889 
Q 1547 409 2034 409 
Q 2525 409 2770 889 
Q 3016 1369 3016 2328 
Q 3016 3291 2770 3770 
Q 2525 4250 2034 4250 
z
M 2034 4750 
Q 2819 4750 3233 4129 
Q 3647 3509 3647 2328 
Q 3647 1150 3233 529 
Q 2819 -91 2034 -91 
Q 1250 -91 836 529 
Q 422 1150 422 2328 
Q 422 3509 836 4129 
Q 1250 4750 2034 4750 
z
" transform="scale(0.015625)"/>
       </defs>
       <use xlink:href="#DejaVuSans-30"/>
      </g>
     </g>
    </g>
    <g id="xtick_2">
     <g id="line2d_2">
      <g>
       <use xlink:href="#m570a972a26" x="333.33808" y="448.56" style="stroke: #000000; stroke-width: 0.8"/>
      </g>
     </g>
     <g id="text_2">
      <!-- 1000 -->
      <g transform="translate(320.61308 463.158437) scale(0.1 -0.1)">
       <defs>
        <path id="DejaVuSans-31" d="M 794 531 
L 1825 531 
L 1825 4091 
L 703 3866 
L 703 4441 
L 1819 4666 
L 2450 4666 
L 2450 531 
L 3481 531 
L 3481 0 
L 794 0 
L 794 531 
z
" transform="scale(0.015625)"/>
       </defs>
       <use xlink:href="#DejaVuSans-31"/>
       <use xlink:href="#DejaVuSans-30" x="63.623047"/>
       <use xlink:href="#DejaVuSans-30" x="127.246094"/>
       <use xlink:href="#DejaVuSans-30" x="190.869141"/>
      </g>
     </g>
    </g>
    <g id="xtick_3">
     <g id="line2d_3">
      <g>
       <use xlink:href="#m570a972a26" x="493.630705" y="448.56" style="stroke: #000000; stroke-width: 0.8"/>
      </g>
     </g>
     <g id="text_3">
      <!-- 2000 -->
      <g transform="translate(480.905705 463.158437) scale(0.1 -0.1)">
       <defs>
        <path id="DejaVuSans-32" d="M 1228 531 
L 3431 531 
L 3431 0 
L 469 0 
L 469 531 
Q 828 903 1448 1529 
Q 2069 2156 2228 2338 
Q 2531 2678 2651 2914 
Q 2772 3150 2772 3378 
Q 2772 3750 2511 3984 
Q 2250 4219 1831 4219 
Q 1534 4219 1204 4116 
Q 875 4013 500 3803 
L 500 4441 
Q 881 4594 1212 4672 
Q 1544 4750 1819 4750 
Q 2544 4750 2975 4387 
Q 3406 4025 3406 3419 
Q 3406 3131 3298 2873 
Q 3191 2616 2906 2266 
Q 2828 2175 2409 1742 
Q 1991 1309 1228 531 
z
" transform="scale(0.015625)"/>
       </defs>
       <use xlink:href="#DejaVuSans-32"/>
       <use xlink:href="#DejaVuSans-30" x="63.623047"/>
       <use xlink:href="#DejaVuSans-30" x="127.246094"/>
       <use xlink:href="#DejaVuSans-30" x="190.869141"/>
      </g>
     </g>
    </g>
    <g id="xtick_4">
     <g id="line2d_4">
      <g>
       <use xlink:href="#m570a972a26" x="653.92333" y="448.56" style="stroke: #000000; stroke-width: 0.8"/>
      </g>
     </g>
     <g id="text_4">
      <!-- 3000 -->
      <g transform="translate(641.19833 463.158437) scale(0.1 -0.1)">
       <defs>
        <path id="DejaVuSans-33" d="M 2597 2516 
Q 3050 2419 3304 2112 
Q 3559 1806 3559 1356 
Q 3559 666 3084 287 
Q 2609 -91 1734 -91 
Q 1441 -91 1130 -33 
Q 819 25 488 141 
L 488 750 
Q 750 597 1062 519 
Q 1375 441 1716 441 
Q 2309 441 2620 675 
Q 2931 909 2931 1356 
Q 2931 1769 2642 2001 
Q 2353 2234 1838 2234 
L 1294 2234 
L 1294 2753 
L 1863 2753 
Q 2328 2753 2575 2939 
Q 2822 3125 2822 3475 
Q 2822 3834 2567 4026 
Q 2313 4219 1838 4219 
Q 1578 4219 1281 4162 
Q 984 4106 628 3988 
L 628 4550 
Q 988 4650 1302 4700 
Q 1616 4750 1894 4750 
Q 2613 4750 3031 4423 
Q 3450 4097 3450 3541 
Q 3450 3153 3228 2886 
Q 3006 2619 2597 2516 
z
" transform="scale(0.015625)"/>
       </defs>
       <use xlink:href="#DejaVuSans-33"/>
       <use xlink:href="#DejaVuSans-30" x="63.623047"/>
       <use xlink:href="#DejaVuSans-30" x="127.246094"/>
       <use xlink:href="#DejaVuSans-30" x="190.869141"/>
      </g>
     </g>
    </g>
    <g id="xtick_5">
     <g id="line2d_5">
      <g>
       <use xlink:href="#m570a972a26" x="814.215955" y="448.56" style="stroke: #000000; stroke-width: 0.8"/>
      </g>
     </g>
     <g id="text_5">
      <!-- 4000 -->
      <g transform="translate(801.490955 463.158437) scale(0.1 -0.1)">
       <defs>
        <path id="DejaVuSans-34" d="M 2419 4116 
L 825 1625 
L 2419 1625 
L 2419 4116 
z
M 2253 4666 
L 3047 4666 
L 3047 1625 
L 3713 1625 
L 3713 1100 
L 3047 1100 
L 3047 0 
L 2419 0 
L 2419 1100 
L 313 1100 
L 313 1709 
L 2253 4666 
z
" transform="scale(0.015625)"/>
       </defs>
       <use xlink:href="#DejaVuSans-34"/>
       <use xlink:href="#DejaVuSans-30" x="63.623047"/>
       <use xlink:href="#DejaVuSans-30" x="127.246094"/>
       <use xlink:href="#DejaVuSans-30" x="190.869141"/>
      </g>
     </g>
    </g>
    <g id="text_6">
     <!-- t -->
     <g transform="translate(551.539844 476.836563) scale(0.1 -0.1)">
      <defs>
       <path id="DejaVuSans-74" d="M 1172 4494 
L 1172 3500 
L 2356 3500 
L 2356 3053 
L 1172 3053 
L 1172 1153 
Q 1172 725 1289 603 
Q 1406 481 1766 481 
L 2356 481 
L 2356 0 
L 1766 0 
Q 1100 0 847 248 
Q 594 497 594 1153 
L 594 3053 
L 172 3053 
L 172 3500 
L 594 3500 
L 594 4494 
L 1172 4494 
z
" transform="scale(0.015625)"/>
      </defs>
      <use xlink:href="#DejaVuSans-74"/>
     </g>
    </g>
   </g>
   <g id="matplotlib.axis_2">
    <g id="ytick_1">
     <g id="line2d_6">
      <defs>
       <path id="mfe917ba0ea" d="M 0 0 
L -3.5 0 
" style="stroke: #000000; stroke-width: 0.8"/>
      </defs>
      <g>
       <use xlink:href="#mfe917ba0ea" x="135" y="430.92" style="stroke: #000000; stroke-width: 0.8"/>
      </g>
     </g>
     <g id="text_7">
      <!-- 0.0 -->
      <g transform="translate(112.096875 434.719219) scale(0.1 -0.1)">
       <defs>
        <path id="DejaVuSans-2e" d="M 684 794 
L 1344 794 
L 1344 0 
L 684 0 
L 684 794 
z
" transform="scale(0.015625)"/>
       </defs>
       <use xlink:href="#DejaVuSans-30"/>
       <use xlink:href="#DejaVuSans-2e" x="63.623047"/>
       <use xlink:href="#DejaVuSans-30" x="95.410156"/>
      </g>
     </g>
    </g>
    <g id="ytick_2">
     <g id="line2d_7">
      <g>
       <use xlink:href="#mfe917ba0ea" x="135" y="360.36" style="stroke: #000000; stroke-width: 0.8"/>
      </g>
     </g>
     <g id="text_8">
      <!-- 0.2 -->
      <g transform="translate(112.096875 364.159219) scale(0.1 -0.1)">
       <use xlink:href="#DejaVuSans-30"/>
       <use xlink:href="#DejaVuSans-2e" x="63.623047"/>
       <use xlink:href="#DejaVuSans-32" x="95.410156"/>
      </g>
     </g>
    </g>
    <g id="ytick_3">
     <g id="line2d_8">
      <g>
       <use xlink:href="#mfe917ba0ea" x="135" y="289.8" style="stroke: #000000; stroke-width: 0.8"/>
      </g>
     </g>
     <g id="text_9">
      <!-- 0.4 -->
      <g transform="translate(112.096875 293.599219) scale(0.1 -0.1)">
       <use xlink:href="#DejaVuSans-30"/>
       <use xlink:href="#DejaVuSans-2e" x="63.623047"/>
       <use xlink:href="#DejaVuSans-34" x="95.410156"/>
      </g>
     </g>
    </g>
    <g id="ytick_4">
     <g id="line2d_9">
      <g>
       <use xlink:href="#mfe917ba0ea" x="135" y="219.24" style="stroke: #000000; stroke-width: 0.8"/>
      </g>
     </g>
     <g id="text_10">
      <!-- 0.6 -->
      <g transform="translate(112.096875 223.039219) scale(0.1 -0.1)">
       <defs>
        <path id="DejaVuSans-36" d="M 2113 2584 
Q 1688 2584 1439 2293 
Q 1191 2003 1191 1497 
Q 1191 994 1439 701 
Q 1688 409 2113 409 
Q 2538 409 2786 701 
Q 3034 994 3034 1497 
Q 3034 2003 2786 2293 
Q 2538 2584 2113 2584 
z
M 3366 4563 
L 3366 3988 
Q 3128 4100 2886 4159 
Q 2644 4219 2406 4219 
Q 1781 4219 1451 3797 
Q 1122 3375 1075 2522 
Q 1259 2794 1537 2939 
Q 1816 3084 2150 3084 
Q 2853 3084 3261 2657 
Q 3669 2231 3669 1497 
Q 3669 778 3244 343 
Q 2819 -91 2113 -91 
Q 1303 -91 875 529 
Q 447 1150 447 2328 
Q 447 3434 972 4092 
Q 1497 4750 2381 4750 
Q 2619 4750 2861 4703 
Q 3103 4656 3366 4563 
z
" transform="scale(0.015625)"/>
       </defs>
       <use xlink:href="#DejaVuSans-30"/>
       <use xlink:href="#DejaVuSans-2e" x="63.623047"/>
       <use xlink:href="#DejaVuSans-36" x="95.410156"/>
      </g>
     </g>
    </g>
    <g id="ytick_5">
     <g id="line2d_10">
      <g>
       <use xlink:href="#mfe917ba0ea" x="135" y="148.68" style="stroke: #000000; stroke-width: 0.8"/>
      </g>
     </g>
     <g id="text_11">
      <!-- 0.8 -->
      <g transform="translate(112.096875 152.479219) scale(0.1 -0.1)">
       <defs>
        <path id="DejaVuSans-38" d="M 2034 2216 
Q 1584 2216 1326 1975 
Q 1069 1734 1069 1313 
Q 1069 891 1326 650 
Q 1584 409 2034 409 
Q 2484 409 2743 651 
Q 3003 894 3003 1313 
Q 3003 1734 2745 1975 
Q 2488 2216 2034 2216 
z
M 1403 2484 
Q 997 2584 770 2862 
Q 544 3141 544 3541 
Q 544 4100 942 4425 
Q 1341 4750 2034 4750 
Q 2731 4750 3128 4425 
Q 3525 4100 3525 3541 
Q 3525 3141 3298 2862 
Q 3072 2584 2669 2484 
Q 3125 2378 3379 2068 
Q 3634 1759 3634 1313 
Q 3634 634 3220 271 
Q 2806 -91 2034 -91 
Q 1263 -91 848 271 
Q 434 634 434 1313 
Q 434 1759 690 2068 
Q 947 2378 1403 2484 
z
M 1172 3481 
Q 1172 3119 1398 2916 
Q 1625 2713 2034 2713 
Q 2441 2713 2670 2916 
Q 2900 3119 2900 3481 
Q 2900 3844 2670 4047 
Q 2441 4250 2034 4250 
Q 1625 4250 1398 4047 
Q 1172 3844 1172 3481 
z
" transform="scale(0.015625)"/>
       </defs>
       <use xlink:href="#DejaVuSans-30"/>
       <use xlink:href="#DejaVuSans-2e" x="63.623047"/>
       <use xlink:href="#DejaVuSans-38" x="95.410156"/>
      </g>
     </g>
    </g>
    <g id="ytick_6">
     <g id="line2d_11">
      <g>
       <use xlink:href="#mfe917ba0ea" x="135" y="78.12" style="stroke: #000000; stroke-width: 0.8"/>
      </g>
     </g>
     <g id="text_12">
      <!-- 1.0 -->
      <g transform="translate(112.096875 81.919219) scale(0.1 -0.1)">
       <use xlink:href="#DejaVuSans-31"/>
       <use xlink:href="#DejaVuSans-2e" x="63.623047"/>
       <use xlink:href="#DejaVuSans-30" x="95.410156"/>
      </g>
     </g>
    </g>
   </g>
   <g id="line2d_12">
    <path d="M 173.045455 413.805195 
L 173.686625 357.902603 
L 174.327796 320.479613 
L 174.808673 303.326511 
L 175.129259 296.648206 
L 175.449844 293.518311 
L 175.610137 293.218244 
L 175.770429 293.727576 
L 176.091014 297.076467 
L 176.4116 303.374885 
L 176.892478 317.959457 
L 177.533648 346.113244 
L 178.014526 366.172091 
L 178.815989 389.564332 
L 179.617452 406.092402 
L 180.258623 415.213529 
L 180.899793 421.289453 
L 181.380671 424.140278 
L 181.861549 425.731307 
L 182.182134 426.173401 
L 182.502719 426.172821 
L 182.823305 425.770928 
L 183.304183 424.499211 
L 183.78506 422.529685 
L 184.426231 419.001049 
L 185.387987 412.213494 
L 186.670328 401.304928 
L 189.23501 376.933975 
L 191.799692 353.323852 
L 193.723203 337.688553 
L 195.326129 326.379132 
L 196.768763 317.598685 
L 198.211397 310.123624 
L 199.493738 304.530981 
L 200.776079 299.874804 
L 202.05842 296.097842 
L 203.180468 293.46813 
L 204.302516 291.428173 
L 205.264272 290.12106 
L 206.226028 289.198188 
L 207.027491 288.707678 
L 207.828954 288.458321 
L 208.630417 288.439437 
L 209.43188 288.640928 
L 210.233344 289.053243 
L 211.195099 289.813601 
L 212.156855 290.849757 
L 213.278903 292.388604 
L 213.920074 241.480125 
L 214.561244 208.689991 
L 215.042122 194.780084 
L 215.362708 190.156756 
L 215.523 189.157619 
L 215.683293 188.998351 
L 215.843585 189.653368 
L 216.164171 193.306993 
L 216.484756 199.925945 
L 216.965634 215.016076 
L 217.606804 243.87972 
L 218.408267 282.853427 
L 219.209731 306.199787 
L 220.011194 323.063394 
L 220.652364 332.687203 
L 221.293535 339.445378 
L 221.934705 343.797028 
L 222.415583 345.725092 
L 222.896461 346.676738 
L 223.217046 346.836155 
L 223.537631 346.658782 
L 223.858217 346.178796 
L 224.339095 344.960347 
L 224.980265 342.554864 
L 225.781728 338.574359 
L 226.903777 331.767976 
L 229.147873 316.305991 
L 231.552263 300.273299 
L 233.155189 291.044878 
L 234.597823 284.059944 
L 235.880164 278.977096 
L 237.002212 275.405372 
L 237.963968 272.981194 
L 238.925723 271.125472 
L 239.727187 269.996222 
L 240.52865 269.229891 
L 241.16982 268.867228 
L 241.810991 268.717918 
L 242.452161 268.773377 
L 243.093332 269.02506 
L 243.894795 269.602768 
L 244.696258 270.457806 
L 245.658014 271.828048 
L 246.780062 273.868856 
L 248.062403 276.737421 
L 249.505037 280.58488 
L 251.107963 285.549241 
L 252.871182 291.749249 
L 253.99323 296.052001 
L 254.634401 243.155442 
L 255.275571 208.487127 
L 255.756449 193.237807 
L 256.077034 187.753339 
L 256.39762 185.758503 
L 256.557912 186.004374 
L 256.718205 187.045504 
L 257.03879 191.416372 
L 257.519668 203.345191 
L 258.000546 221.193216 
L 258.641716 253.247533 
L 259.122594 274.982908 
L 259.924057 300.546325 
L 260.72552 319.515423 
L 261.526984 333.071558 
L 262.168154 340.701202 
L 262.809325 345.958806 
L 263.450495 349.233623 
L 263.931373 350.594595 
L 264.251958 351.052102 
L 264.572543 351.190225 
L 264.893129 351.040956 
L 265.213714 350.634047 
L 265.694592 349.60054 
L 266.335762 347.562514 
L 267.137225 344.197951 
L 268.259274 338.466563 
L 270.663663 324.621305 
L 272.747467 313.157461 
L 274.350394 305.551602 
L 275.632735 300.43569 
L 276.915076 296.24186 
L 278.037124 293.334501 
L 278.99888 291.397284 
L 279.960635 289.954615 
L 280.762099 289.114957 
L 281.563562 288.590295 
L 282.365025 288.366109 
L 283.006195 288.393106 
L 283.807658 288.67223 
L 284.609122 289.210194 
L 285.570877 290.177081 
L 286.532633 291.471785 
L 287.654681 293.366066 
L 288.937022 295.995365 
L 290.379656 299.489312 
L 291.982582 303.965678 
L 293.585509 308.994606 
L 294.226679 256.098727 
L 294.86785 221.447019 
L 295.348727 206.211177 
L 295.669313 200.733297 
L 295.989898 198.741702 
L 296.150191 198.98762 
L 296.310483 200.027601 
L 296.631068 204.392205 
L 297.111946 216.300562 
L 297.592824 234.113475 
L 298.233995 266.096579 
L 298.714873 287.646826 
L 299.516336 312.774546 
L 300.317799 331.272315 
L 301.119262 344.327495 
L 301.760432 351.538753 
L 302.401603 356.3651 
L 302.882481 358.657264 
L 303.363359 359.975804 
L 303.683944 360.37975 
L 304.004529 360.445832 
L 304.325114 360.20744 
L 304.805992 359.346323 
L 305.28687 357.965314 
L 305.928041 355.461996 
L 306.889796 350.63991 
L 308.33243 341.939079 
L 312.820624 313.760492 
L 314.42355 305.483704 
L 315.866183 299.257587 
L 317.148524 294.736832 
L 318.270573 291.556796 
L 319.392621 289.077197 
L 320.354377 287.485087 
L 321.15584 286.516472 
L 321.957303 285.857958 
L 322.758766 285.494643 
L 323.560229 285.411583 
L 324.361693 285.594034 
L 325.163156 286.027629 
L 325.964619 286.698496 
L 326.926375 287.798067 
L 328.048423 289.459615 
L 329.330764 291.818625 
L 330.773398 295.006477 
L 332.376324 299.144829 
L 333.818957 303.349555 
L 334.460128 250.229887 
L 335.101298 215.426462 
L 335.582176 200.114573 
L 335.902762 194.600812 
L 336.223347 192.583497 
L 336.383639 192.819957 
L 336.543932 193.852552 
L 336.864517 198.208047 
L 337.345395 210.11505 
L 337.826273 227.938794 
L 338.467444 259.951129 
L 338.948321 281.597582 
L 339.749785 306.904589 
L 340.551248 325.537101 
L 341.352711 338.692578 
L 341.993881 345.965115 
L 342.635052 350.84005 
L 343.11593 353.162334 
L 343.596808 354.506957 
L 343.917393 354.926595 
L 344.237978 355.007359 
L 344.558563 354.782908 
L 344.879149 354.284561 
L 345.360026 353.086601 
L 346.001197 350.785351 
L 346.80266 347.034458 
L 347.924708 340.683487 
L 350.329098 325.343323 
L 352.573195 311.619265 
L 354.176121 303.139736 
L 355.618754 296.716168 
L 356.901095 292.027827 
L 358.023144 288.715144 
L 359.145192 286.119474 
L 360.106948 284.442104 
L 360.908411 283.412506 
L 361.709874 282.701859 
L 362.511337 282.294773 
L 363.3128 282.175685 
L 364.114264 282.32915 
L 364.915727 282.740049 
L 365.71719 283.393747 
L 366.678946 284.478946 
L 367.800994 286.130737 
L 369.083335 288.485605 
L 370.525969 291.674878 
L 372.128895 295.819074 
L 373.090651 298.579304 
L 373.731821 246.437045 
L 374.372992 212.540732 
L 374.853869 197.860805 
L 375.174455 192.744883 
L 375.49504 191.106557 
L 375.655333 191.525456 
L 375.975918 194.712936 
L 376.296503 200.872019 
L 376.777381 215.280022 
L 377.418551 243.240851 
L 378.380307 287.987566 
L 379.18177 311.785539 
L 379.983233 329.18174 
L 380.784697 341.334267 
L 381.425867 347.949271 
L 382.067038 352.278538 
L 382.547915 354.256619 
L 383.028793 355.306894 
L 383.349379 355.555595 
L 383.669964 355.484093 
L 383.990549 355.124791 
L 384.471427 354.111541 
L 385.112597 352.016918 
L 385.914061 348.469936 
L 387.036109 342.322894 
L 389.119913 329.251861 
L 391.684595 313.528771 
L 393.287521 305.042288 
L 394.730155 298.597132 
L 396.012496 293.88306 
L 397.134544 290.544869 
L 398.256593 287.921665 
L 399.218348 286.219179 
L 400.180104 284.995738 
L 400.981567 284.323387 
L 401.78303 283.949955 
L 402.584494 283.859629 
L 403.385957 284.036756 
L 404.18742 284.466045 
L 404.988883 285.132731 
L 405.950639 286.22625 
L 407.072687 287.877617 
L 408.355028 290.218606 
L 409.797662 293.375358 
L 411.400588 297.46298 
L 413.163807 302.581165 
L 413.644685 304.079081 
L 414.285855 251.145959 
L 414.927026 216.513878 
L 415.407904 201.31408 
L 415.728489 195.865365 
L 416.049074 193.904485 
L 416.209367 194.165753 
L 416.369659 195.220801 
L 416.690245 199.613954 
L 417.171122 211.558802 
L 417.652 229.397529 
L 418.293171 261.394042 
L 418.774049 283.143413 
L 419.575512 308.729961 
L 420.376975 327.635665 
L 421.178438 341.05675 
L 421.819609 348.535724 
L 422.460779 353.611369 
L 422.941657 356.080284 
L 423.422535 357.568104 
L 423.74312 358.081267 
L 424.063705 358.253984 
L 424.384291 358.119899 
L 424.704876 357.710316 
L 425.185754 356.642469 
L 425.826924 354.508971 
L 426.628387 350.95841 
L 427.750436 344.870034 
L 429.83424 332.027175 
L 432.238629 317.551461 
L 433.841555 309.142645 
L 435.284189 302.722248 
L 436.56653 297.995744 
L 437.688578 294.62108 
L 438.810627 291.938385 
L 439.772383 290.167239 
L 440.734138 288.859435 
L 441.535601 288.105218 
L 442.337065 287.639794 
L 443.138528 287.447731 
L 443.939991 287.513769 
L 444.741454 287.82303 
L 445.542917 288.36117 
L 446.504673 289.289813 
L 447.626721 290.735168 
L 448.909062 292.824281 
L 450.351696 295.679075 
L 451.954622 299.411464 
L 453.557548 303.66751 
L 454.198719 251.257684 
L 454.839889 217.096263 
L 455.320767 202.214658 
L 455.641352 196.961659 
L 455.961938 195.183578 
L 456.12223 195.531474 
L 456.442816 198.574518 
L 456.763401 204.585739 
L 457.244279 218.765216 
L 457.885449 246.408495 
L 458.847205 290.968689 
L 459.648668 314.868787 
L 460.450131 332.363755 
L 461.251594 344.608498 
L 461.892765 351.290932 
L 462.533935 355.680974 
L 463.014813 357.699839 
L 463.495691 358.786527 
L 463.816276 359.056983 
L 464.136862 359.005169 
L 464.457447 358.663451 
L 464.938325 357.672575 
L 465.579495 355.600199 
L 466.380958 352.068706 
L 467.503007 345.920262 
L 469.426518 333.812685 
L 472.151493 316.841496 
L 473.754419 308.158699 
L 475.197053 301.497157 
L 476.479394 296.560806 
L 477.601442 293.006201 
L 478.72349 290.147199 
L 479.685246 288.227994 
L 480.647002 286.775114 
L 481.448465 285.902395 
L 482.249928 285.320748 
L 483.051391 285.014841 
L 483.852854 284.969516 
L 484.654318 285.170001 
L 485.455781 285.602063 
L 486.417536 286.407124 
L 487.379292 287.503964 
L 488.501341 289.124949 
L 489.783682 291.390932 
L 491.226315 294.418902 
L 492.829241 298.317505 
L 493.630705 300.458608 
L 494.271875 248.000605 
L 494.913046 213.806958 
L 495.393923 198.909414 
L 495.714509 193.649006 
L 496.035094 191.865726 
L 496.195387 192.211769 
L 496.515972 195.252446 
L 496.836557 201.262915 
L 497.317435 215.443899 
L 497.958605 243.093329 
L 498.920361 287.801231 
L 499.721824 311.920001 
L 500.523287 329.614672 
L 501.324751 342.040879 
L 501.965921 348.855975 
L 502.607092 353.368144 
L 503.087969 355.472037 
L 503.568847 356.638404 
L 503.889433 356.959134 
L 504.210018 356.955406 
L 504.530603 356.659663 
L 505.011481 355.733953 
L 505.652651 353.74177 
L 506.454115 350.300571 
L 507.576163 344.261909 
L 509.499674 332.304585 
L 512.224649 315.484007 
L 513.827575 306.865097 
L 515.270209 300.249578 
L 516.55255 295.346888 
L 517.674598 291.817165 
L 518.796647 288.979487 
L 519.758402 287.07615 
L 520.720158 285.637222 
L 521.521621 284.774846 
L 522.323084 284.202512 
L 523.124548 283.905002 
L 523.926011 283.867258 
L 524.727474 284.074603 
L 525.528937 284.512891 
L 526.490693 285.324704 
L 527.452448 286.427641 
L 528.574497 288.055089 
L 529.856838 290.327856 
L 531.299471 293.363065 
L 532.902398 297.269746 
L 533.864153 299.858588 
L 534.505324 247.202682 
L 535.146494 212.843465 
L 535.627372 197.839998 
L 535.947958 192.516665 
L 536.268543 190.676064 
L 536.428835 190.995412 
L 536.749421 193.986382 
L 537.070006 199.951749 
L 537.550884 214.07297 
L 538.192054 241.65587 
L 539.15381 286.533988 
L 539.955273 310.974395 
L 540.756736 328.954886 
L 541.558199 341.634033 
L 542.19937 348.629737 
L 542.84054 353.304726 
L 543.321418 355.519885 
L 543.802296 356.788836 
L 544.122881 357.173397 
L 544.443467 357.230031 
L 544.764052 356.99133 
L 545.24493 356.145272 
L 545.725808 354.795903 
L 546.366978 352.356958 
L 547.328734 347.670133 
L 548.771368 339.234719 
L 553.259561 312.055698 
L 554.862487 304.114456 
L 556.144828 298.759332 
L 557.427169 294.323925 
L 558.549218 291.188864 
L 559.671266 288.725464 
L 560.633022 287.123602 
L 561.594778 285.96682 
L 562.396241 285.324385 
L 563.197704 284.958183 
L 563.999167 284.853226 
L 564.80063 284.994854 
L 565.602093 285.368901 
L 566.563849 286.105518 
L 567.525605 287.135231 
L 568.647653 288.679601 
L 569.929994 290.860326 
L 571.372628 293.795456 
L 572.975554 297.595051 
L 574.257895 301.002292 
L 574.899065 248.035034 
L 575.540236 213.401365 
L 576.021114 198.213388 
L 576.341699 192.776216 
L 576.662284 190.828554 
L 576.822577 191.096777 
L 576.98287 192.158881 
L 577.303455 196.566109 
L 577.784333 208.530907 
L 578.265211 226.386851 
L 578.906381 258.400234 
L 579.387259 280.41576 
L 580.188722 306.608586 
L 580.990185 326.048234 
L 581.791648 339.933823 
L 582.432819 347.736876 
L 583.073989 353.096679 
L 583.554867 355.753893 
L 584.035745 357.40985 
L 584.35633 358.024403 
L 584.676916 358.290302 
L 584.997501 358.241492 
L 585.318086 357.909575 
L 585.798964 356.944609 
L 586.440134 354.924386 
L 587.241598 351.480177 
L 588.363646 345.482385 
L 590.287157 333.671159 
L 593.012132 317.120417 
L 594.615058 308.657636 
L 596.057692 302.168991 
L 597.340033 297.364537 
L 598.462081 293.908227 
L 599.58413 291.131802 
L 600.545885 289.271276 
L 601.507641 287.86639 
L 602.309104 287.025889 
L 603.110567 286.469751 
L 603.912031 286.183001 
L 604.713494 286.150846 
L 605.514957 286.358889 
L 606.31642 286.793271 
L 607.278176 287.594738 
L 608.239931 288.681639 
L 609.36198 290.283871 
L 610.644321 292.520226 
L 612.086954 295.506195 
L 613.209003 298.142084 
L 613.850173 245.873997 
L 614.491344 211.878302 
L 614.972222 197.129812 
L 615.292807 191.967655 
L 615.613392 190.281049 
L 615.773685 190.674685 
L 616.09427 193.808813 
L 616.414855 199.910135 
L 616.895733 214.221938 
L 617.536904 242.034601 
L 618.498659 287.209655 
L 619.300123 311.858239 
L 620.101586 330.011781 
L 620.903049 342.830547 
L 621.544219 349.915286 
L 622.18539 354.660475 
L 622.666268 356.916695 
L 623.147146 358.217393 
L 623.467731 358.618223 
L 623.788316 358.687406 
L 624.108901 358.4577 
L 624.589779 357.618834 
L 625.070657 356.269586 
L 625.711828 353.820741 
L 626.673583 349.100005 
L 628.116217 340.578555 
L 632.60441 312.97348 
L 634.207337 304.856372 
L 635.64997 298.738502 
L 636.932311 294.281039 
L 638.05436 291.128418 
L 639.176408 288.648462 
L 640.138164 287.033045 
L 641.09992 285.863322 
L 641.901383 285.210657 
L 642.702846 284.834842 
L 643.504309 284.721014 
L 644.305772 284.854652 
L 645.107235 285.221734 
L 646.068991 285.951547 
L 647.030747 286.976383 
L 648.152795 288.517804 
L 649.435136 290.699181 
L 650.87777 293.640703 
L 652.480696 297.455048 
L 653.92333 301.330174 
L 654.5645 247.540867 
L 655.205671 212.16207 
L 655.686548 196.461384 
L 656.007134 190.702831 
L 656.327719 188.44924 
L 656.488012 188.570067 
L 656.648304 189.488372 
L 656.968889 193.618461 
L 657.449767 205.19251 
L 657.930645 222.685862 
L 658.571816 254.25637 
L 659.052694 276.4669 
L 659.854157 303.350178 
L 660.65562 323.40455 
L 661.457083 337.835747 
L 662.098253 346.029795 
L 662.739424 351.743526 
L 663.380594 355.376883 
L 663.861472 356.94877 
L 664.182058 357.5215 
L 664.502643 357.75585 
L 664.823228 357.684887 
L 665.143813 357.339399 
L 665.624691 356.368507 
L 666.265862 354.363717 
L 667.067325 350.969476 
L 668.189373 345.084597 
L 670.112885 333.538662 
L 672.837859 317.421103 
L 674.440786 309.209324 
L 675.883419 302.932998 
L 677.16576 298.303151 
L 678.287809 294.987604 
L 679.409857 292.340394 
L 680.371613 290.581478 
L 681.333368 289.269962 
L 682.134832 288.501186 
L 682.936295 288.011459 
L 683.737758 287.786031 
L 684.539221 287.810349 
L 685.340684 288.070258 
L 686.142147 288.552149 
L 687.103903 289.405218 
L 688.225951 290.752864 
L 689.348 292.450684 
L 690.630341 294.783852 
L 692.072974 297.864544 
L 693.675901 301.797883 
L 694.156778 303.074219 
L 694.797949 249.313428 
L 695.439119 213.9636 
L 695.919997 198.283964 
L 696.240583 192.538843 
L 696.561168 190.29807 
L 696.72146 190.425049 
L 696.881753 191.349322 
L 697.202338 195.490766 
L 697.683216 207.080309 
L 698.164094 224.587222 
L 698.805265 256.172726 
L 699.286142 278.430702 
L 700.087606 305.40763 
L 700.889069 325.53285 
L 701.690532 340.013964 
L 702.331702 348.23415 
L 702.972873 353.962803 
L 703.614043 357.600814 
L 704.094921 359.170011 
L 704.415506 359.738213 
L 704.736092 359.965975 
L 705.056677 359.886473 
L 705.377262 359.530593 
L 705.85814 358.540867 
L 706.499311 356.505409 
L 707.300774 353.064932 
L 708.422822 347.102944 
L 710.346334 335.399691 
L 713.071308 319.027118 
L 714.674234 310.657747 
L 716.116868 304.239009 
L 717.399209 299.483908 
L 718.521257 296.060715 
L 719.643306 293.308273 
L 720.605062 291.461405 
L 721.566817 290.064226 
L 722.36828 289.225923 
L 723.169744 288.668431 
L 723.971207 288.37705 
L 724.77267 288.337266 
L 725.574133 288.534952 
L 726.375596 288.956518 
L 727.337352 289.739722 
L 728.299108 290.805622 
L 729.421156 292.380441 
L 730.703497 294.582387 
L 732.146131 297.526766 
L 733.749057 301.321956 
L 734.069642 302.142116 
L 734.710813 248.31283 
L 735.351983 212.900048 
L 735.832861 197.17643 
L 736.153446 191.40341 
L 736.474031 189.135819 
L 736.634324 189.249781 
L 736.794617 190.161292 
L 737.115202 194.277964 
L 737.59608 205.832174 
L 738.076958 223.305872 
L 738.718128 254.850262 
L 739.199006 277.172853 
L 740.000469 304.320593 
L 740.801932 324.596087 
L 741.603395 339.208247 
L 742.244566 347.520371 
L 742.885736 353.3303 
L 743.526907 357.039676 
L 744.007785 358.65634 
L 744.32837 359.253477 
L 744.648955 359.508111 
L 744.969541 359.453507 
L 745.290126 359.120641 
L 745.771004 358.162088 
L 746.412174 356.162385 
L 747.213637 352.758168 
L 748.335686 346.833313 
L 750.259197 335.164431 
L 752.984172 318.798099 
L 754.587098 310.418926 
L 756.029732 303.987123 
L 757.312073 299.218931 
L 758.434121 295.784151 
L 759.556169 293.020668 
L 760.517925 291.165146 
L 761.479681 289.760318 
L 762.281144 288.916541 
L 763.082607 288.354484 
L 763.88407 288.059511 
L 764.685533 288.017152 
L 765.486997 288.213316 
L 766.28846 288.63443 
L 767.250215 289.418523 
L 768.211971 290.486876 
L 769.33402 292.066523 
L 770.616361 294.276543 
L 772.058994 297.23319 
L 773.66192 301.045843 
L 773.822213 301.455441 
L 774.463384 247.426492 
L 775.104554 211.829563 
L 775.585432 195.977385 
L 775.906017 190.122981 
L 776.226602 187.777332 
L 776.386895 187.853479 
L 776.547188 188.727968 
L 776.867773 192.772921 
L 777.348651 204.225187 
L 777.829529 221.603418 
L 778.470699 253.030069 
L 778.951577 275.42425 
L 779.75304 302.8028 
L 780.554503 323.284957 
L 781.355966 338.081112 
L 781.997137 346.525157 
L 782.638307 352.454312 
L 783.279478 356.271037 
L 783.760356 357.960906 
L 784.241234 358.793357 
L 784.561819 358.931131 
L 784.882404 358.773059 
L 785.202989 358.349117 
L 785.683867 357.27515 
L 786.325038 355.156658 
L 787.126501 351.651791 
L 788.248549 345.657078 
L 790.332353 333.009882 
L 792.897035 317.813813 
L 794.499962 309.574273 
L 795.942595 303.272788 
L 797.224936 298.61808 
L 798.346985 295.278249 
L 799.469033 292.604402 
L 800.430789 290.821011 
L 801.392545 289.483819 
L 802.194008 288.692987 
L 802.995471 288.180846 
L 803.796934 287.932876 
L 804.598397 287.934755 
L 805.39986 288.172555 
L 806.201323 288.632878 
L 807.163079 289.46107 
L 808.285127 290.781483 
L 809.407176 292.454444 
L 810.689517 294.762634 
L 812.13215 297.820236 
L 813.414491 300.911066 
L 814.055662 246.707867 
L 814.696832 210.950665 
L 815.17771 194.986821 
L 815.498296 189.061816 
L 815.818881 186.648513 
L 815.979173 186.691906 
L 816.139466 187.53434 
L 816.460051 191.51723 
L 816.940929 202.881347 
L 817.421807 220.177101 
L 818.062978 251.502123 
L 818.543855 273.955164 
L 819.345319 301.524628 
L 820.146782 322.175591 
L 820.948245 337.119829 
L 821.589415 345.668397 
L 822.230586 351.690506 
L 822.871756 355.58938 
L 823.352634 357.334227 
L 823.833512 358.216316 
L 824.154097 358.38437 
L 824.474683 358.254433 
L 824.795268 357.856569 
L 825.276146 356.81805 
L 825.917316 354.740413 
L 826.718779 351.27722 
L 827.840828 345.325434 
L 829.924632 332.71944 
L 832.489314 317.525253 
L 834.09224 309.269212 
L 835.534874 302.945638 
L 836.817215 298.267609 
L 837.939263 294.905659 
L 839.061311 292.208872 
L 840.023067 290.405619 
L 840.984823 289.048707 
L 841.786286 288.241732 
L 842.587749 287.713838 
L 843.389212 287.450606 
L 844.190675 287.437793 
L 844.992139 287.661536 
L 845.793602 288.108493 
L 846.755357 288.921612 
L 847.717113 290.017165 
L 848.839162 291.626683 
L 850.121503 293.868967 
L 851.564136 296.860263 
L 853.167062 300.710232 
L 854.609696 304.602732 
L 855.250867 249.166166 
L 855.892037 212.286879 
L 856.372915 195.550327 
L 856.6935 189.141328 
L 857.014085 186.267931 
L 857.174378 186.089969 
L 857.334671 186.7167 
L 857.655256 190.284717 
L 857.975841 196.779201 
L 858.456719 211.61025 
L 859.09789 239.996852 
L 859.899353 277.291339 
L 860.700816 303.915286 
L 861.502279 323.819037 
L 862.303742 338.184437 
L 862.944913 346.373485 
L 863.586083 352.11524 
L 864.227254 355.802381 
L 864.708131 357.427765 
L 865.189009 358.220102 
L 865.509595 358.343198 
L 865.83018 358.179145 
L 866.150765 357.757162 
L 866.631643 356.699475 
L 867.272813 354.62422 
L 868.074277 351.201577 
L 869.196325 345.361007 
L 871.440422 332.108241 
L 873.844811 318.348532 
L 875.447737 310.392207 
L 876.890371 304.325846 
L 878.172712 299.860889 
L 879.29476 296.67099 
L 880.416809 294.131647 
L 881.378564 292.451283 
L 882.34032 291.205995 
L 883.141783 290.483471 
L 883.943246 290.032343 
L 884.74471 289.83834 
L 885.546173 289.887405 
L 886.347636 290.165886 
L 887.149099 290.660672 
L 888.110855 291.522413 
L 889.232903 292.871827 
L 890.515244 294.831623 
L 891.797585 297.198659 
L 893.240219 300.303993 
L 894.362267 303.015275 
L 895.003438 248.335416 
L 895.644608 212.145337 
L 896.125486 195.883603 
L 896.446071 189.772029 
L 896.766656 187.181355 
L 896.926949 187.139401 
L 897.087242 187.898658 
L 897.407827 191.721535 
L 897.888705 202.860896 
L 898.369583 219.949291 
L 899.010753 251.023227 
L 899.491631 273.567263 
L 900.293094 301.475379 
L 901.094557 322.418717 
L 901.89602 337.613503 
L 902.537191 346.335225 
L 903.178361 352.508443 
L 903.819532 356.538296 
L 904.30041 358.369257 
L 904.781288 359.327875 
L 905.101873 359.541962 
L 905.422458 359.454295 
L 905.743043 359.095128 
L 906.223921 358.108343 
L 906.865092 356.088799 
L 907.666555 352.682516 
L 908.788603 346.785124 
L 910.712115 335.208952 
L 913.437089 318.997091 
L 915.040016 310.696807 
L 916.482649 304.322024 
L 917.76499 299.592264 
L 918.887039 296.18173 
L 920.009087 293.434227 
L 920.970843 291.586346 
L 921.932599 290.184109 
L 922.894354 289.203941 
L 923.695817 288.69184 
L 924.497281 288.441488 
L 925.298744 288.438788 
L 926.100207 288.670039 
L 926.90167 289.122075 
L 927.863426 289.93834 
L 928.985474 291.242578 
L 930.107522 292.897465 
L 931.389863 295.183344 
L 932.832497 298.214594 
L 933.794253 300.48374 
L 933.954545 284.960636 
L 933.954545 284.960636 
" clip-path="url(#p9bcaace552)" style="fill: none; stroke: #1f77b4; stroke-width: 1.5; stroke-linecap: square"/>
   </g>
   <g id="line2d_13">
    <path d="M 173.045455 78.12 
L 177.693941 78.12 
L 177.854233 430.92 
L 213.278903 430.92 
L 213.439196 78.12 
L 218.087682 78.12 
L 218.247975 430.92 
L 253.99323 430.92 
L 254.153523 78.12 
L 258.802009 78.12 
L 258.962302 430.92 
L 293.585509 430.92 
L 293.745801 78.12 
L 298.394287 78.12 
L 298.55458 430.92 
L 333.818957 430.92 
L 333.97925 78.12 
L 338.627736 78.12 
L 338.788029 430.92 
L 373.090651 430.92 
L 373.250943 78.12 
L 377.899429 78.12 
L 378.059722 430.92 
L 413.644685 430.92 
L 413.804977 78.12 
L 418.453463 78.12 
L 418.613756 430.92 
L 453.557548 430.92 
L 453.717841 78.12 
L 458.366327 78.12 
L 458.52662 430.92 
L 493.630705 430.92 
L 493.790997 78.12 
L 498.439483 78.12 
L 498.599776 430.92 
L 533.864153 430.92 
L 534.024446 78.12 
L 538.672932 78.12 
L 538.833225 430.92 
L 574.257895 430.92 
L 574.418188 78.12 
L 579.066674 78.12 
L 579.226966 430.92 
L 613.209003 430.92 
L 613.369295 78.12 
L 618.017782 78.12 
L 618.178074 430.92 
L 653.92333 430.92 
L 654.083622 78.12 
L 658.732108 78.12 
L 658.892401 430.92 
L 694.156778 430.92 
L 694.317071 78.12 
L 698.965557 78.12 
L 699.12585 430.92 
L 734.069642 430.92 
L 734.229935 78.12 
L 738.878421 78.12 
L 739.038713 430.92 
L 773.822213 430.92 
L 773.982506 78.12 
L 778.630992 78.12 
L 778.791284 430.92 
L 813.414491 430.92 
L 813.574784 78.12 
L 818.22327 78.12 
L 818.383563 430.92 
L 854.609696 430.92 
L 854.769989 78.12 
L 859.418475 78.12 
L 859.578767 430.92 
L 894.362267 430.92 
L 894.52256 78.12 
L 899.171046 78.12 
L 899.331338 430.92 
L 933.794253 430.92 
L 933.954545 78.12 
L 933.954545 78.12 
" clip-path="url(#p9bcaace552)" style="fill: none; stroke: #ff7f0e; stroke-width: 1.5; stroke-linecap: square"/>
   </g>
   <g id="line2d_14">
    <path d="M 929.466352 430.92 
" clip-path="url(#p9bcaace552)" style="fill: none; stroke: #000000; stroke-width: 1.5; stroke-linecap: square"/>
    <defs>
     <path id="m9448028ec0" d="M 0 1 
C 0.265203 1 0.51958 0.894634 0.707107 0.707107 
C 0.894634 0.51958 1 0.265203 1 0 
C 1 -0.265203 0.894634 -0.51958 0.707107 -0.707107 
C 0.51958 -0.894634 0.265203 -1 0 -1 
C -0.265203 -1 -0.51958 -0.894634 -0.707107 -0.707107 
C -0.894634 -0.51958 -1 -0.265203 -1 0 
C -1 0.265203 -0.894634 0.51958 -0.707107 0.707107 
C -0.51958 0.894634 -0.265203 1 0 1 
z
" style="stroke: #000000"/>
    </defs>
    <g clip-path="url(#p9bcaace552)">
     <use xlink:href="#m9448028ec0" x="173.045455" y="78.12" style="stroke: #000000"/>
     <use xlink:href="#m9448028ec0" x="178.174819" y="430.92" style="stroke: #000000"/>
     <use xlink:href="#m9448028ec0" x="183.14389" y="430.92" style="stroke: #000000"/>
     <use xlink:href="#m9448028ec0" x="188.112961" y="78.12" style="stroke: #000000"/>
     <use xlink:href="#m9448028ec0" x="193.082033" y="430.92" style="stroke: #000000"/>
     <use xlink:href="#m9448028ec0" x="198.211397" y="430.92" style="stroke: #000000"/>
     <use xlink:href="#m9448028ec0" x="203.180468" y="78.12" style="stroke: #000000"/>
     <use xlink:href="#m9448028ec0" x="208.149539" y="430.92" style="stroke: #000000"/>
     <use xlink:href="#m9448028ec0" x="213.118611" y="78.12" style="stroke: #000000"/>
     <use xlink:href="#m9448028ec0" x="218.247975" y="430.92" style="stroke: #000000"/>
     <use xlink:href="#m9448028ec0" x="223.217046" y="430.92" style="stroke: #000000"/>
     <use xlink:href="#m9448028ec0" x="228.186118" y="78.12" style="stroke: #000000"/>
     <use xlink:href="#m9448028ec0" x="233.155189" y="430.92" style="stroke: #000000"/>
     <use xlink:href="#m9448028ec0" x="238.284553" y="430.92" style="stroke: #000000"/>
     <use xlink:href="#m9448028ec0" x="243.253624" y="78.12" style="stroke: #000000"/>
     <use xlink:href="#m9448028ec0" x="248.222696" y="430.92" style="stroke: #000000"/>
     <use xlink:href="#m9448028ec0" x="253.191767" y="78.12" style="stroke: #000000"/>
     <use xlink:href="#m9448028ec0" x="258.321131" y="430.92" style="stroke: #000000"/>
     <use xlink:href="#m9448028ec0" x="263.290202" y="430.92" style="stroke: #000000"/>
     <use xlink:href="#m9448028ec0" x="268.259274" y="78.12" style="stroke: #000000"/>
     <use xlink:href="#m9448028ec0" x="273.228345" y="430.92" style="stroke: #000000"/>
     <use xlink:href="#m9448028ec0" x="278.357709" y="430.92" style="stroke: #000000"/>
     <use xlink:href="#m9448028ec0" x="283.326781" y="78.12" style="stroke: #000000"/>
     <use xlink:href="#m9448028ec0" x="288.295852" y="430.92" style="stroke: #000000"/>
     <use xlink:href="#m9448028ec0" x="293.264923" y="78.12" style="stroke: #000000"/>
     <use xlink:href="#m9448028ec0" x="298.394287" y="430.92" style="stroke: #000000"/>
     <use xlink:href="#m9448028ec0" x="303.363359" y="430.92" style="stroke: #000000"/>
     <use xlink:href="#m9448028ec0" x="308.33243" y="78.12" style="stroke: #000000"/>
     <use xlink:href="#m9448028ec0" x="313.301501" y="430.92" style="stroke: #000000"/>
     <use xlink:href="#m9448028ec0" x="318.430865" y="430.92" style="stroke: #000000"/>
     <use xlink:href="#m9448028ec0" x="323.399937" y="78.12" style="stroke: #000000"/>
     <use xlink:href="#m9448028ec0" x="328.369008" y="430.92" style="stroke: #000000"/>
     <use xlink:href="#m9448028ec0" x="333.33808" y="78.12" style="stroke: #000000"/>
     <use xlink:href="#m9448028ec0" x="338.467444" y="430.92" style="stroke: #000000"/>
     <use xlink:href="#m9448028ec0" x="343.436515" y="430.92" style="stroke: #000000"/>
     <use xlink:href="#m9448028ec0" x="348.405586" y="78.12" style="stroke: #000000"/>
     <use xlink:href="#m9448028ec0" x="353.374658" y="430.92" style="stroke: #000000"/>
     <use xlink:href="#m9448028ec0" x="358.504022" y="430.92" style="stroke: #000000"/>
     <use xlink:href="#m9448028ec0" x="363.473093" y="78.12" style="stroke: #000000"/>
     <use xlink:href="#m9448028ec0" x="368.442164" y="430.92" style="stroke: #000000"/>
     <use xlink:href="#m9448028ec0" x="373.411236" y="78.12" style="stroke: #000000"/>
     <use xlink:href="#m9448028ec0" x="378.5406" y="430.92" style="stroke: #000000"/>
     <use xlink:href="#m9448028ec0" x="383.509671" y="430.92" style="stroke: #000000"/>
     <use xlink:href="#m9448028ec0" x="388.478743" y="78.12" style="stroke: #000000"/>
     <use xlink:href="#m9448028ec0" x="393.447814" y="430.92" style="stroke: #000000"/>
     <use xlink:href="#m9448028ec0" x="398.577178" y="430.92" style="stroke: #000000"/>
     <use xlink:href="#m9448028ec0" x="403.546249" y="78.12" style="stroke: #000000"/>
     <use xlink:href="#m9448028ec0" x="408.515321" y="430.92" style="stroke: #000000"/>
     <use xlink:href="#m9448028ec0" x="413.484392" y="78.12" style="stroke: #000000"/>
     <use xlink:href="#m9448028ec0" x="418.613756" y="430.92" style="stroke: #000000"/>
     <use xlink:href="#m9448028ec0" x="423.582827" y="430.92" style="stroke: #000000"/>
     <use xlink:href="#m9448028ec0" x="428.551899" y="78.12" style="stroke: #000000"/>
     <use xlink:href="#m9448028ec0" x="433.52097" y="430.92" style="stroke: #000000"/>
     <use xlink:href="#m9448028ec0" x="438.650334" y="430.92" style="stroke: #000000"/>
     <use xlink:href="#m9448028ec0" x="443.619406" y="78.12" style="stroke: #000000"/>
     <use xlink:href="#m9448028ec0" x="448.588477" y="430.92" style="stroke: #000000"/>
     <use xlink:href="#m9448028ec0" x="453.557548" y="78.12" style="stroke: #000000"/>
     <use xlink:href="#m9448028ec0" x="458.686912" y="430.92" style="stroke: #000000"/>
     <use xlink:href="#m9448028ec0" x="463.655984" y="430.92" style="stroke: #000000"/>
     <use xlink:href="#m9448028ec0" x="468.625055" y="78.12" style="stroke: #000000"/>
     <use xlink:href="#m9448028ec0" x="473.594126" y="430.92" style="stroke: #000000"/>
     <use xlink:href="#m9448028ec0" x="478.72349" y="430.92" style="stroke: #000000"/>
     <use xlink:href="#m9448028ec0" x="483.692562" y="78.12" style="stroke: #000000"/>
     <use xlink:href="#m9448028ec0" x="488.661633" y="430.92" style="stroke: #000000"/>
     <use xlink:href="#m9448028ec0" x="493.630705" y="78.12" style="stroke: #000000"/>
     <use xlink:href="#m9448028ec0" x="498.760069" y="430.92" style="stroke: #000000"/>
     <use xlink:href="#m9448028ec0" x="503.72914" y="430.92" style="stroke: #000000"/>
     <use xlink:href="#m9448028ec0" x="508.698211" y="78.12" style="stroke: #000000"/>
     <use xlink:href="#m9448028ec0" x="513.667283" y="430.92" style="stroke: #000000"/>
     <use xlink:href="#m9448028ec0" x="518.796647" y="430.92" style="stroke: #000000"/>
     <use xlink:href="#m9448028ec0" x="523.765718" y="78.12" style="stroke: #000000"/>
     <use xlink:href="#m9448028ec0" x="528.734789" y="430.92" style="stroke: #000000"/>
     <use xlink:href="#m9448028ec0" x="533.703861" y="78.12" style="stroke: #000000"/>
     <use xlink:href="#m9448028ec0" x="538.833225" y="430.92" style="stroke: #000000"/>
     <use xlink:href="#m9448028ec0" x="543.802296" y="430.92" style="stroke: #000000"/>
     <use xlink:href="#m9448028ec0" x="548.771368" y="78.12" style="stroke: #000000"/>
     <use xlink:href="#m9448028ec0" x="553.740439" y="430.92" style="stroke: #000000"/>
     <use xlink:href="#m9448028ec0" x="558.869803" y="430.92" style="stroke: #000000"/>
     <use xlink:href="#m9448028ec0" x="563.838874" y="78.12" style="stroke: #000000"/>
     <use xlink:href="#m9448028ec0" x="568.807946" y="430.92" style="stroke: #000000"/>
     <use xlink:href="#m9448028ec0" x="573.777017" y="78.12" style="stroke: #000000"/>
     <use xlink:href="#m9448028ec0" x="578.906381" y="430.92" style="stroke: #000000"/>
     <use xlink:href="#m9448028ec0" x="583.875452" y="430.92" style="stroke: #000000"/>
     <use xlink:href="#m9448028ec0" x="588.844524" y="78.12" style="stroke: #000000"/>
     <use xlink:href="#m9448028ec0" x="593.813595" y="430.92" style="stroke: #000000"/>
     <use xlink:href="#m9448028ec0" x="598.942959" y="430.92" style="stroke: #000000"/>
     <use xlink:href="#m9448028ec0" x="603.912031" y="78.12" style="stroke: #000000"/>
     <use xlink:href="#m9448028ec0" x="608.881102" y="430.92" style="stroke: #000000"/>
     <use xlink:href="#m9448028ec0" x="613.850173" y="78.12" style="stroke: #000000"/>
     <use xlink:href="#m9448028ec0" x="618.979537" y="430.92" style="stroke: #000000"/>
     <use xlink:href="#m9448028ec0" x="623.948609" y="430.92" style="stroke: #000000"/>
     <use xlink:href="#m9448028ec0" x="628.91768" y="78.12" style="stroke: #000000"/>
     <use xlink:href="#m9448028ec0" x="633.886751" y="430.92" style="stroke: #000000"/>
     <use xlink:href="#m9448028ec0" x="639.016115" y="430.92" style="stroke: #000000"/>
     <use xlink:href="#m9448028ec0" x="643.985187" y="78.12" style="stroke: #000000"/>
     <use xlink:href="#m9448028ec0" x="648.954258" y="430.92" style="stroke: #000000"/>
     <use xlink:href="#m9448028ec0" x="653.92333" y="78.12" style="stroke: #000000"/>
     <use xlink:href="#m9448028ec0" x="659.052694" y="430.92" style="stroke: #000000"/>
     <use xlink:href="#m9448028ec0" x="664.021765" y="430.92" style="stroke: #000000"/>
     <use xlink:href="#m9448028ec0" x="668.990836" y="78.12" style="stroke: #000000"/>
     <use xlink:href="#m9448028ec0" x="673.959908" y="430.92" style="stroke: #000000"/>
     <use xlink:href="#m9448028ec0" x="679.089272" y="430.92" style="stroke: #000000"/>
     <use xlink:href="#m9448028ec0" x="684.058343" y="78.12" style="stroke: #000000"/>
     <use xlink:href="#m9448028ec0" x="689.027414" y="430.92" style="stroke: #000000"/>
     <use xlink:href="#m9448028ec0" x="693.996486" y="78.12" style="stroke: #000000"/>
     <use xlink:href="#m9448028ec0" x="699.12585" y="430.92" style="stroke: #000000"/>
     <use xlink:href="#m9448028ec0" x="704.094921" y="430.92" style="stroke: #000000"/>
     <use xlink:href="#m9448028ec0" x="709.063993" y="78.12" style="stroke: #000000"/>
     <use xlink:href="#m9448028ec0" x="714.033064" y="430.92" style="stroke: #000000"/>
     <use xlink:href="#m9448028ec0" x="719.162428" y="430.92" style="stroke: #000000"/>
     <use xlink:href="#m9448028ec0" x="724.131499" y="78.12" style="stroke: #000000"/>
     <use xlink:href="#m9448028ec0" x="729.100571" y="430.92" style="stroke: #000000"/>
     <use xlink:href="#m9448028ec0" x="734.069642" y="78.12" style="stroke: #000000"/>
     <use xlink:href="#m9448028ec0" x="739.199006" y="430.92" style="stroke: #000000"/>
     <use xlink:href="#m9448028ec0" x="744.168077" y="430.92" style="stroke: #000000"/>
     <use xlink:href="#m9448028ec0" x="749.137149" y="78.12" style="stroke: #000000"/>
     <use xlink:href="#m9448028ec0" x="754.10622" y="430.92" style="stroke: #000000"/>
     <use xlink:href="#m9448028ec0" x="759.235584" y="430.92" style="stroke: #000000"/>
     <use xlink:href="#m9448028ec0" x="764.204656" y="78.12" style="stroke: #000000"/>
     <use xlink:href="#m9448028ec0" x="769.173727" y="430.92" style="stroke: #000000"/>
     <use xlink:href="#m9448028ec0" x="774.142798" y="78.12" style="stroke: #000000"/>
     <use xlink:href="#m9448028ec0" x="779.272162" y="430.92" style="stroke: #000000"/>
     <use xlink:href="#m9448028ec0" x="784.241234" y="430.92" style="stroke: #000000"/>
     <use xlink:href="#m9448028ec0" x="789.210305" y="78.12" style="stroke: #000000"/>
     <use xlink:href="#m9448028ec0" x="794.179376" y="430.92" style="stroke: #000000"/>
     <use xlink:href="#m9448028ec0" x="799.30874" y="430.92" style="stroke: #000000"/>
     <use xlink:href="#m9448028ec0" x="804.277812" y="78.12" style="stroke: #000000"/>
     <use xlink:href="#m9448028ec0" x="809.246883" y="430.92" style="stroke: #000000"/>
     <use xlink:href="#m9448028ec0" x="814.215955" y="78.12" style="stroke: #000000"/>
     <use xlink:href="#m9448028ec0" x="819.345319" y="430.92" style="stroke: #000000"/>
     <use xlink:href="#m9448028ec0" x="824.31439" y="430.92" style="stroke: #000000"/>
     <use xlink:href="#m9448028ec0" x="829.283461" y="78.12" style="stroke: #000000"/>
     <use xlink:href="#m9448028ec0" x="834.252533" y="430.92" style="stroke: #000000"/>
     <use xlink:href="#m9448028ec0" x="839.381897" y="430.92" style="stroke: #000000"/>
     <use xlink:href="#m9448028ec0" x="844.350968" y="78.12" style="stroke: #000000"/>
     <use xlink:href="#m9448028ec0" x="849.320039" y="430.92" style="stroke: #000000"/>
     <use xlink:href="#m9448028ec0" x="854.289111" y="78.12" style="stroke: #000000"/>
     <use xlink:href="#m9448028ec0" x="859.418475" y="430.92" style="stroke: #000000"/>
     <use xlink:href="#m9448028ec0" x="864.387546" y="430.92" style="stroke: #000000"/>
     <use xlink:href="#m9448028ec0" x="869.356618" y="78.12" style="stroke: #000000"/>
     <use xlink:href="#m9448028ec0" x="874.325689" y="430.92" style="stroke: #000000"/>
     <use xlink:href="#m9448028ec0" x="879.455053" y="430.92" style="stroke: #000000"/>
     <use xlink:href="#m9448028ec0" x="884.424124" y="78.12" style="stroke: #000000"/>
     <use xlink:href="#m9448028ec0" x="889.393196" y="430.92" style="stroke: #000000"/>
     <use xlink:href="#m9448028ec0" x="894.362267" y="78.12" style="stroke: #000000"/>
     <use xlink:href="#m9448028ec0" x="899.491631" y="430.92" style="stroke: #000000"/>
     <use xlink:href="#m9448028ec0" x="904.460702" y="430.92" style="stroke: #000000"/>
     <use xlink:href="#m9448028ec0" x="909.429774" y="78.12" style="stroke: #000000"/>
     <use xlink:href="#m9448028ec0" x="914.398845" y="430.92" style="stroke: #000000"/>
     <use xlink:href="#m9448028ec0" x="919.528209" y="430.92" style="stroke: #000000"/>
     <use xlink:href="#m9448028ec0" x="924.497281" y="78.12" style="stroke: #000000"/>
     <use xlink:href="#m9448028ec0" x="929.466352" y="430.92" style="stroke: #000000"/>
    </g>
   </g>
   <g id="patch_3">
    <path d="M 135 448.56 
L 135 60.48 
" style="fill: none; stroke: #000000; stroke-width: 0.8; stroke-linejoin: miter; stroke-linecap: square"/>
   </g>
   <g id="patch_4">
    <path d="M 972 448.56 
L 972 60.48 
" style="fill: none; stroke: #000000; stroke-width: 0.8; stroke-linejoin: miter; stroke-linecap: square"/>
   </g>
   <g id="patch_5">
    <path d="M 135 448.56 
L 972 448.56 
" style="fill: none; stroke: #000000; stroke-width: 0.8; stroke-linejoin: miter; stroke-linecap: square"/>
   </g>
   <g id="patch_6">
    <path d="M 135 60.48 
L 972 60.48 
" style="fill: none; stroke: #000000; stroke-width: 0.8; stroke-linejoin: miter; stroke-linecap: square"/>
   </g>
   <g id="legend_1">
    <g id="patch_7">
     <path d="M 142 278.315313 
L 211.084375 278.315313 
Q 213.084375 278.315313 213.084375 276.315313 
L 213.084375 232.724688 
Q 213.084375 230.724688 211.084375 230.724688 
L 142 230.724688 
Q 140 230.724688 140 232.724688 
L 140 276.315313 
Q 140 278.315313 142 278.315313 
z
" style="fill: #ffffff; opacity: 0.8; stroke: #cccccc; stroke-linejoin: miter"/>
    </g>
    <g id="line2d_15">
     <path d="M 144 238.823125 
L 154 238.823125 
L 164 238.823125 
" style="fill: none; stroke: #1f77b4; stroke-width: 1.5; stroke-linecap: square"/>
    </g>
    <g id="text_13">
     <!-- nw_0 -->
     <g transform="translate(172 242.323125) scale(0.1 -0.1)">
      <defs>
       <path id="DejaVuSans-6e" d="M 3513 2113 
L 3513 0 
L 2938 0 
L 2938 2094 
Q 2938 2591 2744 2837 
Q 2550 3084 2163 3084 
Q 1697 3084 1428 2787 
Q 1159 2491 1159 1978 
L 1159 0 
L 581 0 
L 581 3500 
L 1159 3500 
L 1159 2956 
Q 1366 3272 1645 3428 
Q 1925 3584 2291 3584 
Q 2894 3584 3203 3211 
Q 3513 2838 3513 2113 
z
" transform="scale(0.015625)"/>
       <path id="DejaVuSans-77" d="M 269 3500 
L 844 3500 
L 1563 769 
L 2278 3500 
L 2956 3500 
L 3675 769 
L 4391 3500 
L 4966 3500 
L 4050 0 
L 3372 0 
L 2619 2869 
L 1863 0 
L 1184 0 
L 269 3500 
z
" transform="scale(0.015625)"/>
       <path id="DejaVuSans-5f" d="M 3263 -1063 
L 3263 -1509 
L -63 -1509 
L -63 -1063 
L 3263 -1063 
z
" transform="scale(0.015625)"/>
      </defs>
      <use xlink:href="#DejaVuSans-6e"/>
      <use xlink:href="#DejaVuSans-77" x="63.378906"/>
      <use xlink:href="#DejaVuSans-5f" x="145.166016"/>
      <use xlink:href="#DejaVuSans-30" x="195.166016"/>
     </g>
    </g>
    <g id="line2d_16">
     <path d="M 144 253.779375 
L 154 253.779375 
L 164 253.779375 
" style="fill: none; stroke: #ff7f0e; stroke-width: 1.5; stroke-linecap: square"/>
    </g>
    <g id="text_14">
     <!-- input_0 -->
     <g transform="translate(172 257.279375) scale(0.1 -0.1)">
      <defs>
       <path id="DejaVuSans-69" d="M 603 3500 
L 1178 3500 
L 1178 0 
L 603 0 
L 603 3500 
z
M 603 4863 
L 1178 4863 
L 1178 4134 
L 603 4134 
L 603 4863 
z
" transform="scale(0.015625)"/>
       <path id="DejaVuSans-70" d="M 1159 525 
L 1159 -1331 
L 581 -1331 
L 581 3500 
L 1159 3500 
L 1159 2969 
Q 1341 3281 1617 3432 
Q 1894 3584 2278 3584 
Q 2916 3584 3314 3078 
Q 3713 2572 3713 1747 
Q 3713 922 3314 415 
Q 2916 -91 2278 -91 
Q 1894 -91 1617 61 
Q 1341 213 1159 525 
z
M 3116 1747 
Q 3116 2381 2855 2742 
Q 2594 3103 2138 3103 
Q 1681 3103 1420 2742 
Q 1159 2381 1159 1747 
Q 1159 1113 1420 752 
Q 1681 391 2138 391 
Q 2594 391 2855 752 
Q 3116 1113 3116 1747 
z
" transform="scale(0.015625)"/>
       <path id="DejaVuSans-75" d="M 544 1381 
L 544 3500 
L 1119 3500 
L 1119 1403 
Q 1119 906 1312 657 
Q 1506 409 1894 409 
Q 2359 409 2629 706 
Q 2900 1003 2900 1516 
L 2900 3500 
L 3475 3500 
L 3475 0 
L 2900 0 
L 2900 538 
Q 2691 219 2414 64 
Q 2138 -91 1772 -91 
Q 1169 -91 856 284 
Q 544 659 544 1381 
z
M 1991 3584 
L 1991 3584 
z
" transform="scale(0.015625)"/>
      </defs>
      <use xlink:href="#DejaVuSans-69"/>
      <use xlink:href="#DejaVuSans-6e" x="27.783203"/>
      <use xlink:href="#DejaVuSans-70" x="91.162109"/>
      <use xlink:href="#DejaVuSans-75" x="154.638672"/>
      <use xlink:href="#DejaVuSans-74" x="218.017578"/>
      <use xlink:href="#DejaVuSans-5f" x="257.226562"/>
      <use xlink:href="#DejaVuSans-30" x="307.226562"/>
     </g>
    </g>
    <g id="line2d_17">
     <path d="M 144 268.735625 
L 154 268.735625 
L 164 268.735625 
" style="fill: none; stroke: #000000; stroke-width: 1.5; stroke-linecap: square"/>
     <g>
      <use xlink:href="#m9448028ec0" x="154" y="268.735625" style="stroke: #000000"/>
     </g>
    </g>
    <g id="text_15">
     <!-- target -->
     <g transform="translate(172 272.235625) scale(0.1 -0.1)">
      <defs>
       <path id="DejaVuSans-61" d="M 2194 1759 
Q 1497 1759 1228 1600 
Q 959 1441 959 1056 
Q 959 750 1161 570 
Q 1363 391 1709 391 
Q 2188 391 2477 730 
Q 2766 1069 2766 1631 
L 2766 1759 
L 2194 1759 
z
M 3341 1997 
L 3341 0 
L 2766 0 
L 2766 531 
Q 2569 213 2275 61 
Q 1981 -91 1556 -91 
Q 1019 -91 701 211 
Q 384 513 384 1019 
Q 384 1609 779 1909 
Q 1175 2209 1959 2209 
L 2766 2209 
L 2766 2266 
Q 2766 2663 2505 2880 
Q 2244 3097 1772 3097 
Q 1472 3097 1187 3025 
Q 903 2953 641 2809 
L 641 3341 
Q 956 3463 1253 3523 
Q 1550 3584 1831 3584 
Q 2591 3584 2966 3190 
Q 3341 2797 3341 1997 
z
" transform="scale(0.015625)"/>
       <path id="DejaVuSans-72" d="M 2631 2963 
Q 2534 3019 2420 3045 
Q 2306 3072 2169 3072 
Q 1681 3072 1420 2755 
Q 1159 2438 1159 1844 
L 1159 0 
L 581 0 
L 581 3500 
L 1159 3500 
L 1159 2956 
Q 1341 3275 1631 3429 
Q 1922 3584 2338 3584 
Q 2397 3584 2469 3576 
Q 2541 3569 2628 3553 
L 2631 2963 
z
" transform="scale(0.015625)"/>
       <path id="DejaVuSans-67" d="M 2906 1791 
Q 2906 2416 2648 2759 
Q 2391 3103 1925 3103 
Q 1463 3103 1205 2759 
Q 947 2416 947 1791 
Q 947 1169 1205 825 
Q 1463 481 1925 481 
Q 2391 481 2648 825 
Q 2906 1169 2906 1791 
z
M 3481 434 
Q 3481 -459 3084 -895 
Q 2688 -1331 1869 -1331 
Q 1566 -1331 1297 -1286 
Q 1028 -1241 775 -1147 
L 775 -588 
Q 1028 -725 1275 -790 
Q 1522 -856 1778 -856 
Q 2344 -856 2625 -561 
Q 2906 -266 2906 331 
L 2906 616 
Q 2728 306 2450 153 
Q 2172 0 1784 0 
Q 1141 0 747 490 
Q 353 981 353 1791 
Q 353 2603 747 3093 
Q 1141 3584 1784 3584 
Q 2172 3584 2450 3431 
Q 2728 3278 2906 2969 
L 2906 3500 
L 3481 3500 
L 3481 434 
z
" transform="scale(0.015625)"/>
       <path id="DejaVuSans-65" d="M 3597 1894 
L 3597 1613 
L 953 1613 
Q 991 1019 1311 708 
Q 1631 397 2203 397 
Q 2534 397 2845 478 
Q 3156 559 3463 722 
L 3463 178 
Q 3153 47 2828 -22 
Q 2503 -91 2169 -91 
Q 1331 -91 842 396 
Q 353 884 353 1716 
Q 353 2575 817 3079 
Q 1281 3584 2069 3584 
Q 2775 3584 3186 3129 
Q 3597 2675 3597 1894 
z
M 3022 2063 
Q 3016 2534 2758 2815 
Q 2500 3097 2075 3097 
Q 1594 3097 1305 2825 
Q 1016 2553 972 2059 
L 3022 2063 
z
" transform="scale(0.015625)"/>
      </defs>
      <use xlink:href="#DejaVuSans-74"/>
      <use xlink:href="#DejaVuSans-61" x="39.208984"/>
      <use xlink:href="#DejaVuSans-72" x="100.488281"/>
      <use xlink:href="#DejaVuSans-67" x="139.851562"/>
      <use xlink:href="#DejaVuSans-65" x="203.328125"/>
      <use xlink:href="#DejaVuSans-74" x="264.851562"/>
     </g>
    </g>
   </g>
  </g>
 </g>
 <defs>
  <clipPath id="p9bcaace552">
   <rect x="135" y="60.48" width="837" height="388.08"/>
  </clipPath>
 </defs>
</svg>
