<?xml version="1.0" encoding="utf-8" standalone="no"?>
<!DOCTYPE svg PUBLIC "-//W3C//DTD SVG 1.1//EN"
  "http://www.w3.org/Graphics/SVG/1.1/DTD/svg11.dtd">
<svg xmlns:xlink="http://www.w3.org/1999/xlink" width="1080pt" height="504pt" viewBox="0 0 1080 504" xmlns="http://www.w3.org/2000/svg" version="1.1">
 <metadata>
  <rdf:RDF xmlns:dc="http://purl.org/dc/elements/1.1/" xmlns:cc="http://creativecommons.org/ns#" xmlns:rdf="http://www.w3.org/1999/02/22-rdf-syntax-ns#">
   <cc:Work>
    <dc:type rdf:resource="http://purl.org/dc/dcmitype/StillImage"/>
    <dc:date>2024-05-09T10:59:05.157109</dc:date>
    <dc:format>image/svg+xml</dc:format>
    <dc:creator>
     <cc:Agent>
      <dc:title>Matplotlib v3.7.1, https://matplotlib.org/</dc:title>
     </cc:Agent>
    </dc:creator>
   </cc:Work>
  </rdf:RDF>
 </metadata>
 <defs>
  <style type="text/css">*{stroke-linejoin: round; stroke-linecap: butt}</style>
 </defs>
 <g id="figure_1">
  <g id="patch_1">
   <path d="M 0 504 
L 1080 504 
L 1080 0 
L 0 0 
z
" style="fill: #ffffff"/>
  </g>
  <g id="axes_1">
   <g id="patch_2">
    <path d="M 135 448.56 
L 972 448.56 
L 972 60.48 
L 135 60.48 
z
" style="fill: #ffffff"/>
   </g>
   <g id="matplotlib.axis_1">
    <g id="xtick_1">
     <g id="line2d_1">
      <defs>
       <path id="m99796e568a" d="M 0 0 
L 0 3.5 
" style="stroke: #000000; stroke-width: 0.8"/>
      </defs>
      <g>
       <use xlink:href="#m99796e568a" x="173.045455" y="448.56" style="stroke: #000000; stroke-width: 0.8"/>
      </g>
     </g>
     <g id="text_1">
      <!-- 0 -->
      <g transform="translate(169.864205 463.158437) scale(0.1 -0.1)">
       <defs>
        <path id="DejaVuSans-30" d="M 2034 4250 
Q 1547 4250 1301 3770 
Q 1056 3291 1056 2328 
Q 1056 1369 1301 889 
Q 1547 409 2034 409 
Q 2525 409 2770 889 
Q 3016 1369 3016 2328 
Q 3016 3291 2770 3770 
Q 2525 4250 2034 4250 
z
M 2034 4750 
Q 2819 4750 3233 4129 
Q 3647 3509 3647 2328 
Q 3647 1150 3233 529 
Q 2819 -91 2034 -91 
Q 1250 -91 836 529 
Q 422 1150 422 2328 
Q 422 3509 836 4129 
Q 1250 4750 2034 4750 
z
" transform="scale(0.015625)"/>
       </defs>
       <use xlink:href="#DejaVuSans-30"/>
      </g>
     </g>
    </g>
    <g id="xtick_2">
     <g id="line2d_2">
      <g>
       <use xlink:href="#m99796e568a" x="333.33808" y="448.56" style="stroke: #000000; stroke-width: 0.8"/>
      </g>
     </g>
     <g id="text_2">
      <!-- 1000 -->
      <g transform="translate(320.61308 463.158437) scale(0.1 -0.1)">
       <defs>
        <path id="DejaVuSans-31" d="M 794 531 
L 1825 531 
L 1825 4091 
L 703 3866 
L 703 4441 
L 1819 4666 
L 2450 4666 
L 2450 531 
L 3481 531 
L 3481 0 
L 794 0 
L 794 531 
z
" transform="scale(0.015625)"/>
       </defs>
       <use xlink:href="#DejaVuSans-31"/>
       <use xlink:href="#DejaVuSans-30" x="63.623047"/>
       <use xlink:href="#DejaVuSans-30" x="127.246094"/>
       <use xlink:href="#DejaVuSans-30" x="190.869141"/>
      </g>
     </g>
    </g>
    <g id="xtick_3">
     <g id="line2d_3">
      <g>
       <use xlink:href="#m99796e568a" x="493.630705" y="448.56" style="stroke: #000000; stroke-width: 0.8"/>
      </g>
     </g>
     <g id="text_3">
      <!-- 2000 -->
      <g transform="translate(480.905705 463.158437) scale(0.1 -0.1)">
       <defs>
        <path id="DejaVuSans-32" d="M 1228 531 
L 3431 531 
L 3431 0 
L 469 0 
L 469 531 
Q 828 903 1448 1529 
Q 2069 2156 2228 2338 
Q 2531 2678 2651 2914 
Q 2772 3150 2772 3378 
Q 2772 3750 2511 3984 
Q 2250 4219 1831 4219 
Q 1534 4219 1204 4116 
Q 875 4013 500 3803 
L 500 4441 
Q 881 4594 1212 4672 
Q 1544 4750 1819 4750 
Q 2544 4750 2975 4387 
Q 3406 4025 3406 3419 
Q 3406 3131 3298 2873 
Q 3191 2616 2906 2266 
Q 2828 2175 2409 1742 
Q 1991 1309 1228 531 
z
" transform="scale(0.015625)"/>
       </defs>
       <use xlink:href="#DejaVuSans-32"/>
       <use xlink:href="#DejaVuSans-30" x="63.623047"/>
       <use xlink:href="#DejaVuSans-30" x="127.246094"/>
       <use xlink:href="#DejaVuSans-30" x="190.869141"/>
      </g>
     </g>
    </g>
    <g id="xtick_4">
     <g id="line2d_4">
      <g>
       <use xlink:href="#m99796e568a" x="653.92333" y="448.56" style="stroke: #000000; stroke-width: 0.8"/>
      </g>
     </g>
     <g id="text_4">
      <!-- 3000 -->
      <g transform="translate(641.19833 463.158437) scale(0.1 -0.1)">
       <defs>
        <path id="DejaVuSans-33" d="M 2597 2516 
Q 3050 2419 3304 2112 
Q 3559 1806 3559 1356 
Q 3559 666 3084 287 
Q 2609 -91 1734 -91 
Q 1441 -91 1130 -33 
Q 819 25 488 141 
L 488 750 
Q 750 597 1062 519 
Q 1375 441 1716 441 
Q 2309 441 2620 675 
Q 2931 909 2931 1356 
Q 2931 1769 2642 2001 
Q 2353 2234 1838 2234 
L 1294 2234 
L 1294 2753 
L 1863 2753 
Q 2328 2753 2575 2939 
Q 2822 3125 2822 3475 
Q 2822 3834 2567 4026 
Q 2313 4219 1838 4219 
Q 1578 4219 1281 4162 
Q 984 4106 628 3988 
L 628 4550 
Q 988 4650 1302 4700 
Q 1616 4750 1894 4750 
Q 2613 4750 3031 4423 
Q 3450 4097 3450 3541 
Q 3450 3153 3228 2886 
Q 3006 2619 2597 2516 
z
" transform="scale(0.015625)"/>
       </defs>
       <use xlink:href="#DejaVuSans-33"/>
       <use xlink:href="#DejaVuSans-30" x="63.623047"/>
       <use xlink:href="#DejaVuSans-30" x="127.246094"/>
       <use xlink:href="#DejaVuSans-30" x="190.869141"/>
      </g>
     </g>
    </g>
    <g id="xtick_5">
     <g id="line2d_5">
      <g>
       <use xlink:href="#m99796e568a" x="814.215955" y="448.56" style="stroke: #000000; stroke-width: 0.8"/>
      </g>
     </g>
     <g id="text_5">
      <!-- 4000 -->
      <g transform="translate(801.490955 463.158437) scale(0.1 -0.1)">
       <defs>
        <path id="DejaVuSans-34" d="M 2419 4116 
L 825 1625 
L 2419 1625 
L 2419 4116 
z
M 2253 4666 
L 3047 4666 
L 3047 1625 
L 3713 1625 
L 3713 1100 
L 3047 1100 
L 3047 0 
L 2419 0 
L 2419 1100 
L 313 1100 
L 313 1709 
L 2253 4666 
z
" transform="scale(0.015625)"/>
       </defs>
       <use xlink:href="#DejaVuSans-34"/>
       <use xlink:href="#DejaVuSans-30" x="63.623047"/>
       <use xlink:href="#DejaVuSans-30" x="127.246094"/>
       <use xlink:href="#DejaVuSans-30" x="190.869141"/>
      </g>
     </g>
    </g>
    <g id="text_6">
     <!-- t -->
     <g transform="translate(551.539844 476.836563) scale(0.1 -0.1)">
      <defs>
       <path id="DejaVuSans-74" d="M 1172 4494 
L 1172 3500 
L 2356 3500 
L 2356 3053 
L 1172 3053 
L 1172 1153 
Q 1172 725 1289 603 
Q 1406 481 1766 481 
L 2356 481 
L 2356 0 
L 1766 0 
Q 1100 0 847 248 
Q 594 497 594 1153 
L 594 3053 
L 172 3053 
L 172 3500 
L 594 3500 
L 594 4494 
L 1172 4494 
z
" transform="scale(0.015625)"/>
      </defs>
      <use xlink:href="#DejaVuSans-74"/>
     </g>
    </g>
   </g>
   <g id="matplotlib.axis_2">
    <g id="ytick_1">
     <g id="line2d_6">
      <defs>
       <path id="mcc40224bde" d="M 0 0 
L -3.5 0 
" style="stroke: #000000; stroke-width: 0.8"/>
      </defs>
      <g>
       <use xlink:href="#mcc40224bde" x="135" y="447.495287" style="stroke: #000000; stroke-width: 0.8"/>
      </g>
     </g>
     <g id="text_7">
      <!-- −1.0 -->
      <g transform="translate(103.717187 451.294505) scale(0.1 -0.1)">
       <defs>
        <path id="DejaVuSans-2212" d="M 678 2272 
L 4684 2272 
L 4684 1741 
L 678 1741 
L 678 2272 
z
" transform="scale(0.015625)"/>
        <path id="DejaVuSans-2e" d="M 684 794 
L 1344 794 
L 1344 0 
L 684 0 
L 684 794 
z
" transform="scale(0.015625)"/>
       </defs>
       <use xlink:href="#DejaVuSans-2212"/>
       <use xlink:href="#DejaVuSans-31" x="83.789062"/>
       <use xlink:href="#DejaVuSans-2e" x="147.412109"/>
       <use xlink:href="#DejaVuSans-30" x="179.199219"/>
      </g>
     </g>
    </g>
    <g id="ytick_2">
     <g id="line2d_7">
      <g>
       <use xlink:href="#mcc40224bde" x="135" y="381.843042" style="stroke: #000000; stroke-width: 0.8"/>
      </g>
     </g>
     <g id="text_8">
      <!-- −0.5 -->
      <g transform="translate(103.717187 385.642261) scale(0.1 -0.1)">
       <defs>
        <path id="DejaVuSans-35" d="M 691 4666 
L 3169 4666 
L 3169 4134 
L 1269 4134 
L 1269 2991 
Q 1406 3038 1543 3061 
Q 1681 3084 1819 3084 
Q 2600 3084 3056 2656 
Q 3513 2228 3513 1497 
Q 3513 744 3044 326 
Q 2575 -91 1722 -91 
Q 1428 -91 1123 -41 
Q 819 9 494 109 
L 494 744 
Q 775 591 1075 516 
Q 1375 441 1709 441 
Q 2250 441 2565 725 
Q 2881 1009 2881 1497 
Q 2881 1984 2565 2268 
Q 2250 2553 1709 2553 
Q 1456 2553 1204 2497 
Q 953 2441 691 2322 
L 691 4666 
z
" transform="scale(0.015625)"/>
       </defs>
       <use xlink:href="#DejaVuSans-2212"/>
       <use xlink:href="#DejaVuSans-30" x="83.789062"/>
       <use xlink:href="#DejaVuSans-2e" x="147.412109"/>
       <use xlink:href="#DejaVuSans-35" x="179.199219"/>
      </g>
     </g>
    </g>
    <g id="ytick_3">
     <g id="line2d_8">
      <g>
       <use xlink:href="#mcc40224bde" x="135" y="316.190798" style="stroke: #000000; stroke-width: 0.8"/>
      </g>
     </g>
     <g id="text_9">
      <!-- 0.0 -->
      <g transform="translate(112.096875 319.990017) scale(0.1 -0.1)">
       <use xlink:href="#DejaVuSans-30"/>
       <use xlink:href="#DejaVuSans-2e" x="63.623047"/>
       <use xlink:href="#DejaVuSans-30" x="95.410156"/>
      </g>
     </g>
    </g>
    <g id="ytick_4">
     <g id="line2d_9">
      <g>
       <use xlink:href="#mcc40224bde" x="135" y="250.538554" style="stroke: #000000; stroke-width: 0.8"/>
      </g>
     </g>
     <g id="text_10">
      <!-- 0.5 -->
      <g transform="translate(112.096875 254.337773) scale(0.1 -0.1)">
       <use xlink:href="#DejaVuSans-30"/>
       <use xlink:href="#DejaVuSans-2e" x="63.623047"/>
       <use xlink:href="#DejaVuSans-35" x="95.410156"/>
      </g>
     </g>
    </g>
    <g id="ytick_5">
     <g id="line2d_10">
      <g>
       <use xlink:href="#mcc40224bde" x="135" y="184.88631" style="stroke: #000000; stroke-width: 0.8"/>
      </g>
     </g>
     <g id="text_11">
      <!-- 1.0 -->
      <g transform="translate(112.096875 188.685529) scale(0.1 -0.1)">
       <use xlink:href="#DejaVuSans-31"/>
       <use xlink:href="#DejaVuSans-2e" x="63.623047"/>
       <use xlink:href="#DejaVuSans-30" x="95.410156"/>
      </g>
     </g>
    </g>
    <g id="ytick_6">
     <g id="line2d_11">
      <g>
       <use xlink:href="#mcc40224bde" x="135" y="119.234066" style="stroke: #000000; stroke-width: 0.8"/>
      </g>
     </g>
     <g id="text_12">
      <!-- 1.5 -->
      <g transform="translate(112.096875 123.033284) scale(0.1 -0.1)">
       <use xlink:href="#DejaVuSans-31"/>
       <use xlink:href="#DejaVuSans-2e" x="63.623047"/>
       <use xlink:href="#DejaVuSans-35" x="95.410156"/>
      </g>
     </g>
    </g>
   </g>
   <g id="line2d_12">
    <path d="M 173.045455 214.667059 
L 173.36604 131.293627 
L 173.686625 93.873519 
L 174.00721 78.12 
L 174.167503 78.565603 
L 174.327796 83.990133 
L 174.808673 117.555924 
L 175.289551 148.346488 
L 175.610137 156.52536 
L 175.770429 156.81776 
L 175.930722 155.239316 
L 176.4116 147.569196 
L 176.571892 147.340554 
L 176.732185 150.063901 
L 176.892478 156.835933 
L 177.213063 186.866774 
L 177.533648 245.924556 
L 177.693941 288.89234 
L 177.854233 404.516245 
L 178.014526 421.806539 
L 178.335111 361.083981 
L 178.655696 307.432739 
L 178.976282 291.787326 
L 179.136574 293.43125 
L 179.938037 314.740824 
L 180.09833 315.788623 
L 180.258623 315.686618 
L 180.579208 313.372239 
L 181.060086 309.179943 
L 181.380671 308.018692 
L 181.540964 308.083044 
L 181.861549 309.304797 
L 182.502719 313.942799 
L 182.983597 317.037906 
L 183.304183 318.242869 
L 183.624768 318.626748 
L 183.78506 318.514949 
L 184.105646 317.731821 
L 184.586524 315.348184 
L 185.227694 310.359213 
L 185.868865 303.549307 
L 186.670328 292.22172 
L 187.471791 277.344935 
L 188.593839 251.720039 
L 189.87618 223.563436 
L 190.517351 214.362963 
L 190.837936 211.761683 
L 191.158521 210.705078 
L 191.318814 210.788639 
L 191.479106 211.290621 
L 191.799692 213.55965 
L 192.28057 220.066087 
L 192.761447 230.007828 
L 193.562911 252.582494 
L 195.9673 327.479005 
L 196.60847 339.563019 
L 197.089348 344.834906 
L 197.409934 346.451021 
L 197.570226 346.69028 
L 197.730519 346.556359 
L 198.051104 345.200544 
L 198.371689 342.467205 
L 198.852567 336.038791 
L 199.493738 323.894258 
L 200.615786 296.704312 
L 202.218712 257.729141 
L 203.020175 243.032851 
L 203.661346 234.811918 
L 204.142224 230.896963 
L 204.462809 229.369627 
L 204.783394 228.690915 
L 204.943687 228.660979 
L 205.10398 228.831162 
L 205.424565 229.749564 
L 205.905443 232.474372 
L 206.386321 236.636061 
L 207.027491 244.029897 
L 207.989247 257.925605 
L 211.675977 314.531905 
L 212.637733 325.181336 
L 213.278903 330.887291 
L 213.599489 180.915014 
L 213.920074 131.446709 
L 214.240659 107.074524 
L 214.400952 102.615358 
L 214.561244 103.453763 
L 214.88183 118.237301 
L 215.683293 170.513826 
L 216.003878 176.88878 
L 216.164171 176.217325 
L 216.484756 169.980994 
L 216.805341 163.058351 
L 216.965634 161.895166 
L 217.125926 163.717566 
L 217.286219 169.627614 
L 217.606804 198.06608 
L 217.92739 255.719923 
L 218.087682 298.057678 
L 218.247975 412.347902 
L 218.408267 428.478235 
L 219.209731 298.583661 
L 219.370023 294.41454 
L 219.530316 295.736404 
L 220.331779 316.23677 
L 220.492072 317.225235 
L 220.652364 317.0837 
L 220.972949 314.733107 
L 221.453827 310.54939 
L 221.774413 309.413728 
L 221.934705 309.493515 
L 222.25529 310.748555 
L 222.896461 315.456835 
L 223.377339 318.608104 
L 223.697924 319.853951 
L 224.018509 320.282806 
L 224.178802 320.195338 
L 224.499387 319.465005 
L 224.980265 317.171514 
L 225.621436 312.322168 
L 226.262606 305.668059 
L 227.064069 294.541025 
L 227.865532 279.84704 
L 228.987581 254.403504 
L 230.269922 226.301783 
L 230.911092 217.063278 
L 231.231677 214.427653 
L 231.552263 213.327298 
L 231.712555 213.385686 
L 231.872848 213.860432 
L 232.193433 216.069225 
L 232.514018 219.937338 
L 232.994896 228.672708 
L 233.636067 244.98704 
L 234.758115 281.131998 
L 236.040456 321.012148 
L 236.681627 335.538911 
L 237.162505 342.910049 
L 237.643382 346.93659 
L 237.963968 347.723757 
L 238.12426 347.556327 
L 238.444846 346.136153 
L 238.765431 343.34201 
L 239.246309 336.829021 
L 239.887479 324.583793 
L 241.009528 297.248504 
L 242.612454 258.123371 
L 243.413917 243.372233 
L 244.055087 235.114974 
L 244.535965 231.176482 
L 244.856551 229.634995 
L 245.177136 228.943235 
L 245.337428 228.907156 
L 245.497721 229.071436 
L 245.818306 229.978699 
L 246.138892 231.61478 
L 246.619769 235.307364 
L 247.26094 242.198146 
L 248.222696 255.60883 
L 252.390304 318.460629 
L 253.35206 328.267763 
L 253.99323 333.411612 
L 254.313815 183.069526 
L 254.634401 133.306141 
L 254.954986 108.715606 
L 255.115279 104.173504 
L 255.275571 104.944387 
L 255.596156 119.632069 
L 256.39762 171.818352 
L 256.718205 178.18683 
L 256.878497 177.514079 
L 257.199083 171.275212 
L 257.519668 164.346371 
L 257.679961 163.177703 
L 257.840253 164.992669 
L 258.000546 170.893162 
L 258.321131 199.305785 
L 258.641716 256.924733 
L 258.802009 299.24178 
L 258.962302 413.498647 
L 259.122594 429.590914 
L 259.924057 299.454961 
L 260.08435 295.231518 
L 260.244643 296.498305 
L 261.046106 316.72649 
L 261.206398 317.663463 
L 261.366691 317.471991 
L 261.687276 315.026837 
L 262.168154 310.716151 
L 262.488739 309.506377 
L 262.649032 309.552296 
L 262.809325 309.987946 
L 263.12991 311.744977 
L 264.251958 319.157514 
L 264.572543 319.971134 
L 264.732836 320.071454 
L 264.893129 319.973771 
L 265.213714 319.226285 
L 265.694592 316.914183 
L 266.335762 312.050618 
L 266.976933 305.391272 
L 267.778396 294.266373 
L 268.579859 279.580877 
L 269.701907 254.155699 
L 270.984248 226.080214 
L 271.625419 216.856011 
L 271.946004 214.227712 
L 272.266589 213.13476 
L 272.426882 213.19687 
L 272.587175 213.675346 
L 272.90776 215.891613 
L 273.228345 219.767197 
L 273.709223 228.513712 
L 274.350394 244.842662 
L 275.472442 281.012062 
L 276.754783 320.917533 
L 277.395953 335.455673 
L 277.876831 342.834731 
L 278.357709 346.868655 
L 278.678294 347.660443 
L 278.838587 347.495234 
L 279.159172 346.079321 
L 279.479758 343.289204 
L 279.960635 336.781822 
L 280.601806 324.543289 
L 281.723854 297.217734 
L 283.326781 258.102753 
L 284.128244 243.355342 
L 284.769414 235.100541 
L 285.250292 231.163629 
L 285.570877 229.623083 
L 285.891463 228.932182 
L 286.051755 228.896505 
L 286.212048 229.061168 
L 286.532633 229.969148 
L 287.013511 232.679719 
L 287.494389 236.828633 
L 288.135559 244.207342 
L 289.097315 258.083612 
L 292.784045 314.636734 
L 293.585509 323.675623 
L 293.906094 174.902676 
L 294.226679 126.374614 
L 294.547264 102.687368 
L 294.707557 98.484485 
L 294.86785 99.528716 
L 295.188435 114.595504 
L 295.989898 167.086002 
L 296.310483 173.445782 
L 296.470776 172.759402 
L 296.791361 166.491111 
L 297.111946 159.546107 
L 297.272239 158.378766 
L 297.432532 160.202943 
L 297.592824 166.121332 
L 297.913409 194.597637 
L 298.233995 252.318238 
L 298.394287 294.699955 
L 298.55458 409.04324 
L 298.714873 425.245208 
L 299.516336 295.918488 
L 299.676628 291.890361 
L 299.836921 293.357969 
L 300.638384 314.607526 
L 300.798677 315.741841 
L 300.958969 315.742786 
L 301.279555 313.664674 
L 301.760432 309.85235 
L 302.081018 308.936653 
L 302.24131 309.117849 
L 302.561896 310.558629 
L 304.004529 320.242913 
L 304.325114 320.752158 
L 304.485407 320.699563 
L 304.805992 320.029374 
L 305.126578 318.692058 
L 305.607455 315.645598 
L 306.248626 309.936141 
L 306.889796 302.356631 
L 307.69126 289.835889 
L 308.653015 270.152127 
L 310.736819 224.179417 
L 311.217697 217.657253 
L 311.538283 215.002302 
L 311.858868 213.882159 
L 312.01916 213.930514 
L 312.179453 214.395148 
L 312.500038 216.583539 
L 312.820624 220.431087 
L 313.301501 229.135506 
L 313.942672 245.40882 
L 315.06472 281.484394 
L 316.347061 321.291878 
L 316.988232 335.78579 
L 317.46911 343.13399 
L 317.949988 347.139104 
L 318.270573 347.912834 
L 318.430865 347.738942 
L 318.751451 346.306349 
L 319.072036 343.500459 
L 319.552914 336.971085 
L 320.194084 324.706238 
L 321.316133 297.342306 
L 322.919059 258.187062 
L 323.720522 243.424771 
L 324.361693 235.160113 
L 324.84257 231.216842 
L 325.163156 229.672496 
L 325.483741 228.978114 
L 325.644034 228.940809 
L 325.804326 229.103914 
L 326.124911 230.008978 
L 326.445497 231.643045 
L 326.926375 235.332924 
L 327.567545 242.220611 
L 328.529301 255.627555 
L 332.696909 318.47047 
L 333.658665 328.276456 
L 333.818957 329.665971 
L 334.139543 179.941237 
L 334.460128 130.667862 
L 334.780713 106.437775 
L 334.941006 102.031551 
L 335.101298 102.912167 
L 335.421884 117.752475 
L 336.223347 170.061544 
L 336.543932 176.425983 
L 336.704225 175.747269 
L 337.02481 169.495163 
L 337.345395 162.557834 
L 337.505688 161.388493 
L 337.66598 163.205823 
L 337.826273 169.112042 
L 338.146858 197.546968 
L 338.467444 255.203044 
L 338.627736 297.544071 
L 338.788029 411.832632 
L 338.948321 427.965766 
L 339.749785 298.137104 
L 339.910077 293.988351 
L 340.07037 295.332006 
L 340.871833 315.95143 
L 341.032126 316.96394 
L 341.192418 316.846076 
L 341.513003 314.541178 
L 341.993881 310.420495 
L 342.314467 309.322531 
L 342.474759 309.419788 
L 342.795344 310.706988 
L 343.436515 315.468801 
L 343.917393 318.651538 
L 344.237978 319.914707 
L 344.558563 320.358284 
L 344.718856 320.27729 
L 345.039441 319.558304 
L 345.360026 318.181762 
L 345.840904 315.091731 
L 346.482075 309.347069 
L 347.123245 301.752048 
L 347.924708 289.231499 
L 348.886464 269.567247 
L 350.970268 223.676689 
L 351.451146 217.177835 
L 351.771731 214.538933 
L 352.092317 213.43515 
L 352.252609 213.491774 
L 352.412902 213.964727 
L 352.733487 216.169858 
L 353.054072 220.034227 
L 353.53495 228.763876 
L 354.176121 245.070493 
L 355.298169 281.202145 
L 356.58051 321.06812 
L 357.221681 335.588424 
L 357.702559 342.955038 
L 358.183436 346.977346 
L 358.504022 347.761856 
L 358.664314 347.593148 
L 358.9849 346.170515 
L 359.305485 343.374046 
L 359.786363 336.857813 
L 360.427533 324.608698 
L 361.549582 297.267735 
L 363.152508 258.136635 
L 363.953971 243.383282 
L 364.595141 235.124551 
L 365.076019 231.185106 
L 365.396605 229.643047 
L 365.71719 228.950761 
L 365.877482 228.914436 
L 366.037775 229.07848 
L 366.35836 229.9853 
L 366.678946 231.620974 
L 367.159823 235.313009 
L 367.800994 242.203159 
L 368.76275 255.613069 
L 372.930358 318.462943 
L 373.090651 320.271428 
L 373.411236 172.043419 
L 373.731821 123.936668 
L 374.052406 100.552816 
L 374.212699 96.462494 
L 374.372992 97.596606 
L 374.693577 112.785932 
L 375.49504 165.365949 
L 375.815625 171.718565 
L 375.975918 171.025758 
L 376.296503 164.744479 
L 376.617088 157.791761 
L 376.777381 156.624033 
L 376.937674 158.450678 
L 377.097966 164.374655 
L 377.418551 192.872105 
L 377.739137 250.627378 
L 377.899429 293.031358 
L 378.059722 407.403056 
L 378.220015 423.64186 
L 379.021478 294.593906 
L 379.18177 290.633854 
L 379.342063 292.171656 
L 380.143526 313.780927 
L 380.303819 314.985254 
L 380.464111 315.054632 
L 380.784697 313.107555 
L 381.265574 309.474324 
L 381.58616 308.665064 
L 381.746452 308.895445 
L 382.067038 310.426535 
L 383.509671 320.394964 
L 383.830256 320.944173 
L 383.990549 320.908979 
L 384.311134 320.268912 
L 384.63172 318.956096 
L 385.112597 315.93736 
L 385.753768 310.251228 
L 386.394938 302.683187 
L 387.196402 290.164872 
L 388.158157 270.472203 
L 390.241961 224.455803 
L 390.722839 217.920939 
L 391.043425 215.257222 
L 391.36401 214.128132 
L 391.524302 214.171961 
L 391.684595 214.632042 
L 392.00518 216.811264 
L 392.325766 220.649597 
L 392.806643 229.34019 
L 393.447814 245.595254 
L 394.569862 281.640102 
L 395.852203 321.415529 
L 396.493374 335.894968 
L 396.974252 343.233063 
L 397.45513 347.228735 
L 397.775715 347.996542 
L 397.936007 347.8198 
L 398.256593 346.381728 
L 398.577178 343.570652 
L 399.058056 337.034039 
L 399.699226 324.76051 
L 400.821275 297.383871 
L 402.424201 258.21521 
L 403.225664 243.447928 
L 403.866835 235.179953 
L 404.347712 231.234535 
L 404.668298 229.688903 
L 404.988883 228.993343 
L 405.149176 228.955485 
L 405.309468 229.118062 
L 405.630053 230.022136 
L 405.950639 231.655296 
L 406.431517 235.343957 
L 407.072687 242.230252 
L 408.034443 255.635518 
L 412.202051 318.474511 
L 413.163807 328.280007 
L 413.644685 332.240286 
L 413.96527 182.098458 
L 414.285855 132.49451 
L 414.60644 108.021441 
L 414.766733 103.523622 
L 414.927026 104.330237 
L 415.247611 119.067448 
L 416.049074 171.292056 
L 416.369659 177.658087 
L 416.529952 176.982745 
L 416.850537 170.738126 
L 417.171122 163.804927 
L 417.331415 162.635197 
L 417.491708 164.450067 
L 417.652 170.351537 
L 417.972586 198.769603 
L 418.293171 256.398781 
L 418.453463 298.722699 
L 418.613756 412.988002 
L 418.774049 429.091766 
L 419.575512 299.047881 
L 419.735804 294.847351 
L 419.896097 296.137816 
L 420.69756 316.487401 
L 420.857853 317.447911 
L 421.018145 317.279393 
L 421.338731 314.878009 
L 421.819609 310.626658 
L 422.140194 309.451808 
L 422.300486 309.513762 
L 422.621072 310.736574 
L 423.262242 315.393308 
L 423.74312 318.516016 
L 424.063705 319.746986 
L 424.384291 320.16388 
L 424.544583 320.071415 
L 424.865168 319.332851 
L 425.346046 317.030826 
L 425.987217 312.175748 
L 426.628387 305.520636 
L 427.42985 294.396809 
L 428.231314 279.709138 
L 429.353362 254.277291 
L 430.635703 226.190798 
L 431.276873 216.960185 
L 431.597459 214.32852 
L 431.918044 213.232119 
L 432.078337 213.292479 
L 432.238629 213.76919 
L 432.559214 215.981893 
L 432.8798 219.853879 
L 433.360678 228.594969 
L 434.001848 244.916716 
L 435.123896 281.073899 
L 436.406237 320.966551 
L 437.047408 335.498894 
L 437.528286 342.873906 
L 438.009164 346.904054 
L 438.329749 347.693474 
L 438.490042 347.527128 
L 438.810627 346.10903 
L 439.131212 343.316848 
L 439.61209 336.806588 
L 440.25326 324.564616 
L 441.375309 297.234056 
L 442.978235 258.113843 
L 443.779698 243.364505 
L 444.420869 235.108429 
L 444.901747 231.170695 
L 445.222332 229.629659 
L 445.542917 228.938309 
L 445.70321 228.902422 
L 445.863502 229.066884 
L 446.184088 229.974487 
L 446.664965 232.684552 
L 447.145843 236.833024 
L 447.787014 244.211227 
L 448.74877 258.086885 
L 452.4355 314.638636 
L 453.397256 325.277253 
L 453.557548 326.807009 
L 453.878134 177.535694 
L 454.198719 128.618945 
L 454.519304 104.649558 
L 454.679597 100.341276 
L 454.839889 101.300874 
L 455.160475 116.250977 
L 455.961938 168.650093 
L 456.282523 175.013383 
L 456.442816 174.331496 
L 456.763401 168.072546 
L 457.083986 161.132333 
L 457.244279 159.964303 
L 457.404571 161.785238 
L 457.564864 167.697582 
L 457.885449 196.152838 
L 458.206034 253.840218 
L 458.366327 296.200892 
L 458.52662 410.51637 
L 458.686912 426.68305 
L 459.488375 297.096116 
L 459.648668 293.005146 
L 459.808961 294.408108 
L 460.610424 315.328195 
L 460.770716 316.398684 
L 460.931009 316.337329 
L 461.251594 314.140179 
L 461.732472 310.165723 
L 462.053057 309.154019 
L 462.21335 309.290951 
L 462.533935 310.650647 
L 463.976569 320.082146 
L 464.297154 320.556313 
L 464.457447 320.488513 
L 464.778032 319.79213 
L 465.098617 318.433671 
L 465.579495 315.363571 
L 466.220666 309.634732 
L 466.861836 302.04632 
L 467.663299 289.524908 
L 468.625055 269.850665 
L 470.708859 223.919913 
L 471.189737 217.409746 
L 471.510322 214.763062 
L 471.830908 213.651349 
L 471.9912 213.703966 
L 472.151493 214.172889 
L 472.472078 216.36991 
L 472.792663 220.226131 
L 473.273541 228.943559 
L 473.914712 245.234046 
L 475.03676 281.338536 
L 476.319101 321.176182 
L 476.960272 335.683706 
L 477.441149 343.041405 
L 477.922027 347.055392 
L 478.242613 347.834685 
L 478.402905 347.663469 
L 478.72349 346.236019 
L 479.044076 343.434994 
L 479.524954 336.912408 
L 480.166124 324.655692 
L 481.288172 297.30364 
L 482.891099 258.160903 
L 483.692562 243.403249 
L 484.333732 235.141669 
L 484.81461 231.200386 
L 485.135195 229.657229 
L 485.455781 228.963937 
L 485.616073 228.927142 
L 485.776366 229.090736 
L 486.096951 229.996714 
L 486.417536 231.631617 
L 486.898414 235.322619 
L 487.539585 242.211589 
L 488.501341 255.620079 
L 492.668949 318.466615 
L 493.630705 328.273058 
L 493.95129 178.7707 
L 494.271875 129.672575 
L 494.59246 105.570789 
L 494.752753 101.212811 
L 494.913046 102.132355 
L 495.233631 117.026814 
L 496.035094 169.380283 
L 496.355679 175.744074 
L 496.515972 175.063732 
L 496.836557 168.808077 
L 497.157142 161.869091 
L 497.317435 160.700257 
L 497.477728 162.519211 
L 497.63802 168.428284 
L 497.958605 196.872864 
L 498.279191 254.54396 
L 498.439483 296.894453 
L 498.599776 411.195909 
L 498.760069 427.345195 
L 499.561532 297.633682 
L 499.721824 293.513003 
L 499.882117 294.885486 
L 500.68358 315.651131 
L 500.843873 316.69184 
L 501.004165 316.601458 
L 501.324751 314.348951 
L 501.805628 310.29934 
L 502.126214 309.243279 
L 502.286506 309.359801 
L 502.607092 310.682191 
L 503.408555 316.7065 
L 503.889433 319.458336 
L 504.210018 320.330909 
L 504.37031 320.456733 
L 504.530603 320.382116 
L 504.851188 319.674045 
L 505.171774 318.306226 
L 505.652651 315.225795 
L 506.293822 309.488729 
L 506.934992 301.896849 
L 507.736456 289.375817 
L 508.698211 269.70665 
L 510.782015 223.796406 
L 511.262893 217.292004 
L 511.583479 214.649284 
L 511.904064 213.541608 
L 512.064356 213.596265 
L 512.224649 214.067238 
L 512.545234 216.268384 
L 512.86582 220.128748 
L 513.346697 228.852387 
L 513.987868 245.151066 
L 515.109916 281.269341 
L 516.392257 321.121357 
L 517.033428 335.635362 
L 517.514306 342.997583 
L 517.995184 347.01579 
L 518.315769 347.797728 
L 518.476061 347.627784 
L 518.796647 346.202778 
L 519.117232 343.404064 
L 519.59811 336.884701 
L 520.23928 324.631842 
L 521.361329 297.285419 
L 522.964255 258.148593 
L 523.765718 243.393125 
L 524.406889 235.132993 
L 524.887766 231.192645 
L 525.208352 229.650046 
L 525.528937 228.957266 
L 525.68923 228.92071 
L 525.849522 229.084533 
L 526.170107 229.990939 
L 526.490693 231.626235 
L 526.971571 235.317762 
L 527.612741 242.207332 
L 528.574497 255.616543 
L 532.742105 318.464772 
L 533.703861 328.271431 
L 533.864153 329.661048 
L 534.184739 179.934078 
L 534.505324 130.658992 
L 534.825909 106.427705 
L 534.986202 102.021059 
L 535.146494 102.901364 
L 535.46708 117.741348 
L 536.268543 170.050936 
L 536.589128 176.415933 
L 536.749421 175.737542 
L 537.070006 169.48614 
L 537.390591 162.549559 
L 537.550884 161.380597 
L 537.711176 163.198305 
L 537.871469 169.104899 
L 538.192054 197.540554 
L 538.51264 255.197322 
L 538.672932 297.538678 
L 538.833225 411.828062 
L 538.993517 427.961936 
L 539.794981 298.135944 
L 539.955273 293.987559 
L 540.115566 295.331539 
L 540.917029 315.952095 
L 541.077322 316.964757 
L 541.237614 316.847026 
L 541.558199 314.542344 
L 542.039077 310.421885 
L 542.359663 309.324016 
L 542.519955 309.421307 
L 542.84054 310.708552 
L 543.481711 315.470374 
L 543.962589 318.653064 
L 544.283174 319.91618 
L 544.603759 320.359692 
L 544.764052 320.278661 
L 545.084637 319.559595 
L 545.405222 318.182963 
L 545.8861 315.092789 
L 546.527271 309.347926 
L 547.168441 301.752704 
L 547.969904 289.231916 
L 548.93166 269.567415 
L 551.015464 223.6765 
L 551.496342 217.177598 
L 551.816927 214.538673 
L 552.137513 213.434869 
L 552.297805 213.491485 
L 552.458098 213.96443 
L 552.778683 216.16955 
L 553.099268 220.033911 
L 553.580146 228.763554 
L 554.221317 245.070173 
L 555.343365 281.201844 
L 556.625706 321.067857 
L 557.266877 335.588181 
L 557.747755 342.95481 
L 558.228632 346.977134 
L 558.549218 347.761653 
L 558.70951 347.59295 
L 559.030096 346.170327 
L 559.350681 343.373867 
L 559.831559 336.857646 
L 560.472729 324.608547 
L 561.594778 297.267607 
L 563.197704 258.136533 
L 563.999167 243.383191 
L 564.640337 235.124467 
L 565.121215 231.185027 
L 565.441801 229.642971 
L 565.762386 228.950688 
L 565.922678 228.914365 
L 566.082971 229.07841 
L 566.403556 229.985233 
L 566.724142 231.62091 
L 567.205019 235.312948 
L 567.84619 242.203102 
L 568.807946 255.613018 
L 572.975554 318.462913 
L 573.93731 328.269786 
L 574.257895 330.97955 
L 574.57848 181.037831 
L 574.899065 131.592897 
L 575.219651 107.236958 
L 575.379943 102.78338 
L 575.540236 103.625801 
L 575.860821 118.413102 
L 576.662284 170.680034 
L 576.98287 177.046155 
L 577.143162 176.369655 
L 577.463747 170.122424 
L 577.784333 163.188301 
L 577.944625 162.019311 
L 578.104918 163.835929 
L 578.265211 169.740258 
L 578.585796 198.167604 
L 578.906381 255.810905 
L 579.066674 298.143646 
L 579.226966 412.421585 
L 579.387259 428.540835 
L 580.188722 298.606062 
L 580.349015 294.431342 
L 580.509307 295.748236 
L 581.31077 316.231016 
L 581.471063 317.217073 
L 581.631356 317.073409 
L 581.951941 314.719293 
L 582.432819 310.531797 
L 582.753404 309.394431 
L 582.913697 309.473571 
L 583.234282 310.727681 
L 583.875452 315.435328 
L 584.35633 318.586984 
L 584.676916 319.833415 
L 584.997501 320.263067 
L 585.157793 320.176067 
L 585.478379 319.446788 
L 585.959257 317.155112 
L 586.600427 312.308475 
L 587.241598 305.65722 
L 588.043061 294.533705 
L 588.844524 279.842951 
L 589.966572 254.403153 
L 591.248913 226.304384 
L 591.890084 217.066841 
L 592.210669 214.431581 
L 592.531254 213.33152 
L 592.691547 213.390031 
L 592.851839 213.864883 
L 593.172425 216.073845 
L 593.49301 219.942073 
L 593.973888 228.677528 
L 594.615058 244.991835 
L 595.737107 281.136488 
L 597.019448 321.016072 
L 597.660618 335.542522 
L 598.141496 342.913427 
L 598.622374 346.939741 
L 598.942959 347.726761 
L 599.103252 347.55926 
L 599.423837 346.138946 
L 599.744422 343.34467 
L 600.2253 336.831492 
L 600.866471 324.586033 
L 601.988519 297.250396 
L 603.591445 258.124878 
L 604.392908 243.373586 
L 605.034079 235.116219 
L 605.514957 231.177654 
L 605.835542 229.636121 
L 606.156127 228.944317 
L 606.31642 228.908217 
L 606.476713 229.072477 
L 606.797298 229.9797 
L 607.117883 231.615744 
L 607.598761 235.308274 
L 608.239931 242.19899 
L 609.201687 255.609584 
L 613.209003 316.584344 
L 613.529588 168.943935 
L 613.850173 121.287363 
L 614.170759 98.22485 
L 614.331051 94.252815 
L 614.491344 95.480788 
L 614.811929 110.796464 
L 615.613392 163.461672 
L 615.933977 169.803346 
L 616.09427 169.102256 
L 616.414855 162.804735 
L 616.735441 155.842022 
L 616.895733 154.673231 
L 617.056026 156.502006 
L 617.216318 162.43159 
L 617.536904 190.951308 
L 617.857489 248.743811 
L 618.017782 291.171851 
L 618.178074 405.574264 
L 618.338367 421.853034 
L 619.13983 293.108866 
L 619.300123 289.223177 
L 619.460415 290.837712 
L 620.261878 312.841124 
L 620.422171 314.122357 
L 620.582464 314.266974 
L 620.903049 312.46417 
L 621.383927 309.028621 
L 621.544219 308.471049 
L 621.704512 308.337166 
L 621.864805 308.62208 
L 622.18539 310.253476 
L 623.628023 320.539655 
L 623.948609 321.133978 
L 624.108901 321.118484 
L 624.429487 320.512623 
L 624.750072 319.227761 
L 625.23095 316.240882 
L 625.87212 310.581937 
L 626.513291 303.027733 
L 627.314754 290.513254 
L 628.27651 270.811826 
L 630.360314 224.749167 
L 630.841192 218.20077 
L 631.161777 215.527713 
L 631.482362 214.389096 
L 631.642655 214.428107 
L 631.802947 214.883342 
L 632.123533 217.052813 
L 632.444118 220.881353 
L 632.924996 229.557265 
L 633.566166 245.792972 
L 634.688215 281.805277 
L 635.970556 321.54679 
L 636.611726 336.010921 
L 637.092604 343.338325 
L 637.573482 347.324004 
L 637.894067 348.085541 
L 638.05436 347.90578 
L 638.374945 346.461906 
L 638.69553 343.645335 
L 639.176408 337.101045 
L 639.817579 324.818303 
L 640.939627 297.428156 
L 642.542553 258.245192 
L 643.344016 243.472575 
L 643.985187 235.201047 
L 644.466065 231.253329 
L 644.78665 229.706318 
L 645.107235 229.009492 
L 645.267528 228.971041 
L 645.42782 229.133051 
L 645.748406 230.036061 
L 646.068991 231.668248 
L 646.549869 235.355598 
L 647.191039 242.240397 
L 648.152795 255.643858 
L 652.320403 318.478663 
L 653.282159 328.283644 
L 653.92333 333.42625 
L 654.243915 183.090743 
L 654.5645 133.332392 
L 654.885085 108.745392 
L 655.045378 104.204529 
L 655.205671 104.976326 
L 655.526256 119.664956 
L 656.327719 171.849694 
L 656.648304 178.216523 
L 656.808597 177.542817 
L 657.129182 171.301869 
L 657.449767 164.370821 
L 657.61006 163.201032 
L 657.770353 165.014882 
L 657.930645 170.914268 
L 658.25123 199.324737 
L 658.571816 256.941642 
L 658.732108 299.257718 
L 658.892401 413.512158 
L 659.052694 429.60224 
L 659.854157 299.458416 
L 660.014449 295.233887 
L 660.174742 296.499715 
L 660.976205 316.724555 
L 661.136498 317.661079 
L 661.29679 317.469215 
L 661.617376 315.023422 
L 662.098253 310.712073 
L 662.418839 309.502016 
L 662.579131 309.547834 
L 662.739424 309.983407 
L 663.060009 311.740347 
L 664.182058 319.153097 
L 664.502643 319.966891 
L 664.662935 320.067311 
L 664.823228 319.969736 
L 665.143813 319.222489 
L 665.624691 316.910783 
L 666.265862 312.047795 
L 666.907032 305.389045 
L 667.708495 294.26487 
L 668.509958 279.580033 
L 669.632007 254.155609 
L 670.914348 226.080717 
L 671.555518 216.856706 
L 671.876104 214.22848 
L 672.196689 213.135587 
L 672.356981 213.197722 
L 672.517274 213.676219 
L 672.837859 215.892521 
L 673.158445 219.768128 
L 673.639322 228.51466 
L 674.280493 244.843607 
L 675.402541 281.012948 
L 676.684882 320.918309 
L 677.326053 335.456388 
L 677.806931 342.835401 
L 678.287809 346.86928 
L 678.608394 347.661039 
L 678.768686 347.495816 
L 679.089272 346.079876 
L 679.409857 343.289733 
L 679.890735 336.782313 
L 680.531905 324.543735 
L 681.653954 297.218111 
L 683.25688 258.103054 
L 684.058343 243.355612 
L 684.699514 235.100789 
L 685.180391 231.163861 
L 685.500977 229.623306 
L 685.821562 228.932397 
L 685.981855 228.896716 
L 686.142147 229.061375 
L 686.462732 229.969346 
L 686.94361 232.679906 
L 687.424488 236.828809 
L 688.065659 244.207505 
L 689.027414 258.083758 
L 692.714145 314.636827 
L 693.675901 325.27565 
L 694.156778 329.654836 
L 694.477364 179.925123 
L 694.797949 130.647939 
L 695.118534 106.415177 
L 695.278827 102.008015 
L 695.439119 102.887939 
L 695.759705 117.727531 
L 696.561168 170.037774 
L 696.881753 176.403463 
L 697.042046 175.725473 
L 697.362631 169.474945 
L 697.683216 162.539289 
L 697.843509 161.370797 
L 698.003801 163.188973 
L 698.164094 169.096031 
L 698.484679 197.532589 
L 698.805265 255.190213 
L 698.965557 297.531976 
L 699.12585 411.822377 
L 699.286142 427.957166 
L 700.087606 298.134473 
L 700.247898 293.986542 
L 700.408191 295.330925 
L 701.209654 315.952884 
L 701.369947 316.965734 
L 701.530239 316.848168 
L 701.850824 314.543755 
L 702.331702 310.423575 
L 702.652288 309.325825 
L 702.81258 309.423159 
L 703.133165 310.71046 
L 703.774336 315.472298 
L 704.255214 318.654931 
L 704.575799 319.917985 
L 704.896384 320.361417 
L 705.056677 320.280341 
L 705.377262 319.561176 
L 705.697847 318.184436 
L 706.178725 315.094087 
L 706.819896 309.348977 
L 707.461066 301.753507 
L 708.262529 289.232426 
L 709.224285 269.567617 
L 711.308089 223.676263 
L 711.788967 217.177304 
L 712.109552 214.538347 
L 712.430138 213.434519 
L 712.59043 213.491125 
L 712.750723 213.964061 
L 713.071308 216.169167 
L 713.391893 220.033518 
L 713.872771 228.763154 
L 714.513942 245.069774 
L 715.63599 281.201471 
L 716.918331 321.06753 
L 717.559502 335.58788 
L 718.04038 342.954529 
L 718.521257 346.976871 
L 718.841843 347.761402 
L 719.002135 347.592705 
L 719.322721 346.170093 
L 719.643306 343.373645 
L 720.124184 336.857439 
L 720.765354 324.60836 
L 721.887403 297.267449 
L 723.490329 258.136407 
L 724.291792 243.383078 
L 724.932962 235.124363 
L 725.41384 231.184929 
L 725.734426 229.642877 
L 726.055011 228.950598 
L 726.215303 228.914277 
L 726.375596 229.078323 
L 726.696181 229.98515 
L 727.016767 231.620829 
L 727.497644 235.312873 
L 728.138815 242.203032 
L 729.100571 255.612956 
L 733.268179 318.462876 
L 734.069642 326.810187 
L 734.390227 177.54029 
L 734.710813 128.624626 
L 735.031398 104.656002 
L 735.19169 100.347986 
L 735.351983 101.307782 
L 735.672568 116.258089 
L 736.474031 168.65687 
L 736.794617 175.019804 
L 736.954909 174.33771 
L 737.275495 168.07831 
L 737.59608 161.137621 
L 737.756372 159.969349 
L 737.916665 161.790042 
L 738.076958 167.702148 
L 738.397543 196.156938 
L 738.718128 253.843877 
L 738.878421 296.204341 
L 739.038713 410.519295 
L 739.199006 426.685503 
L 740.000469 297.096867 
L 740.160762 293.005662 
L 740.321054 294.408417 
L 741.122518 315.327782 
L 741.28281 316.398173 
L 741.443103 316.336734 
L 741.763688 314.139445 
L 742.244566 310.164846 
L 742.565151 309.153081 
L 742.725444 309.289991 
L 743.046029 310.649658 
L 744.488663 320.081213 
L 744.809248 320.555421 
L 744.969541 320.487645 
L 745.290126 319.791313 
L 745.610711 318.432909 
L 746.091589 315.3629 
L 746.732759 309.634189 
L 747.37393 302.045905 
L 748.175393 289.524645 
L 749.137149 269.85056 
L 751.220953 223.920035 
L 751.701831 217.409898 
L 752.022416 214.763229 
L 752.343001 213.651529 
L 752.503294 213.704152 
L 752.663587 214.173079 
L 752.984172 216.370107 
L 753.304757 220.226334 
L 753.785635 228.943766 
L 754.426805 245.234251 
L 755.548854 281.338728 
L 756.831195 321.17635 
L 757.472365 335.683861 
L 757.953243 343.041551 
L 758.434121 347.055528 
L 758.754706 347.834815 
L 758.914999 347.663596 
L 759.235584 346.236139 
L 759.556169 343.435109 
L 760.037047 336.912514 
L 760.678218 324.655788 
L 761.800266 297.303722 
L 763.403192 258.160968 
L 764.204656 243.403308 
L 764.845826 235.141723 
L 765.326704 231.200436 
L 765.647289 229.657277 
L 765.967874 228.963984 
L 766.128167 228.927188 
L 766.28846 229.09078 
L 766.609045 229.996757 
L 766.92963 231.631659 
L 767.410508 235.322658 
L 768.051679 242.211625 
L 769.013434 255.620111 
L 773.181043 318.466634 
L 773.822213 325.283955 
L 774.142798 176.259892 
L 774.463384 127.53634 
L 774.783969 103.707388 
L 774.944261 99.451603 
L 775.104554 100.453361 
L 775.425139 115.46155 
L 776.226602 167.905481 
L 776.547188 174.266435 
L 776.70748 173.58195 
L 777.028066 167.317507 
L 777.348651 160.373922 
L 777.508943 159.205693 
L 777.669236 161.027673 
L 777.829529 166.942433 
L 778.150114 195.406915 
L 778.470699 253.109514 
L 778.630992 295.479983 
L 778.791284 409.807867 
L 778.951577 425.990722 
L 779.75304 296.527024 
L 779.913333 292.466204 
L 780.073625 293.900254 
L 780.875089 314.979451 
L 781.035381 316.080841 
L 781.195674 316.049664 
L 781.516259 313.910208 
L 781.997137 310.014381 
L 782.317722 309.049256 
L 782.478015 309.207667 
L 782.7986 310.606715 
L 784.241234 320.160985 
L 784.561819 320.652216 
L 784.722112 320.591819 
L 785.042697 319.9082 
L 785.363282 318.560062 
L 785.84416 315.501538 
L 786.48533 309.782264 
L 787.126501 302.198342 
L 787.927964 289.677466 
L 788.88972 269.998821 
L 790.973524 224.047916 
L 791.454402 217.531917 
L 791.774987 214.881203 
L 792.095572 213.765373 
L 792.255865 213.815906 
L 792.416158 214.28273 
L 792.736743 216.475521 
L 793.057328 220.327486 
L 793.538206 229.03852 
L 794.179376 245.32055 
L 795.301425 281.410771 
L 796.583766 321.233505 
L 797.224936 335.734294 
L 797.705814 343.087292 
L 798.186692 347.096886 
L 798.507277 347.873425 
L 798.66757 347.700884 
L 798.988155 346.270888 
L 799.30874 343.467455 
L 799.789618 336.941509 
L 800.430789 324.680768 
L 801.552837 297.322838 
L 803.155763 258.173914 
L 803.957227 243.413967 
L 804.598397 235.150865 
L 805.079275 231.208598 
L 805.39986 229.664853 
L 805.720445 228.971022 
L 805.880738 228.933974 
L 806.041031 229.097326 
L 806.361616 230.002852 
L 806.682201 231.637341 
L 807.163079 235.327787 
L 807.80425 242.216121 
L 808.766005 255.623843 
L 812.933614 318.468571 
L 813.414491 323.685998 
L 813.735077 174.917684 
L 814.055662 126.393168 
L 814.376247 102.708411 
L 814.53654 98.506402 
L 814.696832 99.551277 
L 815.017418 114.618732 
L 815.818881 167.108137 
L 816.139466 173.466754 
L 816.299759 172.779699 
L 816.620344 166.50994 
L 816.940929 159.563378 
L 817.101222 158.395247 
L 817.261514 160.218636 
L 817.421807 166.136243 
L 817.742392 194.611029 
L 818.062978 252.330189 
L 818.22327 294.711221 
L 818.383563 409.05279 
L 818.543855 425.253215 
L 819.345319 295.920931 
L 819.505611 291.892036 
L 819.665904 293.358967 
L 820.467367 314.60616 
L 820.62766 315.740158 
L 820.787952 315.740825 
L 821.108537 313.662262 
L 821.589415 309.849469 
L 821.910001 308.933572 
L 822.070293 309.114696 
L 822.390878 310.555382 
L 823.833512 320.23985 
L 824.154097 320.74923 
L 824.31439 320.696712 
L 824.634975 320.026691 
L 824.95556 318.689559 
L 825.436438 315.643396 
L 826.077609 309.934357 
L 826.718779 302.355266 
L 827.520242 289.835021 
L 828.481998 270.151779 
L 830.565802 224.179813 
L 831.04668 217.657746 
L 831.367265 215.002847 
L 831.687851 213.882746 
L 831.848143 213.931118 
L 832.008436 214.395767 
L 832.329021 216.584182 
L 832.649606 220.431747 
L 833.130484 229.136178 
L 833.771655 245.409489 
L 834.893703 281.485022 
L 836.176044 321.292427 
L 836.817215 335.786297 
L 837.298093 343.134464 
L 837.77897 347.139546 
L 838.099556 347.913256 
L 838.259848 347.739354 
L 838.580434 346.306742 
L 838.901019 343.500833 
L 839.381897 336.971433 
L 840.023067 324.706554 
L 841.145116 297.342573 
L 842.748042 258.187274 
L 843.549505 243.424962 
L 844.190675 235.160289 
L 844.671553 231.217007 
L 844.992139 229.672654 
L 845.312724 228.978266 
L 845.473016 228.940958 
L 845.633309 229.10406 
L 845.953894 230.009118 
L 846.27448 231.64318 
L 846.755357 235.333051 
L 847.396528 242.220729 
L 848.358284 255.62766 
L 852.525892 318.470533 
L 853.487648 328.276512 
L 854.289111 334.534895 
L 854.609696 336.566786 
L 854.930281 185.696039 
L 855.250867 135.508223 
L 855.571452 110.603319 
L 855.731744 105.942304 
L 855.892037 106.617019 
L 856.212622 121.170834 
L 857.014085 173.250437 
L 857.334671 179.623457 
L 857.494963 178.956547 
L 857.815549 172.730686 
L 858.136134 165.810878 
L 858.296426 164.643647 
L 858.456719 166.457422 
L 858.617012 172.353801 
L 858.937597 200.748759 
L 859.258182 258.337139 
L 859.418475 300.634191 
L 859.578767 414.863279 
L 859.73906 430.92 
L 860.540523 300.519183 
L 860.700816 296.231665 
L 860.861108 297.4326 
L 861.662572 317.327083 
L 861.822864 318.199936 
L 861.983157 317.946094 
L 862.303742 315.38243 
L 862.78462 310.912023 
L 863.105205 309.608803 
L 863.265498 309.611979 
L 863.42579 310.007516 
L 863.746376 311.692022 
L 864.868424 318.923489 
L 865.189009 319.70301 
L 865.349302 319.788708 
L 865.509595 319.677887 
L 865.83018 318.908194 
L 866.311058 316.571594 
L 866.952228 311.688455 
L 867.593399 305.02064 
L 868.394862 293.89601 
L 869.196325 279.21899 
L 870.318373 253.814691 
L 871.600714 225.771439 
L 872.241885 216.565593 
L 872.56247 213.946867 
L 872.883055 212.863693 
L 873.043348 212.930755 
L 873.203641 213.414218 
L 873.524226 215.640541 
L 873.844811 219.526255 
L 874.325689 228.288012 
L 874.966859 244.637162 
L 876.088908 280.840738 
L 877.371249 320.781991 
L 878.012419 335.336286 
L 878.493297 342.72661 
L 878.974175 346.771044 
L 879.29476 347.569413 
L 879.455053 347.407366 
L 879.775638 345.997525 
L 880.096223 343.213143 
L 880.577101 336.713744 
L 881.218272 324.484743 
L 882.34032 297.173032 
L 883.943246 258.072472 
L 884.74471 243.330352 
L 885.38588 235.079041 
L 885.866758 231.144374 
L 886.187343 229.605168 
L 886.507928 228.915492 
L 886.668221 228.880387 
L 886.828514 229.045598 
L 887.149099 229.954601 
L 887.629977 232.666544 
L 888.110855 236.816657 
L 888.752025 244.196736 
L 889.713781 258.07466 
L 893.400511 314.631478 
L 894.362267 325.270899 
L 894.682852 176.241089 
L 895.003438 127.513137 
L 895.324023 103.681096 
L 895.484315 99.424229 
L 895.644608 100.425189 
L 895.965193 115.432556 
L 896.766656 167.877862 
L 897.087242 174.240269 
L 897.247534 173.556625 
L 897.56812 167.294014 
L 897.888705 160.352371 
L 898.048997 159.185128 
L 898.20929 161.008091 
L 898.369583 166.923823 
L 898.690168 195.390199 
L 899.010753 253.094593 
L 899.171046 295.465917 
L 899.331338 409.795934 
L 899.491631 425.980711 
L 900.293094 296.523938 
L 900.453387 292.464073 
L 900.613679 293.898967 
L 901.415143 314.981109 
L 901.575435 316.082894 
L 901.735728 316.052063 
L 902.056313 313.913172 
L 902.537191 310.01793 
L 902.857776 309.053056 
L 903.018069 309.211557 
L 903.338654 310.610724 
L 904.781288 320.164775 
L 905.101873 320.655839 
L 905.262166 320.595347 
L 905.582751 319.911522 
L 905.903336 318.563156 
L 906.384214 315.504264 
L 907.025384 309.784472 
L 907.666555 302.20003 
L 908.468018 289.678537 
L 909.429774 269.999247 
L 911.513578 224.047419 
L 911.994456 217.531299 
L 912.315041 214.880521 
L 912.635626 213.764639 
L 912.795919 213.81515 
L 912.956212 214.281955 
L 913.276797 216.474717 
L 913.597382 220.326662 
L 914.07826 229.03768 
L 914.71943 245.319714 
L 915.841479 281.409988 
L 917.12382 321.232819 
L 917.76499 335.733662 
L 918.245868 343.0867 
L 918.726746 347.096334 
L 919.047331 347.872899 
L 919.207624 347.70037 
L 919.528209 346.270398 
L 919.848794 343.466988 
L 920.329672 336.941075 
L 920.970843 324.680375 
L 922.092891 297.322505 
L 923.695817 258.173649 
L 924.497281 243.413729 
L 925.138451 235.150646 
L 925.619329 231.208393 
L 925.939914 229.664655 
L 926.260499 228.970833 
L 926.420792 228.933789 
L 926.581085 229.097144 
L 926.90167 230.002677 
L 927.222255 231.637173 
L 927.703133 235.327628 
L 928.344304 242.215974 
L 929.306059 255.623713 
L 933.473668 318.468492 
L 933.794253 322.0162 
L 933.954545 223.25556 
L 933.954545 223.25556 
" clip-path="url(#pfe91c26ba0)" style="fill: none; stroke: #1f77b4; stroke-width: 1.5; stroke-linecap: square"/>
   </g>
   <g id="line2d_13">
    <path d="M 173.045455 184.88631 
L 177.693941 184.88631 
L 177.854233 316.190798 
L 213.278903 316.190798 
L 213.439196 184.88631 
L 218.087682 184.88631 
L 218.247975 316.190798 
L 253.99323 316.190798 
L 254.153523 184.88631 
L 258.802009 184.88631 
L 258.962302 316.190798 
L 293.585509 316.190798 
L 293.745801 184.88631 
L 298.394287 184.88631 
L 298.55458 316.190798 
L 333.818957 316.190798 
L 333.97925 184.88631 
L 338.627736 184.88631 
L 338.788029 316.190798 
L 373.090651 316.190798 
L 373.250943 184.88631 
L 377.899429 184.88631 
L 378.059722 316.190798 
L 413.644685 316.190798 
L 413.804977 184.88631 
L 418.453463 184.88631 
L 418.613756 316.190798 
L 453.557548 316.190798 
L 453.717841 184.88631 
L 458.366327 184.88631 
L 458.52662 316.190798 
L 493.630705 316.190798 
L 493.790997 184.88631 
L 498.439483 184.88631 
L 498.599776 316.190798 
L 533.864153 316.190798 
L 534.024446 184.88631 
L 538.672932 184.88631 
L 538.833225 316.190798 
L 574.257895 316.190798 
L 574.418188 184.88631 
L 579.066674 184.88631 
L 579.226966 316.190798 
L 613.209003 316.190798 
L 613.369295 184.88631 
L 618.017782 184.88631 
L 618.178074 316.190798 
L 653.92333 316.190798 
L 654.083622 184.88631 
L 658.732108 184.88631 
L 658.892401 316.190798 
L 694.156778 316.190798 
L 694.317071 184.88631 
L 698.965557 184.88631 
L 699.12585 316.190798 
L 734.069642 316.190798 
L 734.229935 184.88631 
L 738.878421 184.88631 
L 739.038713 316.190798 
L 773.822213 316.190798 
L 773.982506 184.88631 
L 778.630992 184.88631 
L 778.791284 316.190798 
L 813.414491 316.190798 
L 813.574784 184.88631 
L 818.22327 184.88631 
L 818.383563 316.190798 
L 854.609696 316.190798 
L 854.769989 184.88631 
L 859.418475 184.88631 
L 859.578767 316.190798 
L 894.362267 316.190798 
L 894.52256 184.88631 
L 899.171046 184.88631 
L 899.331338 316.190798 
L 933.794253 316.190798 
L 933.954545 184.88631 
L 933.954545 184.88631 
" clip-path="url(#pfe91c26ba0)" style="fill: none; stroke: #ff7f0e; stroke-width: 1.5; stroke-linecap: square"/>
   </g>
   <g id="line2d_14">
    <path d="M 929.466352 316.190798 
" clip-path="url(#pfe91c26ba0)" style="fill: none; stroke: #000000; stroke-width: 1.5; stroke-linecap: square"/>
    <defs>
     <path id="m79028a5a6b" d="M 0 1 
C 0.265203 1 0.51958 0.894634 0.707107 0.707107 
C 0.894634 0.51958 1 0.265203 1 0 
C 1 -0.265203 0.894634 -0.51958 0.707107 -0.707107 
C 0.51958 -0.894634 0.265203 -1 0 -1 
C -0.265203 -1 -0.51958 -0.894634 -0.707107 -0.707107 
C -0.894634 -0.51958 -1 -0.265203 -1 0 
C -1 0.265203 -0.894634 0.51958 -0.707107 0.707107 
C -0.51958 0.894634 -0.265203 1 0 1 
z
" style="stroke: #000000"/>
    </defs>
    <g clip-path="url(#pfe91c26ba0)">
     <use xlink:href="#m79028a5a6b" x="173.045455" y="184.88631" style="stroke: #000000"/>
     <use xlink:href="#m79028a5a6b" x="178.174819" y="316.190798" style="stroke: #000000"/>
     <use xlink:href="#m79028a5a6b" x="183.14389" y="316.190798" style="stroke: #000000"/>
     <use xlink:href="#m79028a5a6b" x="188.112961" y="184.88631" style="stroke: #000000"/>
     <use xlink:href="#m79028a5a6b" x="193.082033" y="316.190798" style="stroke: #000000"/>
     <use xlink:href="#m79028a5a6b" x="198.211397" y="316.190798" style="stroke: #000000"/>
     <use xlink:href="#m79028a5a6b" x="203.180468" y="184.88631" style="stroke: #000000"/>
     <use xlink:href="#m79028a5a6b" x="208.149539" y="316.190798" style="stroke: #000000"/>
     <use xlink:href="#m79028a5a6b" x="213.118611" y="184.88631" style="stroke: #000000"/>
     <use xlink:href="#m79028a5a6b" x="218.247975" y="316.190798" style="stroke: #000000"/>
     <use xlink:href="#m79028a5a6b" x="223.217046" y="316.190798" style="stroke: #000000"/>
     <use xlink:href="#m79028a5a6b" x="228.186118" y="184.88631" style="stroke: #000000"/>
     <use xlink:href="#m79028a5a6b" x="233.155189" y="316.190798" style="stroke: #000000"/>
     <use xlink:href="#m79028a5a6b" x="238.284553" y="316.190798" style="stroke: #000000"/>
     <use xlink:href="#m79028a5a6b" x="243.253624" y="184.88631" style="stroke: #000000"/>
     <use xlink:href="#m79028a5a6b" x="248.222696" y="316.190798" style="stroke: #000000"/>
     <use xlink:href="#m79028a5a6b" x="253.191767" y="184.88631" style="stroke: #000000"/>
     <use xlink:href="#m79028a5a6b" x="258.321131" y="316.190798" style="stroke: #000000"/>
     <use xlink:href="#m79028a5a6b" x="263.290202" y="316.190798" style="stroke: #000000"/>
     <use xlink:href="#m79028a5a6b" x="268.259274" y="184.88631" style="stroke: #000000"/>
     <use xlink:href="#m79028a5a6b" x="273.228345" y="316.190798" style="stroke: #000000"/>
     <use xlink:href="#m79028a5a6b" x="278.357709" y="316.190798" style="stroke: #000000"/>
     <use xlink:href="#m79028a5a6b" x="283.326781" y="184.88631" style="stroke: #000000"/>
     <use xlink:href="#m79028a5a6b" x="288.295852" y="316.190798" style="stroke: #000000"/>
     <use xlink:href="#m79028a5a6b" x="293.264923" y="184.88631" style="stroke: #000000"/>
     <use xlink:href="#m79028a5a6b" x="298.394287" y="316.190798" style="stroke: #000000"/>
     <use xlink:href="#m79028a5a6b" x="303.363359" y="316.190798" style="stroke: #000000"/>
     <use xlink:href="#m79028a5a6b" x="308.33243" y="184.88631" style="stroke: #000000"/>
     <use xlink:href="#m79028a5a6b" x="313.301501" y="316.190798" style="stroke: #000000"/>
     <use xlink:href="#m79028a5a6b" x="318.430865" y="316.190798" style="stroke: #000000"/>
     <use xlink:href="#m79028a5a6b" x="323.399937" y="184.88631" style="stroke: #000000"/>
     <use xlink:href="#m79028a5a6b" x="328.369008" y="316.190798" style="stroke: #000000"/>
     <use xlink:href="#m79028a5a6b" x="333.33808" y="184.88631" style="stroke: #000000"/>
     <use xlink:href="#m79028a5a6b" x="338.467444" y="316.190798" style="stroke: #000000"/>
     <use xlink:href="#m79028a5a6b" x="343.436515" y="316.190798" style="stroke: #000000"/>
     <use xlink:href="#m79028a5a6b" x="348.405586" y="184.88631" style="stroke: #000000"/>
     <use xlink:href="#m79028a5a6b" x="353.374658" y="316.190798" style="stroke: #000000"/>
     <use xlink:href="#m79028a5a6b" x="358.504022" y="316.190798" style="stroke: #000000"/>
     <use xlink:href="#m79028a5a6b" x="363.473093" y="184.88631" style="stroke: #000000"/>
     <use xlink:href="#m79028a5a6b" x="368.442164" y="316.190798" style="stroke: #000000"/>
     <use xlink:href="#m79028a5a6b" x="373.411236" y="184.88631" style="stroke: #000000"/>
     <use xlink:href="#m79028a5a6b" x="378.5406" y="316.190798" style="stroke: #000000"/>
     <use xlink:href="#m79028a5a6b" x="383.509671" y="316.190798" style="stroke: #000000"/>
     <use xlink:href="#m79028a5a6b" x="388.478743" y="184.88631" style="stroke: #000000"/>
     <use xlink:href="#m79028a5a6b" x="393.447814" y="316.190798" style="stroke: #000000"/>
     <use xlink:href="#m79028a5a6b" x="398.577178" y="316.190798" style="stroke: #000000"/>
     <use xlink:href="#m79028a5a6b" x="403.546249" y="184.88631" style="stroke: #000000"/>
     <use xlink:href="#m79028a5a6b" x="408.515321" y="316.190798" style="stroke: #000000"/>
     <use xlink:href="#m79028a5a6b" x="413.484392" y="184.88631" style="stroke: #000000"/>
     <use xlink:href="#m79028a5a6b" x="418.613756" y="316.190798" style="stroke: #000000"/>
     <use xlink:href="#m79028a5a6b" x="423.582827" y="316.190798" style="stroke: #000000"/>
     <use xlink:href="#m79028a5a6b" x="428.551899" y="184.88631" style="stroke: #000000"/>
     <use xlink:href="#m79028a5a6b" x="433.52097" y="316.190798" style="stroke: #000000"/>
     <use xlink:href="#m79028a5a6b" x="438.650334" y="316.190798" style="stroke: #000000"/>
     <use xlink:href="#m79028a5a6b" x="443.619406" y="184.88631" style="stroke: #000000"/>
     <use xlink:href="#m79028a5a6b" x="448.588477" y="316.190798" style="stroke: #000000"/>
     <use xlink:href="#m79028a5a6b" x="453.557548" y="184.88631" style="stroke: #000000"/>
     <use xlink:href="#m79028a5a6b" x="458.686912" y="316.190798" style="stroke: #000000"/>
     <use xlink:href="#m79028a5a6b" x="463.655984" y="316.190798" style="stroke: #000000"/>
     <use xlink:href="#m79028a5a6b" x="468.625055" y="184.88631" style="stroke: #000000"/>
     <use xlink:href="#m79028a5a6b" x="473.594126" y="316.190798" style="stroke: #000000"/>
     <use xlink:href="#m79028a5a6b" x="478.72349" y="316.190798" style="stroke: #000000"/>
     <use xlink:href="#m79028a5a6b" x="483.692562" y="184.88631" style="stroke: #000000"/>
     <use xlink:href="#m79028a5a6b" x="488.661633" y="316.190798" style="stroke: #000000"/>
     <use xlink:href="#m79028a5a6b" x="493.630705" y="184.88631" style="stroke: #000000"/>
     <use xlink:href="#m79028a5a6b" x="498.760069" y="316.190798" style="stroke: #000000"/>
     <use xlink:href="#m79028a5a6b" x="503.72914" y="316.190798" style="stroke: #000000"/>
     <use xlink:href="#m79028a5a6b" x="508.698211" y="184.88631" style="stroke: #000000"/>
     <use xlink:href="#m79028a5a6b" x="513.667283" y="316.190798" style="stroke: #000000"/>
     <use xlink:href="#m79028a5a6b" x="518.796647" y="316.190798" style="stroke: #000000"/>
     <use xlink:href="#m79028a5a6b" x="523.765718" y="184.88631" style="stroke: #000000"/>
     <use xlink:href="#m79028a5a6b" x="528.734789" y="316.190798" style="stroke: #000000"/>
     <use xlink:href="#m79028a5a6b" x="533.703861" y="184.88631" style="stroke: #000000"/>
     <use xlink:href="#m79028a5a6b" x="538.833225" y="316.190798" style="stroke: #000000"/>
     <use xlink:href="#m79028a5a6b" x="543.802296" y="316.190798" style="stroke: #000000"/>
     <use xlink:href="#m79028a5a6b" x="548.771368" y="184.88631" style="stroke: #000000"/>
     <use xlink:href="#m79028a5a6b" x="553.740439" y="316.190798" style="stroke: #000000"/>
     <use xlink:href="#m79028a5a6b" x="558.869803" y="316.190798" style="stroke: #000000"/>
     <use xlink:href="#m79028a5a6b" x="563.838874" y="184.88631" style="stroke: #000000"/>
     <use xlink:href="#m79028a5a6b" x="568.807946" y="316.190798" style="stroke: #000000"/>
     <use xlink:href="#m79028a5a6b" x="573.777017" y="184.88631" style="stroke: #000000"/>
     <use xlink:href="#m79028a5a6b" x="578.906381" y="316.190798" style="stroke: #000000"/>
     <use xlink:href="#m79028a5a6b" x="583.875452" y="316.190798" style="stroke: #000000"/>
     <use xlink:href="#m79028a5a6b" x="588.844524" y="184.88631" style="stroke: #000000"/>
     <use xlink:href="#m79028a5a6b" x="593.813595" y="316.190798" style="stroke: #000000"/>
     <use xlink:href="#m79028a5a6b" x="598.942959" y="316.190798" style="stroke: #000000"/>
     <use xlink:href="#m79028a5a6b" x="603.912031" y="184.88631" style="stroke: #000000"/>
     <use xlink:href="#m79028a5a6b" x="608.881102" y="316.190798" style="stroke: #000000"/>
     <use xlink:href="#m79028a5a6b" x="613.850173" y="184.88631" style="stroke: #000000"/>
     <use xlink:href="#m79028a5a6b" x="618.979537" y="316.190798" style="stroke: #000000"/>
     <use xlink:href="#m79028a5a6b" x="623.948609" y="316.190798" style="stroke: #000000"/>
     <use xlink:href="#m79028a5a6b" x="628.91768" y="184.88631" style="stroke: #000000"/>
     <use xlink:href="#m79028a5a6b" x="633.886751" y="316.190798" style="stroke: #000000"/>
     <use xlink:href="#m79028a5a6b" x="639.016115" y="316.190798" style="stroke: #000000"/>
     <use xlink:href="#m79028a5a6b" x="643.985187" y="184.88631" style="stroke: #000000"/>
     <use xlink:href="#m79028a5a6b" x="648.954258" y="316.190798" style="stroke: #000000"/>
     <use xlink:href="#m79028a5a6b" x="653.92333" y="184.88631" style="stroke: #000000"/>
     <use xlink:href="#m79028a5a6b" x="659.052694" y="316.190798" style="stroke: #000000"/>
     <use xlink:href="#m79028a5a6b" x="664.021765" y="316.190798" style="stroke: #000000"/>
     <use xlink:href="#m79028a5a6b" x="668.990836" y="184.88631" style="stroke: #000000"/>
     <use xlink:href="#m79028a5a6b" x="673.959908" y="316.190798" style="stroke: #000000"/>
     <use xlink:href="#m79028a5a6b" x="679.089272" y="316.190798" style="stroke: #000000"/>
     <use xlink:href="#m79028a5a6b" x="684.058343" y="184.88631" style="stroke: #000000"/>
     <use xlink:href="#m79028a5a6b" x="689.027414" y="316.190798" style="stroke: #000000"/>
     <use xlink:href="#m79028a5a6b" x="693.996486" y="184.88631" style="stroke: #000000"/>
     <use xlink:href="#m79028a5a6b" x="699.12585" y="316.190798" style="stroke: #000000"/>
     <use xlink:href="#m79028a5a6b" x="704.094921" y="316.190798" style="stroke: #000000"/>
     <use xlink:href="#m79028a5a6b" x="709.063993" y="184.88631" style="stroke: #000000"/>
     <use xlink:href="#m79028a5a6b" x="714.033064" y="316.190798" style="stroke: #000000"/>
     <use xlink:href="#m79028a5a6b" x="719.162428" y="316.190798" style="stroke: #000000"/>
     <use xlink:href="#m79028a5a6b" x="724.131499" y="184.88631" style="stroke: #000000"/>
     <use xlink:href="#m79028a5a6b" x="729.100571" y="316.190798" style="stroke: #000000"/>
     <use xlink:href="#m79028a5a6b" x="734.069642" y="184.88631" style="stroke: #000000"/>
     <use xlink:href="#m79028a5a6b" x="739.199006" y="316.190798" style="stroke: #000000"/>
     <use xlink:href="#m79028a5a6b" x="744.168077" y="316.190798" style="stroke: #000000"/>
     <use xlink:href="#m79028a5a6b" x="749.137149" y="184.88631" style="stroke: #000000"/>
     <use xlink:href="#m79028a5a6b" x="754.10622" y="316.190798" style="stroke: #000000"/>
     <use xlink:href="#m79028a5a6b" x="759.235584" y="316.190798" style="stroke: #000000"/>
     <use xlink:href="#m79028a5a6b" x="764.204656" y="184.88631" style="stroke: #000000"/>
     <use xlink:href="#m79028a5a6b" x="769.173727" y="316.190798" style="stroke: #000000"/>
     <use xlink:href="#m79028a5a6b" x="774.142798" y="184.88631" style="stroke: #000000"/>
     <use xlink:href="#m79028a5a6b" x="779.272162" y="316.190798" style="stroke: #000000"/>
     <use xlink:href="#m79028a5a6b" x="784.241234" y="316.190798" style="stroke: #000000"/>
     <use xlink:href="#m79028a5a6b" x="789.210305" y="184.88631" style="stroke: #000000"/>
     <use xlink:href="#m79028a5a6b" x="794.179376" y="316.190798" style="stroke: #000000"/>
     <use xlink:href="#m79028a5a6b" x="799.30874" y="316.190798" style="stroke: #000000"/>
     <use xlink:href="#m79028a5a6b" x="804.277812" y="184.88631" style="stroke: #000000"/>
     <use xlink:href="#m79028a5a6b" x="809.246883" y="316.190798" style="stroke: #000000"/>
     <use xlink:href="#m79028a5a6b" x="814.215955" y="184.88631" style="stroke: #000000"/>
     <use xlink:href="#m79028a5a6b" x="819.345319" y="316.190798" style="stroke: #000000"/>
     <use xlink:href="#m79028a5a6b" x="824.31439" y="316.190798" style="stroke: #000000"/>
     <use xlink:href="#m79028a5a6b" x="829.283461" y="184.88631" style="stroke: #000000"/>
     <use xlink:href="#m79028a5a6b" x="834.252533" y="316.190798" style="stroke: #000000"/>
     <use xlink:href="#m79028a5a6b" x="839.381897" y="316.190798" style="stroke: #000000"/>
     <use xlink:href="#m79028a5a6b" x="844.350968" y="184.88631" style="stroke: #000000"/>
     <use xlink:href="#m79028a5a6b" x="849.320039" y="316.190798" style="stroke: #000000"/>
     <use xlink:href="#m79028a5a6b" x="854.289111" y="184.88631" style="stroke: #000000"/>
     <use xlink:href="#m79028a5a6b" x="859.418475" y="316.190798" style="stroke: #000000"/>
     <use xlink:href="#m79028a5a6b" x="864.387546" y="316.190798" style="stroke: #000000"/>
     <use xlink:href="#m79028a5a6b" x="869.356618" y="184.88631" style="stroke: #000000"/>
     <use xlink:href="#m79028a5a6b" x="874.325689" y="316.190798" style="stroke: #000000"/>
     <use xlink:href="#m79028a5a6b" x="879.455053" y="316.190798" style="stroke: #000000"/>
     <use xlink:href="#m79028a5a6b" x="884.424124" y="184.88631" style="stroke: #000000"/>
     <use xlink:href="#m79028a5a6b" x="889.393196" y="316.190798" style="stroke: #000000"/>
     <use xlink:href="#m79028a5a6b" x="894.362267" y="184.88631" style="stroke: #000000"/>
     <use xlink:href="#m79028a5a6b" x="899.491631" y="316.190798" style="stroke: #000000"/>
     <use xlink:href="#m79028a5a6b" x="904.460702" y="316.190798" style="stroke: #000000"/>
     <use xlink:href="#m79028a5a6b" x="909.429774" y="184.88631" style="stroke: #000000"/>
     <use xlink:href="#m79028a5a6b" x="914.398845" y="316.190798" style="stroke: #000000"/>
     <use xlink:href="#m79028a5a6b" x="919.528209" y="316.190798" style="stroke: #000000"/>
     <use xlink:href="#m79028a5a6b" x="924.497281" y="184.88631" style="stroke: #000000"/>
     <use xlink:href="#m79028a5a6b" x="929.466352" y="316.190798" style="stroke: #000000"/>
    </g>
   </g>
   <g id="patch_3">
    <path d="M 135 448.56 
L 135 60.48 
" style="fill: none; stroke: #000000; stroke-width: 0.8; stroke-linejoin: miter; stroke-linecap: square"/>
   </g>
   <g id="patch_4">
    <path d="M 972 448.56 
L 972 60.48 
" style="fill: none; stroke: #000000; stroke-width: 0.8; stroke-linejoin: miter; stroke-linecap: square"/>
   </g>
   <g id="patch_5">
    <path d="M 135 448.56 
L 972 448.56 
" style="fill: none; stroke: #000000; stroke-width: 0.8; stroke-linejoin: miter; stroke-linecap: square"/>
   </g>
   <g id="patch_6">
    <path d="M 135 60.48 
L 972 60.48 
" style="fill: none; stroke: #000000; stroke-width: 0.8; stroke-linejoin: miter; stroke-linecap: square"/>
   </g>
   <g id="legend_1">
    <g id="patch_7">
     <path d="M 142 443.56 
L 211.084375 443.56 
Q 213.084375 443.56 213.084375 441.56 
L 213.084375 397.969375 
Q 213.084375 395.969375 211.084375 395.969375 
L 142 395.969375 
Q 140 395.969375 140 397.969375 
L 140 441.56 
Q 140 443.56 142 443.56 
z
" style="fill: #ffffff; opacity: 0.8; stroke: #cccccc; stroke-linejoin: miter"/>
    </g>
    <g id="line2d_15">
     <path d="M 144 404.067813 
L 154 404.067813 
L 164 404.067813 
" style="fill: none; stroke: #1f77b4; stroke-width: 1.5; stroke-linecap: square"/>
    </g>
    <g id="text_13">
     <!-- nw_0 -->
     <g transform="translate(172 407.567813) scale(0.1 -0.1)">
      <defs>
       <path id="DejaVuSans-6e" d="M 3513 2113 
L 3513 0 
L 2938 0 
L 2938 2094 
Q 2938 2591 2744 2837 
Q 2550 3084 2163 3084 
Q 1697 3084 1428 2787 
Q 1159 2491 1159 1978 
L 1159 0 
L 581 0 
L 581 3500 
L 1159 3500 
L 1159 2956 
Q 1366 3272 1645 3428 
Q 1925 3584 2291 3584 
Q 2894 3584 3203 3211 
Q 3513 2838 3513 2113 
z
" transform="scale(0.015625)"/>
       <path id="DejaVuSans-77" d="M 269 3500 
L 844 3500 
L 1563 769 
L 2278 3500 
L 2956 3500 
L 3675 769 
L 4391 3500 
L 4966 3500 
L 4050 0 
L 3372 0 
L 2619 2869 
L 1863 0 
L 1184 0 
L 269 3500 
z
" transform="scale(0.015625)"/>
       <path id="DejaVuSans-5f" d="M 3263 -1063 
L 3263 -1509 
L -63 -1509 
L -63 -1063 
L 3263 -1063 
z
" transform="scale(0.015625)"/>
      </defs>
      <use xlink:href="#DejaVuSans-6e"/>
      <use xlink:href="#DejaVuSans-77" x="63.378906"/>
      <use xlink:href="#DejaVuSans-5f" x="145.166016"/>
      <use xlink:href="#DejaVuSans-30" x="195.166016"/>
     </g>
    </g>
    <g id="line2d_16">
     <path d="M 144 419.024063 
L 154 419.024063 
L 164 419.024063 
" style="fill: none; stroke: #ff7f0e; stroke-width: 1.5; stroke-linecap: square"/>
    </g>
    <g id="text_14">
     <!-- input_0 -->
     <g transform="translate(172 422.524063) scale(0.1 -0.1)">
      <defs>
       <path id="DejaVuSans-69" d="M 603 3500 
L 1178 3500 
L 1178 0 
L 603 0 
L 603 3500 
z
M 603 4863 
L 1178 4863 
L 1178 4134 
L 603 4134 
L 603 4863 
z
" transform="scale(0.015625)"/>
       <path id="DejaVuSans-70" d="M 1159 525 
L 1159 -1331 
L 581 -1331 
L 581 3500 
L 1159 3500 
L 1159 2969 
Q 1341 3281 1617 3432 
Q 1894 3584 2278 3584 
Q 2916 3584 3314 3078 
Q 3713 2572 3713 1747 
Q 3713 922 3314 415 
Q 2916 -91 2278 -91 
Q 1894 -91 1617 61 
Q 1341 213 1159 525 
z
M 3116 1747 
Q 3116 2381 2855 2742 
Q 2594 3103 2138 3103 
Q 1681 3103 1420 2742 
Q 1159 2381 1159 1747 
Q 1159 1113 1420 752 
Q 1681 391 2138 391 
Q 2594 391 2855 752 
Q 3116 1113 3116 1747 
z
" transform="scale(0.015625)"/>
       <path id="DejaVuSans-75" d="M 544 1381 
L 544 3500 
L 1119 3500 
L 1119 1403 
Q 1119 906 1312 657 
Q 1506 409 1894 409 
Q 2359 409 2629 706 
Q 2900 1003 2900 1516 
L 2900 3500 
L 3475 3500 
L 3475 0 
L 2900 0 
L 2900 538 
Q 2691 219 2414 64 
Q 2138 -91 1772 -91 
Q 1169 -91 856 284 
Q 544 659 544 1381 
z
M 1991 3584 
L 1991 3584 
z
" transform="scale(0.015625)"/>
      </defs>
      <use xlink:href="#DejaVuSans-69"/>
      <use xlink:href="#DejaVuSans-6e" x="27.783203"/>
      <use xlink:href="#DejaVuSans-70" x="91.162109"/>
      <use xlink:href="#DejaVuSans-75" x="154.638672"/>
      <use xlink:href="#DejaVuSans-74" x="218.017578"/>
      <use xlink:href="#DejaVuSans-5f" x="257.226562"/>
      <use xlink:href="#DejaVuSans-30" x="307.226562"/>
     </g>
    </g>
    <g id="line2d_17">
     <path d="M 144 433.980312 
L 154 433.980312 
L 164 433.980312 
" style="fill: none; stroke: #000000; stroke-width: 1.5; stroke-linecap: square"/>
     <g>
      <use xlink:href="#m79028a5a6b" x="154" y="433.980312" style="stroke: #000000"/>
     </g>
    </g>
    <g id="text_15">
     <!-- target -->
     <g transform="translate(172 437.480312) scale(0.1 -0.1)">
      <defs>
       <path id="DejaVuSans-61" d="M 2194 1759 
Q 1497 1759 1228 1600 
Q 959 1441 959 1056 
Q 959 750 1161 570 
Q 1363 391 1709 391 
Q 2188 391 2477 730 
Q 2766 1069 2766 1631 
L 2766 1759 
L 2194 1759 
z
M 3341 1997 
L 3341 0 
L 2766 0 
L 2766 531 
Q 2569 213 2275 61 
Q 1981 -91 1556 -91 
Q 1019 -91 701 211 
Q 384 513 384 1019 
Q 384 1609 779 1909 
Q 1175 2209 1959 2209 
L 2766 2209 
L 2766 2266 
Q 2766 2663 2505 2880 
Q 2244 3097 1772 3097 
Q 1472 3097 1187 3025 
Q 903 2953 641 2809 
L 641 3341 
Q 956 3463 1253 3523 
Q 1550 3584 1831 3584 
Q 2591 3584 2966 3190 
Q 3341 2797 3341 1997 
z
" transform="scale(0.015625)"/>
       <path id="DejaVuSans-72" d="M 2631 2963 
Q 2534 3019 2420 3045 
Q 2306 3072 2169 3072 
Q 1681 3072 1420 2755 
Q 1159 2438 1159 1844 
L 1159 0 
L 581 0 
L 581 3500 
L 1159 3500 
L 1159 2956 
Q 1341 3275 1631 3429 
Q 1922 3584 2338 3584 
Q 2397 3584 2469 3576 
Q 2541 3569 2628 3553 
L 2631 2963 
z
" transform="scale(0.015625)"/>
       <path id="DejaVuSans-67" d="M 2906 1791 
Q 2906 2416 2648 2759 
Q 2391 3103 1925 3103 
Q 1463 3103 1205 2759 
Q 947 2416 947 1791 
Q 947 1169 1205 825 
Q 1463 481 1925 481 
Q 2391 481 2648 825 
Q 2906 1169 2906 1791 
z
M 3481 434 
Q 3481 -459 3084 -895 
Q 2688 -1331 1869 -1331 
Q 1566 -1331 1297 -1286 
Q 1028 -1241 775 -1147 
L 775 -588 
Q 1028 -725 1275 -790 
Q 1522 -856 1778 -856 
Q 2344 -856 2625 -561 
Q 2906 -266 2906 331 
L 2906 616 
Q 2728 306 2450 153 
Q 2172 0 1784 0 
Q 1141 0 747 490 
Q 353 981 353 1791 
Q 353 2603 747 3093 
Q 1141 3584 1784 3584 
Q 2172 3584 2450 3431 
Q 2728 3278 2906 2969 
L 2906 3500 
L 3481 3500 
L 3481 434 
z
" transform="scale(0.015625)"/>
       <path id="DejaVuSans-65" d="M 3597 1894 
L 3597 1613 
L 953 1613 
Q 991 1019 1311 708 
Q 1631 397 2203 397 
Q 2534 397 2845 478 
Q 3156 559 3463 722 
L 3463 178 
Q 3153 47 2828 -22 
Q 2503 -91 2169 -91 
Q 1331 -91 842 396 
Q 353 884 353 1716 
Q 353 2575 817 3079 
Q 1281 3584 2069 3584 
Q 2775 3584 3186 3129 
Q 3597 2675 3597 1894 
z
M 3022 2063 
Q 3016 2534 2758 2815 
Q 2500 3097 2075 3097 
Q 1594 3097 1305 2825 
Q 1016 2553 972 2059 
L 3022 2063 
z
" transform="scale(0.015625)"/>
      </defs>
      <use xlink:href="#DejaVuSans-74"/>
      <use xlink:href="#DejaVuSans-61" x="39.208984"/>
      <use xlink:href="#DejaVuSans-72" x="100.488281"/>
      <use xlink:href="#DejaVuSans-67" x="139.851562"/>
      <use xlink:href="#DejaVuSans-65" x="203.328125"/>
      <use xlink:href="#DejaVuSans-74" x="264.851562"/>
     </g>
    </g>
   </g>
  </g>
 </g>
 <defs>
  <clipPath id="pfe91c26ba0">
   <rect x="135" y="60.48" width="837" height="388.08"/>
  </clipPath>
 </defs>
</svg>
