<?xml version="1.0" encoding="utf-8" standalone="no"?>
<!DOCTYPE svg PUBLIC "-//W3C//DTD SVG 1.1//EN"
  "http://www.w3.org/Graphics/SVG/1.1/DTD/svg11.dtd">
<svg xmlns:xlink="http://www.w3.org/1999/xlink" width="1080pt" height="504pt" viewBox="0 0 1080 504" xmlns="http://www.w3.org/2000/svg" version="1.1">
 <metadata>
  <rdf:RDF xmlns:dc="http://purl.org/dc/elements/1.1/" xmlns:cc="http://creativecommons.org/ns#" xmlns:rdf="http://www.w3.org/1999/02/22-rdf-syntax-ns#">
   <cc:Work>
    <dc:type rdf:resource="http://purl.org/dc/dcmitype/StillImage"/>
    <dc:date>2024-05-09T11:38:38.308303</dc:date>
    <dc:format>image/svg+xml</dc:format>
    <dc:creator>
     <cc:Agent>
      <dc:title>Matplotlib v3.7.1, https://matplotlib.org/</dc:title>
     </cc:Agent>
    </dc:creator>
   </cc:Work>
  </rdf:RDF>
 </metadata>
 <defs>
  <style type="text/css">*{stroke-linejoin: round; stroke-linecap: butt}</style>
 </defs>
 <g id="figure_1">
  <g id="patch_1">
   <path d="M 0 504 
L 1080 504 
L 1080 0 
L 0 0 
z
" style="fill: #ffffff"/>
  </g>
  <g id="axes_1">
   <g id="patch_2">
    <path d="M 135 448.56 
L 972 448.56 
L 972 60.48 
L 135 60.48 
z
" style="fill: #ffffff"/>
   </g>
   <g id="matplotlib.axis_1">
    <g id="xtick_1">
     <g id="line2d_1">
      <defs>
       <path id="mc63e6a087a" d="M 0 0 
L 0 3.5 
" style="stroke: #000000; stroke-width: 0.8"/>
      </defs>
      <g>
       <use xlink:href="#mc63e6a087a" x="173.045455" y="448.56" style="stroke: #000000; stroke-width: 0.8"/>
      </g>
     </g>
     <g id="text_1">
      <!-- 0 -->
      <g transform="translate(169.864205 463.158437) scale(0.1 -0.1)">
       <defs>
        <path id="DejaVuSans-30" d="M 2034 4250 
Q 1547 4250 1301 3770 
Q 1056 3291 1056 2328 
Q 1056 1369 1301 889 
Q 1547 409 2034 409 
Q 2525 409 2770 889 
Q 3016 1369 3016 2328 
Q 3016 3291 2770 3770 
Q 2525 4250 2034 4250 
z
M 2034 4750 
Q 2819 4750 3233 4129 
Q 3647 3509 3647 2328 
Q 3647 1150 3233 529 
Q 2819 -91 2034 -91 
Q 1250 -91 836 529 
Q 422 1150 422 2328 
Q 422 3509 836 4129 
Q 1250 4750 2034 4750 
z
" transform="scale(0.015625)"/>
       </defs>
       <use xlink:href="#DejaVuSans-30"/>
      </g>
     </g>
    </g>
    <g id="xtick_2">
     <g id="line2d_2">
      <g>
       <use xlink:href="#mc63e6a087a" x="333.33808" y="448.56" style="stroke: #000000; stroke-width: 0.8"/>
      </g>
     </g>
     <g id="text_2">
      <!-- 1000 -->
      <g transform="translate(320.61308 463.158437) scale(0.1 -0.1)">
       <defs>
        <path id="DejaVuSans-31" d="M 794 531 
L 1825 531 
L 1825 4091 
L 703 3866 
L 703 4441 
L 1819 4666 
L 2450 4666 
L 2450 531 
L 3481 531 
L 3481 0 
L 794 0 
L 794 531 
z
" transform="scale(0.015625)"/>
       </defs>
       <use xlink:href="#DejaVuSans-31"/>
       <use xlink:href="#DejaVuSans-30" x="63.623047"/>
       <use xlink:href="#DejaVuSans-30" x="127.246094"/>
       <use xlink:href="#DejaVuSans-30" x="190.869141"/>
      </g>
     </g>
    </g>
    <g id="xtick_3">
     <g id="line2d_3">
      <g>
       <use xlink:href="#mc63e6a087a" x="493.630705" y="448.56" style="stroke: #000000; stroke-width: 0.8"/>
      </g>
     </g>
     <g id="text_3">
      <!-- 2000 -->
      <g transform="translate(480.905705 463.158437) scale(0.1 -0.1)">
       <defs>
        <path id="DejaVuSans-32" d="M 1228 531 
L 3431 531 
L 3431 0 
L 469 0 
L 469 531 
Q 828 903 1448 1529 
Q 2069 2156 2228 2338 
Q 2531 2678 2651 2914 
Q 2772 3150 2772 3378 
Q 2772 3750 2511 3984 
Q 2250 4219 1831 4219 
Q 1534 4219 1204 4116 
Q 875 4013 500 3803 
L 500 4441 
Q 881 4594 1212 4672 
Q 1544 4750 1819 4750 
Q 2544 4750 2975 4387 
Q 3406 4025 3406 3419 
Q 3406 3131 3298 2873 
Q 3191 2616 2906 2266 
Q 2828 2175 2409 1742 
Q 1991 1309 1228 531 
z
" transform="scale(0.015625)"/>
       </defs>
       <use xlink:href="#DejaVuSans-32"/>
       <use xlink:href="#DejaVuSans-30" x="63.623047"/>
       <use xlink:href="#DejaVuSans-30" x="127.246094"/>
       <use xlink:href="#DejaVuSans-30" x="190.869141"/>
      </g>
     </g>
    </g>
    <g id="xtick_4">
     <g id="line2d_4">
      <g>
       <use xlink:href="#mc63e6a087a" x="653.92333" y="448.56" style="stroke: #000000; stroke-width: 0.8"/>
      </g>
     </g>
     <g id="text_4">
      <!-- 3000 -->
      <g transform="translate(641.19833 463.158437) scale(0.1 -0.1)">
       <defs>
        <path id="DejaVuSans-33" d="M 2597 2516 
Q 3050 2419 3304 2112 
Q 3559 1806 3559 1356 
Q 3559 666 3084 287 
Q 2609 -91 1734 -91 
Q 1441 -91 1130 -33 
Q 819 25 488 141 
L 488 750 
Q 750 597 1062 519 
Q 1375 441 1716 441 
Q 2309 441 2620 675 
Q 2931 909 2931 1356 
Q 2931 1769 2642 2001 
Q 2353 2234 1838 2234 
L 1294 2234 
L 1294 2753 
L 1863 2753 
Q 2328 2753 2575 2939 
Q 2822 3125 2822 3475 
Q 2822 3834 2567 4026 
Q 2313 4219 1838 4219 
Q 1578 4219 1281 4162 
Q 984 4106 628 3988 
L 628 4550 
Q 988 4650 1302 4700 
Q 1616 4750 1894 4750 
Q 2613 4750 3031 4423 
Q 3450 4097 3450 3541 
Q 3450 3153 3228 2886 
Q 3006 2619 2597 2516 
z
" transform="scale(0.015625)"/>
       </defs>
       <use xlink:href="#DejaVuSans-33"/>
       <use xlink:href="#DejaVuSans-30" x="63.623047"/>
       <use xlink:href="#DejaVuSans-30" x="127.246094"/>
       <use xlink:href="#DejaVuSans-30" x="190.869141"/>
      </g>
     </g>
    </g>
    <g id="xtick_5">
     <g id="line2d_5">
      <g>
       <use xlink:href="#mc63e6a087a" x="814.215955" y="448.56" style="stroke: #000000; stroke-width: 0.8"/>
      </g>
     </g>
     <g id="text_5">
      <!-- 4000 -->
      <g transform="translate(801.490955 463.158437) scale(0.1 -0.1)">
       <defs>
        <path id="DejaVuSans-34" d="M 2419 4116 
L 825 1625 
L 2419 1625 
L 2419 4116 
z
M 2253 4666 
L 3047 4666 
L 3047 1625 
L 3713 1625 
L 3713 1100 
L 3047 1100 
L 3047 0 
L 2419 0 
L 2419 1100 
L 313 1100 
L 313 1709 
L 2253 4666 
z
" transform="scale(0.015625)"/>
       </defs>
       <use xlink:href="#DejaVuSans-34"/>
       <use xlink:href="#DejaVuSans-30" x="63.623047"/>
       <use xlink:href="#DejaVuSans-30" x="127.246094"/>
       <use xlink:href="#DejaVuSans-30" x="190.869141"/>
      </g>
     </g>
    </g>
    <g id="text_6">
     <!-- t -->
     <g transform="translate(551.539844 476.836563) scale(0.1 -0.1)">
      <defs>
       <path id="DejaVuSans-74" d="M 1172 4494 
L 1172 3500 
L 2356 3500 
L 2356 3053 
L 1172 3053 
L 1172 1153 
Q 1172 725 1289 603 
Q 1406 481 1766 481 
L 2356 481 
L 2356 0 
L 1766 0 
Q 1100 0 847 248 
Q 594 497 594 1153 
L 594 3053 
L 172 3053 
L 172 3500 
L 594 3500 
L 594 4494 
L 1172 4494 
z
" transform="scale(0.015625)"/>
      </defs>
      <use xlink:href="#DejaVuSans-74"/>
     </g>
    </g>
   </g>
   <g id="matplotlib.axis_2">
    <g id="ytick_1">
     <g id="line2d_6">
      <defs>
       <path id="mf9c1c69577" d="M 0 0 
L -3.5 0 
" style="stroke: #000000; stroke-width: 0.8"/>
      </defs>
      <g>
       <use xlink:href="#mf9c1c69577" x="135" y="420.912305" style="stroke: #000000; stroke-width: 0.8"/>
      </g>
     </g>
     <g id="text_7">
      <!-- 0.0 -->
      <g transform="translate(112.096875 424.711524) scale(0.1 -0.1)">
       <defs>
        <path id="DejaVuSans-2e" d="M 684 794 
L 1344 794 
L 1344 0 
L 684 0 
L 684 794 
z
" transform="scale(0.015625)"/>
       </defs>
       <use xlink:href="#DejaVuSans-30"/>
       <use xlink:href="#DejaVuSans-2e" x="63.623047"/>
       <use xlink:href="#DejaVuSans-30" x="95.410156"/>
      </g>
     </g>
    </g>
    <g id="ytick_2">
     <g id="line2d_7">
      <g>
       <use xlink:href="#mf9c1c69577" x="135" y="358.77474" style="stroke: #000000; stroke-width: 0.8"/>
      </g>
     </g>
     <g id="text_8">
      <!-- 0.2 -->
      <g transform="translate(112.096875 362.573959) scale(0.1 -0.1)">
       <use xlink:href="#DejaVuSans-30"/>
       <use xlink:href="#DejaVuSans-2e" x="63.623047"/>
       <use xlink:href="#DejaVuSans-32" x="95.410156"/>
      </g>
     </g>
    </g>
    <g id="ytick_3">
     <g id="line2d_8">
      <g>
       <use xlink:href="#mf9c1c69577" x="135" y="296.637174" style="stroke: #000000; stroke-width: 0.8"/>
      </g>
     </g>
     <g id="text_9">
      <!-- 0.4 -->
      <g transform="translate(112.096875 300.436393) scale(0.1 -0.1)">
       <use xlink:href="#DejaVuSans-30"/>
       <use xlink:href="#DejaVuSans-2e" x="63.623047"/>
       <use xlink:href="#DejaVuSans-34" x="95.410156"/>
      </g>
     </g>
    </g>
    <g id="ytick_4">
     <g id="line2d_9">
      <g>
       <use xlink:href="#mf9c1c69577" x="135" y="234.499609" style="stroke: #000000; stroke-width: 0.8"/>
      </g>
     </g>
     <g id="text_10">
      <!-- 0.6 -->
      <g transform="translate(112.096875 238.298828) scale(0.1 -0.1)">
       <defs>
        <path id="DejaVuSans-36" d="M 2113 2584 
Q 1688 2584 1439 2293 
Q 1191 2003 1191 1497 
Q 1191 994 1439 701 
Q 1688 409 2113 409 
Q 2538 409 2786 701 
Q 3034 994 3034 1497 
Q 3034 2003 2786 2293 
Q 2538 2584 2113 2584 
z
M 3366 4563 
L 3366 3988 
Q 3128 4100 2886 4159 
Q 2644 4219 2406 4219 
Q 1781 4219 1451 3797 
Q 1122 3375 1075 2522 
Q 1259 2794 1537 2939 
Q 1816 3084 2150 3084 
Q 2853 3084 3261 2657 
Q 3669 2231 3669 1497 
Q 3669 778 3244 343 
Q 2819 -91 2113 -91 
Q 1303 -91 875 529 
Q 447 1150 447 2328 
Q 447 3434 972 4092 
Q 1497 4750 2381 4750 
Q 2619 4750 2861 4703 
Q 3103 4656 3366 4563 
z
" transform="scale(0.015625)"/>
       </defs>
       <use xlink:href="#DejaVuSans-30"/>
       <use xlink:href="#DejaVuSans-2e" x="63.623047"/>
       <use xlink:href="#DejaVuSans-36" x="95.410156"/>
      </g>
     </g>
    </g>
    <g id="ytick_5">
     <g id="line2d_10">
      <g>
       <use xlink:href="#mf9c1c69577" x="135" y="172.362044" style="stroke: #000000; stroke-width: 0.8"/>
      </g>
     </g>
     <g id="text_11">
      <!-- 0.8 -->
      <g transform="translate(112.096875 176.161262) scale(0.1 -0.1)">
       <defs>
        <path id="DejaVuSans-38" d="M 2034 2216 
Q 1584 2216 1326 1975 
Q 1069 1734 1069 1313 
Q 1069 891 1326 650 
Q 1584 409 2034 409 
Q 2484 409 2743 651 
Q 3003 894 3003 1313 
Q 3003 1734 2745 1975 
Q 2488 2216 2034 2216 
z
M 1403 2484 
Q 997 2584 770 2862 
Q 544 3141 544 3541 
Q 544 4100 942 4425 
Q 1341 4750 2034 4750 
Q 2731 4750 3128 4425 
Q 3525 4100 3525 3541 
Q 3525 3141 3298 2862 
Q 3072 2584 2669 2484 
Q 3125 2378 3379 2068 
Q 3634 1759 3634 1313 
Q 3634 634 3220 271 
Q 2806 -91 2034 -91 
Q 1263 -91 848 271 
Q 434 634 434 1313 
Q 434 1759 690 2068 
Q 947 2378 1403 2484 
z
M 1172 3481 
Q 1172 3119 1398 2916 
Q 1625 2713 2034 2713 
Q 2441 2713 2670 2916 
Q 2900 3119 2900 3481 
Q 2900 3844 2670 4047 
Q 2441 4250 2034 4250 
Q 1625 4250 1398 4047 
Q 1172 3844 1172 3481 
z
" transform="scale(0.015625)"/>
       </defs>
       <use xlink:href="#DejaVuSans-30"/>
       <use xlink:href="#DejaVuSans-2e" x="63.623047"/>
       <use xlink:href="#DejaVuSans-38" x="95.410156"/>
      </g>
     </g>
    </g>
    <g id="ytick_6">
     <g id="line2d_11">
      <g>
       <use xlink:href="#mf9c1c69577" x="135" y="110.224478" style="stroke: #000000; stroke-width: 0.8"/>
      </g>
     </g>
     <g id="text_12">
      <!-- 1.0 -->
      <g transform="translate(112.096875 114.023697) scale(0.1 -0.1)">
       <use xlink:href="#DejaVuSans-31"/>
       <use xlink:href="#DejaVuSans-2e" x="63.623047"/>
       <use xlink:href="#DejaVuSans-30" x="95.410156"/>
      </g>
     </g>
    </g>
   </g>
   <g id="line2d_12">
    <path d="M 173.045455 204.92285 
L 173.36604 84.1628 
L 173.526332 78.120006 
L 173.686625 84.927408 
L 174.488088 141.449536 
L 174.968966 156.557206 
L 175.449844 163.671619 
L 175.930722 167.531982 
L 176.892478 173.493787 
L 177.373355 178.685467 
L 177.693941 183.28393 
L 177.854233 398.380677 
L 178.014526 421.66256 
L 178.655696 317.74982 
L 178.815989 313.009878 
L 178.976282 316.739803 
L 179.296867 339.37431 
L 179.938037 385.387874 
L 180.258623 394.655922 
L 180.579208 397.773802 
L 180.899793 399.620949 
L 181.220378 403.254033 
L 181.701256 412.854787 
L 182.342427 426.219064 
L 182.663012 429.959152 
L 182.823305 430.788883 
L 182.983597 430.92 
L 183.14389 430.389436 
L 183.464475 427.602211 
L 183.945353 420.374576 
L 185.387987 396.306924 
L 185.868865 391.645585 
L 186.18945 389.820275 
L 186.510035 388.970079 
L 186.670328 388.882293 
L 186.83062 389.000187 
L 187.151206 389.787411 
L 187.632083 392.08303 
L 188.433547 397.712064 
L 190.036473 409.539379 
L 190.837936 413.855607 
L 191.479106 416.341795 
L 192.120277 418.079633 
L 192.761447 419.228054 
L 193.402618 419.948492 
L 194.043788 420.378897 
L 194.845252 420.666126 
L 196.127593 420.840003 
L 198.852567 420.897226 
L 213.278903 420.912301 
L 213.599489 116.791273 
L 213.759781 84.162797 
L 213.920074 78.120003 
L 214.080367 84.927405 
L 214.88183 141.449535 
L 215.362708 156.557205 
L 215.843585 163.671618 
L 216.324463 167.531981 
L 217.286219 173.493787 
L 217.767097 178.685467 
L 218.087682 183.28393 
L 218.247975 398.380677 
L 218.408267 421.66256 
L 219.049438 317.74982 
L 219.209731 313.009878 
L 219.370023 316.739803 
L 219.690608 339.37431 
L 220.331779 385.387874 
L 220.652364 394.655922 
L 220.972949 397.773802 
L 221.293535 399.620949 
L 221.61412 403.254033 
L 222.094998 412.854787 
L 222.736168 426.219064 
L 223.056754 429.959152 
L 223.217046 430.788883 
L 223.377339 430.92 
L 223.537631 430.389436 
L 223.858217 427.602211 
L 224.339095 420.374576 
L 225.781728 396.306924 
L 226.262606 391.645585 
L 226.583191 389.820275 
L 226.903777 388.970079 
L 227.064069 388.882293 
L 227.224362 389.000187 
L 227.544947 389.787411 
L 228.025825 392.08303 
L 228.827288 397.712064 
L 230.430214 409.539379 
L 231.231677 413.855607 
L 231.872848 416.341795 
L 232.514018 418.079633 
L 233.155189 419.228054 
L 233.796359 419.948492 
L 234.43753 420.378897 
L 235.238993 420.666126 
L 236.521334 420.840003 
L 239.246309 420.897226 
L 253.99323 420.912302 
L 254.313815 116.791274 
L 254.474108 84.162797 
L 254.634401 78.120003 
L 254.794693 84.927405 
L 255.596156 141.449535 
L 256.077034 156.557205 
L 256.557912 163.671618 
L 257.03879 167.531982 
L 258.000546 173.493787 
L 258.481424 178.685467 
L 258.802009 183.28393 
L 258.962302 398.380677 
L 259.122594 421.66256 
L 259.763765 317.74982 
L 259.924057 313.009878 
L 260.08435 316.739803 
L 260.404935 339.37431 
L 261.046106 385.387874 
L 261.366691 394.655922 
L 261.687276 397.773802 
L 262.007861 399.620949 
L 262.328447 403.254033 
L 262.809325 412.854787 
L 263.450495 426.219064 
L 263.77108 429.959152 
L 263.931373 430.788883 
L 264.091666 430.92 
L 264.251958 430.389436 
L 264.572543 427.602211 
L 265.053421 420.374576 
L 266.496055 396.306924 
L 266.976933 391.645585 
L 267.297518 389.820275 
L 267.618103 388.970079 
L 267.778396 388.882293 
L 267.938689 389.000187 
L 268.259274 389.787411 
L 268.740152 392.08303 
L 269.541615 397.712064 
L 271.144541 409.539379 
L 271.946004 413.855607 
L 272.587175 416.341795 
L 273.228345 418.079633 
L 273.869516 419.228054 
L 274.510686 419.948492 
L 275.151857 420.378897 
L 275.95332 420.666126 
L 277.235661 420.840003 
L 279.960635 420.897226 
L 293.585509 420.912299 
L 293.906094 116.791271 
L 294.066386 84.162795 
L 294.226679 78.120002 
L 294.386972 84.927404 
L 295.188435 141.449534 
L 295.669313 156.557205 
L 296.150191 163.671618 
L 296.631068 167.531981 
L 297.592824 173.493786 
L 298.073702 178.685467 
L 298.394287 183.28393 
L 298.55458 398.380677 
L 298.714873 421.66256 
L 299.356043 317.74982 
L 299.516336 313.009878 
L 299.676628 316.739803 
L 299.997214 339.37431 
L 300.638384 385.387874 
L 300.958969 394.655922 
L 301.279555 397.773802 
L 301.60014 399.620949 
L 301.920725 403.254033 
L 302.401603 412.854787 
L 303.042773 426.219064 
L 303.363359 429.959152 
L 303.523651 430.788883 
L 303.683944 430.92 
L 303.844237 430.389436 
L 304.164822 427.602211 
L 304.6457 420.374576 
L 306.088333 396.306924 
L 306.569211 391.645585 
L 306.889796 389.820275 
L 307.210382 388.970079 
L 307.370674 388.882293 
L 307.530967 389.000187 
L 307.851552 389.787411 
L 308.33243 392.08303 
L 309.133893 397.712064 
L 310.736819 409.539379 
L 311.538283 413.855607 
L 312.179453 416.341795 
L 312.820624 418.079633 
L 313.461794 419.228054 
L 314.102965 419.948492 
L 314.744135 420.378897 
L 315.545598 420.666126 
L 316.827939 420.840003 
L 319.552914 420.897226 
L 333.818957 420.912301 
L 334.139543 116.791273 
L 334.299835 84.162797 
L 334.460128 78.120003 
L 334.620421 84.927405 
L 335.421884 141.449535 
L 335.902762 156.557205 
L 336.383639 163.671618 
L 336.864517 167.531981 
L 337.826273 173.493787 
L 338.307151 178.685467 
L 338.627736 183.28393 
L 338.788029 398.380677 
L 338.948321 421.66256 
L 339.589492 317.74982 
L 339.749785 313.009878 
L 339.910077 316.739803 
L 340.230662 339.37431 
L 340.871833 385.387874 
L 341.192418 394.655922 
L 341.513003 397.773802 
L 341.833589 399.620949 
L 342.154174 403.254033 
L 342.635052 412.854787 
L 343.276222 426.219064 
L 343.596808 429.959152 
L 343.7571 430.788883 
L 343.917393 430.92 
L 344.077685 430.389436 
L 344.398271 427.602211 
L 344.879149 420.374576 
L 346.321782 396.306924 
L 346.80266 391.645585 
L 347.123245 389.820275 
L 347.443831 388.970079 
L 347.604123 388.882293 
L 347.764416 389.000187 
L 348.085001 389.787411 
L 348.565879 392.08303 
L 349.367342 397.712064 
L 350.970268 409.539379 
L 351.771731 413.855607 
L 352.412902 416.341795 
L 353.054072 418.079633 
L 353.695243 419.228054 
L 354.336413 419.948492 
L 354.977584 420.378897 
L 355.779047 420.666126 
L 357.061388 420.840003 
L 359.786363 420.897226 
L 373.090651 420.912298 
L 373.411236 116.79127 
L 373.571528 84.162794 
L 373.731821 78.120001 
L 373.892114 84.927403 
L 374.693577 141.449534 
L 375.174455 156.557204 
L 375.655333 163.671618 
L 376.13621 167.531981 
L 377.097966 173.493786 
L 377.578844 178.685467 
L 377.899429 183.28393 
L 378.059722 398.380677 
L 378.220015 421.66256 
L 378.861185 317.74982 
L 379.021478 313.009878 
L 379.18177 316.739803 
L 379.502356 339.37431 
L 380.143526 385.387874 
L 380.464111 394.655922 
L 380.784697 397.773802 
L 381.105282 399.620949 
L 381.425867 403.254033 
L 381.906745 412.854787 
L 382.547915 426.219064 
L 382.868501 429.959152 
L 383.028793 430.788883 
L 383.189086 430.92 
L 383.349379 430.389436 
L 383.669964 427.602211 
L 384.150842 420.374576 
L 385.593475 396.306924 
L 386.074353 391.645585 
L 386.394938 389.820275 
L 386.715524 388.970079 
L 386.875816 388.882293 
L 387.036109 389.000187 
L 387.356694 389.787411 
L 387.837572 392.08303 
L 388.639035 397.712064 
L 390.241961 409.539379 
L 391.043425 413.855607 
L 391.684595 416.341795 
L 392.325766 418.079633 
L 392.966936 419.228054 
L 393.608107 419.948492 
L 394.249277 420.378897 
L 395.05074 420.666126 
L 396.333081 420.840003 
L 399.058056 420.897226 
L 413.644685 420.912301 
L 413.96527 116.791273 
L 414.125563 84.162797 
L 414.285855 78.120003 
L 414.446148 84.927405 
L 415.247611 141.449535 
L 415.728489 156.557205 
L 416.209367 163.671618 
L 416.690245 167.531981 
L 417.652 173.493787 
L 418.132878 178.685467 
L 418.453463 183.28393 
L 418.613756 398.380677 
L 418.774049 421.66256 
L 419.415219 317.74982 
L 419.575512 313.009878 
L 419.735804 316.739803 
L 420.05639 339.37431 
L 420.69756 385.387874 
L 421.018145 394.655922 
L 421.338731 397.773802 
L 421.659316 399.620949 
L 421.979901 403.254033 
L 422.460779 412.854787 
L 423.10195 426.219064 
L 423.422535 429.959152 
L 423.582827 430.788883 
L 423.74312 430.92 
L 423.903413 430.389436 
L 424.223998 427.602211 
L 424.704876 420.374576 
L 426.147509 396.306924 
L 426.628387 391.645585 
L 426.948973 389.820275 
L 427.269558 388.970079 
L 427.42985 388.882293 
L 427.590143 389.000187 
L 427.910728 389.787411 
L 428.391606 392.08303 
L 429.193069 397.712064 
L 430.795996 409.539379 
L 431.597459 413.855607 
L 432.238629 416.341795 
L 432.8798 418.079633 
L 433.52097 419.228054 
L 434.162141 419.948492 
L 434.803311 420.378897 
L 435.604774 420.666126 
L 436.887115 420.840003 
L 439.61209 420.897226 
L 453.557548 420.9123 
L 453.878134 116.791272 
L 454.038426 84.162796 
L 454.198719 78.120002 
L 454.359011 84.927404 
L 455.160475 141.449535 
L 455.641352 156.557205 
L 456.12223 163.671618 
L 456.603108 167.531981 
L 457.564864 173.493787 
L 458.045742 178.685467 
L 458.366327 183.28393 
L 458.52662 398.380677 
L 458.686912 421.66256 
L 459.328083 317.74982 
L 459.488375 313.009878 
L 459.648668 316.739803 
L 459.969253 339.37431 
L 460.610424 385.387874 
L 460.931009 394.655922 
L 461.251594 397.773802 
L 461.57218 399.620949 
L 461.892765 403.254033 
L 462.373643 412.854787 
L 463.014813 426.219064 
L 463.335398 429.959152 
L 463.495691 430.788883 
L 463.655984 430.92 
L 463.816276 430.389436 
L 464.136862 427.602211 
L 464.617739 420.374576 
L 466.060373 396.306924 
L 466.541251 391.645585 
L 466.861836 389.820275 
L 467.182421 388.970079 
L 467.342714 388.882293 
L 467.503007 389.000187 
L 467.823592 389.787411 
L 468.30447 392.08303 
L 469.105933 397.712064 
L 470.708859 409.539379 
L 471.510322 413.855607 
L 472.151493 416.341795 
L 472.792663 418.079633 
L 473.433834 419.228054 
L 474.075004 419.948492 
L 474.716175 420.378897 
L 475.517638 420.666126 
L 476.799979 420.840003 
L 479.524954 420.897226 
L 493.630705 420.9123 
L 493.95129 116.791272 
L 494.111582 84.162796 
L 494.271875 78.120002 
L 494.432168 84.927405 
L 495.233631 141.449535 
L 495.714509 156.557205 
L 496.195387 163.671618 
L 496.676264 167.531981 
L 497.63802 173.493787 
L 498.118898 178.685467 
L 498.439483 183.28393 
L 498.599776 398.380677 
L 498.760069 421.66256 
L 499.401239 317.74982 
L 499.561532 313.009878 
L 499.721824 316.739803 
L 500.04241 339.37431 
L 500.68358 385.387874 
L 501.004165 394.655922 
L 501.324751 397.773802 
L 501.645336 399.620949 
L 501.965921 403.254033 
L 502.446799 412.854787 
L 503.087969 426.219064 
L 503.408555 429.959152 
L 503.568847 430.788883 
L 503.72914 430.92 
L 503.889433 430.389436 
L 504.210018 427.602211 
L 504.690896 420.374576 
L 506.133529 396.306924 
L 506.614407 391.645585 
L 506.934992 389.820275 
L 507.255578 388.970079 
L 507.41587 388.882293 
L 507.576163 389.000187 
L 507.896748 389.787411 
L 508.377626 392.08303 
L 509.179089 397.712064 
L 510.782015 409.539379 
L 511.583479 413.855607 
L 512.224649 416.341795 
L 512.86582 418.079633 
L 513.50699 419.228054 
L 514.148161 419.948492 
L 514.789331 420.378897 
L 515.590794 420.666126 
L 516.873135 420.840003 
L 519.59811 420.897226 
L 533.864153 420.912301 
L 534.184739 116.791273 
L 534.345031 84.162797 
L 534.505324 78.120003 
L 534.665617 84.927405 
L 535.46708 141.449535 
L 535.947958 156.557205 
L 536.428835 163.671618 
L 536.909713 167.531981 
L 537.871469 173.493787 
L 538.352347 178.685467 
L 538.672932 183.28393 
L 538.833225 398.380677 
L 538.993517 421.66256 
L 539.634688 317.74982 
L 539.794981 313.009878 
L 539.955273 316.739803 
L 540.275858 339.37431 
L 540.917029 385.387874 
L 541.237614 394.655922 
L 541.558199 397.773802 
L 541.878785 399.620949 
L 542.19937 403.254033 
L 542.680248 412.854787 
L 543.321418 426.219064 
L 543.642004 429.959152 
L 543.802296 430.788883 
L 543.962589 430.92 
L 544.122881 430.389436 
L 544.443467 427.602211 
L 544.924345 420.374576 
L 546.366978 396.306924 
L 546.847856 391.645585 
L 547.168441 389.820275 
L 547.489027 388.970079 
L 547.649319 388.882293 
L 547.809612 389.000187 
L 548.130197 389.787411 
L 548.611075 392.08303 
L 549.412538 397.712064 
L 551.015464 409.539379 
L 551.816927 413.855607 
L 552.458098 416.341795 
L 553.099268 418.079633 
L 553.740439 419.228054 
L 554.381609 419.948492 
L 555.02278 420.378897 
L 555.824243 420.666126 
L 557.106584 420.840003 
L 559.831559 420.897226 
L 574.257895 420.912301 
L 574.57848 116.791273 
L 574.738773 84.162797 
L 574.899065 78.120003 
L 575.059358 84.927405 
L 575.860821 141.449535 
L 576.341699 156.557205 
L 576.822577 163.671618 
L 577.303455 167.531981 
L 578.265211 173.493787 
L 578.746088 178.685467 
L 579.066674 183.28393 
L 579.226966 398.380677 
L 579.387259 421.66256 
L 580.028429 317.74982 
L 580.188722 313.009878 
L 580.349015 316.739803 
L 580.6696 339.37431 
L 581.31077 385.387874 
L 581.631356 394.655922 
L 581.951941 397.773802 
L 582.272526 399.620949 
L 582.593111 403.254033 
L 583.073989 412.854787 
L 583.71516 426.219064 
L 584.035745 429.959152 
L 584.196038 430.788883 
L 584.35633 430.92 
L 584.516623 430.389436 
L 584.837208 427.602211 
L 585.318086 420.374576 
L 586.76072 396.306924 
L 587.241598 391.645585 
L 587.562183 389.820275 
L 587.882768 388.970079 
L 588.043061 388.882293 
L 588.203353 389.000187 
L 588.523939 389.787411 
L 589.004816 392.08303 
L 589.80628 397.712064 
L 591.409206 409.539379 
L 592.210669 413.855607 
L 592.851839 416.341795 
L 593.49301 418.079633 
L 594.13418 419.228054 
L 594.775351 419.948492 
L 595.416521 420.378897 
L 596.217985 420.666126 
L 597.500326 420.840003 
L 600.2253 420.897226 
L 613.209003 420.912296 
L 613.529588 116.791269 
L 613.689881 84.162794 
L 613.850173 78.12 
L 614.010466 84.927402 
L 614.811929 141.449533 
L 615.292807 156.557204 
L 615.773685 163.671617 
L 616.254563 167.531981 
L 617.216318 173.493786 
L 617.697196 178.685467 
L 618.017782 183.28393 
L 618.178074 398.380677 
L 618.338367 421.662559 
L 618.979537 317.74982 
L 619.13983 313.009878 
L 619.300123 316.739803 
L 619.620708 339.37431 
L 620.261878 385.387874 
L 620.582464 394.655922 
L 620.903049 397.773802 
L 621.223634 399.620949 
L 621.544219 403.254033 
L 622.025097 412.854787 
L 622.666268 426.219064 
L 622.986853 429.959152 
L 623.147146 430.788883 
L 623.307438 430.92 
L 623.467731 430.389436 
L 623.788316 427.602211 
L 624.269194 420.374576 
L 625.711828 396.306924 
L 626.192705 391.645585 
L 626.513291 389.820275 
L 626.833876 388.970079 
L 626.994169 388.882293 
L 627.154461 389.000187 
L 627.475046 389.787411 
L 627.955924 392.08303 
L 628.757387 397.712064 
L 630.360314 409.539379 
L 631.161777 413.855607 
L 631.802947 416.341795 
L 632.444118 418.079633 
L 633.085288 419.228054 
L 633.726459 419.948492 
L 634.367629 420.378897 
L 635.169092 420.666126 
L 636.451433 420.840003 
L 639.176408 420.897226 
L 653.92333 420.912302 
L 654.243915 116.791274 
L 654.404207 84.162797 
L 654.5645 78.120003 
L 654.724793 84.927405 
L 655.526256 141.449535 
L 656.007134 156.557205 
L 656.488012 163.671618 
L 656.968889 167.531982 
L 657.930645 173.493787 
L 658.411523 178.685467 
L 658.732108 183.28393 
L 658.892401 398.380677 
L 659.052694 421.66256 
L 659.693864 317.74982 
L 659.854157 313.009878 
L 660.014449 316.739803 
L 660.335035 339.37431 
L 660.976205 385.387874 
L 661.29679 394.655922 
L 661.617376 397.773802 
L 661.937961 399.620949 
L 662.258546 403.254033 
L 662.739424 412.854787 
L 663.380594 426.219064 
L 663.70118 429.959152 
L 663.861472 430.788883 
L 664.021765 430.92 
L 664.182058 430.389436 
L 664.502643 427.602211 
L 664.983521 420.374576 
L 666.426154 396.306924 
L 666.907032 391.645585 
L 667.227617 389.820275 
L 667.548203 388.970079 
L 667.708495 388.882293 
L 667.868788 389.000187 
L 668.189373 389.787411 
L 668.670251 392.08303 
L 669.471714 397.712064 
L 671.07464 409.539379 
L 671.876104 413.855607 
L 672.517274 416.341795 
L 673.158445 418.079633 
L 673.799615 419.228054 
L 674.440786 419.948492 
L 675.081956 420.378897 
L 675.883419 420.666126 
L 677.16576 420.840003 
L 679.890735 420.897226 
L 694.156778 420.912301 
L 694.477364 116.791273 
L 694.637656 84.162797 
L 694.797949 78.120003 
L 694.958242 84.927405 
L 695.759705 141.449535 
L 696.240583 156.557205 
L 696.72146 163.671618 
L 697.202338 167.531981 
L 698.164094 173.493787 
L 698.644972 178.685467 
L 698.965557 183.28393 
L 699.12585 398.380677 
L 699.286142 421.66256 
L 699.927313 317.74982 
L 700.087606 313.009878 
L 700.247898 316.739803 
L 700.568483 339.37431 
L 701.209654 385.387874 
L 701.530239 394.655922 
L 701.850824 397.773802 
L 702.17141 399.620949 
L 702.491995 403.254033 
L 702.972873 412.854787 
L 703.614043 426.219064 
L 703.934629 429.959152 
L 704.094921 430.788883 
L 704.255214 430.92 
L 704.415506 430.389436 
L 704.736092 427.602211 
L 705.21697 420.374576 
L 706.659603 396.306924 
L 707.140481 391.645585 
L 707.461066 389.820275 
L 707.781652 388.970079 
L 707.941944 388.882293 
L 708.102237 389.000187 
L 708.422822 389.787411 
L 708.9037 392.08303 
L 709.705163 397.712064 
L 711.308089 409.539379 
L 712.109552 413.855607 
L 712.750723 416.341795 
L 713.391893 418.079633 
L 714.033064 419.228054 
L 714.674234 419.948492 
L 715.315405 420.378897 
L 716.116868 420.666126 
L 717.399209 420.840003 
L 720.124184 420.897226 
L 734.069642 420.9123 
L 734.390227 116.791272 
L 734.55052 84.162796 
L 734.710813 78.120002 
L 734.871105 84.927404 
L 735.672568 141.449535 
L 736.153446 156.557205 
L 736.634324 163.671618 
L 737.115202 167.531981 
L 738.076958 173.493787 
L 738.557836 178.685467 
L 738.878421 183.28393 
L 739.038713 398.380677 
L 739.199006 421.66256 
L 739.840177 317.74982 
L 740.000469 313.009878 
L 740.160762 316.739803 
L 740.481347 339.37431 
L 741.122518 385.387874 
L 741.443103 394.655922 
L 741.763688 397.773802 
L 742.084273 399.620949 
L 742.404859 403.254033 
L 742.885736 412.854787 
L 743.526907 426.219064 
L 743.847492 429.959152 
L 744.007785 430.788883 
L 744.168077 430.92 
L 744.32837 430.389436 
L 744.648955 427.602211 
L 745.129833 420.374576 
L 746.572467 396.306924 
L 747.053345 391.645585 
L 747.37393 389.820275 
L 747.694515 388.970079 
L 747.854808 388.882293 
L 748.0151 389.000187 
L 748.335686 389.787411 
L 748.816564 392.08303 
L 749.618027 397.712064 
L 751.220953 409.539379 
L 752.022416 413.855607 
L 752.663587 416.341795 
L 753.304757 418.079633 
L 753.945928 419.228054 
L 754.587098 419.948492 
L 755.228269 420.378897 
L 756.029732 420.666126 
L 757.312073 420.840003 
L 760.037047 420.897226 
L 773.822213 420.912299 
L 774.142798 116.791272 
L 774.303091 84.162796 
L 774.463384 78.120002 
L 774.623676 84.927404 
L 775.425139 141.449534 
L 775.906017 156.557205 
L 776.386895 163.671618 
L 776.867773 167.531981 
L 777.829529 173.493786 
L 778.310407 178.685467 
L 778.630992 183.28393 
L 778.791284 398.380677 
L 778.951577 421.66256 
L 779.592748 317.74982 
L 779.75304 313.009878 
L 779.913333 316.739803 
L 780.233918 339.37431 
L 780.875089 385.387874 
L 781.195674 394.655922 
L 781.516259 397.773802 
L 781.836844 399.620949 
L 782.15743 403.254033 
L 782.638307 412.854787 
L 783.279478 426.219064 
L 783.600063 429.959152 
L 783.760356 430.788883 
L 783.920648 430.92 
L 784.080941 430.389436 
L 784.401526 427.602211 
L 784.882404 420.374576 
L 786.325038 396.306924 
L 786.805916 391.645585 
L 787.126501 389.820275 
L 787.447086 388.970079 
L 787.607379 388.882293 
L 787.767671 389.000187 
L 788.088257 389.787411 
L 788.569135 392.08303 
L 789.370598 397.712064 
L 790.973524 409.539379 
L 791.774987 413.855607 
L 792.416158 416.341795 
L 793.057328 418.079633 
L 793.698499 419.228054 
L 794.339669 419.948492 
L 794.98084 420.378897 
L 795.782303 420.666126 
L 797.064644 420.840003 
L 799.789618 420.897226 
L 813.414491 420.912299 
L 813.735077 116.791271 
L 813.895369 84.162795 
L 814.055662 78.120002 
L 814.215955 84.927404 
L 815.017418 141.449534 
L 815.498296 156.557205 
L 815.979173 163.671618 
L 816.460051 167.531981 
L 817.421807 173.493786 
L 817.902685 178.685467 
L 818.22327 183.28393 
L 818.383563 398.380677 
L 818.543855 421.66256 
L 819.185026 317.74982 
L 819.345319 313.009878 
L 819.505611 316.739803 
L 819.826196 339.37431 
L 820.467367 385.387874 
L 820.787952 394.655922 
L 821.108537 397.773802 
L 821.429123 399.620949 
L 821.749708 403.254033 
L 822.230586 412.854787 
L 822.871756 426.219064 
L 823.192342 429.959152 
L 823.352634 430.788883 
L 823.512927 430.92 
L 823.673219 430.389436 
L 823.993805 427.602211 
L 824.474683 420.374576 
L 825.917316 396.306924 
L 826.398194 391.645585 
L 826.718779 389.820275 
L 827.039365 388.970079 
L 827.199657 388.882293 
L 827.35995 389.000187 
L 827.680535 389.787411 
L 828.161413 392.08303 
L 828.962876 397.712064 
L 830.565802 409.539379 
L 831.367265 413.855607 
L 832.008436 416.341795 
L 832.649606 418.079633 
L 833.290777 419.228054 
L 833.931947 419.948492 
L 834.573118 420.378897 
L 835.374581 420.666126 
L 836.656922 420.840003 
L 839.381897 420.897226 
L 854.609696 420.912303 
L 854.930281 116.791274 
L 855.090574 84.162798 
L 855.250867 78.120004 
L 855.411159 84.927406 
L 856.212622 141.449535 
L 856.6935 156.557205 
L 857.174378 163.671619 
L 857.655256 167.531982 
L 858.617012 173.493787 
L 859.09789 178.685467 
L 859.418475 183.28393 
L 859.578767 398.380677 
L 859.73906 421.66256 
L 860.380231 317.74982 
L 860.540523 313.009878 
L 860.700816 316.739803 
L 861.021401 339.37431 
L 861.662572 385.387874 
L 861.983157 394.655922 
L 862.303742 397.773802 
L 862.624327 399.620949 
L 862.944913 403.254033 
L 863.42579 412.854787 
L 864.066961 426.219064 
L 864.387546 429.959152 
L 864.547839 430.788883 
L 864.708131 430.92 
L 864.868424 430.389436 
L 865.189009 427.602211 
L 865.669887 420.374576 
L 867.112521 396.306924 
L 867.593399 391.645585 
L 867.913984 389.820275 
L 868.234569 388.970079 
L 868.394862 388.882293 
L 868.555154 389.000187 
L 868.87574 389.787411 
L 869.356618 392.08303 
L 870.158081 397.712064 
L 871.761007 409.539379 
L 872.56247 413.855607 
L 873.203641 416.341795 
L 873.844811 418.079633 
L 874.485982 419.228054 
L 875.127152 419.948492 
L 875.768323 420.378897 
L 876.569786 420.666126 
L 877.852127 420.840003 
L 880.577101 420.897226 
L 894.362267 420.912299 
L 894.682852 116.791272 
L 894.843145 84.162796 
L 895.003438 78.120002 
L 895.16373 84.927404 
L 895.965193 141.449534 
L 896.446071 156.557205 
L 896.926949 163.671618 
L 897.407827 167.531981 
L 898.369583 173.493786 
L 898.850461 178.685467 
L 899.171046 183.28393 
L 899.331338 398.380677 
L 899.491631 421.66256 
L 900.132802 317.74982 
L 900.293094 313.009878 
L 900.453387 316.739803 
L 900.773972 339.37431 
L 901.415143 385.387874 
L 901.735728 394.655922 
L 902.056313 397.773802 
L 902.376898 399.620949 
L 902.697484 403.254033 
L 903.178361 412.854787 
L 903.819532 426.219064 
L 904.140117 429.959152 
L 904.30041 430.788883 
L 904.460702 430.92 
L 904.620995 430.389436 
L 904.94158 427.602211 
L 905.422458 420.374576 
L 906.865092 396.306924 
L 907.34597 391.645585 
L 907.666555 389.820275 
L 907.98714 388.970079 
L 908.147433 388.882293 
L 908.307725 389.000187 
L 908.628311 389.787411 
L 909.109189 392.08303 
L 909.910652 397.712064 
L 911.513578 409.539379 
L 912.315041 413.855607 
L 912.956212 416.341795 
L 913.597382 418.079633 
L 914.238553 419.228054 
L 914.879723 419.948492 
L 915.520894 420.378897 
L 916.322357 420.666126 
L 917.604698 420.840003 
L 920.329672 420.897226 
L 933.794253 420.912298 
L 933.954545 204.922844 
L 933.954545 204.922844 
" clip-path="url(#p511fdca6fc)" style="fill: none; stroke: #1f77b4; stroke-width: 1.5; stroke-linecap: square"/>
   </g>
   <g id="line2d_13">
    <path d="M 173.045455 110.224478 
L 177.693941 110.224478 
L 177.854233 420.912305 
L 213.278903 420.912305 
L 213.439196 110.224478 
L 218.087682 110.224478 
L 218.247975 420.912305 
L 253.99323 420.912305 
L 254.153523 110.224478 
L 258.802009 110.224478 
L 258.962302 420.912305 
L 293.585509 420.912305 
L 293.745801 110.224478 
L 298.394287 110.224478 
L 298.55458 420.912305 
L 333.818957 420.912305 
L 333.97925 110.224478 
L 338.627736 110.224478 
L 338.788029 420.912305 
L 373.090651 420.912305 
L 373.250943 110.224478 
L 377.899429 110.224478 
L 378.059722 420.912305 
L 413.644685 420.912305 
L 413.804977 110.224478 
L 418.453463 110.224478 
L 418.613756 420.912305 
L 453.557548 420.912305 
L 453.717841 110.224478 
L 458.366327 110.224478 
L 458.52662 420.912305 
L 493.630705 420.912305 
L 493.790997 110.224478 
L 498.439483 110.224478 
L 498.599776 420.912305 
L 533.864153 420.912305 
L 534.024446 110.224478 
L 538.672932 110.224478 
L 538.833225 420.912305 
L 574.257895 420.912305 
L 574.418188 110.224478 
L 579.066674 110.224478 
L 579.226966 420.912305 
L 613.209003 420.912305 
L 613.369295 110.224478 
L 618.017782 110.224478 
L 618.178074 420.912305 
L 653.92333 420.912305 
L 654.083622 110.224478 
L 658.732108 110.224478 
L 658.892401 420.912305 
L 694.156778 420.912305 
L 694.317071 110.224478 
L 698.965557 110.224478 
L 699.12585 420.912305 
L 734.069642 420.912305 
L 734.229935 110.224478 
L 738.878421 110.224478 
L 739.038713 420.912305 
L 773.822213 420.912305 
L 773.982506 110.224478 
L 778.630992 110.224478 
L 778.791284 420.912305 
L 813.414491 420.912305 
L 813.574784 110.224478 
L 818.22327 110.224478 
L 818.383563 420.912305 
L 854.609696 420.912305 
L 854.769989 110.224478 
L 859.418475 110.224478 
L 859.578767 420.912305 
L 894.362267 420.912305 
L 894.52256 110.224478 
L 899.171046 110.224478 
L 899.331338 420.912305 
L 933.794253 420.912305 
L 933.954545 110.224478 
L 933.954545 110.224478 
" clip-path="url(#p511fdca6fc)" style="fill: none; stroke: #ff7f0e; stroke-width: 1.5; stroke-linecap: square"/>
   </g>
   <g id="line2d_14">
    <path d="M 929.466352 420.912305 
" clip-path="url(#p511fdca6fc)" style="fill: none; stroke: #000000; stroke-width: 1.5; stroke-linecap: square"/>
    <defs>
     <path id="mf703b7c92b" d="M 0 1 
C 0.265203 1 0.51958 0.894634 0.707107 0.707107 
C 0.894634 0.51958 1 0.265203 1 0 
C 1 -0.265203 0.894634 -0.51958 0.707107 -0.707107 
C 0.51958 -0.894634 0.265203 -1 0 -1 
C -0.265203 -1 -0.51958 -0.894634 -0.707107 -0.707107 
C -0.894634 -0.51958 -1 -0.265203 -1 0 
C -1 0.265203 -0.894634 0.51958 -0.707107 0.707107 
C -0.51958 0.894634 -0.265203 1 0 1 
z
" style="stroke: #000000"/>
    </defs>
    <g clip-path="url(#p511fdca6fc)">
     <use xlink:href="#mf703b7c92b" x="173.045455" y="110.224478" style="stroke: #000000"/>
     <use xlink:href="#mf703b7c92b" x="178.174819" y="420.912305" style="stroke: #000000"/>
     <use xlink:href="#mf703b7c92b" x="183.14389" y="420.912305" style="stroke: #000000"/>
     <use xlink:href="#mf703b7c92b" x="188.112961" y="110.224478" style="stroke: #000000"/>
     <use xlink:href="#mf703b7c92b" x="193.082033" y="420.912305" style="stroke: #000000"/>
     <use xlink:href="#mf703b7c92b" x="198.211397" y="420.912305" style="stroke: #000000"/>
     <use xlink:href="#mf703b7c92b" x="203.180468" y="110.224478" style="stroke: #000000"/>
     <use xlink:href="#mf703b7c92b" x="208.149539" y="420.912305" style="stroke: #000000"/>
     <use xlink:href="#mf703b7c92b" x="213.118611" y="110.224478" style="stroke: #000000"/>
     <use xlink:href="#mf703b7c92b" x="218.247975" y="420.912305" style="stroke: #000000"/>
     <use xlink:href="#mf703b7c92b" x="223.217046" y="420.912305" style="stroke: #000000"/>
     <use xlink:href="#mf703b7c92b" x="228.186118" y="110.224478" style="stroke: #000000"/>
     <use xlink:href="#mf703b7c92b" x="233.155189" y="420.912305" style="stroke: #000000"/>
     <use xlink:href="#mf703b7c92b" x="238.284553" y="420.912305" style="stroke: #000000"/>
     <use xlink:href="#mf703b7c92b" x="243.253624" y="110.224478" style="stroke: #000000"/>
     <use xlink:href="#mf703b7c92b" x="248.222696" y="420.912305" style="stroke: #000000"/>
     <use xlink:href="#mf703b7c92b" x="253.191767" y="110.224478" style="stroke: #000000"/>
     <use xlink:href="#mf703b7c92b" x="258.321131" y="420.912305" style="stroke: #000000"/>
     <use xlink:href="#mf703b7c92b" x="263.290202" y="420.912305" style="stroke: #000000"/>
     <use xlink:href="#mf703b7c92b" x="268.259274" y="110.224478" style="stroke: #000000"/>
     <use xlink:href="#mf703b7c92b" x="273.228345" y="420.912305" style="stroke: #000000"/>
     <use xlink:href="#mf703b7c92b" x="278.357709" y="420.912305" style="stroke: #000000"/>
     <use xlink:href="#mf703b7c92b" x="283.326781" y="110.224478" style="stroke: #000000"/>
     <use xlink:href="#mf703b7c92b" x="288.295852" y="420.912305" style="stroke: #000000"/>
     <use xlink:href="#mf703b7c92b" x="293.264923" y="110.224478" style="stroke: #000000"/>
     <use xlink:href="#mf703b7c92b" x="298.394287" y="420.912305" style="stroke: #000000"/>
     <use xlink:href="#mf703b7c92b" x="303.363359" y="420.912305" style="stroke: #000000"/>
     <use xlink:href="#mf703b7c92b" x="308.33243" y="110.224478" style="stroke: #000000"/>
     <use xlink:href="#mf703b7c92b" x="313.301501" y="420.912305" style="stroke: #000000"/>
     <use xlink:href="#mf703b7c92b" x="318.430865" y="420.912305" style="stroke: #000000"/>
     <use xlink:href="#mf703b7c92b" x="323.399937" y="110.224478" style="stroke: #000000"/>
     <use xlink:href="#mf703b7c92b" x="328.369008" y="420.912305" style="stroke: #000000"/>
     <use xlink:href="#mf703b7c92b" x="333.33808" y="110.224478" style="stroke: #000000"/>
     <use xlink:href="#mf703b7c92b" x="338.467444" y="420.912305" style="stroke: #000000"/>
     <use xlink:href="#mf703b7c92b" x="343.436515" y="420.912305" style="stroke: #000000"/>
     <use xlink:href="#mf703b7c92b" x="348.405586" y="110.224478" style="stroke: #000000"/>
     <use xlink:href="#mf703b7c92b" x="353.374658" y="420.912305" style="stroke: #000000"/>
     <use xlink:href="#mf703b7c92b" x="358.504022" y="420.912305" style="stroke: #000000"/>
     <use xlink:href="#mf703b7c92b" x="363.473093" y="110.224478" style="stroke: #000000"/>
     <use xlink:href="#mf703b7c92b" x="368.442164" y="420.912305" style="stroke: #000000"/>
     <use xlink:href="#mf703b7c92b" x="373.411236" y="110.224478" style="stroke: #000000"/>
     <use xlink:href="#mf703b7c92b" x="378.5406" y="420.912305" style="stroke: #000000"/>
     <use xlink:href="#mf703b7c92b" x="383.509671" y="420.912305" style="stroke: #000000"/>
     <use xlink:href="#mf703b7c92b" x="388.478743" y="110.224478" style="stroke: #000000"/>
     <use xlink:href="#mf703b7c92b" x="393.447814" y="420.912305" style="stroke: #000000"/>
     <use xlink:href="#mf703b7c92b" x="398.577178" y="420.912305" style="stroke: #000000"/>
     <use xlink:href="#mf703b7c92b" x="403.546249" y="110.224478" style="stroke: #000000"/>
     <use xlink:href="#mf703b7c92b" x="408.515321" y="420.912305" style="stroke: #000000"/>
     <use xlink:href="#mf703b7c92b" x="413.484392" y="110.224478" style="stroke: #000000"/>
     <use xlink:href="#mf703b7c92b" x="418.613756" y="420.912305" style="stroke: #000000"/>
     <use xlink:href="#mf703b7c92b" x="423.582827" y="420.912305" style="stroke: #000000"/>
     <use xlink:href="#mf703b7c92b" x="428.551899" y="110.224478" style="stroke: #000000"/>
     <use xlink:href="#mf703b7c92b" x="433.52097" y="420.912305" style="stroke: #000000"/>
     <use xlink:href="#mf703b7c92b" x="438.650334" y="420.912305" style="stroke: #000000"/>
     <use xlink:href="#mf703b7c92b" x="443.619406" y="110.224478" style="stroke: #000000"/>
     <use xlink:href="#mf703b7c92b" x="448.588477" y="420.912305" style="stroke: #000000"/>
     <use xlink:href="#mf703b7c92b" x="453.557548" y="110.224478" style="stroke: #000000"/>
     <use xlink:href="#mf703b7c92b" x="458.686912" y="420.912305" style="stroke: #000000"/>
     <use xlink:href="#mf703b7c92b" x="463.655984" y="420.912305" style="stroke: #000000"/>
     <use xlink:href="#mf703b7c92b" x="468.625055" y="110.224478" style="stroke: #000000"/>
     <use xlink:href="#mf703b7c92b" x="473.594126" y="420.912305" style="stroke: #000000"/>
     <use xlink:href="#mf703b7c92b" x="478.72349" y="420.912305" style="stroke: #000000"/>
     <use xlink:href="#mf703b7c92b" x="483.692562" y="110.224478" style="stroke: #000000"/>
     <use xlink:href="#mf703b7c92b" x="488.661633" y="420.912305" style="stroke: #000000"/>
     <use xlink:href="#mf703b7c92b" x="493.630705" y="110.224478" style="stroke: #000000"/>
     <use xlink:href="#mf703b7c92b" x="498.760069" y="420.912305" style="stroke: #000000"/>
     <use xlink:href="#mf703b7c92b" x="503.72914" y="420.912305" style="stroke: #000000"/>
     <use xlink:href="#mf703b7c92b" x="508.698211" y="110.224478" style="stroke: #000000"/>
     <use xlink:href="#mf703b7c92b" x="513.667283" y="420.912305" style="stroke: #000000"/>
     <use xlink:href="#mf703b7c92b" x="518.796647" y="420.912305" style="stroke: #000000"/>
     <use xlink:href="#mf703b7c92b" x="523.765718" y="110.224478" style="stroke: #000000"/>
     <use xlink:href="#mf703b7c92b" x="528.734789" y="420.912305" style="stroke: #000000"/>
     <use xlink:href="#mf703b7c92b" x="533.703861" y="110.224478" style="stroke: #000000"/>
     <use xlink:href="#mf703b7c92b" x="538.833225" y="420.912305" style="stroke: #000000"/>
     <use xlink:href="#mf703b7c92b" x="543.802296" y="420.912305" style="stroke: #000000"/>
     <use xlink:href="#mf703b7c92b" x="548.771368" y="110.224478" style="stroke: #000000"/>
     <use xlink:href="#mf703b7c92b" x="553.740439" y="420.912305" style="stroke: #000000"/>
     <use xlink:href="#mf703b7c92b" x="558.869803" y="420.912305" style="stroke: #000000"/>
     <use xlink:href="#mf703b7c92b" x="563.838874" y="110.224478" style="stroke: #000000"/>
     <use xlink:href="#mf703b7c92b" x="568.807946" y="420.912305" style="stroke: #000000"/>
     <use xlink:href="#mf703b7c92b" x="573.777017" y="110.224478" style="stroke: #000000"/>
     <use xlink:href="#mf703b7c92b" x="578.906381" y="420.912305" style="stroke: #000000"/>
     <use xlink:href="#mf703b7c92b" x="583.875452" y="420.912305" style="stroke: #000000"/>
     <use xlink:href="#mf703b7c92b" x="588.844524" y="110.224478" style="stroke: #000000"/>
     <use xlink:href="#mf703b7c92b" x="593.813595" y="420.912305" style="stroke: #000000"/>
     <use xlink:href="#mf703b7c92b" x="598.942959" y="420.912305" style="stroke: #000000"/>
     <use xlink:href="#mf703b7c92b" x="603.912031" y="110.224478" style="stroke: #000000"/>
     <use xlink:href="#mf703b7c92b" x="608.881102" y="420.912305" style="stroke: #000000"/>
     <use xlink:href="#mf703b7c92b" x="613.850173" y="110.224478" style="stroke: #000000"/>
     <use xlink:href="#mf703b7c92b" x="618.979537" y="420.912305" style="stroke: #000000"/>
     <use xlink:href="#mf703b7c92b" x="623.948609" y="420.912305" style="stroke: #000000"/>
     <use xlink:href="#mf703b7c92b" x="628.91768" y="110.224478" style="stroke: #000000"/>
     <use xlink:href="#mf703b7c92b" x="633.886751" y="420.912305" style="stroke: #000000"/>
     <use xlink:href="#mf703b7c92b" x="639.016115" y="420.912305" style="stroke: #000000"/>
     <use xlink:href="#mf703b7c92b" x="643.985187" y="110.224478" style="stroke: #000000"/>
     <use xlink:href="#mf703b7c92b" x="648.954258" y="420.912305" style="stroke: #000000"/>
     <use xlink:href="#mf703b7c92b" x="653.92333" y="110.224478" style="stroke: #000000"/>
     <use xlink:href="#mf703b7c92b" x="659.052694" y="420.912305" style="stroke: #000000"/>
     <use xlink:href="#mf703b7c92b" x="664.021765" y="420.912305" style="stroke: #000000"/>
     <use xlink:href="#mf703b7c92b" x="668.990836" y="110.224478" style="stroke: #000000"/>
     <use xlink:href="#mf703b7c92b" x="673.959908" y="420.912305" style="stroke: #000000"/>
     <use xlink:href="#mf703b7c92b" x="679.089272" y="420.912305" style="stroke: #000000"/>
     <use xlink:href="#mf703b7c92b" x="684.058343" y="110.224478" style="stroke: #000000"/>
     <use xlink:href="#mf703b7c92b" x="689.027414" y="420.912305" style="stroke: #000000"/>
     <use xlink:href="#mf703b7c92b" x="693.996486" y="110.224478" style="stroke: #000000"/>
     <use xlink:href="#mf703b7c92b" x="699.12585" y="420.912305" style="stroke: #000000"/>
     <use xlink:href="#mf703b7c92b" x="704.094921" y="420.912305" style="stroke: #000000"/>
     <use xlink:href="#mf703b7c92b" x="709.063993" y="110.224478" style="stroke: #000000"/>
     <use xlink:href="#mf703b7c92b" x="714.033064" y="420.912305" style="stroke: #000000"/>
     <use xlink:href="#mf703b7c92b" x="719.162428" y="420.912305" style="stroke: #000000"/>
     <use xlink:href="#mf703b7c92b" x="724.131499" y="110.224478" style="stroke: #000000"/>
     <use xlink:href="#mf703b7c92b" x="729.100571" y="420.912305" style="stroke: #000000"/>
     <use xlink:href="#mf703b7c92b" x="734.069642" y="110.224478" style="stroke: #000000"/>
     <use xlink:href="#mf703b7c92b" x="739.199006" y="420.912305" style="stroke: #000000"/>
     <use xlink:href="#mf703b7c92b" x="744.168077" y="420.912305" style="stroke: #000000"/>
     <use xlink:href="#mf703b7c92b" x="749.137149" y="110.224478" style="stroke: #000000"/>
     <use xlink:href="#mf703b7c92b" x="754.10622" y="420.912305" style="stroke: #000000"/>
     <use xlink:href="#mf703b7c92b" x="759.235584" y="420.912305" style="stroke: #000000"/>
     <use xlink:href="#mf703b7c92b" x="764.204656" y="110.224478" style="stroke: #000000"/>
     <use xlink:href="#mf703b7c92b" x="769.173727" y="420.912305" style="stroke: #000000"/>
     <use xlink:href="#mf703b7c92b" x="774.142798" y="110.224478" style="stroke: #000000"/>
     <use xlink:href="#mf703b7c92b" x="779.272162" y="420.912305" style="stroke: #000000"/>
     <use xlink:href="#mf703b7c92b" x="784.241234" y="420.912305" style="stroke: #000000"/>
     <use xlink:href="#mf703b7c92b" x="789.210305" y="110.224478" style="stroke: #000000"/>
     <use xlink:href="#mf703b7c92b" x="794.179376" y="420.912305" style="stroke: #000000"/>
     <use xlink:href="#mf703b7c92b" x="799.30874" y="420.912305" style="stroke: #000000"/>
     <use xlink:href="#mf703b7c92b" x="804.277812" y="110.224478" style="stroke: #000000"/>
     <use xlink:href="#mf703b7c92b" x="809.246883" y="420.912305" style="stroke: #000000"/>
     <use xlink:href="#mf703b7c92b" x="814.215955" y="110.224478" style="stroke: #000000"/>
     <use xlink:href="#mf703b7c92b" x="819.345319" y="420.912305" style="stroke: #000000"/>
     <use xlink:href="#mf703b7c92b" x="824.31439" y="420.912305" style="stroke: #000000"/>
     <use xlink:href="#mf703b7c92b" x="829.283461" y="110.224478" style="stroke: #000000"/>
     <use xlink:href="#mf703b7c92b" x="834.252533" y="420.912305" style="stroke: #000000"/>
     <use xlink:href="#mf703b7c92b" x="839.381897" y="420.912305" style="stroke: #000000"/>
     <use xlink:href="#mf703b7c92b" x="844.350968" y="110.224478" style="stroke: #000000"/>
     <use xlink:href="#mf703b7c92b" x="849.320039" y="420.912305" style="stroke: #000000"/>
     <use xlink:href="#mf703b7c92b" x="854.289111" y="110.224478" style="stroke: #000000"/>
     <use xlink:href="#mf703b7c92b" x="859.418475" y="420.912305" style="stroke: #000000"/>
     <use xlink:href="#mf703b7c92b" x="864.387546" y="420.912305" style="stroke: #000000"/>
     <use xlink:href="#mf703b7c92b" x="869.356618" y="110.224478" style="stroke: #000000"/>
     <use xlink:href="#mf703b7c92b" x="874.325689" y="420.912305" style="stroke: #000000"/>
     <use xlink:href="#mf703b7c92b" x="879.455053" y="420.912305" style="stroke: #000000"/>
     <use xlink:href="#mf703b7c92b" x="884.424124" y="110.224478" style="stroke: #000000"/>
     <use xlink:href="#mf703b7c92b" x="889.393196" y="420.912305" style="stroke: #000000"/>
     <use xlink:href="#mf703b7c92b" x="894.362267" y="110.224478" style="stroke: #000000"/>
     <use xlink:href="#mf703b7c92b" x="899.491631" y="420.912305" style="stroke: #000000"/>
     <use xlink:href="#mf703b7c92b" x="904.460702" y="420.912305" style="stroke: #000000"/>
     <use xlink:href="#mf703b7c92b" x="909.429774" y="110.224478" style="stroke: #000000"/>
     <use xlink:href="#mf703b7c92b" x="914.398845" y="420.912305" style="stroke: #000000"/>
     <use xlink:href="#mf703b7c92b" x="919.528209" y="420.912305" style="stroke: #000000"/>
     <use xlink:href="#mf703b7c92b" x="924.497281" y="110.224478" style="stroke: #000000"/>
     <use xlink:href="#mf703b7c92b" x="929.466352" y="420.912305" style="stroke: #000000"/>
    </g>
   </g>
   <g id="patch_3">
    <path d="M 135 448.56 
L 135 60.48 
" style="fill: none; stroke: #000000; stroke-width: 0.8; stroke-linejoin: miter; stroke-linecap: square"/>
   </g>
   <g id="patch_4">
    <path d="M 972 448.56 
L 972 60.48 
" style="fill: none; stroke: #000000; stroke-width: 0.8; stroke-linejoin: miter; stroke-linecap: square"/>
   </g>
   <g id="patch_5">
    <path d="M 135 448.56 
L 972 448.56 
" style="fill: none; stroke: #000000; stroke-width: 0.8; stroke-linejoin: miter; stroke-linecap: square"/>
   </g>
   <g id="patch_6">
    <path d="M 135 60.48 
L 972 60.48 
" style="fill: none; stroke: #000000; stroke-width: 0.8; stroke-linejoin: miter; stroke-linecap: square"/>
   </g>
   <g id="legend_1">
    <g id="patch_7">
     <path d="M 895.915625 278.315313 
L 965 278.315313 
Q 967 278.315313 967 276.315313 
L 967 232.724688 
Q 967 230.724688 965 230.724688 
L 895.915625 230.724688 
Q 893.915625 230.724688 893.915625 232.724688 
L 893.915625 276.315313 
Q 893.915625 278.315313 895.915625 278.315313 
z
" style="fill: #ffffff; opacity: 0.8; stroke: #cccccc; stroke-linejoin: miter"/>
    </g>
    <g id="line2d_15">
     <path d="M 897.915625 238.823125 
L 907.915625 238.823125 
L 917.915625 238.823125 
" style="fill: none; stroke: #1f77b4; stroke-width: 1.5; stroke-linecap: square"/>
    </g>
    <g id="text_13">
     <!-- nw_0 -->
     <g transform="translate(925.915625 242.323125) scale(0.1 -0.1)">
      <defs>
       <path id="DejaVuSans-6e" d="M 3513 2113 
L 3513 0 
L 2938 0 
L 2938 2094 
Q 2938 2591 2744 2837 
Q 2550 3084 2163 3084 
Q 1697 3084 1428 2787 
Q 1159 2491 1159 1978 
L 1159 0 
L 581 0 
L 581 3500 
L 1159 3500 
L 1159 2956 
Q 1366 3272 1645 3428 
Q 1925 3584 2291 3584 
Q 2894 3584 3203 3211 
Q 3513 2838 3513 2113 
z
" transform="scale(0.015625)"/>
       <path id="DejaVuSans-77" d="M 269 3500 
L 844 3500 
L 1563 769 
L 2278 3500 
L 2956 3500 
L 3675 769 
L 4391 3500 
L 4966 3500 
L 4050 0 
L 3372 0 
L 2619 2869 
L 1863 0 
L 1184 0 
L 269 3500 
z
" transform="scale(0.015625)"/>
       <path id="DejaVuSans-5f" d="M 3263 -1063 
L 3263 -1509 
L -63 -1509 
L -63 -1063 
L 3263 -1063 
z
" transform="scale(0.015625)"/>
      </defs>
      <use xlink:href="#DejaVuSans-6e"/>
      <use xlink:href="#DejaVuSans-77" x="63.378906"/>
      <use xlink:href="#DejaVuSans-5f" x="145.166016"/>
      <use xlink:href="#DejaVuSans-30" x="195.166016"/>
     </g>
    </g>
    <g id="line2d_16">
     <path d="M 897.915625 253.779375 
L 907.915625 253.779375 
L 917.915625 253.779375 
" style="fill: none; stroke: #ff7f0e; stroke-width: 1.5; stroke-linecap: square"/>
    </g>
    <g id="text_14">
     <!-- input_0 -->
     <g transform="translate(925.915625 257.279375) scale(0.1 -0.1)">
      <defs>
       <path id="DejaVuSans-69" d="M 603 3500 
L 1178 3500 
L 1178 0 
L 603 0 
L 603 3500 
z
M 603 4863 
L 1178 4863 
L 1178 4134 
L 603 4134 
L 603 4863 
z
" transform="scale(0.015625)"/>
       <path id="DejaVuSans-70" d="M 1159 525 
L 1159 -1331 
L 581 -1331 
L 581 3500 
L 1159 3500 
L 1159 2969 
Q 1341 3281 1617 3432 
Q 1894 3584 2278 3584 
Q 2916 3584 3314 3078 
Q 3713 2572 3713 1747 
Q 3713 922 3314 415 
Q 2916 -91 2278 -91 
Q 1894 -91 1617 61 
Q 1341 213 1159 525 
z
M 3116 1747 
Q 3116 2381 2855 2742 
Q 2594 3103 2138 3103 
Q 1681 3103 1420 2742 
Q 1159 2381 1159 1747 
Q 1159 1113 1420 752 
Q 1681 391 2138 391 
Q 2594 391 2855 752 
Q 3116 1113 3116 1747 
z
" transform="scale(0.015625)"/>
       <path id="DejaVuSans-75" d="M 544 1381 
L 544 3500 
L 1119 3500 
L 1119 1403 
Q 1119 906 1312 657 
Q 1506 409 1894 409 
Q 2359 409 2629 706 
Q 2900 1003 2900 1516 
L 2900 3500 
L 3475 3500 
L 3475 0 
L 2900 0 
L 2900 538 
Q 2691 219 2414 64 
Q 2138 -91 1772 -91 
Q 1169 -91 856 284 
Q 544 659 544 1381 
z
M 1991 3584 
L 1991 3584 
z
" transform="scale(0.015625)"/>
      </defs>
      <use xlink:href="#DejaVuSans-69"/>
      <use xlink:href="#DejaVuSans-6e" x="27.783203"/>
      <use xlink:href="#DejaVuSans-70" x="91.162109"/>
      <use xlink:href="#DejaVuSans-75" x="154.638672"/>
      <use xlink:href="#DejaVuSans-74" x="218.017578"/>
      <use xlink:href="#DejaVuSans-5f" x="257.226562"/>
      <use xlink:href="#DejaVuSans-30" x="307.226562"/>
     </g>
    </g>
    <g id="line2d_17">
     <path d="M 897.915625 268.735625 
L 907.915625 268.735625 
L 917.915625 268.735625 
" style="fill: none; stroke: #000000; stroke-width: 1.5; stroke-linecap: square"/>
     <g>
      <use xlink:href="#mf703b7c92b" x="907.915625" y="268.735625" style="stroke: #000000"/>
     </g>
    </g>
    <g id="text_15">
     <!-- target -->
     <g transform="translate(925.915625 272.235625) scale(0.1 -0.1)">
      <defs>
       <path id="DejaVuSans-61" d="M 2194 1759 
Q 1497 1759 1228 1600 
Q 959 1441 959 1056 
Q 959 750 1161 570 
Q 1363 391 1709 391 
Q 2188 391 2477 730 
Q 2766 1069 2766 1631 
L 2766 1759 
L 2194 1759 
z
M 3341 1997 
L 3341 0 
L 2766 0 
L 2766 531 
Q 2569 213 2275 61 
Q 1981 -91 1556 -91 
Q 1019 -91 701 211 
Q 384 513 384 1019 
Q 384 1609 779 1909 
Q 1175 2209 1959 2209 
L 2766 2209 
L 2766 2266 
Q 2766 2663 2505 2880 
Q 2244 3097 1772 3097 
Q 1472 3097 1187 3025 
Q 903 2953 641 2809 
L 641 3341 
Q 956 3463 1253 3523 
Q 1550 3584 1831 3584 
Q 2591 3584 2966 3190 
Q 3341 2797 3341 1997 
z
" transform="scale(0.015625)"/>
       <path id="DejaVuSans-72" d="M 2631 2963 
Q 2534 3019 2420 3045 
Q 2306 3072 2169 3072 
Q 1681 3072 1420 2755 
Q 1159 2438 1159 1844 
L 1159 0 
L 581 0 
L 581 3500 
L 1159 3500 
L 1159 2956 
Q 1341 3275 1631 3429 
Q 1922 3584 2338 3584 
Q 2397 3584 2469 3576 
Q 2541 3569 2628 3553 
L 2631 2963 
z
" transform="scale(0.015625)"/>
       <path id="DejaVuSans-67" d="M 2906 1791 
Q 2906 2416 2648 2759 
Q 2391 3103 1925 3103 
Q 1463 3103 1205 2759 
Q 947 2416 947 1791 
Q 947 1169 1205 825 
Q 1463 481 1925 481 
Q 2391 481 2648 825 
Q 2906 1169 2906 1791 
z
M 3481 434 
Q 3481 -459 3084 -895 
Q 2688 -1331 1869 -1331 
Q 1566 -1331 1297 -1286 
Q 1028 -1241 775 -1147 
L 775 -588 
Q 1028 -725 1275 -790 
Q 1522 -856 1778 -856 
Q 2344 -856 2625 -561 
Q 2906 -266 2906 331 
L 2906 616 
Q 2728 306 2450 153 
Q 2172 0 1784 0 
Q 1141 0 747 490 
Q 353 981 353 1791 
Q 353 2603 747 3093 
Q 1141 3584 1784 3584 
Q 2172 3584 2450 3431 
Q 2728 3278 2906 2969 
L 2906 3500 
L 3481 3500 
L 3481 434 
z
" transform="scale(0.015625)"/>
       <path id="DejaVuSans-65" d="M 3597 1894 
L 3597 1613 
L 953 1613 
Q 991 1019 1311 708 
Q 1631 397 2203 397 
Q 2534 397 2845 478 
Q 3156 559 3463 722 
L 3463 178 
Q 3153 47 2828 -22 
Q 2503 -91 2169 -91 
Q 1331 -91 842 396 
Q 353 884 353 1716 
Q 353 2575 817 3079 
Q 1281 3584 2069 3584 
Q 2775 3584 3186 3129 
Q 3597 2675 3597 1894 
z
M 3022 2063 
Q 3016 2534 2758 2815 
Q 2500 3097 2075 3097 
Q 1594 3097 1305 2825 
Q 1016 2553 972 2059 
L 3022 2063 
z
" transform="scale(0.015625)"/>
      </defs>
      <use xlink:href="#DejaVuSans-74"/>
      <use xlink:href="#DejaVuSans-61" x="39.208984"/>
      <use xlink:href="#DejaVuSans-72" x="100.488281"/>
      <use xlink:href="#DejaVuSans-67" x="139.851562"/>
      <use xlink:href="#DejaVuSans-65" x="203.328125"/>
      <use xlink:href="#DejaVuSans-74" x="264.851562"/>
     </g>
    </g>
   </g>
  </g>
 </g>
 <defs>
  <clipPath id="p511fdca6fc">
   <rect x="135" y="60.48" width="837" height="388.08"/>
  </clipPath>
 </defs>
</svg>
