<?xml version="1.0" encoding="utf-8" standalone="no"?>
<!DOCTYPE svg PUBLIC "-//W3C//DTD SVG 1.1//EN"
  "http://www.w3.org/Graphics/SVG/1.1/DTD/svg11.dtd">
<svg xmlns:xlink="http://www.w3.org/1999/xlink" width="1080pt" height="504pt" viewBox="0 0 1080 504" xmlns="http://www.w3.org/2000/svg" version="1.1">
 <metadata>
  <rdf:RDF xmlns:dc="http://purl.org/dc/elements/1.1/" xmlns:cc="http://creativecommons.org/ns#" xmlns:rdf="http://www.w3.org/1999/02/22-rdf-syntax-ns#">
   <cc:Work>
    <dc:type rdf:resource="http://purl.org/dc/dcmitype/StillImage"/>
    <dc:date>2024-05-09T10:58:59.100283</dc:date>
    <dc:format>image/svg+xml</dc:format>
    <dc:creator>
     <cc:Agent>
      <dc:title>Matplotlib v3.7.1, https://matplotlib.org/</dc:title>
     </cc:Agent>
    </dc:creator>
   </cc:Work>
  </rdf:RDF>
 </metadata>
 <defs>
  <style type="text/css">*{stroke-linejoin: round; stroke-linecap: butt}</style>
 </defs>
 <g id="figure_1">
  <g id="patch_1">
   <path d="M 0 504 
L 1080 504 
L 1080 0 
L 0 0 
z
" style="fill: #ffffff"/>
  </g>
  <g id="axes_1">
   <g id="patch_2">
    <path d="M 135 448.56 
L 972 448.56 
L 972 60.48 
L 135 60.48 
z
" style="fill: #ffffff"/>
   </g>
   <g id="matplotlib.axis_1">
    <g id="xtick_1">
     <g id="line2d_1">
      <defs>
       <path id="md637e204d3" d="M 0 0 
L 0 3.5 
" style="stroke: #000000; stroke-width: 0.8"/>
      </defs>
      <g>
       <use xlink:href="#md637e204d3" x="173.045455" y="448.56" style="stroke: #000000; stroke-width: 0.8"/>
      </g>
     </g>
     <g id="text_1">
      <!-- 0 -->
      <g transform="translate(169.864205 463.158437) scale(0.1 -0.1)">
       <defs>
        <path id="DejaVuSans-30" d="M 2034 4250 
Q 1547 4250 1301 3770 
Q 1056 3291 1056 2328 
Q 1056 1369 1301 889 
Q 1547 409 2034 409 
Q 2525 409 2770 889 
Q 3016 1369 3016 2328 
Q 3016 3291 2770 3770 
Q 2525 4250 2034 4250 
z
M 2034 4750 
Q 2819 4750 3233 4129 
Q 3647 3509 3647 2328 
Q 3647 1150 3233 529 
Q 2819 -91 2034 -91 
Q 1250 -91 836 529 
Q 422 1150 422 2328 
Q 422 3509 836 4129 
Q 1250 4750 2034 4750 
z
" transform="scale(0.015625)"/>
       </defs>
       <use xlink:href="#DejaVuSans-30"/>
      </g>
     </g>
    </g>
    <g id="xtick_2">
     <g id="line2d_2">
      <g>
       <use xlink:href="#md637e204d3" x="333.33808" y="448.56" style="stroke: #000000; stroke-width: 0.8"/>
      </g>
     </g>
     <g id="text_2">
      <!-- 1000 -->
      <g transform="translate(320.61308 463.158437) scale(0.1 -0.1)">
       <defs>
        <path id="DejaVuSans-31" d="M 794 531 
L 1825 531 
L 1825 4091 
L 703 3866 
L 703 4441 
L 1819 4666 
L 2450 4666 
L 2450 531 
L 3481 531 
L 3481 0 
L 794 0 
L 794 531 
z
" transform="scale(0.015625)"/>
       </defs>
       <use xlink:href="#DejaVuSans-31"/>
       <use xlink:href="#DejaVuSans-30" x="63.623047"/>
       <use xlink:href="#DejaVuSans-30" x="127.246094"/>
       <use xlink:href="#DejaVuSans-30" x="190.869141"/>
      </g>
     </g>
    </g>
    <g id="xtick_3">
     <g id="line2d_3">
      <g>
       <use xlink:href="#md637e204d3" x="493.630705" y="448.56" style="stroke: #000000; stroke-width: 0.8"/>
      </g>
     </g>
     <g id="text_3">
      <!-- 2000 -->
      <g transform="translate(480.905705 463.158437) scale(0.1 -0.1)">
       <defs>
        <path id="DejaVuSans-32" d="M 1228 531 
L 3431 531 
L 3431 0 
L 469 0 
L 469 531 
Q 828 903 1448 1529 
Q 2069 2156 2228 2338 
Q 2531 2678 2651 2914 
Q 2772 3150 2772 3378 
Q 2772 3750 2511 3984 
Q 2250 4219 1831 4219 
Q 1534 4219 1204 4116 
Q 875 4013 500 3803 
L 500 4441 
Q 881 4594 1212 4672 
Q 1544 4750 1819 4750 
Q 2544 4750 2975 4387 
Q 3406 4025 3406 3419 
Q 3406 3131 3298 2873 
Q 3191 2616 2906 2266 
Q 2828 2175 2409 1742 
Q 1991 1309 1228 531 
z
" transform="scale(0.015625)"/>
       </defs>
       <use xlink:href="#DejaVuSans-32"/>
       <use xlink:href="#DejaVuSans-30" x="63.623047"/>
       <use xlink:href="#DejaVuSans-30" x="127.246094"/>
       <use xlink:href="#DejaVuSans-30" x="190.869141"/>
      </g>
     </g>
    </g>
    <g id="xtick_4">
     <g id="line2d_4">
      <g>
       <use xlink:href="#md637e204d3" x="653.92333" y="448.56" style="stroke: #000000; stroke-width: 0.8"/>
      </g>
     </g>
     <g id="text_4">
      <!-- 3000 -->
      <g transform="translate(641.19833 463.158437) scale(0.1 -0.1)">
       <defs>
        <path id="DejaVuSans-33" d="M 2597 2516 
Q 3050 2419 3304 2112 
Q 3559 1806 3559 1356 
Q 3559 666 3084 287 
Q 2609 -91 1734 -91 
Q 1441 -91 1130 -33 
Q 819 25 488 141 
L 488 750 
Q 750 597 1062 519 
Q 1375 441 1716 441 
Q 2309 441 2620 675 
Q 2931 909 2931 1356 
Q 2931 1769 2642 2001 
Q 2353 2234 1838 2234 
L 1294 2234 
L 1294 2753 
L 1863 2753 
Q 2328 2753 2575 2939 
Q 2822 3125 2822 3475 
Q 2822 3834 2567 4026 
Q 2313 4219 1838 4219 
Q 1578 4219 1281 4162 
Q 984 4106 628 3988 
L 628 4550 
Q 988 4650 1302 4700 
Q 1616 4750 1894 4750 
Q 2613 4750 3031 4423 
Q 3450 4097 3450 3541 
Q 3450 3153 3228 2886 
Q 3006 2619 2597 2516 
z
" transform="scale(0.015625)"/>
       </defs>
       <use xlink:href="#DejaVuSans-33"/>
       <use xlink:href="#DejaVuSans-30" x="63.623047"/>
       <use xlink:href="#DejaVuSans-30" x="127.246094"/>
       <use xlink:href="#DejaVuSans-30" x="190.869141"/>
      </g>
     </g>
    </g>
    <g id="xtick_5">
     <g id="line2d_5">
      <g>
       <use xlink:href="#md637e204d3" x="814.215955" y="448.56" style="stroke: #000000; stroke-width: 0.8"/>
      </g>
     </g>
     <g id="text_5">
      <!-- 4000 -->
      <g transform="translate(801.490955 463.158437) scale(0.1 -0.1)">
       <defs>
        <path id="DejaVuSans-34" d="M 2419 4116 
L 825 1625 
L 2419 1625 
L 2419 4116 
z
M 2253 4666 
L 3047 4666 
L 3047 1625 
L 3713 1625 
L 3713 1100 
L 3047 1100 
L 3047 0 
L 2419 0 
L 2419 1100 
L 313 1100 
L 313 1709 
L 2253 4666 
z
" transform="scale(0.015625)"/>
       </defs>
       <use xlink:href="#DejaVuSans-34"/>
       <use xlink:href="#DejaVuSans-30" x="63.623047"/>
       <use xlink:href="#DejaVuSans-30" x="127.246094"/>
       <use xlink:href="#DejaVuSans-30" x="190.869141"/>
      </g>
     </g>
    </g>
    <g id="text_6">
     <!-- t -->
     <g transform="translate(551.539844 476.836563) scale(0.1 -0.1)">
      <defs>
       <path id="DejaVuSans-74" d="M 1172 4494 
L 1172 3500 
L 2356 3500 
L 2356 3053 
L 1172 3053 
L 1172 1153 
Q 1172 725 1289 603 
Q 1406 481 1766 481 
L 2356 481 
L 2356 0 
L 1766 0 
Q 1100 0 847 248 
Q 594 497 594 1153 
L 594 3053 
L 172 3053 
L 172 3500 
L 594 3500 
L 594 4494 
L 1172 4494 
z
" transform="scale(0.015625)"/>
      </defs>
      <use xlink:href="#DejaVuSans-74"/>
     </g>
    </g>
   </g>
   <g id="matplotlib.axis_2">
    <g id="ytick_1">
     <g id="line2d_6">
      <defs>
       <path id="m0d9a8ddc4b" d="M 0 0 
L -3.5 0 
" style="stroke: #000000; stroke-width: 0.8"/>
      </defs>
      <g>
       <use xlink:href="#m0d9a8ddc4b" x="135" y="411.085973" style="stroke: #000000; stroke-width: 0.8"/>
      </g>
     </g>
     <g id="text_7">
      <!-- 0.0 -->
      <g transform="translate(112.096875 414.885191) scale(0.1 -0.1)">
       <defs>
        <path id="DejaVuSans-2e" d="M 684 794 
L 1344 794 
L 1344 0 
L 684 0 
L 684 794 
z
" transform="scale(0.015625)"/>
       </defs>
       <use xlink:href="#DejaVuSans-30"/>
       <use xlink:href="#DejaVuSans-2e" x="63.623047"/>
       <use xlink:href="#DejaVuSans-30" x="95.410156"/>
      </g>
     </g>
    </g>
    <g id="ytick_2">
     <g id="line2d_7">
      <g>
       <use xlink:href="#m0d9a8ddc4b" x="135" y="366.942032" style="stroke: #000000; stroke-width: 0.8"/>
      </g>
     </g>
     <g id="text_8">
      <!-- 0.5 -->
      <g transform="translate(112.096875 370.741251) scale(0.1 -0.1)">
       <defs>
        <path id="DejaVuSans-35" d="M 691 4666 
L 3169 4666 
L 3169 4134 
L 1269 4134 
L 1269 2991 
Q 1406 3038 1543 3061 
Q 1681 3084 1819 3084 
Q 2600 3084 3056 2656 
Q 3513 2228 3513 1497 
Q 3513 744 3044 326 
Q 2575 -91 1722 -91 
Q 1428 -91 1123 -41 
Q 819 9 494 109 
L 494 744 
Q 775 591 1075 516 
Q 1375 441 1709 441 
Q 2250 441 2565 725 
Q 2881 1009 2881 1497 
Q 2881 1984 2565 2268 
Q 2250 2553 1709 2553 
Q 1456 2553 1204 2497 
Q 953 2441 691 2322 
L 691 4666 
z
" transform="scale(0.015625)"/>
       </defs>
       <use xlink:href="#DejaVuSans-30"/>
       <use xlink:href="#DejaVuSans-2e" x="63.623047"/>
       <use xlink:href="#DejaVuSans-35" x="95.410156"/>
      </g>
     </g>
    </g>
    <g id="ytick_3">
     <g id="line2d_8">
      <g>
       <use xlink:href="#m0d9a8ddc4b" x="135" y="322.798092" style="stroke: #000000; stroke-width: 0.8"/>
      </g>
     </g>
     <g id="text_9">
      <!-- 1.0 -->
      <g transform="translate(112.096875 326.597311) scale(0.1 -0.1)">
       <use xlink:href="#DejaVuSans-31"/>
       <use xlink:href="#DejaVuSans-2e" x="63.623047"/>
       <use xlink:href="#DejaVuSans-30" x="95.410156"/>
      </g>
     </g>
    </g>
    <g id="ytick_4">
     <g id="line2d_9">
      <g>
       <use xlink:href="#m0d9a8ddc4b" x="135" y="278.654152" style="stroke: #000000; stroke-width: 0.8"/>
      </g>
     </g>
     <g id="text_10">
      <!-- 1.5 -->
      <g transform="translate(112.096875 282.453371) scale(0.1 -0.1)">
       <use xlink:href="#DejaVuSans-31"/>
       <use xlink:href="#DejaVuSans-2e" x="63.623047"/>
       <use xlink:href="#DejaVuSans-35" x="95.410156"/>
      </g>
     </g>
    </g>
    <g id="ytick_5">
     <g id="line2d_10">
      <g>
       <use xlink:href="#m0d9a8ddc4b" x="135" y="234.510212" style="stroke: #000000; stroke-width: 0.8"/>
      </g>
     </g>
     <g id="text_11">
      <!-- 2.0 -->
      <g transform="translate(112.096875 238.309431) scale(0.1 -0.1)">
       <use xlink:href="#DejaVuSans-32"/>
       <use xlink:href="#DejaVuSans-2e" x="63.623047"/>
       <use xlink:href="#DejaVuSans-30" x="95.410156"/>
      </g>
     </g>
    </g>
    <g id="ytick_6">
     <g id="line2d_11">
      <g>
       <use xlink:href="#m0d9a8ddc4b" x="135" y="190.366272" style="stroke: #000000; stroke-width: 0.8"/>
      </g>
     </g>
     <g id="text_12">
      <!-- 2.5 -->
      <g transform="translate(112.096875 194.16549) scale(0.1 -0.1)">
       <use xlink:href="#DejaVuSans-32"/>
       <use xlink:href="#DejaVuSans-2e" x="63.623047"/>
       <use xlink:href="#DejaVuSans-35" x="95.410156"/>
      </g>
     </g>
    </g>
    <g id="ytick_7">
     <g id="line2d_12">
      <g>
       <use xlink:href="#m0d9a8ddc4b" x="135" y="146.222331" style="stroke: #000000; stroke-width: 0.8"/>
      </g>
     </g>
     <g id="text_13">
      <!-- 3.0 -->
      <g transform="translate(112.096875 150.02155) scale(0.1 -0.1)">
       <use xlink:href="#DejaVuSans-33"/>
       <use xlink:href="#DejaVuSans-2e" x="63.623047"/>
       <use xlink:href="#DejaVuSans-30" x="95.410156"/>
      </g>
     </g>
    </g>
    <g id="ytick_8">
     <g id="line2d_13">
      <g>
       <use xlink:href="#m0d9a8ddc4b" x="135" y="102.078391" style="stroke: #000000; stroke-width: 0.8"/>
      </g>
     </g>
     <g id="text_14">
      <!-- 3.5 -->
      <g transform="translate(112.096875 105.87761) scale(0.1 -0.1)">
       <use xlink:href="#DejaVuSans-33"/>
       <use xlink:href="#DejaVuSans-2e" x="63.623047"/>
       <use xlink:href="#DejaVuSans-35" x="95.410156"/>
      </g>
     </g>
    </g>
   </g>
   <g id="line2d_14">
    <path d="M 173.045455 356.058963 
L 173.36604 317.813987 
L 173.526332 315.400397 
L 173.686625 317.288947 
L 174.648381 338.25656 
L 175.129259 342.825244 
L 175.449844 343.82151 
L 175.610137 343.456394 
L 175.770429 342.249917 
L 176.091014 336.208055 
L 176.4116 323.251117 
L 176.732185 300.981224 
L 177.213063 246.37288 
L 177.693941 164.815003 
L 178.014526 84.6539 
L 178.174819 78.12 
L 178.335111 94.077364 
L 178.815989 212.263991 
L 179.296867 324.529979 
L 179.617452 368.718003 
L 179.938037 391.759626 
L 180.258623 401.283499 
L 180.579208 403.796786 
L 180.739501 403.822849 
L 181.220378 402.618597 
L 181.540964 402.09118 
L 181.701256 402.054114 
L 181.861549 402.168975 
L 182.182134 402.789433 
L 182.663012 404.368553 
L 183.945353 408.943272 
L 184.426231 409.817614 
L 184.746816 409.89917 
L 185.067401 409.479343 
L 185.387987 408.492656 
L 185.868865 405.884307 
L 186.510035 400.416494 
L 187.311498 391.258362 
L 189.395302 366.260869 
L 190.196765 359.443715 
L 190.677643 356.678882 
L 191.158521 355.12874 
L 191.479106 354.85498 
L 191.639399 354.962659 
L 191.959984 355.68875 
L 192.28057 357.114788 
L 192.761447 360.579473 
L 193.402618 367.564993 
L 194.204081 379.457282 
L 196.929056 423.404641 
L 197.409934 427.776737 
L 197.890811 430.312791 
L 198.211397 430.92 
L 198.371689 430.893714 
L 198.531982 430.648606 
L 198.852567 429.513357 
L 199.333445 426.274306 
L 199.974616 419.422043 
L 200.776079 407.78805 
L 203.501053 364.944029 
L 204.142224 358.574407 
L 204.623102 355.387629 
L 205.10398 353.641123 
L 205.424565 353.279643 
L 205.584857 353.335436 
L 205.905443 353.906235 
L 206.226028 355.063926 
L 206.706906 357.816185 
L 207.348076 363.130602 
L 208.149539 371.790187 
L 209.752466 392.288338 
L 211.195099 409.780857 
L 212.156855 419.134009 
L 212.958318 425.063009 
L 213.278903 426.935088 
L 213.599489 347.044994 
L 213.759781 336.407384 
L 213.920074 334.161705 
L 214.080367 336.029747 
L 215.042122 355.574632 
L 215.362708 358.508872 
L 215.683293 359.905077 
L 215.843585 359.938217 
L 216.003878 359.344884 
L 216.164171 357.905621 
L 216.484756 351.369645 
L 216.805341 337.859694 
L 217.125926 314.959819 
L 217.606804 259.243318 
L 218.087682 176.384192 
L 218.408267 94.796754 
L 218.56856 87.822809 
L 218.728853 103.45405 
L 219.209731 220.982966 
L 219.690608 332.612339 
L 220.011194 376.255158 
L 220.331779 398.641363 
L 220.652364 407.419623 
L 220.812657 408.839187 
L 220.972949 409.129043 
L 221.133242 408.742202 
L 222.094998 404.581063 
L 222.415583 404.249355 
L 222.736168 404.453816 
L 223.217046 405.391849 
L 224.499387 408.448795 
L 224.819972 408.791971 
L 225.140558 408.772315 
L 225.461143 408.298125 
L 225.781728 407.297245 
L 226.262606 404.728817 
L 226.903777 399.396995 
L 227.865532 388.528399 
L 229.789044 366.118198 
L 230.590507 359.461517 
L 231.071385 356.764922 
L 231.552263 355.263134 
L 231.872848 355.011468 
L 232.033141 355.127399 
L 232.353726 355.864868 
L 232.674311 357.296084 
L 233.155189 360.758626 
L 233.796359 367.726838 
L 234.597823 379.582283 
L 237.322797 423.382832 
L 237.803675 427.735238 
L 238.284553 430.254631 
L 238.605138 430.85244 
L 238.765431 430.821962 
L 238.925723 430.572995 
L 239.246309 429.431 
L 239.727187 426.184144 
L 240.368357 419.325391 
L 241.16982 407.688549 
L 243.894795 364.85973 
L 244.535965 358.49574 
L 245.016843 355.313131 
L 245.497721 353.570631 
L 245.818306 353.211696 
L 245.978599 353.268717 
L 246.299184 353.841882 
L 246.619769 355.001808 
L 247.100647 357.757171 
L 247.741818 363.075274 
L 248.543281 371.738808 
L 250.146207 392.243231 
L 251.588841 409.740407 
L 252.550597 419.096513 
L 253.35206 425.027986 
L 253.99323 428.490765 
L 254.313815 348.092331 
L 254.474108 337.263555 
L 254.634401 334.856059 
L 254.794693 336.585074 
L 255.756449 355.573999 
L 256.077034 358.386021 
L 256.39762 359.680894 
L 256.557912 359.670375 
L 256.718205 359.037756 
L 256.878497 357.563409 
L 257.199083 350.969284 
L 257.519668 337.416342 
L 257.840253 314.487605 
L 258.321131 258.751888 
L 258.802009 175.898763 
L 259.122594 94.402359 
L 259.282887 87.455478 
L 259.443179 103.105676 
L 259.924057 220.66379 
L 260.404935 332.306539 
L 260.72552 375.957331 
L 261.046106 398.352589 
L 261.366691 407.141295 
L 261.526984 408.566573 
L 261.687276 408.862431 
L 261.847569 408.481844 
L 262.809325 404.361849 
L 263.12991 404.044677 
L 263.450495 404.263844 
L 263.931373 405.223964 
L 265.213714 408.336438 
L 265.534299 408.691893 
L 265.854884 408.683602 
L 266.17547 408.219766 
L 266.496055 407.228165 
L 266.976933 404.671583 
L 267.618103 399.3518 
L 268.419566 390.447543 
L 270.503371 366.091712 
L 271.304834 359.436259 
L 271.785712 356.740478 
L 272.266589 355.239685 
L 272.587175 354.988806 
L 272.747467 355.105171 
L 273.068053 355.843586 
L 273.388638 357.27585 
L 273.869516 360.740134 
L 274.510686 367.710921 
L 275.312149 379.569816 
L 278.037124 423.381105 
L 278.518002 427.73493 
L 278.99888 430.255557 
L 279.319465 430.854086 
L 279.479758 430.823936 
L 279.64005 430.575276 
L 279.960635 429.433838 
L 280.441513 426.187672 
L 281.082684 419.329588 
L 281.884147 407.693232 
L 284.609122 364.864159 
L 285.250292 358.49989 
L 285.73117 355.317056 
L 286.212048 353.574326 
L 286.532633 353.215238 
L 286.692926 353.272184 
L 287.013511 353.8452 
L 287.334096 355.004981 
L 287.814974 357.760137 
L 288.456145 363.077985 
L 289.257608 371.741236 
L 290.860534 392.245209 
L 292.303168 409.74208 
L 293.264923 419.098018 
L 293.585509 421.683339 
L 293.906094 343.05247 
L 294.066386 332.899826 
L 294.226679 331.074278 
L 294.386972 333.313453 
L 295.348727 354.506642 
L 295.829605 358.935624 
L 296.150191 359.813877 
L 296.310483 359.373031 
L 296.470776 358.074559 
L 296.791361 351.785456 
L 297.111946 338.476924 
L 297.432532 315.734467 
L 297.913409 260.17634 
L 298.394287 177.391125 
L 298.714873 95.584345 
L 298.875165 88.547802 
L 299.035458 104.136901 
L 299.516336 221.608191 
L 299.997214 333.218281 
L 300.317799 376.850437 
L 300.638384 399.223615 
L 300.958969 407.985946 
L 301.119262 409.39656 
L 301.279555 409.676902 
L 301.439847 409.280047 
L 302.401603 405.050744 
L 302.722188 404.693744 
L 303.042773 404.871785 
L 303.523651 405.7684 
L 304.805992 408.711715 
L 305.126578 409.028003 
L 305.447163 408.982927 
L 305.767748 408.48514 
L 306.088333 407.46276 
L 306.569211 404.866385 
L 307.210382 399.505573 
L 308.172137 388.609594 
L 310.095649 366.180854 
L 310.897112 359.521637 
L 311.37799 356.823429 
L 311.858868 355.319626 
L 312.179453 355.066322 
L 312.339746 355.181338 
L 312.660331 355.916779 
L 312.980916 357.34571 
L 313.461794 360.804377 
L 314.102965 367.76673 
L 314.904428 379.614126 
L 317.629402 423.388329 
L 318.11028 427.737068 
L 318.591158 430.253215 
L 318.911743 430.849103 
L 319.072036 430.817736 
L 319.232329 430.567928 
L 319.552914 429.424396 
L 320.033792 426.175586 
L 320.674962 419.314844 
L 321.476425 407.676408 
L 324.2014 364.847298 
L 324.84257 358.483894 
L 325.323448 355.301793 
L 325.804326 353.559834 
L 326.124911 353.201269 
L 326.285204 353.258477 
L 326.605789 353.832013 
L 326.926375 354.992307 
L 327.407252 357.74821 
L 328.048423 363.066998 
L 328.849886 371.73132 
L 330.452812 392.237076 
L 331.895446 409.735213 
L 332.857202 419.091866 
L 333.658665 425.023753 
L 333.818957 425.996055 
L 334.139543 346.341337 
L 334.299835 335.796143 
L 334.460128 333.631638 
L 334.620421 335.572358 
L 335.582176 355.449431 
L 335.902762 358.46799 
L 336.223347 359.93758 
L 336.383639 360.003388 
L 336.543932 359.44006 
L 336.704225 358.028154 
L 337.02481 351.53904 
L 337.345395 338.065727 
L 337.66598 315.192708 
L 338.146858 259.499511 
L 338.627736 176.645686 
L 338.948321 95.015829 
L 339.108614 88.02885 
L 339.268907 103.650506 
L 339.749785 221.161549 
L 340.230662 332.777821 
L 340.551248 376.411346 
L 340.871833 398.7873 
L 341.192418 407.554481 
L 341.352711 408.968287 
L 341.513003 409.252295 
L 341.673296 408.859555 
L 342.635052 404.663712 
L 342.955637 404.321231 
L 343.276222 404.5155 
L 343.7571 405.43947 
L 345.039441 408.466991 
L 345.360026 408.804767 
L 345.680612 408.780508 
L 346.001197 408.302497 
L 346.321782 407.298552 
L 346.80266 404.726853 
L 347.443831 399.392857 
L 348.405586 388.524539 
L 350.329098 366.1205 
L 351.130561 359.466332 
L 351.611439 356.77091 
L 352.092317 355.269993 
L 352.412902 355.018734 
L 352.573195 355.134818 
L 352.89378 355.872491 
L 353.214365 357.303784 
L 353.695243 360.766222 
L 354.336413 367.733946 
L 355.137877 379.588358 
L 357.862851 423.384199 
L 358.343729 427.735853 
L 358.824607 430.254564 
L 359.145192 430.851962 
L 359.305485 430.821292 
L 359.465777 430.572141 
L 359.786363 429.429808 
L 360.267241 426.182514 
L 360.908411 419.323302 
L 361.709874 407.686076 
L 364.434849 364.857083 
L 365.076019 358.493204 
L 365.556897 355.310696 
L 366.037775 353.568307 
L 366.35836 353.209448 
L 366.518653 353.266508 
L 366.839238 353.839751 
L 367.159823 354.999754 
L 367.640701 357.755232 
L 368.281872 363.073482 
L 369.083335 371.737187 
L 370.686261 392.2419 
L 372.128895 409.739285 
L 373.090651 419.09551 
L 373.411236 340.9704 
L 373.571528 331.012515 
L 373.731821 329.356469 
L 373.892114 331.746586 
L 374.853869 353.641075 
L 375.334747 358.347327 
L 375.655333 359.389455 
L 375.815625 359.024206 
L 375.975918 357.797023 
L 376.296503 351.637323 
L 376.617088 338.440336 
L 376.937674 315.79148 
L 377.418551 260.340777 
L 377.899429 177.625642 
L 378.220015 95.734293 
L 378.380307 88.676091 
L 378.5406 104.252574 
L 379.021478 221.717052 
L 379.502356 333.338927 
L 379.822941 376.980963 
L 380.143526 399.363716 
L 380.464111 408.134869 
L 380.624404 409.549567 
L 380.784697 409.833762 
L 380.944989 409.440516 
L 381.906745 405.226466 
L 382.22733 404.871477 
L 382.547915 405.049708 
L 383.028793 405.943105 
L 384.311134 408.860371 
L 384.63172 409.167546 
L 384.952305 409.11293 
L 385.27289 408.605468 
L 385.593475 407.573535 
L 386.074353 404.963517 
L 386.715524 399.58654 
L 387.677279 388.671591 
L 389.440498 367.819676 
L 390.241961 360.690456 
L 390.883132 356.85504 
L 391.36401 355.348555 
L 391.684595 355.093522 
L 391.844888 355.207686 
L 392.165473 355.941437 
L 392.486058 357.368693 
L 392.966936 360.824869 
L 393.608107 367.783941 
L 394.40957 379.627356 
L 397.134544 423.390324 
L 397.615422 427.737609 
L 398.0963 430.252483 
L 398.416885 430.84762 
L 398.577178 430.815908 
L 398.737471 430.565774 
L 399.058056 429.421647 
L 399.538934 426.17208 
L 400.180104 419.310568 
L 400.981567 407.671508 
L 403.706542 364.842224 
L 404.347712 358.479031 
L 404.82859 355.297116 
L 405.309468 353.555358 
L 405.630053 353.196931 
L 405.790346 353.254208 
L 406.110931 353.827885 
L 406.431517 354.988319 
L 406.912394 357.744429 
L 407.553565 363.063484 
L 408.355028 371.728119 
L 409.957954 392.234422 
L 411.400588 409.732967 
L 412.362344 419.089859 
L 413.163807 425.021928 
L 413.644685 427.725298 
L 413.96527 347.569425 
L 414.125563 336.833144 
L 414.285855 334.504863 
L 414.446148 336.302826 
L 415.407904 355.57893 
L 415.728489 358.456729 
L 416.049074 359.806663 
L 416.209367 359.819962 
L 416.369659 359.208799 
L 416.529952 357.753611 
L 416.850537 351.191166 
L 417.171122 337.661466 
L 417.491708 314.748069 
L 417.972586 259.021903 
L 418.453463 176.164305 
L 418.774049 94.623818 
L 418.934341 87.663444 
L 419.094634 103.30384 
L 419.575512 220.844707 
L 420.05639 332.476392 
L 420.376975 376.119689 
L 420.69756 398.506638 
L 421.018145 407.286213 
L 421.178438 408.706674 
L 421.338731 408.997589 
L 421.499023 408.611965 
L 422.460779 404.461256 
L 422.781364 404.134147 
L 423.10195 404.343714 
L 423.582827 405.290234 
L 424.865168 408.372495 
L 425.185754 408.72201 
L 425.506339 408.708477 
L 425.826924 408.240104 
L 426.147509 407.244661 
L 426.628387 404.683566 
L 427.269558 399.359875 
L 428.071021 390.453464 
L 430.154825 366.099195 
L 430.956288 359.444812 
L 431.437166 356.749461 
L 431.918044 355.248887 
L 432.238629 354.998029 
L 432.398922 355.114367 
L 432.719507 355.852655 
L 433.040092 357.2847 
L 433.52097 360.748498 
L 434.162141 367.718392 
L 434.963604 379.5759 
L 437.688578 423.382151 
L 438.169456 427.735253 
L 438.650334 430.255241 
L 438.970919 430.853391 
L 439.131212 430.823067 
L 439.291505 430.574243 
L 439.61209 429.432504 
L 440.092968 426.18596 
L 440.734138 419.327497 
L 441.535601 407.690848 
L 444.260576 364.861803 
L 444.901747 358.497666 
L 445.382624 355.314941 
L 445.863502 353.572326 
L 446.184088 353.213314 
L 446.34438 353.270299 
L 446.664965 353.843391 
L 446.985551 355.003246 
L 447.466429 357.75851 
L 448.107599 363.076493 
L 448.909062 371.739895 
L 450.511988 392.244114 
L 451.954622 409.741155 
L 452.916378 419.097187 
L 453.557548 423.984779 
L 453.878134 344.841669 
L 454.038426 334.492215 
L 454.198719 332.496233 
L 454.359011 334.584748 
L 455.320767 355.101999 
L 455.801645 359.277512 
L 455.961938 359.883231 
L 456.12223 360.01008 
L 456.282523 359.503169 
L 456.442816 358.143129 
L 456.763401 351.744357 
L 457.083986 338.343991 
L 457.404571 315.527198 
L 457.885449 259.888966 
L 458.366327 177.058356 
L 458.686912 95.339194 
L 458.847205 88.326617 
L 459.007498 103.930997 
L 459.488375 221.418482 
L 459.969253 333.027369 
L 460.289839 376.657123 
L 460.610424 399.028461 
L 460.931009 407.789887 
L 461.091302 409.200409 
L 461.251594 409.480892 
L 461.411887 409.084406 
L 462.373643 404.862289 
L 462.694228 404.509787 
L 463.014813 404.693474 
L 463.495691 405.600674 
L 464.778032 408.581433 
L 465.098617 408.908018 
L 465.419203 408.873129 
L 465.739788 408.385203 
L 466.060373 407.372174 
L 466.541251 404.788569 
L 467.182421 399.44203 
L 468.144177 388.561443 
L 470.067689 366.147894 
L 470.869152 359.492062 
L 471.35003 356.795664 
L 471.830908 355.293653 
L 472.151493 355.041568 
L 472.311785 355.157207 
L 472.632371 355.893922 
L 472.952956 357.32417 
L 473.433834 360.784889 
L 474.075004 367.750088 
L 474.876467 379.601119 
L 477.601442 423.38626 
L 478.08232 427.736458 
L 478.563198 430.253889 
L 478.883783 430.850532 
L 479.044076 430.819515 
L 479.204368 430.570036 
L 479.524954 429.427105 
L 480.005831 426.179057 
L 480.647002 419.319087 
L 481.448465 407.681267 
L 484.17344 364.85226 
L 484.81461 358.488627 
L 485.295488 355.306328 
L 485.776366 353.564158 
L 486.096951 353.205449 
L 486.257244 353.262584 
L 486.577829 353.835975 
L 486.898414 354.996124 
L 487.379292 357.751815 
L 488.020463 363.070334 
L 488.821926 371.734345 
L 490.424852 392.23957 
L 491.867486 409.737318 
L 492.829241 419.093749 
L 493.630705 425.025467 
L 493.95129 345.625485 
L 494.111582 335.17771 
L 494.271875 333.097007 
L 494.432168 335.11113 
L 495.393923 355.304103 
L 495.874801 359.363165 
L 496.035094 359.935005 
L 496.195387 360.030315 
L 496.355679 359.494159 
L 496.515972 358.10714 
L 496.836557 351.661094 
L 497.157142 338.222174 
L 497.477728 315.375247 
L 497.958605 259.706677 
L 498.439483 176.861883 
L 498.760069 95.187313 
L 498.920361 88.187376 
L 499.080654 103.800172 
L 499.561532 221.298514 
L 500.04241 332.909927 
L 500.362995 376.5407 
L 500.68358 398.913428 
L 501.004165 407.67678 
L 501.164458 409.088462 
L 501.324751 409.370225 
L 501.485043 408.975132 
L 502.446799 404.763473 
L 502.767384 404.415222 
L 503.087969 404.603531 
L 503.568847 405.518294 
L 504.851188 408.521294 
L 505.171774 408.853395 
L 505.492359 408.823805 
L 505.812944 408.340874 
L 506.133529 407.332468 
L 506.614407 404.755001 
L 507.255578 399.415053 
L 508.217333 388.541138 
L 510.140845 366.133281 
L 510.942308 359.478562 
L 511.423186 356.782789 
L 511.904064 355.281439 
L 512.224649 355.029832 
L 512.384942 355.145722 
L 512.705527 355.882969 
L 513.026112 357.313785 
L 513.50699 360.775419 
L 514.148161 367.741935 
L 514.949624 379.594702 
L 517.674598 423.385235 
L 518.155476 427.736161 
L 518.636354 430.254231 
L 518.956939 430.851252 
L 519.117232 430.820407 
L 519.277525 430.571092 
L 519.59811 429.42846 
L 520.078988 426.180788 
L 520.720158 419.321197 
L 521.521621 407.683674 
L 524.246596 364.85468 
L 524.887766 358.490926 
L 525.368644 355.308524 
L 525.849522 353.566245 
L 526.170107 353.207461 
L 526.3304 353.264559 
L 526.650985 353.837876 
L 526.971571 354.997953 
L 527.452448 357.753538 
L 528.093619 363.071923 
L 528.895082 371.73578 
L 530.498008 392.240748 
L 531.940642 409.738312 
L 532.902398 419.094639 
L 533.703861 425.026278 
L 533.864153 425.998533 
L 534.184739 346.34488 
L 534.345031 335.799937 
L 534.505324 333.635532 
L 534.665617 335.576225 
L 535.627372 355.451656 
L 535.947958 358.469459 
L 536.268543 359.938317 
L 536.428835 360.003781 
L 536.589128 359.440129 
L 536.749421 358.027923 
L 537.070006 351.538282 
L 537.390591 338.064551 
L 537.711176 315.191221 
L 538.192054 259.497748 
L 538.672932 176.643848 
L 538.993517 95.013856 
L 539.15381 88.026868 
L 539.314103 103.648546 
L 539.794981 221.159817 
L 540.275858 332.776487 
L 540.596444 376.410338 
L 540.917029 398.786645 
L 541.237614 407.554193 
L 541.397907 408.968183 
L 541.558199 409.252373 
L 541.718492 408.859812 
L 542.680248 404.664909 
L 543.000833 404.322671 
L 543.321418 404.517143 
L 543.802296 405.441338 
L 545.084637 408.469048 
L 545.405222 408.806796 
L 545.725808 408.782486 
L 546.046393 408.304405 
L 546.366978 407.300376 
L 546.847856 404.728532 
L 547.489027 399.394321 
L 548.450782 388.525672 
L 550.374294 366.121076 
L 551.175757 359.466738 
L 551.656635 356.771231 
L 552.137513 355.270241 
L 552.458098 355.01894 
L 552.618391 355.135005 
L 552.938976 355.872642 
L 553.259561 357.303905 
L 553.740439 360.766304 
L 554.381609 367.733987 
L 555.183073 379.588366 
L 557.908047 423.384177 
L 558.388925 427.735833 
L 558.869803 430.254548 
L 559.190388 430.851948 
L 559.350681 430.82128 
L 559.510973 430.57213 
L 559.831559 429.4298 
L 560.312437 426.18251 
L 560.953607 419.323304 
L 561.75507 407.686084 
L 564.480045 364.857102 
L 565.121215 358.493225 
L 565.602093 355.310717 
L 566.082971 353.568328 
L 566.403556 353.209469 
L 566.563849 353.266529 
L 566.884434 353.839771 
L 567.205019 354.999774 
L 567.685897 357.755252 
L 568.327068 363.073501 
L 569.128531 371.737204 
L 570.731457 392.241915 
L 572.174091 409.739298 
L 573.135847 419.095521 
L 573.93731 425.027082 
L 574.257895 426.900193 
L 574.57848 346.995121 
L 574.738773 336.354088 
L 574.899065 334.107135 
L 575.059358 335.975671 
L 576.021114 355.543945 
L 576.341699 358.488716 
L 576.662284 359.895054 
L 576.822577 359.932927 
L 576.98287 359.344039 
L 577.143162 357.908897 
L 577.463747 351.3801 
L 577.784333 337.875843 
L 578.104918 314.980183 
L 578.585796 259.267403 
L 579.066674 176.409284 
L 579.387259 94.823929 
L 579.547552 87.850144 
L 579.707844 103.481063 
L 580.188722 221.006747 
L 580.6696 332.630542 
L 580.990185 376.268858 
L 581.31077 398.650216 
L 581.631356 407.423491 
L 581.791648 408.840567 
L 581.951941 409.127966 
L 582.112234 408.738716 
L 583.073989 404.564956 
L 583.394575 404.229984 
L 583.71516 404.431726 
L 584.196038 405.366719 
L 585.478379 408.421068 
L 585.798964 408.76461 
L 586.119549 408.745622 
L 586.440134 408.272347 
L 586.76072 407.272578 
L 587.241598 404.706082 
L 587.882768 399.377123 
L 588.684231 390.466785 
L 590.768035 366.110192 
L 591.569498 359.455824 
L 592.050376 356.760387 
L 592.531254 355.259595 
L 592.851839 355.008509 
L 593.012132 355.124706 
L 593.332717 355.862662 
L 593.653303 357.294308 
L 594.13418 360.757396 
L 594.775351 367.726172 
L 595.576814 379.582103 
L 598.301789 423.383131 
L 598.782667 427.735514 
L 599.263544 430.25487 
L 599.58413 430.85265 
L 599.744422 430.822156 
L 599.904715 430.573171 
L 600.2253 429.431141 
L 600.706178 426.18423 
L 601.347349 419.325405 
L 602.148812 407.688481 
L 604.873786 364.859492 
L 605.514957 358.495487 
L 605.995835 355.312873 
L 606.476713 353.570371 
L 606.797298 353.211436 
L 606.95759 353.268458 
L 607.278176 353.841625 
L 607.598761 355.001554 
L 608.079639 357.756924 
L 608.720809 363.075039 
L 609.522272 371.738589 
L 611.125199 392.243048 
L 612.567832 409.740254 
L 613.209003 416.235384 
L 613.529588 338.604448 
L 613.689881 328.836474 
L 613.850173 327.346101 
L 614.170759 334.073388 
L 614.811929 349.9004 
L 615.292807 356.227983 
L 615.613392 358.347421 
L 615.773685 358.712505 
L 615.933977 358.43131 
L 616.09427 357.284269 
L 616.414855 351.272568 
L 616.735441 338.206438 
L 617.056026 315.670694 
L 617.536904 260.356107 
L 618.017782 177.738011 
L 618.338367 95.766335 
L 618.498659 88.689504 
L 618.658952 104.256837 
L 619.13983 221.726641 
L 619.620708 333.373997 
L 619.941293 377.035568 
L 620.261878 399.437841 
L 620.582464 408.227932 
L 620.742756 409.651795 
L 620.903049 409.94491 
L 621.063341 409.560305 
L 622.025097 405.389675 
L 622.345682 405.04481 
L 622.666268 405.230491 
L 623.147146 406.129809 
L 624.429487 409.035064 
L 624.750072 409.33455 
L 625.070657 409.271142 
L 625.391242 408.754169 
L 625.711828 407.712358 
L 626.192705 405.087481 
L 626.833876 399.691771 
L 627.795632 388.753015 
L 629.558851 367.871716 
L 630.360314 360.733581 
L 631.001484 356.892231 
L 631.482362 355.381782 
L 631.802947 355.124284 
L 631.96324 355.23726 
L 632.283825 355.968713 
L 632.60441 357.393765 
L 633.085288 360.846789 
L 633.726459 367.801923 
L 634.527922 379.640821 
L 637.252897 423.392098 
L 637.733774 427.737951 
L 638.214652 430.251581 
L 638.535238 430.84599 
L 638.69553 430.813944 
L 638.855823 430.563494 
L 639.176408 429.418793 
L 639.657286 426.168499 
L 640.298456 419.306248 
L 641.09992 407.666591 
L 643.824894 364.837116 
L 644.466065 358.474118 
L 644.946943 355.292376 
L 645.42782 353.550806 
L 645.748406 353.192509 
L 645.908698 353.249853 
L 646.229284 353.823663 
L 646.549869 354.98423 
L 647.030747 357.740539 
L 647.671917 363.059853 
L 648.47338 371.724794 
L 650.076307 392.231644 
L 651.51894 409.730611 
L 652.480696 419.087754 
L 653.282159 425.020016 
L 653.92333 428.483387 
L 654.243915 348.081846 
L 654.404207 337.252346 
L 654.5645 334.844572 
L 654.724793 336.573678 
L 655.686548 355.567494 
L 656.007134 358.381749 
L 656.327719 359.678781 
L 656.488012 359.669275 
L 656.648304 359.037608 
L 656.808597 357.564144 
L 657.129182 350.971563 
L 657.449767 337.41985 
L 657.770353 314.492024 
L 658.25123 258.757113 
L 658.732108 175.904204 
L 659.052694 94.408201 
L 659.212986 87.461347 
L 659.373279 103.111477 
L 659.854157 220.668918 
L 660.335035 332.310491 
L 660.65562 375.960323 
L 660.976205 398.354539 
L 661.29679 407.142168 
L 661.457083 408.566906 
L 661.617376 408.86223 
L 661.777668 408.481118 
L 662.739424 404.358368 
L 663.060009 404.040482 
L 663.380594 404.259055 
L 663.861472 405.218511 
L 665.143813 408.330422 
L 665.464399 408.685959 
L 665.784984 408.677816 
L 666.105569 408.214181 
L 666.426154 407.222825 
L 666.907032 404.666668 
L 667.548203 399.347513 
L 668.349666 390.444063 
L 670.43347 366.090017 
L 671.234933 359.435066 
L 671.715811 356.739534 
L 672.196689 355.238954 
L 672.517274 354.988199 
L 672.677567 355.10462 
L 672.998152 355.843138 
L 673.318737 357.275493 
L 673.799615 360.739892 
L 674.440786 367.710796 
L 675.242249 379.569791 
L 677.967223 423.381169 
L 678.448101 427.734987 
L 678.928979 430.255605 
L 679.249564 430.854127 
L 679.409857 430.823973 
L 679.57015 430.57531 
L 679.890735 429.433863 
L 680.371613 426.187685 
L 681.012783 419.329585 
L 681.814246 407.693211 
L 684.539221 364.864102 
L 685.180391 358.499831 
L 685.661269 355.316995 
L 686.142147 353.574265 
L 686.462732 353.215177 
L 686.623025 353.272124 
L 686.94361 353.84514 
L 687.264196 355.004922 
L 687.745073 357.76008 
L 688.386244 363.07793 
L 689.187707 371.741186 
L 690.790633 392.245166 
L 692.233267 409.742044 
L 693.195023 419.097986 
L 693.996486 425.029336 
L 694.156778 426.001535 
L 694.477364 346.349199 
L 694.637656 335.804567 
L 694.797949 333.640287 
L 694.958242 335.580952 
L 695.919997 355.454377 
L 696.240583 358.471254 
L 696.561168 359.939215 
L 696.72146 360.004259 
L 696.881753 359.440211 
L 697.042046 358.027636 
L 697.362631 351.537352 
L 697.683216 338.063108 
L 698.003801 315.189398 
L 698.484679 259.495587 
L 698.965557 176.641596 
L 699.286142 95.011436 
L 699.446435 88.024436 
L 699.606728 103.646142 
L 700.087606 221.157691 
L 700.568483 332.774849 
L 700.889069 376.409101 
L 701.209654 398.785842 
L 701.530239 407.55384 
L 701.690532 408.968054 
L 701.850824 409.252468 
L 702.011117 408.860125 
L 702.972873 404.666372 
L 703.293458 404.324432 
L 703.614043 404.519151 
L 704.094921 405.443623 
L 705.377262 408.471566 
L 705.697847 408.80928 
L 706.018433 408.784907 
L 706.339018 408.306741 
L 706.659603 407.30261 
L 707.140481 404.730587 
L 707.781652 399.396113 
L 708.743407 388.52706 
L 710.666919 366.121783 
L 711.468382 359.467235 
L 711.94926 356.771624 
L 712.430138 355.270546 
L 712.750723 355.019193 
L 712.911016 355.135234 
L 713.231601 355.872829 
L 713.552186 357.304053 
L 714.033064 360.766404 
L 714.674234 367.734039 
L 715.475698 379.588376 
L 718.200672 423.384151 
L 718.68155 427.73581 
L 719.162428 430.254528 
L 719.483013 430.851932 
L 719.643306 430.821264 
L 719.803598 430.572116 
L 720.124184 429.429789 
L 720.605062 426.182505 
L 721.246232 419.323305 
L 722.047695 407.686093 
L 724.77267 364.857126 
L 725.41384 358.49325 
L 725.894718 355.310743 
L 726.375596 353.568353 
L 726.696181 353.209494 
L 726.856474 353.266554 
L 727.177059 353.839796 
L 727.497644 354.999799 
L 727.978522 357.755276 
L 728.619693 363.073524 
L 729.421156 371.737225 
L 731.024082 392.241933 
L 732.466716 409.739313 
L 733.428472 419.095535 
L 734.069642 423.983241 
L 734.390227 344.83945 
L 734.55052 334.489834 
L 734.710813 332.493786 
L 734.871105 334.582314 
L 735.832861 355.100592 
L 736.313739 359.276815 
L 736.474031 359.882762 
L 736.634324 360.009828 
L 736.794617 359.50312 
L 736.954909 358.14327 
L 737.275495 351.744831 
L 737.59608 338.344729 
L 737.916665 315.528133 
L 738.397543 259.890076 
L 738.878421 177.059513 
L 739.199006 95.340436 
L 739.359299 88.327866 
L 739.519591 103.932232 
L 740.000469 221.419574 
L 740.481347 333.02821 
L 740.801932 376.657758 
L 741.122518 399.028872 
L 741.443103 407.790065 
L 741.603395 409.200472 
L 741.763688 409.480839 
L 741.923981 409.08424 
L 742.885736 404.861529 
L 743.206322 404.508873 
L 743.526907 404.692432 
L 744.007785 405.599489 
L 745.290126 408.580129 
L 745.610711 408.906732 
L 745.931296 408.871876 
L 746.251882 408.383994 
L 746.572467 407.371018 
L 747.053345 404.787506 
L 747.694515 399.441103 
L 748.656271 388.560726 
L 750.579782 366.147529 
L 751.381246 359.491805 
L 751.862123 356.795462 
L 752.343001 355.293497 
L 752.663587 355.041438 
L 752.823879 355.157089 
L 753.144464 355.893827 
L 753.46505 357.324094 
L 753.945928 360.784837 
L 754.587098 367.750061 
L 755.388561 379.601114 
L 758.113536 423.386273 
L 758.594414 427.73647 
L 759.075292 430.253899 
L 759.395877 430.850541 
L 759.556169 430.819522 
L 759.716462 430.570043 
L 760.037047 429.42711 
L 760.517925 426.179059 
L 761.159096 419.319086 
L 761.960559 407.681262 
L 764.685533 364.852247 
L 765.326704 358.488614 
L 765.807582 355.306315 
L 766.28846 353.564145 
L 766.609045 353.205435 
L 766.769338 353.262571 
L 767.089923 353.835962 
L 767.410508 354.996111 
L 767.891386 357.751803 
L 768.532556 363.070323 
L 769.33402 371.734334 
L 770.936946 392.23956 
L 772.379579 409.73731 
L 773.341335 419.093742 
L 773.822213 422.866077 
L 774.142798 343.977637 
L 774.303091 333.726213 
L 774.463384 331.815205 
L 774.623676 333.978884 
L 775.585432 354.832974 
L 776.06631 359.13397 
L 776.226602 359.7767 
L 776.386895 359.938233 
L 776.547188 359.463693 
L 776.70748 358.133724 
L 777.028066 351.788221 
L 777.348651 338.432057 
L 777.669236 315.650615 
L 778.150114 260.049618 
L 778.630992 177.238903 
L 778.951577 95.475868 
L 779.11187 88.451081 
L 779.272162 104.047494 
L 779.75304 221.525461 
L 780.233918 333.13309 
L 780.554503 376.762647 
L 780.875089 399.133426 
L 781.195674 407.89378 
L 781.355966 409.30358 
L 781.516259 409.583226 
L 781.676552 409.185797 
L 782.638307 404.955918 
L 782.958893 404.600009 
L 783.279478 404.779861 
L 783.760356 405.680545 
L 785.042697 408.640975 
L 785.363282 408.962331 
L 785.683867 408.922368 
L 786.004453 408.429614 
L 786.325038 407.412081 
L 786.805916 404.822446 
L 787.447086 399.46936 
L 788.408842 388.582051 
L 790.332353 366.162622 
L 791.133817 359.505625 
L 791.614694 356.808583 
L 792.095572 355.305897 
L 792.416158 355.053329 
L 792.57645 355.168714 
L 792.897035 355.904897 
L 793.217621 357.334577 
L 793.698499 360.794383 
L 794.339669 367.758273 
L 795.141132 379.60758 
L 797.866107 423.387334 
L 798.346985 427.736799 
L 798.827863 430.253582 
L 799.148448 430.849843 
L 799.30874 430.818649 
L 799.469033 430.569003 
L 799.789618 429.425767 
L 800.270496 426.177331 
L 800.911667 419.316967 
L 801.71313 407.67883 
L 804.438104 364.849761 
L 805.079275 358.486244 
L 805.560153 355.304045 
L 806.041031 353.561982 
L 806.361616 353.203345 
L 806.521909 353.260517 
L 806.842494 353.833981 
L 807.163079 354.994204 
L 807.643957 357.750002 
L 808.285127 363.068658 
L 809.086591 371.732826 
L 810.689517 392.238319 
L 812.13215 409.736262 
L 813.093906 419.092804 
L 813.414491 421.678312 
L 813.735077 343.045247 
L 813.895369 332.892081 
L 814.055662 331.066321 
L 814.215955 333.305541 
L 815.17771 354.502057 
L 815.658588 358.933338 
L 815.979173 359.813028 
L 816.139466 359.372842 
L 816.299759 358.074984 
L 816.620344 351.786956 
L 816.940929 338.479281 
L 817.261514 315.737461 
L 817.742392 260.1799 
L 818.22327 177.394841 
L 818.543855 95.588339 
L 818.704148 88.551817 
L 818.864441 104.14087 
L 819.345319 221.6117 
L 819.826196 333.22098 
L 820.146782 376.852471 
L 820.467367 399.224925 
L 820.787952 407.986506 
L 820.948245 409.396745 
L 821.108537 409.676714 
L 821.26883 409.279494 
L 822.230586 405.048269 
L 822.551171 404.690773 
L 822.871756 404.8684 
L 823.352634 405.764554 
L 824.634975 408.707487 
L 824.95556 409.023834 
L 825.276146 408.978865 
L 825.596731 408.481221 
L 825.917316 407.459014 
L 826.398194 404.86294 
L 827.039365 399.502571 
L 828.00112 388.60727 
L 829.924632 366.179674 
L 830.726095 359.520807 
L 831.206973 356.822773 
L 831.687851 355.31912 
L 832.008436 355.065902 
L 832.168729 355.180957 
L 832.489314 355.91647 
L 832.809899 357.345464 
L 833.290777 360.804211 
L 833.931947 367.766645 
L 834.733411 379.61411 
L 837.458385 423.388373 
L 837.939263 427.737108 
L 838.420141 430.253248 
L 838.740726 430.84913 
L 838.901019 430.817761 
L 839.061311 430.56795 
L 839.381897 429.424413 
L 839.862775 426.175594 
L 840.503945 419.314841 
L 841.305408 407.676392 
L 844.030383 364.847257 
L 844.671553 358.483852 
L 845.152431 355.30175 
L 845.633309 353.559791 
L 845.953894 353.201226 
L 846.114187 353.258434 
L 846.434772 353.831971 
L 846.755357 354.992265 
L 847.236235 357.748169 
L 847.877406 363.066959 
L 848.678869 371.731284 
L 850.281795 392.237046 
L 851.724429 409.735187 
L 852.686185 419.091843 
L 853.487648 425.023732 
L 854.128818 428.486823 
L 854.609696 430.354896 
L 854.930281 349.248937 
L 855.090574 338.153526 
L 855.250867 335.520142 
L 855.411159 337.055066 
L 856.372915 355.274506 
L 856.6935 357.922286 
L 857.014085 359.084481 
L 857.174378 359.018291 
L 857.334671 358.336672 
L 857.494963 356.819727 
L 857.815549 350.158664 
L 858.136134 336.561633 
L 858.456719 313.609848 
L 858.937597 257.874774 
L 859.418475 175.058252 
L 859.73906 93.692878 
L 859.899353 86.786726 
L 860.059645 102.466936 
L 860.540523 220.079749 
L 861.021401 331.759523 
L 861.341986 375.435706 
L 861.662572 397.859077 
L 861.983157 406.67863 
L 862.143449 408.120166 
L 862.303742 408.432703 
L 862.464035 408.069107 
L 863.42579 404.052321 
L 863.746376 403.76825 
L 864.066961 404.019162 
L 864.547839 405.023758 
L 865.83018 408.232241 
L 866.150765 408.606 
L 866.47135 408.61366 
L 866.791936 408.163454 
L 867.112521 407.183234 
L 867.593399 404.639763 
L 868.234569 399.330921 
L 869.036032 390.432098 
L 871.119836 366.06984 
L 871.9213 359.410935 
L 872.402177 356.7138 
L 872.883055 355.212331 
L 873.203641 354.961397 
L 873.363933 355.07785 
L 873.684518 355.816668 
L 874.005104 357.249619 
L 874.485982 360.71541 
L 875.127152 367.688935 
L 875.928615 379.552052 
L 878.65359 423.378356 
L 879.134468 427.73429 
L 879.615346 430.25677 
L 879.935931 430.856386 
L 880.096223 430.826735 
L 880.256516 430.578545 
L 880.577101 429.437956 
L 881.057979 426.192852 
L 881.69915 419.335808 
L 882.500613 407.70022 
L 885.225587 364.870827 
L 885.866758 358.506141 
L 886.347636 355.322968 
L 886.828514 353.579891 
L 887.149099 353.220571 
L 887.309392 353.277403 
L 887.629977 353.850194 
L 887.950562 355.009756 
L 888.43144 357.764599 
L 889.07261 363.082061 
L 889.874074 371.744886 
L 891.477 392.248182 
L 892.919633 409.744599 
L 893.881389 419.100287 
L 894.362267 422.872281 
L 894.682852 343.986587 
L 894.843145 333.735817 
L 895.003438 331.825077 
L 895.16373 333.988701 
L 896.125486 354.838656 
L 896.606364 359.136791 
L 896.766656 359.778607 
L 896.926949 359.939267 
L 897.087242 359.463906 
L 897.247534 358.133173 
L 897.56812 351.786334 
L 897.888705 338.429105 
L 898.20929 315.646871 
L 898.690168 260.045171 
L 899.171046 177.234263 
L 899.491631 95.47088 
L 899.651924 88.446066 
L 899.812216 104.042536 
L 900.293094 221.521077 
L 900.773972 333.129717 
L 901.094557 376.760103 
L 901.415143 399.131783 
L 901.735728 407.893071 
L 901.89602 409.303339 
L 902.056313 409.583448 
L 902.216606 409.186473 
L 903.178361 404.958985 
L 903.498947 404.603694 
L 903.819532 404.784061 
L 904.30041 405.685318 
L 905.582751 408.646227 
L 905.903336 408.967508 
L 906.223921 408.927414 
L 906.544507 408.434483 
L 906.865092 407.416734 
L 907.34597 404.826727 
L 907.98714 399.473091 
L 908.948896 388.58494 
L 910.872407 366.164091 
L 911.673871 359.506659 
L 912.154748 356.8094 
L 912.635626 355.306529 
L 912.956212 355.053854 
L 913.116504 355.169189 
L 913.437089 355.905282 
L 913.757675 357.334884 
L 914.238553 360.794591 
L 914.879723 367.758379 
L 915.681186 379.607601 
L 918.406161 423.38728 
L 918.887039 427.73675 
L 919.367917 430.253541 
L 919.688502 430.849809 
L 919.848794 430.818618 
L 920.009087 430.568975 
L 920.329672 429.425746 
L 920.81055 426.177321 
L 921.451721 419.31697 
L 922.253184 407.678849 
L 924.978158 364.849811 
L 925.619329 358.486296 
L 926.100207 355.304098 
L 926.581085 353.562035 
L 926.90167 353.203398 
L 927.061963 353.26057 
L 927.382548 353.834034 
L 927.703133 354.994255 
L 928.184011 357.750052 
L 928.825181 363.068705 
L 929.626645 371.73287 
L 931.229571 392.238356 
L 932.672204 409.736294 
L 933.63396 419.092832 
L 933.794253 420.420613 
L 933.954545 367.655644 
L 933.954545 367.655644 
" clip-path="url(#p6bb6f963ec)" style="fill: none; stroke: #1f77b4; stroke-width: 1.5; stroke-linecap: square"/>
   </g>
   <g id="line2d_15">
    <path d="M 173.045455 322.798092 
L 177.693941 322.798092 
L 177.854233 411.085973 
L 213.278903 411.085973 
L 213.439196 322.798092 
L 218.087682 322.798092 
L 218.247975 411.085973 
L 253.99323 411.085973 
L 254.153523 322.798092 
L 258.802009 322.798092 
L 258.962302 411.085973 
L 293.585509 411.085973 
L 293.745801 322.798092 
L 298.394287 322.798092 
L 298.55458 411.085973 
L 333.818957 411.085973 
L 333.97925 322.798092 
L 338.627736 322.798092 
L 338.788029 411.085973 
L 373.090651 411.085973 
L 373.250943 322.798092 
L 377.899429 322.798092 
L 378.059722 411.085973 
L 413.644685 411.085973 
L 413.804977 322.798092 
L 418.453463 322.798092 
L 418.613756 411.085973 
L 453.557548 411.085973 
L 453.717841 322.798092 
L 458.366327 322.798092 
L 458.52662 411.085973 
L 493.630705 411.085973 
L 493.790997 322.798092 
L 498.439483 322.798092 
L 498.599776 411.085973 
L 533.864153 411.085973 
L 534.024446 322.798092 
L 538.672932 322.798092 
L 538.833225 411.085973 
L 574.257895 411.085973 
L 574.418188 322.798092 
L 579.066674 322.798092 
L 579.226966 411.085973 
L 613.209003 411.085973 
L 613.369295 322.798092 
L 618.017782 322.798092 
L 618.178074 411.085973 
L 653.92333 411.085973 
L 654.083622 322.798092 
L 658.732108 322.798092 
L 658.892401 411.085973 
L 694.156778 411.085973 
L 694.317071 322.798092 
L 698.965557 322.798092 
L 699.12585 411.085973 
L 734.069642 411.085973 
L 734.229935 322.798092 
L 738.878421 322.798092 
L 739.038713 411.085973 
L 773.822213 411.085973 
L 773.982506 322.798092 
L 778.630992 322.798092 
L 778.791284 411.085973 
L 813.414491 411.085973 
L 813.574784 322.798092 
L 818.22327 322.798092 
L 818.383563 411.085973 
L 854.609696 411.085973 
L 854.769989 322.798092 
L 859.418475 322.798092 
L 859.578767 411.085973 
L 894.362267 411.085973 
L 894.52256 322.798092 
L 899.171046 322.798092 
L 899.331338 411.085973 
L 933.794253 411.085973 
L 933.954545 322.798092 
L 933.954545 322.798092 
" clip-path="url(#p6bb6f963ec)" style="fill: none; stroke: #ff7f0e; stroke-width: 1.5; stroke-linecap: square"/>
   </g>
   <g id="line2d_16">
    <path d="M 929.466352 411.085973 
" clip-path="url(#p6bb6f963ec)" style="fill: none; stroke: #000000; stroke-width: 1.5; stroke-linecap: square"/>
    <defs>
     <path id="m6004a4913f" d="M 0 1 
C 0.265203 1 0.51958 0.894634 0.707107 0.707107 
C 0.894634 0.51958 1 0.265203 1 0 
C 1 -0.265203 0.894634 -0.51958 0.707107 -0.707107 
C 0.51958 -0.894634 0.265203 -1 0 -1 
C -0.265203 -1 -0.51958 -0.894634 -0.707107 -0.707107 
C -0.894634 -0.51958 -1 -0.265203 -1 0 
C -1 0.265203 -0.894634 0.51958 -0.707107 0.707107 
C -0.51958 0.894634 -0.265203 1 0 1 
z
" style="stroke: #000000"/>
    </defs>
    <g clip-path="url(#p6bb6f963ec)">
     <use xlink:href="#m6004a4913f" x="173.045455" y="322.798092" style="stroke: #000000"/>
     <use xlink:href="#m6004a4913f" x="178.174819" y="411.085973" style="stroke: #000000"/>
     <use xlink:href="#m6004a4913f" x="183.14389" y="411.085973" style="stroke: #000000"/>
     <use xlink:href="#m6004a4913f" x="188.112961" y="322.798092" style="stroke: #000000"/>
     <use xlink:href="#m6004a4913f" x="193.082033" y="411.085973" style="stroke: #000000"/>
     <use xlink:href="#m6004a4913f" x="198.211397" y="411.085973" style="stroke: #000000"/>
     <use xlink:href="#m6004a4913f" x="203.180468" y="322.798092" style="stroke: #000000"/>
     <use xlink:href="#m6004a4913f" x="208.149539" y="411.085973" style="stroke: #000000"/>
     <use xlink:href="#m6004a4913f" x="213.118611" y="322.798092" style="stroke: #000000"/>
     <use xlink:href="#m6004a4913f" x="218.247975" y="411.085973" style="stroke: #000000"/>
     <use xlink:href="#m6004a4913f" x="223.217046" y="411.085973" style="stroke: #000000"/>
     <use xlink:href="#m6004a4913f" x="228.186118" y="322.798092" style="stroke: #000000"/>
     <use xlink:href="#m6004a4913f" x="233.155189" y="411.085973" style="stroke: #000000"/>
     <use xlink:href="#m6004a4913f" x="238.284553" y="411.085973" style="stroke: #000000"/>
     <use xlink:href="#m6004a4913f" x="243.253624" y="322.798092" style="stroke: #000000"/>
     <use xlink:href="#m6004a4913f" x="248.222696" y="411.085973" style="stroke: #000000"/>
     <use xlink:href="#m6004a4913f" x="253.191767" y="322.798092" style="stroke: #000000"/>
     <use xlink:href="#m6004a4913f" x="258.321131" y="411.085973" style="stroke: #000000"/>
     <use xlink:href="#m6004a4913f" x="263.290202" y="411.085973" style="stroke: #000000"/>
     <use xlink:href="#m6004a4913f" x="268.259274" y="322.798092" style="stroke: #000000"/>
     <use xlink:href="#m6004a4913f" x="273.228345" y="411.085973" style="stroke: #000000"/>
     <use xlink:href="#m6004a4913f" x="278.357709" y="411.085973" style="stroke: #000000"/>
     <use xlink:href="#m6004a4913f" x="283.326781" y="322.798092" style="stroke: #000000"/>
     <use xlink:href="#m6004a4913f" x="288.295852" y="411.085973" style="stroke: #000000"/>
     <use xlink:href="#m6004a4913f" x="293.264923" y="322.798092" style="stroke: #000000"/>
     <use xlink:href="#m6004a4913f" x="298.394287" y="411.085973" style="stroke: #000000"/>
     <use xlink:href="#m6004a4913f" x="303.363359" y="411.085973" style="stroke: #000000"/>
     <use xlink:href="#m6004a4913f" x="308.33243" y="322.798092" style="stroke: #000000"/>
     <use xlink:href="#m6004a4913f" x="313.301501" y="411.085973" style="stroke: #000000"/>
     <use xlink:href="#m6004a4913f" x="318.430865" y="411.085973" style="stroke: #000000"/>
     <use xlink:href="#m6004a4913f" x="323.399937" y="322.798092" style="stroke: #000000"/>
     <use xlink:href="#m6004a4913f" x="328.369008" y="411.085973" style="stroke: #000000"/>
     <use xlink:href="#m6004a4913f" x="333.33808" y="322.798092" style="stroke: #000000"/>
     <use xlink:href="#m6004a4913f" x="338.467444" y="411.085973" style="stroke: #000000"/>
     <use xlink:href="#m6004a4913f" x="343.436515" y="411.085973" style="stroke: #000000"/>
     <use xlink:href="#m6004a4913f" x="348.405586" y="322.798092" style="stroke: #000000"/>
     <use xlink:href="#m6004a4913f" x="353.374658" y="411.085973" style="stroke: #000000"/>
     <use xlink:href="#m6004a4913f" x="358.504022" y="411.085973" style="stroke: #000000"/>
     <use xlink:href="#m6004a4913f" x="363.473093" y="322.798092" style="stroke: #000000"/>
     <use xlink:href="#m6004a4913f" x="368.442164" y="411.085973" style="stroke: #000000"/>
     <use xlink:href="#m6004a4913f" x="373.411236" y="322.798092" style="stroke: #000000"/>
     <use xlink:href="#m6004a4913f" x="378.5406" y="411.085973" style="stroke: #000000"/>
     <use xlink:href="#m6004a4913f" x="383.509671" y="411.085973" style="stroke: #000000"/>
     <use xlink:href="#m6004a4913f" x="388.478743" y="322.798092" style="stroke: #000000"/>
     <use xlink:href="#m6004a4913f" x="393.447814" y="411.085973" style="stroke: #000000"/>
     <use xlink:href="#m6004a4913f" x="398.577178" y="411.085973" style="stroke: #000000"/>
     <use xlink:href="#m6004a4913f" x="403.546249" y="322.798092" style="stroke: #000000"/>
     <use xlink:href="#m6004a4913f" x="408.515321" y="411.085973" style="stroke: #000000"/>
     <use xlink:href="#m6004a4913f" x="413.484392" y="322.798092" style="stroke: #000000"/>
     <use xlink:href="#m6004a4913f" x="418.613756" y="411.085973" style="stroke: #000000"/>
     <use xlink:href="#m6004a4913f" x="423.582827" y="411.085973" style="stroke: #000000"/>
     <use xlink:href="#m6004a4913f" x="428.551899" y="322.798092" style="stroke: #000000"/>
     <use xlink:href="#m6004a4913f" x="433.52097" y="411.085973" style="stroke: #000000"/>
     <use xlink:href="#m6004a4913f" x="438.650334" y="411.085973" style="stroke: #000000"/>
     <use xlink:href="#m6004a4913f" x="443.619406" y="322.798092" style="stroke: #000000"/>
     <use xlink:href="#m6004a4913f" x="448.588477" y="411.085973" style="stroke: #000000"/>
     <use xlink:href="#m6004a4913f" x="453.557548" y="322.798092" style="stroke: #000000"/>
     <use xlink:href="#m6004a4913f" x="458.686912" y="411.085973" style="stroke: #000000"/>
     <use xlink:href="#m6004a4913f" x="463.655984" y="411.085973" style="stroke: #000000"/>
     <use xlink:href="#m6004a4913f" x="468.625055" y="322.798092" style="stroke: #000000"/>
     <use xlink:href="#m6004a4913f" x="473.594126" y="411.085973" style="stroke: #000000"/>
     <use xlink:href="#m6004a4913f" x="478.72349" y="411.085973" style="stroke: #000000"/>
     <use xlink:href="#m6004a4913f" x="483.692562" y="322.798092" style="stroke: #000000"/>
     <use xlink:href="#m6004a4913f" x="488.661633" y="411.085973" style="stroke: #000000"/>
     <use xlink:href="#m6004a4913f" x="493.630705" y="322.798092" style="stroke: #000000"/>
     <use xlink:href="#m6004a4913f" x="498.760069" y="411.085973" style="stroke: #000000"/>
     <use xlink:href="#m6004a4913f" x="503.72914" y="411.085973" style="stroke: #000000"/>
     <use xlink:href="#m6004a4913f" x="508.698211" y="322.798092" style="stroke: #000000"/>
     <use xlink:href="#m6004a4913f" x="513.667283" y="411.085973" style="stroke: #000000"/>
     <use xlink:href="#m6004a4913f" x="518.796647" y="411.085973" style="stroke: #000000"/>
     <use xlink:href="#m6004a4913f" x="523.765718" y="322.798092" style="stroke: #000000"/>
     <use xlink:href="#m6004a4913f" x="528.734789" y="411.085973" style="stroke: #000000"/>
     <use xlink:href="#m6004a4913f" x="533.703861" y="322.798092" style="stroke: #000000"/>
     <use xlink:href="#m6004a4913f" x="538.833225" y="411.085973" style="stroke: #000000"/>
     <use xlink:href="#m6004a4913f" x="543.802296" y="411.085973" style="stroke: #000000"/>
     <use xlink:href="#m6004a4913f" x="548.771368" y="322.798092" style="stroke: #000000"/>
     <use xlink:href="#m6004a4913f" x="553.740439" y="411.085973" style="stroke: #000000"/>
     <use xlink:href="#m6004a4913f" x="558.869803" y="411.085973" style="stroke: #000000"/>
     <use xlink:href="#m6004a4913f" x="563.838874" y="322.798092" style="stroke: #000000"/>
     <use xlink:href="#m6004a4913f" x="568.807946" y="411.085973" style="stroke: #000000"/>
     <use xlink:href="#m6004a4913f" x="573.777017" y="322.798092" style="stroke: #000000"/>
     <use xlink:href="#m6004a4913f" x="578.906381" y="411.085973" style="stroke: #000000"/>
     <use xlink:href="#m6004a4913f" x="583.875452" y="411.085973" style="stroke: #000000"/>
     <use xlink:href="#m6004a4913f" x="588.844524" y="322.798092" style="stroke: #000000"/>
     <use xlink:href="#m6004a4913f" x="593.813595" y="411.085973" style="stroke: #000000"/>
     <use xlink:href="#m6004a4913f" x="598.942959" y="411.085973" style="stroke: #000000"/>
     <use xlink:href="#m6004a4913f" x="603.912031" y="322.798092" style="stroke: #000000"/>
     <use xlink:href="#m6004a4913f" x="608.881102" y="411.085973" style="stroke: #000000"/>
     <use xlink:href="#m6004a4913f" x="613.850173" y="322.798092" style="stroke: #000000"/>
     <use xlink:href="#m6004a4913f" x="618.979537" y="411.085973" style="stroke: #000000"/>
     <use xlink:href="#m6004a4913f" x="623.948609" y="411.085973" style="stroke: #000000"/>
     <use xlink:href="#m6004a4913f" x="628.91768" y="322.798092" style="stroke: #000000"/>
     <use xlink:href="#m6004a4913f" x="633.886751" y="411.085973" style="stroke: #000000"/>
     <use xlink:href="#m6004a4913f" x="639.016115" y="411.085973" style="stroke: #000000"/>
     <use xlink:href="#m6004a4913f" x="643.985187" y="322.798092" style="stroke: #000000"/>
     <use xlink:href="#m6004a4913f" x="648.954258" y="411.085973" style="stroke: #000000"/>
     <use xlink:href="#m6004a4913f" x="653.92333" y="322.798092" style="stroke: #000000"/>
     <use xlink:href="#m6004a4913f" x="659.052694" y="411.085973" style="stroke: #000000"/>
     <use xlink:href="#m6004a4913f" x="664.021765" y="411.085973" style="stroke: #000000"/>
     <use xlink:href="#m6004a4913f" x="668.990836" y="322.798092" style="stroke: #000000"/>
     <use xlink:href="#m6004a4913f" x="673.959908" y="411.085973" style="stroke: #000000"/>
     <use xlink:href="#m6004a4913f" x="679.089272" y="411.085973" style="stroke: #000000"/>
     <use xlink:href="#m6004a4913f" x="684.058343" y="322.798092" style="stroke: #000000"/>
     <use xlink:href="#m6004a4913f" x="689.027414" y="411.085973" style="stroke: #000000"/>
     <use xlink:href="#m6004a4913f" x="693.996486" y="322.798092" style="stroke: #000000"/>
     <use xlink:href="#m6004a4913f" x="699.12585" y="411.085973" style="stroke: #000000"/>
     <use xlink:href="#m6004a4913f" x="704.094921" y="411.085973" style="stroke: #000000"/>
     <use xlink:href="#m6004a4913f" x="709.063993" y="322.798092" style="stroke: #000000"/>
     <use xlink:href="#m6004a4913f" x="714.033064" y="411.085973" style="stroke: #000000"/>
     <use xlink:href="#m6004a4913f" x="719.162428" y="411.085973" style="stroke: #000000"/>
     <use xlink:href="#m6004a4913f" x="724.131499" y="322.798092" style="stroke: #000000"/>
     <use xlink:href="#m6004a4913f" x="729.100571" y="411.085973" style="stroke: #000000"/>
     <use xlink:href="#m6004a4913f" x="734.069642" y="322.798092" style="stroke: #000000"/>
     <use xlink:href="#m6004a4913f" x="739.199006" y="411.085973" style="stroke: #000000"/>
     <use xlink:href="#m6004a4913f" x="744.168077" y="411.085973" style="stroke: #000000"/>
     <use xlink:href="#m6004a4913f" x="749.137149" y="322.798092" style="stroke: #000000"/>
     <use xlink:href="#m6004a4913f" x="754.10622" y="411.085973" style="stroke: #000000"/>
     <use xlink:href="#m6004a4913f" x="759.235584" y="411.085973" style="stroke: #000000"/>
     <use xlink:href="#m6004a4913f" x="764.204656" y="322.798092" style="stroke: #000000"/>
     <use xlink:href="#m6004a4913f" x="769.173727" y="411.085973" style="stroke: #000000"/>
     <use xlink:href="#m6004a4913f" x="774.142798" y="322.798092" style="stroke: #000000"/>
     <use xlink:href="#m6004a4913f" x="779.272162" y="411.085973" style="stroke: #000000"/>
     <use xlink:href="#m6004a4913f" x="784.241234" y="411.085973" style="stroke: #000000"/>
     <use xlink:href="#m6004a4913f" x="789.210305" y="322.798092" style="stroke: #000000"/>
     <use xlink:href="#m6004a4913f" x="794.179376" y="411.085973" style="stroke: #000000"/>
     <use xlink:href="#m6004a4913f" x="799.30874" y="411.085973" style="stroke: #000000"/>
     <use xlink:href="#m6004a4913f" x="804.277812" y="322.798092" style="stroke: #000000"/>
     <use xlink:href="#m6004a4913f" x="809.246883" y="411.085973" style="stroke: #000000"/>
     <use xlink:href="#m6004a4913f" x="814.215955" y="322.798092" style="stroke: #000000"/>
     <use xlink:href="#m6004a4913f" x="819.345319" y="411.085973" style="stroke: #000000"/>
     <use xlink:href="#m6004a4913f" x="824.31439" y="411.085973" style="stroke: #000000"/>
     <use xlink:href="#m6004a4913f" x="829.283461" y="322.798092" style="stroke: #000000"/>
     <use xlink:href="#m6004a4913f" x="834.252533" y="411.085973" style="stroke: #000000"/>
     <use xlink:href="#m6004a4913f" x="839.381897" y="411.085973" style="stroke: #000000"/>
     <use xlink:href="#m6004a4913f" x="844.350968" y="322.798092" style="stroke: #000000"/>
     <use xlink:href="#m6004a4913f" x="849.320039" y="411.085973" style="stroke: #000000"/>
     <use xlink:href="#m6004a4913f" x="854.289111" y="322.798092" style="stroke: #000000"/>
     <use xlink:href="#m6004a4913f" x="859.418475" y="411.085973" style="stroke: #000000"/>
     <use xlink:href="#m6004a4913f" x="864.387546" y="411.085973" style="stroke: #000000"/>
     <use xlink:href="#m6004a4913f" x="869.356618" y="322.798092" style="stroke: #000000"/>
     <use xlink:href="#m6004a4913f" x="874.325689" y="411.085973" style="stroke: #000000"/>
     <use xlink:href="#m6004a4913f" x="879.455053" y="411.085973" style="stroke: #000000"/>
     <use xlink:href="#m6004a4913f" x="884.424124" y="322.798092" style="stroke: #000000"/>
     <use xlink:href="#m6004a4913f" x="889.393196" y="411.085973" style="stroke: #000000"/>
     <use xlink:href="#m6004a4913f" x="894.362267" y="322.798092" style="stroke: #000000"/>
     <use xlink:href="#m6004a4913f" x="899.491631" y="411.085973" style="stroke: #000000"/>
     <use xlink:href="#m6004a4913f" x="904.460702" y="411.085973" style="stroke: #000000"/>
     <use xlink:href="#m6004a4913f" x="909.429774" y="322.798092" style="stroke: #000000"/>
     <use xlink:href="#m6004a4913f" x="914.398845" y="411.085973" style="stroke: #000000"/>
     <use xlink:href="#m6004a4913f" x="919.528209" y="411.085973" style="stroke: #000000"/>
     <use xlink:href="#m6004a4913f" x="924.497281" y="322.798092" style="stroke: #000000"/>
     <use xlink:href="#m6004a4913f" x="929.466352" y="411.085973" style="stroke: #000000"/>
    </g>
   </g>
   <g id="patch_3">
    <path d="M 135 448.56 
L 135 60.48 
" style="fill: none; stroke: #000000; stroke-width: 0.8; stroke-linejoin: miter; stroke-linecap: square"/>
   </g>
   <g id="patch_4">
    <path d="M 972 448.56 
L 972 60.48 
" style="fill: none; stroke: #000000; stroke-width: 0.8; stroke-linejoin: miter; stroke-linecap: square"/>
   </g>
   <g id="patch_5">
    <path d="M 135 448.56 
L 972 448.56 
" style="fill: none; stroke: #000000; stroke-width: 0.8; stroke-linejoin: miter; stroke-linecap: square"/>
   </g>
   <g id="patch_6">
    <path d="M 135 60.48 
L 972 60.48 
" style="fill: none; stroke: #000000; stroke-width: 0.8; stroke-linejoin: miter; stroke-linecap: square"/>
   </g>
   <g id="legend_1">
    <g id="patch_7">
     <path d="M 895.915625 113.070625 
L 965 113.070625 
Q 967 113.070625 967 111.070625 
L 967 67.48 
Q 967 65.48 965 65.48 
L 895.915625 65.48 
Q 893.915625 65.48 893.915625 67.48 
L 893.915625 111.070625 
Q 893.915625 113.070625 895.915625 113.070625 
z
" style="fill: #ffffff; opacity: 0.8; stroke: #cccccc; stroke-linejoin: miter"/>
    </g>
    <g id="line2d_17">
     <path d="M 897.915625 73.578438 
L 907.915625 73.578438 
L 917.915625 73.578438 
" style="fill: none; stroke: #1f77b4; stroke-width: 1.5; stroke-linecap: square"/>
    </g>
    <g id="text_15">
     <!-- nw_0 -->
     <g transform="translate(925.915625 77.078438) scale(0.1 -0.1)">
      <defs>
       <path id="DejaVuSans-6e" d="M 3513 2113 
L 3513 0 
L 2938 0 
L 2938 2094 
Q 2938 2591 2744 2837 
Q 2550 3084 2163 3084 
Q 1697 3084 1428 2787 
Q 1159 2491 1159 1978 
L 1159 0 
L 581 0 
L 581 3500 
L 1159 3500 
L 1159 2956 
Q 1366 3272 1645 3428 
Q 1925 3584 2291 3584 
Q 2894 3584 3203 3211 
Q 3513 2838 3513 2113 
z
" transform="scale(0.015625)"/>
       <path id="DejaVuSans-77" d="M 269 3500 
L 844 3500 
L 1563 769 
L 2278 3500 
L 2956 3500 
L 3675 769 
L 4391 3500 
L 4966 3500 
L 4050 0 
L 3372 0 
L 2619 2869 
L 1863 0 
L 1184 0 
L 269 3500 
z
" transform="scale(0.015625)"/>
       <path id="DejaVuSans-5f" d="M 3263 -1063 
L 3263 -1509 
L -63 -1509 
L -63 -1063 
L 3263 -1063 
z
" transform="scale(0.015625)"/>
      </defs>
      <use xlink:href="#DejaVuSans-6e"/>
      <use xlink:href="#DejaVuSans-77" x="63.378906"/>
      <use xlink:href="#DejaVuSans-5f" x="145.166016"/>
      <use xlink:href="#DejaVuSans-30" x="195.166016"/>
     </g>
    </g>
    <g id="line2d_18">
     <path d="M 897.915625 88.534688 
L 907.915625 88.534688 
L 917.915625 88.534688 
" style="fill: none; stroke: #ff7f0e; stroke-width: 1.5; stroke-linecap: square"/>
    </g>
    <g id="text_16">
     <!-- input_0 -->
     <g transform="translate(925.915625 92.034688) scale(0.1 -0.1)">
      <defs>
       <path id="DejaVuSans-69" d="M 603 3500 
L 1178 3500 
L 1178 0 
L 603 0 
L 603 3500 
z
M 603 4863 
L 1178 4863 
L 1178 4134 
L 603 4134 
L 603 4863 
z
" transform="scale(0.015625)"/>
       <path id="DejaVuSans-70" d="M 1159 525 
L 1159 -1331 
L 581 -1331 
L 581 3500 
L 1159 3500 
L 1159 2969 
Q 1341 3281 1617 3432 
Q 1894 3584 2278 3584 
Q 2916 3584 3314 3078 
Q 3713 2572 3713 1747 
Q 3713 922 3314 415 
Q 2916 -91 2278 -91 
Q 1894 -91 1617 61 
Q 1341 213 1159 525 
z
M 3116 1747 
Q 3116 2381 2855 2742 
Q 2594 3103 2138 3103 
Q 1681 3103 1420 2742 
Q 1159 2381 1159 1747 
Q 1159 1113 1420 752 
Q 1681 391 2138 391 
Q 2594 391 2855 752 
Q 3116 1113 3116 1747 
z
" transform="scale(0.015625)"/>
       <path id="DejaVuSans-75" d="M 544 1381 
L 544 3500 
L 1119 3500 
L 1119 1403 
Q 1119 906 1312 657 
Q 1506 409 1894 409 
Q 2359 409 2629 706 
Q 2900 1003 2900 1516 
L 2900 3500 
L 3475 3500 
L 3475 0 
L 2900 0 
L 2900 538 
Q 2691 219 2414 64 
Q 2138 -91 1772 -91 
Q 1169 -91 856 284 
Q 544 659 544 1381 
z
M 1991 3584 
L 1991 3584 
z
" transform="scale(0.015625)"/>
      </defs>
      <use xlink:href="#DejaVuSans-69"/>
      <use xlink:href="#DejaVuSans-6e" x="27.783203"/>
      <use xlink:href="#DejaVuSans-70" x="91.162109"/>
      <use xlink:href="#DejaVuSans-75" x="154.638672"/>
      <use xlink:href="#DejaVuSans-74" x="218.017578"/>
      <use xlink:href="#DejaVuSans-5f" x="257.226562"/>
      <use xlink:href="#DejaVuSans-30" x="307.226562"/>
     </g>
    </g>
    <g id="line2d_19">
     <path d="M 897.915625 103.490938 
L 907.915625 103.490938 
L 917.915625 103.490938 
" style="fill: none; stroke: #000000; stroke-width: 1.5; stroke-linecap: square"/>
     <g>
      <use xlink:href="#m6004a4913f" x="907.915625" y="103.490938" style="stroke: #000000"/>
     </g>
    </g>
    <g id="text_17">
     <!-- target -->
     <g transform="translate(925.915625 106.990938) scale(0.1 -0.1)">
      <defs>
       <path id="DejaVuSans-61" d="M 2194 1759 
Q 1497 1759 1228 1600 
Q 959 1441 959 1056 
Q 959 750 1161 570 
Q 1363 391 1709 391 
Q 2188 391 2477 730 
Q 2766 1069 2766 1631 
L 2766 1759 
L 2194 1759 
z
M 3341 1997 
L 3341 0 
L 2766 0 
L 2766 531 
Q 2569 213 2275 61 
Q 1981 -91 1556 -91 
Q 1019 -91 701 211 
Q 384 513 384 1019 
Q 384 1609 779 1909 
Q 1175 2209 1959 2209 
L 2766 2209 
L 2766 2266 
Q 2766 2663 2505 2880 
Q 2244 3097 1772 3097 
Q 1472 3097 1187 3025 
Q 903 2953 641 2809 
L 641 3341 
Q 956 3463 1253 3523 
Q 1550 3584 1831 3584 
Q 2591 3584 2966 3190 
Q 3341 2797 3341 1997 
z
" transform="scale(0.015625)"/>
       <path id="DejaVuSans-72" d="M 2631 2963 
Q 2534 3019 2420 3045 
Q 2306 3072 2169 3072 
Q 1681 3072 1420 2755 
Q 1159 2438 1159 1844 
L 1159 0 
L 581 0 
L 581 3500 
L 1159 3500 
L 1159 2956 
Q 1341 3275 1631 3429 
Q 1922 3584 2338 3584 
Q 2397 3584 2469 3576 
Q 2541 3569 2628 3553 
L 2631 2963 
z
" transform="scale(0.015625)"/>
       <path id="DejaVuSans-67" d="M 2906 1791 
Q 2906 2416 2648 2759 
Q 2391 3103 1925 3103 
Q 1463 3103 1205 2759 
Q 947 2416 947 1791 
Q 947 1169 1205 825 
Q 1463 481 1925 481 
Q 2391 481 2648 825 
Q 2906 1169 2906 1791 
z
M 3481 434 
Q 3481 -459 3084 -895 
Q 2688 -1331 1869 -1331 
Q 1566 -1331 1297 -1286 
Q 1028 -1241 775 -1147 
L 775 -588 
Q 1028 -725 1275 -790 
Q 1522 -856 1778 -856 
Q 2344 -856 2625 -561 
Q 2906 -266 2906 331 
L 2906 616 
Q 2728 306 2450 153 
Q 2172 0 1784 0 
Q 1141 0 747 490 
Q 353 981 353 1791 
Q 353 2603 747 3093 
Q 1141 3584 1784 3584 
Q 2172 3584 2450 3431 
Q 2728 3278 2906 2969 
L 2906 3500 
L 3481 3500 
L 3481 434 
z
" transform="scale(0.015625)"/>
       <path id="DejaVuSans-65" d="M 3597 1894 
L 3597 1613 
L 953 1613 
Q 991 1019 1311 708 
Q 1631 397 2203 397 
Q 2534 397 2845 478 
Q 3156 559 3463 722 
L 3463 178 
Q 3153 47 2828 -22 
Q 2503 -91 2169 -91 
Q 1331 -91 842 396 
Q 353 884 353 1716 
Q 353 2575 817 3079 
Q 1281 3584 2069 3584 
Q 2775 3584 3186 3129 
Q 3597 2675 3597 1894 
z
M 3022 2063 
Q 3016 2534 2758 2815 
Q 2500 3097 2075 3097 
Q 1594 3097 1305 2825 
Q 1016 2553 972 2059 
L 3022 2063 
z
" transform="scale(0.015625)"/>
      </defs>
      <use xlink:href="#DejaVuSans-74"/>
      <use xlink:href="#DejaVuSans-61" x="39.208984"/>
      <use xlink:href="#DejaVuSans-72" x="100.488281"/>
      <use xlink:href="#DejaVuSans-67" x="139.851562"/>
      <use xlink:href="#DejaVuSans-65" x="203.328125"/>
      <use xlink:href="#DejaVuSans-74" x="264.851562"/>
     </g>
    </g>
   </g>
  </g>
 </g>
 <defs>
  <clipPath id="p6bb6f963ec">
   <rect x="135" y="60.48" width="837" height="388.08"/>
  </clipPath>
 </defs>
</svg>
