<?xml version="1.0" encoding="utf-8" standalone="no"?>
<!DOCTYPE svg PUBLIC "-//W3C//DTD SVG 1.1//EN"
  "http://www.w3.org/Graphics/SVG/1.1/DTD/svg11.dtd">
<svg xmlns:xlink="http://www.w3.org/1999/xlink" width="1080pt" height="504pt" viewBox="0 0 1080 504" xmlns="http://www.w3.org/2000/svg" version="1.1">
 <metadata>
  <rdf:RDF xmlns:dc="http://purl.org/dc/elements/1.1/" xmlns:cc="http://creativecommons.org/ns#" xmlns:rdf="http://www.w3.org/1999/02/22-rdf-syntax-ns#">
   <cc:Work>
    <dc:type rdf:resource="http://purl.org/dc/dcmitype/StillImage"/>
    <dc:date>2024-05-09T11:05:04.415758</dc:date>
    <dc:format>image/svg+xml</dc:format>
    <dc:creator>
     <cc:Agent>
      <dc:title>Matplotlib v3.7.1, https://matplotlib.org/</dc:title>
     </cc:Agent>
    </dc:creator>
   </cc:Work>
  </rdf:RDF>
 </metadata>
 <defs>
  <style type="text/css">*{stroke-linejoin: round; stroke-linecap: butt}</style>
 </defs>
 <g id="figure_1">
  <g id="patch_1">
   <path d="M 0 504 
L 1080 504 
L 1080 0 
L 0 0 
z
" style="fill: #ffffff"/>
  </g>
  <g id="axes_1">
   <g id="patch_2">
    <path d="M 135 448.56 
L 972 448.56 
L 972 60.48 
L 135 60.48 
z
" style="fill: #ffffff"/>
   </g>
   <g id="matplotlib.axis_1">
    <g id="xtick_1">
     <g id="line2d_1">
      <defs>
       <path id="mbfd4187d17" d="M 0 0 
L 0 3.5 
" style="stroke: #000000; stroke-width: 0.8"/>
      </defs>
      <g>
       <use xlink:href="#mbfd4187d17" x="173.045455" y="448.56" style="stroke: #000000; stroke-width: 0.8"/>
      </g>
     </g>
     <g id="text_1">
      <!-- 0 -->
      <g transform="translate(169.864205 463.158437) scale(0.1 -0.1)">
       <defs>
        <path id="DejaVuSans-30" d="M 2034 4250 
Q 1547 4250 1301 3770 
Q 1056 3291 1056 2328 
Q 1056 1369 1301 889 
Q 1547 409 2034 409 
Q 2525 409 2770 889 
Q 3016 1369 3016 2328 
Q 3016 3291 2770 3770 
Q 2525 4250 2034 4250 
z
M 2034 4750 
Q 2819 4750 3233 4129 
Q 3647 3509 3647 2328 
Q 3647 1150 3233 529 
Q 2819 -91 2034 -91 
Q 1250 -91 836 529 
Q 422 1150 422 2328 
Q 422 3509 836 4129 
Q 1250 4750 2034 4750 
z
" transform="scale(0.015625)"/>
       </defs>
       <use xlink:href="#DejaVuSans-30"/>
      </g>
     </g>
    </g>
    <g id="xtick_2">
     <g id="line2d_2">
      <g>
       <use xlink:href="#mbfd4187d17" x="333.33808" y="448.56" style="stroke: #000000; stroke-width: 0.8"/>
      </g>
     </g>
     <g id="text_2">
      <!-- 1000 -->
      <g transform="translate(320.61308 463.158437) scale(0.1 -0.1)">
       <defs>
        <path id="DejaVuSans-31" d="M 794 531 
L 1825 531 
L 1825 4091 
L 703 3866 
L 703 4441 
L 1819 4666 
L 2450 4666 
L 2450 531 
L 3481 531 
L 3481 0 
L 794 0 
L 794 531 
z
" transform="scale(0.015625)"/>
       </defs>
       <use xlink:href="#DejaVuSans-31"/>
       <use xlink:href="#DejaVuSans-30" x="63.623047"/>
       <use xlink:href="#DejaVuSans-30" x="127.246094"/>
       <use xlink:href="#DejaVuSans-30" x="190.869141"/>
      </g>
     </g>
    </g>
    <g id="xtick_3">
     <g id="line2d_3">
      <g>
       <use xlink:href="#mbfd4187d17" x="493.630705" y="448.56" style="stroke: #000000; stroke-width: 0.8"/>
      </g>
     </g>
     <g id="text_3">
      <!-- 2000 -->
      <g transform="translate(480.905705 463.158437) scale(0.1 -0.1)">
       <defs>
        <path id="DejaVuSans-32" d="M 1228 531 
L 3431 531 
L 3431 0 
L 469 0 
L 469 531 
Q 828 903 1448 1529 
Q 2069 2156 2228 2338 
Q 2531 2678 2651 2914 
Q 2772 3150 2772 3378 
Q 2772 3750 2511 3984 
Q 2250 4219 1831 4219 
Q 1534 4219 1204 4116 
Q 875 4013 500 3803 
L 500 4441 
Q 881 4594 1212 4672 
Q 1544 4750 1819 4750 
Q 2544 4750 2975 4387 
Q 3406 4025 3406 3419 
Q 3406 3131 3298 2873 
Q 3191 2616 2906 2266 
Q 2828 2175 2409 1742 
Q 1991 1309 1228 531 
z
" transform="scale(0.015625)"/>
       </defs>
       <use xlink:href="#DejaVuSans-32"/>
       <use xlink:href="#DejaVuSans-30" x="63.623047"/>
       <use xlink:href="#DejaVuSans-30" x="127.246094"/>
       <use xlink:href="#DejaVuSans-30" x="190.869141"/>
      </g>
     </g>
    </g>
    <g id="xtick_4">
     <g id="line2d_4">
      <g>
       <use xlink:href="#mbfd4187d17" x="653.92333" y="448.56" style="stroke: #000000; stroke-width: 0.8"/>
      </g>
     </g>
     <g id="text_4">
      <!-- 3000 -->
      <g transform="translate(641.19833 463.158437) scale(0.1 -0.1)">
       <defs>
        <path id="DejaVuSans-33" d="M 2597 2516 
Q 3050 2419 3304 2112 
Q 3559 1806 3559 1356 
Q 3559 666 3084 287 
Q 2609 -91 1734 -91 
Q 1441 -91 1130 -33 
Q 819 25 488 141 
L 488 750 
Q 750 597 1062 519 
Q 1375 441 1716 441 
Q 2309 441 2620 675 
Q 2931 909 2931 1356 
Q 2931 1769 2642 2001 
Q 2353 2234 1838 2234 
L 1294 2234 
L 1294 2753 
L 1863 2753 
Q 2328 2753 2575 2939 
Q 2822 3125 2822 3475 
Q 2822 3834 2567 4026 
Q 2313 4219 1838 4219 
Q 1578 4219 1281 4162 
Q 984 4106 628 3988 
L 628 4550 
Q 988 4650 1302 4700 
Q 1616 4750 1894 4750 
Q 2613 4750 3031 4423 
Q 3450 4097 3450 3541 
Q 3450 3153 3228 2886 
Q 3006 2619 2597 2516 
z
" transform="scale(0.015625)"/>
       </defs>
       <use xlink:href="#DejaVuSans-33"/>
       <use xlink:href="#DejaVuSans-30" x="63.623047"/>
       <use xlink:href="#DejaVuSans-30" x="127.246094"/>
       <use xlink:href="#DejaVuSans-30" x="190.869141"/>
      </g>
     </g>
    </g>
    <g id="xtick_5">
     <g id="line2d_5">
      <g>
       <use xlink:href="#mbfd4187d17" x="814.215955" y="448.56" style="stroke: #000000; stroke-width: 0.8"/>
      </g>
     </g>
     <g id="text_5">
      <!-- 4000 -->
      <g transform="translate(801.490955 463.158437) scale(0.1 -0.1)">
       <defs>
        <path id="DejaVuSans-34" d="M 2419 4116 
L 825 1625 
L 2419 1625 
L 2419 4116 
z
M 2253 4666 
L 3047 4666 
L 3047 1625 
L 3713 1625 
L 3713 1100 
L 3047 1100 
L 3047 0 
L 2419 0 
L 2419 1100 
L 313 1100 
L 313 1709 
L 2253 4666 
z
" transform="scale(0.015625)"/>
       </defs>
       <use xlink:href="#DejaVuSans-34"/>
       <use xlink:href="#DejaVuSans-30" x="63.623047"/>
       <use xlink:href="#DejaVuSans-30" x="127.246094"/>
       <use xlink:href="#DejaVuSans-30" x="190.869141"/>
      </g>
     </g>
    </g>
    <g id="text_6">
     <!-- t -->
     <g transform="translate(551.539844 476.836563) scale(0.1 -0.1)">
      <defs>
       <path id="DejaVuSans-74" d="M 1172 4494 
L 1172 3500 
L 2356 3500 
L 2356 3053 
L 1172 3053 
L 1172 1153 
Q 1172 725 1289 603 
Q 1406 481 1766 481 
L 2356 481 
L 2356 0 
L 1766 0 
Q 1100 0 847 248 
Q 594 497 594 1153 
L 594 3053 
L 172 3053 
L 172 3500 
L 594 3500 
L 594 4494 
L 1172 4494 
z
" transform="scale(0.015625)"/>
      </defs>
      <use xlink:href="#DejaVuSans-74"/>
     </g>
    </g>
   </g>
   <g id="matplotlib.axis_2">
    <g id="ytick_1">
     <g id="line2d_6">
      <defs>
       <path id="m9197aee99e" d="M 0 0 
L -3.5 0 
" style="stroke: #000000; stroke-width: 0.8"/>
      </defs>
      <g>
       <use xlink:href="#m9197aee99e" x="135" y="446.563832" style="stroke: #000000; stroke-width: 0.8"/>
      </g>
     </g>
     <g id="text_7">
      <!-- −0.6 -->
      <g transform="translate(103.717187 450.363051) scale(0.1 -0.1)">
       <defs>
        <path id="DejaVuSans-2212" d="M 678 2272 
L 4684 2272 
L 4684 1741 
L 678 1741 
L 678 2272 
z
" transform="scale(0.015625)"/>
        <path id="DejaVuSans-2e" d="M 684 794 
L 1344 794 
L 1344 0 
L 684 0 
L 684 794 
z
" transform="scale(0.015625)"/>
        <path id="DejaVuSans-36" d="M 2113 2584 
Q 1688 2584 1439 2293 
Q 1191 2003 1191 1497 
Q 1191 994 1439 701 
Q 1688 409 2113 409 
Q 2538 409 2786 701 
Q 3034 994 3034 1497 
Q 3034 2003 2786 2293 
Q 2538 2584 2113 2584 
z
M 3366 4563 
L 3366 3988 
Q 3128 4100 2886 4159 
Q 2644 4219 2406 4219 
Q 1781 4219 1451 3797 
Q 1122 3375 1075 2522 
Q 1259 2794 1537 2939 
Q 1816 3084 2150 3084 
Q 2853 3084 3261 2657 
Q 3669 2231 3669 1497 
Q 3669 778 3244 343 
Q 2819 -91 2113 -91 
Q 1303 -91 875 529 
Q 447 1150 447 2328 
Q 447 3434 972 4092 
Q 1497 4750 2381 4750 
Q 2619 4750 2861 4703 
Q 3103 4656 3366 4563 
z
" transform="scale(0.015625)"/>
       </defs>
       <use xlink:href="#DejaVuSans-2212"/>
       <use xlink:href="#DejaVuSans-30" x="83.789062"/>
       <use xlink:href="#DejaVuSans-2e" x="147.412109"/>
       <use xlink:href="#DejaVuSans-36" x="179.199219"/>
      </g>
     </g>
    </g>
    <g id="ytick_2">
     <g id="line2d_7">
      <g>
       <use xlink:href="#m9197aee99e" x="135" y="400.508353" style="stroke: #000000; stroke-width: 0.8"/>
      </g>
     </g>
     <g id="text_8">
      <!-- −0.4 -->
      <g transform="translate(103.717187 404.307572) scale(0.1 -0.1)">
       <use xlink:href="#DejaVuSans-2212"/>
       <use xlink:href="#DejaVuSans-30" x="83.789062"/>
       <use xlink:href="#DejaVuSans-2e" x="147.412109"/>
       <use xlink:href="#DejaVuSans-34" x="179.199219"/>
      </g>
     </g>
    </g>
    <g id="ytick_3">
     <g id="line2d_8">
      <g>
       <use xlink:href="#m9197aee99e" x="135" y="354.452874" style="stroke: #000000; stroke-width: 0.8"/>
      </g>
     </g>
     <g id="text_9">
      <!-- −0.2 -->
      <g transform="translate(103.717187 358.252093) scale(0.1 -0.1)">
       <use xlink:href="#DejaVuSans-2212"/>
       <use xlink:href="#DejaVuSans-30" x="83.789062"/>
       <use xlink:href="#DejaVuSans-2e" x="147.412109"/>
       <use xlink:href="#DejaVuSans-32" x="179.199219"/>
      </g>
     </g>
    </g>
    <g id="ytick_4">
     <g id="line2d_9">
      <g>
       <use xlink:href="#m9197aee99e" x="135" y="308.397395" style="stroke: #000000; stroke-width: 0.8"/>
      </g>
     </g>
     <g id="text_10">
      <!-- 0.0 -->
      <g transform="translate(112.096875 312.196614) scale(0.1 -0.1)">
       <use xlink:href="#DejaVuSans-30"/>
       <use xlink:href="#DejaVuSans-2e" x="63.623047"/>
       <use xlink:href="#DejaVuSans-30" x="95.410156"/>
      </g>
     </g>
    </g>
    <g id="ytick_5">
     <g id="line2d_10">
      <g>
       <use xlink:href="#m9197aee99e" x="135" y="262.341916" style="stroke: #000000; stroke-width: 0.8"/>
      </g>
     </g>
     <g id="text_11">
      <!-- 0.2 -->
      <g transform="translate(112.096875 266.141135) scale(0.1 -0.1)">
       <use xlink:href="#DejaVuSans-30"/>
       <use xlink:href="#DejaVuSans-2e" x="63.623047"/>
       <use xlink:href="#DejaVuSans-32" x="95.410156"/>
      </g>
     </g>
    </g>
    <g id="ytick_6">
     <g id="line2d_11">
      <g>
       <use xlink:href="#m9197aee99e" x="135" y="216.286437" style="stroke: #000000; stroke-width: 0.8"/>
      </g>
     </g>
     <g id="text_12">
      <!-- 0.4 -->
      <g transform="translate(112.096875 220.085656) scale(0.1 -0.1)">
       <use xlink:href="#DejaVuSans-30"/>
       <use xlink:href="#DejaVuSans-2e" x="63.623047"/>
       <use xlink:href="#DejaVuSans-34" x="95.410156"/>
      </g>
     </g>
    </g>
    <g id="ytick_7">
     <g id="line2d_12">
      <g>
       <use xlink:href="#m9197aee99e" x="135" y="170.230958" style="stroke: #000000; stroke-width: 0.8"/>
      </g>
     </g>
     <g id="text_13">
      <!-- 0.6 -->
      <g transform="translate(112.096875 174.030177) scale(0.1 -0.1)">
       <use xlink:href="#DejaVuSans-30"/>
       <use xlink:href="#DejaVuSans-2e" x="63.623047"/>
       <use xlink:href="#DejaVuSans-36" x="95.410156"/>
      </g>
     </g>
    </g>
    <g id="ytick_8">
     <g id="line2d_13">
      <g>
       <use xlink:href="#m9197aee99e" x="135" y="124.175479" style="stroke: #000000; stroke-width: 0.8"/>
      </g>
     </g>
     <g id="text_14">
      <!-- 0.8 -->
      <g transform="translate(112.096875 127.974698) scale(0.1 -0.1)">
       <defs>
        <path id="DejaVuSans-38" d="M 2034 2216 
Q 1584 2216 1326 1975 
Q 1069 1734 1069 1313 
Q 1069 891 1326 650 
Q 1584 409 2034 409 
Q 2484 409 2743 651 
Q 3003 894 3003 1313 
Q 3003 1734 2745 1975 
Q 2488 2216 2034 2216 
z
M 1403 2484 
Q 997 2584 770 2862 
Q 544 3141 544 3541 
Q 544 4100 942 4425 
Q 1341 4750 2034 4750 
Q 2731 4750 3128 4425 
Q 3525 4100 3525 3541 
Q 3525 3141 3298 2862 
Q 3072 2584 2669 2484 
Q 3125 2378 3379 2068 
Q 3634 1759 3634 1313 
Q 3634 634 3220 271 
Q 2806 -91 2034 -91 
Q 1263 -91 848 271 
Q 434 634 434 1313 
Q 434 1759 690 2068 
Q 947 2378 1403 2484 
z
M 1172 3481 
Q 1172 3119 1398 2916 
Q 1625 2713 2034 2713 
Q 2441 2713 2670 2916 
Q 2900 3119 2900 3481 
Q 2900 3844 2670 4047 
Q 2441 4250 2034 4250 
Q 1625 4250 1398 4047 
Q 1172 3844 1172 3481 
z
" transform="scale(0.015625)"/>
       </defs>
       <use xlink:href="#DejaVuSans-30"/>
       <use xlink:href="#DejaVuSans-2e" x="63.623047"/>
       <use xlink:href="#DejaVuSans-38" x="95.410156"/>
      </g>
     </g>
    </g>
    <g id="ytick_9">
     <g id="line2d_14">
      <g>
       <use xlink:href="#m9197aee99e" x="135" y="78.12" style="stroke: #000000; stroke-width: 0.8"/>
      </g>
     </g>
     <g id="text_15">
      <!-- 1.0 -->
      <g transform="translate(112.096875 81.919219) scale(0.1 -0.1)">
       <use xlink:href="#DejaVuSans-31"/>
       <use xlink:href="#DejaVuSans-2e" x="63.623047"/>
       <use xlink:href="#DejaVuSans-30" x="95.410156"/>
      </g>
     </g>
    </g>
   </g>
   <g id="line2d_15">
    <path d="M 173.045455 132.499482 
L 173.205747 111.22589 
L 173.526332 151.22578 
L 173.686625 158.199359 
L 173.846918 153.637239 
L 174.808673 90.298896 
L 174.968966 88.312548 
L 175.129259 88.495916 
L 175.449844 92.906676 
L 176.571892 113.984465 
L 177.533648 126.026134 
L 177.693941 127.851538 
L 177.854233 378.650126 
L 178.014526 430.92 
L 178.174819 402.445075 
L 178.655696 270.889077 
L 178.976282 243.836709 
L 179.136574 244.416105 
L 179.45716 258.035495 
L 180.09833 289.957336 
L 180.579208 304.805875 
L 181.060086 314.118821 
L 181.540964 320.040323 
L 181.861549 322.241245 
L 182.182134 322.926726 
L 182.342427 322.687791 
L 182.663012 321.095979 
L 183.14389 316.322165 
L 183.945353 304.649656 
L 184.907109 290.870262 
L 185.548279 284.785428 
L 186.029157 282.416107 
L 186.349742 281.856752 
L 186.510035 281.855861 
L 186.83062 282.345578 
L 187.151206 283.388229 
L 187.792376 286.613749 
L 190.036473 299.471804 
L 190.837936 302.519937 
L 191.639399 304.654137 
L 192.440862 306.07908 
L 193.242325 306.997848 
L 194.043788 307.573148 
L 195.005544 307.974277 
L 196.287885 308.231511 
L 198.211397 308.359178 
L 203.501053 308.396515 
L 213.278903 308.397392 
L 213.439196 132.49948 
L 213.599489 111.225888 
L 213.920074 151.225778 
L 214.080367 158.199358 
L 214.240659 153.637238 
L 215.202415 90.298895 
L 215.362708 88.312547 
L 215.523 88.495916 
L 215.843585 92.906676 
L 216.965634 113.984465 
L 217.92739 126.026134 
L 218.087682 127.851538 
L 218.247975 378.650126 
L 218.408267 430.92 
L 218.56856 402.445075 
L 219.049438 270.889077 
L 219.370023 243.836709 
L 219.530316 244.416105 
L 219.850901 258.035495 
L 220.492072 289.957336 
L 220.972949 304.805875 
L 221.453827 314.118821 
L 221.934705 320.040323 
L 222.25529 322.241245 
L 222.575876 322.926726 
L 222.736168 322.687791 
L 223.056754 321.095979 
L 223.537631 316.322165 
L 224.339095 304.649656 
L 225.30085 290.870262 
L 225.942021 284.785428 
L 226.422899 282.416107 
L 226.743484 281.856752 
L 226.903777 281.855861 
L 227.224362 282.345578 
L 227.544947 283.388229 
L 228.186118 286.613749 
L 230.430214 299.471804 
L 231.231677 302.519937 
L 232.033141 304.654137 
L 232.834604 306.07908 
L 233.636067 306.997848 
L 234.43753 307.573148 
L 235.399286 307.974277 
L 236.681627 308.231511 
L 238.605138 308.359178 
L 243.894795 308.396515 
L 253.99323 308.397393 
L 254.153523 132.49948 
L 254.313815 111.225888 
L 254.634401 151.225779 
L 254.794693 158.199358 
L 254.954986 153.637238 
L 255.916742 90.298895 
L 256.077034 88.312548 
L 256.237327 88.495916 
L 256.557912 92.906676 
L 257.679961 113.984465 
L 258.641716 126.026134 
L 258.802009 127.851538 
L 258.962302 378.650126 
L 259.122594 430.92 
L 259.282887 402.445075 
L 259.763765 270.889077 
L 260.08435 243.836709 
L 260.244643 244.416105 
L 260.565228 258.035495 
L 261.206398 289.957336 
L 261.687276 304.805875 
L 262.168154 314.118821 
L 262.649032 320.040323 
L 262.969617 322.241245 
L 263.290202 322.926726 
L 263.450495 322.687791 
L 263.77108 321.095979 
L 264.251958 316.322165 
L 265.053421 304.649656 
L 266.015177 290.870262 
L 266.656348 284.785428 
L 267.137225 282.416107 
L 267.457811 281.856752 
L 267.618103 281.855861 
L 267.938689 282.345578 
L 268.259274 283.388229 
L 268.900444 286.613749 
L 271.144541 299.471804 
L 271.946004 302.519937 
L 272.747467 304.654137 
L 273.54893 306.07908 
L 274.350394 306.997848 
L 275.151857 307.573148 
L 276.113612 307.974277 
L 277.395953 308.231511 
L 279.319465 308.359178 
L 284.609122 308.396515 
L 293.585509 308.397391 
L 293.745801 132.499478 
L 293.906094 111.225887 
L 294.226679 151.225777 
L 294.386972 158.199357 
L 294.547264 153.637237 
L 295.50902 90.298895 
L 295.669313 88.312547 
L 295.829605 88.495915 
L 296.150191 92.906675 
L 297.272239 113.984465 
L 298.233995 126.026134 
L 298.394287 127.851538 
L 298.55458 378.650126 
L 298.714873 430.92 
L 298.875165 402.445075 
L 299.356043 270.889077 
L 299.676628 243.836709 
L 299.836921 244.416105 
L 300.157506 258.035495 
L 300.798677 289.957336 
L 301.279555 304.805875 
L 301.760432 314.118821 
L 302.24131 320.040323 
L 302.561896 322.241245 
L 302.882481 322.926726 
L 303.042773 322.687791 
L 303.363359 321.095979 
L 303.844237 316.322165 
L 304.6457 304.649656 
L 305.607455 290.870262 
L 306.248626 284.785428 
L 306.729504 282.416107 
L 307.050089 281.856752 
L 307.210382 281.855861 
L 307.530967 282.345578 
L 307.851552 283.388229 
L 308.492723 286.613749 
L 310.736819 299.471804 
L 311.538283 302.519937 
L 312.339746 304.654137 
L 313.141209 306.07908 
L 313.942672 306.997848 
L 314.744135 307.573148 
L 315.705891 307.974277 
L 316.988232 308.231511 
L 318.911743 308.359178 
L 324.2014 308.396515 
L 333.818957 308.397392 
L 333.97925 132.49948 
L 334.139543 111.225888 
L 334.460128 151.225778 
L 334.620421 158.199358 
L 334.780713 153.637238 
L 335.742469 90.298895 
L 335.902762 88.312547 
L 336.063054 88.495916 
L 336.383639 92.906675 
L 337.505688 113.984465 
L 338.467444 126.026134 
L 338.627736 127.851538 
L 338.788029 378.650126 
L 338.948321 430.92 
L 339.108614 402.445075 
L 339.589492 270.889077 
L 339.910077 243.836709 
L 340.07037 244.416105 
L 340.390955 258.035495 
L 341.032126 289.957336 
L 341.513003 304.805875 
L 341.993881 314.118821 
L 342.474759 320.040323 
L 342.795344 322.241245 
L 343.11593 322.926726 
L 343.276222 322.687791 
L 343.596808 321.095979 
L 344.077685 316.322165 
L 344.879149 304.649656 
L 345.840904 290.870262 
L 346.482075 284.785428 
L 346.962953 282.416107 
L 347.283538 281.856752 
L 347.443831 281.855861 
L 347.764416 282.345578 
L 348.085001 283.388229 
L 348.726172 286.613749 
L 350.970268 299.471804 
L 351.771731 302.519937 
L 352.573195 304.654137 
L 353.374658 306.07908 
L 354.176121 306.997848 
L 354.977584 307.573148 
L 355.93934 307.974277 
L 357.221681 308.231511 
L 359.145192 308.359178 
L 364.434849 308.396515 
L 373.090651 308.39739 
L 373.250943 132.499478 
L 373.411236 111.225886 
L 373.731821 151.225777 
L 373.892114 158.199356 
L 374.052406 153.637237 
L 375.014162 90.298894 
L 375.174455 88.312547 
L 375.334747 88.495915 
L 375.655333 92.906675 
L 376.777381 113.984465 
L 377.739137 126.026134 
L 377.899429 127.851538 
L 378.059722 378.650126 
L 378.220015 430.92 
L 378.380307 402.445075 
L 378.861185 270.889077 
L 379.18177 243.836709 
L 379.342063 244.416105 
L 379.662648 258.035495 
L 380.303819 289.957336 
L 380.784697 304.805875 
L 381.265574 314.118821 
L 381.746452 320.040323 
L 382.067038 322.241245 
L 382.387623 322.926726 
L 382.547915 322.687791 
L 382.868501 321.095979 
L 383.349379 316.322165 
L 384.150842 304.649656 
L 385.112597 290.870262 
L 385.753768 284.785428 
L 386.234646 282.416107 
L 386.555231 281.856752 
L 386.715524 281.855861 
L 387.036109 282.345578 
L 387.356694 283.388229 
L 387.997865 286.613749 
L 390.241961 299.471804 
L 391.043425 302.519937 
L 391.844888 304.654137 
L 392.646351 306.07908 
L 393.447814 306.997848 
L 394.249277 307.573148 
L 395.211033 307.974277 
L 396.493374 308.231511 
L 398.416885 308.359178 
L 403.706542 308.396515 
L 413.644685 308.397393 
L 413.804977 132.49948 
L 413.96527 111.225888 
L 414.285855 151.225778 
L 414.446148 158.199358 
L 414.60644 153.637238 
L 415.568196 90.298895 
L 415.728489 88.312548 
L 415.888781 88.495916 
L 416.209367 92.906676 
L 417.331415 113.984465 
L 418.293171 126.026134 
L 418.453463 127.851538 
L 418.613756 378.650126 
L 418.774049 430.92 
L 418.934341 402.445075 
L 419.415219 270.889077 
L 419.735804 243.836709 
L 419.896097 244.416105 
L 420.216682 258.035495 
L 420.857853 289.957336 
L 421.338731 304.805875 
L 421.819609 314.118821 
L 422.300486 320.040323 
L 422.621072 322.241245 
L 422.941657 322.926726 
L 423.10195 322.687791 
L 423.422535 321.095979 
L 423.903413 316.322165 
L 424.704876 304.649656 
L 425.666632 290.870262 
L 426.307802 284.785428 
L 426.78868 282.416107 
L 427.109265 281.856752 
L 427.269558 281.855861 
L 427.590143 282.345578 
L 427.910728 283.388229 
L 428.551899 286.613749 
L 430.795996 299.471804 
L 431.597459 302.519937 
L 432.398922 304.654137 
L 433.200385 306.07908 
L 434.001848 306.997848 
L 434.803311 307.573148 
L 435.765067 307.974277 
L 437.047408 308.231511 
L 438.970919 308.359178 
L 444.260576 308.396515 
L 453.557548 308.397392 
L 453.717841 132.499479 
L 453.878134 111.225887 
L 454.198719 151.225778 
L 454.359011 158.199357 
L 454.519304 153.637238 
L 455.48106 90.298895 
L 455.641352 88.312547 
L 455.801645 88.495916 
L 456.12223 92.906675 
L 457.244279 113.984465 
L 458.206034 126.026134 
L 458.366327 127.851538 
L 458.52662 378.650126 
L 458.686912 430.92 
L 458.847205 402.445075 
L 459.328083 270.889077 
L 459.648668 243.836709 
L 459.808961 244.416105 
L 460.129546 258.035495 
L 460.770716 289.957336 
L 461.251594 304.805875 
L 461.732472 314.118821 
L 462.21335 320.040323 
L 462.533935 322.241245 
L 462.854521 322.926726 
L 463.014813 322.687791 
L 463.335398 321.095979 
L 463.816276 316.322165 
L 464.617739 304.649656 
L 465.579495 290.870262 
L 466.220666 284.785428 
L 466.701544 282.416107 
L 467.022129 281.856752 
L 467.182421 281.855861 
L 467.503007 282.345578 
L 467.823592 283.388229 
L 468.464762 286.613749 
L 470.708859 299.471804 
L 471.510322 302.519937 
L 472.311785 304.654137 
L 473.113249 306.07908 
L 473.914712 306.997848 
L 474.716175 307.573148 
L 475.677931 307.974277 
L 476.960272 308.231511 
L 478.883783 308.359178 
L 484.17344 308.396515 
L 493.630705 308.397392 
L 493.790997 132.499479 
L 493.95129 111.225888 
L 494.271875 151.225778 
L 494.432168 158.199357 
L 494.59246 153.637238 
L 495.554216 90.298895 
L 495.714509 88.312547 
L 495.874801 88.495916 
L 496.195387 92.906675 
L 497.317435 113.984465 
L 498.279191 126.026134 
L 498.439483 127.851538 
L 498.599776 378.650126 
L 498.760069 430.92 
L 498.920361 402.445075 
L 499.401239 270.889077 
L 499.721824 243.836709 
L 499.882117 244.416105 
L 500.202702 258.035495 
L 500.843873 289.957336 
L 501.324751 304.805875 
L 501.805628 314.118821 
L 502.286506 320.040323 
L 502.607092 322.241245 
L 502.927677 322.926726 
L 503.087969 322.687791 
L 503.408555 321.095979 
L 503.889433 316.322165 
L 504.690896 304.649656 
L 505.652651 290.870262 
L 506.293822 284.785428 
L 506.7747 282.416107 
L 507.095285 281.856752 
L 507.255578 281.855861 
L 507.576163 282.345578 
L 507.896748 283.388229 
L 508.537919 286.613749 
L 510.782015 299.471804 
L 511.583479 302.519937 
L 512.384942 304.654137 
L 513.186405 306.07908 
L 513.987868 306.997848 
L 514.789331 307.573148 
L 515.751087 307.974277 
L 517.033428 308.231511 
L 518.956939 308.359178 
L 524.246596 308.396515 
L 533.864153 308.397392 
L 534.024446 132.49948 
L 534.184739 111.225888 
L 534.505324 151.225778 
L 534.665617 158.199358 
L 534.825909 153.637238 
L 535.787665 90.298895 
L 535.947958 88.312547 
L 536.10825 88.495916 
L 536.428835 92.906675 
L 537.550884 113.984465 
L 538.51264 126.026134 
L 538.672932 127.851538 
L 538.833225 378.650126 
L 538.993517 430.92 
L 539.15381 402.445075 
L 539.634688 270.889077 
L 539.955273 243.836709 
L 540.115566 244.416105 
L 540.436151 258.035495 
L 541.077322 289.957336 
L 541.558199 304.805875 
L 542.039077 314.118821 
L 542.519955 320.040323 
L 542.84054 322.241245 
L 543.161126 322.926726 
L 543.321418 322.687791 
L 543.642004 321.095979 
L 544.122881 316.322165 
L 544.924345 304.649656 
L 545.8861 290.870262 
L 546.527271 284.785428 
L 547.008149 282.416107 
L 547.328734 281.856752 
L 547.489027 281.855861 
L 547.809612 282.345578 
L 548.130197 283.388229 
L 548.771368 286.613749 
L 551.015464 299.471804 
L 551.816927 302.519937 
L 552.618391 304.654137 
L 553.419854 306.07908 
L 554.221317 306.997848 
L 555.02278 307.573148 
L 555.984536 307.974277 
L 557.266877 308.231511 
L 559.190388 308.359178 
L 564.480045 308.396515 
L 574.257895 308.397392 
L 574.418188 132.49948 
L 574.57848 111.225888 
L 574.899065 151.225778 
L 575.059358 158.199358 
L 575.219651 153.637238 
L 576.181406 90.298895 
L 576.341699 88.312547 
L 576.501992 88.495916 
L 576.822577 92.906676 
L 577.944625 113.984465 
L 578.906381 126.026134 
L 579.066674 127.851538 
L 579.226966 378.650126 
L 579.387259 430.92 
L 579.547552 402.445075 
L 580.028429 270.889077 
L 580.349015 243.836709 
L 580.509307 244.416105 
L 580.829893 258.035495 
L 581.471063 289.957336 
L 581.951941 304.805875 
L 582.432819 314.118821 
L 582.913697 320.040323 
L 583.234282 322.241245 
L 583.554867 322.926726 
L 583.71516 322.687791 
L 584.035745 321.095979 
L 584.516623 316.322165 
L 585.318086 304.649656 
L 586.279842 290.870262 
L 586.921012 284.785428 
L 587.40189 282.416107 
L 587.722475 281.856752 
L 587.882768 281.855861 
L 588.203353 282.345578 
L 588.523939 283.388229 
L 589.165109 286.613749 
L 591.409206 299.471804 
L 592.210669 302.519937 
L 593.012132 304.654137 
L 593.813595 306.07908 
L 594.615058 306.997848 
L 595.416521 307.573148 
L 596.378277 307.974277 
L 597.660618 308.231511 
L 599.58413 308.359178 
L 604.873786 308.396515 
L 613.209003 308.397389 
L 613.369295 132.499477 
L 613.529588 111.225885 
L 613.850173 151.225776 
L 614.010466 158.199356 
L 614.170759 153.637236 
L 615.132514 90.298894 
L 615.292807 88.312547 
L 615.4531 88.495915 
L 615.773685 92.906675 
L 616.895733 113.984465 
L 617.857489 126.026134 
L 618.017782 127.851538 
L 618.178074 378.650126 
L 618.338367 430.92 
L 618.498659 402.445075 
L 618.979537 270.889077 
L 619.300123 243.836709 
L 619.460415 244.416105 
L 619.781 258.035495 
L 620.422171 289.957336 
L 620.903049 304.805875 
L 621.383927 314.118821 
L 621.864805 320.040323 
L 622.18539 322.241245 
L 622.505975 322.926726 
L 622.666268 322.687791 
L 622.986853 321.095979 
L 623.467731 316.322165 
L 624.269194 304.649656 
L 625.23095 290.870262 
L 625.87212 284.785428 
L 626.352998 282.416107 
L 626.673583 281.856752 
L 626.833876 281.855861 
L 627.154461 282.345578 
L 627.475046 283.388229 
L 628.116217 286.613749 
L 630.360314 299.471804 
L 631.161777 302.519937 
L 631.96324 304.654137 
L 632.764703 306.07908 
L 633.566166 306.997848 
L 634.367629 307.573148 
L 635.329385 307.974277 
L 636.611726 308.231511 
L 638.535238 308.359178 
L 643.824894 308.396515 
L 653.92333 308.397393 
L 654.083622 132.49948 
L 654.243915 111.225888 
L 654.5645 151.225779 
L 654.724793 158.199358 
L 654.885085 153.637238 
L 655.846841 90.298895 
L 656.007134 88.312548 
L 656.167426 88.495916 
L 656.488012 92.906676 
L 657.61006 113.984465 
L 658.571816 126.026134 
L 658.732108 127.851538 
L 658.892401 378.650126 
L 659.052694 430.92 
L 659.212986 402.445075 
L 659.693864 270.889077 
L 660.014449 243.836709 
L 660.174742 244.416105 
L 660.495327 258.035495 
L 661.136498 289.957336 
L 661.617376 304.805875 
L 662.098253 314.118821 
L 662.579131 320.040323 
L 662.899717 322.241245 
L 663.220302 322.926726 
L 663.380594 322.687791 
L 663.70118 321.095979 
L 664.182058 316.322165 
L 664.983521 304.649656 
L 665.945276 290.870262 
L 666.586447 284.785428 
L 667.067325 282.416107 
L 667.38791 281.856752 
L 667.548203 281.855861 
L 667.868788 282.345578 
L 668.189373 283.388229 
L 668.830544 286.613749 
L 671.07464 299.471804 
L 671.876104 302.519937 
L 672.677567 304.654137 
L 673.47903 306.07908 
L 674.280493 306.997848 
L 675.081956 307.573148 
L 676.043712 307.974277 
L 677.326053 308.231511 
L 679.249564 308.359178 
L 684.539221 308.396515 
L 694.156778 308.397392 
L 694.317071 132.49948 
L 694.477364 111.225888 
L 694.797949 151.225778 
L 694.958242 158.199358 
L 695.118534 153.637238 
L 696.08029 90.298895 
L 696.240583 88.312547 
L 696.400875 88.495916 
L 696.72146 92.906675 
L 697.843509 113.984465 
L 698.805265 126.026134 
L 698.965557 127.851538 
L 699.12585 378.650126 
L 699.286142 430.92 
L 699.446435 402.445075 
L 699.927313 270.889077 
L 700.247898 243.836709 
L 700.408191 244.416105 
L 700.728776 258.035495 
L 701.369947 289.957336 
L 701.850824 304.805875 
L 702.331702 314.118821 
L 702.81258 320.040323 
L 703.133165 322.241245 
L 703.453751 322.926726 
L 703.614043 322.687791 
L 703.934629 321.095979 
L 704.415506 316.322165 
L 705.21697 304.649656 
L 706.178725 290.870262 
L 706.819896 284.785428 
L 707.300774 282.416107 
L 707.621359 281.856752 
L 707.781652 281.855861 
L 708.102237 282.345578 
L 708.422822 283.388229 
L 709.063993 286.613749 
L 711.308089 299.471804 
L 712.109552 302.519937 
L 712.911016 304.654137 
L 713.712479 306.07908 
L 714.513942 306.997848 
L 715.315405 307.573148 
L 716.277161 307.974277 
L 717.559502 308.231511 
L 719.483013 308.359178 
L 724.77267 308.396515 
L 734.069642 308.397392 
L 734.229935 132.499479 
L 734.390227 111.225887 
L 734.710813 151.225778 
L 734.871105 158.199357 
L 735.031398 153.637238 
L 735.993154 90.298895 
L 736.153446 88.312547 
L 736.313739 88.495916 
L 736.634324 92.906675 
L 737.756372 113.984465 
L 738.718128 126.026134 
L 738.878421 127.851538 
L 739.038713 378.650126 
L 739.199006 430.92 
L 739.359299 402.445075 
L 739.840177 270.889077 
L 740.160762 243.836709 
L 740.321054 244.416105 
L 740.64164 258.035495 
L 741.28281 289.957336 
L 741.763688 304.805875 
L 742.244566 314.118821 
L 742.725444 320.040323 
L 743.046029 322.241245 
L 743.366614 322.926726 
L 743.526907 322.687791 
L 743.847492 321.095979 
L 744.32837 316.322165 
L 745.129833 304.649656 
L 746.091589 290.870262 
L 746.732759 284.785428 
L 747.213637 282.416107 
L 747.534223 281.856752 
L 747.694515 281.855861 
L 748.0151 282.345578 
L 748.335686 283.388229 
L 748.976856 286.613749 
L 751.220953 299.471804 
L 752.022416 302.519937 
L 752.823879 304.654137 
L 753.625342 306.07908 
L 754.426805 306.997848 
L 755.228269 307.573148 
L 756.190024 307.974277 
L 757.472365 308.231511 
L 759.395877 308.359178 
L 764.685533 308.396515 
L 773.822213 308.397391 
L 773.982506 132.499479 
L 774.142798 111.225887 
L 774.463384 151.225777 
L 774.623676 158.199357 
L 774.783969 153.637237 
L 775.745725 90.298895 
L 775.906017 88.312547 
L 776.06631 88.495915 
L 776.386895 92.906675 
L 777.508943 113.984465 
L 778.470699 126.026134 
L 778.630992 127.851538 
L 778.791284 378.650126 
L 778.951577 430.92 
L 779.11187 402.445075 
L 779.592748 270.889077 
L 779.913333 243.836709 
L 780.073625 244.416105 
L 780.394211 258.035495 
L 781.035381 289.957336 
L 781.516259 304.805875 
L 781.997137 314.118821 
L 782.478015 320.040323 
L 782.7986 322.241245 
L 783.119185 322.926726 
L 783.279478 322.687791 
L 783.600063 321.095979 
L 784.080941 316.322165 
L 784.882404 304.649656 
L 785.84416 290.870262 
L 786.48533 284.785428 
L 786.966208 282.416107 
L 787.286794 281.856752 
L 787.447086 281.855861 
L 787.767671 282.345578 
L 788.088257 283.388229 
L 788.729427 286.613749 
L 790.973524 299.471804 
L 791.774987 302.519937 
L 792.57645 304.654137 
L 793.377913 306.07908 
L 794.179376 306.997848 
L 794.98084 307.573148 
L 795.942595 307.974277 
L 797.224936 308.231511 
L 799.148448 308.359178 
L 804.438104 308.396515 
L 813.414491 308.397391 
L 813.574784 132.499478 
L 813.735077 111.225887 
L 814.055662 151.225777 
L 814.215955 158.199357 
L 814.376247 153.637237 
L 815.338003 90.298895 
L 815.498296 88.312547 
L 815.658588 88.495915 
L 815.979173 92.906675 
L 817.101222 113.984465 
L 818.062978 126.026134 
L 818.22327 127.851538 
L 818.383563 378.650126 
L 818.543855 430.92 
L 818.704148 402.445075 
L 819.185026 270.889077 
L 819.505611 243.836709 
L 819.665904 244.416105 
L 819.986489 258.035495 
L 820.62766 289.957336 
L 821.108537 304.805875 
L 821.589415 314.118821 
L 822.070293 320.040323 
L 822.390878 322.241245 
L 822.711464 322.926726 
L 822.871756 322.687791 
L 823.192342 321.095979 
L 823.673219 316.322165 
L 824.474683 304.649656 
L 825.436438 290.870262 
L 826.077609 284.785428 
L 826.558487 282.416107 
L 826.879072 281.856752 
L 827.039365 281.855861 
L 827.35995 282.345578 
L 827.680535 283.388229 
L 828.321706 286.613749 
L 830.565802 299.471804 
L 831.367265 302.519937 
L 832.168729 304.654137 
L 832.970192 306.07908 
L 833.771655 306.997848 
L 834.573118 307.573148 
L 835.534874 307.974277 
L 836.817215 308.231511 
L 838.740726 308.359178 
L 844.030383 308.396515 
L 854.609696 308.397393 
L 854.769989 132.499481 
L 854.930281 111.225889 
L 855.250867 151.225779 
L 855.411159 158.199358 
L 855.571452 153.637238 
L 856.533208 90.298895 
L 856.6935 88.312548 
L 856.853793 88.495916 
L 857.174378 92.906676 
L 858.296426 113.984465 
L 859.258182 126.026134 
L 859.418475 127.851538 
L 859.578767 378.650126 
L 859.73906 430.92 
L 859.899353 402.445075 
L 860.380231 270.889077 
L 860.700816 243.836709 
L 860.861108 244.416105 
L 861.181694 258.035495 
L 861.822864 289.957336 
L 862.303742 304.805875 
L 862.78462 314.118821 
L 863.265498 320.040323 
L 863.586083 322.241245 
L 863.906668 322.926726 
L 864.066961 322.687791 
L 864.387546 321.095979 
L 864.868424 316.322165 
L 865.669887 304.649656 
L 866.631643 290.870262 
L 867.272813 284.785428 
L 867.753691 282.416107 
L 868.074277 281.856752 
L 868.234569 281.855861 
L 868.555154 282.345578 
L 868.87574 283.388229 
L 869.51691 286.613749 
L 871.761007 299.471804 
L 872.56247 302.519937 
L 873.363933 304.654137 
L 874.165396 306.07908 
L 874.966859 306.997848 
L 875.768323 307.573148 
L 876.730078 307.974277 
L 878.012419 308.231511 
L 879.935931 308.359178 
L 885.225587 308.396515 
L 894.362267 308.397391 
L 894.52256 132.499479 
L 894.682852 111.225887 
L 895.003438 151.225777 
L 895.16373 158.199357 
L 895.324023 153.637237 
L 896.285779 90.298895 
L 896.446071 88.312547 
L 896.606364 88.495915 
L 896.926949 92.906675 
L 898.048997 113.984465 
L 899.010753 126.026134 
L 899.171046 127.851538 
L 899.331338 378.650126 
L 899.491631 430.92 
L 899.651924 402.445075 
L 900.132802 270.889077 
L 900.453387 243.836709 
L 900.613679 244.416105 
L 900.934265 258.035495 
L 901.575435 289.957336 
L 902.056313 304.805875 
L 902.537191 314.118821 
L 903.018069 320.040323 
L 903.338654 322.241245 
L 903.659239 322.926726 
L 903.819532 322.687791 
L 904.140117 321.095979 
L 904.620995 316.322165 
L 905.422458 304.649656 
L 906.384214 290.870262 
L 907.025384 284.785428 
L 907.506262 282.416107 
L 907.826848 281.856752 
L 907.98714 281.855861 
L 908.307725 282.345578 
L 908.628311 283.388229 
L 909.269481 286.613749 
L 911.513578 299.471804 
L 912.315041 302.519937 
L 913.116504 304.654137 
L 913.917967 306.07908 
L 914.71943 306.997848 
L 915.520894 307.573148 
L 916.482649 307.974277 
L 917.76499 308.231511 
L 919.688502 308.359178 
L 924.978158 308.396515 
L 933.794253 308.39739 
L 933.954545 132.499478 
L 933.954545 132.499478 
" clip-path="url(#p0c16cce34f)" style="fill: none; stroke: #1f77b4; stroke-width: 1.5; stroke-linecap: square"/>
   </g>
   <g id="line2d_16">
    <path d="M 173.045455 78.12 
L 177.693941 78.12 
L 177.854233 308.397395 
L 213.278903 308.397395 
L 213.439196 78.12 
L 218.087682 78.12 
L 218.247975 308.397395 
L 253.99323 308.397395 
L 254.153523 78.12 
L 258.802009 78.12 
L 258.962302 308.397395 
L 293.585509 308.397395 
L 293.745801 78.12 
L 298.394287 78.12 
L 298.55458 308.397395 
L 333.818957 308.397395 
L 333.97925 78.12 
L 338.627736 78.12 
L 338.788029 308.397395 
L 373.090651 308.397395 
L 373.250943 78.12 
L 377.899429 78.12 
L 378.059722 308.397395 
L 413.644685 308.397395 
L 413.804977 78.12 
L 418.453463 78.12 
L 418.613756 308.397395 
L 453.557548 308.397395 
L 453.717841 78.12 
L 458.366327 78.12 
L 458.52662 308.397395 
L 493.630705 308.397395 
L 493.790997 78.12 
L 498.439483 78.12 
L 498.599776 308.397395 
L 533.864153 308.397395 
L 534.024446 78.12 
L 538.672932 78.12 
L 538.833225 308.397395 
L 574.257895 308.397395 
L 574.418188 78.12 
L 579.066674 78.12 
L 579.226966 308.397395 
L 613.209003 308.397395 
L 613.369295 78.12 
L 618.017782 78.12 
L 618.178074 308.397395 
L 653.92333 308.397395 
L 654.083622 78.12 
L 658.732108 78.12 
L 658.892401 308.397395 
L 694.156778 308.397395 
L 694.317071 78.12 
L 698.965557 78.12 
L 699.12585 308.397395 
L 734.069642 308.397395 
L 734.229935 78.12 
L 738.878421 78.12 
L 739.038713 308.397395 
L 773.822213 308.397395 
L 773.982506 78.12 
L 778.630992 78.12 
L 778.791284 308.397395 
L 813.414491 308.397395 
L 813.574784 78.12 
L 818.22327 78.12 
L 818.383563 308.397395 
L 854.609696 308.397395 
L 854.769989 78.12 
L 859.418475 78.12 
L 859.578767 308.397395 
L 894.362267 308.397395 
L 894.52256 78.12 
L 899.171046 78.12 
L 899.331338 308.397395 
L 933.794253 308.397395 
L 933.954545 78.12 
L 933.954545 78.12 
" clip-path="url(#p0c16cce34f)" style="fill: none; stroke: #ff7f0e; stroke-width: 1.5; stroke-linecap: square"/>
   </g>
   <g id="line2d_17">
    <path d="M 929.466352 308.397395 
" clip-path="url(#p0c16cce34f)" style="fill: none; stroke: #000000; stroke-width: 1.5; stroke-linecap: square"/>
    <defs>
     <path id="me172f47d28" d="M 0 1 
C 0.265203 1 0.51958 0.894634 0.707107 0.707107 
C 0.894634 0.51958 1 0.265203 1 0 
C 1 -0.265203 0.894634 -0.51958 0.707107 -0.707107 
C 0.51958 -0.894634 0.265203 -1 0 -1 
C -0.265203 -1 -0.51958 -0.894634 -0.707107 -0.707107 
C -0.894634 -0.51958 -1 -0.265203 -1 0 
C -1 0.265203 -0.894634 0.51958 -0.707107 0.707107 
C -0.51958 0.894634 -0.265203 1 0 1 
z
" style="stroke: #000000"/>
    </defs>
    <g clip-path="url(#p0c16cce34f)">
     <use xlink:href="#me172f47d28" x="173.045455" y="78.12" style="stroke: #000000"/>
     <use xlink:href="#me172f47d28" x="178.174819" y="308.397395" style="stroke: #000000"/>
     <use xlink:href="#me172f47d28" x="183.14389" y="308.397395" style="stroke: #000000"/>
     <use xlink:href="#me172f47d28" x="188.112961" y="78.12" style="stroke: #000000"/>
     <use xlink:href="#me172f47d28" x="193.082033" y="308.397395" style="stroke: #000000"/>
     <use xlink:href="#me172f47d28" x="198.211397" y="308.397395" style="stroke: #000000"/>
     <use xlink:href="#me172f47d28" x="203.180468" y="78.12" style="stroke: #000000"/>
     <use xlink:href="#me172f47d28" x="208.149539" y="308.397395" style="stroke: #000000"/>
     <use xlink:href="#me172f47d28" x="213.118611" y="78.12" style="stroke: #000000"/>
     <use xlink:href="#me172f47d28" x="218.247975" y="308.397395" style="stroke: #000000"/>
     <use xlink:href="#me172f47d28" x="223.217046" y="308.397395" style="stroke: #000000"/>
     <use xlink:href="#me172f47d28" x="228.186118" y="78.12" style="stroke: #000000"/>
     <use xlink:href="#me172f47d28" x="233.155189" y="308.397395" style="stroke: #000000"/>
     <use xlink:href="#me172f47d28" x="238.284553" y="308.397395" style="stroke: #000000"/>
     <use xlink:href="#me172f47d28" x="243.253624" y="78.12" style="stroke: #000000"/>
     <use xlink:href="#me172f47d28" x="248.222696" y="308.397395" style="stroke: #000000"/>
     <use xlink:href="#me172f47d28" x="253.191767" y="78.12" style="stroke: #000000"/>
     <use xlink:href="#me172f47d28" x="258.321131" y="308.397395" style="stroke: #000000"/>
     <use xlink:href="#me172f47d28" x="263.290202" y="308.397395" style="stroke: #000000"/>
     <use xlink:href="#me172f47d28" x="268.259274" y="78.12" style="stroke: #000000"/>
     <use xlink:href="#me172f47d28" x="273.228345" y="308.397395" style="stroke: #000000"/>
     <use xlink:href="#me172f47d28" x="278.357709" y="308.397395" style="stroke: #000000"/>
     <use xlink:href="#me172f47d28" x="283.326781" y="78.12" style="stroke: #000000"/>
     <use xlink:href="#me172f47d28" x="288.295852" y="308.397395" style="stroke: #000000"/>
     <use xlink:href="#me172f47d28" x="293.264923" y="78.12" style="stroke: #000000"/>
     <use xlink:href="#me172f47d28" x="298.394287" y="308.397395" style="stroke: #000000"/>
     <use xlink:href="#me172f47d28" x="303.363359" y="308.397395" style="stroke: #000000"/>
     <use xlink:href="#me172f47d28" x="308.33243" y="78.12" style="stroke: #000000"/>
     <use xlink:href="#me172f47d28" x="313.301501" y="308.397395" style="stroke: #000000"/>
     <use xlink:href="#me172f47d28" x="318.430865" y="308.397395" style="stroke: #000000"/>
     <use xlink:href="#me172f47d28" x="323.399937" y="78.12" style="stroke: #000000"/>
     <use xlink:href="#me172f47d28" x="328.369008" y="308.397395" style="stroke: #000000"/>
     <use xlink:href="#me172f47d28" x="333.33808" y="78.12" style="stroke: #000000"/>
     <use xlink:href="#me172f47d28" x="338.467444" y="308.397395" style="stroke: #000000"/>
     <use xlink:href="#me172f47d28" x="343.436515" y="308.397395" style="stroke: #000000"/>
     <use xlink:href="#me172f47d28" x="348.405586" y="78.12" style="stroke: #000000"/>
     <use xlink:href="#me172f47d28" x="353.374658" y="308.397395" style="stroke: #000000"/>
     <use xlink:href="#me172f47d28" x="358.504022" y="308.397395" style="stroke: #000000"/>
     <use xlink:href="#me172f47d28" x="363.473093" y="78.12" style="stroke: #000000"/>
     <use xlink:href="#me172f47d28" x="368.442164" y="308.397395" style="stroke: #000000"/>
     <use xlink:href="#me172f47d28" x="373.411236" y="78.12" style="stroke: #000000"/>
     <use xlink:href="#me172f47d28" x="378.5406" y="308.397395" style="stroke: #000000"/>
     <use xlink:href="#me172f47d28" x="383.509671" y="308.397395" style="stroke: #000000"/>
     <use xlink:href="#me172f47d28" x="388.478743" y="78.12" style="stroke: #000000"/>
     <use xlink:href="#me172f47d28" x="393.447814" y="308.397395" style="stroke: #000000"/>
     <use xlink:href="#me172f47d28" x="398.577178" y="308.397395" style="stroke: #000000"/>
     <use xlink:href="#me172f47d28" x="403.546249" y="78.12" style="stroke: #000000"/>
     <use xlink:href="#me172f47d28" x="408.515321" y="308.397395" style="stroke: #000000"/>
     <use xlink:href="#me172f47d28" x="413.484392" y="78.12" style="stroke: #000000"/>
     <use xlink:href="#me172f47d28" x="418.613756" y="308.397395" style="stroke: #000000"/>
     <use xlink:href="#me172f47d28" x="423.582827" y="308.397395" style="stroke: #000000"/>
     <use xlink:href="#me172f47d28" x="428.551899" y="78.12" style="stroke: #000000"/>
     <use xlink:href="#me172f47d28" x="433.52097" y="308.397395" style="stroke: #000000"/>
     <use xlink:href="#me172f47d28" x="438.650334" y="308.397395" style="stroke: #000000"/>
     <use xlink:href="#me172f47d28" x="443.619406" y="78.12" style="stroke: #000000"/>
     <use xlink:href="#me172f47d28" x="448.588477" y="308.397395" style="stroke: #000000"/>
     <use xlink:href="#me172f47d28" x="453.557548" y="78.12" style="stroke: #000000"/>
     <use xlink:href="#me172f47d28" x="458.686912" y="308.397395" style="stroke: #000000"/>
     <use xlink:href="#me172f47d28" x="463.655984" y="308.397395" style="stroke: #000000"/>
     <use xlink:href="#me172f47d28" x="468.625055" y="78.12" style="stroke: #000000"/>
     <use xlink:href="#me172f47d28" x="473.594126" y="308.397395" style="stroke: #000000"/>
     <use xlink:href="#me172f47d28" x="478.72349" y="308.397395" style="stroke: #000000"/>
     <use xlink:href="#me172f47d28" x="483.692562" y="78.12" style="stroke: #000000"/>
     <use xlink:href="#me172f47d28" x="488.661633" y="308.397395" style="stroke: #000000"/>
     <use xlink:href="#me172f47d28" x="493.630705" y="78.12" style="stroke: #000000"/>
     <use xlink:href="#me172f47d28" x="498.760069" y="308.397395" style="stroke: #000000"/>
     <use xlink:href="#me172f47d28" x="503.72914" y="308.397395" style="stroke: #000000"/>
     <use xlink:href="#me172f47d28" x="508.698211" y="78.12" style="stroke: #000000"/>
     <use xlink:href="#me172f47d28" x="513.667283" y="308.397395" style="stroke: #000000"/>
     <use xlink:href="#me172f47d28" x="518.796647" y="308.397395" style="stroke: #000000"/>
     <use xlink:href="#me172f47d28" x="523.765718" y="78.12" style="stroke: #000000"/>
     <use xlink:href="#me172f47d28" x="528.734789" y="308.397395" style="stroke: #000000"/>
     <use xlink:href="#me172f47d28" x="533.703861" y="78.12" style="stroke: #000000"/>
     <use xlink:href="#me172f47d28" x="538.833225" y="308.397395" style="stroke: #000000"/>
     <use xlink:href="#me172f47d28" x="543.802296" y="308.397395" style="stroke: #000000"/>
     <use xlink:href="#me172f47d28" x="548.771368" y="78.12" style="stroke: #000000"/>
     <use xlink:href="#me172f47d28" x="553.740439" y="308.397395" style="stroke: #000000"/>
     <use xlink:href="#me172f47d28" x="558.869803" y="308.397395" style="stroke: #000000"/>
     <use xlink:href="#me172f47d28" x="563.838874" y="78.12" style="stroke: #000000"/>
     <use xlink:href="#me172f47d28" x="568.807946" y="308.397395" style="stroke: #000000"/>
     <use xlink:href="#me172f47d28" x="573.777017" y="78.12" style="stroke: #000000"/>
     <use xlink:href="#me172f47d28" x="578.906381" y="308.397395" style="stroke: #000000"/>
     <use xlink:href="#me172f47d28" x="583.875452" y="308.397395" style="stroke: #000000"/>
     <use xlink:href="#me172f47d28" x="588.844524" y="78.12" style="stroke: #000000"/>
     <use xlink:href="#me172f47d28" x="593.813595" y="308.397395" style="stroke: #000000"/>
     <use xlink:href="#me172f47d28" x="598.942959" y="308.397395" style="stroke: #000000"/>
     <use xlink:href="#me172f47d28" x="603.912031" y="78.12" style="stroke: #000000"/>
     <use xlink:href="#me172f47d28" x="608.881102" y="308.397395" style="stroke: #000000"/>
     <use xlink:href="#me172f47d28" x="613.850173" y="78.12" style="stroke: #000000"/>
     <use xlink:href="#me172f47d28" x="618.979537" y="308.397395" style="stroke: #000000"/>
     <use xlink:href="#me172f47d28" x="623.948609" y="308.397395" style="stroke: #000000"/>
     <use xlink:href="#me172f47d28" x="628.91768" y="78.12" style="stroke: #000000"/>
     <use xlink:href="#me172f47d28" x="633.886751" y="308.397395" style="stroke: #000000"/>
     <use xlink:href="#me172f47d28" x="639.016115" y="308.397395" style="stroke: #000000"/>
     <use xlink:href="#me172f47d28" x="643.985187" y="78.12" style="stroke: #000000"/>
     <use xlink:href="#me172f47d28" x="648.954258" y="308.397395" style="stroke: #000000"/>
     <use xlink:href="#me172f47d28" x="653.92333" y="78.12" style="stroke: #000000"/>
     <use xlink:href="#me172f47d28" x="659.052694" y="308.397395" style="stroke: #000000"/>
     <use xlink:href="#me172f47d28" x="664.021765" y="308.397395" style="stroke: #000000"/>
     <use xlink:href="#me172f47d28" x="668.990836" y="78.12" style="stroke: #000000"/>
     <use xlink:href="#me172f47d28" x="673.959908" y="308.397395" style="stroke: #000000"/>
     <use xlink:href="#me172f47d28" x="679.089272" y="308.397395" style="stroke: #000000"/>
     <use xlink:href="#me172f47d28" x="684.058343" y="78.12" style="stroke: #000000"/>
     <use xlink:href="#me172f47d28" x="689.027414" y="308.397395" style="stroke: #000000"/>
     <use xlink:href="#me172f47d28" x="693.996486" y="78.12" style="stroke: #000000"/>
     <use xlink:href="#me172f47d28" x="699.12585" y="308.397395" style="stroke: #000000"/>
     <use xlink:href="#me172f47d28" x="704.094921" y="308.397395" style="stroke: #000000"/>
     <use xlink:href="#me172f47d28" x="709.063993" y="78.12" style="stroke: #000000"/>
     <use xlink:href="#me172f47d28" x="714.033064" y="308.397395" style="stroke: #000000"/>
     <use xlink:href="#me172f47d28" x="719.162428" y="308.397395" style="stroke: #000000"/>
     <use xlink:href="#me172f47d28" x="724.131499" y="78.12" style="stroke: #000000"/>
     <use xlink:href="#me172f47d28" x="729.100571" y="308.397395" style="stroke: #000000"/>
     <use xlink:href="#me172f47d28" x="734.069642" y="78.12" style="stroke: #000000"/>
     <use xlink:href="#me172f47d28" x="739.199006" y="308.397395" style="stroke: #000000"/>
     <use xlink:href="#me172f47d28" x="744.168077" y="308.397395" style="stroke: #000000"/>
     <use xlink:href="#me172f47d28" x="749.137149" y="78.12" style="stroke: #000000"/>
     <use xlink:href="#me172f47d28" x="754.10622" y="308.397395" style="stroke: #000000"/>
     <use xlink:href="#me172f47d28" x="759.235584" y="308.397395" style="stroke: #000000"/>
     <use xlink:href="#me172f47d28" x="764.204656" y="78.12" style="stroke: #000000"/>
     <use xlink:href="#me172f47d28" x="769.173727" y="308.397395" style="stroke: #000000"/>
     <use xlink:href="#me172f47d28" x="774.142798" y="78.12" style="stroke: #000000"/>
     <use xlink:href="#me172f47d28" x="779.272162" y="308.397395" style="stroke: #000000"/>
     <use xlink:href="#me172f47d28" x="784.241234" y="308.397395" style="stroke: #000000"/>
     <use xlink:href="#me172f47d28" x="789.210305" y="78.12" style="stroke: #000000"/>
     <use xlink:href="#me172f47d28" x="794.179376" y="308.397395" style="stroke: #000000"/>
     <use xlink:href="#me172f47d28" x="799.30874" y="308.397395" style="stroke: #000000"/>
     <use xlink:href="#me172f47d28" x="804.277812" y="78.12" style="stroke: #000000"/>
     <use xlink:href="#me172f47d28" x="809.246883" y="308.397395" style="stroke: #000000"/>
     <use xlink:href="#me172f47d28" x="814.215955" y="78.12" style="stroke: #000000"/>
     <use xlink:href="#me172f47d28" x="819.345319" y="308.397395" style="stroke: #000000"/>
     <use xlink:href="#me172f47d28" x="824.31439" y="308.397395" style="stroke: #000000"/>
     <use xlink:href="#me172f47d28" x="829.283461" y="78.12" style="stroke: #000000"/>
     <use xlink:href="#me172f47d28" x="834.252533" y="308.397395" style="stroke: #000000"/>
     <use xlink:href="#me172f47d28" x="839.381897" y="308.397395" style="stroke: #000000"/>
     <use xlink:href="#me172f47d28" x="844.350968" y="78.12" style="stroke: #000000"/>
     <use xlink:href="#me172f47d28" x="849.320039" y="308.397395" style="stroke: #000000"/>
     <use xlink:href="#me172f47d28" x="854.289111" y="78.12" style="stroke: #000000"/>
     <use xlink:href="#me172f47d28" x="859.418475" y="308.397395" style="stroke: #000000"/>
     <use xlink:href="#me172f47d28" x="864.387546" y="308.397395" style="stroke: #000000"/>
     <use xlink:href="#me172f47d28" x="869.356618" y="78.12" style="stroke: #000000"/>
     <use xlink:href="#me172f47d28" x="874.325689" y="308.397395" style="stroke: #000000"/>
     <use xlink:href="#me172f47d28" x="879.455053" y="308.397395" style="stroke: #000000"/>
     <use xlink:href="#me172f47d28" x="884.424124" y="78.12" style="stroke: #000000"/>
     <use xlink:href="#me172f47d28" x="889.393196" y="308.397395" style="stroke: #000000"/>
     <use xlink:href="#me172f47d28" x="894.362267" y="78.12" style="stroke: #000000"/>
     <use xlink:href="#me172f47d28" x="899.491631" y="308.397395" style="stroke: #000000"/>
     <use xlink:href="#me172f47d28" x="904.460702" y="308.397395" style="stroke: #000000"/>
     <use xlink:href="#me172f47d28" x="909.429774" y="78.12" style="stroke: #000000"/>
     <use xlink:href="#me172f47d28" x="914.398845" y="308.397395" style="stroke: #000000"/>
     <use xlink:href="#me172f47d28" x="919.528209" y="308.397395" style="stroke: #000000"/>
     <use xlink:href="#me172f47d28" x="924.497281" y="78.12" style="stroke: #000000"/>
     <use xlink:href="#me172f47d28" x="929.466352" y="308.397395" style="stroke: #000000"/>
    </g>
   </g>
   <g id="patch_3">
    <path d="M 135 448.56 
L 135 60.48 
" style="fill: none; stroke: #000000; stroke-width: 0.8; stroke-linejoin: miter; stroke-linecap: square"/>
   </g>
   <g id="patch_4">
    <path d="M 972 448.56 
L 972 60.48 
" style="fill: none; stroke: #000000; stroke-width: 0.8; stroke-linejoin: miter; stroke-linecap: square"/>
   </g>
   <g id="patch_5">
    <path d="M 135 448.56 
L 972 448.56 
" style="fill: none; stroke: #000000; stroke-width: 0.8; stroke-linejoin: miter; stroke-linecap: square"/>
   </g>
   <g id="patch_6">
    <path d="M 135 60.48 
L 972 60.48 
" style="fill: none; stroke: #000000; stroke-width: 0.8; stroke-linejoin: miter; stroke-linecap: square"/>
   </g>
   <g id="legend_1">
    <g id="patch_7">
     <path d="M 142 443.56 
L 211.084375 443.56 
Q 213.084375 443.56 213.084375 441.56 
L 213.084375 397.969375 
Q 213.084375 395.969375 211.084375 395.969375 
L 142 395.969375 
Q 140 395.969375 140 397.969375 
L 140 441.56 
Q 140 443.56 142 443.56 
z
" style="fill: #ffffff; opacity: 0.8; stroke: #cccccc; stroke-linejoin: miter"/>
    </g>
    <g id="line2d_18">
     <path d="M 144 404.067813 
L 154 404.067813 
L 164 404.067813 
" style="fill: none; stroke: #1f77b4; stroke-width: 1.5; stroke-linecap: square"/>
    </g>
    <g id="text_16">
     <!-- nw_0 -->
     <g transform="translate(172 407.567813) scale(0.1 -0.1)">
      <defs>
       <path id="DejaVuSans-6e" d="M 3513 2113 
L 3513 0 
L 2938 0 
L 2938 2094 
Q 2938 2591 2744 2837 
Q 2550 3084 2163 3084 
Q 1697 3084 1428 2787 
Q 1159 2491 1159 1978 
L 1159 0 
L 581 0 
L 581 3500 
L 1159 3500 
L 1159 2956 
Q 1366 3272 1645 3428 
Q 1925 3584 2291 3584 
Q 2894 3584 3203 3211 
Q 3513 2838 3513 2113 
z
" transform="scale(0.015625)"/>
       <path id="DejaVuSans-77" d="M 269 3500 
L 844 3500 
L 1563 769 
L 2278 3500 
L 2956 3500 
L 3675 769 
L 4391 3500 
L 4966 3500 
L 4050 0 
L 3372 0 
L 2619 2869 
L 1863 0 
L 1184 0 
L 269 3500 
z
" transform="scale(0.015625)"/>
       <path id="DejaVuSans-5f" d="M 3263 -1063 
L 3263 -1509 
L -63 -1509 
L -63 -1063 
L 3263 -1063 
z
" transform="scale(0.015625)"/>
      </defs>
      <use xlink:href="#DejaVuSans-6e"/>
      <use xlink:href="#DejaVuSans-77" x="63.378906"/>
      <use xlink:href="#DejaVuSans-5f" x="145.166016"/>
      <use xlink:href="#DejaVuSans-30" x="195.166016"/>
     </g>
    </g>
    <g id="line2d_19">
     <path d="M 144 419.024063 
L 154 419.024063 
L 164 419.024063 
" style="fill: none; stroke: #ff7f0e; stroke-width: 1.5; stroke-linecap: square"/>
    </g>
    <g id="text_17">
     <!-- input_0 -->
     <g transform="translate(172 422.524063) scale(0.1 -0.1)">
      <defs>
       <path id="DejaVuSans-69" d="M 603 3500 
L 1178 3500 
L 1178 0 
L 603 0 
L 603 3500 
z
M 603 4863 
L 1178 4863 
L 1178 4134 
L 603 4134 
L 603 4863 
z
" transform="scale(0.015625)"/>
       <path id="DejaVuSans-70" d="M 1159 525 
L 1159 -1331 
L 581 -1331 
L 581 3500 
L 1159 3500 
L 1159 2969 
Q 1341 3281 1617 3432 
Q 1894 3584 2278 3584 
Q 2916 3584 3314 3078 
Q 3713 2572 3713 1747 
Q 3713 922 3314 415 
Q 2916 -91 2278 -91 
Q 1894 -91 1617 61 
Q 1341 213 1159 525 
z
M 3116 1747 
Q 3116 2381 2855 2742 
Q 2594 3103 2138 3103 
Q 1681 3103 1420 2742 
Q 1159 2381 1159 1747 
Q 1159 1113 1420 752 
Q 1681 391 2138 391 
Q 2594 391 2855 752 
Q 3116 1113 3116 1747 
z
" transform="scale(0.015625)"/>
       <path id="DejaVuSans-75" d="M 544 1381 
L 544 3500 
L 1119 3500 
L 1119 1403 
Q 1119 906 1312 657 
Q 1506 409 1894 409 
Q 2359 409 2629 706 
Q 2900 1003 2900 1516 
L 2900 3500 
L 3475 3500 
L 3475 0 
L 2900 0 
L 2900 538 
Q 2691 219 2414 64 
Q 2138 -91 1772 -91 
Q 1169 -91 856 284 
Q 544 659 544 1381 
z
M 1991 3584 
L 1991 3584 
z
" transform="scale(0.015625)"/>
      </defs>
      <use xlink:href="#DejaVuSans-69"/>
      <use xlink:href="#DejaVuSans-6e" x="27.783203"/>
      <use xlink:href="#DejaVuSans-70" x="91.162109"/>
      <use xlink:href="#DejaVuSans-75" x="154.638672"/>
      <use xlink:href="#DejaVuSans-74" x="218.017578"/>
      <use xlink:href="#DejaVuSans-5f" x="257.226562"/>
      <use xlink:href="#DejaVuSans-30" x="307.226562"/>
     </g>
    </g>
    <g id="line2d_20">
     <path d="M 144 433.980312 
L 154 433.980312 
L 164 433.980312 
" style="fill: none; stroke: #000000; stroke-width: 1.5; stroke-linecap: square"/>
     <g>
      <use xlink:href="#me172f47d28" x="154" y="433.980312" style="stroke: #000000"/>
     </g>
    </g>
    <g id="text_18">
     <!-- target -->
     <g transform="translate(172 437.480312) scale(0.1 -0.1)">
      <defs>
       <path id="DejaVuSans-61" d="M 2194 1759 
Q 1497 1759 1228 1600 
Q 959 1441 959 1056 
Q 959 750 1161 570 
Q 1363 391 1709 391 
Q 2188 391 2477 730 
Q 2766 1069 2766 1631 
L 2766 1759 
L 2194 1759 
z
M 3341 1997 
L 3341 0 
L 2766 0 
L 2766 531 
Q 2569 213 2275 61 
Q 1981 -91 1556 -91 
Q 1019 -91 701 211 
Q 384 513 384 1019 
Q 384 1609 779 1909 
Q 1175 2209 1959 2209 
L 2766 2209 
L 2766 2266 
Q 2766 2663 2505 2880 
Q 2244 3097 1772 3097 
Q 1472 3097 1187 3025 
Q 903 2953 641 2809 
L 641 3341 
Q 956 3463 1253 3523 
Q 1550 3584 1831 3584 
Q 2591 3584 2966 3190 
Q 3341 2797 3341 1997 
z
" transform="scale(0.015625)"/>
       <path id="DejaVuSans-72" d="M 2631 2963 
Q 2534 3019 2420 3045 
Q 2306 3072 2169 3072 
Q 1681 3072 1420 2755 
Q 1159 2438 1159 1844 
L 1159 0 
L 581 0 
L 581 3500 
L 1159 3500 
L 1159 2956 
Q 1341 3275 1631 3429 
Q 1922 3584 2338 3584 
Q 2397 3584 2469 3576 
Q 2541 3569 2628 3553 
L 2631 2963 
z
" transform="scale(0.015625)"/>
       <path id="DejaVuSans-67" d="M 2906 1791 
Q 2906 2416 2648 2759 
Q 2391 3103 1925 3103 
Q 1463 3103 1205 2759 
Q 947 2416 947 1791 
Q 947 1169 1205 825 
Q 1463 481 1925 481 
Q 2391 481 2648 825 
Q 2906 1169 2906 1791 
z
M 3481 434 
Q 3481 -459 3084 -895 
Q 2688 -1331 1869 -1331 
Q 1566 -1331 1297 -1286 
Q 1028 -1241 775 -1147 
L 775 -588 
Q 1028 -725 1275 -790 
Q 1522 -856 1778 -856 
Q 2344 -856 2625 -561 
Q 2906 -266 2906 331 
L 2906 616 
Q 2728 306 2450 153 
Q 2172 0 1784 0 
Q 1141 0 747 490 
Q 353 981 353 1791 
Q 353 2603 747 3093 
Q 1141 3584 1784 3584 
Q 2172 3584 2450 3431 
Q 2728 3278 2906 2969 
L 2906 3500 
L 3481 3500 
L 3481 434 
z
" transform="scale(0.015625)"/>
       <path id="DejaVuSans-65" d="M 3597 1894 
L 3597 1613 
L 953 1613 
Q 991 1019 1311 708 
Q 1631 397 2203 397 
Q 2534 397 2845 478 
Q 3156 559 3463 722 
L 3463 178 
Q 3153 47 2828 -22 
Q 2503 -91 2169 -91 
Q 1331 -91 842 396 
Q 353 884 353 1716 
Q 353 2575 817 3079 
Q 1281 3584 2069 3584 
Q 2775 3584 3186 3129 
Q 3597 2675 3597 1894 
z
M 3022 2063 
Q 3016 2534 2758 2815 
Q 2500 3097 2075 3097 
Q 1594 3097 1305 2825 
Q 1016 2553 972 2059 
L 3022 2063 
z
" transform="scale(0.015625)"/>
      </defs>
      <use xlink:href="#DejaVuSans-74"/>
      <use xlink:href="#DejaVuSans-61" x="39.208984"/>
      <use xlink:href="#DejaVuSans-72" x="100.488281"/>
      <use xlink:href="#DejaVuSans-67" x="139.851562"/>
      <use xlink:href="#DejaVuSans-65" x="203.328125"/>
      <use xlink:href="#DejaVuSans-74" x="264.851562"/>
     </g>
    </g>
   </g>
  </g>
 </g>
 <defs>
  <clipPath id="p0c16cce34f">
   <rect x="135" y="60.48" width="837" height="388.08"/>
  </clipPath>
 </defs>
</svg>
