<?xml version="1.0" encoding="utf-8" standalone="no"?>
<!DOCTYPE svg PUBLIC "-//W3C//DTD SVG 1.1//EN"
  "http://www.w3.org/Graphics/SVG/1.1/DTD/svg11.dtd">
<svg xmlns:xlink="http://www.w3.org/1999/xlink" width="1080pt" height="504pt" viewBox="0 0 1080 504" xmlns="http://www.w3.org/2000/svg" version="1.1">
 <metadata>
  <rdf:RDF xmlns:dc="http://purl.org/dc/elements/1.1/" xmlns:cc="http://creativecommons.org/ns#" xmlns:rdf="http://www.w3.org/1999/02/22-rdf-syntax-ns#">
   <cc:Work>
    <dc:type rdf:resource="http://purl.org/dc/dcmitype/StillImage"/>
    <dc:date>2024-05-09T11:11:51.594296</dc:date>
    <dc:format>image/svg+xml</dc:format>
    <dc:creator>
     <cc:Agent>
      <dc:title>Matplotlib v3.7.1, https://matplotlib.org/</dc:title>
     </cc:Agent>
    </dc:creator>
   </cc:Work>
  </rdf:RDF>
 </metadata>
 <defs>
  <style type="text/css">*{stroke-linejoin: round; stroke-linecap: butt}</style>
 </defs>
 <g id="figure_1">
  <g id="patch_1">
   <path d="M 0 504 
L 1080 504 
L 1080 0 
L 0 0 
z
" style="fill: #ffffff"/>
  </g>
  <g id="axes_1">
   <g id="patch_2">
    <path d="M 135 448.56 
L 972 448.56 
L 972 60.48 
L 135 60.48 
z
" style="fill: #ffffff"/>
   </g>
   <g id="matplotlib.axis_1">
    <g id="xtick_1">
     <g id="line2d_1">
      <defs>
       <path id="mca011df422" d="M 0 0 
L 0 3.5 
" style="stroke: #000000; stroke-width: 0.8"/>
      </defs>
      <g>
       <use xlink:href="#mca011df422" x="173.045455" y="448.56" style="stroke: #000000; stroke-width: 0.8"/>
      </g>
     </g>
     <g id="text_1">
      <!-- 0 -->
      <g transform="translate(169.864205 463.158437) scale(0.1 -0.1)">
       <defs>
        <path id="DejaVuSans-30" d="M 2034 4250 
Q 1547 4250 1301 3770 
Q 1056 3291 1056 2328 
Q 1056 1369 1301 889 
Q 1547 409 2034 409 
Q 2525 409 2770 889 
Q 3016 1369 3016 2328 
Q 3016 3291 2770 3770 
Q 2525 4250 2034 4250 
z
M 2034 4750 
Q 2819 4750 3233 4129 
Q 3647 3509 3647 2328 
Q 3647 1150 3233 529 
Q 2819 -91 2034 -91 
Q 1250 -91 836 529 
Q 422 1150 422 2328 
Q 422 3509 836 4129 
Q 1250 4750 2034 4750 
z
" transform="scale(0.015625)"/>
       </defs>
       <use xlink:href="#DejaVuSans-30"/>
      </g>
     </g>
    </g>
    <g id="xtick_2">
     <g id="line2d_2">
      <g>
       <use xlink:href="#mca011df422" x="333.33808" y="448.56" style="stroke: #000000; stroke-width: 0.8"/>
      </g>
     </g>
     <g id="text_2">
      <!-- 1000 -->
      <g transform="translate(320.61308 463.158437) scale(0.1 -0.1)">
       <defs>
        <path id="DejaVuSans-31" d="M 794 531 
L 1825 531 
L 1825 4091 
L 703 3866 
L 703 4441 
L 1819 4666 
L 2450 4666 
L 2450 531 
L 3481 531 
L 3481 0 
L 794 0 
L 794 531 
z
" transform="scale(0.015625)"/>
       </defs>
       <use xlink:href="#DejaVuSans-31"/>
       <use xlink:href="#DejaVuSans-30" x="63.623047"/>
       <use xlink:href="#DejaVuSans-30" x="127.246094"/>
       <use xlink:href="#DejaVuSans-30" x="190.869141"/>
      </g>
     </g>
    </g>
    <g id="xtick_3">
     <g id="line2d_3">
      <g>
       <use xlink:href="#mca011df422" x="493.630705" y="448.56" style="stroke: #000000; stroke-width: 0.8"/>
      </g>
     </g>
     <g id="text_3">
      <!-- 2000 -->
      <g transform="translate(480.905705 463.158437) scale(0.1 -0.1)">
       <defs>
        <path id="DejaVuSans-32" d="M 1228 531 
L 3431 531 
L 3431 0 
L 469 0 
L 469 531 
Q 828 903 1448 1529 
Q 2069 2156 2228 2338 
Q 2531 2678 2651 2914 
Q 2772 3150 2772 3378 
Q 2772 3750 2511 3984 
Q 2250 4219 1831 4219 
Q 1534 4219 1204 4116 
Q 875 4013 500 3803 
L 500 4441 
Q 881 4594 1212 4672 
Q 1544 4750 1819 4750 
Q 2544 4750 2975 4387 
Q 3406 4025 3406 3419 
Q 3406 3131 3298 2873 
Q 3191 2616 2906 2266 
Q 2828 2175 2409 1742 
Q 1991 1309 1228 531 
z
" transform="scale(0.015625)"/>
       </defs>
       <use xlink:href="#DejaVuSans-32"/>
       <use xlink:href="#DejaVuSans-30" x="63.623047"/>
       <use xlink:href="#DejaVuSans-30" x="127.246094"/>
       <use xlink:href="#DejaVuSans-30" x="190.869141"/>
      </g>
     </g>
    </g>
    <g id="xtick_4">
     <g id="line2d_4">
      <g>
       <use xlink:href="#mca011df422" x="653.92333" y="448.56" style="stroke: #000000; stroke-width: 0.8"/>
      </g>
     </g>
     <g id="text_4">
      <!-- 3000 -->
      <g transform="translate(641.19833 463.158437) scale(0.1 -0.1)">
       <defs>
        <path id="DejaVuSans-33" d="M 2597 2516 
Q 3050 2419 3304 2112 
Q 3559 1806 3559 1356 
Q 3559 666 3084 287 
Q 2609 -91 1734 -91 
Q 1441 -91 1130 -33 
Q 819 25 488 141 
L 488 750 
Q 750 597 1062 519 
Q 1375 441 1716 441 
Q 2309 441 2620 675 
Q 2931 909 2931 1356 
Q 2931 1769 2642 2001 
Q 2353 2234 1838 2234 
L 1294 2234 
L 1294 2753 
L 1863 2753 
Q 2328 2753 2575 2939 
Q 2822 3125 2822 3475 
Q 2822 3834 2567 4026 
Q 2313 4219 1838 4219 
Q 1578 4219 1281 4162 
Q 984 4106 628 3988 
L 628 4550 
Q 988 4650 1302 4700 
Q 1616 4750 1894 4750 
Q 2613 4750 3031 4423 
Q 3450 4097 3450 3541 
Q 3450 3153 3228 2886 
Q 3006 2619 2597 2516 
z
" transform="scale(0.015625)"/>
       </defs>
       <use xlink:href="#DejaVuSans-33"/>
       <use xlink:href="#DejaVuSans-30" x="63.623047"/>
       <use xlink:href="#DejaVuSans-30" x="127.246094"/>
       <use xlink:href="#DejaVuSans-30" x="190.869141"/>
      </g>
     </g>
    </g>
    <g id="xtick_5">
     <g id="line2d_5">
      <g>
       <use xlink:href="#mca011df422" x="814.215955" y="448.56" style="stroke: #000000; stroke-width: 0.8"/>
      </g>
     </g>
     <g id="text_5">
      <!-- 4000 -->
      <g transform="translate(801.490955 463.158437) scale(0.1 -0.1)">
       <defs>
        <path id="DejaVuSans-34" d="M 2419 4116 
L 825 1625 
L 2419 1625 
L 2419 4116 
z
M 2253 4666 
L 3047 4666 
L 3047 1625 
L 3713 1625 
L 3713 1100 
L 3047 1100 
L 3047 0 
L 2419 0 
L 2419 1100 
L 313 1100 
L 313 1709 
L 2253 4666 
z
" transform="scale(0.015625)"/>
       </defs>
       <use xlink:href="#DejaVuSans-34"/>
       <use xlink:href="#DejaVuSans-30" x="63.623047"/>
       <use xlink:href="#DejaVuSans-30" x="127.246094"/>
       <use xlink:href="#DejaVuSans-30" x="190.869141"/>
      </g>
     </g>
    </g>
    <g id="text_6">
     <!-- t -->
     <g transform="translate(551.539844 476.836563) scale(0.1 -0.1)">
      <defs>
       <path id="DejaVuSans-74" d="M 1172 4494 
L 1172 3500 
L 2356 3500 
L 2356 3053 
L 1172 3053 
L 1172 1153 
Q 1172 725 1289 603 
Q 1406 481 1766 481 
L 2356 481 
L 2356 0 
L 1766 0 
Q 1100 0 847 248 
Q 594 497 594 1153 
L 594 3053 
L 172 3053 
L 172 3500 
L 594 3500 
L 594 4494 
L 1172 4494 
z
" transform="scale(0.015625)"/>
      </defs>
      <use xlink:href="#DejaVuSans-74"/>
     </g>
    </g>
   </g>
   <g id="matplotlib.axis_2">
    <g id="ytick_1">
     <g id="line2d_6">
      <defs>
       <path id="ma371f3459c" d="M 0 0 
L -3.5 0 
" style="stroke: #000000; stroke-width: 0.8"/>
      </defs>
      <g>
       <use xlink:href="#ma371f3459c" x="135" y="414.786409" style="stroke: #000000; stroke-width: 0.8"/>
      </g>
     </g>
     <g id="text_7">
      <!-- −0.25 -->
      <g transform="translate(97.354687 418.585628) scale(0.1 -0.1)">
       <defs>
        <path id="DejaVuSans-2212" d="M 678 2272 
L 4684 2272 
L 4684 1741 
L 678 1741 
L 678 2272 
z
" transform="scale(0.015625)"/>
        <path id="DejaVuSans-2e" d="M 684 794 
L 1344 794 
L 1344 0 
L 684 0 
L 684 794 
z
" transform="scale(0.015625)"/>
        <path id="DejaVuSans-35" d="M 691 4666 
L 3169 4666 
L 3169 4134 
L 1269 4134 
L 1269 2991 
Q 1406 3038 1543 3061 
Q 1681 3084 1819 3084 
Q 2600 3084 3056 2656 
Q 3513 2228 3513 1497 
Q 3513 744 3044 326 
Q 2575 -91 1722 -91 
Q 1428 -91 1123 -41 
Q 819 9 494 109 
L 494 744 
Q 775 591 1075 516 
Q 1375 441 1709 441 
Q 2250 441 2565 725 
Q 2881 1009 2881 1497 
Q 2881 1984 2565 2268 
Q 2250 2553 1709 2553 
Q 1456 2553 1204 2497 
Q 953 2441 691 2322 
L 691 4666 
z
" transform="scale(0.015625)"/>
       </defs>
       <use xlink:href="#DejaVuSans-2212"/>
       <use xlink:href="#DejaVuSans-30" x="83.789062"/>
       <use xlink:href="#DejaVuSans-2e" x="147.412109"/>
       <use xlink:href="#DejaVuSans-32" x="179.199219"/>
       <use xlink:href="#DejaVuSans-35" x="242.822266"/>
      </g>
     </g>
    </g>
    <g id="ytick_2">
     <g id="line2d_7">
      <g>
       <use xlink:href="#ma371f3459c" x="135" y="361.008773" style="stroke: #000000; stroke-width: 0.8"/>
      </g>
     </g>
     <g id="text_8">
      <!-- 0.00 -->
      <g transform="translate(105.734375 364.807992) scale(0.1 -0.1)">
       <use xlink:href="#DejaVuSans-30"/>
       <use xlink:href="#DejaVuSans-2e" x="63.623047"/>
       <use xlink:href="#DejaVuSans-30" x="95.410156"/>
       <use xlink:href="#DejaVuSans-30" x="159.033203"/>
      </g>
     </g>
    </g>
    <g id="ytick_3">
     <g id="line2d_8">
      <g>
       <use xlink:href="#ma371f3459c" x="135" y="307.231136" style="stroke: #000000; stroke-width: 0.8"/>
      </g>
     </g>
     <g id="text_9">
      <!-- 0.25 -->
      <g transform="translate(105.734375 311.030355) scale(0.1 -0.1)">
       <use xlink:href="#DejaVuSans-30"/>
       <use xlink:href="#DejaVuSans-2e" x="63.623047"/>
       <use xlink:href="#DejaVuSans-32" x="95.410156"/>
       <use xlink:href="#DejaVuSans-35" x="159.033203"/>
      </g>
     </g>
    </g>
    <g id="ytick_4">
     <g id="line2d_9">
      <g>
       <use xlink:href="#ma371f3459c" x="135" y="253.4535" style="stroke: #000000; stroke-width: 0.8"/>
      </g>
     </g>
     <g id="text_10">
      <!-- 0.50 -->
      <g transform="translate(105.734375 257.252719) scale(0.1 -0.1)">
       <use xlink:href="#DejaVuSans-30"/>
       <use xlink:href="#DejaVuSans-2e" x="63.623047"/>
       <use xlink:href="#DejaVuSans-35" x="95.410156"/>
       <use xlink:href="#DejaVuSans-30" x="159.033203"/>
      </g>
     </g>
    </g>
    <g id="ytick_5">
     <g id="line2d_10">
      <g>
       <use xlink:href="#ma371f3459c" x="135" y="199.675864" style="stroke: #000000; stroke-width: 0.8"/>
      </g>
     </g>
     <g id="text_11">
      <!-- 0.75 -->
      <g transform="translate(105.734375 203.475083) scale(0.1 -0.1)">
       <defs>
        <path id="DejaVuSans-37" d="M 525 4666 
L 3525 4666 
L 3525 4397 
L 1831 0 
L 1172 0 
L 2766 4134 
L 525 4134 
L 525 4666 
z
" transform="scale(0.015625)"/>
       </defs>
       <use xlink:href="#DejaVuSans-30"/>
       <use xlink:href="#DejaVuSans-2e" x="63.623047"/>
       <use xlink:href="#DejaVuSans-37" x="95.410156"/>
       <use xlink:href="#DejaVuSans-35" x="159.033203"/>
      </g>
     </g>
    </g>
    <g id="ytick_6">
     <g id="line2d_11">
      <g>
       <use xlink:href="#ma371f3459c" x="135" y="145.898228" style="stroke: #000000; stroke-width: 0.8"/>
      </g>
     </g>
     <g id="text_12">
      <!-- 1.00 -->
      <g transform="translate(105.734375 149.697446) scale(0.1 -0.1)">
       <use xlink:href="#DejaVuSans-31"/>
       <use xlink:href="#DejaVuSans-2e" x="63.623047"/>
       <use xlink:href="#DejaVuSans-30" x="95.410156"/>
       <use xlink:href="#DejaVuSans-30" x="159.033203"/>
      </g>
     </g>
    </g>
    <g id="ytick_7">
     <g id="line2d_12">
      <g>
       <use xlink:href="#ma371f3459c" x="135" y="92.120591" style="stroke: #000000; stroke-width: 0.8"/>
      </g>
     </g>
     <g id="text_13">
      <!-- 1.25 -->
      <g transform="translate(105.734375 95.91981) scale(0.1 -0.1)">
       <use xlink:href="#DejaVuSans-31"/>
       <use xlink:href="#DejaVuSans-2e" x="63.623047"/>
       <use xlink:href="#DejaVuSans-32" x="95.410156"/>
       <use xlink:href="#DejaVuSans-35" x="159.033203"/>
      </g>
     </g>
    </g>
   </g>
   <g id="line2d_13">
    <path d="M 173.045455 212.296184 
L 173.36604 111.168749 
L 173.686625 79.402605 
L 173.846918 78.12 
L 174.00721 83.608324 
L 174.488088 117.137674 
L 175.289551 169.542654 
L 175.770429 188.297111 
L 176.091014 192.154086 
L 176.251307 191.127529 
L 176.571892 183.297264 
L 177.05277 159.396753 
L 177.693941 114.922064 
L 178.014526 274.173328 
L 178.495404 403.607277 
L 178.815989 430.847663 
L 178.976282 430.92 
L 179.296867 419.766548 
L 179.938037 396.768159 
L 181.060086 367.993762 
L 181.380671 365.021244 
L 181.540964 365.256283 
L 181.701256 366.589604 
L 182.021842 371.906855 
L 183.14389 394.22985 
L 183.304183 395.340469 
L 183.464475 395.611153 
L 183.624768 395.010527 
L 183.945353 391.174719 
L 184.265938 383.947834 
L 184.746816 367.448122 
L 185.548279 329.041574 
L 186.990913 255.536636 
L 187.632083 233.215308 
L 188.112961 222.921621 
L 188.433547 219.119993 
L 188.754132 217.577292 
L 188.914424 217.577503 
L 189.074717 218.045343 
L 189.395302 220.232689 
L 189.87618 226.062816 
L 190.517351 237.048841 
L 194.204081 306.401494 
L 195.486422 324.138874 
L 196.60847 336.83718 
L 197.730519 346.929663 
L 198.692275 353.575855 
L 199.493738 357.822845 
L 200.295201 361.039964 
L 201.096664 363.377495 
L 201.898127 364.982349 
L 202.539298 365.82963 
L 203.180468 366.356415 
L 203.821639 366.618742 
L 204.462809 366.667123 
L 205.264272 366.495328 
L 206.226028 366.049241 
L 207.828954 364.998127 
L 211.034807 362.847787 
L 212.798026 361.975676 
L 213.278903 361.78613 
L 213.599489 147.766926 
L 213.920074 90.4612 
L 214.080367 80.031183 
L 214.240659 78.715465 
L 214.400952 84.168019 
L 214.88183 117.574036 
L 215.683293 169.761379 
L 216.164171 188.404917 
L 216.484756 192.200855 
L 216.645049 191.147819 
L 216.965634 183.272434 
L 217.446512 159.322129 
L 218.087682 114.808021 
L 218.408267 274.053451 
L 218.889145 403.472236 
L 219.209731 430.704575 
L 219.370023 430.774171 
L 219.690608 419.618094 
L 220.331779 396.623638 
L 221.453827 367.868682 
L 221.774413 364.902622 
L 221.934705 365.140935 
L 222.094998 366.47754 
L 222.415583 371.801342 
L 223.537631 394.146142 
L 223.697924 395.259655 
L 223.858217 395.533167 
L 224.018509 394.9353 
L 224.339095 391.104797 
L 224.65968 383.882927 
L 225.140558 367.390195 
L 225.942021 328.993916 
L 227.384654 255.503911 
L 228.025825 233.188115 
L 228.506703 222.898225 
L 228.827288 219.098974 
L 229.147873 217.558531 
L 229.308166 217.559827 
L 229.468459 218.028722 
L 229.789044 220.218089 
L 230.269922 226.051024 
L 230.911092 237.040372 
L 234.597823 306.403565 
L 235.880164 324.14205 
L 237.002212 336.840696 
L 238.12426 346.933127 
L 239.086016 353.579071 
L 239.887479 357.825767 
L 240.688942 361.042548 
L 241.490405 363.379723 
L 242.291869 364.984223 
L 242.933039 365.831233 
L 243.57421 366.357763 
L 244.21538 366.619853 
L 244.856551 366.66802 
L 245.658014 366.49599 
L 246.619769 366.049667 
L 248.222696 364.998268 
L 251.428548 362.847669 
L 253.191767 361.975529 
L 253.99323 361.670861 
L 254.313815 147.652697 
L 254.634401 90.352494 
L 254.794693 79.925544 
L 254.954986 78.613111 
L 255.115279 84.069224 
L 255.596156 117.487506 
L 256.39762 169.697381 
L 256.878497 188.353704 
L 257.199083 192.157457 
L 257.359375 191.10808 
L 257.679961 183.239491 
L 258.160838 159.298062 
L 258.802009 114.793442 
L 259.122594 274.042864 
L 259.603472 403.466351 
L 259.924057 430.70128 
L 260.08435 430.772029 
L 260.404935 419.617971 
L 261.046106 396.626455 
L 262.168154 367.874033 
L 262.488739 364.908318 
L 262.649032 365.146759 
L 262.809325 366.483467 
L 263.12991 371.807401 
L 264.251958 394.152054 
L 264.412251 395.265487 
L 264.572543 395.538908 
L 264.732836 394.940943 
L 265.053421 391.110221 
L 265.374007 383.888111 
L 265.854884 367.395002 
L 266.656348 328.998091 
L 268.098981 255.507051 
L 268.740152 233.190844 
L 269.22103 222.900664 
L 269.541615 219.101228 
L 269.8622 217.560605 
L 270.022493 217.561813 
L 270.182785 218.030623 
L 270.503371 220.219823 
L 270.984248 226.052519 
L 271.625419 237.041574 
L 275.312149 306.403663 
L 276.59449 324.141977 
L 277.716539 336.840536 
L 278.838587 346.932923 
L 279.800343 353.578854 
L 280.601806 357.825554 
L 281.403269 361.042346 
L 282.204732 363.379538 
L 283.006195 364.984057 
L 283.647366 365.831085 
L 284.288536 366.357632 
L 284.929707 366.61974 
L 285.570877 366.667923 
L 286.37234 366.495912 
L 287.334096 366.04961 
L 288.937022 364.998238 
L 292.142875 362.847669 
L 293.585509 362.113359 
L 293.906094 148.09296 
L 294.226679 90.772613 
L 294.386972 80.334307 
L 294.547264 79.009691 
L 294.707557 84.452599 
L 295.188435 117.825369 
L 295.989898 169.951293 
L 296.470776 188.559485 
L 296.791361 192.333563 
L 296.951654 191.270208 
L 297.272239 183.3755 
L 297.753117 159.399608 
L 298.394287 114.857609 
L 298.714873 274.090893 
L 299.19575 403.495689 
L 299.516336 430.72031 
L 299.676628 430.78644 
L 299.997214 419.624204 
L 300.638384 396.620486 
L 301.760432 367.856928 
L 302.081018 364.889549 
L 302.24131 365.127337 
L 302.401603 366.463498 
L 302.722188 371.786637 
L 303.844237 394.131051 
L 304.004529 395.244701 
L 304.164822 395.518383 
L 304.325114 394.920716 
L 304.6457 391.090688 
L 304.966285 383.869364 
L 305.447163 367.377532 
L 306.248626 328.982816 
L 307.69126 255.495446 
L 308.33243 233.180707 
L 308.813308 222.891569 
L 309.133893 219.092802 
L 309.454478 217.552828 
L 309.614771 217.554353 
L 309.775064 218.023473 
L 310.095649 220.21328 
L 310.576527 226.046845 
L 311.217697 237.036976 
L 314.904428 306.403181 
L 316.186769 324.142156 
L 317.308817 336.841059 
L 318.430865 346.933626 
L 319.392621 353.579617 
L 320.194084 357.826315 
L 320.995547 361.043075 
L 321.797011 363.380212 
L 322.598474 364.984663 
L 323.239644 365.83163 
L 323.880815 366.358116 
L 324.521985 366.620162 
L 325.163156 366.668286 
L 325.964619 366.496205 
L 326.926375 366.049827 
L 328.529301 364.998355 
L 331.735153 362.847672 
L 333.498372 361.975513 
L 333.818957 361.846876 
L 334.139543 147.827251 
L 334.460128 90.51869 
L 334.620421 80.087086 
L 334.780713 78.769669 
L 334.941006 84.22038 
L 335.421884 117.620046 
L 336.223347 169.795698 
L 336.704225 188.432566 
L 337.02481 192.22441 
L 337.185103 191.16945 
L 337.505688 183.290481 
L 337.986566 159.335471 
L 338.627736 114.816293 
L 338.948321 274.059561 
L 339.429199 403.475822 
L 339.749785 430.70677 
L 339.910077 430.775744 
L 340.230662 419.618573 
L 340.871833 396.622502 
L 341.993881 367.866109 
L 342.314467 364.899843 
L 342.474759 365.138076 
L 342.635052 366.474617 
L 342.955637 371.798328 
L 344.077685 394.143148 
L 344.237978 395.256697 
L 344.398271 395.53025 
L 344.558563 394.932429 
L 344.879149 391.102032 
L 345.199734 383.880278 
L 345.680612 367.387732 
L 346.482075 328.99177 
L 347.924708 255.502289 
L 348.565879 233.186701 
L 349.046757 222.896959 
L 349.367342 219.097803 
L 349.687927 217.557452 
L 349.84822 217.558792 
L 350.008513 218.027731 
L 350.329098 220.217184 
L 350.809976 226.050241 
L 351.451146 237.03974 
L 355.137877 306.403506 
L 356.420218 324.142082 
L 357.542266 336.840775 
L 358.664314 346.933229 
L 359.62607 353.57918 
L 360.427533 357.825875 
L 361.228996 361.042651 
L 362.030459 363.379818 
L 362.831923 364.984308 
L 363.473093 365.831309 
L 364.114264 366.35783 
L 364.755434 366.619912 
L 365.396605 366.668071 
L 366.198068 366.49603 
L 367.159823 366.049697 
L 368.76275 364.998284 
L 371.968602 362.847669 
L 373.090651 362.260441 
L 373.411236 148.240265 
L 373.731821 90.913802 
L 373.892114 80.471952 
L 374.052406 79.14352 
L 374.212699 84.582289 
L 374.693577 117.940798 
L 375.49504 170.040219 
L 375.975918 188.632938 
L 376.296503 192.39733 
L 376.456796 191.329367 
L 376.777381 183.425961 
L 377.258259 159.438398 
L 377.899429 114.883452 
L 378.220015 274.110923 
L 378.700892 403.509154 
L 379.021478 430.730148 
L 379.18177 430.794636 
L 379.502356 419.629448 
L 380.143526 396.621169 
L 381.265574 367.853133 
L 381.58616 364.885014 
L 381.746452 365.122496 
L 381.906745 366.458392 
L 382.22733 371.781108 
L 383.349379 394.125002 
L 383.509671 395.238673 
L 383.669964 395.512394 
L 383.830256 394.914783 
L 384.150842 391.084904 
L 384.471427 383.863769 
L 384.952305 367.372267 
L 385.753768 328.978153 
L 387.196402 255.491834 
L 387.837572 233.177524 
L 388.31845 222.888694 
L 388.639035 219.090125 
L 388.95962 217.550344 
L 389.119913 217.551964 
L 389.280206 218.021178 
L 389.600791 220.211167 
L 390.081669 226.044996 
L 390.722839 237.035456 
L 394.40957 306.402963 
L 395.691911 324.142159 
L 396.813959 336.841182 
L 397.936007 346.933816 
L 398.897763 353.579833 
L 399.699226 357.826537 
L 400.500689 361.043291 
L 401.302153 363.380415 
L 402.103616 364.984848 
L 402.744786 365.831799 
L 403.385957 366.358266 
L 404.027127 366.620294 
L 404.668298 366.668401 
L 405.469761 366.496299 
L 406.431517 366.049899 
L 408.034443 364.998395 
L 411.240295 362.847675 
L 413.003514 361.975507 
L 413.644685 361.727286 
L 413.96527 147.708561 
L 414.285855 90.405623 
L 414.446148 79.977159 
L 414.60644 78.663106 
L 414.766733 84.117463 
L 415.247611 117.529694 
L 416.049074 169.728464 
L 416.529952 188.3785 
L 416.850537 192.178418 
L 417.01083 191.127248 
L 417.331415 183.255333 
L 417.812293 159.309571 
L 418.453463 114.800335 
L 418.774049 274.047827 
L 419.254927 403.469031 
L 419.575512 430.702704 
L 419.735804 430.772893 
L 420.05639 419.61786 
L 420.69756 396.624932 
L 421.819609 367.871312 
L 422.140194 364.905438 
L 422.300486 365.143821 
L 422.460779 366.480483 
L 422.781364 371.804361 
L 423.903413 394.149109 
L 424.063705 395.262585 
L 424.223998 395.536053 
L 424.384291 394.938138 
L 424.704876 391.107528 
L 425.025461 383.885539 
L 425.506339 367.39262 
L 426.307802 328.996025 
L 427.750436 255.505501 
L 428.391606 233.189498 
L 428.872484 222.899462 
L 429.193069 219.100118 
L 429.513655 217.559585 
L 429.673947 217.560836 
L 429.83424 218.029688 
L 430.154825 220.218971 
L 430.635703 226.051785 
L 431.276873 237.040985 
L 434.963604 306.403618 
L 436.245945 324.142016 
L 437.367993 336.840617 
L 438.490042 346.933025 
L 439.451797 353.578962 
L 440.25326 357.82566 
L 441.054724 361.042446 
L 441.856187 363.37963 
L 442.65765 364.984139 
L 443.29882 365.831158 
L 443.939991 366.357697 
L 444.581161 366.619796 
L 445.222332 366.667971 
L 446.023795 366.49595 
L 446.985551 366.049638 
L 448.588477 364.998253 
L 451.794329 362.847669 
L 453.557548 361.975532 
L 453.878134 147.955334 
L 454.198719 90.640963 
L 454.359011 80.206076 
L 454.519304 78.885135 
L 454.679597 84.332027 
L 455.160475 117.718529 
L 455.961938 169.869884 
L 456.442816 188.492799 
L 456.763401 192.27603 
L 456.923693 191.217009 
L 457.244279 183.330444 
L 457.725157 159.365397 
L 458.366327 114.835309 
L 458.686912 274.073849 
L 459.16779 403.484648 
L 459.488375 430.712583 
L 459.648668 430.780206 
L 459.969253 419.620637 
L 460.610424 396.620979 
L 461.732472 367.861287 
L 462.053057 364.894522 
L 462.21335 365.132558 
L 462.373643 366.468933 
L 462.694228 371.792401 
L 463.816276 394.137116 
L 463.976569 395.250723 
L 464.136862 395.524348 
L 464.297154 394.926612 
L 464.617739 391.096409 
L 464.938325 383.874877 
L 465.419203 367.382696 
L 466.220666 328.987361 
L 467.663299 255.498935 
L 468.30447 233.183769 
L 468.785348 222.894326 
L 469.105933 219.095363 
L 469.426518 217.555199 
L 469.586811 217.55663 
L 469.747103 218.025659 
L 470.067689 220.215287 
L 470.548567 226.048594 
L 471.189737 237.038404 
L 474.876467 306.403361 
L 476.158808 324.14213 
L 477.280857 336.840923 
L 478.402905 346.93343 
L 479.364661 353.579398 
L 480.166124 357.826094 
L 480.967587 361.042861 
L 481.76905 363.380013 
L 482.570513 364.984483 
L 483.211684 365.831467 
L 483.852854 366.35797 
L 484.494025 366.620034 
L 485.135195 366.668175 
L 485.936659 366.496115 
L 486.898414 366.04976 
L 488.501341 364.998318 
L 491.707193 362.84767 
L 493.470412 361.975519 
L 493.630705 361.910059 
L 493.95129 147.890104 
L 494.271875 90.57866 
L 494.432168 80.145432 
L 494.59246 78.826272 
L 494.752753 84.275095 
L 495.233631 117.668252 
L 496.035094 169.831901 
L 496.515972 188.461889 
L 496.836557 192.249494 
L 496.99685 191.192538 
L 497.317435 183.30984 
L 497.798313 159.349911 
L 498.439483 114.825402 
L 498.760069 274.066371 
L 499.240946 403.479967 
L 499.561532 430.709446 
L 499.721824 430.777762 
L 500.04241 419.619425 
L 500.68358 396.621618 
L 501.805628 367.863645 
L 502.126214 364.897143 
L 502.286506 365.135284 
L 502.446799 366.471748 
L 502.767384 371.795347 
L 503.889433 394.140138 
L 504.049725 395.253718 
L 504.210018 395.527309 
L 504.37031 394.929532 
L 504.690896 391.099234 
L 505.011481 383.877593 
L 505.492359 367.385231 
L 506.293822 328.989584 
L 507.736456 255.500629 
L 508.377626 233.185251 
L 508.858504 222.895658 
L 509.179089 219.096598 
L 509.499674 217.55634 
L 509.659967 217.557725 
L 509.82026 218.026709 
L 510.140845 220.216249 
L 510.621723 226.04943 
L 511.262893 237.039084 
L 514.949624 306.403438 
L 516.231965 324.142108 
L 517.354013 336.84085 
L 518.476061 346.93333 
L 519.437817 353.579289 
L 520.23928 357.825985 
L 521.040743 361.042755 
L 521.842207 363.379915 
L 522.64367 364.984395 
L 523.28484 365.831387 
L 523.926011 366.357899 
L 524.567181 366.619972 
L 525.208352 366.668122 
L 526.009815 366.496072 
L 526.971571 366.049728 
L 528.574497 364.9983 
L 531.780349 362.847669 
L 533.543568 361.975522 
L 533.864153 361.846887 
L 534.184739 147.827263 
L 534.505324 90.518702 
L 534.665617 80.087099 
L 534.825909 78.769681 
L 534.986202 84.220393 
L 535.46708 117.620058 
L 536.268543 169.795711 
L 536.749421 188.432578 
L 537.070006 192.224422 
L 537.230299 191.169462 
L 537.550884 183.290492 
L 538.031762 159.335481 
L 538.672932 114.816301 
L 538.993517 274.059568 
L 539.474395 403.475828 
L 539.794981 430.706776 
L 539.955273 430.77575 
L 540.275858 419.618577 
L 540.917029 396.622505 
L 542.039077 367.866112 
L 542.359663 364.899845 
L 542.519955 365.138078 
L 542.680248 366.474619 
L 543.000833 371.79833 
L 544.122881 394.143149 
L 544.283174 395.256698 
L 544.443467 395.530251 
L 544.603759 394.93243 
L 544.924345 391.102032 
L 545.24493 383.880278 
L 545.725808 367.387733 
L 546.527271 328.99177 
L 547.969904 255.502289 
L 548.611075 233.186701 
L 549.091953 222.896959 
L 549.412538 219.097803 
L 549.733123 217.557452 
L 549.893416 217.558792 
L 550.053709 218.027731 
L 550.374294 220.217184 
L 550.855172 226.050241 
L 551.496342 237.03974 
L 555.183073 306.403506 
L 556.465414 324.142082 
L 557.587462 336.840774 
L 558.70951 346.933229 
L 559.671266 353.57918 
L 560.472729 357.825875 
L 561.274192 361.042651 
L 562.075655 363.379818 
L 562.877119 364.984308 
L 563.518289 365.831309 
L 564.15946 366.35783 
L 564.80063 366.619912 
L 565.441801 366.668071 
L 566.243264 366.49603 
L 567.205019 366.049697 
L 568.807946 364.998284 
L 572.013798 362.847669 
L 573.777017 361.975525 
L 574.257895 361.785978 
L 574.57848 147.766767 
L 574.899065 90.461044 
L 575.059358 80.031028 
L 575.219651 78.715313 
L 575.379943 84.16787 
L 575.860821 117.573894 
L 576.662284 169.761255 
L 577.143162 188.404805 
L 577.463747 192.200752 
L 577.62404 191.147721 
L 577.944625 183.272345 
L 578.425503 159.322053 
L 579.066674 114.807962 
L 579.387259 274.053401 
L 579.868137 403.472195 
L 580.188722 430.70454 
L 580.349015 430.774138 
L 580.6696 419.618066 
L 581.31077 396.623618 
L 582.432819 367.868673 
L 582.753404 364.902615 
L 582.913697 365.140928 
L 583.073989 366.477535 
L 583.394575 371.801338 
L 584.516623 394.146141 
L 584.676916 395.259655 
L 584.837208 395.533167 
L 584.997501 394.9353 
L 585.318086 391.104798 
L 585.638671 383.882928 
L 586.119549 367.390196 
L 586.921012 328.993918 
L 588.363646 255.503913 
L 589.004816 233.188117 
L 589.485694 222.898227 
L 589.80628 219.098976 
L 590.126865 217.558533 
L 590.287157 217.559829 
L 590.44745 218.028724 
L 590.768035 220.218091 
L 591.248913 226.051025 
L 591.890084 237.040374 
L 595.576814 306.403566 
L 596.859155 324.142051 
L 597.981203 336.840697 
L 599.103252 346.933127 
L 600.065008 353.579071 
L 600.866471 357.825767 
L 601.667934 361.042548 
L 602.469397 363.379723 
L 603.27086 364.984223 
L 603.912031 365.831233 
L 604.553201 366.357763 
L 605.194372 366.619853 
L 605.835542 366.66802 
L 606.637005 366.49599 
L 607.598761 366.049667 
L 609.201687 364.998268 
L 612.40754 362.847669 
L 613.209003 362.41681 
L 613.529588 148.39734 
L 613.850173 91.064656 
L 614.010466 80.619149 
L 614.170759 79.286773 
L 614.331051 84.721265 
L 614.811929 118.065034 
L 615.613392 170.136959 
L 616.09427 188.713484 
L 616.414855 192.467665 
L 616.575148 191.394821 
L 616.895733 183.482162 
L 617.376611 159.482088 
L 618.017782 114.913122 
L 618.338367 274.134194 
L 618.819245 403.525275 
L 619.13983 430.742315 
L 619.300123 430.805005 
L 619.620708 419.636565 
L 620.261878 396.623191 
L 621.383927 367.850018 
L 621.704512 364.881022 
L 621.864805 365.118136 
L 622.025097 366.453709 
L 622.345682 371.775899 
L 623.467731 394.119023 
L 623.628023 395.232693 
L 623.788316 395.506433 
L 623.948609 394.908859 
L 624.269194 391.079099 
L 624.589779 383.858129 
L 625.070657 367.366933 
L 625.87212 328.973397 
L 627.314754 255.488113 
L 627.955924 233.174231 
L 628.436802 222.885708 
L 628.757387 219.087339 
L 629.077973 217.547753 
L 629.238265 217.549468 
L 629.398558 218.018776 
L 629.719143 220.208951 
L 630.200021 226.043047 
L 630.841192 237.033843 
L 634.527922 306.402703 
L 635.810263 324.142135 
L 636.932311 336.841287 
L 638.05436 346.933996 
L 639.016115 353.580044 
L 639.817579 357.826757 
L 640.619042 361.043508 
L 641.420505 363.380621 
L 642.221968 364.985038 
L 642.863138 365.831972 
L 643.504309 366.358422 
L 644.145479 366.620432 
L 644.78665 366.668521 
L 645.588113 366.496398 
L 646.549869 366.049974 
L 648.152795 364.998438 
L 651.358648 362.84768 
L 653.121866 361.975502 
L 653.92333 361.670826 
L 654.243915 147.652658 
L 654.5645 90.352455 
L 654.724793 79.925505 
L 654.885085 78.613072 
L 655.045378 84.069185 
L 655.526256 117.487467 
L 656.327719 169.697343 
L 656.808597 188.353668 
L 657.129182 192.157422 
L 657.289475 191.108046 
L 657.61006 183.239459 
L 658.090938 159.298033 
L 658.732108 114.793419 
L 659.052694 274.042844 
L 659.533571 403.466333 
L 659.854157 430.701265 
L 660.014449 430.772014 
L 660.335035 419.617958 
L 660.976205 396.626445 
L 662.098253 367.874026 
L 662.418839 364.908313 
L 662.579131 365.146754 
L 662.739424 366.483462 
L 663.060009 371.807397 
L 664.182058 394.152051 
L 664.34235 395.265485 
L 664.502643 395.538907 
L 664.662935 394.940941 
L 664.983521 391.110219 
L 665.304106 383.88811 
L 665.784984 367.395001 
L 666.586447 328.99809 
L 668.029081 255.507051 
L 668.670251 233.190844 
L 669.151129 222.900664 
L 669.471714 219.101228 
L 669.792299 217.560606 
L 669.952592 217.561813 
L 670.112885 218.030623 
L 670.43347 220.219823 
L 670.914348 226.052519 
L 671.555518 237.041574 
L 675.242249 306.403663 
L 676.52459 324.141977 
L 677.646638 336.840536 
L 678.768686 346.932923 
L 679.730442 353.578855 
L 680.531905 357.825554 
L 681.333368 361.042346 
L 682.134832 363.379538 
L 682.936295 364.984058 
L 683.577465 365.831085 
L 684.218636 366.357632 
L 684.859806 366.61974 
L 685.500977 366.667923 
L 686.30244 366.495912 
L 687.264196 366.04961 
L 688.867122 364.998238 
L 692.072974 362.847669 
L 693.836193 361.975536 
L 694.156778 361.846902 
L 694.477364 147.827279 
L 694.797949 90.518719 
L 694.958242 80.087116 
L 695.118534 78.769698 
L 695.278827 84.22041 
L 695.759705 117.620075 
L 696.561168 169.795728 
L 697.042046 188.432594 
L 697.362631 192.224437 
L 697.522924 191.169477 
L 697.843509 183.290506 
L 698.324387 159.335493 
L 698.965557 114.816311 
L 699.286142 274.059577 
L 699.76702 403.475836 
L 700.087606 430.706783 
L 700.247898 430.775756 
L 700.568483 419.618583 
L 701.209654 396.62251 
L 702.331702 367.866115 
L 702.652288 364.899848 
L 702.81258 365.138081 
L 702.972873 366.474621 
L 703.293458 371.798332 
L 704.415506 394.14315 
L 704.575799 395.256698 
L 704.736092 395.530251 
L 704.896384 394.932431 
L 705.21697 391.102033 
L 705.537555 383.880279 
L 706.018433 367.387733 
L 706.819896 328.99177 
L 708.262529 255.502289 
L 708.9037 233.186701 
L 709.384578 222.896959 
L 709.705163 219.097803 
L 710.025748 217.557452 
L 710.186041 217.558792 
L 710.346334 218.027731 
L 710.666919 220.217184 
L 711.147797 226.05024 
L 711.788967 237.03974 
L 715.475698 306.403505 
L 716.758039 324.142082 
L 717.880087 336.840774 
L 719.002135 346.933229 
L 719.963891 353.57918 
L 720.765354 357.825875 
L 721.566817 361.042651 
L 722.36828 363.379818 
L 723.169744 364.984308 
L 723.810914 365.831309 
L 724.452085 366.35783 
L 725.093255 366.619912 
L 725.734426 366.668071 
L 726.535889 366.49603 
L 727.497644 366.049697 
L 729.100571 364.998284 
L 732.306423 362.847669 
L 734.069642 361.975525 
L 734.390227 147.955327 
L 734.710813 90.640955 
L 734.871105 80.206068 
L 735.031398 78.885127 
L 735.19169 84.332019 
L 735.672568 117.71852 
L 736.474031 169.869876 
L 736.954909 188.492791 
L 737.275495 192.276022 
L 737.435787 191.217001 
L 737.756372 183.330437 
L 738.23725 159.36539 
L 738.878421 114.835304 
L 739.199006 274.073844 
L 739.679884 403.484644 
L 740.000469 430.712579 
L 740.160762 430.780202 
L 740.481347 419.620634 
L 741.122518 396.620976 
L 742.244566 367.861285 
L 742.565151 364.894521 
L 742.725444 365.132557 
L 742.885736 366.468932 
L 743.206322 371.7924 
L 744.32837 394.137115 
L 744.488663 395.250723 
L 744.648955 395.524348 
L 744.809248 394.926611 
L 745.129833 391.096408 
L 745.450418 383.874877 
L 745.931296 367.382696 
L 746.732759 328.987361 
L 748.175393 255.498934 
L 748.816564 233.183769 
L 749.297441 222.894326 
L 749.618027 219.095363 
L 749.938612 217.555199 
L 750.098905 217.55663 
L 750.259197 218.025659 
L 750.579782 220.215287 
L 751.06066 226.048594 
L 751.701831 237.038404 
L 755.388561 306.403361 
L 756.670902 324.14213 
L 757.792951 336.840923 
L 758.914999 346.93343 
L 759.876755 353.579398 
L 760.678218 357.826094 
L 761.479681 361.042861 
L 762.281144 363.380013 
L 763.082607 364.984483 
L 763.723778 365.831467 
L 764.364948 366.35797 
L 765.006119 366.620034 
L 765.647289 366.668175 
L 766.448752 366.496115 
L 767.410508 366.04976 
L 769.013434 364.998318 
L 772.219287 362.84767 
L 773.822213 362.043276 
L 774.142798 148.022926 
L 774.463384 90.705585 
L 774.623676 80.269005 
L 774.783969 78.946244 
L 774.944261 84.391164 
L 775.425139 117.770868 
L 776.226602 169.909646 
L 776.70748 188.525295 
L 777.028066 192.304017 
L 777.188358 191.242864 
L 777.508943 183.352298 
L 777.989821 159.381931 
L 778.630992 114.846018 
L 778.951577 274.082 
L 779.432455 403.489868 
L 779.75304 430.716185 
L 779.913333 430.78308 
L 780.233918 419.622214 
L 780.875089 396.620588 
L 781.997137 367.859039 
L 782.317722 364.891983 
L 782.478015 365.129902 
L 782.638307 366.466177 
L 782.958893 371.789491 
L 784.080941 394.134083 
L 784.241234 395.247714 
L 784.401526 395.52137 
L 784.561819 394.92367 
L 784.882404 391.093557 
L 785.202989 383.872132 
L 785.683867 367.380128 
L 786.48533 328.985104 
L 787.927964 255.497206 
L 788.569135 233.182253 
L 789.050012 222.892963 
L 789.370598 219.094097 
L 789.691183 217.554028 
L 789.851476 217.555505 
L 790.011768 218.02458 
L 790.332353 220.214297 
L 790.813231 226.047732 
L 791.454402 237.037702 
L 795.141132 306.403276 
L 796.423473 324.142146 
L 797.545522 336.840993 
L 798.66757 346.933529 
L 799.629326 353.579508 
L 800.430789 357.826205 
L 801.232252 361.042967 
L 802.033715 363.380112 
L 802.835178 364.984572 
L 803.476349 365.831548 
L 804.117519 366.358042 
L 804.75869 366.620097 
L 805.39986 366.66823 
L 806.201323 366.496159 
L 807.163079 366.049793 
L 808.766005 364.998336 
L 811.971858 362.847671 
L 813.414491 362.113341 
L 813.735077 148.09294 
L 814.055662 90.772591 
L 814.215955 80.334285 
L 814.376247 79.009669 
L 814.53654 84.452576 
L 815.017418 117.825345 
L 815.818881 169.951269 
L 816.299759 188.559461 
L 816.620344 192.33354 
L 816.780637 191.270185 
L 817.101222 183.375478 
L 817.5821 159.399587 
L 818.22327 114.857592 
L 818.543855 274.090878 
L 819.024733 403.495676 
L 819.345319 430.720298 
L 819.505611 430.786428 
L 819.826196 419.624194 
L 820.467367 396.620478 
L 821.589415 367.856923 
L 821.910001 364.889544 
L 822.070293 365.127332 
L 822.230586 366.463494 
L 822.551171 371.786633 
L 823.673219 394.131049 
L 823.833512 395.244699 
L 823.993805 395.518381 
L 824.154097 394.920715 
L 824.474683 391.090686 
L 824.795268 383.869363 
L 825.276146 367.377531 
L 826.077609 328.982815 
L 827.520242 255.495445 
L 828.161413 233.180707 
L 828.642291 222.891569 
L 828.962876 219.092802 
L 829.283461 217.552828 
L 829.443754 217.554353 
L 829.604047 218.023473 
L 829.924632 220.21328 
L 830.40551 226.046845 
L 831.04668 237.036977 
L 834.733411 306.403181 
L 836.015752 324.142157 
L 837.1378 336.841059 
L 838.259848 346.933626 
L 839.221604 353.579617 
L 840.023067 357.826316 
L 840.82453 361.043075 
L 841.625993 363.380212 
L 842.427457 364.984663 
L 843.068627 365.83163 
L 843.709798 366.358116 
L 844.350968 366.620162 
L 844.992139 366.668286 
L 845.793602 366.496205 
L 846.755357 366.049827 
L 848.358284 364.998355 
L 851.564136 362.847672 
L 853.327355 361.975513 
L 854.609696 361.514501 
L 854.930281 147.498378 
L 855.250867 90.206047 
L 855.411159 79.78341 
L 855.571452 78.475584 
L 855.731744 83.936689 
L 856.212622 117.372173 
L 857.014085 169.61352 
L 857.494963 188.287528 
L 857.815549 192.101994 
L 857.975841 191.057605 
L 858.296426 183.198225 
L 858.777304 159.268696 
L 859.418475 114.776607 
L 859.73906 274.031151 
L 860.219938 403.460787 
L 860.540523 430.6991 
L 860.700816 430.771341 
L 861.021401 419.619872 
L 861.662572 396.632014 
L 862.78462 367.882522 
L 863.105205 364.917154 
L 863.265498 365.155713 
L 863.42579 366.492504 
L 863.746376 371.816515 
L 864.868424 394.16068 
L 865.028717 395.273972 
L 865.189009 395.54724 
L 865.349302 394.949111 
L 865.669887 391.118039 
L 865.990472 383.895559 
L 866.47135 367.401876 
L 867.272813 329.004024 
L 868.715447 255.511469 
L 869.356618 233.194667 
L 869.837495 222.904068 
L 870.158081 219.104365 
L 870.478666 217.563485 
L 870.638959 217.564567 
L 870.799251 218.033253 
L 871.119836 220.222215 
L 871.600714 226.054571 
L 872.241885 237.043208 
L 875.928615 306.403758 
L 877.210956 324.141839 
L 878.333005 336.840284 
L 879.455053 346.932616 
L 880.416809 353.578537 
L 881.218272 357.825244 
L 882.019735 361.042055 
L 882.821198 363.379273 
L 883.622661 364.983823 
L 884.263832 365.830875 
L 884.905002 366.357448 
L 885.546173 366.619581 
L 886.187343 366.667789 
L 886.988806 366.495805 
L 887.950562 366.049532 
L 889.553488 364.998199 
L 892.759341 362.847672 
L 894.362267 362.043303 
L 894.682852 148.022956 
L 895.003438 90.705616 
L 895.16373 80.269036 
L 895.324023 78.946276 
L 895.484315 84.391196 
L 895.965193 117.770901 
L 896.766656 169.909679 
L 897.247534 188.525327 
L 897.56812 192.304048 
L 897.728412 191.242894 
L 898.048997 183.352326 
L 898.529875 159.381957 
L 899.171046 114.84604 
L 899.491631 274.082019 
L 899.972509 403.489884 
L 900.293094 430.7162 
L 900.453387 430.783095 
L 900.773972 419.622227 
L 901.415143 396.620598 
L 902.537191 367.859046 
L 902.857776 364.891988 
L 903.018069 365.129907 
L 903.178361 366.466181 
L 903.498947 371.789495 
L 904.620995 394.134086 
L 904.781288 395.247716 
L 904.94158 395.521372 
L 905.101873 394.923672 
L 905.422458 391.093559 
L 905.743043 383.872133 
L 906.223921 367.380129 
L 907.025384 328.985105 
L 908.468018 255.497206 
L 909.109189 233.182253 
L 909.590066 222.892963 
L 909.910652 219.094097 
L 910.231237 217.554028 
L 910.39153 217.555505 
L 910.551822 218.02458 
L 910.872407 220.214297 
L 911.353285 226.047732 
L 911.994456 237.037702 
L 915.681186 306.403276 
L 916.963527 324.142146 
L 918.085576 336.840993 
L 919.207624 346.933529 
L 920.16938 353.579508 
L 920.970843 357.826205 
L 921.772306 361.042967 
L 922.573769 363.380112 
L 923.375232 364.984572 
L 924.016403 365.831548 
L 924.657573 366.358042 
L 925.298744 366.620097 
L 925.939914 366.66823 
L 926.741377 366.496159 
L 927.703133 366.049793 
L 929.306059 364.998336 
L 932.511912 362.847671 
L 933.794253 362.185727 
L 933.954545 213.456565 
L 933.954545 213.456565 
" clip-path="url(#pc2cf4de5a2)" style="fill: none; stroke: #1f77b4; stroke-width: 1.5; stroke-linecap: square"/>
   </g>
   <g id="line2d_14">
    <path d="M 173.045455 145.898228 
L 177.693941 145.898228 
L 177.854233 361.008773 
L 213.278903 361.008773 
L 213.439196 145.898228 
L 218.087682 145.898228 
L 218.247975 361.008773 
L 253.99323 361.008773 
L 254.153523 145.898228 
L 258.802009 145.898228 
L 258.962302 361.008773 
L 293.585509 361.008773 
L 293.745801 145.898228 
L 298.394287 145.898228 
L 298.55458 361.008773 
L 333.818957 361.008773 
L 333.97925 145.898228 
L 338.627736 145.898228 
L 338.788029 361.008773 
L 373.090651 361.008773 
L 373.250943 145.898228 
L 377.899429 145.898228 
L 378.059722 361.008773 
L 413.644685 361.008773 
L 413.804977 145.898228 
L 418.453463 145.898228 
L 418.613756 361.008773 
L 453.557548 361.008773 
L 453.717841 145.898228 
L 458.366327 145.898228 
L 458.52662 361.008773 
L 493.630705 361.008773 
L 493.790997 145.898228 
L 498.439483 145.898228 
L 498.599776 361.008773 
L 533.864153 361.008773 
L 534.024446 145.898228 
L 538.672932 145.898228 
L 538.833225 361.008773 
L 574.257895 361.008773 
L 574.418188 145.898228 
L 579.066674 145.898228 
L 579.226966 361.008773 
L 613.209003 361.008773 
L 613.369295 145.898228 
L 618.017782 145.898228 
L 618.178074 361.008773 
L 653.92333 361.008773 
L 654.083622 145.898228 
L 658.732108 145.898228 
L 658.892401 361.008773 
L 694.156778 361.008773 
L 694.317071 145.898228 
L 698.965557 145.898228 
L 699.12585 361.008773 
L 734.069642 361.008773 
L 734.229935 145.898228 
L 738.878421 145.898228 
L 739.038713 361.008773 
L 773.822213 361.008773 
L 773.982506 145.898228 
L 778.630992 145.898228 
L 778.791284 361.008773 
L 813.414491 361.008773 
L 813.574784 145.898228 
L 818.22327 145.898228 
L 818.383563 361.008773 
L 854.609696 361.008773 
L 854.769989 145.898228 
L 859.418475 145.898228 
L 859.578767 361.008773 
L 894.362267 361.008773 
L 894.52256 145.898228 
L 899.171046 145.898228 
L 899.331338 361.008773 
L 933.794253 361.008773 
L 933.954545 145.898228 
L 933.954545 145.898228 
" clip-path="url(#pc2cf4de5a2)" style="fill: none; stroke: #ff7f0e; stroke-width: 1.5; stroke-linecap: square"/>
   </g>
   <g id="line2d_15">
    <path d="M 929.466352 361.008773 
" clip-path="url(#pc2cf4de5a2)" style="fill: none; stroke: #000000; stroke-width: 1.5; stroke-linecap: square"/>
    <defs>
     <path id="mc96fbff090" d="M 0 1 
C 0.265203 1 0.51958 0.894634 0.707107 0.707107 
C 0.894634 0.51958 1 0.265203 1 0 
C 1 -0.265203 0.894634 -0.51958 0.707107 -0.707107 
C 0.51958 -0.894634 0.265203 -1 0 -1 
C -0.265203 -1 -0.51958 -0.894634 -0.707107 -0.707107 
C -0.894634 -0.51958 -1 -0.265203 -1 0 
C -1 0.265203 -0.894634 0.51958 -0.707107 0.707107 
C -0.51958 0.894634 -0.265203 1 0 1 
z
" style="stroke: #000000"/>
    </defs>
    <g clip-path="url(#pc2cf4de5a2)">
     <use xlink:href="#mc96fbff090" x="173.045455" y="145.898228" style="stroke: #000000"/>
     <use xlink:href="#mc96fbff090" x="178.174819" y="361.008773" style="stroke: #000000"/>
     <use xlink:href="#mc96fbff090" x="183.14389" y="361.008773" style="stroke: #000000"/>
     <use xlink:href="#mc96fbff090" x="188.112961" y="145.898228" style="stroke: #000000"/>
     <use xlink:href="#mc96fbff090" x="193.082033" y="361.008773" style="stroke: #000000"/>
     <use xlink:href="#mc96fbff090" x="198.211397" y="361.008773" style="stroke: #000000"/>
     <use xlink:href="#mc96fbff090" x="203.180468" y="145.898228" style="stroke: #000000"/>
     <use xlink:href="#mc96fbff090" x="208.149539" y="361.008773" style="stroke: #000000"/>
     <use xlink:href="#mc96fbff090" x="213.118611" y="145.898228" style="stroke: #000000"/>
     <use xlink:href="#mc96fbff090" x="218.247975" y="361.008773" style="stroke: #000000"/>
     <use xlink:href="#mc96fbff090" x="223.217046" y="361.008773" style="stroke: #000000"/>
     <use xlink:href="#mc96fbff090" x="228.186118" y="145.898228" style="stroke: #000000"/>
     <use xlink:href="#mc96fbff090" x="233.155189" y="361.008773" style="stroke: #000000"/>
     <use xlink:href="#mc96fbff090" x="238.284553" y="361.008773" style="stroke: #000000"/>
     <use xlink:href="#mc96fbff090" x="243.253624" y="145.898228" style="stroke: #000000"/>
     <use xlink:href="#mc96fbff090" x="248.222696" y="361.008773" style="stroke: #000000"/>
     <use xlink:href="#mc96fbff090" x="253.191767" y="145.898228" style="stroke: #000000"/>
     <use xlink:href="#mc96fbff090" x="258.321131" y="361.008773" style="stroke: #000000"/>
     <use xlink:href="#mc96fbff090" x="263.290202" y="361.008773" style="stroke: #000000"/>
     <use xlink:href="#mc96fbff090" x="268.259274" y="145.898228" style="stroke: #000000"/>
     <use xlink:href="#mc96fbff090" x="273.228345" y="361.008773" style="stroke: #000000"/>
     <use xlink:href="#mc96fbff090" x="278.357709" y="361.008773" style="stroke: #000000"/>
     <use xlink:href="#mc96fbff090" x="283.326781" y="145.898228" style="stroke: #000000"/>
     <use xlink:href="#mc96fbff090" x="288.295852" y="361.008773" style="stroke: #000000"/>
     <use xlink:href="#mc96fbff090" x="293.264923" y="145.898228" style="stroke: #000000"/>
     <use xlink:href="#mc96fbff090" x="298.394287" y="361.008773" style="stroke: #000000"/>
     <use xlink:href="#mc96fbff090" x="303.363359" y="361.008773" style="stroke: #000000"/>
     <use xlink:href="#mc96fbff090" x="308.33243" y="145.898228" style="stroke: #000000"/>
     <use xlink:href="#mc96fbff090" x="313.301501" y="361.008773" style="stroke: #000000"/>
     <use xlink:href="#mc96fbff090" x="318.430865" y="361.008773" style="stroke: #000000"/>
     <use xlink:href="#mc96fbff090" x="323.399937" y="145.898228" style="stroke: #000000"/>
     <use xlink:href="#mc96fbff090" x="328.369008" y="361.008773" style="stroke: #000000"/>
     <use xlink:href="#mc96fbff090" x="333.33808" y="145.898228" style="stroke: #000000"/>
     <use xlink:href="#mc96fbff090" x="338.467444" y="361.008773" style="stroke: #000000"/>
     <use xlink:href="#mc96fbff090" x="343.436515" y="361.008773" style="stroke: #000000"/>
     <use xlink:href="#mc96fbff090" x="348.405586" y="145.898228" style="stroke: #000000"/>
     <use xlink:href="#mc96fbff090" x="353.374658" y="361.008773" style="stroke: #000000"/>
     <use xlink:href="#mc96fbff090" x="358.504022" y="361.008773" style="stroke: #000000"/>
     <use xlink:href="#mc96fbff090" x="363.473093" y="145.898228" style="stroke: #000000"/>
     <use xlink:href="#mc96fbff090" x="368.442164" y="361.008773" style="stroke: #000000"/>
     <use xlink:href="#mc96fbff090" x="373.411236" y="145.898228" style="stroke: #000000"/>
     <use xlink:href="#mc96fbff090" x="378.5406" y="361.008773" style="stroke: #000000"/>
     <use xlink:href="#mc96fbff090" x="383.509671" y="361.008773" style="stroke: #000000"/>
     <use xlink:href="#mc96fbff090" x="388.478743" y="145.898228" style="stroke: #000000"/>
     <use xlink:href="#mc96fbff090" x="393.447814" y="361.008773" style="stroke: #000000"/>
     <use xlink:href="#mc96fbff090" x="398.577178" y="361.008773" style="stroke: #000000"/>
     <use xlink:href="#mc96fbff090" x="403.546249" y="145.898228" style="stroke: #000000"/>
     <use xlink:href="#mc96fbff090" x="408.515321" y="361.008773" style="stroke: #000000"/>
     <use xlink:href="#mc96fbff090" x="413.484392" y="145.898228" style="stroke: #000000"/>
     <use xlink:href="#mc96fbff090" x="418.613756" y="361.008773" style="stroke: #000000"/>
     <use xlink:href="#mc96fbff090" x="423.582827" y="361.008773" style="stroke: #000000"/>
     <use xlink:href="#mc96fbff090" x="428.551899" y="145.898228" style="stroke: #000000"/>
     <use xlink:href="#mc96fbff090" x="433.52097" y="361.008773" style="stroke: #000000"/>
     <use xlink:href="#mc96fbff090" x="438.650334" y="361.008773" style="stroke: #000000"/>
     <use xlink:href="#mc96fbff090" x="443.619406" y="145.898228" style="stroke: #000000"/>
     <use xlink:href="#mc96fbff090" x="448.588477" y="361.008773" style="stroke: #000000"/>
     <use xlink:href="#mc96fbff090" x="453.557548" y="145.898228" style="stroke: #000000"/>
     <use xlink:href="#mc96fbff090" x="458.686912" y="361.008773" style="stroke: #000000"/>
     <use xlink:href="#mc96fbff090" x="463.655984" y="361.008773" style="stroke: #000000"/>
     <use xlink:href="#mc96fbff090" x="468.625055" y="145.898228" style="stroke: #000000"/>
     <use xlink:href="#mc96fbff090" x="473.594126" y="361.008773" style="stroke: #000000"/>
     <use xlink:href="#mc96fbff090" x="478.72349" y="361.008773" style="stroke: #000000"/>
     <use xlink:href="#mc96fbff090" x="483.692562" y="145.898228" style="stroke: #000000"/>
     <use xlink:href="#mc96fbff090" x="488.661633" y="361.008773" style="stroke: #000000"/>
     <use xlink:href="#mc96fbff090" x="493.630705" y="145.898228" style="stroke: #000000"/>
     <use xlink:href="#mc96fbff090" x="498.760069" y="361.008773" style="stroke: #000000"/>
     <use xlink:href="#mc96fbff090" x="503.72914" y="361.008773" style="stroke: #000000"/>
     <use xlink:href="#mc96fbff090" x="508.698211" y="145.898228" style="stroke: #000000"/>
     <use xlink:href="#mc96fbff090" x="513.667283" y="361.008773" style="stroke: #000000"/>
     <use xlink:href="#mc96fbff090" x="518.796647" y="361.008773" style="stroke: #000000"/>
     <use xlink:href="#mc96fbff090" x="523.765718" y="145.898228" style="stroke: #000000"/>
     <use xlink:href="#mc96fbff090" x="528.734789" y="361.008773" style="stroke: #000000"/>
     <use xlink:href="#mc96fbff090" x="533.703861" y="145.898228" style="stroke: #000000"/>
     <use xlink:href="#mc96fbff090" x="538.833225" y="361.008773" style="stroke: #000000"/>
     <use xlink:href="#mc96fbff090" x="543.802296" y="361.008773" style="stroke: #000000"/>
     <use xlink:href="#mc96fbff090" x="548.771368" y="145.898228" style="stroke: #000000"/>
     <use xlink:href="#mc96fbff090" x="553.740439" y="361.008773" style="stroke: #000000"/>
     <use xlink:href="#mc96fbff090" x="558.869803" y="361.008773" style="stroke: #000000"/>
     <use xlink:href="#mc96fbff090" x="563.838874" y="145.898228" style="stroke: #000000"/>
     <use xlink:href="#mc96fbff090" x="568.807946" y="361.008773" style="stroke: #000000"/>
     <use xlink:href="#mc96fbff090" x="573.777017" y="145.898228" style="stroke: #000000"/>
     <use xlink:href="#mc96fbff090" x="578.906381" y="361.008773" style="stroke: #000000"/>
     <use xlink:href="#mc96fbff090" x="583.875452" y="361.008773" style="stroke: #000000"/>
     <use xlink:href="#mc96fbff090" x="588.844524" y="145.898228" style="stroke: #000000"/>
     <use xlink:href="#mc96fbff090" x="593.813595" y="361.008773" style="stroke: #000000"/>
     <use xlink:href="#mc96fbff090" x="598.942959" y="361.008773" style="stroke: #000000"/>
     <use xlink:href="#mc96fbff090" x="603.912031" y="145.898228" style="stroke: #000000"/>
     <use xlink:href="#mc96fbff090" x="608.881102" y="361.008773" style="stroke: #000000"/>
     <use xlink:href="#mc96fbff090" x="613.850173" y="145.898228" style="stroke: #000000"/>
     <use xlink:href="#mc96fbff090" x="618.979537" y="361.008773" style="stroke: #000000"/>
     <use xlink:href="#mc96fbff090" x="623.948609" y="361.008773" style="stroke: #000000"/>
     <use xlink:href="#mc96fbff090" x="628.91768" y="145.898228" style="stroke: #000000"/>
     <use xlink:href="#mc96fbff090" x="633.886751" y="361.008773" style="stroke: #000000"/>
     <use xlink:href="#mc96fbff090" x="639.016115" y="361.008773" style="stroke: #000000"/>
     <use xlink:href="#mc96fbff090" x="643.985187" y="145.898228" style="stroke: #000000"/>
     <use xlink:href="#mc96fbff090" x="648.954258" y="361.008773" style="stroke: #000000"/>
     <use xlink:href="#mc96fbff090" x="653.92333" y="145.898228" style="stroke: #000000"/>
     <use xlink:href="#mc96fbff090" x="659.052694" y="361.008773" style="stroke: #000000"/>
     <use xlink:href="#mc96fbff090" x="664.021765" y="361.008773" style="stroke: #000000"/>
     <use xlink:href="#mc96fbff090" x="668.990836" y="145.898228" style="stroke: #000000"/>
     <use xlink:href="#mc96fbff090" x="673.959908" y="361.008773" style="stroke: #000000"/>
     <use xlink:href="#mc96fbff090" x="679.089272" y="361.008773" style="stroke: #000000"/>
     <use xlink:href="#mc96fbff090" x="684.058343" y="145.898228" style="stroke: #000000"/>
     <use xlink:href="#mc96fbff090" x="689.027414" y="361.008773" style="stroke: #000000"/>
     <use xlink:href="#mc96fbff090" x="693.996486" y="145.898228" style="stroke: #000000"/>
     <use xlink:href="#mc96fbff090" x="699.12585" y="361.008773" style="stroke: #000000"/>
     <use xlink:href="#mc96fbff090" x="704.094921" y="361.008773" style="stroke: #000000"/>
     <use xlink:href="#mc96fbff090" x="709.063993" y="145.898228" style="stroke: #000000"/>
     <use xlink:href="#mc96fbff090" x="714.033064" y="361.008773" style="stroke: #000000"/>
     <use xlink:href="#mc96fbff090" x="719.162428" y="361.008773" style="stroke: #000000"/>
     <use xlink:href="#mc96fbff090" x="724.131499" y="145.898228" style="stroke: #000000"/>
     <use xlink:href="#mc96fbff090" x="729.100571" y="361.008773" style="stroke: #000000"/>
     <use xlink:href="#mc96fbff090" x="734.069642" y="145.898228" style="stroke: #000000"/>
     <use xlink:href="#mc96fbff090" x="739.199006" y="361.008773" style="stroke: #000000"/>
     <use xlink:href="#mc96fbff090" x="744.168077" y="361.008773" style="stroke: #000000"/>
     <use xlink:href="#mc96fbff090" x="749.137149" y="145.898228" style="stroke: #000000"/>
     <use xlink:href="#mc96fbff090" x="754.10622" y="361.008773" style="stroke: #000000"/>
     <use xlink:href="#mc96fbff090" x="759.235584" y="361.008773" style="stroke: #000000"/>
     <use xlink:href="#mc96fbff090" x="764.204656" y="145.898228" style="stroke: #000000"/>
     <use xlink:href="#mc96fbff090" x="769.173727" y="361.008773" style="stroke: #000000"/>
     <use xlink:href="#mc96fbff090" x="774.142798" y="145.898228" style="stroke: #000000"/>
     <use xlink:href="#mc96fbff090" x="779.272162" y="361.008773" style="stroke: #000000"/>
     <use xlink:href="#mc96fbff090" x="784.241234" y="361.008773" style="stroke: #000000"/>
     <use xlink:href="#mc96fbff090" x="789.210305" y="145.898228" style="stroke: #000000"/>
     <use xlink:href="#mc96fbff090" x="794.179376" y="361.008773" style="stroke: #000000"/>
     <use xlink:href="#mc96fbff090" x="799.30874" y="361.008773" style="stroke: #000000"/>
     <use xlink:href="#mc96fbff090" x="804.277812" y="145.898228" style="stroke: #000000"/>
     <use xlink:href="#mc96fbff090" x="809.246883" y="361.008773" style="stroke: #000000"/>
     <use xlink:href="#mc96fbff090" x="814.215955" y="145.898228" style="stroke: #000000"/>
     <use xlink:href="#mc96fbff090" x="819.345319" y="361.008773" style="stroke: #000000"/>
     <use xlink:href="#mc96fbff090" x="824.31439" y="361.008773" style="stroke: #000000"/>
     <use xlink:href="#mc96fbff090" x="829.283461" y="145.898228" style="stroke: #000000"/>
     <use xlink:href="#mc96fbff090" x="834.252533" y="361.008773" style="stroke: #000000"/>
     <use xlink:href="#mc96fbff090" x="839.381897" y="361.008773" style="stroke: #000000"/>
     <use xlink:href="#mc96fbff090" x="844.350968" y="145.898228" style="stroke: #000000"/>
     <use xlink:href="#mc96fbff090" x="849.320039" y="361.008773" style="stroke: #000000"/>
     <use xlink:href="#mc96fbff090" x="854.289111" y="145.898228" style="stroke: #000000"/>
     <use xlink:href="#mc96fbff090" x="859.418475" y="361.008773" style="stroke: #000000"/>
     <use xlink:href="#mc96fbff090" x="864.387546" y="361.008773" style="stroke: #000000"/>
     <use xlink:href="#mc96fbff090" x="869.356618" y="145.898228" style="stroke: #000000"/>
     <use xlink:href="#mc96fbff090" x="874.325689" y="361.008773" style="stroke: #000000"/>
     <use xlink:href="#mc96fbff090" x="879.455053" y="361.008773" style="stroke: #000000"/>
     <use xlink:href="#mc96fbff090" x="884.424124" y="145.898228" style="stroke: #000000"/>
     <use xlink:href="#mc96fbff090" x="889.393196" y="361.008773" style="stroke: #000000"/>
     <use xlink:href="#mc96fbff090" x="894.362267" y="145.898228" style="stroke: #000000"/>
     <use xlink:href="#mc96fbff090" x="899.491631" y="361.008773" style="stroke: #000000"/>
     <use xlink:href="#mc96fbff090" x="904.460702" y="361.008773" style="stroke: #000000"/>
     <use xlink:href="#mc96fbff090" x="909.429774" y="145.898228" style="stroke: #000000"/>
     <use xlink:href="#mc96fbff090" x="914.398845" y="361.008773" style="stroke: #000000"/>
     <use xlink:href="#mc96fbff090" x="919.528209" y="361.008773" style="stroke: #000000"/>
     <use xlink:href="#mc96fbff090" x="924.497281" y="145.898228" style="stroke: #000000"/>
     <use xlink:href="#mc96fbff090" x="929.466352" y="361.008773" style="stroke: #000000"/>
    </g>
   </g>
   <g id="patch_3">
    <path d="M 135 448.56 
L 135 60.48 
" style="fill: none; stroke: #000000; stroke-width: 0.8; stroke-linejoin: miter; stroke-linecap: square"/>
   </g>
   <g id="patch_4">
    <path d="M 972 448.56 
L 972 60.48 
" style="fill: none; stroke: #000000; stroke-width: 0.8; stroke-linejoin: miter; stroke-linecap: square"/>
   </g>
   <g id="patch_5">
    <path d="M 135 448.56 
L 972 448.56 
" style="fill: none; stroke: #000000; stroke-width: 0.8; stroke-linejoin: miter; stroke-linecap: square"/>
   </g>
   <g id="patch_6">
    <path d="M 135 60.48 
L 972 60.48 
" style="fill: none; stroke: #000000; stroke-width: 0.8; stroke-linejoin: miter; stroke-linecap: square"/>
   </g>
   <g id="legend_1">
    <g id="patch_7">
     <path d="M 895.915625 113.070625 
L 965 113.070625 
Q 967 113.070625 967 111.070625 
L 967 67.48 
Q 967 65.48 965 65.48 
L 895.915625 65.48 
Q 893.915625 65.48 893.915625 67.48 
L 893.915625 111.070625 
Q 893.915625 113.070625 895.915625 113.070625 
z
" style="fill: #ffffff; opacity: 0.8; stroke: #cccccc; stroke-linejoin: miter"/>
    </g>
    <g id="line2d_16">
     <path d="M 897.915625 73.578438 
L 907.915625 73.578438 
L 917.915625 73.578438 
" style="fill: none; stroke: #1f77b4; stroke-width: 1.5; stroke-linecap: square"/>
    </g>
    <g id="text_14">
     <!-- nw_0 -->
     <g transform="translate(925.915625 77.078438) scale(0.1 -0.1)">
      <defs>
       <path id="DejaVuSans-6e" d="M 3513 2113 
L 3513 0 
L 2938 0 
L 2938 2094 
Q 2938 2591 2744 2837 
Q 2550 3084 2163 3084 
Q 1697 3084 1428 2787 
Q 1159 2491 1159 1978 
L 1159 0 
L 581 0 
L 581 3500 
L 1159 3500 
L 1159 2956 
Q 1366 3272 1645 3428 
Q 1925 3584 2291 3584 
Q 2894 3584 3203 3211 
Q 3513 2838 3513 2113 
z
" transform="scale(0.015625)"/>
       <path id="DejaVuSans-77" d="M 269 3500 
L 844 3500 
L 1563 769 
L 2278 3500 
L 2956 3500 
L 3675 769 
L 4391 3500 
L 4966 3500 
L 4050 0 
L 3372 0 
L 2619 2869 
L 1863 0 
L 1184 0 
L 269 3500 
z
" transform="scale(0.015625)"/>
       <path id="DejaVuSans-5f" d="M 3263 -1063 
L 3263 -1509 
L -63 -1509 
L -63 -1063 
L 3263 -1063 
z
" transform="scale(0.015625)"/>
      </defs>
      <use xlink:href="#DejaVuSans-6e"/>
      <use xlink:href="#DejaVuSans-77" x="63.378906"/>
      <use xlink:href="#DejaVuSans-5f" x="145.166016"/>
      <use xlink:href="#DejaVuSans-30" x="195.166016"/>
     </g>
    </g>
    <g id="line2d_17">
     <path d="M 897.915625 88.534688 
L 907.915625 88.534688 
L 917.915625 88.534688 
" style="fill: none; stroke: #ff7f0e; stroke-width: 1.5; stroke-linecap: square"/>
    </g>
    <g id="text_15">
     <!-- input_0 -->
     <g transform="translate(925.915625 92.034688) scale(0.1 -0.1)">
      <defs>
       <path id="DejaVuSans-69" d="M 603 3500 
L 1178 3500 
L 1178 0 
L 603 0 
L 603 3500 
z
M 603 4863 
L 1178 4863 
L 1178 4134 
L 603 4134 
L 603 4863 
z
" transform="scale(0.015625)"/>
       <path id="DejaVuSans-70" d="M 1159 525 
L 1159 -1331 
L 581 -1331 
L 581 3500 
L 1159 3500 
L 1159 2969 
Q 1341 3281 1617 3432 
Q 1894 3584 2278 3584 
Q 2916 3584 3314 3078 
Q 3713 2572 3713 1747 
Q 3713 922 3314 415 
Q 2916 -91 2278 -91 
Q 1894 -91 1617 61 
Q 1341 213 1159 525 
z
M 3116 1747 
Q 3116 2381 2855 2742 
Q 2594 3103 2138 3103 
Q 1681 3103 1420 2742 
Q 1159 2381 1159 1747 
Q 1159 1113 1420 752 
Q 1681 391 2138 391 
Q 2594 391 2855 752 
Q 3116 1113 3116 1747 
z
" transform="scale(0.015625)"/>
       <path id="DejaVuSans-75" d="M 544 1381 
L 544 3500 
L 1119 3500 
L 1119 1403 
Q 1119 906 1312 657 
Q 1506 409 1894 409 
Q 2359 409 2629 706 
Q 2900 1003 2900 1516 
L 2900 3500 
L 3475 3500 
L 3475 0 
L 2900 0 
L 2900 538 
Q 2691 219 2414 64 
Q 2138 -91 1772 -91 
Q 1169 -91 856 284 
Q 544 659 544 1381 
z
M 1991 3584 
L 1991 3584 
z
" transform="scale(0.015625)"/>
      </defs>
      <use xlink:href="#DejaVuSans-69"/>
      <use xlink:href="#DejaVuSans-6e" x="27.783203"/>
      <use xlink:href="#DejaVuSans-70" x="91.162109"/>
      <use xlink:href="#DejaVuSans-75" x="154.638672"/>
      <use xlink:href="#DejaVuSans-74" x="218.017578"/>
      <use xlink:href="#DejaVuSans-5f" x="257.226562"/>
      <use xlink:href="#DejaVuSans-30" x="307.226562"/>
     </g>
    </g>
    <g id="line2d_18">
     <path d="M 897.915625 103.490938 
L 907.915625 103.490938 
L 917.915625 103.490938 
" style="fill: none; stroke: #000000; stroke-width: 1.5; stroke-linecap: square"/>
     <g>
      <use xlink:href="#mc96fbff090" x="907.915625" y="103.490938" style="stroke: #000000"/>
     </g>
    </g>
    <g id="text_16">
     <!-- target -->
     <g transform="translate(925.915625 106.990938) scale(0.1 -0.1)">
      <defs>
       <path id="DejaVuSans-61" d="M 2194 1759 
Q 1497 1759 1228 1600 
Q 959 1441 959 1056 
Q 959 750 1161 570 
Q 1363 391 1709 391 
Q 2188 391 2477 730 
Q 2766 1069 2766 1631 
L 2766 1759 
L 2194 1759 
z
M 3341 1997 
L 3341 0 
L 2766 0 
L 2766 531 
Q 2569 213 2275 61 
Q 1981 -91 1556 -91 
Q 1019 -91 701 211 
Q 384 513 384 1019 
Q 384 1609 779 1909 
Q 1175 2209 1959 2209 
L 2766 2209 
L 2766 2266 
Q 2766 2663 2505 2880 
Q 2244 3097 1772 3097 
Q 1472 3097 1187 3025 
Q 903 2953 641 2809 
L 641 3341 
Q 956 3463 1253 3523 
Q 1550 3584 1831 3584 
Q 2591 3584 2966 3190 
Q 3341 2797 3341 1997 
z
" transform="scale(0.015625)"/>
       <path id="DejaVuSans-72" d="M 2631 2963 
Q 2534 3019 2420 3045 
Q 2306 3072 2169 3072 
Q 1681 3072 1420 2755 
Q 1159 2438 1159 1844 
L 1159 0 
L 581 0 
L 581 3500 
L 1159 3500 
L 1159 2956 
Q 1341 3275 1631 3429 
Q 1922 3584 2338 3584 
Q 2397 3584 2469 3576 
Q 2541 3569 2628 3553 
L 2631 2963 
z
" transform="scale(0.015625)"/>
       <path id="DejaVuSans-67" d="M 2906 1791 
Q 2906 2416 2648 2759 
Q 2391 3103 1925 3103 
Q 1463 3103 1205 2759 
Q 947 2416 947 1791 
Q 947 1169 1205 825 
Q 1463 481 1925 481 
Q 2391 481 2648 825 
Q 2906 1169 2906 1791 
z
M 3481 434 
Q 3481 -459 3084 -895 
Q 2688 -1331 1869 -1331 
Q 1566 -1331 1297 -1286 
Q 1028 -1241 775 -1147 
L 775 -588 
Q 1028 -725 1275 -790 
Q 1522 -856 1778 -856 
Q 2344 -856 2625 -561 
Q 2906 -266 2906 331 
L 2906 616 
Q 2728 306 2450 153 
Q 2172 0 1784 0 
Q 1141 0 747 490 
Q 353 981 353 1791 
Q 353 2603 747 3093 
Q 1141 3584 1784 3584 
Q 2172 3584 2450 3431 
Q 2728 3278 2906 2969 
L 2906 3500 
L 3481 3500 
L 3481 434 
z
" transform="scale(0.015625)"/>
       <path id="DejaVuSans-65" d="M 3597 1894 
L 3597 1613 
L 953 1613 
Q 991 1019 1311 708 
Q 1631 397 2203 397 
Q 2534 397 2845 478 
Q 3156 559 3463 722 
L 3463 178 
Q 3153 47 2828 -22 
Q 2503 -91 2169 -91 
Q 1331 -91 842 396 
Q 353 884 353 1716 
Q 353 2575 817 3079 
Q 1281 3584 2069 3584 
Q 2775 3584 3186 3129 
Q 3597 2675 3597 1894 
z
M 3022 2063 
Q 3016 2534 2758 2815 
Q 2500 3097 2075 3097 
Q 1594 3097 1305 2825 
Q 1016 2553 972 2059 
L 3022 2063 
z
" transform="scale(0.015625)"/>
      </defs>
      <use xlink:href="#DejaVuSans-74"/>
      <use xlink:href="#DejaVuSans-61" x="39.208984"/>
      <use xlink:href="#DejaVuSans-72" x="100.488281"/>
      <use xlink:href="#DejaVuSans-67" x="139.851562"/>
      <use xlink:href="#DejaVuSans-65" x="203.328125"/>
      <use xlink:href="#DejaVuSans-74" x="264.851562"/>
     </g>
    </g>
   </g>
  </g>
 </g>
 <defs>
  <clipPath id="pc2cf4de5a2">
   <rect x="135" y="60.48" width="837" height="388.08"/>
  </clipPath>
 </defs>
</svg>
