<?xml version="1.0" encoding="utf-8" standalone="no"?>
<!DOCTYPE svg PUBLIC "-//W3C//DTD SVG 1.1//EN"
  "http://www.w3.org/Graphics/SVG/1.1/DTD/svg11.dtd">
<svg xmlns:xlink="http://www.w3.org/1999/xlink" width="1080pt" height="504pt" viewBox="0 0 1080 504" xmlns="http://www.w3.org/2000/svg" version="1.1">
 <metadata>
  <rdf:RDF xmlns:dc="http://purl.org/dc/elements/1.1/" xmlns:cc="http://creativecommons.org/ns#" xmlns:rdf="http://www.w3.org/1999/02/22-rdf-syntax-ns#">
   <cc:Work>
    <dc:type rdf:resource="http://purl.org/dc/dcmitype/StillImage"/>
    <dc:date>2024-05-09T11:04:44.242327</dc:date>
    <dc:format>image/svg+xml</dc:format>
    <dc:creator>
     <cc:Agent>
      <dc:title>Matplotlib v3.7.1, https://matplotlib.org/</dc:title>
     </cc:Agent>
    </dc:creator>
   </cc:Work>
  </rdf:RDF>
 </metadata>
 <defs>
  <style type="text/css">*{stroke-linejoin: round; stroke-linecap: butt}</style>
 </defs>
 <g id="figure_1">
  <g id="patch_1">
   <path d="M 0 504 
L 1080 504 
L 1080 0 
L 0 0 
z
" style="fill: #ffffff"/>
  </g>
  <g id="axes_1">
   <g id="patch_2">
    <path d="M 135 448.56 
L 972 448.56 
L 972 60.48 
L 135 60.48 
z
" style="fill: #ffffff"/>
   </g>
   <g id="matplotlib.axis_1">
    <g id="xtick_1">
     <g id="line2d_1">
      <defs>
       <path id="mfd03007978" d="M 0 0 
L 0 3.5 
" style="stroke: #000000; stroke-width: 0.8"/>
      </defs>
      <g>
       <use xlink:href="#mfd03007978" x="173.045455" y="448.56" style="stroke: #000000; stroke-width: 0.8"/>
      </g>
     </g>
     <g id="text_1">
      <!-- 0 -->
      <g transform="translate(169.864205 463.158437) scale(0.1 -0.1)">
       <defs>
        <path id="DejaVuSans-30" d="M 2034 4250 
Q 1547 4250 1301 3770 
Q 1056 3291 1056 2328 
Q 1056 1369 1301 889 
Q 1547 409 2034 409 
Q 2525 409 2770 889 
Q 3016 1369 3016 2328 
Q 3016 3291 2770 3770 
Q 2525 4250 2034 4250 
z
M 2034 4750 
Q 2819 4750 3233 4129 
Q 3647 3509 3647 2328 
Q 3647 1150 3233 529 
Q 2819 -91 2034 -91 
Q 1250 -91 836 529 
Q 422 1150 422 2328 
Q 422 3509 836 4129 
Q 1250 4750 2034 4750 
z
" transform="scale(0.015625)"/>
       </defs>
       <use xlink:href="#DejaVuSans-30"/>
      </g>
     </g>
    </g>
    <g id="xtick_2">
     <g id="line2d_2">
      <g>
       <use xlink:href="#mfd03007978" x="333.33808" y="448.56" style="stroke: #000000; stroke-width: 0.8"/>
      </g>
     </g>
     <g id="text_2">
      <!-- 1000 -->
      <g transform="translate(320.61308 463.158437) scale(0.1 -0.1)">
       <defs>
        <path id="DejaVuSans-31" d="M 794 531 
L 1825 531 
L 1825 4091 
L 703 3866 
L 703 4441 
L 1819 4666 
L 2450 4666 
L 2450 531 
L 3481 531 
L 3481 0 
L 794 0 
L 794 531 
z
" transform="scale(0.015625)"/>
       </defs>
       <use xlink:href="#DejaVuSans-31"/>
       <use xlink:href="#DejaVuSans-30" x="63.623047"/>
       <use xlink:href="#DejaVuSans-30" x="127.246094"/>
       <use xlink:href="#DejaVuSans-30" x="190.869141"/>
      </g>
     </g>
    </g>
    <g id="xtick_3">
     <g id="line2d_3">
      <g>
       <use xlink:href="#mfd03007978" x="493.630705" y="448.56" style="stroke: #000000; stroke-width: 0.8"/>
      </g>
     </g>
     <g id="text_3">
      <!-- 2000 -->
      <g transform="translate(480.905705 463.158437) scale(0.1 -0.1)">
       <defs>
        <path id="DejaVuSans-32" d="M 1228 531 
L 3431 531 
L 3431 0 
L 469 0 
L 469 531 
Q 828 903 1448 1529 
Q 2069 2156 2228 2338 
Q 2531 2678 2651 2914 
Q 2772 3150 2772 3378 
Q 2772 3750 2511 3984 
Q 2250 4219 1831 4219 
Q 1534 4219 1204 4116 
Q 875 4013 500 3803 
L 500 4441 
Q 881 4594 1212 4672 
Q 1544 4750 1819 4750 
Q 2544 4750 2975 4387 
Q 3406 4025 3406 3419 
Q 3406 3131 3298 2873 
Q 3191 2616 2906 2266 
Q 2828 2175 2409 1742 
Q 1991 1309 1228 531 
z
" transform="scale(0.015625)"/>
       </defs>
       <use xlink:href="#DejaVuSans-32"/>
       <use xlink:href="#DejaVuSans-30" x="63.623047"/>
       <use xlink:href="#DejaVuSans-30" x="127.246094"/>
       <use xlink:href="#DejaVuSans-30" x="190.869141"/>
      </g>
     </g>
    </g>
    <g id="xtick_4">
     <g id="line2d_4">
      <g>
       <use xlink:href="#mfd03007978" x="653.92333" y="448.56" style="stroke: #000000; stroke-width: 0.8"/>
      </g>
     </g>
     <g id="text_4">
      <!-- 3000 -->
      <g transform="translate(641.19833 463.158437) scale(0.1 -0.1)">
       <defs>
        <path id="DejaVuSans-33" d="M 2597 2516 
Q 3050 2419 3304 2112 
Q 3559 1806 3559 1356 
Q 3559 666 3084 287 
Q 2609 -91 1734 -91 
Q 1441 -91 1130 -33 
Q 819 25 488 141 
L 488 750 
Q 750 597 1062 519 
Q 1375 441 1716 441 
Q 2309 441 2620 675 
Q 2931 909 2931 1356 
Q 2931 1769 2642 2001 
Q 2353 2234 1838 2234 
L 1294 2234 
L 1294 2753 
L 1863 2753 
Q 2328 2753 2575 2939 
Q 2822 3125 2822 3475 
Q 2822 3834 2567 4026 
Q 2313 4219 1838 4219 
Q 1578 4219 1281 4162 
Q 984 4106 628 3988 
L 628 4550 
Q 988 4650 1302 4700 
Q 1616 4750 1894 4750 
Q 2613 4750 3031 4423 
Q 3450 4097 3450 3541 
Q 3450 3153 3228 2886 
Q 3006 2619 2597 2516 
z
" transform="scale(0.015625)"/>
       </defs>
       <use xlink:href="#DejaVuSans-33"/>
       <use xlink:href="#DejaVuSans-30" x="63.623047"/>
       <use xlink:href="#DejaVuSans-30" x="127.246094"/>
       <use xlink:href="#DejaVuSans-30" x="190.869141"/>
      </g>
     </g>
    </g>
    <g id="xtick_5">
     <g id="line2d_5">
      <g>
       <use xlink:href="#mfd03007978" x="814.215955" y="448.56" style="stroke: #000000; stroke-width: 0.8"/>
      </g>
     </g>
     <g id="text_5">
      <!-- 4000 -->
      <g transform="translate(801.490955 463.158437) scale(0.1 -0.1)">
       <defs>
        <path id="DejaVuSans-34" d="M 2419 4116 
L 825 1625 
L 2419 1625 
L 2419 4116 
z
M 2253 4666 
L 3047 4666 
L 3047 1625 
L 3713 1625 
L 3713 1100 
L 3047 1100 
L 3047 0 
L 2419 0 
L 2419 1100 
L 313 1100 
L 313 1709 
L 2253 4666 
z
" transform="scale(0.015625)"/>
       </defs>
       <use xlink:href="#DejaVuSans-34"/>
       <use xlink:href="#DejaVuSans-30" x="63.623047"/>
       <use xlink:href="#DejaVuSans-30" x="127.246094"/>
       <use xlink:href="#DejaVuSans-30" x="190.869141"/>
      </g>
     </g>
    </g>
    <g id="text_6">
     <!-- t -->
     <g transform="translate(551.539844 476.836563) scale(0.1 -0.1)">
      <defs>
       <path id="DejaVuSans-74" d="M 1172 4494 
L 1172 3500 
L 2356 3500 
L 2356 3053 
L 1172 3053 
L 1172 1153 
Q 1172 725 1289 603 
Q 1406 481 1766 481 
L 2356 481 
L 2356 0 
L 1766 0 
Q 1100 0 847 248 
Q 594 497 594 1153 
L 594 3053 
L 172 3053 
L 172 3500 
L 594 3500 
L 594 4494 
L 1172 4494 
z
" transform="scale(0.015625)"/>
      </defs>
      <use xlink:href="#DejaVuSans-74"/>
     </g>
    </g>
   </g>
   <g id="matplotlib.axis_2">
    <g id="ytick_1">
     <g id="line2d_6">
      <defs>
       <path id="m23dc1a37a2" d="M 0 0 
L -3.5 0 
" style="stroke: #000000; stroke-width: 0.8"/>
      </defs>
      <g>
       <use xlink:href="#m23dc1a37a2" x="135" y="437.198152" style="stroke: #000000; stroke-width: 0.8"/>
      </g>
     </g>
     <g id="text_7">
      <!-- −0.2 -->
      <g transform="translate(103.717187 440.997371) scale(0.1 -0.1)">
       <defs>
        <path id="DejaVuSans-2212" d="M 678 2272 
L 4684 2272 
L 4684 1741 
L 678 1741 
L 678 2272 
z
" transform="scale(0.015625)"/>
        <path id="DejaVuSans-2e" d="M 684 794 
L 1344 794 
L 1344 0 
L 684 0 
L 684 794 
z
" transform="scale(0.015625)"/>
       </defs>
       <use xlink:href="#DejaVuSans-2212"/>
       <use xlink:href="#DejaVuSans-30" x="83.789062"/>
       <use xlink:href="#DejaVuSans-2e" x="147.412109"/>
       <use xlink:href="#DejaVuSans-32" x="179.199219"/>
      </g>
     </g>
    </g>
    <g id="ytick_2">
     <g id="line2d_7">
      <g>
       <use xlink:href="#m23dc1a37a2" x="135" y="381.241428" style="stroke: #000000; stroke-width: 0.8"/>
      </g>
     </g>
     <g id="text_8">
      <!-- 0.0 -->
      <g transform="translate(112.096875 385.040647) scale(0.1 -0.1)">
       <use xlink:href="#DejaVuSans-30"/>
       <use xlink:href="#DejaVuSans-2e" x="63.623047"/>
       <use xlink:href="#DejaVuSans-30" x="95.410156"/>
      </g>
     </g>
    </g>
    <g id="ytick_3">
     <g id="line2d_8">
      <g>
       <use xlink:href="#m23dc1a37a2" x="135" y="325.284705" style="stroke: #000000; stroke-width: 0.8"/>
      </g>
     </g>
     <g id="text_9">
      <!-- 0.2 -->
      <g transform="translate(112.096875 329.083923) scale(0.1 -0.1)">
       <use xlink:href="#DejaVuSans-30"/>
       <use xlink:href="#DejaVuSans-2e" x="63.623047"/>
       <use xlink:href="#DejaVuSans-32" x="95.410156"/>
      </g>
     </g>
    </g>
    <g id="ytick_4">
     <g id="line2d_9">
      <g>
       <use xlink:href="#m23dc1a37a2" x="135" y="269.327981" style="stroke: #000000; stroke-width: 0.8"/>
      </g>
     </g>
     <g id="text_10">
      <!-- 0.4 -->
      <g transform="translate(112.096875 273.127199) scale(0.1 -0.1)">
       <use xlink:href="#DejaVuSans-30"/>
       <use xlink:href="#DejaVuSans-2e" x="63.623047"/>
       <use xlink:href="#DejaVuSans-34" x="95.410156"/>
      </g>
     </g>
    </g>
    <g id="ytick_5">
     <g id="line2d_10">
      <g>
       <use xlink:href="#m23dc1a37a2" x="135" y="213.371257" style="stroke: #000000; stroke-width: 0.8"/>
      </g>
     </g>
     <g id="text_11">
      <!-- 0.6 -->
      <g transform="translate(112.096875 217.170475) scale(0.1 -0.1)">
       <defs>
        <path id="DejaVuSans-36" d="M 2113 2584 
Q 1688 2584 1439 2293 
Q 1191 2003 1191 1497 
Q 1191 994 1439 701 
Q 1688 409 2113 409 
Q 2538 409 2786 701 
Q 3034 994 3034 1497 
Q 3034 2003 2786 2293 
Q 2538 2584 2113 2584 
z
M 3366 4563 
L 3366 3988 
Q 3128 4100 2886 4159 
Q 2644 4219 2406 4219 
Q 1781 4219 1451 3797 
Q 1122 3375 1075 2522 
Q 1259 2794 1537 2939 
Q 1816 3084 2150 3084 
Q 2853 3084 3261 2657 
Q 3669 2231 3669 1497 
Q 3669 778 3244 343 
Q 2819 -91 2113 -91 
Q 1303 -91 875 529 
Q 447 1150 447 2328 
Q 447 3434 972 4092 
Q 1497 4750 2381 4750 
Q 2619 4750 2861 4703 
Q 3103 4656 3366 4563 
z
" transform="scale(0.015625)"/>
       </defs>
       <use xlink:href="#DejaVuSans-30"/>
       <use xlink:href="#DejaVuSans-2e" x="63.623047"/>
       <use xlink:href="#DejaVuSans-36" x="95.410156"/>
      </g>
     </g>
    </g>
    <g id="ytick_6">
     <g id="line2d_11">
      <g>
       <use xlink:href="#m23dc1a37a2" x="135" y="157.414533" style="stroke: #000000; stroke-width: 0.8"/>
      </g>
     </g>
     <g id="text_12">
      <!-- 0.8 -->
      <g transform="translate(112.096875 161.213752) scale(0.1 -0.1)">
       <defs>
        <path id="DejaVuSans-38" d="M 2034 2216 
Q 1584 2216 1326 1975 
Q 1069 1734 1069 1313 
Q 1069 891 1326 650 
Q 1584 409 2034 409 
Q 2484 409 2743 651 
Q 3003 894 3003 1313 
Q 3003 1734 2745 1975 
Q 2488 2216 2034 2216 
z
M 1403 2484 
Q 997 2584 770 2862 
Q 544 3141 544 3541 
Q 544 4100 942 4425 
Q 1341 4750 2034 4750 
Q 2731 4750 3128 4425 
Q 3525 4100 3525 3541 
Q 3525 3141 3298 2862 
Q 3072 2584 2669 2484 
Q 3125 2378 3379 2068 
Q 3634 1759 3634 1313 
Q 3634 634 3220 271 
Q 2806 -91 2034 -91 
Q 1263 -91 848 271 
Q 434 634 434 1313 
Q 434 1759 690 2068 
Q 947 2378 1403 2484 
z
M 1172 3481 
Q 1172 3119 1398 2916 
Q 1625 2713 2034 2713 
Q 2441 2713 2670 2916 
Q 2900 3119 2900 3481 
Q 2900 3844 2670 4047 
Q 2441 4250 2034 4250 
Q 1625 4250 1398 4047 
Q 1172 3844 1172 3481 
z
" transform="scale(0.015625)"/>
       </defs>
       <use xlink:href="#DejaVuSans-30"/>
       <use xlink:href="#DejaVuSans-2e" x="63.623047"/>
       <use xlink:href="#DejaVuSans-38" x="95.410156"/>
      </g>
     </g>
    </g>
    <g id="ytick_7">
     <g id="line2d_12">
      <g>
       <use xlink:href="#m23dc1a37a2" x="135" y="101.457809" style="stroke: #000000; stroke-width: 0.8"/>
      </g>
     </g>
     <g id="text_13">
      <!-- 1.0 -->
      <g transform="translate(112.096875 105.257028) scale(0.1 -0.1)">
       <use xlink:href="#DejaVuSans-31"/>
       <use xlink:href="#DejaVuSans-2e" x="63.623047"/>
       <use xlink:href="#DejaVuSans-30" x="95.410156"/>
      </g>
     </g>
    </g>
   </g>
   <g id="line2d_13">
    <path d="M 173.045455 218.020336 
L 173.36604 93.748147 
L 173.526332 79.453736 
L 173.686625 78.198576 
L 174.00721 90.615347 
L 174.968966 135.158045 
L 175.449844 148.770853 
L 175.770429 152.649953 
L 175.930722 152.839545 
L 176.091014 151.87674 
L 176.4116 146.810497 
L 176.892478 133.501594 
L 177.693941 108.686315 
L 178.014526 335.418003 
L 178.335111 398.876913 
L 178.495404 407.319985 
L 178.655696 409.402401 
L 178.815989 408.472565 
L 180.258623 390.242169 
L 180.579208 389.229756 
L 180.739501 389.579691 
L 181.060086 392.203765 
L 181.380671 397.299927 
L 182.021842 412.26119 
L 182.663012 426.304235 
L 182.983597 430.158588 
L 183.14389 430.905707 
L 183.304183 430.766434 
L 183.464475 429.691069 
L 183.78506 424.632144 
L 184.105646 415.713661 
L 184.586524 395.701407 
L 185.387987 349.215187 
L 187.311498 230.604638 
L 187.952669 205.20095 
L 188.433547 193.235629 
L 188.754132 188.655617 
L 189.074717 186.663876 
L 189.23501 186.581736 
L 189.395302 187.071345 
L 189.715888 189.637291 
L 190.196765 196.923077 
L 190.837936 211.48027 
L 191.959984 243.814111 
L 193.562911 289.060061 
L 194.524666 310.384486 
L 195.486422 326.56882 
L 196.287885 336.656825 
L 197.089348 344.358595 
L 198.051104 351.372202 
L 199.01286 356.808345 
L 200.134908 361.945543 
L 201.417249 366.800953 
L 202.69959 370.803246 
L 203.821639 373.64375 
L 204.943687 375.890383 
L 206.065735 377.597551 
L 207.027491 378.693751 
L 208.149539 379.627507 
L 209.271588 380.275544 
L 210.553929 380.764334 
L 212.156855 381.122498 
L 213.278903 381.263844 
L 213.599489 133.199314 
L 213.920074 79.500681 
L 214.080367 78.251514 
L 214.400952 90.681044 
L 215.362708 135.251899 
L 215.843585 148.867198 
L 216.164171 152.744142 
L 216.324463 152.931792 
L 216.484756 151.966598 
L 216.805341 146.894583 
L 217.286219 133.575568 
L 218.087682 108.74242 
L 218.408267 335.468074 
L 218.728853 398.92217 
L 218.889145 407.363043 
L 219.049438 409.443306 
L 219.209731 408.511332 
L 220.652364 390.263829 
L 220.972949 389.248609 
L 221.133242 389.597309 
L 221.453827 392.219261 
L 221.774413 397.313782 
L 222.415583 412.273227 
L 223.056754 426.316244 
L 223.377339 430.171119 
L 223.537631 430.9186 
L 223.697924 430.779743 
L 223.858217 429.704836 
L 224.178802 424.646916 
L 224.499387 415.729491 
L 224.980265 395.718779 
L 225.781728 349.234603 
L 227.70524 230.6247 
L 228.34641 205.219992 
L 228.827288 193.253631 
L 229.147873 188.672828 
L 229.468459 186.68024 
L 229.628751 186.597661 
L 229.789044 187.086823 
L 230.109629 189.65186 
L 230.590507 196.936269 
L 231.231677 211.491664 
L 232.353726 243.822642 
L 233.956652 289.065401 
L 234.918408 310.388427 
L 235.880164 326.571689 
L 236.681627 336.659003 
L 237.48309 344.36023 
L 238.444846 351.373338 
L 239.406601 356.80911 
L 240.52865 361.945996 
L 241.810991 366.801165 
L 243.093332 370.803308 
L 244.21538 373.643731 
L 245.337428 375.890318 
L 246.459477 377.597463 
L 247.421233 378.693656 
L 248.543281 379.627414 
L 249.665329 380.275458 
L 250.94767 380.76426 
L 252.550597 381.12244 
L 253.99323 381.292402 
L 254.313815 133.22337 
L 254.634401 79.520983 
L 254.794693 78.270104 
L 255.115279 90.696473 
L 256.077034 135.260024 
L 256.557912 148.872912 
L 256.878497 152.748634 
L 257.03879 152.935771 
L 257.199083 151.97012 
L 257.519668 146.897339 
L 258.000546 133.577477 
L 258.802009 108.743504 
L 259.122594 335.469047 
L 259.443179 398.922964 
L 259.603472 407.363745 
L 259.763765 409.443923 
L 259.924057 408.511874 
L 261.366691 390.264091 
L 261.687276 389.248849 
L 261.847569 389.597537 
L 262.168154 392.219459 
L 262.488739 397.313936 
L 263.12991 412.273237 
L 263.77108 426.316028 
L 264.091666 430.170765 
L 264.251958 430.918174 
L 264.412251 430.779241 
L 264.572543 429.704259 
L 264.893129 424.646186 
L 265.213714 415.728613 
L 265.694592 395.717694 
L 266.496055 349.233246 
L 268.419566 230.623132 
L 269.060737 205.218474 
L 269.541615 193.252176 
L 269.8622 188.671425 
L 270.182785 186.678895 
L 270.343078 186.596347 
L 270.503371 187.08554 
L 270.823956 189.650643 
L 271.304834 196.935153 
L 271.946004 211.490683 
L 273.068053 243.821883 
L 274.670979 289.064901 
L 275.632735 310.388045 
L 276.59449 326.5714 
L 277.395953 336.658776 
L 278.197417 344.360054 
L 279.159172 351.37321 
L 280.120928 356.809017 
L 281.242976 361.945936 
L 282.525317 366.80113 
L 283.807658 370.80329 
L 284.929707 373.643723 
L 286.051755 375.890316 
L 287.173804 377.597465 
L 288.135559 378.69366 
L 289.257608 379.627419 
L 290.379656 380.275463 
L 291.661997 380.764265 
L 293.264923 381.122444 
L 293.585509 381.170211 
L 293.906094 133.119897 
L 294.226679 79.433094 
L 294.386972 78.189273 
L 294.707557 90.628601 
L 295.669313 135.222069 
L 296.150191 148.845061 
L 296.470776 152.726025 
L 296.631068 152.915403 
L 296.791361 151.951771 
L 297.111946 146.882438 
L 297.592824 133.56653 
L 298.394287 108.73671 
L 298.714873 335.462946 
L 299.035458 398.917805 
L 299.19575 407.359063 
L 299.356043 409.439685 
L 299.516336 408.508036 
L 300.958969 390.262119 
L 301.279555 389.247083 
L 301.439847 389.59587 
L 301.760432 392.218007 
L 302.081018 397.312738 
L 302.722188 412.272732 
L 303.363359 426.316496 
L 303.683944 430.171802 
L 303.844237 430.919509 
L 304.004529 430.780881 
L 304.164822 429.706206 
L 304.485407 424.648746 
L 304.805992 415.731768 
L 305.28687 395.721672 
L 306.088333 349.238309 
L 308.011845 230.629068 
L 308.653015 205.224238 
L 309.133893 193.257707 
L 309.454478 188.676765 
L 309.775064 186.684019 
L 309.935356 186.601356 
L 310.095649 187.090432 
L 310.416234 189.65529 
L 310.897112 196.939421 
L 311.538283 211.494441 
L 312.660331 243.824801 
L 314.263257 289.066836 
L 315.225013 310.389528 
L 316.186769 326.572524 
L 316.988232 336.659661 
L 317.789695 344.360745 
L 318.751451 351.373717 
L 319.713206 356.809383 
L 320.835255 361.946177 
L 322.117596 366.801272 
L 323.399937 370.803365 
L 324.521985 373.643759 
L 325.644034 375.890326 
L 326.766082 377.59746 
L 327.727838 378.693647 
L 328.849886 379.627401 
L 329.971934 380.275444 
L 331.254275 380.764246 
L 332.857202 381.122428 
L 333.818957 381.247724 
L 334.139543 133.185689 
L 334.460128 79.489134 
L 334.620421 78.24091 
L 334.941006 90.672178 
L 335.902762 135.247045 
L 336.383639 148.863688 
L 336.704225 152.741323 
L 336.864517 152.929267 
L 337.02481 151.964337 
L 337.345395 146.892769 
L 337.826273 133.57426 
L 338.627736 108.74163 
L 338.948321 335.467364 
L 339.268907 398.921576 
L 339.429199 407.362508 
L 339.589492 409.442826 
L 339.749785 408.510901 
L 341.192418 390.263611 
L 341.513003 389.248413 
L 341.673296 389.597123 
L 341.993881 392.2191 
L 342.314467 397.313651 
L 342.955637 412.273183 
L 343.596808 426.316328 
L 343.917393 430.171279 
L 344.077685 430.918801 
L 344.237978 430.779984 
L 344.398271 429.705119 
L 344.718856 424.647281 
L 345.039441 415.729936 
L 345.520319 395.719336 
L 346.321782 349.235307 
L 348.245294 230.62552 
L 348.886464 205.220788 
L 349.367342 193.254394 
L 349.687927 188.673565 
L 350.008513 186.680946 
L 350.168805 186.598352 
L 350.329098 187.087497 
L 350.649683 189.652501 
L 351.130561 196.936857 
L 351.771731 211.492181 
L 352.89378 243.823043 
L 354.496706 289.065667 
L 355.458462 310.388631 
L 356.420218 326.571842 
L 357.221681 336.659124 
L 358.023144 344.360324 
L 358.9849 351.373407 
L 359.946655 356.809159 
L 361.068704 361.946029 
L 362.351045 366.801184 
L 363.633386 370.803318 
L 364.755434 373.643736 
L 365.877482 375.890319 
L 366.999531 377.597462 
L 367.961287 378.693654 
L 369.083335 379.627411 
L 370.205383 380.275455 
L 371.487724 380.764257 
L 373.090651 381.122438 
L 373.411236 133.07919 
L 373.731821 79.398255 
L 373.892114 78.157068 
L 374.212699 90.601187 
L 375.174455 135.205691 
L 375.655333 148.832523 
L 375.975918 152.715539 
L 376.13621 152.905813 
L 376.296503 151.942999 
L 376.617088 146.875094 
L 377.097966 133.560887 
L 377.899429 108.732991 
L 378.220015 335.459605 
L 378.5406 398.914918 
L 378.700892 407.356401 
L 378.861185 409.437235 
L 379.021478 408.505782 
L 380.464111 390.260922 
L 380.784697 389.246022 
L 380.944989 389.594873 
L 381.265574 392.217137 
L 381.58616 397.312 
L 382.22733 412.272304 
L 382.868501 426.31645 
L 383.189086 430.17197 
L 383.349379 430.919787 
L 383.509671 430.78127 
L 383.669964 429.706706 
L 383.990549 424.649467 
L 384.311134 415.732702 
L 384.792012 395.722898 
L 385.593475 349.239919 
L 387.516987 230.631005 
L 388.158157 205.226127 
L 388.639035 193.259525 
L 388.95962 188.678522 
L 389.280206 186.685709 
L 389.440498 186.603009 
L 389.600791 187.092047 
L 389.921376 189.656827 
L 390.402254 196.940836 
L 391.043425 211.495691 
L 392.165473 243.825778 
L 393.768399 289.06749 
L 394.730155 310.390033 
L 395.691911 326.572909 
L 396.493374 336.659966 
L 397.294837 344.360984 
L 398.256593 351.373893 
L 399.218348 356.809511 
L 400.340397 361.946263 
L 401.622738 366.801323 
L 402.905079 370.803393 
L 404.027127 373.643773 
L 405.149176 375.890331 
L 406.271224 377.597459 
L 407.23298 378.693644 
L 408.355028 379.627396 
L 409.477076 380.275438 
L 410.759417 380.76424 
L 412.362344 381.122423 
L 413.644685 381.278651 
L 413.96527 133.211799 
L 414.285855 79.51123 
L 414.446148 78.261181 
L 414.766733 90.689085 
L 415.728489 135.25618 
L 416.209367 148.870234 
L 416.529952 152.746544 
L 416.690245 152.933927 
L 416.850537 151.968495 
L 417.171122 146.896079 
L 417.652 133.576618 
L 418.453463 108.743029 
L 418.774049 335.46862 
L 419.094634 398.922619 
L 419.254927 407.363443 
L 419.415219 409.44366 
L 419.575512 408.511646 
L 421.018145 390.263983 
L 421.338731 389.248749 
L 421.499023 389.597442 
L 421.819609 392.219377 
L 422.140194 397.313873 
L 422.781364 412.273242 
L 423.422535 426.316142 
L 423.74312 430.170945 
L 423.903413 430.91839 
L 424.063705 430.779493 
L 424.223998 429.704548 
L 424.544583 424.646549 
L 424.865168 415.729048 
L 425.346046 395.71823 
L 426.147509 349.233915 
L 428.071021 230.623903 
L 428.712191 205.21922 
L 429.193069 193.252891 
L 429.513655 188.672115 
L 429.83424 186.679556 
L 429.994532 186.596992 
L 430.154825 187.08617 
L 430.47541 189.651241 
L 430.956288 196.935701 
L 431.597459 211.491165 
L 432.719507 243.822256 
L 434.322433 289.065146 
L 435.284189 310.388232 
L 436.245945 326.571541 
L 437.047408 336.658887 
L 437.848871 344.36014 
L 438.810627 351.373272 
L 439.772383 356.809063 
L 440.894431 361.945965 
L 442.176772 366.801147 
L 443.459113 370.803299 
L 444.581161 373.643727 
L 445.70321 375.890317 
L 446.825258 377.597464 
L 447.787014 378.693658 
L 448.909062 379.627416 
L 450.031111 380.275461 
L 451.313452 380.764262 
L 452.916378 381.122442 
L 453.557548 381.211769 
L 453.878134 133.155221 
L 454.198719 79.463233 
L 454.359011 78.217077 
L 454.679597 90.652137 
L 455.641352 135.235762 
L 456.12223 148.855372 
L 456.442816 152.73455 
L 456.603108 152.923156 
L 456.763401 151.958822 
L 457.083986 146.888275 
L 457.564864 133.570942 
L 458.366327 108.739556 
L 458.686912 335.465502 
L 459.007498 398.919998 
L 459.16779 407.361073 
L 459.328083 409.441524 
L 459.488375 408.509719 
L 460.931009 390.263002 
L 461.251594 389.247868 
L 461.411887 389.59661 
L 461.732472 392.218652 
L 462.053057 397.31328 
L 462.694228 412.273019 
L 463.335398 426.316451 
L 463.655984 430.171568 
L 463.816276 430.919177 
L 463.976569 430.780449 
L 464.136862 429.705674 
L 464.457447 424.648015 
L 464.778032 415.730844 
L 465.25891 395.720484 
L 466.060373 349.236772 
L 467.983885 230.627241 
L 468.625055 205.22246 
L 469.105933 193.255998 
L 469.426518 188.675114 
L 469.747103 186.682433 
L 469.907396 186.599805 
L 470.067689 187.088916 
L 470.388274 189.653849 
L 470.869152 196.938096 
L 471.510322 211.493272 
L 472.632371 243.82389 
L 474.235297 289.066229 
L 475.197053 310.389062 
L 476.158808 326.57217 
L 476.960272 336.659381 
L 477.761735 344.360525 
L 478.72349 351.373555 
L 479.685246 356.809266 
L 480.807295 361.946099 
L 482.089636 366.801226 
L 483.371977 370.80334 
L 484.494025 373.643746 
L 485.616073 375.890322 
L 486.738122 377.597461 
L 487.699877 378.693651 
L 488.821926 379.627406 
L 489.943974 380.27545 
L 491.226315 380.764252 
L 492.829241 381.122433 
L 493.630705 381.230408 
L 493.95129 133.171028 
L 494.271875 79.476684 
L 494.432168 78.229462 
L 494.752753 90.66257 
L 495.714509 135.241687 
L 496.195387 148.859763 
L 496.515972 152.738142 
L 496.676264 152.926404 
L 496.836557 151.961759 
L 497.157142 146.890679 
L 497.63802 133.572728 
L 498.439483 108.740683 
L 498.760069 335.466514 
L 499.080654 398.920858 
L 499.240946 407.361857 
L 499.401239 409.442237 
L 499.561532 408.510368 
L 501.004165 390.263338 
L 501.324751 389.248168 
L 501.485043 389.596892 
L 501.805628 392.218899 
L 502.126214 397.313485 
L 502.767384 412.273116 
L 503.408555 426.316398 
L 503.72914 430.17143 
L 503.889433 430.918994 
L 504.049725 430.78022 
L 504.210018 429.705399 
L 504.530603 424.647648 
L 504.851188 415.730388 
L 505.332066 395.719904 
L 506.133529 349.23603 
L 508.057041 230.626367 
L 508.698211 205.221611 
L 509.179089 193.255183 
L 509.499674 188.674327 
L 509.82026 186.681677 
L 509.980552 186.599066 
L 510.140845 187.088195 
L 510.46143 189.653164 
L 510.942308 196.937466 
L 511.583479 211.492717 
L 512.705527 243.823459 
L 514.308453 289.065942 
L 515.270209 310.388842 
L 516.231965 326.572003 
L 517.033428 336.65925 
L 517.834891 344.360423 
L 518.796647 351.37348 
L 519.758402 356.809211 
L 520.880451 361.946063 
L 522.162792 366.801205 
L 523.445133 370.803329 
L 524.567181 373.643741 
L 525.68923 375.89032 
L 526.811278 377.597461 
L 527.773034 378.693652 
L 528.895082 379.627409 
L 530.01713 380.275453 
L 531.299471 380.764255 
L 532.902398 381.122436 
L 533.864153 381.247731 
L 534.184739 133.185695 
L 534.505324 79.489139 
L 534.665617 78.240915 
L 534.986202 90.672182 
L 535.947958 135.247048 
L 536.428835 148.863691 
L 536.749421 152.741326 
L 536.909713 152.92927 
L 537.070006 151.96434 
L 537.390591 146.892771 
L 537.871469 133.574262 
L 538.672932 108.741631 
L 538.993517 335.467366 
L 539.314103 398.921577 
L 539.474395 407.362509 
L 539.634688 409.442827 
L 539.794981 408.510901 
L 541.237614 390.263612 
L 541.558199 389.248413 
L 541.718492 389.597124 
L 542.039077 392.2191 
L 542.359663 397.313651 
L 543.000833 412.273184 
L 543.642004 426.316329 
L 543.962589 430.171279 
L 544.122881 430.918801 
L 544.283174 430.779984 
L 544.443467 429.705119 
L 544.764052 424.647281 
L 545.084637 415.729936 
L 545.565515 395.719336 
L 546.366978 349.235307 
L 548.29049 230.62552 
L 548.93166 205.220789 
L 549.412538 193.254394 
L 549.733123 188.673565 
L 550.053709 186.680947 
L 550.214001 186.598352 
L 550.374294 187.087497 
L 550.694879 189.652501 
L 551.175757 196.936857 
L 551.816927 211.492181 
L 552.938976 243.823043 
L 554.541902 289.065667 
L 555.503658 310.388631 
L 556.465414 326.571842 
L 557.266877 336.659124 
L 558.06834 344.360324 
L 559.030096 351.373407 
L 559.991851 356.809159 
L 561.1139 361.946029 
L 562.396241 366.801184 
L 563.678582 370.803318 
L 564.80063 373.643736 
L 565.922678 375.890319 
L 567.044727 377.597462 
L 568.006483 378.693654 
L 569.128531 379.627411 
L 570.250579 380.275455 
L 571.53292 380.764257 
L 573.135847 381.122438 
L 574.257895 381.263795 
L 574.57848 133.199271 
L 574.899065 79.500642 
L 575.059358 78.251476 
L 575.379943 90.68101 
L 576.341699 135.251872 
L 576.822577 148.867175 
L 577.143162 152.744121 
L 577.303455 152.931773 
L 577.463747 151.96658 
L 577.784333 146.894567 
L 578.265211 133.575555 
L 579.066674 108.742411 
L 579.387259 335.468065 
L 579.707844 398.922162 
L 579.868137 407.363036 
L 580.028429 409.443299 
L 580.188722 408.511326 
L 581.631356 390.263826 
L 581.951941 389.248606 
L 582.112234 389.597306 
L 582.432819 392.219259 
L 582.753404 397.31378 
L 583.394575 412.273225 
L 584.035745 426.316243 
L 584.35633 430.171118 
L 584.516623 430.918599 
L 584.676916 430.779741 
L 584.837208 429.704835 
L 585.157793 424.646915 
L 585.478379 415.72949 
L 585.959257 395.718778 
L 586.76072 349.234602 
L 588.684231 230.624699 
L 589.325402 205.219992 
L 589.80628 193.25363 
L 590.126865 188.672828 
L 590.44745 186.680239 
L 590.607743 186.597661 
L 590.768035 187.086823 
L 591.088621 189.65186 
L 591.569498 196.936269 
L 592.210669 211.491664 
L 593.332717 243.822642 
L 594.935644 289.065401 
L 595.897399 310.388427 
L 596.859155 326.571689 
L 597.660618 336.659003 
L 598.462081 344.36023 
L 599.423837 351.373338 
L 600.385593 356.80911 
L 601.507641 361.945996 
L 602.789982 366.801165 
L 604.072323 370.803308 
L 605.194372 373.643731 
L 606.31642 375.890318 
L 607.438468 377.597463 
L 608.400224 378.693656 
L 609.522272 379.627414 
L 610.644321 380.275458 
L 611.926662 380.76426 
L 613.209003 381.067791 
L 613.529588 133.032532 
L 613.850173 79.358224 
L 614.010466 78.12 
L 614.331051 90.569488 
L 615.292807 135.186336 
L 615.773685 148.817512 
L 616.09427 152.702873 
L 616.254563 152.894178 
L 616.414855 151.93231 
L 616.735441 146.866069 
L 617.216318 133.553869 
L 618.017782 108.728295 
L 618.338367 335.455383 
L 618.658952 398.911249 
L 618.819245 407.353006 
L 618.979537 409.4341 
L 619.13983 408.502886 
L 620.582464 390.259371 
L 620.903049 389.244649 
L 621.063341 389.593584 
L 621.383927 392.216011 
L 621.704512 397.311039 
L 622.345682 412.271714 
L 622.986853 426.316299 
L 623.307438 430.17206 
L 623.467731 430.92 
L 623.628023 430.781607 
L 623.788316 429.707167 
L 624.108901 424.650172 
L 624.429487 415.733641 
L 624.910364 395.724158 
L 625.711828 349.241603 
L 627.635339 230.633056 
L 628.27651 205.228131 
L 628.757387 193.261456 
L 629.077973 188.680391 
L 629.398558 186.687506 
L 629.558851 186.604769 
L 629.719143 187.093767 
L 630.039728 189.658465 
L 630.520606 196.942345 
L 631.161777 211.497027 
L 632.283825 243.826824 
L 633.886751 289.068193 
L 634.848507 310.390576 
L 635.810263 326.573325 
L 636.611726 336.660295 
L 637.413189 344.361243 
L 638.374945 351.374085 
L 639.336701 356.809651 
L 640.458749 361.946357 
L 641.74109 366.80138 
L 643.023431 370.803424 
L 644.145479 373.64379 
L 645.267528 375.890338 
L 646.389576 377.59746 
L 647.351332 378.693641 
L 648.47338 379.627391 
L 649.595429 380.275432 
L 650.87777 380.764234 
L 652.480696 381.122418 
L 653.92333 381.292383 
L 654.243915 133.223354 
L 654.5645 79.520968 
L 654.724793 78.27009 
L 655.045378 90.69646 
L 656.007134 135.260013 
L 656.488012 148.872903 
L 656.808597 152.748626 
L 656.968889 152.935763 
L 657.129182 151.970113 
L 657.449767 146.897332 
L 657.930645 133.577471 
L 658.732108 108.7435 
L 659.052694 335.469043 
L 659.373279 398.92296 
L 659.533571 407.363742 
L 659.693864 409.44392 
L 659.854157 408.511872 
L 661.29679 390.264089 
L 661.617376 389.248848 
L 661.777668 389.597536 
L 662.098253 392.219458 
L 662.418839 397.313935 
L 663.060009 412.273236 
L 663.70118 426.316028 
L 664.021765 430.170765 
L 664.182058 430.918173 
L 664.34235 430.779241 
L 664.502643 429.704259 
L 664.823228 424.646186 
L 665.143813 415.728612 
L 665.624691 395.717694 
L 666.426154 349.233246 
L 668.349666 230.623132 
L 668.990836 205.218474 
L 669.471714 193.252176 
L 669.792299 188.671425 
L 670.112885 186.678895 
L 670.273177 186.596346 
L 670.43347 187.08554 
L 670.754055 189.650643 
L 671.234933 196.935153 
L 671.876104 211.490683 
L 672.998152 243.821883 
L 674.601078 289.064901 
L 675.562834 310.388045 
L 676.52459 326.5714 
L 677.326053 336.658776 
L 678.127516 344.360054 
L 679.089272 351.37321 
L 680.051027 356.809018 
L 681.173076 361.945936 
L 682.455417 366.80113 
L 683.737758 370.80329 
L 684.859806 373.643723 
L 685.981855 375.890316 
L 687.103903 377.597465 
L 688.065659 378.69366 
L 689.187707 379.627419 
L 690.309755 380.275463 
L 691.592096 380.764265 
L 693.195023 381.122444 
L 694.156778 381.247738 
L 694.477364 133.185702 
L 694.797949 79.489145 
L 694.958242 78.240921 
L 695.278827 90.672188 
L 696.240583 135.247053 
L 696.72146 148.863695 
L 697.042046 152.741329 
L 697.202338 152.929273 
L 697.362631 151.964343 
L 697.683216 146.892774 
L 698.164094 133.574264 
L 698.965557 108.741633 
L 699.286142 335.467367 
L 699.606728 398.921578 
L 699.76702 407.362511 
L 699.927313 409.442828 
L 700.087606 408.510903 
L 701.530239 390.263612 
L 701.850824 389.248414 
L 702.011117 389.597124 
L 702.331702 392.219101 
L 702.652288 397.313651 
L 703.293458 412.273184 
L 703.934629 426.316329 
L 704.255214 430.171279 
L 704.415506 430.918801 
L 704.575799 430.779984 
L 704.736092 429.705119 
L 705.056677 424.647281 
L 705.377262 415.729937 
L 705.85814 395.719336 
L 706.659603 349.235307 
L 708.583115 230.625521 
L 709.224285 205.220789 
L 709.705163 193.254394 
L 710.025748 188.673565 
L 710.346334 186.680947 
L 710.506626 186.598352 
L 710.666919 187.087497 
L 710.987504 189.652501 
L 711.468382 196.936857 
L 712.109552 211.492181 
L 713.231601 243.823043 
L 714.834527 289.065667 
L 715.796283 310.388631 
L 716.758039 326.571842 
L 717.559502 336.659124 
L 718.360965 344.360324 
L 719.322721 351.373407 
L 720.284476 356.809159 
L 721.406525 361.946029 
L 722.688866 366.801184 
L 723.971207 370.803318 
L 725.093255 373.643736 
L 726.215303 375.890319 
L 727.337352 377.597462 
L 728.299108 378.693654 
L 729.421156 379.627411 
L 730.543204 380.275455 
L 731.825545 380.764257 
L 733.428472 381.122438 
L 734.069642 381.211765 
L 734.390227 133.155217 
L 734.710813 79.46323 
L 734.871105 78.217074 
L 735.19169 90.652134 
L 736.153446 135.23576 
L 736.634324 148.85537 
L 736.954909 152.734548 
L 737.115202 152.923154 
L 737.275495 151.95882 
L 737.59608 146.888273 
L 738.076958 133.57094 
L 738.878421 108.739555 
L 739.199006 335.465501 
L 739.519591 398.919997 
L 739.679884 407.361072 
L 739.840177 409.441523 
L 740.000469 408.509718 
L 741.443103 390.263002 
L 741.763688 389.247868 
L 741.923981 389.596609 
L 742.244566 392.218652 
L 742.565151 397.31328 
L 743.206322 412.273019 
L 743.847492 426.31645 
L 744.168077 430.171568 
L 744.32837 430.919177 
L 744.488663 430.780449 
L 744.648955 429.705674 
L 744.969541 424.648015 
L 745.290126 415.730844 
L 745.771004 395.720483 
L 746.572467 349.236772 
L 748.495978 230.627241 
L 749.137149 205.22246 
L 749.618027 193.255998 
L 749.938612 188.675114 
L 750.259197 186.682433 
L 750.41949 186.599805 
L 750.579782 187.088916 
L 750.900368 189.653849 
L 751.381246 196.938096 
L 752.022416 211.493272 
L 753.144464 243.82389 
L 754.747391 289.066229 
L 755.709146 310.389062 
L 756.670902 326.57217 
L 757.472365 336.659381 
L 758.273828 344.360525 
L 759.235584 351.373555 
L 760.19734 356.809266 
L 761.319388 361.946099 
L 762.601729 366.801226 
L 763.88407 370.80334 
L 765.006119 373.643746 
L 766.128167 375.890322 
L 767.250215 377.597461 
L 768.211971 378.693651 
L 769.33402 379.627406 
L 770.456068 380.27545 
L 771.738409 380.764252 
L 773.341335 381.122433 
L 773.822213 381.191717 
L 774.142798 133.138188 
L 774.463384 79.448713 
L 774.623676 78.203689 
L 774.944261 90.640822 
L 775.906017 135.229227 
L 776.386895 148.850474 
L 776.70748 152.730514 
L 776.867773 152.919492 
L 777.028066 151.955495 
L 777.348651 146.88553 
L 777.829529 133.568877 
L 778.630992 108.738233 
L 778.951577 335.464314 
L 779.272162 398.918981 
L 779.432455 407.360143 
L 779.592748 409.440674 
L 779.75304 408.508943 
L 781.195674 390.262596 
L 781.516259 389.247507 
L 781.676552 389.596269 
L 781.997137 392.218356 
L 782.317722 397.313031 
L 782.958893 412.272892 
L 783.600063 426.316483 
L 783.920648 430.171692 
L 784.080941 430.919349 
L 784.241234 430.780669 
L 784.401526 429.705943 
L 784.722112 424.648381 
L 785.042697 415.731304 
L 785.523575 395.721073 
L 786.325038 349.237531 
L 788.248549 230.628141 
L 788.88972 205.223335 
L 789.370598 193.256839 
L 789.691183 188.675926 
L 790.011768 186.683213 
L 790.172061 186.600568 
L 790.332353 187.089662 
L 790.652939 189.654558 
L 791.133817 196.938747 
L 791.774987 211.493846 
L 792.897035 243.824338 
L 794.499962 289.066527 
L 795.461717 310.389291 
L 796.423473 326.572343 
L 797.224936 336.659518 
L 798.026399 344.360633 
L 798.988155 351.373634 
L 799.949911 356.809323 
L 801.071959 361.946137 
L 802.3543 366.801248 
L 803.636641 370.803352 
L 804.75869 373.643752 
L 805.880738 375.890324 
L 807.002786 377.59746 
L 807.964542 378.693649 
L 809.086591 379.627404 
L 810.208639 380.275447 
L 811.49098 380.764249 
L 813.093906 381.122431 
L 813.414491 381.170198 
L 813.735077 133.119885 
L 814.055662 79.433083 
L 814.215955 78.189263 
L 814.53654 90.628592 
L 815.498296 135.222062 
L 815.979173 148.845055 
L 816.299759 152.726019 
L 816.460051 152.915398 
L 816.620344 151.951766 
L 816.940929 146.882433 
L 817.421807 133.566525 
L 818.22327 108.736707 
L 818.543855 335.462943 
L 818.864441 398.917803 
L 819.024733 407.359061 
L 819.185026 409.439683 
L 819.345319 408.508034 
L 820.787952 390.262118 
L 821.108537 389.247082 
L 821.26883 389.59587 
L 821.589415 392.218007 
L 821.910001 397.312737 
L 822.551171 412.272732 
L 823.192342 426.316495 
L 823.512927 430.171802 
L 823.673219 430.919509 
L 823.833512 430.78088 
L 823.993805 429.706205 
L 824.31439 424.648746 
L 824.634975 415.731767 
L 825.115853 395.721671 
L 825.917316 349.238309 
L 827.840828 230.629068 
L 828.481998 205.224238 
L 828.962876 193.257707 
L 829.283461 188.676765 
L 829.604047 186.684019 
L 829.764339 186.601356 
L 829.924632 187.090432 
L 830.245217 189.65529 
L 830.726095 196.939421 
L 831.367265 211.494441 
L 832.489314 243.824801 
L 834.09224 289.066836 
L 835.053996 310.389528 
L 836.015752 326.572524 
L 836.817215 336.659661 
L 837.618678 344.360745 
L 838.580434 351.373717 
L 839.542189 356.809383 
L 840.664238 361.946177 
L 841.946579 366.801272 
L 843.22892 370.803365 
L 844.350968 373.643759 
L 845.473016 375.890326 
L 846.595065 377.59746 
L 847.556821 378.693647 
L 848.678869 379.627401 
L 849.800917 380.275444 
L 851.083258 380.764246 
L 852.686185 381.122428 
L 854.609696 381.327384 
L 854.930281 133.252647 
L 855.250867 79.545496 
L 855.411159 78.292432 
L 855.731744 90.714742 
L 856.6935 135.268913 
L 857.174378 148.878783 
L 857.494963 152.753017 
L 857.655256 152.93954 
L 857.815549 151.973352 
L 858.136134 146.899691 
L 858.617012 133.578902 
L 859.418475 108.744129 
L 859.73906 335.469609 
L 860.059645 398.923365 
L 860.219938 407.364061 
L 860.380231 409.444162 
L 860.540523 408.512049 
L 861.983157 390.264139 
L 862.303742 389.248906 
L 862.464035 389.597595 
L 862.78462 392.219508 
L 863.105205 397.313953 
L 863.746376 412.273101 
L 864.387546 426.315616 
L 864.708131 430.170179 
L 864.868424 430.917494 
L 865.028717 430.778464 
L 865.189009 429.703384 
L 865.509595 424.645112 
L 865.83018 415.727343 
L 866.311058 395.716152 
L 867.112521 349.231345 
L 869.036032 230.620963 
L 869.677203 205.216377 
L 870.158081 193.25017 
L 870.478666 188.669493 
L 870.799251 186.677044 
L 870.959544 186.594538 
L 871.119836 187.083776 
L 871.440422 189.64897 
L 871.9213 196.933622 
L 872.56247 211.48934 
L 873.684518 243.820848 
L 875.287445 289.064221 
L 876.2492 310.387528 
L 877.210956 326.571011 
L 878.012419 336.658472 
L 878.813882 344.359817 
L 879.775638 351.373038 
L 880.737394 356.808895 
L 881.859442 361.945856 
L 883.141783 366.801085 
L 884.424124 370.803267 
L 885.546173 373.643713 
L 886.668221 375.890314 
L 887.790269 377.597469 
L 888.752025 378.693666 
L 889.874074 379.627426 
L 890.996122 380.275471 
L 892.278463 380.764272 
L 893.881389 381.12245 
L 894.362267 381.191733 
L 894.682852 133.138202 
L 895.003438 79.448725 
L 895.16373 78.203702 
L 895.484315 90.640833 
L 896.446071 135.229236 
L 896.926949 148.850483 
L 897.247534 152.730522 
L 897.407827 152.919499 
L 897.56812 151.955502 
L 897.888705 146.885536 
L 898.369583 133.568882 
L 899.171046 108.738237 
L 899.491631 335.464317 
L 899.812216 398.918984 
L 899.972509 407.360145 
L 900.132802 409.440677 
L 900.293094 408.508945 
L 901.735728 390.262597 
L 902.056313 389.247508 
L 902.216606 389.596271 
L 902.537191 392.218357 
L 902.857776 397.313032 
L 903.498947 412.272893 
L 904.140117 426.316484 
L 904.460702 430.171693 
L 904.620995 430.919349 
L 904.781288 430.78067 
L 904.94158 429.705943 
L 905.262166 424.648381 
L 905.582751 415.731304 
L 906.063629 395.721073 
L 906.865092 349.237531 
L 908.788603 230.628141 
L 909.429774 205.223335 
L 909.910652 193.25684 
L 910.231237 188.675926 
L 910.551822 186.683213 
L 910.712115 186.600568 
L 910.872407 187.089662 
L 911.192993 189.654558 
L 911.673871 196.938747 
L 912.315041 211.493846 
L 913.437089 243.824338 
L 915.040016 289.066527 
L 916.001771 310.389291 
L 916.963527 326.572343 
L 917.76499 336.659518 
L 918.566453 344.360633 
L 919.528209 351.373634 
L 920.489965 356.809323 
L 921.612013 361.946137 
L 922.894354 366.801248 
L 924.176695 370.803352 
L 925.298744 373.643752 
L 926.420792 375.890324 
L 927.54284 377.59746 
L 928.504596 378.693649 
L 929.626645 379.627404 
L 930.748693 380.275447 
L 932.031034 380.764249 
L 933.63396 381.122431 
L 933.794253 381.147131 
L 933.954545 217.942877 
L 933.954545 217.942877 
" clip-path="url(#p06ad04f37b)" style="fill: none; stroke: #1f77b4; stroke-width: 1.5; stroke-linecap: square"/>
   </g>
   <g id="line2d_14">
    <path d="M 173.045455 101.457809 
L 177.693941 101.457809 
L 177.854233 381.241428 
L 213.278903 381.241428 
L 213.439196 101.457809 
L 218.087682 101.457809 
L 218.247975 381.241428 
L 253.99323 381.241428 
L 254.153523 101.457809 
L 258.802009 101.457809 
L 258.962302 381.241428 
L 293.585509 381.241428 
L 293.745801 101.457809 
L 298.394287 101.457809 
L 298.55458 381.241428 
L 333.818957 381.241428 
L 333.97925 101.457809 
L 338.627736 101.457809 
L 338.788029 381.241428 
L 373.090651 381.241428 
L 373.250943 101.457809 
L 377.899429 101.457809 
L 378.059722 381.241428 
L 413.644685 381.241428 
L 413.804977 101.457809 
L 418.453463 101.457809 
L 418.613756 381.241428 
L 453.557548 381.241428 
L 453.717841 101.457809 
L 458.366327 101.457809 
L 458.52662 381.241428 
L 493.630705 381.241428 
L 493.790997 101.457809 
L 498.439483 101.457809 
L 498.599776 381.241428 
L 533.864153 381.241428 
L 534.024446 101.457809 
L 538.672932 101.457809 
L 538.833225 381.241428 
L 574.257895 381.241428 
L 574.418188 101.457809 
L 579.066674 101.457809 
L 579.226966 381.241428 
L 613.209003 381.241428 
L 613.369295 101.457809 
L 618.017782 101.457809 
L 618.178074 381.241428 
L 653.92333 381.241428 
L 654.083622 101.457809 
L 658.732108 101.457809 
L 658.892401 381.241428 
L 694.156778 381.241428 
L 694.317071 101.457809 
L 698.965557 101.457809 
L 699.12585 381.241428 
L 734.069642 381.241428 
L 734.229935 101.457809 
L 738.878421 101.457809 
L 739.038713 381.241428 
L 773.822213 381.241428 
L 773.982506 101.457809 
L 778.630992 101.457809 
L 778.791284 381.241428 
L 813.414491 381.241428 
L 813.574784 101.457809 
L 818.22327 101.457809 
L 818.383563 381.241428 
L 854.609696 381.241428 
L 854.769989 101.457809 
L 859.418475 101.457809 
L 859.578767 381.241428 
L 894.362267 381.241428 
L 894.52256 101.457809 
L 899.171046 101.457809 
L 899.331338 381.241428 
L 933.794253 381.241428 
L 933.954545 101.457809 
L 933.954545 101.457809 
" clip-path="url(#p06ad04f37b)" style="fill: none; stroke: #ff7f0e; stroke-width: 1.5; stroke-linecap: square"/>
   </g>
   <g id="line2d_15">
    <path d="M 929.466352 381.241428 
" clip-path="url(#p06ad04f37b)" style="fill: none; stroke: #000000; stroke-width: 1.5; stroke-linecap: square"/>
    <defs>
     <path id="m4b107ca13f" d="M 0 1 
C 0.265203 1 0.51958 0.894634 0.707107 0.707107 
C 0.894634 0.51958 1 0.265203 1 0 
C 1 -0.265203 0.894634 -0.51958 0.707107 -0.707107 
C 0.51958 -0.894634 0.265203 -1 0 -1 
C -0.265203 -1 -0.51958 -0.894634 -0.707107 -0.707107 
C -0.894634 -0.51958 -1 -0.265203 -1 0 
C -1 0.265203 -0.894634 0.51958 -0.707107 0.707107 
C -0.51958 0.894634 -0.265203 1 0 1 
z
" style="stroke: #000000"/>
    </defs>
    <g clip-path="url(#p06ad04f37b)">
     <use xlink:href="#m4b107ca13f" x="173.045455" y="101.457809" style="stroke: #000000"/>
     <use xlink:href="#m4b107ca13f" x="178.174819" y="381.241428" style="stroke: #000000"/>
     <use xlink:href="#m4b107ca13f" x="183.14389" y="381.241428" style="stroke: #000000"/>
     <use xlink:href="#m4b107ca13f" x="188.112961" y="101.457809" style="stroke: #000000"/>
     <use xlink:href="#m4b107ca13f" x="193.082033" y="381.241428" style="stroke: #000000"/>
     <use xlink:href="#m4b107ca13f" x="198.211397" y="381.241428" style="stroke: #000000"/>
     <use xlink:href="#m4b107ca13f" x="203.180468" y="101.457809" style="stroke: #000000"/>
     <use xlink:href="#m4b107ca13f" x="208.149539" y="381.241428" style="stroke: #000000"/>
     <use xlink:href="#m4b107ca13f" x="213.118611" y="101.457809" style="stroke: #000000"/>
     <use xlink:href="#m4b107ca13f" x="218.247975" y="381.241428" style="stroke: #000000"/>
     <use xlink:href="#m4b107ca13f" x="223.217046" y="381.241428" style="stroke: #000000"/>
     <use xlink:href="#m4b107ca13f" x="228.186118" y="101.457809" style="stroke: #000000"/>
     <use xlink:href="#m4b107ca13f" x="233.155189" y="381.241428" style="stroke: #000000"/>
     <use xlink:href="#m4b107ca13f" x="238.284553" y="381.241428" style="stroke: #000000"/>
     <use xlink:href="#m4b107ca13f" x="243.253624" y="101.457809" style="stroke: #000000"/>
     <use xlink:href="#m4b107ca13f" x="248.222696" y="381.241428" style="stroke: #000000"/>
     <use xlink:href="#m4b107ca13f" x="253.191767" y="101.457809" style="stroke: #000000"/>
     <use xlink:href="#m4b107ca13f" x="258.321131" y="381.241428" style="stroke: #000000"/>
     <use xlink:href="#m4b107ca13f" x="263.290202" y="381.241428" style="stroke: #000000"/>
     <use xlink:href="#m4b107ca13f" x="268.259274" y="101.457809" style="stroke: #000000"/>
     <use xlink:href="#m4b107ca13f" x="273.228345" y="381.241428" style="stroke: #000000"/>
     <use xlink:href="#m4b107ca13f" x="278.357709" y="381.241428" style="stroke: #000000"/>
     <use xlink:href="#m4b107ca13f" x="283.326781" y="101.457809" style="stroke: #000000"/>
     <use xlink:href="#m4b107ca13f" x="288.295852" y="381.241428" style="stroke: #000000"/>
     <use xlink:href="#m4b107ca13f" x="293.264923" y="101.457809" style="stroke: #000000"/>
     <use xlink:href="#m4b107ca13f" x="298.394287" y="381.241428" style="stroke: #000000"/>
     <use xlink:href="#m4b107ca13f" x="303.363359" y="381.241428" style="stroke: #000000"/>
     <use xlink:href="#m4b107ca13f" x="308.33243" y="101.457809" style="stroke: #000000"/>
     <use xlink:href="#m4b107ca13f" x="313.301501" y="381.241428" style="stroke: #000000"/>
     <use xlink:href="#m4b107ca13f" x="318.430865" y="381.241428" style="stroke: #000000"/>
     <use xlink:href="#m4b107ca13f" x="323.399937" y="101.457809" style="stroke: #000000"/>
     <use xlink:href="#m4b107ca13f" x="328.369008" y="381.241428" style="stroke: #000000"/>
     <use xlink:href="#m4b107ca13f" x="333.33808" y="101.457809" style="stroke: #000000"/>
     <use xlink:href="#m4b107ca13f" x="338.467444" y="381.241428" style="stroke: #000000"/>
     <use xlink:href="#m4b107ca13f" x="343.436515" y="381.241428" style="stroke: #000000"/>
     <use xlink:href="#m4b107ca13f" x="348.405586" y="101.457809" style="stroke: #000000"/>
     <use xlink:href="#m4b107ca13f" x="353.374658" y="381.241428" style="stroke: #000000"/>
     <use xlink:href="#m4b107ca13f" x="358.504022" y="381.241428" style="stroke: #000000"/>
     <use xlink:href="#m4b107ca13f" x="363.473093" y="101.457809" style="stroke: #000000"/>
     <use xlink:href="#m4b107ca13f" x="368.442164" y="381.241428" style="stroke: #000000"/>
     <use xlink:href="#m4b107ca13f" x="373.411236" y="101.457809" style="stroke: #000000"/>
     <use xlink:href="#m4b107ca13f" x="378.5406" y="381.241428" style="stroke: #000000"/>
     <use xlink:href="#m4b107ca13f" x="383.509671" y="381.241428" style="stroke: #000000"/>
     <use xlink:href="#m4b107ca13f" x="388.478743" y="101.457809" style="stroke: #000000"/>
     <use xlink:href="#m4b107ca13f" x="393.447814" y="381.241428" style="stroke: #000000"/>
     <use xlink:href="#m4b107ca13f" x="398.577178" y="381.241428" style="stroke: #000000"/>
     <use xlink:href="#m4b107ca13f" x="403.546249" y="101.457809" style="stroke: #000000"/>
     <use xlink:href="#m4b107ca13f" x="408.515321" y="381.241428" style="stroke: #000000"/>
     <use xlink:href="#m4b107ca13f" x="413.484392" y="101.457809" style="stroke: #000000"/>
     <use xlink:href="#m4b107ca13f" x="418.613756" y="381.241428" style="stroke: #000000"/>
     <use xlink:href="#m4b107ca13f" x="423.582827" y="381.241428" style="stroke: #000000"/>
     <use xlink:href="#m4b107ca13f" x="428.551899" y="101.457809" style="stroke: #000000"/>
     <use xlink:href="#m4b107ca13f" x="433.52097" y="381.241428" style="stroke: #000000"/>
     <use xlink:href="#m4b107ca13f" x="438.650334" y="381.241428" style="stroke: #000000"/>
     <use xlink:href="#m4b107ca13f" x="443.619406" y="101.457809" style="stroke: #000000"/>
     <use xlink:href="#m4b107ca13f" x="448.588477" y="381.241428" style="stroke: #000000"/>
     <use xlink:href="#m4b107ca13f" x="453.557548" y="101.457809" style="stroke: #000000"/>
     <use xlink:href="#m4b107ca13f" x="458.686912" y="381.241428" style="stroke: #000000"/>
     <use xlink:href="#m4b107ca13f" x="463.655984" y="381.241428" style="stroke: #000000"/>
     <use xlink:href="#m4b107ca13f" x="468.625055" y="101.457809" style="stroke: #000000"/>
     <use xlink:href="#m4b107ca13f" x="473.594126" y="381.241428" style="stroke: #000000"/>
     <use xlink:href="#m4b107ca13f" x="478.72349" y="381.241428" style="stroke: #000000"/>
     <use xlink:href="#m4b107ca13f" x="483.692562" y="101.457809" style="stroke: #000000"/>
     <use xlink:href="#m4b107ca13f" x="488.661633" y="381.241428" style="stroke: #000000"/>
     <use xlink:href="#m4b107ca13f" x="493.630705" y="101.457809" style="stroke: #000000"/>
     <use xlink:href="#m4b107ca13f" x="498.760069" y="381.241428" style="stroke: #000000"/>
     <use xlink:href="#m4b107ca13f" x="503.72914" y="381.241428" style="stroke: #000000"/>
     <use xlink:href="#m4b107ca13f" x="508.698211" y="101.457809" style="stroke: #000000"/>
     <use xlink:href="#m4b107ca13f" x="513.667283" y="381.241428" style="stroke: #000000"/>
     <use xlink:href="#m4b107ca13f" x="518.796647" y="381.241428" style="stroke: #000000"/>
     <use xlink:href="#m4b107ca13f" x="523.765718" y="101.457809" style="stroke: #000000"/>
     <use xlink:href="#m4b107ca13f" x="528.734789" y="381.241428" style="stroke: #000000"/>
     <use xlink:href="#m4b107ca13f" x="533.703861" y="101.457809" style="stroke: #000000"/>
     <use xlink:href="#m4b107ca13f" x="538.833225" y="381.241428" style="stroke: #000000"/>
     <use xlink:href="#m4b107ca13f" x="543.802296" y="381.241428" style="stroke: #000000"/>
     <use xlink:href="#m4b107ca13f" x="548.771368" y="101.457809" style="stroke: #000000"/>
     <use xlink:href="#m4b107ca13f" x="553.740439" y="381.241428" style="stroke: #000000"/>
     <use xlink:href="#m4b107ca13f" x="558.869803" y="381.241428" style="stroke: #000000"/>
     <use xlink:href="#m4b107ca13f" x="563.838874" y="101.457809" style="stroke: #000000"/>
     <use xlink:href="#m4b107ca13f" x="568.807946" y="381.241428" style="stroke: #000000"/>
     <use xlink:href="#m4b107ca13f" x="573.777017" y="101.457809" style="stroke: #000000"/>
     <use xlink:href="#m4b107ca13f" x="578.906381" y="381.241428" style="stroke: #000000"/>
     <use xlink:href="#m4b107ca13f" x="583.875452" y="381.241428" style="stroke: #000000"/>
     <use xlink:href="#m4b107ca13f" x="588.844524" y="101.457809" style="stroke: #000000"/>
     <use xlink:href="#m4b107ca13f" x="593.813595" y="381.241428" style="stroke: #000000"/>
     <use xlink:href="#m4b107ca13f" x="598.942959" y="381.241428" style="stroke: #000000"/>
     <use xlink:href="#m4b107ca13f" x="603.912031" y="101.457809" style="stroke: #000000"/>
     <use xlink:href="#m4b107ca13f" x="608.881102" y="381.241428" style="stroke: #000000"/>
     <use xlink:href="#m4b107ca13f" x="613.850173" y="101.457809" style="stroke: #000000"/>
     <use xlink:href="#m4b107ca13f" x="618.979537" y="381.241428" style="stroke: #000000"/>
     <use xlink:href="#m4b107ca13f" x="623.948609" y="381.241428" style="stroke: #000000"/>
     <use xlink:href="#m4b107ca13f" x="628.91768" y="101.457809" style="stroke: #000000"/>
     <use xlink:href="#m4b107ca13f" x="633.886751" y="381.241428" style="stroke: #000000"/>
     <use xlink:href="#m4b107ca13f" x="639.016115" y="381.241428" style="stroke: #000000"/>
     <use xlink:href="#m4b107ca13f" x="643.985187" y="101.457809" style="stroke: #000000"/>
     <use xlink:href="#m4b107ca13f" x="648.954258" y="381.241428" style="stroke: #000000"/>
     <use xlink:href="#m4b107ca13f" x="653.92333" y="101.457809" style="stroke: #000000"/>
     <use xlink:href="#m4b107ca13f" x="659.052694" y="381.241428" style="stroke: #000000"/>
     <use xlink:href="#m4b107ca13f" x="664.021765" y="381.241428" style="stroke: #000000"/>
     <use xlink:href="#m4b107ca13f" x="668.990836" y="101.457809" style="stroke: #000000"/>
     <use xlink:href="#m4b107ca13f" x="673.959908" y="381.241428" style="stroke: #000000"/>
     <use xlink:href="#m4b107ca13f" x="679.089272" y="381.241428" style="stroke: #000000"/>
     <use xlink:href="#m4b107ca13f" x="684.058343" y="101.457809" style="stroke: #000000"/>
     <use xlink:href="#m4b107ca13f" x="689.027414" y="381.241428" style="stroke: #000000"/>
     <use xlink:href="#m4b107ca13f" x="693.996486" y="101.457809" style="stroke: #000000"/>
     <use xlink:href="#m4b107ca13f" x="699.12585" y="381.241428" style="stroke: #000000"/>
     <use xlink:href="#m4b107ca13f" x="704.094921" y="381.241428" style="stroke: #000000"/>
     <use xlink:href="#m4b107ca13f" x="709.063993" y="101.457809" style="stroke: #000000"/>
     <use xlink:href="#m4b107ca13f" x="714.033064" y="381.241428" style="stroke: #000000"/>
     <use xlink:href="#m4b107ca13f" x="719.162428" y="381.241428" style="stroke: #000000"/>
     <use xlink:href="#m4b107ca13f" x="724.131499" y="101.457809" style="stroke: #000000"/>
     <use xlink:href="#m4b107ca13f" x="729.100571" y="381.241428" style="stroke: #000000"/>
     <use xlink:href="#m4b107ca13f" x="734.069642" y="101.457809" style="stroke: #000000"/>
     <use xlink:href="#m4b107ca13f" x="739.199006" y="381.241428" style="stroke: #000000"/>
     <use xlink:href="#m4b107ca13f" x="744.168077" y="381.241428" style="stroke: #000000"/>
     <use xlink:href="#m4b107ca13f" x="749.137149" y="101.457809" style="stroke: #000000"/>
     <use xlink:href="#m4b107ca13f" x="754.10622" y="381.241428" style="stroke: #000000"/>
     <use xlink:href="#m4b107ca13f" x="759.235584" y="381.241428" style="stroke: #000000"/>
     <use xlink:href="#m4b107ca13f" x="764.204656" y="101.457809" style="stroke: #000000"/>
     <use xlink:href="#m4b107ca13f" x="769.173727" y="381.241428" style="stroke: #000000"/>
     <use xlink:href="#m4b107ca13f" x="774.142798" y="101.457809" style="stroke: #000000"/>
     <use xlink:href="#m4b107ca13f" x="779.272162" y="381.241428" style="stroke: #000000"/>
     <use xlink:href="#m4b107ca13f" x="784.241234" y="381.241428" style="stroke: #000000"/>
     <use xlink:href="#m4b107ca13f" x="789.210305" y="101.457809" style="stroke: #000000"/>
     <use xlink:href="#m4b107ca13f" x="794.179376" y="381.241428" style="stroke: #000000"/>
     <use xlink:href="#m4b107ca13f" x="799.30874" y="381.241428" style="stroke: #000000"/>
     <use xlink:href="#m4b107ca13f" x="804.277812" y="101.457809" style="stroke: #000000"/>
     <use xlink:href="#m4b107ca13f" x="809.246883" y="381.241428" style="stroke: #000000"/>
     <use xlink:href="#m4b107ca13f" x="814.215955" y="101.457809" style="stroke: #000000"/>
     <use xlink:href="#m4b107ca13f" x="819.345319" y="381.241428" style="stroke: #000000"/>
     <use xlink:href="#m4b107ca13f" x="824.31439" y="381.241428" style="stroke: #000000"/>
     <use xlink:href="#m4b107ca13f" x="829.283461" y="101.457809" style="stroke: #000000"/>
     <use xlink:href="#m4b107ca13f" x="834.252533" y="381.241428" style="stroke: #000000"/>
     <use xlink:href="#m4b107ca13f" x="839.381897" y="381.241428" style="stroke: #000000"/>
     <use xlink:href="#m4b107ca13f" x="844.350968" y="101.457809" style="stroke: #000000"/>
     <use xlink:href="#m4b107ca13f" x="849.320039" y="381.241428" style="stroke: #000000"/>
     <use xlink:href="#m4b107ca13f" x="854.289111" y="101.457809" style="stroke: #000000"/>
     <use xlink:href="#m4b107ca13f" x="859.418475" y="381.241428" style="stroke: #000000"/>
     <use xlink:href="#m4b107ca13f" x="864.387546" y="381.241428" style="stroke: #000000"/>
     <use xlink:href="#m4b107ca13f" x="869.356618" y="101.457809" style="stroke: #000000"/>
     <use xlink:href="#m4b107ca13f" x="874.325689" y="381.241428" style="stroke: #000000"/>
     <use xlink:href="#m4b107ca13f" x="879.455053" y="381.241428" style="stroke: #000000"/>
     <use xlink:href="#m4b107ca13f" x="884.424124" y="101.457809" style="stroke: #000000"/>
     <use xlink:href="#m4b107ca13f" x="889.393196" y="381.241428" style="stroke: #000000"/>
     <use xlink:href="#m4b107ca13f" x="894.362267" y="101.457809" style="stroke: #000000"/>
     <use xlink:href="#m4b107ca13f" x="899.491631" y="381.241428" style="stroke: #000000"/>
     <use xlink:href="#m4b107ca13f" x="904.460702" y="381.241428" style="stroke: #000000"/>
     <use xlink:href="#m4b107ca13f" x="909.429774" y="101.457809" style="stroke: #000000"/>
     <use xlink:href="#m4b107ca13f" x="914.398845" y="381.241428" style="stroke: #000000"/>
     <use xlink:href="#m4b107ca13f" x="919.528209" y="381.241428" style="stroke: #000000"/>
     <use xlink:href="#m4b107ca13f" x="924.497281" y="101.457809" style="stroke: #000000"/>
     <use xlink:href="#m4b107ca13f" x="929.466352" y="381.241428" style="stroke: #000000"/>
    </g>
   </g>
   <g id="patch_3">
    <path d="M 135 448.56 
L 135 60.48 
" style="fill: none; stroke: #000000; stroke-width: 0.8; stroke-linejoin: miter; stroke-linecap: square"/>
   </g>
   <g id="patch_4">
    <path d="M 972 448.56 
L 972 60.48 
" style="fill: none; stroke: #000000; stroke-width: 0.8; stroke-linejoin: miter; stroke-linecap: square"/>
   </g>
   <g id="patch_5">
    <path d="M 135 448.56 
L 972 448.56 
" style="fill: none; stroke: #000000; stroke-width: 0.8; stroke-linejoin: miter; stroke-linecap: square"/>
   </g>
   <g id="patch_6">
    <path d="M 135 60.48 
L 972 60.48 
" style="fill: none; stroke: #000000; stroke-width: 0.8; stroke-linejoin: miter; stroke-linecap: square"/>
   </g>
   <g id="legend_1">
    <g id="patch_7">
     <path d="M 895.915625 278.315313 
L 965 278.315313 
Q 967 278.315313 967 276.315313 
L 967 232.724688 
Q 967 230.724688 965 230.724688 
L 895.915625 230.724688 
Q 893.915625 230.724688 893.915625 232.724688 
L 893.915625 276.315313 
Q 893.915625 278.315313 895.915625 278.315313 
z
" style="fill: #ffffff; opacity: 0.8; stroke: #cccccc; stroke-linejoin: miter"/>
    </g>
    <g id="line2d_16">
     <path d="M 897.915625 238.823125 
L 907.915625 238.823125 
L 917.915625 238.823125 
" style="fill: none; stroke: #1f77b4; stroke-width: 1.5; stroke-linecap: square"/>
    </g>
    <g id="text_14">
     <!-- nw_0 -->
     <g transform="translate(925.915625 242.323125) scale(0.1 -0.1)">
      <defs>
       <path id="DejaVuSans-6e" d="M 3513 2113 
L 3513 0 
L 2938 0 
L 2938 2094 
Q 2938 2591 2744 2837 
Q 2550 3084 2163 3084 
Q 1697 3084 1428 2787 
Q 1159 2491 1159 1978 
L 1159 0 
L 581 0 
L 581 3500 
L 1159 3500 
L 1159 2956 
Q 1366 3272 1645 3428 
Q 1925 3584 2291 3584 
Q 2894 3584 3203 3211 
Q 3513 2838 3513 2113 
z
" transform="scale(0.015625)"/>
       <path id="DejaVuSans-77" d="M 269 3500 
L 844 3500 
L 1563 769 
L 2278 3500 
L 2956 3500 
L 3675 769 
L 4391 3500 
L 4966 3500 
L 4050 0 
L 3372 0 
L 2619 2869 
L 1863 0 
L 1184 0 
L 269 3500 
z
" transform="scale(0.015625)"/>
       <path id="DejaVuSans-5f" d="M 3263 -1063 
L 3263 -1509 
L -63 -1509 
L -63 -1063 
L 3263 -1063 
z
" transform="scale(0.015625)"/>
      </defs>
      <use xlink:href="#DejaVuSans-6e"/>
      <use xlink:href="#DejaVuSans-77" x="63.378906"/>
      <use xlink:href="#DejaVuSans-5f" x="145.166016"/>
      <use xlink:href="#DejaVuSans-30" x="195.166016"/>
     </g>
    </g>
    <g id="line2d_17">
     <path d="M 897.915625 253.779375 
L 907.915625 253.779375 
L 917.915625 253.779375 
" style="fill: none; stroke: #ff7f0e; stroke-width: 1.5; stroke-linecap: square"/>
    </g>
    <g id="text_15">
     <!-- input_0 -->
     <g transform="translate(925.915625 257.279375) scale(0.1 -0.1)">
      <defs>
       <path id="DejaVuSans-69" d="M 603 3500 
L 1178 3500 
L 1178 0 
L 603 0 
L 603 3500 
z
M 603 4863 
L 1178 4863 
L 1178 4134 
L 603 4134 
L 603 4863 
z
" transform="scale(0.015625)"/>
       <path id="DejaVuSans-70" d="M 1159 525 
L 1159 -1331 
L 581 -1331 
L 581 3500 
L 1159 3500 
L 1159 2969 
Q 1341 3281 1617 3432 
Q 1894 3584 2278 3584 
Q 2916 3584 3314 3078 
Q 3713 2572 3713 1747 
Q 3713 922 3314 415 
Q 2916 -91 2278 -91 
Q 1894 -91 1617 61 
Q 1341 213 1159 525 
z
M 3116 1747 
Q 3116 2381 2855 2742 
Q 2594 3103 2138 3103 
Q 1681 3103 1420 2742 
Q 1159 2381 1159 1747 
Q 1159 1113 1420 752 
Q 1681 391 2138 391 
Q 2594 391 2855 752 
Q 3116 1113 3116 1747 
z
" transform="scale(0.015625)"/>
       <path id="DejaVuSans-75" d="M 544 1381 
L 544 3500 
L 1119 3500 
L 1119 1403 
Q 1119 906 1312 657 
Q 1506 409 1894 409 
Q 2359 409 2629 706 
Q 2900 1003 2900 1516 
L 2900 3500 
L 3475 3500 
L 3475 0 
L 2900 0 
L 2900 538 
Q 2691 219 2414 64 
Q 2138 -91 1772 -91 
Q 1169 -91 856 284 
Q 544 659 544 1381 
z
M 1991 3584 
L 1991 3584 
z
" transform="scale(0.015625)"/>
      </defs>
      <use xlink:href="#DejaVuSans-69"/>
      <use xlink:href="#DejaVuSans-6e" x="27.783203"/>
      <use xlink:href="#DejaVuSans-70" x="91.162109"/>
      <use xlink:href="#DejaVuSans-75" x="154.638672"/>
      <use xlink:href="#DejaVuSans-74" x="218.017578"/>
      <use xlink:href="#DejaVuSans-5f" x="257.226562"/>
      <use xlink:href="#DejaVuSans-30" x="307.226562"/>
     </g>
    </g>
    <g id="line2d_18">
     <path d="M 897.915625 268.735625 
L 907.915625 268.735625 
L 917.915625 268.735625 
" style="fill: none; stroke: #000000; stroke-width: 1.5; stroke-linecap: square"/>
     <g>
      <use xlink:href="#m4b107ca13f" x="907.915625" y="268.735625" style="stroke: #000000"/>
     </g>
    </g>
    <g id="text_16">
     <!-- target -->
     <g transform="translate(925.915625 272.235625) scale(0.1 -0.1)">
      <defs>
       <path id="DejaVuSans-61" d="M 2194 1759 
Q 1497 1759 1228 1600 
Q 959 1441 959 1056 
Q 959 750 1161 570 
Q 1363 391 1709 391 
Q 2188 391 2477 730 
Q 2766 1069 2766 1631 
L 2766 1759 
L 2194 1759 
z
M 3341 1997 
L 3341 0 
L 2766 0 
L 2766 531 
Q 2569 213 2275 61 
Q 1981 -91 1556 -91 
Q 1019 -91 701 211 
Q 384 513 384 1019 
Q 384 1609 779 1909 
Q 1175 2209 1959 2209 
L 2766 2209 
L 2766 2266 
Q 2766 2663 2505 2880 
Q 2244 3097 1772 3097 
Q 1472 3097 1187 3025 
Q 903 2953 641 2809 
L 641 3341 
Q 956 3463 1253 3523 
Q 1550 3584 1831 3584 
Q 2591 3584 2966 3190 
Q 3341 2797 3341 1997 
z
" transform="scale(0.015625)"/>
       <path id="DejaVuSans-72" d="M 2631 2963 
Q 2534 3019 2420 3045 
Q 2306 3072 2169 3072 
Q 1681 3072 1420 2755 
Q 1159 2438 1159 1844 
L 1159 0 
L 581 0 
L 581 3500 
L 1159 3500 
L 1159 2956 
Q 1341 3275 1631 3429 
Q 1922 3584 2338 3584 
Q 2397 3584 2469 3576 
Q 2541 3569 2628 3553 
L 2631 2963 
z
" transform="scale(0.015625)"/>
       <path id="DejaVuSans-67" d="M 2906 1791 
Q 2906 2416 2648 2759 
Q 2391 3103 1925 3103 
Q 1463 3103 1205 2759 
Q 947 2416 947 1791 
Q 947 1169 1205 825 
Q 1463 481 1925 481 
Q 2391 481 2648 825 
Q 2906 1169 2906 1791 
z
M 3481 434 
Q 3481 -459 3084 -895 
Q 2688 -1331 1869 -1331 
Q 1566 -1331 1297 -1286 
Q 1028 -1241 775 -1147 
L 775 -588 
Q 1028 -725 1275 -790 
Q 1522 -856 1778 -856 
Q 2344 -856 2625 -561 
Q 2906 -266 2906 331 
L 2906 616 
Q 2728 306 2450 153 
Q 2172 0 1784 0 
Q 1141 0 747 490 
Q 353 981 353 1791 
Q 353 2603 747 3093 
Q 1141 3584 1784 3584 
Q 2172 3584 2450 3431 
Q 2728 3278 2906 2969 
L 2906 3500 
L 3481 3500 
L 3481 434 
z
" transform="scale(0.015625)"/>
       <path id="DejaVuSans-65" d="M 3597 1894 
L 3597 1613 
L 953 1613 
Q 991 1019 1311 708 
Q 1631 397 2203 397 
Q 2534 397 2845 478 
Q 3156 559 3463 722 
L 3463 178 
Q 3153 47 2828 -22 
Q 2503 -91 2169 -91 
Q 1331 -91 842 396 
Q 353 884 353 1716 
Q 353 2575 817 3079 
Q 1281 3584 2069 3584 
Q 2775 3584 3186 3129 
Q 3597 2675 3597 1894 
z
M 3022 2063 
Q 3016 2534 2758 2815 
Q 2500 3097 2075 3097 
Q 1594 3097 1305 2825 
Q 1016 2553 972 2059 
L 3022 2063 
z
" transform="scale(0.015625)"/>
      </defs>
      <use xlink:href="#DejaVuSans-74"/>
      <use xlink:href="#DejaVuSans-61" x="39.208984"/>
      <use xlink:href="#DejaVuSans-72" x="100.488281"/>
      <use xlink:href="#DejaVuSans-67" x="139.851562"/>
      <use xlink:href="#DejaVuSans-65" x="203.328125"/>
      <use xlink:href="#DejaVuSans-74" x="264.851562"/>
     </g>
    </g>
   </g>
  </g>
 </g>
 <defs>
  <clipPath id="p06ad04f37b">
   <rect x="135" y="60.48" width="837" height="388.08"/>
  </clipPath>
 </defs>
</svg>
